<?xml version="1.0" encoding="utf-8"?>
<svg xmlns="http://www.w3.org/2000/svg" width="490pt" height="280pt" viewBox="0 0 490 280" version="1.1" xmlns:xlink="http://www.w3.org/1999/xlink">
	<g id="surface2">
		<path d="M 237.171245 14.746238 Q 241.391368 12.598549 244.581063 11.683899 Q 245.779369 11.342353 247.319222 12.100702 Q 271.794776 24.135866 291.193447 33.513917 Q 297.60757 36.610989 303.98696 39.800684 Q 307.47189 41.53736 308.166561 44.564965 Q 308.565996 46.301641 308.554418 49.838672 Q 308.444429 77.069752 308.513896 100.601712 C 308.525474 104.6308 308.589152 108.729356 307.639769 112.677399 Q 304.496385 125.673525 293.920028 134.362694 C 291.106613 136.678262 287.916918 138.773851 284.750379 140.637883 Q 268.518247 150.154868 249.930025 158.294089 C 247.353955 159.41714 244.783675 160.192855 241.97026 158.942448 C 227.908973 152.673048 214.056087 145.818966 201.01365 137.922879 Q 185.383566 128.463784 181.82338 111.12018 Q 180.96662 106.929001 181.001353 101.192182 Q 181.151865 74.812073 181.093976 48.18304 C 181.088187 46.573721 181.117132 44.449187 182.188082 43.14668 Q 183.594789 41.43316 185.557233 40.46641 C 191.218797 37.670362 196.590915 34.833791 202.501402 32.095631 C 208.261378 29.426939 213.77243 26.468801 219.468727 23.661175 C 225.385004 20.749348 231.214446 17.773843 237.171245 14.746238 Z M 242.497051 155.660131 Q 243.932703 156.320067 245.484134 156.534258 C 245.675168 156.557413 245.871992 156.528469 246.045659 156.447424 Q 252.760807 153.315618 259.244397 150.374847 C 261.421031 149.384941 263.452942 148.204002 265.646943 147.231463 Q 268.014611 146.183668 270.428591 144.875372 C 279.933997 139.729023 290.464043 134.779496 297.387591 126.414506 C 302.227129 120.573486 305.358934 113.15209 305.370512 105.43546 Q 305.387879 77.145008 305.416824 48.8835 Q 305.416824 47.071568 305.376301 45.085968 Q 305.370512 44.796522 305.185267 44.570754 Q 303.604892 42.6662 301.503514 41.693661 C 290.035663 36.396799 279.476673 31.134671 268.541403 25.843598 C 261.114218 22.254467 254.098047 18.555347 246.919786 15.099362 Q 245.206266 14.271547 243.336445 15.197774 Q 222.450021 25.559941 201.714109 35.783174 Q 195.624165 38.787623 188.723773 41.994685 C 187.016041 42.787767 184.468916 44.246575 184.486283 46.411631 Q 184.659951 73.694811 184.50365 101.863696 Q 184.468916 107.594727 185.134642 111.143335 Q 185.997191 115.716582 188.532738 120.509808 Q 193.366487 129.650513 203.549197 135.728879 C 215.868019 143.080807 229.188324 149.529664 242.497051 155.660131 Z M 260.73215 151.382119 Q 260.535326 151.358963 260.390603 151.468952 Q 260.176413 151.64262 260.477437 151.80471 C 260.552693 151.845232 260.639527 151.845232 260.708994 151.798921 L 261.681532 151.191084 Q 262.034657 150.965316 261.617854 150.942161 Q 261.218419 150.913216 261.004229 151.254762 Q 260.911606 151.405274 260.73215 151.382119 Z" style="fill:#0f0e0f;"/>
		<path d="M 248.07757 21.936077 C 263.151918 29.340106 279.303005 37.103047 295.263058 44.941245 Q 297.491792 46.029562 299.460025 47.65046 C 299.824727 47.945695 300.038917 48.391442 300.038917 48.866133 Q 300.154695 79.22323 299.656848 107.282125 Q 299.64527 108.011529 299.494758 108.746722 Q 296.635032 122.69802 285.034036 130.084682 Q 267.534131 141.234142 247.052931 149.547031 Q 245.015232 150.374847 242.983321 149.489142 Q 226.276497 142.212469 211.352661 133.89958 C 203.954421 129.777869 196.868783 125.048321 193.18703 117.291168 C 191.432987 113.592048 189.997335 109.61506 189.939446 105.423882 Q 189.65 82.025067 189.817879 54.336662 Q 189.835245 51.598503 190.055224 48.779299 C 190.101536 48.18304 190.443082 47.656249 190.958296 47.361014 Q 193.476476 45.942728 196.023601 44.709688 Q 217.888352 34.115965 237.408591 24.199544 Q 239.897826 22.931771 242.416006 21.837665 Q 245.316255 20.581469 248.07757 21.936077 Z M 193.140719 89.365418 L 192.967051 93.730264 Q 192.943895 94.3381 192.613927 93.822886 Q 192.266592 93.278728 191.589288 93.249783 Q 191.317209 93.232416 191.236164 93.498707 Q 190.929351 94.55229 190.900407 95.727441 Q 190.767261 100.995358 191.276686 106.24012 Q 191.299842 106.460099 191.456143 106.610611 Q 191.589288 106.732178 191.571921 106.905846 C 191.560343 107.050569 191.589288 107.195292 191.647177 107.328437 Q 191.6877 107.409482 191.768745 107.444215 Q 192.081346 107.571571 192.237647 107.270548 Q 192.422893 106.894268 192.411315 106.494832 C 192.388159 105.979618 192.735494 105.522294 193.233341 105.394938 C 195.271041 104.873935 197.013506 103.895607 199.126462 103.455649 Q 204.753292 102.292076 210.507479 101.261649 Q 214.345533 100.578556 218.305154 100.196487 Q 222.195309 99.820208 226.20703 99.368672 Q 230.322952 98.911347 235.145123 98.986603 C 235.498247 98.992392 235.799271 98.720313 235.822426 98.3614 L 236.175551 93.377139 Q 236.198706 93.006649 236.505519 92.792459 L 238.178517 91.60573 Q 238.398496 91.449429 238.525852 91.212083 C 239.28999 89.799587 240.349362 89.89221 241.75607 89.637497 Q 242.306017 89.539085 242.439162 88.994927 Q 242.925431 86.980383 243.724302 85.249496 Q 244.424762 83.732799 246.340894 83.918044 Q 251.684067 84.439047 257.08513 84.988994 Q 258.075035 85.093195 259.064941 85.145295 Q 260.08379 85.203184 261.079485 85.463686 C 262.439881 85.81681 262.862472 86.893549 263.377686 88.033966 Q 264.10709 89.654864 264.593359 91.096305 C 265.120151 92.636158 266.67737 92.167255 267.48203 93.226628 Q 268.471936 94.534923 268.147756 96.121088 Q 267.875677 97.44675 267.881466 98.639268 Q 267.881466 98.934503 268.153545 99.032914 Q 268.906105 99.316571 269.699187 99.43235 Q 272.79047 99.883886 275.742819 100.213854 Q 278.486767 100.520667 281.693829 101.25586 Q 285.236648 102.066308 288.785256 102.847813 C 290.794012 103.29356 292.611732 104.121375 294.574176 104.677111 C 295.62776 104.972346 296.577143 105.603339 297.312336 106.413787 C 297.468636 106.587455 297.752293 106.523777 297.833338 106.303798 C 298.163307 105.360204 298.435386 104.329776 298.452753 103.334082 Q 298.516431 99.467083 298.516431 95.715863 Q 298.516431 94.899625 298.325397 94.07181 C 298.267507 93.817097 297.978061 93.69553 297.758082 93.834464 C 295.292002 95.374317 293.862139 93.967609 292.108096 92.607213 Q 289.746217 90.777914 287.291715 88.554969 C 287.031213 88.323412 286.614411 88.456557 286.544944 88.798104 Q 286.498633 89.012294 286.35391 89.174383 Q 286.145509 89.417518 285.867641 89.249639 Q 285.740284 89.174383 285.641873 89.023872 L 279.424572 78.273847 Q 279.193016 77.8802 278.851469 78.181224 Q 277.039537 79.784755 276.987437 81.417231 Q 276.975859 81.828244 276.692202 81.52722 L 269.363429 73.781645 Q 269.25344 73.891634 269.265018 73.642711 Q 269.265018 73.567455 269.30554 73.503777 Q 270.034944 72.299681 269.212917 71.060853 Q 267.702009 68.774229 265.855344 66.78863 Q 265.467486 66.371827 265.23014 65.862402 Q 264.96385 65.28351 264.541259 64.901442 Q 264.182346 64.577262 263.927633 64.154671 Q 263.696077 63.766813 263.435575 63.500523 Q 262.144646 62.163282 262.173591 64.021526 Q 262.225691 68.039036 262.202535 71.958135 C 262.202535 72.276526 261.843622 72.461771 261.583121 72.282315 Q 261.565754 72.270737 261.062118 71.975502 L 260.824772 59.830348 Q 260.813194 59.419334 260.483226 59.1762 C 259.724877 58.620463 258.972318 58.041571 258.393426 57.312167 Q 253.733345 51.436413 248.864863 45.722749 Q 248.210715 44.952823 248.407539 45.942728 Q 249.102209 49.497125 250.236837 52.692609 Q 251.180431 55.36709 253.524944 59.2804 C 255.817356 63.101087 258.080824 66.696007 260.054846 70.649839 Q 259.151774 71.755523 258.011357 69.5731 Q 255.221098 64.218349 251.996669 59.112521 Q 251.475666 58.290495 251.053075 57.439524 Q 250.618906 56.576975 250.138426 55.754948 Q 249.4727 54.608742 249.154309 53.213612 Q 248.847497 51.870582 248.378594 50.695432 Q 247.828647 49.329247 248.02547 47.505737 C 248.048626 47.303125 248.008103 47.100512 247.91548 46.921056 Q 247.602879 46.30743 247.886536 45.61276 Q 247.990736 45.352258 247.950214 45.07439 Q 247.880747 44.617066 247.620246 44.200263 Q 247.452367 43.939762 247.446578 43.632949 Q 247.400267 42.110463 246.09776 40.802167 C 245.756213 40.454832 245.18311 40.512721 244.91682 40.917946 Q 243.180144 43.569271 241.049821 46.382686 C 240.36094 47.297336 240.152539 48.356708 239.388401 49.207679 Q 238.577952 50.110751 238.022216 50.996456 Q 235.417202 55.106589 232.615365 59.048843 Q 232.059628 59.824559 231.527048 60.571329 Q 230.982889 61.323889 230.467675 62.105393 Q 229.796161 63.135821 228.9394 64.154671 Q 227.162202 66.279205 225.743917 68.357427 Q 224.945046 69.532578 223.457293 69.793079 C 223.196792 69.83939 223.104169 70.16357 223.300992 70.337238 C 224.499299 71.390821 225.767072 72.571761 227.127468 73.411154 Q 227.937917 73.903212 228.539965 74.655772 Q 229.176746 75.443065 228.377875 75.964068 Q 228.24473 76.050902 228.279464 76.201414 Q 228.29683 76.288247 228.314197 76.375081 Q 228.372086 76.64716 228.117374 76.739783 Q 227.324292 77.035018 226.629621 76.641372 Q 225.246069 75.848289 223.544127 75.408332 C 223.20837 75.321498 222.861034 75.512532 222.751045 75.842501 Q 222.351609 77.058174 222.114264 78.424359 Q 221.91744 79.558987 221.570105 79.941056 Q 220.89859 80.682038 219.711862 80.18998 C 219.526616 80.114724 219.376104 79.958423 219.312426 79.767388 Q 218.345677 76.959762 217.141581 73.949524 Q 216.98528 73.555877 216.730568 73.231698 C 216.61479 73.086975 216.562689 72.901729 216.580056 72.722273 Q 216.736357 71.002963 216.435333 69.133142 Q 216.383233 68.780018 216.12852 69.028942 Q 215.694351 69.445744 215.358594 69.955169 Q 215.063359 70.412493 214.675501 70.829296 Q 214.287644 71.257676 214.229755 71.836568 Q 214.206599 72.097069 214.003987 72.270737 Q 213.158804 72.994352 212.736213 74.036357 Q 212.383089 74.910484 211.775252 75.691989 Q 209.922798 78.059657 208.180333 80.033679 Q 208.024032 80.207346 208.157177 80.415747 Q 208.336634 80.705193 208.579769 80.462059 Q 209.610196 79.414264 210.791136 78.268058 Q 211.265827 77.810733 211.46844 77.191319 Q 211.561062 76.91924 211.838931 76.953973 Q 212.330989 77.017651 212.672535 76.676105 C 212.794102 76.554538 212.979348 76.519804 213.135649 76.589271 L 213.488773 76.751361 Q 213.807163 76.901873 213.564029 77.156585 L 212.029965 78.777483 Q 212.157321 78.904839 211.919975 79.11324 C 208.2498 82.297146 205.413229 85.139506 203.404474 89.828531 Q 202.923994 90.951582 203.74602 90.04851 Q 208.3019 85.017939 212.435189 78.985884 Q 212.880936 78.20438 213.442461 78.158069 Q 213.760852 78.134913 213.818741 78.447515 C 213.975042 79.373742 213.297738 79.860011 213.014081 80.473637 Q 212.811469 80.907806 212.597279 81.370919 Q 212.400456 81.805088 212.018387 82.152423 Q 209.419162 84.543247 207.196217 87.292984 Q 206.738892 87.860299 206.235256 88.398668 Q 205.500063 89.185961 204.909593 90.227967 Q 204.539102 90.870537 203.624453 91.28155 Q 203.282907 91.432062 203.126606 91.096305 Q 202.964516 90.737392 202.646125 90.945793 Q 202.374046 91.119461 202.275635 90.818437 L 202.0325 90.077455 Q 201.957244 89.840109 202.142489 89.67802 Q 202.617181 89.249639 202.547714 88.537602 Q 202.507191 88.097644 202.229323 88.439191 Q 201.957244 88.774948 201.505708 88.867571 C 201.320463 88.902304 201.146795 88.994927 201.01365 89.128072 Q 199.155407 91.009471 197.320319 92.804036 Q 195.9194 94.187588 194.04379 94.905414 C 193.910645 94.957515 193.754344 94.945937 193.632777 94.870681 Q 193.34912 94.697013 193.435954 94.529135 Q 193.45332 94.494401 193.488054 94.50019 Q 193.679088 94.517557 193.864334 94.465456 Q 193.93959 94.442301 193.974323 94.372834 Q 194.038001 94.262844 194.009057 94.222322 Q 200.365291 88.919671 205.245351 82.123479 Q 210.941648 74.192658 216.753724 65.891347 C 217.031592 65.491911 217.569961 65.370344 217.998341 65.613479 L 223.081013 68.507939 Q 224.088285 69.081042 224.748222 68.12587 L 245.3452 38.237676 C 245.414667 38.139264 245.565179 38.133475 245.640435 38.226098 Q 252.187703 46.504254 258.405004 54.145628 Q 259.875389 55.951771 261.982556 59.535113 C 264.454425 63.743658 267.887255 67.726435 270.584892 71.894457 Q 272.36209 74.638405 274.56188 77.02344 C 274.770281 77.254997 275.111827 77.307097 275.383906 77.156585 Q 277.091638 76.201414 278.590968 74.649983 C 278.712535 74.528416 278.915148 74.551571 279.001981 74.696294 Q 284.275688 83.339152 291.98074 90.58688 C 293.207991 91.744664 294.302097 93.041382 295.986673 93.822886 C 296.316641 93.973398 296.692921 93.736053 296.692921 93.371351 Q 296.779755 72.502294 296.849222 50.735954 C 296.855011 49.236624 295.182013 48.582476 294.047385 48.02674 Q 277.155316 39.742795 260.234302 31.476217 Q 254.393282 28.622279 248.754874 25.727819 Q 247.052931 24.853692 245.449401 24.402157 C 244.928398 24.257434 244.37845 24.309534 243.892181 24.54688 Q 219.769751 36.506789 196.880361 47.992006 Q 195.722577 48.570898 194.09589 49.566592 Q 193.088618 50.186007 193.088618 51.586925 Q 193.111774 70.481961 193.140719 89.365418 Z M 222.820512 74.337381 L 227.897395 76.045113 C 228.152107 76.131947 228.337353 75.796189 228.128952 75.62831 L 218.212532 67.546978 C 217.957819 67.344366 217.57575 67.489089 217.529439 67.813268 C 216.898447 71.917613 218.75669 75.477799 220.325487 79.257963 Q 220.5802 79.860011 220.771234 79.234808 L 222.166364 74.673139 C 222.253198 74.395271 222.548433 74.244759 222.820512 74.337381 Z M 244.390028 89.579608 C 245.814102 88.010811 246.694018 87.217728 248.974853 87.507174 Q 253.304965 88.057122 258.231336 88.803893 C 259.823289 89.047027 261.044751 89.793798 262.046234 91.038416 Q 262.416725 91.49574 262.966673 91.316284 C 263.151918 91.258395 263.256119 91.055783 263.192441 90.870537 C 262.717749 89.527508 262.260424 87.136684 260.575849 86.870393 Q 253.907013 85.805232 245.443612 85.249496 Q 245.07891 85.22634 244.829986 85.49263 C 244.013748 86.360968 243.718513 88.265523 243.730091 89.324895 Q 243.73588 90.297434 244.390028 89.579608 Z M 265.959544 106.280642 C 266.399502 106.535355 266.827882 106.645344 267.337307 106.685867 Q 278.017865 107.554205 287.85324 109.93924 C 289.931462 110.437087 291.899695 111.218591 293.948973 111.843795 Q 295.292002 112.249019 295.737749 110.917567 Q 296.235596 109.441393 296.368742 107.808917 Q 296.461364 106.703233 295.41357 106.34432 Q 292.524899 105.337048 289.763584 104.648167 Q 279.690863 102.124198 269.021883 100.66539 Q 267.661487 100.480144 266.41108 100.642234 C 266.185312 100.671179 265.994278 100.468567 266.040589 100.248588 L 267.117328 95.200649 C 267.262051 94.534923 266.833671 93.874987 266.167945 93.730264 Q 264.344436 93.336617 262.769849 92.08621 C 262.457248 91.837287 262.005712 91.87202 261.733633 92.167255 Q 261.067907 92.902448 260.089579 92.815614 Q 252.413471 92.138311 245.18311 90.951582 C 243.579579 90.685292 241.900793 90.806859 240.291473 90.951582 C 239.903615 90.986315 239.579436 91.269973 239.498391 91.646252 L 239.191578 93.041382 Q 239.098955 93.469762 238.693731 93.296095 L 238.42744 93.186105 Q 237.929593 92.971915 237.808026 93.498707 Q 237.095989 96.584201 236.887588 99.530762 C 236.864432 99.825996 236.621297 100.057553 236.326062 100.063342 Q 220.458633 100.480144 204.064411 103.716151 Q 198.617037 104.787101 193.956956 106.512199 C 193.499632 106.680078 193.250708 107.166347 193.378064 107.629461 L 194.454804 111.554349 Q 194.651627 112.283752 195.375242 112.057985 Q 216.006953 105.574394 237.599625 104.659745 C 237.89486 104.648167 238.137994 104.422399 238.166939 104.127164 Q 238.658997 99.548128 238.722675 95.362739 Q 238.728464 95.03856 239.052644 95.050137 Q 239.295778 95.055926 239.509969 95.19486 Q 239.787837 95.374317 240.117805 95.380106 Q 252.824485 95.675341 265.195407 97.400439 Q 265.809032 97.487273 265.745354 98.106687 L 265.044895 105.140225 Q 264.998584 105.603339 264.541259 105.528083 L 257.965046 104.474499 C 257.791378 104.445555 257.635077 104.335565 257.548243 104.173475 L 257.334053 103.785618 Q 257.18933 103.513539 256.882518 103.490383 Q 250.659429 102.998325 244.638952 102.865179 Q 244.198994 102.853602 244.233727 103.29356 L 244.320561 104.41661 Q 244.355295 104.95498 244.893664 104.978135 L 255.909979 105.48756 Q 256.274681 105.499138 256.019969 105.771217 Q 255.255831 106.570088 254.092258 106.755334 Q 244.048482 108.32992 233.558959 110.819156 Q 228.707844 111.965362 224.070919 114.182518 C 221.587472 115.369247 219.543983 117.470625 219.306637 120.162473 C 218.849313 125.424601 226.988534 129.528945 231.312858 131.4335 Q 238.27114 134.495839 245.756213 137.616067 C 248.575417 138.797006 251.261476 140.221081 254.011213 141.488854 Q 255.325298 142.096691 256.60465 141.552532 Q 266.330035 137.442399 275.41864 132.162904 Q 276.11331 131.75768 275.476529 131.265621 Q 273.438829 129.691035 270.943805 128.457995 Q 259.574366 122.842743 247.3308 119.496747 Q 246.207749 119.189934 245.379933 118.599464 C 244.899453 118.257918 244.731574 117.621137 244.974709 117.082767 C 246.711385 113.20998 253.166031 111.06229 257.212486 110.442876 Q 260.379025 109.956607 263.545565 109.331403 Q 266.086901 108.827767 265.55432 106.581666 Q 265.409597 105.968041 265.959544 106.280642 Z M 202.379835 126.171372 Q 203.630242 127.120755 205.135361 128.11066 Q 214.600245 134.322171 222.843668 138.357048 Q 225.078191 139.445365 227.497959 140.603149 Q 229.749849 141.679889 232.233296 142.762417 Q 238.317451 145.396375 243.660624 148.204002 C 245.061543 148.933405 246.155649 148.435558 247.469734 148.076645 Q 249.351133 147.573009 253.293387 145.008518 C 254.103836 144.481726 255.001119 144.394892 255.909979 144.117024 Q 256.164692 144.041768 256.245736 143.787056 Q 256.303626 143.613388 256.170481 143.474454 Q 255.921557 143.213952 255.556855 143.254475 C 254.83324 143.329731 254.063314 143.248686 253.432321 142.855039 Q 247.128187 138.901207 239.498391 136.180415 Q 237.437535 135.445222 235.631392 134.600039 Q 233.738415 133.708546 231.816494 132.892308 C 229.807738 132.035548 228.059485 130.95302 226.172297 129.911014 Q 222.18952 127.711224 219.659762 124.590997 Q 218.617756 123.305856 218.102542 121.592336 Q 217.697318 120.249306 218.438299 118.749976 Q 219.740806 116.116018 221.379071 114.796144 Q 224.053552 112.631088 225.610771 112.086929 Q 227.01169 111.594871 228.499443 111.004401 Q 230.004562 110.402353 231.474947 110.04344 Q 235.064078 109.163525 238.467963 108.405176 Q 241.536091 107.716294 244.152682 106.784278 C 244.621585 106.6164 244.667896 105.968041 244.227938 105.736484 Q 243.3596 105.279159 242.774919 104.543966 Q 242.55494 104.271887 242.607041 103.924552 Q 242.798075 102.697301 243.52169 101.881063 C 244.366872 100.925891 246.36405 101.365849 247.550779 101.296382 Q 247.979159 101.273226 247.91548 100.850635 Q 247.654979 99.206582 247.990736 97.643574 C 248.060203 97.34255 247.828647 97.058893 247.521834 97.058893 L 240.36094 97.035737 C 240.129383 97.029948 239.944138 97.226771 239.955715 97.458328 Q 240.106227 100.428044 239.973082 103.143048 C 239.892037 104.821834 238.682153 105.788584 237.032311 105.794373 Q 235.365102 105.805951 233.616848 106.170653 C 231.967006 106.512199 230.317163 106.257487 228.638377 106.477466 Q 224.939257 106.969524 221.176459 107.241603 C 219.740806 107.345804 218.409355 107.826284 217.020014 107.965218 Q 215.462794 108.11573 213.998198 108.515165 Q 211.265827 109.256147 208.747647 109.690316 Q 208.562402 109.72505 208.435046 109.88714 C 208.377156 109.956607 208.3019 110.008707 208.209278 110.031863 L 205.14115 110.790211 Q 204.840126 110.859678 204.539102 110.819156 Q 204.093355 110.761266 203.751809 111.056501 Q 203.497097 111.282269 203.15555 111.311214 Q 202.304579 111.38647 201.598331 111.756961 Q 201.222051 111.953784 200.805249 111.86695 Q 200.278457 111.756961 199.803766 112.005884 Q 199.103306 112.370586 199.056995 112.387953 Q 196.862994 113.163668 194.622682 113.296813 C 194.356392 113.31418 194.09589 113.221557 193.910645 113.036312 L 193.221764 112.359008 Q 192.822328 111.971151 192.781806 112.521098 Q 192.70655 113.568893 193.29702 114.882978 Q 195.65311 120.110372 199.797977 123.994738 Q 201.06575 125.181466 202.379835 126.171372 Z M 249.623212 98.002487 C 249.31061 97.979331 249.055898 98.239832 249.084842 98.552434 L 249.252721 100.277532 C 249.275877 100.520667 249.478489 100.71749 249.727412 100.729068 L 257.143019 101.140081 C 257.415098 101.157448 257.652444 100.949047 257.669811 100.676968 L 257.785589 99.137115 C 257.808745 98.859247 257.600344 98.616112 257.322476 98.592956 L 249.623212 98.002487 Z M 274.359267 129.4479 Q 275.123405 129.945748 275.95122 130.391494 C 277.149527 131.045642 277.085849 132.510239 275.893331 133.083342 Q 274.179811 133.905369 272.663114 135.115253 Q 270.955382 136.475649 273.050971 135.867813 Q 274.787647 135.358388 276.269611 134.148504 Q 277.166894 133.413311 278.179955 132.863363 Q 279.146704 132.336572 280.130821 131.618746 Q 281.68804 130.478328 283.627328 129.3958 Q 285.560828 128.313272 286.979113 127.028132 Q 289.167325 125.048321 291.442371 122.842743 Q 292.507532 121.812315 293.16168 120.585064 C 294.348408 118.367907 295.714594 116.648598 296.229807 114.089896 Q 296.345586 113.52837 295.772483 113.615204 C 295.193591 113.702038 294.585754 113.736771 294.041596 113.482059 Q 291.309225 112.208496 287.974807 111.264903 C 286.516 110.853889 285.091925 110.819156 283.679429 110.396564 Q 281.890652 109.869773 280.252388 109.701894 C 278.041021 109.481915 276.020687 108.839345 273.849842 108.468854 Q 273.126227 108.347287 271.048005 108.561477 Q 269.62972 108.711989 268.101445 108.086785 C 267.522553 107.84944 266.914716 108.034685 266.590537 108.573055 C 266.19689 109.23878 265.641154 109.759783 265.027528 110.25763 Q 264.48337 110.697588 263.811855 110.772844 Q 259.290708 111.299636 255.834723 111.820639 C 254.769562 111.982729 253.878068 112.497942 252.778173 112.631088 Q 251.666701 112.770022 250.630484 113.401014 Q 248.56384 114.662999 246.537717 116.191273 C 245.808314 116.741221 245.999348 117.887427 246.867686 118.171084 Q 248.754874 118.778921 250.856252 119.189934 Q 252.477149 119.502536 253.797023 120.405607 C 254.717462 121.030811 255.69 120.689264 256.662539 121.204478 Q 257.999779 121.916515 259.38912 122.339107 Q 259.638044 122.414363 259.800133 122.611186 Q 260.118524 122.993255 260.651105 122.883265 Q 260.934762 122.825376 261.21263 122.91221 Q 263.939211 123.774759 266.260568 125.083055 Q 267.181007 125.604058 268.23459 125.870348 Q 269.386585 126.159794 270.428591 126.854464 Q 272.41419 128.180127 274.359267 129.4479 Z" style="fill:#0f0e0f;"/>
		<path d="M 260.054846 70.649839 L 260.894239 72.212848 Q 260.981073 72.369148 261.108429 72.241792 Q 261.183685 72.160747 261.062118 71.975502 Q 261.565754 72.270737 261.583121 72.282315 C 261.843622 72.461771 262.202535 72.276526 262.202535 71.958135 Q 262.225691 68.039036 262.173591 64.021526 Q 262.144646 62.163282 263.435575 63.500523 Q 263.696077 63.766813 263.927633 64.154671 Q 264.182346 64.577262 264.541259 64.901442 Q 264.96385 65.28351 265.23014 65.862402 Q 265.467486 66.371827 265.855344 66.78863 Q 267.702009 68.774229 269.212917 71.060853 Q 270.034944 72.299681 269.30554 73.503777 Q 269.265018 73.567455 269.265018 73.642711 Q 269.25344 73.891634 269.363429 73.781645 Q 271.962654 80.820972 276.385389 86.499902 Q 277.097427 87.408763 277.288461 88.010811 Q 278.000498 90.193233 278.133643 87.90661 Q 278.232055 86.250979 278.3131 84.560614 C 278.318889 84.381158 278.533079 84.282746 278.672013 84.398524 Q 281.659096 86.789348 284.443566 89.157017 Q 284.686701 89.365418 284.981936 89.486985 Q 285.76344 89.805376 285.641873 89.023872 Q 285.740284 89.174383 285.867641 89.249639 Q 286.145509 89.417518 286.35391 89.174383 Q 286.498633 89.012294 286.544944 88.798104 C 286.614411 88.456557 287.031213 88.323412 287.291715 88.554969 Q 289.746217 90.777914 292.108096 92.607213 C 293.862139 93.967609 295.292002 95.374317 297.758082 93.834464 C 297.978061 93.69553 298.267507 93.817097 298.325397 94.07181 Q 298.516431 94.899625 298.516431 95.715863 Q 298.516431 99.467083 298.452753 103.334082 C 298.435386 104.329776 298.163307 105.360204 297.833338 106.303798 C 297.752293 106.523777 297.468636 106.587455 297.312336 106.413787 C 296.577143 105.603339 295.62776 104.972346 294.574176 104.677111 C 292.611732 104.121375 290.794012 103.29356 288.785256 102.847813 Q 285.236648 102.066308 281.693829 101.25586 Q 278.486767 100.520667 275.742819 100.213854 Q 272.79047 99.883886 269.699187 99.43235 Q 268.906105 99.316571 268.153545 99.032914 Q 267.881466 98.934503 267.881466 98.639268 Q 267.875677 97.44675 268.147756 96.121088 Q 268.471936 94.534923 267.48203 93.226628 C 266.67737 92.167255 265.120151 92.636158 264.593359 91.096305 Q 264.10709 89.654864 263.377686 88.033966 C 262.862472 86.893549 262.439881 85.81681 261.079485 85.463686 Q 260.08379 85.203184 259.064941 85.145295 Q 258.075035 85.093195 257.08513 84.988994 Q 251.684067 84.439047 246.340894 83.918044 Q 244.424762 83.732799 243.724302 85.249496 Q 242.925431 86.980383 242.439162 88.994927 Q 242.306017 89.539085 241.75607 89.637497 C 240.349362 89.89221 239.28999 89.799587 238.525852 91.212083 Q 238.398496 91.449429 238.178517 91.60573 L 236.505519 92.792459 Q 236.198706 93.006649 236.175551 93.377139 L 235.822426 98.3614 C 235.799271 98.720313 235.498247 98.992392 235.145123 98.986603 Q 230.322952 98.911347 226.20703 99.368672 Q 222.195309 99.820208 218.305154 100.196487 Q 214.345533 100.578556 210.507479 101.261649 Q 204.753292 102.292076 199.126462 103.455649 C 197.013506 103.895607 195.271041 104.873935 193.233341 105.394938 C 192.735494 105.522294 192.388159 105.979618 192.411315 106.494832 Q 192.422893 106.894268 192.237647 107.270548 Q 192.081346 107.571571 191.768745 107.444215 Q 191.6877 107.409482 191.647177 107.328437 C 191.589288 107.195292 191.560343 107.050569 191.571921 106.905846 Q 191.589288 106.732178 191.456143 106.610611 Q 191.299842 106.460099 191.276686 106.24012 Q 190.767261 100.995358 190.900407 95.727441 Q 190.929351 94.55229 191.236164 93.498707 Q 191.317209 93.232416 191.589288 93.249783 Q 192.266592 93.278728 192.613927 93.822886 Q 192.943895 94.3381 192.967051 93.730264 L 193.140719 89.365418 Q 193.111774 91.628886 193.383853 93.846042 Q 193.424376 94.187588 194.009057 94.222322 Q 194.038001 94.262844 193.974323 94.372834 Q 193.93959 94.442301 193.864334 94.465456 Q 193.679088 94.517557 193.488054 94.50019 Q 193.45332 94.494401 193.435954 94.529135 Q 193.34912 94.697013 193.632777 94.870681 C 193.754344 94.945937 193.910645 94.957515 194.04379 94.905414 Q 195.9194 94.187588 197.320319 92.804036 Q 199.155407 91.009471 201.01365 89.128072 C 201.146795 88.994927 201.320463 88.902304 201.505708 88.867571 Q 201.957244 88.774948 202.229323 88.439191 Q 202.507191 88.097644 202.547714 88.537602 Q 202.617181 89.249639 202.142489 89.67802 Q 201.957244 89.840109 202.0325 90.077455 L 202.275635 90.818437 Q 202.374046 91.119461 202.646125 90.945793 Q 202.964516 90.737392 203.126606 91.096305 Q 203.282907 91.432062 203.624453 91.28155 Q 204.539102 90.870537 204.909593 90.227967 Q 205.500063 89.185961 206.235256 88.398668 Q 206.738892 87.860299 207.196217 87.292984 Q 209.419162 84.543247 212.018387 82.152423 Q 212.400456 81.805088 212.597279 81.370919 Q 212.811469 80.907806 213.014081 80.473637 C 213.297738 79.860011 213.975042 79.373742 213.818741 78.447515 Q 213.760852 78.134913 213.442461 78.158069 Q 212.880936 78.20438 212.435189 78.985884 Q 212.336778 78.783272 212.029965 78.777483 L 213.564029 77.156585 Q 213.807163 76.901873 213.488773 76.751361 L 213.135649 76.589271 C 212.979348 76.519804 212.794102 76.554538 212.672535 76.676105 Q 212.330989 77.017651 211.838931 76.953973 Q 211.561062 76.91924 211.46844 77.191319 Q 211.265827 77.810733 210.791136 78.268058 Q 209.610196 79.414264 208.579769 80.462059 Q 208.336634 80.705193 208.157177 80.415747 Q 208.024032 80.207346 208.180333 80.033679 Q 209.922798 78.059657 211.775252 75.691989 Q 212.383089 74.910484 212.736213 74.036357 Q 213.158804 72.994352 214.003987 72.270737 Q 214.206599 72.097069 214.229755 71.836568 Q 214.287644 71.257676 214.675501 70.829296 Q 215.063359 70.412493 215.358594 69.955169 Q 215.694351 69.445744 216.12852 69.028942 Q 216.383233 68.780018 216.435333 69.133142 Q 216.736357 71.002963 216.580056 72.722273 C 216.562689 72.901729 216.61479 73.086975 216.730568 73.231698 Q 216.98528 73.555877 217.141581 73.949524 Q 218.345677 76.959762 219.312426 79.767388 C 219.376104 79.958423 219.526616 80.114724 219.711862 80.18998 Q 220.89859 80.682038 221.570105 79.941056 Q 221.91744 79.558987 222.114264 78.424359 Q 222.351609 77.058174 222.751045 75.842501 C 222.861034 75.512532 223.20837 75.321498 223.544127 75.408332 Q 225.246069 75.848289 226.629621 76.641372 Q 227.324292 77.035018 228.117374 76.739783 Q 228.372086 76.64716 228.314197 76.375081 Q 228.29683 76.288247 228.279464 76.201414 Q 228.24473 76.050902 228.377875 75.964068 Q 229.176746 75.443065 228.539965 74.655772 Q 227.937917 73.903212 227.127468 73.411154 C 225.767072 72.571761 224.499299 71.390821 223.300992 70.337238 C 223.104169 70.16357 223.196792 69.83939 223.457293 69.793079 Q 224.945046 69.532578 225.743917 68.357427 Q 227.162202 66.279205 228.9394 64.154671 Q 229.796161 63.135821 230.467675 62.105393 Q 230.982889 61.323889 231.527048 60.571329 Q 232.059628 59.824559 232.615365 59.048843 Q 235.417202 55.106589 238.022216 50.996456 Q 238.577952 50.110751 239.388401 49.207679 C 240.152539 48.356708 240.36094 47.297336 241.049821 46.382686 Q 243.180144 43.569271 244.91682 40.917946 C 245.18311 40.512721 245.756213 40.454832 246.09776 40.802167 Q 247.400267 42.110463 247.446578 43.632949 Q 247.452367 43.939762 247.620246 44.200263 Q 247.880747 44.617066 247.950214 45.07439 Q 247.990736 45.352258 247.886536 45.61276 Q 247.602879 46.30743 247.91548 46.921056 C 248.008103 47.100512 248.048626 47.303125 248.02547 47.505737 Q 247.828647 49.329247 248.378594 50.695432 Q 248.847497 51.870582 249.154309 53.213612 Q 249.4727 54.608742 250.138426 55.754948 Q 250.618906 56.576975 251.053075 57.439524 Q 251.475666 58.290495 251.996669 59.112521 Q 255.221098 64.218349 258.011357 69.5731 Q 259.151774 71.755523 260.054846 70.649839 Z" style="fill:#1d1b1b;"/>
		<path d="M 199.797977 123.994738 Q 195.65311 120.110372 193.29702 114.882978 Q 192.70655 113.568893 192.781806 112.521098 Q 192.822328 111.971151 193.221764 112.359008 L 193.910645 113.036312 C 194.09589 113.221557 194.356392 113.31418 194.622682 113.296813 Q 196.862994 113.163668 199.056995 112.387953 Q 199.103306 112.370586 199.803766 112.005884 Q 200.278457 111.756961 200.805249 111.86695 Q 201.222051 111.953784 201.598331 111.756961 Q 202.304579 111.38647 203.15555 111.311214 Q 203.497097 111.282269 203.751809 111.056501 Q 204.093355 110.761266 204.539102 110.819156 Q 204.840126 110.859678 205.14115 110.790211 L 208.209278 110.031863 C 208.3019 110.008707 208.377156 109.956607 208.435046 109.88714 Q 208.562402 109.72505 208.747647 109.690316 Q 211.265827 109.256147 213.998198 108.515165 Q 215.462794 108.11573 217.020014 107.965218 C 218.409355 107.826284 219.740806 107.345804 221.176459 107.241603 Q 224.939257 106.969524 228.638377 106.477466 C 230.317163 106.257487 231.967006 106.512199 233.616848 106.170653 Q 235.365102 105.805951 237.032311 105.794373 C 238.682153 105.788584 239.892037 104.821834 239.973082 103.143048 Q 240.106227 100.428044 239.955715 97.458328 C 239.944138 97.226771 240.129383 97.029948 240.36094 97.035737 L 247.521834 97.058893 C 247.828647 97.058893 248.060203 97.34255 247.990736 97.643574 Q 247.654979 99.206582 247.91548 100.850635 Q 247.979159 101.273226 247.550779 101.296382 C 246.36405 101.365849 244.366872 100.925891 243.52169 101.881063 Q 242.798075 102.697301 242.607041 103.924552 Q 242.55494 104.271887 242.774919 104.543966 Q 243.3596 105.279159 244.227938 105.736484 C 244.667896 105.968041 244.621585 106.6164 244.152682 106.784278 Q 241.536091 107.716294 238.467963 108.405176 Q 235.064078 109.163525 231.474947 110.04344 Q 230.004562 110.402353 228.499443 111.004401 Q 227.01169 111.594871 225.610771 112.086929 Q 224.053552 112.631088 221.379071 114.796144 Q 219.740806 116.116018 218.438299 118.749976 Q 217.697318 120.249306 218.102542 121.592336 Q 218.617756 123.305856 219.659762 124.590997 Q 222.18952 127.711224 226.172297 129.911014 C 228.059485 130.95302 229.807738 132.035548 231.816494 132.892308 Q 233.738415 133.708546 235.631392 134.600039 Q 237.437535 135.445222 239.498391 136.180415 Q 247.128187 138.901207 253.432321 142.855039 C 254.063314 143.248686 254.83324 143.329731 255.556855 143.254475 Q 255.921557 143.213952 256.170481 143.474454 Q 256.303626 143.613388 256.245736 143.787056 Q 256.164692 144.041768 255.909979 144.117024 C 255.001119 144.394892 254.103836 144.481726 253.293387 145.008518 Q 249.351133 147.573009 247.469734 148.076645 C 246.155649 148.435558 245.061543 148.933405 243.660624 148.204002 Q 238.317451 145.396375 232.233296 142.762417 Q 229.749849 141.679889 227.497959 140.603149 Q 225.078191 139.445365 222.843668 138.357048 Q 214.600245 134.322171 205.135361 128.11066 Q 203.630242 127.120755 202.379835 126.171372 Q 201.06575 125.181466 199.797977 123.994738 Z" style="fill:#1d1b1b;"/>
		<path d="M 274.359267 129.4479 Q 272.41419 128.180127 270.428591 126.854464 Q 269.386585 126.159794 268.23459 125.870348 Q 267.181007 125.604058 266.260568 125.083055 Q 263.939211 123.774759 261.21263 122.91221 Q 260.934762 122.825376 260.651105 122.883265 Q 260.118524 122.993255 259.800133 122.611186 Q 259.638044 122.414363 259.38912 122.339107 Q 257.999779 121.916515 256.662539 121.204478 C 255.69 120.689264 254.717462 121.030811 253.797023 120.405607 Q 252.477149 119.502536 250.856252 119.189934 Q 248.754874 118.778921 246.867686 118.171084 C 245.999348 117.887427 245.808314 116.741221 246.537717 116.191273 Q 248.56384 114.662999 250.630484 113.401014 Q 251.666701 112.770022 252.778173 112.631088 C 253.878068 112.497942 254.769562 111.982729 255.834723 111.820639 Q 259.290708 111.299636 263.811855 110.772844 Q 264.48337 110.697588 265.027528 110.25763 C 265.641154 109.759783 266.19689 109.23878 266.590537 108.573055 C 266.914716 108.034685 267.522553 107.84944 268.101445 108.086785 Q 269.62972 108.711989 271.048005 108.561477 Q 273.126227 108.347287 273.849842 108.468854 C 276.020687 108.839345 278.041021 109.481915 280.252388 109.701894 Q 281.890652 109.869773 283.679429 110.396564 C 285.091925 110.819156 286.516 110.853889 287.974807 111.264903 Q 291.309225 112.208496 294.041596 113.482059 C 294.585754 113.736771 295.193591 113.702038 295.772483 113.615204 Q 296.345586 113.52837 296.229807 114.089896 C 295.714594 116.648598 294.348408 118.367907 293.16168 120.585064 Q 292.507532 121.812315 291.442371 122.842743 Q 289.167325 125.048321 286.979113 127.028132 Q 285.560828 128.313272 283.627328 129.3958 Q 281.68804 130.478328 280.130821 131.618746 Q 279.146704 132.336572 278.179955 132.863363 Q 277.166894 133.413311 276.269611 134.148504 Q 274.787647 135.358388 273.050971 135.867813 Q 270.955382 136.475649 272.663114 135.115253 Q 274.179811 133.905369 275.893331 133.083342 C 277.085849 132.510239 277.149527 131.045642 275.95122 130.391494 Q 275.123405 129.945748 274.359267 129.4479 Z" style="fill:#1d1b1b;"/>
		<path d="M 261.004229 151.254762 Q 261.218419 150.913216 261.617854 150.942161 Q 262.034657 150.965316 261.681532 151.191084 L 260.708994 151.798921 C 260.639527 151.845232 260.552693 151.845232 260.477437 151.80471 Q 260.176413 151.64262 260.390603 151.468952 Q 260.535326 151.358963 260.73215 151.382119 Q 260.911606 151.405274 261.004229 151.254762 Z" style="fill:#1d1b1b;"/>
	</g>
	<g id="surface4">
	</g>
</svg>
