<?xml version="1.0" encoding="utf-8"?>
<svg xmlns="http://www.w3.org/2000/svg" width="490pt" height="280pt" viewBox="0 0 490 280" version="1.1" xmlns:xlink="http://www.w3.org/1999/xlink">
	<g id="surface2">
		<path d="M 235.200038 10.71615 C 241.703432 8.796959 249.522707 9.224502 255.940592 11.395467 C 274.704951 17.737345 285.650036 35.741629 283.911363 55.247061 C 283.298553 62.092489 280.861561 68.990173 276.956674 74.757244 Q 268.572094 87.141721 253.826633 91.616664 Q 251.565409 92.300732 249.332688 92.424244 Q 244.696228 92.676019 239.503964 92.438496 Q 237.998065 92.371989 236.606177 91.835186 C 233.983917 90.823336 231.371158 90.120266 228.86766 88.85189 C 220.734855 84.737983 213.903678 78.424607 210.017793 70.206293 Q 203.561903 56.529688 206.331428 42.601308 Q 207.960839 34.411497 212.431032 27.537566 Q 220.559087 15.039078 235.200038 10.71615 Z M 249.829445 11.837736 C 249.840988 11.642491 248.539359 11.395467 246.919591 11.287014 C 245.299538 11.176945 243.974157 11.243452 243.961948 11.437746 C 243.950405 11.63299 245.252034 11.880015 246.871801 11.988468 C 248.491854 12.098537 249.817236 12.03203 249.829445 11.837736 Z M 211.694709 35.04806 C 210.540345 37.656068 209.761268 40.287829 209.08195 43.32338 Q 207.856329 48.77692 208.530896 53.688907 Q 208.88243 56.273163 209.38598 59.242207 Q 209.865778 62.073487 210.801621 64.62449 Q 215.347821 77.056472 226.330909 84.049165 Q 230.611083 86.780685 235.076525 88.14407 Q 240.078771 89.668971 246.648672 89.540709 C 254.558205 89.383943 262.225465 85.597818 268.23006 80.400803 C 274.058887 75.351053 277.807009 68.182593 279.849711 60.800361 C 282.913765 49.698512 280.396015 37.304534 273.607593 27.822594 C 264.947485 15.727896 247.513258 9.124742 233.385358 14.521277 Q 220.79186 19.338254 214.103198 30.330843 Q 212.91558 32.278536 211.694709 35.04806 Z" style="fill:#0c1a33;"/>
		<path d="M 249.829445 11.837736 C 249.817236 12.03203 248.491854 12.098537 246.871801 11.988468 C 245.252034 11.880015 243.950405 11.63299 243.961948 11.437746 C 243.974157 11.243452 245.299538 11.176945 246.919591 11.287014 C 248.539359 11.395467 249.840988 11.642491 249.829445 11.837736 Z" style="fill:#112439;"/>
		<path d="M 244.572716 14.027228 C 244.677227 14.022477 244.762735 14.103235 244.767486 14.202995 L 244.772236 14.260001 C 244.795988 14.849059 244.316191 15.352609 243.693879 15.381112 L 243.518112 15.390613 C 242.8958 15.419116 242.368498 14.96307 242.339995 14.374012 L 242.339995 14.317006 C 242.335245 14.217246 242.411252 14.126988 242.515762 14.122237 L 244.572716 14.027228 Z" style="fill:#112439;"/>
		<path d="M 247.607459 14.752672 C 247.622518 15.091333 247.213978 15.385862 246.693516 15.409092 C 246.173625 15.428616 245.741332 15.172091 245.727888 14.831435 C 245.712829 14.492774 246.12137 14.198245 246.641831 14.175015 C 247.161723 14.15549 247.594016 14.412016 247.607459 14.752672 Z" style="fill:#112439;"/>
		<path d="M 241.247387 14.991573 C 240.800843 16.293202 239.570471 15.699393 238.677382 15.419116 Q 237.926808 15.181592 238.511116 14.65904 Q 238.824647 14.374012 239.214185 14.540278 Q 239.494463 14.65904 239.788992 14.602035 L 240.734336 14.407265 C 241.071619 14.336008 241.356648 14.663791 241.247387 14.991573 Z" style="fill:#112439;"/>
		<path d="M 250.553321 15.217838 C 250.544058 15.590132 250.102264 15.884662 249.569166 15.87022 C 249.033408 15.856159 248.605866 15.547378 248.615604 15.173849 C 248.624868 14.801554 249.066661 14.507025 249.599759 14.521467 C 250.135517 14.535528 250.56306 14.844309 250.553321 15.217838 Z" style="fill:#112439;"/>
		<path d="M 237.455846 15.863332 C 237.44226 16.288452 236.990965 16.616234 236.454447 16.59671 C 235.917359 16.57823 235.494567 16.217195 235.509483 15.79198 C 235.52307 15.36686 235.974364 15.039078 236.510883 15.058602 C 237.047971 15.077082 237.470763 15.438117 237.455846 15.863332 Z" style="fill:#112439;"/>
		<path d="M 253.779081 15.865375 C 253.783879 16.217195 253.285079 16.511724 252.663623 16.516427 C 252.045207 16.521225 251.541657 16.240947 251.536954 15.884947 C 251.532156 15.533127 252.030955 15.238598 252.652412 15.233895 C 253.270828 15.229097 253.774378 15.509374 253.779081 15.865375 Z" style="fill:#0c1a33;"/>
		<path d="M 234.951066 16.54474 C 235.014769 16.929765 234.696488 17.300302 234.242485 17.376167 C 233.789148 17.452317 233.366356 17.205292 233.301797 16.820742 C 233.238093 16.435716 233.556375 16.06518 234.010377 15.989315 C 234.463715 15.913164 234.886507 16.160189 234.951066 16.54474 Z" style="fill:#112439;"/>
		<path d="M 255.346784 17.670839 L 254.743474 17.594831 C 254.420442 17.556827 254.254175 17.186291 254.439444 16.915514 L 254.738723 16.47847 C 254.847984 16.321705 255.042753 16.255198 255.223271 16.307454 L 256.344382 16.639986 C 256.776675 16.768249 256.752923 17.38581 256.311129 17.48557 L 255.494048 17.666088 C 255.446543 17.675589 255.399039 17.675589 255.346784 17.670839 Z" style="fill:#0c1a33;"/>
		<path d="M 234.986267 18.468918 Q 238.933908 16.768249 243.689129 16.715994 Q 244.681977 16.706493 245.651073 16.868009 C 246.544162 17.015274 247.418248 16.844257 248.354091 17.024775 C 255.91684 18.464167 262.538996 22.449812 267.954533 28.041116 C 271.412875 31.608719 273.422324 36.473201 275.013732 41.185668 Q 276.10159 44.420739 276.286858 48.073851 C 276.619391 54.562993 275.778558 60.467828 273.07554 66.168393 Q 271.113596 70.315554 269.773963 72.08748 Q 267.916529 74.548223 264.724213 77.493515 C 261.27062 80.681081 256.82893 82.733284 252.491751 84.058665 Q 248.620117 85.236782 243.978907 85.018261 Q 236.653682 84.666726 230.003023 80.847347 Q 217.575792 73.71214 214.321719 59.693502 C 212.074747 50.002542 213.41913 39.860287 218.810914 31.689477 C 222.834563 25.599374 228.326107 21.342952 234.986267 18.468918 Z M 244.738983 17.704092 C 236.967213 17.732595 230.615834 21.228941 225.200297 26.653979 Q 217.970081 33.898446 216.179153 43.313879 Q 214.749262 50.824373 216.183904 58.282612 C 216.373923 59.284961 216.85372 60.125795 217.081743 61.080639 Q 217.362021 62.254005 217.799064 63.351364 Q 222.240754 74.571976 233.00057 79.754739 Q 248.938399 87.43625 262.961788 75.949612 C 268.904627 71.08038 272.57199 64.173195 273.460328 56.401426 C 273.854617 52.933582 274.410422 49.522744 273.868869 46.021647 Q 272.809514 39.18572 269.379674 32.957853 Q 267.484236 29.523263 263.964137 26.311945 Q 260.567551 23.219388 256.562904 20.943913 Q 250.819585 17.675589 244.738983 17.704092 Z" style="fill:#0c1a33;"/>
		<path d="M 232.638726 17.10862 C 232.805801 17.476069 232.473268 17.979619 231.903021 18.238235 C 231.333155 18.49742 230.734595 18.407162 230.569136 18.043038 C 230.402062 17.675589 230.734595 17.172039 231.304842 16.913424 C 231.874708 16.654238 232.473268 16.744497 232.638726 17.10862 Z" style="fill:#112439;"/>
		<path d="M 257.185216 18.378659 Q 257.270724 18.122133 257.394236 17.88936 Q 257.536751 17.623334 257.840781 17.628084 Q 258.605606 17.628084 259.180413 18.060377 Q 259.555701 18.340655 259.175663 18.616182 Q 258.372833 19.214742 257.503497 18.972468 C 257.246972 18.90121 257.104458 18.630434 257.185216 18.378659 Z" style="fill:#0c1a33;"/>
		<path d="M 230.099647 18.776463 C 230.197792 19.214742 229.789252 19.680288 229.187367 19.812731 C 228.587383 19.946314 228.017326 19.69929 227.920702 19.263481 C 227.822557 18.825203 228.231097 18.359657 228.832982 18.227214 C 229.432966 18.09363 230.003023 18.340655 230.099647 18.776463 Z" style="fill:#112439;"/>
		<path d="M 261.199363 20.364355 L 260.520046 20.449864 C 260.149509 20.502119 259.85498 20.150584 259.964241 19.794299 L 260.182763 19.076978 C 260.277772 18.768197 260.629307 18.620933 260.914335 18.772948 L 261.717165 19.20049 C 262.0687 19.385758 262.0782 19.889308 261.736167 20.093579 L 261.394133 20.297849 C 261.337127 20.331102 261.26587 20.354855 261.199363 20.364355 Z" style="fill:#112439;"/>
		<path d="M 227.871819 20.33552 C 227.841559 20.739643 227.385514 21.029421 226.853081 20.989185 C 226.321408 20.948663 225.917618 20.587628 225.949114 20.18417 C 225.979374 19.780048 226.435419 19.490269 226.967852 19.530505 C 227.499525 19.571027 227.903315 19.932063 227.871819 20.33552 Z" style="fill:#112439;"/>
		<path d="M 264.902308 22.164499 C 264.681458 22.544821 263.964137 22.540071 263.300259 22.152813 C 262.634006 21.765744 262.27297 21.148183 262.493914 20.76843 C 262.714764 20.388108 263.432085 20.392858 264.095963 20.780117 C 264.762216 21.167185 265.123252 21.784746 264.902308 22.164499 Z" style="fill:#112439;"/>
		<path d="M 223.670646 21.471215 L 224.768004 20.863155 C 224.901017 20.787147 225.072034 20.8109 225.176545 20.924911 L 225.789355 21.561474 C 225.903367 21.680236 225.917618 21.865504 225.822609 21.998517 L 225.418819 22.554322 C 225.323809 22.687336 225.152792 22.73484 225.000777 22.668334 L 223.694398 22.084026 C 223.437872 21.970015 223.423621 21.608979 223.670646 21.471215 Z" style="fill:#0c1a33;"/>
		<path d="M 230.549327 53.437132 Q 230.734595 53.408629 231.048126 53.470385 Q 231.356907 53.532141 231.18589 53.798168 Q 230.88186 54.287466 230.212044 54.320719 Q 226.292905 54.52974 222.278758 54.467984 C 220.924873 54.448982 219.594742 54.268464 218.240858 54.372975 Q 217.993833 54.391976 217.998584 54.639001 Q 218.017585 55.422829 218.297863 56.135399 C 218.663649 57.061741 218.549638 57.988083 218.829916 58.919175 Q 219.699252 61.79796 220.568588 64.681496 Q 220.711102 65.156543 220.967628 65.560333 Q 221.238405 65.987875 221.414172 66.458172 Q 221.656446 67.137489 222.131493 67.660041 Q 222.90582 68.510375 223.532882 69.503224 Q 224.178946 70.529325 224.977025 71.194391 Q 225.960372 72.016222 226.94372 72.80005 Q 227.494774 73.241844 228.174092 73.484118 Q 228.934167 73.764396 229.385462 74.301199 Q 229.775 74.761994 230.359308 75.085026 Q 230.791601 75.32255 231.252397 75.389057 C 231.936464 75.484066 232.573027 75.009019 232.677538 74.324951 Q 233.166836 71.051877 232.924562 67.04723 Q 232.69654 63.360865 232.90081 55.422829 C 232.929313 54.363474 232.49702 53.508389 232.482769 52.482287 Q 232.39251 46.458691 232.416262 40.045555 Q 232.416262 39.964797 232.349755 39.912542 Q 232.326003 39.88879 232.2975 39.907792 Q 232.202491 39.964797 232.188239 40.069308 Q 231.784449 42.62031 231.936464 44.967043 Q 231.950716 45.233069 231.841455 45.475343 Q 231.736945 45.703366 231.722693 45.955141 Q 231.556427 48.406384 231.556427 50.867127 Q 231.556427 51.142655 231.423414 51.39443 Q 230.948366 52.301769 230.767849 51.494189 L 230.98637 32.601568 C 230.991121 32.387797 230.839106 32.197778 230.625334 32.150273 L 230.050528 32.026761 C 229.385462 31.879496 229.233447 31.000659 229.808254 30.644374 Q 236.207137 26.658729 242.344746 23.404657 C 243.081068 23.015118 243.689129 22.449812 244.263936 21.856003 Q 244.444454 21.670735 244.700979 21.72299 C 245.138022 21.808499 245.575066 22.250292 246.016859 22.468814 C 251.090362 24.95331 255.641313 28.207382 260.211266 30.71088 C 260.334778 30.777387 260.425037 30.886648 260.467791 31.019661 Q 260.5628 31.318941 260.377532 31.584967 C 260.092504 32.003008 259.702965 31.879496 259.394185 32.159774 Q 259.218417 32.31654 259.185164 32.554063 Q 259.085404 33.361643 259.085404 34.154972 Q 259.099655 43.698667 258.957141 53.085597 C 258.952391 53.280366 259.113907 53.441882 259.308676 53.441882 L 272.111194 53.346873 C 272.225206 53.346873 272.315465 53.437132 272.310714 53.546393 C 272.172951 62.216002 268.353572 70.524575 261.341878 75.735841 C 255.551054 80.039767 249.042909 82.481509 241.902952 81.317644 C 227.727547 79.013666 217.984332 68.025827 217.100745 53.731661 C 217.086493 53.498888 217.271762 53.299368 217.509285 53.304119 L 230.549327 53.437132 Z M 244.401699 26.178931 C 244.686728 26.003164 245.047763 25.998414 245.342292 26.169431 Q 249.099915 28.335645 252.429995 30.216832 Q 252.814783 30.430603 253.247076 30.497109 Q 254.163916 30.634873 253.408592 30.09807 Q 249.916996 27.637326 245.741332 25.266841 Q 245.347043 25.038819 245.128521 24.616027 Q 245.000259 24.369002 244.81024 24.568522 Q 243.969406 25.447359 242.857796 26.131427 Q 239.503964 28.193131 236.083625 30.383098 Q 234.587227 31.337943 236.287895 30.853395 Q 236.762943 30.715631 237.313997 30.397349 Q 241.38515 28.031615 244.401699 26.178931 Z M 252.829034 42.587057 Q 252.829034 50.681859 252.68177 58.733907 Q 252.677019 58.928676 252.757777 59.07119 Q 252.871788 59.265959 252.876539 59.489231 L 252.914543 67.778803 L 252.838535 76.652682 Q 252.829034 77.455511 253.574858 77.156232 L 255.133012 76.53867 C 255.61281 76.348652 255.931091 75.887856 255.931091 75.370055 Q 256.030851 53.916929 255.71257 32.406798 Q 255.698318 31.675226 254.971496 31.61347 C 250.301784 31.233432 245.570315 30.915151 240.791342 31.257185 Q 237.798545 31.475706 234.705989 31.51846 Q 234.245193 31.523211 234.240443 31.984007 Q 233.922161 53.850423 234.145433 75.754843 C 234.150184 76.106378 234.373456 76.419909 234.710739 76.52917 L 236.397156 77.099226 Q 236.981464 77.293995 236.986215 76.681185 L 237.085975 42.914839 Q 237.090725 42.544303 237.456511 42.549053 L 238.582373 42.558554 Q 238.929157 42.558554 238.924407 42.900588 L 238.834148 77.674033 Q 238.834148 77.788044 238.948159 77.811797 L 241.432655 78.239339 Q 241.489661 78.24884 241.489661 78.196585 L 241.456408 42.971845 Q 241.451657 42.634562 241.793691 42.601308 L 242.938554 42.492048 Q 243.351845 42.454044 243.351845 42.867335 L 243.328093 78.068322 Q 243.328093 78.567121 243.822142 78.590874 L 245.993107 78.709636 C 246.263884 78.723887 246.491906 78.505365 246.496657 78.234589 Q 246.662923 60.396571 246.368394 42.962344 Q 246.358893 42.487297 246.83394 42.5158 L 247.888545 42.572806 Q 248.330338 42.596558 248.335089 43.038352 Q 248.44435 60.48683 248.206826 78.04932 Q 248.206826 78.082573 248.24008 78.082573 Q 249.627217 78.14433 251.004853 77.783294 Q 251.033356 77.778543 251.033356 77.74529 L 251.047608 42.91959 C 251.047608 42.739072 251.17112 42.582307 251.342137 42.539552 Q 252.016704 42.368535 252.829034 42.587057 Z M 264.942734 70.909363 Q 265.954584 69.393963 267.260964 67.978322 Q 267.873775 67.318007 268.282315 66.448671 Q 268.676604 65.607838 269.018638 64.752753 Q 269.450931 63.664895 269.612447 62.353765 Q 269.750211 61.246906 270.301265 60.149547 Q 270.538789 59.669749 270.543539 59.194702 C 270.557791 58.391873 270.638549 57.627047 271.018586 56.900225 Q 271.351119 56.273163 271.374871 55.489335 Q 271.379622 55.270814 271.450879 55.066543 Q 271.574391 54.73401 271.498384 54.401477 Q 271.441378 54.173455 271.213355 54.182956 Q 265.142254 54.391976 259.45119 54.216209 C 258.980894 54.201958 258.558102 53.931181 258.353831 53.508389 Q 258.016548 52.805319 257.926289 52.026242 Q 257.669764 49.874279 257.156713 51.978737 Q 256.648413 54.059444 256.914439 56.007136 Q 257.137711 57.622297 256.961944 59.018935 Q 256.876435 59.688751 256.976195 60.358568 Q 257.061703 60.933375 257.080705 61.59369 Q 257.109208 62.415521 257.132961 63.246854 Q 257.251722 67.622037 257.199467 72.09223 C 257.180465 73.469866 256.790927 74.738242 256.82418 76.096877 C 256.82893 76.377154 256.662664 76.628929 256.401388 76.73344 Q 255.299279 77.179984 254.159166 77.750041 C 253.584359 78.039819 253.156817 77.973313 252.548756 78.016067 Q 251.228126 78.096825 250.795833 79.137178 Q 250.705574 79.3557 250.477551 79.341448 Q 250.002504 79.317696 249.541708 79.469711 C 249.489453 79.488713 249.45145 79.536217 249.45145 79.593223 Q 249.446699 79.66448 249.441949 79.740488 Q 249.422947 79.944758 249.631967 79.944758 Q 251.921694 79.902004 253.717372 79.084923 Q 255.356285 78.334348 257.166214 77.370003 Q 258.64361 76.586175 259.759971 75.560074 Q 261.004594 74.419961 262.467739 73.446114 Q 263.859627 72.524523 264.942734 70.909363 Z" style="fill:#0c1a33;"/>
		<path d="M 265.935583 24.007966 L 265.432033 23.760942 C 265.161256 23.627929 265.066246 23.290645 265.227762 23.03887 L 265.536543 22.549572 C 265.698059 22.297797 266.040093 22.236041 266.277616 22.421309 L 267.061444 23.048371 C 267.403478 23.319148 267.265714 23.860702 266.842922 23.936709 L 266.244363 24.050721 C 266.139853 24.069723 266.030592 24.055471 265.935583 24.007966 Z" style="fill:#112439;"/>
		<path d="M 221.670697 23.195636 L 222.478277 22.597077 C 222.687298 22.445062 222.981827 22.497317 223.119591 22.715838 L 223.542383 23.380904 C 223.642143 23.54242 223.632642 23.746691 223.51863 23.893955 L 223.257355 24.231239 C 223.133842 24.392755 222.920071 24.44976 222.730052 24.369002 L 221.760956 23.965212 C 221.442675 23.832199 221.39042 23.399906 221.670697 23.195636 Z" style="fill:#112439;"/>
		<path d="M 221.423673 25.765641 L 220.749106 26.46396 C 220.616093 26.601723 220.402322 26.634977 220.231305 26.539967 L 219.57574 26.169431 C 219.338216 26.031667 219.285961 25.708635 219.471229 25.509115 L 220.464078 24.416507 C 220.673099 24.188484 221.048386 24.25024 221.171898 24.530518 L 221.509181 25.295344 C 221.575688 25.452109 221.542435 25.637378 221.423673 25.765641 Z" style="fill:#0c1a33;"/>
		<path d="M 268.868381 25.140811 C 268.83337 25.518616 268.458082 25.789393 268.023177 25.753527 C 267.588746 25.713385 267.265714 25.380852 267.29721 25.003333 C 267.332221 24.625528 267.707508 24.354751 268.142414 24.390617 C 268.576844 24.430758 268.899876 24.763291 268.868381 25.140811 Z" style="fill:#112439;"/>
		<path d="M 260.234828 25.818181 C 260.178012 26.202684 259.284924 26.392703 258.231032 26.243158 C 257.180465 26.093423 256.372885 25.66113 256.42533 25.276057 C 256.482146 24.891554 257.375235 24.701535 258.429126 24.85108 C 259.479693 25.000815 260.287273 25.433108 260.234828 25.818181 Z" style="fill:#112439;"/>
		<path d="M 233.046459 25.337433 C 233.086078 25.651629 232.221493 26.017415 231.119573 26.155417 C 230.017274 26.292943 229.090932 26.155179 229.049793 25.842313 C 229.010174 25.528117 229.87476 25.162331 230.976679 25.02433 C 232.078979 24.886803 233.00532 25.024567 233.046459 25.337433 Z" style="fill:#0c1a33;"/>
		<path d="M 271.138821 27.983873 C 270.866571 28.278639 270.24901 28.155127 269.754153 27.703738 C 269.260912 27.252538 269.080394 26.644478 269.349698 26.350186 C 269.621948 26.055419 270.239509 26.178931 270.734366 26.630321 C 271.227607 27.081521 271.408125 27.689581 271.138821 27.983873 Z" style="fill:#112439;"/>
		<path d="M 219.504483 28.055367 L 219.200453 28.592171 C 219.086441 28.78694 218.829916 28.853446 218.639897 28.729934 L 217.837068 28.226384 C 217.632797 28.093371 217.590043 27.813093 217.746809 27.627825 L 218.540137 26.691982 C 218.744407 26.454459 219.124445 26.525716 219.224205 26.820245 L 219.537736 27.727585 C 219.570989 27.836846 219.561488 27.955607 219.504483 28.055367 Z" style="fill:#0c1a33;"/>
		<path d="M 217.626432 30.763563 C 217.447529 31.000659 217.114996 31.048164 216.87524 30.873157 L 216.3953 30.515446 C 216.155401 30.340344 216.107896 30.00306 216.285706 29.764254 L 216.632063 29.299563 C 216.810966 29.062467 217.143499 29.014962 217.383255 29.18997 L 217.863195 29.54768 C 218.103094 29.722783 218.150599 30.060066 217.972789 30.298872 L 217.626432 30.763563 Z" style="fill:#0c1a33;"/>
		<path d="M 273.567736 31.448058 C 273.260808 31.698978 272.614744 31.423451 272.123261 30.827172 C 271.631397 30.231083 271.488883 29.542265 271.794766 29.289635 C 272.101693 29.038715 272.747757 29.314242 273.239241 29.910521 C 273.731105 30.50661 273.873619 31.195428 273.567736 31.448058 Z" style="fill:#112439;"/>
		<path d="M 215.466583 32.364044 Q 215.243311 31.92225 215.376324 31.41395 Q 215.457082 31.10992 215.770613 31.138423 Q 216.435679 31.20968 216.706456 31.746483 C 216.810966 31.955504 216.734958 32.212029 216.530688 32.32129 Q 215.818118 32.701328 215.875123 33.52791 C 215.894125 33.774934 215.680354 33.974454 215.433329 33.9412 Q 214.915528 33.879444 214.421479 33.551662 C 214.003438 33.276135 214.174455 32.630071 214.673254 32.596817 L 215.362072 32.554063 Q 215.556842 32.539812 215.466583 32.364044 Z" style="fill:#0c1a33;"/>
		<path d="M 275.39339 33.63831 C 275.607541 33.903197 275.564787 34.292735 275.299093 34.506554 L 275.165795 34.613725 C 274.899721 34.829538 274.510182 34.786784 274.297551 34.51938 L 273.541466 33.579025 C 273.327315 33.314138 273.370069 32.9246 273.635763 32.710781 L 273.769061 32.60361 C 274.035135 32.387797 274.424674 32.430551 274.637305 32.697955 L 275.39339 33.63831 Z" style="fill:#112439;"/>
		<path d="M 253.233299 39.255979 C 253.232824 39.328234 253.175819 39.38524 253.107079 39.386237 L 250.855641 39.421628 C 250.786332 39.423244 250.724576 39.366238 250.725383 39.295361 L 250.648093 34.374491 C 250.648568 34.302236 250.705574 34.245231 250.774313 34.244233 L 253.025751 34.208842 C 253.095061 34.207227 253.156817 34.264232 253.156009 34.335109 L 253.233299 39.255979 Z" style="fill:#0c1a33;"/>
		<path d="M 236.8342 39.019454 L 237.005217 34.449501 C 237.005217 34.349741 237.085975 34.273733 237.185734 34.268983 L 239.05742 34.221478 C 239.16193 34.216728 239.242688 34.297486 239.247439 34.401996 L 239.3662 39.047956 C 239.370951 39.152467 239.285442 39.237975 239.180932 39.237975 L 237.019468 39.209472 C 236.914958 39.209472 236.8342 39.123964 236.8342 39.019454 Z" style="fill:#0c1a33;"/>
		<path d="M 243.621434 38.983445 C 243.622622 39.052707 243.565616 39.114463 243.494977 39.113465 L 241.347954 39.143488 C 241.27589 39.142966 241.218884 39.08596 241.217934 39.017031 L 241.153565 34.409502 C 241.152377 34.34024 241.209383 34.278484 241.280023 34.279481 L 243.427045 34.249459 C 243.49911 34.249981 243.556116 34.306987 243.557066 34.375916 L 243.621434 38.983445 Z" style="fill:#0c1a33;"/>
		<path d="M 248.643062 39.004015 C 248.64387 39.100212 248.567862 39.18097 248.46948 39.18192 L 246.32241 39.208142 C 246.22588 39.209472 246.145122 39.133465 246.144504 39.03456 L 246.088924 34.483942 C 246.088116 34.387745 246.164124 34.306987 246.262506 34.306037 L 248.409576 34.279814 C 248.506106 34.278484 248.586864 34.354491 248.587481 34.453396 L 248.643062 39.004015 Z" style="fill:#0c1a33;"/>
		<path d="M 228.45551 35.529093 C 228.449619 35.727377 228.288103 35.884143 228.092431 35.87849 L 223.228852 35.785096 C 223.034082 35.779633 222.877317 35.618117 222.879502 35.422017 L 222.885678 35.09908 C 222.891568 34.900796 223.053084 34.74403 223.248756 34.749683 L 228.112336 34.843077 C 228.307105 34.84854 228.46387 35.010056 228.461685 35.206156 L 228.45551 35.529093 Z" style="fill:#0c1a33;"/>
		<path d="M 267.154268 35.353088 C 267.151703 35.599115 266.947433 35.793884 266.700028 35.791746 L 262.035779 35.710323 C 261.788422 35.708376 261.593652 35.504105 261.597073 35.256083 L 261.600588 35.056563 C 261.603153 34.810537 261.807424 34.615767 262.054828 34.617905 L 266.719078 34.699328 C 266.966435 34.701276 267.161204 34.905546 267.157784 35.153568 L 267.154268 35.353088 Z" style="fill:#112439;"/>
		<path d="M 213.71841 36.620466 L 213.233862 36.202424 C 213.010589 36.007655 212.972586 35.670372 213.153104 35.428098 L 213.461884 35.010056 C 213.604398 34.820038 213.851423 34.734529 214.079445 34.801036 L 214.464233 34.915047 C 214.763513 35.000555 214.939281 35.318837 214.853772 35.618117 L 214.640001 36.344939 C 214.52599 36.743978 214.036691 36.891243 213.71841 36.620466 Z" style="fill:#0c1a33;"/>
		<path d="M 275.379518 37.651318 L 274.932974 36.368691 C 274.861717 36.15967 274.98998 35.941149 275.203751 35.898394 L 276.00183 35.75588 C 276.125342 35.736878 276.248854 35.779633 276.329612 35.869892 L 276.733402 36.311685 C 276.847414 36.439948 276.856915 36.629967 276.752404 36.76773 L 276.00183 37.751078 C 275.826062 37.9791 275.474528 37.922095 275.379518 37.651318 Z" style="fill:#0c1a33;"/>
		<path d="M 211.90373 37.964849 L 212.241013 37.499303 C 212.397779 37.290282 212.678057 37.209524 212.920331 37.314035 L 213.252863 37.451798 C 213.490387 37.551558 213.628151 37.803333 213.594897 38.055108 L 213.52364 38.511153 C 213.476136 38.834185 213.167355 39.047956 212.849073 38.98145 L 212.245764 38.853187 C 211.841974 38.767679 211.661456 38.297382 211.90373 37.964849 Z" style="fill:#0c1a33;"/>
		<path d="M 275.90682 38.914943 C 275.892569 38.701172 276.082588 38.534906 276.291609 38.568159 Q 277.127691 38.705923 277.731001 39.109713 C 277.997027 39.29023 278.077785 39.646516 277.916269 39.922043 Q 277.640742 40.387589 277.127691 40.534854 C 276.320111 40.762876 275.944824 39.48975 275.90682 38.914943 Z" style="fill:#0c1a33;"/>
		<path d="M 270.529288 40.781878 C 270.529288 40.914891 270.424777 41.024152 270.287014 41.024152 L 270.206256 41.024152 C 265.375027 41.038404 261.455889 40.90539 261.455889 40.715372 L 261.455889 40.107311 C 261.455889 39.922043 265.370277 39.755777 270.206256 39.741525 L 270.287014 39.741525 C 270.420027 39.741525 270.529288 39.850786 270.529288 39.983799 L 270.529288 40.781878 Z" style="fill:#0c1a33;"/>
		<path d="M 211.385928 41.228422 C 211.229163 41.114411 211.19591 40.895889 211.309921 40.739124 L 211.357426 40.672617 C 211.846724 40.007551 212.540293 39.684519 212.906079 39.955296 L 212.953584 39.98855 C 213.31937 40.259326 213.21961 41.014651 212.730312 41.679717 L 212.682807 41.746224 C 212.568796 41.902989 212.345524 41.936243 212.188758 41.822231 L 211.385928 41.228422 Z" style="fill:#112439;"/>
		<path d="M 228.062456 40.552145 C 228.05533 40.791379 227.85581 40.986148 227.616339 40.979925 L 219.580348 40.811616 C 219.338216 40.805631 219.148197 40.606111 219.15252 40.365499 L 219.155323 40.232534 C 219.162449 39.9933 219.361969 39.798531 219.60144 39.804754 L 227.637431 39.973063 C 227.879562 39.979049 228.069581 40.178568 228.065258 40.41918 L 228.062456 40.552145 Z" style="fill:#0c1a33;"/>
		<path d="M 230.549327 53.437132 Q 230.991121 53.289867 230.767849 51.494189 Q 230.948366 52.301769 231.423414 51.39443 Q 231.556427 51.142655 231.556427 50.867127 Q 231.556427 48.406384 231.722693 45.955141 Q 231.736945 45.703366 231.841455 45.475343 Q 231.950716 45.233069 231.936464 44.967043 Q 231.784449 42.62031 232.188239 40.069308 Q 232.202491 39.964797 232.2975 39.907792 Q 232.326003 39.88879 232.349755 39.912542 Q 232.416262 39.964797 232.416262 40.045555 Q 232.39251 46.458691 232.482769 52.482287 C 232.49702 53.508389 232.929313 54.363474 232.90081 55.422829 Q 232.69654 63.360865 232.924562 67.04723 Q 233.166836 71.051877 232.677538 74.324951 C 232.573027 75.009019 231.936464 75.484066 231.252397 75.389057 Q 230.791601 75.32255 230.359308 75.085026 Q 229.775 74.761994 229.385462 74.301199 Q 228.934167 73.764396 228.174092 73.484118 Q 227.494774 73.241844 226.94372 72.80005 Q 225.960372 72.016222 224.977025 71.194391 Q 224.178946 70.529325 223.532882 69.503224 Q 222.90582 68.510375 222.131493 67.660041 Q 221.656446 67.137489 221.414172 66.458172 Q 221.238405 65.987875 220.967628 65.560333 Q 220.711102 65.156543 220.568588 64.681496 Q 219.699252 61.79796 218.829916 58.919175 C 218.549638 57.988083 218.663649 57.061741 218.297863 56.135399 Q 218.017585 55.422829 217.998584 54.639001 Q 217.993833 54.391976 218.240858 54.372975 C 219.594742 54.268464 220.924873 54.448982 222.278758 54.467984 Q 226.292905 54.52974 230.212044 54.320719 Q 230.88186 54.287466 231.18589 53.798168 Q 231.356907 53.532141 231.048126 53.470385 Q 230.734595 53.408629 230.549327 53.437132 Z" style="fill:#112439;"/>
		<path d="M 278.510601 43.325043 C 278.111039 43.565654 277.536232 43.337631 277.228021 42.819355 C 276.918671 42.302029 276.989928 41.689218 277.388445 41.450032 C 277.788007 41.209421 278.362814 41.437443 278.671024 41.955719 C 278.980375 42.473046 278.909118 43.085856 278.510601 43.325043 Z" style="fill:#112439;"/>
		<path d="M 252.829034 42.587057 L 252.914543 67.778803 L 252.876539 59.489231 Q 252.871788 59.265959 252.757777 59.07119 Q 252.677019 58.928676 252.68177 58.733907 Q 252.829034 50.681859 252.829034 42.587057 Z" style="fill:#112439;"/>
		<path d="M 211.765966 45.047801 L 211.70896 45.280574 Q 211.632953 45.594105 211.324172 45.522848 C 210.046296 45.223568 210.587849 43.997947 210.782619 43.199868 C 210.863377 42.872085 211.238664 42.72007 211.528443 42.895838 Q 212.673306 43.589406 211.936983 44.663013 Q 211.813471 44.83878 211.765966 45.047801 Z" style="fill:#0c1a33;"/>
		<path d="M 272.087347 44.987185 C 272.092193 45.280574 271.854669 45.522848 271.559997 45.523893 L 262.002383 45.607264 C 261.707664 45.608356 261.47014 45.375583 261.465722 45.079914 L 261.465485 45.051411 C 261.460639 44.758022 261.698163 44.515748 261.992834 44.514703 L 271.550449 44.431332 C 271.845168 44.43024 272.082692 44.663013 272.08711 44.958682 L 272.087347 44.987185 Z" style="fill:#112439;"/>
		<path d="M 228.345109 45.016353 C 228.345109 45.309077 228.107585 45.551351 227.815859 45.551161 L 218.676096 45.599045 C 218.383372 45.598855 218.141098 45.361332 218.14124 45.069748 L 218.141098 45.041245 C 218.141098 44.748521 218.378621 44.506247 218.670348 44.506437 L 227.810111 44.458552 C 228.102835 44.458742 228.345109 44.696266 228.344966 44.98785 L 228.345109 45.016353 Z" style="fill:#0c1a33;"/>
		<path d="M 278.719099 44.886285 Q 279.564683 45.741369 279.616938 46.672462 Q 279.659692 47.347029 278.989876 47.432537 Q 278.866364 47.446788 278.747602 47.437287 Q 277.963774 47.375531 277.949523 46.591704 L 277.930521 45.214067 C 277.92577 44.800776 278.42932 44.591756 278.719099 44.886285 Z" style="fill:#112439;"/>
		<path d="M 209.908532 47.727066 Q 210.635354 46.833978 211.333673 46.933738 C 211.594949 46.966991 211.80397 47.16176 211.860976 47.423036 Q 212.031992 48.197363 211.518942 48.77692 Q 211.328923 48.995442 211.043895 48.943187 Q 210.545095 48.857678 210.074799 48.601153 C 209.761268 48.425385 209.68051 48.007344 209.908532 47.727066 Z" style="fill:#0c1a33;"/>
		<path d="M 228.330952 49.285126 C 228.330857 49.541746 228.126587 49.746016 227.870964 49.746681 L 217.771511 49.764353 C 217.518786 49.765018 217.309765 49.560748 217.309908 49.304317 L 217.30967 49.171304 C 217.309765 48.914684 217.514036 48.710414 217.769658 48.709749 L 227.869111 48.692077 C 228.121836 48.691412 228.330857 48.895682 228.330715 49.152112 L 228.330952 49.285126 Z" style="fill:#0c1a33;"/>
		<path d="M 272.268673 49.290446 C 272.27271 49.522744 272.087442 49.708012 271.854289 49.712145 L 261.916684 49.798841 C 261.683911 49.803022 261.498643 49.613003 261.495033 49.384505 L 261.49318 49.175485 C 261.489142 48.943187 261.67441 48.757918 261.907564 48.753785 L 271.845168 48.667089 C 272.077941 48.662909 272.263209 48.852928 272.26682 49.081425 L 272.268673 49.290446 Z" style="fill:#112439;"/>
		<path d="M 279.773704 50.520343 C 279.787955 50.705611 279.645441 50.867127 279.460172 50.876628 L 279.265403 50.886129 C 278.676345 50.924133 278.177545 50.515592 278.144292 49.974039 L 278.139542 49.860028 C 278.106288 49.318474 278.552833 48.852928 279.141891 48.819674 L 279.33666 48.810174 C 279.521929 48.795922 279.683445 48.938436 279.692946 49.123705 L 279.773704 50.520343 Z" style="fill:#0c1a33;"/>
		<path d="M 211.400845 51.216144 C 211.214912 51.441934 210.711362 51.332673 210.276884 50.975295 C 209.842026 50.615352 209.637755 50.145056 209.822359 49.919551 C 210.008292 49.693761 210.511842 49.803022 210.94632 50.1604 C 211.381178 50.520343 211.585448 50.99064 211.400845 51.216144 Z" style="fill:#112439;"/>
		<path d="M 264.942734 70.909363 Q 263.859627 72.524523 262.467739 73.446114 Q 261.004594 74.419961 259.759971 75.560074 Q 258.64361 76.586175 257.166214 77.370003 Q 255.356285 78.334348 253.717372 79.084923 Q 251.921694 79.902004 249.631967 79.944758 Q 249.422947 79.944758 249.441949 79.740488 Q 249.446699 79.66448 249.45145 79.593223 C 249.45145 79.536217 249.489453 79.488713 249.541708 79.469711 Q 250.002504 79.317696 250.477551 79.341448 Q 250.705574 79.3557 250.795833 79.137178 Q 251.228126 78.096825 252.548756 78.016067 C 253.156817 77.973313 253.584359 78.039819 254.159166 77.750041 Q 255.299279 77.179984 256.401388 76.73344 C 256.662664 76.628929 256.82893 76.377154 256.82418 76.096877 C 256.790927 74.738242 257.180465 73.469866 257.199467 72.09223 Q 257.251722 67.622037 257.132961 63.246854 Q 257.109208 62.415521 257.080705 61.59369 Q 257.061703 60.933375 256.976195 60.358568 Q 256.876435 59.688751 256.961944 59.018935 Q 257.137711 57.622297 256.914439 56.007136 Q 256.648413 54.059444 257.156713 51.978737 Q 257.669764 49.874279 257.926289 52.026242 Q 258.016548 52.805319 258.353831 53.508389 C 258.558102 53.931181 258.980894 54.201958 259.45119 54.216209 Q 265.142254 54.391976 271.213355 54.182956 Q 271.441378 54.173455 271.498384 54.401477 Q 271.574391 54.73401 271.450879 55.066543 Q 271.379622 55.270814 271.374871 55.489335 Q 271.351119 56.273163 271.018586 56.900225 C 270.638549 57.627047 270.557791 58.391873 270.543539 59.194702 Q 270.538789 59.669749 270.301265 60.149547 Q 269.750211 61.246906 269.612447 62.353765 Q 269.450931 63.664895 269.018638 64.752753 Q 268.676604 65.607838 268.282315 66.448671 Q 267.873775 67.318007 267.260964 67.978322 Q 265.954584 69.393963 264.942734 70.909363 Z" style="fill:#112439;"/>
		<path d="M 278.904985 54.163384 C 278.438821 54.211459 278.011279 53.783916 277.953893 53.214287 C 277.897268 52.643803 278.229801 52.140253 278.694729 52.093319 C 279.160893 52.045244 279.588435 52.472786 279.645821 53.042415 C 279.702446 53.612899 279.369914 54.116449 278.904985 54.163384 Z" style="fill:#0c1a33;"/>
		<path d="M 211.49994 54.106948 L 210.682859 54.268464 C 210.478589 54.311218 210.279069 54.187706 210.222063 53.988186 L 209.994041 53.199608 C 209.941785 53.01434 210.027294 52.819571 210.198311 52.734062 L 211.081898 52.282768 C 211.324172 52.159255 211.618702 52.31127 211.656705 52.577297 L 211.818221 53.660404 C 211.851475 53.869425 211.70896 54.068944 211.49994 54.106948 Z" style="fill:#0c1a33;"/>
		<path d="M 279.456895 56.595815 C 279.422169 56.857471 279.179895 57.042739 278.917859 57.007966 L 277.985531 56.883551 C 277.7215 56.84797 277.536232 56.605696 277.573381 56.344515 L 277.64877 55.779494 C 277.683496 55.517838 277.92577 55.33257 278.187806 55.367343 L 279.120134 55.491758 C 279.384165 55.527339 279.569433 55.769613 279.532285 56.030794 L 279.456895 56.595815 Z" style="fill:#0c1a33;"/>
		<path d="M 211.904347 57.980767 C 211.461936 58.130597 210.925133 57.722056 210.707561 57.068772 C 210.48809 56.415677 210.673358 55.769613 211.114534 55.620163 C 211.556945 55.470333 212.093749 55.878874 212.31132 56.532159 C 212.530792 57.185253 212.345524 57.831317 211.904347 57.980767 Z" style="fill:#0c1a33;"/>
		<path d="M 278.75297 59.296505 C 278.638341 59.531986 278.353313 59.631746 278.117357 59.514124 L 277.451863 59.188099 C 277.21795 59.07119 277.11819 58.786162 277.234244 58.552534 L 277.3931 58.228314 C 277.507729 57.992833 277.792757 57.893073 278.028713 58.010695 L 278.694207 58.33672 C 278.92812 58.453629 279.02788 58.738657 278.911826 58.972285 L 278.75297 59.296505 Z" style="fill:#0c1a33;"/>
		<path d="M 211.485688 61.503431 C 211.438184 60.928624 211.034394 60.591341 211.067647 60.064038 C 211.077148 59.859768 211.20066 59.67925 211.381178 59.584241 Q 211.761216 59.389472 212.179257 59.550988 C 213.504638 60.054537 212.754064 61.683949 211.932233 62.29676 Q 211.60445 62.543784 211.552195 62.139994 Q 211.509441 61.821713 211.485688 61.503431 Z" style="fill:#0c1a33;"/>
		<path d="M 277.545733 62.025983 Q 277.759504 62.767056 277.384217 63.441623 Q 277.032682 64.073436 276.386618 63.574636 C 275.892569 63.185098 275.864066 62.444024 276.334363 62.025983 Q 276.856915 61.555686 276.590888 60.923874 C 276.495879 60.705352 276.600389 60.453577 276.823661 60.372819 Q 277.336712 60.17805 277.902018 60.48208 C 278.263054 60.672099 278.286806 61.180399 277.949523 61.408422 L 277.711999 61.569938 Q 277.460224 61.736204 277.545733 62.025983 Z" style="fill:#112439;"/>
		<path d="M 213.856173 65.626935 C 213.442882 65.864363 212.81582 65.550832 212.451839 64.92377 C 212.088998 64.296708 212.131752 63.593638 212.545043 63.35602 C 212.958334 63.118591 213.585396 63.432122 213.949377 64.059184 C 214.312218 64.686246 214.269464 65.389316 213.856173 65.626935 Z" style="fill:#0c1a33;"/>
		<path d="M 276.628892 65.522329 L 276.282108 66.633939 C 276.177597 66.956971 275.79756 67.099485 275.507781 66.918967 L 275.004231 66.610187 C 274.776208 66.467673 274.69545 66.173144 274.814212 65.93087 L 275.39852 64.762254 C 275.579038 64.410719 276.063586 64.372715 276.291609 64.690997 L 276.557635 65.056783 C 276.652644 65.189796 276.681147 65.360813 276.628892 65.522329 Z" style="fill:#0c1a33;"/>
		<path d="M 215.541498 67.705835 C 215.699356 68.002075 215.590095 68.377362 215.291005 68.535458 L 214.981227 68.701582 C 214.682755 68.86191 214.312218 68.747899 214.151557 68.451089 L 213.738504 67.680753 C 213.580646 67.384514 213.689907 67.009226 213.988996 66.851131 L 214.298775 66.685007 C 214.597247 66.524678 214.967783 66.63869 215.128444 66.935499 L 215.541498 67.705835 Z" style="fill:#0c1a33;"/>
		<path d="M 273.859368 68.25385 Q 274.139645 67.622037 274.828464 67.736048 L 275.303511 67.816806 Q 275.80231 67.897564 275.465027 68.277602 Q 274.747706 69.094683 274.282159 70.158788 C 274.1824 70.396312 273.911623 70.510323 273.669349 70.415314 Q 273.365319 70.301303 273.104043 70.07803 Q 272.743007 69.774 273.066039 69.436717 Q 273.564838 68.914165 273.859368 68.25385 Z" style="fill:#0c1a33;"/>
		<path d="M 216.312167 72.344005 L 215.13405 70.486571 C 215.020039 70.301303 215.110297 70.059029 215.319318 69.997272 L 216.074643 69.764499 C 216.221908 69.721745 216.378673 69.783501 216.454681 69.921265 L 217.514036 71.821453 C 217.618546 72.006722 217.523537 72.239495 217.319266 72.2965 L 216.682703 72.481769 C 216.540189 72.524523 216.392925 72.467517 216.312167 72.344005 Z" style="fill:#0c1a33;"/>
		<path d="M 273.370069 71.89271 L 272.77151 72.652786 C 272.624245 72.833303 272.36772 72.871307 272.172951 72.743044 L 271.778661 72.481769 C 271.569641 72.344005 271.512635 72.068478 271.650399 71.864207 L 272.082692 71.213393 C 272.191952 71.051877 272.386722 70.975869 272.576741 71.028125 L 273.142047 71.18489 C 273.450827 71.270399 273.569589 71.645686 273.370069 71.89271 Z" style="fill:#0c1a33;"/>
		<path d="M 219.506383 74.892252 C 219.266959 75.22279 218.654149 75.184786 218.135825 74.806649 C 217.618546 74.429462 217.390523 73.859405 217.630897 73.529627 C 217.870321 73.19909 218.483132 73.237093 219.001455 73.615231 C 219.518734 73.992418 219.746757 74.562475 219.506383 74.892252 Z" style="fill:#112439;"/>
		<path d="M 271.769161 74.324951 L 271.013836 75.450813 C 270.885573 75.640832 270.624297 75.678835 270.44853 75.536321 L 269.674203 74.895008 C 269.469933 74.728741 269.493685 74.41046 269.716957 74.272696 L 270.75256 73.631382 C 270.847569 73.569626 270.961581 73.555375 271.066091 73.588628 L 271.56489 73.745394 C 271.807164 73.821401 271.911675 74.11118 271.769161 74.324951 Z" style="fill:#0c1a33;"/>
		<path d="M 221.24781 76.925454 C 220.953376 77.213237 220.421324 77.14198 220.0572 76.766456 C 219.694502 76.391406 219.632745 75.859353 219.92737 75.57233 C 220.221804 75.284546 220.753857 75.355803 221.11798 75.731328 C 221.480679 76.106378 221.542435 76.63843 221.24781 76.925454 Z" style="fill:#112439;"/>
		<path d="M 269.735959 77.146731 L 268.94263 77.997065 C 268.795366 78.153831 268.557842 78.187084 268.372574 78.077823 L 267.660003 77.664532 C 267.403478 77.512517 267.351223 77.160982 267.555493 76.947211 L 268.277565 76.187136 C 268.410578 76.049372 268.610098 76.006618 268.790615 76.082625 L 269.574443 76.405657 C 269.873723 76.52917 269.954481 76.913958 269.735959 77.146731 Z" style="fill:#0c1a33;"/>
		<path d="M 223.722901 78.377103 C 223.860664 78.481613 223.884417 78.681133 223.779906 78.823647 L 223.680146 78.947159 C 223.342863 79.384202 222.763306 79.498214 222.378518 79.198934 L 222.026983 78.928157 C 221.646945 78.633628 221.608941 78.039819 221.946225 77.602776 L 222.041234 77.479264 C 222.150495 77.3415 222.350015 77.312997 222.487778 77.422258 L 223.722901 78.377103 Z" style="fill:#112439;"/>
		<path d="M 266.467635 80.239287 C 266.320371 80.353298 266.11135 80.329546 265.992588 80.182281 L 265.826322 79.96851 C 265.498539 79.545718 265.522292 78.980412 265.873826 78.704885 L 266.054344 78.562371 C 266.405879 78.286844 266.961684 78.405605 267.289467 78.828397 L 267.455733 79.042169 C 267.569744 79.189433 267.545992 79.403204 267.398728 79.517216 L 266.467635 80.239287 Z" style="fill:#0c1a33;"/>
		<path d="M 226.533279 81.214511 C 226.359412 81.555167 225.675344 81.555167 225.007855 81.212991 C 224.340462 80.8711 223.941422 80.315295 224.114339 79.976634 C 224.288207 79.635977 224.972274 79.635977 225.639763 79.978154 C 226.307157 80.320045 226.706196 80.87585 226.533279 81.214511 Z" style="fill:#112439;"/>
		<path d="M 265.341774 81.013614 L 264.301421 81.517164 C 264.111402 81.612173 263.878629 81.559918 263.745616 81.393651 L 263.527094 81.118124 C 263.38458 80.942357 263.398831 80.685831 263.555597 80.519565 L 264.125653 79.916255 C 264.268167 79.768991 264.49619 79.730987 264.676708 79.830747 L 265.360776 80.201283 C 265.683808 80.377051 265.674307 80.852098 265.341774 81.013614 Z" style="fill:#0c1a33;"/>
		<path d="M 227.200245 82.875798 C 226.953221 82.747536 226.858211 82.443505 226.986474 82.201231 Q 227.604035 81.037366 228.772651 82.08722 C 228.96267 82.258237 229.000674 82.543265 228.86291 82.757037 Q 228.392613 83.488609 227.200245 82.875798 Z" style="fill:#112439;"/>
		<path d="M 261.536647 83.50286 C 261.389382 83.59787 261.194613 83.555116 261.099604 83.407851 L 261.052099 83.341344 C 260.733817 82.842545 260.86208 82.18698 261.341878 81.878199 L 261.503394 81.773689 C 261.983191 81.464909 262.634006 81.616924 262.957038 82.115723 L 262.999792 82.18223 C 263.094801 82.329494 263.052047 82.529014 262.904782 82.624023 L 261.536647 83.50286 Z" style="fill:#0c1a33;"/>
		<path d="M 230.463866 83.17484 C 230.554077 83.455356 230.288051 83.787889 229.87115 83.923942 C 229.451968 84.058665 229.043428 83.939904 228.953121 83.659863 C 228.86291 83.379348 229.128936 83.046815 229.545838 82.910762 C 229.965019 82.776038 230.37356 82.8948 230.463866 83.17484 Z" style="fill:#112439;"/>
		<path d="M 260.242571 83.4231 C 260.467791 83.80214 260.25402 84.343694 259.763629 84.635658 C 259.275423 84.928002 258.695865 84.856745 258.46979 84.475709 C 258.244571 84.096669 258.458342 83.555116 258.948733 83.263152 C 259.436939 82.970808 260.016496 83.042065 260.242571 83.4231 Z" style="fill:#0c1a33;"/>
		<path d="M 232.941331 84.624304 C 232.886559 84.994508 232.345005 85.21778 231.734569 85.129944 C 231.124134 85.042013 230.668089 84.671476 230.722577 84.300607 C 230.77735 83.930403 231.318903 83.707131 231.929339 83.794967 C 232.539774 83.882898 232.995819 84.253435 232.941331 84.624304 Z" style="fill:#0c1a33;"/>
		<path d="M 257.923961 85.433309 C 257.669764 85.678576 257.218469 85.626321 256.92185 85.31488 C 256.62466 85.004009 256.591407 84.552714 256.84551 84.308683 C 257.099707 84.063416 257.551002 84.115671 257.847621 84.427112 C 258.144811 84.737983 258.178064 85.189277 257.923961 85.433309 Z" style="fill:#0c1a33;"/>
		<path d="M 235.510813 85.657294 C 235.461314 86.058614 234.953013 86.32939 234.367613 86.257753 C 233.784397 86.186876 233.352105 85.806839 233.397614 85.405329 C 233.447114 85.004009 233.955414 84.733232 234.540815 84.804869 C 235.12403 84.875746 235.556323 85.255784 235.510813 85.657294 Z" style="fill:#112439;"/>
		<path d="M 255.566065 85.64594 C 255.631812 86.058614 255.175767 86.471905 254.550225 86.567532 C 253.926393 86.661923 253.365837 86.410148 253.303321 85.99624 C 253.237575 85.583567 253.69362 85.170276 254.319162 85.074649 C 254.942994 84.980257 255.503549 85.232032 255.566065 85.64594 Z" style="fill:#0c1a33;"/>
		<path d="M 238.291026 86.468199 C 238.268842 86.847192 237.774793 87.13222 237.181744 87.097969 C 236.591926 87.065713 236.126379 86.73318 236.146949 86.352098 C 236.169134 85.973105 236.663183 85.688077 237.256231 85.722328 C 237.84605 85.754583 238.311596 86.087116 238.291026 86.468199 Z" style="fill:#112439;"/>
		<path d="M 252.379877 86.721589 C 252.406242 87.084715 251.969199 87.407747 251.403275 87.448839 C 250.838587 87.488505 250.358789 87.227229 250.332899 86.868284 C 250.306534 86.505158 250.743578 86.182126 251.309501 86.141034 C 251.87419 86.101368 252.353987 86.362644 252.379877 86.721589 Z" style="fill:#112439;"/>
		<path d="M 240.140622 86.628908 C 240.302043 86.92795 240.121525 87.33649 239.738447 87.542993 C 239.356699 87.749781 238.914906 87.678524 238.753295 87.379007 C 238.591874 87.079965 238.772392 86.671424 239.15547 86.464921 C 239.537217 86.258133 239.979011 86.32939 240.140622 86.628908 Z" style="fill:#112439;"/>
		<path d="M 241.423154 87.93505 C 241.285391 87.930299 241.171379 87.816288 241.17613 87.673774 L 241.18088 87.460002 C 241.195132 86.946952 241.541916 86.543162 241.959957 86.552663 L 242.054967 86.552663 C 242.468258 86.562164 242.79604 86.984955 242.786539 87.498006 L 242.781789 87.711777 C 242.777038 87.854292 242.658277 87.963552 242.515762 87.963552 L 241.423154 87.93505 Z" style="fill:#112439;"/>
		<path d="M 249.177442 87.1859 C 249.223427 87.559762 248.738879 87.920798 248.096045 87.996901 C 247.456252 88.072813 246.900447 87.830539 246.856172 87.458577 C 246.810188 87.084715 247.294736 86.72368 247.93757 86.647577 C 248.577363 86.571664 249.133168 86.813938 249.177442 87.1859 Z" style="fill:#0c1a33;"/>
		<path d="M 243.969406 88.115567 C 243.836393 88.120318 243.722382 88.020558 243.712881 87.887545 L 243.708131 87.792535 C 243.679628 87.250982 244.054915 86.785436 244.548964 86.756933 L 244.71048 86.747432 C 245.204529 86.718929 245.632071 87.13697 245.665324 87.678524 L 245.670075 87.773534 C 245.674825 87.906547 245.575066 88.020558 245.442052 88.030059 L 243.969406 88.115567 Z" style="fill:#112439;"/>
		<path d="M 251.764929 96.72342 L 237.3425 96.642662 C 237.152481 96.637912 237.000466 96.476396 237.019468 96.286377 L 237.266492 93.630864 Q 237.294995 93.312582 237.613277 93.336335 Q 244.434953 93.89689 251.769679 93.307832 Q 252.415743 93.255577 252.439496 93.89689 L 252.520254 95.944343 Q 252.553507 96.728171 251.764929 96.72342 Z" style="fill:#0c1a33;"/>
		<path d="M 255.028502 97.545252 Q 256.890687 97.492996 256.42514 99.293425 Q 256.363384 99.526198 256.22087 99.739969 Q 255.142513 101.340878 253.422843 101.302874 Q 245.361294 101.108105 236.962462 101.274371 Q 235.974364 101.293373 235.109779 101.079602 C 233.727392 100.732817 232.29275 99.198415 233.561125 97.83503 C 234.245193 97.103458 235.371055 97.62601 236.240391 97.645011 Q 244.867245 97.849282 255.028502 97.545252 Z" style="fill:#112439;"/>
		<path d="M 248.601115 102.37173 Q 250.202024 102.390732 251.57966 102.257718 C 251.698422 102.243467 251.802933 102.338476 251.802933 102.457238 L 251.798182 106.737412 C 251.798182 106.927431 251.627165 107.074696 251.437146 107.041442 Q 250.449048 106.870425 249.4562 106.875176 Q 244.031163 106.879926 238.35435 106.946433 C 238.102575 106.951183 237.893555 106.742163 237.893555 106.490388 C 237.898305 104.941734 238.097825 104.058147 237.14298 102.718514 Q 236.591926 101.944187 237.518267 102.17221 Q 238.026568 102.300473 238.568121 102.300473 Q 243.19508 102.309974 248.601115 102.37173 Z" style="fill:#0c1a33;"/>
		<path d="M 254.078408 110.514036 L 235.8271 110.442779 C 235.670334 110.442779 235.537321 110.328768 235.513569 110.172002 L 235.22379 108.22431 C 235.195287 108.034291 235.342552 107.858523 235.537321 107.858523 L 254.325432 107.906028 C 254.515451 107.906028 254.667466 108.072294 254.643714 108.262313 L 254.391939 110.233759 C 254.372937 110.395275 254.239924 110.514036 254.078408 110.514036 Z" style="fill:#0c1a33;"/>
		<path d="M 240.287792 113.573339 L 239.313945 113.487831 C 238.810395 113.440326 238.382853 113.093542 238.240339 112.608994 Q 238.202335 112.480731 238.121577 112.209954 Q 237.884054 111.421376 238.705885 111.468881 Q 245.066765 111.825166 250.56306 111.468881 Q 251.560659 111.402374 251.47515 112.395223 L 251.456148 112.599493 Q 251.380141 113.430825 250.553559 113.530585 L 248.738879 113.749107 Q 248.463352 113.78236 248.463352 114.057887 L 248.496605 130.556272 C 248.496605 130.926809 248.786384 131.235589 249.15692 131.254591 L 254.040404 131.525368 C 254.629463 131.558621 255.147264 131.919657 255.380037 132.45646 L 255.935842 133.739087 Q 256.263624 134.489662 255.441793 134.484911 L 249.194924 134.456408 C 248.971652 134.456408 248.795885 134.632176 248.791134 134.855448 L 248.696125 150.052203 C 248.696125 150.175716 248.800635 150.275475 248.919397 150.265974 Q 251.346887 150.147213 254.258926 149.980946 Q 254.871737 149.942942 255.375286 150.11871 C 255.878836 150.294477 255.954844 150.969044 255.503549 151.254072 L 245.959854 157.249166 C 245.361294 157.624453 244.596469 157.581699 244.045414 157.139905 L 240.781841 154.527147 Q 240.511064 154.308625 240.511064 153.961841 L 240.534816 113.844116 Q 240.534816 113.597092 240.287792 113.573339 Z M 245.271035 156.968889 L 245.541812 113.791861 Q 245.546563 113.587591 245.342292 113.592341 L 244.453954 113.625595 C 244.297189 113.630345 244.173677 113.758608 244.178427 113.915373 Q 244.225932 132.96476 244.235433 152.080654 Q 244.240183 154.555649 244.61072 156.546097 Q 244.672476 156.892881 244.929002 157.120904 C 245.062015 157.239665 245.271035 157.144656 245.271035 156.968889 Z" style="fill:#0c1a33;"/>
		<path d="M 256.482146 144.498903 L 250.026256 144.517905 C 249.878992 144.517905 249.76023 144.394393 249.769731 144.247128 L 249.931247 140.470504 C 249.935998 140.313739 250.069011 140.185476 250.230527 140.190226 L 256.339632 140.251982 Q 256.771925 140.251982 256.805178 139.82444 L 256.857433 139.107119 C 256.871685 138.907599 256.714919 138.741333 256.52015 138.746083 L 250.4633 138.836342 Q 250.254279 138.841093 250.25903 138.632072 L 250.268531 136.066818 Q 250.268531 135.829294 250.501304 135.829294 Q 253.199571 135.834045 255.978596 135.834045 Q 256.900187 135.834045 256.819429 134.912453 Q 256.767174 134.309144 257.356233 134.161879 L 258.84788 133.791342 Q 259.189914 133.705834 259.189914 134.062119 L 259.118657 150.208969 Q 259.118657 150.541502 258.800376 150.641262 Q 258.097306 150.864534 257.465493 150.636511 Q 257.194717 150.541502 257.080705 150.270725 L 256.786176 149.562905 Q 256.676915 149.296878 256.387137 149.292128 L 250.401544 149.168616 Q 249.95975 149.159115 249.950249 148.722072 L 249.902744 146.703122 Q 249.883742 146.057058 250.529806 146.08081 L 256.282626 146.299332 Q 256.781426 146.318333 256.805178 145.819534 L 256.852683 144.883691 Q 256.871685 144.494153 256.482146 144.498903 Z" style="fill:#0c1a33;"/>
	</g>
	<g id="surface4">
	</g>
</svg>
