<?xml version="1.0" encoding="utf-8"?>
<svg xmlns="http://www.w3.org/2000/svg" width="490pt" height="280pt" viewBox="0 0 490 280" version="1.1" xmlns:xlink="http://www.w3.org/1999/xlink">
	<g id="surface2">
		<path d="M 195.609105 113.375997 Q 193.680709 110.646039 191.885906 107.712786 C 184.782206 96.084325 181.721168 81.691055 183.492737 67.890245 Q 186.861621 41.671028 206.883252 25.256428 C 217.320986 16.694814 230.511912 11.699571 244.144278 11.618253 Q 268.754562 11.467234 286.894264 27.498479 C 301.758015 40.637129 309.436749 59.47965 307.996261 79.669724 Q 306.683557 98.006912 295.426836 113.416656 C 295.357134 113.515399 295.386177 113.648993 295.490728 113.712885 C 301.537295 117.238597 307.479311 120.717842 313.264499 124.621102 Q 321.872581 130.435332 330.898868 136.557409 C 333.820504 138.538081 337.177772 140.536178 339.87288 142.365831 Q 352.395838 150.86936 364.872328 159.436783 Q 364.942029 159.48325 364.895562 159.552951 L 364.895562 159.55876 Q 364.854903 159.622652 364.785202 159.587802 Q 345.994957 149.173301 326.908482 138.938862 Q 309.669086 129.691854 298.0232 123.511693 C 291.395791 119.991789 284.048137 116.733265 277.258092 114.549298 C 260.320733 109.089382 242.030013 107.962548 224.569896 111.801915 Q 213.481619 114.241452 202.393342 119.120526 Q 196.14348 121.86791 186.09491 127.211658 C 165.312376 138.259276 145.82512 148.73767 125.629237 159.605227 Q 125.559536 159.640078 125.513069 159.570376 L 125.513069 159.564568 Q 125.478218 159.500675 125.536303 159.460016 C 127.946798 157.880126 130.241124 156.143408 132.645811 154.5519 Q 157.023758 138.39287 176.516822 125.271645 Q 186.112335 118.818488 195.498745 113.852288 Q 195.824016 113.678035 195.609105 113.375997 Z M 209.107877 107.677935 L 228.595133 102.386463 L 230.831375 102.020532 Q 231.99306 102.096042 233.026959 101.747536 Q 233.294146 101.654601 233.294146 101.381606 Q 233.381273 83.131544 233.439357 64.823398 C 233.445165 63.609438 233.247679 62.552305 234.211877 61.588107 Q 240.020299 55.785494 245.271112 50.197792 Q 245.456982 50.000305 245.64866 50.191983 L 257.015741 61.500981 C 257.399097 61.878528 257.614009 62.395478 257.6082 62.935661 L 257.358438 101.66041 Q 257.358438 101.857896 257.555925 101.88113 L 261.18038 102.252869 Q 261.395291 102.276103 261.389483 102.061191 Q 261.122296 93.575087 261.32559 84.235144 C 261.331399 83.892447 261.470801 83.567176 261.714755 83.32903 L 270.38092 74.668673 C 270.572598 74.476995 270.886253 74.482804 271.072122 74.68029 L 277.281325 81.464527 Q 277.48462 81.685247 277.48462 81.987285 L 277.420728 106.051577 Q 277.420728 106.359423 277.70534 106.475592 C 280.249429 107.503682 282.787709 108.02644 285.32599 109.234592 Q 288.253434 110.622805 291.157645 111.784489 Q 291.302856 111.842574 291.389982 111.714788 Q 295.159648 106.469783 297.999966 100.365132 C 304.790012 85.780184 305.742593 68.842826 299.829619 53.694462 Q 293.405505 37.239202 280.220387 27.626264 Q 260.733131 13.413056 236.95926 16.642538 C 223.228151 18.507042 210.525132 25.906971 201.876392 36.298238 Q 187.349529 53.735121 187.477314 75.992993 C 187.547015 89.375598 191.990458 100.841422 199.744701 111.482451 C 199.907337 111.703171 200.203566 111.784489 200.453329 111.668321 L 209.107877 107.677935 Z M 251.820514 64.814685 C 251.823012 64.515552 251.579058 64.26579 251.27644 64.266777 L 247.384797 64.253185 C 247.08334 64.254173 246.839386 64.498126 246.836888 64.797318 L 246.81865 70.02484 C 246.816152 70.323974 247.060106 70.573736 247.362725 70.572748 L 251.254368 70.58634 C 251.555825 70.585353 251.799778 70.341399 251.802276 70.042207 L 251.820514 64.814685 Z M 244.002262 64.752187 C 243.999068 64.515552 243.80739 64.323874 243.570232 64.324629 L 239.41146 64.34641 C 239.172269 64.347107 238.980591 64.538785 238.983902 64.778499 L 239.012247 70.19189 C 239.015442 70.428525 239.20712 70.620203 239.444278 70.619448 L 243.60305 70.597666 C 243.84224 70.596969 244.033918 70.405292 244.030608 70.165578 L 244.002262 64.752187 Z M 273.498823 85.451311 C 273.534893 84.798561 273.029561 84.240953 272.377507 84.205986 L 272.0527 84.188967 C 271.397394 84.153826 270.839785 84.659159 270.807375 85.310283 L 270.701603 87.328826 C 270.665533 87.981576 271.170866 88.539185 271.822919 88.574151 L 272.147726 88.59117 C 272.803032 88.626311 273.360641 88.120978 273.393052 87.469854 L 273.498823 85.451311 Z" style="fill:#064c79;"/>
		<path d="M 285.151737 106.795055 C 283.711248 108.392371 281.318179 107.950931 281.283328 105.621754 Q 281.114884 94.847131 281.265903 84.757902 Q 281.27752 84.136401 281.899021 84.165443 L 284.849699 84.310654 C 285.192396 84.328079 285.372457 83.909872 285.128503 83.671727 Q 277.647256 76.33569 271.647156 69.19714 C 271.287034 68.767317 270.630682 68.761508 270.258943 69.179714 Q 265.554122 74.482804 260.692472 78.769419 C 260.593729 78.856545 260.44271 78.781036 260.44271 78.653251 L 260.51822 62.999554 Q 260.51822 62.418711 261.087445 62.285118 L 262.231704 62.012122 C 262.707995 61.901762 262.917098 61.332536 262.620868 60.937564 Q 261.62182 59.607435 260.40786 58.312157 Q 254.233507 51.737023 247.908136 45.312909 C 247.298251 44.685599 246.798727 43.936313 246.20046 43.303195 C 245.985548 43.076666 245.625426 43.076666 245.404706 43.297386 Q 240.01449 48.728261 233.532291 55.588007 Q 230.976586 58.30054 228.75196 60.972414 C 228.548665 61.216368 228.635792 61.588107 228.926213 61.715892 L 229.994963 62.174758 C 230.384127 62.343202 230.639697 62.726558 230.645506 63.150573 L 230.947544 79.884636 Q 230.976586 81.23219 229.994963 80.308651 Q 225.969726 76.492518 222.217486 72.833212 Q 220.823464 71.474041 219.801182 69.865108 C 219.545611 69.458519 218.970578 69.412051 218.645306 69.766365 Q 212.842693 76.097545 205.680908 82.602978 Q 205.076832 83.148969 204.647009 83.828555 C 204.432098 84.165443 204.722519 84.595266 205.117491 84.519757 Q 206.058456 84.339696 206.848401 84.682393 Q 207.150439 84.815986 207.18529 85.147066 Q 207.260799 85.937012 207.266608 86.773424 Q 207.359542 96.32247 207.336309 106.934457 Q 207.3305 107.312004 206.952953 107.277154 Q 206.395344 107.21907 206.000372 106.824097 C 201.121297 101.904364 197.816305 94.608986 196.155096 88.016427 Q 194.325443 80.71524 195.21994 70.091637 Q 196.672046 52.85224 207.940384 40.294432 Q 220.806039 25.959247 239.334905 23.641687 Q 254.8492 21.695865 269.015941 29.281664 Q 287.440255 39.144365 294.044431 59.497075 Q 295.699831 64.608486 296.141271 70.498226 Q 297.337806 86.355218 290.112129 99.743631 Q 288.032714 103.594614 285.151737 106.795055 Z" style="fill:#ffc016;"/>
		<path d="M 228.014291 83.596218 L 228.595133 102.386463 L 209.107877 107.677935 L 208.939433 85.780184 C 208.933625 85.123833 209.20662 84.490715 209.688719 84.043466 L 218.366502 76.027844 Q 218.964769 75.476044 219.568845 76.016227 L 228.014291 83.596218 Z M 217.35572 87.003089 C 217.355836 86.854742 217.23386 86.738574 217.087139 86.737296 L 214.368855 86.751527 C 214.219289 86.750191 214.10312 86.872168 214.103062 87.020108 L 214.12647 91.492535 C 214.126354 91.640882 214.248331 91.757051 214.395051 91.758328 L 217.113335 91.744098 C 217.262902 91.745434 217.37907 91.623457 217.379128 91.475516 L 217.35572 87.003089 Z M 223.026715 87.070293 C 223.024856 86.959294 222.93773 86.872168 222.829926 86.87211 L 219.542359 86.860609 C 219.435251 86.860551 219.342317 86.947677 219.344175 87.057456 L 219.328841 91.448565 C 219.3307 91.559564 219.417826 91.64669 219.525631 91.646749 L 222.813197 91.658249 C 222.920305 91.658307 223.013239 91.571181 223.011381 91.461402 L 223.026715 87.070293 Z" style="fill:#16a0b3;"/>
		<path d="M 228.014291 83.596218 L 230.082089 84.299037 Q 230.715207 84.513948 230.732632 85.181917 Q 230.918502 93.145263 230.70359 100.794955 Q 230.691973 101.166694 230.552571 101.509391 Q 230.459636 101.724303 230.488678 101.828854 Q 230.546763 102.043766 230.831375 102.020532 L 228.595133 102.386463 L 228.014291 83.596218 Z" style="fill:#ffc016;"/>
	</g>
	<g id="surface4">
	</g>
</svg>
