<?xml version="1.0" encoding="utf-8"?>
<svg xmlns="http://www.w3.org/2000/svg" width="490pt" height="280pt" viewBox="0 0 490 280" version="1.1" xmlns:xlink="http://www.w3.org/1999/xlink">
	<g id="surface2">
		<path d="M 271.682683 81.399383 Q 269.217204 80.638709 267.091792 79.099463 Q 266.35349 78.562516 266.366914 77.613911 Q 266.416134 74.651757 266.366914 71.246623 C 266.362439 70.803642 266.116339 70.396458 265.727053 70.181679 L 258.40221 66.185904 C 258.169534 66.060616 258.021873 65.814516 258.021873 65.550517 L 258.093466 48.095288 Q 258.093466 47.880509 257.963704 47.706002 Q 257.364114 46.940853 256.384187 46.386009 Q 252.043871 43.916056 246.638612 40.358786 Q 246.35224 40.166381 245.242551 39.642858 Q 244.821943 39.46835 244.195506 39.87106 Q 238.369639 43.620735 232.597466 47.195903 C 232.364789 47.339088 232.226078 47.594138 232.226078 47.862611 Q 232.221603 55.585689 232.199231 63.344563 C 232.194756 65.018046 232.369264 65.904007 230.977678 66.67363 Q 227.733627 68.476875 224.753575 70.051917 C 224.350865 70.266696 224.091341 70.678355 224.073443 71.134759 Q 223.957105 74.083489 224.042121 77.340963 C 224.060019 78.016621 223.818394 78.616211 223.276973 79.018921 Q 221.10234 80.643183 218.645811 81.198028 Q 217.361614 77.52442 220.739901 76.906932 C 221.017324 76.853237 221.218678 76.616086 221.223153 76.338664 Q 221.276848 72.651632 221.348441 69.541818 Q 221.366339 68.790093 222.05542 68.458977 Q 225.742451 66.691528 229.196806 64.239473 C 229.411584 64.087339 229.536872 63.841238 229.541346 63.57724 L 229.639786 46.229399 C 229.644261 45.849062 229.845616 45.500047 230.176733 45.307641 Q 236.691681 41.57139 242.821818 37.445853 C 243.367714 37.078939 243.819644 36.814941 243.828593 36.07664 Q 243.909135 29.333489 243.873338 23.753722 C 243.873338 23.444978 243.712254 23.158606 243.443781 23.001997 L 237.75215 19.628184 C 237.559745 19.511846 237.447881 19.301542 237.452355 19.082289 L 237.573168 13.636758 C 237.577643 13.515945 237.640286 13.399607 237.743201 13.336963 L 244.575843 9.095087 C 244.924858 8.880309 245.372313 8.902682 245.70343 9.148782 Q 248.432907 11.229449 251.672483 13.108761 Q 252.468954 13.56964 252.50475 14.451127 Q 252.589767 16.460201 252.571868 18.715375 Q 252.567394 19.413406 252.008075 19.807166 Q 249.515749 21.538818 246.696781 23.109386 C 246.584917 23.17203 246.513324 23.292843 246.517799 23.41813 Q 246.522273 28.577289 246.553595 34.734274 Q 246.55807 35.781319 246.759425 36.738873 C 246.786272 36.877584 246.871288 37.002872 246.987627 37.083414 Q 253.498101 41.481899 260.147286 45.173405 C 260.447081 45.338963 260.630538 45.652182 260.635012 45.996723 L 260.733452 63.62646 Q 260.733452 63.890458 260.95718 64.029169 L 268.474428 68.682704 C 268.827918 68.901957 269.047171 69.291243 269.042696 69.707377 L 268.993476 76.114936 C 268.989002 76.410256 269.185882 76.674255 269.467779 76.763746 C 271.928783 77.533369 272.501526 78.763871 271.682683 81.399383 Z M 240.597966 14.952277 C 239.774648 15.457901 240.047596 17.064266 240.293696 17.748872 Q 240.383187 17.994973 240.606915 18.133684 L 244.727978 20.639433 C 245.018824 20.818415 245.385737 20.804992 245.667634 20.608111 L 249.10409 18.209751 C 250.249576 17.408806 250.249576 15.712951 249.10409 14.912006 L 245.618414 12.491273 C 245.323093 12.280969 244.929333 12.27202 244.625063 12.464426 Q 242.727853 13.650182 240.597966 14.952277 Z" style="fill:#1f2141;"/>
		<path d="M 240.597966 14.952277 Q 242.727853 13.650182 244.625063 12.464426 C 244.929333 12.27202 245.323093 12.280969 245.618414 12.491273 L 249.10409 14.912006 C 250.249576 15.712951 250.249576 17.408806 249.10409 18.209751 L 245.667634 20.608111 C 245.385737 20.804992 245.018824 20.818415 244.727978 20.639433 L 240.606915 18.133684 Q 240.383187 17.994973 240.293696 17.748872 C 240.047596 17.064266 239.774648 15.457901 240.597966 14.952277 Z" style="fill:#05b5bf;"/>
		<path d="M 245.242551 39.642858 L 245.162009 80.27627 Q 241.546571 82.902832 237.680557 85.265396 Q 236.830392 85.784444 236.80802 86.410881 Q 236.646936 91.332889 236.70958 96.125135 C 236.714054 96.411507 236.879613 96.671031 237.134662 96.796318 Q 241.35864 98.885934 245.229128 101.861512 L 245.242551 114.358937 L 237.573168 119.155657 C 237.228628 119.370436 237.013849 119.741824 237.000425 120.149008 L 236.736427 128.775945 L 218.842691 118.287594 C 218.592116 118.139934 218.439981 117.875935 218.435507 117.589564 L 218.377338 112.135084 C 220.10004 112.02322 221.912234 110.707702 223.344091 109.750148 Q 223.997376 109.316116 224.037647 108.537544 Q 224.225578 104.922106 224.091341 101.642258 C 224.073443 101.12321 224.350865 100.635484 224.80727 100.389384 Q 227.876813 98.747223 231.017949 96.970826 Q 232.132112 96.339914 231.769673 95.252597 Q 231.407235 94.156332 229.979852 94.151857 L 219.012724 87.310267 Q 218.820318 87.189454 218.811369 86.956777 L 218.645811 81.198028 Q 221.10234 80.643183 223.276973 79.018921 C 223.818394 78.616211 224.060019 78.016621 224.042121 77.340963 Q 223.957105 74.083489 224.073443 71.134759 C 224.091341 70.678355 224.350865 70.266696 224.753575 70.051917 Q 227.733627 68.476875 230.977678 66.67363 C 232.369264 65.904007 232.194756 65.018046 232.199231 63.344563 Q 232.221603 55.585689 232.226078 47.862611 C 232.226078 47.594138 232.364789 47.339088 232.597466 47.195903 Q 238.369639 43.620735 244.195506 39.87106 Q 244.821943 39.46835 245.242551 39.642858 Z" style="fill:#ee9936;"/>
		<path d="M 245.242551 39.642858 Q 246.35224 40.166381 246.638612 40.358786 Q 252.043871 43.916056 256.384187 46.386009 Q 257.364114 46.940853 257.963704 47.706002 Q 258.093466 47.880509 258.093466 48.095288 L 258.021873 65.550517 C 258.021873 65.814516 258.169534 66.060616 258.40221 66.185904 L 265.727053 70.181679 C 266.116339 70.396458 266.362439 70.803642 266.366914 71.246623 Q 266.416134 74.651757 266.366914 77.613911 Q 266.35349 78.562516 267.091792 79.099463 Q 269.217204 80.638709 271.682683 81.399383 L 271.85719 86.513796 C 271.884037 87.189454 271.530548 87.82484 270.939907 88.160432 L 260.737927 94.022095 Q 259.713254 93.986299 258.997326 94.925955 C 258.200856 95.964051 258.934682 96.657607 259.865389 97.185604 Q 262.96178 98.939629 265.642037 100.617586 C 266.067119 100.881585 266.331118 101.346938 266.340067 101.848088 Q 266.434032 105.391934 266.349016 108.488324 Q 266.326643 109.32954 267.297621 109.960452 Q 269.95998 111.692104 271.843766 112.287219 L 271.888512 117.276345 C 271.892986 117.817766 271.61109 118.32339 271.141262 118.596338 L 253.838167 128.775945 Q 253.641286 124.833865 253.708405 121.093139 Q 253.721828 120.296668 253.480203 119.522571 Q 253.413084 119.312267 253.225153 119.200403 L 245.242551 114.358937 L 245.229128 101.861512 Q 248.764024 99.020171 253.010375 97.324315 C 253.596541 97.091638 253.927658 96.769471 253.927658 96.151982 Q 253.932132 91.453702 253.873963 86.258747 C 253.865014 85.739699 253.55627 85.466751 253.108815 85.243023 Q 249.229378 83.278695 245.162009 80.27627 L 245.242551 39.642858 Z" style="fill:#ffc834;"/>
		<path d="M 236.736427 128.775945 L 237.000425 120.149008 C 237.013849 119.741824 237.228628 119.370436 237.573168 119.155657 L 245.242551 114.358937 L 253.225153 119.200403 Q 253.413084 119.312267 253.480203 119.522571 Q 253.721828 120.296668 253.708405 121.093139 Q 253.641286 124.833865 253.838167 128.775945 L 247.045796 133.156532 C 246.880238 133.263922 246.781797 133.451853 246.777323 133.648733 L 246.669934 148.410282 Q 246.665459 148.759297 246.992101 148.63401 Q 247.341116 148.499773 247.779623 148.249198 Q 265.418309 138.074066 284.139837 127.576765 C 290.399736 124.068716 296.829668 120.484599 302.753976 116.546993 C 302.879263 116.461977 302.950856 116.323265 302.950856 116.175605 L 302.950856 71.22425 C 302.950856 71.049742 302.85689 70.888659 302.704756 70.799168 L 297.952781 68.015996 C 297.693257 67.863861 297.527698 67.586439 297.523224 67.282169 L 297.433733 59.957327 C 297.429258 59.742548 297.541122 59.536719 297.724579 59.42038 L 308.955706 52.247673 C 309.273399 52.046318 309.676108 52.041843 309.998276 52.229774 L 313.005176 54.010646 C 313.372089 54.225425 313.595817 54.62366 313.595817 55.048742 L 313.636088 64.610861 C 313.640562 65.044893 313.421309 65.443128 313.063345 65.675805 L 306.803446 69.729749 C 306.25755 70.083239 305.926433 70.691778 305.926433 71.340588 L 305.935383 117.62536 Q 305.935383 118.117561 305.5103 118.372611 Q 298.46288 122.57869 292.229828 126.135959 Q 272.277798 137.519221 251.999126 148.996448 C 250.504625 149.837664 249.10409 150.822066 247.564844 151.640909 Q 246.030073 152.455278 247.739352 152.723751 C 249.65446 153.023546 250.334592 155.345839 248.951955 156.68373 Q 248.723753 156.902983 248.40606 156.911932 Q 244.996451 156.992474 242.132737 156.898508 Q 241.166234 156.862712 240.826168 155.990174 Q 240.096816 154.088489 241.425758 153.045919 C 241.922433 152.656632 242.674158 152.607412 243.260325 152.361312 C 243.475103 152.271821 243.50195 151.9765 243.30507 151.846738 Q 240.374238 149.927155 236.870663 147.989674 Q 212.681232 134.606287 183.869588 118.12651 C 183.75325 118.059392 183.681657 117.934104 183.681657 117.799868 Q 183.699555 95.42263 183.681657 72.991698 Q 183.681657 71.765671 183.619013 70.494898 Q 183.583217 69.716326 182.916508 69.309142 L 177.036946 65.698178 C 176.701355 65.487874 176.495525 65.12096 176.5 64.7272 L 176.535796 54.86976 C 176.540271 54.493898 176.7461 54.149357 177.077217 53.97485 L 180.567368 52.131334 C 180.688181 52.06869 180.835841 52.073165 180.95218 52.149232 L 192.398085 59.344313 C 192.563644 59.451702 192.662084 59.635159 192.657609 59.827565 L 192.518898 67.013696 C 192.509949 67.501422 192.237001 67.944403 191.807444 68.181554 L 187.001775 70.826015 Q 186.791471 70.942353 186.746725 71.179505 Q 186.590116 72.029669 186.590116 73.215426 Q 186.581167 114.712427 186.581167 115.983199 Q 186.581167 116.202453 186.7512 116.341164 Q 187.65506 117.066041 190.039996 118.439729 C 200.913159 124.699628 211.889236 130.673156 222.726603 136.897258 Q 233.134412 142.879735 243.618289 148.799568 Q 243.931507 148.97855 243.931507 148.616111 L 243.873338 133.648733 Q 243.873338 133.433955 243.694356 133.317616 L 236.736427 128.775945 Z M 309.689532 55.344063 C 306.606565 57.151782 303.66231 59.102687 300.628563 60.928305 C 300.355615 61.093863 300.190057 61.393658 300.199006 61.706877 L 300.288497 65.675805 C 300.292972 65.908482 300.404836 66.12326 300.588292 66.266446 Q 301.91276 67.291118 303.447531 68.007047 C 303.854716 68.199452 304.329018 68.154707 304.695931 67.895183 L 310.548646 63.742798 C 310.70973 63.630934 310.803696 63.447478 310.799221 63.255072 Q 310.772374 59.608312 310.656035 55.988398 Q 310.647086 55.62596 310.548646 55.509621 C 310.342817 55.245623 309.975903 55.178504 309.689532 55.344063 Z M 179.475577 56.149482 Q 179.30107 59.156382 179.386086 62.445178 C 179.403985 63.192428 179.412934 63.783069 180.09754 64.234999 Q 182.719628 65.971125 186.030797 67.984674 Q 186.25005 68.118911 186.469303 67.984674 L 189.382237 66.212751 C 189.579117 66.091938 189.69993 65.881634 189.704405 65.653432 L 189.762574 61.590538 C 189.767048 61.27732 189.605965 60.990948 189.34644 60.829864 L 180.723978 55.500672 C 180.19598 55.17403 179.511374 55.531994 179.475577 56.149482 Z M 245.631837 118.117561 C 245.376788 117.974375 245.063569 117.974375 244.80852 118.113087 L 239.958105 120.739649 C 239.685157 120.887309 239.510649 121.178155 239.510649 121.491374 L 239.528548 126.690804 C 239.528548 126.963752 239.65831 127.218801 239.882037 127.379885 L 244.656385 130.83424 C 244.938282 131.035594 245.314144 131.049018 245.609465 130.865561 L 250.513574 127.800493 C 250.764149 127.643884 250.916284 127.370936 250.916284 127.075615 L 250.929708 121.558492 C 250.929708 121.245273 250.759675 120.958902 250.486727 120.806767 L 245.631837 118.117561 Z" style="fill:#1f2141;"/>
		<path d="M 300.628563 60.928305 C 303.66231 59.102687 306.606565 57.151782 309.689532 55.344063 C 309.975903 55.178504 310.342817 55.245623 310.548646 55.509621 Q 310.647086 55.62596 310.656035 55.988398 Q 310.772374 59.608312 310.799221 63.255072 C 310.803696 63.447478 310.70973 63.630934 310.548646 63.742798 L 304.695931 67.895183 C 304.329018 68.154707 303.854716 68.199452 303.447531 68.007047 Q 301.91276 67.291118 300.588292 66.266446 C 300.404836 66.12326 300.292972 65.908482 300.288497 65.675805 L 300.199006 61.706877 C 300.190057 61.393658 300.355615 61.093863 300.628563 60.928305 Z" style="fill:#05b5bf;"/>
		<path d="M 179.475577 56.149482 C 179.511374 55.531994 180.19598 55.17403 180.723978 55.500672 L 189.34644 60.829864 C 189.605965 60.990948 189.767048 61.27732 189.762574 61.590538 L 189.704405 65.653432 C 189.69993 65.881634 189.579117 66.091938 189.382237 66.212751 L 186.469303 67.984674 Q 186.25005 68.118911 186.030797 67.984674 Q 182.719628 65.971125 180.09754 64.234999 C 179.412934 63.783069 179.403985 63.192428 179.386086 62.445178 Q 179.30107 59.156382 179.475577 56.149482 Z" style="fill:#05b5bf;"/>
		<path d="M 245.162009 80.27627 Q 249.229378 83.278695 253.108815 85.243023 C 253.55627 85.466751 253.865014 85.739699 253.873963 86.258747 Q 253.932132 91.453702 253.927658 96.151982 C 253.927658 96.769471 253.596541 97.091638 253.010375 97.324315 Q 248.764024 99.020171 245.229128 101.861512 Q 241.35864 98.885934 237.134662 96.796318 C 236.879613 96.671031 236.714054 96.411507 236.70958 96.125135 Q 236.646936 91.332889 236.80802 86.410881 Q 236.830392 85.784444 237.680557 85.265396 Q 241.546571 82.902832 245.162009 80.27627 Z M 245.403635 98.067091 L 250.799946 95.248123 C 251.023673 95.131784 251.166859 94.899108 251.166859 94.644058 L 251.184757 87.587689 C 251.184757 87.444503 251.10869 87.310267 250.987877 87.234199 L 245.779498 84.088589 C 245.479703 83.909607 245.10384 83.909607 244.80852 84.097538 L 239.555395 87.448978 Q 239.35404 87.574265 239.358515 87.811416 L 239.425633 94.57694 C 239.430108 94.863311 239.595666 95.122835 239.859665 95.248123 Q 242.334092 96.407032 244.634012 98.017871 C 244.85774 98.178955 245.157535 98.196853 245.403635 98.067091 Z" style="fill:#1f2141;"/>
		<path d="M 245.403635 98.067091 C 245.157535 98.196853 244.85774 98.178955 244.634012 98.017871 Q 242.334092 96.407032 239.859665 95.248123 C 239.595666 95.122835 239.430108 94.863311 239.425633 94.57694 L 239.358515 87.811416 Q 239.35404 87.574265 239.555395 87.448978 L 244.80852 84.097538 C 245.10384 83.909607 245.479703 83.909607 245.779498 84.088589 L 250.987877 87.234199 C 251.10869 87.310267 251.184757 87.444503 251.184757 87.587689 L 251.166859 94.644058 C 251.166859 94.899108 251.023673 95.131784 250.799946 95.248123 L 245.403635 98.067091 Z" style="fill:#05b5bf;"/>
		<path d="M 260.737927 94.022095 Q 263.937232 96.353337 267.324468 98.201328 C 267.959855 98.550343 269.05612 99.284169 269.042696 100.098538 Q 268.984527 103.42313 268.90846 106.743248 Q 268.899511 107.016196 269.136662 107.154907 L 271.637937 108.662831 C 271.749801 108.72995 271.830343 108.837339 271.861665 108.962626 Q 272.246476 110.403432 271.843766 112.287219 Q 269.95998 111.692104 267.297621 109.960452 Q 266.326643 109.32954 266.349016 108.488324 Q 266.434032 105.391934 266.340067 101.848088 C 266.331118 101.346938 266.067119 100.881585 265.642037 100.617586 Q 262.96178 98.939629 259.865389 97.185604 C 258.934682 96.657607 258.200856 95.964051 258.997326 94.925955 Q 259.713254 93.986299 260.737927 94.022095 Z" style="fill:#1f2141;"/>
		<path d="M 229.979852 94.151857 Q 231.407235 94.156332 231.769673 95.252597 Q 232.132112 96.339914 231.017949 96.970826 Q 227.876813 98.747223 224.80727 100.389384 C 224.350865 100.635484 224.073443 101.12321 224.091341 101.642258 Q 224.225578 104.922106 224.037647 108.537544 Q 223.997376 109.316116 223.344091 109.750148 C 221.912234 110.707702 220.10004 112.02322 218.377338 112.135084 Q 217.947781 110.62716 218.354965 109.190829 Q 218.413134 108.97605 218.614489 108.868661 C 219.406485 108.439104 221.343966 107.553142 221.370813 106.510572 Q 221.446881 103.718451 221.402135 100.541519 Q 221.388711 99.4721 222.297046 98.876985 Q 225.939331 96.47415 229.979852 94.151857 Z" style="fill:#1f2141;"/>
		<path d="M 245.631837 118.117561 L 250.486727 120.806767 C 250.759675 120.958902 250.929708 121.245273 250.929708 121.558492 L 250.916284 127.075615 C 250.916284 127.370936 250.764149 127.643884 250.513574 127.800493 L 245.609465 130.865561 C 245.314144 131.049018 244.938282 131.035594 244.656385 130.83424 L 239.882037 127.379885 C 239.65831 127.218801 239.528548 126.963752 239.528548 126.690804 L 239.510649 121.491374 C 239.510649 121.178155 239.685157 120.887309 239.958105 120.739649 L 244.80852 118.113087 C 245.063569 117.974375 245.376788 117.974375 245.631837 118.117561 Z" style="fill:#05b5bf;"/>
	</g>
	<g id="surface4">
	</g>
</svg>
