<?xml version="1.0" encoding="utf-8"?>
<svg xmlns="http://www.w3.org/2000/svg" width="490pt" height="280pt" viewBox="0 0 490 280" version="1.1" xmlns:xlink="http://www.w3.org/1999/xlink">
	<g id="surface2">
		<path d="M 184.889221 125.455104 Q 180.403819 118.62363 177.680218 111.374177 Q 174.030772 101.670786 173.033017 92.857285 Q 170.300427 68.699932 181.576855 47.432472 Q 183.68023 43.472914 186.277988 39.877401 Q 195.486996 27.14479 207.707246 19.472864 Q 216.161196 14.164988 226.696049 11.225656 Q 230.8219 10.075092 235.747753 9.517788 Q 264.426463 6.25486 287.18606 23.117816 Q 297.968105 31.108843 305.729919 43.230217 C 312.458022 53.738103 316.57039 66.317904 317.181628 79.032537 Q 317.990618 95.859538 311.66701 111.976425 C 306.206324 125.900049 296.287203 138.142771 283.860211 146.142787 Q 281.666948 147.55852 279.478179 148.650658 C 277.455703 149.661896 275.541093 150.709089 273.442212 151.585495 C 261.374771 156.641685 248.345531 157.89562 235.172471 156.439438 Q 214.938721 154.201231 199.325206 141.432665 C 193.815082 136.929285 188.839791 131.473094 184.889221 125.455104 Z M 237.94551 44.529096 Q 237.594947 44.05269 237.02416 44.174039 C 234.457862 44.731343 232.080329 45.805503 229.851111 47.059438 C 220.0039 52.605517 215.419621 61.472951 215.118497 72.58758 Q 215.114002 72.789828 214.929732 72.870727 Q 211.936468 74.169606 209.558935 76.65051 C 207.71174 78.574109 208.799383 80.89771 208.682529 83.176366 Q 208.592641 84.915695 208.570169 86.686485 Q 208.56118 87.234801 209.055563 87.473004 Q 212.453323 89.117951 215.891532 90.803348 Q 229.576953 97.517968 245.001704 105.383153 Q 245.163502 105.468546 245.329795 105.383153 L 280.835486 87.225812 C 281.150093 87.064014 281.334363 86.722441 281.289419 86.367384 L 281.087171 84.713448 C 281.073688 84.578616 280.907396 84.529178 280.817508 84.628054 Q 279.833236 85.756146 278.228739 86.592103 Q 261.860166 95.171896 245.217435 103.369666 Q 245.015187 103.468542 244.808445 103.369666 L 210.152194 85.976372 Q 209.905003 85.855023 209.869048 85.580865 L 209.608373 83.504456 Q 209.549946 83.072995 209.89152 83.347153 Q 211.033095 84.281986 212.134221 84.776369 C 215.837599 86.439294 219.199404 88.2775 222.709524 90.039301 Q 231.828643 94.619086 240.929786 99.288758 Q 242.700576 100.20112 244.799457 101.4191 C 244.988221 101.526965 245.221929 101.522471 245.406199 101.405617 Q 248.637667 99.342691 252.179247 97.612351 Q 260.341062 93.612342 268.628719 89.122445 C 272.233221 87.17188 276.138847 85.967383 279.58155 83.729176 Q 280.741103 82.978613 281.123127 81.742655 C 282.111893 78.551637 280.875935 76.690959 278.336604 74.920169 Q 276.714129 73.783088 275.195025 73.019042 C 274.938844 72.893199 274.772552 72.632524 274.768057 72.344883 C 274.556821 63.351606 271.078162 55.090915 263.891631 49.607758 Q 258.754541 45.684154 252.983743 44.263926 Q 252.255652 44.088645 251.82419 44.601006 Q 245.95901 42.358305 239.657873 43.949319 Q 238.790455 44.16505 237.94551 44.529096 Z M 280.17872 90.793595 C 280.017506 90.497729 279.644472 90.389864 279.349056 90.550943 L 265.488173 98.139588 C 265.19051 98.299992 265.082644 98.673027 265.245521 98.969252 L 265.25851 98.992893 C 265.419724 99.288758 265.792758 99.396624 266.088174 99.235545 L 279.949057 91.6469 C 280.24672 91.486495 280.354586 91.113461 280.191709 90.817235 L 280.17872 90.793595 Z M 280.76807 98.803364 L 245.43766 117.315762 C 245.136536 117.473065 244.776985 117.455088 244.493838 117.275312 Q 243.311813 116.533738 242.003945 115.846096 Q 227.001667 107.953945 208.844327 98.906735 C 208.63309 98.79887 208.385899 98.960668 208.394888 99.198871 L 208.60163 104.515736 C 208.610618 104.731466 208.736461 104.924725 208.934214 105.023602 Q 216.16569 108.511249 223.194918 112.223616 C 225.158967 113.261821 227.244364 114.138227 229.181447 115.149465 Q 236.50281 118.987675 244.691591 123.15847 C 244.965749 123.297797 245.289345 123.297797 245.563503 123.15847 Q 262.723089 114.367441 280.417507 105.230344 Q 280.857958 105.00113 281.190542 104.673039 Q 281.352341 104.506747 281.325374 104.273038 Q 281.02425 101.670786 281.289419 99.158421 C 281.32088 98.875274 281.019756 98.673027 280.76807 98.803364 Z M 271.976681 99.773703 C 271.83322 99.508984 271.500635 99.405613 271.233938 99.550871 L 265.962961 102.38899 C 265.698376 102.533709 265.595005 102.866294 265.740129 103.131733 L 265.757163 103.163373 C 265.900623 103.428093 266.233208 103.531464 266.499906 103.386205 L 271.770883 100.548087 C 272.035468 100.403368 272.138839 100.070783 271.993715 99.805344 L 271.976681 99.773703 Z M 263.235764 99.941794 C 263.100618 99.594377 262.430953 99.53595 261.742323 99.807996 C 261.05567 100.079771 260.606231 100.583143 260.745242 100.927863 C 260.880388 101.275279 261.550053 101.333707 262.238683 101.061661 C 262.925336 100.789885 263.374776 100.286513 263.235764 99.941794 Z M 259.243981 102.097393 C 259.105104 101.783146 258.093866 101.926966 256.990313 102.416945 C 255.88712 102.906743 255.105096 103.562925 255.244871 103.877891 C 255.383748 104.192139 256.394986 104.048319 257.498539 103.55834 C 258.601732 103.068542 259.383756 102.41236 259.243981 102.097393 Z M 263.717922 103.840723 C 263.496124 103.491014 262.646684 103.639329 261.815447 104.164454 C 260.983759 104.691017 260.493871 105.401131 260.712523 105.748053 C 260.934321 106.097761 261.783761 105.949446 262.614999 105.424322 C 263.446686 104.897759 263.936574 104.187645 263.717922 103.840723 Z M 258.946497 106.962842 C 258.866901 106.5472 258.102855 106.340458 257.235257 106.506886 C 256.36802 106.673043 255.73431 107.144954 255.812019 107.560775 C 255.891614 107.976417 256.655661 108.183159 257.523258 108.016731 C 258.390496 107.850574 259.024205 107.378663 258.946497 106.962842 Z" style="fill:#ffffff;"/>
		<path d="M 251.82419 44.601006 Q 251.8961 45.940334 251.82419 47.068427 Q 251.27138 55.333612 250.475873 63.890933 Q 250.42194 64.475204 251.001717 64.556103 L 251.15902 64.578575 Q 251.630931 64.641496 251.671381 64.165091 L 253.208463 45.962806 Q 253.253407 45.418985 253.761273 45.612244 L 256.884875 46.803258 C 257.203976 46.924606 257.40173 47.243708 257.370269 47.585282 L 255.864648 63.940371 Q 255.824198 64.362844 256.192738 64.565092 Q 256.345548 64.650485 256.588245 64.623519 C 256.830942 64.596552 257.019706 64.403294 257.046673 64.160597 L 258.732069 48.41225 C 258.754541 48.214496 258.970272 48.102137 259.145553 48.196519 C 265.541072 51.679672 270.327599 57.571819 272.143333 64.704418 C 273.226481 68.965101 273.590527 73.446009 273.743336 77.971861 C 273.761314 78.452761 273.464684 78.884222 273.015245 79.041526 C 266.475906 81.374115 259.788251 81.886476 252.215202 82.174117 Q 242.098327 82.55614 232.11179 81.908948 C 228.188187 81.652767 224.340988 81.019058 220.525249 80.178607 Q 218.835358 79.805572 217.334232 79.032537 Q 217.522996 78.992088 217.603895 78.911189 C 217.648839 78.875233 217.662322 78.812312 217.644345 78.758379 Q 217.626367 78.690963 217.603895 78.628042 Q 217.576929 78.538154 217.581423 78.443772 Q 217.900525 73.410054 218.538729 69.113416 Q 219.122999 65.149363 220.026372 62.677447 Q 222.165702 56.821256 226.965712 52.407763 Q 228.844368 50.677423 230.812911 49.07742 Q 231.132013 49.99877 231.176957 50.322366 Q 232.147745 57.49092 232.844376 63.886439 C 232.880331 64.219024 233.100556 64.50217 233.415164 64.61453 Q 233.572467 64.672957 233.73876 64.619024 C 233.873591 64.578575 233.963479 64.448238 233.954491 64.304417 Q 233.635389 59.468452 232.983702 54.520127 C 232.678083 52.214505 232.547746 49.88641 232.269094 47.580787 C 232.22415 47.216742 232.435386 46.866179 232.781454 46.740336 L 236.363484 45.418985 C 236.453372 45.38303 236.552249 45.45494 236.547754 45.549322 Q 236.498316 46.434717 236.588204 47.311124 Q 237.460116 56.111142 238.102814 63.711157 Q 238.152252 64.286439 238.669107 64.54262 Q 238.736523 64.574081 238.803939 64.578575 Q 239.302816 64.587564 239.257872 64.093181 Q 238.430904 54.578554 237.918544 46.843707 Q 237.869105 46.0482 237.94551 44.529096 Q 238.790455 44.16505 239.657873 43.949319 Q 245.95901 42.358305 251.82419 44.601006 Z" style="fill:#f79827;"/>
		<path d="M 237.94551 44.529096 Q 237.869105 46.0482 237.918544 46.843707 Q 238.430904 54.578554 239.257872 64.093181 Q 239.302816 64.587564 238.803939 64.578575 Q 238.736523 64.574081 238.669107 64.54262 Q 238.152252 64.286439 238.102814 63.711157 Q 237.460116 56.111142 236.588204 47.311124 Q 236.498316 46.434717 236.547754 45.549322 C 236.552249 45.45494 236.453372 45.38303 236.363484 45.418985 L 232.781454 46.740336 C 232.435386 46.866179 232.22415 47.216742 232.269094 47.580787 C 232.547746 49.88641 232.678083 52.214505 232.983702 54.520127 Q 233.635389 59.468452 233.954491 64.304417 C 233.963479 64.448238 233.873591 64.578575 233.73876 64.619024 Q 233.572467 64.672957 233.415164 64.61453 C 233.100556 64.50217 232.880331 64.219024 232.844376 63.886439 Q 232.147745 57.49092 231.176957 50.322366 Q 231.132013 49.99877 230.812911 49.07742 L 230.669091 48.663936 Q 230.583697 48.416744 230.354483 48.551576 Q 221.882556 53.486417 218.570189 62.007783 C 216.700523 66.825771 216.466814 73.171851 216.7185 78.304446 Q 216.740972 78.776357 217.334232 79.032537 Q 218.835358 79.805572 220.525249 80.178607 C 224.340988 81.019058 228.188187 81.652767 232.11179 81.908948 Q 242.098327 82.55614 252.215202 82.174117 C 259.788251 81.886476 266.475906 81.374115 273.015245 79.041526 C 273.464684 78.884222 273.761314 78.452761 273.743336 77.971861 C 273.590527 73.446009 273.226481 68.965101 272.143333 64.704418 C 270.327599 57.571819 265.541072 51.679672 259.145553 48.196519 C 258.970272 48.102137 258.754541 48.214496 258.732069 48.41225 L 257.046673 64.160597 C 257.019706 64.403294 256.830942 64.596552 256.588245 64.623519 Q 256.345548 64.650485 256.192738 64.565092 Q 255.824198 64.362844 255.864648 63.940371 L 257.370269 47.585282 C 257.40173 47.243708 257.203976 46.924606 256.884875 46.803258 L 253.761273 45.612244 Q 253.253407 45.418985 253.208463 45.962806 L 251.671381 64.165091 Q 251.630931 64.641496 251.15902 64.578575 L 251.001717 64.556103 Q 250.42194 64.475204 250.475873 63.890933 Q 251.27138 55.333612 251.82419 47.068427 Q 251.8961 45.940334 251.82419 44.601006 Q 252.255652 44.088645 252.983743 44.263926 Q 258.754541 45.684154 263.891631 49.607758 C 271.078162 55.090915 274.556821 63.351606 274.768057 72.344883 C 274.772552 72.632524 274.938844 72.893199 275.195025 73.019042 Q 276.714129 73.783088 278.336604 74.920169 C 280.875935 76.690959 282.111893 78.551637 281.123127 81.742655 Q 280.741103 82.978613 279.58155 83.729176 C 276.138847 85.967383 272.233221 87.17188 268.628719 89.122445 Q 260.341062 93.612342 252.179247 97.612351 Q 248.637667 99.342691 245.406199 101.405617 C 245.221929 101.522471 244.988221 101.526965 244.799457 101.4191 Q 242.700576 100.20112 240.929786 99.288758 Q 231.828643 94.619086 222.709524 90.039301 C 219.199404 88.2775 215.837599 86.439294 212.134221 84.776369 Q 211.033095 84.281986 209.89152 83.347153 Q 209.549946 83.072995 209.608373 83.504456 L 209.869048 85.580865 Q 209.905003 85.855023 210.152194 85.976372 L 244.808445 103.369666 Q 245.015187 103.468542 245.217435 103.369666 Q 261.860166 95.171896 278.228739 86.592103 Q 279.833236 85.756146 280.817508 84.628054 C 280.907396 84.529178 281.073688 84.578616 281.087171 84.713448 L 281.289419 86.367384 C 281.334363 86.722441 281.150093 87.064014 280.835486 87.225812 L 245.329795 105.383153 Q 245.163502 105.468546 245.001704 105.383153 Q 229.576953 97.517968 215.891532 90.803348 Q 212.453323 89.117951 209.055563 87.473004 Q 208.56118 87.234801 208.570169 86.686485 Q 208.592641 84.915695 208.682529 83.176366 C 208.799383 80.89771 207.71174 78.574109 209.558935 76.65051 Q 211.936468 74.169606 214.929732 72.870727 Q 215.114002 72.789828 215.118497 72.58758 C 215.419621 61.472951 220.0039 52.605517 229.851111 47.059438 C 232.080329 45.805503 234.457862 44.731343 237.02416 44.174039 Q 237.594947 44.05269 237.94551 44.529096 Z M 229.909538 86.075248 C 243.123049 86.816823 254.817455 86.497721 266.907367 85.504461 C 268.893888 85.342662 271.347826 85.117943 273.204009 84.493223 C 275.064687 83.864008 277.311883 83.0685 278.817504 81.922431 C 280.098405 80.947148 280.475934 78.992088 279.280426 77.706692 Q 277.415254 75.702193 275.150081 74.520168 Q 275.00626 74.448258 274.997271 74.610056 Q 274.8939 76.524667 275.19053 78.416806 Q 275.226485 78.650514 275.11862 78.857256 Q 274.655698 79.756134 273.707381 80.111191 C 268.592764 82.025802 262.929831 82.762882 257.356786 83.140411 Q 243.801702 84.061761 230.30055 83.014568 Q 223.433121 82.434791 216.682545 80.214562 C 216.066813 80.012314 215.451082 79.634786 215.446587 78.897705 Q 215.437599 76.470734 215.50052 74.223539 C 215.505014 74.138145 215.415127 74.079718 215.334228 74.115673 C 213.118493 75.203316 208.63309 77.801074 210.381408 80.906698 C 211.756692 83.351647 216.403893 84.646032 218.934235 84.938167 Q 224.421887 85.576371 229.909538 86.075248 Z M 268.687146 87.302217 Q 269.033214 87.13143 269.370294 86.951655 Q 269.945576 86.641542 269.298383 86.695474 C 264.934329 87.064014 260.31859 87.65278 256.210716 87.823566 Q 242.291586 88.407837 229.262346 87.508959 Q 224.758966 87.198846 220.084799 86.502215 Q 219.666821 86.439294 220.039855 86.637047 Q 220.660081 86.974126 221.325251 87.3157 Q 233.069095 93.369645 244.691591 99.176399 C 244.938783 99.302242 245.230918 99.297747 245.47811 99.16741 Q 252.511832 95.450548 258.664654 92.317958 Q 263.612978 89.801099 268.687146 87.302217 Z" style="fill:#1d3044;"/>
		<path d="M 230.812911 49.07742 Q 228.844368 50.677423 226.965712 52.407763 Q 222.165702 56.821256 220.026372 62.677447 Q 219.122999 65.149363 218.538729 69.113416 Q 217.900525 73.410054 217.581423 78.443772 Q 217.576929 78.538154 217.603895 78.628042 Q 217.626367 78.690963 217.644345 78.758379 C 217.662322 78.812312 217.648839 78.875233 217.603895 78.911189 Q 217.522996 78.992088 217.334232 79.032537 Q 216.740972 78.776357 216.7185 78.304446 C 216.466814 73.171851 216.700523 66.825771 218.570189 62.007783 Q 221.882556 53.486417 230.354483 48.551576 Q 230.583697 48.416744 230.669091 48.663936 L 230.812911 49.07742 Z" style="fill:#ffffff;"/>
		<path d="M 230.30055 83.014568 L 228.853356 83.140411 Q 228.520772 83.167377 228.745491 83.414569 Q 229.388189 84.111199 229.765718 84.965134 Q 229.833134 85.122437 229.999426 85.17637 Q 230.143247 85.225808 230.11628 85.374123 Q 230.062348 85.661764 230.332011 85.540416 Q 230.439877 85.490977 230.507292 85.61682 C 230.543248 85.679742 230.507292 85.760641 230.435382 85.778618 Q 230.030887 85.886484 229.909538 86.075248 Q 224.421887 85.576371 218.934235 84.938167 C 216.403893 84.646032 211.756692 83.351647 210.381408 80.906698 C 208.63309 77.801074 213.118493 75.203316 215.334228 74.115673 C 215.415127 74.079718 215.505014 74.138145 215.50052 74.223539 Q 215.437599 76.470734 215.446587 78.897705 C 215.451082 79.634786 216.066813 80.012314 216.682545 80.214562 Q 223.433121 82.434791 230.30055 83.014568 Z" style="fill:#bd6e28;"/>
		<path d="M 229.909538 86.075248 Q 230.030887 85.886484 230.435382 85.778618 C 230.507292 85.760641 230.543248 85.679742 230.507292 85.61682 Q 230.439877 85.490977 230.332011 85.540416 Q 230.062348 85.661764 230.11628 85.374123 Q 230.143247 85.225808 229.999426 85.17637 Q 229.833134 85.122437 229.765718 84.965134 Q 229.388189 84.111199 228.745491 83.414569 Q 228.520772 83.167377 228.853356 83.140411 L 230.30055 83.014568 Q 243.801702 84.061761 257.356786 83.140411 C 262.929831 82.762882 268.592764 82.025802 273.707381 80.111191 Q 274.655698 79.756134 275.11862 78.857256 Q 275.226485 78.650514 275.19053 78.416806 Q 274.8939 76.524667 274.997271 74.610056 Q 275.00626 74.448258 275.150081 74.520168 Q 277.415254 75.702193 279.280426 77.706692 C 280.475934 78.992088 280.098405 80.947148 278.817504 81.922431 C 277.311883 83.0685 275.064687 83.864008 273.204009 84.493223 C 271.347826 85.117943 268.893888 85.342662 266.907367 85.504461 C 254.817455 86.497721 243.123049 86.816823 229.909538 86.075248 Z" style="fill:#f79827;"/>
		<path d="M 268.687146 87.302217 Q 263.612978 89.801099 258.664654 92.317958 Q 252.511832 95.450548 245.47811 99.16741 C 245.230918 99.297747 244.938783 99.302242 244.691591 99.176399 Q 233.069095 93.369645 221.325251 87.3157 Q 220.660081 86.974126 220.039855 86.637047 Q 219.666821 86.439294 220.084799 86.502215 Q 224.758966 87.198846 229.262346 87.508959 Q 242.291586 88.407837 256.210716 87.823566 C 260.31859 87.65278 264.934329 87.064014 269.298383 86.695474 Q 269.945576 86.641542 269.370294 86.951655 Q 269.033214 87.13143 268.687146 87.302217 Z" style="fill:#ffffff;"/>
		<path d="M 280.191709 90.817235 C 280.354586 91.113461 280.24672 91.486495 279.949057 91.6469 L 266.088174 99.235545 C 265.792758 99.396624 265.419724 99.288758 265.25851 98.992893 L 265.245521 98.969252 C 265.082644 98.673027 265.19051 98.299992 265.488173 98.139588 L 279.349056 90.550943 C 279.644472 90.389864 280.017506 90.497729 280.17872 90.793595 L 280.191709 90.817235 Z" style="fill:#133d64;"/>
		<path d="M 245.43766 117.315762 L 280.76807 98.803364 C 281.019756 98.673027 281.32088 98.875274 281.289419 99.158421 Q 281.02425 101.670786 281.325374 104.273038 Q 281.352341 104.506747 281.190542 104.673039 Q 280.857958 105.00113 280.417507 105.230344 Q 262.723089 114.367441 245.563503 123.15847 C 245.289345 123.297797 244.965749 123.297797 244.691591 123.15847 Q 236.50281 118.987675 229.181447 115.149465 C 227.244364 114.138227 225.158967 113.261821 223.194918 112.223616 Q 216.16569 108.511249 208.934214 105.023602 C 208.736461 104.924725 208.610618 104.731466 208.60163 104.515736 L 208.394888 99.198871 C 208.385899 98.960668 208.63309 98.79887 208.844327 98.906735 Q 227.001667 107.953945 242.003945 115.846096 Q 243.311813 116.533738 244.493838 117.275312 C 244.776985 117.455088 245.136536 117.473065 245.43766 117.315762 Z M 210.183655 101.401122 Q 209.770171 101.185392 209.81961 101.648314 L 209.990396 103.239328 C 210.021857 103.522475 210.201633 103.765172 210.462307 103.882026 Q 212.466806 104.785399 214.462316 105.796637 Q 229.163469 113.288787 244.70058 121.162961 Q 244.875861 121.248354 245.055637 121.171949 Q 250.768008 118.686551 256.318581 115.742725 C 264.030957 111.648334 271.851197 107.729225 279.662449 103.796633 C 280.116383 103.571913 280.39953 103.108991 280.39953 102.605619 L 280.404024 101.904494 Q 280.408518 101.059549 279.648966 101.432583 Q 273.559066 104.439331 268.012987 107.423607 C 263.554551 109.819117 258.714092 112.133729 254.282622 114.641599 C 251.545538 116.192164 248.543284 117.473065 245.752268 119.100035 C 245.370244 119.324755 244.898333 119.329249 244.507321 119.118013 C 233.190444 112.929236 221.639859 107.414618 210.183655 101.401122 Z" style="fill:#133d64;"/>
		<path d="M 271.993715 99.805344 C 272.138839 100.070783 272.035468 100.403368 271.770883 100.548087 L 266.499906 103.386205 C 266.233208 103.531464 265.900623 103.428093 265.757163 103.163373 L 265.740129 103.131733 C 265.595005 102.866294 265.698376 102.533709 265.962961 102.38899 L 271.233938 99.550871 C 271.500635 99.405613 271.83322 99.508984 271.976681 99.773703 L 271.993715 99.805344 Z" style="fill:#133d64;"/>
		<path d="M 263.235764 99.941794 C 263.374776 100.286513 262.925336 100.789885 262.238683 101.061661 C 261.550053 101.333707 260.880388 101.275279 260.745242 100.927863 C 260.606231 100.583143 261.05567 100.079771 261.742323 99.807996 C 262.430953 99.53595 263.100618 99.594377 263.235764 99.941794 Z" style="fill:#133d64;"/>
		<path d="M 210.183655 101.401122 C 221.639859 107.414618 233.190444 112.929236 244.507321 119.118013 C 244.898333 119.329249 245.370244 119.324755 245.752268 119.100035 C 248.543284 117.473065 251.545538 116.192164 254.282622 114.641599 C 258.714092 112.133729 263.554551 109.819117 268.012987 107.423607 Q 273.559066 104.439331 279.648966 101.432583 Q 280.408518 101.059549 280.404024 101.904494 L 280.39953 102.605619 C 280.39953 103.108991 280.116383 103.571913 279.662449 103.796633 C 271.851197 107.729225 264.030957 111.648334 256.318581 115.742725 Q 250.768008 118.686551 245.055637 121.171949 Q 244.875861 121.248354 244.70058 121.162961 Q 229.163469 113.288787 214.462316 105.796637 Q 212.466806 104.785399 210.462307 103.882026 C 210.201633 103.765172 210.021857 103.522475 209.990396 103.239328 L 209.81961 101.648314 Q 209.770171 101.185392 210.183655 101.401122 Z" style="fill:#ffffff;"/>
		<path d="M 259.243981 102.097393 C 259.383756 102.41236 258.601732 103.068542 257.498539 103.55834 C 256.394986 104.048319 255.383748 104.192139 255.244871 103.877891 C 255.105096 103.562925 255.88712 102.906743 256.990313 102.416945 C 258.093866 101.926966 259.105104 101.783146 259.243981 102.097393 Z" style="fill:#133d64;"/>
		<path d="M 263.717922 103.840723 C 263.936574 104.187645 263.446686 104.897759 262.614999 105.424322 C 261.783761 105.949446 260.934321 106.097761 260.712523 105.748053 C 260.493871 105.401131 260.983759 104.691017 261.815447 104.164454 C 262.646684 103.639329 263.496124 103.491014 263.717922 103.840723 Z" style="fill:#133d64;"/>
		<path d="M 258.946497 106.962842 C 259.024205 107.378663 258.390496 107.850574 257.523258 108.016731 C 256.655661 108.183159 255.891614 107.976417 255.812019 107.560775 C 255.73431 107.144954 256.36802 106.673043 257.235257 106.506886 C 258.102855 106.340458 258.866901 106.5472 258.946497 106.962842 Z" style="fill:#133d64;"/>
	</g>
	<g id="surface4">
	</g>
</svg>
