<?xml version="1.0" encoding="utf-8"?>
<svg xmlns="http://www.w3.org/2000/svg" width="490pt" height="280pt" viewBox="0 0 490 280" version="1.1" xmlns:xlink="http://www.w3.org/1999/xlink">
	<g id="surface2">
		<path d="M 271.343218 13.733738 Q 257.842698 8.474763 244.407729 8.587987 Q 228.669538 8.722069 214.450936 15.53937 C 209.141308 18.086919 203.691639 21.465773 199.061357 25.369035 Q 185.408878 36.87919 178.555822 53.177544 Q 177.563619 55.537379 176.410517 59.625376 Q 171.008522 78.75434 176.31815 97.054979 Q 179.649331 108.538317 186.418959 118.9639 Q 186.734795 119.449574 186.207408 119.687941 L 184.661001 120.388144 Q 184.139573 120.623532 183.832675 120.140838 C 179.890678 113.946272 176.39562 106.804196 174.262233 99.697875 C 172.373174 93.402002 171.142603 87.147844 171.014481 80.503359 Q 170.662889 62.342761 178.847822 46.267876 Q 180.465739 43.091634 183.707532 38.348127 C 192.369199 25.675933 205.533025 15.786676 219.718851 10.53068 C 229.518721 6.90154 240.379324 5.277663 250.953887 6.222193 Q 266.462651 7.607702 279.671171 14.88088 Q 291.249856 21.257202 299.959196 30.547562 C 303.668785 34.504457 307.271108 39.280739 310.054045 44.182163 Q 318.131712 58.409703 318.855752 74.934507 Q 319.228201 83.414418 317.771182 90.95278 C 316.537632 97.349958 314.681347 103.568362 311.949064 109.432194 C 310.179188 113.23117 308.361638 116.973535 305.888579 120.364307 C 305.754497 120.546062 305.510171 120.605654 305.307559 120.504348 L 303.621111 119.646226 Q 303.272499 119.470431 303.48107 119.139696 Q 307.077435 113.383129 309.338943 108.460847 Q 311.207146 104.399667 313.000859 98.875508 C 317.151427 86.08711 317.225917 72.395896 313.611675 59.366151 Q 312.679063 56.005175 311.368044 52.933218 Q 303.242703 33.857886 286.193492 21.930589 C 281.673455 18.769245 276.5575 15.762839 271.343218 13.733738 Z" style="fill:#374833;"/>
		<path d="M 226.69407 59.875661 Q 226.509335 59.991865 226.369294 59.985906 Q 226.124968 59.976967 226.229254 59.753498 C 232.662187 46.232121 238.359163 34.465722 244.780178 22.028916 C 244.821892 21.951446 244.932137 21.954426 244.970872 22.031895 L 263.691632 59.845865 Q 263.915102 60.295783 263.483061 60.042518 Q 262.079674 59.22909 260.673308 58.195173 Q 253.003845 52.539912 245.2003 46.306611 C 245.015565 46.157631 244.756341 46.145713 244.556709 46.270856 Q 244.246831 46.467509 243.957811 46.696937 C 241.374507 48.740935 238.794183 50.829628 236.160226 52.822973 Q 232.653249 55.480767 229.372721 58.040234 Q 228.380517 58.814927 226.69407 59.875661 Z" style="fill:#374833;"/>
		<path d="M 294.768751 54.259135 C 295.760954 55.933664 296.407525 58.528887 295.004138 60.075294 Q 294.661486 60.450722 294.315853 60.078273 C 293.633527 59.333376 293.356425 57.643949 293.290874 56.660684 Q 293.132956 54.205502 292.924385 51.795015 Q 292.864793 51.10375 293.225323 51.693709 Q 293.949364 52.879585 294.768751 54.259135 Z" style="fill:#374833;"/>
		<path d="M 196.880297 56.62195 C 196.799848 57.819744 196.561481 59.08905 195.91789 60.108069 C 195.807645 60.283865 195.55736 60.301743 195.420298 60.143824 C 193.090259 57.372806 195.494788 54.071421 197.00544 51.669872 Q 197.324256 51.163342 197.267644 51.762239 Q 197.035236 54.232319 196.880297 56.62195 Z" style="fill:#374833;"/>
		<path d="M 269.230689 68.099328 C 269.102567 68.135083 269.013179 68.257246 269.019138 68.394308 L 269.144281 71.594387 C 269.147261 71.674836 269.072771 71.731448 268.995302 71.710591 L 246.019687 65.146555 C 245.572749 65.018433 245.096014 65.018433 244.646096 65.143575 L 221.280156 71.671856 C 221.110319 71.719529 220.946442 71.585448 220.95538 71.409652 L 221.131176 68.513491 C 221.140115 68.337695 221.023911 68.179777 220.854074 68.138063 Q 217.597383 67.351451 214.415181 66.290717 Q 214.340692 66.266881 214.397304 66.192391 C 214.409222 66.177493 214.42412 66.168554 214.441998 66.162595 Q 225.207255 62.709251 235.808634 59.404886 Q 240.373365 57.980642 244.672913 56.845419 C 245.0543 56.744113 245.584667 56.806684 245.963075 56.919908 Q 260.312778 61.213497 275.189868 66.266881 Q 275.374603 66.329452 275.186889 66.383085 L 269.230689 68.099328 Z" style="fill:#374833;"/>
		<path d="M 299.077237 58.698723 C 298.716707 61.517415 297.915197 63.469046 295.495771 65.280637 Q 295.248465 65.468351 295.245485 65.158473 Q 295.230587 62.888026 296.395607 61.33864 Q 297.456341 59.926314 298.904421 58.609336 Q 299.112992 58.421622 299.077237 58.698723 Z" style="fill:#374833;"/>
		<path d="M 192.801239 59.875661 Q 195.26536 61.821333 195.196829 65.420677 C 195.196829 65.498147 195.101482 65.536881 195.04785 65.483249 Q 194.118218 64.556596 193.245198 63.51374 C 192.154668 62.211659 191.725607 60.555008 191.528955 58.925172 Q 191.496179 58.665948 191.692832 58.838764 C 192.074219 59.172478 192.401974 59.562804 192.801239 59.875661 Z" style="fill:#374833;"/>
		<path d="M 200.962335 59.214192 Q 201.167927 59.065213 201.138131 59.318478 Q 201.048743 60.072314 200.866988 60.698028 C 200.223397 62.917822 199.377193 65.063127 198.799153 67.35741 Q 198.200255 69.723205 197.142501 71.969815 C 197.124624 72.00557 197.07695 72.011529 197.053113 71.981733 Q 196.981603 71.895325 196.972665 71.779121 Q 196.78793 69.458021 196.632991 67.253125 C 196.409522 64.035168 198.411806 61.055579 200.962335 59.214192 Z" style="fill:#374833;"/>
		<path d="M 293.17765 71.811897 Q 293.10614 72.139652 293.016752 71.814876 C 292.30761 69.255409 291.562712 66.776391 290.618183 64.288433 Q 289.724306 61.943496 289.053898 59.586641 Q 288.919817 59.121825 289.295245 59.425743 Q 290.034183 60.018682 290.725448 60.61162 C 294.378425 63.737209 294.157935 67.422961 293.17765 71.811897 Z" style="fill:#374833;"/>
		<path d="M 192.655239 69.434184 C 191.287608 67.908635 190.584425 65.891452 190.772139 63.850434 Q 190.810873 63.436271 191.016465 63.799781 C 192.133811 65.76333 194.210585 66.859819 194.961442 69.091532 Q 195.462013 70.584306 195.807645 72.58361 Q 195.888094 73.039488 195.578217 72.693855 Q 194.040748 70.977612 192.655239 69.434184 Z" style="fill:#374833;"/>
		<path d="M 299.574829 63.924923 C 299.553972 66.302636 298.949115 67.947369 297.435483 69.690429 Q 296.055933 71.275571 294.718098 72.580631 Q 294.104302 73.176549 294.40822 72.378019 C 295.093526 70.563449 295.567281 68.415165 296.875321 66.886635 Q 297.888381 65.703738 298.868666 64.520841 C 299.0534 64.300352 299.12789 64.029209 299.291768 63.823617 Q 299.580788 63.469046 299.574829 63.924923 Z" style="fill:#374833;"/>
		<path d="M 237.94202 112.995783 C 234.765778 109.295133 231.127699 106.077176 228.103416 102.254363 Q 223.42546 96.330939 222.013135 89.039883 C 221.086482 84.248703 221.003054 79.296626 221.023911 74.374344 C 221.023911 74.311772 221.065625 74.25814 221.125217 74.243242 Q 227.364477 72.723651 234.357574 70.715408 C 237.891367 69.702347 241.508589 68.802511 245.075157 67.801369 Q 245.459524 67.694104 245.837932 67.804349 Q 256.638944 70.998469 268.843343 74.293895 C 268.959547 74.32667 269.039996 74.430956 269.039996 74.550139 Q 269.00722 77.914096 268.902934 80.735767 C 268.619873 88.33372 266.730814 95.943592 261.942613 102.042812 C 259.019636 105.761339 255.661639 108.788602 252.574784 112.313457 Q 250.795969 114.342557 249.622011 116.484882 Q 247.3754 120.575858 245.85581 125.197202 Q 245.641279 125.843773 245.262871 126.457568 C 245.19732 126.561854 245.048341 126.570792 244.970872 126.472466 Q 244.649076 126.061283 244.47626 125.584548 C 242.861322 121.07345 241.097405 116.669617 237.94202 112.995783 Z M 260.801431 78.888422 C 260.88188 79.022503 260.923594 79.177442 260.923594 79.332381 L 260.899757 88.578047 C 260.899757 88.712128 260.989145 88.831312 261.117267 88.870047 Q 262.556409 89.308046 264.022367 89.549393 C 264.120693 89.564291 264.207101 89.49576 264.213061 89.397434 Q 264.528897 83.438255 264.481224 76.707362 C 264.478244 76.564342 264.379918 76.439199 264.239877 76.403444 Q 255.459027 74.201528 246.65434 71.969815 C 246.183565 71.850631 245.322463 71.710591 244.967892 71.794019 C 239.148754 73.155692 232.331453 75.05369 226.002805 76.501771 C 225.89554 76.528587 225.82105 76.623934 225.82105 76.731199 L 225.96705 89.334863 C 225.970029 89.474903 226.098152 89.576209 226.235213 89.546413 L 229.065823 88.896863 C 229.185007 88.870047 229.268435 88.765761 229.268435 88.643598 Q 229.250557 84.731397 229.250557 80.521237 Q 229.253537 79.469442 229.44721 79.028462 C 229.932883 77.923035 231.205168 77.467158 232.286759 78.140545 C 232.608555 78.340177 232.808187 78.760299 232.811167 79.126789 Q 232.849902 83.435275 232.823085 87.928496 Q 232.820106 88.175802 233.064432 88.131108 L 235.680512 87.666292 Q 235.874185 87.633517 235.877165 87.436864 Q 235.933777 83.286296 235.892062 79.415809 Q 235.874185 77.890259 236.19896 77.190056 Q 236.917041 75.63471 238.654142 76.07271 C 239.32157 76.242546 239.774468 76.763974 239.765529 77.455239 Q 239.688059 82.270256 239.75957 86.861803 C 239.762549 86.989926 239.878753 87.082293 240.003896 87.055477 Q 242.453119 86.528089 244.83679 86.248008 Q 245.34332 86.188416 245.840912 86.265885 Q 248.269277 86.647273 250.763194 87.064415 C 250.879398 87.082293 250.986663 86.992905 250.986663 86.873722 Q 250.986663 82.177889 250.983683 77.38075 Q 250.983683 76.886138 251.335275 76.516669 Q 252.345356 75.455935 253.677232 76.337893 C 254.63964 76.972546 254.723068 77.961769 254.720088 78.992707 Q 254.702211 83.187969 254.660497 87.32364 Q 254.657517 87.666292 254.994211 87.722905 L 257.148454 88.077476 C 257.312331 88.104292 257.458331 87.979149 257.458331 87.815272 C 257.449392 85.181315 257.461311 82.53246 257.416617 79.835931 C 257.380862 77.675729 259.693023 77.01724 260.801431 78.888422 Z" style="fill:#374833;"/>
		<path d="M 200.277029 75.712179 Q 199.368254 77.899198 198.608459 81.680297 Q 198.557806 81.930583 198.444582 81.704134 Q 197.87548 80.595727 197.535807 79.174462 Q 196.400583 74.445854 199.758581 71.230877 Q 201.120253 69.928796 202.335926 68.722062 Q 202.499803 68.561165 202.44915 68.784634 Q 201.594008 72.544876 200.277029 75.712179 Z" style="fill:#374833;"/>
		<path d="M 291.619325 81.695195 C 291.181325 79.135728 290.683734 76.692464 289.602143 74.314752 Q 288.383491 71.630142 287.763736 68.879981 Q 287.701165 68.59692 287.909736 68.796552 Q 289.54553 70.357857 291.094917 71.948958 C 293.740792 74.666343 293.183609 78.501075 291.786182 81.713073 Q 291.669978 81.984215 291.619325 81.695195 Z" style="fill:#374833;"/>
		<path d="M 192.527117 72.37206 C 193.8143 73.426834 195.026993 74.562058 195.542462 76.176995 Q 195.9894 77.571443 196.010257 79.088054 C 196.010257 79.168503 195.911931 79.210217 195.855318 79.153605 Q 194.532381 77.848545 193.093239 76.603077 C 191.007526 74.803405 190.360955 72.771325 189.982548 70.125449 Q 189.89018 69.472919 190.277527 70.006266 Q 191.210138 71.290469 192.527117 72.37206 Z" style="fill:#374833;"/>
		<path d="M 300.266093 69.997327 Q 299.908543 71.71655 299.497359 73.125896 C 298.880584 75.244384 297.223933 76.734179 295.296138 78.057116 C 294.801526 78.39679 294.440996 78.837769 294.035772 79.272789 Q 293.600752 79.740584 293.803364 79.135728 Q 294.175812 78.0303 294.426098 76.924872 Q 294.658506 75.917771 295.179934 75.187772 C 296.288341 73.635406 297.685769 72.327366 299.05936 71.06104 Q 299.622502 70.539612 300.0754 69.806633 Q 300.257155 69.514633 300.278012 69.857286 Q 300.280991 69.928796 300.266093 69.997327 Z" style="fill:#374833;"/>
		<path d="M 200.104213 85.50311 C 199.32952 82.994296 200.27405 80.28287 201.966457 78.31932 Q 202.863313 77.282423 203.870414 76.406424 Q 203.968741 76.322995 203.944904 76.448138 Q 203.107639 80.920502 201.999232 85.884498 Q 201.695314 87.24915 201.891967 88.649557 Q 201.930701 88.91772 201.769804 88.69723 Q 200.592866 87.085272 200.104213 85.50311 Z" style="fill:#374833;"/>
		<path d="M 289.968632 85.72062 C 289.718347 86.799232 289.098592 87.776537 288.431164 88.640618 Q 288.195776 88.947516 288.234511 88.563149 Q 288.419246 86.769436 287.960389 84.677764 Q 287.120145 80.846012 286.244145 76.534546 Q 286.178594 76.21275 286.387166 76.466016 C 287.287002 77.577402 288.437123 78.524912 289.134347 79.710788 Q 290.728427 82.416256 289.968632 85.72062 Z" style="fill:#374833;"/>
		<path d="M 296.30026 83.325031 C 295.305077 83.876255 293.675241 84.221887 292.581732 85.118743 Q 292.167569 85.458417 291.771284 85.804049 Q 291.488223 86.051355 291.634223 85.705723 Q 292.334426 84.046091 293.225323 82.425195 C 294.738955 79.678013 297.915197 79.12083 300.283971 77.517811 C 300.319726 77.493974 300.367399 77.52377 300.358461 77.565484 Q 299.655278 81.465767 296.30026 83.325031 Z" style="fill:#374833;"/>
		<path d="M 197.833766 85.29156 Q 196.037073 84.192091 194.070544 83.286296 C 191.588546 82.145113 190.396711 80.28287 189.663732 77.780014 C 189.636915 77.684668 189.735242 77.604219 189.82165 77.648913 Q 191.469363 78.483198 193.102178 79.234054 Q 196.35291 80.729808 197.640093 84.072907 Q 197.854623 84.630091 198.015521 85.151519 Q 198.110868 85.461396 197.833766 85.29156 Z" style="fill:#374833;"/>
		<path d="M 205.911433 93.241104 Q 205.893555 93.533104 205.747556 93.279839 C 205.05927 92.079064 204.019394 90.678657 203.745271 89.388495 Q 203.235762 86.992905 204.183271 84.889315 Q 205.187393 82.666541 206.525228 80.455686 Q 206.766575 80.056421 206.7338 80.521237 L 205.911433 93.241104 Z" style="fill:#374833;"/>
		<path d="M 284.128637 93.387104 Q 283.628066 88.861108 283.550596 86.176498 Q 283.470147 83.39952 283.362882 80.470584 Q 283.353943 80.193482 283.491005 80.434829 C 284.229943 81.722011 285.04933 82.994296 285.675044 84.302336 C 286.554023 86.140743 286.953288 88.9207 285.809125 90.782943 Q 284.983779 92.123758 284.304432 93.41988 Q 284.161412 93.691022 284.128637 93.387104 Z" style="fill:#374833;"/>
		<path d="M 211.262776 99.757467 Q 211.277674 100.195466 211.033347 99.831956 Q 210.136491 98.503059 209.278369 97.284407 C 207.571064 94.859021 207.565105 91.232861 208.888043 88.718088 Q 209.898124 86.799232 211.066123 85.044254 Q 211.286612 84.71054 211.23298 85.106825 C 210.946939 87.183599 211.164449 89.299107 211.152531 91.393759 Q 211.128694 95.696286 211.262776 99.757467 Z" style="fill:#374833;"/>
		<path d="M 282.117414 92.418738 Q 282.403454 95.502613 280.362436 98.267672 Q 279.447702 99.504201 278.667049 100.67518 Q 278.30056 101.229384 278.503172 100.597711 C 278.914355 99.304569 278.87562 98.190202 278.893498 96.885142 Q 278.976926 90.866372 278.896478 85.386906 Q 278.893498 85.139601 279.0246 85.351151 C 280.365415 87.517313 281.867128 89.71625 282.117414 92.418738 Z" style="fill:#374833;"/>
		<path d="M 202.049885 94.677266 C 197.532827 93.157676 194.299973 89.650699 192.011648 85.607396 Q 191.812016 85.249845 192.163607 85.458417 C 193.057484 85.985804 194.019891 86.408906 194.991238 86.769436 Q 198.259847 87.985108 200.819315 90.237678 Q 203.795924 92.859717 206.07531 95.860164 Q 206.245147 96.080653 205.979964 95.994245 Q 203.921067 95.30596 202.049885 94.677266 Z" style="fill:#374833;"/>
		<path d="M 295.996342 86.316538 Q 296.765076 85.985804 297.587442 85.419682 C 297.682789 85.354131 297.804952 85.458417 297.75132 85.562702 Q 295.182914 90.607147 290.534754 93.553961 Q 289.009204 94.519348 286.408023 95.252327 C 285.445615 95.52347 284.667942 95.881021 283.777045 96.295184 Q 283.398637 96.470979 283.67276 96.155143 C 285.672064 93.8549 287.549205 91.575514 290.016306 89.600046 C 291.87259 88.113231 293.854017 87.243191 295.996342 86.316538 Z" style="fill:#374833;"/>
		<path d="M 214.549263 102.894974 Q 214.558202 103.261464 214.343671 102.963505 C 212.618489 100.591752 212.460571 97.004326 213.199509 94.355471 Q 213.717957 92.490248 214.582038 90.484984 Q 214.796569 89.981433 214.829344 90.529678 Q 214.957467 92.728615 215.082609 94.915634 C 215.130283 95.726082 215.082609 96.694449 214.945548 97.492979 Q 214.489671 100.186527 214.549263 102.894974 Z" style="fill:#374833;"/>
		<path d="M 275.449093 103.166117 C 275.422276 102.096444 275.493786 101.053588 275.401419 99.966038 C 275.201787 97.656856 274.954481 95.481756 275.166032 93.229186 Q 275.276276 92.055228 275.243501 90.869351 Q 275.222644 90.127433 275.520603 90.80678 Q 275.997337 91.903269 276.453214 93.002737 Q 277.841703 96.360735 277.198112 99.969017 C 276.983581 101.166812 276.277418 102.209669 275.654684 103.222729 Q 275.458031 103.544525 275.449093 103.166117 Z" style="fill:#374833;"/>
		<path d="M 195.676543 94.468695 Q 200.27405 96.959632 205.902494 98.768243 C 207.916697 99.417793 209.332002 100.624527 211.006531 101.810404 Q 211.173388 101.926608 210.970776 101.91171 Q 208.414288 101.697179 206.084249 101.500526 C 201.185804 101.083384 197.360011 98.6431 194.904829 94.346532 Q 194.460871 93.571839 195.161074 94.129022 Q 195.402421 94.322695 195.676543 94.468695 Z" style="fill:#374833;"/>
		<path d="M 287.727981 97.427428 Q 290.430468 96.333918 293.365364 94.921593 Q 294.116221 94.561062 294.697241 94.114124 Q 294.986261 93.890655 294.822383 94.21543 Q 291.5061 100.722854 283.964759 101.506486 Q 281.524475 101.76273 279.254028 101.91171 Q 279.105049 101.923628 279.218273 101.822322 Q 280.943456 100.269956 283.210923 99.301589 Q 285.234064 98.437508 287.727981 97.427428 Z" style="fill:#374833;"/>
		<path d="M 217.10873 105.779217 C 216.003303 103.374688 216.366813 100.222283 217.391791 97.868407 Q 217.904281 96.691469 218.881586 94.856042 Q 219.021627 94.593838 219.078239 94.885838 Q 219.122933 95.112287 219.066321 95.338735 C 219.039504 95.434082 219.030566 95.535388 219.039504 95.636694 C 219.176565 97.248652 219.352361 98.851671 219.346402 100.505344 Q 219.328524 104.054035 219.540075 106.968073 Q 219.65032 108.490643 220.082361 109.995336 Q 220.15685 110.248601 219.948279 110.084724 Q 219.733749 109.914887 219.668198 109.649704 C 219.635422 109.524561 219.57583 109.408357 219.489422 109.31003 Q 217.919179 107.537175 217.10873 105.779217 Z" style="fill:#374833;"/>
		<path d="M 272.028524 96.655714 C 273.759665 100.001793 274.2364 104.137463 272.088116 107.27795 Q 270.961831 108.928643 269.817668 110.25456 Q 269.80575 110.266479 269.790852 110.25754 L 269.725301 110.212846 Q 269.618036 110.141336 269.680607 110.028112 Q 270.374852 108.80648 270.398688 107.376277 Q 270.449341 104.542687 270.541709 101.145955 C 270.6013 99.027467 271.063137 97.028163 270.994606 94.981185 Q 270.982688 94.656409 271.155504 94.930532 C 271.507096 95.484735 271.730565 96.083633 272.028524 96.655714 Z" style="fill:#374833;"/>
		<path d="M 224.5875 104.274524 Q 227.248273 107.415012 230.805903 110.662764 C 233.040595 112.700803 235.075655 114.774598 236.902143 117.214881 C 236.940878 117.268514 236.902143 117.343004 236.836592 117.343004 Q 236.619082 117.337045 236.410511 117.262555 C 229.751129 114.866965 222.4124 112.089987 221.455951 103.988484 Q 221.181829 101.679302 221.360605 99.778324 Q 221.39338 99.429712 221.548319 99.742569 Q 222.728236 102.075587 224.5875 104.274524 Z" style="fill:#374833;"/>
		<path d="M 253.274988 117.229779 Q 252.962131 117.322147 253.143886 117.053984 C 254.031803 115.742964 255.003149 114.494516 256.197965 113.359293 Q 257.875474 111.771171 259.704942 110.138356 C 262.988449 107.20942 266.027631 103.991463 268.309996 100.16567 Q 268.631792 99.620405 268.590078 100.252078 C 268.476853 101.83722 268.596037 103.43428 268.35767 104.965789 C 267.660446 109.488806 264.513999 112.58162 260.423023 114.512394 Q 256.981597 116.13925 253.274988 117.229779 Z" style="fill:#374833;"/>
		<path d="M 201.43013 103.845463 Q 201.164947 103.624974 201.498661 103.708402 C 204.648087 104.489055 207.916697 104.122565 211.027388 104.927054 Q 213.980161 105.68685 216.542608 107.832154 Q 217.677832 108.782643 218.78028 109.634806 Q 219.07228 109.861255 218.723668 109.736112 Q 218.106893 109.512643 217.519914 109.414316 Q 214.295998 108.872031 210.86649 108.261215 Q 205.649229 107.331583 201.43013 103.845463 Z" style="fill:#374833;"/>
		<path d="M 287.757777 103.905055 Q 287.924634 103.87228 288.09447 103.854402 Q 288.60398 103.80077 288.222593 104.146402 C 285.69888 106.431747 282.692475 107.64444 279.262967 108.264195 Q 276.158235 108.827337 273.163747 109.324928 Q 272.138769 109.497745 271.054198 109.82252 Q 270.717504 109.923826 270.997586 109.706316 Q 272.314564 108.690276 273.732849 107.638481 C 276.92101 105.272687 280.144926 104.30432 284.110759 104.277504 Q 285.907452 104.262606 287.757777 103.905055 Z" style="fill:#374833;"/>
		<path d="M 227.713089 121.398225 C 223.818766 120.733777 219.909544 119.238023 216.599221 117.056963 C 213.944406 115.313903 211.265755 113.23415 208.33086 111.741375 Q 207.687268 111.413621 208.393431 111.568559 Q 210.437429 112.021457 212.624448 112.14064 C 216.045017 112.322395 219.346402 113.08517 222.197869 114.327659 Q 228.910884 117.247657 235.614961 120.251083 C 237.423571 121.061531 239.944304 122.470877 240.77263 123.945774 Q 240.939487 124.243733 240.617691 124.124549 Q 237.489122 122.95655 234.741941 122.536428 Q 231.258801 122.000102 227.713089 121.398225 Z" style="fill:#374833;"/>
		<path d="M 280.40415 111.753294 Q 280.669333 111.714559 280.931537 111.628151 Q 281.518516 111.431498 281.006027 111.777131 Q 276.727336 114.670312 272.457585 117.494963 C 269.245587 119.62239 265.753508 120.790389 261.486736 121.466756 C 257.017352 122.175898 253.25413 122.762877 249.213807 124.142427 Q 249.106542 124.178182 248.993317 124.136468 C 248.927766 124.112631 248.906909 124.029203 248.951603 123.97557 C 250.778092 121.857082 253.379273 120.587777 255.947679 119.538961 Q 261.439063 117.292351 265.830978 115.322842 C 269.016159 113.892639 272.105993 112.676967 275.60999 112.334314 Q 278.187335 112.081049 280.40415 111.753294 Z" style="fill:#374833;"/>
		<path d="M 276.813745 140.953271 Q 277.880438 140.434822 279.102069 139.743558 Q 280.279007 139.076129 281.298027 138.34911 Q 284.209086 136.272336 287.158879 133.936338 Q 291.258794 130.688585 295.385526 126.043405 Q 297.921156 123.188958 299.041482 121.466756 Q 299.214298 121.204552 299.500339 121.335654 L 301.386419 122.199735 Q 301.702256 122.342755 301.463888 122.59602 C 298.916339 125.307446 296.383688 128.209567 293.567976 130.664748 Q 285.973003 137.300294 276.894193 141.132046 C 276.84652 141.152903 276.789908 141.129067 276.766071 141.081393 C 276.745214 141.03372 276.766071 140.977108 276.813745 140.953271 Z" style="fill:#374833;"/>
		<path d="M 213.756692 141.340617 Q 212.567836 140.914536 211.182327 140.267965 Q 201.918783 135.959479 194.24932 128.638627 Q 191.379975 125.897405 188.424222 122.512592 Q 188.212671 122.268265 188.507651 122.140143 L 190.265609 121.371409 Q 190.557608 121.246266 190.745323 121.499531 Q 194.803523 126.910466 199.785397 131.344095 Q 204.251802 135.321847 209.901103 139.085068 C 211.134653 139.907435 212.451632 140.604659 213.765631 141.32274 C 213.77159 141.32572 213.77159 141.331679 213.76861 141.334658 C 213.76861 141.340617 213.762651 141.343597 213.756692 141.340617 Z" style="fill:#374833;"/>
		<path d="M 304.652049 123.993447 Q 302.894091 125.903364 301.112297 127.863934 C 291.845773 138.066049 280.442885 145.860655 267.356527 150.327059 Q 265.935263 150.812732 262.779878 151.652977 C 252.53009 154.373342 241.735037 154.671301 231.369046 152.666037 Q 228.112354 152.034364 223.562521 150.639916 Q 215.064732 148.032775 207.901799 143.596167 Q 200.080376 138.748375 193.793443 133.096093 Q 192.777403 132.181359 190.119609 129.49377 C 188.391447 127.744751 186.889734 125.831854 185.140715 124.142427 C 185.000674 124.008345 185.042388 123.775937 185.221164 123.695489 L 186.329571 123.206836 C 186.514305 123.126387 186.728836 123.17704 186.856958 123.334958 Q 193.269035 131.287483 201.674457 137.443314 Q 204.451434 139.475394 207.547228 141.200577 Q 217.198118 146.575756 228.174926 149.331877 C 238.856754 152.010527 250.447357 151.912201 260.983186 149.543427 Q 267.064528 148.175796 275.258399 144.764166 Q 276.474071 144.257636 280.749782 142.064658 Q 285.445615 139.65417 290.260632 135.884989 Q 294.148996 132.839849 296.303239 130.703483 Q 298.385972 128.635648 300.972256 125.659038 Q 302.089602 124.371855 302.849397 123.10553 C 302.935806 122.95953 303.12054 122.908877 303.272499 122.983367 L 304.586498 123.632917 Q 304.857641 123.769978 304.652049 123.993447 Z" style="fill:#374833;"/>
		<path d="M 236.586307 128.433036 Q 233.785493 129.437157 230.636067 130.834585 Q 228.058722 131.978747 224.703704 132.690869 C 220.118116 133.662215 215.541466 132.553808 211.003551 131.150421 Q 210.550654 131.010381 211.009511 130.897156 Q 212.460571 130.533646 213.923549 129.875157 Q 217.215996 128.394301 220.386279 126.925364 C 224.405745 125.0661 229.006231 124.219896 233.58884 124.98863 Q 238.576673 125.825895 242.849404 128.11124 C 242.977526 128.179771 242.998383 128.355566 242.888139 128.450913 Q 242.193894 129.064709 241.440058 129.589117 C 236.77998 132.842828 232.388065 135.113275 226.893702 135.229479 Q 226.497417 135.235439 226.828151 135.017929 L 236.639939 128.540301 C 236.666756 128.522424 236.675694 128.489648 236.660797 128.462832 C 236.645899 128.436015 236.616103 128.424097 236.586307 128.433036 Z" style="fill:#374833;"/>
		<path d="M 252.688008 128.385362 C 254.085436 129.294137 255.426251 130.331034 256.859434 131.23683 Q 259.895635 133.155685 262.848409 135.062622 Q 263.054 135.196704 262.809674 135.202663 C 257.142495 135.342704 252.360254 132.911359 248.072624 129.186872 Q 247.655482 128.823362 247.315809 128.433036 Q 247.104258 128.18275 247.387319 128.018873 Q 250.083847 126.451609 253.575926 125.516018 C 257.786086 124.383774 261.728083 124.499978 265.726692 125.706711 Q 268.441098 126.523119 271.215096 127.265037 Q 275.317991 128.367485 279.498355 128.537321 Q 279.957211 128.555199 279.578804 128.811444 Q 277.433499 130.271443 275.091542 131.373891 Q 268.938689 134.273031 262.297185 132.053237 C 259.079228 130.974626 255.977475 129.440137 252.723763 128.310873 Q 252.393029 128.194669 252.688008 128.385362 Z" style="fill:#374833;"/>
		<path d="M 245.307565 129.934749 C 245.4923 129.919851 245.656177 130.056912 245.674055 130.241647 L 245.691932 130.482993 C 245.736626 130.977605 245.459524 131.406666 245.075157 131.439442 L 244.98577 131.445401 C 244.601403 131.478176 244.25875 131.105728 244.214056 130.608136 L 244.193199 130.369769 C 244.178301 130.185034 244.315362 130.021157 244.500096 130.006259 L 245.307565 129.934749 Z" style="fill:#374833;"/>
	</g>
	<g id="surface4">
	</g>
</svg>
