<?xml version="1.0" encoding="utf-8"?>
<svg xmlns="http://www.w3.org/2000/svg" width="490pt" height="280pt" viewBox="0 0 490 280" version="1.1" xmlns:xlink="http://www.w3.org/1999/xlink">
	<g id="surface2">
		<path d="M 242.77666 31.299225 C 240.220384 29.63177 237.410685 28.353632 234.839718 26.686176 C 234.47611 26.451117 234.255741 26.047108 234.255741 25.613716 Q 234.26676 20.490146 234.248395 15.025006 Q 234.244723 13.871743 235.203326 13.276748 Q 239.838412 10.404611 244.513899 7.503091 C 244.848124 7.293741 245.27417 7.293741 245.612069 7.499418 L 255.267886 13.442025 C 255.79677 13.765232 256.116305 14.341863 256.116305 14.958895 L 256.108959 25.624734 C 256.108959 26.109545 255.851862 26.557628 255.433162 26.800034 Q 250.739311 29.532604 246.313575 32.15499 C 245.340281 32.731621 243.724245 31.91993 242.77666 31.299225 Z" style="fill:#0cb7cd;"/>
		<path d="M 246.727317 52.929283 C 246.728603 53.207535 246.504562 53.431577 246.225024 53.43334 L 244.065412 53.437123 C 243.786682 53.438922 243.562641 53.211208 243.561355 52.934829 L 243.527198 33.35879 C 243.525913 33.080538 243.749954 32.856497 244.029492 32.854734 L 246.189104 32.850951 C 246.467833 32.849151 246.691875 33.076865 246.69316 33.353244 L 246.727317 52.929283 Z" style="fill:#1e283a;"/>
		<path d="M 222.668026 89.2782 Q 221.253995 89.93196 219.873018 90.673868 Q 212.340085 94.728649 205.699645 98.14069 Q 204.289287 98.86056 203.003803 99.723671 C 202.864236 99.815491 202.676923 99.719998 202.67325 99.551049 L 202.610812 96.344686 C 202.60714 96.208792 202.684269 96.087589 202.805471 96.025151 C 209.192487 92.892245 216.001877 89.046813 222.455003 85.620081 Q 222.59457 85.546625 222.616607 85.392367 Q 222.748828 84.463146 222.741483 83.555962 Q 222.693736 76.276453 222.759847 68.692101 Q 222.770865 67.050355 224.217952 66.238664 Q 234.340216 60.560501 242.288176 55.74912 C 243.540604 54.988848 244.580009 53.758457 246.181354 54.783171 Q 248.895561 56.52041 251.551002 58.026262 Q 258.731345 62.099408 266.359771 66.374558 C 267.67831 67.116466 267.549761 68.269728 267.564453 69.885764 Q 267.62689 77.492153 267.513033 85.274837 Q 267.50936 85.447459 267.659946 85.531934 Q 277.323108 91.03013 287.298459 95.812128 Q 287.702468 96.006787 287.702468 96.458543 L 287.702468 99.268242 Q 287.698795 99.723671 287.294786 99.514321 L 267.586489 89.267181 C 267.490996 89.215762 267.377139 89.292891 267.384485 89.399403 C 267.479978 91.026457 265.412186 91.937314 264.137721 92.638821 Q 256.292599 96.965391 247.217087 102.066923 C 246.915916 102.235873 246.732276 102.555407 246.732276 102.900651 Q 246.743294 114.477347 246.688202 126.994283 Q 246.684529 128.356895 246.611073 129.807655 Q 246.603727 129.987623 246.427433 129.95824 Q 244.906889 129.701144 243.764645 129.906821 C 243.669152 129.925185 243.581005 129.851729 243.581005 129.756236 L 243.569987 102.459914 C 243.569987 102.331366 243.503876 102.217509 243.393692 102.155071 Q 234.013336 96.92499 224.195915 91.614107 C 223.325459 91.143987 222.980215 90.420444 222.950833 89.450822 Q 222.939814 89.149651 222.668026 89.2782 Z M 262.147058 68.284419 C 256.744355 65.162531 249.890892 61.434629 245.62676 58.984865 C 245.237442 58.760824 244.759977 58.760824 244.370659 58.981192 C 239.144251 61.934131 234.057409 65.070711 228.684089 68.119143 C 227.986255 68.515806 226.741172 69.09611 226.7375 70.032677 Q 226.693426 78.836402 226.796265 87.94497 Q 226.807283 88.848481 227.60061 89.281873 Q 235.100487 93.347673 242.39836 97.457547 Q 243.687516 98.184763 244.914235 98.625501 Q 245.086857 98.687938 245.263152 98.643865 Q 246.074843 98.445533 246.666165 98.11498 Q 254.819803 93.560696 263.028533 89.050486 C 263.362758 88.866845 263.572108 88.514255 263.568436 88.135956 L 263.483961 69.522156 Q 263.480288 69.342189 263.355413 69.217313 Q 262.808164 68.666392 262.147058 68.284419 Z" style="fill:#1e283a;"/>
		<path d="M 231.097125 79.486489 Q 230.612314 79.22572 230.24136 78.818038 Q 230.12383 78.689489 230.12383 78.516867 L 230.094448 71.424672 C 230.094448 71.248377 230.186268 71.0831 230.340526 70.99128 L 244.223747 62.830297 C 244.675502 62.565855 245.233769 62.558509 245.689198 62.815606 L 259.880935 70.811313 C 260.068248 70.917824 260.185778 71.116156 260.185778 71.332851 L 260.152723 78.542577 C 260.14905 78.733563 260.046211 78.909858 259.880935 79.001678 L 245.821419 86.96433 Q 245.138276 87.353648 244.462479 86.960657 Q 237.866113 83.155626 231.097125 79.486489 Z M 256.362383 72.919505 C 252.667536 70.965571 249.163676 68.787594 245.384355 66.785913 C 245.105221 66.635328 244.770995 66.639001 244.495535 66.793259 Q 238.262777 70.2457 234.200649 72.636699 Q 233.565253 73.011326 232.889456 73.558574 Q 232.305479 74.036039 232.426682 74.777947 C 232.547885 75.519855 233.02535 76.974287 234.046391 76.548241 Q 234.799317 76.228707 235.519188 75.802661 Q 239.232398 73.609994 242.846443 71.542202 C 243.749954 71.028008 244.892198 70.293446 245.935276 70.903133 Q 250.651164 73.672431 255.547019 76.540896 Q 255.94001 76.772283 256.299945 76.493149 L 258.011474 75.170938 C 258.246534 74.99097 258.290608 74.656744 258.11064 74.421684 Q 257.379751 73.459408 256.362383 72.919505 Z M 245.178677 74.66409 C 244.99871 74.564924 244.778341 74.568597 244.602046 74.671436 L 238.402343 78.307517 C 238.013025 78.538904 238.016698 79.100844 238.413362 79.321213 L 244.851797 82.909548 C 245.031765 83.012386 245.255806 83.008714 245.435774 82.902202 L 251.569366 79.229392 C 251.955011 78.998005 251.947666 78.439738 251.554675 78.21937 L 245.178677 74.66409 Z" style="fill:#1e283a;"/>
		<path d="M 260.145377 83.019732 C 260.310653 84.132593 260.244543 85.388694 260.163741 86.552975 C 260.152723 86.692542 260.079266 86.817417 259.965409 86.898219 Q 259.080262 87.511578 258.264898 87.952316 Q 252.329638 91.180715 246.210737 94.662539 Q 245.097875 95.294262 243.860139 94.567046 Q 237.135224 90.596739 230.641696 87.08186 Q 230.12383 86.799053 230.083429 86.211404 Q 229.987936 84.749625 230.090775 83.442105 Q 230.156885 82.645105 230.851046 83.041769 L 244.64612 90.901582 Q 245.101548 91.162351 245.553304 90.901582 Q 251.888901 87.276519 258.206133 83.563308 Q 258.940695 83.129916 259.737695 82.792018 C 259.91399 82.718562 260.115994 82.828746 260.145377 83.019732 Z" style="fill:#1e283a;"/>
		<path d="M 184.544261 108.240916 Q 183.067792 107.44759 181.767617 106.53306 C 181.242405 106.162106 181.003673 105.684641 181.003673 105.049245 Q 181.011018 99.885274 181 94.985746 C 180.996327 93.608442 181.668451 93.10894 182.733566 92.466199 Q 186.45045 90.218439 190.365665 87.790712 C 190.898222 87.460159 191.574019 87.460159 192.106577 87.790712 Q 195.724294 90.038471 199.566053 92.326632 C 200.994776 93.182397 201.982762 93.446839 202.008472 94.923308 Q 202.103965 100.498634 202.118656 105.55242 C 202.118656 106.235562 200.902956 106.966451 200.370399 107.263949 Q 196.264197 109.548437 192.146978 112.082675 C 191.809079 112.292026 191.37936 112.288353 191.041462 112.07533 Q 187.61473 109.893681 184.544261 108.240916 Z" style="fill:#0cb7cd;"/>
		<path d="M 291.614011 108.237244 Q 289.957573 107.366788 288.661072 106.349419 C 288.25339 106.026212 288.099132 105.464272 288.132187 104.957425 Q 288.426012 100.105643 288.378265 94.879235 C 288.37092 93.836157 289.167919 93.141996 289.994302 92.646166 Q 294.159268 90.144983 297.784331 87.787039 C 298.544603 87.294883 299.374658 87.614417 300.0578 88.03679 Q 304.130946 90.530628 308.439152 92.973046 C 309.133313 93.366037 309.416119 94.089581 309.401428 94.846179 Q 309.313281 99.444537 309.283898 104.997825 Q 309.276553 106.246581 307.928631 106.988488 Q 302.988702 109.695349 299.176326 112.148786 C 298.981667 112.273662 298.735589 112.292026 298.526239 112.196533 Q 297.725566 111.84027 296.950603 111.348113 Q 294.159268 109.577819 291.614011 108.237244 Z" style="fill:#0cb7cd;"/>
		<path d="M 246.284193 130.821351 Q 250.944989 133.667778 255.069554 136.055105 C 255.804116 136.48115 256.127323 137.175312 256.119977 138.009039 Q 256.068558 143.231775 256.064885 148.087229 C 256.061212 148.509602 255.973065 148.983395 255.631494 149.266201 Q 254.764711 149.982399 253.971384 150.404772 Q 249.688888 152.685587 245.747963 155.190443 C 245.428428 155.396121 245.017074 155.396121 244.693866 155.197789 Q 239.948596 152.263214 235.309837 149.743666 Q 234.26676 149.178054 234.26676 148.054174 Q 234.263087 143.184028 234.171266 138.295518 Q 234.141884 136.701519 235.486132 135.926556 Q 238.54191 134.170953 243.66548 130.821351 Q 244.928926 129.994968 246.284193 130.821351 Z" style="fill:#0cb7cd;"/>
	</g>
	<g id="surface4">
	</g>
</svg>
