<?xml version="1.0" encoding="utf-8"?>
<svg xmlns="http://www.w3.org/2000/svg" width="490pt" height="280pt" viewBox="0 0 490 280" version="1.1" xmlns:xlink="http://www.w3.org/1999/xlink">
	<g id="surface2">
		<path d="M 246.079356 28.278685 C 246.079356 28.954654 245.530364 29.503646 244.854395 29.503646 L 244.660194 29.503646 C 243.984224 29.503646 243.435232 28.954654 243.435232 28.278685 L 243.435232 8.694239 C 243.435232 8.018269 243.984224 7.469278 244.660194 7.469278 L 244.854395 7.469278 C 245.530364 7.469278 246.079356 8.018269 246.079356 8.694239 L 246.079356 28.278685 Z" style="fill:#0f3a6d;"/>
		<path d="M 243.674249 43.967902 L 243.592087 39.788842 Q 243.565944 38.597492 244.742356 38.418229 Q 244.966434 38.384617 245.186778 38.455575 Q 246.079356 38.746877 246.060683 39.684272 L 245.963583 44.042595 Q 245.959848 44.244266 246.161518 44.251735 C 262.01506 44.97252 275.045215 58.10351 276.710864 73.647077 Q 276.751945 74.024275 276.445704 73.796462 Q 276.303788 73.691892 276.225361 73.516364 C 276.199218 73.452875 276.161872 73.396856 276.113321 73.348306 C 271.979076 69.087083 264.173681 69.191653 260.625774 74.330516 Q 260.46145 74.573267 260.267249 74.352923 C 259.516587 73.50516 258.780863 72.63499 257.858407 71.970224 C 254.72878 69.703298 250.056747 69.367181 246.889773 71.734942 C 246.295965 72.183098 245.761912 72.907618 245.765647 73.684423 Q 245.788055 86.591335 245.799258 99.524389 Q 245.799258 100.364682 244.958965 100.383356 L 244.4884 100.39456 Q 243.752676 100.409498 243.752676 99.673774 Q 243.748942 85.892957 243.793757 73.904767 C 243.801227 72.268995 241.732237 70.999218 240.283197 70.532388 C 236.216175 69.225264 231.813036 70.842363 229.348175 74.326781 C 229.262278 74.450024 229.083015 74.464963 228.974711 74.352923 C 226.285771 71.495925 222.995554 69.89003 219.036837 70.397941 Q 215.014631 70.913321 213.076354 73.830074 C 212.975518 73.979459 212.75144 73.953317 212.687951 73.785258 Q 212.59832 73.538772 212.631931 73.284817 Q 213.423675 67.462515 216.022984 62.327387 Q 221.034869 52.426859 231.062374 47.470993 Q 237.243201 44.412324 243.412824 44.240531 Q 243.677984 44.233062 243.674249 43.967902 Z" style="fill:#0f3a6d;"/>
		<path d="M 239.752878 81.340433 C 239.752878 83.499054 238.001333 85.250599 235.842711 85.250599 C 233.68409 85.250599 231.932545 83.499054 231.932545 81.340433 C 231.932545 79.181811 233.68409 77.430266 235.842711 77.430266 C 238.001333 77.430266 239.752878 79.181811 239.752878 81.340433 Z" style="fill:#0f3a6d;"/>
		<path d="M 253.613803 85.302847 C 251.531929 85.29168 249.855076 83.510258 249.866317 81.324448 C 249.877484 79.136996 251.57301 77.374246 253.655258 77.385487 C 255.737132 77.396654 257.413985 79.178077 257.402744 81.363886 C 257.391577 83.551339 255.696051 85.314088 253.613803 85.302847 Z" style="fill:#0f3a6d;"/>
		<path d="M 196.266259 79.031193 C 196.26301 79.693457 195.725222 80.22751 195.063257 80.225792 L 183.19465 80.184375 C 182.530743 80.182694 181.99669 79.644907 182.000013 78.981373 L 182.00091 78.719949 C 182.004159 78.057685 182.541947 77.523632 183.203912 77.52535 L 195.072519 77.566767 C 195.736426 77.568447 196.270479 78.106235 196.267155 78.769769 L 196.266259 79.031193 Z" style="fill:#0f3a6d;"/>
		<path d="M 307.73391 79.05095 C 307.730773 79.700926 307.200455 80.22751 306.549656 80.226987 L 294.016283 80.183217 C 293.363618 80.182694 292.837034 79.652376 292.840283 78.998963 L 292.841366 78.685254 C 292.844503 78.035277 293.374822 77.508693 294.02562 77.509216 L 306.558993 77.552986 C 307.211658 77.553509 307.738243 78.083828 307.734993 78.73724 L 307.73391 79.05095 Z" style="fill:#0f3a6d;"/>
		<path d="M 236.485069 103.038684 Q 236.036913 103.046153 236.029443 103.498044 Q 235.943547 108.81617 235.96222 115.000732 C 235.969689 117.723283 232.025911 117.230311 232.007237 115.243483 Q 231.910137 104.715537 231.92881 91.853441 Q 231.92881 91.491181 231.56655 91.468773 L 231.316329 91.4501 C 231.10719 91.438896 230.927927 91.606955 230.927927 91.816094 L 230.909254 99.636428 Q 230.905519 100.977163 229.564784 100.917409 L 229.366848 100.906205 C 228.687144 100.876328 228.149356 100.316132 228.145621 99.632693 Q 228.126948 95.494713 228.15309 90.635948 Q 228.175498 86.807944 232.03338 86.729516 Q 234.557996 86.677231 237.131162 86.688435 C 239.719267 86.699639 242.206536 87.274774 241.780787 90.591133 Q 241.691156 91.270837 241.086144 91.621893 Q 240.906882 91.726463 240.847127 91.924399 Q 240.697742 92.417371 240.705211 92.906609 Q 240.809781 103.206743 240.869535 113.626385 Q 240.87327 114.418128 240.71268 115.168791 C 240.219708 117.420778 237.067673 116.950213 237.045265 114.881223 Q 236.974307 108.838578 236.985511 103.419617 Q 236.989246 103.02748 236.597109 103.034949 L 236.485069 103.038684 Z" style="fill:#0f3a6d;"/>
		<path d="M 258.661354 91.457569 Q 258.597866 91.453834 258.538111 91.457569 Q 258.08622 91.491181 258.075016 91.943072 Q 257.802387 103.34119 257.742633 114.287416 Q 257.735164 116.300386 256.020965 116.677585 C 254.314235 117.054783 253.810059 115.467562 253.813793 114.082011 Q 253.824997 109.22698 253.780182 103.95367 Q 253.780182 103.546595 253.38431 103.442025 Q 253.32829 103.427086 253.268536 103.43829 Q 252.783033 103.54286 252.779298 104.039567 Q 252.734483 109.327815 252.768094 114.414393 C 252.779298 116.229428 250.602004 117.70461 249.433062 115.64309 Q 249.055863 114.982059 249.055863 113.962502 Q 249.04466 103.625022 249.048394 92.876732 Q 249.048394 91.939337 248.241712 91.494915 C 248.088592 91.409019 247.95788 91.282041 247.868248 91.128921 C 247.031689 89.694819 247.547069 87.741603 249.089475 87.020818 Q 249.948442 86.621212 251.087507 86.669762 Q 254.83335 86.830352 258.482092 86.79674 C 261.014177 86.774332 261.858205 88.641651 261.839532 90.923516 Q 261.802186 95.7412 261.798451 99.733528 C 261.798451 100.166747 261.544496 100.562618 261.148624 100.741881 Q 260.767691 100.913674 260.353146 100.887532 Q 259.049757 100.809104 259.042288 99.505716 L 259.01988 91.838502 C 259.016145 91.636832 258.863025 91.472508 258.661354 91.457569 Z" style="fill:#0f3a6d;"/>
		<path d="M 272.24797 123.063817 Q 282.704959 127.339978 290.719494 134.768175 Q 291.01453 135.044538 290.678413 134.816725 C 287.784068 132.882182 285.136209 131.037271 281.905746 129.379091 Q 266.810336 121.629716 249.955911 120.569078 Q 226.939333 119.116304 206.992627 129.64425 C 204.172975 131.130637 201.614747 132.882182 199.026642 134.674809 Q 198.981827 134.704686 198.94448 134.65987 L 198.94448 134.65987 Q 198.903399 134.61132 198.95195 134.570239 Q 206.230761 127.866562 215.175221 123.896641 C 220.422388 121.569961 225.781595 119.852028 231.409695 119.108834 C 245.063535 117.305004 259.703319 117.936158 272.24797 123.063817 Z" style="fill:#0f3a6d;"/>
		<path d="M 238.389474 148.405731 C 238.389735 149.120392 237.807131 149.699261 237.091313 149.69941 L 236.912051 149.699074 C 236.197502 149.699261 235.618633 149.116657 235.618372 148.400913 L 235.648772 130.990065 C 235.64851 130.275404 236.231114 129.696535 236.946932 129.696386 L 237.126195 129.696722 C 237.840743 129.696535 238.419612 130.279139 238.419874 130.994883 L 238.389474 148.405731 Z" style="fill:#0f3a6d;"/>
		<path d="M 253.473941 148.407076 C 253.473941 149.127861 252.891337 149.710465 252.170552 149.710465 L 252.073452 149.710465 C 251.352666 149.710465 250.770063 149.127861 250.770063 148.407076 L 250.770063 130.98872 C 250.770063 130.267935 251.352666 129.685331 252.073452 129.685331 L 252.170552 129.685331 C 252.891337 129.685331 253.473941 130.267935 253.473941 130.98872 L 253.473941 148.407076 Z" style="fill:#0f3a6d;"/>
		<path d="M 246.023337 154.225643 C 246.023337 154.912816 245.466876 155.469278 244.779702 155.469278 L 244.630317 155.469278 C 243.943143 155.469278 243.386682 154.912816 243.386682 154.225643 L 243.386682 141.550279 C 243.386682 140.863105 243.943143 140.306644 244.630317 140.306644 L 244.779702 140.306644 C 245.466876 140.306644 246.023337 140.863105 246.023337 141.550279 L 246.023337 154.225643 Z" style="fill:#0f3a6d;"/>
	</g>
	<g id="surface4">
	</g>
</svg>
