<?xml version="1.0" encoding="utf-8"?>
<svg xmlns="http://www.w3.org/2000/svg" width="490pt" height="280pt" viewBox="0 0 490 280" version="1.1" xmlns:xlink="http://www.w3.org/1999/xlink">
	<g id="surface2">
		<path d="M 246.783406 11.221485 Q 268.234978 23.853845 289.660504 36.746667 C 298.703712 42.185094 307.87715 47.378687 316.90473 52.853579 Q 317.227701 53.04632 317.227701 53.431802 L 317.248538 158.137144 C 317.248538 158.293421 317.123517 158.418442 316.96724 158.418442 L 173.286507 158.418442 Q 173.010418 158.418442 173.010418 158.147562 L 173 53.483894 Q 173 53.239061 173.208369 53.11404 C 185.205205 45.951361 197.212459 38.929331 209.084274 31.688514 Q 224.347291 22.369217 241.537721 12.200818 Q 243.053604 11.304832 244.569487 10.497403 Q 244.809111 10.372381 245.064363 10.445311 Q 245.850956 10.674516 246.783406 11.221485 Z M 249.585967 20.285529 C 248.340963 19.54582 246.351041 18.196631 244.981016 17.951798 Q 244.720555 17.904915 244.496558 18.035146 Q 238.86539 21.28049 227.243618 28.333775 Q 212.246271 37.429075 193.670189 48.43095 Q 186.043889 52.947345 182.918357 54.952895 C 182.126555 55.458189 181.235778 55.869718 180.365838 56.213526 C 180.199143 56.281246 180.08975 56.437523 180.084541 56.619845 Q 180.058494 58.146147 180.058494 59.578683 Q 180.037658 107.847325 179.95431 151.615199 Q 179.95431 151.87566 180.21998 151.886079 Q 182.751662 151.985054 183.590346 151.985054 Q 244.428838 152.063192 309.455544 151.886079 Q 310.049395 151.88087 310.049395 151.287018 L 310.075441 56.463569 C 310.075441 56.244782 309.95042 56.05204 309.757679 55.958274 Q 308.34077 55.291494 306.40294 54.129838 Q 278.684675 37.538469 249.585967 20.285529 Z" style="fill:#382e2b;"/>
		<path d="M 295.343764 68.731284 L 276.001927 68.606263 C 275.803976 68.601054 275.6477 68.767749 275.663327 68.965699 Q 275.798767 70.695161 275.772721 72.601735 Q 275.616444 84.546479 275.595607 98.25194 Q 275.595607 99.627174 274.611065 98.668677 Q 273.595267 97.684134 272.610724 96.496432 Q 271.876224 95.610865 271.881433 94.459627 L 271.980408 73.492512 Q 271.980408 72.919498 271.412603 72.919498 L 252.128067 72.883033 Q 251.924907 72.883033 251.924907 73.086193 L 251.90407 91.589346 Q 251.90407 92.02692 251.466496 92.02692 L 237.833964 92.058176 C 237.698525 92.058176 237.589131 91.974828 237.589131 91.875853 L 237.537039 53.254689 C 237.537039 53.124458 237.432854 53.020274 237.302624 53.020274 L 210.808526 53.067157 C 210.594948 53.067157 210.423044 53.24427 210.423044 53.457848 L 210.391788 65.657844 C 210.386579 65.980816 210.126118 66.241277 209.808356 66.236067 L 194.99854 66.079791 C 194.821427 66.074582 194.675569 66.22044 194.670359 66.402762 L 194.59743 79.686276 C 194.59743 79.842553 194.472409 79.967574 194.316132 79.967574 L 187.518099 79.910272 C 187.356613 79.910272 187.226383 79.780042 187.226383 79.618556 L 187.24201 61.032056 C 187.24201 60.547598 187.481634 60.094396 187.887954 59.818307 C 189.617415 58.656651 191.544827 57.729409 193.357636 56.640682 Q 220.74772 40.195172 241.042845 28.177499 Q 243.017139 27.010633 244.871622 26.072974 Q 245.371707 25.817722 245.856165 26.104229 L 302.720021 59.859981 C 302.891925 59.958956 302.99611 60.146488 302.99611 60.344438 L 303.141968 114.608893 C 303.147177 114.864145 302.938808 115.072514 302.678347 115.077723 L 296.474165 115.181908 C 296.057427 115.187117 295.718828 114.853727 295.718828 114.442198 L 295.70841 69.101139 Q 295.70841 68.736493 295.343764 68.731284 Z" style="fill:#4ca7c8;"/>
		<path d="M 231.256854 144.321717 C 231.254718 144.478567 231.129697 144.608797 230.970868 144.608693 L 213.040729 144.64 C 212.881796 144.640052 212.751565 144.509822 212.753753 144.354014 L 212.61399 64.277973 C 212.616126 64.121124 212.741147 63.990893 212.899976 63.990997 L 230.830115 63.95969 C 230.989048 63.959638 231.119279 64.089868 231.117091 64.245676 L 231.256854 144.321717 Z" style="fill:#382e2b;"/>
		<path d="M 187.101361 144.353545 L 187.11178 81.420947 C 187.11178 81.285507 187.221173 81.176113 187.356613 81.170904 L 205.594096 80.983372 C 205.729535 80.978163 205.844138 81.092766 205.844138 81.228205 L 205.906649 144.400428 C 205.906649 144.535868 205.792046 144.650471 205.656606 144.650471 L 187.351404 144.603588 C 187.210755 144.603588 187.101361 144.494194 187.101361 144.353545 Z" style="fill:#382e2b;"/>
		<path d="M 261.619267 144.332708 C 261.619267 144.494194 261.489037 144.624425 261.327551 144.624425 L 237.906894 144.624425 C 237.745408 144.624425 237.615177 144.494194 237.615177 144.332708 L 237.615177 93.36569 C 237.615177 93.204204 237.745408 93.073974 237.906894 93.073974 L 261.327551 93.073974 C 261.489037 93.073974 261.619267 93.204204 261.619267 93.36569 L 261.619267 144.332708 Z" style="fill:#382e2b;"/>
		<path d="M 275.095522 126.642194 L 275.24138 126.683868 C 275.350774 126.715123 275.465377 126.631776 275.465377 126.517173 L 275.621653 116.57277 Q 275.626863 116.228961 275.970671 116.228961 L 302.917971 116.218543 C 303.089876 116.218543 303.225315 116.353982 303.225315 116.525887 L 303.147177 144.363964 C 303.147177 144.515031 303.027365 144.634843 302.876298 144.634843 L 267.437967 144.582751 C 267.302528 144.582751 267.193134 144.473357 267.193134 144.337918 L 267.198343 95.30873 C 267.198343 95.168081 267.328574 95.058687 267.464013 95.089942 Q 267.813031 95.162872 268.094329 95.37124 Q 271.214653 97.725808 274.470416 100.278327 Q 274.725667 100.476277 274.730877 100.799249 C 274.892363 109.316325 274.486043 118.073025 274.704831 126.13169 Q 274.715249 126.527591 275.095522 126.642194 Z" style="fill:#382e2b;"/>
	</g>
	<g id="surface4">
	</g>
</svg>
