<?xml version="1.0" encoding="utf-8"?>
<svg xmlns="http://www.w3.org/2000/svg" width="490pt" height="280pt" viewBox="0 0 490 280" version="1.1" xmlns:xlink="http://www.w3.org/1999/xlink">
	<g id="surface2">
		<path d="M 244.912684 9.326883 C 247.804848 12.910952 250.018945 17.126961 248.685874 21.748888 Q 247.920166 24.410417 245.069516 26.227821 C 244.880395 26.347751 244.640535 26.329301 244.465252 26.19092 Q 239.174483 21.864206 241.065691 15.692411 C 241.78066 13.353771 243.16447 11.365697 244.483703 9.345333 C 244.58057 9.193114 244.797367 9.183889 244.912684 9.326883 Z" style="fill:#456830;"/>
		<path d="M 255.415806 21.961072 C 256.052359 25.06542 256.37986 29.023118 254.184214 31.39866 Q 252.168464 33.575855 249.571513 34.872024 C 249.290138 35.010405 248.944185 34.885862 248.819642 34.595262 Q 246.656285 29.62277 249.336265 26.006412 C 250.683174 24.184394 252.975687 22.985092 254.899183 21.744275 Q 255.314326 21.476739 255.415806 21.961072 Z" style="fill:#699342;"/>
		<path d="M 240.692062 35.125723 C 238.800855 35.084208 235.931754 32.039825 234.824706 30.59605 C 233.154908 28.418855 233.593114 24.442706 234.188153 21.984136 C 234.225055 21.836529 234.386499 21.758113 234.52488 21.822691 C 236.817393 22.920514 239.331315 24.474995 240.75664 26.495358 C 242.048197 28.317375 242.841581 33.257578 241.139494 34.945827 C 241.019564 35.065758 240.858119 35.130335 240.692062 35.125723 Z" style="fill:#699342;"/>
		<path d="M 228.163965 38.968103 C 223.804962 37.215276 223.325241 31.813803 223.500523 27.69466 C 223.505136 27.570117 223.620454 27.482476 223.740384 27.510152 Q 225.599303 27.952972 227.462834 28.704842 C 231.106868 30.167068 233.856038 31.896832 234.62636 36.172806 C 234.86622 37.510489 235.096855 38.898913 234.557169 40.195082 C 234.395725 40.591774 233.966743 40.808571 233.5516 40.707092 Q 230.940811 40.084377 228.163965 38.968103 Z" style="fill:#7ca03e;"/>
		<path d="M 266.513966 28.188219 C 266.55548 32.810146 265.812835 37.219889 261.366191 39.300218 Q 259.0091 40.407266 256.60127 40.794733 C 256.218416 40.859311 255.844787 40.651739 255.687955 40.291948 Q 255.401968 39.641557 255.360453 38.8943 C 255.180558 35.739212 255.890914 32.616413 258.570894 30.771332 Q 261.882813 28.49727 266.246429 27.491701 C 266.375585 27.459413 266.50474 27.533216 266.541642 27.657759 Q 266.573931 27.763851 266.550867 27.869943 Q 266.513966 28.026775 266.513966 28.188219 Z" style="fill:#7ca03e;"/>
		<path d="M 245.155312 52.483226 C 241.199459 52.50177 237.979794 49.129885 237.956822 44.942151 C 237.933667 40.757831 241.121043 37.349045 245.075974 37.326074 C 249.031827 37.30753 252.251492 40.679415 252.274464 44.867149 C 252.297619 49.051469 249.110243 52.460255 245.155312 52.483226 Z" style="fill:#7ca03e;"/>
		<path d="M 221.604703 46.998817 Q 220.755966 44.876974 219.893391 42.819709 Q 219.708883 42.386115 220.183991 42.390728 Q 222.536469 42.418404 225.530112 42.598299 C 230.055172 42.875061 234.068223 45.402822 235.917916 49.577317 C 236.600596 51.113346 237.560038 54.10699 234.760128 54.328399 C 228.846645 54.785057 223.943343 52.866173 221.604703 46.998817 Z" style="fill:#456830;"/>
		<path d="M 253.284738 52.838497 C 254.179602 47.778363 258.644697 43.322493 263.80631 42.73668 Q 266.500128 42.427629 269.562962 42.418404 Q 269.812047 42.418404 269.729019 42.649039 C 268.492815 46.080889 267.717881 48.986891 264.774977 51.519264 Q 260.097698 55.550765 254.055059 54.028574 C 253.529211 53.894805 253.192484 53.378183 253.284738 52.838497 Z" style="fill:#456830;"/>
		<path d="M 221.314103 60.145016 C 216.572246 59.683746 211.498274 57.308205 211.046229 51.925182 Q 210.815594 49.129885 211.037004 45.984022 C 211.046229 45.887155 211.156934 45.836416 211.23535 45.891768 Q 213.989133 47.741461 216.779817 49.245202 C 220.548394 51.274791 222.919323 55.043368 222.33351 59.337793 C 222.264319 59.835965 221.816887 60.195756 221.314103 60.145016 Z" style="fill:#456830;"/>
		<path d="M 267.081328 60.025086 C 266.357134 55.942845 268.737288 51.952858 272.136849 49.794114 Q 274.226403 48.470268 276.860255 47.068007 Q 277.649027 46.648251 278.345545 45.937895 C 278.442412 45.836416 278.613082 45.900994 278.622307 46.043987 Q 278.7284 48.364176 278.686885 50.804295 C 278.571568 57.478875 273.29925 59.868254 267.524147 60.366426 C 267.311963 60.384877 267.11823 60.23727 267.081328 60.025086 Z" style="fill:#456830;"/>
		<path d="M 234.248118 68.032736 C 231.097643 66.787306 228.177803 65.260502 227.532025 61.625693 Q 227.116881 59.287054 227.324453 57.09602 C 227.342904 56.929963 227.504348 56.823871 227.66118 56.879223 Q 229.593902 57.53884 231.522011 58.322999 C 236.185453 60.223432 238.394937 63.71986 238.108949 69.121333 C 238.099724 69.310454 237.910603 69.430384 237.730708 69.365807 Q 235.996332 68.724641 234.248118 68.032736 Z" style="fill:#456830;"/>
		<path d="M 253.870551 61.076782 C 256.153838 58.904199 258.861494 57.70951 261.845912 56.773131 Q 262.131899 56.680877 262.159575 56.980703 C 262.450176 59.840578 262.237991 63.184786 259.830161 65.062156 Q 256.135387 67.940482 251.545749 69.462673 C 251.319727 69.536477 251.084479 69.361194 251.089092 69.121333 C 251.139831 66.386001 251.817898 63.03718 253.870551 61.076782 Z" style="fill:#456830;"/>
		<path d="M 196.0734 60.417165 Q 195.501425 58.978003 195.127796 57.534227 C 195.095507 57.423522 195.178536 57.312817 195.293853 57.308205 C 200.543108 57.123697 208.112551 57.483487 207.821951 64.877648 Q 207.761986 66.358325 206.14754 66.464417 Q 198.6519 66.953364 196.0734 60.417165 Z" style="fill:#456830;"/>
		<path d="M 293.941089 57.571129 C 292.990873 63.360069 289.392966 66.907237 283.345714 66.321424 Q 281.901938 66.183042 281.971129 64.776168 C 282.321694 57.940145 288.216727 57.086795 293.692004 57.26669 Q 293.987216 57.275916 293.941089 57.571129 Z" style="fill:#456830;"/>
		<path d="M 249.027214 99.094668 C 249.036439 99.256113 249.234786 99.334529 249.354716 99.223824 Q 252.888045 95.99032 256.513629 93.693195 Q 267.127455 86.967876 278.866781 90.653424 Q 284.014556 92.272483 288.336657 95.875003 Q 292.23439 99.13157 294.084083 105.155758 Q 294.222464 105.612416 293.908801 105.252625 C 293.475207 104.754453 293.143092 104.164027 292.700273 103.670468 C 282.884444 92.687626 264.322932 88.44394 254.36411 101.885353 Q 249.972818 107.808062 248.164639 115.511273 Q 246.158114 124.072447 245.16177 132.181577 Q 244.935748 133.989756 244.718951 132.181577 Q 243.519648 122.176627 240.913472 112.9789 Q 238.344197 103.891878 231.517399 97.950718 C 226.775542 93.826963 219.48286 92.632273 213.481736 94.002246 Q 202.863296 96.428527 195.893504 105.077342 Q 195.529101 105.529387 195.73206 104.980476 C 197.378794 100.519993 199.246938 96.954375 203.283052 94.219043 Q 211.212286 88.845245 220.825156 89.39877 C 228.3946 89.832364 235.009214 94.016084 240.456814 98.979351 C 240.53523 99.048541 240.659773 99.002414 240.668999 98.896322 C 241.356291 88.448553 242.038971 79.218537 242.403375 69.485737 Q 242.629397 63.632218 243.219823 58.180005 C 243.238274 58.00011 243.43662 57.89863 243.598064 57.986272 Q 244.894233 58.733529 246.259593 58.22152 C 246.439488 58.156942 246.637835 58.281485 246.64706 58.470605 Q 247.10833 65.435785 247.366641 71.446135 C 247.758721 80.666925 248.409112 89.68937 249.027214 99.094668 Z" style="fill:#4f2513;"/>
		<path d="M 215.746572 68.526295 Q 210.469641 66.344487 210.082174 60.380264 Q 210.068336 60.121953 210.322035 60.094276 C 214.491917 59.609943 218.398875 61.860941 219.044654 66.284522 Q 219.210711 67.419246 218.85092 68.475555 C 218.744828 68.784606 218.458841 68.99679 218.135951 69.006016 Q 216.978163 69.033692 215.746572 68.526295 Z" style="fill:#456830;"/>
		<path d="M 271.232759 68.07425 C 270.817616 62.603586 274.521616 59.72526 279.554073 60.043537 C 279.72013 60.052762 279.844673 60.200368 279.835448 60.366426 C 279.572524 64.633175 276.786452 68.530908 272.252167 68.941438 C 271.730931 68.987565 271.269661 68.600098 271.232759 68.07425 Z" style="fill:#456830;"/>
		<path d="M 229.755347 78.780331 C 223.652743 76.404789 222.688688 71.543002 222.799393 65.726385 C 222.799393 65.643356 222.887034 65.592617 222.960837 65.629518 Q 225.98677 67.096357 229.132632 68.858409 C 233.966743 71.55684 236.619047 74.605836 236.817393 80.24717 C 236.826618 80.463967 236.628272 80.639249 236.411475 80.602348 Q 232.9704 80.034985 229.755347 78.780331 Z" style="fill:#7ca03e;"/>
		<path d="M 266.407874 65.814026 Q 266.77689 65.652582 266.781502 66.053887 C 266.823017 71.644481 265.074803 76.755355 259.52111 78.955613 Q 256.20919 80.270233 252.99875 80.703827 C 252.883433 80.722278 252.781953 80.630024 252.77734 80.514706 Q 252.643572 72.811495 259.410405 69.232038 Q 262.90222 67.382345 266.407874 65.814026 Z" style="fill:#7ca03e;"/>
		<path d="M 201.313429 70.65275 C 202.171391 72.124202 202.969389 73.641781 203.153897 75.348481 C 203.186186 75.625243 203.033966 75.888167 202.784881 76.008097 C 201.359556 76.681551 199.145459 76.603135 197.618655 76.529332 C 192.623099 76.289472 189.804738 71.589129 188.310223 67.446923 C 188.282547 67.363894 188.342512 67.27164 188.434766 67.267027 C 193.056693 67.03178 198.467392 65.73561 201.313429 70.65275 Z" style="fill:#7ca03e;"/>
		<path d="M 301.459793 67.580691 C 299.384077 73.318892 295.131166 77.7886 288.590356 76.386338 C 287.381828 76.128027 285.914989 75.629855 286.445449 73.987734 Q 288.904019 66.372163 296.897831 66.962589 Q 298.99661 67.119421 301.178418 67.165548 Q 301.607399 67.174773 301.459793 67.580691 Z" style="fill:#7ca03e;"/>
		<path d="M 212.609935 76.529332 C 208.260157 76.856834 205.958419 73.867803 204.334748 70.366763 C 204.219431 70.113064 204.394713 69.822464 204.671476 69.808626 Q 207.480611 69.642569 210.589572 69.716372 C 214.427339 69.799401 217.5363 72.567021 219.086168 75.980421 C 219.150746 76.118802 219.049266 76.280246 218.897047 76.280246 Q 215.746572 76.289472 212.609935 76.529332 Z" style="fill:#7ca03e;"/>
		<path d="M 285.223083 70.408277 C 283.161206 74.116889 280.642671 77.032117 276.029969 76.603135 Q 273.400729 76.354049 270.642334 76.243345 C 270.545467 76.238732 270.485502 76.137252 270.527016 76.049611 C 272.164525 72.640825 274.68306 70.186867 278.631533 69.831689 Q 281.81891 69.545702 285.038575 70.034648 C 285.213858 70.062324 285.310725 70.256058 285.223083 70.408277 Z" style="fill:#7ca03e;"/>
		<path d="M 271.943116 85.367268 Q 271.025188 85.067443 270.683848 84.255607 Q 270.600819 84.052648 270.674623 83.845077 Q 271.509522 81.575628 273.723618 80.408614 C 277.43223 78.457441 281.860424 79.721322 285.748931 81.04978 C 285.808897 81.06823 285.868862 81.06823 285.924214 81.040554 Q 286.021081 80.989815 286.113335 81.017491 Q 286.436224 81.109745 286.196363 81.344993 C 282.026481 85.427233 278.119523 87.392244 271.943116 85.367268 Z" style="fill:#699342;"/>
		<path d="M 216.217068 85.897729 C 211.106194 86.681888 206.793318 85.035154 203.527526 81.285027 C 203.462948 81.211224 203.499849 81.095907 203.596716 81.072843 C 206.0968 80.519319 208.781393 79.68442 211.45676 79.555264 C 214.256669 79.412271 218.551095 80.832983 219.266063 83.978845 C 219.344479 84.338636 219.215324 84.707652 218.929336 84.938287 C 218.159015 85.551776 217.158059 85.754735 216.217068 85.897729 Z" style="fill:#699342;"/>
		<path d="M 257.91589 84.283284 C 260.93721 82.977889 263.958529 81.760136 266.859918 80.256395 Q 267.201258 80.0765 267.602563 80.030373 Q 267.99003 79.988858 267.833198 80.344036 Q 265.886638 84.850646 262.191864 86.451253 C 259.493434 87.622879 256.375248 88.370137 253.538436 89.218874 C 253.257061 89.301903 252.989525 89.052817 253.04949 88.766829 C 253.492309 86.728015 256.269156 84.998252 257.91589 84.283284 Z" style="fill:#4f2513;"/>
		<path d="M 231.854126 84.112614 C 233.302514 84.749166 236.955774 86.926362 236.711301 88.633061 C 236.688237 88.803731 236.52218 88.919049 236.35151 88.882147 Q 233.450121 88.259432 230.115137 87.152384 C 226.383462 85.906954 223.417495 84.108001 222.121326 80.404001 C 222.038297 80.173366 222.273545 79.956569 222.499567 80.053436 Q 227.324453 82.129152 231.854126 84.112614 Z" style="fill:#4f2513;"/>
		<path d="M 196.26252 88.573096 C 193.125883 87.387632 190.501256 84.703039 188.411702 81.80165 Q 188.148778 81.432634 188.586985 81.321929 Q 191.165485 80.648475 193.776274 80.463967 C 198.439716 80.136465 202.568084 83.226975 204.048761 87.599816 C 204.168691 87.964219 204.053373 88.370137 203.758161 88.609998 C 201.977658 90.053773 198.425878 89.389544 196.26252 88.573096 Z" style="fill:#699342;"/>
		<path d="M 297.824984 86.234456 C 295.730818 88.268658 288.022993 91.091631 286.297843 88.287108 C 286.210202 88.139502 286.177913 87.964219 286.205589 87.793549 Q 286.380872 86.792593 286.92517 85.846989 C 290.509239 79.661357 295.670853 80.067274 301.801133 81.285027 Q 302.073282 81.335767 301.907225 81.557177 Q 299.766932 84.347861 297.824984 86.234456 Z" style="fill:#699342;"/>
		<path d="M 186.437466 98.172128 C 184.389427 97.743147 182.530508 96.89441 180.537821 96.082574 C 180.454792 96.045673 180.427116 95.944193 180.482468 95.875003 C 182.774981 92.945937 185.325805 90.66265 188.997515 89.966132 Q 192.826058 89.241938 195.529101 91.746635 C 196.465479 92.613823 197.226575 93.979182 196.234844 95.127745 Q 192.517007 99.454459 186.437466 98.172128 Z" style="fill:#456830;"/>
		<path d="M 295.883037 90.515043 C 299.042737 89.108169 303.04195 90.021484 305.694253 91.963432 Q 307.829934 93.522525 309.845685 95.764298 Q 310.034805 95.976482 309.767269 96.082574 Q 307.719229 96.903635 305.731155 97.650893 C 302.585292 98.836357 298.724461 98.9609 295.740043 97.009727 C 294.785214 96.387012 293.465981 95.469085 293.193832 94.325135 C 292.778689 92.586146 294.430036 91.165434 295.883037 90.515043 Z" style="fill:#456830;"/>
		<path d="M 219.279809 115.063242 C 216.687563 114.740952 214.860933 112.305446 215.192402 109.626896 C 215.525162 106.945486 217.896091 105.035828 220.488522 105.359317 C 223.080768 105.681606 224.907397 108.117113 224.575929 110.795662 C 224.243168 113.477072 221.87224 115.38673 219.279809 115.063242 Z" style="fill:#4f2513;"/>
		<path d="M 270.847322 114.994466 C 268.266792 115.478984 265.775934 113.721545 265.280437 111.076022 C 264.784203 108.430776 266.472451 105.89379 269.053535 105.409641 C 271.634065 104.925123 274.124923 106.682562 274.62042 109.328085 C 275.116654 111.973331 273.428405 114.510317 270.847322 114.994466 Z" style="fill:#4f2513;"/>
		<path d="M 226.44804 115.340603 C 229.211048 114.168977 231.259087 112.286995 233.43167 110.326597 Q 233.570051 110.202054 233.759172 110.225117 C 233.911391 110.243568 233.99442 110.414238 233.916004 110.543394 C 232.370749 113.227986 229.916791 115.695781 227.937942 118.011358 C 224.653699 121.844513 222.665624 126.604821 220.580683 131.185233 Q 219.113844 134.404899 216.632211 137.841362 Q 215.889566 138.865381 216.258582 137.656854 Q 219.279901 127.744158 214.021422 119.445908 C 212.323947 116.761315 209.40872 114.049047 206.931699 111.507448 Q 206.442753 111.004664 207.139271 111.050791 Q 207.231525 111.055404 207.605154 111.276813 Q 209.925343 112.628335 212.388525 114.136688 Q 215.525162 116.055572 217.00584 116.443039 C 220.326985 117.31484 223.339079 116.655223 226.44804 115.340603 Z" style="fill:#4f2513;"/>
		<path d="M 267.787071 127.739545 Q 265.143993 121.581589 262.261055 118.412663 Q 259.57185 115.465146 256.919546 112.370024 Q 256.093873 111.415194 255.817111 110.607971 Q 255.531123 109.777685 256.199965 110.345048 C 259.355053 113.011189 262.616233 116.050959 266.749214 116.756703 Q 271.832411 117.623891 276.33902 114.773241 Q 279.046676 113.061929 281.971129 111.456709 Q 284.22674 110.220505 282.413948 112.051747 Q 280.412036 114.07211 278.493152 116.207791 C 272.944072 122.379586 270.813004 130.327271 273.848161 137.947454 Q 274.235628 138.920734 273.548336 138.131962 C 271.108217 135.332052 269.364615 131.415868 267.787071 127.739545 Z" style="fill:#4f2513;"/>
		<path d="M 278.128748 120.995775 C 278.11491 120.98655 278.110298 120.968099 278.119523 120.954261 L 278.119523 120.954261 C 278.562342 120.317708 281.177744 121.369404 283.968429 123.297514 L 284.088359 123.385155 C 286.879043 125.313264 288.784089 127.398205 288.345882 128.034758 L 288.345882 128.034758 C 288.336657 128.048596 288.318206 128.048596 288.304368 128.039371 L 278.128748 120.995775 Z" style="fill:#4f2513;"/>
		<path d="M 201.373394 127.804123 C 203.596716 124.699775 207.249976 121.484722 210.917073 120.857394 Q 211.530563 120.751302 211.138483 121.235636 Q 210.414289 122.139725 209.35798 122.822405 C 206.756417 124.510654 204.03031 126.088198 201.497937 127.924053 Q 201.05973 128.24233 201.373394 127.804123 Z" style="fill:#4f2513;"/>
		<path d="M 188.785331 144.133087 Q 175.662195 138.122736 164.527134 129.003425 Q 164.481007 128.966524 164.513295 128.915784 L 164.517908 128.911171 Q 164.564035 128.846594 164.633226 128.888108 Q 167.585355 130.580969 170.745055 131.927878 Q 181.958533 136.702024 194.334411 139.806373 Q 207.70202 143.155194 220.193216 144.423687 Q 245.807548 147.025251 272.233716 144.15615 C 282.884444 142.998362 293.908801 140.636659 303.443255 137.656854 Q 310.745161 135.378179 318.591367 132.333796 Q 322.138534 130.954598 325.348975 128.952686 Q 325.418165 128.911171 325.468905 128.975749 L 325.468905 128.980362 Q 325.505806 129.026489 325.459679 129.072616 Q 324.394145 130.096636 323.222519 130.959211 C 310.389983 140.387573 295.832297 147.186695 280.329007 151.8732 Q 245.876739 162.293293 210.806369 152.426724 Q 200.626136 149.557624 188.785331 144.133087 Z" style="fill:#4f2513;"/>
	</g>
	<g id="surface4">
	</g>
</svg>
