<?xml version="1.0" encoding="utf-8"?>
<svg xmlns="http://www.w3.org/2000/svg" width="490pt" height="280pt" viewBox="0 0 490 280" version="1.1" xmlns:xlink="http://www.w3.org/1999/xlink">
	<g id="surface2">
		<path d="M 278.063285 49.615398 Q 278.513315 49.615398 278.513315 49.170924 L 278.507759 33.280989 Q 278.507759 31.730887 280.063417 31.725331 L 314.404567 31.65866 Q 316.210241 31.653104 316.204685 33.464335 Q 316.110234 72.461346 316.099123 111.536141 Q 316.099123 113.519605 315.915777 115.641967 C 315.082389 125.075921 307.881915 128.309467 300.581434 132.259727 Q 281.891315 142.37706 255.822932 156.266863 Q 248.700241 160.061558 241.294198 158.794807 Q 237.877306 158.216992 232.971428 155.633488 C 216.70369 147.071814 200.708193 138.45458 185.562751 130.281819 C 180.734656 127.676092 176.562159 124.848128 174.823155 119.392214 Q 173.973099 116.725371 174.000879 110.497184 Q 174.200892 69.911178 174.111998 33.258765 Q 174.106442 31.65866 175.706547 31.65866 L 210.164371 31.703107 C 211.075542 31.703107 211.81448 32.442045 211.820035 33.358772 L 211.836703 49.32649 C 211.842259 49.4765 211.958934 49.593174 212.103387 49.593174 L 226.648789 49.604286 C 226.804355 49.604286 226.932141 49.4765 226.937697 49.315378 Q 227.009924 31.147515 226.932141 13.463018 Q 226.92103 11.06286 229.265628 11.112863 C 230.926849 11.151755 231.843576 11.801797 231.815796 13.501909 Q 231.782461 15.97985 231.826908 18.485571 C 231.832464 18.641136 231.954694 18.763367 232.11026 18.763367 L 257.628607 18.724475 C 257.817508 18.724475 257.967518 18.574465 257.961962 18.385564 Q 257.923071 15.813173 257.934182 13.407459 C 257.939738 11.351768 259.128705 11.118419 260.845485 11.146199 Q 262.984515 11.179534 262.978959 13.318564 L 262.856729 49.309822 Q 262.851173 49.654289 263.201196 49.654289 L 278.063285 49.615398 Z M 257.960462 24.764762 C 257.961962 24.624864 257.850844 24.513745 257.711334 24.513856 L 232.209822 24.424851 C 232.071369 24.424851 231.96025 24.535969 231.958917 24.674034 L 231.872856 49.342158 C 231.871355 49.482056 231.982474 49.593174 232.121983 49.593063 L 257.623495 49.682069 C 257.761949 49.682069 257.873067 49.57095 257.874401 49.432886 L 257.960462 24.764762 Z M 206.623471 38.671733 C 206.625249 38.542447 206.519687 38.431328 206.384955 38.432384 L 179.694365 38.385825 C 179.562356 38.386881 179.456794 38.492443 179.455016 38.624285 L 179.436348 49.32499 C 179.43457 49.454276 179.540133 49.565394 179.674864 49.564339 L 206.365454 49.610897 C 206.497463 49.609842 206.603025 49.504279 206.604803 49.372437 L 206.623471 38.671733 Z M 310.77655 38.598006 C 310.77655 38.497999 310.693211 38.41466 310.593205 38.41466 L 283.824776 38.41466 C 283.724769 38.41466 283.64143 38.497999 283.64143 38.598006 L 283.64143 49.420941 C 283.64143 49.520947 283.724769 49.604286 283.824776 49.604286 L 310.593205 49.604286 C 310.693211 49.604286 310.77655 49.520947 310.77655 49.420941 L 310.77655 38.598006 Z M 185.151613 62.644033 C 185.37385 62.638477 185.557195 62.810711 185.568307 63.032948 L 185.612755 63.994122 C 185.623866 64.233027 185.434965 64.427484 185.196061 64.427484 L 180.195731 64.333033 C 179.967939 64.333033 179.779037 64.510823 179.779037 64.738616 L 179.73459 67.066547 C 179.73459 67.294339 179.912379 67.483241 180.140172 67.483241 L 187.518436 67.611027 C 187.751784 67.611027 187.940686 67.427682 187.940686 67.194333 L 187.896238 59.832737 C 187.896238 59.599388 187.707337 59.416043 187.473988 59.421599 L 180.351297 59.621612 C 180.12906 59.627168 179.951271 59.816069 179.951271 60.038306 L 179.995718 62.288454 C 179.995718 62.510691 180.18462 62.694037 180.406856 62.688481 L 185.151613 62.644033 Z M 205.480729 67.633251 C 205.752969 67.633251 205.975206 67.411014 205.975206 67.138774 L 205.96965 59.91052 C 205.96965 59.632724 205.741858 59.410487 205.464061 59.416043 L 194.713354 59.632724 C 194.44667 59.63828 194.235545 59.854961 194.229989 60.121645 L 194.141094 67.14433 C 194.141094 67.41657 194.363331 67.644362 194.635571 67.644362 L 205.480729 67.633251 Z M 295.536658 67.561024 C 295.770006 67.555468 295.958908 67.36101 295.953352 67.127662 L 295.742227 59.78829 C 295.736671 59.560497 295.54777 59.382707 295.319977 59.382707 L 284.124795 59.6105 C 283.902559 59.6105 283.719213 59.793846 283.719213 60.016082 L 283.585871 67.216557 C 283.585871 67.449905 283.774772 67.644362 284.008121 67.638807 L 295.536658 67.561024 Z M 305.820668 64.327477 C 305.592875 64.333033 305.398418 64.149688 305.387306 63.921895 L 305.337303 62.89405 C 305.326191 62.644033 305.53176 62.438464 305.781777 62.449576 L 309.826487 62.62181 C 310.065392 62.627365 310.270961 62.438464 310.276517 62.19956 L 310.315408 59.866073 C 310.320964 59.627168 310.126507 59.427155 309.887603 59.432711 L 302.826027 59.482714 C 302.592678 59.48827 302.403777 59.677171 302.403777 59.91052 L 302.398221 67.077658 C 302.398221 67.316563 302.587122 67.505464 302.826027 67.505464 L 309.882047 67.544356 C 310.120951 67.544356 310.309853 67.355455 310.309853 67.11655 L 310.32652 64.716392 C 310.32652 64.477487 310.132063 64.28303 309.893158 64.288586 L 305.820668 64.327477 Z M 272.957394 59.916076 C 272.957394 59.816069 272.879611 59.738286 272.779604 59.738286 L 217.075937 59.738286 C 216.97593 59.738286 216.898148 59.816069 216.898148 59.916076 L 216.898148 67.327675 C 216.898148 67.427682 216.97593 67.505464 217.075937 67.505464 L 272.779604 67.505464 C 272.879611 67.505464 272.957394 67.427682 272.957394 67.327675 L 272.957394 59.916076 Z M 270.123874 76.528281 Q 270.262772 77.222771 270.262772 77.922817 Q 270.234992 91.601495 270.096094 105.25795 Q 270.096094 105.363512 270.201657 105.363512 L 272.768492 105.396848 Q 272.918502 105.396848 272.918502 105.246838 L 273.0574 73.60031 Q 273.062956 73.166948 272.629594 73.166948 L 217.237059 73.216952 C 217.025934 73.216952 216.8537 73.389185 216.8537 73.605866 L 216.903703 105.296841 Q 216.903703 105.357956 216.964819 105.363512 Q 218.898279 105.513522 219.709444 105.3524 Q 219.742779 105.341289 219.742779 105.307953 L 219.720556 76.8283 C 219.720556 76.528281 219.965016 76.28382 220.265036 76.28382 L 269.846078 76.294932 Q 270.079426 76.294932 270.123874 76.528281 Z M 184.857149 76.217149 C 185.012715 76.222705 185.134945 76.350491 185.134945 76.506057 L 184.92382 104.969042 C 184.92382 105.124608 185.046051 105.246838 185.201616 105.252394 L 187.579551 105.296841 C 187.735117 105.302397 187.868459 105.169055 187.868459 105.013489 L 187.78512 73.60031 C 187.78512 73.444744 187.657334 73.316958 187.501768 73.316958 L 180.067945 73.322514 C 179.917935 73.322514 179.790149 73.444744 179.784593 73.594754 L 179.717922 75.778231 C 179.712366 75.933797 179.834596 76.067139 179.990162 76.072695 L 184.857149 76.217149 Z M 203.091683 76.228261 C 203.241693 76.228261 203.363923 76.350491 203.363923 76.500501 L 203.330588 105.085716 C 203.330588 105.241282 203.46393 105.369068 203.619496 105.357956 L 205.852976 105.23017 C 205.99743 105.219058 206.108548 105.102384 206.108548 104.95793 L 206.108548 73.594754 C 206.108548 73.444744 205.986318 73.322514 205.836308 73.322514 L 194.574456 73.378073 C 194.424446 73.378073 194.302216 73.500304 194.302216 73.650313 L 194.26888 105.163499 C 194.26888 105.313509 194.396666 105.435739 194.546676 105.435739 L 196.730153 105.38018 C 196.880163 105.38018 196.996837 105.25795 196.996837 105.10794 L 196.963502 76.506057 C 196.963502 76.356047 197.085732 76.233817 197.235742 76.233817 L 203.091683 76.228261 Z M 286.408279 76.472721 C 286.408279 76.339379 286.519398 76.228261 286.65274 76.228261 L 292.953154 76.172702 C 293.086496 76.172702 293.197615 76.28382 293.197615 76.417162 L 293.253174 104.969042 C 293.253174 105.10794 293.364293 105.219058 293.503191 105.213502 L 295.736671 105.174611 C 295.870013 105.169055 295.975576 105.063492 295.975576 104.93015 L 295.986687 73.566975 C 295.986687 73.433632 295.875569 73.322514 295.742227 73.322514 L 283.869223 73.400297 C 283.735881 73.400297 283.624763 73.511415 283.624763 73.644757 L 283.685878 105.030157 C 283.685878 105.169055 283.796996 105.280173 283.935894 105.274617 L 286.219378 105.241282 C 286.35272 105.235726 286.458282 105.130164 286.458282 104.996821 L 286.408279 76.472721 Z M 305.392862 76.572728 C 305.392862 76.383827 305.548428 76.228261 305.737329 76.228261 L 309.832043 76.250485 C 310.020945 76.250485 310.17651 76.100475 310.182066 75.911573 L 310.23207 73.689205 C 310.237626 73.500304 310.08206 73.339182 309.887603 73.339182 L 302.84825 73.333626 C 302.659349 73.333626 302.503783 73.489192 302.503783 73.678093 L 302.531563 104.763473 C 302.531563 104.952374 302.681573 105.102384 302.870474 105.10794 L 305.053951 105.124608 C 305.248408 105.130164 305.403974 104.974598 305.403974 104.78014 L 305.392862 76.572728 Z M 234.435413 83.103269 C 234.432635 83.012041 234.360408 82.939814 234.274014 82.942425 L 224.528928 82.959426 C 224.437533 82.962038 224.365306 83.034264 224.368084 83.120826 L 224.406975 105.40007 C 224.409753 105.491298 224.48198 105.563525 224.568375 105.560914 L 234.313461 105.543913 C 234.404856 105.541302 234.477083 105.469075 234.474305 105.382513 L 234.435413 83.103269 Z M 252.064129 83.318728 C 252.067129 83.156495 251.933787 83.028709 251.775721 83.02932 L 238.352615 83.005874 C 238.193994 83.006485 238.066208 83.134271 238.063208 83.294282 L 238.024761 105.317954 C 238.02176 105.480187 238.155102 105.607973 238.313168 105.607362 L 251.736274 105.630808 C 251.894896 105.630196 252.022682 105.50241 252.025682 105.3424 L 252.064129 83.318728 Z M 265.18466 83.250945 C 265.18466 83.100936 265.067985 82.984261 264.917975 82.984261 L 255.928495 82.984261 C 255.778485 82.984261 255.661811 83.100936 255.661811 83.250945 L 255.661811 105.341289 C 255.661811 105.491298 255.778485 105.607973 255.928495 105.607973 L 264.917975 105.607973 C 265.067985 105.607973 265.18466 105.491298 265.18466 105.341289 L 265.18466 83.250945 Z M 207.169729 135.082135 Q 221.831806 142.838201 235.138237 149.849774 Q 239.810767 152.311047 242.894303 152.888863 Q 247.389044 153.733363 251.478202 151.611001 Q 273.368532 140.226918 298.136829 126.642691 C 304.709484 123.042454 310.715435 120.058924 310.454307 111.419466 Q 310.443195 111.125003 310.148731 111.125003 L 179.590136 111.074999 Q 179.43457 111.074999 179.429014 111.230565 Q 179.240113 119.558891 186.212794 123.581378 Q 194.974482 128.626155 207.169729 135.082135 Z" style="fill:#12213b;"/>
		<path d="M 203.509266 63.883893 C 203.508377 64.210803 203.236137 64.477487 202.908615 64.472154 L 197.552985 64.416039 C 197.22463 64.410816 196.963502 64.144132 196.96478 63.815388 L 196.973725 62.959832 C 196.974614 62.632921 197.246854 62.366237 197.574375 62.371571 L 202.930006 62.427686 C 203.258361 62.432908 203.519489 62.699592 203.518211 63.028336 L 203.509266 63.883893 Z" style="fill:#12213b;"/>
		<path d="M 293.472689 63.957009 C 293.469855 64.244139 293.236506 64.471931 292.953321 64.470987 L 286.94187 64.439485 C 286.658296 64.438596 286.424947 64.205247 286.427891 63.920117 L 286.433225 62.90894 C 286.436059 62.62181 286.669407 62.394017 286.952593 62.394961 L 292.964044 62.426463 C 293.247618 62.427352 293.480967 62.660701 293.478022 62.945831 L 293.472689 63.957009 Z" style="fill:#12213b;"/>
		<path d="M 270.185822 64.03907 C 270.184989 64.244139 270.018311 64.410816 269.814242 64.411983 L 220.222144 64.498544 C 220.015019 64.499711 219.848342 64.333033 219.849286 64.126964 L 219.847508 63.115787 C 219.848342 62.910717 220.015019 62.74404 220.219088 62.742873 L 269.811186 62.656312 C 270.018311 62.655145 270.184989 62.821823 270.184044 63.027892 L 270.185822 64.03907 Z" style="fill:#12213b;"/>
	</g>
	<g id="surface4">
	</g>
</svg>
