<?xml version="1.0" encoding="utf-8"?>
<svg xmlns="http://www.w3.org/2000/svg" width="490pt" height="280pt" viewBox="0 0 490 280" version="1.1" xmlns:xlink="http://www.w3.org/1999/xlink">
	<g id="surface2">
		<path d="M 321.533797 75.87267 C 327.730458 105.033854 319.610446 133.479205 299.039266 154.809602 Q 294.382732 159.625211 291.136173 161.497947 Q 286.703789 164.043134 284.58521 159.863822 C 283.384923 157.513863 284.715362 155.156673 286.60979 153.638238 C 305.742072 138.309274 315.112986 114.318 313.898238 90.088114 C 313.016099 72.445345 305.055161 54.665193 291.924313 42.532174 C 282.792011 34.086782 271.924354 28.092579 259.892563 25.63416 Q 242.611326 22.105607 226.653296 26.284918 C 210.275889 30.57269 195.850756 41.013739 186.631686 55.496717 C 175.019273 73.732399 172.452395 96.624616 178.764746 117.275333 Q 185.366323 138.880495 203.42847 153.905772 C 207.542706 157.325866 203.811694 164.368512 198.605631 161.570254 C 195.973677 160.153047 193.811715 157.730782 191.881133 155.872507 C 178.12845 142.64043 169.082915 125.294116 166.646188 106.320908 C 163.703316 83.399769 170.109666 58.844505 185.568782 41.288503 Q 193.450183 32.329736 203.370625 26.125844 Q 227.246209 11.172874 255.857865 15.388339 Q 279.762371 18.916893 297.593137 34.853231 C 309.053707 45.091821 318.214932 60.290634 321.533797 75.87267 Z" style="fill:#038d69;"/>
		<path d="M 274.46954 69.307246 C 274.520155 69.097557 274.35385 68.895099 274.136931 68.90233 C 257.8246 69.401244 240.904894 76.675271 233.956246 91.917467 Q 231.266447 97.832133 232.813805 104.057717 C 233.594714 107.174124 234.860077 110.05192 235.221609 113.291249 Q 235.57591 116.487193 236.103747 120.182052 Q 237.940331 133.09598 248.178921 140.680925 Q 249.010445 141.29553 248.019847 141.006304 Q 238.526013 138.244198 231.52675 134.54934 C 226.877446 132.090921 219.415423 127.159622 212.004013 123.385227 Q 198.865934 116.689651 184.419109 117.268102 C 183.956348 117.289794 183.52974 116.993338 183.385127 116.552269 C 174.288978 88.403375 183.110363 57.861137 207.058253 40.341289 Q 221.259237 29.958085 238.909237 28.743337 Q 271.331441 26.509068 292.34369 49.307286 Q 296.884534 54.231355 300.695083 60.912469 C 310.572142 78.229859 311.89535 97.91167 306.226525 116.90657 Q 306.125296 117.231949 305.778226 117.217488 Q 288.583756 116.255812 273.847705 120.847271 Q 260.261326 125.084428 244.100839 133.471974 Q 243.732076 133.667201 243.55131 133.291208 C 240.615669 127.405464 238.61278 119.357758 241.107352 113.038176 C 241.186889 112.835718 241.447193 112.770642 241.613497 112.915255 C 242.459483 113.631089 243.565771 114.166156 244.635906 114.354153 C 261.136234 117.159643 270.463764 98.547967 271.794202 85.395427 Q 272.575112 77.680331 274.46954 69.307246 Z M 218.851432 106.183526 Q 225.23609 110.109766 230.210773 115.547209 Q 231.497827 116.949954 233.66702 118.193625 Q 234.079167 118.425005 234.050245 117.955013 Q 233.88394 114.838606 233.341641 111.801736 C 232.300429 105.908762 227.116058 102.886353 221.75092 101.519761 Q 217.13777 100.341167 212.047397 99.393952 C 211.685865 99.328876 211.360486 99.639794 211.418331 100.008557 Q 211.62802 101.310073 212.025705 102.676664 C 214.563661 111.469126 217.376381 121.223264 228.287422 121.570335 C 229.748012 121.613719 231.656902 121.281109 232.915034 120.630351 Q 235.669909 119.191453 232.611346 118.634694 Q 228.583878 117.904399 225.735005 114.722916 Q 222.445062 111.05698 218.728511 106.313678 Q 218.417594 105.915992 218.851432 106.183526 Z" style="fill:#038d69;"/>
		<path d="M 243.746537 103.573264 C 242.076259 106.588442 241.562883 110.50022 238.200634 112.944178 C 237.882485 113.175558 237.434186 113.009253 237.347418 112.618799 Q 236.646045 109.343317 238.518782 105.229081 C 243.059626 95.229102 251.678553 86.834325 260.825316 80.941351 Q 263.1102 79.466299 261.186849 81.389651 C 254.527426 88.027381 248.663375 94.686803 243.746537 103.573264 Z" style="fill:#038d69;"/>
	</g>
	<g id="surface4">
	</g>
</svg>
