<?xml version="1.0" encoding="utf-8"?>
<svg xmlns="http://www.w3.org/2000/svg" width="490pt" height="280pt" viewBox="0 0 490 280" version="1.1" xmlns:xlink="http://www.w3.org/1999/xlink">
	<g id="surface2">
		<path d="M 311.682071 88.425538 C 311.607749 88.685667 311.700652 88.973667 311.914329 89.140893 C 314.924392 91.482052 317.581422 94.594308 319.653163 97.725145 Q 337.146828 124.239707 353.655719 149.62085 C 355.077138 151.813365 356.30346 154.368202 357.585523 156.727942 C 359.24849 159.803037 357.808491 163.240454 355.058557 165.17284 Q 353.507074 166.269097 349.958174 166.315549 Q 337.369795 166.482774 325.422449 166.501355 Q 231.766772 166.65 140.219997 166.519935 Q 137.525806 166.510645 135.528388 165.293614 C 129.480392 161.586778 132.3511 155.919685 135.519097 151.060849 Q 152.92915 124.453384 169.69817 97.920241 Q 172.940491 92.791987 177.474165 89.085151 C 177.752874 88.852893 177.864358 88.48128 177.752874 88.137539 Q 176.554424 84.374961 175.476747 80.352254 Q 168.601913 54.655239 161.494821 28.558741 Q 160.955983 26.561323 160.389274 24.619647 C 159.320887 20.922102 161.792111 18.618103 165.248109 18.618103 Q 237.071543 18.701716 309.684653 18.580942 Q 316.968261 18.571652 324.511998 18.841071 C 329.798188 19.026877 329.723865 23.123906 328.646189 26.960807 C 324.846449 40.441056 320.721549 54.255756 317.033293 68.451359 Q 314.599231 77.853159 311.682071 88.425538 Z M 166.353657 24.916937 Q 167.078301 28.744548 167.942301 31.847513 Q 174.575586 55.86298 181.013775 80.324383 C 181.524743 82.284639 182.360871 84.161283 183.141258 86.047217 C 183.327064 86.502443 183.772999 86.799733 184.265386 86.799733 L 304.788657 86.939088 Q 305.262463 86.939088 305.550463 86.548894 Q 306.94401 84.64438 307.640784 82.108123 Q 314.032521 58.770849 320.517162 35.322091 Q 321.966451 30.063773 323.666579 25.149195 C 323.787353 24.796163 323.517934 24.424551 323.146321 24.424551 L 166.799592 24.378099 Q 166.251463 24.378099 166.353657 24.916937 Z M 160.026951 123.273514 Q 149.556765 140.144728 139.448901 155.17646 Q 138.631353 156.393491 138.473418 157.601232 C 138.408386 158.13078 138.83574 158.595296 139.393159 158.595296 L 350.627076 158.576715 C 351.193786 158.576715 351.62114 158.056458 351.518947 157.489748 Q 351.240237 156.031169 350.292625 154.572589 C 339.190697 137.478407 328.014447 121.053128 317.432777 103.903205 C 315.351746 100.540111 311.449813 94.315599 307.315623 93.433019 Q 304.788657 92.903471 302.178078 92.903471 Q 242.933732 92.912761 186.374288 92.903471 Q 179.861776 92.903471 176.210682 98.078177 Q 171.621266 104.599979 160.026951 123.273514 Z" style="fill:#1f1e21;"/>
		<path d="M 166.353657 24.916937 Q 166.251463 24.378099 166.799592 24.378099 L 323.146321 24.424551 C 323.517934 24.424551 323.787353 24.796163 323.666579 25.149195 Q 321.966451 30.063773 320.517162 35.322091 Q 314.032521 58.770849 307.640784 82.108123 Q 306.94401 84.64438 305.550463 86.548894 Q 305.262463 86.939088 304.788657 86.939088 L 184.265386 86.799733 C 183.772999 86.799733 183.327064 86.502443 183.141258 86.047217 C 182.360871 84.161283 181.524743 82.284639 181.013775 80.324383 Q 174.575586 55.86298 167.942301 31.847513 Q 167.078301 28.744548 166.353657 24.916937 Z" style="fill:#00cffd;"/>
		<path d="M 224.529616 104.785785 L 261.997461 104.581398 C 262.471267 104.581398 262.889331 104.897269 263.019396 105.361785 L 263.967008 108.873524 C 264.152814 109.542427 263.641847 110.202039 262.954363 110.202039 L 223.916455 110.081265 C 223.256843 110.081265 222.764456 109.486685 222.89452 108.836363 L 223.507681 105.631204 C 223.600584 105.138817 224.027939 104.785785 224.529616 104.785785 Z" style="fill:#1f1e21;"/>
		<path d="M 193.918024 104.767204 L 206.840854 104.757914 C 207.463305 104.757914 207.927821 105.333914 207.788466 105.937784 L 207.00808 109.32875 C 206.905886 109.774685 206.515693 110.081265 206.060468 110.081265 L 192.412993 110.099846 C 191.71622 110.099846 191.242413 109.384491 191.530413 108.74346 L 193.035444 105.343204 C 193.184089 104.990172 193.537121 104.767204 193.918024 104.767204 Z" style="fill:#1f1e21;"/>
		<path d="M 211.72756 104.665011 L 219.912329 104.720753 C 220.479038 104.730043 220.906393 105.24101 220.81349 105.798429 L 220.23749 109.207975 C 220.163167 109.653911 219.772974 109.979072 219.317749 109.979072 L 210.52911 109.849007 C 209.897368 109.839717 209.460723 109.217266 209.674401 108.622686 L 210.854271 105.278172 C 210.993625 104.915849 211.337367 104.665011 211.72756 104.665011 Z" style="fill:#1f1e21;"/>
		<path d="M 281.386351 109.830427 L 268.082618 109.951201 C 267.692425 109.960491 267.339393 109.718943 267.200038 109.34733 L 265.927265 106.030687 C 265.695007 105.417526 266.150232 104.757914 266.800554 104.757914 L 280.271513 104.711462 C 280.680286 104.711462 281.033319 104.971591 281.163383 105.352494 L 282.268931 108.594815 C 282.473318 109.198685 282.027382 109.830427 281.386351 109.830427 Z" style="fill:#1f1e21;"/>
		<path d="M 297.077694 110.053394 L 287.434346 110.109136 C 286.904798 110.118426 286.412412 109.811846 286.180154 109.32875 L 285.018864 106.969009 C 284.572929 106.039978 285.241832 104.962301 286.273057 104.962301 L 295.944276 104.971591 C 296.483114 104.971591 296.966211 105.278172 297.198469 105.751978 L 298.322597 108.055976 C 298.777822 108.975718 298.108919 110.053394 297.077694 110.053394 Z" style="fill:#1f1e21;"/>
		<path d="M 302.280271 119.315839 L 291.921569 119.148614 C 291.559247 119.139323 291.243376 118.934936 291.094731 118.609775 L 288.734991 113.425779 C 288.456281 112.821908 288.892926 112.134425 289.552538 112.125135 L 299.706854 111.957909 C 300.069176 111.948619 300.403628 112.162296 300.552273 112.487457 L 303.12569 118.005905 C 303.41369 118.619066 302.958465 119.32513 302.280271 119.315839 Z" style="fill:#1f1e21;"/>
		<path d="M 190.164737 112.190167 L 203.552082 112.236618 C 204.220985 112.236618 204.66692 112.914812 204.416082 113.527972 L 202.409373 118.331066 C 202.270019 118.674808 201.944858 118.897775 201.573245 118.907065 L 187.8979 119.315839 C 187.210416 119.33442 186.73661 118.637646 187.01532 118.005905 L 189.300737 112.756876 C 189.458673 112.413134 189.793124 112.190167 190.164737 112.190167 Z" style="fill:#1f1e21;"/>
		<path d="M 209.692981 112.143715 L 218.974007 112.255199 C 219.317749 112.264489 219.568587 112.589651 219.475684 112.924102 L 217.989233 118.489001 C 217.933492 118.721259 217.719814 118.879195 217.487556 118.888485 L 207.472596 119.018549 C 207.100983 119.018549 206.840854 118.646937 206.970919 118.303195 L 209.191304 112.478167 C 209.265627 112.27378 209.470014 112.134425 209.692981 112.143715 Z" style="fill:#1f1e21;"/>
		<path d="M 269.160295 112.338812 L 282.324672 112.106554 C 282.770608 112.097264 283.170091 112.403844 283.272285 112.840489 L 284.470735 117.940873 C 284.61009 118.535453 284.164155 119.111452 283.541704 119.111452 L 270.683906 119.167194 C 270.265842 119.167194 269.89423 118.888485 269.773455 118.489001 L 268.259134 113.583714 C 268.073328 112.970553 268.519263 112.357393 269.160295 112.338812 Z M 276.598772 114.561148 C 276.592547 114.457004 275.988677 114.410552 275.250747 114.457469 C 274.511517 114.503456 273.926227 114.63352 273.929292 114.743053 C 273.935517 114.847197 274.539388 114.893649 275.277317 114.846733 C 276.016548 114.800746 276.601838 114.670681 276.598772 114.561148 Z" style="fill:#1f1e21;"/>
		<path d="M 264.756685 118.981388 L 222.522908 119.353001 C 221.854005 119.353001 221.352328 118.74913 221.473102 118.089518 L 222.392843 113.305005 C 222.495037 112.812618 222.922391 112.450296 223.433359 112.450296 L 263.558234 112.431715 C 264.03204 112.431715 264.450104 112.756876 264.580169 113.212102 L 265.769329 117.652873 C 265.945845 118.321776 265.444168 118.981388 264.756685 118.981388 Z" style="fill:#1f1e21;"/>
		<path d="M 186.049127 121.211064 L 198.600344 121.285386 C 199.185634 121.294677 199.585117 121.879967 199.38073 122.418805 L 197.745635 126.69235 C 197.61557 127.026802 197.299699 127.240479 196.946667 127.231189 L 184.005257 127.026802 C 183.392096 127.017511 182.992613 126.37648 183.262032 125.828351 L 185.287321 121.68487 C 185.426676 121.39687 185.723966 121.211064 186.049127 121.211064 Z" style="fill:#1f1e21;"/>
		<path d="M 205.865371 121.573386 L 216.530654 121.434031 C 216.892976 121.434031 217.143815 121.796354 217.01375 122.130805 L 214.979171 127.231189 C 214.904848 127.435576 214.709752 127.56564 214.486784 127.55635 L 204.044469 127.221898 C 203.691437 127.212608 203.459179 126.859576 203.579953 126.525125 L 205.400855 121.889257 C 205.475178 121.703451 205.660984 121.573386 205.865371 121.573386 Z" style="fill:#1f1e21;"/>
		<path d="M 221.389489 121.591967 L 266.447522 121.276096 C 266.930619 121.266806 267.367264 121.610547 267.478747 122.084354 L 268.463521 126.302157 C 268.612166 126.96177 268.110489 127.593511 267.441586 127.593511 L 220.116716 127.649253 C 219.401361 127.649253 218.890394 126.952479 219.113362 126.274286 L 220.395425 122.325902 C 220.53478 121.889257 220.934264 121.601257 221.389489 121.591967 Z" style="fill:#1f1e21;"/>
		<path d="M 305.643366 127.128995 L 294.522857 127.296221 C 294.160535 127.305511 293.835374 127.073253 293.7146 126.738802 L 292.163117 122.400224 C 291.95873 121.842805 292.367504 121.266806 292.952794 121.266806 L 304.370593 121.276096 C 304.742205 121.276096 305.067366 121.517644 305.17885 121.870676 L 306.442333 126.032738 C 306.600268 126.571576 306.210075 127.119705 305.643366 127.128995 Z" style="fill:#1f1e21;"/>
		<path d="M 285.938605 127.054673 L 273.071518 127.101124 C 272.699905 127.101124 272.374744 126.850286 272.281841 126.487963 L 271.278487 122.511708 C 271.148422 122.000741 271.538615 121.508354 272.058873 121.499064 L 284.972413 121.434031 C 285.344025 121.434031 285.678477 121.69416 285.762089 122.056483 L 286.718992 126.060609 C 286.839766 126.571576 286.458863 127.054673 285.938605 127.054673 Z" style="fill:#1f1e21;"/>
		<path d="M 180.289131 131.727702 Q 181.134549 129.005639 183.986677 129.126413 L 194.689121 129.563058 Q 196.398539 129.637381 195.8597 131.263186 L 194.856346 134.32899 Q 194.280347 136.09415 192.412993 136.103441 L 182.193646 136.112731 Q 178.914164 136.112731 179.889647 132.991185 Q 180.084744 132.359443 180.289131 131.727702 Z" style="fill:#1f1e21;"/>
		<path d="M 288.549184 135.741118 Q 282.612672 136.242795 274.920291 135.703957 Q 273.526743 135.601763 273.359517 134.217506 L 272.895002 130.306283 Q 272.792808 129.460865 273.647517 129.451574 L 286.040799 129.3308 Q 288.734991 129.302929 289.933441 131.718411 L 290.351506 132.55454 Q 291.791505 135.471699 288.549184 135.741118 Z" style="fill:#1f1e21;"/>
		<path d="M 296.36234 134.356861 L 295.154599 131.216734 Q 294.448535 129.367961 296.427372 129.358671 L 306.460914 129.32151 Q 309.062202 129.312219 310.232782 131.625508 C 311.384781 133.901636 311.06891 135.880473 308.142461 136.019828 Q 303.209303 136.252086 298.629177 136.010537 Q 296.95692 135.917634 296.36234 134.356861 Z" style="fill:#1f1e21;"/>
		<path d="M 200.374794 132.117895 Q 200.8486 129.60951 203.412727 129.60951 L 212.684463 129.62809 Q 213.994398 129.62809 213.687817 130.910154 L 212.740205 134.886409 Q 212.442915 136.112731 211.179432 136.112731 L 202.502277 136.09415 Q 199.622279 136.09415 200.161117 133.269894 Q 200.226149 132.907572 200.374794 132.117895 Z" style="fill:#1f1e21;"/>
		<path d="M 269.113843 135.685376 L 218.054266 135.666796 C 216.948718 135.666796 216.140461 134.62628 216.42846 133.557894 L 217.088073 131.012347 C 217.283169 130.278412 217.961362 129.758155 218.723168 129.758155 L 268.500682 129.869638 C 269.262488 129.869638 269.931391 130.389896 270.126487 131.133121 L 270.748939 133.585765 C 271.018358 134.654151 270.2101 135.685376 269.113843 135.685376 Z" style="fill:#1f1e21;"/>
		<path d="M 261.440042 140.154018 C 262.647783 140.154018 263.632556 141.138792 263.632556 142.346533 L 263.632556 150.336205 C 263.632556 153.021106 262.26688 155.20433 260.585333 155.20433 L 228.589484 155.20433 C 226.907937 155.20433 225.54226 153.021106 225.54226 150.336205 L 225.54226 142.346533 C 225.54226 141.138792 226.527034 140.154018 227.734775 140.154018 L 261.440042 140.154018 Z" style="fill:#1f1e21;"/>
	</g>
	<g id="surface4">
	</g>
</svg>
