<?xml version="1.0" encoding="utf-8"?>
<svg xmlns="http://www.w3.org/2000/svg" width="490pt" height="280pt" viewBox="0 0 490 280" version="1.1" xmlns:xlink="http://www.w3.org/1999/xlink">
	<g id="surface2">
		<path d="M 183.844232 109.06875 Q 179.239307 112.103532 174.342696 112.717936 C 164.87219 113.909507 155.600279 112.302128 148.084694 106.15809 C 147.910924 106.01535 147.972985 105.72987 148.190198 105.674015 Q 156.785644 103.390171 164.561885 98.959016 Q 164.921839 98.754215 164.50603 98.735597 Q 153.00613 98.350819 143.076373 92.119896 Q 136.981985 88.290734 133.190059 83.344473 Q 132.507388 82.457001 133.550012 82.866604 C 134.679522 83.313443 135.68491 83.865786 136.919924 83.983701 Q 144.267944 84.697403 151.4484 83.52445 C 151.646995 83.49342 151.826972 83.387916 151.9573 83.226557 Q 152.230368 82.879016 151.851796 82.73007 C 137.912899 77.014253 125.357963 67.674075 115.521297 56.366564 C 112.008646 52.338807 108.520818 48.397934 105.597746 43.917131 Q 105.33709 43.526147 105.771517 43.706124 C 106.32386 43.941956 106.634164 44.419825 107.11824 44.748748 Q 117.761699 51.997471 129.708438 55.168787 Q 134.791232 56.515511 139.793347 57.384364 Q 141.071803 57.607784 140.165713 56.676869 C 135.473903 51.885761 130.912421 47.417371 126.357145 41.993241 C 119.884184 34.291473 115.695068 26.173897 115.409587 15.983483 Q 115.409587 15.846949 115.527503 15.778682 Q 115.56474 15.760064 115.608182 15.760064 Q 115.695068 15.76627 115.726098 15.846949 Q 118.822941 24.169327 125.674474 30.952592 Q 134.30095 39.498389 143.721807 45.623808 C 156.562225 53.97101 170.718335 60.66739 185.817772 63.807676 C 186.152901 63.875943 186.481824 63.65873 186.543885 63.3236 C 191.0371 38.573681 209.723662 18.968616 234.337047 13.643784 C 252.955342 9.616026 271.126798 15.673178 284.922954 28.674954 C 294.418284 37.624148 301.753892 50.539038 303.77708 63.491165 C 303.808111 63.68976 303.994294 63.820088 304.192889 63.776646 C 319.509539 60.363292 333.485673 54.455086 346.642601 45.872052 Q 358.9555 37.841361 367.029633 28.445328 Q 371.709031 22.990168 374.328005 15.871773 Q 374.396272 15.679384 374.607279 15.660766 Q 374.63831 15.65456 374.663134 15.679384 Q 374.743814 15.747652 374.743814 15.853155 C 374.818287 23.821785 371.603528 31.529759 366.886893 38.164078 Q 359.427163 48.664796 349.435345 56.987174 Q 348.75888 57.545723 349.627734 57.427807 Q 362.697777 55.677687 374.328005 49.663978 C 377.350375 48.100042 380.509279 46.560929 383.159283 44.36397 Q 385.908584 42.086332 383.84816 45.003199 Q 371.50423 62.504395 355.126337 73.898792 C 349.931833 77.510741 344.395993 80.35934 338.655352 82.717657 Q 338.425727 82.810749 338.394696 83.058993 C 338.382284 83.170703 338.456757 83.276206 338.568467 83.294825 Q 346.487448 84.951853 354.785002 83.660984 C 355.740741 83.512038 356.497885 83.201733 357.335708 82.742482 Q 357.9377 82.413559 357.546715 82.972107 Q 353.258301 89.147175 346.152319 93.044605 Q 336.923851 98.102575 327.54023 98.568032 Q 326.069385 98.642505 327.335429 99.399649 C 331.735553 102.018623 336.954881 104.650008 342.025264 105.580923 C 342.217653 105.61816 342.28592 105.866404 342.130767 105.990526 Q 338.965657 108.578469 335.173731 110.359619 C 330.041288 112.761379 323.593152 113.288897 317.802862 112.879295 Q 312.124283 112.469692 307.0539 109.751421 Q 306.234695 109.316994 306.613267 110.161024 C 308.748165 114.883864 313.247586 117.99312 318.535182 118.253776 Q 320.682492 118.359279 322.724298 118.179303 Q 323.568328 118.104829 322.879451 118.601317 C 318.913754 121.462329 314.588104 122.095351 309.623225 121.716779 Q 309.238447 121.691954 309.139149 122.06432 Q 308.884699 123.020059 308.419242 123.888913 Q 306.470527 127.513274 304.050149 131.100399 C 303.845347 131.404498 303.913615 131.807894 304.205301 132.025108 Q 306.693947 133.855907 309.703904 135.258485 Q 310.063858 135.42605 310.411399 135.23366 C 314.110234 133.16703 318.597243 133.56422 321.222422 136.828628 C 324.015167 140.291631 323.320084 145.870913 321.241041 149.638014 C 318.175228 155.192472 312.217374 162.037799 305.396872 160.051847 C 299.134919 158.227254 298.768759 151.642584 301.257405 146.708736 C 301.387733 146.454286 301.331878 146.143981 301.114664 145.951592 Q 299.966536 144.908968 298.638431 144.040114 Q 288.435606 137.368558 275.725516 133.886937 Q 273.90713 133.390449 271.983239 133.303564 C 271.641904 133.291152 271.319187 133.427686 271.089561 133.67593 Q 266.683231 138.392564 261.501139 142.507208 C 260.315775 143.450535 260.408866 145.101357 260.228889 146.485317 C 260.17924 146.888713 259.92479 147.230048 259.552425 147.397613 Q 257.330641 148.378177 255.264011 149.706282 Q 250.0633 153.057575 245.11704 156.93018 C 244.83156 157.153599 244.428163 157.134981 244.167507 156.886737 Q 240.437642 153.361673 235.789274 150.289655 C 234.008124 149.110496 232.059409 148.378177 230.129313 147.552765 Q 229.297696 147.199018 229.099101 146.212248 Q 228.615025 143.785664 227.088325 142.196903 Q 222.874384 137.796779 218.641825 133.353213 C 218.250841 132.94361 217.667468 132.782252 217.121331 132.918786 Q 207.172956 135.419843 198.186525 139.962707 C 195.30069 141.414934 192.476915 143.500183 189.615904 145.330982 C 189.305599 145.529577 189.169065 145.920562 189.293187 146.268103 C 191.186047 151.555699 191.483939 157.166012 185.600558 159.772573 Q 183.583576 160.672457 181.516946 160.306297 C 174.864008 159.139551 169.861893 152.002538 168.000064 146.019859 C 166.789874 142.12243 167.056737 138.051229 170.736953 135.525347 Q 175.726656 132.099581 180.846687 135.196424 Q 181.119755 135.357782 181.386617 135.190218 L 185.464024 132.565038 Q 186.705244 131.764452 185.941894 130.498408 L 181.163198 122.548396 C 180.977015 122.231885 180.629473 122.045702 180.263314 122.058114 C 175.627358 122.20706 171.643043 121.499565 167.615286 118.979889 Q 166.39889 118.210333 167.832499 118.322043 C 173.790353 118.762676 182.590601 115.982344 184.05524 109.211491 Q 184.129713 108.876361 183.844232 109.06875 Z M 217.146155 119.166072 L 219.473442 118.843355 C 219.864426 118.7875 220.007167 118.303425 219.709274 118.048975 Q 214.874723 113.890889 211.417927 109.956222 C 207.880451 105.928465 205.460072 101.658669 203.163816 96.786882 Q 201.215101 92.659827 200.402102 89.693312 C 195.325514 71.199139 199.707019 50.985877 214.129992 37.723445 Q 216.575194 35.470632 222.452369 31.30634 Q 224.047337 30.170624 223.668765 27.607505 C 227.342775 24.281037 231.029197 21.314522 235.919603 20.923537 C 238.38963 20.724942 240.586588 19.94918 243.062822 19.849882 Q 249.784026 19.589226 256.263192 21.091102 Q 259.024906 21.73033 261.954185 23.468038 Q 269.668365 28.023314 274.273289 35.514074 Q 276.395775 37.202133 278.865802 39.89558 C 282.117798 43.439262 284.742977 46.939501 286.79099 51.376861 C 293.208095 65.321964 293.363248 81.606766 286.970966 95.620136 Q 281.73302 107.126242 273.596825 115.585154 Q 272.281132 116.950495 270.481363 118.073799 Q 270.270356 118.204127 270.177265 118.439959 Q 270.090379 118.67579 270.226913 118.880592 Q 270.338623 119.054362 270.710989 119.097805 Q 271.300568 119.166072 272.132186 119.339843 Q 274.279496 120.221109 276.941912 120.121811 Q 277.252217 120.115605 277.481842 119.898392 Q 286.741341 111.122969 293.0095 99.455504 Q 301.642183 83.387916 298.694286 64.049714 Q 297.310326 54.95778 291.693807 45.102496 C 283.743795 31.157393 270.735814 21.879277 255.245392 17.938404 Q 249.88953 16.573063 242.529097 17.001283 Q 239.649468 17.162642 236.118198 18.050114 Q 232.891027 18.863113 229.756947 19.713348 Q 226.293944 20.650469 221.825553 22.952932 Q 210.046379 29.034908 202.096367 39.684572 C 199.84976 42.700736 198.062403 45.369358 196.517085 48.695827 Q 189.740026 63.342219 190.776444 78.603014 C 191.850099 94.316855 200.718613 108.373667 211.659965 119.12263 C 213.366642 120.798276 215.346387 120.3142 217.146155 119.166072 Z M 246.178283 74.916592 Q 244.217156 80.049035 247.23332 83.344473 C 249.293744 85.591081 253.799371 87.974223 257.101016 89.184412 Q 259.719989 90.140151 261.525964 88.892725 C 263.691892 87.390849 264.349738 82.512856 264.486273 80.173157 Q 264.511097 79.782173 264.132525 79.682875 L 259.043524 78.342358 Q 260.142004 71.130872 261.203247 63.981447 C 261.445284 62.355449 261.513552 60.754276 261.774208 59.115866 C 262.91613 51.922998 263.623625 44.612214 264.368357 37.580705 C 264.399387 37.2704 264.777959 37.12766 265.007585 37.344873 L 268.51403 40.634105 L 269.482182 41.732585 C 269.593891 41.862913 269.804899 41.813264 269.848341 41.645699 C 271.312981 35.749906 268.296817 30.183036 263.319526 26.831743 C 260.917766 24.777524 255.667407 21.792391 252.477473 22.897077 C 250.100537 23.722488 249.355805 26.862773 249.374423 29.171442 Q 249.393042 30.791234 247.860135 30.257509 Q 246.923015 29.934792 246.488588 28.588069 Q 246.184489 27.657154 246.352054 26.695209 Q 247.078167 22.592978 251.372787 21.500705 Q 251.385199 21.500705 251.385199 21.488292 L 251.347963 21.314522 Q 251.33555 21.227636 251.248665 21.233842 Q 248.561425 21.401407 246.53203 22.754336 Q 246.234138 22.959138 245.874184 22.897077 L 245.042567 22.760542 Q 244.676407 22.698482 244.564697 23.052229 C 243.98753 24.802349 243.19315 28.768046 240.648649 28.532214 Q 239.66188 28.445328 239.897711 27.483383 Q 240.630031 24.510662 242.144319 22.146139 Q 242.287059 21.922719 242.541509 21.84204 Q 242.68425 21.798597 242.808372 21.705506 Q 243.435187 21.215224 242.696662 21.513117 Q 241.529915 21.98478 240.257665 22.481268 C 238.395836 23.207382 238.066912 26.198721 237.886936 27.849543 Q 237.818669 28.42671 237.235295 28.476359 L 235.789274 28.594275 Q 235.22452 28.637718 235.261756 28.072963 Q 235.47897 24.945089 236.881548 22.313703 Q 237.086349 21.928925 236.682953 22.102696 L 233.72885 23.412183 C 233.536461 23.499068 233.406133 23.685251 233.393721 23.896258 Q 233.282011 25.65879 233.232362 27.588887 Q 233.182713 29.568632 231.165731 29.307976 Q 230.811984 29.264533 230.743717 28.910786 C 230.427206 27.334437 230.84922 25.782912 231.333296 24.287243 Q 231.550509 23.604572 231.035403 24.10106 Q 227.746171 27.2972 227.79582 31.349782 C 227.808232 32.094514 228.515727 32.628239 229.235635 32.429644 L 232.512455 31.517347 C 232.928263 31.399431 233.33166 31.746973 233.282011 32.175193 Q 232.804141 36.308455 232.078028 40.373449 C 231.786341 42.011859 231.904257 43.613033 231.637395 45.23903 Q 231.345708 46.98915 231.246411 48.795125 Q 231.159525 50.340443 230.836808 51.954029 C 230.625801 53.03389 230.830602 54.039278 230.669243 55.044665 Q 229.850038 60.01575 229.428024 65.024071 Q 229.248047 67.171381 228.863269 69.188363 Q 228.459872 71.310849 228.211629 73.495395 Q 228.087507 74.575257 227.007645 74.475959 C 225.524388 74.345631 222.973682 73.942234 221.552485 74.370455 C 221.341478 74.432516 221.161501 74.581463 221.055997 74.786264 C 219.616182 77.665893 218.970748 81.526087 221.316653 84.182297 Q 223.079185 86.186866 224.761038 87.45291 Q 225.183053 87.769421 224.841717 87.366025 C 223.395696 85.684172 221.962088 83.642366 221.800729 81.315079 Q 221.664195 79.391189 222.048973 78.224442 Q 223.228132 74.68076 224.357642 78.336152 Q 224.432115 78.57819 224.537618 79.782173 C 224.928603 84.151266 228.919124 88.55139 232.549691 90.72973 Q 232.729668 90.84144 232.574516 90.692494 Q 228.757765 87.111575 226.604249 81.85501 Q 225.605067 79.416013 227.324156 77.287321 C 227.659286 76.871513 228.323338 77.014253 228.459872 77.529359 Q 230.725098 86.224103 237.222883 91.220012 Q 237.917966 91.753736 238.749583 91.915095 Q 239.332957 92.026805 238.861293 91.660645 Q 233.393721 87.353613 231.022991 79.73873 C 230.973342 79.577372 230.948518 79.416013 230.948518 79.248448 Q 230.954724 77.268703 231.997348 76.977017 Q 233.375102 76.592238 233.641964 78.001023 Q 235.292787 86.850919 243.726874 91.38137 Q 244.086828 91.57376 244.471606 91.449638 Q 244.875002 91.313103 244.508842 91.089684 Q 240.183192 88.433474 237.837287 83.505832 C 237.024288 81.799155 235.069367 76.93978 238.842675 76.902543 Q 239.277102 76.896337 239.308132 77.324558 Q 240.021833 86.081363 246.972663 90.164975 Q 247.704983 90.593196 247.723601 89.742961 Q 247.736014 89.327152 247.301587 89.271297 C 247.0099 89.23406 246.75545 89.06029 246.606504 88.812046 Q 245.719032 87.328788 244.626758 85.851737 Q 243.472424 84.300212 242.913875 82.636978 C 242.082258 80.166951 242.342914 76.579826 244.452988 74.742821 Q 246.035543 73.371273 246.178283 74.916592 Z M 244.037179 21.649651 Q 244.310247 22.164757 244.651583 22.431619 Q 245.017742 22.7171 245.048773 22.251642 L 245.073597 21.935131 C 245.08601 21.724124 244.937063 21.537941 244.732262 21.506911 L 244.192331 21.432437 Q 243.906851 21.395201 244.037179 21.649651 Z M 231.717888 36.029925 C 231.637395 35.63199 231.252617 35.371334 230.85102 35.447359 L 227.05084 36.192959 C 226.647692 36.271218 226.387036 36.662202 226.468336 37.059827 L 226.480313 37.120709 C 226.560806 37.518644 226.945584 37.7793 227.347181 37.703275 L 231.147361 36.957675 C 231.550509 36.879416 231.811165 36.488432 231.729866 36.090807 L 231.717888 36.029925 Z M 223.426727 36.7615 C 213.645916 43.128957 205.987591 53.710354 204.349181 65.508147 C 204.293326 65.880513 204.498127 66.246673 204.845669 66.401825 Q 211.920621 69.529699 217.580582 73.904998 Q 217.872269 74.128417 218.052246 73.811906 Q 218.865245 72.347267 218.753535 70.777124 Q 218.486673 67.121733 219.982342 64.180042 Q 220.211968 63.720791 220.125083 63.218097 Q 219.672037 60.543268 220.882227 57.707082 Q 221.204944 56.949938 221.192531 56.11832 C 221.173913 54.852276 221.186325 53.654499 221.403539 52.388455 Q 222.446163 46.411983 223.53223 40.280358 Q 223.823917 38.598505 223.72462 36.910446 Q 223.706001 36.581523 223.426727 36.7615 Z M 231.283399 41.482789 C 231.209174 40.981647 229.94313 40.764433 228.458383 40.992135 C 226.976615 41.217479 225.834693 41.807058 225.909414 42.305097 C 225.983639 42.80624 227.249683 43.023453 228.73443 42.795751 C 230.216198 42.570408 231.35812 41.980829 231.283399 41.482789 Z M 272.907948 41.912562 Q 271.437103 52.282952 270.140028 62.045144 C 269.674571 65.545384 269.519418 69.051829 269.376678 72.589305 C 269.35806 72.961671 269.680777 73.259564 270.053143 73.222327 Q 271.368836 73.091999 272.560406 72.458977 C 276.861232 70.156515 281.106204 67.425831 285.649068 65.601238 C 285.897311 65.501941 286.046258 65.241285 286.002815 64.974423 Q 283.613467 50.930022 273.056894 41.856707 Q 272.932772 41.751203 272.907948 41.912562 Z M 269.357998 46.177578 C 269.494594 46.008586 269.463563 45.760342 269.294447 45.628277 L 265.685601 42.767948 C 265.516485 42.632469 265.268241 42.663499 265.136299 42.831499 L 265.113151 42.860667 C 264.976554 43.029659 265.007585 43.277903 265.176701 43.409969 L 268.785547 46.270298 C 268.954663 46.405777 269.202907 46.374746 269.334849 46.206747 L 269.357998 46.177578 Z M 230.289368 47.002803 C 230.178962 46.505074 228.888093 46.36854 227.39534 46.69374 C 225.90296 47.02018 224.785862 47.684233 224.892669 48.17948 C 225.003076 48.677209 226.293944 48.813743 227.786697 48.488543 C 229.279077 48.162102 230.396175 47.49805 230.289368 47.002803 Z M 268.758489 51.124583 C 268.905015 50.942434 268.873984 50.675572 268.687801 50.531963 L 265.215303 47.799356 C 265.032409 47.653202 264.765547 47.684233 264.622683 47.870044 L 264.545913 47.967541 C 264.399387 48.14969 264.430418 48.416553 264.616601 48.560162 L 268.089099 51.292769 C 268.271993 51.438922 268.538855 51.407892 268.681719 51.222081 L 268.758489 51.124583 Z M 152.528261 64.316576 C 147.836451 63.422898 143.132228 63.205685 138.378357 62.280976 C 134.561606 61.54245 130.614528 60.816337 127.108082 59.308255 Q 126.034427 58.842798 124.91733 58.408371 Q 124.15398 58.116684 124.762177 58.656615 Q 131.433733 64.577232 138.936906 70.156515 Q 142.257168 72.626542 146.198041 74.56905 Q 153.874984 78.360976 162.259423 81.501262 C 162.495255 81.588147 162.58214 81.879834 162.433194 82.084635 Q 162.191156 82.413559 161.862232 82.630772 C 157.710353 85.330425 153.297817 87.862513 148.494297 88.880313 Q 148.264671 88.929962 148.17158 89.147175 C 148.128137 89.252679 148.177786 89.370595 148.28329 89.420243 Q 155.116204 92.473644 162.383545 93.27423 Q 168.279338 93.932077 174.274429 94.546481 C 174.404757 94.558893 174.473024 94.701633 174.410963 94.813343 C 171.599601 99.722366 166.585073 103.352934 161.787759 106.288418 C 161.533309 106.449777 161.589164 106.834555 161.880851 106.909028 C 168.453109 108.597087 176.012136 108.094393 181.889311 104.439001 Q 183.471866 103.452232 184.9303 102.397195 C 185.637795 101.882089 186.63077 102.049653 187.133464 102.763355 Q 189.119416 105.587129 189.454545 109.652124 C 189.696583 112.60002 187.158289 115.436207 186.810747 118.489607 C 186.494236 121.251321 188.846348 124.83224 190.683353 126.787161 C 190.962627 127.078847 191.37223 127.202969 191.76942 127.109878 Q 193.494715 126.694069 195.114507 126.048635 Q 201.103392 123.646875 206.868857 121.785046 Q 207.470848 121.592657 206.968154 121.214085 C 205.472485 120.084575 204.467097 118.768882 203.250701 117.415952 C 194.605607 107.815119 188.213326 96.606905 186.227374 84.25677 Q 186.041191 83.114848 184.886857 83.058993 L 183.192592 82.98452 Q 181.870693 82.922459 182.323738 84.169884 Q 182.919524 85.8145 184.166949 87.235697 Q 185.457818 88.700336 183.614607 89.333358 L 183.000203 89.538159 C 182.019639 89.879495 180.933572 89.643663 180.176428 88.929962 C 177.743638 86.633705 176.074197 82.270818 178.116004 79.322922 C 179.953009 76.666712 182.708516 77.839664 185.18475 78.987792 Q 185.495054 79.130533 185.495054 78.789197 L 185.451612 69.219394 C 185.445406 68.896677 185.21578 68.617402 184.899269 68.561547 C 168.732383 65.595032 153.763274 58.327691 139.998148 48.522056 Q 139.687844 48.298637 139.32789 48.267606 C 139.098264 48.248988 138.96173 48.509644 139.10447 48.689621 Q 144.609279 55.460474 151.429781 62.175472 Q 152.205544 62.938822 152.788917 63.950416 Q 153.061985 64.42208 152.528261 64.316576 Z M 338.636734 63.615287 Q 337.774086 63.68976 338.431933 63.125005 C 341.938378 60.133666 344.557352 56.602396 347.85279 53.393843 C 349.317429 51.966441 350.372466 50.26597 351.570243 48.639972 Q 351.607479 48.584117 351.601273 48.522056 Q 351.588861 48.40414 351.520594 48.360698 Q 351.377854 48.280018 351.24132 48.379316 Q 343.278896 54.08272 334.49106 58.650408 Q 329.730983 61.126642 324.840578 62.851937 Q 315.202507 66.259085 305.185865 68.387777 Q 304.825911 68.46225 304.825911 68.834616 L 304.788674 78.497511 Q 304.788674 79.37257 305.489964 78.851258 C 309.952148 75.537202 313.725456 78.429244 313.154495 83.387916 C 312.881426 85.733821 311.497467 90.022235 308.493715 89.662281 Q 306.588443 89.432656 305.309987 87.992841 Q 304.974857 87.620475 305.390666 87.341201 C 306.886336 86.317194 308.276502 85.125623 308.003433 83.096229 C 307.972403 82.879016 307.773808 82.723863 307.556594 82.748688 L 304.714201 83.052787 C 304.199095 83.108642 303.770874 83.487214 303.665371 83.996114 C 300.506467 98.95281 293.344629 110.93058 282.663934 121.307176 C 282.477751 121.487153 282.539812 121.803664 282.78185 121.902962 Q 291.507624 125.45285 297.986791 127.842198 Q 299.041827 128.226976 299.687262 127.296061 C 301.940075 124.037859 302.498624 120.531414 302.796517 116.770518 Q 302.895814 115.47965 302.486212 114.046041 C 301.88422 111.917349 301.182931 109.571444 301.443587 107.436547 Q 301.71045 105.22097 303.317829 102.465462 C 303.652958 101.894501 304.422515 101.776585 304.90659 102.223424 Q 308.996409 105.965701 314.420539 107.126242 C 319.298532 108.168866 324.250998 108.404698 328.886954 106.611136 C 329.14761 106.511838 329.17864 106.15809 328.942809 106.009144 C 323.990342 102.899889 319.354387 99.740985 316.226513 94.7699 C 316.139628 94.633366 316.220307 94.453389 316.37546 94.422359 Q 317.641504 94.143084 318.839281 94.081023 C 326.913415 93.690039 334.472442 92.684651 341.863905 89.383007 Q 343.005827 88.874107 341.770814 88.706542 C 336.954881 88.061108 332.176186 85.05115 328.520794 81.960513 C 328.210489 81.699857 328.309787 81.203369 328.694565 81.085454 Q 345.804778 75.816476 359.420957 63.993859 Q 362.312999 61.480389 365.198834 58.88624 Q 365.260895 58.830385 365.254689 58.749706 Q 365.242277 58.613172 365.155392 58.594554 Q 365.006445 58.557317 364.882323 58.63179 Q 363.603867 59.36411 363.014288 59.531674 C 358.651401 60.74807 354.052682 62.001702 349.565673 62.52922 Q 344.06707 63.168448 338.636734 63.615287 Z M 229.581501 52.872841 C 229.539734 52.438104 229.161162 52.121593 228.725121 52.159326 L 225.115716 52.487815 C 224.680359 52.52499 224.363848 52.909768 224.402201 53.344195 L 224.408966 53.418357 C 224.450733 53.853095 224.829305 54.169606 225.265345 54.131872 L 228.87475 53.803384 C 229.310108 53.766209 229.626619 53.381431 229.588265 52.947004 L 229.581501 52.872841 Z M 267.949275 56.217618 L 268.358878 55.60942 C 268.396114 55.559772 268.383702 55.485298 268.327847 55.454268 L 266.832178 54.442674 C 265.4296 53.493141 264.225616 52.816676 264.144937 52.934592 L 263.890487 53.313164 C 263.816014 53.424874 264.889669 54.287521 266.298453 55.237054 L 267.794123 56.248648 C 267.849978 56.279679 267.918245 56.267267 267.949275 56.217618 Z M 227.727553 59.494438 C 227.919942 59.488232 228.087507 59.370316 228.155774 59.196545 L 228.596407 58.160127 C 228.732941 57.831204 228.472285 57.465044 228.112331 57.489868 L 224.351435 57.769143 C 224.15284 57.781555 223.985276 57.918089 223.923215 58.104272 L 223.64394 58.985538 C 223.538437 59.302049 223.78668 59.624766 224.12181 59.612354 L 227.727553 59.494438 Z M 267.459366 60.714743 C 267.552085 60.549475 267.49623 60.344673 267.336051 60.248044 L 263.066441 57.763123 C 262.903718 57.669845 262.69271 57.7257 262.599743 57.886438 L 262.518567 58.025889 C 262.425848 58.191157 262.481703 58.395958 262.641882 58.492587 L 266.911492 60.977509 C 267.074216 61.070787 267.285223 61.014932 267.37819 60.854194 L 267.459366 60.714743 Z M 226.492539 64.887537 C 226.647692 64.893743 226.796638 64.837888 226.914554 64.732385 L 227.963385 63.789058 C 228.404018 63.385661 228.0813 62.653342 227.485515 62.709197 L 223.625322 63.06915 C 223.401902 63.087769 223.203307 63.230509 223.110216 63.43531 L 222.874384 63.981447 C 222.700613 64.391049 222.998506 64.844095 223.439139 64.850301 L 226.492539 64.887537 Z M 266.964119 65.726167 C 267.092834 65.483323 266.08124 64.682736 264.699762 63.936018 C 263.319526 63.193272 262.090719 62.78367 261.958777 63.031107 C 261.830063 63.273952 262.841657 64.074538 264.223134 64.821256 C 265.60337 65.564002 266.832178 65.973604 266.964119 65.726167 Z M 265.675795 70.517213 C 265.864026 70.224782 265.088264 69.393164 263.950376 68.672512 C 262.810626 67.947144 261.736971 67.599602 261.54663 67.89675 C 261.358399 68.189181 262.134161 69.020799 263.272049 69.741451 C 264.411799 70.466819 265.485454 70.814361 265.675795 70.517213 Z M 226.163616 70.491644 C 226.343593 70.485438 226.511158 70.392346 226.622867 70.249606 L 227.262095 69.417989 C 227.5724 69.008386 227.280714 68.418807 226.765608 68.418807 L 222.886796 68.418807 C 222.601316 68.418807 222.359278 68.60499 222.284805 68.878058 L 222.011736 69.889652 C 221.900027 70.299255 222.222744 70.690239 222.644758 70.671621 L 226.163616 70.491644 Z M 264.771753 76.03369 C 264.98276 76.157812 265.243417 75.946804 265.156531 75.710972 L 264.629013 74.264952 C 264.604188 74.202891 264.560746 74.147036 264.498685 74.116005 L 261.352193 72.471389 C 261.190834 72.39071 260.992239 72.490008 260.961209 72.663778 L 260.824675 73.501602 C 260.806056 73.607105 260.855705 73.718815 260.948797 73.77467 L 264.771753 76.03369 Z M 204.006418 74.450762 C 204.169204 74.444928 204.28712 74.246333 204.280666 74.011184 C 204.268502 73.77467 204.131967 73.588487 203.972036 73.595065 C 203.80925 73.600899 203.691334 73.799494 203.697789 74.034643 C 203.709953 74.271158 203.846487 74.457341 204.006418 74.450762 Z M 208.743098 75.562026 C 208.538297 75.593057 208.463824 75.847507 208.61277 75.984041 Q 208.910663 76.250903 209.270617 76.139193 C 209.419563 76.095751 209.469212 75.915774 209.369914 75.797858 Q 209.115464 75.506171 208.743098 75.562026 Z M 269.837481 77.704247 C 270.053143 77.752779 270.270356 77.579008 270.329376 77.316738 C 270.388272 77.057696 270.257944 76.803246 270.045385 76.758686 C 269.829723 76.710154 269.61251 76.883925 269.55349 77.146195 C 269.494594 77.405237 269.624922 77.659687 269.837481 77.704247 Z M 213.651129 78.708642 C 213.770038 78.603014 213.739007 78.367183 213.577214 78.190619 C 213.41629 78.013435 213.186665 77.95758 213.069742 78.06296 C 212.950833 78.168587 212.981863 78.404419 213.143656 78.580983 C 213.304581 78.758167 213.534206 78.814022 213.651129 78.708642 Z M 279.652673 79.469199 C 279.827747 79.447044 279.945663 79.236036 279.918915 78.996481 C 279.889808 78.751961 279.72845 78.571984 279.555982 78.593271 C 279.380908 78.615426 279.262992 78.826434 279.289741 79.065989 C 279.318847 79.310509 279.480206 79.490486 279.652673 79.469199 Z M 274.292777 79.714713 C 274.478091 79.571166 274.490503 79.279479 274.320828 79.063693 C 274.155374 78.845052 273.863687 78.789197 273.682841 78.931131 C 273.497527 79.074678 273.485115 79.366364 273.65479 79.58215 C 273.820244 79.800791 274.111931 79.856646 274.292777 79.714713 Z M 271.206794 82.226507 C 271.437103 82.214963 271.610873 81.966719 271.591572 81.675902 C 271.573637 81.383346 271.375042 81.159927 271.146099 81.173208 C 270.91579 81.184751 270.74202 81.432995 270.761321 81.723813 C 270.779256 82.016368 270.977851 82.239788 271.206794 82.226507 Z M 276.879851 82.382528 C 276.879851 82.103254 276.656431 81.879834 276.377157 81.879834 C 276.097882 81.879834 275.874463 82.103254 275.874463 82.382528 C 275.874463 82.661802 276.097882 82.885222 276.377157 82.885222 C 276.656431 82.885222 276.879851 82.661802 276.879851 82.382528 Z M 281.534424 81.941895 Q 281.279974 82.196345 281.391684 82.568711 Q 281.503394 82.928665 281.813699 82.711451 Q 282.080561 82.519062 282.086767 82.171521 C 282.092973 81.879834 281.739226 81.730888 281.534424 81.941895 Z M 204.436066 82.7611 Q 204.28712 82.978313 204.299532 83.245176 C 204.311944 83.468595 204.5726 83.580305 204.740165 83.431359 Q 205.056676 83.139672 204.820844 82.767306 C 204.733959 82.624566 204.529158 82.624566 204.436066 82.7611 Z M 278.667517 85.617457 C 278.859596 85.591081 278.989924 85.380074 278.954984 85.147779 C 278.921657 84.914616 278.735474 84.753258 278.542775 84.782737 C 278.350696 84.809112 278.220368 85.02012 278.255308 85.252414 C 278.288635 85.485577 278.474818 85.646936 278.667517 85.617457 Z M 274.099519 85.603493 C 274.099519 85.280776 273.832657 85.013914 273.509939 85.013914 C 273.187222 85.013914 272.92036 85.280776 272.92036 85.603493 C 272.92036 85.92621 273.187222 86.193072 273.509939 86.193072 C 273.832657 86.193072 274.099519 85.92621 274.099519 85.603493 Z M 213.623078 87.318424 C 213.676946 87.136399 213.528 86.937804 213.292044 86.870034 C 213.056337 86.80127 212.826711 86.894361 212.775076 87.078496 C 212.721207 87.260521 212.870154 87.459116 213.10611 87.526887 C 213.341817 87.595651 213.571443 87.502559 213.623078 87.318424 Z M 270.568249 87.465323 C 270.568249 87.217079 270.363448 87.012277 270.115204 87.012277 C 269.86696 87.012277 269.662159 87.217079 269.662159 87.465323 C 269.662159 87.713566 269.86696 87.918368 270.115204 87.918368 C 270.363448 87.918368 270.568249 87.713566 270.568249 87.465323 Z M 271.403528 90.916906 C 271.691553 90.996592 272.008064 90.773173 272.106368 90.421722 C 272.206659 90.065678 272.0453 89.718136 271.756158 89.636464 C 271.468133 89.556778 271.151622 89.780197 271.053317 90.131648 C 270.953027 90.487692 271.114385 90.835234 271.403528 90.916906 Z M 215.116761 90.183594 C 215.116761 89.960174 214.936784 89.780197 214.713365 89.780197 C 214.489945 89.780197 214.309969 89.960174 214.309969 90.183594 C 214.309969 90.407013 214.489945 90.58699 214.713365 90.58699 C 214.936784 90.58699 215.116761 90.407013 215.116761 90.183594 Z M 267.873065 93.064588 C 268.141664 93.13149 268.420939 92.914277 268.500129 92.584174 C 268.582297 92.25643 268.427145 91.933713 268.16202 91.870287 C 267.893421 91.803385 267.614146 92.020599 267.534956 92.350701 C 267.452788 92.678445 267.60794 93.001162 267.873065 93.064588 Z M 228.075094 100.516747 C 227.293126 102.85024 226.591837 105.431977 226.691134 107.976477 C 226.908348 113.661263 233.672995 113.673675 237.576631 112.835852 Q 238.16621 112.71173 239.202628 111.985617 Q 240.605207 111.495335 241.250641 109.974841 Q 242.4298 107.895798 242.498067 105.115466 L 242.870433 101.764173 L 243.484836 98.350819 Q 243.615164 97.14063 244.558491 96.277982 Q 244.788117 96.066975 245.098422 96.129036 Q 246.383084 96.383486 246.420321 97.674354 C 245.632146 103.042629 244.775705 107.076593 245.601116 111.352595 Q 245.818329 112.488311 246.885778 112.047678 Q 255.512255 108.460553 255.468812 99.052108 Q 254.618576 98.139811 253.631807 97.767446 Q 249.330981 96.147654 246.289993 95.75667 Q 246.004512 95.719433 245.681795 95.769082 Q 245.22875 95.837349 244.893621 95.564281 Q 244.688819 95.402922 244.434369 95.384304 L 229.725916 94.409946 Q 229.390787 94.391328 229.316314 94.720251 L 228.075094 100.516747 Z M 270.40689 94.887816 C 270.40689 94.620954 270.189677 94.40374 269.922815 94.40374 C 269.655952 94.40374 269.438739 94.620954 269.438739 94.887816 C 269.438739 95.154678 269.655952 95.371892 269.922815 95.371892 C 270.189677 95.371892 270.40689 95.154678 270.40689 94.887816 Z M 245.979688 116.86361 Q 244.57711 118.353073 242.777341 118.210333 Q 240.847244 118.055181 233.455782 117.707639 Q 232.444188 117.664196 232.99653 119.420522 L 232.48763 130.423934 C 232.475218 130.721827 232.686225 130.976277 232.977912 131.01972 L 243.180737 132.521596 L 245.967276 133.297358 Q 246.289993 133.384243 246.376878 133.061526 Q 246.705801 131.851337 246.680977 130.554262 Q 246.606504 127.01058 246.469969 123.597226 Q 246.302405 119.637736 249.29995 117.111854 Q 250.634261 115.98855 251.832038 115.36794 Q 255.152301 113.648851 258.013312 111.712548 Q 258.187083 111.594632 258.230526 111.396037 Q 258.280174 111.191236 258.435327 111.060908 Q 261.377017 108.603293 261.476315 104.383146 Q 261.575613 100.069908 261.463903 96.457959 C 261.445284 95.744258 260.775026 95.409128 260.14821 95.353273 C 259.868936 95.328449 259.620692 95.520838 259.571043 95.793906 Q 258.913196 99.43068 258.156052 103.011599 Q 256.796917 109.422498 251.155574 112.773791 Q 247.829105 114.753536 245.979688 116.86361 Z M 267.024567 95.986295 C 266.919063 95.849761 266.720468 95.824937 266.59014 95.93044 Q 266.497048 96.004914 266.459812 96.116623 Q 266.354308 96.488989 266.602552 96.780676 C 266.695644 96.898592 266.869414 96.911004 266.98733 96.811706 Q 267.403139 96.464165 267.024567 95.986295 Z M 276.60821 97.742559 C 276.823996 97.736415 276.997767 97.519202 276.991498 97.252401 C 276.985354 96.985477 276.811584 96.768264 276.592943 96.774532 C 276.377157 96.780676 276.203386 96.997889 276.209654 97.26469 C 276.215798 97.531614 276.389569 97.748827 276.60821 97.742559 Z M 271.747283 97.716804 C 271.914972 97.854331 272.175628 97.810888 272.338166 97.622099 C 272.498345 97.432316 272.498345 97.165454 272.330905 97.023707 C 272.163216 96.88618 271.90256 96.929622 271.740022 97.118412 C 271.579843 97.308194 271.579843 97.575057 271.747283 97.716804 Z M 268.945478 99.860142 C 269.078785 99.71616 269.053961 99.474123 268.88832 99.317232 C 268.725038 99.157612 268.476794 99.145199 268.343239 99.286698 C 268.209932 99.43068 268.234756 99.672718 268.400397 99.829608 C 268.563679 99.989229 268.811923 100.001641 268.945478 99.860142 Z M 274.285702 100.690518 C 274.285702 100.386419 274.043664 100.144381 273.739565 100.144381 C 273.435466 100.144381 273.193428 100.386419 273.193428 100.690518 C 273.193428 100.994617 273.435466 101.236654 273.739565 101.236654 C 274.043664 101.236654 274.285702 100.994617 274.285702 100.690518 Z M 270.359476 102.830753 C 270.611692 102.763355 270.754432 102.45305 270.670525 102.133187 C 270.586867 101.813822 270.313799 101.60902 270.057115 101.678156 C 269.804899 101.745555 269.662159 102.055859 269.746065 102.375722 C 269.829723 102.695088 270.102791 102.899889 270.359476 102.830753 Z M 266.466018 109.68936 C 266.466018 109.416292 266.248804 109.199078 265.975736 109.199078 C 265.702668 109.199078 265.485454 109.416292 265.485454 109.68936 C 265.485454 109.962429 265.702668 110.179642 265.975736 110.179642 C 266.248804 110.179642 266.466018 109.962429 266.466018 109.68936 Z M 221.018761 111.265709 C 221.018761 110.980229 220.789135 110.750603 220.503655 110.750603 C 220.218174 110.750603 219.988548 110.980229 219.988548 111.265709 C 219.988548 111.55119 220.218174 111.780815 220.503655 111.780815 C 220.789135 111.780815 221.018761 111.55119 221.018761 111.265709 Z M 224.48437 114.518884 C 224.512794 114.257049 224.289374 114.015011 223.983538 113.980815 C 223.674971 113.946744 223.401902 114.132927 223.374471 114.392404 C 223.346048 114.654239 223.569467 114.896277 223.875304 114.930472 C 224.183871 114.964544 224.456939 114.778361 224.48437 114.518884 Z M 266.062622 114.958338 C 266.062622 114.691475 265.851614 114.480468 265.584752 114.480468 C 265.31789 114.480468 265.106882 114.691475 265.106882 114.958338 C 265.106882 115.2252 265.31789 115.436207 265.584752 115.436207 C 265.851614 115.436207 266.062622 115.2252 266.062622 114.958338 Z M 261.17805 117.035891 C 261.401842 116.987732 261.525964 116.702251 261.459807 116.399145 C 261.38943 116.10026 261.153598 115.895458 260.930551 115.946597 C 260.706759 115.994756 260.582637 116.280237 260.648794 116.583342 C 260.719171 116.882228 260.955003 117.087029 261.17805 117.035891 Z M 253.240823 120.742421 C 253.234617 120.190078 252.595388 119.892186 252.167168 120.233521 L 250.963185 121.18926 C 250.79562 121.319588 250.702528 121.518183 250.708735 121.722985 L 250.93836 130.982483 C 250.944566 131.423116 251.366581 131.727215 251.78239 131.609299 L 252.967754 131.267964 C 253.259441 131.181078 253.45183 130.914216 253.445624 130.616323 L 253.240823 120.742421 Z M 257.355466 123.81444 Q 257.076191 125.08669 257.386496 126.346528 C 257.436145 126.551329 257.609916 126.706482 257.827129 126.7251 Q 272.324575 127.848404 284.953985 132.229909 C 291.805517 134.606845 297.657868 138.318091 303.60331 142.240345 C 303.814317 142.383086 304.093591 142.364467 304.292187 142.203109 Q 304.974857 141.64456 305.173453 141.086011 L 306.954603 139.149708 C 307.084931 139.006968 307.0539 138.783549 306.898748 138.678045 C 298.21021 132.68916 288.876239 128.10906 279.027161 125.514911 Q 268.582297 122.753197 257.709213 121.878137 C 257.436145 121.853313 257.212725 122.082938 257.231344 122.356007 L 257.355466 123.81444 Z M 184.986154 140.645378 Q 185.389551 141.445965 186.351496 142.12243 Q 186.624564 142.314819 186.922457 142.172078 C 190.056537 140.663996 192.960991 137.815397 195.47446 136.530735 Q 211.082797 128.531074 228.552964 126.625802 Q 228.863269 126.594772 228.931536 126.290673 Q 229.173574 125.254255 228.962566 124.404019 L 228.683292 122.473923 C 228.652261 122.250503 228.44746 122.101557 228.224041 122.126381 Q 220.596746 123.094532 213.254932 124.751561 C 203.238289 127.01058 194.301508 131.578269 185.488848 137.188581 Q 184.651025 137.722306 183.639431 138.076053 C 183.378775 138.169145 183.285684 138.491862 183.459454 138.709075 L 184.986154 140.645378 Z M 227.994415 130.802506 C 227.814438 130.554262 227.522752 130.423934 227.218653 130.448759 L 224.425909 130.68459 C 223.706001 130.746651 223.377078 131.621711 223.885978 132.136817 L 228.552964 136.927925 C 228.987391 137.368558 229.732123 137.219612 229.961748 136.648651 L 230.576152 135.128157 C 230.681656 134.855088 230.650625 134.55099 230.476854 134.315158 L 227.994415 130.802506 Z M 257.312023 131.590681 C 257.560267 133.222885 258.540831 134.923356 259.366242 136.36317 C 259.626898 136.822422 260.235095 136.927925 260.644698 136.592796 Q 263.307114 134.402043 265.646813 131.863749 C 265.783347 131.714803 265.690256 131.472765 265.491661 131.460353 L 257.976076 130.870773 C 257.572679 130.839743 257.249962 131.193491 257.312023 131.590681 Z M 255.897033 135.23366 C 255.952888 134.575814 255.270217 134.104151 254.674431 134.395837 L 253.215998 135.115745 C 252.930518 135.258485 252.744335 135.543965 252.744335 135.866682 L 252.632625 142.271376 C 252.626419 142.879573 253.247029 143.301588 253.811784 143.065756 L 254.798553 142.66236 C 255.09024 142.538238 255.295041 142.26517 255.319866 141.948659 L 255.897033 135.23366 Z M 242.454624 145.523371 C 242.740104 145.554402 242.988348 145.337188 242.994554 145.057914 L 243.124883 138.417389 C 243.124883 138.175351 242.951112 137.97055 242.71528 137.933313 L 234.709413 136.760361 C 234.430139 136.723124 234.175689 136.927925 234.163277 137.213406 L 233.834354 144.015289 C 233.821941 144.263533 234.008124 144.480747 234.256368 144.511777 L 242.454624 145.523371 Z M 247.482184 138.496827 C 247.493976 137.927107 247.034724 137.455444 246.46215 137.444211 L 246.375264 137.442845 C 245.805917 137.436825 245.334254 137.889871 245.32271 138.46288 L 245.221923 144.879178 C 245.210132 145.448898 245.669383 145.920562 246.241957 145.931795 L 246.328843 145.93316 C 246.89819 145.93918 247.369854 145.486135 247.381397 144.913126 L 247.482184 138.496827 Z M 172.511897 146.032271 C 173.753117 149.482862 176.216938 152.834155 178.891766 154.708397 C 181.119755 156.272333 183.21121 156.607463 184.545521 155.608281 C 185.420581 154.950435 185.910863 153.752658 185.9481 152.176309 C 186.010161 149.222206 184.471048 145.355807 181.988609 142.258964 C 180.685328 140.632966 179.214483 139.342098 177.780874 138.547717 C 175.888014 137.511299 174.19375 137.418207 173.070446 138.287061 C 172.511897 138.721488 172.108501 139.379334 171.891287 140.223363 C 171.494097 141.75627 171.717516 143.816694 172.511897 146.032271 Z M 307.935166 143.376061 Q 304.701789 146.801828 304.062561 151.499844 C 303.832935 153.231345 304.242538 154.627717 305.769238 155.496571 C 311.280253 158.636857 316.716795 149.619396 318.29935 145.628875 Q 319.329563 142.327231 318.113167 139.193151 C 317.331199 137.182375 314.62534 137.517505 313.104846 138.25603 Q 310.392781 139.577929 307.935166 143.376061 Z" style="fill:#000000;"/>
		<path d="M 272.132186 119.339843 Q 280.249762 112.277303 285.971785 102.899889 Q 294.709971 88.58242 293.952827 71.701833 Q 293.357042 58.414577 287.560546 47.237394 C 284.500939 41.335394 280.020136 37.090423 274.881487 32.97578 Q 274.093313 32.342758 274.378793 33.310909 Q 274.639449 34.179763 274.273289 35.514074 Q 269.668365 28.023314 261.954185 23.468038 Q 259.024906 21.73033 256.263192 21.091102 Q 249.784026 19.589226 243.062822 19.849882 C 240.586588 19.94918 238.38963 20.724942 235.919603 20.923537 C 231.029197 21.314522 227.342775 24.281037 223.668765 27.607505 Q 220.472624 29.550014 217.462666 31.746973 Q 199.458775 44.879077 196.628795 67.171381 Q 193.749165 89.848464 206.639231 107.76547 Q 208.32729 110.117581 211.771674 113.555759 Q 214.520976 116.298855 217.146155 119.166072 C 215.346387 120.3142 213.366642 120.798276 211.659965 119.12263 C 200.718613 108.373667 191.850099 94.316855 190.776444 78.603014 Q 189.740026 63.342219 196.517085 48.695827 C 198.062403 45.369358 199.84976 42.700736 202.096367 39.684572 Q 210.046379 29.034908 221.825553 22.952932 Q 226.293944 20.650469 229.756947 19.713348 Q 232.891027 18.863113 236.118198 18.050114 Q 239.649468 17.162642 242.529097 17.001283 Q 249.88953 16.573063 255.245392 17.938404 C 270.735814 21.879277 283.743795 31.157393 291.693807 45.102496 Q 297.310326 54.95778 298.694286 64.049714 Q 301.642183 83.387916 293.0095 99.455504 Q 286.741341 111.122969 277.481842 119.898392 Q 277.252217 120.115605 276.941912 120.121811 Q 274.279496 120.221109 272.132186 119.339843 Z" style="fill:#ef1f26;"/>
		<path d="M 263.319526 26.831743 C 268.296817 30.183036 271.312981 35.749906 269.848341 41.645699 C 269.804899 41.813264 269.593891 41.862913 269.482182 41.732585 L 268.51403 40.634105 L 268.855366 40.584457 Q 269.27738 40.516189 268.998106 40.187266 Q 266.70185 37.518644 264.573158 34.949319 Q 264.157349 34.440419 263.648449 34.037023 Q 262.940954 33.478474 262.878893 32.485498 C 262.866481 32.317934 262.767183 32.162781 262.618237 32.075896 Q 261.947978 31.709736 262.401024 31.020859 C 262.531352 30.82847 262.581 30.592638 262.537558 30.363013 Q 262.369993 29.481747 262.593413 28.619099 Q 262.667886 28.321206 262.897511 28.116405 Q 263.474679 27.619917 263.319526 26.831743 Z" style="fill:#cccccc;"/>
		<path d="M 255.493636 37.295225 Q 253.172556 35.731288 251.056276 35.371334 Q 248.17044 34.874846 243.807553 35.017586 Q 242.212586 35.067235 242.280853 33.472268 Q 242.287059 33.360558 242.287059 33.248848 Q 242.330502 31.746973 243.819966 31.554584 Q 246.89819 31.169806 250.969391 31.293928 C 254.568928 31.405637 256.890008 34.192175 257.169283 37.661384 C 257.187901 37.897216 256.945863 38.070987 256.72865 37.977895 Q 256.089422 37.692415 255.493636 37.295225 Z" style="fill:#000000;"/>
		<path d="M 234.864566 34.738312 C 234.852154 33.534329 235.025924 31.802828 236.596067 31.653881 Q 237.967615 31.517347 239.066094 31.759385 C 240.766565 32.131751 240.481085 34.943113 238.557194 35.048617 Q 236.862929 35.141708 235.305199 35.166533 Q 234.870772 35.172739 234.864566 34.738312 Z" style="fill:#000000;"/>
		<path d="M 258.813899 78.311328 Q 255.952888 78.019641 255.847384 75.828888 L 260.76882 35.458219 Q 260.967415 33.807397 262.369993 34.707282 L 262.618237 34.862434 Q 263.840838 35.650608 263.660862 37.096629 Q 262.307932 47.870416 260.942591 58.749706 Q 259.806875 67.785785 258.782868 76.03369 C 258.695983 76.747391 258.981463 77.535565 258.813899 78.311328 Z" style="fill:#000000;"/>
		<path d="M 256.300429 42.18563 Q 256.374902 42.80624 255.748086 42.775209 C 252.825014 42.613851 250.54117 40.491365 247.444327 40.454129 Q 245.110834 40.429304 242.640807 40.255533 C 242.138113 40.218297 241.765747 39.771458 241.827808 39.27497 Q 242.026403 37.593117 243.73308 37.301431 C 247.835311 36.606348 255.580522 36.320867 256.300429 42.18563 Z" style="fill:#000000;"/>
		<path d="M 239.877542 38.273988 C 239.990803 39.107405 238.81785 39.951435 237.261671 40.166972 C 235.702389 40.379655 234.34946 39.876961 234.233095 39.047144 C 234.119834 38.213727 235.292787 37.369698 236.848966 37.15416 C 238.408248 36.941477 239.761177 37.444171 239.877542 38.273988 Z" style="fill:#000000;"/>
		<path d="M 253.724898 48.112454 Q 250.007445 46.411983 248.189059 46.275449 Q 245.731444 46.089266 243.19315 45.952732 Q 241.896075 45.884464 241.337526 44.823222 C 241.058252 44.289497 241.207198 43.631651 241.691274 43.277903 Q 242.448418 42.713148 243.428981 42.564202 Q 249.225477 41.682936 254.115882 44.140551 Q 255.698438 44.934931 255.561903 46.703669 L 255.530873 47.051211 Q 255.388133 48.869598 253.724898 48.112454 Z" style="fill:#000000;"/>
		<path d="M 239.242347 43.812372 C 239.332957 44.649451 238.13518 45.46245 236.565223 45.627594 C 234.994894 45.797579 233.654377 45.251442 233.565009 44.419081 C 233.4744 43.582002 234.672177 42.769003 236.242133 42.603859 C 237.812462 42.433874 239.15298 42.98001 239.242347 43.812372 Z" style="fill:#000000;"/>
		<path d="M 238.607153 49.209133 C 238.793026 50.141848 237.65731 51.147236 236.07972 51.462009 C 234.498406 51.774052 233.071003 51.271358 232.88451 50.342243 C 232.698638 49.409528 233.834354 48.40414 235.411944 48.089367 C 236.993257 47.777324 238.42066 48.280018 238.607153 49.209133 Z" style="fill:#000000;"/>
		<path d="M 254.190356 53.282134 C 251.931336 53.791034 250.31775 51.860937 248.064937 51.767846 Q 244.949475 51.637517 241.865045 51.271358 Q 241.200992 51.196885 241.101695 50.526626 Q 240.760359 48.236576 243.062822 48.093835 C 247.071961 47.845591 251.441054 47.72147 254.426187 50.259764 C 255.350896 51.041732 255.74188 52.928386 254.190356 53.282134 Z" style="fill:#000000;"/>
		<path d="M 152.788917 63.950416 Q 152.205544 62.938822 151.429781 62.175472 Q 144.609279 55.460474 139.10447 48.689621 C 138.96173 48.509644 139.098264 48.248988 139.32789 48.267606 Q 139.687844 48.298637 139.998148 48.522056 C 153.763274 58.327691 168.732383 65.595032 184.899269 68.561547 C 185.21578 68.617402 185.445406 68.896677 185.451612 69.219394 L 185.495054 78.789197 Q 185.495054 79.130533 185.18475 78.987792 C 182.708516 77.839664 179.953009 76.666712 178.116004 79.322922 C 176.074197 82.270818 177.743638 86.633705 180.176428 88.929962 C 180.933572 89.643663 182.019639 89.879495 183.000203 89.538159 L 183.614607 89.333358 Q 185.457818 88.700336 184.166949 87.235697 Q 182.919524 85.8145 182.323738 84.169884 Q 181.870693 82.922459 183.192592 82.98452 L 184.886857 83.058993 Q 186.041191 83.114848 186.227374 84.25677 C 188.213326 96.606905 194.605607 107.815119 203.250701 117.415952 C 204.467097 118.768882 205.472485 120.084575 206.968154 121.214085 Q 207.470848 121.592657 206.868857 121.785046 Q 201.103392 123.646875 195.114507 126.048635 Q 193.494715 126.694069 191.76942 127.109878 C 191.37223 127.202969 190.962627 127.078847 190.683353 126.787161 C 188.846348 124.83224 186.494236 121.251321 186.810747 118.489607 C 187.158289 115.436207 189.696583 112.60002 189.454545 109.652124 Q 189.119416 105.587129 187.133464 102.763355 C 186.63077 102.049653 185.637795 101.882089 184.9303 102.397195 Q 183.471866 103.452232 181.889311 104.439001 C 176.012136 108.094393 168.453109 108.597087 161.880851 106.909028 C 161.589164 106.834555 161.533309 106.449777 161.787759 106.288418 C 166.585073 103.352934 171.599601 99.722366 174.410963 94.813343 C 174.473024 94.701633 174.404757 94.558893 174.274429 94.546481 Q 168.279338 93.932077 162.383545 93.27423 Q 155.116204 92.473644 148.28329 89.420243 C 148.177786 89.370595 148.128137 89.252679 148.17158 89.147175 Q 148.264671 88.929962 148.494297 88.880313 C 153.297817 87.862513 157.710353 85.330425 161.862232 82.630772 Q 162.191156 82.413559 162.433194 82.084635 C 162.58214 81.879834 162.495255 81.588147 162.259423 81.501262 Q 153.874984 78.360976 146.198041 74.56905 Q 142.257168 72.626542 138.936906 70.156515 Q 131.433733 64.577232 124.762177 58.656615 Q 124.15398 58.116684 124.91733 58.408371 Q 126.034427 58.842798 127.108082 59.308255 C 130.614528 60.816337 134.561606 61.54245 138.378357 62.280976 C 143.132228 63.205685 147.836451 63.422898 152.528261 64.316576 Q 153.061985 64.42208 152.788917 63.950416 Z M 143.070167 67.562366 Q 152.602734 74.866943 165.343854 75.996453 Q 170.060488 76.412262 174.069628 73.675372 C 174.230986 73.563662 174.187544 73.309212 173.995154 73.271976 C 167.547018 71.906634 160.887875 69.895858 154.445945 69.08286 C 150.778141 68.617402 146.967597 68.151945 143.219113 67.252061 Q 142.412321 67.053465 143.070167 67.562366 Z M 160.223823 89.122351 C 164.059191 90.661463 168.645498 87.639093 171.20241 84.964265 C 171.984379 84.151266 172.058852 83.034168 171.655455 82.02878 C 171.394799 81.383346 170.600419 81.147515 170.023252 81.532293 Q 166.889172 83.63616 163.873008 86.031714 Q 162.122889 87.42188 160.205204 88.321764 Q 159.292908 88.749985 160.223823 89.122351 Z M 178.829705 102.297897 Q 182.230647 100.920143 182.838844 97.165454 Q 183.043646 95.905616 181.982403 94.987114 Q 181.243877 94.335473 180.579825 95.061587 C 177.495394 98.44391 174.181337 101.255273 170.569388 103.911483 Q 169.408848 104.761718 170.823838 104.525887 Q 175.106046 103.805979 178.829705 102.297897 Z M 197.299053 118.955065 C 198.267205 118.650966 198.546479 117.415952 197.795541 116.727076 L 196.622589 115.653421 C 196.368139 115.430001 196.045421 115.305879 195.704086 115.312085 L 194.562164 115.33691 C 193.80502 115.355528 193.221647 116.000962 193.277502 116.7519 L 193.414036 118.483401 C 193.482303 119.327431 194.31392 119.88598 195.120713 119.637736 L 197.299053 118.955065 Z" style="fill:#ef1f26;"/>
		<path d="M 338.636734 63.615287 Q 344.06707 63.168448 349.565673 62.52922 C 354.052682 62.001702 358.651401 60.74807 363.014288 59.531674 Q 363.603867 59.36411 364.882323 58.63179 Q 365.006445 58.557317 365.155392 58.594554 Q 365.242277 58.613172 365.254689 58.749706 Q 365.260895 58.830385 365.198834 58.88624 Q 362.312999 61.480389 359.420957 63.993859 Q 345.804778 75.816476 328.694565 81.085454 C 328.309787 81.203369 328.210489 81.699857 328.520794 81.960513 C 332.176186 85.05115 336.954881 88.061108 341.770814 88.706542 Q 343.005827 88.874107 341.863905 89.383007 C 334.472442 92.684651 326.913415 93.690039 318.839281 94.081023 Q 317.641504 94.143084 316.37546 94.422359 C 316.220307 94.453389 316.139628 94.633366 316.226513 94.7699 C 319.354387 99.740985 323.990342 102.899889 328.942809 106.009144 C 329.17864 106.15809 329.14761 106.511838 328.886954 106.611136 C 324.250998 108.404698 319.298532 108.168866 314.420539 107.126242 Q 308.996409 105.965701 304.90659 102.223424 C 304.422515 101.776585 303.652958 101.894501 303.317829 102.465462 Q 301.71045 105.22097 301.443587 107.436547 C 301.182931 109.571444 301.88422 111.917349 302.486212 114.046041 Q 302.895814 115.47965 302.796517 116.770518 C 302.498624 120.531414 301.940075 124.037859 299.687262 127.296061 Q 299.041827 128.226976 297.986791 127.842198 Q 291.507624 125.45285 282.78185 121.902962 C 282.539812 121.803664 282.477751 121.487153 282.663934 121.307176 C 293.344629 110.93058 300.506467 98.95281 303.665371 83.996114 C 303.770874 83.487214 304.199095 83.108642 304.714201 83.052787 L 307.556594 82.748688 C 307.773808 82.723863 307.972403 82.879016 308.003433 83.096229 C 308.276502 85.125623 306.886336 86.317194 305.390666 87.341201 Q 304.974857 87.620475 305.309987 87.992841 Q 306.588443 89.432656 308.493715 89.662281 C 311.497467 90.022235 312.881426 85.733821 313.154495 83.387916 C 313.725456 78.429244 309.952148 75.537202 305.489964 78.851258 Q 304.788674 79.37257 304.788674 78.497511 L 304.825911 68.834616 Q 304.825911 68.46225 305.185865 68.387777 Q 315.202507 66.259085 324.840578 62.851937 Q 329.730983 61.126642 334.49106 58.650408 Q 343.278896 54.08272 351.24132 48.379316 Q 351.377854 48.280018 351.520594 48.360698 Q 351.588861 48.40414 351.601273 48.522056 Q 351.607479 48.584117 351.570243 48.639972 C 350.372466 50.26597 349.317429 51.966441 347.85279 53.393843 C 344.557352 56.602396 341.938378 60.133666 338.431933 63.125005 Q 337.774086 63.68976 338.636734 63.615287 Z M 325.169501 75.81027 C 329.408266 75.710972 336.266005 74.519402 340.163434 71.919046 Q 343.520933 69.672439 346.630189 67.829228 Q 348.367896 66.799015 346.412975 67.301709 Q 345.233817 67.599602 344.122925 67.779579 C 339.114604 68.60499 334.155931 69.157333 329.184847 70.336491 Q 322.190574 72.005932 315.190095 73.222327 Q 314.401921 73.358861 315.13424 73.675372 Q 320.316332 75.92198 325.169501 75.81027 Z M 321.092094 81.699857 Q 319.838463 80.893064 319.292326 82.28323 L 318.882723 83.319649 Q 318.324175 84.728433 319.590219 85.572463 Q 322.314696 87.390849 325.057791 88.97961 C 326.74585 89.953968 328.632504 89.31474 330.481921 89.016847 Q 331.065294 88.923756 330.599837 88.557596 Q 326.063179 84.914616 321.092094 81.699857 Z M 313.955081 103.272255 Q 316.648528 104.296261 319.31715 104.929283 Q 321.203804 105.376122 319.776402 104.066635 Q 314.948057 99.647893 310.144537 94.714045 C 309.772171 94.335473 309.20121 94.22997 308.723341 94.447183 C 307.717953 94.91264 307.060106 95.849761 307.382823 96.985477 C 308.332357 100.355389 310.833414 102.080684 313.955081 103.272255 Z M 294.908566 117.254594 Q 295.820862 116.745694 296.658686 117.304243 Q 297.583394 117.918646 297.409624 116.820167 Q 297.204822 115.516886 296.17461 114.871452 C 295.969809 114.741124 295.702947 114.753536 295.510558 114.902483 L 294.685147 115.554123 Q 294.399666 115.777543 294.045918 115.783749 C 292.606104 115.796161 291.793105 116.956701 292.314417 118.2786 Q 292.513012 118.793706 292.64334 119.333637 Q 292.730226 119.674972 293.065355 119.77427 C 293.810087 119.997689 295.88913 120.152842 296.162198 119.141248 Q 296.31735 118.570287 295.721565 118.595111 Q 294.809268 118.64476 294.64791 117.819349 C 294.604467 117.595929 294.709971 117.37251 294.908566 117.254594 Z" style="fill:#ef1f26;"/>
		<path d="M 252.198198 54.411643 C 253.762135 55.224642 255.717056 56.298297 254.419981 58.470432 Q 253.935906 59.277224 253.073258 58.911065 Q 247.717395 56.645839 241.47406 56.676869 Q 239.94736 56.683075 240.145955 55.168787 Q 240.152161 55.088108 240.164574 55.007429 Q 240.344551 53.517965 241.834014 53.387637 Q 245.76868 53.040096 250.026064 53.71656 Q 251.205222 53.902743 252.198198 54.411643 Z" style="fill:#000000;"/>
		<path d="M 237.816 55.283414 C 237.893142 56.217618 236.726395 57.07406 235.211921 57.198926 C 233.697819 57.322303 232.413157 56.658251 232.335146 55.724419 C 232.258005 54.790215 233.424751 53.933774 234.939225 53.808907 C 236.453327 53.68553 237.737989 54.349582 237.816 55.283414 Z" style="fill:#000000;"/>
		<path d="M 252.68848 64.086951 C 251.167986 63.931798 249.957797 63.193272 248.549012 62.938822 Q 244.657789 62.218915 239.959772 62.181678 C 239.637055 62.181678 239.376399 61.914816 239.382605 61.592099 Q 239.413636 59.500644 241.436824 59.115866 Q 246.75545 58.110478 251.143161 59.767506 C 252.365763 60.226757 254.32689 61.393504 254.128295 62.945028 C 254.035203 63.652524 253.395975 64.155218 252.68848 64.086951 Z" style="fill:#000000;"/>
		<path d="M 235.702389 62.479571 L 233.027561 62.547838 C 232.226974 62.566456 231.643601 61.7969 231.879433 61.027344 L 232.183531 60.028162 C 232.338684 59.525468 232.804141 59.184133 233.33166 59.196545 L 236.025106 59.2524 C 236.831899 59.271018 237.384242 60.077811 237.098761 60.834955 L 236.776044 61.716221 C 236.608479 62.16306 236.180259 62.467159 235.702389 62.479571 Z" style="fill:#000000;"/>
		<path d="M 250.0633 68.679463 C 246.501 67.742342 242.808372 67.593396 239.010239 67.810609 C 238.730965 67.829228 238.495133 67.612014 238.482721 67.33274 C 238.395836 65.936368 239.146774 64.999247 240.493497 64.701354 C 243.317272 64.068332 247.785662 63.354631 250.323956 64.899949 Q 251.937542 65.874307 253.520097 66.861076 Q 253.898669 67.096908 253.904875 67.543747 Q 253.911081 68.269861 253.718692 69.070447 Q 253.613189 69.504874 253.184968 69.411783 Q 251.602413 69.08286 250.0633 68.679463 Z" style="fill:#000000;"/>
		<path d="M 231.066434 65.657093 C 231.066434 65.235079 231.407769 64.893743 231.829784 64.893743 L 234.088804 64.893743 C 235.416909 64.893743 236.490564 65.588826 236.490564 66.451474 L 236.490564 66.71213 C 236.490564 67.574778 235.416909 68.269861 234.088804 68.269861 L 231.829784 68.269861 C 231.407769 68.269861 231.066434 67.928525 231.066434 67.506511 L 231.066434 65.657093 Z" style="fill:#000000;"/>
		<path d="M 143.219113 67.252061 C 146.967597 68.151945 150.778141 68.617402 154.445945 69.08286 C 160.887875 69.895858 167.547018 71.906634 173.995154 73.271976 C 174.187544 73.309212 174.230986 73.563662 174.069628 73.675372 Q 170.060488 76.412262 165.343854 75.996453 Q 152.602734 74.866943 143.070167 67.562366 Q 142.412321 67.053465 143.219113 67.252061 Z" style="fill:#f8bea8;"/>
		<path d="M 340.163434 71.919046 C 336.266005 74.519402 329.408266 75.710972 325.169501 75.81027 Q 320.316332 75.92198 315.13424 73.675372 Q 314.401921 73.358861 315.190095 73.222327 Q 322.190574 72.005932 329.184847 70.336491 C 334.155931 69.157333 339.114604 68.60499 344.122925 67.779579 Q 345.233817 67.599602 346.412975 67.301709 Q 348.367896 66.799015 346.630189 67.829228 Q 343.520933 69.672439 340.163434 71.919046 Z" style="fill:#f8bea8;"/>
		<path d="M 240.102513 70.113072 Q 243.47863 69.771736 247.12161 69.535905 C 249.318569 69.393164 250.634261 70.317873 252.328526 71.614948 C 253.284265 72.353473 253.05464 73.594693 252.793984 74.575257 C 252.71951 74.854531 252.446442 75.022096 252.160962 74.972447 Q 249.740583 74.525608 247.214701 73.787082 Q 245.346666 73.240945 243.671019 73.278182 Q 241.69748 73.327831 239.717735 73.271976 Q 238.606843 73.240945 238.737171 72.13626 L 238.830263 71.37291 Q 238.960591 70.230988 240.102513 70.113072 Z" style="fill:#000000;"/>
		<path d="M 235.868713 72.113794 C 235.900984 73.129236 234.647352 73.985677 233.075844 74.034519 C 231.500861 74.078769 230.203786 73.2968 230.173997 72.282848 C 230.141725 71.267406 231.395357 70.410965 232.966865 70.362123 C 234.541849 70.317873 235.838923 71.099842 235.868713 72.113794 Z" style="fill:#000000;"/>
		<path d="M 264.771753 76.03369 L 260.948797 73.77467 C 260.855705 73.718815 260.806056 73.607105 260.824675 73.501602 L 260.961209 72.663778 C 260.992239 72.490008 261.190834 72.39071 261.352193 72.471389 L 264.498685 74.116005 C 264.560746 74.147036 264.604188 74.202891 264.629013 74.264952 L 265.156531 75.710972 C 265.243417 75.946804 264.98276 76.157812 264.771753 76.03369 Z" style="fill:#cccccc;"/>
		<path d="M 246.178283 74.916592 Q 246.060367 75.30137 246.13484 75.543408 Q 246.234138 75.866125 246.556855 75.748209 Q 248.635898 74.953828 250.553582 75.456522 C 251.602413 75.735797 252.46506 75.369637 253.408387 76.126781 Q 253.644219 76.31917 253.942112 76.356407 Q 254.401363 76.406055 254.873026 76.437086 Q 255.803941 76.492941 255.847384 75.828888 Q 255.952888 78.019641 258.813899 78.311328 Q 258.90699 78.385801 259.043524 78.342358 L 264.132525 79.682875 Q 264.511097 79.782173 264.486273 80.173157 C 264.349738 82.512856 263.691892 87.390849 261.525964 88.892725 Q 259.719989 90.140151 257.101016 89.184412 C 253.799371 87.974223 249.293744 85.591081 247.23332 83.344473 Q 244.217156 80.049035 246.178283 74.916592 Z" style="fill:#cccccc;"/>
		<path d="M 208.743098 75.562026 Q 209.115464 75.506171 209.369914 75.797858 C 209.469212 75.915774 209.419563 76.095751 209.270617 76.139193 Q 208.910663 76.250903 208.61277 75.984041 C 208.463824 75.847507 208.538297 75.593057 208.743098 75.562026 Z" style="fill:#cccccc;"/>
		<path d="M 269.837481 77.704247 C 269.624922 77.659687 269.494594 77.405237 269.55349 77.146195 C 269.61251 76.883925 269.829723 76.710154 270.045385 76.758686 C 270.257944 76.803246 270.388272 77.057696 270.329376 77.316738 C 270.270356 77.579008 270.053143 77.752779 269.837481 77.704247 Z" style="fill:#a4a2a1;"/>
		<path d="M 213.651129 78.708642 C 213.534206 78.814022 213.304581 78.758167 213.143656 78.580983 C 212.981863 78.404419 212.950833 78.168587 213.069742 78.06296 C 213.186665 77.95758 213.41629 78.013435 213.577214 78.190619 C 213.739007 78.367183 213.770038 78.603014 213.651129 78.708642 Z" style="fill:#a4a2a1;"/>
		<path d="M 279.652673 79.469199 C 279.480206 79.490486 279.318847 79.310509 279.289741 79.065989 C 279.262992 78.826434 279.380908 78.615426 279.555982 78.593271 C 279.72845 78.571984 279.889808 78.751961 279.918915 78.996481 C 279.945663 79.236036 279.827747 79.447044 279.652673 79.469199 Z" style="fill:#a4a2a1;"/>
		<path d="M 274.292777 79.714713 C 274.111931 79.856646 273.820244 79.800791 273.65479 79.58215 C 273.485115 79.366364 273.497527 79.074678 273.682841 78.931131 C 273.863687 78.789197 274.155374 78.845052 274.320828 79.063693 C 274.490503 79.279479 274.478091 79.571166 274.292777 79.714713 Z" style="fill:#7b7275;"/>
		<path d="M 271.206794 82.226507 C 270.977851 82.239788 270.779256 82.016368 270.761321 81.723813 C 270.74202 81.432995 270.91579 81.184751 271.146099 81.173208 C 271.375042 81.159927 271.573637 81.383346 271.591572 81.675902 C 271.610873 81.966719 271.437103 82.214963 271.206794 82.226507 Z" style="fill:#7b7275;"/>
		<path d="M 160.223823 89.122351 Q 159.292908 88.749985 160.205204 88.321764 Q 162.122889 87.42188 163.873008 86.031714 Q 166.889172 83.63616 170.023252 81.532293 C 170.600419 81.147515 171.394799 81.383346 171.655455 82.02878 C 172.058852 83.034168 171.984379 84.151266 171.20241 84.964265 C 168.645498 87.639093 164.059191 90.661463 160.223823 89.122351 Z" style="fill:#f8bea8;"/>
		<path d="M 321.092094 81.699857 Q 326.063179 84.914616 330.599837 88.557596 Q 331.065294 88.923756 330.481921 89.016847 C 328.632504 89.31474 326.74585 89.953968 325.057791 88.97961 Q 322.314696 87.390849 319.590219 85.572463 Q 318.324175 84.728433 318.882723 83.319649 L 319.292326 82.28323 Q 319.838463 80.893064 321.092094 81.699857 Z" style="fill:#f8bea8;"/>
		<path d="M 276.879851 82.382528 C 276.879851 82.661802 276.656431 82.885222 276.377157 82.885222 C 276.097882 82.885222 275.874463 82.661802 275.874463 82.382528 C 275.874463 82.103254 276.097882 81.879834 276.377157 81.879834 C 276.656431 81.879834 276.879851 82.103254 276.879851 82.382528 Z" style="fill:#7b7275;"/>
		<path d="M 281.534424 81.941895 C 281.739226 81.730888 282.092973 81.879834 282.086767 82.171521 Q 282.080561 82.519062 281.813699 82.711451 Q 281.503394 82.928665 281.391684 82.568711 Q 281.279974 82.196345 281.534424 81.941895 Z" style="fill:#a4a2a1;"/>
		<path d="M 278.667517 85.617457 C 278.474818 85.646936 278.288635 85.485577 278.255308 85.252414 C 278.220368 85.02012 278.350696 84.809112 278.542775 84.782737 C 278.735474 84.753258 278.921657 84.914616 278.954984 85.147779 C 278.989924 85.380074 278.859596 85.591081 278.667517 85.617457 Z" style="fill:#7b7275;"/>
		<path d="M 274.099519 85.603493 C 274.099519 85.92621 273.832657 86.193072 273.509939 86.193072 C 273.187222 86.193072 272.92036 85.92621 272.92036 85.603493 C 272.92036 85.280776 273.187222 85.013914 273.509939 85.013914 C 273.832657 85.013914 274.099519 85.280776 274.099519 85.603493 Z" style="fill:#7b7275;"/>
		<path d="M 213.623078 87.318424 C 213.571443 87.502559 213.341817 87.595651 213.10611 87.526887 C 212.870154 87.459116 212.721207 87.260521 212.775076 87.078496 C 212.826711 86.894361 213.056337 86.80127 213.292044 86.870034 C 213.528 86.937804 213.676946 87.136399 213.623078 87.318424 Z" style="fill:#a4a2a1;"/>
		<path d="M 270.568249 87.465323 C 270.568249 87.713566 270.363448 87.918368 270.115204 87.918368 C 269.86696 87.918368 269.662159 87.713566 269.662159 87.465323 C 269.662159 87.217079 269.86696 87.012277 270.115204 87.012277 C 270.363448 87.012277 270.568249 87.217079 270.568249 87.465323 Z" style="fill:#7b7275;"/>
		<path d="M 271.403528 90.916906 C 271.114385 90.835234 270.953027 90.487692 271.053317 90.131648 C 271.151622 89.780197 271.468133 89.556778 271.756158 89.636464 C 272.0453 89.718136 272.206659 90.065678 272.106368 90.421722 C 272.008064 90.773173 271.691553 90.996592 271.403528 90.916906 Z" style="fill:#7b7275;"/>
		<path d="M 215.116761 90.183594 C 215.116761 90.407013 214.936784 90.58699 214.713365 90.58699 C 214.489945 90.58699 214.309969 90.407013 214.309969 90.183594 C 214.309969 89.960174 214.489945 89.780197 214.713365 89.780197 C 214.936784 89.780197 215.116761 89.960174 215.116761 90.183594 Z" style="fill:#7b7275;"/>
		<path d="M 267.873065 93.064588 C 267.60794 93.001162 267.452788 92.678445 267.534956 92.350701 C 267.614146 92.020599 267.893421 91.803385 268.16202 91.870287 C 268.427145 91.933713 268.582297 92.25643 268.500129 92.584174 C 268.420939 92.914277 268.141664 93.13149 267.873065 93.064588 Z" style="fill:#7b7275;"/>
		<path d="M 313.955081 103.272255 C 310.833414 102.080684 308.332357 100.355389 307.382823 96.985477 C 307.060106 95.849761 307.717953 94.91264 308.723341 94.447183 C 309.20121 94.22997 309.772171 94.335473 310.144537 94.714045 Q 314.948057 99.647893 319.776402 104.066635 Q 321.203804 105.376122 319.31715 104.929283 Q 316.648528 104.296261 313.955081 103.272255 Z" style="fill:#f8bea8;"/>
		<path d="M 255.468812 99.052108 Q 254.401363 98.537002 253.84902 98.561826 Q 253.59457 98.568032 253.414593 98.400468 Q 253.19738 98.208079 252.924312 98.239109 C 252.254053 98.319788 251.087307 97.959835 250.466697 97.730209 Q 249.746789 97.469553 248.977233 97.370255 Q 248.207677 97.277164 247.431915 97.146836 Q 246.625122 97.010302 246.420321 97.674354 Q 246.383084 96.383486 245.098422 96.129036 Q 244.788117 96.066975 244.558491 96.277982 Q 243.615164 97.14063 243.484836 98.350819 L 237.278738 98.07775 Q 236.956021 98.065338 236.713983 98.27014 Q 236.198877 98.69836 235.869954 99.31897 Q 235.98787 98.257727 235.317611 97.755033 C 234.827329 97.388874 234.12604 97.630911 233.958475 98.220491 L 233.356484 100.318152 Q 233.443369 99.790634 232.804141 99.666512 Q 232.481424 99.604451 232.264211 99.858901 C 231.476036 100.789815 230.650625 99.852695 229.775565 100.200236 Q 229.46526 100.318152 229.241841 100.076114 Q 228.608819 99.387237 228.075094 100.516747 L 229.316314 94.720251 Q 229.390787 94.391328 229.725916 94.409946 L 244.434369 95.384304 Q 244.688819 95.402922 244.893621 95.564281 Q 245.22875 95.837349 245.681795 95.769082 Q 246.004512 95.719433 246.289993 95.75667 Q 249.330981 96.147654 253.631807 97.767446 Q 254.618576 98.139811 255.468812 99.052108 Z" style="fill:#a4a2a1;"/>
		<path d="M 270.40689 94.887816 C 270.40689 95.154678 270.189677 95.371892 269.922815 95.371892 C 269.655952 95.371892 269.438739 95.154678 269.438739 94.887816 C 269.438739 94.620954 269.655952 94.40374 269.922815 94.40374 C 270.189677 94.40374 270.40689 94.620954 270.40689 94.887816 Z" style="fill:#7b7275;"/>
		<path d="M 178.829705 102.297897 Q 175.106046 103.805979 170.823838 104.525887 Q 169.408848 104.761718 170.569388 103.911483 C 174.181337 101.255273 177.495394 98.44391 180.579825 95.061587 Q 181.243877 94.335473 181.982403 94.987114 Q 183.043646 95.905616 182.838844 97.165454 Q 182.230647 100.920143 178.829705 102.297897 Z" style="fill:#f8bea8;"/>
		<path d="M 243.180737 132.521596 Q 244.291629 132.254733 244.136477 130.132248 Q 243.776523 125.347346 243.98753 120.748627 C 243.999942 120.481765 243.801347 120.252139 243.534485 120.227315 L 238.439278 119.737033 L 242.932493 119.817713 Q 243.249005 119.823919 243.515867 119.656354 Q 245.166689 118.607523 245.979688 116.86361 Q 247.829105 114.753536 251.155574 112.773791 Q 256.796917 109.422498 258.156052 103.011599 Q 258.913196 99.43068 259.571043 95.793906 C 259.620692 95.520838 259.868936 95.328449 260.14821 95.353273 C 260.775026 95.409128 261.445284 95.744258 261.463903 96.457959 Q 261.575613 100.069908 261.476315 104.383146 Q 261.377017 108.603293 258.435327 111.060908 Q 258.280174 111.191236 258.230526 111.396037 Q 258.187083 111.594632 258.013312 111.712548 Q 255.152301 113.648851 251.832038 115.36794 Q 250.634261 115.98855 249.29995 117.111854 Q 246.302405 119.637736 246.469969 123.597226 Q 246.606504 127.01058 246.680977 130.554262 Q 246.705801 131.851337 246.376878 133.061526 Q 246.289993 133.384243 245.967276 133.297358 L 243.180737 132.521596 Z" style="fill:#a4a2a1;"/>
		<path d="M 267.024567 95.986295 Q 267.403139 96.464165 266.98733 96.811706 C 266.869414 96.911004 266.695644 96.898592 266.602552 96.780676 Q 266.354308 96.488989 266.459812 96.116623 Q 266.497048 96.004914 266.59014 95.93044 C 266.720468 95.824937 266.919063 95.849761 267.024567 95.986295 Z" style="fill:#7b7275;"/>
		<path d="M 276.60821 97.742559 C 276.389569 97.748827 276.215798 97.531614 276.209654 97.26469 C 276.203386 96.997889 276.377157 96.780676 276.592943 96.774532 C 276.811584 96.768264 276.985354 96.985477 276.991498 97.252401 C 276.997767 97.519202 276.823996 97.736415 276.60821 97.742559 Z" style="fill:#a4a2a1;"/>
		<path d="M 271.747283 97.716804 C 271.579843 97.575057 271.579843 97.308194 271.740022 97.118412 C 271.90256 96.929622 272.163216 96.88618 272.330905 97.023707 C 272.498345 97.165454 272.498345 97.432316 272.338166 97.622099 C 272.175628 97.810888 271.914972 97.854331 271.747283 97.716804 Z" style="fill:#7b7275;"/>
		<path d="M 255.468812 99.052108 Q 255.512255 108.460553 246.885778 112.047678 Q 245.818329 112.488311 245.601116 111.352595 C 244.775705 107.076593 245.632146 103.042629 246.420321 97.674354 Q 246.625122 97.010302 247.431915 97.146836 Q 248.207677 97.277164 248.977233 97.370255 Q 249.746789 97.469553 250.466697 97.730209 C 251.087307 97.959835 252.254053 98.319788 252.924312 98.239109 Q 253.19738 98.208079 253.414593 98.400468 Q 253.59457 98.568032 253.84902 98.561826 Q 254.401363 98.537002 255.468812 99.052108 Z" style="fill:#cccccc;"/>
		<path d="M 235.869954 99.31897 Q 234.721826 103.055041 234.039155 106.946265 Q 233.896414 107.777882 234.281193 108.472965 Q 234.740444 109.279758 233.834354 109.06875 Q 231.562922 108.547438 232.028379 105.928465 Q 232.524867 103.10469 233.356484 100.318152 L 233.958475 98.220491 C 234.12604 97.630911 234.827329 97.388874 235.317611 97.755033 Q 235.98787 98.257727 235.869954 99.31897 Z" style="fill:#000000;"/>
		<path d="M 268.945478 99.860142 C 268.811923 100.001641 268.563679 99.989229 268.400397 99.829608 C 268.234756 99.672718 268.209932 99.43068 268.343239 99.286698 C 268.476794 99.145199 268.725038 99.157612 268.88832 99.317232 C 269.053961 99.474123 269.078785 99.71616 268.945478 99.860142 Z" style="fill:#7b7275;"/>
		<path d="M 274.285702 100.690518 C 274.285702 100.994617 274.043664 101.236654 273.739565 101.236654 C 273.435466 101.236654 273.193428 100.994617 273.193428 100.690518 C 273.193428 100.386419 273.435466 100.144381 273.739565 100.144381 C 274.043664 100.144381 274.285702 100.386419 274.285702 100.690518 Z" style="fill:#7b7275;"/>
		<path d="M 242.870433 101.764173 L 242.498067 105.115466 Q 242.181556 103.241224 242.870433 101.764173 Z" style="fill:#a4a2a1;"/>
		<path d="M 270.359476 102.830753 C 270.102791 102.899889 269.829723 102.695088 269.746065 102.375722 C 269.662159 102.055859 269.804899 101.745555 270.057115 101.678156 C 270.313799 101.60902 270.586867 101.813822 270.670525 102.133187 C 270.754432 102.45305 270.611692 102.763355 270.359476 102.830753 Z" style="fill:#7b7275;"/>
		<path d="M 266.466018 109.68936 C 266.466018 109.962429 266.248804 110.179642 265.975736 110.179642 C 265.702668 110.179642 265.485454 109.962429 265.485454 109.68936 C 265.485454 109.416292 265.702668 109.199078 265.975736 109.199078 C 266.248804 109.199078 266.466018 109.416292 266.466018 109.68936 Z" style="fill:#7b7275;"/>
		<path d="M 241.250641 109.974841 Q 240.605207 111.495335 239.202628 111.985617 Q 239.934948 110.763015 241.250641 109.974841 Z" style="fill:#7b7275;"/>
		<path d="M 221.018761 111.265709 C 221.018761 111.55119 220.789135 111.780815 220.503655 111.780815 C 220.218174 111.780815 219.988548 111.55119 219.988548 111.265709 C 219.988548 110.980229 220.218174 110.750603 220.503655 110.750603 C 220.789135 110.750603 221.018761 110.980229 221.018761 111.265709 Z" style="fill:#7b7275;"/>
		<path d="M 224.48437 114.518884 C 224.456939 114.778361 224.183871 114.964544 223.875304 114.930472 C 223.569467 114.896277 223.346048 114.654239 223.374471 114.392404 C 223.401902 114.132927 223.674971 113.946744 223.983538 113.980815 C 224.289374 114.015011 224.512794 114.257049 224.48437 114.518884 Z" style="fill:#7b7275;"/>
		<path d="M 266.062622 114.958338 C 266.062622 115.2252 265.851614 115.436207 265.584752 115.436207 C 265.31789 115.436207 265.106882 115.2252 265.106882 114.958338 C 265.106882 114.691475 265.31789 114.480468 265.584752 114.480468 C 265.851614 114.480468 266.062622 114.691475 266.062622 114.958338 Z" style="fill:#7b7275;"/>
		<path d="M 196.347969 117.982197 C 196.200574 118.39031 195.648231 118.557875 195.116306 118.360334 C 194.586988 118.16689 194.276683 117.676609 194.427181 117.271723 C 194.574576 116.86361 195.126919 116.696045 195.658844 116.893585 C 196.188162 117.087029 196.498467 117.577311 196.347969 117.982197 Z" style="fill:#ef1f26;"/>
		<path d="M 245.979688 116.86361 Q 245.166689 118.607523 243.515867 119.656354 Q 243.249005 119.823919 242.932493 119.817713 L 238.439278 119.737033 L 232.99653 119.420522 Q 232.444188 117.664196 233.455782 117.707639 Q 240.847244 118.055181 242.777341 118.210333 Q 244.57711 118.353073 245.979688 116.86361 Z" style="fill:#7b7275;"/>
		<path d="M 253.240823 120.742421 L 253.445624 130.616323 C 253.45183 130.914216 253.259441 131.181078 252.967754 131.267964 L 251.78239 131.609299 C 251.366581 131.727215 250.944566 131.423116 250.93836 130.982483 L 250.708735 121.722985 C 250.702528 121.518183 250.79562 121.319588 250.963185 121.18926 L 252.167168 120.233521 C 252.595388 119.892186 253.234617 120.190078 253.240823 120.742421 Z" style="fill:#7b7275;"/>
		<path d="M 257.355466 123.81444 Q 267.521055 124.807415 272.399048 126.129314 Q 279.374702 128.022174 286.269677 130.318431 C 291.774486 132.155436 296.726953 135.121951 301.729068 138.032611 Q 302.58551 138.529099 303.466776 139.509662 Q 304.267362 140.397134 305.173453 141.086011 Q 304.974857 141.64456 304.292187 142.203109 C 304.093591 142.364467 303.814317 142.383086 303.60331 142.240345 C 297.657868 138.318091 291.805517 134.606845 284.953985 132.229909 Q 272.324575 127.848404 257.827129 126.7251 C 257.609916 126.706482 257.436145 126.551329 257.386496 126.346528 Q 257.076191 125.08669 257.355466 123.81444 Z" style="fill:#a4a2a1;"/>
		<path d="M 228.962566 124.404019 Q 229.173574 125.254255 228.931536 126.290673 Q 228.863269 126.594772 228.552964 126.625802 Q 211.082797 128.531074 195.47446 136.530735 C 192.960991 137.815397 190.056537 140.663996 186.922457 142.172078 Q 186.624564 142.314819 186.351496 142.12243 Q 185.389551 141.445965 184.986154 140.645378 Q 186.301847 139.577929 187.58651 138.47945 C 190.888154 135.655675 195.362751 133.353213 199.042967 131.789276 Q 207.942512 127.99735 217.79159 125.756949 Q 223.296399 124.503317 228.962566 124.404019 Z" style="fill:#a4a2a1;"/>
		<path d="M 227.994415 130.802506 L 230.476854 134.315158 C 230.650625 134.55099 230.681656 134.855088 230.576152 135.128157 L 229.961748 136.648651 C 229.732123 137.219612 228.987391 137.368558 228.552964 136.927925 L 223.885978 132.136817 C 223.377078 131.621711 223.706001 130.746651 224.425909 130.68459 L 227.218653 130.448759 C 227.522752 130.423934 227.814438 130.554262 227.994415 130.802506 Z" style="fill:#ef1f26;"/>
		<path d="M 259.366242 136.36317 C 258.540831 134.923356 257.560267 133.222885 257.312023 131.590681 C 257.249962 131.193491 257.572679 130.839743 257.976076 130.870773 L 265.491661 131.460353 C 265.690256 131.472765 265.783347 131.714803 265.646813 131.863749 Q 263.307114 134.402043 260.644698 136.592796 C 260.235095 136.927925 259.626898 136.822422 259.366242 136.36317 Z" style="fill:#ef1f26;"/>
		<path d="M 255.897033 135.23366 L 255.319866 141.948659 C 255.295041 142.26517 255.09024 142.538238 254.798553 142.66236 L 253.811784 143.065756 C 253.247029 143.301588 252.626419 142.879573 252.632625 142.271376 L 252.744335 135.866682 C 252.744335 135.543965 252.930518 135.258485 253.215998 135.115745 L 254.674431 134.395837 C 255.270217 134.104151 255.952888 134.575814 255.897033 135.23366 Z" style="fill:#7b7275;"/>
		<path d="M 247.381397 144.913126 C 247.369854 145.486135 246.89819 145.93918 246.328843 145.93316 L 246.241957 145.931795 C 245.669383 145.920562 245.210132 145.448898 245.221923 144.879178 L 245.32271 138.46288 C 245.334254 137.889871 245.805917 137.436825 246.375264 137.442845 L 246.46215 137.444211 C 247.034724 137.455444 247.493976 137.927107 247.482184 138.496827 L 247.381397 144.913126 Z" style="fill:#7b7275;"/>
		<path d="M 317.67874 144.573838 Q 316.127216 148.347146 313.402739 151.437783 Q 311.782947 153.268582 309.585988 154.062962 Q 309.008821 154.27397 308.530952 153.889192 C 306.873923 152.548675 306.787038 151.264012 307.295938 149.172557 Q 307.600037 147.937544 307.773808 146.876301 Q 310.04524 142.755452 314.141264 140.663996 Q 314.892202 140.279218 315.568667 140.632966 Q 317.889748 141.843155 317.67874 144.573838 Z M 310.597582 144.511777 C 309.418424 145.821264 308.456478 147.391407 307.92896 148.868458 C 307.395236 150.364128 307.357999 151.61776 307.829663 152.331461 C 308.121349 152.772094 308.586807 152.989307 309.182592 152.964483 C 310.107301 152.927246 311.286459 152.319049 312.465618 151.270218 C 314.352272 149.594572 315.922415 147.087308 316.412696 144.989647 C 316.642322 144.002877 316.611292 143.177466 316.325811 142.612711 C 316.021712 142.01072 315.432133 141.737651 314.650164 141.843155 C 313.471006 142.004514 311.96913 142.991283 310.597582 144.511777 Z" style="fill:#000000;"/>
		<path d="M 180.517764 143.698778 C 182.001021 145.641287 186.252198 152.225957 182.609219 153.777482 Q 180.368817 154.727015 178.655934 153.169284 Q 177.569867 152.182515 176.539655 151.02818 C 174.969512 149.271855 174.119276 147.149369 173.126301 145.008265 L 173.039415 142.63133 C 175.031573 138.59116 178.910384 141.048775 180.517764 143.698778 Z M 182.280234 152.831859 C 183.620813 151.909446 183.043646 148.750542 180.999605 145.774842 C 178.953827 142.798894 176.210732 141.129454 174.870276 142.050253 C 173.529697 142.972665 174.106864 146.131569 176.150905 149.107269 C 178.196683 152.083217 180.939778 153.752658 182.280234 152.831859 Z" style="fill:#000000;"/>
		<path d="M 316.412696 144.989647 Q 316.139628 145.057914 315.953445 144.902762 C 315.630728 144.635899 315.568667 143.785664 315.059767 143.289176 Q 314.519836 142.755452 313.917845 143.220909 Q 312.484236 144.313182 310.597582 144.511777 C 311.96913 142.991283 313.471006 142.004514 314.650164 141.843155 C 315.432133 141.737651 316.021712 142.01072 316.325811 142.612711 C 316.611292 143.177466 316.642322 144.002877 316.412696 144.989647 Z" style="fill:#cccccc;"/>
		<path d="M 182.280234 152.831859 C 180.939778 153.752658 178.196683 152.083217 176.150905 149.107269 C 174.106864 146.131569 173.529697 142.972665 174.870276 142.050253 C 176.210732 141.129454 178.953827 142.798894 180.999605 145.774842 C 183.043646 148.750542 183.620813 151.909446 182.280234 152.831859 Z" style="fill:#0988b1;"/>
		<path d="M 181.988609 142.258964 C 184.471048 145.355807 186.010161 149.222206 185.9481 152.176309 C 185.910863 153.752658 185.420581 154.950435 184.545521 155.608281 C 183.21121 156.607463 181.119755 156.272333 178.891766 154.708397 C 176.216938 152.834155 173.753117 149.482862 172.511897 146.032271 Q 173.182156 146.143981 173.126301 145.008265 C 174.119276 147.149369 174.969512 149.271855 176.539655 151.02818 Q 177.569867 152.182515 178.655934 153.169284 Q 180.368817 154.727015 182.609219 153.777482 C 186.252198 152.225957 182.001021 145.641287 180.517764 143.698778 Q 180.939778 143.673954 181.330763 143.804282 Q 181.628655 143.909786 181.808632 143.642924 Q 182.069288 143.264352 181.988609 142.258964 Z" style="fill:#7b7275;"/>
		<path d="M 173.039415 142.63133 L 173.126301 145.008265 Q 172.362951 143.909786 173.039415 142.63133 Z" style="fill:#7b7275;"/>
		<path d="M 316.412696 144.989647 C 315.922415 147.087308 314.352272 149.594572 312.465618 151.270218 C 311.286459 152.319049 310.107301 152.927246 309.182592 152.964483 C 308.586807 152.989307 308.121349 152.772094 307.829663 152.331461 C 307.357999 151.61776 307.395236 150.364128 307.92896 148.868458 C 308.456478 147.391407 309.418424 145.821264 310.597582 144.511777 Q 312.484236 144.313182 313.917845 143.220909 Q 314.519836 142.755452 315.059767 143.289176 C 315.568667 143.785664 315.630728 144.635899 315.953445 144.902762 Q 316.139628 145.057914 316.412696 144.989647 Z" style="fill:#0988b1;"/>
		<path d="M 307.935166 143.376061 Q 307.209053 145.988829 307.773808 146.876301 Q 307.600037 147.937544 307.295938 149.172557 C 306.787038 151.264012 306.873923 152.548675 308.530952 153.889192 Q 309.008821 154.27397 309.585988 154.062962 Q 311.782947 153.268582 313.402739 151.437783 Q 316.127216 148.347146 317.67874 144.573838 Q 317.567031 145.076532 317.660122 145.591638 Q 317.734595 145.982623 318.075931 145.771615 L 318.29935 145.628875 C 316.716795 149.619396 311.280253 158.636857 305.769238 155.496571 C 304.242538 154.627717 303.832935 153.231345 304.062561 151.499844 Q 304.701789 146.801828 307.935166 143.376061 Z" style="fill:#7b7275;"/>
		<path d="M 269.680777 148.322322 C 272.597643 150.016586 273.634061 148.539535 274.788396 146.088126 Q 274.949754 145.740585 275.309708 145.790234 Q 275.638631 145.839882 275.657249 146.175012 L 275.812402 148.731924 C 275.849638 149.352534 276.271653 149.880052 276.867439 150.060029 L 279.10784 150.730288 Q 280.293205 151.084035 279.176107 151.61776 Q 277.4384 152.455583 276.364745 153.752658 C 276.190974 153.963665 276.097882 154.224321 276.104088 154.491183 L 276.166149 157.395637 Q 276.19718 159.009223 275.148349 157.792827 Q 274.521533 157.07292 273.900924 156.365425 C 272.461109 154.739427 271.319187 155.329007 269.637334 156.017883 Q 268.520236 156.483341 269.178083 155.465541 C 270.202089 153.87678 271.263332 151.90324 270.102791 150.140708 Q 269.655952 149.451831 269.27738 148.700894 Q 268.855366 147.838246 269.680777 148.322322 Z" style="fill:#000000;"/>
		<path d="M 217.195804 155.782052 Q 216.674492 156.669524 216.029058 157.432874 Q 214.458915 159.269879 214.595449 156.855707 L 214.713365 154.727015 Q 214.731983 154.391886 214.539594 154.118817 Q 213.391466 152.486614 211.473782 151.443989 Q 210.325653 150.817173 211.622728 150.668227 C 214.415472 150.34551 215.029876 149.718694 215.234677 146.901125 Q 215.365005 145.057914 216.401424 146.59082 C 217.735735 148.576772 217.990185 149.7249 220.820166 148.7071 Q 222.154477 148.223024 221.204944 149.284267 Q 219.945106 150.686845 220.162319 152.480407 C 220.292647 153.54165 221.018761 154.267764 221.428363 155.204885 Q 221.782111 156.02409 220.913257 155.850319 L 218.207398 155.3228 C 217.810208 155.242121 217.400605 155.428304 217.195804 155.782052 Z" style="fill:#000000;"/>
	</g>
	<g id="surface4">
	</g>
</svg>
