<?xml version="1.0" encoding="utf-8"?>
<svg xmlns="http://www.w3.org/2000/svg" width="490pt" height="280pt" viewBox="0 0 490 280" version="1.1" xmlns:xlink="http://www.w3.org/1999/xlink">
	<g id="surface2">
		<path d="M 196.921986 67.533256 C 197.199547 67.43611 197.386901 67.179366 197.39384 66.887926 Q 197.574255 57.26349 200.11394 48.214993 Q 205.533324 28.88979 223.269488 19.279232 C 236.502221 12.111212 253.433458 12.19448 266.582923 18.828195 C 280.023827 25.607628 288.836397 38.833422 291.660582 53.599681 Q 292.874913 59.928078 293.25656 66.492402 Q 293.277377 66.929561 293.61045 67.214061 C 295.289696 68.671258 296.497087 69.004331 296.608112 71.59259 Q 296.989759 81.022734 296.19177 89.724279 Q 294.935805 103.40111 289.162531 118.285333 Q 286.060784 126.272158 282.056963 132.545042 C 274.028503 145.125506 263.772615 156.456945 249.207588 161.244876 C 246.230743 162.22328 243.545338 162.00817 240.506042 161.085279 C 233.907023 159.093777 227.738225 154.958114 222.520073 150.017523 C 201.931966 130.498028 193.390019 103.706427 193.501043 74.964959 C 193.507982 72.0922 193.619007 68.643501 196.921986 67.533256 Z M 247.401636 19.923937 C 247.396501 19.265353 246.869134 18.737987 246.210898 18.741526 L 244.267969 18.748326 C 243.614729 18.751865 243.080423 19.286171 243.085558 19.939064 L 243.089166 20.979919 C 243.094301 21.638502 243.621668 22.165869 244.279904 22.16233 L 246.222833 22.155529 C 246.876073 22.151991 247.410379 21.617685 247.405244 20.964792 L 247.401636 19.923937 Z M 239.298651 51.372252 Q 239.02109 50.352214 239.028029 49.359933 Q 239.062724 34.524284 238.861492 21.645441 Q 238.840675 20.549074 238.771285 19.376378 Q 238.750467 19.00167 238.37576 19.043304 Q 233.490682 19.660878 228.563969 21.881368 Q 211.375988 29.646145 205.443116 46.778613 C 203.5557 52.232692 202.723016 58.283527 202.042991 63.966594 C 202.029113 64.112314 202.167894 64.223338 202.299735 64.174765 Q 218.086032 58.443125 234.711951 57.041441 Q 260.559843 54.862585 287.885749 63.841692 Q 288.211884 63.952716 288.163311 63.612704 Q 287.587371 59.650517 287.129395 55.709147 Q 286.678358 51.851045 284.215002 45.411624 Q 278.261313 29.854316 263.196675 22.568332 Q 257.617694 19.875988 252.267701 19.071061 C 252.045652 19.036365 251.837481 19.202902 251.823603 19.43189 C 251.275419 28.945302 251.587676 38.521166 251.77503 48.027639 Q 251.809725 49.942812 251.351749 51.587362 C 251.212968 52.10085 250.727236 52.447802 250.19293 52.420046 L 239.95092 51.892679 Q 239.437432 51.864923 239.298651 51.372252 Z M 247.274443 27.023815 C 247.278537 26.745629 247.056488 26.52358 246.778302 26.520735 L 243.628121 26.498739 C 243.351045 26.495824 243.128996 26.717873 243.124972 26.994879 L 243.105334 29.812057 C 243.10124 30.090243 243.323289 30.312292 243.601475 30.315137 L 246.751656 30.337133 C 247.028732 30.340048 247.250781 30.117999 247.254806 29.840993 L 247.274443 27.023815 Z M 247.32378 35.759917 C 247.32711 35.190431 246.862195 34.725516 246.293472 34.722393 L 244.128494 34.714829 C 243.559216 34.711638 243.094301 35.176553 243.09104 35.745137 L 243.083754 37.826777 C 243.080423 38.396263 243.545338 38.861178 244.114061 38.864301 L 246.279039 38.871864 C 246.848317 38.875056 247.313232 38.410141 247.316494 37.841557 L 247.32378 35.759917 Z M 243.156752 43.954427 L 243.10124 46.605137 C 243.094301 46.952089 243.371862 47.243528 243.718814 47.250467 L 245.786645 47.292102 C 246.765049 47.312919 247.569976 46.598198 247.590794 45.696124 L 247.604672 45.057733 C 247.625489 44.14872 246.848317 43.399305 245.869914 43.378488 L 243.802082 43.336854 C 243.455131 43.329915 243.163691 43.607476 243.156752 43.954427 Z M 199.086964 86.879276 Q 200.54416 112.914522 214.796931 133.821824 C 219.876302 141.274344 226.641858 148.317461 233.900084 152.98049 Q 235.974855 154.312784 238.403516 155.166285 Q 238.87537 155.332822 238.868431 154.833211 Q 238.840675 133.932848 238.889248 113.552913 C 238.910065 105.226075 251.448895 105.19138 251.469712 113.254535 Q 251.511346 132.322993 251.55992 152.820892 Q 251.55992 153.69521 251.684822 154.569528 C 251.726456 154.833211 252.004018 154.992809 252.246884 154.888723 C 265.562885 149.337498 275.666115 135.396984 282.279012 122.379361 Q 284.034587 118.916784 285.65832 114.295389 Q 287.400017 109.333982 288.503323 105.441185 Q 291.001374 96.656371 291.473229 86.740495 Q 291.702217 81.668063 291.660582 74.035129 C 291.653643 72.709774 291.542619 71.474626 290.272776 70.746028 Q 287.899627 69.392917 285.235039 68.393696 Q 273.563588 64.008228 260.310038 62.370617 C 242.608569 60.177883 223.637257 61.551811 206.935008 67.852452 Q 203.521005 69.143112 200.384562 70.981955 C 199.336769 71.599529 198.628988 72.335066 198.622048 73.653482 Q 198.601231 80.301074 199.086964 86.879276 Z M 247.195269 114.343963 C 247.195269 113.178205 246.244621 112.227558 245.078864 112.227558 C 243.913107 112.227558 242.96246 113.178205 242.96246 114.343963 C 242.96246 115.50972 243.913107 116.460367 245.078864 116.460367 C 246.244621 116.460367 247.195269 115.50972 247.195269 114.343963 Z M 247.120605 121.317342 C 247.125878 121.067884 246.924647 120.859713 246.677478 120.858534 L 243.666424 120.805936 C 243.420436 120.804201 243.212265 120.998494 243.207546 121.249062 L 243.162026 123.857722 C 243.156752 124.10718 243.357984 124.315351 243.605153 124.31653 L 246.616207 124.369128 C 246.862195 124.370863 247.070366 124.17657 247.075085 123.926002 L 247.120605 121.317342 Z M 247.223996 129.775189 C 247.243842 129.387783 246.938525 129.054709 246.547718 129.037223 L 243.927262 128.922798 C 243.538399 128.90899 243.205326 129.207368 243.189296 129.599076 L 243.100269 131.637209 C 243.080423 132.024615 243.38574 132.357688 243.776547 132.375175 L 246.397003 132.489599 C 246.785866 132.503408 247.118939 132.20503 247.134969 131.813321 L 247.223996 129.775189 Z M 247.133581 137.759308 C 247.139756 137.457876 246.89689 137.21501 246.600871 137.209598 L 243.783971 137.165396 C 243.482887 137.159498 243.240021 137.402364 243.234331 137.698036 L 243.190684 140.473302 C 243.184509 140.774733 243.427375 141.0176 243.723394 141.023012 L 246.540294 141.067214 C 246.841378 141.073112 247.084244 140.830246 247.089934 140.534574 L 247.133581 137.759308 Z M 247.26119 146.223608 C 247.243842 145.701446 246.799744 145.292043 246.276402 145.308419 L 244.085125 145.388773 C 243.559216 145.410007 243.149813 145.847165 243.169937 146.37363 L 243.215734 147.621823 C 243.233082 148.143985 243.67718 148.553388 244.200522 148.537012 L 246.391798 148.456658 C 246.917707 148.435424 247.32711 147.998265 247.306987 147.471801 L 247.26119 146.223608 Z M 244.357205 152.966612 C 243.573094 152.90416 242.900008 153.528673 242.900008 154.319723 L 242.900008 155.652017 C 242.900008 156.477762 243.628607 157.116153 244.440473 157.005128 L 246.341768 156.741445 C 247.04261 156.651237 247.556098 156.033664 247.514464 155.325882 L 247.465891 154.382174 C 247.431196 153.702149 246.889951 153.153966 246.209926 153.098453 L 244.357205 152.966612 Z" style="fill:#000000;"/>
		<path d="M 239.95092 51.892679 L 250.19293 52.420046 C 250.727236 52.447802 251.212968 52.10085 251.351749 51.587362 Q 251.809725 49.942812 251.77503 48.027639 C 251.587676 38.521166 251.275419 28.945302 251.823603 19.43189 C 251.837481 19.202902 252.045652 19.036365 252.267701 19.071061 Q 257.617694 19.875988 263.196675 22.568332 Q 278.261313 29.854316 284.215002 45.411624 Q 286.678358 51.851045 287.129395 55.709147 Q 287.587371 59.650517 288.163311 63.612704 Q 288.211884 63.952716 287.885749 63.841692 Q 260.559843 54.862585 234.711951 57.041441 Q 218.086032 58.443125 202.299735 64.174765 C 202.167894 64.223338 202.029113 64.112314 202.042991 63.966594 C 202.723016 58.283527 203.5557 52.232692 205.443116 46.778613 Q 211.375988 29.646145 228.563969 21.881368 Q 233.490682 19.660878 238.37576 19.043304 Q 238.750467 19.00167 238.771285 19.376378 Q 238.840675 20.549074 238.861492 21.645441 Q 239.062724 34.524284 239.028029 49.359933 Q 239.02109 50.352214 239.298651 51.372252 Q 239.437432 51.864923 239.95092 51.892679 Z M 271.200432 38.695544 C 272.231294 37.612153 272.071697 35.780248 270.832663 34.600891 C 269.594462 33.420978 267.755619 33.337709 266.725589 34.419296 C 265.694727 35.502687 265.854324 37.334591 267.093358 38.513949 C 268.331559 39.693862 270.170402 39.77713 271.200432 38.695544 Z M 223.755151 34.996138 C 222.860085 33.719356 221.014303 33.469551 219.633228 34.441085 C 218.252569 35.41248 217.863983 37.230506 218.759187 38.507288 C 219.654253 39.78407 221.500035 40.033875 222.881111 39.062341 C 224.26177 38.090946 224.650356 36.27292 223.755151 34.996138 Z M 226.687655 48.169473 C 228.105993 49.01992 229.986471 48.485615 230.891598 46.979706 C 231.797558 45.474075 231.381216 43.558903 229.968429 42.709288 C 228.550091 41.85884 226.669614 42.393145 225.764486 43.899054 C 224.858526 45.404685 225.274868 47.319858 226.687655 48.169473 Z M 265.431043 45.335295 C 265.431043 43.704622 264.105688 42.379267 262.475016 42.379267 C 260.844344 42.379267 259.518989 43.704622 259.518989 45.335295 C 259.518989 46.965967 260.844344 48.291322 262.475016 48.291322 C 264.105688 48.291322 265.431043 46.965967 265.431043 45.335295 Z M 210.719972 55.526303 C 212.187855 56.04222 213.832405 55.174841 214.399394 53.575603 C 214.963468 51.975948 214.234869 50.262007 212.767542 49.744008 C 211.299659 49.228091 209.655109 50.09547 209.08812 51.694709 C 208.524046 53.294364 209.252645 55.008305 210.719972 55.526303 Z M 280.116948 55.74974 C 281.571231 55.292805 282.320646 53.564986 281.790712 51.896982 C 281.265913 50.227312 279.662997 49.241969 278.209825 49.700986 C 276.755543 50.157922 276.006127 51.88574 276.536061 53.553745 C 277.06086 55.223415 278.663776 56.208757 280.116948 55.74974 Z" style="fill:#f96528;"/>
		<path d="M 271.200432 38.695544 C 270.170402 39.77713 268.331559 39.693862 267.093358 38.513949 C 265.854324 37.334591 265.694727 35.502687 266.725589 34.419296 C 267.755619 33.337709 269.594462 33.420978 270.832663 34.600891 C 272.071697 35.780248 272.231294 37.612153 271.200432 38.695544 Z" style="fill:#000000;"/>
		<path d="M 223.755151 34.996138 C 224.650356 36.27292 224.26177 38.090946 222.881111 39.062341 C 221.500035 40.033875 219.654253 39.78407 218.759187 38.507288 C 217.863983 37.230506 218.252569 35.41248 219.633228 34.441085 C 221.014303 33.469551 222.860085 33.719356 223.755151 34.996138 Z" style="fill:#000000;"/>
		<path d="M 226.687655 48.169473 C 225.274868 47.319858 224.858526 45.404685 225.764486 43.899054 C 226.669614 42.393145 228.550091 41.85884 229.968429 42.709288 C 231.381216 43.558903 231.797558 45.474075 230.891598 46.979706 C 229.986471 48.485615 228.105993 49.01992 226.687655 48.169473 Z" style="fill:#000000;"/>
		<path d="M 265.431043 45.335295 C 265.431043 46.965967 264.105688 48.291322 262.475016 48.291322 C 260.844344 48.291322 259.518989 46.965967 259.518989 45.335295 C 259.518989 43.704622 260.844344 42.379267 262.475016 42.379267 C 264.105688 42.379267 265.431043 43.704622 265.431043 45.335295 Z" style="fill:#000000;"/>
		<path d="M 210.719972 55.526303 C 209.252645 55.008305 208.524046 53.294364 209.08812 51.694709 C 209.655109 50.09547 211.299659 49.228091 212.767542 49.744008 C 214.234869 50.262007 214.963468 51.975948 214.399394 53.575603 C 213.832405 55.174841 212.187855 56.04222 210.719972 55.526303 Z" style="fill:#000000;"/>
		<path d="M 280.116948 55.74974 C 278.663776 56.208757 277.06086 55.223415 276.536061 53.553745 C 276.006127 51.88574 276.755543 50.157922 278.209825 49.700986 C 279.662997 49.241969 281.265913 50.227312 281.790712 51.896982 C 282.320646 53.564986 281.571231 55.292805 280.116948 55.74974 Z" style="fill:#000000;"/>
		<path d="M 232.255534 86.324154 Q 232.914742 84.943286 231.408972 84.637969 Q 226.676553 83.694261 223.25561 82.688101 Q 218.120727 81.18927 214.894077 77.03279 Q 213.901796 75.742131 215.463078 76.200107 Q 222.658853 78.302633 231.06896 79.61411 C 232.095936 79.773708 233.872328 80.217806 234.79522 80.703538 C 240.686457 83.805285 237.674918 89.481413 233.490682 92.146001 Q 225.462222 97.260067 217.197836 92.888477 Q 212.187855 90.237767 209.585718 85.41514 C 207.982802 82.459113 206.227227 78.094462 206.608874 74.708215 Q 206.941947 71.779944 208.003619 74.5278 Q 210.36289 80.613331 214.498552 84.943286 C 217.30886 87.885436 222.277207 90.806768 226.523894 90.043474 C 228.452945 89.696523 231.332643 88.274021 232.255534 86.324154 Z" style="fill:#000000;"/>
		<path d="M 258.027097 84.998799 C 257.694023 85.172274 257.534426 85.553921 257.64545 85.914751 Q 257.971585 87.004179 258.838964 87.649509 Q 265.694727 92.72888 273.098673 87.78135 C 277.900483 84.575518 280.613644 79.516964 282.959037 74.049007 Q 283.694574 72.328127 283.763965 74.194727 C 284.117855 83.506907 279.010728 92.055794 269.788755 94.449759 Q 262.252967 96.406566 255.549863 91.230049 Q 251.851359 88.378107 252.364847 84.05509 C 252.663226 81.577856 256.340912 80.106781 258.422622 79.75983 Q 265.875141 78.524682 273.147246 76.956461 Q 274.306065 76.706656 275.55509 76.311131 Q 276.547372 75.998875 275.895103 76.810741 C 271.821891 81.806844 265.95841 83.604053 259.616135 84.48531 Q 258.776512 84.603274 258.027097 84.998799 Z" style="fill:#000000;"/>
		<path d="M 291.473229 86.740495 Q 291.001374 96.656371 288.503323 105.441185 Q 287.400017 109.333982 285.65832 114.295389 Q 284.034587 118.916784 282.279012 122.379361 C 275.666115 135.396984 265.562885 149.337498 252.246884 154.888723 C 252.004018 154.992809 251.726456 154.833211 251.684822 154.569528 Q 251.55992 153.69521 251.55992 152.820892 Q 251.511346 132.322993 251.469712 113.254535 C 251.448895 105.19138 238.910065 105.226075 238.889248 113.552913 Q 238.840675 133.932848 238.868431 154.833211 Q 238.87537 155.332822 238.403516 155.166285 Q 235.974855 154.312784 233.900084 152.98049 C 226.641858 148.317461 219.876302 141.274344 214.796931 133.821824 Q 200.54416 112.914522 199.086964 86.879276 Q 199.246561 87.78135 200.391502 87.829923 Q 201.807064 93.1591 204.159396 97.079652 Q 208.197912 103.810513 215.171639 108.091895 C 219.904058 111.006288 225.052819 111.797338 230.041983 109.056421 Q 233.761304 107.009406 237.674918 104.40727 Q 243.732692 100.375692 249.797406 102.936195 C 254.397983 104.879124 257.853621 108.813555 262.66237 110.201361 C 271.252891 112.678595 278.941338 106.773479 283.666818 100.243851 Q 287.080822 95.51837 288.621287 89.641011 Q 289.426214 88.246265 291.473229 86.740495 Z M 212.518014 114.73234 C 213.818527 113.997011 214.082211 111.99857 213.10686 110.277343 C 212.132343 108.549871 210.28656 107.751883 208.984937 108.487628 C 207.684424 109.222957 207.42074 111.221398 208.396091 112.942625 C 209.370608 114.670097 211.216391 115.468086 212.518014 114.73234 Z M 281.272852 108.182103 Q 278.573569 109.118872 277.06086 111.082618 C 276.033884 112.421851 276.103274 115.239098 278.407032 115.155829 C 281.529596 115.044805 282.237378 111.505899 282.334524 108.973152 Q 282.383097 107.800456 281.272852 108.182103 Z M 226.366517 132.566692 C 227.946395 132.239725 228.897043 130.400881 228.495273 128.471206 C 228.092115 126.535841 226.48226 125.238242 224.904879 125.570483 C 223.325001 125.89745 222.374353 127.736293 222.776123 129.665969 C 223.179281 131.601334 224.789136 132.898933 226.366517 132.566692 Z M 264.43779 132.439153 C 265.944532 132.642189 267.367033 131.309895 267.613438 129.467651 C 267.859704 127.625269 266.832728 125.96684 265.327929 125.767413 C 263.821188 125.564377 262.398687 126.896671 262.152282 128.738914 C 261.906015 130.581296 262.932992 132.239725 264.43779 132.439153 Z" style="fill:#f96528;"/>
		<path d="M 200.391502 87.829923 Q 204.735335 93.610137 209.523267 98.467459 C 213.103807 102.103511 219.904058 106.606943 225.219356 105.815893 Q 228.869287 105.267709 232.255534 102.75578 C 237.529198 98.842166 243.517582 95.795932 249.755771 97.898458 Q 253.037933 99.001764 258.207512 102.839048 C 263.994664 107.134309 269.268328 106.731845 275.249773 103.033341 Q 280.051583 100.063436 283.86805 95.344894 Q 286.081601 92.617855 288.621287 89.641011 Q 287.080822 95.51837 283.666818 100.243851 C 278.941338 106.773479 271.252891 112.678595 262.66237 110.201361 C 257.853621 108.813555 254.397983 104.879124 249.797406 102.936195 Q 243.732692 100.375692 237.674918 104.40727 Q 233.761304 107.009406 230.041983 109.056421 C 225.052819 111.797338 219.904058 111.006288 215.171639 108.091895 Q 208.197912 103.810513 204.159396 97.079652 Q 201.807064 93.1591 200.391502 87.829923 Z" style="fill:#000000;"/>
		<path d="M 212.518014 114.73234 C 211.216391 115.468086 209.370608 114.670097 208.396091 112.942625 C 207.42074 111.221398 207.684424 109.222957 208.984937 108.487628 C 210.28656 107.751883 212.132343 108.549871 213.10686 110.277343 C 214.082211 111.99857 213.818527 113.997011 212.518014 114.73234 Z" style="fill:#000000;"/>
		<path d="M 281.272852 108.182103 Q 282.383097 107.800456 282.334524 108.973152 C 282.237378 111.505899 281.529596 115.044805 278.407032 115.155829 C 276.103274 115.239098 276.033884 112.421851 277.06086 111.082618 Q 278.573569 109.118872 281.272852 108.182103 Z" style="fill:#000000;"/>
		<path d="M 226.366517 132.566692 C 224.789136 132.898933 223.179281 131.601334 222.776123 129.665969 C 222.374353 127.736293 223.325001 125.89745 224.904879 125.570483 C 226.48226 125.238242 228.092115 126.535841 228.495273 128.471206 C 228.897043 130.400881 227.946395 132.239725 226.366517 132.566692 Z" style="fill:#000000;"/>
		<path d="M 264.43779 132.439153 C 262.932992 132.239725 261.906015 130.581296 262.152282 128.738914 C 262.398687 126.896671 263.821188 125.564377 265.327929 125.767413 C 266.832728 125.96684 267.859704 127.625269 267.613438 129.467651 C 267.367033 131.309895 265.944532 132.642189 264.43779 132.439153 Z" style="fill:#000000;"/>
	</g>
	<g id="surface4">
	</g>
</svg>
