<?xml version="1.0" encoding="utf-8"?>
<svg xmlns="http://www.w3.org/2000/svg" width="490pt" height="280pt" viewBox="0 0 490 280" version="1.1" xmlns:xlink="http://www.w3.org/1999/xlink">
	<g id="surface2">
		<path d="M 295.837482 8.174516 C 297.301823 9.765579 297.146941 11.659367 295.69668 13.109628 Q 295.277794 13.532034 294.883548 13.982601 Q 279.842369 31.269572 264.259103 48.077816 Q 261.210739 51.369064 258.236295 54.727193 Q 257.19436 55.90641 255.930662 57.071547 C 255.737059 57.25107 255.441375 57.26867 255.226652 57.110268 L 252.255728 54.931356 Q 252.093806 54.811674 252.178287 54.632152 Q 252.523252 53.86478 253.0759 53.188931 Q 259.000147 45.930585 264.903272 38.633519 Q 267.233546 35.754117 269.394858 33.20208 Q 279.729728 20.991023 290.043478 9.001728 Q 290.680607 8.262518 291.444458 7.660589 C 292.789118 6.601053 294.735706 6.981219 295.837482 8.174516 Z" style="fill:#02588d;"/>
		<path d="M 291.937265 34.937465 Q 291.486699 36.320845 292.299831 35.116988 Q 292.760957 34.430578 293.260804 33.719528 Q 293.971855 32.716313 293.859213 33.937771 C 293.802892 34.54322 293.056642 35.458433 292.690556 36.067402 Q 292.591995 36.232844 292.669436 36.408847 Q 292.831358 36.778452 293.190403 36.936854 C 293.296005 36.982615 293.415687 36.972055 293.507208 36.905174 Q 295.418596 35.546434 298.005833 35.613315 Q 298.414159 35.627395 298.076234 35.849158 Q 296.207087 37.084696 294.102097 37.697185 Q 293.700811 37.813347 293.510728 38.197033 C 293.384006 38.453996 293.507208 38.763761 293.774732 38.865842 C 294.630104 39.193207 295.488997 39.513532 296.263408 40.020419 Q 297.030779 40.520266 297.822791 40.939152 Q 298.48104 41.291158 297.73831 41.301718 C 296.548532 41.322838 294.971549 40.678669 293.549449 40.0873 C 292.98272 39.851457 292.444153 40.013379 292.074547 40.488586 C 291.979506 40.611788 291.965426 40.77723 292.039347 40.914512 C 292.620155 41.959967 293.489608 44.131839 293.105922 45.244175 C 293.070722 45.346257 292.93344 45.356817 292.887679 45.261775 L 290.793249 41.076434 Q 290.564445 40.622348 290.444764 41.118675 Q 290.321562 41.632603 290.117399 42.047969 Q 289.269066 43.793914 288.519296 45.511699 Q 288.427774 45.722902 288.374973 45.501139 C 287.970168 43.811514 288.8009 42.572456 289.262026 41.041234 C 289.304267 40.896912 289.300747 40.74555 289.244426 40.604748 L 288.698818 39.217847 C 288.653058 39.105206 288.505215 39.084086 288.434814 39.182647 C 287.987768 39.802176 287.392879 40.654028 286.632548 40.822991 Q 285.147087 41.153876 283.633465 41.111635 Q 283.042096 41.097555 283.580664 40.858191 Q 285.442771 40.027459 287.104235 38.869362 C 287.42808 38.644079 287.864566 38.552558 288.255292 38.510317 Q 288.470015 38.485677 288.536896 38.281514 Q 288.698818 37.799267 288.688258 37.366301 Q 288.681218 37.116377 288.498175 36.950935 Q 287.575922 36.120202 286.836711 35.222589 Q 286.650148 34.997306 286.713509 34.719222 C 286.73111 34.631221 286.829671 34.58194 286.910632 34.620661 C 287.692084 34.990266 288.290492 35.736517 288.924101 36.303245 C 289.026183 36.394766 289.188105 36.303245 289.159945 36.165963 Q 288.501695 32.934556 288.202491 30.273397 Q 288.16377 29.935473 288.452415 30.122035 Q 288.487615 30.143156 288.582656 30.382519 Q 289.624592 32.948636 290.127959 35.514754 Q 290.163159 35.694276 290.346202 35.718917 Q 291.124133 35.828038 291.328296 35.021946 C 291.715502 33.483684 291.838704 31.84334 292.405432 30.378999 Q 292.792638 29.382825 292.753917 30.45292 Q 292.669436 32.681112 291.937265 34.937465 Z M 291.007972 39.812736 L 292.454713 38.774321 C 292.782078 38.538478 292.855999 38.087911 292.620155 37.760546 L 292.28575 37.292379 C 291.704942 36.486288 290.743968 36.187083 290.138519 36.62357 L 289.709073 36.929814 C 289.103624 37.366301 289.082504 38.373035 289.659792 39.179127 L 289.997717 39.647294 C 290.23004 39.971138 290.684127 40.045059 291.007972 39.812736 Z" style="fill:#02588d;"/>
		<path d="M 282.873134 35.98644 C 282.869613 35.98644 282.869613 35.98644 282.869613 35.98292 L 282.876654 35.96532 C 283.084337 35.430272 284.291714 35.395072 285.576533 35.891399 L 286.213662 36.137803 C 287.498481 36.63413 288.371453 37.471902 288.16377 38.00695 L 288.15673 38.02455 C 288.15673 38.02455 288.15321 38.02807 288.15321 38.02455 L 282.873134 35.98644 Z" style="fill:#02588d;"/>
		<path d="M 229.252194 38.534958 Q 233.969063 37.34166 239.122418 37.757026 Q 246.753889 38.373035 254.610643 41.150356 Q 256.750834 41.907167 257.933571 42.695658 Q 258.422858 43.026543 257.84205 43.132144 Q 257.465404 43.202545 257.106359 43.072303 Q 255.251292 42.410534 253.382145 41.741724 Q 245.014983 38.746161 236.468299 38.517357 Q 232.779285 38.418796 229.231074 38.566638 Q 229.209954 38.570158 229.202913 38.552558 Q 229.202913 38.545518 229.206433 38.545518 Q 229.216994 38.538478 229.224034 38.538478 Q 229.234594 38.538478 229.252194 38.534958 Z" style="fill:#18b4db;"/>
		<path d="M 237.302551 45.476498 L 238.214244 45.670101 Q 238.305766 45.691222 238.362087 45.765143 Q 238.404327 45.824983 238.372647 45.891864 Q 238.355046 45.941145 238.305766 45.955225 L 237.348312 46.29315 C 237.21807 46.338911 237.119508 46.451553 237.094868 46.585315 L 236.932946 47.461807 Q 236.904785 47.62725 236.742863 47.687091 Q 236.668942 47.711731 236.605581 47.63077 Q 236.55278 47.560369 236.5387 47.475887 L 236.387338 46.627555 Q 236.348617 46.426912 236.151494 46.370591 L 235.229241 46.117148 Q 234.581552 45.937625 235.215161 45.715862 L 235.933251 45.465938 C 236.031813 45.434258 236.109254 45.356817 236.144454 45.261775 Q 236.334537 44.761928 236.309897 44.159999 C 236.302857 43.991037 236.482379 43.881915 236.630221 43.962876 Q 236.816784 44.064958 236.866065 44.293761 Q 236.964626 44.768968 237.045587 45.212495 Q 237.087828 45.427218 237.302551 45.476498 Z" style="fill:#02588d;"/>
		<path d="M 211.402015 52.108275 C 211.535777 52.143475 211.669539 52.051954 211.680099 51.914672 Q 211.75754 50.918498 211.866661 49.964564 Q 212.003943 48.760706 212.246827 49.950483 Q 212.42635 50.826976 212.46859 51.622508 Q 212.489711 52.030834 212.890996 51.953393 L 214.848145 51.576747 Q 215.164949 51.513386 214.915026 51.721069 Q 214.242696 52.284277 213.556286 52.819325 C 212.626993 53.551496 213.675968 54.361108 214.035013 55.058078 C 214.094854 55.174239 213.950532 55.286881 213.85197 55.19888 L 212.936757 54.364628 C 212.743154 54.188625 212.43339 54.269586 212.348908 54.51599 L 212.120105 55.19184 Q 212.039144 55.438243 211.972263 55.18832 Q 211.852581 54.744793 211.810341 54.287186 C 211.78922 54.079503 211.560417 53.959822 211.380894 54.068943 L 209.958794 54.906715 Q 209.627909 55.103838 209.853192 54.787034 Q 210.265038 54.209745 210.831766 53.709898 Q 211.317533 53.283972 210.821206 52.868606 Q 210.060875 52.231477 209.194943 51.816111 Q 208.892218 51.671788 209.226623 51.643628 C 209.870792 51.597867 210.778966 51.946352 211.402015 52.108275 Z" style="fill:#02588d;"/>
		<path d="M 280.497099 67.494418 Q 277.385374 61.960898 273.71044 57.655875 Q 271.281605 54.808154 267.638352 51.337384 Q 267.384908 51.0945 267.564431 50.791776 Q 267.610192 50.717855 267.715793 50.665054 C 267.916436 50.559452 268.15932 50.580573 268.338842 50.721375 C 269.289256 51.471146 270.27839 52.132915 271.144323 53.016448 Q 278.958837 60.964724 283.464502 70.655424 Q 284.481797 72.844896 285.059085 75.104769 C 285.087246 75.213891 285.055565 75.330052 284.978124 75.411014 Q 284.791561 75.601096 284.604999 75.523655 Q 284.108671 75.315972 283.925629 74.897086 Q 283.003375 72.770975 282.052962 70.521662 C 281.612955 69.479727 281.046227 68.472993 280.497099 67.494418 Z" style="fill:#18b4db;"/>
		<path d="M 266.944902 57.94452 C 265.987448 56.877944 264.889192 55.976811 263.938778 54.899675 Q 263.548053 54.463189 263.917658 54.005582 L 263.973979 53.935181 C 264.118301 53.755659 264.378785 53.731018 264.554787 53.878861 C 270.000306 58.398606 274.065966 63.960287 277.241052 70.306939 Q 278.300587 72.42601 278.765234 74.604922 C 278.803954 74.787964 278.670192 74.960447 278.48363 74.974527 C 277.726819 75.027328 276.850326 74.629562 276.589842 73.841071 C 274.646774 67.937945 271.063362 62.541706 266.944902 57.94452 Z" style="fill:#18b4db;"/>
		<path d="M 229.278454 55.702388 C 229.192353 55.709287 229.086752 55.304481 229.041554 54.793511 C 228.99875 54.283666 229.033951 53.86478 229.120333 53.857599 C 229.206433 53.8507 229.312035 54.255506 229.357232 54.766477 C 229.400036 55.276321 229.364836 55.695207 229.278454 55.702388 Z" style="fill:#18b4db;"/>
		<path d="M 230.653175 56.712502 L 231.624709 56.540019 C 231.681029 56.529459 231.73383 56.56466 231.74791 56.61746 L 231.769031 56.712502 Q 231.776071 56.733622 231.754951 56.737142 Q 231.248063 56.839224 230.977019 57.201789 C 230.892538 57.31091 230.920698 57.469313 231.03686 57.543234 L 231.818311 58.057161 Q 231.853512 58.081802 231.828872 58.117002 L 231.769031 58.201483 C 231.74791 58.229644 231.70919 58.240204 231.681029 58.222604 L 230.713015 57.676996 C 230.378611 57.490433 229.956204 57.645315 229.825962 58.007881 Q 229.590119 58.68021 229.530278 59.451102 Q 229.512678 59.662305 229.326115 59.722145 Q 229.072672 59.806627 229.037471 59.542623 L 228.861468 58.254284 C 228.829788 58.011401 228.618585 57.831878 228.372181 57.835398 Q 227.481608 57.849478 226.679037 58.226124 Q 226.334072 58.388046 226.520634 58.057161 Q 226.9184 57.353151 227.837134 57.148988 C 228.108178 57.089147 228.231379 56.775863 228.072977 56.547059 L 227.245765 55.367842 Q 227.189444 55.286881 227.273925 55.2376 L 227.407687 55.160159 Q 227.432328 55.146079 227.456968 55.163679 Q 228.143378 55.631846 228.502423 56.378097 C 228.674906 56.733622 229.178273 56.733622 229.350756 56.378097 Q 229.723881 55.610726 230.484212 55.139039 Q 230.941819 54.857435 230.737656 55.353762 Q 230.551093 55.804329 230.31173 56.240815 Q 229.991405 56.828663 230.653175 56.712502 Z" style="fill:#02588d;"/>
		<path d="M 257.778689 79.948359 L 257.87021 80.022281 C 257.926531 80.068041 258.007492 80.057481 258.049733 80.00116 Q 259.496474 78.135533 260.693291 77.149919 C 263.146767 75.132929 266.878021 73.746029 270.169269 74.344438 C 274.801656 75.18573 277.860581 77.755368 280.398538 81.472542 Q 280.711822 81.926628 280.863184 82.482796 C 280.919505 82.697519 280.761103 82.908722 280.53934 82.915763 Q 278.451949 82.958003 276.332878 82.929843 C 269.201255 82.841842 262.252674 82.958003 255.212571 82.940403 Q 236.105734 82.898162 217.044657 82.961523 Q 215.770398 82.968563 214.53134 82.898162 C 213.380283 82.834801 212.215147 82.950963 211.08169 82.940403 Q 201.975318 82.870002 192.608462 82.894642 Q 191.383484 82.898162 190.035304 82.838321 C 189.76778 82.827761 189.588258 82.553197 189.686819 82.303274 C 191.647488 77.280161 196.336196 73.161701 201.918997 73.017379 Q 209.328705 72.827296 213.908291 78.924025 Q 214.788304 80.096202 215.643676 81.33878 C 216.140004 82.05687 216.657451 81.669664 217.26642 81.440861 Q 220.941353 80.064521 222.74362 76.959836 Q 224.1446 74.541561 225.615981 72.045845 Q 228.062417 67.895704 231.70215 64.361573 Q 235.479165 60.69368 240.139712 59.032215 C 245.036104 57.28627 250.904029 57.409472 255.187931 60.394475 C 259.672476 63.516761 261.400821 68.789797 260.123043 74.041714 Q 259.447193 76.829594 257.732928 79.694916 C 257.683647 79.779397 257.701248 79.888519 257.778689 79.948359 Z" style="fill:#18b4db;"/>
		<path d="M 198.532708 59.581343 L 198.089181 59.465182 Q 197.97654 59.437021 198.01526 59.3279 L 198.043421 59.239898 Q 198.050461 59.218778 198.071581 59.229338 Q 198.560868 59.468702 198.898793 59.155417 C 198.965674 59.095576 198.990314 59.004055 198.969194 58.916054 L 198.807272 58.254284 Q 198.71575 57.891719 198.997354 58.134602 L 199.504242 58.574609 Q 199.648564 58.697811 199.835127 58.69077 L 200.972103 58.63445 C 201.102345 58.63093 201.172746 58.785812 201.081225 58.880853 Q 200.405375 59.584863 200.7785 60.436716 Q 200.841861 60.584558 200.813701 60.74296 Q 200.79258 60.845042 200.686979 60.883762 C 200.634178 60.904883 200.570817 60.894323 200.525057 60.859122 L 199.926648 60.362795 C 199.852727 60.302954 199.757685 60.271273 199.659124 60.278314 Q 199.289519 60.295914 199.053675 60.626799 Q 199.004395 60.6972 198.923433 60.72184 Q 198.870633 60.73592 198.817832 60.72184 Q 198.69463 60.6972 198.733351 60.577518 Q 198.860072 60.179752 198.775591 59.824227 Q 198.72631 59.630624 198.532708 59.581343 Z" style="fill:#02588d;"/>
		<path d="M 212.780361 66.74602 C 212.373549 67.445138 211.416095 67.649301 210.642528 67.200142 C 209.870792 66.751688 209.575108 65.818874 209.981428 65.117011 C 210.38824 64.417894 211.345694 64.213731 212.11926 64.662889 C 212.890996 65.111344 213.186681 66.044157 212.780361 66.74602 Z" style="fill:#18b4db;"/>
		<path d="M 281.824158 87.896635 C 272.140498 87.766393 262.632839 87.840314 253.104061 87.836794 Q 222.567617 87.822714 192.062854 87.857914 C 191.943172 87.861434 191.84813 87.956476 191.84461 88.072638 C 191.651008 99.470563 193.89328 110.160959 200.472256 119.18285 Q 208.881658 130.721577 222.289533 136.286778 Q 223.613072 136.835906 224.84157 137.356874 C 225.035173 137.441355 225.126694 137.666638 225.038693 137.860241 C 224.595166 138.835295 222.416255 138.050324 221.677044 137.856721 Q 214.837585 136.075575 210.120716 133.248974 Q 199.032555 126.606638 193.273751 115.124231 C 188.761046 106.12346 187.648709 96.214516 188.081676 86.052128 Q 188.088716 85.858525 188.282319 85.858525 C 221.124396 85.774044 253.670789 85.742364 284.604999 85.862045 Q 285.210447 85.862045 285.794776 85.939487 C 285.953178 85.960607 286.07638 86.094369 286.0799 86.256291 C 286.143261 89.779862 285.956698 93.342154 285.594133 96.869245 Q 284.464197 107.858845 279.272121 117.042659 C 273.270434 127.666173 263.083406 136.332539 250.875868 138.296728 Q 250.467543 138.363609 250.069777 138.314328 Q 248.953921 138.173526 249.809293 137.441355 Q 250.143698 137.156231 250.527383 137.018949 Q 254.040394 135.755251 256.645232 134.213468 Q 273.886443 123.99828 279.729728 105.261047 Q 281.972 98.069583 282.042401 88.121918 Q 282.042401 87.900155 281.824158 87.896635 Z" style="fill:#02588d;"/>
		<path d="M 296.580213 104.102951 Q 296.604853 103.543262 296.182447 103.912868 L 294.725146 105.183606 C 294.661785 105.239927 294.573784 105.257527 294.492822 105.232887 L 294.32386 105.183606 C 294.256979 105.166006 294.232339 105.081525 294.281619 105.032244 C 294.700505 104.602798 295.68964 103.726305 295.503077 103.050455 C 295.432676 102.800532 295.210913 102.617489 294.950429 102.599889 Q 293.894414 102.522448 292.729277 102.65621 C 292.599035 102.67029 292.493433 102.550608 292.528634 102.423886 L 292.567354 102.293644 C 292.613115 102.128202 292.764477 102.01556 292.93344 102.01908 Q 293.760652 102.043721 294.559703 101.931079 Q 294.869468 101.888838 294.887068 101.579074 C 294.894108 101.466432 294.834267 101.357311 294.735706 101.30099 Q 294.524503 101.174268 294.35906 100.977145 Q 294.183058 100.765942 294.457622 100.755382 L 295.249633 100.727221 C 295.629799 100.713141 295.788201 100.234414 295.492517 99.995051 C 295.084191 99.664166 294.637144 99.393122 294.225299 99.065757 Q 293.032001 98.115344 294.447062 98.689112 Q 295.418596 99.079838 296.37957 99.801448 C 296.566133 99.93873 296.833656 99.815528 296.844217 99.583205 L 296.992059 96.837565 C 296.995579 96.760124 297.05894 96.696763 297.136381 96.693243 L 297.263103 96.689723 Q 297.368704 96.686203 297.386304 96.791804 Q 297.608068 98.333587 297.590467 99.797928 Q 297.586947 100.019691 297.386304 100.114733 L 297.0871 100.255535 Q 296.889977 100.347056 296.988539 100.537139 Q 297.139901 100.829303 297.488386 100.797623 C 297.593987 100.790582 297.685509 100.723701 297.731269 100.62866 Q 298.48456 99.069277 300.343147 98.488469 Q 300.445229 98.456788 300.52971 98.53775 C 300.607151 98.611671 300.603631 98.731352 300.52619 98.805274 L 298.43528 100.723701 C 298.290958 100.853943 298.354319 101.093307 298.544401 101.139067 Q 300.212906 101.536833 301.733568 102.349965 C 301.803969 102.388686 301.821569 102.483727 301.768768 102.543568 L 301.680767 102.638609 Q 301.529405 102.804052 301.311162 102.751251 L 299.491295 102.307724 C 299.364573 102.276044 299.234331 102.311245 299.14281 102.399246 L 298.551441 102.962454 Q 298.396559 103.113816 298.512721 103.293339 L 299.649697 105.095605 Q 299.769379 105.285688 299.586336 105.41593 L 299.491295 105.482811 C 299.449054 105.514491 299.389214 105.507451 299.354013 105.46873 L 297.882632 103.916388 C 297.724229 103.750945 297.449665 103.838947 297.414465 104.06423 Q 297.305343 104.76824 297.168061 105.44409 Q 296.879417 106.887311 296.654134 105.43353 Q 296.555572 104.76824 296.580213 104.102951 Z M 297.984713 101.582594 Q 297.273663 102.209163 296.875897 101.399551 Q 296.749175 101.139067 296.745655 100.839863 C 296.742135 100.61106 296.471091 100.491378 296.302129 100.64626 C 295.763561 101.135547 295.144032 101.783237 295.921963 102.476687 Q 297.08358 103.504542 298.213516 102.085961 Q 298.417679 101.828997 298.199436 101.593154 Q 298.097355 101.484032 297.984713 101.582594 Z" style="fill:#02588d;"/>
		<path d="M 253.118141 142.59823 C 253.220223 142.633431 253.297664 142.721432 253.315264 142.830553 C 253.427906 143.601445 252.857657 143.97457 252.139567 144.009771 Q 250.618905 144.083692 249.224964 144.083692 Q 234.060584 144.083692 222.138171 144.143533 Q 221.37432 144.150573 221.078635 143.443042 Q 221.018794 143.29872 221.082155 143.143838 Q 221.317999 142.58063 221.923448 142.499669 Q 223.697553 142.270865 225.630062 142.277905 Q 238.098083 142.323666 250.854748 142.267345 Q 252.058606 142.260305 253.118141 142.59823 Z" style="fill:#02588d;"/>
		<path d="M 262.418116 148.364074 Q 264.202782 149.103285 264.864552 150.500745 C 265.874806 152.637416 264.611108 154.95361 262.164673 154.96769 Q 239.354741 155.094412 213.376763 154.99937 Q 211.130971 154.99233 210.814166 154.932489 C 208.966139 154.587524 207.691881 152.757098 208.32197 150.88091 C 209.00134 148.867441 211.335134 148.047269 213.271162 147.533342 C 216.340646 146.72373 219.047566 146.276684 222.275453 146.262603 Q 235.722048 146.195722 248.964481 146.216843 C 251.509478 146.223883 254.212877 146.146442 256.624112 146.625169 Q 259.704157 147.237657 262.418116 148.364074 Z" style="fill:#02588d;"/>
	</g>
	<g id="surface4">
	</g>
</svg>
