<?xml version="1.0" encoding="utf-8"?>
<svg xmlns="http://www.w3.org/2000/svg" width="490pt" height="280pt" viewBox="0 0 490 280" version="1.1" xmlns:xlink="http://www.w3.org/1999/xlink">
	<g id="surface2">
		<path d="M 140.227301 153.313685 Q 139.918447 113.204842 140.23432 66.420552 C 140.255378 63.577696 142.255907 62.819601 144.916259 62.805562 Q 168.445282 62.630077 190.605523 62.700271 Q 193.918679 62.70729 193.876562 65.781787 C 193.848485 67.9578 193.532612 69.00369 191.040726 69.00369 Q 168.368069 68.989652 146.776399 68.982632 Q 146.481585 68.982632 146.481585 69.277447 L 146.678128 154.289381 Q 146.685147 155.054495 147.443242 155.047476 L 198.993704 154.857952 Q 199.681605 154.850933 199.681605 154.170051 Q 199.899206 99.601248 200.039594 46.352092 Q 200.046614 44.639359 201.429435 43.663662 Q 215.924493 33.394282 231.100432 22.794991 C 234.890907 20.141658 238.913023 16.723211 242.773692 14.701625 C 245.841169 13.094182 247.701309 14.659508 250.579263 16.702153 Q 265.088359 27.020669 279.372835 37.27601 Q 283.879289 40.511952 288.926236 43.874244 C 289.557982 44.295408 289.93001 45.004367 289.922991 45.762462 C 289.628176 81.203405 289.824719 117.19186 289.887894 154.338517 Q 289.887894 154.759681 290.295019 154.850933 Q 290.74426 154.956224 291.516394 154.956224 Q 317.642595 154.935166 342.400013 154.836894 C 342.708867 154.836894 342.954546 154.591215 342.954546 154.282362 L 343.087914 69.530145 C 343.094933 69.270428 342.856274 69.052826 342.561459 69.052826 Q 321.496245 68.954555 299.258791 68.989652 Q 296.022848 68.989652 296.317663 65.929194 Q 296.331701 65.809864 296.331701 65.697554 Q 296.401895 62.700271 299.399178 62.693251 Q 319.348309 62.665174 343.965339 62.735368 C 346.745021 62.742387 349.405373 62.93893 349.412392 66.539882 Q 349.475567 108.522903 349.447489 153.545325 Q 349.447489 154.029663 349.924808 154.06476 L 350.682903 154.127935 Q 351.097048 154.163032 351.455037 154.373614 C 354.999833 156.493472 353.799516 162.031777 349.384314 162.024758 Q 243.251011 161.989661 140.34663 162.038797 C 135.664692 162.045816 134.969771 154.738622 139.749981 153.889275 Q 140.23432 153.805042 140.227301 153.313685 Z M 213.902906 42.709024 C 213.846751 42.744121 213.874828 42.835373 213.945022 42.835373 L 275.69467 42.751141 Q 276.242183 42.751141 275.785922 42.456326 C 274.227616 41.438513 272.606135 40.533011 271.089945 39.452023 Q 258.686668 30.579504 245.686742 21.566596 C 245.349811 21.327937 244.914608 21.313898 244.556619 21.51746 Q 242.499935 22.717777 240.323922 24.290123 Q 226.45359 34.334882 213.902906 42.709024 Z M 283.261582 49.76352 C 283.261582 49.665248 283.177349 49.581015 283.079077 49.581015 L 206.595712 49.581015 C 206.497441 49.581015 206.413208 49.665248 206.413208 49.76352 L 206.413208 154.773719 C 206.413208 154.871991 206.497441 154.956224 206.595712 154.956224 L 283.079077 154.956224 C 283.177349 154.956224 283.261582 154.871991 283.261582 154.773719 L 283.261582 49.76352 Z" style="fill:#0e2240;"/>
		<path d="M 253.464235 99.629326 L 253.492313 122.245827 C 253.492313 122.498526 253.28875 122.702088 253.036052 122.702088 L 236.526427 122.709108 C 236.273729 122.709108 236.070166 122.505545 236.070166 122.252847 L 236.006992 99.720578 C 236.006992 99.46788 235.803429 99.264317 235.550731 99.264317 L 217.918002 99.264317 C 217.658284 99.264317 217.454722 99.060754 217.461741 98.801037 L 217.616168 82.291412 C 217.623187 82.045733 217.82675 81.84217 218.072429 81.84217 L 235.55775 81.800054 C 235.810448 81.800054 236.014011 81.596491 236.014011 81.343793 L 236.042089 62.377378 C 236.042089 62.12468 236.245651 61.921118 236.498349 61.921118 L 252.965858 61.984292 C 253.218556 61.984292 253.422119 62.187855 253.422119 62.440553 L 253.457216 81.301676 C 253.457216 81.554375 253.660779 81.757937 253.913477 81.757937 L 271.419856 81.84919 C 271.672555 81.84919 271.876117 82.052752 271.876117 82.30545 L 271.897176 98.76594 C 271.897176 99.018638 271.693613 99.222201 271.440915 99.222201 L 253.920496 99.173065 C 253.667798 99.173065 253.464235 99.376627 253.464235 99.629326 Z" style="fill:#0e2240;"/>
		<path d="M 160.404351 90.166615 C 160.401052 90.546224 160.092198 90.855078 159.714063 90.852059 L 153.368527 90.829948 C 152.988567 90.827 152.679713 90.518147 152.683083 90.139661 L 152.718531 79.975572 C 152.72183 79.595963 153.030683 79.287109 153.408818 79.290127 L 159.754354 79.312239 C 160.134314 79.315187 160.443168 79.62404 160.439799 80.002526 L 160.404351 90.166615 Z" style="fill:#0e2240;"/>
		<path d="M 175.918555 90.222209 C 175.913922 90.658535 175.562952 91.002485 175.125573 91.001502 L 168.864481 90.946891 C 168.431243 90.94633 168.080273 90.588341 168.085187 90.15384 L 168.173912 79.990172 C 168.178545 79.553846 168.529515 79.209896 168.966894 79.210878 L 175.227986 79.265489 C 175.661224 79.266051 176.012194 79.62404 176.00728 80.058541 L 175.918555 90.222209 Z" style="fill:#0e2240;"/>
		<path d="M 184.140657 80.038185 C 184.140657 79.574904 184.512685 79.195857 184.982985 79.188838 L 190.851202 79.16076 C 191.68651 79.153741 192.367392 79.764428 192.374411 80.522523 L 192.416528 89.409082 C 192.423547 90.167177 191.749685 90.777864 190.907357 90.784884 L 185.03914 90.812961 C 184.57586 90.819981 184.196812 90.440933 184.196812 89.977653 L 184.140657 80.038185 Z" style="fill:#0e2240;"/>
		<path d="M 305.637879 90.027491 C 305.632404 90.461991 305.281434 90.812961 304.844898 90.806714 L 298.17668 90.748523 C 297.7426 90.742767 297.391631 90.391797 297.397457 89.955542 L 297.484427 79.988347 C 297.489902 79.553846 297.840872 79.202876 298.277408 79.209124 L 304.945626 79.267314 C 305.379706 79.27307 305.730676 79.62404 305.72485 80.060296 L 305.637879 90.027491 Z" style="fill:#0e2240;"/>
		<path d="M 321.675029 90.173143 C 321.67173 90.644496 321.285663 91.023543 320.809747 91.020455 L 314.633028 90.955806 C 314.160973 90.953349 313.781926 90.560263 313.785646 90.090525 L 313.890937 80.039238 C 313.894236 79.567885 314.280303 79.188838 314.756218 79.191926 L 320.932938 79.256575 C 321.404992 79.259032 321.78404 79.652118 321.78032 80.121856 L 321.675029 90.173143 Z" style="fill:#0e2240;"/>
		<path d="M 337.310949 80.403193 L 337.324988 89.879381 C 337.324988 90.454972 336.861708 90.918252 336.286117 90.925272 L 330.614443 90.960369 C 330.031833 90.967388 329.554514 90.48305 329.561533 89.90044 L 329.708941 80.129437 C 329.71596 79.539807 330.214337 79.069508 330.803967 79.097585 L 336.314195 79.357303 C 336.875746 79.385381 337.310949 79.841642 337.310949 80.403193 Z" style="fill:#0e2240;"/>
		<path d="M 160.32468 110.556634 C 160.316819 111.120081 159.860558 111.569322 159.298023 111.565532 L 153.682715 111.516536 C 153.121935 111.513167 152.665674 111.049887 152.673887 110.489879 L 152.756084 101.070198 C 152.763946 100.50675 153.220207 100.057509 153.782742 100.061299 L 159.39805 100.110295 C 159.958829 100.113664 160.41509 100.576944 160.406878 101.136952 L 160.32468 110.556634 Z" style="fill:#0e2240;"/>
		<path d="M 305.67417 110.845622 C 305.674521 111.302585 305.309512 111.667594 304.858656 111.672578 L 298.288639 111.718485 C 297.833853 111.723749 297.461825 111.35874 297.461684 110.902971 L 297.391982 100.921597 C 297.391631 100.464634 297.756639 100.099625 298.207495 100.094642 L 304.777512 100.048735 C 305.232299 100.04347 305.604327 100.408479 305.604467 100.864248 L 305.67417 110.845622 Z" style="fill:#0e2240;"/>
		<path d="M 176.007912 110.776411 C 176.012194 111.302585 175.58401 111.730769 175.056643 111.734348 L 169.104193 111.755196 C 168.578651 111.758846 168.150467 111.330663 168.146256 110.803857 L 168.112633 101.173313 C 168.108351 100.647138 168.536534 100.218955 169.063902 100.215375 L 175.016351 100.194528 C 175.541894 100.190878 175.970077 100.619061 175.974289 101.145867 L 176.007912 110.776411 Z" style="fill:#0e2240;"/>
		<path d="M 192.330751 110.846535 C 192.332295 111.302585 191.960267 111.667594 191.508007 111.66633 L 184.895734 111.654819 C 184.442491 111.653555 184.077482 111.288546 184.075938 110.832075 L 184.093065 101.004917 C 184.091521 100.548867 184.463549 100.183858 184.915809 100.185122 L 191.528082 100.196633 C 191.981325 100.197897 192.346334 100.562906 192.347878 101.019377 L 192.330751 110.846535 Z" style="fill:#0e2240;"/>
		<path d="M 321.750417 110.860433 C 321.748943 111.337682 321.362876 111.723749 320.888575 111.725293 L 314.641311 111.736244 C 314.160973 111.737788 313.774906 111.351721 313.77638 110.874332 L 313.759394 101.117368 C 313.760868 100.640119 314.146935 100.254052 314.621235 100.252508 L 320.8685 100.241558 C 321.348837 100.240013 321.734904 100.62608 321.73343 101.10347 L 321.750417 110.860433 Z" style="fill:#0e2240;"/>
		<path d="M 337.281327 110.909218 C 337.282872 111.330663 336.938921 111.674613 336.514879 111.672999 L 330.309731 111.662189 C 329.884426 111.660575 329.547495 111.316624 329.54595 110.895741 L 329.563078 101.082622 C 329.561533 100.661177 329.905484 100.317227 330.329526 100.318841 L 336.534674 100.329651 C 336.959979 100.331266 337.29691 100.675216 337.298455 101.096099 L 337.281327 110.909218 Z" style="fill:#0e2240;"/>
		<path d="M 160.325663 131.606125 C 160.316819 132.171257 159.853538 132.620498 159.293741 132.609618 L 153.734869 132.531984 C 153.171071 132.522227 152.72183 132.058946 152.731376 131.500062 L 152.867412 121.758049 C 152.876256 121.192918 153.339537 120.743676 153.899334 120.754556 L 159.458206 120.832191 C 160.022004 120.841948 160.471246 121.305228 160.461699 121.864112 L 160.325663 131.606125 Z" style="fill:#0e2240;"/>
		<path d="M 175.906903 131.609705 C 175.906903 132.283567 175.359389 132.83108 174.685527 132.83108 L 169.392901 132.83108 C 168.719039 132.83108 168.171526 132.283567 168.171526 131.609705 L 168.171526 121.97909 C 168.171526 121.305228 168.719039 120.757715 169.392901 120.757715 L 174.685527 120.757715 C 175.359389 120.757715 175.906903 121.305228 175.906903 121.97909 L 175.906903 131.609705 Z" style="fill:#0e2240;"/>
		<path d="M 192.316993 131.490515 C 192.318256 132.164237 191.770743 132.704731 191.100531 132.702765 L 185.288469 132.692658 C 184.617976 132.690692 184.077482 132.150198 184.076219 131.476126 L 184.092785 122.014047 C 184.091521 121.340325 184.639034 120.799831 185.309246 120.801797 L 191.121308 120.811905 C 191.791801 120.81387 192.332295 121.354364 192.333558 122.028437 L 192.316993 131.490515 Z" style="fill:#0e2240;"/>
		<path d="M 305.534343 131.504765 C 305.527113 132.12914 305.021717 132.627518 304.394393 132.624991 L 298.48427 132.573398 C 297.86193 132.571362 297.356534 132.058946 297.364044 131.433518 L 297.447575 121.859409 C 297.454805 121.235034 297.960202 120.736657 298.587525 120.739184 L 304.497648 120.790776 C 305.119988 120.792812 305.625385 121.305228 305.617874 121.930656 L 305.534343 131.504765 Z" style="fill:#0e2240;"/>
		<path d="M 321.771194 131.504414 C 321.770001 132.220392 321.19441 132.795983 320.481871 132.798229 L 315.048857 132.807705 C 314.336458 132.810022 313.753848 132.234431 313.755041 131.518453 L 313.738616 122.09842 C 313.739809 121.382441 314.3154 120.806851 315.027939 120.804604 L 320.460954 120.795128 C 321.173352 120.792812 321.755962 121.368403 321.754769 122.084381 L 321.771194 131.504414 Z" style="fill:#0e2240;"/>
		<path d="M 337.312564 131.701238 C 337.310949 132.234431 336.882766 132.669634 336.345571 132.671599 L 330.533509 132.681707 C 329.996736 132.683673 329.561533 132.24847 329.563148 131.714715 L 329.54588 121.803324 C 329.547495 121.270131 329.975678 120.834928 330.512872 120.832963 L 336.324934 120.822855 C 336.861708 120.820889 337.29691 121.256092 337.295296 121.789847 L 337.312564 131.701238 Z" style="fill:#0e2240;"/>
	</g>
	<g id="surface4">
	</g>
</svg>
