<?xml version="1.0" encoding="utf-8"?>
<svg xmlns="http://www.w3.org/2000/svg" width="490pt" height="280pt" viewBox="0 0 490 280" version="1.1" xmlns:xlink="http://www.w3.org/1999/xlink">
	<g id="surface2">
		<path d="M 250.148345 10.060282 Q 248.94337 9.177391 250.004354 8.00652 C 250.887245 7.028898 252.096009 7.889053 252.209686 8.942459 Q 252.239999 9.23044 252.065695 9.461583 Q 251.705718 9.946605 251.701929 10.552881 Q 251.603409 26.748046 251.523835 41.734446 Q 251.520046 42.227046 251.038814 42.333145 Q 250.944083 42.35588 250.841774 42.340723 Q 250.235497 42.253571 250.239287 41.639716 L 250.364331 10.484675 C 250.36812 10.317949 250.284757 10.158802 250.148345 10.060282 Z" style="fill:#011d32;"/>
		<path d="M 256.834515 9.341768 C 256.677187 9.950394 256.010282 10.302792 255.342961 10.130155 C 254.676474 9.957972 254.263448 9.325171 254.420625 8.717455 C 254.577954 8.108829 255.244858 7.75643 255.912179 7.929068 C 256.578667 8.10125 256.991693 8.734051 256.834515 9.341768 Z" style="fill:#011d32;"/>
		<path d="M 224.870399 12.367922 C 225.484254 13.284915 224.52179 14.29664 224.52179 15.281839 Q 224.514211 24.81175 224.536947 34.106729 C 224.540736 34.269665 224.464951 34.425024 224.336117 34.523544 Q 223.960984 34.815314 223.525222 34.603118 C 223.331972 34.512176 223.210716 34.315136 223.210716 34.102939 Q 223.180403 24.709441 223.184192 14.914284 C 223.184192 14.323164 222.608229 13.989712 222.528655 13.372068 C 222.339194 11.973842 224.002665 11.072006 224.870399 12.367922 Z" style="fill:#011d32;"/>
		<path d="M 244.396295 47.91089 Q 244.468291 46.986318 244.47208 46.035221 Q 244.491026 35.349596 244.612282 24.205473 Q 244.623649 23.178592 244.047686 22.276756 C 243.968113 22.147922 243.93022 21.996353 243.941588 21.844784 C 244.009794 20.980839 245.233715 20.075214 245.862727 21.030099 C 246.491739 21.988774 245.839992 23.243009 245.839992 24.31915 Q 245.813467 35.974818 245.855149 47.891943 C 245.855149 48.016988 245.957458 48.119297 246.082502 48.123086 Q 254.051251 48.179925 262.395133 48.160979 Q 266.843688 48.149611 269.886439 48.524745 Q 275.198938 49.172703 280.185563 50.885434 C 282.26585 51.597809 283.156318 53.177918 283.773963 55.174842 C 284.797055 58.490417 285.827725 61.66958 286.968283 65.015469 Q 291.106121 77.14858 293.648693 89.611354 Q 294.414118 93.374059 294.952188 97.413377 Q 295.895706 104.552284 289.897357 108.549921 Q 286.202859 111.00913 282.284796 110.626418 Q 280.719844 110.47106 279.469399 109.057677 Q 277.336063 106.647728 275.505865 103.911904 Q 271.739372 98.28111 268.101712 92.63137 Q 266.934629 90.823908 265.498512 88.910347 C 265.199162 88.508689 264.725509 88.269967 264.221541 88.269967 Q 245.949879 88.281335 226.931739 88.277546 C 225.94654 88.277546 225.086385 88.179026 224.41948 89.054338 Q 222.418768 91.684062 220.827291 94.374415 C 217.750437 99.573237 214.88957 104.548495 211.138233 108.906108 C 209.955994 110.281598 208.732073 110.71736 206.932189 110.675678 C 203.506726 110.603683 200.611755 109.069045 198.235908 106.412795 C 196.31098 104.260513 195.553134 101.850564 195.72365 98.887387 Q 195.939636 95.113315 196.545912 91.972044 Q 198.887656 79.831354 201.600744 71.366217 Q 204.207733 63.238321 206.966292 55.387038 Q 207.345215 54.314687 207.875707 53.280227 C 208.785122 51.510657 210.850252 50.642924 212.699395 50.131378 Q 216.935753 48.964295 220.823502 48.433803 C 224.605153 47.914679 228.64826 48.183714 232.611793 48.111719 C 232.736838 48.10793 232.839147 48.00562 232.842936 47.876787 Q 232.960403 32.018863 232.888407 17.737259 Q 232.880829 16.304931 232.842936 14.751347 Q 232.839147 14.527783 232.695156 14.357267 C 230.690654 11.981421 234.559457 10.583195 234.828492 13.072719 C 234.908066 13.807829 234.24874 14.29664 234.25253 15.050696 Q 234.282843 30.359181 234.260108 45.819235 Q 234.260108 46.823381 234.207059 47.831316 C 234.195691 48.028356 234.354839 48.191293 234.548089 48.187503 L 238.356265 48.123086 C 238.564672 48.119297 238.735187 47.96015 238.754134 47.751742 L 238.8716 46.402777 C 238.890546 46.164055 239.072429 45.974594 239.31115 45.940491 Q 239.811328 45.872284 239.932584 46.402777 Q 240.084153 47.081048 240.14857 47.797213 C 240.167516 47.998042 240.334242 48.149611 240.535071 48.149611 L 244.12726 48.160979 Q 244.377349 48.160979 244.396295 47.91089 Z M 243.744548 68.069588 Q 238.746555 59.623396 233.850871 53.230967 Q 233.426478 52.67774 232.87325 52.173772 C 232.589058 51.912315 232.126772 52.067674 232.058566 52.450386 Q 231.910786 53.272649 232.020674 54.106279 Q 232.782309 59.994741 234.313157 66.163605 Q 234.354839 66.341699 234.491251 66.462955 Q 235.067214 66.993447 235.696226 67.463311 Q 238.435838 69.513284 241.410383 71.544311 Q 243.001859 72.631819 244.646385 73.344194 Q 245.002572 73.499553 245.017729 73.113051 C 245.085935 71.214648 244.676698 69.645907 243.744548 68.069588 Z M 245.30571 73.097894 Q 245.199612 73.36693 245.608849 73.454082 C 245.696001 73.473028 245.786943 73.46166 245.870306 73.427557 Q 247.757342 72.654555 249.470073 71.44958 Q 252.425672 69.373082 255.472212 67.103334 C 256.010282 66.701676 256.597613 66.224233 256.783285 65.54975 Q 257.040953 64.610022 257.154629 63.613454 Q 257.669965 59.085326 258.310344 54.29953 Q 258.424021 53.446953 258.306555 52.598166 Q 258.242138 52.124512 257.745749 52.192718 C 257.556288 52.219243 257.385772 52.321552 257.268306 52.473121 Q 251.64509 59.869696 247.249585 67.463311 Q 245.612638 70.297654 245.472437 71.313168 C 245.40423 71.783032 245.472437 72.681079 245.30571 73.097894 Z M 276.679276 57.814305 C 277.123866 56.034996 275.968151 54.216167 274.099758 53.750167 C 272.231971 53.284016 270.356303 54.34879 269.914214 56.127567 C 269.469623 57.906876 270.625338 59.725705 272.493731 60.191705 C 274.361518 60.657856 276.237186 59.593082 276.679276 57.814305 Z M 223.854885 63.973431 C 223.854885 60.434291 220.986439 57.565845 217.447299 57.565845 C 213.908159 57.565845 211.039713 60.434291 211.039713 63.973431 C 211.039713 67.512571 213.908159 70.381017 217.447299 70.381017 C 220.986439 70.381017 223.854885 67.512571 223.854885 63.973431 Z M 270.17783 63.141468 C 270.27294 61.529378 269.04523 60.14631 267.434732 60.051844 L 266.595001 60.001978 C 264.983176 59.907588 263.600108 61.135299 263.505377 62.745039 L 263.471653 63.312438 C 263.376543 64.924528 264.604253 66.307596 266.214752 66.402062 L 267.054483 66.451928 C 268.666307 66.546318 270.049375 65.318607 270.144106 63.708867 L 270.17783 63.141468 Z M 283.085195 62.637084 C 282.75466 60.862474 280.916884 59.718127 278.980247 60.075944 C 277.040503 60.434291 275.737008 62.165969 276.0658 63.938078 C 276.396334 65.712687 278.23411 66.857034 280.170747 66.499217 C 282.110491 66.14087 283.413986 64.409192 283.085195 62.637084 Z M 276.569767 68.89348 C 276.081828 67.141227 274.209949 66.133292 272.392294 66.641086 C 270.572289 67.148805 269.496148 68.979003 269.98583 70.731786 C 270.473769 72.484039 272.345648 73.491974 274.163303 72.98418 C 275.983308 72.476461 277.059449 70.646263 276.569767 68.89348 Z M 232.13814 79.75557 Q 232.107826 79.353911 232.221503 78.990145 Q 232.282131 78.789316 232.494327 78.796895 L 236.836784 78.937096 C 236.976985 78.944675 237.094451 78.834787 237.10203 78.694586 L 237.227074 76.371788 Q 237.29528 76.565039 237.29528 76.565039 C 237.477163 76.625667 237.681782 76.504411 237.73862 76.299793 Q 238.019023 75.307015 237.587051 74.367286 Q 237.503688 74.189192 237.318016 74.120986 C 236.291135 73.742063 234.184323 73.931525 233.074079 73.984574 C 232.797466 73.995942 232.570112 73.76101 232.596637 73.484396 Q 232.767152 71.608727 232.706524 69.782319 Q 232.68 69.001738 231.895629 68.967635 Q 229.97449 68.880483 228.288283 68.956267 C 227.76537 68.979003 227.303084 69.467813 227.242456 69.990727 Q 227.022681 71.836081 227.462231 73.571548 C 227.545594 73.905 227.250034 74.211928 226.912793 74.132354 C 224.589996 73.598073 221.732917 73.423768 221.922379 76.792393 Q 221.979217 77.777592 222.305091 78.649115 Q 222.593072 79.418328 223.426702 79.475167 Q 225.075017 79.581265 226.757435 79.50927 Q 227.42055 79.482745 227.318241 80.138282 Q 227.037838 81.934376 227.401604 83.362916 C 227.496334 83.73426 227.829787 83.991928 228.212499 83.988138 L 231.850158 83.961614 C 232.240449 83.957825 232.566323 83.666054 232.611793 83.279553 Q 232.805044 81.680498 232.615583 79.963977 Q 232.596637 79.763148 232.407175 79.683574 Q 232.183611 79.592633 232.13814 79.75557 Z M 264.411268 80.801094 C 266.855055 78.224721 266.703486 74.113408 264.074292 71.616458 C 261.444037 69.119204 257.328934 69.183621 254.884616 71.7606 C 252.440829 74.336972 252.592398 78.448286 255.221592 80.945236 C 257.851847 83.44249 261.96695 83.378073 264.411268 80.801094 Z M 248.725679 76.452385 C 248.723595 76.292214 248.594761 76.163381 248.437205 76.164934 L 241.510495 76.177022 C 241.349755 76.178538 241.220922 76.307371 241.223006 76.465496 L 241.226416 78.420738 C 241.2285 78.580909 241.357334 78.709743 241.51489 78.708189 L 248.441601 78.696101 C 248.60234 78.694586 248.731173 78.565752 248.729089 78.407627 L 248.725679 76.452385 Z" style="fill:#022c3c;"/>
		<path d="M 257.283463 13.959398 C 257.283463 14.451998 256.885594 14.849867 256.392994 14.849867 C 255.900395 14.849867 255.502526 14.451998 255.502526 13.959398 C 255.502526 13.466798 255.900395 13.068929 256.392994 13.068929 C 256.885594 13.068929 257.283463 13.466798 257.283463 13.959398 Z" style="fill:#011d32;"/>
		<path d="M 266.457186 19.283265 C 264.926338 17.024884 268.294962 15.744125 268.571576 17.968402 C 268.673885 18.824768 267.976667 19.199902 267.976667 20.014586 Q 267.988035 26.645737 268.025927 34.068836 C 268.029716 34.190092 267.988035 34.303768 267.91225 34.398499 Q 267.586377 34.803947 267.279449 34.644799 Q 266.673172 34.330293 266.676962 33.652021 Q 266.703486 26.607844 266.669383 19.969115 Q 266.665594 19.590192 266.457186 19.283265 Z M 267.104538 18.428566 C 267.252925 18.476159 267.427229 18.347325 267.49032 18.143389 C 267.552274 17.938089 267.484067 17.737259 267.333105 17.690121 C 267.184718 17.642529 267.010414 17.771363 266.947323 17.975299 C 266.885369 18.180599 266.953575 18.381428 267.104538 18.428566 Z" style="fill:#011d32;"/>
		<path d="M 267.104538 18.428566 C 266.953575 18.381428 266.885369 18.180599 266.947323 17.975299 C 267.010414 17.771363 267.184718 17.642529 267.333105 17.690121 C 267.484067 17.737259 267.552274 17.938089 267.49032 18.143389 C 267.427229 18.347325 267.252925 18.476159 267.104538 18.428566 Z" style="fill:#022c3c;"/>
		<path d="M 240.368004 18.25502 C 240.59191 18.642885 240.428973 19.16201 239.996319 19.412137 C 239.565029 19.662188 239.034537 19.548511 238.807524 19.159584 C 238.583618 18.771719 238.746555 18.252595 239.179209 18.002468 C 239.610499 17.752416 240.140991 17.866093 240.368004 18.25502 Z" style="fill:#011d32;"/>
		<path d="M 274.869275 20.522343 Q 274.865485 21.193036 274.30468 21.757631 Q 274.137954 21.924357 274.137954 22.15929 L 274.1569 37.816384 Q 274.160689 38.490866 273.486206 38.494656 L 273.349794 38.498445 Q 272.762463 38.502234 272.770042 37.918693 Q 272.819302 30.938933 272.838248 23.390789 Q 272.842037 22.197182 272.410065 21.393865 C 271.076257 18.919499 274.89201 18.165442 274.869275 20.522343 Z M 273.789799 20.348758 C 273.694614 20.226783 273.486206 20.230572 273.321526 20.357928 C 273.156543 20.48445 273.103494 20.689069 273.19777 20.809604 C 273.292955 20.931579 273.501363 20.92779 273.666043 20.800434 C 273.831026 20.673912 273.884075 20.469294 273.789799 20.348758 Z" style="fill:#011d32;"/>
		<path d="M 216.897861 21.977407 C 214.677373 18.695934 219.876195 18.548154 218.693955 21.367341 Q 218.390817 22.083505 218.390817 22.818615 Q 218.387028 28.237213 218.47418 33.761909 Q 218.485548 34.398499 217.875482 34.584171 Q 217.549608 34.682691 217.155529 34.163567 C 217.064587 34.042312 217.015327 33.894532 217.019116 33.742963 L 217.04943 22.470006 C 217.04943 22.295702 216.996381 22.121397 216.897861 21.977407 Z" style="fill:#011d32;"/>
		<path d="M 273.789799 20.348758 C 273.884075 20.469294 273.831026 20.673912 273.666043 20.800434 C 273.501363 20.92779 273.292955 20.931579 273.19777 20.809604 C 273.103494 20.689069 273.156543 20.48445 273.321526 20.357928 C 273.486206 20.230572 273.694614 20.226783 273.789799 20.348758 Z" style="fill:#022c3c;"/>
		<path d="M 262.224656 44.475196 C 262.224618 44.758251 261.993475 44.989394 261.708449 44.989659 L 261.397732 44.989091 C 261.114374 44.989394 260.883231 44.758251 260.883269 44.472884 L 260.921085 22.821268 C 260.921123 22.538213 261.152266 22.30707 261.437292 22.306804 L 261.748008 22.307373 C 262.031367 22.30707 262.26251 22.538213 262.262472 22.823579 L 262.224656 44.475196 Z" style="fill:#011d32;"/>
		<path d="M 238.82234 27.619569 C 238.814761 27.089077 238.591197 26.615423 238.310794 26.179662 C 237.753777 25.319507 238.538148 24.46693 239.413459 24.300204 Q 239.644602 24.258523 239.830275 24.394935 Q 240.519914 24.898902 240.341821 25.876523 Q 240.09931 27.183807 240.091731 28.672974 Q 240.076574 33.197314 240.175094 37.221475 C 240.182673 37.554927 239.898481 37.823962 239.565029 37.797438 L 239.318729 37.774702 Q 238.602564 37.717864 238.640457 36.99791 Q 238.879178 32.488728 238.82234 27.619569 Z" style="fill:#011d32;"/>
		<path d="M 256.136426 27.426507 C 255.665462 27.467999 255.248647 27.058763 255.202494 26.513947 C 255.157706 25.971254 255.498736 25.4976 255.967502 25.455729 C 256.438465 25.414237 256.85528 25.823474 256.901433 26.368289 C 256.946222 26.910983 256.605191 27.384636 256.136426 27.426507 Z" style="fill:#011d32;"/>
		<path d="M 199.084014 32.890272 C 198.32685 33.129107 197.512166 32.681978 197.267154 31.895107 C 197.019566 31.109448 197.432592 30.279607 198.19112 30.041 C 198.948283 29.802164 199.762968 30.249293 200.007979 31.036165 C 200.255567 31.821823 199.842541 32.651665 199.084014 32.890272 Z M 198.016133 31.166287 Q 198.042658 31.74225 198.455684 32.151486 Q 198.57315 32.268953 198.72093 32.204536 Q 199.137745 32.026442 199.323417 31.662676 C 199.482565 31.355748 199.387834 30.980615 199.107431 30.783575 Q 198.705773 30.506961 198.311693 30.685055 C 198.122232 30.768418 198.008555 30.961669 198.016133 31.166287 Z" style="fill:#011d32;"/>
		<path d="M 198.016133 31.166287 C 198.008555 30.961669 198.122232 30.768418 198.311693 30.685055 Q 198.705773 30.506961 199.107431 30.783575 C 199.387834 30.980615 199.482565 31.355748 199.323417 31.662676 Q 199.137745 32.026442 198.72093 32.204536 Q 198.57315 32.268953 198.455684 32.151486 Q 198.042658 31.74225 198.016133 31.166287 Z" style="fill:#022c3c;"/>
		<path d="M 267.219958 39.118552 C 266.862634 38.960731 266.722432 38.502234 266.904126 38.091633 C 267.086198 37.683761 267.52196 37.479142 267.877011 37.635827 C 268.234335 37.793648 268.374536 38.252145 268.192843 38.662746 C 268.01077 39.070618 267.575009 39.275237 267.219958 39.118552 Z" style="fill:#011d32;"/>
		<path d="M 211.590326 39.893601 C 211.627044 40.423373 211.176125 40.885659 210.583945 40.928781 C 209.990097 40.969022 209.478551 40.574942 209.443273 40.04373 C 209.406555 39.513958 209.857474 39.051672 210.449654 39.008551 C 211.043502 38.968309 211.555048 39.362389 211.590326 39.893601 Z" style="fill:#011d32;"/>
		<path d="M 280.412917 39.930773 C 280.412917 40.423373 280.011258 40.825031 279.518659 40.825031 C 279.026059 40.825031 278.624401 40.423373 278.624401 39.930773 C 278.624401 39.438174 279.026059 39.036515 279.518659 39.036515 C 280.011258 39.036515 280.412917 39.438174 280.412917 39.930773 Z" style="fill:#011d32;"/>
		<path d="M 240.171305 41.491936 C 240.171305 41.965589 239.788593 42.348302 239.314939 42.348302 C 238.841286 42.348302 238.458574 41.965589 238.458574 41.491936 C 238.458574 41.018282 238.841286 40.63557 239.314939 40.63557 C 239.788593 40.63557 240.171305 41.018282 240.171305 41.491936 Z" style="fill:#011d32;"/>
		<path d="M 296.558821 42.947 C 296.558821 43.416864 296.179898 43.795787 295.710034 43.795787 C 295.24017 43.795787 294.861247 43.416864 294.861247 42.947 C 294.861247 42.477135 295.24017 42.098212 295.710034 42.098212 C 296.179898 42.098212 296.558821 42.477135 296.558821 42.947 Z" style="fill:#011d32;"/>
		<path d="M 255.507111 44.8789 C 255.108446 44.758251 254.903827 44.27323 255.045886 43.797606 C 255.18802 43.322133 255.631359 43.030363 256.028433 43.152224 C 256.427097 43.272873 256.631716 43.757895 256.489658 44.233519 C 256.347524 44.708991 255.904184 45.000762 255.507111 44.8789 Z" style="fill:#011d32;"/>
		<path d="M 200.24041 44.652153 C 200.24041 45.159909 199.827385 45.572935 199.319628 45.572935 C 198.811871 45.572935 198.398845 45.159909 198.398845 44.652153 C 198.398845 44.144396 198.811871 43.73137 199.319628 43.73137 C 199.827385 43.73137 200.24041 44.144396 200.24041 44.652153 Z" style="fill:#011d32;"/>
		<path d="M 211.54747 48.244342 C 211.358008 48.316337 211.172336 48.130665 211.240542 47.937414 C 212.790337 43.591169 219.383595 43.784419 223.09704 43.989038 Q 223.801836 44.030719 224.408113 44.432377 C 225.071228 44.871928 224.699883 45.7965 223.972351 45.868495 Q 219.167609 46.330781 214.427284 47.387976 Q 213.006323 47.702482 211.54747 48.244342 Z" style="fill:#011d32;"/>
		<path d="M 285.206291 44.796143 C 285.206291 45.311479 284.785687 45.732083 284.270352 45.732083 C 283.755017 45.732083 283.334412 45.311479 283.334412 44.796143 C 283.334412 44.280808 283.755017 43.860204 284.270352 43.860204 C 284.785687 43.860204 285.206291 44.280808 285.206291 44.796143 Z" style="fill:#011d32;"/>
		<path d="M 279.321619 48.229185 Q 272.341859 46.118584 265.718287 45.925334 Q 265.142324 45.906388 265.123378 45.330425 Q 265.100642 44.595314 266.2412 44.265651 C 266.335931 44.239127 266.434451 44.22397 266.532971 44.22397 C 269.431731 44.261862 272.940557 44.019351 275.486919 44.500584 Q 277.79077 44.936345 279.522448 47.979096 C 279.598232 48.115508 279.469399 48.274656 279.321619 48.229185 Z" style="fill:#011d32;"/>
		<path d="M 204.310042 49.540258 C 204.310042 49.938127 203.987958 50.260212 203.590089 50.260212 C 203.19222 50.260212 202.870135 49.938127 202.870135 49.540258 C 202.870135 49.142389 203.19222 48.820305 203.590089 48.820305 C 203.987958 48.820305 204.310042 49.142389 204.310042 49.540258 Z" style="fill:#011d32;"/>
		<path d="M 197.255521 71.501151 C 197.254498 71.779243 197.030934 71.999018 196.7536 71.999586 L 196.389834 71.998298 C 196.11394 71.999018 195.890376 71.771664 195.891399 71.496377 L 195.965137 50.375366 C 195.96616 50.097275 196.189725 49.877499 196.467058 49.876931 L 196.830824 49.878219 C 197.106718 49.877499 197.330283 50.104853 197.32926 50.380141 L 197.255521 71.501151 Z" style="fill:#011d32;"/>
		<path d="M 294.655378 71.171678 C 294.656628 71.559468 294.342122 71.873974 293.955583 71.873936 L 293.910112 71.874011 C 293.523649 71.873974 293.209143 71.563257 293.207892 71.174217 L 293.172501 50.909458 C 293.171251 50.521668 293.485757 50.207162 293.872296 50.2072 L 293.917767 50.207124 C 294.30423 50.207162 294.618736 50.517879 294.619986 50.906919 L 294.655378 71.171678 Z" style="fill:#011d32;"/>
		<path d="M 191.669288 55.78468 C 191.669175 56.156252 191.369826 56.455601 190.999769 56.456548 L 174.698506 56.484967 C 174.329663 56.485915 174.026525 56.186566 174.026638 55.815449 L 174.026411 55.686615 C 174.026525 55.315043 174.325874 55.015694 174.69593 55.014747 L 190.997193 54.986327 C 191.366036 54.98538 191.669175 55.284729 191.669061 55.655846 L 191.669288 55.78468 Z" style="fill:#011d32;"/>
		<path d="M 313.155644 54.974012 Q 314.40609 54.970223 315.554226 55.091478 Q 316.02409 55.140738 316.194606 55.5765 Q 316.334807 55.936477 315.823261 56.338135 C 315.694427 56.440444 315.531491 56.493493 315.364765 56.489704 Q 308.275117 56.394973 299.203703 56.550332 Q 298.487539 56.561699 298.669422 55.87206 L 298.699736 55.758383 C 298.82478 55.288518 299.249174 54.962645 299.734195 54.966434 Q 306.433552 54.981591 313.155644 54.974012 Z" style="fill:#011d32;"/>
		<path d="M 219.444602 67.539323 C 217.602658 68.584923 215.223022 67.876337 214.128692 65.952773 C 213.036637 64.03027 213.642913 61.62032 215.487889 60.574265 C 217.329833 59.528666 219.709469 60.237251 220.803798 62.160816 C 221.895854 64.083319 221.289577 66.493268 219.444602 67.539323 Z" style="fill:#022c3c;"/>
		<path d="M 191.83969 61.343706 C 191.83969 61.779468 191.487292 62.131866 191.05153 62.131866 C 190.615769 62.131866 190.263371 61.779468 190.263371 61.343706 C 190.263371 60.907945 190.615769 60.555547 191.05153 60.555547 C 191.487292 60.555547 191.83969 60.907945 191.83969 61.343706 Z" style="fill:#011d32;"/>
		<path d="M 300.385942 61.419491 C 300.385942 61.893144 300.00323 62.275857 299.529577 62.275857 C 299.055923 62.275857 298.673211 61.893144 298.673211 61.419491 C 298.673211 60.945837 299.055923 60.563125 299.529577 60.563125 C 300.00323 60.563125 300.385942 60.945837 300.385942 61.419491 Z" style="fill:#011d32;"/>
		<path d="M 191.638671 66.674318 C 191.847268 67.091967 191.646439 67.61488 191.190974 67.838142 C 190.737024 68.062009 190.202743 67.906651 189.994525 67.48688 C 189.785928 67.069231 189.986757 66.546318 190.442222 66.323056 C 190.896172 66.099189 191.430453 66.254547 191.638671 66.674318 Z" style="fill:#011d32;"/>
		<path d="M 300.235889 66.796975 C 300.393521 67.213222 300.132064 67.694454 299.653068 67.874215 C 299.173389 68.054431 298.661843 67.86118 298.504969 67.447586 C 298.347337 67.031339 298.608794 66.550107 299.087791 66.370346 C 299.567469 66.19013 300.079015 66.383381 300.235889 66.796975 Z" style="fill:#011d32;"/>
		<path d="M 187.548161 66.957563 C 187.694273 67.387526 187.440395 67.868759 186.980421 68.025064 C 186.519612 68.183265 186.027013 67.9597 185.877566 67.529509 C 185.731453 67.099545 185.985331 66.618313 186.445306 66.462007 C 186.906114 66.303807 187.398714 66.527371 187.548161 66.957563 Z" style="fill:#011d32;"/>
		<path d="M 304.125911 67.209433 C 304.125911 67.66414 303.754567 68.035485 303.29986 68.035485 C 302.845152 68.035485 302.473808 67.66414 302.473808 67.209433 C 302.473808 66.754725 302.845152 66.383381 303.29986 66.383381 C 303.754567 66.383381 304.125911 66.754725 304.125911 67.209433 Z" style="fill:#011d32;"/>
		<path d="M 237.227074 76.371788 L 237.124765 75.079661 Q 237.086873 74.640111 236.647322 74.640111 L 232.297287 74.666635 C 232.1874 74.666635 232.100248 74.579483 232.100248 74.473385 L 232.107826 69.911153 Q 232.107826 69.608015 231.808477 69.608015 L 228.284494 69.58149 Q 227.916939 69.577701 227.924517 69.945256 L 227.981356 74.336972 C 227.985145 74.587061 227.769159 74.784101 227.51907 74.757577 Q 225.431205 74.541591 223.551747 74.636321 C 223.1463 74.655268 222.809058 74.962195 222.75222 75.363853 Q 222.543812 76.830285 222.763587 78.262614 Q 222.862107 78.902993 223.483541 78.914361 Q 225.578985 78.948464 227.644114 78.902993 Q 227.856311 78.899204 227.8601 79.111401 L 227.894203 83.055988 C 227.897993 83.215136 228.026826 83.34397 228.185974 83.34397 L 231.728903 83.366705 Q 232.100248 83.370494 232.104037 82.99915 L 232.13814 79.75557 Q 232.183611 79.592633 232.407175 79.683574 Q 232.596637 79.763148 232.615583 79.963977 Q 232.805044 81.680498 232.611793 83.279553 C 232.566323 83.666054 232.240449 83.957825 231.850158 83.961614 L 228.212499 83.988138 C 227.829787 83.991928 227.496334 83.73426 227.401604 83.362916 Q 227.037838 81.934376 227.318241 80.138282 Q 227.42055 79.482745 226.757435 79.50927 Q 225.075017 79.581265 223.426702 79.475167 Q 222.593072 79.418328 222.305091 78.649115 Q 221.979217 77.777592 221.922379 76.792393 C 221.732917 73.423768 224.589996 73.598073 226.912793 74.132354 C 227.250034 74.211928 227.545594 73.905 227.462231 73.571548 Q 227.022681 71.836081 227.242456 69.990727 C 227.303084 69.467813 227.76537 68.979003 228.288283 68.956267 Q 229.97449 68.880483 231.895629 68.967635 Q 232.68 69.001738 232.706524 69.782319 Q 232.767152 71.608727 232.596637 73.484396 C 232.570112 73.76101 232.797466 73.995942 233.074079 73.984574 C 234.184323 73.931525 236.291135 73.742063 237.318016 74.120986 Q 237.503688 74.189192 237.587051 74.367286 Q 238.019023 75.307015 237.73862 76.299793 C 237.681782 76.504411 237.477163 76.625667 237.29528 76.565039 Q 237.29528 76.565039 237.227074 76.371788 Z" style="fill:#011d32;"/>
		<path d="M 300.20406 71.370006 C 300.20406 71.836081 299.825137 72.215004 299.359061 72.215004 C 298.892986 72.215004 298.514063 71.836081 298.514063 71.370006 C 298.514063 70.903931 298.892986 70.525008 299.359061 70.525008 C 299.825137 70.525008 300.20406 70.903931 300.20406 71.370006 Z" style="fill:#011d32;"/>
		<path d="M 191.824533 71.419266 C 191.824533 71.84366 191.479713 72.18848 191.05532 72.18848 C 190.630926 72.18848 190.286106 71.84366 190.286106 71.419266 C 190.286106 70.994872 190.630926 70.650053 191.05532 70.650053 C 191.479713 70.650053 191.824533 70.994872 191.824533 71.419266 Z" style="fill:#011d32;"/>
		<path d="M 261.738005 79.77948 C 259.875296 80.899917 257.427454 80.251959 256.277044 78.335064 C 255.123603 76.417259 255.703355 73.95426 257.565458 72.835263 C 259.428167 71.714826 261.876009 72.362784 263.026419 74.279679 C 264.17986 76.197484 263.600108 78.660483 261.738005 79.77948 Z" style="fill:#022c3c;"/>
		<path d="M 305.239945 76.356631 C 305.239945 76.932594 304.77387 77.398669 304.197907 77.398669 C 303.621944 77.398669 303.155869 76.932594 303.155869 76.356631 C 303.155869 75.780669 303.621944 75.314593 304.197907 75.314593 C 304.77387 75.314593 305.239945 75.780669 305.239945 76.356631 Z" style="fill:#011d32;"/>
		<path d="M 194.942576 79.068355 C 194.943068 79.406961 194.666455 79.675996 194.330388 79.676299 L 174.618933 79.607487 C 174.280403 79.60779 174.011368 79.331176 174.010989 78.995299 L 174.01186 78.74521 C 174.011368 78.406604 174.287981 78.137569 174.624048 78.137266 L 194.335503 78.206078 C 194.674033 78.205775 194.943068 78.482389 194.943447 78.818266 L 194.942576 79.068355 Z" style="fill:#011d32;"/>
		<path d="M 297.259829 81.089378 C 297.259829 81.61987 296.831646 82.048053 296.301154 82.048053 C 295.770662 82.048053 295.342479 81.61987 295.342479 81.089378 C 295.342479 80.558886 295.770662 80.130703 296.301154 80.130703 C 296.831646 80.130703 297.259829 80.558886 297.259829 81.089378 Z" style="fill:#011d32;"/>
		<path d="M 251.532854 93.142423 C 251.777713 93.457422 251.690561 93.934864 251.343998 94.201361 C 250.997132 94.469146 250.5159 94.431253 250.27195 94.113451 C 250.02709 93.798452 250.114242 93.321009 250.460805 93.054513 C 250.807671 92.786728 251.288903 92.82462 251.532854 93.142423 Z" style="fill:#011d32;"/>
		<path d="M 191.5062 95.93948 C 191.506238 96.329657 191.187943 96.647952 190.796364 96.646854 L 174.707335 96.618737 C 174.314506 96.617639 174 96.299343 174 95.908939 L 174.000038 95.878625 C 174 95.488448 174.318295 95.170153 174.709874 95.171252 L 190.798902 95.199368 C 191.191732 95.200467 191.506238 95.518762 191.506238 95.909166 L 191.5062 95.93948 Z" style="fill:#011d32;"/>
		<path d="M 316.323439 95.931788 C 316.323439 96.318289 316.008933 96.632796 315.622432 96.632796 L 299.525788 96.632796 C 299.139286 96.632796 298.82478 96.318289 298.82478 95.931788 L 298.82478 95.901474 C 298.82478 95.514973 299.139286 95.200467 299.525788 95.200467 L 315.622432 95.200467 C 316.008933 95.200467 316.323439 95.514973 316.323439 95.901474 L 316.323439 95.931788 Z" style="fill:#011d32;"/>
		<path d="M 223.396389 146.044341 C 223.218295 146.044341 223.074304 145.90035 223.074304 145.722257 L 223.074304 97.720304 C 223.074304 97.288332 223.320604 96.935934 223.627532 96.935934 L 224.014033 96.935934 C 224.32096 96.935934 224.56726 97.288332 224.56726 97.720304 L 224.56726 145.722257 C 224.56726 145.90035 224.42327 146.044341 224.245176 146.044341 L 223.396389 146.044341 Z" style="fill:#011d32;"/>
		<path d="M 230.021855 124.780476 C 230.02375 125.154322 229.720612 125.45746 229.349722 125.457309 L 229.304251 125.45746 C 228.932452 125.45746 228.629314 125.158111 228.627419 124.785327 L 228.532688 97.647021 C 228.530794 97.273175 228.833932 96.970037 229.204822 96.970188 L 229.250293 96.970037 C 229.622092 96.970037 229.92523 97.269386 229.927125 97.64217 L 230.021855 124.780476 Z" style="fill:#022c3c;"/>
		<path d="M 261.349306 97.852927 C 261.349306 98.364473 260.932491 98.781288 260.420945 98.781288 C 259.909399 98.781288 259.492584 98.364473 259.492584 97.852927 C 259.492584 97.341381 259.909399 96.924566 260.420945 96.924566 C 260.932491 96.924566 261.349306 97.341381 261.349306 97.852927 Z" style="fill:#011d32;"/>
		<path d="M 256.821177 97.868084 C 256.821177 98.375841 256.41194 98.785078 255.904184 98.785078 C 255.396427 98.785078 254.98719 98.375841 254.98719 97.868084 C 254.98719 97.360327 255.396427 96.951091 255.904184 96.951091 C 256.41194 96.951091 256.821177 97.360327 256.821177 97.868084 Z" style="fill:#011d32;"/>
		<path d="M 267.472813 132.286939 C 267.4727 132.53574 267.271871 132.740358 267.023449 132.739411 L 266.553584 132.741078 C 266.305617 132.740358 266.100999 132.539529 266.101113 132.291713 L 265.97963 97.491662 C 265.979744 97.242861 266.180573 97.038243 266.428995 97.03919 L 266.898859 97.037523 C 267.146826 97.038243 267.351444 97.239072 267.351331 97.486888 L 267.472813 132.286939 Z" style="fill:#011d32;"/>
		<path d="M 235.57497 97.917344 C 235.57497 98.383419 235.196048 98.762342 234.729972 98.762342 C 234.263897 98.762342 233.884974 98.383419 233.884974 97.917344 C 233.884974 97.451269 234.263897 97.072346 234.729972 97.072346 C 235.196048 97.072346 235.57497 97.451269 235.57497 97.917344 Z" style="fill:#011d32;"/>
		<path d="M 252.376146 97.665853 C 252.550716 98.027232 252.365044 98.474361 251.962742 98.668028 C 251.561727 98.860862 251.095652 98.72445 250.921613 98.365875 C 250.747043 98.004496 250.932715 97.557367 251.335018 97.3637 C 251.736032 97.170866 252.202107 97.307278 252.376146 97.665853 Z" style="fill:#011d32;"/>
		<path d="M 260.310223 103.505964 C 259.818457 103.430672 259.492584 102.930494 259.575378 102.393674 C 259.65931 101.854353 260.125385 101.483009 260.615029 101.559286 C 261.106795 101.634578 261.432669 102.134756 261.349874 102.671576 C 261.265943 103.210897 260.799868 103.582241 260.310223 103.505964 Z" style="fill:#011d32;"/>
		<path d="M 235.681069 102.536414 C 235.681069 103.040382 235.275621 103.445829 234.771654 103.445829 C 234.267686 103.445829 233.862239 103.040382 233.862239 102.536414 C 233.862239 102.032447 234.267686 101.626999 234.771654 101.626999 C 235.275621 101.626999 235.681069 102.032447 235.681069 102.536414 Z" style="fill:#011d32;"/>
		<path d="M 256.871991 102.192466 C 257.029585 102.619777 256.768128 103.108588 256.292807 103.282324 C 255.817032 103.457197 255.305486 103.248789 255.148574 102.819735 C 254.99098 102.392424 255.252436 101.903613 255.727757 101.729877 C 256.203533 101.555004 256.715079 101.763412 256.871991 102.192466 Z" style="fill:#011d32;"/>
		<path d="M 300.042979 102.100047 C 300.24953 102.502311 300.060069 103.013857 299.616994 103.240983 C 299.173389 103.468565 298.646686 103.328363 298.440211 102.927311 C 298.23366 102.525047 298.423122 102.013501 298.866196 101.786374 C 299.309801 101.558793 299.836504 101.698995 300.042979 102.100047 Z" style="fill:#011d32;"/>
		<path d="M 304.160015 102.790293 C 304.160015 103.260157 303.777302 103.642869 303.307438 103.642869 C 302.837574 103.642869 302.454862 103.260157 302.454862 102.790293 C 302.454862 102.320428 302.837574 101.937716 303.307438 101.937716 C 303.777302 101.937716 304.160015 102.320428 304.160015 102.790293 Z" style="fill:#011d32;"/>
		<path d="M 256.938643 107.07591 C 256.938643 107.595035 256.518039 108.015639 255.998915 108.015639 C 255.47979 108.015639 255.059186 107.595035 255.059186 107.07591 C 255.059186 106.556786 255.47979 106.136182 255.998915 106.136182 C 256.518039 106.136182 256.938643 106.556786 256.938643 107.07591 Z" style="fill:#011d32;"/>
		<path d="M 261.37583 107.060754 C 261.37583 107.545775 260.98554 107.936065 260.500519 107.936065 C 260.015497 107.936065 259.625207 107.545775 259.625207 107.060754 C 259.625207 106.575732 260.015497 106.185442 260.500519 106.185442 C 260.98554 106.185442 261.37583 106.575732 261.37583 107.060754 Z" style="fill:#011d32;"/>
		<path d="M 299.961549 107.07591 C 299.961549 107.560932 299.571258 107.951222 299.086237 107.951222 C 298.601216 107.951222 298.210925 107.560932 298.210925 107.07591 C 298.210925 106.590889 298.601216 106.200599 299.086237 106.200599 C 299.571258 106.200599 299.961549 106.590889 299.961549 107.07591 Z" style="fill:#011d32;"/>
		<path d="M 235.646019 107.514059 C 235.484029 107.951222 234.961115 108.15963 234.473593 107.979073 C 233.987284 107.799653 233.722038 107.299475 233.882132 106.865116 C 234.044122 106.427952 234.567036 106.219545 235.054558 106.400102 C 235.540867 106.579522 235.806113 107.0797 235.646019 107.514059 Z" style="fill:#011d32;"/>
		<path d="M 252.38399 107.117592 C 252.38399 107.564721 252.024013 107.924698 251.576884 107.924698 C 251.129755 107.924698 250.769779 107.564721 250.769779 107.117592 C 250.769779 106.670463 251.129755 106.310486 251.576884 106.310486 C 252.024013 106.310486 252.38399 106.670463 252.38399 107.117592 Z" style="fill:#011d32;"/>
		<path d="M 192.999194 107.413152 C 192.999194 107.856492 192.639217 108.216468 192.195877 108.216468 C 191.752538 108.216468 191.392561 107.856492 191.392561 107.413152 C 191.392561 106.969812 191.752538 106.609835 192.195877 106.609835 C 192.639217 106.609835 192.999194 106.969812 192.999194 107.413152 Z" style="fill:#011d32;"/>
		<path d="M 218.564705 108.527413 C 218.875838 108.84548 218.849314 109.375972 218.507374 109.711092 C 218.163463 110.046666 217.632971 110.058034 217.322671 109.739511 C 217.011538 109.421443 217.038062 108.890951 217.380002 108.555832 C 217.723913 108.220258 218.254405 108.20889 218.564705 108.527413 Z" style="fill:#011d32;"/>
		<path d="M 235.681069 112.066325 C 235.681069 112.600606 235.249097 113.032578 234.714816 113.032578 C 234.180534 113.032578 233.748562 112.600606 233.748562 112.066325 C 233.748562 111.532044 234.180534 111.100072 234.714816 111.100072 C 235.249097 111.100072 235.681069 111.532044 235.681069 112.066325 Z" style="fill:#022c3c;"/>
		<path d="M 256.654451 112.161056 C 256.654451 112.649866 256.260371 113.043946 255.771561 113.043946 C 255.28275 113.043946 254.88867 112.649866 254.88867 112.161056 C 254.88867 111.672245 255.28275 111.278165 255.771561 111.278165 C 256.260371 111.278165 256.654451 111.672245 256.654451 112.161056 Z" style="fill:#011d32;"/>
		<path d="M 262.148833 140.883411 C 262.838473 141.554105 262.846051 142.543093 262.061681 143.141792 C 261.345517 143.683651 260.269376 143.274415 260.129174 142.387735 C 259.992762 141.538948 260.648298 140.830362 260.648298 139.928526 Q 260.648298 125.722706 260.644509 112.217894 Q 260.644509 111.672245 261.175001 111.539622 L 261.303835 111.509308 Q 261.849484 111.372896 261.929058 111.929913 Q 262.008632 112.48314 262.008632 113.059103 Q 262.008632 127.204295 261.932847 140.368076 C 261.929058 140.561327 262.008632 140.746999 262.148833 140.883411 Z" style="fill:#011d32;"/>
		<path d="M 272.156187 132.774461 C 272.186501 132.73278 272.205447 132.679731 272.205447 132.626681 L 272.152398 115.218964 Q 272.148608 114.703628 272.656365 114.612687 L 272.868562 114.574795 Q 273.489995 114.461118 273.493785 115.093919 Q 273.501363 123.850827 273.455892 132.384171 Q 273.455892 132.691098 273.641565 132.903295 C 274.175846 133.513361 274.414567 134.165108 273.895443 134.907797 C 272.845826 136.41591 270.773118 134.6956 271.674955 133.429998 Q 271.913676 133.096546 272.156187 132.774461 Z" style="fill:#011d32;"/>
		<path d="M 216.833444 139.246464 C 216.969856 139.087317 217.041852 138.886488 217.041852 138.67808 L 217.038062 115.537259 Q 217.038062 114.877933 217.693599 114.798359 Q 217.955056 114.768045 218.205145 114.972664 C 218.333979 115.078762 218.409763 115.23412 218.409763 115.397057 L 218.356714 138.856174 Q 218.352925 139.064581 218.47418 139.231307 C 218.739426 139.598863 219.095614 139.992942 219.034986 140.477964 C 218.724269 142.933384 214.919883 141.485899 216.833444 139.246464 Z" style="fill:#011d32;"/>
		<path d="M 235.72654 116.685395 C 235.72654 117.193152 235.313514 117.606178 234.805757 117.606178 C 234.298 117.606178 233.884974 117.193152 233.884974 116.685395 C 233.884974 116.177638 234.298 115.764612 234.805757 115.764612 C 235.313514 115.764612 235.72654 116.177638 235.72654 116.685395 Z" style="fill:#011d32;"/>
		<path d="M 256.631716 116.746023 C 256.631716 117.231044 256.241425 117.621335 255.756404 117.621335 C 255.271383 117.621335 254.881092 117.231044 254.881092 116.746023 C 254.881092 116.261001 255.271383 115.870711 255.756404 115.870711 C 256.241425 115.870711 256.631716 116.261001 256.631716 116.746023 Z" style="fill:#011d32;"/>
		<path d="M 205.387207 122.07455 C 203.984169 121.421931 203.396838 119.712989 204.072571 118.25891 C 204.749593 116.80665 206.4358 116.158692 207.840581 116.813357 C 209.243618 117.465976 209.830949 119.174919 209.155216 120.628997 C 208.478194 122.081257 206.791987 122.729215 205.387207 122.07455 Z" style="fill:#022c3c;"/>
		<path d="M 283.59568 122.411034 C 282.06881 122.301032 280.924463 120.910385 281.041436 119.302767 C 281.155606 117.697119 282.485625 116.480777 284.012874 116.590551 C 285.539743 116.700552 286.684091 118.091199 286.567117 119.698817 C 286.452948 121.304465 285.122928 122.520808 283.59568 122.411034 Z" style="fill:#022c3c;"/>
		<path d="M 245.464858 117.969944 C 245.464858 118.33371 245.169298 118.62927 244.805532 118.62927 C 244.441766 118.62927 244.146206 118.33371 244.146206 117.969944 C 244.146206 117.606178 244.441766 117.310618 244.805532 117.310618 C 245.169298 117.310618 245.464858 117.606178 245.464858 117.969944 Z" style="fill:#011d32;"/>
		<path d="M 212.846721 120.808228 C 213.078318 121.164264 212.953274 121.656864 212.567757 121.904831 C 212.18406 122.153252 211.683882 122.0661 211.453194 121.709761 C 211.221596 121.353725 211.346641 120.861125 211.732157 120.613158 C 212.115854 120.364736 212.616032 120.451889 212.846721 120.808228 Z" style="fill:#011d32;"/>
		<path d="M 278.707309 121.065857 C 278.836597 121.501505 278.556194 121.975159 278.073598 122.118429 C 277.59373 122.26314 277.097341 122.024419 276.965173 121.588544 C 276.835885 121.152896 277.116287 120.679242 277.598884 120.535972 C 278.078752 120.391261 278.575141 120.629982 278.707309 121.065857 Z" style="fill:#011d32;"/>
		<path d="M 256.631716 121.493927 C 256.631716 121.978948 256.237636 122.373028 255.752615 122.373028 C 255.267593 122.373028 254.873514 121.978948 254.873514 121.493927 C 254.873514 121.008905 255.267593 120.614826 255.752615 120.614826 C 256.237636 120.614826 256.631716 121.008905 256.631716 121.493927 Z" style="fill:#011d32;"/>
		<path d="M 290.262297 121.154942 C 290.393746 121.520451 290.147446 121.944845 289.716952 122.097248 C 289.283502 122.251772 288.828794 122.077468 288.698786 121.711656 C 288.567337 121.346147 288.813637 120.921753 289.244132 120.76935 C 289.677581 120.614826 290.132289 120.78913 290.262297 121.154942 Z" style="fill:#011d32;"/>
		<path d="M 245.768982 155.057363 C 245.767996 155.346898 245.533064 155.578041 245.244249 155.578458 L 244.956268 155.577435 C 244.66912 155.578041 244.434188 155.343109 244.435173 155.052702 L 244.546879 123.056643 C 244.547865 122.767108 244.782797 122.535965 245.071612 122.535548 L 245.359593 122.536571 C 245.646741 122.535965 245.881673 122.770897 245.880688 123.061303 L 245.768982 155.057363 Z" style="fill:#011d32;"/>
		<path d="M 241.023162 126.371346 C 241.020092 126.764744 240.698008 127.083039 240.305861 127.078758 L 233.932529 127.034234 C 233.540155 127.02999 233.221859 126.711695 233.225118 126.316933 L 233.226368 126.142629 C 233.229438 125.749231 233.551522 125.430936 233.94367 125.435217 L 240.317001 125.479741 C 240.709376 125.483985 241.027671 125.80228 241.024412 126.197042 L 241.023162 126.371346 Z" style="fill:#011d32;"/>
		<path d="M 255.845489 127.635395 C 255.385059 127.655213 254.994769 127.264922 254.972829 126.759439 C 254.949298 126.256987 255.305486 125.832594 255.765839 125.81073 C 256.226268 125.790912 256.616559 126.181203 256.638498 126.686686 C 256.66203 127.189138 256.305842 127.613531 255.845489 127.635395 Z" style="fill:#011d32;"/>
		<path d="M 200.039581 127.636267 C 200.039581 128.424426 199.402991 129.061017 198.614831 129.061017 C 197.826672 129.061017 197.190081 128.424426 197.190081 127.636267 C 197.190081 126.848107 197.826672 126.211517 198.614831 126.211517 C 199.402991 126.211517 200.039581 126.848107 200.039581 127.636267 Z M 198.272626 127.956267 C 198.482208 128.106131 198.800503 128.018979 198.979582 127.766048 C 199.16048 127.511222 199.137745 127.185349 198.926723 127.035863 C 198.71714 126.885999 198.398845 126.973152 198.219766 127.226083 C 198.038868 127.480908 198.061604 127.806782 198.272626 127.956267 Z" style="fill:#011d32;"/>
		<path d="M 198.272626 127.956267 C 198.061604 127.806782 198.038868 127.480908 198.219766 127.226083 C 198.398845 126.973152 198.71714 126.885999 198.926723 127.035863 C 199.137745 127.185349 199.16048 127.511222 198.979582 127.766048 C 198.800503 128.018979 198.482208 128.106131 198.272626 127.956267 Z" style="fill:#022c3c;"/>
		<path d="M 250.6439 129.59545 C 250.148345 129.716553 249.63301 129.345209 249.492202 128.766859 C 249.352607 128.189494 249.640588 127.624899 250.137811 127.503492 C 250.633366 127.382388 251.148701 127.753733 251.289509 128.332083 C 251.429104 128.909448 251.141123 129.474043 250.6439 129.59545 Z" style="fill:#011d32;"/>
		<path d="M 240.194041 131.30424 C 240.194041 131.785472 239.80375 132.175763 239.322518 132.175763 C 238.841286 132.175763 238.450995 131.785472 238.450995 131.30424 C 238.450995 130.823008 238.841286 130.432718 239.322518 130.432718 C 239.80375 130.432718 240.194041 130.823008 240.194041 131.30424 Z" style="fill:#011d32;"/>
		<path d="M 235.838663 131.018533 C 235.96905 131.436863 235.700015 131.891571 235.242087 132.033856 C 234.783022 132.175763 234.305579 131.955988 234.174509 131.536899 C 234.044122 131.118568 234.313157 130.663861 234.771086 130.521575 C 235.230151 130.379669 235.707593 130.599444 235.838663 131.018533 Z" style="fill:#011d32;"/>
		<path d="M 240.102038 134.963347 C 240.341821 135.290509 240.235722 135.775531 239.866575 136.04665 C 239.496822 136.31739 239.004223 136.27192 238.762773 135.943545 C 238.522991 135.616383 238.629089 135.131362 238.998236 134.860242 C 239.367989 134.589502 239.860588 134.634973 240.102038 134.963347 Z" style="fill:#011d32;"/>
	</g>
	<g id="surface4">
	</g>
</svg>
