<?xml version="1.0" encoding="utf-8"?>
<svg xmlns="http://www.w3.org/2000/svg" width="490pt" height="280pt" viewBox="0 0 490 280" version="1.1" xmlns:xlink="http://www.w3.org/1999/xlink">
	<g id="surface2">
		<path d="M 211.699048 77.517092 C 209.490791 72.877339 207.819514 67.785074 206.226673 63.103087 C 203.529704 55.181116 201.677423 46.921269 200.018213 38.70969 Q 198.461573 31.004925 198.328836 23.420829 Q 198.322803 22.962284 198.763247 22.841614 C 213.859037 18.726774 228.954827 14.805006 243.730842 12.210606 Q 245.534855 11.890831 247.664677 12.283008 C 262.157118 14.943777 276.619391 18.364765 290.816191 22.371002 C 291.600545 22.594241 292.487468 22.630442 293.301989 22.769212 C 293.458859 22.799379 293.573496 22.932116 293.579529 23.09502 Q 293.627797 26.974554 293.199419 30.787719 Q 290.948928 50.752535 283.829411 68.792667 C 280.414456 77.450724 275.961741 86.042413 270.103223 92.564614 Q 259.737689 104.100646 246.651051 110.405642 Q 245.166812 111.117593 243.561904 110.170336 Q 243.145593 109.922963 242.711182 109.699723 C 229.141865 102.628474 218.329853 91.460486 211.699048 77.517092 Z M 278.610443 71.362933 C 282.236569 63.187556 284.680133 54.384695 287.015093 45.491332 Q 289.428489 36.320429 289.820665 26.443607 C 289.838766 25.966961 289.525024 25.538583 289.066479 25.417914 Q 270.827242 20.645424 256.189997 17.689014 Q 251.538177 16.753823 247.163897 16.174608 Q 244.581564 15.836733 242.270737 16.216843 Q 235.694234 17.308904 230.071022 18.654372 Q 217.316226 21.707318 203.276297 25.176574 Q 202.220437 25.436014 202.268704 26.522042 Q 202.419542 30.419676 203.047025 34.082004 Q 205.671592 49.376899 210.61302 64.152914 C 213.092784 71.562039 216.049194 78.687589 220.610511 84.926217 Q 230.028788 97.789616 243.163694 105.295276 Q 244.304023 105.946893 245.697759 106.164099 Q 245.9753 106.212367 246.228706 106.091697 Q 249.167016 104.710028 252.370798 102.48367 Q 270.37473 89.952114 278.610443 71.362933 Z" style="fill:#0c0c10;"/>
		<path d="M 285.947165 35.759314 C 283.956114 46.879035 279.720605 57.92032 272.528685 66.674912 C 267.176981 73.191081 261.059023 79.665015 255.091902 85.408896 Q 251.115833 89.240162 246.693285 92.0035 C 246.150271 92.347409 245.450386 92.317241 244.931506 91.937131 C 235.368426 84.871916 227.24735 75.803581 219.476216 66.355138 C 210.981063 56.019771 206.926558 42.800396 205.593157 29.623256 C 205.412152 27.789075 207.63851 27.517568 208.923643 27.173659 Q 218.697895 24.573225 226.993943 22.690777 C 230.951912 21.791787 234.946082 20.579055 238.831649 19.710233 C 245.35385 18.250129 250.874493 19.529228 258.977469 21.41771 Q 272.70969 24.61546 282.073665 26.962487 Q 284.125052 27.475334 286.218672 28.163151 C 286.466045 28.24762 286.634983 28.482926 286.62895 28.742366 Q 286.604816 32.10302 285.947165 35.759314 Z M 248.014619 81.384559 Q 247.706911 83.900524 247.224232 86.404422 Q 247.085462 87.146541 247.53194 86.543192 Q 250.838292 82.072377 253.951572 77.414523 C 258.567192 70.506178 262.078682 62.107561 263.798227 54.155422 C 265.62034 45.714571 265.185929 37.376289 260.347071 30.069734 C 256.352901 24.048312 250.253044 21.864189 243.13956 22.244298 Q 238.427405 22.497705 235.054684 24.597359 C 227.651593 29.194878 224.918423 38.383882 229.58231 46.112781 C 235.217589 55.446589 246.011501 59.953606 247.851715 71.930081 Q 248.581767 76.678437 248.014619 81.384559 Z" style="fill:#0c0c10;"/>
		<path d="M 248.014619 81.384559 Q 248.581767 76.678437 247.851715 71.930081 C 246.011501 59.953606 235.217589 55.446589 229.58231 46.112781 C 224.918423 38.383882 227.651593 29.194878 235.054684 24.597359 Q 238.427405 22.497705 243.13956 22.244298 C 250.253044 21.864189 256.352901 24.048312 260.347071 30.069734 C 265.185929 37.376289 265.62034 45.714571 263.798227 54.155422 C 262.078682 62.107561 258.567192 70.506178 253.951572 77.414523 Q 250.838292 82.072377 247.53194 86.543192 Q 247.085462 87.146541 247.224232 86.404422 Q 247.706911 83.900524 248.014619 81.384559 Z" style="fill:#f25424;"/>
		<path d="M 179.214742 89.885745 Q 180.252503 89.101392 180.994622 88.311004 C 186.666102 82.271482 192.168644 76.431064 198.413305 70.982824 C 198.552075 70.862154 198.763247 70.934556 198.799448 71.11556 Q 199.475199 74.500348 201.013739 77.583461 C 201.098208 77.758432 201.04994 77.969604 200.893069 78.08424 Q 198.690845 79.713282 196.868732 81.825004 Q 190.249994 89.499602 186.044652 97.892185 C 185.827447 98.33263 185.362868 98.59207 184.868122 98.549836 Q 181.109258 98.236094 177.495198 97.493975 Q 168.78284 95.708062 160.076515 93.614441 Q 153.80772 92.112103 147.73803 89.596138 C 140.745216 86.700063 134.898765 81.517296 129.722031 75.827715 Q 124.01435 69.552887 118.421306 62.596274 Q 114.789146 58.07719 112.158544 53.256433 Q 111.796535 52.592749 112.261114 53.190064 Q 126.43378 71.314666 147.798365 80.50367 C 157.946693 84.865882 168.14329 87.599053 178.876867 89.958147 C 178.991503 89.982281 179.112173 89.958147 179.214742 89.885745 Z" style="fill:#0c0c10;"/>
		<path d="M 311.317987 89.270329 C 311.722231 89.698707 312.319546 89.879712 312.892728 89.746975 Q 318.642643 88.449775 323.952113 87.068106 C 338.607458 83.248907 352.116441 76.636203 363.887778 67.236027 Q 371.339137 61.287007 377.37866 52.936658 Q 377.39676 52.90649 377.426928 52.924591 L 377.553631 53.00906 Q 377.589832 53.033193 377.571731 53.069394 Q 375.544479 57.111832 371.369305 62.632475 Q 363.628338 72.859239 355.881338 80.358866 Q 348.713553 87.291345 340.73728 90.392558 C 332.338663 93.662709 322.823851 95.623593 313.960655 97.282803 Q 310.292294 97.970621 306.346392 98.21196 Q 305.670641 98.254195 305.368967 97.650846 Q 299.830224 86.506991 290.737756 78.355747 Q 290.393847 78.048039 290.556751 77.607595 L 292.939979 71.145728 C 293.018415 70.940589 293.277855 70.880254 293.434725 71.037125 Q 302.038481 79.441775 311.317987 89.270329 Z" style="fill:#0c0c10;"/>
		<path d="M 168.499266 78.470384 Q 176.66861 75.133864 185.809346 68.177251 Q 191.619596 63.760737 194.865613 60.65349 C 194.901814 60.617289 194.962149 60.63539 194.98025 60.683658 Q 196.313651 65.118272 196.337785 66.077597 Q 196.337785 66.113798 196.313651 66.137932 Q 188.892459 72.485162 182.09875 78.838427 C 180.228369 80.594172 177.422796 83.104103 174.725827 82.971367 Q 168.269993 82.651592 162.152035 80.702775 Q 161.669356 80.551937 162.164102 80.443335 Q 165.319617 79.76155 168.499266 78.470384 Z" style="fill:#0c0c10;"/>
		<path d="M 311.800666 73.263483 C 316.573156 76.310395 322.232569 78.784125 327.632542 80.545904 Q 328.784938 80.91998 327.602374 81.191487 Q 322.534243 82.355951 317.122204 82.772261 C 313.556412 83.049802 309.86995 79.876187 307.402253 77.559327 Q 301.22396 71.75511 294.924997 65.999162 Q 294.65349 65.745755 294.816394 65.413913 Q 295.751585 63.531465 295.938623 61.311141 Q 295.968791 60.973265 296.222197 61.202538 Q 303.739925 68.128983 311.800666 73.263483 Z" style="fill:#0c0c10;"/>
		<path d="M 207.554041 91.10451 C 203.228029 97.29487 199.257993 104.438521 196.79633 111.714909 C 196.542923 112.457028 196.030077 113.090544 195.155221 113.018142 Q 185.121528 112.203621 171.353106 109.904862 Q 164.239622 108.716265 159.261994 105.524549 Q 152.637223 101.276973 147.140714 95.961469 Q 146.573566 95.418455 147.321719 95.677895 Q 165.754028 102.169929 184.958624 105.047903 Q 187.082412 105.367678 189.091564 105.464214 C 189.719047 105.494382 190.298262 105.144439 190.575803 104.583325 C 192.035907 101.554513 193.345174 98.561903 195.082819 95.63566 C 197.580683 91.436352 200.488825 87.942962 203.197862 84.292701 C 203.348699 84.093596 203.650374 84.123763 203.758976 84.347002 Q 205.400085 87.74989 207.554041 90.808869 C 207.614376 90.893338 207.614376 91.014008 207.554041 91.10451 Z" style="fill:#0c0c10;"/>
		<path d="M 300.58441 103.159421 C 301.211893 104.504889 301.736806 105.476281 303.462384 105.259075 Q 322.504076 102.887914 340.085663 96.685487 Q 341.129457 96.317445 342.100849 95.786498 Q 343.71179 94.899575 342.402523 96.190741 Q 337.201656 101.349374 330.317444 105.928793 C 326.045734 108.770566 320.687996 109.922963 315.517296 110.665082 Q 305.622373 112.095019 295.733485 113.000042 C 295.184437 113.04831 294.677624 112.692334 294.538854 112.155354 C 292.668472 104.842765 288.988044 98.242128 284.722367 91.816462 C 284.541362 91.544955 284.523262 91.195012 284.680133 90.905405 L 288.173523 84.389237 C 288.227824 84.292701 288.360561 84.280634 288.432963 84.365103 Q 295.745552 92.860255 300.58441 103.159421 Z" style="fill:#0c0c10;"/>
		<path d="M 217.261925 104.408353 C 213.810769 111.244297 211.306871 118.508618 209.931236 125.905675 C 209.901068 126.050479 209.774365 126.153048 209.629561 126.153048 Q 200.114749 126.038412 189.538042 125.555733 Q 185.3146 125.356628 181.640205 124.451604 C 178.442456 123.667251 175.480013 121.875305 172.614105 120.059224 Q 169.452557 118.056106 167.153798 115.829748 Q 166.695253 115.38327 167.316702 115.516007 Q 183.39595 119.015431 200.301787 119.884253 Q 201.719657 119.956655 202.20837 118.562919 C 203.179761 115.805614 203.952048 113.060377 205.110478 110.423742 Q 208.042754 103.756737 211.089666 97.801683 C 211.156034 97.67498 211.324972 97.662913 211.409441 97.771515 Q 214.052109 101.156303 217.159356 103.889473 Q 217.412762 104.112713 217.261925 104.408353 Z" style="fill:#0c0c10;"/>
		<path d="M 282.025397 101.252839 Q 286.049735 109.579054 288.939776 118.870627 Q 289.175082 119.63688 289.977536 119.667048 Q 291.902219 119.751516 294.110476 119.61878 Q 309.332969 118.695656 321.550785 115.829748 Q 323.451334 115.38327 321.930895 116.608069 Q 317.399744 120.264363 312.530718 122.768261 C 308.795989 124.68691 304.880254 125.410929 300.300836 125.579867 Q 290.924794 125.917742 281.838359 125.984111 C 281.590986 125.990144 281.379814 125.797072 281.349647 125.549699 C 280.565293 118.532752 277.403745 111.564072 274.399067 105.16254 C 274.272364 104.884999 274.338732 104.559191 274.561971 104.354052 Q 277.922625 101.301107 280.100714 97.862018 C 280.269652 97.596544 280.673896 97.650846 280.764398 97.95252 Q 281.319479 99.786701 282.025397 101.252839 Z" style="fill:#0c0c10;"/>
		<path d="M 274.658507 130.829002 C 274.730909 131.064308 274.948115 131.233246 275.195488 131.23928 Q 287.94425 131.643523 298.967435 131.384083 Q 301.561835 131.323749 304.023499 130.973806 Q 305.23623 130.798835 304.258805 131.534921 Q 299.643186 134.998143 293.923438 137.345171 Q 292.185793 138.057122 290.351612 138.014888 C 281.868527 137.815783 273.759517 136.79009 265.445369 136.041937 C 265.22213 136.017803 265.035092 135.848865 264.998891 135.625626 Q 263.737892 127.78209 261.408965 120.596205 Q 261.107291 119.679114 260.540143 118.906828 Q 259.948861 118.110407 260.775449 117.555326 Q 265.300565 114.526515 268.148372 110.936589 C 268.220774 110.846086 268.359544 110.864187 268.407812 110.966756 Q 271.756399 118.647388 273.481977 126.394388 Q 273.98879 128.675047 274.658507 130.829002 Z" style="fill:#0c0c10;"/>
		<path d="M 216.68271 130.714366 Q 217.092987 130.038615 217.280025 129.290463 Q 219.566718 120.143693 223.144577 111.479603 C 223.247146 111.226196 223.591055 111.196029 223.741892 111.425301 C 225.274399 113.82663 228.44198 116.083155 231.012247 118.013871 Q 231.319955 118.243144 231.15705 118.593086 C 230.825209 119.268837 230.420965 119.890287 230.203759 120.620339 Q 227.892933 128.343205 226.444895 135.758363 C 226.408695 135.951435 226.239757 136.102272 226.040652 136.114339 Q 213.907305 137.06763 202.60658 138.063156 C 199.813074 138.310529 197.285042 138.069189 194.750977 136.802157 Q 189.369105 134.117254 185.17583 131.456485 Q 184.107902 130.774701 185.350801 131.010007 Q 187.396154 131.39615 189.459607 131.414251 Q 200.187151 131.504753 210.836259 131.438385 Q 213.352224 131.420284 215.874222 131.209112 C 216.206064 131.184978 216.507739 130.99794 216.68271 130.714366 Z" style="fill:#0c0c10;"/>
		<path d="M 215.469979 148.965671 C 211.741282 147.758973 207.813481 146.274735 204.567464 144.223348 Q 203.668474 143.6562 204.730368 143.6381 Q 205.556956 143.619999 206.280975 143.559664 Q 218.782364 142.546038 232.387882 141.32124 C 232.852461 141.279006 233.238604 140.94113 233.341174 140.488619 L 236.454454 126.702096 C 236.508755 126.472823 236.798363 126.394388 236.955234 126.569359 L 240.671863 130.744534 C 240.96147 131.064308 241.088174 131.49872 241.009738 131.921064 Q 239.965945 137.773548 238.837682 143.583798 Q 238.602376 144.790496 238.2464 146.081663 Q 238.131764 146.497974 237.703386 146.564342 Q 228.852258 147.879643 219.958895 149.30958 Q 217.690303 149.677622 215.469979 148.965671 Z" style="fill:#0c0c10;"/>
		<path d="M 258.941268 141.598781 Q 268.444013 142.063359 278.151897 143.251957 Q 281.723723 143.692401 285.500687 143.626033 Q 286.417777 143.607932 285.681692 144.15698 Q 284.33019 145.158539 282.719249 145.864457 Q 278.88195 147.553834 275.243756 148.724331 Q 273.294939 149.345781 271.140983 149.038073 Q 262.567395 147.819308 254.488553 146.636744 C 253.951572 146.558309 253.523195 146.148031 253.426659 145.617084 L 250.90466 131.963298 C 250.796058 131.341849 250.958962 130.708333 251.363206 130.225653 L 254.428218 126.551259 C 254.566988 126.388354 254.826428 126.454723 254.874696 126.659861 L 258.144847 140.935097 Q 258.289651 141.568613 258.941268 141.598781 Z" style="fill:#0c0c10;"/>
		<path d="M 249.010145 150.60678 Q 255.846088 152.971908 263.587055 154.655251 C 263.864595 154.715586 263.985265 155.041394 263.810294 155.2586 Q 263.538787 155.602509 263.134543 155.753346 Q 257.674235 157.756464 250.844326 159.397573 Q 244.913406 160.821477 238.916118 159.216569 Q 233.47391 157.768531 228.230808 155.940384 Q 227.717962 155.75938 227.331818 155.403404 C 227.150814 155.234466 227.223216 154.932792 227.464555 154.872457 Q 232.339614 153.605424 236.961267 152.356492 Q 242.723249 150.793818 245.61329 149.194943 Q 245.908931 149.032039 246.210606 149.18891 C 247.127696 149.671589 248.026686 150.268904 249.010145 150.60678 Z" style="fill:#0c0c10;"/>
	</g>
	<g id="surface4">
	</g>
</svg>
