<?xml version="1.0" encoding="utf-8"?>
<svg xmlns="http://www.w3.org/2000/svg" width="490pt" height="280pt" viewBox="0 0 490 280" version="1.1" xmlns:xlink="http://www.w3.org/1999/xlink">
	<g id="surface2">
		<path d="M 223.093257 29.8041 Q 225.87798 21.862699 227.348825 14.973563 Q 227.680201 13.415514 228.953383 12.264418 C 230.441669 10.915659 232.395044 11.845837 232.831066 13.624804 Q 233.371732 15.851419 232.807811 18.362902 C 231.621833 23.577716 229.319641 28.391391 227.552301 33.210879 Q 225.151278 39.762825 226.790718 47.041474 Q 227.32557 49.413429 228.895247 51.459823 C 228.941756 51.517959 228.88362 51.599349 228.813856 51.581909 Q 220.703861 49.500634 219.093489 41.419706 Q 218.023783 36.030483 217.314522 29.251806 Q 216.570379 22.165007 219.099303 14.880545 C 219.488815 13.752704 220.645725 13.316682 221.71543 13.81084 C 224.290862 14.991004 224.285049 18.444292 223.872282 20.868571 Q 223.273479 24.391623 222.796763 27.583298 Q 222.628168 28.734394 222.854899 29.786659 Q 222.947917 30.216867 223.093257 29.8041 Z" style="fill:#107b95;"/>
		<path d="M 269.253375 29.635505 Q 269.392902 28.513477 269.195239 27.449585 Q 268.578996 24.182332 267.986007 20.85113 C 267.57324 18.531497 267.439527 15.717706 269.416156 14.14803 C 271.253259 12.682998 272.619459 14.136402 273.148499 15.874674 Q 275.049551 22.112685 274.584462 27.083327 Q 273.974032 33.635273 273.195007 40.169779 C 272.840377 43.14635 271.747417 46.820556 269.21268 48.582082 Q 267.015133 50.111063 264.009493 51.2796 Q 263.596726 51.436568 263.852525 51.076124 C 269.956823 42.384767 264.451328 31.321454 260.782935 22.880082 C 259.782993 20.583703 257.347088 14.153843 259.963215 12.276045 C 261.968913 10.828454 263.800203 13.322496 264.317615 15.020072 Q 266.707011 22.792878 269.090594 29.652946 Q 269.21268 29.995949 269.253375 29.635505 Z" style="fill:#107b95;"/>
		<path d="M 236.464576 31.740034 Q 232.953152 40.169779 234.749559 49.006476 Q 235.493702 52.669055 238.051694 56.267684 Q 238.429579 56.796723 237.871471 56.47116 Q 226.6977 49.925028 228.412717 37.989672 Q 228.935942 34.379416 231.220694 28.897176 Q 233.179883 24.2114 234.464692 19.775611 C 235.139071 17.467605 237.848217 18.39197 238.481901 20.130241 C 239.755083 23.635852 237.888912 28.321628 236.464576 31.740034 Z" style="fill:#107b95;"/>
		<path d="M 257.881941 20.729044 C 259.759739 25.025307 261.451501 29.356451 263.090941 33.786427 Q 264.468769 37.53621 264.462955 41.873168 C 264.451328 48.372792 260.905021 52.959736 255.475103 56.064207 Q 254.940251 56.366515 255.259999 55.837476 C 255.905311 54.773584 256.730845 53.791083 257.166866 52.622546 Q 260.40505 43.995139 257.550564 35.55958 Q 256.021583 31.059841 254.149599 26.629865 C 253.184538 24.345114 252.248546 19.583761 255.585562 18.647769 C 255.783225 18.589633 255.998329 18.618701 256.178551 18.717532 Q 257.271511 19.333776 257.881941 20.729044 Z" style="fill:#107b95;"/>
		<path d="M 237.150583 157.912961 C 222.668863 151.244742 208.367366 144.681169 193.821696 138.111782 C 193.548456 137.989696 193.426371 137.669947 193.542643 137.396707 Q 200.292252 121.996436 209.361494 103.014977 Q 212.506661 96.433963 215.053025 90.230833 C 217.424981 84.446285 217.704035 78.318732 214.122847 73.005087 C 211.064884 68.464652 207.501137 64.418375 206.873266 58.703589 Q 206.355854 53.971305 206.995352 47.576327 Q 207.733682 40.193033 208.710369 32.710908 C 209.076627 29.908745 208.890591 26.996123 208.85571 24.164891 C 208.849896 23.79282 209.152204 23.496326 209.524276 23.502139 Q 212.727579 23.577716 214.163542 26.565915 Q 215.611132 29.565742 215.901813 33.030657 Q 216.349462 38.361744 217.163368 42.948688 C 217.942393 47.361223 220.198076 50.023859 224.226913 51.895844 C 227.645319 53.482961 230.842809 55.110774 234.15657 57.029268 C 241.098029 61.058104 245.045475 67.476337 243.888565 75.66191 C 243.545561 78.086188 242.574687 80.277921 241.888681 82.603368 Q 241.11547 85.231123 241.109656 88.137931 Q 241.039893 121.47321 240.975943 159.372179 C 240.975943 159.564028 240.772466 159.686114 240.603871 159.59891 Q 238.877227 158.703613 237.150583 157.912961 Z" style="fill:#107b95;"/>
		<path d="M 276.921536 91.405184 C 276.264597 91.364489 275.712304 91.323793 275.072806 91.521456 Q 263.666489 95.01544 252.312496 98.672205 Q 251.713693 98.864054 251.138145 99.183803 C 251.114891 98.916377 250.998618 98.625696 250.998618 98.375711 Q 250.998618 92.800452 250.928855 87.318211 C 250.88816 84.579998 249.969608 81.795275 249.016175 79.179148 Q 248.341795 77.330418 248.167387 75.586333 C 247.132563 65.296231 253.138029 59.046593 261.742182 54.930552 Q 265.747764 53.012058 269.660328 50.79707 C 273.660097 48.523946 275.03211 44.146293 275.351859 39.780266 Q 275.677422 35.356104 276.020425 31.007518 C 276.305292 27.379822 278.008682 23.717243 282.153791 23.449817 C 282.490981 23.426562 282.764221 23.705616 282.735153 24.042806 Q 282.299131 28.734394 283.060715 33.542255 C 284.304829 41.408079 285.41523 49.128562 285.072227 57.029268 C 284.787359 63.389364 281.810788 67.174029 278.061005 71.906313 Q 276.340174 74.074792 275.16001 77.667607 Q 272.665968 85.254377 276.921536 91.405184 Z" style="fill:#107b95;"/>
		<path d="M 276.921536 91.405184 L 296.873869 137.094399 C 296.984328 137.356012 296.902937 137.65832 296.670392 137.826915 Q 295.746027 138.483853 294.583304 139.018706 Q 272.857818 148.965805 251.626489 159.401247 C 251.335808 159.540774 250.992805 159.32567 250.992805 159.000107 L 251.138145 99.183803 Q 251.713693 98.864054 252.312496 98.672205 Q 263.666489 95.01544 275.072806 91.521456 C 275.712304 91.323793 276.264597 91.364489 276.921536 91.405184 Z" style="fill:#f69c37;"/>
	</g>
	<g id="surface4">
	</g>
</svg>
