<?xml version="1.0" encoding="utf-8"?>
<svg xmlns="http://www.w3.org/2000/svg" width="490pt" height="280pt" viewBox="0 0 490 280" version="1.1" xmlns:xlink="http://www.w3.org/1999/xlink">
	<g id="surface2">
		<path d="M 288.72887 30.463345 C 288.705073 30.808392 288.542465 31.002729 288.546431 31.367607 Q 288.629718 47.465863 288.649548 62.013387 C 288.665413 72.527424 288.843885 82.418789 288.705073 92.599676 Q 288.645582 96.716451 288.645582 100.571466 Q 288.629718 119.184206 288.633684 138.943139 C 288.633684 140.696139 288.50677 142.508631 288.35606 144.241801 Q 288.233112 145.681482 287.12658 146.990284 Q 284.961108 149.552361 281.693071 149.647547 Q 277.17969 149.778427 272.2816 149.770495 Q 253.91079 149.7348 240.0137 149.461142 Q 239.747974 149.45321 238.117921 149.564259 Q 237.173998 149.627716 236.210244 149.461142 Q 237.689586 147.823157 237.915652 146.672998 Q 238.494698 146.696795 238.887338 146.672998 Q 239.430689 146.637304 239.890752 146.64127 Q 259.68538 146.645236 279.226179 146.589711 Q 282.034153 146.581779 283.120854 146.050326 Q 285.258563 145.015184 285.258563 142.044601 Q 285.286326 92.841606 285.254597 43.773457 Q 285.246665 31.502453 285.115785 16.514696 Q 285.095955 14.150922 284.512943 13.127677 Q 283.362784 11.10895 280.903824 11.10895 Q 247.493698 11.08912 212.818396 11.073256 C 210.811568 11.073256 209.149787 12.009247 208.463658 13.984347 Q 208.154305 14.876711 208.158271 16.41951 Q 208.273287 62.06098 208.205863 105.568707 C 208.201897 107.242386 208.090848 108.931929 208.094814 110.653201 L 205.203553 111.831122 Q 204.545186 111.565396 204.80298 111.997697 Q 204.529322 43.019905 204.771252 15.162268 C 204.806946 11.104984 208.043255 7.928167 212.282978 7.932133 Q 249.62744 7.971793 280.717419 7.936099 C 284.22342 7.932133 287.221765 10.053977 288.225179 13.393403 Q 288.601956 14.654612 288.590057 17.153232 Q 288.558329 23.344259 288.534532 30.173822 Q 288.534532 30.253143 288.578159 30.324532 Q 288.63765 30.419718 288.72887 30.463345 Z" style="fill:#040e1e;"/>
		<path d="M 237.915652 146.672998 L 240.438069 140.632682 Q 240.398408 140.953934 240.644304 140.612852 C 240.711728 140.521633 240.818811 140.470074 240.929861 140.470074 Q 254.78729 140.446277 269.2079 140.47404 Q 273.36037 140.481972 278.718523 140.593022 Q 281.01884 140.644581 281.201279 138.64965 Q 281.355956 136.944242 281.348024 134.251285 Q 281.288533 110.10985 281.205245 86.952 Q 281.165585 75.787529 281.272668 64.444585 Q 281.312329 60.200896 281.308363 56.504524 Q 281.272668 38.466863 281.300431 20.809944 Q 281.300431 18.343052 278.6511 18.331154 Q 246.442691 18.180443 236.876543 18.287527 Q 223.63782 18.434271 213.976487 18.176477 Q 213.072225 18.156647 212.639923 18.418407 Q 211.941896 18.850708 211.929998 19.69548 Q 211.664272 36.158613 211.703932 59.804289 C 211.711864 63.984521 211.862575 67.998178 211.818948 72.110987 C 211.799118 74.054359 212.005353 75.95807 212.005353 77.925238 Q 211.985523 89.902752 211.696 101.523321 Q 211.640475 103.684826 211.882405 109.927412 L 208.094814 110.653201 C 208.090848 108.931929 208.201897 107.242386 208.205863 105.568707 Q 208.273287 62.06098 208.158271 16.41951 Q 208.154305 14.876711 208.463658 13.984347 C 209.149787 12.009247 210.811568 11.073256 212.818396 11.073256 Q 247.493698 11.08912 280.903824 11.10895 Q 283.362784 11.10895 284.512943 13.127677 Q 285.095955 14.150922 285.115785 16.514696 Q 285.246665 31.502453 285.254597 43.773457 Q 285.286326 92.841606 285.258563 142.044601 Q 285.258563 145.015184 283.120854 146.050326 Q 282.034153 146.581779 279.226179 146.589711 Q 259.68538 146.645236 239.890752 146.64127 Q 239.430689 146.637304 238.887338 146.672998 Q 238.494698 146.696795 237.915652 146.672998 Z" style="fill:#ffffff;"/>
		<path d="M 254.438277 14.396818 C 254.438277 14.983795 253.962349 15.459723 253.375371 15.459723 L 237.669756 15.459723 C 237.082779 15.459723 236.606851 14.983795 236.606851 14.396818 L 236.606851 14.039872 C 236.606851 13.452894 237.082779 12.976967 237.669756 12.976967 L 253.375371 12.976967 C 253.962349 12.976967 254.438277 13.452894 254.438277 14.039872 L 254.438277 14.396818 Z" style="fill:#040e1e;"/>
		<path d="M 240.438069 140.632682 Q 241.270943 137.233765 241.128164 133.846746 Q 240.513424 119.315086 227.540428 112.897994 Q 220.381681 108.757423 211.882405 109.927412 Q 211.640475 103.684826 211.696 101.523321 Q 211.985523 89.902752 212.005353 77.925238 C 212.005353 75.95807 211.799118 74.054359 211.818948 72.110987 C 211.862575 67.998178 211.711864 63.984521 211.703932 59.804289 Q 211.664272 36.158613 211.929998 19.69548 Q 211.941896 18.850708 212.639923 18.418407 Q 213.072225 18.156647 213.976487 18.176477 Q 223.63782 18.434271 236.876543 18.287527 Q 246.442691 18.180443 278.6511 18.331154 Q 281.300431 18.343052 281.300431 20.809944 Q 281.272668 38.466863 281.308363 56.504524 Q 281.312329 60.200896 281.272668 64.444585 Q 281.165585 75.787529 281.205245 86.952 Q 281.288533 110.10985 281.348024 134.251285 Q 281.355956 136.944242 281.201279 138.64965 Q 281.01884 140.644581 278.718523 140.593022 Q 273.36037 140.481972 269.2079 140.47404 Q 254.78729 140.446277 240.929861 140.470074 C 240.818811 140.470074 240.711728 140.521633 240.644304 140.612852 Q 240.398408 140.953934 240.438069 140.632682 Z" style="fill:#e0f2fd;"/>
		<path d="M 231.728592 153.569985 Q 234.560362 151.717832 236.210244 149.461142 Q 237.173998 149.627716 238.117921 149.564259 Q 239.747974 149.45321 240.0137 149.461142 Q 253.91079 149.7348 272.2816 149.770495 Q 277.17969 149.778427 281.693071 149.647547 Q 284.961108 149.552361 287.12658 146.990284 Q 288.233112 145.681482 288.35606 144.241801 C 288.50677 142.508631 288.633684 140.696139 288.633684 138.943139 Q 288.629718 119.184206 288.645582 100.571466 Q 288.645582 96.716451 288.705073 92.599676 C 288.843885 82.418789 288.665413 72.527424 288.649548 62.013387 Q 288.629718 47.465863 288.546431 31.367607 C 288.542465 31.002729 288.705073 30.808392 288.72887 30.463345 C 292.43714 29.927926 296.534084 31.748349 297.378856 35.528009 Q 297.509736 36.114986 297.50577 41.017042 Q 297.497838 95.284702 297.442313 146.736455 C 297.438347 149.488904 296.823607 151.793188 294.051328 152.967143 Q 292.79012 153.498595 291.11644 153.538256 Q 286.503907 153.641374 282.192795 153.629475 Q 261.870681 153.558086 241.544601 153.601713 Q 236.737731 153.609645 231.728592 153.569985 Z" style="fill:#0e4162;"/>
		<path d="M 249.06652 48.473719 C 245.359955 50.305565 240.838642 48.715173 238.964002 44.923933 C 237.090711 41.132058 238.574019 36.57505 242.280028 34.742252 C 245.986593 32.910406 250.507907 34.500798 252.382546 38.292038 C 254.255838 42.083913 252.772529 46.640921 249.06652 48.473719 Z" style="fill:#0e4162;"/>
		<path d="M 250.662583 41.615918 Q 249.952658 42.361538 250.380993 43.384783 Q 250.400823 43.916235 250.174757 44.308876 Q 250.047843 44.530975 249.885235 44.336638 C 249.278427 43.610848 249.076157 42.595536 249.682965 41.786459 C 252.32833 38.252695 246.438725 36.900267 244.273253 36.55522 Q 243.987697 36.507627 244.16617 36.277595 Q 244.301016 36.103088 244.523115 36.079292 C 245.839849 35.936514 247.275564 36.471932 248.39796 37.102536 Q 249.82971 37.907648 250.61499 39.442514 Q 250.872785 39.946205 250.662583 41.615918 Z" style="fill:#ffffff;"/>
		<path d="M 243.773529 44.590466 Q 242.591642 43.801219 241.362162 42.817635 C 239.73211 41.516766 240.382544 38.990383 241.635821 37.725209 C 241.945174 37.411889 242.45283 37.423788 242.750285 37.745039 C 244.178068 39.29577 245.129923 40.160372 247.414376 40.207965 C 247.584917 40.207965 247.695967 40.386438 247.624578 40.541114 L 246.855161 42.179099 C 246.700485 42.50035 246.767908 42.889024 247.025702 43.138887 Q 248.286911 44.368366 249.567949 45.22107 Q 249.750388 45.344018 249.595712 45.498695 Q 247.600781 47.54915 244.753147 46.938376 C 244.527082 46.886817 244.380337 46.664718 244.431896 46.438652 Q 244.705554 45.217104 243.773529 44.590466 Z" style="fill:#ffffff;"/>
		<path d="M 244.804706 37.82436 Q 246.878958 38.161476 248.671619 38.954689 C 249.278427 39.220415 249.08409 39.950171 248.675585 40.295218 C 248.568501 40.386438 248.401926 40.326947 248.37813 40.188135 Q 248.243284 39.347329 247.394546 39.069704 Q 246.113507 38.645336 244.884027 38.181306 C 244.80074 38.149577 244.749181 38.070256 244.745215 37.983003 L 244.745215 37.871953 C 244.745215 37.840224 244.772978 37.816428 244.804706 37.82436 Z" style="fill:#ffffff;"/>
		<path d="M 250.662583 41.615918 Q 250.70621 42.476554 250.380993 43.384783 Q 249.952658 42.361538 250.662583 41.615918 Z" style="fill:#e0f2fd;"/>
		<path d="M 242.647167 46.45055 C 242.611472 46.486245 242.555947 46.482279 242.524219 46.446584 L 242.476626 46.395025 C 241.46528 45.288493 240.71966 44.32474 240.814845 44.237486 L 240.882268 44.174029 C 240.977454 44.086776 241.873784 44.915683 242.885131 46.018249 L 242.932724 46.069808 C 242.968418 46.105503 242.964452 46.161028 242.928758 46.192756 L 242.647167 46.45055 Z" style="fill:#e0f2fd;"/>
		<path d="M 263.742664 52.451206 C 263.742664 52.835914 263.433311 53.145267 263.048602 53.145267 L 226.838434 53.145267 C 226.453726 53.145267 226.144373 52.835914 226.144373 52.451206 L 226.144373 52.371885 C 226.144373 51.987176 226.453726 51.677823 226.838434 51.677823 L 263.048602 51.677823 C 263.433311 51.677823 263.742664 51.987176 263.742664 52.371885 L 263.742664 52.451206 Z" style="fill:#0e4162;"/>
		<path d="M 257.523875 56.389508 C 257.523875 56.794046 257.194691 57.12323 256.790153 57.12323 L 226.917755 57.12323 C 226.513217 57.12323 226.184034 56.794046 226.184034 56.389508 L 226.184034 56.349847 C 226.184034 55.945309 226.513217 55.616125 226.917755 55.616125 L 256.790153 55.616125 C 257.194691 55.616125 257.523875 55.945309 257.523875 56.349847 L 257.523875 56.389508 Z" style="fill:#0e4162;"/>
		<path d="M 263.758528 60.871161 C 263.758528 61.041701 263.623682 61.176548 263.453141 61.176548 L 227.861679 61.176548 C 226.917755 61.176548 226.152305 60.94255 226.152305 60.653027 L 226.152305 60.232624 C 226.152305 59.943102 226.917755 59.709104 227.861679 59.709104 L 263.453141 59.709104 C 263.623682 59.709104 263.758528 59.84395 263.758528 60.014491 L 263.758528 60.871161 Z" style="fill:#0e4162;"/>
		<path d="M 278.05619 94.578742 C 278.05619 96.311912 276.652203 97.715899 274.919033 97.715899 L 217.522149 97.715899 C 215.788979 97.715899 214.384992 96.311912 214.384992 94.578742 L 214.384992 73.701379 C 214.384992 71.968209 215.788979 70.564222 217.522149 70.564222 L 274.919033 70.564222 C 276.652203 70.564222 278.05619 71.968209 278.05619 73.701379 L 278.05619 94.578742 Z" style="fill:#2aab71;"/>
		<path d="M 250.880717 83.24373 C 250.694312 85.575776 249.389477 87.412064 247.469901 88.863643 C 246.172998 89.843261 244.733317 89.533908 243.563328 88.570155 Q 240.192173 85.793909 240.553085 82.14513 Q 240.826743 79.408546 243.670412 78.758111 C 246.918618 78.016457 251.213866 78.988143 250.880717 83.24373 Z" style="fill:#ffffff;"/>
		<path d="M 246.950347 81.300358 C 247.596815 81.308291 248.112404 81.839743 248.104472 82.486212 L 248.100506 82.827293 C 248.076709 84.742902 246.990008 86.281735 245.669308 86.265871 L 245.582055 86.265871 C 244.265321 86.250007 243.214314 84.683411 243.238111 82.767802 L 243.242077 82.426721 C 243.250009 81.780252 243.781461 81.260698 244.42793 81.26863 L 246.950347 81.300358 Z" style="fill:#2aab71;"/>
		<path d="M 227.540428 112.897994 L 226.540979 112.683826 Q 226.219728 112.616403 226.445794 112.850401 Q 226.671859 113.084399 226.97328 113.247007 Q 230.979005 115.428343 233.092918 118.097504 C 235.329778 120.921342 237.479385 124.847746 237.983075 128.476695 C 238.213107 130.146408 238.530392 131.752664 238.50263 133.45014 Q 238.37175 141.203796 233.632303 147.133062 C 229.939897 151.749561 224.740386 154.113335 218.866645 154.684449 Q 213.932861 155.164342 209.986626 154.228351 Q 205.853987 153.248733 202.217106 150.654927 Q 197.437999 147.248078 195.022665 141.755079 Q 193.670237 138.677413 193.527459 135.865473 Q 193.464002 134.671688 193.36485 133.350988 Q 193.261733 131.990628 193.368816 130.733386 Q 194.403959 118.902615 204.703829 112.77108 Q 205.092503 112.537082 205.203553 111.831122 L 208.094814 110.653201 L 211.882405 109.927412 Q 220.381681 108.757423 227.540428 112.897994 Z" style="fill:#ffd476;"/>
		<path d="M 204.80298 111.997697 Q 204.545186 111.565396 205.203553 111.831122 Q 205.092503 112.537082 204.703829 112.77108 Q 194.403959 118.902615 193.368816 130.733386 Q 193.261733 131.990628 193.36485 133.350988 Q 193.464002 134.671688 193.527459 135.865473 Q 193.670237 138.677413 195.022665 141.755079 Q 197.437999 147.248078 202.217106 150.654927 Q 205.853987 153.248733 209.986626 154.228351 Q 213.932861 155.164342 218.866645 154.684449 C 224.740386 154.113335 229.939897 151.749561 233.632303 147.133062 Q 238.37175 141.203796 238.50263 133.45014 C 238.530392 131.752664 238.213107 130.146408 237.983075 128.476695 C 237.479385 124.847746 235.329778 120.921342 233.092918 118.097504 Q 230.979005 115.428343 226.97328 113.247007 Q 226.671859 113.084399 226.445794 112.850401 Q 226.219728 112.616403 226.540979 112.683826 L 227.540428 112.897994 Q 240.513424 119.315086 241.128164 133.846746 Q 241.270943 137.233765 240.438069 140.632682 L 237.915652 146.672998 Q 237.689586 147.823157 236.210244 149.461142 Q 234.560362 151.717832 231.728592 153.569985 Q 228.369335 154.76377 225.311499 155.303155 C 218.311396 156.536601 210.002491 156.159825 203.755939 152.45552 C 197.073121 148.493422 192.988074 142.052533 192.539909 134.366301 Q 192.242454 129.25801 194.162029 124.129888 Q 197.096917 116.273115 204.80298 111.997697 Z" style="fill:#fab331;"/>
		<path d="M 210.069914 114.341641 Q 212.17986 113.830019 215.170273 113.738799 C 222.852539 113.512734 229.293428 117.788151 232.815293 124.570121 Q 235.321846 129.396822 234.619853 134.893787 Q 234.013045 139.649098 231.613576 143.123371 C 229.670204 145.927378 227.492835 148.184069 224.339814 149.528565 C 219.640027 151.527461 214.309637 151.955796 209.423445 150.325744 C 204.822811 148.790877 200.452208 145.463349 198.334329 141.136373 Q 196.743937 137.888166 196.561498 133.858644 Q 196.454415 131.467107 196.728073 129.618921 Q 197.89013 121.698691 204.707795 116.943379 Q 207.559395 114.952415 210.069914 114.341641 Z" style="fill:#fab331;"/>
		<path d="M 204.545186 119.723591 Q 206.774114 118.109402 209.23704 116.83233 Q 210.085778 116.392097 211.136785 116.364334 Q 214.999732 116.277081 217.391269 116.415893 Q 218.251905 116.463486 219.402063 116.737144 Q 220.405478 116.975108 221.325605 117.371714 C 226.707554 119.68393 230.26908 125.343504 230.64189 131.12206 Q 231.25663 140.628716 224.446897 146.0067 Q 222.793048 147.311535 220.54429 147.906445 Q 214.460347 149.508735 209.08633 147.565363 C 208.396235 147.315501 207.722004 147.525702 207.067603 147.152892 Q 203.94631 145.39196 202.470934 143.968143 Q 201.626163 143.159065 200.404615 141.469522 Q 199.655029 140.434379 199.397234 139.48649 C 199.135474 138.522736 198.627818 137.53122 198.564361 136.555568 Q 198.128094 129.979833 199.904891 125.422825 Q 200.813119 123.098711 203.569534 120.282806 C 203.68455 120.163824 203.823362 120.07657 203.978039 120.021045 Q 204.283426 119.913962 204.545186 119.723591 Z" style="fill:#ffd476;"/>
		<path d="M 207.622852 146.24863 L 207.511802 146.359679 C 207.384888 146.486593 207.190551 146.51039 207.039841 146.41917 Q 204.358781 144.808948 202.371783 142.595884 C 201.800669 141.961314 201.427859 141.19983 201.051083 140.438345 Q 200.840882 140.01001 200.694137 139.538049 C 199.238592 134.766873 199.524148 129.376991 202.217106 125.188827 Q 204.18824 122.12306 207.5237 119.913962 Q 208.88406 119.013665 210.529977 118.525839 Q 210.609299 118.502043 210.652925 118.573432 L 210.740179 118.708278 Q 210.835364 118.855023 210.672756 118.922446 Q 208.915789 119.679964 207.551463 120.608023 Q 206.167306 121.555912 204.572948 123.507216 Q 202.403511 126.160513 201.665823 128.980385 Q 200.797255 132.288083 201.146269 136.067742 C 201.586502 140.795291 204.053394 143.285979 207.603022 145.939277 C 207.702173 146.014632 207.714071 146.161376 207.622852 146.24863 Z" style="fill:#ffffff;"/>
		<path d="M 217.672859 129.797394 C 217.585606 129.952071 217.664927 130.150374 217.835468 130.197967 C 220.663272 131.022908 223.65765 132.426895 223.213451 136.008251 Q 222.666134 140.434379 218.156719 141.33071 C 217.950484 141.374336 217.807705 141.564707 217.827536 141.774909 L 218.049635 144.154548 C 218.0655 144.336987 217.938586 144.499595 217.760113 144.527358 Q 216.225246 144.765321 214.345331 144.64634 C 214.095469 144.630475 213.897166 144.42424 213.889234 144.174378 L 213.821811 141.766977 C 213.817845 141.608334 213.698863 141.477454 213.544186 141.453658 C 210.994007 141.053085 208.650063 140.176585 208.055153 137.356713 C 208.023425 137.206003 208.154305 137.071156 208.305015 137.098919 Q 210.065948 137.44 211.624611 136.868887 C 211.878439 136.777668 212.152098 136.944242 212.187792 137.209969 C 212.42179 138.955037 217.672859 139.423033 217.835468 136.615059 C 217.926687 135.020701 216.812223 134.493215 215.47566 134.231454 C 212.235385 133.596884 208.49142 132.411031 208.423997 128.361679 C 208.372438 125.240386 210.906753 123.3922 213.686965 122.602953 C 213.916996 122.53553 214.071673 122.325329 214.067707 122.083399 Q 214.032012 120.631819 213.841641 120.171756 Q 213.619541 119.640303 214.194621 119.660134 Q 215.769148 119.719625 217.129508 119.42217 C 217.462658 119.350781 217.779943 119.604609 217.779943 119.94569 L 217.775977 121.746284 C 217.772011 122.000112 217.958416 122.222211 218.208278 122.261872 C 219.588468 122.491904 223.780598 124.185413 222.840641 126.386579 C 222.717693 126.676102 222.360747 126.779219 222.102953 126.600746 Q 220.425308 125.450588 218.319328 125.426791 C 218.168617 125.426791 218.041703 125.549739 218.037737 125.70045 C 218.002043 126.846642 218.224142 128.805878 217.672859 129.797394 Z" style="fill:#da9228;"/>
		<path d="M 217.161237 125.807534 C 217.24849 127.044946 217.363506 128.433068 217.252456 129.710141 Q 217.232626 129.963969 216.978798 129.924308 C 216.054705 129.765666 214.127198 129.416652 213.833709 128.32995 C 213.583847 127.393959 213.508492 125.633027 214.852987 125.399029 Q 215.761216 125.244352 216.669445 125.311775 Q 217.129508 125.34747 217.161237 125.807534 Z" style="fill:#ffd476;"/>
	</g>
	<g id="surface4">
	</g>
</svg>
