<?xml version="1.0" encoding="utf-8"?>
<svg xmlns="http://www.w3.org/2000/svg" width="490pt" height="280pt" viewBox="0 0 490 280" version="1.1" xmlns:xlink="http://www.w3.org/1999/xlink">
	<g id="surface2">
		<path d="M 201.440646 109.936025 Q 202.614597 109.81863 203.793885 110.128126 Q 204.055356 111.78233 204.82376 113.287122 Q 206.867502 117.27322 209.535573 120.86978 C 213.804487 126.616804 218.596342 132.102358 223.927148 136.782155 Q 225.543999 138.201568 227.214211 139.727705 Q 231.621864 143.767164 238.190655 148.553683 C 240.890743 150.528056 243.436082 152.811925 246.365624 154.695583 C 247.5876 155.479995 249.300502 156.627266 250.751933 155.858862 Q 254.231097 154.023229 257.406101 151.64331 Q 260.20224 149.551542 263.414597 146.573975 Q 265.794516 144.375484 268.510612 142.294389 Q 271.098641 140.309344 273.291796 138.249594 Q 278.889408 132.966813 283.665255 127.801428 C 285.100677 126.248611 286.311982 124.503692 287.646017 122.860161 Q 288.681229 121.579487 289.519003 120.298813 Q 290.372785 118.980786 291.354636 117.700111 Q 297.368467 109.834638 301.253179 100.955299 C 305.458058 91.328899 308.15281 80.485859 308.750458 69.770886 Q 308.99592 65.469956 308.990584 61.457177 Q 308.990584 49.861741 308.809155 37.684665 C 308.787811 36.28126 307.992726 35.32609 306.93617 34.509661 Q 300.756917 29.728478 292.982159 24.536412 Q 287.928833 21.153298 283.830676 19.290984 Q 277.758146 16.532199 271.322759 14.835306 C 264.305733 12.983665 257.331395 11.809714 250.042226 11.84173 Q 229.396693 11.927109 210.981668 22.188509 C 203.953969 26.105237 198.180264 29.621755 192.705382 34.258862 C 191.526095 35.256721 190.5229 36.249243 190.506892 37.914119 C 190.405505 46.147786 190.293446 54.232041 190.35748 61.916085 Q 190.490883 78.314049 197.129044 93.0418 Q 197.545263 93.95428 197.497237 95.539115 Q 197.486565 95.843275 197.81207 95.779241 Q 197.83875 96.451595 197.593288 96.408906 Q 197.470557 96.270166 197.107699 96.120754 C 196.947615 96.051384 196.814211 95.933989 196.728833 95.779241 Q 194.96257 92.684279 194.034081 90.069569 Q 189.258234 76.633164 189.316932 62.321632 Q 189.338277 56.398514 189.343613 50.902288 Q 189.343613 50.72086 189.151512 49.098672 C 189.050125 48.250226 189.322268 47.444469 189.226218 46.633375 C 189.034116 44.989843 189.300924 43.410345 189.23689 41.804167 C 189.151512 39.781769 188.895377 36.884244 189.957269 35.107309 Q 190.715001 33.837307 192.539962 32.343187 C 198.014843 27.882173 203.158884 24.205571 208.916581 21.035903 Q 229.999677 9.424458 254.775383 10.822527 Q 270.031413 11.681646 284.22555 17.860898 C 289.316229 20.075397 294.417581 22.594056 298.841243 25.886456 Q 303.50503 29.349612 308.270205 33.730584 Q 310.297939 35.592898 310.260586 38.100884 Q 310.068485 52.065567 310.159199 65.624704 Q 310.196552 71.232989 309.572224 76.035516 Q 307.57117 91.488983 300.991708 105.651103 Q 299.636328 108.564637 296.034432 114.925318 Q 295.895692 115.17078 295.628885 115.250822 Q 295.554179 115.277503 295.474137 115.30952 Q 295.282036 115.384226 295.340733 115.586999 Q 295.479473 116.067252 295.009893 116.296706 C 294.817792 116.392757 294.705733 116.590194 294.721741 116.798304 Q 294.743086 117.091791 294.518968 117.235867 Q 294.326867 117.358598 294.193463 117.5507 Q 293.574471 118.415154 293.10489 119.332971 Q 293.00884 119.519736 292.80073 119.482383 Q 292.710016 119.466374 292.624637 119.509064 Q 292.528587 119.562425 292.480561 119.658476 Q 291.850897 120.901797 290.719635 121.78226 Q 290.511525 121.942344 290.538206 122.203815 Q 290.575559 122.588017 290.148668 122.620034 C 290.004592 122.630707 289.913877 122.785455 289.983247 122.913522 Q 290.041945 123.025581 289.977911 123.121632 Q 289.903205 123.228354 289.78581 123.281716 Q 289.012069 123.633901 288.926691 124.509028 Q 288.905346 124.775836 288.739926 124.978609 Q 284.716475 130.143994 280.927814 133.889966 Q 276.312052 138.452367 271.840365 142.571868 Q 270.431624 143.868551 268.953512 145.309309 Q 267.480737 146.750067 265.959937 147.865321 Q 259.113667 152.897303 251.248194 158.030671 C 250.442436 158.558949 249.545965 158.964496 248.606804 158.409537 C 245.92806 156.835375 243.398729 154.877011 240.864062 153.126757 Q 237.93452 151.099023 235.309138 149.012592 Q 228.799045 143.831198 223.062693 138.735182 Q 218.574997 134.738412 214.044613 129.503657 Q 207.29973 121.691546 202.876068 112.988298 Q 202.502538 112.251911 202.209051 111.435481 Q 201.910227 110.608379 201.440646 109.936025 Z" style="fill:#aeaeaf;"/>
		<path d="M 203.793885 110.128126 C 205.36271 110.202832 207.059603 110.240185 207.737293 111.451489 C 212.598519 120.128056 219.033906 127.470587 226.381773 134.124756 Q 237.246158 143.953929 248.825585 152.363689 C 249.284494 152.694529 249.908822 152.705202 250.378403 152.385033 Q 266.248088 141.541993 280.132729 126.840922 Q 297.75267 108.191107 303.451669 83.239308 Q 305.169907 75.710012 305.228604 70.528618 Q 305.410033 55.16053 305.260621 39.872483 C 305.244613 38.319666 305.474067 37.35916 304.108014 36.297268 Q 297.790023 31.382682 292.171065 27.860828 Q 269.882001 13.880137 244.023058 15.662408 C 235.181071 16.270728 227.422321 18.35716 219.113948 21.889685 Q 208.953934 26.206624 201.339259 31.958985 Q 197.886776 34.568358 194.562359 37.017647 C 194.295552 37.220421 194.11946 37.519245 194.082107 37.855422 Q 193.959375 38.885297 193.959375 39.947189 Q 193.906014 52.519139 193.916686 62.044152 C 193.927358 70.075046 195.213369 77.999216 197.646649 85.661916 C 198.777911 89.226459 198.879298 92.321421 197.81207 95.779241 Q 197.486565 95.843275 197.497237 95.539115 Q 197.545263 93.95428 197.129044 93.0418 Q 190.490883 78.314049 190.35748 61.916085 C 190.293446 54.232041 190.405505 46.147786 190.506892 37.914119 C 190.5229 36.249243 191.526095 35.256721 192.705382 34.258862 C 198.180264 29.621755 203.953969 26.105237 210.981668 22.188509 Q 229.396693 11.927109 250.042226 11.84173 C 257.331395 11.809714 264.305733 12.983665 271.322759 14.835306 Q 277.758146 16.532199 283.830676 19.290984 Q 287.928833 21.153298 292.982159 24.536412 Q 300.756917 29.728478 306.93617 34.509661 C 307.992726 35.32609 308.787811 36.28126 308.809155 37.684665 Q 308.990584 49.861741 308.990584 61.457177 Q 308.99592 65.469956 308.750458 69.770886 C 308.15281 80.485859 305.458058 91.328899 301.253179 100.955299 Q 297.368467 109.834638 291.354636 117.700111 Q 290.372785 118.980786 289.519003 120.298813 Q 288.681229 121.579487 287.646017 122.860161 C 286.311982 124.503692 285.100677 126.248611 283.665255 127.801428 Q 278.889408 132.966813 273.291796 138.249594 Q 271.098641 140.309344 268.510612 142.294389 Q 265.794516 144.375484 263.414597 146.573975 Q 260.20224 149.551542 257.406101 151.64331 Q 254.231097 154.023229 250.751933 155.858862 C 249.300502 156.627266 247.5876 155.479995 246.365624 154.695583 C 243.436082 152.811925 240.890743 150.528056 238.190655 148.553683 Q 231.621864 143.767164 227.214211 139.727705 Q 225.543999 138.201568 223.927148 136.782155 C 218.596342 132.102358 213.804487 126.616804 209.535573 120.86978 Q 206.867502 117.27322 204.82376 113.287122 Q 204.055356 111.78233 203.793885 110.128126 Z" style="fill:#ffffff;"/>
		<path d="M 203.793885 110.128126 Q 202.614597 109.81863 201.440646 109.936025 L 180.256163 106.600937 Q 179.74923 106.520894 180.245491 106.398163 Q 186.846298 104.775976 193.319038 102.300006 Q 197.022321 100.880593 197.593288 96.408906 Q 197.83875 96.451595 197.81207 95.779241 C 198.879298 92.321421 198.777911 89.226459 197.646649 85.661916 C 195.213369 77.999216 193.927358 70.075046 193.916686 62.044152 Q 193.906014 52.519139 193.959375 39.947189 Q 193.959375 38.885297 194.082107 37.855422 C 194.11946 37.519245 194.295552 37.220421 194.562359 37.017647 Q 197.886776 34.568358 201.339259 31.958985 Q 208.953934 26.206624 219.113948 21.889685 C 227.422321 18.35716 235.181071 16.270728 244.023058 15.662408 Q 269.882001 13.880137 292.171065 27.860828 Q 297.790023 31.382682 304.108014 36.297268 C 305.474067 37.35916 305.244613 38.319666 305.260621 39.872483 Q 305.410033 55.16053 305.228604 70.528618 Q 305.169907 75.710012 303.451669 83.239308 Q 297.75267 108.191107 280.132729 126.840922 Q 266.248088 141.541993 250.378403 152.385033 C 249.908822 152.705202 249.284494 152.694529 248.825585 152.363689 Q 237.246158 143.953929 226.381773 134.124756 C 219.033906 127.470587 212.598519 120.128056 207.737293 111.451489 C 207.059603 110.240185 205.36271 110.202832 203.793885 110.128126 Z" style="fill:#000000;"/>
		<path d="M 295.298044 54.03994 L 295.362078 43.159547 C 295.362078 42.866059 295.223338 42.583243 294.988548 42.401814 Q 290.303416 38.837272 285.767695 35.891721 Q 278.49987 31.1639 269.198975 28.3144 Q 254.364501 23.762671 239.268555 26.286666 C 232.411613 27.433937 225.181141 30.027302 218.708401 32.951507 Q 216.557936 33.922685 215.101169 35.117981 C 210.789567 37.684665 207.625235 40.256685 203.681826 42.967446 Q 202.918757 52.972711 203.591111 63.415541 Q 204.055356 74.253245 206.606031 84.125107 Q 206.979561 85.581874 205.522795 85.203008 Q 205.36271 85.165655 205.19729 85.170991 C 204.434222 85.208344 203.713843 84.658721 203.436363 83.820947 Q 200.122619 73.906396 199.946526 64.061214 Q 199.759761 53.858511 199.850476 43.687825 Q 199.791778 41.489334 200.624216 40.155299 L 201.328587 39.648365 Q 202.401152 39.424247 203.132203 38.298321 L 203.975314 37.508572 Q 205.149265 37.252438 205.517458 36.393319 Q 218.100081 27.02839 233.382791 23.223721 C 252.133993 18.559933 271.941752 22.225862 288.216984 32.524616 Q 293.611824 35.939747 298.974646 40.149963 Q 299.225445 40.3474 299.230781 40.662232 Q 299.486916 55.085824 299.284142 68.596935 C 299.225445 72.679083 298.622461 76.745223 297.533888 80.822035 Q 296.589391 84.349225 295.751616 87.737675 C 295.602204 88.345995 295.036573 88.751542 294.412245 88.698181 L 291.125181 88.410029 Q 290.548878 88.362004 290.596903 87.780364 L 290.772996 85.683261 Q 290.821021 85.101621 291.402661 85.133638 L 292.73136 85.197672 Q 293.019512 85.208344 293.238294 85.021579 Q 294.737749 83.735569 294.881825 82.417542 C 295.522162 76.40371 295.292708 70.251139 295.634221 64.461425 Q 295.772961 62.161548 295.298044 54.03994 Z" style="fill:#ffffff;"/>
		<path d="M 295.298044 54.03994 Q 294.647035 56.409187 294.588337 57.924651 Q 294.534976 59.312048 294.049387 58.015365 Q 292.042998 52.657879 289.609717 47.118964 Q 289.241523 46.286526 288.926691 47.140308 L 285.490216 56.462548 Q 285.228745 57.172255 285.122022 56.425195 Q 284.721811 53.613048 283.185002 50.987667 Q 283.094288 50.832919 282.987565 50.982331 L 279.006803 56.68133 Q 277.912894 55.272589 276.424111 54.621579 L 271.301415 39.413575 Q 271.205364 39.13076 271.109314 39.418911 Q 269.284353 44.920473 267.000484 51.270482 Q 266.845736 51.708046 266.594938 52.054895 C 266.221408 52.583173 265.41565 52.513803 265.132835 51.932164 Q 264.172329 49.952455 263.553337 47.807326 Q 263.425269 47.35909 263.211824 47.775309 L 260.794551 52.359055 L 252.384792 52.68456 Q 251.01874 50.539431 250.634537 48.228881 Q 250.581176 47.930057 250.469117 48.212873 L 248.63882 52.801955 L 245.709279 53.394267 L 241.888601 44.301481 Q 241.76587 44.002657 241.664483 44.306817 Q 240.186372 48.821193 238.548176 53.383594 Q 238.270697 54.151999 237.641032 54.573554 C 237.363553 54.754983 236.990023 54.64826 236.856619 54.3441 Q 233.457497 46.676064 231.237662 39.861811 Q 231.109595 39.466937 231.013544 39.872483 Q 230.346526 42.599252 228.756356 45.368709 C 228.697658 45.475432 228.532238 45.470096 228.484213 45.352701 C 226.862026 41.56404 224.903662 37.727354 223.852442 33.730584 Q 223.580298 32.690036 223.217441 33.703903 Q 221.467186 38.629162 218.953864 43.618455 C 218.5163 44.488246 218.329535 45.374045 217.966677 46.254509 Q 217.737223 46.809468 217.60382 46.222492 L 215.101169 35.117981 Q 216.557936 33.922685 218.708401 32.951507 C 225.181141 30.027302 232.411613 27.433937 239.268555 26.286666 Q 254.364501 23.762671 269.198975 28.3144 Q 278.49987 31.1639 285.767695 35.891721 Q 290.303416 38.837272 294.988548 42.401814 C 295.223338 42.583243 295.362078 42.866059 295.362078 43.159547 L 295.298044 54.03994 Z" style="fill:#14a6d9;"/>
		<path d="M 205.517458 36.393319 Q 205.149265 37.252438 203.975314 37.508572 Q 204.487583 36.622773 205.517458 36.393319 Z" style="fill:#aeaeaf;"/>
		<path d="M 203.132203 38.298321 Q 202.401152 39.424247 201.328587 39.648365 Q 202.011613 38.581137 203.132203 38.298321 Z" style="fill:#aeaeaf;"/>
		<path d="M 276.424111 54.621579 Q 273.409191 53.911872 270.335573 53.138132 Q 267.608805 52.455106 260.794551 52.359055 L 263.211824 47.775309 Q 263.425269 47.35909 263.553337 47.807326 Q 264.172329 49.952455 265.132835 51.932164 C 265.41565 52.513803 266.221408 52.583173 266.594938 52.054895 Q 266.845736 51.708046 267.000484 51.270482 Q 269.284353 44.920473 271.109314 39.418911 Q 271.205364 39.13076 271.301415 39.413575 L 276.424111 54.621579 Z" style="fill:#000000;"/>
		<path d="M 200.624216 40.155299 Q 199.791778 41.489334 199.850476 43.687825 Q 199.669047 41.788158 199.909173 40.58219 Q 199.994552 40.160635 200.624216 40.155299 Z" style="fill:#aeaeaf;"/>
		<path d="M 203.681826 42.967446 L 203.591111 63.415541 Q 202.918757 52.972711 203.681826 42.967446 Z" style="fill:#aeaeaf;"/>
		<path d="M 252.384792 52.68456 L 248.63882 52.801955 L 250.469117 48.212873 Q 250.581176 47.930057 250.634537 48.228881 Q 251.01874 50.539431 252.384792 52.68456 Z" style="fill:#000000;"/>
		<path d="M 260.794551 52.359055 Q 267.608805 52.455106 270.335573 53.138132 Q 273.409191 53.911872 276.424111 54.621579 Q 277.912894 55.272589 279.006803 56.68133 Q 280.111385 59.589527 281.434748 62.604447 Q 281.893656 63.644995 282.224497 64.824282 Q 282.544665 65.982225 282.902187 67.086806 Q 282.405926 67.476345 281.397395 67.652438 Q 280.639663 64.194618 278.772013 59.62688 Q 278.243735 58.34087 277.651423 57.919315 Q 276.472136 57.086877 274.097553 56.990826 Q 273.766712 56.980154 273.889443 57.28965 Q 274.166923 57.972676 274.305662 58.725072 Q 275.04205 62.636464 275.591673 66.937395 Q 275.634362 67.252227 275.949194 67.252227 L 279.535081 67.246891 Q 279.833905 67.246891 279.919284 67.529706 Q 280.719705 70.149752 280.794411 72.118788 Q 281.018529 77.999216 280.687688 84.194477 C 280.677016 84.386578 280.538276 84.546662 280.351511 84.584015 L 267.390023 87.182717 Q 266.77103 87.305448 266.765694 86.675783 L 266.552248 70.336517 L 279.41235 69.995004 Q 279.721846 69.984331 279.764536 69.680171 Q 279.876595 68.901095 278.825375 68.71433 C 278.782685 68.708994 278.739996 68.703657 278.702643 68.703657 L 266.402836 68.634288 Q 265.794516 67.422983 268.33452 67.460336 Q 270.773137 67.497689 273.201081 67.364286 C 273.622636 67.337605 273.926796 66.953403 273.857427 66.54252 L 272.283265 57.134902 C 272.219231 56.777381 271.920407 56.505237 271.557549 56.483893 L 266.120021 56.14238 Q 265.778508 56.121035 265.762499 56.462548 Q 265.570398 60.976924 265.170188 65.459283 Q 264.956742 67.817858 265.207541 70.646013 Q 265.570398 74.770851 265.335608 78.522158 Q 265.314264 78.927705 264.908717 78.927705 Q 260.474383 78.959722 255.895973 79.429302 Q 253.019793 79.72279 252.384792 82.390861 Q 251.669749 85.427126 251.547018 88.249945 C 251.536345 88.468727 251.354917 88.644819 251.130799 88.639483 Q 245.506505 88.53276 239.727464 87.892423 Q 238.654899 87.775028 238.660235 86.691791 Q 238.692252 81.21691 238.494815 75.405852 Q 238.44679 73.895723 238.089268 74.722825 Q 238.083932 74.402657 237.966537 74.109169 Q 237.875822 73.874379 237.619688 73.869043 Q 229.791568 73.735639 221.920758 73.484841 Q 220.99227 73.452824 220.0371 73.516857 Q 219.316721 73.570219 219.060586 73.885051 Q 218.676384 74.359968 219.252687 75.181734 Q 219.12462 78.938377 219.05525 82.732374 Q 219.023233 84.429267 219.407436 85.320403 Q 219.56752 85.512504 219.380755 86.232883 L 211.557971 85.773975 C 211.243139 85.757967 210.987004 85.507168 210.960323 85.192336 Q 210.448054 79.178504 211.595324 73.452824 Q 212.240997 73.810345 213.068099 72.844503 Q 213.249528 72.631058 213.516335 72.561688 Q 216.029658 71.900006 218.542981 71.435762 Q 220.901555 70.992862 223.574962 71.024879 Q 235.261113 71.142274 246.696465 68.468867 Q 246.861885 68.426178 246.941927 68.282102 Q 246.984616 68.191388 247.086003 68.186052 Q 248.16924 68.13269 249.364536 67.812522 Q 250.373066 67.545715 251.707102 67.401639 Q 253.073154 67.252227 254.353828 66.61189 L 261.984511 66.659915 Q 262.326024 66.665251 262.363377 66.323738 L 263.409261 56.302464 C 263.425269 56.174396 263.334555 56.057001 263.206488 56.040993 Q 260.43703 55.662127 257.267362 55.640782 Q 246.200204 55.582085 237.080737 56.996162 C 235.933467 57.172255 234.204557 57.465743 233.63359 58.613013 Q 231.435099 63.004658 230.944174 67.086806 C 230.906821 67.38563 231.162956 67.636429 231.46178 67.59374 Q 239.215194 66.499831 247.107348 66.643907 Q 237.646368 67.956598 228.196061 69.306641 Q 226.899379 69.493406 225.602696 69.685508 Q 224.359375 69.866936 222.998659 69.856264 Q 219.658234 69.829583 216.339154 70.027021 Q 218.382896 69.327986 220.581387 69.050507 Q 224.423409 68.564918 228.366818 68.148699 C 228.686986 68.111346 228.943121 67.876555 229.001819 67.561723 Q 229.252617 66.184999 229.487407 64.658862 C 229.860937 62.220245 231.536486 57.620491 234.039136 56.3078 C 236.152249 55.203219 238.233344 54.584226 240.730658 54.248049 Q 243.334695 53.895864 245.709279 53.394267 L 248.63882 52.801955 L 252.384792 52.68456 L 260.794551 52.359055 Z" style="fill:#fc941a;"/>
		<path d="M 254.353828 66.61189 L 247.107348 66.643907 Q 239.215194 66.499831 231.46178 67.59374 C 231.162956 67.636429 230.906821 67.38563 230.944174 67.086806 Q 231.435099 63.004658 233.63359 58.613013 C 234.204557 57.465743 235.933467 57.172255 237.080737 56.996162 Q 246.200204 55.582085 257.267362 55.640782 Q 260.43703 55.662127 263.206488 56.040993 C 263.334555 56.057001 263.425269 56.174396 263.409261 56.302464 L 262.363377 66.323738 Q 262.326024 66.665251 261.984511 66.659915 L 254.353828 66.61189 Z" style="fill:#000000;"/>
		<path d="M 272.053811 66.819999 L 269.807295 66.787983 C 269.460446 66.782646 269.161622 66.526512 269.10826 66.179662 L 269.001538 65.528653 C 268.932168 65.112434 269.236328 64.722896 269.663219 64.696215 L 271.760323 64.546803 C 272.0965 64.525458 272.40066 64.733568 272.49671 65.053736 L 272.752845 65.891511 C 272.896921 66.355755 272.544736 66.830672 272.053811 66.819999 Z" style="fill:#fcc57f;"/>
		<path d="M 254.353828 66.61189 Q 253.073154 67.252227 251.707102 67.401639 Q 250.373066 67.545715 249.364536 67.812522 Q 248.16924 68.13269 247.086003 68.186052 Q 246.984616 68.191388 246.941927 68.282102 Q 246.861885 68.426178 246.696465 68.468867 Q 235.261113 71.142274 223.574962 71.024879 Q 220.901555 70.992862 218.542981 71.435762 Q 216.029658 71.900006 213.516335 72.561688 Q 213.249528 72.631058 213.068099 72.844503 Q 212.240997 73.810345 211.595324 73.452824 Q 213.222847 70.763408 216.339154 70.027021 Q 219.658234 69.829583 222.998659 69.856264 Q 224.359375 69.866936 225.602696 69.685508 Q 226.899379 69.493406 228.196061 69.306641 Q 237.646368 67.956598 247.107348 66.643907 L 254.353828 66.61189 Z" style="fill:#fcc57f;"/>
		<path d="M 282.902187 67.086806 L 294.166782 67.583068 Q 294.438926 67.59374 294.534976 67.849875 Q 294.711069 68.3408 294.583001 68.997145 L 281.669538 69.071851 L 281.397395 67.652438 Q 282.405926 67.476345 282.902187 67.086806 Z" style="fill:#fcc57f;"/>
		<path d="M 242.646333 73.01526 Q 241.701836 73.340765 240.709314 73.607572 Q 240.351792 73.703622 240.319775 73.335429 Q 240.282422 72.839167 240.746667 72.57236 Q 242.822426 71.377064 245.298396 70.453912 Q 247.470205 69.648155 250.042226 69.4187 Q 254.359164 69.034498 258.526691 68.50622 Q 261.237451 68.164707 263.916194 68.420842 C 264.225691 68.452859 264.50317 68.628951 264.657918 68.901095 Q 265.143507 69.738869 264.369766 69.882945 C 262.918336 70.149752 261.530939 70.597988 260.074172 70.694038 Q 256.205469 70.944837 252.251388 71.200972 Q 250.394411 71.323703 248.40403 71.713241 Q 246.434994 72.097444 244.546 72.492318 Q 243.596166 72.689755 242.646333 73.01526 Z" style="fill:#fcc57f;"/>
		<path d="M 266.552248 70.336517 L 266.402836 68.634288 L 278.702643 68.703657 C 278.739996 68.703657 278.782685 68.708994 278.825375 68.71433 Q 279.876595 68.901095 279.764536 69.680171 Q 279.721846 69.984331 279.41235 69.995004 L 266.552248 70.336517 Z" style="fill:#fcc57f;"/>
		<path d="M 281.669538 69.071851 L 294.583001 68.997145 L 294.246824 80.549892 Q 294.209471 81.862583 292.896781 81.937289 L 292.075015 81.985314 Q 290.735643 82.06002 290.869047 80.725985 L 291.541401 74.215892 Q 291.616107 73.522193 290.917072 73.490177 Q 290.260726 73.45816 289.529675 73.69295 C 287.411227 74.365304 285.970468 75.389843 285.71967 77.796443 Q 285.378157 81.104851 285.100677 84.530654 Q 285.047316 85.149646 284.428323 85.181663 Q 283.521179 85.235025 282.710086 85.010907 Q 282.235169 84.877503 282.235169 84.386578 Q 282.197816 78.965058 282.203152 73.799673 Q 282.208489 72.209503 281.669538 69.071851 Z" style="fill:#fc941a;"/>
		<path d="M 280.203913 72.019269 C 280.260797 72.518999 279.673821 72.993915 278.894478 73.078974 C 278.115668 73.164672 277.437978 72.833831 277.382802 72.335702 C 277.325919 71.835973 277.912894 71.361056 278.692238 71.275998 C 279.471048 71.1903 280.148738 71.52114 280.203913 72.019269 Z" style="fill:#ffffff;"/>
		<path d="M 238.089268 74.722825 Q 238.110613 75.133708 237.998554 75.336482 Q 237.891831 75.528583 237.512965 75.496566 C 231.53115 75.037658 225.357234 75.267112 219.252687 75.181734 Q 218.676384 74.359968 219.060586 73.885051 Q 219.316721 73.570219 220.0371 73.516857 Q 220.99227 73.452824 221.920758 73.484841 Q 229.791568 73.735639 237.619688 73.869043 Q 237.875822 73.874379 237.966537 74.109169 Q 238.083932 74.402657 238.089268 74.722825 Z" style="fill:#ffffff;"/>
		<path d="M 212.993393 83.399392 C 212.619863 83.404728 212.310367 83.105904 212.305031 82.727038 L 212.251669 78.431444 C 212.235661 77.01203 213.046755 75.854087 214.060622 75.838079 L 215.992305 75.816734 C 217.011508 75.806062 217.849282 76.94266 217.865291 78.36741 L 217.918652 82.663004 C 217.923988 83.036534 217.625164 83.340694 217.251634 83.346031 L 212.993393 83.399392 Z" style="fill:#ffffff;"/>
		<path d="M 237.412592 78.132246 C 237.411578 78.207326 237.347544 78.27136 237.270224 78.267304 L 220.040409 77.816133 C 219.962394 77.812452 219.903697 77.748418 219.905351 77.673765 L 219.929364 76.756269 C 219.930378 76.681189 219.994411 76.617156 220.071732 76.621211 L 237.301547 77.072382 C 237.379561 77.076064 237.438259 77.140098 237.436605 77.21475 L 237.412592 78.132246 Z" style="fill:#ffffff;"/>
		<path d="M 239.748808 84.786789 L 240.004943 78.388755 C 240.026288 77.796443 240.517213 77.332199 241.109524 77.342871 L 245.938733 77.422913 C 246.5097 77.433585 246.97928 77.887157 247.005961 78.458125 L 247.32613 85.133638 C 247.358146 85.779311 246.819196 86.312925 246.168187 86.270236 L 240.768011 85.918051 C 240.1757 85.880698 239.727464 85.379101 239.748808 84.786789 Z" style="fill:#ffffff;"/>
		<path d="M 217.080878 79.098462 L 217.096886 80.533884 C 217.107558 81.243591 216.48323 81.798549 215.778859 81.707835 L 214.829026 81.59044 C 214.252723 81.515734 213.815159 81.030145 213.804487 80.448506 L 213.77247 79.034428 C 213.756461 78.330057 214.364782 77.769762 215.069152 77.844468 L 216.029658 77.945855 C 216.62197 78.004553 217.075542 78.500814 217.080878 79.098462 Z" style="fill:#000000;"/>
		<path d="M 245.26878 83.664492 C 245.271715 83.746241 245.207681 83.810275 245.128013 83.811769 L 242.023179 83.882259 C 241.941962 83.884981 241.877929 83.820947 241.875848 83.741492 L 241.774141 79.260254 C 241.771206 79.178504 241.83524 79.11447 241.914908 79.112976 L 245.019742 79.042486 C 245.100958 79.039764 245.164992 79.103798 245.167073 79.183253 L 245.26878 83.664492 Z" style="fill:#000000;"/>
		<path d="M 237.353094 80.878865 C 237.347544 81.072834 237.18746 81.222246 236.994345 81.213441 L 220.057058 80.621984 C 219.866344 80.613926 219.716932 80.453842 219.722535 80.263235 L 219.743399 79.66596 C 219.748949 79.471992 219.909033 79.32258 220.102148 79.331384 L 237.039436 79.922842 C 237.230149 79.9309 237.379561 80.090984 237.373958 80.281591 L 237.353094 80.878865 Z" style="fill:#ffffff;"/>
		<path d="M 216.215516 80.460565 C 216.099028 80.838044 215.629447 81.030145 215.160134 80.88719 C 214.690286 80.74733 214.407471 80.325774 214.520437 79.945521 C 214.636925 79.568042 215.106505 79.375941 215.575819 79.518896 C 216.045666 79.658757 216.328482 80.080312 216.215516 80.460565 Z" style="fill:#14a6d9;"/>
		<path d="M 237.374812 83.733168 C 237.363553 84.007712 237.128763 84.221158 236.857366 84.207337 L 220.107164 83.476019 C 219.834327 83.463426 219.620881 83.233972 219.633048 82.958573 L 219.646975 82.638725 C 219.658234 82.36418 219.893025 82.150735 220.164421 82.164555 L 236.914623 82.895874 C 237.18746 82.908467 237.400906 83.137921 237.388739 83.413319 L 237.374812 83.733168 Z" style="fill:#ffffff;"/>
		<path d="M 219.380755 86.232883 Q 219.56752 85.512504 219.407436 85.320403 Q 219.978403 85.016243 220.17584 85.026915 Q 228.350809 85.384437 236.915317 85.864689 Q 237.480948 85.896706 237.507629 86.462337 L 237.518301 86.750489 Q 237.550318 87.422843 236.877964 87.374818 L 219.380755 86.232883 Z" style="fill:#ffffff;"/>
		<path d="M 262.929008 88.6715 Q 261.909805 90.128267 260.922619 91.627723 Q 260.517072 92.241379 260.383669 94.663987 Q 260.244929 97.257352 260.100853 99.925423 Q 260.079508 100.341642 259.663289 100.282945 C 259.433835 100.250928 259.24707 100.074835 259.209717 99.845381 Q 258.33459 94.626634 259.289759 89.829443 Q 259.791357 87.300112 262.005856 87.17738 Q 263.115773 87.118683 263.211824 88.223264 Q 263.259849 88.762214 262.929008 88.6715 Z" style="fill:#ffffff;"/>
		<path d="M 277.710121 89.599989 Q 273.953477 89.354526 268.361201 90.037552 Q 268.233133 90.048225 268.254478 89.925493 L 268.281158 89.786754 C 268.302503 89.637342 268.414562 89.519947 268.563974 89.493266 Q 274.236293 88.399357 280.346175 87.502885 Q 281.114579 87.390826 281.744244 87.636289 C 282.032396 87.748348 282.26185 87.977802 282.368573 88.265953 Q 282.747439 89.269148 282.582018 90.181628 C 282.533993 90.459108 282.245841 90.624528 281.979034 90.533814 Q 279.684493 89.733392 277.710121 89.599989 Z" style="fill:#ffffff;"/>
		<path d="M 246.669784 106.456861 L 200.031905 100.93929 Q 201.654092 96.366217 201.910227 91.675748 Q 201.979596 90.411082 202.145017 89.18377 Q 202.177034 88.932971 202.433169 88.954316 L 247.224743 92.609573 Q 247.950458 92.673606 247.939786 93.399322 Q 247.838399 100.368323 246.669784 106.456861 Z" style="fill:#fc941a;"/>
		<path d="M 237.982545 119.124861 Q 238.686916 119.183559 239.273892 118.708642 C 247.128692 112.353297 254.78072 106.611609 263.601362 102.241309 Q 275.047386 96.56899 287.47526 92.774993 Q 290.794341 91.766462 294.252161 91.248857 Q 294.641699 91.190159 294.513632 91.563689 Q 289.044086 107.673501 277.507348 120.522931 C 269.583177 129.354245 260.853249 137.075642 251.002731 144.620947 C 250.389075 145.090527 249.727393 145.33599 249.023023 144.834393 Q 242.363518 140.122579 232.902538 131.691475 Q 224.412737 124.124826 218.340207 116.419437 Q 216.387179 113.943468 214.797009 111.355439 Q 214.5889 111.019262 214.983774 111.072623 L 239.914229 114.333006 C 240.127674 114.359687 240.303767 114.519771 240.346456 114.733217 Q 240.399817 114.962671 240.277086 115.17078 Q 239.012421 117.257212 237.843806 118.815365 Q 237.635696 119.092845 237.982545 119.124861 Z" style="fill:#ffffff;"/>
		<path d="M 200.031905 100.93929 L 246.669784 106.456861 L 246.200204 109.589176 Q 246.157514 109.871991 245.880035 109.941361 Q 244.924866 110.181488 243.969696 110.058756 Q 220.672101 107.081189 198.020179 104.503833 Q 197.417195 104.434463 197.780053 103.948874 L 200.031905 100.93929 Z" style="fill:#ffffff;"/>
	</g>
	<g id="surface4">
	</g>
</svg>
