<?xml version="1.0" encoding="utf-8"?>
<svg xmlns="http://www.w3.org/2000/svg" width="490pt" height="280pt" viewBox="0 0 490 280" version="1.1" xmlns:xlink="http://www.w3.org/1999/xlink">
	<g id="surface2">
		<path d="M 179.535273 77.654287 Q 174.652448 77.20369 170.187449 77.416699 Q 168.99132 77.474048 169.220715 76.302498 Q 171.957063 61.989922 181.337658 49.217566 C 199.746564 24.172606 232.66467 11.203626 263.157748 18.298469 Q 289.792084 24.500312 307.299797 45.514484 Q 323.521263 64.980242 326.151107 89.664725 C 326.175685 89.910505 325.987254 90.131707 325.741474 90.148092 Q 316.647622 90.746156 308.004366 92.024211 Q 280.747388 96.038614 258.60263 110.629741 Q 258.35685 110.793594 258.086492 110.703475 C 257.83252 110.621548 257.750593 110.293842 257.947217 110.105411 C 260.388629 107.778695 262.698959 105.85342 263.477262 102.346962 Q 265.56639 92.941789 259.430088 87.043074 Q 254.416181 82.233983 247.97675 82.037359 C 240.865522 81.82435 233.582248 86.96934 232.123954 94.006835 C 232.074798 94.252615 231.80444 94.375505 231.583239 94.252615 Q 207.283811 80.243167 179.535273 77.654287 Z M 264.845436 102.437081 C 264.599656 103.706944 264.001592 104.952228 263.239675 105.97631 C 263.141363 106.107393 263.297023 106.279439 263.444491 106.197512 Q 274.906022 99.758082 286.261048 95.915725 Q 287.686571 95.432358 288.989204 95.088266 Q 290.85713 94.596706 292.995414 93.851174 Q 299.778936 91.499881 310.38843 90.402065 Q 316.754126 89.738459 323.922704 89.214129 Q 324.840281 89.148588 324.692814 88.239203 Q 324.029208 84.118295 323.218135 79.669681 Q 322.497181 75.688048 321.137199 71.81292 Q 315.459686 55.656996 304.383211 43.53186 Q 288.071626 25.680055 265.263262 19.830496 C 263.1004 19.281588 260.94573 19.191469 258.75829 18.650753 Q 256.480731 18.08546 253.941006 17.897028 Q 231.116257 16.201148 210.798462 25.950413 Q 206.448159 28.031348 201.778344 31.070825 Q 197.034794 34.151265 193.536528 37.592182 Q 190.988611 40.099136 188.252263 42.982952 Q 185.548685 45.825805 183.254741 48.971786 Q 180.469236 52.797758 178.314567 56.25506 Q 173.005724 64.816389 170.77732 75.425883 Q 170.670816 75.942021 171.186953 75.991177 C 175.88954 76.474544 180.428273 76.048525 185.204593 76.92514 Q 187.8754 77.408507 190.644519 77.916452 Q 192.49606 78.252351 194.28206 78.735718 C 197.329729 79.571369 200.295472 79.817149 203.343142 80.783883 C 206.751288 81.873506 210.405214 82.807469 213.600351 84.118295 Q 221.833974 87.477285 230.018441 92.130716 C 230.583734 92.45023 231.296496 92.220835 231.566853 91.639156 C 235.13066 84.069139 243.864035 78.932341 252.335245 81.537607 Q 261.486446 84.339497 264.5505 93.13022 Q 265.885904 96.956192 264.845436 102.437081 Z" style="fill:#010508;"/>
		<path d="M 264.845436 102.437081 Q 265.885904 96.956192 264.5505 93.13022 Q 261.486446 84.339497 252.335245 81.537607 C 243.864035 78.932341 235.13066 84.069139 231.566853 91.639156 C 231.296496 92.220835 230.583734 92.45023 230.018441 92.130716 Q 221.833974 87.477285 213.600351 84.118295 C 210.405214 82.807469 206.751288 81.873506 203.343142 80.783883 C 200.295472 79.817149 197.329729 79.571369 194.28206 78.735718 Q 192.49606 78.252351 190.644519 77.916452 Q 187.8754 77.408507 185.204593 76.92514 C 180.428273 76.048525 175.88954 76.474544 171.186953 75.991177 Q 170.670816 75.942021 170.77732 75.425883 Q 173.005724 64.816389 178.314567 56.25506 Q 180.469236 52.797758 183.254741 48.971786 Q 185.548685 45.825805 188.252263 42.982952 Q 190.988611 40.099136 193.536528 37.592182 Q 197.034794 34.151265 201.778344 31.070825 Q 206.448159 28.031348 210.798462 25.950413 Q 231.116257 16.201148 253.941006 17.897028 Q 256.480731 18.08546 258.75829 18.650753 C 260.94573 19.191469 263.1004 19.281588 265.263262 19.830496 Q 288.071626 25.680055 304.383211 43.53186 Q 315.459686 55.656996 321.137199 71.81292 Q 322.497181 75.688048 323.218135 79.669681 Q 324.029208 84.118295 324.692814 88.239203 Q 324.840281 89.148588 323.922704 89.214129 Q 316.754126 89.738459 310.38843 90.402065 Q 299.778936 91.499881 292.995414 93.851174 Q 290.85713 94.596706 288.989204 95.088266 Q 287.686571 95.432358 286.261048 95.915725 Q 274.906022 99.758082 263.444491 106.197512 C 263.297023 106.279439 263.141363 106.107393 263.239675 105.97631 C 264.001592 104.952228 264.599656 103.706944 264.845436 102.437081 Z M 254.932318 41.393576 C 254.932318 37.149778 251.491401 33.708861 247.247604 33.708861 C 243.003806 33.708861 239.562889 37.149778 239.562889 41.393576 C 239.562889 45.637373 243.003806 49.07829 247.247604 49.07829 C 251.491401 49.07829 254.932318 45.637373 254.932318 41.393576 Z M 235.278702 69.703638 C 238.096403 68.17538 239.046751 64.472298 237.400682 61.438474 C 235.753302 58.401537 232.132147 57.189023 229.313299 58.716627 C 226.495597 60.244885 225.545249 63.947967 227.191318 66.981791 C 228.838698 70.018728 232.459853 71.231242 235.278702 69.703638 Z M 294.037848 70.215106 C 295.461405 65.856857 292.970836 61.129692 288.473312 59.656488 C 283.975296 58.188528 279.174398 60.531628 277.746909 64.890369 C 276.323352 69.248618 278.813921 73.975782 283.311445 75.448987 C 287.809461 76.916947 292.610359 74.573847 294.037848 70.215106 Z" style="fill:#13314a;"/>
		<path d="M 254.932318 41.393576 C 254.932318 45.637373 251.491401 49.07829 247.247604 49.07829 C 243.003806 49.07829 239.562889 45.637373 239.562889 41.393576 C 239.562889 37.149778 243.003806 33.708861 247.247604 33.708861 C 251.491401 33.708861 254.932318 37.149778 254.932318 41.393576 Z M 253.850887 41.418154 C 253.850887 37.788806 250.909722 34.847641 247.280374 34.847641 C 243.651026 34.847641 240.709861 37.788806 240.709861 41.418154 C 240.709861 45.047502 243.651026 47.988667 247.280374 47.988667 C 250.909722 47.988667 253.850887 45.047502 253.850887 41.418154 Z" style="fill:#010508;"/>
		<path d="M 235.278702 69.703638 C 232.459853 71.231242 228.838698 70.018728 227.191318 66.981791 C 225.545249 63.947967 226.495597 60.244885 229.313299 58.716627 C 232.132147 57.189023 235.753302 58.401537 237.400682 61.438474 C 239.046751 64.472298 238.096403 68.17538 235.278702 69.703638 Z M 235.183421 68.564777 C 237.457376 67.077563 238.014476 63.907004 236.425592 61.485745 C 234.843917 59.065142 231.714321 58.303225 229.44135 59.789947 C 227.167395 61.27716 226.610294 64.44772 228.199179 66.868978 C 229.780854 69.289581 232.91045 70.051499 235.183421 68.564777 Z" style="fill:#010508;"/>
		<path d="M 294.037848 70.215106 C 292.610359 74.573847 287.809461 76.916947 283.311445 75.448987 C 278.813921 73.975782 276.323352 69.248618 277.746909 64.890369 C 279.174398 60.531628 283.975296 58.188528 288.473312 59.656488 C 292.970836 61.129692 295.461405 65.856857 294.037848 70.215106 Z M 293.216616 67.601893 C 293.216616 63.546527 289.923167 60.253078 285.8678 60.253078 C 281.812434 60.253078 278.518985 63.546527 278.518985 67.601893 C 278.518985 71.65726 281.812434 74.950709 285.8678 74.950709 C 289.923167 74.950709 293.216616 71.65726 293.216616 67.601893 Z" style="fill:#010508;"/>
		<path d="M 189.046951 115.848465 C 179.502502 115.520759 169.867935 115.905814 160.757698 118.035905 C 160.167826 118.166988 159.569762 117.839281 159.373138 117.265795 Q 154.965487 104.395127 156.317276 90.287367 Q 156.358239 89.812193 156.382817 89.328826 C 156.497515 87.223313 159.455065 87.239698 160.954321 87.125001 Q 178.502998 85.732249 195.535537 89.607377 C 217.459094 94.588514 238.907476 104.460668 255.694235 118.904327 Q 256.751089 119.813712 258.029143 120.215153 Q 258.38962 120.321657 258.717327 120.116841 C 270.441023 112.464897 284.507819 107.459182 297.706193 104.100191 Q 314.075127 99.93832 333.426189 99.946513 C 333.827629 99.946513 334.155335 100.266027 334.163528 100.667467 L 334.245454 106.803769 Q 334.253647 107.459182 333.598234 107.442796 Q 317.548814 107.016778 302.916725 109.572888 Q 279.256324 113.701988 258.217575 126.359647 Q 254.375217 128.669977 250.524667 131.217894 C 250.213346 131.422711 249.820099 131.455481 249.4842 131.299821 C 248.214337 130.718142 247.157484 129.923454 245.838466 129.366353 C 227.380404 121.534171 208.463554 116.503878 189.046951 115.848465 Z M 278.404288 114.668722 Q 282.852902 113.226814 287.326094 111.719365 Q 291.070139 110.465888 296.215129 109.474576 Q 306.791853 107.434604 316.541117 106.213897 Q 321.628759 105.57487 331.754886 106.279439 Q 333.12306 106.369558 333.032941 105.001384 L 332.852702 102.068412 C 332.828124 101.666971 332.492225 101.35565 332.090785 101.372036 Q 323.103438 101.707935 315.115595 102.994182 C 313.34598 103.280925 311.641907 103.190806 309.847715 103.436586 Q 304.415981 104.182118 299.287377 105.2062 Q 294.109616 106.246668 289.128479 108.106402 Q 281.066902 111.121301 273.980251 114.226318 Q 269.990426 115.979548 266.787096 118.05229 Q 263.411721 120.231538 259.667675 122.042116 C 258.954914 122.386207 258.11107 122.255125 257.537584 121.706217 Q 250.467319 114.930887 240.709861 109.220604 Q 237.776889 107.508338 234.557174 105.591255 Q 229.043514 102.314192 222.071561 99.364834 Q 206.898756 92.949982 192.020886 90.115322 Q 183.754493 88.542331 176.741576 88.362093 Q 166.869422 88.116313 158.865193 88.59968 C 158.234358 88.640643 157.734606 89.140395 157.693643 89.77123 Q 157.013652 100.02844 158.897964 110.228301 Q 159.34856 112.66152 160.192404 115.209438 Q 160.716734 116.798814 162.347074 116.405566 Q 167.950853 115.037392 173.45632 114.685107 Q 184.631107 113.964153 196.666124 114.840768 Q 210.503526 115.848465 227.79823 121.394895 Q 239.095907 125.007858 249.492392 129.816949 C 250.049493 130.070922 250.696713 130.029959 251.212851 129.710445 Q 256.087483 126.662776 260.355859 123.68884 Q 266.18084 119.625281 276.167692 115.487988 Q 276.642866 115.291364 277.093462 115.258594 Q 277.593214 115.234016 277.970077 114.906309 C 278.101159 114.799805 278.248627 114.717878 278.404288 114.668722 Z" style="fill:#010508;"/>
		<path d="M 277.970077 114.906309 Q 277.593214 115.234016 277.093462 115.258594 Q 276.642866 115.291364 276.167692 115.487988 Q 266.18084 119.625281 260.355859 123.68884 Q 256.087483 126.662776 251.212851 129.710445 C 250.696713 130.029959 250.049493 130.070922 249.492392 129.816949 Q 239.095907 125.007858 227.79823 121.394895 Q 210.503526 115.848465 196.666124 114.840768 Q 184.631107 113.964153 173.45632 114.685107 Q 167.950853 115.037392 162.347074 116.405566 Q 160.716734 116.798814 160.192404 115.209438 Q 159.34856 112.66152 158.897964 110.228301 Q 157.013652 100.02844 157.693643 89.77123 C 157.734606 89.140395 158.234358 88.640643 158.865193 88.59968 Q 166.869422 88.116313 176.741576 88.362093 Q 183.754493 88.542331 192.020886 90.115322 Q 206.898756 92.949982 222.071561 99.364834 Q 229.043514 102.314192 234.557174 105.591255 Q 237.776889 107.508338 240.709861 109.220604 Q 250.467319 114.930887 257.537584 121.706217 C 258.11107 122.255125 258.954914 122.386207 259.667675 122.042116 Q 263.411721 120.231538 266.787096 118.05229 Q 269.990426 115.979548 273.980251 114.226318 Q 281.066902 111.121301 289.128479 108.106402 Q 294.109616 106.246668 299.287377 105.2062 Q 304.415981 104.182118 309.847715 103.436586 C 311.641907 103.190806 313.34598 103.280925 315.115595 102.994182 Q 323.103438 101.707935 332.090785 101.372036 C 332.492225 101.35565 332.828124 101.666971 332.852702 102.068412 L 333.032941 105.001384 Q 333.12306 106.369558 331.754886 106.279439 Q 321.628759 105.57487 316.541117 106.213897 Q 306.791853 107.434604 296.215129 109.474576 Q 291.070139 110.465888 287.326094 111.719365 Q 282.852902 113.226814 278.404288 114.668722 C 278.248627 114.717878 278.101159 114.799805 277.970077 114.906309 Z" style="fill:#13314a;"/>
		<path d="M 331.689345 118.797822 C 329.321666 133.372564 323.496685 146.693828 314.148861 157.966927 Q 311.289623 161.42423 307.160522 164.283468 C 306.931128 164.439128 306.636192 164.41455 306.439568 164.234312 Q 288.538607 147.554057 265.345188 137.419737 Q 263.092207 136.436618 260.806455 135.879517 Q 259.667675 135.592774 260.683565 135.002903 C 278.445251 124.663767 298.55823 118.838786 318.712172 117.929401 Q 325.102446 117.642657 331.197785 118.17518 C 331.509106 118.199758 331.738501 118.486501 331.689345 118.797822 Z M 303.056 159.425221 C 304.063697 160.211716 305.218862 161.784707 306.988476 162.358193 C 307.267027 162.448312 307.578348 162.390963 307.807742 162.210725 Q 310.453971 160.097019 312.723338 157.491753 C 317.417732 152.092791 320.514557 146.742984 323.685116 140.639453 C 327.003143 134.232793 329.125042 127.088794 330.53418 119.944795 C 330.640684 119.43685 330.263822 118.94529 329.739492 118.91252 C 327.593015 118.781437 325.471116 119.19107 323.300061 119.158299 Q 314.312714 119.03541 307.660274 120.149611 Q 301.27 121.231042 294.765028 122.754877 Q 286.277433 124.745693 277.691526 128.104684 Q 274.955178 129.177922 271.350408 131.070426 Q 269.990426 131.783188 268.384665 132.4386 Q 267.032876 132.987509 265.377959 133.675692 Q 264.083519 134.2246 263.034858 134.847242 Q 262.559684 135.125793 263.067629 135.330609 C 264.845436 136.051563 266.508546 136.706976 268.384665 137.198536 Q 271.555224 138.025994 274.455426 140.22982 C 276.536361 141.811003 279.14982 142.761351 281.591232 144.268801 Q 289.988708 149.487525 297.976551 155.29612 C 299.623276 156.492249 301.343734 158.114395 303.056 159.425221 Z" style="fill:#010508;"/>
		<path d="M 303.056 159.425221 C 301.343734 158.114395 299.623276 156.492249 297.976551 155.29612 Q 289.988708 149.487525 281.591232 144.268801 C 279.14982 142.761351 276.536361 141.811003 274.455426 140.22982 Q 271.555224 138.025994 268.384665 137.198536 C 266.508546 136.706976 264.845436 136.051563 263.067629 135.330609 Q 262.559684 135.125793 263.034858 134.847242 Q 264.083519 134.2246 265.377959 133.675692 Q 267.032876 132.987509 268.384665 132.4386 Q 269.990426 131.783188 271.350408 131.070426 Q 274.955178 129.177922 277.691526 128.104684 Q 286.277433 124.745693 294.765028 122.754877 Q 301.27 121.231042 307.660274 120.149611 Q 314.312714 119.03541 323.300061 119.158299 C 325.471116 119.19107 327.593015 118.781437 329.739492 118.91252 C 330.263822 118.94529 330.640684 119.43685 330.53418 119.944795 C 329.125042 127.088794 327.003143 134.232793 323.685116 140.639453 C 320.514557 146.742984 317.417732 152.092791 312.723338 157.491753 Q 310.453971 160.097019 307.807742 162.210725 C 307.578348 162.390963 307.267027 162.448312 306.988476 162.358193 C 305.218862 161.784707 304.063697 160.211716 303.056 159.425221 Z" style="fill:#13314a;"/>
	</g>
	<g id="surface4">
	</g>
</svg>
