<?xml version="1.0" encoding="utf-8"?>
<svg xmlns="http://www.w3.org/2000/svg" width="490pt" height="280pt" viewBox="0 0 490 280" version="1.1" xmlns:xlink="http://www.w3.org/1999/xlink">
	<g id="surface2">
		<path d="M 250.351418 14.51326 C 250.415393 17.645395 247.870763 20.243784 244.66547 20.309729 C 241.459909 20.378184 238.807759 17.891794 238.741814 14.756433 C 238.67784 11.624299 241.22247 9.025909 244.427762 8.959964 C 247.633324 8.89151 250.285473 11.3779 250.351418 14.51326 Z" style="fill:#f69330;"/>
		<path d="M 212.814904 99.754504 Q 213.218102 99.248266 212.608825 99.463305 Q 204.414938 102.334974 196.848248 104.982643 Q 195.132415 105.578481 193.219463 106.053359 C 193.085063 106.084719 192.955144 105.990639 192.941704 105.85176 Q 192.766985 103.454969 191.987468 101.197058 C 191.956108 101.111939 192.000908 101.017859 192.086027 100.986499 L 212.859704 93.536289 C 213.025463 93.478049 213.132983 93.32125 213.132983 93.146531 L 213.079223 71.346939 Q 213.074743 71.158779 212.900024 71.09158 Q 211.999547 70.751101 211.027391 70.477822 Q 203.89078 68.45735 196.37785 66.02024 Q 194.375298 65.370643 192.489226 64.591126 C 192.305546 64.514966 192.198027 64.322327 192.238347 64.125208 Q 192.699785 61.809057 192.695305 59.524266 C 192.695305 59.425706 192.793864 59.354027 192.887944 59.380907 Q 202.183907 62.180895 211.614269 64.989844 Q 212.519225 65.263123 213.455541 65.294483 C 213.81842 65.307923 214.158899 65.110804 214.329138 64.788245 Q 215.117615 63.305371 213.8901 62.113696 Q 205.346774 53.812289 196.749689 44.668646 C 196.47193 44.372967 196.48089 43.907049 196.772088 43.62481 L 199.056879 41.393779 C 199.415278 41.04434 199.984236 41.04434 200.342634 41.393779 L 219.548317 59.994664 C 219.790236 60.227623 220.162074 60.258983 220.439833 60.070824 Q 222.684304 58.55211 225.103494 57.172276 Q 233.422821 52.423495 239.896395 48.346711 Q 240.640072 47.876313 241.545028 46.948957 Q 241.701828 46.787677 241.715268 46.563678 Q 241.755587 45.797601 241.760067 45.053924 Q 241.818307 35.435403 241.760067 25.601843 Q 241.755587 24.190648 241.854147 22.654014 C 241.863107 22.506175 241.997507 22.398655 242.145346 22.416575 Q 244.452537 22.707774 246.553648 22.591295 Q 246.943407 22.568895 246.943407 22.958653 L 246.898607 46.371039 C 246.898607 46.751837 247.077806 47.105756 247.382445 47.329755 Q 248.59652 48.221272 249.886755 49.009748 Q 258.990078 54.564926 268.926678 60.075304 C 269.083478 60.160424 269.280597 60.138024 269.410516 60.017064 Q 278.007602 51.984456 286.461328 43.790569 Q 287.863562 42.428655 289.404676 41.12946 C 289.660035 40.914421 290.036353 40.932341 290.264832 41.17426 L 292.706422 43.75025 C 292.809462 43.857769 292.818422 44.023528 292.728822 44.144488 Q 292.159865 44.910565 291.501307 45.604962 Q 283.513499 54.067648 275.194173 62.395935 C 274.728255 62.861853 273.998018 63.713049 274.347456 64.425366 C 274.593855 64.927124 274.965694 65.428882 275.592891 65.393042 Q 276.641207 65.339283 277.662643 65.030164 Q 286.604687 62.342175 295.949929 59.188267 Q 296.294888 59.071788 296.321768 59.430186 L 296.657767 64.192407 C 296.675686 64.452246 296.514407 64.694165 296.268008 64.774805 C 289.301636 67.095436 282.707103 68.954628 275.93785 71.07814 C 275.731771 71.140859 275.588411 71.333499 275.588411 71.553018 L 275.597371 92.962852 C 275.597371 93.30333 275.81241 93.607969 276.130489 93.724448 Q 286.380688 97.438354 296.756326 100.7401 Q 297.258084 100.8969 297.155045 101.416578 L 296.276968 105.74872 C 296.227688 106.004079 295.972329 106.165358 295.72145 106.107119 Q 292.899062 105.457521 290.332032 104.539125 Q 283.974938 102.267774 276.883126 99.664905 Q 274.997054 98.970507 276.376888 100.430981 L 293.804018 118.812348 C 294.001137 119.018427 293.996657 119.345465 293.799538 119.551545 C 292.908022 120.478901 291.904506 121.621296 290.76211 122.248494 Q 290.542591 122.369453 290.336512 122.230574 Q 289.637635 121.764656 288.947718 121.079218 C 280.713511 112.885331 273.3529 105.121523 265.584612 97.124755 C 265.427812 96.963475 265.176933 96.927636 264.984294 97.044115 L 247.449645 107.267434 C 247.131566 107.451113 246.934447 107.791592 246.934447 108.15895 L 246.894127 141.897695 C 246.894127 142.094814 246.732847 142.256093 246.531248 142.256093 L 242.266305 142.274013 C 241.988547 142.274013 241.760067 142.045534 241.760067 141.767775 L 241.809347 107.885671 Q 241.809347 107.410793 241.401669 107.177834 L 223.858059 97.241234 Q 223.436941 97.003795 223.100943 97.348754 L 199.276398 121.885615 Q 198.671601 122.503853 198.030963 121.925935 L 195.190655 119.381305 C 195.047295 119.255866 195.029375 119.031867 195.150335 118.884027 Q 195.714813 118.20307 196.31961 117.540033 Q 202.143587 111.214298 208.993479 104.135927 Q 210.897472 102.169214 212.814904 99.754504 Z M 244.873655 102.375294 C 250.074914 99.167627 255.491212 96.183959 260.611832 93.27645 Q 261.194229 92.944932 261.695987 92.474533 Q 261.861747 92.322214 261.866227 92.098215 C 262.014066 83.953608 262.094706 75.95684 261.978226 68.193031 C 261.946866 66.338319 262.802543 65.254163 264.012138 64.022168 Q 264.218217 63.807129 263.980778 63.62793 Q 263.50142 63.269531 262.968302 62.982812 Q 253.372181 57.844273 244.367417 52.083016 Q 244.215098 51.988936 244.067258 52.087496 Q 235.653852 57.669554 225.824772 63.000732 Q 225.457413 63.202331 225.107974 63.46217 Q 224.561417 63.874329 225.107974 64.290967 C 226.357889 65.245203 226.846207 66.315919 226.841727 67.807753 Q 226.792448 80.392022 226.805888 92.281894 C 226.805888 92.514853 226.931327 92.734372 227.137406 92.846372 L 244.179258 102.366334 C 244.407737 102.491773 244.676536 102.496253 244.873655 102.375294 Z M 268.56828 67.225355 Q 267.757403 67.655433 267.703643 68.56935 Q 267.649883 69.496706 267.640923 70.441982 Q 267.560284 81.077459 267.582684 90.74526 Q 267.582684 91.376938 268.044122 91.811496 L 269.961554 93.616929 Q 270.422992 94.051487 270.418512 93.41981 Q 270.391632 81.946576 270.387152 70.589822 Q 270.387152 68.990468 270.190033 67.265675 Q 270.091473 66.418958 269.338836 66.817677 L 268.56828 67.225355 Z M 220.108315 67.202955 Q 219.991835 67.149195 219.947035 67.126795 Q 218.616481 66.535438 218.598561 67.991432 Q 218.428321 81.951056 218.585121 93.151011 Q 218.594081 93.791648 219.073439 93.36605 L 220.731032 91.892136 C 221.102871 91.565097 221.31791 91.090219 221.32239 90.592941 L 221.452309 69.281667 C 221.456789 68.38567 220.928151 67.565834 220.108315 67.202955 Z" style="fill:#1d3c54;"/>
		<path d="M 196.840229 32.690339 C 198.94936 35.099404 198.653681 38.808829 196.182254 40.970958 C 193.707781 43.136492 189.998356 42.934893 187.887343 40.527978 C 185.778213 38.118912 186.073892 34.409487 188.545318 32.247358 C 191.019792 30.081825 194.729217 30.283424 196.840229 32.690339 Z" style="fill:#f69330;"/>
		<path d="M 303.005901 36.582278 C 303.005901 39.798905 300.398551 42.406255 297.181924 42.406255 C 293.965297 42.406255 291.357948 39.798905 291.357948 36.582278 C 291.357948 33.365651 293.965297 30.758302 297.181924 30.758302 C 300.398551 30.758302 303.005901 33.365651 303.005901 36.582278 Z" style="fill:#f69330;"/>
		<path d="M 190.388114 60.765221 C 190.388114 63.910168 187.839004 66.459278 184.694057 66.459278 C 181.54911 66.459278 179 63.910168 179 60.765221 C 179 57.620274 181.54911 55.071164 184.694057 55.071164 C 187.839004 55.071164 190.388114 57.620274 190.388114 60.765221 Z" style="fill:#f69330;"/>
		<path d="M 310.527791 60.774181 C 310.527791 63.937048 307.965241 66.499598 304.802374 66.499598 C 301.639507 66.499598 299.076957 63.937048 299.076957 60.774181 C 299.076957 57.611314 301.639507 55.048764 304.802374 55.048764 C 307.965241 55.048764 310.527791 57.611314 310.527791 60.774181 Z" style="fill:#f69330;"/>
		<path d="M 257.356318 79.11003 C 256.915846 86.130879 250.791711 91.462058 243.679381 91.015807 C 236.567768 90.570541 231.16043 84.513606 231.602515 77.489711 C 232.042987 70.468862 238.167122 65.137683 245.279452 65.583934 C 252.391065 66.0292 257.798403 72.086136 257.356318 79.11003 Z M 251.463395 79.647718 C 252.202905 75.84932 249.685156 72.162295 245.843257 71.417453 C 242.001986 70.670461 238.288081 73.143411 237.549198 76.943063 C 236.809687 80.741461 239.327437 84.428486 243.169335 85.173328 C 247.010606 85.92032 250.724511 83.44737 251.463395 79.647718 Z" style="fill:#1d3c54;"/>
		<path d="M 190.432914 106.640236 C 190.432914 109.780704 187.888284 112.325334 184.747817 112.325334 C 181.60735 112.325334 179.06272 109.780704 179.06272 106.640236 C 179.06272 103.499769 181.60735 100.955139 184.747817 100.955139 C 187.888284 100.955139 190.432914 103.499769 190.432914 106.640236 Z" style="fill:#f69330;"/>
		<path d="M 310.59947 106.671596 C 310.59947 109.852384 308.023481 112.428373 304.842694 112.428373 C 301.661906 112.428373 299.085917 109.852384 299.085917 106.671596 C 299.085917 103.490809 301.661906 100.91482 304.842694 100.91482 C 308.023481 100.91482 310.59947 103.490809 310.59947 106.671596 Z" style="fill:#f69330;"/>
		<path d="M 198.277362 127.772311 C 198.277362 131.011338 195.647613 133.641088 192.408586 133.641088 C 189.169559 133.641088 186.53981 131.011338 186.53981 127.772311 C 186.53981 124.533284 189.169559 121.903535 192.408586 121.903535 C 195.647613 121.903535 198.277362 124.533284 198.277362 127.772311 Z" style="fill:#f69330;"/>
		<path d="M 302.867022 127.727512 C 302.867022 130.948619 300.255192 133.560448 297.034085 133.560448 C 293.812978 133.560448 291.201149 130.948619 291.201149 127.727512 C 291.201149 124.506405 293.812978 121.894575 297.034085 121.894575 C 300.255192 121.894575 302.867022 124.506405 302.867022 127.727512 Z" style="fill:#f69330;"/>
		<path d="M 245.516488 156.875215 C 242.369345 157.425312 239.354317 155.243561 238.790915 152.005116 C 238.225362 148.765507 240.321993 145.692239 243.469225 145.144741 C 246.616368 144.594644 249.631396 146.776395 250.194798 150.01484 C 250.760351 153.254449 248.66372 156.327717 245.516488 156.875215 Z" style="fill:#f69330;"/>
	</g>
	<g id="surface4">
	</g>
</svg>
