<?xml version="1.0" encoding="utf-8"?>
<svg xmlns="http://www.w3.org/2000/svg" width="490pt" height="280pt" viewBox="0 0 490 280" version="1.1" xmlns:xlink="http://www.w3.org/1999/xlink">
	<g id="surface2">
		<path d="M 296.955322 30.460836 Q 296.12187 31.000767 295.589186 30.047734 Q 295.306537 29.540415 295.215945 29.236025 L 295.150718 9.091867 C 295.147095 8.925177 295.016641 8.794724 294.849951 8.7911 L 228.626804 8.715002 Q 228.188336 8.715002 228.173842 8.272911 L 228.155723 7.758345 Q 228.141228 7.334372 228.565201 7.334372 L 296.864729 7.247403 C 297.013301 7.247403 297.136507 7.370609 297.136507 7.522805 L 296.955322 30.460836 Z" style="fill:#6097b8;"/>
		<path d="M 295.215945 29.236025 Q 295.306537 29.540415 295.589186 30.047734 Q 296.12187 31.000767 296.955322 30.460836 Q 296.962569 30.982649 297.082151 31.185576 Q 297.488006 31.881327 299.216511 34.396176 Q 302.97429 39.875212 304.18823 45.977526 Q 306.786424 59.008357 300.658745 70.176605 Q 299.466547 72.347203 297.752536 74.88017 Q 297.56048 75.166442 297.324939 75.96728 L 297.314068 75.782472 Q 297.29595 75.488952 297.143754 75.753482 Q 297.078528 75.86944 296.940827 75.847698 Q 296.795879 75.822332 296.661802 75.891183 Q 296.371906 76.047002 296.255947 76.333274 Q 296.187097 76.499965 296.038525 76.605052 Q 295.208697 77.206586 295.176084 77.655925 Q 289.073771 83.569806 281.656053 85.580961 Q 270.748712 88.534278 259.924715 85.153364 C 259.620324 85.059148 259.290567 85.182354 259.131124 85.457755 Q 253.626722 94.690947 246.9881 102.891383 Q 246.861271 103.043579 247.053327 103.402325 C 245.94085 102.851523 244.719663 101.949221 243.929696 101.467269 Q 241.01624 99.684407 238.135397 97.843567 Q 237.76578 97.608026 237.504873 97.263775 L 250.46323 79.580111 C 250.542952 79.475024 250.517586 79.322828 250.405251 79.24673 C 242.828091 74.021353 238.476025 64.715687 238.059299 55.649186 Q 237.501249 43.477172 244.759524 33.638822 Q 245.592975 32.508227 246.676462 31.406622 C 247.589635 30.478954 248.459323 29.478813 249.419604 28.601877 Q 252.568601 25.735529 257.134465 23.448973 Q 267.856998 18.082271 279.572425 20.868898 Q 284.895643 22.133569 289.341925 24.902077 Q 292.128551 26.634207 295.215945 29.236025 Z M 262.14242 24.757129 C 259.942833 25.565215 257.833839 26.456645 256.029236 27.81191 C 254.054318 29.29038 251.959819 30.674634 250.216818 32.395892 Q 244.995064 37.548796 242.820843 44.364979 Q 241.882305 47.307424 241.5453 50.757188 Q 241.233662 53.993154 241.483697 57.174764 Q 242.059866 64.404049 246.219875 70.401275 Q 251.535846 78.054533 260.326946 81.547781 Q 265.458107 83.584301 270.005853 83.743744 C 281.724904 84.145975 292.124927 78.467635 297.607588 68.259667 C 299.542645 64.65046 300.959512 60.671636 301.325506 56.522498 Q 302.209689 46.430489 297.419155 37.806079 C 290.544994 25.420267 275.238478 19.944854 262.14242 24.757129 Z" style="fill:#949595;"/>
		<path d="M 262.14242 24.757129 C 275.238478 19.944854 290.544994 25.420267 297.419155 37.806079 Q 302.209689 46.430489 301.325506 56.522498 C 300.959512 60.671636 299.542645 64.65046 297.607588 68.259667 C 292.124927 78.467635 281.724904 84.145975 270.005853 83.743744 Q 265.458107 83.584301 260.326946 81.547781 Q 251.535846 78.054533 246.219875 70.401275 Q 242.059866 64.404049 241.483697 57.174764 Q 241.233662 53.993154 241.5453 50.757188 Q 241.882305 47.307424 242.820843 44.364979 Q 244.995064 37.548796 250.216818 32.395892 C 251.959819 30.674634 254.054318 29.29038 256.029236 27.81191 C 257.833839 26.456645 259.942833 25.565215 262.14242 24.757129 Z M 285.768955 77.362406 Q 291.092172 74.010482 294.61441 68.632908 Q 296.813997 65.520149 297.908355 61.849339 C 302.010385 48.130005 296.21971 33.461261 282.862746 27.456787 L 277.510539 25.822498 Q 267.904106 23.84758 259.174609 28.228635 C 254.626863 30.511568 250.49222 34.660706 247.865036 38.875071 Q 242.378752 47.673418 243.987675 58.490168 C 244.879106 64.480146 247.528032 68.955418 251.619191 73.220515 C 256.724986 78.543732 264.635527 81.504296 271.774219 81.475307 Q 279.025246 81.449941 285.768955 77.362406 Z" style="fill:#243f52;"/>
		<path d="M 277.510539 25.822498 Q 276.329212 26.347934 275.9451 26.362429 Q 272.393872 26.474764 270.505924 26.782779 Q 265.189953 27.648843 260.866877 30.464459 Q 257.620041 32.580701 255.398712 35.323843 Q 252.347555 39.096117 250.901698 42.795916 C 247.444687 51.655866 248.694864 60.468709 253.86951 68.314023 C 256.482198 72.271105 260.457399 75.630276 265.066748 77.224705 Q 273.151226 80.022203 280.880581 78.13063 Q 282.065532 77.840734 283.127276 77.395019 Q 284.131042 76.974669 285.120312 76.496341 Q 285.315992 76.402125 285.272508 76.612299 Q 285.142054 77.257318 285.768955 77.362406 Q 279.025246 81.449941 271.774219 81.475307 C 264.635527 81.504296 256.724986 78.543732 251.619191 73.220515 C 247.528032 68.955418 244.879106 64.480146 243.987675 58.490168 Q 242.378752 47.673418 247.865036 38.875071 C 250.49222 34.660706 254.626863 30.511568 259.174609 28.228635 Q 267.904106 23.84758 277.510539 25.822498 Z" style="fill:#95c9d6;"/>
		<path d="M 277.510539 25.822498 L 282.862746 27.456787 Q 282.496752 28.003966 281.924207 27.815534 Q 280.351521 27.286473 279.108591 27.014695 Q 277.894651 26.746542 276.253114 26.971211 Q 272.745371 27.453163 269.976863 28.130796 Q 264.903681 29.373725 260.624089 33.008298 Q 259.38116 34.066419 257.841087 35.943496 Q 256.185055 37.961898 255.315367 39.407755 Q 252.612085 43.890274 252.028669 49.909242 Q 251.409016 56.337689 253.920241 61.968921 C 259.377536 74.206161 272.640284 79.696069 285.152926 74.709856 Q 286.062475 74.347486 287.051745 73.800307 Q 287.968542 73.289365 288.816488 72.869016 Q 290.21886 72.169641 291.175518 71.183994 Q 292.5489 69.767127 293.831691 68.317646 C 294.070855 68.049492 294.51657 68.165451 294.592668 68.51695 Q 294.607163 68.571305 294.61441 68.632908 Q 291.092172 74.010482 285.768955 77.362406 Q 285.142054 77.257318 285.272508 76.612299 Q 285.315992 76.402125 285.120312 76.496341 Q 284.131042 76.974669 283.127276 77.395019 Q 282.065532 77.840734 280.880581 78.13063 Q 273.151226 80.022203 265.066748 77.224705 C 260.457399 75.630276 256.482198 72.271105 253.86951 68.314023 C 248.694864 60.468709 247.444687 51.655866 250.901698 42.795916 Q 252.347555 39.096117 255.398712 35.323843 Q 257.620041 32.580701 260.866877 30.464459 Q 265.189953 27.648843 270.505924 26.782779 Q 272.393872 26.474764 275.9451 26.362429 Q 276.329212 26.347934 277.510539 25.822498 Z" style="fill:#cfeaf3;"/>
		<path d="M 282.862746 27.456787 C 296.21971 33.461261 302.010385 48.130005 297.908355 61.849339 Q 296.813997 65.520149 294.61441 68.632908 Q 294.607163 68.571305 294.592668 68.51695 C 294.51657 68.165451 294.070855 68.049492 293.831691 68.317646 Q 292.5489 69.767127 291.175518 71.183994 Q 290.21886 72.169641 288.816488 72.869016 Q 287.968542 73.289365 287.051745 73.800307 Q 286.062475 74.347486 285.152926 74.709856 C 272.640284 79.696069 259.377536 74.206161 253.920241 61.968921 Q 251.409016 56.337689 252.028669 49.909242 Q 252.612085 43.890274 255.315367 39.407755 Q 256.185055 37.961898 257.841087 35.943496 Q 259.38116 34.066419 260.624089 33.008298 Q 264.903681 29.373725 269.976863 28.130796 Q 272.745371 27.453163 276.253114 26.971211 Q 277.894651 26.746542 279.108591 27.014695 Q 280.351521 27.286473 281.924207 27.815534 Q 282.496752 28.003966 282.862746 27.456787 Z" style="fill:#addbe4;"/>
		<path d="M 216.845208 41.325853 C 216.84615 41.571105 216.643223 41.770408 216.398732 41.770807 L 199.345628 41.74102 C 199.100884 41.741419 198.90158 41.542115 198.900674 41.294544 L 198.902522 40.24367 C 198.90158 39.998418 199.104507 39.799115 199.348998 39.798716 L 216.402102 39.828503 C 216.646847 39.828104 216.84615 40.027408 216.847056 40.274979 L 216.845208 41.325853 Z" style="fill:#6097b8;"/>
		<path d="M 234.29489 48.43599 C 234.294274 48.735163 234.051486 48.981575 233.752276 48.980487 L 199.29091 49.040641 C 198.992172 49.039554 198.745761 48.796766 198.746413 48.498028 L 198.745145 47.780535 C 198.745761 47.481362 198.988549 47.23495 199.287758 47.236038 L 233.749124 47.175884 C 234.047862 47.176971 234.294274 47.419759 234.293621 47.718497 L 234.29489 48.43599 Z" style="fill:#e3f0f8;"/>
		<path d="M 198.669663 52.90242 C 198.669663 52.656008 198.87259 52.453081 199.119002 52.453081 L 231.489528 52.340746 C 233.025978 52.333499 234.268908 52.547297 234.268908 52.819075 L 234.272531 53.862701 C 234.276155 54.130855 233.033225 54.355524 231.496776 54.362771 L 199.126249 54.475106 C 198.879838 54.475106 198.67691 54.275803 198.67691 54.025767 L 198.669663 52.90242 Z" style="fill:#e3f0f8;"/>
		<path d="M 234.210675 58.695124 C 234.210928 59.156929 233.834063 59.53017 233.372114 59.53075 L 199.490576 59.471611 C 199.02841 59.472191 198.655168 59.095326 198.654951 58.633086 L 198.655422 58.357685 C 198.655168 57.895881 199.032033 57.522639 199.493983 57.522059 L 233.37552 57.581198 C 233.837687 57.580618 234.210928 57.957483 234.211146 58.419723 L 234.210675 58.695124 Z" style="fill:#e3f0f8;"/>
		<path d="M 234.239374 63.884265 C 234.239918 64.215616 233.971764 64.480146 233.640449 64.481125 L 199.302289 64.421189 C 198.97043 64.422167 198.7059 64.154013 198.705429 63.822227 L 198.706444 63.249682 C 198.7059 62.918331 198.974054 62.653801 199.305369 62.652822 L 233.643529 62.712758 C 233.975388 62.71178 234.239918 62.979934 234.240389 63.31172 L 234.239374 63.884265 Z" style="fill:#e3f0f8;"/>
		<path d="M 234.18241 68.880987 C 234.181939 69.248938 233.888419 69.546081 233.520432 69.545284 L 199.377988 69.604858 C 199.010291 69.60406 198.713147 69.310541 198.713691 68.94288 L 198.712676 68.35584 C 198.713147 67.987889 199.006667 67.690746 199.374654 67.691543 L 233.517098 67.63197 C 233.884795 67.632767 234.181939 67.926287 234.181395 68.293947 L 234.18241 68.880987 Z" style="fill:#e3f0f8;"/>
		<path d="M 234.240244 73.656953 C 234.239918 74.050342 233.921032 74.372852 233.527607 74.372055 L 199.406905 74.431628 C 199.013915 74.430831 198.691405 74.111945 198.691768 73.718991 L 198.691079 73.320384 C 198.691405 72.926995 199.010291 72.604485 199.403716 72.605283 L 233.524418 72.545709 C 233.917409 72.546506 234.239918 72.865392 234.239556 73.258346 L 234.240244 73.656953 Z" style="fill:#e3f0f8;"/>
		<path d="M 297.324939 75.96728 C 297.285078 77.822616 297.136507 79.761296 297.14013 81.533286 Q 297.172744 110.50478 297.064033 139.555996 Q 297.064033 139.85314 296.774137 139.802408 C 295.589186 139.592233 294.371622 139.744429 293.150435 139.72631 Q 285.508048 139.610352 277.666358 139.617599 Q 252.985326 139.635718 228.050636 139.548749 Q 227.782482 139.548749 227.749868 139.280595 Q 227.70276 138.900106 227.822342 138.461638 Q 227.905688 138.15 228.228197 138.15 L 294.973157 138.131881 C 295.121729 138.131881 295.244934 138.008676 295.244934 137.860104 L 295.176084 77.655925 Q 295.208697 77.206586 296.038525 76.605052 Q 296.187097 76.499965 296.255947 76.333274 Q 296.371906 76.047002 296.661802 75.891183 Q 296.795879 75.822332 296.940827 75.847698 Q 297.078528 75.86944 297.143754 75.753482 Q 297.29595 75.488952 297.314068 75.782472 L 297.324939 75.96728 Z" style="fill:#6097b8;"/>
		<path d="M 203.315249 79.311957 Q 201.807789 79.351818 199.129873 79.094535 Q 198.488478 79.032932 198.604436 78.398784 L 198.669663 78.03279 Q 198.792869 77.351534 199.484996 77.355158 Q 202.065071 77.3769 204.474833 77.380524 C 205.605428 77.384148 206.707033 77.387771 207.772401 77.395019 Q 218.824691 77.478364 233.77246 77.485611 Q 234.294274 77.485611 234.337758 78.007424 Q 234.366748 78.333558 234.294274 78.666938 Q 234.185562 79.181504 233.660126 79.192375 Q 225.379968 79.337323 217.567267 79.257601 C 216.320714 79.24673 215.161129 79.37356 213.972555 79.333699 C 212.783981 79.293838 211.617149 79.40255 210.450317 79.301086 Q 209.906762 79.253978 209.334217 79.30471 Q 208.783414 79.355441 208.210869 79.337323 Q 205.659783 79.253978 203.315249 79.311957 Z" style="fill:#e3f0f8;"/>
		<path d="M 234.406608 83.508203 C 234.406608 83.957542 234.040614 84.323536 233.591275 84.323536 L 199.441511 84.323536 C 198.992172 84.323536 198.626179 83.957542 198.626179 83.508203 L 198.626179 83.218307 C 198.626179 82.768968 198.992172 82.402974 199.441511 82.402974 L 233.591275 82.402974 C 234.040614 82.402974 234.406608 82.768968 234.406608 83.218307 L 234.406608 83.508203 Z" style="fill:#e3f0f8;"/>
		<path d="M 234.373995 88.530654 C 234.373995 89.056091 233.946398 89.483687 233.420961 89.483687 L 199.604578 89.483687 C 199.079141 89.483687 198.651545 89.056091 198.651545 88.530654 L 198.651545 88.342221 C 198.651545 87.816785 199.079141 87.389188 199.604578 87.389188 L 233.420961 87.389188 C 233.946398 87.389188 234.373995 87.816785 234.373995 88.342221 L 234.373995 88.530654 Z" style="fill:#e3f0f8;"/>
		<path d="M 285.171044 89.458321 L 259.591334 89.418461 Q 259.044155 89.418461 258.96081 88.878529 Q 258.881089 88.396577 259.471752 87.961733 C 259.638443 87.838527 259.84137 87.7733 260.051545 87.776924 C 263.142562 87.834903 266.248074 88.06682 269.407942 88.026959 Q 277.097437 87.925496 285.330487 87.458038 Q 286.207423 87.41093 286.182057 88.287866 L 286.174809 88.490793 Q 286.142196 89.458321 285.171044 89.458321 Z" style="fill:#e3f0f8;"/>
		<path d="M 234.334134 93.437146 C 234.116712 94.372061 232.844793 94.36119 232.069321 94.375685 Q 225.553905 94.480772 219.005876 94.582236 Q 218.889918 94.582236 218.788454 94.647462 Q 218.734099 94.683699 218.690614 94.683699 Q 213.392763 94.683699 208.094911 94.683699 C 207.852123 94.683699 207.638325 94.564117 207.366547 94.582236 Q 203.539918 94.832271 199.282069 94.386556 Q 198.397885 94.292339 198.658792 93.44077 L 198.720395 93.24509 Q 198.919698 92.600071 199.597331 92.592823 C 206.304802 92.53122 213.00865 92.375401 219.683509 92.484112 Q 224.644356 92.563834 229.742904 92.596447 Q 231.920749 92.610942 233.852182 92.774008 C 234.181939 92.802998 234.410232 93.114636 234.334134 93.437146 Z" style="fill:#e3f0f8;"/>
		<path d="M 286.192928 93.621592 C 286.192928 94.049551 285.848676 94.397427 285.418797 94.398405 L 257.494624 94.447144 C 257.065614 94.448159 256.717739 94.100283 256.717775 93.673049 L 256.717739 93.644059 C 256.717739 93.2161 257.061991 92.868225 257.49187 92.867246 L 285.416042 92.818508 C 285.845053 92.817493 286.192928 93.165368 286.192892 93.592603 L 286.192928 93.621592 Z" style="fill:#e3f0f8;"/>
		<path d="M 237.504873 97.263775 Q 237.76578 97.608026 238.135397 97.843567 Q 241.01624 99.684407 243.929696 101.467269 C 244.719663 101.949221 245.94085 102.851523 247.053327 103.402325 L 247.567892 103.688598 C 247.890402 103.869783 247.991866 104.290132 247.781691 104.594523 L 244.07102 110.001086 Q 243.607187 109.84889 243.498476 109.78004 Q 236.501108 105.504072 229.489245 100.8911 L 232.960751 95.54614 C 233.199916 95.180146 233.681868 95.060564 234.062357 95.28161 L 237.504873 97.263775 Z" style="fill:#243f52;"/>
		<path d="M 213.171717 99.619181 Q 206.18522 99.684407 199.542975 99.503222 Q 198.691405 99.48148 198.63705 98.62991 Q 198.629802 98.466844 198.673287 98.307401 Q 198.83273 97.713114 199.448759 97.662382 C 202.441936 97.41597 205.326403 97.568166 208.363065 97.524681 Q 213.146351 97.455831 217.980369 97.597155 C 221.035149 97.687748 224.013832 97.821825 227.119344 97.600779 Q 227.869451 97.550047 228.496351 97.90517 Q 228.615933 97.977644 228.659418 98.111721 Q 228.858721 98.771235 228.427501 99.18796 Q 228.115862 99.485104 227.615791 99.488728 Q 220.357517 99.553954 213.171717 99.619181 Z" style="fill:#e3f0f8;"/>
		<path d="M 273.658544 99.60831 Q 269.734075 99.561202 266.161105 99.575696 Q 260.805274 99.601062 255.192161 99.463362 Q 254.32972 99.441619 253.648464 99.311166 C 253.394805 99.260434 253.220867 99.028517 253.246233 98.774858 C 253.373062 97.492068 255.021847 97.687748 255.90603 97.673253 Q 265.269675 97.539176 274.930463 97.568166 C 278.47082 97.579037 282.04379 97.803706 285.605888 97.760222 Q 286.258155 97.752974 286.28352 98.405241 L 286.290768 98.571931 Q 286.327005 99.499599 285.395714 99.503222 Q 282.532989 99.506846 279.503575 99.575696 Q 276.550258 99.644547 273.658544 99.60831 Z" style="fill:#e3f0f8;"/>
		<path d="M 229.489245 100.8911 Q 236.501108 105.504072 243.498476 109.78004 Q 243.607187 109.84889 244.07102 110.001086 L 241.360492 114.10674 Q 234.145702 109.758298 227.206313 104.935151 Q 226.927288 104.743095 226.564918 105.141702 Q 226.644639 104.500307 227.025128 104.058215 Q 228.557954 102.289849 229.489245 100.8911 Z" style="fill:#e3f0f8;"/>
		<path d="M 222.974228 104.145764 C 222.97383 104.489436 222.698428 104.764837 222.355662 104.766504 L 199.359652 104.806655 C 199.017538 104.808321 198.738513 104.529296 198.738948 104.188089 L 198.738115 103.724255 C 198.738513 103.380583 199.013915 103.105182 199.356681 103.103515 L 222.352691 103.063364 C 222.694805 103.061697 222.97383 103.340722 222.973395 103.68193 L 222.974228 104.145764 Z" style="fill:#e3f0f8;"/>
		<path d="M 286.142196 104.185045 C 286.142196 104.543791 285.8523 104.833687 285.493553 104.833687 L 251.785881 104.833687 C 251.427135 104.833687 251.137239 104.543791 251.137239 104.185045 L 251.137239 103.764695 C 251.137239 103.405949 251.427135 103.116053 251.785881 103.116053 L 285.493553 103.116053 C 285.8523 103.116053 286.142196 103.405949 286.142196 103.764695 L 286.142196 104.185045 Z" style="fill:#e3f0f8;"/>
		<path d="M 241.360492 114.10674 Q 236.834488 120.741737 232.330227 127.394854 Q 231.786672 128.199315 231.282977 129.058133 C 230.714056 130.029285 229.880605 130.862736 229.246457 131.833888 Q 221.814245 143.186945 215.606844 152.177349 C 211.225789 158.518827 200.57573 154.279096 199.492243 147.593366 Q 199.046528 144.846601 200.74242 142.367989 Q 201.633851 141.06708 202.655735 139.613975 L 203.304377 138.494252 L 208.910244 130.337299 Q 208.834146 129.855347 209.388572 129.398761 Q 209.794427 129.123359 210.490178 128.105099 Q 215.469144 120.785222 224.474042 108.029792 Q 226.079342 105.750484 226.564918 105.141702 Q 226.927288 104.743095 227.206313 104.935151 Q 234.145702 109.758298 241.360492 114.10674 Z" style="fill:#243f52;"/>
		<path d="M 221.04602 109.71119 C 221.04602 109.982967 220.828598 110.204013 220.556821 110.204013 L 200.332942 110.24025 C 199.416146 110.24025 198.673287 109.895999 198.673287 109.472025 L 198.673287 108.812512 C 198.673287 108.388539 199.412522 108.044287 200.325695 108.044287 L 220.549573 108.00805 C 220.824975 108.00805 221.04602 108.229096 221.04602 108.500873 L 221.04602 109.71119 Z" style="fill:#e3f0f8;"/>
		<path d="M 286.268663 109.346392 C 286.269026 109.830772 285.874042 110.222132 285.390206 110.221769 L 248.413991 110.157231 C 247.930263 110.156905 247.538903 109.761922 247.538613 109.278773 L 247.539265 108.894661 C 247.538903 108.410281 247.933886 108.018921 248.417723 108.019283 L 285.393938 108.083822 C 285.877666 108.084148 286.269026 108.479131 286.269316 108.962279 L 286.268663 109.346392 Z" style="fill:#e3f0f8;"/>
		<path d="M 216.469285 113.287783 C 216.737439 113.287783 216.958485 113.505205 216.958485 113.773359 L 216.958485 114.313291 C 216.958485 114.947439 216.411306 115.462004 215.733674 115.462004 L 199.898098 115.490994 C 199.216842 115.490994 198.666039 114.976428 198.666039 114.34228 L 198.666039 113.802349 C 198.666039 113.534195 198.879838 113.316773 199.147992 113.316773 L 216.469285 113.287783 Z" style="fill:#e3f0f8;"/>
		<path d="M 286.330629 114.599563 C 286.330629 115.103258 285.92115 115.512736 285.417456 115.512736 L 248.375978 115.512736 C 247.872283 115.512736 247.462805 115.103258 247.462805 114.599563 L 247.462805 114.208203 C 247.462805 113.704509 247.872283 113.295031 248.375978 113.295031 L 285.417456 113.295031 C 285.92115 113.295031 286.330629 113.704509 286.330629 114.208203 L 286.330629 114.599563 Z" style="fill:#e3f0f8;"/>
		<path d="M 286.174809 129.739389 C 286.174809 130.061898 285.910279 130.326428 285.58777 130.326428 L 231.971481 130.326428 C 231.648971 130.326428 231.384441 130.061898 231.384441 129.739389 L 231.384441 129.710399 C 231.384441 129.387889 231.648971 129.123359 231.971481 129.123359 L 285.58777 129.123359 C 285.910279 129.123359 286.174809 129.387889 286.174809 129.710399 L 286.174809 129.739389 Z" style="fill:#6097b8;"/>
		<path d="M 209.388572 129.398761 Q 208.834146 129.855347 208.910244 130.337299 L 199.481372 130.417021 Q 199.216842 130.417021 199.122626 130.170609 Q 199.006667 129.862594 199.071894 129.521966 Q 199.129873 129.228447 199.43064 129.23207 L 209.388572 129.398761 Z" style="fill:#6097b8;"/>
		<path d="M 203.304377 138.494252 L 202.655735 139.613975 L 185.403291 139.592233 Q 184.979318 139.592233 185.001061 139.16826 L 185.040921 138.490628 C 185.051792 138.294948 185.214859 138.139129 185.410539 138.146376 Q 192.781148 138.360175 200.028551 138.164495 Q 201.459913 138.124634 203.304377 138.494252 Z" style="fill:#6097b8;"/>
	</g>
	<g id="surface4">
	</g>
</svg>
