<?xml version="1.0" encoding="utf-8"?>
<svg xmlns="http://www.w3.org/2000/svg" width="490pt" height="280pt" viewBox="0 0 490 280" version="1.1" xmlns:xlink="http://www.w3.org/1999/xlink">
	<g id="surface2">
		<path d="M 264.806684 24.903264 Q 264.865121 29.808114 265.355996 34.779194 Q 265.387162 35.071381 265.098871 35.012943 Q 259.570688 33.906528 255.078796 33.423445 Q 241.595328 31.981988 229.759796 34.03509 Q 226.927527 34.525965 224.274467 34.973985 C 224.153696 34.99736 224.048509 34.896068 224.060197 34.775298 Q 224.531592 29.936677 224.562759 24.895473 Q 224.562759 24.353952 224.239405 24.786389 C 221.983719 27.766699 219.700763 31.943029 219.139763 35.807693 C 219.089117 36.166109 218.824201 36.454401 218.46968 36.540109 C 214.94785 37.393296 211.344207 38.230899 207.834064 39.282773 Q 202.905839 40.755397 198.406155 42.052708 Q 198.269801 42.095563 198.265905 42.235812 Q 198.12176 46.478371 198.133447 50.837805 Q 198.16851 61.563026 202.668193 70.936393 Q 202.769485 71.146768 202.679881 71.357143 Q 201.799423 73.445307 201.729298 75.724368 C 201.491653 83.126445 204.456379 91.202501 208.28598 97.443621 C 212.886956 104.94699 218.489159 111.753005 224.609509 118.500583 Q 225.427633 119.404415 224.399134 118.74602 Q 221.009762 116.579939 217.896993 113.817795 Q 210.171562 106.953342 204.366775 98.951307 Q 197.502323 89.492232 195.028471 78.116408 Q 193.594805 71.516872 193.505201 63.713524 C 193.380534 52.228617 194.307742 40.615147 196.929636 29.313344 Q 199.602175 17.789478 203.16686 8.088861 Q 203.186339 8.03432 203.24088 8.049903 L 203.244776 8.053799 Q 203.291526 8.065486 203.279839 8.112236 Q 202.044861 13.66769 201.296861 19.312748 C 200.482633 25.472055 200.755341 31.732654 202.072131 37.79067 Q 202.177319 38.273753 202.656506 38.141295 C 206.209503 37.171233 209.922229 35.975213 213.662226 35.199943 Q 213.934934 35.141506 214.063496 34.896068 C 216.412682 30.353531 219.089117 26.235638 221.266886 22.386558 Q 225.022467 15.744168 226.323674 7.964195 Q 226.331465 7.936924 226.304195 7.944716 Q 226.276924 7.948612 226.319778 7.94082 Q 226.366528 7.933028 226.366528 7.979778 Q 226.358736 9.791339 226.350945 11.552254 C 226.311986 17.840124 227.192444 24.221494 228.594943 30.785968 C 228.637797 30.996343 228.836484 31.136592 229.046859 31.109322 Q 231.54019 30.813239 234.16598 30.51326 Q 243.967888 29.391261 253.080235 30.318468 Q 256.489086 30.665197 260.373229 31.093738 Q 260.622562 31.121009 260.673208 30.875572 Q 263.131477 19.643894 262.944477 8.451174 C 262.944477 8.443382 262.952269 8.43559 262.96006 8.431695 C 262.967852 8.431695 262.979539 8.439486 262.979539 8.447278 Q 263.376914 10.325068 263.789872 12.082087 C 265.11835 17.742728 267.709077 22.219037 270.84522 27.042075 C 272.364594 29.383469 273.767093 31.997571 275.060509 34.506485 C 275.220238 34.822048 275.508529 35.051902 275.851362 35.141506 L 286.876561 38.090649 C 287.114207 38.152982 287.351853 38.004941 287.398603 37.763399 Q 288.134914 33.879257 288.267373 30.022385 Q 288.645268 18.907582 285.964937 8.12782 Q 285.797416 7.469424 286.054541 8.100549 Q 288.333602 13.66769 289.798434 19.242623 C 292.159307 28.226407 294.703284 37.377712 295.369471 46.712121 C 295.922679 54.425865 296.421345 62.942149 295.614908 70.613039 C 294.637055 79.927969 291.672328 88.584503 286.670082 96.309934 Q 279.342026 107.635113 268.877826 115.781293 Q 267.151973 117.129251 264.779413 118.726541 Q 263.785976 119.396624 264.57683 118.496687 C 272.068511 109.929757 280.319879 100.926493 284.597501 90.473981 C 286.673978 85.397714 288.014144 79.585136 287.297311 74.146557 Q 287.118103 72.775225 286.537624 71.454538 C 286.467499 71.290913 286.475291 71.107809 286.560999 70.951976 Q 290.184121 64.336857 291.002245 56.358197 Q 291.645057 50.08591 290.967183 42.021542 Q 290.9516 41.818959 290.749016 41.78 C 289.050435 41.437167 287.328478 41.043688 285.680541 40.521647 Q 278.204443 38.160774 271.35947 36.621921 C 270.712762 36.477776 270.494596 36.255713 270.381617 35.577839 C 269.758284 31.857321 267.319494 27.74722 265.040434 24.821452 Q 264.802788 24.513681 264.806684 24.903264 Z" style="fill:#02294a;"/>
		<path d="M 259.43823 86.95215 C 256.247545 93.859457 251.342695 100.645993 245.163908 105.500198 C 244.922367 105.691093 244.587325 105.710572 244.326305 105.554739 Q 243.765305 105.215802 243.235472 104.763886 Q 240.839537 102.714679 238.802018 100.373285 C 230.020817 90.286981 225.096487 77.415158 224.177071 64.227773 Q 223.304405 51.710471 223.986176 38.558149 C 223.997863 38.328295 224.161488 38.133503 224.38355 38.078962 C 237.804685 34.85711 251.946548 34.685694 265.254704 38.215316 Q 265.410537 38.25817 265.418329 38.421795 Q 265.963745 51.246867 265.250808 63.616128 C 264.783309 71.727246 262.86656 79.53449 259.43823 86.95215 Z M 250.555737 48.773015 Q 245.043138 46.529017 239.588975 48.531474 Q 238.139727 49.065203 237.259269 50.17941 C 237.196936 50.257327 237.208623 50.374202 237.290436 50.436535 L 239.764288 52.357179 C 240.0331 52.567554 240.375933 52.668845 240.718766 52.641575 Q 244.653555 52.329908 248.331218 52.513012 C 249.850592 52.590929 251.147903 51.196222 251.919278 50.027473 C 251.993298 49.922285 251.981611 49.77814 251.892007 49.68464 Q 251.346591 49.096369 250.555737 48.773015 Z M 255.550191 52.236408 C 256.512461 54.484302 256.173524 57.562008 256.173524 59.996902 C 256.173524 60.433235 256.313774 60.861776 256.574795 61.212401 L 260.482312 66.499042 C 260.5875 66.643188 260.809562 66.612021 260.867999 66.444501 Q 261.167978 65.610793 261.206937 64.780981 Q 261.600416 57.047759 255.752775 52.088367 Q 255.335921 51.733846 255.550191 52.236408 Z M 232.627127 52.961033 C 229.783171 56.381572 228.228735 60.047548 228.509235 64.636836 Q 228.575464 65.677022 228.961151 66.561376 C 229.058547 66.787334 229.358525 66.826292 229.510463 66.631501 Q 231.692128 63.818711 233.262147 61.076047 C 233.421876 60.795547 233.566022 60.444922 233.515376 60.113777 Q 232.950481 56.404947 233.040085 53.116866 Q 233.055668 52.442887 232.627127 52.961033 Z M 239.962975 54.250552 C 238.455289 56.206259 237.399519 58.341174 236.620353 60.670881 Q 236.554124 60.873464 236.647624 61.064359 Q 236.974873 61.738338 237.528081 62.275963 Q 239.651309 64.325169 241.856348 66.351001 C 242.093994 66.573063 242.405661 66.693834 242.73291 66.689938 Q 244.887304 66.670459 246.967678 66.639292 C 247.863719 66.627605 248.518218 66.156209 249.164926 65.591314 Q 251.397236 63.635607 253.088027 61.414984 C 253.29061 61.146172 253.333464 60.791651 253.19711 60.483881 Q 251.81409 57.363321 249.694759 54.367427 Q 249.184405 53.638907 248.366281 53.568782 Q 245.717116 53.34672 241.661557 53.525928 C 241.010953 53.557095 240.379829 53.716824 239.962975 54.250552 Z M 253.606172 76.799617 C 256.976065 74.855598 258.744772 71.960996 259.586271 68.330083 Q 259.757688 67.578187 259.333042 66.935375 Q 257.529273 64.200503 255.608629 61.890275 C 255.277483 61.489005 254.661942 61.485109 254.323005 61.882484 Q 252.133548 64.438148 249.624634 66.869146 C 249.075322 67.402875 248.981822 68.100229 248.942863 68.817061 Q 248.825989 71.096122 248.748072 73.43362 C 248.697426 74.914035 251.962132 76.363284 253.10361 76.83468 C 253.267235 76.900909 253.454235 76.889221 253.606172 76.799617 Z M 231.692128 72.771329 Q 232.712835 75.116619 235.303562 76.289263 C 235.911312 76.565867 236.441145 77.02168 237.154082 76.713909 Q 239.101997 75.876305 240.964203 74.53614 C 241.158995 74.399786 241.271974 74.177724 241.271974 73.940078 L 241.268078 67.796354 C 241.268078 67.535333 241.155099 67.282104 240.960308 67.106792 Q 238.416331 64.796565 235.919103 62.225317 Q 235.541208 61.83963 235.023062 61.687692 Q 234.836063 61.633151 234.66075 61.730546 Q 233.982876 62.104546 233.562126 62.75515 Q 232.112877 64.995252 230.254566 67.208083 Q 230.055879 67.441833 230.110421 67.749604 Q 230.55065 70.153331 231.692128 72.771329 Z M 237.403415 77.913825 C 237.898185 78.891678 238.404643 79.931865 238.794226 80.99153 C 239.059142 81.704467 239.662996 82.086259 240.387621 82.242092 Q 244.150992 83.048529 248.311739 82.538175 C 249.051947 82.444675 249.760988 82.09405 250.201217 81.486301 Q 251.358278 79.885115 252.414048 78.042387 C 252.495861 77.898241 252.437423 77.715137 252.285486 77.645012 Q 249.916821 76.565867 247.996177 75.097139 C 247.820864 74.964681 247.606594 74.89066 247.388427 74.894556 Q 245.292471 74.921827 242.970556 75.062077 Q 242.203077 75.108827 241.599224 75.517889 Q 239.701954 76.795721 237.516394 77.621637 Q 237.294331 77.70345 237.403415 77.913825 Z" style="fill:#02294a;"/>
		<path d="M 245.050929 111.616651 Q 245.530116 111.30888 245.982033 110.958256 Q 254.521692 104.362615 260.743333 95.308706 Q 263.906747 90.707731 266.010495 84.976965 Q 269.458305 75.59191 270.44395 66.389959 Q 271.526991 56.291967 271.12572 46.174497 Q 270.997158 42.890312 270.451742 39.325627 C 270.440054 39.239919 270.514075 39.169794 270.595887 39.189273 Q 278.161589 40.872272 285.898708 43.533124 Q 286.444124 43.720124 286.475291 44.292811 Q 286.825916 50.448222 286.350624 56.210155 C 285.898708 61.714963 283.970272 66.923688 280.997754 71.715559 Q 278.029131 76.511326 274.409905 81.073343 Q 269.049243 87.828712 262.130248 96.738476 Q 258.87723 100.930389 257.229294 102.792596 Q 251.771236 108.967486 245.222346 113.919087 C 245.000283 114.086607 244.692513 114.090503 244.470451 113.922982 Q 236.180124 107.755883 229.253338 99.161682 Q 221.446095 89.476648 214.156996 80.099385 Q 210.950728 75.969805 208.554793 72.323308 Q 203.462943 64.570606 202.79286 54.979073 Q 202.442235 49.988514 202.777277 44.039582 C 202.785068 43.918811 202.859089 43.813624 202.972068 43.770769 Q 207.927564 41.861813 213.124601 40.568397 Q 215.62962 39.945064 218.543701 39.158107 Q 218.734597 39.103565 218.715118 39.298357 Q 216.997057 56.303655 219.654013 71.185726 C 221.321428 80.535718 224.699113 90.302564 230.500004 97.868266 C 234.232209 102.738054 238.618914 107.202675 243.66791 110.981631 Q 244.166576 111.35563 244.673034 111.628338 Q 244.867825 111.733526 245.050929 111.616651 Z" style="fill:#02294a;"/>
		<path d="M 244.58343 120.074498 C 244.673034 120.144623 244.801596 120.144623 244.8912 120.070602 Q 255.152817 111.710151 264.974204 101.717347 C 269.193388 97.424142 272.55549 93.158208 275.309842 87.867671 Q 275.531904 87.443025 275.664362 87.902733 Q 276.159133 89.616898 276.042258 91.798563 C 275.800716 96.278768 273.420364 100.346014 270.810158 103.930178 C 266.696161 109.579132 262.523727 114.811232 258.779835 120.783539 C 255.258004 126.409118 251.650465 131.808738 248.568864 137.835588 Q 247.933843 139.074462 246.137866 140.138023 C 243.578305 141.657397 241.439495 138.996545 240.36035 137.075901 C 239.074726 134.789048 237.937143 132.474925 236.46452 130.26599 C 234.345188 127.094784 232.525835 123.779433 230.445462 120.713414 C 225.715924 113.732087 220.281241 107.210467 216.030891 99.999286 C 213.919351 96.415122 212.653206 92.211521 213.47133 88.031295 Q 213.607684 87.330046 213.942726 87.96117 Q 217.382744 94.451623 222.634323 99.917473 C 229.639025 107.214363 236.904748 114.020378 244.58343 120.074498 Z" style="fill:#02294a;"/>
		<path d="M 251.350486 137.9174 C 252.137444 135.346152 253.142568 132.716467 255.374879 131.169822 C 257.342273 129.806282 259.586271 128.844012 261.615999 127.609034 Q 266.197495 124.827411 269.890742 121.706851 Q 270.825741 120.919893 269.984242 121.808143 Q 267.568827 124.35212 265.056017 126.518201 Q 260.614771 130.355594 255.854066 134.613736 Q 254.186651 136.105839 252.924402 137.87065 Q 250.968695 140.609419 249.044155 143.461166 C 246.632636 147.04533 245.748283 151.31516 245.082096 155.61226 Q 245.050929 155.818739 244.84445 155.787573 Q 244.548367 155.736927 244.48993 155.436948 C 243.706868 151.338535 242.803035 147.193372 240.520079 143.803999 Q 238.404643 140.660064 236.441145 137.971942 Q 235.743791 137.021359 234.875021 136.164277 Q 230.675316 132.015217 226.557424 128.567408 C 223.880988 126.327305 221.360386 123.888516 218.944972 121.375705 Q 218.913805 121.340643 218.944972 121.309476 L 218.948867 121.309476 Q 218.980034 121.274414 219.018992 121.30558 C 223.179739 125.053369 227.882006 127.959658 232.911523 130.651677 Q 235.626916 132.104822 236.826832 135.085132 C 238.065706 138.158942 240.122704 143.371562 243.92893 143.979312 C 247.816969 144.598749 250.341466 141.213272 251.350486 137.9174 Z" style="fill:#02294a;"/>
	</g>
	<g id="surface4">
	</g>
</svg>
