<?xml version="1.0" encoding="utf-8"?>
<svg xmlns="http://www.w3.org/2000/svg" width="490pt" height="280pt" viewBox="0 0 490 280" version="1.1" xmlns:xlink="http://www.w3.org/1999/xlink">
	<g id="surface2">
		<path d="M 218.179303 26.664653 Q 216.351847 25.515865 217.963685 26.950967 Q 222.159412 30.687179 225.778978 34.529433 Q 226.022875 34.787468 225.69061 34.663753 C 222.512885 33.458409 218.921597 34.320884 215.609553 34.684961 Q 212.820649 34.992483 208.999603 34.352696 C 201.90186 33.161492 194.390554 30.994701 187.925528 27.640239 Q 186.797949 27.053474 188.03157 27.353926 C 189.236914 27.650844 190.41398 28.039664 191.636997 28.294165 Q 199.300297 29.888329 205.938525 30.634158 Q 209.840869 31.072465 213.516991 31.086604 Q 214.32998 31.090138 213.591221 30.757873 C 213.290768 30.623554 212.67926 30.602345 212.28337 30.457421 C 207.461994 28.690055 202.534577 26.922689 197.561209 25.590095 C 189.901444 23.536415 182.301769 21.235304 175.61759 18.651415 Q 173.517959 17.841961 166.57221 14.533452 C 166.551001 14.522847 166.533327 14.505174 166.522723 14.4875 Q 166.469702 14.409736 166.540397 14.381458 Q 166.586348 14.363784 166.6323 14.374389 C 175.571638 16.417464 184.655901 18.478213 193.457385 21.069172 Q 201.258539 23.366748 210.176669 25.925894 Q 211.014401 26.166256 211.862736 26.360666 Q 212.633308 26.540938 211.919292 26.198069 C 208.752172 24.678134 205.595656 22.854212 202.453279 21.28479 Q 192.181346 16.148824 187.879577 13.610886 Q 182.531527 10.450836 177.14106 7.357945 Q 177.123386 7.34734 177.13399 7.329667 L 177.172872 7.244833 Q 177.218824 7.15293 177.314261 7.188278 Q 182.969833 9.46818 188.547641 11.730409 C 197.045138 15.176773 205.648677 18.142413 215.142968 21.277721 Q 220.155219 22.931976 224.722093 25.300247 C 230.437755 28.265887 235.032908 33.203908 236.05798 39.803254 C 236.747253 44.228739 237.638005 49.993887 242.685603 51.520892 C 246.545531 52.687354 249.783346 50.032769 251.197239 46.635892 C 252.420256 43.705598 252.551042 40.747027 253.197898 37.834408 C 254.562304 31.683973 259.500325 27.580149 265.095807 24.826592 Q 269.457667 22.68101 272.797989 21.556965 C 286.420848 16.972417 299.418059 12.451494 312.938411 7.078701 Q 313.019709 7.046888 313.058591 7.124652 L 313.101008 7.209486 Q 313.115147 7.241298 313.086869 7.255437 Q 307.26163 10.599294 301.432856 13.83004 Q 293.150978 18.418122 285.7952 21.68775 C 282.709379 23.059226 279.644766 24.791245 276.452902 26.180395 Q 276.435229 26.187464 276.442298 26.208673 L 276.474111 26.297041 Q 276.509458 26.396014 276.608431 26.367736 Q 280.973825 25.144718 285.014024 24.059555 Q 288.651264 23.083969 291.843127 22.1508 Q 306.936435 17.750058 322.637716 14.36025 Q 322.874543 14.310763 323.100766 14.21886 Q 323.418892 14.09161 323.680462 14.123423 Q 324.016262 14.162305 323.712275 14.310763 C 315.140549 18.400449 306.434503 21.465062 297.339636 23.911097 Q 285.827013 27.011057 275.056683 30.870985 Q 274.717349 30.994701 275.077891 31.033583 Q 276.901813 31.231528 279.079209 31.030048 Q 289.849538 30.033253 300.580986 27.491781 Q 303.256778 26.859064 300.757723 28.000782 Q 293.278229 31.422403 284.558044 33.522034 Q 279.52105 34.734447 274.996593 34.808677 Q 273.455449 34.83342 271.787055 34.56478 C 269.358694 34.17596 265.527044 33.592729 263.310767 34.82635 Q 262.727536 35.151546 263.172913 34.656683 Q 265.056925 32.581795 266.672298 30.528116 C 267.976614 28.863257 269.581382 27.682656 270.945789 26.148582 Q 270.991741 26.095561 270.93872 26.04961 Q 270.924581 26.039006 270.906907 26.035471 Q 270.875095 26.021332 270.843282 26.04254 C 270.083314 26.558611 269.369298 27.113564 268.531567 27.527128 C 264.215659 29.658572 260.055278 31.825363 256.810394 35.451998 C 254.682485 37.827338 253.975539 40.400624 253.618531 43.567744 C 253.052974 48.583529 250.896787 53.005479 248.899663 57.611236 C 248.111418 59.424554 248.033653 61.753942 248.044258 63.758136 C 248.069001 68.487608 246.213266 72.276841 243.929829 76.437221 C 241.239898 81.343429 240.257242 86.444048 241.688809 91.937023 Q 242.98959 96.917461 245.166985 100.664277 C 251.020502 110.72766 257.98746 119.949777 265.191245 129.528902 Q 265.223057 129.571319 265.184175 129.603132 L 265.180641 129.606666 Q 265.138224 129.638479 265.102876 129.599597 Q 264.137894 128.510899 263.215329 127.386854 Q 258.2561 121.328323 252.6995 114.333087 Q 250.956877 112.141553 248.652232 109.462226 C 245.308375 105.57402 242.250831 101.516148 240.038089 96.9316 C 238.949391 94.672906 238.352021 92.03953 237.698096 89.639447 Q 237.174955 87.709483 237.026497 84.789794 C 236.84976 81.346964 237.599123 78.257608 239.013016 75.242481 Q 239.037759 75.18946 238.988273 75.164717 L 238.984738 75.164717 Q 238.935252 75.139974 238.910509 75.185926 Q 236.316015 80.024974 235.227318 85.238705 Q 232.95095 96.104472 234.276475 107.125768 Q 234.820824 111.65376 235.59493 116.8074 Q 236.383175 122.067082 235.8565 126.856644 C 235.8565 126.867249 235.845896 126.877853 235.831757 126.877853 C 235.821153 126.874318 235.810549 126.863714 235.810549 126.85311 C 235.778736 119.942708 233.668501 113.403453 232.074336 106.747552 Q 230.017122 98.161686 230.671048 89.349598 Q 231.286091 81.106602 235.216714 74.482514 Q 237.104261 71.304789 239.5609 68.243711 C 242.056421 65.133146 241.543885 60.552133 239.840144 57.240089 C 237.959666 53.585176 236.270064 49.89845 235.605534 45.769882 C 235.146019 42.924423 235.011699 40.195609 233.573063 37.60465 C 232.120288 34.988948 229.52226 32.91406 227.040877 31.348174 C 224.255508 29.587877 221.003554 28.435554 218.179303 26.664653 Z" style="fill:#a50516;"/>
		<path d="M 246.669247 34.494086 L 244.120705 32.974151 C 244.081823 32.949408 244.028802 32.949408 243.98992 32.98122 L 241.978657 34.472877 C 241.879684 34.543572 241.748899 34.441065 241.798385 34.327953 L 242.925965 31.761737 C 242.947173 31.708716 242.9295 31.645091 242.880014 31.613279 L 239.829539 29.563134 C 239.730567 29.495974 239.783588 29.336911 239.903769 29.34398 L 243.396084 29.517182 C 243.456175 29.517182 243.509196 29.4783 243.5198 29.421745 L 244.156052 26.43843 C 244.180795 26.318249 244.353997 26.31118 244.389344 26.431361 L 245.251819 29.368724 C 245.265958 29.41821 245.311909 29.453557 245.36493 29.453557 L 248.73353 29.520717 C 248.853711 29.520717 248.896128 29.683315 248.790086 29.743405 L 245.601758 31.59914 C 245.545202 31.630952 245.523993 31.698112 245.552271 31.758203 L 246.838914 34.335023 C 246.891935 34.444599 246.775289 34.554176 246.669247 34.494086 Z" style="fill:#a50516;"/>
		<path d="M 263.943484 38.085374 Q 267.902385 36.438188 272.016813 36.310938 Q 278.754013 36.105924 285.342754 35.816076 Q 288.276582 35.68529 291.436633 35.483811 Q 296.798822 35.144476 301.952462 34.190099 Q 302.118595 34.161821 302.069108 34.320884 Q 302.044365 34.402183 301.963066 34.433995 Q 296.183779 36.657342 290.167664 37.420844 Q 286.360757 37.905102 282.610406 38.32927 C 280.273948 38.590841 277.972837 39.142259 275.646983 39.587635 C 272.571766 40.174401 269.680355 39.743163 266.506165 39.386155 Q 263.430948 39.043286 260.790503 40.365276 Q 260.348661 40.587964 260.702135 40.241561 Q 262.137236 38.834737 263.943484 38.085374 Z" style="fill:#a50516;"/>
		<path d="M 224.354481 37.848547 Q 226.468251 38.650931 227.928095 40.230956 Q 228.05888 40.368811 227.889213 40.280443 Q 225.800186 39.170537 223.195089 39.357877 Q 220.745519 39.534614 218.271206 39.683073 C 214.213333 39.930504 210.173134 38.711021 206.06931 38.240902 Q 203.655088 37.961658 201.615547 37.774317 Q 194.316324 37.099183 187.752326 34.43046 Q 187.101936 34.165356 187.794743 34.282002 Q 194.705145 35.444929 202.478022 35.823145 Q 208.031086 36.091785 214.32291 36.15541 C 217.868247 36.190757 221.113131 36.61846 224.354481 37.848547 Z" style="fill:#a50516;"/>
		<path d="M 265.2478 44.324177 Q 263.416809 43.974238 261.536331 44.306503 Q 260.935427 44.412545 261.440894 44.069676 C 264.010644 42.337657 267.004562 42.023066 270.108058 41.902885 Q 278.096553 41.584759 285.685623 41.121709 Q 288.308395 40.962646 290.786242 40.294582 Q 290.842798 40.280443 290.864006 40.336998 L 290.864006 40.340533 Q 290.88168 40.38295 290.839263 40.404158 C 288.350812 41.549412 285.742179 42.22808 283.059317 42.694665 Q 277.057342 43.74448 272.013278 44.490309 Q 268.69063 44.981637 265.2478 44.324177 Z" style="fill:#a50516;"/>
		<path d="M 247.570603 43.634904 C 247.570603 45.437617 246.107224 46.900997 244.304511 46.900997 C 242.501797 46.900997 241.038418 45.437617 241.038418 43.634904 C 241.038418 41.83219 242.501797 40.368811 244.304511 40.368811 C 246.107224 40.368811 247.570603 41.83219 247.570603 43.634904 Z" style="fill:#a50516;"/>
		<path d="M 226.796981 44.14037 C 224.255508 44.133301 221.703431 44.592816 219.183167 44.553934 Q 217.528912 44.529191 215.38333 44.200461 Q 208.494136 43.150645 203.817685 42.341192 Q 201.046455 41.860468 198.692323 40.690472 Q 198.2116 40.45011 198.738275 40.559687 Q 201.343373 41.096966 203.88131 41.206543 Q 211.339596 41.528203 218.320693 41.867538 C 221.25452 42.012462 224.283786 42.36947 226.860606 43.907078 Q 227.249427 44.14037 226.796981 44.14037 Z" style="fill:#a50516;"/>
		<path d="M 205.910247 45.819368 C 207.642266 46.317766 209.413167 46.543989 211.208811 46.469759 C 215.393934 46.300092 219.713377 45.497708 223.668743 44.910942 Q 226.181937 44.536261 228.186131 45.381062 Q 229.264224 45.833507 228.097762 45.776952 C 226.546015 45.699187 225.206351 45.92541 223.739437 46.508641 C 218.253533 48.686036 211.230019 48.887516 205.899643 45.886528 Q 205.86783 45.868855 205.881969 45.837042 L 205.881969 45.833507 Q 205.889039 45.815834 205.910247 45.819368 Z" style="fill:#a50516;"/>
		<path d="M 282.992157 45.886528 Q 283.031039 45.875924 283.062852 45.85825 Q 283.094665 45.833507 283.09113 45.872389 Q 283.09113 45.890063 283.087595 45.907737 Q 283.08406 45.92541 283.066387 45.936015 Q 277.092689 48.601203 270.486274 48.070993 C 268.068517 47.880117 265.958282 46.911601 263.692518 46.151633 Q 262.172583 45.642632 260.518328 45.748674 Q 259.807847 45.794625 260.422891 45.437617 C 261.656512 44.720067 264.014179 44.712997 265.233662 44.974567 C 269.60966 45.904202 273.943242 46.582871 278.4677 46.515711 C 280.037121 46.490968 281.468688 46.215258 282.992157 45.886528 Z" style="fill:#a50516;"/>
		<path d="M 222.290197 51.195696 C 220.5299 52.302068 216.83964 52.008685 215.068739 51.580982 Q 213.828048 51.28053 215.104086 51.284065 Q 219.798211 51.308808 223.36829 49.078392 Q 225.107379 47.993229 226.941905 47.243866 Q 227.323656 47.088337 227.033808 47.378185 Q 224.796322 49.612136 222.290197 51.195696 Z" style="fill:#a50516;"/>
		<path d="M 263.406205 48.003833 C 266.774805 49.901984 270.228238 51.591586 273.992729 51.351225 Q 274.455778 51.322947 274.010402 51.446662 C 270.857421 52.309137 267.821086 52.111192 265.134689 50.177693 Q 263.158774 48.756731 261.377268 47.459484 Q 261.002587 47.18731 261.458567 47.272143 Q 262.427084 47.452415 263.406205 48.003833 Z" style="fill:#a50516;"/>
		<path d="M 225.733026 52.53536 C 223.979799 54.295657 221.222708 54.585505 218.691839 54.232032 Q 217.659698 54.087108 218.698909 54.009343 C 223.004213 53.691218 225.492665 50.552375 228.875404 48.410327 Q 228.974376 48.346702 229.080418 48.399723 Q 229.239481 48.477487 229.112231 48.601203 C 227.86447 49.817151 226.952509 51.308808 225.733026 52.53536 Z" style="fill:#a50516;"/>
		<path d="M 270.291864 54.065899 C 265.671968 55.154597 262.405876 52.828743 260.281501 49.021836 Q 259.684132 47.947277 260.55721 48.813287 Q 263.349649 51.584517 267.213112 53.341279 Q 268.648213 53.995205 270.291864 54.055295 Q 270.330746 54.05883 270.291864 54.065899 Z" style="fill:#a50516;"/>
		<path d="M 230.077213 50.760924 C 228.744618 53.853815 226.970183 56.907824 223.050165 56.713414 Q 222.519955 56.685136 223.021887 56.515469 C 225.725957 55.610577 227.164593 53.882093 228.840056 51.740045 Q 229.677788 50.669021 230.338783 49.520233 Q 230.547332 49.159691 230.473103 49.56972 Q 230.395339 50.029235 230.077213 50.760924 Z" style="fill:#a50516;"/>
		<path d="M 260.316849 53.66294 C 259.63818 52.648471 258.910025 51.492614 258.531809 50.336756 Q 258.150058 49.16676 258.857004 50.174159 Q 260.22848 52.125331 261.709533 53.793725 C 262.992641 55.235896 264.265145 55.829731 265.926469 56.543747 Q 266.177435 56.653323 265.905261 56.642719 C 263.628893 56.564955 261.585818 55.554022 260.316849 53.66294 Z" style="fill:#a50516;"/>
		<path d="M 225.393692 58.501988 C 228.673924 58.099029 230.317574 53.758377 231.69612 51.266391 Q 231.886996 50.916453 231.848114 51.312343 Q 231.420411 55.561091 228.801174 57.858667 Q 227.323656 59.152379 225.383088 58.632774 Q 225.047288 58.544405 225.393692 58.501988 Z" style="fill:#a50516;"/>
		<path d="M 263.547594 58.67519 C 260.044674 58.703468 257.580966 54.847075 256.923506 51.736511 Q 256.909367 51.669351 256.951783 51.619864 Q 256.983596 51.588052 257.026013 51.570378 Q 257.071964 51.556239 257.096707 51.598656 C 258.528274 54.242636 260.663252 57.42743 263.575872 58.516127 Q 264.00004 58.671656 263.547594 58.67519 Z" style="fill:#a50516;"/>
		<path d="M 230.204463 59.007455 C 231.851648 57.066887 232.632824 55.77671 233.520042 54.002274 Q 233.990161 53.0585 233.87705 54.108316 C 233.558924 57.042144 231.989503 59.975972 228.818848 60.290563 Q 228.493652 60.322376 228.758757 60.127965 C 229.257155 59.767423 229.801503 59.484644 230.204463 59.007455 Z" style="fill:#a50516;"/>
		<path d="M 260.122438 59.823978 C 257.234562 59.350324 255.930246 57.112839 255.20916 54.528949 Q 255.134931 54.25324 255.368223 54.090642 L 255.470731 54.016413 C 255.559099 53.952788 255.682814 53.99167 255.725231 54.090642 Q 257.216888 57.646583 260.175459 59.689659 Q 260.451169 59.880534 260.122438 59.823978 Z" style="fill:#a50516;"/>
		<path d="M 253.593788 55.925168 C 254.445658 58.021265 256.022149 60.499112 258.319725 61.160107 Q 258.595434 61.237871 258.309121 61.273219 Q 257.446646 61.375726 256.647796 61.015183 Q 253.219106 59.47404 253.300405 55.981724 Q 253.318078 55.23943 253.593788 55.925168 Z" style="fill:#a50516;"/>
		<path d="M 235.531305 55.946377 C 235.548978 55.893356 235.619673 55.879217 235.65502 55.925168 Q 235.814083 56.126648 235.803479 56.391753 Q 235.72218 58.646912 234.283544 60.389536 Q 233.297354 61.584275 231.385064 61.665574 Q 231.066938 61.679713 231.353251 61.548928 C 233.438743 60.587481 234.887983 57.978848 235.531305 55.946377 Z" style="fill:#a50516;"/>
		<path d="M 252.692431 59.527061 Q 253.49835 61.343913 255.043028 62.368986 Q 255.481335 62.658834 254.993542 62.471493 Q 252.367235 61.467629 252.091526 58.862531 Q 251.996089 57.95057 252.367235 58.788302 Q 252.529833 59.159449 252.692431 59.527061 Z" style="fill:#a50516;"/>
		<path d="M 234.177502 62.44675 C 235.492423 61.732734 236.411453 60.495578 236.669489 59.025129 Q 236.687162 58.915552 236.796739 58.890809 Q 236.84976 58.87667 236.895712 58.915552 Q 236.945198 58.957969 236.945198 59.025129 Q 236.881573 61.686782 234.223454 62.570465 Q 234.173968 62.588139 234.152759 62.542188 L 234.149224 62.538653 Q 234.120947 62.478562 234.177502 62.44675 Z" style="fill:#a50516;"/>
		<path d="M 245.10336 154.957767 Q 245.092756 155.007254 245.092756 155.05674 Q 245.092756 155.077948 245.078617 155.063809 Q 245.075082 155.063809 245.075082 155.063809 Q 245.071548 155.060275 245.071548 155.05674 C 246.541996 144.477286 246.082481 133.763512 242.66086 123.583482 Q 241.225759 119.320595 240.038089 115.527827 C 238.341417 110.123221 237.227976 104.117711 236.856829 98.829751 Q 236.71544 96.779606 236.959337 94.538586 C 236.969941 94.453752 237.037101 94.386592 237.1184 94.379523 Q 237.249185 94.368919 237.284532 94.499704 C 240.487 105.821452 243.894482 117.482534 245.824446 128.75833 C 246.810636 134.519944 246.743476 140.935484 246.2981 147.06471 Q 246.015321 150.977659 245.10336 154.957767 Z" style="fill:#a50516;"/>
	</g>
	<g id="surface4">
	</g>
</svg>
