<?xml version="1.0" encoding="utf-8"?>
<svg xmlns="http://www.w3.org/2000/svg" width="490pt" height="280pt" viewBox="0 0 490 280" version="1.1" xmlns:xlink="http://www.w3.org/1999/xlink">
	<g id="surface2">
		<path d="M 242.448199 160.049397 Q 232.475179 155.372929 223.083489 148.971853 C 210.016507 140.071062 200.217886 128.289463 193.842646 113.491414 Q 188.843218 101.858377 187.137987 89.689226 Q 186.414555 84.560614 186.511443 76.977502 Q 186.821486 52.652118 186.54374 26.330839 C 186.53728 25.736592 186.892537 25.206936 187.44157 24.987323 C 211.282513 15.414775 236.492808 10.764144 261.664348 13.877483 C 275.687292 15.61501 289.535837 19.568046 302.518849 24.974405 C 303.016208 25.1811 303.339169 25.66554 303.339169 26.208114 Q 303.352087 48.996206 303.423138 71.945778 Q 303.442516 77.07439 303.468353 77.855954 Q 303.778395 85.975181 301.801877 95.082667 Q 294.141254 130.433921 264.654962 150.315368 Q 256.303204 155.947799 246.28497 160.624267 C 244.81227 161.315402 243.727123 160.650104 242.448199 160.049397 Z M 219.375902 76.577031 Q 207.762243 78.540631 196.800964 82.616392 Q 195.483286 83.107292 194.178525 83.766131 Q 193.887861 83.908234 193.829728 84.224735 Q 193.674707 84.986922 193.745758 85.794323 C 195.231377 103.027494 201.974791 119.776225 213.646583 132.455654 Q 215.913766 134.910153 219.350065 137.086907 Q 222.540915 140.426318 227.514506 143.559035 Q 233.011294 147.899624 239.528636 150.980667 L 244.56682 153.674157 Q 244.863944 153.829178 245.173986 153.712913 Q 248.171059 152.58901 249.617922 151.277791 Q 257.297922 147.938379 262.555719 143.27483 Q 267.083625 140.439237 270.603894 136.81562 C 286.467713 123.632373 294.677368 105.165493 296.324467 84.773768 C 296.369681 84.250572 296.059639 83.759672 295.568739 83.578814 Q 283.528772 79.070286 270.63619 76.596409 L 270.571598 54.712606 Q 270.571598 54.208788 271.062498 54.318594 Q 283.63212 57.108973 295.710842 61.727308 Q 296.221119 61.921084 296.246956 61.378511 Q 296.311548 60.138342 296.324467 58.85296 Q 296.492406 43.299183 296.498865 30.096558 C 296.498865 29.864027 296.343844 29.663791 296.124231 29.599199 C 291.163558 28.107122 286.364366 26.208114 281.377856 24.748333 Q 243.565642 13.65141 205.663 25.652622 Q 199.759282 27.519334 194.249577 29.547525 Q 193.584278 29.792975 193.584278 30.503488 L 193.558441 61.262245 C 193.558441 61.656257 193.952453 61.921084 194.314169 61.772522 Q 206.373513 56.734339 218.910839 54.305676 Q 219.47925 54.195869 219.47925 54.777198 L 219.375902 76.577031 Z" style="fill:#221c1e;"/>
		<path d="M 248.823439 38.138274 L 251.730083 44.694372 C 251.807594 44.87523 251.600899 45.043169 251.439419 44.926904 L 245.070638 40.334406 C 244.999587 40.282732 244.909158 40.282732 244.838107 40.340865 L 239.302564 44.565188 C 239.147543 44.681454 238.934389 44.532892 238.998981 44.345575 L 241.246786 37.938039 C 241.272623 37.854069 241.246786 37.770099 241.182194 37.718426 L 234.942597 32.932151 C 234.794036 32.822345 234.884465 32.576895 235.071782 32.589813 L 242.713027 32.964447 C 242.803456 32.964447 242.887425 32.906314 242.913262 32.809426 L 244.663708 25.032538 C 244.708922 24.838762 244.980209 24.825843 245.038342 25.019619 L 247.557434 33.216356 C 247.583271 33.300326 247.66724 33.358459 247.757669 33.352 L 254.585054 32.802967 C 254.772371 32.783589 254.869259 33.02258 254.720697 33.145305 L 248.881572 37.912202 C 248.810521 37.963876 248.791143 38.060764 248.823439 38.138274 Z" style="fill:#221c1e;"/>
		<path d="M 240.14872 74.361522 Q 233.599082 74.109613 227.48221 75.504802 L 227.32073 52.645659 C 227.32073 52.432505 227.48221 52.251647 227.695364 52.238729 L 239.690117 51.379654 C 239.942026 51.360276 240.15518 51.560512 240.15518 51.812421 L 240.14872 74.361522 Z" style="fill:#221c1e;"/>
		<path d="M 262.491127 75.317485 Q 256.3355 74.174205 250.405945 74.225879 Q 250.173414 74.225879 249.495197 74.568217 L 249.333717 51.825339 C 249.327257 51.57343 249.540411 51.366736 249.79232 51.386113 L 262.194003 52.219351 C 262.355483 52.23227 262.484667 52.367913 262.484667 52.529393 L 262.491127 75.317485 Z" style="fill:#221c1e;"/>
		<path d="M 240.14872 74.361522 Q 240.032455 77.377973 240.038914 80.355669 Q 240.135802 113.058647 240.129343 145.755166 Q 240.129343 147.893165 239.528636 150.980667 Q 233.011294 147.899624 227.514506 143.559035 L 227.48221 75.504802 Q 233.599082 74.109613 240.14872 74.361522 Z" style="fill:#78a546;"/>
		<path d="M 262.491127 75.317485 L 262.555719 143.27483 Q 257.297922 147.938379 249.617922 151.277791 L 249.495197 74.568217 Q 250.173414 74.225879 250.405945 74.225879 Q 256.3355 74.174205 262.491127 75.317485 Z" style="fill:#78a546;"/>
		<path d="M 219.375902 76.577031 L 219.350065 137.086907 Q 215.913766 134.910153 213.646583 132.455654 C 201.974791 119.776225 195.231377 103.027494 193.745758 85.794323 Q 193.674707 84.986922 193.829728 84.224735 Q 193.887861 83.908234 194.178525 83.766131 Q 195.483286 83.107292 196.800964 82.616392 Q 207.762243 78.540631 219.375902 76.577031 Z" style="fill:#78a546;"/>
		<path d="M 270.63619 76.596409 Q 283.528772 79.070286 295.568739 83.578814 C 296.059639 83.759672 296.369681 84.250572 296.324467 84.773768 C 294.677368 105.165493 286.467713 123.632373 270.603894 136.81562 L 270.63619 76.596409 Z" style="fill:#78a546;"/>
	</g>
	<g id="surface4">
	</g>
</svg>
