<?xml version="1.0" encoding="utf-8"?>
<svg xmlns="http://www.w3.org/2000/svg" width="490pt" height="280pt" viewBox="0 0 490 280" version="1.1" xmlns:xlink="http://www.w3.org/1999/xlink">
	<g id="surface2">
		<path d="M 244.528208 13.211337 L 244.409306 54.978978 C 238.107498 55.725418 233.675095 60.791966 234.130886 67.146619 L 195.514149 67.192859 C 194.311917 55.778264 197.198594 44.317429 203.658938 34.805267 C 206.228543 31.03343 209.31339 27.631511 212.834211 24.698594 C 221.699018 17.313457 232.915443 13.244365 244.528208 13.211337 Z" style="fill:#e74236;"/>
		<path d="M 244.528208 13.211337 C 252.30308 13.184914 259.978866 14.968445 266.941241 18.416603 C 277.979313 23.892703 286.573287 33.226512 291.05193 44.608079 C 293.496028 50.824012 294.638808 57.462709 294.40761 64.114617 C 294.374582 65.184736 294.301919 66.254854 294.189623 67.324972 Q 292.254162 66.915421 290.206405 67.034323 Q 286.388328 67.245704 286.315666 67.245704 Q 271.023544 67.199464 255.863535 67.212676 Q 255.407744 56.009462 244.409306 54.978978 L 244.528208 13.211337 Z" style="fill:#3a2531;"/>
		<path d="M 255.863535 67.212676 Q 271.023544 67.199464 286.315666 67.245704 Q 286.388328 67.245704 290.206405 67.034323 Q 292.254162 66.915421 294.189623 67.324972 C 293.17235 77.352377 289.063624 86.818299 282.411716 94.434635 C 272.952399 105.261326 259.172975 111.437626 244.686744 111.345146 L 244.732984 77.411828 Q 245.670989 77.193841 246.747713 76.969248 Q 247.903705 76.724838 248.689779 76.354921 Q 254.535796 73.587146 255.863535 67.212676 Z" style="fill:#08797b;"/>
		<path d="M 234.130886 67.146619 Q 235.775697 75.800045 244.732984 77.411828 L 244.686744 111.345146 C 238.12071 111.298906 231.627338 109.971167 225.576545 107.427985 C 213.270185 102.255746 203.57967 92.400089 198.691475 80.093729 C 197.046664 75.951975 195.976545 71.612051 195.514149 67.192859 L 234.130886 67.146619 Z" style="fill:#fdbb12;"/>
		<path d="M 293.832917 123.552421 C 293.832917 125.316135 292.399487 126.749565 290.635773 126.749565 L 198.381009 126.749565 C 196.617295 126.749565 195.183865 125.316135 195.183865 123.552421 L 195.183865 122.561571 C 195.183865 120.797858 196.617295 119.364428 198.381009 119.364428 L 290.635773 119.364428 C 292.399487 119.364428 293.832917 120.797858 293.832917 122.561571 L 293.832917 123.552421 Z" style="fill:#000000;"/>
		<path d="M 317.296251 158.410533 C 317.296251 159.95626 316.041174 161.211337 314.495447 161.211337 L 175.300803 161.211337 C 173.755077 161.211337 172.5 159.95626 172.5 158.410533 L 172.5 156.930864 C 172.5 155.385137 173.755077 154.13006 175.300803 154.13006 L 314.495447 154.13006 C 316.041174 154.13006 317.296251 155.385137 317.296251 156.930864 L 317.296251 158.410533 Z" style="fill:#000000;"/>
	</g>
	<g id="surface4">
	</g>
</svg>
