<?xml version="1.0" encoding="utf-8"?>
<svg xmlns="http://www.w3.org/2000/svg" width="490pt" height="280pt" viewBox="0 0 490 280" version="1.1" xmlns:xlink="http://www.w3.org/1999/xlink">
	<g id="surface2">
		<path d="M 237.372118 156.299495 C 205.928704 153.914496 174.524749 137.622845 159.995542 108.603889 Q 155.984008 100.589589 153.765608 92.268395 Q 150.762437 80.970337 151.740112 68.497315 Q 153.090442 51.320057 162.323547 36.988139 C 174.419528 18.197499 196.594763 9.337051 218.642856 8.810948 Q 232.084784 8.486518 245.154056 10.634771 Q 259.91124 13.059228 271.226836 16.496433 Q 274.186164 17.395192 277.141108 18.228189 Q 277.176182 18.236957 277.193719 18.272031 Q 277.206871 18.289567 277.206871 18.311488 Q 277.206871 18.342178 277.176182 18.337793 Q 261.362407 16.250919 244.838394 15.514375 Q 230.559086 14.878667 217.489814 16.465744 Q 206.494265 17.802922 195.862603 21.884603 Q 186.835555 25.348114 180.272423 30.6486 Q 165.782673 42.341236 163.450284 60.662767 C 161.955275 72.386092 163.950082 83.925281 168.619245 94.999746 Q 175.647102 111.685974 190.30345 123.821413 C 196.160728 128.670328 202.745782 133.006292 209.642114 136.298819 Q 223.934574 143.116235 239.419535 145.944038 Q 259.371985 149.582916 280.297725 148.219433 C 300.837657 146.882255 320.215779 140.696162 338.243569 130.831734 Q 338.304948 130.801044 338.340022 130.858039 L 338.340022 130.858039 Q 338.379479 130.919418 338.322485 130.958875 Q 336.090932 132.563489 333.859379 133.869978 Q 316.476064 144.058836 297.304 149.560995 Q 288.719755 152.02491 280.091668 153.756665 Q 259.179081 157.956719 237.372118 156.299495 Z" style="fill:#000000;"/>
		<path d="M 261.739448 30.674905 C 260.297049 30.670521 258.959871 31.073866 257.841902 32.095383 Q 255.106168 34.589987 252.506343 36.931145 C 251.65581 37.693994 250.857887 37.921972 249.639082 37.943893 C 241.957981 38.084187 233.934912 38.092955 226.157359 38.974177 Q 225.569877 39.044324 226.01268 38.654132 L 240.375288 26.018895 Q 240.787402 25.655007 241.33981 25.659391 L 319.88258 26.268794 Q 320.85587 26.277562 320.093021 26.878196 Q 318.137672 28.403894 316.134097 29.99974 Q 315.257259 30.696826 314.498794 30.762589 Q 313.117774 30.885346 311.776212 30.880962 Q 286.860858 30.775741 261.739448 30.674905 Z" style="fill:#d80c1c;"/>
		<path d="M 271.866927 46.146713 C 270.003646 46.142329 268.552479 46.615821 267.175844 47.992457 Q 264.874144 50.285389 262.454071 52.302116 C 261.853437 52.806298 261.252803 53.03866 260.472417 53.056197 C 251.620736 53.240333 242.593688 53.043044 233.606098 53.814662 Q 220.098408 54.976472 207.853364 57.019505 Q 207.191351 57.12911 206.485497 57.387777 Q 205.884863 57.611371 206.191756 57.04581 Q 206.524954 56.440792 207.029136 55.954147 Q 212.702279 50.500214 218.805072 44.664856 C 219.019897 44.4588 219.291717 44.327274 219.589842 44.287816 Q 234.982734 42.148331 249.884597 41.972964 Q 251.782951 41.951043 253.251655 40.565639 Q 256.145221 37.843056 258.859035 35.238847 Q 260.310202 33.844675 262.230477 33.835906 Q 287.601787 33.743838 310.899374 33.761375 Q 311.977885 33.761375 311.118584 34.410235 Q 303.74876 39.947468 296.992722 45.445242 Q 295.905443 46.330849 294.449892 46.313312 Q 282.958929 46.168634 271.866927 46.146713 Z" style="fill:#d80c1c;"/>
		<path d="M 261.121277 56.467097 C 262.888106 56.475865 264.46203 55.235139 265.689603 53.963724 Q 267.430127 52.153054 269.293408 50.316078 C 270.512213 49.11481 272.01599 49.16742 273.594298 49.171804 Q 282.450363 49.198109 291.521253 49.290177 C 291.692236 49.290177 291.806225 49.465545 291.744846 49.623376 Q 291.617705 49.943422 291.341501 50.145094 Q 288.750444 52.039065 286.532044 53.911114 Q 278.373066 60.798677 270.520981 66.993538 Q 269.915963 67.471415 269.078582 67.44511 Q 256.048769 67.054917 242.725214 67.221516 Q 225.846081 67.436341 209.374678 70.115082 Q 196.318559 72.23703 182.841558 75.867139 Q 182.701264 75.902213 182.587275 75.823297 C 182.482054 75.744382 182.468902 75.595319 182.556586 75.498867 Q 187.747467 69.803804 193.039185 64.060515 Q 193.433762 63.630864 193.999323 63.473033 Q 198.870158 62.122702 203.876903 61.232712 C 218.322811 58.66796 233.290436 56.655617 247.850333 56.493402 Q 254.439771 56.423255 261.121277 56.467097 Z" style="fill:#d80c1c;"/>
		<path d="M 255.259614 80.25133 Q 255.163162 79.913747 255.193851 79.703306 C 256.925607 77.046486 256.083842 74.394051 253.194661 73.267314 C 249.494404 71.824916 246.973495 73.635586 245.246124 76.75713 Q 245.149671 76.928113 244.961151 76.954418 Q 243.755499 77.116633 242.659451 77.116633 Q 231.558681 77.138554 223.535613 77.997856 Q 216.24032 78.778242 207.568392 80.132956 Q 200.935112 81.167625 192.136042 83.162432 Q 182.008562 85.459748 173.494464 88.638286 Q 172.972746 88.83119 173.314712 88.392771 Q 176.466945 84.372469 179.588489 80.632754 Q 180.215428 79.883058 181.267634 79.602469 Q 189.531833 77.401606 198.488733 75.463794 Q 225.736476 69.575826 253.238503 70.211534 Q 259.863014 70.36498 266.825108 70.557885 C 267.009244 70.562269 267.110081 70.777094 266.991708 70.921773 C 266.483142 71.553096 265.685219 71.899447 265.062664 72.416781 Q 260.617095 76.117038 256.149605 79.742764 Q 255.741875 80.071578 255.259614 80.25133 Z" style="fill:#d80c1c;"/>
		<path d="M 255.193851 79.703306 Q 255.163162 79.913747 255.259614 80.25133 L 252.414275 83.44302 C 252.25206 83.622772 251.993393 83.675382 251.774183 83.565778 C 249.831987 82.592487 247.911711 81.207083 247.18832 79.089519 C 246.613991 77.40599 247.661812 76.046891 249.380415 75.946055 C 251.177933 75.840834 254.768585 77.436679 255.193851 79.703306 Z" style="fill:#000000;"/>
		<path d="M 249.608393 86.52949 C 250.774588 86.867073 252.725552 87.691301 253.799679 86.735547 Q 254.352087 86.244518 255.053557 85.959545 C 255.448135 85.801715 255.886554 86.082303 255.90409 86.507569 L 255.978622 88.156025 Q 255.991774 88.366466 256.096995 88.541834 Q 259.108933 93.465279 264.234052 97.161152 C 264.475182 97.332135 264.808381 97.266372 264.966212 97.012089 Q 265.286258 96.485986 264.979364 95.920426 Q 261.94112 90.34812 256.978217 86.61279 C 256.767776 86.450575 256.794081 86.126145 257.030827 86.003387 Q 258.780119 85.109013 260.450496 83.789371 Q 260.647784 83.635925 260.801231 83.828829 Q 264.825918 88.822422 265.584383 94.811226 C 265.786055 96.398303 265.387094 97.779323 264.633013 99.160343 C 264.374346 99.633835 264.027995 100.076638 263.427361 100.024028 Q 260.104145 99.730287 256.934375 99.502309 Q 256.39512 99.462852 255.917243 99.642604 C 255.702418 99.725903 255.535818 99.901271 255.456903 100.12048 Q 255.171931 100.944708 255.285919 101.821546 Q 255.746259 105.499882 255.413061 109.489495 Q 255.395524 109.713089 255.592813 109.827078 Q 258.429384 111.387849 257.254421 114.63215 C 256.55295 116.569962 254.124109 117.71862 252.30467 116.486663 C 250.901729 115.535294 250.875424 113.224825 251.440985 111.861342 C 251.800488 110.988888 253.049982 110.318107 253.023677 109.41058 Q 252.988604 108.35399 252.690479 107.507841 Q 252.572106 107.170258 252.282749 107.385084 Q 248.683329 110.05944 247.780186 113.952601 C 246.447392 119.678353 251.493595 123.005954 256.452114 120.463124 Q 259.91124 118.691911 261.537775 115.215248 C 263.181846 111.694743 262.559291 106.626619 257.955891 105.982143 C 257.723529 105.947069 257.438557 106.021601 257.197426 105.986527 Q 256.947528 105.947069 256.973833 105.701555 L 257.425404 101.369975 C 257.429789 101.308596 257.482399 101.26037 257.543777 101.264754 Q 259.626268 101.295443 261.577233 101.979377 Q 267.982535 104.228467 268.741 110.839826 C 269.424933 116.82863 265.321331 122.975265 260.23567 125.965282 C 255.759412 128.600181 249.783761 129.183278 245.67139 125.632084 Q 242.576152 122.953344 242.045665 119.134714 C 241.046069 111.949026 245.34696 105.552492 251.734725 102.685232 Q 252.111766 102.518632 252.094229 102.106519 L 252.085461 101.944303 C 252.081076 101.839083 251.989008 101.764552 251.883788 101.782088 Q 247.872254 102.509864 244.193918 106.433714 C 241.839608 108.945855 240.405977 112.054246 240.204305 115.438841 Q 240.134158 116.543657 240.024553 117.66601 Q 239.932485 118.547232 239.086336 118.279797 Q 237.043303 117.630937 235.013423 116.64011 Q 229.199987 113.812307 223.412856 110.962583 Q 221.080466 109.813925 218.997976 108.511821 C 218.734924 108.349606 218.673546 107.990102 218.870834 107.748972 Q 220.523674 105.736628 221.733711 103.605912 Q 222.058141 103.027198 222.066909 102.781684 Q 222.106367 101.782088 221.453123 102.540553 C 219.116349 105.263136 216.994401 107.534146 213.487049 108.652115 C 209.330836 109.980524 205.016793 108.292611 203.802372 103.961031 Q 202.842234 100.536978 204.687979 96.477218 C 206.871305 91.663377 211.838593 87.691301 217.161 87.17835 C 221.334749 86.775005 222.807837 89.813249 223.763591 93.263607 Q 223.851275 93.579268 224.175705 93.579268 C 224.324767 93.579268 224.44314 93.465279 224.451909 93.316217 C 224.741265 87.494012 221.339134 84.512763 216.643666 82.09269 Q 215.893969 81.706881 216.007958 80.913342 C 216.029879 80.768664 216.143868 80.650291 216.288546 80.62837 Q 217.748482 80.378471 219.033049 80.396008 Q 225.661945 80.479307 231.86119 82.87746 C 232.251383 83.026522 232.501282 83.434252 232.64596 83.811292 C 233.549104 86.169987 235.565831 89.607192 238.323487 89.330988 Q 240.414746 89.120547 242.392016 88.984637 C 246.53946 88.704049 249.59524 90.26482 253.194661 91.900123 Q 253.698843 92.132485 254.137262 91.790519 Q 254.264403 91.689682 254.242482 91.536236 Q 254.141646 90.751466 253.457712 90.352504 C 250.857887 88.826806 248.183531 87.116972 244.996225 87.340565 Q 241.576556 87.577312 238.362945 87.713222 C 237.429112 87.752679 236.613653 87.660611 235.942872 86.919683 Q 234.447863 85.266843 234.640767 83.01337 Q 234.671456 82.671403 235.009039 82.618792 L 241.953597 81.492055 Q 242.488468 81.404372 242.580536 80.8695 Q 242.624378 80.615217 242.383247 80.382855 C 242.3131 80.317092 242.221032 80.282019 242.12458 80.290787 L 236.473359 80.843195 Q 236.113855 80.878269 236.407596 80.667828 C 238.174425 79.396412 240.918928 79.470944 242.997034 78.813315 Q 243.939635 78.51519 244.855931 78.024161 C 244.956767 77.971551 245.079524 78.015393 245.12775 78.116229 C 246.434239 81.009795 248.455351 82.57495 251.063944 84.105033 C 251.261233 84.219022 251.309459 84.482073 251.169165 84.661825 Q 250.445773 85.578121 249.551398 86.174371 Q 249.200663 86.406733 249.608393 86.52949 Z M 224.219547 98.235278 C 227.604142 99.831124 231.94449 102.005682 235.614057 100.111712 Q 238.735601 98.502714 241.782613 96.823569 Q 246.263256 94.359654 251.160396 92.996171 Q 251.46729 92.912871 251.173549 92.78573 C 249.783761 92.193864 248.310673 91.81244 246.824432 91.400326 Q 242.409552 90.1596 238.240187 91.825592 Q 235.320317 92.991787 232.562661 94.184287 C 230.059288 95.271566 227.516458 95.863431 224.789491 95.973036 Q 224.294078 95.990573 224.228315 96.481602 L 224.039795 97.90208 Q 224.009105 98.138826 224.219547 98.235278 Z M 214.477876 91.768598 Q 213.929852 92.093028 212.838188 92.737504 Q 211.316874 93.636263 213.039861 94.035224 Q 215.560771 94.613937 218.932213 95.034819 C 220.273775 95.205803 220.756036 93.837936 220.115944 92.877798 Q 218.769998 90.852302 215.990421 91.238111 C 215.45555 91.312642 214.9426 91.492394 214.477876 91.768598 Z M 215.582692 99.940728 C 213.386212 99.155958 211.382637 98.55094 210.269053 96.442145 C 210.137527 96.192246 209.79556 96.152788 209.611424 96.367613 C 208.147105 98.077448 207.384256 102.825526 210.729393 103.163108 Q 213.710642 103.470002 215.718602 100.348458 Q 215.907122 100.059102 215.582692 99.940728 Z M 216.507756 98.783302 Q 216.626129 98.673697 216.770807 98.704387 Q 219.291717 99.186648 222.132672 100.225701 Q 222.242277 100.269543 222.268582 100.15117 L 222.299271 100.019644 Q 222.356266 99.774129 222.119519 99.673293 Q 217.156616 97.643413 211.860514 96.46845 Q 211.755293 96.446529 211.72022 96.551749 L 211.680762 96.678891 Q 211.671994 96.705196 211.698299 96.713964 Q 213.653648 97.538192 215.687912 98.480793 Q 216.257857 98.743845 216.249089 99.287484 Q 216.249089 99.467236 216.411304 99.546151 Q 216.529677 99.603146 216.665587 99.572456 C 216.775191 99.546151 216.832186 99.423394 216.78396 99.322558 Q 216.713813 99.173495 216.555982 99.103348 Q 216.288546 98.980591 216.507756 98.783302 Z M 252.506518 113.435924 C 252.975451 113.768465 253.676922 113.588713 254.072551 113.02986 C 254.466076 112.470745 254.404697 111.751737 253.935413 111.417881 C 253.46648 111.08534 252.76501 111.265092 252.369381 111.823945 C 251.975856 112.383061 252.037234 113.102068 252.506518 113.435924 Z" style="fill:#000000;"/>
	</g>
	<g id="surface4">
	</g>
</svg>
