<?xml version="1.0" encoding="utf-8"?>
<svg xmlns="http://www.w3.org/2000/svg" width="490pt" height="280pt" viewBox="0 0 490 280" version="1.1" xmlns:xlink="http://www.w3.org/1999/xlink">
	<g id="surface2">
		<path d="M 317.580655 82.857826 Q 316.863957 95.418116 313.009444 106.686542 Q 312.554732 108.01153 310.925599 111.579966 Q 309.769245 114.118523 308.618914 116.223448 C 307.330061 118.578315 306.149617 120.924147 304.662016 123.122423 Q 300.295576 129.572709 293.93262 135.231012 Q 285.15457 143.039411 275.409881 147.390794 Q 263.186861 152.847338 250.183905 153.82 C 240.017628 154.578858 229.378572 153.253869 219.862745 149.522821 C 211.647815 146.303701 204.396514 142.160101 197.858899 136.483729 Q 189.249485 129.006577 183.49783 120.231539 Q 178.188841 112.128029 175.605113 102.175558 Q 174.33734 97.279123 173.467064 91.888828 Q 172.102928 83.432991 172.663036 74.212275 Q 173.623653 58.411786 181.182111 44.550598 Q 186.960868 33.947678 195.60943 26.012803 C 204.896396 17.490717 215.975107 11.209066 228.22523 8.176649 C 235.572894 6.357801 243.339134 5.535706 251.171623 6.294563 Q 252.219569 6.396949 255.116476 6.815525 C 277.505772 10.058735 297.245091 24.458953 308.56471 44.005546 C 315.463685 55.918398 318.363603 69.177318 317.580655 82.857826 Z M 173.620642 88.576356 Q 174.490918 95.653 176.945159 102.437544 Q 181.645857 115.422433 190.366691 125.588709 Q 192.405367 127.964654 194.513303 130.144863 Q 203.652713 139.597452 215.866699 145.189506 Q 231.793665 152.479955 249.370843 151.344681 Q 265.409228 150.311792 279.532402 142.581688 Q 288.677835 137.576845 296.898787 129.343847 Q 302.382433 123.851167 306.125526 118.659621 Q 307.95642 116.124074 309.221181 113.657789 Q 313.343703 105.626551 315.045109 97.441735 Q 316.090043 92.412801 316.632084 88.362551 Q 317.878778 79.072574 316.614016 69.080956 Q 315.641354 61.362897 312.43729 53.163024 Q 311.341163 50.353446 309.955948 47.646253 Q 303.990488 35.968286 294.155459 26.630127 C 284.735994 17.689465 273.02189 11.263271 260.271886 8.31216 Q 248.175342 5.511615 236.479306 7.11967 Q 224.885656 8.715679 215.219262 13.335071 Q 200.514899 20.366545 189.656015 33.07439 Q 187.728759 35.329882 185.949059 37.904576 Q 170.193739 60.727505 173.620642 88.576356 Z M 177.158964 104.235313 Q 176.279653 101.988855 175.575 99.429218 Q 175.496705 99.146152 175.427444 99.432229 Q 175.361195 99.715295 175.46358 99.962224 Q 175.737612 100.615685 175.900224 101.362497 Q 176.065848 102.115331 176.291698 102.841063 Q 176.915045 104.834569 177.526347 106.698587 Q 179.839054 113.778242 183.795952 119.888246 C 187.177684 125.109906 191.221911 129.934069 195.850337 134.131874 Q 199.313376 137.272699 201.382165 138.838595 Q 209.133348 144.70167 219.106899 148.760953 Q 221.934545 149.911284 224.747134 150.66713 Q 229.661638 151.986096 234.314154 152.747964 Q 244.805655 154.470449 256.155387 152.663647 Q 270.507423 150.381053 282.501581 143.162876 C 285.675531 141.253688 288.62062 139.061434 291.508493 136.694523 C 296.880719 132.285924 301.515168 127.169661 305.122751 121.454142 Q 305.827404 120.333924 306.604329 119.147457 Q 306.637454 119.096265 306.586261 119.066151 L 306.513989 119.023993 C 306.438705 118.978822 306.342343 118.999902 306.294161 119.072174 C 303.168393 123.667475 299.428311 127.702668 295.474425 131.463829 Q 289.855268 136.802931 282.631069 141.289824 C 265.318888 152.034277 243.543905 154.792663 224.491171 148.965724 C 211.967017 145.135302 200.882283 137.917126 192.086165 128.103176 Q 188.210573 123.781906 185.825594 120.400174 Q 180.567798 112.950124 177.158964 104.235313 Z" style="fill:#7f7e7d;"/>
		<path d="M 245.43629 16.385707 C 245.46815 16.536123 245.332639 16.692713 245.133951 16.734962 C 244.935143 16.77703 244.74844 16.68669 244.717062 16.535972 C 244.685202 16.385556 244.820712 16.228966 245.0194 16.186717 C 245.218209 16.144649 245.404911 16.234989 245.43629 16.385707 Z" style="fill:#959493;"/>
		<path d="M 249.742623 16.439037 C 249.819533 16.581293 249.747261 16.771007 249.578716 16.863877 C 249.409991 16.95771 249.211242 16.918563 249.131562 16.777753 C 249.054653 16.635497 249.126925 16.445783 249.29547 16.352913 C 249.464195 16.25908 249.662943 16.298227 249.742623 16.439037 Z" style="fill:#7f7e7d;"/>
		<path d="M 240.9902 16.632847 C 241.014381 16.755951 240.824667 16.897483 240.564397 16.947381 C 240.303705 16.999869 240.074844 16.942654 240.050843 16.818827 C 240.026662 16.695724 240.216377 16.554191 240.476646 16.504293 C 240.737338 16.451805 240.9662 16.509021 240.9902 16.632847 Z" style="fill:#7f7e7d;"/>
		<path d="M 253.461595 17.140318 C 253.448195 17.291969 253.243424 17.397366 253.002727 17.375232 C 252.76161 17.355207 252.577918 17.213674 252.59162 17.064191 C 252.60502 16.91254 252.809791 16.807143 253.050487 16.829277 C 253.291605 16.849302 253.475297 16.990835 253.461595 17.140318 Z" style="fill:#959493;"/>
		<path d="M 183.627317 63.016121 Q 183.759816 63.473845 183.877258 63.01311 Q 184.473503 60.676312 185.199236 58.469001 Q 185.894855 56.361065 187.015072 54.051369 C 188.198528 51.612185 189.466301 49.28141 191.005095 47.104213 Q 191.405603 46.541092 190.857539 46.176721 Q 190.74612 46.098426 190.74612 45.959904 Q 190.74612 45.746099 190.908732 45.881609 Q 191.095435 46.04121 191.221911 46.252004 C 191.282138 46.35439 191.426682 46.363424 191.501965 46.270072 Q 192.453548 45.059514 193.408142 43.782707 Q 199.27724 35.935161 206.399053 30.222653 C 213.168541 24.793211 221.184722 20.854381 229.556241 18.526617 Q 232.067697 17.827987 236.461238 17.123334 Q 236.605783 17.099243 236.602771 17.246799 L 236.59976 17.334127 Q 236.593737 17.535887 236.394989 17.562989 C 220.751089 19.896776 206.600813 28.277329 196.582092 40.509383 C 194.311544 43.282825 192.00787 46.10746 190.264306 49.085673 C 188.171426 52.675188 186.274283 56.246634 185.054691 60.323985 Q 184.491571 62.218117 183.835099 63.95867 C 183.798963 64.052022 183.67851 64.073101 183.61226 63.997818 C 183.305104 63.648502 182.787154 63.229926 183.217775 62.733056 C 183.323172 62.612602 183.52192 62.654761 183.56709 62.81135 L 183.627317 63.016121 Z" style="fill:#959493;"/>
		<path d="M 257.182615 17.832414 C 257.149129 17.96952 256.908222 18.026735 256.647109 17.961811 C 256.38726 17.897248 256.200557 17.731624 256.236332 17.594699 C 256.269818 17.457592 256.510725 17.400377 256.771838 17.465301 C 257.031687 17.529864 257.21839 17.695488 257.182615 17.832414 Z" style="fill:#959493;"/>
		<path d="M 260.666281 18.551069 C 260.66336 18.695252 260.458589 18.806672 260.212262 18.800589 C 259.96473 18.794626 259.765981 18.674173 259.769083 18.532279 C 259.772004 18.388096 259.976775 18.276676 260.223102 18.282759 C 260.470634 18.288722 260.669383 18.409175 260.666281 18.551069 Z" style="fill:#7f7e7d;"/>
		<path d="M 264.261156 19.715523 C 264.183614 19.869674 263.912593 19.887742 263.651209 19.759037 C 263.391632 19.628767 263.241065 19.399905 263.317101 19.246899 C 263.394643 19.092749 263.665664 19.074681 263.927048 19.203385 C 264.186625 19.333656 264.337192 19.562517 264.261156 19.715523 Z" style="fill:#959493;"/>
		<path d="M 244.917075 19.731152 Q 245.167016 19.541438 245.459116 19.598653 C 246.139678 19.734164 246.811206 19.56854 247.395406 19.604676 Q 258.597582 20.294272 267.836367 24.332476 C 271.350598 25.865247 275.108747 27.765401 278.394117 29.963678 Q 290.063051 37.781111 297.672701 50.425718 Q 301.795223 57.279523 303.821853 64.253781 Q 310.564238 87.456139 298.753771 108.378914 Q 296.4772 112.417117 293.803132 115.841009 Q 290.698443 119.815974 286.690352 123.643385 Q 283.013509 127.157616 278.324856 130.247248 Q 273.693418 133.297734 270.673047 134.779312 Q 268.842153 135.67669 266.890806 136.471684 Q 248.831814 143.822359 230.459642 138.531439 Q 226.213656 137.308835 221.353357 135.155729 Q 216.270219 132.900237 211.774291 129.602822 Q 206.766437 125.925979 202.978174 122.28226 Q 197.756514 117.265371 193.194337 110.119467 Q 187.117458 100.606651 185.084805 89.061182 C 183.750782 81.469599 184.030836 74.046652 185.934002 66.72609 C 189.583743 52.678199 198.045602 39.898081 209.958455 31.357927 Q 221.756876 22.896068 235.994481 20.33342 Q 238.237928 19.929901 240.905973 19.74922 C 242.179769 19.664903 243.402372 19.975071 244.68219 19.824504 Q 244.811678 19.809447 244.917075 19.731152 Z M 272.260022 132.686432 C 276.560212 130.506223 280.866425 127.555112 284.63662 124.119176 Q 287.060747 121.905843 289.370443 119.556999 Q 291.454289 117.437018 293.194842 115.115276 Q 295.236529 112.396038 296.597654 110.245943 Q 302.006016 101.7088 304.312701 90.961336 Q 305.589508 85.022978 305.264284 78.593772 Q 304.701163 67.478924 300.659948 57.999233 Q 297.308329 50.142652 291.312756 42.794988 Q 289.388511 40.437111 287.060747 38.290027 Q 284.407758 35.844821 281.93545 33.857338 Q 269.832883 24.121683 254.420857 21.230799 Q 251.385428 20.661656 248.527669 20.505066 C 246.600413 20.399669 244.634009 20.188876 242.718798 20.387624 C 240.659043 20.598418 238.584231 20.709837 236.575669 21.07722 Q 219.088831 24.269238 206.242464 35.447324 Q 191.751906 48.061818 186.750074 67.406652 C 183.705612 79.183994 185.431109 92.382687 190.568451 103.10305 Q 192.405367 106.933471 194.320578 109.914696 C 198.533439 116.473389 203.878564 122.258169 210.121067 126.967902 Q 213.219733 129.307711 215.499316 130.680881 Q 219.371896 133.011656 224.680885 135.31533 Q 231.959288 138.471212 240.237456 139.467965 Q 243.077147 139.811257 246.05536 139.775121 C 254.216086 139.675747 261.876929 137.829797 269.05897 134.288464 Q 270.633899 133.511539 272.260022 132.686432 Z" style="fill:#959493;"/>
		<path d="M 266.857682 20.800177 Q 266.604729 20.634554 266.87575 20.499043 Q 267.158816 20.357511 267.508131 20.508077 C 267.655686 20.571316 267.6858 20.764041 267.568357 20.872449 Q 267.318416 21.095288 266.857682 20.800177 Z" style="fill:#7f7e7d;"/>
		<path d="M 270.842675 22.011307 C 270.81458 22.152268 270.606797 22.227551 270.378839 22.183465 C 270.149074 22.137211 269.986462 21.986644 270.015581 21.847551 C 270.043677 21.70659 270.251459 21.631306 270.479418 21.675392 C 270.709183 21.721647 270.871795 21.872213 270.842675 22.011307 Z" style="fill:#959493;"/>
		<path d="M 273.391622 23.428804 C 273.374217 23.55254 273.184502 23.630835 272.966753 23.601625 C 272.747858 23.570608 272.588258 23.447143 272.603977 23.320938 C 272.621382 23.197202 272.811097 23.118907 273.028846 23.148117 C 273.247741 23.179134 273.407341 23.302599 273.391622 23.428804 Z" style="fill:#959493;"/>
		<path d="M 276.244082 25.08254 C 276.186806 25.214798 275.963967 25.2419 275.748446 25.147796 C 275.533346 25.052186 275.403858 24.868495 275.461014 24.738766 C 275.518289 24.606508 275.741128 24.579406 275.95665 24.67351 C 276.171749 24.76912 276.301237 24.952812 276.244082 25.08254 Z" style="fill:#959493;"/>
		<path d="M 279.266291 26.926654 C 279.195133 27.024612 278.94218 26.961374 278.701243 26.786656 C 278.460366 26.612059 278.324856 26.38922 278.395231 26.291442 C 278.466389 26.193483 278.719341 26.256721 278.960278 26.431439 C 279.201155 26.606036 279.336665 26.828875 279.266291 26.926654 Z" style="fill:#959493;"/>
		<path d="M 281.702312 28.839997 C 281.604203 28.957891 281.387386 28.936812 281.217607 28.793081 C 281.050117 28.650735 280.992901 28.439941 281.090529 28.322951 C 281.188638 28.205057 281.405455 28.226136 281.575234 28.369867 C 281.742724 28.512213 281.79994 28.723007 281.702312 28.839997 Z" style="fill:#959493;"/>
		<path d="M 284.445249 30.846422 C 284.371622 30.972476 284.16384 30.987533 283.983762 30.881383 C 283.802479 30.773728 283.718162 30.587025 283.79209 30.460127 C 283.865717 30.334073 284.0735 30.319016 284.253578 30.425166 C 284.43486 30.532821 284.519178 30.719524 284.445249 30.846422 Z" style="fill:#959493;"/>
		<path d="M 286.850736 33.026269 C 286.768647 33.107515 286.590978 33.056322 286.451553 32.915632 C 286.313935 32.773256 286.268765 32.595587 286.349288 32.514221 C 286.431377 32.432975 286.609046 32.484168 286.748471 32.624857 C 286.886089 32.767234 286.931259 32.944902 286.850736 33.026269 Z" style="fill:#959493;"/>
		<path d="M 236.759361 42.403514 Q 236.434136 41.846417 235.822835 41.698861 C 233.609501 41.165855 231.432304 40.494326 229.197892 39.976376 Q 222.467552 38.419515 215.869711 37.043333 Q 215.854654 37.040322 215.854654 37.028276 Q 215.869711 36.962027 215.860677 37.007197 Q 215.857665 37.016231 215.863688 37.016231 Q 222.714481 38.070199 229.357493 39.479505 Q 232.320649 40.108875 235.124204 41.000231 Q 235.74454 41.195968 235.328975 40.696086 Q 232.937973 37.80219 230.598164 34.486707 Q 230.574073 34.450571 230.607198 34.423469 L 230.610209 34.420458 Q 230.649356 34.393356 230.67947 34.429492 Q 233.630581 37.86844 236.515442 41.367614 Q 236.822599 41.738009 237.00629 42.144539 C 237.084585 42.316186 237.268277 42.409537 237.451968 42.373401 Q 243.013909 41.247161 247.916367 43.090099 C 251.496848 44.436167 254.375687 47.610117 256.287886 50.820203 C 256.333056 50.898498 256.287886 50.997872 256.200557 51.012929 Q 248.611986 52.316838 241.761193 55.409482 Q 231.98639 59.815069 223.256522 66.95194 C 223.084876 67.090461 222.828912 67.021201 222.753629 66.813418 Q 220.633647 60.932276 222.648232 55.38238 C 224.891679 49.188058 230.562028 44.363895 236.699134 42.554081 Q 236.822599 42.514934 236.759361 42.403514 Z" style="fill:#000000;"/>
		<path d="M 288.834425 34.393356 Q 289.108457 34.571025 289.177717 34.706535 C 289.22891 34.805909 289.159649 34.926363 289.04823 34.935397 Q 288.942833 34.944431 288.84647 34.938408 Q 288.759141 34.935397 288.686869 34.881193 Q 288.479087 34.727614 288.55437 34.495741 C 288.593518 34.378299 288.732039 34.327106 288.834425 34.393356 Z" style="fill:#959493;"/>
		<path d="M 291.228438 37.180469 C 291.117019 37.257138 290.912248 37.145719 290.767734 36.936521 C 290.626171 36.727143 290.599069 36.49527 290.710488 36.41836 C 290.821908 36.341691 291.026679 36.453111 291.171193 36.662309 C 291.312756 36.871687 291.339858 37.10356 291.228438 37.180469 Z" style="fill:#959493;"/>
		<path d="M 292.9393 39.376698 C 292.860583 39.410245 292.734107 39.292802 292.659125 39.115826 C 292.58354 38.937465 292.586552 38.765818 292.667436 38.733115 C 292.746153 38.699569 292.872629 38.817011 292.947611 38.993987 C 293.023196 39.172349 293.020184 39.343995 292.9393 39.376698 Z" style="fill:#959493;"/>
		<path d="M 295.031758 40.831596 C 294.929372 40.90688 294.911304 41.051424 294.989599 41.153809 C 296.925889 43.665265 298.958542 46.182743 300.581653 48.832721 Q 307.405345 59.97467 309.025445 73.441373 C 309.03749 73.540747 308.94715 73.619042 308.850787 73.597962 L 308.733345 73.57086 C 308.624937 73.54677 308.54363 73.459441 308.528574 73.348021 C 307.321027 64.329065 304.46929 55.92141 299.593935 48.206362 C 298.338207 46.221891 296.540438 43.864013 295.034769 41.728975 Q 294.685454 41.232104 294.426479 40.665972 Q 294.354207 40.506372 294.483694 40.385918 Q 294.751704 40.132966 295.170279 40.18717 Q 295.429255 40.220294 295.323858 40.45819 Q 295.230506 40.678018 295.031758 40.831596 Z" style="fill:#959493;"/>
		<path d="M 300.403984 45.610589 C 300.403984 45.749111 300.289554 45.863541 300.151032 45.863541 C 300.012511 45.863541 299.89808 45.749111 299.89808 45.610589 C 299.89808 45.472068 300.012511 45.357637 300.151032 45.357637 C 300.289554 45.357637 300.403984 45.472068 300.403984 45.610589 Z" style="fill:#959493;"/>
		<path d="M 189.18971 48.300527 C 189.3067 48.414145 189.285621 48.621927 189.148725 48.760599 C 189.011589 48.89897 188.803807 48.920049 188.688924 48.804805 C 188.571934 48.691188 188.593013 48.483405 188.729909 48.344733 C 188.867045 48.206362 189.074827 48.185283 189.18971 48.300527 Z" style="fill:#959493;"/>
		<path d="M 303.238045 50.328121 C 303.114188 50.404639 302.930497 50.335378 302.828744 50.170869 C 302.725726 50.007142 302.746805 49.811405 302.869879 49.734345 C 302.993735 49.657827 303.177427 49.727088 303.27918 49.891597 C 303.382198 50.055324 303.361118 50.251061 303.238045 50.328121 Z" style="fill:#959493;"/>
		<path d="M 266.216267 64.178498 Q 266.990181 62.916747 266.999215 62.06755 Q 267.020294 60.474552 266.969101 60.071033 C 266.863704 59.263995 266.261437 58.348548 265.565818 57.875768 Q 262.647832 55.891296 259.624448 57.505373 Q 259.229963 57.713156 259.660584 57.833609 C 260.937392 58.185936 261.852838 57.541509 263.057373 57.643895 Q 265.460421 57.845654 266.658933 59.911432 Q 266.69507 59.97467 266.683024 60.046942 Q 266.680013 60.068022 266.683024 60.08609 Q 266.722172 60.323985 266.568593 60.140294 C 265.586897 58.956838 263.765038 58.092584 262.268403 58.252185 Q 261.69926 58.312412 262.26238 58.405763 Q 264.575088 58.791215 266.225301 60.471541 Q 266.273482 60.519722 266.228312 60.567904 L 266.225301 60.570915 Q 266.180131 60.622108 266.128938 60.579949 C 264.852131 59.56814 262.876693 58.998997 261.274662 59.59223 C 261.163242 59.631378 261.184321 59.797001 261.301764 59.809047 C 263.361519 60.028874 264.906335 60.146317 266.366834 61.724257 Q 266.442117 61.805564 266.351777 61.86579 L 266.261437 61.926017 C 266.24638 61.935051 266.225301 61.935051 266.213255 61.923006 Q 265.303831 61.037672 264.069183 60.703414 Q 262.012439 60.146317 259.883423 60.787731 Q 258.811387 60.691369 258.160938 61.651985 Q 257.676113 61.742326 257.341854 62.197038 C 257.272594 62.2934 257.179242 62.371695 257.070834 62.419877 C 256.333056 62.751124 255.830163 63.362425 255.134544 63.768956 Q 253.836657 64.52179 252.430363 64.976502 Q 252.397238 64.985536 252.385192 64.955423 L 252.385192 64.952412 Q 252.370136 64.919287 252.406272 64.90423 Q 254.604548 63.970715 256.531805 62.329536 C 257.290662 61.68511 257.694181 60.89614 258.00736 59.986716 C 258.805365 57.680031 255.697664 57.523441 254.366653 57.749292 Q 250.223052 58.450933 246.127633 60.778697 Q 245.633773 61.058752 241.005347 63.988783 Q 237.063506 66.482171 233.522173 69.306806 Q 232.959053 69.752484 232.362808 70.387876 Q 232.257411 70.502307 232.272467 70.658897 C 232.317638 71.107586 232.076731 71.535196 232.03156 71.986897 Q 231.658155 75.823341 235.250681 77.855994 Q 236.551578 78.59076 237.445946 79.765182 Q 237.834408 80.277109 237.849465 80.927558 Q 237.915714 83.887703 236.093855 86.013708 Q 236.054708 86.061889 236.099878 86.104048 L 236.099878 86.104048 Q 236.129991 86.13115 236.157093 86.104048 Q 238.382472 83.953953 238.262018 80.95466 Q 238.237928 80.415631 238.475823 80.900456 C 239.397293 82.791577 238.584231 85.218715 237.039415 86.588873 Q 237.003279 86.618987 237.033393 86.658134 L 237.036404 86.658134 Q 237.066517 86.697282 237.105665 86.67018 C 237.831397 86.191377 238.084349 85.634279 238.533039 84.965762 C 239.162408 84.026225 239.361157 82.716293 239.153374 81.668348 Q 239.050989 81.150397 238.656504 80.539096 Q 238.328268 80.03018 238.024123 79.482116 Q 237.90668 79.268311 238.10844 79.406833 C 239.797801 80.557164 239.894163 82.162207 239.794789 84.008157 Q 239.794789 84.023214 239.809846 84.026225 L 239.888141 84.029236 Q 239.930299 84.032248 239.939333 83.990089 C 240.198308 82.490443 240.270581 81.093182 239.574962 79.64774 Q 239.469565 79.424901 239.671324 79.563422 Q 240.062798 79.831431 240.324785 80.246996 C 240.366943 80.313246 240.436204 80.361427 240.514499 80.373472 Q 240.806599 80.421654 240.957166 80.680629 C 243.062091 84.360484 240.330807 87.546479 236.921973 88.705844 Q 236.882826 88.717889 236.900894 88.754025 L 236.940041 88.829309 Q 236.96112 88.868456 236.970154 88.865445 Q 238.831161 88.305336 240.204331 87.061653 C 242.375506 85.101273 242.854308 82.379023 241.089664 79.897681 Q 240.710236 79.364674 241.195061 79.804329 Q 243.212658 81.638234 242.730844 84.288211 C 242.351415 86.357 240.740349 87.850624 238.903433 88.83232 Q 237.704921 89.473735 236.563624 89.187658 C 235.90113 89.022034 235.398236 89.160556 234.723696 88.904592 Q 232.272467 87.980111 231.263669 87.946987 Q 228.854599 87.874715 226.355189 87.591649 C 224.271343 87.353753 222.53079 86.453363 221.531026 84.526107 Q 221.043189 83.583558 221.097393 82.64101 Q 221.115461 82.339876 221.250971 82.607885 Q 221.479833 83.056574 221.654491 83.517309 C 222.482608 85.697517 225.493946 86.405182 227.532622 86.064901 Q 228.128867 85.962515 227.535633 85.857118 Q 223.955153 85.212692 223.491407 81.484656 Q 223.47635 81.31301 223.629928 81.40335 C 224.521284 83.773273 227.135125 85.089227 229.529139 84.053327 C 231.369066 83.255323 231.890028 82.150162 232.100821 80.246996 Q 232.136957 79.936828 232.245365 80.228928 C 232.989166 82.252547 232.257411 83.646796 231.182363 85.34218 Q 231.149239 85.396384 231.170318 85.45661 Q 231.182363 85.498769 231.251624 85.501781 Q 231.305828 85.504792 231.344975 85.465644 Q 233.013257 83.670887 233.248141 81.677382 C 233.332458 80.945626 233.227062 80.25603 233.227062 79.533309 Q 233.22405 79.292402 233.344504 79.500184 C 234.464721 81.415395 233.955805 83.469128 232.510363 85.047069 Q 232.468204 85.092239 232.516386 85.137409 L 232.516386 85.14042 Q 232.543488 85.164511 232.57059 85.14042 Q 234.922445 83.02345 234.527959 79.948874 Q 234.497846 79.717001 234.654436 79.891658 C 235.651188 81.017899 235.211533 82.966234 234.455687 84.164747 Q 234.187678 84.595368 233.949783 85.044057 Q 233.729955 85.459622 234.061202 85.125363 C 235.572894 83.589581 236.428114 80.786026 235.127216 78.825645 Q 235.124204 78.819622 235.130227 78.816611 L 235.190454 78.771441 C 235.223579 78.74735 235.268749 78.753373 235.292839 78.783486 Q 237.030381 80.807105 236.151071 83.423957 C 235.958345 83.996112 235.509656 84.541164 235.220567 85.080193 Q 235.033864 85.429508 235.310907 85.149454 Q 237.16288 83.279413 236.918962 80.635459 Q 236.912939 80.54813 236.994245 80.524039 Q 237.042427 80.511994 237.07254 80.539096 Q 237.192993 80.647504 237.147823 80.813128 Q 237.123733 80.900456 237.192993 80.969717 Q 237.304413 81.081137 237.328504 80.924547 Q 237.370662 80.68364 237.259243 80.466824 C 236.78044 79.51223 236.187207 78.581726 235.211533 78.127014 C 232.383887 76.814071 230.110327 73.878017 232.010481 70.782362 Q 232.176105 70.511341 231.902073 70.670942 C 230.14044 71.70082 229.830273 72.902343 229.529139 74.793463 Q 229.411697 75.540275 229.3063 74.793463 Q 229.113574 73.438361 229.553229 72.372348 Q 229.815216 71.733944 229.324368 72.21877 Q 225.668604 75.84442 222.136305 78.988257 C 220.913701 80.07535 220.350581 80.828184 220.248196 82.466352 C 220.079561 85.236783 221.229892 86.673191 223.452259 87.986134 Q 224.108731 88.374597 225.084404 88.410733 C 225.156676 88.413744 225.213892 88.47096 225.21088 88.543232 L 225.207869 88.636583 Q 225.204858 88.723912 225.12054 88.720901 L 223.629928 88.720901 L 222.503688 87.850624 C 222.277837 87.675966 221.979715 87.624774 221.708695 87.712102 Q 215.068695 89.856175 207.992051 90.509635 Q 207.290409 90.575885 206.329793 90.527703 C 205.110201 90.470488 204.453729 89.93447 205.034917 88.648628 C 206.326781 85.796892 208.537103 83.216175 210.720323 80.831196 Q 215.550509 75.552321 219.663996 71.709854 Q 228.851588 63.130552 240.15615 57.529464 Q 241.113755 57.053673 242.110508 56.659187 Q 242.763968 56.403224 243.414417 56.068965 Q 244.179297 55.67448 244.935143 55.38238 Q 252.026843 52.639051 257.784521 51.711559 Q 265.88502 50.404639 274.121028 50.705773 C 277.379296 50.826226 280.80921 51.256847 283.847649 52.428258 Q 284.86247 52.819732 285.726724 53.575577 Q 286.789726 54.509092 286.079051 55.773854 C 284.86247 57.939006 282.351015 59.806035 280.318362 61.152103 Q 274.735341 64.850026 268.179659 68.096248 C 267.815287 68.276928 267.435859 68.529881 267.110634 68.770788 Q 266.902852 68.927377 266.896829 68.668402 Q 266.845636 66.352684 266.216267 64.178498 Z M 240.412113 80.463812 L 240.330807 80.493926 C 240.285637 80.511994 240.261547 80.560175 240.276603 80.605345 Q 240.887905 82.514533 240.255524 84.264121 Q 240.183252 84.459858 240.375977 84.381563 L 240.565692 84.306279 C 240.604839 84.291223 240.634952 84.261109 240.650009 84.221962 Q 241.333583 82.427205 240.532567 80.515005 Q 240.496431 80.430688 240.412113 80.463812 Z M 236.370898 88.058406 L 234.817048 88.353517 Q 234.536993 88.407721 234.823071 88.425789 Q 235.684313 88.486016 236.370898 88.058406 Q 238.831161 87.260402 240.092912 84.872411 Q 240.309728 84.462869 240.038708 84.179803 Q 239.903197 84.035259 239.867061 84.230996 Q 239.734562 84.93866 239.270816 85.595132 Q 238.144576 87.18813 236.370898 88.058406 Z" style="fill:#000000;"/>
		<path d="M 186.591949 52.757216 C 186.497122 52.68121 186.545303 52.464394 186.699695 52.27486 C 186.85246 52.084965 187.05422 51.991614 187.149107 52.069186 C 187.243934 52.145192 187.195752 52.362008 187.041361 52.551542 C 186.888596 52.741437 186.686836 52.834788 186.591949 52.757216 Z" style="fill:#959493;"/>
		<path d="M 304.815414 53.768815 C 304.680084 53.801428 304.532529 53.662906 304.47983 53.458798 C 304.427132 53.253364 304.496393 53.060639 304.629072 53.027002 C 304.764402 52.994389 304.911957 53.132911 304.964656 53.337019 C 305.017354 53.542453 304.948093 53.735178 304.815414 53.768815 Z" style="fill:#959493;"/>
		<path d="M 185.483325 56.26151 C 185.355825 56.219532 185.295598 56.047886 185.34917 55.877775 C 185.404006 55.707605 185.551562 55.602208 185.680026 55.641536 C 185.807526 55.683514 185.867752 55.85516 185.814181 56.025271 C 185.759344 56.195441 185.611789 56.300838 185.483325 56.26151 Z" style="fill:#959493;"/>
		<path d="M 306.624595 57.803164 C 306.510977 57.806507 306.408592 57.535487 306.396667 57.19909 C 306.384501 56.860947 306.468819 56.583904 306.584063 56.581224 C 306.69768 56.577881 306.800066 56.848902 306.811991 57.185298 C 306.824157 57.523441 306.739839 57.800484 306.624595 57.803164 Z" style="fill:#959493;"/>
		<path d="M 266.216267 64.178498 C 265.623033 62.995042 265.68326 61.904938 264.120376 61.371931 Q 262.066643 60.667278 259.883423 60.787731 Q 262.012439 60.146317 264.069183 60.703414 Q 265.303831 61.037672 266.213255 61.923006 C 266.225301 61.935051 266.24638 61.935051 266.261437 61.926017 L 266.351777 61.86579 Q 266.442117 61.805564 266.366834 61.724257 C 264.906335 60.146317 263.361519 60.028874 261.301764 59.809047 C 261.184321 59.797001 261.163242 59.631378 261.274662 59.59223 C 262.876693 58.998997 264.852131 59.56814 266.128938 60.579949 Q 266.180131 60.622108 266.225301 60.570915 L 266.228312 60.567904 Q 266.273482 60.519722 266.225301 60.471541 Q 264.575088 58.791215 262.26238 58.405763 Q 261.69926 58.312412 262.268403 58.252185 C 263.765038 58.092584 265.586897 58.956838 266.568593 60.140294 Q 266.722172 60.323985 266.683024 60.08609 Q 266.680013 60.068022 266.683024 60.046942 Q 266.69507 59.97467 266.658933 59.911432 Q 265.460421 57.845654 263.057373 57.643895 C 261.852838 57.541509 260.937392 58.185936 259.660584 57.833609 Q 259.229963 57.713156 259.624448 57.505373 Q 262.647832 55.891296 265.565818 57.875768 C 266.261437 58.348548 266.863704 59.263995 266.969101 60.071033 Q 267.020294 60.474552 266.999215 62.06755 Q 266.990181 62.916747 266.216267 64.178498 Z" style="fill:#dc6b27;"/>
		<path d="M 258.160938 61.651985 Q 256.224648 64.235713 253.132004 65.307749 Q 251.915424 65.726325 250.680775 66.105754 C 250.590435 66.132856 250.509129 66.190071 250.454925 66.271378 L 249.852657 67.168756 Q 248.967324 67.490969 248.250626 67.728865 Q 246.814218 68.201645 245.362753 68.61721 C 244.125093 68.972548 241.420912 70.092765 241.113755 71.538207 Q 240.29166 75.41681 243.718562 76.841173 L 243.869129 76.916457 Q 243.998617 76.982706 244.016685 76.838162 Q 244.02873 76.753844 244.064866 76.681572 Q 244.709292 77.46452 246.618481 79.448992 C 248.081991 80.966706 249.479251 83.643785 249.440104 85.848084 Q 249.388911 88.666697 247.606199 90.38617 Q 246.326381 91.620819 243.604132 92.762116 Q 239.858027 93.463758 236.235388 91.786442 Q 235.449429 91.419059 233.576377 90.410261 Q 233.56132 90.404238 233.546263 90.401227 Q 233.531207 90.401227 233.513139 90.401227 Q 233.428821 90.404238 233.501093 90.449408 Q 234.735742 91.184175 236.084821 92.247177 Q 236.385955 92.482061 236.208286 92.819331 C 235.732495 93.713699 233.684785 94.186479 232.630817 94.376193 C 231.784631 94.529771 231.13117 93.89739 230.625266 93.325236 Q 230.616232 93.313191 230.601175 93.322225 L 230.598164 93.325236 Q 230.562028 93.349327 230.583107 93.388474 Q 231.13117 94.418352 231.98639 95.165163 Q 232.127923 95.29164 231.992413 95.424138 L 231.929175 95.490388 Q 231.841846 95.574705 231.745483 95.502433 Q 230.14044 94.27983 229.48698 92.370642 C 229.474935 92.337517 229.44181 92.319449 229.408685 92.325472 C 229.375561 92.334506 229.35147 92.364619 229.354481 92.397744 C 229.414708 93.704665 230.107316 94.821871 231.019751 95.779476 Q 231.089012 95.851748 231.019751 95.921009 L 230.962536 95.978225 Q 230.881229 96.059531 230.790889 95.99027 Q 228.884713 94.499658 228.568522 92.093599 Q 228.568522 92.07252 228.526363 92.078542 L 228.45108 92.087576 Q 228.396876 92.09661 228.393864 92.150814 C 228.354717 93.795005 228.966019 94.749599 229.848341 96.023395 Q 230.0501 96.315494 229.739932 96.143848 C 228.38483 95.388002 227.601883 93.328247 227.463361 91.912919 Q 227.454327 91.831613 227.376032 91.834624 L 227.294726 91.837635 Q 227.270635 91.837635 227.267624 91.861726 Q 227.150182 94.81886 229.279198 96.297426 Q 230.47771 97.125544 232.36883 97.748891 Q 233.187914 98.019912 234.187678 98.08315 Q 235.088068 98.143376 235.985447 98.242751 L 236.394989 98.266841 C 236.44317 98.269853 236.482318 98.309 236.482318 98.357181 L 236.482318 98.501726 Q 236.482318 98.616156 236.364876 98.616156 L 234.940513 98.616156 C 232.492295 98.486669 229.929647 97.399576 228.06864 95.951123 C 226.6503 94.845962 226.123316 92.629617 226.189565 90.669236 Q 226.213656 89.946515 225.822182 90.554805 Q 225.328323 91.319685 225.373493 92.644674 Q 224.972985 91.358832 225.310255 90.021799 C 225.370481 89.77788 225.25605 89.527939 225.033211 89.41652 L 223.629928 88.720901 L 225.12054 88.720901 Q 225.204858 88.723912 225.207869 88.636583 L 225.21088 88.543232 C 225.213892 88.47096 225.156676 88.413744 225.084404 88.410733 Q 224.108731 88.374597 223.452259 87.986134 C 221.229892 86.673191 220.079561 85.236783 220.248196 82.466352 C 220.350581 80.828184 220.913701 80.07535 222.136305 78.988257 Q 225.668604 75.84442 229.324368 72.21877 Q 229.815216 71.733944 229.553229 72.372348 Q 229.113574 73.438361 229.3063 74.793463 Q 229.411697 75.540275 229.529139 74.793463 C 229.830273 72.902343 230.14044 71.70082 231.902073 70.670942 Q 232.176105 70.511341 232.010481 70.782362 C 230.110327 73.878017 232.383887 76.814071 235.211533 78.127014 C 236.187207 78.581726 236.78044 79.51223 237.259243 80.466824 Q 237.370662 80.68364 237.328504 80.924547 Q 237.304413 81.081137 237.192993 80.969717 Q 237.123733 80.900456 237.147823 80.813128 Q 237.192993 80.647504 237.07254 80.539096 Q 237.042427 80.511994 236.994245 80.524039 Q 236.912939 80.54813 236.918962 80.635459 Q 237.16288 83.279413 235.310907 85.149454 Q 235.033864 85.429508 235.220567 85.080193 C 235.509656 84.541164 235.958345 83.996112 236.151071 83.423957 Q 237.030381 80.807105 235.292839 78.783486 C 235.268749 78.753373 235.223579 78.74735 235.190454 78.771441 L 235.130227 78.816611 Q 235.124204 78.819622 235.127216 78.825645 C 236.428114 80.786026 235.572894 83.589581 234.061202 85.125363 Q 233.729955 85.459622 233.949783 85.044057 Q 234.187678 84.595368 234.455687 84.164747 C 235.211533 82.966234 235.651188 81.017899 234.654436 79.891658 Q 234.497846 79.717001 234.527959 79.948874 Q 234.922445 83.02345 232.57059 85.14042 Q 232.543488 85.164511 232.516386 85.14042 L 232.516386 85.137409 Q 232.468204 85.092239 232.510363 85.047069 C 233.955805 83.469128 234.464721 81.415395 233.344504 79.500184 Q 233.22405 79.292402 233.227062 79.533309 C 233.227062 80.25603 233.332458 80.945626 233.248141 81.677382 Q 233.013257 83.670887 231.344975 85.465644 Q 231.305828 85.504792 231.251624 85.501781 Q 231.182363 85.498769 231.170318 85.45661 Q 231.149239 85.396384 231.182363 85.34218 C 232.257411 83.646796 232.989166 82.252547 232.245365 80.228928 Q 232.136957 79.936828 232.100821 80.246996 C 231.890028 82.150162 231.369066 83.255323 229.529139 84.053327 C 227.135125 85.089227 224.521284 83.773273 223.629928 81.40335 L 223.488395 80.960683 Q 223.443225 80.816139 223.404078 80.963694 Q 223.349874 81.159431 223.491407 81.484656 Q 223.955153 85.212692 227.535633 85.857118 Q 228.128867 85.962515 227.532622 86.064901 C 225.493946 86.405182 222.482608 85.697517 221.654491 83.517309 Q 221.479833 83.056574 221.250971 82.607885 Q 221.115461 82.339876 221.097393 82.64101 Q 221.043189 83.583558 221.531026 84.526107 C 222.53079 86.453363 224.271343 87.353753 226.355189 87.591649 Q 228.854599 87.874715 231.263669 87.946987 Q 232.272467 87.980111 234.723696 88.904592 C 235.398236 89.160556 235.90113 89.022034 236.563624 89.187658 Q 237.704921 89.473735 238.903433 88.83232 C 240.740349 87.850624 242.351415 86.357 242.730844 84.288211 Q 243.212658 81.638234 241.195061 79.804329 Q 240.710236 79.364674 241.089664 79.897681 C 242.854308 82.379023 242.375506 85.101273 240.204331 87.061653 Q 238.831161 88.305336 236.970154 88.865445 Q 236.96112 88.868456 236.940041 88.829309 L 236.900894 88.754025 Q 236.882826 88.717889 236.921973 88.705844 C 240.330807 87.546479 243.062091 84.360484 240.957166 80.680629 Q 240.806599 80.421654 240.514499 80.373472 C 240.436204 80.361427 240.366943 80.313246 240.324785 80.246996 Q 240.062798 79.831431 239.671324 79.563422 Q 239.469565 79.424901 239.574962 79.64774 C 240.270581 81.093182 240.198308 82.490443 239.939333 83.990089 Q 239.930299 84.032248 239.888141 84.029236 L 239.809846 84.026225 Q 239.794789 84.023214 239.794789 84.008157 C 239.894163 82.162207 239.797801 80.557164 238.10844 79.406833 Q 237.90668 79.268311 238.024123 79.482116 Q 238.328268 80.03018 238.656504 80.539096 Q 239.050989 81.150397 239.153374 81.668348 C 239.361157 82.716293 239.162408 84.026225 238.533039 84.965762 C 238.084349 85.634279 237.831397 86.191377 237.105665 86.67018 Q 237.066517 86.697282 237.036404 86.658134 L 237.033393 86.658134 Q 237.003279 86.618987 237.039415 86.588873 C 238.584231 85.218715 239.397293 82.791577 238.475823 80.900456 Q 238.237928 80.415631 238.262018 80.95466 Q 238.382472 83.953953 236.157093 86.104048 Q 236.129991 86.13115 236.099878 86.104048 L 236.099878 86.104048 Q 236.054708 86.061889 236.093855 86.013708 Q 237.915714 83.887703 237.849465 80.927558 Q 237.834408 80.277109 237.445946 79.765182 Q 236.551578 78.59076 235.250681 77.855994 Q 231.658155 75.823341 232.03156 71.986897 C 232.076731 71.535196 232.317638 71.107586 232.272467 70.658897 Q 232.257411 70.502307 232.362808 70.387876 Q 232.959053 69.752484 233.522173 69.306806 Q 237.063506 66.482171 241.005347 63.988783 Q 245.633773 61.058752 246.127633 60.778697 Q 250.223052 58.450933 254.366653 57.749292 C 255.697664 57.523441 258.805365 57.680031 258.00736 59.986716 C 257.694181 60.89614 257.290662 61.68511 256.531805 62.329536 Q 254.604548 63.970715 252.406272 64.90423 Q 252.370136 64.919287 252.385192 64.952412 L 252.385192 64.955423 Q 252.397238 64.985536 252.430363 64.976502 Q 253.836657 64.52179 255.134544 63.768956 C 255.830163 63.362425 256.333056 62.751124 257.070834 62.419877 C 257.179242 62.371695 257.272594 62.2934 257.341854 62.197038 Q 257.676113 61.742326 258.160938 61.651985 Z M 251.189691 62.02238 Q 251.177646 62.02238 251.165601 62.025391 Q 251.150544 62.028403 251.144521 62.040448 Q 251.132476 62.055505 251.150544 62.061527 Q 251.168612 62.064539 251.18668 62.058516 Q 252.749564 61.600793 253.767396 61.082843 Q 255.05926 60.42336 256.028911 58.649682 C 256.101183 58.514171 256.007832 58.351559 255.854254 58.348548 L 255.658517 58.342525 Q 255.342326 58.336503 255.254997 58.640648 C 254.965909 59.679559 253.55058 60.733527 252.55985 61.242443 Q 251.858208 61.600793 251.213782 62.013346 Q 251.201737 62.02238 251.189691 62.02238 Z M 254.150017 59.313019 C 254.128757 59.27604 254.080576 59.263995 254.043054 59.284351 L 250.579775 61.283879 C 250.542254 61.305682 250.530208 61.353863 250.551107 61.390842 L 250.6023 61.479496 C 250.62356 61.516475 250.671741 61.528521 250.709263 61.508164 L 254.172542 59.508636 C 254.210063 59.486834 254.222108 59.438652 254.20121 59.401673 L 254.150017 59.313019 Z M 249.015505 64.548892 Q 248.919143 64.563949 248.852893 64.63321 Q 248.792666 64.699459 248.879995 64.696448 Q 250.183905 64.684403 251.490825 64.133328 C 253.30365 63.368448 255.565165 62.272321 256.34209 60.411314 Q 256.375215 60.336031 256.330045 60.26677 Q 256.321011 60.254725 256.305954 60.251713 Q 256.242716 60.239668 256.197546 60.296883 Q 253.493365 63.886398 249.015505 64.548892 Z M 240.174218 75.940783 C 239.186499 74.757327 238.539061 73.6612 238.710708 72.047123 Q 239.072068 68.632266 241.426934 66.003368 C 242.345392 64.973491 243.607143 64.247759 244.70327 63.401573 Q 244.754463 63.359414 244.718326 63.302198 L 244.679179 63.23896 Q 244.670145 63.223904 244.652077 63.232938 C 241.183016 65.109001 237.668785 67.195858 237.810318 71.646615 C 237.864522 73.323931 238.638436 75.160847 240.008594 76.124475 Q 240.779497 76.663504 240.174218 75.940783 Z M 248.563805 64.991559 Q 248.605964 64.961446 248.627043 64.913264 Q 248.669202 64.798833 248.545737 64.798833 Q 247.907333 64.798833 247.205691 65.112012 Q 246.994898 65.208375 247.22376 65.235477 Q 247.892276 65.316783 248.473465 65.187296 Q 248.491533 65.184285 248.506589 65.172239 Q 248.548748 65.148149 248.527669 65.099967 C 248.512612 65.06082 248.527669 65.01565 248.563805 64.991559 Z M 241.204095 75.784194 C 238.698662 71.74599 242.179769 67.755967 245.871669 66.482171 C 245.916839 66.467114 245.913828 66.403876 245.868658 66.391831 Q 244.88395 66.129845 243.881175 66.515296 C 240.806599 67.707786 239.087125 70.345718 239.764676 73.619042 C 239.948367 74.498352 240.496431 75.257209 241.161937 75.82033 Q 241.300458 75.940783 241.204095 75.784194 Z M 245.600648 85.233771 C 245.91985 84.435767 245.567524 82.631976 245.344685 81.963459 Q 245.01946 80.984774 243.986571 79.813363 Q 243.980549 79.804329 243.968503 79.810352 L 243.908277 79.855522 Q 243.860095 79.891658 243.89322 79.942851 Q 245.389855 82.360955 244.92912 85.041046 Q 244.630998 86.78461 242.950671 88.431812 C 242.438744 88.931694 241.773238 89.220783 241.225175 89.681517 C 240.836712 90.006742 240.312739 90.106116 239.824903 90.033844 Q 239.758653 90.02481 239.701438 89.988674 Q 239.553882 89.8893 239.734562 89.892311 Q 239.97547 89.898334 240.213365 89.804982 C 243.498735 88.543232 245.733147 85.194624 243.89322 81.779767 C 243.583052 81.207613 243.245782 80.460801 242.697719 80.072339 Q 242.495959 79.927794 242.631469 80.135577 C 243.396349 81.273862 243.315043 82.764474 243.098227 84.152701 C 242.715787 86.621998 240.42717 88.455903 238.255996 89.482769 C 237.397764 89.8893 236.909928 89.473735 236.096866 89.482769 Q 235.816812 89.48578 236.075787 89.591177 C 239.201556 90.864973 243.275896 91.328719 245.820476 88.904592 Q 247.699551 87.109835 247.609211 84.664629 C 247.500803 81.689427 245.441048 79.223141 243.019932 77.597019 Q 242.980785 77.569917 242.953683 77.606053 L 242.950671 77.609064 Q 242.932603 77.630144 242.953683 77.651223 Q 243.670381 78.395023 244.459351 79.147858 C 246.59439 81.183522 247.684494 84.628493 245.46815 87.179096 Q 244.79361 87.953009 244.031741 88.69681 Q 242.962717 89.741744 241.601592 89.994696 Q 241.583524 89.997708 241.577501 89.97964 L 241.55341 89.898334 Q 241.532331 89.832084 241.598581 89.817028 Q 242.782036 89.570098 243.610154 88.78715 C 245.507297 86.998415 246.753991 85.577064 246.022236 82.683168 Q 245.904794 82.2134 245.889737 82.698225 C 245.871669 83.333617 245.892748 84.866388 245.609682 85.348202 Q 245.441048 85.631268 245.600648 85.233771 Z M 224.732078 85.010932 L 222.89215 83.032484 C 222.880105 83.017427 222.856014 83.014416 222.840958 83.029472 L 222.837946 83.032484 C 222.705447 83.155948 223.009593 83.694978 223.515497 84.24003 L 223.572713 84.303268 C 224.078617 84.84832 224.596568 85.188601 224.729066 85.065137 L 224.732078 85.062125 C 224.747134 85.05008 224.747134 85.025989 224.732078 85.010932 Z" style="fill:#dc6b27;"/>
		<path d="M 251.213782 62.013346 Q 251.858208 61.600793 252.55985 61.242443 C 253.55058 60.733527 254.965909 59.679559 255.254997 58.640648 Q 255.342326 58.336503 255.658517 58.342525 L 255.854254 58.348548 C 256.007832 58.351559 256.101183 58.514171 256.028911 58.649682 Q 255.05926 60.42336 253.767396 61.082843 Q 252.749564 61.600793 251.18668 62.058516 Q 251.168612 62.064539 251.150544 62.061527 Q 251.132476 62.055505 251.144521 62.040448 Q 251.150544 62.028403 251.165601 62.025391 Q 251.177646 62.02238 251.189691 62.02238 Q 251.201737 62.02238 251.213782 62.013346 Z" style="fill:#000000;"/>
		<path d="M 184.053391 59.604366 C 183.871236 59.574162 183.756805 59.360357 183.794597 59.12996 C 183.835099 58.899623 184.012768 58.73701 184.194984 58.767033 C 184.37714 58.797237 184.491571 59.011042 184.453779 59.24144 C 184.413276 59.471777 184.235607 59.634389 184.053391 59.604366 Z" style="fill:#959493;"/>
		<path d="M 254.20121 59.401673 C 254.222108 59.438652 254.210063 59.486834 254.172542 59.508636 L 250.709263 61.508164 C 250.671741 61.528521 250.62356 61.516475 250.6023 61.479496 L 250.551107 61.390842 C 250.530208 61.353863 250.542254 61.305682 250.579775 61.283879 L 254.043054 59.284351 C 254.080576 59.263995 254.128757 59.27604 254.150017 59.313019 L 254.20121 59.401673 Z" style="fill:#000000;"/>
		<path d="M 249.015505 64.548892 Q 253.493365 63.886398 256.197546 60.296883 Q 256.242716 60.239668 256.305954 60.251713 Q 256.321011 60.254725 256.330045 60.26677 Q 256.375215 60.336031 256.34209 60.411314 C 255.565165 62.272321 253.30365 63.368448 251.490825 64.133328 Q 250.183905 64.684403 248.879995 64.696448 Q 248.792666 64.699459 248.852893 64.63321 Q 248.919143 64.563949 249.015505 64.548892 Z" style="fill:#000000;"/>
		<path d="M 308.041851 61.135421 C 307.899204 61.170171 307.742615 61.022616 307.692506 60.809534 C 307.64324 60.595006 307.715513 60.396258 307.858943 60.361748 C 308.00159 60.326997 308.158179 60.474552 308.208288 60.687635 C 308.257553 60.902162 308.185281 61.100911 308.041851 61.135421 Z" style="fill:#959493;"/>
		<path d="M 238.710708 72.047123 C 238.539061 73.6612 239.186499 74.757327 240.174218 75.940783 Q 240.779497 76.663504 240.008594 76.124475 C 238.638436 75.160847 237.864522 73.323931 237.810318 71.646615 C 237.668785 67.195858 241.183016 65.109001 244.652077 63.232938 Q 244.670145 63.223904 244.679179 63.23896 L 244.718326 63.302198 Q 244.754463 63.359414 244.70327 63.401573 C 243.607143 64.247759 242.345392 64.973491 241.426934 66.003368 Q 239.072068 68.632266 238.710708 72.047123 Z M 238.746844 69.490498 Q 239.020875 68.635278 238.605311 69.430271 Q 238.412585 69.800665 238.502925 70.529409 Q 238.511959 70.616738 238.520993 70.529409 Q 238.569175 70.041572 238.746844 69.490498 Z" style="fill:#000000;"/>
		<path d="M 308.988857 64.915854 C 308.871866 64.946389 308.718288 64.741618 308.649539 64.463551 C 308.579767 64.18452 308.618914 63.934579 308.736808 63.904888 C 308.853798 63.874353 309.007376 64.079124 309.076125 64.357191 C 309.145898 64.636221 309.106751 64.886162 308.988857 64.915854 Z" style="fill:#959493;"/>
		<path d="M 248.527669 65.099967 Q 248.548748 65.148149 248.506589 65.172239 Q 248.491533 65.184285 248.473465 65.187296 Q 247.892276 65.316783 247.22376 65.235477 Q 246.994898 65.208375 247.205691 65.112012 Q 247.907333 64.798833 248.545737 64.798833 Q 248.669202 64.798833 248.627043 64.913264 Q 248.605964 64.961446 248.563805 64.991559 C 248.527669 65.01565 248.512612 65.06082 248.527669 65.099967 Z" style="fill:#000000;"/>
		<path d="M 241.204095 75.784194 Q 241.300458 75.940783 241.161937 75.82033 C 240.496431 75.257209 239.948367 74.498352 239.764676 73.619042 C 239.087125 70.345718 240.806599 67.707786 243.881175 66.515296 Q 244.88395 66.129845 245.868658 66.391831 C 245.913828 66.403876 245.916839 66.467114 245.871669 66.482171 C 242.179769 67.755967 238.698662 71.74599 241.204095 75.784194 Z" style="fill:#000000;"/>
		<path d="M 182.856415 67.668638 C 182.850392 67.692729 182.826301 67.707786 182.802211 67.701763 L 182.781131 67.69574 C 182.588406 67.647559 182.48602 67.382561 182.555281 67.099495 L 182.639598 66.747169 C 182.708859 66.464103 182.919653 66.274389 183.11539 66.319559 L 183.136469 66.325582 C 183.16056 66.331604 183.175617 66.355695 183.169594 66.379786 L 182.856415 67.668638 Z" style="fill:#959493;"/>
		<path d="M 249.852657 67.168756 L 249.232322 68.355223 Q 246.967796 69.689246 245.793374 70.514352 Q 244.652077 71.312357 243.525837 72.583141 C 243.477655 72.637346 243.480667 72.718652 243.534871 72.769844 L 243.595097 72.824049 Q 243.616177 72.842117 243.637256 72.82706 L 248.316875 69.764529 Q 247.097283 71.553264 244.965256 73.594951 Q 244.188331 74.341763 243.878163 75.702887 Q 243.829982 76.220838 243.84805 76.74481 Q 243.851061 76.853218 243.718562 76.841173 Q 240.29166 75.41681 241.113755 71.538207 C 241.420912 70.092765 244.125093 68.972548 245.362753 68.61721 Q 246.814218 68.201645 248.250626 67.728865 Q 248.967324 67.490969 249.852657 67.168756 Z" style="fill:#000000;"/>
		<path d="M 309.683843 68.719475 C 309.528338 68.722606 309.395839 68.52687 309.389907 68.277832 C 309.383794 68.029999 309.504247 67.825228 309.661921 67.822337 C 309.817426 67.819205 309.949925 68.014942 309.955858 68.26398 C 309.961971 68.511813 309.841517 68.716584 309.683843 68.719475 Z" style="fill:#959493;"/>
		<path d="M 249.232322 68.355223 Q 248.873973 69.15925 248.316875 69.764529 L 243.637256 72.82706 Q 243.616177 72.842117 243.595097 72.824049 L 243.534871 72.769844 C 243.480667 72.718652 243.477655 72.637346 243.525837 72.583141 Q 244.652077 71.312357 245.793374 70.514352 Q 246.967796 69.689246 249.232322 68.355223 Z" style="fill:#dc6b27;"/>
		<path d="M 238.746844 69.490498 Q 238.569175 70.041572 238.520993 70.529409 Q 238.511959 70.616738 238.502925 70.529409 Q 238.412585 69.800665 238.605311 69.430271 Q 239.020875 68.635278 238.746844 69.490498 Z" style="fill:#e60b19;"/>
		<path d="M 181.90959 71.372885 C 181.886764 71.465935 181.790401 71.520139 181.700001 71.495356 L 181.682535 71.490779 C 181.591653 71.465935 181.537449 71.372584 181.560064 71.28119 L 181.84587 70.191838 C 181.868696 70.098788 181.965059 70.044584 182.055459 70.069367 L 182.072925 70.073944 C 182.163807 70.098788 182.218011 70.192139 182.195396 70.283533 L 181.90959 71.372885 Z" style="fill:#959493;"/>
		<path d="M 256.528793 72.047123 C 254.49614 71.092529 251.978662 72.053146 250.111632 73.083024 Q 250.093564 73.092058 250.08453 73.077001 L 250.042372 73.004729 Q 250.006236 72.938479 250.066462 72.896321 Q 251.761846 71.761046 253.93302 70.993155 C 255.887378 70.300547 258.368721 71.182869 260.181546 71.983885 Q 260.720575 72.221781 260.494725 72.766833 L 260.277909 73.281772 Q 259.916548 74.146026 259.15468 73.603985 Q 257.778498 72.631323 256.528793 72.047123 Z" style="fill:#000000;"/>
		<path d="M 264.569065 77.280828 Q 264.650371 77.551849 264.954516 77.539803 C 265.0298 77.536792 265.099061 77.566905 265.150253 77.62111 Q 265.285763 77.765654 265.219514 77.922243 Q 265.150253 78.084856 264.978607 78.105935 C 263.427768 78.292638 263.153736 76.591232 263.704811 75.534253 C 264.49077 74.034606 264.563042 72.28803 266.49331 71.785137 C 266.619786 71.752012 266.74024 71.845364 266.743251 71.974851 Q 266.752285 72.923423 265.981382 73.495577 C 265.487523 73.859949 264.746734 74.106878 264.460657 74.669999 Q 264.289011 75.007268 264.138444 75.353572 Q 264.048104 75.561355 264.234807 75.687831 Q 264.635314 75.95584 264.870199 75.609536 C 264.897301 75.570389 264.930426 75.534253 264.96355 75.501128 Q 265.05389 75.41681 265.147242 75.495105 Q 265.213491 75.549309 265.21048 75.639649 Q 265.21048 75.75408 265.156276 75.847432 Q 265.077981 75.97993 265.198435 76.079305 Q 266.67399 77.286851 267.767106 75.88959 Q 267.902616 75.717944 267.881537 75.93476 Q 267.86648 76.100384 267.746026 76.208792 Q 267.089555 76.786969 266.505355 77.383214 C 266.439106 77.452475 266.339732 77.482588 266.24638 77.46452 L 264.680485 77.157364 C 264.608212 77.142307 264.547986 77.211568 264.569065 77.280828 Z" style="fill:#000000;"/>
		<path d="M 310.164242 73.217901 C 310.010152 73.179386 309.934869 72.959559 309.991301 72.722687 C 310.049299 72.486779 310.220946 72.327178 310.374012 72.363946 C 310.528102 72.402461 310.603386 72.622289 310.546953 72.859161 C 310.488955 73.095069 310.317308 73.25467 310.164242 73.217901 Z" style="fill:#959493;"/>
		<path d="M 181.460509 75.653863 C 181.335689 75.642661 181.26944 75.260221 181.312652 74.801654 C 181.356769 74.341763 181.49529 73.980402 181.620411 73.993291 C 181.745231 74.004493 181.811481 74.386933 181.768268 74.845499 C 181.724152 75.305391 181.58563 75.666751 181.460509 75.653863 Z" style="fill:#959493;"/>
		<path d="M 251.918435 75.919704 C 252.31292 75.317436 252.999505 75.597491 253.556603 75.230107 Q 253.695124 75.136756 253.860748 75.169881 Q 253.993247 75.196983 254.083587 75.293345 C 254.342562 75.561355 254.746081 75.443912 254.821365 75.064484 Q 254.875569 74.778407 255.089374 74.977155 C 255.529029 75.386697 256.227659 75.206017 256.772712 75.148801 Q 256.935324 75.133745 257.046743 75.254198 C 257.621909 75.877545 258.040485 77.169409 258.287414 77.9373 Q 258.314517 78.009572 258.272358 78.075822 Q 258.263324 78.087867 258.248267 78.09389 Q 258.182018 78.11798 258.139859 78.060765 Q 257.48941 77.139296 256.715496 76.416574 C 256.429419 76.148565 255.968684 76.238906 255.803061 76.594243 Q 255.55312 77.133273 254.935796 77.088103 C 254.529265 77.061001 254.243188 77.479577 254.417845 77.84696 Q 254.890625 78.83769 255.866299 78.56667 Q 255.944594 78.54559 256.010843 78.59076 Q 256.053002 78.623885 256.062036 78.678089 Q 256.07107 78.729282 256.0259 78.753373 Q 254.767161 79.388765 253.553591 78.684112 Q 252.047923 77.804801 250.765093 76.299132 Q 250.515152 76.010044 250.897592 76.016067 L 251.70463 76.031123 C 251.791959 76.034135 251.870254 75.991976 251.918435 75.919704 Z" style="fill:#000000;"/>
		<path d="M 243.878163 75.702887 Q 243.823959 76.220838 244.064866 76.681572 Q 244.02873 76.753844 244.016685 76.838162 Q 243.998617 76.982706 243.869129 76.916457 L 243.718562 76.841173 Q 243.851061 76.853218 243.84805 76.74481 Q 243.829982 76.220838 243.878163 75.702887 Z" style="fill:#e60b19;"/>
		<path d="M 309.029781 76.315303 C 308.886923 76.299132 308.784538 76.142543 308.804141 75.966681 C 308.823685 75.790216 308.956184 75.657717 309.099403 75.674671 C 309.242261 75.690842 309.344646 75.847432 309.325043 76.023294 C 309.305499 76.199758 309.173 76.332257 309.029781 76.315303 Z" style="fill:#959493;"/>
		<path d="M 245.609682 85.348202 C 245.892748 84.866388 245.871669 83.333617 245.889737 82.698225 Q 245.904794 82.2134 246.022236 82.683168 C 246.753991 85.577064 245.507297 86.998415 243.610154 88.78715 Q 242.782036 89.570098 241.598581 89.817028 Q 241.532331 89.832084 241.55341 89.898334 L 241.577501 89.97964 Q 241.583524 89.997708 241.601592 89.994696 Q 242.962717 89.741744 244.031741 88.69681 Q 244.79361 87.953009 245.46815 87.179096 C 247.684494 84.628493 246.59439 81.183522 244.459351 79.147858 Q 243.670381 78.395023 242.953683 77.651223 Q 242.932603 77.630144 242.950671 77.609064 L 242.953683 77.606053 Q 242.980785 77.569917 243.019932 77.597019 C 245.441048 79.223141 247.500803 81.689427 247.609211 84.664629 Q 247.699551 87.109835 245.820476 88.904592 C 243.275896 91.328719 239.201556 90.864973 236.075787 89.591177 Q 235.816812 89.48578 236.096866 89.482769 C 236.909928 89.473735 237.397764 89.8893 238.255996 89.482769 C 240.42717 88.455903 242.715787 86.621998 243.098227 84.152701 C 243.315043 82.764474 243.396349 81.273862 242.631469 80.135577 Q 242.495959 79.927794 242.697719 80.072339 C 243.245782 80.460801 243.583052 81.207613 243.89322 81.779767 C 245.733147 85.194624 243.498735 88.543232 240.213365 89.804982 Q 239.97547 89.898334 239.734562 89.892311 Q 239.553882 89.8893 239.701438 89.988674 Q 239.758653 90.02481 239.824903 90.033844 C 240.312739 90.106116 240.836712 90.006742 241.225175 89.681517 C 241.773238 89.220783 242.438744 88.931694 242.950671 88.431812 Q 244.630998 86.78461 244.92912 85.041046 Q 245.389855 82.360955 243.89322 79.942851 Q 243.860095 79.891658 243.908277 79.855522 L 243.968503 79.810352 Q 243.980549 79.804329 243.986571 79.813363 Q 245.01946 80.984774 245.344685 81.963459 C 245.567524 82.631976 245.91985 84.435767 245.600648 85.233771 Q 245.441048 85.631268 245.609682 85.348202 Z M 239.409338 89.804982 Q 240.469329 89.112374 241.32756 88.489028 Q 242.571243 87.585626 243.474644 85.938424 Q 244.284694 84.46588 243.64629 82.255558 Q 243.586063 82.044765 243.525837 82.255558 Q 243.387315 82.764474 243.504757 83.219186 C 243.84805 84.547186 243.185556 86.064901 242.345392 87.064665 Q 240.680123 89.046125 238.418608 89.817028 Q 238.168667 89.901345 238.421619 89.970606 Q 238.945592 90.109127 239.409338 89.804982 Z" style="fill:#000000;"/>
		<path d="M 181.489117 79.711731 C 181.3387 79.723023 181.191145 79.337572 181.155701 78.85103 C 181.121884 78.36491 181.212224 77.961391 181.362942 77.951604 C 181.513358 77.940311 181.660914 78.325763 181.696357 78.812304 C 181.730174 79.298425 181.639834 79.701944 181.489117 79.711731 Z" style="fill:#959493;"/>
		<path d="M 309.188057 80.071525 C 309.055558 80.063305 308.965218 79.810352 308.980636 79.502383 C 308.998342 79.196039 309.115785 78.952121 309.248284 78.958957 C 309.380782 78.967178 309.471123 79.22013 309.455704 79.528099 C 309.437998 79.834443 309.320556 80.078361 309.188057 80.071525 Z" style="fill:#959493;"/>
		<path d="M 240.532567 80.515005 Q 241.333583 82.427205 240.650009 84.221962 C 240.634952 84.261109 240.604839 84.291223 240.565692 84.306279 L 240.375977 84.381563 Q 240.183252 84.459858 240.255524 84.264121 Q 240.887905 82.514533 240.276603 80.605345 C 240.261547 80.560175 240.285637 80.511994 240.330807 80.493926 L 240.412113 80.463812 Q 240.496431 80.430688 240.532567 80.515005 Z" style="fill:#dc6b27;"/>
		<path d="M 223.629928 81.40335 Q 223.47635 81.31301 223.491407 81.484656 Q 223.349874 81.159431 223.404078 80.963694 Q 223.443225 80.816139 223.488395 80.960683 L 223.629928 81.40335 Z" style="fill:#e60b19;"/>
		<path d="M 181.583432 83.661763 C 181.435063 83.679921 181.272451 83.327595 181.217223 82.878454 C 181.161032 82.427205 181.236315 82.047776 181.383057 82.029798 C 181.531426 82.01164 181.694038 82.363967 181.749266 82.813108 C 181.805458 83.264357 181.730174 83.643785 181.583432 83.661763 Z" style="fill:#959493;"/>
		<path d="M 239.409338 89.804982 Q 238.945592 90.109127 238.421619 89.970606 Q 238.168667 89.901345 238.418608 89.817028 Q 240.680123 89.046125 242.345392 87.064665 C 243.185556 86.064901 243.84805 84.547186 243.504757 83.219186 Q 243.387315 82.764474 243.525837 82.255558 Q 243.586063 82.044765 243.64629 82.255558 Q 244.284694 84.46588 243.474644 85.938424 Q 242.571243 87.585626 241.32756 88.489028 Q 240.469329 89.112374 239.409338 89.804982 Z" style="fill:#dc6b27;"/>
		<path d="M 309.196187 83.694978 C 309.076637 83.694978 308.983286 83.460094 308.983286 83.170644 C 308.983286 82.881917 309.079649 82.647032 309.197994 82.647032 C 309.317544 82.647032 309.410896 82.881917 309.410896 83.171366 C 309.410896 83.460094 309.314533 83.694978 309.196187 83.694978 Z" style="fill:#959493;"/>
		<path d="M 224.732078 85.010932 C 224.747134 85.025989 224.747134 85.05008 224.732078 85.062125 L 224.729066 85.065137 C 224.596568 85.188601 224.078617 84.84832 223.572713 84.303268 L 223.515497 84.24003 C 223.009593 83.694978 222.705447 83.155948 222.837946 83.032484 L 222.840958 83.029472 C 222.856014 83.014416 222.880105 83.017427 222.89215 83.032484 L 224.732078 85.010932 Z" style="fill:#000000;"/>
		<path d="M 236.370898 88.058406 Q 238.144576 87.18813 239.270816 85.595132 Q 239.734562 84.93866 239.867061 84.230996 Q 239.903197 84.035259 240.038708 84.179803 Q 240.309728 84.462869 240.092912 84.872411 Q 238.831161 87.260402 236.370898 88.058406 Z" style="fill:#dc6b27;"/>
		<path d="M 264.460657 85.817971 Q 265.318888 85.444565 265.921156 84.8694 Q 266.646888 84.176792 266.213255 85.083205 Q 265.710362 86.134161 264.53594 86.528647 Q 264.292022 86.609953 264.243841 86.360012 L 264.225773 86.269672 Q 264.162534 85.95047 264.460657 85.817971 Z" style="fill:#000000;"/>
		<path d="M 263.698788 85.375304 Q 262.406925 85.878198 262.253346 85.902288 Q 260.952448 86.095014 261.937156 85.263885 Q 262.334652 84.929626 263.367541 84.700765 Q 263.68072 84.631504 263.822253 84.917581 Q 263.867423 85.007921 263.873446 85.107295 C 263.879469 85.224737 263.807197 85.333146 263.698788 85.375304 Z" style="fill:#000000;"/>
		<path d="M 181.811481 87.733182 C 181.784378 87.739204 181.760288 87.721136 181.754265 87.694034 L 181.745231 87.636819 C 181.612732 86.905064 181.58563 86.299785 181.688016 86.281717 L 181.793412 86.263649 C 181.892787 86.245581 182.07949 86.820746 182.211988 87.552502 L 182.224034 87.609717 C 182.227045 87.636819 182.208977 87.66091 182.184886 87.666932 L 181.811481 87.733182 Z" style="fill:#959493;"/>
		<path d="M 308.932485 87.338666 C 308.820674 87.338697 308.730333 87.094778 308.733345 86.797529 C 308.736356 86.498533 308.829708 86.260638 308.943747 86.260668 C 309.055558 86.260638 309.145898 86.504556 309.142887 86.801805 C 309.139875 87.100801 309.046524 87.338697 308.932485 87.338666 Z" style="fill:#959493;"/>
		<path d="M 236.370898 88.058406 Q 235.684313 88.486016 234.823071 88.425789 Q 234.536993 88.407721 234.817048 88.353517 L 236.370898 88.058406 Z" style="fill:#e60b19;"/>
		<path d="M 264.195659 91.726216 C 264.427532 93.13251 263.822253 94.400284 262.169029 93.969662 C 260.732621 93.593245 259.531097 92.394733 258.425936 91.422071 C 258.329573 91.337753 258.368721 91.178152 258.495197 91.148039 C 259.609392 90.898098 260.741655 90.446397 261.726362 89.856175 Q 262.668911 89.290043 263.698788 89.022034 C 264.806961 88.732946 265.180367 90.109127 264.87321 90.922188 Q 264.809972 91.087812 264.665428 91.187186 L 264.328158 91.413037 Q 264.162534 91.527467 264.195659 91.726216 Z M 260.982562 91.485309 Q 261.898008 91.548547 262.762262 91.626842 C 263.247088 91.672012 263.644584 91.536501 263.92765 91.129971 C 264.114353 90.861962 264.021002 90.491567 263.731913 90.341 C 262.777319 89.841118 261.611931 90.663213 260.741655 91.069744 Q 260.603133 91.132982 260.579043 91.283549 Q 260.548929 91.470252 260.735632 91.473263 Q 260.853074 91.476275 260.982562 91.485309 Z" style="fill:#e60b19;"/>
		<path d="M 308.305765 90.689864 C 308.161191 90.636111 308.097952 90.440374 308.165708 90.252166 C 308.233463 90.063957 308.40812 89.952538 308.552634 90.004182 C 308.697209 90.057935 308.760447 90.253672 308.692692 90.44188 C 308.624937 90.630089 308.450279 90.741508 308.305765 90.689864 Z" style="fill:#959493;"/>
		<path d="M 260.982562 91.485309 Q 260.853074 91.476275 260.735632 91.473263 Q 260.548929 91.470252 260.579043 91.283549 Q 260.603133 91.132982 260.741655 91.069744 C 261.611931 90.663213 262.777319 89.841118 263.731913 90.341 C 264.021002 90.491567 264.114353 90.861962 263.92765 91.129971 C 263.644584 91.536501 263.247088 91.672012 262.762262 91.626842 Q 261.898008 91.548547 260.982562 91.485309 Z" style="fill:#000000;"/>
		<path d="M 234.940513 98.616156 L 238.271052 98.592066 Q 238.548095 98.589054 238.361392 98.793825 Q 238.228894 98.941381 237.981964 98.965472 Q 237.834408 98.977517 237.97293 99.025698 Q 238.078327 99.058823 238.237928 99.022687 L 234.68756 99.293707 C 234.657447 99.296719 234.633356 99.314787 234.621311 99.341889 Q 234.585175 99.420184 234.657447 99.453308 Q 234.70864 99.474388 234.705628 99.528592 Q 234.467733 103.307821 234.000975 104.828546 Q 233.293311 107.147276 232.456159 109.568392 Q 232.212241 110.270034 232.838599 110.381453 Q 240.117002 111.667294 246.476948 115.14539 Q 250.198961 117.181054 252.24366 118.647575 Q 253.104902 119.2649 253.920975 119.809952 C 256.311977 121.402949 258.537356 123.399466 260.560974 125.296609 Q 263.126634 127.699657 265.333945 130.849516 Q 265.355024 130.879629 265.355024 130.915765 Q 265.355024 130.933833 265.342979 130.942867 Q 265.312865 130.972981 265.282752 130.942867 Q 262.271414 127.964654 259.127578 125.564618 Q 253.478308 121.249371 247.341202 117.178042 Q 243.044023 114.326306 238.942581 113.067566 C 235.220567 111.923258 230.694527 112.200301 228.348694 115.554931 Q 227.749438 116.413163 227.180295 117.334632 Q 227.171261 117.3527 227.156205 117.343666 L 227.089955 117.304519 Q 227.068876 117.292473 227.07791 117.268383 Q 228.454091 114.410623 229.745955 111.622124 C 229.845329 111.408319 229.721864 111.155367 229.489991 111.104174 Q 229.191869 111.037925 228.902781 110.944573 Q 228.78835 110.905426 228.716078 110.809063 Q 228.688976 110.769916 228.691987 110.721734 Q 228.694998 110.571167 228.842554 110.553099 Q 230.113338 110.387476 230.998672 109.986968 Q 231.396168 109.809299 231.682245 109.282315 Q 233.594445 105.765072 234.003987 102.42851 Q 234.178644 101.013181 234.347279 99.41115 Q 234.359325 99.281662 234.226826 99.266605 C 230.306064 98.829961 226.150418 96.809354 225.373493 92.644674 Q 225.328323 91.319685 225.822182 90.554805 Q 226.213656 89.946515 226.189565 90.669236 C 226.123316 92.629617 226.6503 94.845962 228.06864 95.951123 C 229.929647 97.399576 232.492295 98.486669 234.940513 98.616156 Z" style="fill:#000000;"/>
		<path d="M 243.604132 92.762116 C 244.670145 94.806814 242.577265 97.158669 240.869837 98.068093 Q 240.544612 98.071104 240.225411 98.293943 Q 240.165184 98.336102 240.126036 98.272864 L 240.056776 98.155422 Q 240.005583 98.074116 240.092912 98.025934 Q 241.82142 97.113499 242.763968 95.375957 Q 242.797093 95.31573 242.739878 95.276583 L 242.670617 95.234424 Q 242.649537 95.219367 242.631469 95.240447 Q 241.140857 97.336338 238.779968 97.92656 Q 237.608558 98.21866 235.985447 98.242751 Q 235.088068 98.143376 234.187678 98.08315 Q 233.187914 98.019912 232.36883 97.748891 Q 230.47771 97.125544 229.279198 96.297426 Q 227.150182 94.81886 227.267624 91.861726 Q 227.270635 91.837635 227.294726 91.837635 L 227.376032 91.834624 Q 227.454327 91.831613 227.463361 91.912919 C 227.601883 93.328247 228.38483 95.388002 229.739932 96.143848 Q 230.0501 96.315494 229.848341 96.023395 C 228.966019 94.749599 228.354717 93.795005 228.393864 92.150814 Q 228.396876 92.09661 228.45108 92.087576 L 228.526363 92.078542 Q 228.568522 92.07252 228.568522 92.093599 Q 228.884713 94.499658 230.790889 95.99027 Q 230.881229 96.059531 230.962536 95.978225 L 231.019751 95.921009 Q 231.089012 95.851748 231.019751 95.779476 C 230.107316 94.821871 229.414708 93.704665 229.354481 92.397744 C 229.35147 92.364619 229.375561 92.334506 229.408685 92.325472 C 229.44181 92.319449 229.474935 92.337517 229.48698 92.370642 Q 230.14044 94.27983 231.745483 95.502433 Q 231.841846 95.574705 231.929175 95.490388 L 231.992413 95.424138 Q 232.127923 95.29164 231.98639 95.165163 Q 231.13117 94.418352 230.583107 93.388474 Q 230.562028 93.349327 230.598164 93.325236 L 230.601175 93.322225 Q 230.616232 93.313191 230.625266 93.325236 C 231.13117 93.89739 231.784631 94.529771 232.630817 94.376193 C 233.684785 94.186479 235.732495 93.713699 236.208286 92.819331 Q 236.385955 92.482061 236.084821 92.247177 Q 234.735742 91.184175 233.501093 90.449408 Q 233.428821 90.404238 233.513139 90.401227 Q 233.531207 90.401227 233.546263 90.401227 Q 233.56132 90.404238 233.576377 90.410261 Q 235.449429 91.419059 236.235388 91.786442 Q 239.858027 93.463758 243.604132 92.762116 Z M 240.240467 95.550615 L 240.207343 95.481354 C 240.204331 95.478343 240.204331 95.478343 240.20132 95.481354 Q 236.274535 97.658551 232.115878 95.848737 Q 231.703325 95.668057 231.971334 96.029417 C 232.492295 96.728048 235.235624 96.899694 236.003515 96.923785 Q 238.144576 96.987023 240.225411 95.601807 Q 240.255524 95.580728 240.240467 95.550615 Z M 239.499678 96.959921 L 239.478599 96.887649 C 239.472576 96.860547 239.445474 96.84549 239.418372 96.854524 Q 237.915714 97.291168 236.593737 97.507984 C 235.807778 97.637472 235.079034 97.330315 234.290064 97.309236 Q 232.697066 97.264066 231.260658 96.315494 Q 231.15225 96.243222 231.076966 96.35163 L 231.028785 96.423903 C 230.99566 96.469073 231.007706 96.532311 231.055887 96.562424 Q 232.27849 97.31827 233.293311 97.45378 Q 234.323189 97.592302 235.590962 97.788039 Q 236.470272 97.923549 237.238163 97.703721 Q 238.421619 97.36344 239.487633 96.987023 Q 239.505701 96.977989 239.499678 96.959921 Z" style="fill:#000000;"/>
		<path d="M 182.9588 90.654179 C 183.518909 94.240683 184.39822 97.694687 185.77139 100.892728 C 185.807526 100.980057 185.729231 101.067385 185.638891 101.043295 L 185.563607 101.022215 C 185.431109 100.983068 185.3227 100.889717 185.268496 100.766252 C 183.841122 97.5652 183.037095 94.117218 182.476986 90.615032 C 182.464941 90.536737 182.522156 90.464465 182.600451 90.458442 L 182.696814 90.449408 Q 182.922664 90.43134 182.9588 90.654179 Z" style="fill:#959493;"/>
		<path d="M 307.98051 93.764891 C 306.411603 100.916819 303.4093 107.300855 299.35905 113.356655 Q 298.771839 114.235965 298.034062 115.018913 Q 297.96179 115.094197 297.856393 115.112265 Q 297.8052 115.118287 297.754007 115.103231 C 297.687758 115.082151 297.660656 115.000845 297.702815 114.94363 Q 298.922406 113.284383 299.919159 111.65826 Q 300.846651 110.14958 301.852438 108.378914 Q 305.779222 101.452837 307.625172 93.647449 Q 307.646252 93.557109 307.742615 93.557109 L 307.820909 93.56012 C 307.926306 93.563132 308.004601 93.662506 307.98051 93.764891 Z" style="fill:#959493;"/>
		<path d="M 240.869837 98.068093 Q 239.674336 98.757689 238.237928 99.022687 Q 238.078327 99.058823 237.97293 99.025698 Q 237.834408 98.977517 237.981964 98.965472 Q 238.228894 98.941381 238.361392 98.793825 Q 238.548095 98.589054 238.271052 98.592066 L 234.940513 98.616156 L 236.364876 98.616156 Q 236.482318 98.616156 236.482318 98.501726 L 236.482318 98.357181 C 236.482318 98.309 236.44317 98.269853 236.394989 98.266841 L 235.985447 98.242751 Q 237.608558 98.21866 238.779968 97.92656 Q 241.140857 97.336338 242.631469 95.240447 Q 242.649537 95.219367 242.670617 95.234424 L 242.739878 95.276583 Q 242.797093 95.31573 242.763968 95.375957 Q 241.82142 97.113499 240.092912 98.025934 Q 240.005583 98.074116 240.056776 98.155422 L 240.126036 98.272864 Q 240.165184 98.336102 240.225411 98.293943 Q 240.544612 98.071104 240.869837 98.068093 Z" style="fill:#e60b19;"/>
		<path d="M 240.225411 95.601807 Q 238.144576 96.987023 236.003515 96.923785 C 235.235624 96.899694 232.492295 96.728048 231.971334 96.029417 Q 231.703325 95.668057 232.115878 95.848737 Q 236.274535 97.658551 240.20132 95.481354 C 240.204331 95.478343 240.204331 95.478343 240.207343 95.481354 L 240.240467 95.550615 Q 240.255524 95.580728 240.225411 95.601807 Z" style="fill:#e60b19;"/>
		<path d="M 239.487633 96.987023 Q 238.421619 97.36344 237.238163 97.703721 Q 236.470272 97.923549 235.590962 97.788039 Q 234.323189 97.592302 233.293311 97.45378 Q 232.27849 97.31827 231.055887 96.562424 C 231.007706 96.532311 230.99566 96.469073 231.028785 96.423903 L 231.076966 96.35163 Q 231.15225 96.243222 231.260658 96.315494 Q 232.697066 97.264066 234.290064 97.309236 C 235.079034 97.330315 235.807778 97.637472 236.593737 97.507984 Q 237.915714 97.291168 239.418372 96.854524 C 239.445474 96.84549 239.472576 96.860547 239.478599 96.887649 L 239.499678 96.959921 Q 239.505701 96.977989 239.487633 96.987023 Z" style="fill:#e60b19;"/>
		<path d="M 250.837365 116.524582 Q 250.144757 110.62236 251.084295 103.810714 C 251.295088 102.277943 251.584177 100.522333 252.55985 99.350923 C 252.903143 98.93837 253.556603 98.884166 254.026372 98.995585 Q 256.095161 99.483422 257.932077 99.811658 C 259.217918 100.043531 261.554716 100.215177 262.437038 98.932347 Q 262.608684 98.682406 262.563514 98.98354 C 262.120847 101.901526 257.028675 100.182052 255.39653 99.652057 Q 254.137791 99.242515 253.430127 100.332619 Q 252.71644 101.431757 252.26775 102.94646 Q 250.33146 109.502143 251.213782 116.599866 Q 251.234861 116.750433 251.204748 116.897988 Q 251.14151 117.229235 251.442644 117.461108 Q 252.638145 118.373544 253.830635 119.28899 Q 253.875805 119.322115 253.884839 119.370296 Q 253.896884 119.430523 253.845691 119.394387 L 248.051877 115.440501 Q 247.377338 114.979766 248.094036 115.374251 Q 249.18414 115.973507 250.382653 116.798614 Q 250.912648 117.162986 250.837365 116.524582 Z" style="fill:#000000;"/>
		<path d="M 187.067951 104.293191 C 186.936777 104.361789 186.698882 104.163041 186.536209 103.849741 C 186.373657 103.536682 186.349567 103.226515 186.480379 103.159603 C 186.611553 103.091004 186.849449 103.289753 187.012121 103.603052 C 187.174673 103.916111 187.198764 104.226279 187.067951 104.293191 Z" style="fill:#959493;"/>
		<path d="M 188.414411 107.462925 C 188.282845 107.532728 188.06904 107.382161 187.936843 107.130473 C 187.807054 106.879267 187.807054 106.617281 187.940486 106.548562 C 188.072052 106.478759 188.285857 106.629326 188.418054 106.881014 C 188.547843 107.13222 188.547843 107.394206 188.414411 107.462925 Z" style="fill:#959493;"/>
		<path d="M 190.340252 110.471854 C 190.222147 110.556111 189.993285 110.432646 189.827361 110.19722 C 189.662038 109.962877 189.619879 109.703902 189.736659 109.622536 C 189.854764 109.538279 190.083625 109.661743 190.24955 109.89717 C 190.414873 110.131512 190.457031 110.390487 190.340252 110.471854 Z" style="fill:#959493;"/>
		<path d="M 192.006063 113.349759 C 191.920541 113.443984 191.69168 113.374723 191.494979 113.192537 C 191.300206 113.010351 191.212877 112.787512 191.299001 112.695034 C 191.384523 112.600809 191.613385 112.67007 191.810086 112.852256 C 192.004859 113.034442 192.092188 113.257281 192.006063 113.349759 Z" style="fill:#959493;"/>
		<path d="M 193.90423 116.002055 C 193.811662 116.087938 193.588823 115.994587 193.399831 115.79358 C 193.212405 115.594079 193.134111 115.362206 193.225234 115.276443 C 193.317802 115.19056 193.540641 115.283911 193.729633 115.484918 C 193.917058 115.684419 193.995353 115.916292 193.90423 116.002055 Z" style="fill:#959493;"/>
		<path d="M 296.176096 117.099657 C 296.121862 117.054578 296.209191 116.858841 296.374995 116.661176 C 296.540438 116.464355 296.718107 116.343902 296.772281 116.389162 C 296.826515 116.434242 296.739186 116.629979 296.573382 116.827643 C 296.407939 117.024464 296.23027 117.144918 296.176096 117.099657 Z" style="fill:#959493;"/>
		<path d="M 196.180169 118.518961 C 196.08221 118.620473 195.907553 118.605417 195.785714 118.488938 C 195.663634 118.373544 195.645566 118.195875 195.743344 118.095627 C 195.841303 117.994115 196.015961 118.009172 196.137799 118.12565 C 196.259879 118.241045 196.277947 118.418714 196.180169 118.518961 Z" style="fill:#959493;"/>
		<path d="M 292.577638 121.195649 C 292.53837 121.15602 292.622688 121.008464 292.762715 120.866419 C 292.902742 120.722387 293.050298 120.63807 293.089325 120.676735 C 293.128592 120.716364 293.044275 120.86392 292.904248 121.005965 C 292.764221 121.149997 292.616665 121.234314 292.577638 121.195649 Z" style="fill:#959493;"/>
		<path d="M 198.741221 121.375847 C 198.777357 121.42704 198.768323 121.499312 198.723153 121.541471 Q 198.545484 121.716129 198.33168 121.505335 C 198.271453 121.448119 198.259407 121.357779 198.298555 121.285507 Q 198.473212 120.966305 198.741221 121.375847 Z" style="fill:#959493;"/>
		<path d="M 290.236835 123.673709 C 290.195549 123.631339 290.279867 123.477761 290.426579 123.334331 C 290.571967 123.188673 290.725545 123.107367 290.768577 123.149314 C 290.809862 123.191684 290.725545 123.345262 290.578833 123.488692 C 290.433445 123.634351 290.279867 123.715657 290.236835 123.673709 Z" style="fill:#959493;"/>
		<path d="M 201.494819 124.492763 C 201.403244 124.573888 201.225575 124.516673 201.095817 124.368786 C 200.9666 124.221562 200.936487 124.034859 201.028603 123.956383 C 201.120178 123.875258 201.297847 123.932473 201.427606 124.08036 C 201.556822 124.227584 201.586936 124.414287 201.494819 124.492763 Z" style="fill:#959493;"/>
		<path d="M 287.232212 126.391562 C 287.184212 126.344555 287.256484 126.187965 287.393229 126.045288 C 287.530516 125.901888 287.684094 125.823593 287.732456 125.869938 C 287.780457 125.916945 287.708184 126.073534 287.57144 126.216211 C 287.434153 126.359611 287.280575 126.437906 287.232212 126.391562 Z" style="fill:#959493;"/>
		<path d="M 204.419581 126.831247 C 204.363389 126.937788 204.18572 126.958868 204.024343 126.873978 C 203.860496 126.790233 203.776178 126.633643 203.831406 126.526379 C 203.887598 126.419838 204.065267 126.398759 204.226644 126.483648 C 204.390491 126.567394 204.474809 126.723983 204.419581 126.831247 Z" style="fill:#959493;"/>
		<path d="M 285.051341 128.338542 C 285.088321 128.380219 284.964856 128.551865 284.775894 128.724626 C 284.585427 128.898169 284.404747 129.003566 284.366443 128.963937 C 284.329463 128.92226 284.452928 128.750614 284.64189 128.577853 C 284.832357 128.40431 285.013037 128.298913 285.051341 128.338542 Z" style="fill:#959493;"/>
		<path d="M 207.428449 129.23053 C 207.35967 129.331802 207.163933 129.316745 206.991233 129.196773 C 206.817629 129.078849 206.733312 128.90118 206.803054 128.800692 C 206.871833 128.699421 207.06757 128.714477 207.240271 128.834449 C 207.413874 128.952373 207.498192 129.130042 207.428449 129.23053 Z" style="fill:#959493;"/>
		<path d="M 281.917382 131.054287 Q 281.727668 131.081389 281.814996 130.912754 Q 281.902325 130.735085 282.113119 130.738096 Q 282.281754 130.744119 282.188402 130.882641 Q 282.098062 131.024174 281.917382 131.054287 Z" style="fill:#959493;"/>
		<path d="M 210.549279 131.528633 C 210.434246 131.638486 210.223452 131.605362 210.080354 131.455397 C 209.937375 131.304228 209.913285 131.093434 210.030124 130.98346 C 210.145158 130.873607 210.355951 130.906731 210.49905 131.056696 C 210.642028 131.207865 210.666119 131.418659 210.549279 131.528633 Z" style="fill:#959493;"/>
		<path d="M 279.214887 132.761806 C 279.249337 132.812908 279.149963 132.942396 278.990783 133.049539 C 278.830761 133.156201 278.674171 133.198359 278.63936 133.147076 C 278.60491 133.095974 278.704285 132.966486 278.863464 132.859343 C 279.023486 132.752681 279.180076 132.710523 279.214887 132.761806 Z" style="fill:#959493;"/>
		<path d="M 213.258881 133.731366 C 213.063144 133.674151 213.002917 133.427221 213.147461 133.285688 Q 213.322119 133.120065 213.541947 133.228473 Q 213.861148 133.388074 213.840069 133.758468 C 213.834046 133.83074 213.761774 133.881933 213.692513 133.860854 L 213.258881 133.731366 Z" style="fill:#959493;"/>
		<path d="M 276.532869 134.365945 C 276.572257 134.420963 276.445781 134.574541 276.254079 134.709178 C 276.06033 134.84255 275.873627 134.905788 275.834721 134.849386 C 275.795332 134.794368 275.921808 134.64079 276.11351 134.506153 C 276.30726 134.372781 276.493963 134.309543 276.532869 134.365945 Z" style="fill:#959493;"/>
		<path d="M 217.363997 135.865923 C 217.30913 136.038051 217.047144 136.110323 216.777328 136.026036 C 216.508114 135.941688 216.333457 135.733906 216.386998 135.55973 C 216.441865 135.387602 216.703851 135.31533 216.973667 135.399617 C 217.242881 135.483965 217.417538 135.691747 217.363997 135.865923 Z" style="fill:#959493;"/>
		<path d="M 273.889637 135.790549 C 273.928303 135.869416 273.807849 136.004926 273.621026 136.097254 C 273.434443 136.188618 273.253763 136.200663 273.214134 136.122941 C 273.175468 136.044074 273.295922 135.908563 273.482745 135.816236 C 273.669328 135.724872 273.850008 135.712826 273.889637 135.790549 Z" style="fill:#959493;"/>
		<path d="M 220.777077 137.668058 C 220.699896 137.817752 220.471035 137.853888 220.268312 137.747738 C 220.064504 137.643094 219.962119 137.435312 220.038516 137.286883 C 220.115697 137.137189 220.344559 137.101053 220.547282 137.207203 C 220.751089 137.311847 220.853475 137.519629 220.777077 137.668058 Z" style="fill:#959493;"/>
		<path d="M 270.940935 137.346507 C 270.986226 137.45338 270.83867 137.612981 270.617066 137.705579 C 270.392992 137.796672 270.179187 137.787638 270.134138 137.680706 C 270.088847 137.573833 270.236403 137.414232 270.458007 137.321634 C 270.682081 137.230541 270.895886 137.239575 270.940935 137.346507 Z" style="fill:#959493;"/>
		<path d="M 224.189555 139.162495 C 224.123787 139.326432 223.85879 139.377625 223.602585 139.27286 C 223.343851 139.169842 223.190273 138.950015 223.257004 138.785716 C 223.322772 138.621779 223.587769 138.570586 223.843974 138.67535 C 224.102708 138.778368 224.256286 138.998196 224.189555 139.162495 Z" style="fill:#959493;"/>
		<path d="M 267.723773 138.819232 C 267.758072 138.89581 267.598471 139.046377 267.36175 139.155689 C 267.125691 139.263194 266.905863 139.290296 266.870902 139.213296 C 266.836602 139.136718 266.996203 138.986151 267.232925 138.876839 C 267.468983 138.769334 267.688811 138.742232 267.723773 138.819232 Z" style="fill:#959493;"/>
		<path d="M 227.592096 140.21842 C 227.565747 140.362332 227.342908 140.443638 227.090015 140.400636 C 226.837003 140.356309 226.653311 140.205742 226.678155 140.060566 C 226.704504 139.916654 226.927343 139.835348 227.180235 139.87835 C 227.433248 139.922677 227.616939 140.073244 227.592096 140.21842 Z" style="fill:#959493;"/>
		<path d="M 264.428496 140.154459 C 264.457646 140.250912 264.249863 140.398468 263.961799 140.48411 C 263.674698 140.570114 263.418734 140.564092 263.390668 140.467819 C 263.361519 140.371366 263.569301 140.22381 263.857365 140.138168 C 264.144466 140.052164 264.40043 140.058187 264.428496 140.154459 Z" style="fill:#959493;"/>
		<path d="M 230.18561 140.973634 C 230.194644 140.931475 230.233792 140.904373 230.275951 140.913407 L 230.327143 140.922441 C 230.854127 141.027838 231.263669 141.205507 231.239579 141.316926 L 231.212477 141.464482 C 231.188386 141.578912 230.742708 141.584935 230.215724 141.479538 L 230.167542 141.467493 C 230.125384 141.46147 230.09527 141.419312 230.104304 141.377153 L 230.18561 140.973634 Z" style="fill:#959493;"/>
		<path d="M 260.494725 141.645162 C 256.902199 142.678051 252.773655 143.105661 249.054653 143.343556 C 248.994426 143.349579 248.940222 143.298386 248.940222 143.23816 L 248.937211 143.156853 Q 248.937211 142.988219 249.105846 142.976173 Q 254.917728 142.638903 260.55194 141.28079 Q 260.666371 141.253688 260.657337 141.37113 L 260.651315 141.452436 C 260.645292 141.542776 260.582054 141.621071 260.494725 141.645162 Z" style="fill:#959493;"/>
		<path d="M 234.698341 142.39101 C 234.660458 142.506404 234.365347 142.515438 234.0394 142.407813 C 233.714898 142.301633 233.483025 142.117942 233.520426 142.001463 C 233.558309 141.886069 233.85342 141.877035 234.179367 141.98466 C 234.503869 142.09084 234.735742 142.274531 234.698341 142.39101 Z" style="fill:#959493;"/>
		<path d="M 238.027134 143.000264 L 237.325492 143.057479 Q 237.159869 143.072536 237.147823 142.906912 Q 237.138789 142.753334 237.226118 142.632881 Q 237.340549 142.479302 237.527252 142.494359 Q 237.867533 142.51845 238.114463 142.753334 C 238.204803 142.840663 238.150599 142.99123 238.027134 143.000264 Z" style="fill:#959493;"/>
		<path d="M 241.610536 143.259088 C 241.613637 143.39776 241.399832 143.515203 241.136671 143.521165 C 240.872848 143.527248 240.656032 143.415828 240.653111 143.277457 C 240.650009 143.138785 240.863814 143.021343 241.126975 143.015381 C 241.390798 143.009298 241.607615 143.120717 241.610536 143.259088 Z" style="fill:#959493;"/>
		<path d="M 245.136119 143.507704 C 245.145936 143.656735 244.965256 143.786223 244.734678 143.800768 C 244.504522 143.816336 244.308785 143.707928 244.300533 143.558837 C 244.290717 143.409806 244.471397 143.280318 244.701975 143.265774 C 244.932131 143.250205 245.127868 143.358613 245.136119 143.507704 Z" style="fill:#959493;"/>
	</g>
	<g id="surface4">
	</g>
</svg>
