<?xml version="1.0" encoding="utf-8"?>
<svg xmlns="http://www.w3.org/2000/svg" width="490pt" height="280pt" viewBox="0 0 490 280" version="1.1" xmlns:xlink="http://www.w3.org/1999/xlink">
	<g id="surface2">
		<path d="M 190.330903 156.895044 L 213.175723 156.807222 Q 214.097859 156.61511 214.740061 156.8676 L 230.443817 156.774288 Q 231.316553 156.669999 231.678821 156.829177 L 252.750725 156.757822 L 260.84686 156.801733 C 261.115816 156.807222 261.329883 156.593155 261.335372 156.324198 C 261.511017 125.970556 261.576884 95.518113 261.554928 64.264291 Q 261.549439 58.725986 261.961107 54.334862 Q 262.180663 51.908767 261.560417 50.465185 Q 260.528503 48.088489 258.634831 46.172861 C 258.426253 45.964283 258.113385 45.914883 257.855407 46.046616 L 199.716929 75.236611 Q 199.497373 75.346389 199.404062 75.121344 L 198.240414 72.349447 C 198.185525 72.212225 198.234925 72.047557 198.36117 71.970713 C 199.376617 71.339489 200.446954 70.68082 201.561201 70.18133 Q 209.443268 66.619031 215.684153 60.65808 Q 231.162864 45.881949 245.949973 30.408727 C 251.329099 24.7826 257.048538 19.249784 262.762487 13.66208 Q 263.190622 13.239434 263.788912 13.255901 Q 284.213126 13.651102 304.48914 13.892614 C 309.204109 13.947503 313.935545 12.591743 318.129068 11.021916 Q 318.573669 10.857249 318.710892 11.307339 Q 318.974359 12.174586 319.638516 12.877166 C 319.852584 13.1077 319.797695 13.475457 319.523249 13.629146 Q 310.428135 18.783227 301.195797 23.953776 Q 291.771348 29.234102 273.103583 38.642084 C 271.094644 39.652043 270.046264 45.387948 269.788285 47.287109 C 269.733396 47.676821 269.821219 48.072022 270.035286 48.395868 L 276.073081 57.688583 C 276.243237 57.95205 276.215792 58.30334 276.001725 58.533874 C 274.020231 60.707481 272.71936 62.66702 272.730338 65.828629 Q 272.878538 110.909002 272.691916 156.549243 C 272.686427 156.669999 272.790716 156.774288 272.916961 156.774288 L 315.038814 156.878578 Q 315.582216 156.878578 315.576727 157.421979 L 315.56026 158.464871 Q 315.554771 158.898494 315.121148 158.898494 Q 286.578844 158.991806 262.910688 158.975339 Q 223.236885 158.953384 173.167098 158.914961 Q 171.877205 158.909472 170.428135 158.82165 Q 170 158.794205 170 158.360582 L 170.010978 157.312201 Q 170.016467 156.834666 170.49949 156.834666 L 190.330903 156.895044 Z M 300.641418 18.206892 C 302.024622 17.449424 303.413315 16.911511 304.812985 16.26382 Q 305.987611 15.720419 304.692229 15.709441 Q 285.744531 15.572218 264.80436 14.940994 C 264.557359 14.935505 264.365247 15.166039 264.425625 15.407551 Q 264.864738 17.240845 265.688073 19.140006 Q 268.630126 25.902337 271.456912 31.995021 C 271.583157 32.269466 271.896024 32.406689 272.175959 32.313377 C 274.283698 31.643731 276.12797 30.672195 278.087509 29.728103 Q 290.470478 23.767153 300.641418 18.206892 Z M 244.435035 46.364973 Q 251.158943 42.802674 258.201208 38.696973 Q 259.024543 38.219439 259.172744 37.269858 Q 260.69317 27.664275 262.230064 17.350623 Q 262.252019 17.196934 262.213597 17.048734 Q 262.09833 16.626088 261.785462 16.933467 Q 250.626519 27.98812 237.464126 41.540226 Q 228.956324 50.300518 220.245432 58.715008 C 220.223477 58.736964 220.223477 58.764408 220.239944 58.791853 C 220.25641 58.813809 220.283855 58.819297 220.311299 58.80832 Q 230.58104 53.709127 244.435035 46.364973 Z M 304.950208 18.415471 C 294.823179 23.712264 284.707128 28.822434 274.387987 34.00396 Q 273.207873 34.596762 272.944405 35.315808 Q 272.626049 36.188544 273.504274 35.881165 Q 275.266212 35.260919 277.308084 34.218027 Q 289.718498 27.867365 303.962205 20.396965 Q 305.076453 19.809653 305.383831 18.777739 C 305.460676 18.51976 305.19172 18.289226 304.950208 18.415471 Z M 253.57955 43.938877 C 243.123187 49.674782 232.019133 55.185643 221.623147 60.103701 C 218.818317 61.432016 216.29891 63.204932 213.64228 64.939426 C 213.554458 64.994315 213.510547 65.098604 213.521524 65.197405 L 213.548969 65.405983 Q 213.570924 65.537717 213.69168 65.482828 Q 233.704226 55.778444 253.458794 45.838038 Q 254.671842 45.234259 255.588489 44.202345 C 255.879401 43.883988 255.621422 43.37352 255.193288 43.417431 Q 254.386419 43.499765 253.57955 43.938877 Z M 264.217047 48.313534 C 264.271936 49.021603 265.045872 49.433271 265.660629 49.076492 L 266.533365 48.577001 C 266.961499 48.330001 267.137144 47.808555 266.945033 47.358465 L 266.626676 46.606485 C 266.483965 46.271662 266.160119 46.046616 265.792363 46.024661 L 265.139183 45.986239 C 264.557359 45.953305 264.074335 46.436329 264.118247 47.023641 L 264.217047 48.313534 Z M 269.426017 56.10229 C 269.343684 55.888222 269.140594 55.740022 268.904571 55.729044 L 265.150161 55.542421 C 264.507959 55.514977 264.282914 56.387713 264.859249 56.667647 L 268.245903 58.325296 C 268.427037 58.413118 268.641104 58.402141 268.816749 58.297851 L 269.574218 57.825806 C 269.821219 57.677605 269.920019 57.375716 269.81573 57.106759 L 269.426017 56.10229 Z M 266.966988 59.8073 C 267.2579 59.483455 267.181055 58.978476 266.813299 58.747942 L 264.80436 57.496471 C 264.337803 57.205559 263.734023 57.545872 263.739512 58.100251 L 263.777935 61.547283 C 263.788912 62.183996 264.568337 62.474908 264.996471 62.002862 L 266.966988 59.8073 Z M 266.396142 62.441974 C 265.995452 62.826198 266.050341 63.484866 266.511409 63.797734 L 268.805771 65.367561 C 269.365639 65.751784 270.134086 65.378538 270.177997 64.697914 L 270.435976 60.669058 C 270.485376 59.867678 269.524818 59.423077 268.948483 59.977456 L 266.396142 62.441974 Z M 263.904179 64.313691 C 263.745001 64.390536 263.640712 64.555203 263.646201 64.736337 L 263.70109 69.37995 C 263.706579 69.775151 264.173136 69.983729 264.469537 69.720262 L 267.845213 66.701364 C 268.05928 66.509253 268.048302 66.17443 267.828746 65.998785 L 265.270917 63.945934 C 265.133694 63.836156 264.941582 63.814201 264.782404 63.891045 L 263.904179 64.313691 Z M 266.368698 70.033129 C 265.951541 70.417353 266.072297 71.103466 266.588254 71.328511 L 269.244884 72.48667 C 269.766329 72.717204 270.342664 72.338469 270.348153 71.773112 L 270.359131 68.117502 C 270.36462 67.4259 269.541284 67.069121 269.041794 67.541167 L 266.368698 70.033129 Z M 263.766957 71.899357 C 263.657179 72.020113 263.596801 72.179291 263.60229 72.338469 L 263.673645 76.74606 C 263.684623 77.322395 264.387203 77.602329 264.787893 77.185172 L 267.724457 74.166275 C 267.987924 73.891829 267.965969 73.447228 267.669568 73.211205 L 265.20505 71.213244 C 264.936093 70.999177 264.546381 71.03211 264.315847 71.2846 L 263.766957 71.899357 Z M 268.959461 80.571826 C 269.519329 81.016428 270.342664 80.615737 270.337176 79.90218 L 270.331687 75.59339 C 270.331687 74.879832 269.508351 74.484631 268.948483 74.929232 L 266.247942 77.091861 C 265.825296 77.432173 265.825296 78.079864 266.253431 78.420176 L 268.959461 80.571826 Z M 263.854779 79.084333 C 263.755979 79.155689 263.70109 79.270956 263.70109 79.391712 L 263.723046 84.776327 C 263.728534 85.105661 264.123736 85.275817 264.365247 85.045283 L 267.625657 81.90563 C 267.779346 81.75743 267.784835 81.515918 267.631146 81.362228 L 264.941582 78.672665 C 264.809849 78.540932 264.60127 78.524465 264.447581 78.639732 L 263.854779 79.084333 Z M 270.183486 87.224379 C 270.243864 87.125578 270.276798 87.010311 270.282287 86.895044 L 270.36462 82.964989 C 270.381087 82.40512 269.738885 82.070297 269.288795 82.410609 L 265.715518 85.094684 C 265.35325 85.369129 265.35325 85.91253 265.721007 86.181487 L 268.66306 88.333137 C 268.981416 88.56916 269.436995 88.475849 269.640085 88.135537 L 270.183486 87.224379 Z M 264.798871 86.889555 C 264.365247 86.472399 263.640712 86.774288 263.635223 87.378068 L 263.580334 92.208304 C 263.574845 92.855995 264.376225 93.152396 264.787893 92.658394 L 267.065788 89.968831 C 267.296322 89.694386 267.274367 89.282718 267.016388 89.035717 L 264.798871 86.889555 Z M 269.436995 90.160943 C 268.163569 90.188387 266.681565 92.038148 265.896652 92.949306 Q 265.270917 93.673841 266.077786 94.189798 L 268.223947 95.545558 Q 269.129617 96.116404 269.777307 95.265624 C 270.781777 93.959264 270.490865 91.851525 270.095664 90.364032 Q 270.01333 90.051164 270.210931 89.793186 Q 270.419509 89.529718 270.41402 89.216851 Q 270.408531 88.794205 270.227397 89.17294 Q 270.06273 89.529718 269.876108 89.886497 Q 269.738885 90.155454 269.436995 90.160943 Z M 267.450012 97.367874 C 267.75739 97.033051 267.686035 96.500627 267.301811 96.259116 L 264.716537 94.601466 C 264.233514 94.294088 263.591312 94.639889 263.596801 95.221713 L 263.60229 99.673214 C 263.607779 100.337372 264.420136 100.655728 264.870227 100.167216 L 267.450012 97.367874 Z M 265.978985 100.672195 C 265.616718 101.001529 265.682584 101.594331 266.116208 101.830354 L 269.283306 103.586803 C 269.771818 103.855759 270.36462 103.498981 270.353642 102.944601 L 270.26582 98.383322 C 270.254842 97.763075 269.524818 97.450208 269.06375 97.867365 L 265.978985 100.672195 Z M 267.75739 105.343253 C 268.141614 104.948051 268.05928 104.300361 267.587234 104.020427 L 264.90316 102.395711 C 264.343292 102.055399 263.618756 102.461578 263.613267 103.120246 L 263.585823 107.500392 C 263.585823 108.268839 264.507959 108.647573 265.045872 108.104172 L 267.75739 105.343253 Z M 265.989963 109.01533 C 265.627695 109.377597 265.710029 109.981377 266.15463 110.228378 L 269.21195 111.935427 C 269.733396 112.226339 270.370109 111.842116 270.353642 111.243825 L 270.249353 106.605701 C 270.238375 105.930565 269.420529 105.601231 268.942994 106.078766 L 265.989963 109.01533 Z M 264.941582 110.360111 C 264.409159 109.904532 263.585823 110.283267 263.591312 110.985846 L 263.613267 115.700815 C 263.618756 116.403395 264.447581 116.776641 264.974516 116.310084 L 267.669568 113.938877 C 268.042813 113.609543 268.042813 113.027719 267.664079 112.703874 L 264.941582 110.360111 Z M 269.124128 120.635341 C 269.61264 121.036031 270.342664 120.679252 270.331687 120.048028 L 270.243864 114.871991 C 270.232886 114.240767 269.486395 113.911433 269.01435 114.328589 L 266.00643 116.968752 C 265.660629 117.270642 265.671607 117.814044 266.022897 118.099467 L 269.124128 120.635341 Z M 263.508978 119.625382 C 263.487023 119.658316 263.476045 119.696738 263.481534 119.73516 L 263.871246 124.69713 C 263.882224 124.845331 264.05238 124.916686 264.167647 124.823375 L 268.048302 121.628832 C 268.136125 121.557477 268.136125 121.425743 268.053791 121.348898 L 264.513448 118.38489 C 264.431114 118.313534 264.304869 118.330001 264.244491 118.428801 L 263.508978 119.625382 Z M 268.942994 128.330785 C 269.491884 128.797342 270.337176 128.40763 270.337176 127.688583 L 270.342664 123.226104 C 270.348153 122.507057 269.502862 122.111856 268.953972 122.578413 L 266.319297 124.806908 C 265.918607 125.141731 265.918607 125.756489 266.313809 126.096801 L 268.942994 128.330785 Z M 263.728534 126.717047 C 263.646201 126.810358 263.596801 126.931114 263.60229 127.05187 L 263.816357 132.579197 C 263.832824 132.974398 264.299381 133.171999 264.595781 132.908531 L 268.031836 129.812789 C 268.234925 129.631655 268.240414 129.324277 268.053791 129.137654 L 264.985494 126.069356 C 264.798871 125.882733 264.496981 125.888222 264.315847 126.085823 L 263.728534 126.717047 Z M 269.920019 136.679409 C 270.139575 136.630009 270.298753 136.437897 270.304242 136.207363 L 270.342664 131.108171 C 270.348153 130.701992 269.881596 130.476947 269.56324 130.723947 L 266.182075 133.380577 C 265.951541 133.5672 265.935074 133.913001 266.15463 134.11609 L 268.932016 136.679409 C 269.052772 136.783698 269.21195 136.827609 269.365639 136.794676 L 269.920019 136.679409 Z M 264.90316 134.357602 C 264.486003 133.973379 263.810868 134.264291 263.79989 134.829648 L 263.706579 140.345997 C 263.695601 140.916843 264.359758 141.229711 264.787893 140.861954 L 267.993413 138.161413 C 268.295303 137.903434 268.306281 137.436878 268.00988 137.167921 L 264.90316 134.357602 Z M 269.601662 145.461656 C 269.854152 145.681212 270.243864 145.505567 270.249353 145.170744 L 270.375598 139.319572 C 270.381087 138.984749 269.996863 138.792637 269.733396 138.995726 L 266.088763 141.849957 C 265.891163 142.003646 265.885674 142.300047 266.077786 142.459225 L 269.601662 145.461656 Z M 264.244491 142.63487 C 264.041402 142.459225 263.728534 142.601937 263.723046 142.870893 L 263.695601 148.738532 C 263.695601 148.831843 263.734023 148.914177 263.79989 148.974555 L 264.881204 149.946091 C 265.00196 150.05038 265.177605 150.05038 265.298361 149.946091 L 268.679526 146.927194 C 268.822238 146.800949 268.822238 146.581393 268.679526 146.460637 L 264.244491 142.63487 Z M 269.497373 153.486435 C 269.782796 153.744413 270.232886 153.552301 270.254842 153.168078 L 270.496354 148.387242 C 270.518309 147.986552 270.051753 147.756018 269.744374 148.019486 L 266.895632 150.462048 C 266.687054 150.643182 266.681565 150.967027 266.884655 151.148161 L 269.497373 153.486435 Z M 264.162158 151.740963 Q 263.382733 153.673057 263.838313 156.362621 Q 263.898691 156.741355 264.282914 156.741355 L 269.601662 156.746844 C 269.832196 156.746844 270.024308 156.571199 270.046264 156.335176 C 270.221909 154.364659 267.954991 154.51286 266.868188 153.491923 Q 265.863718 152.553321 264.75496 151.751941 C 264.606759 151.642163 264.507959 151.482984 264.480514 151.307339 Q 264.420136 150.950561 264.134713 150.725516 Q 264.074335 150.676115 264.008469 150.714538 L 263.854779 150.80236 Q 263.624245 150.934094 263.832824 151.098761 Q 263.997491 151.230495 264.118247 151.389673 Q 264.239003 151.543362 264.162158 151.740963 Z" style="fill:#000000;"/>
		<path d="M 252.750725 156.757822 L 231.678821 156.829177 L 231.629421 124.664197 Q 231.415353 124.153729 231.541598 123.352348 Q 231.656865 122.616835 231.673332 121.908767 Q 232.117933 106.583745 231.794088 92.191837 Q 231.755665 90.698855 231.547087 89.227829 Q 231.508665 88.931428 231.289108 88.728338 Q 230.602995 88.102603 229.653415 88.097114 Q 229.280169 88.097114 228.917902 87.943425 Q 228.418411 87.729358 228.231789 87.498824 L 228.253744 77.256528 C 228.253744 77.036972 228.429389 76.861327 228.643456 76.861327 L 252.498236 76.839371 C 252.723281 76.839371 252.904415 77.020505 252.898926 77.24555 L 252.750725 156.757822 Z" style="fill:#ed7a1e;"/>
		<path d="M 228.231789 87.498824 Q 228.418411 87.729358 228.917902 87.943425 Q 229.280169 88.097114 229.653415 88.097114 Q 230.602995 88.102603 231.289108 88.728338 Q 231.508665 88.931428 231.547087 89.227829 Q 231.755665 90.698855 231.794088 92.191837 Q 232.117933 106.583745 231.673332 121.908767 Q 231.656865 122.616835 231.541598 123.352348 Q 231.415353 124.153729 231.629421 124.664197 L 223.357641 124.653219 Q 222.96244 124.653219 222.96244 124.258018 L 222.978907 88.124559 Q 222.978907 87.888536 223.209441 87.872069 L 228.231789 87.498824 Z" style="fill:#f89221;"/>
		<path d="M 213.175723 156.807222 L 190.330903 156.895044 L 190.835882 113.011252 C 190.841371 112.786207 191.017016 112.605073 191.242061 112.599584 L 195.825296 112.500784 Q 196.182075 112.495295 196.182075 112.138516 L 196.039363 90.155454 Q 196.039363 89.793186 196.401631 89.798675 L 215.557908 89.957853 C 215.881753 89.963342 216.139732 90.22132 216.134243 90.545166 Q 215.969576 105.837254 215.936642 122.858347 Q 215.936642 123.429193 215.964087 124.027484 C 215.975065 124.312907 215.739042 124.54893 215.453619 124.526974 L 213.955148 124.422685 Q 213.598369 124.39524 213.59288 124.757508 L 213.175723 156.807222 Z" style="fill:#f89221;"/>
		<path d="M 230.443817 156.774288 L 214.740061 156.8676 L 214.39426 125.723555 C 214.39426 125.613777 214.482083 125.531444 214.586372 125.536932 Q 222.248883 125.888222 230.169372 125.641222 C 230.383439 125.630244 230.559084 125.8004 230.559084 126.014467 L 230.443817 156.774288 Z" style="fill:#ed7a1e;"/>
	</g>
	<g id="surface4">
	</g>
</svg>
