<?xml version="1.0" encoding="utf-8"?>
<svg xmlns="http://www.w3.org/2000/svg" width="490pt" height="280pt" viewBox="0 0 490 280" version="1.1" xmlns:xlink="http://www.w3.org/1999/xlink">
	<g id="surface2">
		<path d="M 276.134678 26.341121 C 276.356273 26.324397 276.536058 26.148793 276.556963 25.927198 Q 277.384808 17.795083 277.798731 9.767494 Q 277.848903 8.776588 278.768731 8.408657 Q 279.420973 8.149433 280.215369 9.332666 C 280.311533 9.474821 280.365887 9.642063 280.37843 9.817666 L 281.34843 25.659612 C 281.369335 26.023362 281.62856 26.328578 281.983948 26.412198 L 283.250802 26.70069 Q 283.731621 26.809397 283.756707 27.298578 L 283.760888 27.465819 Q 283.790155 27.988449 283.263345 27.984268 L 274.453902 27.867199 C 274.236488 27.863018 274.056703 27.687414 274.052522 27.47 C 274.035798 26.466552 275.407178 26.395474 276.134678 26.341121 Z" style="fill:#0b3c5c;"/>
		<path d="M 283.436022 30.780001 C 283.434767 30.961165 283.288431 31.107502 283.104005 31.108547 L 274.708569 31.064604 C 274.524979 31.065691 274.378643 30.915174 274.380023 30.732588 L 274.385751 29.637157 C 274.387005 29.455993 274.533342 29.309656 274.717767 29.308611 L 283.113204 29.352554 C 283.296793 29.351467 283.443129 29.501984 283.44175 29.68457 L 283.436022 30.780001 Z" style="fill:#0b3c5c;"/>
		<path d="M 279.565344 35.494746 C 279.575671 35.698279 279.420973 35.873883 279.214555 35.887011 L 278.438095 35.930452 C 278.233558 35.940779 278.057955 35.786081 278.04583 35.579663 L 277.888497 32.766035 C 277.87817 32.562502 278.032869 32.386899 278.239286 32.37377 L 279.015747 32.330329 C 279.220283 32.320002 279.395886 32.474701 279.408011 32.681118 L 279.565344 35.494746 Z" style="fill:#0b3c5c;"/>
		<path d="M 281.719873 35.561016 C 281.724723 35.811167 281.524034 36.016038 281.276266 36.020386 L 280.849883 36.027829 C 280.600025 36.032762 280.395154 35.832072 280.390513 35.584221 L 280.34147 32.775024 C 280.33662 32.524873 280.537309 32.320002 280.785077 32.315654 L 281.211459 32.308212 C 281.461318 32.303278 281.666189 32.503968 281.67083 32.75182 L 281.719873 35.561016 Z" style="fill:#0b3c5c;"/>
		<path d="M 277.10702 35.592081 C 277.096317 35.857159 276.874722 36.06621 276.609686 36.0558 L 276.183513 36.040915 C 275.917264 36.032762 275.712394 35.806986 275.719752 35.543623 L 275.814578 32.82758 C 275.825282 32.562502 276.046877 32.35345 276.311912 32.363861 L 276.738085 32.378746 C 277.004334 32.386899 277.209205 32.612675 277.201846 32.876038 L 277.10702 35.592081 Z" style="fill:#0b3c5c;"/>
		<path d="M 272.727134 52.953415 Q 272.363384 53.714363 272.070711 54.500398 C 271.957823 54.805614 271.669332 55.006304 271.343211 55.006304 C 270.218512 55.002123 270.180883 53.731088 270.022004 52.928329 Q 269.909116 52.363889 269.624805 52.861432 C 269.189978 53.622381 268.679891 55.666907 267.337779 54.851605 Q 267.14127 54.730355 267.078554 54.512941 L 266.643727 53.070484 C 266.57683 52.85307 266.342692 52.727639 266.125278 52.798717 Q 265.782433 52.907423 265.644459 53.275355 Q 265.251442 54.354062 265.24308 55.646002 Q 265.217993 62.118246 265.351786 68.435791 Q 265.360149 68.845533 264.954588 68.845533 L 263.95532 68.849714 C 263.746269 68.853895 263.574846 68.682472 263.574846 68.473421 Q 263.579027 60.918288 263.599932 53.062122 Q 263.599932 52.769449 263.679372 52.476777 Q 263.829889 51.920699 264.515579 52.092121 C 264.862605 52.179923 265.201269 51.92488 265.209631 51.565311 Q 265.263985 49.127767 265.611011 47.020525 C 266.183813 43.520998 268.102908 39.896039 271.029633 37.692633 Q 271.669332 37.207633 272.30903 36.659918 C 272.580798 36.42578 272.75222 36.095478 272.785668 35.735909 L 273.049074 32.767373 Q 273.069979 32.491425 273.350108 32.487244 L 274.387005 32.474701 C 274.52916 32.470519 274.650411 32.587588 274.654592 32.729744 L 274.76748 36.053667 Q 274.775842 36.317073 274.591876 36.5094 C 272.78985 38.36578 270.444288 40.297419 269.206702 42.467377 Q 266.631183 46.982895 267.350322 51.64057 C 267.379589 51.824535 267.496658 51.983415 267.66808 52.058673 Q 268.119632 52.263544 268.362132 51.945785 Q 269.231788 50.791819 269.286141 49.299189 Q 269.3614 47.233758 269.674978 45.151602 Q 269.792047 44.37811 270.243599 43.788584 Q 270.507004 43.445739 270.950194 43.278498 Q 271.376659 43.115437 271.347392 43.57117 L 270.837306 51.577854 Q 270.799676 52.196647 271.393383 52.384794 Q 271.627521 52.455872 271.949461 52.251001 C 272.183599 52.104665 272.329936 51.853802 272.34666 51.573673 Q 272.538987 48.082508 272.777306 44.858929 C 272.894375 43.299403 273.488083 41.355221 274.909635 40.598453 Q 275.223212 40.431212 275.135411 40.778238 Q 274.897092 41.689704 274.805109 42.622075 Q 274.332652 47.467896 274.48735 52.012682 C 274.491531 52.16738 274.662954 52.255182 274.788385 52.16738 Q 275.641316 51.586216 276.314463 52.171561 Q 276.870541 52.656561 276.870541 51.920699 Q 276.870541 47.367551 277.205024 43.002549 C 277.276101 42.057635 277.51442 41.070911 277.903257 40.197074 Q 278.283731 39.339962 278.576403 40.226341 Q 278.839809 41.024919 278.84399 41.928023 Q 278.860714 46.941085 278.889981 51.791087 Q 278.894162 52.242639 279.345714 52.221734 L 281.314982 52.121389 C 281.561663 52.108846 281.753991 51.903975 281.753991 51.657294 Q 281.779077 46.928542 281.503129 42.103626 Q 281.452956 41.213066 281.582568 40.280695 C 281.607654 40.113453 281.804163 40.042376 281.929594 40.155264 C 282.966491 41.125264 283.267526 43.010911 283.418043 44.382291 Q 283.836147 48.233025 283.752526 52.317897 C 283.748345 52.485139 283.907224 52.606389 284.066104 52.560398 Q 284.49675 52.434966 284.923216 52.388975 Q 285.797053 52.301173 285.128087 52.869794 Q 284.893949 53.066303 284.856319 53.384062 Q 284.785242 53.994493 284.647268 54.558933 C 284.605457 54.738717 284.459121 54.876691 284.275155 54.918502 Q 283.564379 55.077381 282.9205 54.893416 C 282.76162 54.847424 282.627827 54.734536 282.55675 54.584019 Q 282.251534 53.940139 282.063387 53.258631 Q 281.79162 52.255182 281.432051 53.233544 Q 281.260628 53.710182 281.235542 54.249536 C 281.210456 54.742898 280.746361 55.094105 280.265542 54.985398 C 279.584033 54.8307 279.182654 53.726907 278.931791 53.154105 C 278.869076 53.011949 278.68511 52.965958 278.56386 53.062122 Q 278.346446 53.233544 278.350627 53.53876 Q 278.363171 54.128286 278.358989 54.726174 C 278.358989 54.859967 278.275369 54.985398 278.145757 55.03139 C 276.799463 55.528933 276.728385 54.186821 276.398084 53.396605 Q 276.030152 52.514406 275.708213 53.413329 L 275.331919 54.450226 C 275.206488 54.801433 274.855281 55.023028 274.483169 54.989579 Q 273.446272 54.889235 273.199591 53.028674 Q 273.090884 52.200828 272.727134 52.953415 Z" style="fill:#0b3c5c;"/>
		<path d="M 288.769769 52.982682 C 288.251321 53.467682 288.280588 54.136648 287.870846 54.680183 C 287.394208 55.3157 286.516191 55.014666 286.202613 54.379148 Q 285.684165 53.329708 285.700889 52.539492 Q 285.813777 46.936904 285.178259 41.698066 Q 285.119725 41.217247 285.487656 41.535006 C 287.151708 42.985825 287.394208 44.817119 287.494553 47.116689 Q 287.590717 49.416258 287.653433 51.72419 Q 287.670157 52.259363 288.205329 52.255182 L 288.322398 52.251001 Q 288.698692 52.24682 288.753045 51.874708 L 289.062442 49.863629 C 289.087528 49.700569 289.246407 49.591862 289.405287 49.633672 Q 289.664511 49.700569 289.706321 49.959793 Q 289.869382 51.017595 290.14533 51.979234 Q 290.233132 52.284449 290.546709 52.330441 Q 291.048434 52.401518 291.060977 51.891432 Q 291.228218 45.787119 288.460372 42.074359 Q 286.649984 39.645177 282.732353 36.183279 Q 282.569293 36.041124 282.586017 35.82371 L 282.757439 33.097675 C 282.786707 32.654485 283.221534 32.35345 283.648 32.483063 Q 284.388043 32.704657 284.45494 33.427977 Q 284.551104 34.481598 284.693259 35.501771 C 284.747612 35.898969 284.965026 36.250176 285.286966 36.484314 C 289.547442 39.53647 292.269296 43.345394 292.863003 48.609318 Q 293.038607 50.164664 293.168219 51.736733 C 293.189124 51.975052 293.385633 52.163199 293.623952 52.16738 L 294.556323 52.192466 Q 294.840633 52.196647 294.840633 52.480958 L 294.970246 68.473421 Q 294.974427 69.142386 294.305461 69.083852 L 293.77865 69.03786 Q 293.030245 68.970964 293.046969 68.218377 Q 293.168219 62.703591 293.138952 57.707253 Q 293.122228 55.39514 292.796107 53.488588 Q 292.561969 52.129751 291.993348 53.384062 C 291.090244 55.365873 289.271493 55.884321 289.037355 53.087208 Q 289.012269 52.756906 288.769769 52.982682 Z" style="fill:#0b3c5c;"/>
		<path d="M 238.785484 42.872937 C 237.004362 42.300135 238.129061 40.34341 239.404277 40.197074 C 240.834191 40.029833 241.925442 41.848583 240.395183 42.818584 Q 240.232122 42.92311 240.227941 43.119618 C 240.169407 45.778757 242.376994 45.728585 244.212468 46.309749 Q 244.818719 46.497895 244.534408 47.070697 Q 244.241736 47.660223 243.547684 47.656042 Q 239.671863 47.64768 235.269232 47.664404 Q 234.583542 47.664404 234.269965 47.049792 C 234.173801 46.861645 234.253241 46.631688 234.441387 46.543887 C 235.515913 46.046343 236.845483 45.941818 237.765311 45.18505 Q 238.572251 44.524446 239.082337 43.633886 C 239.249579 43.345394 239.103242 42.973282 238.785484 42.872937 Z" style="fill:#0b3c5c;"/>
		<path d="M 236.143696 55.616317 C 236.14725 55.863416 235.94656 56.064106 235.700255 56.067576 L 235.566462 56.068705 C 235.319405 56.072468 235.118715 55.871778 235.115203 55.625264 L 235.055372 48.768616 C 235.051818 48.521517 235.252508 48.320827 235.498813 48.317357 L 235.632606 48.316228 C 235.879664 48.312465 236.080353 48.513155 236.083865 48.759669 L 236.143696 55.616317 Z" style="fill:#0b3c5c;"/>
		<path d="M 243.770909 55.477841 C 243.77346 55.750528 243.551865 55.972123 243.278425 55.972039 L 243.194804 55.972207 C 242.920528 55.972123 242.703114 55.750528 242.700564 55.47968 L 242.688941 48.815109 C 242.68639 48.542422 242.907985 48.320827 243.181425 48.320911 L 243.265046 48.320743 C 243.539322 48.320827 243.756735 48.542422 243.759286 48.813269 L 243.770909 55.477841 Z" style="fill:#0b3c5c;"/>
		<path d="M 238.680958 55.754709 Q 238.680958 56.051563 238.981992 56.059925 L 239.362467 56.068287 Q 239.696949 56.076649 239.696949 55.737985 L 239.667682 49.127767 Q 239.663501 48.517336 240.273932 48.483887 L 240.90945 48.450439 Q 241.498976 48.421172 241.503157 49.006517 L 241.561692 56.214623 C 241.561692 56.423675 241.691304 56.611821 241.883631 56.68708 C 249.129367 59.530185 254.096438 65.860273 254.192601 73.841871 Q 254.196782 74.276699 253.761955 74.272518 Q 240.704579 74.155449 227.220738 74.184716 Q 225.778281 74.188897 224.411082 74.088552 Q 224.022245 74.059285 224.043151 73.670448 Q 224.540694 65.191307 230.736989 60.011004 C 232.526473 58.514193 234.704792 57.464753 236.841302 56.540744 C 236.991819 56.473847 237.092164 56.32333 237.087983 56.16027 L 237.037811 49.031603 Q 237.03363 48.437896 237.627337 48.425353 L 238.179233 48.416991 C 238.463544 48.41281 238.697682 48.642767 238.693501 48.927077 L 238.680958 55.754709 Z" style="fill:#0b3c5c;"/>
		<path d="M 289.564166 68.540317 L 289.559985 57.406218 C 289.559985 57.201347 289.710502 57.029925 289.911192 57.000658 L 290.826839 56.866865 C 291.07352 56.833416 291.295115 57.025744 291.295115 57.272425 L 291.290934 68.569584 C 291.290934 68.799541 291.098606 68.987688 290.868649 68.979326 L 289.961364 68.950059 C 289.739769 68.941697 289.564166 68.761912 289.564166 68.540317 Z" style="fill:#0b3c5c;"/>
		<path d="M 268.907172 68.593165 C 268.905667 68.749369 268.780236 68.8748 268.627503 68.873797 L 267.473579 68.875803 C 267.316873 68.8748 267.191442 68.749369 267.192947 68.596176 L 267.173213 57.299016 C 267.174718 57.142813 267.300149 57.017382 267.452882 57.018385 L 268.606807 57.016378 C 268.763512 57.017382 268.888943 57.142813 268.887438 57.296006 L 268.907172 68.593165 Z" style="fill:#0b3c5c;"/>
		<path d="M 276.459336 68.575312 C 276.460799 68.778636 276.293558 68.941697 276.090777 68.942575 L 275.053881 68.940777 C 274.8511 68.941697 274.68804 68.774455 274.686576 68.572218 L 274.706227 57.333594 C 274.704764 57.13027 274.872005 56.967209 275.074786 56.966331 L 276.111683 56.968129 C 276.314463 56.967209 276.477523 57.134451 276.478987 57.336688 L 276.459336 68.575312 Z" style="fill:#0b3c5c;"/>
		<path d="M 280.255842 68.570713 C 280.25718 68.75355 280.110844 68.899886 279.926711 68.902144 L 278.856366 68.905907 C 278.672567 68.908248 278.526231 68.757731 278.524893 68.576734 L 278.485758 57.363279 C 278.484421 57.180442 278.630757 57.034106 278.81489 57.031848 L 279.885235 57.028085 C 280.069033 57.025744 280.215369 57.176261 280.216707 57.357258 L 280.255842 68.570713 Z" style="fill:#0b3c5c;"/>
		<path d="M 287.56145 57.284968 L 287.611622 68.494326 C 287.611622 68.699197 287.444381 68.870619 287.23951 68.870619 L 286.227699 68.887343 C 286.018647 68.887343 285.847225 68.720102 285.847225 68.51105 L 285.843044 57.410399 C 285.843044 57.222253 285.985199 57.063373 286.173346 57.038287 L 287.139165 56.912856 C 287.364941 56.883589 287.56145 57.059192 287.56145 57.284968 Z" style="fill:#0b3c5c;"/>
		<path d="M 272.679888 68.612482 C 272.681143 68.782817 272.543168 68.91661 272.37576 68.918743 L 271.230156 68.922757 C 271.063082 68.924972 270.925107 68.786998 270.923895 68.618586 L 270.884551 57.346597 C 270.883297 57.176261 271.021271 57.042468 271.18868 57.040336 L 272.334284 57.036322 C 272.501358 57.034106 272.639332 57.17208 272.640545 57.340492 L 272.679888 68.612482 Z" style="fill:#0b3c5c;"/>
		<path d="M 283.925537 68.613778 C 283.928129 68.786998 283.785974 68.929153 283.614134 68.92953 L 282.568916 68.936847 C 282.393689 68.937516 282.255715 68.799541 282.253165 68.625443 L 282.174687 57.387111 C 282.172094 57.213891 282.31425 57.071735 282.48609 57.071359 L 283.531307 57.064042 C 283.706535 57.063373 283.844509 57.201347 283.847059 57.375446 L 283.925537 68.613778 Z" style="fill:#0b3c5c;"/>
		<path d="M 215.961208 89.554204 L 215.923579 86.815626 Q 215.923579 86.560582 216.174441 86.560582 L 260.869716 86.535496 C 261.095492 86.535496 261.279457 86.719462 261.283638 86.945238 L 261.283638 89.662911 Q 261.283638 89.98067 261.601397 89.98067 L 263.181829 89.984851 Q 263.499587 89.984851 263.495406 89.667092 L 263.374156 70.864973 C 263.374156 70.747904 263.47032 70.65174 263.587389 70.65174 L 295.818996 70.672646 C 295.948608 70.672646 296.053134 70.777171 296.048953 70.902602 L 296.015505 120.527319 Q 296.015505 120.73219 295.818996 120.677836 Q 286.348949 117.935077 272.777306 115.656412 C 262.236915 113.887834 251.939023 113.089256 241.549148 113.394471 Q 217.922114 114.088523 194.3787 119.519689 C 194.219821 119.553137 194.073485 119.427706 194.086028 119.264646 Q 194.219821 117.767835 194.21564 116.220852 Q 194.182191 102.711924 194.228183 90.160454 C 194.228183 90.009937 194.349433 89.888687 194.49995 89.888687 L 215.630906 89.884506 Q 215.965389 89.884506 215.961208 89.554204 Z M 272.342479 75.242518 C 272.342479 75.08782 272.46791 74.958207 272.622608 74.958207 L 274.399548 74.924759 C 274.558428 74.924759 274.68804 75.05019 274.68804 75.20907 L 274.721488 89.708902 C 274.721488 89.867782 274.8511 89.997394 275.00998 89.993213 L 276.632222 89.968127 C 276.78692 89.963946 276.912351 89.838515 276.912351 89.683816 L 276.837092 75.229975 C 276.837092 75.071095 276.962523 74.945664 277.121403 74.945664 L 278.956878 74.933121 C 279.115757 74.933121 279.241188 75.058552 279.241188 75.217432 L 279.316447 89.629463 C 279.316447 89.77998 279.433516 89.905411 279.579852 89.913773 L 281.252266 90.018299 C 281.419508 90.030842 281.557482 89.897049 281.553301 89.733989 L 281.444594 75.217432 C 281.440413 75.058552 281.570025 74.92894 281.728904 74.92894 L 283.48494 74.941483 C 283.639638 74.941483 283.765069 75.066914 283.765069 75.221613 L 283.919767 111.931109 C 283.919767 112.073264 284.024293 112.194514 284.166448 112.211238 L 285.512742 112.37848 C 285.679984 112.399385 285.830501 112.265592 285.830501 112.094169 L 285.863949 75.121268 C 285.863949 74.966569 285.98938 74.841138 286.144079 74.836957 L 287.695243 74.816052 C 287.854122 74.811871 287.983734 74.941483 287.983734 75.100363 L 287.958648 112.336669 C 287.958648 112.487187 288.071536 112.608437 288.217872 112.62098 L 289.681235 112.74223 C 289.844295 112.754773 289.986451 112.625161 289.986451 112.457919 L 290.044985 75.066914 C 290.044985 74.912216 290.174597 74.782604 290.329296 74.782604 L 291.621236 74.790966 C 291.780115 74.790966 291.905546 74.916397 291.905546 75.075276 L 291.913908 112.792402 C 291.913908 112.934557 292.018434 113.051627 292.160589 113.072532 L 293.908262 113.310851 C 294.079685 113.331756 294.230202 113.197963 294.230202 113.02654 L 294.188392 73.106008 C 294.188392 72.947129 294.062961 72.821698 293.904081 72.821698 L 265.640278 72.876051 C 265.481399 72.876051 265.355967 73.001483 265.355967 73.160362 L 265.40614 89.608558 C 265.40614 89.767437 265.531571 89.892868 265.69045 89.892868 L 267.580279 89.888687 C 267.734977 89.888687 267.864589 89.759075 267.864589 89.604377 L 267.764244 75.167259 C 267.764244 75.012561 267.893856 74.882949 268.048555 74.882949 L 269.875667 74.874587 C 270.030366 74.874587 270.159978 75.004199 270.159978 75.158897 L 270.151616 89.646187 C 270.151616 89.805066 270.281228 89.934678 270.440107 89.934678 L 272.166875 89.917954 C 272.325755 89.917954 272.451186 89.792523 272.451186 89.633644 L 272.342479 75.242518 Z M 223.486571 89.732274 C 223.487073 89.566747 223.35328 89.432954 223.190721 89.434417 L 222.396366 89.431616 C 222.232762 89.432954 222.098969 89.562566 222.098467 89.727466 L 222.024212 110.99209 C 222.02371 111.157617 222.157503 111.29141 222.320062 111.289947 L 223.114417 111.292748 C 223.278021 111.29141 223.411814 111.161798 223.412316 110.996898 L 223.486571 89.732274 Z M 228.573721 89.812216 C 228.575394 89.650368 228.441601 89.520756 228.280547 89.520045 L 227.469426 89.521467 C 227.30854 89.520756 227.178928 89.654549 227.177255 89.814683 L 227.214048 110.895424 C 227.212376 111.057272 227.346169 111.186884 227.507223 111.187595 L 228.318344 111.186174 C 228.47923 111.186884 228.608842 111.053091 228.610514 110.892958 L 228.573721 89.812216 Z M 233.667896 89.792523 C 233.667896 89.633644 233.538283 89.504032 233.379404 89.504032 L 232.401042 89.504032 C 232.242162 89.504032 232.11255 89.633644 232.11255 89.792523 L 232.11255 110.864945 C 232.11255 111.023824 232.242162 111.153436 232.401042 111.153436 L 233.379404 111.153436 C 233.538283 111.153436 233.667896 111.023824 233.667896 110.864945 L 233.667896 89.792523 Z M 237.159061 110.844039 C 237.159061 110.990376 237.27613 111.107445 237.422466 111.107445 L 238.496992 111.107445 C 238.643328 111.107445 238.760397 110.990376 238.760397 110.844039 L 238.601518 89.725627 C 238.601518 89.57929 238.480268 89.462221 238.333932 89.462221 L 237.409923 89.487308 C 237.263587 89.487308 237.150699 89.604377 237.150699 89.750713 L 237.159061 110.844039 Z M 243.541161 89.639121 C 243.539322 89.575109 243.489149 89.524937 243.428441 89.526066 L 242.165768 89.52385 C 242.105226 89.524937 242.050873 89.575109 242.052712 89.636529 L 242.015585 110.892916 C 242.017424 110.956927 242.067597 111.0071 242.128306 111.005971 L 243.390978 111.008187 C 243.45152 111.0071 243.505873 110.956927 243.504034 110.895508 L 243.541161 89.639121 Z M 253.435123 89.719899 C 253.435834 89.570928 253.314584 89.453859 253.168457 89.451392 L 252.231946 89.448089 C 252.085359 89.449678 251.964109 89.566747 251.963398 89.714756 L 251.889561 110.870673 C 251.88885 111.019643 252.010101 111.136712 252.156228 111.139179 L 253.092738 111.142482 C 253.239325 111.140893 253.360575 111.023824 253.361286 110.875815 L 253.435123 89.719899 Z M 248.462826 89.732818 C 248.464582 89.662911 248.406048 89.604377 248.333005 89.603457 L 247.245935 89.605338 C 247.172642 89.604377 247.118288 89.662911 247.116532 89.735159 L 247.153493 110.907926 C 247.151737 110.977833 247.210271 111.036367 247.283314 111.037287 L 248.370383 111.035406 C 248.443677 111.036367 248.49803 110.977833 248.499786 110.905584 L 248.462826 89.732818 Z M 258.896267 105.676279 C 258.896267 105.538305 259.009155 105.425417 259.147129 105.429598 L 261.965147 105.458865 C 262.103121 105.463046 262.211828 105.571753 262.211828 105.709727 L 262.241096 111.458652 C 262.241096 111.592445 262.341441 111.701152 262.475234 111.709514 L 264.574114 111.843307 C 264.716269 111.851669 264.837519 111.738781 264.8417 111.596626 L 264.946226 105.634469 C 264.950407 105.496494 265.063295 105.383606 265.201269 105.387787 L 268.286874 105.433779 C 268.420667 105.43796 268.529374 105.546667 268.533555 105.68046 L 268.612995 111.671885 C 268.617176 111.801497 268.71752 111.910204 268.851314 111.918566 L 270.93347 112.031454 C 271.075625 112.035635 271.196875 111.922747 271.196875 111.780592 L 271.180151 105.626107 C 271.180151 105.488132 271.293039 105.375244 271.431013 105.375244 L 274.575152 105.35852 C 274.713126 105.35852 274.826014 105.471408 274.826014 105.609382 L 274.821833 111.755505 C 274.821833 111.889298 274.922178 111.998005 275.055971 112.006367 L 276.983429 112.152704 C 277.125584 112.165247 277.251015 112.048178 277.251015 111.901842 L 277.301187 93.848128 C 277.301187 93.710154 277.188299 93.597266 277.050325 93.597266 L 258.74575 93.609809 C 258.607775 93.609809 258.499068 93.501102 258.494887 93.363128 L 258.457258 89.917954 C 258.453077 89.792523 258.356913 89.687997 258.231482 89.671273 L 257.591784 89.600196 C 257.441266 89.583471 257.311654 89.70054 257.311654 89.851058 L 257.386913 111.015462 C 257.386913 111.153436 257.499801 111.266324 257.637775 111.266324 L 258.607775 111.257962 C 258.74575 111.257962 258.854456 111.149255 258.854456 111.011281 L 258.896267 105.676279 Z M 200.22797 105.647012 C 200.22797 105.509038 200.340858 105.39615 200.478832 105.391969 L 203.238315 105.350158 C 203.380471 105.345977 203.493359 105.458865 203.49754 105.60102 L 203.606247 111.93529 C 203.610428 112.081626 203.727497 112.194514 203.873833 112.186152 L 205.847282 112.09835 C 205.985256 112.089988 206.089782 111.981281 206.089782 111.843307 L 206.139954 105.701365 C 206.139954 105.55921 206.252842 105.446322 206.394998 105.446322 L 209.192111 105.446322 C 209.330085 105.446322 209.442973 105.55921 209.447154 105.697184 L 209.518232 111.747143 C 209.522413 111.889298 209.639482 112.002186 209.781637 111.998005 L 211.826163 111.943652 C 211.964138 111.939471 212.072845 111.826583 212.077026 111.688609 L 212.143922 105.718089 C 212.148103 105.580115 212.260991 105.467227 212.398965 105.467227 L 215.36332 105.454684 C 215.505475 105.454684 215.618363 105.567572 215.618363 105.709727 L 215.635087 111.513005 C 215.635087 111.65516 215.752156 111.772229 215.894311 111.768048 L 217.779959 111.738781 C 217.917933 111.7346 218.030821 111.621712 218.030821 111.483738 L 218.051726 93.860671 C 218.051726 93.718516 217.938838 93.605628 217.796683 93.605628 L 198.476115 93.542912 C 198.33396 93.542912 198.216891 93.659981 198.221072 93.802137 L 198.430124 111.998005 C 198.434305 112.13598 198.547193 112.248868 198.685167 112.248868 L 199.968745 112.248868 C 200.110901 112.248868 200.223789 112.13598 200.223789 111.993824 L 200.22797 105.647012 Z" style="fill:#0b3c5c;"/>
		<path d="M 254.426739 79.657692 L 223.236211 79.632606 C 222.851555 79.632606 222.537978 79.323209 222.533797 78.938554 L 222.517073 77.312131 C 222.512891 76.919113 222.826469 76.601355 223.219487 76.601355 L 254.677602 76.613898 C 255.108248 76.613898 255.434369 76.994372 255.371653 77.420838 L 255.124972 79.059804 C 255.070619 79.402649 254.777946 79.657692 254.426739 79.657692 Z" style="fill:#0b3c5c;"/>
		<path d="M 222.195133 80.669503 L 255.23786 80.627692 C 255.354929 80.627692 255.451093 80.723856 255.451093 80.840925 L 255.421826 83.671486 C 255.421826 83.788555 255.329843 83.880538 255.212774 83.880538 L 222.216038 83.801099 C 222.10315 83.801099 222.011167 83.709116 222.011167 83.596228 L 221.986081 80.878554 C 221.986081 80.765666 222.082245 80.669503 222.195133 80.669503 Z" style="fill:#0b3c5c;"/>
		<path d="M 268.629217 102.347171 C 268.629719 102.607399 268.420667 102.81645 268.160147 102.814653 L 265.434111 102.809886 C 265.176183 102.808088 264.967131 102.599036 264.966671 102.340774 L 264.975995 96.997452 C 264.975493 96.737224 265.184545 96.528172 265.445065 96.52997 L 268.171101 96.534736 C 268.429029 96.536534 268.638081 96.745586 268.638541 97.003849 L 268.629217 102.347171 Z" style="fill:#0b3c5c;"/>
		<path d="M 206.102325 102.394166 L 206.119049 96.954638 C 206.119049 96.741405 206.294653 96.565802 206.507886 96.565802 L 209.179568 96.578345 C 209.3928 96.578345 209.564223 96.745586 209.568404 96.958819 L 209.668749 102.440157 C 209.67293 102.657571 209.493145 102.837356 209.275731 102.833174 L 206.48698 102.787183 C 206.273748 102.783002 206.102325 102.607399 206.102325 102.394166 Z" style="fill:#0b3c5c;"/>
		<path d="M 215.640564 102.51922 C 215.639268 102.645028 215.534742 102.749554 215.409019 102.747547 L 212.365308 102.726307 C 212.240086 102.724468 212.13556 102.619942 212.13694 102.494761 L 212.176074 96.892299 C 212.17737 96.766491 212.281896 96.661965 212.40762 96.663972 L 215.451331 96.685212 C 215.576553 96.687052 215.681079 96.791577 215.679699 96.916758 L 215.640564 102.51922 Z" style="fill:#0b3c5c;"/>
		<path d="M 262.42364 102.465452 C 262.425061 102.632485 262.291268 102.766278 262.124696 102.768577 L 259.214778 102.788897 C 259.046784 102.791364 258.912991 102.657571 258.911653 102.489995 L 258.872602 96.895894 C 258.871181 96.728862 259.004974 96.595069 259.171546 96.592769 L 262.081464 96.572449 C 262.249458 96.569983 262.383251 96.703776 262.384589 96.871352 L 262.42364 102.465452 Z" style="fill:#0b3c5c;"/>
		<path d="M 274.814809 102.442122 C 274.813471 102.615761 274.675497 102.762097 274.498179 102.76101 L 271.479471 102.771546 C 271.305582 102.770459 271.159245 102.628304 271.160625 102.454874 L 271.141183 96.885776 C 271.142521 96.712138 271.280496 96.565802 271.457813 96.566889 L 274.476521 96.556352 C 274.650411 96.557439 274.796747 96.699595 274.795367 96.873024 L 274.814809 102.442122 Z" style="fill:#0b3c5c;"/>
		<path d="M 200.22797 102.486149 L 200.261418 97.021534 C 200.265599 96.816664 200.428659 96.653603 200.63353 96.653603 L 203.079436 96.657784 C 203.275945 96.657784 203.439005 96.816664 203.447367 97.013172 L 203.610428 102.502873 C 203.61879 102.711924 203.447367 102.887528 203.238315 102.883347 L 200.59172 102.858261 C 200.386849 102.85408 200.223789 102.691019 200.22797 102.486149 Z" style="fill:#0b3c5c;"/>
		<path d="M 226.614488 124.110467 C 221.689227 126.418399 217.403665 129.190425 212.913233 132.493444 Q 209.785818 134.793014 207.151765 137.000601 Q 198.756245 144.041465 193.876976 153.896167 Q 193.483958 154.690564 193.500683 153.804184 Q 193.77245 139.346162 193.630295 123.508398 C 193.626114 123.370423 193.722278 123.244992 193.856071 123.207363 Q 205.751118 119.707836 218.938106 118.261197 Q 231.330696 116.906542 241.507338 116.383912 C 250.881221 115.907274 260.472517 116.885637 269.976012 118.252835 Q 273.6386 118.779646 278.154119 119.72456 Q 286.871579 121.543311 295.087315 123.84288 C 295.43016 123.939044 295.668479 124.252622 295.67266 124.612191 Q 295.693565 138.957326 295.555591 155.025047 Q 295.55141 155.52259 295.442703 156.091211 Q 295.346539 156.597117 295.074771 156.158108 C 282.310069 135.420169 260.351267 122.375337 235.733327 121.769087 C 232.405223 121.689647 229.57048 122.722363 226.614488 124.110467 Z" style="fill:#7ea86a;"/>
	</g>
	<g id="surface4">
	</g>
</svg>
