<?xml version="1.0" encoding="utf-8"?>
<svg xmlns="http://www.w3.org/2000/svg" width="490pt" height="280pt" viewBox="0 0 490 280" version="1.1" xmlns:xlink="http://www.w3.org/1999/xlink">
	<g id="surface2">
		<path vector-effect="non-scaling-stroke" d="M 267.877176 11.346065 Q 267.474182 11.292332 266.738045 11.327259 Q 265.975042 11.362185 265.6016 11.362185 Q 244.874249 11.340692 224.146897 11.389051 C 222.74985 11.391738 221.229217 11.300392 219.762317 11.278899" style="fill:none;stroke-width:0.50;stroke:#899591;"/>
		<path vector-effect="non-scaling-stroke" d="M 241.61268 84.56211 L 241.626113 84.357926" style="fill:none;stroke-width:0.50;stroke:#899591;"/>
		<path vector-effect="non-scaling-stroke" d="M 207.618749 26.423433 Q 207.661735 26.278355 207.640242 26.125217" style="fill:none;stroke-width:0.50;stroke:#c6dac5;"/>
		<path vector-effect="non-scaling-stroke" d="M 198.567492 17.025601 L 292.239538 17.025601 C 292.261031 17.025601 292.277151 17.009481 292.277151 16.987988 L 292.277151 16.676339 C 292.277151 15.056301 290.987569 13.742539 289.397084 13.742539 L 201.409946 13.742539 C 199.819461 13.742539 198.529879 15.056301 198.529879 16.676339 L 198.529879 16.987988 C 198.529879 17.009481 198.545999 17.025601 198.567492 17.025601" style="fill:none;stroke-width:0.50;stroke:#899591;"/>
		<path vector-effect="non-scaling-stroke" d="M 245.489487 21.969001 Q 285.775506 21.974374 287.935557 21.947507 Q 289.859184 21.923328 291.342204 20.547773 Q 291.721019 20.195825 291.882216 19.741784 C 291.919829 19.639692 291.841917 19.52954 291.731765 19.526854 Q 291.444296 19.52148 245.489487 19.513421 Q 199.531992 19.508047 199.244523 19.516107 C 199.134371 19.518794 199.059145 19.626259 199.094071 19.728351 Q 199.255269 20.182391 199.634084 20.53434 Q 201.117104 21.912581 203.040731 21.936761 Q 205.200782 21.963627 245.489487 21.969001" style="fill:none;stroke-width:0.50;stroke:#899591;"/>
		<path vector-effect="non-scaling-stroke" d="M 211.791085 24.325175 Q 211.251073 24.072632 210.638521 24.21771 Q 210.506876 24.24995 210.48807 24.384281 Q 210.101195 27.156883 210.179107 29.703809 Q 210.367171 35.70574 211.791085 41.404083 Q 215.536248 56.36324 227.529365 66.010928" style="fill:none;stroke-width:0.50;stroke:#899591;"/>
		<path vector-effect="non-scaling-stroke" d="M 227.529365 66.010928 Q 231.508264 69.261751 237.265712 72.773177 Q 240.366083 74.664564 243.434215 78.173303" style="fill:none;stroke-width:0.50;stroke:#e0e77a;"/>
		<path vector-effect="non-scaling-stroke" d="M 243.434215 78.173303 Q 244.181098 79.264075 244.613646 80.674556 Q 244.731857 81.053371 244.820516 80.666496 Q 245.26381 78.758988 246.789816 77.281342 C 248.608665 75.516226 250.827821 74.065446 252.641297 72.560933" style="fill:none;stroke-width:0.50;stroke:#ccd474;"/>
		<path vector-effect="non-scaling-stroke" d="M 252.641297 72.560933 Q 259.924751 67.399916 265.956236 60.855285 Q 269.021681 57.529237 271.299943 53.36496 Q 275.450787 45.78329 277.581284 37.613248 Q 278.537725 33.945998 278.846687 30.087997" style="fill:none;stroke-width:0.50;stroke:#80ada4;"/>
		<path vector-effect="non-scaling-stroke" d="M 278.846687 30.087997 Q 279.118037 27.221362 278.844 24.309055 C 278.838627 24.236516 278.776835 24.180097 278.704296 24.180097 Q 260.564169 24.180097 242.394489 24.182784 Q 240.589074 24.182784 239.401583 24.303682" style="fill:none;stroke-width:0.50;stroke:#c6dac5;"/>
		<path vector-effect="non-scaling-stroke" d="M 239.401583 24.303682 Q 238.783658 24.206963 238.026029 24.196217 Q 235.707467 24.166664 233.391592 24.166664 C 233.136362 24.166664 232.832773 24.263383 232.620529 24.260696 Q 226.336501 24.145171 219.861722 24.268756 Q 219.517834 24.274129 219.383502 24.591152 L 217.31211 29.504998 C 217.29599 29.545298 217.263751 29.577537 217.223451 29.593657 C 215.788791 30.200835 214.018302 30.251881 213.247239 28.63453" style="fill:none;stroke-width:0.50;stroke:#eaebd1;"/>
		<path vector-effect="non-scaling-stroke" d="M 213.247239 28.63453 Q 213.263359 28.519005 213.319778 28.441093" style="fill:none;stroke-width:0.50;stroke:#899591;"/>
		<path vector-effect="non-scaling-stroke" d="M 213.319778 28.441093 Q 214.351444 26.533585 215.017728 24.429954 C 215.047281 24.333235 214.982802 24.236516 214.883397 24.22577 Q 213.354704 24.078005 211.791085 24.325175" style="fill:none;stroke-width:0.50;stroke:#eaebd1;"/>
		<path vector-effect="non-scaling-stroke" d="M 213.319778 28.441093 L 213.284852 28.287955 C 213.266045 28.201982 213.193506 28.14019 213.107534 28.13213 Q 212.658867 28.089144 212.312292 28.293328 Q 212.188707 28.368554 212.175273 28.510945 Q 212.057062 29.717242 211.69974 30.977271 Q 211.500929 31.678482 211.613768 33.698828 C 211.616454 33.731067 211.597648 33.763307 211.570782 33.779427 L 211.45257 33.846592 Q 211.369284 33.894952 211.358538 33.80092 Q 210.794346 28.999912 211.791085 24.325175" style="fill:none;stroke-width:0.50;stroke:#7b8c87;"/>
		<path vector-effect="non-scaling-stroke" d="M 213.247239 28.63453 C 213.204253 28.884387 213.102161 29.064391 213.080668 29.306187 Q 212.940963 30.934285 212.795885 32.570443 Q 212.317665 37.989376 213.894717 43.139646" style="fill:none;stroke-width:0.50;stroke:#7b8c87;"/>
		<path vector-effect="non-scaling-stroke" d="M 213.894717 43.139646 Q 214.230545 45.168052 215.052654 47.387208 C 216.503435 51.304315 218.29273 54.998432 220.847715 58.28418 Q 223.314042 61.45709 225.613797 63.740726 Q 226.239782 64.361338 226.564864 64.15984" style="fill:none;stroke-width:0.50;stroke:#19646d;"/>
		<path vector-effect="non-scaling-stroke" d="M 226.564864 64.15984 Q 227.059204 64.995382 227.40578 65.645547 Q 227.435333 65.701966 227.523991 65.795998 Q 227.639516 65.91421 227.529365 66.010928" style="fill:none;stroke-width:0.50;stroke:#718730;"/>
		<path vector-effect="non-scaling-stroke" d="M 239.401583 24.303682 Q 241.540141 25.934467 243.931242 26.748516 C 244.189158 26.834488 244.355729 27.084344 244.339609 27.355694 C 244.29125 28.14019 244.159605 29.059017 244.541107 29.768288 Q 244.739917 30.13367 244.922608 30.474872" style="fill:none;stroke-width:0.50;stroke:#b8d1bb;"/>
		<path vector-effect="non-scaling-stroke" d="M 244.922608 30.474872 L 244.895742 35.893805 C 244.895742 36.046942 244.79365 36.183961 244.643199 36.226947 Q 244.31543 36.318292 243.998407 36.138288" style="fill:none;stroke-width:0.50;stroke:#72a49b;"/>
		<path vector-effect="non-scaling-stroke" d="M 243.998407 36.138288 L 244.03602 30.241135 C 244.03602 30.11755 243.936615 30.018144 243.81303 30.018144 L 217.355096 30.018144 C 217.223451 30.018144 217.107926 30.10949 217.078373 30.238448 C 216.629706 32.127149 216.189099 34.104509 216.183726 36.084555 Q 216.175666 39.552995 216.447015 42.981135 Q 216.457762 43.115466 216.320744 43.118153 L 213.894717 43.139646" style="fill:none;stroke-width:0.50;stroke:#7abbad;"/>
		<path vector-effect="non-scaling-stroke" d="M 243.630339 37.564889 L 239.565468 40.563168 C 239.312924 40.748545 239.345164 41.138107 239.624574 41.291245 C 239.869057 41.422889 240.572954 41.420203 240.728779 41.825884 Q 240.85505 42.156339 240.543401 41.992455 Q 240.215632 41.823197 239.847564 41.866183 Q 239.689053 41.88499 239.723979 42.040814 Q 239.737412 42.105293 239.785771 42.153653 Q 239.869057 42.242312 240.003388 42.261118 Q 241.123713 42.430376 242.085527 41.817824 Q 242.238665 41.721105 242.268218 41.90111 L 242.292397 42.040814 Q 242.311204 42.145593 242.405236 42.09186 L 243.050027 41.718419 C 243.119879 41.678119 243.149432 41.592147 243.122566 41.516921 Q 243.066147 41.35035 242.759871 41.205272 Q 242.598673 41.12736 242.711512 40.987655 Q 243.404662 40.141367 244.401402 39.888824" style="fill:none;stroke-width:0.50;stroke:#70b656;"/>
		<path vector-effect="non-scaling-stroke" d="M 244.702305 39.958676 Q 245.253064 40.560481 245.793076 40.786158 Q 246.158458 40.939296 245.787703 41.073627 L 245.365902 41.226765 C 245.290677 41.253632 245.234257 41.318111 245.218138 41.396023 Q 245.04888 42.185892 245.167092 42.811877 Q 245.196644 42.965015 245.349782 42.989195 L 245.836062 43.067107 Q 246.096666 43.110093 245.889795 43.273978 Q 245.091866 43.910709 244.465881 43.341143 Q 244.30737 43.198752 244.202591 43.381443 L 243.753924 44.160566 Q 243.676012 44.294897 243.522874 44.327137 L 243.254211 44.380869" style="fill:none;stroke-width:0.50;stroke:#5ca351;"/>
		<path vector-effect="non-scaling-stroke" d="M 243.254211 44.380869 L 242.880769 44.396989 Q 242.751811 44.402362 242.657779 44.313703 Q 242.343443 44.015487 242.139259 44.010114 C 241.446109 43.985935 240.683106 43.617866 239.960402 44.179372 C 239.613827 44.448035 239.670246 45.200291 239.495615 45.597913 Q 239.433823 45.734931 239.283372 45.734931 L 238.034089 45.734931 C 237.824531 45.734931 237.69826 45.965981 237.808412 46.143299 Q 238.058268 46.543606 237.991102 47.371089 Q 237.980356 47.526913 237.824531 47.500047 Q 237.499449 47.443628 237.193173 47.827816 C 237.177054 47.849309 237.152874 47.860055 237.128694 47.860055 L 237.007796 47.860055 Q 236.865404 47.860055 236.96481 47.757963 Q 237.177054 47.534973 237.504822 47.411388 C 237.518256 47.406015 237.523629 47.395268 237.520942 47.381835 L 237.300638 46.288377 Q 237.281832 46.194345 237.198547 46.240017 Q 236.90839 46.401215 236.873464 46.484501 Q 236.172254 48.185137 234.573709 49.574125 Q 234.474304 49.662784 234.436691 49.789056 Q 234.286239 50.329068 233.840259 50.21623 Q 232.988597 50.003986 232.526497 50.073838 Q 230.484658 50.382801 229.141343 50.433847 C 228.886113 50.444593 228.732975 50.724003 228.86462 50.944307 C 229.178956 51.465513 229.627623 51.895374 229.898972 52.451506 Q 230.232115 53.128537 230.387939 53.383767 Q 230.627049 53.773328 230.605556 54.364387 Q 230.541077 56.180549 230.272414 57.290127 Q 230.242861 57.411025 230.119276 57.411025 L 229.474485 57.411025 Q 229.307914 57.411025 229.224628 57.556103 L 228.3864 59.004197 Q 228.319234 59.125095 228.33804 59.262114 C 228.434759 59.957951 228.534164 60.390498 228.252068 61.032603 Q 227.540111 62.655327 226.564864 64.15984" style="fill:none;stroke-width:0.50;stroke:#70b656;"/>
		<path vector-effect="non-scaling-stroke" d="M 242.652406 53.101671 Q 241.451482 53.3972 240.798631 54.37782 Q 240.723405 54.490658 240.597134 54.547078 Q 239.871744 54.861413 239.546661 55.277841" style="fill:none;stroke-width:0.50;stroke:#689f44;"/>
		<path vector-effect="non-scaling-stroke" d="M 243.447648 62.257706 L 243.434215 78.173303" style="fill:none;stroke-width:0.50;stroke:#b4c614;"/>
		<path vector-effect="non-scaling-stroke" d="M 252.641297 72.560933 Q 252.579504 71.848976 252.829361 71.28747 C 253.10071 70.677605 253.85834 69.769524 253.949685 69.122046 C 254.059837 68.35367 253.63535 67.273645 253.337134 66.61542 C 253.243102 66.40855 252.985185 66.336011 252.797121 66.464969 L 251.827248 67.128567 C 251.776202 67.163493 251.711723 67.176926 251.64993 67.168866 Q 251.212009 67.104387 250.379154 66.338697 Q 248.264776 64.39089 247.082659 61.849338 Q 247.015493 61.701574 246.854295 61.72844 L 243.447648 62.257706" style="fill:none;stroke-width:0.50;stroke:#538c3e;"/>
		<path vector-effect="non-scaling-stroke" d="M 243.447648 62.257706 Q 243.025847 62.332932 242.523447 62.383978 C 241.615366 62.475323 240.728779 62.220093 239.89861 62.362485 Q 239.463376 62.435024 239.280685 62.311439 Q 238.506935 61.792919 237.821845 61.435597 C 236.526889 60.761253 236.000309 59.165395 234.23788 60.086909 Q 232.711874 60.887525 231.398112 59.923025 Q 230.858099 59.525403 230.790934 59.006884 C 230.645856 57.926858 230.866159 56.707128 231.172435 55.750688 C 231.239601 55.541131 231.422292 55.39068 231.642595 55.363813 C 232.408285 55.267095 233.015463 55.261721 233.633388 54.920519 Q 234.200267 54.611557 234.823565 53.956019 Q 235.191634 53.569144 235.49791 54.009752 Q 236.148074 54.947386 237.639154 55.919946 Q 237.730499 55.979052 238.18454 56.365926 C 238.281258 56.446525 238.426337 56.408912 238.472009 56.290701 L 238.68694 55.737255" style="fill:none;stroke-width:0.50;stroke:#689f44;"/>
		<path vector-effect="non-scaling-stroke" d="M 238.68694 55.737255 Q 238.993215 55.758748 238.995902 56.013978 C 239.012022 57.239081 239.382777 57.577596 240.140407 58.337913 Q 240.443996 58.644189 240.761018 58.297613 C 240.820124 58.235821 240.908783 58.208955 240.992068 58.230448 Q 241.647606 58.402392 241.959255 58.684488 Q 242.974801 59.600629 244.108559 59.815559 C 244.842009 59.955264 245.75815 59.428685 246.357269 59.286293 Q 247.246543 59.076736 247.517893 59.796753 C 247.918201 60.866032 248.22985 61.757993 249.132558 62.324872 C 250.021832 62.883691 250.529605 63.163101 251.17171 64.052375 Q 251.719782 64.807318 252.12815 65.296285 Q 252.270542 65.468229 252.469352 65.366137 C 253.804607 64.69448 254.881946 63.635947 254.984038 62.072329 C 255.037771 61.271713 254.602537 60.659161 255.306434 59.691974 C 255.639576 59.232561 256.57721 59.315846 257.305287 59.24062 C 258.433671 59.127782 259.097269 58.362092 260.053709 57.940292 C 260.505063 57.738794 260.548049 57.499684 260.599095 57.04027 Q 260.736113 55.82054 260.505063 54.477225 C 260.464764 54.240802 260.174608 54.152143 260.008036 54.324087 C 258.764127 55.62979 256.827066 54.367073 255.773907 53.448246 C 255.666442 53.354214 255.704055 53.176896 255.84376 53.139283 Q 256.985578 52.827634 260.24446 51.884627 C 261.080002 51.64283 261.996143 51.728803 262.713473 51.16461 C 263.44961 50.589671 263.629614 49.079785 263.460356 48.330215 C 262.718846 45.0579 261.971963 41.807078 260.534616 38.937757 Q 260.018783 37.906091 260.080575 37.24518 Q 260.174608 36.275306 260.878505 35.552603 C 261.082689 35.348419 261.133734 35.03677 261.007463 34.776166 Q 260.725367 34.193168 260.150428 33.459718 C 259.50295 32.637609 258.468597 33.51345 257.630369 33.438225 C 256.405265 33.328073 255.57241 33.247474 254.503131 33.811666 Q 253.538631 34.322126 251.958893 35.748727 C 251.276488 36.366651 250.747222 36.616508 250.854688 37.71534 C 250.870807 37.892657 250.806328 38.072662 250.680057 38.198933 L 248.568365 40.310625 C 248.248656 40.630334 247.722077 40.595407 247.445354 40.238086 Q 247.053106 39.732999 245.795763 38.20162 Q 245.567399 37.927584 245.398142 37.855045 Q 245.00858 37.69116 244.80977 38.096841 Q 244.406775 38.91089 244.702305 39.958676" style="fill:none;stroke-width:0.50;stroke:#538c3e;"/>
		<path vector-effect="non-scaling-stroke" d="M 244.702305 39.958676 Q 244.527674 39.972109 244.401402 39.888824" style="fill:none;stroke-width:0.50;stroke:#107c81;"/>
		<path vector-effect="non-scaling-stroke" d="M 244.401402 39.888824 Q 244.503494 39.794792 244.444388 39.630907 C 244.318116 39.297765 243.931242 39.246719 243.877509 38.819545 Q 243.770044 37.95445 243.630339 37.564889" style="fill:none;stroke-width:0.50;stroke:#689f44;"/>
		<path vector-effect="non-scaling-stroke" d="M 243.630339 37.564889 Q 244.054827 37.078608 243.998407 36.138288" style="fill:none;stroke-width:0.50;stroke:#107c81;"/>
		<path vector-effect="non-scaling-stroke" d="M 278.846687 30.087997 Q 278.774148 29.961725 278.457126 29.993965 Q 278.164283 30.026204 278.064878 30.026204 Q 261.587775 30.020831 245.110672 30.063817 Q 244.968281 30.063817 244.925295 30.198149 Q 244.890369 30.313674 244.922608 30.474872" style="fill:none;stroke-width:0.50;stroke:#4e928f;"/>
		<path vector-effect="non-scaling-stroke" d="M 238.68694 55.737255 Q 239.259192 55.632476 239.546661 55.277841" style="fill:none;stroke-width:0.50;stroke:#b4c614;"/>
		<path vector-effect="non-scaling-stroke" d="M 239.546661 55.277841 Q 240.057121 56.473391 240.822811 57.300874 Q 240.919529 57.405652 241.061921 57.405652 Q 242.004928 57.402965 242.743751 57.800587 C 243.718998 58.321793 244.906488 58.026264 245.803823 57.607149 C 247.01012 57.045644 247.149825 55.750688 247.109525 54.549764 C 247.104152 54.396626 247.01012 54.262295 246.870415 54.203189 L 245.637252 53.681983 C 245.578146 53.657803 245.537847 53.601384 245.532473 53.539591 L 245.492174 53.120477 Q 245.473367 52.945846 245.298736 52.953906 L 242.652406 53.101671" style="fill:none;stroke-width:0.50;stroke:#538c3e;"/>
		<path vector-effect="non-scaling-stroke" d="M 242.652406 53.101671 Q 243.353616 52.580464 243.358989 51.277449 Q 243.361676 50.611164 243.361676 50.584298 Q 243.474515 47.577959 243.509441 44.566247 Q 243.512127 44.442662 243.458395 44.405049 Q 243.391229 44.354003 243.254211 44.380869" style="fill:none;stroke-width:0.50;stroke:#b4c614;"/>
		<path vector-effect="non-scaling-stroke" d="M 243.993034 86.612008 Q 242.84853 88.124581 240.884603 89.510882 Q 238.007222 91.541975 235.127155 93.556947" style="fill:none;stroke-width:0.50;stroke:#88c4b7;"/>
		<path vector-effect="non-scaling-stroke" d="M 235.127155 93.556947 C 230.04405 96.858816 227.064578 98.73677 223.230756 102.18103 Q 221.038466 104.153017 219.485594 106.030971 C 213.92427 112.74486 210.713747 121.688652 210.383291 130.422886 C 210.380604 130.500798 210.43165 130.570651 210.509563 130.589457 Q 211.081815 130.718415 211.710486 130.62707" style="fill:none;stroke-width:0.50;stroke:#899591;"/>
		<path vector-effect="non-scaling-stroke" d="M 211.710486 130.62707 L 217.760777 130.65125" style="fill:none;stroke-width:0.50;stroke:#88c4b7;"/>
		<path vector-effect="non-scaling-stroke" d="M 217.760777 130.65125 L 224.367201 130.702296" style="fill:none;stroke-width:0.50;stroke:#eaebd1;"/>
		<path vector-effect="non-scaling-stroke" d="M 224.367201 130.702296 Q 226.846961 130.688862 229.262241 130.640503 C 230.704961 130.61095 231.578116 130.342287 232.851579 129.829141 Q 234.72416 129.074198 243.923182 125.417694 C 244.070946 125.358588 244.164979 125.216197 244.162292 125.057686 L 243.968855 111.654088" style="fill:none;stroke-width:0.50;stroke:#c6dac5;"/>
		<path vector-effect="non-scaling-stroke" d="M 243.968855 111.654088 Q 244.046767 110.963624 244.312743 110.388685 C 244.379909 110.243607 244.592153 110.251667 244.648572 110.402118 L 245.05694 111.498263" style="fill:none;stroke-width:0.50;stroke:#eaebd1;"/>
		<path vector-effect="non-scaling-stroke" d="M 245.05694 111.498263 L 245.285303 113.596522" style="fill:none;stroke-width:0.50;stroke:#c6dac5;"/>
		<path vector-effect="non-scaling-stroke" d="M 245.285303 113.596522 L 245.145599 125.149031 Q 245.145599 125.302169 245.285303 125.361275 L 257.364392 130.452439 C 257.555143 130.533038 257.75664 130.576024 257.963511 130.578711 L 262.004203 130.61901" style="fill:none;stroke-width:0.50;stroke:#80ada4;"/>
		<path vector-effect="non-scaling-stroke" d="M 262.004203 130.61901 L 270.142005 130.605577" style="fill:none;stroke-width:0.50;stroke:#ccd474;"/>
		<path vector-effect="non-scaling-stroke" d="M 270.142005 130.605577 L 277.613524 130.600204 C 277.710242 130.600204 277.785468 130.511545 277.772035 130.414826 C 276.044532 118.660819 270.056033 108.475804 261.24926 100.461587 C 256.950651 96.549853 253.638036 93.731578 250.008399 91.176593 Q 247.383561 89.330878 247.319082 89.285205 C 245.932781 88.296525 244.452448 87.00963 244.656632 85.241827 Q 244.758724 84.336433 245.129479 81.891599 Q 245.180525 81.539651 244.874249 81.187702 Q 244.774844 81.07755 244.702305 81.203822 Q 244.288563 81.905032 244.557227 83.33432 Q 244.76947 84.465391 244.600213 84.895252 Q 244.272444 85.72542 243.993034 86.612008" style="fill:none;stroke-width:0.50;stroke:#80ada4;"/>
		<path vector-effect="non-scaling-stroke" d="M 270.142005 130.605577 Q 269.739011 126.938327 267.852996 123.596159 Q 263.946636 116.6754 257.044683 112.97591" style="fill:none;stroke-width:0.50;stroke:#538c3e;"/>
		<path vector-effect="non-scaling-stroke" d="M 257.044683 112.97591 Q 254.860453 111.589609 253.981925 111.267213 Q 251.88904 110.501524 249.809588 109.695535 Q 245.903228 108.182962 244.77753 104.190629" style="fill:none;stroke-width:0.50;stroke:#4e928f;"/>
		<path vector-effect="non-scaling-stroke" d="M 244.77753 104.190629 Q 244.750664 103.948833 244.653945 103.827934 Q 244.565286 103.717783 244.484687 103.833308 L 244.396029 103.956893" style="fill:none;stroke-width:0.50;stroke:#72a49b;"/>
		<path vector-effect="non-scaling-stroke" d="M 244.396029 103.956893 Q 244.164979 103.989132 244.164979 103.854801 Q 244.207965 98.734084 244.194531 89.475956 C 244.191845 88.583995 244.382596 87.420684 243.993034 86.612008" style="fill:none;stroke-width:0.50;stroke:#107c81;"/>
		<path vector-effect="non-scaling-stroke" d="M 244.396029 103.956893 Q 243.324063 107.242641 240.618627 109.048057 C 239.143667 110.031363 236.803612 110.689588 234.939091 111.449904 Q 225.006619 115.495969 219.802616 124.848129 Q 218.478108 127.225796 217.760777 130.65125" style="fill:none;stroke-width:0.50;stroke:#7abbad;"/>
		<path vector-effect="non-scaling-stroke" d="M 211.710486 130.62707 Q 211.807205 130.629757 211.877057 130.608264 Q 212.016762 130.559904 211.93885 130.436319 Q 211.817952 130.242882 211.817952 130.011832 Q 211.817952 128.684636 212.059748 127.497146" style="fill:none;stroke-width:0.50;stroke:#19646d;"/>
		<path vector-effect="non-scaling-stroke" d="M 212.059748 127.497146 L 214.775931 127.435353 Q 214.91295 127.432667 214.934443 127.295649 C 215.38311 124.25707 216.522241 121.054607 217.618386 118.230959 Q 220.791296 110.06629 227.679816 104.513025 C 230.143456 102.527605 233.789213 100.176804 236.46241 97.447188 C 236.919137 96.979714 237.480643 96.32149 237.348998 95.604159 Q 237.16362 94.602046 236.594055 93.787997 C 236.516142 93.675159 236.363005 93.640233 236.242106 93.710085 L 235.331339 94.239351" style="fill:none;stroke-width:0.50;stroke:#7abbad;"/>
		<path vector-effect="non-scaling-stroke" d="M 235.331339 94.239351 L 235.127155 93.556947" style="fill:none;stroke-width:0.50;stroke:#19646d;"/>
		<path vector-effect="non-scaling-stroke" d="M 257.044683 112.97591 Q 257.084983 113.300992 256.977518 113.349352" style="fill:none;stroke-width:0.50;stroke:#9ab95f;"/>
		<path vector-effect="non-scaling-stroke" d="M 256.977518 113.349352 Q 256.504671 113.540102 256.039884 113.658314 Q 255.55629 113.784586 255.09419 113.585775 C 254.006105 113.115615 252.955632 112.395598 251.918593 112.44933 Q 251.778888 112.454704 251.709036 112.575602 Q 251.40276 113.094122 251.623064 113.532042" style="fill:none;stroke-width:0.50;stroke:#577a7b;"/>
		<path vector-effect="non-scaling-stroke" d="M 251.623064 113.532042 L 251.271115 113.714733" style="fill:none;stroke-width:0.50;stroke:#9ab95f;"/>
		<path vector-effect="non-scaling-stroke" d="M 251.271115 113.714733 L 250.975586 112.607842 Q 250.94066 112.478883 250.809015 112.468137 C 250.083625 112.403658 249.900934 112.699187 249.47376 113.169347 Q 249.366294 113.287559 249.43346 113.534729" style="fill:none;stroke-width:0.50;stroke:#4e928f;"/>
		<path vector-effect="non-scaling-stroke" d="M 249.43346 113.534729 Q 249.358235 113.472937 249.328682 113.392338" style="fill:none;stroke-width:0.50;stroke:#9ab95f;"/>
		<path vector-effect="non-scaling-stroke" d="M 249.328682 113.392338 Q 249.307189 112.637395 248.554932 112.527243 C 247.848348 112.422464 247.662971 113.196214 247.453414 113.601895 C 247.362068 113.781899 247.182064 113.889364 247.00206 113.870558 Q 246.174578 113.787272 245.516353 113.360098 Q 245.382022 113.274126 245.336349 113.424577 L 245.285303 113.596522" style="fill:none;stroke-width:0.50;stroke:#4e928f;"/>
		<path vector-effect="non-scaling-stroke" d="M 244.77753 104.190629 C 244.664692 104.942886 244.508867 105.558124 244.57872 106.337247 Q 244.80977 108.916412 245.05694 111.498263" style="fill:none;stroke-width:0.50;stroke:#b8d1bb;"/>
		<path vector-effect="non-scaling-stroke" d="M 243.968855 111.654088 L 243.82109 110.01793 Q 243.807657 109.854046 243.659892 109.926585 C 243.08764 110.208681 242.690019 110.388685 241.948509 110.579436 Q 238.090508 111.573489 234.409824 113.096808 C 233.576969 113.440697 232.967104 113.867871 233.501743 114.816252 Q 234.302359 116.242852 234.329226 116.296585 C 234.369525 116.377184 234.369525 116.468529 234.323852 116.533008 C 234.036383 116.952123 233.601149 117.36855 233.367412 117.787665 Q 232.378732 119.550094 231.301393 121.508647 Q 230.635109 122.717631 229.767328 123.663325 Q 228.297741 125.26993 225.441853 128.198356 Q 224.46392 129.200469 224.367201 130.702296" style="fill:none;stroke-width:0.50;stroke:#b8d1bb;"/>
		<path vector-effect="non-scaling-stroke" d="M 235.331339 94.239351 Q 233.155168 96.007154 230.839293 97.600326 Q 227.083384 100.179491 223.751963 103.304041 C 216.978968 109.657922 213.209626 118.376037 212.059748 127.497146" style="fill:none;stroke-width:0.50;stroke:#7b8c87;"/>
		<path vector-effect="non-scaling-stroke" d="M 249.328682 113.392338 C 248.885388 113.94041 249.409281 114.338031 249.21047 114.867298 C 249.043899 115.302532 248.092832 115.471789 247.638791 115.600748 C 247.343262 115.684033 247.246543 116.054788 247.466847 116.269719 Q 247.813422 116.605547 247.907454 117.003169 Q 248.063279 117.650646 248.157311 117.774231 C 248.600605 118.351857 249.401221 118.292751 250.037952 118.39753 C 250.293182 118.440516 250.440947 118.709179 250.341541 118.948289 L 250.134671 119.434569 Q 249.933173 119.912789 250.45438 119.920849 Q 251.563958 119.936969 251.421567 118.956349 C 251.37858 118.660819 251.590824 118.38947 251.88904 118.359917 L 252.778315 118.271258 C 252.891153 118.260511 252.982499 118.354544 252.969065 118.467382 Q 252.84548 119.413076 251.8971 119.251878 Q 251.768142 119.230385 251.781575 119.359343 L 251.800381 119.550094 C 251.805755 119.61726 251.856801 119.668306 251.923966 119.679052 C 252.598311 119.773084 253.119517 119.797264 253.686396 120.09548 Q 254.500445 120.522654 255.430019 120.901469 C 256.039884 121.148639 256.445565 121.425362 256.021077 122.123886 Q 255.577783 122.857336 255.486438 123.74661 Q 255.473005 123.897061 255.623456 123.899748 L 255.765847 123.902435 Q 255.921672 123.907808 255.967345 124.055573 Q 256.270934 125.00664 255.972718 125.635311 C 255.849133 125.893228 255.999584 126.199504 256.278994 126.263983 Q 257.630369 126.575632 257.670668 126.594438 C 258.425611 126.898027 258.648602 127.502519 259.161748 128.045218 Q 259.285333 128.174177 259.462651 128.15537 L 262.321225 127.873274 Q 262.415257 127.865214 262.45287 127.9485 C 262.901537 128.875387 262.533469 129.616897 262.004203 130.61901" style="fill:none;stroke-width:0.50;stroke:#538c3e;"/>
		<path vector-effect="non-scaling-stroke" d="M 251.271115 113.714733 Q 251.357087 114.096235 251.13141 114.152654 Q 250.586025 114.286985 249.94392 114.391764 C 249.774662 114.421317 249.613464 114.313852 249.573165 114.147281 L 249.43346 113.534729" style="fill:none;stroke-width:0.50;stroke:#538c3e;"/>
		<path vector-effect="non-scaling-stroke" d="M 256.977518 113.349352 C 257.28648 114.141907 256.421385 114.381018 255.862566 114.440123 Q 255.521364 114.47505 255.027024 114.289672 Q 253.417733 113.68518 251.623064 113.532042" style="fill:none;stroke-width:0.50;stroke:#5d742b;"/>
		<path vector-effect="non-scaling-stroke" d="M 245.500234 140.331178 Q 257.759327 140.331178 288.059142 140.309685 Q 288.206906 140.309685 288.209593 140.16192 Q 288.271386 136.658555 288.177353 135.234641 C 288.040335 133.112203 287.075835 131.739335 284.708914 131.739335 Q 263.965443 131.755455 245.500234 131.758141 Q 227.032338 131.760828 206.288867 131.752768 C 203.921946 131.752768 202.960132 133.125636 202.823114 135.248074 Q 202.729082 136.671988 202.790874 140.175354 Q 202.793561 140.323118 202.941326 140.323118 Q 233.24114 140.333865 245.500234 140.331178" style="fill:none;stroke-width:0.50;stroke:#899591;"/>
		<path vector-effect="non-scaling-stroke" d="M 245.231571 144.981735 Q 268.102853 144.984421 289.410517 144.992481 C 290.192326 144.992481 292.954182 144.369183 292.11058 143.015122 C 291.809677 142.531528 290.869357 142.566454 290.216506 142.566454 Q 274.131651 142.577201 245.231571 142.574514 Q 216.33149 142.571828 200.246636 142.555708 C 199.593784 142.555708 198.653464 142.520782 198.352561 143.004375 C 197.508959 144.358437 200.270815 144.981735 201.052625 144.981735 Q 222.360288 144.979048 245.231571 144.981735" style="fill:none;stroke-width:0.50;stroke:#899591;"/>
		<path vector-effect="non-scaling-stroke" d="M 262.520036 147.531347 Q 262.966016 147.340596 262.485109 147.28149 Q 261.837632 147.203578 260.942984 147.219698 Q 260.464764 147.230444 227.013532 147.28149 Q 226.513818 147.28149 226.352621 147.308357 Q 225.954999 147.372836 226.296201 147.585079 Q 226.795915 147.899415 227.540111 148.197631 C 230.452418 149.374375 232.940238 150.062152 236.080908 150.029913 Q 236.860031 150.021853 252.568758 149.954687 C 256.045257 149.941254 259.344439 148.888095 262.520036 147.531347" style="fill:none;stroke-width:0.50;stroke:#899591;"/>
		<path vector-effect="non-scaling-stroke" d="M 231.177808 47.674678 Q 230.941385 47.868115 230.436298 47.846622 Q 230.293907 47.841249 230.283161 47.980954 Q 230.277787 48.037373 230.296594 48.088419 Q 230.33152 48.174391 230.471225 48.220064 Q 231.086463 48.426934 231.309453 47.814383" style="fill:none;stroke-width:0.50;stroke:#56a9a1;"/>
		<path vector-effect="non-scaling-stroke" d="M 231.309453 47.814383 Q 232.738741 47.688111 234.02295 46.925108 C 234.165341 46.839136 234.211014 46.656445 234.127728 46.514054 L 233.359352 45.181485 Q 233.251887 44.993421 233.03427 44.993421 L 231.997231 44.993421 Q 231.8226 44.993421 231.908572 44.84297 Q 232.177235 44.378183 232.155742 43.897276 Q 232.150369 43.754884 232.233654 43.642046 Q 232.832773 42.827997 232.848892 41.970962 Q 232.856952 41.573341 232.464704 41.508862 L 232.376045 41.492742 Q 231.975738 41.428263 231.911258 41.828571 L 231.634536 43.539954 Q 231.610356 43.690405 231.473338 43.762944 Q 231.118703 43.945635 230.691528 43.902649 C 230.645856 43.897276 230.610929 43.859663 230.610929 43.81399 L 230.610929 43.719958 C 230.610929 43.480848 230.33958 43.341143 230.143456 43.480848 L 229.211195 44.149819 C 229.184329 44.168625 229.154776 44.179372 229.125223 44.187432 Q 228.749095 44.270717 228.665809 44.57162 C 228.636256 44.673712 228.679242 44.781177 228.770588 44.83491 L 229.125223 45.036407 C 229.3106 45.143872 229.3106 45.412535 229.125223 45.52 L 227.765788 46.304496 C 227.521305 46.446888 227.61265 46.820329 227.894746 46.833762 C 228.937159 46.884808 229.751208 45.820903 230.436298 44.872522 Q 230.476598 44.816103 230.541077 44.84297 L 231.419605 45.213725 Q 231.492144 45.243277 231.459905 45.315816 Q 231.016611 46.307183 231.177808 47.674678" style="fill:none;stroke-width:0.50;stroke:#70b656;"/>
		<path vector-effect="non-scaling-stroke" d="M 231.309453 47.814383 Q 231.183182 47.862742 231.177808 47.674678" style="fill:none;stroke-width:0.50;stroke:#aecc64;"/>
		<path vector-effect="non-scaling-stroke" d="M 238.952916 46.973467 L 238.754105 46.076133 C 238.748732 46.05464 238.727239 46.041207 238.705746 46.04658 L 238.703059 46.04658 C 238.458576 46.100312 238.302752 46.344796 238.356484 46.591966 L 238.372604 46.672565 C 238.429023 46.919735 238.67082 47.075559 238.91799 47.021827 L 238.920676 47.021827 C 238.94217 47.016453 238.955603 46.99496 238.952916 46.973467" style="fill:none;stroke-width:0.50;stroke:#718730;"/>
		<path vector-effect="non-scaling-stroke" d="M 255.901764 124.540187 C 255.921672 124.431701 255.849133 124.326922 255.738712 124.306477 L 255.585306 124.279154 C 255.475691 124.259757 255.370913 124.332296 255.351596 124.442179 L 255.221563 125.17219 C 255.201655 125.280676 255.274194 125.385455 255.384615 125.4059 L 255.538021 125.433223 C 255.647636 125.45262 255.752414 125.380081 255.771731 125.270198 L 255.901764 124.540187" style="fill:none;stroke-width:0.50;stroke:#538c3e;"/>
		<path vector-effect="non-scaling-stroke" d="M 259.140255 123.867509 C 259.47877 123.950794 259.556683 124.036766 259.691014 124.334982 Q 259.752807 124.469314 259.897885 124.445134 C 261.912857 124.117365 261.520609 123.010474 260.679694 121.728951 C 260.502376 121.462975 260.147741 121.377002 259.871018 121.5382 L 257.82112 122.723004 C 257.600816 122.851962 257.587383 123.166298 257.799626 123.311376 Q 258.29934 123.655265 259.140255 123.867509" style="fill:none;stroke-width:0.50;stroke:#5d742b;"/>
		<path vector-effect="non-scaling-stroke" d="M 259.156375 122.792857 Q 258.919951 122.846589 258.815173 122.908382 Q 258.635168 123.01316 258.874279 123.03734 Q 259.083836 123.06152 259.99729 122.943308 Q 260.136995 122.924501 260.169234 122.787483 Q 260.214907 122.585986 260.134308 122.405982 C 260.061769 122.242097 259.846839 122.201798 259.720567 122.328069 L 259.382052 122.666585 C 259.320259 122.728377 259.242347 122.771363 259.156375 122.792857" style="fill:none;stroke-width:0.50;stroke:#718730;"/>
		<path d="M 267.877176 11.346065 Q 267.474182 11.292332 266.738045 11.327259 Q 265.975042 11.362185 265.6016 11.362185 Q 244.874249 11.340692 224.146897 11.389051 C 222.74985 11.391738 221.229217 11.300392 219.762317 11.278899 Q 220.963241 11.273526 221.446834 11.112328 Q 222.328049 10.816799 223.700917 10.112902 Q 225.143637 9.371392 225.920073 9.054369 Q 235.197007 5.266221 245.156345 5.376373 C 246.781756 5.395179 249.21853 5.529511 251.042752 5.80892 Q 260.029529 7.187161 267.877176 11.346065 Z" style="fill:#1a3547;"/>
		<path d="M 241.61268 84.56211 L 241.626113 84.357926 L 239.275312 82.453105 C 239.143667 82.348326 239.154413 82.146829 239.294118 82.052797 L 240.959829 80.935159 C 241.026994 80.889486 241.072667 80.819634 241.083414 80.741722 Q 241.139833 80.370967 240.884603 79.994838 C 239.261878 77.625231 236.959436 75.954147 234.511916 74.301869 Q 230.874219 71.846289 229.251495 70.779697 Q 226.476206 68.955475 223.171651 65.908837 Q 214.859217 58.241194 210.955543 47.454374 Q 208.50265 40.67332 207.779946 34.889005 Q 207.323219 31.232501 207.618749 26.423433 Q 207.661735 26.278355 207.640242 26.125217 L 207.73696 24.300995 Q 207.742334 24.166664 207.608002 24.169351 Q 205.421085 24.223083 202.428179 24.287562 Q 198.97586 24.362788 196.73521 21.958254 C 195.563839 20.700911 195.558466 19.58596 195.51548 17.702632 Q 195.480554 16.241105 195.628318 14.822564 Q 195.733097 13.817765 196.638491 12.94461 Q 198.395547 11.257406 201.036505 11.268153 Q 210.399411 11.303079 219.762317 11.278899 C 221.229217 11.300392 222.74985 11.391738 224.146897 11.389051 Q 244.874249 11.340692 265.6016 11.362185 Q 265.975042 11.362185 266.738045 11.327259 Q 267.474182 11.292332 267.877176 11.346065 Q 277.688749 11.278899 286.925384 11.281586 Q 289.16066 11.281586 290.630247 11.458903 C 293.034781 11.751746 295.119606 13.460443 295.167965 16.004682 Q 295.194831 17.557554 295.114233 19.279684 C 294.971841 22.269903 292.156253 24.104871 289.343351 24.172037 Q 285.375198 24.266069 281.713321 24.220397 C 281.605856 24.21771 281.519884 24.309055 281.525257 24.416521 Q 281.775114 30.206209 280.609116 35.73798 Q 279.800441 39.566428 278.322794 43.921455 C 276.823655 48.327529 274.781816 52.405833 272.568032 56.33906 Q 271.114565 58.912852 269.612739 60.817672 C 264.363064 67.467082 257.469171 72.399735 250.577965 77.579558 Q 248.893448 78.847647 247.757003 80.537538 Q 247.611925 80.755155 247.829542 80.900233 L 249.428087 81.974885 C 249.68063 82.144142 249.677944 82.514897 249.4254 82.681468 Q 248.21373 83.474024 247.251917 84.564796 Q 247.085345 84.75286 247.227737 84.962417 C 248.44478 86.743653 249.686003 87.796812 251.655303 89.121321 C 255.816893 91.926163 259.736687 95.614906 262.769892 98.328402 C 270.531567 105.265281 276.307822 114.125788 279.13147 124.144231 C 279.679542 126.086665 280.085224 128.534185 280.429112 130.361094 C 280.461352 130.541098 280.627923 130.664683 280.810614 130.648563 Q 283.561723 130.40408 286.183874 130.473932 Q 288.593781 130.538411 289.990829 132.244421 C 290.812938 133.246534 290.901596 134.759107 290.869357 136.027197 Q 290.812938 138.46397 290.863984 140.041022 Q 290.86667 140.1861 291.014435 140.196847 C 292.145506 140.264012 293.327623 140.376851 294.160479 141.1506 Q 295.53872 142.42675 295.194831 144.011861 C 294.904675 145.35249 293.373296 146.615206 292.132073 146.918795 Q 290.740399 147.257311 289.370217 147.254624 Q 270.797543 147.214325 266.982528 147.238504 Q 266.875063 147.238504 266.563414 147.351343 Q 266.356543 147.423882 266.173853 147.539407 C 263.175573 149.411988 259.935497 150.889635 256.512731 151.752043 C 253.938939 152.402207 250.67737 153.208196 247.679091 153.310288 Q 242.724945 153.476859 238.44783 153.202823 C 235.645674 153.022819 232.29276 152.141604 230.065544 151.370541 Q 226.567551 150.158871 222.346855 147.482988 Q 222.196404 147.386269 221.809529 147.362089 Q 220.420541 147.270744 219.020807 147.262684 Q 210.189854 147.217011 201.356214 147.225071 C 199.069892 147.225071 197.44448 146.977901 195.75459 145.116066 Q 194.722924 143.982308 195.101739 142.558394 C 195.558466 140.833578 197.23761 140.105501 198.94362 140.16998 Q 199.411094 140.188787 199.827521 140.151174 Q 199.961853 140.140427 199.95648 140.006096 Q 199.90812 138.144261 199.894687 135.081503 Q 199.886627 133.654902 200.238576 132.824733 C 201.517412 129.813021 204.410912 130.40408 207.067989 130.613637 Q 207.634868 130.656623 207.624122 130.089744 Q 207.599942 128.89688 207.734274 127.631477 Q 208.456977 120.767137 211.46063 113.94847 Q 215.520128 104.727955 223.319415 98.339149 Q 225.546632 96.51224 228.066691 94.833097 Q 234.992823 90.220153 237.931997 88.038609 Q 239.431136 86.923657 241.429989 84.884505 Q 241.515961 84.798533 241.61268 84.56211 Z M 198.567492 17.025601 L 292.239538 17.025601 C 292.261031 17.025601 292.277151 17.009481 292.277151 16.987988 L 292.277151 16.676339 C 292.277151 15.056301 290.987569 13.742539 289.397084 13.742539 L 201.409946 13.742539 C 199.819461 13.742539 198.529879 15.056301 198.529879 16.676339 L 198.529879 16.987988 C 198.529879 17.009481 198.545999 17.025601 198.567492 17.025601 Z M 245.489487 21.969001 Q 285.775506 21.974374 287.935557 21.947507 Q 289.859184 21.923328 291.342204 20.547773 Q 291.721019 20.195825 291.882216 19.741784 C 291.919829 19.639692 291.841917 19.52954 291.731765 19.526854 Q 291.444296 19.52148 245.489487 19.513421 Q 199.531992 19.508047 199.244523 19.516107 C 199.134371 19.518794 199.059145 19.626259 199.094071 19.728351 Q 199.255269 20.182391 199.634084 20.53434 Q 201.117104 21.912581 203.040731 21.936761 Q 205.200782 21.963627 245.489487 21.969001 Z M 211.791085 24.325175 Q 211.251073 24.072632 210.638521 24.21771 Q 210.506876 24.24995 210.48807 24.384281 Q 210.101195 27.156883 210.179107 29.703809 Q 210.367171 35.70574 211.791085 41.404083 Q 215.536248 56.36324 227.529365 66.010928 Q 231.508264 69.261751 237.265712 72.773177 Q 240.366083 74.664564 243.434215 78.173303 Q 244.181098 79.264075 244.613646 80.674556 Q 244.731857 81.053371 244.820516 80.666496 Q 245.26381 78.758988 246.789816 77.281342 C 248.608665 75.516226 250.827821 74.065446 252.641297 72.560933 Q 259.924751 67.399916 265.956236 60.855285 Q 269.021681 57.529237 271.299943 53.36496 Q 275.450787 45.78329 277.581284 37.613248 Q 278.537725 33.945998 278.846687 30.087997 Q 279.118037 27.221362 278.844 24.309055 C 278.838627 24.236516 278.776835 24.180097 278.704296 24.180097 Q 260.564169 24.180097 242.394489 24.182784 Q 240.589074 24.182784 239.401583 24.303682 Q 238.783658 24.206963 238.026029 24.196217 Q 235.707467 24.166664 233.391592 24.166664 C 233.136362 24.166664 232.832773 24.263383 232.620529 24.260696 Q 226.336501 24.145171 219.861722 24.268756 Q 219.517834 24.274129 219.383502 24.591152 L 217.31211 29.504998 C 217.29599 29.545298 217.263751 29.577537 217.223451 29.593657 C 215.788791 30.200835 214.018302 30.251881 213.247239 28.63453 Q 213.263359 28.519005 213.319778 28.441093 Q 214.351444 26.533585 215.017728 24.429954 C 215.047281 24.333235 214.982802 24.236516 214.883397 24.22577 Q 213.354704 24.078005 211.791085 24.325175 Z M 243.993034 86.612008 Q 242.84853 88.124581 240.884603 89.510882 Q 238.007222 91.541975 235.127155 93.556947 C 230.04405 96.858816 227.064578 98.73677 223.230756 102.18103 Q 221.038466 104.153017 219.485594 106.030971 C 213.92427 112.74486 210.713747 121.688652 210.383291 130.422886 C 210.380604 130.500798 210.43165 130.570651 210.509563 130.589457 Q 211.081815 130.718415 211.710486 130.62707 L 217.760777 130.65125 L 224.367201 130.702296 Q 226.846961 130.688862 229.262241 130.640503 C 230.704961 130.61095 231.578116 130.342287 232.851579 129.829141 Q 234.72416 129.074198 243.923182 125.417694 C 244.070946 125.358588 244.164979 125.216197 244.162292 125.057686 L 243.968855 111.654088 Q 244.046767 110.963624 244.312743 110.388685 C 244.379909 110.243607 244.592153 110.251667 244.648572 110.402118 L 245.05694 111.498263 L 245.285303 113.596522 L 245.145599 125.149031 Q 245.145599 125.302169 245.285303 125.361275 L 257.364392 130.452439 C 257.555143 130.533038 257.75664 130.576024 257.963511 130.578711 L 262.004203 130.61901 L 270.142005 130.605577 L 277.613524 130.600204 C 277.710242 130.600204 277.785468 130.511545 277.772035 130.414826 C 276.044532 118.660819 270.056033 108.475804 261.24926 100.461587 C 256.950651 96.549853 253.638036 93.731578 250.008399 91.176593 Q 247.383561 89.330878 247.319082 89.285205 C 245.932781 88.296525 244.452448 87.00963 244.656632 85.241827 Q 244.758724 84.336433 245.129479 81.891599 Q 245.180525 81.539651 244.874249 81.187702 Q 244.774844 81.07755 244.702305 81.203822 Q 244.288563 81.905032 244.557227 83.33432 Q 244.76947 84.465391 244.600213 84.895252 Q 244.272444 85.72542 243.993034 86.612008 Z M 245.500234 140.331178 Q 257.759327 140.331178 288.059142 140.309685 Q 288.206906 140.309685 288.209593 140.16192 Q 288.271386 136.658555 288.177353 135.234641 C 288.040335 133.112203 287.075835 131.739335 284.708914 131.739335 Q 263.965443 131.755455 245.500234 131.758141 Q 227.032338 131.760828 206.288867 131.752768 C 203.921946 131.752768 202.960132 133.125636 202.823114 135.248074 Q 202.729082 136.671988 202.790874 140.175354 Q 202.793561 140.323118 202.941326 140.323118 Q 233.24114 140.333865 245.500234 140.331178 Z M 245.231571 144.981735 Q 268.102853 144.984421 289.410517 144.992481 C 290.192326 144.992481 292.954182 144.369183 292.11058 143.015122 C 291.809677 142.531528 290.869357 142.566454 290.216506 142.566454 Q 274.131651 142.577201 245.231571 142.574514 Q 216.33149 142.571828 200.246636 142.555708 C 199.593784 142.555708 198.653464 142.520782 198.352561 143.004375 C 197.508959 144.358437 200.270815 144.981735 201.052625 144.981735 Q 222.360288 144.979048 245.231571 144.981735 Z M 262.520036 147.531347 Q 262.966016 147.340596 262.485109 147.28149 Q 261.837632 147.203578 260.942984 147.219698 Q 260.464764 147.230444 227.013532 147.28149 Q 226.513818 147.28149 226.352621 147.308357 Q 225.954999 147.372836 226.296201 147.585079 Q 226.795915 147.899415 227.540111 148.197631 C 230.452418 149.374375 232.940238 150.062152 236.080908 150.029913 Q 236.860031 150.021853 252.568758 149.954687 C 256.045257 149.941254 259.344439 148.888095 262.520036 147.531347 Z" style="fill:#f8f4da;"/>
		<path d="M 207.640242 26.125217 Q 207.661735 26.278355 207.618749 26.423433 L 207.640242 26.125217 Z" style="fill:#94bfaf;"/>
		<path d="M 241.61268 84.56211 L 241.626113 84.357926 L 241.61268 84.56211 Z" style="fill:#1a3547;"/>
		<path d="M 198.567492 17.025601 C 198.545999 17.025601 198.529879 17.009481 198.529879 16.987988 L 198.529879 16.676339 C 198.529879 15.056301 199.819461 13.742539 201.409946 13.742539 L 289.397084 13.742539 C 290.987569 13.742539 292.277151 15.056301 292.277151 16.676339 L 292.277151 16.987988 C 292.277151 17.009481 292.261031 17.025601 292.239538 17.025601 L 198.567492 17.025601 Z" style="fill:#1a3547;"/>
		<path d="M 245.489487 19.513421 Q 291.444296 19.52148 291.731765 19.526854 C 291.841917 19.52954 291.919829 19.639692 291.882216 19.741784 Q 291.721019 20.195825 291.342204 20.547773 Q 289.859184 21.923328 287.935557 21.947507 Q 285.775506 21.974374 245.489487 21.969001 Q 205.200782 21.963627 203.040731 21.936761 Q 201.117104 21.912581 199.634084 20.53434 Q 199.255269 20.182391 199.094071 19.728351 C 199.059145 19.626259 199.134371 19.518794 199.244523 19.516107 Q 199.531992 19.508047 245.489487 19.513421 Z" style="fill:#1a3547;"/>
		<path d="M 213.319778 28.441093 L 213.284852 28.287955 C 213.266045 28.201982 213.193506 28.14019 213.107534 28.13213 Q 212.658867 28.089144 212.312292 28.293328 Q 212.188707 28.368554 212.175273 28.510945 Q 212.057062 29.717242 211.69974 30.977271 Q 211.500929 31.678482 211.613768 33.698828 C 211.616454 33.731067 211.597648 33.763307 211.570782 33.779427 L 211.45257 33.846592 Q 211.369284 33.894952 211.358538 33.80092 Q 210.794346 28.999912 211.791085 24.325175 Q 213.354704 24.078005 214.883397 24.22577 C 214.982802 24.236516 215.047281 24.333235 215.017728 24.429954 Q 214.351444 26.533585 213.319778 28.441093 Z" style="fill:#dce2c7;"/>
		<path d="M 211.791085 24.325175 Q 210.794346 28.999912 211.358538 33.80092 Q 211.369284 33.894952 211.45257 33.846592 L 211.570782 33.779427 C 211.597648 33.763307 211.616454 33.731067 211.613768 33.698828 Q 211.500929 31.678482 211.69974 30.977271 Q 212.057062 29.717242 212.175273 28.510945 Q 212.188707 28.368554 212.312292 28.293328 Q 212.658867 28.089144 213.107534 28.13213 C 213.193506 28.14019 213.266045 28.201982 213.284852 28.287955 L 213.319778 28.441093 Q 213.263359 28.519005 213.247239 28.63453 C 213.204253 28.884387 213.102161 29.064391 213.080668 29.306187 Q 212.940963 30.934285 212.795885 32.570443 Q 212.317665 37.989376 213.894717 43.139646 Q 214.230545 45.168052 215.052654 47.387208 C 216.503435 51.304315 218.29273 54.998432 220.847715 58.28418 Q 223.314042 61.45709 225.613797 63.740726 Q 226.239782 64.361338 226.564864 64.15984 Q 227.059204 64.995382 227.40578 65.645547 Q 227.435333 65.701966 227.523991 65.795998 Q 227.639516 65.91421 227.529365 66.010928 Q 215.536248 56.36324 211.791085 41.404083 Q 210.367171 35.70574 210.179107 29.703809 Q 210.101195 27.156883 210.48807 24.384281 Q 210.506876 24.24995 210.638521 24.21771 Q 211.251073 24.072632 211.791085 24.325175 Z" style="fill:#1a3547;"/>
		<path d="M 239.401583 24.303682 Q 241.540141 25.934467 243.931242 26.748516 C 244.189158 26.834488 244.355729 27.084344 244.339609 27.355694 C 244.29125 28.14019 244.159605 29.059017 244.541107 29.768288 Q 244.739917 30.13367 244.922608 30.474872 L 244.895742 35.893805 C 244.895742 36.046942 244.79365 36.183961 244.643199 36.226947 Q 244.31543 36.318292 243.998407 36.138288 L 244.03602 30.241135 C 244.03602 30.11755 243.936615 30.018144 243.81303 30.018144 L 217.355096 30.018144 C 217.223451 30.018144 217.107926 30.10949 217.078373 30.238448 C 216.629706 32.127149 216.189099 34.104509 216.183726 36.084555 Q 216.175666 39.552995 216.447015 42.981135 Q 216.457762 43.115466 216.320744 43.118153 L 213.894717 43.139646 Q 212.317665 37.989376 212.795885 32.570443 Q 212.940963 30.934285 213.080668 29.306187 C 213.102161 29.064391 213.204253 28.884387 213.247239 28.63453 C 214.018302 30.251881 215.788791 30.200835 217.223451 29.593657 C 217.263751 29.577537 217.29599 29.545298 217.31211 29.504998 L 219.383502 24.591152 Q 219.517834 24.274129 219.861722 24.268756 Q 226.336501 24.145171 232.620529 24.260696 C 232.832773 24.263383 233.136362 24.166664 233.391592 24.166664 Q 235.707467 24.166664 238.026029 24.196217 Q 238.783658 24.206963 239.401583 24.303682 Z" style="fill:#dce2c7;"/>
		<path d="M 278.846687 30.087997 Q 278.774148 29.961725 278.457126 29.993965 Q 278.164283 30.026204 278.064878 30.026204 Q 261.587775 30.020831 245.110672 30.063817 Q 244.968281 30.063817 244.925295 30.198149 Q 244.890369 30.313674 244.922608 30.474872 Q 244.739917 30.13367 244.541107 29.768288 C 244.159605 29.059017 244.29125 28.14019 244.339609 27.355694 C 244.355729 27.084344 244.189158 26.834488 243.931242 26.748516 Q 241.540141 25.934467 239.401583 24.303682 Q 240.589074 24.182784 242.394489 24.182784 Q 260.564169 24.180097 278.704296 24.180097 C 278.776835 24.180097 278.838627 24.236516 278.844 24.309055 Q 279.118037 27.221362 278.846687 30.087997 Z" style="fill:#94bfaf;"/>
		<path d="M 278.846687 30.087997 Q 278.537725 33.945998 277.581284 37.613248 Q 275.450787 45.78329 271.299943 53.36496 Q 269.021681 57.529237 265.956236 60.855285 Q 259.924751 67.399916 252.641297 72.560933 Q 252.579504 71.848976 252.829361 71.28747 C 253.10071 70.677605 253.85834 69.769524 253.949685 69.122046 C 254.059837 68.35367 253.63535 67.273645 253.337134 66.61542 C 253.243102 66.40855 252.985185 66.336011 252.797121 66.464969 L 251.827248 67.128567 C 251.776202 67.163493 251.711723 67.176926 251.64993 67.168866 Q 251.212009 67.104387 250.379154 66.338697 Q 248.264776 64.39089 247.082659 61.849338 Q 247.015493 61.701574 246.854295 61.72844 L 243.447648 62.257706 Q 243.025847 62.332932 242.523447 62.383978 C 241.615366 62.475323 240.728779 62.220093 239.89861 62.362485 Q 239.463376 62.435024 239.280685 62.311439 Q 238.506935 61.792919 237.821845 61.435597 C 236.526889 60.761253 236.000309 59.165395 234.23788 60.086909 Q 232.711874 60.887525 231.398112 59.923025 Q 230.858099 59.525403 230.790934 59.006884 C 230.645856 57.926858 230.866159 56.707128 231.172435 55.750688 C 231.239601 55.541131 231.422292 55.39068 231.642595 55.363813 C 232.408285 55.267095 233.015463 55.261721 233.633388 54.920519 Q 234.200267 54.611557 234.823565 53.956019 Q 235.191634 53.569144 235.49791 54.009752 Q 236.148074 54.947386 237.639154 55.919946 Q 237.730499 55.979052 238.18454 56.365926 C 238.281258 56.446525 238.426337 56.408912 238.472009 56.290701 L 238.68694 55.737255 Q 238.993215 55.758748 238.995902 56.013978 C 239.012022 57.239081 239.382777 57.577596 240.140407 58.337913 Q 240.443996 58.644189 240.761018 58.297613 C 240.820124 58.235821 240.908783 58.208955 240.992068 58.230448 Q 241.647606 58.402392 241.959255 58.684488 Q 242.974801 59.600629 244.108559 59.815559 C 244.842009 59.955264 245.75815 59.428685 246.357269 59.286293 Q 247.246543 59.076736 247.517893 59.796753 C 247.918201 60.866032 248.22985 61.757993 249.132558 62.324872 C 250.021832 62.883691 250.529605 63.163101 251.17171 64.052375 Q 251.719782 64.807318 252.12815 65.296285 Q 252.270542 65.468229 252.469352 65.366137 C 253.804607 64.69448 254.881946 63.635947 254.984038 62.072329 C 255.037771 61.271713 254.602537 60.659161 255.306434 59.691974 C 255.639576 59.232561 256.57721 59.315846 257.305287 59.24062 C 258.433671 59.127782 259.097269 58.362092 260.053709 57.940292 C 260.505063 57.738794 260.548049 57.499684 260.599095 57.04027 Q 260.736113 55.82054 260.505063 54.477225 C 260.464764 54.240802 260.174608 54.152143 260.008036 54.324087 C 258.764127 55.62979 256.827066 54.367073 255.773907 53.448246 C 255.666442 53.354214 255.704055 53.176896 255.84376 53.139283 Q 256.985578 52.827634 260.24446 51.884627 C 261.080002 51.64283 261.996143 51.728803 262.713473 51.16461 C 263.44961 50.589671 263.629614 49.079785 263.460356 48.330215 C 262.718846 45.0579 261.971963 41.807078 260.534616 38.937757 Q 260.018783 37.906091 260.080575 37.24518 Q 260.174608 36.275306 260.878505 35.552603 C 261.082689 35.348419 261.133734 35.03677 261.007463 34.776166 Q 260.725367 34.193168 260.150428 33.459718 C 259.50295 32.637609 258.468597 33.51345 257.630369 33.438225 C 256.405265 33.328073 255.57241 33.247474 254.503131 33.811666 Q 253.538631 34.322126 251.958893 35.748727 C 251.276488 36.366651 250.747222 36.616508 250.854688 37.71534 C 250.870807 37.892657 250.806328 38.072662 250.680057 38.198933 L 248.568365 40.310625 C 248.248656 40.630334 247.722077 40.595407 247.445354 40.238086 Q 247.053106 39.732999 245.795763 38.20162 Q 245.567399 37.927584 245.398142 37.855045 Q 245.00858 37.69116 244.80977 38.096841 Q 244.406775 38.91089 244.702305 39.958676 Q 244.527674 39.972109 244.401402 39.888824 Q 244.503494 39.794792 244.444388 39.630907 C 244.318116 39.297765 243.931242 39.246719 243.877509 38.819545 Q 243.770044 37.95445 243.630339 37.564889 Q 244.054827 37.078608 243.998407 36.138288 Q 244.31543 36.318292 244.643199 36.226947 C 244.79365 36.183961 244.895742 36.046942 244.895742 35.893805 L 244.922608 30.474872 Q 244.890369 30.313674 244.925295 30.198149 Q 244.968281 30.063817 245.110672 30.063817 Q 261.587775 30.020831 278.064878 30.026204 Q 278.164283 30.026204 278.457126 29.993965 Q 278.774148 29.961725 278.846687 30.087997 Z" style="fill:#07656e;"/>
		<path d="M 243.998407 36.138288 Q 244.054827 37.078608 243.630339 37.564889 L 239.565468 40.563168 C 239.312924 40.748545 239.345164 41.138107 239.624574 41.291245 C 239.869057 41.422889 240.572954 41.420203 240.728779 41.825884 Q 240.85505 42.156339 240.543401 41.992455 Q 240.215632 41.823197 239.847564 41.866183 Q 239.689053 41.88499 239.723979 42.040814 Q 239.737412 42.105293 239.785771 42.153653 Q 239.869057 42.242312 240.003388 42.261118 Q 241.123713 42.430376 242.085527 41.817824 Q 242.238665 41.721105 242.268218 41.90111 L 242.292397 42.040814 Q 242.311204 42.145593 242.405236 42.09186 L 243.050027 41.718419 C 243.119879 41.678119 243.149432 41.592147 243.122566 41.516921 Q 243.066147 41.35035 242.759871 41.205272 Q 242.598673 41.12736 242.711512 40.987655 Q 243.404662 40.141367 244.401402 39.888824 Q 244.527674 39.972109 244.702305 39.958676 Q 245.253064 40.560481 245.793076 40.786158 Q 246.158458 40.939296 245.787703 41.073627 L 245.365902 41.226765 C 245.290677 41.253632 245.234257 41.318111 245.218138 41.396023 Q 245.04888 42.185892 245.167092 42.811877 Q 245.196644 42.965015 245.349782 42.989195 L 245.836062 43.067107 Q 246.096666 43.110093 245.889795 43.273978 Q 245.091866 43.910709 244.465881 43.341143 Q 244.30737 43.198752 244.202591 43.381443 L 243.753924 44.160566 Q 243.676012 44.294897 243.522874 44.327137 L 243.254211 44.380869 L 242.880769 44.396989 Q 242.751811 44.402362 242.657779 44.313703 Q 242.343443 44.015487 242.139259 44.010114 C 241.446109 43.985935 240.683106 43.617866 239.960402 44.179372 C 239.613827 44.448035 239.670246 45.200291 239.495615 45.597913 Q 239.433823 45.734931 239.283372 45.734931 L 238.034089 45.734931 C 237.824531 45.734931 237.69826 45.965981 237.808412 46.143299 Q 238.058268 46.543606 237.991102 47.371089 Q 237.980356 47.526913 237.824531 47.500047 Q 237.499449 47.443628 237.193173 47.827816 C 237.177054 47.849309 237.152874 47.860055 237.128694 47.860055 L 237.007796 47.860055 Q 236.865404 47.860055 236.96481 47.757963 Q 237.177054 47.534973 237.504822 47.411388 C 237.518256 47.406015 237.523629 47.395268 237.520942 47.381835 L 237.300638 46.288377 Q 237.281832 46.194345 237.198547 46.240017 Q 236.90839 46.401215 236.873464 46.484501 Q 236.172254 48.185137 234.573709 49.574125 Q 234.474304 49.662784 234.436691 49.789056 Q 234.286239 50.329068 233.840259 50.21623 Q 232.988597 50.003986 232.526497 50.073838 Q 230.484658 50.382801 229.141343 50.433847 C 228.886113 50.444593 228.732975 50.724003 228.86462 50.944307 C 229.178956 51.465513 229.627623 51.895374 229.898972 52.451506 Q 230.232115 53.128537 230.387939 53.383767 Q 230.627049 53.773328 230.605556 54.364387 Q 230.541077 56.180549 230.272414 57.290127 Q 230.242861 57.411025 230.119276 57.411025 L 229.474485 57.411025 Q 229.307914 57.411025 229.224628 57.556103 L 228.3864 59.004197 Q 228.319234 59.125095 228.33804 59.262114 C 228.434759 59.957951 228.534164 60.390498 228.252068 61.032603 Q 227.540111 62.655327 226.564864 64.15984 Q 226.239782 64.361338 225.613797 63.740726 Q 223.314042 61.45709 220.847715 58.28418 C 218.29273 54.998432 216.503435 51.304315 215.052654 47.387208 Q 214.230545 45.168052 213.894717 43.139646 L 216.320744 43.118153 Q 216.457762 43.115466 216.447015 42.981135 Q 216.175666 39.552995 216.183726 36.084555 C 216.189099 34.104509 216.629706 32.127149 217.078373 30.238448 C 217.107926 30.10949 217.223451 30.018144 217.355096 30.018144 L 243.81303 30.018144 C 243.936615 30.018144 244.03602 30.11755 244.03602 30.241135 L 243.998407 36.138288 Z M 231.177808 47.674678 Q 230.941385 47.868115 230.436298 47.846622 Q 230.293907 47.841249 230.283161 47.980954 Q 230.277787 48.037373 230.296594 48.088419 Q 230.33152 48.174391 230.471225 48.220064 Q 231.086463 48.426934 231.309453 47.814383 Q 232.738741 47.688111 234.02295 46.925108 C 234.165341 46.839136 234.211014 46.656445 234.127728 46.514054 L 233.359352 45.181485 Q 233.251887 44.993421 233.03427 44.993421 L 231.997231 44.993421 Q 231.8226 44.993421 231.908572 44.84297 Q 232.177235 44.378183 232.155742 43.897276 Q 232.150369 43.754884 232.233654 43.642046 Q 232.832773 42.827997 232.848892 41.970962 Q 232.856952 41.573341 232.464704 41.508862 L 232.376045 41.492742 Q 231.975738 41.428263 231.911258 41.828571 L 231.634536 43.539954 Q 231.610356 43.690405 231.473338 43.762944 Q 231.118703 43.945635 230.691528 43.902649 C 230.645856 43.897276 230.610929 43.859663 230.610929 43.81399 L 230.610929 43.719958 C 230.610929 43.480848 230.33958 43.341143 230.143456 43.480848 L 229.211195 44.149819 C 229.184329 44.168625 229.154776 44.179372 229.125223 44.187432 Q 228.749095 44.270717 228.665809 44.57162 C 228.636256 44.673712 228.679242 44.781177 228.770588 44.83491 L 229.125223 45.036407 C 229.3106 45.143872 229.3106 45.412535 229.125223 45.52 L 227.765788 46.304496 C 227.521305 46.446888 227.61265 46.820329 227.894746 46.833762 C 228.937159 46.884808 229.751208 45.820903 230.436298 44.872522 Q 230.476598 44.816103 230.541077 44.84297 L 231.419605 45.213725 Q 231.492144 45.243277 231.459905 45.315816 Q 231.016611 46.307183 231.177808 47.674678 Z" style="fill:#189393;"/>
		<path d="M 238.68694 55.737255 Q 239.259192 55.632476 239.546661 55.277841 Q 240.057121 56.473391 240.822811 57.300874 Q 240.919529 57.405652 241.061921 57.405652 Q 242.004928 57.402965 242.743751 57.800587 C 243.718998 58.321793 244.906488 58.026264 245.803823 57.607149 C 247.01012 57.045644 247.149825 55.750688 247.109525 54.549764 C 247.104152 54.396626 247.01012 54.262295 246.870415 54.203189 L 245.637252 53.681983 C 245.578146 53.657803 245.537847 53.601384 245.532473 53.539591 L 245.492174 53.120477 Q 245.473367 52.945846 245.298736 52.953906 L 242.652406 53.101671 Q 243.353616 52.580464 243.358989 51.277449 Q 243.361676 50.611164 243.361676 50.584298 Q 243.474515 47.577959 243.509441 44.566247 Q 243.512127 44.442662 243.458395 44.405049 Q 243.391229 44.354003 243.254211 44.380869 L 243.522874 44.327137 Q 243.676012 44.294897 243.753924 44.160566 L 244.202591 43.381443 Q 244.30737 43.198752 244.465881 43.341143 Q 245.091866 43.910709 245.889795 43.273978 Q 246.096666 43.110093 245.836062 43.067107 L 245.349782 42.989195 Q 245.196644 42.965015 245.167092 42.811877 Q 245.04888 42.185892 245.218138 41.396023 C 245.234257 41.318111 245.290677 41.253632 245.365902 41.226765 L 245.787703 41.073627 Q 246.158458 40.939296 245.793076 40.786158 Q 245.253064 40.560481 244.702305 39.958676 Q 244.406775 38.91089 244.80977 38.096841 Q 245.00858 37.69116 245.398142 37.855045 Q 245.567399 37.927584 245.795763 38.20162 Q 247.053106 39.732999 247.445354 40.238086 C 247.722077 40.595407 248.248656 40.630334 248.568365 40.310625 L 250.680057 38.198933 C 250.806328 38.072662 250.870807 37.892657 250.854688 37.71534 C 250.747222 36.616508 251.276488 36.366651 251.958893 35.748727 Q 253.538631 34.322126 254.503131 33.811666 C 255.57241 33.247474 256.405265 33.328073 257.630369 33.438225 C 258.468597 33.51345 259.50295 32.637609 260.150428 33.459718 Q 260.725367 34.193168 261.007463 34.776166 C 261.133734 35.03677 261.082689 35.348419 260.878505 35.552603 Q 260.174608 36.275306 260.080575 37.24518 Q 260.018783 37.906091 260.534616 38.937757 C 261.971963 41.807078 262.718846 45.0579 263.460356 48.330215 C 263.629614 49.079785 263.44961 50.589671 262.713473 51.16461 C 261.996143 51.728803 261.080002 51.64283 260.24446 51.884627 Q 256.985578 52.827634 255.84376 53.139283 C 255.704055 53.176896 255.666442 53.354214 255.773907 53.448246 C 256.827066 54.367073 258.764127 55.62979 260.008036 54.324087 C 260.174608 54.152143 260.464764 54.240802 260.505063 54.477225 Q 260.736113 55.82054 260.599095 57.04027 C 260.548049 57.499684 260.505063 57.738794 260.053709 57.940292 C 259.097269 58.362092 258.433671 59.127782 257.305287 59.24062 C 256.57721 59.315846 255.639576 59.232561 255.306434 59.691974 C 254.602537 60.659161 255.037771 61.271713 254.984038 62.072329 C 254.881946 63.635947 253.804607 64.69448 252.469352 65.366137 Q 252.270542 65.468229 252.12815 65.296285 Q 251.719782 64.807318 251.17171 64.052375 C 250.529605 63.163101 250.021832 62.883691 249.132558 62.324872 C 248.22985 61.757993 247.918201 60.866032 247.517893 59.796753 Q 247.246543 59.076736 246.357269 59.286293 C 245.75815 59.428685 244.842009 59.955264 244.108559 59.815559 Q 242.974801 59.600629 241.959255 58.684488 Q 241.647606 58.402392 240.992068 58.230448 C 240.908783 58.208955 240.820124 58.235821 240.761018 58.297613 Q 240.443996 58.644189 240.140407 58.337913 C 239.382777 57.577596 239.012022 57.239081 238.995902 56.013978 Q 238.993215 55.758748 238.68694 55.737255 Z" style="fill:#9fb30e;"/>
		<path d="M 243.630339 37.564889 Q 243.770044 37.95445 243.877509 38.819545 C 243.931242 39.246719 244.318116 39.297765 244.444388 39.630907 Q 244.503494 39.794792 244.401402 39.888824 Q 243.404662 40.141367 242.711512 40.987655 Q 242.598673 41.12736 242.759871 41.205272 Q 243.066147 41.35035 243.122566 41.516921 C 243.149432 41.592147 243.119879 41.678119 243.050027 41.718419 L 242.405236 42.09186 Q 242.311204 42.145593 242.292397 42.040814 L 242.268218 41.90111 Q 242.238665 41.721105 242.085527 41.817824 Q 241.123713 42.430376 240.003388 42.261118 Q 239.869057 42.242312 239.785771 42.153653 Q 239.737412 42.105293 239.723979 42.040814 Q 239.689053 41.88499 239.847564 41.866183 Q 240.215632 41.823197 240.543401 41.992455 Q 240.85505 42.156339 240.728779 41.825884 C 240.572954 41.420203 239.869057 41.422889 239.624574 41.291245 C 239.345164 41.138107 239.312924 40.748545 239.565468 40.563168 L 243.630339 37.564889 Z" style="fill:#c8d919;"/>
		<path d="M 243.254211 44.380869 Q 243.391229 44.354003 243.458395 44.405049 Q 243.512127 44.442662 243.509441 44.566247 Q 243.474515 47.577959 243.361676 50.584298 Q 243.361676 50.611164 243.358989 51.277449 Q 243.353616 52.580464 242.652406 53.101671 Q 241.451482 53.3972 240.798631 54.37782 Q 240.723405 54.490658 240.597134 54.547078 Q 239.871744 54.861413 239.546661 55.277841 Q 239.259192 55.632476 238.68694 55.737255 L 238.472009 56.290701 C 238.426337 56.408912 238.281258 56.446525 238.18454 56.365926 Q 237.730499 55.979052 237.639154 55.919946 Q 236.148074 54.947386 235.49791 54.009752 Q 235.191634 53.569144 234.823565 53.956019 Q 234.200267 54.611557 233.633388 54.920519 C 233.015463 55.261721 232.408285 55.267095 231.642595 55.363813 C 231.422292 55.39068 231.239601 55.541131 231.172435 55.750688 C 230.866159 56.707128 230.645856 57.926858 230.790934 59.006884 Q 230.858099 59.525403 231.398112 59.923025 Q 232.711874 60.887525 234.23788 60.086909 C 236.000309 59.165395 236.526889 60.761253 237.821845 61.435597 Q 238.506935 61.792919 239.280685 62.311439 Q 239.463376 62.435024 239.89861 62.362485 C 240.728779 62.220093 241.615366 62.475323 242.523447 62.383978 Q 243.025847 62.332932 243.447648 62.257706 L 243.434215 78.173303 Q 240.366083 74.664564 237.265712 72.773177 Q 231.508264 69.261751 227.529365 66.010928 Q 227.639516 65.91421 227.523991 65.795998 Q 227.435333 65.701966 227.40578 65.645547 Q 227.059204 64.995382 226.564864 64.15984 Q 227.540111 62.655327 228.252068 61.032603 C 228.534164 60.390498 228.434759 59.957951 228.33804 59.262114 Q 228.319234 59.125095 228.3864 59.004197 L 229.224628 57.556103 Q 229.307914 57.411025 229.474485 57.411025 L 230.119276 57.411025 Q 230.242861 57.411025 230.272414 57.290127 Q 230.541077 56.180549 230.605556 54.364387 Q 230.627049 53.773328 230.387939 53.383767 Q 230.232115 53.128537 229.898972 52.451506 C 229.627623 51.895374 229.178956 51.465513 228.86462 50.944307 C 228.732975 50.724003 228.886113 50.444593 229.141343 50.433847 Q 230.484658 50.382801 232.526497 50.073838 Q 232.988597 50.003986 233.840259 50.21623 Q 234.286239 50.329068 234.436691 49.789056 Q 234.474304 49.662784 234.573709 49.574125 Q 236.172254 48.185137 236.873464 46.484501 Q 236.90839 46.401215 237.198547 46.240017 Q 237.281832 46.194345 237.300638 46.288377 L 237.520942 47.381835 C 237.523629 47.395268 237.518256 47.406015 237.504822 47.411388 Q 237.177054 47.534973 236.96481 47.757963 Q 236.865404 47.860055 237.007796 47.860055 L 237.128694 47.860055 C 237.152874 47.860055 237.177054 47.849309 237.193173 47.827816 Q 237.499449 47.443628 237.824531 47.500047 Q 237.980356 47.526913 237.991102 47.371089 Q 238.058268 46.543606 237.808412 46.143299 C 237.69826 45.965981 237.824531 45.734931 238.034089 45.734931 L 239.283372 45.734931 Q 239.433823 45.734931 239.495615 45.597913 C 239.670246 45.200291 239.613827 44.448035 239.960402 44.179372 C 240.683106 43.617866 241.446109 43.985935 242.139259 44.010114 Q 242.343443 44.015487 242.657779 44.313703 Q 242.751811 44.402362 242.880769 44.396989 L 243.254211 44.380869 Z M 238.952916 46.973467 L 238.754105 46.076133 C 238.748732 46.05464 238.727239 46.041207 238.705746 46.04658 L 238.703059 46.04658 C 238.458576 46.100312 238.302752 46.344796 238.356484 46.591966 L 238.372604 46.672565 C 238.429023 46.919735 238.67082 47.075559 238.91799 47.021827 L 238.920676 47.021827 C 238.94217 47.016453 238.955603 46.99496 238.952916 46.973467 Z" style="fill:#c8d919;"/>
		<path d="M 239.546661 55.277841 Q 239.871744 54.861413 240.597134 54.547078 Q 240.723405 54.490658 240.798631 54.37782 Q 241.451482 53.3972 242.652406 53.101671 L 245.298736 52.953906 Q 245.473367 52.945846 245.492174 53.120477 L 245.532473 53.539591 C 245.537847 53.601384 245.578146 53.657803 245.637252 53.681983 L 246.870415 54.203189 C 247.01012 54.262295 247.104152 54.396626 247.109525 54.549764 C 247.149825 55.750688 247.01012 57.045644 245.803823 57.607149 C 244.906488 58.026264 243.718998 58.321793 242.743751 57.800587 Q 242.004928 57.402965 241.061921 57.405652 Q 240.919529 57.405652 240.822811 57.300874 Q 240.057121 56.473391 239.546661 55.277841 Z" style="fill:#07656e;"/>
		<path d="M 252.641297 72.560933 C 250.827821 74.065446 248.608665 75.516226 246.789816 77.281342 Q 245.26381 78.758988 244.820516 80.666496 Q 244.731857 81.053371 244.613646 80.674556 Q 244.181098 79.264075 243.434215 78.173303 L 243.447648 62.257706 L 246.854295 61.72844 Q 247.015493 61.701574 247.082659 61.849338 Q 248.264776 64.39089 250.379154 66.338697 Q 251.212009 67.104387 251.64993 67.168866 C 251.711723 67.176926 251.776202 67.163493 251.827248 67.128567 L 252.797121 66.464969 C 252.985185 66.336011 253.243102 66.40855 253.337134 66.61542 C 253.63535 67.273645 254.059837 68.35367 253.949685 69.122046 C 253.85834 69.769524 253.10071 70.677605 252.829361 71.28747 Q 252.579504 71.848976 252.641297 72.560933 Z" style="fill:#9fb30e;"/>
		<path d="M 270.142005 130.605577 Q 269.739011 126.938327 267.852996 123.596159 Q 263.946636 116.6754 257.044683 112.97591 Q 254.860453 111.589609 253.981925 111.267213 Q 251.88904 110.501524 249.809588 109.695535 Q 245.903228 108.182962 244.77753 104.190629 Q 244.750664 103.948833 244.653945 103.827934 Q 244.565286 103.717783 244.484687 103.833308 L 244.396029 103.956893 Q 244.164979 103.989132 244.164979 103.854801 Q 244.207965 98.734084 244.194531 89.475956 C 244.191845 88.583995 244.382596 87.420684 243.993034 86.612008 Q 244.272444 85.72542 244.600213 84.895252 Q 244.76947 84.465391 244.557227 83.33432 Q 244.288563 81.905032 244.702305 81.203822 Q 244.774844 81.07755 244.874249 81.187702 Q 245.180525 81.539651 245.129479 81.891599 Q 244.758724 84.336433 244.656632 85.241827 C 244.452448 87.00963 245.932781 88.296525 247.319082 89.285205 Q 247.383561 89.330878 250.008399 91.176593 C 253.638036 93.731578 256.950651 96.549853 261.24926 100.461587 C 270.056033 108.475804 276.044532 118.660819 277.772035 130.414826 C 277.785468 130.511545 277.710242 130.600204 277.613524 130.600204 L 270.142005 130.605577 Z" style="fill:#07656e;"/>
		<path d="M 243.993034 86.612008 C 244.382596 87.420684 244.191845 88.583995 244.194531 89.475956 Q 244.207965 98.734084 244.164979 103.854801 Q 244.164979 103.989132 244.396029 103.956893 Q 243.324063 107.242641 240.618627 109.048057 C 239.143667 110.031363 236.803612 110.689588 234.939091 111.449904 Q 225.006619 115.495969 219.802616 124.848129 Q 218.478108 127.225796 217.760777 130.65125 L 211.710486 130.62707 Q 211.807205 130.629757 211.877057 130.608264 Q 212.016762 130.559904 211.93885 130.436319 Q 211.817952 130.242882 211.817952 130.011832 Q 211.817952 128.684636 212.059748 127.497146 L 214.775931 127.435353 Q 214.91295 127.432667 214.934443 127.295649 C 215.38311 124.25707 216.522241 121.054607 217.618386 118.230959 Q 220.791296 110.06629 227.679816 104.513025 C 230.143456 102.527605 233.789213 100.176804 236.46241 97.447188 C 236.919137 96.979714 237.480643 96.32149 237.348998 95.604159 Q 237.16362 94.602046 236.594055 93.787997 C 236.516142 93.675159 236.363005 93.640233 236.242106 93.710085 L 235.331339 94.239351 L 235.127155 93.556947 Q 238.007222 91.541975 240.884603 89.510882 Q 242.84853 88.124581 243.993034 86.612008 Z" style="fill:#189393;"/>
		<path d="M 235.127155 93.556947 L 235.331339 94.239351 Q 233.155168 96.007154 230.839293 97.600326 Q 227.083384 100.179491 223.751963 103.304041 C 216.978968 109.657922 213.209626 118.376037 212.059748 127.497146 Q 211.817952 128.684636 211.817952 130.011832 Q 211.817952 130.242882 211.93885 130.436319 Q 212.016762 130.559904 211.877057 130.608264 Q 211.807205 130.629757 211.710486 130.62707 Q 211.081815 130.718415 210.509563 130.589457 C 210.43165 130.570651 210.380604 130.500798 210.383291 130.422886 C 210.713747 121.688652 213.92427 112.74486 219.485594 106.030971 Q 221.038466 104.153017 223.230756 102.18103 C 227.064578 98.73677 230.04405 96.858816 235.127155 93.556947 Z" style="fill:#1a3547;"/>
		<path d="M 212.059748 127.497146 C 213.209626 118.376037 216.978968 109.657922 223.751963 103.304041 Q 227.083384 100.179491 230.839293 97.600326 Q 233.155168 96.007154 235.331339 94.239351 L 236.242106 93.710085 C 236.363005 93.640233 236.516142 93.675159 236.594055 93.787997 Q 237.16362 94.602046 237.348998 95.604159 C 237.480643 96.32149 236.919137 96.979714 236.46241 97.447188 C 233.789213 100.176804 230.143456 102.527605 227.679816 104.513025 Q 220.791296 110.06629 217.618386 118.230959 C 216.522241 121.054607 215.38311 124.25707 214.934443 127.295649 Q 214.91295 127.432667 214.775931 127.435353 L 212.059748 127.497146 Z" style="fill:#dce2c7;"/>
		<path d="M 244.77753 104.190629 C 244.664692 104.942886 244.508867 105.558124 244.57872 106.337247 Q 244.80977 108.916412 245.05694 111.498263 L 244.648572 110.402118 C 244.592153 110.251667 244.379909 110.243607 244.312743 110.388685 Q 244.046767 110.963624 243.968855 111.654088 L 243.82109 110.01793 Q 243.807657 109.854046 243.659892 109.926585 C 243.08764 110.208681 242.690019 110.388685 241.948509 110.579436 Q 238.090508 111.573489 234.409824 113.096808 C 233.576969 113.440697 232.967104 113.867871 233.501743 114.816252 Q 234.302359 116.242852 234.329226 116.296585 C 234.369525 116.377184 234.369525 116.468529 234.323852 116.533008 C 234.036383 116.952123 233.601149 117.36855 233.367412 117.787665 Q 232.378732 119.550094 231.301393 121.508647 Q 230.635109 122.717631 229.767328 123.663325 Q 228.297741 125.26993 225.441853 128.198356 Q 224.46392 129.200469 224.367201 130.702296 L 217.760777 130.65125 Q 218.478108 127.225796 219.802616 124.848129 Q 225.006619 115.495969 234.939091 111.449904 C 236.803612 110.689588 239.143667 110.031363 240.618627 109.048057 Q 243.324063 107.242641 244.396029 103.956893 L 244.484687 103.833308 Q 244.565286 103.717783 244.653945 103.827934 Q 244.750664 103.948833 244.77753 104.190629 Z" style="fill:#dce2c7;"/>
		<path d="M 257.044683 112.97591 Q 257.084983 113.300992 256.977518 113.349352 Q 256.504671 113.540102 256.039884 113.658314 Q 255.55629 113.784586 255.09419 113.585775 C 254.006105 113.115615 252.955632 112.395598 251.918593 112.44933 Q 251.778888 112.454704 251.709036 112.575602 Q 251.40276 113.094122 251.623064 113.532042 L 251.271115 113.714733 L 250.975586 112.607842 Q 250.94066 112.478883 250.809015 112.468137 C 250.083625 112.403658 249.900934 112.699187 249.47376 113.169347 Q 249.366294 113.287559 249.43346 113.534729 Q 249.358235 113.472937 249.328682 113.392338 Q 249.307189 112.637395 248.554932 112.527243 C 247.848348 112.422464 247.662971 113.196214 247.453414 113.601895 C 247.362068 113.781899 247.182064 113.889364 247.00206 113.870558 Q 246.174578 113.787272 245.516353 113.360098 Q 245.382022 113.274126 245.336349 113.424577 L 245.285303 113.596522 L 245.05694 111.498263 Q 244.80977 108.916412 244.57872 106.337247 C 244.508867 105.558124 244.664692 104.942886 244.77753 104.190629 Q 245.903228 108.182962 249.809588 109.695535 Q 251.88904 110.501524 253.981925 111.267213 Q 254.860453 111.589609 257.044683 112.97591 Z" style="fill:#94bfaf;"/>
		<path d="M 243.968855 111.654088 L 244.162292 125.057686 C 244.164979 125.216197 244.070946 125.358588 243.923182 125.417694 Q 234.72416 129.074198 232.851579 129.829141 C 231.578116 130.342287 230.704961 130.61095 229.262241 130.640503 Q 226.846961 130.688862 224.367201 130.702296 Q 224.46392 129.200469 225.441853 128.198356 Q 228.297741 125.26993 229.767328 123.663325 Q 230.635109 122.717631 231.301393 121.508647 Q 232.378732 119.550094 233.367412 117.787665 C 233.601149 117.36855 234.036383 116.952123 234.323852 116.533008 C 234.369525 116.468529 234.369525 116.377184 234.329226 116.296585 Q 234.302359 116.242852 233.501743 114.816252 C 232.967104 113.867871 233.576969 113.440697 234.409824 113.096808 Q 238.090508 111.573489 241.948509 110.579436 C 242.690019 110.388685 243.08764 110.208681 243.659892 109.926585 Q 243.807657 109.854046 243.82109 110.01793 L 243.968855 111.654088 Z" style="fill:#94bfaf;"/>
		<path d="M 251.271115 113.714733 Q 251.357087 114.096235 251.13141 114.152654 Q 250.586025 114.286985 249.94392 114.391764 C 249.774662 114.421317 249.613464 114.313852 249.573165 114.147281 L 249.43346 113.534729 Q 249.366294 113.287559 249.47376 113.169347 C 249.900934 112.699187 250.083625 112.403658 250.809015 112.468137 Q 250.94066 112.478883 250.975586 112.607842 L 251.271115 113.714733 Z" style="fill:#07656e;"/>
		<path d="M 256.977518 113.349352 C 257.28648 114.141907 256.421385 114.381018 255.862566 114.440123 Q 255.521364 114.47505 255.027024 114.289672 Q 253.417733 113.68518 251.623064 113.532042 Q 251.40276 113.094122 251.709036 112.575602 Q 251.778888 112.454704 251.918593 112.44933 C 252.955632 112.395598 254.006105 113.115615 255.09419 113.585775 Q 255.55629 113.784586 256.039884 113.658314 Q 256.504671 113.540102 256.977518 113.349352 Z" style="fill:#1a3547;"/>
		<path d="M 249.328682 113.392338 C 248.885388 113.94041 249.409281 114.338031 249.21047 114.867298 C 249.043899 115.302532 248.092832 115.471789 247.638791 115.600748 C 247.343262 115.684033 247.246543 116.054788 247.466847 116.269719 Q 247.813422 116.605547 247.907454 117.003169 Q 248.063279 117.650646 248.157311 117.774231 C 248.600605 118.351857 249.401221 118.292751 250.037952 118.39753 C 250.293182 118.440516 250.440947 118.709179 250.341541 118.948289 L 250.134671 119.434569 Q 249.933173 119.912789 250.45438 119.920849 Q 251.563958 119.936969 251.421567 118.956349 C 251.37858 118.660819 251.590824 118.38947 251.88904 118.359917 L 252.778315 118.271258 C 252.891153 118.260511 252.982499 118.354544 252.969065 118.467382 Q 252.84548 119.413076 251.8971 119.251878 Q 251.768142 119.230385 251.781575 119.359343 L 251.800381 119.550094 C 251.805755 119.61726 251.856801 119.668306 251.923966 119.679052 C 252.598311 119.773084 253.119517 119.797264 253.686396 120.09548 Q 254.500445 120.522654 255.430019 120.901469 C 256.039884 121.148639 256.445565 121.425362 256.021077 122.123886 Q 255.577783 122.857336 255.486438 123.74661 Q 255.473005 123.897061 255.623456 123.899748 L 255.765847 123.902435 Q 255.921672 123.907808 255.967345 124.055573 Q 256.270934 125.00664 255.972718 125.635311 C 255.849133 125.893228 255.999584 126.199504 256.278994 126.263983 Q 257.630369 126.575632 257.670668 126.594438 C 258.425611 126.898027 258.648602 127.502519 259.161748 128.045218 Q 259.285333 128.174177 259.462651 128.15537 L 262.321225 127.873274 Q 262.415257 127.865214 262.45287 127.9485 C 262.901537 128.875387 262.533469 129.616897 262.004203 130.61901 L 257.963511 130.578711 C 257.75664 130.576024 257.555143 130.533038 257.364392 130.452439 L 245.285303 125.361275 Q 245.145599 125.302169 245.145599 125.149031 L 245.285303 113.596522 L 245.336349 113.424577 Q 245.382022 113.274126 245.516353 113.360098 Q 246.174578 113.787272 247.00206 113.870558 C 247.182064 113.889364 247.362068 113.781899 247.453414 113.601895 C 247.662971 113.196214 247.848348 112.422464 248.554932 112.527243 Q 249.307189 112.637395 249.328682 113.392338 Z M 255.901764 124.540187 C 255.921672 124.431701 255.849133 124.326922 255.738712 124.306477 L 255.585306 124.279154 C 255.475691 124.259757 255.370913 124.332296 255.351596 124.442179 L 255.221563 125.17219 C 255.201655 125.280676 255.274194 125.385455 255.384615 125.4059 L 255.538021 125.433223 C 255.647636 125.45262 255.752414 125.380081 255.771731 125.270198 L 255.901764 124.540187 Z" style="fill:#07656e;"/>
		<path d="M 270.142005 130.605577 L 262.004203 130.61901 C 262.533469 129.616897 262.901537 128.875387 262.45287 127.9485 Q 262.415257 127.865214 262.321225 127.873274 L 259.462651 128.15537 Q 259.285333 128.174177 259.161748 128.045218 C 258.648602 127.502519 258.425611 126.898027 257.670668 126.594438 Q 257.630369 126.575632 256.278994 126.263983 C 255.999584 126.199504 255.849133 125.893228 255.972718 125.635311 Q 256.270934 125.00664 255.967345 124.055573 Q 255.921672 123.907808 255.765847 123.902435 L 255.623456 123.899748 Q 255.473005 123.897061 255.486438 123.74661 Q 255.577783 122.857336 256.021077 122.123886 C 256.445565 121.425362 256.039884 121.148639 255.430019 120.901469 Q 254.500445 120.522654 253.686396 120.09548 C 253.119517 119.797264 252.598311 119.773084 251.923966 119.679052 C 251.856801 119.668306 251.805755 119.61726 251.800381 119.550094 L 251.781575 119.359343 Q 251.768142 119.230385 251.8971 119.251878 Q 252.84548 119.413076 252.969065 118.467382 C 252.982499 118.354544 252.891153 118.260511 252.778315 118.271258 L 251.88904 118.359917 C 251.590824 118.38947 251.37858 118.660819 251.421567 118.956349 Q 251.563958 119.936969 250.45438 119.920849 Q 249.933173 119.912789 250.134671 119.434569 L 250.341541 118.948289 C 250.440947 118.709179 250.293182 118.440516 250.037952 118.39753 C 249.401221 118.292751 248.600605 118.351857 248.157311 117.774231 Q 248.063279 117.650646 247.907454 117.003169 Q 247.813422 116.605547 247.466847 116.269719 C 247.246543 116.054788 247.343262 115.684033 247.638791 115.600748 C 248.092832 115.471789 249.043899 115.302532 249.21047 114.867298 C 249.409281 114.338031 248.885388 113.94041 249.328682 113.392338 Q 249.358235 113.472937 249.43346 113.534729 L 249.573165 114.147281 C 249.613464 114.313852 249.774662 114.421317 249.94392 114.391764 Q 250.586025 114.286985 251.13141 114.152654 Q 251.357087 114.096235 251.271115 113.714733 L 251.623064 113.532042 Q 253.417733 113.68518 255.027024 114.289672 Q 255.521364 114.47505 255.862566 114.440123 C 256.421385 114.381018 257.28648 114.141907 256.977518 113.349352 Q 257.084983 113.300992 257.044683 112.97591 Q 263.946636 116.6754 267.852996 123.596159 Q 269.739011 126.938327 270.142005 130.605577 Z M 259.140255 123.867509 C 259.47877 123.950794 259.556683 124.036766 259.691014 124.334982 Q 259.752807 124.469314 259.897885 124.445134 C 261.912857 124.117365 261.520609 123.010474 260.679694 121.728951 C 260.502376 121.462975 260.147741 121.377002 259.871018 121.5382 L 257.82112 122.723004 C 257.600816 122.851962 257.587383 123.166298 257.799626 123.311376 Q 258.29934 123.655265 259.140255 123.867509 Z" style="fill:#9fb30e;"/>
		<path d="M 245.500234 131.758141 Q 263.965443 131.755455 284.708914 131.739335 C 287.075835 131.739335 288.040335 133.112203 288.177353 135.234641 Q 288.271386 136.658555 288.209593 140.16192 Q 288.206906 140.309685 288.059142 140.309685 Q 257.759327 140.331178 245.500234 140.331178 Q 233.24114 140.333865 202.941326 140.323118 Q 202.793561 140.323118 202.790874 140.175354 Q 202.729082 136.671988 202.823114 135.248074 C 202.960132 133.125636 203.921946 131.752768 206.288867 131.752768 Q 227.032338 131.760828 245.500234 131.758141 Z" style="fill:#1a3547;"/>
		<path d="M 245.231571 142.574514 Q 274.131651 142.577201 290.216506 142.566454 C 290.869357 142.566454 291.809677 142.531528 292.11058 143.015122 C 292.954182 144.369183 290.192326 144.992481 289.410517 144.992481 Q 268.102853 144.984421 245.231571 144.981735 Q 222.360288 144.979048 201.052625 144.981735 C 200.270815 144.981735 197.508959 144.358437 198.352561 143.004375 C 198.653464 142.520782 199.593784 142.555708 200.246636 142.555708 Q 216.33149 142.571828 245.231571 142.574514 Z" style="fill:#1a3547;"/>
		<path d="M 262.520036 147.531347 C 259.344439 148.888095 256.045257 149.941254 252.568758 149.954687 Q 236.860031 150.021853 236.080908 150.029913 C 232.940238 150.062152 230.452418 149.374375 227.540111 148.197631 Q 226.795915 147.899415 226.296201 147.585079 Q 225.954999 147.372836 226.352621 147.308357 Q 226.513818 147.28149 227.013532 147.28149 Q 260.464764 147.230444 260.942984 147.219698 Q 261.837632 147.203578 262.485109 147.28149 Q 262.966016 147.340596 262.520036 147.531347 Z" style="fill:#1a3547;"/>
		<path d="M 231.309453 47.814383 Q 231.183182 47.862742 231.177808 47.674678 Q 231.016611 46.307183 231.459905 45.315816 Q 231.492144 45.243277 231.419605 45.213725 L 230.541077 44.84297 Q 230.476598 44.816103 230.436298 44.872522 C 229.751208 45.820903 228.937159 46.884808 227.894746 46.833762 C 227.61265 46.820329 227.521305 46.446888 227.765788 46.304496 L 229.125223 45.52 C 229.3106 45.412535 229.3106 45.143872 229.125223 45.036407 L 228.770588 44.83491 C 228.679242 44.781177 228.636256 44.673712 228.665809 44.57162 Q 228.749095 44.270717 229.125223 44.187432 C 229.154776 44.179372 229.184329 44.168625 229.211195 44.149819 L 230.143456 43.480848 C 230.33958 43.341143 230.610929 43.480848 230.610929 43.719958 L 230.610929 43.81399 C 230.610929 43.859663 230.645856 43.897276 230.691528 43.902649 Q 231.118703 43.945635 231.473338 43.762944 Q 231.610356 43.690405 231.634536 43.539954 L 231.911258 41.828571 Q 231.975738 41.428263 232.376045 41.492742 L 232.464704 41.508862 Q 232.856952 41.573341 232.848892 41.970962 Q 232.832773 42.827997 232.233654 43.642046 Q 232.150369 43.754884 232.155742 43.897276 Q 232.177235 44.378183 231.908572 44.84297 Q 231.8226 44.993421 231.997231 44.993421 L 233.03427 44.993421 Q 233.251887 44.993421 233.359352 45.181485 L 234.127728 46.514054 C 234.211014 46.656445 234.165341 46.839136 234.02295 46.925108 Q 232.738741 47.688111 231.309453 47.814383 Z" style="fill:#c8d919;"/>
		<path d="M 238.952916 46.973467 C 238.955603 46.99496 238.94217 47.016453 238.920676 47.021827 L 238.91799 47.021827 C 238.67082 47.075559 238.429023 46.919735 238.372604 46.672565 L 238.356484 46.591966 C 238.302752 46.344796 238.458576 46.100312 238.703059 46.04658 L 238.705746 46.04658 C 238.727239 46.041207 238.748732 46.05464 238.754105 46.076133 L 238.952916 46.973467 Z" style="fill:#1a3547;"/>
		<path d="M 231.177808 47.674678 Q 231.183182 47.862742 231.309453 47.814383 Q 231.086463 48.426934 230.471225 48.220064 Q 230.33152 48.174391 230.296594 48.088419 Q 230.277787 48.037373 230.283161 47.980954 Q 230.293907 47.841249 230.436298 47.846622 Q 230.941385 47.868115 231.177808 47.674678 Z" style="fill:#94bfaf;"/>
		<path d="M 259.140255 123.867509 Q 258.29934 123.655265 257.799626 123.311376 C 257.587383 123.166298 257.600816 122.851962 257.82112 122.723004 L 259.871018 121.5382 C 260.147741 121.377002 260.502376 121.462975 260.679694 121.728951 C 261.520609 123.010474 261.912857 124.117365 259.897885 124.445134 Q 259.752807 124.469314 259.691014 124.334982 C 259.556683 124.036766 259.47877 123.950794 259.140255 123.867509 Z M 259.156375 122.792857 Q 258.919951 122.846589 258.815173 122.908382 Q 258.635168 123.01316 258.874279 123.03734 Q 259.083836 123.06152 259.99729 122.943308 Q 260.136995 122.924501 260.169234 122.787483 Q 260.214907 122.585986 260.134308 122.405982 C 260.061769 122.242097 259.846839 122.201798 259.720567 122.328069 L 259.382052 122.666585 C 259.320259 122.728377 259.242347 122.771363 259.156375 122.792857 Z" style="fill:#1a3547;"/>
		<path d="M 255.771731 125.270198 C 255.752414 125.380081 255.647636 125.45262 255.538021 125.433223 L 255.384615 125.4059 C 255.274194 125.385455 255.201655 125.280676 255.221563 125.17219 L 255.351596 124.442179 C 255.370913 124.332296 255.475691 124.259757 255.585306 124.279154 L 255.738712 124.306477 C 255.849133 124.326922 255.921672 124.431701 255.901764 124.540187 L 255.771731 125.270198 Z" style="fill:#9fb30e;"/>
		<path d="M 259.382052 122.666585 L 259.720567 122.328069 C 259.846839 122.201798 260.061769 122.242097 260.134308 122.405982 Q 260.214907 122.585986 260.169234 122.787483 Q 260.136995 122.924501 259.99729 122.943308 Q 259.083836 123.06152 258.874279 123.03734 Q 258.635168 123.01316 258.815173 122.908382 Q 258.919951 122.846589 259.156375 122.792857 C 259.242347 122.771363 259.320259 122.728377 259.382052 122.666585 Z" style="fill:#c8d919;"/>
	</g>
	<g id="surface4">
	</g>
</svg>
