<?xml version="1.0" encoding="utf-8"?>
<svg xmlns="http://www.w3.org/2000/svg" width="490pt" height="280pt" viewBox="0 0 490 280" version="1.1" xmlns:xlink="http://www.w3.org/1999/xlink">
	<g id="surface2">
		<path d="M 115.023006 14.256048 Q 114.751093 14.259285 114.796412 14.527962 Q 115.035955 15.978169 115.476196 17.340974 Q 116.599459 20.840245 118.243889 24.074076 Q 121.74316 30.95932 128.314408 37.718318 Q 134.196161 43.765162 137.002699 46.08614 Q 140.913078 49.313497 143.942974 51.670082 Q 147.416348 54.369797 151.585692 57.092171 C 151.815523 57.244314 152.077726 57.331714 152.34964 57.354374 Q 153.654178 57.454723 155.272712 57.454723 Q 175.705086 57.474145 196.137461 57.45796 C 198.073228 57.454723 201.326481 57.580969 203.92261 57.477383 Q 205.605885 57.409404 206.165898 57.438538 Q 207.253553 57.490331 208.405949 57.551835 Q 208.706997 57.564783 208.830005 57.45796 C 208.956251 57.351137 208.907695 57.147202 208.745841 57.108357 C 207.68732 56.852628 206.751807 56.723146 205.848665 56.425335 Q 203.621562 55.687284 198.775671 54.382745 Q 197.66212 54.084935 196.674814 53.686776 C 195.558026 53.236823 194.739047 53.188267 193.797061 52.828953 Q 192.910104 52.492298 189.556501 51.592393 C 188.374971 51.27516 187.125463 50.760466 185.901851 50.504738 Q 185.179985 50.352595 183.891632 49.860561 C 183.007912 49.523906 182.036792 49.345867 181.185443 49.083665 C 179.006896 48.410355 176.880142 47.801786 174.756626 47.086394 Q 173.490932 46.662338 172.726984 46.484299 C 171.532506 46.205911 170.299183 45.548786 169.185631 45.325429 C 167.929649 45.0697 166.764304 44.483791 165.362654 44.079157 Q 164.566335 43.849325 163.825046 43.574175 Q 155.87157 40.602546 144.496512 35.601276 Q 139.190957 33.26735 135.329135 31.380139 C 135.267631 31.351005 135.228786 31.286264 135.228786 31.218285 L 135.228786 31.06938 C 135.228786 30.907527 135.390639 30.797467 135.542782 30.855734 C 137.659824 31.681186 139.90635 32.208828 142.046052 32.976013 C 143.195211 33.387121 144.247258 33.64285 145.211904 33.979505 Q 147.636468 34.827616 152.323743 36.290771 Q 157.373569 37.863986 162.229172 39.414542 Q 162.439581 39.482521 176.122668 43.629205 Q 178.812672 44.444946 182.337839 45.4452 Q 194.473608 48.892678 206.07526 52.495535 Q 208.240859 53.165608 212.22569 54.496043 Q 217.443844 56.234348 218.936132 56.658404 C 220.661489 57.147202 222.331816 57.940283 224.005381 58.377287 C 224.354984 58.467925 224.597764 58.781921 224.597764 59.141236 L 224.597764 62.0287 C 224.597764 62.164657 224.484467 62.277955 224.345273 62.274718 Q 219.424929 62.167894 217.346731 62.167894 Q 190.359294 62.148472 153.068269 61.798869 C 151.281407 61.782683 149.42333 61.679097 147.749766 60.837459 C 145.163348 59.536158 142.771155 57.814038 139.82866 55.700232 Q 128.395335 47.500738 119.315359 37.860749 C 114.398252 32.636121 110.29365 27.003623 107.467689 20.574805 C 106.538651 18.464237 105.768229 16.266268 105.399203 14.026216 Q 105.318276 13.54713 105.107867 12.427105 Q 104.683811 10.161157 105.926845 8.808063 Q 106.846172 7.807808 108.914659 7.283403 Q 111.345697 6.665123 113.11961 6.561537 Q 114.534209 6.477373 118.334527 6.525929 Q 119.001363 6.535641 120.283242 6.726628 C 121.160488 6.85611 122.089526 6.833451 122.90203 6.959697 Q 127.543986 7.675089 128.019835 7.781912 Q 137.294036 9.818028 145.849607 13.372329 Q 156.00429 17.590228 167.217494 23.190356 Q 168.318097 23.740658 168.321334 23.740658 Q 171.979221 25.533994 172.80791 25.925679 Q 173.070113 26.048688 174.484712 26.79645 C 175.271319 27.214032 176.038505 27.427679 176.766845 27.903528 C 177.524319 28.405273 178.553706 28.661002 179.392107 29.217777 Q 179.799978 29.492928 180.612482 29.842532 Q 181.680714 30.305432 182.23749 30.635613 C 183.007912 31.09204 183.736253 31.244182 184.419274 31.700609 C 185.209119 32.228251 186.248218 32.503402 187.047773 33.047229 C 187.950915 33.659035 189.019148 33.882393 189.925527 34.510384 C 190.582652 34.96681 191.51169 35.102767 192.188238 35.601276 C 193.01369 36.213082 194.19522 36.504418 195.130733 37.083853 Q 195.739301 37.465827 196.29284 37.643866 C 197.111818 37.909305 197.733335 38.504926 198.60087 38.818922 Q 199.491063 39.139391 200.316516 39.676745 C 200.976878 40.104038 201.769959 40.278839 202.640731 40.800007 Q 203.553584 41.347072 204.560312 41.703149 C 204.97142 41.848817 205.311312 42.217843 205.641493 42.337615 Q 206.835971 42.777856 207.745587 43.328158 C 208.428609 43.739265 209.046889 43.978808 209.642509 44.244248 C 210.312582 44.542058 210.869358 44.95964 211.600935 45.267161 Q 212.099444 45.477571 212.837496 45.849834 Q 214.828292 46.859799 216.822326 47.837393 Q 217.715757 48.274398 218.214266 48.552786 C 219.243653 49.128984 220.065869 49.339393 220.99167 49.977096 C 221.616424 50.407626 222.639338 50.653643 223.419471 51.171574 Q 223.84029 51.453199 224.358221 51.657134 C 224.685165 51.786617 224.885863 52.120035 224.847018 52.472875 L 224.503889 55.544853 C 224.477993 55.774685 224.235213 55.917116 224.024803 55.823241 C 222.354476 55.085189 220.790972 54.428064 219.175675 53.589664 C 218.434386 53.204453 217.605697 52.906642 216.916201 52.550565 Q 214.210012 51.152151 213.381323 50.786363 Q 211.112138 49.77316 210.173388 49.307022 Q 206.742096 47.601088 198.503758 43.59036 Q 197.082685 42.897627 185.338601 37.210099 Q 181.845805 35.517112 179.754659 34.533043 Q 177.961323 33.691406 174.164242 31.84304 Q 164.559861 27.165476 156.159669 23.565856 C 153.366079 22.371378 150.766713 21.439103 147.973123 20.302892 C 146.678296 19.775249 145.050051 19.351194 143.606318 18.800892 Q 143.072202 18.596957 141.822694 18.263539 Q 139.349574 17.609651 136.892639 16.90397 Q 135.604286 16.531707 130.997938 15.583246 Q 129.842305 15.34694 128.103999 15.172139 C 126.98721 15.058841 125.472263 14.770742 124.23894 14.638022 Q 120.354458 14.213966 115.023006 14.256048 Z" style="fill:#0f1417;"/>
		<path d="M 279.385143 57.474145 Q 279.404565 57.500042 279.456359 57.525939 Q 279.491966 57.545361 279.540522 57.53565 Q 280.032557 57.438538 284.593586 57.45796 Q 302.90568 57.532413 333.583376 57.438538 Q 335.85256 57.432064 336.962875 57.377033 Q 337.558495 57.3479 338.225331 56.914133 Q 349.635997 49.498009 359.233904 39.867732 C 360.981921 38.113241 362.260562 36.591819 364.257834 34.299974 Q 369.084302 28.754877 372.15628 22.232184 Q 373.561167 19.247607 374.289508 16.1206 Q 374.49668 15.230406 374.483732 14.427613 Q 374.480495 14.246337 374.299219 14.246337 Q 367.821846 14.281945 364.892299 14.702764 Q 361.036951 15.256302 359.554373 15.437578 Q 356.702516 15.787181 350.170113 17.567569 Q 341.30702 19.979185 332.2756 23.866904 Q 327.999433 25.705558 323.775059 27.660748 Q 310.350937 33.875918 289.643412 44.250722 Q 288.248236 44.949929 284.007676 46.982807 Q 279.524337 49.132221 275.235222 51.155388 Q 273.186158 52.123272 265.25534 55.716417 C 265.025509 55.820004 264.760069 55.674336 264.727698 55.428318 C 264.601453 54.515465 264.407229 53.460181 264.183871 52.505246 Q 264.080285 52.071479 264.818336 51.65066 Q 266.184379 50.867289 268.647788 49.64044 Q 288.474831 39.783568 316.650272 25.699084 Q 318.896797 24.575822 324.636119 21.788706 Q 326.921489 20.678392 327.740467 20.338499 C 328.054463 20.20578 328.306954 19.907969 328.588579 19.814094 Q 329.789532 19.406224 330.42076 19.037198 Q 331.330376 18.503082 331.971316 18.325043 C 332.460113 18.189086 333.389151 17.63231 334.043039 17.344211 Q 341.264938 14.158936 342.653641 13.595686 Q 348.227872 11.336213 354.006039 9.678834 Q 354.122573 9.646463 354.216448 9.572011 Q 354.281189 9.523455 354.358879 9.504032 Q 355.864116 9.105873 358.978175 8.341925 Q 361.040188 7.840179 362.45155 7.60711 Q 364.066847 7.338434 365.960531 7.017964 Q 367.300678 6.791369 368.006358 6.804317 C 368.941871 6.820503 369.712293 6.529167 370.741681 6.522692 C 372.861961 6.509744 375.056693 6.341417 377.028067 6.716916 Q 377.193158 6.749287 378.504171 6.875533 Q 379.099791 6.9338 380.524101 7.319011 Q 381.815691 7.668615 382.463105 8.040877 Q 384.884432 9.426343 384.460376 12.595432 Q 383.732036 17.998099 381.103536 22.989658 Q 377.934447 29.017079 373.55793 34.215811 Q 370.11369 38.310702 368.135841 40.285313 Q 363.950312 44.467606 360.408959 47.526635 Q 353.345677 53.625271 344.971381 59.121813 Q 344.158877 59.652692 342.197214 60.717688 Q 340.996262 61.368338 339.384202 61.633778 Q 338.461637 61.78592 336.454655 61.802106 Q 295.732337 62.119338 268.333792 62.187317 Q 265.931888 62.193791 264.71475 62.345933 Q 264.332776 62.394489 264.374858 62.009278 L 264.717987 58.940537 Q 264.756832 58.597408 265.080539 58.484111 Q 268.851723 57.16015 276.912023 54.483094 Q 279.851281 53.508737 283.088349 52.524668 Q 297.412376 48.164337 305.006538 45.946946 Q 305.08099 45.924286 305.252555 45.807752 Q 305.382038 45.717114 305.540654 45.697691 Q 305.990606 45.642661 306.939067 45.361036 Q 314.669186 43.053007 322.03999 40.74174 Q 325.950369 39.514891 336.341358 36.284297 Q 343.02914 34.202862 345.499023 33.4551 Q 346.512226 33.150815 349.635997 32.147324 Q 351.59766 31.516096 353.818289 30.894579 Q 353.99309 30.846023 354.035172 31.020824 Q 354.093439 31.247419 353.866845 31.357479 Q 342.860813 36.637138 333.466841 40.3889 Q 332.770871 40.66405 332.638152 40.725555 Q 330.317174 41.771128 326.432692 43.091852 Q 318.524534 45.778618 311.367377 47.99601 Q 299.998793 51.521177 283.586858 56.305564 C 282.379431 56.658404 280.770608 56.891473 279.420751 57.357611 Q 279.323639 57.393219 279.385143 57.474145 Z" style="fill:#0f1417;"/>
		<path d="M 250.461939 78.139589 Q 244.98482 80.99792 239.26492 78.411502 Q 235.144132 75.54346 231.952383 71.616896 Q 231.369711 70.901504 230.003668 68.820069 Q 228.80919 67.010548 228.291259 65.864626 Q 226.416997 61.721179 226.475264 57.131016 C 226.484975 56.257008 226.695384 55.541616 226.824867 54.619051 C 226.938164 53.82597 227.391354 52.822478 227.559682 52.255992 Q 227.838069 51.323716 228.071138 50.89966 Q 228.812427 49.546565 229.563427 48.488044 C 229.657302 48.355324 229.657302 48.177286 229.563427 48.044566 C 228.330104 46.315971 227.94813 44.577666 228.042005 42.389408 Q 228.090561 41.240249 228.407793 40.265891 Q 229.40481 37.21981 231.907064 35.015366 Q 233.486753 33.623427 235.616744 32.584328 Q 237.633438 31.60026 239.925282 31.331583 C 240.051528 31.315398 240.109795 31.166492 240.025631 31.072617 C 239.501226 30.489945 239.125726 29.787501 238.562476 29.201592 Q 235.98577 26.527774 233.528835 24.491658 Q 233.040038 24.090261 232.020362 23.48493 Q 230.485991 22.578551 225.481484 19.920918 Q 217.583037 15.725677 215.158473 14.343449 C 213.934862 13.647479 213.128832 12.987118 212.368121 11.854144 Q 212.235401 11.65992 212.351935 11.216441 C 212.947556 8.924597 215.313853 10.119075 216.650762 10.989846 Q 217.683387 11.65992 219.751873 12.867346 Q 225.983229 16.499336 227.766854 17.564332 Q 227.795988 17.580517 228.825375 18.114634 C 229.343306 18.38331 229.770599 18.745862 230.317664 19.066332 C 235.509921 22.09299 240.045054 25.601972 242.968126 30.658273 C 243.010208 30.729488 243.087898 30.774807 243.168824 30.774807 L 246.299069 30.774807 Q 246.451211 30.774807 246.512716 30.63885 Q 247.101862 29.382868 247.658638 28.654527 Q 250.277426 25.239421 253.50802 22.685374 Q 254.909671 21.578296 257.942803 19.687849 Q 258.619351 19.26703 264.734173 15.605906 Q 265.481935 15.15919 266.666702 14.521488 Q 267.802913 13.909682 268.589521 13.420885 Q 270.399042 12.300859 271.962546 11.352398 C 273.014593 10.717933 274.186412 9.72739 275.581588 9.928088 C 276.75017 10.096416 277.028557 11.805588 276.306691 12.579247 Q 275.251407 13.712221 274.704342 14.019742 C 270.140076 16.5835 265.365401 19.069569 259.606657 22.086516 Q 258.460734 22.685374 257.570541 23.303654 C 256.981394 23.708287 255.773968 24.449576 255.016494 25.145546 Q 251.883012 28.026536 249.503767 30.865445 C 249.354862 31.040247 249.458448 31.31216 249.685043 31.351005 C 250.196499 31.438406 250.665874 31.338057 251.22265 31.554941 Q 253.449753 32.425712 253.747563 32.574617 Q 257.589963 34.526569 259.90123 38.126189 Q 260.354419 38.835107 260.548643 39.50518 C 260.759053 40.239994 261.076285 40.628443 261.131316 41.418287 C 261.183109 42.178998 261.364385 44.114765 260.933854 44.940217 C 260.76229 45.270398 260.814083 45.568209 260.681363 45.885441 Q 260.114876 47.241773 259.512782 48.002484 C 259.367113 48.186997 259.383299 48.449199 259.545152 48.61429 C 260.166669 49.248755 260.57454 50.488552 260.92738 51.061513 Q 261.461497 51.922574 261.594216 52.586173 C 261.746359 53.366306 262.050643 53.99106 262.183363 54.771194 Q 262.814591 58.516481 262.157466 61.811817 Q 261.613639 64.553614 259.726428 67.758311 Q 256.165653 73.811629 250.461939 78.139589 Z M 245.035188 71.772405 C 252.323253 71.503599 257.997834 64.903217 257.710576 57.025779 C 257.421635 49.148406 251.27768 42.978554 243.989227 43.247101 C 236.701162 43.515907 231.026582 50.116289 231.313839 57.993727 C 231.60278 65.8711 237.746735 72.040952 245.035188 71.772405 Z" style="fill:#0f1417;"/>
		<path d="M 245.035188 71.772405 C 237.746735 72.040952 231.60278 65.8711 231.313839 57.993727 C 231.026582 50.116289 236.701162 43.515907 243.989227 43.247101 C 251.27768 42.978554 257.421635 49.148406 257.710576 57.025779 C 257.997834 64.903217 252.323253 71.503599 245.035188 71.772405 Z" style="fill:#ead2a7;"/>
		<path d="M 228.171487 71.183129 Q 228.689418 71.186366 229.016362 71.241396 Q 229.456604 71.319086 229.453366 71.594237 Q 229.450129 71.759327 229.272091 71.804646 C 228.993703 71.879099 228.637625 71.837017 228.291259 72.011819 Q 226.562665 72.889064 223.581325 73.601219 Q 218.447335 74.828068 213.857172 75.352473 Q 208.32826 75.986938 199.429559 76.077576 C 196.901409 76.103473 194.505978 75.91896 191.994014 75.867167 Q 190.492014 75.831559 189.012674 75.727973 Q 183.571162 75.336288 179.858245 75.041714 C 177.903056 74.886335 173.905277 74.724482 171.260592 74.36193 C 170.043454 74.193603 168.764812 74.151521 167.175412 73.992904 Q 162.685598 73.549426 155.402195 73.322831 Q 154.796863 73.306646 153.24307 73.68862 Q 151.407653 74.141809 150.850877 75.65352 C 150.122537 77.624895 152.330217 80.05917 153.767475 81.496428 Q 156.586962 84.319152 160.52 86.232259 Q 165.550404 88.676246 171.250881 89.718582 C 173.066876 90.048762 175.598263 90.236512 177.553452 90.599064 C 177.786521 90.644383 177.890108 90.919534 177.744439 91.107284 Q 177.585823 91.307982 177.194138 91.311219 Q 176.10972 91.324167 175.219526 91.486021 C 171.08579 92.237021 167.278998 92.683736 163.763542 92.139909 Q 162.089978 91.880943 161.423142 91.770883 C 159.814319 91.50868 158.862621 91.097573 156.845927 90.388655 Q 153.239833 89.116487 149.248528 86.028324 Q 145.668331 83.260631 143.59337 79.622166 Q 142.887689 78.388843 143.017172 77.068119 Q 143.114284 76.074339 144.053034 74.941365 Q 146.102098 72.474719 148.905399 71.050409 Q 153.213937 68.862151 156.752052 68.441332 Q 160.167159 68.036699 160.830758 67.959009 Q 162.876585 67.722703 164.925649 67.709755 Q 168.250118 67.687096 175.501151 67.709755 Q 176.624414 67.712992 177.932189 67.816578 C 179.799978 67.965483 180.965322 67.920164 182.447899 68.224449 C 183.247455 68.386302 184.270369 68.276242 185.260912 68.489888 Q 186.193187 68.68735 187.575415 68.674401 Q 187.740506 68.674401 187.882937 68.748854 Q 188.145139 68.881574 188.300519 68.900996 Q 193.625496 69.567832 197.811025 70.140793 Q 204.388748 71.040698 207.713217 71.199315 Q 211.513535 71.38059 212.892526 71.523021 Q 213.92515 71.626608 221.169709 71.603948 C 223.468027 71.597474 225.704842 71.179892 228.171487 71.183129 Z" style="fill:#0f1417;"/>
		<path d="M 338.795055 77.699347 C 338.843611 76.741175 339.070206 75.838033 338.510193 75.070848 C 337.27687 73.387573 334.819936 73.157741 332.605781 73.274275 Q 324.9663 73.669198 317.109936 74.404012 Q 313.526501 74.740667 310.651985 74.947839 Q 307.408442 75.184145 299.568263 75.744158 C 298.160138 75.844507 296.428307 75.857456 294.745032 75.935145 Q 286.202409 76.323593 277.501169 75.485193 Q 276.067148 75.345999 273.87889 75.119404 C 271.150042 74.834542 268.430904 74.203314 265.863909 73.659486 C 264.646772 73.400521 263.358419 72.8049 262.050643 72.474719 C 261.497104 72.335525 260.6846 71.914707 260.315574 71.746379 C 260.166669 71.678401 260.118113 71.490651 260.215225 71.361168 C 260.448294 71.053646 260.781712 71.179892 261.118367 71.209026 Q 269.36318 71.914707 275.529795 71.497125 Q 280.453376 71.16047 283.567435 70.940349 Q 285.250711 70.81734 287.180003 70.564849 Q 289.598093 70.247616 290.786097 70.114897 Q 290.879972 70.101948 291.439985 70.03397 Q 295.78413 69.506328 295.874768 69.490143 Q 297.888225 69.163199 300.503776 68.888048 C 300.730371 68.865388 300.960202 68.74238 301.151189 68.71972 Q 304.699016 68.302138 308.560839 67.946061 Q 311.370614 67.683858 315.01879 67.690333 Q 323.425456 67.700044 325.163761 67.709755 C 326.613968 67.716229 328.646847 67.981669 329.770109 68.06907 Q 336.674776 68.596712 341.951197 71.707534 Q 343.456433 72.594491 345.65764 74.967262 C 345.910131 75.239176 346.06551 75.734447 346.376269 76.054917 Q 346.508989 76.194111 346.583441 76.501632 Q 347.036631 78.411502 345.796834 80.347269 Q 343.530886 83.885385 340.491279 86.190177 Q 331.501941 93.007443 320.279025 92.327658 Q 319.5345 92.28234 317.025772 91.991003 Q 315.821582 91.848572 314.604445 91.541051 Q 313.393781 91.236767 312.128088 91.259426 Q 311.66195 91.2659 311.691083 90.85803 C 311.707269 90.64762 311.869122 90.479293 312.079532 90.456633 Q 318.016315 89.857775 322.311904 88.734513 Q 327.915269 87.268121 332.531328 84.234988 Q 334.997974 82.616454 337.280107 79.958821 C 337.823935 79.327593 338.144405 78.592778 338.678521 77.984209 C 338.749736 77.903283 338.791818 77.802934 338.795055 77.699347 Z" style="fill:#0f1417;"/>
		<path d="M 250.461939 78.139589 Q 250.759749 78.298205 251.81827 78.699601 Q 253.071016 79.17545 254.812559 80.386114 Q 255.178347 83.79151 253.941787 86.711345 C 252.378283 90.398366 248.668603 93.402365 245.088406 95.153619 Q 244.628742 95.380214 244.256479 95.182753 Q 240.731312 93.33115 238.345593 91.039305 Q 234.001447 86.857013 234.292783 80.722769 Q 235.788309 79.703093 237.497481 78.919722 C 238.070442 78.65752 238.64664 78.589541 239.26492 78.411502 Q 244.98482 80.99792 250.461939 78.139589 Z" style="fill:#cca35b;"/>
		<path d="M 202.611597 123.714272 Q 202.300839 123.830806 202.083955 124.160987 C 199.079956 126.413986 195.855836 127.537249 192.0976 126.776538 C 191.288333 126.614685 190.05501 126.019064 189.520893 125.484948 Q 189.329906 125.290724 189.339618 125.022047 Q 189.346092 124.824586 189.54679 124.844008 Q 194.881478 125.37165 198.571736 121.351212 Q 200.64346 119.094975 201.899442 116.262541 Q 203.786653 112.009033 205.032924 108.127788 Q 205.851902 105.570504 207.321531 101.193988 Q 207.480148 100.718139 207.862122 99.779389 Q 208.056346 99.30354 208.402712 98.355079 C 208.778212 97.328929 209.380307 96.228326 209.962979 95.098589 Q 212.39078 90.411314 216.385322 87.051237 Q 216.828801 86.675737 218.340511 85.546001 C 219.900778 84.380656 221.286243 83.623182 222.852984 82.645588 Q 223.817631 82.04673 225.407031 81.256885 Q 228.663522 79.638351 231.505668 78.540985 Q 232.01065 78.346761 232.230771 78.385606 Q 232.76165 78.476244 232.344068 78.819373 Q 231.211094 79.748412 229.191164 81.600015 Q 228.514617 82.221532 226.786022 84.293255 C 224.986212 86.45238 222.403032 88.433465 220.059395 90.586116 Q 218.473231 92.042796 217.816106 92.975072 C 215.666693 96.008205 214.307124 99.533372 213.102935 103.181548 Q 210.775483 110.228645 209.35441 113.92214 Q 208.852665 115.226679 207.79738 117.217476 Q 205.819532 120.959526 202.611597 123.714272 Z" style="fill:#0f1417;"/>
		<path d="M 258.761782 80.256631 Q 258.182347 79.696618 257.612623 79.136606 Q 257.369842 78.897063 257.305101 78.676942 C 257.253308 78.508614 257.415161 78.353235 257.583489 78.408265 C 259.545152 79.078338 261.710751 80.017088 263.772763 81.140351 Q 265.031983 81.826609 265.22297 81.917247 Q 267.64106 83.066406 272.098503 86.284052 Q 276.235476 89.271866 279.187682 94.295796 Q 279.508152 94.839623 280.773845 97.383959 Q 280.916276 97.675295 281.168768 98.461903 C 281.333858 98.973359 281.628431 99.416838 281.780574 99.88945 Q 283.182224 104.201225 284.609771 108.46768 Q 286.008185 112.637024 287.937477 116.893769 Q 288.189969 117.453782 289.355313 119.298911 Q 291.627735 122.892056 295.551062 124.342263 C 296.968897 124.866668 298.367311 124.792215 299.859599 124.695103 C 300.005267 124.685392 300.115328 124.824586 300.070009 124.96378 Q 299.846651 125.643564 299.170104 125.983456 C 296.318247 127.407766 293.356329 127.320365 290.433257 125.905767 C 283.988254 122.78847 280.916276 116.171903 278.702122 109.526202 Q 277.248678 105.175582 276.403803 102.595639 Q 276.034778 101.462665 274.247916 97.01817 C 273.843282 96.017916 273.089045 94.761934 272.713546 94.120994 C 271.658261 92.324421 270.389331 90.948667 268.641314 89.550254 C 266.333284 87.708362 263.863401 85.659298 261.885553 83.41601 Q 261.018018 82.431941 260.367368 81.80395 Q 259.31532 80.790748 258.761782 80.256631 Z" style="fill:#0f1417;"/>
		<path d="M 234.292783 80.722769 Q 234.001447 86.857013 238.345593 91.039305 Q 240.731312 93.33115 244.256479 95.182753 Q 244.628742 95.380214 245.088406 95.153619 C 248.668603 93.402365 252.378283 90.398366 253.941787 86.711345 Q 255.178347 83.79151 254.812559 80.386114 Q 256.806593 81.949618 258.383045 83.862725 Q 259.862385 85.652824 261.163686 87.44616 Q 262.646264 89.482276 263.510561 91.282085 Q 265.061116 94.509442 265.779746 98.164092 Q 266.009577 99.332674 266.019289 100.381484 C 266.032237 101.391449 266.300914 102.233087 266.307388 103.320742 Q 266.355944 110.34518 266.258832 111.717697 Q 265.957784 115.945308 265.961021 116.553877 Q 265.964258 117.236898 265.802405 117.829282 C 265.572573 118.654734 265.721478 119.444579 265.462513 120.350958 C 265.271526 121.024268 265.468987 121.852957 265.177651 122.555401 C 264.934871 123.14131 265.087013 123.866414 264.805388 124.601228 C 264.617638 125.086788 264.750358 125.598245 264.575556 126.074094 Q 264.400754 126.55318 264.070574 128.194374 Q 263.834268 129.366193 263.559117 130.314654 Q 262.830776 132.846041 262.717479 133.237726 Q 261.710751 136.681967 259.865622 140.485522 C 257.61586 145.12424 254.57949 149.105834 250.442517 152.145441 Q 249.727124 152.673083 248.807797 153.139221 C 247.040358 154.035889 245.6031 154.828971 243.579932 154.31104 Q 241.424045 153.757501 239.831407 152.669846 C 235.01465 149.380985 231.499194 144.567465 229.12966 139.268384 Q 226.601509 133.613226 225.374661 128.22027 Q 224.154286 122.859686 223.956825 120.739406 C 223.752889 118.544674 223.319122 115.508304 223.247907 113.122584 Q 223.069868 107.328232 223.228484 102.09713 Q 223.264092 100.886467 223.425946 99.818234 Q 223.655777 98.290338 223.759364 97.552287 C 223.99567 95.8593 224.662506 94.253714 225.190148 92.7679 Q 225.504143 91.877706 226.025311 90.955142 Q 227.912522 87.614487 230.66403 84.086083 Q 231.343814 83.215312 232.687198 81.901062 Q 233.386404 81.214803 234.292783 80.722769 Z M 257.489614 90.307728 Q 257.386028 90.136163 257.282442 90.307728 Q 253.631029 96.377231 247.037121 98.750002 Q 244.551052 99.643433 242.120014 98.70792 Q 235.700908 96.2348 232.110999 90.333624 C 232.043021 90.223564 231.884405 90.230038 231.826137 90.343336 C 229.59256 94.557998 228.783293 99.080183 228.521091 103.783643 C 228.51138 103.95197 228.579358 104.113824 228.708841 104.223884 C 233.781327 108.587452 239.488278 109.921124 246.069237 109.723663 C 251.216176 109.568284 255.977903 108.150448 260.053372 104.984595 Q 260.558355 104.59291 260.823794 104.269203 Q 260.92738 104.142957 260.920906 103.981104 C 260.733156 99.232325 259.881807 94.3573 257.489614 90.307728 Z M 250.300086 113.520744 C 242.893674 114.7832 234.532326 113.669649 228.75416 108.81081 Q 228.381897 108.496814 228.394845 108.982374 Q 228.521091 114.236136 229.59256 120.457781 Q 229.696147 121.056639 230.12344 121.409479 C 238.51392 128.317382 250.834202 128.385361 259.31532 121.642548 Q 259.694057 121.341501 259.852674 120.483677 Q 260.914432 114.770252 260.933854 109.040641 C 260.933854 108.924107 260.794661 108.86584 260.710497 108.946767 C 258.146739 111.426361 253.786408 112.925123 250.300086 113.520744 Z M 258.441312 126.92868 Q 258.483394 126.770064 258.347437 126.860702 C 249.940771 132.457593 239.387929 132.392851 231.052478 126.676189 Q 230.793513 126.501387 230.877676 126.802435 Q 232.499448 132.706847 235.192688 137.701643 C 237.65286 142.259435 240.388183 145.629223 244.389199 148.290093 C 244.628742 148.448709 244.936264 148.451947 245.179044 148.303041 C 252.491581 143.767909 256.366351 134.908053 258.441312 126.92868 Z" style="fill:#0f1417;"/>
		<path d="M 257.489614 90.307728 C 259.881807 94.3573 260.733156 99.232325 260.920906 103.981104 Q 260.92738 104.142957 260.823794 104.269203 Q 260.558355 104.59291 260.053372 104.984595 C 255.977903 108.150448 251.216176 109.568284 246.069237 109.723663 C 239.488278 109.921124 233.781327 108.587452 228.708841 104.223884 C 228.579358 104.113824 228.51138 103.95197 228.521091 103.783643 C 228.783293 99.080183 229.59256 94.557998 231.826137 90.343336 C 231.884405 90.230038 232.043021 90.223564 232.110999 90.333624 Q 235.700908 96.2348 242.120014 98.70792 Q 244.551052 99.643433 247.037121 98.750002 Q 253.631029 96.377231 257.282442 90.307728 Q 257.386028 90.136163 257.489614 90.307728 Z" style="fill:#cca35b;"/>
		<path d="M 228.75416 108.81081 C 234.532326 113.669649 242.893674 114.7832 250.300086 113.520744 C 253.786408 112.925123 258.146739 111.426361 260.710497 108.946767 C 260.794661 108.86584 260.933854 108.924107 260.933854 109.040641 Q 260.914432 114.770252 259.852674 120.483677 Q 259.694057 121.341501 259.31532 121.642548 C 250.834202 128.385361 238.51392 128.317382 230.12344 121.409479 Q 229.696147 121.056639 229.59256 120.457781 Q 228.521091 114.236136 228.394845 108.982374 Q 228.381897 108.496814 228.75416 108.81081 Z" style="fill:#ead2a7;"/>
		<path d="M 202.611597 123.714272 Q 202.372054 124.018556 202.083955 124.160987 Q 202.300839 123.830806 202.611597 123.714272 Z" style="fill:#cca35b;"/>
		<path d="M 258.441312 126.92868 C 256.366351 134.908053 252.491581 143.767909 245.179044 148.303041 C 244.936264 148.451947 244.628742 148.448709 244.389199 148.290093 C 240.388183 145.629223 237.65286 142.259435 235.192688 137.701643 Q 232.499448 132.706847 230.877676 126.802435 Q 230.793513 126.501387 231.052478 126.676189 C 239.387929 132.392851 249.940771 132.457593 258.347437 126.860702 Q 258.483394 126.770064 258.441312 126.92868 Z" style="fill:#cca35b;"/>
	</g>
	<g id="surface4">
	</g>
</svg>
