<?xml version="1.0" encoding="utf-8"?>
<svg xmlns="http://www.w3.org/2000/svg" width="490pt" height="280pt" viewBox="0 0 490 280" version="1.1" xmlns:xlink="http://www.w3.org/1999/xlink">
	<g id="surface2">
		<path d="M 243.226443 152.708065 Q 243.018161 152.573122 242.695472 151.995214 Q 242.6192 151.857338 242.487191 151.772265 Q 241.903416 151.402639 241.627664 150.821799 Q 241.563126 150.686856 241.431116 150.619384 Q 240.779871 150.296695 240.457181 149.657183 Q 240.38971 149.52224 240.257701 149.440101 C 239.723796 149.108611 239.521382 148.697916 239.228028 148.407495 Q 236.37076 145.547294 236.021669 145.145399 C 235.605106 144.670166 235.003731 144.303473 234.733845 143.860509 C 234.461026 143.411677 234.015128 143.265 233.642568 142.795634 Q 233.32868 142.402539 232.897449 142.123853 C 232.457418 141.8393 232.428083 141.50781 232.078992 141.188054 Q 230.3042 139.548205 230.057783 139.275386 Q 229.837767 139.031902 229.553214 138.295584 Q 229.50041 138.154774 229.556147 138.019831 Q 229.925773 137.145636 230.172191 136.905086 Q 235.370423 131.835929 240.501184 126.699301 C 240.847342 126.356077 241.354844 126.065656 241.721537 125.663762 Q 242.818681 124.46101 243.962761 123.431338 C 244.153441 123.261192 244.179843 122.976639 244.027299 122.771291 Q 242.994693 121.401328 242.501858 120.887959 Q 240.213697 118.508858 237.896201 116.250032 Q 237.503107 115.865739 237.013206 115.46091 C 236.75212 115.246762 236.611311 114.93874 236.341425 114.724592 C 235.854457 114.340298 235.534701 113.876799 235.217879 113.565843 Q 232.407548 110.81125 231.653628 110.048529 Q 229.163053 107.54622 228.065909 106.481345 Q 224.384317 102.920028 216.707243 95.413099 Q 216.229076 94.946667 216.202674 94.911464 Q 215.827181 94.392228 215.302078 94.025535 C 214.794575 93.67351 214.686034 93.227612 214.181465 92.925458 Q 213.849976 92.725977 213.495017 92.329949 Q 212.532816 91.25334 211.315397 90.566892 Q 211.16872 90.484753 211.107116 90.332209 Q 210.036374 87.709624 209.217916 85.732418 Q 208.927496 85.034236 207.733545 82.367648 C 206.633468 79.909342 205.697668 77.445168 204.559455 74.922324 Q 203.40364 72.361344 202.793464 70.879906 C 201.666985 68.145847 200.496502 65.755012 199.355356 63.009219 C 198.008861 59.773525 196.495154 56.614102 195.025451 53.434145 Q 194.831837 53.014649 194.415275 51.894037 C 194.177658 51.251592 193.766962 50.600346 193.546947 49.910964 Q 193.432539 49.558939 193.303463 49.462132 C 192.998375 49.239183 192.910369 48.822621 193.092248 48.485264 Q 193.429605 47.863353 193.843234 47.241443 Q 194.033914 46.959823 194.696894 45.751205 Q 195.19853 44.838874 195.574023 44.287368 Q 196.820777 42.459773 198.28168 40.189213 C 202.93134 32.969772 205.022954 29.804482 207.448992 25.879406 Q 208.009298 24.970009 208.191177 24.802797 Q 208.596006 24.430238 209.300055 24.172086 C 209.971836 23.925669 210.400133 23.47097 211.030844 23.242154 C 212.034114 22.875462 212.741097 22.215415 213.738501 21.834055 C 214.295874 21.619906 214.882582 21.20041 215.319679 20.968661 Q 225.076632 15.826165 226.232447 15.254125 Q 228.312327 14.221519 235.390958 10.651401 Q 241.747939 7.447976 242.114631 7.266096 Q 243.405389 6.626585 244.446795 5.963605 C 244.628675 5.846263 244.857491 5.834529 245.048171 5.931336 Q 246.115979 6.46524 247.356867 7.151688 Q 248.747365 7.920276 249.639161 8.369107 Q 269.185336 18.246336 272.861062 20.226475 Q 273.063476 20.335016 273.268824 20.443557 Q 280.444262 24.307029 280.796287 24.512377 Q 281.239251 24.767595 281.70275 25.512714 Q 284.985381 30.781351 288.429357 35.947315 Q 292.662455 42.298428 295.161831 46.170701 C 295.469853 46.648868 295.821877 47.429189 296.291244 47.96016 C 296.716607 48.435394 296.748876 49.212782 296.423253 49.664547 Q 295.728004 50.635548 295.452251 51.688689 C 295.352511 52.072983 295.097293 52.3106 294.988752 52.606887 Q 294.316971 54.452084 293.612922 55.707639 C 293.117154 56.587701 292.926474 57.476563 292.418971 58.421163 Q 292.143218 58.934532 291.899735 59.491905 Q 290.705784 62.225964 289.822788 64.21197 Q 286.267338 72.182398 284.143455 76.893663 Q 283.721026 77.829462 283.286862 78.79753 Q 282.248389 81.123827 280.857891 84.394724 Q 280.693613 84.781951 280.491198 85.110508 C 280.130373 85.703083 280.039433 86.386598 279.722611 86.8941 Q 279.420456 87.378134 279.247378 87.93844 Q 278.877752 89.141191 277.930218 90.616762 Q 277.851013 90.739971 277.719003 90.801575 C 277.290707 90.989321 276.932815 91.097862 276.657062 91.432286 C 276.2493 91.930988 275.785801 92.224342 275.25483 92.755312 Q 270.036063 97.979947 264.97864 102.9963 Q 262.429394 105.525011 260.431654 107.393676 Q 259.05289 108.6815 253.335421 114.381368 C 252.534564 115.17929 251.46969 116.041751 250.76564 116.795671 Q 248.421742 119.292113 245.981037 121.688815 Q 245.541006 122.122979 245.347392 123.349199 Q 245.323924 123.495876 245.441265 123.589749 Q 247.122184 124.942111 247.392069 125.235465 Q 248.248663 126.174197 248.512681 126.397146 Q 249.867977 127.523626 250.618963 128.356751 C 251.003257 128.779181 251.440354 128.849586 251.763043 129.471496 Q 251.836382 129.612306 251.971325 129.700312 C 252.690042 130.163812 252.871922 130.691849 253.584772 131.172949 C 253.969065 131.431101 254.139211 131.906334 254.588042 132.18502 C 255.001671 132.437305 255.330228 133.050415 255.881733 133.425908 Q 256.11935 133.590186 256.506577 133.980347 Q 258.026151 135.520455 259.572126 136.902152 C 260.384717 137.62967 260.185236 138.682811 259.437184 139.407395 C 257.653591 141.132317 255.336095 143.429278 253.285551 145.667569 Q 251.460889 147.662376 248.606555 150.645786 Q 248.101986 151.176757 247.920106 151.352769 Q 246.952038 152.291502 246.133581 153.224368 C 245.684749 153.73187 245.092174 153.852145 244.55827 153.866813 Q 244.408659 153.87268 244.31772 153.749471 Q 243.863021 153.124627 243.226443 152.708065 Z M 244.220913 40.38576 C 244.279584 40.441498 244.37639 40.397495 244.37639 40.315355 L 244.37639 7.788266 C 244.37639 7.717862 244.303052 7.673858 244.241448 7.703194 L 220.990211 19.410951 C 220.931541 19.440286 220.919806 19.519492 220.969677 19.563495 L 244.220913 40.38576 Z M 246.605881 8.460047 C 246.403466 8.41311 246.168783 8.289902 246.066109 8.169627 Q 245.573275 7.579985 245.573275 8.383775 L 245.570341 40.112941 Q 245.570341 40.23615 245.664214 40.156944 C 246.030907 39.843056 246.253856 39.444094 246.682153 39.065667 Q 248.838304 37.167667 252.528697 33.779429 Q 256.277761 30.338387 262.121372 25.110819 Q 265.336532 22.238883 268.164464 19.607498 Q 268.372746 19.410951 268.117528 19.284809 Q 263.101175 16.7913 256.277761 13.391327 Q 254.620311 12.567003 254.004268 12.162174 Q 253.816521 12.038966 253.147674 11.780814 C 252.387887 11.484527 251.80118 10.930088 251.026725 10.677803 C 250.114394 10.378582 249.451414 9.721469 248.521482 9.410514 C 247.773429 9.161163 247.362734 8.630192 246.605881 8.460047 Z M 286.452151 43.568651 C 287.393818 43.93241 288.558433 44.451647 290.4535 45.226101 Q 292.269361 45.97122 293.697995 46.68407 Q 294.076421 46.871817 293.912143 46.481656 C 293.656925 45.862679 293.090752 45.390379 292.721126 44.797804 Q 291.500773 42.847 290.526838 41.503439 C 289.863858 40.588175 289.400359 39.655309 288.658173 38.619769 C 287.869051 37.519692 287.123932 36.252403 286.302541 35.105389 C 285.492884 33.975976 284.903242 32.887633 284.234395 31.972368 Q 283.800231 31.373926 282.752958 29.707676 C 282.101712 28.669203 281.201115 27.416581 280.520534 26.328238 C 280.23598 25.876473 279.913291 25.826603 279.531931 25.55965 Q 279.109501 25.263363 278.725208 25.049214 Q 272.133544 21.396957 270.687309 20.569699 C 270.599302 20.519829 270.484894 20.531563 270.408622 20.599035 L 260.484457 29.599135 C 260.343647 29.72821 260.367116 29.954093 260.531394 30.0509 Q 263.890297 31.995837 265.233858 32.846563 Q 269.604832 35.604091 272.734919 37.67517 Q 273.412567 38.124001 274.090215 38.470159 Q 274.996678 38.933658 275.48658 39.136072 Q 282.104645 41.896533 286.452151 43.568651 Z M 224.739275 32.23932 C 226.220713 31.324056 227.51147 30.487997 228.743557 29.874887 Q 228.896101 29.798615 228.816895 29.649005 Q 228.576345 29.194306 228.150982 28.836414 Q 222.841275 24.348098 219.121546 20.663573 Q 219.015939 20.557965 218.880996 20.619569 Q 217.886526 21.065467 216.364019 21.957264 Q 215.331413 22.558639 209.75182 25.436442 C 208.927496 25.861805 208.654677 26.580522 208.211712 27.155496 Q 207.977029 27.460584 207.560466 28.117697 Q 202.221424 36.575092 195.917247 46.150166 Q 195.659095 46.54326 196.116728 46.434719 Q 196.946919 46.232305 197.882719 45.724803 Q 198.067532 45.622129 202.115816 43.7916 Q 203.415375 43.204892 204.876277 42.638719 C 206.953224 41.834929 208.619474 41.019405 211.016176 39.980932 Q 211.042578 39.969198 213.251533 39.124338 Q 214.439617 38.66964 215.507425 37.977324 C 216.915525 37.06206 218.754854 35.970783 219.611448 35.40461 Q 223.143429 33.075379 223.829878 32.740956 Q 224.296311 32.51214 224.739275 32.23932 Z M 228.4062 31.608609 C 228.048308 31.90783 227.599476 31.992903 227.112509 32.309725 C 225.440391 33.392202 222.885278 34.812035 219.177284 37.01219 C 218.256152 37.560762 217.660644 38.097599 216.789382 38.47896 Q 215.926922 38.851519 216.859787 38.951259 Q 219.16555 39.194743 221.02248 39.570236 Q 221.145689 39.596638 227.238651 40.646845 Q 227.70215 40.726051 227.886963 40.75832 Q 235.041867 41.940536 243.440591 43.398506 Q 243.716344 43.445442 243.936359 43.442509 C 244.077169 43.439575 244.147574 43.272364 244.053701 43.16969 Q 242.903753 41.890666 241.592461 40.781788 Q 240.228365 39.628907 240.213697 39.617173 Q 238.148485 37.804245 233.463622 33.70609 Q 230.885041 31.447265 230.043115 30.655209 C 229.958042 30.578937 229.8319 30.567203 229.738027 30.631741 Q 228.843297 31.24485 228.4062 31.608609 Z M 272.086607 38.740045 L 259.466519 30.801886 C 259.349177 30.728547 259.1937 30.749082 259.10276 30.85469 Q 258.527786 31.51767 257.767999 32.080909 C 256.785264 32.814294 255.802528 33.867435 254.869662 34.653624 Q 252.596169 36.566292 250.598428 38.490694 C 248.996715 40.033736 247.084048 41.544509 245.564474 42.946741 Q 245.388462 43.111019 245.447132 43.348636 Q 245.488202 43.512914 245.649547 43.465977 C 245.972236 43.372104 246.421068 43.113952 246.811228 43.12862 Q 247.8233 43.166756 248.559618 42.932073 C 249.046586 42.776595 249.63036 42.817665 250.246403 42.700323 Q 264.620748 40.010267 270.66384 39.124338 Q 271.772718 38.962994 271.851924 38.954193 Q 272.025003 38.936592 272.098341 38.778181 C 272.104208 38.763513 272.098341 38.748845 272.086607 38.740045 Z M 240.134492 44.079087 C 239.638724 43.920676 238.858402 43.914809 238.54158 43.859071 Q 235.860324 43.389705 233.683638 43.03768 C 232.448618 42.835266 230.600488 42.644586 229.075047 42.336564 Q 226.162042 41.749856 225.648672 41.676518 Q 223.994156 41.438901 222.354307 41.119145 Q 221.221961 40.89913 220.07788 40.726051 Q 218.352959 40.4679 217.795586 40.350558 C 216.05013 39.983865 215.082062 39.669977 213.603558 40.321223 Q 206.800679 43.3193 200.499436 45.950685 Q 196.489287 47.625737 195.213197 48.186043 C 194.864106 48.338587 194.749698 48.778618 194.981448 49.083706 L 217.088603 78.131617 C 217.156075 78.216689 217.285151 78.213756 217.346755 78.122816 Q 218.338291 76.650179 220.136551 74.364952 C 221.436109 72.719236 222.495117 71.140991 223.718403 69.718225 C 224.349114 68.987773 225.18224 67.761554 225.531331 67.298054 Q 229.603084 61.915009 230.49488 60.809064 Q 232.6657 58.121942 234.698643 55.329212 C 234.94506 54.991855 235.341088 54.677966 235.531768 54.402213 Q 237.69672 51.286794 238.644254 50.183783 Q 240.460115 48.062834 242.070628 45.78054 C 242.375716 45.352243 242.804013 45.064756 243.076832 44.642327 C 243.138437 44.542586 243.073899 44.41351 242.956557 44.407643 C 241.921018 44.357773 240.964684 44.343106 240.134492 44.079087 Z M 247.436072 44.40471 Q 246.998975 44.260966 246.600013 44.316704 C 246.418134 44.343106 246.335995 44.557254 246.45627 44.69513 C 246.74669 45.032487 247.148585 45.328775 247.436072 45.701334 Q 248.73563 47.373452 252.839653 52.738896 Q 253.053801 53.017583 253.529034 53.577889 C 254.112809 54.270204 254.796324 55.267608 255.177684 55.751642 Q 257.691727 58.955067 260.370049 62.478248 Q 260.622334 62.812672 260.965558 63.267371 Q 264.435935 67.914098 268.387413 73.077128 Q 268.780508 73.587564 268.95652 73.819313 Q 269.082662 73.986525 271.740449 77.47157 C 271.887126 77.66225 271.983933 77.99374 272.13061 78.149218 Q 272.391695 78.419104 272.594109 78.102281 Q 273.767525 76.251218 275.143355 74.587901 Q 275.865006 73.713706 278.194237 70.563084 C 278.531594 70.108385 278.998027 69.700623 279.361786 69.193121 Q 280.9899 66.925495 282.45667 65.109634 C 284.257864 62.874276 285.272868 61.419241 287.317546 58.820124 Q 289.063002 56.599435 292.087481 52.413273 Q 292.108016 52.386872 293.290232 50.870232 Q 294.050019 49.89923 294.698332 48.67301 Q 294.930081 48.238846 294.443114 48.174308 C 293.448644 48.045233 292.894205 47.417455 292.02001 47.238509 Q 291.107679 47.047829 289.0454 46.144299 Q 287.009524 45.255436 286.132395 44.929813 Q 284.410408 44.293235 283.116717 43.759331 Q 279.837019 42.404036 275.683127 40.66738 C 275.251896 40.488434 274.445173 40.288954 273.943538 39.972131 Q 273.820329 39.892926 273.673652 39.916394 L 247.708892 44.425245 Q 247.571015 44.448713 247.436072 44.40471 Z M 270.467293 80.87741 C 270.558233 80.372841 270.910258 79.926943 271.265216 79.618921 C 271.391358 79.51038 271.414826 79.325567 271.323887 79.187691 C 271.030533 78.735926 270.839853 78.342831 270.543565 77.982006 C 269.32908 76.500569 268.281806 74.822584 267.002783 73.329412 Q 266.468878 72.704568 265.97311 72.012253 Q 264.298059 69.674221 263.429731 68.597612 Q 262.053901 66.899093 261.364519 65.878221 C 260.384717 64.429052 258.967817 62.982817 257.911743 61.363503 Q 257.477579 60.694656 256.667922 59.685519 Q 255.277424 57.948863 255.26569 57.934195 Q 254.755254 57.282949 252.420156 54.170464 Q 252.138537 53.792037 251.566496 53.12319 C 250.827244 52.254862 249.926648 50.920102 249.527686 50.403799 Q 248.407074 48.95463 247.271794 47.517196 C 246.673352 46.760342 245.954635 45.610395 245.165513 44.759668 C 244.954298 44.533786 244.587605 44.551387 244.399859 44.797804 L 218.176947 78.935407 C 218.08894 79.046881 218.077206 79.202359 218.147611 79.325567 Q 219.423701 81.616662 219.907735 82.405784 Q 224.117365 89.287868 226.472997 92.989996 Q 227.708017 94.929065 229.588416 98.03275 Q 233.906587 105.167119 239.489113 113.979473 Q 242.281843 118.391516 244.388125 121.107974 Q 244.660944 121.459999 244.936696 121.107974 Q 245.772755 120.025498 246.676286 118.53526 C 246.893367 118.174434 247.213123 117.945618 247.418471 117.625863 Q 247.88197 116.910079 247.887837 116.898345 C 249.281269 115.091284 250.319742 113.161015 251.724907 111.060601 Q 252.555099 109.819713 253.36769 108.508421 Q 260.364182 97.214293 267.134792 86.468737 C 268.14393 84.86409 269.205871 83.001293 270.247278 81.329175 Q 270.443825 81.009419 270.467293 80.87741 Z M 293.82575 52.218662 C 293.888675 52.243128 293.997216 52.105252 294.071522 51.910347 C 294.143893 51.715091 294.155627 51.539079 294.092409 51.516608 C 294.029484 51.492142 293.920944 51.630018 293.846637 51.824923 C 293.774267 52.020179 293.762532 52.196192 293.82575 52.218662 Z M 196.075658 52.469011 Q 196.005253 52.504213 196.049256 52.568751 C 196.562626 53.352006 196.800242 54.255536 197.149334 55.000656 Q 198.976929 58.905197 198.99453 58.952134 C 199.513767 60.339698 200.165012 61.571785 200.748787 63.053222 Q 200.948268 63.551924 202.148085 66.274249 Q 203.421242 69.157918 210.649484 86.025772 C 210.939904 86.706353 211.271394 87.712558 211.638087 88.469411 Q 211.825833 88.853704 212.169057 88.686493 C 212.221861 88.660091 212.265864 88.619021 212.292266 88.566218 Q 213.87051 85.691349 215.589565 82.869283 Q 216.437358 81.475852 216.481361 81.423048 C 216.897923 80.903812 216.977129 80.287768 216.70431 79.818402 C 215.938656 78.501243 214.562826 77.125412 213.67983 75.796519 C 212.526949 74.06573 211.054312 72.464018 209.845694 70.627622 Q 209.496602 70.099585 208.132506 68.392265 Q 207.017761 66.9959 206.120098 65.749145 Q 204.38931 63.34951 204.101823 63.041488 Q 203.53565 62.431312 203.242296 61.994214 Q 202.858002 61.425108 202.846268 61.407506 Q 200.593309 58.359559 197.366416 54.270204 C 196.938119 53.724566 196.641831 53.055719 196.213534 52.442609 Q 196.190066 52.41034 196.154864 52.427941 L 196.075658 52.469011 Z M 285.267001 71.402076 Q 287.693039 65.901689 288.294414 64.628533 C 288.593635 63.997822 288.672841 63.434582 288.954461 63.01802 Q 289.151008 62.727599 289.491298 61.838737 C 290.22175 59.923135 291.415701 57.819787 292.193089 55.992192 Q 292.929407 54.270204 293.706795 52.706627 C 293.741998 52.633289 293.736131 52.545283 293.68626 52.477811 L 293.621722 52.392739 C 293.598254 52.363403 293.548384 52.363403 293.527849 52.395672 Q 291.741323 55.123864 289.734782 57.555769 C 288.801917 58.685181 288.130136 59.808727 287.100464 61.093618 Q 286.123595 62.31397 285.114457 63.704468 Q 284.178658 64.992292 283.075647 66.274249 Q 282.83803 66.552935 281.556073 68.304258 Q 280.775752 69.372067 280.007164 70.304933 Q 278.511059 72.123727 278.015291 72.851245 Q 277.164564 74.097999 276.064487 75.43276 Q 275.419108 76.213082 273.151482 79.190624 C 271.995667 80.701397 272.960802 81.153163 273.632582 82.323645 Q 275.518849 85.609209 277.472586 88.89184 C 277.53419 88.994514 277.689668 88.976913 277.727804 88.862505 C 277.903816 88.322734 277.871547 87.956041 278.109164 87.510143 Q 278.640135 86.501006 278.648935 86.486338 C 279.003894 85.635611 279.317783 84.735015 279.681541 83.931225 Q 282.574012 77.515573 285.267001 71.402076 Z M 239.028547 115.416907 C 238.714659 114.79793 238.204223 114.261092 237.902068 113.762391 Q 236.323824 111.145673 234.716244 108.637497 Q 231.275202 103.266185 229.080914 99.599261 C 228.300592 98.296769 227.042104 96.413436 226.159108 94.785322 C 225.950827 94.406895 225.642805 94.081272 225.413989 93.688178 Q 224.313912 91.801912 223.577593 90.745838 C 223.199167 90.200199 222.803139 89.431612 222.492184 88.965179 Q 221.873207 88.02938 221.653191 87.653887 Q 219.8872 84.620607 217.930529 81.616662 C 217.874792 81.531589 217.751583 81.537456 217.701713 81.622529 L 213.060853 89.660428 C 212.940578 89.868709 213.002183 90.132728 213.19873 90.270604 Q 213.451014 90.443683 214.275339 91.215204 Q 215.976792 92.805183 226.214846 102.896559 Q 227.458666 104.119845 227.969102 104.630281 Q 228.280058 104.938303 230.295399 106.874439 Q 231.492284 108.024387 234.04153 110.585367 C 235.654977 112.207615 236.963335 113.51304 238.647187 115.36997 Q 238.826133 115.569451 239.06375 115.628122 Q 239.207493 115.663324 239.134155 115.534249 Q 239.078418 115.440375 239.028547 115.416907 Z M 250.01172 115.991881 Q 250.043989 116.053485 250.090926 116.000682 Q 252.188407 113.530641 254.608577 111.251281 Q 257.457044 108.570025 257.483446 108.543623 Q 267.102523 99.141628 268.531157 97.668991 Q 270.634505 95.498172 274.436372 91.91632 Q 274.741461 91.628833 274.817733 91.564295 Q 275.043615 91.376549 276.275702 90.200199 C 276.343173 90.135661 276.375442 90.044722 276.363708 89.950848 C 276.269835 89.182261 275.87674 88.712895 275.562852 88.12912 Q 273.911269 85.048903 271.84899 81.951085 C 271.69938 81.728136 271.36789 81.754538 271.253482 81.995088 C 270.801717 82.954356 270.109401 83.849086 269.678171 84.605939 Q 268.771707 86.204718 267.627627 87.941374 C 267.357741 88.355003 267.169994 88.88304 266.86784 89.311337 Q 266.322201 90.088725 266.307534 90.112193 Q 263.517737 94.591708 261.619737 97.498846 C 261.402655 97.836203 261.253045 98.2645 260.994893 98.628259 Q 260.516726 99.302973 260.499125 99.329375 Q 259.187833 101.462058 255.908135 106.65149 Q 255.781993 106.853905 255.526775 107.349673 C 255.236355 107.915846 254.664314 108.628696 254.458967 108.945518 Q 253.438095 110.544298 252.405489 112.13721 Q 252.156138 112.524437 252.04173 112.770854 C 251.768911 113.360496 251.37875 113.700786 251.061927 114.313896 Q 250.660033 115.097151 249.979451 115.906808 Q 249.973584 115.912675 249.976518 115.921476 L 250.01172 115.991881 Z M 258.331239 137.832084 C 258.064287 137.600335 257.964547 137.221908 257.759199 137.022427 C 255.799594 135.121494 253.84879 133.158956 251.821714 131.266822 C 249.697831 129.28375 247.69129 127.165734 245.567407 125.235465 C 245.417797 125.097588 245.224183 125.047718 245.215383 125.144525 L 245.206582 125.232531 C 245.197781 125.311737 245.227117 125.388009 245.279921 125.44668 Q 249.310604 129.81472 251.563563 132.149818 C 253.394092 134.044885 255.039807 136.025024 256.855669 137.925958 C 257.149023 138.233979 257.58612 138.363055 258.052553 138.544935 Q 258.91208 138.873491 258.53952 138.025698 Q 258.53072 138.005163 258.331239 137.832084 Z M 231.193063 137.931825 Q 231.119724 138.418792 231.568556 138.536134 Q 231.791505 138.597738 231.985118 138.468663 Q 232.466219 138.148907 232.653965 138.031565 C 233.261208 137.644338 233.601499 137.072298 234.132469 136.614665 Q 234.543165 136.259707 235.000797 135.711135 Q 238.512244 131.498572 242.143967 127.53536 Q 242.733608 126.889981 243.748613 125.232531 Q 243.751546 125.229598 243.748613 125.226664 Q 243.731012 125.191462 243.707543 125.159193 Q 243.66354 125.100522 243.616604 125.156259 Q 242.035426 127.001456 240.137425 128.831984 Q 236.667048 132.173286 236.625978 132.214356 Q 235.068269 133.757398 233.460689 135.253503 C 232.6745 135.983954 232.25207 136.544261 231.345607 137.603268 Q 231.222398 137.747012 231.193063 137.931825 Z M 245.015902 126.866513 L 244.825222 126.488086 Q 244.725482 126.291539 244.593472 126.467551 Q 241.91515 130.058204 238.981611 133.587252 C 238.086881 134.660928 237.218553 135.82261 236.188881 137.060564 C 235.675511 137.67954 234.906924 138.324919 234.440491 139.27832 C 234.387687 139.380993 234.425823 139.507136 234.52263 139.56874 Q 237.561777 141.519544 240.735867 144.218401 Q 241.06149 144.494153 241.266838 144.73177 C 241.706869 145.248073 242.1469 145.280342 242.510659 145.949189 C 242.666137 146.239609 243.208842 146.606302 243.47286 147.00233 Q 243.924625 147.677044 245.015902 149.035273 C 245.121509 149.164349 245.323924 149.149681 245.406063 149.005937 Q 246.368264 147.33382 246.673352 146.67084 Q 246.761358 146.48016 246.881633 146.400954 C 247.371534 146.084132 247.579816 145.48569 248.028647 145.192336 C 248.577219 144.834444 248.808969 144.417881 249.328205 144.042388 Q 249.618626 143.834107 250.067458 143.441013 Q 252.19134 141.584082 252.757513 141.22619 Q 254.209616 140.299191 255.462237 139.225516 C 255.544376 139.152177 255.550243 139.028969 255.473971 138.949763 Q 255.119013 138.583071 254.907798 138.368922 Q 253.634642 137.078165 247.151519 129.582971 Q 246.732023 129.093069 246.136514 128.28928 Q 245.681816 127.670303 245.027636 126.881181 C 245.024703 126.875313 245.018836 126.869446 245.015902 126.866513 Z M 233.567088 138.685334 C 233.645502 138.718013 233.774578 138.583071 233.856746 138.386465 C 233.938856 138.189976 233.941789 138.00223 233.864725 137.970372 C 233.786312 137.937692 233.657236 138.072635 233.575068 138.269241 C 233.492958 138.465729 233.490024 138.653476 233.567088 138.685334 Z M 232.34301 139.624477 L 244.490798 151.874939 C 244.555336 151.939477 244.655077 151.939477 244.719615 151.874939 L 244.787086 151.807468 Q 244.857491 151.737063 244.810554 151.649057 Q 243.197107 148.554172 240.867877 146.295347 C 240.386776 145.828914 239.58592 145.403551 239.016813 144.890181 C 237.412167 143.441013 235.602173 142.211859 233.944723 140.745089 Q 233.777511 140.598412 233.164401 140.234654 Q 232.756639 139.994103 232.469152 139.589275 Q 232.463285 139.580474 232.451551 139.580474 L 232.363545 139.580474 Q 232.296074 139.580474 232.34301 139.624477 Z M 249.542354 146.072398 Q 248.577219 146.808716 247.430205 148.184546 C 246.840564 148.888596 246.544276 149.80386 246.17465 150.504976 Q 245.089241 152.564321 246.644017 150.8394 Q 248.556685 148.718451 251.18807 146.113467 Q 252.071065 145.242206 254.010135 143.083121 Q 254.896064 142.097451 256.890871 140.093844 Q 257.342636 139.639145 256.747128 139.844493 C 255.799594 140.173049 255.12488 141.190988 254.397362 141.65742 Q 253.866392 141.997711 253.23568 142.637223 Q 251.176336 144.722969 250.789108 144.981121 Q 250.378413 145.25394 250.131995 145.497424 Q 249.586357 146.040129 249.542354 146.072398 Z" style="fill:#393131;"/>
	</g>
	<g id="surface4">
	</g>
</svg>
