<?xml version="1.0" encoding="utf-8"?>
<svg xmlns="http://www.w3.org/2000/svg" width="490pt" height="280pt" viewBox="0 0 490 280" version="1.1" xmlns:xlink="http://www.w3.org/1999/xlink">
	<g id="surface2">
		<path stroke-opacity="0.847" vector-effect="non-scaling-stroke" d="M 321.459588 106.249813 Q 324.300558 106.286655 327.17837 106.60391 Q 327.778085 106.669408 327.229541 106.898651 Q 327.071936 106.962102 326.592983 107.0276 Q 326.026017 107.105378 325.219575 107.799246 C 324.390618 108.509489 321.523039 108.726451 320.597882 108.757153 Q 319.304299 108.802182 318.006623 108.841072 Q 316.375317 108.892242 315.396942 108.890195 Q 309.295407 108.890195 303.191825 108.943412" style="fill:none;stroke-width:0.50;stroke:#0f1618;"/>
		<path vector-effect="non-scaling-stroke" d="M 182.522249 121.850585 L 180.301462 126.200052" style="fill:none;stroke-width:0.50;stroke:#745b37;"/>
		<path vector-effect="non-scaling-stroke" d="M 192.539328 87.611577 Q 193.396941 87.883803 194.264788 88.133513 Q 196.673881 88.829428 199.205783 88.970658" style="fill:none;stroke-width:0.50;stroke:#745b37;"/>
		<path vector-effect="non-scaling-stroke" d="M 239.931125 90.606058 L 238.314146 90.679743" style="fill:none;stroke-width:0.50;stroke:#745b37;"/>
		<path vector-effect="non-scaling-stroke" d="M 199.725672 88.870364 C 200.421587 88.831475 200.976272 88.907207 201.463412 88.330007 Q 202.630093 86.944318 203.831569 85.736701 C 210.025211 79.524638 216.804239 73.96346 224.369242 69.425687 Q 224.528893 69.331533 224.649655 69.198491 C 224.780651 69.057261 224.784744 68.8403 224.657842 68.697023 Q 224.205498 68.177134 223.519817 68.0707 Q 222.26103 67.8783 221.692017 67.835317 C 218.662741 67.608121 215.45744 67.376832 212.587814 66.914253 Q 203.778352 65.499909 195.198132 62.611862 C 187.866465 60.145458 181.218432 57.312676 173.751676 54.117608 Q 170.679417 52.803557 167.684937 51.9746 C 167.3554 51.884541 167.132298 51.733077 167.001303 51.452664 Q 165.775265 48.797954 166.858026 46.347924 C 168.200732 43.310461 171.944344 42.145827 174.914263 41.875649 Q 178.553488 41.544066 181.611419 41.89407 Q 184.214959 42.192904 185.944512 42.864257 Q 185.960887 42.872444 185.973168 42.866304 Q 185.985449 42.86221 185.987495 42.81718 Q 185.987495 42.808993 185.981355 42.804899 Q 185.387781 42.430334 184.524027 42.088517 Q 180.358773 40.446976 176.052288 39.591411 Q 170.431753 38.473853 164.952448 39.38673" style="fill:none;stroke-width:0.50;stroke:#745b37;"/>
		<path vector-effect="non-scaling-stroke" d="M 191.286682 106.305076 L 193.33963 106.382855 Q 193.380566 106.384902 193.38466 106.343966 L 193.390801 106.286655 Q 193.392847 106.255953 193.364192 106.253906 L 190.695154 105.989868 Q 190.560065 105.97554 190.488427 106.094255 L 190.424975 106.196596 Q 190.349244 106.317357 190.49252 106.31531 L 191.022643 106.300983" style="fill:none;stroke-width:0.50;stroke:#745b37;"/>
		<path d="M 321.459588 106.249813 Q 324.300558 106.286655 327.17837 106.60391 Q 327.778085 106.669408 327.229541 106.898651 Q 327.071936 106.962102 326.592983 107.0276 Q 326.026017 107.105378 325.219575 107.799246 C 324.390618 108.509489 321.523039 108.726451 320.597882 108.757153 Q 319.304299 108.802182 318.006623 108.841072 Q 316.375317 108.892242 315.396942 108.890195 Q 309.295407 108.890195 303.191825 108.943412 L 284.639556 108.959787 Q 284.432828 108.961833 284.488092 109.160374 Q 284.862658 110.470331 285.253598 111.682042 Q 287.814155 119.601142 288.35656 121.291806 Q 289.236687 124.036576 289.586691 125.15618 Q 289.691079 125.491856 289.646049 125.999465 C 289.639908 126.064963 289.598972 126.12432 289.537568 126.152975 C 289.027913 126.388358 288.796623 126.243035 288.551006 125.766129 Q 286.473496 121.721636 285.554479 119.838572 Q 283.413518 115.454309 280.550033 109.193123 Q 280.505003 109.09897 280.406757 109.062127 C 279.997395 108.914757 279.557331 109.017097 279.229842 109.017097 Q 234.621704 109.017097 190.015614 109.023238 C 189.843682 109.023238 189.403618 108.945459 189.192797 108.988442 C 189.121159 109.00277 189.063848 109.041659 189.035193 109.096923 L 182.522249 121.850585 L 180.301462 126.200052 Q 179.871632 126.314673 179.679233 126.261456 C 179.497067 126.212333 179.376305 126.036307 179.394726 125.848001 Q 179.466364 125.164367 179.701747 124.599448 Q 180.02719 123.81552 180.029237 123.807333 Q 182.448564 116.676253 183.402377 114.001075 Q 183.860862 112.711586 183.963202 112.33088 Q 184.065542 111.95222 184.194491 111.651339 C 184.536308 110.84285 184.749176 110.011846 185.115555 109.182889 C 185.166725 109.066221 185.078712 108.937272 184.95181 108.941365 Q 183.768755 108.984348 183.038045 108.998676 Q 182.383066 109.010957 161.253865 109.045753 C 160.275491 109.047799 159.555014 108.212702 159.806772 107.238421 Q 159.931627 106.755374 160.418768 106.458587 Q 160.740116 106.26414 161.32141 106.262093 Q 172.394642 106.239579 186.020244 106.266187 C 186.128725 106.266187 186.222878 106.190455 186.24744 106.084021 Q 186.429606 105.255064 186.791891 104.426107 C 186.902419 104.174349 186.937214 103.893936 187.033414 103.627851 Q 188.114129 100.641558 189.027005 98.01755 Q 189.323793 97.164031 189.67175 96.032146 Q 189.872337 95.375121 190.15275 94.640317 Q 190.271465 94.325108 190.467958 93.706972 Q 190.650124 93.135913 190.785214 92.779768 Q 191.071767 92.028589 191.812711 89.883534 C 192.03786 89.232649 192.396052 88.450769 192.539328 87.611577 Q 193.396941 87.883803 194.264788 88.133513 Q 196.673881 88.829428 199.205783 88.970658 L 195.460124 96.586831 C 195.396673 96.71578 195.468311 96.869291 195.607494 96.906133 Q 197.594945 97.430116 199.971289 97.984801 C 200.18211 98.033925 200.448195 98.01755 200.66925 98.087142 Q 201.078612 98.216091 201.168672 98.230418 C 201.987395 98.369601 203.117233 98.533346 204.300288 98.811712 C 204.623684 98.887444 205.157901 98.78715 205.481296 98.932473 Q 205.692118 99.028673 205.843581 99.040954 Q 209.306781 99.360256 209.828717 99.425754 C 210.651534 99.528095 211.525521 99.450316 212.391321 99.546516 Q 213.459755 99.665231 214.286665 99.673418 Q 217.559512 99.706167 220.953119 99.654997 C 221.3502 99.650903 221.841434 99.50558 222.252843 99.501486 C 223.558706 99.485112 224.598485 99.554703 225.771306 99.366397 C 226.55728 99.239495 227.306412 99.282478 228.254084 99.145341 C 228.82105 99.063469 229.465795 99.122827 230.061416 98.952941 Q 230.300892 98.885397 230.761424 98.854695 Q 231.721377 98.789197 231.811437 98.776916 Q 234.067019 98.457614 236.302134 98.023691 Q 238.739883 97.550878 240.911546 96.918414 Q 240.919733 96.918414 242.393435 96.451742 Q 243.617426 96.062848 244.77592 95.837699 Q 246.401086 95.522491 247.819524 95.700563 Q 249.759898 95.942087 250.818098 96.392384 Q 252.20788 96.985959 253.11257 98.379835 Q 253.523978 99.010252 253.616084 99.683652 C 253.781876 100.895362 253.814625 102.037481 253.192395 103.116149 Q 252.123961 104.970557 250.007562 105.654191 Q 248.562515 106.12291 247.215715 106.282562 Q 247.172732 106.286655 247.166592 106.329638 L 247.166592 106.331685 Q 247.160451 106.372621 247.215715 106.374668 C 248.675089 106.401276 250.08534 106.274374 251.567229 106.270281 Q 266.18758 106.245719 279.170485 106.251859 C 279.281012 106.251859 279.342416 106.12291 279.270778 106.036945 C 278.986272 105.693081 278.849136 105.218221 278.707906 104.931668 Q 273.789426 95.000555 270.90752 88.080296 Q 270.801086 87.824445 270.776524 87.69959 Q 270.706933 87.316837 270.32418 87.384382 Q 267.761576 87.842867 265.061836 88.199011 Q 261.179041 88.710713 261.003015 88.735275 Q 258.385147 89.09142 254.127786 89.551951 Q 253.978369 89.568326 253.826906 89.603122 Q 253.646787 89.646105 253.526025 89.648151 C 252.723676 89.664526 252.052323 89.670666 251.2336 89.799615 C 250.476281 89.920377 249.768085 89.836458 249.070123 90.006343 C 248.439707 90.157807 247.373319 90.061607 246.65489 90.172134 Q 245.678562 90.323598 244.585567 90.276522 C 244.223282 90.260147 243.875324 90.470968 243.468009 90.466875 C 242.551039 90.460734 241.226754 90.407517 239.931125 90.606058 L 238.314146 90.679743 Q 237.280508 90.651087 236.255057 90.73296 Q 234.756794 90.853721 234.206202 90.863956 Q 225.1982 91.042028 216.384644 90.892611 Q 215.94458 90.88647 214.814742 90.749334 C 214.000112 90.651087 213.10361 90.751381 212.188687 90.583543 C 211.482538 90.456641 210.872589 90.477109 210.193049 90.466875 Q 209.996555 90.464828 209.675206 90.362488 Q 209.417309 90.282662 209.136896 90.276522 Q 208.709113 90.266288 208.32636 90.20693 Q 205.896798 89.826224 205.149714 89.723883 Q 204.011688 89.570373 203.22162 89.38616 Q 202.310791 89.173292 201.309901 88.982939 Q 201.180952 88.958377 201.062238 88.90516 Q 200.968084 88.864224 200.865744 88.864224 L 199.725672 88.870364 C 200.421587 88.831475 200.976272 88.907207 201.463412 88.330007 Q 202.630093 86.944318 203.831569 85.736701 C 210.025211 79.524638 216.804239 73.96346 224.369242 69.425687 Q 224.528893 69.331533 224.649655 69.198491 C 224.780651 69.057261 224.784744 68.8403 224.657842 68.697023 Q 224.205498 68.177134 223.519817 68.0707 Q 222.26103 67.8783 221.692017 67.835317 C 218.662741 67.608121 215.45744 67.376832 212.587814 66.914253 Q 203.778352 65.499909 195.198132 62.611862 C 187.866465 60.145458 181.218432 57.312676 173.751676 54.117608 Q 170.679417 52.803557 167.684937 51.9746 C 167.3554 51.884541 167.132298 51.733077 167.001303 51.452664 Q 165.775265 48.797954 166.858026 46.347924 C 168.200732 43.310461 171.944344 42.145827 174.914263 41.875649 Q 178.553488 41.544066 181.611419 41.89407 Q 184.214959 42.192904 185.944512 42.864257 Q 185.960887 42.872444 185.973168 42.866304 Q 185.985449 42.86221 185.987495 42.81718 Q 185.987495 42.808993 185.981355 42.804899 Q 185.387781 42.430334 184.524027 42.088517 Q 180.358773 40.446976 176.052288 39.591411 Q 170.431753 38.473853 164.952448 39.38673 Q 165.032273 37.354249 165.333154 35.172352 Q 165.66269 32.779633 165.722048 32.304773 Q 165.916494 30.734872 166.09866 29.435148 Q 166.706562 25.089775 166.892822 23.804379 Q 167.961256 16.503414 168.454536 12.952202 Q 168.75337 10.813288 169.281447 8.666186 Q 169.391975 8.215888 169.899583 7.079909 Q 170.761289 5.15591 172.605463 4.328999 Q 173.13354 4.093616 173.85811 4.093616 Q 189.976724 4.107944 230.530135 4.101804 C 231.557633 4.101804 232.43162 4.286016 233.340403 4.588944 Q 233.833683 4.752689 234.245092 5.055616 Q 236.00944 6.353293 237.030798 7.955943 Q 237.962095 9.415318 238.713274 10.950424 Q 244.675626 23.116652 249.000532 31.983425 C 249.401706 32.804195 249.557264 33.256539 249.905221 33.831692 C 250.179493 34.288131 250.27774 34.842816 250.580668 35.266505 Q 250.807864 35.58376 250.856987 35.708616 Q 251.151727 36.435232 251.411672 36.926466 Q 251.673663 37.4177 251.870157 37.896653 C 252.05437 38.346951 252.34297 38.823858 252.514902 39.180002 Q 256.651501 47.709052 258.022862 50.541834 Q 259.353288 53.290698 259.852709 54.543344 Q 260.0185 54.958846 260.315288 56.004765 Q 260.562951 56.876706 260.630496 57.498935 Q 261.058279 61.400152 258.510003 64.296385 Q 258.311462 64.523581 258.60825 64.478551 L 263.156257 63.801058 Q 263.240176 63.788777 263.260645 63.704858 Q 263.921764 60.93962 265.012712 58.747488 Q 266.705423 55.34774 269.278261 52.316417 Q 270.268916 51.151783 271.793788 49.835686 Q 273.685039 48.206426 274.552885 47.616945 Q 276.270157 46.450265 278.57691 45.197618 Q 278.918727 45.013405 280.097689 44.493516 C 280.969629 44.110763 282.060578 43.740291 282.797429 43.431223 C 283.485156 43.142623 284.11762 43.046423 284.79716 42.794665 Q 285.212662 42.641155 285.597462 42.551095 Q 288.573521 41.851087 288.982883 41.787636 Q 291.469755 41.408976 294.024171 41.417164 Q 297.923341 41.429444 301.795902 41.877695 Q 305.991859 42.364836 310.605365 43.420989 Q 311.338122 43.588827 313.706279 44.346146 C 316.414206 45.211946 319.41278 46.773661 320.730925 49.424277 C 320.970401 49.909371 321.224205 50.290077 321.324499 50.697392 Q 321.825967 52.740106 321.537367 54.762353 Q 321.324499 56.262663 320.391154 58.063854 Q 319.113946 60.526165 317.314802 62.654845 Q 313.061534 67.689993 307.414391 71.881856 Q 302.422225 75.588626 297.544682 78.335443 Q 293.090827 80.844829 287.605381 83.014446 Q 287.327015 83.124974 286.231973 83.509774 C 285.556526 83.745157 285.014122 84.021476 284.408267 84.166799 C 283.49539 84.387854 282.459705 84.809497 281.376944 85.077629 C 280.593016 85.272076 278.851182 85.832901 277.590349 85.965944 C 277.438885 85.982318 277.338591 86.131735 277.383621 86.279105 L 283.352114 106.000102 Q 283.429892 106.255953 283.698024 106.255953 L 321.459588 106.249813 Z M 191.022643 106.300983 Q 191.161826 106.358293 191.286682 106.305076 L 193.33963 106.382855 Q 193.380566 106.384902 193.38466 106.343966 L 193.390801 106.286655 Q 193.392847 106.255953 193.364192 106.253906 L 190.695154 105.989868 Q 190.560065 105.97554 190.488427 106.094255 L 190.424975 106.196596 Q 190.349244 106.317357 190.49252 106.31531 L 191.022643 106.300983 Z" style="fill:#192529;"/>
		<path d="M 199.725672 88.870364 L 199.205783 88.970658 Q 196.673881 88.829428 194.264788 88.133513 Q 193.396941 87.883803 192.539328 87.611577 Q 177.816637 82.162974 167.519145 70.172772 C 163.843078 65.890849 160.84655 61.248688 158.834538 56.029327 C 157.688325 53.049174 157.340368 49.592115 158.535704 46.675414 Q 159.978704 43.158997 163.024354 40.799027 Q 163.026401 40.796981 164.012963 40.129721 Q 164.481682 39.814513 164.952448 39.38673 Q 170.431753 38.473853 176.052288 39.591411 Q 180.358773 40.446976 184.524027 42.088517 Q 185.387781 42.430334 185.981355 42.804899 Q 185.987495 42.808993 185.987495 42.81718 Q 185.985449 42.86221 185.973168 42.866304 Q 185.960887 42.872444 185.944512 42.864257 Q 184.214959 42.192904 181.611419 41.89407 Q 178.553488 41.544066 174.914263 41.875649 C 171.944344 42.145827 168.200732 43.310461 166.858026 46.347924 Q 165.775265 48.797954 167.001303 51.452664 C 167.132298 51.733077 167.3554 51.884541 167.684937 51.9746 Q 170.679417 52.803557 173.751676 54.117608 C 181.218432 57.312676 187.866465 60.145458 195.198132 62.611862 Q 203.778352 65.499909 212.587814 66.914253 C 215.45744 67.376832 218.662741 67.608121 221.692017 67.835317 Q 222.26103 67.8783 223.519817 68.0707 Q 224.205498 68.177134 224.657842 68.697023 C 224.784744 68.8403 224.780651 69.057261 224.649655 69.198491 Q 224.528893 69.331533 224.369242 69.425687 C 216.804239 73.96346 210.025211 79.524638 203.831569 85.736701 Q 202.630093 86.944318 201.463412 88.330007 C 200.976272 88.907207 200.421587 88.831475 199.725672 88.870364 Z" style="fill:#ce9145;"/>
		<path d="M 239.931125 90.606058 L 238.314146 90.679743 L 239.931125 90.606058 Z" style="fill:#ce9145;"/>
		<path fill-opacity="0.694" d="M 342.891717 106.292796 L 342.891717 106.696017 L 342.818032 108.767387 Q 342.813938 108.869727 342.711598 108.869727 L 303.191825 108.943412 Q 309.295407 108.890195 315.396942 108.890195 Q 316.375317 108.892242 318.006623 108.841072 Q 319.304299 108.802182 320.597882 108.757153 C 321.523039 108.726451 324.390618 108.509489 325.219575 107.799246 Q 326.026017 107.105378 326.592983 107.0276 Q 327.071936 106.962102 327.229541 106.898651 Q 327.778085 106.669408 327.17837 106.60391 Q 324.300558 106.286655 321.459588 106.249813 L 342.891717 106.292796 Z" style="fill:#000000;"/>
		<path d="M 182.522249 121.850585 Q 181.889785 123.269023 181.159075 124.634244 Q 181.097671 124.746818 180.804977 125.448873 Q 180.614624 125.903265 180.301462 126.200052 L 182.522249 121.850585 Z" style="fill:#ce9145;"/>
		<path d="M 191.286682 106.305076 Q 191.155686 106.323498 191.022643 106.300983 L 190.49252 106.31531 Q 190.349244 106.317357 190.424975 106.196596 L 190.488427 106.094255 Q 190.560065 105.97554 190.695154 105.989868 L 193.364192 106.253906 Q 193.392847 106.255953 193.390801 106.286655 L 193.38466 106.343966 Q 193.380566 106.384902 193.33963 106.382855 L 191.286682 106.305076 Z M 191.303056 106.21297 Q 191.317384 106.21297 191.331711 106.210923 Q 191.317384 106.208876 191.303056 106.208876 C 191.301009 106.208876 191.301009 106.208876 191.301009 106.210923 C 191.301009 106.21297 191.301009 106.21297 191.303056 106.21297 Z" style="fill:#ce9145;"/>
		<path d="M 162.518793 140.892041 C 162.784878 140.816309 163.085759 140.847011 163.339563 140.781513 Q 164.023197 140.603441 164.727299 140.505194 Q 165.120286 140.44993 168.321494 139.913667 Q 169.979409 139.637348 171.629136 139.297577 Q 172.441719 139.131786 175.411637 138.683535 C 175.794391 138.624178 176.271297 138.478854 176.645863 138.421544 Q 177.23125 138.329437 181.760836 137.576212 Q 187.684299 136.591697 194.279115 135.57648 C 194.762162 135.500748 195.042575 135.523263 195.392579 135.42297 Q 195.726209 135.328816 196.121243 135.302208 C 196.522417 135.275599 196.772128 135.120042 197.099617 135.115948 C 197.672723 135.111855 198.448464 134.915361 198.958119 134.85191 C 200.094097 134.708634 200.865744 134.663604 201.815463 134.442548 C 202.486816 134.286991 203.199105 134.280851 203.956424 134.149855 Q 205.19065 133.936987 205.516092 133.912425 Q 206.343003 133.848974 207.163773 133.728212 Q 208.395951 133.548093 213.384023 132.917676 Q 213.541627 132.899255 213.758589 132.868553 Q 217.004826 132.430536 220.380013 132.068251 Q 220.470073 132.060064 221.597864 131.886085 C 222.103426 131.808306 222.723609 131.816494 223.241451 131.736668 Q 224.96691 131.470583 226.786523 131.372336 C 227.048514 131.358009 227.349395 131.239294 227.656416 131.216779 Q 228.473093 131.151281 228.931578 131.0428 C 229.357314 130.942506 230.063463 130.993677 230.640663 130.903617 C 231.408216 130.782855 232.28425 130.813558 232.941275 130.684609 C 233.659705 130.543379 234.3679 130.594549 235.172296 130.488115 Q 237.16384 130.226124 238.2159 130.185187 Q 238.860644 130.158579 239.81241 130.025536 C 240.49195 129.929336 241.257457 130.005068 241.961559 129.872026 C 242.725018 129.728749 243.71158 129.777873 244.606035 129.677579 Q 248.020111 129.288685 251.604072 129.104473 C 251.984778 129.084005 252.410514 128.979617 252.832157 128.979617 C 254.062289 128.981664 255.384527 128.774937 256.481616 128.746281 C 257.347416 128.725813 258.102688 128.549788 258.85182 128.557975 Q 259.838381 128.566162 260.767632 128.455635 C 261.915892 128.318498 263.303628 128.400371 264.35364 128.242766 C 265.485525 128.072881 266.613316 128.189549 267.876197 128.04832 C 269.313056 127.886622 270.932082 127.956213 272.162213 127.849779 C 274.157851 127.675801 275.721613 127.769954 277.76228 127.643052 C 281.106765 127.436324 285.257692 127.532524 287.627896 127.458839 Q 289.384057 127.403575 290.665359 127.413809 C 293.436738 127.434277 294.851082 127.421996 297.094384 127.444511 Q 299.802311 127.47112 309.663833 127.532524 Q 311.462977 127.544805 312.975568 127.641005 C 314.813602 127.75972 316.324147 127.665567 318.01481 127.860013 C 319.013653 127.974635 320.217176 127.880481 321.304031 128.044226 C 322.16369 128.173175 323.174814 128.066741 324.09383 128.253001 Q 324.599392 128.355341 325.321915 128.353294 C 325.899115 128.351247 326.251166 128.560022 326.809945 128.605052 Q 327.055562 128.62552 327.391238 128.774937 C 328.920204 129.458571 329.779864 130.545426 330.170804 132.101 Q 330.295659 132.594281 330.119634 133.277915 C 329.753255 134.684072 328.973421 135.451625 327.765804 136.180289 Q 327.266383 136.483216 326.721932 136.616259 Q 324.630094 137.130008 322.886214 136.92328 Q 321.842341 136.798425 319.494652 136.233506 Q 313.882304 134.880565 307.764395 133.265634 Q 306.933391 133.044578 306.15765 133.044578 Q 296.136478 133.028204 289.281717 133.060953 Q 288.276734 133.065047 286.592211 133.208323 C 285.462373 133.304523 284.056216 133.224698 282.993922 133.339319 C 281.620514 133.486689 280.081314 133.472361 278.404978 133.619732 Q 277.655846 133.685229 276.519868 133.679089 C 276.163723 133.677042 275.848515 133.826459 275.506698 133.836693 C 274.477153 133.867395 273.621588 133.867395 272.471281 134.029093 C 271.877707 134.113012 271.116294 134.074123 270.510439 134.151902 Q 270.043767 134.211259 267.57941 134.46097 C 267.260108 134.493719 266.553959 134.471204 266.072959 134.583778 C 265.362717 134.751617 264.566508 134.679978 263.91153 134.778225 Q 263.450998 134.84577 262.421453 134.927642 Q 261.326411 135.015655 259.467909 135.240804 C 258.907084 135.308348 258.32579 135.269459 257.893913 135.38408 C 257.314667 135.537591 256.674016 135.482327 256.154127 135.545778 Q 253.796204 135.836425 251.43828 136.116838 C 251.164008 136.149586 250.816051 136.125025 250.468093 136.219178 Q 250.068966 136.325612 249.837676 136.325612 Q 249.731242 136.325612 249.190885 136.39111 Q 245.782949 136.798425 241.265644 137.383812 Q 239.855393 137.568025 238.451283 137.791127 Q 236.697168 138.073586 235.307385 138.214816 Q 235.17639 138.227097 234.617611 138.341718 C 234.31059 138.403122 233.979007 138.386748 233.68222 138.439965 Q 231.86056 138.775641 229.59679 139.025352 Q 229.216084 139.066288 228.931578 139.14816 C 228.642978 139.230033 228.376893 139.195237 228.035076 139.262782 Q 226.323944 139.606646 225.361944 139.684424 Q 225.327149 139.688518 225.042642 139.733548 Q 218.206303 140.804028 215.678495 141.21953 Q 213.826133 141.524505 210.817325 142.044394 Q 210.577849 142.08533 210.457087 142.107845 Q 209.705909 142.251122 208.170802 142.472177 Q 207.726645 142.535628 206.916109 142.7137 C 206.340956 142.838556 205.700305 142.89996 205.231586 142.981832 Q 196.776221 144.457581 192.453362 145.223087 Q 188.687235 145.890347 188.656533 145.896487 Q 187.420261 146.150291 186.173755 146.348832 Q 185.119649 146.51667 183.690977 146.790942 Q 176.694986 148.133648 176.64791 148.141836 Q 175.784157 148.262597 175.139412 148.416108 Q 174.572446 148.54915 173.616587 148.706755 Q 172.247272 148.931904 171.618902 149.066993 Q 170.315085 149.349452 169.033783 149.578695 Q 168.575298 149.660567 166.440477 150.065835 Q 162.76441 150.765844 157.616687 151.770827 Q 156.939194 151.901822 156.566675 151.914103 C 156.102049 151.928431 155.674266 152.075801 155.150283 152.079895 C 154.634488 152.086035 153.580381 152.147439 152.894701 151.948899 C 152.464871 151.824044 152.008433 151.899775 151.488543 151.715563 C 150.827424 151.482227 150.217476 151.320529 149.722148 151.023742 C 147.679433 149.795657 146.825914 147.304691 148.092889 145.26607 Q 148.872723 144.007283 150.52245 143.266339 C 151.058714 143.026862 151.678897 142.947036 152.368671 142.762824 C 152.63885 142.691185 153.089147 142.699373 153.422777 142.525394 Q 153.512837 142.478317 153.615177 142.476271 C 154.071615 142.47013 154.528054 142.312526 154.910807 142.265449 C 156.40293 142.07919 158.195934 141.665735 159.329866 141.471288 Q 160.629589 141.252279 161.929312 141.047598 Q 162.019372 141.033271 162.518793 140.892041 Z" style="fill:#192529;"/>
	</g>
	<g id="surface4">
	</g>
</svg>
