<?xml version="1.0" encoding="utf-8"?>
<svg xmlns="http://www.w3.org/2000/svg" width="490pt" height="280pt" viewBox="0 0 490 280" version="1.1" xmlns:xlink="http://www.w3.org/1999/xlink">
	<g id="surface2">
		<path d="M 207.276621 21.628791 Q 207.65534 21.694747 207.423428 21.388368 Q 206.544714 20.226679 206.063869 18.841589 C 205.710682 17.818197 205.712809 16.107578 205.83834 15.201206 Q 205.902169 14.735254 206.255356 13.592714 Q 206.538331 12.673576 206.868115 12.052306 Q 209.089366 7.880015 213.161659 5.909825 Q 214.276539 5.371533 214.357389 5.335363 C 215.227592 4.954517 216.236091 4.799199 217.070124 4.580053 Q 217.787137 4.392821 218.544575 4.388566 C 219.757327 4.382183 220.689231 4.150271 221.714751 4.309843 Q 222.348786 4.409842 223.91898 4.409842 Q 224.316848 4.41197 224.640248 4.539628 C 224.933862 4.65452 225.257262 4.588564 225.633854 4.673669 Q 227.367876 5.065154 228.967858 5.726848 Q 229.544447 5.963016 230.110397 6.299182 C 230.54869 6.558753 231.121024 6.811942 231.593359 7.135342 Q 235.399698 9.731057 237.9252 13.728883 Q 238.278387 14.286323 239.048591 15.679924 C 239.469863 16.439489 239.699647 17.082035 240.065601 17.850111 Q 240.171982 18.071385 240.427299 18.713931 Q 242.295362 23.394728 243.048545 28.5202 Q 243.135778 29.115938 243.359179 30.901023 Q 243.444285 31.583994 243.542156 33.254187 Q 243.644282 35.024379 243.780451 36.798827 Q 243.852791 37.752007 243.891088 39.545603 Q 243.920875 40.909417 243.984704 41.377497 Q 244.11449 42.315784 244.093213 43.188114 C 244.044278 45.126389 244.31236 47.483809 244.310232 49.268894 Q 244.308104 52.824172 244.482571 59.015589 Q 244.484698 59.121971 244.382572 59.090057 Q 236.97202 56.760296 229.114664 55.468822 Q 219.838177 53.945436 215.855244 53.309273 Q 215.83184 53.305018 215.199933 53.164594 C 214.933978 53.10502 214.60845 53.109275 214.306326 53.028425 C 213.063787 52.698642 211.853163 52.575239 210.663815 52.177371 Q 209.734039 51.868864 209.102131 51.753972 C 208.712774 51.68376 208.436182 51.464613 208.004272 51.388019 Q 207.770232 51.345466 207.542575 51.264616 Q 206.52131 50.905046 204.538355 50.151863 C 203.823469 49.883781 203.055393 49.468892 202.421358 49.171023 Q 200.802228 48.415713 198.632041 46.924241 Q 196.763977 45.639149 195.004423 43.654066 Q 193.842735 42.343443 192.753386 40.254106 C 191.978927 38.764761 191.674675 37.396692 191.40021 35.637138 C 191.181064 34.222261 191.419359 32.435048 191.834247 30.860598 Q 192.18318 29.541465 192.70445 28.511689 Q 193.96401 26.013846 196.172495 24.160676 Q 196.4193 23.954296 197.891624 22.903244 Q 198.000133 22.826649 198.35332 22.656438 Q 198.538425 22.56495 198.815017 22.392612 Q 199.544796 21.941553 200.857547 21.622408 Q 200.934141 21.603259 201.140522 21.477729 C 201.200096 21.441559 201.26818 21.42241 201.338392 21.424538 C 201.823493 21.428793 202.25753 21.213902 202.693695 21.211774 C 203.685173 21.205391 205.076646 21.086244 206.193655 21.37773 Q 206.923433 21.569217 207.276621 21.628791 Z" style="fill:#1a1a18;"/>
		<path d="M 282.460852 21.550068 C 282.458724 21.622408 282.526808 21.675599 282.594893 21.658578 Q 283.267225 21.496877 283.89275 21.354326 Q 284.499126 21.218157 285.205501 21.201136 Q 286.754419 21.167094 287.196967 21.233051 Q 288.841628 21.475601 290.350121 22.037297 Q 290.967136 22.267081 291.377769 22.511759 C 291.867125 22.803245 292.250099 22.881968 292.72669 23.222389 Q 295.894738 25.492575 297.464932 28.713815 Q 297.47557 28.737219 298.098967 30.41805 Q 298.318114 31.01166 298.362794 31.486123 C 298.409602 31.986117 298.562792 32.401006 298.569175 32.941425 C 298.581941 34.188219 298.679812 35.381822 298.471304 36.458405 C 298.386198 36.896698 298.386198 37.283928 298.241519 37.700944 Q 297.567059 39.649857 297.320253 40.098788 Q 295.177725 44.013636 291.550108 46.668925 Q 288.877798 48.626349 285.83528 49.936972 Q 282.986377 51.162489 280.552363 51.841205 Q 278.654513 52.368858 278.431111 52.419922 Q 277.067297 52.730556 275.716249 53.06034 Q 274.809877 53.283741 273.5567 53.492249 Q 271.958846 53.762459 271.386513 53.883734 Q 270.150357 54.147561 268.646119 54.332665 Q 268.365271 54.366707 265.899342 54.747554 Q 258.710064 55.858179 254.563304 56.766679 C 251.61653 57.41348 248.878264 58.200705 245.525112 59.117716 Q 245.416602 59.147503 245.410219 59.036866 C 245.259157 56.785828 245.601706 52.87098 245.622983 49.543359 Q 245.633621 47.966782 245.748513 46.807221 C 245.869788 45.600852 245.793194 44.454057 245.903831 43.145561 C 246.039999 41.498772 245.974042 40.056236 246.163402 38.496679 C 246.288932 37.456266 246.180423 36.149898 246.346379 34.947785 Q 246.439995 34.279707 246.44425 33.513759 C 246.446377 32.732917 246.631482 32.03718 246.654886 31.296763 Q 246.674034 30.675494 246.83999 29.732952 Q 247.020839 28.686155 247.093178 28.175523 C 247.850616 22.735161 249.676127 17.433095 252.793112 12.905488 Q 255.671802 8.722558 260.037709 6.358756 Q 260.946209 5.8694 261.418544 5.711955 C 262.139812 5.471532 262.622785 5.177918 263.344053 5.033239 Q 264.856801 4.731115 265.450411 4.594946 Q 266.346146 4.388566 267.582302 4.392821 Q 270.709925 4.401332 270.897157 4.401332 Q 271.23545 4.403459 271.888634 4.503458 Q 272.435436 4.586436 272.880112 4.622606 Q 273.097131 4.639627 273.705634 4.839624 C 274.25882 5.022601 274.929024 5.039622 275.433274 5.280045 Q 276.424752 5.75238 276.580069 5.811954 C 277.550271 6.182162 278.577918 6.997046 279.254506 7.550231 Q 282.301279 10.045947 283.560839 13.80335 C 283.977855 15.043761 283.92892 15.743753 283.922537 17.316075 Q 283.918282 18.296915 283.6502 18.990524 Q 283.162971 20.241573 282.665105 21.045819 Q 282.462979 21.369219 282.460852 21.550068 Z" style="fill:#1a1a18;"/>
		<path d="M 203.144754 89.283322 C 201.983065 89.325875 200.740527 89.408852 199.689475 89.164174 C 199.191609 89.047155 198.753316 89.145026 198.319278 88.936518 C 197.691626 88.636521 196.506533 88.391843 195.712926 87.996103 Q 190.019375 85.153583 187.995994 79.03876 Q 187.791741 78.423874 187.627913 77.198356 C 187.440682 75.811138 187.510893 74.279241 187.519404 72.987767 C 187.523659 72.28352 187.625786 71.862248 187.781103 70.970769 C 188.364075 67.604851 190.451285 64.755948 193.059765 62.538953 Q 194.508684 61.304924 196.30228 60.321957 Q 199.191609 58.741124 202.331997 57.879432 C 202.634122 57.796455 202.942629 57.783689 203.176669 57.71986 Q 206.321313 56.873061 209.380852 56.713489 C 209.872335 56.687957 210.334032 56.558171 210.729772 56.547533 Q 215.195677 56.430513 219.067973 56.522001 Q 219.882857 56.54115 220.763698 56.679446 C 221.66156 56.821998 222.753036 56.641149 223.75728 56.885827 C 224.418974 57.0454 225.318964 56.868806 226.093423 57.05391 C 226.812563 57.226249 227.659362 57.153909 228.529565 57.270929 Q 228.678499 57.290078 229.927421 57.417736 Q 236.244369 58.064537 243.231521 59.613455 C 243.616623 59.69856 244.146404 59.724092 244.461294 59.798559 Q 244.567676 59.824091 244.574059 59.934728 Q 244.597463 60.447488 244.578314 60.692166 Q 244.282573 64.366591 243.754919 66.783584 Q 241.66771 76.338792 238.874125 85.291879 Q 237.742223 88.925879 235.833735 92.993917 Q 234.563537 95.704524 232.601858 98.681085 C 232.348669 99.066187 231.974206 99.478948 231.742293 99.800221 Q 229.193387 103.33635 226.033849 105.346965 Q 223.376433 107.038434 219.527542 107.759703 C 219.087122 107.84268 218.585 107.759703 218.106282 107.87034 Q 216.963742 108.134166 215.810564 107.902254 C 215.114827 107.76183 214.206327 107.932041 213.636121 107.646938 C 213.436124 107.544812 213.089319 107.566088 212.810599 107.4746 C 212.010608 107.217156 211.387211 107.080987 210.617007 106.719289 C 210.187225 106.517164 209.631912 106.289507 209.146812 106.015042 Q 206.063869 104.274637 204.10219 101.398075 Q 201.938385 98.227899 201.819238 94.504538 Q 201.778812 93.244978 202.242637 91.832229 C 202.510719 91.017344 202.938373 90.440755 203.361773 89.621616 C 203.442623 89.464171 203.323475 89.276939 203.144754 89.283322 Z" style="fill:#1a1a18;"/>
		<path d="M 286.02464 89.606723 Q 287.048032 91.155641 287.462921 93.015193 Q 287.52675 93.298169 287.509729 94.823683 Q 287.499091 95.787502 287.290583 96.613024 Q 286.477826 99.825752 284.382106 102.429977 Q 281.214058 106.366102 276.229009 107.410771 C 276.088585 107.440557 275.960927 107.56396 275.775823 107.568215 Q 275.431146 107.576726 275.107746 107.676725 C 274.458817 107.876723 274.02478 107.729916 273.360958 107.868212 Q 272.043952 108.146932 270.729073 107.880978 C 270.301419 107.795872 269.812063 107.817149 269.473769 107.798 Q 269.273771 107.787362 268.888669 107.657576 C 268.650374 107.578854 268.329101 107.612896 268.063147 107.540556 Q 267.129115 107.289495 265.969554 106.951201 Q 265.375944 106.778863 263.907876 105.953341 Q 262.597253 105.217179 261.995133 104.772503 Q 258.9207 102.510828 256.661152 99.325758 Q 254.835641 96.757703 253.399488 93.700292 Q 251.41866 89.489703 249.991017 84.423804 Q 248.771882 80.10045 248.199548 77.570692 C 247.782532 75.71965 247.431472 74.443069 247.152752 72.968618 Q 245.948511 66.624011 245.631493 64.451696 Q 245.4549 63.234689 245.335752 60.138981 Q 245.331497 60.032599 245.435751 59.998557 Q 245.842129 59.868771 246.16553 59.802814 Q 253.359063 58.326236 259.250484 57.645393 Q 259.848349 57.575181 259.93771 57.577308 Q 260.312173 57.585819 260.618553 57.498586 Q 260.92706 57.411353 261.731306 57.339013 C 263.241927 57.200717 264.92063 56.962422 265.846152 56.947528 Q 266.507846 56.934763 267.301454 56.81987 C 268.237613 56.683702 269.165262 56.787956 270.188654 56.604979 Q 270.658861 56.519874 271.614169 56.511363 Q 275.29285 56.473066 278.463026 56.526257 Q 279.141741 56.536895 279.74599 56.649659 C 280.533215 56.798594 281.224696 56.639021 281.960857 56.862423 C 282.477873 57.019868 283.154461 56.85604 283.711901 57.077314 C 283.990621 57.187951 284.460828 57.175185 284.831037 57.253908 Q 284.914015 57.270929 285.999108 57.487948 C 286.305488 57.549649 286.801227 57.739009 287.209733 57.794327 Q 287.492708 57.834752 287.696961 57.900709 Q 290.190549 58.713465 291.077773 59.087929 C 294.871345 60.690038 298.413857 63.419793 300.581917 66.924008 Q 300.890424 67.419747 301.039359 67.838891 C 301.18191 68.241014 301.48829 68.634626 301.596799 69.034622 Q 301.901051 70.15163 302.156367 71.14098 C 302.511682 72.513305 302.430832 73.826055 302.435087 75.551567 Q 302.437215 76.670703 302.228707 77.596224 Q 301.903178 79.040888 301.758499 79.613222 C 301.611692 80.189811 301.288292 80.56853 301.113826 81.123843 Q 301.073401 81.251501 300.818085 81.706815 Q 298.73513 85.400389 295.090492 87.538661 Q 294.579859 87.838658 294.2288 87.951423 C 293.822421 88.081208 293.535191 88.317376 293.045835 88.453544 Q 292.364992 88.642904 291.618192 88.874816 Q 290.911817 89.093963 290.458631 89.09609 C 289.977785 89.098218 289.403324 89.300343 288.879926 89.304598 Q 287.560792 89.317364 286.205489 89.281194 C 286.035278 89.276939 285.931024 89.464171 286.02464 89.606723 Z" style="fill:#1a1a18;"/>
		<path d="M 250.20378 123.997811 C 250.244206 124.095683 250.329311 124.180788 250.39314 124.291425 Q 250.416544 124.336105 250.791008 125.304179 Q 250.982495 125.799918 251.212279 126.208424 Q 251.482489 126.691397 251.639934 127.125435 C 251.846315 127.693513 252.148439 128.0467 252.390989 128.644566 Q 252.648433 129.278601 252.92077 129.702 C 253.203746 130.146676 253.356935 130.625394 253.6314 131.110495 Q 254.114373 131.957293 255.186701 133.963653 Q 255.235637 134.055141 255.486698 134.414711 C 255.63776 134.63173 255.705844 134.876408 255.816481 135.072151 Q 257.705821 138.438069 258.976019 140.42528 Q 258.984529 140.438046 259.386652 141.131654 C 259.588778 141.480587 259.867498 141.799732 260.035581 142.129515 Q 260.254727 142.561425 261.054718 143.752901 C 261.648328 144.637997 262.492999 146.018832 263.327032 147.044352 Q 263.431286 147.174137 263.671709 147.803917 Q 263.712134 147.906044 263.612135 147.950724 C 263.05895 148.20604 262.188747 148.699651 261.43982 148.98901 Q 259.810052 149.61879 259.195165 149.793256 Q 255.593079 150.816648 251.988866 151.216643 Q 250.469735 151.386854 248.952731 151.56132 Q 247.716575 151.701744 246.567653 152.242163 C 246.476164 152.284716 246.37191 152.218759 246.369783 152.118761 Q 246.365527 151.908125 246.471909 151.803871 C 246.963393 151.333663 247.086795 151.010263 247.520833 150.180485 C 247.956998 149.346452 248.042104 148.552845 248.335717 147.725195 C 248.391036 147.572005 248.346355 147.293285 248.38678 147.161371 C 248.574012 146.527336 248.797414 145.720963 248.791031 144.876292 C 248.788903 144.297575 248.993156 143.512478 248.997412 142.825252 Q 249.00805 141.284844 249.001667 139.427419 C 248.999539 138.497643 248.744223 137.616802 248.786776 136.706174 C 248.805924 136.274264 248.563374 135.795546 248.571885 135.348743 Q 248.580395 135.029598 248.461248 134.731729 C 248.291037 134.299819 248.429333 133.787059 248.22508 133.346639 C 248.114443 133.114727 248.129337 132.670051 248.059125 132.34665 Q 247.15488 128.165848 245.595324 121.680817 Q 243.518752 113.046875 242.50387 107.344814 Q 241.799623 103.385285 241.569838 100.189578 Q 241.495371 99.170441 241.454946 98.693851 Q 241.35282 97.478971 241.348564 97.204506 Q 241.314522 93.715185 241.354947 90.083313 Q 241.365586 89.172685 241.484733 88.393971 C 241.597498 87.664192 241.535796 86.962072 241.654944 86.123784 Q 241.825155 84.938692 242.201746 82.170639 Q 243.186841 74.921787 243.774068 72.519687 Q 244.354912 70.140992 244.786822 67.97506 Q 244.842141 67.698467 244.878311 67.977187 Q 244.922991 68.313353 244.95065 68.875049 Q 245.125116 72.313307 244.946395 75.515397 Q 244.844268 77.355801 244.461294 80.111088 Q 244.205978 81.962131 244.023001 84.079127 Q 243.765558 87.070582 243.720877 88.064187 Q 243.608113 90.545009 243.714494 98.251303 C 243.72726 99.219377 243.912364 99.840646 243.914492 100.719359 Q 243.914492 101.144886 244.027257 101.998068 C 244.108107 102.600188 244.088958 103.187415 244.250658 103.77677 Q 244.303849 103.972513 244.342147 104.283147 Q 244.388955 104.657611 244.880438 107.340559 Q 245.008096 108.036295 245.274051 109.036284 C 245.497452 109.880955 245.718726 111.14477 246.031489 112.06178 Q 246.29106 112.827729 246.420846 113.378786 C 246.716587 114.634091 247.15488 115.838332 247.557003 117.182997 Q 247.905935 118.351069 250.20378 123.997811 Z" style="fill:#1a1a18;"/>
	</g>
	<g id="surface4">
	</g>
</svg>
