<?xml version="1.0" encoding="utf-8"?>
<svg xmlns="http://www.w3.org/2000/svg" width="490pt" height="280pt" viewBox="0 0 490 280" version="1.1" xmlns:xlink="http://www.w3.org/1999/xlink">
	<g id="surface2">
		<path vector-effect="non-scaling-stroke" d="M 196.532949 29.285774 C 196.604854 29.420596 196.667771 29.571147 196.784617 29.694734 Q 199.61588 32.656325 202.925761 35.080874 Q 207.682732 38.566024 213.120554 41.399534 C 215.670938 42.727531 219.72234 44.588075 222.726624 46.253128 C 225.090504 47.565395 228.090295 49.255165 230.150825 51.007852 Q 231.925982 52.520105 233.352848 54.778375 Q 236.837998 60.285855 238.2761 62.508172 C 241.446665 67.402212 245.154271 71.885045 249.091074 76.197103 Q 253.886245 81.448421 258.899378 85.382978 Q 261.955344 87.78281 263.317047 88.443438 Q 264.586621 89.059126 266.440424 89.695036 Q 269.372803 90.703954 273.183773 92.007234 C 277.538525 93.497018 281.650597 95.236222 285.205405 98.170848 C 285.933444 98.770807 286.418803 99.32133 287.274923 100.213402 C 287.782753 100.741455 288.715272 100.975147 289.303995 101.415566 C 290.957812 102.653681 291.625181 105.004079 290.993765 106.932034 Q 290.23202 109.255467 287.789494 110.158775 C 287.733318 110.181245 287.67939 110.122822 287.704107 110.066646 Q 289.146703 107.01068 286.077254 105.837728 Q 284.866103 105.374839 284.077394 105.408545 Q 283.953807 105.415286 284.043689 105.498426 Q 284.19424 105.637742 285.486284 106.266912 C 286.068266 106.550038 287.068196 107.296054 287.263688 108.044316 Q 287.2929 108.154421 287.19403 108.100492 C 283.922349 106.327582 280.387764 104.905209 276.707122 104.581636 Q 272.406299 104.206382 267.993125 106.026479 C 266.703327 106.556779 265.222532 107.358971 263.829371 108.111727 C 262.667654 108.738649 261.744123 109.511629 261.137424 110.581217 Q 259.146552 114.08659 257.784849 116.553834 Q 255.793977 120.160323 256.05688 124.225208 Q 256.202937 126.487971 256.265854 127.341844 C 256.335512 128.249646 256.679308 128.791181 257.333195 129.373163 Q 262.775512 134.220015 263.977675 135.368249 C 265.35286 136.680517 266.128086 138.253441 265.759573 140.176902 Q 265.442741 141.819484 263.986663 142.718298 C 263.921499 142.758744 263.838359 142.702568 263.851841 142.626169 Q 263.98891 141.828472 263.917005 141.217279 Q 263.872064 140.835283 263.642867 141.145374 Q 262.726077 142.385737 260.881262 142.752003 Q 260.649817 142.796944 260.616112 142.565499 Q 260.548701 142.11834 260.750934 141.653204 Q 261.510431 139.92074 261.566607 139.785918 C 262.449692 137.651236 260.667794 136.941173 259.204975 136.058089 Q 259.110599 135.999666 259.047682 135.907538 Q 258.984765 135.817656 258.894884 135.770469 Q 258.773544 135.712046 258.726356 135.835633 C 258.054493 137.568096 257.023105 139.210678 255.337829 140.091515 C 255.146831 140.190384 254.91314 140.143197 254.778318 139.976916 L 253.724459 138.678131 C 253.641318 138.577014 253.630083 138.433204 253.693 138.318605 Q 255.299629 135.431166 255.265924 132.074098 Q 255.265924 132.058368 255.252442 132.04938 Q 255.22323 132.02691 255.191772 132.031404 Q 255.142337 132.035898 255.133349 132.085333 L 254.969315 132.867301 C 254.944598 132.986393 254.816517 133.053804 254.704165 133.002123 Q 253.14023 132.287566 252.126817 130.820253 Q 252.009972 130.649478 252.036936 130.853958 Q 252.088618 131.25393 252.241416 131.611209 C 252.277369 131.698843 252.216699 131.795465 252.122323 131.799959 C 250.41233 131.885347 249.540481 130.233777 248.98097 128.836122 Q 248.888841 128.604677 248.870865 128.854098 Q 248.828171 129.433833 248.603468 131.692102 C 248.53381 132.390929 248.724808 132.887524 249.109051 133.41333 Q 251.358332 136.489519 254.683942 140.20162 Q 255.22323 140.803825 255.564779 141.271208 C 257.366901 143.73171 257.470264 146.327034 254.576084 147.805583 Q 254.194089 148.001075 254.326664 147.592114 Q 254.546873 146.915757 254.596308 146.025932 Q 254.605296 145.87538 254.470474 145.945039 Q 252.778457 146.819135 250.75388 146.567467 C 250.637034 146.553985 250.578611 146.42141 250.646022 146.324787 C 251.765045 144.740628 253.34471 143.738451 251.5336 141.69365 Q 251.22351 141.343113 250.94263 141.138633 Q 249.675303 140.212855 248.924794 139.435381 Q 248.83716 139.343253 248.787725 139.460098 Q 248.08665 141.149868 247.030544 142.370007 Q 245.992415 143.572171 245.152024 143.920461 Q 243.446525 144.630524 241.590475 143.978884 C 241.460147 143.933943 241.424194 143.767663 241.520817 143.67104 L 242.853308 142.338549 C 242.925213 142.266644 242.929707 142.152045 242.86679 142.073399 Q 241.95 140.929659 241.974718 139.444369 C 241.990447 138.599484 242.174704 138.221983 242.961166 137.970315 C 244.185799 137.579331 245.381221 137.2243 245.367739 135.640141 Q 245.35201 133.885207 244.871145 132.590915 Q 244.731828 132.220155 244.428479 132.13252 C 244.284669 132.089827 244.13187 132.159485 244.064459 132.294307 Q 243.709428 133.008864 243.738639 133.763867 Q 243.745381 133.981829 243.592582 133.826784 C 242.574676 132.806631 242.093811 131.768501 241.466888 130.323658 C 241.406218 130.184342 241.208479 130.188836 241.152303 130.330399 Q 240.972541 130.775312 240.934341 131.182025 Q 240.887153 131.696596 240.66245 131.23146 C 239.100761 127.984496 238.422157 124.521816 237.786246 120.89735 Q 237.712094 120.470414 237.440203 120.807469 Q 231.155249 128.627147 227.94199 132.608892 Q 227.310574 133.388612 226.431983 134.303155 C 225.733156 135.031194 224.362465 134.008794 223.978222 133.404342 C 223.933282 133.334684 223.834412 133.332437 223.784977 133.397601 C 222.825494 134.70088 221.205382 134.898619 219.677399 134.667175 Q 219.124629 134.584035 219.014524 134.029017 Q 218.978572 133.855996 218.810044 133.90543 Q 217.007923 134.428989 215.349612 133.660504 Q 214.390128 133.213344 214.111496 131.923546 Q 214.086779 131.799959 213.965439 131.835912 Q 213.635125 131.932534 213.136283 132.125779 C 212.32061 132.440364 211.435278 132.406659 210.651064 132.024663 C 209.579228 131.503351 208.768049 130.941592 208.911859 129.618089 Q 208.911859 129.60236 208.972529 128.557489 Q 208.981517 128.429408 208.864672 128.483337 Q 207.417582 129.157447 205.867128 128.997908 Q 205.042467 128.912521 204.763835 128.530525 Q 204.20657 127.762039 203.438084 127.164328 Q 202.957219 126.791321 202.786445 126.544147 C 202.071888 125.517252 202.031441 123.796024 202.204463 122.645543 Q 202.235921 122.438816 202.026947 122.441063 C 200.829278 122.461286 200.060792 122.119737 199.299048 121.146771 Q 198.364282 119.955843 197.883416 118.767162 C 197.669948 118.236862 198.144072 118.016653 198.532809 117.917783 Q 199.074344 117.778467 198.564268 117.569493 Q 197.56209 117.160533 196.944156 116.257225 C 196.858769 116.133638 196.872251 115.965111 196.975615 115.855006 Q 197.510409 115.284259 198.281141 115.030345 Q 215.077721 109.534099 229.022814 104.871504 C 230.301376 104.444567 230.66989 103.797422 231.352988 102.835691 C 231.584432 102.507624 231.892276 102.273933 232.249555 102.107652 C 232.319213 102.073947 232.339436 101.984065 232.292248 101.923395 L 231.541739 100.999864 C 231.485563 100.930206 231.379952 100.930206 231.323777 100.997617 Q 230.779994 101.631281 230.382269 101.957101 C 229.508173 102.673905 228.285787 101.671727 227.742004 100.925712 Q 227.234175 100.229132 226.802744 99.474128 C 226.755556 99.393235 226.652193 99.366271 226.5713 99.413458 Q 225.562381 99.999934 224.414147 100.074086 C 222.679437 100.181944 220.973938 98.8517 220.185229 97.384387 Q 220.129053 97.278776 220.00996 97.30574 Q 219.875138 97.334952 219.401014 97.496738 Q 216.567504 98.462963 214.351929 96.52602 Q 213.453115 95.741805 213.107072 94.939614 Q 213.05539 94.822768 212.927309 94.842991 Q 212.605983 94.89692 211.886932 95.087918 C 209.22195 95.802475 206.655837 94.87445 205.925551 92.016222 C 205.914316 91.975776 205.871622 91.955552 205.831176 91.969035 C 203.341462 92.894813 200.86523 93.229621 198.645161 91.440982 Q 196.575643 89.771435 196.088036 87.625518 Q 196.061072 87.506425 195.939732 87.490696 Q 195.445384 87.427779 194.342091 87.342392 C 192.207408 87.180605 189.014373 86.355944 188.962691 83.726914 Q 188.960444 83.616809 188.857081 83.583104 Q 187.353815 83.088756 185.264073 82.138261 Q 182.495727 80.877675 183.012545 77.895861 Q 183.030522 77.785756 182.931652 77.736321 C 181.028414 76.803802 179.749852 75.698261 179.437514 73.520885 C 179.406056 73.298429 179.480208 73.033279 179.51616 72.801834 Q 179.53189 72.680495 179.430773 72.615331 L 176.887131 70.952525" style="fill:none;stroke-width:0.50;stroke:#80773d;"/>
		<path vector-effect="non-scaling-stroke" d="M 302.56599 35.166262 Q 302.745753 36.894231 302.80867 40.350169 Q 302.885069 44.549876 302.855857 48.7361" style="fill:none;stroke-width:0.50;stroke:#80773d;"/>
		<path vector-effect="non-scaling-stroke" d="M 302.896304 49.686596 L 302.954727 50.338235 Q 302.959221 50.38767 302.912033 50.376435 L 302.842375 50.362953 Q 302.806422 50.356212 302.799681 50.318012 C 302.727776 49.931522 302.633401 49.527056 302.500826 49.230448 Q 299.889772 43.347713 294.402515 39.828857 Q 294.301399 39.763693 294.263199 39.880539 Q 294.202529 40.071537 294.180059 40.249053 C 293.719417 43.936436 293.162153 47.372151 293.571113 50.706749 C 293.577854 50.753937 293.517184 50.778654 293.487972 50.742702 C 291.458901 48.322646 287.856905 47.56989 284.861609 47.408103 C 284.782963 47.403609 284.713305 47.450797 284.684093 47.524949 Q 284.659376 47.587866 284.726787 47.702465 C 285.25484 48.603525 285.6638 49.475374 285.901986 50.497775 Q 286.041302 51.104474 286.279487 52.499882 C 286.290723 52.560552 286.221064 52.605493 286.169383 52.56954 Q 284.879585 51.697691 283.068476 50.911229 Q 282.308978 50.580915 281.562963 50.48654 C 281.479823 50.477552 281.401177 50.524739 281.374212 50.603385 C 280.657408 52.632457 280.257436 53.922255 280.028239 55.38058 Q 280.010262 55.499673 279.893417 55.470461 C 278.888992 55.218793 276.552077 54.917691 276.176822 56.247935 Q 275.842014 57.44111 275.637534 57.917481 C 275.221833 58.8882 271.388393 58.333182 270.482838 58.225325 C 270.374981 58.211843 270.289593 58.312959 270.316558 58.416323 Q 270.583955 59.44097 271.105267 60.234173 Q 271.161443 60.321808 271.091784 60.39596 Q 268.516683 63.146329 264.768631 63.011507 C 264.66302 63.007013 264.595609 63.123859 264.649538 63.21374 Q 265.103439 63.962003 265.957312 64.528255 Q 266.067416 64.60016 265.984276 64.703524 C 265.013557 65.894452 262.932804 66.424752 261.526161 66.359588 Q 260.584653 66.316894 259.611688 66.164096 C 259.501583 66.14612 259.411702 66.253977 259.447654 66.359588 Q 259.847626 67.523552 260.613865 68.584152 Q 260.766663 68.795373 260.557689 68.952665 C 258.856684 70.231228 257.13995 70.5548 255.036726 70.867138 Q 254.57159 70.934549 254.978304 71.170488 L 255.928799 71.718764 Q 256.072609 71.801904 255.91307 71.846845 Q 253.490767 72.545673 250.881961 72.574884 Q 250.437048 72.579378 250.787585 72.855763 C 251.081947 73.089455 251.360579 73.379322 251.592023 73.71413 C 254.931116 78.536265 259.921778 82.257354 265.274213 84.583034 C 269.559307 86.445825 274.235385 88.050207 278.44408 89.497297 Q 279.52715 89.868058 281.697785 90.811812 Q 281.796654 90.854506 281.855077 90.762377 Q 284.108852 87.171617 287.313123 83.951617 Q 290.755579 80.495679 294.674406 77.376796 C 297.669703 74.992693 301.105418 73.233265 304.577085 71.840104 C 308.206045 70.381779 311.102472 69.480718 313.398941 66.835959 C 313.929241 66.222519 314.457294 64.584431 315.329143 63.710335 C 318.106477 60.930754 320.382723 58.182631 323.054446 54.535695 Q 326.092436 50.392164 328.442834 45.309373 Q 330.921312 39.94795 332.332449 34.869653" style="fill:none;stroke-width:0.50;stroke:#80773d;"/>
		<path vector-effect="non-scaling-stroke" d="M 331.615646 47.41035 L 327.332799 52.268438" style="fill:none;stroke-width:0.50;stroke:#80773d;"/>
		<path vector-effect="non-scaling-stroke" d="M 326.806993 52.859408 Q 326.681159 52.915583 326.620489 53.272862" style="fill:none;stroke-width:0.50;stroke:#80773d;"/>
		<path vector-effect="non-scaling-stroke" d="M 326.510384 53.373978 Q 326.299163 53.5852 326.220517 53.825632" style="fill:none;stroke-width:0.50;stroke:#80773d;"/>
		<path vector-effect="non-scaling-stroke" d="M 326.112659 53.937984 C 325.189128 54.998584 324.32402 56.194006 323.416218 57.162478 Q 320.378228 60.404948 317.625612 63.031731 Q 316.497601 64.110307 315.933595 65.242812" style="fill:none;stroke-width:0.50;stroke:#80773d;"/>
		<path vector-effect="non-scaling-stroke" d="M 313.895535 42.601697 L 313.124803 47.996826" style="fill:none;stroke-width:0.50;stroke:#80773d;"/>
		<path vector-effect="non-scaling-stroke" d="M 284.987443 101.330178 Q 285.221134 101.213332 284.980702 101.109969 Q 282.731421 100.163968 279.262 98.512398 C 278.70923 98.251742 278.064331 98.05625 277.453138 97.946145 Q 277.203717 97.901204 277.358762 98.10119 Q 278.810346 99.988699 280.558539 101.170639 Q 282.569634 102.532341 284.987443 101.330178" style="fill:none;stroke-width:0.50;stroke:#80773d;"/>
		<path vector-effect="non-scaling-stroke" d="M 327.741759 51.558375 Q 327.779959 51.529163 327.797935 51.481976" style="fill:none;stroke-width:0.50;stroke:#80773d;"/>
		<path d="M 196.532949 29.285774 C 196.604854 29.420596 196.667771 29.571147 196.784617 29.694734 Q 199.61588 32.656325 202.925761 35.080874 Q 207.682732 38.566024 213.120554 41.399534 C 215.670938 42.727531 219.72234 44.588075 222.726624 46.253128 C 225.090504 47.565395 228.090295 49.255165 230.150825 51.007852 Q 231.925982 52.520105 233.352848 54.778375 Q 236.837998 60.285855 238.2761 62.508172 C 241.446665 67.402212 245.154271 71.885045 249.091074 76.197103 Q 253.886245 81.448421 258.899378 85.382978 Q 261.955344 87.78281 263.317047 88.443438 Q 264.586621 89.059126 266.440424 89.695036 Q 269.372803 90.703954 273.183773 92.007234 C 277.538525 93.497018 281.650597 95.236222 285.205405 98.170848 C 285.933444 98.770807 286.418803 99.32133 287.274923 100.213402 C 287.782753 100.741455 288.715272 100.975147 289.303995 101.415566 C 290.957812 102.653681 291.625181 105.004079 290.993765 106.932034 Q 290.23202 109.255467 287.789494 110.158775 C 287.733318 110.181245 287.67939 110.122822 287.704107 110.066646 Q 289.146703 107.01068 286.077254 105.837728 Q 284.866103 105.374839 284.077394 105.408545 Q 283.953807 105.415286 284.043689 105.498426 Q 284.19424 105.637742 285.486284 106.266912 C 286.068266 106.550038 287.068196 107.296054 287.263688 108.044316 Q 287.2929 108.154421 287.19403 108.100492 C 283.922349 106.327582 280.387764 104.905209 276.707122 104.581636 Q 272.406299 104.206382 267.993125 106.026479 C 266.703327 106.556779 265.222532 107.358971 263.829371 108.111727 C 262.667654 108.738649 261.744123 109.511629 261.137424 110.581217 Q 259.146552 114.08659 257.784849 116.553834 Q 255.793977 120.160323 256.05688 124.225208 Q 256.202937 126.487971 256.265854 127.341844 C 256.335512 128.249646 256.679308 128.791181 257.333195 129.373163 Q 262.775512 134.220015 263.977675 135.368249 C 265.35286 136.680517 266.128086 138.253441 265.759573 140.176902 Q 265.442741 141.819484 263.986663 142.718298 C 263.921499 142.758744 263.838359 142.702568 263.851841 142.626169 Q 263.98891 141.828472 263.917005 141.217279 Q 263.872064 140.835283 263.642867 141.145374 Q 262.726077 142.385737 260.881262 142.752003 Q 260.649817 142.796944 260.616112 142.565499 Q 260.548701 142.11834 260.750934 141.653204 Q 261.510431 139.92074 261.566607 139.785918 C 262.449692 137.651236 260.667794 136.941173 259.204975 136.058089 Q 259.110599 135.999666 259.047682 135.907538 Q 258.984765 135.817656 258.894884 135.770469 Q 258.773544 135.712046 258.726356 135.835633 C 258.054493 137.568096 257.023105 139.210678 255.337829 140.091515 C 255.146831 140.190384 254.91314 140.143197 254.778318 139.976916 L 253.724459 138.678131 C 253.641318 138.577014 253.630083 138.433204 253.693 138.318605 Q 255.299629 135.431166 255.265924 132.074098 Q 255.265924 132.058368 255.252442 132.04938 Q 255.22323 132.02691 255.191772 132.031404 Q 255.142337 132.035898 255.133349 132.085333 L 254.969315 132.867301 C 254.944598 132.986393 254.816517 133.053804 254.704165 133.002123 Q 253.14023 132.287566 252.126817 130.820253 Q 252.009972 130.649478 252.036936 130.853958 Q 252.088618 131.25393 252.241416 131.611209 C 252.277369 131.698843 252.216699 131.795465 252.122323 131.799959 C 250.41233 131.885347 249.540481 130.233777 248.98097 128.836122 Q 248.888841 128.604677 248.870865 128.854098 Q 248.828171 129.433833 248.603468 131.692102 C 248.53381 132.390929 248.724808 132.887524 249.109051 133.41333 Q 251.358332 136.489519 254.683942 140.20162 Q 255.22323 140.803825 255.564779 141.271208 C 257.366901 143.73171 257.470264 146.327034 254.576084 147.805583 Q 254.194089 148.001075 254.326664 147.592114 Q 254.546873 146.915757 254.596308 146.025932 Q 254.605296 145.87538 254.470474 145.945039 Q 252.778457 146.819135 250.75388 146.567467 C 250.637034 146.553985 250.578611 146.42141 250.646022 146.324787 C 251.765045 144.740628 253.34471 143.738451 251.5336 141.69365 Q 251.22351 141.343113 250.94263 141.138633 Q 249.675303 140.212855 248.924794 139.435381 Q 248.83716 139.343253 248.787725 139.460098 Q 248.08665 141.149868 247.030544 142.370007 Q 245.992415 143.572171 245.152024 143.920461 Q 243.446525 144.630524 241.590475 143.978884 C 241.460147 143.933943 241.424194 143.767663 241.520817 143.67104 L 242.853308 142.338549 C 242.925213 142.266644 242.929707 142.152045 242.86679 142.073399 Q 241.95 140.929659 241.974718 139.444369 C 241.990447 138.599484 242.174704 138.221983 242.961166 137.970315 C 244.185799 137.579331 245.381221 137.2243 245.367739 135.640141 Q 245.35201 133.885207 244.871145 132.590915 Q 244.731828 132.220155 244.428479 132.13252 C 244.284669 132.089827 244.13187 132.159485 244.064459 132.294307 Q 243.709428 133.008864 243.738639 133.763867 Q 243.745381 133.981829 243.592582 133.826784 C 242.574676 132.806631 242.093811 131.768501 241.466888 130.323658 C 241.406218 130.184342 241.208479 130.188836 241.152303 130.330399 Q 240.972541 130.775312 240.934341 131.182025 Q 240.887153 131.696596 240.66245 131.23146 C 239.100761 127.984496 238.422157 124.521816 237.786246 120.89735 Q 237.712094 120.470414 237.440203 120.807469 Q 231.155249 128.627147 227.94199 132.608892 Q 227.310574 133.388612 226.431983 134.303155 C 225.733156 135.031194 224.362465 134.008794 223.978222 133.404342 C 223.933282 133.334684 223.834412 133.332437 223.784977 133.397601 C 222.825494 134.70088 221.205382 134.898619 219.677399 134.667175 Q 219.124629 134.584035 219.014524 134.029017 Q 218.978572 133.855996 218.810044 133.90543 Q 217.007923 134.428989 215.349612 133.660504 Q 214.390128 133.213344 214.111496 131.923546 Q 214.086779 131.799959 213.965439 131.835912 Q 213.635125 131.932534 213.136283 132.125779 C 212.32061 132.440364 211.435278 132.406659 210.651064 132.024663 C 209.579228 131.503351 208.768049 130.941592 208.911859 129.618089 Q 208.911859 129.60236 208.972529 128.557489 Q 208.981517 128.429408 208.864672 128.483337 Q 207.417582 129.157447 205.867128 128.997908 Q 205.042467 128.912521 204.763835 128.530525 Q 204.20657 127.762039 203.438084 127.164328 Q 202.957219 126.791321 202.786445 126.544147 C 202.071888 125.517252 202.031441 123.796024 202.204463 122.645543 Q 202.235921 122.438816 202.026947 122.441063 C 200.829278 122.461286 200.060792 122.119737 199.299048 121.146771 Q 198.364282 119.955843 197.883416 118.767162 C 197.669948 118.236862 198.144072 118.016653 198.532809 117.917783 Q 199.074344 117.778467 198.564268 117.569493 Q 197.56209 117.160533 196.944156 116.257225 C 196.858769 116.133638 196.872251 115.965111 196.975615 115.855006 Q 197.510409 115.284259 198.281141 115.030345 Q 215.077721 109.534099 229.022814 104.871504 C 230.301376 104.444567 230.66989 103.797422 231.352988 102.835691 C 231.584432 102.507624 231.892276 102.273933 232.249555 102.107652 C 232.319213 102.073947 232.339436 101.984065 232.292248 101.923395 L 231.541739 100.999864 C 231.485563 100.930206 231.379952 100.930206 231.323777 100.997617 Q 230.779994 101.631281 230.382269 101.957101 C 229.508173 102.673905 228.285787 101.671727 227.742004 100.925712 Q 227.234175 100.229132 226.802744 99.474128 C 226.755556 99.393235 226.652193 99.366271 226.5713 99.413458 Q 225.562381 99.999934 224.414147 100.074086 C 222.679437 100.181944 220.973938 98.8517 220.185229 97.384387 Q 220.129053 97.278776 220.00996 97.30574 Q 219.875138 97.334952 219.401014 97.496738 Q 216.567504 98.462963 214.351929 96.52602 Q 213.453115 95.741805 213.107072 94.939614 Q 213.05539 94.822768 212.927309 94.842991 Q 212.605983 94.89692 211.886932 95.087918 C 209.22195 95.802475 206.655837 94.87445 205.925551 92.016222 C 205.914316 91.975776 205.871622 91.955552 205.831176 91.969035 C 203.341462 92.894813 200.86523 93.229621 198.645161 91.440982 Q 196.575643 89.771435 196.088036 87.625518 Q 196.061072 87.506425 195.939732 87.490696 Q 195.445384 87.427779 194.342091 87.342392 C 192.207408 87.180605 189.014373 86.355944 188.962691 83.726914 Q 188.960444 83.616809 188.857081 83.583104 Q 187.353815 83.088756 185.264073 82.138261 Q 182.495727 80.877675 183.012545 77.895861 Q 183.030522 77.785756 182.931652 77.736321 C 181.028414 76.803802 179.749852 75.698261 179.437514 73.520885 C 179.406056 73.298429 179.480208 73.033279 179.51616 72.801834 Q 179.53189 72.680495 179.430773 72.615331 L 176.887131 70.952525 Q 176.102916 70.134605 175.761367 69.651493 Q 174.606391 68.015652 174.316524 66.065226 Q 174.291806 65.898946 174.147996 65.811312 C 173.750271 65.568632 173.428945 65.384375 173.134584 64.959686 C 172.208806 63.618206 171.577389 62.795792 170.29658 61.971131 Q 169.658422 61.559923 168.19785 61.002659 Q 165.238506 59.874648 162.634194 58.573615 C 161.643252 58.079268 160.598381 57.425381 159.764731 56.913057 C 158.883894 56.369275 158.131138 55.735611 157.400852 55.142394 C 157.340182 55.095206 157.317711 55.012066 157.346923 54.937914 Q 157.387369 54.843539 157.486239 54.877244 Q 158.247983 55.140147 160.688262 55.908633 C 163.090342 56.663636 165.795771 57.083832 168.101228 57.234383 Q 170.94822 57.41864 171.768387 57.461333 Q 173.792965 57.566944 179.839733 57.661319 Q 180.486879 57.670307 181.02392 57.575932 Q 181.223906 57.542226 181.026167 57.495039 C 180.677877 57.414146 180.329587 57.432122 180.012755 57.366958 C 177.469112 56.845646 174.78166 56.474885 172.496426 55.805269 C 168.928136 54.760398 165.56882 53.466107 162.479148 51.551634 Q 158.308653 48.963051 155.524578 44.976812 Q 155.365039 44.749862 155.367286 44.630769 C 155.374027 44.466736 155.55379 44.370113 155.686365 44.459994 C 156.268346 44.844237 157.180642 45.136352 157.639037 45.338585 Q 159.596204 46.208187 161.200586 46.686805 C 162.858897 47.178906 165.135143 47.812569 167.094556 48.226023 Q 173.159301 49.50908 177.53877 50.046121 Q 181.095825 50.479799 182.527186 50.706749 C 182.576621 50.715737 182.623808 50.69102 182.648526 50.648326 L 182.688972 50.578668 Q 182.71369 50.535974 182.666502 50.522492 Q 181.841841 50.273071 181.498044 50.097803 C 176.136621 47.358668 171.1145 44.79705 165.849699 42.934258 C 160.391654 41.004056 155.859386 38.691858 152.951724 33.838265 Q 151.859666 32.013673 151.041745 30.12167 Q 150.940629 29.885732 151.084439 29.748663 Q 151.176567 29.661028 151.259708 29.759898 Q 151.39453 29.921684 151.70462 30.144141 C 152.556246 30.755334 154.081982 31.856381 155.398744 32.552961 Q 158.603015 34.251719 160.207397 34.883135 Q 167.982135 37.941349 176.779273 40.489485 Q 178.875756 41.096185 180.938533 41.57705 Q 181.363222 41.675919 180.987968 41.45571 C 179.540878 40.59959 178.356691 39.817622 176.705121 38.939032 Q 173.222218 37.089723 170.395449 35.579716 C 169.009029 34.835948 167.514752 33.914664 166.755254 32.373199 C 166.591221 32.040637 166.388988 31.901321 166.058674 31.829416 Q 165.177836 31.638418 164.153189 31.189012 Q 157.479498 28.252138 154.358368 21.486319 Q 154.093218 20.911078 153.529212 19.690939 Q 153.387649 19.387589 153.470789 19.171874 C 153.495506 19.102216 153.583141 19.077498 153.639317 19.124686 C 154.859456 20.104393 155.805457 20.931301 156.843587 21.641364 Q 158.052491 22.47052 158.713119 22.917679 Q 160.987118 24.454651 163.908262 25.897246 Q 167.514752 27.67465 171.222358 29.195892 Q 173.255924 30.031789 176.084939 30.798028 C 176.134374 30.81151 176.177068 30.762075 176.156845 30.714887 Q 176.100669 30.575571 175.909671 30.420526 Q 175.813048 30.339633 175.770355 30.218293 Q 175.235561 28.631887 175.172644 27.018516 Q 175.16815 26.897177 175.051304 26.861224 C 174.754695 26.766849 174.428875 26.789319 174.145749 26.645509 C 171.858268 25.483792 169.635952 24.014232 168.112463 22.865998 Q 162.762275 18.84156 159.088374 13.089153 Q 158.194055 11.68925 157.704201 10.68932 Q 157.414334 10.09835 157.982833 10.433158 C 158.481675 10.729767 158.834459 10.842119 159.304089 11.120751 Q 163.726252 13.738545 164.535185 14.360974 Q 168.653998 17.520304 172.76607 20.684128 Q 173.615449 21.338014 176.570299 23.31091 Q 178.313997 24.477121 180.358798 25.724225 Q 181.396928 26.360135 184.91803 28.512794 Q 187.48639 30.083471 187.931303 30.353115 Q 188.369474 30.618265 188.684059 30.685676 Q 189.048079 30.764322 188.75147 30.539619 C 187.436955 29.532948 185.787632 27.928565 185.416872 26.371371 C 185.383166 26.225313 185.288791 26.09948 185.158463 26.02308 C 183.972029 25.335488 183.093438 24.535544 180.958756 22.773869 Q 178.442078 20.69761 176.345595 18.457317 Q 172.977291 14.857568 171.734682 10.266878 Q 171.195393 8.269265 170.977431 5.691917 Q 170.923502 5.047018 171.00889 4.896467 Q 171.074054 4.781868 171.179664 4.862761 Q 171.516719 5.125664 171.581883 5.233522 Q 172.575072 6.885092 172.959315 7.426627 Q 177.060152 13.214987 182.650773 17.466375 C 182.772113 17.56075 182.94064 17.805677 183.046251 17.915782 Q 183.506893 18.398894 183.277695 17.778713 C 183.178826 17.511316 183.008051 17.196731 182.958616 16.893381 C 182.760877 15.688971 182.511457 14.72724 182.468763 13.495866 Q 182.354164 10.156773 182.706949 7.271582 Q 182.747395 6.939021 182.900194 6.150312 Q 183.012545 5.572824 183.064227 5.015559 Q 183.093438 4.716704 183.138379 4.653787 Q 183.385553 4.305497 183.524869 4.716704 Q 185.18318 9.646697 187.331345 14.338504 C 189.704213 19.520164 192.791637 24.784965 196.532949 29.285774 Z M 284.987443 101.330178 Q 285.221134 101.213332 284.980702 101.109969 Q 282.731421 100.163968 279.262 98.512398 C 278.70923 98.251742 278.064331 98.05625 277.453138 97.946145 Q 277.203717 97.901204 277.358762 98.10119 Q 278.810346 99.988699 280.558539 101.170639 Q 282.569634 102.532341 284.987443 101.330178 Z" style="fill:#042644;"/>
		<path d="M 302.56599 35.166262 Q 302.745753 36.894231 302.80867 40.350169 Q 302.885069 44.549876 302.855857 48.7361 L 302.896304 49.686596 L 302.954727 50.338235 Q 302.959221 50.38767 302.912033 50.376435 L 302.842375 50.362953 Q 302.806422 50.356212 302.799681 50.318012 C 302.727776 49.931522 302.633401 49.527056 302.500826 49.230448 Q 299.889772 43.347713 294.402515 39.828857 Q 294.301399 39.763693 294.263199 39.880539 Q 294.202529 40.071537 294.180059 40.249053 C 293.719417 43.936436 293.162153 47.372151 293.571113 50.706749 C 293.577854 50.753937 293.517184 50.778654 293.487972 50.742702 C 291.458901 48.322646 287.856905 47.56989 284.861609 47.408103 C 284.782963 47.403609 284.713305 47.450797 284.684093 47.524949 Q 284.659376 47.587866 284.726787 47.702465 C 285.25484 48.603525 285.6638 49.475374 285.901986 50.497775 Q 286.041302 51.104474 286.279487 52.499882 C 286.290723 52.560552 286.221064 52.605493 286.169383 52.56954 Q 284.879585 51.697691 283.068476 50.911229 Q 282.308978 50.580915 281.562963 50.48654 C 281.479823 50.477552 281.401177 50.524739 281.374212 50.603385 C 280.657408 52.632457 280.257436 53.922255 280.028239 55.38058 Q 280.010262 55.499673 279.893417 55.470461 C 278.888992 55.218793 276.552077 54.917691 276.176822 56.247935 Q 275.842014 57.44111 275.637534 57.917481 C 275.221833 58.8882 271.388393 58.333182 270.482838 58.225325 C 270.374981 58.211843 270.289593 58.312959 270.316558 58.416323 Q 270.583955 59.44097 271.105267 60.234173 Q 271.161443 60.321808 271.091784 60.39596 Q 268.516683 63.146329 264.768631 63.011507 C 264.66302 63.007013 264.595609 63.123859 264.649538 63.21374 Q 265.103439 63.962003 265.957312 64.528255 Q 266.067416 64.60016 265.984276 64.703524 C 265.013557 65.894452 262.932804 66.424752 261.526161 66.359588 Q 260.584653 66.316894 259.611688 66.164096 C 259.501583 66.14612 259.411702 66.253977 259.447654 66.359588 Q 259.847626 67.523552 260.613865 68.584152 Q 260.766663 68.795373 260.557689 68.952665 C 258.856684 70.231228 257.13995 70.5548 255.036726 70.867138 Q 254.57159 70.934549 254.978304 71.170488 L 255.928799 71.718764 Q 256.072609 71.801904 255.91307 71.846845 Q 253.490767 72.545673 250.881961 72.574884 Q 250.437048 72.579378 250.787585 72.855763 C 251.081947 73.089455 251.360579 73.379322 251.592023 73.71413 C 254.931116 78.536265 259.921778 82.257354 265.274213 84.583034 C 269.559307 86.445825 274.235385 88.050207 278.44408 89.497297 Q 279.52715 89.868058 281.697785 90.811812 Q 281.796654 90.854506 281.855077 90.762377 Q 284.108852 87.171617 287.313123 83.951617 Q 290.755579 80.495679 294.674406 77.376796 C 297.669703 74.992693 301.105418 73.233265 304.577085 71.840104 C 308.206045 70.381779 311.102472 69.480718 313.398941 66.835959 C 313.929241 66.222519 314.457294 64.584431 315.329143 63.710335 C 318.106477 60.930754 320.382723 58.182631 323.054446 54.535695 Q 326.092436 50.392164 328.442834 45.309373 Q 330.921312 39.94795 332.332449 34.869653 L 333.94582 31.1598 Q 334.289616 30.373338 334.462638 31.227211 Q 334.525555 31.535055 334.363768 32.215906 Q 333.285192 36.76615 331.734738 40.738906 Q 330.101145 44.922883 329.063015 47.057566 C 328.308011 48.610266 327.867593 49.47088 327.62716 50.628103 Q 327.620419 50.666302 327.651878 50.684279 L 327.777711 50.758431 C 327.800182 50.771913 327.83164 50.758431 327.836134 50.731466 Q 327.883322 50.54721 327.943992 50.457328 C 327.984439 50.401152 328.054097 50.374188 328.121508 50.38767 Q 328.312506 50.42587 328.355199 50.109038 C 328.357446 50.079827 328.391152 50.064097 328.415869 50.079827 L 328.487774 50.120273 Q 328.534962 50.147238 328.503503 50.192178 L 328.440587 50.284307 C 328.433845 50.293295 328.438339 50.302283 328.449575 50.30453 C 328.46081 50.30453 328.476539 50.297789 328.48328 50.288801 Q 328.519233 50.241613 328.525974 50.167461 Q 328.534962 50.06185 328.593385 49.974216 Q 329.667467 48.322646 331.25612 46.832862 Q 331.554976 46.549736 332.41559 45.255444 Q 333.905373 43.00841 335.460321 40.80407 C 336.334417 39.56146 337.314124 37.923373 338.352254 36.568411 Q 338.830872 35.945983 338.558981 36.680763 Q 338.460111 36.952654 338.284843 37.294203 Q 337.329853 39.154747 336.004103 41.244489 Q 333.925597 44.518417 331.615646 47.41035 L 327.332799 52.268438 Q 326.959791 52.340343 326.806993 52.859408 Q 326.681159 52.915583 326.620489 53.272862 Q 326.555325 53.30432 326.510384 53.373978 Q 326.299163 53.5852 326.220517 53.825632 L 326.112659 53.937984 C 325.189128 54.998584 324.32402 56.194006 323.416218 57.162478 Q 320.378228 60.404948 317.625612 63.031731 Q 316.497601 64.110307 315.933595 65.242812 Q 316.297615 66.164096 316.349296 66.478681 C 316.857126 69.671716 317.333497 72.091772 317.531236 74.498345 Q 318.182876 82.448351 317.524495 89.984904 Q 317.36945 91.744331 316.875102 94.420549 Q 315.558341 101.521176 312.98324 108.388112 Q 312.205766 110.459877 311.226059 112.520408 Q 306.855578 121.717518 300.321203 128.921509 Q 294.937309 134.855926 288.047903 139.812883 Q 286.362628 141.024034 284.272886 142.246421 Q 278.630584 145.549561 273.817437 147.410105 Q 269.060466 149.250426 264.294507 150.461577 Q 261.672218 151.128946 256.854577 151.830021 Q 252.535778 152.45919 246.239588 152.492896 Q 243.837509 152.506378 241.750014 152.364815 C 228.863274 151.495213 216.32033 147.198884 205.669389 139.81513 Q 204.725635 139.161243 202.379731 137.316428 C 199.233884 134.844691 196.368915 132.067356 193.70618 129.141718 Q 187.1381 121.926492 182.83503 113.050708 Q 180.936286 109.134127 179.970061 106.448922 Q 179.538631 105.2535 178.406126 101.590834 Q 177.88032 99.892076 177.75898 99.220213 Q 177.529782 97.961874 177.21295 96.842851 C 176.786014 95.339586 176.624228 93.679027 176.287172 91.998246 Q 176.118645 91.157855 176.022022 90.038832 Q 175.534416 84.37406 175.747884 78.610417 Q 175.880459 75.019657 176.305149 72.709706 Q 176.37256 72.341192 176.887131 70.952525 L 179.430773 72.615331 Q 179.53189 72.680495 179.51616 72.801834 C 179.480208 73.033279 179.406056 73.298429 179.437514 73.520885 C 179.749852 75.698261 181.028414 76.803802 182.931652 77.736321 Q 183.030522 77.785756 183.012545 77.895861 Q 182.495727 80.877675 185.264073 82.138261 Q 187.353815 83.088756 188.857081 83.583104 Q 188.960444 83.616809 188.962691 83.726914 C 189.014373 86.355944 192.207408 87.180605 194.342091 87.342392 Q 195.445384 87.427779 195.939732 87.490696 Q 196.061072 87.506425 196.088036 87.625518 Q 196.575643 89.771435 198.645161 91.440982 C 200.86523 93.229621 203.341462 92.894813 205.831176 91.969035 C 205.871622 91.955552 205.914316 91.975776 205.925551 92.016222 C 206.655837 94.87445 209.22195 95.802475 211.886932 95.087918 Q 212.605983 94.89692 212.927309 94.842991 Q 213.05539 94.822768 213.107072 94.939614 Q 213.453115 95.741805 214.351929 96.52602 Q 216.567504 98.462963 219.401014 97.496738 Q 219.875138 97.334952 220.00996 97.30574 Q 220.129053 97.278776 220.185229 97.384387 C 220.973938 98.8517 222.679437 100.181944 224.414147 100.074086 Q 225.562381 99.999934 226.5713 99.413458 C 226.652193 99.366271 226.755556 99.393235 226.802744 99.474128 Q 227.234175 100.229132 227.742004 100.925712 C 228.285787 101.671727 229.508173 102.673905 230.382269 101.957101 Q 230.779994 101.631281 231.323777 100.997617 C 231.379952 100.930206 231.485563 100.930206 231.541739 100.999864 L 232.292248 101.923395 C 232.339436 101.984065 232.319213 102.073947 232.249555 102.107652 C 231.892276 102.273933 231.584432 102.507624 231.352988 102.835691 C 230.66989 103.797422 230.301376 104.444567 229.022814 104.871504 Q 215.077721 109.534099 198.281141 115.030345 Q 197.510409 115.284259 196.975615 115.855006 C 196.872251 115.965111 196.858769 116.133638 196.944156 116.257225 Q 197.56209 117.160533 198.564268 117.569493 Q 199.074344 117.778467 198.532809 117.917783 C 198.144072 118.016653 197.669948 118.236862 197.883416 118.767162 Q 198.364282 119.955843 199.299048 121.146771 C 200.060792 122.119737 200.829278 122.461286 202.026947 122.441063 Q 202.235921 122.438816 202.204463 122.645543 C 202.031441 123.796024 202.071888 125.517252 202.786445 126.544147 Q 202.957219 126.791321 203.438084 127.164328 Q 204.20657 127.762039 204.763835 128.530525 Q 205.042467 128.912521 205.867128 128.997908 Q 207.417582 129.157447 208.864672 128.483337 Q 208.981517 128.429408 208.972529 128.557489 Q 208.911859 129.60236 208.911859 129.618089 C 208.768049 130.941592 209.579228 131.503351 210.651064 132.024663 C 211.435278 132.406659 212.32061 132.440364 213.136283 132.125779 Q 213.635125 131.932534 213.965439 131.835912 Q 214.086779 131.799959 214.111496 131.923546 Q 214.390128 133.213344 215.349612 133.660504 Q 217.007923 134.428989 218.810044 133.90543 Q 218.978572 133.855996 219.014524 134.029017 Q 219.124629 134.584035 219.677399 134.667175 C 221.205382 134.898619 222.825494 134.70088 223.784977 133.397601 C 223.834412 133.332437 223.933282 133.334684 223.978222 133.404342 C 224.362465 134.008794 225.733156 135.031194 226.431983 134.303155 Q 227.310574 133.388612 227.94199 132.608892 Q 231.155249 128.627147 237.440203 120.807469 Q 237.712094 120.470414 237.786246 120.89735 C 238.422157 124.521816 239.100761 127.984496 240.66245 131.23146 Q 240.887153 131.696596 240.934341 131.182025 Q 240.972541 130.775312 241.152303 130.330399 C 241.208479 130.188836 241.406218 130.184342 241.466888 130.323658 C 242.093811 131.768501 242.574676 132.806631 243.592582 133.826784 Q 243.745381 133.981829 243.738639 133.763867 Q 243.709428 133.008864 244.064459 132.294307 C 244.13187 132.159485 244.284669 132.089827 244.428479 132.13252 Q 244.731828 132.220155 244.871145 132.590915 Q 245.35201 133.885207 245.367739 135.640141 C 245.381221 137.2243 244.185799 137.579331 242.961166 137.970315 C 242.174704 138.221983 241.990447 138.599484 241.974718 139.444369 Q 241.95 140.929659 242.86679 142.073399 C 242.929707 142.152045 242.925213 142.266644 242.853308 142.338549 L 241.520817 143.67104 C 241.424194 143.767663 241.460147 143.933943 241.590475 143.978884 Q 243.446525 144.630524 245.152024 143.920461 Q 245.992415 143.572171 247.030544 142.370007 Q 248.08665 141.149868 248.787725 139.460098 Q 248.83716 139.343253 248.924794 139.435381 Q 249.675303 140.212855 250.94263 141.138633 Q 251.22351 141.343113 251.5336 141.69365 C 253.34471 143.738451 251.765045 144.740628 250.646022 146.324787 C 250.578611 146.42141 250.637034 146.553985 250.75388 146.567467 Q 252.778457 146.819135 254.470474 145.945039 Q 254.605296 145.87538 254.596308 146.025932 Q 254.546873 146.915757 254.326664 147.592114 Q 254.194089 148.001075 254.576084 147.805583 C 257.470264 146.327034 257.366901 143.73171 255.564779 141.271208 Q 255.22323 140.803825 254.683942 140.20162 Q 251.358332 136.489519 249.109051 133.41333 C 248.724808 132.887524 248.53381 132.390929 248.603468 131.692102 Q 248.828171 129.433833 248.870865 128.854098 Q 248.888841 128.604677 248.98097 128.836122 C 249.540481 130.233777 250.41233 131.885347 252.122323 131.799959 C 252.216699 131.795465 252.277369 131.698843 252.241416 131.611209 Q 252.088618 131.25393 252.036936 130.853958 Q 252.009972 130.649478 252.126817 130.820253 Q 253.14023 132.287566 254.704165 133.002123 C 254.816517 133.053804 254.944598 132.986393 254.969315 132.867301 L 255.133349 132.085333 Q 255.142337 132.035898 255.191772 132.031404 Q 255.22323 132.02691 255.252442 132.04938 Q 255.265924 132.058368 255.265924 132.074098 Q 255.299629 135.431166 253.693 138.318605 C 253.630083 138.433204 253.641318 138.577014 253.724459 138.678131 L 254.778318 139.976916 C 254.91314 140.143197 255.146831 140.190384 255.337829 140.091515 C 257.023105 139.210678 258.054493 137.568096 258.726356 135.835633 Q 258.773544 135.712046 258.894884 135.770469 Q 258.984765 135.817656 259.047682 135.907538 Q 259.110599 135.999666 259.204975 136.058089 C 260.667794 136.941173 262.449692 137.651236 261.566607 139.785918 Q 261.510431 139.92074 260.750934 141.653204 Q 260.548701 142.11834 260.616112 142.565499 Q 260.649817 142.796944 260.881262 142.752003 Q 262.726077 142.385737 263.642867 141.145374 Q 263.872064 140.835283 263.917005 141.217279 Q 263.98891 141.828472 263.851841 142.626169 C 263.838359 142.702568 263.921499 142.758744 263.986663 142.718298 Q 265.442741 141.819484 265.759573 140.176902 C 266.128086 138.253441 265.35286 136.680517 263.977675 135.368249 Q 262.775512 134.220015 257.333195 129.373163 C 256.679308 128.791181 256.335512 128.249646 256.265854 127.341844 Q 256.202937 126.487971 256.05688 124.225208 Q 255.793977 120.160323 257.784849 116.553834 Q 259.146552 114.08659 261.137424 110.581217 C 261.744123 109.511629 262.667654 108.738649 263.829371 108.111727 C 265.222532 107.358971 266.703327 106.556779 267.993125 106.026479 Q 272.406299 104.206382 276.707122 104.581636 C 280.387764 104.905209 283.922349 106.327582 287.19403 108.100492 Q 287.2929 108.154421 287.263688 108.044316 C 287.068196 107.296054 286.068266 106.550038 285.486284 106.266912 Q 284.19424 105.637742 284.043689 105.498426 Q 283.953807 105.415286 284.077394 105.408545 Q 284.866103 105.374839 286.077254 105.837728 Q 289.146703 107.01068 287.704107 110.066646 C 287.67939 110.122822 287.733318 110.181245 287.789494 110.158775 Q 290.23202 109.255467 290.993765 106.932034 C 291.625181 105.004079 290.957812 102.653681 289.303995 101.415566 C 288.715272 100.975147 287.782753 100.741455 287.274923 100.213402 C 286.418803 99.32133 285.933444 98.770807 285.205405 98.170848 C 281.650597 95.236222 277.538525 93.497018 273.183773 92.007234 Q 269.372803 90.703954 266.440424 89.695036 Q 264.586621 89.059126 263.317047 88.443438 Q 261.955344 87.78281 258.899378 85.382978 Q 253.886245 81.448421 249.091074 76.197103 C 245.154271 71.885045 241.446665 67.402212 238.2761 62.508172 Q 236.837998 60.285855 233.352848 54.778375 Q 231.925982 52.520105 230.150825 51.007852 C 228.090295 49.255165 225.090504 47.565395 222.726624 46.253128 C 219.72234 44.588075 215.670938 42.727531 213.120554 41.399534 Q 207.682732 38.566024 202.925761 35.080874 Q 199.61588 32.656325 196.784617 29.694734 C 196.667771 29.571147 196.604854 29.420596 196.532949 29.285774 Q 205.291887 21.400931 215.915864 16.363081 C 217.142745 15.783346 218.167392 15.405845 219.791998 14.745217 Q 223.295124 13.320597 227.640888 12.104952 Q 229.537384 11.574652 230.872123 11.334219 C 232.350671 11.064575 233.595528 10.718532 235.229122 10.514052 C 236.833504 10.311819 239.68499 9.826459 241.830908 9.725343 Q 244.994731 9.579285 247.922617 9.565803 Q 249.906748 9.559062 251.183063 9.669167 C 252.639141 9.797248 253.915456 9.799495 255.528827 10.026445 Q 259.681346 10.608427 260.97339 10.84886 Q 269.828951 12.50043 278.217129 16.522621 Q 289.303995 21.839103 298.507846 30.69017 C 299.916737 32.045132 301.242487 33.624796 302.56599 35.166262 Z M 327.741759 51.558375 Q 327.779959 51.529163 327.797935 51.481976 L 327.83164 51.4258 Q 327.872087 51.362883 327.804676 51.331424 Q 327.759735 51.308954 327.714795 51.306707 Q 327.640642 51.30446 327.62716 51.376365 L 327.532785 51.825772 C 327.530538 51.832513 327.535032 51.837007 327.541773 51.839254 C 327.548514 51.841501 327.553008 51.837007 327.555255 51.830266 Q 327.591208 51.666233 327.741759 51.558375 Z" style="fill:#fcc835;"/>
		<path d="M 332.332449 34.869653 Q 330.921312 39.94795 328.442834 45.309373 Q 326.092436 50.392164 323.054446 54.535695 C 320.382723 58.182631 318.106477 60.930754 315.329143 63.710335 C 314.457294 64.584431 313.929241 66.222519 313.398941 66.835959 C 311.102472 69.480718 308.206045 70.381779 304.577085 71.840104 C 301.105418 73.233265 297.669703 74.992693 294.674406 77.376796 Q 290.755579 80.495679 287.313123 83.951617 Q 284.108852 87.171617 281.855077 90.762377 Q 281.796654 90.854506 281.697785 90.811812 Q 279.52715 89.868058 278.44408 89.497297 C 274.235385 88.050207 269.559307 86.445825 265.274213 84.583034 C 259.921778 82.257354 254.931116 78.536265 251.592023 73.71413 C 251.360579 73.379322 251.081947 73.089455 250.787585 72.855763 Q 250.437048 72.579378 250.881961 72.574884 Q 253.490767 72.545673 255.91307 71.846845 Q 256.072609 71.801904 255.928799 71.718764 L 254.978304 71.170488 Q 254.57159 70.934549 255.036726 70.867138 C 257.13995 70.5548 258.856684 70.231228 260.557689 68.952665 Q 260.766663 68.795373 260.613865 68.584152 Q 259.847626 67.523552 259.447654 66.359588 C 259.411702 66.253977 259.501583 66.14612 259.611688 66.164096 Q 260.584653 66.316894 261.526161 66.359588 C 262.932804 66.424752 265.013557 65.894452 265.984276 64.703524 Q 266.067416 64.60016 265.957312 64.528255 Q 265.103439 63.962003 264.649538 63.21374 C 264.595609 63.123859 264.66302 63.007013 264.768631 63.011507 Q 268.516683 63.146329 271.091784 60.39596 Q 271.161443 60.321808 271.105267 60.234173 Q 270.583955 59.44097 270.316558 58.416323 C 270.289593 58.312959 270.374981 58.211843 270.482838 58.225325 C 271.388393 58.333182 275.221833 58.8882 275.637534 57.917481 Q 275.842014 57.44111 276.176822 56.247935 C 276.552077 54.917691 278.888992 55.218793 279.893417 55.470461 Q 280.010262 55.499673 280.028239 55.38058 C 280.257436 53.922255 280.657408 52.632457 281.374212 50.603385 C 281.401177 50.524739 281.479823 50.477552 281.562963 50.48654 Q 282.308978 50.580915 283.068476 50.911229 Q 284.879585 51.697691 286.169383 52.56954 C 286.221064 52.605493 286.290723 52.560552 286.279487 52.499882 Q 286.041302 51.104474 285.901986 50.497775 C 285.6638 49.475374 285.25484 48.603525 284.726787 47.702465 Q 284.659376 47.587866 284.684093 47.524949 C 284.713305 47.450797 284.782963 47.403609 284.861609 47.408103 C 287.856905 47.56989 291.458901 48.322646 293.487972 50.742702 C 293.517184 50.778654 293.577854 50.753937 293.571113 50.706749 C 293.162153 47.372151 293.719417 43.936436 294.180059 40.249053 Q 294.202529 40.071537 294.263199 39.880539 Q 294.301399 39.763693 294.402515 39.828857 Q 299.889772 43.347713 302.500826 49.230448 C 302.633401 49.527056 302.727776 49.931522 302.799681 50.318012 Q 302.806422 50.356212 302.842375 50.362953 L 302.912033 50.376435 Q 302.959221 50.38767 302.954727 50.338235 L 302.896304 49.686596 Q 302.961468 49.194495 302.855857 48.7361 Q 302.885069 44.549876 302.80867 40.350169 Q 302.745753 36.894231 302.56599 35.166262 Q 302.507567 31.820428 302.037937 28.44763 C 302.008725 28.238656 302.24017 28.094846 302.415439 28.209444 Q 302.781705 28.449877 302.99742 28.825132 Q 306.388195 34.748313 308.248739 41.222018 Q 308.457713 41.945563 308.471195 41.192807 Q 308.518383 38.703093 308.972284 36.143722 C 309.187999 34.93257 309.300351 33.694455 309.385738 32.797888 Q 309.668864 29.789109 309.336303 26.481475 Q 309.273386 25.865788 309.201481 25.524239 Q 308.988013 24.526556 309.796945 25.279312 Q 309.898062 25.373688 310.163212 25.791636 Q 311.715912 28.227421 312.443951 31.386751 Q 313.237154 34.817972 313.637126 37.941349 Q 313.920253 40.141195 313.895535 42.601697 L 313.124803 47.996826 Q 312.8619 49.019226 312.49788 49.812429 Q 311.284482 52.450447 310.345222 55.036784 Q 310.059848 55.825492 310.565431 55.155876 C 311.318187 54.16044 312.336094 52.868396 313.068627 51.715667 Q 316.742527 45.929555 319.616484 39.244629 Q 322.029798 33.636032 323.074669 30.465467 Q 323.870119 28.054399 324.440866 25.077079 C 324.461089 24.973716 324.530747 24.890575 324.625123 24.859117 Q 324.719498 24.827658 324.836344 25.007421 Q 326.600266 27.755544 326.971026 31.078907 Q 327.022708 31.541796 326.989003 33.883205 Q 326.964285 35.46287 326.719358 36.662786 Q 326.263211 38.876115 325.728416 40.458027 C 324.571194 43.871272 322.948835 46.916003 321.151208 50.717984 Q 321.095032 50.83483 321.115256 50.882018 C 321.144467 50.949429 321.229854 50.965158 321.279289 50.915723 C 323.110622 49.06192 324.515018 47.475514 325.957614 45.417231 Q 329.476469 40.408592 332.332449 34.869653 Z" style="fill:#042644;"/>
		<path d="M 313.124803 47.996826 L 313.895535 42.601697 Q 314.637057 40.428815 314.729185 39.734482 Q 315.02804 37.507671 315.398801 35.294343 Q 315.538117 34.471928 315.681927 31.114859 C 315.769562 29.130728 315.383072 27.488147 314.641551 25.778154 Q 314.502235 25.452334 314.610092 25.148984 C 314.664021 24.996186 314.870748 24.973716 314.958382 25.108538 C 315.92236 26.587086 316.895326 27.65218 316.879597 29.699228 Q 316.863867 31.946262 316.827915 32.274329 C 316.623435 34.224755 316.468389 36.163945 316.077405 38.112123 C 315.706645 39.97042 315.576317 41.262465 315.070734 42.812919 Q 314.872995 43.417371 314.441565 45.125117 Q 314.214614 46.02393 313.124803 47.996826 Z" style="fill:#fcc835;"/>
		<path d="M 331.615646 47.41035 Q 331.433636 47.902451 331.092087 48.356351 C 329.946099 49.884335 328.645067 51.875207 327.501326 53.315555 Q 324.346491 57.290559 321.200643 60.577969 C 320.438898 61.373419 319.360322 62.245269 318.474991 63.094648 C 318.268264 63.292387 317.994125 63.438444 317.803127 63.622701 Q 316.92229 64.476573 315.933595 65.242812 Q 316.497601 64.110307 317.625612 63.031731 Q 320.378228 60.404948 323.416218 57.162478 C 324.32402 56.194006 325.189128 54.998584 326.112659 53.937984 Q 326.132883 54.025618 326.231752 53.940231 Q 326.296916 53.884055 326.220517 53.825632 Q 326.299163 53.5852 326.510384 53.373978 Q 326.669924 53.331285 326.620489 53.272862 Q 326.681159 52.915583 326.806993 52.859408 Q 327.375492 52.666163 327.332799 52.268438 L 331.615646 47.41035 Z M 326.800252 53.111075 L 326.822722 53.000971 Q 326.842945 52.911089 326.766546 52.960524 Q 326.667677 53.025688 326.7261 53.122311 C 326.744076 53.153769 326.793511 53.147028 326.800252 53.111075 Z" style="fill:#042644;"/>
		<path d="M 327.797935 51.481976 Q 327.779959 51.529163 327.741759 51.558375 Q 327.68783 51.466246 327.797935 51.481976 Z" style="fill:#042644;"/>
		<path d="M 284.987443 101.330178 Q 282.569634 102.532341 280.558539 101.170639 Q 278.810346 99.988699 277.358762 98.10119 Q 277.203717 97.901204 277.453138 97.946145 C 278.064331 98.05625 278.70923 98.251742 279.262 98.512398 Q 282.731421 100.163968 284.980702 101.109969 Q 285.221134 101.213332 284.987443 101.330178 Z" style="fill:#fcc835;"/>
	</g>
	<g id="surface4">
	</g>
</svg>
