<?xml version="1.0" encoding="utf-8"?>
<svg xmlns="http://www.w3.org/2000/svg" width="490pt" height="280pt" viewBox="0 0 490 280" version="1.1" xmlns:xlink="http://www.w3.org/1999/xlink">
	<g id="surface2">
		<path d="M 302.873051 10.752175 Q 302.920283 10.662435 303.085595 10.412106 C 303.128103 10.350705 303.135188 10.270411 303.109211 10.199563 C 302.901391 9.66112 302.636892 9.351752 302.710102 8.718846 Q 302.972238 6.451719 305.026822 5.325241 Q 306.443776 4.550639 308.193714 4.772629 Q 308.595185 4.824583 309.650816 5.178822 Q 310.333315 5.407896 310.862311 5.731434 C 311.443263 6.085673 311.917942 6.191944 312.456385 6.602861 Q 314.501522 8.159149 315.587854 9.755584 Q 316.053087 10.438084 316.766287 12.277762 C 316.962299 12.785504 316.891452 13.274354 317.05204 13.767926 Q 317.153588 14.079656 317.172481 14.346516 Q 317.411001 17.527578 316.430941 20.118242 Q 315.859437 21.632022 314.978563 23.091484 C 313.497846 25.547538 311.155149 27.654077 308.717987 29.309552 C 308.042573 29.770062 307.419113 29.93065 306.783845 30.343928 Q 306.597279 30.464369 305.987989 30.726506 Q 303.761009 31.68295 301.373442 32.174161 Q 300.445337 32.36545 299.654204 32.422128 C 298.204187 32.523676 297.113133 32.670095 295.821343 32.431574 Q 295.436404 32.358365 295.197883 32.667733 Q 293.726612 34.561729 292.141985 36.43447 Q 289.778033 39.221146 287.624263 41.842511 Q 286.8473 42.787148 286.516677 43.200426 Q 284.965112 45.13693 282.478358 48.079471 Q 281.148782 49.654652 273.218562 59.134076 C 271.024645 61.757802 267.777458 65.711105 263.658845 70.703507 Q 248.310869 89.308115 238.06629 101.503367 Q 236.160487 103.770494 236.080193 106.40839 Q 236.042408 107.737966 236.932727 109.454842 C 237.105123 109.787826 237.834855 110.300291 238.316619 110.597852 Q 239.650917 111.417323 240.878944 112.390299 C 241.311115 112.732729 241.98653 112.952357 242.473018 113.339658 C 243.018545 113.771829 243.925396 114.485029 244.846416 114.905392 C 245.299841 115.113212 245.798137 115.455643 246.327133 115.64457 Q 246.792367 115.812243 247.765342 116.142866 Q 247.935376 116.201905 249.316907 116.211352 Q 249.798671 116.213713 250.422131 115.982277 C 252.117753 115.351733 253.565408 116.183013 253.418989 118.069923 Q 253.409543 118.188003 253.338695 118.280105 Q 252.509777 119.345182 252.389336 119.482154 Q 249.215358 123.062325 248.185705 124.254928 Q 246.312964 126.427591 245.389582 127.443075 Q 244.128493 128.836413 242.569843 130.600521 Q 238.396913 135.326064 233.711518 139.768215 Q 232.299287 141.104875 231.484538 141.792098 C 230.395845 142.706033 229.491356 143.572737 228.426279 144.399294 Q 225.202708 146.909664 224.82013 147.176524 Q 221.504458 149.488521 218.287972 150.785034 Q 217.159131 151.240821 216.738768 151.413217 Q 214.124488 152.490102 211.092206 152.721538 Q 210.714352 152.749877 209.838202 152.289367 Q 208.489733 151.576166 204.160938 148.588755 Q 199.41178 145.315591 194.669707 142.030618 Q 182.354014 133.498193 179.860174 131.653791 C 177.267148 129.733818 174.93862 127.898862 173.143811 126.037929 C 172.921822 125.808855 172.959607 125.435723 173.224105 125.256243 Q 175.531379 123.683423 177.633195 121.829575 Q 182.97275 117.120564 188.010022 111.78337 Q 189.828447 109.856312 191.63034 107.96704 C 192.915045 106.620933 194.379231 104.899334 195.562388 103.628799 Q 197.017128 102.070149 197.824792 101.16566 Q 207.167243 90.739239 208.950244 88.73661 Q 209.40603 88.224145 209.722484 87.928946 C 211.4984 86.275833 214.252014 87.109474 214.842411 89.367155 C 215.080932 90.288175 215.418639 91.062777 215.709115 91.752361 Q 216.344383 93.254332 217.546432 94.633501 Q 218.283248 95.47895 220.087503 96.832142 Q 222.375884 98.549018 224.62648 100.074605 Q 225.578201 100.719319 226.728295 100.58707 Q 228.601036 100.372166 229.925889 99.026059 Q 230.218726 98.73086 231.132661 97.552427 Q 231.758483 96.749486 232.337072 96.078794 Q 234.691578 93.358242 235.083602 92.848139 C 236.028238 91.622473 237.076784 90.453486 238.115884 89.206567 Q 244.230041 81.864382 245.129807 80.775689 Q 246.27754 79.387074 248.173897 77.164818 Q 249.727823 75.346393 251.581672 73.091074 C 252.566455 71.891386 253.563046 70.701145 254.550191 69.487288 Q 255.886851 67.845982 257.263658 66.221208 Q 258.4846 64.780638 259.072636 64.036737 Q 259.951148 62.924428 260.87453 61.852266 Q 262.629191 59.818937 265.278895 56.54105 Q 265.392252 56.404077 265.883463 55.886889 C 266.171577 55.586967 266.386481 55.228005 266.629725 54.956422 C 267.874283 53.567807 269.298322 51.692705 270.377569 50.443423 Q 272.266841 48.256591 273.164245 47.094688 Q 274.163198 45.800537 274.824443 45.037743 Q 275.856458 43.852225 285.900302 31.706566 C 286.339558 31.175208 287.14486 30.062899 287.794297 29.337891 Q 288.313847 28.754578 288.580707 28.416871 C 289.400179 27.382494 290.517211 26.088343 291.447678 24.88157 Q 291.853871 24.352574 292.41593 23.717306 Q 292.765445 23.32292 294.697226 20.91646 Q 295.790642 19.556184 296.980884 18.122698 Q 298.650528 16.115347 299.354282 15.189603 Q 300.324896 13.919068 301.01448 13.132658 Q 301.451374 12.634363 302.589661 11.2056 Q 302.719548 11.045012 302.873051 10.752175 Z M 309.894059 14.707839 Q 306.028136 19.603416 302.006348 24.371466 C 301.652109 24.791829 301.231746 25.457798 300.686219 25.963178 Q 300.400466 26.227676 300.296556 26.482728 Q 300.166669 26.803904 300.485484 26.671655 Q 301.28134 26.345756 302.131512 26.170998 Q 302.622723 26.06945 304.228604 25.266509 Q 305.425931 24.666665 306.172193 24.083352 C 308.266924 22.444409 310.000331 20.066287 310.451395 17.45673 Q 310.661576 16.22398 310.685192 16.101177 Q 310.782017 15.54148 310.699362 15.114032 Q 310.604898 14.611014 310.642684 14.093825 C 310.65213 13.971023 310.508073 13.897813 310.413609 13.975746 C 310.153834 14.190651 310.066456 14.488211 309.894059 14.707839 Z" style="fill:#252625;"/>
	</g>
	<g id="surface4">
	</g>
</svg>
