<?xml version="1.0" encoding="utf-8"?>
<svg xmlns="http://www.w3.org/2000/svg" width="490pt" height="280pt" viewBox="0 0 490 280" version="1.1" xmlns:xlink="http://www.w3.org/1999/xlink">
	<g id="surface2">
		<path d="M 316.016095 98.457775 C 316.020784 98.563271 316.12628 98.635946 316.227087 98.60078 Q 319.129393 97.630219 322.556834 96.561195 Q 322.617787 96.54244 323.325781 96.383025 C 323.682122 96.303317 324.017364 96.115769 324.329163 96.024339 Q 328.764674 94.706814 331.521631 93.769074 Q 332.956373 93.281449 333.080624 93.236906 Q 334.398149 92.744592 335.340578 92.512502 C 335.701608 92.423416 336.142346 92.151472 336.496343 92.050664 Q 337.973284 91.626337 339.410371 91.01915 C 339.642462 90.920687 339.912062 91.009773 340.038657 91.230142 L 340.671632 92.327298 C 340.80526 92.559389 340.662254 92.852432 340.397342 92.887598 Q 339.665905 92.98606 339.079817 93.234562 Q 337.698995 93.818305 336.426012 94.120726 C 336.081393 94.202778 335.802415 94.416114 335.46014 94.523954 Q 333.345536 95.185061 332.028011 95.679719 C 331.495843 95.881333 330.823014 95.986829 330.274436 96.209543 Q 329.594575 96.486176 328.717787 96.713578 Q 327.871477 96.933947 327.165827 97.203547 C 326.206988 97.566922 325.18954 97.749781 324.272899 98.096745 Q 322.889732 98.621879 321.492499 98.933678 C 321.157256 99.008697 320.854835 99.217344 320.493805 99.313463 Q 318.428432 99.871418 318.07678 100.007391 Q 317.275012 100.321534 316.353682 100.448129 C 316.191922 100.469228 316.067671 100.6052 316.062982 100.769305 L 315.847302 106.137868 C 315.840269 106.29025 315.969208 106.414501 316.121591 106.405124 L 335.521093 105.171995 Q 335.582046 105.169651 335.600801 105.225915 L 336.081393 106.707545 C 336.140002 106.88806 336.013407 107.075608 335.825859 107.08733 L 315.9106 108.350935 C 315.718363 108.362656 315.558947 108.500973 315.516749 108.688521 L 314.28362 114.347784 C 314.269554 114.41577 314.32113 114.481412 314.39146 114.479067 Q 317.483659 114.387638 319.788156 114.568153 C 321.609716 114.713502 323.49223 114.66896 325.365366 114.863541 C 326.225743 114.950282 327.163483 114.88464 328.087157 114.947938 Q 331.805297 115.203472 335.687542 115.165962 C 335.802415 115.165962 335.893845 115.259736 335.889156 115.374609 L 335.818826 117.116462 C 335.814137 117.238368 335.708641 117.329798 335.589079 117.32042 Q 334.46848 117.217269 333.061869 117.109429 Q 332.614098 117.074264 320.995496 116.537407 Q 315.931699 116.302972 313.737387 116.399091 Q 313.617825 116.403779 313.577971 116.518652 Q 311.786887 121.521497 308.659523 126.053127 Q 307.22478 128.132566 305.72674 129.862697 Q 300.972397 135.357855 294.712981 139.469846 Q 291.344149 141.685257 286.606216 143.978032 Q 286.275663 144.139792 285.248837 144.559431 Q 284.573664 144.836064 284.343918 144.965004 Q 283.844571 145.243981 283.438998 145.361199 C 282.810712 145.541714 281.488499 146.212198 280.208483 146.570884 Q 279.835731 146.674035 279.627084 146.812352 C 279.240266 147.070231 278.839382 147.086641 278.330658 147.283566 C 277.800835 147.489869 277.317899 147.501591 276.917015 147.733682 C 276.473933 147.989216 275.990996 147.993905 275.505716 148.202552 Q 275.179851 148.340869 274.567975 148.429954 C 274.127238 148.493251 273.759174 148.744097 273.32547 148.851937 Q 273.076968 148.91289 271.173356 149.377072 Q 271.154601 149.38176 270.716207 149.447402 C 270.43723 149.4896 270.195761 149.665427 269.944916 149.717002 Q 267.464593 150.23276 266.020473 150.500016 C 265.66882 150.563313 265.394531 150.739139 265.059289 150.776649 Q 263.835538 150.91731 262.428928 151.208009 Q 261.882694 151.322883 261.305984 151.311161 C 261.193455 151.308817 261.116091 151.346326 261.027006 151.409624 Q 260.973086 151.447133 260.916821 151.456511 Q 258.959289 151.782375 258.347413 151.78472 C 257.730849 151.787064 257.086152 152.009777 256.28204 152.023844 C 255.836614 152.030877 255.442763 152.223113 254.990303 152.213736 Q 253.942378 152.194981 252.826467 152.328609 Q 251.314361 152.50678 250.74234 152.488025 Q 249.65925 152.450515 248.658212 152.570077 Q 247.701717 152.682606 246.578773 152.687295 Q 243.519395 152.694328 242.501947 152.666196 C 242.124506 152.654474 241.646259 152.504435 241.191455 152.502091 C 239.543376 152.492714 238.685344 152.546634 237.339687 152.319232 C 236.455866 152.169193 235.332923 152.314543 234.357673 152.063697 C 233.792684 151.916003 233.244106 152.068386 232.627542 151.878494 Q 232.318088 151.78472 231.598372 151.758932 Q 231.305328 151.74721 230.555136 151.604205 C 230.109709 151.519808 229.596296 151.550285 229.16728 151.468232 Q 228.874236 151.411968 227.221469 151.158778 Q 223.599447 150.600823 222.117818 150.216349 C 221.362937 150.019424 220.28688 149.874074 219.536688 149.665427 Q 217.131384 149.001975 216.102214 148.71362 Q 211.129846 147.321076 208.391645 146.148901 Q 207.083497 145.588601 206.401291 145.311968 Q 200.242682 142.817578 194.311474 138.916579 C 193.816816 138.590714 192.942374 137.922574 192.440683 137.587332 Q 190.583957 136.347171 187.491758 133.522228 Q 183.904902 130.244826 181.047138 126.017961 Q 179.033341 123.040636 177.127384 118.956777 Q 177.061742 118.816116 176.897638 118.356623 C 176.667891 117.721304 176.388913 117.123495 176.152134 116.47411 Q 176.109936 116.363925 175.992718 116.363925 Q 173.606169 116.359237 171.843217 116.443633 C 168.469697 116.603049 165.686953 116.748399 162.60882 116.85155 C 161.621848 116.884371 160.58799 117.015655 159.577575 117.03441 Q 157.273078 117.078952 154.19729 117.393095 C 154.077728 117.404817 153.974577 117.308699 153.979265 117.189137 L 154.056629 115.276147 C 154.058973 115.205816 154.129304 115.156585 154.19729 115.177684 C 154.909973 115.414463 155.821925 115.196439 156.358781 115.196439 Q 158.386645 115.194094 161.300672 115.020612 Q 164.934416 114.804932 169.66766 114.654894 C 171.025039 114.612695 173.07869 114.429836 175.071388 114.479067 Q 175.277691 114.483756 175.380843 114.462657 C 175.500405 114.436869 175.549636 114.296208 175.474617 114.20009 C 175.181573 113.827338 175.235493 113.342057 175.151096 113.013848 Q 174.647061 111.063348 174.489989 109.92165 C 174.443102 109.574686 174.225078 109.337906 174.281342 108.965155 C 174.32354 108.679144 174.112549 108.416577 173.821849 108.395477 L 153.740142 107.031065 Q 153.69091 107.028721 153.702632 106.981834 L 154.098827 105.155585 Q 154.117582 105.073532 154.201979 105.071188 Q 155.048289 105.043056 155.850057 105.155585 Q 156.984723 105.317345 157.362163 105.343133 C 158.067813 105.394709 158.689066 105.542403 159.401748 105.547091 Q 160.498905 105.554124 161.216276 105.638521 C 162.519735 105.795592 163.602825 105.748705 164.899251 105.910466 C 166.001096 106.048782 167.281111 105.957353 168.300904 106.147245 C 169.189412 106.313694 170.17404 106.226953 171.135224 106.393402 Q 172.007322 106.545785 173.866392 106.501242 C 173.967199 106.498898 174.035185 106.400435 174.004709 106.304317 C 173.789029 105.633832 173.845293 105.218882 173.812472 104.119382 C 173.774962 102.921419 173.58507 101.95789 173.631957 100.867767 C 173.634301 100.802126 173.592103 100.743517 173.526461 100.724762 Q 171.4353 100.138674 169.362894 99.425992 C 169.001864 99.301741 168.535339 99.287675 168.125077 99.060273 C 167.719505 98.832871 167.292833 98.861003 166.917737 98.659389 C 166.484032 98.424954 165.813548 98.40151 165.274347 98.174108 Q 164.188912 97.719304 163.478574 97.580988 C 162.622886 97.414539 161.959435 97.039443 161.11078 96.797975 Q 159.472079 96.331449 158.295215 95.848513 C 157.967006 95.71254 157.495791 95.710196 157.108973 95.541403 C 155.770349 94.952971 154.483301 94.664615 153.170464 94.148858 Q 152.44606 93.862848 152.272578 93.832371 C 151.262163 93.649512 150.336144 92.967306 149.335107 92.885253 Q 148.854515 92.845399 149.063162 92.411694 L 149.607051 91.281717 Q 149.815698 90.850357 150.263469 91.01915 Q 151.702901 91.560695 152.48357 91.820918 Q 156.590872 93.197052 157.39264 93.499473 Q 157.89902 93.69171 158.576537 93.881602 C 159.530688 94.148858 160.456706 94.587252 161.396791 94.809965 C 162.090719 94.97407 162.871387 95.370265 163.60048 95.56719 Q 163.879458 95.64221 165.740873 96.249397 Q 170.420197 97.773224 171.643948 98.206929 Q 172.408206 98.47653 172.945062 98.565615 Q 173.06228 98.58437 173.151365 98.664078 Q 173.348291 98.839904 173.573348 98.830527 Q 173.699943 98.825838 173.711665 98.699243 Q 173.83826 97.377029 173.817161 95.079566 Q 173.814816 94.765423 173.941411 94.303585 C 174.121926 93.6542 173.995331 92.828989 174.14537 92.315576 C 174.30713 91.755276 174.264932 91.211387 174.396215 90.606544 Q 174.513433 90.067344 174.532188 89.931371 Q 174.70567 88.784984 175.172195 86.412501 Q 175.68092 83.810272 176.016162 82.631063 Q 176.023195 82.60762 176.173233 81.845706 C 176.250597 81.444822 176.428767 81.039249 176.524886 80.704007 Q 178.222196 74.674337 180.845524 69.44878 Q 183.227384 64.706158 186.589183 59.949471 C 186.734533 59.740823 186.769698 59.5017 186.708745 59.267265 Q 186.211743 57.354274 185.918699 55.619455 Q 185.871812 55.349855 185.787415 55.110731 Q 185.674886 54.791899 185.639721 54.602007 Q 184.25421 47.08133 183.691566 42.988093 Q 183.192219 39.368416 182.753826 33.493473 Q 182.643641 32.004811 182.723349 22.857154 C 182.732726 21.565417 182.950751 20.039245 182.983572 18.923334 C 182.999982 18.3771 183.189875 17.844932 183.192219 17.233057 Q 183.194563 16.918914 183.246139 16.553195 Q 183.311781 16.089014 183.536839 14.476101 Q 183.689221 13.378944 183.90959 12.410728 Q 184.298753 10.694663 184.394871 10.319567 Q 184.610551 9.466223 184.915317 8.603502 C 185.409975 7.199236 185.794448 5.846546 186.891604 4.932249 C 187.533957 4.400081 189.006209 4.840819 189.646216 5.244048 C 190.108054 5.534747 190.809014 5.68713 191.338838 6.059882 C 191.999945 6.524063 193.066624 7.025754 193.795717 7.560266 C 194.681882 8.211996 195.50006 8.622257 196.412013 9.330251 Q 199.951982 12.075485 200.582612 12.635785 Q 203.944411 15.617799 206.85375 18.735786 Q 208.025926 19.994702 210.803981 23.321336 Q 212.377041 25.203849 213.729731 26.990244 Q 216.770354 31.008462 219.05844 34.26242 Q 219.424159 34.78521 219.658594 35.050122 C 219.803944 35.211882 219.841453 35.366609 219.94226 35.563535 Q 219.99618 35.669031 220.115742 35.687785 Q 220.54007 35.751083 220.821392 35.65262 Q 221.320739 35.481483 221.339493 35.476794 Q 225.022468 34.675026 226.78542 34.393704 Q 227.903675 34.217878 227.971661 34.201467 Q 228.543683 34.072528 229.061784 34.051429 Q 229.572853 34.032674 229.800255 33.948277 C 230.39572 33.727908 231.06386 33.877947 231.654636 33.727908 C 232.447027 33.528638 233.295682 33.681021 233.96851 33.505195 C 234.847642 33.275449 235.586112 33.364534 236.669202 33.221529 C 238.007827 33.048047 239.318319 33.181675 240.617089 33.043358 C 243.036459 32.783135 244.586075 32.888631 248.051025 32.898008 Q 249.338073 32.900353 250.458673 33.038669 C 251.724622 33.193396 253.044492 32.996471 254.310441 33.242628 C 255.12862 33.399699 255.92101 33.28717 256.762632 33.488785 C 257.381541 33.636479 258.138766 33.545049 258.839727 33.753696 C 259.282809 33.887324 259.782156 33.784173 260.281502 33.906079 Q 260.755061 34.023296 261.671702 34.10066 C 261.863939 34.119415 262.04211 34.267109 262.227313 34.269453 Q 263.261172 34.283519 264.187191 34.604695 Q 264.646683 34.761767 265.066322 34.764111 C 265.530504 34.7688 265.788382 35.014957 266.233809 35.010268 C 266.95118 35.003235 267.476315 35.418185 268.174931 35.465072 Q 268.514862 35.486171 268.953256 35.673719 C 269.199412 35.779215 269.485423 35.69013 269.626084 35.462728 Q 270.509904 34.04674 271.84384 32.145472 Q 272.340842 31.437478 272.436961 31.289784 Q 272.685462 30.893588 273.032426 30.441129 Q 273.581004 29.716724 275.791727 26.776909 Q 279.308253 22.104618 283.603103 17.652696 Q 286.52182 14.628483 289.850798 11.826984 Q 290.769783 11.053349 293.346224 9.15208 Q 294.063596 8.619913 294.715325 8.233095 Q 295.976586 7.475869 296.136002 7.407883 Q 296.157101 7.398506 296.595494 7.070297 C 297.111252 6.685823 297.89192 6.460766 298.316248 6.207576 Q 298.700721 5.977829 299.188346 5.81138 C 300.515249 5.358921 301.774165 4.845508 302.742382 6.231019 Q 303.140922 6.798352 303.232351 6.995278 Q 304.226356 9.114571 304.442036 9.824909 Q 305.396187 12.947584 305.933043 16.117146 Q 306.21671 17.788668 306.392536 20.261958 C 306.659792 23.982443 306.870783 27.80139 306.687924 30.898277 Q 306.530853 33.530983 306.528508 34.196778 Q 306.52382 35.950353 306.343305 37.324142 Q 306.319861 37.504657 306.061982 40.451506 C 306.01744 40.978985 305.846302 41.551007 305.827547 42.033943 Q 305.80176 42.734904 305.65641 43.168608 C 305.541537 43.520261 305.597801 44.157924 305.51106 44.699469 Q 305.232082 46.478832 304.425626 51.23083 Q 304.245111 52.304543 303.926279 53.746319 Q 303.710599 54.730946 303.412866 56.259463 Q 303.321437 56.728333 303.054181 57.816112 Q 302.861944 58.594436 302.742382 59.389171 C 302.662674 59.904928 302.986194 60.001046 303.19953 60.310501 Q 304.106794 61.63037 305.009369 62.952584 Q 305.0797 63.053391 305.525126 63.79655 C 305.731429 64.138825 306.092459 64.539709 306.289384 64.914805 Q 306.472244 65.264114 307.259946 66.623837 Q 309.020553 69.666804 310.127087 72.301854 Q 310.347456 72.829333 310.490461 73.131754 Q 310.771783 73.724875 310.849147 73.95931 Q 311.191422 74.997858 311.355526 75.356543 Q 311.70249 76.104391 311.857217 76.648281 Q 312.065865 77.384407 312.24638 77.977527 C 312.31671 78.211962 312.555834 78.434676 312.588655 78.605813 Q 312.912175 80.211694 313.395111 81.472954 Q 313.559216 81.90197 313.575626 82.190326 C 313.592037 82.51619 313.777241 82.76938 313.845227 83.123377 Q 314.058563 84.243977 314.405527 85.432562 Q 314.478201 85.683408 314.848609 88.032447 Q 314.918939 88.473185 315.172129 89.79071 Q 315.322168 90.573724 315.451107 91.560695 Q 315.875434 94.847475 316.016095 98.457775 Z M 212.775088 87.731784 C 213.021737 86.314038 212.027732 84.956659 210.553159 84.700047 C 209.078539 84.443247 207.683651 85.383331 207.435642 86.799905 C 207.188993 88.217651 208.182997 89.57503 209.65757 89.831643 C 211.13219 90.088443 212.527079 89.148358 212.775088 87.731784 Z M 279.971282 88.118251 C 280.250682 86.653969 279.186346 85.221571 277.593782 84.91772 C 276.000374 84.614384 274.483579 85.554469 274.205023 87.018281 C 273.925623 88.482563 274.989959 89.914961 276.582523 90.218812 C 278.175931 90.522148 279.692726 89.582063 279.971282 88.118251 Z M 204.289031 88.358312 C 204.342951 87.98556 204.657094 87.629219 204.797755 87.202547 Q 204.830576 87.097051 204.900906 87.010311 L 205.233804 86.593016 C 205.365088 86.431256 205.24787 86.187443 205.039223 86.187443 Q 203.137955 86.18041 201.243719 86.457044 C 200.298946 86.59536 198.873581 87.113462 198.407055 87.950395 Q 197.415395 89.725069 197.853788 91.985023 C 198.273427 94.14417 199.011897 95.902433 200.352866 97.60912 Q 203.360668 101.444478 208.110322 102.818267 C 208.597947 102.958928 209.024619 102.907352 209.451291 103.050358 C 210.325734 103.343402 211.310361 103.214462 212.473159 103.205085 C 212.95844 103.200396 213.422621 102.972994 213.872736 102.975339 Q 214.435381 102.980027 214.883152 102.769036 Q 214.927694 102.747937 216.038916 102.417383 C 218.42781 101.704701 220.776849 99.43068 221.988878 97.412194 Q 222.502291 96.556506 222.886765 95.454662 Q 223.409555 93.949589 223.475197 93.375223 Q 223.608825 92.214769 223.529117 90.913654 C 223.479885 90.072032 222.713283 89.567997 221.977157 89.310119 Q 220.446296 88.775607 218.678655 88.538827 C 218.540339 88.520072 218.42781 88.644323 218.458286 88.780295 Q 218.833382 90.397897 218.587226 92.266345 Q 218.559093 92.482025 218.458286 92.721149 C 218.305904 93.082179 218.247295 93.506506 218.087879 93.841748 Q 216.831307 96.493209 214.362706 97.50128 Q 211.802675 98.54686 209.031652 97.843555 C 205.442451 96.933947 203.599792 93.513539 203.852982 90.015768 C 203.89518 89.415614 204.214012 88.883447 204.289031 88.358312 Z M 277.022511 97.956084 Q 276.88185 97.864654 276.832618 97.857621 Q 275.822203 97.693517 275.369743 97.44736 Q 270.85218 94.992825 271.145223 89.739135 Q 271.166323 89.335906 271.39138 88.855314 C 271.475777 88.672455 271.318705 88.468497 271.119436 88.503662 Q 269.150181 88.845937 267.438805 89.389826 Q 266.076737 89.823531 265.978275 91.152778 Q 265.872779 92.585176 266.358059 94.235599 Q 266.848029 95.904777 267.155139 96.500242 C 268.505485 99.118882 270.688075 101.296784 273.402833 102.396284 Q 274.481234 102.832333 274.921972 102.881565 C 275.847991 102.982372 276.701335 103.226184 277.545301 103.219151 C 278.314248 103.212118 279.038652 103.254316 279.662249 103.099589 C 280.257715 102.949551 280.735962 103.00816 281.300951 102.790135 Q 281.589306 102.677606 282.023011 102.565077 C 285.377776 101.692979 288.287116 99.308774 290.122742 96.375991 Q 291.283196 94.523954 291.667669 91.839673 Q 291.895071 90.268958 291.433234 88.766229 C 290.96202 87.223646 289.738269 86.79463 288.27305 86.510964 C 287.229813 86.30935 285.825547 86.332793 284.887807 86.332793 C 284.669783 86.332793 284.538499 86.571917 284.653372 86.757121 Q 285.253526 87.713616 285.598145 88.787328 Q 285.848991 89.572686 285.895878 90.625299 Q 285.963864 92.15616 285.884156 92.493747 Q 285.019091 96.165 281.835463 97.513002 Q 279.873241 98.34759 277.20537 98.038136 Q 277.132695 98.028759 277.022511 97.956084 Z M 250.8687 104.959456 C 250.845491 102.316576 248.100256 100.197283 244.738879 100.225603 C 241.376659 100.255892 238.668934 102.422072 238.692611 105.065702 C 238.715821 107.708583 241.461055 109.827876 244.822432 109.799556 C 248.184653 109.769267 250.892378 107.603087 250.8687 104.959456 Z" style="fill:#181917;"/>
	</g>
	<g id="surface4">
	</g>
</svg>
