<?xml version="1.0" encoding="utf-8"?>
<svg xmlns="http://www.w3.org/2000/svg" width="490pt" height="280pt" viewBox="0 0 490 280" version="1.1" xmlns:xlink="http://www.w3.org/1999/xlink">
	<g id="surface2">
		<path vector-effect="non-scaling-stroke" d="M 245.052882 22.543927 Q 245.212281 23.336989 245.790842 24.320936" style="fill:none;stroke-width:0.50;stroke:#ca6040;"/>
		<path vector-effect="non-scaling-stroke" d="M 245.790842 24.320936 L 244.436931 27.007112" style="fill:none;stroke-width:0.50;stroke:#e7ae96;"/>
		<path vector-effect="non-scaling-stroke" d="M 244.436931 27.007112 Q 244.338536 26.863456 244.220462 26.755222 Q 244.064999 26.613533 243.99809 26.517107 Q 241.522479 22.963089 238.108181 20.345789 Q 237.663437 20.005343 237.858259 20.530771 Q 238.05308 21.058167 238.529311 21.691829 C 238.592283 21.77448 238.598187 21.888618 238.545054 21.979141 C 236.925477 24.708611 236.096993 27.975317 236.459086 31.145595 Q 236.531898 31.765482 236.610613 32.405048" style="fill:none;stroke-width:0.50;stroke:#a2532f;"/>
		<path vector-effect="non-scaling-stroke" d="M 236.610613 32.405048 Q 234.178296 32.576254 231.85618 32.847824 Q 217.807379 34.491016 207.710111 44.417077 Q 204.069506 47.996678 201.38333 52.310303 Q 196.992957 59.359302 196.152665 67.482771 C 195.668563 72.150618 196.388813 76.907019 197.949353 81.378076 Q 199.263907 85.140691 201.759198 89.363793 Q 206.342424 97.117298 212.348439 103.888824" style="fill:none;stroke-width:0.50;stroke:#e7ae96;"/>
		<path vector-effect="non-scaling-stroke" d="M 212.348439 103.888824 Q 211.559313 104.321761 210.404159 103.851434 Q 207.899029 102.828129 207.109903 102.544752 Q 206.680902 102.389288 206.066919 102.438486 Q 205.956717 102.446357 205.879969 102.523105 L 205.63595 102.767124 C 205.53362 102.869455 205.37422 102.887166 205.250243 102.812386 C 204.512282 102.357802 203.713317 101.810727 203.058008 101.255781 C 201.26132 99.73263 199.2521 98.176026 197.437701 96.570224 Q 194.460276 93.933245 192.964676 92.599012 Q 191.266383 91.081765 190.130908 89.950226 Q 186.403715 86.236808 182.198324 81.545347 C 181.035298 80.246537 180.124163 79.002827 179.073307 77.749278 Q 178.540008 77.11168 177.845341 76.106086 C 176.932238 74.781693 176.578016 73.955177 175.552743 73.415974 Q 175.131614 73.193602 174.899402 72.93384 Q 174.007946 71.926278 173.110586 70.924619" style="fill:none;stroke-width:0.50;stroke:#ca6040;"/>
		<path vector-effect="non-scaling-stroke" d="M 238.499792 124.352962 C 239.239721 123.186 238.692646 121.483771 237.456808 120.966215 Q 233.930341 119.496197 231.885698 118.382369 Q 231.767625 118.317428 231.877827 118.242648 Q 231.903409 118.224937 231.932928 118.217066 Q 231.976221 118.20329 232.066745 118.258391 C 233.757166 119.307279 235.538111 120.188896 237.49223 120.647416 Q 238.879596 120.974086 239.723823 121.161036 Q 241.929833 121.651042 244.096485 121.794698 C 246.461895 121.954098 248.077536 122.028878 250.053302 121.342083" style="fill:none;stroke-width:0.50;stroke:#f2e2c8;"/>
		<path vector-effect="non-scaling-stroke" d="M 250.053302 121.342083 Q 250.35439 121.34405 250.633831 121.086256 Q 256.445025 115.686353 261.396248 110.107371 Q 262.697026 108.643258 264.922715 105.583181 C 265.12344 105.307676 265.517019 104.876707 265.776781 104.784216 Q 268.281911 103.888824 269.305217 103.503117 C 272.672285 102.233825 275.624127 100.750032 278.489381 98.681775 C 282.267739 95.95624 285.77256 93.07721 288.944806 89.588133 Q 289.609955 88.854108 291.024871 86.898021 Q 293.120679 83.997344 294.084947 80.960882 Q 295.956415 75.069006 292.725132 70.107943 C 290.603741 66.847141 287.209123 64.67065 283.334338 64.44631 Q 278.339821 64.157029 275.549347 68.716641 Q 275.482438 68.826843 275.413562 68.716641 L 275.244323 68.449008" style="fill:none;stroke-width:0.50;stroke:#eed3b0;"/>
		<path vector-effect="non-scaling-stroke" d="M 275.244323 68.449008 Q 274.917653 67.915708 274.567367 67.297789 C 273.103254 64.715911 270.253742 62.944806 267.595116 61.756198 C 263.352335 59.857179 258.62742 58.68825 253.975317 58.01523 C 249.3547 57.346146 245.749517 57.196586 240.684156 56.96831 Q 239.220042 56.903369 236.327237 57.102127 Q 236.010406 57.123773 235.666024 57.235943 Q 235.207505 57.383536 235.002843 57.393375 C 232.800769 57.493738 229.945354 57.352049 227.788541 57.511449 Q 224.582841 57.745628 221.853371 58.151015 Q 220.869423 58.296639 219.887444 58.520979" style="fill:none;stroke-width:0.50;stroke:#f2e2c8;"/>
		<path vector-effect="non-scaling-stroke" d="M 219.887444 58.520979 Q 219.354144 58.56624 218.822813 58.680378 Q 215.077909 59.483279 211.638029 60.888356 Q 210.081424 61.523986 208.430361 62.685044 C 206.765522 63.853973 205.740249 65.304312 205.143977 67.201362 Q 204.714976 68.565113 204.594934 69.507735 C 203.624762 77.204171 205.797318 84.969484 208.737352 92.042098 C 210.443517 96.149094 212.657399 100.120306 215.400644 103.609383 Q 220.475844 110.068014 227.463839 114.462323" style="fill:none;stroke-width:0.50;stroke:#eed3b0;"/>
		<path vector-effect="non-scaling-stroke" d="M 227.463839 114.462323 C 228.109308 115.233737 228.878755 115.816234 229.585229 116.52074 Q 229.658041 116.593553 229.959129 117.16621 Q 230.020134 117.280348 229.898125 117.239022 L 228.585539 116.790342 Q 228.487144 116.756888 228.45369 116.853315 L 228.380878 117.069783 Q 228.351359 117.152435 228.4163 117.211471 Q 229.008636 117.742803 229.354986 118.433534" style="fill:none;stroke-width:0.50;stroke:#f2e2c8;"/>
		<path vector-effect="non-scaling-stroke" d="M 212.348439 103.888824 Q 213.448492 105.043978 214.595775 106.234555 Q 221.270874 113.169416 229.354986 118.433534" style="fill:none;stroke-width:0.50;stroke:#dba690;"/>
		<path vector-effect="non-scaling-stroke" d="M 229.354986 118.433534 L 238.499792 124.352962" style="fill:none;stroke-width:0.50;stroke:#d59472;"/>
		<path vector-effect="non-scaling-stroke" d="M 238.499792 124.352962 L 244.728179 129.097556 C 244.826574 129.172336 244.964327 129.172336 245.062721 129.097556 Q 246.786597 127.783002 248.677744 126.535357 C 252.078266 124.291957 254.975007 121.507386 258.086249 118.929444 C 263.820694 114.17501 269.47052 109.674435 274.380417 104.79012 C 275.411594 103.764847 276.371927 102.57427 277.357842 101.468314 Q 277.548728 101.253813 277.755357 101.127868 Q 285.902441 96.082186 292.120988 88.730131 C 296.91478 83.062594 299.555695 75.389772 294.803229 68.734352 Q 294.206957 67.901933 293.309597 66.794008 Q 293.156101 66.607058 293.13839 66.41814 Q 292.699549 61.740455 290.824146 57.401247 C 288.391828 51.765196 284.580016 46.646702 279.866908 42.470829 Q 274.47094 37.686877 267.667928 35.205362 Q 261.3195 32.887182 254.500745 32.678585" style="fill:none;stroke-width:0.50;stroke:#dba690;"/>
		<path vector-effect="non-scaling-stroke" d="M 254.500745 32.678585 Q 254.006803 31.69267 253.567962 30.509965 Q 253.410531 30.082932 252.408872 28.339377 Q 251.771275 27.227517 250.986085 26.300638 Q 249.248434 24.248124 247.758737 22.907988 Q 247.258892 22.45734 246.61539 22.091311 Q 246.389082 21.963398 246.320206 22.213321 Q 246.164742 22.780074 246.296591 23.283855" style="fill:none;stroke-width:0.50;stroke:#964c29;"/>
		<path vector-effect="non-scaling-stroke" d="M 246.296591 23.283855 L 245.790842 24.320936" style="fill:none;stroke-width:0.50;stroke:#dba690;"/>
		<path vector-effect="non-scaling-stroke" d="M 244.436931 27.007112 Q 244.846253 27.876922 245.289029 28.77625 C 249.16775 36.66554 248.301876 46.733289 241.538222 52.853442 Q 240.522788 53.772449 239.690369 54.455308 Q 239.283015 54.78985 239.759245 54.56551 Q 245.257543 51.981664 248.90602 47.382694 Q 252.627309 42.693201 252.460038 36.785581 C 252.314414 31.663151 249.907678 26.875263 246.296591 23.283855" style="fill:none;stroke-width:0.50;stroke:#b39a7f;"/>
		<path vector-effect="non-scaling-stroke" d="M 254.500745 32.678585 Q 255.461077 36.102722 255.313485 38.958137 C 255.093081 43.212726 253.133058 47.17213 249.992298 50.12594 C 246.152935 53.738995 241.376855 55.760022 236.15603 56.749873 Q 235.984823 56.783328 236.055667 56.62196 Q 236.244585 56.194927 236.608646 55.79938 Q 236.630292 55.775766 238.570637 53.876747 Q 243.494309 49.061309 245.542888 42.606614 Q 246.455991 39.725616 246.548482 36.395938 Q 246.66262 32.224001 244.549101 28.870709 C 243.541539 27.272778 242.067586 25.367856 240.509013 23.929325 C 240.448008 23.874224 240.353549 23.886031 240.308288 23.95294 C 237.545363 28.042225 238.718229 33.760927 240.107562 38.216241 Q 241.010826 41.107078 241.675975 43.334735 Q 242.012485 44.454467 242.199435 45.454158 Q 242.280118 45.881191 242.004613 45.544681 Q 241.817663 45.318373 241.685814 44.975959 Q 241.677942 44.95628 238.509632 37.70262 Q 237.368253 35.087288 236.610613 32.405048" style="fill:none;stroke-width:0.50;stroke:#b39a7f;"/>
		<path vector-effect="non-scaling-stroke" d="M 275.244323 68.449008 Q 275.19119 68.826843 275.26597 69.220422 Q 275.364365 69.753722 275.360429 69.974126 C 275.242355 76.48589 269.04939 80.520074 263.51567 82.263629 C 260.512663 83.210186 257.588371 83.834009 254.31773 84.392891 Q 252.778837 84.656589 250.407524 84.833699 Q 244.930872 85.246957 244.066967 85.260732 Q 237.291505 85.361095 230.860425 84.632974 Q 224.096771 83.867463 217.551553 81.195062 C 214.745335 80.051715 212.279563 78.506918 209.996805 76.653161 C 209.19784 76.003756 208.434297 75.124107 207.816378 74.374339 Q 206.785201 73.122758 206.509696 72.467449 C 204.825178 68.441136 207.531033 64.761173 210.90794 62.862155 Q 213.391423 61.464949 216.18977 60.626626 C 219.060928 59.764688 220.540785 59.412435 221.672324 58.91259 Q 221.741201 58.883071 221.737265 58.794516 Q 221.737265 58.768933 221.719554 58.717768 Q 221.6861 58.617406 221.581801 58.611502 L 219.887444 58.520979" style="fill:none;stroke-width:0.50;stroke:#e8c193;"/>
		<path vector-effect="non-scaling-stroke" d="M 250.053302 121.342083 Q 246.879088 121.037059 244.94268 120.704485 C 238.895339 119.6615 233.121536 117.341353 227.463839 114.462323" style="fill:none;stroke-width:0.50;stroke:#e8c193;"/>
		<path vector-effect="non-scaling-stroke" d="M 244.90529 127.78497 Q 244.251949 127.973888 244.021705 127.969952 Q 243.210932 127.952241 243.942989 128.290719 Q 244.240141 128.428472 244.8679 128.398953 Q 245.403167 128.375338 245.613732 127.879429 Q 245.655058 127.78497 245.566502 127.731837 Q 245.320516 127.576373 245.113887 127.680672 Q 244.919065 127.779066 244.90529 127.78497" style="fill:none;stroke-width:0.50;stroke:#f2e2c8;"/>
		<path vector-effect="non-scaling-stroke" d="M 208.00136 72.593394 Q 209.119124 74.45699 210.852839 75.73809 C 213.881429 77.975586 217.480709 79.414117 221.048502 80.344931 Q 227.302471 81.978284 234.0248 82.484033 Q 244.070902 83.241672 253.605352 81.990091 Q 258.082313 81.401691 262.689155 80.057619 C 265.479629 79.240942 268.27404 78.003137 270.493825 76.110022 Q 272.05043 74.783661 272.640798 72.985005" style="fill:none;stroke-width:0.50;stroke:#a2805f;"/>
		<path vector-effect="non-scaling-stroke" d="M 272.640798 72.985005 C 273.965191 68.996082 270.745716 65.875001 267.55379 64.033052 C 265.02111 62.572874 261.951194 61.457078 259.105618 60.799801 C 250.832589 58.892911 242.449357 58.554433 233.786685 58.967691 C 227.180462 59.282554 220.851712 60.260598 214.704009 62.378052 Q 212.131971 63.265573 209.984998 64.733622 C 207.637299 66.341392 206.903274 68.937046 207.578262 71.623222 Q 207.635331 71.84953 208.00136 72.593394" style="fill:none;stroke-width:0.50;stroke:#ad8861;"/>
		<path vector-effect="non-scaling-stroke" d="M 272.640798 72.985005 Q 272.076013 72.341503 271.587975 71.668483 Q 270.940537 70.778995 270.509568 70.383448 Q 267.510497 67.634299 263.358239 66.882563 C 259.324055 66.152475 255.445334 66.449627 251.277333 66.878628 Q 242.469036 67.783859 232.981816 69.623841 C 228.992893 70.397223 225.314898 71.333941 220.981593 72.331664 Q 217.095001 73.229024 212.86206 73.323483 Q 210.817417 73.368745 209.886603 73.219185 Q 209.349368 73.134565 208.00136 72.593394" style="fill:none;stroke-width:0.50;stroke:#633816;"/>
		<path vector-effect="non-scaling-stroke" d="M 271.141263 95.55479 C 270.51744 96.843761 269.789319 98.280324 269.832612 98.35904 C 269.852291 98.39643 269.895585 98.416109 269.934943 98.404301 Q 271.312469 98.036305 272.615216 97.420354 Q 279.727187 94.051318 284.424552 87.824899 C 287.657803 83.536857 289.417101 77.375378 286.787994 72.321825 Q 286.172043 71.135184 285.028696 70.324411 C 283.584261 69.301106 281.380219 70.377545 280.256551 71.412657 Q 277.950178 73.536016 276.909162 76.417014 C 276.271564 78.180247 275.913407 80.982529 275.549347 82.635561 C 274.571303 87.084971 273.126868 91.451729 271.141263 95.55479" style="fill:none;stroke-width:0.50;stroke:#eed3b0;"/>
		<path d="M 245.052882 22.543927 Q 245.212281 23.336989 245.790842 24.320936 L 244.436931 27.007112 Q 244.338536 26.863456 244.220462 26.755222 Q 244.064999 26.613533 243.99809 26.517107 Q 241.522479 22.963089 238.108181 20.345789 Q 237.663437 20.005343 237.858259 20.530771 Q 238.05308 21.058167 238.529311 21.691829 C 238.592283 21.77448 238.598187 21.888618 238.545054 21.979141 C 236.925477 24.708611 236.096993 27.975317 236.459086 31.145595 Q 236.531898 31.765482 236.610613 32.405048 Q 234.178296 32.576254 231.85618 32.847824 Q 217.807379 34.491016 207.710111 44.417077 Q 204.069506 47.996678 201.38333 52.310303 Q 196.992957 59.359302 196.152665 67.482771 C 195.668563 72.150618 196.388813 76.907019 197.949353 81.378076 Q 199.263907 85.140691 201.759198 89.363793 Q 206.342424 97.117298 212.348439 103.888824 Q 211.559313 104.321761 210.404159 103.851434 Q 207.899029 102.828129 207.109903 102.544752 Q 206.680902 102.389288 206.066919 102.438486 Q 205.956717 102.446357 205.879969 102.523105 L 205.63595 102.767124 C 205.53362 102.869455 205.37422 102.887166 205.250243 102.812386 C 204.512282 102.357802 203.713317 101.810727 203.058008 101.255781 C 201.26132 99.73263 199.2521 98.176026 197.437701 96.570224 Q 194.460276 93.933245 192.964676 92.599012 Q 191.266383 91.081765 190.130908 89.950226 Q 186.403715 86.236808 182.198324 81.545347 C 181.035298 80.246537 180.124163 79.002827 179.073307 77.749278 Q 178.540008 77.11168 177.845341 76.106086 C 176.932238 74.781693 176.578016 73.955177 175.552743 73.415974 Q 175.131614 73.193602 174.899402 72.93384 Q 174.007946 71.926278 173.110586 70.924619 Q 168.076711 61.140247 167.092764 50.16333 Q 166.956979 48.638211 167.019952 44.950377 Q 167.061278 42.561352 167.27381 41.024427 Q 168.383703 32.965898 172.429694 26.115656 Q 177.7804 17.057437 186.30532 11.077004 C 193.090621 6.316667 201.119632 3.852863 209.378886 3.937482 Q 211.62819 3.959129 213.308772 4.09885 C 223.522146 4.94898 232.983783 10.024181 240.257122 17.206997 Q 242.697312 19.6157 245.052882 22.543927 Z" style="fill:#d66746;"/>
		<path d="M 173.110586 70.924619 Q 174.007946 71.926278 174.899402 72.93384 Q 175.131614 73.193602 175.552743 73.415974 C 176.578016 73.955177 176.932238 74.781693 177.845341 76.106086 Q 178.540008 77.11168 179.073307 77.749278 C 180.124163 79.002827 181.035298 80.246537 182.198324 81.545347 Q 186.403715 86.236808 190.130908 89.950226 Q 191.266383 91.081765 192.964676 92.599012 Q 194.460276 93.933245 197.437701 96.570224 C 199.2521 98.176026 201.26132 99.73263 203.058008 101.255781 C 203.713317 101.810727 204.512282 102.357802 205.250243 102.812386 C 205.37422 102.887166 205.53362 102.869455 205.63595 102.767124 L 205.879969 102.523105 Q 205.956717 102.446357 206.066919 102.438486 Q 206.680902 102.389288 207.109903 102.544752 Q 207.899029 102.828129 210.404159 103.851434 Q 211.559313 104.321761 212.348439 103.888824 Q 213.448492 105.043978 214.595775 106.234555 Q 221.270874 113.169416 229.354986 118.433534 L 238.499792 124.352962 L 244.728179 129.097556 C 244.826574 129.172336 244.964327 129.172336 245.062721 129.097556 Q 246.786597 127.783002 248.677744 126.535357 C 252.078266 124.291957 254.975007 121.507386 258.086249 118.929444 C 263.820694 114.17501 269.47052 109.674435 274.380417 104.79012 C 275.411594 103.764847 276.371927 102.57427 277.357842 101.468314 Q 277.548728 101.253813 277.755357 101.127868 Q 285.902441 96.082186 292.120988 88.730131 C 296.91478 83.062594 299.555695 75.389772 294.803229 68.734352 Q 294.206957 67.901933 293.309597 66.794008 Q 293.156101 66.607058 293.13839 66.41814 Q 292.699549 61.740455 290.824146 57.401247 C 288.391828 51.765196 284.580016 46.646702 279.866908 42.470829 Q 274.47094 37.686877 267.667928 35.205362 Q 261.3195 32.887182 254.500745 32.678585 Q 254.006803 31.69267 253.567962 30.509965 Q 253.410531 30.082932 252.408872 28.339377 Q 251.771275 27.227517 250.986085 26.300638 Q 249.248434 24.248124 247.758737 22.907988 Q 247.258892 22.45734 246.61539 22.091311 Q 246.389082 21.963398 246.320206 22.213321 Q 246.164742 22.780074 246.296591 23.283855 L 245.790842 24.320936 Q 245.212281 23.336989 245.052882 22.543927 Q 247.776448 19.26935 250.580698 16.591045 C 257.419132 10.057635 265.997186 5.234325 275.523764 4.23857 Q 281.193269 3.648202 286.461323 4.382226 C 298.735083 6.092327 309.371554 14.046558 316.145047 24.128082 C 318.309732 27.351494 320.076901 31.182985 321.129725 34.731099 Q 322.151062 38.176883 322.511187 42.010342 Q 322.816211 45.269176 322.753238 47.463378 Q 322.623357 51.912788 321.731901 56.401556 Q 319.494404 67.671689 312.892117 76.981799 Q 311.644472 78.741097 309.121631 81.724426 Q 306.466941 84.865186 302.609867 88.690773 C 295.694685 95.552822 286.587268 103.190221 280.30378 108.674744 C 273.057992 114.99759 266.121163 121.788795 259.912455 129.134946 Q 255.492564 134.36561 251.480026 140.582189 Q 247.81187 146.261534 244.875771 151.883809 Q 244.832478 151.968428 244.753762 151.915295 Q 244.690789 151.873969 244.635688 151.759832 Q 243.653709 149.764386 242.425742 147.727615 Q 239.792699 143.358889 237.326927 139.700573 C 232.954265 133.218327 227.999106 127.072592 222.53623 121.420798 Q 214.520995 113.132026 205.742217 105.398199 Q 203.819583 103.703842 195.973587 97.011032 Q 192.346757 93.917501 188.123655 89.841991 C 186.384036 88.163377 184.404334 85.996725 183.011064 84.489318 C 179.193349 80.360675 175.725918 75.919136 173.110586 70.924619 Z" style="fill:#be583a;"/>
		<path d="M 244.436931 27.007112 Q 244.846253 27.876922 245.289029 28.77625 C 249.16775 36.66554 248.301876 46.733289 241.538222 52.853442 Q 240.522788 53.772449 239.690369 54.455308 Q 239.283015 54.78985 239.759245 54.56551 Q 245.257543 51.981664 248.90602 47.382694 Q 252.627309 42.693201 252.460038 36.785581 C 252.314414 31.663151 249.907678 26.875263 246.296591 23.283855 Q 246.164742 22.780074 246.320206 22.213321 Q 246.389082 21.963398 246.61539 22.091311 Q 247.258892 22.45734 247.758737 22.907988 Q 249.248434 24.248124 250.986085 26.300638 Q 251.771275 27.227517 252.408872 28.339377 Q 253.410531 30.082932 253.567962 30.509965 Q 254.006803 31.69267 254.500745 32.678585 Q 255.461077 36.102722 255.313485 38.958137 C 255.093081 43.212726 253.133058 47.17213 249.992298 50.12594 C 246.152935 53.738995 241.376855 55.760022 236.15603 56.749873 Q 235.984823 56.783328 236.055667 56.62196 Q 236.244585 56.194927 236.608646 55.79938 Q 236.630292 55.775766 238.570637 53.876747 Q 243.494309 49.061309 245.542888 42.606614 Q 246.455991 39.725616 246.548482 36.395938 Q 246.66262 32.224001 244.549101 28.870709 C 243.541539 27.272778 242.067586 25.367856 240.509013 23.929325 C 240.448008 23.874224 240.353549 23.886031 240.308288 23.95294 C 237.545363 28.042225 238.718229 33.760927 240.107562 38.216241 Q 241.010826 41.107078 241.675975 43.334735 Q 242.012485 44.454467 242.199435 45.454158 Q 242.280118 45.881191 242.004613 45.544681 Q 241.817663 45.318373 241.685814 44.975959 Q 241.677942 44.95628 238.509632 37.70262 Q 237.368253 35.087288 236.610613 32.405048 Q 236.531898 31.765482 236.459086 31.145595 C 236.096993 27.975317 236.925477 24.708611 238.545054 21.979141 C 238.598187 21.888618 238.592283 21.77448 238.529311 21.691829 Q 238.05308 21.058167 237.858259 20.530771 Q 237.663437 20.005343 238.108181 20.345789 Q 241.522479 22.963089 243.99809 26.517107 Q 244.064999 26.613533 244.220462 26.755222 Q 244.338536 26.863456 244.436931 27.007112 Z" style="fill:#6d3f18;"/>
		<path d="M 246.296591 23.283855 C 249.907678 26.875263 252.314414 31.663151 252.460038 36.785581 Q 252.627309 42.693201 248.90602 47.382694 Q 245.257543 51.981664 239.759245 54.56551 Q 239.283015 54.78985 239.690369 54.455308 Q 240.522788 53.772449 241.538222 52.853442 C 248.301876 46.733289 249.16775 36.66554 245.289029 28.77625 Q 244.846253 27.876922 244.436931 27.007112 L 245.790842 24.320936 L 246.296591 23.283855 Z" style="fill:#f8f4e5;"/>
		<path d="M 254.500745 32.678585 Q 261.3195 32.887182 267.667928 35.205362 Q 274.47094 37.686877 279.866908 42.470829 C 284.580016 46.646702 288.391828 51.765196 290.824146 57.401247 Q 292.699549 61.740455 293.13839 66.41814 Q 293.156101 66.607058 293.309597 66.794008 Q 294.206957 67.901933 294.803229 68.734352 C 299.555695 75.389772 296.91478 83.062594 292.120988 88.730131 Q 285.902441 96.082186 277.755357 101.127868 Q 277.548728 101.253813 277.357842 101.468314 C 276.371927 102.57427 275.411594 103.764847 274.380417 104.79012 C 269.47052 109.674435 263.820694 114.17501 258.086249 118.929444 C 254.975007 121.507386 252.078266 124.291957 248.677744 126.535357 Q 246.786597 127.783002 245.062721 129.097556 C 244.964327 129.172336 244.826574 129.172336 244.728179 129.097556 L 238.499792 124.352962 C 239.239721 123.186 238.692646 121.483771 237.456808 120.966215 Q 233.930341 119.496197 231.885698 118.382369 Q 231.767625 118.317428 231.877827 118.242648 Q 231.903409 118.224937 231.932928 118.217066 Q 231.976221 118.20329 232.066745 118.258391 C 233.757166 119.307279 235.538111 120.188896 237.49223 120.647416 Q 238.879596 120.974086 239.723823 121.161036 Q 241.929833 121.651042 244.096485 121.794698 C 246.461895 121.954098 248.077536 122.028878 250.053302 121.342083 Q 250.35439 121.34405 250.633831 121.086256 Q 256.445025 115.686353 261.396248 110.107371 Q 262.697026 108.643258 264.922715 105.583181 C 265.12344 105.307676 265.517019 104.876707 265.776781 104.784216 Q 268.281911 103.888824 269.305217 103.503117 C 272.672285 102.233825 275.624127 100.750032 278.489381 98.681775 C 282.267739 95.95624 285.77256 93.07721 288.944806 89.588133 Q 289.609955 88.854108 291.024871 86.898021 Q 293.120679 83.997344 294.084947 80.960882 Q 295.956415 75.069006 292.725132 70.107943 C 290.603741 66.847141 287.209123 64.67065 283.334338 64.44631 Q 278.339821 64.157029 275.549347 68.716641 Q 275.482438 68.826843 275.413562 68.716641 L 275.244323 68.449008 Q 274.917653 67.915708 274.567367 67.297789 C 273.103254 64.715911 270.253742 62.944806 267.595116 61.756198 C 263.352335 59.857179 258.62742 58.68825 253.975317 58.01523 C 249.3547 57.346146 245.749517 57.196586 240.684156 56.96831 Q 239.220042 56.903369 236.327237 57.102127 Q 236.010406 57.123773 235.666024 57.235943 Q 235.207505 57.383536 235.002843 57.393375 C 232.800769 57.493738 229.945354 57.352049 227.788541 57.511449 Q 224.582841 57.745628 221.853371 58.151015 Q 220.869423 58.296639 219.887444 58.520979 Q 219.354144 58.56624 218.822813 58.680378 Q 215.077909 59.483279 211.638029 60.888356 Q 210.081424 61.523986 208.430361 62.685044 C 206.765522 63.853973 205.740249 65.304312 205.143977 67.201362 Q 204.714976 68.565113 204.594934 69.507735 C 203.624762 77.204171 205.797318 84.969484 208.737352 92.042098 C 210.443517 96.149094 212.657399 100.120306 215.400644 103.609383 Q 220.475844 110.068014 227.463839 114.462323 C 228.109308 115.233737 228.878755 115.816234 229.585229 116.52074 Q 229.658041 116.593553 229.959129 117.16621 Q 230.020134 117.280348 229.898125 117.239022 L 228.585539 116.790342 Q 228.487144 116.756888 228.45369 116.853315 L 228.380878 117.069783 Q 228.351359 117.152435 228.4163 117.211471 Q 229.008636 117.742803 229.354986 118.433534 Q 221.270874 113.169416 214.595775 106.234555 Q 213.448492 105.043978 212.348439 103.888824 Q 206.342424 97.117298 201.759198 89.363793 Q 199.263907 85.140691 197.949353 81.378076 C 196.388813 76.907019 195.668563 72.150618 196.152665 67.482771 Q 196.992957 59.359302 201.38333 52.310303 Q 204.069506 47.996678 207.710111 44.417077 Q 217.807379 34.491016 231.85618 32.847824 Q 234.178296 32.576254 236.610613 32.405048 Q 237.368253 35.087288 238.509632 37.70262 Q 241.677942 44.95628 241.685814 44.975959 Q 241.817663 45.318373 242.004613 45.544681 Q 242.280118 45.881191 242.199435 45.454158 Q 242.012485 44.454467 241.675975 43.334735 Q 241.010826 41.107078 240.107562 38.216241 C 238.718229 33.760927 237.545363 28.042225 240.308288 23.95294 C 240.353549 23.886031 240.448008 23.874224 240.509013 23.929325 C 242.067586 25.367856 243.541539 27.272778 244.549101 28.870709 Q 246.66262 32.224001 246.548482 36.395938 Q 246.455991 39.725616 245.542888 42.606614 Q 243.494309 49.061309 238.570637 53.876747 Q 236.630292 55.775766 236.608646 55.79938 Q 236.244585 56.194927 236.055667 56.62196 Q 235.984823 56.783328 236.15603 56.749873 C 241.376855 55.760022 246.152935 53.738995 249.992298 50.12594 C 253.133058 47.17213 255.093081 43.212726 255.313485 38.958137 Q 255.461077 36.102722 254.500745 32.678585 Z M 244.90529 127.78497 Q 244.251949 127.973888 244.021705 127.969952 Q 243.210932 127.952241 243.942989 128.290719 Q 244.240141 128.428472 244.8679 128.398953 Q 245.403167 128.375338 245.613732 127.879429 Q 245.655058 127.78497 245.566502 127.731837 Q 245.320516 127.576373 245.113887 127.680672 Q 244.919065 127.779066 244.90529 127.78497 Z" style="fill:#f8f4e5;"/>
		<path d="M 275.244323 68.449008 Q 275.19119 68.826843 275.26597 69.220422 Q 275.364365 69.753722 275.360429 69.974126 C 275.242355 76.48589 269.04939 80.520074 263.51567 82.263629 C 260.512663 83.210186 257.588371 83.834009 254.31773 84.392891 Q 252.778837 84.656589 250.407524 84.833699 Q 244.930872 85.246957 244.066967 85.260732 Q 237.291505 85.361095 230.860425 84.632974 Q 224.096771 83.867463 217.551553 81.195062 C 214.745335 80.051715 212.279563 78.506918 209.996805 76.653161 C 209.19784 76.003756 208.434297 75.124107 207.816378 74.374339 Q 206.785201 73.122758 206.509696 72.467449 C 204.825178 68.441136 207.531033 64.761173 210.90794 62.862155 Q 213.391423 61.464949 216.18977 60.626626 C 219.060928 59.764688 220.540785 59.412435 221.672324 58.91259 Q 221.741201 58.883071 221.737265 58.794516 Q 221.737265 58.768933 221.719554 58.717768 Q 221.6861 58.617406 221.581801 58.611502 L 219.887444 58.520979 Q 220.869423 58.296639 221.853371 58.151015 Q 224.582841 57.745628 227.788541 57.511449 C 229.945354 57.352049 232.800769 57.493738 235.002843 57.393375 Q 235.207505 57.383536 235.666024 57.235943 Q 236.010406 57.123773 236.327237 57.102127 Q 239.220042 56.903369 240.684156 56.96831 C 245.749517 57.196586 249.3547 57.346146 253.975317 58.01523 C 258.62742 58.68825 263.352335 59.857179 267.595116 61.756198 C 270.253742 62.944806 273.103254 64.715911 274.567367 67.297789 Q 274.917653 67.915708 275.244323 68.449008 Z M 208.00136 72.593394 Q 209.119124 74.45699 210.852839 75.73809 C 213.881429 77.975586 217.480709 79.414117 221.048502 80.344931 Q 227.302471 81.978284 234.0248 82.484033 Q 244.070902 83.241672 253.605352 81.990091 Q 258.082313 81.401691 262.689155 80.057619 C 265.479629 79.240942 268.27404 78.003137 270.493825 76.110022 Q 272.05043 74.783661 272.640798 72.985005 C 273.965191 68.996082 270.745716 65.875001 267.55379 64.033052 C 265.02111 62.572874 261.951194 61.457078 259.105618 60.799801 C 250.832589 58.892911 242.449357 58.554433 233.786685 58.967691 C 227.180462 59.282554 220.851712 60.260598 214.704009 62.378052 Q 212.131971 63.265573 209.984998 64.733622 C 207.637299 66.341392 206.903274 68.937046 207.578262 71.623222 Q 207.635331 71.84953 208.00136 72.593394 Z" style="fill:#ecd0aa;"/>
		<path d="M 275.244323 68.449008 L 275.413562 68.716641 Q 275.482438 68.826843 275.549347 68.716641 Q 278.339821 64.157029 283.334338 64.44631 C 287.209123 64.67065 290.603741 66.847141 292.725132 70.107943 Q 295.956415 75.069006 294.084947 80.960882 Q 293.120679 83.997344 291.024871 86.898021 Q 289.609955 88.854108 288.944806 89.588133 C 285.77256 93.07721 282.267739 95.95624 278.489381 98.681775 C 275.624127 100.750032 272.672285 102.233825 269.305217 103.503117 Q 268.281911 103.888824 265.776781 104.784216 C 265.517019 104.876707 265.12344 105.307676 264.922715 105.583181 Q 262.697026 108.643258 261.396248 110.107371 Q 256.445025 115.686353 250.633831 121.086256 Q 250.35439 121.34405 250.053302 121.342083 Q 246.879088 121.037059 244.94268 120.704485 C 238.895339 119.6615 233.121536 117.341353 227.463839 114.462323 Q 220.475844 110.068014 215.400644 103.609383 C 212.657399 100.120306 210.443517 96.149094 208.737352 92.042098 C 205.797318 84.969484 203.624762 77.204171 204.594934 69.507735 Q 204.714976 68.565113 205.143977 67.201362 C 205.740249 65.304312 206.765522 63.853973 208.430361 62.685044 Q 210.081424 61.523986 211.638029 60.888356 Q 215.077909 59.483279 218.822813 58.680378 Q 219.354144 58.56624 219.887444 58.520979 L 221.581801 58.611502 Q 221.6861 58.617406 221.719554 58.717768 Q 221.737265 58.768933 221.737265 58.794516 Q 221.741201 58.883071 221.672324 58.91259 C 220.540785 59.412435 219.060928 59.764688 216.18977 60.626626 Q 213.391423 61.464949 210.90794 62.862155 C 207.531033 64.761173 204.825178 68.441136 206.509696 72.467449 Q 206.785201 73.122758 207.816378 74.374339 C 208.434297 75.124107 209.19784 76.003756 209.996805 76.653161 C 212.279563 78.506918 214.745335 80.051715 217.551553 81.195062 Q 224.096771 83.867463 230.860425 84.632974 Q 237.291505 85.361095 244.066967 85.260732 Q 244.930872 85.246957 250.407524 84.833699 Q 252.778837 84.656589 254.31773 84.392891 C 257.588371 83.834009 260.512663 83.210186 263.51567 82.263629 C 269.04939 80.520074 275.242355 76.48589 275.360429 69.974126 Q 275.364365 69.753722 275.26597 69.220422 Q 275.19119 68.826843 275.244323 68.449008 Z M 271.141263 95.55479 C 270.51744 96.843761 269.789319 98.280324 269.832612 98.35904 C 269.852291 98.39643 269.895585 98.416109 269.934943 98.404301 Q 271.312469 98.036305 272.615216 97.420354 Q 279.727187 94.051318 284.424552 87.824899 C 287.657803 83.536857 289.417101 77.375378 286.787994 72.321825 Q 286.172043 71.135184 285.028696 70.324411 C 283.584261 69.301106 281.380219 70.377545 280.256551 71.412657 Q 277.950178 73.536016 276.909162 76.417014 C 276.271564 78.180247 275.913407 80.982529 275.549347 82.635561 C 274.571303 87.084971 273.126868 91.451729 271.141263 95.55479 Z" style="fill:#e4b27b;"/>
		<path d="M 250.053302 121.342083 C 248.077536 122.028878 246.461895 121.954098 244.096485 121.794698 Q 241.929833 121.651042 239.723823 121.161036 Q 238.879596 120.974086 237.49223 120.647416 C 235.538111 120.188896 233.757166 119.307279 232.066745 118.258391 Q 231.976221 118.20329 231.932928 118.217066 Q 231.903409 118.224937 231.877827 118.242648 Q 231.767625 118.317428 231.885698 118.382369 Q 233.930341 119.496197 237.456808 120.966215 C 238.692646 121.483771 239.239721 123.186 238.499792 124.352962 L 229.354986 118.433534 Q 229.008636 117.742803 228.4163 117.211471 Q 228.351359 117.152435 228.380878 117.069783 L 228.45369 116.853315 Q 228.487144 116.756888 228.585539 116.790342 L 229.898125 117.239022 Q 230.020134 117.280348 229.959129 117.16621 Q 229.658041 116.593553 229.585229 116.52074 C 228.878755 115.816234 228.109308 115.233737 227.463839 114.462323 C 233.121536 117.341353 238.895339 119.6615 244.94268 120.704485 Q 246.879088 121.037059 250.053302 121.342083 Z" style="fill:#ecd0aa;"/>
		<path d="M 272.640798 72.985005 Q 272.076013 72.341503 271.587975 71.668483 Q 270.940537 70.778995 270.509568 70.383448 Q 267.510497 67.634299 263.358239 66.882563 C 259.324055 66.152475 255.445334 66.449627 251.277333 66.878628 Q 242.469036 67.783859 232.981816 69.623841 C 228.992893 70.397223 225.314898 71.333941 220.981593 72.331664 Q 217.095001 73.229024 212.86206 73.323483 Q 210.817417 73.368745 209.886603 73.219185 Q 209.349368 73.134565 208.00136 72.593394 Q 207.635331 71.84953 207.578262 71.623222 C 206.903274 68.937046 207.637299 66.341392 209.984998 64.733622 Q 212.131971 63.265573 214.704009 62.378052 C 220.851712 60.260598 227.180462 59.282554 233.786685 58.967691 C 242.449357 58.554433 250.832589 58.892911 259.105618 60.799801 C 261.951194 61.457078 265.02111 62.572874 267.55379 64.033052 C 270.745716 65.875001 273.965191 68.996082 272.640798 72.985005 Z" style="fill:#6d3f18;"/>
		<path d="M 272.640798 72.985005 Q 272.05043 74.783661 270.493825 76.110022 C 268.27404 78.003137 265.479629 79.240942 262.689155 80.057619 Q 258.082313 81.401691 253.605352 81.990091 Q 244.070902 83.241672 234.0248 82.484033 Q 227.302471 81.978284 221.048502 80.344931 C 217.480709 79.414117 213.881429 77.975586 210.852839 75.73809 Q 209.119124 74.45699 208.00136 72.593394 Q 209.349368 73.134565 209.886603 73.219185 Q 210.817417 73.368745 212.86206 73.323483 Q 217.095001 73.229024 220.981593 72.331664 C 225.314898 71.333941 228.992893 70.397223 232.981816 69.623841 Q 242.469036 67.783859 251.277333 66.878628 C 255.445334 66.449627 259.324055 66.152475 263.358239 66.882563 Q 267.510497 67.634299 270.509568 70.383448 Q 270.940537 70.778995 271.587975 71.668483 Q 272.076013 72.341503 272.640798 72.985005 Z" style="fill:#583014;"/>
		<path d="M 269.832612 98.35904 C 269.789319 98.280324 270.51744 96.843761 271.141263 95.55479 C 273.126868 91.451729 274.571303 87.084971 275.549347 82.635561 C 275.913407 80.982529 276.271564 78.180247 276.909162 76.417014 Q 277.950178 73.536016 280.256551 71.412657 C 281.380219 70.377545 283.584261 69.301106 285.028696 70.324411 Q 286.172043 71.135184 286.787994 72.321825 C 289.417101 77.375378 287.657803 83.536857 284.424552 87.824899 Q 279.727187 94.051318 272.615216 97.420354 Q 271.312469 98.036305 269.934943 98.404301 C 269.895585 98.416109 269.852291 98.39643 269.832612 98.35904 Z" style="fill:#f8f4e5;"/>
		<path d="M 245.113887 127.680672 Q 245.320516 127.576373 245.566502 127.731837 Q 245.655058 127.78497 245.613732 127.879429 Q 245.403167 128.375338 244.8679 128.398953 Q 244.240141 128.428472 243.942989 128.290719 Q 243.210932 127.952241 244.021705 127.969952 Q 244.251949 127.973888 244.90529 127.78497 Q 244.919065 127.779066 245.113887 127.680672 Z" style="fill:#ecd0aa;"/>
	</g>
	<g id="surface4">
	</g>
</svg>
