<?xml version="1.0" encoding="utf-8"?>
<svg xmlns="http://www.w3.org/2000/svg" width="490pt" height="280pt" viewBox="0 0 490 280" version="1.1" xmlns:xlink="http://www.w3.org/1999/xlink">
	<g id="surface2">
		<path d="M 321.503585 39.565145 Q 319.113493 35.567812 316.384698 33.38861 Q 309.115366 27.579536 299.810623 24.898671 C 294.42972 23.34575 289.202192 21.719337 283.600813 20.559439 Q 282.632634 20.358135 283.533712 20.763939 L 288.968935 23.205156 Q 289.518528 23.451195 288.91781 23.438414 Q 287.400037 23.406461 285.303914 23.690843 C 263.364912 26.63692 245.886565 41.533457 233.293847 58.915945 C 224.471595 71.090078 217.390787 84.874647 212.013079 99.132121 Q 207.983793 109.820435 204.663866 120.805912 Q 190.735508 118.719374 186.437815 117.949304 C 176.184064 116.10561 165.514923 113.971143 155.609461 110.1847 C 155.34425 110.08245 155.043891 110.162333 154.861758 110.379614 C 154.545422 110.756661 154.459149 111.216785 154.871344 111.600222 Q 155.829937 112.491714 156.107929 112.635503 Q 160.185145 114.738017 165.080361 116.188688 Q 174.289245 118.917483 182.52356 120.297857 Q 196.432746 122.630434 211.025729 123.697668 Q 235.952345 125.525385 259.127931 126.078174 Q 261.406187 126.132494 262.444663 126.090955 Q 262.495788 126.08776 262.486202 126.033439 Q 262.476616 125.98551 262.438272 125.982314 L 234.929845 123.97566 L 234.81801 123.857433 Q 234.683807 123.720035 234.875525 123.713644 Q 236.022642 123.659324 237.166563 123.729621 C 242.08095 124.026785 247.014509 124.13223 251.935287 124.307972 Q 253.91638 124.378269 258.316322 124.640284 Q 265.061622 125.039698 271.822899 124.927862 Q 278.360504 124.819221 280.395917 124.413417 Q 282.795595 123.934121 285.179296 123.36216 Q 288.991302 122.445106 292.649932 122.576114 Q 293.736338 122.617653 296.739929 122.068059 C 298.55167 121.738942 300.641403 121.61752 302.635277 121.381068 L 303.926182 121.221302 Q 318.049454 120.023061 332.31971 120.11892 L 333.642569 120.131701 Q 338.537784 120.170045 346.286412 120.093357 Q 347.682763 120.080576 348.858637 119.796194 Q 349.015207 119.75785 349.104676 119.623647 Q 349.258051 119.393584 349.315566 119.109202 Q 350.679964 119.438319 350.919612 120.540701 Q 350.309308 120.936919 349.893917 121.524856 Q 349.794863 121.662255 349.941847 121.742138 Q 355.338726 124.726557 362.157519 127.979383 Q 362.806167 128.289329 363.381322 128.77182 C 363.620971 128.973125 363.646533 129.33739 363.432447 129.570648 C 362.237401 130.887116 359.821747 130.899897 358.093084 130.701788 Q 354.274688 130.267226 351.156065 129.858226 C 341.745876 128.634422 332.230242 128.212641 322.628334 128.225422 Q 314.598519 128.235008 306.498407 129.23514 Q 304.066776 129.538695 303.08262 129.318218 Q 301.507332 128.963539 300.999278 128.516196 C 298.618772 126.416877 295.222157 123.838261 292.132292 124.244066 Q 291.969331 124.266433 284.581773 125.288932 Q 283.82129 125.394377 283.147079 125.669174 Q 280.728229 125.975924 278.226301 126.944103 Q 274.826491 128.263766 265.895598 131.216233 Q 256.865651 134.200653 245.282651 136.590745 Q 241.393958 137.392768 237.351891 138.223548 Q 236.348563 138.431244 232.696324 138.929712 Q 226.762632 139.341907 220.659589 139.763688 C 219.525254 139.843571 218.266302 140.073633 217.326881 140.380383 Q 210.223706 142.706569 203.401718 145.234059 C 196.905652 147.636933 190.022953 149.697908 182.913388 149.934361 Q 179.935359 150.033416 176.883837 149.995072 Q 171.908739 149.451869 169.985162 149.100385 Q 158.120975 146.940355 146.665787 143.735459 C 142.32336 142.518046 137.933004 140.961929 133.833421 139.236462 C 131.174922 138.118103 128.426955 136.833588 126.145504 134.986699 C 125.123005 134.159114 125.400997 133.047146 126.31166 132.305834 Q 129.887212 129.398101 134.066678 126.247525 Q 144.73582 118.208124 152.717705 111.977269 Q 152.730486 111.967683 154.404829 110.465887 Q 155.098211 109.845997 155.65739 109.532857 Q 156.52332 109.050365 156.925929 108.628584 Q 157.028179 108.523139 159.41188 106.538851 C 159.558864 106.414234 159.721825 106.11707 159.760169 105.887008 Q 161.025512 98.473887 162.798909 90.801947 Q 162.808495 90.766799 163.012995 89.670807 C 163.131221 89.047722 163.396432 88.431027 163.505073 87.862262 Q 163.789455 86.370052 164.997283 82.075555 Q 166.917664 75.256762 169.579358 68.297376 Q 171.0492 64.447027 173.046269 60.261171 C 178.037344 49.796529 185.3578 40.517348 194.87663 33.877493 Q 195.707411 33.295946 195.921496 32.771916 C 196.803402 30.618276 197.480808 29.68205 199.215861 27.553974 Q 202.385609 23.655695 203.660538 18.182128 C 203.83628 17.428035 204.2996 16.290505 204.909905 15.750497 Q 206.593833 14.267873 208.26498 13.347624 C 209.290675 12.782054 211.067268 11.951273 212.466814 11.436828 Q 215.914553 10.16829 219.43259 9.29597 C 221.701261 8.733596 224.755977 8.011455 227.328202 7.628018 Q 234.214096 6.599128 239.332983 6.436167 Q 245.234721 6.250839 251.471967 6.819605 Q 261.361453 7.723878 271.286087 10.145923 Q 285.495632 13.61603 298.101132 19.329245 Q 303.02191 21.559571 308.252633 24.588726 Q 312.540739 27.074677 316.167416 30.167738 Q 318.493602 32.155221 319.797289 34.529336 Q 320.861327 36.46889 321.503585 39.565145 Z M 193.94999 65.277808 Q 194.285498 64.884785 194.752013 63.846309 Q 195.467762 62.245458 195.467762 62.242263 Q 200.331025 53.247464 205.63524 45.559548 C 211.2494 37.424287 218.454825 29.825839 226.590085 24.582335 C 235.367603 18.926636 245.515909 15.83038 256.006113 15.661029 Q 266.735965 15.488482 277.085575 17.987214 Q 277.344395 18.051121 277.104747 17.932894 Q 276.066271 17.412059 275.098092 17.086137 C 272.854984 16.328848 271.362774 15.731325 269.570205 15.191318 Q 256.79855 11.337774 243.26002 11.366531 C 236.863008 11.379313 230.922926 11.964054 225.257641 13.967514 C 223.644009 14.539475 220.969534 15.926239 220.397574 17.594191 Q 219.863957 19.159893 219.317559 20.725595 Q 219.0172 21.585134 217.37481 23.668476 C 215.98485 25.438678 213.776891 27.582732 212.160064 29.531871 Q 205.926013 37.050436 200.950915 46.623586 Q 196.097239 55.957088 193.834959 65.220292 C 193.818982 65.287394 193.905256 65.332128 193.94999 65.277808 Z" style="fill:#041f2e;"/>
		<path d="M 193.834959 65.220292 Q 196.097239 55.957088 200.950915 46.623586 Q 205.926013 37.050436 212.160064 29.531871 C 213.776891 27.582732 215.98485 25.438678 217.37481 23.668476 Q 219.0172 21.585134 219.317559 20.725595 Q 219.863957 19.159893 220.397574 17.594191 C 220.969534 15.926239 223.644009 14.539475 225.257641 13.967514 C 230.922926 11.964054 236.863008 11.379313 243.26002 11.366531 Q 256.79855 11.337774 269.570205 15.191318 C 271.362774 15.731325 272.854984 16.328848 275.098092 17.086137 Q 276.066271 17.412059 277.104747 17.932894 Q 277.344395 18.051121 277.085575 17.987214 Q 266.735965 15.488482 256.006113 15.661029 C 245.515909 15.83038 235.367603 18.926636 226.590085 24.582335 C 218.454825 29.825839 211.2494 37.424287 205.63524 45.559548 Q 200.331025 53.247464 195.467762 62.242263 Q 195.467762 62.245458 194.752013 63.846309 Q 194.285498 64.884785 193.94999 65.277808 C 193.905256 65.332128 193.818982 65.287394 193.834959 65.220292 Z" style="fill:#fafbfa;"/>
		<path d="M 321.503585 39.565145 Q 322.660287 42.980932 323.181123 47.042172 Q 323.270591 47.735554 323.749888 48.889061 Q 323.085263 49.109537 322.5836 48.598288 Q 319.311602 45.249603 315.649776 42.827557 Q 298.903154 31.73983 278.705598 34.612414 Q 266.934074 36.289952 257.242698 42.651815 C 256.587659 43.083182 255.8783 43.699877 255.197699 44.259056 Q 254.84941 44.543439 255.296754 44.521072 C 256.459847 44.463556 257.690041 44.71279 259.846876 45.112204 C 259.936344 45.128181 259.974688 45.236821 259.913977 45.307118 L 254.408458 51.742473 Q 254.318989 51.847918 254.453192 51.873481 L 254.565028 51.899043 Q 254.574614 51.899043 254.581004 51.892653 Q 256.025285 50.486716 257.584596 49.473803 Q 267.566746 43.00969 279.482058 41.277832 C 288.412951 39.980536 297.564319 40.363973 306.277931 42.942588 Q 318.046259 46.425477 326.561761 55.161455 Q 337.221316 66.099003 340.426213 81.072227 Q 341.739485 87.216809 342.090969 95.662014 Q 342.122923 96.409717 342.027063 97.822044 Q 342.017477 97.985005 341.89286 98.09045 Q 341.244212 98.630458 340.39426 98.828567 Q 340.355916 98.834958 340.34633 98.873301 L 340.327158 98.965965 C 340.320768 99.001114 340.352721 99.033067 340.387869 99.020286 L 342.873821 98.173528 Q 343.039977 98.116013 343.027195 97.940271 Q 342.851453 95.690772 343.458562 93.562695 Q 345.382139 95.662014 346.903107 98.093646 C 348.094958 99.998051 348.430465 101.563753 348.580645 103.998579 Q 349.053551 111.545902 349.315566 119.109202 Q 349.258051 119.393584 349.104676 119.623647 Q 349.015207 119.75785 348.858637 119.796194 Q 347.682763 120.080576 346.286412 120.093357 Q 338.537784 120.170045 333.642569 120.131701 Q 333.275108 119.150741 332.914038 117.422078 C 332.476281 115.319564 332.022546 113.22344 331.661476 111.104949 C 331.242891 108.634974 329.054103 106.37589 326.913245 104.519415 C 326.469097 104.132782 326.021754 104.11361 325.513699 104.199884 Q 318.145314 105.446055 311.860138 105.998843 Q 307.971445 106.340742 302.341308 106.746546 C 302.175152 106.759327 302.04734 106.903116 302.05373 107.072468 L 302.635277 121.381068 C 300.641403 121.61752 298.55167 121.738942 296.739929 122.068059 Q 293.736338 122.617653 292.649932 122.576114 Q 288.991302 122.445106 285.179296 123.36216 Q 282.795595 123.934121 280.395917 124.413417 Q 278.360504 124.819221 271.822899 124.927862 Q 265.061622 125.039698 258.316322 124.640284 Q 253.91638 124.378269 251.935287 124.307972 C 247.014509 124.13223 242.08095 124.026785 237.166563 123.729621 Q 236.022642 123.659324 234.875525 123.713644 Q 234.683807 123.720035 234.81801 123.857433 L 234.929845 123.97566 Q 221.429659 122.978723 207.993379 121.313966 Q 206.290279 121.103076 204.663866 120.805912 Q 207.983793 109.820435 212.013079 99.132121 C 217.390787 84.874647 224.471595 71.090078 233.293847 58.915945 C 245.886565 41.533457 263.364912 26.63692 285.303914 23.690843 Q 287.400037 23.406461 288.91781 23.438414 Q 289.518528 23.451195 288.968935 23.205156 L 283.533712 20.763939 Q 282.632634 20.358135 283.600813 20.559439 C 289.202192 21.719337 294.42972 23.34575 299.810623 24.898671 Q 309.115366 27.579536 316.384698 33.38861 Q 319.113493 35.567812 321.503585 39.565145 Z M 256.469433 116.204665 L 256.43748 120.237146 Q 256.431089 120.79313 256.616417 120.2691 Q 256.827307 119.677967 256.836893 118.361499 L 256.872042 118.067531 L 257.028612 114.006291 Q 257.360924 113.383206 257.389682 112.609941 Q 257.440807 111.382941 257.469565 111.200809 Q 257.923299 108.369764 258.581533 105.519547 Q 258.750884 104.794211 258.469697 104.37243 C 256.459847 101.378425 254.287036 98.643239 250.430296 97.898732 Q 241.464255 96.166873 232.792183 94.230515 C 232.578097 94.182586 232.357621 94.291226 232.268152 94.492531 C 230.242325 99.084192 228.347506 103.790884 227.526311 108.64456 Q 226.753046 113.207464 226.235406 118.035578 C 226.229015 118.089898 226.292922 118.128242 226.344047 118.096288 L 226.420734 118.051554 C 226.513398 117.994039 226.580499 117.936523 226.58689 117.90457 Q 226.794585 117.105742 227.944897 112.252066 Q 228.507272 109.87156 229.181482 107.516616 Q 230.382919 103.314783 232.753839 98.796614 Q 232.769816 98.764661 232.852894 98.572942 Q 233.079761 98.052106 233.715628 98.195895 Q 242.410067 100.186574 248.340563 101.915237 Q 250.957522 102.678916 252.807607 104.445923 C 254.111294 105.695289 255.600308 107.55496 255.961378 109.452974 Q 256.386355 111.689691 256.23937 114.082979 C 256.194636 114.824291 256.332034 115.48572 256.469433 116.204665 Z M 341.298533 101.650026 Q 339.061815 102.468025 337.138238 103.036791 Q 336.745215 103.155017 337.125457 103.308392 C 338.486659 103.867571 339.608213 103.976212 340.924681 103.155017 Q 343.091102 101.806596 345.014678 99.873433 Q 345.065803 99.825504 345.011483 99.780769 L 344.937991 99.716863 Q 344.883671 99.668934 344.82935 99.713668 Q 343.292406 100.921495 341.298533 101.650026 Z M 300.181279 112.335144 C 300.24838 112.357511 300.318677 112.338339 300.366607 112.287214 Q 300.468857 112.178574 300.446489 112.153011 C 299.318545 110.632043 298.241725 109.545638 296.104063 109.475341 Q 295.803703 109.465755 291.550745 109.337943 C 288.908224 109.261255 286.355171 109.363505 283.913954 109.548833 Q 283.441048 109.583982 283.904368 109.679841 Q 284.367688 109.778896 285.009945 109.817239 Q 291.052277 110.197481 292.828869 110.325294 Q 295.100735 110.49145 296.033766 110.849325 Q 298.427053 111.766379 300.181279 112.335144 Z M 223.177494 120.045428 C 223.784603 120.023061 225.276813 119.614061 225.826406 119.141155 C 225.947828 119.03571 225.896703 118.840796 225.743328 118.808843 L 218.464411 117.297461 Q 218.285474 117.259117 218.167247 117.399711 Q 217.739076 117.917351 217.515404 118.613929 Q 217.464279 118.773694 217.617654 118.847186 Q 220.263371 120.154068 223.177494 120.045428 Z" style="fill:#e7930b;"/>
		<path d="M 323.749888 48.889061 Q 326.667206 51.212052 328.878361 53.809839 Q 333.744819 59.529445 336.863442 66.591081 Q 340.256861 74.272607 342.074993 82.471773 C 342.509555 84.433694 342.742813 86.938817 342.985656 89.664417 Q 343.167789 91.719001 343.458562 93.562695 Q 342.851453 95.690772 343.027195 97.940271 Q 343.039977 98.116013 342.873821 98.173528 L 340.387869 99.020286 C 340.352721 99.033067 340.320768 99.001114 340.327158 98.965965 L 340.34633 98.873301 Q 340.355916 98.834958 340.39426 98.828567 Q 341.244212 98.630458 341.89286 98.09045 Q 342.017477 97.985005 342.027063 97.822044 Q 342.122923 96.409717 342.090969 95.662014 Q 341.739485 87.216809 340.426213 81.072227 Q 337.221316 66.099003 326.561761 55.161455 Q 318.046259 46.425477 306.277931 42.942588 C 297.564319 40.363973 288.412951 39.980536 279.482058 41.277832 Q 267.566746 43.00969 257.584596 49.473803 Q 256.025285 50.486716 254.581004 51.892653 Q 254.574614 51.899043 254.565028 51.899043 L 254.453192 51.873481 Q 254.318989 51.847918 254.408458 51.742473 L 259.913977 45.307118 C 259.974688 45.236821 259.936344 45.128181 259.846876 45.112204 C 257.690041 44.71279 256.459847 44.463556 255.296754 44.521072 Q 254.84941 44.543439 255.197699 44.259056 C 255.8783 43.699877 256.587659 43.083182 257.242698 42.651815 Q 266.934074 36.289952 278.705598 34.612414 Q 298.903154 31.73983 315.649776 42.827557 Q 319.311602 45.249603 322.5836 48.598288 Q 323.085263 49.109537 323.749888 48.889061 Z" style="fill:#fafbfa;"/>
		<path d="M 257.028612 114.006291 Q 257.044589 113.130776 256.983878 112.846394 Q 256.80494 111.980464 256.712276 112.86237 Q 256.523753 114.6134 256.469433 116.204665 C 256.332034 115.48572 256.194636 114.824291 256.23937 114.082979 Q 256.386355 111.689691 255.961378 109.452974 C 255.600308 107.55496 254.111294 105.695289 252.807607 104.445923 Q 250.957522 102.678916 248.340563 101.915237 Q 242.410067 100.186574 233.715628 98.195895 Q 233.079761 98.052106 232.852894 98.572942 Q 232.769816 98.764661 232.753839 98.796614 Q 230.382919 103.314783 229.181482 107.516616 Q 228.507272 109.87156 227.944897 112.252066 Q 226.794585 117.105742 226.58689 117.90457 C 226.580499 117.936523 226.513398 117.994039 226.420734 118.051554 L 226.344047 118.096288 C 226.292922 118.128242 226.229015 118.089898 226.235406 118.035578 Q 226.753046 113.207464 227.526311 108.64456 C 228.347506 103.790884 230.242325 99.084192 232.268152 94.492531 C 232.357621 94.291226 232.578097 94.182586 232.792183 94.230515 Q 241.464255 96.166873 250.430296 97.898732 C 254.287036 98.643239 256.459847 101.378425 258.469697 104.37243 Q 258.750884 104.794211 258.581533 105.519547 Q 257.923299 108.369764 257.469565 111.200809 Q 257.440807 111.382941 257.389682 112.609941 Q 257.360924 113.383206 257.028612 114.006291 Z" style="fill:#fafbfa;"/>
		<path d="M 341.298533 101.650026 Q 343.292406 100.921495 344.82935 99.713668 Q 344.883671 99.668934 344.937991 99.716863 L 345.011483 99.780769 Q 345.065803 99.825504 345.014678 99.873433 Q 343.091102 101.806596 340.924681 103.155017 C 339.608213 103.976212 338.486659 103.867571 337.125457 103.308392 Q 336.745215 103.155017 337.138238 103.036791 Q 339.061815 102.468025 341.298533 101.650026 Z" style="fill:#fafbfa;"/>
		<path d="M 333.642569 120.131701 L 332.31971 120.11892 Q 331.143836 116.032118 330.242759 111.088973 Q 329.916837 109.296404 328.750549 107.772241 Q 328.523682 107.475077 328.293619 107.318507 Q 327.932549 107.072468 327.660948 107.110811 Q 315.787174 108.871427 303.446886 109.232497 C 303.223214 109.238888 303.050667 109.430607 303.063449 109.651083 L 303.430909 115.987384 Q 303.325464 116.281352 303.469253 116.230227 Q 303.456472 116.246204 303.443691 116.26218 Q 303.38298 116.383602 303.469253 116.495438 Q 303.450081 116.556149 303.456472 116.594493 Q 303.386175 117.03225 303.48523 117.511547 Q 303.555526 118.428601 303.673753 119.34885 Q 303.686534 119.460686 303.692925 120.291467 Q 303.699315 120.79313 303.926182 121.221302 L 302.635277 121.381068 L 302.05373 107.072468 C 302.04734 106.903116 302.175152 106.759327 302.341308 106.746546 Q 307.971445 106.340742 311.860138 105.998843 Q 318.145314 105.446055 325.513699 104.199884 C 326.021754 104.11361 326.469097 104.132782 326.913245 104.519415 C 329.054103 106.37589 331.242891 108.634974 331.661476 111.104949 C 332.022546 113.22344 332.476281 115.319564 332.914038 117.422078 Q 333.275108 119.150741 333.642569 120.131701 Z M 302.574566 112.159402 C 302.577761 112.264847 302.577761 112.370292 302.580957 112.475738 C 302.61291 114.006291 302.718355 115.370689 302.81741 115.479329 C 302.826996 115.488915 302.833386 115.488915 302.842972 115.472939 C 302.922855 115.341931 302.954808 114.210791 302.91966 112.836808 C 302.884511 111.462824 302.791847 110.280559 302.702379 110.085645 C 302.689597 110.056888 302.676816 110.050497 302.664035 110.069669 C 302.593738 110.181505 302.55859 111.021871 302.574566 112.159402 Z M 302.804628 116.143954 Q 302.830191 116.26218 302.878121 116.099219 C 302.884511 116.076852 302.868535 116.05768 302.846167 116.054485 Q 302.782261 116.048095 302.804628 116.143954 Z M 302.868535 116.776625 C 302.868535 116.747867 302.842972 116.722305 302.814214 116.722305 C 302.785457 116.722305 302.759894 116.747867 302.759894 116.776625 C 302.759894 116.805383 302.785457 116.830946 302.814214 116.830946 C 302.842972 116.830946 302.868535 116.805383 302.868535 116.776625 Z M 303.165699 120.662123 Q 303.315878 120.662123 303.191261 119.336069 Q 303.191261 119.323288 303.18487 119.316897 Q 303.17848 119.307311 303.165699 119.307311 Q 303.152917 119.307311 303.146527 119.316897 Q 303.140136 119.323288 303.140136 119.336069 Q 303.012324 120.662123 303.165699 120.662123 Z" style="fill:#fafbfa;"/>
		<path d="M 332.31971 120.11892 Q 318.049454 120.023061 303.926182 121.221302 Q 303.699315 120.79313 303.692925 120.291467 Q 303.686534 119.460686 303.673753 119.34885 Q 303.555526 118.428601 303.48523 117.511547 Q 303.555526 117.016274 303.456472 116.594493 Q 303.450081 116.556149 303.469253 116.495438 Q 303.510792 116.374016 303.443691 116.26218 Q 303.456472 116.246204 303.469253 116.230227 Q 303.526769 116.070462 303.430909 115.987384 L 303.063449 109.651083 C 303.050667 109.430607 303.223214 109.238888 303.446886 109.232497 Q 315.787174 108.871427 327.660948 107.110811 Q 327.932549 107.072468 328.293619 107.318507 Q 328.523682 107.475077 328.750549 107.772241 Q 329.916837 109.296404 330.242759 111.088973 Q 331.143836 116.032118 332.31971 120.11892 Z" style="fill:#e7930b;"/>
		<path d="M 204.663866 120.805912 Q 206.290279 121.103076 207.993379 121.313966 Q 221.429659 122.978723 234.929845 123.97566 L 262.438272 125.982314 Q 262.476616 125.98551 262.486202 126.033439 Q 262.495788 126.08776 262.444663 126.090955 Q 261.406187 126.132494 259.127931 126.078174 Q 235.952345 125.525385 211.025729 123.697668 Q 196.432746 122.630434 182.52356 120.297857 Q 174.289245 118.917483 165.080361 116.188688 Q 160.185145 114.738017 156.107929 112.635503 Q 155.829937 112.491714 154.871344 111.600222 C 154.459149 111.216785 154.545422 110.756661 154.861758 110.379614 C 155.043891 110.162333 155.34425 110.08245 155.609461 110.1847 C 165.514923 113.971143 176.184064 116.10561 186.437815 117.949304 Q 190.735508 118.719374 204.663866 120.805912 Z" style="fill:#fafbfa;"/>
		<path d="M 302.580957 112.475738 C 302.577761 112.370292 302.577761 112.264847 302.574566 112.159402 L 302.580957 112.475738 Z" style="fill:#e7930b;"/>
		<path d="M 225.826406 119.141155 C 225.276813 119.614061 223.784603 120.023061 223.177494 120.045428 Q 220.263371 120.154068 217.617654 118.847186 Q 217.464279 118.773694 217.515404 118.613929 Q 217.739076 117.917351 218.167247 117.399711 Q 218.285474 117.259117 218.464411 117.297461 L 225.743328 118.808843 C 225.896703 118.840796 225.947828 119.03571 225.826406 119.141155 Z" style="fill:#fafbfa;"/>
		<path d="M 256.872042 118.067531 L 256.836893 118.361499 L 256.872042 118.067531 Z" style="fill:#041f2e;"/>
		<path d="M 350.919612 120.540701 Q 351.935721 120.882599 352.913486 121.400239 Q 356.083234 123.087363 359.2402 124.796854 Q 360.243528 125.340057 361.18934 125.963143 C 362.965932 127.129431 364.672228 127.84518 364.710572 130.05314 C 364.780868 133.957809 360.802707 133.961004 357.994029 133.433778 Q 357.01946 133.251646 349.328347 131.717897 Q 348.37295 131.526178 343.599156 130.842382 Q 340.927876 130.458944 337.857183 130.318351 C 334.335951 130.16178 329.290556 129.80071 325.635121 129.743195 Q 316.732986 129.605796 307.000071 130.458944 Q 303.747245 130.746522 300.679747 131.379194 Q 293.483908 132.868208 286.66192 135.450019 C 283.904368 136.49169 280.434261 137.88165 276.766044 139.450548 Q 262.56928 145.528028 247.442681 148.27919 C 243.196113 149.052455 239.19239 149.774595 234.671025 150.400876 Q 233.1213 150.614962 223.199861 152.078414 Q 219.649871 152.602445 212.016275 153.672874 C 204.714991 154.692178 197.512761 154.704959 190.18911 153.260679 Q 182.98688 151.838766 180.091929 150.931298 Q 177.67947 150.177205 176.883837 149.995072 Q 179.935359 150.033416 182.913388 149.934361 C 190.022953 149.697908 196.905652 147.636933 203.401718 145.234059 Q 210.223706 142.706569 217.326881 140.380383 C 218.266302 140.073633 219.525254 139.843571 220.659589 139.763688 Q 226.762632 139.341907 232.696324 138.929712 Q 233.274675 139.16936 234.51765 139.038353 C 238.741851 138.591009 242.170419 138.293845 245.78112 137.61644 Q 263.818647 134.238996 280.654737 127.129431 Q 281.757119 126.666111 283.147079 125.669174 Q 283.82129 125.394377 284.581773 125.288932 Q 291.969331 124.266433 292.132292 124.244066 C 295.222157 123.838261 298.618772 126.416877 300.999278 128.516196 Q 301.507332 128.963539 303.08262 129.318218 Q 304.066776 129.538695 306.498407 129.23514 Q 314.598519 128.235008 322.628334 128.225422 C 332.230242 128.212641 341.745876 128.634422 351.156065 129.858226 Q 354.274688 130.267226 358.093084 130.701788 C 359.821747 130.899897 362.237401 130.887116 363.432447 129.570648 C 363.646533 129.33739 363.620971 128.973125 363.381322 128.77182 Q 362.806167 128.289329 362.157519 127.979383 Q 355.338726 124.726557 349.941847 121.742138 Q 349.794863 121.662255 349.893917 121.524856 Q 350.309308 120.936919 350.919612 120.540701 Z" style="fill:#e7930b;"/>
		<path d="M 283.147079 125.669174 Q 281.757119 126.666111 280.654737 127.129431 Q 263.818647 134.238996 245.78112 137.61644 C 242.170419 138.293845 238.741851 138.591009 234.51765 139.038353 Q 233.274675 139.16936 232.696324 138.929712 Q 236.348563 138.431244 237.351891 138.223548 Q 241.393958 137.392768 245.282651 136.590745 Q 256.865651 134.200653 265.895598 131.216233 Q 274.826491 128.263766 278.226301 126.944103 Q 280.728229 125.975924 283.147079 125.669174 Z" style="fill:#fafbfa;"/>
	</g>
	<g id="surface4">
	</g>
</svg>
