<?xml version="1.0" encoding="utf-8"?>
<svg xmlns="http://www.w3.org/2000/svg" width="490pt" height="280pt" viewBox="0 0 490 280" version="1.1" xmlns:xlink="http://www.w3.org/1999/xlink">
	<g id="surface2">
		<path vector-effect="non-scaling-stroke" d="M 245.064865 95.977671 Q 269.856337 95.977671 276.873252 95.955103 Q 276.971049 95.955103 276.971049 95.857306 Q 276.956003 90.724858 277.014305 59.004864 C 277.019947 55.79826 274.531773 52.871881 271.509478 52.014279 Q 270.666921 51.775429 268.733555 51.77731 C 260.473492 51.788594 252.587691 51.75098 245.064865 51.75098 C 237.54392 51.75098 229.658118 51.786713 221.398056 51.775429 Q 219.46469 51.773548 218.622133 52.012398 C 215.599838 52.87 213.111663 55.796379 213.115425 59.002984 Q 213.173727 90.722978 213.1568 95.855425 Q 213.1568 95.953222 213.254597 95.953222 Q 220.271513 95.975791 245.064865 95.977671" style="fill:none;stroke-width:0.50;stroke:#818989;"/>
		<path vector-effect="non-scaling-stroke" d="M 245.038535 98.552358 Q 285.208543 98.550478 285.695646 98.542955 Q 286.02665 98.537313 286.192152 98.300344 C 286.58522 97.745535 286.427241 97.010179 285.795323 96.699863 Q 285.33267 96.472297 284.849328 96.472297 Q 269.502764 96.449729 245.038535 96.449729 Q 220.574306 96.451609 205.229623 96.476059 Q 204.744401 96.476059 204.281747 96.703624 C 203.649829 97.013941 203.49185 97.749297 203.884918 98.304105 Q 204.05042 98.541074 204.381424 98.546716 Q 204.870408 98.554239 245.038535 98.552358" style="fill:none;stroke-width:0.50;stroke:#818989;"/>
		<path vector-effect="non-scaling-stroke" d="M 245.047939 104.591307 Q 260.409548 104.591307 275.773039 104.595068 Q 278.426716 104.595068 278.962717 104.499152 Q 280.51618 104.220808 281.969966 103.231556 Q 284.318969 101.632956 285.895001 99.235055 C 285.942018 99.165469 285.898762 99.069553 285.816011 99.056388 Q 285.601611 99.020654 285.364642 99.020654 Q 249.802364 99.020654 245.047939 99.020654 Q 240.291632 99.020654 204.729355 99.015012 Q 204.492386 99.015012 204.277985 99.050746 C 204.195234 99.063911 204.153859 99.159827 204.198996 99.229413 Q 205.775028 101.627313 208.12403 103.225914 Q 209.577816 104.215165 211.131279 104.495391 Q 211.667281 104.591307 214.320958 104.591307 Q 229.684448 104.589426 245.047939 104.591307" style="fill:none;stroke-width:0.50;stroke:#818989;"/>
		<path vector-effect="non-scaling-stroke" d="M 246.193289 54.355758 C 246.193289 53.723841 245.679856 53.210408 245.047939 53.210408 C 244.416021 53.210408 243.902588 53.723841 243.902588 54.355758 C 243.902588 54.987676 244.416021 55.501108 245.047939 55.501108 C 245.679856 55.501108 246.193289 54.987676 246.193289 54.355758" style="fill:none;stroke-width:0.50;stroke:#818989;"/>
		<path vector-effect="non-scaling-stroke" d="M 272.308778 57.532271 C 272.308778 57.464566 272.252357 57.408145 272.184651 57.408145 L 217.881135 57.408145 C 217.813429 57.408145 217.757008 57.464566 217.757008 57.532271 L 217.757008 90.388212 C 217.757008 90.455917 217.813429 90.512339 217.881135 90.512339 L 272.184651 90.512339 C 272.252357 90.512339 272.308778 90.455917 272.308778 90.388212 L 272.308778 57.532271" style="fill:none;stroke-width:0.50;stroke:#805f4e;"/>
		<path vector-effect="non-scaling-stroke" d="M 252.698652 100.096418 L 237.352088 100.122748 C 237.243007 100.122748 237.152733 100.213022 237.152733 100.322103 L 237.154614 100.724574 C 237.154614 101.268098 237.613506 101.706303 238.179599 101.704422 L 251.878664 101.681854 C 252.442876 101.679973 252.899888 101.239888 252.899888 100.698244 L 252.898007 100.295773 C 252.898007 100.184812 252.809614 100.096418 252.698652 100.096418" style="fill:none;stroke-width:0.50;stroke:#818989;"/>
		<path d="M 301.950591 124.299229 Q 291.264417 137.554448 276.011889 144.853469 Q 272.716891 146.431382 267.70857 148.201127 C 266.683585 148.562222 265.891808 148.761577 264.708843 149.113269 Q 262.446353 149.784681 258.837278 150.503111 Q 258.037978 150.662971 257.996602 150.668613 Q 257.806651 150.698705 252.405262 151.48484 Q 251.368993 151.635296 248.171792 151.718047 C 244.664274 151.808321 240.820111 151.780111 237.705661 151.415254 Q 234.525386 151.042874 230.530766 150.28683 Q 229.146566 150.025412 228.245708 149.782801 C 227.352372 149.54207 226.205141 149.290056 225.214009 148.991023 Q 203.828497 142.523274 189.283113 125.679667 Q 184.662218 120.329058 181.184792 114.036214 Q 177.295491 106.998611 175.085661 100.115225 Q 173.268898 94.448657 172.349233 88.229161 C 172.061485 86.286391 171.677821 83.516111 171.627042 81.483067 C 171.56874 79.117139 171.41076 77.159323 171.566859 75.007795 C 171.651491 73.82295 171.636445 72.630582 171.758691 71.289639 C 172.524139 62.899807 174.87126 54.688643 178.416392 47.036049 Q 182.224822 38.817362 187.460709 32.001682 Q 190.862907 27.570738 194.951562 23.628777 Q 196.102555 22.51916 197.210291 21.614541 C 198.152525 20.843451 199.412598 19.760164 200.334144 19.05678 C 208.530263 12.782743 217.892419 8.103546 227.939153 5.773351 Q 231.051722 5.051159 235.078314 4.436168 Q 237.107596 4.125852 238.815278 4.005487 Q 246.716125 3.45632 253.131215 4.142778 Q 256.670704 4.5208 261.929159 5.649224 C 263.680097 6.023485 266.198363 6.753199 268.009483 7.362548 C 280.251001 11.475652 291.435562 18.842379 299.981492 28.627695 Q 300.799599 29.566167 302.789386 32.142735 Q 313.825371 46.436104 317.304678 64.327264 Q 318.367277 69.794477 318.525257 75.225957 C 318.579797 77.046481 318.577916 79.880705 318.442506 81.908107 Q 318.292049 84.15367 318.154757 85.112831 Q 317.882055 87.008583 317.880174 87.021748 Q 317.81435 87.768388 317.626279 88.930665 Q 316.264648 97.335541 313.035475 105.15928 Q 311.062614 109.940036 309.877769 112.063353 Q 308.30926 114.873129 307.637847 116.029763 Q 305.134627 120.349746 301.950591 124.299229 Z M 245.064865 95.977671 Q 269.856337 95.977671 276.873252 95.955103 Q 276.971049 95.955103 276.971049 95.857306 Q 276.956003 90.724858 277.014305 59.004864 C 277.019947 55.79826 274.531773 52.871881 271.509478 52.014279 Q 270.666921 51.775429 268.733555 51.77731 C 260.473492 51.788594 252.587691 51.75098 245.064865 51.75098 C 237.54392 51.75098 229.658118 51.786713 221.398056 51.775429 Q 219.46469 51.773548 218.622133 52.012398 C 215.599838 52.87 213.111663 55.796379 213.115425 59.002984 Q 213.173727 90.722978 213.1568 95.855425 Q 213.1568 95.953222 213.254597 95.953222 Q 220.271513 95.975791 245.064865 95.977671 Z M 245.038535 98.552358 Q 285.208543 98.550478 285.695646 98.542955 Q 286.02665 98.537313 286.192152 98.300344 C 286.58522 97.745535 286.427241 97.010179 285.795323 96.699863 Q 285.33267 96.472297 284.849328 96.472297 Q 269.502764 96.449729 245.038535 96.449729 Q 220.574306 96.451609 205.229623 96.476059 Q 204.744401 96.476059 204.281747 96.703624 C 203.649829 97.013941 203.49185 97.749297 203.884918 98.304105 Q 204.05042 98.541074 204.381424 98.546716 Q 204.870408 98.554239 245.038535 98.552358 Z M 245.047939 104.591307 Q 260.409548 104.591307 275.773039 104.595068 Q 278.426716 104.595068 278.962717 104.499152 Q 280.51618 104.220808 281.969966 103.231556 Q 284.318969 101.632956 285.895001 99.235055 C 285.942018 99.165469 285.898762 99.069553 285.816011 99.056388 Q 285.601611 99.020654 285.364642 99.020654 Q 249.802364 99.020654 245.047939 99.020654 Q 240.291632 99.020654 204.729355 99.015012 Q 204.492386 99.015012 204.277985 99.050746 C 204.195234 99.063911 204.153859 99.159827 204.198996 99.229413 Q 205.775028 101.627313 208.12403 103.225914 Q 209.577816 104.215165 211.131279 104.495391 Q 211.667281 104.591307 214.320958 104.591307 Q 229.684448 104.589426 245.047939 104.591307 Z" style="fill:#fcebd3;"/>
		<path d="M 245.064865 51.75098 C 252.587691 51.75098 260.473492 51.788594 268.733555 51.77731 Q 270.666921 51.775429 271.509478 52.014279 C 274.531773 52.871881 277.019947 55.79826 277.014305 59.004864 Q 276.956003 90.724858 276.971049 95.857306 Q 276.971049 95.955103 276.873252 95.955103 Q 269.856337 95.977671 245.064865 95.977671 Q 220.271513 95.975791 213.254597 95.953222 Q 213.1568 95.953222 213.1568 95.855425 Q 213.173727 90.722978 213.115425 59.002984 C 213.111663 55.796379 215.599838 52.87 218.622133 52.012398 Q 219.46469 51.773548 221.398056 51.775429 C 229.658118 51.786713 237.54392 51.75098 245.064865 51.75098 Z M 246.193289 54.355758 C 246.193289 53.723841 245.679856 53.210408 245.047939 53.210408 C 244.416021 53.210408 243.902588 53.723841 243.902588 54.355758 C 243.902588 54.987676 244.416021 55.501108 245.047939 55.501108 C 245.679856 55.501108 246.193289 54.987676 246.193289 54.355758 Z M 272.308778 57.532271 C 272.308778 57.464566 272.252357 57.408145 272.184651 57.408145 L 217.881135 57.408145 C 217.813429 57.408145 217.757008 57.464566 217.757008 57.532271 L 217.757008 90.388212 C 217.757008 90.455917 217.813429 90.512339 217.881135 90.512339 L 272.184651 90.512339 C 272.252357 90.512339 272.308778 90.455917 272.308778 90.388212 L 272.308778 57.532271 Z" style="fill:#05273e;"/>
		<path d="M 245.038535 96.449729 Q 269.502764 96.449729 284.849328 96.472297 Q 285.33267 96.472297 285.795323 96.699863 C 286.427241 97.010179 286.58522 97.745535 286.192152 98.300344 Q 286.02665 98.537313 285.695646 98.542955 Q 285.208543 98.550478 245.038535 98.552358 Q 204.870408 98.554239 204.381424 98.546716 Q 204.05042 98.541074 203.884918 98.304105 C 203.49185 97.749297 203.649829 97.013941 204.281747 96.703624 Q 204.744401 96.476059 205.229623 96.476059 Q 220.574306 96.451609 245.038535 96.449729 Z" style="fill:#05273e;"/>
		<path d="M 245.047939 99.020654 Q 249.802364 99.020654 285.364642 99.020654 Q 285.601611 99.020654 285.816011 99.056388 C 285.898762 99.069553 285.942018 99.165469 285.895001 99.235055 Q 284.318969 101.632956 281.969966 103.231556 Q 280.51618 104.220808 278.962717 104.499152 Q 278.426716 104.595068 275.773039 104.595068 Q 260.409548 104.591307 245.047939 104.591307 Q 229.684448 104.589426 214.320958 104.591307 Q 211.667281 104.591307 211.131279 104.495391 Q 209.577816 104.215165 208.12403 103.225914 Q 205.775028 101.627313 204.198996 99.229413 C 204.153859 99.159827 204.195234 99.063911 204.277985 99.050746 Q 204.492386 99.015012 204.729355 99.015012 Q 240.291632 99.020654 245.047939 99.020654 Z M 252.698652 100.096418 L 237.352088 100.122748 C 237.243007 100.122748 237.152733 100.213022 237.152733 100.322103 L 237.154614 100.724574 C 237.154614 101.268098 237.613506 101.706303 238.179599 101.704422 L 251.878664 101.681854 C 252.442876 101.679973 252.899888 101.239888 252.899888 100.698244 L 252.898007 100.295773 C 252.898007 100.184812 252.809614 100.096418 252.698652 100.096418 Z" style="fill:#05273e;"/>
		<path d="M 246.193289 54.355758 C 246.193289 54.987676 245.679856 55.501108 245.047939 55.501108 C 244.416021 55.501108 243.902588 54.987676 243.902588 54.355758 C 243.902588 53.723841 244.416021 53.210408 245.047939 53.210408 C 245.679856 53.210408 246.193289 53.723841 246.193289 54.355758 Z" style="fill:#fcebd3;"/>
		<path d="M 272.308778 90.388212 C 272.308778 90.455917 272.252357 90.512339 272.184651 90.512339 L 217.881135 90.512339 C 217.813429 90.512339 217.757008 90.455917 217.757008 90.388212 L 217.757008 57.532271 C 217.757008 57.464566 217.813429 57.408145 217.881135 57.408145 L 272.184651 57.408145 C 272.252357 57.408145 272.308778 57.464566 272.308778 57.532271 L 272.308778 90.388212 Z" style="fill:#fb965d;"/>
		<path d="M 252.698652 100.096418 C 252.809614 100.096418 252.898007 100.184812 252.898007 100.295773 L 252.899888 100.698244 C 252.899888 101.239888 252.442876 101.679973 251.878664 101.681854 L 238.179599 101.704422 C 237.613506 101.706303 237.154614 101.268098 237.154614 100.724574 L 237.152733 100.322103 C 237.152733 100.213022 237.243007 100.122748 237.352088 100.122748 L 252.698652 100.096418 Z" style="fill:#fcebd3;"/>
	</g>
	<g id="surface4">
	</g>
</svg>
