<?xml version="1.0" encoding="utf-8"?>
<svg xmlns="http://www.w3.org/2000/svg" width="490pt" height="280pt" viewBox="0 0 490 280" version="1.1" xmlns:xlink="http://www.w3.org/1999/xlink">
	<g id="surface2">
		<path vector-effect="non-scaling-stroke" d="M 319.323402 90.275486 Q 314.808391 90.684754 311.161261 91.2914 Q 305.853838 92.172342 299.661118 93.507543 Q 298.349138 93.790547 296.831073 94.151922 Q 290.725431 95.609033 288.872114 96.127149 Q 286.100121 96.902146 277.013499 99.791695 Q 275.723288 100.202414 274.241506 100.652319 Q 264.921223 103.480913 253.920329 107.090309 Q 253.75488 107.144007 253.746172 106.971302 Q 253.24402 97.791796 251.525675 89.062195 C 251.307979 87.957751 251.101894 86.64432 250.950958 85.748865 Q 250.749227 84.558794 250.054051 83.569004 Q 250.010512 83.506598 250.070016 83.457254 Q 250.917578 82.764981 251.069965 81.590875 C 251.316687 79.702727 250.67521 77.583821 249.061358 76.460511 C 248.396661 75.998996 247.47363 75.39235 246.869887 74.713139 Q 246.13843 73.8917 245.34892 72.727753 C 245.279257 72.623259 245.121065 72.640675 245.074623 72.75678 C 244.363483 74.53608 244.013719 76.118003 244.450562 78.081619 C 245.006411 80.577864 246.929391 82.082867 249.086031 83.299061 C 249.370487 83.460156 249.586731 83.621251 249.727508 83.889743 Q 250.123714 84.645873 250.321092 85.378782 Q 250.907419 87.557191 251.027877 88.239305 C 251.69838 92.008344 252.090233 95.202667 252.222301 98.608881 Q 252.400812 103.196457 251.370385 107.588107 C 251.312333 107.833377 251.235414 107.871111 251.011913 107.937871 C 245.862682 109.460291 240.855678 110.924658 235.783366 112.088605 Q 233.538197 112.603818 230.95052 113.010184" style="fill:none;stroke-width:0.50;stroke:#73996e;"/>
		<path vector-effect="non-scaling-stroke" d="M 230.95052 113.010184 Q 230.779266 112.904238 230.830061 112.888274 Q 231.188534 112.777975 231.520883 112.593659 Q 231.583289 112.558828 231.597802 112.489165 Q 231.652951 112.210514 231.786471 112.111826" style="fill:none;stroke-width:0.50;stroke:#a6c78a;"/>
		<path vector-effect="non-scaling-stroke" d="M 231.786471 112.111826 Q 231.683429 112.644455 232.761749 112.359999" style="fill:none;stroke-width:0.50;stroke:#73996e;"/>
		<path vector-effect="non-scaling-stroke" d="M 232.761749 112.359999 L 234.646994 112.166975 Q 234.661507 112.165524 234.667312 112.152462 Q 234.674569 112.136498 234.673118 112.114728 Q 234.671666 112.103118 234.660056 112.101666 L 232.79658 111.814308" style="fill:none;stroke-width:0.50;stroke:#a6c78a;"/>
		<path vector-effect="non-scaling-stroke" d="M 232.79658 111.814308 Q 232.403276 110.053875 232.64129 108.264415 Q 232.706599 107.772423 233.121672 105.506935 Q 233.141991 105.398087 233.127478 105.0788 Q 233.124575 104.998978 233.069425 105.058482 C 232.731271 105.427113 232.689183 105.892982 232.330711 106.463345 Q 232.268305 106.563485 232.22912 106.740545 Q 231.667464 109.267267 231.681977 111.40504" style="fill:none;stroke-width:0.50;stroke:#73996e;"/>
		<path vector-effect="non-scaling-stroke" d="M 231.681977 111.40504 Q 230.282919 110.950781 228.859189 110.506682 Q 225.573433 109.479158 222.438614 108.239743 Q 216.73063 105.984415 211.151813 103.479462 C 211.073442 103.44463 210.984912 103.49978 210.983461 103.585407 Q 210.832525 109.493671 210.918152 115.404837" style="fill:none;stroke-width:0.50;stroke:#a6c78a;"/>
		<path vector-effect="non-scaling-stroke" d="M 210.918152 115.404837 Q 210.938471 116.007129 210.990718 116.761808 Q 211.21567 119.988059 211.995021 122.94582 C 212.016791 123.027093 212.089356 123.083694 212.173532 123.082242 Q 219.782725 123.043057 227.676375 123.8137 C 237.7107 124.79188 247.531683 126.500066 257.339604 128.674122 Q 267.111243 130.840921 274.511448 132.877102 Q 278.19341 133.890113 285.821471 136.193334 Q 293.951683 138.647492 297.160519 139.651795 C 297.333224 139.705493 297.48416 139.64599 297.627839 139.542947 Q 302.406988 136.119318 306.139745 131.549157" style="fill:none;stroke-width:0.50;stroke:#73996e;"/>
		<path vector-effect="non-scaling-stroke" d="M 238.630827 150.847164 L 238.418937 150.835554" style="fill:none;stroke-width:0.50;stroke:#73996e;"/>
		<path vector-effect="non-scaling-stroke" d="M 238.201241 150.807979 L 238.079331 150.784758" style="fill:none;stroke-width:0.50;stroke:#a6c78a;"/>
		<path vector-effect="non-scaling-stroke" d="M 181.114147 128.218412 Q 181.115598 128.174873 181.146075 128.142944" style="fill:none;stroke-width:0.50;stroke:#a6c78a;"/>
		<path vector-effect="non-scaling-stroke" d="M 181.146075 128.142944 Q 181.282498 128.288074 181.413116 128.240181 Q 186.653779 126.286724 191.871222 125.29258 Q 199.988372 123.748391 205.848743 123.343477 Q 208.522047 123.159162 209.48136 123.099658 Q 209.613429 123.09095 209.598916 122.958881 Q 209.294142 120.117226 209.408795 117.411993 C 209.519094 114.795289 209.739693 111.60532 210.005281 108.711417 Q 210.704811 101.093516 211.632195 90.015702 Q 211.823767 87.715383 211.833926 85.808368 Q 211.852793 82.60824 210.497274 79.900104 Q 210.495823 79.897202 210.491469 79.89575 Q 210.47115 79.887043 210.455186 79.89575 Q 210.427611 79.907361 210.434868 79.936387 Q 210.591609 80.556094 210.662723 81.564751 Q 210.903639 84.928877 210.828172 87.815523 Q 210.82672 87.847452 210.799145 87.84455 L 210.797694 87.84455 Q 210.771571 87.843098 210.768668 87.821329 Q 210.47115 85.817076 209.675835 83.854911 Q 208.437872 80.794108 206.983664 77.768137 Q 205.626693 74.948251 203.526655 72.655188 Q 202.075349 71.070363 200.346845 69.572616 Q 200.327978 69.556651 200.327978 69.531979 L 200.327978 69.463768 Q 200.327978 69.441998 200.346845 69.453609 Q 200.759015 69.714844 200.931721 69.849815 Q 205.287088 73.23571 208.03586 77.995992 Q 208.68024 79.112045 209.629393 80.878284 Q 209.771621 81.14097 209.786134 80.842001 Q 209.812258 80.319532 209.97045 79.765133 Q 210.063334 79.44004 210.022697 79.07286 Q 209.860151 77.614298 209.597465 76.083171 Q 209.420405 75.052745 209.321717 74.10214 Q 209.268018 73.59128 209.157719 72.108046 Q 209.082251 71.083425 208.839883 70.555149 C 206.771773 66.040139 202.651517 62.381398 198.149568 60.618062 Q 194.049631 59.011467 189.800209 57.943306 Q 188.359063 57.58048 187.145772 57.448411 Q 186.933881 57.426642 186.790202 57.441155 C 186.706026 57.449862 186.653779 57.538392 186.687159 57.616763 Q 186.781494 57.840264 186.846803 57.946209 Q 188.376478 60.429392 189.305314 62.900965 Q 190.189159 65.253531 191.331336 67.899261 C 192.277587 70.08928 193.387836 72.025322 195.101827 73.723349 Q 199.053732 77.637519 203.873516 80.410964 C 204.860404 80.978424 206.213021 81.632963 207.365357 82.258475 C 207.871863 82.532772 208.241945 82.824484 208.540914 83.261327 Q 209.395733 84.515255 210.022697 85.849005 Q 210.546618 86.963607 210.565485 88.250915 Q 210.590157 90.09117 210.569839 90.584614 Q 210.375364 95.501636 210.086555 102.094916 Q 210.072041 102.427265 210.032856 102.913453" style="fill:none;stroke-width:0.50;stroke:#73996e;"/>
		<path vector-effect="non-scaling-stroke" d="M 210.032856 102.913453 Q 203.600671 99.707519 198.56319 96.664132 Q 194.503889 94.211426 190.440235 91.765976 Q 187.663888 90.094073 184.791754 88.593423 Q 178.231854 85.162537 171 83.508049" style="fill:none;stroke-width:0.50;stroke:#a6c78a;"/>
		<path vector-effect="non-scaling-stroke" d="M 213.655314 72.108046 Q 213.089305 73.019466 212.974652 73.316983 Q 212.129992 75.508454 211.648159 78.27174 Q 211.427561 79.532924 211.584302 80.792657 C 211.591558 80.855063 211.658318 80.891346 211.714919 80.865222 C 213.678535 79.937838 215.514436 79.056896 217.280675 77.807322 Q 221.490912 74.830695 223.232478 70.006556 Q 224.293382 67.067663 224.644598 65.645384 Q 225.628583 61.664453 227.592199 58.184223 C 228.207553 57.094293 228.618272 56.296075 229.018832 55.330957 Q 229.293129 54.669162 229.397623 53.972535 C 229.41649 53.849174 229.323606 53.737424 229.198794 53.731618 Q 229.11607 53.727264 228.947718 53.749034 Q 228.107412 53.853528 226.484853 54.354228 C 224.212109 55.05666 221.801491 55.825852 219.663718 56.82435 C 217.012183 58.063765 214.820712 60.134777 213.09511 62.491697 C 211.658318 64.453862 210.474053 66.504556 209.765816 68.764239 Q 209.46975 69.703233 209.387025 70.634971 C 209.291239 71.694424 209.585854 72.759682 209.9153 73.79156 Q 210.417452 75.361873 211.044416 76.517112 Q 211.299846 76.987335 211.439171 76.47067 Q 211.81651 75.068709 212.49427 73.745118 Q 213.074792 72.611649 213.621934 72.081923 Q 213.745295 71.962916 213.655314 72.108046" style="fill:none;stroke-width:0.50;stroke:#73996e;"/>
		<path vector-effect="non-scaling-stroke" d="M 249.824745 76.74932 Q 249.757985 76.884292 249.86393 76.99314 Q 251.289112 78.432835 251.415376 80.558997 C 251.451658 81.178704 251.434243 82.627107 251.669354 83.740258 C 251.715796 83.960857 251.978482 84.056643 252.155541 83.917317 Q 253.865179 82.566152 254.06691 82.40796 Q 255.711239 81.109042 256.458662 79.226699 C 256.886797 78.146927 257.026122 76.890097 257.245269 75.466367 C 257.606644 73.122508 258.682061 71.026824 259.982431 69.018217 Q 260.121756 68.803424 259.876486 68.729407 Q 259.734258 68.685868 259.478828 68.768593 C 257.567459 69.391203 255.521118 70.272145 254.056751 71.376588 C 252.248425 72.739364 250.831951 74.705883 249.824745 76.74932" style="fill:none;stroke-width:0.50;stroke:#73996e;"/>
		<path vector-effect="non-scaling-stroke" d="M 288.872114 88.520858 Q 288.851796 88.528114 288.832929 88.517955 C 288.149364 88.101431 287.349695 87.718286 286.75466 87.303213 Q 285.272877 86.269883 283.905748 84.981124 Q 283.704016 84.791003 283.857855 85.021761 C 284.730089 86.335192 285.766321 87.590571 287.15522 88.438133 Q 288.398989 89.195715 289.197207 89.91266 Q 289.214622 89.928624 289.230587 89.927173 Q 289.237843 89.927173 289.295895 89.876377 Q 289.327824 89.848802 289.301701 89.816873 L 288.709568 89.069451 Q 288.496226 88.80096 288.828575 88.71243 L 289.133349 88.631157 C 289.220428 88.607936 289.281382 88.528114 289.27848 88.438133 Q 289.232038 86.750265 289.978009 85.285898 C 289.998327 85.245262 290.002681 85.197369 289.988168 85.153829 Q 289.769021 84.470265 289.294444 83.881035 Q 286.252508 80.103287 281.376122 81.225146 Q 280.873971 81.34125 280.530011 81.521212 C 280.470508 81.553141 280.4618 81.635865 280.514047 81.677953 L 288.937423 88.471513 Q 288.960644 88.49038 288.933069 88.499088 L 288.872114 88.520858" style="fill:none;stroke-width:0.50;stroke:#73996e;"/>
		<path vector-effect="non-scaling-stroke" d="M 290.144909 85.325084 C 289.73419 86.078311 289.452636 87.056491 289.748703 87.821329 Q 290.098467 88.726943 290.218926 89.121698 Q 290.266819 89.281342 290.330676 89.127503 C 290.575947 88.525212 290.988117 88.22334 291.662974 88.108687 Q 292.584553 87.951946 293.430664 88.094174 C 293.48146 88.102882 293.533707 88.086917 293.56999 88.050635 Q 296.678686 84.97677 300.309851 81.944993 C 300.357745 81.905808 300.346134 81.828889 300.288082 81.805668 Q 299.649508 81.556044 298.913696 81.445744 C 295.295592 80.905859 291.94743 82.008851 290.144909 85.325084" style="fill:none;stroke-width:0.50;stroke:#73996e;"/>
		<path vector-effect="non-scaling-stroke" d="M 273.772734 94.359459 Q 273.591321 97.20692 273.543428 97.923865 Q 273.449093 99.327277 273.489729 100.288041 C 273.495535 100.4085 273.607285 100.494127 273.724841 100.466552 L 274.440334 100.299652 Q 274.647871 100.250307 274.585465 100.047125 Q 274.042677 98.275081 274.299558 96.620593 Q 274.449042 95.659829 274.839443 94.429122 Q 274.861213 94.358008 274.930876 94.328982 C 277.197814 93.353704 278.557688 90.8473 277.628852 88.461354 C 277.117993 87.147923 276.023708 85.814173 275.438832 84.999991 C 275.271932 84.767782 275.14712 84.490583 275.0136 84.246764 C 274.984574 84.194517 274.912009 84.185809 274.872823 84.230799 C 273.004993 86.35551 269.976119 88.790801 271.53337 92.064945 Q 272.279341 93.635258 273.745159 94.314469 Q 273.774185 94.32753 273.772734 94.359459" style="fill:none;stroke-width:0.50;stroke:#73996e;"/>
		<path vector-effect="non-scaling-stroke" d="M 290.317614 91.230445 Q 290.295845 91.22464 290.294394 91.201419 Q 290.239244 90.223239 289.818365 89.36842 Q 289.783534 89.300209 289.738544 89.272634 C 289.705164 89.253767 289.663076 89.27989 289.66743 89.317624 Q 289.84594 91.42492 289.866258 92.331986 Q 289.889479 93.394341 289.50053 95.369568 Q 289.465698 95.548078 289.64566 95.523406 L 290.484515 95.404399 Q 290.658671 95.379727 290.677538 95.20557 C 290.795094 94.156276 290.677538 93.327581 290.577398 92.056238 C 290.5237 91.382832 290.573044 90.71378 290.636902 90.128904 C 290.654317 89.963455 290.776227 89.828484 290.938773 89.795104 C 292.143357 89.542577 293.44808 89.191361 294.37111 88.53392 Q 296.122836 87.287248 297.256305 85.550036 Q 297.279526 85.515204 297.238889 85.505045 L 297.19535 85.493435 Q 297.185191 85.490532 297.179386 85.497789 Q 296.1388 86.737204 294.832625 87.68926 C 293.684643 88.526663 292.857399 88.65728 291.298697 89.053487 C 290.806704 89.178299 290.533859 89.366969 290.493222 89.918465 Q 290.433719 90.745709 290.432268 91.223188 Q 290.432268 91.260922 290.395985 91.250763 L 290.317614 91.230445" style="fill:none;stroke-width:0.50;stroke:#73996e;"/>
		<path vector-effect="non-scaling-stroke" d="M 233.873448 102.896037 Q 233.921342 104.059984 234.326256 105.350194 Q 234.449617 105.744949 234.320451 106.022148 Q 234.028738 106.649112 233.745734 107.027903 Q 233.48595 107.374765 233.840068 107.123689 C 234.162258 106.897286 234.548305 106.554778 234.921291 106.339984 Q 236.336314 105.530156 237.717956 104.663727 Q 239.037193 103.836483 240.013921 102.591263 C 240.563966 101.888831 241.397015 100.645062 241.92529 99.803305 Q 243.00361 98.082057 242.8251 96.044424 C 242.81494 95.918161 242.675615 95.845596 242.565316 95.908002 Q 241.325901 96.604628 240.373845 96.902146 C 238.090942 97.617639 235.863188 98.070447 234.362538 100.041319 C 234.329158 100.084858 234.259496 100.068894 234.247885 100.015196 C 233.281316 95.655475 228.898374 93.60478 225.111918 92.240553 Q 224.942116 92.179598 224.884063 92.350852 Q 224.707004 92.874774 224.653306 93.387084 C 224.450123 95.349249 224.778118 97.430421 225.721467 99.198111 Q 226.196043 100.089212 227.135038 101.057233 C 228.268507 102.226985 229.158158 103.064388 230.581888 103.692803 C 231.404778 104.057081 231.882258 104.441677 232.337967 105.104924 C 232.372799 105.154268 232.443913 105.160073 232.484549 105.116534 C 233.050558 104.525853 233.435154 103.660875 233.718159 102.871365 Q 233.856033 102.489671 233.873448 102.896037" style="fill:none;stroke-width:0.50;stroke:#73996e;"/>
		<path vector-effect="non-scaling-stroke" d="M 229.085592 104.292193 C 228.4267 103.589761 228.074032 102.839436 227.706852 101.938175 Q 227.394822 101.170435 227.403529 101.980263 Q 227.404981 102.0209 227.500767 102.418557 Q 227.908584 104.113682 229.206051 105.171684 C 230.033295 105.847992 231.09565 106.197756 232.179775 106.458991 C 232.233473 106.472053 232.287172 106.434319 232.292977 106.37917 C 232.397471 105.390831 231.327859 105.01204 230.56157 104.9119 C 229.909934 104.826273 229.510825 104.746451 229.085592 104.292193" style="fill:none;stroke-width:0.50;stroke:#73996e;"/>
		<path vector-effect="non-scaling-stroke" d="M 181.146075 128.142944 Q 179.388545 125.420295 178.626609 124.003821 Q 176.439492 119.93291 175.031726 115.471597 C 174.996895 115.359847 175.082522 115.246645 175.200078 115.25245 Q 191.789949 115.983908 208.374014 115.545614 C 208.417553 115.544163 208.453836 115.513685 208.462544 115.470146 Q 209.64826 109.178738 210.032856 102.913453" style="fill:none;stroke-width:0.50;stroke:#588443;"/>
		<path vector-effect="non-scaling-stroke" d="M 319.323402 90.554137 Q 319.247934 90.809566 319.234873 90.973564 Q 319.112963 92.510496 318.989602 94.91676" style="fill:none;stroke-width:0.50;stroke:#73996e;"/>
		<path vector-effect="non-scaling-stroke" d="M 317.888061 102.875719 Q 317.69794 102.980213 317.787921 103.421409" style="fill:none;stroke-width:0.50;stroke:#588443;"/>
		<path vector-effect="non-scaling-stroke" d="M 317.603605 104.607126 L 317.06372 107.477808" style="fill:none;stroke-width:0.50;stroke:#588443;"/>
		<path vector-effect="non-scaling-stroke" d="M 317.040499 107.760812 Q 316.824255 108.113479 316.925846 108.451634" style="fill:none;stroke-width:0.50;stroke:#588443;"/>
		<path vector-effect="non-scaling-stroke" d="M 316.429499 110.466045 L 315.374401 114.168325" style="fill:none;stroke-width:0.50;stroke:#588443;"/>
		<path vector-effect="non-scaling-stroke" d="M 315.267004 114.577593 L 314.780817 115.962139" style="fill:none;stroke-width:0.50;stroke:#588443;"/>
		<path vector-effect="non-scaling-stroke" d="M 314.702446 116.221922 Q 314.644394 116.21902 314.608111 116.320611 Q 311.897073 124.076386 306.885716 130.581137 Q 306.865398 130.608712 306.853787 130.692887" style="fill:none;stroke-width:0.50;stroke:#588443;"/>
		<path vector-effect="non-scaling-stroke" d="M 210.918152 115.404837 Q 216.309752 115.192947 221.830517 114.387472 Q 227.374503 113.577644 230.95052 113.010184" style="fill:none;stroke-width:0.50;stroke:#588443;"/>
		<path vector-effect="non-scaling-stroke" d="M 171.867881 100.311262 Q 171.87804 100.19806 171.847562 100.093566" style="fill:none;stroke-width:0.50;stroke:#588443;"/>
		<path vector-effect="non-scaling-stroke" d="M 171.606646 98.511644 Q 171.728555 98.246055 171.650185 97.88468 Q 171.525373 97.312865 171.52247 96.729441 C 171.521019 96.55093 171.404914 96.341942 171.413622 96.21713 Q 171.442648 95.76142 171.365729 95.317321 Q 171.285907 94.860159 171.272845 94.426219 Q 171.235111 93.088116 171 91.75872" style="fill:none;stroke-width:0.50;stroke:#a6c78a;"/>
		<path vector-effect="non-scaling-stroke" d="M 274.042677 94.317371 Q 273.96866 94.317371 273.971563 94.391388 Q 274.010748 95.208473 273.952696 96.186652 Q 273.945439 96.311465 273.974465 96.543674 Q 273.996235 96.713476 274.039774 96.548027 L 274.608686 94.395742 Q 274.630455 94.317371 274.547731 94.317371 L 274.042677 94.317371" style="fill:none;stroke-width:0.50;stroke:#73996e;"/>
		<path vector-effect="non-scaling-stroke" d="M 231.681977 111.40504 L 231.786471 112.111826" style="fill:none;stroke-width:0.50;stroke:#588443;"/>
		<path vector-effect="non-scaling-stroke" d="M 232.79658 111.814308 Q 232.811093 111.92751 232.906879 112.217771 Q 232.935905 112.309203 232.761749 112.359999" style="fill:none;stroke-width:0.50;stroke:#588443;"/>
		<path d="M 319.323402 57.462924 L 319.323402 90.275486 Q 314.808391 90.684754 311.161261 91.2914 Q 305.853838 92.172342 299.661118 93.507543 Q 298.349138 93.790547 296.831073 94.151922 Q 290.725431 95.609033 288.872114 96.127149 Q 286.100121 96.902146 277.013499 99.791695 Q 275.723288 100.202414 274.241506 100.652319 Q 264.921223 103.480913 253.920329 107.090309 Q 253.75488 107.144007 253.746172 106.971302 Q 253.24402 97.791796 251.525675 89.062195 C 251.307979 87.957751 251.101894 86.64432 250.950958 85.748865 Q 250.749227 84.558794 250.054051 83.569004 Q 250.010512 83.506598 250.070016 83.457254 Q 250.917578 82.764981 251.069965 81.590875 C 251.316687 79.702727 250.67521 77.583821 249.061358 76.460511 C 248.396661 75.998996 247.47363 75.39235 246.869887 74.713139 Q 246.13843 73.8917 245.34892 72.727753 C 245.279257 72.623259 245.121065 72.640675 245.074623 72.75678 C 244.363483 74.53608 244.013719 76.118003 244.450562 78.081619 C 245.006411 80.577864 246.929391 82.082867 249.086031 83.299061 C 249.370487 83.460156 249.586731 83.621251 249.727508 83.889743 Q 250.123714 84.645873 250.321092 85.378782 Q 250.907419 87.557191 251.027877 88.239305 C 251.69838 92.008344 252.090233 95.202667 252.222301 98.608881 Q 252.400812 103.196457 251.370385 107.588107 C 251.312333 107.833377 251.235414 107.871111 251.011913 107.937871 C 245.862682 109.460291 240.855678 110.924658 235.783366 112.088605 Q 233.538197 112.603818 230.95052 113.010184 Q 230.779266 112.904238 230.830061 112.888274 Q 231.188534 112.777975 231.520883 112.593659 Q 231.583289 112.558828 231.597802 112.489165 Q 231.652951 112.210514 231.786471 112.111826 Q 231.683429 112.644455 232.761749 112.359999 L 234.646994 112.166975 Q 234.661507 112.165524 234.667312 112.152462 Q 234.674569 112.136498 234.673118 112.114728 Q 234.671666 112.103118 234.660056 112.101666 L 232.79658 111.814308 Q 232.403276 110.053875 232.64129 108.264415 Q 232.706599 107.772423 233.121672 105.506935 Q 233.141991 105.398087 233.127478 105.0788 Q 233.124575 104.998978 233.069425 105.058482 C 232.731271 105.427113 232.689183 105.892982 232.330711 106.463345 Q 232.268305 106.563485 232.22912 106.740545 Q 231.667464 109.267267 231.681977 111.40504 Q 230.282919 110.950781 228.859189 110.506682 Q 225.573433 109.479158 222.438614 108.239743 Q 216.73063 105.984415 211.151813 103.479462 C 211.073442 103.44463 210.984912 103.49978 210.983461 103.585407 Q 210.832525 109.493671 210.918152 115.404837 Q 210.938471 116.007129 210.990718 116.761808 Q 211.21567 119.988059 211.995021 122.94582 C 212.016791 123.027093 212.089356 123.083694 212.173532 123.082242 Q 219.782725 123.043057 227.676375 123.8137 C 237.7107 124.79188 247.531683 126.500066 257.339604 128.674122 Q 267.111243 130.840921 274.511448 132.877102 Q 278.19341 133.890113 285.821471 136.193334 Q 293.951683 138.647492 297.160519 139.651795 C 297.333224 139.705493 297.48416 139.64599 297.627839 139.542947 Q 302.406988 136.119318 306.139745 131.549157 Q 302.221221 136.49956 297.041512 140.061063 C 294.533656 141.786665 291.857449 143.367137 289.098518 144.570269 Q 286.869313 145.542643 286.181394 145.800976 C 283.299102 146.886552 280.071399 147.719601 277.109285 148.336406 Q 275.176146 148.739869 269.540728 149.41908 Q 263.346557 150.166502 254.557452 150.501753 Q 253.037935 150.558354 251.660646 150.646884 C 247.887253 150.887801 244.11531 150.863129 240.336111 150.902314 Q 239.832508 150.906668 238.630827 150.847164 L 238.418937 150.835554 L 238.201241 150.807979 L 238.079331 150.784758 Q 235.898019 150.510461 233.694938 150.433542 C 231.416389 150.355172 230.065223 150.262288 227.503669 150.104096 Q 222.229626 149.779003 216.260407 148.909672 Q 210.636599 148.092587 205.742798 146.4947 Q 196.275933 143.401968 188.732048 136.696937 Q 185.514504 133.836415 182.722193 130.366344 C 182.214236 129.736477 181.671448 128.919392 181.114147 128.218412 Q 181.115598 128.174873 181.146075 128.142944 Q 181.282498 128.288074 181.413116 128.240181 Q 186.653779 126.286724 191.871222 125.29258 Q 199.988372 123.748391 205.848743 123.343477 Q 208.522047 123.159162 209.48136 123.099658 Q 209.613429 123.09095 209.598916 122.958881 Q 209.294142 120.117226 209.408795 117.411993 C 209.519094 114.795289 209.739693 111.60532 210.005281 108.711417 Q 210.704811 101.093516 211.632195 90.015702 Q 211.823767 87.715383 211.833926 85.808368 Q 211.852793 82.60824 210.497274 79.900104 Q 210.495823 79.897202 210.491469 79.89575 Q 210.47115 79.887043 210.455186 79.89575 Q 210.427611 79.907361 210.434868 79.936387 Q 210.591609 80.556094 210.662723 81.564751 Q 210.903639 84.928877 210.828172 87.815523 Q 210.82672 87.847452 210.799145 87.84455 L 210.797694 87.84455 Q 210.771571 87.843098 210.768668 87.821329 Q 210.47115 85.817076 209.675835 83.854911 Q 208.437872 80.794108 206.983664 77.768137 Q 205.626693 74.948251 203.526655 72.655188 Q 202.075349 71.070363 200.346845 69.572616 Q 200.327978 69.556651 200.327978 69.531979 L 200.327978 69.463768 Q 200.327978 69.441998 200.346845 69.453609 Q 200.759015 69.714844 200.931721 69.849815 Q 205.287088 73.23571 208.03586 77.995992 Q 208.68024 79.112045 209.629393 80.878284 Q 209.771621 81.14097 209.786134 80.842001 Q 209.812258 80.319532 209.97045 79.765133 Q 210.063334 79.44004 210.022697 79.07286 Q 209.860151 77.614298 209.597465 76.083171 Q 209.420405 75.052745 209.321717 74.10214 Q 209.268018 73.59128 209.157719 72.108046 Q 209.082251 71.083425 208.839883 70.555149 C 206.771773 66.040139 202.651517 62.381398 198.149568 60.618062 Q 194.049631 59.011467 189.800209 57.943306 Q 188.359063 57.58048 187.145772 57.448411 Q 186.933881 57.426642 186.790202 57.441155 C 186.706026 57.449862 186.653779 57.538392 186.687159 57.616763 Q 186.781494 57.840264 186.846803 57.946209 Q 188.376478 60.429392 189.305314 62.900965 Q 190.189159 65.253531 191.331336 67.899261 C 192.277587 70.08928 193.387836 72.025322 195.101827 73.723349 Q 199.053732 77.637519 203.873516 80.410964 C 204.860404 80.978424 206.213021 81.632963 207.365357 82.258475 C 207.871863 82.532772 208.241945 82.824484 208.540914 83.261327 Q 209.395733 84.515255 210.022697 85.849005 Q 210.546618 86.963607 210.565485 88.250915 Q 210.590157 90.09117 210.569839 90.584614 Q 210.375364 95.501636 210.086555 102.094916 Q 210.072041 102.427265 210.032856 102.913453 Q 203.600671 99.707519 198.56319 96.664132 Q 194.503889 94.211426 190.440235 91.765976 Q 187.663888 90.094073 184.791754 88.593423 Q 178.231854 85.162537 171 83.508049 L 171 56.391861 Q 171.056601 55.580581 171.36718 53.839015 Q 171.42233 53.531338 171.651636 51.538696 C 171.849014 49.827607 172.060904 48.744933 172.396156 46.768255 Q 173.454157 40.520386 175.796564 34.646954 C 177.757278 29.731382 180.487183 25.066887 184.002244 21.144009 Q 191.910407 12.318621 203.040467 8.070651 Q 204.391632 7.553986 205.784886 7.1244 Q 211.742494 5.285596 217.916347 4.549784 Q 225.503771 3.64417 228.690837 3.480172 C 230.552862 3.384386 233.390164 3.156531 235.690483 3.098479 C 241.601649 2.948994 244.840963 2.825633 249.406769 2.960605 Q 253.631519 3.086868 254.0553 3.095576 C 256.136472 3.134761 257.764836 3.272635 260.330744 3.404704 Q 262.240662 3.504844 263.22755 3.586117 Q 269.85421 4.131808 274.565147 4.85601 Q 279.268827 5.57876 284.415156 7.133108 C 293.260862 9.806412 300.926656 14.90775 306.878459 21.997376 C 312.544355 28.744495 315.921543 37.041607 317.602154 45.652202 Q 318.345223 49.457524 318.780614 53.206246 Q 318.847374 53.782414 319.094096 55.328054 Q 319.263899 56.387507 319.323402 57.462924 Z M 213.655314 72.108046 Q 213.089305 73.019466 212.974652 73.316983 Q 212.129992 75.508454 211.648159 78.27174 Q 211.427561 79.532924 211.584302 80.792657 C 211.591558 80.855063 211.658318 80.891346 211.714919 80.865222 C 213.678535 79.937838 215.514436 79.056896 217.280675 77.807322 Q 221.490912 74.830695 223.232478 70.006556 Q 224.293382 67.067663 224.644598 65.645384 Q 225.628583 61.664453 227.592199 58.184223 C 228.207553 57.094293 228.618272 56.296075 229.018832 55.330957 Q 229.293129 54.669162 229.397623 53.972535 C 229.41649 53.849174 229.323606 53.737424 229.198794 53.731618 Q 229.11607 53.727264 228.947718 53.749034 Q 228.107412 53.853528 226.484853 54.354228 C 224.212109 55.05666 221.801491 55.825852 219.663718 56.82435 C 217.012183 58.063765 214.820712 60.134777 213.09511 62.491697 C 211.658318 64.453862 210.474053 66.504556 209.765816 68.764239 Q 209.46975 69.703233 209.387025 70.634971 C 209.291239 71.694424 209.585854 72.759682 209.9153 73.79156 Q 210.417452 75.361873 211.044416 76.517112 Q 211.299846 76.987335 211.439171 76.47067 Q 211.81651 75.068709 212.49427 73.745118 Q 213.074792 72.611649 213.621934 72.081923 Q 213.745295 71.962916 213.655314 72.108046 Z M 249.824745 76.74932 Q 249.757985 76.884292 249.86393 76.99314 Q 251.289112 78.432835 251.415376 80.558997 C 251.451658 81.178704 251.434243 82.627107 251.669354 83.740258 C 251.715796 83.960857 251.978482 84.056643 252.155541 83.917317 Q 253.865179 82.566152 254.06691 82.40796 Q 255.711239 81.109042 256.458662 79.226699 C 256.886797 78.146927 257.026122 76.890097 257.245269 75.466367 C 257.606644 73.122508 258.682061 71.026824 259.982431 69.018217 Q 260.121756 68.803424 259.876486 68.729407 Q 259.734258 68.685868 259.478828 68.768593 C 257.567459 69.391203 255.521118 70.272145 254.056751 71.376588 C 252.248425 72.739364 250.831951 74.705883 249.824745 76.74932 Z M 288.872114 88.520858 Q 288.851796 88.528114 288.832929 88.517955 C 288.149364 88.101431 287.349695 87.718286 286.75466 87.303213 Q 285.272877 86.269883 283.905748 84.981124 Q 283.704016 84.791003 283.857855 85.021761 C 284.730089 86.335192 285.766321 87.590571 287.15522 88.438133 Q 288.398989 89.195715 289.197207 89.91266 Q 289.214622 89.928624 289.230587 89.927173 Q 289.237843 89.927173 289.295895 89.876377 Q 289.327824 89.848802 289.301701 89.816873 L 288.709568 89.069451 Q 288.496226 88.80096 288.828575 88.71243 L 289.133349 88.631157 C 289.220428 88.607936 289.281382 88.528114 289.27848 88.438133 Q 289.232038 86.750265 289.978009 85.285898 C 289.998327 85.245262 290.002681 85.197369 289.988168 85.153829 Q 289.769021 84.470265 289.294444 83.881035 Q 286.252508 80.103287 281.376122 81.225146 Q 280.873971 81.34125 280.530011 81.521212 C 280.470508 81.553141 280.4618 81.635865 280.514047 81.677953 L 288.937423 88.471513 Q 288.960644 88.49038 288.933069 88.499088 L 288.872114 88.520858 Z M 290.144909 85.325084 C 289.73419 86.078311 289.452636 87.056491 289.748703 87.821329 Q 290.098467 88.726943 290.218926 89.121698 Q 290.266819 89.281342 290.330676 89.127503 C 290.575947 88.525212 290.988117 88.22334 291.662974 88.108687 Q 292.584553 87.951946 293.430664 88.094174 C 293.48146 88.102882 293.533707 88.086917 293.56999 88.050635 Q 296.678686 84.97677 300.309851 81.944993 C 300.357745 81.905808 300.346134 81.828889 300.288082 81.805668 Q 299.649508 81.556044 298.913696 81.445744 C 295.295592 80.905859 291.94743 82.008851 290.144909 85.325084 Z M 273.772734 94.359459 Q 273.591321 97.20692 273.543428 97.923865 Q 273.449093 99.327277 273.489729 100.288041 C 273.495535 100.4085 273.607285 100.494127 273.724841 100.466552 L 274.440334 100.299652 Q 274.647871 100.250307 274.585465 100.047125 Q 274.042677 98.275081 274.299558 96.620593 Q 274.449042 95.659829 274.839443 94.429122 Q 274.861213 94.358008 274.930876 94.328982 C 277.197814 93.353704 278.557688 90.8473 277.628852 88.461354 C 277.117993 87.147923 276.023708 85.814173 275.438832 84.999991 C 275.271932 84.767782 275.14712 84.490583 275.0136 84.246764 C 274.984574 84.194517 274.912009 84.185809 274.872823 84.230799 C 273.004993 86.35551 269.976119 88.790801 271.53337 92.064945 Q 272.279341 93.635258 273.745159 94.314469 Q 273.774185 94.32753 273.772734 94.359459 Z M 290.317614 91.230445 Q 290.295845 91.22464 290.294394 91.201419 Q 290.239244 90.223239 289.818365 89.36842 Q 289.783534 89.300209 289.738544 89.272634 C 289.705164 89.253767 289.663076 89.27989 289.66743 89.317624 Q 289.84594 91.42492 289.866258 92.331986 Q 289.889479 93.394341 289.50053 95.369568 Q 289.465698 95.548078 289.64566 95.523406 L 290.484515 95.404399 Q 290.658671 95.379727 290.677538 95.20557 C 290.795094 94.156276 290.677538 93.327581 290.577398 92.056238 C 290.5237 91.382832 290.573044 90.71378 290.636902 90.128904 C 290.654317 89.963455 290.776227 89.828484 290.938773 89.795104 C 292.143357 89.542577 293.44808 89.191361 294.37111 88.53392 Q 296.122836 87.287248 297.256305 85.550036 Q 297.279526 85.515204 297.238889 85.505045 L 297.19535 85.493435 Q 297.185191 85.490532 297.179386 85.497789 Q 296.1388 86.737204 294.832625 87.68926 C 293.684643 88.526663 292.857399 88.65728 291.298697 89.053487 C 290.806704 89.178299 290.533859 89.366969 290.493222 89.918465 Q 290.433719 90.745709 290.432268 91.223188 Q 290.432268 91.260922 290.395985 91.250763 L 290.317614 91.230445 Z M 233.873448 102.896037 Q 233.921342 104.059984 234.326256 105.350194 Q 234.449617 105.744949 234.320451 106.022148 Q 234.028738 106.649112 233.745734 107.027903 Q 233.48595 107.374765 233.840068 107.123689 C 234.162258 106.897286 234.548305 106.554778 234.921291 106.339984 Q 236.336314 105.530156 237.717956 104.663727 Q 239.037193 103.836483 240.013921 102.591263 C 240.563966 101.888831 241.397015 100.645062 241.92529 99.803305 Q 243.00361 98.082057 242.8251 96.044424 C 242.81494 95.918161 242.675615 95.845596 242.565316 95.908002 Q 241.325901 96.604628 240.373845 96.902146 C 238.090942 97.617639 235.863188 98.070447 234.362538 100.041319 C 234.329158 100.084858 234.259496 100.068894 234.247885 100.015196 C 233.281316 95.655475 228.898374 93.60478 225.111918 92.240553 Q 224.942116 92.179598 224.884063 92.350852 Q 224.707004 92.874774 224.653306 93.387084 C 224.450123 95.349249 224.778118 97.430421 225.721467 99.198111 Q 226.196043 100.089212 227.135038 101.057233 C 228.268507 102.226985 229.158158 103.064388 230.581888 103.692803 C 231.404778 104.057081 231.882258 104.441677 232.337967 105.104924 C 232.372799 105.154268 232.443913 105.160073 232.484549 105.116534 C 233.050558 104.525853 233.435154 103.660875 233.718159 102.871365 Q 233.856033 102.489671 233.873448 102.896037 Z M 229.085592 104.292193 C 228.4267 103.589761 228.074032 102.839436 227.706852 101.938175 Q 227.394822 101.170435 227.403529 101.980263 Q 227.404981 102.0209 227.500767 102.418557 Q 227.908584 104.113682 229.206051 105.171684 C 230.033295 105.847992 231.09565 106.197756 232.179775 106.458991 C 232.233473 106.472053 232.287172 106.434319 232.292977 106.37917 C 232.397471 105.390831 231.327859 105.01204 230.56157 104.9119 C 229.909934 104.826273 229.510825 104.746451 229.085592 104.292193 Z" style="fill:#c1dcb5;"/>
		<path d="M 181.146075 128.142944 Q 179.388545 125.420295 178.626609 124.003821 Q 176.439492 119.93291 175.031726 115.471597 C 174.996895 115.359847 175.082522 115.246645 175.200078 115.25245 Q 191.789949 115.983908 208.374014 115.545614 C 208.417553 115.544163 208.453836 115.513685 208.462544 115.470146 Q 209.64826 109.178738 210.032856 102.913453 Q 210.072041 102.427265 210.086555 102.094916 Q 210.375364 95.501636 210.569839 90.584614 Q 210.590157 90.09117 210.565485 88.250915 Q 210.546618 86.963607 210.022697 85.849005 Q 209.395733 84.515255 208.540914 83.261327 C 208.241945 82.824484 207.871863 82.532772 207.365357 82.258475 C 206.213021 81.632963 204.860404 80.978424 203.873516 80.410964 Q 199.053732 77.637519 195.101827 73.723349 C 193.387836 72.025322 192.277587 70.08928 191.331336 67.899261 Q 190.189159 65.253531 189.305314 62.900965 Q 188.376478 60.429392 186.846803 57.946209 Q 186.781494 57.840264 186.687159 57.616763 C 186.653779 57.538392 186.706026 57.449862 186.790202 57.441155 Q 186.933881 57.426642 187.145772 57.448411 Q 188.359063 57.58048 189.800209 57.943306 Q 194.049631 59.011467 198.149568 60.618062 C 202.651517 62.381398 206.771773 66.040139 208.839883 70.555149 Q 209.082251 71.083425 209.157719 72.108046 Q 209.268018 73.59128 209.321717 74.10214 Q 209.420405 75.052745 209.597465 76.083171 Q 209.860151 77.614298 210.022697 79.07286 Q 210.063334 79.44004 209.97045 79.765133 Q 209.812258 80.319532 209.786134 80.842001 Q 209.771621 81.14097 209.629393 80.878284 Q 208.68024 79.112045 208.03586 77.995992 Q 205.287088 73.23571 200.931721 69.849815 Q 200.759015 69.714844 200.346845 69.453609 Q 200.327978 69.441998 200.327978 69.463768 L 200.327978 69.531979 Q 200.327978 69.556651 200.346845 69.572616 Q 202.075349 71.070363 203.526655 72.655188 Q 205.626693 74.948251 206.983664 77.768137 Q 208.437872 80.794108 209.675835 83.854911 Q 210.47115 85.817076 210.768668 87.821329 Q 210.771571 87.843098 210.797694 87.84455 L 210.799145 87.84455 Q 210.82672 87.847452 210.828172 87.815523 Q 210.903639 84.928877 210.662723 81.564751 Q 210.591609 80.556094 210.434868 79.936387 Q 210.427611 79.907361 210.455186 79.89575 Q 210.47115 79.887043 210.491469 79.89575 Q 210.495823 79.897202 210.497274 79.900104 Q 211.852793 82.60824 211.833926 85.808368 Q 211.823767 87.715383 211.632195 90.015702 Q 210.704811 101.093516 210.005281 108.711417 C 209.739693 111.60532 209.519094 114.795289 209.408795 117.411993 Q 209.294142 120.117226 209.598916 122.958881 Q 209.613429 123.09095 209.48136 123.099658 Q 208.522047 123.159162 205.848743 123.343477 Q 199.988372 123.748391 191.871222 125.29258 Q 186.653779 126.286724 181.413116 128.240181 Q 181.282498 128.288074 181.146075 128.142944 Z" style="fill:#245527;"/>
		<path d="M 319.323402 90.275486 L 319.323402 90.554137 Q 319.247934 90.809566 319.234873 90.973564 Q 319.112963 92.510496 318.989602 94.91676 L 317.888061 102.875719 Q 317.69794 102.980213 317.787921 103.421409 L 317.603605 104.607126 L 317.06372 107.477808 Q 317.113064 107.556178 317.040499 107.760812 Q 316.824255 108.113479 316.925846 108.451634 L 316.429499 110.466045 L 315.374401 114.168325 L 315.267004 114.577593 L 314.780817 115.962139 L 314.702446 116.221922 Q 314.644394 116.21902 314.608111 116.320611 Q 311.897073 124.076386 306.885716 130.581137 Q 306.865398 130.608712 306.853787 130.692887 L 306.139745 131.549157 Q 302.406988 136.119318 297.627839 139.542947 C 297.48416 139.64599 297.333224 139.705493 297.160519 139.651795 Q 293.951683 138.647492 285.821471 136.193334 Q 278.19341 133.890113 274.511448 132.877102 Q 267.111243 130.840921 257.339604 128.674122 C 247.531683 126.500066 237.7107 124.79188 227.676375 123.8137 Q 219.782725 123.043057 212.173532 123.082242 C 212.089356 123.083694 212.016791 123.027093 211.995021 122.94582 Q 211.21567 119.988059 210.990718 116.761808 Q 210.938471 116.007129 210.918152 115.404837 Q 216.309752 115.192947 221.830517 114.387472 Q 227.374503 113.577644 230.95052 113.010184 Q 233.538197 112.603818 235.783366 112.088605 C 240.855678 110.924658 245.862682 109.460291 251.011913 107.937871 C 251.235414 107.871111 251.312333 107.833377 251.370385 107.588107 Q 252.400812 103.196457 252.222301 98.608881 C 252.090233 95.202667 251.69838 92.008344 251.027877 88.239305 Q 250.907419 87.557191 250.321092 85.378782 Q 250.123714 84.645873 249.727508 83.889743 C 249.586731 83.621251 249.370487 83.460156 249.086031 83.299061 C 246.929391 82.082867 245.006411 80.577864 244.450562 78.081619 C 244.013719 76.118003 244.363483 74.53608 245.074623 72.75678 C 245.121065 72.640675 245.279257 72.623259 245.34892 72.727753 Q 246.13843 73.8917 246.869887 74.713139 C 247.47363 75.39235 248.396661 75.998996 249.061358 76.460511 C 250.67521 77.583821 251.316687 79.702727 251.069965 81.590875 Q 250.917578 82.764981 250.070016 83.457254 Q 250.010512 83.506598 250.054051 83.569004 Q 250.749227 84.558794 250.950958 85.748865 C 251.101894 86.64432 251.307979 87.957751 251.525675 89.062195 Q 253.24402 97.791796 253.746172 106.971302 Q 253.75488 107.144007 253.920329 107.090309 Q 264.921223 103.480913 274.241506 100.652319 Q 275.723288 100.202414 277.013499 99.791695 Q 286.100121 96.902146 288.872114 96.127149 Q 290.725431 95.609033 296.831073 94.151922 Q 298.349138 93.790547 299.661118 93.507543 Q 305.853838 92.172342 311.161261 91.2914 Q 314.808391 90.684754 319.323402 90.275486 Z" style="fill:#245527;"/>
		<path d="M 210.032856 102.913453 Q 209.64826 109.178738 208.462544 115.470146 C 208.453836 115.513685 208.417553 115.544163 208.374014 115.545614 Q 191.789949 115.983908 175.200078 115.25245 C 175.082522 115.246645 174.996895 115.359847 175.031726 115.471597 Q 176.439492 119.93291 178.626609 124.003821 Q 179.388545 125.420295 181.146075 128.142944 Q 181.115598 128.174873 181.114147 128.218412 Q 178.533726 124.395674 177.031625 120.954629 Q 175.750122 118.021541 175.134769 116.1421 Q 173.699428 111.754804 172.760433 106.40239 Q 172.372935 104.190601 171.867881 100.311262 Q 171.87804 100.19806 171.847562 100.093566 L 171.606646 98.511644 Q 171.728555 98.246055 171.650185 97.88468 Q 171.525373 97.312865 171.52247 96.729441 C 171.521019 96.55093 171.404914 96.341942 171.413622 96.21713 Q 171.442648 95.76142 171.365729 95.317321 Q 171.285907 94.860159 171.272845 94.426219 Q 171.235111 93.088116 171 91.75872 L 171 83.508049 Q 178.231854 85.162537 184.791754 88.593423 Q 187.663888 90.094073 190.440235 91.765976 Q 194.503889 94.211426 198.56319 96.664132 Q 203.600671 99.707519 210.032856 102.913453 Z" style="fill:#8bb25f;"/>
		<path d="M 319.323402 90.554137 L 319.323402 91.886435 Q 319.242129 92.390038 319.255191 93.205671 Q 319.26535 93.963253 318.989602 94.91676 Q 319.112963 92.510496 319.234873 90.973564 Q 319.247934 90.809566 319.323402 90.554137 Z" style="fill:#c1dcb5;"/>
		<path d="M 171.606646 98.511644 Q 171.175608 95.730943 171 93.041674 L 171 91.75872 Q 171.235111 93.088116 171.272845 94.426219 Q 171.285907 94.860159 171.365729 95.317321 Q 171.442648 95.76142 171.413622 96.21713 C 171.404914 96.341942 171.521019 96.55093 171.52247 96.729441 Q 171.525373 97.312865 171.650185 97.88468 Q 171.728555 98.246055 171.606646 98.511644 Z" style="fill:#c1dcb5;"/>
		<path d="M 171.867881 100.311262 Q 171.834501 100.212573 171.847562 100.093566 Q 171.87804 100.19806 171.867881 100.311262 Z" style="fill:#245527;"/>
		<path d="M 317.888061 102.875719 Q 317.879353 103.170334 317.787921 103.421409 Q 317.69794 102.980213 317.888061 102.875719 Z" style="fill:#8bb25f;"/>
		<path d="M 231.681977 111.40504 L 231.786471 112.111826 Q 231.652951 112.210514 231.597802 112.489165 Q 231.583289 112.558828 231.520883 112.593659 Q 231.188534 112.777975 230.830061 112.888274 Q 230.779266 112.904238 230.95052 113.010184 Q 227.374503 113.577644 221.830517 114.387472 Q 216.309752 115.192947 210.918152 115.404837 Q 210.832525 109.493671 210.983461 103.585407 C 210.984912 103.49978 211.073442 103.44463 211.151813 103.479462 Q 216.73063 105.984415 222.438614 108.239743 Q 225.573433 109.479158 228.859189 110.506682 Q 230.282919 110.950781 231.681977 111.40504 Z" style="fill:#8bb25f;"/>
		<path d="M 317.603605 104.607126 Q 317.436705 106.064236 317.06372 107.477808 L 317.603605 104.607126 Z" style="fill:#8bb25f;"/>
		<path d="M 232.79658 111.814308 Q 232.811093 111.92751 232.906879 112.217771 Q 232.935905 112.309203 232.761749 112.359999 Q 231.683429 112.644455 231.786471 112.111826 L 231.681977 111.40504 Q 231.667464 109.267267 232.22912 106.740545 Q 232.268305 106.563485 232.330711 106.463345 C 232.689183 105.892982 232.731271 105.427113 233.069425 105.058482 Q 233.124575 104.998978 233.127478 105.0788 Q 233.141991 105.398087 233.121672 105.506935 Q 232.706599 107.772423 232.64129 108.264415 Q 232.403276 110.053875 232.79658 111.814308 Z" style="fill:#245527;"/>
		<path d="M 317.040499 107.760812 L 316.925846 108.451634 Q 316.824255 108.113479 317.040499 107.760812 Z" style="fill:#8bb25f;"/>
		<path d="M 316.429499 110.466045 Q 316.05216 112.357096 315.374401 114.168325 L 316.429499 110.466045 Z" style="fill:#8bb25f;"/>
		<path d="M 232.761749 112.359999 Q 232.935905 112.309203 232.906879 112.217771 Q 232.811093 111.92751 232.79658 111.814308 L 234.660056 112.101666 Q 234.671666 112.103118 234.673118 112.114728 Q 234.674569 112.136498 234.667312 112.152462 Q 234.661507 112.165524 234.646994 112.166975 L 232.761749 112.359999 Z" style="fill:#8bb25f;"/>
		<path d="M 315.267004 114.577593 L 314.780817 115.962139 L 315.267004 114.577593 Z" style="fill:#8bb25f;"/>
		<path d="M 314.702446 116.221922 Q 312.026239 123.993662 306.965538 130.589845 Q 306.900229 130.67402 306.853787 130.692887 Q 306.865398 130.608712 306.885716 130.581137 Q 311.897073 124.076386 314.608111 116.320611 Q 314.644394 116.21902 314.702446 116.221922 Z" style="fill:#8bb25f;"/>
		<path d="M 238.201241 150.807979 Q 238.115614 150.822492 238.079331 150.784758 L 238.201241 150.807979 Z" style="fill:#8bb25f;"/>
		<path d="M 238.630827 150.847164 L 238.418937 150.835554 L 238.630827 150.847164 Z" style="fill:#245527;"/>
		<path d="M 213.621934 72.081923 Q 213.074792 72.611649 212.49427 73.745118 Q 211.81651 75.068709 211.439171 76.47067 Q 211.299846 76.987335 211.044416 76.517112 Q 210.417452 75.361873 209.9153 73.79156 C 209.585854 72.759682 209.291239 71.694424 209.387025 70.634971 Q 209.46975 69.703233 209.765816 68.764239 C 210.474053 66.504556 211.658318 64.453862 213.09511 62.491697 C 214.820712 60.134777 217.012183 58.063765 219.663718 56.82435 C 221.801491 55.825852 224.212109 55.05666 226.484853 54.354228 Q 228.107412 53.853528 228.947718 53.749034 Q 229.11607 53.727264 229.198794 53.731618 C 229.323606 53.737424 229.41649 53.849174 229.397623 53.972535 Q 229.293129 54.669162 229.018832 55.330957 C 228.618272 56.296075 228.207553 57.094293 227.592199 58.184223 Q 225.628583 61.664453 224.644598 65.645384 Q 224.293382 67.067663 223.232478 70.006556 Q 221.490912 74.830695 217.280675 77.807322 C 215.514436 79.056896 213.678535 79.937838 211.714919 80.865222 C 211.658318 80.891346 211.591558 80.855063 211.584302 80.792657 Q 211.427561 79.532924 211.648159 78.27174 Q 212.129992 75.508454 212.974652 73.316983 Q 213.089305 73.019466 213.655314 72.108046 Q 213.745295 71.962916 213.621934 72.081923 Z" style="fill:#245527;"/>
		<path d="M 249.824745 76.74932 C 250.831951 74.705883 252.248425 72.739364 254.056751 71.376588 C 255.521118 70.272145 257.567459 69.391203 259.478828 68.768593 Q 259.734258 68.685868 259.876486 68.729407 Q 260.121756 68.803424 259.982431 69.018217 C 258.682061 71.026824 257.606644 73.122508 257.245269 75.466367 C 257.026122 76.890097 256.886797 78.146927 256.458662 79.226699 Q 255.711239 81.109042 254.06691 82.40796 Q 253.865179 82.566152 252.155541 83.917317 C 251.978482 84.056643 251.715796 83.960857 251.669354 83.740258 C 251.434243 82.627107 251.451658 81.178704 251.415376 80.558997 Q 251.289112 78.432835 249.86393 76.99314 Q 249.757985 76.884292 249.824745 76.74932 Z" style="fill:#245527;"/>
		<path d="M 288.937423 88.471513 L 280.514047 81.677953 C 280.4618 81.635865 280.470508 81.553141 280.530011 81.521212 Q 280.873971 81.34125 281.376122 81.225146 Q 286.252508 80.103287 289.294444 83.881035 Q 289.769021 84.470265 289.988168 85.153829 C 290.002681 85.197369 289.998327 85.245262 289.978009 85.285898 Q 289.232038 86.750265 289.27848 88.438133 C 289.281382 88.528114 289.220428 88.607936 289.133349 88.631157 L 288.828575 88.71243 Q 288.496226 88.80096 288.709568 89.069451 L 289.301701 89.816873 Q 289.327824 89.848802 289.295895 89.876377 Q 289.237843 89.927173 289.230587 89.927173 Q 289.214622 89.928624 289.197207 89.91266 Q 288.398989 89.195715 287.15522 88.438133 C 285.766321 87.590571 284.730089 86.335192 283.857855 85.021761 Q 283.704016 84.791003 283.905748 84.981124 Q 285.272877 86.269883 286.75466 87.303213 C 287.349695 87.718286 288.149364 88.101431 288.832929 88.517955 Q 288.851796 88.528114 288.872114 88.520858 L 288.933069 88.499088 Q 288.960644 88.49038 288.937423 88.471513 Z" style="fill:#245527;"/>
		<path d="M 290.144909 85.325084 C 291.94743 82.008851 295.295592 80.905859 298.913696 81.445744 Q 299.649508 81.556044 300.288082 81.805668 C 300.346134 81.828889 300.357745 81.905808 300.309851 81.944993 Q 296.678686 84.97677 293.56999 88.050635 C 293.533707 88.086917 293.48146 88.102882 293.430664 88.094174 Q 292.584553 87.951946 291.662974 88.108687 C 290.988117 88.22334 290.575947 88.525212 290.330676 89.127503 Q 290.266819 89.281342 290.218926 89.121698 Q 290.098467 88.726943 289.748703 87.821329 C 289.452636 87.056491 289.73419 86.078311 290.144909 85.325084 Z" style="fill:#245527;"/>
		<path d="M 273.772734 94.359459 Q 273.774185 94.32753 273.745159 94.314469 Q 272.279341 93.635258 271.53337 92.064945 C 269.976119 88.790801 273.004993 86.35551 274.872823 84.230799 C 274.912009 84.185809 274.984574 84.194517 275.0136 84.246764 C 275.14712 84.490583 275.271932 84.767782 275.438832 84.999991 C 276.023708 85.814173 277.117993 87.147923 277.628852 88.461354 C 278.557688 90.8473 277.197814 93.353704 274.930876 94.328982 Q 274.861213 94.358008 274.839443 94.429122 Q 274.449042 95.659829 274.299558 96.620593 Q 274.042677 98.275081 274.585465 100.047125 Q 274.647871 100.250307 274.440334 100.299652 L 273.724841 100.466552 C 273.607285 100.494127 273.495535 100.4085 273.489729 100.288041 Q 273.449093 99.327277 273.543428 97.923865 Q 273.591321 97.20692 273.772734 94.359459 Z M 274.042677 94.317371 Q 273.96866 94.317371 273.971563 94.391388 Q 274.010748 95.208473 273.952696 96.186652 Q 273.945439 96.311465 273.974465 96.543674 Q 273.996235 96.713476 274.039774 96.548027 L 274.608686 94.395742 Q 274.630455 94.317371 274.547731 94.317371 L 274.042677 94.317371 Z" style="fill:#245527;"/>
		<path d="M 290.432268 91.223188 Q 290.433719 90.745709 290.493222 89.918465 C 290.533859 89.366969 290.806704 89.178299 291.298697 89.053487 C 292.857399 88.65728 293.684643 88.526663 294.832625 87.68926 Q 296.1388 86.737204 297.179386 85.497789 Q 297.185191 85.490532 297.19535 85.493435 L 297.238889 85.505045 Q 297.279526 85.515204 297.256305 85.550036 Q 296.122836 87.287248 294.37111 88.53392 C 293.44808 89.191361 292.143357 89.542577 290.938773 89.795104 C 290.776227 89.828484 290.654317 89.963455 290.636902 90.128904 C 290.573044 90.71378 290.5237 91.382832 290.577398 92.056238 C 290.677538 93.327581 290.795094 94.156276 290.677538 95.20557 Q 290.658671 95.379727 290.484515 95.404399 L 289.64566 95.523406 Q 289.465698 95.548078 289.50053 95.369568 Q 289.889479 93.394341 289.866258 92.331986 Q 289.84594 91.42492 289.66743 89.317624 C 289.663076 89.27989 289.705164 89.253767 289.738544 89.272634 Q 289.783534 89.300209 289.818365 89.36842 Q 290.239244 90.223239 290.294394 91.201419 Q 290.295845 91.22464 290.317614 91.230445 L 290.395985 91.250763 Q 290.432268 91.260922 290.432268 91.223188 Z" style="fill:#245527;"/>
		<path d="M 233.873448 102.896037 Q 233.856033 102.489671 233.718159 102.871365 C 233.435154 103.660875 233.050558 104.525853 232.484549 105.116534 C 232.443913 105.160073 232.372799 105.154268 232.337967 105.104924 C 231.882258 104.441677 231.404778 104.057081 230.581888 103.692803 C 229.158158 103.064388 228.268507 102.226985 227.135038 101.057233 Q 226.196043 100.089212 225.721467 99.198111 C 224.778118 97.430421 224.450123 95.349249 224.653306 93.387084 Q 224.707004 92.874774 224.884063 92.350852 Q 224.942116 92.179598 225.111918 92.240553 C 228.898374 93.60478 233.281316 95.655475 234.247885 100.015196 C 234.259496 100.068894 234.329158 100.084858 234.362538 100.041319 C 235.863188 98.070447 238.090942 97.617639 240.373845 96.902146 Q 241.325901 96.604628 242.565316 95.908002 C 242.675615 95.845596 242.81494 95.918161 242.8251 96.044424 Q 243.00361 98.082057 241.92529 99.803305 C 241.397015 100.645062 240.563966 101.888831 240.013921 102.591263 Q 239.037193 103.836483 237.717956 104.663727 Q 236.336314 105.530156 234.921291 106.339984 C 234.548305 106.554778 234.162258 106.897286 233.840068 107.123689 Q 233.48595 107.374765 233.745734 107.027903 Q 234.028738 106.649112 234.320451 106.022148 Q 234.449617 105.744949 234.326256 105.350194 Q 233.921342 104.059984 233.873448 102.896037 Z" style="fill:#245527;"/>
		<path d="M 229.085592 104.292193 C 229.510825 104.746451 229.909934 104.826273 230.56157 104.9119 C 231.327859 105.01204 232.397471 105.390831 232.292977 106.37917 C 232.287172 106.434319 232.233473 106.472053 232.179775 106.458991 C 231.09565 106.197756 230.033295 105.847992 229.206051 105.171684 Q 227.908584 104.113682 227.500767 102.418557 Q 227.404981 102.0209 227.403529 101.980263 Q 227.394822 101.170435 227.706852 101.938175 C 228.074032 102.839436 228.4267 103.589761 229.085592 104.292193 Z" style="fill:#245527;"/>
		<path d="M 274.042677 94.317371 L 274.547731 94.317371 Q 274.630455 94.317371 274.608686 94.395742 L 274.039774 96.548027 Q 273.996235 96.713476 273.974465 96.543674 Q 273.945439 96.311465 273.952696 96.186652 Q 274.010748 95.208473 273.971563 94.391388 Q 273.96866 94.317371 274.042677 94.317371 Z" style="fill:#c1dcb5;"/>
	</g>
	<g id="surface4">
	</g>
</svg>
