<?xml version="1.0" encoding="utf-8"?>
<svg xmlns="http://www.w3.org/2000/svg" width="490pt" height="280pt" viewBox="0 0 490 280" version="1.1" xmlns:xlink="http://www.w3.org/1999/xlink">
	<g id="surface2">
		<path vector-effect="non-scaling-stroke" d="M 455.849388 53.572964 Q 456.13361 63.839762 455.976998 74.379181 Q 455.959597 75.591475 455.704377 75.9105 Q 454.84591 76.983584 454.33547 78.195878" style="fill:none;stroke-width:0.50;stroke:#3b676a;"/>
		<path vector-effect="non-scaling-stroke" d="M 452.160301 80.452253 L 449.538498 82.314198" style="fill:none;stroke-width:0.50;stroke:#3b676a;"/>
		<path vector-effect="non-scaling-stroke" d="M 432.021136 102.888397 Q 431.261277 105.225979 430.565223 107.569361 Q 429.683554 110.51599 429.028103 112.227123 Q 426.122077 119.790911 422.775217 124.379067 Q 420.571046 127.401102 418.43068 130.492742" style="fill:none;stroke-width:0.50;stroke:#3b676a;"/>
		<path vector-effect="non-scaling-stroke" d="M 417.607016 131.35701 L 410.959699 138.05073" style="fill:none;stroke-width:0.50;stroke:#3b676a;"/>
		<path vector-effect="non-scaling-stroke" d="M 409.81121 139.106412 L 402.879671 144.0948" style="fill:none;stroke-width:0.50;stroke:#3b676a;"/>
		<path vector-effect="non-scaling-stroke" d="M 238.204872 80.434852 Q 234.306969 81.855962 231.899782 85.034609 C 229.614404 88.050844 227.665453 91.72833 225.884714 95.858251 C 223.233908 102.006728 219.2722 111.136638 215.606315 118.648222 Q 211.308181 127.464907 204.678266 134.680668 Q 203.135346 136.356998 201.691034 138.097134" style="fill:none;stroke-width:0.50;stroke:#3b676a;"/>
		<path vector-effect="non-scaling-stroke" d="M 201.691034 138.097134 Q 200.687556 138.671378 200.107511 139.669056" style="fill:none;stroke-width:0.50;stroke:#3b676a;"/>
		<path vector-effect="non-scaling-stroke" d="M 90.525393 43.10315 Q 90.328178 42.697119 89.568319 42.488302 C 88.437231 42.175078 85.600811 43.300365 84.701741 43.688996 Q 78.669272 46.310799 73.953505 48.306155 C 68.425676 50.643736 60.722677 53.538161 54.191369 56.397783 C 50.873511 57.847896 48.640338 60.458099 48.309712 64.210991 C 47.752869 70.527682 52.051003 75.023031 57.938461 76.745765 C 58.100873 76.792169 58.269086 76.693561 58.309689 76.525348 C 61.436132 62.882688 72.416386 53.242338 86.418674 51.98364 Q 88.437231 51.803826 90.47899 51.641414" style="fill:none;stroke-width:0.50;stroke:#3b676a;"/>
		<path vector-effect="non-scaling-stroke" d="M 398.906362 51.618212 Q 404.834423 51.751622 406.313538 52.064847 Q 426.702123 56.362981 432.061739 76.449942 C 432.102342 76.600754 432.264755 76.687761 432.409766 76.635556 C 437.612771 74.907022 442.322737 70.997518 442.189326 64.988251 C 442.050115 58.903578 438.569845 57.517271 433.088419 55.168088 C 428.709079 53.294542 423.546677 51.386194 419.840189 49.872276 Q 412.891249 47.035856 405.942309 44.199435 Q 402.815866 42.923336 400.234665 42.424497 Q 399.585015 42.302688 399.115178 42.656515" style="fill:none;stroke-width:0.50;stroke:#3b676a;"/>
		<path vector-effect="non-scaling-stroke" d="M 201.615628 113.120392 Q 203.31516 110.695804 204.933486 107.082123 Q 206.157381 104.350111 214.881259 84.715584 Q 219.620227 74.054356 230.380064 68.712141 C 235.855689 65.99753 242.868434 65.243471 248.837098 65.730709 Q 263.407831 66.925602 271.928693 78.103071 C 273.842842 80.620466 275.588777 84.007929 276.882278 86.966159 Q 278.564409 90.806058 284.016832 103.625054 Q 286.017988 108.32922 288.442576 112.83037 Q 288.715198 113.335009 289.115429 113.456818" style="fill:none;stroke-width:0.50;stroke:#87552c;"/>
		<path vector-effect="non-scaling-stroke" d="M 413.987534 108.787455 Q 414.265956 108.775855 414.405167 108.485832 C 416.464327 103.96148 418.158058 99.303718 418.390077 94.460342 Q 418.633695 89.41975 418.250866 83.126261 C 417.636018 73.07988 411.214919 65.139063 401.278747 63.364125 Q 398.801954 62.923291 394.567625 62.923291 Q 244.301146 62.905889 95.734198 62.929091 C 90.275974 62.929091 85.792226 63.596143 81.430286 66.357158 C 75.380416 70.185455 72.387384 77.174998 72.07996 84.419761 Q 71.772536 91.890742 72.108962 95.574028 Q 72.689007 101.948724 76.041668 108.433628" style="fill:none;stroke-width:0.50;stroke:#87552c;"/>
		<path d="M 455.849388 53.572964 Q 456.13361 63.839762 455.976998 74.379181 Q 455.959597 75.591475 455.704377 75.9105 Q 454.84591 76.983584 454.33547 78.195878 Q 453.523407 79.529981 452.160301 80.452253 L 449.538498 82.314198 Q 448.92365 82.85364 448.221795 82.85944 Q 441.516474 82.85944 432.955009 82.911644 C 432.780995 82.917445 432.647585 83.050855 432.641784 83.219068 C 432.630183 84.048533 433.10002 84.727185 433.117421 85.527648 Q 433.216029 91.322298 433.111621 96.461497 C 433.10002 97.163352 432.659186 98.050821 432.635984 98.978893 Q 432.577979 100.974248 432.021136 102.888397 Q 431.261277 105.225979 430.565223 107.569361 Q 429.683554 110.51599 429.028103 112.227123 Q 426.122077 119.790911 422.775217 124.379067 Q 420.571046 127.401102 418.43068 130.492742 Q 418.082653 131.061187 417.607016 131.35701 L 410.959699 138.05073 L 409.81121 139.106412 L 402.879671 144.0948 Q 401.301948 145.51011 400.03165 146.15976 C 397.665066 147.360454 395.414491 148.798965 393.123313 149.796643 Q 388.888984 151.652787 387.003837 152.430048 C 384.405235 153.497331 381.24979 154.344196 379.016616 155.150459 C 376.516622 156.055329 373.91222 156.496164 371.290416 157.192218 Q 369.730094 157.60405 368.146571 157.853469 Q 358.430816 159.390589 357.143116 159.477595 Q 354.933144 159.616806 340.72204 159.5414 Q 339.271927 159.5356 337.966826 159.251378 C 336.244092 158.874348 334.846183 159.193373 333.204656 158.590126 C 332.398393 158.300104 331.319509 158.50312 330.403038 158.155093 C 329.039932 157.638852 327.711629 157.99848 326.244115 157.453238 C 324.718596 156.878993 322.665236 156.629574 321.29053 156.264146 Q 316.882187 155.109856 312.096815 153.1087 Q 309.451809 152.006615 306.795203 150.910329 Q 304.370614 149.912652 295.542328 144.1006 Q 294.045812 143.114524 289.915891 139.442838 C 283.85442 134.054219 279.324268 127.772331 275.611979 120.742185 Q 272.073704 114.054265 269.011066 106.751497 Q 264.637526 96.339688 261.383473 89.500956 Q 258.373039 83.178465 252.236162 80.388448 Q 250.994866 79.820004 249.63756 79.692394 Q 243.112053 79.065945 241.128299 79.593786 Q 239.660785 79.988217 238.204872 80.434852 Q 234.306969 81.855962 231.899782 85.034609 C 229.614404 88.050844 227.665453 91.72833 225.884714 95.858251 C 223.233908 102.006728 219.2722 111.136638 215.606315 118.648222 Q 211.308181 127.464907 204.678266 134.680668 Q 203.135346 136.356998 201.691034 138.097134 Q 200.687556 138.671378 200.107511 139.669056 C 194.086643 144.860459 187.253712 149.216598 179.863937 152.238633 C 178.785053 152.679467 177.746773 153.36392 176.743295 153.642342 C 173.947477 154.419602 170.50201 155.817511 167.29436 156.571569 Q 156.087889 159.193373 148.918532 159.558802 Q 147.166796 159.645808 134.771232 159.553001 Q 132.996294 159.5414 131.250359 159.193373 C 129.666836 158.880149 128.187721 159.048362 126.464987 158.665532 Q 123.860584 158.091288 123.756176 158.085487 C 122.474277 158.021682 121.012563 157.801265 119.423239 157.424236 Q 114.144829 156.182939 110.948781 155.202663 Q 107.445308 154.117979 104.574085 153.033294 Q 96.122828 149.819845 88.309621 144.941666 Q 81.337479 140.597128 74.278331 133.242156 Q 70.28182 129.071632 67.155377 124.077444 Q 59.47558 111.826892 57.590434 97.499778 C 57.085794 93.648279 57.259808 90.365224 57.28881 86.357112 C 57.294611 85.30143 57.54983 84.582174 57.868855 83.364079 C 57.950062 83.062456 57.718043 82.772433 57.41062 82.778234 C 54.226172 82.836238 49.30739 82.644824 43.686753 82.911644 C 40.397897 83.068256 37.880502 80.753877 35.566122 78.282884 C 33.843388 76.444142 34.011601 75.295652 34.011601 72.470833 Q 34.017401 61.484779 34 56.142564 C 33.982599 51.571808 38.315535 47.557896 41.865411 45.400129 C 43.141511 44.617068 44.945451 44.00222 46.488371 43.346769 C 48.205304 42.615912 50.21226 42.082271 51.789983 41.43262 C 55.960507 39.721487 60.24124 38.277175 64.452367 36.653049 Q 70.392029 34.361871 90.206369 27.082305 Q 94.887332 25.359571 95.87921 24.994143 Q 108.048555 20.510394 127.207445 13.665862 Q 128.350133 13.259831 130.119271 12.523173 Q 132.282839 11.624103 133.123904 11.624103 Q 259.985565 11.664707 354.573516 11.600902 Q 355.698804 11.600902 356.226645 11.83292 C 356.928499 12.146144 357.641955 12.146144 358.396014 12.430366 Q 367.49112 15.835231 376.162794 18.851465 C 378.407569 19.628726 381.748629 20.991832 384.828668 21.902502 C 386.551402 22.407142 388.082721 23.300411 389.811255 23.80505 Q 390.344897 23.961662 391.197563 24.269086 C 395.420291 25.777204 399.602416 27.412931 403.859947 28.81664 C 405.060641 29.21107 406.284536 29.907125 407.514231 30.260952 Q 408.91214 30.672784 410.698679 31.305033 Q 415.246232 32.917559 430.756638 38.677406 Q 436.731102 40.898979 436.760104 40.904779 Q 438.227618 41.409419 439.14409 41.722643 Q 442.357539 42.807327 444.81113 43.822406 Q 448.244997 45.243517 450.135944 46.693629 Q 453.668419 49.396639 455.849388 53.572964 Z M 360.565382 25.052147 Q 358.645433 24.170479 356.609475 23.67744 C 354.851938 23.254007 353.564238 22.331736 351.621087 22.151922 C 348.854272 21.896702 347.270749 21.670484 345.066577 21.676285 Q 296.574808 21.774892 235.061027 21.705287 Q 224.115577 21.693686 219.979855 21.693686 Q 219.747837 21.693686 142.538036 21.734289 Q 142.091401 21.734289 138.321108 22.035913 Q 136.256148 22.198325 134.23179 22.952384 Q 124.202811 26.676273 116.157586 29.907125 Q 114.365246 30.62058 113.239959 30.980208 Q 111.262005 31.612457 110.310731 32.059092 C 108.646002 32.847953 106.958071 33.300388 105.101926 33.903635 C 104.562484 34.077649 104.429074 34.773703 104.858307 35.144932 L 123.761977 51.380394 C 123.964992 51.554407 124.220212 51.653015 124.487033 51.653015 L 362.154706 51.653015 Q 362.404125 51.653015 362.59554 51.484802 L 382.955122 33.874633 C 383.198741 33.665817 383.105934 33.265586 382.79271 33.184379 Q 380.420325 32.581132 377.90873 31.635659 C 370.669767 28.915247 366.32523 27.128709 362.804356 25.968618 Q 361.911087 25.672795 360.565382 25.052147 Z M 90.47899 51.641414 L 102.787546 51.502203 Q 105.113527 51.473201 102.932558 50.684339 C 101.378037 50.121696 99.922124 48.897801 98.268995 47.981329 Q 94.347891 45.817761 90.525393 43.10315 Q 90.328178 42.697119 89.568319 42.488302 C 88.437231 42.175078 85.600811 43.300365 84.701741 43.688996 Q 78.669272 46.310799 73.953505 48.306155 C 68.425676 50.643736 60.722677 53.538161 54.191369 56.397783 C 50.873511 57.847896 48.640338 60.458099 48.309712 64.210991 C 47.752869 70.527682 52.051003 75.023031 57.938461 76.745765 C 58.100873 76.792169 58.269086 76.693561 58.309689 76.525348 C 61.436132 62.882688 72.416386 53.242338 86.418674 51.98364 Q 88.437231 51.803826 90.47899 51.641414 Z M 399.115178 42.656515 Q 399.033972 42.668116 398.970167 42.673917 Q 398.929564 42.673917 398.894761 42.697119 L 386.621007 50.44072 C 386.568803 50.469723 386.516599 50.492925 386.452794 50.498725 Q 385.542123 50.597333 385.008482 51.357192 Q 384.782264 51.682017 385.176695 51.676217 L 398.906362 51.618212 Q 404.834423 51.751622 406.313538 52.064847 Q 426.702123 56.362981 432.061739 76.449942 C 432.102342 76.600754 432.264755 76.687761 432.409766 76.635556 C 437.612771 74.907022 442.322737 70.997518 442.189326 64.988251 C 442.050115 58.903578 438.569845 57.517271 433.088419 55.168088 C 428.709079 53.294542 423.546677 51.386194 419.840189 49.872276 Q 412.891249 47.035856 405.942309 44.199435 Q 402.815866 42.923336 400.234665 42.424497 Q 399.585015 42.302688 399.115178 42.656515 Z M 76.041668 108.433628 Q 80.914046 119.39648 89.864142 127.232889 Q 92.764367 129.773487 94.144875 130.933577 C 95.728398 132.26768 97.746955 133.247957 99.765512 134.553058 Q 106.969672 139.21082 117.897721 142.273458 Q 122.079846 143.445149 123.425551 143.671367 Q 123.512557 143.688768 125.635522 144.245611 C 126.807213 144.558836 128.43134 144.129602 129.382614 144.779253 Q 129.626233 144.941666 129.910455 144.959067 C 131.673792 145.057675 134.185387 145.046074 136.470764 145.295493 Q 142.184209 145.916141 147.99626 145.162083 C 149.179552 145.00547 150.629665 145.104078 151.708549 144.883661 Q 153.344276 144.553035 154.446362 144.425425 Q 157.050764 144.118001 159.295539 143.630764 Q 164.533346 142.488075 169.73635 140.660933 Q 175.124969 138.769986 179.562314 136.159783 Q 189.307071 130.434738 196.029794 121.693459 Q 197.062274 120.353554 198.651597 118.282793 C 199.852291 116.716672 200.699157 114.976536 201.615628 113.120392 Q 203.31516 110.695804 204.933486 107.082123 Q 206.157381 104.350111 214.881259 84.715584 Q 219.620227 74.054356 230.380064 68.712141 C 235.855689 65.99753 242.868434 65.243471 248.837098 65.730709 Q 263.407831 66.925602 271.928693 78.103071 C 273.842842 80.620466 275.588777 84.007929 276.882278 86.966159 Q 278.564409 90.806058 284.016832 103.625054 Q 286.017988 108.32922 288.442576 112.83037 Q 288.715198 113.335009 289.115429 113.456818 Q 288.883411 113.630832 289.022622 113.851249 Q 291.18619 117.279315 294.109617 121.531046 Q 296.493602 125.005516 302.473867 130.318729 C 304.31261 131.948656 306.539983 133.242156 308.738354 134.819879 C 310.553895 136.12498 312.54345 136.971846 314.492401 138.05653 C 317.009797 139.460239 320.954103 140.573926 323.430896 141.716615 C 324.213957 142.076243 325.066623 142.03564 325.913489 142.343064 Q 328.164064 143.143526 330.68726 143.526356 C 331.986561 143.723571 333.744097 144.512432 335.32182 144.466029 C 336.85894 144.419625 337.920422 144.964867 339.376335 145.017071 C 340.756843 145.069275 341.74872 145.046074 343.413449 145.25489 Q 348.610653 145.910341 353.807857 145.278092 Q 355.6466 145.051874 356.244046 145.046074 C 357.392536 145.040273 358.976059 145.13308 360.321763 144.74445 C 361.655867 144.36162 363.071177 144.396423 364.387879 144.135403 Q 369.950512 143.010115 376.185996 141.113368 Q 377.056064 140.846547 378.523578 140.208498 C 379.875083 139.616852 381.151182 139.315228 382.53749 138.584371 Q 382.897118 138.398757 384.237022 137.899918 Q 387.444671 136.699225 394.11519 132.250279 Q 401.035128 127.644721 406.168527 121.560048 C 408.390099 118.926644 410.866892 115.289761 412.560623 112.430139 Q 413.366886 111.072833 413.987534 108.787455 Q 414.265956 108.775855 414.405167 108.485832 C 416.464327 103.96148 418.158058 99.303718 418.390077 94.460342 Q 418.633695 89.41975 418.250866 83.126261 C 417.636018 73.07988 411.214919 65.139063 401.278747 63.364125 Q 398.801954 62.923291 394.567625 62.923291 Q 244.301146 62.905889 95.734198 62.929091 C 90.275974 62.929091 85.792226 63.596143 81.430286 66.357158 C 75.380416 70.185455 72.387384 77.174998 72.07996 84.419761 Q 71.772536 91.890742 72.108962 95.574028 Q 72.689007 101.948724 76.041668 108.433628 Z" style="fill:#1e2e30;"/>
		<path d="M 455.849388 53.572964 Q 456.678853 64.390805 456.26122 74.123961 Q 456.162612 76.461543 454.33547 78.195878 Q 454.84591 76.983584 455.704377 75.9105 Q 455.959597 75.591475 455.976998 74.379181 Q 456.13361 63.839762 455.849388 53.572964 Z" style="fill:#57a0a3;"/>
		<path d="M 238.204872 80.434852 Q 233.784928 82.679626 231.10512 86.577529 Q 229.057561 89.55316 227.36963 93.271249 Q 224.562211 99.466131 223.76755 101.560094 Q 223.367318 102.604175 223.054094 103.230624 Q 222.346439 104.657534 222.334838 104.674936 Q 219.248998 111.995105 215.704923 119.164462 Q 211.337183 127.998549 204.660865 135.237511 Q 203.233954 136.780431 201.691034 138.097134 Q 203.135346 136.356998 204.678266 134.680668 Q 211.308181 127.464907 215.606315 118.648222 C 219.2722 111.136638 223.233908 102.006728 225.884714 95.858251 C 227.665453 91.72833 229.614404 88.050844 231.899782 85.034609 Q 234.306969 81.855962 238.204872 80.434852 Z" style="fill:#57a0a3;"/>
		<path d="M 452.160301 80.452253 Q 451.139422 81.757355 449.538498 82.314198 L 452.160301 80.452253 Z" style="fill:#57a0a3;"/>
		<path d="M 432.021136 102.888397 Q 428.755482 118.456807 418.43068 130.492742 Q 420.571046 127.401102 422.775217 124.379067 Q 426.122077 119.790911 429.028103 112.227123 Q 429.683554 110.51599 430.565223 107.569361 Q 431.261277 105.225979 432.021136 102.888397 Z" style="fill:#57a0a3;"/>
		<path d="M 417.607016 131.35701 Q 414.695189 135.115702 410.959699 138.05073 L 417.607016 131.35701 Z" style="fill:#57a0a3;"/>
		<path d="M 201.691034 138.097134 Q 201.12259 139.031006 200.107511 139.669056 Q 200.687556 138.671378 201.691034 138.097134 Z" style="fill:#57a0a3;"/>
		<path d="M 409.81121 139.106412 Q 406.678966 142.03564 402.879671 144.0948 L 409.81121 139.106412 Z" style="fill:#57a0a3;"/>
		<path d="M 90.525393 43.10315 L 90.47899 51.641414 Q 88.437231 51.803826 86.418674 51.98364 C 72.416386 53.242338 61.436132 62.882688 58.309689 76.525348 C 58.269086 76.693561 58.100873 76.792169 57.938461 76.745765 C 52.051003 75.023031 47.752869 70.527682 48.309712 64.210991 C 48.640338 60.458099 50.873511 57.847896 54.191369 56.397783 C 60.722677 53.538161 68.425676 50.643736 73.953505 48.306155 Q 78.669272 46.310799 84.701741 43.688996 C 85.600811 43.300365 88.437231 42.175078 89.568319 42.488302 Q 90.328178 42.697119 90.525393 43.10315 Z" style="fill:#57a0a3;"/>
		<path d="M 398.906362 51.618212 Q 398.801954 47.905923 398.865759 44.408252 Q 398.87736 43.549785 399.115178 42.656515 Q 399.585015 42.302688 400.234665 42.424497 Q 402.815866 42.923336 405.942309 44.199435 Q 412.891249 47.035856 419.840189 49.872276 C 423.546677 51.386194 428.709079 53.294542 433.088419 55.168088 C 438.569845 57.517271 442.050115 58.903578 442.189326 64.988251 C 442.322737 70.997518 437.612771 74.907022 432.409766 76.635556 C 432.264755 76.687761 432.102342 76.600754 432.061739 76.449942 Q 426.702123 56.362981 406.313538 52.064847 Q 404.834423 51.751622 398.906362 51.618212 Z" style="fill:#57a0a3;"/>
		<path d="M 413.987534 108.787455 Q 413.28568 108.746852 413.082664 108.880263 Q 408.633718 111.693481 407.021193 112.406937 Q 391.80661 119.083256 375.118713 123.978836 C 366.226622 126.583239 356.882096 127.029873 347.444762 126.705048 Q 337.583996 126.374422 332.038765 125.05192 Q 323.581708 123.033363 313.755744 120.063532 C 307.729075 118.24219 300.629324 116.322241 294.770868 114.680714 C 293.517971 114.332686 291.377605 113.938256 289.585265 113.323408 Q 289.306844 113.2248 289.115429 113.456818 Q 288.715198 113.335009 288.442576 112.83037 Q 286.017988 108.32922 284.016832 103.625054 Q 278.564409 90.806058 276.882278 86.966159 C 275.588777 84.007929 273.842842 80.620466 271.928693 78.103071 Q 263.407831 66.925602 248.837098 65.730709 C 242.868434 65.243471 235.855689 65.99753 230.380064 68.712141 Q 219.620227 74.054356 214.881259 84.715584 Q 206.157381 104.350111 204.933486 107.082123 Q 203.31516 110.695804 201.615628 113.120392 Q 191.314027 115.881407 181.279247 118.520612 C 172.932398 120.713182 163.622675 123.717816 155.502044 125.510155 C 153.843115 125.875584 152.056576 125.933588 150.606463 126.159806 Q 148.750319 126.444028 146.917376 126.531035 C 135.6413 127.053075 126.348978 127.053075 117.021853 124.564682 Q 106.673849 121.809468 95.403573 117.482331 Q 84.771346 113.398814 76.041668 108.433628 Q 72.689007 101.948724 72.108962 95.574028 Q 71.772536 91.890742 72.07996 84.419761 C 72.387384 77.174998 75.380416 70.185455 81.430286 66.357158 C 85.792226 63.596143 90.275974 62.929091 95.734198 62.929091 Q 244.301146 62.905889 394.567625 62.923291 Q 398.801954 62.923291 401.278747 63.364125 C 411.214919 65.139063 417.636018 73.07988 418.250866 83.126261 Q 418.633695 89.41975 418.390077 94.460342 C 418.158058 99.303718 416.464327 103.96148 414.405167 108.485832 Q 414.265956 108.775855 413.987534 108.787455 Z" style="fill:#f07b28;"/>
	</g>
	<g id="surface4">
	</g>
</svg>
