<?xml version="1.0" encoding="utf-8"?>
<svg xmlns="http://www.w3.org/2000/svg" width="490pt" height="280pt" viewBox="0 0 490 280" version="1.1" xmlns:xlink="http://www.w3.org/1999/xlink">
	<g id="surface2">
		<path vector-effect="non-scaling-stroke" d="M 262.658244 19.475078 C 261.388015 12.585954 254.860035 9.16879 248.441644 8.70802 C 240.862611 8.16506 233.410602 11.659434 230.058194 18.508708 Q 229.741882 19.156275 229.652219 19.786408 C 229.619841 20.015548 229.702032 20.247178 229.873887 20.404088 C 230.511492 20.98939 232.93738 23.644417 232.272377 24.448895 Q 231.490315 25.397831 230.643496 24.548521 Q 230.516473 24.421498 229.111749 22.717897 Q 226.52646 19.587157 222.501578 19.069103 C 216.504105 18.299493 210.753206 21.395365 207.209019 26.102684 Q 203.570187 30.937025 203.649887 37.200997 C 203.689738 40.311812 204.683505 43.773809 206.416994 46.356607 Q 211.11684 53.352829 219.936214 53.183465 Q 220.07569 53.180974 220.200222 53.118708 Q 224.466697 51.021585 229.398173 50.994188 Q 230.242502 50.989207 230.464169 51.838516 C 230.680855 52.660429 229.415608 53.106255 228.795437 53.300525 Q 225.756851 54.24697 223.545158 54.931897 C 223.490364 54.949332 223.453004 54.999145 223.453004 55.053939 L 223.453004 85.150891 C 223.453004 85.170816 223.467948 85.18576 223.487873 85.18576 L 267.435301 85.18576 C 267.554852 85.18576 267.651987 85.088625 267.651987 84.969074 L 267.651987 55.731394 C 267.651987 55.452442 267.47017 55.205868 267.203671 55.121186 Q 263.619633 53.970508 261.808934 53.462417 Q 260.511308 53.098783 260.20745 52.750092 C 259.313308 51.731419 260.528743 51.098795 261.417903 51.166042 Q 264.548644 51.402654 267.721725 52.286833 Q 269.106524 52.675373 270.217351 53.449964 C 270.32694 53.527174 270.463925 53.559552 270.595929 53.544608 Q 278.6706 52.580729 282.989378 46.261963 C 290.072772 35.895899 285.617008 19.891015 272.750337 16.600874 Q 269.803904 15.848699 266.65822 16.443963 Q 265.333197 16.695518 264.409168 17.161269 Q 264.294598 17.218554 264.321995 17.345576 Q 264.807671 19.502475 264.663213 21.786396 C 264.605928 22.697972 264.668195 24.100205 263.793978 24.446405 C 263.201205 24.683016 262.777795 23.950767 262.807683 23.460109 Q 262.929725 21.470084 262.683151 19.841203" style="fill:none;stroke-width:0.50;stroke:#93938a;"/>
		<path vector-effect="non-scaling-stroke" d="M 263.44464 14.581808 C 263.432835 14.548582 263.397966 14.528657 263.362848 14.540662 L 263.358115 14.542231 C 263.323246 14.553564 263.305812 14.590923 263.31697 14.624049 L 264.053653 16.851582 C 264.065459 16.884807 264.100328 16.904732 264.135446 16.892727 L 264.140178 16.891158 C 264.175047 16.879826 264.192481 16.842466 264.181323 16.809341 L 263.44464 14.581808" style="fill:none;stroke-width:0.50;stroke:#93938a;"/>
		<path vector-effect="non-scaling-stroke" d="M 269.482611 89.960326 C 269.482611 89.292833 268.942141 88.752363 268.274648 88.752363 L 222.387008 88.752363 C 221.719515 88.752363 221.179045 89.292833 221.179045 89.960326 L 221.179045 95.011354 C 221.179045 95.678846 221.719515 96.219316 222.387008 96.219316 L 268.274648 96.219316 C 268.942141 96.219316 269.482611 95.678846 269.482611 95.011354 L 269.482611 89.960326" style="fill:none;stroke-width:0.50;stroke:#93938a;"/>
		<path vector-effect="non-scaling-stroke" d="M 249.236159 47.75884 C 242.21005 48.864687 235.520178 46.164828 232.489064 39.507334 C 232.055691 38.555908 231.784211 37.499874 231.472881 36.416444 C 231.318461 35.873483 231.022074 35.32056 230.384469 35.609475 C 229.983475 35.791292 229.995928 36.032884 229.990947 36.473729 C 229.938643 40.628124 231.560053 44.543418 234.640981 47.280636 Q 236.277334 48.735173 238.897493 49.80615 C 248.454097 53.711481 261.094119 49.482366 262.496352 38.10261 C 262.553637 37.644332 262.543675 36.98182 262.067961 36.78755 C 261.343184 36.493654 260.994493 37.357908 260.837583 37.828639 C 259.109075 43.073937 254.690671 46.899568 249.236159 47.75884" style="fill:none;stroke-width:0.50;stroke:#93938a;"/>
		<path d="M 228.108019 14.334387 Q 228.160323 14.817572 228.404406 14.394162 C 228.890082 13.544852 229.30602 13.113971 230.127932 12.162545 Q 230.795425 11.387954 231.310989 10.981979 Q 231.465409 10.857447 232.583708 9.898548 Q 235.861397 7.091592 240.369464 5.77155 Q 242.658366 5.104057 245.278525 5.001941 Q 248.068047 4.894843 250.665789 5.343159 C 255.238613 6.132694 259.594751 8.805155 262.137699 12.678108 Q 262.650772 13.45768 263.056747 14.174986 Q 263.099088 14.249705 263.18377 14.259668 C 263.385513 14.287065 263.624614 14.160042 263.881151 14.160042 Q 289.801291 14.209855 313.39766 14.170004 Q 314.032775 14.170004 314.341615 14.376728 Q 314.897029 14.747834 315.011598 15.193659 Q 315.325419 16.409094 314.520941 16.919676 Q 314.0527 17.218554 312.999157 17.208591 C 311.833535 17.201119 310.752596 17.176213 309.661693 17.375464 Q 304.630591 18.294512 302.824873 23.15127 Q 302.481164 24.08028 302.247044 25.589611 Q 302.085152 26.638172 302.057755 28.067802 C 301.915788 35.833633 301.975563 43.574557 301.92326 51.420088 Q 301.903335 54.090059 301.905825 56.398887 Q 301.930732 96.757296 301.92326 112.936524 Q 301.915788 130.234053 301.943185 132.737151 Q 302.00047 137.982449 302.11753 140.348561 Q 302.184777 141.740832 302.829854 143.837955 C 303.903322 147.317385 306.491102 149.240163 309.950608 149.738292 Q 311.295556 149.935053 313.161049 149.892712 Q 314.595661 149.860334 315.397648 150.881498 C 315.447461 150.943764 315.477349 151.023465 315.479839 151.103166 Q 315.571993 152.908883 313.838504 152.953715 C 310.553344 153.035906 305.492354 152.754463 301.507322 152.756954 Q 297.305604 152.761935 269.63205 152.754463 C 265.607168 152.754463 261.52251 152.941261 257.176335 152.981112 Q 256.588543 152.986093 256.028148 152.851598 Q 255.903615 152.82171 255.816443 152.727066 C 255.532509 152.415735 255.221179 152.111877 255.203744 151.668542 Q 255.173857 150.861573 255.799008 150.433182 Q 256.147699 150.19408 256.994518 150.106908 C 259.527504 149.847881 262.053018 149.683498 264.384261 148.657352 Q 264.942166 148.413269 266.165072 147.464333 Q 267.009401 146.811785 267.557343 145.872811 Q 268.561072 144.149285 268.727946 143.539077 C 269.475139 140.781933 269.669409 138.56775 269.6719 135.588939 Q 269.686844 117.753431 269.684353 106.709912 Q 269.684353 105.915397 269.602162 104.956498 Q 269.587218 104.764719 269.395438 104.764719 L 222.347158 104.764719 Q 221.535208 104.764719 221.535208 105.576669 Q 221.567586 126.453254 221.609927 138.092037 Q 221.61989 140.201613 222.132962 142.241451 C 223.032085 145.813036 225.271175 148.408288 228.832797 149.309901 Q 230.865163 149.827955 233.746839 149.910147 C 234.705737 149.940034 235.13911 150.064567 235.739355 150.662321 Q 236.050686 150.971161 236.078083 151.436912 C 236.150311 152.734538 235.034503 152.928808 233.94111 152.938771 C 229.547612 152.97613 225.355857 152.749482 221.871445 152.751972 Q 204.436931 152.766916 187.002417 152.776879 C 183.963831 152.779369 180.270204 152.943752 176.793264 152.938771 C 175.749684 152.93628 174.917809 152.405773 175 151.260076 Q 175.047322 150.585111 175.545451 150.313631 Q 176.163131 149.974903 176.703601 149.954978 Q 179.699847 149.837918 181.012417 149.544022 Q 181.540433 149.424471 182.72349 148.906417 C 184.88786 147.959972 186.392209 145.897718 187.022343 143.713422 C 187.555341 141.867855 187.724704 139.922661 187.724704 137.860407 Q 187.699798 71.761184 187.712251 29.734044 C 187.714742 28.428946 187.540397 26.904671 187.468168 25.826222 Q 187.403411 24.897212 186.987473 23.442675 C 186.344887 21.186151 184.917748 19.400358 182.838059 18.334362 Q 181.983768 17.896009 180.095859 17.412824 C 178.890387 17.106475 177.478192 17.218554 176.108337 17.168741 Q 175.879198 17.161269 175.186798 16.573477 Q 175.087173 16.488795 175.072229 16.359281 C 175.004981 15.818811 174.860524 14.947086 175.405975 14.573489 Q 176.00373 14.167514 176.541709 14.167514 Q 197.881554 14.194911 227.749367 14.184948 Q 227.858955 14.184948 227.941146 14.217327 Q 228.103038 14.279593 228.108019 14.334387 Z M 262.683151 19.841203 Q 262.710548 19.631988 262.658244 19.475078 C 261.388015 12.585954 254.860035 9.16879 248.441644 8.70802 C 240.862611 8.16506 233.410602 11.659434 230.058194 18.508708 Q 229.741882 19.156275 229.652219 19.786408 C 229.619841 20.015548 229.702032 20.247178 229.873887 20.404088 C 230.511492 20.98939 232.93738 23.644417 232.272377 24.448895 Q 231.490315 25.397831 230.643496 24.548521 Q 230.516473 24.421498 229.111749 22.717897 Q 226.52646 19.587157 222.501578 19.069103 C 216.504105 18.299493 210.753206 21.395365 207.209019 26.102684 Q 203.570187 30.937025 203.649887 37.200997 C 203.689738 40.311812 204.683505 43.773809 206.416994 46.356607 Q 211.11684 53.352829 219.936214 53.183465 Q 220.07569 53.180974 220.200222 53.118708 Q 224.466697 51.021585 229.398173 50.994188 Q 230.242502 50.989207 230.464169 51.838516 C 230.680855 52.660429 229.415608 53.106255 228.795437 53.300525 Q 225.756851 54.24697 223.545158 54.931897 C 223.490364 54.949332 223.453004 54.999145 223.453004 55.053939 L 223.453004 85.150891 C 223.453004 85.170816 223.467948 85.18576 223.487873 85.18576 L 267.435301 85.18576 C 267.554852 85.18576 267.651987 85.088625 267.651987 84.969074 L 267.651987 55.731394 C 267.651987 55.452442 267.47017 55.205868 267.203671 55.121186 Q 263.619633 53.970508 261.808934 53.462417 Q 260.511308 53.098783 260.20745 52.750092 C 259.313308 51.731419 260.528743 51.098795 261.417903 51.166042 Q 264.548644 51.402654 267.721725 52.286833 Q 269.106524 52.675373 270.217351 53.449964 C 270.32694 53.527174 270.463925 53.559552 270.595929 53.544608 Q 278.6706 52.580729 282.989378 46.261963 C 290.072772 35.895899 285.617008 19.891015 272.750337 16.600874 Q 269.803904 15.848699 266.65822 16.443963 Q 265.333197 16.695518 264.409168 17.161269 Q 264.294598 17.218554 264.321995 17.345576 Q 264.807671 19.502475 264.663213 21.786396 C 264.605928 22.697972 264.668195 24.100205 263.793978 24.446405 C 263.201205 24.683016 262.777795 23.950767 262.807683 23.460109 Q 262.929725 21.470084 262.683151 19.841203 Z M 263.44464 14.581808 C 263.432835 14.548582 263.397966 14.528657 263.362848 14.540662 L 263.358115 14.542231 C 263.323246 14.553564 263.305812 14.590923 263.31697 14.624049 L 264.053653 16.851582 C 264.065459 16.884807 264.100328 16.904732 264.135446 16.892727 L 264.140178 16.891158 C 264.175047 16.879826 264.192481 16.842466 264.181323 16.809341 L 263.44464 14.581808 Z M 227.672854 15.682722 C 227.729441 15.706732 227.863936 15.507481 227.972877 15.237544 C 228.083113 14.969501 228.125454 14.73289 228.069962 14.709578 C 228.013375 14.685568 227.87888 14.884819 227.769939 15.154755 C 227.659703 15.422799 227.617362 15.65941 227.672854 15.682722 Z M 269.482611 89.960326 C 269.482611 89.292833 268.942141 88.752363 268.274648 88.752363 L 222.387008 88.752363 C 221.719515 88.752363 221.179045 89.292833 221.179045 89.960326 L 221.179045 95.011354 C 221.179045 95.678846 221.719515 96.219316 222.387008 96.219316 L 268.274648 96.219316 C 268.942141 96.219316 269.482611 95.678846 269.482611 95.011354 L 269.482611 89.960326 Z" style="fill:#2a2d2e;"/>
		<path d="M 262.658244 19.475078 L 262.683151 19.841203 Q 262.929725 21.470084 262.807683 23.460109 C 262.777795 23.950767 263.201205 24.683016 263.793978 24.446405 C 264.668195 24.100205 264.605928 22.697972 264.663213 21.786396 Q 264.807671 19.502475 264.321995 17.345576 Q 264.294598 17.218554 264.409168 17.161269 Q 265.333197 16.695518 266.65822 16.443963 Q 269.803904 15.848699 272.750337 16.600874 C 285.617008 19.891015 290.072772 35.895899 282.989378 46.261963 Q 278.6706 52.580729 270.595929 53.544608 C 270.463925 53.559552 270.32694 53.527174 270.217351 53.449964 Q 269.106524 52.675373 267.721725 52.286833 Q 264.548644 51.402654 261.417903 51.166042 C 260.528743 51.098795 259.313308 51.731419 260.20745 52.750092 Q 260.511308 53.098783 261.808934 53.462417 Q 263.619633 53.970508 267.203671 55.121186 C 267.47017 55.205868 267.651987 55.452442 267.651987 55.731394 L 267.651987 84.969074 C 267.651987 85.088625 267.554852 85.18576 267.435301 85.18576 L 223.487873 85.18576 C 223.467948 85.18576 223.453004 85.170816 223.453004 85.150891 L 223.453004 55.053939 C 223.453004 54.999145 223.490364 54.949332 223.545158 54.931897 Q 225.756851 54.24697 228.795437 53.300525 C 229.415608 53.106255 230.680855 52.660429 230.464169 51.838516 Q 230.242502 50.989207 229.398173 50.994188 Q 224.466697 51.021585 220.200222 53.118708 Q 220.07569 53.180974 219.936214 53.183465 Q 211.11684 53.352829 206.416994 46.356607 C 204.683505 43.773809 203.689738 40.311812 203.649887 37.200997 Q 203.570187 30.937025 207.209019 26.102684 C 210.753206 21.395365 216.504105 18.299493 222.501578 19.069103 Q 226.52646 19.587157 229.111749 22.717897 Q 230.516473 24.421498 230.643496 24.548521 Q 231.490315 25.397831 232.272377 24.448895 C 232.93738 23.644417 230.511492 20.98939 229.873887 20.404088 C 229.702032 20.247178 229.619841 20.015548 229.652219 19.786408 Q 229.741882 19.156275 230.058194 18.508708 C 233.410602 11.659434 240.862611 8.16506 248.441644 8.70802 C 254.860035 9.16879 261.388015 12.585954 262.658244 19.475078 Z M 249.236159 47.75884 C 242.21005 48.864687 235.520178 46.164828 232.489064 39.507334 C 232.055691 38.555908 231.784211 37.499874 231.472881 36.416444 C 231.318461 35.873483 231.022074 35.32056 230.384469 35.609475 C 229.983475 35.791292 229.995928 36.032884 229.990947 36.473729 C 229.938643 40.628124 231.560053 44.543418 234.640981 47.280636 Q 236.277334 48.735173 238.897493 49.80615 C 248.454097 53.711481 261.094119 49.482366 262.496352 38.10261 C 262.553637 37.644332 262.543675 36.98182 262.067961 36.78755 C 261.343184 36.493654 260.994493 37.357908 260.837583 37.828639 C 259.109075 43.073937 254.690671 46.899568 249.236159 47.75884 Z" style="fill:#fcf9e6;"/>
		<path d="M 264.181323 16.809341 C 264.192481 16.842466 264.175047 16.879826 264.140178 16.891158 L 264.135446 16.892727 C 264.100328 16.904732 264.065459 16.884807 264.053653 16.851582 L 263.31697 14.624049 C 263.305812 14.590923 263.323246 14.553564 263.358115 14.542231 L 263.362848 14.540662 C 263.397966 14.528657 263.432835 14.548582 263.44464 14.581808 L 264.181323 16.809341 Z" style="fill:#fcf9e6;"/>
		<path d="M 269.482611 95.011354 C 269.482611 95.678846 268.942141 96.219316 268.274648 96.219316 L 222.387008 96.219316 C 221.719515 96.219316 221.179045 95.678846 221.179045 95.011354 L 221.179045 89.960326 C 221.179045 89.292833 221.719515 88.752363 222.387008 88.752363 L 268.274648 88.752363 C 268.942141 88.752363 269.482611 89.292833 269.482611 89.960326 L 269.482611 95.011354 Z" style="fill:#fcf9e6;"/>
		<path d="M 249.236159 47.75884 C 254.690671 46.899568 259.109075 43.073937 260.837583 37.828639 C 260.994493 37.357908 261.343184 36.493654 262.067961 36.78755 C 262.543675 36.98182 262.553637 37.644332 262.496352 38.10261 C 261.094119 49.482366 248.454097 53.711481 238.897493 49.80615 Q 236.277334 48.735173 234.640981 47.280636 C 231.560053 44.543418 229.938643 40.628124 229.990947 36.473729 C 229.995928 36.032884 229.983475 35.791292 230.384469 35.609475 C 231.022074 35.32056 231.318461 35.873483 231.472881 36.416444 C 231.784211 37.499874 232.055691 38.555908 232.489064 39.507334 C 235.520178 46.164828 242.21005 48.864687 249.236159 47.75884 Z" style="fill:#2a2d2e;"/>
	</g>
	<g id="surface4">
	</g>
</svg>
