<?xml version="1.0" encoding="utf-8"?>
<svg xmlns="http://www.w3.org/2000/svg" width="490pt" height="280pt" viewBox="0 0 490 280" version="1.1" xmlns:xlink="http://www.w3.org/1999/xlink">
	<g id="surface2">
		<path vector-effect="non-scaling-stroke" d="M 262.440637 39.962489 C 262.338882 39.932745 262.257478 39.857603 262.221472 39.757414 C 261.576501 38.018184 260.310041 36.793992 258.359474 37.188488 C 256.568584 37.551676 255.461802 39.452148 256.044154 41.175723 C 256.764267 43.30945 259.915545 43.66481 261.340116 42.07743 C 261.55615 41.837914 261.830106 41.125628 262.28096 41.053617 Q 263.24372 40.900202 263.865208 40.778096 C 263.93722 40.764006 263.962267 40.674775 263.909041 40.62468 C 263.508283 40.2521 263.030817 40.140952 262.440637 39.962489" style="fill:none;stroke-width:0.50;stroke:#dcf3fc;"/>
		<path vector-effect="non-scaling-stroke" d="M 256.347854 54.976847 C 257.512559 58.256493 260.601218 60.398046 263.992011 60.692354 C 267.199645 60.969441 270.277346 59.702981 272.257657 57.162234 C 274.54793 54.220729 274.893897 50.194357 273.073263 46.927235 Q 271.235409 43.63037 267.598838 42.459403 C 265.560605 41.803474 263.06056 41.931842 261.171046 43.004184 C 260.560516 43.350152 259.755867 43.855796 259.222044 44.300388 C 256.020672 46.967937 254.959288 51.060058 256.347854 54.976847" style="fill:none;stroke-width:0.50;stroke:#dcf3fc;"/>
		<path vector-effect="non-scaling-stroke" d="M 212.520863 56.446786 C 214.697139 56.50787 216.514642 54.720111 216.577291 52.455403 C 216.639879 50.189661 214.927262 48.304843 212.749984 48.243821 C 210.573709 48.182737 208.756206 49.970496 208.693556 52.235205 C 208.630969 54.500946 210.343586 56.385764 212.520863 56.446786" style="fill:none;stroke-width:0.50;stroke:#dcf3fc;"/>
		<path vector-effect="non-scaling-stroke" d="M 241.109635 52.310863 Q 238.60959 51.856879 236.14242 51.582923 Q 234.766378 51.429508 233.535924 51.48743 C 231.973591 51.559441 230.66956 51.932021 229.750633 53.26423 C 229.099401 54.205074 228.50609 55.429266 227.74684 56.284009 Q 226.915579 57.223287 225.840106 57.92618" style="fill:none;stroke-width:0.50;stroke:#6d8fa5;"/>
		<path vector-effect="non-scaling-stroke" d="M 225.840106 57.92618 Q 225.669471 57.899567 225.528579 57.752414 Q 223.552964 55.690699 220.857237 55.851941 C 217.140827 56.074237 214.510849 59.632535 215.706863 63.276933 C 215.907242 63.890595 216.317393 64.591923 216.641444 65.22437" style="fill:none;stroke-width:0.50;stroke:#dcf3fc;"/>
		<path vector-effect="non-scaling-stroke" d="M 216.641444 65.22437 Q 215.553447 67.621094 214.985184 69.92389 Q 213.911276 74.275878 213.753164 78.972268" style="fill:none;stroke-width:0.50;stroke:#6d8fa5;"/>
		<path vector-effect="non-scaling-stroke" d="M 213.753164 78.972268 Q 213.670195 78.991053 213.487036 78.872078 Q 213.422852 78.828245 213.346144 78.834507 C 210.161992 79.067761 208.6341 84.925725 208.19577 87.408549 Q 207.989129 88.581081 208.39928 89.449913 C 208.471291 89.601763 208.479119 89.70978 208.507297 89.860065" style="fill:none;stroke-width:0.50;stroke:#ddc3ca;"/>
		<path vector-effect="non-scaling-stroke" d="M 208.507297 89.860065 Q 208.285001 90.36884 208.278739 90.614618 Q 208.219252 93.086485 208.886139 95.370495 Q 209.119393 96.172013 209.809763 96.824811" style="fill:none;stroke-width:0.50;stroke:#d79ea0;"/>
		<path vector-effect="non-scaling-stroke" d="M 209.809763 96.824811 Q 209.39648 96.8389 209.042686 96.874906 Q 206.783722 97.105029 204.875422 97.886195 C 204.485622 98.045872 203.911097 98.382447 203.688801 98.668926 C 202.826231 99.792929 203.569826 101.054692 204.601466 101.702794 C 206.193542 102.70156 208.101842 103.291739 209.902125 103.791122 Q 213.242823 104.721007 216.699366 105.300229" style="fill:none;stroke-width:0.50;stroke:#8fd9ed;"/>
		<path vector-effect="non-scaling-stroke" d="M 216.699366 105.300229 Q 216.801121 105.535048 216.877829 105.82779 C 217.2191 107.119297 218.045665 108.107104 219.236982 108.661278 C 219.899173 108.969675 220.74922 109.07143 221.491249 109.052644 C 222.796846 109.018204 223.920848 108.428024 224.664443 107.347855 Q 224.932137 106.95962 225.166957 106.721669" style="fill:none;stroke-width:0.50;stroke:#dcf3fc;"/>
		<path vector-effect="non-scaling-stroke" d="M 225.166957 106.721669 Q 236.48056 108.179116 248.407824 108.144676 Q 256.836278 108.121194 263.966964 107.496574 Q 265.152019 107.393253 267.083801 107.205398 Q 272.580142 106.670009 278.078049 105.381633 Q 279.527668 105.043493 280.919365 104.547241 C 281.584687 104.310856 282.350198 103.819301 281.711489 103.088229 Q 281.152619 102.447955 280.095931 102.260099" style="fill:none;stroke-width:0.50;stroke:#8fd9ed;"/>
		<path vector-effect="non-scaling-stroke" d="M 280.095931 102.260099 Q 280.636016 102.1286 281.016424 102.051893 Q 281.515807 101.951703 281.785066 101.577557 C 282.340806 100.805784 282.549012 99.529931 282.699297 98.534297" style="fill:none;stroke-width:0.50;stroke:#d79ea0;"/>
		<path vector-effect="non-scaling-stroke" d="M 282.699297 98.534297 Q 282.606934 96.416225 281.960398 94.259017 C 281.716186 93.446541 281.354564 92.71547 280.81761 92.129987 Q 280.398066 91.671306 279.940951 91.785585" style="fill:none;stroke-width:0.50;stroke:#ddc3ca;"/>
		<path vector-effect="non-scaling-stroke" d="M 279.940951 91.785585 Q 279.823541 91.340993 279.565239 90.836914 C 278.079615 87.937676 275.689152 85.814908 272.886973 84.321456 Q 269.674643 82.61197 266.175832 81.999874" style="fill:none;stroke-width:0.50;stroke:#6d8fa5;"/>
		<path vector-effect="non-scaling-stroke" d="M 266.175832 81.999874 Q 264.430341 81.390909 262.795997 80.899353 C 261.966302 80.648879 261.224272 80.346745 260.555819 79.947552 Q 259.377025 79.244659 258.240499 78.331993" style="fill:none;stroke-width:0.50;stroke:#dcb99f;"/>
		<path vector-effect="non-scaling-stroke" d="M 258.240499 78.331993 L 256.794011 76.97004" style="fill:none;stroke-width:0.50;stroke:#ddc3ca;"/>
		<path vector-effect="non-scaling-stroke" d="M 256.794011 76.97004 L 255.334999 75.315346" style="fill:none;stroke-width:0.50;stroke:#dcb99f;"/>
		<path vector-effect="non-scaling-stroke" d="M 255.334999 75.315346 L 252.730068 71.725739" style="fill:none;stroke-width:0.50;stroke:#ddc3ca;"/>
		<path vector-effect="non-scaling-stroke" d="M 252.730068 71.725739 L 251.473001 69.653065" style="fill:none;stroke-width:0.50;stroke:#dcb99f;"/>
		<path vector-effect="non-scaling-stroke" d="M 251.473001 69.653065 L 250.471105 67.469244" style="fill:none;stroke-width:0.50;stroke:#ddc3ca;"/>
		<path vector-effect="non-scaling-stroke" d="M 250.471105 67.469244 Q 249.937282 65.95231 249.699332 64.454162" style="fill:none;stroke-width:0.50;stroke:#dcb99f;"/>
		<path vector-effect="non-scaling-stroke" d="M 249.699332 64.454162 Q 249.309531 61.099374 249.461381 57.660051" style="fill:none;stroke-width:0.50;stroke:#ddc3ca;"/>
		<path vector-effect="non-scaling-stroke" d="M 249.461381 57.660051 Q 249.49269 56.493781 249.833961 55.05199" style="fill:none;stroke-width:0.50;stroke:#dcb99f;"/>
		<path vector-effect="non-scaling-stroke" d="M 249.833961 55.05199 Q 250.003031 54.598005 250.178363 53.97182 Q 250.18306 53.953034 250.367784 53.370682 C 250.917262 51.629887 249.768212 50.947345 248.27476 50.551283 Q 246.097201 49.975192 243.918076 50.042507 Q 243.141606 50.065989 242.56395 50.302374 Q 241.252092 50.839328 241.109635 52.310863" style="fill:none;stroke-width:0.50;stroke:#ddc3ca;"/>
		<path vector-effect="non-scaling-stroke" d="M 249.833961 55.05199 L 240.870119 54.131497" style="fill:none;stroke-width:0.50;stroke:#fa926d;"/>
		<path vector-effect="non-scaling-stroke" d="M 240.870119 54.131497 L 241.109635 52.310863" style="fill:none;stroke-width:0.50;stroke:#8b6873;"/>
		<path vector-effect="non-scaling-stroke" d="M 240.870119 54.131497 Q 239.235775 53.738566 237.573253 53.788661 C 237.072305 53.804315 236.32871 53.78553 235.740096 53.926421 C 234.040003 54.336573 233.380943 56.521959 235.204707 57.35009 Q 236.084498 57.747717 236.871926 57.694491 Q 239.428327 57.517594 241.078325 57.58804" style="fill:none;stroke-width:0.50;stroke:#8a5e48;"/>
		<path vector-effect="non-scaling-stroke" d="M 241.078325 57.58804 Q 241.07676 60.955351 241.720165 64.375889" style="fill:none;stroke-width:0.50;stroke:#8b6873;"/>
		<path vector-effect="non-scaling-stroke" d="M 241.720165 64.375889 Q 240.647823 64.371192 239.257692 64.488602 Q 237.56073 64.632625 236.26296 65.518677 Q 235.644602 65.941352 235.555371 66.810184 C 235.425438 68.076644 236.71851 68.687174 237.762674 68.660562 Q 238.086725 68.651169 239.08236 68.334945 Q 240.904559 67.754158 242.853561 67.899746" style="fill:none;stroke-width:0.50;stroke:#8a5e48;"/>
		<path vector-effect="non-scaling-stroke" d="M 242.853561 67.899746 L 244.376756 70.786461" style="fill:none;stroke-width:0.50;stroke:#8b6873;"/>
		<path vector-effect="non-scaling-stroke" d="M 244.376756 70.786461 Q 243.285629 70.856906 241.986294 71.257665 Q 240.521021 71.710084 239.559826 72.495946 C 239.018176 72.938973 238.777094 73.846941 239.124627 74.526352 C 239.508166 75.277775 239.902663 75.479719 240.769929 75.351351 Q 240.851333 75.338828 240.901428 75.403012 Q 240.992225 75.517291 241.051713 75.676968 C 241.098676 75.805336 241.225479 75.885174 241.360109 75.871085 Q 241.792177 75.828818 242.069264 75.692622 Q 242.233637 75.612784 242.476284 75.212025 Q 242.817555 74.648458 243.564281 74.391722 Q 244.81039 73.962786 245.696442 73.729532" style="fill:none;stroke-width:0.50;stroke:#8a5e48;"/>
		<path vector-effect="non-scaling-stroke" d="M 245.696442 73.729532 C 245.895256 73.684133 246.034582 73.67474 246.18017 73.842245 Q 247.538992 75.421797 249.05123 76.852631 Q 249.10289 76.902726 249.043402 77.01857" style="fill:none;stroke-width:0.50;stroke:#8b6873;"/>
		<path vector-effect="non-scaling-stroke" d="M 249.043402 77.01857 Q 247.761288 77.516387 246.709297 78.438445 Q 246.335151 78.765627 246.070588 79.208653 C 245.461623 80.232466 245.909345 81.472313 247.214941 81.483271 C 247.360529 81.484836 247.493594 81.56311 247.565605 81.688347 L 247.698669 81.916904 Q 247.744068 81.996743 247.834865 82.001439 Q 248.594114 82.035879 248.93382 81.48014 C 249.459816 80.622266 250.068781 80.238728 251.042499 79.656375 Q 251.800183 79.202391 252.61579 78.854858" style="fill:none;stroke-width:0.50;stroke:#8a5e48;"/>
		<path vector-effect="non-scaling-stroke" d="M 252.61579 78.854858 Q 252.932013 79.405901 253.263891 79.834838 Q 253.349992 79.947552 253.301462 80.091574" style="fill:none;stroke-width:0.50;stroke:#8b6873;"/>
		<path vector-effect="non-scaling-stroke" d="M 253.301462 80.091574 Q 252.708152 80.407798 251.903504 81.049638 C 251.125469 81.667996 250.543116 82.928194 251.692166 83.551248 Q 251.886284 83.656134 252.355923 83.588819 Q 252.546909 83.562206 252.543778 83.754758 C 252.540647 83.997405 252.593873 84.407556 252.750419 84.546883 C 252.97115 84.745696 253.411045 84.679947 253.642733 84.557841 Q 253.803976 84.47174 254.007486 84.196219 C 255.156536 82.635452 256.722 81.696174 258.476884 80.891526 C 258.832244 80.728718 259.15786 80.614439 259.542964 80.806991 Q 260.214548 81.142 260.540165 81.336117 C 260.59339 81.367427 260.585563 81.4457 260.527641 81.466051 Q 260.029823 81.641383 259.594625 81.888726 Q 258.310945 82.619797 257.429589 83.28825 C 256.512228 83.983316 255.871953 84.949207 256.261753 86.131131 C 256.648423 87.300532 257.748944 87.965854 258.949654 87.585447 C 260.339785 87.145552 259.542964 85.927621 260.331958 85.133931 Q 260.842299 84.622025 261.465353 84.227528 Q 263.606907 82.873402 266.175832 81.999874" style="fill:none;stroke-width:0.50;stroke:#8a5e48;"/>
		<path vector-effect="non-scaling-stroke" d="M 279.940951 91.785585 Q 278.627527 92.158165 277.293752 92.34602 Q 272.514393 93.01917 267.753819 92.990991 C 261.383949 92.951855 254.993728 92.258354 248.73031 90.944931 Q 242.972536 89.736393 237.712579 87.416377 Q 234.032175 85.792991 232.916 85.357793 C 230.234362 84.307367 226.812259 83.278857 223.654719 82.514911 Q 219.031907 81.39717 218.648368 81.301677 Q 216.466112 80.750634 215.351502 80.26221 C 214.676788 79.966337 214.000508 79.646983 213.753164 78.972268" style="fill:none;stroke-width:0.50;stroke:#8b6873;"/>
		<path vector-effect="non-scaling-stroke" d="M 216.641444 65.22437 C 218.804914 67.597612 222.394522 67.984281 224.919614 66.046238 C 227.54333 64.033052 227.742144 60.47632 225.840106 57.92618" style="fill:none;stroke-width:0.50;stroke:#8a98a5;"/>
		<path vector-effect="non-scaling-stroke" d="M 249.461381 57.660051 Q 245.245589 57.849472 241.078325 57.58804" style="fill:none;stroke-width:0.50;stroke:#fa926d;"/>
		<path vector-effect="non-scaling-stroke" d="M 255.334999 75.315346 Q 254.574184 75.201067 254.110807 75.307518 Q 251.743827 75.856996 249.043402 77.01857" style="fill:none;stroke-width:0.50;stroke:#fa926d;"/>
		<path vector-effect="non-scaling-stroke" d="M 282.699297 98.534297 Q 281.755322 98.424714 280.704897 98.540559 Q 277.021362 98.949144 273.337827 99.351468 Q 270.507469 99.659865 266.041202 99.805453" style="fill:none;stroke-width:0.50;stroke:#f5766e;"/>
		<path vector-effect="non-scaling-stroke" d="M 266.041202 99.805453 L 263.683615 99.863375" style="fill:none;stroke-width:0.50;stroke:#adb2bc;"/>
		<path vector-effect="non-scaling-stroke" d="M 263.683615 99.863375 Q 263.663264 99.783536 263.523937 99.783536 Q 262.990114 99.780405 262.615969 99.772578" style="fill:none;stroke-width:0.50;stroke:#d16868;"/>
		<path vector-effect="non-scaling-stroke" d="M 262.615969 99.772578 Q 259.47878 99.564371 258.523848 99.461051 Q 254.780825 99.05403 251.04563 98.543689" style="fill:none;stroke-width:0.50;stroke:#f5766e;"/>
		<path vector-effect="non-scaling-stroke" d="M 251.04563 98.543689 L 249.633582 98.277561" style="fill:none;stroke-width:0.50;stroke:#d16868;"/>
		<path vector-effect="non-scaling-stroke" d="M 249.633582 98.277561 Q 247.781639 97.825142 245.95944 97.281926 Q 244.199859 96.759061 242.531075 95.777516" style="fill:none;stroke-width:0.50;stroke:#f5766e;"/>
		<path vector-effect="non-scaling-stroke" d="M 242.531075 95.777516 Q 242.551426 95.735248 242.471588 95.700808 Q 242.418362 95.678892 242.396445 95.656975 Q 241.604321 94.849196 240.793411 94.061768 C 240.578943 93.853562 240.342558 93.701712 240.106173 93.527945" style="fill:none;stroke-width:0.50;stroke:#adb2bc;"/>
		<path vector-effect="non-scaling-stroke" d="M 240.106173 93.527945 Q 237.963054 92.131552 235.597639 91.009115" style="fill:none;stroke-width:0.50;stroke:#ddc3ca;"/>
		<path vector-effect="non-scaling-stroke" d="M 235.597639 91.009115 Q 233.814576 90.112104 231.859312 89.487485 C 230.459788 89.041328 229.285691 88.701622 227.909649 88.451148 Q 226.970371 88.280512 226.035789 88.576385" style="fill:none;stroke-width:0.50;stroke:#d16868;"/>
		<path vector-effect="non-scaling-stroke" d="M 226.035789 88.576385 Q 223.99286 89.684733 223.189777 92.040755" style="fill:none;stroke-width:0.50;stroke:#e46e6a;"/>
		<path vector-effect="non-scaling-stroke" d="M 223.189777 92.040755 C 218.26796 91.639997 213.361799 90.971544 208.613749 89.795881 Q 208.55113 89.780226 208.507297 89.860065" style="fill:none;stroke-width:0.50;stroke:#f5766e;"/>
		<path vector-effect="non-scaling-stroke" d="M 250.471105 67.469244 Q 250.355261 67.597612 249.993639 67.639879 Q 247.100663 67.987412 244.503559 68.018722 Q 244.091842 68.023418 242.853561 67.899746" style="fill:none;stroke-width:0.50;stroke:#fa926d;"/>
		<path vector-effect="non-scaling-stroke" d="M 258.240499 78.331993 Q 255.917352 78.859555 253.883815 79.800398 Q 253.780494 79.847362 253.616121 79.977295 Q 253.436092 80.119752 253.301462 80.091574" style="fill:none;stroke-width:0.50;stroke:#fa926d;"/>
		<path vector-effect="non-scaling-stroke" d="M 249.699332 64.454162 Q 245.698007 64.527739 241.720165 64.375889" style="fill:none;stroke-width:0.50;stroke:#fa926d;"/>
		<path vector-effect="non-scaling-stroke" d="M 252.730068 71.725739 Q 252.744158 71.793053 252.734765 71.833756 Q 252.726937 71.872892 252.665884 71.899505 C 250.867167 72.696326 248.886856 73.084561 246.966033 73.469665 Q 246.782873 73.507236 246.328889 73.494712 Q 245.896821 73.483754 245.696442 73.729532" style="fill:none;stroke-width:0.50;stroke:#fa926d;"/>
		<path vector-effect="non-scaling-stroke" d="M 256.794011 76.97004 C 256.872284 77.259651 256.485615 77.378626 256.286801 77.452203 Q 254.447382 78.120656 252.61579 78.854858" style="fill:none;stroke-width:0.50;stroke:#fa926d;"/>
		<path vector-effect="non-scaling-stroke" d="M 251.473001 69.653065 Q 249.59288 69.829963 247.817645 70.188454 Q 246.095635 70.534421 244.376756 70.786461" style="fill:none;stroke-width:0.50;stroke:#fa926d;"/>
		<path vector-effect="non-scaling-stroke" d="M 233.811445 96.33169 Q 232.469843 96.935959 231.07345 97.38055 C 229.589391 97.854886 228.120986 98.288519 226.6291 98.515511 Q 225.375164 98.706498 224.160364 98.510815" style="fill:none;stroke-width:0.50;stroke:#96858e;"/>
		<path vector-effect="non-scaling-stroke" d="M 224.160364 98.510815 Q 223.18195 95.948151 222.961219 93.765896 Q 222.889208 93.050479 223.189777 92.040755" style="fill:none;stroke-width:0.50;stroke:#de4940;"/>
		<path vector-effect="non-scaling-stroke" d="M 242.531075 95.777516 Q 242.459064 97.64981 242.604652 99.290415 C 242.703276 100.392502 243.047678 101.291077 244.188901 101.637045 Q 245.914041 102.156779 247.322958 102.447955 Q 248.354599 102.662423 248.835196 102.48396" style="fill:none;stroke-width:0.50;stroke:#a78d92;"/>
		<path vector-effect="non-scaling-stroke" d="M 248.835196 102.48396 Q 249.351799 102.078505 249.55844 101.599474 Q 249.988942 100.596012 250.402225 99.586288 Q 250.557205 99.212142 250.802983 98.910008 C 250.837423 98.86774 250.904738 98.880264 250.921958 98.931924 L 251.055023 99.321725" style="fill:none;stroke-width:0.50;stroke:#837f8b;"/>
		<path vector-effect="non-scaling-stroke" d="M 251.055023 99.321725 Q 251.233486 100.451989 251.659292 101.532159 C 251.905069 102.15991 252.393494 102.831493 253.083863 102.955165 Q 256.980301 103.651796 261.097469 103.863134 Q 261.733048 103.896008 262.024224 103.806777" style="fill:none;stroke-width:0.50;stroke:#a78d92;"/>
		<path vector-effect="non-scaling-stroke" d="M 262.024224 103.806777 C 262.481339 103.69876 262.728682 103.282347 262.836699 102.862803 Q 263.176405 101.557206 263.534896 100.257872 Q 263.591252 100.052796 263.683615 99.863375" style="fill:none;stroke-width:0.50;stroke:#837f8b;"/>
		<path vector-effect="non-scaling-stroke" d="M 266.041202 99.805453 Q 267.140158 100.92789 268.326779 101.840555 C 269.184653 102.499615 269.873456 102.995867 270.842478 102.998998 Q 271.523455 103.000563 275.304048 102.693732 C 275.722027 102.659292 276.171315 102.654596 276.554854 102.610763 Q 278.397404 102.399425 280.095931 102.260099" style="fill:none;stroke-width:0.50;stroke:#a78d92;"/>
		<path vector-effect="non-scaling-stroke" d="M 225.166957 106.721669 Q 226.024831 104.721007 225.240534 103.05692 C 224.212024 100.879361 221.83252 99.93069 219.597039 100.680547 C 217.712221 101.314559 216.586653 103.31209 216.699366 105.300229" style="fill:none;stroke-width:0.50;stroke:#ace2ee;"/>
		<path vector-effect="non-scaling-stroke" d="M 224.160364 98.510815 Q 222.803107 98.358965 221.567957 98.110056 Q 220.771136 97.948813 220.389163 97.760958 Q 219.875691 97.510484 219.783329 97.34611 Q 218.928586 95.846396 218.651499 94.122821" style="fill:none;stroke-width:0.50;stroke:#a78d92;"/>
		<path vector-effect="non-scaling-stroke" d="M 218.651499 94.122821 Q 218.623321 93.668837 218.612362 93.210156 C 218.606101 92.951855 218.504345 92.821921 218.263264 92.765565 C 217.987743 92.699815 217.630817 92.601191 217.549413 92.911153 Q 217.389736 93.515421 217.500883 94.379557 Q 217.632382 95.390846 217.630817 95.417459 Q 217.624555 95.556786 217.752923 96.450665 Q 217.831196 97.00797 217.745096 97.757827" style="fill:none;stroke-width:0.50;stroke:#cb433e;"/>
		<path vector-effect="non-scaling-stroke" d="M 217.745096 97.757827 C 217.493056 98.020825 216.888787 97.917504 216.561606 97.872106 Q 213.557482 97.466651 210.551792 97.078416 Q 210.240265 97.037714 209.809763 96.824811" style="fill:none;stroke-width:0.50;stroke:#a78d92;"/>
		<path vector-effect="non-scaling-stroke" d="M 235.597639 91.009115 L 234.955799 94.224576" style="fill:none;stroke-width:0.50;stroke:#b39099;"/>
		<path vector-effect="non-scaling-stroke" d="M 234.955799 94.224576 Q 234.756985 94.835107 234.542516 95.428418 Q 234.346833 95.965371 233.811445 96.33169" style="fill:none;stroke-width:0.50;stroke:#837f8b;"/>
		<path vector-effect="non-scaling-stroke" d="M 233.811445 96.33169 Q 232.416617 95.680457 231.323924 94.421825 Q 230.176439 93.097443 229.327958 91.984398 C 228.427817 90.804039 227.681091 89.864761 226.970371 89.069506 Q 226.790342 88.869127 226.557088 88.748586 C 226.51169 88.725104 226.461595 88.71258 226.4115 88.714146 Q 226.236168 88.715711 226.035789 88.576385" style="fill:none;stroke-width:0.50;stroke:#ba3b3a;"/>
		<path vector-effect="non-scaling-stroke" d="M 240.106173 93.527945 Q 239.739854 93.56082 238.907028 93.523249 Q 238.150909 93.488809 235.431699 93.684492 Q 235.34873 93.690753 235.301766 93.758068 C 235.206273 93.892698 235.237582 94.022632 235.160874 94.151 Q 235.071643 94.299719 234.955799 94.224576" style="fill:none;stroke-width:0.50;stroke:#8fd9ed;"/>
		<path vector-effect="non-scaling-stroke" d="M 249.633582 98.277561 Q 248.753792 98.88496 248.562805 99.976088 Q 248.32642 101.325518 248.835196 102.48396" style="fill:none;stroke-width:0.50;stroke:#cb433e;"/>
		<path vector-effect="non-scaling-stroke" d="M 262.615969 99.772578 Q 261.563977 100.777605 261.700173 101.934483 Q 261.769053 102.524662 262.033616 103.199377 Q 262.061795 103.272954 262.036747 103.346531 Q 261.944385 103.631445 262.024224 103.806777" style="fill:none;stroke-width:0.50;stroke:#cb433e;"/>
		<path vector-effect="non-scaling-stroke" d="M 251.04563 98.543689 L 251.055023 99.321725" style="fill:none;stroke-width:0.50;stroke:#cb433e;"/>
		<path vector-effect="non-scaling-stroke" d="M 218.651499 94.122821 Q 218.579488 93.930269 218.557571 93.723628 Q 218.551309 93.676664 218.50278 93.671968 C 218.462078 93.667271 218.422941 93.697015 218.416679 93.737717 Q 218.120807 95.544262 218.000266 96.896822 Q 217.954868 97.41186 217.745096 97.757827" style="fill:none;stroke-width:0.50;stroke:#837f8b;"/>
		<path vector-effect="non-scaling-stroke" d="M 206.941176 58.351626 C 207.179784 57.616218 206.755544 56.819398 205.992005 56.571679 C 205.229217 56.323146 204.416742 56.719208 204.177883 57.45377 C 203.939275 58.189178 204.363516 58.985999 205.127055 59.233718 C 205.889843 59.48225 206.702318 59.086188 206.941176 58.351626" style="fill:none;stroke-width:0.50;stroke:#ddc3ca;"/>
		<path vector-effect="non-scaling-stroke" d="M 273.36721 63.726112 C 273.436451 62.375227 272.274877 61.218349 270.77388 61.141642 C 269.273884 61.064934 268.001162 62.099705 267.932642 63.450809 C 267.863402 64.801695 269.024975 65.958572 270.525973 66.03528 C 272.025968 66.111987 273.29869 65.077216 273.36721 63.726112" style="fill:none;stroke-width:0.50;stroke:#ddc3ca;"/>
		<path vector-effect="non-scaling-stroke" d="M 213.119152 64.735945 L 214.045906 64.735945 C 214.149227 64.735945 214.205583 64.615404 214.138268 64.535566 C 213.847092 64.191164 213.391542 64.158289 213.070622 64.051838 Q 212.997046 64.02679 212.96104 63.95791 Q 212.568109 63.21588 212.203356 62.837038 C 211.257816 61.853927 209.662609 61.936897 208.829783 63.020197 C 207.417735 64.862748 209.255589 67.173371 211.35644 66.473609 Q 212.500794 66.091636 212.890594 64.901884 C 212.923469 64.80326 213.015831 64.735945 213.119152 64.735945" style="fill:none;stroke-width:0.50;stroke:#dcf3fc;"/>
		<path vector-effect="non-scaling-stroke" d="M 286.598036 71.61899 C 286.500242 67.874699 283.283215 64.922235 279.414329 65.023176 C 275.54513 65.12418 272.48778 68.242583 272.585668 71.985903 C 272.683463 75.730194 275.90049 78.682657 279.769376 78.581716 C 283.638575 78.480712 286.695924 75.36231 286.598036 71.61899" style="fill:none;stroke-width:0.50;stroke:#dcf3fc;"/>
		<path vector-effect="non-scaling-stroke" d="M 261.743207 72.780422 C 263.27816 73.562027 265.164543 72.934276 265.958045 71.377188 C 266.751923 69.82057 266.150785 67.924794 264.615864 67.1425 C 263.080911 66.360896 261.194528 66.988647 260.401026 68.545735 C 259.607148 70.102353 260.208286 71.998129 261.743207 72.780422" style="fill:none;stroke-width:0.50;stroke:#dcf3fc;"/>
		<path vector-effect="non-scaling-stroke" d="M 272.288966 77.254955 L 273.525682 77.254955 C 273.650919 77.254955 273.710407 77.101539 273.618044 77.017004 Q 273.185977 76.620942 272.497173 76.271844 C 271.86316 75.950924 271.603293 75.260555 271.180618 74.892671 Q 270.267953 74.097415 269.031237 74.21326 C 267.16677 74.387026 266.260367 76.361075 267.091628 77.942193 C 267.509607 78.734318 268.6023 79.229004 269.431996 79.207087 Q 271.298028 79.158558 271.950826 77.486643 C 272.005617 77.347317 272.140247 77.254955 272.288966 77.254955" style="fill:none;stroke-width:0.50;stroke:#dcf3fc;"/>
		<path vector-effect="non-scaling-stroke" d="M 287.403075 85.806877 C 289.607686 85.288912 290.964943 83.03308 290.433906 80.767416 C 289.901993 78.501063 287.683732 77.084319 285.478432 77.601126 C 283.273822 78.11909 281.916565 80.374923 282.447602 82.640587 C 282.979515 84.906939 285.197776 86.323683 287.403075 85.806877" style="fill:none;stroke-width:0.50;stroke:#dcf3fc;"/>
		<path vector-effect="non-scaling-stroke" d="M 263.21598 59.114241 C 267.292007 60.092781 271.402914 57.530118 272.397014 53.389436 C 273.391052 49.248817 270.892573 45.098774 266.815668 44.120485 C 262.73964 43.141945 258.628734 45.704608 257.634633 49.84529 C 256.640596 53.985909 259.139075 58.135952 263.21598 59.114241" style="fill:none;stroke-width:0.50;stroke:#81cfd9;"/>
		<path vector-effect="non-scaling-stroke" d="M 212.930654 55.609138 C 214.692442 55.513801 216.040306 53.953034 215.941698 52.123994 C 215.843058 50.294547 214.333951 48.888761 212.571882 48.984411 C 210.810094 49.079747 209.46223 50.640514 209.560838 52.469554 C 209.659478 54.299002 211.168585 55.704788 212.930654 55.609138" style="fill:none;stroke-width:0.50;stroke:#f4a7a0;"/>
		<path vector-effect="non-scaling-stroke" d="M 216.533427 62.799467 Q 217.468009 65.214977 219.770805 65.936655 Q 222.798411 66.885326 224.980667 64.543393 Q 225.930903 63.522711 226.148502 62.143538 Q 226.413066 60.448141 225.420562 59.374234" style="fill:none;stroke-width:0.50;stroke:#81cfd9;"/>
		<path vector-effect="non-scaling-stroke" d="M 225.420562 59.374234 Q 225.417431 59.212991 225.398646 59.054879 Q 225.37986 58.887374 225.289063 58.769965 C 223.825355 56.874189 221.522559 56.202605 219.302732 57.127794 C 217.289546 57.966882 216.115448 59.732725 216.217204 61.944724 Q 216.243816 62.548993 216.533427 62.799467" style="fill:none;stroke-width:0.50;stroke:#dcf3fc;"/>
		<path vector-effect="non-scaling-stroke" d="M 225.420562 59.374234 C 222.77806 58.082726 219.334041 58.937469 217.607335 61.332628 Q 217.604204 61.335759 217.217535 61.983861 Q 216.938882 62.451934 216.533427 62.799467" style="fill:none;stroke-width:0.50;stroke:#64c6d9;"/>
		<path vector-effect="non-scaling-stroke" d="M 274.267712 72.982806 C 274.810927 75.702015 277.141902 77.475685 279.922165 77.359841 C 282.611631 77.248693 284.642037 75.191674 285.094456 72.596136" style="fill:none;stroke-width:0.50;stroke:#81cfd9;"/>
		<path vector-effect="non-scaling-stroke" d="M 285.094456 72.596136 C 285.575053 70.989971 285.174294 69.274223 284.008024 68.086037 C 282.81201 66.866541 280.981984 66.090071 279.263105 66.218439 C 276.254285 66.4423 273.84034 68.75762 273.893566 71.850976 Q 273.898262 72.145283 274.021934 72.431762 Q 274.139344 72.707284 274.267712 72.982806" style="fill:none;stroke-width:0.50;stroke:#dcf3fc;"/>
		<path vector-effect="non-scaling-stroke" d="M 285.094456 72.596136 C 285.254133 71.077637 285.017748 69.38224 283.599438 68.68874 C 280.9178 67.378447 277.55675 67.758855 275.391714 69.900408 Q 274.131516 71.144952 274.267712 72.982806" style="fill:none;stroke-width:0.50;stroke:#64c6d9;"/>
		<path vector-effect="non-scaling-stroke" d="M 265.514581 70.327545 C 265.584087 69.073844 264.564971 67.998371 263.237536 67.923635 C 261.909945 67.849652 260.776549 68.804584 260.70673 70.058755 C 260.637223 71.312456 261.65634 72.38793 262.983774 72.462665 C 264.311365 72.536649 265.444761 71.581716 265.514581 70.327545" style="fill:none;stroke-width:0.50;stroke:#81cfd9;"/>
		<path vector-effect="non-scaling-stroke" d="M 289.019072 79.116291 C 288.095449 77.738683 286.794549 78.501063 285.606362 78.96131 Q 284.73753 79.297884 284.396259 79.564013 Q 282.996735 80.650445 283.361488 82.665196 C 283.57126 83.820508 284.635775 84.903808 285.808307 85.127669 C 286.736626 85.304567 287.891938 84.925725 288.541606 84.296408 Q 290.933633 81.974826 289.019072 79.116291" style="fill:none;stroke-width:0.50;stroke:#81cfd9;"/>
		<path vector-effect="non-scaling-stroke" d="M 223.305621 102.659292 C 222.05012 101.633914 220.613024 101.203411 219.227589 102.300801 Q 218.269526 103.060051 218.102021 104.113608 C 217.87816 105.528786 218.452685 107.266451 219.726972 108.021004 C 221.312786 108.960282 223.113069 108.31218 223.988163 106.823425 C 224.537641 105.887278 224.514159 104.566027 224.254292 103.553172 C 224.127489 103.055355 223.646892 102.937945 223.305621 102.659292" style="fill:none;stroke-width:0.50;stroke:#81cfd9;"/>
		<path d="M 302.431961 123.437686 Q 301.062181 125.211356 298.764081 127.775585 Q 297.519537 129.162585 296.606872 130.042375 Q 291.221679 135.231886 285.546874 138.957689 Q 278.049871 143.879505 269.666815 146.90398 Q 266.427872 148.071816 261.684518 149.213038 C 260.382053 149.526131 258.362605 149.875229 257.29809 150.06465 C 249.384673 151.478264 241.165991 151.456347 233.238485 150.178929 Q 231.167378 149.845485 228.18517 149.173902 C 217.134565 146.687946 206.899566 141.66594 198.045306 134.55091 Q 195.883401 132.813245 193.890567 130.875202 Q 185.017521 122.246368 179.261313 111.305346 Q 175.897132 104.908863 173.921518 98.130407 Q 173.528586 96.779412 173.024507 94.880505 Q 172.655058 93.490374 171.981909 89.676906 C 171.094291 84.645507 170.890781 79.394943 171.048893 74.169427 Q 171.219528 68.579157 171.986605 64.023659 Q 172.554868 60.656348 174.010749 55.47623 Q 174.43499 53.963993 174.971943 52.495588 Q 179.128248 41.133456 186.393563 31.585695 Q 187.688201 29.885602 189.521359 27.74718 C 192.069933 24.77593 194.906552 21.973751 197.979557 19.483099 Q 205.066409 13.739414 213.648278 9.882113 Q 217.918862 7.96129 221.796515 6.760579 Q 225.747744 5.534822 229.493897 4.689471 Q 231.034313 4.341939 232.570033 4.108685 Q 237.361916 3.380744 241.021969 3.203847 Q 243.528275 3.084872 247.761288 3.160014 Q 249.198383 3.185061 250.889084 3.340042 Q 255.981536 3.80655 259.234568 4.406123 Q 260.673229 4.670686 264.064022 5.517601 Q 265.820472 5.955931 267.077539 6.347297 Q 273.056043 8.208633 278.143799 10.708678 Q 294.898952 18.941449 305.462698 34.365958 Q 308.15686 38.299967 310.121516 42.07743 Q 310.755529 43.298491 311.514779 44.86552 C 314.237119 50.488664 316.150115 56.412377 317.3837 62.553689 Q 318.319847 67.207812 318.521792 72.2533 Q 318.719041 77.215818 318.46387 81.329856 Q 318.186783 85.78986 317.2976 90.556696 C 317.064346 91.807501 316.658891 93.71267 316.291007 95.124718 Q 312.209844 110.771523 302.431961 123.437686 Z M 262.440637 39.962489 C 262.338882 39.932745 262.257478 39.857603 262.221472 39.757414 C 261.576501 38.018184 260.310041 36.793992 258.359474 37.188488 C 256.568584 37.551676 255.461802 39.452148 256.044154 41.175723 C 256.764267 43.30945 259.915545 43.66481 261.340116 42.07743 C 261.55615 41.837914 261.830106 41.125628 262.28096 41.053617 Q 263.24372 40.900202 263.865208 40.778096 C 263.93722 40.764006 263.962267 40.674775 263.909041 40.62468 C 263.508283 40.2521 263.030817 40.140952 262.440637 39.962489 Z M 256.347854 54.976847 C 257.512559 58.256493 260.601218 60.398046 263.992011 60.692354 C 267.199645 60.969441 270.277346 59.702981 272.257657 57.162234 C 274.54793 54.220729 274.893897 50.194357 273.073263 46.927235 Q 271.235409 43.63037 267.598838 42.459403 C 265.560605 41.803474 263.06056 41.931842 261.171046 43.004184 C 260.560516 43.350152 259.755867 43.855796 259.222044 44.300388 C 256.020672 46.967937 254.959288 51.060058 256.347854 54.976847 Z M 212.520863 56.446786 C 214.697139 56.50787 216.514642 54.720111 216.577291 52.455403 C 216.639879 50.189661 214.927262 48.304843 212.749984 48.243821 C 210.573709 48.182737 208.756206 49.970496 208.693556 52.235205 C 208.630969 54.500946 210.343586 56.385764 212.520863 56.446786 Z M 241.109635 52.310863 Q 238.60959 51.856879 236.14242 51.582923 Q 234.766378 51.429508 233.535924 51.48743 C 231.973591 51.559441 230.66956 51.932021 229.750633 53.26423 C 229.099401 54.205074 228.50609 55.429266 227.74684 56.284009 Q 226.915579 57.223287 225.840106 57.92618 Q 225.669471 57.899567 225.528579 57.752414 Q 223.552964 55.690699 220.857237 55.851941 C 217.140827 56.074237 214.510849 59.632535 215.706863 63.276933 C 215.907242 63.890595 216.317393 64.591923 216.641444 65.22437 Q 215.553447 67.621094 214.985184 69.92389 Q 213.911276 74.275878 213.753164 78.972268 Q 213.670195 78.991053 213.487036 78.872078 Q 213.422852 78.828245 213.346144 78.834507 C 210.161992 79.067761 208.6341 84.925725 208.19577 87.408549 Q 207.989129 88.581081 208.39928 89.449913 C 208.471291 89.601763 208.479119 89.70978 208.507297 89.860065 Q 208.285001 90.36884 208.278739 90.614618 Q 208.219252 93.086485 208.886139 95.370495 Q 209.119393 96.172013 209.809763 96.824811 Q 209.39648 96.8389 209.042686 96.874906 Q 206.783722 97.105029 204.875422 97.886195 C 204.485622 98.045872 203.911097 98.382447 203.688801 98.668926 C 202.826231 99.792929 203.569826 101.054692 204.601466 101.702794 C 206.193542 102.70156 208.101842 103.291739 209.902125 103.791122 Q 213.242823 104.721007 216.699366 105.300229 Q 216.801121 105.535048 216.877829 105.82779 C 217.2191 107.119297 218.045665 108.107104 219.236982 108.661278 C 219.899173 108.969675 220.74922 109.07143 221.491249 109.052644 C 222.796846 109.018204 223.920848 108.428024 224.664443 107.347855 Q 224.932137 106.95962 225.166957 106.721669 Q 236.48056 108.179116 248.407824 108.144676 Q 256.836278 108.121194 263.966964 107.496574 Q 265.152019 107.393253 267.083801 107.205398 Q 272.580142 106.670009 278.078049 105.381633 Q 279.527668 105.043493 280.919365 104.547241 C 281.584687 104.310856 282.350198 103.819301 281.711489 103.088229 Q 281.152619 102.447955 280.095931 102.260099 Q 280.636016 102.1286 281.016424 102.051893 Q 281.515807 101.951703 281.785066 101.577557 C 282.340806 100.805784 282.549012 99.529931 282.699297 98.534297 Q 282.606934 96.416225 281.960398 94.259017 C 281.716186 93.446541 281.354564 92.71547 280.81761 92.129987 Q 280.398066 91.671306 279.940951 91.785585 Q 279.823541 91.340993 279.565239 90.836914 C 278.079615 87.937676 275.689152 85.814908 272.886973 84.321456 Q 269.674643 82.61197 266.175832 81.999874 Q 264.430341 81.390909 262.795997 80.899353 C 261.966302 80.648879 261.224272 80.346745 260.555819 79.947552 Q 259.377025 79.244659 258.240499 78.331993 L 256.794011 76.97004 L 255.334999 75.315346 L 252.730068 71.725739 L 251.473001 69.653065 L 250.471105 67.469244 Q 249.937282 65.95231 249.699332 64.454162 Q 249.309531 61.099374 249.461381 57.660051 Q 249.49269 56.493781 249.833961 55.05199 Q 250.003031 54.598005 250.178363 53.97182 Q 250.18306 53.953034 250.367784 53.370682 C 250.917262 51.629887 249.768212 50.947345 248.27476 50.551283 Q 246.097201 49.975192 243.918076 50.042507 Q 243.141606 50.065989 242.56395 50.302374 Q 241.252092 50.839328 241.109635 52.310863 Z M 206.941176 58.351626 C 207.179784 57.616218 206.755544 56.819398 205.992005 56.571679 C 205.229217 56.323146 204.416742 56.719208 204.177883 57.45377 C 203.939275 58.189178 204.363516 58.985999 205.127055 59.233718 C 205.889843 59.48225 206.702318 59.086188 206.941176 58.351626 Z M 273.36721 63.726112 C 273.436451 62.375227 272.274877 61.218349 270.77388 61.141642 C 269.273884 61.064934 268.001162 62.099705 267.932642 63.450809 C 267.863402 64.801695 269.024975 65.958572 270.525973 66.03528 C 272.025968 66.111987 273.29869 65.077216 273.36721 63.726112 Z M 213.119152 64.735945 L 214.045906 64.735945 C 214.149227 64.735945 214.205583 64.615404 214.138268 64.535566 C 213.847092 64.191164 213.391542 64.158289 213.070622 64.051838 Q 212.997046 64.02679 212.96104 63.95791 Q 212.568109 63.21588 212.203356 62.837038 C 211.257816 61.853927 209.662609 61.936897 208.829783 63.020197 C 207.417735 64.862748 209.255589 67.173371 211.35644 66.473609 Q 212.500794 66.091636 212.890594 64.901884 C 212.923469 64.80326 213.015831 64.735945 213.119152 64.735945 Z M 286.598036 71.61899 C 286.500242 67.874699 283.283215 64.922235 279.414329 65.023176 C 275.54513 65.12418 272.48778 68.242583 272.585668 71.985903 C 272.683463 75.730194 275.90049 78.682657 279.769376 78.581716 C 283.638575 78.480712 286.695924 75.36231 286.598036 71.61899 Z M 261.743207 72.780422 C 263.27816 73.562027 265.164543 72.934276 265.958045 71.377188 C 266.751923 69.82057 266.150785 67.924794 264.615864 67.1425 C 263.080911 66.360896 261.194528 66.988647 260.401026 68.545735 C 259.607148 70.102353 260.208286 71.998129 261.743207 72.780422 Z M 272.288966 77.254955 L 273.525682 77.254955 C 273.650919 77.254955 273.710407 77.101539 273.618044 77.017004 Q 273.185977 76.620942 272.497173 76.271844 C 271.86316 75.950924 271.603293 75.260555 271.180618 74.892671 Q 270.267953 74.097415 269.031237 74.21326 C 267.16677 74.387026 266.260367 76.361075 267.091628 77.942193 C 267.509607 78.734318 268.6023 79.229004 269.431996 79.207087 Q 271.298028 79.158558 271.950826 77.486643 C 272.005617 77.347317 272.140247 77.254955 272.288966 77.254955 Z M 287.403075 85.806877 C 289.607686 85.288912 290.964943 83.03308 290.433906 80.767416 C 289.901993 78.501063 287.683732 77.084319 285.478432 77.601126 C 283.273822 78.11909 281.916565 80.374923 282.447602 82.640587 C 282.979515 84.906939 285.197776 86.323683 287.403075 85.806877 Z" style="fill:#bfeafb;"/>
		<path d="M 262.440637 39.962489 C 263.030817 40.140952 263.508283 40.2521 263.909041 40.62468 C 263.962267 40.674775 263.93722 40.764006 263.865208 40.778096 Q 263.24372 40.900202 262.28096 41.053617 C 261.830106 41.125628 261.55615 41.837914 261.340116 42.07743 C 259.915545 43.66481 256.764267 43.30945 256.044154 41.175723 C 255.461802 39.452148 256.568584 37.551676 258.359474 37.188488 C 260.310041 36.793992 261.576501 38.018184 262.221472 39.757414 C 262.257478 39.857603 262.338882 39.932745 262.440637 39.962489 Z" style="fill:#f9fcfc;"/>
		<path d="M 263.992011 60.692354 C 260.601218 60.398046 257.512559 58.256493 256.347854 54.976847 C 254.959288 51.060058 256.020672 46.967937 259.222044 44.300388 C 259.755867 43.855796 260.560516 43.350152 261.171046 43.004184 C 263.06056 41.931842 265.560605 41.803474 267.598838 42.459403 Q 271.235409 43.63037 273.073263 46.927235 C 274.893897 50.194357 274.54793 54.220729 272.257657 57.162234 C 270.277346 59.702981 267.199645 60.969441 263.992011 60.692354 Z M 263.21598 59.114241 C 267.292007 60.092781 271.402914 57.530118 272.397014 53.389436 C 273.391052 49.248817 270.892573 45.098774 266.815668 44.120485 C 262.73964 43.141945 258.628734 45.704608 257.634633 49.84529 C 256.640596 53.985909 259.139075 58.135952 263.21598 59.114241 Z" style="fill:#f9fcfc;"/>
		<path d="M 212.520863 56.446786 C 210.343586 56.385764 208.630969 54.500946 208.693556 52.235205 C 208.756206 49.970496 210.573709 48.182737 212.749984 48.243821 C 214.927262 48.304843 216.639879 50.189661 216.577291 52.455403 C 216.514642 54.720111 214.697139 56.50787 212.520863 56.446786 Z M 212.930654 55.609138 C 214.692442 55.513801 216.040306 53.953034 215.941698 52.123994 C 215.843058 50.294547 214.333951 48.888761 212.571882 48.984411 C 210.810094 49.079747 209.46223 50.640514 209.560838 52.469554 C 209.659478 54.299002 211.168585 55.704788 212.930654 55.609138 Z" style="fill:#f9fcfc;"/>
		<path d="M 249.833961 55.05199 L 240.870119 54.131497 L 241.109635 52.310863 Q 241.252092 50.839328 242.56395 50.302374 Q 243.141606 50.065989 243.918076 50.042507 Q 246.097201 49.975192 248.27476 50.551283 C 249.768212 50.947345 250.917262 51.629887 250.367784 53.370682 Q 250.18306 53.953034 250.178363 53.97182 Q 250.003031 54.598005 249.833961 55.05199 Z" style="fill:#fb9b98;"/>
		<path d="M 241.109635 52.310863 L 240.870119 54.131497 Q 239.235775 53.738566 237.573253 53.788661 C 237.072305 53.804315 236.32871 53.78553 235.740096 53.926421 C 234.040003 54.336573 233.380943 56.521959 235.204707 57.35009 Q 236.084498 57.747717 236.871926 57.694491 Q 239.428327 57.517594 241.078325 57.58804 Q 241.07676 60.955351 241.720165 64.375889 Q 240.647823 64.371192 239.257692 64.488602 Q 237.56073 64.632625 236.26296 65.518677 Q 235.644602 65.941352 235.555371 66.810184 C 235.425438 68.076644 236.71851 68.687174 237.762674 68.660562 Q 238.086725 68.651169 239.08236 68.334945 Q 240.904559 67.754158 242.853561 67.899746 L 244.376756 70.786461 Q 243.285629 70.856906 241.986294 71.257665 Q 240.521021 71.710084 239.559826 72.495946 C 239.018176 72.938973 238.777094 73.846941 239.124627 74.526352 C 239.508166 75.277775 239.902663 75.479719 240.769929 75.351351 Q 240.851333 75.338828 240.901428 75.403012 Q 240.992225 75.517291 241.051713 75.676968 C 241.098676 75.805336 241.225479 75.885174 241.360109 75.871085 Q 241.792177 75.828818 242.069264 75.692622 Q 242.233637 75.612784 242.476284 75.212025 Q 242.817555 74.648458 243.564281 74.391722 Q 244.81039 73.962786 245.696442 73.729532 C 245.895256 73.684133 246.034582 73.67474 246.18017 73.842245 Q 247.538992 75.421797 249.05123 76.852631 Q 249.10289 76.902726 249.043402 77.01857 Q 247.761288 77.516387 246.709297 78.438445 Q 246.335151 78.765627 246.070588 79.208653 C 245.461623 80.232466 245.909345 81.472313 247.214941 81.483271 C 247.360529 81.484836 247.493594 81.56311 247.565605 81.688347 L 247.698669 81.916904 Q 247.744068 81.996743 247.834865 82.001439 Q 248.594114 82.035879 248.93382 81.48014 C 249.459816 80.622266 250.068781 80.238728 251.042499 79.656375 Q 251.800183 79.202391 252.61579 78.854858 Q 252.932013 79.405901 253.263891 79.834838 Q 253.349992 79.947552 253.301462 80.091574 Q 252.708152 80.407798 251.903504 81.049638 C 251.125469 81.667996 250.543116 82.928194 251.692166 83.551248 Q 251.886284 83.656134 252.355923 83.588819 Q 252.546909 83.562206 252.543778 83.754758 C 252.540647 83.997405 252.593873 84.407556 252.750419 84.546883 C 252.97115 84.745696 253.411045 84.679947 253.642733 84.557841 Q 253.803976 84.47174 254.007486 84.196219 C 255.156536 82.635452 256.722 81.696174 258.476884 80.891526 C 258.832244 80.728718 259.15786 80.614439 259.542964 80.806991 Q 260.214548 81.142 260.540165 81.336117 C 260.59339 81.367427 260.585563 81.4457 260.527641 81.466051 Q 260.029823 81.641383 259.594625 81.888726 Q 258.310945 82.619797 257.429589 83.28825 C 256.512228 83.983316 255.871953 84.949207 256.261753 86.131131 C 256.648423 87.300532 257.748944 87.965854 258.949654 87.585447 C 260.339785 87.145552 259.542964 85.927621 260.331958 85.133931 Q 260.842299 84.622025 261.465353 84.227528 Q 263.606907 82.873402 266.175832 81.999874 Q 269.674643 82.61197 272.886973 84.321456 C 275.689152 85.814908 278.079615 87.937676 279.565239 90.836914 Q 279.823541 91.340993 279.940951 91.785585 Q 278.627527 92.158165 277.293752 92.34602 Q 272.514393 93.01917 267.753819 92.990991 C 261.383949 92.951855 254.993728 92.258354 248.73031 90.944931 Q 242.972536 89.736393 237.712579 87.416377 Q 234.032175 85.792991 232.916 85.357793 C 230.234362 84.307367 226.812259 83.278857 223.654719 82.514911 Q 219.031907 81.39717 218.648368 81.301677 Q 216.466112 80.750634 215.351502 80.26221 C 214.676788 79.966337 214.000508 79.646983 213.753164 78.972268 Q 213.911276 74.275878 214.985184 69.92389 Q 215.553447 67.621094 216.641444 65.22437 C 218.804914 67.597612 222.394522 67.984281 224.919614 66.046238 C 227.54333 64.033052 227.742144 60.47632 225.840106 57.92618 Q 226.915579 57.223287 227.74684 56.284009 C 228.50609 55.429266 229.099401 54.205074 229.750633 53.26423 C 230.66956 51.932021 231.973591 51.559441 233.535924 51.48743 Q 234.766378 51.429508 236.14242 51.582923 Q 238.60959 51.856879 241.109635 52.310863 Z" style="fill:#1a344e;"/>
		<path d="M 240.870119 54.131497 L 249.833961 55.05199 Q 249.49269 56.493781 249.461381 57.660051 Q 245.245589 57.849472 241.078325 57.58804 Q 239.428327 57.517594 236.871926 57.694491 Q 236.084498 57.747717 235.204707 57.35009 C 233.380943 56.521959 234.040003 54.336573 235.740096 53.926421 C 236.32871 53.78553 237.072305 53.804315 237.573253 53.788661 Q 239.235775 53.738566 240.870119 54.131497 Z" style="fill:#f98842;"/>
		<path d="M 225.840106 57.92618 C 227.742144 60.47632 227.54333 64.033052 224.919614 66.046238 C 222.394522 67.984281 218.804914 67.597612 216.641444 65.22437 C 216.317393 64.591923 215.907242 63.890595 215.706863 63.276933 C 214.510849 59.632535 217.140827 56.074237 220.857237 55.851941 Q 223.552964 55.690699 225.528579 57.752414 Q 225.669471 57.899567 225.840106 57.92618 Z M 216.533427 62.799467 Q 217.468009 65.214977 219.770805 65.936655 Q 222.798411 66.885326 224.980667 64.543393 Q 225.930903 63.522711 226.148502 62.143538 Q 226.413066 60.448141 225.420562 59.374234 Q 225.417431 59.212991 225.398646 59.054879 Q 225.37986 58.887374 225.289063 58.769965 C 223.825355 56.874189 221.522559 56.202605 219.302732 57.127794 C 217.289546 57.966882 216.115448 59.732725 216.217204 61.944724 Q 216.243816 62.548993 216.533427 62.799467 Z" style="fill:#f9fcfc;"/>
		<path d="M 206.941176 58.351626 C 206.702318 59.086188 205.889843 59.48225 205.127055 59.233718 C 204.363516 58.985999 203.939275 58.189178 204.177883 57.45377 C 204.416742 56.719208 205.229217 56.323146 205.992005 56.571679 C 206.755544 56.819398 207.179784 57.616218 206.941176 58.351626 Z" style="fill:#fb9b98;"/>
		<path d="M 249.461381 57.660051 Q 249.309531 61.099374 249.699332 64.454162 Q 245.698007 64.527739 241.720165 64.375889 Q 241.07676 60.955351 241.078325 57.58804 Q 245.245589 57.849472 249.461381 57.660051 Z" style="fill:#fb9b98;"/>
		<path d="M 273.36721 63.726112 C 273.29869 65.077216 272.025968 66.111987 270.525973 66.03528 C 269.024975 65.958572 267.863402 64.801695 267.932642 63.450809 C 268.001162 62.099705 269.273884 61.064934 270.77388 61.141642 C 272.274877 61.218349 273.436451 62.375227 273.36721 63.726112 Z" style="fill:#fb9b98;"/>
		<path d="M 213.119152 64.735945 C 213.015831 64.735945 212.923469 64.80326 212.890594 64.901884 Q 212.500794 66.091636 211.35644 66.473609 C 209.255589 67.173371 207.417735 64.862748 208.829783 63.020197 C 209.662609 61.936897 211.257816 61.853927 212.203356 62.837038 Q 212.568109 63.21588 212.96104 63.95791 Q 212.997046 64.02679 213.070622 64.051838 C 213.391542 64.158289 213.847092 64.191164 214.138268 64.535566 C 214.205583 64.615404 214.149227 64.735945 214.045906 64.735945 L 213.119152 64.735945 Z" style="fill:#f9fcfc;"/>
		<path d="M 241.720165 64.375889 Q 245.698007 64.527739 249.699332 64.454162 Q 249.937282 65.95231 250.471105 67.469244 Q 250.355261 67.597612 249.993639 67.639879 Q 247.100663 67.987412 244.503559 68.018722 Q 244.091842 68.023418 242.853561 67.899746 Q 240.904559 67.754158 239.08236 68.334945 Q 238.086725 68.651169 237.762674 68.660562 C 236.71851 68.687174 235.425438 68.076644 235.555371 66.810184 Q 235.644602 65.941352 236.26296 65.518677 Q 237.56073 64.632625 239.257692 64.488602 Q 240.647823 64.371192 241.720165 64.375889 Z" style="fill:#f98842;"/>
		<path d="M 286.598036 71.61899 C 286.695924 75.36231 283.638575 78.480712 279.769376 78.581716 C 275.90049 78.682657 272.683463 75.730194 272.585668 71.985903 C 272.48778 68.242583 275.54513 65.12418 279.414329 65.023176 C 283.283215 64.922235 286.500242 67.874699 286.598036 71.61899 Z M 274.267712 72.982806 C 274.810927 75.702015 277.141902 77.475685 279.922165 77.359841 C 282.611631 77.248693 284.642037 75.191674 285.094456 72.596136 C 285.575053 70.989971 285.174294 69.274223 284.008024 68.086037 C 282.81201 66.866541 280.981984 66.090071 279.263105 66.218439 C 276.254285 66.4423 273.84034 68.75762 273.893566 71.850976 Q 273.898262 72.145283 274.021934 72.431762 Q 274.139344 72.707284 274.267712 72.982806 Z" style="fill:#f9fcfc;"/>
		<path d="M 261.743207 72.780422 C 260.208286 71.998129 259.607148 70.102353 260.401026 68.545735 C 261.194528 66.988647 263.080911 66.360896 264.615864 67.1425 C 266.150785 67.924794 266.751923 69.82057 265.958045 71.377188 C 265.164543 72.934276 263.27816 73.562027 261.743207 72.780422 Z M 265.514581 70.327545 C 265.584087 69.073844 264.564971 67.998371 263.237536 67.923635 C 261.909945 67.849652 260.776549 68.804584 260.70673 70.058755 C 260.637223 71.312456 261.65634 72.38793 262.983774 72.462665 C 264.311365 72.536649 265.444761 71.581716 265.514581 70.327545 Z" style="fill:#f9fcfc;"/>
		<path d="M 251.473001 69.653065 Q 249.59288 69.829963 247.817645 70.188454 Q 246.095635 70.534421 244.376756 70.786461 L 242.853561 67.899746 Q 244.091842 68.023418 244.503559 68.018722 Q 247.100663 67.987412 249.993639 67.639879 Q 250.355261 67.597612 250.471105 67.469244 L 251.473001 69.653065 Z" style="fill:#fb9b98;"/>
		<path d="M 251.473001 69.653065 L 252.730068 71.725739 Q 252.744158 71.793053 252.734765 71.833756 Q 252.726937 71.872892 252.665884 71.899505 C 250.867167 72.696326 248.886856 73.084561 246.966033 73.469665 Q 246.782873 73.507236 246.328889 73.494712 Q 245.896821 73.483754 245.696442 73.729532 Q 244.81039 73.962786 243.564281 74.391722 Q 242.817555 74.648458 242.476284 75.212025 Q 242.233637 75.612784 242.069264 75.692622 Q 241.792177 75.828818 241.360109 75.871085 C 241.225479 75.885174 241.098676 75.805336 241.051713 75.676968 Q 240.992225 75.517291 240.901428 75.403012 Q 240.851333 75.338828 240.769929 75.351351 C 239.902663 75.479719 239.508166 75.277775 239.124627 74.526352 C 238.777094 73.846941 239.018176 72.938973 239.559826 72.495946 Q 240.521021 71.710084 241.986294 71.257665 Q 243.285629 70.856906 244.376756 70.786461 Q 246.095635 70.534421 247.817645 70.188454 Q 249.59288 69.829963 251.473001 69.653065 Z" style="fill:#f98842;"/>
		<path d="M 255.334999 75.315346 Q 254.574184 75.201067 254.110807 75.307518 Q 251.743827 75.856996 249.043402 77.01857 Q 249.10289 76.902726 249.05123 76.852631 Q 247.538992 75.421797 246.18017 73.842245 C 246.034582 73.67474 245.895256 73.684133 245.696442 73.729532 Q 245.896821 73.483754 246.328889 73.494712 Q 246.782873 73.507236 246.966033 73.469665 C 248.886856 73.084561 250.867167 72.696326 252.665884 71.899505 Q 252.726937 71.872892 252.734765 71.833756 Q 252.744158 71.793053 252.730068 71.725739 L 255.334999 75.315346 Z" style="fill:#fb9b98;"/>
		<path d="M 272.288966 77.254955 C 272.140247 77.254955 272.005617 77.347317 271.950826 77.486643 Q 271.298028 79.158558 269.431996 79.207087 C 268.6023 79.229004 267.509607 78.734318 267.091628 77.942193 C 266.260367 76.361075 267.16677 74.387026 269.031237 74.21326 Q 270.267953 74.097415 271.180618 74.892671 C 271.603293 75.260555 271.86316 75.950924 272.497173 76.271844 Q 273.185977 76.620942 273.618044 77.017004 C 273.710407 77.101539 273.650919 77.254955 273.525682 77.254955 L 272.288966 77.254955 Z" style="fill:#f9fcfc;"/>
		<path d="M 255.334999 75.315346 L 256.794011 76.97004 C 256.872284 77.259651 256.485615 77.378626 256.286801 77.452203 Q 254.447382 78.120656 252.61579 78.854858 Q 251.800183 79.202391 251.042499 79.656375 C 250.068781 80.238728 249.459816 80.622266 248.93382 81.48014 Q 248.594114 82.035879 247.834865 82.001439 Q 247.744068 81.996743 247.698669 81.916904 L 247.565605 81.688347 C 247.493594 81.56311 247.360529 81.484836 247.214941 81.483271 C 245.909345 81.472313 245.461623 80.232466 246.070588 79.208653 Q 246.335151 78.765627 246.709297 78.438445 Q 247.761288 77.516387 249.043402 77.01857 Q 251.743827 75.856996 254.110807 75.307518 Q 254.574184 75.201067 255.334999 75.315346 Z" style="fill:#f98842;"/>
		<path d="M 258.240499 78.331993 Q 255.917352 78.859555 253.883815 79.800398 Q 253.780494 79.847362 253.616121 79.977295 Q 253.436092 80.119752 253.301462 80.091574 Q 253.349992 79.947552 253.263891 79.834838 Q 252.932013 79.405901 252.61579 78.854858 Q 254.447382 78.120656 256.286801 77.452203 C 256.485615 77.378626 256.872284 77.259651 256.794011 76.97004 L 258.240499 78.331993 Z" style="fill:#fb9b98;"/>
		<path d="M 287.403075 85.806877 C 285.197776 86.323683 282.979515 84.906939 282.447602 82.640587 C 281.916565 80.374923 283.273822 78.11909 285.478432 77.601126 C 287.683732 77.084319 289.901993 78.501063 290.433906 80.767416 C 290.964943 83.03308 289.607686 85.288912 287.403075 85.806877 Z M 289.019072 79.116291 C 288.095449 77.738683 286.794549 78.501063 285.606362 78.96131 Q 284.73753 79.297884 284.396259 79.564013 Q 282.996735 80.650445 283.361488 82.665196 C 283.57126 83.820508 284.635775 84.903808 285.808307 85.127669 C 286.736626 85.304567 287.891938 84.925725 288.541606 84.296408 Q 290.933633 81.974826 289.019072 79.116291 Z" style="fill:#f9fcfc;"/>
		<path d="M 258.240499 78.331993 Q 259.377025 79.244659 260.555819 79.947552 C 261.224272 80.346745 261.966302 80.648879 262.795997 80.899353 Q 264.430341 81.390909 266.175832 81.999874 Q 263.606907 82.873402 261.465353 84.227528 Q 260.842299 84.622025 260.331958 85.133931 C 259.542964 85.927621 260.339785 87.145552 258.949654 87.585447 C 257.748944 87.965854 256.648423 87.300532 256.261753 86.131131 C 255.871953 84.949207 256.512228 83.983316 257.429589 83.28825 Q 258.310945 82.619797 259.594625 81.888726 Q 260.029823 81.641383 260.527641 81.466051 C 260.585563 81.4457 260.59339 81.367427 260.540165 81.336117 Q 260.214548 81.142 259.542964 80.806991 C 259.15786 80.614439 258.832244 80.728718 258.476884 80.891526 C 256.722 81.696174 255.156536 82.635452 254.007486 84.196219 Q 253.803976 84.47174 253.642733 84.557841 C 253.411045 84.679947 252.97115 84.745696 252.750419 84.546883 C 252.593873 84.407556 252.540647 83.997405 252.543778 83.754758 Q 252.546909 83.562206 252.355923 83.588819 Q 251.886284 83.656134 251.692166 83.551248 C 250.543116 82.928194 251.125469 81.667996 251.903504 81.049638 Q 252.708152 80.407798 253.301462 80.091574 Q 253.436092 80.119752 253.616121 79.977295 Q 253.780494 79.847362 253.883815 79.800398 Q 255.917352 78.859555 258.240499 78.331993 Z" style="fill:#f98842;"/>
		<path d="M 213.753164 78.972268 C 214.000508 79.646983 214.676788 79.966337 215.351502 80.26221 Q 216.466112 80.750634 218.648368 81.301677 Q 219.031907 81.39717 223.654719 82.514911 C 226.812259 83.278857 230.234362 84.307367 232.916 85.357793 Q 234.032175 85.792991 237.712579 87.416377 Q 242.972536 89.736393 248.73031 90.944931 C 254.993728 92.258354 261.383949 92.951855 267.753819 92.990991 Q 272.514393 93.01917 277.293752 92.34602 Q 278.627527 92.158165 279.940951 91.785585 Q 280.398066 91.671306 280.81761 92.129987 C 281.354564 92.71547 281.716186 93.446541 281.960398 94.259017 Q 282.606934 96.416225 282.699297 98.534297 Q 281.755322 98.424714 280.704897 98.540559 Q 277.021362 98.949144 273.337827 99.351468 Q 270.507469 99.659865 266.041202 99.805453 L 263.683615 99.863375 Q 263.663264 99.783536 263.523937 99.783536 Q 262.990114 99.780405 262.615969 99.772578 Q 259.47878 99.564371 258.523848 99.461051 Q 254.780825 99.05403 251.04563 98.543689 L 249.633582 98.277561 Q 247.781639 97.825142 245.95944 97.281926 Q 244.199859 96.759061 242.531075 95.777516 Q 242.551426 95.735248 242.471588 95.700808 Q 242.418362 95.678892 242.396445 95.656975 Q 241.604321 94.849196 240.793411 94.061768 C 240.578943 93.853562 240.342558 93.701712 240.106173 93.527945 Q 237.963054 92.131552 235.597639 91.009115 Q 233.814576 90.112104 231.859312 89.487485 C 230.459788 89.041328 229.285691 88.701622 227.909649 88.451148 Q 226.970371 88.280512 226.035789 88.576385 Q 223.99286 89.684733 223.189777 92.040755 C 218.26796 91.639997 213.361799 90.971544 208.613749 89.795881 Q 208.55113 89.780226 208.507297 89.860065 C 208.479119 89.70978 208.471291 89.601763 208.39928 89.449913 Q 207.989129 88.581081 208.19577 87.408549 C 208.6341 84.925725 210.161992 79.067761 213.346144 78.834507 Q 213.422852 78.828245 213.487036 78.872078 Q 213.670195 78.991053 213.753164 78.972268 Z" style="fill:#fb9b98;"/>
		<path d="M 235.597639 91.009115 L 234.955799 94.224576 Q 234.756985 94.835107 234.542516 95.428418 Q 234.346833 95.965371 233.811445 96.33169 Q 232.416617 95.680457 231.323924 94.421825 Q 230.176439 93.097443 229.327958 91.984398 C 228.427817 90.804039 227.681091 89.864761 226.970371 89.069506 Q 226.790342 88.869127 226.557088 88.748586 C 226.51169 88.725104 226.461595 88.71258 226.4115 88.714146 Q 226.236168 88.715711 226.035789 88.576385 Q 226.970371 88.280512 227.909649 88.451148 C 229.285691 88.701622 230.459788 89.041328 231.859312 89.487485 Q 233.814576 90.112104 235.597639 91.009115 Z" style="fill:#a63537;"/>
		<path d="M 226.035789 88.576385 Q 226.236168 88.715711 226.4115 88.714146 C 226.461595 88.71258 226.51169 88.725104 226.557088 88.748586 Q 226.790342 88.869127 226.970371 89.069506 C 227.681091 89.864761 228.427817 90.804039 229.327958 91.984398 Q 230.176439 93.097443 231.323924 94.421825 Q 232.416617 95.680457 233.811445 96.33169 Q 232.469843 96.935959 231.07345 97.38055 C 229.589391 97.854886 228.120986 98.288519 226.6291 98.515511 Q 225.375164 98.706498 224.160364 98.510815 Q 223.18195 95.948151 222.961219 93.765896 Q 222.889208 93.050479 223.189777 92.040755 Q 223.99286 89.684733 226.035789 88.576385 Z" style="fill:#cd413c;"/>
		<path d="M 223.189777 92.040755 Q 222.889208 93.050479 222.961219 93.765896 Q 223.18195 95.948151 224.160364 98.510815 Q 222.803107 98.358965 221.567957 98.110056 Q 220.771136 97.948813 220.389163 97.760958 Q 219.875691 97.510484 219.783329 97.34611 Q 218.928586 95.846396 218.651499 94.122821 Q 218.623321 93.668837 218.612362 93.210156 C 218.606101 92.951855 218.504345 92.821921 218.263264 92.765565 C 217.987743 92.699815 217.630817 92.601191 217.549413 92.911153 Q 217.389736 93.515421 217.500883 94.379557 Q 217.632382 95.390846 217.630817 95.417459 Q 217.624555 95.556786 217.752923 96.450665 Q 217.831196 97.00797 217.745096 97.757827 C 217.493056 98.020825 216.888787 97.917504 216.561606 97.872106 Q 213.557482 97.466651 210.551792 97.078416 Q 210.240265 97.037714 209.809763 96.824811 Q 209.119393 96.172013 208.886139 95.370495 Q 208.219252 93.086485 208.278739 90.614618 Q 208.285001 90.36884 208.507297 89.860065 Q 208.55113 89.780226 208.613749 89.795881 C 213.361799 90.971544 218.26796 91.639997 223.189777 92.040755 Z" style="fill:#ef5144;"/>
		<path d="M 240.106173 93.527945 Q 239.739854 93.56082 238.907028 93.523249 Q 238.150909 93.488809 235.431699 93.684492 Q 235.34873 93.690753 235.301766 93.758068 C 235.206273 93.892698 235.237582 94.022632 235.160874 94.151 Q 235.071643 94.299719 234.955799 94.224576 L 235.597639 91.009115 Q 237.963054 92.131552 240.106173 93.527945 Z" style="fill:#bfeafb;"/>
		<path d="M 218.651499 94.122821 Q 218.579488 93.930269 218.557571 93.723628 Q 218.551309 93.676664 218.50278 93.671968 C 218.462078 93.667271 218.422941 93.697015 218.416679 93.737717 Q 218.120807 95.544262 218.000266 96.896822 Q 217.954868 97.41186 217.745096 97.757827 Q 217.831196 97.00797 217.752923 96.450665 Q 217.624555 95.556786 217.630817 95.417459 Q 217.632382 95.390846 217.500883 94.379557 Q 217.389736 93.515421 217.549413 92.911153 C 217.630817 92.601191 217.987743 92.699815 218.263264 92.765565 C 218.504345 92.821921 218.606101 92.951855 218.612362 93.210156 Q 218.623321 93.668837 218.651499 94.122821 Z" style="fill:#a63537;"/>
		<path d="M 240.106173 93.527945 C 240.342558 93.701712 240.578943 93.853562 240.793411 94.061768 Q 241.604321 94.849196 242.396445 95.656975 Q 242.418362 95.678892 242.471588 95.700808 Q 242.551426 95.735248 242.531075 95.777516 Q 242.459064 97.64981 242.604652 99.290415 C 242.703276 100.392502 243.047678 101.291077 244.188901 101.637045 Q 245.914041 102.156779 247.322958 102.447955 Q 248.354599 102.662423 248.835196 102.48396 Q 249.351799 102.078505 249.55844 101.599474 Q 249.988942 100.596012 250.402225 99.586288 Q 250.557205 99.212142 250.802983 98.910008 C 250.837423 98.86774 250.904738 98.880264 250.921958 98.931924 L 251.055023 99.321725 Q 251.233486 100.451989 251.659292 101.532159 C 251.905069 102.15991 252.393494 102.831493 253.083863 102.955165 Q 256.980301 103.651796 261.097469 103.863134 Q 261.733048 103.896008 262.024224 103.806777 C 262.481339 103.69876 262.728682 103.282347 262.836699 102.862803 Q 263.176405 101.557206 263.534896 100.257872 Q 263.591252 100.052796 263.683615 99.863375 L 266.041202 99.805453 Q 267.140158 100.92789 268.326779 101.840555 C 269.184653 102.499615 269.873456 102.995867 270.842478 102.998998 Q 271.523455 103.000563 275.304048 102.693732 C 275.722027 102.659292 276.171315 102.654596 276.554854 102.610763 Q 278.397404 102.399425 280.095931 102.260099 Q 281.152619 102.447955 281.711489 103.088229 C 282.350198 103.819301 281.584687 104.310856 280.919365 104.547241 Q 279.527668 105.043493 278.078049 105.381633 Q 272.580142 106.670009 267.083801 107.205398 Q 265.152019 107.393253 263.966964 107.496574 Q 256.836278 108.121194 248.407824 108.144676 Q 236.48056 108.179116 225.166957 106.721669 Q 226.024831 104.721007 225.240534 103.05692 C 224.212024 100.879361 221.83252 99.93069 219.597039 100.680547 C 217.712221 101.314559 216.586653 103.31209 216.699366 105.300229 Q 213.242823 104.721007 209.902125 103.791122 C 208.101842 103.291739 206.193542 102.70156 204.601466 101.702794 C 203.569826 101.054692 202.826231 99.792929 203.688801 98.668926 C 203.911097 98.382447 204.485622 98.045872 204.875422 97.886195 Q 206.783722 97.105029 209.042686 96.874906 Q 209.39648 96.8389 209.809763 96.824811 Q 210.240265 97.037714 210.551792 97.078416 Q 213.557482 97.466651 216.561606 97.872106 C 216.888787 97.917504 217.493056 98.020825 217.745096 97.757827 Q 217.954868 97.41186 218.000266 96.896822 Q 218.120807 95.544262 218.416679 93.737717 C 218.422941 93.697015 218.462078 93.667271 218.50278 93.671968 Q 218.551309 93.676664 218.557571 93.723628 Q 218.579488 93.930269 218.651499 94.122821 Q 218.928586 95.846396 219.783329 97.34611 Q 219.875691 97.510484 220.389163 97.760958 Q 220.771136 97.948813 221.567957 98.110056 Q 222.803107 98.358965 224.160364 98.510815 Q 225.375164 98.706498 226.6291 98.515511 C 228.120986 98.288519 229.589391 97.854886 231.07345 97.38055 Q 232.469843 96.935959 233.811445 96.33169 Q 234.346833 95.965371 234.542516 95.428418 Q 234.756985 94.835107 234.955799 94.224576 Q 235.071643 94.299719 235.160874 94.151 C 235.237582 94.022632 235.206273 93.892698 235.301766 93.758068 Q 235.34873 93.690753 235.431699 93.684492 Q 238.150909 93.488809 238.907028 93.523249 Q 239.739854 93.56082 240.106173 93.527945 Z" style="fill:#5fc8df;"/>
		<path d="M 242.531075 95.777516 Q 244.199859 96.759061 245.95944 97.281926 Q 247.781639 97.825142 249.633582 98.277561 Q 248.753792 98.88496 248.562805 99.976088 Q 248.32642 101.325518 248.835196 102.48396 Q 248.354599 102.662423 247.322958 102.447955 Q 245.914041 102.156779 244.188901 101.637045 C 243.047678 101.291077 242.703276 100.392502 242.604652 99.290415 Q 242.459064 97.64981 242.531075 95.777516 Z" style="fill:#ef5144;"/>
		<path d="M 249.633582 98.277561 L 251.04563 98.543689 L 251.055023 99.321725 L 250.921958 98.931924 C 250.904738 98.880264 250.837423 98.86774 250.802983 98.910008 Q 250.557205 99.212142 250.402225 99.586288 Q 249.988942 100.596012 249.55844 101.599474 Q 249.351799 102.078505 248.835196 102.48396 Q 248.32642 101.325518 248.562805 99.976088 Q 248.753792 98.88496 249.633582 98.277561 Z" style="fill:#a63537;"/>
		<path d="M 282.699297 98.534297 C 282.549012 99.529931 282.340806 100.805784 281.785066 101.577557 Q 281.515807 101.951703 281.016424 102.051893 Q 280.636016 102.1286 280.095931 102.260099 Q 278.397404 102.399425 276.554854 102.610763 C 276.171315 102.654596 275.722027 102.659292 275.304048 102.693732 Q 271.523455 103.000563 270.842478 102.998998 C 269.873456 102.995867 269.184653 102.499615 268.326779 101.840555 Q 267.140158 100.92789 266.041202 99.805453 Q 270.507469 99.659865 273.337827 99.351468 Q 277.021362 98.949144 280.704897 98.540559 Q 281.755322 98.424714 282.699297 98.534297 Z" style="fill:#ef5144;"/>
		<path d="M 262.615969 99.772578 Q 261.563977 100.777605 261.700173 101.934483 Q 261.769053 102.524662 262.033616 103.199377 Q 262.061795 103.272954 262.036747 103.346531 Q 261.944385 103.631445 262.024224 103.806777 Q 261.733048 103.896008 261.097469 103.863134 Q 256.980301 103.651796 253.083863 102.955165 C 252.393494 102.831493 251.905069 102.15991 251.659292 101.532159 Q 251.233486 100.451989 251.055023 99.321725 L 251.04563 98.543689 Q 254.780825 99.05403 258.523848 99.461051 Q 259.47878 99.564371 262.615969 99.772578 Z" style="fill:#ef5144;"/>
		<path d="M 262.615969 99.772578 Q 262.990114 99.780405 263.523937 99.783536 Q 263.663264 99.783536 263.683615 99.863375 Q 263.591252 100.052796 263.534896 100.257872 Q 263.176405 101.557206 262.836699 102.862803 C 262.728682 103.282347 262.481339 103.69876 262.024224 103.806777 Q 261.944385 103.631445 262.036747 103.346531 Q 262.061795 103.272954 262.033616 103.199377 Q 261.769053 102.524662 261.700173 101.934483 Q 261.563977 100.777605 262.615969 99.772578 Z" style="fill:#a63537;"/>
		<path d="M 225.166957 106.721669 Q 224.932137 106.95962 224.664443 107.347855 C 223.920848 108.428024 222.796846 109.018204 221.491249 109.052644 C 220.74922 109.07143 219.899173 108.969675 219.236982 108.661278 C 218.045665 108.107104 217.2191 107.119297 216.877829 105.82779 Q 216.801121 105.535048 216.699366 105.300229 C 216.586653 103.31209 217.712221 101.314559 219.597039 100.680547 C 221.83252 99.93069 224.212024 100.879361 225.240534 103.05692 Q 226.024831 104.721007 225.166957 106.721669 Z M 223.305621 102.659292 C 222.05012 101.633914 220.613024 101.203411 219.227589 102.300801 Q 218.269526 103.060051 218.102021 104.113608 C 217.87816 105.528786 218.452685 107.266451 219.726972 108.021004 C 221.312786 108.960282 223.113069 108.31218 223.988163 106.823425 C 224.537641 105.887278 224.514159 104.566027 224.254292 103.553172 C 224.127489 103.055355 223.646892 102.937945 223.305621 102.659292 Z" style="fill:#f9fcfc;"/>
		<path d="M 263.21598 59.114241 C 259.139075 58.135952 256.640596 53.985909 257.634633 49.84529 C 258.628734 45.704608 262.73964 43.141945 266.815668 44.120485 C 270.892573 45.098774 273.391052 49.248817 272.397014 53.389436 C 271.402914 57.530118 267.292007 60.092781 263.21598 59.114241 Z" style="fill:#08a1b6;"/>
		<path d="M 212.930654 55.609138 C 211.168585 55.704788 209.659478 54.299002 209.560838 52.469554 C 209.46223 50.640514 210.810094 49.079747 212.571882 48.984411 C 214.333951 48.888761 215.843058 50.294547 215.941698 52.123994 C 216.040306 53.953034 214.692442 55.513801 212.930654 55.609138 Z" style="fill:#ef5144;"/>
		<path d="M 225.420562 59.374234 C 222.77806 58.082726 219.334041 58.937469 217.607335 61.332628 Q 217.604204 61.335759 217.217535 61.983861 Q 216.938882 62.451934 216.533427 62.799467 Q 216.243816 62.548993 216.217204 61.944724 C 216.115448 59.732725 217.289546 57.966882 219.302732 57.127794 C 221.522559 56.202605 223.825355 56.874189 225.289063 58.769965 Q 225.37986 58.887374 225.398646 59.054879 Q 225.417431 59.212991 225.420562 59.374234 Z" style="fill:#bfeafb;"/>
		<path d="M 225.420562 59.374234 Q 226.413066 60.448141 226.148502 62.143538 Q 225.930903 63.522711 224.980667 64.543393 Q 222.798411 66.885326 219.770805 65.936655 Q 217.468009 65.214977 216.533427 62.799467 Q 216.938882 62.451934 217.217535 61.983861 Q 217.604204 61.335759 217.607335 61.332628 C 219.334041 58.937469 222.77806 58.082726 225.420562 59.374234 Z" style="fill:#08a1b6;"/>
		<path d="M 285.094456 72.596136 C 285.254133 71.077637 285.017748 69.38224 283.599438 68.68874 C 280.9178 67.378447 277.55675 67.758855 275.391714 69.900408 Q 274.131516 71.144952 274.267712 72.982806 Q 274.139344 72.707284 274.021934 72.431762 Q 273.898262 72.145283 273.893566 71.850976 C 273.84034 68.75762 276.254285 66.4423 279.263105 66.218439 C 280.981984 66.090071 282.81201 66.866541 284.008024 68.086037 C 285.174294 69.274223 285.575053 70.989971 285.094456 72.596136 Z" style="fill:#bfeafb;"/>
		<path d="M 265.514581 70.327545 C 265.444761 71.581716 264.311365 72.536649 262.983774 72.462665 C 261.65634 72.38793 260.637223 71.312456 260.70673 70.058755 C 260.776549 68.804584 261.909945 67.849652 263.237536 67.923635 C 264.564971 67.998371 265.584087 69.073844 265.514581 70.327545 Z" style="fill:#08a1b6;"/>
		<path d="M 285.094456 72.596136 C 284.642037 75.191674 282.611631 77.248693 279.922165 77.359841 C 277.141902 77.475685 274.810927 75.702015 274.267712 72.982806 Q 274.131516 71.144952 275.391714 69.900408 C 277.55675 67.758855 280.9178 67.378447 283.599438 68.68874 C 285.017748 69.38224 285.254133 71.077637 285.094456 72.596136 Z" style="fill:#08a1b6;"/>
		<path d="M 289.019072 79.116291 Q 290.933633 81.974826 288.541606 84.296408 C 287.891938 84.925725 286.736626 85.304567 285.808307 85.127669 C 284.635775 84.903808 283.57126 83.820508 283.361488 82.665196 Q 282.996735 80.650445 284.396259 79.564013 Q 284.73753 79.297884 285.606362 78.96131 C 286.794549 78.501063 288.095449 77.738683 289.019072 79.116291 Z" style="fill:#08a1b6;"/>
		<path d="M 223.305621 102.659292 C 223.646892 102.937945 224.127489 103.055355 224.254292 103.553172 C 224.514159 104.566027 224.537641 105.887278 223.988163 106.823425 C 223.113069 108.31218 221.312786 108.960282 219.726972 108.021004 C 218.452685 107.266451 217.87816 105.528786 218.102021 104.113608 Q 218.269526 103.060051 219.227589 102.300801 C 220.613024 101.203411 222.05012 101.633914 223.305621 102.659292 Z" style="fill:#08a1b6;"/>
	</g>
	<g id="surface4">
	</g>
</svg>
