<?xml version="1.0" encoding="utf-8"?>
<svg xmlns="http://www.w3.org/2000/svg" width="490pt" height="280pt" viewBox="0 0 490 280" version="1.1" xmlns:xlink="http://www.w3.org/1999/xlink">
	<g id="surface2">
		<path vector-effect="non-scaling-stroke" d="M 319.302736 83.778049 Q 314.565169 82.890111 309.922467 81.577177 Q 301.551563 79.207445 298.627818 78.427653 Q 294.886336 77.427774 291.670406 76.832021 Q 288.116756 76.171759 287.160515 75.978234 Q 286.929044 75.930801 286.769671 75.731585 Q 286.712752 75.659487 286.617887 75.651898 L 286.135971 75.617746" style="fill:none;stroke-width:0.50;stroke:#f0dcba;"/>
		<path vector-effect="non-scaling-stroke" d="M 219.022651 60.232511 L 218.829126 60.579718 Q 218.779796 60.663199 218.863278 60.611972 L 218.905019 60.583513 Q 219.030241 60.503826 218.979013 60.642329 L 218.935375 60.758065" style="fill:none;stroke-width:0.50;stroke:#bfc0a5;"/>
		<path vector-effect="non-scaling-stroke" d="M 218.935375 60.758065 Q 218.586272 60.833957 218.60145 61.059736 C 218.605245 61.109066 218.631807 61.152704 218.673547 61.179266 L 219.618405 61.782609" style="fill:none;stroke-width:0.50;stroke:#f0dcba;"/>
		<path vector-effect="non-scaling-stroke" d="M 219.618405 61.782609 C 219.047316 61.721895 217.705923 61.543548 217.990518 60.742886 Q 218.022772 60.65561 217.935496 60.621459 Q 217.514295 60.452599 217.347332 60.412755 Q 214.106738 59.631066 212.266353 59.242119 C 205.82311 57.88365 198.979536 57.405529 192.519217 58.589447 C 185.286696 59.913764 178.391895 62.941861 172.071977 66.84082 Q 171.950549 66.916712 171.698208 66.869279" style="fill:none;stroke-width:0.50;stroke:#f2d9b2;"/>
		<path vector-effect="non-scaling-stroke" d="M 226.035085 62.571887 Q 224.646259 62.537735 223.762116 62.283497 Q 221.81738 61.719997 220.301434 61.66877" style="fill:none;stroke-width:0.50;stroke:#c6d8cf;"/>
		<path vector-effect="non-scaling-stroke" d="M 220.301434 61.66877 Q 219.440058 61.376586 218.935375 60.758065" style="fill:none;stroke-width:0.50;stroke:#c4dcd7;"/>
		<path vector-effect="non-scaling-stroke" d="M 220.301434 61.66877 C 221.088815 61.960955 222.113359 62.080485 222.718599 62.222783 C 223.619818 62.433384 224.232647 62.543427 224.968801 62.820434 C 226.050264 63.230251 227.059629 63.619198 228.167655 63.907589 C 230.328683 64.46919 232.616832 64.670305 234.172621 65.192063 Q 234.633665 65.345745 235.092813 65.402664 Q 237.447367 65.687259 239.779153 66.043952" style="fill:none;stroke-width:0.50;stroke:#f7f5e4;"/>
		<path vector-effect="non-scaling-stroke" d="M 239.779153 66.043952 L 240.431825 66.09518" style="fill:none;stroke-width:0.50;stroke:#c4dcd7;"/>
		<path vector-effect="non-scaling-stroke" d="M 240.431825 66.09518 Q 241.93449 66.588479 243.4751 66.755441" style="fill:none;stroke-width:0.50;stroke:#f7f5e4;"/>
		<path vector-effect="non-scaling-stroke" d="M 319.0466 87.17612 Q 316.320174 86.57088 313.614619 85.925797 Q 311.914635 85.519774 309.947132 84.977145 C 302.023992 82.793349 293.799181 80.53366 285.591445 79.547062 Q 277.852344 78.617383 273.909747 78.088036 Q 269.056444 77.435363 265.28081 76.604344 Q 259.843138 75.409043 253.500452 73.511739 C 249.821581 72.409406 241.346325 69.637445 235.21424 68.130986 Q 224.900498 65.594291 214.125711 65.863709 Q 208.522973 66.004109 202.948695 66.782003 Q 201.140565 67.034345 199.222391 67.476417 Q 193.824562 68.71915 189.976831 69.766462 L 189.785203 69.779743 Q 189.771922 69.78164 189.779511 69.794922 Q 189.783306 69.800614 189.788998 69.806305 Q 189.806073 69.827176 189.844019 69.823381 Q 202.889879 68.711561 215.685294 71.039553 C 220.760581 71.961642 225.251499 73.340982 230.501338 74.866414 Q 233.77229 75.816963 239.650136 77.196303 Q 246.398845 78.782449 254.887381 79.603981 Q 262.254611 80.317367 278.017409 81.630301 Q 286.532508 82.337996 295.041915 84.267553 Q 298.51398 85.054934 306.167703 87.043309 Q 311.673678 88.471978 318.688009 89.597079" style="fill:none;stroke-width:0.50;stroke:#a5cdce;"/>
		<path vector-effect="non-scaling-stroke" d="M 318.255424 91.247733 Q 317.98411 91.287577 317.758331 91.249631 C 312.973331 90.456558 309.254616 89.682458 303.513375 88.333475 C 299.70359 87.43605 295.939339 86.468426 292.095402 85.715196 Q 283.506309 84.032288 274.833734 83.647135 Q 270.348508 83.447918 269.001423 83.444124 Q 263.334177 83.436534 257.141378 83.212653 C 249.815889 82.950825 242.486605 81.9832 235.288235 80.453973 C 229.376237 79.197958 222.540252 77.072978 216.161518 75.735379 Q 205.030037 73.401696 193.538069 74.172001 Q 188.995925 74.477467 185.002101 75.403351 Q 177.95172 77.038827 171 80.347724" style="fill:none;stroke-width:0.50;stroke:#a5cdce;"/>
		<path vector-effect="non-scaling-stroke" d="M 219.618405 61.782609 L 224.168139 62.617422 Q 224.207982 62.625011 224.200393 62.666752 L 224.200393 62.668649 Q 224.190906 62.71039 224.151063 62.702801 Q 221.997623 62.315751 220.193288 62.053923 Q 218.220092 61.76743 216.759168 62.03495 Q 215.305834 62.298675 212.769139 63.078467 C 211.035003 63.611609 209.262922 63.968302 207.551554 64.569748 Q 205.572666 65.266058 204.92948 65.451994 Q 201.781854 66.358905 193.661394 68.165138 Q 193.646216 68.167035 191.147467 68.64895 Q 189.307082 69.005643 188.221825 69.421153 C 187.271276 69.787332 186.347289 69.777846 185.22788 69.997933 Q 178.854837 71.257743 173.094623 73.993654 C 172.312934 74.365526 171.732359 75.094091 171.136606 75.708817" style="fill:none;stroke-width:0.50;stroke:#f7f5e4;"/>
		<path vector-effect="non-scaling-stroke" d="M 226.05975 62.552914 Q 227.0805 63.040521 228.180936 63.074672 Q 228.18473 63.074672 228.182833 63.082261 Q 228.180936 63.084159 228.180936 63.087953 Q 228.180936 63.091748 228.177141 63.091748 C 228.074687 63.095543 227.987411 63.091748 227.89634 63.061391 Q 227.848908 63.044315 227.84701 63.087953 Q 227.845113 63.09744 227.864086 63.133489 C 227.881162 63.171435 227.919108 63.194202 227.958951 63.1961 Q 228.349796 63.21697 228.60024 63.404803 C 228.786176 63.545204 229.034722 63.548998 229.228247 63.566074 Q 229.228247 63.564177 229.230145 63.564177 Q 229.220658 63.564177 229.211172 63.560382 Q 229.184609 63.547101 229.17702 63.547101 L 228.763408 63.45603 Q 228.602137 63.419982 228.765305 63.393419 Q 229.220658 63.317527 229.558378 63.482593 Q 230.011834 63.704577 230.250894 63.62489" style="fill:none;stroke-width:0.50;stroke:#c6d8cf;"/>
		<path vector-effect="non-scaling-stroke" d="M 230.250894 63.62489 L 230.918745 63.700782" style="fill:none;stroke-width:0.50;stroke:#a2bbb7;"/>
		<path vector-effect="non-scaling-stroke" d="M 233.074082 64.285152 L 232.552323 64.417963 C 232.495404 64.433142 232.43469 64.408477 232.402436 64.357249 Q 232.332236 64.245309 232.256344 64.237719 Q 231.98503 64.20926 232.22409 64.338276 Q 232.556118 64.51852 232.89953 64.501445 C 233.201201 64.486266 233.394726 64.510931 233.656554 64.548877 Q 233.827311 64.571645 234.185902 64.727224 Q 234.574849 64.894186 235.051072 64.846754" style="fill:none;stroke-width:0.50;stroke:#c6d8cf;"/>
		<path vector-effect="non-scaling-stroke" d="M 235.051072 64.846754 L 235.713231 64.854343" style="fill:none;stroke-width:0.50;stroke:#a2bbb7;"/>
		<path vector-effect="non-scaling-stroke" d="M 235.713231 64.854343 Q 235.686669 64.958695 235.610777 65.030792 Q 235.538679 65.095301 235.635442 65.099095 L 237.500491 65.154117" style="fill:none;stroke-width:0.50;stroke:#c6d8cf;"/>
		<path vector-effect="non-scaling-stroke" d="M 237.749038 65.207242 L 236.637218 65.32108 C 236.637218 65.32108 236.637218 65.32108 236.637218 65.32108 C 236.637218 65.322977 236.637218 65.322977 236.637218 65.322977 L 238.754609 65.529783" style="fill:none;stroke-width:0.50;stroke:#c6d8cf;"/>
		<path vector-effect="non-scaling-stroke" d="M 240.158613 65.850427 Q 239.927142 65.808687 239.779153 65.873195 Q 239.663417 65.924422 239.790537 65.932011 Q 239.976472 65.941498 240.116873 65.962368 Q 240.297117 65.987033 240.109284 65.988931 Q 239.982164 65.990828 239.779153 66.043952" style="fill:none;stroke-width:0.50;stroke:#c6d8cf;"/>
		<path vector-effect="non-scaling-stroke" d="M 240.784724 66.007904 Q 240.786621 66.024979 240.788518 66.042055" style="fill:none;stroke-width:0.50;stroke:#6fa2ab;"/>
		<path vector-effect="non-scaling-stroke" d="M 240.788518 66.042055 Q 240.570328 66.032569 240.431825 66.09518" style="fill:none;stroke-width:0.50;stroke:#c6d8cf;"/>
		<path vector-effect="non-scaling-stroke" d="M 240.788518 66.042055 Q 240.925124 66.015493 241.057935 66.081898" style="fill:none;stroke-width:0.50;stroke:#a2bbb7;"/>
		<path vector-effect="non-scaling-stroke" d="M 241.545542 66.220402 L 241.721992 66.271629" style="fill:none;stroke-width:0.50;stroke:#a2bbb7;"/>
		<path vector-effect="non-scaling-stroke" d="M 317.502195 95.068903 L 317.11135 95.196022 Q 317.025971 95.222584 316.940593 95.196022 C 313.859372 94.220808 311.823565 93.613671 308.839106 92.585332 Q 300.081153 89.562928 290.829901 87.303239 C 286.090436 86.143987 281.309231 85.720888 276.486285 86.439966 Q 274.873577 86.680924 272.763776 87.092639 C 272.135768 87.214066 271.450842 87.17612 270.805758 87.143866 Q 270.460449 87.12679 270.433887 87.229244" style="fill:none;stroke-width:0.50;stroke:#74b0b9;"/>
		<path vector-effect="non-scaling-stroke" d="M 270.433887 87.229244 Q 269.107672 87.305137 268.473972 87.432256 Q 266.633588 87.796538 264.474456 88.37901 C 258.759778 89.921518 253.525117 91.321728 247.787671 92.350067 Q 242.376561 93.319589 236.17807 93.562444 C 228.364974 93.86791 220.153444 92.659327 212.414343 90.87017 Q 205.678915 89.312484 203.739871 88.870412 Q 197.905662 87.538505 191.737528 86.921881 Q 186.848177 86.43048 182.345876 86.796659 Q 177.069474 87.223552 171.779792 89.310586" style="fill:none;stroke-width:0.50;stroke:#a5cdce;"/>
		<path vector-effect="non-scaling-stroke" d="M 235.02451 64.558364 Q 235.081429 64.770862 235.051072 64.846754" style="fill:none;stroke-width:0.50;stroke:#6fa2ab;"/>
		<path vector-effect="non-scaling-stroke" d="M 228.539526 62.958937 Q 228.48071 63.029137 228.374461 63.038623 Q 228.321336 63.044315 228.374461 63.055699 Q 228.444661 63.070878 228.552807 63.105029 C 228.695105 63.150564 228.803251 63.099337 228.964522 63.190408 Q 229.091642 63.262505 228.947446 63.28717 Q 228.873452 63.298554 228.831711 63.309938 Q 228.71977 63.340295 228.837403 63.332706 L 229.450232 63.294759" style="fill:none;stroke-width:0.50;stroke:#6fa2ab;"/>
		<path vector-effect="non-scaling-stroke" d="M 230.034601 63.416187 Q 230.636047 63.577458 230.250894 63.62489" style="fill:none;stroke-width:0.50;stroke:#6fa2ab;"/>
		<path vector-effect="non-scaling-stroke" d="M 317.285902 95.869565 Q 316.957668 95.677937 316.551645 95.649478 Q 315.85913 95.600148 315.849643 95.598251 Q 309.034529 94.531966 301.91964 93.666795 Q 295.57316 92.89649 290.59084 92.547386 C 290.349883 92.530311 289.996984 92.463905 289.809151 92.399397 Q 283.242583 90.139708 277.389402 89.168289 Q 273.382297 88.504232 269.29171 87.834484" style="fill:none;stroke-width:0.50;stroke:#6fa2ab;"/>
		<path vector-effect="non-scaling-stroke" d="M 269.29171 87.834484 L 270.433887 87.229244" style="fill:none;stroke-width:0.50;stroke:#c4dcd7;"/>
		<path vector-effect="non-scaling-stroke" d="M 269.29171 87.834484 Q 267.422866 88.521308 266.641177 88.879898 C 261.842896 91.078873 257.090151 93.055864 252.348789 94.457971 Q 247.580865 95.869565 242.245647 96.491881 Q 232.778102 97.596111 223.206206 95.920792 C 216.698454 94.78241 210.29126 93.095707 204.468435 91.934557 Q 197.835462 90.614034 191.640766 90.274417 C 185.43848 89.932902 178.778945 90.752537 173.085137 93.317692 Q 172.730341 93.477065 172.631681 93.672487 C 172.608913 93.71992 172.603222 93.773044 172.614605 93.822374 L 172.986477 95.247249 C 173.030115 95.414212 173.202769 95.509077 173.367835 95.45785 C 181.700792 92.830085 191.024142 93.274054 199.341921 95.645683 Q 203.45907 96.820114 207.900658 98.614963 C 213.567904 100.905009 216.658611 102.24071 221.244394 103.724402 C 227.29869 105.682419 233.96202 106.699374 240.114975 106.225048 Q 251.823236 105.325726 262.793445 101.223756 C 266.136494 99.973433 269.303094 98.345546 272.500051 96.768887 Q 274.327154 95.867668 275.685623 95.393342 Q 277.499446 94.76154 279.366392 94.300495 Q 279.364495 94.302392 279.366392 94.302392 Q 279.355008 94.304289 279.341727 94.304289 Q 279.326549 94.302392 279.315165 94.306187 Q 276.093544 95.294682 273.279842 97.180602 Q 268.028106 100.701997 267.855451 100.812041 Q 260.127734 105.764003 251.265429 108.279828 C 244.598304 110.173337 237.48721 111.112502 230.730912 110.473111 Q 224.164344 109.850795 217.368203 107.58162 Q 212.932307 106.099826 209.828318 104.784995 Q 203.671568 102.174305 197.915149 100.472423 Q 190.155177 98.176686 182.317416 98.799002 Q 178.226829 99.123441 174.479655 100.698203" style="fill:none;stroke-width:0.50;stroke:#a0bec0;"/>
		<path vector-effect="non-scaling-stroke" d="M 315.813594 100.872755 Q 310.897681 98.152021 305.192489 97.749793 Q 295.546597 97.072455 287.092212 100.561597 Q 284.714891 101.5444 282.375516 102.766264 Q 278.265956 104.915908 276.359166 106.092237 Q 273.004733 108.160298 270.756429 109.450464 C 264.282829 113.167282 256.85868 115.354873 249.438325 116.400287 Q 243.755901 117.199052 238.989874 117.210436 C 235.33377 117.218025 231.865499 116.810105 228.175244 116.030313 Q 227.465652 115.880426 228.099352 116.22953 Q 230.463392 117.534875 232.812254 118.324153 C 237.506183 119.897018 242.452453 120.735626 247.375956 120.59902 Q 254.572429 120.4017 261.252835 118.159088 C 266.933362 116.2504 272.317909 113.444288 277.338175 110.199899 Q 278.865504 109.213301 280.601537 108.154606 Q 281.965698 107.323587 285.15886 105.978399 C 289.124225 104.308771 293.80677 103.578309 298.037757 103.616256 Q 305.769269 103.682661 313.375559 105.729852 Q 313.669641 105.809538 313.842296 106.103621" style="fill:none;stroke-width:0.50;stroke:#6fa2ab;"/>
		<path vector-effect="non-scaling-stroke" d="M 312.132825 110.097445 Q 306.864013 110.444651 301.830467 111.507141 C 296.791228 112.571529 291.863931 114.119728 287.067548 116.098616 C 280.335914 118.878166 274.160191 121.576131 267.576548 123.729571 C 257.296957 127.091593 246.199628 128.541133 235.373614 127.571611 Q 222.10577 126.382001 210.008562 121.189081 Q 208.930894 120.728037 200.136891 116.880305 C 193.335058 113.903436 186.278986 111.634261 178.809302 110.662841 C 178.570241 110.630587 178.433635 110.495878 178.262878 110.344094" style="fill:none;stroke-width:0.50;stroke:#a0bec0;"/>
		<path vector-effect="non-scaling-stroke" d="M 175.365696 103.255768 Q 175.107662 102.081337 174.578315 100.999874" style="fill:none;stroke-width:0.50;stroke:#6fa2ab;"/>
		<path vector-effect="non-scaling-stroke" d="M 310.262084 113.819954 Q 301.204357 115.239137 292.687361 118.44558 Q 291.087934 119.048923 289.171657 119.870455 Q 283.783315 122.183269 279.148202 124.205794 C 274.543447 126.215039 269.948177 127.990915 265.263735 129.208984 C 255.266842 131.812084 244.829775 132.555827 234.571054 131.935409 C 224.069479 131.30171 214.009975 128.78209 204.54243 124.537822 Q 198.924514 122.016306 193.765746 119.969115 Q 189.504402 118.274823 185.235469 117.229409 Q 183.516512 116.80631 181.733046 116.650731" style="fill:none;stroke-width:0.50;stroke:#a0bec0;"/>
		<path vector-effect="non-scaling-stroke" d="M 305.471392 121.318098 Q 303.991496 121.727916 302.680459 122.355923 Q 300.358159 123.471538 299.33741 124.000885 Q 291.277664 128.173056 287.242099 130.30942 Q 284.559312 131.7305 281.189701 133.902913 Q 280.242947 134.515742 278.08761 136.082915 Q 275.945554 137.640601 273.723811 139.073065 Q 264.442202 145.057161 253.773664 147.616623 Q 248.893799 148.78726 242.458145 149.341272 C 238.784966 149.656225 235.309105 149.819393 231.998311 149.576538 Q 231.262157 149.523413 230.558257 149.489262 Q 229.937839 149.460802 228.62111 149.329888 Q 227.653485 149.233126 226.676374 149.231229" style="fill:none;stroke-width:0.50;stroke:#6fa2ab;"/>
		<path vector-effect="non-scaling-stroke" d="M 220.020633 61.048978 C 220.020633 61.019892 219.912487 60.997125 219.777494 60.997125 C 219.64307 60.997125 219.534923 61.02179 219.534923 61.051521 C 219.534923 61.080606 219.64307 61.103374 219.778063 61.103374 C 219.912487 61.103374 220.020633 61.078709 220.020633 61.048978" style="fill:none;stroke-width:0.50;stroke:#6fa2ab;"/>
		<path vector-effect="non-scaling-stroke" d="M 231.307673 63.896907 C 231.307692 63.877232 231.279233 63.862053 231.244398 63.862053 C 231.209032 63.862053 231.18247 63.879129 231.182489 63.899297 C 231.18247 63.918972 231.21093 63.934151 231.245764 63.934151 C 231.28113 63.934151 231.307692 63.917075 231.307673 63.896907" style="fill:none;stroke-width:0.50;stroke:#c6d8cf;"/>
		<path d="M 319.302736 83.778049 Q 314.565169 82.890111 309.922467 81.577177 Q 301.551563 79.207445 298.627818 78.427653 Q 294.886336 77.427774 291.670406 76.832021 Q 288.116756 76.171759 287.160515 75.978234 Q 286.929044 75.930801 286.769671 75.731585 Q 286.712752 75.659487 286.617887 75.651898 L 286.135971 75.617746 Q 286.908174 75.733482 287.503927 74.494543 Q 289.475226 70.39447 290.256915 66.696625 Q 290.92856 63.518641 291.080345 59.154843 Q 291.319405 52.265734 289.095765 46.213335 Q 287.124467 40.845863 283.327962 35.909079 C 280.969614 32.844934 277.875112 30.086255 274.788199 27.894869 C 268.170404 23.195248 260.435097 21.134776 252.403811 22.102401 C 243.88302 23.13074 235.874502 26.623676 229.736725 32.668485 Q 220.864933 41.407465 219.366063 53.783577 Q 219.286377 54.443838 219.159257 55.830767 C 219.028343 57.257539 219.083365 58.758307 219.022651 60.232511 L 218.829126 60.579718 Q 218.779796 60.663199 218.863278 60.611972 L 218.905019 60.583513 Q 219.030241 60.503826 218.979013 60.642329 L 218.935375 60.758065 Q 218.586272 60.833957 218.60145 61.059736 C 218.605245 61.109066 218.631807 61.152704 218.673547 61.179266 L 219.618405 61.782609 C 219.047316 61.721895 217.705923 61.543548 217.990518 60.742886 Q 218.022772 60.65561 217.935496 60.621459 Q 217.514295 60.452599 217.347332 60.412755 Q 214.106738 59.631066 212.266353 59.242119 C 205.82311 57.88365 198.979536 57.405529 192.519217 58.589447 C 185.286696 59.913764 178.391895 62.941861 172.071977 66.84082 Q 171.950549 66.916712 171.698208 66.869279 Q 174.276643 51.068535 182.873326 37.605269 Q 183.588609 36.487757 185.451761 33.922602 Q 186.654652 32.268154 187.779753 30.92676 Q 192.995441 24.713091 198.552643 20.315141 Q 207.299212 13.39188 217.645209 9.244375 C 222.836232 7.163033 228.427585 5.618627 233.711576 4.721203 Q 235.474171 4.421429 239.03541 4.074222 C 243.330905 3.654918 247.656757 3.734605 252.028145 4.114066 Q 253.629469 4.252569 257.021848 4.668078 Q 259.308099 4.945085 264.102585 6.144181 Q 276.677913 9.288013 287.577922 16.907584 C 293.983219 21.38522 299.635287 26.724233 304.403211 33.03087 C 309.248924 39.441859 313.282591 47.089889 315.752881 54.971289 C 317.900628 61.824349 319.310325 68.734329 319.450725 75.927007 Q 319.490569 77.95143 319.424163 82.040119 Q 319.407087 83.09502 319.302736 83.778049 Z" style="fill:#ebc088;"/>
		<path d="M 219.618405 61.782609 L 224.168139 62.617422 Q 224.207982 62.625011 224.200393 62.666752 L 224.200393 62.668649 Q 224.190906 62.71039 224.151063 62.702801 Q 221.997623 62.315751 220.193288 62.053923 Q 218.220092 61.76743 216.759168 62.03495 Q 215.305834 62.298675 212.769139 63.078467 C 211.035003 63.611609 209.262922 63.968302 207.551554 64.569748 Q 205.572666 65.266058 204.92948 65.451994 Q 201.781854 66.358905 193.661394 68.165138 Q 193.646216 68.167035 191.147467 68.64895 Q 189.307082 69.005643 188.221825 69.421153 C 187.271276 69.787332 186.347289 69.777846 185.22788 69.997933 Q 178.854837 71.257743 173.094623 73.993654 C 172.312934 74.365526 171.732359 75.094091 171.136606 75.708817 Q 171.280801 72.695899 171.400331 69.728516 Q 171.459147 68.284668 171.698208 66.869279 Q 171.950549 66.916712 172.071977 66.84082 C 178.391895 62.941861 185.286696 59.913764 192.519217 58.589447 C 198.979536 57.405529 205.82311 57.88365 212.266353 59.242119 Q 214.106738 59.631066 217.347332 60.412755 Q 217.514295 60.452599 217.935496 60.621459 Q 218.022772 60.65561 217.990518 60.742886 C 217.705923 61.543548 219.047316 61.721895 219.618405 61.782609 Z" style="fill:#f9f1db;"/>
		<path d="M 219.022651 60.232511 Q 219.032138 60.706837 219.510258 60.801703 C 219.529231 60.805497 219.542513 60.822573 219.534923 60.837751 Q 219.529231 60.847238 219.523539 60.85293 Q 219.514053 60.860519 219.521642 60.860519 Q 219.574767 60.864314 219.63548 60.860519 Q 219.728448 60.851032 219.815724 60.883287 Q 220.603105 61.156498 220.942723 61.099579 Q 220.957901 61.095785 220.946517 61.109066 L 220.912366 61.148909 Q 220.889598 61.173574 220.921852 61.179266 Q 220.980669 61.19065 221.04328 61.186855 Q 221.086918 61.183061 221.045177 61.219109 Q 221.039485 61.222904 221.033793 61.228596 Q 221.018615 61.23998 221.03569 61.241877 Q 221.481557 61.304488 221.874299 61.342434 Q 221.900861 61.346229 221.925526 61.323461 Q 221.948293 61.306385 221.950191 61.296899 Q 221.959677 61.26085 221.921731 61.255158 L 221.830661 61.241877 Q 221.824969 61.241877 221.828763 61.236185 Q 221.830661 61.234288 221.830661 61.23239 Q 221.832558 61.228596 221.836353 61.228596 Q 222.037467 61.257055 222.232889 61.329153 Q 222.27463 61.321564 222.306884 61.336742 Q 222.369495 61.370894 222.287911 61.374688 Q 222.2253 61.376586 222.210121 61.391764 Q 222.1551 61.448683 222.238581 61.465759 Q 222.386571 61.492321 222.48523 61.477143 Q 222.490922 61.475245 222.490922 61.480937 Q 222.49282 61.516986 222.490922 61.484732 Q 222.490922 61.482835 222.489025 61.482835 L 222.221505 61.522678 Q 222.212019 61.522678 222.213916 61.532164 Q 222.261349 61.828144 222.215813 61.545446 Q 222.215813 61.539754 222.219608 61.539754 Q 222.78121 61.439197 223.204308 61.757944 Q 223.280201 61.814863 223.375066 61.818657 Q 223.796267 61.83763 224.158652 61.979928 Q 224.312334 62.038745 224.162447 62.089972 Q 224.151063 62.093766 224.113117 62.089972 C 224.107425 62.089972 224.10363 62.08428 224.10363 62.080485 C 224.10363 62.074793 224.107425 62.070999 224.113117 62.070999 Q 224.521037 62.070999 224.917574 62.184837 Q 224.94793 62.192426 224.938444 62.217091 Q 224.934649 62.22468 224.928957 62.228475 Q 224.919471 62.236064 224.92706 62.236064 C 225.317905 62.258832 225.648036 62.304367 225.987653 62.37267 Q 226.046469 62.384054 225.987653 62.397335 Q 225.962988 62.404924 225.936426 62.416308 Q 225.921247 62.423897 225.936426 62.429589 Q 226.048367 62.473227 226.035085 62.571887 Q 224.646259 62.537735 223.762116 62.283497 Q 221.81738 61.719997 220.301434 61.66877 Q 219.440058 61.376586 218.935375 60.758065 L 218.979013 60.642329 Q 219.030241 60.503826 218.905019 60.583513 L 218.863278 60.611972 Q 218.779796 60.663199 218.829126 60.579718 L 219.022651 60.232511 Z M 220.020633 61.048978 C 220.020633 61.019892 219.912487 60.997125 219.777494 60.997125 C 219.64307 60.997125 219.534923 61.02179 219.534923 61.051521 C 219.534923 61.080606 219.64307 61.103374 219.778063 61.103374 C 219.912487 61.103374 220.020633 61.078709 220.020633 61.048978 Z" style="fill:#93bfc2;"/>
		<path d="M 218.935375 60.758065 Q 219.440058 61.376586 220.301434 61.66877 C 221.088815 61.960955 222.113359 62.080485 222.718599 62.222783 C 223.619818 62.433384 224.232647 62.543427 224.968801 62.820434 C 226.050264 63.230251 227.059629 63.619198 228.167655 63.907589 C 230.328683 64.46919 232.616832 64.670305 234.172621 65.192063 Q 234.633665 65.345745 235.092813 65.402664 Q 237.447367 65.687259 239.779153 66.043952 L 240.431825 66.09518 Q 241.93449 66.588479 243.4751 66.755441 Q 246.288801 67.4878 252.978694 69.508429 Q 253.096327 69.544478 256.369175 70.38688 Q 257.816818 70.760649 259.75017 71.299483 Q 263.121679 72.240546 264.453586 72.492887 Q 266.584258 72.89891 268.219734 73.261295 C 269.547846 73.555377 270.887342 73.735621 272.270477 73.997449 Q 273.082523 74.151131 273.913542 74.206152 C 275.808948 74.331375 278.222318 74.786727 280.121519 74.987842 C 282.474176 75.236388 284.392349 75.520984 286.135971 75.617746 L 286.617887 75.651898 Q 286.712752 75.659487 286.769671 75.731585 Q 286.929044 75.930801 287.160515 75.978234 Q 288.116756 76.171759 291.670406 76.832021 Q 294.886336 77.427774 298.627818 78.427653 Q 301.551563 79.207445 309.922467 81.577177 Q 314.565169 82.890111 319.302736 83.778049 Q 319.223049 84.747571 319.056086 85.834726 Q 319.002962 86.181933 319.014346 86.504474 Q 319.029524 86.883935 319.0466 87.17612 Q 316.320174 86.57088 313.614619 85.925797 Q 311.914635 85.519774 309.947132 84.977145 C 302.023992 82.793349 293.799181 80.53366 285.591445 79.547062 Q 277.852344 78.617383 273.909747 78.088036 Q 269.056444 77.435363 265.28081 76.604344 Q 259.843138 75.409043 253.500452 73.511739 C 249.821581 72.409406 241.346325 69.637445 235.21424 68.130986 Q 224.900498 65.594291 214.125711 65.863709 Q 208.522973 66.004109 202.948695 66.782003 Q 201.140565 67.034345 199.222391 67.476417 Q 193.824562 68.71915 189.976831 69.766462 L 189.785203 69.779743 Q 189.771922 69.78164 189.779511 69.794922 Q 189.783306 69.800614 189.788998 69.806305 Q 189.806073 69.827176 189.844019 69.823381 Q 202.889879 68.711561 215.685294 71.039553 C 220.760581 71.961642 225.251499 73.340982 230.501338 74.866414 Q 233.77229 75.816963 239.650136 77.196303 Q 246.398845 78.782449 254.887381 79.603981 Q 262.254611 80.317367 278.017409 81.630301 Q 286.532508 82.337996 295.041915 84.267553 Q 298.51398 85.054934 306.167703 87.043309 Q 311.673678 88.471978 318.688009 89.597079 L 318.255424 91.247733 Q 317.98411 91.287577 317.758331 91.249631 C 312.973331 90.456558 309.254616 89.682458 303.513375 88.333475 C 299.70359 87.43605 295.939339 86.468426 292.095402 85.715196 Q 283.506309 84.032288 274.833734 83.647135 Q 270.348508 83.447918 269.001423 83.444124 Q 263.334177 83.436534 257.141378 83.212653 C 249.815889 82.950825 242.486605 81.9832 235.288235 80.453973 C 229.376237 79.197958 222.540252 77.072978 216.161518 75.735379 Q 205.030037 73.401696 193.538069 74.172001 Q 188.995925 74.477467 185.002101 75.403351 Q 177.95172 77.038827 171 80.347724 L 171.136606 75.708817 C 171.732359 75.094091 172.312934 74.365526 173.094623 73.993654 Q 178.854837 71.257743 185.22788 69.997933 C 186.347289 69.777846 187.271276 69.787332 188.221825 69.421153 Q 189.307082 69.005643 191.147467 68.64895 Q 193.646216 68.167035 193.661394 68.165138 Q 201.781854 66.358905 204.92948 65.451994 Q 205.572666 65.266058 207.551554 64.569748 C 209.262922 63.968302 211.035003 63.611609 212.769139 63.078467 Q 215.305834 62.298675 216.759168 62.03495 Q 218.220092 61.76743 220.193288 62.053923 Q 221.997623 62.315751 224.151063 62.702801 Q 224.190906 62.71039 224.200393 62.668649 L 224.200393 62.666752 Q 224.207982 62.625011 224.168139 62.617422 L 219.618405 61.782609 L 218.673547 61.179266 C 218.631807 61.152704 218.605245 61.109066 218.60145 61.059736 Q 218.586272 60.833957 218.935375 60.758065 Z" style="fill:#f5f8ec;"/>
		<path d="M 220.301434 61.66877 Q 221.81738 61.719997 223.762116 62.283497 Q 224.646259 62.537735 226.035085 62.571887 Q 226.046469 62.5624 226.05975 62.552914 Q 227.0805 63.040521 228.180936 63.074672 Q 228.18473 63.074672 228.182833 63.082261 Q 228.180936 63.084159 228.180936 63.087953 Q 228.180936 63.091748 228.177141 63.091748 C 228.074687 63.095543 227.987411 63.091748 227.89634 63.061391 Q 227.848908 63.044315 227.84701 63.087953 Q 227.845113 63.09744 227.864086 63.133489 C 227.881162 63.171435 227.919108 63.194202 227.958951 63.1961 Q 228.349796 63.21697 228.60024 63.404803 C 228.786176 63.545204 229.034722 63.548998 229.228247 63.566074 Q 229.228247 63.564177 229.230145 63.564177 Q 229.220658 63.564177 229.211172 63.560382 Q 229.184609 63.547101 229.17702 63.547101 L 228.763408 63.45603 Q 228.602137 63.419982 228.765305 63.393419 Q 229.220658 63.317527 229.558378 63.482593 Q 230.011834 63.704577 230.250894 63.62489 L 230.918745 63.700782 L 231.42153 63.860156 Q 231.491731 63.881026 231.529677 63.943637 Q 231.59039 64.0404 231.732688 63.987275 Q 231.73838 63.985378 231.742175 63.989173 L 231.744072 63.992967 C 231.742175 63.985378 231.734585 63.979686 231.726996 63.981583 Q 231.641618 63.992967 231.632131 63.951227 C 231.628336 63.930356 231.645412 63.91328 231.666283 63.918972 L 233.074082 64.285152 L 232.552323 64.417963 C 232.495404 64.433142 232.43469 64.408477 232.402436 64.357249 Q 232.332236 64.245309 232.256344 64.237719 Q 231.98503 64.20926 232.22409 64.338276 Q 232.556118 64.51852 232.89953 64.501445 C 233.201201 64.486266 233.394726 64.510931 233.656554 64.548877 Q 233.827311 64.571645 234.185902 64.727224 Q 234.574849 64.894186 235.051072 64.846754 L 235.713231 64.854343 Q 235.686669 64.958695 235.610777 65.030792 Q 235.538679 65.095301 235.635442 65.099095 L 237.500491 65.154117 L 237.749038 65.207242 L 236.637218 65.32108 C 236.637218 65.32108 236.637218 65.32108 236.637218 65.32108 C 236.637218 65.322977 236.637218 65.322977 236.637218 65.322977 L 238.754609 65.529783 L 240.158613 65.850427 Q 239.927142 65.808687 239.779153 65.873195 Q 239.663417 65.924422 239.790537 65.932011 Q 239.976472 65.941498 240.116873 65.962368 Q 240.297117 65.987033 240.109284 65.988931 Q 239.982164 65.990828 239.779153 66.043952 Q 237.447367 65.687259 235.092813 65.402664 Q 234.633665 65.345745 234.172621 65.192063 C 232.616832 64.670305 230.328683 64.46919 228.167655 63.907589 C 227.059629 63.619198 226.050264 63.230251 224.968801 62.820434 C 224.232647 62.543427 223.619818 62.433384 222.718599 62.222783 C 222.113359 62.080485 221.088815 61.960955 220.301434 61.66877 Z M 231.307673 63.896907 C 231.307692 63.877232 231.279233 63.862053 231.244398 63.862053 C 231.209032 63.862053 231.18247 63.879129 231.182489 63.899297 C 231.18247 63.918972 231.21093 63.934151 231.245764 63.934151 C 231.28113 63.934151 231.307692 63.917075 231.307673 63.896907 Z" style="fill:#f9f1db;"/>
		<path d="M 228.539526 62.958937 Q 228.48071 63.029137 228.374461 63.038623 Q 228.321336 63.044315 228.374461 63.055699 Q 228.444661 63.070878 228.552807 63.105029 C 228.695105 63.150564 228.803251 63.099337 228.964522 63.190408 Q 229.091642 63.262505 228.947446 63.28717 Q 228.873452 63.298554 228.831711 63.309938 Q 228.71977 63.340295 228.837403 63.332706 L 229.450232 63.294759 L 230.034601 63.416187 Q 230.636047 63.577458 230.250894 63.62489 Q 230.011834 63.704577 229.558378 63.482593 Q 229.220658 63.317527 228.765305 63.393419 Q 228.602137 63.419982 228.763408 63.45603 L 229.17702 63.547101 Q 229.184609 63.547101 229.211172 63.560382 Q 229.220658 63.564177 229.230145 63.564177 Q 229.228247 63.564177 229.228247 63.566074 C 229.034722 63.548998 228.786176 63.545204 228.60024 63.404803 Q 228.349796 63.21697 227.958951 63.1961 C 227.919108 63.194202 227.881162 63.171435 227.864086 63.133489 Q 227.845113 63.09744 227.84701 63.087953 Q 227.848908 63.044315 227.89634 63.061391 C 227.987411 63.091748 228.074687 63.095543 228.177141 63.091748 Q 228.180936 63.091748 228.180936 63.087953 Q 228.180936 63.084159 228.182833 63.082261 Q 228.18473 63.074672 228.180936 63.074672 Q 227.0805 63.040521 226.05975 62.552914 Q 227.247462 62.642087 228.380153 62.915299 Q 228.391537 62.919093 228.38205 62.920991 Q 228.368769 62.922888 228.357385 62.930477 Q 228.334617 62.947553 228.366872 62.94945 L 228.539526 62.958937 Z" style="fill:#93bfc2;"/>
		<path d="M 229.450232 63.294759 L 228.837403 63.332706 Q 228.71977 63.340295 228.831711 63.309938 Q 228.873452 63.298554 228.947446 63.28717 Q 229.091642 63.262505 228.964522 63.190408 C 228.803251 63.099337 228.695105 63.150564 228.552807 63.105029 Q 228.444661 63.070878 228.374461 63.055699 Q 228.321336 63.044315 228.374461 63.038623 Q 228.48071 63.029137 228.539526 62.958937 Q 228.865862 63.006369 229.195993 63.010164 C 229.203582 63.010164 229.211172 63.015856 229.213069 63.021548 C 229.214966 63.02724 229.213069 63.032932 229.20548 63.032932 Q 229.195993 63.032932 229.194096 63.040521 Q 229.190301 63.050007 229.171328 63.04811 Q 229.08595 63.032932 229.03662 63.072775 Q 228.964522 63.129694 229.05749 63.125899 Q 229.298448 63.11831 229.450232 63.294759 Z" style="fill:#4a8493;"/>
		<path d="M 230.918745 63.700782 L 230.250894 63.62489 Q 230.636047 63.577458 230.034601 63.416187 Q 230.290737 63.311835 230.431138 63.41429 Q 230.503235 63.469311 230.594306 63.480695 L 231.135038 63.558485 Q 231.150216 63.560382 231.135038 63.571766 Q 231.13314 63.573663 231.131243 63.57556 Q 231.127448 63.579355 231.121756 63.579355 Q 230.990842 63.567971 230.846647 63.50536 C 230.827674 63.497771 230.812496 63.507257 230.814393 63.530025 C 230.814393 63.552793 230.831469 63.579355 230.850442 63.592636 Q 230.903566 63.630582 230.918745 63.700782 Z M 230.19777 63.423776 Q 230.23951 63.444646 230.273662 63.421879 Q 230.230024 63.4067 230.19777 63.423776 Z" style="fill:#4a8493;"/>
		<path d="M 233.074082 64.285152 L 235.02451 64.558364 Q 235.081429 64.770862 235.051072 64.846754 Q 234.574849 64.894186 234.185902 64.727224 Q 233.827311 64.571645 233.656554 64.548877 C 233.394726 64.510931 233.201201 64.486266 232.89953 64.501445 Q 232.556118 64.51852 232.22409 64.338276 Q 231.98503 64.20926 232.256344 64.237719 Q 232.332236 64.245309 232.402436 64.357249 C 232.43469 64.408477 232.495404 64.433142 232.552323 64.417963 L 233.074082 64.285152 Z" style="fill:#93bfc2;"/>
		<path d="M 235.713231 64.854343 L 235.051072 64.846754 Q 235.081429 64.770862 235.02451 64.558364 Q 235.252186 64.660818 235.36223 64.803116 Q 235.3831 64.827781 235.413457 64.8145 Q 235.449506 64.799321 235.458992 64.795527 Q 235.489349 64.784143 235.470376 64.757581 Q 235.398279 64.657023 235.381203 64.63805 Q 235.178191 64.416066 235.419149 64.586823 Q 235.696155 64.78604 235.999724 64.803116 C 236.001621 64.803116 236.001621 64.805013 236.001621 64.805013 C 236.001621 64.80691 236.001621 64.808808 235.999724 64.808808 L 235.713231 64.854343 Z" style="fill:#4a8493;"/>
		<path d="M 237.500491 65.154117 L 235.635442 65.099095 Q 235.538679 65.095301 235.610777 65.030792 Q 235.686669 64.958695 235.713231 64.854343 L 237.500491 65.154117 Z" style="fill:#93bfc2;"/>
		<path d="M 238.754609 65.529783 L 236.637218 65.322977 C 236.637218 65.322977 236.637218 65.322977 236.637218 65.32108 C 236.637218 65.32108 236.637218 65.32108 236.637218 65.32108 L 237.749038 65.207242 L 238.754609 65.529783 Z" style="fill:#93bfc2;"/>
		<path d="M 319.0466 87.17612 L 318.688009 89.597079 Q 311.673678 88.471978 306.167703 87.043309 Q 298.51398 85.054934 295.041915 84.267553 Q 286.532508 82.337996 278.017409 81.630301 Q 262.254611 80.317367 254.887381 79.603981 Q 246.398845 78.782449 239.650136 77.196303 Q 233.77229 75.816963 230.501338 74.866414 C 225.251499 73.340982 220.760581 71.961642 215.685294 71.039553 Q 202.889879 68.711561 189.844019 69.823381 Q 189.806073 69.827176 189.788998 69.806305 Q 189.783306 69.800614 189.779511 69.794922 Q 189.771922 69.78164 189.785203 69.779743 L 189.976831 69.766462 Q 193.824562 68.71915 199.222391 67.476417 Q 201.140565 67.034345 202.948695 66.782003 Q 208.522973 66.004109 214.125711 65.863709 Q 224.900498 65.594291 235.21424 68.130986 C 241.346325 69.637445 249.821581 72.409406 253.500452 73.511739 Q 259.843138 75.409043 265.28081 76.604344 Q 269.056444 77.435363 273.909747 78.088036 Q 277.852344 78.617383 285.591445 79.547062 C 293.799181 80.53366 302.023992 82.793349 309.947132 84.977145 Q 311.914635 85.519774 313.614619 85.925797 Q 316.320174 86.57088 319.0466 87.17612 Z" style="fill:#54a1af;"/>
		<path d="M 240.158613 65.850427 L 240.784724 66.007904 Q 240.786621 66.024979 240.788518 66.042055 Q 240.570328 66.032569 240.431825 66.09518 L 239.779153 66.043952 Q 239.982164 65.990828 240.109284 65.988931 Q 240.297117 65.987033 240.116873 65.962368 Q 239.976472 65.941498 239.790537 65.932011 Q 239.663417 65.924422 239.779153 65.873195 Q 239.927142 65.808687 240.158613 65.850427 Z" style="fill:#93bfc2;"/>
		<path d="M 240.788518 66.042055 Q 240.925124 66.015493 241.057935 66.081898 L 241.545542 66.220402 L 241.721992 66.271629 L 243.4751 66.755441 Q 241.93449 66.588479 240.431825 66.09518 Q 240.570328 66.032569 240.788518 66.042055 Z" style="fill:#f9f1db;"/>
		<path d="M 241.057935 66.081898 Q 240.925124 66.015493 240.788518 66.042055 Q 240.786621 66.024979 240.784724 66.007904 Q 240.993427 66.002212 241.057935 66.081898 Z" style="fill:#4a8493;"/>
		<path d="M 241.721992 66.271629 L 241.545542 66.220402 Q 241.723889 66.199531 241.721992 66.271629 Z" style="fill:#4a8493;"/>
		<path d="M 318.255424 91.247733 L 317.502195 95.068903 L 317.11135 95.196022 Q 317.025971 95.222584 316.940593 95.196022 C 313.859372 94.220808 311.823565 93.613671 308.839106 92.585332 Q 300.081153 89.562928 290.829901 87.303239 C 286.090436 86.143987 281.309231 85.720888 276.486285 86.439966 Q 274.873577 86.680924 272.763776 87.092639 C 272.135768 87.214066 271.450842 87.17612 270.805758 87.143866 Q 270.460449 87.12679 270.433887 87.229244 Q 269.107672 87.305137 268.473972 87.432256 Q 266.633588 87.796538 264.474456 88.37901 C 258.759778 89.921518 253.525117 91.321728 247.787671 92.350067 Q 242.376561 93.319589 236.17807 93.562444 C 228.364974 93.86791 220.153444 92.659327 212.414343 90.87017 Q 205.678915 89.312484 203.739871 88.870412 Q 197.905662 87.538505 191.737528 86.921881 Q 186.848177 86.43048 182.345876 86.796659 Q 177.069474 87.223552 171.779792 89.310586 Q 171.656467 88.81539 171.610932 88.447313 Q 171.09866 84.434516 171 80.347724 Q 177.95172 77.038827 185.002101 75.403351 Q 188.995925 74.477467 193.538069 74.172001 Q 205.030037 73.401696 216.161518 75.735379 C 222.540252 77.072978 229.376237 79.197958 235.288235 80.453973 C 242.486605 81.9832 249.815889 82.950825 257.141378 83.212653 Q 263.334177 83.436534 269.001423 83.444124 Q 270.348508 83.447918 274.833734 83.647135 Q 283.506309 84.032288 292.095402 85.715196 C 295.939339 86.468426 299.70359 87.43605 303.513375 88.333475 C 309.254616 89.682458 312.973331 90.456558 317.758331 91.249631 Q 317.98411 91.287577 318.255424 91.247733 Z" style="fill:#54a1af;"/>
		<path d="M 317.502195 95.068903 L 317.285902 95.869565 Q 316.957668 95.677937 316.551645 95.649478 Q 315.85913 95.600148 315.849643 95.598251 Q 309.034529 94.531966 301.91964 93.666795 Q 295.57316 92.89649 290.59084 92.547386 C 290.349883 92.530311 289.996984 92.463905 289.809151 92.399397 Q 283.242583 90.139708 277.389402 89.168289 Q 273.382297 88.504232 269.29171 87.834484 L 270.433887 87.229244 Q 270.460449 87.12679 270.805758 87.143866 C 271.450842 87.17612 272.135768 87.214066 272.763776 87.092639 Q 274.873577 86.680924 276.486285 86.439966 C 281.309231 85.720888 286.090436 86.143987 290.829901 87.303239 Q 300.081153 89.562928 308.839106 92.585332 C 311.823565 93.613671 313.859372 94.220808 316.940593 95.196022 Q 317.025971 95.222584 317.11135 95.196022 L 317.502195 95.068903 Z" style="fill:#93bfc2;"/>
		<path d="M 270.433887 87.229244 L 269.29171 87.834484 Q 267.422866 88.521308 266.641177 88.879898 C 261.842896 91.078873 257.090151 93.055864 252.348789 94.457971 Q 247.580865 95.869565 242.245647 96.491881 Q 232.778102 97.596111 223.206206 95.920792 C 216.698454 94.78241 210.29126 93.095707 204.468435 91.934557 Q 197.835462 90.614034 191.640766 90.274417 C 185.43848 89.932902 178.778945 90.752537 173.085137 93.317692 Q 172.730341 93.477065 172.631681 93.672487 C 172.608913 93.71992 172.603222 93.773044 172.614605 93.822374 L 172.986477 95.247249 C 173.030115 95.414212 173.202769 95.509077 173.367835 95.45785 C 181.700792 92.830085 191.024142 93.274054 199.341921 95.645683 Q 203.45907 96.820114 207.900658 98.614963 C 213.567904 100.905009 216.658611 102.24071 221.244394 103.724402 C 227.29869 105.682419 233.96202 106.699374 240.114975 106.225048 Q 251.823236 105.325726 262.793445 101.223756 C 266.136494 99.973433 269.303094 98.345546 272.500051 96.768887 Q 274.327154 95.867668 275.685623 95.393342 Q 277.499446 94.76154 279.366392 94.300495 Q 279.364495 94.302392 279.366392 94.302392 Q 279.355008 94.304289 279.341727 94.304289 Q 279.326549 94.302392 279.315165 94.306187 Q 276.093544 95.294682 273.279842 97.180602 Q 268.028106 100.701997 267.855451 100.812041 Q 260.127734 105.764003 251.265429 108.279828 C 244.598304 110.173337 237.48721 111.112502 230.730912 110.473111 Q 224.164344 109.850795 217.368203 107.58162 Q 212.932307 106.099826 209.828318 104.784995 Q 203.671568 102.174305 197.915149 100.472423 Q 190.155177 98.176686 182.317416 98.799002 Q 178.226829 99.123441 174.479655 100.698203 Q 174.111578 99.187949 173.635355 97.546781 Q 173.523414 97.165423 173.147748 96.173134 C 172.806233 95.275709 172.441951 94.143019 172.462821 93.28354 C 172.472308 92.831982 172.273091 92.501851 172.221864 92.048395 Q 172.056798 90.606445 171.779792 89.310586 Q 177.069474 87.223552 182.345876 86.796659 Q 186.848177 86.43048 191.737528 86.921881 Q 197.905662 87.538505 203.739871 88.870412 Q 205.678915 89.312484 212.414343 90.87017 C 220.153444 92.659327 228.364974 93.86791 236.17807 93.562444 Q 242.376561 93.319589 247.787671 92.350067 C 253.525117 91.321728 258.759778 89.921518 264.474456 88.37901 Q 266.633588 87.796538 268.473972 87.432256 Q 269.107672 87.305137 270.433887 87.229244 Z" style="fill:#f5f8ec;"/>
		<path d="M 269.29171 87.834484 Q 273.382297 88.504232 277.389402 89.168289 Q 283.242583 90.139708 289.809151 92.399397 C 289.996984 92.463905 290.349883 92.530311 290.59084 92.547386 Q 295.57316 92.89649 301.91964 93.666795 Q 309.034529 94.531966 315.849643 95.598251 Q 315.85913 95.600148 316.551645 95.649478 Q 316.957668 95.677937 317.285902 95.869565 L 315.813594 100.872755 Q 310.897681 98.152021 305.192489 97.749793 Q 295.546597 97.072455 287.092212 100.561597 Q 284.714891 101.5444 282.375516 102.766264 Q 278.265956 104.915908 276.359166 106.092237 Q 273.004733 108.160298 270.756429 109.450464 C 264.282829 113.167282 256.85868 115.354873 249.438325 116.400287 Q 243.755901 117.199052 238.989874 117.210436 C 235.33377 117.218025 231.865499 116.810105 228.175244 116.030313 Q 227.465652 115.880426 228.099352 116.22953 Q 230.463392 117.534875 232.812254 118.324153 C 237.506183 119.897018 242.452453 120.735626 247.375956 120.59902 Q 254.572429 120.4017 261.252835 118.159088 C 266.933362 116.2504 272.317909 113.444288 277.338175 110.199899 Q 278.865504 109.213301 280.601537 108.154606 Q 281.965698 107.323587 285.15886 105.978399 C 289.124225 104.308771 293.80677 103.578309 298.037757 103.616256 Q 305.769269 103.682661 313.375559 105.729852 Q 313.669641 105.809538 313.842296 106.103621 L 312.132825 110.097445 Q 306.864013 110.444651 301.830467 111.507141 C 296.791228 112.571529 291.863931 114.119728 287.067548 116.098616 C 280.335914 118.878166 274.160191 121.576131 267.576548 123.729571 C 257.296957 127.091593 246.199628 128.541133 235.373614 127.571611 Q 222.10577 126.382001 210.008562 121.189081 Q 208.930894 120.728037 200.136891 116.880305 C 193.335058 113.903436 186.278986 111.634261 178.809302 110.662841 C 178.570241 110.630587 178.433635 110.495878 178.262878 110.344094 Q 176.872155 107.276154 175.409334 103.485342 Q 175.342928 103.31079 175.365696 103.255768 Q 175.107662 102.081337 174.578315 100.999874 Q 174.532779 101.035923 174.479655 100.698203 Q 178.226829 99.123441 182.317416 98.799002 Q 190.155177 98.176686 197.915149 100.472423 Q 203.671568 102.174305 209.828318 104.784995 Q 212.932307 106.099826 217.368203 107.58162 Q 224.164344 109.850795 230.730912 110.473111 C 237.48721 111.112502 244.598304 110.173337 251.265429 108.279828 Q 260.127734 105.764003 267.855451 100.812041 Q 268.028106 100.701997 273.279842 97.180602 Q 276.093544 95.294682 279.315165 94.306187 Q 279.326549 94.302392 279.341727 94.304289 Q 279.355008 94.304289 279.366392 94.302392 Q 279.364495 94.302392 279.366392 94.300495 Q 277.499446 94.76154 275.685623 95.393342 Q 274.327154 95.867668 272.500051 96.768887 C 269.303094 98.345546 266.136494 99.973433 262.793445 101.223756 Q 251.823236 105.325726 240.114975 106.225048 C 233.96202 106.699374 227.29869 105.682419 221.244394 103.724402 C 216.658611 102.24071 213.567904 100.905009 207.900658 98.614963 Q 203.45907 96.820114 199.341921 95.645683 C 191.024142 93.274054 181.700792 92.830085 173.367835 95.45785 C 173.202769 95.509077 173.030115 95.414212 172.986477 95.247249 L 172.614605 93.822374 C 172.603222 93.773044 172.608913 93.71992 172.631681 93.672487 Q 172.730341 93.477065 173.085137 93.317692 C 178.778945 90.752537 185.43848 89.932902 191.640766 90.274417 Q 197.835462 90.614034 204.468435 91.934557 C 210.29126 93.095707 216.698454 94.78241 223.206206 95.920792 Q 232.778102 97.596111 242.245647 96.491881 Q 247.580865 95.869565 252.348789 94.457971 C 257.090151 93.055864 261.842896 91.078873 266.641177 88.879898 Q 267.422866 88.521308 269.29171 87.834484 Z" style="fill:#4a8493;"/>
		<path d="M 315.813594 100.872755 L 313.842296 106.103621 Q 313.669641 105.809538 313.375559 105.729852 Q 305.769269 103.682661 298.037757 103.616256 C 293.80677 103.578309 289.124225 104.308771 285.15886 105.978399 Q 281.965698 107.323587 280.601537 108.154606 Q 278.865504 109.213301 277.338175 110.199899 C 272.317909 113.444288 266.933362 116.2504 261.252835 118.159088 Q 254.572429 120.4017 247.375956 120.59902 C 242.452453 120.735626 237.506183 119.897018 232.812254 118.324153 Q 230.463392 117.534875 228.099352 116.22953 Q 227.465652 115.880426 228.175244 116.030313 C 231.865499 116.810105 235.33377 117.218025 238.989874 117.210436 Q 243.755901 117.199052 249.438325 116.400287 C 256.85868 115.354873 264.282829 113.167282 270.756429 109.450464 Q 273.004733 108.160298 276.359166 106.092237 Q 278.265956 104.915908 282.375516 102.766264 Q 284.714891 101.5444 287.092212 100.561597 Q 295.546597 97.072455 305.192489 97.749793 Q 310.897681 98.152021 315.813594 100.872755 Z" style="fill:#93bfc2;"/>
		<path d="M 175.365696 103.255768 Q 174.84204 102.176202 174.578315 100.999874 Q 175.107662 102.081337 175.365696 103.255768 Z" style="fill:#93bfc2;"/>
		<path d="M 312.132825 110.097445 L 310.262084 113.819954 Q 301.204357 115.239137 292.687361 118.44558 Q 291.087934 119.048923 289.171657 119.870455 Q 283.783315 122.183269 279.148202 124.205794 C 274.543447 126.215039 269.948177 127.990915 265.263735 129.208984 C 255.266842 131.812084 244.829775 132.555827 234.571054 131.935409 C 224.069479 131.30171 214.009975 128.78209 204.54243 124.537822 Q 198.924514 122.016306 193.765746 119.969115 Q 189.504402 118.274823 185.235469 117.229409 Q 183.516512 116.80631 181.733046 116.650731 L 178.262878 110.344094 C 178.433635 110.495878 178.570241 110.630587 178.809302 110.662841 C 186.278986 111.634261 193.335058 113.903436 200.136891 116.880305 Q 208.930894 120.728037 210.008562 121.189081 Q 222.10577 126.382001 235.373614 127.571611 C 246.199628 128.541133 257.296957 127.091593 267.576548 123.729571 C 274.160191 121.576131 280.335914 118.878166 287.067548 116.098616 C 291.863931 114.119728 296.791228 112.571529 301.830467 111.507141 Q 306.864013 110.444651 312.132825 110.097445 Z" style="fill:#f5f8ec;"/>
		<path d="M 310.262084 113.819954 Q 309.387427 115.28657 308.577278 116.633656 Q 307.103074 119.084972 305.471392 121.318098 Q 303.991496 121.727916 302.680459 122.355923 Q 300.358159 123.471538 299.33741 124.000885 Q 291.277664 128.173056 287.242099 130.30942 Q 284.559312 131.7305 281.189701 133.902913 Q 280.242947 134.515742 278.08761 136.082915 Q 275.945554 137.640601 273.723811 139.073065 Q 264.442202 145.057161 253.773664 147.616623 Q 248.893799 148.78726 242.458145 149.341272 C 238.784966 149.656225 235.309105 149.819393 231.998311 149.576538 Q 231.262157 149.523413 230.558257 149.489262 Q 229.937839 149.460802 228.62111 149.329888 Q 227.653485 149.233126 226.676374 149.231229 C 214.049819 146.260051 202.920236 139.651743 193.426129 130.816 Q 186.504765 124.372757 181.733046 116.650731 Q 183.516512 116.80631 185.235469 117.229409 Q 189.504402 118.274823 193.765746 119.969115 Q 198.924514 122.016306 204.54243 124.537822 C 214.009975 128.78209 224.069479 131.30171 234.571054 131.935409 C 244.829775 132.555827 255.266842 131.812084 265.263735 129.208984 C 269.948177 127.990915 274.543447 126.215039 279.148202 124.205794 Q 283.783315 122.183269 289.171657 119.870455 Q 291.087934 119.048923 292.687361 118.44558 Q 301.204357 115.239137 310.262084 113.819954 Z" style="fill:#4a8493;"/>
		<path d="M 305.471392 121.318098 C 305.063472 121.892981 304.67073 122.528578 304.281783 123.035158 Q 300.367646 128.137007 295.389121 132.521676 Q 290.59843 136.743176 285.794457 139.896495 Q 280.309352 143.497577 273.955282 146.265743 Q 268.322188 148.722751 262.522131 150.01102 Q 257.776975 151.064024 252.585952 151.544042 C 249.85004 151.796383 247.125512 151.809664 244.524309 151.786897 Q 238.447246 151.733772 232.216501 150.604876 Q 229.188404 150.054658 226.676374 149.231229 Q 227.653485 149.233126 228.62111 149.329888 Q 229.937839 149.460802 230.558257 149.489262 Q 231.262157 149.523413 231.998311 149.576538 C 235.309105 149.819393 238.784966 149.656225 242.458145 149.341272 Q 248.893799 148.78726 253.773664 147.616623 Q 264.442202 145.057161 273.723811 139.073065 Q 275.945554 137.640601 278.08761 136.082915 Q 280.242947 134.515742 281.189701 133.902913 Q 284.559312 131.7305 287.242099 130.30942 Q 291.277664 128.173056 299.33741 124.000885 Q 300.358159 123.471538 302.680459 122.355923 Q 303.991496 121.727916 305.471392 121.318098 Z" style="fill:#93bfc2;"/>
		<path d="M 220.020633 61.048978 C 220.020633 61.078709 219.912487 61.103374 219.778063 61.103374 C 219.64307 61.103374 219.534923 61.080606 219.534923 61.051521 C 219.534923 61.02179 219.64307 60.997125 219.777494 60.997125 C 219.912487 60.997125 220.020633 61.019892 220.020633 61.048978 Z" style="fill:#4a8493;"/>
		<path d="M 231.307673 63.896907 C 231.307692 63.917075 231.28113 63.934151 231.245764 63.934151 C 231.21093 63.934151 231.18247 63.918972 231.182489 63.899297 C 231.18247 63.879129 231.209032 63.862053 231.244398 63.862053 C 231.279233 63.862053 231.307692 63.877232 231.307673 63.896907 Z" style="fill:#93bfc2;"/>
	</g>
	<g id="surface4">
	</g>
</svg>
