<?xml version="1.0" encoding="utf-8"?>
<svg xmlns="http://www.w3.org/2000/svg" width="490pt" height="280pt" viewBox="0 0 490 280" version="1.1" xmlns:xlink="http://www.w3.org/1999/xlink">
	<g id="surface2">
		<path vector-effect="non-scaling-stroke" d="M 283.472713 58.159965 Q 283.369807 58.141805 283.291114 58.178125" style="fill:none;stroke-width:0.50;stroke:#182a39;"/>
		<path vector-effect="non-scaling-stroke" d="M 264.919393 58.164 L 263.165959 58.161983" style="fill:none;stroke-width:0.50;stroke:#182a39;"/>
		<path vector-effect="non-scaling-stroke" d="M 257.47587 58.321386 Q 256.795885 56.571986 256.725263 54.895226" style="fill:none;stroke-width:0.50;stroke:#182a39;"/>
		<path vector-effect="non-scaling-stroke" d="M 256.725263 54.895226 Q 270.343137 54.830658 283.789501 54.873031 Q 284.873039 54.877067 285.696286 54.59458 C 287.411384 54.009429 287.457792 52.486019 287.453757 50.922253 Q 287.40533 33.107435 287.45981 15.306741" style="fill:none;stroke-width:0.50;stroke:#276d7f;"/>
		<path vector-effect="non-scaling-stroke" d="M 287.45981 15.306741 Q 287.732208 14.463316 287.258034 13.805526 Q 287.104684 13.591643 286.414609 12.962102 C 285.990879 12.574691 285.605487 12.608993 285.000158 12.608993 Q 264.253532 12.629171 257.893547 12.617064 C 257.707913 12.617064 257.562634 12.77445 257.578776 12.960084 Q 257.615096 13.381796 257.546492 13.835792 Q 257.498066 14.156616 257.138904 14.02748 C 257.084425 14.007302 257.025909 13.997213 256.969412 13.999231 Q 255.252297 14.02748 250.849541 14.039586 C 250.149377 14.041604 249.199012 14.118279 248.363658 14.088013 Q 245.920149 13.999231 245.879794 13.999231 Q 238.18405 13.93668 232.945941 14.015373 Q 232.548442 14.021426 232.310346 14.075906 Q 231.93706 14.158634 231.862403 13.783331 L 231.656591 12.760325 Q 231.628342 12.611011 231.474992 12.611011 L 210.875663 12.611011 Q 210.736437 12.611011 210.700117 12.744183 Q 210.601247 13.10738 210.572998 13.845881 Q 210.371222 19.100133 210.449915 24.287798 C 210.568963 32.155051 210.530625 39.870972 210.47211 46.388343 Q 210.470092 46.626439 210.572998 46.914979 Q 210.583087 46.947263 210.619407 46.953316 Q 210.659762 46.961387 210.669851 46.961387 Q 210.728366 46.959369 210.746526 46.856464 L 210.776792 46.674865" style="fill:none;stroke-width:0.50;stroke:#182a39;"/>
		<path vector-effect="non-scaling-stroke" d="M 210.776792 46.674865 L 210.893822 53.938807" style="fill:none;stroke-width:0.50;stroke:#608994;"/>
		<path vector-effect="non-scaling-stroke" d="M 210.893822 53.938807 Q 210.817147 54.388768 210.885751 54.749948 Q 210.903911 54.8468 211.004799 54.8468 L 231.54965 54.8468 Q 231.622289 54.8468 231.622289 54.774161 L 231.624307 53.868186" style="fill:none;stroke-width:0.50;stroke:#276d7f;"/>
		<path vector-effect="non-scaling-stroke" d="M 231.624307 53.868186 Q 231.76555 52.732186 232.889443 52.730168 Q 239.263553 52.70999 240.123119 52.705955 C 240.199794 52.705955 240.258309 52.641386 240.252256 52.564712 Q 240.094871 50.829436 241.818039 50.716442 Q 243.153797 50.62766 246.557761 50.752761 C 247.677619 50.793117 247.978266 51.68295 247.994408 52.62928 C 247.994408 52.681742 248.036781 52.724115 248.089243 52.724115 Q 251.006926 52.718061 253.94277 52.722097 Q 253.971018 52.722097 254.614684 52.697884 Q 255.667956 52.659546 256.450847 53.105472" style="fill:none;stroke-width:0.50;stroke:#608994;"/>
		<path vector-effect="non-scaling-stroke" d="M 256.450847 53.105472 Q 256.214769 54.483603 256.271267 55.113145 Q 256.380226 56.293535 256.428652 57.233812 C 256.527522 59.120419 256.963359 60.912192 257.508155 62.597023 C 257.556581 62.748355 257.443586 62.903723 257.284183 62.903723 L 231.376122 62.903723 C 231.216719 62.903723 231.0896 62.77055 231.095653 62.611147 Q 231.121884 62.060298 231.321642 61.047382 Q 231.454815 60.369414 231.51333 59.550203 Q 231.598076 58.331475 231.74739 57.276185 Q 231.797834 56.921059 231.878545 55.553017 Q 231.878545 55.546963 231.876527 55.553017 Q 231.862403 55.623638 231.856349 55.54091 C 231.856349 55.530821 231.848278 55.52275 231.836172 55.520733 C 231.826083 55.520733 231.818012 55.528804 231.815994 55.538892 L 231.539561 57.586921 C 231.517365 57.752377 231.372087 57.873443 231.204612 57.867389 C 230.871682 57.853265 230.544804 57.774572 230.213891 57.768519 Q 226.828087 57.701933 223.361572 57.728164 Q 222.512095 57.736235 218.680365 57.988455 Q 217.776408 58.04697 217.158973 58.186196" style="fill:none;stroke-width:0.50;stroke:#182a39;"/>
		<path vector-effect="non-scaling-stroke" d="M 205.960395 58.143823 Q 204.909141 57.665613 203.843763 57.258025 Q 202.657319 56.804029 202.175074 56.432761 C 200.891777 55.448093 199.905092 53.402083 199.88895 52.082466 Q 199.818328 45.978737 199.868772 39.875008 Q 199.886932 37.824962 199.868772 35.841502 Q 199.790079 27.409276 199.876843 21.801916 Q 199.890968 20.990776 199.818328 18.434271 Q 199.767884 16.674783 199.882897 15.044432 Q 199.991856 13.4504 200.66377 12.48591 Q 201.686776 11.016979 203.547152 9.818429" style="fill:none;stroke-width:0.50;stroke:#182a39;"/>
		<path vector-effect="non-scaling-stroke" d="M 245.978664 70.385583 L 245.986735 78.515145" style="fill:none;stroke-width:0.50;stroke:#213444;"/>
		<path vector-effect="non-scaling-stroke" d="M 246.963332 80.312971 Q 247.078344 80.549049 247.276085 80.47641" style="fill:none;stroke-width:0.50;stroke:#213444;"/>
		<path vector-effect="non-scaling-stroke" d="M 248.660269 81.939287 L 249.316042 82.419514" style="fill:none;stroke-width:0.50;stroke:#213444;"/>
		<path vector-effect="non-scaling-stroke" d="M 251.28336 107.811028 Q 251.1744 108.357842 251.28336 108.890531" style="fill:none;stroke-width:0.50;stroke:#182a39;"/>
		<path vector-effect="non-scaling-stroke" d="M 251.277306 111.045501 Q 251.123956 111.75777 251.293448 112.427667" style="fill:none;stroke-width:0.50;stroke:#182a39;"/>
		<path vector-effect="non-scaling-stroke" d="M 249.033555 150.902349 L 249.053733 150.3515 Q 249.067857 150.018569 248.736944 150.048835 C 248.008532 150.117439 247.167126 150.347464 246.325719 150.37773 C 244.130394 150.458441 241.69092 150.553276 239.384618 150.345446 C 238.462501 150.2607 237.768391 150.036729 236.96734 149.822846 Q 236.729244 149.758278 236.729244 149.512111 L 236.620285 135.068972" style="fill:none;stroke-width:0.50;stroke:#182a39;"/>
		<path vector-effect="non-scaling-stroke" d="M 236.428597 86.985709 L 236.56177 82.203614" style="fill:none;stroke-width:0.50;stroke:#213444;"/>
		<path vector-effect="non-scaling-stroke" d="M 235.887837 78.559536 L 231.283305 73.749192" style="fill:none;stroke-width:0.50;stroke:#597b7f;"/>
		<path vector-effect="non-scaling-stroke" d="M 231.236896 73.722961 Q 231.325678 73.743139 231.263127 73.632162 Q 231.192506 73.509079 231.10776 73.539345" style="fill:none;stroke-width:0.50;stroke:#213444;"/>
		<path vector-effect="non-scaling-stroke" d="M 228.41203 70.258464 Q 228.543185 70.093008 228.236485 70.026422" style="fill:none;stroke-width:0.50;stroke:#213444;"/>
		<path vector-effect="non-scaling-stroke" d="M 227.376918 68.795587 Q 227.413238 68.626095 227.233657 68.571616" style="fill:none;stroke-width:0.50;stroke:#213444;"/>
		<path vector-effect="non-scaling-stroke" d="M 226.747377 67.829079 Q 226.805892 67.768546 226.759483 67.699942 Q 226.713075 67.633356 226.620258 67.631339" style="fill:none;stroke-width:0.50;stroke:#213444;"/>
		<path vector-effect="non-scaling-stroke" d="M 225.94229 66.424717 Q 226.099675 66.325847 225.825259 66.09784" style="fill:none;stroke-width:0.50;stroke:#213444;"/>
		<path vector-effect="non-scaling-stroke" d="M 225.742531 65.96265 Q 225.819206 65.960632 225.792975 65.855708 Q 225.766744 65.750785 225.677963 65.744731" style="fill:none;stroke-width:0.50;stroke:#213444;"/>
		<path vector-effect="non-scaling-stroke" d="M 225.355121 64.485648 C 225.201771 63.341577 225.389423 62.282252 225.970538 61.293549 Q 226.214687 60.87789 226.468925 60.464249" style="fill:none;stroke-width:0.50;stroke:#213444;"/>
		<path vector-effect="non-scaling-stroke" d="M 287.45981 15.306741 Q 287.516307 13.668318 285.998951 12.931835" style="fill:none;stroke-width:0.50;stroke:#205f6a;"/>
		<path vector-effect="non-scaling-stroke" d="M 285.998951 12.931835 Q 285.605487 12.851125 284.495718 12.849107 Q 264.096147 12.843054 257.91776 12.826911 C 257.851174 12.824894 257.796694 12.879373 257.796694 12.945959 L 257.796694 14.479458 C 257.796694 14.533938 257.752304 14.578329 257.697824 14.578329 L 231.690893 14.578329 C 231.640449 14.578329 231.598076 14.535956 231.598076 14.485512 L 231.598076 12.931835 C 231.598076 12.869284 231.547632 12.816823 231.485081 12.816823 L 210.96848 12.816823 C 210.865574 12.816823 210.782846 12.901569 210.782846 13.004475 L 210.776792 46.674865" style="fill:none;stroke-width:0.50;stroke:#597b7f;"/>
		<path vector-effect="non-scaling-stroke" d="M 256.725263 54.895226 Q 256.824133 54.618793 256.769654 53.892399" style="fill:none;stroke-width:0.50;stroke:#205f6a;"/>
		<path vector-effect="non-scaling-stroke" d="M 285.998951 12.931835 Q 286.002986 18.016595 285.932364 23.026697 Q 285.916222 24.182875 285.91824 25.339052 Q 285.944471 39.814475 285.926311 52.056236 C 285.924293 52.903696 285.829459 53.672463 284.91743 53.825813 Q 284.328244 53.924683 282.831065 53.930736 Q 269.830626 53.989251 256.769654 53.892399" style="fill:none;stroke-width:0.50;stroke:#68bec5;"/>
		<path vector-effect="non-scaling-stroke" d="M 256.769654 53.892399 L 256.450847 53.105472" style="fill:none;stroke-width:0.50;stroke:#597b7f;"/>
		<path vector-effect="non-scaling-stroke" d="M 231.624307 53.868186 L 210.893822 53.938807" style="fill:none;stroke-width:0.50;stroke:#68bec5;"/>
		<path vector-effect="non-scaling-stroke" d="M 236.602125 148.581922 L 236.592036 146.858754" style="fill:none;stroke-width:0.50;stroke:#182a39;"/>
		<path vector-effect="non-scaling-stroke" d="M 257.280147 7.086379 Q 257.300325 7.092433 257.298307 7.070237 Q 257.276112 6.658614 256.955288 6.317612 Q 256.64657 5.990735 256.08765 5.47217 Q 255.623565 5.044404 255.17764 4.917285 Q 254.550116 4.737705 253.896361 4.755864 Q 253.65423 4.761918 252.65342 4.941499 Q 251.935097 5.072653 251.101761 5.076689 Q 245.478259 5.096866 239.852739 5.076689 C 238.135624 5.068618 236.826097 5.131168 235.946352 4.761918 Q 235.449983 4.554088 235.230047 4.560142 C 233.775241 4.604532 233.026651 5.528667 232.312363 6.898727 Q 232.296221 6.928994 232.316399 7.023829 C 232.326488 7.072255 232.376932 7.100504 232.42334 7.084362 C 234.654985 6.28331 236.420526 6.347878 239.457258 6.331736 Q 245.470188 6.303488 252.312418 6.307523 Q 253.860041 6.307523 254.824531 6.47298 Q 256.000887 6.674756 257.280147 7.086379" style="fill:none;stroke-width:0.50;stroke:#284259;"/>
		<path vector-effect="non-scaling-stroke" d="M 203.934562 40.29672 Q 204.081859 40.619562 204.519713 40.476301" style="fill:none;stroke-width:0.50;stroke:#608994;"/>
		<path vector-effect="non-scaling-stroke" d="M 204.917212 35.938355 L 204.913177 33.470632" style="fill:none;stroke-width:0.50;stroke:#182a39;"/>
		<path vector-effect="non-scaling-stroke" d="M 204.106072 28.634057 Q 204.140374 28.484743 204.118178 28.313233" style="fill:none;stroke-width:0.50;stroke:#182a39;"/>
		<path vector-effect="non-scaling-stroke" d="M 247.572696 51.701109 Q 247.364866 51.196669 246.822088 51.174474 Q 244.745811 51.085692 241.581961 51.156314 Q 240.694146 51.174474 240.552902 51.959383 Q 240.534743 52.062289 240.637648 52.082466 Q 241.551695 52.258012 241.84427 52.253976 Q 244.885037 52.211603 247.320475 52.276172 Q 247.814827 52.290296 247.627175 51.832264 L 247.572696 51.701109" style="fill:none;stroke-width:0.50;stroke:#284259;"/>
		<path vector-effect="non-scaling-stroke" d="M 238.494786 79.941703 Q 238.510928 79.955827 238.648135 80.131373 Q 238.70665 80.20603 238.783325 80.147515 Q 239.261535 79.776247 239.64491 79.172936 C 239.733691 79.029675 239.70746 78.844041 239.580341 78.733064 Q 233.987106 73.874293 229.481444 67.764511 Q 228.724783 66.739488 228.230431 65.627701 C 227.796613 64.649087 227.623085 63.046984 228.307106 62.159169 Q 228.964897 61.305655 230.050453 60.978778 Q 230.332939 60.892014 230.861593 60.968689 Q 231.117849 61.005009 231.154168 60.746735 L 231.335767 59.396853 Q 231.374104 59.114366 231.091618 59.154721 C 230.022204 59.302018 229.267561 59.273769 228.627931 59.770139 C 227.590801 60.577243 226.694915 61.557876 226.418481 62.808888 C 225.934219 65.012284 227.298226 67.159182 228.559327 68.898493 Q 232.871283 74.842819 238.494786 79.941703" style="fill:none;stroke-width:0.50;stroke:#213444;"/>
		<path vector-effect="non-scaling-stroke" d="M 231.444726 68.460639 Q 231.789763 69.182997 232.437465 69.697527" style="fill:none;stroke-width:0.50;stroke:#213444;"/>
		<path vector-effect="non-scaling-stroke" d="M 234.644896 72.256049 Q 235.121088 72.976389 235.83134 73.525221" style="fill:none;stroke-width:0.50;stroke:#213444;"/>
		<path vector-effect="non-scaling-stroke" d="M 236.012939 73.712873 Q 236.154182 73.995359 236.434651 74.12046" style="fill:none;stroke-width:0.50;stroke:#213444;"/>
		<path vector-effect="non-scaling-stroke" d="M 236.870487 74.570421 L 238.127553 75.785114" style="fill:none;stroke-width:0.50;stroke:#213444;"/>
		<path vector-effect="non-scaling-stroke" d="M 238.381791 76.02321 Q 238.755077 76.570023 239.305926 76.93322" style="fill:none;stroke-width:0.50;stroke:#182a39;"/>
		<path vector-effect="non-scaling-stroke" d="M 237.467745 65.333108 L 236.170324 65.300824" style="fill:none;stroke-width:0.50;stroke:#182a39;"/>
		<path vector-effect="non-scaling-stroke" d="M 243.159851 64.203161 Q 246.805946 64.205179 250.211928 64.269747 Q 250.895949 64.281854 250.397562 63.811716 Q 250.335011 63.751183 250.042436 63.745129 Q 245.661875 63.678543 243.159851 63.676526 Q 240.657826 63.676526 236.277265 63.737058 Q 235.98469 63.743112 235.922139 63.803645 Q 235.421734 64.271765 236.105756 64.261676 Q 239.513755 64.201144 243.159851 64.203161" style="fill:none;stroke-width:0.50;stroke:#213444;"/>
		<path vector-effect="non-scaling-stroke" d="M 239.429009 65.234238 Q 239.475418 67.268141 240.341038 69.112376" style="fill:none;stroke-width:0.50;stroke:#205f6a;"/>
		<path vector-effect="non-scaling-stroke" d="M 240.341038 69.112376 L 241.696973 69.429164" style="fill:none;stroke-width:0.50;stroke:#182a39;"/>
		<path vector-effect="non-scaling-stroke" d="M 241.696973 69.429164 L 241.15016 69.634976" style="fill:none;stroke-width:0.50;stroke:#213444;"/>
		<path vector-effect="non-scaling-stroke" d="M 241.15016 69.634976 Q 241.170338 70.504631 241.144107 72.562748 Q 241.127965 73.819814 241.188497 78.210463 Q 241.202622 79.219344 240.750643 80.365433" style="fill:none;stroke-width:0.50;stroke:#205f6a;"/>
		<path vector-effect="non-scaling-stroke" d="M 240.750643 80.365433 L 241.357989 80.490534" style="fill:none;stroke-width:0.50;stroke:#213444;"/>
		<path vector-effect="non-scaling-stroke" d="M 241.357989 80.490534 L 241.781719 80.601511 Q 241.884625 80.62976 241.850323 80.72863 L 241.828128 80.791181 C 241.811986 80.837589 241.767595 80.869873 241.719169 80.871891 L 239.299872 81.009099" style="fill:none;stroke-width:0.50;stroke:#182a39;"/>
		<path vector-effect="non-scaling-stroke" d="M 239.299872 81.009099 Q 238.894302 81.128147 238.987119 81.652765 Q 239.007297 81.767777 239.122309 81.769795 L 244.239353 81.870683" style="fill:none;stroke-width:0.50;stroke:#213444;"/>
		<path vector-effect="non-scaling-stroke" d="M 244.239353 81.870683 L 246.791822 81.858577 C 246.971403 81.858577 247.100539 81.683031 247.048078 81.511522 C 246.955261 81.208857 246.884639 81.025241 246.583992 80.853731 C 245.609413 80.292794 245.042422 79.112403 244.965747 78.028865 Q 244.689314 74.136602 244.860824 70.843615 Q 244.874948 70.573235 244.998032 69.735864 Q 245.000049 69.711651 244.98189 69.419075 Q 244.967765 69.185015 245.25227 69.092198 Q 245.629591 68.969115 245.996824 68.80164 Q 246.089641 68.761285 246.123943 68.66645 C 246.479069 67.679765 246.489158 66.44893 246.606188 65.542955 C 246.620312 65.417854 246.52346 65.308895 246.398358 65.306877 L 239.429009 65.234238" style="fill:none;stroke-width:0.50;stroke:#182a39;"/>
		<path vector-effect="non-scaling-stroke" d="M 244.239353 81.870683 L 246.745413 81.798044 Q 247.011758 81.789973 246.959296 81.529682 L 246.908852 81.279479 C 246.882621 81.138236 246.761555 81.03533 246.618294 81.029277 Q 242.990359 80.849696 239.299872 81.009099" style="fill:none;stroke-width:0.50;stroke:#284259;"/>
		<path vector-effect="non-scaling-stroke" d="M 241.357989 80.490534 L 242.336604 80.347273 C 242.481883 80.325078 242.59286 80.208048 242.606984 80.062769 Q 242.764369 78.355742 242.764369 76.640645 C 242.766387 73.337569 242.816831 71.317789 242.681641 69.873072 C 242.669535 69.743935 242.576718 69.636994 242.449599 69.606727 L 241.696973 69.429164" style="fill:none;stroke-width:0.50;stroke:#284259;"/>
		<path vector-effect="non-scaling-stroke" d="M 240.341038 69.112376 L 239.429009 65.234238" style="fill:none;stroke-width:0.50;stroke:#276d7f;"/>
		<path vector-effect="non-scaling-stroke" d="M 240.750643 80.365433 Q 241.138053 80.45825 241.222799 80.179799 Q 241.491162 79.291984 241.462913 78.371884 C 241.374132 75.438059 241.436682 72.621263 241.424576 70.09099 Q 241.422558 69.66726 241.15016 69.634976" style="fill:none;stroke-width:0.50;stroke:#307789;"/>
		<path vector-effect="non-scaling-stroke" d="M 237.023837 82.911848 Q 237.009713 83.004665 236.959269 83.178193 Q 236.918914 83.319436 236.916896 83.44252 Q 236.902771 84.608786 236.900754 86.836395 C 236.900754 86.965532 236.830132 87.086597 236.717137 87.153184 Q 235.447965 87.885631 235.102928 89.122519 Q 234.967738 89.6088 234.963702 91.527691 Q 234.951596 97.026092 235.008093 102.52651 Q 235.034324 105.044677 235.024235 106.562034 Q 234.955631 115.817507 234.969756 125.074998 C 234.971773 125.787268 235.13723 126.899055 235.905997 127.225932" style="fill:none;stroke-width:0.50;stroke:#213444;"/>
		<path vector-effect="non-scaling-stroke" d="M 235.905997 127.225932 C 236.0654 127.861527 236.664676 128.184369 237.096477 128.513264 Q 237.177187 128.573797 237.278075 128.581868 C 240.278487 128.85023 243.763161 128.755395 246.406429 128.731182 Q 247.582784 128.721094 248.426209 128.541513 C 249.219189 128.374038 249.628795 127.694053 250.058578 127.30866 C 250.696191 126.733598 250.847523 126.162572 250.857612 125.37968 Q 250.9585 118.416384 250.916127 112.817095 C 250.865683 106.20489 250.92218 99.181061 250.92218 90.117276 Q 250.924198 88.228651 248.914507 86.870697" style="fill:none;stroke-width:0.50;stroke:#182a39;"/>
		<path vector-effect="non-scaling-stroke" d="M 248.914507 86.870697 Q 249.031537 84.897326 248.860028 82.903777" style="fill:none;stroke-width:0.50;stroke:#213444;"/>
		<path vector-effect="non-scaling-stroke" d="M 248.860028 82.903777 Q 248.773264 82.679806 248.327339 82.679806 Q 243.240561 82.683841 238.153784 82.683841 Q 238.137642 82.683841 237.717947 82.663664 Q 237.167098 82.637433 237.023837 82.911848" style="fill:none;stroke-width:0.50;stroke:#205f6a;"/>
		<path vector-effect="non-scaling-stroke" d="M 248.860028 82.903777 L 237.023837 82.911848" style="fill:none;stroke-width:0.50;stroke:#307789;"/>
		<path vector-effect="non-scaling-stroke" d="M 248.914507 86.870697 L 244.48552 87.026065 Q 244.112234 87.040189 244.382614 87.296445 C 245.443957 88.30129 245.641698 89.616871 245.63968 91.083783 Q 245.635644 93.664501 245.635644 122.506387 Q 245.635644 123.846181 245.742586 125.083069 C 245.801101 125.752966 246.023055 126.2453 246.174387 126.856682 Q 246.249044 127.161364 245.936291 127.163381 L 235.905997 127.225932" style="fill:none;stroke-width:0.50;stroke:#284259;"/>
		<path vector-effect="non-scaling-stroke" d="M 237.824889 149.302263 C 240.391482 149.982249 243.339431 150.024622 245.865669 149.768366 Q 247.193356 149.635194 248.367694 149.23366 C 248.537186 149.177162 248.656234 149.023812 248.670358 148.844232 C 248.763175 147.58313 248.700624 146.172715 248.742997 144.55447 Q 248.884241 139.276005 248.829761 137.990691 C 248.734926 135.829668 248.732909 133.174294 248.674394 130.177918 C 248.672376 130.044745 248.553328 129.943857 248.422173 129.964035 Q 245.048476 130.476546 241.636441 130.242486 Q 237.691716 129.972106 237.280093 129.959999 Q 237.181223 129.955964 237.173152 130.056852 Q 237.132796 130.656127 237.150956 132.992695 C 237.187276 138.087544 237.118672 143.190463 237.209471 148.396288 C 237.217542 148.860374 237.378963 149.183215 237.824889 149.302263" style="fill:none;stroke-width:0.50;stroke:#182a39;"/>
		<path vector-effect="non-scaling-stroke" d="M 241.751453 111.390538 Q 241.477037 111.664953 241.781719 111.42484 C 242.812796 110.611682 242.843062 109.590694 242.828938 108.378019 Q 242.794636 105.325146 242.794636 102.122958 C 242.796654 101.352173 242.820867 100.585424 242.144917 100.095107 C 242.128774 100.083001 242.104561 100.089054 242.104561 100.105196 Q 242.102544 100.145552 242.108597 100.151605 C 242.770423 100.631832 242.677606 101.721423 242.679623 102.52651 Q 242.683659 103.91473 242.661464 105.512798 C 242.649357 106.334027 242.715943 107.520471 242.677606 108.525316 C 242.627162 109.832826 242.623126 110.520882 241.751453 111.390538" style="fill:none;stroke-width:0.50;stroke:#213444;"/>
		<path vector-effect="non-scaling-stroke" d="M 236.670729 109.060023 Q 236.52545 108.737181 236.519397 108.430481 Q 236.464917 105.912315 236.527468 103.694794 C 236.590018 101.390511 239.467347 101.085828 240.653791 102.73434 Q 240.944348 103.135874 241.000846 104.027725 Q 241.06945 105.083015 241.085592 105.428052 Q 241.087609 105.460336 241.11384 105.4563 L 241.115858 105.4563 Q 241.138053 105.452265 241.138053 105.428052 Q 241.176391 104.051938 241.023041 103.12175 Q 240.901975 102.381232 240.195759 101.790027 C 239.465329 101.180663 238.101322 101.239178 237.306324 101.642731 Q 236.196555 102.207704 236.105756 103.382041 Q 236.00285 104.697622 236.04724 107.88165 C 236.055312 108.478908 236.182431 109.467611 236.648533 109.782382 Q 237.195347 110.15365 236.929002 109.618943 Q 236.864434 109.487788 236.670729 109.060023" style="fill:none;stroke-width:0.50;stroke:#213444;"/>
		<path d="M 283.472713 58.159965 Q 283.369807 58.141805 283.291114 58.178125 L 264.919393 58.164 L 263.165959 58.161983 Q 258.90041 58.172071 257.810819 58.151894 Q 257.496048 58.145841 257.47587 58.321386 Q 256.795885 56.571986 256.725263 54.895226 Q 270.343137 54.830658 283.789501 54.873031 Q 284.873039 54.877067 285.696286 54.59458 C 287.411384 54.009429 287.457792 52.486019 287.453757 50.922253 Q 287.40533 33.107435 287.45981 15.306741 Q 287.732208 14.463316 287.258034 13.805526 Q 287.104684 13.591643 286.414609 12.962102 C 285.990879 12.574691 285.605487 12.608993 285.000158 12.608993 Q 264.253532 12.629171 257.893547 12.617064 C 257.707913 12.617064 257.562634 12.77445 257.578776 12.960084 Q 257.615096 13.381796 257.546492 13.835792 Q 257.498066 14.156616 257.138904 14.02748 C 257.084425 14.007302 257.025909 13.997213 256.969412 13.999231 Q 255.252297 14.02748 250.849541 14.039586 C 250.149377 14.041604 249.199012 14.118279 248.363658 14.088013 Q 245.920149 13.999231 245.879794 13.999231 Q 238.18405 13.93668 232.945941 14.015373 Q 232.548442 14.021426 232.310346 14.075906 Q 231.93706 14.158634 231.862403 13.783331 L 231.656591 12.760325 Q 231.628342 12.611011 231.474992 12.611011 L 210.875663 12.611011 Q 210.736437 12.611011 210.700117 12.744183 Q 210.601247 13.10738 210.572998 13.845881 Q 210.371222 19.100133 210.449915 24.287798 C 210.568963 32.155051 210.530625 39.870972 210.47211 46.388343 Q 210.470092 46.626439 210.572998 46.914979 Q 210.583087 46.947263 210.619407 46.953316 Q 210.659762 46.961387 210.669851 46.961387 Q 210.728366 46.959369 210.746526 46.856464 L 210.776792 46.674865 L 210.893822 53.938807 Q 210.817147 54.388768 210.885751 54.749948 Q 210.903911 54.8468 211.004799 54.8468 L 231.54965 54.8468 Q 231.622289 54.8468 231.622289 54.774161 L 231.624307 53.868186 Q 231.76555 52.732186 232.889443 52.730168 Q 239.263553 52.70999 240.123119 52.705955 C 240.199794 52.705955 240.258309 52.641386 240.252256 52.564712 Q 240.094871 50.829436 241.818039 50.716442 Q 243.153797 50.62766 246.557761 50.752761 C 247.677619 50.793117 247.978266 51.68295 247.994408 52.62928 C 247.994408 52.681742 248.036781 52.724115 248.089243 52.724115 Q 251.006926 52.718061 253.94277 52.722097 Q 253.971018 52.722097 254.614684 52.697884 Q 255.667956 52.659546 256.450847 53.105472 Q 256.214769 54.483603 256.271267 55.113145 Q 256.380226 56.293535 256.428652 57.233812 C 256.527522 59.120419 256.963359 60.912192 257.508155 62.597023 C 257.556581 62.748355 257.443586 62.903723 257.284183 62.903723 L 231.376122 62.903723 C 231.216719 62.903723 231.0896 62.77055 231.095653 62.611147 Q 231.121884 62.060298 231.321642 61.047382 Q 231.454815 60.369414 231.51333 59.550203 Q 231.598076 58.331475 231.74739 57.276185 Q 231.797834 56.921059 231.878545 55.553017 Q 231.878545 55.546963 231.876527 55.553017 Q 231.862403 55.623638 231.856349 55.54091 C 231.856349 55.530821 231.848278 55.52275 231.836172 55.520733 C 231.826083 55.520733 231.818012 55.528804 231.815994 55.538892 L 231.539561 57.586921 C 231.517365 57.752377 231.372087 57.873443 231.204612 57.867389 C 230.871682 57.853265 230.544804 57.774572 230.213891 57.768519 Q 226.828087 57.701933 223.361572 57.728164 Q 222.512095 57.736235 218.680365 57.988455 Q 217.776408 58.04697 217.158973 58.186196 L 205.960395 58.143823 Q 204.909141 57.665613 203.843763 57.258025 Q 202.657319 56.804029 202.175074 56.432761 C 200.891777 55.448093 199.905092 53.402083 199.88895 52.082466 Q 199.818328 45.978737 199.868772 39.875008 Q 199.886932 37.824962 199.868772 35.841502 Q 199.790079 27.409276 199.876843 21.801916 Q 199.890968 20.990776 199.818328 18.434271 Q 199.767884 16.674783 199.882897 15.044432 Q 199.991856 13.4504 200.66377 12.48591 Q 201.686776 11.016979 203.547152 9.818429 Q 204.673063 9.297846 205.752565 9.295828 Q 219.33412 9.26758 231.376122 9.303899 Q 231.608165 9.305917 231.624307 9.073875 C 231.670715 8.393889 231.555703 7.665477 231.904776 6.973385 C 232.647312 5.498401 233.357564 4.739722 234.860797 4.229229 Q 235.437876 4.031488 236.797848 4.037541 Q 240.964526 4.053683 253.272873 4.035524 C 255.157462 4.033506 256.840275 5.30066 257.536403 6.967331 Q 257.778535 7.544411 257.790641 8.064994 Q 257.802748 8.486706 257.843103 9.203011 C 257.847139 9.259509 257.891529 9.301882 257.948027 9.301882 Q 267.750313 9.273633 282.631306 9.289775 Q 284.604677 9.289775 285.450119 9.473391 C 287.716066 9.965725 289.419057 11.472993 290.258446 13.692531 C 290.44408 14.18083 290.454169 14.729661 290.571199 15.290599 Q 290.615589 15.500446 290.613572 15.940318 Q 290.567163 32.1833 290.627696 50.165593 Q 290.631732 51.779802 290.361351 53.113543 Q 290.068776 54.546154 288.763284 55.900072 Q 286.632528 58.111539 283.472713 58.159965 Z M 257.280147 7.086379 Q 257.300325 7.092433 257.298307 7.070237 Q 257.276112 6.658614 256.955288 6.317612 Q 256.64657 5.990735 256.08765 5.47217 Q 255.623565 5.044404 255.17764 4.917285 Q 254.550116 4.737705 253.896361 4.755864 Q 253.65423 4.761918 252.65342 4.941499 Q 251.935097 5.072653 251.101761 5.076689 Q 245.478259 5.096866 239.852739 5.076689 C 238.135624 5.068618 236.826097 5.131168 235.946352 4.761918 Q 235.449983 4.554088 235.230047 4.560142 C 233.775241 4.604532 233.026651 5.528667 232.312363 6.898727 Q 232.296221 6.928994 232.316399 7.023829 C 232.326488 7.072255 232.376932 7.100504 232.42334 7.084362 C 234.654985 6.28331 236.420526 6.347878 239.457258 6.331736 Q 245.470188 6.303488 252.312418 6.307523 Q 253.860041 6.307523 254.824531 6.47298 Q 256.000887 6.674756 257.280147 7.086379 Z M 203.934562 40.29672 Q 204.081859 40.619562 204.519713 40.476301 Q 204.866768 40.252329 204.88291 39.921416 Q 204.93739 38.644173 204.917212 35.938355 L 204.913177 33.470632 Q 204.897034 30.639712 204.862733 27.808793 Q 204.860715 27.611052 204.733596 27.492004 Q 204.654903 27.417347 204.632708 27.524288 C 204.370399 28.853993 204.517695 30.75876 204.493482 31.939151 Q 204.436985 34.586454 204.416807 39.826582 Q 204.416807 39.887114 204.350221 39.933523 C 204.330043 39.947647 204.336097 39.979931 204.36031 39.983967 Q 204.390576 39.988002 204.412772 40.02634 C 204.430932 40.056606 204.42286 40.094944 204.39663 40.119157 Q 204.356274 40.155477 204.285653 40.171619 Q 204.168622 40.19785 204.168622 40.078802 L 204.106072 28.634057 Q 204.140374 28.484743 204.118178 28.313233 Q 204.039486 27.822917 204.418825 27.623158 C 204.473305 27.592892 204.501553 27.530341 204.485411 27.469809 Q 204.47734 27.437524 204.473305 27.40524 Q 204.451109 27.292246 204.338114 27.274086 C 203.563294 27.151002 203.680324 28.184096 203.678306 28.726874 Q 203.662164 34.124387 203.690413 39.519882 Q 203.694448 39.992038 203.934562 40.29672 Z M 247.572696 51.701109 Q 247.364866 51.196669 246.822088 51.174474 Q 244.745811 51.085692 241.581961 51.156314 Q 240.694146 51.174474 240.552902 51.959383 Q 240.534743 52.062289 240.637648 52.082466 Q 241.551695 52.258012 241.84427 52.253976 Q 244.885037 52.211603 247.320475 52.276172 Q 247.814827 52.290296 247.627175 51.832264 L 247.572696 51.701109 Z" style="fill:#1f384e;"/>
		<path d="M 203.547152 9.818429 Q 201.686776 11.016979 200.66377 12.48591 Q 199.991856 13.4504 199.882897 15.044432 Q 199.767884 16.674783 199.818328 18.434271 Q 199.890968 20.990776 199.876843 21.801916 Q 199.790079 27.409276 199.868772 35.841502 Q 199.886932 37.824962 199.868772 39.875008 Q 199.818328 45.978737 199.88895 52.082466 C 199.905092 53.402083 200.891777 55.448093 202.175074 56.432761 Q 202.657319 56.804029 203.843763 57.258025 Q 204.909141 57.665613 205.960395 58.143823 Q 202.962001 57.873443 201.018896 55.601443 Q 199.654889 54.007411 199.608481 51.981578 Q 199.523735 48.472691 199.529788 46.987618 C 199.547948 41.196642 199.459167 34.392749 199.523735 27.566661 Q 199.568126 22.980289 199.570143 15.770826 Q 199.570143 14.291807 200.030193 13.220375 Q 200.355053 12.459679 201.216637 11.43062 Q 202.169021 10.292603 203.547152 9.818429 Z" style="fill:#111c24;"/>
		<path d="M 287.45981 15.306741 Q 287.516307 13.668318 285.998951 12.931835 Q 285.605487 12.851125 284.495718 12.849107 Q 264.096147 12.843054 257.91776 12.826911 C 257.851174 12.824894 257.796694 12.879373 257.796694 12.945959 L 257.796694 14.479458 C 257.796694 14.533938 257.752304 14.578329 257.697824 14.578329 L 231.690893 14.578329 C 231.640449 14.578329 231.598076 14.535956 231.598076 14.485512 L 231.598076 12.931835 C 231.598076 12.869284 231.547632 12.816823 231.485081 12.816823 L 210.96848 12.816823 C 210.865574 12.816823 210.782846 12.901569 210.782846 13.004475 L 210.776792 46.674865 L 210.746526 46.856464 Q 210.728366 46.959369 210.669851 46.961387 Q 210.659762 46.961387 210.619407 46.953316 Q 210.583087 46.947263 210.572998 46.914979 Q 210.470092 46.626439 210.47211 46.388343 C 210.530625 39.870972 210.568963 32.155051 210.449915 24.287798 Q 210.371222 19.100133 210.572998 13.845881 Q 210.601247 13.10738 210.700117 12.744183 Q 210.736437 12.611011 210.875663 12.611011 L 231.474992 12.611011 Q 231.628342 12.611011 231.656591 12.760325 L 231.862403 13.783331 Q 231.93706 14.158634 232.310346 14.075906 Q 232.548442 14.021426 232.945941 14.015373 Q 238.18405 13.93668 245.879794 13.999231 Q 245.920149 13.999231 248.363658 14.088013 C 249.199012 14.118279 250.149377 14.041604 250.849541 14.039586 Q 255.252297 14.02748 256.969412 13.999231 C 257.025909 13.997213 257.084425 14.007302 257.138904 14.02748 Q 257.498066 14.156616 257.546492 13.835792 Q 257.615096 13.381796 257.578776 12.960084 C 257.562634 12.77445 257.707913 12.617064 257.893547 12.617064 Q 264.253532 12.629171 285.000158 12.608993 C 285.605487 12.608993 285.990879 12.574691 286.414609 12.962102 Q 287.104684 13.591643 287.258034 13.805526 Q 287.732208 14.463316 287.45981 15.306741 Z" style="fill:#111c24;"/>
		<path d="M 285.998951 12.931835 Q 286.002986 18.016595 285.932364 23.026697 Q 285.916222 24.182875 285.91824 25.339052 Q 285.944471 39.814475 285.926311 52.056236 C 285.924293 52.903696 285.829459 53.672463 284.91743 53.825813 Q 284.328244 53.924683 282.831065 53.930736 Q 269.830626 53.989251 256.769654 53.892399 L 256.450847 53.105472 Q 255.667956 52.659546 254.614684 52.697884 Q 253.971018 52.722097 253.94277 52.722097 Q 251.006926 52.718061 248.089243 52.724115 C 248.036781 52.724115 247.994408 52.681742 247.994408 52.62928 C 247.978266 51.68295 247.677619 50.793117 246.557761 50.752761 Q 243.153797 50.62766 241.818039 50.716442 Q 240.094871 50.829436 240.252256 52.564712 C 240.258309 52.641386 240.199794 52.705955 240.123119 52.705955 Q 239.263553 52.70999 232.889443 52.730168 Q 231.76555 52.732186 231.624307 53.868186 L 210.893822 53.938807 L 210.776792 46.674865 L 210.782846 13.004475 C 210.782846 12.901569 210.865574 12.816823 210.96848 12.816823 L 231.485081 12.816823 C 231.547632 12.816823 231.598076 12.869284 231.598076 12.931835 L 231.598076 14.485512 C 231.598076 14.535956 231.640449 14.578329 231.690893 14.578329 L 257.697824 14.578329 C 257.752304 14.578329 257.796694 14.533938 257.796694 14.479458 L 257.796694 12.945959 C 257.796694 12.879373 257.851174 12.824894 257.91776 12.826911 Q 264.096147 12.843054 284.495718 12.849107 Q 285.605487 12.851125 285.998951 12.931835 Z" style="fill:#a1d9da;"/>
		<path d="M 287.45981 15.306741 Q 287.40533 33.107435 287.453757 50.922253 C 287.457792 52.486019 287.411384 54.009429 285.696286 54.59458 Q 284.873039 54.877067 283.789501 54.873031 Q 270.343137 54.830658 256.725263 54.895226 Q 256.824133 54.618793 256.769654 53.892399 Q 269.830626 53.989251 282.831065 53.930736 Q 284.328244 53.924683 284.91743 53.825813 C 285.829459 53.672463 285.924293 52.903696 285.926311 52.056236 Q 285.944471 39.814475 285.91824 25.339052 Q 285.916222 24.182875 285.932364 23.026697 Q 286.002986 18.016595 285.998951 12.931835 Q 287.516307 13.668318 287.45981 15.306741 Z" style="fill:#2ea2af;"/>
		<path d="M 256.450847 53.105472 L 256.769654 53.892399 Q 256.824133 54.618793 256.725263 54.895226 Q 256.795885 56.571986 257.47587 58.321386 Q 257.766428 59.842778 258.319295 61.275389 Q 258.619941 62.05021 258.577568 62.405336 C 258.490805 63.125677 257.871352 63.787502 257.10662 63.799609 Q 254.261576 63.841982 251.759551 63.77136 Q 251.656645 63.769343 251.630415 63.868213 Q 251.567864 64.098238 251.549704 64.350458 C 251.519438 64.770152 251.416532 64.82665 251.206685 65.105101 Q 251.144134 65.187829 251.03921 65.199936 Q 249.457285 65.399694 248.303125 65.292753 C 248.141704 65.278628 247.996426 65.395659 247.97423 65.557079 Q 247.887466 66.224959 247.806756 66.505428 Q 247.724028 66.785896 247.671566 67.391225 C 247.625157 67.938038 247.395133 68.783481 247.052113 69.283885 Q 246.997634 69.362578 246.91087 69.398898 L 246.210706 69.68542 Q 246.109818 69.727793 246.089641 69.832717 L 245.978664 70.385583 L 245.986735 78.515145 Q 246.194564 79.118456 246.372127 79.715714 Q 246.479069 80.074875 246.963332 80.312971 Q 247.078344 80.549049 247.276085 80.47641 L 247.584802 80.601511 C 247.639282 80.623707 247.675601 80.678186 247.675601 80.738719 L 247.675601 81.703209 C 247.675601 81.804097 247.766401 81.880772 247.867289 81.866648 Q 248.278912 81.804097 248.660269 81.939287 L 249.316042 82.419514 Q 249.41693 84.451401 249.330166 86.533731 Q 249.322095 86.713312 249.509747 87.070455 Q 249.556155 87.159237 249.640901 87.209681 Q 251.297484 88.210491 251.295466 89.965943 Q 251.28336 102.788819 251.311608 107.318695 Q 251.313626 107.669785 251.28336 107.811028 Q 251.1744 108.357842 251.28336 108.890531 L 251.277306 111.045501 Q 251.123956 111.75777 251.293448 112.427667 Q 251.335821 118.394189 251.305555 124.372817 Q 251.297484 126.039488 251.02105 126.719474 Q 250.53477 127.913989 249.285775 128.5173 C 249.174798 128.571779 249.104177 128.686792 249.106195 128.811893 Q 249.130408 130.242486 249.130408 131.73563 Q 249.124354 141.808296 249.18287 150.397908 Q 249.184887 150.633986 249.033555 150.902349 L 249.053733 150.3515 Q 249.067857 150.018569 248.736944 150.048835 C 248.008532 150.117439 247.167126 150.347464 246.325719 150.37773 C 244.130394 150.458441 241.69092 150.553276 239.384618 150.345446 C 238.462501 150.2607 237.768391 150.036729 236.96734 149.822846 Q 236.729244 149.758278 236.729244 149.512111 L 236.620285 135.068972 Q 236.656605 130.448298 236.703013 129.146841 Q 236.723191 128.61617 236.368065 128.400269 C 235.643688 127.960397 234.798246 127.003978 234.711482 126.118181 C 234.679198 125.787268 234.550061 125.516888 234.550061 125.125442 Q 234.539972 107.581004 234.548044 90.819457 Q 234.550061 89.294029 234.836583 88.648345 Q 235.300669 87.60718 236.428597 86.985709 L 236.56177 82.203614 Q 237.021819 81.779884 237.887439 81.892879 C 238.002452 81.907003 238.107375 81.82831 238.125535 81.715316 Q 238.212299 81.144289 238.093251 80.530889 C 238.034736 80.232261 237.885421 80.238314 237.67961 80.091017 Q 236.700995 79.39489 235.887837 78.559536 L 231.283305 73.749192 Q 231.289358 73.799636 231.236896 73.722961 Q 231.325678 73.743139 231.263127 73.632162 Q 231.192506 73.509079 231.10776 73.539345 L 228.41203 70.258464 Q 228.543185 70.093008 228.236485 70.026422 L 227.376918 68.795587 Q 227.413238 68.626095 227.233657 68.571616 L 226.747377 67.829079 Q 226.805892 67.768546 226.759483 67.699942 Q 226.713075 67.633356 226.620258 67.631339 L 225.94229 66.424717 Q 226.099675 66.325847 225.825259 66.09784 Q 225.776833 66.047396 225.742531 65.96265 Q 225.819206 65.960632 225.792975 65.855708 Q 225.766744 65.750785 225.677963 65.744731 L 225.355121 64.485648 C 225.201771 63.341577 225.389423 62.282252 225.970538 61.293549 Q 226.214687 60.87789 226.468925 60.464249 Q 227.215497 59.499759 228.292982 59.031638 C 229.110176 58.67853 229.983866 58.745116 230.873699 58.626068 Q 231.075476 58.599837 231.075476 58.394025 L 231.075476 58.279013 C 231.075476 58.20032 231.012925 58.13777 230.934232 58.13777 L 217.158973 58.186196 Q 217.776408 58.04697 218.680365 57.988455 Q 222.512095 57.736235 223.361572 57.728164 Q 226.828087 57.701933 230.213891 57.768519 C 230.544804 57.774572 230.871682 57.853265 231.204612 57.867389 C 231.372087 57.873443 231.517365 57.752377 231.539561 57.586921 L 231.815994 55.538892 C 231.818012 55.528804 231.826083 55.520733 231.836172 55.520733 C 231.848278 55.52275 231.856349 55.530821 231.856349 55.54091 Q 231.862403 55.623638 231.876527 55.553017 Q 231.878545 55.546963 231.878545 55.553017 Q 231.797834 56.921059 231.74739 57.276185 Q 231.598076 58.331475 231.51333 59.550203 Q 231.454815 60.369414 231.321642 61.047382 Q 231.121884 62.060298 231.095653 62.611147 C 231.0896 62.77055 231.216719 62.903723 231.376122 62.903723 L 257.284183 62.903723 C 257.443586 62.903723 257.556581 62.748355 257.508155 62.597023 C 256.963359 60.912192 256.527522 59.120419 256.428652 57.233812 Q 256.380226 56.293535 256.271267 55.113145 Q 256.214769 54.483603 256.450847 53.105472 Z M 238.494786 79.941703 Q 238.510928 79.955827 238.648135 80.131373 Q 238.70665 80.20603 238.783325 80.147515 Q 239.261535 79.776247 239.64491 79.172936 C 239.733691 79.029675 239.70746 78.844041 239.580341 78.733064 Q 233.987106 73.874293 229.481444 67.764511 Q 228.724783 66.739488 228.230431 65.627701 C 227.796613 64.649087 227.623085 63.046984 228.307106 62.159169 Q 228.964897 61.305655 230.050453 60.978778 Q 230.332939 60.892014 230.861593 60.968689 Q 231.117849 61.005009 231.154168 60.746735 L 231.335767 59.396853 Q 231.374104 59.114366 231.091618 59.154721 C 230.022204 59.302018 229.267561 59.273769 228.627931 59.770139 C 227.590801 60.577243 226.694915 61.557876 226.418481 62.808888 C 225.934219 65.012284 227.298226 67.159182 228.559327 68.898493 Q 232.871283 74.842819 238.494786 79.941703 Z M 231.444726 68.460639 Q 231.789763 69.182997 232.437465 69.697527 L 234.644896 72.256049 Q 235.121088 72.976389 235.83134 73.525221 Q 235.964512 73.595842 236.012939 73.712873 Q 236.154182 73.995359 236.434651 74.12046 L 236.870487 74.570421 L 238.127553 75.785114 Q 238.293009 75.829505 238.381791 76.02321 Q 238.755077 76.570023 239.305926 76.93322 Q 239.715531 77.187458 239.858792 77.58294 Q 240.064604 78.149931 240.195759 77.560744 Q 240.199794 77.538549 240.199794 77.252027 Q 240.207865 70.199949 240.199794 69.927551 C 240.197776 69.844823 240.163474 69.778237 240.117066 69.762095 L 239.558146 69.566372 C 239.493578 69.542159 239.43708 69.499786 239.400761 69.443289 C 239.114238 69.011488 239.047652 68.424319 238.93264 67.980411 Q 238.583567 66.652724 238.357578 65.286699 Q 238.341436 65.187829 238.242565 65.203971 L 237.467745 65.333108 L 236.170324 65.300824 Q 235.712292 65.236255 235.284527 65.014302 Q 235.19171 64.963858 235.159425 64.862969 Q 235.044413 64.481612 235.060555 63.971119 Q 235.068626 63.785485 234.882992 63.791538 Q 233.395902 63.827858 231.933024 63.799609 Q 231.442708 63.78952 231.18847 63.72697 C 230.544804 63.565549 230.397508 62.827048 230.508484 62.251986 C 230.526644 62.157151 230.447952 62.072405 230.351099 62.082494 Q 229.87289 62.132938 229.608563 62.375069 C 229.229224 62.722124 228.837778 63.343595 228.926559 63.890408 C 229.023412 64.495737 229.194922 65.022373 229.570225 65.627701 Q 230.474183 67.082507 231.444726 68.460639 Z M 243.159851 64.203161 Q 246.805946 64.205179 250.211928 64.269747 Q 250.895949 64.281854 250.397562 63.811716 Q 250.335011 63.751183 250.042436 63.745129 Q 245.661875 63.678543 243.159851 63.676526 Q 240.657826 63.676526 236.277265 63.737058 Q 235.98469 63.743112 235.922139 63.803645 Q 235.421734 64.271765 236.105756 64.261676 Q 239.513755 64.201144 243.159851 64.203161 Z M 239.429009 65.234238 Q 239.475418 67.268141 240.341038 69.112376 L 241.696973 69.429164 L 241.15016 69.634976 Q 241.170338 70.504631 241.144107 72.562748 Q 241.127965 73.819814 241.188497 78.210463 Q 241.202622 79.219344 240.750643 80.365433 L 241.357989 80.490534 L 241.781719 80.601511 Q 241.884625 80.62976 241.850323 80.72863 L 241.828128 80.791181 C 241.811986 80.837589 241.767595 80.869873 241.719169 80.871891 L 239.299872 81.009099 Q 238.894302 81.128147 238.987119 81.652765 Q 239.007297 81.767777 239.122309 81.769795 L 244.239353 81.870683 L 246.791822 81.858577 C 246.971403 81.858577 247.100539 81.683031 247.048078 81.511522 C 246.955261 81.208857 246.884639 81.025241 246.583992 80.853731 C 245.609413 80.292794 245.042422 79.112403 244.965747 78.028865 Q 244.689314 74.136602 244.860824 70.843615 Q 244.874948 70.573235 244.998032 69.735864 Q 245.000049 69.711651 244.98189 69.419075 Q 244.967765 69.185015 245.25227 69.092198 Q 245.629591 68.969115 245.996824 68.80164 Q 246.089641 68.761285 246.123943 68.66645 C 246.479069 67.679765 246.489158 66.44893 246.606188 65.542955 C 246.620312 65.417854 246.52346 65.308895 246.398358 65.306877 L 239.429009 65.234238 Z M 237.023837 82.911848 Q 237.009713 83.004665 236.959269 83.178193 Q 236.918914 83.319436 236.916896 83.44252 Q 236.902771 84.608786 236.900754 86.836395 C 236.900754 86.965532 236.830132 87.086597 236.717137 87.153184 Q 235.447965 87.885631 235.102928 89.122519 Q 234.967738 89.6088 234.963702 91.527691 Q 234.951596 97.026092 235.008093 102.52651 Q 235.034324 105.044677 235.024235 106.562034 Q 234.955631 115.817507 234.969756 125.074998 C 234.971773 125.787268 235.13723 126.899055 235.905997 127.225932 C 236.0654 127.861527 236.664676 128.184369 237.096477 128.513264 Q 237.177187 128.573797 237.278075 128.581868 C 240.278487 128.85023 243.763161 128.755395 246.406429 128.731182 Q 247.582784 128.721094 248.426209 128.541513 C 249.219189 128.374038 249.628795 127.694053 250.058578 127.30866 C 250.696191 126.733598 250.847523 126.162572 250.857612 125.37968 Q 250.9585 118.416384 250.916127 112.817095 C 250.865683 106.20489 250.92218 99.181061 250.92218 90.117276 Q 250.924198 88.228651 248.914507 86.870697 Q 249.031537 84.897326 248.860028 82.903777 Q 248.773264 82.679806 248.327339 82.679806 Q 243.240561 82.683841 238.153784 82.683841 Q 238.137642 82.683841 237.717947 82.663664 Q 237.167098 82.637433 237.023837 82.911848 Z M 237.824889 149.302263 C 240.391482 149.982249 243.339431 150.024622 245.865669 149.768366 Q 247.193356 149.635194 248.367694 149.23366 C 248.537186 149.177162 248.656234 149.023812 248.670358 148.844232 C 248.763175 147.58313 248.700624 146.172715 248.742997 144.55447 Q 248.884241 139.276005 248.829761 137.990691 C 248.734926 135.829668 248.732909 133.174294 248.674394 130.177918 C 248.672376 130.044745 248.553328 129.943857 248.422173 129.964035 Q 245.048476 130.476546 241.636441 130.242486 Q 237.691716 129.972106 237.280093 129.959999 Q 237.181223 129.955964 237.173152 130.056852 Q 237.132796 130.656127 237.150956 132.992695 C 237.187276 138.087544 237.118672 143.190463 237.209471 148.396288 C 237.217542 148.860374 237.378963 149.183215 237.824889 149.302263 Z" style="fill:#111c24;"/>
		<path d="M 231.624307 53.868186 L 231.622289 54.774161 Q 231.622289 54.8468 231.54965 54.8468 L 211.004799 54.8468 Q 210.903911 54.8468 210.885751 54.749948 Q 210.817147 54.388768 210.893822 53.938807 L 231.624307 53.868186 Z" style="fill:#2ea2af;"/>
		<path d="M 264.919393 58.164 L 263.165959 58.161983 L 264.919393 58.164 Z" style="fill:#111c24;"/>
		<path d="M 283.472713 58.159965 Q 283.383931 58.153912 283.291114 58.178125 Q 283.369807 58.141805 283.472713 58.159965 Z" style="fill:#111c24;"/>
		<path d="M 226.468925 60.464249 Q 226.214687 60.87789 225.970538 61.293549 C 225.389423 62.282252 225.201771 63.341577 225.355121 64.485648 Q 224.836556 62.124867 226.468925 60.464249 Z" style="fill:#314b63;"/>
		<path d="M 225.742531 65.96265 L 225.677963 65.744731 Q 225.766744 65.750785 225.792975 65.855708 Q 225.819206 65.960632 225.742531 65.96265 Z" style="fill:#314b63;"/>
		<path d="M 225.94229 66.424717 Q 225.849473 66.269349 225.825259 66.09784 Q 226.099675 66.325847 225.94229 66.424717 Z" style="fill:#314b63;"/>
		<path d="M 226.747377 67.829079 Q 226.662631 67.742315 226.620258 67.631339 Q 226.713075 67.633356 226.759483 67.699942 Q 226.805892 67.768546 226.747377 67.829079 Z" style="fill:#314b63;"/>
		<path d="M 227.376918 68.795587 Q 227.274012 68.704788 227.233657 68.571616 Q 227.413238 68.626095 227.376918 68.795587 Z" style="fill:#314b63;"/>
		<path d="M 228.41203 70.258464 Q 228.307106 70.161612 228.236485 70.026422 Q 228.543185 70.093008 228.41203 70.258464 Z" style="fill:#314b63;"/>
		<path d="M 245.978664 70.385583 L 245.986735 78.515145 L 245.978664 70.385583 Z" style="fill:#314b63;"/>
		<path d="M 231.236896 73.722961 L 231.10776 73.539345 Q 231.192506 73.509079 231.263127 73.632162 Q 231.325678 73.743139 231.236896 73.722961 Z" style="fill:#314b63;"/>
		<path d="M 235.887837 78.559536 Q 235.306722 78.208446 234.818424 77.69997 Q 233.458452 76.287537 232.100498 74.873086 Q 231.608165 74.358556 231.283305 73.749192 L 235.887837 78.559536 Z" style="fill:#a1d9da;"/>
		<path d="M 247.276085 80.47641 Q 247.078344 80.549049 246.963332 80.312971 Q 247.169143 80.327096 247.276085 80.47641 Z" style="fill:#314b63;"/>
		<path d="M 249.316042 82.419514 L 248.660269 81.939287 Q 249.150585 81.941305 249.316042 82.419514 Z" style="fill:#314b63;"/>
		<path d="M 236.428597 86.985709 L 236.384207 82.629362 Q 236.382189 82.528474 236.430615 82.44171 L 236.56177 82.203614 L 236.428597 86.985709 Z" style="fill:#314b63;"/>
		<path d="M 251.28336 107.811028 L 251.28336 108.890531 Q 251.1744 108.357842 251.28336 107.811028 Z" style="fill:#1f384e;"/>
		<path d="M 251.277306 111.045501 L 251.293448 112.427667 Q 251.123956 111.75777 251.277306 111.045501 Z" style="fill:#1f384e;"/>
		<path d="M 249.033555 150.902349 C 248.216362 152.349084 241.906821 152.038348 240.028284 151.947549 Q 239.378565 151.915265 237.806729 151.584352 C 237.259915 151.46934 236.575894 151.067805 236.569841 150.448352 Q 236.563788 149.506057 236.602125 148.581922 L 236.592036 146.858754 L 236.620285 135.068972 L 236.729244 149.512111 Q 236.729244 149.758278 236.96734 149.822846 C 237.768391 150.036729 238.462501 150.2607 239.384618 150.345446 C 241.69092 150.553276 244.130394 150.458441 246.325719 150.37773 C 247.167126 150.347464 248.008532 150.117439 248.736944 150.048835 Q 249.067857 150.018569 249.053733 150.3515 L 249.033555 150.902349 Z" style="fill:#1f384e;"/>
		<path d="M 236.602125 148.581922 L 236.592036 146.858754 L 236.602125 148.581922 Z" style="fill:#111c24;"/>
		<path d="M 257.280147 7.086379 Q 256.000887 6.674756 254.824531 6.47298 Q 253.860041 6.307523 252.312418 6.307523 Q 245.470188 6.303488 239.457258 6.331736 C 236.420526 6.347878 234.654985 6.28331 232.42334 7.084362 C 232.376932 7.100504 232.326488 7.072255 232.316399 7.023829 Q 232.296221 6.928994 232.312363 6.898727 C 233.026651 5.528667 233.775241 4.604532 235.230047 4.560142 Q 235.449983 4.554088 235.946352 4.761918 C 236.826097 5.131168 238.135624 5.068618 239.852739 5.076689 Q 245.478259 5.096866 251.101761 5.076689 Q 251.935097 5.072653 252.65342 4.941499 Q 253.65423 4.761918 253.896361 4.755864 Q 254.550116 4.737705 255.17764 4.917285 Q 255.623565 5.044404 256.08765 5.47217 Q 256.64657 5.990735 256.955288 6.317612 Q 257.276112 6.658614 257.298307 7.070237 Q 257.300325 7.092433 257.280147 7.086379 Z" style="fill:#314b63;"/>
		<path d="M 204.118178 28.313233 Q 204.140374 28.484743 204.106072 28.634057 L 204.118178 28.313233 Z" style="fill:#111c24;"/>
		<path d="M 204.917212 35.938355 L 204.913177 33.470632 L 204.917212 35.938355 Z" style="fill:#111c24;"/>
		<path d="M 204.519713 40.476301 Q 204.081859 40.619562 203.934562 40.29672 Q 204.217049 40.10705 204.519713 40.476301 Z" style="fill:#a1d9da;"/>
		<path d="M 247.572696 51.701109 L 247.627175 51.832264 Q 247.814827 52.290296 247.320475 52.276172 Q 244.885037 52.211603 241.84427 52.253976 Q 241.551695 52.258012 240.637648 52.082466 Q 240.534743 52.062289 240.552902 51.959383 Q 240.694146 51.174474 241.581961 51.156314 Q 244.745811 51.085692 246.822088 51.174474 Q 247.364866 51.196669 247.572696 51.701109 Z" style="fill:#314b63;"/>
		<path d="M 238.494786 79.941703 Q 232.871283 74.842819 228.559327 68.898493 C 227.298226 67.159182 225.934219 65.012284 226.418481 62.808888 C 226.694915 61.557876 227.590801 60.577243 228.627931 59.770139 C 229.267561 59.273769 230.022204 59.302018 231.091618 59.154721 Q 231.374104 59.114366 231.335767 59.396853 L 231.154168 60.746735 Q 231.117849 61.005009 230.861593 60.968689 Q 230.332939 60.892014 230.050453 60.978778 Q 228.964897 61.305655 228.307106 62.159169 C 227.623085 63.046984 227.796613 64.649087 228.230431 65.627701 Q 228.724783 66.739488 229.481444 67.764511 Q 233.987106 73.874293 239.580341 78.733064 C 239.70746 78.844041 239.733691 79.029675 239.64491 79.172936 Q 239.261535 79.776247 238.783325 80.147515 Q 238.70665 80.20603 238.648135 80.131373 Q 238.510928 79.955827 238.494786 79.941703 Z" style="fill:#314b63;"/>
		<path d="M 243.159851 63.676526 Q 245.661875 63.678543 250.042436 63.745129 Q 250.335011 63.751183 250.397562 63.811716 Q 250.895949 64.281854 250.211928 64.269747 Q 246.805946 64.205179 243.159851 64.203161 Q 239.513755 64.201144 236.105756 64.261676 Q 235.421734 64.271765 235.922139 63.803645 Q 235.98469 63.743112 236.277265 63.737058 Q 240.657826 63.676526 243.159851 63.676526 Z" style="fill:#314b63;"/>
		<path d="M 244.239353 81.870683 L 246.745413 81.798044 Q 247.011758 81.789973 246.959296 81.529682 L 246.908852 81.279479 C 246.882621 81.138236 246.761555 81.03533 246.618294 81.029277 Q 242.990359 80.849696 239.299872 81.009099 L 241.719169 80.871891 C 241.767595 80.869873 241.811986 80.837589 241.828128 80.791181 L 241.850323 80.72863 Q 241.884625 80.62976 241.781719 80.601511 L 241.357989 80.490534 L 242.336604 80.347273 C 242.481883 80.325078 242.59286 80.208048 242.606984 80.062769 Q 242.764369 78.355742 242.764369 76.640645 C 242.766387 73.337569 242.816831 71.317789 242.681641 69.873072 C 242.669535 69.743935 242.576718 69.636994 242.449599 69.606727 L 241.696973 69.429164 L 240.341038 69.112376 L 239.429009 65.234238 L 246.398358 65.306877 C 246.52346 65.308895 246.620312 65.417854 246.606188 65.542955 C 246.489158 66.44893 246.479069 67.679765 246.123943 68.66645 Q 246.089641 68.761285 245.996824 68.80164 Q 245.629591 68.969115 245.25227 69.092198 Q 244.967765 69.185015 244.98189 69.419075 Q 245.000049 69.711651 244.998032 69.735864 Q 244.874948 70.573235 244.860824 70.843615 Q 244.689314 74.136602 244.965747 78.028865 C 245.042422 79.112403 245.609413 80.292794 246.583992 80.853731 C 246.884639 81.025241 246.955261 81.208857 247.048078 81.511522 C 247.100539 81.683031 246.971403 81.858577 246.791822 81.858577 L 244.239353 81.870683 Z" style="fill:#1f384e;"/>
		<path d="M 237.467745 65.333108 L 236.170324 65.300824 L 237.467745 65.333108 Z" style="fill:#1f384e;"/>
		<path d="M 239.429009 65.234238 L 240.341038 69.112376 Q 239.475418 67.268141 239.429009 65.234238 Z" style="fill:#2ea2af;"/>
		<path d="M 231.444726 68.460639 L 232.437465 69.697527 Q 231.789763 69.182997 231.444726 68.460639 Z" style="fill:#314b63;"/>
		<path d="M 241.696973 69.429164 L 242.449599 69.606727 C 242.576718 69.636994 242.669535 69.743935 242.681641 69.873072 C 242.816831 71.317789 242.766387 73.337569 242.764369 76.640645 Q 242.764369 78.355742 242.606984 80.062769 C 242.59286 80.208048 242.481883 80.325078 242.336604 80.347273 L 241.357989 80.490534 L 240.750643 80.365433 Q 241.138053 80.45825 241.222799 80.179799 Q 241.491162 79.291984 241.462913 78.371884 C 241.374132 75.438059 241.436682 72.621263 241.424576 70.09099 Q 241.422558 69.66726 241.15016 69.634976 L 241.696973 69.429164 Z" style="fill:#314b63;"/>
		<path d="M 240.750643 80.365433 Q 241.202622 79.219344 241.188497 78.210463 Q 241.127965 73.819814 241.144107 72.562748 Q 241.170338 70.504631 241.15016 69.634976 Q 241.422558 69.66726 241.424576 70.09099 C 241.436682 72.621263 241.374132 75.438059 241.462913 78.371884 Q 241.491162 79.291984 241.222799 80.179799 Q 241.138053 80.45825 240.750643 80.365433 Z" style="fill:#2ea2af;"/>
		<path d="M 235.83134 73.525221 Q 235.121088 72.976389 234.644896 72.256049 L 235.83134 73.525221 Z" style="fill:#314b63;"/>
		<path d="M 236.434651 74.12046 Q 236.154182 73.995359 236.012939 73.712873 Q 236.279283 73.860169 236.434651 74.12046 Z" style="fill:#314b63;"/>
		<path d="M 238.127553 75.785114 L 236.870487 74.570421 L 238.127553 75.785114 Z" style="fill:#314b63;"/>
		<path d="M 239.305926 76.93322 Q 238.755077 76.570023 238.381791 76.02321 L 239.305926 76.93322 Z" style="fill:#1f384e;"/>
		<path d="M 244.239353 81.870683 L 239.122309 81.769795 Q 239.007297 81.767777 238.987119 81.652765 Q 238.894302 81.128147 239.299872 81.009099 Q 242.990359 80.849696 246.618294 81.029277 C 246.761555 81.03533 246.882621 81.138236 246.908852 81.279479 L 246.959296 81.529682 Q 247.011758 81.789973 246.745413 81.798044 L 244.239353 81.870683 Z" style="fill:#314b63;"/>
		<path d="M 248.860028 82.903777 L 237.023837 82.911848 Q 237.167098 82.637433 237.717947 82.663664 Q 238.137642 82.683841 238.153784 82.683841 Q 243.240561 82.683841 248.327339 82.679806 Q 248.773264 82.679806 248.860028 82.903777 Z" style="fill:#2ea2af;"/>
		<path d="M 248.914507 86.870697 L 244.48552 87.026065 Q 244.112234 87.040189 244.382614 87.296445 C 245.443957 88.30129 245.641698 89.616871 245.63968 91.083783 Q 245.635644 93.664501 245.635644 122.506387 Q 245.635644 123.846181 245.742586 125.083069 C 245.801101 125.752966 246.023055 126.2453 246.174387 126.856682 Q 246.249044 127.161364 245.936291 127.163381 L 235.905997 127.225932 C 235.13723 126.899055 234.971773 125.787268 234.969756 125.074998 Q 234.955631 115.817507 235.024235 106.562034 Q 235.034324 105.044677 235.008093 102.52651 Q 234.951596 97.026092 234.963702 91.527691 Q 234.967738 89.6088 235.102928 89.122519 Q 235.447965 87.885631 236.717137 87.153184 C 236.830132 87.086597 236.900754 86.965532 236.900754 86.836395 Q 236.902771 84.608786 236.916896 83.44252 Q 236.918914 83.319436 236.959269 83.178193 Q 237.009713 83.004665 237.023837 82.911848 L 248.860028 82.903777 Q 249.031537 84.897326 248.914507 86.870697 Z M 241.751453 111.390538 Q 241.477037 111.664953 241.781719 111.42484 C 242.812796 110.611682 242.843062 109.590694 242.828938 108.378019 Q 242.794636 105.325146 242.794636 102.122958 C 242.796654 101.352173 242.820867 100.585424 242.144917 100.095107 C 242.128774 100.083001 242.104561 100.089054 242.104561 100.105196 Q 242.102544 100.145552 242.108597 100.151605 C 242.770423 100.631832 242.677606 101.721423 242.679623 102.52651 Q 242.683659 103.91473 242.661464 105.512798 C 242.649357 106.334027 242.715943 107.520471 242.677606 108.525316 C 242.627162 109.832826 242.623126 110.520882 241.751453 111.390538 Z M 236.670729 109.060023 Q 236.52545 108.737181 236.519397 108.430481 Q 236.464917 105.912315 236.527468 103.694794 C 236.590018 101.390511 239.467347 101.085828 240.653791 102.73434 Q 240.944348 103.135874 241.000846 104.027725 Q 241.06945 105.083015 241.085592 105.428052 Q 241.087609 105.460336 241.11384 105.4563 L 241.115858 105.4563 Q 241.138053 105.452265 241.138053 105.428052 Q 241.176391 104.051938 241.023041 103.12175 Q 240.901975 102.381232 240.195759 101.790027 C 239.465329 101.180663 238.101322 101.239178 237.306324 101.642731 Q 236.196555 102.207704 236.105756 103.382041 Q 236.00285 104.697622 236.04724 107.88165 C 236.055312 108.478908 236.182431 109.467611 236.648533 109.782382 Q 237.195347 110.15365 236.929002 109.618943 Q 236.864434 109.487788 236.670729 109.060023 Z" style="fill:#314b63;"/>
		<path d="M 248.914507 86.870697 Q 250.924198 88.228651 250.92218 90.117276 C 250.92218 99.181061 250.865683 106.20489 250.916127 112.817095 Q 250.9585 118.416384 250.857612 125.37968 C 250.847523 126.162572 250.696191 126.733598 250.058578 127.30866 C 249.628795 127.694053 249.219189 128.374038 248.426209 128.541513 Q 247.582784 128.721094 246.406429 128.731182 C 243.763161 128.755395 240.278487 128.85023 237.278075 128.581868 Q 237.177187 128.573797 237.096477 128.513264 C 236.664676 128.184369 236.0654 127.861527 235.905997 127.225932 L 245.936291 127.163381 Q 246.249044 127.161364 246.174387 126.856682 C 246.023055 126.2453 245.801101 125.752966 245.742586 125.083069 Q 245.635644 123.846181 245.635644 122.506387 Q 245.635644 93.664501 245.63968 91.083783 C 245.641698 89.616871 245.443957 88.30129 244.382614 87.296445 Q 244.112234 87.040189 244.48552 87.026065 L 248.914507 86.870697 Z" style="fill:#1f384e;"/>
		<path d="M 245.865669 149.768366 C 243.339431 150.024622 240.391482 149.982249 237.824889 149.302263 C 237.378963 149.183215 237.217542 148.860374 237.209471 148.396288 C 237.118672 143.190463 237.187276 138.087544 237.150956 132.992695 Q 237.132796 130.656127 237.173152 130.056852 Q 237.181223 129.955964 237.280093 129.959999 Q 237.691716 129.972106 241.636441 130.242486 Q 245.048476 130.476546 248.422173 129.964035 C 248.553328 129.943857 248.672376 130.044745 248.674394 130.177918 C 248.732909 133.174294 248.734926 135.829668 248.829761 137.990691 Q 248.884241 139.276005 248.742997 144.55447 C 248.700624 146.172715 248.763175 147.58313 248.670358 148.844232 C 248.656234 149.023812 248.537186 149.177162 248.367694 149.23366 Q 247.193356 149.635194 245.865669 149.768366 Z" style="fill:#1f384e;"/>
		<path d="M 241.751453 111.390538 C 242.623126 110.520882 242.627162 109.832826 242.677606 108.525316 C 242.715943 107.520471 242.649357 106.334027 242.661464 105.512798 Q 242.683659 103.91473 242.679623 102.52651 C 242.677606 101.721423 242.770423 100.631832 242.108597 100.151605 Q 242.102544 100.145552 242.104561 100.105196 C 242.104561 100.089054 242.128774 100.083001 242.144917 100.095107 C 242.820867 100.585424 242.796654 101.352173 242.794636 102.122958 Q 242.794636 105.325146 242.828938 108.378019 C 242.843062 109.590694 242.812796 110.611682 241.781719 111.42484 Q 241.477037 111.664953 241.751453 111.390538 Z" style="fill:#111c24;"/>
		<path d="M 236.670729 109.060023 Q 236.864434 109.487788 236.929002 109.618943 Q 237.195347 110.15365 236.648533 109.782382 C 236.182431 109.467611 236.055312 108.478908 236.04724 107.88165 Q 236.00285 104.697622 236.105756 103.382041 Q 236.196555 102.207704 237.306324 101.642731 C 238.101322 101.239178 239.465329 101.180663 240.195759 101.790027 Q 240.901975 102.381232 241.023041 103.12175 Q 241.176391 104.051938 241.138053 105.428052 Q 241.138053 105.452265 241.115858 105.4563 L 241.11384 105.4563 Q 241.087609 105.460336 241.085592 105.428052 Q 241.06945 105.083015 241.000846 104.027725 Q 240.944348 103.135874 240.653791 102.73434 C 239.467347 101.085828 236.590018 101.390511 236.527468 103.694794 Q 236.464917 105.912315 236.519397 108.430481 Q 236.52545 108.737181 236.670729 109.060023 Z" style="fill:#111c24;"/>
	</g>
	<g id="surface4">
	</g>
</svg>
