<?xml version="1.0" encoding="utf-8"?>
<svg xmlns="http://www.w3.org/2000/svg" width="490pt" height="280pt" viewBox="0 0 490 280" version="1.1" xmlns:xlink="http://www.w3.org/1999/xlink">
	<g id="surface2">
		<path stroke-opacity="0.941" vector-effect="non-scaling-stroke" d="M 404.56485 73.145173 Q 404.818441 73.628581 405.095807 73.208571" style="fill:none;stroke-width:0.50;stroke:#9a122a;"/>
		<path stroke-opacity="0.941" vector-effect="non-scaling-stroke" d="M 405.373172 73.200646 Q 405.626763 73.573108 405.880354 73.216495" style="fill:none;stroke-width:0.50;stroke:#9a122a;"/>
		<path stroke-opacity="0.941" vector-effect="non-scaling-stroke" d="M 406.157719 73.216495 L 406.688676 73.22442" style="fill:none;stroke-width:0.50;stroke:#9a122a;"/>
		<path stroke-opacity="0.988" vector-effect="non-scaling-stroke" d="M 400.610415 89.034238 Q 394.159692 90.730128 387.178013 94.399274 Q 368.951155 103.980261 353.838713 115.138268 C 347.078926 120.122918 334.76391 129.743529 325.943695 135.504801 Q 308.961019 146.575636 288.380519 154.777722 C 284.212116 156.433988 279.195767 157.971384 274.654902 159.532554 Q 273.957527 159.770296 270.431026 160.642015 Q 268.172481 161.20467 266.35772 162.306206" style="fill:none;stroke-width:0.50;stroke:#e42d3f;"/>
		<path vector-effect="non-scaling-stroke" d="M 225.909945 162.599421 Q 219.966404 160.562768 214.220982 158.66876 Q 196.002049 152.645972 180.968853 140.758891 Q 175.453248 136.400294 170.111986 131.835655 Q 160.855912 123.918859 149.412615 119.813854" style="fill:none;stroke-width:0.50;stroke:#e5495c;"/>
		<path stroke-opacity="0.988" vector-effect="non-scaling-stroke" d="M 149.412615 119.813854 Q 140.75882 115.383935 131.423499 112.1031" style="fill:none;stroke-width:0.50;stroke:#e42d3f;"/>
		<path vector-effect="non-scaling-stroke" d="M 131.423499 112.1031 C 119.409622 104.630089 107.673111 96.4914 94.415053 91.213536 Q 93.155022 90.714279 91.134218 89.596893 Q 89.485876 88.68555 87.774137 88.11497" style="fill:none;stroke-width:0.50;stroke:#e5495c;"/>
		<path vector-effect="non-scaling-stroke" d="M 75.467045 80.824227 Q 75.094584 75.554288 77.796913 73.810849" style="fill:none;stroke-width:0.50;stroke:#e5495c;"/>
		<path stroke-opacity="0.988" vector-effect="non-scaling-stroke" d="M 79.405632 73.382915 Q 79.231288 73.604807 79.492804 73.747452 Q 79.635449 73.834624 79.809792 73.826699 Q 83.994045 73.771226 88.178298 73.525559 Q 92.719163 73.256119 96.364534 72.043637 Q 108.425959 68.041653 117.49184 58.642934" style="fill:none;stroke-width:0.50;stroke:#e42d3f;"/>
		<path stroke-opacity="0.988" vector-effect="non-scaling-stroke" d="M 131.423499 112.1031 Q 134.751882 115.502805 140.362584 118.371554 Q 144.990621 120.733121 149.412615 119.813854" style="fill:none;stroke-width:0.50;stroke:#f26572;"/>
		<path stroke-opacity="0.941" vector-effect="non-scaling-stroke" d="M 176.499311 73.565183 Q 174.312088 73.565183 172.26751 74.286333" style="fill:none;stroke-width:0.50;stroke:#9a122a;"/>
		<path stroke-opacity="0.941" vector-effect="non-scaling-stroke" d="M 172.172413 74.325956 Q 171.609758 74.286333 171.173898 74.492375" style="fill:none;stroke-width:0.50;stroke:#9a122a;"/>
		<path stroke-opacity="0.941" vector-effect="non-scaling-stroke" d="M 170.983705 74.619171 Q 168.495343 74.642945 166.268496 75.681084" style="fill:none;stroke-width:0.50;stroke:#9a122a;"/>
		<path stroke-opacity="0.941" vector-effect="non-scaling-stroke" d="M 119.694912 80.958948 Q 119.05301 80.863851 118.529978 81.022345 Q 118.054495 81.172915 118.537903 81.307635 Q 119.425472 81.553302 120.479459 81.299711" style="fill:none;stroke-width:0.50;stroke:#9a122a;"/>
		<path stroke-opacity="0.941" vector-effect="non-scaling-stroke" d="M 123.958412 81.157066 Q 125.0124 81.339334 125.464109 80.974797" style="fill:none;stroke-width:0.50;stroke:#9a122a;"/>
		<path stroke-opacity="0.941" vector-effect="non-scaling-stroke" d="M 166.15755 79.461175 L 168.669687 79.984207" style="fill:none;stroke-width:0.50;stroke:#9a122a;"/>
		<path vector-effect="non-scaling-stroke" d="M 168.669687 79.984207 Q 170.119911 80.420067 171.530511 80.237798 Q 171.974295 80.182325 172.196187 80.562712 L 172.473553 81.04612 Q 172.679595 81.394807 173.020358 81.624624 Q 182.553797 87.916852 191.239291 93.313587 Q 201.454257 99.677138 211.272986 102.1655 Q 221.765316 104.828207 237.036253 107.871299 C 256.190303 111.68309 274.73415 109.97135 291.265117 99.32845 Q 298.508312 94.66079 303.699004 90.365591 Q 307.185881 87.473068 315.673257 79.936659" style="fill:none;stroke-width:0.50;stroke:#e5495c;"/>
		<path stroke-opacity="0.941" vector-effect="non-scaling-stroke" d="M 315.673257 79.936659 C 317.583115 79.4691 318.740124 80.483464 320.095251 80.641959 Q 326.775791 81.46613 333.971438 81.149141 C 337.117552 81.006496 340.184419 81.537452 342.85505 81.640474 Q 358.252782 82.211053 372.057646 82.187279 C 372.192366 82.187279 372.319161 82.100107 372.36671 81.973312 L 372.50143 81.632549 Q 372.596527 81.394807 372.342936 81.371033 Q 363.015539 80.499314 353.434552 80.047605 C 351.389974 79.960433 349.297848 79.397778 347.197797 79.231358 Q 342.910523 78.89852 342.530136 78.850972 Q 339.257226 78.438886 335.976392 78.050575 Q 335.794123 78.026801 334.423147 77.987177 Q 333.638599 77.963403 332.893676 77.717737 Q 331.047216 77.107533 331.007592 77.099609 C 322.789657 75.229374 318.494458 73.739527 312.408272 73.92972" style="fill:none;stroke-width:0.50;stroke:#9a122a;"/>
		<path stroke-opacity="0.941" vector-effect="non-scaling-stroke" d="M 315.673257 79.936659 Q 315.506838 79.746465 314.960032 79.746465 Q 314.746065 79.746465 314.262657 79.920809 Q 313.493959 80.198174 312.844132 79.683068 Q 312.535068 79.437401 312.138832 79.405702 L 304.015993 78.700402" style="fill:none;stroke-width:0.50;stroke:#a84c5f;"/>
		<path stroke-opacity="0.941" vector-effect="non-scaling-stroke" d="M 186.991641 77.963403 L 179.257114 79.03324" style="fill:none;stroke-width:0.50;stroke:#a84c5f;"/>
		<path stroke-opacity="0.941" vector-effect="non-scaling-stroke" d="M 168.669687 79.984207 Q 170.365577 79.643444 172.608273 79.928734" style="fill:none;stroke-width:0.50;stroke:#a84c5f;"/>
		<path stroke-opacity="0.941" vector-effect="non-scaling-stroke" d="M 172.719219 79.817788 L 174.296238 79.659293" style="fill:none;stroke-width:0.50;stroke:#a84c5f;"/>
		<path stroke-opacity="0.941" vector-effect="non-scaling-stroke" d="M 175.08871 79.572121 Q 175.587968 79.61967 175.881183 79.508724" style="fill:none;stroke-width:0.50;stroke:#a84c5f;"/>
		<path stroke-opacity="0.941" vector-effect="non-scaling-stroke" d="M 176.483461 79.397778 L 177.069891 79.286831" style="fill:none;stroke-width:0.50;stroke:#a84c5f;"/>
		<path stroke-opacity="0.941" vector-effect="non-scaling-stroke" d="M 177.529524 79.231358 L 179.051071 79.112488" style="fill:none;stroke-width:0.50;stroke:#a84c5f;"/>
		<path d="M 404.56485 73.145173 Q 404.818441 73.628581 405.095807 73.208571 Q 405.238452 73.200646 405.373172 73.200646 Q 405.626763 73.573108 405.880354 73.216495 Q 406.022999 73.216495 406.157719 73.216495 L 406.688676 73.22442 C 411.918991 73.604807 414.074515 72.962904 414.557923 79.175885 Q 414.724342 81.394807 411.863518 83.0273 Q 406.205268 86.244736 400.610415 89.034238 Q 394.159692 90.730128 387.178013 94.399274 Q 368.951155 103.980261 353.838713 115.138268 C 347.078926 120.122918 334.76391 129.743529 325.943695 135.504801 Q 308.961019 146.575636 288.380519 154.777722 C 284.212116 156.433988 279.195767 157.971384 274.654902 159.532554 Q 273.957527 159.770296 270.431026 160.642015 Q 268.172481 161.20467 266.35772 162.306206 Q 246.022886 165.238353 225.909945 162.599421 Q 219.966404 160.562768 214.220982 158.66876 Q 196.002049 152.645972 180.968853 140.758891 Q 175.453248 136.400294 170.111986 131.835655 Q 160.855912 123.918859 149.412615 119.813854 Q 140.75882 115.383935 131.423499 112.1031 C 119.409622 104.630089 107.673111 96.4914 94.415053 91.213536 Q 93.155022 90.714279 91.134218 89.596893 Q 89.485876 88.68555 87.774137 88.11497 Q 83.074777 85.967371 78.343719 83.542407 Q 76.085174 82.377473 75.467045 80.824227 Q 75.094584 75.554288 77.796913 73.810849 L 79.405632 73.382915 Q 79.231288 73.604807 79.492804 73.747452 Q 79.635449 73.834624 79.809792 73.826699 Q 83.994045 73.771226 88.178298 73.525559 Q 92.719163 73.256119 96.364534 72.043637 Q 108.425959 68.041653 117.49184 58.642934 C 120.46361 56.035701 123.617649 53.428468 126.391301 50.702364 Q 136.867782 40.408151 143.873235 33.767235 Q 155.752392 22.498282 170.207082 18.385352 C 177.719718 16.245678 185.723686 15.88114 194.195212 15.849442 C 201.478031 15.817743 208.855946 16.483419 214.886658 19.906899 Q 224.111033 25.145139 226.670718 26.484417 Q 241.783161 34.401213 257.180893 29.289768 C 262.260639 27.601803 266.825278 24.637957 273.054109 21.095607 Q 281.184872 16.475495 291.043225 16.039635 Q 302.153684 15.540377 314.127937 17.283816 C 317.852555 17.822697 320.879799 19.035179 324.739138 20.350683 C 332.988772 23.156034 341.111611 29.79695 348.370655 36.715231 C 359.211673 47.056992 366.359771 54.419058 376.947198 62.684541 C 385.077962 69.024318 394.032896 73.271968 404.56485 73.145173 Z M 176.499311 73.565183 Q 174.312088 73.565183 172.26751 74.286333 Q 172.219962 74.310107 172.172413 74.325956 Q 171.609758 74.286333 171.173898 74.492375 Q 171.078802 74.555773 170.983705 74.619171 Q 168.495343 74.642945 166.268496 75.681084 C 152.96289 77.963403 142.16942 79.564197 129.41062 80.071379 C 126.367527 80.19025 122.975747 80.871776 119.694912 80.958948 Q 119.05301 80.863851 118.529978 81.022345 Q 118.054495 81.172915 118.537903 81.307635 Q 119.425472 81.553302 120.479459 81.299711 L 123.958412 81.157066 Q 125.0124 81.339334 125.464109 80.974797 Q 147.201618 81.497829 153.327427 80.816303 Q 159.754376 80.095153 166.15755 79.461175 L 168.669687 79.984207 Q 170.119911 80.420067 171.530511 80.237798 Q 171.974295 80.182325 172.196187 80.562712 L 172.473553 81.04612 Q 172.679595 81.394807 173.020358 81.624624 Q 182.553797 87.916852 191.239291 93.313587 Q 201.454257 99.677138 211.272986 102.1655 Q 221.765316 104.828207 237.036253 107.871299 C 256.190303 111.68309 274.73415 109.97135 291.265117 99.32845 Q 298.508312 94.66079 303.699004 90.365591 Q 307.185881 87.473068 315.673257 79.936659 C 317.583115 79.4691 318.740124 80.483464 320.095251 80.641959 Q 326.775791 81.46613 333.971438 81.149141 C 337.117552 81.006496 340.184419 81.537452 342.85505 81.640474 Q 358.252782 82.211053 372.057646 82.187279 C 372.192366 82.187279 372.319161 82.100107 372.36671 81.973312 L 372.50143 81.632549 Q 372.596527 81.394807 372.342936 81.371033 Q 363.015539 80.499314 353.434552 80.047605 C 351.389974 79.960433 349.297848 79.397778 347.197797 79.231358 Q 342.910523 78.89852 342.530136 78.850972 Q 339.257226 78.438886 335.976392 78.050575 Q 335.794123 78.026801 334.423147 77.987177 Q 333.638599 77.963403 332.893676 77.717737 Q 331.047216 77.107533 331.007592 77.099609 C 322.789657 75.229374 318.494458 73.739527 312.408272 73.92972 Q 310.379544 73.002528 308.097224 72.677614 Q 301.424609 71.702874 296.566755 70.910402 C 286.930295 69.333382 279.164069 69.182812 270.256682 70.870778 C 265.026367 71.861368 256.618238 75.007482 249.779204 75.372019 Q 241.458247 75.807879 235.102621 74.111989 Q 233.145215 73.588957 227.019406 71.774196 Q 216.519151 68.67563 204.639994 69.499801 Q 192.26158 70.355671 176.499311 73.565183 Z" style="fill:#d7122a;"/>
		<path fill-opacity="0.976" d="M 117.49184 58.642934 Q 108.425959 68.041653 96.364534 72.043637 Q 92.719163 73.256119 88.178298 73.525559 Q 83.994045 73.771226 79.809792 73.826699 Q 79.635449 73.834624 79.492804 73.747452 Q 79.231288 73.604807 79.405632 73.382915 C 86.902418 73.034227 93.749376 73.145173 100.754829 69.903962 Q 109.907882 65.672161 117.49184 58.642934 Z" style="fill:#f14955;"/>
		<path fill-opacity="0.882" d="M 405.095807 73.208571 Q 404.818441 73.628581 404.56485 73.145173 Q 404.794667 73.256119 405.095807 73.208571 Z" style="fill:#541229;"/>
		<path fill-opacity="0.882" d="M 405.880354 73.216495 Q 405.626763 73.573108 405.373172 73.200646 L 405.880354 73.216495 Z" style="fill:#541229;"/>
		<path fill-opacity="0.882" d="M 406.688676 73.22442 L 406.157719 73.216495 L 406.688676 73.22442 Z" style="fill:#541229;"/>
		<path fill-opacity="0.996" d="M 77.796913 73.810849 Q 75.094584 75.554288 75.467045 80.824227 Q 74.452681 78.605306 75.641389 75.871277 Q 76.473485 73.969344 77.796913 73.810849 Z" style="fill:#f3808e;"/>
		<path fill-opacity="0.996" d="M 131.423499 112.1031 Q 134.751882 115.502805 140.362584 118.371554 Q 144.990621 120.733121 149.412615 119.813854 Q 160.855912 123.918859 170.111986 131.835655 Q 175.453248 136.400294 180.968853 140.758891 Q 196.002049 152.645972 214.220982 158.66876 Q 219.966404 160.562768 225.909945 162.599421 Q 194.734093 161.696003 164.723176 149.87232 Q 145.299685 142.217039 132.192197 128.610294 Q 128.229836 124.489439 115.217445 111.897058 C 107.261025 104.194229 100.842001 98.868817 93.416538 92.315072 C 91.712723 90.809376 89.699844 89.509721 87.774137 88.11497 Q 89.485876 88.68555 91.134218 89.596893 Q 93.155022 90.714279 94.415053 91.213536 C 107.673111 96.4914 119.409622 104.630089 131.423499 112.1031 Z" style="fill:#f3808e;"/>
		<path fill-opacity="0.976" d="M 400.610415 89.034238 C 383.968501 100.826223 373.935804 111.057037 356.46972 127.889144 Q 347.863473 136.186327 333.527653 143.714812 Q 317.57519 152.091241 301.947641 156.069451 C 294.506328 157.963459 290.91643 159.009523 284.727223 159.746522 Q 275.590019 160.840133 266.35772 162.306206 Q 268.172481 161.20467 270.431026 160.642015 Q 273.957527 159.770296 274.654902 159.532554 C 279.195767 157.971384 284.212116 156.433988 288.380519 154.777722 Q 308.961019 146.575636 325.943695 135.504801 C 334.76391 129.743529 347.078926 120.122918 353.838713 115.138268 Q 368.951155 103.980261 387.178013 94.399274 Q 394.159692 90.730128 400.610415 89.034238 Z" style="fill:#f14955;"/>
		<path fill-opacity="0.976" d="M 149.412615 119.813854 Q 144.990621 120.733121 140.362584 118.371554 Q 134.751882 115.502805 131.423499 112.1031 Q 140.75882 115.383935 149.412615 119.813854 Z" style="fill:#f14955;"/>
		<path fill-opacity="0.882" d="M 176.499311 73.565183 Q 174.53398 74.36558 172.26751 74.286333 Q 174.312088 73.565183 176.499311 73.565183 Z" style="fill:#541229;"/>
		<path fill-opacity="0.882" d="M 315.673257 79.936659 Q 315.506838 79.746465 314.960032 79.746465 Q 314.746065 79.746465 314.262657 79.920809 Q 313.493959 80.198174 312.844132 79.683068 Q 312.535068 79.437401 312.138832 79.405702 L 304.015993 78.700402 Q 308.612331 76.132793 313.723776 74.952009 Q 313.850571 74.92031 313.842647 74.793515 L 313.826797 74.531999 Q 313.795098 74.199161 313.46226 74.23086 Q 312.859981 74.286333 312.408272 73.92972 C 318.494458 73.739527 322.789657 75.229374 331.007592 77.099609 Q 331.047216 77.107533 332.893676 77.717737 Q 333.638599 77.963403 334.423147 77.987177 Q 335.794123 78.026801 335.976392 78.050575 Q 339.257226 78.438886 342.530136 78.850972 Q 342.910523 78.89852 347.197797 79.231358 C 349.297848 79.397778 351.389974 79.960433 353.434552 80.047605 Q 363.015539 80.499314 372.342936 81.371033 Q 372.596527 81.394807 372.50143 81.632549 L 372.36671 81.973312 C 372.319161 82.100107 372.192366 82.187279 372.057646 82.187279 Q 358.252782 82.211053 342.85505 81.640474 C 340.184419 81.537452 337.117552 81.006496 333.971438 81.149141 Q 326.775791 81.46613 320.095251 80.641959 C 318.740124 80.483464 317.583115 79.4691 315.673257 79.936659 Z M 345.771347 80.467615 Q 349.9239 81.363108 353.711917 80.737055 Q 354.916475 80.538937 353.703992 80.388368 Q 348.235935 79.714766 343.386006 79.778164 Q 343.362232 79.778164 343.290909 79.881186 Q 343.267135 79.912884 343.251286 79.944583 C 343.219587 80.007981 343.298834 80.095153 343.40978 80.111002 Q 345.200767 80.340819 345.771347 80.467615 Z" style="fill:#541229;"/>
		<path fill-opacity="0.882" d="M 172.172413 74.325956 Q 171.728629 74.539924 171.173898 74.492375 Q 171.609758 74.286333 172.172413 74.325956 Z" style="fill:#541229;"/>
		<path fill-opacity="0.882" d="M 170.983705 74.619171 Q 168.748934 75.617686 166.268496 75.681084 Q 168.495343 74.642945 170.983705 74.619171 Z" style="fill:#541229;"/>
		<path fill-opacity="0.882" d="M 186.991641 77.963403 L 179.257114 79.03324 Q 179.835618 78.581531 180.794509 78.819273 Q 180.992627 78.866821 181.103574 78.700402 L 181.341315 78.351714 Q 181.571132 78.003027 181.151122 78.034726 L 172.41808 78.724176 Q 170.547845 78.866821 172.101091 77.820758 L 174.993614 75.879202 C 175.683065 75.411643 176.538934 75.268998 177.347256 75.475041 L 186.991641 77.963403 Z" style="fill:#541229;"/>
		<path fill-opacity="0.996" d="M 186.991641 77.963403 C 193.458213 79.714766 200.519139 82.147656 206.248713 83.645428 Q 220.695479 87.401746 232.994645 88.590454 Q 261.753457 91.364106 285.915931 85.499813 Q 293.254222 83.71675 304.015993 78.700402 L 312.138832 79.405702 Q 312.535068 79.437401 312.844132 79.683068 Q 313.493959 80.198174 314.262657 79.920809 Q 314.746065 79.746465 314.960032 79.746465 Q 315.506838 79.746465 315.673257 79.936659 Q 307.185881 87.473068 303.699004 90.365591 Q 298.508312 94.66079 291.265117 99.32845 C 274.73415 109.97135 256.190303 111.68309 237.036253 107.871299 Q 221.765316 104.828207 211.272986 102.1655 Q 201.454257 99.677138 191.239291 93.313587 Q 182.553797 87.916852 173.020358 81.624624 Q 172.679595 81.394807 172.473553 81.04612 L 172.196187 80.562712 Q 171.974295 80.182325 171.530511 80.237798 Q 170.119911 80.420067 168.669687 79.984207 Q 170.365577 79.643444 172.608273 79.928734 Q 172.663746 79.873261 172.719219 79.817788 L 174.296238 79.659293 L 175.08871 79.572121 Q 175.587968 79.61967 175.881183 79.508724 Q 176.166472 79.405702 176.483461 79.397778 L 177.069891 79.286831 L 177.529524 79.231358 L 179.051071 79.112488 Q 179.154092 79.072864 179.257114 79.03324 L 186.991641 77.963403 Z" style="fill:#f3808e;"/>
		<path fill-opacity="0.882" d="M 172.608273 79.928734 Q 170.365577 79.643444 168.669687 79.984207 L 166.15755 79.461175 Q 167.179839 78.946068 168.281375 78.811348 Q 168.677611 78.771725 169.01045 78.985692 Q 169.842545 79.516648 170.627093 79.286831 Q 170.999555 79.175885 171.356167 79.342305 L 172.608273 79.928734 Z" style="fill:#541229;"/>
		<path fill-opacity="0.882" d="M 177.069891 79.286831 L 176.483461 79.397778 Q 177.038192 78.993617 177.069891 79.286831 Z" style="fill:#541229;"/>
		<path fill-opacity="0.882" d="M 179.051071 79.112488 L 177.529524 79.231358 L 179.051071 79.112488 Z" style="fill:#541229;"/>
		<path fill-opacity="0.882" d="M 174.296238 79.659293 L 172.719219 79.817788 Q 172.663746 78.993617 174.296238 79.659293 Z" style="fill:#541229;"/>
		<path fill-opacity="0.882" d="M 175.881183 79.508724 Q 175.587968 79.61967 175.08871 79.572121 Q 175.469097 79.413627 175.881183 79.508724 Z" style="fill:#541229;"/>
		<path fill-opacity="0.882" d="M 119.694912 80.958948 Q 119.259052 80.927249 118.981687 81.006496 Q 118.220914 81.220463 119.03716 81.252162 L 120.479459 81.299711 Q 119.425472 81.553302 118.537903 81.307635 Q 118.054495 81.172915 118.529978 81.022345 Q 119.05301 80.863851 119.694912 80.958948 Z" style="fill:#541229;"/>
		<path fill-opacity="0.882" d="M 125.464109 80.974797 Q 125.0124 81.339334 123.958412 81.157066 Q 124.758809 81.212539 125.464109 80.974797 Z" style="fill:#541229;"/>
	</g>
	<g id="surface4">
	</g>
</svg>
