<?xml version="1.0" encoding="utf-8"?>
<svg xmlns="http://www.w3.org/2000/svg" width="490pt" height="280pt" viewBox="0 0 490 280" version="1.1" xmlns:xlink="http://www.w3.org/1999/xlink">
	<g id="surface2">
		<path vector-effect="non-scaling-stroke" d="M 241.239589 11.94826 L 237.257733 16.751168" style="fill:none;stroke-width:0.50;stroke:#776726;"/>
		<path vector-effect="non-scaling-stroke" d="M 237.257733 16.751168 L 234.485243 19.984369" style="fill:none;stroke-width:0.50;stroke:#ecc16b;"/>
		<path vector-effect="non-scaling-stroke" d="M 234.485243 19.984369 Q 234.284505 19.974497 234.18249 20.119292 Q 234.133129 20.186753 234.050859 20.186753 L 206.852481 20.231178" style="fill:none;stroke-width:0.50;stroke:#e36f17;"/>
		<path vector-effect="non-scaling-stroke" d="M 242.253152 23.42489 Q 242.266316 23.477543 242.20379 23.535131 C 239.656719 25.876528 237.15901 28.273869 234.611938 30.61362 Q 227.691407 36.968135 220.808721 43.373658" style="fill:none;stroke-width:0.50;stroke:#f3c5ab;"/>
		<path vector-effect="non-scaling-stroke" d="M 217.091774 38.57075 Q 217.610073 38.144593 218.064202 37.637811 Q 218.740459 36.879284 218.750332 36.869412 Q 226.686071 28.489415 234.485243 19.984369" style="fill:none;stroke-width:0.50;stroke:#e7937a;"/>
		<path vector-effect="non-scaling-stroke" d="M 245.474836 19.169899 Q 245.501162 19.44797 245.76607 19.582893" style="fill:none;stroke-width:0.50;stroke:#2b5e68;"/>
		<path vector-effect="non-scaling-stroke" d="M 245.876312 19.846156 Q 245.438637 20.433562 244.910465 20.937053 Q 243.655029 22.1349 242.409465 23.34262 Q 242.378202 23.373883 242.337067 23.390337 Q 242.302514 23.4035 242.253152 23.42489" style="fill:none;stroke-width:0.50;stroke:#7e6b66;"/>
		<path vector-effect="non-scaling-stroke" d="M 242.253152 23.42489 L 237.257733 16.751168" style="fill:none;stroke-width:0.50;stroke:#7b8b89;"/>
		<path vector-effect="non-scaling-stroke" d="M 246.014525 20.774159 Q 245.78417 20.578357 245.780879 21.23816 Q 245.734808 32.831613 245.738099 44.42342" style="fill:none;stroke-width:0.50;stroke:#e97357;"/>
		<path vector-effect="non-scaling-stroke" d="M 245.738099 44.42342 Q 245.7019 44.464554 245.662411 44.4662" style="fill:none;stroke-width:0.50;stroke:#7e6b66;"/>
		<path vector-effect="non-scaling-stroke" d="M 245.662411 44.4662 L 221.532694 44.413547" style="fill:none;stroke-width:0.50;stroke:#a2978a;"/>
		<path vector-effect="non-scaling-stroke" d="M 256.423293 44.433292 Q 251.18271 44.525434 245.920738 44.464554 Q 245.879603 44.462909 245.738099 44.42342" style="fill:none;stroke-width:0.50;stroke:#723935;"/>
		<path vector-effect="non-scaling-stroke" d="M 288.026393 45.004244 Q 287.445569 45.392557 287.101681 46.060587" style="fill:none;stroke-width:0.50;stroke:#2b5e68;"/>
		<path vector-effect="non-scaling-stroke" d="M 286.292147 46.94581 Q 285.517166 47.679656 284.949505 48.563233" style="fill:none;stroke-width:0.50;stroke:#2b5e68;"/>
		<path vector-effect="non-scaling-stroke" d="M 251.184356 92.886881 Q 251.042852 93.095846 251.079051 93.385436" style="fill:none;stroke-width:0.50;stroke:#2b5e68;"/>
		<path vector-effect="non-scaling-stroke" d="M 251.008299 93.602628 Q 250.842114 93.921834 250.926029 94.30192" style="fill:none;stroke-width:0.50;stroke:#2b5e68;"/>
		<path vector-effect="non-scaling-stroke" d="M 250.848695 94.588219 Q 250.667702 95.77784 250.646312 96.514977 Q 250.45051 103.185408 250.689092 109.849257" style="fill:none;stroke-width:0.50;stroke:#2b5e68;"/>
		<path vector-effect="non-scaling-stroke" d="M 250.784525 111.769433 L 250.835532 113.395083" style="fill:none;stroke-width:0.50;stroke:#2b5e68;"/>
		<path vector-effect="non-scaling-stroke" d="M 273.18164 150.75871 Q 272.786745 150.768583 273.573244 151.066399" style="fill:none;stroke-width:0.50;stroke:#2b5e68;"/>
		<path vector-effect="non-scaling-stroke" d="M 270.703676 151.189804 L 254.027598 151.178286" style="fill:none;stroke-width:0.50;stroke:#2b5e68;"/>
		<path vector-effect="non-scaling-stroke" d="M 248.831441 151.201321 L 245.82695 151.128924 C 245.715063 151.127279 245.626212 151.035137 245.626212 150.92325 L 245.64102 143.801981" style="fill:none;stroke-width:0.50;stroke:#2b5e68;"/>
		<path vector-effect="non-scaling-stroke" d="M 245.64102 143.801981 Q 245.63773 143.13395 245.63773 142.503764 Q 245.649247 114.099312 245.647602 85.696505 Q 245.647602 85.25883 245.729872 85.015312" style="fill:none;stroke-width:0.50;stroke:#776726;"/>
		<path vector-effect="non-scaling-stroke" d="M 245.729872 85.015312 C 248.759044 84.418033 251.340668 83.141207 252.925184 80.370362 Q 256.250527 74.553891 259.345515 68.469221" style="fill:none;stroke-width:0.50;stroke:#723935;"/>
		<path vector-effect="non-scaling-stroke" d="M 259.345515 68.469221 L 263.069043 61.440094 C 263.07727 61.42364 263.064107 61.40225 263.044362 61.40225 L 245.721645 61.400604" style="fill:none;stroke-width:0.50;stroke:#7b8b89;"/>
		<path vector-effect="non-scaling-stroke" d="M 245.721645 61.400604 Q 245.57685 61.392377 245.63773 61.351242" style="fill:none;stroke-width:0.50;stroke:#776726;"/>
		<path vector-effect="non-scaling-stroke" d="M 245.63773 61.351242 L 245.662411 44.4662" style="fill:none;stroke-width:0.50;stroke:#2b5e68;"/>
		<path vector-effect="non-scaling-stroke" d="M 245.63773 61.351242 L 227.500542 61.403895 C 227.421563 61.403895 227.370555 61.486165 227.406754 61.556917 Q 232.323194 71.253229 237.845139 80.362135 Q 238.585567 81.586309 240.100976 83.363335 C 240.403728 83.718741 240.425119 83.985294 240.428409 84.482204 Q 240.462963 88.544684 240.467899 92.608809 Q 240.469544 92.682852 240.451445 92.766767 Q 240.423473 92.898399 240.438282 92.92308" style="fill:none;stroke-width:0.50;stroke:#9c934a;"/>
		<path vector-effect="non-scaling-stroke" d="M 245.721645 61.400604 L 245.708482 68.414923" style="fill:none;stroke-width:0.50;stroke:#ecc16b;"/>
		<path vector-effect="non-scaling-stroke" d="M 245.708482 68.414923 L 245.729872 85.015312" style="fill:none;stroke-width:0.50;stroke:#e36f17;"/>
		<path vector-effect="non-scaling-stroke" d="M 245.64102 143.801981 L 236.609448 143.810208" style="fill:none;stroke-width:0.50;stroke:#9c934a;"/>
		<path vector-effect="non-scaling-stroke" d="M 259.345515 68.469221 L 245.708482 68.414923" style="fill:none;stroke-width:0.50;stroke:#e7937a;"/>
		<path vector-effect="non-scaling-stroke" d="M 217.605137 151.275364 L 217.361618 151.285237" style="fill:none;stroke-width:0.50;stroke:#2b5e68;"/>
		<path vector-effect="non-scaling-stroke" d="M 261.445038 63.429376 L 260.796753 63.347106 C 260.780299 63.343815 260.76549 63.355333 260.7622 63.371787 L 260.760554 63.389887 C 260.688157 63.96742 260.781944 64.456102 260.97281 64.480783 L 260.992555 64.482429 C 261.183421 64.50711 261.395677 64.057917 261.469719 63.480383 L 261.471365 63.462284 C 261.47301 63.44583 261.461492 63.431021 261.445038 63.429376" style="fill:none;stroke-width:0.50;stroke:#f3c5ab;"/>
		<path vector-effect="non-scaling-stroke" d="M 258.348405 67.763346 Q 258.050589 67.980538 258.384604 68.263546 C 258.438902 68.309617 258.521172 68.286582 258.545853 68.219121 Q 258.577115 68.128624 258.664321 68.079262 Q 258.741655 68.034836 258.823924 68.066099 L 259.016436 68.141787 Q 259.103641 68.174695 259.123386 68.085844 Q 259.197429 67.769928 258.995045 67.664622 Q 258.693938 67.509955 258.348405 67.763346" style="fill:none;stroke-width:0.50;stroke:#f3c5ab;"/>
		<path d="M 241.239589 11.94826 L 237.257733 16.751168 L 234.485243 19.984369 Q 234.284505 19.974497 234.18249 20.119292 Q 234.133129 20.186753 234.050859 20.186753 L 206.852481 20.231178 Q 210.189342 16.721551 215.048193 11.436543 Q 217.294157 8.991486 220.145626 7.031821 Q 223.372246 4.810537 227.528513 3.828237 C 233.476616 2.423069 240.145401 3.749258 245.112849 7.426715 C 245.181955 7.477723 245.191828 7.576446 245.134239 7.640617 L 241.239589 11.94826 Z" style="fill:#e89c08;"/>
		<path d="M 241.239589 11.94826 L 245.474836 19.169899 Q 245.501162 19.44797 245.76607 19.582893 Q 245.82695 19.670099 245.876312 19.846156 Q 245.438637 20.433562 244.910465 20.937053 Q 243.655029 22.1349 242.409465 23.34262 Q 242.378202 23.373883 242.337067 23.390337 Q 242.302514 23.4035 242.253152 23.42489 L 237.257733 16.751168 L 241.239589 11.94826 Z" style="fill:#063144;"/>
		<path fill-opacity="0.996" d="M 237.257733 16.751168 L 242.253152 23.42489 Q 242.266316 23.477543 242.20379 23.535131 C 239.656719 25.876528 237.15901 28.273869 234.611938 30.61362 Q 227.691407 36.968135 220.808721 43.373658 Q 218.747041 41.42551 217.030894 39.340795 Q 216.631063 38.855403 217.091774 38.57075 Q 217.610073 38.144593 218.064202 37.637811 Q 218.740459 36.879284 218.750332 36.869412 Q 226.686071 28.489415 234.485243 19.984369 L 237.257733 16.751168 Z" style="fill:#f1e6cf;"/>
		<path d="M 245.474836 19.169899 Q 245.667347 19.347601 245.76607 19.582893 Q 245.501162 19.44797 245.474836 19.169899 Z" style="fill:#4f8a8c;"/>
		<path d="M 245.876312 19.846156 Q 245.904284 19.990951 245.856567 20.17359 Q 245.835177 20.250923 245.861503 20.326611 L 246.014525 20.774159 Q 245.78417 20.578357 245.780879 21.23816 Q 245.734808 32.831613 245.738099 44.42342 Q 245.7019 44.464554 245.662411 44.4662 L 221.532694 44.413547 L 220.808721 43.373658 Q 227.691407 36.968135 234.611938 30.61362 C 237.15901 28.273869 239.656719 25.876528 242.20379 23.535131 Q 242.266316 23.477543 242.253152 23.42489 Q 242.302514 23.4035 242.337067 23.390337 Q 242.378202 23.373883 242.409465 23.34262 Q 243.655029 22.1349 244.910465 20.937053 Q 245.438637 20.433562 245.876312 19.846156 Z" style="fill:#f5a487;"/>
		<path d="M 234.485243 19.984369 Q 226.686071 28.489415 218.750332 36.869412 Q 218.740459 36.879284 218.064202 37.637811 Q 217.610073 38.144593 217.091774 38.57075 L 203.040101 24.464779 Q 202.882143 24.308467 203.038456 24.148864 L 206.852481 20.231178 L 234.050859 20.186753 Q 234.133129 20.186753 234.18249 20.119292 Q 234.284505 19.974497 234.485243 19.984369 Z" style="fill:#dd4126;"/>
		<path d="M 246.014525 20.774159 Q 246.337022 21.573821 246.710527 22.332348 Q 248.485908 25.94728 250.190537 29.598412 Q 253.367795 36.407056 256.03498 43.431246 Q 256.051434 43.477317 256.192938 43.942964 Q 256.276853 44.224327 256.423293 44.433292 Q 251.18271 44.525434 245.920738 44.464554 Q 245.879603 44.462909 245.738099 44.42342 Q 245.734808 32.831613 245.780879 21.23816 Q 245.78417 20.578357 246.014525 20.774159 Z" style="fill:#dd4126;"/>
		<path d="M 288.026393 45.004244 Q 287.445569 45.392557 287.101681 46.060587 L 286.292147 46.94581 Q 285.517166 47.679656 284.949505 48.563233 Q 280.553009 53.856469 276.141706 59.148059 Q 275.990329 59.330697 275.254838 60.2587 C 274.858298 60.762191 274.382779 61.288717 274.0356 61.709938 Q 268.293172 68.684767 256.93172 82.636071 Q 255.562752 84.317664 254.921048 85.242376 C 253.306915 87.57061 251.893521 90.130844 251.184356 92.886881 Q 251.042852 93.095846 251.079051 93.385436 Q 251.065887 93.495677 251.008299 93.602628 Q 250.842114 93.921834 250.926029 94.30192 L 250.848695 94.588219 Q 250.667702 95.77784 250.646312 96.514977 Q 250.45051 103.185408 250.689092 109.849257 L 250.784525 111.769433 L 250.835532 113.395083 C 250.873376 114.010461 250.842114 114.668619 250.909575 115.239571 C 251.037916 116.34034 251.003362 117.334158 251.09715 118.476062 C 251.225491 120.072095 251.292952 121.641802 251.449264 123.198346 C 251.529889 124.004589 251.495335 124.698946 251.607222 125.459118 Q 251.617095 125.523289 251.697719 126.584568 Q 252.092614 131.798825 253.065042 137.460629 Q 253.662321 140.950511 254.514635 144.321925 C 254.532734 144.389387 254.580451 144.44533 254.646267 144.471656 Q 257.400658 145.559262 259.335642 146.200966 Q 270.043872 149.753374 271.791282 150.322681 Q 271.799509 150.325971 272.447794 150.562908 Q 272.82788 150.701121 273.18164 150.75871 Q 272.786745 150.768583 273.573244 151.066399 Q 273.581471 151.084498 273.573244 151.13386 C 273.565017 151.193094 273.51401 151.23752 273.45313 151.235875 L 270.703676 151.189804 L 254.027598 151.178286 L 248.831441 151.201321 L 245.82695 151.128924 C 245.715063 151.127279 245.626212 151.035137 245.626212 150.92325 L 245.64102 143.801981 Q 245.63773 143.13395 245.63773 142.503764 Q 245.649247 114.099312 245.647602 85.696505 Q 245.647602 85.25883 245.729872 85.015312 C 248.759044 84.418033 251.340668 83.141207 252.925184 80.370362 Q 256.250527 74.553891 259.345515 68.469221 L 263.069043 61.440094 C 263.07727 61.42364 263.064107 61.40225 263.044362 61.40225 L 245.721645 61.400604 Q 245.57685 61.392377 245.63773 61.351242 L 245.662411 44.4662 Q 245.7019 44.464554 245.738099 44.42342 Q 245.879603 44.462909 245.920738 44.464554 Q 251.18271 44.525434 256.423293 44.433292 L 288.368635 44.346086 C 288.460777 44.346086 288.510139 44.454682 288.449259 44.523789 L 288.026393 45.004244 Z" style="fill:#063144;"/>
		<path d="M 221.532694 44.413547 L 245.662411 44.4662 L 245.63773 61.351242 L 227.500542 61.403895 C 227.421563 61.403895 227.370555 61.486165 227.406754 61.556917 Q 232.323194 71.253229 237.845139 80.362135 Q 238.585567 81.586309 240.100976 83.363335 C 240.403728 83.718741 240.425119 83.985294 240.428409 84.482204 Q 240.462963 88.544684 240.467899 92.608809 Q 240.469544 92.682852 240.451445 92.766767 Q 240.423473 92.898399 240.438282 92.92308 Q 239.661655 91.591955 238.605312 90.246022 Q 230.692608 80.172915 225.085102 73.319845 Q 213.328755 58.948966 201.518111 44.550115 C 201.475331 44.497462 201.513175 44.418483 201.580636 44.418483 L 221.532694 44.413547 Z" style="fill:#4f8a8c;"/>
		<path d="M 288.026393 45.004244 L 287.101681 46.060587 Q 287.445569 45.392557 288.026393 45.004244 Z" style="fill:#4f8a8c;"/>
		<path d="M 286.292147 46.94581 L 284.949505 48.563233 Q 285.517166 47.679656 286.292147 46.94581 Z" style="fill:#4f8a8c;"/>
		<path d="M 245.63773 61.351242 Q 245.57685 61.392377 245.721645 61.400604 L 245.708482 68.414923 L 245.729872 85.015312 Q 245.647602 85.25883 245.647602 85.696505 Q 245.649247 114.099312 245.63773 142.503764 Q 245.63773 143.13395 245.64102 143.801981 L 236.609448 143.810208 Q 237.384429 140.371332 237.845139 137.157876 Q 238.580631 132.014372 239.107157 126.913647 Q 239.411555 123.961809 239.813032 118.229253 Q 239.936436 116.475262 240.008834 114.943399 Q 240.532069 104.00646 240.438282 92.92308 Q 240.423473 92.898399 240.451445 92.766767 Q 240.469544 92.682852 240.467899 92.608809 Q 240.462963 88.544684 240.428409 84.482204 C 240.425119 83.985294 240.403728 83.718741 240.100976 83.363335 Q 238.585567 81.586309 237.845139 80.362135 Q 232.323194 71.253229 227.406754 61.556917 C 227.370555 61.486165 227.421563 61.403895 227.500542 61.403895 L 245.63773 61.351242 Z" style="fill:#e89c08;"/>
		<path fill-opacity="0.996" d="M 259.345515 68.469221 L 245.708482 68.414923 L 245.721645 61.400604 L 263.044362 61.40225 C 263.064107 61.40225 263.07727 61.42364 263.069043 61.440094 L 259.345515 68.469221 Z M 261.445038 63.429376 L 260.796753 63.347106 C 260.780299 63.343815 260.76549 63.355333 260.7622 63.371787 L 260.760554 63.389887 C 260.688157 63.96742 260.781944 64.456102 260.97281 64.480783 L 260.992555 64.482429 C 261.183421 64.50711 261.395677 64.057917 261.469719 63.480383 L 261.471365 63.462284 C 261.47301 63.44583 261.461492 63.431021 261.445038 63.429376 Z M 258.348405 67.763346 Q 258.050589 67.980538 258.384604 68.263546 C 258.438902 68.309617 258.521172 68.286582 258.545853 68.219121 Q 258.577115 68.128624 258.664321 68.079262 Q 258.741655 68.034836 258.823924 68.066099 L 259.016436 68.141787 Q 259.103641 68.174695 259.123386 68.085844 Q 259.197429 67.769928 258.995045 67.664622 Q 258.693938 67.509955 258.348405 67.763346 Z" style="fill:#f1e6cf;"/>
		<path d="M 245.708482 68.414923 L 259.345515 68.469221 Q 256.250527 74.553891 252.925184 80.370362 C 251.340668 83.141207 248.759044 84.418033 245.729872 85.015312 L 245.708482 68.414923 Z" style="fill:#dd4126;"/>
		<path d="M 251.184356 92.886881 L 251.079051 93.385436 Q 251.042852 93.095846 251.184356 92.886881 Z" style="fill:#4f8a8c;"/>
		<path d="M 251.008299 93.602628 L 250.926029 94.30192 Q 250.842114 93.921834 251.008299 93.602628 Z" style="fill:#4f8a8c;"/>
		<path d="M 250.848695 94.588219 C 250.832241 95.562293 250.710482 96.590665 250.697319 97.487405 Q 250.611758 103.664217 250.689092 109.849257 Q 250.45051 103.185408 250.646312 96.514977 Q 250.667702 95.77784 250.848695 94.588219 Z" style="fill:#4f8a8c;"/>
		<path d="M 250.784525 111.769433 L 250.835532 113.395083 L 250.784525 111.769433 Z" style="fill:#4f8a8c;"/>
		<path d="M 236.609448 143.810208 L 245.64102 143.801981 L 245.626212 150.92325 C 245.626212 151.035137 245.715063 151.127279 245.82695 151.128924 L 248.831441 151.201321 L 217.605137 151.275364 L 217.361618 151.285237 Q 217.223405 151.145378 217.322129 150.989066 Q 217.381363 150.896923 217.537676 150.855789 C 218.256713 150.661632 218.92968 150.324326 219.548348 150.148269 C 220.881118 149.766537 222.857237 149.027755 223.880673 148.680576 Q 230.065712 146.585989 236.237589 144.456848 Q 236.316568 144.430521 236.364284 144.361415 Q 236.586412 144.042208 236.609448 143.810208 Z" style="fill:#4f8a8c;"/>
		<path d="M 273.18164 150.75871 Q 273.558436 150.789973 273.573244 151.066399 Q 272.786745 150.768583 273.18164 150.75871 Z" style="fill:#4f8a8c;"/>
		<path d="M 270.703676 151.189804 L 254.027598 151.178286 L 270.703676 151.189804 Z" style="fill:#4f8a8c;"/>
		<path d="M 217.605137 151.275364 Q 217.499832 151.300045 217.361618 151.285237 L 217.605137 151.275364 Z" style="fill:#063144;"/>
		<path d="M 261.445038 63.429376 C 261.461492 63.431021 261.47301 63.44583 261.471365 63.462284 L 261.469719 63.480383 C 261.395677 64.057917 261.183421 64.50711 260.992555 64.482429 L 260.97281 64.480783 C 260.781944 64.456102 260.688157 63.96742 260.760554 63.389887 L 260.7622 63.371787 C 260.76549 63.355333 260.780299 63.343815 260.796753 63.347106 L 261.445038 63.429376 Z" style="fill:#f5a487;"/>
		<path d="M 258.348405 67.763346 Q 258.693938 67.509955 258.995045 67.664622 Q 259.197429 67.769928 259.123386 68.085844 Q 259.103641 68.174695 259.016436 68.141787 L 258.823924 68.066099 Q 258.741655 68.034836 258.664321 68.079262 Q 258.577115 68.128624 258.545853 68.219121 C 258.521172 68.286582 258.438902 68.309617 258.384604 68.263546 Q 258.050589 67.980538 258.348405 67.763346 Z" style="fill:#f5a487;"/>
	</g>
	<g id="surface4">
	</g>
</svg>
