<?xml version="1.0" encoding="utf-8"?>
<svg xmlns="http://www.w3.org/2000/svg" width="490pt" height="280pt" viewBox="0 0 490 280" version="1.1" xmlns:xlink="http://www.w3.org/1999/xlink">
	<g id="surface2">
		<path vector-effect="non-scaling-stroke" d="M 198.357963 49.344885 C 200.501743 51.345642 202.911357 52.873804 205.644327 53.494085 Q 207.713486 53.963571 209.919449 54.17655 Q 210.97968 54.277599 214.023567 54.723766 C 215.363623 54.919644 216.53112 55.295855 218.147894 55.726477 Q 219.540807 56.096469 221.471608 55.686057 Q 223.079054 55.345602 225.179305 53.997772 C 227.665094 52.405872 229.636314 50.066214 232.210715 48.572253 C 235.343214 46.754938 238.736884 46.027389 242.27824 47.020772 C 243.17213 47.271061 243.983626 47.662818 244.715838 48.199152 C 244.78113 48.247344 244.866633 48.258226 244.942808 48.228689 Q 246.365258 47.679919 248.132826 47.740548 C 251.787668 47.866469 255.05697 49.253164 257.890988 51.575721 Q 258.662065 52.20533 260.636394 53.913825 C 262.363544 55.406231 264.302117 56.348313 266.618456 56.087141 Q 267.053742 56.037395 268.953451 55.507279 Q 272.670475 54.470368 276.572496 54.660028 Q 280.870938 54.868343 281.237821 54.882334 C 283.583697 54.964727 285.659075 54.731539 287.827728 53.845423 Q 290.447212 52.77431 293.240811 50.457971" style="fill:none;stroke-width:0.50;stroke:#858987;"/>
		<path vector-effect="non-scaling-stroke" d="M 293.240811 50.457971 Q 293.542401 50.265202 293.845546 50.025795 Q 295.947352 48.367047 299.084515 46.053817 Q 301.523666 44.255157 303.930172 42.944637 Q 304.025002 42.893336 303.970591 42.798506 C 301.800383 39.005306 299.285057 35.386221 296.404401 32.10759 Q 290.030582 24.852319 281.858102 19.577595 C 266.8532 9.895608 248.28984 7.02428 230.897087 10.548536 C 219.469296 12.864875 208.851446 18.450517 200.063348 26.319852 Q 193.583817 32.120027 188.651103 39.669116 Q 188.539173 39.841676 188.316866 40.138602 Q 188.257792 40.216332 188.337076 40.275406 Q 190.869503 42.142469 193.297773 44.463472 C 195.043577 46.131547 196.68056 47.779412 198.357963 49.344885" style="fill:none;stroke-width:0.50;stroke:#785d58;"/>
		<path vector-effect="non-scaling-stroke" d="M 293.240811 50.457971 C 293.058924 50.25121 292.853718 50.069323 292.709141 49.83458 Q 291.282027 47.519796 289.52534 45.149046 Q 278.540607 30.32603 260.984622 25.174119 Q 259.709858 24.801017 257.971827 24.406151 C 249.098227 22.388293 239.630774 22.546862 230.754065 24.986013 C 222.094998 27.366091 214.186799 31.709615 207.704158 37.884447 Q 203.890749 41.515969 200.842198 45.676052 Q 200.240572 46.496876 198.357963 49.344885" style="fill:none;stroke-width:0.50;stroke:#edc0a7;"/>
		<path vector-effect="non-scaling-stroke" d="M 239.197043 129.574166 Q 238.75243 127.823698 238.60319 126.483641 Q 238.244079 123.251649 238.105721 122.320449 Q 237.23826 116.4783 234.707387 111.296852 C 233.664257 109.162399 232.748604 107.272018 232.29 105.305462 Q 231.661945 102.603584 231.553124 102.169854 C 230.786711 99.127521 228.000886 96.738116 225.229052 95.503772 Q 224.244996 95.065377 222.25823 94.61921 Q 220.061594 94.126405 218.858342 93.859015 C 218.525659 93.784395 218.182095 93.771958 217.883614 93.848133 Q 216.089617 94.308292 215.200391 94.50417 C 212.736366 95.049831 209.678488 94.793324 207.704158 93.097266 Q 207.64042 93.042855 207.558027 93.045965 Q 207.354376 93.052183 207.11186 93.108148 C 205.59147 93.464149 204.312043 92.996218 203.4337 91.709017 Q 203.390171 91.643724 203.310887 91.639061 Q 203.200511 91.632842 202.95644 91.62196 C 202.146499 91.58465 201.394077 91.116718 201.355213 90.253921 C 201.266601 88.327784 201.711214 86.530678 202.216456 84.708698 Q 202.552247 83.500782 202.222674 82.393914 Q 202.042341 81.789178 202.045451 81.448723 C 202.057887 79.561451 202.527374 77.472082 204.36179 76.673023 Q 204.724009 76.516009 205.778021 76.386978 Q 206.91909 76.248619 207.641975 75.911273 Q 210.455783 74.600754 213.061276 72.623316 Q 215.784917 70.555711 217.079891 69.469052 C 217.098546 69.453506 217.089218 69.422415 217.064345 69.42086 C 213.5945 69.080405 210.660989 66.959944 208.846782 64.023324 Q 208.403724 63.303548 208.483008 62.459406 Q 208.492335 62.364576 208.39906 62.352139 Q 206.793169 62.136051 206.216416 62.022566 Q 200.553044 60.917253 196.251494 57.197119" style="fill:none;stroke-width:0.50;stroke:#858987;"/>
		<path vector-effect="non-scaling-stroke" d="M 196.251494 57.197119 C 193.894735 54.9725 192.083638 52.600196 190.241449 49.893655 Q 188.195608 46.885523 186.253925 43.840081 C 186.232161 43.807435 186.183969 43.808989 186.165314 43.84319 Q 181.330539 52.592423 179.160331 62.269746 C 176.422698 74.477941 177.095835 87.572253 181.353857 99.481967 Q 186.000527 112.479895 194.917655 122.631367 C 199.458613 127.801934 204.823503 132.227852 210.752709 135.790972 C 221.199554 142.069961 233.048639 145.149604 245.213306 145.076538 Q 245.356329 145.074984 245.319019 144.936625 Q 244.083119 140.317938 242.024842 135.958868 C 240.897765 133.571017 239.901272 131.725719 239.197043 129.574166" style="fill:none;stroke-width:0.50;stroke:#785d58;"/>
		<path vector-effect="non-scaling-stroke" d="M 196.251494 57.197119 Q 195.851964 58.294659 195.426006 59.379763 Q 194.815052 60.942126 194.600519 61.565517 C 192.037 68.973138 191.328107 76.895329 192.253088 84.671388 C 193.600918 96.007459 198.589597 106.244434 206.514897 114.426241 C 212.279317 120.378766 219.562571 124.722291 227.447452 127.209635 Q 233.205653 129.026951 239.197043 129.574166" style="fill:none;stroke-width:0.50;stroke:#edc0a7;"/>
		<path vector-effect="non-scaling-stroke" d="M 295.185603 58.269786 Q 293.400933 59.768411 292.203899 60.520832 Q 287.030223 63.77148 280.91913 63.230483 Q 277.365337 62.916455 275.24954 63.056369 Q 275.083199 63.067251 274.867111 63.160526 Q 274.772281 63.200945 274.850011 63.269347 Q 275.597768 63.931603 276.036163 64.536338 C 276.860096 65.675853 276.345526 66.745411 275.552685 67.682828 Q 272.459051 71.339224 267.719106 72.100973 C 267.655368 72.111855 267.630495 72.189585 267.677132 72.234668 Q 268.658079 73.172086 269.496003 74.264963 Q 271.771922 77.235784 273.160171 80.346519 Q 274.476909 83.294021 274.971269 84.321605 Q 276.628462 87.765022 279.57441 90.305222 Q 280.864719 91.418309 283.019381 93.042855 Q 284.808714 94.39224 285.769451 95.286129 Q 287.913231 97.277559 289.601515 99.918807 Q 290.85296 101.876036 292.205454 103.766417" style="fill:none;stroke-width:0.50;stroke:#858987;"/>
		<path vector-effect="non-scaling-stroke" d="M 292.205454 103.766417 Q 296.552087 109.415798 303.55707 110.909759 Q 303.633245 110.925305 303.673664 110.860012 Q 306.408188 106.303508 308.239495 101.774988 Q 311.771524 93.039746 312.794444 83.505446 C 313.486237 77.050788 313.063388 70.327186 311.735768 63.605139 Q 309.94799 54.551207 305.960466 46.53885 Q 305.913828 46.442465 305.840763 46.521749 C 304.407431 48.043693 303.193296 49.45526 301.517448 51.456018 Q 298.517089 55.037793 295.185603 58.269786" style="fill:none;stroke-width:0.50;stroke:#785d58;"/>
		<path vector-effect="non-scaling-stroke" d="M 292.205454 103.766417 Q 292.286292 103.69957 292.31272 103.500583 Q 292.334485 103.343569 292.393559 103.236302 Q 298.904182 91.304824 298.837335 77.598004 Q 298.795361 69.130152 296.101256 61.181533 Q 295.925588 60.6623 295.285097 58.835657 Q 295.236904 58.697298 295.243123 58.551167 Q 295.249341 58.373943 295.185603 58.269786" style="fill:none;stroke-width:0.50;stroke:#edc0a7;"/>
		<path d="M 287.787309 16.631647 Q 290.56847 18.612194 292.887919 20.580305 Q 303.715638 29.771042 310.367729 42.389649 C 310.557389 42.748759 310.644446 43.023921 310.827888 43.295975 C 311.115487 43.721932 311.230526 44.166545 311.507243 44.639141 Q 311.570982 44.749516 311.791733 45.226776 Q 312.890829 47.609962 313.480018 49.066613 Q 315.144984 53.181613 315.438802 54.300918 C 315.65489 55.123296 315.987572 56.03584 316.186559 56.766497 Q 316.932763 59.511903 317.35872 61.361865 Q 317.924591 63.822781 318.380086 67.082757 Q 318.602392 68.671548 318.711214 70.174836 Q 319.23511 77.482964 318.663021 83.904975 Q 318.069168 90.57883 316.212987 96.840719 Q 315.047045 100.775386 313.318341 104.986771 Q 313.302795 105.025635 313.24372 105.167103 Q 307.08288 119.794241 295.95357 130.64217 Q 293.741389 132.798386 291.429713 134.673222 Q 278.599682 145.074984 262.357325 149.040743 Q 257.430829 150.243995 253.168144 150.66218 Q 251.747248 150.800539 250.065182 150.928015 Q 245.384311 151.284016 240.383195 150.940452 Q 231.979082 150.362144 224.129957 148.020932 Q 223.902986 147.95253 223.309133 147.753542 C 222.808555 147.587201 222.182055 147.433297 221.641058 147.221872 Q 220.908846 146.937382 220.812461 146.910954 Q 220.198398 146.744613 219.892144 146.609364 Q 219.711812 146.53008 218.620489 146.102568 Q 208.28402 142.054415 199.489705 135.016786 Q 188.722614 126.401248 181.775151 114.35473 Q 175.748006 103.903221 173.106757 92.309089 Q 172.24396 88.523662 171.842876 84.246985 Q 171.432464 79.878587 171.513303 75.396704 C 171.536621 74.06442 171.639224 72.715036 171.710736 71.379644 Q 171.816448 69.437961 172.133584 67.292626 Q 172.156903 67.134058 172.388537 65.431782 Q 172.514459 64.500583 172.699455 63.577156 L 173.021255 61.977483 Q 173.170496 61.239053 173.369483 60.494404 C 173.542043 59.84614 173.643091 59.244514 173.851406 58.51852 Q 174.143669 57.506482 174.434377 56.463352 C 174.586727 55.914582 174.813697 55.275645 174.992475 54.6507 Q 175.099742 54.277599 175.354695 53.573369 Q 175.63763 52.788301 175.716914 52.491375 C 175.763552 52.317261 175.853718 52.175793 175.895692 52.060753 Q 180.246989 39.902305 188.593583 29.853435 Q 196.36187 20.499467 206.472923 14.152076 Q 208.347759 12.973696 210.720063 11.672504 Q 211.267279 11.372469 211.537777 11.235665 Q 213.577399 10.194089 214.836617 9.645319 Q 218.009536 8.264843 221.067414 7.173521 Q 224.81864 5.835019 230.579951 4.577356 Q 230.948388 4.498072 231.850051 4.353495 C 232.339746 4.274211 232.97091 4.123415 233.536781 4.039467 Q 237.886524 3.388094 242.33576 3.181334 Q 244.294544 3.089613 245.441831 3.114486 Q 251.902707 3.25129 256.70639 4.005266 Q 259.943047 4.515172 263.092646 5.312677 Q 264.149768 5.581621 266.072795 6.125727 Q 267.851246 6.62786 269.024962 7.041381 Q 273.436888 8.59908 276.82434 10.192535 Q 282.464393 12.844665 287.787309 16.631647 Z M 198.357963 49.344885 C 200.501743 51.345642 202.911357 52.873804 205.644327 53.494085 Q 207.713486 53.963571 209.919449 54.17655 Q 210.97968 54.277599 214.023567 54.723766 C 215.363623 54.919644 216.53112 55.295855 218.147894 55.726477 Q 219.540807 56.096469 221.471608 55.686057 Q 223.079054 55.345602 225.179305 53.997772 C 227.665094 52.405872 229.636314 50.066214 232.210715 48.572253 C 235.343214 46.754938 238.736884 46.027389 242.27824 47.020772 C 243.17213 47.271061 243.983626 47.662818 244.715838 48.199152 C 244.78113 48.247344 244.866633 48.258226 244.942808 48.228689 Q 246.365258 47.679919 248.132826 47.740548 C 251.787668 47.866469 255.05697 49.253164 257.890988 51.575721 Q 258.662065 52.20533 260.636394 53.913825 C 262.363544 55.406231 264.302117 56.348313 266.618456 56.087141 Q 267.053742 56.037395 268.953451 55.507279 Q 272.670475 54.470368 276.572496 54.660028 Q 280.870938 54.868343 281.237821 54.882334 C 283.583697 54.964727 285.659075 54.731539 287.827728 53.845423 Q 290.447212 52.77431 293.240811 50.457971 Q 293.542401 50.265202 293.845546 50.025795 Q 295.947352 48.367047 299.084515 46.053817 Q 301.523666 44.255157 303.930172 42.944637 Q 304.025002 42.893336 303.970591 42.798506 C 301.800383 39.005306 299.285057 35.386221 296.404401 32.10759 Q 290.030582 24.852319 281.858102 19.577595 C 266.8532 9.895608 248.28984 7.02428 230.897087 10.548536 C 219.469296 12.864875 208.851446 18.450517 200.063348 26.319852 Q 193.583817 32.120027 188.651103 39.669116 Q 188.539173 39.841676 188.316866 40.138602 Q 188.257792 40.216332 188.337076 40.275406 Q 190.869503 42.142469 193.297773 44.463472 C 195.043577 46.131547 196.68056 47.779412 198.357963 49.344885 Z M 239.197043 129.574166 Q 238.75243 127.823698 238.60319 126.483641 Q 238.244079 123.251649 238.105721 122.320449 Q 237.23826 116.4783 234.707387 111.296852 C 233.664257 109.162399 232.748604 107.272018 232.29 105.305462 Q 231.661945 102.603584 231.553124 102.169854 C 230.786711 99.127521 228.000886 96.738116 225.229052 95.503772 Q 224.244996 95.065377 222.25823 94.61921 Q 220.061594 94.126405 218.858342 93.859015 C 218.525659 93.784395 218.182095 93.771958 217.883614 93.848133 Q 216.089617 94.308292 215.200391 94.50417 C 212.736366 95.049831 209.678488 94.793324 207.704158 93.097266 Q 207.64042 93.042855 207.558027 93.045965 Q 207.354376 93.052183 207.11186 93.108148 C 205.59147 93.464149 204.312043 92.996218 203.4337 91.709017 Q 203.390171 91.643724 203.310887 91.639061 Q 203.200511 91.632842 202.95644 91.62196 C 202.146499 91.58465 201.394077 91.116718 201.355213 90.253921 C 201.266601 88.327784 201.711214 86.530678 202.216456 84.708698 Q 202.552247 83.500782 202.222674 82.393914 Q 202.042341 81.789178 202.045451 81.448723 C 202.057887 79.561451 202.527374 77.472082 204.36179 76.673023 Q 204.724009 76.516009 205.778021 76.386978 Q 206.91909 76.248619 207.641975 75.911273 Q 210.455783 74.600754 213.061276 72.623316 Q 215.784917 70.555711 217.079891 69.469052 C 217.098546 69.453506 217.089218 69.422415 217.064345 69.42086 C 213.5945 69.080405 210.660989 66.959944 208.846782 64.023324 Q 208.403724 63.303548 208.483008 62.459406 Q 208.492335 62.364576 208.39906 62.352139 Q 206.793169 62.136051 206.216416 62.022566 Q 200.553044 60.917253 196.251494 57.197119 C 193.894735 54.9725 192.083638 52.600196 190.241449 49.893655 Q 188.195608 46.885523 186.253925 43.840081 C 186.232161 43.807435 186.183969 43.808989 186.165314 43.84319 Q 181.330539 52.592423 179.160331 62.269746 C 176.422698 74.477941 177.095835 87.572253 181.353857 99.481967 Q 186.000527 112.479895 194.917655 122.631367 C 199.458613 127.801934 204.823503 132.227852 210.752709 135.790972 C 221.199554 142.069961 233.048639 145.149604 245.213306 145.076538 Q 245.356329 145.074984 245.319019 144.936625 Q 244.083119 140.317938 242.024842 135.958868 C 240.897765 133.571017 239.901272 131.725719 239.197043 129.574166 Z M 295.185603 58.269786 Q 293.400933 59.768411 292.203899 60.520832 Q 287.030223 63.77148 280.91913 63.230483 Q 277.365337 62.916455 275.24954 63.056369 Q 275.083199 63.067251 274.867111 63.160526 Q 274.772281 63.200945 274.850011 63.269347 Q 275.597768 63.931603 276.036163 64.536338 C 276.860096 65.675853 276.345526 66.745411 275.552685 67.682828 Q 272.459051 71.339224 267.719106 72.100973 C 267.655368 72.111855 267.630495 72.189585 267.677132 72.234668 Q 268.658079 73.172086 269.496003 74.264963 Q 271.771922 77.235784 273.160171 80.346519 Q 274.476909 83.294021 274.971269 84.321605 Q 276.628462 87.765022 279.57441 90.305222 Q 280.864719 91.418309 283.019381 93.042855 Q 284.808714 94.39224 285.769451 95.286129 Q 287.913231 97.277559 289.601515 99.918807 Q 290.85296 101.876036 292.205454 103.766417 Q 296.552087 109.415798 303.55707 110.909759 Q 303.633245 110.925305 303.673664 110.860012 Q 306.408188 106.303508 308.239495 101.774988 Q 311.771524 93.039746 312.794444 83.505446 C 313.486237 77.050788 313.063388 70.327186 311.735768 63.605139 Q 309.94799 54.551207 305.960466 46.53885 Q 305.913828 46.442465 305.840763 46.521749 C 304.407431 48.043693 303.193296 49.45526 301.517448 51.456018 Q 298.517089 55.037793 295.185603 58.269786 Z" style="fill:#102637;"/>
		<path d="M 293.240811 50.457971 C 293.058924 50.25121 292.853718 50.069323 292.709141 49.83458 Q 291.282027 47.519796 289.52534 45.149046 Q 278.540607 30.32603 260.984622 25.174119 Q 259.709858 24.801017 257.971827 24.406151 C 249.098227 22.388293 239.630774 22.546862 230.754065 24.986013 C 222.094998 27.366091 214.186799 31.709615 207.704158 37.884447 Q 203.890749 41.515969 200.842198 45.676052 Q 200.240572 46.496876 198.357963 49.344885 C 196.68056 47.779412 195.043577 46.131547 193.297773 44.463472 Q 190.869503 42.142469 188.337076 40.275406 Q 188.257792 40.216332 188.316866 40.138602 Q 188.539173 39.841676 188.651103 39.669116 Q 193.583817 32.120027 200.063348 26.319852 C 208.851446 18.450517 219.469296 12.864875 230.897087 10.548536 C 248.28984 7.02428 266.8532 9.895608 281.858102 19.577595 Q 290.030582 24.852319 296.404401 32.10759 C 299.285057 35.386221 301.800383 39.005306 303.970591 42.798506 Q 304.025002 42.893336 303.930172 42.944637 Q 301.523666 44.255157 299.084515 46.053817 Q 295.947352 48.367047 293.845546 50.025795 Q 293.542401 50.265202 293.240811 50.457971 Z" style="fill:#e09378;"/>
		<path d="M 293.240811 50.457971 Q 290.447212 52.77431 287.827728 53.845423 C 285.659075 54.731539 283.583697 54.964727 281.237821 54.882334 Q 280.870938 54.868343 276.572496 54.660028 Q 272.670475 54.470368 268.953451 55.507279 Q 267.053742 56.037395 266.618456 56.087141 C 264.302117 56.348313 262.363544 55.406231 260.636394 53.913825 Q 258.662065 52.20533 257.890988 51.575721 C 255.05697 49.253164 251.787668 47.866469 248.132826 47.740548 Q 246.365258 47.679919 244.942808 48.228689 C 244.866633 48.258226 244.78113 48.247344 244.715838 48.199152 C 243.983626 47.662818 243.17213 47.271061 242.27824 47.020772 C 238.736884 46.027389 235.343214 46.754938 232.210715 48.572253 C 229.636314 50.066214 227.665094 52.405872 225.179305 53.997772 Q 223.079054 55.345602 221.471608 55.686057 Q 219.540807 56.096469 218.147894 55.726477 C 216.53112 55.295855 215.363623 54.919644 214.023567 54.723766 Q 210.97968 54.277599 209.919449 54.17655 Q 207.713486 53.963571 205.644327 53.494085 C 202.911357 52.873804 200.501743 51.345642 198.357963 49.344885 Q 200.240572 46.496876 200.842198 45.676052 Q 203.890749 41.515969 207.704158 37.884447 C 214.186799 31.709615 222.094998 27.366091 230.754065 24.986013 C 239.630774 22.546862 249.098227 22.388293 257.971827 24.406151 Q 259.709858 24.801017 260.984622 25.174119 Q 278.540607 30.32603 289.52534 45.149046 Q 291.282027 47.519796 292.709141 49.83458 C 292.853718 50.069323 293.058924 50.25121 293.240811 50.457971 Z" style="fill:#faecd6;"/>
		<path d="M 196.251494 57.197119 Q 195.851964 58.294659 195.426006 59.379763 Q 194.815052 60.942126 194.600519 61.565517 C 192.037 68.973138 191.328107 76.895329 192.253088 84.671388 C 193.600918 96.007459 198.589597 106.244434 206.514897 114.426241 C 212.279317 120.378766 219.562571 124.722291 227.447452 127.209635 Q 233.205653 129.026951 239.197043 129.574166 C 239.901272 131.725719 240.897765 133.571017 242.024842 135.958868 Q 244.083119 140.317938 245.319019 144.936625 Q 245.356329 145.074984 245.213306 145.076538 C 233.048639 145.149604 221.199554 142.069961 210.752709 135.790972 C 204.823503 132.227852 199.458613 127.801934 194.917655 122.631367 Q 186.000527 112.479895 181.353857 99.481967 C 177.095835 87.572253 176.422698 74.477941 179.160331 62.269746 Q 181.330539 52.592423 186.165314 43.84319 C 186.183969 43.808989 186.232161 43.807435 186.253925 43.840081 Q 188.195608 46.885523 190.241449 49.893655 C 192.083638 52.600196 193.894735 54.9725 196.251494 57.197119 Z" style="fill:#e09378;"/>
		<path d="M 292.205454 103.766417 Q 292.286292 103.69957 292.31272 103.500583 Q 292.334485 103.343569 292.393559 103.236302 Q 298.904182 91.304824 298.837335 77.598004 Q 298.795361 69.130152 296.101256 61.181533 Q 295.925588 60.6623 295.285097 58.835657 Q 295.236904 58.697298 295.243123 58.551167 Q 295.249341 58.373943 295.185603 58.269786 Q 298.517089 55.037793 301.517448 51.456018 C 303.193296 49.45526 304.407431 48.043693 305.840763 46.521749 Q 305.913828 46.442465 305.960466 46.53885 Q 309.94799 54.551207 311.735768 63.605139 C 313.063388 70.327186 313.486237 77.050788 312.794444 83.505446 Q 311.771524 93.039746 308.239495 101.774988 Q 306.408188 106.303508 303.673664 110.860012 Q 303.633245 110.925305 303.55707 110.909759 Q 296.552087 109.415798 292.205454 103.766417 Z" style="fill:#e09378;"/>
		<path d="M 196.251494 57.197119 Q 200.553044 60.917253 206.216416 62.022566 Q 206.793169 62.136051 208.39906 62.352139 Q 208.492335 62.364576 208.483008 62.459406 Q 208.403724 63.303548 208.846782 64.023324 C 210.660989 66.959944 213.5945 69.080405 217.064345 69.42086 C 217.089218 69.422415 217.098546 69.453506 217.079891 69.469052 Q 215.784917 70.555711 213.061276 72.623316 Q 210.455783 74.600754 207.641975 75.911273 Q 206.91909 76.248619 205.778021 76.386978 Q 204.724009 76.516009 204.36179 76.673023 C 202.527374 77.472082 202.057887 79.561451 202.045451 81.448723 Q 202.042341 81.789178 202.222674 82.393914 Q 202.552247 83.500782 202.216456 84.708698 C 201.711214 86.530678 201.266601 88.327784 201.355213 90.253921 C 201.394077 91.116718 202.146499 91.58465 202.95644 91.62196 Q 203.200511 91.632842 203.310887 91.639061 Q 203.390171 91.643724 203.4337 91.709017 C 204.312043 92.996218 205.59147 93.464149 207.11186 93.108148 Q 207.354376 93.052183 207.558027 93.045965 Q 207.64042 93.042855 207.704158 93.097266 C 209.678488 94.793324 212.736366 95.049831 215.200391 94.50417 Q 216.089617 94.308292 217.883614 93.848133 C 218.182095 93.771958 218.525659 93.784395 218.858342 93.859015 Q 220.061594 94.126405 222.25823 94.61921 Q 224.244996 95.065377 225.229052 95.503772 C 228.000886 96.738116 230.786711 99.127521 231.553124 102.169854 Q 231.661945 102.603584 232.29 105.305462 C 232.748604 107.272018 233.664257 109.162399 234.707387 111.296852 Q 237.23826 116.4783 238.105721 122.320449 Q 238.244079 123.251649 238.60319 126.483641 Q 238.75243 127.823698 239.197043 129.574166 Q 233.205653 129.026951 227.447452 127.209635 C 219.562571 124.722291 212.279317 120.378766 206.514897 114.426241 C 198.589597 106.244434 193.600918 96.007459 192.253088 84.671388 C 191.328107 76.895329 192.037 68.973138 194.600519 61.565517 Q 194.815052 60.942126 195.426006 59.379763 Q 195.851964 58.294659 196.251494 57.197119 Z" style="fill:#faecd6;"/>
		<path d="M 295.185603 58.269786 Q 295.249341 58.373943 295.243123 58.551167 Q 295.236904 58.697298 295.285097 58.835657 Q 295.925588 60.6623 296.101256 61.181533 Q 298.795361 69.130152 298.837335 77.598004 Q 298.904182 91.304824 292.393559 103.236302 Q 292.334485 103.343569 292.31272 103.500583 Q 292.286292 103.69957 292.205454 103.766417 Q 290.85296 101.876036 289.601515 99.918807 Q 287.913231 97.277559 285.769451 95.286129 Q 284.808714 94.39224 283.019381 93.042855 Q 280.864719 91.418309 279.57441 90.305222 Q 276.628462 87.765022 274.971269 84.321605 Q 274.476909 83.294021 273.160171 80.346519 Q 271.771922 77.235784 269.496003 74.264963 Q 268.658079 73.172086 267.677132 72.234668 C 267.630495 72.189585 267.655368 72.111855 267.719106 72.100973 Q 272.459051 71.339224 275.552685 67.682828 C 276.345526 66.745411 276.860096 65.675853 276.036163 64.536338 Q 275.597768 63.931603 274.850011 63.269347 Q 274.772281 63.200945 274.867111 63.160526 Q 275.083199 63.067251 275.24954 63.056369 Q 277.365337 62.916455 280.91913 63.230483 Q 287.030223 63.77148 292.203899 60.520832 Q 293.400933 59.768411 295.185603 58.269786 Z" style="fill:#faecd6;"/>
	</g>
	<g id="surface4">
	</g>
</svg>
