<?xml version="1.0" encoding="utf-8"?>
<svg xmlns="http://www.w3.org/2000/svg" width="490pt" height="280pt" viewBox="0 0 490 280" version="1.1" xmlns:xlink="http://www.w3.org/1999/xlink">
	<g id="surface2">
		<path vector-effect="non-scaling-stroke" d="M 281.540924 51.587332 C 281.447848 51.700352 281.38469 51.813372 281.38469 51.966281 Q 281.421256 59.867706 281.378042 67.765806 C 281.36807 69.331465 281.427904 70.072743 280.533717 71.139784 Q 279.297145 72.615692 277.658356 74.244508 C 277.276083 74.623458 276.657797 74.61681 276.285496 74.227888 Q 275.427874 73.337025 274.264433 71.990758 C 273.110965 70.661111 272.658885 70.305431 272.685478 68.646697 Q 272.748636 64.817315 272.642265 51.451043" style="fill:none;stroke-width:0.50;stroke:#3a6567;"/>
		<path vector-effect="non-scaling-stroke" d="M 220.038125 51.334699 Q 220.048097 60.206766 219.991587 69.191852 C 219.988263 69.943102 219.815409 70.378561 219.346709 70.873855 Q 218.858063 71.392417 216.777167 73.702678 C 216.14226 74.410714 215.517327 75.035648 214.69627 74.12484 Q 213.350003 72.628988 212.036977 71.033412 Q 211.431988 70.302107 211.435312 69.228417 Q 211.438636 60.462722 211.412043 51.713648" style="fill:none;stroke-width:0.50;stroke:#3a6567;"/>
		<path vector-effect="non-scaling-stroke" d="M 307.84798 103.765985 L 183.253454 103.805874" style="fill:none;stroke-width:0.50;stroke:#3a6567;"/>
		<path vector-effect="non-scaling-stroke" d="M 310.490652 112.628079 L 180.009117 112.66132" style="fill:none;stroke-width:0.50;stroke:#7a3327;"/>
		<path d="M 281.540924 51.587332 C 281.447848 51.700352 281.38469 51.813372 281.38469 51.966281 Q 281.421256 59.867706 281.378042 67.765806 C 281.36807 69.331465 281.427904 70.072743 280.533717 71.139784 Q 279.297145 72.615692 277.658356 74.244508 C 277.276083 74.623458 276.657797 74.61681 276.285496 74.227888 Q 275.427874 73.337025 274.264433 71.990758 C 273.110965 70.661111 272.658885 70.305431 272.685478 68.646697 Q 272.748636 64.817315 272.642265 51.451043 Q 272.702099 47.172906 272.58243 42.891444 C 272.562486 42.183407 272.336446 41.631604 272.299881 40.910271 Q 272.273288 40.375088 272.100434 39.414418 Q 271.113171 33.942923 268.091549 29.355643 C 265.392367 25.263655 261.842211 21.557266 257.590666 19.067503 Q 255.719189 17.970544 253.468762 17.285776 Q 250.789524 16.474692 248.977881 16.394913 Q 244.789494 16.212087 243.715805 16.448099 C 242.053747 16.817076 240.42493 16.976634 239.055394 17.584947 Q 238.490294 17.83758 237.303585 18.209881 C 236.382804 18.495755 235.485293 19.127337 234.564513 19.539527 Q 233.906338 19.832049 232.643174 20.772774 Q 226.719598 25.193849 223.305731 31.483077 C 222.969995 32.098038 222.837031 32.676435 222.527888 33.201645 Q 222.145614 33.85982 221.939519 34.478106 Q 221.331206 36.326314 220.93896 37.576182 Q 220.829264 37.925214 220.779403 38.453749 C 220.702948 39.224944 220.423722 40.016083 220.450315 40.670934 C 220.483556 41.501963 220.167765 42.196704 220.134524 43.070946 Q 219.984939 47.17623 220.038125 51.334699 Q 220.048097 60.206766 219.991587 69.191852 C 219.988263 69.943102 219.815409 70.378561 219.346709 70.873855 Q 218.858063 71.392417 216.777167 73.702678 C 216.14226 74.410714 215.517327 75.035648 214.69627 74.12484 Q 213.350003 72.628988 212.036977 71.033412 Q 211.431988 70.302107 211.435312 69.228417 Q 211.438636 60.462722 211.412043 51.713648 Q 211.481849 46.02941 211.491822 40.358467 Q 211.495146 39.587272 211.621462 39.062062 C 211.827558 38.231033 211.72451 37.303605 211.993763 36.429362 C 212.186562 35.801104 212.06357 35.196115 212.24972 34.627691 C 212.492381 33.883089 212.495705 32.965633 212.818144 32.114659 Q 213.366623 30.675317 213.682414 29.594979 Q 213.988233 28.564503 214.353886 27.946217 C 214.749456 27.274746 214.905689 26.566709 215.351121 25.772245 Q 215.989351 24.632073 216.600989 23.548411 Q 216.896835 23.029849 217.182709 22.684141 C 217.495176 22.305192 217.558334 21.969456 217.91069 21.494108 Q 222.235366 15.670256 228.089134 11.970515 Q 230.416016 10.501255 233.367831 9.268008 Q 239.563984 6.681846 245.91637 6.648604 Q 249.985088 6.625336 254.991207 8.05803 Q 260.259931 9.567178 264.700951 12.263037 Q 273.290467 17.478575 277.678301 26.387207 Q 277.701569 26.43042 278.033981 27.314635 C 278.200187 27.760067 278.512654 28.082506 278.658915 28.501345 Q 279.347007 30.472546 279.393545 30.602186 Q 279.819032 31.778923 280.074988 32.742917 Q 280.653385 34.946806 280.912666 37.070916 C 281.075547 38.420508 281.265022 39.457632 281.27167 40.53797 Q 281.301587 45.866528 281.321532 51.105335 Q 281.324856 51.384561 281.540924 51.587332 Z" style="fill:#15232e;"/>
		<path d="M 272.642265 51.451043 Q 272.748636 64.817315 272.685478 68.646697 C 272.658885 70.305431 273.110965 70.661111 274.264433 71.990758 Q 275.427874 73.337025 276.285496 74.227888 C 276.657797 74.61681 277.276083 74.623458 277.658356 74.244508 Q 279.297145 72.615692 280.533717 71.139784 C 281.427904 70.072743 281.36807 69.331465 281.378042 67.765806 Q 281.421256 59.867706 281.38469 51.966281 C 281.38469 51.813372 281.447848 51.700352 281.540924 51.587332 Q 282.155885 51.477636 282.790791 51.584008 Q 285.004653 51.952985 287.08555 52.770717 Q 291.124351 54.362969 293.567576 58.036118 C 294.116056 58.860498 294.854009 60.253303 295.236283 61.376854 Q 295.927699 63.401241 296.439613 64.900418 Q 296.778673 65.891004 297.184215 67.499877 C 297.483385 68.693234 298.008596 69.850027 298.307766 70.946985 Q 298.680067 72.326493 299.876749 76.325405 Q 300.724399 79.167525 301.392546 81.710474 Q 302.472884 85.819081 303.536601 89.934337 Q 303.95544 91.553182 306.677891 100.162643 C 306.837448 100.664584 306.977061 101.548799 307.342714 102.223595 C 307.392576 102.31667 307.415845 102.423042 307.412521 102.532738 Q 307.359335 103.44687 307.84798 103.765985 L 183.253454 103.805874 Q 186.215242 95.79143 189.266781 87.823523 Q 189.659026 86.799696 190.812495 82.677791 Q 191.759868 79.293841 192.853502 75.953104 Q 194.914454 69.663876 196.985378 63.374648 Q 197.224715 62.649991 198.241894 60.236683 Q 199.026386 58.375177 201.41975 55.955221 C 202.214213 55.150785 202.968788 54.705353 203.922809 54.00064 C 204.700652 53.425568 205.771018 53.139694 206.538889 52.730828 C 207.359945 52.295369 208.516738 52.075977 209.14832 51.936364 C 209.533917 51.849937 209.919515 51.57736 210.471318 51.660463 Q 210.896805 51.726945 211.412043 51.713648 Q 211.438636 60.462722 211.435312 69.228417 Q 211.431988 70.302107 212.036977 71.033412 Q 213.350003 72.628988 214.69627 74.12484 C 215.517327 75.035648 216.14226 74.410714 216.777167 73.702678 Q 218.858063 71.392417 219.346709 70.873855 C 219.815409 70.378561 219.988263 69.943102 219.991587 69.191852 Q 220.048097 60.206766 220.038125 51.334699 C 220.992146 51.158521 221.823175 50.962398 222.777197 50.959074 Q 226.54342 50.959074 235.239308 50.669876 Q 239.367861 50.533587 255.353536 50.65658 Q 256.540245 50.663228 261.991796 50.869323 Q 265.488766 51.002288 269.623967 50.965722 Q 271.016772 50.952426 272.642265 51.451043 Z" style="fill:#5fa6a0;"/>
		<path d="M 183.253454 103.805874 L 307.84798 103.765985 L 310.490652 112.628079 L 180.009117 112.66132 L 183.253454 103.805874 Z" style="fill:#15232e;"/>
		<path d="M 310.490652 112.628079 Q 311.826947 116.686825 313.229724 120.778812 Q 315.184304 126.473023 315.732784 129.368328 Q 315.879045 130.129551 315.885693 132.752279 Q 315.889017 134.703535 315.44691 136.076395 Q 314.609232 138.665882 313.422523 140.274754 C 310.164889 144.68918 306.32221 148.993911 302.92164 153.448227 Q 302.419698 154.106402 301.761523 154.422193 Q 301.292823 154.648233 300.315532 154.648233 Q 210.624228 154.62164 190.11443 154.644908 Q 189.36318 154.644908 188.931045 154.52524 Q 188.429103 154.382303 187.977023 153.84712 C 184.596397 149.851533 181.893891 146.510796 179.254542 143.409395 C 177.439575 141.275313 175.588042 138.778902 174.89995 136.122933 Q 174.647317 135.148967 174.577511 134.281372 Q 174.22183 129.913483 175.498291 125.76831 C 176.163114 123.614283 176.422395 122.636993 176.980847 121.121196 Q 177.552595 119.578806 177.698856 119.149995 Q 178.809111 115.902333 180.009117 112.66132 L 310.490652 112.628079 Z" style="fill:#df4320;"/>
	</g>
	<g id="surface4">
	</g>
</svg>
