<?xml version="1.0" encoding="utf-8"?>
<svg xmlns="http://www.w3.org/2000/svg" width="490pt" height="280pt" viewBox="0 0 490 280" version="1.1" xmlns:xlink="http://www.w3.org/1999/xlink">
	<g id="surface2">
		<path vector-effect="non-scaling-stroke" d="M 264.379974 22.610886 Q 261.242302 21.929473 258.043508 22.348282" style="fill:none;stroke-width:0.50;stroke:#6fbb70;"/>
		<path vector-effect="non-scaling-stroke" d="M 258.043508 22.348282 Q 258.057091 21.949847 258.079729 21.546885 Q 258.100104 21.148451 258.297057 17.417655 C 258.410249 15.253432 258.613993 13.023557 257.787695 11.164951 C 257.717516 11.008747 257.529618 10.943096 257.377941 11.02233 Q 257.094962 11.169479 256.888953 11.42982 Q 256.818775 11.518109 256.707847 11.513581 Q 256.447506 11.50679 256.36148 11.739965" style="fill:none;stroke-width:0.50;stroke:#53ab43;"/>
		<path vector-effect="non-scaling-stroke" d="M 258.043508 22.348282 L 256.019642 22.88481" style="fill:none;stroke-width:0.50;stroke:#b9d571;"/>
		<path vector-effect="non-scaling-stroke" d="M 256.936494 16.853961 Q 257.006673 16.627578 256.947813 16.392139" style="fill:none;stroke-width:0.50;stroke:#54983e;"/>
		<path vector-effect="non-scaling-stroke" d="M 266.261218 23.170053 Q 264.90971 23.219857 264.015497 22.988946 C 261.436992 22.323379 259.320309 22.529388 257.022519 23.525474 C 254.745104 24.512505 252.694073 25.857221 251.213526 27.887879 Q 251.089016 28.062194 249.676384 29.882315 Q 249.465848 30.153975 249.271159 29.868732 Q 248.798018 29.173735 248.442596 28.388186 Q 248.413166 28.324798 248.41543 28.265939 Q 248.424485 28.130109 248.487873 28.157275" style="fill:none;stroke-width:0.50;stroke:#e7ce5c;"/>
		<path vector-effect="non-scaling-stroke" d="M 270.84095 25.877596 L 270.979044 25.920609" style="fill:none;stroke-width:0.50;stroke:#829029;"/>
		<path vector-effect="non-scaling-stroke" d="M 285.467569 42.605051 Q 285.336267 42.704659 285.164216 42.711451" style="fill:none;stroke-width:0.50;stroke:#829029;"/>
		<path vector-effect="non-scaling-stroke" d="M 285.164216 42.711451 Q 284.91293 41.792335 284.881237 41.54105 C 284.745407 40.474785 283.527465 40.461202 282.735124 40.601559 C 282.637779 40.61967 282.551753 40.540436 282.558545 40.440827 C 282.624196 39.447005 283.434648 38.310561 282.033336 37.803463 Q 280.790492 37.355224 279.685742 37.977778 C 279.586133 38.034374 279.459359 37.989097 279.416346 37.882697 C 278.664754 36.026355 276.699748 37.185437 275.658385 38.009472" style="fill:none;stroke-width:0.50;stroke:#819e2e;"/>
		<path vector-effect="non-scaling-stroke" d="M 275.658385 38.009472 C 275.463695 38.127191 275.273533 38.097761 275.162606 37.891752 C 274.816239 37.257879 274.696256 37.133369 273.946928 37.137896 Q 272.097377 37.149216 271.246176 38.752009" style="fill:none;stroke-width:0.50;stroke:#829029;"/>
		<path vector-effect="non-scaling-stroke" d="M 271.246176 38.752009 Q 270.284048 38.761064 269.487179 39.227413 C 269.421528 39.265898 269.369459 39.324758 269.342293 39.394937 Q 269.111383 39.981269 269.043468 40.748708 Q 269.018565 41.04527 268.577118 41.212794 Q 268.128879 41.384845 267.146376 41.674616 C 267.046768 41.704046 266.940368 41.667824 266.881508 41.581799 Q 265.923907 40.230291 264.121897 40.467993 C 263.431428 40.558547 262.707002 41.006785 261.982575 41.144879 Q 261.344175 41.267126 261.158541 41.37579 C 260.409212 41.814973 260.608429 42.385459 260.991017 42.989902 C 261.031766 43.055553 261.052141 43.132524 261.045349 43.209494 Q 260.991017 43.952031 260.529195 44.608542 C 260.454489 44.714942 260.298284 44.726261 260.209995 44.628917 Q 259.152785 43.465307 257.559048 43.789035 C 257.396052 43.822992 257.260222 43.93392 257.196835 44.087861 L 256.877634 44.8553" style="fill:none;stroke-width:0.50;stroke:#819e2e;"/>
		<path vector-effect="non-scaling-stroke" d="M 256.877634 44.8553 Q 255.40388 43.64415 253.825989 44.547419" style="fill:none;stroke-width:0.50;stroke:#829029;"/>
		<path vector-effect="non-scaling-stroke" d="M 253.825989 44.547419 Q 252.929511 44.013154 252.608047 44.332355 C 251.86551 45.065836 251.496505 45.595573 250.622666 45.742722 C 249.128537 45.994007 249.343601 47.270809 249.377559 48.318963 C 249.38435 48.509125 249.302852 48.690231 249.160231 48.814742 C 248.698409 49.21544 247.973983 49.72933 248.073591 50.419799 C 248.132451 50.840872 248.592009 51.18271 248.259226 51.687545 C 247.935498 52.178797 247.777029 52.332737 248.057745 52.90775 Q 248.209421 53.220159 248.623703 53.17941 Q 249.11269 53.129606 249.905031 52.971138 C 250.129151 52.925861 250.355534 53.048108 250.44156 53.260908 Q 250.597764 53.648024 250.495892 54.112109 Q 250.47099 54.225301 250.373645 54.286424 Q 249.309644 54.958782 248.693881 56.047685 C 248.526358 56.341984 248.132451 56.405371 247.881166 56.181252 L 247.152212 55.531532 C 247.111463 55.49531 247.057131 55.4772 247.002799 55.479464 Q 246.52513 55.508893 246.212721 55.995617 Q 245.504142 57.100367 245.035529 57.566717 C 244.591818 58.010428 244.231868 58.771075 244.277145 59.38231 Q 244.34506 60.260677 244.019068 60.885495 Q 243.697604 61.498993 243.69534 61.510312 Q 243.500651 62.329819 244.075664 62.78485 C 244.245451 62.92068 244.288464 63.16291 244.173009 63.348544 L 243.523289 64.401226" style="fill:none;stroke-width:0.50;stroke:#819e2e;"/>
		<path vector-effect="non-scaling-stroke" d="M 243.523289 64.401226 L 242.792071 63.955251" style="fill:none;stroke-width:0.50;stroke:#ec6920;"/>
		<path vector-effect="non-scaling-stroke" d="M 242.792071 63.955251 Q 242.719629 63.717548 242.810182 63.291948 Q 242.923373 62.759948 242.936956 62.651284 C 243.305961 59.941477 243.274267 57.118478 243.249365 54.603361 C 243.217672 51.420413 242.669824 47.988443 241.306997 45.113377 Q 239.864936 42.070786 236.704627 40.372912 Q 236.480507 40.250665 236.537103 40.017491" style="fill:none;stroke-width:0.50;stroke:#f48a1c;"/>
		<path vector-effect="non-scaling-stroke" d="M 240.793107 25.150906 L 240.974214 25.139587" style="fill:none;stroke-width:0.50;stroke:#829029;"/>
		<path vector-effect="non-scaling-stroke" d="M 243.740617 25.169016 Q 243.7542 25.309374 243.969264 25.223348" style="fill:none;stroke-width:0.50;stroke:#f48a1c;"/>
		<path vector-effect="non-scaling-stroke" d="M 244.369962 25.350123 Q 244.435613 25.427093 244.523903 25.390872" style="fill:none;stroke-width:0.50;stroke:#ec6920;"/>
		<path vector-effect="non-scaling-stroke" d="M 285.164216 42.711451 L 285.420029 42.761255" style="fill:none;stroke-width:0.50;stroke:#0a783d;"/>
		<path vector-effect="non-scaling-stroke" d="M 287.129222 44.461393 L 287.052252 44.606278 Q 287.000183 44.701359 286.898311 44.739844 Q 286.004097 45.077155 285.51511 46.116254 Q 280.208687 57.394666 278.202932 69.716703 Q 277.940328 71.324024 277.856566 72.478578 Q 277.840719 72.709489 277.872413 72.818153 C 277.901842 72.915498 278.01277 72.958511 278.10106 72.906443 C 283.165252 69.884227 287.810635 66.255304 292.182095 62.282279 Q 293.400037 61.177529 297.995616 56.880776 C 299.116213 55.834885 300.388486 54.673539 301.773951 54.014764" style="fill:none;stroke-width:0.50;stroke:#0a783d;"/>
		<path vector-effect="non-scaling-stroke" d="M 302.459893 56.455175 Q 302.142956 56.907942 302.324063 57.107159" style="fill:none;stroke-width:0.50;stroke:#0a783d;"/>
		<path vector-effect="non-scaling-stroke" d="M 304.049103 60.335383 Q 303.865732 60.530073 303.797817 60.837954 C 303.78197 60.910397 303.797817 60.985103 303.838566 61.046227 C 304.18946 61.557853 304.694295 62.239266 304.049103 62.698824 C 303.709528 62.941054 303.041697 62.789377 303.098293 63.534178 C 303.129987 63.964306 303.08471 64.312936 303.331468 64.706843 C 303.528421 65.021516 303.775179 65.327133 303.725375 65.653125 C 303.609919 66.38887 302.962463 66.420564 302.31048 66.488479 C 301.73773 66.547339 301.196674 66.975203 300.666938 66.47716 C 300.460929 66.28247 300.141728 66.275679 299.928928 66.461313 Q 299.482953 66.846164 298.896621 66.841637 Q 298.527616 66.837109 298.416688 66.900496 C 298.013726 67.124616 298.022782 67.733587 298.310288 68.021093 Q 298.701931 68.410472 298.753999 68.802115 Q 298.969063 70.364159 297.766969 70.746747 Q 297.275717 70.905215 297.148943 71.07953 C 296.77541 71.597948 297.092347 72.358595 297.210066 72.967566 C 297.234968 73.089813 297.144415 73.205269 297.019904 73.21206 Q 295.989861 73.266392 295.190728 73.372792 C 294.638353 73.447499 294.348582 74.040623 294.038437 74.4051 C 293.941093 74.518291 293.771305 74.540929 293.649058 74.45264 Q 293.264207 74.178716 292.741262 74.113065" style="fill:none;stroke-width:0.50;stroke:#53a543;"/>
		<path vector-effect="non-scaling-stroke" d="M 292.741262 74.113065 C 291.729329 74.147023 291.133941 75.136317 290.52497 75.779246" style="fill:none;stroke-width:0.50;stroke:#6fb570;"/>
		<path vector-effect="non-scaling-stroke" d="M 280.661454 77.923095 Q 280.498458 77.954788 280.484875 78.092882" style="fill:none;stroke-width:0.50;stroke:#0a783d;"/>
		<path vector-effect="non-scaling-stroke" d="M 280.484875 78.092882 L 274.00126 78.122312" style="fill:none;stroke-width:0.50;stroke:#81c09c;"/>
		<path vector-effect="non-scaling-stroke" d="M 274.00126 78.122312 Q 274.268392 78.147214 274.211796 77.717086 Q 274.175575 77.456745 274.198213 77.293749 Q 274.363473 75.989782 274.381584 75.546071 Q 274.967916 61.553325 275.703662 53.611802 Q 276.439407 45.654433 276.631833 44.359521 C 276.917076 42.446583 277.460395 40.640045 276.55939 38.776911 Q 276.416769 38.480349 275.658385 38.009472" style="fill:none;stroke-width:0.50;stroke:#0a783d;"/>
		<path vector-effect="non-scaling-stroke" d="M 242.792071 63.955251 Q 242.486454 63.941668 242.389109 64.158996 Q 242.16499 64.657039 241.868428 64.899269" style="fill:none;stroke-width:0.50;stroke:#e63d22;"/>
		<path vector-effect="non-scaling-stroke" d="M 241.868428 64.899269 Q 241.762028 64.797396 241.644308 64.813243" style="fill:none;stroke-width:0.50;stroke:#7b7730;"/>
		<path vector-effect="non-scaling-stroke" d="M 241.644308 64.813243 Q 241.895594 64.532528 242.026896 64.197481 Q 242.067645 64.091081 241.968036 64.029957 Q 241.501687 63.742451 240.808954 63.713021 Q 237.816168 63.586246 234.879978 63.52965" style="fill:none;stroke-width:0.50;stroke:#e63d22;"/>
		<path vector-effect="non-scaling-stroke" d="M 279.074507 22.588248 L 279.300891 22.595039" style="fill:none;stroke-width:0.50;stroke:#b9d571;"/>
		<path vector-effect="non-scaling-stroke" d="M 279.488789 22.599567 Q 279.762712 23.108929 279.450304 23.692998 Q 279.364278 23.849202 279.185435 23.860521 Q 278.221043 23.921645 277.333621 24.050683 Q 273.840528 24.548726 272.027198 27.38078 C 271.961547 27.482653 271.816662 27.48718 271.744219 27.389836 C 271.406908 26.937069 270.836423 26.602022 270.979044 25.920609" style="fill:none;stroke-width:0.50;stroke:#e7ce5c;"/>
		<path vector-effect="non-scaling-stroke" d="M 270.979044 25.920609 Q 271.024321 25.848166 271.05375 25.866277" style="fill:none;stroke-width:0.50;stroke:#70a86b;"/>
		<path vector-effect="non-scaling-stroke" d="M 274.00126 78.122312 L 273.514536 78.110993" style="fill:none;stroke-width:0.50;stroke:#82b398;"/>
		<path vector-effect="non-scaling-stroke" d="M 273.514536 78.110993 Q 273.179489 78.192491 273.356068 77.615213 Q 273.385498 77.513341 273.328902 77.425052 Q 272.939523 76.838719 272.762944 76.331621 Q 271.65593 73.157728 271.252968 69.730286 Q 270.46289 63.004441 270.374601 56.169932 C 270.30895 51.10574 270.25009 47.592273 270.643997 43.250243 C 270.761716 41.939484 271.162414 40.280095 271.246176 38.752009" style="fill:none;stroke-width:0.50;stroke:#0a783d;"/>
		<path vector-effect="non-scaling-stroke" d="M 258.858487 77.909512 Q 258.724921 77.911775 258.754351 78.11552" style="fill:none;stroke-width:0.50;stroke:#75432f;"/>
		<path vector-effect="non-scaling-stroke" d="M 258.754351 78.11552 L 203.507794 78.122312" style="fill:none;stroke-width:0.50;stroke:#ec8c8e;"/>
		<path vector-effect="non-scaling-stroke" d="M 273.514536 78.110993 L 269.118174 78.108729" style="fill:none;stroke-width:0.50;stroke:#81c09c;"/>
		<path vector-effect="non-scaling-stroke" d="M 269.118174 78.108729 Q 269.088744 77.938941 268.875944 77.938941" style="fill:none;stroke-width:0.50;stroke:#0a783d;"/>
		<path vector-effect="non-scaling-stroke" d="M 256.277719 70.203427 Q 255.834008 70.035904 255.591778 69.755189 Q 251.254275 64.706843 244.566916 64.550639 Q 244.548805 64.550639 244.077928 64.577805 Q 243.686285 64.600443 243.523289 64.401226" style="fill:none;stroke-width:0.50;stroke:#735133;"/>
		<path vector-effect="non-scaling-stroke" d="M 253.825989 44.547419 Q 252.83443 45.520866 251.650446 46.593923 Q 250.962241 47.21874 250.240079 48.805687 Q 250.192538 48.907559 250.242342 49.011695 C 250.649832 49.871952 251.258803 50.664293 252.476745 52.445929 C 254.745104 55.76697 256.807455 59.278174 258.833585 62.676186 C 260.456753 65.40184 262.136516 67.731323 263.838918 70.461504 Q 264.020024 70.753538 264.321114 70.617709 Q 264.422986 70.572432 264.418459 70.461504 Q 263.990595 60.233511 261.362285 50.487714 C 260.739732 48.185397 260.010778 46.166059 258.023133 44.760219 C 257.966537 44.721734 257.896359 44.705887 257.828444 44.714942 L 256.877634 44.8553" style="fill:none;stroke-width:0.50;stroke:#0a783d;"/>
		<path vector-effect="non-scaling-stroke" d="M 310.276905 77.920831 L 310.143338 78.106465" style="fill:none;stroke-width:0.50;stroke:#70a86b;"/>
		<path vector-effect="non-scaling-stroke" d="M 310.143338 78.106465 L 298.215207 78.056661" style="fill:none;stroke-width:0.50;stroke:#e7f0cb;"/>
		<path vector-effect="non-scaling-stroke" d="M 298.215207 78.056661 Q 299.125268 76.471978 300.091924 75.02539 Q 301.69019 72.637047 301.696981 72.625728 Q 311.236769 57.885917 312.805605 55.513421 Q 316.226255 50.338301 319.180556 45.758569 C 319.207722 45.715556 319.187348 45.661224 319.137543 45.645377 L 316.310017 44.746636 Q 316.185506 44.705887 316.108536 44.812287 Q 311.340906 51.4838 310.374249 52.742491 Q 307.63954 56.31029 304.984065 59.939213 Q 304.798431 60.195026 304.639963 60.342175 Q 304.051366 60.899078 304.049103 60.335383" style="fill:none;stroke-width:0.50;stroke:#b9d571;"/>
		<path vector-effect="non-scaling-stroke" d="M 304.049103 60.335383 C 304.73278 59.418531 302.779093 58.361322 302.249356 57.890445 C 302.190496 57.838377 302.165594 57.759143 302.183705 57.684436 L 302.324063 57.107159" style="fill:none;stroke-width:0.50;stroke:#6fb570;"/>
		<path vector-effect="non-scaling-stroke" d="M 302.324063 57.107159 Q 302.444046 56.919261 302.482531 56.74721" style="fill:none;stroke-width:0.50;stroke:#70a86b;"/>
		<path vector-effect="non-scaling-stroke" d="M 289.98165 78.083827 L 289.302501 78.034022" style="fill:none;stroke-width:0.50;stroke:#e7f0cb;"/>
		<path vector-effect="non-scaling-stroke" d="M 289.302501 78.034022 Q 289.307028 77.954788 289.279862 77.916303" style="fill:none;stroke-width:0.50;stroke:#70a86b;"/>
		<path vector-effect="non-scaling-stroke" d="M 280.715786 78.070244 Q 280.620705 78.117784 280.484875 78.092882" style="fill:none;stroke-width:0.50;stroke:#82b398;"/>
		<path vector-effect="non-scaling-stroke" d="M 298.215207 78.056661 L 289.98165 78.083827" style="fill:none;stroke-width:0.50;stroke:#cbe09e;"/>
		<path vector-effect="non-scaling-stroke" d="M 289.98165 78.083827 Q 291.49389 76.209374 292.741262 74.113065" style="fill:none;stroke-width:0.50;stroke:#b9d571;"/>
		<path vector-effect="non-scaling-stroke" d="M 313.029724 78.117784 L 314.134474 78.113256" style="fill:none;stroke-width:0.50;stroke:#82b398;"/>
		<path vector-effect="non-scaling-stroke" d="M 314.222764 78.110993 L 314.374441 78.110993" style="fill:none;stroke-width:0.50;stroke:#82b398;"/>
		<path vector-effect="non-scaling-stroke" d="M 325.483064 78.120048 L 331.715394 78.138159" style="fill:none;stroke-width:0.50;stroke:#cbe09e;"/>
		<path vector-effect="non-scaling-stroke" d="M 331.824058 78.113256 Q 331.821794 78.124576 331.821794 78.135895" style="fill:none;stroke-width:0.50;stroke:#82b398;"/>
		<path vector-effect="non-scaling-stroke" d="M 331.821794 78.135895 Q 331.980262 78.215129 332.093454 78.149478" style="fill:none;stroke-width:0.50;stroke:#cbe09e;"/>
		<path vector-effect="non-scaling-stroke" d="M 332.093454 78.149478 Q 332.122884 78.126839 332.163633 78.11552" style="fill:none;stroke-width:0.50;stroke:#82b398;"/>
		<path vector-effect="non-scaling-stroke" d="M 154.7856 79.324407 Q 154.769753 79.147828 154.685992 79.000679" style="fill:none;stroke-width:0.50;stroke:#82b398;"/>
		<path vector-effect="non-scaling-stroke" d="M 154.733532 78.122312 Q 154.819558 78.110993 154.892 78.135895" style="fill:none;stroke-width:0.50;stroke:#82b398;"/>
		<path vector-effect="non-scaling-stroke" d="M 154.892 78.135895 L 158.690711 78.124576" style="fill:none;stroke-width:0.50;stroke:#e7f0cb;"/>
		<path vector-effect="non-scaling-stroke" d="M 158.810694 78.11552 L 159.037077 78.110993" style="fill:none;stroke-width:0.50;stroke:#82b398;"/>
		<path vector-effect="non-scaling-stroke" d="M 235.980201 39.899771 C 235.758345 40.062767 235.608932 40.123891 235.321425 40.049184 Q 234.04236 39.716401 232.792725 40.137474 Q 230.705472 40.841526 228.892142 42.272267 Q 228.874032 42.28585 228.871768 42.299433 Q 228.86724 42.331127 228.901198 42.349238 Q 228.930628 42.365085 228.960057 42.351502 L 229.519224 42.10248 Q 229.621096 42.057203 229.725233 42.095689 Q 229.974254 42.17945 230.252705 42.410361 C 232.962512 44.635708 234.003875 47.829975 234.685289 51.110268 C 235.242191 53.790645 235.344064 56.643073 235.260302 59.348353 Q 235.239927 60.018447 235.061085 61.435606 Q 234.932046 62.463386 234.879978 63.52965" style="fill:none;stroke-width:0.50;stroke:#f36e16;"/>
		<path vector-effect="non-scaling-stroke" d="M 234.879978 63.52965 L 232.679533 63.640578" style="fill:none;stroke-width:0.50;stroke:#eb4d1a;"/>
		<path vector-effect="non-scaling-stroke" d="M 232.679533 63.640578 Q 233.736743 62.902569 233.920113 62.4249 Q 234.501918 60.905869 234.506446 60.883231 Q 234.522293 60.799469 234.438531 60.751928 Q 234.345714 60.69986 234.271007 60.774567 L 231.497813 63.545497 C 231.341609 63.703965 231.072213 63.599829 231.060894 63.377974 C 230.963549 61.383538 230.891106 59.685664 230.43834 57.842904 C 230.295718 57.267891 229.596194 55.701319 228.828755 55.997881 C 227.819086 56.389524 227.289349 59.409476 227.185213 60.412354 Q 227.00637 62.137394 226.750557 63.620204 C 226.721127 63.7832 226.55134 63.878281 226.397399 63.817157 Q 225.74768 63.554553 225.1455 63.072356 Q 224.07018 62.216628 223.336699 61.523895" style="fill:none;stroke-width:0.50;stroke:#808828;"/>
		<path vector-effect="non-scaling-stroke" d="M 223.336699 61.523895 Q 223.271047 54.139275 221.149837 47.202894 Q 221.113615 47.085174 221.016271 46.876902 Q 220.966466 46.775029 220.866858 46.718434 C 218.854311 45.604628 217.51865 44.730789 215.718904 44.038056 Q 214.790733 43.680371 213.90331 43.718856 Q 210.088753 43.888644 208.121483 47.159881 Q 206.486997 49.878743 206.923916 53.014151" style="fill:none;stroke-width:0.50;stroke:#f36e16;"/>
		<path vector-effect="non-scaling-stroke" d="M 206.923916 53.014151 Q 205.470536 51.309485 203.29273 50.981229" style="fill:none;stroke-width:0.50;stroke:#808828;"/>
		<path vector-effect="non-scaling-stroke" d="M 211.399512 41.477662 Q 211.589674 41.536522 211.61684 41.427858" style="fill:none;stroke-width:0.50;stroke:#f36e16;"/>
		<path vector-effect="non-scaling-stroke" d="M 229.609777 38.806341 Q 229.974254 38.905949 230.067071 38.765592" style="fill:none;stroke-width:0.50;stroke:#f36e16;"/>
		<path vector-effect="non-scaling-stroke" d="M 206.923916 53.014151 Q 208.266369 54.392824 208.648956 56.228792 Q 208.791578 56.910205 208.913825 57.514649 C 208.945518 57.670853 209.047391 57.802155 209.187748 57.872334 Q 211.148227 58.863893 212.377488 60.824371 Q 213.409795 62.470177 214.290426 64.437447 Q 214.564349 65.046418 215.404231 65.037363 Q 216.742156 65.019252 217.982736 64.894741 Q 220.169598 64.672886 220.176389 64.672886 Q 222.471915 64.523473 224.77876 64.539319 C 224.901007 64.539319 224.96213 64.39217 224.878368 64.306145 Q 224.758385 64.183898 224.66104 64.129566 C 223.891337 63.701702 222.594162 63.049718 221.881055 62.128338 Q 221.177003 61.220542 220.794415 60.455366 Q 220.577087 60.016183 221.029854 60.199553 Q 221.994246 60.59346 223.336699 61.523895" style="fill:none;stroke-width:0.50;stroke:#7b7730;"/>
		<path vector-effect="non-scaling-stroke" d="M 232.679533 63.640578 L 231.574783 64.02543 C 231.416315 64.079762 231.393677 64.294826 231.536298 64.383115 Q 231.957371 64.643456 232.310529 64.684205 Q 236.31072 65.139235 240.127541 65.098486 Q 240.965159 65.089431 241.644308 64.813243" style="fill:none;stroke-width:0.50;stroke:#735734;"/>
		<path vector-effect="non-scaling-stroke" d="M 241.868428 64.899269 C 240.910827 66.646947 237.381513 66.567713 235.651945 66.626573 C 235.269357 66.640156 235.085987 67.104241 235.357647 67.373637 Q 235.439145 67.452871 235.466311 67.477773 Q 235.563655 67.563799 235.611196 67.572854 Q 236.498618 67.73585 237.730143 67.767544 C 237.791266 67.769808 237.847862 67.803765 237.879556 67.858097 L 237.933888 67.950914 Q 238.024441 68.107119 237.847862 68.134285 C 236.609546 68.326711 235.500268 68.3086 234.112539 68.428583 Q 232.851585 68.537247 232.602563 68.494234 Q 231.391413 68.290489 230.739429 68.322183 Q 228.674815 68.421791 225.623169 68.458013 Q 225.331135 68.460277 224.957602 68.636856 Q 224.556904 68.824754 224.314674 68.845128 Q 222.736783 68.985486 221.177003 69.320533 C 221.050228 69.347699 220.930245 69.263937 220.912134 69.139426 Q 220.903079 69.076039 221.07513 69.003596 Q 222.200255 68.523664 222.899779 67.756225 C 223.203132 67.423442 223.549499 67.095186 223.225771 66.760139 C 223.173703 66.708071 223.105788 66.676377 223.033345 66.671849 Q 222.207046 66.617517 219.820967 66.732973 Q 217.665799 66.837109 215.180112 65.761789 Q 215.075975 65.718776 214.965048 65.730095 C 212.501998 66.008546 210.371732 66.481687 208.388616 67.964497 Q 208.026402 68.233893 207.075593 69.157537 Q 206.468886 69.746133 205.988954 70.506781 Q 205.529396 71.235735 205.053991 71.985063" style="fill:none;stroke-width:0.50;stroke:#735734;"/>
		<path vector-effect="non-scaling-stroke" d="M 205.053991 71.985063 Q 204.986076 71.559463 204.902314 71.471173 Q 203.838313 70.332466 200.775348 67.201586 C 199.523449 65.922521 198.33041 64.568749 197.947822 63.147063 Q 197.334324 60.853801 197.216604 58.234547 C 197.028706 54.093998 197.046817 51.368345 196.050731 48.006554 Q 195.858305 47.359098 195.65456 48.002026 L 194.98673 50.10739 C 194.950509 50.218318 194.801096 50.234165 194.742236 50.132292 Q 193.868397 48.601942 192.90174 47.345515 Q 192.510098 46.838417 192.231646 46.630144 Q 191.763033 46.281514 191.928293 46.836153 Q 191.987152 47.030842 192.276923 47.576426 C 193.594473 50.041739 194.567921 52.020328 194.921079 54.592041 Q 195.01616 55.287038 195.059172 57.695755 C 195.09313 59.620012 195.131615 61.517104 195.720211 63.094995 C 195.736058 63.13348 195.686254 63.167437 195.65456 63.140271 C 193.85255 61.65067 192.815715 60.256149 191.437041 57.944777 Q 190.766947 56.82418 190.5383 55.710375 Q 189.621448 51.264208 187.104067 47.832239 Q 186.934279 47.601328 186.703368 47.399847 C 186.599232 47.311558 186.440764 47.386264 186.443028 47.522094 Q 186.46793 48.601942 186.809768 49.706692 Q 187.516084 51.993162 187.855659 54.410935 Q 187.903199 54.755037 187.568152 54.66222 C 184.883247 53.928739 182.845799 52.491205 180.667992 50.630335 Q 180.283141 50.30208 180.079396 50.200207 C 179.975259 50.148139 179.85754 50.231901 179.868859 50.347356 C 180.040911 52.061077 182.859382 54.166441 184.192779 55.071974 Q 185.779725 56.154086 186.316253 56.731363 Q 187.581735 58.09419 188.043557 59.982226 C 188.061668 60.054668 188.000544 60.122583 187.925838 60.111264 C 185.240933 59.728676 183.033697 59.54757 181.113967 58.526582 C 179.137642 57.478427 177.473725 55.694528 175.913945 53.808756 C 175.830183 53.706883 175.698881 53.661606 175.585689 53.697828 Q 175.563051 53.706883 175.52683 53.779326 Q 175.506455 53.822339 175.508719 53.872143 C 175.565315 55.570017 176.590831 57.084521 177.428448 58.474513 C 177.462406 58.531109 177.419393 58.605816 177.351478 58.601288 Q 174.41076 58.436028 172.257856 57.824794 Q 172.115235 57.784045 172.151456 57.92893 Q 172.726469 60.16786 174.727697 60.706652 Q 175.11934 60.810788 177.183955 60.946618 Q 178.290968 61.019061 179.656059 61.100559 Q 182.839007 61.290721 185.530703 62.75542 Q 185.981206 62.999914 185.467316 62.988595 C 182.20287 62.92068 179.287055 63.228561 176.25352 64.410281 C 175.003884 64.897005 174.164003 65.200358 173.278844 65.861397 Q 172.930214 66.121738 173.360342 66.101364 C 176.910031 65.93384 180.579703 65.571627 184.391996 65.252427 C 189.496937 64.826826 193.922729 67.120088 197.162272 71.009351 Q 198.907687 73.10566 200.730072 75.939978 Q 201.393375 76.970021 201.957069 78.120048" style="fill:none;stroke-width:0.50;stroke:#53ab43;"/>
		<path vector-effect="non-scaling-stroke" d="M 201.957069 78.120048 L 180.097506 78.126839" style="fill:none;stroke-width:0.50;stroke:#81c69d;"/>
		<path vector-effect="non-scaling-stroke" d="M 180.097506 78.126839 Q 180.120145 77.957052 179.651532 77.916303" style="fill:none;stroke-width:0.50;stroke:#0a7e3d;"/>
		<path vector-effect="non-scaling-stroke" d="M 205.053991 71.985063 Q 203.709275 74.792215 203.507794 78.122312" style="fill:none;stroke-width:0.50;stroke:#be7135;"/>
		<path vector-effect="non-scaling-stroke" d="M 203.507794 78.122312 L 201.957069 78.120048" style="fill:none;stroke-width:0.50;stroke:#cbe09e;"/>
		<path vector-effect="non-scaling-stroke" d="M 258.985262 78.099673 Q 258.844904 78.072507 258.754351 78.11552" style="fill:none;stroke-width:0.50;stroke:#82b398;"/>
		<path vector-effect="non-scaling-stroke" d="M 269.118174 78.108729 L 268.814821 78.090618" style="fill:none;stroke-width:0.50;stroke:#82b398;"/>
		<path vector-effect="non-scaling-stroke" d="M 310.301807 78.108729 Q 310.159185 78.049869 310.143338 78.106465" style="fill:none;stroke-width:0.50;stroke:#82b398;"/>
		<path vector-effect="non-scaling-stroke" d="M 330.049214 34.998575 Q 329.992618 33.087901 329.612294 32.134828 Q 329.370064 31.530384 328.819953 30.989329 Q 326.678368 28.881701 323.837259 30.013617" style="fill:none;stroke-width:0.50;stroke:#6fbb70;"/>
		<path vector-effect="non-scaling-stroke" d="M 289.302501 78.034022 Q 289.264015 78.020439 289.209684 78.036286" style="fill:none;stroke-width:0.50;stroke:#82b398;"/>
		<path vector-effect="non-scaling-stroke" d="M 289.209684 78.036286 L 289.033105 78.088354" style="fill:none;stroke-width:0.50;stroke:#82b398;"/>
		<path vector-effect="non-scaling-stroke" d="M 332.093454 78.149478 Q 331.964416 78.106465 331.821794 78.135895" style="fill:none;stroke-width:0.50;stroke:#54983e;"/>
		<path vector-effect="non-scaling-stroke" d="M 154.894264 78.117784 Q 154.892 78.126839 154.892 78.135895" style="fill:none;stroke-width:0.50;stroke:#70a86b;"/>
		<path vector-effect="non-scaling-stroke" d="M 180.097506 78.126839 L 179.676434 78.08609" style="fill:none;stroke-width:0.50;stroke:#82b398;"/>
		<path vector-effect="non-scaling-stroke" d="M 224.756121 40.198597 Q 225.786165 41.278445 226.9294 41.957595 Q 227.696839 42.410361 226.811681 42.523553 C 226.268361 42.593732 225.380939 42.5394 224.751594 42.367348 Q 223.764563 42.097952 222.034995 41.776488 C 220.201291 41.43465 219.488184 42.222463 217.840114 43.223077 C 217.088522 43.678107 215.789083 43.920337 215.062392 43.361171 C 214.851856 43.200439 214.811107 42.899349 214.969575 42.686549 L 215.82304 41.554633" style="fill:none;stroke-width:0.50;stroke:#808828;"/>
		<path vector-effect="non-scaling-stroke" d="M 332.145522 25.916081 Q 331.06341 25.943247 330.130712 26.468456 C 329.193485 26.998193 328.355867 28.177649 327.420905 28.852271 C 327.330351 28.917922 327.203577 28.859063 327.194521 28.748135 Q 327.119815 27.876559 326.850419 26.755963 Q 326.628563 25.827791 326.657993 25.341068 Q 326.705534 24.560046 327.124343 23.946547" style="fill:none;stroke-width:0.50;stroke:#0a7e3d;"/>
		<path vector-effect="non-scaling-stroke" d="M 243.142965 26.072285 C 241.553755 25.954566 240.104903 26.253392 238.474943 26.796712 Q 237.458483 27.136286 237.032882 27.815436 Q 236.969495 27.915045 236.971759 27.996543 Q 236.976287 28.109734 237.06684 28.161802 Q 237.168712 28.218398 237.270585 28.16633 Q 240.206775 26.647299 243.40557 26.663145 Q 244.265826 26.665409 243.582149 26.128881 Q 243.550455 26.103979 243.142965 26.072285" style="fill:none;stroke-width:0.50;stroke:#e7ce5c;"/>
		<path vector-effect="non-scaling-stroke" d="M 165.097355 100.393891 Q 168.493103 107.93698 172.864563 114.615284 Q 180.072604 125.622036 190.486232 133.572614 Q 198.810342 139.929454 208.920616 144.296386 Q 220.656321 149.365106 233.392641 150.915831 Q 242.601909 152.036428 251.179569 151.182964 Q 276.412241 148.674638 296.422252 133.427729 C 310.870029 122.418713 319.914038 106.184774 326.080716 89.396195 Q 327.454862 85.654081 329.238762 80.770995 C 329.263664 80.700816 329.21386 80.628374 329.139153 80.628374 L 157.794233 80.628374 Q 157.676514 80.628374 157.710471 80.741565 Q 160.811921 90.865422 165.097355 100.393891" style="fill:none;stroke-width:0.50;stroke:#cbe09e;"/>
		<path d="M 264.379974 22.610886 Q 261.242302 21.929473 258.043508 22.348282 Q 258.057091 21.949847 258.079729 21.546885 Q 258.100104 21.148451 258.297057 17.417655 C 258.410249 15.253432 258.613993 13.023557 257.787695 11.164951 C 257.717516 11.008747 257.529618 10.943096 257.377941 11.02233 Q 257.094962 11.169479 256.888953 11.42982 Q 256.818775 11.518109 256.707847 11.513581 Q 256.447506 11.50679 256.36148 11.739965 Q 255.517071 9.707043 254.161036 8.040863 Q 253.644882 7.40699 253.558856 7.019875 Q 253.40718 6.345253 253.758074 5.754393 Q 254.726994 4.113114 256.660306 4.667753 Q 257.199098 4.821694 258.041244 5.679686 Q 261.138166 8.835468 261.805997 12.779064 C 262.365163 16.084258 262.797555 18.117179 263.857028 20.985455 Q 263.963429 21.275225 264.110578 21.800434 Q 264.223769 22.203396 264.379974 22.610886 Z" style="fill:#089142;"/>
		<path d="M 258.043508 22.348282 L 256.019642 22.88481 Q 256.712374 19.867122 256.936494 16.853961 Q 257.006673 16.627578 256.947813 16.392139 Q 257.156086 13.953992 256.36148 11.739965 Q 256.447506 11.50679 256.707847 11.513581 Q 256.818775 11.518109 256.888953 11.42982 Q 257.094962 11.169479 257.377941 11.02233 C 257.529618 10.943096 257.717516 11.008747 257.787695 11.164951 C 258.613993 13.023557 258.410249 15.253432 258.297057 17.417655 Q 258.100104 21.148451 258.079729 21.546885 Q 258.057091 21.949847 258.043508 22.348282 Z" style="fill:#9dc544;"/>
		<path d="M 256.947813 16.392139 Q 257.006673 16.627578 256.936494 16.853961 Q 256.995353 16.618523 256.947813 16.392139 Z" style="fill:#0b6a38;"/>
		<path d="M 264.379974 22.610886 L 266.261218 23.170053 Q 264.90971 23.219857 264.015497 22.988946 C 261.436992 22.323379 259.320309 22.529388 257.022519 23.525474 C 254.745104 24.512505 252.694073 25.857221 251.213526 27.887879 Q 251.089016 28.062194 249.676384 29.882315 Q 249.465848 30.153975 249.271159 29.868732 Q 248.798018 29.173735 248.442596 28.388186 Q 248.413166 28.324798 248.41543 28.265939 Q 248.424485 28.130109 248.487873 28.157275 Q 249.782785 26.851044 250.801509 25.997579 Q 253.119673 24.057475 256.019642 22.88481 L 258.043508 22.348282 Q 261.242302 21.929473 264.379974 22.610886 Z" style="fill:#d5e59e;"/>
		<path d="M 279.074507 22.588248 L 279.300891 22.595039 Q 279.472942 22.66069 279.488789 22.599567 Q 279.762712 23.108929 279.450304 23.692998 Q 279.364278 23.849202 279.185435 23.860521 Q 278.221043 23.921645 277.333621 24.050683 Q 273.840528 24.548726 272.027198 27.38078 C 271.961547 27.482653 271.816662 27.48718 271.744219 27.389836 C 271.406908 26.937069 270.836423 26.602022 270.979044 25.920609 Q 271.024321 25.848166 271.05375 25.866277 C 272.916884 23.44624 276.088513 22.432043 279.074507 22.588248 Z" style="fill:#d5e59e;"/>
		<path d="M 279.300891 22.595039 L 279.074507 22.588248 L 279.300891 22.595039 Z" style="fill:#9dc544;"/>
		<path d="M 266.261218 23.170053 Q 268.830667 24.109543 270.84095 25.877596 L 270.979044 25.920609 C 270.836423 26.602022 271.406908 26.937069 271.744219 27.389836 C 271.816662 27.48718 271.961547 27.482653 272.027198 27.38078 Q 273.840528 24.548726 277.333621 24.050683 Q 278.221043 23.921645 279.185435 23.860521 Q 279.364278 23.849202 279.450304 23.692998 Q 279.762712 23.108929 279.488789 22.599567 Q 281.514918 22.85538 283.192418 23.942019 Q 285.884114 25.687434 286.404796 28.57382 Q 286.585902 29.578961 286.357255 33.087901 Q 286.01768 38.267549 285.707535 40.345746 Q 285.483416 41.855722 285.467569 42.605051 Q 285.336267 42.704659 285.164216 42.711451 Q 284.91293 41.792335 284.881237 41.54105 C 284.745407 40.474785 283.527465 40.461202 282.735124 40.601559 C 282.637779 40.61967 282.551753 40.540436 282.558545 40.440827 C 282.624196 39.447005 283.434648 38.310561 282.033336 37.803463 Q 280.790492 37.355224 279.685742 37.977778 C 279.586133 38.034374 279.459359 37.989097 279.416346 37.882697 C 278.664754 36.026355 276.699748 37.185437 275.658385 38.009472 C 275.463695 38.127191 275.273533 38.097761 275.162606 37.891752 C 274.816239 37.257879 274.696256 37.133369 273.946928 37.137896 Q 272.097377 37.149216 271.246176 38.752009 Q 270.284048 38.761064 269.487179 39.227413 C 269.421528 39.265898 269.369459 39.324758 269.342293 39.394937 Q 269.111383 39.981269 269.043468 40.748708 Q 269.018565 41.04527 268.577118 41.212794 Q 268.128879 41.384845 267.146376 41.674616 C 267.046768 41.704046 266.940368 41.667824 266.881508 41.581799 Q 265.923907 40.230291 264.121897 40.467993 C 263.431428 40.558547 262.707002 41.006785 261.982575 41.144879 Q 261.344175 41.267126 261.158541 41.37579 C 260.409212 41.814973 260.608429 42.385459 260.991017 42.989902 C 261.031766 43.055553 261.052141 43.132524 261.045349 43.209494 Q 260.991017 43.952031 260.529195 44.608542 C 260.454489 44.714942 260.298284 44.726261 260.209995 44.628917 Q 259.152785 43.465307 257.559048 43.789035 C 257.396052 43.822992 257.260222 43.93392 257.196835 44.087861 L 256.877634 44.8553 Q 255.40388 43.64415 253.825989 44.547419 Q 252.929511 44.013154 252.608047 44.332355 C 251.86551 45.065836 251.496505 45.595573 250.622666 45.742722 C 249.128537 45.994007 249.343601 47.270809 249.377559 48.318963 C 249.38435 48.509125 249.302852 48.690231 249.160231 48.814742 C 248.698409 49.21544 247.973983 49.72933 248.073591 50.419799 C 248.132451 50.840872 248.592009 51.18271 248.259226 51.687545 C 247.935498 52.178797 247.777029 52.332737 248.057745 52.90775 Q 248.209421 53.220159 248.623703 53.17941 Q 249.11269 53.129606 249.905031 52.971138 C 250.129151 52.925861 250.355534 53.048108 250.44156 53.260908 Q 250.597764 53.648024 250.495892 54.112109 Q 250.47099 54.225301 250.373645 54.286424 Q 249.309644 54.958782 248.693881 56.047685 C 248.526358 56.341984 248.132451 56.405371 247.881166 56.181252 L 247.152212 55.531532 C 247.111463 55.49531 247.057131 55.4772 247.002799 55.479464 Q 246.52513 55.508893 246.212721 55.995617 Q 245.504142 57.100367 245.035529 57.566717 C 244.591818 58.010428 244.231868 58.771075 244.277145 59.38231 Q 244.34506 60.260677 244.019068 60.885495 Q 243.697604 61.498993 243.69534 61.510312 Q 243.500651 62.329819 244.075664 62.78485 C 244.245451 62.92068 244.288464 63.16291 244.173009 63.348544 L 243.523289 64.401226 L 242.792071 63.955251 Q 242.719629 63.717548 242.810182 63.291948 Q 242.923373 62.759948 242.936956 62.651284 C 243.305961 59.941477 243.274267 57.118478 243.249365 54.603361 C 243.217672 51.420413 242.669824 47.988443 241.306997 45.113377 Q 239.864936 42.070786 236.704627 40.372912 Q 236.480507 40.250665 236.537103 40.017491 Q 235.876064 37.348433 235.135791 34.745026 Q 234.997697 34.260566 234.807536 32.354419 Q 234.499654 29.24165 236.661614 27.140814 Q 238.382126 25.47237 240.793107 25.150906 L 240.974214 25.139587 L 243.740617 25.169016 Q 243.7542 25.309374 243.969264 25.223348 L 244.369962 25.350123 Q 244.435613 25.427093 244.523903 25.390872 Q 246.828484 26.176422 248.275072 28.0305 Q 248.315821 28.082568 248.372417 28.10747 Q 248.417694 28.127845 248.487873 28.157275 Q 248.424485 28.130109 248.41543 28.265939 Q 248.413166 28.324798 248.442596 28.388186 Q 248.798018 29.173735 249.271159 29.868732 Q 249.465848 30.153975 249.676384 29.882315 Q 251.089016 28.062194 251.213526 27.887879 C 252.694073 25.857221 254.745104 24.512505 257.022519 23.525474 C 259.320309 22.529388 261.436992 22.323379 264.015497 22.988946 Q 264.90971 23.219857 266.261218 23.170053 Z M 243.142965 26.072285 C 241.553755 25.954566 240.104903 26.253392 238.474943 26.796712 Q 237.458483 27.136286 237.032882 27.815436 Q 236.969495 27.915045 236.971759 27.996543 Q 236.976287 28.109734 237.06684 28.161802 Q 237.168712 28.218398 237.270585 28.16633 Q 240.206775 26.647299 243.40557 26.663145 Q 244.265826 26.665409 243.582149 26.128881 Q 243.550455 26.103979 243.142965 26.072285 Z" style="fill:#f9b61a;"/>
		<path d="M 332.145522 25.916081 Q 331.06341 25.943247 330.130712 26.468456 C 329.193485 26.998193 328.355867 28.177649 327.420905 28.852271 C 327.330351 28.917922 327.203577 28.859063 327.194521 28.748135 Q 327.119815 27.876559 326.850419 26.755963 Q 326.628563 25.827791 326.657993 25.341068 Q 326.705534 24.560046 327.124343 23.946547 Q 329.263664 22.398086 330.886832 24.120862 Q 331.206032 24.462701 332.145522 25.916081 Z" style="fill:#0b6a38;"/>
		<path d="M 327.124343 23.946547 Q 326.705534 24.560046 326.657993 25.341068 Q 326.628563 25.827791 326.850419 26.755963 Q 327.119815 27.876559 327.194521 28.748135 C 327.203577 28.859063 327.330351 28.917922 327.420905 28.852271 C 328.355867 28.177649 329.193485 26.998193 330.130712 26.468456 Q 331.06341 25.943247 332.145522 25.916081 Q 333.334034 26.339417 333.311396 27.699981 Q 333.297813 28.57382 333.238953 28.856799 Q 333.218579 28.963199 333.150664 29.051488 Q 332.890323 29.382008 332.81788 29.757804 C 332.804297 29.827983 332.863157 29.889106 332.933336 29.880051 Q 333.820758 29.757804 334.05846 29.880051 Q 335.289985 30.504868 335.285457 31.9175 Q 335.285457 32.241228 334.889287 32.370266 Q 332.390016 33.171663 330.544993 34.133791 C 330.137503 34.344328 330.110337 34.572975 330.049214 34.998575 Q 329.992618 33.087901 329.612294 32.134828 Q 329.370064 31.530384 328.819953 30.989329 Q 326.678368 28.881701 323.837259 30.013617 Q 323.635777 28.175385 323.420713 26.307724 C 323.293939 25.209765 323.11736 24.458173 323.932339 23.871841 Q 325.546452 22.710495 327.124343 23.946547 Z" style="fill:#089142;"/>
		<path d="M 240.974214 25.139587 L 240.793107 25.150906 L 240.974214 25.139587 Z" style="fill:#0b6a38;"/>
		<path d="M 243.969264 25.223348 Q 243.7542 25.309374 243.740617 25.169016 L 243.969264 25.223348 Z" style="fill:#ee5d1e;"/>
		<path d="M 244.523903 25.390872 Q 244.435613 25.427093 244.369962 25.350123 Q 244.48089 25.354651 244.523903 25.390872 Z" style="fill:#de1c25;"/>
		<path d="M 271.05375 25.866277 Q 271.024321 25.848166 270.979044 25.920609 L 270.84095 25.877596 L 271.05375 25.866277 Z" style="fill:#0b6a38;"/>
		<path d="M 224.756121 40.198597 Q 225.786165 41.278445 226.9294 41.957595 Q 227.696839 42.410361 226.811681 42.523553 C 226.268361 42.593732 225.380939 42.5394 224.751594 42.367348 Q 223.764563 42.097952 222.034995 41.776488 C 220.201291 41.43465 219.488184 42.222463 217.840114 43.223077 C 217.088522 43.678107 215.789083 43.920337 215.062392 43.361171 C 214.851856 43.200439 214.811107 42.899349 214.969575 42.686549 L 215.82304 41.554633 Q 216.518036 40.5427 217.593357 40.221236 C 217.740506 40.178223 217.840114 40.037865 217.831059 39.883925 Q 217.692965 37.226186 216.461441 35.116294 Q 215.641933 33.710455 214.02103 33.06979 Q 212.361641 32.413279 213.07022 30.656545 Q 213.183412 30.382622 213.805966 29.617446 C 215.223124 27.885615 217.550344 29.089973 218.892796 30.219626 C 221.188322 32.157466 222.324766 35.555478 222.413055 38.530153 Q 222.426638 39.014613 222.591898 39.435686 Q 222.634911 39.542086 222.748102 39.555669 Q 223.943406 39.707346 224.756121 40.198597 Z" style="fill:#089142;"/>
		<path d="M 330.049214 34.998575 Q 329.893009 36.003717 329.370064 37.045079 Q 325.453635 44.857564 321.822448 52.808142 Q 316.083634 65.379201 310.276905 77.920831 L 310.143338 78.106465 L 298.215207 78.056661 Q 299.125268 76.471978 300.091924 75.02539 Q 301.69019 72.637047 301.696981 72.625728 Q 311.236769 57.885917 312.805605 55.513421 Q 316.226255 50.338301 319.180556 45.758569 C 319.207722 45.715556 319.187348 45.661224 319.137543 45.645377 L 316.310017 44.746636 Q 316.185506 44.705887 316.108536 44.812287 Q 311.340906 51.4838 310.374249 52.742491 Q 307.63954 56.31029 304.984065 59.939213 Q 304.798431 60.195026 304.639963 60.342175 Q 304.051366 60.899078 304.049103 60.335383 C 304.73278 59.418531 302.779093 58.361322 302.249356 57.890445 C 302.190496 57.838377 302.165594 57.759143 302.183705 57.684436 L 302.324063 57.107159 Q 302.444046 56.919261 302.482531 56.74721 Q 302.665901 56.364622 302.908131 56.027311 Q 309.099712 47.404375 315.399957 38.858409 Q 317.39892 36.148602 319.511076 33.527084 Q 321.270073 31.34475 323.837259 30.013617 Q 326.678368 28.881701 328.819953 30.989329 Q 329.370064 31.530384 329.612294 32.134828 Q 329.992618 33.087901 330.049214 34.998575 Z" style="fill:#d5e59e;"/>
		<path d="M 285.164216 42.711451 L 285.420029 42.761255 Q 286.914158 43.14837 287.129222 44.461393 L 287.052252 44.606278 Q 287.000183 44.701359 286.898311 44.739844 Q 286.004097 45.077155 285.51511 46.116254 Q 280.208687 57.394666 278.202932 69.716703 Q 277.940328 71.324024 277.856566 72.478578 Q 277.840719 72.709489 277.872413 72.818153 C 277.901842 72.915498 278.01277 72.958511 278.10106 72.906443 C 283.165252 69.884227 287.810635 66.255304 292.182095 62.282279 Q 293.400037 61.177529 297.995616 56.880776 C 299.116213 55.834885 300.388486 54.673539 301.773951 54.014764 Q 302.54139 55.182902 302.459893 56.455175 Q 302.142956 56.907942 302.324063 57.107159 L 302.183705 57.684436 C 302.165594 57.759143 302.190496 57.838377 302.249356 57.890445 C 302.779093 58.361322 304.73278 59.418531 304.049103 60.335383 Q 303.865732 60.530073 303.797817 60.837954 C 303.78197 60.910397 303.797817 60.985103 303.838566 61.046227 C 304.18946 61.557853 304.694295 62.239266 304.049103 62.698824 C 303.709528 62.941054 303.041697 62.789377 303.098293 63.534178 C 303.129987 63.964306 303.08471 64.312936 303.331468 64.706843 C 303.528421 65.021516 303.775179 65.327133 303.725375 65.653125 C 303.609919 66.38887 302.962463 66.420564 302.31048 66.488479 C 301.73773 66.547339 301.196674 66.975203 300.666938 66.47716 C 300.460929 66.28247 300.141728 66.275679 299.928928 66.461313 Q 299.482953 66.846164 298.896621 66.841637 Q 298.527616 66.837109 298.416688 66.900496 C 298.013726 67.124616 298.022782 67.733587 298.310288 68.021093 Q 298.701931 68.410472 298.753999 68.802115 Q 298.969063 70.364159 297.766969 70.746747 Q 297.275717 70.905215 297.148943 71.07953 C 296.77541 71.597948 297.092347 72.358595 297.210066 72.967566 C 297.234968 73.089813 297.144415 73.205269 297.019904 73.21206 Q 295.989861 73.266392 295.190728 73.372792 C 294.638353 73.447499 294.348582 74.040623 294.038437 74.4051 C 293.941093 74.518291 293.771305 74.540929 293.649058 74.45264 Q 293.264207 74.178716 292.741262 74.113065 C 291.729329 74.147023 291.133941 75.136317 290.52497 75.779246 Q 290.869072 74.699398 289.535675 74.153814 C 289.277598 74.047414 288.981036 74.167397 288.867845 74.42321 C 288.356219 75.589084 286.570055 76.121084 285.40871 75.584556 C 284.247364 75.050292 283.14035 75.358173 282.0356 75.611722 Q 281.560195 75.720386 281.116484 76.184472 Q 281.039514 76.26597 281.034986 76.376897 Q 281.003292 77.209987 280.661454 77.923095 Q 280.498458 77.954788 280.484875 78.092882 L 274.00126 78.122312 Q 274.268392 78.147214 274.211796 77.717086 Q 274.175575 77.456745 274.198213 77.293749 Q 274.363473 75.989782 274.381584 75.546071 Q 274.967916 61.553325 275.703662 53.611802 Q 276.439407 45.654433 276.631833 44.359521 C 276.917076 42.446583 277.460395 40.640045 276.55939 38.776911 Q 276.416769 38.480349 275.658385 38.009472 C 276.699748 37.185437 278.664754 36.026355 279.416346 37.882697 C 279.459359 37.989097 279.586133 38.034374 279.685742 37.977778 Q 280.790492 37.355224 282.033336 37.803463 C 283.434648 38.310561 282.624196 39.447005 282.558545 40.440827 C 282.551753 40.540436 282.637779 40.61967 282.735124 40.601559 C 283.527465 40.461202 284.745407 40.474785 284.881237 41.54105 Q 284.91293 41.792335 285.164216 42.711451 Z" style="fill:#088541;"/>
		<path d="M 275.658385 38.009472 Q 276.416769 38.480349 276.55939 38.776911 C 277.460395 40.640045 276.917076 42.446583 276.631833 44.359521 Q 276.439407 45.654433 275.703662 53.611802 Q 274.967916 61.553325 274.381584 75.546071 Q 274.363473 75.989782 274.198213 77.293749 Q 274.175575 77.456745 274.211796 77.717086 Q 274.268392 78.147214 274.00126 78.122312 L 273.514536 78.110993 Q 273.179489 78.192491 273.356068 77.615213 Q 273.385498 77.513341 273.328902 77.425052 Q 272.939523 76.838719 272.762944 76.331621 Q 271.65593 73.157728 271.252968 69.730286 Q 270.46289 63.004441 270.374601 56.169932 C 270.30895 51.10574 270.25009 47.592273 270.643997 43.250243 C 270.761716 41.939484 271.162414 40.280095 271.246176 38.752009 Q 272.097377 37.149216 273.946928 37.137896 C 274.696256 37.133369 274.816239 37.257879 275.162606 37.891752 C 275.273533 38.097761 275.463695 38.127191 275.658385 38.009472 Z" style="fill:#0b6a38;"/>
		<path d="M 235.980201 39.899771 C 235.758345 40.062767 235.608932 40.123891 235.321425 40.049184 Q 234.04236 39.716401 232.792725 40.137474 Q 230.705472 40.841526 228.892142 42.272267 Q 228.874032 42.28585 228.871768 42.299433 Q 228.86724 42.331127 228.901198 42.349238 Q 228.930628 42.365085 228.960057 42.351502 L 229.519224 42.10248 Q 229.621096 42.057203 229.725233 42.095689 Q 229.974254 42.17945 230.252705 42.410361 C 232.962512 44.635708 234.003875 47.829975 234.685289 51.110268 C 235.242191 53.790645 235.344064 56.643073 235.260302 59.348353 Q 235.239927 60.018447 235.061085 61.435606 Q 234.932046 62.463386 234.879978 63.52965 L 232.679533 63.640578 Q 233.736743 62.902569 233.920113 62.4249 Q 234.501918 60.905869 234.506446 60.883231 Q 234.522293 60.799469 234.438531 60.751928 Q 234.345714 60.69986 234.271007 60.774567 L 231.497813 63.545497 C 231.341609 63.703965 231.072213 63.599829 231.060894 63.377974 C 230.963549 61.383538 230.891106 59.685664 230.43834 57.842904 C 230.295718 57.267891 229.596194 55.701319 228.828755 55.997881 C 227.819086 56.389524 227.289349 59.409476 227.185213 60.412354 Q 227.00637 62.137394 226.750557 63.620204 C 226.721127 63.7832 226.55134 63.878281 226.397399 63.817157 Q 225.74768 63.554553 225.1455 63.072356 Q 224.07018 62.216628 223.336699 61.523895 Q 223.271047 54.139275 221.149837 47.202894 Q 221.113615 47.085174 221.016271 46.876902 Q 220.966466 46.775029 220.866858 46.718434 C 218.854311 45.604628 217.51865 44.730789 215.718904 44.038056 Q 214.790733 43.680371 213.90331 43.718856 Q 210.088753 43.888644 208.121483 47.159881 Q 206.486997 49.878743 206.923916 53.014151 Q 205.470536 51.309485 203.29273 50.981229 Q 203.304049 46.134365 207.041635 43.300047 Q 208.904769 41.885152 211.399512 41.477662 Q 211.589674 41.536522 211.61684 41.427858 Q 212.259768 41.330513 212.907224 41.255807 Q 213.654289 41.169781 215.82304 41.554633 L 214.969575 42.686549 C 214.811107 42.899349 214.851856 43.200439 215.062392 43.361171 C 215.789083 43.920337 217.088522 43.678107 217.840114 43.223077 C 219.488184 42.222463 220.201291 41.43465 222.034995 41.776488 Q 223.764563 42.097952 224.751594 42.367348 C 225.380939 42.5394 226.268361 42.593732 226.811681 42.523553 Q 227.696839 42.410361 226.9294 41.957595 Q 225.786165 41.278445 224.756121 40.198597 C 226.431357 39.578307 227.724005 39.012349 229.609777 38.806341 Q 229.974254 38.905949 230.067071 38.765592 Q 231.823805 38.618443 233.51036 39.023668 C 234.289118 39.209303 235.153902 39.610001 235.980201 39.899771 Z" style="fill:#f77e0e;"/>
		<path d="M 230.067071 38.765592 Q 229.974254 38.905949 229.609777 38.806341 Q 229.833897 38.718051 230.067071 38.765592 Z" style="fill:#ee5d1e;"/>
		<path d="M 271.246176 38.752009 C 271.162414 40.280095 270.761716 41.939484 270.643997 43.250243 C 270.25009 47.592273 270.30895 51.10574 270.374601 56.169932 Q 270.46289 63.004441 271.252968 69.730286 Q 271.65593 73.157728 272.762944 76.331621 Q 272.939523 76.838719 273.328902 77.425052 Q 273.385498 77.513341 273.356068 77.615213 Q 273.179489 78.192491 273.514536 78.110993 L 269.118174 78.108729 Q 269.088744 77.938941 268.875944 77.938941 C 268.66088 77.710294 268.457135 77.488439 268.352999 77.182821 Q 268.076811 76.37237 267.574241 75.548335 C 267.049032 74.688079 265.360213 75.432879 264.597301 75.258564 C 263.771003 75.070666 263.5333 74.568095 263.03073 73.977235 C 262.54627 73.40675 262.104822 73.497303 261.509435 73.431652 C 261.348702 73.411277 261.212873 73.30035 261.160804 73.146409 Q 260.932157 72.45594 260.683136 71.677182 Q 260.046999 69.691801 257.918997 70.072125 Q 257.008936 70.235121 256.277719 70.203427 Q 255.834008 70.035904 255.591778 69.755189 Q 251.254275 64.706843 244.566916 64.550639 Q 244.548805 64.550639 244.077928 64.577805 Q 243.686285 64.600443 243.523289 64.401226 L 244.173009 63.348544 C 244.288464 63.16291 244.245451 62.92068 244.075664 62.78485 Q 243.500651 62.329819 243.69534 61.510312 Q 243.697604 61.498993 244.019068 60.885495 Q 244.34506 60.260677 244.277145 59.38231 C 244.231868 58.771075 244.591818 58.010428 245.035529 57.566717 Q 245.504142 57.100367 246.212721 55.995617 Q 246.52513 55.508893 247.002799 55.479464 C 247.057131 55.4772 247.111463 55.49531 247.152212 55.531532 L 247.881166 56.181252 C 248.132451 56.405371 248.526358 56.341984 248.693881 56.047685 Q 249.309644 54.958782 250.373645 54.286424 Q 250.47099 54.225301 250.495892 54.112109 Q 250.597764 53.648024 250.44156 53.260908 C 250.355534 53.048108 250.129151 52.925861 249.905031 52.971138 Q 249.11269 53.129606 248.623703 53.17941 Q 248.209421 53.220159 248.057745 52.90775 C 247.777029 52.332737 247.935498 52.178797 248.259226 51.687545 C 248.592009 51.18271 248.132451 50.840872 248.073591 50.419799 C 247.973983 49.72933 248.698409 49.21544 249.160231 48.814742 C 249.302852 48.690231 249.38435 48.509125 249.377559 48.318963 C 249.343601 47.270809 249.128537 45.994007 250.622666 45.742722 C 251.496505 45.595573 251.86551 45.065836 252.608047 44.332355 Q 252.929511 44.013154 253.825989 44.547419 Q 252.83443 45.520866 251.650446 46.593923 Q 250.962241 47.21874 250.240079 48.805687 Q 250.192538 48.907559 250.242342 49.011695 C 250.649832 49.871952 251.258803 50.664293 252.476745 52.445929 C 254.745104 55.76697 256.807455 59.278174 258.833585 62.676186 C 260.456753 65.40184 262.136516 67.731323 263.838918 70.461504 Q 264.020024 70.753538 264.321114 70.617709 Q 264.422986 70.572432 264.418459 70.461504 Q 263.990595 60.233511 261.362285 50.487714 C 260.739732 48.185397 260.010778 46.166059 258.023133 44.760219 C 257.966537 44.721734 257.896359 44.705887 257.828444 44.714942 L 256.877634 44.8553 L 257.196835 44.087861 C 257.260222 43.93392 257.396052 43.822992 257.559048 43.789035 Q 259.152785 43.465307 260.209995 44.628917 C 260.298284 44.726261 260.454489 44.714942 260.529195 44.608542 Q 260.991017 43.952031 261.045349 43.209494 C 261.052141 43.132524 261.031766 43.055553 260.991017 42.989902 C 260.608429 42.385459 260.409212 41.814973 261.158541 41.37579 Q 261.344175 41.267126 261.982575 41.144879 C 262.707002 41.006785 263.431428 40.558547 264.121897 40.467993 Q 265.923907 40.230291 266.881508 41.581799 C 266.940368 41.667824 267.046768 41.704046 267.146376 41.674616 Q 268.128879 41.384845 268.577118 41.212794 Q 269.018565 41.04527 269.043468 40.748708 Q 269.111383 39.981269 269.342293 39.394937 C 269.369459 39.324758 269.421528 39.265898 269.487179 39.227413 Q 270.284048 38.761064 271.246176 38.752009 Z" style="fill:#088541;"/>
		<path d="M 235.980201 39.899771 Q 236.319775 40.05824 236.537103 40.017491 Q 236.480507 40.250665 236.704627 40.372912 Q 239.864936 42.070786 241.306997 45.113377 C 242.669824 47.988443 243.217672 51.420413 243.249365 54.603361 C 243.274267 57.118478 243.305961 59.941477 242.936956 62.651284 Q 242.923373 62.759948 242.810182 63.291948 Q 242.719629 63.717548 242.792071 63.955251 Q 242.486454 63.941668 242.389109 64.158996 Q 242.16499 64.657039 241.868428 64.899269 Q 241.762028 64.797396 241.644308 64.813243 Q 241.895594 64.532528 242.026896 64.197481 Q 242.067645 64.091081 241.968036 64.029957 Q 241.501687 63.742451 240.808954 63.713021 Q 237.816168 63.586246 234.879978 63.52965 Q 234.932046 62.463386 235.061085 61.435606 Q 235.239927 60.018447 235.260302 59.348353 C 235.344064 56.643073 235.242191 53.790645 234.685289 51.110268 C 234.003875 47.829975 232.962512 44.635708 230.252705 42.410361 Q 229.974254 42.17945 229.725233 42.095689 Q 229.621096 42.057203 229.519224 42.10248 L 228.960057 42.351502 Q 228.930628 42.365085 228.901198 42.349238 Q 228.86724 42.331127 228.871768 42.299433 Q 228.874032 42.28585 228.892142 42.272267 Q 230.705472 40.841526 232.792725 40.137474 Q 234.04236 39.716401 235.321425 40.049184 C 235.608932 40.123891 235.758345 40.062767 235.980201 39.899771 Z" style="fill:#ee5d1e;"/>
		<path d="M 203.29273 50.981229 Q 205.470536 51.309485 206.923916 53.014151 Q 208.266369 54.392824 208.648956 56.228792 Q 208.791578 56.910205 208.913825 57.514649 C 208.945518 57.670853 209.047391 57.802155 209.187748 57.872334 Q 211.148227 58.863893 212.377488 60.824371 Q 213.409795 62.470177 214.290426 64.437447 Q 214.564349 65.046418 215.404231 65.037363 Q 216.742156 65.019252 217.982736 64.894741 Q 220.169598 64.672886 220.176389 64.672886 Q 222.471915 64.523473 224.77876 64.539319 C 224.901007 64.539319 224.96213 64.39217 224.878368 64.306145 Q 224.758385 64.183898 224.66104 64.129566 C 223.891337 63.701702 222.594162 63.049718 221.881055 62.128338 Q 221.177003 61.220542 220.794415 60.455366 Q 220.577087 60.016183 221.029854 60.199553 Q 221.994246 60.59346 223.336699 61.523895 Q 224.07018 62.216628 225.1455 63.072356 Q 225.74768 63.554553 226.397399 63.817157 C 226.55134 63.878281 226.721127 63.7832 226.750557 63.620204 Q 227.00637 62.137394 227.185213 60.412354 C 227.289349 59.409476 227.819086 56.389524 228.828755 55.997881 C 229.596194 55.701319 230.295718 57.267891 230.43834 57.842904 C 230.891106 59.685664 230.963549 61.383538 231.060894 63.377974 C 231.072213 63.599829 231.341609 63.703965 231.497813 63.545497 L 234.271007 60.774567 Q 234.345714 60.69986 234.438531 60.751928 Q 234.522293 60.799469 234.506446 60.883231 Q 234.501918 60.905869 233.920113 62.4249 Q 233.736743 62.902569 232.679533 63.640578 L 231.574783 64.02543 C 231.416315 64.079762 231.393677 64.294826 231.536298 64.383115 Q 231.957371 64.643456 232.310529 64.684205 Q 236.31072 65.139235 240.127541 65.098486 Q 240.965159 65.089431 241.644308 64.813243 Q 241.762028 64.797396 241.868428 64.899269 C 240.910827 66.646947 237.381513 66.567713 235.651945 66.626573 C 235.269357 66.640156 235.085987 67.104241 235.357647 67.373637 Q 235.439145 67.452871 235.466311 67.477773 Q 235.563655 67.563799 235.611196 67.572854 Q 236.498618 67.73585 237.730143 67.767544 C 237.791266 67.769808 237.847862 67.803765 237.879556 67.858097 L 237.933888 67.950914 Q 238.024441 68.107119 237.847862 68.134285 C 236.609546 68.326711 235.500268 68.3086 234.112539 68.428583 Q 232.851585 68.537247 232.602563 68.494234 Q 231.391413 68.290489 230.739429 68.322183 Q 228.674815 68.421791 225.623169 68.458013 Q 225.331135 68.460277 224.957602 68.636856 Q 224.556904 68.824754 224.314674 68.845128 Q 222.736783 68.985486 221.177003 69.320533 C 221.050228 69.347699 220.930245 69.263937 220.912134 69.139426 Q 220.903079 69.076039 221.07513 69.003596 Q 222.200255 68.523664 222.899779 67.756225 C 223.203132 67.423442 223.549499 67.095186 223.225771 66.760139 C 223.173703 66.708071 223.105788 66.676377 223.033345 66.671849 Q 222.207046 66.617517 219.820967 66.732973 Q 217.665799 66.837109 215.180112 65.761789 Q 215.075975 65.718776 214.965048 65.730095 C 212.501998 66.008546 210.371732 66.481687 208.388616 67.964497 Q 208.026402 68.233893 207.075593 69.157537 Q 206.468886 69.746133 205.988954 70.506781 Q 205.529396 71.235735 205.053991 71.985063 Q 204.986076 71.559463 204.902314 71.471173 Q 203.838313 70.332466 200.775348 67.201586 C 199.523449 65.922521 198.33041 64.568749 197.947822 63.147063 Q 197.334324 60.853801 197.216604 58.234547 C 197.028706 54.093998 197.046817 51.368345 196.050731 48.006554 Q 195.858305 47.359098 195.65456 48.002026 L 194.98673 50.10739 C 194.950509 50.218318 194.801096 50.234165 194.742236 50.132292 Q 193.868397 48.601942 192.90174 47.345515 Q 192.510098 46.838417 192.231646 46.630144 Q 191.763033 46.281514 191.928293 46.836153 Q 191.987152 47.030842 192.276923 47.576426 C 193.594473 50.041739 194.567921 52.020328 194.921079 54.592041 Q 195.01616 55.287038 195.059172 57.695755 C 195.09313 59.620012 195.131615 61.517104 195.720211 63.094995 C 195.736058 63.13348 195.686254 63.167437 195.65456 63.140271 C 193.85255 61.65067 192.815715 60.256149 191.437041 57.944777 Q 190.766947 56.82418 190.5383 55.710375 Q 189.621448 51.264208 187.104067 47.832239 Q 186.934279 47.601328 186.703368 47.399847 C 186.599232 47.311558 186.440764 47.386264 186.443028 47.522094 Q 186.46793 48.601942 186.809768 49.706692 Q 187.516084 51.993162 187.855659 54.410935 Q 187.903199 54.755037 187.568152 54.66222 C 184.883247 53.928739 182.845799 52.491205 180.667992 50.630335 Q 180.283141 50.30208 180.079396 50.200207 C 179.975259 50.148139 179.85754 50.231901 179.868859 50.347356 C 180.040911 52.061077 182.859382 54.166441 184.192779 55.071974 Q 185.779725 56.154086 186.316253 56.731363 Q 187.581735 58.09419 188.043557 59.982226 C 188.061668 60.054668 188.000544 60.122583 187.925838 60.111264 C 185.240933 59.728676 183.033697 59.54757 181.113967 58.526582 C 179.137642 57.478427 177.473725 55.694528 175.913945 53.808756 C 175.830183 53.706883 175.698881 53.661606 175.585689 53.697828 Q 175.563051 53.706883 175.52683 53.779326 Q 175.506455 53.822339 175.508719 53.872143 C 175.565315 55.570017 176.590831 57.084521 177.428448 58.474513 C 177.462406 58.531109 177.419393 58.605816 177.351478 58.601288 Q 174.41076 58.436028 172.257856 57.824794 Q 172.115235 57.784045 172.151456 57.92893 Q 172.726469 60.16786 174.727697 60.706652 Q 175.11934 60.810788 177.183955 60.946618 Q 178.290968 61.019061 179.656059 61.100559 Q 182.839007 61.290721 185.530703 62.75542 Q 185.981206 62.999914 185.467316 62.988595 C 182.20287 62.92068 179.287055 63.228561 176.25352 64.410281 C 175.003884 64.897005 174.164003 65.200358 173.278844 65.861397 Q 172.930214 66.121738 173.360342 66.101364 C 176.910031 65.93384 180.579703 65.571627 184.391996 65.252427 C 189.496937 64.826826 193.922729 67.120088 197.162272 71.009351 Q 198.907687 73.10566 200.730072 75.939978 Q 201.393375 76.970021 201.957069 78.120048 L 180.097506 78.126839 Q 180.120145 77.957052 179.651532 77.916303 Q 176.898712 75.761135 176.962099 72.32011 C 176.966627 72.152587 176.882865 71.996382 176.742507 71.908093 Q 175.959221 71.412314 175.549468 70.461504 C 175.506455 70.361896 175.381944 70.32341 175.291391 70.38227 Q 173.247151 71.695293 170.797684 71.235735 C 168.18975 70.744483 166.303978 68.854183 165.391653 66.47716 C 165.020385 65.50824 165.013593 64.16126 165.575024 63.196867 Q 165.790088 62.830126 166.005152 62.361513 C 166.077595 62.207572 166.075331 62.030994 166.002888 61.877053 Q 165.658786 61.161682 165.208283 60.142958 C 164.852861 59.343825 164.798529 57.770462 165.172062 56.892095 Q 166.249646 54.356603 168.961717 54.25473 C 169.0817 54.250203 169.167725 54.141539 169.147351 54.02382 Q 168.728542 51.809792 170.256629 50.582795 Q 170.344918 50.512616 170.338126 50.399425 Q 170.329071 50.197943 170.261156 49.939867 C 169.44844 46.840681 172.50235 44.167095 175.126131 43.422294 Q 177.177163 42.838225 179.232723 43.10083 C 180.140519 43.218549 181.046052 43.635094 181.831602 44.001835 C 181.969696 44.065222 182.134955 44.008627 182.200606 43.870533 Q 182.714496 42.82917 182.952199 42.42168 C 184.5482 39.689235 188.061668 39.413048 190.438691 41.332777 C 190.5383 41.412011 190.67413 41.427858 190.789585 41.368998 C 193.005877 40.257457 195.647769 40.336691 197.775771 41.642922 C 201.214532 43.75055 202.590942 46.836153 201.6922 50.782012 C 201.676354 50.849927 201.717102 50.917842 201.785017 50.935953 Q 202.556984 51.137434 203.29273 50.981229 Z" style="fill:#089142;"/>
		<path d="M 211.61684 41.427858 Q 211.589674 41.536522 211.399512 41.477662 Q 211.449316 41.414275 211.61684 41.427858 Z" style="fill:#ee5d1e;"/>
		<path d="M 285.467569 42.605051 Q 285.476624 42.734089 285.420029 42.761255 L 285.164216 42.711451 Q 285.336267 42.704659 285.467569 42.605051 Z" style="fill:#0b6a38;"/>
		<path d="M 223.336699 61.523895 Q 221.994246 60.59346 221.029854 60.199553 Q 220.577087 60.016183 220.794415 60.455366 Q 221.177003 61.220542 221.881055 62.128338 C 222.594162 63.049718 223.891337 63.701702 224.66104 64.129566 Q 224.758385 64.183898 224.878368 64.306145 C 224.96213 64.39217 224.901007 64.539319 224.77876 64.539319 Q 222.471915 64.523473 220.176389 64.672886 Q 220.169598 64.672886 217.982736 64.894741 Q 216.742156 65.019252 215.404231 65.037363 Q 214.564349 65.046418 214.290426 64.437447 Q 213.409795 62.470177 212.377488 60.824371 Q 211.148227 58.863893 209.187748 57.872334 C 209.047391 57.802155 208.945518 57.670853 208.913825 57.514649 Q 208.791578 56.910205 208.648956 56.228792 Q 208.266369 54.392824 206.923916 53.014151 Q 206.486997 49.878743 208.121483 47.159881 Q 210.088753 43.888644 213.90331 43.718856 Q 214.790733 43.680371 215.718904 44.038056 C 217.51865 44.730789 218.854311 45.604628 220.866858 46.718434 Q 220.966466 46.775029 221.016271 46.876902 Q 221.113615 47.085174 221.149837 47.202894 Q 223.271047 54.139275 223.336699 61.523895 Z" style="fill:#ee5d1e;"/>
		<path d="M 256.877634 44.8553 L 257.828444 44.714942 C 257.896359 44.705887 257.966537 44.721734 258.023133 44.760219 C 260.010778 46.166059 260.739732 48.185397 261.362285 50.487714 Q 263.990595 60.233511 264.418459 70.461504 Q 264.422986 70.572432 264.321114 70.617709 Q 264.020024 70.753538 263.838918 70.461504 C 262.136516 67.731323 260.456753 65.40184 258.833585 62.676186 C 256.807455 59.278174 254.745104 55.76697 252.476745 52.445929 C 251.258803 50.664293 250.649832 49.871952 250.242342 49.011695 Q 250.192538 48.907559 250.240079 48.805687 Q 250.962241 47.21874 251.650446 46.593923 Q 252.83443 45.520866 253.825989 44.547419 Q 255.40388 43.64415 256.877634 44.8553 Z" style="fill:#0b6a38;"/>
		<path d="M 301.773951 54.014764 C 300.388486 54.673539 299.116213 55.834885 297.995616 56.880776 Q 293.400037 61.177529 292.182095 62.282279 C 287.810635 66.255304 283.165252 69.884227 278.10106 72.906443 C 278.01277 72.958511 277.901842 72.915498 277.872413 72.818153 Q 277.840719 72.709489 277.856566 72.478578 Q 277.940328 71.324024 278.202932 69.716703 Q 280.208687 57.394666 285.51511 46.116254 Q 286.004097 45.077155 286.898311 44.739844 Q 287.000183 44.701359 287.052252 44.606278 L 287.129222 44.461393 Q 287.434839 44.871147 288.376593 44.830398 C 289.350041 44.789649 289.404373 45.720084 289.737156 46.365276 C 289.807335 46.50337 289.96354 46.573548 290.112953 46.535063 C 290.973209 46.322263 292.109652 46.127573 292.526197 47.137243 Q 292.786538 47.768852 292.888411 47.931848 C 292.924632 47.988443 292.972172 48.03372 293.031032 48.065414 Q 294.928123 49.072819 295.161298 51.381928 C 295.1862 51.628685 295.482762 51.737349 295.661605 51.567562 C 296.678065 50.605433 297.868841 51.008395 298.898885 51.834694 Q 299.136587 52.024856 299.627839 52.199171 Q 301.013304 52.690423 301.773951 54.014764 Z" style="fill:#0b6a38;"/>
		<path d="M 298.215207 78.056661 L 289.98165 78.083827 Q 291.49389 76.209374 292.741262 74.113065 Q 293.264207 74.178716 293.649058 74.45264 C 293.771305 74.540929 293.941093 74.518291 294.038437 74.4051 C 294.348582 74.040623 294.638353 73.447499 295.190728 73.372792 Q 295.989861 73.266392 297.019904 73.21206 C 297.144415 73.205269 297.234968 73.089813 297.210066 72.967566 C 297.092347 72.358595 296.77541 71.597948 297.148943 71.07953 Q 297.275717 70.905215 297.766969 70.746747 Q 298.969063 70.364159 298.753999 68.802115 Q 298.701931 68.410472 298.310288 68.021093 C 298.022782 67.733587 298.013726 67.124616 298.416688 66.900496 Q 298.527616 66.837109 298.896621 66.841637 Q 299.482953 66.846164 299.928928 66.461313 C 300.141728 66.275679 300.460929 66.28247 300.666938 66.47716 C 301.196674 66.975203 301.73773 66.547339 302.31048 66.488479 C 302.962463 66.420564 303.609919 66.38887 303.725375 65.653125 C 303.775179 65.327133 303.528421 65.021516 303.331468 64.706843 C 303.08471 64.312936 303.129987 63.964306 303.098293 63.534178 C 303.041697 62.789377 303.709528 62.941054 304.049103 62.698824 C 304.694295 62.239266 304.18946 61.557853 303.838566 61.046227 C 303.797817 60.985103 303.78197 60.910397 303.797817 60.837954 Q 303.865732 60.530073 304.049103 60.335383 Q 304.051366 60.899078 304.639963 60.342175 Q 304.798431 60.195026 304.984065 59.939213 Q 307.63954 56.31029 310.374249 52.742491 Q 311.340906 51.4838 316.108536 44.812287 Q 316.185506 44.705887 316.310017 44.746636 L 319.137543 45.645377 C 319.187348 45.661224 319.207722 45.715556 319.180556 45.758569 Q 316.226255 50.338301 312.805605 55.513421 Q 311.236769 57.885917 301.696981 72.625728 Q 301.69019 72.637047 300.091924 75.02539 Q 299.125268 76.471978 298.215207 78.056661 Z" style="fill:#9dc544;"/>
		<path d="M 205.053991 71.985063 Q 203.709275 74.792215 203.507794 78.122312 L 201.957069 78.120048 Q 201.393375 76.970021 200.730072 75.939978 Q 198.907687 73.10566 197.162272 71.009351 C 193.922729 67.120088 189.496937 64.826826 184.391996 65.252427 C 180.579703 65.571627 176.910031 65.93384 173.360342 66.101364 Q 172.930214 66.121738 173.278844 65.861397 C 174.164003 65.200358 175.003884 64.897005 176.25352 64.410281 C 179.287055 63.228561 182.20287 62.92068 185.467316 62.988595 Q 185.981206 62.999914 185.530703 62.75542 Q 182.839007 61.290721 179.656059 61.100559 Q 178.290968 61.019061 177.183955 60.946618 Q 175.11934 60.810788 174.727697 60.706652 Q 172.726469 60.16786 172.151456 57.92893 Q 172.115235 57.784045 172.257856 57.824794 Q 174.41076 58.436028 177.351478 58.601288 C 177.419393 58.605816 177.462406 58.531109 177.428448 58.474513 C 176.590831 57.084521 175.565315 55.570017 175.508719 53.872143 Q 175.506455 53.822339 175.52683 53.779326 Q 175.563051 53.706883 175.585689 53.697828 C 175.698881 53.661606 175.830183 53.706883 175.913945 53.808756 C 177.473725 55.694528 179.137642 57.478427 181.113967 58.526582 C 183.033697 59.54757 185.240933 59.728676 187.925838 60.111264 C 188.000544 60.122583 188.061668 60.054668 188.043557 59.982226 Q 187.581735 58.09419 186.316253 56.731363 Q 185.779725 56.154086 184.192779 55.071974 C 182.859382 54.166441 180.040911 52.061077 179.868859 50.347356 C 179.85754 50.231901 179.975259 50.148139 180.079396 50.200207 Q 180.283141 50.30208 180.667992 50.630335 C 182.845799 52.491205 184.883247 53.928739 187.568152 54.66222 Q 187.903199 54.755037 187.855659 54.410935 Q 187.516084 51.993162 186.809768 49.706692 Q 186.46793 48.601942 186.443028 47.522094 C 186.440764 47.386264 186.599232 47.311558 186.703368 47.399847 Q 186.934279 47.601328 187.104067 47.832239 Q 189.621448 51.264208 190.5383 55.710375 Q 190.766947 56.82418 191.437041 57.944777 C 192.815715 60.256149 193.85255 61.65067 195.65456 63.140271 C 195.686254 63.167437 195.736058 63.13348 195.720211 63.094995 C 195.131615 61.517104 195.09313 59.620012 195.059172 57.695755 Q 195.01616 55.287038 194.921079 54.592041 C 194.567921 52.020328 193.594473 50.041739 192.276923 47.576426 Q 191.987152 47.030842 191.928293 46.836153 Q 191.763033 46.281514 192.231646 46.630144 Q 192.510098 46.838417 192.90174 47.345515 Q 193.868397 48.601942 194.742236 50.132292 C 194.801096 50.234165 194.950509 50.218318 194.98673 50.10739 L 195.65456 48.002026 Q 195.858305 47.359098 196.050731 48.006554 C 197.046817 51.368345 197.028706 54.093998 197.216604 58.234547 Q 197.334324 60.853801 197.947822 63.147063 C 198.33041 64.568749 199.523449 65.922521 200.775348 67.201586 Q 203.838313 70.332466 204.902314 71.471173 Q 204.986076 71.559463 205.053991 71.985063 Z" style="fill:#9dc544;"/>
		<path d="M 302.459893 56.455175 Q 302.362548 56.602324 302.482531 56.74721 Q 302.444046 56.919261 302.324063 57.107159 Q 302.142956 56.907942 302.459893 56.455175 Z" style="fill:#0b6a38;"/>
		<path d="M 234.879978 63.52965 Q 237.816168 63.586246 240.808954 63.713021 Q 241.501687 63.742451 241.968036 64.029957 Q 242.067645 64.091081 242.026896 64.197481 Q 241.895594 64.532528 241.644308 64.813243 Q 240.965159 65.089431 240.127541 65.098486 Q 236.31072 65.139235 232.310529 64.684205 Q 231.957371 64.643456 231.536298 64.383115 C 231.393677 64.294826 231.416315 64.079762 231.574783 64.02543 L 232.679533 63.640578 L 234.879978 63.52965 Z" style="fill:#de1c25;"/>
		<path d="M 242.792071 63.955251 L 243.523289 64.401226 Q 243.686285 64.600443 244.077928 64.577805 Q 244.548805 64.550639 244.566916 64.550639 Q 251.254275 64.706843 255.591778 69.755189 Q 255.834008 70.035904 256.277719 70.203427 Q 257.647337 72.24314 258.308376 74.509236 Q 258.752087 76.028267 258.858487 77.909512 Q 258.724921 77.911775 258.754351 78.11552 L 203.507794 78.122312 Q 203.709275 74.792215 205.053991 71.985063 Q 205.529396 71.235735 205.988954 70.506781 Q 206.468886 69.746133 207.075593 69.157537 Q 208.026402 68.233893 208.388616 67.964497 C 210.371732 66.481687 212.501998 66.008546 214.965048 65.730095 Q 215.075975 65.718776 215.180112 65.761789 Q 217.665799 66.837109 219.820967 66.732973 Q 222.207046 66.617517 223.033345 66.671849 C 223.105788 66.676377 223.173703 66.708071 223.225771 66.760139 C 223.549499 67.095186 223.203132 67.423442 222.899779 67.756225 Q 222.200255 68.523664 221.07513 69.003596 Q 220.903079 69.076039 220.912134 69.139426 C 220.930245 69.263937 221.050228 69.347699 221.177003 69.320533 Q 222.736783 68.985486 224.314674 68.845128 Q 224.556904 68.824754 224.957602 68.636856 Q 225.331135 68.460277 225.623169 68.458013 Q 228.674815 68.421791 230.739429 68.322183 Q 231.391413 68.290489 232.602563 68.494234 Q 232.851585 68.537247 234.112539 68.428583 C 235.500268 68.3086 236.609546 68.326711 237.847862 68.134285 Q 238.024441 68.107119 237.933888 67.950914 L 237.879556 67.858097 C 237.847862 67.803765 237.791266 67.769808 237.730143 67.767544 Q 236.498618 67.73585 235.611196 67.572854 Q 235.563655 67.563799 235.466311 67.477773 Q 235.439145 67.452871 235.357647 67.373637 C 235.085987 67.104241 235.269357 66.640156 235.651945 66.626573 C 237.381513 66.567713 240.910827 66.646947 241.868428 64.899269 Q 242.16499 64.657039 242.389109 64.158996 Q 242.486454 63.941668 242.792071 63.955251 Z M 252.784626 69.669163 C 251.870038 68.596107 249.757882 66.746556 248.245643 67.172156 C 248.048689 67.226488 247.908332 67.405331 247.903804 67.609076 C 247.885693 68.184089 248.218477 68.632328 248.702937 69.053401 Q 250.473253 70.586015 251.910787 72.012229 C 252.512966 72.609881 253.389069 73.087549 254.183674 73.078494 Q 254.54136 73.073966 254.570789 72.718545 Q 254.622857 72.114102 254.360253 71.717931 Q 253.776184 70.830509 252.784626 69.669163 Z" style="fill:#de1c25;"/>
		<path d="M 292.741262 74.113065 Q 291.49389 76.209374 289.98165 78.083827 L 289.302501 78.034022 Q 289.307028 77.954788 289.279862 77.916303 L 290.52497 75.779246 C 291.133941 75.136317 291.729329 74.147023 292.741262 74.113065 Z" style="fill:#d5e59e;"/>
		<path d="M 180.097506 78.126839 L 179.676434 78.08609 Q 179.64474 78.00912 179.651532 77.916303 Q 180.120145 77.957052 180.097506 78.126839 Z" style="fill:#0b6a38;"/>
		<path d="M 258.858487 77.909512 L 258.985262 78.099673 Q 258.844904 78.072507 258.754351 78.11552 Q 258.724921 77.911775 258.858487 77.909512 Z" style="fill:#0b6a38;"/>
		<path d="M 269.118174 78.108729 L 268.814821 78.090618 L 268.875944 77.938941 Q 269.088744 77.938941 269.118174 78.108729 Z" style="fill:#0b6a38;"/>
		<path d="M 280.661454 77.923095 Q 280.679564 78.00912 280.715786 78.070244 Q 280.620705 78.117784 280.484875 78.092882 Q 280.498458 77.954788 280.661454 77.923095 Z" style="fill:#0b6a38;"/>
		<path d="M 289.279862 77.916303 Q 289.307028 77.954788 289.302501 78.034022 Q 289.264015 78.020439 289.209684 78.036286 Q 289.266279 77.972899 289.279862 77.916303 Z" style="fill:#0b6a38;"/>
		<path d="M 310.276905 77.920831 L 310.301807 78.108729 Q 310.159185 78.049869 310.143338 78.106465 L 310.276905 77.920831 Z" style="fill:#0b6a38;"/>
		<path d="M 289.209684 78.036286 L 289.033105 78.088354 Q 289.096492 78.036286 289.209684 78.036286 Z" style="fill:#0b6a38;"/>
		<path d="M 289.302501 78.034022 L 289.98165 78.083827 L 298.215207 78.056661 L 310.143338 78.106465 Q 310.159185 78.049869 310.301807 78.108729 L 313.029724 78.117784 L 314.134474 78.113256 Q 314.179751 78.113256 314.222764 78.110993 L 314.374441 78.110993 L 325.483064 78.120048 L 331.715394 78.138159 Q 331.760671 78.099673 331.824058 78.113256 Q 331.821794 78.124576 331.821794 78.135895 Q 331.980262 78.215129 332.093454 78.149478 Q 332.122884 78.126839 332.163633 78.11552 Q 332.267769 78.090618 332.31531 78.140422 Q 332.349267 78.176644 332.335684 78.264933 Q 332.231548 78.867113 332.140995 79.154619 Q 331.39393 81.54749 329.499103 87.025963 Q 325.992427 97.154348 321.507775 106.037625 Q 317.238188 114.493037 310.641382 122.703956 C 309.5887 124.014715 307.949685 125.787296 306.935488 126.839977 Q 303.643877 130.267419 299.734239 133.28058 Q 283.719891 145.611673 264.137744 150.134809 Q 262.720585 150.463065 260.486182 150.872819 C 258.518912 151.232768 257.20589 151.4999 255.58725 151.678743 C 253.04723 151.959458 250.120096 152.321671 247.73628 152.432599 Q 241.171167 152.738216 234.757731 152.06133 Q 232.416929 151.812309 229.349436 151.465943 Q 228.579734 151.379917 227.348209 151.078827 C 225.944633 150.736989 224.586334 150.664546 223.17823 150.245737 Q 222.241004 149.965022 221.369429 149.820137 Q 220.635947 149.69789 219.569682 149.351523 Q 218.627928 149.045906 218.229493 148.984783 C 217.129271 148.814995 216.291653 148.430144 215.085031 148.063403 Q 214.016502 147.739675 213.278493 147.483862 Q 210.183834 146.413069 206.720171 144.966481 Q 205.461481 144.441272 201.889154 142.68001 Q 197.092094 140.318834 191.670216 136.70123 Q 190.619798 135.999442 189.311303 135.012411 C 188.254093 134.215542 187.267063 133.556767 186.194006 132.635388 Q 182.483585 129.461495 181.899517 128.906856 Q 177.833674 125.049286 174.41076 120.693673 Q 170.09816 115.210672 166.489612 108.518785 Q 162.595821 101.29716 159.609826 93.400914 Q 156.974726 86.437367 154.7856 79.324407 Q 154.769753 79.147828 154.685992 79.000679 Q 154.593175 78.674687 154.511677 78.346431 Q 154.479983 78.224184 154.534315 78.176644 Q 154.595438 78.120048 154.733532 78.122312 Q 154.819558 78.110993 154.892 78.135895 L 158.690711 78.124576 L 158.810694 78.11552 L 159.037077 78.110993 L 179.676434 78.08609 L 180.097506 78.126839 L 201.957069 78.120048 L 203.507794 78.122312 L 258.754351 78.11552 Q 258.844904 78.072507 258.985262 78.099673 L 268.814821 78.090618 L 269.118174 78.108729 L 273.514536 78.110993 L 274.00126 78.122312 L 280.484875 78.092882 Q 280.620705 78.117784 280.715786 78.070244 L 289.033105 78.088354 L 289.209684 78.036286 Q 289.264015 78.020439 289.302501 78.034022 Z M 165.097355 100.393891 Q 168.493103 107.93698 172.864563 114.615284 Q 180.072604 125.622036 190.486232 133.572614 Q 198.810342 139.929454 208.920616 144.296386 Q 220.656321 149.365106 233.392641 150.915831 Q 242.601909 152.036428 251.179569 151.182964 Q 276.412241 148.674638 296.422252 133.427729 C 310.870029 122.418713 319.914038 106.184774 326.080716 89.396195 Q 327.454862 85.654081 329.238762 80.770995 C 329.263664 80.700816 329.21386 80.628374 329.139153 80.628374 L 157.794233 80.628374 Q 157.676514 80.628374 157.710471 80.741565 Q 160.811921 90.865422 165.097355 100.393891 Z" style="fill:#f9fbf7;"/>
		<path d="M 154.894264 78.117784 Q 154.892 78.126839 154.892 78.135895 Q 154.819558 78.110993 154.733532 78.122312 Q 154.812766 78.106465 154.894264 78.117784 Z" style="fill:#0b6a38;"/>
		<path d="M 158.690711 78.124576 L 154.892 78.135895 Q 154.892 78.126839 154.894264 78.117784 L 158.690711 78.124576 Z" style="fill:#d5e59e;"/>
		<path d="M 159.037077 78.110993 L 158.810694 78.11552 L 159.037077 78.110993 Z" style="fill:#0b6a38;"/>
		<path d="M 314.134474 78.113256 L 313.029724 78.117784 L 314.134474 78.113256 Z" style="fill:#0b6a38;"/>
		<path d="M 314.374441 78.110993 L 314.222764 78.110993 L 314.374441 78.110993 Z" style="fill:#0b6a38;"/>
		<path d="M 331.715394 78.138159 L 325.483064 78.120048 L 331.715394 78.138159 Z" style="fill:#9dc544;"/>
		<path d="M 332.163633 78.11552 Q 332.122884 78.126839 332.093454 78.149478 Q 331.964416 78.106465 331.821794 78.135895 Q 331.821794 78.124576 331.824058 78.113256 L 332.163633 78.11552 Z" style="fill:#0b6a38;"/>
		<path d="M 332.093454 78.149478 Q 331.980262 78.215129 331.821794 78.135895 Q 331.964416 78.106465 332.093454 78.149478 Z" style="fill:#9dc544;"/>
		<path d="M 154.7856 79.324407 Q 154.690519 79.186313 154.685992 79.000679 Q 154.769753 79.147828 154.7856 79.324407 Z" style="fill:#0b6a38;"/>
		<path d="M 238.474943 26.796712 C 240.104903 26.253392 241.553755 25.954566 243.142965 26.072285 Q 243.550455 26.103979 243.582149 26.128881 Q 244.265826 26.665409 243.40557 26.663145 Q 240.206775 26.647299 237.270585 28.16633 Q 237.168712 28.218398 237.06684 28.161802 Q 236.976287 28.109734 236.971759 27.996543 Q 236.969495 27.915045 237.032882 27.815436 Q 237.458483 27.136286 238.474943 26.796712 Z" style="fill:#d5e59e;"/>
		<path d="M 165.097355 100.393891 Q 160.811921 90.865422 157.710471 80.741565 Q 157.676514 80.628374 157.794233 80.628374 L 329.139153 80.628374 C 329.21386 80.628374 329.263664 80.700816 329.238762 80.770995 Q 327.454862 85.654081 326.080716 89.396195 C 319.914038 106.184774 310.870029 122.418713 296.422252 133.427729 Q 276.412241 148.674638 251.179569 151.182964 Q 242.601909 152.036428 233.392641 150.915831 Q 220.656321 149.365106 208.920616 144.296386 Q 198.810342 139.929454 190.486232 133.572614 Q 180.072604 125.622036 172.864563 114.615284 Q 168.493103 107.93698 165.097355 100.393891 Z" style="fill:#9dc544;"/>
	</g>
	<g id="surface4">
	</g>
</svg>
