<?xml version="1.0" encoding="utf-8"?>
<svg xmlns="http://www.w3.org/2000/svg" width="490pt" height="280pt" viewBox="0 0 490 280" version="1.1" xmlns:xlink="http://www.w3.org/1999/xlink">
	<g id="surface2">
		<path vector-effect="non-scaling-stroke" d="M 276.40017 134.610135 Q 276.854082 133.399703 278.172588 130.29581 C 280.273552 125.354653 281.012781 118.022893 276.663871 113.950654 Q 272.881271 110.414463 271.139113 108.750119 C 266.167696 103.999173 262.622859 98.392278 258.477129 91.92079 C 255.546154 87.355732 250.847084 84.390173 245.452015 84.610645 C 239.641941 84.848408 235.046622 88.181419 231.916791 93.010179 Q 228.536227 98.223683 227.222044 100.091206 C 223.512934 105.352263 218.813864 109.541223 213.803539 114.002529 Q 211.093036 116.410425 210.608863 119.345722 Q 209.860989 123.819998 211.309185 128.648757 Q 212.048413 131.112851 214.015365 134.886806" style="fill:none;stroke-width:0.50;stroke:#e3a283;"/>
		<path vector-effect="non-scaling-stroke" d="M 235.262771 82.794997 C 238.915682 81.415969 241.548372 76.695283 242.503749 73.016435 Q 245.049979 63.220581 240.49789 54.466563 C 239.092924 51.760383 235.967415 48.457632 232.975919 47.852416 C 228.389246 46.918654 224.697428 51.479389 223.175742 55.344126 Q 219.596321 64.443982 222.553234 73.958842 C 224.291069 79.552768 228.601071 85.310966 235.262771 82.794997" style="fill:none;stroke-width:0.50;stroke:#e3a283;"/>
		<path vector-effect="non-scaling-stroke" d="M 255.75798 82.807965 C 262.33322 85.566021 266.850725 79.96345 268.79174 74.430046 Q 272.09449 65.02326 268.843615 55.793715 C 267.460264 51.87278 263.932719 47.178033 259.311463 47.943199 C 256.298351 48.44034 253.056122 51.630693 251.551728 54.284998 Q 246.679739 62.874743 248.871486 72.765702 C 249.69285 76.479135 252.156944 81.294925 255.75798 82.807965" style="fill:none;stroke-width:0.50;stroke:#e3a283;"/>
		<path vector-effect="non-scaling-stroke" d="M 207.085641 67.413863 C 203.934195 67.958558 201.573852 71.16188 200.48014 74.015041 C 198.227872 79.898605 198.824442 87.182813 201.569529 92.971272 C 203.597003 97.251014 207.820546 101.254086 212.804933 100.389491 C 217.784996 99.524897 220.413363 94.337331 220.884567 89.620969 C 221.520044 83.244586 219.626582 76.185173 215.524082 71.408289 C 213.531192 69.086853 210.232765 66.869169 207.085641 67.413863" style="fill:none;stroke-width:0.50;stroke:#e3a283;"/>
		<path vector-effect="non-scaling-stroke" d="M 270.512282 91.830007 C 271.696776 96.870592 275.539898 101.573986 281.280805 100.549441 C 284.233394 100.026362 286.956867 97.53633 288.521782 95.037652 Q 293.471585 87.113645 292.395165 77.97056 Q 291.898023 73.794569 289.606848 70.880886 Q 285.530286 65.706289 279.555939 69.229511 C 272.436005 73.427117 268.670696 83.962199 270.512282 91.830007" style="fill:none;stroke-width:0.50;stroke:#e3a283;"/>
		<path d="M 276.40017 134.610135 Q 276.854082 133.399703 278.172588 130.29581 C 280.273552 125.354653 281.012781 118.022893 276.663871 113.950654 Q 272.881271 110.414463 271.139113 108.750119 C 266.167696 103.999173 262.622859 98.392278 258.477129 91.92079 C 255.546154 87.355732 250.847084 84.390173 245.452015 84.610645 C 239.641941 84.848408 235.046622 88.181419 231.916791 93.010179 Q 228.536227 98.223683 227.222044 100.091206 C 223.512934 105.352263 218.813864 109.541223 213.803539 114.002529 Q 211.093036 116.410425 210.608863 119.345722 Q 209.860989 123.819998 211.309185 128.648757 Q 212.048413 131.112851 214.015365 134.886806 C 212.333729 133.494809 210.410007 132.210886 208.914258 130.913995 C 205.416974 127.870623 202.278497 124.969909 197.899326 121.092203 Q 190.070425 114.166802 179.863888 103.039473 Q 178.320587 101.353514 174.395329 96.511786 Q 167.25378 87.697246 161.906264 76.89414 Q 159.550244 72.130225 157.872931 66.804324 Q 156.48958 62.429477 156.074575 59.191571 Q 155.201335 52.369922 155.655247 45.466136 C 156.567394 31.567782 164.340097 19.701224 176.344989 13.251351 Q 181.515264 10.47168 188.285037 9.330415 Q 203.618618 6.749601 217.698537 13.899796 C 229.729367 20.008155 238.440155 30.530269 245.179668 41.981821 Q 245.283419 42.154739 245.382848 41.981821 Q 246.078846 40.797326 248.815287 36.29279 Q 253.916394 27.897579 261.654513 21.179681 C 277.117783 7.769822 301.395592 3.814303 318.652895 16.238524 C 331.643425 25.584789 336.61052 41.562492 334.509555 56.969564 Q 333.33803 65.542016 330.26872 73.055341 C 325.625849 84.424757 318.419455 95.007392 310.439249 103.657658 Q 295.844896 119.471089 278.622177 132.79881 Q 277.649509 133.55533 276.40017 134.610135 Z M 235.262771 82.794997 C 238.915682 81.415969 241.548372 76.695283 242.503749 73.016435 Q 245.049979 63.220581 240.49789 54.466563 C 239.092924 51.760383 235.967415 48.457632 232.975919 47.852416 C 228.389246 46.918654 224.697428 51.479389 223.175742 55.344126 Q 219.596321 64.443982 222.553234 73.958842 C 224.291069 79.552768 228.601071 85.310966 235.262771 82.794997 Z M 255.75798 82.807965 C 262.33322 85.566021 266.850725 79.96345 268.79174 74.430046 Q 272.09449 65.02326 268.843615 55.793715 C 267.460264 51.87278 263.932719 47.178033 259.311463 47.943199 C 256.298351 48.44034 253.056122 51.630693 251.551728 54.284998 Q 246.679739 62.874743 248.871486 72.765702 C 249.69285 76.479135 252.156944 81.294925 255.75798 82.807965 Z M 207.085641 67.413863 C 203.934195 67.958558 201.573852 71.16188 200.48014 74.015041 C 198.227872 79.898605 198.824442 87.182813 201.569529 92.971272 C 203.597003 97.251014 207.820546 101.254086 212.804933 100.389491 C 217.784996 99.524897 220.413363 94.337331 220.884567 89.620969 C 221.520044 83.244586 219.626582 76.185173 215.524082 71.408289 C 213.531192 69.086853 210.232765 66.869169 207.085641 67.413863 Z M 270.512282 91.830007 C 271.696776 96.870592 275.539898 101.573986 281.280805 100.549441 C 284.233394 100.026362 286.956867 97.53633 288.521782 95.037652 Q 293.471585 87.113645 292.395165 77.97056 Q 291.898023 73.794569 289.606848 70.880886 Q 285.530286 65.706289 279.555939 69.229511 C 272.436005 73.427117 268.670696 83.962199 270.512282 91.830007 Z" style="fill:#fcefbd;"/>
		<path d="M 276.40017 134.610135 Q 275.613389 135.582804 274.610459 136.34797 Q 267.287345 141.911635 260.292777 146.54586 Q 250.440725 153.073548 245.784884 156.410882 C 245.352587 156.717813 244.777632 156.726459 244.341011 156.423851 C 240.623256 153.84736 235.971738 150.635392 231.605537 147.790876 Q 227.14423 144.890162 222.773706 141.825175 Q 218.100573 138.548363 214.015365 134.886806 Q 212.048413 131.112851 211.309185 128.648757 Q 209.860989 123.819998 210.608863 119.345722 Q 211.093036 116.410425 213.803539 114.002529 C 218.813864 109.541223 223.512934 105.352263 227.222044 100.091206 Q 228.536227 98.223683 231.916791 93.010179 C 235.046622 88.181419 239.641941 84.848408 245.452015 84.610645 C 250.847084 84.390173 255.546154 87.355732 258.477129 91.92079 C 262.622859 98.392278 266.167696 103.999173 271.139113 108.750119 Q 272.881271 110.414463 276.663871 113.950654 C 281.012781 118.022893 280.273552 125.354653 278.172588 130.29581 Q 276.854082 133.399703 276.40017 134.610135 Z" style="fill:#ca5549;"/>
		<path d="M 235.262771 82.794997 C 228.601071 85.310966 224.291069 79.552768 222.553234 73.958842 Q 219.596321 64.443982 223.175742 55.344126 C 224.697428 51.479389 228.389246 46.918654 232.975919 47.852416 C 235.967415 48.457632 239.092924 51.760383 240.49789 54.466563 Q 245.049979 63.220581 242.503749 73.016435 C 241.548372 76.695283 238.915682 81.415969 235.262771 82.794997 Z" style="fill:#ca5549;"/>
		<path d="M 255.75798 82.807965 C 252.156944 81.294925 249.69285 76.479135 248.871486 72.765702 Q 246.679739 62.874743 251.551728 54.284998 C 253.056122 51.630693 256.298351 48.44034 259.311463 47.943199 C 263.932719 47.178033 267.460264 51.87278 268.843615 55.793715 Q 272.09449 65.02326 268.79174 74.430046 C 266.850725 79.96345 262.33322 85.566021 255.75798 82.807965 Z" style="fill:#ca5549;"/>
		<path d="M 212.804933 100.389491 C 207.820546 101.254086 203.597003 97.251014 201.569529 92.971272 C 198.824442 87.182813 198.227872 79.898605 200.48014 74.015041 C 201.573852 71.16188 203.934195 67.958558 207.085641 67.413863 C 210.232765 66.869169 213.531192 69.086853 215.524082 71.408289 C 219.626582 76.185173 221.520044 83.244586 220.884567 89.620969 C 220.413363 94.337331 217.784996 99.524897 212.804933 100.389491 Z" style="fill:#ca5549;"/>
		<path d="M 270.512282 91.830007 C 268.670696 83.962199 272.436005 73.427117 279.555939 69.229511 Q 285.530286 65.706289 289.606848 70.880886 Q 291.898023 73.794569 292.395165 77.97056 Q 293.471585 87.113645 288.521782 95.037652 C 286.956867 97.53633 284.233394 100.026362 281.280805 100.549441 C 275.539898 101.573986 271.696776 96.870592 270.512282 91.830007 Z" style="fill:#ca5549;"/>
	</g>
	<g id="surface4">
	</g>
</svg>
