<?xml version="1.0" encoding="utf-8"?>
<svg xmlns="http://www.w3.org/2000/svg" width="490pt" height="280pt" viewBox="0 0 490 280" version="1.1" xmlns:xlink="http://www.w3.org/1999/xlink">
	<g id="surface2">
		<path vector-effect="non-scaling-stroke" d="M 209.774827 71.513733 Q 209.933239 71.868147 210.258118 72.002395" style="fill:none;stroke-width:0.50;stroke:#444a4d;"/>
		<path vector-effect="non-scaling-stroke" d="M 210.840753 72.58503 Q 210.980371 72.926019 211.329415 73.065636" style="fill:none;stroke-width:0.50;stroke:#444a4d;"/>
		<path vector-effect="non-scaling-stroke" d="M 212.129531 73.844273 Q 212.134901 74.02685 212.338957 74.056384" style="fill:none;stroke-width:0.50;stroke:#444a4d;"/>
		<path vector-effect="non-scaling-stroke" d="M 212.781975 74.545046 Q 213.131018 75.092776 213.681434 75.455245" style="fill:none;stroke-width:0.50;stroke:#444a4d;"/>
		<path vector-effect="non-scaling-stroke" d="M 214.057327 75.820398 Q 214.205 76.185552 214.548674 76.30369" style="fill:none;stroke-width:0.50;stroke:#444a4d;"/>
		<path vector-effect="non-scaling-stroke" d="M 214.932622 76.703748 Q 215.238707 77.17093 215.695149 77.43674" style="fill:none;stroke-width:0.50;stroke:#444a4d;"/>
		<path vector-effect="non-scaling-stroke" d="M 215.695149 77.43674 Q 215.708574 77.592468 215.885781 77.630057" style="fill:none;stroke-width:0.50;stroke:#444a4d;"/>
		<path vector-effect="non-scaling-stroke" d="M 216.079097 77.828744 Q 216.178441 78.05965 216.417401 78.169733" style="fill:none;stroke-width:0.50;stroke:#444a4d;"/>
		<path vector-effect="non-scaling-stroke" d="M 216.417401 78.169733 Q 216.465731 78.3362 216.634883 78.357679" style="fill:none;stroke-width:0.50;stroke:#444a4d;"/>
		<path vector-effect="non-scaling-stroke" d="M 216.680527 78.427488 Q 216.755706 78.636914 216.957077 78.709408" style="fill:none;stroke-width:0.50;stroke:#444a4d;"/>
		<path vector-effect="non-scaling-stroke" d="M 216.957077 78.709408 Q 217.002721 78.875875 217.169188 78.90004" style="fill:none;stroke-width:0.50;stroke:#444a4d;"/>
		<path vector-effect="non-scaling-stroke" d="M 217.212148 78.961794 Q 217.383985 79.283988 217.700809 79.445085" style="fill:none;stroke-width:0.50;stroke:#5c7878;"/>
		<path vector-effect="non-scaling-stroke" d="M 217.700809 79.445085 Q 217.759878 79.651827 217.974674 79.705526" style="fill:none;stroke-width:0.50;stroke:#444a4d;"/>
		<path vector-effect="non-scaling-stroke" d="M 218.023004 79.77265 Q 218.076703 79.947172 218.245855 79.971336" style="fill:none;stroke-width:0.50;stroke:#444a4d;"/>
		<path vector-effect="non-scaling-stroke" d="M 218.286129 80.02772 Q 218.578789 80.494902 219.048656 80.779507" style="fill:none;stroke-width:0.50;stroke:#5c7878;"/>
		<path vector-effect="non-scaling-stroke" d="M 219.048656 80.779507 Q 219.08893 80.996988 219.314466 81.034578" style="fill:none;stroke-width:0.50;stroke:#444a4d;"/>
		<path vector-effect="non-scaling-stroke" d="M 219.314466 81.034578 L 220.640833 82.339465" style="fill:none;stroke-width:0.50;stroke:#444a4d;"/>
		<path vector-effect="non-scaling-stroke" d="M 220.775081 82.390479 Q 220.651573 82.385109 220.742861 82.503247 Q 220.842205 82.63481 220.936178 82.583796" style="fill:none;stroke-width:0.50;stroke:#444a4d;"/>
		<path vector-effect="non-scaling-stroke" d="M 222.461231 84.202823 Q 222.458546 84.388085 222.705562 84.420304" style="fill:none;stroke-width:0.50;stroke:#444a4d;"/>
		<path vector-effect="non-scaling-stroke" d="M 243.524691 37.479264 Q 242.560792 39.090236 241.430427 40.958964 C 241.065273 41.560393 241.070643 41.981931 241.070643 42.661224 Q 241.094808 95.858205 241.089438 149.033707 C 241.089438 149.106201 241.148507 149.16527 241.223686 149.16527 L 250.038388 149.16527 C 250.041073 149.16527 250.041073 149.16527 250.041073 149.162585 C 250.041073 149.162585 250.041073 149.1599 250.038388 149.1599 Q 250.014223 149.151845 249.968579 149.141105 Q 249.89877 149.12768 249.837016 149.076666" style="fill:none;stroke-width:0.50;stroke:#5c7878;"/>
		<path vector-effect="non-scaling-stroke" d="M 250.274663 30.109067 L 250.223649 25.665469" style="fill:none;stroke-width:0.50;stroke:#5c7878;"/>
		<path vector-effect="non-scaling-stroke" d="M 250.145786 26.427996 Q 250.21291 26.347447 250.17532 26.226625" style="fill:none;stroke-width:0.50;stroke:#5c7878;"/>
		<path stroke-opacity="0.973" vector-effect="non-scaling-stroke" d="M 254.063133 32.163056 Q 253.93157 32.82624 253.93157 33.465259 Q 253.853706 79.034288 253.94768 87.969812 Q 253.969159 90.187584 254.009434 92.410725 Q 254.012119 92.553028 254.073873 92.644316 Q 254.19738 92.821523 254.318203 92.746344" style="fill:none;stroke-width:0.50;stroke:#94999c;"/>
		<path stroke-opacity="0.973" vector-effect="non-scaling-stroke" d="M 255.131744 92.797359 C 255.397555 92.805413 255.698269 92.829578 255.966765 92.770509 Q 257.93752 92.340917 260.410362 91.683103 C 260.53387 91.650883 260.619789 91.538115 260.619789 91.409238 L 260.619789 45.893908 C 260.619789 45.636153 260.56609 45.378397 260.461377 45.142121 Q 258.208701 40.080984 256.012409 34.987627 Q 255.870106 34.660063 255.625776 34.230471 Q 255.397555 33.833097 255.223033 33.478684" style="fill:none;stroke-width:0.50;stroke:#94999c;"/>
		<path vector-effect="non-scaling-stroke" d="M 209.833896 77.114546 Q 209.766772 84.159864 209.747977 90.72189 C 209.747977 90.882987 209.683538 91.025289 209.686223 91.178332 Q 209.756032 99.692319 209.729183 109.11919 Q 209.686223 123.682377 209.718443 142.82878 Q 209.721128 145.422445 209.616414 148.743732 C 209.605675 149.049817 209.860745 149.296832 210.16683 149.278038 L 212.626247 149.122311" style="fill:none;stroke-width:0.50;stroke:#444a4d;"/>
		<path vector-effect="non-scaling-stroke" d="M 258.914843 101.424114 C 258.914843 101.523457 258.992707 101.604006 259.09205 101.606691 L 274.790973 102.173216 C 274.893001 102.178586 274.978919 102.095352 274.978919 101.993324 L 274.978919 91.736802 C 274.978919 91.618664 274.866151 91.530061 274.750698 91.56228 L 259.051776 95.734698 C 258.971227 95.753492 258.914843 95.825986 258.914843 95.90922 L 258.914843 101.424114" style="fill:none;stroke-width:0.50;stroke:#94896a;"/>
		<path vector-effect="non-scaling-stroke" d="M 193.222089 104.425892 Q 192.991183 108.168717 193.149595 111.911542 Q 193.15765 112.134393 193.095896 112.478067 Q 192.969704 113.17347 193.47179 113.001633" style="fill:none;stroke-width:0.50;stroke:#444a4d;"/>
		<path vector-effect="non-scaling-stroke" d="M 258.890679 118.374224 C 258.890679 118.446718 258.949748 118.505787 259.022242 118.503102 Q 261.42259 118.449403 263.761184 118.226552 Q 272.514132 117.394216 274.807082 117.203585 Q 274.949385 117.192845 274.949385 117.047857 L 274.949385 106.54432 C 274.949385 106.412757 274.825877 106.318784 274.699684 106.351003 L 258.960488 110.389173 C 258.920213 110.399913 258.890679 110.437502 258.890679 110.480462 L 258.890679 118.374224" style="fill:none;stroke-width:0.50;stroke:#94896a;"/>
		<path vector-effect="non-scaling-stroke" d="M 258.898734 130.131635 L 258.879939 136.610428 C 258.879939 136.827909 259.054461 137.002431 259.269257 137.002431 L 274.492943 137.002431 C 274.729219 137.002431 274.917166 136.809114 274.911796 136.572838 L 274.761438 130.295417" style="fill:none;stroke-width:0.50;stroke:#444a4d;"/>
		<path vector-effect="non-scaling-stroke" d="M 274.761438 130.295417 Q 274.831247 130.314212 274.898371 130.220239 Q 274.938645 130.163855 274.938645 130.083306 Q 274.992344 125.752476 274.909111 121.204165 C 274.906426 121.072603 274.782918 120.978629 274.656725 121.008164 L 259.054461 124.67581 C 258.963173 124.69729 258.898734 124.780523 258.898734 124.874497 L 258.898734 130.131635" style="fill:none;stroke-width:0.50;stroke:#94896a;"/>
		<path vector-effect="non-scaling-stroke" d="M 274.761438 130.295417 L 258.898734 130.131635" style="fill:none;stroke-width:0.50;stroke:#a69977;"/>
		<path vector-effect="non-scaling-stroke" d="M 193.16302 122.560067 L 193.15765 128.496499" style="fill:none;stroke-width:0.50;stroke:#444a4d;"/>
		<path vector-effect="non-scaling-stroke" d="M 258.930953 140.428431 L 258.930953 149.044447 C 258.930953 149.103516 258.979282 149.151845 259.038351 149.151845 L 274.780233 149.151845 C 274.868836 149.151845 274.94133 149.079351 274.94133 148.990748 L 274.94133 139.273902 Q 274.94133 139.06716 274.737274 139.069845 Q 272.557092 139.07253 269.665397 139.34371 Q 263.524908 139.91829 259.073256 140.278074 Q 258.930953 140.288814 258.930953 140.428431" style="fill:none;stroke-width:0.50;stroke:#94896a;"/>
		<path stroke-opacity="0.973" vector-effect="non-scaling-stroke" d="M 258.721527 62.658757 C 258.721527 62.656072 258.718842 62.653387 258.716157 62.653387 C 258.713472 62.653387 258.710787 62.656072 258.710787 62.658757 C 258.710787 62.661442 258.713472 62.664127 258.716157 62.664127 C 258.718842 62.664127 258.721527 62.661442 258.721527 62.658757" style="fill:none;stroke-width:0.50;stroke:#c0d8d5;"/>
		<path stroke-opacity="0.973" vector-effect="non-scaling-stroke" d="M 258.694409 65.361028 C 258.708102 65.36519 258.734952 65.311491 258.752887 65.243078 C 258.769856 65.174558 258.772541 65.115489 258.759385 65.111596 C 258.745691 65.107434 258.718842 65.161133 258.700906 65.229546 C 258.683937 65.298066 258.681252 65.357135 258.694409 65.361028" style="fill:none;stroke-width:0.50;stroke:#c0d8d5;"/>
		<path stroke-opacity="0.973" vector-effect="non-scaling-stroke" d="M 258.453031 66.146511 C 258.453031 66.143826 258.450347 66.141141 258.447662 66.141141 C 258.444977 66.141141 258.442292 66.143826 258.442292 66.146511 C 258.442292 66.149196 258.444977 66.151881 258.447662 66.151881 C 258.450347 66.151881 258.453031 66.149196 258.453031 66.146511" style="fill:none;stroke-width:0.50;stroke:#c0d8d5;"/>
		<path stroke-opacity="0.973" vector-effect="non-scaling-stroke" d="M 259.792823 78.913465 L 259.459889 78.338885 C 259.314901 78.083814 258.965858 78.03817 258.759116 78.247596 Q 258.141577 78.87319 258.232865 79.939117 Q 258.402017 81.904503 258.189906 84.259207 Q 258.077138 85.51845 258.329524 86.635391 Q 258.764486 88.568557 259.054461 91.078988 Q 259.073256 91.237401 259.212873 91.159537 Q 259.508218 90.9877 259.462574 90.614491 Q 259.446464 90.477559 259.478684 90.343311 Q 259.658576 89.578099 259.537753 89.24785 Q 259.215558 88.361816 258.863829 87.481151 Q 258.600704 86.826022 258.600704 85.029788 Q 258.600704 84.004136 258.890679 82.317986 Q 258.968543 81.853489 258.52284 79.18733 Q 258.504046 79.066507 258.573854 78.967164 L 259.049091 78.29861 C 259.105475 78.223432 259.223613 78.239541 259.253148 78.328145 C 259.505533 79.028918 259.669315 79.75117 259.620986 80.505642 C 259.548492 81.619898 259.39008 82.798592 259.69348 84.192083 C 259.69348 84.194768 259.696165 84.197453 259.69885 84.197453 C 259.701535 84.197453 259.70422 84.194768 259.70422 84.192083 Q 260.101593 79.418236 259.841152 74.520881 Q 259.838467 74.510141 259.838467 74.512826 Q 259.827728 74.512826 259.816988 74.515511 Q 259.792823 74.515511 259.792823 74.545046 L 259.838467 78.90004 Q 259.838467 78.996698 259.792823 78.913465" style="fill:none;stroke-width:0.50;stroke:#c0d8d5;"/>
		<path stroke-opacity="0.973" vector-effect="non-scaling-stroke" d="M 259.089876 79.990292 C 259.137695 79.979391 259.156489 79.880048 259.130096 79.768971 C 259.105475 79.657197 259.046406 79.576648 258.997567 79.587227 C 258.949748 79.598128 258.930953 79.697471 258.957346 79.808548 C 258.981967 79.920322 259.041036 80.000871 259.089876 79.990292" style="fill:none;stroke-width:0.50;stroke:#c0d8d5;"/>
		<path stroke-opacity="0.973" vector-effect="non-scaling-stroke" d="M 259.540438 85.53456 Q 259.596822 85.878234 259.642466 85.531875 L 259.755234 84.65658 Q 259.763289 84.608251 259.71496 84.600196 L 259.564602 84.581401 Q 259.508218 84.573346 259.505533 84.632415 Q 259.470629 85.115707 259.540438 85.53456" style="fill:none;stroke-width:0.50;stroke:#c0d8d5;"/>
		<path stroke-opacity="0.973" vector-effect="non-scaling-stroke" d="M 259.180654 86.783063 C 259.180654 86.753529 259.156489 86.729364 259.126955 86.729364 C 259.09742 86.729364 259.073256 86.753529 259.073256 86.783063 C 259.073256 86.812598 259.09742 86.836762 259.126955 86.836762 C 259.156489 86.836762 259.180654 86.812598 259.180654 86.783063" style="fill:none;stroke-width:0.50;stroke:#c0d8d5;"/>
		<path d="M 209.774827 71.513733 Q 209.933239 71.868147 210.258118 72.002395 L 210.840753 72.58503 Q 210.980371 72.926019 211.329415 73.065636 L 212.129531 73.844273 Q 212.134901 74.02685 212.338957 74.056384 Q 212.634302 74.257756 212.781975 74.545046 Q 213.131018 75.092776 213.681434 75.455245 L 214.057327 75.820398 Q 214.205 76.185552 214.548674 76.30369 L 214.932622 76.703748 Q 215.238707 77.17093 215.695149 77.43674 Q 215.708574 77.592468 215.885781 77.630057 Q 216.025398 77.705236 216.079097 77.828744 Q 216.178441 78.05965 216.417401 78.169733 Q 216.465731 78.3362 216.634883 78.357679 L 216.680527 78.427488 Q 216.755706 78.636914 216.957077 78.709408 Q 217.002721 78.875875 217.169188 78.90004 L 217.212148 78.961794 Q 217.383985 79.283988 217.700809 79.445085 Q 217.759878 79.651827 217.974674 79.705526 L 218.023004 79.77265 Q 218.076703 79.947172 218.245855 79.971336 L 218.286129 80.02772 Q 218.578789 80.494902 219.048656 80.779507 Q 219.08893 80.996988 219.314466 81.034578 L 220.640833 82.339465 Q 220.697217 82.334095 220.775081 82.390479 Q 220.651573 82.385109 220.742861 82.503247 Q 220.842205 82.63481 220.936178 82.583796 L 222.461231 84.202823 Q 222.458546 84.388085 222.705562 84.420304 Q 223.204964 85.459381 223.207648 86.761583 Q 223.261348 117.853343 223.188854 148.985378 Q 223.188854 149.079351 223.285512 149.079351 L 226.942419 149.079351 C 227.020282 149.079351 227.084721 149.014912 227.084721 148.937049 L 227.084721 46.508762 Q 227.084721 46.170458 227.377381 46.003991 L 232.768767 42.89213 C 232.935235 42.792787 233.037263 42.61558 233.034578 42.422263 Q 232.996988 39.251333 233.150031 36.383803 C 233.17151 35.935416 233.482965 35.680345 233.611843 35.393055 Q 236.911651 28.146366 237.096912 27.738253 Q 239.824825 21.675629 242.515148 15.642538 Q 242.751424 15.118972 242.770219 15.067958 Q 242.98233 14.560502 243.951598 12.476978 Q 244.920866 10.393455 246.72247 6.183448 Q 246.985596 5.565908 247.576285 5.383332 Q 247.705163 5.343057 247.817931 5.423606 Q 248.387141 5.839774 248.569718 6.400929 Q 248.77109 7.029208 248.781829 7.058742 Q 248.964406 7.482965 250.008853 9.904793 Q 251.32448 12.96027 254.860564 21.380284 Q 256.041943 24.199485 256.965567 26.320598 Q 260.211676 33.803563 263.229564 41.036827 Q 264.0082 42.905555 264.28475 43.813069 Q 264.389463 44.154058 264.389463 44.513842 L 264.389463 90.007692 C 264.389463 90.195639 264.569355 90.332571 264.751932 90.281557 L 279.060049 86.286347 C 279.435942 86.181633 279.836 86.240702 280.163564 86.444759 C 281.371793 87.196546 282.477994 88.09869 283.882225 89.049164 Q 287.219622 91.299155 288.527194 92.246943 Q 288.78495 92.432205 289.33268 92.99873 Q 289.445448 93.116868 289.445448 93.277965 L 289.445448 148.947789 Q 289.445448 149.079351 289.577011 149.079351 L 296.037009 149.079351 C 296.200791 149.079351 296.335039 148.945104 296.335039 148.781321 Q 296.235695 109.916621 296.326984 75.484779 Q 296.326984 75.119626 296.096078 74.904829 Q 295.792678 74.622909 295.406045 74.378578 Q 291.633685 72.021189 279.86822 65.537027 Q 273.314248 61.925765 271.574399 60.972606 Q 270.666884 60.478575 270.296361 60.376547 Q 270.164798 60.338957 270.121839 60.207395 Q 269.971481 59.750952 270.36617 59.622075 Q 270.503102 59.57643 270.567541 59.447553 Q 270.948804 58.690396 271.79725 57.761402 C 272.05232 57.482167 272.272486 57.482167 272.551722 57.707703 Q 272.763833 57.876855 272.828272 57.911759 Q 274.122419 58.601792 283.492907 63.679039 Q 290.567759 67.507783 292.337143 68.442147 Q 293.327891 68.965712 293.682305 69.148289 Q 295.862487 70.267915 298.182287 71.736584 C 298.595769 71.99971 299.167664 72.627989 299.360981 73.261638 Q 299.524763 73.793259 299.710025 74.102028 C 299.940931 74.483292 299.895287 74.947789 299.895287 75.492834 Q 299.897972 147.575777 299.889917 148.998803 Q 299.889917 149.1599 300.048329 149.1599 C 300.228221 149.1599 300.437647 149.082036 300.612169 149.082036 Q 315.510976 149.17064 335.301767 149.111571 C 336.254925 149.108886 336.727477 149.742535 337.331592 150.376184 Q 337.503429 150.556076 337.522223 151.079642 Q 337.557128 151.995211 337.484634 153.152426 Q 337.471209 153.369907 337.253728 153.369907 L 152.319509 153.369907 C 152.163782 153.369907 152.034904 153.243714 152.032219 153.087987 Q 152.01074 151.877073 152 151.514604 C 151.965096 150.341279 152.389318 149.895577 153.345162 149.269983 C 153.871413 148.926309 154.797721 149.151845 155.541454 149.151845 Q 176.688146 149.14379 189.602772 149.095461 C 189.672581 149.095461 189.728965 149.039077 189.728965 148.969268 Q 189.750444 118.887051 189.728965 82.983854 C 189.72628 81.174195 190.558615 80.736548 192.03534 79.831719 Q 196.836036 76.891695 205.352709 71.71779 Q 205.368818 71.70705 206.4428 70.925728 Q 208.16117 69.677225 209.774827 71.513733 Z M 243.524691 37.479264 Q 242.560792 39.090236 241.430427 40.958964 C 241.065273 41.560393 241.070643 41.981931 241.070643 42.661224 Q 241.094808 95.858205 241.089438 149.033707 C 241.089438 149.106201 241.148507 149.16527 241.223686 149.16527 L 250.038388 149.16527 C 250.041073 149.16527 250.041073 149.16527 250.041073 149.162585 C 250.041073 149.162585 250.041073 149.1599 250.038388 149.1599 Q 250.014223 149.151845 249.968579 149.141105 Q 249.89877 149.12768 249.837016 149.076666 Q 250.416966 149.162585 250.416966 148.668553 Q 250.395486 91.803926 250.357897 34.939298 C 250.357897 33.516273 250.255869 31.725409 250.274663 30.109067 L 250.223649 25.665469 Q 250.073292 23.342985 249.968579 20.969486 Q 249.936359 20.284823 249.820906 19.895505 C 249.369834 18.367766 248.736185 16.767534 247.847466 14.359131 C 247.742752 14.079896 247.726643 13.693262 247.455462 13.392547 C 247.391024 13.322739 247.275571 13.363013 247.267516 13.456986 C 247.195022 14.238308 246.746635 14.973985 246.550633 15.513661 Q 245.59479 18.139545 243.691158 23.149668 C 243.564965 23.482602 243.500526 23.837016 243.500526 24.19143 L 243.524691 37.479264 Z M 254.063133 32.163056 Q 253.93157 32.82624 253.93157 33.465259 Q 253.853706 79.034288 253.94768 87.969812 Q 253.969159 90.187584 254.009434 92.410725 Q 254.012119 92.553028 254.073873 92.644316 Q 254.19738 92.821523 254.318203 92.746344 Q 253.923515 94.44055 253.923515 97.232902 Q 253.928885 114.183012 253.918145 146.837415 Q 253.918145 147.911397 253.94768 148.810856 C 253.95305 148.958528 254.073873 149.076666 254.221545 149.076666 L 254.933058 149.076666 Q 255.214978 149.076666 255.214978 148.794746 L 255.131744 92.797359 C 255.397555 92.805413 255.698269 92.829578 255.966765 92.770509 Q 257.93752 92.340917 260.410362 91.683103 C 260.53387 91.650883 260.619789 91.538115 260.619789 91.409238 L 260.619789 45.893908 C 260.619789 45.636153 260.56609 45.378397 260.461377 45.142121 Q 258.208701 40.080984 256.012409 34.987627 Q 255.870106 34.660063 255.625776 34.230471 Q 255.397555 33.833097 255.223033 33.478684 L 254.181271 30.664853 Q 253.94231 30.015094 253.91546 30.707812 Q 253.888611 31.38442 254.063133 32.163056 Z M 238.313196 43.418381 C 238.313196 43.353942 238.243387 43.313668 238.189688 43.345887 L 236.541127 44.296361 C 236.514277 44.312471 236.498168 44.33932 236.498168 44.368855 L 236.498168 148.990748 C 236.498168 149.036392 236.535757 149.073981 236.581401 149.073981 L 238.229963 149.073981 C 238.275607 149.073981 238.313196 149.036392 238.313196 148.990748 L 238.313196 43.418381 Z M 230.690614 49.067523 C 230.658394 49.089003 230.639599 49.121222 230.639599 49.158811 L 230.639599 148.974638 C 230.639599 149.033707 230.687929 149.082036 230.746998 149.082036 L 232.9057 149.082036 C 232.964769 149.082036 233.013098 149.033707 233.013098 148.974638 L 233.013098 47.832444 C 233.013098 47.746526 232.92181 47.695512 232.849316 47.741156 L 230.690614 49.067523 Z M 206.391785 101.254962 C 206.480389 101.265702 206.560938 101.195893 206.560938 101.104604 L 206.560938 75.70763 C 206.560938 75.589492 206.43206 75.519684 206.332717 75.581438 L 193.281158 83.620188 C 193.235514 83.647037 193.208664 83.695367 193.208664 83.746381 L 193.208664 99.388919 C 193.208664 99.464098 193.265048 99.528537 193.340227 99.536592 L 206.391785 101.254962 Z M 209.833896 77.114546 Q 209.766772 84.159864 209.747977 90.72189 C 209.747977 90.882987 209.683538 91.025289 209.686223 91.178332 Q 209.756032 99.692319 209.729183 109.11919 Q 209.686223 123.682377 209.718443 142.82878 Q 209.721128 145.422445 209.616414 148.743732 C 209.605675 149.049817 209.860745 149.296832 210.16683 149.278038 L 212.626247 149.122311 L 218.930518 149.087406 C 218.989587 149.087406 219.037916 149.039077 219.037916 148.980008 L 219.037916 86.431334 C 219.037916 86.294402 218.984217 86.165524 218.887559 86.068865 L 209.833896 77.114546 Z M 285.60328 149.090091 C 285.648924 149.090091 285.683829 149.055187 285.683829 149.009542 L 285.683829 95.460832 C 285.683829 95.436668 285.670404 95.412503 285.648924 95.396393 L 279.081528 90.708465 C 279.030514 90.670876 278.955335 90.708465 278.955335 90.772904 L 278.955335 149.009542 C 278.955335 149.055187 278.99024 149.090091 279.035884 149.090091 L 285.60328 149.090091 Z M 258.914843 101.424114 C 258.914843 101.523457 258.992707 101.604006 259.09205 101.606691 L 274.790973 102.173216 C 274.893001 102.178586 274.978919 102.095352 274.978919 101.993324 L 274.978919 91.736802 C 274.978919 91.618664 274.866151 91.530061 274.750698 91.56228 L 259.051776 95.734698 C 258.971227 95.753492 258.914843 95.825986 258.914843 95.90922 L 258.914843 101.424114 Z M 193.222089 104.425892 Q 192.991183 108.168717 193.149595 111.911542 Q 193.15765 112.134393 193.095896 112.478067 Q 192.969704 113.17347 193.47179 113.001633 L 206.493814 114.094409 C 206.593157 114.102464 206.679076 114.016545 206.668336 113.917202 C 206.391785 111.358441 206.491129 109.14604 206.531403 105.419324 Q 206.531403 105.336091 206.450854 105.328036 L 193.474475 103.896956 C 193.340227 103.883531 193.222089 103.988244 193.222089 104.125177 L 193.222089 104.425892 Z M 258.890679 118.374224 C 258.890679 118.446718 258.949748 118.505787 259.022242 118.503102 Q 261.42259 118.449403 263.761184 118.226552 Q 272.514132 117.394216 274.807082 117.203585 Q 274.949385 117.192845 274.949385 117.047857 L 274.949385 106.54432 C 274.949385 106.412757 274.825877 106.318784 274.699684 106.351003 L 258.960488 110.389173 C 258.920213 110.399913 258.890679 110.437502 258.890679 110.480462 L 258.890679 118.374224 Z M 206.552883 116.787417 C 206.555568 116.714923 206.501869 116.658539 206.43206 116.653169 L 193.316063 115.810094 C 193.240884 115.807409 193.176445 115.866478 193.176445 115.941657 L 193.176445 119.773085 C 193.176445 119.842894 193.235514 119.901963 193.305323 119.904648 L 206.381046 120.06306 C 206.453539 120.065745 206.512608 120.006676 206.515293 119.934182 L 206.552883 116.787417 Z M 258.898734 130.131635 L 258.879939 136.610428 C 258.879939 136.827909 259.054461 137.002431 259.269257 137.002431 L 274.492943 137.002431 C 274.729219 137.002431 274.917166 136.809114 274.911796 136.572838 L 274.761438 130.295417 Q 274.831247 130.314212 274.898371 130.220239 Q 274.938645 130.163855 274.938645 130.083306 Q 274.992344 125.752476 274.909111 121.204165 C 274.906426 121.072603 274.782918 120.978629 274.656725 121.008164 L 259.054461 124.67581 C 258.963173 124.69729 258.898734 124.780523 258.898734 124.874497 L 258.898734 130.131635 Z M 193.16302 122.560067 L 193.15765 128.496499 L 193.256994 129.626864 Q 193.273103 129.785276 193.431516 129.785276 L 206.284387 129.785276 C 206.515293 129.785276 206.684445 129.56511 206.625376 129.342259 Q 206.493814 128.850913 206.485759 128.378361 Q 206.43743 125.057073 206.496499 122.68089 Q 206.501869 122.468778 206.292442 122.471463 Q 199.950582 122.565437 193.533544 122.412394 Q 193.318748 122.407024 193.16302 122.560067 Z M 258.930953 140.428431 L 258.930953 149.044447 C 258.930953 149.103516 258.979282 149.151845 259.038351 149.151845 L 274.780233 149.151845 C 274.868836 149.151845 274.94133 149.079351 274.94133 148.990748 L 274.94133 139.273902 Q 274.94133 139.06716 274.737274 139.069845 Q 272.557092 139.07253 269.665397 139.34371 Q 263.524908 139.91829 259.073256 140.278074 Q 258.930953 140.288814 258.930953 140.428431 Z M 206.438718 140.512712 C 206.43743 140.474076 206.407895 140.441856 206.368668 140.443172 L 193.255436 140.488923 C 193.216719 140.490185 193.1845 140.51972 193.185869 140.558974 L 193.21543 149.02729 C 193.216719 149.065926 193.246254 149.098146 193.285481 149.09683 L 206.398713 149.051079 C 206.43743 149.049817 206.469649 149.020282 206.46828 148.981028 L 206.438718 140.512712 Z" style="fill:#323a40;"/>
		<path d="M 210.258118 72.002395 Q 209.933239 71.868147 209.774827 71.513733 Q 210.070172 71.693625 210.258118 72.002395 Z" style="fill:#565959;"/>
		<path d="M 211.329415 73.065636 Q 210.980371 72.926019 210.840753 72.58503 Q 211.149523 72.762236 211.329415 73.065636 Z" style="fill:#565959;"/>
		<path d="M 212.338957 74.056384 Q 212.134901 74.02685 212.129531 73.844273 Q 212.287943 73.924821 212.338957 74.056384 Z" style="fill:#565959;"/>
		<path d="M 213.681434 75.455245 Q 213.131018 75.092776 212.781975 74.545046 Q 213.324335 74.902144 213.681434 75.455245 Z" style="fill:#565959;"/>
		<path d="M 214.548674 76.30369 Q 214.205 76.185552 214.057327 75.820398 Q 214.371467 76.00029 214.548674 76.30369 Z" style="fill:#565959;"/>
		<path d="M 215.695149 77.43674 Q 215.238707 77.17093 214.932622 76.703748 Q 215.397119 76.993723 215.695149 77.43674 Z" style="fill:#565959;"/>
		<path d="M 215.885781 77.630057 Q 215.708574 77.592468 215.695149 77.43674 Q 215.810602 77.506549 215.885781 77.630057 Z" style="fill:#565959;"/>
		<path d="M 216.417401 78.169733 Q 216.178441 78.05965 216.079097 77.828744 Q 216.347593 77.933457 216.417401 78.169733 Z" style="fill:#565959;"/>
		<path d="M 216.634883 78.357679 Q 216.465731 78.3362 216.417401 78.169733 Q 216.581184 78.196582 216.634883 78.357679 Z" style="fill:#565959;"/>
		<path d="M 216.957077 78.709408 Q 216.755706 78.636914 216.680527 78.427488 Q 216.887268 78.502667 216.957077 78.709408 Z" style="fill:#565959;"/>
		<path d="M 217.169188 78.90004 Q 217.002721 78.875875 216.957077 78.709408 Q 217.107434 78.749683 217.169188 78.90004 Z" style="fill:#565959;"/>
		<path d="M 217.700809 79.445085 Q 217.383985 79.283988 217.212148 78.961794 Q 217.558507 79.125576 217.700809 79.445085 Z" style="fill:#86b6af;"/>
		<path d="M 217.974674 79.705526 Q 217.759878 79.651827 217.700809 79.445085 Q 217.888756 79.4961 217.974674 79.705526 Z" style="fill:#565959;"/>
		<path d="M 218.245855 79.971336 Q 218.076703 79.947172 218.023004 79.77265 Q 218.181416 79.823664 218.245855 79.971336 Z" style="fill:#565959;"/>
		<path d="M 219.048656 80.779507 Q 218.578789 80.494902 218.286129 80.02772 Q 218.761366 80.317695 219.048656 80.779507 Z" style="fill:#86b6af;"/>
		<path d="M 219.314466 81.034578 Q 219.08893 80.996988 219.048656 80.779507 Q 219.239287 80.857371 219.314466 81.034578 Z" style="fill:#565959;"/>
		<path d="M 220.640833 82.339465 L 219.314466 81.034578 L 220.640833 82.339465 Z" style="fill:#565959;"/>
		<path d="M 220.775081 82.390479 Q 220.871739 82.476398 220.936178 82.583796 Q 220.842205 82.63481 220.742861 82.503247 Q 220.651573 82.385109 220.775081 82.390479 Z" style="fill:#565959;"/>
		<path d="M 222.705562 84.420304 Q 222.458546 84.388085 222.461231 84.202823 Q 222.54178 84.312906 222.705562 84.420304 Z" style="fill:#565959;"/>
		<path d="M 250.274663 30.109067 Q 249.780632 31.553572 249.673234 32.890679 Q 249.453068 35.589057 249.453068 39.176155 Q 249.445013 93.678023 249.348355 148.179892 Q 249.348355 148.625594 249.418163 148.853815 Q 249.504082 149.13842 249.837016 149.076666 Q 249.89877 149.12768 249.968579 149.141105 Q 250.014223 149.151845 250.038388 149.1599 C 250.041073 149.1599 250.041073 149.162585 250.041073 149.162585 C 250.041073 149.16527 250.041073 149.16527 250.038388 149.16527 L 241.223686 149.16527 C 241.148507 149.16527 241.089438 149.106201 241.089438 149.033707 Q 241.094808 95.858205 241.070643 42.661224 C 241.070643 41.981931 241.065273 41.560393 241.430427 40.958964 Q 242.560792 39.090236 243.524691 37.479264 Q 244.800044 35.830703 245.130293 35.250753 Q 247.501107 31.099815 249.987373 27.016001 Q 250.065237 26.887123 250.145786 26.427996 Q 250.21291 26.347447 250.17532 26.226625 L 250.223649 25.665469 L 250.274663 30.109067 Z" style="fill:#86b6af;"/>
		<path d="M 250.17532 26.226625 Q 250.21291 26.347447 250.145786 26.427996 Q 250.135046 26.312543 250.17532 26.226625 Z" style="fill:#323a40;"/>
		<path fill-opacity="0.941" d="M 254.063133 32.163056 L 255.223033 33.478684 Q 255.397555 33.833097 255.625776 34.230471 Q 255.870106 34.660063 256.012409 34.987627 Q 258.208701 40.080984 260.461377 45.142121 C 260.56609 45.378397 260.619789 45.636153 260.619789 45.893908 L 260.619789 91.409238 C 260.619789 91.538115 260.53387 91.650883 260.410362 91.683103 Q 257.93752 92.340917 255.966765 92.770509 C 255.698269 92.829578 255.397555 92.805413 255.131744 92.797359 Q 254.900838 92.604042 254.318203 92.746344 Q 254.19738 92.821523 254.073873 92.644316 Q 254.012119 92.553028 254.009434 92.410725 Q 253.969159 90.187584 253.94768 87.969812 Q 253.853706 79.034288 253.93157 33.465259 Q 253.93157 32.82624 254.063133 32.163056 Z M 258.721527 62.658757 C 258.721527 62.656072 258.718842 62.653387 258.716157 62.653387 C 258.713472 62.653387 258.710787 62.656072 258.710787 62.658757 C 258.710787 62.661442 258.713472 62.664127 258.716157 62.664127 C 258.718842 62.664127 258.721527 62.661442 258.721527 62.658757 Z M 258.694409 65.361028 C 258.708102 65.36519 258.734952 65.311491 258.752887 65.243078 C 258.769856 65.174558 258.772541 65.115489 258.759385 65.111596 C 258.745691 65.107434 258.718842 65.161133 258.700906 65.229546 C 258.683937 65.298066 258.681252 65.357135 258.694409 65.361028 Z M 258.453031 66.146511 C 258.453031 66.143826 258.450347 66.141141 258.447662 66.141141 C 258.444977 66.141141 258.442292 66.143826 258.442292 66.146511 C 258.442292 66.149196 258.444977 66.151881 258.447662 66.151881 C 258.450347 66.151881 258.453031 66.149196 258.453031 66.146511 Z M 259.792823 78.913465 L 259.459889 78.338885 C 259.314901 78.083814 258.965858 78.03817 258.759116 78.247596 Q 258.141577 78.87319 258.232865 79.939117 Q 258.402017 81.904503 258.189906 84.259207 Q 258.077138 85.51845 258.329524 86.635391 Q 258.764486 88.568557 259.054461 91.078988 Q 259.073256 91.237401 259.212873 91.159537 Q 259.508218 90.9877 259.462574 90.614491 Q 259.446464 90.477559 259.478684 90.343311 Q 259.658576 89.578099 259.537753 89.24785 Q 259.215558 88.361816 258.863829 87.481151 Q 258.600704 86.826022 258.600704 85.029788 Q 258.600704 84.004136 258.890679 82.317986 Q 258.968543 81.853489 258.52284 79.18733 Q 258.504046 79.066507 258.573854 78.967164 L 259.049091 78.29861 C 259.105475 78.223432 259.223613 78.239541 259.253148 78.328145 C 259.505533 79.028918 259.669315 79.75117 259.620986 80.505642 C 259.548492 81.619898 259.39008 82.798592 259.69348 84.192083 C 259.69348 84.194768 259.696165 84.197453 259.69885 84.197453 C 259.701535 84.197453 259.70422 84.194768 259.70422 84.192083 Q 260.101593 79.418236 259.841152 74.520881 Q 259.838467 74.510141 259.838467 74.512826 Q 259.827728 74.512826 259.816988 74.515511 Q 259.792823 74.515511 259.792823 74.545046 L 259.838467 78.90004 Q 259.838467 78.996698 259.792823 78.913465 Z M 259.089876 79.990292 C 259.137695 79.979391 259.156489 79.880048 259.130096 79.768971 C 259.105475 79.657197 259.046406 79.576648 258.997567 79.587227 C 258.949748 79.598128 258.930953 79.697471 258.957346 79.808548 C 258.981967 79.920322 259.041036 80.000871 259.089876 79.990292 Z M 259.540438 85.53456 Q 259.596822 85.878234 259.642466 85.531875 L 259.755234 84.65658 Q 259.763289 84.608251 259.71496 84.600196 L 259.564602 84.581401 Q 259.508218 84.573346 259.505533 84.632415 Q 259.470629 85.115707 259.540438 85.53456 Z M 259.180654 86.783063 C 259.180654 86.753529 259.156489 86.729364 259.126955 86.729364 C 259.09742 86.729364 259.073256 86.753529 259.073256 86.783063 C 259.073256 86.812598 259.09742 86.836762 259.126955 86.836762 C 259.156489 86.836762 259.180654 86.812598 259.180654 86.783063 Z" style="fill:#fdfdfd;"/>
		<path d="M 209.833896 77.114546 L 209.914444 149.017597 C 209.914444 149.057872 209.949349 149.090091 209.989623 149.090091 L 212.626247 149.122311 L 210.16683 149.278038 C 209.860745 149.296832 209.605675 149.049817 209.616414 148.743732 Q 209.721128 145.422445 209.718443 142.82878 Q 209.686223 123.682377 209.729183 109.11919 Q 209.756032 99.692319 209.686223 91.178332 C 209.683538 91.025289 209.747977 90.882987 209.747977 90.72189 Q 209.766772 84.159864 209.833896 77.114546 Z" style="fill:#565959;"/>
		<path d="M 258.914843 101.424114 L 258.914843 95.90922 C 258.914843 95.825986 258.971227 95.753492 259.051776 95.734698 L 274.750698 91.56228 C 274.866151 91.530061 274.978919 91.618664 274.978919 91.736802 L 274.978919 101.993324 C 274.978919 102.095352 274.893001 102.178586 274.790973 102.173216 L 259.09205 101.606691 C 258.992707 101.604006 258.914843 101.523457 258.914843 101.424114 Z" style="fill:#f6d894;"/>
		<path d="M 193.47179 113.001633 Q 192.969704 113.17347 193.095896 112.478067 Q 193.15765 112.134393 193.149595 111.911542 Q 192.991183 108.168717 193.222089 104.425892 Q 193.240884 108.415732 193.197925 112.402888 Q 193.192555 112.797576 193.47179 113.001633 Z" style="fill:#565959;"/>
		<path d="M 258.890679 118.374224 L 258.890679 110.480462 C 258.890679 110.437502 258.920213 110.399913 258.960488 110.389173 L 274.699684 106.351003 C 274.825877 106.318784 274.949385 106.412757 274.949385 106.54432 L 274.949385 117.047857 Q 274.949385 117.192845 274.807082 117.203585 Q 272.514132 117.394216 263.761184 118.226552 Q 261.42259 118.449403 259.022242 118.503102 C 258.949748 118.505787 258.890679 118.446718 258.890679 118.374224 Z" style="fill:#f6d894;"/>
		<path d="M 274.761438 130.295417 L 258.898734 130.131635 L 258.898734 124.874497 C 258.898734 124.780523 258.963173 124.69729 259.054461 124.67581 L 274.656725 121.008164 C 274.782918 120.978629 274.906426 121.072603 274.909111 121.204165 Q 274.992344 125.752476 274.938645 130.083306 Q 274.938645 130.163855 274.898371 130.220239 Q 274.831247 130.314212 274.761438 130.295417 Z" style="fill:#f6d894;"/>
		<path d="M 193.16302 122.560067 L 193.15765 128.496499 L 193.16302 122.560067 Z" style="fill:#565959;"/>
		<path d="M 274.761438 130.295417 L 274.911796 136.572838 C 274.917166 136.809114 274.729219 137.002431 274.492943 137.002431 L 259.269257 137.002431 C 259.054461 137.002431 258.879939 136.827909 258.879939 136.610428 L 258.898734 130.131635 L 274.761438 130.295417 Z" style="fill:#565959;"/>
		<path d="M 258.930953 149.044447 L 258.930953 140.428431 Q 258.930953 140.288814 259.073256 140.278074 Q 263.524908 139.91829 269.665397 139.34371 Q 272.557092 139.07253 274.737274 139.069845 Q 274.94133 139.06716 274.94133 139.273902 L 274.94133 148.990748 C 274.94133 149.079351 274.868836 149.151845 274.780233 149.151845 L 259.038351 149.151845 C 258.979282 149.151845 258.930953 149.103516 258.930953 149.044447 Z" style="fill:#f6d894;"/>
		<path d="M 258.721527 62.658757 C 258.721527 62.661442 258.718842 62.664127 258.716157 62.664127 C 258.713472 62.664127 258.710787 62.661442 258.710787 62.658757 C 258.710787 62.656072 258.713472 62.653387 258.716157 62.653387 C 258.718842 62.653387 258.721527 62.656072 258.721527 62.658757 Z" style="fill:#86b6af;"/>
		<path d="M 258.694409 65.361028 C 258.681252 65.357135 258.683937 65.298066 258.700906 65.229546 C 258.718842 65.161133 258.745691 65.107434 258.759385 65.111596 C 258.772541 65.115489 258.769856 65.174558 258.752887 65.243078 C 258.734952 65.311491 258.708102 65.36519 258.694409 65.361028 Z" style="fill:#86b6af;"/>
		<path d="M 258.453031 66.146511 C 258.453031 66.149196 258.450347 66.151881 258.447662 66.151881 C 258.444977 66.151881 258.442292 66.149196 258.442292 66.146511 C 258.442292 66.143826 258.444977 66.141141 258.447662 66.141141 C 258.450347 66.141141 258.453031 66.143826 258.453031 66.146511 Z" style="fill:#86b6af;"/>
		<path d="M 259.838467 78.90004 L 259.792823 74.545046 Q 259.792823 74.515511 259.816988 74.515511 Q 259.827728 74.512826 259.838467 74.512826 Q 259.838467 74.510141 259.841152 74.520881 Q 260.101593 79.418236 259.70422 84.192083 C 259.70422 84.194768 259.701535 84.197453 259.69885 84.197453 C 259.696165 84.197453 259.69348 84.194768 259.69348 84.192083 C 259.39008 82.798592 259.548492 81.619898 259.620986 80.505642 C 259.669315 79.75117 259.505533 79.028918 259.253148 78.328145 C 259.223613 78.239541 259.105475 78.223432 259.049091 78.29861 L 258.573854 78.967164 Q 258.504046 79.066507 258.52284 79.18733 Q 258.968543 81.853489 258.890679 82.317986 Q 258.600704 84.004136 258.600704 85.029788 Q 258.600704 86.826022 258.863829 87.481151 Q 259.215558 88.361816 259.537753 89.24785 Q 259.658576 89.578099 259.478684 90.343311 Q 259.446464 90.477559 259.462574 90.614491 Q 259.508218 90.9877 259.212873 91.159537 Q 259.073256 91.237401 259.054461 91.078988 Q 258.764486 88.568557 258.329524 86.635391 Q 258.077138 85.51845 258.189906 84.259207 Q 258.402017 81.904503 258.232865 79.939117 Q 258.141577 78.87319 258.759116 78.247596 C 258.965858 78.03817 259.314901 78.083814 259.459889 78.338885 L 259.792823 78.913465 Q 259.838467 78.996698 259.838467 78.90004 Z" style="fill:#86b6af;"/>
		<path d="M 259.089876 79.990292 C 259.041036 80.000871 258.981967 79.920322 258.957346 79.808548 C 258.930953 79.697471 258.949748 79.598128 258.997567 79.587227 C 259.046406 79.576648 259.105475 79.657197 259.130096 79.768971 C 259.156489 79.880048 259.137695 79.979391 259.089876 79.990292 Z" style="fill:#86b6af;"/>
		<path d="M 259.540438 85.53456 Q 259.470629 85.115707 259.505533 84.632415 Q 259.508218 84.573346 259.564602 84.581401 L 259.71496 84.600196 Q 259.763289 84.608251 259.755234 84.65658 L 259.642466 85.531875 Q 259.596822 85.878234 259.540438 85.53456 Z" style="fill:#86b6af;"/>
		<path d="M 259.180654 86.783063 C 259.180654 86.812598 259.156489 86.836762 259.126955 86.836762 C 259.09742 86.836762 259.073256 86.812598 259.073256 86.783063 C 259.073256 86.753529 259.09742 86.729364 259.126955 86.729364 C 259.156489 86.729364 259.180654 86.753529 259.180654 86.783063 Z" style="fill:#86b6af;"/>
	</g>
	<g id="surface4">
	</g>
</svg>
