<?xml version="1.0" encoding="utf-8"?>
<svg xmlns="http://www.w3.org/2000/svg" width="490pt" height="280pt" viewBox="0 0 490 280" version="1.1" xmlns:xlink="http://www.w3.org/1999/xlink">
	<g id="surface2">
		<path vector-effect="non-scaling-stroke" d="M 268.531164 119.328476 Q 268.387969 118.835973 268.455227 118.768714 Q 276.100967 111.164197 279.967229 101.209982 C 281.247305 97.912161 282.12817 94.249843 281.746317 90.763264 Q 281.709434 90.426973 281.642175 90.756755 C 281.431722 91.767798 281.282019 92.529334 280.967424 93.414539 C 279.170979 98.4307 275.74081 102.13424 271.585988 105.238966 Q 266.947341 108.703849 263.219935 112.656896 Q 261.098047 114.906791 260.032764 117.497317 Q 260.024085 117.519013 258.947954 120.209342 Q 258.492334 121.350562 258.418567 121.452534 Q 257.973795 122.077384 257.040858 122.020974" style="fill:none;stroke-width:0.50;stroke:#e47942;"/>
		<path vector-effect="non-scaling-stroke" d="M 257.040858 122.020974 Q 258.941445 117.848796 259.407913 113.65926 Q 259.878721 109.432841 259.629214 105.243305 C 259.54243 103.783151 259.486019 102.472701 259.360182 101.344499 Q 257.516005 84.848881 256.62863 79.049487 Q 255.539481 71.939644 253.94698 63.948934 C 253.053097 59.46867 251.694915 54.003398 249.55567 49.360412 Q 249.399458 49.024121 249.477564 49.386447 Q 251.89669 60.653282 247.939304 71.609861 C 244.940889 79.908657 240.438929 87.469781 235.585489 95.412759 C 233.088257 99.495983 230.821005 103.702875 230.243886 108.482548 Q 229.53442 114.368726 233.010151 119.261218 Q 234.49634 121.352731 236.670299 123.179551" style="fill:none;stroke-width:0.50;stroke:#e6814c;"/>
		<path vector-effect="non-scaling-stroke" d="M 230.573668 122.220579 Q 229.632053 121.593559 229.4216 121.380936 Q 226.79419 118.699287 225.969735 115.334206 Q 225.71155 114.28628 225.780978 112.641708" style="fill:none;stroke-width:0.50;stroke:#e47942;"/>
		<path vector-effect="non-scaling-stroke" d="M 225.780978 112.641708 C 226.173679 110.942896 226.416677 109.15079 226.96776 107.536593 Q 227.319238 106.506024 227.692413 105.484133 Q 227.835608 105.091432 228.727322 102.694002 Q 229.423769 100.82596 229.593 99.858309 Q 229.968344 97.708216 229.519233 95.421437 Q 229.441126 95.020058 229.310949 95.408419 C 228.328112 98.320049 226.811547 101.151403 225.624765 103.705045 Q 225.253761 104.505635 225.149619 105.427723 Q 225.14094 105.505829 225.075852 105.544883 Q 225.036799 105.568748 225.006424 105.566579" style="fill:none;stroke-width:0.50;stroke:#dc562f;"/>
		<path vector-effect="non-scaling-stroke" d="M 225.006424 105.566579 Q 222.69144 102.264418 219.803676 99.428725 C 216.957135 96.634255 214.598758 94.445108 213.10389 91.103894 Q 211.242357 86.938224 210.589301 82.034884 Q 210.422241 80.789522 210.452615 79.769801 Q 210.469972 79.142781 210.25518 79.730748 C 209.923228 80.639818 209.636838 81.31457 209.424215 82.1694 C 208.660509 85.271956 208.395816 88.893052 208.59976 91.969572 C 208.892659 96.37607 210.348473 100.157717 212.70468 103.891632 C 214.347082 106.495176 215.835442 108.330674 217.72518 110.834415 C 218.959694 112.474648 220.072709 114.236379 220.912352 116.008958 Q 222.12083 118.556092 223.25771 120.380742" style="fill:none;stroke-width:0.50;stroke:#e47942;"/>
		<path vector-effect="non-scaling-stroke" d="M 257.040858 122.020974 Q 255.992932 122.151151 255.012264 122.355096 Q 254.513251 122.459237 254.168282 122.476594 Q 253.604181 122.504799 253.3243 122.591584 C 252.792743 122.754306 252.206946 122.611111 251.697085 122.791189 C 251.241465 122.951741 250.883478 122.884483 250.393143 122.934384 Q 250.278154 122.945232 250.236931 123.053713 Q 250.213065 123.120971 250.226083 123.192569" style="fill:none;stroke-width:0.50;stroke:#f7c46a;"/>
		<path vector-effect="non-scaling-stroke" d="M 225.006424 105.566579 Q 225.054156 105.915887 225.043307 106.007012 Q 224.652776 109.469724 225.780978 112.641708" style="fill:none;stroke-width:0.50;stroke:#ee994d;"/>
		<path vector-effect="non-scaling-stroke" d="M 246.030038 88.498181 Q 247.062777 94.032881 245.602623 99.387502 C 243.899472 105.633837 237.867929 111.6068 242.150758 118.430254 Q 243.541485 120.647605 245.704595 122.350756 C 246.557256 123.021169 247.27757 122.971268 248.106364 122.326891 C 249.937523 120.907959 251.354285 119.382717 251.820753 117.113295 Q 252.460791 114.015078 250.189199 111.867154 C 249.505769 111.222777 248.420959 110.378795 247.783091 109.612919 Q 245.713274 107.133044 246.548577 103.73325 Q 246.726486 103.006428 247.10617 101.426944 C 247.702815 98.94056 247.796109 96.573505 247.440291 94.028541 Q 247.041081 91.166813 246.184081 88.528556 C 246.175403 88.50252 246.153707 88.485163 246.127671 88.482994 L 246.051735 88.476485 Q 246.025699 88.474315 246.030038 88.498181" style="fill:none;stroke-width:0.50;stroke:#e6814c;"/>
		<path d="M 268.531164 119.328476 Q 268.387969 118.835973 268.455227 118.768714 Q 276.100967 111.164197 279.967229 101.209982 C 281.247305 97.912161 282.12817 94.249843 281.746317 90.763264 Q 281.709434 90.426973 281.642175 90.756755 C 281.431722 91.767798 281.282019 92.529334 280.967424 93.414539 C 279.170979 98.4307 275.74081 102.13424 271.585988 105.238966 Q 266.947341 108.703849 263.219935 112.656896 Q 261.098047 114.906791 260.032764 117.497317 Q 260.024085 117.519013 258.947954 120.209342 Q 258.492334 121.350562 258.418567 121.452534 Q 257.973795 122.077384 257.040858 122.020974 Q 258.941445 117.848796 259.407913 113.65926 Q 259.878721 109.432841 259.629214 105.243305 C 259.54243 103.783151 259.486019 102.472701 259.360182 101.344499 Q 257.516005 84.848881 256.62863 79.049487 Q 255.539481 71.939644 253.94698 63.948934 C 253.053097 59.46867 251.694915 54.003398 249.55567 49.360412 Q 249.399458 49.024121 249.477564 49.386447 Q 251.89669 60.653282 247.939304 71.609861 C 244.940889 79.908657 240.438929 87.469781 235.585489 95.412759 C 233.088257 99.495983 230.821005 103.702875 230.243886 108.482548 Q 229.53442 114.368726 233.010151 119.261218 Q 234.49634 121.352731 236.670299 123.179551 L 230.573668 122.220579 Q 229.632053 121.593559 229.4216 121.380936 Q 226.79419 118.699287 225.969735 115.334206 Q 225.71155 114.28628 225.780978 112.641708 C 226.173679 110.942896 226.416677 109.15079 226.96776 107.536593 Q 227.319238 106.506024 227.692413 105.484133 Q 227.835608 105.091432 228.727322 102.694002 Q 229.423769 100.82596 229.593 99.858309 Q 229.968344 97.708216 229.519233 95.421437 Q 229.441126 95.020058 229.310949 95.408419 C 228.328112 98.320049 226.811547 101.151403 225.624765 103.705045 Q 225.253761 104.505635 225.149619 105.427723 Q 225.14094 105.505829 225.075852 105.544883 Q 225.036799 105.568748 225.006424 105.566579 Q 222.69144 102.264418 219.803676 99.428725 C 216.957135 96.634255 214.598758 94.445108 213.10389 91.103894 Q 211.242357 86.938224 210.589301 82.034884 Q 210.422241 80.789522 210.452615 79.769801 Q 210.469972 79.142781 210.25518 79.730748 C 209.923228 80.639818 209.636838 81.31457 209.424215 82.1694 C 208.660509 85.271956 208.395816 88.893052 208.59976 91.969572 C 208.892659 96.37607 210.348473 100.157717 212.70468 103.891632 C 214.347082 106.495176 215.835442 108.330674 217.72518 110.834415 C 218.959694 112.474648 220.072709 114.236379 220.912352 116.008958 Q 222.12083 118.556092 223.25771 120.380742 Q 221.298544 119.612696 219.289476 118.935775 Q 218.543127 118.684099 215.800728 117.434398 Q 210.630524 115.076022 206.100358 111.472283 C 199.41793 106.156715 194.85305 98.675867 192.885205 90.416125 C 191.707101 85.467222 191.726628 80.084396 192.813607 75.289536 C 194.16962 69.303556 196.749297 63.623491 199.502545 58.379521 Q 202.937053 51.829439 205.186948 45.476793 Q 206.224026 42.549976 206.647102 39.722961 Q 206.731717 39.152351 206.501738 37.019615 Q 206.497399 36.980562 206.536452 36.974053 L 206.623237 36.958866 Q 206.686155 36.948018 206.701343 37.008767 Q 207.363077 39.375822 207.391282 41.790609 Q 207.395621 42.29613 207.692859 43.832221 C 207.987927 45.359633 208.667018 47.077972 209.033684 48.416627 Q 209.847291 51.380328 208.565046 54.157441 C 207.473727 56.520157 205.981029 58.568278 204.479652 60.753085 Q 203.531528 62.132963 202.518316 64.324279 Q 201.210035 67.155632 200.251064 70.666077 Q 199.578481 73.132934 199.400573 74.916362 Q 198.951461 79.424831 200.012405 83.989711 Q 200.799977 87.378657 202.186364 91.535648 C 202.466245 92.377461 202.813384 93.149845 203.045534 93.86365 Q 203.707268 95.898754 203.29504 93.798562 C 203.041194 92.514147 202.507468 90.761094 202.407666 89.238021 C 202.058357 83.88123 202.811215 78.489725 204.66624 73.438851 C 206.677477 67.960561 209.617312 62.924874 212.93683 58.034551 C 216.141358 53.317798 218.564823 49.792166 221.031681 45.413874 C 222.580789 42.664966 223.682956 39.998503 224.808988 36.787466 Q 226.421016 32.185703 226.889654 28.874863 C 227.30839 25.908993 227.521013 24.698345 227.625155 22.817285 Q 227.640342 22.548252 227.71194 22.470146 Q 227.913714 22.251014 227.963615 22.548252 Q 228.234818 24.106039 228.894382 27.727134 Q 229.386886 30.436989 229.538759 32.009963 Q 230.150592 38.330065 228.872686 44.851942 C 227.852965 50.048181 226.108591 55.441856 224.895773 60.123895 C 223.639563 64.959977 223.400905 70.232153 226.067368 74.530169 Q 226.831074 75.760344 227.523183 76.096635 C 229.380377 76.999197 230.632248 74.282833 230.949012 72.794474 Q 231.602068 69.724462 233.845454 58.872024 Q 235.095155 52.823125 235.628882 49.379938 Q 236.546631 43.43952 236.620398 41.703824 C 236.689826 40.124341 236.852547 38.366949 236.878583 36.958866 Q 237.097714 25.143117 232.04467 14.483776 Q 231.005422 12.29463 230.018245 10.739012 C 228.683929 8.64316 227.199909 6.538629 225.431669 4.776897 Q 224.696168 4.045736 225.579203 4.53607 C 226.008788 4.774728 226.425355 5.16092 226.941725 5.462497 Q 232.940723 8.977281 235.23835 10.092466 Q 241.842672 13.301333 244.48093 14.754978 C 250.362769 17.99856 255.843228 21.8735 260.158602 26.852777 Q 262.853269 29.959673 264.580286 33.765186 C 267.491916 40.178581 268.61144 47.08665 267.491916 54.033773 C 266.962529 57.327255 265.754051 61.195687 265.18561 64.330787 Q 264.460957 68.348923 264.33295 72.323666 C 264.124666 78.808659 265.832157 86.16367 270.998021 90.578846 C 273.996436 93.143337 274.527993 88.830133 274.593081 87.025009 Q 274.790517 81.559737 273.467049 76.022868 Q 273.23056 75.031352 272.456006 71.533925 C 271.442793 66.960367 271.056601 62.393317 271.225831 57.683073 C 271.40591 52.6821 272.557978 47.592172 274.367441 43.048988 Q 275.499982 40.204617 276.801754 37.512119 Q 278.847705 33.28353 282.841975 28.942121 Q 282.887537 28.89222 282.946117 28.922595 Q 282.998188 28.94863 282.983 28.979005 Q 282.787735 29.40425 282.525211 29.788273 Q 282.147697 30.339356 280.793854 32.474262 Q 280.084389 33.593786 279.21871 35.249206 Q 277.487354 38.562215 276.131342 41.016055 Q 275.484795 42.189819 274.725428 44.329064 C 272.345355 51.033189 276.957967 58.045399 280.611606 63.313236 C 283.178266 67.014607 286.482597 71.299606 289.240183 75.61281 C 292.559702 80.809049 294.477645 86.755976 294.137015 92.935053 C 293.690073 101.040752 288.413558 107.801287 281.854798 112.311926 Q 276.758362 115.815862 272.037269 117.735975 Q 269.605126 118.723152 268.531164 119.328476 Z" style="fill:#d23624;"/>
		<path d="M 297.962055 75.775531 Q 296.564819 73.538653 295.286913 72.150097 C 292.759307 69.401189 290.318484 67.005929 289.381209 63.417378 Q 289.127363 62.438879 289.136042 60.503578 Q 289.151229 57.826268 289.190282 57.563744 Q 289.504877 55.498266 289.784758 53.907935 Q 290.22736 51.391176 291.277456 48.924318 C 291.299153 48.874417 291.349054 48.846212 291.401125 48.850551 L 291.487909 48.85923 C 291.570355 48.867908 291.624595 48.946014 291.602899 49.02629 Q 291.19935 50.482105 290.899943 51.436738 C 289.906257 54.597874 291.056155 57.763349 292.611772 60.473204 C 294.685929 64.083451 296.44549 66.99508 297.154956 70.509864 Q 297.519452 72.321497 298.129115 75.534703 Q 298.155151 75.671389 298.105249 75.769022 C 298.077044 75.827602 297.996768 75.829772 297.962055 75.775531 Z" style="fill:#d23624;"/>
		<path d="M 257.040858 122.020974 Q 255.992932 122.151151 255.012264 122.355096 Q 254.513251 122.459237 254.168282 122.476594 Q 253.604181 122.504799 253.3243 122.591584 C 252.792743 122.754306 252.206946 122.611111 251.697085 122.791189 C 251.241465 122.951741 250.883478 122.884483 250.393143 122.934384 Q 250.278154 122.945232 250.236931 123.053713 Q 250.213065 123.120971 250.226083 123.192569 C 248.906954 123.251149 247.537924 123.461602 246.309919 123.481128 Q 241.356678 123.567913 236.670299 123.179551 Q 234.49634 121.352731 233.010151 119.261218 Q 229.53442 114.368726 230.243886 108.482548 C 230.821005 103.702875 233.088257 99.495983 235.585489 95.412759 C 240.438929 87.469781 244.940889 79.908657 247.939304 71.609861 Q 251.89669 60.653282 249.477564 49.386447 Q 249.399458 49.024121 249.55567 49.360412 C 251.694915 54.003398 253.053097 59.46867 253.94698 63.948934 Q 255.539481 71.939644 256.62863 79.049487 Q 257.516005 84.848881 259.360182 101.344499 C 259.486019 102.472701 259.54243 103.783151 259.629214 105.243305 Q 259.878721 109.432841 259.407913 113.65926 Q 258.941445 117.848796 257.040858 122.020974 Z M 246.030038 88.498181 Q 247.062777 94.032881 245.602623 99.387502 C 243.899472 105.633837 237.867929 111.6068 242.150758 118.430254 Q 243.541485 120.647605 245.704595 122.350756 C 246.557256 123.021169 247.27757 122.971268 248.106364 122.326891 C 249.937523 120.907959 251.354285 119.382717 251.820753 117.113295 Q 252.460791 114.015078 250.189199 111.867154 C 249.505769 111.222777 248.420959 110.378795 247.783091 109.612919 Q 245.713274 107.133044 246.548577 103.73325 Q 246.726486 103.006428 247.10617 101.426944 C 247.702815 98.94056 247.796109 96.573505 247.440291 94.028541 Q 247.041081 91.166813 246.184081 88.528556 C 246.175403 88.50252 246.153707 88.485163 246.127671 88.482994 L 246.051735 88.476485 Q 246.025699 88.474315 246.030038 88.498181 Z" style="fill:#f9cc74;"/>
		<path d="M 225.006424 105.566579 Q 225.054156 105.915887 225.043307 106.007012 Q 224.652776 109.469724 225.780978 112.641708 Q 225.71155 114.28628 225.969735 115.334206 Q 226.79419 118.699287 229.4216 121.380936 Q 229.632053 121.593559 230.573668 122.220579 L 223.25771 120.380742 Q 222.12083 118.556092 220.912352 116.008958 C 220.072709 114.236379 218.959694 112.474648 217.72518 110.834415 C 215.835442 108.330674 214.347082 106.495176 212.70468 103.891632 C 210.348473 100.157717 208.892659 96.37607 208.59976 91.969572 C 208.395816 88.893052 208.660509 85.271956 209.424215 82.1694 C 209.636838 81.31457 209.923228 80.639818 210.25518 79.730748 Q 210.469972 79.142781 210.452615 79.769801 Q 210.422241 80.789522 210.589301 82.034884 Q 211.242357 86.938224 213.10389 91.103894 C 214.598758 94.445108 216.957135 96.634255 219.803676 99.428725 Q 222.69144 102.264418 225.006424 105.566579 Z" style="fill:#f5bc60;"/>
		<path d="M 268.531164 119.328476 Q 264.280879 120.825514 259.694303 121.845235 C 259.14322 121.968903 258.327443 122.051349 257.648352 122.205392 Q 257.147169 122.320382 256.834744 122.363774 Q 253.536922 122.825903 250.226083 123.192569 Q 250.213065 123.120971 250.236931 123.053713 Q 250.278154 122.945232 250.393143 122.934384 C 250.883478 122.884483 251.241465 122.951741 251.697085 122.791189 C 252.206946 122.611111 252.792743 122.754306 253.3243 122.591584 Q 253.604181 122.504799 254.168282 122.476594 Q 254.513251 122.459237 255.012264 122.355096 Q 255.992932 122.151151 257.040858 122.020974 Q 257.973795 122.077384 258.418567 121.452534 Q 258.492334 121.350562 258.947954 120.209342 Q 260.024085 117.519013 260.032764 117.497317 Q 261.098047 114.906791 263.219935 112.656896 Q 266.947341 108.703849 271.585988 105.238966 C 275.74081 102.13424 279.170979 98.4307 280.967424 93.414539 C 281.282019 92.529334 281.431722 91.767798 281.642175 90.756755 Q 281.709434 90.426973 281.746317 90.763264 C 282.12817 94.249843 281.247305 97.912161 279.967229 101.209982 Q 276.100967 111.164197 268.455227 118.768714 Q 268.387969 118.835973 268.531164 119.328476 Z" style="fill:#f5bc60;"/>
		<path d="M 225.780978 112.641708 Q 224.652776 109.469724 225.043307 106.007012 Q 225.054156 105.915887 225.006424 105.566579 Q 225.036799 105.568748 225.075852 105.544883 Q 225.14094 105.505829 225.149619 105.427723 Q 225.253761 104.505635 225.624765 103.705045 C 226.811547 101.151403 228.328112 98.320049 229.310949 95.408419 Q 229.441126 95.020058 229.519233 95.421437 Q 229.968344 97.708216 229.593 99.858309 Q 229.423769 100.82596 228.727322 102.694002 Q 227.835608 105.091432 227.692413 105.484133 Q 227.319238 106.506024 226.96776 107.536593 C 226.416677 109.15079 226.173679 110.942896 225.780978 112.641708 Z" style="fill:#e6763a;"/>
		<path d="M 222.214123 124.847989 C 222.320435 124.72432 222.491835 124.674419 222.645878 124.72649 L 227.321408 126.26475 C 227.488469 126.318991 227.531861 126.535953 227.399514 126.650943 Q 227.351783 126.692165 225.830879 128.043838 C 221.292035 132.079331 217.822813 135.296877 214.056353 138.648939 Q 210.804094 141.543212 206.369391 145.682846 Q 205.785763 146.22959 204.696614 146.171011 Q 204.60549 146.166671 204.538232 146.103752 Q 203.98064 145.567856 203.184389 144.923479 C 202.60944 144.457011 202.763483 143.643404 202.819893 143.033741 C 202.832911 142.901394 202.889321 142.775556 202.980445 142.677923 Q 203.251648 142.387194 204.32127 141.413035 Q 210.65439 135.650525 220.630301 126.483882 Q 221.506827 125.676783 222.214123 124.847989 Z" style="fill:#0b242e;"/>
		<path d="M 264.532555 126.640094 L 282.099965 143.261551 Q 282.173732 143.333148 282.199768 143.43512 C 282.312588 143.89291 282.405882 145.168646 282.008841 145.60691 C 281.485963 146.181859 280.774328 146.678702 279.930346 146.672193 Q 279.485574 146.667854 278.999579 146.218742 Q 277.899582 145.20553 277.584987 144.908292 Q 267.895465 135.700426 259.755052 128.417013 Q 259.162746 127.885456 258.865508 127.581709 C 258.789572 127.501433 258.830794 127.369087 258.939275 127.34956 L 263.966284 126.470864 C 264.170228 126.433981 264.380681 126.4969 264.532555 126.640094 Z" style="fill:#0b242e;"/>
		<path d="M 238.926704 143.600011 C 238.399486 145.444188 237.63361 147.88501 236.700674 151.017941 Q 236.626907 151.265278 236.221188 151.666657 C 235.546436 152.330561 233.951766 152.395649 233.277014 151.738255 Q 232.769323 151.241412 232.396148 150.731551 Q 232.294176 150.588356 232.292007 150.412617 C 232.292007 149.590331 232.736779 148.705126 232.908179 148.073767 Q 233.257487 146.776335 234.049399 144.285611 Q 237.358069 133.875776 238.158658 131.233179 Q 238.922364 128.714251 239.009149 128.475593 C 239.054711 128.347585 239.182719 128.267309 239.317235 128.280327 L 243.185667 128.649162 Q 243.472057 128.677367 243.380933 128.94857 Q 242.19849 132.513255 241.100662 136.290563 Q 240.560427 138.147757 240.015853 139.946372 Q 239.267334 142.415399 238.926704 143.600011 Z" style="fill:#0b242e;"/>
		<path d="M 252.363158 152.339239 C 251.571247 152.397819 250.267306 151.844566 250.193538 150.872576 Q 249.822534 146.047342 249.373422 140.614615 Q 248.692162 132.383078 248.377567 129.512671 Q 248.338514 129.154684 248.381906 128.881312 C 248.399263 128.781509 248.481709 128.707742 248.581511 128.705572 Q 249.759615 128.668689 250.5819 128.607939 Q 251.402017 128.545021 252.571442 128.406165 C 252.671244 128.393147 252.764538 128.453896 252.797082 128.54936 Q 252.879528 128.814053 252.894715 129.17421 Q 253.011874 132.057635 253.569467 140.30002 Q 253.936132 145.739256 254.28978 150.56449 C 254.361378 151.53648 253.157239 152.27849 252.363158 152.339239 Z" style="fill:#0b242e;"/>
		<path d="M 246.030038 88.498181 Q 246.025699 88.474315 246.051735 88.476485 L 246.127671 88.482994 C 246.153707 88.485163 246.175403 88.50252 246.184081 88.528556 Q 247.041081 91.166813 247.440291 94.028541 C 247.796109 96.573505 247.702815 98.94056 247.10617 101.426944 Q 246.726486 103.006428 246.548577 103.73325 Q 245.713274 107.133044 247.783091 109.612919 C 248.420959 110.378795 249.505769 111.222777 250.189199 111.867154 Q 252.460791 114.015078 251.820753 117.113295 C 251.354285 119.382717 249.937523 120.907959 248.106364 122.326891 C 247.27757 122.971268 246.557256 123.021169 245.704595 122.350756 Q 243.541485 120.647605 242.150758 118.430254 C 237.867929 111.6068 243.899472 105.633837 245.602623 99.387502 Q 247.062777 94.032881 246.030038 88.498181 Z" style="fill:#d23624;"/>
	</g>
	<g id="surface4">
	</g>
</svg>
