<?xml version="1.0" encoding="utf-8"?>
<svg xmlns="http://www.w3.org/2000/svg" width="490pt" height="280pt" viewBox="0 0 490 280" version="1.1" xmlns:xlink="http://www.w3.org/1999/xlink">
	<g id="surface2">
		<path vector-effect="non-scaling-stroke" d="M 225.941388 5.747461 L 227.769081 5.758956" style="fill:none;stroke-width:0.50;stroke:#945e4f;"/>
		<path vector-effect="non-scaling-stroke" d="M 229.705975 5.836547 L 219.728383 5.90839" style="fill:none;stroke-width:0.50;stroke:#f6c390;"/>
		<path vector-effect="non-scaling-stroke" d="M 219.728383 5.90839 Q 219.737004 5.882527 219.742751 5.856663" style="fill:none;stroke-width:0.50;stroke:#945e4f;"/>
		<path vector-effect="non-scaling-stroke" d="M 220.443941 5.822178 L 220.897991 5.799188" style="fill:none;stroke-width:0.50;stroke:#945e4f;"/>
		<path vector-effect="non-scaling-stroke" d="M 219.728383 5.90839 L 219.452504 5.894021" style="fill:none;stroke-width:0.50;stroke:#9a8d73;"/>
		<path vector-effect="non-scaling-stroke" d="M 229.783566 5.871032 L 230.286469 5.891148" style="fill:none;stroke-width:0.50;stroke:#9a8d73;"/>
		<path vector-effect="non-scaling-stroke" d="M 231.458951 5.960117 L 231.723334 5.971612" style="fill:none;stroke-width:0.50;stroke:#9a8d73;"/>
		<path vector-effect="non-scaling-stroke" d="M 231.938864 6.017592 Q 232.076803 6.106678 232.295206 6.086561" style="fill:none;stroke-width:0.50;stroke:#f6c390;"/>
		<path vector-effect="non-scaling-stroke" d="M 232.295206 6.086561 L 234.243596 6.24749" style="fill:none;stroke-width:0.50;stroke:#9a8d73;"/>
		<path vector-effect="non-scaling-stroke" d="M 234.243596 6.24749 L 236.674772 6.454399" style="fill:none;stroke-width:0.50;stroke:#f6c390;"/>
		<path vector-effect="non-scaling-stroke" d="M 236.674772 6.454399 Q 236.789721 6.356692 237.042609 6.399798" style="fill:none;stroke-width:0.50;stroke:#9a8d73;"/>
		<path vector-effect="non-scaling-stroke" d="M 237.565628 6.457273 L 237.758168 6.471641" style="fill:none;stroke-width:0.50;stroke:#9a8d73;"/>
		<path vector-effect="non-scaling-stroke" d="M 237.830012 6.500379 Q 237.947835 6.621075 238.140375 6.534863" style="fill:none;stroke-width:0.50;stroke:#fceb9a;"/>
		<path vector-effect="non-scaling-stroke" d="M 238.140375 6.534863 L 238.763974 6.552106" style="fill:none;stroke-width:0.50;stroke:#9a8d73;"/>
		<path vector-effect="non-scaling-stroke" d="M 238.835817 6.589464 Q 238.968009 6.707287 239.149054 6.621075" style="fill:none;stroke-width:0.50;stroke:#fceb9a;"/>
		<path vector-effect="non-scaling-stroke" d="M 241.157792 6.816489 L 241.494018 6.833731" style="fill:none;stroke-width:0.50;stroke:#9a8d73;"/>
		<path vector-effect="non-scaling-stroke" d="M 241.637705 6.882585 Q 241.761275 6.948681 241.925078 6.905575" style="fill:none;stroke-width:0.50;stroke:#f6c390;"/>
		<path vector-effect="non-scaling-stroke" d="M 241.925078 6.905575 L 242.212451 6.919943" style="fill:none;stroke-width:0.50;stroke:#9a8d73;"/>
		<path vector-effect="non-scaling-stroke" d="M 242.307284 6.948681 L 242.715354 6.980292" style="fill:none;stroke-width:0.50;stroke:#9a8d73;"/>
		<path vector-effect="non-scaling-stroke" d="M 244.893641 7.247549 L 245.158025 7.267665" style="fill:none;stroke-width:0.50;stroke:#9a8d73;"/>
		<path vector-effect="non-scaling-stroke" d="M 246.114977 7.385488 L 246.37936 7.411351" style="fill:none;stroke-width:0.50;stroke:#9a8d73;"/>
		<path vector-effect="non-scaling-stroke" d="M 248.031755 7.661366 Q 248.184063 7.784936 248.413961 7.707345" style="fill:none;stroke-width:0.50;stroke:#f6c390;"/>
		<path vector-effect="non-scaling-stroke" d="M 248.413961 7.707345 Q 248.436951 7.721714 248.459941 7.736083" style="fill:none;stroke-width:0.50;stroke:#9a8d73;"/>
		<path vector-effect="non-scaling-stroke" d="M 248.459941 7.736083 Q 248.684092 7.888391 248.974339 7.779189" style="fill:none;stroke-width:0.50;stroke:#f6c390;"/>
		<path vector-effect="non-scaling-stroke" d="M 250.210043 7.963108 L 250.402583 7.977476" style="fill:none;stroke-width:0.50;stroke:#9a8d73;"/>
		<path vector-effect="non-scaling-stroke" d="M 266.802964 10.701773 L 266.998377 10.721889" style="fill:none;stroke-width:0.50;stroke:#9a8d73;"/>
		<path vector-effect="non-scaling-stroke" d="M 275.694286 12.382905 Q 275.74314 12.497854 275.978785 12.451875" style="fill:none;stroke-width:0.50;stroke:#f6c390;"/>
		<path vector-effect="non-scaling-stroke" d="M 276.576521 12.56395 L 276.763314 12.604182" style="fill:none;stroke-width:0.50;stroke:#9a8d73;"/>
		<path vector-effect="non-scaling-stroke" d="M 276.763314 12.604182 Q 276.944359 12.765111 277.128278 12.673152" style="fill:none;stroke-width:0.50;stroke:#f6c390;"/>
		<path vector-effect="non-scaling-stroke" d="M 277.91568 12.839828 Q 278.228916 13.000757 278.57089 12.960525" style="fill:none;stroke-width:0.50;stroke:#f6c390;"/>
		<path vector-effect="non-scaling-stroke" d="M 279.200237 13.11858 Q 280.527901 13.609988 281.959019 13.704821" style="fill:none;stroke-width:0.50;stroke:#f6c390;"/>
		<path vector-effect="non-scaling-stroke" d="M 281.950398 13.753675 Q 282.551007 14.089901 283.255071 13.989321" style="fill:none;stroke-width:0.50;stroke:#f6c390;"/>
		<path vector-effect="non-scaling-stroke" d="M 283.26944 14.006563 Q 283.858555 14.39739 284.35571 14.176113" style="fill:none;stroke-width:0.50;stroke:#f6c390;"/>
		<path vector-effect="non-scaling-stroke" d="M 286.467902 14.607173 Q 286.442039 14.733617 286.623084 14.727869 Q 286.786886 14.724996 286.778265 14.644531" style="fill:none;stroke-width:0.50;stroke:#f6c390;"/>
		<path vector-effect="non-scaling-stroke" d="M 287.473708 14.85144 Q 287.473708 14.883051 287.470834 14.911788" style="fill:none;stroke-width:0.50;stroke:#9a8d73;"/>
		<path vector-effect="non-scaling-stroke" d="M 287.470834 14.911788 Q 287.993853 15.233646 288.479514 15.049727" style="fill:none;stroke-width:0.50;stroke:#f6c390;"/>
		<path vector-effect="non-scaling-stroke" d="M 289.844536 15.339974 Q 289.899136 15.449176 290.07156 15.40607" style="fill:none;stroke-width:0.50;stroke:#9a8d73;"/>
		<path vector-effect="non-scaling-stroke" d="M 303.425786 18.581542 Q 303.489009 18.636143 303.57522 18.66488" style="fill:none;stroke-width:0.50;stroke:#9a8d73;"/>
		<path vector-effect="non-scaling-stroke" d="M 303.57522 18.66488 Q 303.799371 18.797072 303.934437 18.705113" style="fill:none;stroke-width:0.50;stroke:#f6c390;"/>
		<path vector-effect="non-scaling-stroke" d="M 304.77644 18.891905 Q 304.612637 19.113182 305.155772 18.998233" style="fill:none;stroke-width:0.50;stroke:#f6c390;"/>
		<path vector-effect="non-scaling-stroke" d="M 306.081114 19.228131 Q 306.155831 19.328712 306.313886 19.279859" style="fill:none;stroke-width:0.50;stroke:#f6c390;"/>
		<path vector-effect="non-scaling-stroke" d="M 307.230606 19.509757 Q 307.259343 19.687928 307.589822 19.570105" style="fill:none;stroke-width:0.50;stroke:#f6c390;"/>
		<path vector-effect="non-scaling-stroke" d="M 309.52959 20.078756 Q 309.615802 20.219569 309.819837 20.141978" style="fill:none;stroke-width:0.50;stroke:#f6c390;"/>
		<path vector-effect="non-scaling-stroke" d="M 310.592871 20.334518 Q 310.957834 20.587406 311.47798 20.581659" style="fill:none;stroke-width:0.50;stroke:#f6c390;"/>
		<path vector-effect="non-scaling-stroke" d="M 311.47798 20.581659 Q 311.934903 20.900643 312.406195 20.797188" style="fill:none;stroke-width:0.50;stroke:#f6c390;"/>
		<path vector-effect="non-scaling-stroke" d="M 312.690694 20.889148 Q 312.77978 20.981107 312.929214 20.92938" style="fill:none;stroke-width:0.50;stroke:#f6c390;"/>
		<path vector-effect="non-scaling-stroke" d="M 312.978067 20.955244 Q 313.075774 21.061572 313.253945 21.029961" style="fill:none;stroke-width:0.50;stroke:#f6c390;"/>
		<path vector-effect="non-scaling-stroke" d="M 313.253945 21.029961 Q 313.88904 21.36044 314.641957 21.392051" style="fill:none;stroke-width:0.50;stroke:#f6c390;"/>
		<path vector-effect="non-scaling-stroke" d="M 315.124744 21.481136 Q 315.346021 21.713908 315.791449 21.650686" style="fill:none;stroke-width:0.50;stroke:#f6c390;"/>
		<path vector-effect="non-scaling-stroke" d="M 316.070201 21.748393 Q 316.167908 21.797247 316.282857 21.805868" style="fill:none;stroke-width:0.50;stroke:#f6c390;"/>
		<path vector-effect="non-scaling-stroke" d="M 316.282857 21.805868 Q 316.61621 22.009903 316.929447 21.940933" style="fill:none;stroke-width:0.50;stroke:#9a8d73;"/>
		<path vector-effect="non-scaling-stroke" d="M 318.452524 22.380614 Q 318.567473 22.544417 318.745644 22.438089" style="fill:none;stroke-width:0.50;stroke:#f6c390;"/>
		<path vector-effect="non-scaling-stroke" d="M 319.43534 22.624881 Q 319.268663 22.840411 319.82042 22.736957" style="fill:none;stroke-width:0.50;stroke:#f6c390;"/>
		<path vector-effect="non-scaling-stroke" d="M 321.455572 23.17089 Q 321.553279 23.323198 321.809041 23.242733" style="fill:none;stroke-width:0.50;stroke:#f6c390;"/>
		<path vector-effect="non-scaling-stroke" d="M 321.809041 23.242733 Q 321.895253 23.354809 322.096414 23.323198" style="fill:none;stroke-width:0.50;stroke:#9a8d73;"/>
		<path vector-effect="non-scaling-stroke" d="M 337.255343 27.590688 Q 337.163384 27.768859 337.56858 27.685521" style="fill:none;stroke-width:0.50;stroke:#f6c390;"/>
		<path vector-effect="non-scaling-stroke" d="M 338.036998 27.80047 Q 337.680655 27.99301 338.499669 27.981515" style="fill:none;stroke-width:0.50;stroke:#f6c390;"/>
		<path vector-effect="non-scaling-stroke" d="M 338.904865 28.084969 Q 338.732441 28.329236 339.166374 28.165434" style="fill:none;stroke-width:0.50;stroke:#f6c390;"/>
		<path vector-effect="non-scaling-stroke" d="M 352.003329 32.404186 Q 349.661238 31.895536 348.968669 31.918526 C 346.207014 32.016233 344.681063 32.898468 341.669393 34.392808 C 337.979523 36.226248 334.34138 38.358556 331.125676 40.798353 Q 327.726052 43.381837 324.493106 46.169356 Q 323.697082 46.853304 322.645297 47.232636 Q 322.510231 47.28149 322.406777 47.178035 Q 320.820478 45.614726 319.159462 44.519835 C 319.084745 44.470981 318.992785 44.46236 318.909447 44.496845 Q 315.889156 45.749791 315.110375 45.847498 Q 313.636151 46.034291 312.167675 46.255568 Q 310.874496 46.450982 309.216354 46.476845 Q 306.727703 46.514204 304.279284 46.9194" style="fill:none;stroke-width:0.50;stroke:#fceb9a;"/>
		<path vector-effect="non-scaling-stroke" d="M 304.279284 46.9194 Q 296.178238 47.017106 288.059949 47.114813 Q 281.479106 47.192404 251.724499 46.591794 Q 250.414078 46.565931 246.178199 45.962447 Q 244.913758 45.784276 241.229635 46.106134 C 240.677879 46.152114 239.812886 46.025669 239.393321 45.97969 C 238.792711 45.91072 237.715062 45.922215 236.884554 45.755539 Q 236.07991 45.59461 235.766673 45.560125 Q 235.108589 45.491156 234.459126 45.439428" style="fill:none;stroke-width:0.50;stroke:#fbe06d;"/>
		<path vector-effect="non-scaling-stroke" d="M 234.459126 45.439428 Q 233.895874 45.534261 233.760809 45.019864 Q 233.726324 44.881925 233.585512 44.853187 Q 233.105599 44.758354 232.663044 44.749733 C 229.03927 44.698006 225.378137 44.692258 221.662403 43.749675 C 220.984203 43.577251 220.420952 43.59162 219.699645 43.614609 Q 219.22548 43.631852 218.880632 43.051358" style="fill:none;stroke-width:0.50;stroke:#fceb9a;"/>
		<path vector-effect="non-scaling-stroke" d="M 218.880632 43.051358 Q 220.533027 42.649036 221.892302 41.921982 C 223.780343 40.907555 225.125249 38.720646 224.544755 36.48201 C 224.355089 35.749209 223.630909 35.631386 223.036046 35.841168 Q 221.260081 36.479136 219.731256 37.599891 C 218.573143 38.447642 214.567162 41.683462 216.501183 43.11458" style="fill:none;stroke-width:0.50;stroke:#fbd15e;"/>
		<path vector-effect="non-scaling-stroke" d="M 216.501183 43.11458 Q 216.504057 43.525524 215.446524 43.514029 C 210.954883 43.465175 206.839701 43.640473 202.006086 43.298499 C 195.402253 42.835828 188.778304 42.614551 182.162976 42.396148 Q 177.881117 42.255335 166.851739 41.462185" style="fill:none;stroke-width:0.50;stroke:#fceb9a;"/>
		<path vector-effect="non-scaling-stroke" d="M 166.851739 41.462185 Q 167.38338 39.959224 168.716791 38.887323 Q 170.656559 37.332634 172.843468 36.493505 C 173.403845 36.277975 173.941233 35.970486 174.444136 35.631386 Q 174.567706 35.548048 174.71714 35.571037 L 175.41833 35.680239" style="fill:none;stroke-width:0.50;stroke:#fcf5c3;"/>
		<path vector-effect="non-scaling-stroke" d="M 175.41833 35.680239 Q 175.030377 35.855537 174.88669 36.125667 Q 174.814847 36.260733 174.938417 36.352692 Q 176.289071 37.347003 177.780537 37.757946 Q 180.674384 38.551096 184.025153 38.622939 C 188.194937 38.712025 191.197985 38.795363 194.882108 37.838411 Q 197.278799 37.217685 198.425418 35.398614" style="fill:none;stroke-width:0.50;stroke:#fceb9a;"/>
		<path vector-effect="non-scaling-stroke" d="M 198.425418 35.398614 Q 200.204257 34.260616 199.816303 32.57661 C 199.3134 30.415565 196.298857 29.570688 194.396447 29.536203 Q 192.508406 29.501718 190.657724 29.809208 Q 186.916126 30.429933 183.332584 31.634027" style="fill:none;stroke-width:0.50;stroke:#fbd15e;"/>
		<path vector-effect="non-scaling-stroke" d="M 183.332584 31.634027 Q 182.786576 31.079397 182.326779 30.872488 Q 180.668636 30.11957 178.38402 29.228714 C 175.998824 28.303373 173.708461 27.7315 170.68817 26.81478 Q 170.202509 26.66822 169.426602 26.564766 Q 168.85473 26.490049 168.188024 26.745811 Q 163.690636 28.461428 160.776673 29.6569 Q 156.589647 31.381138 154.500445 32.57661 C 152.098006 33.950253 149.617977 36.272228 149.649588 39.140211 Q 149.66683 40.893187 149.784653 42.516844 C 149.913971 44.318673 150.316293 46.70387 150.445611 48.827557" style="fill:none;stroke-width:0.50;stroke:#fcf5c3;"/>
		<path vector-effect="non-scaling-stroke" d="M 150.445611 48.827557 L 149.356467 41.485175" style="fill:none;stroke-width:0.50;stroke:#fbe06d;"/>
		<path vector-effect="non-scaling-stroke" d="M 149.356467 41.485175 Q 149.698441 40.309819 148.715625 39.999456 Q 143.183694 38.263723 136.473533 37.697598 Q 135.84706 37.642997 134.094084 37.97635 Q 133.953271 38.005087 133.841196 38.097047 Q 132.973329 38.832722 132.226159 38.645929" style="fill:none;stroke-width:0.50;stroke:#fceb9a;"/>
		<path vector-effect="non-scaling-stroke" d="M 155.368312 25.329062 Q 155.580968 25.4124 155.672927 25.193996" style="fill:none;stroke-width:0.50;stroke:#9a8d73;"/>
		<path vector-effect="non-scaling-stroke" d="M 162.819895 22.147842 Q 162.920476 22.251296 163.049794 22.150716 Q 163.11589 22.098988 163.067036 22.044387" style="fill:none;stroke-width:0.50;stroke:#f6c390;"/>
		<path vector-effect="non-scaling-stroke" d="M 167.805818 20.081629 Q 167.932262 20.107493 168.018474 20.006912" style="fill:none;stroke-width:0.50;stroke:#f6c390;"/>
		<path vector-effect="non-scaling-stroke" d="M 208.805332 7.112483 Q 208.917408 7.123978 209.020862 7.095241" style="fill:none;stroke-width:0.50;stroke:#9a8d73;"/>
		<path vector-effect="non-scaling-stroke" d="M 209.538134 7.006155 L 211.00661 6.796373" style="fill:none;stroke-width:0.50;stroke:#9a8d73;"/>
		<path vector-effect="non-scaling-stroke" d="M 212.633142 6.546358 L 212.828555 6.537737" style="fill:none;stroke-width:0.50;stroke:#9a8d73;"/>
		<path vector-effect="non-scaling-stroke" d="M 235.482174 6.238869 L 235.674714 6.258985" style="fill:none;stroke-width:0.50;stroke:#945e4f;"/>
		<path vector-effect="non-scaling-stroke" d="M 236.05692 6.313586 L 236.315556 6.336576" style="fill:none;stroke-width:0.50;stroke:#945e4f;"/>
		<path vector-effect="non-scaling-stroke" d="M 236.697762 6.379682 Q 236.686267 6.41704 236.674772 6.454399" style="fill:none;stroke-width:0.50;stroke:#945e4f;"/>
		<path vector-effect="non-scaling-stroke" d="M 238.140375 6.511874 Q 238.140375 6.523368 238.140375 6.534863" style="fill:none;stroke-width:0.50;stroke:#9a8659;"/>
		<path vector-effect="non-scaling-stroke" d="M 166.322973 42.850197 Q 167.670753 42.789849 168.081696 42.827207 Q 171.067502 43.085843 174.053308 43.33011 C 176.562075 43.534145 181.306604 43.766917 184.927505 44.166366 Q 184.956242 44.169239 187.522484 44.379022 Q 189.094414 44.50834 190.695082 44.913536 Q 192.215286 45.295742 193.221091 45.361838 Q 198.117928 45.677948 198.54324 45.666453 Q 199.755955 45.629095 200.126666 45.531388 Q 202.353807 44.950894 203.213053 45.045727 Q 208.819701 45.677948 214.443592 45.376206 Q 216.567279 45.261257 217.702402 45.269878 Q 220.110589 45.287121 220.964087 45.321605 Q 222.329109 45.381954 222.826264 45.57162 Q 225.409748 46.563057 225.921272 46.672259 Q 227.56792 47.01998 229.927252 46.473971 Q 232.188878 45.950952 234.459126 45.439428" style="fill:none;stroke-width:0.50;stroke:#fbd953;"/>
		<path vector-effect="non-scaling-stroke" d="M 300.023289 149.089144 Q 296.928282 149.73286 294.310313 149.844935 Q 289.011154 150.077707 281.234839 150.046096 Q 267.754168 149.991495 254.224645 149.876546 Q 233.688966 149.704122 212.842924 148.525893 Q 198.402428 147.712627 183.855603 145.75849 C 179.481785 145.172249 175.067735 144.126211 170.81174 144.085979 C 169.14785 144.068737 167.670753 143.726763 166.475281 142.620376 C 165.38901 141.617444 164.429184 140.769694 163.156122 140.223685 Q 160.80541 139.212132 157.583958 138.568416 Q 149.20416 136.898779 143.376234 135.539504 Q 142.407787 135.312479 140.186393 134.648648 Q 137.944883 133.979068 137.039658 132.915788 Q 136.939077 132.800839 136.918961 132.651405 Q 136.86436 132.269199 136.605725 132.013437 C 136.542503 131.950215 136.50227 131.866876 136.499397 131.777791 Q 136.470659 131.171434 136.076958 130.967399" style="fill:none;stroke-width:0.50;stroke:#eaad1c;"/>
		<path vector-effect="non-scaling-stroke" d="M 248.606501 7.692977 L 248.459941 7.736083" style="fill:none;stroke-width:0.50;stroke:#945e4f;"/>
		<path vector-effect="non-scaling-stroke" d="M 149.356467 41.485175 Q 149.324856 41.048368 149.106453 40.993767 Q 145.586133 40.102911 140.703665 39.295392 C 137.953504 38.841343 135.062531 38.485 132.628482 39.939108 Q 132.381341 40.085668 132.28076 40.450632 Q 131.800847 42.160502 131.639918 43.893361 Q 131.588191 44.476729 131.539338 47.649327 Q 131.527843 48.393623 131.111152 48.525815" style="fill:none;stroke-width:0.50;stroke:#fbd953;"/>
		<path vector-effect="non-scaling-stroke" d="M 316.282857 21.762762 Q 316.282857 21.782878 316.282857 21.805868" style="fill:none;stroke-width:0.50;stroke:#945e4f;"/>
		<path vector-effect="non-scaling-stroke" d="M 303.655685 18.627522 Q 303.615453 18.647638 303.57522 18.66488" style="fill:none;stroke-width:0.50;stroke:#945e4f;"/>
		<path vector-effect="non-scaling-stroke" d="M 311.705004 20.596027 L 311.900418 20.624765" style="fill:none;stroke-width:0.50;stroke:#945e4f;"/>
		<path vector-effect="non-scaling-stroke" d="M 356.908787 36.62857 Q 356.808206 36.726277 356.770848 36.982039 Q 356.747858 37.128599 356.681762 36.999282 Q 355.931718 35.559543 354.517843 35.122735 Q 351.221674 34.102561 349.029017 36.72053 Q 347.968611 37.987845 347.011659 38.964913" style="fill:none;stroke-width:0.50;stroke:#efc04b;"/>
		<path vector-effect="non-scaling-stroke" d="M 347.011659 38.964913 Q 343.758596 38.783868 340.479669 40.746626 Q 334.850031 44.117512 331.987795 47.761403 Q 331.312468 48.620648 330.588288 49.321838 C 330.510697 49.399429 330.390001 49.410924 330.295168 49.356323 C 329.453165 48.850547 328.766343 48.32178 328.220334 48.402245 Q 327.257634 48.540184 325.323614 49.025844 Q 324.826458 49.149415 324.415515 49.433914 C 323.383846 50.152347 323.007387 50.974234 321.573395 50.241432 Q 321.156704 50.028776 318.984164 48.85342 Q 316.636326 47.588979 313.969504 47.180909 Q 312.998183 47.031475 309.130142 47.06596 Q 306.704713 47.086076 304.279284 46.9194" style="fill:none;stroke-width:0.50;stroke:#fbd953;"/>
		<path vector-effect="non-scaling-stroke" d="M 287.855914 14.894546 L 287.470834 14.911788" style="fill:none;stroke-width:0.50;stroke:#945e4f;"/>
		<path vector-effect="non-scaling-stroke" d="M 232.32107 6.031961 Q 232.306701 6.057824 232.295206 6.086561" style="fill:none;stroke-width:0.50;stroke:#945e4f;"/>
		<path vector-effect="non-scaling-stroke" d="M 198.425418 35.398614 Q 196.183908 35.760704 194.448174 35.720471 Q 190.016882 35.622765 184.683238 35.151473 Q 182.344021 34.944564 179.134064 33.671502" style="fill:none;stroke-width:0.50;stroke:#faca43;"/>
		<path vector-effect="non-scaling-stroke" d="M 241.925078 6.885459 Q 241.925078 6.89408 241.925078 6.905575" style="fill:none;stroke-width:0.50;stroke:#945e4f;"/>
		<path vector-effect="non-scaling-stroke" d="M 183.332584 31.634027 Q 181.137054 32.323722 179.134064 33.671502" style="fill:none;stroke-width:0.50;stroke:#fbd36d;"/>
		<path vector-effect="non-scaling-stroke" d="M 179.134064 33.671502 L 175.41833 35.680239" style="fill:none;stroke-width:0.50;stroke:#fceea9;"/>
		<path vector-effect="non-scaling-stroke" d="M 166.851739 41.462185 Q 166.380448 42.062795 166.322973 42.850197" style="fill:none;stroke-width:0.50;stroke:#fceea9;"/>
		<path vector-effect="non-scaling-stroke" d="M 166.322973 42.850197 Q 165.857429 46.384886 166.121812 50.689734 Q 166.512639 57.112522 167.515571 77.122308 C 168.285731 92.479525 168.777139 107.868352 168.619084 123.245685 Q 168.564483 128.697152 168.285731 130.789227 C 167.880535 133.835382 166.845992 136.507951 163.084279 136.022291 C 161.296818 135.792392 158.819662 135.148677 157.799488 133.743422 C 156.681607 132.205977 156.779314 129.409837 156.851157 127.369488 Q 157.28509 114.615872 156.285032 101.718569 Q 154.885525 83.680162 152.684247 65.187705 Q 151.707179 56.986078 150.445611 48.827557" style="fill:none;stroke-width:0.50;stroke:#fbe37c;"/>
		<path vector-effect="non-scaling-stroke" d="M 234.525221 6.178521 Q 234.349924 6.1699 234.243596 6.24749" style="fill:none;stroke-width:0.50;stroke:#945e4f;"/>
		<path vector-effect="non-scaling-stroke" d="M 218.880632 43.051358 L 216.501183 43.11458" style="fill:none;stroke-width:0.50;stroke:#faca43;"/>
		<path vector-effect="non-scaling-stroke" d="M 248.413961 7.678608 Q 248.413961 7.692977 248.413961 7.707345" style="fill:none;stroke-width:0.50;stroke:#945e4f;"/>
		<path vector-effect="non-scaling-stroke" d="M 355.7478 128.987398 L 353.928728 131.470302 Q 353.911486 131.493291 353.874127 131.478923 Q 353.833895 131.46168 353.859759 131.421448 Q 354.56957 130.412769 354.879933 129.343741 Q 354.983387 128.998893 354.678772 129.194307 C 348.034707 133.447428 340.117579 137.395934 332.502193 141.600202 Q 328.136996 144.008388 326.392641 144.703831 Q 322.880943 146.103338 321.622249 146.410827 Q 318.038707 147.290189 314.814381 148.646589 C 313.032668 149.393759 311.67052 149.669637 309.906049 149.6409 Q 305.856963 149.574804 302.29641 149.597794 Q 301.325089 149.603542 300.023289 149.089144" style="fill:none;stroke-width:0.50;stroke:#de9414;"/>
		<path vector-effect="non-scaling-stroke" d="M 300.023289 149.089144 Q 303.124045 148.189666 304.540794 147.626415 Q 315.173597 143.387662 319.541668 132.987631 Q 321.435456 128.475874 322.105035 123.622143 C 323.016008 117.006815 323.128084 110.94037 323.455689 101.980078 Q 324.145384 83.137026 324.355166 78.631017 Q 324.501727 75.469913 324.725878 72.406516 Q 324.938534 69.46669 325.734557 65.193453 Q 327.076589 57.971768 331.622831 52.669735 Q 336.953601 46.448108 344.620715 42.640415 Q 345.50295 42.200734 345.853545 41.669094 Q 346.353574 40.910429 347.011659 38.964913" style="fill:none;stroke-width:0.50;stroke:#efb51f;"/>
		<path vector-effect="non-scaling-stroke" d="M 233.332623 21.242617 Q 233.266527 21.366187 233.148704 21.535737 Q 233.050998 21.67655 233.002144 21.843226 C 231.892884 25.800353 233.582638 29.855187 237.278255 31.622532 Q 241.060085 33.430108 245.267226 32.800761 Q 245.795993 32.720297 246.301769 32.507641 Q 246.784556 32.303606 247.293207 32.059339" style="fill:none;stroke-width:0.50;stroke:#fceb9a;"/>
		<path vector-effect="non-scaling-stroke" d="M 247.293207 32.059339 Q 252.57225 30.40407 252.500406 25.257218 Q 252.468795 23.041572 251.230217 21.486884 Q 249.758867 19.639075 247.10354 18.593037 Q 240.968125 16.179103 235.1402 19.449409 Q 234.309692 19.914953 233.332623 21.242617" style="fill:none;stroke-width:0.50;stroke:#fbd15e;"/>
		<path vector-effect="non-scaling-stroke" d="M 247.293207 32.059339 Q 243.373438 32.033475 240.298546 29.688511 C 238.585803 28.383837 236.416136 26.107843 234.849953 24.216928 Q 233.763683 22.903633 233.332623 21.242617" style="fill:none;stroke-width:0.50;stroke:#faca43;"/>
		<path vector-effect="non-scaling-stroke" d="M 270.392253 34.338207 C 271.725664 36.33545 273.544736 37.306771 275.789119 38.266597 Q 277.205868 38.87008 278.881253 39.074115 C 281.41301 39.378731 285.982242 39.717831 287.973737 37.8068 C 289.203694 36.625697 289.235305 34.961807 288.140413 33.66288 Q 287.591531 33.010543 287.304158 32.812256 C 283.643025 30.286247 278.182937 28.435564 273.708538 29.289062 C 272.021658 29.613794 270.076143 30.493155 269.834749 32.294985 Q 269.702558 33.30079 270.392253 34.338207" style="fill:none;stroke-width:0.50;stroke:#fbd15e;"/>
		<path vector-effect="non-scaling-stroke" d="M 223.64499 95.736927 C 228.668558 92.789888 230.323827 86.280888 227.342131 81.196856 C 224.360836 76.113629 217.869079 74.383643 212.846085 77.330625 C 207.822517 80.277665 206.167248 86.786664 209.148944 91.870696 C 212.130239 96.953923 218.621996 98.683909 223.64499 95.736927" style="fill:none;stroke-width:0.50;stroke:#997b2c;"/>
		<path vector-effect="non-scaling-stroke" d="M 284.40238 85.081421 C 283.255071 79.335081 277.651297 75.610726 271.891105 76.761856 C 266.130511 77.912584 262.388913 83.504864 263.537716 89.250572 C 264.685024 94.996913 270.288799 98.721268 276.048991 97.570137 C 281.809585 96.419409 285.551182 90.82713 284.40238 85.081421" style="fill:none;stroke-width:0.50;stroke:#997b2c;"/>
		<path vector-effect="non-scaling-stroke" d="M 248.649607 104.218714 C 246.143714 105.118192 243.497008 104.13825 241.695179 102.284694 C 240.057153 100.603561 239.43068 98.971282 238.706499 96.724025 C 238.186354 95.123357 236.347167 93.505446 234.611433 94.683676 C 233.413088 95.496942 233.301012 96.580338 233.441825 97.919497 Q 233.737819 100.724258 235.335613 103.393954 C 239.965193 111.124289 249.773236 112.713462 256.181655 106.098134 Q 259.187577 102.997379 259.986475 98.772995 C 260.362933 96.790121 260.110045 94.698045 257.914515 94.396303 C 256.420175 94.192268 255.118375 95.24118 254.701684 96.646434 C 253.693005 100.054679 252.152685 102.96002 248.649607 104.218714" style="fill:none;stroke-width:0.50;stroke:#997b2c;"/>
		<path vector-effect="non-scaling-stroke" d="M 206.035056 117.475233 Q 208.351283 117.515466 210.385884 117.130386 C 214.299905 116.391837 218.67085 113.911808 220.45831 110.288033 Q 220.978455 109.2305 221.01294 107.678686 C 221.056046 105.908468 219.941039 104.316421 218.653607 103.19854 C 215.222373 100.212734 210.759469 99.209802 206.348293 99.135085 C 201.934243 99.060368 197.439728 99.908118 193.910787 102.776101 C 192.585997 103.85375 191.416389 105.402691 191.399146 107.175783 Q 191.381904 108.727598 191.867564 109.802373 C 193.528581 113.483622 197.813313 116.110211 201.698597 116.983826 Q 203.718829 117.437875 206.035056 117.475233" style="fill:none;stroke-width:0.50;stroke:#f5b149;"/>
		<path vector-effect="non-scaling-stroke" d="M 287.057017 117.762607 Q 289.387612 117.808586 291.433709 117.42638 C 295.367846 116.693579 299.770401 114.213549 301.575104 110.575406 Q 302.100997 109.515 302.141229 107.954564 C 302.190082 106.172851 301.072201 104.572183 299.779022 103.442807 C 296.339167 100.431137 291.856147 99.413837 287.421981 99.324751 C 282.984941 99.238539 278.464562 100.080542 274.906884 102.951399 C 273.573473 104.031922 272.39237 105.58661 272.372254 107.368323 Q 272.349264 108.928759 272.834924 110.009281 C 274.493067 113.716394 278.795041 116.365973 282.697568 117.253956 Q 284.729295 117.716627 287.057017 117.762607" style="fill:none;stroke-width:0.50;stroke:#f5b149;"/>
		<path vector-effect="non-scaling-stroke" d="M 216.103516 87.826696 C 217.205247 86.493544 216.909253 84.430205 215.443047 83.21502 C 213.975174 82.001903 211.891719 82.096736 210.789299 83.430406 C 209.687568 84.763558 209.983562 86.826897 211.449768 88.042082 C 212.917641 89.255199 215.001096 89.160366 216.103516 87.826696" style="fill:none;stroke-width:0.50;stroke:#9a8f82;"/>
		<path vector-effect="non-scaling-stroke" d="M 272.001111 88.468716 C 273.156782 87.097027 272.898146 84.979088 271.426394 83.739475 C 269.952572 82.499058 267.823138 82.605386 266.668329 83.97811 C 265.512659 85.349799 265.771294 87.467738 267.243047 88.707351 C 268.716868 89.947768 270.846303 89.84144 272.001111 88.468716" style="fill:none;stroke-width:0.50;stroke:#9a8f82;"/>
		<path d="M 225.941388 5.747461 L 227.769081 5.758956 L 229.705975 5.836547 L 219.728383 5.90839 Q 219.737004 5.882527 219.742751 5.856663 L 220.443941 5.822178 L 220.897991 5.799188 L 225.941388 5.747461 Z" style="fill:#f0946c;"/>
		<path d="M 227.769081 5.758956 L 225.941388 5.747461 L 227.769081 5.758956 Z" style="fill:#382732;"/>
		<path d="M 220.897991 5.799188 L 220.443941 5.822178 L 220.897991 5.799188 Z" style="fill:#382732;"/>
		<path d="M 219.742751 5.856663 Q 219.737004 5.882527 219.728383 5.90839 L 219.452504 5.894021 L 219.742751 5.856663 Z" style="fill:#382732;"/>
		<path d="M 229.705975 5.836547 Q 229.746207 5.853789 229.783566 5.871032 L 230.286469 5.891148 L 231.458951 5.960117 L 231.723334 5.971612 L 231.938864 6.017592 Q 232.076803 6.106678 232.295206 6.086561 L 234.243596 6.24749 L 236.674772 6.454399 Q 236.789721 6.356692 237.042609 6.399798 L 237.565628 6.457273 L 237.758168 6.471641 Q 237.792653 6.48601 237.830012 6.500379 Q 237.947835 6.621075 238.140375 6.534863 L 238.763974 6.552106 Q 238.801333 6.572222 238.835817 6.589464 Q 238.968009 6.707287 239.149054 6.621075 L 241.157792 6.816489 L 241.494018 6.833731 L 241.637705 6.882585 Q 241.761275 6.948681 241.925078 6.905575 L 242.212451 6.919943 Q 242.25843 6.934312 242.307284 6.948681 L 242.715354 6.980292 L 244.893641 7.247549 L 245.158025 7.267665 L 246.114977 7.385488 L 246.37936 7.411351 L 248.031755 7.661366 Q 248.184063 7.784936 248.413961 7.707345 Q 248.436951 7.721714 248.459941 7.736083 Q 248.684092 7.888391 248.974339 7.779189 L 250.210043 7.963108 L 250.402583 7.977476 L 266.802964 10.701773 L 266.998377 10.721889 L 275.694286 12.382905 Q 275.74314 12.497854 275.978785 12.451875 L 276.576521 12.56395 L 276.763314 12.604182 Q 276.944359 12.765111 277.128278 12.673152 L 277.91568 12.839828 Q 278.228916 13.000757 278.57089 12.960525 L 279.200237 13.11858 Q 280.527901 13.609988 281.959019 13.704821 Q 281.953271 13.730685 281.950398 13.753675 Q 282.551007 14.089901 283.255071 13.989321 Q 283.263693 13.997942 283.26944 14.006563 Q 283.858555 14.39739 284.35571 14.176113 L 286.467902 14.607173 Q 286.442039 14.733617 286.623084 14.727869 Q 286.786886 14.724996 286.778265 14.644531 L 287.473708 14.85144 Q 287.473708 14.883051 287.470834 14.911788 Q 287.993853 15.233646 288.479514 15.049727 L 289.844536 15.339974 Q 289.899136 15.449176 290.07156 15.40607 L 303.425786 18.581542 Q 303.489009 18.636143 303.57522 18.66488 Q 303.799371 18.797072 303.934437 18.705113 L 304.77644 18.891905 Q 304.612637 19.113182 305.155772 18.998233 L 306.081114 19.228131 Q 306.155831 19.328712 306.313886 19.279859 L 307.230606 19.509757 Q 307.259343 19.687928 307.589822 19.570105 L 309.52959 20.078756 Q 309.615802 20.219569 309.819837 20.141978 L 310.592871 20.334518 Q 310.957834 20.587406 311.47798 20.581659 Q 311.934903 20.900643 312.406195 20.797188 L 312.690694 20.889148 Q 312.77978 20.981107 312.929214 20.92938 Q 312.952203 20.943749 312.978067 20.955244 Q 313.075774 21.061572 313.253945 21.029961 Q 313.88904 21.36044 314.641957 21.392051 Q 314.866108 21.380556 315.124744 21.481136 Q 315.346021 21.713908 315.791449 21.650686 L 316.070201 21.748393 Q 316.167908 21.797247 316.282857 21.805868 Q 316.61621 22.009903 316.929447 21.940933 L 318.452524 22.380614 Q 318.567473 22.544417 318.745644 22.438089 L 319.43534 22.624881 Q 319.268663 22.840411 319.82042 22.736957 L 321.455572 23.17089 Q 321.553279 23.323198 321.809041 23.242733 Q 321.895253 23.354809 322.096414 23.323198 L 337.255343 27.590688 Q 337.163384 27.768859 337.56858 27.685521 L 338.036998 27.80047 Q 337.680655 27.99301 338.499669 27.981515 L 338.904865 28.084969 Q 338.732441 28.329236 339.166374 28.165434 Q 343.491339 29.504592 347.842167 30.829382 Q 349.965854 31.475971 352.003329 32.404186 Q 349.661238 31.895536 348.968669 31.918526 C 346.207014 32.016233 344.681063 32.898468 341.669393 34.392808 C 337.979523 36.226248 334.34138 38.358556 331.125676 40.798353 Q 327.726052 43.381837 324.493106 46.169356 Q 323.697082 46.853304 322.645297 47.232636 Q 322.510231 47.28149 322.406777 47.178035 Q 320.820478 45.614726 319.159462 44.519835 C 319.084745 44.470981 318.992785 44.46236 318.909447 44.496845 Q 315.889156 45.749791 315.110375 45.847498 Q 313.636151 46.034291 312.167675 46.255568 Q 310.874496 46.450982 309.216354 46.476845 Q 306.727703 46.514204 304.279284 46.9194 Q 296.178238 47.017106 288.059949 47.114813 Q 281.479106 47.192404 251.724499 46.591794 Q 250.414078 46.565931 246.178199 45.962447 Q 244.913758 45.784276 241.229635 46.106134 C 240.677879 46.152114 239.812886 46.025669 239.393321 45.97969 C 238.792711 45.91072 237.715062 45.922215 236.884554 45.755539 Q 236.07991 45.59461 235.766673 45.560125 Q 235.108589 45.491156 234.459126 45.439428 Q 233.895874 45.534261 233.760809 45.019864 Q 233.726324 44.881925 233.585512 44.853187 Q 233.105599 44.758354 232.663044 44.749733 C 229.03927 44.698006 225.378137 44.692258 221.662403 43.749675 C 220.984203 43.577251 220.420952 43.59162 219.699645 43.614609 Q 219.22548 43.631852 218.880632 43.051358 Q 220.533027 42.649036 221.892302 41.921982 C 223.780343 40.907555 225.125249 38.720646 224.544755 36.48201 C 224.355089 35.749209 223.630909 35.631386 223.036046 35.841168 Q 221.260081 36.479136 219.731256 37.599891 C 218.573143 38.447642 214.567162 41.683462 216.501183 43.11458 Q 216.504057 43.525524 215.446524 43.514029 C 210.954883 43.465175 206.839701 43.640473 202.006086 43.298499 C 195.402253 42.835828 188.778304 42.614551 182.162976 42.396148 Q 177.881117 42.255335 166.851739 41.462185 Q 167.38338 39.959224 168.716791 38.887323 Q 170.656559 37.332634 172.843468 36.493505 C 173.403845 36.277975 173.941233 35.970486 174.444136 35.631386 Q 174.567706 35.548048 174.71714 35.571037 L 175.41833 35.680239 Q 175.030377 35.855537 174.88669 36.125667 Q 174.814847 36.260733 174.938417 36.352692 Q 176.289071 37.347003 177.780537 37.757946 Q 180.674384 38.551096 184.025153 38.622939 C 188.194937 38.712025 191.197985 38.795363 194.882108 37.838411 Q 197.278799 37.217685 198.425418 35.398614 Q 200.204257 34.260616 199.816303 32.57661 C 199.3134 30.415565 196.298857 29.570688 194.396447 29.536203 Q 192.508406 29.501718 190.657724 29.809208 Q 186.916126 30.429933 183.332584 31.634027 Q 182.786576 31.079397 182.326779 30.872488 Q 180.668636 30.11957 178.38402 29.228714 C 175.998824 28.303373 173.708461 27.7315 170.68817 26.81478 Q 170.202509 26.66822 169.426602 26.564766 Q 168.85473 26.490049 168.188024 26.745811 Q 163.690636 28.461428 160.776673 29.6569 Q 156.589647 31.381138 154.500445 32.57661 C 152.098006 33.950253 149.617977 36.272228 149.649588 39.140211 Q 149.66683 40.893187 149.784653 42.516844 C 149.913971 44.318673 150.316293 46.70387 150.445611 48.827557 L 149.356467 41.485175 Q 149.698441 40.309819 148.715625 39.999456 Q 143.183694 38.263723 136.473533 37.697598 Q 135.84706 37.642997 134.094084 37.97635 Q 133.953271 38.005087 133.841196 38.097047 Q 132.973329 38.832722 132.226159 38.645929 C 133.48198 35.915885 135.407379 34.585348 138.033969 33.208831 Q 142.232489 31.00468 155.368312 25.329062 Q 155.580968 25.4124 155.672927 25.193996 L 162.819895 22.147842 Q 162.920476 22.251296 163.049794 22.150716 Q 163.11589 22.098988 163.067036 22.044387 L 167.805818 20.081629 Q 167.932262 20.107493 168.018474 20.006912 C 178.40701 15.796897 189.174879 11.836896 199.793313 9.035009 Q 203.756188 7.988971 208.805332 7.112483 Q 208.917408 7.123978 209.020862 7.095241 L 209.538134 7.006155 L 211.00661 6.796373 L 212.633142 6.546358 L 212.828555 6.537737 L 219.452504 5.894021 L 219.728383 5.90839 L 229.705975 5.836547 Z M 233.332623 21.242617 Q 233.266527 21.366187 233.148704 21.535737 Q 233.050998 21.67655 233.002144 21.843226 C 231.892884 25.800353 233.582638 29.855187 237.278255 31.622532 Q 241.060085 33.430108 245.267226 32.800761 Q 245.795993 32.720297 246.301769 32.507641 Q 246.784556 32.303606 247.293207 32.059339 Q 252.57225 30.40407 252.500406 25.257218 Q 252.468795 23.041572 251.230217 21.486884 Q 249.758867 19.639075 247.10354 18.593037 Q 240.968125 16.179103 235.1402 19.449409 Q 234.309692 19.914953 233.332623 21.242617 Z M 270.392253 34.338207 C 271.725664 36.33545 273.544736 37.306771 275.789119 38.266597 Q 277.205868 38.87008 278.881253 39.074115 C 281.41301 39.378731 285.982242 39.717831 287.973737 37.8068 C 289.203694 36.625697 289.235305 34.961807 288.140413 33.66288 Q 287.591531 33.010543 287.304158 32.812256 C 283.643025 30.286247 278.182937 28.435564 273.708538 29.289062 C 272.021658 29.613794 270.076143 30.493155 269.834749 32.294985 Q 269.702558 33.30079 270.392253 34.338207 Z" style="fill:#fcf2b4;"/>
		<path d="M 230.286469 5.891148 L 229.783566 5.871032 L 230.286469 5.891148 Z" style="fill:#382732;"/>
		<path d="M 231.723334 5.971612 L 231.458951 5.960117 L 231.723334 5.971612 Z" style="fill:#382732;"/>
		<path d="M 232.32107 6.031961 Q 232.306701 6.057824 232.295206 6.086561 Q 232.076803 6.106678 231.938864 6.017592 Q 232.12853 5.988855 232.32107 6.031961 Z" style="fill:#f0946c;"/>
		<path d="M 234.525221 6.178521 Q 234.349924 6.1699 234.243596 6.24749 L 232.295206 6.086561 Q 232.306701 6.057824 232.32107 6.031961 L 234.525221 6.178521 Z" style="fill:#382732;"/>
		<path d="M 234.525221 6.178521 L 235.482174 6.238869 L 235.674714 6.258985 L 236.05692 6.313586 L 236.315556 6.336576 L 236.697762 6.379682 Q 236.686267 6.41704 236.674772 6.454399 L 234.243596 6.24749 Q 234.349924 6.1699 234.525221 6.178521 Z" style="fill:#f0946c;"/>
		<path d="M 235.674714 6.258985 L 235.482174 6.238869 L 235.674714 6.258985 Z" style="fill:#382732;"/>
		<path d="M 236.315556 6.336576 L 236.05692 6.313586 Q 236.194859 6.302091 236.315556 6.336576 Z" style="fill:#382732;"/>
		<path d="M 237.042609 6.399798 Q 236.789721 6.356692 236.674772 6.454399 Q 236.686267 6.41704 236.697762 6.379682 L 237.042609 6.399798 Z" style="fill:#382732;"/>
		<path d="M 237.758168 6.471641 L 237.565628 6.457273 L 237.758168 6.471641 Z" style="fill:#382732;"/>
		<path d="M 212.828555 6.537737 L 212.633142 6.546358 L 212.828555 6.537737 Z" style="fill:#382732;"/>
		<path d="M 238.140375 6.511874 Q 238.140375 6.523368 238.140375 6.534863 Q 237.947835 6.621075 237.830012 6.500379 Q 237.985193 6.474515 238.140375 6.511874 Z" style="fill:#fbe47f;"/>
		<path d="M 238.763974 6.552106 L 238.140375 6.534863 Q 238.140375 6.523368 238.140375 6.511874 L 238.763974 6.552106 Z" style="fill:#382732;"/>
		<path d="M 239.149054 6.621075 Q 238.968009 6.707287 238.835817 6.589464 Q 238.993873 6.577969 239.149054 6.621075 Z" style="fill:#fbe47f;"/>
		<path d="M 211.00661 6.796373 L 209.538134 7.006155 L 211.00661 6.796373 Z" style="fill:#382732;"/>
		<path d="M 241.494018 6.833731 L 241.157792 6.816489 L 241.494018 6.833731 Z" style="fill:#382732;"/>
		<path d="M 241.925078 6.885459 Q 241.925078 6.89408 241.925078 6.905575 Q 241.761275 6.948681 241.637705 6.882585 L 241.925078 6.885459 Z" style="fill:#f0946c;"/>
		<path d="M 242.212451 6.919943 L 241.925078 6.905575 Q 241.925078 6.89408 241.925078 6.885459 Q 242.080259 6.873964 242.212451 6.919943 Z" style="fill:#382732;"/>
		<path d="M 242.715354 6.980292 L 242.307284 6.948681 L 242.715354 6.980292 Z" style="fill:#382732;"/>
		<path d="M 209.020862 7.095241 Q 208.917408 7.123978 208.805332 7.112483 L 209.020862 7.095241 Z" style="fill:#382732;"/>
		<path d="M 245.158025 7.267665 L 244.893641 7.247549 L 245.158025 7.267665 Z" style="fill:#382732;"/>
		<path d="M 246.37936 7.411351 L 246.114977 7.385488 L 246.37936 7.411351 Z" style="fill:#382732;"/>
		<path d="M 248.413961 7.678608 Q 248.413961 7.692977 248.413961 7.707345 Q 248.184063 7.784936 248.031755 7.661366 L 248.413961 7.678608 Z" style="fill:#f0946c;"/>
		<path d="M 248.606501 7.692977 L 248.459941 7.736083 Q 248.436951 7.721714 248.413961 7.707345 Q 248.413961 7.692977 248.413961 7.678608 L 248.606501 7.692977 Z" style="fill:#382732;"/>
		<path d="M 248.606501 7.692977 L 248.974339 7.779189 Q 248.684092 7.888391 248.459941 7.736083 L 248.606501 7.692977 Z" style="fill:#f0946c;"/>
		<path d="M 250.402583 7.977476 L 250.210043 7.963108 L 250.402583 7.977476 Z" style="fill:#382732;"/>
		<path d="M 266.998377 10.721889 L 266.802964 10.701773 Q 266.90067 10.693152 266.998377 10.721889 Z" style="fill:#382732;"/>
		<path d="M 275.978785 12.451875 Q 275.74314 12.497854 275.694286 12.382905 L 275.978785 12.451875 Z" style="fill:#f0946c;"/>
		<path d="M 276.763314 12.604182 L 276.576521 12.56395 Q 276.685723 12.558203 276.763314 12.604182 Z" style="fill:#382732;"/>
		<path d="M 277.128278 12.673152 Q 276.944359 12.765111 276.763314 12.604182 Q 276.967349 12.601309 277.128278 12.673152 Z" style="fill:#f0946c;"/>
		<path d="M 278.57089 12.960525 Q 278.228916 13.000757 277.91568 12.839828 Q 278.266275 12.805344 278.57089 12.960525 Z" style="fill:#f0946c;"/>
		<path d="M 281.959019 13.704821 Q 280.527901 13.609988 279.200237 13.11858 L 281.959019 13.704821 Z" style="fill:#f0946c;"/>
		<path d="M 283.255071 13.989321 Q 282.551007 14.089901 281.950398 13.753675 Q 282.680325 13.647347 283.255071 13.989321 Z" style="fill:#f0946c;"/>
		<path d="M 284.35571 14.176113 Q 283.858555 14.39739 283.26944 14.006563 Q 283.835565 13.900235 284.35571 14.176113 Z" style="fill:#f0946c;"/>
		<path d="M 286.778265 14.644531 Q 286.786886 14.724996 286.623084 14.727869 Q 286.442039 14.733617 286.467902 14.607173 Q 286.625957 14.592804 286.778265 14.644531 Z" style="fill:#f0946c;"/>
		<path d="M 287.855914 14.894546 L 287.470834 14.911788 Q 287.473708 14.883051 287.473708 14.85144 Q 287.686364 14.831324 287.855914 14.894546 Z" style="fill:#382732;"/>
		<path d="M 287.855914 14.894546 Q 288.206509 14.911788 288.479514 15.049727 Q 287.993853 15.233646 287.470834 14.911788 L 287.855914 14.894546 Z" style="fill:#f0946c;"/>
		<path d="M 290.07156 15.40607 Q 289.899136 15.449176 289.844536 15.339974 Q 289.982475 15.354343 290.07156 15.40607 Z" style="fill:#382732;"/>
		<path d="M 303.655685 18.627522 Q 303.615453 18.647638 303.57522 18.66488 Q 303.489009 18.636143 303.425786 18.581542 L 303.655685 18.627522 Z" style="fill:#382732;"/>
		<path d="M 303.655685 18.627522 Q 303.807993 18.639017 303.934437 18.705113 Q 303.799371 18.797072 303.57522 18.66488 Q 303.615453 18.647638 303.655685 18.627522 Z" style="fill:#f0946c;"/>
		<path d="M 305.155772 18.998233 Q 304.612637 19.113182 304.77644 18.891905 Q 304.983348 18.9034 305.155772 18.998233 Z" style="fill:#f0946c;"/>
		<path d="M 306.313886 19.279859 Q 306.155831 19.328712 306.081114 19.228131 Q 306.216179 19.222384 306.313886 19.279859 Z" style="fill:#f0946c;"/>
		<path d="M 307.589822 19.570105 Q 307.259343 19.687928 307.230606 19.509757 Q 307.431767 19.486767 307.589822 19.570105 Z" style="fill:#f0946c;"/>
		<path d="M 168.018474 20.006912 Q 167.932262 20.107493 167.805818 20.081629 Q 167.897777 20.006912 168.018474 20.006912 Z" style="fill:#f0946c;"/>
		<path d="M 309.819837 20.141978 Q 309.615802 20.219569 309.52959 20.078756 Q 309.69914 20.075882 309.819837 20.141978 Z" style="fill:#f0946c;"/>
		<path d="M 311.47798 20.581659 Q 310.957834 20.587406 310.592871 20.334518 Q 311.06991 20.357508 311.47798 20.581659 Z" style="fill:#f0946c;"/>
		<path d="M 311.705004 20.596027 L 311.900418 20.624765 L 312.406195 20.797188 Q 311.934903 20.900643 311.47798 20.581659 L 311.705004 20.596027 Z" style="fill:#f0946c;"/>
		<path d="M 311.900418 20.624765 L 311.705004 20.596027 L 311.900418 20.624765 Z" style="fill:#382732;"/>
		<path d="M 312.929214 20.92938 Q 312.77978 20.981107 312.690694 20.889148 Q 312.822886 20.874779 312.929214 20.92938 Z" style="fill:#f0946c;"/>
		<path d="M 313.253945 21.029961 Q 313.075774 21.061572 312.978067 20.955244 Q 313.202218 20.917885 313.253945 21.029961 Z" style="fill:#f0946c;"/>
		<path d="M 314.641957 21.392051 Q 313.88904 21.36044 313.253945 21.029961 Q 313.98962 21.070193 314.641957 21.392051 Z" style="fill:#f0946c;"/>
		<path d="M 315.791449 21.650686 Q 315.346021 21.713908 315.124744 21.481136 Q 315.478213 21.469641 315.791449 21.650686 Z" style="fill:#f0946c;"/>
		<path d="M 316.282857 21.762762 Q 316.282857 21.782878 316.282857 21.805868 Q 316.167908 21.797247 316.070201 21.748393 L 316.282857 21.762762 Z" style="fill:#f0946c;"/>
		<path d="M 316.929447 21.940933 Q 316.61621 22.009903 316.282857 21.805868 Q 316.282857 21.782878 316.282857 21.762762 Q 316.627705 21.777131 316.929447 21.940933 Z" style="fill:#382732;"/>
		<path d="M 163.067036 22.044387 Q 163.11589 22.098988 163.049794 22.150716 Q 162.920476 22.251296 162.819895 22.147842 L 163.067036 22.044387 Z" style="fill:#f0946c;"/>
		<path d="M 318.745644 22.438089 Q 318.567473 22.544417 318.452524 22.380614 Q 318.6192 22.363372 318.745644 22.438089 Z" style="fill:#f0946c;"/>
		<path d="M 319.82042 22.736957 Q 319.268663 22.840411 319.43534 22.624881 Q 319.659491 22.619134 319.82042 22.736957 Z" style="fill:#f0946c;"/>
		<path d="M 321.809041 23.242733 Q 321.553279 23.323198 321.455572 23.17089 Q 321.673976 23.159395 321.809041 23.242733 Z" style="fill:#f0946c;"/>
		<path d="M 322.096414 23.323198 Q 321.895253 23.354809 321.809041 23.242733 Q 322.024571 23.225491 322.096414 23.323198 Z" style="fill:#382732;"/>
		<path d="M 155.672927 25.193996 Q 155.580968 25.4124 155.368312 25.329062 Q 155.494756 25.191123 155.672927 25.193996 Z" style="fill:#382732;"/>
		<path d="M 183.332584 31.634027 Q 181.137054 32.323722 179.134064 33.671502 L 175.41833 35.680239 L 174.71714 35.571037 Q 174.567706 35.548048 174.444136 35.631386 C 173.941233 35.970486 173.403845 36.277975 172.843468 36.493505 Q 170.656559 37.332634 168.716791 38.887323 Q 167.38338 39.959224 166.851739 41.462185 Q 166.380448 42.062795 166.322973 42.850197 Q 165.857429 46.384886 166.121812 50.689734 Q 166.512639 57.112522 167.515571 77.122308 C 168.285731 92.479525 168.777139 107.868352 168.619084 123.245685 Q 168.564483 128.697152 168.285731 130.789227 C 167.880535 133.835382 166.845992 136.507951 163.084279 136.022291 C 161.296818 135.792392 158.819662 135.148677 157.799488 133.743422 C 156.681607 132.205977 156.779314 129.409837 156.851157 127.369488 Q 157.28509 114.615872 156.285032 101.718569 Q 154.885525 83.680162 152.684247 65.187705 Q 151.707179 56.986078 150.445611 48.827557 C 150.316293 46.70387 149.913971 44.318673 149.784653 42.516844 Q 149.66683 40.893187 149.649588 39.140211 C 149.617977 36.272228 152.098006 33.950253 154.500445 32.57661 Q 156.589647 31.381138 160.776673 29.6569 Q 163.690636 28.461428 168.188024 26.745811 Q 168.85473 26.490049 169.426602 26.564766 Q 170.202509 26.66822 170.68817 26.81478 C 173.708461 27.7315 175.998824 28.303373 178.38402 29.228714 Q 180.668636 30.11957 182.326779 30.872488 Q 182.786576 31.079397 183.332584 31.634027 Z" style="fill:#fcf7d2;"/>
		<path d="M 337.56858 27.685521 Q 337.163384 27.768859 337.255343 27.590688 Q 337.433514 27.58494 337.56858 27.685521 Z" style="fill:#f0946c;"/>
		<path d="M 338.036998 27.80047 Q 338.289886 27.852197 338.499669 27.981515 Q 337.680655 27.99301 338.036998 27.80047 Z" style="fill:#f0946c;"/>
		<path d="M 338.904865 28.084969 L 339.166374 28.165434 Q 338.732441 28.329236 338.904865 28.084969 Z" style="fill:#f0946c;"/>
		<path d="M 198.425418 35.398614 Q 196.183908 35.760704 194.448174 35.720471 Q 190.016882 35.622765 184.683238 35.151473 Q 182.344021 34.944564 179.134064 33.671502 Q 181.137054 32.323722 183.332584 31.634027 Q 186.916126 30.429933 190.657724 29.809208 Q 192.508406 29.501718 194.396447 29.536203 C 196.298857 29.570688 199.3134 30.415565 199.816303 32.57661 Q 200.204257 34.260616 198.425418 35.398614 Z" style="fill:#f9af07;"/>
		<path d="M 352.003329 32.404186 Q 355.069599 33.803693 356.908787 36.62857 Q 356.808206 36.726277 356.770848 36.982039 Q 356.747858 37.128599 356.681762 36.999282 Q 355.931718 35.559543 354.517843 35.122735 Q 351.221674 34.102561 349.029017 36.72053 Q 347.968611 37.987845 347.011659 38.964913 Q 343.758596 38.783868 340.479669 40.746626 Q 334.850031 44.117512 331.987795 47.761403 Q 331.312468 48.620648 330.588288 49.321838 C 330.510697 49.399429 330.390001 49.410924 330.295168 49.356323 C 329.453165 48.850547 328.766343 48.32178 328.220334 48.402245 Q 327.257634 48.540184 325.323614 49.025844 Q 324.826458 49.149415 324.415515 49.433914 C 323.383846 50.152347 323.007387 50.974234 321.573395 50.241432 Q 321.156704 50.028776 318.984164 48.85342 Q 316.636326 47.588979 313.969504 47.180909 Q 312.998183 47.031475 309.130142 47.06596 Q 306.704713 47.086076 304.279284 46.9194 Q 306.727703 46.514204 309.216354 46.476845 Q 310.874496 46.450982 312.167675 46.255568 Q 313.636151 46.034291 315.110375 45.847498 Q 315.889156 45.749791 318.909447 44.496845 C 318.992785 44.46236 319.084745 44.470981 319.159462 44.519835 Q 320.820478 45.614726 322.406777 47.178035 Q 322.510231 47.28149 322.645297 47.232636 Q 323.697082 46.853304 324.493106 46.169356 Q 327.726052 43.381837 331.125676 40.798353 C 334.34138 38.358556 337.979523 36.226248 341.669393 34.392808 C 344.681063 32.898468 346.207014 32.016233 348.968669 31.918526 Q 349.661238 31.895536 352.003329 32.404186 Z" style="fill:#fbe47f;"/>
		<path d="M 179.134064 33.671502 Q 182.344021 34.944564 184.683238 35.151473 Q 190.016882 35.622765 194.448174 35.720471 Q 196.183908 35.760704 198.425418 35.398614 Q 197.278799 37.217685 194.882108 37.838411 C 191.197985 38.795363 188.194937 38.712025 184.025153 38.622939 Q 180.674384 38.551096 177.780537 37.757946 Q 176.289071 37.347003 174.938417 36.352692 Q 174.814847 36.260733 174.88669 36.125667 Q 175.030377 35.855537 175.41833 35.680239 L 179.134064 33.671502 Z" style="fill:#fbe47f;"/>
		<path d="M 356.908787 36.62857 Q 357.147306 37.016524 357.437553 37.697598 C 358.888787 41.131706 359.270993 44.968137 359.225014 48.675249 Q 359.147423 55.043436 359.012358 59.451739 Q 357.638714 104.434244 356.836944 123.748587 Q 356.74211 126.053319 355.7478 128.987398 L 353.928728 131.470302 Q 353.911486 131.493291 353.874127 131.478923 Q 353.833895 131.46168 353.859759 131.421448 Q 354.56957 130.412769 354.879933 129.343741 Q 354.983387 128.998893 354.678772 129.194307 C 348.034707 133.447428 340.117579 137.395934 332.502193 141.600202 Q 328.136996 144.008388 326.392641 144.703831 Q 322.880943 146.103338 321.622249 146.410827 Q 318.038707 147.290189 314.814381 148.646589 C 313.032668 149.393759 311.67052 149.669637 309.906049 149.6409 Q 305.856963 149.574804 302.29641 149.597794 Q 301.325089 149.603542 300.023289 149.089144 Q 303.124045 148.189666 304.540794 147.626415 Q 315.173597 143.387662 319.541668 132.987631 Q 321.435456 128.475874 322.105035 123.622143 C 323.016008 117.006815 323.128084 110.94037 323.455689 101.980078 Q 324.145384 83.137026 324.355166 78.631017 Q 324.501727 75.469913 324.725878 72.406516 Q 324.938534 69.46669 325.734557 65.193453 Q 327.076589 57.971768 331.622831 52.669735 Q 336.953601 46.448108 344.620715 42.640415 Q 345.50295 42.200734 345.853545 41.669094 Q 346.353574 40.910429 347.011659 38.964913 Q 347.968611 37.987845 349.029017 36.72053 Q 351.221674 34.102561 354.517843 35.122735 Q 355.931718 35.559543 356.681762 36.999282 Q 356.747858 37.128599 356.770848 36.982039 Q 356.808206 36.726277 356.908787 36.62857 Z" style="fill:#e39c17;"/>
		<path d="M 218.880632 43.051358 L 216.501183 43.11458 C 214.567162 41.683462 218.573143 38.447642 219.731256 37.599891 Q 221.260081 36.479136 223.036046 35.841168 C 223.630909 35.631386 224.355089 35.749209 224.544755 36.48201 C 225.125249 38.720646 223.780343 40.907555 221.892302 41.921982 Q 220.533027 42.649036 218.880632 43.051358 Z" style="fill:#f9af07;"/>
		<path d="M 149.356467 41.485175 Q 149.324856 41.048368 149.106453 40.993767 Q 145.586133 40.102911 140.703665 39.295392 C 137.953504 38.841343 135.062531 38.485 132.628482 39.939108 Q 132.381341 40.085668 132.28076 40.450632 Q 131.800847 42.160502 131.639918 43.893361 Q 131.588191 44.476729 131.539338 47.649327 Q 131.527843 48.393623 131.111152 48.525815 Q 130.947349 46.045786 131.02494 43.571503 Q 131.111152 40.829964 132.226159 38.645929 Q 132.973329 38.832722 133.841196 38.097047 Q 133.953271 38.005087 134.094084 37.97635 Q 135.84706 37.642997 136.473533 37.697598 Q 143.183694 38.263723 148.715625 39.999456 Q 149.698441 40.309819 149.356467 41.485175 Z" style="fill:#fbe47f;"/>
		<path d="M 149.356467 41.485175 L 150.445611 48.827557 Q 151.707179 56.986078 152.684247 65.187705 Q 154.885525 83.680162 156.285032 101.718569 Q 157.28509 114.615872 156.851157 127.369488 C 156.779314 129.409837 156.681607 132.205977 157.799488 133.743422 C 158.819662 135.148677 161.296818 135.792392 163.084279 136.022291 C 166.845992 136.507951 167.880535 133.835382 168.285731 130.789227 Q 168.564483 128.697152 168.619084 123.245685 C 168.777139 107.868352 168.285731 92.479525 167.515571 77.122308 Q 166.512639 57.112522 166.121812 50.689734 Q 165.857429 46.384886 166.322973 42.850197 Q 167.670753 42.789849 168.081696 42.827207 Q 171.067502 43.085843 174.053308 43.33011 C 176.562075 43.534145 181.306604 43.766917 184.927505 44.166366 Q 184.956242 44.169239 187.522484 44.379022 Q 189.094414 44.50834 190.695082 44.913536 Q 192.215286 45.295742 193.221091 45.361838 Q 198.117928 45.677948 198.54324 45.666453 Q 199.755955 45.629095 200.126666 45.531388 Q 202.353807 44.950894 203.213053 45.045727 Q 208.819701 45.677948 214.443592 45.376206 Q 216.567279 45.261257 217.702402 45.269878 Q 220.110589 45.287121 220.964087 45.321605 Q 222.329109 45.381954 222.826264 45.57162 Q 225.409748 46.563057 225.921272 46.672259 Q 227.56792 47.01998 229.927252 46.473971 Q 232.188878 45.950952 234.459126 45.439428 Q 235.108589 45.491156 235.766673 45.560125 Q 236.07991 45.59461 236.884554 45.755539 C 237.715062 45.922215 238.792711 45.91072 239.393321 45.97969 C 239.812886 46.025669 240.677879 46.152114 241.229635 46.106134 Q 244.913758 45.784276 246.178199 45.962447 Q 250.414078 46.565931 251.724499 46.591794 Q 281.479106 47.192404 288.059949 47.114813 Q 296.178238 47.017106 304.279284 46.9194 Q 306.704713 47.086076 309.130142 47.06596 Q 312.998183 47.031475 313.969504 47.180909 Q 316.636326 47.588979 318.984164 48.85342 Q 321.156704 50.028776 321.573395 50.241432 C 323.007387 50.974234 323.383846 50.152347 324.415515 49.433914 Q 324.826458 49.149415 325.323614 49.025844 Q 327.257634 48.540184 328.220334 48.402245 C 328.766343 48.32178 329.453165 48.850547 330.295168 49.356323 C 330.390001 49.410924 330.510697 49.399429 330.588288 49.321838 Q 331.312468 48.620648 331.987795 47.761403 Q 334.850031 44.117512 340.479669 40.746626 Q 343.758596 38.783868 347.011659 38.964913 Q 346.353574 40.910429 345.853545 41.669094 Q 345.50295 42.200734 344.620715 42.640415 Q 336.953601 46.448108 331.622831 52.669735 Q 327.076589 57.971768 325.734557 65.193453 Q 324.938534 69.46669 324.725878 72.406516 Q 324.501727 75.469913 324.355166 78.631017 Q 324.145384 83.137026 323.455689 101.980078 C 323.128084 110.94037 323.016008 117.006815 322.105035 123.622143 Q 321.435456 128.475874 319.541668 132.987631 Q 315.173597 143.387662 304.540794 147.626415 Q 303.124045 148.189666 300.023289 149.089144 Q 296.928282 149.73286 294.310313 149.844935 Q 289.011154 150.077707 281.234839 150.046096 Q 267.754168 149.991495 254.224645 149.876546 Q 233.688966 149.704122 212.842924 148.525893 Q 198.402428 147.712627 183.855603 145.75849 C 179.481785 145.172249 175.067735 144.126211 170.81174 144.085979 C 169.14785 144.068737 167.670753 143.726763 166.475281 142.620376 C 165.38901 141.617444 164.429184 140.769694 163.156122 140.223685 Q 160.80541 139.212132 157.583958 138.568416 Q 149.20416 136.898779 143.376234 135.539504 Q 142.407787 135.312479 140.186393 134.648648 Q 137.944883 133.979068 137.039658 132.915788 Q 136.939077 132.800839 136.918961 132.651405 Q 136.86436 132.269199 136.605725 132.013437 C 136.542503 131.950215 136.50227 131.866876 136.499397 131.777791 Q 136.470659 131.171434 136.076958 130.967399 Q 135.519455 128.697152 135.341283 126.188385 Q 134.967698 120.952448 134.778032 117.136133 Q 134.415942 109.934564 134.157306 105.799266 Q 134.056726 104.143997 133.450369 92.562863 Q 132.73481 78.878158 132.415825 72.159376 Q 132.286508 69.446574 132.096841 66.426283 Q 131.539338 57.471738 131.111152 48.525815 Q 131.527843 48.393623 131.539338 47.649327 Q 131.588191 44.476729 131.639918 43.893361 Q 131.800847 42.160502 132.28076 40.450632 Q 132.381341 40.085668 132.628482 39.939108 C 135.062531 38.485 137.953504 38.841343 140.703665 39.295392 Q 145.586133 40.102911 149.106453 40.993767 Q 149.324856 41.048368 149.356467 41.485175 Z M 223.64499 95.736927 C 228.668558 92.789888 230.323827 86.280888 227.342131 81.196856 C 224.360836 76.113629 217.869079 74.383643 212.846085 77.330625 C 207.822517 80.277665 206.167248 86.786664 209.148944 91.870696 C 212.130239 96.953923 218.621996 98.683909 223.64499 95.736927 Z M 284.40238 85.081421 C 283.255071 79.335081 277.651297 75.610726 271.891105 76.761856 C 266.130511 77.912584 262.388913 83.504864 263.537716 89.250572 C 264.685024 94.996913 270.288799 98.721268 276.048991 97.570137 C 281.809585 96.419409 285.551182 90.82713 284.40238 85.081421 Z M 248.649607 104.218714 C 246.143714 105.118192 243.497008 104.13825 241.695179 102.284694 C 240.057153 100.603561 239.43068 98.971282 238.706499 96.724025 C 238.186354 95.123357 236.347167 93.505446 234.611433 94.683676 C 233.413088 95.496942 233.301012 96.580338 233.441825 97.919497 Q 233.737819 100.724258 235.335613 103.393954 C 239.965193 111.124289 249.773236 112.713462 256.181655 106.098134 Q 259.187577 102.997379 259.986475 98.772995 C 260.362933 96.790121 260.110045 94.698045 257.914515 94.396303 C 256.420175 94.192268 255.118375 95.24118 254.701684 96.646434 C 253.693005 100.054679 252.152685 102.96002 248.649607 104.218714 Z M 206.035056 117.475233 Q 208.351283 117.515466 210.385884 117.130386 C 214.299905 116.391837 218.67085 113.911808 220.45831 110.288033 Q 220.978455 109.2305 221.01294 107.678686 C 221.056046 105.908468 219.941039 104.316421 218.653607 103.19854 C 215.222373 100.212734 210.759469 99.209802 206.348293 99.135085 C 201.934243 99.060368 197.439728 99.908118 193.910787 102.776101 C 192.585997 103.85375 191.416389 105.402691 191.399146 107.175783 Q 191.381904 108.727598 191.867564 109.802373 C 193.528581 113.483622 197.813313 116.110211 201.698597 116.983826 Q 203.718829 117.437875 206.035056 117.475233 Z M 287.057017 117.762607 Q 289.387612 117.808586 291.433709 117.42638 C 295.367846 116.693579 299.770401 114.213549 301.575104 110.575406 Q 302.100997 109.515 302.141229 107.954564 C 302.190082 106.172851 301.072201 104.572183 299.779022 103.442807 C 296.339167 100.431137 291.856147 99.413837 287.421981 99.324751 C 282.984941 99.238539 278.464562 100.080542 274.906884 102.951399 C 273.573473 104.031922 272.39237 105.58661 272.372254 107.368323 Q 272.349264 108.928759 272.834924 110.009281 C 274.493067 113.716394 278.795041 116.365973 282.697568 117.253956 Q 284.729295 117.716627 287.057017 117.762607 Z" style="fill:#face26;"/>
		<path d="M 216.501183 43.11458 L 218.880632 43.051358 Q 219.22548 43.631852 219.699645 43.614609 C 220.420952 43.59162 220.984203 43.577251 221.662403 43.749675 C 225.378137 44.692258 229.03927 44.698006 232.663044 44.749733 Q 233.105599 44.758354 233.585512 44.853187 Q 233.726324 44.881925 233.760809 45.019864 Q 233.895874 45.534261 234.459126 45.439428 Q 232.188878 45.950952 229.927252 46.473971 Q 227.56792 47.01998 225.921272 46.672259 Q 225.409748 46.563057 222.826264 45.57162 Q 222.329109 45.381954 220.964087 45.321605 Q 220.110589 45.287121 217.702402 45.269878 Q 216.567279 45.261257 214.443592 45.376206 Q 208.819701 45.677948 203.213053 45.045727 Q 202.353807 44.950894 200.126666 45.531388 Q 199.755955 45.629095 198.54324 45.666453 Q 198.117928 45.677948 193.221091 45.361838 Q 192.215286 45.295742 190.695082 44.913536 Q 189.094414 44.50834 187.522484 44.379022 Q 184.956242 44.169239 184.927505 44.166366 C 181.306604 43.766917 176.562075 43.534145 174.053308 43.33011 Q 171.067502 43.085843 168.081696 42.827207 Q 167.670753 42.789849 166.322973 42.850197 Q 166.380448 42.062795 166.851739 41.462185 Q 177.881117 42.255335 182.162976 42.396148 C 188.778304 42.614551 195.402253 42.835828 202.006086 43.298499 C 206.839701 43.640473 210.954883 43.465175 215.446524 43.514029 Q 216.504057 43.525524 216.501183 43.11458 Z" style="fill:#fbe47f;"/>
		<path d="M 355.7478 128.987398 Q 354.27645 133.269257 350.94867 136.085513 Q 349.485941 137.324091 346.10356 139.143162 Q 337.47662 143.77849 326.23746 149.626532 Q 319.800303 152.974428 313.156238 153.612396 Q 311.782595 153.744587 307.394408 153.73884 Q 248.120841 153.658376 184.895894 153.747461 C 179.955951 153.753209 175.564891 153.468709 171.124977 151.707112 Q 167.504076 150.267373 165.682131 146.497039 C 165.377516 145.867692 165.239576 145.853323 164.529765 145.749869 Q 154.448718 144.284266 145.022882 141.649055 C 139.640384 140.146094 137.180471 136.11425 136.076958 130.967399 Q 136.470659 131.171434 136.499397 131.777791 C 136.50227 131.866876 136.542503 131.950215 136.605725 132.013437 Q 136.86436 132.269199 136.918961 132.651405 Q 136.939077 132.800839 137.039658 132.915788 Q 137.944883 133.979068 140.186393 134.648648 Q 142.407787 135.312479 143.376234 135.539504 Q 149.20416 136.898779 157.583958 138.568416 Q 160.80541 139.212132 163.156122 140.223685 C 164.429184 140.769694 165.38901 141.617444 166.475281 142.620376 C 167.670753 143.726763 169.14785 144.068737 170.81174 144.085979 C 175.067735 144.126211 179.481785 145.172249 183.855603 145.75849 Q 198.402428 147.712627 212.842924 148.525893 Q 233.688966 149.704122 254.224645 149.876546 Q 267.754168 149.991495 281.234839 150.046096 Q 289.011154 150.077707 294.310313 149.844935 Q 296.928282 149.73286 300.023289 149.089144 Q 301.325089 149.603542 302.29641 149.597794 Q 305.856963 149.574804 309.906049 149.6409 C 311.67052 149.669637 313.032668 149.393759 314.814381 148.646589 Q 318.038707 147.290189 321.622249 146.410827 Q 322.880943 146.103338 326.392641 144.703831 Q 328.136996 144.008388 332.502193 141.600202 C 340.117579 137.395934 348.034707 133.447428 354.678772 129.194307 Q 354.983387 128.998893 354.879933 129.343741 Q 354.56957 130.412769 353.859759 131.421448 Q 353.833895 131.46168 353.874127 131.478923 Q 353.911486 131.493291 353.928728 131.470302 L 355.7478 128.987398 Z" style="fill:#d98c11;"/>
		<path d="M 247.293207 32.059339 Q 243.373438 32.033475 240.298546 29.688511 C 238.585803 28.383837 236.416136 26.107843 234.849953 24.216928 Q 233.763683 22.903633 233.332623 21.242617 Q 234.309692 19.914953 235.1402 19.449409 Q 240.968125 16.179103 247.10354 18.593037 Q 249.758867 19.639075 251.230217 21.486884 Q 252.468795 23.041572 252.500406 25.257218 Q 252.57225 30.40407 247.293207 32.059339 Z" style="fill:#f9af07;"/>
		<path d="M 233.332623 21.242617 Q 233.763683 22.903633 234.849953 24.216928 C 236.416136 26.107843 238.585803 28.383837 240.298546 29.688511 Q 243.373438 32.033475 247.293207 32.059339 Q 246.784556 32.303606 246.301769 32.507641 Q 245.795993 32.720297 245.267226 32.800761 Q 241.060085 33.430108 237.278255 31.622532 C 233.582638 29.855187 231.892884 25.800353 233.002144 21.843226 Q 233.050998 21.67655 233.148704 21.535737 Q 233.266527 21.366187 233.332623 21.242617 Z" style="fill:#fbe47f;"/>
		<path d="M 269.834749 32.294985 C 270.076143 30.493155 272.021658 29.613794 273.708538 29.289062 C 278.182937 28.435564 283.643025 30.286247 287.304158 32.812256 Q 287.591531 33.010543 288.140413 33.66288 C 289.235305 34.961807 289.203694 36.625697 287.973737 37.8068 C 285.982242 39.717831 281.41301 39.378731 278.881253 39.074115 Q 277.205868 38.87008 275.789119 38.266597 C 273.544736 37.306771 271.725664 36.33545 270.392253 34.338207 Q 269.702558 33.30079 269.834749 32.294985 Z" style="fill:#f9af07;"/>
		<path d="M 223.64499 95.736927 C 218.621996 98.683909 212.130239 96.953923 209.148944 91.870696 C 206.167248 86.786664 207.822517 80.277665 212.846085 77.330625 C 217.869079 74.383643 224.360836 76.113629 227.342131 81.196856 C 230.323827 86.280888 228.668558 92.789888 223.64499 95.736927 Z M 216.103516 87.826696 C 217.205247 86.493544 216.909253 84.430205 215.443047 83.21502 C 213.975174 82.001903 211.891719 82.096736 210.789299 83.430406 C 209.687568 84.763558 209.983562 86.826897 211.449768 88.042082 C 212.917641 89.255199 215.001096 89.160366 216.103516 87.826696 Z" style="fill:#382732;"/>
		<path d="M 284.40238 85.081421 C 285.551182 90.82713 281.809585 96.419409 276.048991 97.570137 C 270.288799 98.721268 264.685024 94.996913 263.537716 89.250572 C 262.388913 83.504864 266.130511 77.912584 271.891105 76.761856 C 277.651297 75.610726 283.255071 79.335081 284.40238 85.081421 Z M 272.001111 88.468716 C 273.156782 87.097027 272.898146 84.979088 271.426394 83.739475 C 269.952572 82.499058 267.823138 82.605386 266.668329 83.97811 C 265.512659 85.349799 265.771294 87.467738 267.243047 88.707351 C 268.716868 89.947768 270.846303 89.84144 272.001111 88.468716 Z" style="fill:#382732;"/>
		<path d="M 241.695179 102.284694 C 243.497008 104.13825 246.143714 105.118192 248.649607 104.218714 C 252.152685 102.96002 253.693005 100.054679 254.701684 96.646434 C 255.118375 95.24118 256.420175 94.192268 257.914515 94.396303 C 260.110045 94.698045 260.362933 96.790121 259.986475 98.772995 Q 259.187577 102.997379 256.181655 106.098134 C 249.773236 112.713462 239.965193 111.124289 235.335613 103.393954 Q 233.737819 100.724258 233.441825 97.919497 C 233.301012 96.580338 233.413088 95.496942 234.611433 94.683676 C 236.347167 93.505446 238.186354 95.123357 238.706499 96.724025 C 239.43068 98.971282 240.057153 100.603561 241.695179 102.284694 Z" style="fill:#382732;"/>
		<path d="M 206.035056 117.475233 Q 203.718829 117.437875 201.698597 116.983826 C 197.813313 116.110211 193.528581 113.483622 191.867564 109.802373 Q 191.381904 108.727598 191.399146 107.175783 C 191.416389 105.402691 192.585997 103.85375 193.910787 102.776101 C 197.439728 99.908118 201.934243 99.060368 206.348293 99.135085 C 210.759469 99.209802 215.222373 100.212734 218.653607 103.19854 C 219.941039 104.316421 221.056046 105.908468 221.01294 107.678686 Q 220.978455 109.2305 220.45831 110.288033 C 218.67085 113.911808 214.299905 116.391837 210.385884 117.130386 Q 208.351283 117.515466 206.035056 117.475233 Z" style="fill:#f0946c;"/>
		<path d="M 287.421981 99.324751 C 291.856147 99.413837 296.339167 100.431137 299.779022 103.442807 C 301.072201 104.572183 302.190082 106.172851 302.141229 107.954564 Q 302.100997 109.515 301.575104 110.575406 C 299.770401 114.213549 295.367846 116.693579 291.433709 117.42638 Q 289.387612 117.808586 287.057017 117.762607 Q 284.729295 117.716627 282.697568 117.253956 C 278.795041 116.365973 274.493067 113.716394 272.834924 110.009281 Q 272.349264 108.928759 272.372254 107.368323 C 272.39237 105.58661 273.573473 104.031922 274.906884 102.951399 C 278.464562 100.080542 282.984941 99.238539 287.421981 99.324751 Z" style="fill:#f0946c;"/>
		<path d="M 216.103516 87.826696 C 215.001096 89.160366 212.917641 89.255199 211.449768 88.042082 C 209.983562 86.826897 209.687568 84.763558 210.789299 83.430406 C 211.891719 82.096736 213.975174 82.001903 215.443047 83.21502 C 216.909253 84.430205 217.205247 86.493544 216.103516 87.826696 Z" style="fill:#fcf7d2;"/>
		<path d="M 272.001111 88.468716 C 270.846303 89.84144 268.716868 89.947768 267.243047 88.707351 C 265.771294 87.467738 265.512659 85.349799 266.668329 83.97811 C 267.823138 82.605386 269.952572 82.499058 271.426394 83.739475 C 272.898146 84.979088 273.156782 87.097027 272.001111 88.468716 Z" style="fill:#fcf7d2;"/>
	</g>
	<g id="surface4">
	</g>
</svg>
