<?xml version="1.0" encoding="utf-8"?>
<svg xmlns="http://www.w3.org/2000/svg" width="490pt" height="280pt" viewBox="0 0 490 280" version="1.1" xmlns:xlink="http://www.w3.org/1999/xlink">
	<g id="surface2">
		<path vector-effect="non-scaling-stroke" d="M 198.53122 116.240093 C 197.555069 117.00975 197.101125 118.17021 196.734215 119.393811 C 196.292217 120.863158 195.816087 122.70112 195.8195 124.395732 C 195.822913 126.160313 197.573841 127.167182 199.11657 127.358316 C 199.174593 127.365142 199.213843 127.300293 199.179712 127.25251 Q 198.956153 126.952155 198.831574 126.571593 Q 198.698463 126.172259 197.776922 124.911112 Q 197.203518 124.127802 197.348576 122.907614 Q 197.565309 121.088423 197.701833 118.842593 Q 197.710366 118.704362 197.80764 118.36817" style="fill:none;stroke-width:0.50;stroke:#7f7e7e;"/>
		<path vector-effect="non-scaling-stroke" d="M 197.841771 118.168503 L 198.157484 117.229896" style="fill:none;stroke-width:0.50;stroke:#7f7e7e;"/>
		<path vector-effect="non-scaling-stroke" d="M 275.935556 144.42048 L 275.920197 144.35563" style="fill:none;stroke-width:0.50;stroke:#7f7e7e;"/>
		<path vector-effect="non-scaling-stroke" d="M 275.850228 144.292488 Q 275.708584 144.178148 275.648855 144.307847 C 275.636909 144.331739 275.636909 144.362457 275.650561 144.386348 C 276.184714 145.408576 277.319574 146.536611 278.085819 147.173157 Q 278.846944 147.804583 279.340139 147.949641 C 280.41527 148.268767 281.608154 147.429141 282.766907 146.712387 Q 283.359082 146.347183 283.541684 145.992219 Q 284.251612 144.61844 284.929115 143.493819 C 284.992258 143.389719 284.934235 143.254901 284.816482 143.229302 C 284.263558 143.109843 283.917126 143.225889 283.459769 143.608158 C 282.082577 144.754965 280.572273 146.531491 278.544883 145.789139 Q 277.206942 145.299357 276.061841 144.444371" style="fill:none;stroke-width:0.50;stroke:#7f7e7e;"/>
		<path d="M 275.614723 141.12341 Q 275.751248 141.375981 275.739302 141.089279 C 275.700051 140.222348 275.713704 139.543138 275.595951 138.804198 Q 275.066918 135.532727 274.164149 132.295387 Q 273.466167 129.788454 272.602649 127.100626 Q 272.106041 125.554485 271.484854 123.880352 Q 270.536008 121.329048 269.556444 118.467151 Q 269.286808 117.680428 268.863581 116.671852 Q 268.297004 115.323671 268.143414 114.888499 Q 267.730427 113.72292 267.675817 113.350891 Q 267.628033 113.023232 267.58025 112.844043 Q 267.491509 112.512971 267.484683 112.347435 C 267.450551 111.64092 267.310614 110.777402 267.382289 109.951428 C 267.457378 109.096443 267.433486 108.323372 267.583663 107.656108 C 267.687763 107.19875 267.645099 106.722621 267.749199 106.135565 Q 267.952279 104.998998 268.025661 104.43242 Q 268.032488 104.379517 268.059793 104.336853 Q 268.073445 104.318081 268.099043 104.280537 Q 268.117816 104.253232 268.124642 104.219101 Q 268.52227 102.391378 268.778253 100.736017 C 268.861875 100.191625 268.875527 99.461218 268.831157 98.944131 Q 268.711698 97.589124 267.494922 96.894555 C 266.459041 96.30238 265.945368 96.002026 265.276397 95.66754 Q 264.902661 95.479819 264.643264 95.315989 C 264.356562 95.133388 263.815584 94.98833 263.453793 94.788663 Q 262.798475 94.425166 262.124385 94.203314 C 262.056123 94.181129 261.996393 94.117986 261.919598 94.083855 Q 259.134496 92.786871 257.56617 91.959191 Q 257.45695 91.901168 256.915971 91.648597 C 256.61903 91.510366 256.327209 91.317525 256.072932 91.194653 Q 253.724708 90.046139 251.325288 88.674067 C 251.159752 88.580206 250.951552 88.680893 250.924247 88.868615 Q 250.900355 89.023911 250.775777 89.291841 Q 249.56924 91.882395 248.432673 93.873948 Q 248.234712 94.218673 248.050404 94.425166 C 247.850737 94.645312 247.75005 94.935427 247.552089 95.172639 C 247.110091 95.705085 246.787551 96.206813 246.248279 96.758031 Q 244.398371 98.650603 243.988797 98.976556 Q 243.062136 99.713789 242.137182 100.451021 Q 242.128649 100.457848 240.350416 101.817974 C 238.570476 103.178101 237.145501 104.683284 235.677861 106.393255 Q 235.133469 107.024682 234.769972 107.309677 Q 234.007141 107.906972 233.691428 108.028137 Q 233.553197 108.081041 232.373965 108.311426 C 231.532632 108.475256 230.751029 108.287534 229.940414 108.519626 Q 228.948904 108.802915 228.520558 108.93432 Q 228.001765 109.091323 226.450504 109.919003 Q 225.645008 110.349056 224.486256 111.098235 Q 221.453703 113.055656 220.704524 113.412327 Q 219.870017 113.809955 219.624273 113.939653 Q 217.494489 115.060862 217.229973 115.229811 Q 216.726538 115.55235 215.905684 115.900488 C 215.796464 115.948272 215.651407 116.091622 215.528535 116.156472 Q 213.379979 117.296452 210.975439 118.738493 Q 209.494147 119.625903 208.255186 120.625946 Q 206.185131 122.298373 204.913746 124.368427 Q 203.824962 126.138127 203.398323 126.866827 Q 203.217428 127.175714 203.456346 127.4061 C 203.49389 127.441937 203.516075 127.491428 203.517782 127.544331 C 203.568979 129.104125 202.03649 129.409598 200.857258 129.075113 C 200.758278 129.046102 200.652472 129.087059 200.597862 129.174093 C 199.882814 130.305541 199.309411 131.184418 198.522688 132.187874 Q 196.624995 134.607773 196.174464 135.380844 Q 195.077148 137.264883 194.35698 138.891233 Q 193.928634 139.865677 193.087301 140.39471 Q 192.797187 140.577312 192.218664 140.565366 C 191.489963 140.550007 191.008714 139.394667 190.930213 138.838329 Q 190.55989 136.242655 190.535998 135.539554 Q 190.459203 133.394411 190.546237 132.667417 C 190.640098 131.88752 191.114521 131.027415 191.368798 130.33114 Q 191.715229 129.380587 191.742534 129.293552 Q 191.996811 128.465872 192.042888 127.549451 C 192.0719 126.947036 191.904657 126.286598 191.879059 125.62104 Q 191.865406 125.247304 191.793731 124.849676 Q 191.518975 123.305242 191.111108 120.765884 Q 190.70836 118.26919 190.884135 115.990936 Q 190.977996 114.753681 191.428527 113.325292 C 191.679391 112.53345 192.298872 112.093158 193.147031 112.188725 Q 193.800643 112.263814 194.256293 112.458361 Q 195.024244 112.787727 195.073735 112.806499 C 195.549864 112.997633 195.940666 113.275802 196.369012 113.444751 Q 196.669366 113.562504 197.572135 114.047166 Q 198.305955 114.441381 200.835073 115.56259 Q 200.981837 115.627439 201.360693 116.096742 Q 201.408477 116.156472 201.422129 116.229854 L 201.483565 116.569459 C 201.500631 116.665026 201.606437 116.716223 201.691765 116.670145 Q 202.836865 116.071144 203.560446 115.545524 C 204.353995 114.970414 205.2141 114.414076 206.050313 113.710974 Q 208.722783 111.466851 210.96008 108.867764 Q 211.130736 108.668097 211.898687 107.552008 Q 212.224639 107.079291 212.692236 106.147511 Q 213.246867 105.039955 213.564287 104.562119 C 213.946556 103.981889 214.255443 103.620099 214.929533 103.215645 Q 215.903977 102.630296 216.685581 102.304343 Q 217.055904 102.150753 217.130992 102.104676 C 217.485956 101.88453 217.839214 101.831627 218.21807 101.62684 C 218.767581 101.331605 219.114012 101.241158 219.953639 100.916912 Q 220.445127 100.725777 221.090206 100.592666 Q 221.934952 100.418597 222.257492 100.387879 C 223.131249 100.304257 223.827525 100.177972 224.866818 100.012436 Q 225.563094 99.899803 226.35835 99.732561 Q 227.76114 99.433913 228.626365 98.507252 Q 229.737334 97.314368 230.351694 95.858675 Q 230.431903 95.67266 231.075275 93.452428 Q 231.860291 90.745828 233.220418 88.513651 C 233.471282 88.10237 233.756277 87.747406 234.044685 87.301995 Q 234.215341 87.040891 234.38941 86.830985 Q 235.662502 85.300203 236.853679 84.068068 Q 238.056802 82.820574 238.45443 82.131125 Q 239.178011 80.878512 239.476658 79.806793 Q 239.541508 79.578115 239.304296 79.149769 C 239.148999 78.868187 239.121694 78.639508 238.973224 78.298196 C 238.855471 78.02856 238.872537 77.784523 238.705294 77.560964 Q 238.652391 77.490995 238.650684 77.40396 C 238.637032 76.970495 238.50392 76.629183 238.471496 76.14964 Q 238.294014 73.59151 239.005648 71.166492 C 239.24286 70.355877 239.568812 69.693733 239.829916 68.939434 Q 239.97668 68.512795 240.198532 68.065677 Q 241.418721 65.604821 243.403447 63.493809 C 244.456394 62.376013 245.71242 61.469831 246.958207 60.606313 Q 247.156168 60.469789 247.243202 60.261589 C 247.652776 59.283731 247.982142 58.647185 248.224473 57.790493 Q 248.990717 55.066827 249.222809 53.653797 Q 249.280832 53.298833 249.724537 49.839641 C 249.919085 48.317391 249.919085 46.503321 249.907139 45.279719 C 249.896899 44.31722 250.084621 43.448582 250.072675 42.429768 Q 250.069262 41.991182 250.169949 41.2932 Q 250.712634 37.533654 251.487411 34.036917 C 251.516423 33.903805 251.436214 33.772401 251.304809 33.736563 Q 250.695568 33.56932 250.120458 33.477166 C 249.791093 33.422556 249.473673 33.243368 249.16308 33.20241 Q 247.171527 32.948133 244.816477 32.784304 Q 244.459807 32.760412 244.053646 32.690443 C 243.592875 32.611941 243.103093 32.656312 242.623551 32.526613 C 242.224216 32.417394 241.768565 32.506135 241.357285 32.354251 C 241.094475 32.258684 240.802654 32.342305 240.531311 32.262097 Q 240.034703 32.115333 239.440821 32.099974 C 239.140466 32.093148 238.884483 31.942971 238.556824 31.942971 C 238.502214 31.944677 238.456137 31.983928 238.447604 32.038538 Q 238.288894 33.161453 238.049976 34.170028 C 237.831537 35.09157 237.710371 35.905598 237.478279 36.862976 Q 237.060173 38.595132 236.880984 39.762418 Q 236.841733 40.020108 236.819548 40.074718 C 236.713741 40.352887 236.792243 40.636175 236.688143 40.892159 Q 236.599402 41.107185 236.597696 41.390474 C 236.597696 41.875136 236.478237 42.349559 236.452638 42.748894 Q 236.278569 45.424776 236.517487 47.441927 Q 236.53114 47.546027 236.539673 47.650127 Q 236.749579 50.327716 236.741046 50.6878 Q 236.725687 51.232192 236.968019 51.616167 Q 237.515824 52.481392 237.531183 52.501871 Q 238.940799 54.285224 239.39133 56.438899 Q 239.464712 56.788744 239.521029 57.005477 Q 239.626835 57.413344 239.640488 57.572054 C 239.676326 57.998693 239.788958 58.502128 239.433994 58.855385 C 239.39645 58.892929 239.343547 58.915115 239.290644 58.916821 C 238.609727 58.935593 238.288894 59.478279 237.869081 60.055095 C 237.293971 60.843525 236.413387 60.9152 235.642023 61.143879 C 235.287059 61.249685 235.126643 61.573931 234.824582 61.602943 C 234.087349 61.676325 232.624829 61.819676 232.003642 61.352079 Q 231.292008 60.81622 230.967762 60.302546 Q 229.59057 58.114739 229.180996 57.073739 Q 228.750943 55.984955 229.148571 54.744288 Q 229.27315 54.356899 229.991611 53.751071 Q 231.223745 52.710071 231.565057 52.378999 Q 232.077024 51.88239 231.9405 51.220246 Q 231.807388 50.585407 231.805682 50.568341 Q 231.636732 48.825946 231.6282 47.078431 Q 231.626493 46.552811 231.527513 46.139824 Q 231.507034 46.056203 231.431945 45.199511 Q 231.41488 45.011789 231.368803 44.822361 Q 231.111113 43.772828 230.619624 39.183895 Q 230.431903 37.43638 230.425076 35.784432 Q 230.414837 33.156333 230.484806 31.859349 Q 230.554775 30.593084 230.84489 28.563987 Q 231.044557 27.168022 231.088927 27.046857 Q 231.368803 26.260134 232.245974 25.886398 C 233.450803 25.371017 234.790451 24.935845 236.785417 24.285646 Q 237.529476 24.041609 238.109706 23.910204 C 238.761611 23.761733 239.271871 23.589371 239.903298 23.582545 Q 240.701967 23.574012 244.079244 23.585958 Q 244.842076 23.587664 245.528112 23.686645 C 246.176604 23.780505 247.017937 23.724189 247.789301 23.799278 C 248.386596 23.8573 248.640873 23.662753 249.156253 23.565479 Q 250.678503 23.282191 251.635882 23.147373 Q 253.141066 22.935759 254.557508 23.201982 Q 255.250371 23.333387 256.192391 23.568892 Q 256.400591 23.620089 256.762381 23.800984 Q 257.020071 23.928976 257.351143 24.012597 Q 257.373329 24.017717 257.97233 24.213971 C 258.491124 24.384627 259.07818 24.193492 259.550896 23.959694 C 261.709692 22.901628 263.472566 21.067079 263.585198 18.58745 Q 263.627862 17.66079 263.233648 16.203389 Q 262.900869 14.978081 262.540785 13.853459 Q 262.4145 13.457538 262.189234 12.483094 Q 261.996393 11.641761 261.996393 11.093956 C 261.996393 9.749188 262.006633 8.459031 262.67219 7.203004 Q 263.46062 5.713179 264.702994 4.776279 C 265.272984 4.346227 265.858333 4.153386 266.361768 3.897402 Q 266.609219 3.771117 266.832778 3.757464 C 267.061456 3.745518 267.230406 3.603874 267.479563 3.573156 Q 269.419919 3.334238 270.640108 3.451991 Q 271.102585 3.496361 272.59241 3.735279 Q 273.106084 3.817194 273.996907 4.040753 Q 274.850186 4.255779 275.409936 4.330868 C 275.467959 4.339401 275.531102 4.388891 275.602777 4.411076 Q 275.814391 4.479338 277.659179 4.76092 Q 278.241116 4.849661 279.433999 4.755801 C 280.253147 4.692658 280.164406 5.474261 280.278745 6.025479 Q 280.297518 6.11934 280.391378 6.102275 L 280.818018 6.025479 C 280.899932 6.01012 280.976728 6.06985 280.981847 6.153471 C 281.021098 6.738821 281.041577 7.206417 280.775354 7.689373 Q 280.210483 8.711601 279.072209 9.10411 C 278.951044 9.146773 278.887901 9.279885 278.930565 9.399344 Q 279.642199 11.396016 279.427173 13.554812 C 279.384509 13.986571 279.014186 14.348361 279.096101 14.73063 Q 279.413521 16.234107 279.775311 16.746075 Q 280.294104 17.479895 280.224136 18.348532 C 280.205363 18.575505 280.036414 18.761519 279.812855 18.802477 L 279.183135 18.916816 Q 279.092688 18.932175 279.058557 19.01921 C 278.915206 19.384413 279.10634 19.848597 278.790627 20.167723 Q 278.353748 20.608015 278.143842 20.811095 Q 278.080699 20.870825 278.084112 20.957859 C 278.102884 21.406684 278.160907 21.604644 277.973186 21.952782 C 277.746214 22.370889 277.619929 22.56373 277.54996 22.959651 C 277.394663 23.860714 277.017514 24.985335 275.841696 24.731058 Q 275.102756 24.572348 274.643692 24.587707 C 274.590789 24.589414 274.537885 24.570642 274.496928 24.534804 Q 274.459384 24.502379 274.413307 24.471661 Q 274.370643 24.444356 274.281902 24.440943 C 273.804066 24.423878 273.049767 24.347083 272.556572 24.584294 C 271.877362 24.910247 271.303959 25.500716 270.950701 26.173099 Q 270.276611 27.459844 270.23736 27.691936 C 270.116195 28.439408 269.759524 29.13739 270.467745 29.830252 Q 270.634988 29.994082 271.172554 30.547007 C 271.397819 30.779098 271.720359 31.374687 271.742544 31.709172 C 271.785208 32.396915 271.829578 33.181932 271.641857 33.838956 C 271.33809 34.893609 271.353449 35.693984 271.394406 36.91588 C 271.450723 38.63097 271.464375 39.972324 271.396113 41.023564 C 271.379047 41.276135 271.281773 41.622566 271.22887 41.97753 Q 271.138423 42.588477 270.889265 43.040715 C 270.730555 43.32571 270.704957 43.634597 270.541127 43.958843 Q 269.51378 45.989647 268.015422 47.660367 Q 267.607555 48.114311 267.046097 48.573375 C 266.969302 48.636518 266.996607 48.757683 267.092174 48.783282 Q 268.116109 49.054624 269.310699 49.588777 C 271.073573 50.378913 272.921775 51.145158 274.432079 51.791943 C 274.83824 51.964305 275.258053 52.044513 275.669333 52.198104 Q 276.066961 52.346574 276.723986 52.104243 Q 276.807607 52.073525 276.838325 51.988197 C 276.92024 51.757812 277.152332 51.522307 277.270084 51.233899 Q 277.671125 50.250921 278.242822 49.469318 Q 278.517578 49.095582 279.21044 48.590441 Q 279.720701 48.216705 280.497185 47.344654 C 280.749755 47.061365 281.026218 46.900949 281.439205 46.900949 Q 282.620143 46.900949 283.664556 47.14328 Q 284.116794 47.24738 284.38131 47.5648 Q 284.79259 48.056288 284.959833 48.569962 C 285.108304 49.020493 285.021269 49.694583 285.075879 50.129756 Q 285.087825 50.22191 285.1595 50.281639 L 285.381353 50.464241 C 285.418897 50.494959 285.444495 50.537623 285.453028 50.585407 Q 285.560541 51.160517 285.389886 51.708322 Q 285.365994 51.78853 285.301145 51.841433 Q 284.929115 52.146907 285.130489 52.611091 Q 285.384766 53.201559 285.11001 53.684515 Q 284.85232 54.140166 284.814776 54.247679 C 284.609989 54.851801 284.422267 55.623165 283.879582 55.827952 C 283.162828 56.099294 282.580892 56.176089 281.88291 56.348452 Q 281.2037 56.517401 280.693439 56.536173 Q 278.785507 56.609555 276.568689 56.672698 C 274.116366 56.742667 271.720359 56.886017 269.228785 56.993531 Q 266.80206 57.097631 266.073359 57.012303 Q 264.692754 56.85018 263.289964 56.867245 C 263.228528 56.868952 263.172211 56.903083 263.144907 56.957693 L 262.620993 58.007226 Q 262.586862 58.073782 262.5186 58.136924 Q 262.496415 58.159109 262.472523 58.200067 Q 261.667028 59.631869 260.045798 61.997158 Q 259.315391 63.058637 258.417742 65.215725 C 258.221488 65.685029 258.219781 66.098016 258.044006 66.55708 Q 257.897242 66.937642 257.905774 67.222637 C 257.912601 67.505926 257.781196 67.782388 257.765837 68.132232 C 257.736825 68.790964 257.765837 69.601579 257.683922 70.326866 Q 257.542278 71.611904 257.533745 72.35255 Q 257.532038 72.50102 257.740238 72.569282 Q 257.832393 72.6 257.87847 72.681915 Q 257.936493 72.782602 258.151519 72.932779 C 259.291499 73.731448 260.648213 74.874842 261.757475 75.717881 Q 264.791735 78.023441 266.046055 79.054201 C 267.597315 80.329 269.314112 82.0987 270.873906 83.528796 C 272.146998 84.696081 273.556615 86.141535 274.99183 87.419747 Q 276.879283 89.102413 277.084069 89.290134 C 277.548253 89.713361 277.993665 90.278231 278.345216 90.694631 Q 278.677994 91.08714 278.889608 91.484768 C 279.121699 91.921646 279.353791 92.17763 279.490316 92.640107 Q 279.550045 92.841481 279.737767 93.27324 Q 279.915249 93.682814 279.99887 94.153824 C 280.1627 95.09243 280.14734 95.788706 280.123449 97.003775 Q 280.10297 98.010644 279.911836 98.759823 Q 279.464717 100.498805 279.050024 101.686569 C 278.730898 102.602991 278.623385 103.456269 278.389586 104.509216 Q 278.302552 104.898311 278.247942 105.756709 Q 278.222343 106.152631 278.32303 107.004203 Q 278.418598 107.804578 278.422011 108.949679 C 278.422011 109.260272 278.572188 109.582812 278.561948 109.908764 Q 278.527817 111.014613 278.718952 113.506188 C 278.790627 114.449914 278.691647 115.960217 278.860596 117.136036 C 278.954457 117.796474 278.882781 118.530293 278.976642 119.240221 C 279.109753 120.228318 279.068796 121.450213 279.203614 122.516812 C 279.27529 123.079976 279.236039 123.781371 279.348672 124.470821 Q 279.485196 125.301914 279.589296 126.523809 Q 279.633667 127.03919 279.725821 127.371969 C 279.824801 127.732052 279.806029 128.092136 279.911836 128.511949 Q 280.005696 128.880566 280.300931 130.223626 Q 280.688319 131.988207 281.649111 134.513912 Q 282.362452 136.389419 283.010944 137.345092 Q 283.365908 137.870711 284.384723 138.648902 Q 284.806243 138.969734 285.029802 139.302513 Q 285.355754 139.785469 285.439376 139.921994 Q 285.642456 140.254772 285.934278 140.447613 C 287.193717 141.280414 288.101606 141.886241 289.282544 142.290696 Q 289.666519 142.422101 290.373034 142.732694 Q 291.024939 143.019396 292.606918 143.68154 Q 293.407294 144.017732 294.274225 144.068929 Q 294.990979 144.109886 297.296538 143.978481 C 297.689047 143.956296 298.67373 143.963122 298.955312 144.21228 C 299.387072 144.592842 299.453627 145.019481 299.533836 145.601418 Q 299.56626 145.830096 299.508237 145.97686 C 299.378539 146.301106 299.470693 146.664603 299.281265 146.920587 C 299.085011 147.188516 298.89729 147.552013 298.658371 147.797757 Q 298.023532 148.447956 297.134415 148.673221 Q 297.064447 148.690287 297.006424 148.739777 C 296.95864 148.780734 296.919389 148.813159 296.915976 148.813159 L 290.917426 149.89853 C 290.908893 149.900236 290.90036 149.903649 290.891828 149.908769 C 290.678508 150.048707 290.410578 150.047 290.209204 150.105023 Q 289.106768 150.424149 288.548724 150.543608 Q 288.287621 150.599925 287.878047 150.734743 Q 287.388265 150.893453 287.192011 150.895159 C 285.712425 150.898572 284.120207 150.832017 282.6611 151.031684 Q 281.14909 151.238177 280.512544 151.332038 Q 279.500555 151.482215 278.420304 151.354223 C 277.498763 151.245004 276.872456 151.284255 276.078907 151.149436 Q 275.790499 151.099946 275.094223 151.060695 Q 274.218759 151.011205 274.10442 150.966835 Q 272.834741 150.471933 273.230662 149.369497 Q 273.520777 148.555469 273.52419 148.545229 C 273.723857 147.741441 273.901339 147.033219 273.978135 146.171408 C 274.022505 145.654321 274.131725 145.142353 274.124899 144.635506 Q 274.116366 144.121832 274.140258 143.132029 C 274.150497 142.683204 274.273369 142.357251 274.346751 141.923786 Q 274.406481 141.579061 274.174389 141.474961 Q 274.09418 141.44083 274.041277 141.369155 L 273.343295 140.423722 C 273.276739 140.333274 273.26138 140.213815 273.302338 140.108008 Q 273.612931 139.326405 274.355284 139.652357 C 274.928687 139.904928 275.307543 140.551713 275.614723 141.12341 Z M 198.53122 116.240093 C 197.555069 117.00975 197.101125 118.17021 196.734215 119.393811 C 196.292217 120.863158 195.816087 122.70112 195.8195 124.395732 C 195.822913 126.160313 197.573841 127.167182 199.11657 127.358316 C 199.174593 127.365142 199.213843 127.300293 199.179712 127.25251 Q 198.956153 126.952155 198.831574 126.571593 Q 198.698463 126.172259 197.776922 124.911112 Q 197.203518 124.127802 197.348576 122.907614 Q 197.565309 121.088423 197.701833 118.842593 Q 197.710366 118.704362 197.80764 118.36817 Q 197.843478 118.282842 197.841771 118.168503 L 198.157484 117.229896 L 198.684811 116.407336 C 198.734301 116.33054 198.705289 116.229854 198.625081 116.199136 Q 198.613135 116.194016 198.53122 116.240093 Z M 274.954132 141.144998 C 275.054972 141.051735 274.930394 140.751381 274.675502 140.47212 C 274.420133 140.193336 274.131725 140.043159 274.029485 140.135911 C 273.928644 140.229174 274.053223 140.529528 274.308115 140.808789 C 274.563484 141.087572 274.851892 141.23775 274.954132 141.144998 Z M 276.061841 144.444371 Q 276.043069 144.488742 275.935556 144.42048 L 275.920197 144.35563 Q 275.904838 144.294194 275.850228 144.292488 Q 275.708584 144.178148 275.648855 144.307847 C 275.636909 144.331739 275.636909 144.362457 275.650561 144.386348 C 276.184714 145.408576 277.319574 146.536611 278.085819 147.173157 Q 278.846944 147.804583 279.340139 147.949641 C 280.41527 148.268767 281.608154 147.429141 282.766907 146.712387 Q 283.359082 146.347183 283.541684 145.992219 Q 284.251612 144.61844 284.929115 143.493819 C 284.992258 143.389719 284.934235 143.254901 284.816482 143.229302 C 284.263558 143.109843 283.917126 143.225889 283.459769 143.608158 C 282.082577 144.754965 280.572273 146.531491 278.544883 145.789139 Q 277.206942 145.299357 276.061841 144.444371 Z" style="fill:#040303;"/>
		<path d="M 198.53122 116.240093 C 198.06533 116.950021 197.512405 117.182113 197.642104 118.171916 Q 197.64893 118.228233 197.70354 118.211167 Q 197.730845 118.202634 197.734258 118.163383 Q 197.797401 117.58998 198.157484 117.229896 L 197.841771 118.168503 Q 197.80764 118.252124 197.80764 118.36817 Q 197.710366 118.704362 197.701833 118.842593 Q 197.565309 121.088423 197.348576 122.907614 Q 197.203518 124.127802 197.776922 124.911112 Q 198.698463 126.172259 198.831574 126.571593 Q 198.956153 126.952155 199.179712 127.25251 C 199.213843 127.300293 199.174593 127.365142 199.11657 127.358316 C 197.573841 127.167182 195.822913 126.160313 195.8195 124.395732 C 195.816087 122.70112 196.292217 120.863158 196.734215 119.393811 C 197.101125 118.17021 197.555069 117.00975 198.53122 116.240093 Z" style="fill:#faf9f9;"/>
		<path d="M 275.850228 144.292488 L 275.920197 144.35563 L 275.935556 144.42048 Q 275.906545 144.427306 275.889479 144.440958 Q 275.857055 144.466557 275.87412 144.502394 Q 275.898012 144.551885 275.938969 144.587722 Q 276.003818 144.647452 276.02771 144.562124 L 276.061841 144.444371 Q 277.206942 145.299357 278.544883 145.789139 C 280.572273 146.531491 282.082577 144.754965 283.459769 143.608158 C 283.917126 143.225889 284.263558 143.109843 284.816482 143.229302 C 284.934235 143.254901 284.992258 143.389719 284.929115 143.493819 Q 284.251612 144.61844 283.541684 145.992219 Q 283.359082 146.347183 282.766907 146.712387 C 281.608154 147.429141 280.41527 148.268767 279.340139 147.949641 Q 278.846944 147.804583 278.085819 147.173157 C 277.319574 146.536611 276.184714 145.408576 275.650561 144.386348 C 275.636909 144.362457 275.636909 144.331739 275.648855 144.307847 Q 275.708584 144.178148 275.850228 144.292488 Z" style="fill:#faf9f9;"/>
	</g>
	<g id="surface4">
	</g>
</svg>
