<?xml version="1.0" encoding="utf-8"?>
<svg xmlns="http://www.w3.org/2000/svg" width="490pt" height="280pt" viewBox="0 0 490 280" version="1.1" xmlns:xlink="http://www.w3.org/1999/xlink">
	<g id="surface2">
		<path vector-effect="non-scaling-stroke" d="M 258.206503 4.607678 L 258.222259 16.059983 C 258.222259 16.251305 258.060198 16.404362 257.868876 16.393108 Q 254.798722 16.21079 252.149476 17.907928 Q 247.206618 21.072617 243.713305 23.827653 C 240.956018 26.00197 239.130582 28.946077 237.600007 32.099513 Q 237.458204 32.394373 236.974272 32.297587" style="fill:none;stroke-width:0.50;stroke:#82aeaf;"/>
		<path stroke-opacity="0.757" vector-effect="non-scaling-stroke" d="M 232.747183 32.234563 L 230.980268 32.25257" style="fill:none;stroke-width:0.50;stroke:#4b93a9;"/>
		<path vector-effect="non-scaling-stroke" d="M 230.980268 32.25257 Q 229.638764 29.27245 227.759308 27.309712 C 226.071173 25.547299 223.520964 24.045985 221.047284 23.865917 Q 220.606118 23.834405 220.761427 24.009971" style="fill:none;stroke-width:0.50;stroke:#82aeaf;"/>
		<path vector-effect="non-scaling-stroke" d="M 214.056156 22.670718 Q 214.245227 22.396115 214.112427 22.175532 Q 214.026895 22.035979 213.750041 21.945946 Q 210.486314 20.881295 207.184323 19.933689 Q 206.891713 19.848157 206.567591 19.258435" style="fill:none;stroke-width:0.50;stroke:#82aeaf;"/>
		<path stroke-opacity="0.757" vector-effect="non-scaling-stroke" d="M 230.980268 32.25257 Q 230.77094 32.961587 230.237489 32.808529" style="fill:none;stroke-width:0.50;stroke:#ece6cb;"/>
		<path vector-effect="non-scaling-stroke" d="M 258.762462 6.018958 L 258.99655 6.286809 Q 259.070828 6.37009 259.070828 6.482633 L 259.070828 15.821393 C 259.070828 15.884417 259.120347 15.933936 259.18337 15.933936 L 261.238393 15.933936 C 261.341932 15.933936 261.425213 15.850654 261.427464 15.747115 L 261.555762 6.307067" style="fill:none;stroke-width:0.50;stroke:#82aeaf;"/>
		<path vector-effect="non-scaling-stroke" d="M 261.555762 6.307067 Q 261.958664 7.914171 261.819111 9.471756 Q 261.812359 9.552787 261.843871 9.597804 Q 261.89564 9.672082 261.951911 9.672082 Q 261.996928 9.672082 262.02844 9.638319 Q 262.071206 9.591051 262.077959 9.586549 Q 262.156738 9.539282 262.16124 9.654075 L 262.213009 11.011335" style="fill:none;stroke-width:0.50;stroke:#f6d4a0;"/>
		<path vector-effect="non-scaling-stroke" d="M 262.213009 11.011335 L 262.149986 17.264186" style="fill:none;stroke-width:0.50;stroke:#82aeaf;"/>
		<path vector-effect="non-scaling-stroke" d="M 259.295913 17.219169 Q 255.181366 16.58443 252.102209 19.044605 Q 251.442711 19.573554 251.345924 20.453635 C 251.264894 21.196414 251.397694 22.587437 251.667795 23.440507 C 253.662045 29.772138 258.01293 35.036867 263.550012 38.759766 Q 265.463231 40.044999 267.691569 40.805785 Q 268.209263 40.983602 268.186755 41.199683" style="fill:none;stroke-width:0.50;stroke:#82aeaf;"/>
		<path stroke-opacity="0.757" vector-effect="non-scaling-stroke" d="M 263.329429 39.209935 L 263.439721 39.19643 Q 263.610785 39.173922 263.468982 39.074885 L 261.936155 37.987726 Q 261.850623 37.926953 261.780847 38.003482 Q 261.677308 38.122777 261.623288 37.875184 C 261.609783 37.81216 261.551261 37.746885 261.465728 37.699618 Q 261.407206 37.668106 260.959288 37.494791 Q 260.862502 37.456526 260.824237 37.379998 Q 260.788224 37.30572 260.848997 37.364242 Q 260.952536 37.46553 261.078583 37.474533 Q 261.220386 37.483536 261.137105 37.35974 Q 261.089837 37.289964 260.914271 37.238194 Q 260.80398 37.206682 260.731953 37.118899 C 260.171492 36.436893 259.397201 36.193802 258.791723 35.610832 Q 258.310042 35.144907 257.7991 34.784772 Q 257.614531 34.654223 257.787846 34.714996 Q 257.823859 34.728501 257.855371 34.769016 Q 257.882381 34.80503 257.880131 34.773518 Q 257.880131 34.762263 257.882381 34.748758 Q 257.889134 34.714996 257.844117 34.701491 L 257.263399 34.521423" style="fill:none;stroke-width:0.50;stroke:#ece6cb;"/>
		<path vector-effect="non-scaling-stroke" d="M 249.680298 24.660466 L 249.304407 24.624452" style="fill:none;stroke-width:0.50;stroke:#82aeaf;"/>
		<path stroke-opacity="0.757" vector-effect="non-scaling-stroke" d="M 240.708425 33.666101 Q 239.533484 33.857423 238.333783 33.71562 Q 238.223491 33.702115 238.119952 33.648095 C 238.052427 33.614332 237.9804 33.596325 237.906122 33.598576 L 232.346532 33.627837" style="fill:none;stroke-width:0.50;stroke:#4b93a9;"/>
		<path stroke-opacity="0.753" vector-effect="non-scaling-stroke" d="M 232.346532 33.627837 Q 231.079306 33.429763 229.758059 33.55581" style="fill:none;stroke-width:0.50;stroke:#e3c695;"/>
		<path vector-effect="non-scaling-stroke" d="M 268.733711 38.773271 Q 269.350442 39.245949 269.69032 39.813162 Q 269.748842 39.909949 269.746591 40.022491 L 269.733086 40.76527" style="fill:none;stroke-width:0.50;stroke:#1f91ae;"/>
		<path vector-effect="non-scaling-stroke" d="M 269.001561 5.528274 L 269.019568 17.385731" style="fill:none;stroke-width:0.50;stroke:#82aeaf;"/>
		<path vector-effect="non-scaling-stroke" d="M 262.213009 11.011335 L 262.273782 5.469752" style="fill:none;stroke-width:0.50;stroke:#7b9586;"/>
		<path vector-effect="non-scaling-stroke" d="M 261.555762 6.307067 Q 261.323925 6.446619 261.711071 6.043718" style="fill:none;stroke-width:0.50;stroke:#7b9586;"/>
		<path vector-effect="non-scaling-stroke" d="M 232.346532 33.627837 Q 230.424309 33.940705 228.540351 33.670603" style="fill:none;stroke-width:0.50;stroke:#7b9586;"/>
		<path vector-effect="non-scaling-stroke" d="M 242.414567 35.446521 Q 242.266011 38.449149 242.34254 41.391005 Q 242.353794 41.782653 242.504601 41.674612" style="fill:none;stroke-width:0.50;stroke:#1f91ae;"/>
		<path vector-effect="non-scaling-stroke" d="M 242.277265 42.70775 Q 241.689794 42.545689 241.532235 42.543439 Q 235.511222 42.49392 229.490208 42.484917 Q 227.982141 42.482666 226.325519 42.54794" style="fill:none;stroke-width:0.50;stroke:#82aeaf;"/>
		<path vector-effect="non-scaling-stroke" d="M 270.671689 6.464626 Q 270.437601 7.148883 270.745967 7.684584" style="fill:none;stroke-width:0.50;stroke:#1f91ae;"/>
		<path vector-effect="non-scaling-stroke" d="M 269.019568 17.385731 Q 269.195134 17.396986 269.195134 17.322708 Q 269.280666 11.463755 269.215392 5.537277" style="fill:none;stroke-width:0.50;stroke:#82aeaf;"/>
		<path vector-effect="non-scaling-stroke" d="M 241.49172 42.748266 Q 241.289144 42.671737 241.127083 42.784279" style="fill:none;stroke-width:0.50;stroke:#f6d4a0;"/>
		<path vector-effect="non-scaling-stroke" d="M 237.185851 43.047628 Q 238.844725 43.362747 240.519354 43.383004 Q 240.643151 43.385255 240.634147 43.333486" style="fill:none;stroke-width:0.50;stroke:#f6d4a0;"/>
		<path vector-effect="non-scaling-stroke" d="M 240.845727 43.301974 L 241.51873 43.299723" style="fill:none;stroke-width:0.50;stroke:#f6d4a0;"/>
		<path vector-effect="non-scaling-stroke" d="M 243.519732 43.605838 Q 242.752194 43.648604 242.004913 43.632848 Q 240.868235 43.608089 240.496846 43.614841 Q 231.459699 43.776902 225.720041 43.662109 Q 224.659892 43.641851 223.860842 44.553444" style="fill:none;stroke-width:0.50;stroke:#82aeaf;"/>
		<path vector-effect="non-scaling-stroke" d="M 239.722555 50.333617 Q 238.732182 50.644234 237.622515 50.574458 Q 236.247248 50.488925 234.865229 50.461915 C 234.207982 50.450661 233.451697 50.277346 232.715671 50.302105" style="fill:none;stroke-width:0.50;stroke:#92b79f;"/>
		<path vector-effect="non-scaling-stroke" d="M 233.098315 50.279597 Q 233.440443 50.335868 233.766816 50.266092" style="fill:none;stroke-width:0.50;stroke:#7b9586;"/>
		<path vector-effect="non-scaling-stroke" d="M 233.890612 50.230078 Q 234.156212 50.169305 234.086436 50.241332" style="fill:none;stroke-width:0.50;stroke:#7b9586;"/>
		<path vector-effect="non-scaling-stroke" d="M 248.014672 70.303124 Q 244.453833 70.793808 241.01454 72.668763 Q 237.658529 74.498701 235.227615 76.335392 C 225.393668 83.758682 217.351395 94.069808 212.552591 105.666168 Q 207.434167 118.027815 209.901094 131.26279 Q 211.35289 139.048467 216.066162 145.884286" style="fill:none;stroke-width:0.50;stroke:#1f91ae;"/>
		<path vector-effect="non-scaling-stroke" d="M 232.031413 50.356126 Q 231.8626 50.432654 231.635265 50.36738" style="fill:none;stroke-width:0.50;stroke:#1f91ae;"/>
		<path vector-effect="non-scaling-stroke" d="M 254.042438 152.497272 Q 253.614777 152.335212 253.166859 152.377978 C 253.099333 152.38473 253.029557 152.366723 252.973286 152.33071 Q 252.671673 152.137137 252.390317 152.098873 C 251.924392 152.035849 251.49448 151.727483 251.019552 151.641951 C 250.769708 151.596934 250.582887 151.450629 250.276772 151.331334 Q 246.738442 149.958318 243.438702 148.76762 Q 242.34254 148.371471 240.442826 147.644448 Q 235.009283 145.562415 232.598627 144.601304 Q 228.277002 142.877156 224.560855 141.47713 C 224.356028 141.400601 224.220977 141.204777 224.220977 140.988696 L 224.220977 127.16625 C 224.220977 127.121233 224.17371 127.089721 224.133194 127.109979 L 222.676897 127.812243 C 222.636382 127.8325 222.611622 127.870765 222.611622 127.913531 Q 222.557602 134.555778 222.539595 141.216032 C 222.539595 141.603177 222.568856 141.866526 222.888476 142.08936 Q 223.538971 142.548533 223.993642 142.724099 Q 227.558982 144.103867 230.865475 145.402605 Q 231.153583 145.515148 231.693787 145.909046" style="fill:none;stroke-width:0.50;stroke:#82aeaf;"/>
		<path stroke-opacity="0.757" vector-effect="non-scaling-stroke" d="M 258.080456 16.811766 C 258.080456 16.807264 258.075954 16.802762 258.071452 16.802762 C 258.066951 16.802762 258.062449 16.807264 258.062449 16.811766 C 258.062449 16.816267 258.066951 16.820769 258.071452 16.820769 C 258.075954 16.820769 258.080456 16.816267 258.080456 16.811766" style="fill:none;stroke-width:0.50;stroke:#ece6cb;"/>
		<path vector-effect="non-scaling-stroke" d="M 246.027175 23.273945 C 245.973154 23.312209 245.997914 23.39549 246.063188 23.402243 L 250.672921 23.865917 C 250.720189 23.870419 250.758453 23.827653 250.751701 23.780385 L 250.157477 20.359099 C 250.148474 20.30733 250.08545 20.28257 250.042684 20.314082 L 246.027175 23.273945" style="fill:none;stroke-width:0.50;stroke:#82aeaf;"/>
		<path stroke-opacity="0.757" vector-effect="non-scaling-stroke" d="M 263.743585 7.691337 Q 263.075083 7.623812 263.207883 8.371093" style="fill:none;stroke-width:0.50;stroke:#4b93a9;"/>
		<path vector-effect="non-scaling-stroke" d="M 263.207883 8.371093 Q 263.122351 8.611933 263.214636 8.740231 Q 263.282161 8.834767 263.502744 8.84377 Q 265.469984 8.927052 267.491244 8.798753 C 267.540762 8.796502 267.592532 8.782997 267.637549 8.758238 Q 267.943664 8.596177 267.777101 8.492638" style="fill:none;stroke-width:0.50;stroke:#82aeaf;"/>
		<path stroke-opacity="0.757" vector-effect="non-scaling-stroke" d="M 267.777101 8.492638 Q 267.891894 8.31032 267.777101 7.914171" style="fill:none;stroke-width:0.50;stroke:#4b93a9;"/>
		<path vector-effect="non-scaling-stroke" d="M 267.777101 7.914171 Q 267.840125 7.871405 267.727582 7.794876 Q 267.682565 7.765615 267.617291 7.761113 Q 265.686065 7.659825 263.743585 7.691337" style="fill:none;stroke-width:0.50;stroke:#7b9586;"/>
		<path stroke-opacity="0.753" vector-effect="non-scaling-stroke" d="M 267.777101 7.914171 L 263.743585 7.691337" style="fill:none;stroke-width:0.50;stroke:#e3c695;"/>
		<path stroke-opacity="0.757" vector-effect="non-scaling-stroke" d="M 267.777101 8.492638 Q 267.66906 8.609682 267.583528 8.607431 Q 265.614038 8.580421 263.644548 8.68396 Q 263.27991 8.704218 263.207883 8.371093" style="fill:none;stroke-width:0.50;stroke:#ece6cb;"/>
		<path vector-effect="non-scaling-stroke" d="M 267.786104 10.088488 C 267.786104 9.917424 267.648803 9.780122 267.477738 9.780122 L 263.547761 9.780122 C 263.376697 9.780122 263.239395 9.917424 263.239395 10.088488 L 263.239395 10.480135 C 263.239395 10.6512 263.376697 10.788501 263.547761 10.788501 L 267.477738 10.788501 C 267.648803 10.788501 267.786104 10.6512 267.786104 10.480135 L 267.786104 10.088488" style="fill:none;stroke-width:0.50;stroke:#82aeaf;"/>
		<path vector-effect="non-scaling-stroke" d="M 263.212385 12.622941 C 263.212385 12.72648 263.297917 12.812012 263.401456 12.812012 L 267.601535 12.812012 C 267.705074 12.812012 267.790606 12.72648 267.790606 12.622941 L 267.790606 11.943185 C 267.790606 11.839646 267.705074 11.754114 267.601535 11.754114 L 263.401456 11.754114 C 263.297917 11.754114 263.212385 11.839646 263.212385 11.943185 L 263.212385 12.622941" style="fill:none;stroke-width:0.50;stroke:#82aeaf;"/>
		<path vector-effect="non-scaling-stroke" d="M 267.817909 14.170037 C 267.819867 14.00496 267.687067 13.87216 267.522868 13.870877 L 263.381424 13.841954 C 263.216887 13.840649 263.084087 13.973449 263.082241 14.136995 L 263.081543 14.236032 C 263.079585 14.401109 263.212385 14.533909 263.376584 14.535192 L 267.518029 14.564116 C 267.682565 14.565421 267.815365 14.432621 267.817211 14.269075 L 267.817909 14.170037" style="fill:none;stroke-width:0.50;stroke:#82aeaf;"/>
		<path vector-effect="non-scaling-stroke" d="M 267.833372 15.191156 C 267.833372 15.096621 267.756843 15.020092 267.662308 15.020092 L 263.354188 15.020092 C 263.259653 15.020092 263.183124 15.096621 263.183124 15.191156 L 263.183124 15.20016 C 263.183124 15.294695 263.259653 15.371224 263.354188 15.371224 L 267.662308 15.371224 C 267.756843 15.371224 267.833372 15.294695 267.833372 15.20016 L 267.833372 15.191156" style="fill:none;stroke-width:0.50;stroke:#82aeaf;"/>
		<path vector-effect="non-scaling-stroke" d="M 267.634825 12.344804 C 267.610538 12.231294 267.437223 12.16827 267.246126 12.208605 C 267.054579 12.24705 266.919529 12.373097 266.94251 12.486922 C 266.966796 12.600432 267.140112 12.663456 267.331208 12.623121 C 267.522755 12.584676 267.657806 12.458629 267.634825 12.344804" style="fill:none;stroke-width:0.50;stroke:#f6d4a0;"/>
		<path vector-effect="non-scaling-stroke" d="M 212.183452 21.950447 C 212.183452 21.936942 212.172198 21.925688 212.158693 21.925688 C 212.145188 21.925688 212.133934 21.936942 212.133934 21.950447 C 212.133934 21.963952 212.145188 21.975207 212.158693 21.975207 C 212.172198 21.975207 212.183452 21.963952 212.183452 21.950447" style="fill:none;stroke-width:0.50;stroke:#f6d4a0;"/>
		<path vector-effect="non-scaling-stroke" d="M 228.646141 41.508049 L 229.037788 41.519304 C 229.121069 41.521554 229.190846 41.45628 229.193097 41.372999 L 229.231361 39.925705 C 229.292134 37.587075 229.247117 35.687361 229.132324 35.68511 L 228.85772 35.678358 C 228.742927 35.676107 228.598873 37.569069 228.5381 39.907698 L 228.499836 41.354992 C 228.497585 41.438273 228.56286 41.505799 228.646141 41.508049" style="fill:none;stroke-width:0.50;stroke:#82aeaf;"/>
		<path vector-effect="non-scaling-stroke" d="M 231.342632 36.003808 C 231.342655 35.840419 231.209855 35.70987 231.047276 35.709465 L 230.5791 35.710275 C 230.415306 35.70987 230.284757 35.84267 230.284734 36.005653 L 230.293783 41.178098 C 230.29376 41.341487 230.42656 41.472036 230.589139 41.472441 L 231.057315 41.471631 C 231.221109 41.472036 231.351658 41.339236 231.35168 41.176252 L 231.342632 36.003808" style="fill:none;stroke-width:0.50;stroke:#82aeaf;"/>
		<path vector-effect="non-scaling-stroke" d="M 233.323444 35.978621 C 233.323399 35.808907 233.186098 35.669354 233.015618 35.669715 L 232.596961 35.668994 C 232.427562 35.669354 232.28801 35.806656 232.288055 35.97682 L 232.278962 41.180776 C 232.279007 41.35049 232.416308 41.490043 232.586787 41.489682 L 233.005445 41.490403 C 233.174843 41.490043 233.314396 41.352741 233.314351 41.182577 L 233.323444 35.978621" style="fill:none;stroke-width:0.50;stroke:#82aeaf;"/>
		<path vector-effect="non-scaling-stroke" d="M 236.483587 41.451778 L 237.077811 41.451778 C 237.192604 41.451778 237.287139 41.357243 237.287139 41.24245 L 237.287139 36.396378 C 237.287139 35.995727 237.109322 35.671605 236.89099 35.671605 L 236.670407 35.671605 C 236.452075 35.671605 236.274258 35.995727 236.274258 36.396378 L 236.274258 41.24245 C 236.274258 41.357243 236.368794 41.451778 236.483587 41.451778" style="fill:none;stroke-width:0.50;stroke:#82aeaf;"/>
		<path vector-effect="non-scaling-stroke" d="M 234.498341 41.454029 L 235.079059 41.454029 C 235.193852 41.451778 235.283886 41.359494 235.283886 41.246951 L 235.265879 36.241069 C 235.265879 35.959714 235.106069 35.730127 234.912497 35.732378 L 234.62889 35.732378 C 234.433066 35.734629 234.275507 35.961964 234.275507 36.245571 L 234.293514 41.251453 C 234.293514 41.363995 234.385799 41.45628 234.498341 41.454029" style="fill:none;stroke-width:0.50;stroke:#82aeaf;"/>
		<path vector-effect="non-scaling-stroke" d="M 239.28301 36.168119 C 239.28364 35.95071 239.110325 35.772893 238.891857 35.771475 L 238.671275 35.769945 C 238.453078 35.768392 238.275261 35.943958 238.274653 36.161074 L 238.239877 41.139833 C 238.239247 41.357243 238.412562 41.53506 238.631029 41.536478 L 238.851612 41.538008 C 239.069809 41.539561 239.247626 41.363995 239.248234 41.146879 L 239.28301 36.168119" style="fill:none;stroke-width:0.50;stroke:#82aeaf;"/>
		<path vector-effect="non-scaling-stroke" d="M 240.215445 36.344136 C 240.213239 36.263578 240.145714 36.198303 240.065876 36.201184 L 240.056873 36.201387 C 239.9769 36.202805 239.911626 36.27033 239.913922 36.350978 L 240.035467 41.706596 C 240.037673 41.787154 240.105199 41.852429 240.185036 41.849548 L 240.194039 41.849345 C 240.274012 41.847927 240.339287 41.780402 240.336991 41.699754 L 240.215445 36.344136" style="fill:none;stroke-width:0.50;stroke:#82aeaf;"/>
		<path vector-effect="non-scaling-stroke" d="M 225.816827 129.705204 L 226.048664 133.828755 C 226.068922 134.186639 226.300759 134.497256 226.636135 134.621052 C 236.082937 138.100861 244.953521 141.573916 252.176486 144.585548 C 253.828607 145.272056 254.416078 144.797128 256.065949 143.928301 Q 268.463609 137.385091 281.201147 130.913909 Q 282.256794 130.378207 283.314692 129.829001 Q 283.850393 129.552147 283.944929 129.0277 Q 283.953932 128.982683 283.953932 128.082344 Q 283.951681 126.270413 283.769363 124.555268" style="fill:none;stroke-width:0.50;stroke:#7b9586;"/>
		<path vector-effect="non-scaling-stroke" d="M 283.769363 124.555268 C 283.778366 123.261032 283.645566 122.603785 282.328821 122.158117 Q 269.906401 117.955788 256.932524 113.442841 Q 255.395196 112.909391 253.981665 113.598149 Q 240.34829 120.247149 227.47345 126.427972 Q 225.278875 127.481368 225.816827 129.705204" style="fill:none;stroke-width:0.50;stroke:#82aeaf;"/>
		<path vector-effect="non-scaling-stroke" d="M 283.769363 124.555268 Q 283.082855 125.027946 282.297309 125.435349 Q 276.093977 128.642805 265.755841 133.876022 Q 260.664427 136.455492 255.588769 139.064223 Q 253.563008 140.106364 251.775836 139.408602 Q 238.909999 134.382463 225.816827 129.705204" style="fill:none;stroke-width:0.50;stroke:#f6d4a0;"/>
		<path d="M 258.206503 4.607678 L 258.222259 16.059983 C 258.222259 16.251305 258.060198 16.404362 257.868876 16.393108 Q 254.798722 16.21079 252.149476 17.907928 Q 247.206618 21.072617 243.713305 23.827653 C 240.956018 26.00197 239.130582 28.946077 237.600007 32.099513 Q 237.458204 32.394373 236.974272 32.297587 L 232.747183 32.234563 L 230.980268 32.25257 Q 229.638764 29.27245 227.759308 27.309712 C 226.071173 25.547299 223.520964 24.045985 221.047284 23.865917 Q 220.606118 23.834405 220.761427 24.009971 C 220.365278 25.286201 220.011895 26.632207 219.469441 27.789142 Q 217.828574 31.300462 215.350393 34.260325 Q 213.723031 36.205056 212.266734 37.535306 Q 210.601107 39.059129 208.167943 40.434396 Q 206.126425 41.58908 204.814182 41.850178 C 204.055647 42.000985 203.004502 41.517053 203 40.627969 C 202.995498 39.936959 203.108041 39.653352 203.693261 39.227942 Q 205.149558 38.172295 205.849571 37.391252 Q 207.647997 35.39025 209.023264 33.314969 Q 211.2471 29.956707 212.887967 25.70936 Q 213.47994 24.174283 214.056156 22.670718 Q 214.245227 22.396115 214.112427 22.175532 Q 214.026895 22.035979 213.750041 21.945946 Q 210.486314 20.881295 207.184323 19.933689 Q 206.891713 19.848157 206.567591 19.258435 Q 206.365015 18.241053 206.952486 17.048104 Q 209.349637 12.170521 213.669011 8.967567 Q 219.611244 4.562661 227.070549 4.555908 Q 243.06056 4.540152 253.585516 4.546905 Q 253.603523 4.546905 255.584267 4.50639 Q 256.930273 4.47938 258.206503 4.607678 Z" style="fill:#086f95;"/>
		<path d="M 258.206503 4.607678 Q 258.645418 5.276179 258.762462 6.018958 L 258.99655 6.286809 Q 259.070828 6.37009 259.070828 6.482633 L 259.070828 15.821393 C 259.070828 15.884417 259.120347 15.933936 259.18337 15.933936 L 261.238393 15.933936 C 261.341932 15.933936 261.425213 15.850654 261.427464 15.747115 L 261.555762 6.307067 Q 261.958664 7.914171 261.819111 9.471756 Q 261.812359 9.552787 261.843871 9.597804 Q 261.89564 9.672082 261.951911 9.672082 Q 261.996928 9.672082 262.02844 9.638319 Q 262.071206 9.591051 262.077959 9.586549 Q 262.156738 9.539282 262.16124 9.654075 L 262.213009 11.011335 L 262.149986 17.264186 Q 260.711695 16.872538 259.295913 17.219169 Q 255.181366 16.58443 252.102209 19.044605 Q 251.442711 19.573554 251.345924 20.453635 C 251.264894 21.196414 251.397694 22.587437 251.667795 23.440507 C 253.662045 29.772138 258.01293 35.036867 263.550012 38.759766 Q 265.463231 40.044999 267.691569 40.805785 Q 268.209263 40.983602 268.186755 41.199683 Q 266.248776 40.425392 264.436845 39.585827 Q 264.283788 39.5138 263.721076 39.417013 Q 263.667056 39.279712 263.5185 39.340485 Q 263.599531 39.344986 263.626541 39.308973 C 263.646798 39.284213 263.631042 39.2482 263.601781 39.245949 L 263.329429 39.209935 L 263.439721 39.19643 Q 263.610785 39.173922 263.468982 39.074885 L 261.936155 37.987726 Q 261.850623 37.926953 261.780847 38.003482 Q 261.677308 38.122777 261.623288 37.875184 C 261.609783 37.81216 261.551261 37.746885 261.465728 37.699618 Q 261.407206 37.668106 260.959288 37.494791 Q 260.862502 37.456526 260.824237 37.379998 Q 260.788224 37.30572 260.848997 37.364242 Q 260.952536 37.46553 261.078583 37.474533 Q 261.220386 37.483536 261.137105 37.35974 Q 261.089837 37.289964 260.914271 37.238194 Q 260.80398 37.206682 260.731953 37.118899 C 260.171492 36.436893 259.397201 36.193802 258.791723 35.610832 Q 258.310042 35.144907 257.7991 34.784772 Q 257.614531 34.654223 257.787846 34.714996 Q 257.823859 34.728501 257.855371 34.769016 Q 257.882381 34.80503 257.880131 34.773518 Q 257.880131 34.762263 257.882381 34.748758 Q 257.889134 34.714996 257.844117 34.701491 L 257.263399 34.521423 C 255.854369 33.137153 255.095834 31.919445 253.637286 29.846416 Q 253.121842 29.110389 251.357178 25.430255 C 251.044311 24.775259 250.398318 24.67172 249.680298 24.660466 L 249.304407 24.624452 Q 247.244883 24.658215 245.207867 24.385863 C 244.465088 24.286826 243.787583 24.896805 243.314905 25.391991 Q 242.045428 26.731244 241.104574 27.908437 Q 240.688168 28.430633 238.946013 31.602076 Q 238.869484 31.743879 238.297769 32.43939 Q 238.122203 32.653221 237.95339 32.662224 Q 237.656278 32.682482 237.512224 32.484407 Q 237.440197 32.387621 237.320902 32.380868 Q 237.118326 32.369614 236.974272 32.297587 Q 237.458204 32.394373 237.600007 32.099513 C 239.130582 28.946077 240.956018 26.00197 243.713305 23.827653 Q 247.206618 21.072617 252.149476 17.907928 Q 254.798722 16.21079 257.868876 16.393108 C 258.060198 16.404362 258.222259 16.251305 258.222259 16.059983 L 258.206503 4.607678 Z M 257.562559 16.784553 C 257.562761 16.759996 257.288158 16.746491 256.951611 16.755517 C 256.615155 16.764498 256.342803 16.791508 256.343005 16.81647 C 256.342803 16.841027 256.617406 16.854532 256.953952 16.845506 C 257.290409 16.836525 257.562761 16.809515 257.562559 16.784553 Z M 258.080456 16.811766 C 258.080456 16.807264 258.075954 16.802762 258.071452 16.802762 C 258.066951 16.802762 258.062449 16.807264 258.062449 16.811766 C 258.062449 16.816267 258.066951 16.820769 258.071452 16.820769 C 258.075954 16.820769 258.080456 16.816267 258.080456 16.811766 Z M 256.394415 16.978913 C 256.392321 16.935562 256.155982 16.906301 255.863688 16.913076 C 255.570762 16.919806 255.336674 16.960321 255.336832 17.004753 C 255.338925 17.048104 255.575264 17.077365 255.867559 17.07059 C 256.160484 17.06386 256.394572 17.023345 256.394415 16.978913 Z M 255.071075 17.237175 Q 255.284905 17.228172 255.500986 17.212416 Q 255.51224 17.212416 255.516742 17.203413 Q 255.518993 17.19666 255.521244 17.192159 C 255.523495 17.180904 255.51224 17.16965 255.496484 17.167399 Q 255.282654 17.156145 255.068824 17.165148 Q 254.854993 17.174152 254.641163 17.203413 C 254.625407 17.205664 254.616404 17.216918 254.618654 17.228172 Q 254.620905 17.232674 254.623156 17.239426 Q 254.629909 17.24843 254.641163 17.24843 Q 254.857244 17.246179 255.071075 17.237175 Z M 253.75658 17.426247 Q 253.173611 17.444253 252.869747 17.831399 Q 252.795469 17.925934 252.914764 17.930436 Q 253.319916 17.946192 253.430208 17.930436 Q 253.529245 17.916931 253.538248 17.86066 Q 253.547252 17.777379 253.630533 17.784131 Q 254.013177 17.80889 254.395821 17.511779 Q 254.49936 17.430748 254.371061 17.401487 Q 254.062695 17.331711 253.75658 17.426247 Z M 252.922732 18.117054 C 252.923767 18.115005 252.908011 18.108253 252.886538 18.103864 C 252.865245 18.09925 252.849489 18.096999 252.848274 18.099452 C 252.847239 18.1015 252.862994 18.108253 252.884468 18.112642 C 252.905761 18.117256 252.921516 18.119507 252.922732 18.117054 Z M 252.169734 18.493148 Q 252.041436 18.68672 252.26652 18.623697 Q 252.282276 18.619195 252.327293 18.562924 Q 252.379063 18.502151 252.307036 18.470639 Q 252.2125 18.427873 252.169734 18.493148 Z M 246.027175 23.273945 C 245.973154 23.312209 245.997914 23.39549 246.063188 23.402243 L 250.672921 23.865917 C 250.720189 23.870419 250.758453 23.827653 250.751701 23.780385 L 250.157477 20.359099 C 250.148474 20.30733 250.08545 20.28257 250.042684 20.314082 L 246.027175 23.273945 Z" style="fill:#fcecc9;"/>
		<path d="M 269.001561 5.528274 L 269.019568 17.385731 Q 268.612165 17.288945 268.204762 17.293447 Q 265.145862 17.333962 262.149986 17.264186 L 262.213009 11.011335 L 262.273782 5.469752 L 269.001561 5.528274 Z M 263.743585 7.691337 Q 263.075083 7.623812 263.207883 8.371093 Q 263.122351 8.611933 263.214636 8.740231 Q 263.282161 8.834767 263.502744 8.84377 Q 265.469984 8.927052 267.491244 8.798753 C 267.540762 8.796502 267.592532 8.782997 267.637549 8.758238 Q 267.943664 8.596177 267.777101 8.492638 Q 267.891894 8.31032 267.777101 7.914171 Q 267.840125 7.871405 267.727582 7.794876 Q 267.682565 7.765615 267.617291 7.761113 Q 265.686065 7.659825 263.743585 7.691337 Z M 267.786104 10.088488 C 267.786104 9.917424 267.648803 9.780122 267.477738 9.780122 L 263.547761 9.780122 C 263.376697 9.780122 263.239395 9.917424 263.239395 10.088488 L 263.239395 10.480135 C 263.239395 10.6512 263.376697 10.788501 263.547761 10.788501 L 267.477738 10.788501 C 267.648803 10.788501 267.786104 10.6512 267.786104 10.480135 L 267.786104 10.088488 Z M 263.212385 12.622941 C 263.212385 12.72648 263.297917 12.812012 263.401456 12.812012 L 267.601535 12.812012 C 267.705074 12.812012 267.790606 12.72648 267.790606 12.622941 L 267.790606 11.943185 C 267.790606 11.839646 267.705074 11.754114 267.601535 11.754114 L 263.401456 11.754114 C 263.297917 11.754114 263.212385 11.839646 263.212385 11.943185 L 263.212385 12.622941 Z M 267.817909 14.170037 C 267.819867 14.00496 267.687067 13.87216 267.522868 13.870877 L 263.381424 13.841954 C 263.216887 13.840649 263.084087 13.973449 263.082241 14.136995 L 263.081543 14.236032 C 263.079585 14.401109 263.212385 14.533909 263.376584 14.535192 L 267.518029 14.564116 C 267.682565 14.565421 267.815365 14.432621 267.817211 14.269075 L 267.817909 14.170037 Z M 267.833372 15.191156 C 267.833372 15.096621 267.756843 15.020092 267.662308 15.020092 L 263.354188 15.020092 C 263.259653 15.020092 263.183124 15.096621 263.183124 15.191156 L 263.183124 15.20016 C 263.183124 15.294695 263.259653 15.371224 263.354188 15.371224 L 267.662308 15.371224 C 267.756843 15.371224 267.833372 15.294695 267.833372 15.20016 L 267.833372 15.191156 Z" style="fill:#086f95;"/>
		<path fill-opacity="0.996" d="M 262.273782 5.469752 L 262.213009 11.011335 L 262.16124 9.654075 Q 262.156738 9.539282 262.077959 9.586549 Q 262.071206 9.591051 262.02844 9.638319 Q 261.996928 9.672082 261.951911 9.672082 Q 261.89564 9.672082 261.843871 9.597804 Q 261.812359 9.552787 261.819111 9.471756 Q 261.958664 7.914171 261.555762 6.307067 Q 261.323925 6.446619 261.711071 6.043718 Q 261.897891 5.654321 262.273782 5.469752 Z" style="fill:#efbc77;"/>
		<path d="M 270.671689 6.464626 Q 270.437601 7.148883 270.745967 7.684584 Q 270.743716 11.488514 270.730211 15.393732 Q 270.72796 16.325583 270.257533 17.111128 Q 270.196761 17.207914 270.08872 17.24843 Q 269.550768 17.444253 269.019568 17.385731 Q 269.195134 17.396986 269.195134 17.322708 Q 269.280666 11.463755 269.215392 5.537277 Q 270.430849 5.246918 270.671689 6.464626 Z" style="fill:#086f95;"/>
		<path d="M 269.001561 5.528274 Q 269.109602 5.532776 269.215392 5.537277 Q 269.280666 11.463755 269.195134 17.322708 Q 269.195134 17.396986 269.019568 17.385731 L 269.001561 5.528274 Z" style="fill:#fcecc9;"/>
		<path d="M 261.711071 6.043718 Q 261.323925 6.446619 261.555762 6.307067 L 261.427464 15.747115 C 261.425213 15.850654 261.341932 15.933936 261.238393 15.933936 L 259.18337 15.933936 C 259.120347 15.933936 259.070828 15.884417 259.070828 15.821393 L 259.070828 6.482633 Q 259.070828 6.37009 258.99655 6.286809 L 258.762462 6.018958 Q 260.243519 6.320572 261.711071 6.043718 Z" style="fill:#086f95;"/>
		<path d="M 270.671689 6.464626 Q 270.811242 7.038592 270.745967 7.684584 Q 270.437601 7.148883 270.671689 6.464626 Z" style="fill:#35b2c7;"/>
		<path d="M 259.295913 17.219169 L 258.987547 18.000212 Q 258.944781 18.110504 258.861499 18.193785 Q 257.342178 19.773879 257.510992 22.110257 Q 257.619032 23.611572 258.11872 25.263693 Q 259.561513 30.01748 262.726202 33.702115 Q 265.343936 36.749761 268.733711 38.773271 Q 269.350442 39.245949 269.69032 39.813162 Q 269.748842 39.909949 269.746591 40.022491 L 269.733086 40.76527 Q 269.278415 41.512551 268.186755 41.199683 Q 268.209263 40.983602 267.691569 40.805785 Q 265.463231 40.044999 263.550012 38.759766 C 258.01293 35.036867 253.662045 29.772138 251.667795 23.440507 C 251.397694 22.587437 251.264894 21.196414 251.345924 20.453635 Q 251.442711 19.573554 252.102209 19.044605 Q 255.181366 16.58443 259.295913 17.219169 Z" style="fill:#086f95;"/>
		<path d="M 214.056156 22.670718 L 214.01339 22.285823 Q 213.997634 22.162027 213.876089 22.146271 Q 212.779926 21.993213 211.753541 22.184535 Q 211.438422 22.243057 211.224592 22.220549 Q 211.046775 22.204793 210.693392 22.112508 Q 208.476309 21.545295 207.771794 21.189661 Q 206.862452 20.728238 206.567591 19.258435 Q 206.891713 19.848157 207.184323 19.933689 Q 210.486314 20.881295 213.750041 21.945946 Q 214.026895 22.035979 214.112427 22.175532 Q 214.245227 22.396115 214.056156 22.670718 Z M 212.183452 21.950447 C 212.183452 21.936942 212.172198 21.925688 212.158693 21.925688 C 212.145188 21.925688 212.133934 21.936942 212.133934 21.950447 C 212.133934 21.963952 212.145188 21.975207 212.158693 21.975207 C 212.172198 21.975207 212.183452 21.963952 212.183452 21.950447 Z" style="fill:#fcecc9;"/>
		<path d="M 230.980268 32.25257 Q 230.77094 32.961587 230.237489 32.808529 C 229.778317 31.66735 229.073802 30.638713 228.526846 29.713616 C 227.829084 28.534172 226.912989 27.73062 225.976637 26.93157 Q 225.470197 26.497156 224.079174 25.774635 Q 223.093303 25.261442 222.12544 24.716737 C 221.760803 24.509659 221.335393 24.075246 220.761427 24.009971 Q 220.606118 23.834405 221.047284 23.865917 C 223.520964 24.045985 226.071173 25.547299 227.759308 27.309712 Q 229.638764 29.27245 230.980268 32.25257 Z" style="fill:#fcecc9;"/>
		<path d="M 249.680298 24.660466 L 249.304407 24.624452 L 249.680298 24.660466 Z" style="fill:#086f95;"/>
		<path fill-opacity="0.510" d="M 232.747183 32.234563 Q 232.555861 32.817532 232.792199 33.393749 Q 232.834966 33.499539 232.947508 33.506291 Q 234.385799 33.600827 235.828591 33.50179 C 236.371045 33.465776 236.742434 33.632339 237.230868 33.578318 Q 238.961769 33.391498 240.708425 33.666101 Q 239.533484 33.857423 238.333783 33.71562 Q 238.223491 33.702115 238.119952 33.648095 C 238.052427 33.614332 237.9804 33.596325 237.906122 33.598576 L 232.346532 33.627837 Q 231.079306 33.429763 229.758059 33.55581 L 230.142954 33.314969 Q 230.235238 33.256447 230.214981 33.150658 Q 230.181218 32.984095 230.237489 32.808529 Q 230.77094 32.961587 230.980268 32.25257 L 232.747183 32.234563 Z" style="fill:#cdd9cf;"/>
		<path fill-opacity="0.996" d="M 229.758059 33.55581 Q 231.079306 33.429763 232.346532 33.627837 Q 230.424309 33.940705 228.540351 33.670603 Q 229.159334 33.474779 229.758059 33.55581 Z" style="fill:#efbc77;"/>
		<path d="M 228.540351 33.670603 Q 230.424309 33.940705 232.346532 33.627837 L 237.906122 33.598576 C 237.9804 33.596325 238.052427 33.614332 238.119952 33.648095 Q 238.223491 33.702115 238.333783 33.71562 Q 239.533484 33.857423 240.708425 33.666101 Q 242.493346 33.92945 242.414567 35.446521 Q 242.266011 38.449149 242.34254 41.391005 Q 242.353794 41.782653 242.504601 41.674612 Q 242.558621 42.491669 242.277265 42.70775 Q 241.689794 42.545689 241.532235 42.543439 Q 235.511222 42.49392 229.490208 42.484917 Q 227.982141 42.482666 226.325519 42.54794 Q 226.237736 39.08839 226.332271 35.588324 C 226.35703 34.640718 226.678901 34.080257 227.554481 33.785396 Q 228.141951 33.587322 228.540351 33.670603 Z M 228.646141 41.508049 L 229.037788 41.519304 C 229.121069 41.521554 229.190846 41.45628 229.193097 41.372999 L 229.231361 39.925705 C 229.292134 37.587075 229.247117 35.687361 229.132324 35.68511 L 228.85772 35.678358 C 228.742927 35.676107 228.598873 37.569069 228.5381 39.907698 L 228.499836 41.354992 C 228.497585 41.438273 228.56286 41.505799 228.646141 41.508049 Z M 231.342632 36.003808 C 231.342655 35.840419 231.209855 35.70987 231.047276 35.709465 L 230.5791 35.710275 C 230.415306 35.70987 230.284757 35.84267 230.284734 36.005653 L 230.293783 41.178098 C 230.29376 41.341487 230.42656 41.472036 230.589139 41.472441 L 231.057315 41.471631 C 231.221109 41.472036 231.351658 41.339236 231.35168 41.176252 L 231.342632 36.003808 Z M 233.323444 35.978621 C 233.323399 35.808907 233.186098 35.669354 233.015618 35.669715 L 232.596961 35.668994 C 232.427562 35.669354 232.28801 35.806656 232.288055 35.97682 L 232.278962 41.180776 C 232.279007 41.35049 232.416308 41.490043 232.586787 41.489682 L 233.005445 41.490403 C 233.174843 41.490043 233.314396 41.352741 233.314351 41.182577 L 233.323444 35.978621 Z M 236.483587 41.451778 L 237.077811 41.451778 C 237.192604 41.451778 237.287139 41.357243 237.287139 41.24245 L 237.287139 36.396378 C 237.287139 35.995727 237.109322 35.671605 236.89099 35.671605 L 236.670407 35.671605 C 236.452075 35.671605 236.274258 35.995727 236.274258 36.396378 L 236.274258 41.24245 C 236.274258 41.357243 236.368794 41.451778 236.483587 41.451778 Z M 234.498341 41.454029 L 235.079059 41.454029 C 235.193852 41.451778 235.283886 41.359494 235.283886 41.246951 L 235.265879 36.241069 C 235.265879 35.959714 235.106069 35.730127 234.912497 35.732378 L 234.62889 35.732378 C 234.433066 35.734629 234.275507 35.961964 234.275507 36.245571 L 234.293514 41.251453 C 234.293514 41.363995 234.385799 41.45628 234.498341 41.454029 Z M 239.28301 36.168119 C 239.28364 35.95071 239.110325 35.772893 238.891857 35.771475 L 238.671275 35.769945 C 238.453078 35.768392 238.275261 35.943958 238.274653 36.161074 L 238.239877 41.139833 C 238.239247 41.357243 238.412562 41.53506 238.631029 41.536478 L 238.851612 41.538008 C 239.069809 41.539561 239.247626 41.363995 239.248234 41.146879 L 239.28301 36.168119 Z M 240.215445 36.344136 C 240.213239 36.263578 240.145714 36.198303 240.065876 36.201184 L 240.056873 36.201387 C 239.9769 36.202805 239.911626 36.27033 239.913922 36.350978 L 240.035467 41.706596 C 240.037673 41.787154 240.105199 41.852429 240.185036 41.849548 L 240.194039 41.849345 C 240.274012 41.847927 240.339287 41.780402 240.336991 41.699754 L 240.215445 36.344136 Z" style="fill:#086f95;"/>
		<path fill-opacity="0.510" d="M 263.329429 39.209935 Q 262.962541 38.897068 262.476358 38.874559 Q 262.363816 38.870058 262.271531 38.809285 L 261.567017 38.354614 Q 261.350935 38.215061 261.492739 38.431143 Q 261.627789 38.640471 261.848372 38.76877 Q 261.877633 38.786776 261.857376 38.807034 L 261.855125 38.809285 Q 261.832616 38.831793 261.81461 38.818288 L 261.296915 38.473909 Q 261.249647 38.442397 261.303668 38.431143 L 261.36444 38.417638 Q 261.404956 38.406383 261.400454 38.392878 Q 261.359939 38.244322 261.2564 38.271333 C 261.184373 38.29159 261.112346 38.244322 261.094339 38.167794 Q 261.062827 38.037245 260.743207 37.845923 Q 260.680183 37.807658 260.738705 37.780648 Q 260.749959 37.773896 260.772468 37.767143 Q 260.788224 37.762641 260.774719 37.764892 Q 260.69819 37.767143 260.635166 37.726628 C 260.261526 37.485787 259.964414 37.343984 259.779845 37.053625 Q 259.716821 36.954588 259.604279 36.93433 Q 259.550258 36.925327 259.52775 36.923076 Q 259.444469 36.923076 259.453472 36.839794 Q 259.469228 36.697991 259.295913 36.623713 Q 259.248645 36.603456 259.250896 36.551686 Q 259.253147 36.50892 259.295913 36.506669 Q 259.361187 36.502168 259.295913 36.445896 Q 258.238015 35.55006 257.263399 34.521423 L 257.844117 34.701491 Q 257.889134 34.714996 257.882381 34.748758 Q 257.880131 34.762263 257.880131 34.773518 Q 257.882381 34.80503 257.855371 34.769016 Q 257.823859 34.728501 257.787846 34.714996 Q 257.614531 34.654223 257.7991 34.784772 Q 258.310042 35.144907 258.791723 35.610832 C 259.397201 36.193802 260.171492 36.436893 260.731953 37.118899 Q 260.80398 37.206682 260.914271 37.238194 Q 261.089837 37.289964 261.137105 37.35974 Q 261.220386 37.483536 261.078583 37.474533 Q 260.952536 37.46553 260.848997 37.364242 Q 260.788224 37.30572 260.824237 37.379998 Q 260.862502 37.456526 260.959288 37.494791 Q 261.407206 37.668106 261.465728 37.699618 C 261.551261 37.746885 261.609783 37.81216 261.623288 37.875184 Q 261.677308 38.122777 261.780847 38.003482 Q 261.850623 37.926953 261.936155 37.987726 L 263.468982 39.074885 Q 263.610785 39.173922 263.439721 39.19643 L 263.329429 39.209935 Z" style="fill:#cdd9cf;"/>
		<path d="M 242.414567 35.446521 L 242.504601 41.674612 Q 242.353794 41.782653 242.34254 41.391005 Q 242.266011 38.449149 242.414567 35.446521 Z" style="fill:#35b2c7;"/>
		<path d="M 268.733711 38.773271 C 269.586781 39.140159 270.24853 39.828918 269.733086 40.76527 L 269.746591 40.022491 Q 269.748842 39.909949 269.69032 39.813162 Q 269.350442 39.245949 268.733711 38.773271 Z" style="fill:#35b2c7;"/>
		<path d="M 242.277265 42.70775 L 241.49172 42.748266 Q 241.289144 42.671737 241.127083 42.784279 L 236.609635 42.917079 Q 236.452075 42.921581 236.600631 42.975601 Q 236.893241 43.085893 237.185851 43.047628 Q 238.844725 43.362747 240.519354 43.383004 Q 240.643151 43.385255 240.634147 43.333486 Q 240.670161 43.259208 240.845727 43.301974 L 241.51873 43.299723 Q 242.572126 43.245703 243.519732 43.605838 Q 242.752194 43.648604 242.004913 43.632848 Q 240.868235 43.608089 240.496846 43.614841 Q 231.459699 43.776902 225.720041 43.662109 Q 224.659892 43.641851 223.860842 44.553444 C 224.36053 43.590082 225.085302 43.428021 226.068922 43.270462 Q 226.181464 43.252455 226.22198 43.146665 Q 226.339024 42.833798 226.325519 42.54794 Q 227.982141 42.482666 229.490208 42.484917 Q 235.511222 42.49392 241.532235 42.543439 Q 241.689794 42.545689 242.277265 42.70775 Z" style="fill:#fcecc9;"/>
		<path fill-opacity="0.996" d="M 241.49172 42.748266 Q 241.356669 42.820293 241.127083 42.784279 Q 241.289144 42.671737 241.49172 42.748266 Z" style="fill:#efbc77;"/>
		<path fill-opacity="0.996" d="M 240.634147 43.333486 Q 240.643151 43.385255 240.519354 43.383004 Q 238.844725 43.362747 237.185851 43.047628 L 240.634147 43.333486 Z" style="fill:#efbc77;"/>
		<path fill-opacity="0.996" d="M 241.51873 43.299723 L 240.845727 43.301974 Q 241.185605 43.225445 241.51873 43.299723 Z" style="fill:#efbc77;"/>
		<path d="M 223.860842 44.553444 Q 224.659892 43.641851 225.720041 43.662109 Q 231.459699 43.776902 240.496846 43.614841 Q 240.868235 43.608089 242.004913 43.632848 Q 242.752194 43.648604 243.519732 43.605838 Q 244.190484 43.758895 244.636152 44.427397 C 245.378931 45.537064 245.356423 46.754772 245.336165 48.157049 C 245.320409 49.271218 244.165725 49.527814 243.276641 49.532316 Q 240.366297 49.545821 238.072685 49.692126 Q 235.968143 49.824926 233.757812 49.725889 Q 230.23974 49.568329 224.774686 49.521062 Q 223.941872 49.514309 223.381412 48.956099 C 223.29813 48.870567 223.248612 48.755774 223.241859 48.636479 Q 223.178836 47.155422 223.284625 45.777904 Q 223.329642 45.201688 223.860842 44.553444 Z" style="fill:#086f95;"/>
		<path fill-opacity="0.996" d="M 239.722555 50.333617 Q 238.732182 50.644234 237.622515 50.574458 Q 236.247248 50.488925 234.865229 50.461915 C 234.207982 50.450661 233.451697 50.277346 232.715671 50.302105 L 233.098315 50.279597 Q 233.440443 50.335868 233.766816 50.266092 Q 233.836592 50.26159 233.890612 50.230078 Q 234.156212 50.169305 234.086436 50.241332 Q 236.902245 49.984736 239.722555 50.333617 Z" style="fill:#efbc77;"/>
		<path d="M 234.086436 50.241332 Q 234.156212 50.169305 233.890612 50.230078 Q 234.075182 50.131041 234.086436 50.241332 Z" style="fill:#086f95;"/>
		<path d="M 233.766816 50.266092 Q 233.440443 50.335868 233.098315 50.279597 Q 233.444945 50.176058 233.766816 50.266092 Z" style="fill:#086f95;"/>
		<path d="M 232.031413 50.356126 Q 231.8626 50.432654 231.635265 50.36738 L 232.031413 50.356126 Z" style="fill:#086f95;"/>
		<path d="M 232.715671 50.302105 C 233.451697 50.277346 234.207982 50.450661 234.865229 50.461915 Q 236.247248 50.488925 237.622515 50.574458 Q 238.732182 50.644234 239.722555 50.333617 Q 240.969524 50.464166 242.302024 50.509183 Q 244.208491 50.569956 244.79146 50.815298 C 246.2275 51.423027 246.801466 53.005371 246.73169 54.558455 Q 246.697927 55.348502 246.729439 61.423536 Q 246.740693 63.147684 246.900503 64.86508 Q 247.080571 66.776048 248.014672 70.303124 Q 244.453833 70.793808 241.01454 72.668763 Q 237.658529 74.498701 235.227615 76.335392 C 225.393668 83.758682 217.351395 94.069808 212.552591 105.666168 Q 207.434167 118.027815 209.901094 131.26279 Q 211.35289 139.048467 216.066162 145.884286 Q 214.596359 145.891039 213.171574 145.904544 C 212.228469 145.913547 211.29887 145.798754 210.765419 144.974945 Q 208.969244 142.190648 207.647997 138.645565 Q 206.383022 135.25354 205.678507 131.890776 C 205.264351 129.921286 204.829938 127.026698 204.667877 124.895146 Q 203.988121 115.986297 205.273355 107.779712 Q 205.588473 105.762954 206.358262 103.233003 C 207.330628 100.034551 208.755414 96.478214 210.004633 92.872358 Q 212.329757 86.149081 213.061282 83.877977 C 216.142691 74.311881 218.807692 65.684388 221.189088 57.01863 Q 221.609996 55.488055 221.943121 53.26647 C 222.091677 52.267094 222.879473 51.067393 223.878849 50.71401 Q 224.304259 50.563203 225.438685 50.547447 Q 228.540351 50.506932 231.635265 50.36738 Q 231.8626 50.432654 232.031413 50.356126 L 232.715671 50.302105 Z" style="fill:#35b2c7;"/>
		<path d="M 248.014672 70.303124 Q 248.856488 73.233726 249.840108 75.966253 C 250.641409 78.19234 251.764582 80.48145 253.369435 82.239361 C 254.485855 83.463821 255.29841 84.39117 256.045691 85.795698 Q 256.545379 86.73205 257.294911 89.556862 Q 257.814856 91.521851 258.526123 94.364669 Q 260.16699 100.934889 260.572143 107.642411 Q 260.69819 109.695182 260.657675 112.603275 C 260.655424 112.796848 260.77697 112.970163 260.961539 113.030936 Q 263.829117 113.967288 264.279286 114.118095 Q 264.652927 114.244142 264.857754 114.320671 Q 266.453603 114.9284 267.718579 115.340304 Q 272.645681 116.949659 280.730721 119.785726 Q 281.480252 120.049075 283.728848 120.796355 Q 284.685457 121.113725 285.299938 121.815989 C 285.680331 122.252653 285.734352 123.062957 285.777118 123.542388 Q 286.146256 127.814494 286.717971 134.467995 Q 286.864276 136.149377 285.513769 136.815627 Q 276.967306 141.040466 267.491244 145.89329 C 262.762216 148.3152 258.589147 150.394982 256.128972 151.754493 Q 254.945027 152.409489 254.042438 152.497272 Q 253.614777 152.335212 253.166859 152.377978 C 253.099333 152.38473 253.029557 152.366723 252.973286 152.33071 Q 252.671673 152.137137 252.390317 152.098873 C 251.924392 152.035849 251.49448 151.727483 251.019552 151.641951 C 250.769708 151.596934 250.582887 151.450629 250.276772 151.331334 Q 246.738442 149.958318 243.438702 148.76762 Q 242.34254 148.371471 240.442826 147.644448 Q 235.009283 145.562415 232.598627 144.601304 Q 228.277002 142.877156 224.560855 141.47713 C 224.356028 141.400601 224.220977 141.204777 224.220977 140.988696 L 224.220977 127.16625 C 224.220977 127.121233 224.17371 127.089721 224.133194 127.109979 L 222.676897 127.812243 C 222.636382 127.8325 222.611622 127.870765 222.611622 127.913531 Q 222.557602 134.555778 222.539595 141.216032 C 222.539595 141.603177 222.568856 141.866526 222.888476 142.08936 Q 223.538971 142.548533 223.993642 142.724099 Q 227.558982 144.103867 230.865475 145.402605 Q 231.153583 145.515148 231.693787 145.909046 L 216.066162 145.884286 Q 211.35289 139.048467 209.901094 131.26279 Q 207.434167 118.027815 212.552591 105.666168 C 217.351395 94.069808 225.393668 83.758682 235.227615 76.335392 Q 237.658529 74.498701 241.01454 72.668763 Q 244.453833 70.793808 248.014672 70.303124 Z M 225.816827 129.705204 L 226.048664 133.828755 C 226.068922 134.186639 226.300759 134.497256 226.636135 134.621052 C 236.082937 138.100861 244.953521 141.573916 252.176486 144.585548 C 253.828607 145.272056 254.416078 144.797128 256.065949 143.928301 Q 268.463609 137.385091 281.201147 130.913909 Q 282.256794 130.378207 283.314692 129.829001 Q 283.850393 129.552147 283.944929 129.0277 Q 283.953932 128.982683 283.953932 128.082344 Q 283.951681 126.270413 283.769363 124.555268 C 283.778366 123.261032 283.645566 122.603785 282.328821 122.158117 Q 269.906401 117.955788 256.932524 113.442841 Q 255.395196 112.909391 253.981665 113.598149 Q 240.34829 120.247149 227.47345 126.427972 Q 225.278875 127.481368 225.816827 129.705204 Z" style="fill:#086f95;"/>
		<path d="M 254.042438 152.497272 Q 253.070072 152.537788 252.194493 152.206913 Q 245.012043 149.490142 237.834095 146.764367 C 236.661404 146.3187 235.655276 146.13188 234.262002 146.122876 Q 232.95201 146.116124 231.693787 145.909046 Q 231.153583 145.515148 230.865475 145.402605 Q 227.558982 144.103867 223.993642 142.724099 Q 223.538971 142.548533 222.888476 142.08936 C 222.568856 141.866526 222.539595 141.603177 222.539595 141.216032 Q 222.557602 134.555778 222.611622 127.913531 C 222.611622 127.870765 222.636382 127.8325 222.676897 127.812243 L 224.133194 127.109979 C 224.17371 127.089721 224.220977 127.121233 224.220977 127.16625 L 224.220977 140.988696 C 224.220977 141.204777 224.356028 141.400601 224.560855 141.47713 Q 228.277002 142.877156 232.598627 144.601304 Q 235.009283 145.562415 240.442826 147.644448 Q 242.34254 148.371471 243.438702 148.76762 Q 246.738442 149.958318 250.276772 151.331334 C 250.582887 151.450629 250.769708 151.596934 251.019552 151.641951 C 251.49448 151.727483 251.924392 152.035849 252.390317 152.098873 Q 252.671673 152.137137 252.973286 152.33071 C 253.029557 152.366723 253.099333 152.38473 253.166859 152.377978 Q 253.614777 152.335212 254.042438 152.497272 Z" style="fill:#fcecc9;"/>
		<path fill-opacity="0.996" d="M 267.777101 7.914171 L 263.743585 7.691337 Q 265.686065 7.659825 267.617291 7.761113 Q 267.682565 7.765615 267.727582 7.794876 Q 267.840125 7.871405 267.777101 7.914171 Z" style="fill:#efbc77;"/>
		<path fill-opacity="0.510" d="M 263.743585 7.691337 L 267.777101 7.914171 Q 267.891894 8.31032 267.777101 8.492638 Q 267.66906 8.609682 267.583528 8.607431 Q 265.614038 8.580421 263.644548 8.68396 Q 263.27991 8.704218 263.207883 8.371093 Q 263.075083 7.623812 263.743585 7.691337 Z" style="fill:#cdd9cf;"/>
		<path d="M 267.777101 8.492638 Q 267.943664 8.596177 267.637549 8.758238 C 267.592532 8.782997 267.540762 8.796502 267.491244 8.798753 Q 265.469984 8.927052 263.502744 8.84377 Q 263.282161 8.834767 263.214636 8.740231 Q 263.122351 8.611933 263.207883 8.371093 Q 263.27991 8.704218 263.644548 8.68396 Q 265.614038 8.580421 267.583528 8.607431 Q 267.66906 8.609682 267.777101 8.492638 Z" style="fill:#fcecc9;"/>
		<path d="M 267.786104 10.480135 C 267.786104 10.6512 267.648803 10.788501 267.477738 10.788501 L 263.547761 10.788501 C 263.376697 10.788501 263.239395 10.6512 263.239395 10.480135 L 263.239395 10.088488 C 263.239395 9.917424 263.376697 9.780122 263.547761 9.780122 L 267.477738 9.780122 C 267.648803 9.780122 267.786104 9.917424 267.786104 10.088488 L 267.786104 10.480135 Z" style="fill:#fcecc9;"/>
		<path d="M 263.212385 12.622941 L 263.212385 11.943185 C 263.212385 11.839646 263.297917 11.754114 263.401456 11.754114 L 267.601535 11.754114 C 267.705074 11.754114 267.790606 11.839646 267.790606 11.943185 L 267.790606 12.622941 C 267.790606 12.72648 267.705074 12.812012 267.601535 12.812012 L 263.401456 12.812012 C 263.297917 12.812012 263.212385 12.72648 263.212385 12.622941 Z M 267.634825 12.344804 C 267.610538 12.231294 267.437223 12.16827 267.246126 12.208605 C 267.054579 12.24705 266.919529 12.373097 266.94251 12.486922 C 266.966796 12.600432 267.140112 12.663456 267.331208 12.623121 C 267.522755 12.584676 267.657806 12.458629 267.634825 12.344804 Z" style="fill:#fcecc9;"/>
		<path d="M 267.817211 14.269075 C 267.815365 14.432621 267.682565 14.565421 267.518029 14.564116 L 263.376584 14.535192 C 263.212385 14.533909 263.079585 14.401109 263.081543 14.236032 L 263.082241 14.136995 C 263.084087 13.973449 263.216887 13.840649 263.381424 13.841954 L 267.522868 13.870877 C 267.687067 13.87216 267.819867 14.00496 267.817909 14.170037 L 267.817211 14.269075 Z" style="fill:#fcecc9;"/>
		<path d="M 267.833372 15.20016 C 267.833372 15.294695 267.756843 15.371224 267.662308 15.371224 L 263.354188 15.371224 C 263.259653 15.371224 263.183124 15.294695 263.183124 15.20016 L 263.183124 15.191156 C 263.183124 15.096621 263.259653 15.020092 263.354188 15.020092 L 267.662308 15.020092 C 267.756843 15.020092 267.833372 15.096621 267.833372 15.191156 L 267.833372 15.20016 Z" style="fill:#fcecc9;"/>
		<path fill-opacity="0.510" d="M 258.080456 16.811766 C 258.080456 16.816267 258.075954 16.820769 258.071452 16.820769 C 258.066951 16.820769 258.062449 16.816267 258.062449 16.811766 C 258.062449 16.807264 258.066951 16.802762 258.071452 16.802762 C 258.075954 16.802762 258.080456 16.807264 258.080456 16.811766 Z" style="fill:#cdd9cf;"/>
		<path fill-opacity="0.996" d="M 253.75658 17.426247 Q 253.821855 17.442002 253.848865 17.471263 Q 253.891631 17.518531 253.830858 17.502775 Q 253.758831 17.484769 253.75658 17.426247 Z" style="fill:#efbc77;"/>
		<path d="M 246.027175 23.273945 L 250.042684 20.314082 C 250.08545 20.28257 250.148474 20.30733 250.157477 20.359099 L 250.751701 23.780385 C 250.758453 23.827653 250.720189 23.870419 250.672921 23.865917 L 246.063188 23.402243 C 245.997914 23.39549 245.973154 23.312209 246.027175 23.273945 Z" style="fill:#086f95;"/>
		<path fill-opacity="0.996" d="M 212.183452 21.950447 C 212.183452 21.963952 212.172198 21.975207 212.158693 21.975207 C 212.145188 21.975207 212.133934 21.963952 212.133934 21.950447 C 212.133934 21.936942 212.145188 21.925688 212.158693 21.925688 C 212.172198 21.925688 212.183452 21.936942 212.183452 21.950447 Z" style="fill:#efbc77;"/>
		<path d="M 228.646141 41.508049 C 228.56286 41.505799 228.497585 41.438273 228.499836 41.354992 L 228.5381 39.907698 C 228.598873 37.569069 228.742927 35.676107 228.85772 35.678358 L 229.132324 35.68511 C 229.247117 35.687361 229.292134 37.587075 229.231361 39.925705 L 229.193097 41.372999 C 229.190846 41.45628 229.121069 41.521554 229.037788 41.519304 L 228.646141 41.508049 Z" style="fill:#fcecc9;"/>
		<path d="M 231.35168 41.176252 C 231.351658 41.339236 231.221109 41.472036 231.057315 41.471631 L 230.589139 41.472441 C 230.42656 41.472036 230.29376 41.341487 230.293783 41.178098 L 230.284734 36.005653 C 230.284757 35.84267 230.415306 35.70987 230.5791 35.710275 L 231.047276 35.709465 C 231.209855 35.70987 231.342655 35.840419 231.342632 36.003808 L 231.35168 41.176252 Z" style="fill:#fcecc9;"/>
		<path d="M 233.314351 41.182577 C 233.314396 41.352741 233.174843 41.490043 233.005445 41.490403 L 232.586787 41.489682 C 232.416308 41.490043 232.279007 41.35049 232.278962 41.180776 L 232.288055 35.97682 C 232.28801 35.806656 232.427562 35.669354 232.596961 35.668994 L 233.015618 35.669715 C 233.186098 35.669354 233.323399 35.808907 233.323444 35.978621 L 233.314351 41.182577 Z" style="fill:#fcecc9;"/>
		<path d="M 236.483587 41.451778 C 236.368794 41.451778 236.274258 41.357243 236.274258 41.24245 L 236.274258 36.396378 C 236.274258 35.995727 236.452075 35.671605 236.670407 35.671605 L 236.89099 35.671605 C 237.109322 35.671605 237.287139 35.995727 237.287139 36.396378 L 237.287139 41.24245 C 237.287139 41.357243 237.192604 41.451778 237.077811 41.451778 L 236.483587 41.451778 Z" style="fill:#fcecc9;"/>
		<path d="M 234.498341 41.454029 C 234.385799 41.45628 234.293514 41.363995 234.293514 41.251453 L 234.275507 36.245571 C 234.275507 35.961964 234.433066 35.734629 234.62889 35.732378 L 234.912497 35.732378 C 235.106069 35.730127 235.265879 35.959714 235.265879 36.241069 L 235.283886 41.246951 C 235.283886 41.359494 235.193852 41.451778 235.079059 41.454029 L 234.498341 41.454029 Z" style="fill:#fcecc9;"/>
		<path d="M 239.248234 41.146879 C 239.247626 41.363995 239.069809 41.539561 238.851612 41.538008 L 238.631029 41.536478 C 238.412562 41.53506 238.239247 41.357243 238.239877 41.139833 L 238.274653 36.161074 C 238.275261 35.943958 238.453078 35.768392 238.671275 35.769945 L 238.891857 35.771475 C 239.110325 35.772893 239.28364 35.95071 239.28301 36.168119 L 239.248234 41.146879 Z" style="fill:#fcecc9;"/>
		<path d="M 240.336991 41.699754 C 240.339287 41.780402 240.274012 41.847927 240.194039 41.849345 L 240.185036 41.849548 C 240.105199 41.852429 240.037673 41.787154 240.035467 41.706596 L 239.913922 36.350978 C 239.911626 36.27033 239.9769 36.202805 240.056873 36.201387 L 240.065876 36.201184 C 240.145714 36.198303 240.213239 36.263578 240.215445 36.344136 L 240.336991 41.699754 Z" style="fill:#fcecc9;"/>
		<path d="M 283.769363 124.555268 Q 283.082855 125.027946 282.297309 125.435349 Q 276.093977 128.642805 265.755841 133.876022 Q 260.664427 136.455492 255.588769 139.064223 Q 253.563008 140.106364 251.775836 139.408602 Q 238.909999 134.382463 225.816827 129.705204 Q 225.278875 127.481368 227.47345 126.427972 Q 240.34829 120.247149 253.981665 113.598149 Q 255.395196 112.909391 256.932524 113.442841 Q 269.906401 117.955788 282.328821 122.158117 C 283.645566 122.603785 283.778366 123.261032 283.769363 124.555268 Z" style="fill:#fcecc9;"/>
		<path fill-opacity="0.996" d="M 225.816827 129.705204 Q 238.909999 134.382463 251.775836 139.408602 Q 253.563008 140.106364 255.588769 139.064223 Q 260.664427 136.455492 265.755841 133.876022 Q 276.093977 128.642805 282.297309 125.435349 Q 283.082855 125.027946 283.769363 124.555268 Q 283.951681 126.270413 283.953932 128.082344 Q 283.953932 128.982683 283.944929 129.0277 Q 283.850393 129.552147 283.314692 129.829001 Q 282.256794 130.378207 281.201147 130.913909 Q 268.463609 137.385091 256.065949 143.928301 C 254.416078 144.797128 253.828607 145.272056 252.176486 144.585548 C 244.953521 141.573916 236.082937 138.100861 226.636135 134.621052 C 226.300759 134.497256 226.068922 134.186639 226.048664 133.828755 L 225.816827 129.705204 Z" style="fill:#efbc77;"/>
		<path fill-opacity="0.996" d="M 267.634825 12.344804 C 267.657806 12.458629 267.522755 12.584676 267.331208 12.623121 C 267.140112 12.663456 266.966796 12.600432 266.94251 12.486922 C 266.919529 12.373097 267.054579 12.24705 267.246126 12.208605 C 267.437223 12.16827 267.610538 12.231294 267.634825 12.344804 Z" style="fill:#efbc77;"/>
	</g>
	<g id="surface4">
	</g>
</svg>
