<?xml version="1.0" encoding="utf-8"?>
<svg xmlns="http://www.w3.org/2000/svg" width="490pt" height="280pt" viewBox="0 0 490 280" version="1.1" xmlns:xlink="http://www.w3.org/1999/xlink">
	<g id="surface2">
		<path vector-effect="non-scaling-stroke" d="M 194.099679 58.622473 C 191.375963 65.770473 190.341917 73.264194 190.790419 80.933889 Q 191.053603 85.439154 192.191988 89.907044 Q 195.431169 102.622386 203.907545 112.439596 C 215.777274 126.185871 234.173642 133.710737 252.271009 131.057101 Q 267.618186 128.806804 279.758886 118.746655 Q 280.859896 117.834079 282.07926 116.670777 C 290.370318 108.767486 296.278709 98.381862 298.493187 87.15374 Q 300.936589 74.768544 297.29251 62.430068 Q 296.088718 58.357732 294.386591 54.793076 C 291.7641 49.302041 288.258621 44.095992 283.994738 39.702853 Q 273.280524 28.663163 258.638803 24.70451 Q 249.232719 22.161442 239.233305 23.243764 Q 237.509376 23.429083 236.14674 23.678251 Q 220.270081 26.574826 208.461086 37.432311 C 202.125995 43.256608 197.181572 50.536979 194.099679 58.622473" style="fill:none;stroke-width:0.50;stroke:#a28e73;"/>
		<path vector-effect="non-scaling-stroke" d="M 273.841151 69.065717 C 273.993766 68.783846 274.263179 68.495746 274.384648 68.30887 C 275.636716 66.388721 275.393778 63.872126 274.364403 61.881899 Q 273.83025 60.852524 273.165284 59.983552 C 270.696965 56.758386 267.191486 54.146797 263.584783 52.332544 C 252.3224 46.667092 239.270681 46.528492 227.802734 51.745442 C 223.571554 53.670263 219.564625 56.467172 216.808206 60.220261 C 214.942562 62.758658 213.983267 66.427653 216.288068 69.075061 C 216.319214 69.110879 216.29274 69.166941 216.246021 69.165384 C 214.13121 69.112436 212.07869 69.051701 210.423282 70.224347 C 209.627502 70.789646 209.333173 71.742713 209.777003 72.652176 Q 209.901587 72.907573 210.013713 73.119365 Q 210.04953 73.186329 209.993468 73.239277 Q 208.327158 74.774773 208.591899 77.040643 C 208.605915 77.151211 208.56231 77.261779 208.478216 77.334972 Q 207.951849 77.788146 207.669978 78.381477 Q 206.430369 80.999296 207.897344 83.503432 C 209.507591 86.250507 212.56301 87.496345 215.563925 88.29524 Q 215.64179 88.315484 215.602857 88.38712 Q 215.012641 89.450755 214.892729 90.667005 C 214.307185 96.603427 220.583098 99.775644 225.407609 100.7583 C 228.501961 101.387448 231.727126 101.655304 234.914916 101.811034 Q 246.526134 102.37789 257.185843 101.688007 C 260.914016 101.446626 264.516047 101.072874 267.977922 99.744499 C 270.692293 98.704223 273.562395 96.65949 274.742827 93.980937 Q 275.775316 91.635645 274.962406 89.019383 C 274.900114 88.821606 274.735041 88.605142 274.658733 88.432282 Q 274.62603 88.359089 274.697665 88.324828 Q 274.756843 88.296797 275.516804 88.095905 Q 276.761086 87.768873 278.449198 86.893671 C 281.825421 85.144825 285.045914 80.95102 281.943776 77.275795 C 281.911072 77.23842 281.893942 77.191701 281.895499 77.141867 Q 281.91263 76.291582 281.890827 76.026842 Q 281.728868 74.131609 280.319513 73.117808 Q 280.230747 73.053959 280.291482 72.963635 C 281.062345 71.823693 280.777359 70.806777 279.618729 70.051487 Q 278.363546 69.233905 276.809362 69.202759 Q 273.96885 69.146697 273.892542 69.145139 Q 273.799104 69.143582 273.841151 69.065717" style="fill:none;stroke-width:0.50;stroke:#a28e73;"/>
		<path vector-effect="non-scaling-stroke" d="M 232.958949 51.374805 C 230.80832 51.999282 228.850796 52.902515 226.823193 53.930332 Q 224.06366 55.327229 221.696566 57.323686 Q 220.346388 58.460514 219.645604 59.234491 C 218.211332 60.821378 216.635346 62.637189 216.485845 64.889042 Q 216.312985 67.488174 218.413781 68.699752 C 218.790647 68.916216 219.30767 69.067274 219.725026 69.067274 Q 226.195602 69.071946 230.431454 69.078175 C 232.132024 69.079733 234.022584 68.973836 235.899129 68.950477 Q 236.578111 68.94269 237.250864 68.872612" style="fill:none;stroke-width:0.50;stroke:#8c5023;"/>
		<path vector-effect="non-scaling-stroke" d="M 237.250864 68.872612 L 243.227776 68.900643" style="fill:none;stroke-width:0.50;stroke:#9b5e28;"/>
		<path vector-effect="non-scaling-stroke" d="M 243.227776 68.900643 Q 245.312999 69.020555 246.393764 69.036128 Q 248.581769 69.070389 254.440326 69.078175 Q 254.921531 69.079733 255.477487 69.117108 Q 256.161141 69.162269 256.516205 69.152926 Q 259.736698 69.073503 270.298297 69.099978 Q 272.092305 69.104649 273.059387 67.538007" style="fill:none;stroke-width:0.50;stroke:#8c5023;"/>
		<path vector-effect="non-scaling-stroke" d="M 273.059387 67.538007 Q 273.143481 67.457028 273.188643 67.371376 Q 273.976636 65.885713 273.609114 64.289482 Q 273.269623 62.822507 272.332129 61.494131 C 269.930774 58.089877 266.546765 55.526563 262.85441 53.687394 C 253.583812 49.068446 242.790175 48.233734 232.958949 51.374805" style="fill:none;stroke-width:0.50;stroke:#9b5e28;"/>
		<path vector-effect="non-scaling-stroke" d="M 273.059387 67.538007 Q 273.095205 67.220318 272.821121 67.544236 C 272.542364 67.872826 271.393078 68.150025 271.12678 68.173385 Q 268.804848 68.378948 265.316499 68.433454 C 263.360532 68.4646 261.480872 68.587626 259.761615 68.570496 Q 257.277724 68.544022 254.094605 68.653033 C 252.954663 68.691965 251.464328 68.612543 250.410037 68.67795 Q 246.829808 68.899086 243.227776 68.900643" style="fill:none;stroke-width:0.50;stroke:#de7e2e;"/>
		<path vector-effect="non-scaling-stroke" d="M 237.250864 68.872612 Q 235.948963 68.765158 234.63616 68.805648 Q 234.284211 68.814992 233.07419 68.615658 Q 232.255051 68.480173 231.568282 68.470829 Q 229.325772 68.439683 227.267023 67.953806 C 226.122409 67.684393 225.052545 67.095734 224.373563 66.156683 C 223.392464 64.800276 223.565325 62.666777 224.14464 61.204474 C 225.420067 57.980866 227.992724 55.13101 230.841023 53.058245 Q 231.13691 52.841781 231.632131 52.584826 C 232.189644 52.295169 232.782975 52.016412 232.958949 51.374805" style="fill:none;stroke-width:0.50;stroke:#de7e2e;"/>
		<path vector-effect="non-scaling-stroke" d="M 211.317171 71.657062 Q 211.296927 71.853281 211.332744 71.98098 Q 211.367005 72.097777 211.544537 72.184986 Q 212.511619 72.661519 213.379035 73.317142" style="fill:none;stroke-width:0.50;stroke:#77742e;"/>
		<path vector-effect="non-scaling-stroke" d="M 213.379035 73.317142 Q 213.400837 73.332715 213.389936 73.35296 Q 213.380592 73.368533 213.361904 73.371647 Q 211.320286 73.569424 210.357876 75.298026 Q 209.948306 76.031513 210.194359 76.67935" style="fill:none;stroke-width:0.50;stroke:#625f24;"/>
		<path vector-effect="non-scaling-stroke" d="M 210.194359 76.67935 Q 210.974566 78.429753 212.762344 79.367247 Q 214.617087 80.339001 216.334787 80.659805 C 219.139482 81.183057 222.090563 80.92766 224.572897 79.536992 Q 225.870126 78.809734 227.178257 77.752328 C 228.067475 77.035971 229.05013 76.827293 229.962707 77.713396 Q 230.38162 78.121408 231.314442 79.029313 C 233.602114 81.25625 237.252422 81.594184 240.120966 80.463585 C 241.192387 80.041557 242.101849 79.290939 243.13901 78.449998 C 244.352146 77.465785 245.758386 77.249321 247.038486 78.280253 Q 248.323257 79.311184 249.214032 79.885827 C 252.14954 81.779502 257.073718 81.292068 259.66039 78.935875 C 260.920245 77.788146 262.262636 76.260436 264.050415 77.697823 Q 265.216832 78.633759 265.90983 79.074475 Q 267.747442 80.242449 269.799961 80.623987 C 273.356831 81.285839 277.365318 80.804633 279.70438 77.721182 Q 280.606056 76.534521 280.120179 75.182786" style="fill:none;stroke-width:0.50;stroke:#77742e;"/>
		<path vector-effect="non-scaling-stroke" d="M 280.120179 75.182786 Q 279.487916 74.234391 278.696808 73.893343 Q 277.840294 73.522705 276.538392 73.354517" style="fill:none;stroke-width:0.50;stroke:#625f24;"/>
		<path vector-effect="non-scaling-stroke" d="M 276.538392 73.354517 Q 277.483672 72.564967 278.502146 72.133595" style="fill:none;stroke-width:0.50;stroke:#77742e;"/>
		<path vector-effect="non-scaling-stroke" d="M 278.502146 72.133595 Q 278.749756 72.09622 278.930403 71.945162 C 278.966221 71.915573 278.986466 71.868854 278.983351 71.822135 C 278.925731 70.893985 277.466542 70.654162 276.761086 70.663505 Q 269.817092 70.750714 262.866868 70.750714" style="fill:none;stroke-width:0.50;stroke:#625f24;"/>
		<path vector-effect="non-scaling-stroke" d="M 262.866868 70.750714 L 258.031456 70.761615" style="fill:none;stroke-width:0.50;stroke:#77742e;"/>
		<path vector-effect="non-scaling-stroke" d="M 258.031456 70.761615 Q 257.679507 70.747599 257.333786 70.760058 C 254.907515 70.847267 251.981351 70.750714 250.070546 70.739813 Q 245.573068 70.711782 244.409766 70.72424 Q 243.878727 70.730469 243.240235 70.761615 C 241.327872 70.853496 239.027742 70.792761 235.570539 70.761615 C 234.897786 70.755386 234.137824 70.705552 233.55228 70.70088 Q 224.685022 70.647932 214.272924 70.669734 Q 213.290269 70.671292 212.539651 70.814563 Q 211.625517 70.988981 211.317171 71.657062" style="fill:none;stroke-width:0.50;stroke:#625f24;"/>
		<path vector-effect="non-scaling-stroke" d="M 258.031456 70.761615 Q 257.774502 70.792761 257.537793 70.842595 C 257.332229 70.886199 257.257479 71.02947 257.07216 71.077747 Q 256.891514 71.124466 256.715539 71.239706 Q 254.919974 72.410794 252.80672 73.162969 C 250.642075 73.93539 248.29834 74.066203 246.066731 73.83728 Q 245.884527 73.818592 246.044929 73.904244 C 247.726812 74.804362 249.259193 75.564324 251.188686 75.791689 Q 253.459228 76.059545 255.117751 74.664205 C 255.952463 73.961864 257.051915 72.870197 258.19653 72.289325 C 259.501546 71.627473 260.965407 71.945162 262.27198 72.459071 C 265.005039 73.535164 266.666677 74.226604 268.932546 74.827722 C 270.605085 75.273109 272.439582 75.523834 274.096548 74.988123 Q 274.825364 74.751414 275.298783 74.366761 Q 275.955963 73.829493 276.538392 73.354517" style="fill:none;stroke-width:0.50;stroke:#90a235;"/>
		<path vector-effect="non-scaling-stroke" d="M 280.120179 75.182786 Q 278.600256 75.874226 277.661204 76.187243 C 274.763072 77.155883 271.29964 77.183914 268.367247 76.283796 C 266.548322 75.726283 265.061102 75.019269 262.734498 74.053744 Q 261.754957 73.647289 260.993438 73.493117 C 259.232133 73.133381 257.782288 74.97255 256.648575 75.995696 Q 255.072589 77.419066 253.091705 77.570124 Q 251.247864 77.711839 250.188901 77.445541 C 249.276324 77.216618 248.605128 77.158998 247.862297 76.796147 Q 247.12258 76.434854 246.460728 76.266666 C 245.521677 76.026842 244.560824 75.156312 243.534564 75.659319 Q 242.819764 76.008154 242.536336 76.179457 C 240.578811 77.367676 237.940748 78.714739 235.732498 77.481358 Q 234.735827 76.923845 233.992996 76.148311 Q 233.094434 75.207702 232.602328 74.818378 C 231.711553 74.111364 230.099749 73.511804 228.933333 73.899572 Q 228.540893 74.031942 227.933547 74.192344 Q 226.835652 74.485116 225.402937 75.277781 C 224.143082 75.975451 222.925275 76.71361 221.39445 77.41128 Q 220.301227 77.909615 219.555281 78.104278 Q 216.976394 78.777031 214.350789 78.12608 Q 212.327858 77.62463 210.194359 76.67935" style="fill:none;stroke-width:0.50;stroke:#90a235;"/>
		<path vector-effect="non-scaling-stroke" d="M 213.379035 73.317142 Q 213.483374 73.324929 213.579926 73.409023 C 215.000183 74.654861 216.865826 74.696909 218.648933 74.695351 Q 221.495675 74.692237 223.959321 74.058416 Q 225.912173 73.555409 227.777817 72.938718 C 230.026556 72.192772 232.43414 72.488659 234.066189 74.340287 C 234.664191 75.017712 235.382106 75.910044 236.053302 76.251093 C 237.115379 76.791475 238.404823 76.447312 239.413952 75.930289 Q 240.888714 75.176557 242.525434 73.964978 Q 242.699852 73.83728 242.486502 73.873098 Q 242.142339 73.930718 241.721868 73.944733 Q 241.1846 73.960306 239.356332 73.824821 C 237.171442 73.662862 235.072204 73.100678 233.046158 72.431039 Q 231.857939 72.040157 230.794304 71.800333 Q 229.101521 71.420352 228.497289 71.372076 Q 226.242321 71.189872 225.460557 71.188315 C 223.09502 71.180528 219.958621 71.345602 217.195973 71.365847 Q 215.188616 71.38142 212.877585 71.440597 Q 212.580141 71.448384 212.100493 71.549608 Q 211.718954 71.62903 211.317171 71.657062" style="fill:none;stroke-width:0.50;stroke:#90a235;"/>
		<path vector-effect="non-scaling-stroke" d="M 278.502146 72.133595 C 278.523948 71.734927 277.941518 71.733369 277.683007 71.770745 Q 275.691222 72.052616 274.630702 71.990324 Q 270.195515 71.730255 265.386577 71.244378 Q 264.271552 71.132252 262.866868 70.750714" style="fill:none;stroke-width:0.50;stroke:#90a235;"/>
		<path vector-effect="non-scaling-stroke" d="M 281.118407 78.747442 Q 280.036085 80.153683 278.369775 81.209531 Q 277.085004 82.023998 275.312798 82.346359 C 271.458484 83.050258 267.805062 82.439797 264.607928 80.214417 Q 264.274666 79.98238 263.871326 79.88427 C 263.341844 79.756572 262.667534 79.454456 262.268866 79.597727 C 261.7534 79.781488 261.284653 79.892057 260.811234 80.209745 Q 259.813006 80.879384 259.41278 81.134781 Q 257.620329 82.279395 255.460356 82.639131 Q 251.453427 83.304098 248.212689 81.148796 Q 247.015126 80.35146 246.238034 79.817306 Q 245.57151 79.35946 245.344145 79.351674 Q 244.79909 79.332986 244.525006 79.529206 Q 244.160598 79.789275 242.523877 80.991509 Q 239.42641 83.263608 235.554966 82.735684 Q 234.441498 82.584626 233.555395 82.276281 Q 233.229919 82.164155 232.683308 82.050472 C 231.81122 81.869826 230.817664 81.290511 230.199416 80.866925 Q 229.817878 80.605299 228.207632 79.396836 C 228.114194 79.326757 227.983381 79.334544 227.899286 79.415523 Q 227.632988 79.672477 227.383821 79.828207 Q 226.055445 80.65669 225.673907 80.877827 Q 222.856754 82.520776 219.535036 82.634459 Q 215.8894 82.7606 212.723412 81.193958 C 211.795262 80.734555 210.969894 80.086719 210.086906 79.426424 Q 209.750529 79.175699 209.487346 78.865797 C 209.417267 78.78326 209.289569 78.789489 209.227277 78.876698 Q 208.862869 79.393721 208.763202 80.018198 Q 208.420596 82.196858 210.082234 83.84448 Q 211.460443 85.210231 213.34166 85.929703 Q 215.193288 86.639831 216.579283 86.931046 Q 221.338388 87.933946 226.735984 88.304583 Q 235.849296 88.930617 244.021998 88.939961 Q 252.369119 88.949305 260.915573 88.48523 Q 264.592355 88.285896 268.583711 87.862311 Q 272.185743 87.48233 275.351731 86.518362 C 277.770215 85.78176 280.483029 84.238477 281.412737 81.71721 Q 281.69305 80.960363 281.669691 80.348345 Q 281.649446 79.7519 281.345773 78.959235 Q 281.28971 78.809734 281.17447 78.738098 C 281.155782 78.72564 281.130866 78.730312 281.118407 78.747442" style="fill:none;stroke-width:0.50;stroke:#633920;"/>
		<path vector-effect="non-scaling-stroke" d="M 273.289867 89.14241 Q 273.11545 88.753085 272.76973 88.81382 Q 268.009068 89.646975 262.890228 89.925731 Q 260.831479 90.037857 260.80812 90.039414 Q 245.454713 90.948876 229.579612 90.05343 Q 225.376463 89.81672 221.701238 89.404036" style="fill:none;stroke-width:0.50;stroke:#9b5e28;"/>
		<path vector-effect="non-scaling-stroke" d="M 221.701238 89.404036 Q 219.746829 89.148639 217.702096 88.776445 Q 217.538579 88.746856 217.298755 88.778002 C 217.247364 88.784231 217.202203 88.810705 217.171057 88.851195 C 216.157255 90.140638 216.236678 92.098163 216.842467 93.543336 C 217.480959 95.069488 218.812449 96.295082 220.209346 97.150039 C 222.820936 98.747827 225.963564 99.442383 228.973822 99.739827 Q 233.138039 100.150953 236.330501 100.245949 Q 244.744585 100.495116 252.745985 100.278652 C 255.686165 100.19923 258.993867 99.995224 261.404565 99.727368 Q 262.247063 99.63393 264.354088 99.225918 Q 268.463799 98.428581 271.460042 95.873054 C 273.19643 94.392063 274.096548 92.372247 273.688536 90.079904 Q 273.6169 89.685907 273.289867 89.14241" style="fill:none;stroke-width:0.50;stroke:#8c5023;"/>
		<path vector-effect="non-scaling-stroke" d="M 221.701238 89.404036 Q 221.397565 90.069003 221.603128 90.959777 Q 222.110808 93.150896 223.949977 94.479272 Q 225.935533 95.911987 227.875927 96.539578 Q 230.859711 97.50666 234.318471 97.716896 C 240.577254 98.096877 246.959063 98.025241 253.485702 97.805662 Q 255.70018 97.732469 259.177628 97.435025 Q 263.239063 97.089304 266.711838 95.955591 C 269.401293 95.078832 272.737026 93.364246 273.146596 90.207602 Q 273.216674 89.668777 273.289867 89.14241" style="fill:none;stroke-width:0.50;stroke:#de7e2e;"/>
		<path vector-effect="non-scaling-stroke" d="M 237.641746 55.454928 C 237.391021 55.72434 237.124723 55.881627 236.693351 56.207103 C 236.582783 56.291197 236.571882 56.456271 236.671549 56.55438 C 237.0344 56.911002 237.903372 56.177514 238.143196 55.92056 C 238.381463 55.662048 239.047987 54.741685 238.666449 54.405308 C 238.560552 54.313428 238.398593 54.336787 238.322286 54.453585 C 238.027956 54.908316 237.890914 55.185515 237.641746 55.454928" style="fill:none;stroke-width:0.50;stroke:#de7e2e;"/>
		<path vector-effect="non-scaling-stroke" d="M 251.947091 54.381949 L 250.807148 56.294312 C 250.796247 56.311442 250.802476 56.334801 250.819607 56.345702 L 250.920831 56.40488 C 251.162212 56.549708 251.546865 56.348817 251.78046 55.956378 L 252.112164 55.398865 C 252.347316 55.007983 252.341087 54.571939 252.098149 54.428668 L 251.998482 54.367933 C 251.981351 54.358589 251.957992 54.363261 251.947091 54.381949" style="fill:none;stroke-width:0.50;stroke:#de7e2e;"/>
		<path vector-effect="non-scaling-stroke" d="M 243.343016 56.708553 Q 243.321214 56.523234 243.522106 56.219561 C 243.651361 56.024899 243.604642 55.777288 243.434897 55.752372 C 242.82755 55.663606 242.673378 56.43914 242.723211 56.932804 C 242.746571 57.157055 242.970822 57.264509 243.173271 57.276967 C 243.816435 57.317457 244.341245 57.340816 244.855153 57.121237 C 244.962607 57.076075 244.999982 56.942148 244.931461 56.84871 Q 244.848924 56.735027 244.719668 56.747485 Q 243.961264 56.819121 243.48473 56.83158 C 243.413095 56.833137 243.350803 56.780189 243.343016 56.708553" style="fill:none;stroke-width:0.50;stroke:#de7e2e;"/>
		<path vector-effect="non-scaling-stroke" d="M 255.375234 58.037785 C 255.382491 57.94972 255.318642 57.873412 255.231449 57.86519 L 255.219037 57.864068 C 255.131766 57.856282 255.053901 57.920131 255.046442 58.007869 L 254.913215 59.471901 C 254.905958 59.559967 254.969807 59.636274 255.057 59.644497 L 255.069412 59.645618 C 255.156683 59.653405 255.234548 59.589555 255.242007 59.501817 L 255.375234 58.037785" style="fill:none;stroke-width:0.50;stroke:#de7e2e;"/>
		<path vector-effect="non-scaling-stroke" d="M 260.284992 58.20655 C 260.26618 58.12258 259.890871 58.133481 259.448286 58.23388 C 259.004768 58.334373 258.662162 58.483873 258.680725 58.568092 C 258.699537 58.652062 259.074846 58.64116 259.51743 58.540761 C 259.960949 58.440269 260.303555 58.290768 260.284992 58.20655" style="fill:none;stroke-width:0.50;stroke:#de7e2e;"/>
		<path vector-effect="non-scaling-stroke" d="M 268.291796 59.738417 C 268.256679 59.53505 267.716296 59.457185 267.084002 59.563642 C 266.451769 59.670535 265.965892 59.922817 266.000854 60.125904 C 266.035971 60.329272 266.576353 60.407137 267.208648 60.30068 C 267.84088 60.193787 268.326757 59.941505 268.291796 59.738417" style="fill:none;stroke-width:0.50;stroke:#de7e2e;"/>
		<path vector-effect="non-scaling-stroke" d="M 239.752929 59.855277 C 239.641318 59.731269 239.261337 59.890114 238.903968 60.211058 C 238.548094 60.531721 238.34876 60.893014 238.461399 61.018174 C 238.573011 61.142182 238.952992 60.983337 239.31036 60.662394 C 239.666234 60.34173 239.865569 59.980437 239.752929 59.855277" style="fill:none;stroke-width:0.50;stroke:#de7e2e;"/>
		<path vector-effect="non-scaling-stroke" d="M 262.574984 61.084484 C 262.655076 61.139067 262.784331 61.086119 262.866292 60.966129 C 262.947848 60.846295 262.949405 60.706138 262.869095 60.651711 C 262.789003 60.597127 262.659748 60.650076 262.577787 60.770065 C 262.496231 60.8899 262.494674 61.030056 262.574984 61.084484" style="fill:none;stroke-width:0.50;stroke:#de7e2e;"/>
		<path vector-effect="non-scaling-stroke" d="M 266.728969 85.263179 C 266.728969 84.954834 266.478244 84.704109 266.169898 84.704109 C 265.861553 84.704109 265.610828 84.954834 265.610828 85.263179 C 265.610828 85.571524 265.861553 85.822249 266.169898 85.822249 C 266.478244 85.822249 266.728969 85.571524 266.728969 85.263179" style="fill:none;stroke-width:0.50;stroke:#bc9777;"/>
		<path vector-effect="non-scaling-stroke" d="M 259.74137 85.356617 C 259.74137 85.045157 259.48753 84.791318 259.176071 84.791318 C 258.864611 84.791318 258.610771 85.045157 258.610771 85.356617 C 258.610771 85.668077 258.864611 85.921917 259.176071 85.921917 C 259.48753 85.921917 259.74137 85.668077 259.74137 85.356617" style="fill:none;stroke-width:0.50;stroke:#bc9777;"/>
		<path vector-effect="non-scaling-stroke" d="M 229.853696 85.462513 C 229.853696 85.154168 229.602971 84.903443 229.294626 84.903443 C 228.986281 84.903443 228.735556 85.154168 228.735556 85.462513 C 228.735556 85.770859 228.986281 86.021584 229.294626 86.021584 C 229.602971 86.021584 229.853696 85.770859 229.853696 85.462513" style="fill:none;stroke-width:0.50;stroke:#bc9777;"/>
		<path vector-effect="non-scaling-stroke" d="M 243.12188 85.485873 C 243.12188 85.174413 242.869597 84.922131 242.558138 84.922131 C 242.246678 84.922131 241.994396 85.174413 241.994396 85.485873 C 241.994396 85.797333 242.246678 86.049615 242.558138 86.049615 C 242.869597 86.049615 243.12188 85.797333 243.12188 85.485873" style="fill:none;stroke-width:0.50;stroke:#bc9777;"/>
		<path d="M 303.255406 122.725553 Q 297.230218 130.569666 288.834822 136.918772 Q 280.324185 143.356645 270.111421 146.890155 Q 260.848609 150.095075 251.141967 150.889298 Q 249.6127 151.013882 248.033599 151.068387 Q 234.158069 151.540248 221.006683 147.193828 Q 219.57864 146.721967 218.082076 146.136422 Q 209.590127 142.813147 202.368934 137.647588 Q 200.761802 136.498302 198.383807 134.55635 Q 197.042973 133.46157 196.022942 132.534977 C 187.242893 124.558494 180.409467 114.555965 176.262381 103.418166 Q 175.099079 100.29111 174.23945 97.227904 Q 172.026529 89.340187 171.620074 81.60197 C 171.257223 74.68445 171.687038 67.863482 173.224091 61.087676 Q 175.475945 51.166127 180.21169 42.196088 Q 182.346746 38.150226 184.732528 34.761544 C 186.243107 32.615587 188.021542 30.248493 189.870056 28.167942 Q 194.228934 23.25778 198.72797 19.560753 Q 212.002383 8.653434 228.797848 4.900345 Q 234.651733 3.592214 240.477587 3.262067 Q 245.929689 2.953721 250.797804 3.290098 Q 253.800276 3.497219 257.682621 4.096779 Q 259.345816 4.353733 260.74427 4.654291 Q 275.203787 7.754873 287.447269 16.449271 C 296.666476 22.997711 304.248963 31.584655 309.685492 41.48596 Q 311.141566 44.136482 312.220774 46.570539 C 315.547164 54.065817 317.732054 61.930175 318.462427 70.068617 Q 318.873553 74.66732 318.803475 79.38282 C 318.777001 81.190844 318.607255 83.040914 318.445296 84.800662 C 317.514032 94.990066 314.139366 105.148325 309.107734 114.023369 Q 306.764 118.157997 303.255406 122.725553 Z M 194.099679 58.622473 C 191.375963 65.770473 190.341917 73.264194 190.790419 80.933889 Q 191.053603 85.439154 192.191988 89.907044 Q 195.431169 102.622386 203.907545 112.439596 C 215.777274 126.185871 234.173642 133.710737 252.271009 131.057101 Q 267.618186 128.806804 279.758886 118.746655 Q 280.859896 117.834079 282.07926 116.670777 C 290.370318 108.767486 296.278709 98.381862 298.493187 87.15374 Q 300.936589 74.768544 297.29251 62.430068 Q 296.088718 58.357732 294.386591 54.793076 C 291.7641 49.302041 288.258621 44.095992 283.994738 39.702853 Q 273.280524 28.663163 258.638803 24.70451 Q 249.232719 22.161442 239.233305 23.243764 Q 237.509376 23.429083 236.14674 23.678251 Q 220.270081 26.574826 208.461086 37.432311 C 202.125995 43.256608 197.181572 50.536979 194.099679 58.622473 Z" style="fill:#49301c;"/>
		<path d="M 194.099679 58.622473 C 197.181572 50.536979 202.125995 43.256608 208.461086 37.432311 Q 220.270081 26.574826 236.14674 23.678251 Q 237.509376 23.429083 239.233305 23.243764 Q 249.232719 22.161442 258.638803 24.70451 Q 273.280524 28.663163 283.994738 39.702853 C 288.258621 44.095992 291.7641 49.302041 294.386591 54.793076 Q 296.088718 58.357732 297.29251 62.430068 Q 300.936589 74.768544 298.493187 87.15374 C 296.278709 98.381862 290.370318 108.767486 282.07926 116.670777 Q 280.859896 117.834079 279.758886 118.746655 Q 267.618186 128.806804 252.271009 131.057101 C 234.173642 133.710737 215.777274 126.185871 203.907545 112.439596 Q 195.431169 102.622386 192.191988 89.907044 Q 191.053603 85.439154 190.790419 80.933889 C 190.341917 73.264194 191.375963 65.770473 194.099679 58.622473 Z M 273.841151 69.065717 C 273.993766 68.783846 274.263179 68.495746 274.384648 68.30887 C 275.636716 66.388721 275.393778 63.872126 274.364403 61.881899 Q 273.83025 60.852524 273.165284 59.983552 C 270.696965 56.758386 267.191486 54.146797 263.584783 52.332544 C 252.3224 46.667092 239.270681 46.528492 227.802734 51.745442 C 223.571554 53.670263 219.564625 56.467172 216.808206 60.220261 C 214.942562 62.758658 213.983267 66.427653 216.288068 69.075061 C 216.319214 69.110879 216.29274 69.166941 216.246021 69.165384 C 214.13121 69.112436 212.07869 69.051701 210.423282 70.224347 C 209.627502 70.789646 209.333173 71.742713 209.777003 72.652176 Q 209.901587 72.907573 210.013713 73.119365 Q 210.04953 73.186329 209.993468 73.239277 Q 208.327158 74.774773 208.591899 77.040643 C 208.605915 77.151211 208.56231 77.261779 208.478216 77.334972 Q 207.951849 77.788146 207.669978 78.381477 Q 206.430369 80.999296 207.897344 83.503432 C 209.507591 86.250507 212.56301 87.496345 215.563925 88.29524 Q 215.64179 88.315484 215.602857 88.38712 Q 215.012641 89.450755 214.892729 90.667005 C 214.307185 96.603427 220.583098 99.775644 225.407609 100.7583 C 228.501961 101.387448 231.727126 101.655304 234.914916 101.811034 Q 246.526134 102.37789 257.185843 101.688007 C 260.914016 101.446626 264.516047 101.072874 267.977922 99.744499 C 270.692293 98.704223 273.562395 96.65949 274.742827 93.980937 Q 275.775316 91.635645 274.962406 89.019383 C 274.900114 88.821606 274.735041 88.605142 274.658733 88.432282 Q 274.62603 88.359089 274.697665 88.324828 Q 274.756843 88.296797 275.516804 88.095905 Q 276.761086 87.768873 278.449198 86.893671 C 281.825421 85.144825 285.045914 80.95102 281.943776 77.275795 C 281.911072 77.23842 281.893942 77.191701 281.895499 77.141867 Q 281.91263 76.291582 281.890827 76.026842 Q 281.728868 74.131609 280.319513 73.117808 Q 280.230747 73.053959 280.291482 72.963635 C 281.062345 71.823693 280.777359 70.806777 279.618729 70.051487 Q 278.363546 69.233905 276.809362 69.202759 Q 273.96885 69.146697 273.892542 69.145139 Q 273.799104 69.143582 273.841151 69.065717 Z" style="fill:#faecca;"/>
		<path d="M 273.892542 69.145139 Q 273.96885 69.146697 276.809362 69.202759 Q 278.363546 69.233905 279.618729 70.051487 C 280.777359 70.806777 281.062345 71.823693 280.291482 72.963635 Q 280.230747 73.053959 280.319513 73.117808 Q 281.728868 74.131609 281.890827 76.026842 Q 281.91263 76.291582 281.895499 77.141867 C 281.893942 77.191701 281.911072 77.23842 281.943776 77.275795 C 285.045914 80.95102 281.825421 85.144825 278.449198 86.893671 Q 276.761086 87.768873 275.516804 88.095905 Q 274.756843 88.296797 274.697665 88.324828 Q 274.62603 88.359089 274.658733 88.432282 C 274.735041 88.605142 274.900114 88.821606 274.962406 89.019383 Q 275.775316 91.635645 274.742827 93.980937 C 273.562395 96.65949 270.692293 98.704223 267.977922 99.744499 C 264.516047 101.072874 260.914016 101.446626 257.185843 101.688007 Q 246.526134 102.37789 234.914916 101.811034 C 231.727126 101.655304 228.501961 101.387448 225.407609 100.7583 C 220.583098 99.775644 214.307185 96.603427 214.892729 90.667005 Q 215.012641 89.450755 215.602857 88.38712 Q 215.64179 88.315484 215.563925 88.29524 C 212.56301 87.496345 209.507591 86.250507 207.897344 83.503432 Q 206.430369 80.999296 207.669978 78.381477 Q 207.951849 77.788146 208.478216 77.334972 C 208.56231 77.261779 208.605915 77.151211 208.591899 77.040643 Q 208.327158 74.774773 209.993468 73.239277 Q 210.04953 73.186329 210.013713 73.119365 Q 209.901587 72.907573 209.777003 72.652176 C 209.333173 71.742713 209.627502 70.789646 210.423282 70.224347 C 212.07869 69.051701 214.13121 69.112436 216.246021 69.165384 C 216.29274 69.166941 216.319214 69.110879 216.288068 69.075061 C 213.983267 66.427653 214.942562 62.758658 216.808206 60.220261 C 219.564625 56.467172 223.571554 53.670263 227.802734 51.745442 C 239.270681 46.528492 252.3224 46.667092 263.584783 52.332544 C 267.191486 54.146797 270.696965 56.758386 273.165284 59.983552 Q 273.83025 60.852524 274.364403 61.881899 C 275.393778 63.872126 275.636716 66.388721 274.384648 68.30887 C 274.263179 68.495746 273.993766 68.783846 273.841151 69.065717 Q 273.799104 69.143582 273.892542 69.145139 Z M 232.958949 51.374805 C 230.80832 51.999282 228.850796 52.902515 226.823193 53.930332 Q 224.06366 55.327229 221.696566 57.323686 Q 220.346388 58.460514 219.645604 59.234491 C 218.211332 60.821378 216.635346 62.637189 216.485845 64.889042 Q 216.312985 67.488174 218.413781 68.699752 C 218.790647 68.916216 219.30767 69.067274 219.725026 69.067274 Q 226.195602 69.071946 230.431454 69.078175 C 232.132024 69.079733 234.022584 68.973836 235.899129 68.950477 Q 236.578111 68.94269 237.250864 68.872612 L 243.227776 68.900643 Q 245.312999 69.020555 246.393764 69.036128 Q 248.581769 69.070389 254.440326 69.078175 Q 254.921531 69.079733 255.477487 69.117108 Q 256.161141 69.162269 256.516205 69.152926 Q 259.736698 69.073503 270.298297 69.099978 Q 272.092305 69.104649 273.059387 67.538007 Q 273.143481 67.457028 273.188643 67.371376 Q 273.976636 65.885713 273.609114 64.289482 Q 273.269623 62.822507 272.332129 61.494131 C 269.930774 58.089877 266.546765 55.526563 262.85441 53.687394 C 253.583812 49.068446 242.790175 48.233734 232.958949 51.374805 Z M 211.317171 71.657062 Q 211.296927 71.853281 211.332744 71.98098 Q 211.367005 72.097777 211.544537 72.184986 Q 212.511619 72.661519 213.379035 73.317142 Q 213.400837 73.332715 213.389936 73.35296 Q 213.380592 73.368533 213.361904 73.371647 Q 211.320286 73.569424 210.357876 75.298026 Q 209.948306 76.031513 210.194359 76.67935 Q 210.974566 78.429753 212.762344 79.367247 Q 214.617087 80.339001 216.334787 80.659805 C 219.139482 81.183057 222.090563 80.92766 224.572897 79.536992 Q 225.870126 78.809734 227.178257 77.752328 C 228.067475 77.035971 229.05013 76.827293 229.962707 77.713396 Q 230.38162 78.121408 231.314442 79.029313 C 233.602114 81.25625 237.252422 81.594184 240.120966 80.463585 C 241.192387 80.041557 242.101849 79.290939 243.13901 78.449998 C 244.352146 77.465785 245.758386 77.249321 247.038486 78.280253 Q 248.323257 79.311184 249.214032 79.885827 C 252.14954 81.779502 257.073718 81.292068 259.66039 78.935875 C 260.920245 77.788146 262.262636 76.260436 264.050415 77.697823 Q 265.216832 78.633759 265.90983 79.074475 Q 267.747442 80.242449 269.799961 80.623987 C 273.356831 81.285839 277.365318 80.804633 279.70438 77.721182 Q 280.606056 76.534521 280.120179 75.182786 Q 279.487916 74.234391 278.696808 73.893343 Q 277.840294 73.522705 276.538392 73.354517 Q 277.483672 72.564967 278.502146 72.133595 Q 278.749756 72.09622 278.930403 71.945162 C 278.966221 71.915573 278.986466 71.868854 278.983351 71.822135 C 278.925731 70.893985 277.466542 70.654162 276.761086 70.663505 Q 269.817092 70.750714 262.866868 70.750714 L 258.031456 70.761615 Q 257.679507 70.747599 257.333786 70.760058 C 254.907515 70.847267 251.981351 70.750714 250.070546 70.739813 Q 245.573068 70.711782 244.409766 70.72424 Q 243.878727 70.730469 243.240235 70.761615 C 241.327872 70.853496 239.027742 70.792761 235.570539 70.761615 C 234.897786 70.755386 234.137824 70.705552 233.55228 70.70088 Q 224.685022 70.647932 214.272924 70.669734 Q 213.290269 70.671292 212.539651 70.814563 Q 211.625517 70.988981 211.317171 71.657062 Z M 281.118407 78.747442 Q 280.036085 80.153683 278.369775 81.209531 Q 277.085004 82.023998 275.312798 82.346359 C 271.458484 83.050258 267.805062 82.439797 264.607928 80.214417 Q 264.274666 79.98238 263.871326 79.88427 C 263.341844 79.756572 262.667534 79.454456 262.268866 79.597727 C 261.7534 79.781488 261.284653 79.892057 260.811234 80.209745 Q 259.813006 80.879384 259.41278 81.134781 Q 257.620329 82.279395 255.460356 82.639131 Q 251.453427 83.304098 248.212689 81.148796 Q 247.015126 80.35146 246.238034 79.817306 Q 245.57151 79.35946 245.344145 79.351674 Q 244.79909 79.332986 244.525006 79.529206 Q 244.160598 79.789275 242.523877 80.991509 Q 239.42641 83.263608 235.554966 82.735684 Q 234.441498 82.584626 233.555395 82.276281 Q 233.229919 82.164155 232.683308 82.050472 C 231.81122 81.869826 230.817664 81.290511 230.199416 80.866925 Q 229.817878 80.605299 228.207632 79.396836 C 228.114194 79.326757 227.983381 79.334544 227.899286 79.415523 Q 227.632988 79.672477 227.383821 79.828207 Q 226.055445 80.65669 225.673907 80.877827 Q 222.856754 82.520776 219.535036 82.634459 Q 215.8894 82.7606 212.723412 81.193958 C 211.795262 80.734555 210.969894 80.086719 210.086906 79.426424 Q 209.750529 79.175699 209.487346 78.865797 C 209.417267 78.78326 209.289569 78.789489 209.227277 78.876698 Q 208.862869 79.393721 208.763202 80.018198 Q 208.420596 82.196858 210.082234 83.84448 Q 211.460443 85.210231 213.34166 85.929703 Q 215.193288 86.639831 216.579283 86.931046 Q 221.338388 87.933946 226.735984 88.304583 Q 235.849296 88.930617 244.021998 88.939961 Q 252.369119 88.949305 260.915573 88.48523 Q 264.592355 88.285896 268.583711 87.862311 Q 272.185743 87.48233 275.351731 86.518362 C 277.770215 85.78176 280.483029 84.238477 281.412737 81.71721 Q 281.69305 80.960363 281.669691 80.348345 Q 281.649446 79.7519 281.345773 78.959235 Q 281.28971 78.809734 281.17447 78.738098 C 281.155782 78.72564 281.130866 78.730312 281.118407 78.747442 Z M 273.289867 89.14241 Q 273.11545 88.753085 272.76973 88.81382 Q 268.009068 89.646975 262.890228 89.925731 Q 260.831479 90.037857 260.80812 90.039414 Q 245.454713 90.948876 229.579612 90.05343 Q 225.376463 89.81672 221.701238 89.404036 Q 219.746829 89.148639 217.702096 88.776445 Q 217.538579 88.746856 217.298755 88.778002 C 217.247364 88.784231 217.202203 88.810705 217.171057 88.851195 C 216.157255 90.140638 216.236678 92.098163 216.842467 93.543336 C 217.480959 95.069488 218.812449 96.295082 220.209346 97.150039 C 222.820936 98.747827 225.963564 99.442383 228.973822 99.739827 Q 233.138039 100.150953 236.330501 100.245949 Q 244.744585 100.495116 252.745985 100.278652 C 255.686165 100.19923 258.993867 99.995224 261.404565 99.727368 Q 262.247063 99.63393 264.354088 99.225918 Q 268.463799 98.428581 271.460042 95.873054 C 273.19643 94.392063 274.096548 92.372247 273.688536 90.079904 Q 273.6169 89.685907 273.289867 89.14241 Z" style="fill:#49301c;"/>
		<path d="M 273.059387 67.538007 Q 273.095205 67.220318 272.821121 67.544236 C 272.542364 67.872826 271.393078 68.150025 271.12678 68.173385 Q 268.804848 68.378948 265.316499 68.433454 C 263.360532 68.4646 261.480872 68.587626 259.761615 68.570496 Q 257.277724 68.544022 254.094605 68.653033 C 252.954663 68.691965 251.464328 68.612543 250.410037 68.67795 Q 246.829808 68.899086 243.227776 68.900643 L 237.250864 68.872612 Q 235.948963 68.765158 234.63616 68.805648 Q 234.284211 68.814992 233.07419 68.615658 Q 232.255051 68.480173 231.568282 68.470829 Q 229.325772 68.439683 227.267023 67.953806 C 226.122409 67.684393 225.052545 67.095734 224.373563 66.156683 C 223.392464 64.800276 223.565325 62.666777 224.14464 61.204474 C 225.420067 57.980866 227.992724 55.13101 230.841023 53.058245 Q 231.13691 52.841781 231.632131 52.584826 C 232.189644 52.295169 232.782975 52.016412 232.958949 51.374805 C 242.790175 48.233734 253.583812 49.068446 262.85441 53.687394 C 266.546765 55.526563 269.930774 58.089877 272.332129 61.494131 Q 273.269623 62.822507 273.609114 64.289482 Q 273.976636 65.885713 273.188643 67.371376 Q 273.143481 67.457028 273.059387 67.538007 Z M 237.641746 55.454928 C 237.391021 55.72434 237.124723 55.881627 236.693351 56.207103 C 236.582783 56.291197 236.571882 56.456271 236.671549 56.55438 C 237.0344 56.911002 237.903372 56.177514 238.143196 55.92056 C 238.381463 55.662048 239.047987 54.741685 238.666449 54.405308 C 238.560552 54.313428 238.398593 54.336787 238.322286 54.453585 C 238.027956 54.908316 237.890914 55.185515 237.641746 55.454928 Z M 251.947091 54.381949 L 250.807148 56.294312 C 250.796247 56.311442 250.802476 56.334801 250.819607 56.345702 L 250.920831 56.40488 C 251.162212 56.549708 251.546865 56.348817 251.78046 55.956378 L 252.112164 55.398865 C 252.347316 55.007983 252.341087 54.571939 252.098149 54.428668 L 251.998482 54.367933 C 251.981351 54.358589 251.957992 54.363261 251.947091 54.381949 Z M 243.343016 56.708553 Q 243.321214 56.523234 243.522106 56.219561 C 243.651361 56.024899 243.604642 55.777288 243.434897 55.752372 C 242.82755 55.663606 242.673378 56.43914 242.723211 56.932804 C 242.746571 57.157055 242.970822 57.264509 243.173271 57.276967 C 243.816435 57.317457 244.341245 57.340816 244.855153 57.121237 C 244.962607 57.076075 244.999982 56.942148 244.931461 56.84871 Q 244.848924 56.735027 244.719668 56.747485 Q 243.961264 56.819121 243.48473 56.83158 C 243.413095 56.833137 243.350803 56.780189 243.343016 56.708553 Z M 255.375234 58.037785 C 255.382491 57.94972 255.318642 57.873412 255.231449 57.86519 L 255.219037 57.864068 C 255.131766 57.856282 255.053901 57.920131 255.046442 58.007869 L 254.913215 59.471901 C 254.905958 59.559967 254.969807 59.636274 255.057 59.644497 L 255.069412 59.645618 C 255.156683 59.653405 255.234548 59.589555 255.242007 59.501817 L 255.375234 58.037785 Z M 260.284992 58.20655 C 260.26618 58.12258 259.890871 58.133481 259.448286 58.23388 C 259.004768 58.334373 258.662162 58.483873 258.680725 58.568092 C 258.699537 58.652062 259.074846 58.64116 259.51743 58.540761 C 259.960949 58.440269 260.303555 58.290768 260.284992 58.20655 Z M 268.291796 59.738417 C 268.256679 59.53505 267.716296 59.457185 267.084002 59.563642 C 266.451769 59.670535 265.965892 59.922817 266.000854 60.125904 C 266.035971 60.329272 266.576353 60.407137 267.208648 60.30068 C 267.84088 60.193787 268.326757 59.941505 268.291796 59.738417 Z M 239.752929 59.855277 C 239.641318 59.731269 239.261337 59.890114 238.903968 60.211058 C 238.548094 60.531721 238.34876 60.893014 238.461399 61.018174 C 238.573011 61.142182 238.952992 60.983337 239.31036 60.662394 C 239.666234 60.34173 239.865569 59.980437 239.752929 59.855277 Z M 262.574984 61.084484 C 262.655076 61.139067 262.784331 61.086119 262.866292 60.966129 C 262.947848 60.846295 262.949405 60.706138 262.869095 60.651711 C 262.789003 60.597127 262.659748 60.650076 262.577787 60.770065 C 262.496231 60.8899 262.494674 61.030056 262.574984 61.084484 Z" style="fill:#ec8b33;"/>
		<path d="M 232.958949 51.374805 C 232.782975 52.016412 232.189644 52.295169 231.632131 52.584826 Q 231.13691 52.841781 230.841023 53.058245 C 227.992724 55.13101 225.420067 57.980866 224.14464 61.204474 C 223.565325 62.666777 223.392464 64.800276 224.373563 66.156683 C 225.052545 67.095734 226.122409 67.684393 227.267023 67.953806 Q 229.325772 68.439683 231.568282 68.470829 Q 232.255051 68.480173 233.07419 68.615658 Q 234.284211 68.814992 234.63616 68.805648 Q 235.948963 68.765158 237.250864 68.872612 Q 236.578111 68.94269 235.899129 68.950477 C 234.022584 68.973836 232.132024 69.079733 230.431454 69.078175 Q 226.195602 69.071946 219.725026 69.067274 C 219.30767 69.067274 218.790647 68.916216 218.413781 68.699752 Q 216.312985 67.488174 216.485845 64.889042 C 216.635346 62.637189 218.211332 60.821378 219.645604 59.234491 Q 220.346388 58.460514 221.696566 57.323686 Q 224.06366 55.327229 226.823193 53.930332 C 228.850796 52.902515 230.80832 51.999282 232.958949 51.374805 Z" style="fill:#cf7029;"/>
		<path d="M 273.059387 67.538007 Q 272.092305 69.104649 270.298297 69.099978 Q 259.736698 69.073503 256.516205 69.152926 Q 256.161141 69.162269 255.477487 69.117108 Q 254.921531 69.079733 254.440326 69.078175 Q 248.581769 69.070389 246.393764 69.036128 Q 245.312999 69.020555 243.227776 68.900643 Q 246.829808 68.899086 250.410037 68.67795 C 251.464328 68.612543 252.954663 68.691965 254.094605 68.653033 Q 257.277724 68.544022 259.761615 68.570496 C 261.480872 68.587626 263.360532 68.4646 265.316499 68.433454 Q 268.804848 68.378948 271.12678 68.173385 C 271.393078 68.150025 272.542364 67.872826 272.821121 67.544236 Q 273.095205 67.220318 273.059387 67.538007 Z" style="fill:#cf7029;"/>
		<path d="M 258.031456 70.761615 Q 257.774502 70.792761 257.537793 70.842595 C 257.332229 70.886199 257.257479 71.02947 257.07216 71.077747 Q 256.891514 71.124466 256.715539 71.239706 Q 254.919974 72.410794 252.80672 73.162969 C 250.642075 73.93539 248.29834 74.066203 246.066731 73.83728 Q 245.884527 73.818592 246.044929 73.904244 C 247.726812 74.804362 249.259193 75.564324 251.188686 75.791689 Q 253.459228 76.059545 255.117751 74.664205 C 255.952463 73.961864 257.051915 72.870197 258.19653 72.289325 C 259.501546 71.627473 260.965407 71.945162 262.27198 72.459071 C 265.005039 73.535164 266.666677 74.226604 268.932546 74.827722 C 270.605085 75.273109 272.439582 75.523834 274.096548 74.988123 Q 274.825364 74.751414 275.298783 74.366761 Q 275.955963 73.829493 276.538392 73.354517 Q 277.840294 73.522705 278.696808 73.893343 Q 279.487916 74.234391 280.120179 75.182786 Q 278.600256 75.874226 277.661204 76.187243 C 274.763072 77.155883 271.29964 77.183914 268.367247 76.283796 C 266.548322 75.726283 265.061102 75.019269 262.734498 74.053744 Q 261.754957 73.647289 260.993438 73.493117 C 259.232133 73.133381 257.782288 74.97255 256.648575 75.995696 Q 255.072589 77.419066 253.091705 77.570124 Q 251.247864 77.711839 250.188901 77.445541 C 249.276324 77.216618 248.605128 77.158998 247.862297 76.796147 Q 247.12258 76.434854 246.460728 76.266666 C 245.521677 76.026842 244.560824 75.156312 243.534564 75.659319 Q 242.819764 76.008154 242.536336 76.179457 C 240.578811 77.367676 237.940748 78.714739 235.732498 77.481358 Q 234.735827 76.923845 233.992996 76.148311 Q 233.094434 75.207702 232.602328 74.818378 C 231.711553 74.111364 230.099749 73.511804 228.933333 73.899572 Q 228.540893 74.031942 227.933547 74.192344 Q 226.835652 74.485116 225.402937 75.277781 C 224.143082 75.975451 222.925275 76.71361 221.39445 77.41128 Q 220.301227 77.909615 219.555281 78.104278 Q 216.976394 78.777031 214.350789 78.12608 Q 212.327858 77.62463 210.194359 76.67935 Q 209.948306 76.031513 210.357876 75.298026 Q 211.320286 73.569424 213.361904 73.371647 Q 213.380592 73.368533 213.389936 73.35296 Q 213.400837 73.332715 213.379035 73.317142 Q 213.483374 73.324929 213.579926 73.409023 C 215.000183 74.654861 216.865826 74.696909 218.648933 74.695351 Q 221.495675 74.692237 223.959321 74.058416 Q 225.912173 73.555409 227.777817 72.938718 C 230.026556 72.192772 232.43414 72.488659 234.066189 74.340287 C 234.664191 75.017712 235.382106 75.910044 236.053302 76.251093 C 237.115379 76.791475 238.404823 76.447312 239.413952 75.930289 Q 240.888714 75.176557 242.525434 73.964978 Q 242.699852 73.83728 242.486502 73.873098 Q 242.142339 73.930718 241.721868 73.944733 Q 241.1846 73.960306 239.356332 73.824821 C 237.171442 73.662862 235.072204 73.100678 233.046158 72.431039 Q 231.857939 72.040157 230.794304 71.800333 Q 229.101521 71.420352 228.497289 71.372076 Q 226.242321 71.189872 225.460557 71.188315 C 223.09502 71.180528 219.958621 71.345602 217.195973 71.365847 Q 215.188616 71.38142 212.877585 71.440597 Q 212.580141 71.448384 212.100493 71.549608 Q 211.718954 71.62903 211.317171 71.657062 Q 211.625517 70.988981 212.539651 70.814563 Q 213.290269 70.671292 214.272924 70.669734 Q 224.685022 70.647932 233.55228 70.70088 C 234.137824 70.705552 234.897786 70.755386 235.570539 70.761615 C 239.027742 70.792761 241.327872 70.853496 243.240235 70.761615 Q 243.878727 70.730469 244.409766 70.72424 Q 245.573068 70.711782 250.070546 70.739813 C 251.981351 70.750714 254.907515 70.847267 257.333786 70.760058 Q 257.679507 70.747599 258.031456 70.761615 Z" style="fill:#7b8d2b;"/>
		<path d="M 278.502146 72.133595 C 278.523948 71.734927 277.941518 71.733369 277.683007 71.770745 Q 275.691222 72.052616 274.630702 71.990324 Q 270.195515 71.730255 265.386577 71.244378 Q 264.271552 71.132252 262.866868 70.750714 Q 269.817092 70.750714 276.761086 70.663505 C 277.466542 70.654162 278.925731 70.893985 278.983351 71.822135 C 278.986466 71.868854 278.966221 71.915573 278.930403 71.945162 Q 278.749756 72.09622 278.502146 72.133595 Z" style="fill:#7b8d2b;"/>
		<path d="M 262.866868 70.750714 Q 264.271552 71.132252 265.386577 71.244378 Q 270.195515 71.730255 274.630702 71.990324 Q 275.691222 72.052616 277.683007 71.770745 C 277.941518 71.733369 278.523948 71.734927 278.502146 72.133595 Q 277.483672 72.564967 276.538392 73.354517 Q 275.955963 73.829493 275.298783 74.366761 Q 274.825364 74.751414 274.096548 74.988123 C 272.439582 75.523834 270.605085 75.273109 268.932546 74.827722 C 266.666677 74.226604 265.005039 73.535164 262.27198 72.459071 C 260.965407 71.945162 259.501546 71.627473 258.19653 72.289325 C 257.051915 72.870197 255.952463 73.961864 255.117751 74.664205 Q 253.459228 76.059545 251.188686 75.791689 C 249.259193 75.564324 247.726812 74.804362 246.044929 73.904244 Q 245.884527 73.818592 246.066731 73.83728 C 248.29834 74.066203 250.642075 73.93539 252.80672 73.162969 Q 254.919974 72.410794 256.715539 71.239706 Q 256.891514 71.124466 257.07216 71.077747 C 257.257479 71.02947 257.332229 70.886199 257.537793 70.842595 Q 257.774502 70.792761 258.031456 70.761615 L 262.866868 70.750714 Z" style="fill:#a5b73f;"/>
		<path d="M 213.379035 73.317142 Q 212.511619 72.661519 211.544537 72.184986 Q 211.367005 72.097777 211.332744 71.98098 Q 211.296927 71.853281 211.317171 71.657062 Q 211.718954 71.62903 212.100493 71.549608 Q 212.580141 71.448384 212.877585 71.440597 Q 215.188616 71.38142 217.195973 71.365847 C 219.958621 71.345602 223.09502 71.180528 225.460557 71.188315 Q 226.242321 71.189872 228.497289 71.372076 Q 229.101521 71.420352 230.794304 71.800333 Q 231.857939 72.040157 233.046158 72.431039 C 235.072204 73.100678 237.171442 73.662862 239.356332 73.824821 Q 241.1846 73.960306 241.721868 73.944733 Q 242.142339 73.930718 242.486502 73.873098 Q 242.699852 73.83728 242.525434 73.964978 Q 240.888714 75.176557 239.413952 75.930289 C 238.404823 76.447312 237.115379 76.791475 236.053302 76.251093 C 235.382106 75.910044 234.664191 75.017712 234.066189 74.340287 C 232.43414 72.488659 230.026556 72.192772 227.777817 72.938718 Q 225.912173 73.555409 223.959321 74.058416 Q 221.495675 74.692237 218.648933 74.695351 C 216.865826 74.696909 215.000183 74.654861 213.579926 73.409023 Q 213.483374 73.324929 213.379035 73.317142 Z" style="fill:#a5b73f;"/>
		<path d="M 280.120179 75.182786 Q 280.606056 76.534521 279.70438 77.721182 C 277.365318 80.804633 273.356831 81.285839 269.799961 80.623987 Q 267.747442 80.242449 265.90983 79.074475 Q 265.216832 78.633759 264.050415 77.697823 C 262.262636 76.260436 260.920245 77.788146 259.66039 78.935875 C 257.073718 81.292068 252.14954 81.779502 249.214032 79.885827 Q 248.323257 79.311184 247.038486 78.280253 C 245.758386 77.249321 244.352146 77.465785 243.13901 78.449998 C 242.101849 79.290939 241.192387 80.041557 240.120966 80.463585 C 237.252422 81.594184 233.602114 81.25625 231.314442 79.029313 Q 230.38162 78.121408 229.962707 77.713396 C 229.05013 76.827293 228.067475 77.035971 227.178257 77.752328 Q 225.870126 78.809734 224.572897 79.536992 C 222.090563 80.92766 219.139482 81.183057 216.334787 80.659805 Q 214.617087 80.339001 212.762344 79.367247 Q 210.974566 78.429753 210.194359 76.67935 Q 212.327858 77.62463 214.350789 78.12608 Q 216.976394 78.777031 219.555281 78.104278 Q 220.301227 77.909615 221.39445 77.41128 C 222.925275 76.71361 224.143082 75.975451 225.402937 75.277781 Q 226.835652 74.485116 227.933547 74.192344 Q 228.540893 74.031942 228.933333 73.899572 C 230.099749 73.511804 231.711553 74.111364 232.602328 74.818378 Q 233.094434 75.207702 233.992996 76.148311 Q 234.735827 76.923845 235.732498 77.481358 C 237.940748 78.714739 240.578811 77.367676 242.536336 76.179457 Q 242.819764 76.008154 243.534564 75.659319 C 244.560824 75.156312 245.521677 76.026842 246.460728 76.266666 Q 247.12258 76.434854 247.862297 76.796147 C 248.605128 77.158998 249.276324 77.216618 250.188901 77.445541 Q 251.247864 77.711839 253.091705 77.570124 Q 255.072589 77.419066 256.648575 75.995696 C 257.782288 74.97255 259.232133 73.133381 260.993438 73.493117 Q 261.754957 73.647289 262.734498 74.053744 C 265.061102 75.019269 266.548322 75.726283 268.367247 76.283796 C 271.29964 77.183914 274.763072 77.155883 277.661204 76.187243 Q 278.600256 75.874226 280.120179 75.182786 Z" style="fill:#a5b73f;"/>
		<path d="M 281.118407 78.747442 C 281.130866 78.730312 281.155782 78.72564 281.17447 78.738098 Q 281.28971 78.809734 281.345773 78.959235 Q 281.649446 79.7519 281.669691 80.348345 Q 281.69305 80.960363 281.412737 81.71721 C 280.483029 84.238477 277.770215 85.78176 275.351731 86.518362 Q 272.185743 87.48233 268.583711 87.862311 Q 264.592355 88.285896 260.915573 88.48523 Q 252.369119 88.949305 244.021998 88.939961 Q 235.849296 88.930617 226.735984 88.304583 Q 221.338388 87.933946 216.579283 86.931046 Q 215.193288 86.639831 213.34166 85.929703 Q 211.460443 85.210231 210.082234 83.84448 Q 208.420596 82.196858 208.763202 80.018198 Q 208.862869 79.393721 209.227277 78.876698 C 209.289569 78.789489 209.417267 78.78326 209.487346 78.865797 Q 209.750529 79.175699 210.086906 79.426424 C 210.969894 80.086719 211.795262 80.734555 212.723412 81.193958 Q 215.8894 82.7606 219.535036 82.634459 Q 222.856754 82.520776 225.673907 80.877827 Q 226.055445 80.65669 227.383821 79.828207 Q 227.632988 79.672477 227.899286 79.415523 C 227.983381 79.334544 228.114194 79.326757 228.207632 79.396836 Q 229.817878 80.605299 230.199416 80.866925 C 230.817664 81.290511 231.81122 81.869826 232.683308 82.050472 Q 233.229919 82.164155 233.555395 82.276281 Q 234.441498 82.584626 235.554966 82.735684 Q 239.42641 83.263608 242.523877 80.991509 Q 244.160598 79.789275 244.525006 79.529206 Q 244.79909 79.332986 245.344145 79.351674 Q 245.57151 79.35946 246.238034 79.817306 Q 247.015126 80.35146 248.212689 81.148796 Q 251.453427 83.304098 255.460356 82.639131 Q 257.620329 82.279395 259.41278 81.134781 Q 259.813006 80.879384 260.811234 80.209745 C 261.284653 79.892057 261.7534 79.781488 262.268866 79.597727 C 262.667534 79.454456 263.341844 79.756572 263.871326 79.88427 Q 264.274666 79.98238 264.607928 80.214417 C 267.805062 82.439797 271.458484 83.050258 275.312798 82.346359 Q 277.085004 82.023998 278.369775 81.209531 Q 280.036085 80.153683 281.118407 78.747442 Z M 266.728969 85.263179 C 266.728969 84.954834 266.478244 84.704109 266.169898 84.704109 C 265.861553 84.704109 265.610828 84.954834 265.610828 85.263179 C 265.610828 85.571524 265.861553 85.822249 266.169898 85.822249 C 266.478244 85.822249 266.728969 85.571524 266.728969 85.263179 Z M 259.74137 85.356617 C 259.74137 85.045157 259.48753 84.791318 259.176071 84.791318 C 258.864611 84.791318 258.610771 85.045157 258.610771 85.356617 C 258.610771 85.668077 258.864611 85.921917 259.176071 85.921917 C 259.48753 85.921917 259.74137 85.668077 259.74137 85.356617 Z M 229.853696 85.462513 C 229.853696 85.154168 229.602971 84.903443 229.294626 84.903443 C 228.986281 84.903443 228.735556 85.154168 228.735556 85.462513 C 228.735556 85.770859 228.986281 86.021584 229.294626 86.021584 C 229.602971 86.021584 229.853696 85.770859 229.853696 85.462513 Z M 243.12188 85.485873 C 243.12188 85.174413 242.869597 84.922131 242.558138 84.922131 C 242.246678 84.922131 241.994396 85.174413 241.994396 85.485873 C 241.994396 85.797333 242.246678 86.049615 242.558138 86.049615 C 242.869597 86.049615 243.12188 85.797333 243.12188 85.485873 Z" style="fill:#7d4224;"/>
		<path d="M 221.701238 89.404036 Q 221.397565 90.069003 221.603128 90.959777 Q 222.110808 93.150896 223.949977 94.479272 Q 225.935533 95.911987 227.875927 96.539578 Q 230.859711 97.50666 234.318471 97.716896 C 240.577254 98.096877 246.959063 98.025241 253.485702 97.805662 Q 255.70018 97.732469 259.177628 97.435025 Q 263.239063 97.089304 266.711838 95.955591 C 269.401293 95.078832 272.737026 93.364246 273.146596 90.207602 Q 273.216674 89.668777 273.289867 89.14241 Q 273.6169 89.685907 273.688536 90.079904 C 274.096548 92.372247 273.19643 94.392063 271.460042 95.873054 Q 268.463799 98.428581 264.354088 99.225918 Q 262.247063 99.63393 261.404565 99.727368 C 258.993867 99.995224 255.686165 100.19923 252.745985 100.278652 Q 244.744585 100.495116 236.330501 100.245949 Q 233.138039 100.150953 228.973822 99.739827 C 225.963564 99.442383 222.820936 98.747827 220.209346 97.150039 C 218.812449 96.295082 217.480959 95.069488 216.842467 93.543336 C 216.236678 92.098163 216.157255 90.140638 217.171057 88.851195 C 217.202203 88.810705 217.247364 88.784231 217.298755 88.778002 Q 217.538579 88.746856 217.702096 88.776445 Q 219.746829 89.148639 221.701238 89.404036 Z" style="fill:#cf7029;"/>
		<path d="M 273.289867 89.14241 Q 273.216674 89.668777 273.146596 90.207602 C 272.737026 93.364246 269.401293 95.078832 266.711838 95.955591 Q 263.239063 97.089304 259.177628 97.435025 Q 255.70018 97.732469 253.485702 97.805662 C 246.959063 98.025241 240.577254 98.096877 234.318471 97.716896 Q 230.859711 97.50666 227.875927 96.539578 Q 225.935533 95.911987 223.949977 94.479272 Q 222.110808 93.150896 221.603128 90.959777 Q 221.397565 90.069003 221.701238 89.404036 Q 225.376463 89.81672 229.579612 90.05343 Q 245.454713 90.948876 260.80812 90.039414 Q 260.831479 90.037857 262.890228 89.925731 Q 268.009068 89.646975 272.76973 88.81382 Q 273.11545 88.753085 273.289867 89.14241 Z" style="fill:#ec8b33;"/>
		<path d="M 238.143196 55.92056 C 237.903372 56.177514 237.0344 56.911002 236.671549 56.55438 C 236.571882 56.456271 236.582783 56.291197 236.693351 56.207103 C 237.124723 55.881627 237.391021 55.72434 237.641746 55.454928 C 237.890914 55.185515 238.027956 54.908316 238.322286 54.453585 C 238.398593 54.336787 238.560552 54.313428 238.666449 54.405308 C 239.047987 54.741685 238.381463 55.662048 238.143196 55.92056 Z" style="fill:#cf7029;"/>
		<path d="M 251.947091 54.381949 C 251.957992 54.363261 251.981351 54.358589 251.998482 54.367933 L 252.098149 54.428668 C 252.341087 54.571939 252.347316 55.007983 252.112164 55.398865 L 251.78046 55.956378 C 251.546865 56.348817 251.162212 56.549708 250.920831 56.40488 L 250.819607 56.345702 C 250.802476 56.334801 250.796247 56.311442 250.807148 56.294312 L 251.947091 54.381949 Z" style="fill:#cf7029;"/>
		<path d="M 243.343016 56.708553 C 243.350803 56.780189 243.413095 56.833137 243.48473 56.83158 Q 243.961264 56.819121 244.719668 56.747485 Q 244.848924 56.735027 244.931461 56.84871 C 244.999982 56.942148 244.962607 57.076075 244.855153 57.121237 C 244.341245 57.340816 243.816435 57.317457 243.173271 57.276967 C 242.970822 57.264509 242.746571 57.157055 242.723211 56.932804 C 242.673378 56.43914 242.82755 55.663606 243.434897 55.752372 C 243.604642 55.777288 243.651361 56.024899 243.522106 56.219561 Q 243.321214 56.523234 243.343016 56.708553 Z" style="fill:#cf7029;"/>
		<path d="M 255.242007 59.501817 C 255.234548 59.589555 255.156683 59.653405 255.069412 59.645618 L 255.057 59.644497 C 254.969807 59.636274 254.905958 59.559967 254.913215 59.471901 L 255.046442 58.007869 C 255.053901 57.920131 255.131766 57.856282 255.219037 57.864068 L 255.231449 57.86519 C 255.318642 57.873412 255.382491 57.94972 255.375234 58.037785 L 255.242007 59.501817 Z" style="fill:#cf7029;"/>
		<path d="M 260.284992 58.20655 C 260.303555 58.290768 259.960949 58.440269 259.51743 58.540761 C 259.074846 58.64116 258.699537 58.652062 258.680725 58.568092 C 258.662162 58.483873 259.004768 58.334373 259.448286 58.23388 C 259.890871 58.133481 260.26618 58.12258 260.284992 58.20655 Z" style="fill:#cf7029;"/>
		<path d="M 268.291796 59.738417 C 268.326757 59.941505 267.84088 60.193787 267.208648 60.30068 C 266.576353 60.407137 266.035971 60.329272 266.000854 60.125904 C 265.965892 59.922817 266.451769 59.670535 267.084002 59.563642 C 267.716296 59.457185 268.256679 59.53505 268.291796 59.738417 Z" style="fill:#cf7029;"/>
		<path d="M 239.752929 59.855277 C 239.865569 59.980437 239.666234 60.34173 239.31036 60.662394 C 238.952992 60.983337 238.573011 61.142182 238.461399 61.018174 C 238.34876 60.893014 238.548094 60.531721 238.903968 60.211058 C 239.261337 59.890114 239.641318 59.731269 239.752929 59.855277 Z" style="fill:#cf7029;"/>
		<path d="M 262.574984 61.084484 C 262.494674 61.030056 262.496231 60.8899 262.577787 60.770065 C 262.659748 60.650076 262.789003 60.597127 262.869095 60.651711 C 262.949405 60.706138 262.947848 60.846295 262.866292 60.966129 C 262.784331 61.086119 262.655076 61.139067 262.574984 61.084484 Z" style="fill:#cf7029;"/>
		<path d="M 266.728969 85.263179 C 266.728969 85.571524 266.478244 85.822249 266.169898 85.822249 C 265.861553 85.822249 265.610828 85.571524 265.610828 85.263179 C 265.610828 84.954834 265.861553 84.704109 266.169898 84.704109 C 266.478244 84.704109 266.728969 84.954834 266.728969 85.263179 Z" style="fill:#faecca;"/>
		<path d="M 259.74137 85.356617 C 259.74137 85.668077 259.48753 85.921917 259.176071 85.921917 C 258.864611 85.921917 258.610771 85.668077 258.610771 85.356617 C 258.610771 85.045157 258.864611 84.791318 259.176071 84.791318 C 259.48753 84.791318 259.74137 85.045157 259.74137 85.356617 Z" style="fill:#faecca;"/>
		<path d="M 229.853696 85.462513 C 229.853696 85.770859 229.602971 86.021584 229.294626 86.021584 C 228.986281 86.021584 228.735556 85.770859 228.735556 85.462513 C 228.735556 85.154168 228.986281 84.903443 229.294626 84.903443 C 229.602971 84.903443 229.853696 85.154168 229.853696 85.462513 Z" style="fill:#faecca;"/>
		<path d="M 243.12188 85.485873 C 243.12188 85.797333 242.869597 86.049615 242.558138 86.049615 C 242.246678 86.049615 241.994396 85.797333 241.994396 85.485873 C 241.994396 85.174413 242.246678 84.922131 242.558138 84.922131 C 242.869597 84.922131 243.12188 85.174413 243.12188 85.485873 Z" style="fill:#faecca;"/>
	</g>
	<g id="surface4">
	</g>
</svg>
