<?xml version="1.0" encoding="utf-8"?>
<svg xmlns="http://www.w3.org/2000/svg" width="490pt" height="280pt" viewBox="0 0 490 280" version="1.1" xmlns:xlink="http://www.w3.org/1999/xlink">
	<g id="surface2">
		<path vector-effect="non-scaling-stroke" d="M 214.566567 65.715015 Q 214.789132 66.221969 215.308451 66.613519 Q 226.076072 74.759817 237.894695 80.886542 Q 242.832345 83.446042 248.002864 85.500648 Q 248.627283 85.747943 249.196061 85.706727" style="fill:none;stroke-width:0.50;stroke:#d4bea4;"/>
		<path vector-effect="non-scaling-stroke" d="M 315.440114 92.249731 Q 314.521002 93.467657 313.636924 94.681462 Q 312.480822 96.268269 311.749242 97.043126 C 307.553476 101.488247 301.651377 104.542336 295.809041 106.211575 Q 291.629761 107.404771 288.28304 107.798382 Q 283.910047 108.313579 282.055337 108.363038 Q 277.690586 108.480503 274.533458 108.624758 Q 259.405208 109.317183 245.624714 115.334687 C 241.321787 117.212065 237.896756 118.759717 233.964771 120.22906 Q 231.786517 121.045132 229.529954 121.943636" style="fill:none;stroke-width:0.50;stroke:#ba9270;"/>
		<path vector-effect="non-scaling-stroke" d="M 229.529954 121.943636 Q 229.274416 121.900359 228.452161 121.632457 Q 216.662389 117.789086 206.331655 111.408884 Q 204.353298 110.188897 202.855104 109.220326 C 193.398145 103.105966 184.664522 95.680944 177.688752 86.780398 Q 176.244139 84.935992 173.905144 81.593393 Q 173.55481 81.092621 173.00458 80.771138" style="fill:none;stroke-width:0.50;stroke:#d4bea4;"/>
		<path vector-effect="non-scaling-stroke" d="M 229.529954 121.943636 Q 240.742705 125.603597 252.122381 127.301687 Q 258.41809 128.241406 264.79211 128.130124 Q 276.975493 127.919923 288.563308 124.210504 Q 296.270657 121.743739 304.190269 117.733445 Q 304.991915 117.327469 306.417981 116.946223" style="fill:none;stroke-width:0.50;stroke:#caac91;"/>
		<path d="M 259.335141 5.259717 Q 260.000776 5.373061 261.231067 5.614173 Q 273.051751 7.93256 282.943537 14.401376 Q 285.109426 15.819199 287.547339 18.044851 Q 295.300026 25.12366 296.989873 35.794424 Q 297.682298 40.171539 297.057879 44.655815 Q 296.190287 50.904127 292.761134 55.986032 C 289.775051 60.412606 284.979596 64.035473 279.687491 65.113265 Q 276.963128 65.667617 274.168698 65.54397 C 272.932225 65.490389 271.32481 65.342013 269.917291 64.966949 Q 267.967785 64.44557 267.668971 64.328105 C 264.575727 63.106057 262.094537 61.739754 259.720509 59.695452 Q 254.745765 55.409011 251.578332 49.333806 C 249.935884 46.18286 248.386171 42.613574 246.436664 39.306008 Q 241.93178 31.662542 234.982801 26.696042 Q 230.686056 23.625466 226.100801 21.715115 C 223.627855 20.68266 220.74069 19.720272 217.861768 19.14119 C 216.971507 18.959841 216.056517 18.716668 215.211594 18.599203 Q 210.434685 17.93769 205.919497 18.376638 C 205.249741 18.440522 204.116307 18.739336 203.281688 18.613628 C 203.10446 18.586838 203.007603 18.389002 203.096217 18.232382 C 203.322903 17.828468 204.025632 17.403945 204.448094 17.125739 C 207.151849 15.334913 210.10702 13.54821 212.759255 12.186028 Q 227.046703 4.84962 243.359907 4.153074 Q 244.880769 4.087128 249.824601 4.159256 C 250.776685 4.171621 251.524752 4.361213 252.402648 4.361213 C 253.173383 4.361213 253.931753 4.577596 254.737521 4.565231 Q 255.12701 4.559049 255.673119 4.645602 Q 257.088881 4.87435 257.585531 4.965024 Q 257.606139 4.967085 259.335141 5.259717 Z" style="fill:#b0805d;"/>
		<path d="M 214.566567 65.715015 Q 214.789132 66.221969 215.308451 66.613519 Q 226.076072 74.759817 237.894695 80.886542 Q 242.832345 83.446042 248.002864 85.500648 Q 248.627283 85.747943 249.196061 85.706727 Q 249.771021 86.174526 250.236759 86.353815 Q 261.492787 90.646438 273.451544 91.746899 Q 275.368077 91.922066 277.564878 91.955038 Q 281.356729 92.01274 283.388667 91.887032 Q 284.588046 91.812844 288.497362 91.349166 Q 291.030072 91.046231 292.577724 90.739173 C 298.049118 89.651077 303.380379 87.985959 308.227354 85.34815 Q 311.858463 83.371853 314.053203 81.850991 Q 315.66474 80.734044 316.769323 80.078713 Q 316.901213 80.000403 316.903274 80.152901 Q 316.940368 81.581028 316.771384 83.423373 Q 316.357165 87.924136 315.440114 92.249731 Q 314.521002 93.467657 313.636924 94.681462 Q 312.480822 96.268269 311.749242 97.043126 C 307.553476 101.488247 301.651377 104.542336 295.809041 106.211575 Q 291.629761 107.404771 288.28304 107.798382 Q 283.910047 108.313579 282.055337 108.363038 Q 277.690586 108.480503 274.533458 108.624758 Q 259.405208 109.317183 245.624714 115.334687 C 241.321787 117.212065 237.896756 118.759717 233.964771 120.22906 Q 231.786517 121.045132 229.529954 121.943636 Q 229.274416 121.900359 228.452161 121.632457 Q 216.662389 117.789086 206.331655 111.408884 Q 204.353298 110.188897 202.855104 109.220326 C 193.398145 103.105966 184.664522 95.680944 177.688752 86.780398 Q 176.244139 84.935992 173.905144 81.593393 Q 173.55481 81.092621 173.00458 80.771138 Q 172.983972 78.087991 173.056099 75.31623 C 173.101437 73.620201 173.326063 72.130251 173.435284 70.526957 Q 173.480622 69.857201 173.678457 68.616606 Q 174.107102 65.923155 174.249296 65.127691 Q 176.986023 49.772754 185.402285 36.54249 Q 185.581573 36.260162 185.797956 36.517761 C 187.075645 38.042744 188.266781 39.709922 189.501193 41.206055 Q 193.02102 45.465705 193.505306 46.020058 C 199.60318 52.985523 206.094664 59.367786 213.363066 65.063806 Q 213.734008 65.354377 214.566567 65.715015 Z" style="fill:#c4a483;"/>
		<path d="M 249.196061 85.706727 Q 248.627283 85.747943 248.002864 85.500648 Q 242.832345 83.446042 237.894695 80.886542 Q 226.076072 74.759817 215.308451 66.613519 Q 214.789132 66.221969 214.566567 65.715015 C 217.212619 64.964888 219.53925 64.8907 222.298646 64.952524 Q 224.208997 64.997861 225.633002 65.253399 Q 230.234743 66.083897 234.306862 68.26009 Q 235.875122 69.098831 238.139929 70.766009 C 240.542809 72.534165 242.578868 74.695933 244.375876 77.199791 Q 246.951862 80.793807 248.886942 84.863864 Q 249.053866 85.212138 249.196061 85.706727 Z" style="fill:#e4d8c5;"/>
		<path d="M 229.529954 121.943636 Q 240.742705 125.603597 252.122381 127.301687 Q 258.41809 128.241406 264.79211 128.130124 Q 276.975493 127.919923 288.563308 124.210504 Q 296.270657 121.743739 304.190269 117.733445 Q 304.991915 117.327469 306.417981 116.946223 Q 305.309277 119.017316 304.9507 119.588154 Q 301.911036 124.400096 297.14031 129.642743 C 287.063053 140.721543 273.593738 148.492777 258.745755 151.002818 Q 248.371745 152.756549 238.179084 151.761188 Q 231.978171 151.153255 225.404255 149.31091 C 213.000367 145.832299 201.486741 138.848286 192.580012 129.405752 C 182.420323 118.631949 175.949447 104.676287 173.664032 90.139484 Q 173.447649 88.760816 173.210658 86.186891 Q 173.105558 85.043153 173.087011 83.479014 Q 173.072586 82.151866 173.00458 80.771138 Q 173.55481 81.092621 173.905144 81.593393 Q 176.244139 84.935992 177.688752 86.780398 C 184.664522 95.680944 193.398145 103.105966 202.855104 109.220326 Q 204.353298 110.188897 206.331655 111.408884 Q 216.662389 117.789086 228.452161 121.632457 Q 229.274416 121.900359 229.529954 121.943636 Z" style="fill:#e4d8c5;"/>
		<path d="M 315.440114 92.249731 Q 313.247435 104.229096 307.452497 115.338808 Q 306.88578 116.426905 306.417981 116.946223 Q 304.991915 117.327469 304.190269 117.733445 Q 296.270657 121.743739 288.563308 124.210504 Q 276.975493 127.919923 264.79211 128.130124 Q 258.41809 128.241406 252.122381 127.301687 Q 240.742705 125.603597 229.529954 121.943636 Q 231.786517 121.045132 233.964771 120.22906 C 237.896756 118.759717 241.321787 117.212065 245.624714 115.334687 Q 259.405208 109.317183 274.533458 108.624758 Q 277.690586 108.480503 282.055337 108.363038 Q 283.910047 108.313579 288.28304 107.798382 Q 291.629761 107.404771 295.809041 106.211575 C 301.651377 104.542336 307.553476 101.488247 311.749242 97.043126 Q 312.480822 96.268269 313.636924 94.681462 Q 314.521002 93.467657 315.440114 92.249731 Z" style="fill:#b0805d;"/>
	</g>
	<g id="surface4">
	</g>
</svg>
