<?xml version="1.0" encoding="utf-8"?>
<svg xmlns="http://www.w3.org/2000/svg" width="490pt" height="280pt" viewBox="0 0 490 280" version="1.1" xmlns:xlink="http://www.w3.org/1999/xlink">
	<g id="surface2">
		<path vector-effect="non-scaling-stroke" d="M 197.407105 137.000526 Q 198.201351 137.204487 199.362727 137.199688 Q 218.388649 137.130101 267.989461 137.173293 C 268.423777 137.173293 268.766911 137.08691 269.054855 136.738977 Q 269.580353 136.098301 270.187436 135.11689 Q 272.846122 130.831319 274.883328 126.99686" style="fill:none;stroke-width:0.50;stroke:#794a24;"/>
		<path vector-effect="non-scaling-stroke" d="M 281.438861 101.074671 L 185.296646 101.23544" style="fill:none;stroke-width:0.50;stroke:#794a24;"/>
		<path d="M 235.679707 70.734936 Q 237.085835 73.575987 238.343192 76.930538 Q 238.717519 77.926346 238.931078 78.893359 Q 239.271812 80.421863 239.293408 80.918567 Q 239.329401 81.827991 239.432581 82.502261 Q 239.528563 83.150136 239.154235 82.634236 Q 239.120641 82.588644 239.053454 82.315097 Q 238.585545 80.424263 237.935271 79.166906 Q 235.970051 75.358842 233.906449 72.4698 Q 232.533915 70.547772 230.681473 68.22982 Q 228.31553 65.268792 226.563869 62.156594 Q 225.712033 60.642487 225.176937 59.087587 Q 224.497868 57.10797 224.351496 55.805022 C 224.149935 53.998171 224.219522 51.670621 224.677833 49.655011 Q 225.241724 47.166692 226.160747 44.656777 Q 226.340712 44.167271 226.695843 42.552384 Q 226.962192 41.352616 226.799023 40.395201 Q 226.465488 38.417983 225.114549 36.709513 Q 222.2639 33.10301 219.6772 29.050194 Q 219.230886 28.354328 218.057513 25.935596 Q 217.184082 24.135944 216.514611 21.261299 Q 216.363441 20.618224 216.291455 18.847366 Q 216.185875 16.308657 217.318456 14.033896 Q 218.196686 12.275036 219.598015 10.732135 Q 222.232706 7.835895 226.074363 6.053039 Q 228.089974 5.11722 230.100785 4.812479 Q 230.583092 4.738093 230.23036 5.076428 Q 229.100179 6.163418 228.399514 7.663128 Q 227.631662 9.30681 228.385117 11.240836 Q 228.968204 12.742946 229.728857 14.036296 Q 231.42293 16.920538 234.129606 20.133517 Q 234.669502 20.771794 236.769096 23.857597 C 237.069038 24.299112 237.400174 25.016573 237.704915 25.561268 Q 238.897485 27.704054 239.566955 30.029204 Q 241.109857 35.387369 239.523764 40.815119 Q 238.943076 42.809134 237.757705 45.160679 Q 236.265193 48.121707 234.386357 51.140324 Q 234.167999 51.490656 233.102605 53.525463 Q 230.90223 57.719852 232.209977 62.295767 Q 233.164993 65.638321 234.268779 67.874689 Q 235.446952 70.262227 235.679707 70.734936 Z" style="fill:#643c1a;"/>
		<path d="M 220.562629 62.048615 C 221.69281 65.213603 223.730017 67.889086 226.160747 70.221435 Q 226.544673 70.588564 230.083988 74.003104 Q 231.799657 75.656384 233.105004 77.866357 Q 234.508733 80.246697 234.515932 82.898185 C 234.515932 83.111743 234.364761 83.294108 234.278378 83.18133 Q 234.038424 82.866991 233.738482 82.521457 Q 230.827845 79.188502 228.817033 77.679193 Q 224.713826 74.59339 223.802003 73.899924 C 220.569827 71.438 217.707181 68.213023 216.010709 64.604121 Q 214.196659 60.745667 213.810334 56.565675 Q 213.695156 55.313117 213.731149 53.007163 Q 213.762343 50.969956 214.019094 49.463048 Q 214.443812 46.950733 215.545199 44.186468 C 216.277057 42.346024 217.356849 40.673547 218.604607 39.197832 Q 219.926752 37.633335 221.704808 36.611132 Q 222.021547 36.428767 221.90397 36.774301 Q 219.941149 42.528388 219.293274 49.011935 Q 218.887753 53.076749 219.310071 56.74804 Q 219.617212 59.409125 220.562629 62.048615 Z" style="fill:#a76126;"/>
		<path d="M 197.407105 137.000526 Q 198.201351 137.204487 199.362727 137.199688 Q 218.388649 137.130101 267.989461 137.173293 C 268.423777 137.173293 268.766911 137.08691 269.054855 136.738977 Q 269.580353 136.098301 270.187436 135.11689 Q 272.846122 130.831319 274.883328 126.99686 Q 277.554012 126.802498 279.312872 126.408974 Q 282.293096 125.744302 285.527671 124.225396 Q 288.899019 122.644101 291.507315 120.023808 Q 293.60211 117.919415 294.785081 114.845609 Q 295.480947 113.036359 295.550533 111.507854 Q 295.622519 109.868971 295.157009 108.052522 C 294.473142 105.37464 292.383146 102.845529 290.101187 101.329022 Q 286.324317 98.821507 281.865979 97.633736 C 281.777196 97.609741 281.688413 97.674528 281.681214 97.765711 L 281.438861 101.074671 L 185.296646 101.23544 Q 185.191066 100.402801 185.090286 99.52697 C 184.927117 98.140038 184.982307 96.808296 184.850332 95.49095 Q 184.742353 94.415958 184.739954 93.168199 Q 184.730355 89.432122 184.5 84.873003 C 184.485603 84.604255 184.711159 84.383497 184.982307 84.402694 Q 185.817345 84.460283 187.029111 84.462682 Q 229.174564 84.486678 277.87315 84.477079 Q 279.096914 84.477079 281.978757 84.3715 C 282.074738 84.3691 282.153923 84.445885 282.153923 84.541867 L 282.153923 88.052388 C 282.153923 88.138772 282.22111 88.213157 282.307493 88.220356 Q 283.092142 88.294741 284.03276 88.61148 Q 287.922408 89.931225 289.15337 90.610294 Q 289.779649 90.958227 290.209166 91.162187 Q 290.929027 91.51012 291.262562 91.709281 Q 292.279965 92.325962 293.225383 92.90665 Q 296.157616 94.7159 298.660332 97.223415 Q 300.906298 99.47418 302.854721 102.881522 C 305.400629 107.330262 305.842144 112.508461 303.980104 117.278739 Q 302.13966 121.996227 298.441974 125.936265 C 294.593118 130.039472 290.093988 133.113278 285.018969 135.359244 Q 276.527011 139.114518 267.305593 139.77439 C 267.125628 139.788787 266.90967 139.901565 266.808889 140.009545 Q 263.33916 143.721627 259.418318 146.586673 Q 259.171166 146.766638 259.053588 146.826627 Q 258.62887 147.044985 259.09678 147.138567 C 259.471108 147.212952 259.989407 147.112172 260.334941 147.112172 Q 268.637336 147.114571 272.385411 147.06658 C 273.957107 147.044985 275.468815 147.488899 275.977517 149.101387 C 276.402235 150.454725 275.675175 151.700085 274.456211 152.331163 Q 273.575581 152.787075 272.685353 152.787075 Q 220.171504 152.772677 196.368106 152.763079 C 195.393894 152.763079 193.853392 152.919049 192.62003 152.583114 Q 191.868976 152.379153 191.098724 151.41454 Q 190.302078 150.421132 190.662009 148.962214 C 190.846773 148.211159 191.629022 147.733651 192.269698 147.371322 Q 192.732809 147.109772 193.217515 147.102573 C 193.567847 147.095375 194.074149 147.008992 194.556456 147.030587 Q 196.802422 147.126569 198.014188 147.124169 Q 206.105424 147.11937 207.216409 147.133767 Q 207.876281 147.143366 207.31239 146.800232 Q 206.067031 146.044378 204.869662 145.022176 C 204.068217 144.335908 202.6045 143.073752 201.601494 141.984363 Q 199.391521 139.589626 197.407105 137.000526 Z" style="fill:#4a3321;"/>
		<path d="M 281.438861 101.074671 Q 281.162914 103.207859 280.867772 105.336247 Q 280.527037 107.788573 280.083123 110.226502 Q 279.183297 115.155149 277.993127 119.044797 Q 276.860546 122.735284 274.883328 126.99686 Q 272.846122 130.831319 270.187436 135.11689 Q 269.580353 136.098301 269.054855 136.738977 C 268.766911 137.08691 268.423777 137.173293 267.989461 137.173293 Q 218.388649 137.130101 199.362727 137.199688 Q 198.201351 137.204487 197.407105 137.000526 Q 196.466487 135.63759 195.537866 134.262656 Q 193.102337 130.648954 191.449057 127.064047 Q 190.232492 124.422158 188.960738 120.844449 Q 188.478431 119.488711 188.152094 118.15217 C 187.897743 117.113171 187.518616 115.831818 187.230672 114.502475 Q 186.134084 109.437054 185.529401 103.764551 Q 185.399826 102.545587 185.296646 101.23544 L 281.438861 101.074671 Z" style="fill:#a76126;"/>
	</g>
	<g id="surface4">
	</g>
</svg>
