<?xml version="1.0" encoding="utf-8"?>
<svg xmlns="http://www.w3.org/2000/svg" width="490pt" height="280pt" viewBox="0 0 490 280" version="1.1" xmlns:xlink="http://www.w3.org/1999/xlink">
	<g id="surface2">
		<path d="M 448.719201 80.795399 Q 446.582446 88.458244 445.94563 90.152911 Q 444.698313 93.49488 443.219426 97.521031 Q 442.819442 98.61046 442.3142 99.599893 C 441.808957 100.584063 441.630017 101.468238 441.130038 102.389253 Q 440.303756 103.920769 440.014294 104.5839 Q 439.198538 106.452244 438.993283 106.825913 Q 436.814425 110.746805 436.372338 111.525721 Q 429.104214 124.309408 418.873054 134.098482 C 416.36263 136.503646 413.299597 139.340373 410.136569 141.640278 Q 384.84813 160.023737 352.912594 158.350121 Q 349.20222 158.155392 343.691919 157.318584 Q 338.586864 156.539669 334.623869 155.466029 Q 306.182927 147.782132 287.473166 124.951487 Q 283.073346 119.578023 279.652433 113.83089 Q 272.800082 102.315571 268.658146 89.1319 Q 267.226626 84.574192 264.689888 76.006121 C 262.611025 68.995882 260.037446 62.19616 253.511397 58.091065 C 246.516947 53.691245 237.469948 55.759581 232.37542 62.006694 C 229.686056 65.301296 227.807186 69.485336 226.444084 73.779897 Q 225.375706 77.132391 225.344129 77.221861 C 224.886253 78.606015 224.412588 80.811188 223.596832 82.76374 C 223.338948 83.379504 223.286318 84.053161 223.117904 84.584718 Q 219.470685 96.168454 217.460241 100.84721 Q 207.397495 124.277831 187.366735 139.8193 Q 177.493455 147.482145 164.26768 152.639828 C 161.646735 153.660839 158.1153 154.871316 155.136475 155.613391 Q 133.090008 161.097377 111.517206 156.25547 Q 109.554129 155.813383 106.385837 154.881842 Q 83.870969 148.245271 67.234807 129.930231 Q 59.677222 121.609519 54.319546 112.173063 Q 48.014541 101.062991 44.16733 88.910857 Q 42.925276 84.984701 40.025394 75.132473 Q 38.941228 71.44315 36.330809 67.180167 Q 33.520397 62.580355 28.652175 60.396234 Q 24.552343 58.548941 20.763024 58.175272 C 19.694647 58.06475 18.542063 57.675292 17.747358 57.406882 C 17.599996 57.359516 17.5 57.222679 17.5 57.070054 L 17.5 22.345159 Q 17.5 22.045171 17.799988 22.045171 Q 18.684162 22.050434 19.452552 21.855705 Q 21.731406 21.276781 24.299722 20.792591 Q 30.820508 19.561062 31.425746 19.445277 Q 31.46785 19.434751 32.773059 19.09266 C 33.551975 18.882143 34.462464 19.024242 35.357164 18.703202 Q 35.767674 18.55584 36.330809 18.482159 Q 37.936006 18.271641 45.004138 17.066427 Q 48.130326 16.540133 58.177283 15.124402 Q 63.556011 14.366538 68.971579 13.808666 Q 70.666246 13.634989 75.0187 13.08238 Q 79.018536 12.577137 81.086872 12.503456 Q 81.355282 12.49293 82.086831 12.382408 Q 86.134034 11.771907 95.996789 11.371923 Q 96.549398 11.345609 97.486201 11.287716 Q 113.569754 10.266705 126.800792 10.61406 Q 136.037256 10.856155 147.984136 12.213994 Q 158.520547 13.413945 173.298889 16.94538 Q 190.471871 21.045212 210.813144 28.581746 Q 214.391945 29.908007 215.534004 30.276413 Q 217.554974 30.923755 220.296967 31.534257 C 221.223245 31.739511 224.012604 31.655304 225.049404 31.071118 C 225.991471 30.534297 226.801964 30.518509 227.812449 29.902744 Q 232.401735 27.129174 237.506789 26.018693 C 238.654111 25.766071 239.696173 25.850279 240.701395 25.523976 Q 241.138219 25.381877 241.975027 25.329247 Q 250.395735 24.787164 258.069106 27.439687 Q 260.25849 28.197551 264.537262 30.53956 Q 267.758183 32.307909 271.88433 31.460575 Q 273.605312 31.107958 279.005091 29.071199 Q 284.04699 27.171277 286.052172 26.476569 Q 297.33592 22.550414 302.419923 21.16626 Q 302.867273 21.045212 303.319886 20.908375 Q 315.119403 17.287471 326.118953 15.213872 Q 326.161057 15.208609 327.518896 14.861254 C 328.260971 14.677051 329.097779 14.766521 329.845117 14.482323 C 330.871391 14.092865 331.845035 14.303382 332.908149 14.019184 C 335.050167 13.456049 337.313232 13.282372 339.413146 12.871862 C 340.770986 12.603452 342.15514 12.608715 343.523505 12.335042 C 345.212909 11.998214 346.723374 12.198205 348.128579 11.819274 C 349.823247 11.361398 352.086312 11.587704 353.612566 11.387712 C 356.959797 10.961414 360.064933 10.977203 363.575316 10.766685 C 369.175087 10.43512 373.838054 10.545641 380.185163 10.556167 Q 385.316532 10.566693 390.453164 10.88247 Q 406.699867 11.892955 410.020784 12.261361 Q 423.272874 13.734985 427.63059 14.429693 Q 431.94094 15.108613 434.5882 15.440178 Q 437.488082 15.798058 441.530021 16.503292 Q 450.07704 17.992705 450.813852 18.124279 Q 451.387513 18.229538 451.982225 18.240064 Q 452.829559 18.261115 453.9032 18.534788 Q 455.350509 18.903194 455.745229 18.961087 Q 462.760732 20.029464 471.18144 21.782024 Q 471.881411 21.924123 472.465598 21.903072 C 472.660327 21.897809 472.823478 22.050434 472.823478 22.245163 L 472.823478 56.822696 C 472.823478 57.212153 472.539279 57.538456 472.155084 57.601611 C 464.292248 58.822614 457.703044 61.043576 453.676893 68.095919 Q 451.119103 72.579946 448.956033 80.374364 Q 448.924456 80.479623 448.834986 80.584881 Q 448.750779 80.684877 448.719201 80.795399 Z M 291.82562 48.175681 Q 287.162652 52.154466 285.394304 56.817433 Q 283.836473 60.94358 283.468067 65.122356 C 282.983876 70.690549 283.178605 76.264006 284.473289 81.700625 Q 284.504866 81.847988 285.573244 86.363592 Q 285.573244 86.368855 285.752184 87.121456 Q 286.020594 88.252989 286.473207 89.36347 Q 286.862665 90.310799 287.273174 91.547591 Q 287.794206 93.131737 288.762587 95.321121 Q 291.125648 100.652482 292.746634 103.331319 C 297.693801 111.520458 303.967228 119.404346 311.551128 125.140953 Q 312.572139 125.909343 314.998356 127.740847 Q 316.066733 128.546077 318.414005 129.94602 Q 325.824229 134.377418 333.129193 136.987837 Q 338.492131 138.903548 344.728718 140.308754 C 345.702363 140.524535 346.654955 140.377172 347.475974 140.671897 C 349.086435 141.250821 350.833732 141.008725 352.481033 141.287661 Q 353.823083 141.519231 355.496699 141.529757 C 358.680779 141.556071 361.180677 141.629753 363.964774 141.245558 C 365.480501 141.029777 366.938336 141.219243 368.301438 140.777156 Q 368.754051 140.629793 369.743485 140.503483 Q 371.574989 140.26665 371.91708 140.198232 Q 381.095652 138.256206 389.521623 134.272159 C 390.716311 133.709024 392.058361 132.793272 393.047794 132.277504 Q 394.658255 131.445959 395.658214 130.767039 Q 398.647565 128.751332 402.173737 125.951447 Q 402.35794 125.804084 402.384255 125.551463 C 402.62635 125.514622 402.889497 125.45673 403.089489 125.288316 Q 409.252395 120.183261 414.578492 113.146707 Q 421.820301 103.762881 425.993815 92.810697 Q 428.441083 86.384644 430.230484 77.116602 Q 430.619941 75.090369 430.719937 73.679901 Q 430.81467 72.369428 431.019925 70.164255 Q 431.751474 62.159319 429.951548 53.828081 Q 429.125266 50.012448 427.756901 46.291548 Q 425.530676 40.802298 420.751924 37.555063 C 418.541488 36.055124 415.962646 35.291998 413.257494 34.54466 Q 400.536962 31.029014 387.190139 29.28698 Q 351.538966 24.645065 316.903541 35.165687 Q 307.461822 38.033991 299.083217 42.71801 Q 294.993911 45.00739 291.82562 48.175681 Z M 62.950772 46.133659 Q 60.33509 52.312354 59.693011 59.601529 Q 58.629896 71.627353 61.31926 82.742688 Q 63.619166 92.252825 67.461114 100.078821 Q 70.687298 106.657499 75.923926 113.504587 Q 81.050032 120.130632 87.639236 125.5462 Q 87.928698 125.788295 88.565514 126.04618 Q 88.581303 126.309327 88.870764 126.535633 Q 102.412316 137.256247 118.774804 140.271913 Q 120.606308 140.608742 120.953662 140.729789 Q 121.543112 140.935044 123.000947 141.008725 C 124.721929 141.087669 126.711322 141.44555 128.358623 141.513968 Q 135.210974 141.798167 141.894911 140.919255 Q 142.305421 140.866626 143.021181 140.698212 C 143.868515 140.49822 144.910577 140.58769 145.931588 140.350857 Q 161.12044 136.777319 171.888421 129.993386 Q 180.493332 124.572556 186.877281 117.499161 Q 190.750807 113.2046 192.503367 110.883642 Q 200.118845 100.75774 204.018685 89.016115 Q 204.587083 87.300396 205.166007 84.721554 Q 206.002815 81.005917 206.187018 80.400678 C 206.492268 79.411245 206.497531 78.553386 206.708049 77.227124 Q 206.929093 75.864022 206.955407 74.848274 Q 207.10277 70.053733 206.955407 65.296033 C 206.913304 63.89609 206.487005 62.411941 206.202807 61.027787 Q 205.776508 58.975239 205.38705 57.864758 Q 203.560809 52.707075 199.403085 48.712501 Q 192.171802 42.112771 182.856393 38.349767 Q 171.025298 33.571015 157.815312 31.029014 Q 127.648125 25.218725 96.796756 30.486931 Q 88.418151 31.918451 80.281642 33.892055 Q 75.313424 35.102532 72.629324 36.260379 Q 65.892757 39.170786 62.950772 46.133659 Z" style="fill:#053468;"/>
		<path d="M 427.756901 46.291548 Q 422.993938 46.565221 418.441492 46.554695 Q 369.443497 46.465225 349.639044 46.470488 C 349.38116 46.470488 349.233797 46.765212 349.386423 46.97573 Q 349.707462 47.407291 350.260071 47.770434 C 359.043922 53.533357 365.280509 59.880465 373.932787 68.874834 Q 388.611134 84.137368 403.689464 100.531434 Q 411.204946 108.704784 414.578492 113.146707 Q 409.252395 120.183261 403.089489 125.288316 C 402.889497 125.45673 402.62635 125.514622 402.384255 125.551463 C 401.773753 125.130428 401.089571 124.704129 400.610643 124.130468 Q 387.932214 108.978457 373.70648 93.821182 C 361.122785 80.411204 348.375938 67.306477 331.776617 59.169968 Q 318.177173 52.512346 303.188313 49.754564 Q 300.320009 49.228269 295.45705 48.870389 Q 294.693923 48.81776 293.630809 48.54935 Q 292.746634 48.323043 291.82562 48.175681 Q 294.993911 45.00739 299.083217 42.71801 Q 307.461822 38.033991 316.903541 35.165687 Q 351.538966 24.645065 387.190139 29.28698 Q 400.536962 31.029014 413.257494 34.54466 C 415.962646 35.291998 418.541488 36.055124 420.751924 37.555063 Q 425.530676 40.802298 427.756901 46.291548 Z" style="fill:#ee9597;"/>
		<path d="M 199.403085 48.712501 Q 198.434703 47.949374 197.329485 48.19147 Q 196.187427 48.449354 196.129534 48.454617 Q 189.750848 49.112485 185.093144 49.938767 C 175.651425 51.601857 164.999229 55.180658 156.331163 60.227819 Q 146.968388 65.680228 141.937015 69.92216 Q 134.563632 76.137695 128.65861 82.563748 Q 115.753875 96.621068 109.054149 103.752355 Q 102.628096 110.588917 90.165448 124.793599 C 89.675995 125.346208 89.165489 125.646196 88.565514 126.04618 Q 87.928698 125.788295 87.639236 125.5462 Q 81.050032 120.130632 75.923926 113.504587 Q 76.208125 112.873034 76.434431 112.357266 Q 76.681789 111.799394 77.134402 111.330992 Q 88.649721 99.473582 99.449279 87.43197 Q 118.522183 66.180208 121.501009 62.78561 Q 129.458578 53.71756 138.973978 47.470447 Q 139.200284 47.323084 139.452906 47.012571 C 139.642372 46.775738 139.47922 46.423121 139.17397 46.423121 Q 110.333044 46.638902 65.155945 46.365229 Q 64.171775 46.359966 62.950772 46.133659 Q 65.892757 39.170786 72.629324 36.260379 Q 75.313424 35.102532 80.281642 33.892055 Q 88.418151 31.918451 96.796756 30.486931 Q 127.648125 25.218725 157.815312 31.029014 Q 171.025298 33.571015 182.856393 38.349767 Q 192.171802 42.112771 199.403085 48.712501 Z" style="fill:#ee9597;"/>
	</g>
	<g id="surface4">
	</g>
</svg>
