<?xml version="1.0" encoding="utf-8"?>
<svg xmlns="http://www.w3.org/2000/svg" width="490pt" height="280pt" viewBox="0 0 490 280" version="1.1" xmlns:xlink="http://www.w3.org/1999/xlink">
	<g id="surface2">
		<path vector-effect="non-scaling-stroke" d="M 291.103888 58.973439 Q 291.085807 58.795648 290.856789 58.58471 Q 280.101951 48.658558 269.223564 38.861983 Q 268.967425 38.629951 268.672111 38.458187" style="fill:none;stroke-width:0.50;stroke:#3c686f;"/>
		<path vector-effect="non-scaling-stroke" d="M 221.289353 38.364771 L 199.131796 58.4702" style="fill:none;stroke-width:0.50;stroke:#7c4739;"/>
		<path vector-effect="non-scaling-stroke" d="M 203.666969 42.863783 Q 203.745317 42.695032 203.947215 42.607644" style="fill:none;stroke-width:0.50;stroke:#3c686f;"/>
		<path vector-effect="non-scaling-stroke" d="M 204.625231 41.974829 L 212.99948 34.426253" style="fill:none;stroke-width:0.50;stroke:#3c686f;"/>
		<path vector-effect="non-scaling-stroke" d="M 245.122362 45.804865 Q 245.128389 54.510588 245.194684 63.18015 Q 245.203724 64.554262 244.778834 65.904267" style="fill:none;stroke-width:0.50;stroke:#977560;"/>
		<path vector-effect="non-scaling-stroke" d="M 245.05004 116.125652 Q 245.116335 118.548428 245.089215 124.078024 Q 245.074148 128.06777 245.285086 139.045599 Q 245.291113 139.313792 245.16455 140.434778 Q 245.083188 141.164022 245.273032 141.854092" style="fill:none;stroke-width:0.50;stroke:#977560;"/>
		<path vector-effect="non-scaling-stroke" d="M 245.18263 66.253822 Q 245.071134 66.211634 244.953611 66.226701" style="fill:none;stroke-width:0.50;stroke:#3c686f;"/>
		<path vector-effect="non-scaling-stroke" d="M 211.878493 35.128376 L 203.609714 42.511215" style="fill:none;stroke-width:0.50;stroke:#3c686f;"/>
		<path vector-effect="non-scaling-stroke" d="M 282.142025 13.208878 Q 281.497157 14.845156 281.238004 15.2821 Q 280.336997 16.797842 279.017126 18.184007" style="fill:none;stroke-width:0.50;stroke:#3c686f;"/>
		<path vector-effect="non-scaling-stroke" d="M 292.978225 147.428888 L 296.398438 148.37811" style="fill:none;stroke-width:0.50;stroke:#3c686f;"/>
		<path vector-effect="non-scaling-stroke" d="M 296.413505 149.074207 Q 295.952454 148.821081 295.702342 149.239944" style="fill:none;stroke-width:0.50;stroke:#3c686f;"/>
		<path vector-effect="non-scaling-stroke" d="M 295.274438 149.345413 Q 294.439726 149.366507 293.550771 149.755236" style="fill:none;stroke-width:0.50;stroke:#3c686f;"/>
		<path vector-effect="non-scaling-stroke" d="M 192.41492 149.167622 Q 192.134673 148.884362 191.902641 148.845188 Q 191.176411 148.715612 191.854426 148.429338 L 192.972399 147.962261" style="fill:none;stroke-width:0.50;stroke:#3c686f;"/>
		<path vector-effect="non-scaling-stroke" d="M 193.701643 147.748309 Q 194.111466 147.974314 194.364592 147.552438" style="fill:none;stroke-width:0.50;stroke:#3c686f;"/>
		<path vector-effect="non-scaling-stroke" d="M 196.347411 147.154669 Q 196.832569 147.35054 197.136923 147.046186" style="fill:none;stroke-width:0.50;stroke:#3c686f;"/>
		<path vector-effect="non-scaling-stroke" d="M 200.17142 146.585135 Q 200.665619 146.729779 201.391849 146.422411" style="fill:none;stroke-width:0.50;stroke:#3c686f;"/>
		<path vector-effect="non-scaling-stroke" d="M 202.669532 146.175312 Q 202.970872 146.319956 203.27824 146.157232" style="fill:none;stroke-width:0.50;stroke:#3c686f;"/>
		<path d="M 291.103888 58.973439 Q 291.085807 58.795648 290.856789 58.58471 Q 280.101951 48.658558 269.223564 38.861983 Q 268.967425 38.629951 268.672111 38.458187 L 268.660058 38.382852 Q 268.648004 38.31957 268.59979 38.277383 L 245.471917 17.29204 C 245.273032 17.111236 244.971692 17.111236 244.772807 17.289027 L 221.289353 38.364771 L 199.131796 58.4702 L 185.327394 71.265112 C 185.134536 71.442903 184.839223 71.445916 184.646365 71.268125 L 179.216212 66.320117 C 178.929938 66.057951 178.926925 65.60594 179.213198 65.343774 L 203.666969 42.863783 Q 203.745317 42.695032 203.947215 42.607644 Q 204.390185 42.372598 204.625231 41.974829 L 212.99948 34.426253 Q 214.207854 33.498125 214.750267 33.009953 Q 230.917177 18.385905 244.47448 6.27805 C 244.854169 5.940549 245.423702 5.943562 245.797364 6.284077 L 310.92003 65.642101 C 311.031526 65.741543 311.034539 65.913307 310.92907 66.018776 Q 308.747366 68.19144 306.848922 69.887987 C 306.387871 70.297809 305.812311 71.262099 305.019786 71.406742 Q 304.869115 71.436876 304.754606 71.331407 Q 298.501794 65.536632 291.583019 59.214511 Q 291.33592 58.988506 291.103888 58.973439 Z" style="fill:#213a48;"/>
		<path d="M 282.142025 13.208878 Q 281.497157 14.845156 281.238004 15.2821 Q 280.336997 16.797842 279.017126 18.184007 L 274.774254 21.944735 C 274.536195 22.15266 274.183626 22.155673 273.942554 21.953775 Q 271.935627 20.254216 269.823231 18.370838 C 268.657044 17.334228 266.873109 15.42373 266.728466 14.00743 Q 266.698332 13.72417 266.529581 13.501178 Q 266.433152 13.377629 266.424112 13.220932 Q 266.231254 10.481748 268.536508 9.038327 C 270.31743 7.923368 272.758287 8.444687 274.144452 9.990563 C 274.283069 10.144247 274.521128 10.14726 274.665771 10.002617 Q 277.136762 7.492451 279.91512 8.975046 C 281.560439 9.85496 282.35899 11.343581 282.142025 13.208878 Z" style="fill:#213a48;"/>
		<path d="M 282.142025 13.208878 Q 281.497157 16.183107 279.017126 18.184007 Q 280.336997 16.797842 281.238004 15.2821 Q 281.497157 14.845156 282.142025 13.208878 Z" style="fill:#579696;"/>
		<path d="M 211.878493 35.128376 L 203.609714 42.511215 Q 203.383709 42.785434 202.988953 42.73722 Q 202.829242 42.716126 202.829242 42.556416 L 202.829242 22.221968 C 202.829242 22.092392 202.931698 21.986923 203.061274 21.986923 L 213.005506 21.986923 C 213.050707 21.986923 213.089882 22.026097 213.089882 22.071298 L 213.089882 33.706049 Q 213.089882 34.109845 212.731287 34.29065 Q 212.191887 34.561856 211.878493 35.128376 Z" style="fill:#213a48;"/>
		<path d="M 212.99948 34.426253 L 204.625231 41.974829 Q 204.170207 42.167687 203.947215 42.607644 Q 203.745317 42.695032 203.666969 42.863783 Q 203.727237 42.658872 203.609714 42.511215 L 211.878493 35.128376 L 212.99948 34.426253 Z" style="fill:#579696;"/>
		<path d="M 245.122362 45.804865 Q 245.128389 54.510588 245.194684 63.18015 Q 245.203724 64.554262 244.778834 65.904267 Q 243.31432 63.752697 242.205387 62.493094 C 239.665088 59.600227 235.639181 57.225665 231.721756 57.041847 Q 229.344181 56.933364 227.30712 57.499884 C 223.226971 58.638951 220.198501 62.203807 219.484324 66.359291 Q 219.110662 68.522915 219.185997 69.45707 Q 219.58678 74.365904 221.403862 78.283329 C 224.130993 84.174533 228.171967 88.715732 232.577563 93.564299 Q 234.04509 95.182496 235.563846 97.03574 C 238.978032 101.20629 241.635854 105.753516 243.486084 110.852195 Q 244.408185 113.386468 245.05004 116.125652 Q 245.116335 118.548428 245.089215 124.078024 Q 245.074148 128.06777 245.285086 139.045599 Q 245.291113 139.313792 245.16455 140.434778 Q 245.083188 141.164022 245.273032 141.854092 Q 245.309193 142.119271 245.089215 142.399518 C 244.941558 142.589362 244.640217 142.520054 244.585976 142.288022 C 244.347917 141.266478 243.811532 140.256988 242.922577 138.20486 Q 242.184294 136.499273 241.482171 135.134202 Q 238.742987 129.800477 236.488961 126.283835 Q 234.16864 122.661724 231.046754 118.394744 Q 230.374765 117.472643 226.650198 112.943497 C 223.528312 109.149622 219.182984 104.659651 216.648711 101.9054 Q 214.955179 100.061197 210.546569 95.019773 Q 207.081155 91.057147 204.118979 86.383358 C 202.383259 83.650201 201.042294 80.889923 199.87912 77.930761 Q 197.971636 73.088221 197.953555 67.887087 Q 197.947529 65.72949 198.025877 63.363968 Q 198.065051 62.155593 199.131796 58.4702 L 221.289353 38.364771 Q 221.876967 38.313544 222.961792 37.994123 Q 225.29718 37.307067 228.150873 37.228718 Q 235.289626 37.029834 240.89757 41.339001 Q 243.371575 43.240458 245.122362 45.804865 Z" style="fill:#d75329;"/>
		<path d="M 268.672111 38.458187 Q 268.967425 38.629951 269.223564 38.861983 Q 280.101951 48.658558 290.856789 58.58471 Q 291.085807 58.795648 291.103888 58.973439 Q 291.230451 59.997996 291.423309 61.001459 Q 291.700542 62.435839 291.766837 63.02948 Q 292.306236 67.817778 291.378107 72.500607 C 290.242054 78.238128 287.704768 83.496517 284.218261 88.546982 Q 281.008986 93.196663 277.166896 97.457616 Q 276.528055 98.165766 264.836048 110.975745 C 262.925551 113.07006 260.73782 115.866499 259.571632 117.376214 Q 254.120385 124.448672 249.723829 132.64513 C 248.521481 134.887102 247.496924 137.234544 246.291563 139.578972 C 245.951048 140.241921 245.652721 141.088687 245.273032 141.854092 Q 245.083188 141.164022 245.16455 140.434778 Q 245.291113 139.313792 245.285086 139.045599 Q 245.074148 128.06777 245.089215 124.078024 Q 245.116335 118.548428 245.05004 116.125652 Q 246.089665 112.443272 246.499488 111.3253 Q 249.419476 103.366901 254.524181 97.180383 C 257.658121 93.380481 260.475653 90.442413 263.154569 87.287379 C 266.996659 82.761247 270.067317 77.16837 270.871896 71.265112 Q 271.122008 69.432963 270.929151 67.236191 Q 270.534395 62.722113 267.153356 59.672548 Q 265.001786 57.73493 262.458473 57.279906 Q 256.067044 56.140839 250.938231 59.997996 Q 247.584313 62.517201 245.480957 66.006723 Q 245.381515 66.17246 245.18263 66.253822 Q 245.071134 66.211634 244.953611 66.226701 Q 244.772807 66.033843 244.778834 65.904267 Q 245.203724 64.554262 245.194684 63.18015 Q 245.128389 54.510588 245.122362 45.804865 Q 248.711326 40.682079 254.165586 38.608857 Q 260.933691 36.03541 268.177913 38.512428 C 268.352691 38.569683 268.515414 38.524482 268.672111 38.458187 Z" style="fill:#579696;"/>
		<path d="M 245.18263 66.253822 Q 245.059081 66.286969 244.953611 66.226701 Q 245.071134 66.211634 245.18263 66.253822 Z" style="fill:#213a48;"/>
		<path d="M 292.978225 147.428888 L 296.398438 148.37811 Q 296.518974 148.287708 296.579242 148.555901 Q 296.669644 148.968738 296.413505 149.074207 Q 295.952454 148.821081 295.702342 149.239944 Q 295.473323 149.363493 295.274438 149.345413 Q 294.439726 149.366507 293.550771 149.755236 Q 290.106451 150.659257 285.706882 151.283031 Q 277.058414 152.50346 270.281269 153.003685 Q 268.596776 153.130248 264.365958 153.443642 Q 261.403782 153.666634 258.435579 153.729915 Q 257.519505 153.751009 251.655421 153.998108 Q 250.18488 154.058376 237.914301 153.992081 C 234.635718 153.974001 231.29084 153.630473 227.967055 153.681701 C 226.939485 153.699781 225.893834 153.518977 224.842156 153.464736 Q 219.966469 153.22065 214.222921 152.639063 Q 213.303833 152.545648 211.342108 152.382924 Q 209.491878 152.232254 208.464307 152.072543 Q 207.207718 151.873659 202.699666 151.289058 Q 198.128333 150.695418 193.647402 149.616619 Q 193.228538 149.517177 192.41492 149.167622 Q 192.134673 148.884362 191.902641 148.845188 Q 191.176411 148.715612 191.854426 148.429338 L 192.972399 147.962261 Q 193.249632 147.814604 193.701643 147.748309 Q 194.111466 147.974314 194.364592 147.552438 L 196.347411 147.154669 Q 196.832569 147.35054 197.136923 147.046186 L 200.17142 146.585135 Q 200.665619 146.729779 201.391849 146.422411 L 202.669532 146.175312 Q 202.970872 146.319956 203.27824 146.157232 Q 206.529702 145.672074 207.961069 145.551538 Q 212.746354 145.153769 217.528625 144.710798 C 218.993139 144.578208 220.876517 144.638477 222.657438 144.466713 C 224.673405 144.273855 226.809908 144.379324 228.907237 144.180439 Q 230.088491 144.06593 230.715279 144.059903 Q 236.702912 144.017715 242.693559 143.870059 Q 244.567896 143.821844 248.714339 143.888139 Q 257.911247 144.035796 258.034797 144.038809 C 260.101991 144.090037 262.175213 144.273855 264.450333 144.310016 C 266.140852 144.34015 267.861506 144.584235 269.762963 144.644503 Q 270.673011 144.674637 271.89344 144.768053 Q 280.246595 145.400868 287.520951 146.431452 Q 289.949754 146.77498 292.978225 147.428888 Z" style="fill:#213a48;"/>
		<path d="M 203.27824 146.157232 Q 202.970872 146.319956 202.669532 146.175312 L 203.27824 146.157232 Z" style="fill:#579696;"/>
		<path d="M 201.391849 146.422411 Q 200.665619 146.729779 200.17142 146.585135 Q 200.71986 146.386251 201.391849 146.422411 Z" style="fill:#579696;"/>
		<path d="M 197.136923 147.046186 Q 196.832569 147.35054 196.347411 147.154669 Q 196.696966 147.025092 197.136923 147.046186 Z" style="fill:#579696;"/>
		<path d="M 292.978225 147.428888 Q 294.632583 147.62476 296.163392 148.127998 Q 296.341183 148.185253 296.398438 148.37811 L 292.978225 147.428888 Z" style="fill:#579696;"/>
		<path d="M 194.364592 147.552438 Q 194.111466 147.974314 193.701643 147.748309 L 194.364592 147.552438 Z" style="fill:#579696;"/>
		<path d="M 192.972399 147.962261 L 191.854426 148.429338 Q 191.176411 148.715612 191.902641 148.845188 Q 192.134673 148.884362 192.41492 149.167622 Q 191.860453 149.197756 191.471724 149.092287 C 191.330094 149.053113 191.230652 148.932577 191.218598 148.787933 Q 191.185451 148.399204 191.544046 148.263601 Q 192.191928 148.013489 192.972399 147.962261 Z" style="fill:#579696;"/>
		<path d="M 296.413505 149.074207 Q 296.069977 149.242957 295.702342 149.239944 Q 295.952454 148.821081 296.413505 149.074207 Z" style="fill:#579696;"/>
		<path d="M 295.274438 149.345413 L 293.550771 149.755236 Q 294.439726 149.366507 295.274438 149.345413 Z" style="fill:#579696;"/>
	</g>
	<g id="surface4">
	</g>
</svg>
