<?xml version="1.0" encoding="utf-8"?>
<svg xmlns="http://www.w3.org/2000/svg" width="490pt" height="280pt" viewBox="0 0 490 280" version="1.1" xmlns:xlink="http://www.w3.org/1999/xlink">
	<g id="surface2">
		<path vector-effect="non-scaling-stroke" d="M 235.231332 65.359632 Q 235.281115 65.377056 235.313474 65.42684" style="fill:none;stroke-width:0.50;stroke:#96b8ad;"/>
		<path vector-effect="non-scaling-stroke" d="M 240.578064 98.127036 Q 239.93337 97.569462 239.209022 96.690786 Q 232.450931 88.484 226.648682 81.165847 Q 224.615032 78.599515 223.651724 77.651142 Q 221.857034 75.886322 220.057365 74.178753 C 219.883124 74.011979 219.701414 73.917391 219.664077 73.972152 Q 197.438299 107.605786 180.019103 133.530468 Q 179.571053 134.197565 179.110557 134.819857 C 179.065752 134.879597 179.110557 134.96174 179.182743 134.96174 L 200.03699 134.934359" style="fill:none;stroke-width:0.50;stroke:#96b8ad;"/>
		<path vector-effect="non-scaling-stroke" d="M 200.03699 134.934359 L 207.076356 134.954272" style="fill:none;stroke-width:0.50;stroke:#c7d4af;"/>
		<path vector-effect="non-scaling-stroke" d="M 207.076356 134.954272 C 210.162924 134.944315 213.5233 135.041393 216.346016 134.772563 Q 219.198603 134.498754 222.003895 133.903843 C 224.615032 133.351248 226.521734 132.840969 228.41848 131.335022 C 232.505693 128.084169 235.211418 123.790355 238.332835 118.973815 Q 241.715614 113.759009 246.440054 105.363046 Q 252.473797 94.642201 257.775724 84.232502 Q 257.827996 84.127957 258.340765 83.25177 Q 258.627019 82.758914 258.83362 82.228722" style="fill:none;stroke-width:0.50;stroke:#dca18b;"/>
		<path vector-effect="non-scaling-stroke" d="M 261.409909 76.824739 Q 261.457203 76.764999 261.479605 76.697791" style="fill:none;stroke-width:0.50;stroke:#96b8ad;"/>
		<path vector-effect="non-scaling-stroke" d="M 261.479605 76.697791 Q 261.539345 76.526039 261.474627 76.426472" style="fill:none;stroke-width:0.50;stroke:#c7d4af;"/>
		<path vector-effect="non-scaling-stroke" d="M 261.474627 76.426472 Q 261.462181 76.349308 261.419865 76.294546" style="fill:none;stroke-width:0.50;stroke:#96b8ad;"/>
		<path vector-effect="non-scaling-stroke" d="M 261.419865 76.294546 Q 261.536856 75.361108 261.778305 74.716414 C 262.574839 72.590664 264.018556 69.586239 264.727969 66.892959 C 264.93457 66.111361 264.974397 65.561255 264.54626 64.836907 C 263.396264 62.895356 262.868561 61.29731 262.119321 58.915177 Q 261.760881 57.775138 260.18026 55.303395 C 254.059396 45.720099 249.11342 37.94145 244.911705 31.733466 C 244.83703 31.621453 244.670256 31.623942 244.59807 31.735955 Q 239.719301 39.193501 234.733498 46.917389 C 232.69487 50.071164 231.358187 53.887058 231.40797 57.692996 C 231.420416 58.549269 231.644441 59.44537 232.0676 60.157272 Q 233.162833 62.011702 234.546811 64.388857 Q 234.671269 64.605414 235.231332 65.359632" style="fill:none;stroke-width:0.50;stroke:#dca18b;"/>
		<path vector-effect="non-scaling-stroke" d="M 261.419865 76.294546 Q 261.397463 75.848985 261.307853 76.167598" style="fill:none;stroke-width:0.50;stroke:#7f6d62;"/>
		<path vector-effect="non-scaling-stroke" d="M 235.293561 65.167966 Q 235.228843 65.227706 235.231332 65.359632" style="fill:none;stroke-width:0.50;stroke:#7f6d62;"/>
		<path vector-effect="non-scaling-stroke" d="M 261.474627 76.426472 Q 261.454714 76.563376 261.479605 76.697791" style="fill:none;stroke-width:0.50;stroke:#6b9f86;"/>
		<path vector-effect="non-scaling-stroke" d="M 207.076356 134.954272 L 205.953741 134.93187" style="fill:none;stroke-width:0.50;stroke:#b18964;"/>
		<path vector-effect="non-scaling-stroke" d="M 205.973655 134.849727 Q 205.963698 134.892043 205.953741 134.93187" style="fill:none;stroke-width:0.50;stroke:#7f6d62;"/>
		<path vector-effect="non-scaling-stroke" d="M 205.953741 134.93187 L 200.03699 134.934359" style="fill:none;stroke-width:0.50;stroke:#6b9f86;"/>
		<path vector-effect="non-scaling-stroke" d="M 270.129463 95.219688 Q 270.10955 95.24458 270.087147 95.269471" style="fill:none;stroke-width:0.50;stroke:#96b8ad;"/>
		<path vector-effect="non-scaling-stroke" d="M 261.815643 107.951781 L 256.787524 115.64082" style="fill:none;stroke-width:0.50;stroke:#b3d0c1;"/>
		<path vector-effect="non-scaling-stroke" d="M 256.787524 115.64082 L 252.827258 121.59242" style="fill:none;stroke-width:0.50;stroke:#96b8ad;"/>
		<path vector-effect="non-scaling-stroke" d="M 252.827258 121.59242 Q 248.431388 128.08168 244.204781 134.675485 Q 244.147531 134.762606 244.159976 134.852216 C 244.167444 134.894532 244.204781 134.926891 244.247097 134.926891 L 265.808268 134.916935" style="fill:none;stroke-width:0.50;stroke:#c7d4af;"/>
		<path vector-effect="non-scaling-stroke" d="M 265.808268 134.916935 L 285.913275 134.852216" style="fill:none;stroke-width:0.50;stroke:#b3d0c1;"/>
		<path vector-effect="non-scaling-stroke" d="M 295.536398 134.924402 L 311.009064 134.951783 C 311.096185 134.951783 311.150947 134.852216 311.101163 134.78003 L 277.596966 84.225034 C 277.517313 84.103065 277.338093 84.105554 277.258439 84.227523 L 270.129463 95.219688" style="fill:none;stroke-width:0.50;stroke:#b3d0c1;"/>
		<path vector-effect="non-scaling-stroke" d="M 270.171779 95.369038 Q 270.241476 95.319255 270.129463 95.219688" style="fill:none;stroke-width:0.50;stroke:#569b98;"/>
		<path vector-effect="non-scaling-stroke" d="M 265.808268 134.916935 Q 265.449828 133.388586 264.39691 132.89822" style="fill:none;stroke-width:0.50;stroke:#88b79a;"/>
		<path vector-effect="non-scaling-stroke" d="M 264.39691 132.89822 Q 263.383819 127.118372 260.469003 121.594909 Q 258.607106 118.067758 256.787524 115.64082" style="fill:none;stroke-width:0.50;stroke:#569b98;"/>
		<path vector-effect="non-scaling-stroke" d="M 264.39691 132.89822 Q 261.897785 132.039457 260.080693 130.394117 C 257.345098 127.914906 255.052574 124.639161 252.827258 121.59242" style="fill:none;stroke-width:0.50;stroke:#6b9f86;"/>
		<path d="M 341.414248 152.978335 L 148.882104 152.978335 Q 148.289682 152.978335 148.615763 152.482991 C 150.557314 149.543284 152.356982 146.635936 154.310979 143.641467 Q 174.04759 113.403058 194.416449 81.603941 Q 195.755621 79.51304 197.117196 77.422139 Q 222.551512 38.347184 228.114801 29.973624 Q 237.115632 16.417617 244.573178 5.054566 C 244.635407 4.957489 244.774801 4.95251 244.849476 5.04212 Q 245.170578 5.437898 245.459322 5.878481 Q 257.026484 23.49681 267.199713 38.83755 Q 267.371465 39.096424 267.814537 39.775966 Q 296.313018 83.388674 298.237145 86.338338 C 312.437847 108.098642 326.658462 129.848989 340.866631 151.604315 Q 341.202669 152.122062 341.538706 152.776713 Q 341.640762 152.978335 341.414248 152.978335 Z M 235.231332 65.359632 Q 235.281115 65.377056 235.313474 65.42684 Q 235.846156 66.345343 236.423643 67.243932 Q 245.573824 81.519309 248.334311 85.76334 Q 249.200541 87.095045 249.89004 88.414303 C 249.934845 88.501424 249.91991 88.608459 249.850214 88.680644 L 240.578064 98.127036 Q 239.93337 97.569462 239.209022 96.690786 Q 232.450931 88.484 226.648682 81.165847 Q 224.615032 78.599515 223.651724 77.651142 Q 221.857034 75.886322 220.057365 74.178753 C 219.883124 74.011979 219.701414 73.917391 219.664077 73.972152 Q 197.438299 107.605786 180.019103 133.530468 Q 179.571053 134.197565 179.110557 134.819857 C 179.065752 134.879597 179.110557 134.96174 179.182743 134.96174 L 200.03699 134.934359 L 207.076356 134.954272 C 210.162924 134.944315 213.5233 135.041393 216.346016 134.772563 Q 219.198603 134.498754 222.003895 133.903843 C 224.615032 133.351248 226.521734 132.840969 228.41848 131.335022 C 232.505693 128.084169 235.211418 123.790355 238.332835 118.973815 Q 241.715614 113.759009 246.440054 105.363046 Q 252.473797 94.642201 257.775724 84.232502 Q 257.827996 84.127957 258.340765 83.25177 Q 258.627019 82.758914 258.83362 82.228722 Q 259.921386 80.152756 260.994218 78.031985 Q 261.287939 77.452009 261.409909 76.824739 Q 261.457203 76.764999 261.479605 76.697791 Q 261.539345 76.526039 261.474627 76.426472 Q 261.462181 76.349308 261.419865 76.294546 Q 261.536856 75.361108 261.778305 74.716414 C 262.574839 72.590664 264.018556 69.586239 264.727969 66.892959 C 264.93457 66.111361 264.974397 65.561255 264.54626 64.836907 C 263.396264 62.895356 262.868561 61.29731 262.119321 58.915177 Q 261.760881 57.775138 260.18026 55.303395 C 254.059396 45.720099 249.11342 37.94145 244.911705 31.733466 C 244.83703 31.621453 244.670256 31.623942 244.59807 31.735955 Q 239.719301 39.193501 234.733498 46.917389 C 232.69487 50.071164 231.358187 53.887058 231.40797 57.692996 C 231.420416 58.549269 231.644441 59.44537 232.0676 60.157272 Q 233.162833 62.011702 234.546811 64.388857 Q 234.671269 64.605414 235.231332 65.359632 Z M 270.129463 95.219688 Q 270.10955 95.24458 270.087147 95.269471 L 261.815643 107.951781 L 256.787524 115.64082 L 252.827258 121.59242 Q 248.431388 128.08168 244.204781 134.675485 Q 244.147531 134.762606 244.159976 134.852216 C 244.167444 134.894532 244.204781 134.926891 244.247097 134.926891 L 265.808268 134.916935 L 285.913275 134.852216 L 295.536398 134.924402 L 311.009064 134.951783 C 311.096185 134.951783 311.150947 134.852216 311.101163 134.78003 L 277.596966 84.225034 C 277.517313 84.103065 277.338093 84.105554 277.258439 84.227523 L 270.129463 95.219688 Z" style="fill:#f2ecd6;"/>
		<path d="M 261.419865 76.294546 Q 261.397463 75.848985 261.307853 76.167598 Q 258.9531 72.817179 256.71036 69.362214 C 252.712757 63.201524 248.610608 56.936289 244.822095 50.633716 Q 244.739952 50.496812 244.652832 50.631227 L 235.293561 65.167966 Q 235.228843 65.227706 235.231332 65.359632 Q 234.671269 64.605414 234.546811 64.388857 Q 233.162833 62.011702 232.0676 60.157272 C 231.644441 59.44537 231.420416 58.549269 231.40797 57.692996 C 231.358187 53.887058 232.69487 50.071164 234.733498 46.917389 Q 239.719301 39.193501 244.59807 31.735955 C 244.670256 31.623942 244.83703 31.621453 244.911705 31.733466 C 249.11342 37.94145 254.059396 45.720099 260.18026 55.303395 Q 261.760881 57.775138 262.119321 58.915177 C 262.868561 61.29731 263.396264 62.895356 264.54626 64.836907 C 264.974397 65.561255 264.93457 66.111361 264.727969 66.892959 C 264.018556 69.586239 262.574839 72.590664 261.778305 74.716414 Q 261.536856 75.361108 261.419865 76.294546 Z" style="fill:#c5563f;"/>
		<path d="M 235.293561 65.167966 L 235.313474 65.42684 Q 235.281115 65.377056 235.231332 65.359632 Q 235.228843 65.227706 235.293561 65.167966 Z" style="fill:#398384;"/>
		<path d="M 240.578064 98.127036 L 230.486978 108.8205 Q 230.404836 108.907621 230.317715 108.822989 Q 229.76263 108.287818 229.491311 107.859682 Q 227.726491 105.091727 225.774984 102.251587 C 224.388517 100.235361 222.409629 97.113945 220.654766 94.811464 Q 220.557688 94.684517 220.4631 94.813954 C 219.487346 96.163083 218.215381 98.216646 216.169286 101.539685 C 211.962592 108.364983 207.589124 115.098181 203.26544 121.868717 Q 198.954202 128.61934 194.428895 134.588364 C 194.366666 134.670507 194.423916 134.789987 194.525972 134.789987 L 205.973655 134.849727 Q 205.963698 134.892043 205.953741 134.93187 L 200.03699 134.934359 L 179.182743 134.96174 C 179.110557 134.96174 179.065752 134.879597 179.110557 134.819857 Q 179.571053 134.197565 180.019103 133.530468 Q 197.438299 107.605786 219.664077 73.972152 C 219.701414 73.917391 219.883124 74.011979 220.057365 74.178753 Q 221.857034 75.886322 223.651724 77.651142 Q 224.615032 78.599515 226.648682 81.165847 Q 232.450931 88.484 239.209022 96.690786 Q 239.93337 97.569462 240.578064 98.127036 Z" style="fill:#398384;"/>
		<path d="M 261.419865 76.294546 Q 261.462181 76.349308 261.474627 76.426472 Q 261.454714 76.563376 261.479605 76.697791 Q 261.457203 76.764999 261.409909 76.824739 L 261.307853 76.167598 Q 261.397463 75.848985 261.419865 76.294546 Z" style="fill:#398384;"/>
		<path d="M 261.479605 76.697791 Q 261.454714 76.563376 261.474627 76.426472 Q 261.539345 76.526039 261.479605 76.697791 Z" style="fill:#9cbb88;"/>
		<path d="M 258.83362 82.228722 Q 258.627019 82.758914 258.340765 83.25177 Q 257.827996 84.127957 257.775724 84.232502 Q 252.473797 94.642201 246.440054 105.363046 Q 241.715614 113.759009 238.332835 118.973815 C 235.211418 123.790355 232.505693 128.084169 228.41848 131.335022 C 226.521734 132.840969 224.615032 133.351248 222.003895 133.903843 Q 219.198603 134.498754 216.346016 134.772563 C 213.5233 135.041393 210.162924 134.944315 207.076356 134.954272 L 205.953741 134.93187 Q 205.963698 134.892043 205.973655 134.849727 Q 208.01975 134.86964 208.741609 134.63068 Q 211.736078 133.639992 214.2128 131.688484 Q 218.180533 128.557111 221.570779 124.609291 C 223.467525 122.39891 225.06806 120.646536 226.768162 118.610397 Q 229.919448 114.834329 235.318453 108.987275 Q 237.730456 106.373648 244.707593 98.490454 C 247.52782 95.30432 249.984629 92.695672 252.229858 89.987457 C 254.422815 87.341472 257.001593 85.13607 258.83362 82.228722 Z" style="fill:#c5563f;"/>
		<path d="M 295.536398 134.924402 L 270.171779 95.369038 Q 270.241476 95.319255 270.129463 95.219688 L 277.258439 84.227523 C 277.338093 84.105554 277.517313 84.103065 277.596966 84.225034 L 311.101163 134.78003 C 311.150947 134.852216 311.096185 134.951783 311.009064 134.951783 L 295.536398 134.924402 Z" style="fill:#73b3ac;"/>
		<path d="M 270.171779 95.369038 Q 270.253921 95.349125 270.087147 95.269471 Q 270.10955 95.24458 270.129463 95.219688 Q 270.241476 95.319255 270.171779 95.369038 Z" style="fill:#398384;"/>
		<path d="M 261.815643 107.951781 Q 267.538239 116.248177 273.235944 124.566975 C 274.764293 126.797269 276.193076 128.703972 277.838415 130.573337 C 279.523582 132.489996 282.087425 134.239881 284.651267 134.618234 Q 285.286005 134.710334 285.913275 134.852216 L 265.808268 134.916935 Q 265.449828 133.388586 264.39691 132.89822 Q 263.383819 127.118372 260.469003 121.594909 Q 258.607106 118.067758 256.787524 115.64082 L 261.815643 107.951781 Z" style="fill:#73b3ac;"/>
		<path d="M 256.787524 115.64082 Q 258.607106 118.067758 260.469003 121.594909 Q 263.383819 127.118372 264.39691 132.89822 Q 261.897785 132.039457 260.080693 130.394117 C 257.345098 127.914906 255.052574 124.639161 252.827258 121.59242 L 256.787524 115.64082 Z" style="fill:#398384;"/>
		<path d="M 252.827258 121.59242 C 255.052574 124.639161 257.345098 127.914906 260.080693 130.394117 Q 261.897785 132.039457 264.39691 132.89822 Q 265.449828 133.388586 265.808268 134.916935 L 244.247097 134.926891 C 244.204781 134.926891 244.167444 134.894532 244.159976 134.852216 Q 244.147531 134.762606 244.204781 134.675485 Q 248.431388 128.08168 252.827258 121.59242 Z" style="fill:#9cbb88;"/>
		<path d="M 205.953741 134.93187 L 207.076356 134.954272 L 200.03699 134.934359 L 205.953741 134.93187 Z" style="fill:#9cbb88;"/>
	</g>
	<g id="surface4">
	</g>
</svg>
