<?xml version="1.0" encoding="utf-8"?>
<svg xmlns="http://www.w3.org/2000/svg" width="490pt" height="280pt" viewBox="0 0 490 280" version="1.1" xmlns:xlink="http://www.w3.org/1999/xlink">
	<g id="surface2">
		<path stroke-opacity="0.804" vector-effect="non-scaling-stroke" d="M 198.736268 11.267975 Q 200.353914 12.938951 202.179544 14.373501" style="fill:none;stroke-width:0.50;stroke:#6c7a76;"/>
		<path vector-effect="non-scaling-stroke" d="M 222.273915 30.477084 C 222.272137 30.544635 222.325466 30.642404 222.385906 30.68329 C 224.184871 31.91519 226.110048 32.878667 227.642368 34.554976 Q 233.960078 41.46286 240.260012 48.486291 Q 240.320451 48.553841 240.400445 48.507623 C 242.755809 47.124624 245.404484 46.859756 247.934056 47.855231 Q 248.550895 48.096989 249.157068 48.368967 Q 249.356163 48.457849 249.480598 48.278308 Q 255.988514 38.810631 260.043297 33.07954 Q 260.825456 31.97563 262.004027 31.214802 Q 263.724776 30.107337 265.463302 29.031868" style="fill:none;stroke-width:0.50;stroke:#89865f;"/>
		<path stroke-opacity="0.804" vector-effect="non-scaling-stroke" d="M 265.463302 29.031868 Q 265.689061 28.973206 265.651731 28.85766" style="fill:none;stroke-width:0.50;stroke:#6c7a76;"/>
		<path vector-effect="non-scaling-stroke" d="M 272.858258 35.282028 Q 272.145427 35.811763 271.425485 36.361052 Q 270.66288 36.942338 269.976714 37.415189 Q 262.07691 42.86008 251.252898 50.166155 C 251.201347 50.201707 251.187126 50.272813 251.220901 50.326142 Q 253.071418 53.12947 252.600345 56.531861 Q 252.587901 56.629631 252.680338 56.661628 Q 256.45781 57.968189 268.583049 62.367832 C 270.238026 62.968672 271.402376 63.453966 272.396073 64.497437 Q 274.47946 66.689259 277.057028 69.793008" style="fill:none;stroke-width:0.50;stroke:#89865f;"/>
		<path stroke-opacity="0.984" vector-effect="non-scaling-stroke" d="M 277.057028 69.793008 L 279.959904 73.218508" style="fill:none;stroke-width:0.50;stroke:#879187;"/>
		<path stroke-opacity="0.804" vector-effect="non-scaling-stroke" d="M 279.959904 73.218508 Q 280.002567 73.328721 280.119891 73.390938" style="fill:none;stroke-width:0.50;stroke:#6c7a76;"/>
		<path stroke-opacity="0.984" vector-effect="non-scaling-stroke" d="M 275.3505 81.669378 Q 273.366661 80.110393 271.142841 79.027815" style="fill:none;stroke-width:0.50;stroke:#879187;"/>
		<path vector-effect="non-scaling-stroke" d="M 271.142841 79.027815 Q 269.486087 78.098112 267.847108 77.211073 Q 266.629429 76.551571 266.058809 75.988061 C 261.22009 71.209782 256.576911 66.566603 251.229789 61.093269 Q 250.639615 60.487096 250.559621 60.545758 Q 249.388161 61.413243 248.047825 61.999862 Q 247.958943 62.03897 247.962498 62.133184 L 248.920643 87.74533" style="fill:none;stroke-width:0.50;stroke:#89865f;"/>
		<path stroke-opacity="0.984" vector-effect="non-scaling-stroke" d="M 248.920643 87.74533 Q 249.091296 91.608128 249.233507 95.470926 Q 249.238839 95.622025 249.361496 95.568696" style="fill:none;stroke-width:0.50;stroke:#879187;"/>
		<path stroke-opacity="0.804" vector-effect="non-scaling-stroke" d="M 240.379113 96.480622 Q 240.44133 96.633498 240.425332 96.800596 Q 240.421777 96.850369 240.443108 96.811262 Q 240.448441 96.800596 240.460884 96.800596 Q 240.466217 96.800596 240.466217 96.765043 Q 240.455552 96.333078 240.483994 95.910001" style="fill:none;stroke-width:0.50;stroke:#6c7a76;"/>
		<path vector-effect="non-scaling-stroke" d="M 240.483994 95.910001 Q 240.587096 93.069343 240.622649 90.226907 C 240.627982 89.649176 240.736418 88.870572 240.757749 88.214625 Q 241.333703 70.269414 241.673231 62.053191 C 241.675008 62.005195 241.646566 61.960754 241.600348 61.942978 Q 240.348894 61.466572 239.237873 60.673747 C 239.193432 60.643527 239.132992 60.650638 239.099217 60.693301 Q 238.985449 60.833734 238.187291 61.790101 Q 231.286517 70.05432 226.952646 75.229011 Q 225.784741 76.622676 223.950223 77.513271 Q 220.02343 79.418894 215.346476 82.055125" style="fill:none;stroke-width:0.50;stroke:#89865f;"/>
		<path stroke-opacity="0.804" vector-effect="non-scaling-stroke" d="M 215.346476 82.055125 Q 215.072721 82.204446 215.02828 82.337768" style="fill:none;stroke-width:0.50;stroke:#6c7a76;"/>
		<path vector-effect="non-scaling-stroke" d="M 210.616193 75.328559 Q 213.860375 72.564339 217.028118 69.743234 Q 218.28846 68.61977 218.787975 68.299796 Q 219.88122 67.599408 223.418711 65.686674 Q 231.48739 61.326139 237.623781 58.156618 C 237.666444 58.133509 237.685998 58.083735 237.668222 58.039294 C 236.944725 56.208331 236.974945 54.29382 237.659334 52.436193 Q 237.691331 52.349089 237.604227 52.317091 Q 230.424365 49.670195 223.075627 46.644662 C 221.697961 46.077597 220.494503 45.457203 219.689235 44.367514 Q 217.758725 41.752615 215.06561 38.327115 Q 214.96784 38.20268 214.841628 38.12802" style="fill:none;stroke-width:0.50;stroke:#89865f;"/>
		<path stroke-opacity="0.804" vector-effect="non-scaling-stroke" d="M 265.413528 28.978539 L 265.463302 29.031868" style="fill:none;stroke-width:0.50;stroke:#fdd98e;"/>
		<path stroke-opacity="0.804" vector-effect="non-scaling-stroke" d="M 240.483994 95.910001 Q 240.361337 95.483369 240.352449 95.060292 Q 240.304453 92.889802 240.356004 90.721089 C 240.363115 90.415336 240.2689 90.054476 240.2689 89.81094 C 240.2689 89.755834 240.244013 89.702505 240.20135 89.666952 Q 239.964925 89.469635 239.604065 89.478523 C 238.898344 89.492744 237.995307 89.551406 237.120711 89.402085 Q 232.799283 88.660811 229.761308 87.569344 Q 226.853099 86.525873 226.136713 86.229008 Q 224.3733 85.498401 220.750483 83.562558 Q 219.586133 82.940386 217.669843 81.610716 Q 217.598738 81.56272 217.513412 81.553832 L 216.843244 81.482727 C 216.825468 81.480949 216.807691 81.484504 216.791692 81.493392 Q 216.484162 81.674711 216.052197 81.790257 Q 215.957982 81.815144 215.975759 81.870251 Q 216.005978 81.957355 215.918874 81.992907 Q 215.664673 82.094233 215.346476 82.055125" style="fill:none;stroke-width:0.50;stroke:#fdd98e;"/>
		<path stroke-opacity="0.984" vector-effect="non-scaling-stroke" d="M 271.142841 79.027815 Q 271.068181 79.587769 270.584664 80.016179 C 269.93405 80.59391 268.96524 81.447174 268.140418 82.001796 Q 264.71314 84.303831 260.729463 85.621058 C 257.20086 86.785408 253.524714 87.592453 249.821903 87.811102 Q 249.496596 87.830656 248.920643 87.74533" style="fill:none;stroke-width:0.50;stroke:#fddf9b;"/>
		<path stroke-opacity="0.804" vector-effect="non-scaling-stroke" d="M 233.784092 94.166143 L 233.654325 94.132368" style="fill:none;stroke-width:0.50;stroke:#6c7a76;"/>
		<path stroke-opacity="0.984" vector-effect="non-scaling-stroke" d="M 282.439703 59.121873 Q 282.014849 59.415183 282.009516 59.896921 C 282.004183 60.252448 281.908191 60.586643 281.751759 60.903062 Q 279.847913 64.737418 277.647203 68.991295 Q 277.426776 69.417927 277.057028 69.793008" style="fill:none;stroke-width:0.50;stroke:#fddf9b;"/>
		<path d="M 198.736268 11.267975 Q 200.353914 12.938951 202.179544 14.373501 Q 205.813027 17.681677 210.209115 21.357824 Q 213.867485 24.418909 215.678894 25.883679 C 217.678732 27.501326 219.65546 28.866548 221.797509 30.258436 Q 222.021491 30.405979 222.273915 30.477084 C 222.272137 30.544635 222.325466 30.642404 222.385906 30.68329 C 224.184871 31.91519 226.110048 32.878667 227.642368 34.554976 Q 233.960078 41.46286 240.260012 48.486291 Q 240.320451 48.553841 240.400445 48.507623 C 242.755809 47.124624 245.404484 46.859756 247.934056 47.855231 Q 248.550895 48.096989 249.157068 48.368967 Q 249.356163 48.457849 249.480598 48.278308 Q 255.988514 38.810631 260.043297 33.07954 Q 260.825456 31.97563 262.004027 31.214802 Q 263.724776 30.107337 265.463302 29.031868 Q 265.689061 28.973206 265.651731 28.85766 Q 266.192131 28.518132 266.744976 28.185715 Q 275.626033 22.851036 284.402211 16.458666 Q 285.641221 15.557405 286.108739 15.164548 Q 286.695358 14.675699 287.066883 14.403721 C 288.497878 13.36025 289.838214 12.169236 291.187438 11.022662 C 291.359869 10.875118 291.574962 10.754239 291.763391 10.588919 Q 294.314296 8.370432 295.23511 7.559831 Q 295.647521 7.197194 298.296195 4.71384 Q 298.669498 4.363646 299.112129 3.835689 Q 299.440991 3.44461 299.878289 3.858798 Q 300.576899 4.520078 301.239956 4.998261 C 301.401721 5.115585 301.426608 5.346678 301.293285 5.494221 C 300.107604 6.816781 298.82593 8.196224 297.519369 9.705435 Q 293.585466 14.249067 292.412228 15.537851 Q 284.025352 24.740661 275.01275 33.331964 C 274.3888 33.925694 273.556868 34.602972 272.858258 35.282028 Q 272.145427 35.811763 271.425485 36.361052 Q 270.66288 36.942338 269.976714 37.415189 Q 262.07691 42.86008 251.252898 50.166155 C 251.201347 50.201707 251.187126 50.272813 251.220901 50.326142 Q 253.071418 53.12947 252.600345 56.531861 Q 252.587901 56.629631 252.680338 56.661628 Q 256.45781 57.968189 268.583049 62.367832 C 270.238026 62.968672 271.402376 63.453966 272.396073 64.497437 Q 274.47946 66.689259 277.057028 69.793008 L 279.959904 73.218508 Q 280.002567 73.328721 280.119891 73.390938 L 300.765328 98.030718 C 300.903984 98.196038 300.848877 98.446685 300.655115 98.539121 Q 300.258703 98.729328 299.846292 99.099076 Q 299.801851 99.138184 298.59306 100.229651 C 298.498845 100.314977 298.356635 100.314977 298.26242 100.229651 Q 289.966204 92.816919 281.323349 86.056578 Q 278.877325 84.142067 275.3505 81.669378 Q 273.366661 80.110393 271.142841 79.027815 Q 269.486087 78.098112 267.847108 77.211073 Q 266.629429 76.551571 266.058809 75.988061 C 261.22009 71.209782 256.576911 66.566603 251.229789 61.093269 Q 250.639615 60.487096 250.559621 60.545758 Q 249.388161 61.413243 248.047825 61.999862 Q 247.958943 62.03897 247.962498 62.133184 L 248.920643 87.74533 Q 249.091296 91.608128 249.233507 95.470926 Q 249.238839 95.622025 249.361496 95.568696 C 249.277947 97.566756 249.436157 99.868791 249.4486 101.541545 C 249.468154 104.549301 249.621031 107.733043 249.695691 110.538149 Q 249.930339 119.492089 250.154321 128.44603 Q 250.2752 133.286526 250.307197 133.958472 Q 250.376525 135.355692 250.396079 137.446189 C 250.413855 139.223823 250.520513 140.640597 250.529401 142.101812 Q 250.548955 145.987719 250.728496 150.357142 Q 250.74805 150.849547 250.822711 151.283289 C 250.847598 151.4255 250.737385 151.555267 250.593396 151.555267 L 239.017446 151.555267 C 238.882346 151.555267 238.772132 151.445054 238.77391 151.309954 Q 238.788131 149.880736 238.866347 148.990142 C 239.00678 147.381383 238.937452 145.64108 239.00678 144.21364 C 239.140103 141.417423 239.140103 138.365226 239.237873 135.768103 C 239.310755 133.857147 239.287646 132.118621 239.388971 130.035234 Q 239.508073 127.542992 239.534737 125.048972 C 239.54007 124.465908 239.618286 123.722857 239.623619 123.12024 C 239.648506 120.750654 239.806715 118.096647 239.835157 115.949265 C 239.867155 113.657896 239.977368 111.933591 240.016476 109.976416 Q 240.053806 108.013909 240.252901 101.559321 C 240.270678 100.995811 240.364892 100.318533 240.359559 99.781687 Q 240.345338 98.137376 240.379113 96.480622 Q 240.44133 96.633498 240.425332 96.800596 Q 240.421777 96.850369 240.443108 96.811262 Q 240.448441 96.800596 240.460884 96.800596 Q 240.466217 96.800596 240.466217 96.765043 Q 240.455552 96.333078 240.483994 95.910001 Q 240.587096 93.069343 240.622649 90.226907 C 240.627982 89.649176 240.736418 88.870572 240.757749 88.214625 Q 241.333703 70.269414 241.673231 62.053191 C 241.675008 62.005195 241.646566 61.960754 241.600348 61.942978 Q 240.348894 61.466572 239.237873 60.673747 C 239.193432 60.643527 239.132992 60.650638 239.099217 60.693301 Q 238.985449 60.833734 238.187291 61.790101 Q 231.286517 70.05432 226.952646 75.229011 Q 225.784741 76.622676 223.950223 77.513271 Q 220.02343 79.418894 215.346476 82.055125 Q 215.072721 82.204446 215.02828 82.337768 Q 213.015999 83.404349 212.137848 83.918085 Q 204.309149 88.495491 196.9693 93.817726 Q 193.785558 96.126873 191.012449 98.439574 Q 191.008894 98.443129 190.777802 98.716885 Q 190.655145 98.860873 190.51649 98.876872 Q 190.42583 98.88576 190.35828 98.82532 Q 190.248067 98.729328 188.873956 97.580977 Q 188.589535 97.340996 188.513096 97.1579 Q 188.479321 97.074351 188.53265 97.001468 Q 188.817072 96.617499 189.067718 96.388185 Q 189.59212 95.910001 189.657893 95.840674 Q 197.259054 87.851988 205.009537 80.522804 Q 207.796866 77.886574 210.616193 75.328559 Q 213.860375 72.564339 217.028118 69.743234 Q 218.28846 68.61977 218.787975 68.299796 Q 219.88122 67.599408 223.418711 65.686674 Q 231.48739 61.326139 237.623781 58.156618 C 237.666444 58.133509 237.685998 58.083735 237.668222 58.039294 C 236.944725 56.208331 236.974945 54.29382 237.659334 52.436193 Q 237.691331 52.349089 237.604227 52.317091 Q 230.424365 49.670195 223.075627 46.644662 C 221.697961 46.077597 220.494503 45.457203 219.689235 44.367514 Q 217.758725 41.752615 215.06561 38.327115 Q 214.96784 38.20268 214.841628 38.12802 Q 214.806076 37.952034 214.651422 37.760049 Q 207.983518 29.430058 199.271335 18.684263 C 195.390761 13.897095 191.645287 9.051266 188.772631 5.458669 C 188.637531 5.289793 188.662418 5.046258 188.82596 4.905824 L 190.324505 3.631261 C 190.45605 3.51927 190.65159 3.531714 190.767136 3.657926 Q 190.996451 3.91035 191.179547 4.089891 Q 195.049455 7.895804 197.913223 10.500038 Q 198.341633 10.891117 198.736268 11.267975 Z" style="fill:#15394b;"/>
		<path fill-opacity="0.608" d="M 202.179544 14.373501 Q 200.353914 12.938951 198.736268 11.267975 Q 199.925504 11.43685 200.483681 12.501653 Q 200.712996 12.937173 200.938756 13.162933 Q 201.552039 13.769106 202.179544 14.373501 Z" style="fill:#fce4bc;"/>
		<path d="M 265.413528 28.978539 L 265.463302 29.031868 Q 263.724776 30.107337 262.004027 31.214802 Q 260.825456 31.97563 260.043297 33.07954 Q 255.988514 38.810631 249.480598 48.278308 Q 249.356163 48.457849 249.157068 48.368967 Q 248.550895 48.096989 247.934056 47.855231 C 245.404484 46.859756 242.755809 47.124624 240.400445 48.507623 Q 240.320451 48.553841 240.260012 48.486291 Q 233.960078 41.46286 227.642368 34.554976 C 226.110048 32.878667 224.184871 31.91519 222.385906 30.68329 C 222.325466 30.642404 222.272137 30.544635 222.273915 30.477084 Q 222.34502 30.471752 222.385906 30.434421 Q 223.729797 29.207854 225.064799 28.443472 Q 236.025689 22.175535 248.591781 23.322109 Q 256.69779 24.063382 264.012753 28.203491 Q 264.508712 28.482579 265.004672 28.958985 Q 265.068667 29.019425 265.157549 29.02298 Q 265.283761 29.030091 265.413528 28.978539 Z" style="fill:#fdd372;"/>
		<path fill-opacity="0.608" d="M 265.651731 28.85766 Q 265.689061 28.973206 265.463302 29.031868 L 265.413528 28.978539 Q 265.521964 28.896768 265.651731 28.85766 Z" style="fill:#fce4bc;"/>
		<path d="M 272.858258 35.282028 Q 273.642194 36.250839 274.367469 37.187651 Q 280.535857 45.140784 282.09662 55.116864 Q 282.331267 56.617187 282.439703 59.121873 Q 282.014849 59.415183 282.009516 59.896921 C 282.004183 60.252448 281.908191 60.586643 281.751759 60.903062 Q 279.847913 64.737418 277.647203 68.991295 Q 277.426776 69.417927 277.057028 69.793008 Q 274.47946 66.689259 272.396073 64.497437 C 271.402376 63.453966 270.238026 62.968672 268.583049 62.367832 Q 256.45781 57.968189 252.680338 56.661628 Q 252.587901 56.629631 252.600345 56.531861 Q 253.071418 53.12947 251.220901 50.326142 C 251.187126 50.272813 251.201347 50.201707 251.252898 50.166155 Q 262.07691 42.86008 269.976714 37.415189 Q 270.66288 36.942338 271.425485 36.361052 Q 272.145427 35.811763 272.858258 35.282028 Z" style="fill:#fdd372;"/>
		<path d="M 214.841628 38.12802 Q 214.96784 38.20268 215.06561 38.327115 Q 217.758725 41.752615 219.689235 44.367514 C 220.494503 45.457203 221.697961 46.077597 223.075627 46.644662 Q 230.424365 49.670195 237.604227 52.317091 Q 237.691331 52.349089 237.659334 52.436193 C 236.974945 54.29382 236.944725 56.208331 237.668222 58.039294 C 237.685998 58.083735 237.666444 58.133509 237.623781 58.156618 Q 231.48739 61.326139 223.418711 65.686674 Q 219.88122 67.599408 218.787975 68.299796 Q 218.28846 68.61977 217.028118 69.743234 Q 213.860375 72.564339 210.616193 75.328559 C 206.522303 66.452834 206.264546 56.746954 209.617163 47.617028 C 210.76907 44.48306 212.219619 41.53041 214.12702 38.80352 Q 214.414996 38.391109 214.841628 38.12802 Z" style="fill:#fdd372;"/>
		<path fill-opacity="0.969" d="M 282.439703 59.121873 Q 282.523252 64.940068 280.873608 70.48984 Q 280.519859 71.675522 280.013233 72.804319 Q 279.945683 72.957196 280.055896 73.213175 Q 280.006123 73.243395 279.959904 73.218508 L 277.057028 69.793008 Q 277.426776 69.417927 277.647203 68.991295 Q 279.847913 64.737418 281.751759 60.903062 C 281.908191 60.586643 282.004183 60.252448 282.009516 59.896921 Q 282.014849 59.415183 282.439703 59.121873 Z" style="fill:#fdebc5;"/>
		<path d="M 271.142841 79.027815 Q 271.068181 79.587769 270.584664 80.016179 C 269.93405 80.59391 268.96524 81.447174 268.140418 82.001796 Q 264.71314 84.303831 260.729463 85.621058 C 257.20086 86.785408 253.524714 87.592453 249.821903 87.811102 Q 249.496596 87.830656 248.920643 87.74533 L 247.962498 62.133184 Q 247.958943 62.03897 248.047825 61.999862 Q 249.388161 61.413243 250.559621 60.545758 Q 250.639615 60.487096 251.229789 61.093269 C 256.576911 66.566603 261.22009 71.209782 266.058809 75.988061 Q 266.629429 76.551571 267.847108 77.211073 Q 269.486087 78.098112 271.142841 79.027815 Z" style="fill:#fdd372;"/>
		<path d="M 240.483994 95.910001 Q 240.361337 95.483369 240.352449 95.060292 Q 240.304453 92.889802 240.356004 90.721089 C 240.363115 90.415336 240.2689 90.054476 240.2689 89.81094 C 240.2689 89.755834 240.244013 89.702505 240.20135 89.666952 Q 239.964925 89.469635 239.604065 89.478523 C 238.898344 89.492744 237.995307 89.551406 237.120711 89.402085 Q 232.799283 88.660811 229.761308 87.569344 Q 226.853099 86.525873 226.136713 86.229008 Q 224.3733 85.498401 220.750483 83.562558 Q 219.586133 82.940386 217.669843 81.610716 Q 217.598738 81.56272 217.513412 81.553832 L 216.843244 81.482727 C 216.825468 81.480949 216.807691 81.484504 216.791692 81.493392 Q 216.484162 81.674711 216.052197 81.790257 Q 215.957982 81.815144 215.975759 81.870251 Q 216.005978 81.957355 215.918874 81.992907 Q 215.664673 82.094233 215.346476 82.055125 Q 220.02343 79.418894 223.950223 77.513271 Q 225.784741 76.622676 226.952646 75.229011 Q 231.286517 70.05432 238.187291 61.790101 Q 238.985449 60.833734 239.099217 60.693301 C 239.132992 60.650638 239.193432 60.643527 239.237873 60.673747 Q 240.348894 61.466572 241.600348 61.942978 C 241.646566 61.960754 241.675008 62.005195 241.673231 62.053191 Q 241.333703 70.269414 240.757749 88.214625 C 240.736418 88.870572 240.627982 89.649176 240.622649 90.226907 Q 240.587096 93.069343 240.483994 95.910001 Z" style="fill:#fdd372;"/>
		<path fill-opacity="0.608" d="M 280.055896 73.213175 Q 280.111003 73.300279 280.119891 73.390938 Q 280.002567 73.328721 279.959904 73.218508 Q 280.006123 73.243395 280.055896 73.213175 Z" style="fill:#fce4bc;"/>
		<path fill-opacity="0.969" d="M 275.3505 81.669378 Q 274.532789 83.025713 273.530203 84.02652 Q 268.408841 89.138995 261.956031 92.136085 Q 259.376684 93.33421 255.06059 94.574998 C 253.213628 95.104733 251.235122 95.344714 249.468154 95.476259 Q 249.409492 95.481592 249.361496 95.568696 Q 249.238839 95.622025 249.233507 95.470926 Q 249.091296 91.608128 248.920643 87.74533 Q 249.496596 87.830656 249.821903 87.811102 C 253.524714 87.592453 257.20086 86.785408 260.729463 85.621058 Q 264.71314 84.303831 268.140418 82.001796 C 268.96524 81.447174 269.93405 80.59391 270.584664 80.016179 Q 271.068181 79.587769 271.142841 79.027815 Q 273.366661 80.110393 275.3505 81.669378 Z" style="fill:#fdebc5;"/>
		<path fill-opacity="0.608" d="M 240.483994 95.910001 Q 240.455552 96.333078 240.466217 96.765043 Q 240.466217 96.800596 240.460884 96.800596 Q 240.448441 96.800596 240.443108 96.811262 Q 240.421777 96.850369 240.425332 96.800596 Q 240.44133 96.633498 240.379113 96.480622 L 240.267122 95.851339 Q 240.260012 95.810454 240.300897 95.810454 L 240.389779 95.810454 Q 240.416444 95.810454 240.398667 95.7909 L 240.359559 95.744681 Q 240.33645 95.716239 240.30623 95.735793 Q 240.181796 95.812231 240.116024 95.627358 Q 240.085804 95.545586 239.9987 95.531365 Q 236.313665 94.941191 235.869257 94.79187 Q 234.836452 94.445231 233.784092 94.166143 L 233.654325 94.132368 C 232.530861 93.796395 231.3594 93.531527 230.308819 93.09423 C 227.313506 91.846331 224.535065 90.450888 221.866837 88.598594 Q 222.741432 88.936345 223.895117 89.714948 Q 224.887036 90.386894 226.520681 90.561102 Q 226.607785 90.571767 226.611341 90.482886 Q 226.616674 90.331787 226.46913 90.310455 Q 226.37136 90.296234 226.309143 90.221574 L 225.873623 89.704282 L 226.931315 90.351341 Q 226.933092 90.353119 226.93487 90.351341 L 226.96509 90.308678 Q 226.993532 90.266014 226.950869 90.237572 L 224.766157 88.731917 Q 224.762602 88.730139 224.759046 88.733694 L 224.728827 88.765692 Q 224.707495 88.790579 224.735937 88.81191 L 225.873623 89.704282 L 224.165317 88.499047 Q 224.145763 88.484826 224.168872 88.475937 Q 224.199092 88.467049 224.213313 88.468827 C 224.243533 88.47416 224.264864 88.438607 224.239977 88.422608 C 223.564477 87.999532 222.506785 87.400469 221.797509 86.788963 Q 220.958466 86.069021 220.908692 86.012137 Q 219.676792 84.597141 218.217355 83.432791 Q 218.199578 83.41857 218.187135 83.436346 L 218.155137 83.484342 Q 218.135584 83.511007 218.16047 83.534116 L 219.975434 85.142874 Q 220.025208 85.189093 219.989655 85.210424 L 219.989655 85.212202 Q 219.952325 85.235311 219.929216 85.21398 C 218.958628 84.300276 217.804944 83.612332 216.912572 82.607969 Q 216.885907 82.579527 216.912572 82.549307 L 216.95168 82.506644 Q 216.964123 82.490645 216.978344 82.504866 L 218.046702 83.452345 Q 218.075144 83.477232 218.100031 83.448789 L 218.144472 83.399016 Q 218.158693 83.383017 218.142694 83.368796 C 217.467193 82.709294 216.489495 81.859585 215.620232 82.751957 Q 215.536683 82.687962 215.382029 82.405318 Q 215.275371 82.209779 215.02828 82.337768 Q 215.072721 82.204446 215.346476 82.055125 Q 215.664673 82.094233 215.918874 81.992907 Q 216.005978 81.957355 215.975759 81.870251 Q 215.957982 81.815144 216.052197 81.790257 Q 216.484162 81.674711 216.791692 81.493392 C 216.807691 81.484504 216.825468 81.480949 216.843244 81.482727 L 217.513412 81.553832 Q 217.598738 81.56272 217.669843 81.610716 Q 219.586133 82.940386 220.750483 83.562558 Q 224.3733 85.498401 226.136713 86.229008 Q 226.853099 86.525873 229.761308 87.569344 Q 232.799283 88.660811 237.120711 89.402085 C 237.995307 89.551406 238.898344 89.492744 239.604065 89.478523 Q 239.964925 89.469635 240.20135 89.666952 C 240.244013 89.702505 240.2689 89.755834 240.2689 89.81094 C 240.2689 90.054476 240.363115 90.415336 240.356004 90.721089 Q 240.304453 92.889802 240.352449 95.060292 Q 240.361337 95.483369 240.483994 95.910001 Z" style="fill:#fce4bc;"/>
		<path fill-opacity="0.969" d="M 225.873623 89.704282 L 226.309143 90.221574 Q 226.37136 90.296234 226.46913 90.310455 Q 226.616674 90.331787 226.611341 90.482886 Q 226.607785 90.571767 226.520681 90.561102 Q 224.887036 90.386894 223.895117 89.714948 Q 222.741432 88.936345 221.866837 88.598594 Q 218.265351 86.170347 215.620232 82.751957 C 216.489495 81.859585 217.467193 82.709294 218.142694 83.368796 Q 218.158693 83.383017 218.144472 83.399016 L 218.100031 83.448789 Q 218.075144 83.477232 218.046702 83.452345 L 216.978344 82.504866 Q 216.964123 82.490645 216.95168 82.506644 L 216.912572 82.549307 Q 216.885907 82.579527 216.912572 82.607969 C 217.804944 83.612332 218.958628 84.300276 219.929216 85.21398 Q 219.952325 85.235311 219.989655 85.212202 L 219.989655 85.210424 Q 220.025208 85.189093 219.975434 85.142874 L 218.16047 83.534116 Q 218.135584 83.511007 218.155137 83.484342 L 218.187135 83.436346 Q 218.199578 83.41857 218.217355 83.432791 Q 219.676792 84.597141 220.908692 86.012137 Q 220.958466 86.069021 221.797509 86.788963 C 222.506785 87.400469 223.564477 87.999532 224.239977 88.422608 C 224.264864 88.438607 224.243533 88.47416 224.213313 88.468827 Q 224.199092 88.467049 224.168872 88.475937 Q 224.145763 88.484826 224.165317 88.499047 L 225.873623 89.704282 Z" style="fill:#fdebc5;"/>
		<path fill-opacity="0.969" d="M 225.873623 89.704282 L 224.735937 88.81191 Q 224.707495 88.790579 224.728827 88.765692 L 224.759046 88.733694 Q 224.762602 88.730139 224.766157 88.731917 L 226.950869 90.237572 Q 226.993532 90.266014 226.96509 90.308678 L 226.93487 90.351341 Q 226.933092 90.353119 226.931315 90.351341 L 225.873623 89.704282 Z" style="fill:#fdebc5;"/>
		<path d="M 233.784092 94.166143 Q 233.698766 94.173253 233.654325 94.132368 L 233.784092 94.166143 Z" style="fill:#15394b;"/>
	</g>
	<g id="surface4">
	</g>
</svg>
