<?xml version="1.0" encoding="utf-8"?>
<svg xmlns="http://www.w3.org/2000/svg" width="490pt" height="280pt" viewBox="0 0 490 280" version="1.1" xmlns:xlink="http://www.w3.org/1999/xlink">
	<g id="surface2">
		<path d="M 166.314794 52.2178 C 166.400987 52.181334 166.414247 52.06199 166.334685 52.012263 Q 164.83957 51.021046 163.583144 50.507204 C 163.354402 50.414381 163.182016 50.205529 162.920122 50.07624 Q 154.194756 45.743392 152.991371 45.047219 Q 151.436585 44.148825 151.108389 44.019536 Q 150.478518 43.774218 150.067445 43.383035 C 149.822127 43.150977 149.076227 42.872508 148.605482 42.597354 Q 143.470378 39.600495 138.394946 35.824586 Q 130.684003 30.092763 125.091414 22.779633 Q 124.408502 21.884553 124.096881 21.31767 C 123.626136 20.452426 122.857031 19.444633 122.495684 18.469991 C 122.08461 17.356114 121.640386 16.560488 121.544247 15.430036 Q 121.441479 14.256487 121.577399 13.692919 C 121.746469 13.003376 121.78625 12.264107 122.101186 11.737005 Q 122.813934 10.536935 123.039362 10.208739 Q 123.931126 8.909217 126.148934 7.765504 Q 126.576583 7.546707 127.116946 7.394212 C 128.15126 7.102482 129.039709 6.767656 129.938103 6.73119 Q 132.089609 6.651627 134.831204 6.661573 C 136.465553 6.668203 137.847953 6.887 139.333122 7.02955 Q 140.304449 7.122373 140.553082 7.162154 Q 146.606471 8.116906 155.580471 10.964584 Q 158.040282 11.743635 158.680098 11.979008 Q 159.014924 12.104982 163.791996 13.901771 Q 164.504744 14.170295 165.167766 14.525011 C 165.757856 14.839947 166.384411 14.95266 167.067324 15.264281 Q 176.896622 19.742993 183.192014 23.386298 Q 184.61088 24.205129 184.627456 24.21176 C 185.688291 24.689135 186.328107 25.226183 187.448614 25.809642 C 188.655313 26.439513 189.898479 27.387634 190.906272 27.901476 C 192.384811 28.657321 193.362768 29.456262 195.007062 30.424274 Q 196.077842 31.050829 196.77733 31.584562 C 197.546435 32.171336 198.298965 32.469696 199.167524 33.102882 Q 200.808503 34.302951 203.029626 35.711873 Q 203.619715 36.089795 204.667289 36.888736 C 205.393298 37.442359 206.241966 37.92305 206.901673 38.410371 Q 209.364799 40.230366 210.886434 41.350873 C 211.138382 41.536519 211.489784 41.626027 211.758308 41.838194 C 214.065623 43.69134 216.604997 45.325689 219.031657 47.221931 C 220.20852 48.140216 221.42848 48.753511 222.701482 49.714893 Q 223.470587 50.298352 225.21102 51.329351 Q 226.251964 51.949276 227.846531 52.98359 Q 227.992396 53.079728 228.154836 53.006796 Q 228.436621 52.884137 228.539389 52.51616 Q 228.582485 52.36035 228.695199 52.247636 Q 230.661059 50.222105 231.032351 49.907169 Q 231.76499 49.293874 233.313146 48.461782 Q 234.098827 48.040763 234.387241 48.09712 Q 234.562942 48.130271 234.655765 47.981091 C 234.844726 47.679416 234.682286 47.304809 234.34746 47.152314 Q 233.037992 46.57217 231.522987 45.36547 Q 227.481869 42.136554 228.357058 37.021341 Q 228.476402 36.335113 229.053231 35.280908 C 230.230095 33.136033 232.600398 31.461903 234.848041 30.62318 Q 235.471282 30.391123 236.817216 29.86402 C 237.616157 29.549085 238.186356 29.568976 238.925625 29.54577 Q 239.36322 29.529194 239.167628 29.138012 Q 237.894627 26.625159 236.044796 24.238281 Q 231.546193 18.43021 225.416556 14.48523 Q 225.022058 14.229967 223.947963 13.636562 C 223.172228 13.208913 222.691537 12.821045 221.982104 12.545891 Q 221.024037 12.174599 219.943312 11.601085 Q 219.44936 11.339192 217.566378 10.904912 Q 216.419351 10.639704 215.129773 10.84524 Q 212.792622 11.219848 212.182641 11.339192 Q 212.073243 11.362397 210.478675 11.866294 Q 209.749351 12.098352 208.665311 12.068516 C 208.161414 12.055255 208.052016 11.783416 207.634312 11.617661 Q 207.41883 11.534783 207.26965 11.27952 Q 206.875152 10.616498 206.686191 10.304878 Q 206.427612 9.873913 206.560217 9.240728 C 207.153621 6.399679 209.523924 6.959933 211.748362 7.221826 C 213.167229 7.390897 215.056841 7.321279 216.147512 7.354431 Q 217.248128 7.387582 218.302333 7.712462 Q 220.20852 8.305867 220.367645 8.342333 Q 221.27267 8.571076 221.945637 9.028561 C 222.495945 9.403168 223.434121 9.529142 224.077252 9.989942 C 224.988907 10.646334 226.179031 11.13697 227.249812 11.8895 Q 230.896432 14.462024 231.678797 15.121731 Q 236.976341 19.580552 240.367698 25.627311 Q 240.642852 26.114632 241.448423 27.927997 Q 241.518041 28.083807 241.51141 28.252877 Q 241.488205 28.697102 241.886018 28.677211 Q 244.146922 28.564498 248.986981 28.607594 Q 249.146106 28.610909 249.142791 28.448469 Q 249.132846 27.937942 249.331752 27.599801 Q 249.696414 26.96993 249.729566 26.887053 C 249.974884 26.214085 250.17379 25.617366 250.62133 25.017331 Q 251.274406 24.135512 251.798193 23.174131 Q 251.934113 22.922182 252.358447 22.414971 C 252.650176 22.060254 252.75626 21.549727 253.024784 21.311039 Q 253.618188 20.783937 253.956329 20.180587 C 254.224853 19.703211 254.775161 19.510935 255.133193 18.953997 Q 255.272428 18.7352 255.564157 18.420264 Q 258.322328 15.449927 261.915906 12.844251 Q 262.678381 12.290628 263.222059 12.002213 C 263.845299 11.674018 264.342566 11.206587 264.955861 10.861816 C 266.364782 10.069505 267.183614 9.529142 267.81017 9.366702 C 267.916253 9.340181 268.015707 9.297084 268.101899 9.234097 C 268.771551 8.766667 269.318544 8.769982 269.928524 8.415265 Q 270.551765 8.053919 271.46342 8.000877 Q 271.579449 7.994247 271.78167 7.825176 Q 271.914275 7.715777 272.08666 7.715777 C 272.772888 7.712462 273.353032 7.371006 274.158603 7.374321 Q 277.821799 7.384267 278.491451 7.274868 Q 280.463941 6.946672 281.66401 6.999714 C 282.748051 7.046125 283.062986 7.540077 283.702802 8.239565 Q 284.024368 8.590966 284.077409 9.124699 C 284.23985 10.792199 283.341455 12.071831 281.581132 12.098352 Q 280.752355 12.111612 280.009771 11.803307 Q 279.031814 11.398864 278.534547 11.332561 Q 278.517972 11.329246 276.184135 10.941378 Q 274.440388 10.649649 273.366292 10.82535 C 271.121964 11.190012 269.308599 12.0652 267.123942 13.152556 Q 266.484126 13.474122 262.648545 16.202456 Q 261.561189 16.978192 260.65285 17.889847 C 259.820757 18.725254 258.909102 19.381646 258.080325 20.263465 Q 255.275743 23.250378 254.616036 24.102361 Q 252.809302 26.439513 251.466683 29.081655 Q 251.214734 29.582236 251.774988 29.565661 Q 252.759575 29.535825 253.840301 29.820924 Q 254.261319 29.933638 255.325469 30.407698 C 256.011697 30.712688 256.694609 30.832032 257.321165 31.246421 C 259.041707 32.376873 260.294818 33.189075 261.388804 34.810163 Q 262.19106 36.000287 262.423118 37.402578 Q 263.096085 41.496738 259.986513 44.536693 Q 258.319013 46.167726 255.995121 47.354535 Q 255.683501 47.51366 255.819421 47.95457 Q 255.865832 48.107065 256.028273 48.107065 Q 256.140986 48.107065 256.532169 48.276136 Q 259.777661 49.678427 262.091607 52.68523 C 262.230841 52.864246 262.479475 52.913973 262.678381 52.801259 Q 264.730434 51.631026 266.30511 50.590082 Q 266.308425 50.586766 267.226711 49.900539 C 267.647729 49.588919 268.11516 49.390012 268.536179 49.078392 Q 271.499886 46.89042 273.883449 45.275962 Q 275.166397 44.400773 276.436083 43.359829 C 276.833896 43.031633 277.268176 42.842672 277.639468 42.564203 Q 279.558916 41.112185 285.191286 37.200357 Q 285.204546 37.190411 285.837732 36.650048 C 286.205709 36.335113 286.689715 36.245605 287.047747 35.993657 Q 287.840058 35.433403 288.387051 35.012385 C 288.8147 34.684189 289.285446 34.611256 289.636847 34.230019 C 290.144059 33.679711 290.853492 33.553737 291.364019 33.162554 Q 293.048094 31.872976 295.627249 30.367917 C 295.882512 30.218737 296.081419 29.966789 296.300216 29.854075 Q 297.881523 29.058449 299.310335 28.010874 Q 299.393213 27.951203 299.588804 27.918051 Q 299.751245 27.888215 299.873904 27.778817 Q 300.586652 27.142316 300.785559 27.085959 Q 301.557979 26.873792 302.197795 26.432883 Q 303.132656 25.789751 303.484057 25.614051 Q 304.856512 24.914563 305.744962 24.284692 C 306.238913 23.936606 306.703028 23.996278 307.160513 23.485751 Q 307.273227 23.359777 307.432352 23.31668 Q 307.9694 23.174131 308.516393 22.763057 Q 308.652312 22.660289 308.821383 22.643713 Q 309.192675 22.600617 309.537446 22.176283 Q 309.64353 22.043678 309.796025 21.980691 C 310.684474 21.609399 311.264618 21.340875 312.09008 20.836979 Q 312.716636 20.452426 313.300095 20.293301 C 314.019473 20.101025 314.901292 19.212575 315.856044 18.937421 C 316.790905 18.665582 317.364418 18.005876 318.309224 17.710831 Q 319.257346 17.419101 320.046342 16.882054 C 320.46073 16.600269 321.040874 16.520707 321.432057 16.325115 Q 323.709537 15.197978 326.089785 14.316159 C 326.421296 14.1935 326.822424 13.865305 327.110839 13.792372 Q 327.853423 13.600096 329.388319 12.930444 Q 331.082339 12.187859 337.364471 10.268411 Q 343.590245 8.365539 348.957407 7.377636 Q 353.416228 6.552174 358.660731 6.638367 Q 362.817877 6.704669 365.854517 8.667214 Q 366.411455 9.028561 367.817062 10.735842 Q 368.145257 11.133655 368.23145 11.617661 Q 368.287807 11.935911 368.486714 12.234271 C 368.97735 12.96028 368.980665 15.486393 368.642524 16.345006 C 368.460193 16.805806 368.526495 17.190359 368.274547 17.734037 Q 366.776117 20.972898 365.463334 22.736536 Q 359.903897 30.182271 350.936527 36.603637 Q 350.376273 37.004765 350.336492 37.047862 Q 350.130955 37.276604 349.743088 37.508662 Q 348.198247 38.426947 347.333003 39.007091 Q 345.662188 40.134228 344.9627 40.558562 C 343.371448 41.526574 341.995678 42.461434 340.593387 43.091305 C 339.867378 43.416186 339.277289 43.976439 338.597691 44.254908 Q 337.79212 44.583104 337.231866 44.931191 Q 336.078208 45.647254 332.905649 47.198725 Q 331.287876 47.987721 325.62567 50.938168 Q 325.493066 51.007785 325.075362 51.332666 Q 324.946073 51.435434 324.786947 51.461955 Q 324.316202 51.534888 324.054308 51.75037 C 323.871977 51.902865 323.928334 52.197909 324.157077 52.267527 C 324.816783 52.469748 325.416818 52.357035 326.126251 52.648764 Q 328.20151 53.494117 328.66894 53.756011 Q 330.319864 54.687556 331.294506 56.189301 Q 332.206161 57.598222 332.129914 59.441423 Q 331.993994 62.733326 329.202673 65.050587 C 328.65568 65.504757 327.558378 66.452878 326.610257 66.930254 Q 325.224542 67.629742 324.167022 67.994404 Q 320.865173 69.144746 317.072689 69.343653 Q 312.564141 69.582341 307.959454 68.93921 Q 304.601249 68.471779 303.358083 68.296079 Q 301.044137 67.971198 298.779918 67.490507 Q 292.179536 66.091531 286.043269 64.225125 C 284.156972 63.651611 282.671803 63.068152 280.619751 62.448226 Q 280.331336 62.362033 279.479353 62.027207 Q 276.787485 60.969688 274.563047 59.812715 C 274.34425 59.700001 274.088986 59.683425 273.860244 59.769618 L 268.831223 61.6526 C 268.509658 61.771944 268.168202 61.523311 268.184777 61.17854 L 268.317381 58.60933 Q 268.327327 58.410424 268.512973 58.334176 Q 270.647903 57.455672 273.376238 56.447879 Q 275.521113 55.655568 277.079214 54.94282 Q 280.3015 53.464281 280.705944 53.255429 C 281.153483 53.030002 281.700476 52.536051 282.237524 52.254266 Q 283.437593 51.627711 284.458647 50.788988 Q 284.892926 50.434271 285.250958 50.450847 Q 285.655401 50.474053 286.003488 50.682905 Q 286.146037 50.765782 286.308478 50.765782 Q 287.508547 50.772413 288.701986 50.802249 C 289.355063 50.818824 289.945152 51.163595 290.565078 51.137075 Q 292.335346 51.064142 293.353084 51.249788 C 295.047105 51.561409 296.625097 51.372447 298.401995 51.667492 C 298.720246 51.723849 299.237403 51.640971 299.505926 51.243158 C 299.91037 50.646438 300.719256 50.019883 301.319291 49.31708 Q 303.616662 46.635157 305.105146 45.040589 Q 305.383615 44.745545 305.628933 44.344416 C 305.953813 43.810684 306.437819 43.611777 306.74944 43.107881 Q 306.978182 42.739904 307.286487 42.577463 C 307.501969 42.46475 307.631259 42.236007 307.624628 41.994004 L 307.432352 36.016863 C 307.429037 35.910779 307.316323 35.844477 307.220185 35.890888 Q 304.79684 37.110849 300.119222 39.063448 Q 299.1711 39.457946 299.045126 39.527563 Q 297.93788 40.127598 297.374311 40.316559 Q 296.489177 40.618234 295.703497 41.069089 C 294.88798 41.536519 294.009476 41.801728 293.107766 42.252583 Q 291.304347 43.154292 287.193612 45.024014 Q 286.460973 45.35884 286.38141 45.401936 C 285.748224 45.750023 285.088518 45.902518 284.478538 46.263864 Q 283.908339 46.59869 283.421018 46.804227 C 281.06729 47.79876 278.01076 49.17453 275.27248 50.301667 Q 270.160582 52.410076 267.253231 53.689708 Q 267.100736 53.756011 264.819941 54.912984 Q 264.282894 55.184823 263.752476 55.314112 C 263.530364 55.370469 263.377869 55.576005 263.387814 55.808063 C 263.427596 56.726348 263.381184 57.183833 263.603296 57.959569 Q 263.785627 58.599385 263.699435 60.018251 Q 263.440856 64.317948 260.722467 67.749086 Q 258.106846 71.047619 255.537636 73.341674 Q 252.802672 75.781595 249.941732 77.177255 Q 249.119585 77.578384 247.515073 78.025923 Q 246.046479 78.436997 244.99559 78.38064 Q 243.049621 78.274556 241.097022 77.376162 Q 240.626276 77.16068 239.396371 76.477767 Q 238.44162 75.94735 237.811749 75.473289 Q 233.014786 71.85319 229.550497 67.44078 Q 227.571377 64.921298 226.997863 61.679121 Q 226.848683 60.823823 226.994548 56.915309 C 227.014439 56.451194 227.200085 56.139574 227.160304 55.784857 Q 227.140413 55.612472 226.977973 55.542854 Q 225.578997 54.952765 223.974484 54.226756 Q 223.596562 54.05437 222.108078 53.464281 Q 221.080394 53.056523 220.864912 52.930549 C 219.810707 52.297363 218.696831 52.028839 217.500076 51.395653 Q 217.039276 51.150335 215.391667 50.540355 Q 214.857934 50.341448 214.509848 50.086185 C 214.11535 49.801086 213.704276 49.844182 213.243476 49.632015 Q 210.800241 48.511508 209.775872 48.150161 C 208.675256 47.762294 207.528228 47.072751 206.414352 46.631842 Q 205.797742 46.389839 205.542478 46.184302 C 205.197707 45.902518 204.717016 45.846161 204.339094 45.66383 Q 198.998453 43.07473 197.533175 42.444859 Q 190.014508 39.205997 182.777625 35.870998 C 182.63176 35.804696 182.46932 35.917409 182.48258 36.076535 Q 182.578718 37.120794 182.439484 38.07223 Q 182.127864 40.230366 182.267098 41.771892 Q 182.296934 42.080197 182.76768 42.613929 Q 187.624314 48.146846 190.498514 51.349242 C 190.591337 51.45201 190.723941 51.511682 190.863176 51.508367 Q 193.598141 51.478531 195.905456 51.256418 Q 197.589532 51.090663 199.465884 51.110554 C 200.360963 51.117184 201.222891 50.745892 202.051668 50.765782 Q 203.676072 50.805564 205.164556 50.570191 C 205.628671 50.497259 206.069581 50.646438 206.474024 50.99121 C 208.240977 52.502899 210.515142 53.716229 212.424644 54.574843 Q 212.484316 54.601363 214.344093 55.486498 Q 215.49112 56.030175 216.329843 56.248973 Q 217.026016 56.431304 217.871368 56.895419 C 218.408416 57.193779 219.353222 57.386055 219.976463 57.707621 Q 221.2793 58.377273 222.436273 58.702153 Q 223.009787 58.861278 222.9468 59.451368 L 222.737948 61.34761 Q 222.671646 61.96422 222.094817 61.742108 L 217.205032 59.875702 Q 216.671299 59.67348 216.140882 59.875702 Q 214.86125 60.363023 211.582607 61.702327 Q 210.057657 62.322252 206.420982 63.499116 Q 198.424939 66.078271 189.126059 67.861799 Q 186.444136 68.375641 182.790885 68.906059 Q 178.461353 69.532614 173.896448 69.370174 C 172.636707 69.327077 171.526145 69.018772 170.352597 69.041978 Q 170.157005 69.045293 170.00451 68.929264 L 169.891797 68.843072 C 169.818864 68.786715 169.726041 68.753564 169.633218 68.753564 Q 169.063019 68.753564 168.313805 68.564602 Q 164.640664 67.633057 161.975316 65.401988 C 161.232732 64.782063 160.533244 63.857148 160.072444 63.316785 Q 159.64811 62.816203 159.522136 62.431651 C 159.369641 61.967536 159.087856 61.649285 158.928731 61.152019 Q 158.640317 60.253624 158.613796 58.688893 Q 158.59059 57.478878 159.270187 56.384892 C 160.214993 54.859942 161.617285 53.702969 163.337826 53.066468 Q 164.421867 52.66534 164.448388 52.648764 C 164.98212 52.323884 165.681608 52.483009 166.314794 52.2178 Z M 154.880983 20.624812 C 155.225754 20.71432 155.467757 20.949692 155.742911 21.009364 Q 156.432454 21.158544 159.843701 22.441491 Q 162.863766 23.575259 163.278154 23.787426 C 164.096986 24.201814 165.048422 24.321158 165.761171 24.778643 Q 166.50044 25.249389 167.508233 25.501337 Q 167.680619 25.544433 169.517189 26.369896 Q 174.990434 28.829706 180.307869 31.498369 Q 180.549872 31.617713 180.785245 31.733742 Q 183.967749 33.288528 186.672878 34.651038 Q 188.602271 35.62568 197.463558 39.385013 Q 197.768548 39.514303 198.166361 39.696634 Q 201.514621 41.231529 205.539163 43.150977 C 206.19887 43.465912 207.090634 44.069262 207.932672 44.360992 Q 207.985714 44.380883 208.012234 44.370937 Q 208.038755 44.360992 208.105057 44.337786 Q 208.240977 44.298005 208.124948 44.215127 Q 204.929183 41.980744 201.773199 39.690003 Q 197.609422 36.663309 188.645368 31.130392 Q 188.356953 30.948061 187.415462 30.351341 Q 184.793211 28.677211 179.555339 25.839478 C 179.157526 25.623996 178.653629 25.461556 178.172939 25.12673 C 177.274544 24.506804 176.130832 24.138827 175.444604 23.671397 C 174.635717 23.117774 173.734008 22.889031 172.858819 22.348668 C 172.079768 21.871293 170.972522 21.536467 170.292925 21.115448 C 169.242035 20.459056 168.240872 20.243574 167.25297 19.607073 Q 166.818691 19.325289 165.29374 18.788241 C 164.66387 18.566129 164.189809 18.158371 163.556623 17.962779 Q 162.790833 17.720776 160.967523 16.891999 C 160.075759 16.487556 158.955252 16.248868 157.867896 15.778122 C 156.631361 15.241075 155.119671 14.975866 153.985904 14.501805 C 152.550462 13.905086 151.662012 13.775797 150.405586 13.374668 Q 149.367957 13.039842 149.348066 13.036527 Q 142.174171 11.276204 141.166377 11.146915 Q 138.431413 10.792199 135.689817 10.470633 Q 134.831204 10.367865 131.562507 10.410961 C 130.627646 10.424221 129.97457 10.643019 128.960146 10.848555 Q 127.140151 11.213217 125.969918 12.8111 Q 125.761066 13.092884 125.611886 14.541587 C 125.545584 15.188033 125.883725 15.449927 125.877095 16.089743 Q 125.87378 16.285334 126.069371 16.305225 Q 126.268278 16.325115 126.513596 16.16599 C 126.606419 16.106318 126.705872 16.063222 126.811956 16.033386 Q 128.860693 15.519544 131.8244 15.652148 Q 136.392621 15.861 139.488932 16.467665 Q 144.186442 17.38595 149.434259 18.907585 Q 150.760303 19.295453 152.149333 19.779459 Q 153.548309 20.27341 154.880983 20.624812 Z M 297.536752 37.187096 Q 297.702507 37.160575 297.80196 37.117479 Q 300.434157 35.960506 303.069669 34.816793 Q 305.191338 33.895193 308.27439 32.393449 Q 319.860695 26.754448 321.670745 25.952192 Q 322.963637 25.375363 323.305094 25.216238 Q 324.445491 24.68582 326.076525 24.079155 Q 327.468871 23.565313 328.847956 22.978539 Q 331.334288 21.924334 333.741057 21.18175 C 334.128924 21.062406 334.556573 20.813773 334.967647 20.701059 Q 335.816315 20.469002 335.842836 20.462371 Q 340.878486 18.818077 342.781359 18.363907 Q 343.371448 18.224673 343.706274 18.121904 Q 344.432283 17.896477 344.435598 17.893162 Q 347.130782 17.243401 349.832596 16.62016 Q 351.622754 16.209087 353.727849 16.020125 Q 356.926929 15.728396 357.626417 15.675354 Q 360.981307 15.416776 364.097509 16.175936 Q 364.674338 16.31517 364.777107 15.728396 C 365.151714 13.610041 364.545049 12.35693 362.728369 11.252999 Q 362.055402 10.841925 359.678469 10.464003 Q 358.362371 10.255151 354.344459 10.483893 Q 354.337829 10.483893 353.814041 10.550196 Q 350.790662 10.938063 349.34859 11.196642 Q 343.298516 12.280682 337.838531 14.0178 Q 334.775371 14.992442 333.117816 15.595791 Q 327.279909 17.724091 320.61654 20.906596 Q 314.619508 23.77085 308.194827 27.390949 Q 308.035702 27.480457 307.38594 27.888215 C 306.689768 28.322495 305.920662 28.564498 305.313997 29.038558 Q 304.962596 29.313712 303.739321 29.973419 Q 302.81772 30.470685 302.167959 30.895019 Q 300.643009 31.892867 300.192154 32.12161 C 299.177731 32.642082 298.527969 33.248747 297.612999 33.726122 Q 295.746593 34.697449 294.984118 35.380362 C 294.304521 35.987027 293.492319 36.351689 292.825982 36.805859 Q 288.549491 39.709894 285.725019 41.864715 C 285.085203 42.352036 284.38903 42.557573 283.944805 43.028318 C 283.440908 43.565366 282.562405 43.886931 281.896068 44.354362 Q 281.856286 44.380883 281.843026 44.420664 Q 281.823135 44.47039 281.829766 44.510172 Q 281.846341 44.616255 281.945794 44.576474 Q 283.228742 44.052687 283.875188 43.608462 C 284.478538 43.190758 285.217807 43.021688 285.900719 42.62056 C 287.704139 41.566355 289.693204 40.691166 291.310977 39.998308 Q 294.354247 38.68884 297.288119 37.256713 Q 297.374311 37.213617 297.536752 37.187096 Z M 167.352423 42.686862 Q 166.371151 40.890073 163.732324 36.600322 Q 163.148865 35.652201 162.810724 35.194716 Q 162.402965 34.651038 161.766464 33.65319 Q 161.216156 32.791262 160.161952 32.658657 Q 148.519289 31.200009 140.682372 30.513782 Q 140.476835 30.493891 140.423793 30.2983 L 137.337427 19.149588 C 137.314221 19.066711 137.244604 19.007039 137.161726 18.997093 Q 132.58356 18.453415 127.796543 18.794872 C 127.630788 18.804817 127.501498 18.944051 127.508129 19.109807 Q 127.514759 19.36507 127.753447 19.547401 Q 127.915887 19.673375 128.075012 19.912063 Q 129.265136 21.692277 130.723784 23.349831 Q 134.420131 27.546759 138.845801 31.07072 C 141.822769 33.437708 144.093619 35.31406 146.951243 37.004765 Q 147.756814 37.482141 148.582276 38.012558 Q 149.815497 38.801554 150.20668 39.026982 Q 153.25658 40.777359 155.978284 42.295679 Q 156.588264 42.637135 157.022544 42.829412 C 157.970665 43.253745 158.527603 43.757642 159.508875 44.172031 C 160.357543 44.533378 161.03714 45.05385 161.922275 45.517965 Q 165.190972 47.228561 168.313805 49.184475 C 168.678467 49.413218 169.188993 49.519301 169.467463 49.744729 C 170.253143 50.38123 171.652119 51.425489 172.676488 51.405598 Q 176.787223 51.329351 179.475777 51.577984 C 182.485895 51.856453 184.342356 51.77026 188.075169 51.77026 C 188.201143 51.77026 188.267445 51.62108 188.184568 51.524942 C 186.931457 50.099445 185.801004 48.949103 184.594305 47.497085 Q 182.877078 45.438402 181.577556 43.979754 C 181.173112 43.525584 180.602914 42.962016 179.903426 42.852617 Q 173.541731 41.844824 167.690564 42.849302 Q 167.465137 42.889083 167.352423 42.686862 Z M 322.380178 42.779685 C 319.353484 42.292364 316.492545 42.17302 313.376342 42.521106 Q 310.084439 42.892399 310.024767 42.899029 Q 309.328594 42.981907 308.887685 43.472543 Q 306.132829 46.522443 303.636552 49.416533 Q 302.738158 50.454162 301.942532 51.193431 Q 301.27951 51.806727 302.184535 51.793466 Q 304.014475 51.766945 309.79271 51.760315 C 310.704365 51.760315 311.576238 51.475216 312.4017 51.45864 Q 315.130035 51.402283 317.795383 51.418859 C 317.994289 51.418859 318.189881 51.362502 318.362266 51.256418 C 319.350169 50.636493 320.092753 49.943635 321.127067 49.496096 C 322.015516 49.111543 322.545934 48.478357 323.311724 48.183312 Q 323.905128 47.957885 325.042211 47.235191 Q 325.711863 46.814172 326.749492 46.260549 Q 328.284387 45.441717 328.566172 45.266017 C 328.731927 45.166563 328.897682 45.146673 329.040232 45.05385 Q 330.170684 44.30132 331.128751 43.926713 Q 331.589551 43.744382 332.070242 43.323363 Q 332.292354 43.127771 333.117816 42.836042 Q 333.601822 42.666971 334.271474 42.182965 C 335.090306 41.589561 336.12462 41.374079 336.860574 40.81051 C 337.583268 40.253572 338.345743 40.04472 339.210986 39.487782 Q 341.021036 38.314233 342.907333 37.263344 C 343.41123 36.984874 344.007949 36.524074 344.63782 36.136207 Q 347.581637 34.326157 350.525453 31.906128 Q 350.754196 31.720481 351.682426 30.994473 Q 356.890463 26.926834 361.415586 21.304409 C 361.869756 20.740841 362.260939 19.895488 362.867604 19.262302 C 363.036675 19.086601 362.923961 18.791556 362.678643 18.774981 Q 357.911516 18.483251 353.107923 18.950682 C 352.87255 18.973887 352.686904 19.169479 352.680274 19.404852 Q 352.663699 19.988311 352.448217 20.601606 Q 351.8084 22.424916 351.6327 23.290159 Q 351.427163 24.291322 351.218311 25.017331 C 350.946472 25.952192 350.760826 26.761078 350.445891 27.825228 Q 350.256929 28.451784 350.183997 29.24741 Q 350.044763 30.692798 348.546333 30.62318 C 347.326373 30.570139 346.129619 30.835347 345.330678 30.90828 C 343.41123 31.087296 341.183476 31.425437 339.065122 31.604453 C 336.7346 31.803359 334.44386 32.191227 332.053666 32.44649 C 331.330972 32.522738 330.379536 32.804522 329.544129 32.807837 C 328.881107 32.807837 328.67557 33.096252 328.277757 33.613409 Q 327.319691 34.849944 326.464393 36.295332 C 325.227857 38.387166 323.95154 40.459109 322.89402 42.521106 C 322.797882 42.710068 322.58903 42.812836 322.380178 42.779685 Z M 348.7585 26.310224 Q 348.854638 26.21077 348.881159 26.177619 Q 348.947461 26.094742 348.954092 26.008549 Q 349.027024 25.130045 349.36185 24.427242 C 349.587277 23.956496 349.514345 23.382982 349.683416 22.9918 Q 349.918788 22.448122 349.945309 21.93428 Q 349.985091 21.201641 350.595071 19.756253 C 350.687894 19.534141 350.485672 19.305398 350.256929 19.371701 Q 347.561746 20.144121 345.314102 20.674538 C 344.054361 20.969583 342.489629 21.625975 341.246463 21.858032 C 339.814336 22.123241 338.435251 22.782948 336.936822 23.157555 C 335.872672 23.419449 334.523422 23.999593 333.714536 24.268116 Q 332.332135 24.728917 331.314397 25.14662 Q 329.630322 25.832848 327.906465 26.426252 C 327.419144 26.592008 326.84563 26.979876 326.136197 27.029602 C 325.947236 27.042863 325.851097 27.26166 325.970441 27.407525 L 328.433567 30.470685 Q 328.718667 30.825402 329.169521 30.77236 L 348.068958 28.581073 Q 348.244658 28.561183 348.281125 28.388797 L 348.735294 26.35332 C 348.73861 26.336744 348.748555 26.323484 348.7585 26.310224 Z M 161.749889 30.590029 L 164.189809 27.434046 C 164.309153 27.281551 164.219645 27.059438 164.027369 27.029602 Q 163.327881 26.920204 162.757682 26.674886 Q 159.565232 25.30243 157.301013 24.573107 Q 155.85231 24.105676 155.786008 24.07584 C 154.188125 23.402873 152.576982 23.051471 150.717206 22.365244 Q 150.697316 22.355299 148.877321 21.917704 C 148.217614 21.758579 147.465084 21.390602 146.70924 21.31767 C 146.361153 21.284518 146.085999 21.072351 145.737913 20.979528 Q 144.368773 20.614866 141.786303 19.849076 C 141.143172 19.6568 140.413848 19.646855 139.750826 19.461208 C 139.58507 19.414797 139.439206 19.577237 139.498878 19.736363 Q 139.807183 20.555194 140.264668 21.980691 Q 140.48678 22.670234 140.868018 24.274747 Q 141.126596 25.372048 141.613917 26.80749 C 141.766412 27.26166 141.749837 27.752296 141.826084 28.18326 C 141.872496 28.441839 142.084663 28.640745 142.346556 28.670581 L 161.405118 30.735894 Q 161.617285 30.7591 161.749889 30.590029 Z M 180.811765 34.856574 C 180.818396 34.760436 180.745463 34.674243 180.649325 34.657668 Q 180.105647 34.57479 179.634902 34.336102 Q 173.230111 31.093926 166.623099 28.18326 C 166.367836 28.070546 166.069476 28.146794 165.89709 28.368906 L 163.079248 32.012211 Q 162.959904 32.164706 163.029521 32.347037 Q 163.185331 32.764741 163.692543 33.142663 Q 163.828462 33.242116 163.901395 33.394611 Q 164.408606 34.462077 164.809734 35.055481 Q 166.616469 37.730774 168.403313 40.551932 C 168.529287 40.754153 168.77129 40.853607 169.006662 40.800565 C 170.634381 40.442533 172.58698 40.502205 175.577208 40.558562 C 177.065692 40.588398 178.554176 40.883443 180.168634 40.976266 C 180.350965 40.986211 180.50346 40.846976 180.513406 40.66796 L 180.811765 34.856574 Z M 323.470849 28.259508 Q 321.929323 28.789925 320.855228 29.399905 C 320.049657 29.860705 319.313702 29.943583 318.392102 30.497206 C 317.450611 31.060775 316.376516 31.276257 315.524533 31.912758 Q 315.057103 32.260844 314.029419 32.58904 C 313.479111 32.761426 313.014995 33.165869 312.564141 33.36146 Q 310.455731 34.27643 309.573912 34.793587 C 309.348485 34.922877 309.215881 35.168195 309.222511 35.430088 L 309.394897 40.813825 Q 309.401527 41.039253 309.626954 41.025992 C 311.516566 40.936484 313.585194 40.558562 315.355462 40.535356 Q 318.693777 40.488945 321.66743 40.66796 C 321.740362 40.671276 321.80998 40.634809 321.846446 40.571822 Q 322.297301 39.766251 323.603453 37.574964 Q 324.057623 36.812489 325.002429 35.403567 Q 325.92403 34.031112 326.3782 33.222226 C 326.640093 32.758111 327.369417 32.380188 326.835685 31.68733 C 325.977072 30.580084 325.174815 29.300452 324.104035 28.378852 C 323.928334 28.229672 323.689646 28.18326 323.470849 28.259508 Z M 203.483796 60.42601 Q 207.176827 59.381751 212.162751 57.624743 Q 212.573824 57.482193 212.162751 57.336328 Q 208.592378 56.076587 205.933661 54.104097 C 205.45297 53.746065 205.326996 53.497432 204.663974 53.477541 Q 202.926857 53.427815 201.375386 53.649927 C 200.019507 53.842203 199.071386 53.752696 197.937618 53.958232 Q 197.516599 54.03448 195.806003 54.170399 Q 194.566152 54.269853 193.681018 54.392512 C 191.274249 54.733968 188.347008 54.820161 185.442973 54.816846 Q 174.194808 54.79364 172.421225 54.8069 C 171.015618 54.81353 169.812234 55.148356 168.47293 55.138411 Q 167.87621 55.135096 166.984446 55.433456 C 165.389879 55.967188 163.9246 56.451194 162.920122 57.803759 C 162.465952 58.417054 162.668174 58.960732 162.635023 59.583972 C 162.588611 60.518833 164.017423 62.013947 164.614143 62.468117 Q 167.985609 65.037326 172.285305 65.335686 Q 176.916512 65.657252 180.785245 65.209712 Q 181.849395 65.083738 182.117918 65.070478 Q 182.983162 65.020751 183.437332 64.917983 Q 184.61751 64.642828 188.293966 64.036164 Q 190.98252 63.591939 192.842296 63.160975 Q 194.599304 62.756531 197.364104 62.10677 C 197.745342 62.017262 198.093428 61.80178 198.517762 61.732163 C 199.860381 61.506735 201.289193 61.059196 201.965476 60.850344 C 202.24726 60.764151 202.608607 60.787357 202.890391 60.668013 Q 203.450644 60.43264 203.483796 60.42601 Z M 278.249448 57.664524 Q 284.475222 59.719892 289.563915 61.228266 Q 292.643651 62.139921 300.881697 63.949971 C 301.309346 64.042794 301.836448 63.996382 302.267412 64.102466 C 303.762526 64.460497 305.300737 64.606362 306.676507 64.908037 C 307.485394 65.087053 308.393734 64.984285 309.086591 65.103629 C 310.793872 65.405304 312.305562 65.365522 314.036049 65.511387 C 315.305736 65.61747 316.681506 65.388728 317.802013 65.372152 C 319.973409 65.342316 322.124915 64.666034 324.127241 63.814051 Q 324.654343 63.591939 325.135034 63.210701 C 325.698602 62.763162 326.467708 62.491323 326.85226 61.931069 C 327.326321 61.234896 328.022494 60.774096 328.174989 59.945319 C 328.712036 57.041284 325.745014 56.066642 323.570302 55.446716 Q 322.453111 55.125151 321.607758 55.10526 C 320.464045 55.075424 319.436362 54.823476 318.179935 54.816846 Q 316.021799 54.8069 303.205588 54.8069 Q 300.21536 54.803585 298.736821 54.568212 C 297.961086 54.445553 297.069321 54.528431 296.290271 54.425663 C 293.664705 54.080891 291.049084 53.875355 288.609163 53.567049 C 287.730659 53.457651 287.034487 53.474226 285.960391 53.447706 C 285.015585 53.427815 284.206699 54.409087 283.48732 54.81353 Q 281.547981 55.904201 279.330173 56.958406 C 278.955566 57.137422 278.551123 57.114216 278.199721 57.37611 C 278.093638 57.455672 278.123474 57.621428 278.249448 57.664524 Z" style="fill:#000000;"/>
		<path d="M 280.218623 105.62752 Q 280.072758 105.551273 279.824125 105.45182 C 279.724671 105.408723 279.631848 105.345736 279.552286 105.266174 Q 278.249448 103.9335 277.215134 102.113505 C 275.275795 98.688997 273.996163 95.698769 272.060139 91.117289 Q 271.072237 88.783452 269.0235 86.635261 Q 267.273122 84.798691 261.43853 80.150908 Q 260.898168 79.719944 261.272775 79.136485 L 262.04851 77.92647 Q 262.376706 77.415943 262.854082 77.790551 Q 265.794584 80.104497 272.461268 85.5247 Q 275.053683 87.633109 276.207341 88.929317 Q 278.057172 91.00789 279.22409 93.020161 Q 279.920263 94.220231 279.966674 94.279903 C 280.546818 95.032432 280.802082 95.847949 281.302663 96.666781 C 281.80656 97.495558 282.12481 98.529872 282.519308 99.302293 Q 282.910491 100.074713 283.16907 100.827243 Q 283.696172 102.385344 283.78568 102.580935 Q 284.23985 103.598674 284.38903 104.327998 Q 285.400138 109.294031 285.16808 112.138394 Q 284.939338 114.952922 284.952598 115.463449 Q 284.972489 116.139731 284.766952 116.72319 C 284.581306 117.260238 284.740431 117.823806 284.518319 118.440417 Q 284.339303 118.927738 284.299522 120.025039 Q 284.296207 120.190794 284.206699 120.333344 Q 283.95475 120.731157 283.968011 121.361028 Q 283.971326 121.526783 283.868558 121.662703 C 283.586773 122.033995 283.64313 122.706962 283.543677 123.09483 Q 283.218796 124.32805 282.923751 125.564586 Q 282.907176 125.634203 282.764626 125.796643 Q 282.651913 125.922618 282.641967 126.091688 C 282.595556 126.804436 282.350238 127.354745 282.343607 128.140425 Q 282.327032 130.901911 282.303826 132.513054 C 282.290566 133.686603 282.008781 134.800479 282.015412 135.937562 C 282.018727 137.11774 281.531406 138.563128 281.746888 139.83613 C 281.935849 140.940061 282.008781 142.090404 282.413225 142.902606 Q 283.527101 145.150249 284.163602 145.853053 Q 284.690705 146.429882 285.681922 147.520552 C 286.23223 148.123902 286.371465 148.783609 286.838895 149.287505 C 287.365997 149.854389 287.1472 151.134021 286.772593 151.671069 Q 286.361519 152.264473 285.439919 152.380502 Q 283.686227 152.599299 282.582295 151.395915 Q 281.965685 150.722948 281.740258 149.483097 C 281.534721 148.359275 281.325869 147.46088 281.030824 146.744817 Q 279.343434 142.660603 278.9191 141.51689 C 278.736769 141.022939 278.743399 140.472631 278.504711 140.164326 Q 278.418518 140.051612 278.342271 139.623963 Q 277.725661 136.179565 277.679249 135.59279 Q 277.586426 134.468968 277.662674 127.321593 Q 277.672619 126.340321 277.85495 125.491653 C 278.033966 124.662876 278.000815 124.01643 278.169885 123.048418 Q 278.514657 121.059353 278.909155 119.080233 Q 278.922415 119.010615 279.098116 118.125481 Q 279.157788 117.833752 279.320228 116.235869 Q 279.436257 115.112047 279.555601 114.349572 Q 279.963359 111.714061 279.98988 110.586923 C 280.019716 109.178002 280.334651 107.692833 280.347912 106.104896 Q 280.351227 105.693823 280.218623 105.62752 Z" style="fill:#000000;"/>
		<path d="M 210.535032 106.336954 Q 210.644431 106.582272 210.654376 106.923728 Q 210.750514 110.858762 211.204684 113.809209 Q 211.277617 114.299846 211.387015 115.632519 C 211.456633 116.467927 211.68206 117.379582 211.774883 118.055864 Q 211.943954 119.259249 212.301985 121.215163 Q 212.328506 121.351082 212.75947 124.63304 Q 212.762786 124.642985 212.90865 125.809904 Q 213.014734 126.625421 213.03794 128.050917 Q 213.137393 133.623616 212.978268 135.924301 Q 212.802567 138.533292 211.542825 142.388764 C 211.3837 142.8794 210.946106 143.63856 210.743884 144.371199 C 210.505196 145.216552 209.838859 146.068535 209.573651 147.036546 Q 209.268661 148.153738 209.252085 148.22004 Q 209.162577 148.571442 209.033288 149.410164 Q 208.764764 151.170487 207.604476 151.962798 C 206.729287 152.562833 204.9988 152.738534 204.073885 151.787098 Q 203.788786 151.495368 203.75895 151.269941 Q 203.560043 149.761566 203.871663 149.214573 Q 204.541315 148.024449 205.204337 147.30507 Q 206.49723 145.902779 206.742548 145.571268 Q 207.922726 143.980016 208.602324 142.030732 C 209.029973 140.797511 209.073069 139.610702 208.917259 138.201781 Q 208.34706 133.089883 208.353691 127.97467 Q 208.353691 127.523815 208.221086 127.0597 Q 206.861892 122.338985 206.155773 117.48235 Q 206.142513 117.406103 206.016539 116.070114 C 205.956867 115.470079 205.771221 114.807057 205.754645 114.187132 Q 205.688343 111.796938 205.734755 109.032137 C 205.75796 107.725984 206.019854 106.426462 206.251912 105.266174 Q 206.606628 103.489275 207.1271 102.206328 Q 207.756971 100.661487 207.833219 100.379703 Q 208.095112 99.448157 208.459774 98.944261 Q 208.678571 98.645901 208.874163 97.972934 Q 208.976931 97.631478 209.295182 97.008237 Q 211.453317 92.791419 213.303148 90.447637 Q 215.623725 87.500505 218.799599 85.000913 C 219.197412 84.685977 219.658212 84.201971 220.152163 83.820734 Q 222.807566 81.781942 226.212183 78.987305 Q 226.914986 78.410476 227.640995 77.959621 Q 228.062013 77.701043 228.307331 78.128692 L 229.16263 79.610545 C 229.295234 79.842603 229.232247 80.137648 229.01345 80.293458 Q 228.178042 80.883547 227.468609 81.543254 C 225.890617 83.011847 224.180021 84.308055 222.62192 85.793224 Q 220.977626 87.357955 219.873694 89.214416 Q 218.252606 91.93612 217.039276 94.919719 Q 214.914291 100.147645 212.75284 103.575468 Q 211.927378 104.884936 210.614595 105.988867 Q 210.442209 106.131417 210.535032 106.336954 Z" style="fill:#000000;"/>
		<path d="M 255.149769 84.288164 Q 255.527691 84.082627 256.147616 83.814104 Q 256.618362 83.615197 258.696935 82.166494 C 259.094748 81.89134 259.393108 81.019467 260.185419 81.317827 Q 260.450628 81.41728 260.990991 81.947697 Q 262.728108 83.654978 263.934807 85.282697 Q 264.488431 86.031911 265.768063 87.987826 C 266.059792 88.43205 266.202342 89.04203 266.46092 89.366911 Q 267.007913 90.066399 267.442193 91.044356 Q 268.154941 92.638924 268.181462 92.698596 Q 268.821278 93.998118 269.083172 95.400409 C 269.195885 96.013705 269.530711 96.510971 269.676576 97.173993 Q 270.458942 100.760941 270.432421 103.651716 C 270.429106 103.873828 270.260035 104.056159 270.041238 104.076049 C 268.884265 104.175503 267.737237 104.672769 266.938296 104.884936 Q 261.978893 106.204349 258.007393 106.99666 C 256.386304 107.321541 254.496692 107.480666 253.057935 107.666312 Q 251.327448 107.888425 250.259983 107.842013 Q 249.298601 107.798917 248.380316 108.011084 Q 247.7405 108.156949 246.490704 108.150318 Q 244.060729 108.140373 242.946853 108.127113 C 242.505943 108.120482 241.932429 107.875164 241.408642 107.865219 C 239.784239 107.838698 238.630581 107.918261 237.818379 107.702779 Q 237.490183 107.616586 237.221659 107.590065 Q 233.43912 107.218773 228.645473 106.194404 Q 228.638842 106.191089 228.171412 106.028649 Q 227.922779 105.942456 227.455348 105.852948 Q 225.3602 105.455135 220.536716 103.877143 Q 220.377591 103.824101 220.361015 103.658346 Q 220.244986 102.614086 220.370961 101.709062 Q 220.629539 99.855916 220.632854 99.806189 Q 220.782034 98.122114 221.133436 96.865688 Q 221.352233 96.089952 221.342288 95.649043 Q 221.342288 95.476657 221.438426 95.337422 Q 221.597551 95.10868 221.683744 94.866677 Q 222.499261 92.612403 222.688222 92.184754 Q 225.124827 86.585535 229.573703 81.752106 C 229.931735 81.364238 230.429001 80.989631 230.85002 81.453746 Q 231.164955 81.801832 231.287614 81.881395 Q 233.154021 83.078149 234.327569 83.804158 C 234.838096 84.119094 235.517693 84.291479 236.091207 84.593154 Q 236.595104 84.858363 236.79401 84.937925 Q 241.236256 86.671727 245.111619 86.641891 Q 249.321807 86.60874 254.168496 84.78543 Q 254.360773 84.712498 255.149769 84.288164 Z" style="fill:#000000;"/>
		<path d="M 268.483137 112.138394 Q 269.301969 111.760472 270.41253 111.654389 C 270.455627 111.651073 270.492093 111.684225 270.488778 111.727321 Q 270.415845 113.398136 270.021347 115.0358 Q 269.076541 118.957574 268.695304 119.90238 Q 267.312903 123.333517 267.05101 124.066157 Q 266.954872 124.344626 266.716184 124.642985 Q 266.613415 124.772275 266.543798 124.921455 L 265.366934 127.460828 Q 265.290687 127.619953 265.118301 127.639844 Q 263.732586 127.789024 262.535831 127.938204 Q 261.909276 128.017766 260.003088 128.342647 Q 257.549908 128.760351 255.567472 128.783557 C 254.904451 128.793502 254.188387 129.015614 253.561831 129.028875 Q 245.724914 129.204575 237.520019 129.055395 Q 236.353101 129.035505 235.494488 128.879695 C 234.327569 128.670843 233.137445 128.909531 232.149543 128.515033 C 231.642331 128.309496 230.932898 128.491827 230.349439 128.296236 C 229.447729 127.994561 228.406785 128.110589 227.392361 127.83212 Q 226.805587 127.66968 225.880672 127.742612 C 225.777903 127.752558 225.675135 127.709461 225.608833 127.623268 Q 225.254116 127.172414 225.101621 126.844218 Q 222.608659 121.493632 222.373286 120.714581 Q 221.796457 118.821654 221.126805 116.958563 C 221.020722 116.660203 221.050558 116.166252 220.980941 115.940824 Q 220.404112 114.024691 220.274822 112.01242 C 220.261562 111.803568 220.457153 111.644443 220.659375 111.7008 Q 221.014092 111.800253 222.810881 112.343931 Q 225.519325 113.156133 226.188977 113.321888 Q 232.490999 114.876674 238.948831 115.324214 Q 240.801977 115.450188 243.974536 115.460134 C 246.792379 115.466764 248.552702 115.533066 250.681002 115.370626 Q 258.723456 114.763961 266.537168 112.678757 C 267.249916 112.489796 267.800224 112.450015 268.483137 112.138394 Z" style="fill:#000000;"/>
		<path d="M 260.901483 134.034689 C 259.790921 135.659093 258.922363 137.356428 257.788595 139.050449 Q 253.946384 144.795533 252.106499 146.98682 Q 249.169312 150.49089 246.026589 154.339731 C 245.714969 154.720969 245.13814 154.727599 244.816574 154.356307 Q 240.954472 149.851074 237.941038 146.098371 C 236.969711 144.888356 235.981809 143.393242 234.937549 142.014156 Q 234.35409 141.248366 233.773946 140.359917 Q 232.129652 137.830489 231.62244 136.908889 Q 231.038981 135.854684 230.183683 134.614833 C 229.891954 134.193814 229.858802 133.723069 229.712938 133.252323 C 229.673156 133.116404 229.77261 132.9838 229.915159 132.9838 Q 234.94418 133.030211 236.422718 133.043472 C 237.042644 133.050102 237.788543 133.338516 238.315645 133.341831 Q 249.85554 133.381613 252.650176 133.341831 C 253.154073 133.335201 253.750793 133.076623 254.307731 133.056732 Q 257.695772 132.940703 260.9711 132.977169 Q 261.153431 132.980484 261.153431 133.1595 Q 261.153431 133.660082 260.901483 134.034689 Z" style="fill:#000000;"/>
	</g>
	<g id="surface4">
	</g>
</svg>
