<?xml version="1.0" encoding="utf-8"?>
<svg xmlns="http://www.w3.org/2000/svg" width="490pt" height="280pt" viewBox="0 0 490 280" version="1.1" xmlns:xlink="http://www.w3.org/1999/xlink">
	<g id="surface2">
		<path vector-effect="non-scaling-stroke" d="M 319.157629 68.011084 Q 315.953085 72.655983 312.87569 77.195588 Q 310.356558 80.908726 306.198399 86.215195 Q 302.457448 90.987243 298.283396 95.383805 Q 297.212566 96.51225 295.700689 97.869164" style="fill:none;stroke-width:0.50;stroke:#8a9085;"/>
		<path vector-effect="non-scaling-stroke" d="M 295.700689 97.869164 Q 294.900049 97.82943 294.109344 97.861217 Q 292.953086 97.908898 292.525946 97.889031 Q 287.420133 97.644667 282.985823 95.107654 Q 281.018993 93.983183 278.960774 92.346144 Q 275.962847 89.96012 274.033763 88.138319 Q 269.410718 83.777517 263.847964 77.728023 Q 263.200301 77.020758 261.885107 75.087701 C 260.581833 73.170538 258.889167 71.77985 257.025644 70.228239 Q 255.835612 69.238863 254.353536 68.18194 Q 248.951705 64.33768 243.247895 61.32982 Q 241.585029 60.453686 240.295663 59.972905 Q 234.812377 57.926606 229.005259 57.352451 Q 220.762451 56.535918 213.362002 60.030519 Q 204.356301 64.282052 196.955852 70.941463 Q 195.223451 72.501021 194.363211 73.317554 Q 193.099672 74.515532 191.90964 75.844633" style="fill:none;stroke-width:0.50;stroke:#d2d1bf;"/>
		<path vector-effect="non-scaling-stroke" d="M 191.90964 75.844633 Q 184.568791 72.4593 176.649814 70.651405 Q 173.781023 69.997782 170.546679 69.880567" style="fill:none;stroke-width:0.50;stroke:#8a9085;"/>
		<path vector-effect="non-scaling-stroke" d="M 295.700689 97.869164 Q 287.777738 105.790128 277.756835 110.429067 Q 273.79536 112.264776 269.672962 113.307792 C 264.88502 114.521664 260.005691 114.42829 255.237616 113.361433 C 249.088787 111.988625 243.245909 109.425785 237.985133 106.139787 Q 233.370034 103.257088 228.466864 99.444615 Q 222.532598 94.829517 218.990316 92.135554 C 210.636252 85.788055 201.564991 80.197488 191.90964 75.844633" style="fill:none;stroke-width:0.50;stroke:#728178;"/>
		<path d="M 319.157629 68.011084 Q 315.953085 72.655983 312.87569 77.195588 Q 310.356558 80.908726 306.198399 86.215195 Q 302.457448 90.987243 298.283396 95.383805 Q 297.212566 96.51225 295.700689 97.869164 Q 294.900049 97.82943 294.109344 97.861217 Q 292.953086 97.908898 292.525946 97.889031 Q 287.420133 97.644667 282.985823 95.107654 Q 281.018993 93.983183 278.960774 92.346144 Q 275.962847 89.96012 274.033763 88.138319 Q 269.410718 83.777517 263.847964 77.728023 Q 263.200301 77.020758 261.885107 75.087701 C 260.581833 73.170538 258.889167 71.77985 257.025644 70.228239 Q 255.835612 69.238863 254.353536 68.18194 Q 248.951705 64.33768 243.247895 61.32982 Q 241.585029 60.453686 240.295663 59.972905 Q 234.812377 57.926606 229.005259 57.352451 Q 220.762451 56.535918 213.362002 60.030519 Q 204.356301 64.282052 196.955852 70.941463 Q 195.223451 72.501021 194.363211 73.317554 Q 193.099672 74.515532 191.90964 75.844633 Q 184.568791 72.4593 176.649814 70.651405 Q 173.781023 69.997782 170.546679 69.880567 Q 171.156595 63.380092 173.155213 56.820016 C 174.442593 52.596296 175.855135 48.831504 177.740511 45.104459 Q 181.306634 38.057642 185.852198 32.218738 Q 190.828876 25.825545 197.655169 20.310472 Q 198.473689 19.650888 199.828617 18.671446 C 200.849779 17.932395 201.803394 17.187383 202.790783 16.561573 Q 207.876729 13.341136 211.277956 11.656416 Q 216.846669 8.900867 222.425317 7.249921 Q 226.829825 5.946647 231.291949 5.126141 C 232.732304 4.859924 234.16074 4.740722 235.632883 4.528145 Q 236.250746 4.438744 237.377204 4.325502 C 247.445788 3.316259 257.730922 4.444704 267.465741 7.325415 Q 269.382904 7.891624 272.207988 8.956494 Q 282.308359 12.763007 290.563088 19.140307 Q 295.474205 22.934899 299.606536 27.25994 Q 300.220426 27.901644 302.050175 30.01549 C 311.14329 40.519161 316.994115 53.532031 319.123855 67.266072 Q 319.205309 67.788574 319.157629 68.011084 Z" style="fill:#eae0cb;"/>
		<path d="M 295.700689 97.869164 Q 287.777738 105.790128 277.756835 110.429067 Q 273.79536 112.264776 269.672962 113.307792 C 264.88502 114.521664 260.005691 114.42829 255.237616 113.361433 C 249.088787 111.988625 243.245909 109.425785 237.985133 106.139787 Q 233.370034 103.257088 228.466864 99.444615 Q 222.532598 94.829517 218.990316 92.135554 C 210.636252 85.788055 201.564991 80.197488 191.90964 75.844633 Q 193.099672 74.515532 194.363211 73.317554 Q 195.223451 72.501021 196.955852 70.941463 Q 204.356301 64.282052 213.362002 60.030519 Q 220.762451 56.535918 229.005259 57.352451 Q 234.812377 57.926606 240.295663 59.972905 Q 241.585029 60.453686 243.247895 61.32982 Q 248.951705 64.33768 254.353536 68.18194 Q 255.835612 69.238863 257.025644 70.228239 C 258.889167 71.77985 260.581833 73.170538 261.885107 75.087701 Q 263.200301 77.020758 263.847964 77.728023 Q 269.410718 83.777517 274.033763 88.138319 Q 275.962847 89.96012 278.960774 92.346144 Q 281.018993 93.983183 282.985823 95.107654 Q 287.420133 97.644667 292.525946 97.889031 Q 292.953086 97.908898 294.109344 97.861217 Q 294.900049 97.82943 295.700689 97.869164 Z" style="fill:#bac2b2;"/>
		<path d="M 319.157629 68.011084 Q 319.437753 69.304424 319.531128 70.407041 C 319.660263 71.946732 319.805292 73.685093 319.817212 75.371799 Q 319.843039 79.522011 319.815226 80.739856 Q 319.743705 83.674209 319.171536 87.427081 Q 316.721937 103.539199 308.342046 117.070598 C 297.723147 134.217786 280.204446 146.338628 260.40303 150.377585 Q 256.846841 151.10273 252.623122 151.595431 Q 252.116514 151.653045 251.264221 151.670925 C 250.604637 151.684832 250.052335 151.865621 249.456326 151.859661 Q 247.608697 151.839794 246.976927 151.901382 Q 245.637893 152.028531 244.513422 151.931183 Q 243.466432 151.841781 240.98306 151.847741 C 240.510226 151.849728 239.93607 151.690792 239.542704 151.680859 Q 238.378499 151.649071 237.718916 151.563643 Q 236.993771 151.468282 236.975891 151.466295 Q 229.289357 150.617975 222.085591 148.313406 Q 210.171365 144.50292 199.957752 136.935588 C 193.542705 132.183407 187.936244 126.537212 183.400613 120.084418 Q 169.932789 100.916758 170.000337 77.207508 Q 170.010271 73.706946 170.546679 69.880567 Q 173.781023 69.997782 176.649814 70.651405 Q 184.568791 72.4593 191.90964 75.844633 C 201.564991 80.197488 210.636252 85.788055 218.990316 92.135554 Q 222.532598 94.829517 228.466864 99.444615 Q 233.370034 103.257088 237.985133 106.139787 C 243.245909 109.425785 249.088787 111.988625 255.237616 113.361433 C 260.005691 114.42829 264.88502 114.521664 269.672962 113.307792 Q 273.79536 112.264776 277.756835 110.429067 Q 287.777738 105.790128 295.700689 97.869164 Q 297.212566 96.51225 298.283396 95.383805 Q 302.457448 90.987243 306.198399 86.215195 Q 310.356558 80.908726 312.87569 77.195588 Q 315.953085 72.655983 319.157629 68.011084 Z" style="fill:#2a403e;"/>
	</g>
	<g id="surface4">
	</g>
</svg>
