<?xml version="1.0" encoding="utf-8"?>
<svg xmlns="http://www.w3.org/2000/svg" width="490pt" height="280pt" viewBox="0 0 490 280" version="1.1" xmlns:xlink="http://www.w3.org/1999/xlink">
	<g id="surface2">
		<path vector-effect="non-scaling-stroke" d="M 254.248206 28.784045 Q 254.094985 28.971957 254.193278 29.339108 C 256.751769 38.668208 253.16699 46.858272 246.338563 53.096945 Q 242.510944 56.594996 237.555853 59.916699 Q 233.219426 62.824996 230.834391 64.692551 Q 228.362628 66.626597 226.925825 69.607168 C 223.71976 76.262138 221.508183 83.495298 220.051143 90.70533 Q 218.680832 97.493284 218.192262 101.289103 Q 215.836136 119.663989 214.243222 141.54849" style="fill:none;stroke-width:0.50;stroke:#778177;"/>
		<path vector-effect="non-scaling-stroke" d="M 189.381041 81.945748 Q 189.424406 81.734708 189.236494 81.682671 Q 184.264058 80.309469 180.086633 83.469279 C 179.693464 83.767047 179.418823 84.192017 179.381241 84.758643 Q 179.213566 87.247752 178.01093 89.48824 Q 174.041654 96.871729 167.603506 102.49752" style="fill:none;stroke-width:0.50;stroke:#778177;"/>
		<path vector-effect="non-scaling-stroke" d="M 168.337807 40.908695 Q 166.912568 48.000198 168.074731 55.033883 C 168.664485 58.609989 169.748592 62.862579 171.009046 66.565887 Q 173.686067 74.437947 178.551538 81.43694 Q 178.73945 81.70869 178.765468 81.379121 Q 179.840902 67.947762 186.333979 55.632309 C 186.420707 55.467525 186.637529 55.418379 186.787858 55.534017 C 189.245167 57.421808 191.688021 59.029177 194.657027 60.110393 C 200.554568 62.255479 204.33015 58.213929 205.778517 53.001544 Q 207.799292 45.736583 206.960916 37.864523 C 206.51571 33.672644 205.60506 29.616639 203.847362 26.049205 Q 202.589798 23.499386 200.300164 21.024732" style="fill:none;stroke-width:0.50;stroke:#778177;"/>
		<path vector-effect="non-scaling-stroke" d="M 183.179951 91.812564 Q 178.988072 96.758982 174.186202 100.768731 Q 171.431125 103.069929 168.583538 105.223687" style="fill:none;stroke-width:0.50;stroke:#778177;"/>
		<path vector-effect="non-scaling-stroke" d="M 319.638632 39.437201 L 319.852562 39.694495" style="fill:none;stroke-width:0.50;stroke:#778177;"/>
		<path vector-effect="non-scaling-stroke" d="M 320.456771 40.460597 L 320.581082 40.605145" style="fill:none;stroke-width:0.50;stroke:#778177;"/>
		<path vector-effect="non-scaling-stroke" d="M 320.676483 40.709219 L 320.789231 40.905804" style="fill:none;stroke-width:0.50;stroke:#778177;"/>
		<path vector-effect="non-scaling-stroke" d="M 322.147978 42.865869 Q 322.104613 43.166528 321.604479 42.715539 Q 315.050692 36.841126 307.195978 32.848723 Q 301.101853 29.746732 293.929402 29.188778 C 292.183268 29.050013 290.188512 29.177215 288.445268 29.214797 Q 287.867078 29.226361 288.462614 29.720713 Q 288.610052 29.845024 289.063932 30.128338 C 292.97828 32.579864 295.6235 34.193015 298.372795 36.3063 C 308.90453 44.412528 316.204182 55.155303 320.956906 67.574829 C 322.133523 70.650801 322.783987 73.692082 322.084377 76.822982 Q 321.798173 78.106565 320.370043 81.272156 C 317.594729 87.421209 314.854108 93.587608 312.081685 99.736662 Q 306.042488 113.127548 301.220382 126.061664 Q 301.067161 126.47507 300.939959 126.052991 Q 299.33259 120.684495 298.870038 115.16856 Q 297.794604 102.292263 300.922614 90.323725 Q 302.015393 86.1463 302.64273 84.212254 C 302.671639 84.122634 302.657184 84.024342 302.602256 83.946286 Q 302.33918 83.570462 301.940228 83.347859 Q 301.798572 83.269803 301.694498 83.394114 Q 295.629282 90.670639 286.245254 93.564481 Q 276.745588 96.495905 267.136066 95.261469 C 260.807774 94.449112 255.436387 92.10455 250.926503 87.840397 Q 248.590614 85.631711 247.041064 83.47217 Q 244.222387 79.537585 242.785584 76.585924 C 240.565333 72.018221 239.348243 69.361437 238.238118 67.543029 C 238.162953 67.415827 237.983714 67.407154 237.894094 67.525683 Q 237.781347 67.670231 237.735092 67.892834 Q 235.705644 77.583302 234.90196 81.272156 Q 231.580257 96.498796 227.133974 110.670239 Q 222.444851 125.616457 218.718415 138.226787 Q 218.206716 139.964248 217.810656 140.701441 Q 216.683185 142.811835 214.457153 146.072828" style="fill:none;stroke-width:0.50;stroke:#778177;"/>
		<path vector-effect="non-scaling-stroke" d="M 191.56371 40.746802 C 191.583946 39.529711 193.318517 38.477405 194.393951 38.090017 C 194.411297 38.084235 194.440206 38.058217 194.472007 38.020634 Q 194.495134 37.991725 194.506698 37.948361 Q 194.538498 37.826941 194.414188 37.821159 C 192.104318 37.679502 189.950559 39.590421 189.129529 41.642996 Q 188.071441 44.291108 188.765269 47.30637 C 188.820197 47.543428 189.13242 47.604138 189.271185 47.404662 Q 190.528749 45.609382 192.367394 44.299781 C 194.547171 42.74734 196.478327 41.758634 199.106201 42.17204 Q 199.40686 42.221187 199.190039 42.007256 Q 196.894624 39.755205 193.685668 40.307377 C 193.029422 40.420124 192.303793 40.781493 191.71693 40.879785 Q 191.560819 40.905804 191.56371 40.746802" style="fill:none;stroke-width:0.50;stroke:#778177;"/>
		<path d="M 254.248206 28.784045 Q 254.094985 28.971957 254.193278 29.339108 C 256.751769 38.668208 253.16699 46.858272 246.338563 53.096945 Q 242.510944 56.594996 237.555853 59.916699 Q 233.219426 62.824996 230.834391 64.692551 Q 228.362628 66.626597 226.925825 69.607168 C 223.71976 76.262138 221.508183 83.495298 220.051143 90.70533 Q 218.680832 97.493284 218.192262 101.289103 Q 215.836136 119.663989 214.243222 141.54849 Q 213.980146 140.617603 213.936781 139.582643 Q 213.87318 138.030202 213.832707 137.613905 C 213.647686 135.783933 213.78067 134.170782 213.517593 132.447775 C 213.292099 130.984954 213.494466 128.955506 213.280535 127.405956 Q 213.083951 125.992281 213.109969 123.578337 Q 213.121533 122.534703 212.919167 120.461891 Q 212.817983 119.42404 212.826656 117.307863 Q 212.829547 116.434796 212.632962 113.989051 Q 212.50287 112.358555 212.540452 110.360908 C 212.56358 109.216091 212.236902 107.918054 212.257139 106.787692 Q 212.303394 103.995033 212.153064 102.468611 C 211.942025 100.317743 211.950698 97.78527 211.930461 96.117191 C 211.921788 95.330852 211.751222 94.434657 211.722313 93.839121 Q 211.629802 91.965785 211.641366 89.083506 C 211.644257 88.482189 211.456345 87.828834 211.438999 87.23908 Q 211.389853 85.501618 211.375399 82.547066 Q 211.369617 81.298175 211.173032 80.240087 Q 211.063176 79.647442 210.909955 78.707882 Q 210.774081 77.869507 210.577496 77.18146 Q 210.169872 75.735984 209.424006 73.044509 Q 209.259222 72.454755 209.233204 72.353572 Q 209.224531 72.321771 208.64345 70.459998 Q 208.25028 69.199544 207.706781 68.745664 C 206.796132 67.988235 205.865245 67.765632 204.772466 68.129892 C 204.364842 68.265766 203.948545 68.219511 203.459974 68.364059 Q 200.858118 69.147507 198.441283 70.968806 Q 195.882791 72.899961 193.463065 75.019029 C 192.673835 75.712857 192.283557 76.325739 191.823895 77.366481 Q 191.086703 79.025887 190.089325 80.711312 C 189.979468 80.899223 189.98525 81.095808 189.915867 81.303957 Q 189.869612 81.439831 189.751083 81.517887 Q 189.49957 81.688453 189.381041 81.945748 Q 189.424406 81.734708 189.236494 81.682671 Q 184.264058 80.309469 180.086633 83.469279 C 179.693464 83.767047 179.418823 84.192017 179.381241 84.758643 Q 179.213566 87.247752 178.01093 89.48824 Q 174.041654 96.871729 167.603506 102.49752 Q 167.135172 100.178977 166.710202 98.30275 Q 166.467362 97.233098 165.814007 92.159479 Q 165.808225 92.124787 165.394819 88.837776 Q 165.082596 86.351557 165.105724 83.926049 C 165.108615 83.353641 164.862884 82.680049 164.857102 82.052713 Q 164.770373 72.879725 164.842647 65.577182 Q 164.857102 64.308054 165.018995 63.131437 C 165.180889 61.963493 165.030559 60.486217 165.238708 59.182398 C 165.42951 57.976871 165.374582 57.080676 165.628986 55.96766 C 165.790879 55.26805 165.649223 54.397873 165.799552 53.625989 C 165.999028 52.614156 166.022155 51.434648 166.18694 50.448834 Q 166.328596 49.598894 167.088916 45.794402 Q 167.146735 45.51398 167.187209 45.233558 Q 167.52545 43.001743 168.337807 40.908695 Q 166.912568 48.000198 168.074731 55.033883 C 168.664485 58.609989 169.748592 62.862579 171.009046 66.565887 Q 173.686067 74.437947 178.551538 81.43694 Q 178.73945 81.70869 178.765468 81.379121 Q 179.840902 67.947762 186.333979 55.632309 C 186.420707 55.467525 186.637529 55.418379 186.787858 55.534017 C 189.245167 57.421808 191.688021 59.029177 194.657027 60.110393 C 200.554568 62.255479 204.33015 58.213929 205.778517 53.001544 Q 207.799292 45.736583 206.960916 37.864523 C 206.51571 33.672644 205.60506 29.616639 203.847362 26.049205 Q 202.589798 23.499386 200.300164 21.024732 Q 201.991371 18.419985 202.650508 17.64521 C 204.674174 15.265957 207.044754 12.99656 209.632155 11.288008 Q 210.46764 10.735837 211.384071 10.0767 Q 212.234011 9.466709 212.841111 9.200741 C 213.558067 8.885628 214.127584 8.469331 214.856104 8.122417 Q 217.287394 6.974709 220.100289 6.260644 Q 220.837482 6.075623 221.245106 6.058277 C 221.779932 6.03515 222.207793 5.786528 222.780201 5.783637 C 223.80938 5.780746 224.283496 5.7634 225.202818 5.948421 Q 225.757881 6.058277 226.220433 6.098751 Q 227.102173 6.168134 229.206786 6.786797 Q 230.322693 7.116366 232.051482 7.821758 Q 234.231259 8.712171 235.425222 9.414672 Q 236.668331 10.146083 237.957695 10.834129 Q 239.325115 11.56554 243.514104 14.950843 Q 244.783231 15.977131 248.506776 19.937734 Q 249.585101 21.085442 250.562243 22.487553 C 252.07421 24.66444 252.921259 26.121479 253.944656 28.578788 Q 253.98802 28.685753 254.054512 28.729117 Q 254.147022 28.789827 254.248206 28.784045 Z" style="fill:#3b4242;"/>
		<path d="M 200.300164 21.024732 Q 202.589798 23.499386 203.847362 26.049205 C 205.60506 29.616639 206.51571 33.672644 206.960916 37.864523 Q 207.799292 45.736583 205.778517 53.001544 C 204.33015 58.213929 200.554568 62.255479 194.657027 60.110393 C 191.688021 59.029177 189.245167 57.421808 186.787858 55.534017 C 186.637529 55.418379 186.420707 55.467525 186.333979 55.632309 Q 179.840902 67.947762 178.765468 81.379121 Q 178.73945 81.70869 178.551538 81.43694 Q 173.686067 74.437947 171.009046 66.565887 C 169.748592 62.862579 168.664485 58.609989 168.074731 55.033883 Q 166.912568 48.000198 168.337807 40.908695 C 170.560949 33.617716 174.755719 27.104403 180.803589 22.672574 Q 184.411496 20.027354 187.866183 18.960593 Q 191.153195 17.945869 194.619445 18.25231 Q 195.995538 18.37373 197.267556 18.954811 Q 198.851798 19.677549 200.300164 21.024732 Z M 191.56371 40.746802 C 191.583946 39.529711 193.318517 38.477405 194.393951 38.090017 C 194.411297 38.084235 194.440206 38.058217 194.472007 38.020634 Q 194.495134 37.991725 194.506698 37.948361 Q 194.538498 37.826941 194.414188 37.821159 C 192.104318 37.679502 189.950559 39.590421 189.129529 41.642996 Q 188.071441 44.291108 188.765269 47.30637 C 188.820197 47.543428 189.13242 47.604138 189.271185 47.404662 Q 190.528749 45.609382 192.367394 44.299781 C 194.547171 42.74734 196.478327 41.758634 199.106201 42.17204 Q 199.40686 42.221187 199.190039 42.007256 Q 196.894624 39.755205 193.685668 40.307377 C 193.029422 40.420124 192.303793 40.781493 191.71693 40.879785 Q 191.560819 40.905804 191.56371 40.746802 Z" style="fill:#b2bfac;"/>
		<path d="M 319.638632 39.437201 L 319.852562 39.694495 L 320.456771 40.460597 L 320.581082 40.605145 L 320.676483 40.709219 L 320.789231 40.905804 L 322.147978 42.865869 Q 322.104613 43.166528 321.604479 42.715539 Q 315.050692 36.841126 307.195978 32.848723 Q 301.101853 29.746732 293.929402 29.188778 C 292.183268 29.050013 290.188512 29.177215 288.445268 29.214797 Q 287.867078 29.226361 288.462614 29.720713 Q 288.610052 29.845024 289.063932 30.128338 C 292.97828 32.579864 295.6235 34.193015 298.372795 36.3063 C 308.90453 44.412528 316.204182 55.155303 320.956906 67.574829 C 322.133523 70.650801 322.783987 73.692082 322.084377 76.822982 Q 321.798173 78.106565 320.370043 81.272156 C 317.594729 87.421209 314.854108 93.587608 312.081685 99.736662 Q 306.042488 113.127548 301.220382 126.061664 Q 301.067161 126.47507 300.939959 126.052991 Q 299.33259 120.684495 298.870038 115.16856 Q 297.794604 102.292263 300.922614 90.323725 Q 302.015393 86.1463 302.64273 84.212254 C 302.671639 84.122634 302.657184 84.024342 302.602256 83.946286 Q 302.33918 83.570462 301.940228 83.347859 Q 301.798572 83.269803 301.694498 83.394114 Q 295.629282 90.670639 286.245254 93.564481 Q 276.745588 96.495905 267.136066 95.261469 C 260.807774 94.449112 255.436387 92.10455 250.926503 87.840397 Q 248.590614 85.631711 247.041064 83.47217 Q 244.222387 79.537585 242.785584 76.585924 C 240.565333 72.018221 239.348243 69.361437 238.238118 67.543029 C 238.162953 67.415827 237.983714 67.407154 237.894094 67.525683 Q 237.781347 67.670231 237.735092 67.892834 Q 235.705644 77.583302 234.90196 81.272156 Q 231.580257 96.498796 227.133974 110.670239 Q 222.444851 125.616457 218.718415 138.226787 Q 218.206716 139.964248 217.810656 140.701441 Q 216.683185 142.811835 214.457153 146.072828 L 214.243222 141.54849 Q 215.836136 119.663989 218.192262 101.289103 Q 218.680832 97.493284 220.051143 90.70533 C 221.508183 83.495298 223.71976 76.262138 226.925825 69.607168 Q 228.362628 66.626597 230.834391 64.692551 Q 233.219426 62.824996 237.555853 59.916699 Q 242.510944 56.594996 246.338563 53.096945 C 253.16699 46.858272 256.751769 38.668208 254.193278 29.339108 Q 254.094985 28.971957 254.248206 28.784045 Q 254.696303 28.506514 254.881324 28.457368 Q 261.487148 26.740143 269.130823 25.413196 Q 272.492999 24.829224 273.533741 24.667331 Q 275.132437 24.4216 278.399212 24.019758 Q 278.425231 24.016867 279.512229 23.869428 Q 280.986614 23.667062 281.998447 23.690189 C 282.530382 23.701753 283.273356 23.432894 283.955621 23.430004 Q 285.704646 23.424222 289.063932 23.401094 Q 292.096539 23.380857 294.16357 23.759572 Q 298.413268 24.534347 301.619333 25.893094 C 308.424632 28.775372 314.758706 33.7825 319.638632 39.437201 Z" style="fill:#b2bfac;"/>
		<path d="M 322.147978 42.865869 Q 323.989514 44.782569 325.605555 47.309261 Q 328.314377 51.541613 329.99691 55.837567 Q 330.309133 56.63547 330.453681 57.155841 Q 330.563537 57.551901 330.861305 58.477006 Q 331.268929 59.751915 331.91072 62.934852 C 332.355927 65.134866 332.182469 67.398481 332.393509 69.821098 Q 332.506256 71.084444 332.503365 72.71494 Q 332.497583 85.510291 332.564075 95.067776 C 332.569857 95.773168 332.795351 96.565288 332.789569 97.259117 Q 332.772224 99.15269 333.165393 102.561121 Q 333.179848 102.702778 333.272358 102.812634 Q 333.934386 103.596082 334.529922 104.301474 C 335.084985 104.951938 336.10549 106.75011 336.281838 107.952745 C 336.362785 108.504917 336.553588 108.857613 336.666335 109.450258 Q 336.897611 110.650003 336.868701 113.147785 C 336.848465 114.668425 336.542024 115.934662 336.278947 117.452411 Q 336.122836 118.351497 335.879996 119.132054 Q 334.420066 123.821177 331.743045 127.44643 Q 329.78298 130.103214 329.181662 130.797042 Q 329.011096 130.996518 328.649727 131.057228 Q 328.505179 131.080355 328.499398 130.932917 Q 328.461815 129.603079 328.403996 129.368912 C 328.181393 128.464044 328.285467 127.593868 328.048409 126.790184 C 327.932771 126.402796 327.857606 125.86797 327.724623 125.416982 Q 326.536442 121.473724 326.177964 117.371464 Q 326.13749 116.894457 326.180855 113.830049 C 326.189528 113.089966 326.432367 112.25159 326.438149 111.525961 C 326.44104 110.777205 326.637625 110.18456 326.741699 109.409785 Q 326.811082 108.889413 326.918047 108.571409 Q 327.421073 107.091242 327.993481 105.637093 Q 328.236321 105.021321 328.525416 104.576114 C 329.490994 103.095947 328.814511 101.864402 328.75091 100.18765 C 328.736456 99.782917 328.745128 99.141126 328.652618 98.719047 C 328.424233 97.672523 328.505179 96.744527 328.314377 95.752931 Q 328.11201 94.712189 328.152483 92.870653 C 328.161156 92.387864 327.895189 91.630434 327.900971 91.060917 C 327.924098 89.311892 327.635003 87.652486 327.606094 85.998861 Q 327.591639 85.099776 327.299653 82.035367 Q 327.247616 81.503432 327.082831 82.01224 Q 326.698335 83.194639 326.643407 83.368096 Q 324.64576 89.94501 324.041551 92.10455 Q 321.905138 99.748226 320.364261 106.822383 Q 320.060711 108.218713 319.696451 110.311761 Q 319.531667 111.265775 319.525885 111.58378 C 319.508539 112.540685 319.245463 113.350151 319.222335 114.353311 C 319.20788 114.951738 319.199207 115.636894 319.112479 116.350959 C 318.959258 117.596959 319.077787 118.814049 319.126934 119.97043 Q 319.271481 123.280569 320.054929 127.567849 Q 320.815249 131.725037 321.196855 134.150545 Q 321.272019 134.642007 321.324057 134.919539 Q 321.613152 136.492216 321.809736 137.903 Q 322.480437 142.774253 322.769532 144.563752 C 323.026827 146.174012 323.075973 148.093603 323.43156 149.735664 C 323.576108 150.39191 323.550089 150.964318 323.7062 151.704401 Q 323.88833 152.574578 323.873876 153.384044 Q 323.870985 153.531483 323.723546 153.531483 Q 311.596006 153.467882 301.865064 153.557501 C 301.442985 153.560392 301.2464 153.621102 300.939959 153.759868 Q 300.778066 153.832142 300.714465 153.667357 Q 300.610391 153.386935 300.916832 152.985093 Q 304.611467 148.14564 307.424363 144.309348 Q 307.788623 143.812105 308.517143 143.031548 C 308.713727 142.817617 308.75131 142.502504 308.609653 142.2481 L 301.292655 129.212801 C 301.234836 129.111617 301.084507 129.123181 301.044034 129.233037 C 300.827212 129.811228 300.526553 130.363399 300.358878 130.958935 Q 300.058219 132.019914 299.717087 133.034638 Q 297.849532 138.579483 296.32311 145.081232 Q 296.285528 145.243125 296.245054 145.396346 Q 295.34886 148.715158 294.750433 152.64107 Q 294.747542 152.667088 294.631904 153.407172 Q 294.608776 153.548828 294.467119 153.545937 Q 283.189519 153.40139 273.831509 153.621102 Q 273.484595 153.629775 273.464359 153.638448 Q 272.715602 154.028726 273.007588 153.248169 Q 273.143463 152.88391 273.501941 152.505195 Q 274.019421 151.961696 274.103259 151.857622 Q 277.841259 147.234991 281.781625 142.43023 Q 281.929064 142.253882 281.920391 142.022606 Q 281.833662 139.886193 282.16034 137.74978 Q 282.527491 135.335835 282.530382 135.304035 Q 282.862841 132.731088 283.597143 128.556555 C 283.701217 127.972583 283.701217 127.38572 283.828419 126.859566 C 283.981639 126.229339 283.915147 125.547075 284.088604 124.939975 C 284.299644 124.191218 284.210024 123.225641 284.34879 122.369919 Q 284.447082 121.762819 284.669686 120.114977 C 284.877834 118.582773 284.941435 116.900239 284.658122 115.402727 Q 284.551157 114.8361 284.068368 112.523339 Q 283.458377 109.597697 281.665987 106.154574 Q 281.596604 106.02159 281.446275 106.027372 Q 279.902507 106.096755 278.45414 106.105427 C 277.78344 106.111209 277.11563 106.35694 276.494076 106.365613 C 274.707468 106.38585 273.088535 106.489924 271.472493 106.212393 Q 270.532934 106.050499 269.772614 106.090973 C 268.963147 106.134337 268.139226 105.830787 267.312414 105.819223 Q 266.800716 105.813441 266.338164 105.726713 Q 264.892688 105.449181 262.325523 105.029994 Q 262.152066 105.001084 261.623022 104.810281 Q 261.319472 104.700425 260.894503 104.642606 Q 260.220911 104.550096 257.723129 103.619209 Q 257.575691 103.564281 257.101575 103.463098 C 256.780679 103.393715 256.534948 103.208694 256.286326 103.110402 Q 255.445059 102.786615 254.650048 102.373209 Q 254.173041 102.124588 254.207732 102.662304 Q 254.53441 107.623177 254.491046 112.595613 C 254.485264 113.170912 254.759904 113.870522 254.751231 114.335966 Q 254.713649 116.408778 254.927579 118.042165 C 255.063454 119.080017 254.973834 120.389618 255.222456 121.447706 C 255.335203 121.930495 255.314967 122.326555 255.381459 122.933655 Q 256.098414 129.435404 256.615895 132.326355 Q 256.826934 133.511645 257.864786 137.940583 Q 258.492122 140.617603 260.215129 145.665204 C 260.275839 145.850225 260.426168 146.0179 260.495551 146.22894 Q 261.796479 150.24158 262.386233 151.282323 Q 262.944187 152.265246 263.28821 153.326225 C 263.320011 153.424517 263.247737 153.525701 263.143663 153.525701 Q 252.513635 153.482336 242.25654 153.528592 Q 240.741681 153.534374 239.900415 153.681812 Q 239.738521 153.710722 239.724067 153.548828 Q 239.692266 153.187459 240.137473 152.554341 Q 241.259162 150.961427 244.942234 145.095687 C 245.263129 144.583989 245.636062 144.49726 245.474169 143.719594 Q 245.095454 141.904077 244.893087 139.891975 Q 244.783231 138.836777 244.560628 137.836508 C 244.38428 137.05017 244.254187 135.994972 243.967983 135.10745 Q 242.294122 129.926866 240.279129 125.911334 Q 240.180837 125.711859 239.651793 124.50055 Q 238.359538 121.525761 237.816039 120.392508 Q 237.755329 120.259525 237.674382 120.380945 C 237.385287 120.831933 237.258085 121.485288 237.110647 121.85533 Q 235.121672 126.885585 232.794456 131.768402 Q 232.473561 132.439102 231.447273 134.899302 Q 231.051213 135.844643 230.198382 139.383167 Q 229.886159 140.678313 229.883268 141.51958 C 229.877487 142.436012 229.654883 143.28017 229.61441 144.378731 Q 229.446735 148.851033 230.527951 153.236606 C 230.568424 153.392717 230.447004 153.545937 230.285111 153.543046 Q 219.929723 153.453427 211.514164 153.566174 C 211.204832 153.569065 210.950429 153.661575 210.736498 153.716504 Q 210.048452 153.895743 210.383802 153.300207 L 214.457153 146.072828 Q 216.683185 142.811835 217.810656 140.701441 Q 218.206716 139.964248 218.718415 138.226787 Q 222.444851 125.616457 227.133974 110.670239 Q 231.580257 96.498796 234.90196 81.272156 Q 235.705644 77.583302 237.735092 67.892834 Q 237.781347 67.670231 237.894094 67.525683 C 237.983714 67.407154 238.162953 67.415827 238.238118 67.543029 C 239.348243 69.361437 240.565333 72.018221 242.785584 76.585924 Q 244.222387 79.537585 247.041064 83.47217 Q 248.590614 85.631711 250.926503 87.840397 C 255.436387 92.10455 260.807774 94.449112 267.136066 95.261469 Q 276.745588 96.495905 286.245254 93.564481 Q 295.629282 90.670639 301.694498 83.394114 Q 301.798572 83.269803 301.940228 83.347859 Q 302.33918 83.570462 302.602256 83.946286 C 302.657184 84.024342 302.671639 84.122634 302.64273 84.212254 Q 302.015393 86.1463 300.922614 90.323725 Q 297.794604 102.292263 298.870038 115.16856 Q 299.33259 120.684495 300.939959 126.052991 Q 301.067161 126.47507 301.220382 126.061664 Q 306.042488 113.127548 312.081685 99.736662 C 314.854108 93.587608 317.594729 87.421209 320.370043 81.272156 Q 321.798173 78.106565 322.084377 76.822982 C 322.783987 73.692082 322.133523 70.650801 320.956906 67.574829 C 316.204182 55.155303 308.90453 44.412528 298.372795 36.3063 C 295.6235 34.193015 292.97828 32.579864 289.063932 30.128338 Q 288.610052 29.845024 288.462614 29.720713 Q 287.867078 29.226361 288.445268 29.214797 C 290.188512 29.177215 292.183268 29.050013 293.929402 29.188778 Q 301.101853 29.746732 307.195978 32.848723 Q 315.050692 36.841126 321.604479 42.715539 Q 322.104613 43.166528 322.147978 42.865869 Z" style="fill:#3b4242;"/>
		<path d="M 319.852562 39.694495 L 319.638632 39.437201 Q 319.809198 39.451655 319.852562 39.694495 Z" style="fill:#3b4242;"/>
		<path d="M 320.581082 40.605145 L 320.456771 40.460597 Q 320.560845 40.506853 320.581082 40.605145 Z" style="fill:#3b4242;"/>
		<path d="M 320.789231 40.905804 L 320.676483 40.709219 Q 320.795012 40.787275 320.789231 40.905804 Z" style="fill:#3b4242;"/>
		<path d="M 189.381041 81.945748 C 188.771051 83.616718 187.730308 85.062193 186.828331 86.582834 Q 185.989956 87.993618 185.070633 89.236727 Q 184.08771 90.563673 183.179951 91.812564 Q 178.988072 96.758982 174.186202 100.768731 Q 171.431125 103.069929 168.583538 105.223687 Q 167.92151 105.744058 167.253701 106.247084 Q 166.597455 106.744328 165.860262 107.186643 Q 161.69151 109.681534 160.14196 110.372471 Q 157.112244 111.722546 153.712485 112.757506 Q 153.469645 112.832671 153.504336 112.581158 Q 153.513009 112.503103 153.703812 112.387464 Q 160.422383 108.290987 165.744624 103.948778 Q 165.753297 103.940105 166.574327 103.208694 Q 167.097589 102.743251 167.603506 102.49752 Q 174.041654 96.871729 178.01093 89.48824 Q 179.213566 87.247752 179.381241 84.758643 C 179.418823 84.192017 179.693464 83.767047 180.086633 83.469279 Q 184.264058 80.309469 189.236494 81.682671 Q 189.424406 81.734708 189.381041 81.945748 Z" style="fill:#b2bfac;"/>
		<path d="M 183.179951 91.812564 Q 182.350248 95.935061 182.225937 98.039673 Q 182.121863 99.800263 182.2057 105.888606 Q 182.220155 106.735655 182.353139 107.597158 C 182.486123 108.458662 182.434086 109.135144 182.63067 109.869446 C 182.896638 110.85526 183.05564 112.410592 183.32739 113.517826 Q 184.047236 116.466597 185.218072 119.126272 Q 187.290884 123.835631 191.208123 127.405956 C 191.664893 127.819362 192.344266 128.706884 192.35583 129.33133 Q 192.364503 129.863265 192.254647 130.27378 Q 191.768967 132.100861 190.230981 134.162109 Q 189.542935 135.081432 186.926624 138.559246 Q 185.810717 140.039413 184.642772 142.201845 Q 183.39099 144.511715 182.809909 146.10752 Q 182.575742 146.743529 181.780731 149.082309 C 181.35287 150.336982 181.052211 151.857622 180.633023 153.213478 C 180.549185 153.485227 180.274545 153.650012 179.997014 153.595084 Q 179.219348 153.447645 178.71054 153.170114 Q 176.634837 152.042643 172.549923 149.157473 C 172.226137 148.929088 171.222977 148.258388 171.153594 147.691761 Q 171.08132 147.130917 171.636383 146.931441 Q 171.916805 146.833149 171.93126 146.827367 C 176.079775 145.029195 180.054833 141.745074 181.555236 137.402866 C 182.064044 135.934262 182.133427 134.159218 181.844332 132.603887 Q 181.639074 131.502434 180.80648 129.825682 C 179.716591 127.622778 177.594633 125.032485 176.527872 123.480044 Q 172.792763 118.036383 170.294981 110.843696 Q 169.075 107.334082 168.583538 105.223687 Q 171.431125 103.069929 174.186202 100.768731 Q 178.988072 96.758982 183.179951 91.812564 Z" style="fill:#3b4242;"/>
		<path d="M 191.71693 40.879785 C 192.303793 40.781493 193.029422 40.420124 193.685668 40.307377 Q 196.894624 39.755205 199.190039 42.007256 Q 199.40686 42.221187 199.106201 42.17204 C 196.478327 41.758634 194.547171 42.74734 192.367394 44.299781 Q 190.528749 45.609382 189.271185 47.404662 C 189.13242 47.604138 188.820197 47.543428 188.765269 47.30637 Q 188.071441 44.291108 189.129529 41.642996 C 189.950559 39.590421 192.104318 37.679502 194.414188 37.821159 Q 194.538498 37.826941 194.506698 37.948361 Q 194.495134 37.991725 194.472007 38.020634 C 194.440206 38.058217 194.411297 38.084235 194.393951 38.090017 C 193.318517 38.477405 191.583946 39.529711 191.56371 40.746802 Q 191.560819 40.905804 191.71693 40.879785 Z" style="fill:#3b4242;"/>
	</g>
	<g id="surface4">
	</g>
</svg>
