<?xml version="1.0" encoding="utf-8"?>
<svg xmlns="http://www.w3.org/2000/svg" width="490pt" height="280pt" viewBox="0 0 490 280" version="1.1" xmlns:xlink="http://www.w3.org/1999/xlink">
	<g id="surface2">
		<path vector-effect="non-scaling-stroke" d="M 296.824333 73.908486 C 296.87873 74.456484 297.01573 74.91382 296.550334 75.340936 Q 296.270291 75.600832 295.919734 75.892964" style="fill:none;stroke-width:0.50;stroke:#785d3c;"/>
		<path vector-effect="non-scaling-stroke" d="M 295.919734 75.892964 Q 293.119303 77.768648 292.254997 78.300528 C 284.246571 83.226466 275.200575 87.092672 266.092124 89.923323 Q 256.131455 93.019915 245.711435 93.68678" style="fill:none;stroke-width:0.50;stroke:#908b81;"/>
		<path vector-effect="non-scaling-stroke" d="M 245.711435 93.68678 Q 242.278389 93.265708 238.825196 92.905077 C 237.773523 92.796283 237.761435 91.869522 237.52773 91.093863" style="fill:none;stroke-width:0.50;stroke:#785d3c;"/>
		<path vector-effect="non-scaling-stroke" d="M 299.306442 84.598475 C 299.300398 83.371524 298.772547 82.285602 298.248725 81.082827 Q 296.888804 77.964074 295.919734 75.892964" style="fill:none;stroke-width:0.50;stroke:#e4b57d;"/>
		<path vector-effect="non-scaling-stroke" d="M 298.951855 85.0679 Q 288.999245 91.184524 278.780694 95.348906 Q 267.583001 99.914213 255.184547 102.140454 Q 252.619836 102.60182 250.047066 102.976554" style="fill:none;stroke-width:0.50;stroke:#908b81;"/>
		<path vector-effect="non-scaling-stroke" d="M 250.047066 102.976554 Q 250.045051 103.059157 250.010801 102.960437 Q 250.000728 102.932231 250.008786 102.90201 Q 250.715946 99.996815 249.716655 97.339428 C 249.170672 95.89086 247.911485 94.510792 246.380315 93.964808 Q 246.031772 93.839897 245.711435 93.68678" style="fill:none;stroke-width:0.50;stroke:#e4b57d;"/>
		<path vector-effect="non-scaling-stroke" d="M 240.13072 105.126237 Q 242.645064 105.27734 245.125157 105.259208 Q 247.097547 105.24309 248.743556 104.245814 Q 249.263348 103.929507 249.758964 103.194142 Q 249.813361 103.113554 249.897978 103.063186 L 250.047066 102.976554" style="fill:none;stroke-width:0.50;stroke:#785d3c;"/>
		<path vector-effect="non-scaling-stroke" d="M 223.906354 31.331864 Q 225.173599 31.86173 225.606759 32.041038 C 226.201095 32.290861 226.581873 32.647462 227.117783 32.911388 Q 227.127857 32.915417 227.164121 32.907358 L 227.166136 32.907358 Q 227.220533 32.897285 227.178224 32.86505 Q 225.703465 31.76301 223.928516 31.255306 Q 223.912398 31.251276 223.908369 31.265379 L 223.888222 31.311717 Q 223.884192 31.323805 223.906354 31.331864" style="fill:none;stroke-width:0.50;stroke:#908b81;"/>
		<path vector-effect="non-scaling-stroke" d="M 223.408159 31.808159 C 223.410738 31.781142 223.390591 31.754951 223.363715 31.752493 L 223.363715 31.752493 C 223.336194 31.748907 223.312018 31.769054 223.308049 31.796937 L 223.046642 34.12744 C 223.044063 34.154457 223.06421 34.180648 223.091086 34.183106 L 223.091086 34.183106 C 223.118607 34.186692 223.142783 34.166545 223.146752 34.138662 L 223.408159 31.808159" style="fill:none;stroke-width:0.50;stroke:#785d3c;"/>
		<path vector-effect="non-scaling-stroke" d="M 224.456367 35.852848 Q 224.937879 35.701745 225.26829 35.324997" style="fill:none;stroke-width:0.50;stroke:#785d3c;"/>
		<path vector-effect="non-scaling-stroke" d="M 225.26829 35.324997 Q 225.483863 35.324997 225.689362 35.095321" style="fill:none;stroke-width:0.50;stroke:#785d3c;"/>
		<path vector-effect="non-scaling-stroke" d="M 225.689362 35.095321 Q 225.794126 35.091292 225.822332 35.06913 Q 225.957317 34.960336 225.786067 34.988542 Q 225.737715 34.994586 225.689362 35.095321" style="fill:none;stroke-width:0.50;stroke:#785d3c;"/>
		<path vector-effect="non-scaling-stroke" d="M 225.689362 35.095321 Q 225.516098 35.115468 225.350893 35.117483 L 225.348878 35.117483 Q 225.36701 35.121512 225.441554 35.141659 Q 225.467745 35.147703 225.443569 35.159791 Q 225.328731 35.212173 225.26829 35.324997" style="fill:none;stroke-width:0.50;stroke:#785d3c;"/>
		<path vector-effect="non-scaling-stroke" d="M 225.26829 35.324997 Q 224.875424 35.455952 224.522852 35.760171" style="fill:none;stroke-width:0.50;stroke:#785d3c;"/>
		<path vector-effect="non-scaling-stroke" d="M 235.398194 96.132624 Q 235.32365 98.473703 235.2894 99.410538 Q 235.251121 100.540784 235.402223 100.984018 C 235.780986 102.088072 237.19329 102.482953 238.289286 102.611894 Q 240.912423 102.920143 244.313234 103.248539 C 245.566376 103.371435 246.861827 102.930216 247.168062 101.612603 C 247.734192 99.16676 247.127768 96.064124 244.210484 95.540302 Q 243.906265 95.483891 242.985548 95.383156 Q 238.218771 94.865378 236.7561 94.748526 Q 236.083191 94.696144 235.519075 94.692114 C 235.458635 94.692114 235.408267 94.740467 235.408267 94.800908 Q 235.416326 95.554405 235.398194 96.132624" style="fill:none;stroke-width:0.50;stroke:#e4b57d;"/>
		<path vector-effect="non-scaling-stroke" d="M 237.951965 100.793085 C 238.593505 100.583093 238.903769 99.781243 238.649272 99.00504 C 238.39405 98.22791 237.666744 97.768559 237.026936 97.979639 C 236.385396 98.189631 236.075132 98.991481 236.329629 99.767684 C 236.584851 100.544813 237.312157 101.004164 237.951965 100.793085" style="fill:none;stroke-width:0.50;stroke:#908b81;"/>
		<path d="M 296.824333 73.908486 C 296.87873 74.456484 297.01573 74.91382 296.550334 75.340936 Q 296.270291 75.600832 295.919734 75.892964 Q 293.119303 77.768648 292.254997 78.300528 C 284.246571 83.226466 275.200575 87.092672 266.092124 89.923323 Q 256.131455 93.019915 245.711435 93.68678 Q 242.278389 93.265708 238.825196 92.905077 C 237.773523 92.796283 237.761435 91.869522 237.52773 91.093863 Q 237.545862 91.069687 237.598244 91.037451 Q 237.668759 90.993128 237.672788 90.910525 Q 237.727185 89.764162 238.045507 88.617799 Q 238.392035 87.364656 238.392035 87.358612 Q 238.847357 85.039694 238.851387 83.851022 Q 238.853401 83.341304 238.599549 82.074058 Q 238.075728 79.477112 235.803148 78.18972 Q 235.218885 77.859309 234.163183 77.825059 Q 233.347231 77.798868 230.820799 78.362984 Q 229.821508 78.586615 227.145989 78.751821 Q 224.482558 78.919041 222.006493 78.038617 Q 221.921876 78.008397 221.843303 78.048691 Q 220.364514 78.800173 218.650006 79.368318 Q 216.637322 80.037198 214.396977 80.174198 Q 212.563602 80.285006 210.387728 79.888111 Q 207.839134 79.4207 205.357026 78.324705 Q 202.818506 77.202518 201.025424 76.521549 Q 197.439261 75.163643 195.686473 73.844015 Q 193.274879 72.026757 191.721547 69.756192 Q 190.657786 68.19883 190.379758 67.6327 C 190.013083 66.889276 189.622231 66.258676 189.291821 65.523311 Q 188.979542 64.824211 188.379162 63.788656 C 187.758635 62.716836 186.690845 61.993559 186.038083 60.831078 Q 184.224854 57.601517 184.549221 54.091912 Q 184.615706 53.37065 185.087145 52.725947 Q 185.371217 52.33711 186.211347 51.881788 C 189.982862 49.838884 193.909509 48.108258 197.674981 46.053266 Q 199.592974 45.007637 200.126869 44.7558 Q 200.318265 44.667153 200.588235 44.473742 C 201.005277 44.177581 201.605657 44.01842 201.950171 43.776656 C 202.492125 43.393864 203.003858 43.244776 203.600209 42.890189 Q 204.12403 42.577911 204.371838 42.44897 Q 206.428845 41.377151 208.169545 40.337566 Q 210.049258 39.213364 210.524727 38.895042 Q 211.735561 38.083119 212.672396 37.146284 Q 213.994038 35.826656 214.286169 33.789796 C 214.34661 33.382827 213.850994 32.520536 213.645495 32.115582 C 213.236511 31.313732 213.998067 30.044472 214.517859 29.494459 Q 215.214945 28.761109 215.223004 28.751036 Q 215.863678 27.931053 216.691719 26.752455 Q 216.963703 26.367647 217.51976 25.537592 Q 217.729289 25.223299 217.989185 24.971461 C 218.236993 24.733727 218.349816 24.491963 218.625829 24.213935 Q 221.335599 21.457827 223.942618 19.557967 Q 229.186878 15.732055 235.718531 13.284196 C 236.014691 13.173388 236.617086 13.038403 237.054276 12.844992 Q 237.346407 12.716051 237.580112 12.65561 Q 238.482697 12.421905 239.314767 12.184171 Q 242.580593 11.247336 245.491833 10.874617 Q 246.559623 10.737617 247.079415 10.300428 Q 249.541376 8.229318 252.144367 5.775415 C 252.48888 5.451049 252.952261 5.128697 253.349156 4.892977 Q 253.975728 4.522273 254.684901 4.719713 Q 255.001209 4.810374 256.157646 5.334196 C 256.409483 5.449034 256.753997 5.451049 256.993746 5.362402 Q 259.129326 4.580699 260.930466 4.17373 C 261.544949 4.03673 262.473725 3.958157 262.999562 4.119333 Q 263.207076 4.181789 264.393733 4.663302 Q 268.537968 6.34356 269.279377 6.655838 Q 270.183976 7.036616 270.584901 7.143395 C 271.169164 7.300542 271.636574 7.562453 272.309483 7.78004 Q 278.986194 9.927708 280.225233 10.262148 Q 285.630669 11.72079 288.596305 12.842977 Q 291.154972 13.810032 291.987042 14.275428 C 292.762701 14.708588 293.647154 15.349262 293.73983 16.225656 C 293.836535 17.126226 293.761992 18.13156 293.492022 19.005939 C 292.944024 20.776859 291.956822 22.455103 290.844708 23.998362 Q 290.121432 25.001682 288.813892 26.422044 Q 285.719316 29.780547 281.859153 33.344548 Q 281.78058 33.415062 281.792668 33.519827 C 281.843036 33.926796 282.141211 34.212883 282.245976 34.585602 C 282.425284 35.216203 282.802032 35.846803 283.01962 36.370625 Q 283.422559 37.339695 283.942352 38.377265 C 284.037042 38.566646 284.049131 38.850719 284.167998 39.034056 Q 284.437967 39.455128 284.693834 40.168331 Q 284.808672 40.492698 285.241832 41.419459 Q 285.546052 42.070207 285.761624 42.692749 C 285.818036 42.859969 286.02152 43.097703 286.102108 43.309246 Q 286.555415 44.493889 286.952311 45.346106 C 287.115502 45.698679 287.25653 46.246677 287.466059 46.673793 Q 287.651411 47.050541 287.707823 47.187541 Q 291.20131 55.7077 293.931226 64.832269 Q 295.960028 71.615759 296.572496 73.646575 Q 296.624878 73.81581 296.824333 73.908486 Z M 223.906354 31.331864 Q 225.173599 31.86173 225.606759 32.041038 C 226.201095 32.290861 226.581873 32.647462 227.117783 32.911388 Q 227.127857 32.915417 227.164121 32.907358 L 227.166136 32.907358 Q 227.220533 32.897285 227.178224 32.86505 Q 225.703465 31.76301 223.928516 31.255306 Q 223.912398 31.251276 223.908369 31.265379 L 223.888222 31.311717 Q 223.884192 31.323805 223.906354 31.331864 Z M 223.408159 31.808159 C 223.410738 31.781142 223.390591 31.754951 223.363715 31.752493 L 223.363715 31.752493 C 223.336194 31.748907 223.312018 31.769054 223.308049 31.796937 L 223.046642 34.12744 C 223.044063 34.154457 223.06421 34.180648 223.091086 34.183106 L 223.091086 34.183106 C 223.118607 34.186692 223.142783 34.166545 223.146752 34.138662 L 223.408159 31.808159 Z M 224.456367 35.852848 Q 224.937879 35.701745 225.26829 35.324997 Q 225.483863 35.324997 225.689362 35.095321 Q 225.794126 35.091292 225.822332 35.06913 Q 225.957317 34.960336 225.786067 34.988542 Q 225.737715 34.994586 225.689362 35.095321 Q 225.516098 35.115468 225.350893 35.117483 L 225.348878 35.117483 Q 225.36701 35.121512 225.441554 35.141659 Q 225.467745 35.147703 225.443569 35.159791 Q 225.328731 35.212173 225.26829 35.324997 Q 224.875424 35.455952 224.522852 35.760171 L 224.357646 34.654102 Q 224.339514 34.535235 224.232735 34.589632 L 224.16625 34.623881 Q 224.059471 34.678278 224.127971 34.776999 Q 224.23072 34.926086 224.242808 35.010704 Q 224.258926 35.10338 224.176323 35.057042 L 223.350297 34.579558 Q 223.271724 34.53322 223.352312 34.492926 L 223.499385 34.420397 C 223.501399 34.418382 223.503414 34.416368 223.501399 34.414353 C 223.501399 34.410323 223.49737 34.410323 223.495355 34.410323 L 223.158901 34.46472 Q 223.046078 34.484867 223.046078 34.60172 L 223.046078 36.473375 C 223.046078 36.557992 223.136739 36.612389 223.211283 36.57008 L 224.456367 35.852848 Z" style="fill:#243340;"/>
		<path d="M 299.306442 84.598475 C 299.300398 83.371524 298.772547 82.285602 298.248725 81.082827 Q 296.888804 77.964074 295.919734 75.892964 Q 296.270291 75.600832 296.550334 75.340936 C 297.01573 74.91382 296.87873 74.456484 296.824333 73.908486 C 297.589919 73.376605 298.51265 73.44309 298.933722 74.359778 Q 300.275512 77.277061 301.581036 80.307168 C 301.796609 80.810842 301.929579 81.473678 301.65558 81.89878 C 301.02095 82.883967 300.106277 83.740214 299.306442 84.598475 Z" style="fill:#cc8737;"/>
		<path d="M 295.919734 75.892964 Q 296.888804 77.964074 298.248725 81.082827 C 298.772547 82.285602 299.300398 83.371524 299.306442 84.598475 Q 299.167427 84.930901 298.951855 85.0679 Q 288.999245 91.184524 278.780694 95.348906 Q 267.583001 99.914213 255.184547 102.140454 Q 252.619836 102.60182 250.047066 102.976554 Q 250.045051 103.059157 250.010801 102.960437 Q 250.000728 102.932231 250.008786 102.90201 Q 250.715946 99.996815 249.716655 97.339428 C 249.170672 95.89086 247.911485 94.510792 246.380315 93.964808 Q 246.031772 93.839897 245.711435 93.68678 Q 256.131455 93.019915 266.092124 89.923323 C 275.200575 87.092672 284.246571 83.226466 292.254997 78.300528 Q 293.119303 77.768648 295.919734 75.892964 Z" style="fill:#fbe2c2;"/>
		<path d="M 298.951855 85.0679 Q 300.773142 89.465987 303.642073 93.267723 Q 304.514437 94.42416 305.684977 95.435538 C 305.761535 95.502023 305.771609 95.616861 305.709153 95.697449 Q 304.963715 96.648387 304.308938 97.411957 Q 301.776462 100.359461 298.667782 103.041025 Q 294.616224 106.536526 289.835344 109.872867 Q 288.743378 110.634423 287.862955 111.178391 C 287.613132 111.333523 287.415692 111.593419 287.15781 111.746536 Q 286.029579 112.411387 285.235788 113.009752 C 284.437967 113.610132 283.609926 114.039263 282.912841 114.581217 Q 282.546166 114.86529 281.587169 115.46567 C 280.98276 115.844433 280.293733 116.348108 279.822293 116.670459 Q 273.822522 120.748209 272.740628 121.539985 Q 268.402983 124.721194 266.090109 126.478011 C 265.753654 126.733878 265.525993 127.036083 265.193568 127.177111 C 265.002172 127.257699 264.752349 127.547816 264.520659 127.727124 Q 256.671394 133.775249 250.184065 140.776326 C 248.705277 142.371967 246.990768 144.59015 245.826273 146.101174 Q 244.661777 147.610183 242.481873 150.974729 Q 242.213918 151.389757 242.091022 151.756432 Q 242.024537 151.953872 242.002375 151.965961 Q 241.696141 152.149298 241.627641 151.80277 Q 241.514818 151.23261 241.285142 150.857876 C 241.130011 150.60201 241.176349 150.372334 241.017187 150.124526 Q 240.960776 150.037894 240.882203 149.840454 Q 239.342973 145.907763 237.880302 141.203442 Q 236.316896 136.17274 235.643987 131.283067 Q 235.482811 130.116556 235.462664 129.085031 C 235.436473 127.646536 235.273282 126.393394 235.386105 124.934752 Q 235.482811 123.67758 235.49087 122.990568 C 235.498928 122.194762 235.708457 121.31031 235.724575 120.633371 C 235.732633 120.345269 235.92 120.216328 235.907912 119.918153 Q 235.903883 119.853683 235.956265 119.615948 Q 236.482101 117.190251 237.126805 115.284347 Q 237.608318 113.86197 238.764755 110.858054 C 238.879592 110.559879 238.950107 110.114631 239.115312 109.733853 Q 239.286561 109.334942 239.447737 108.57943 Q 239.580707 107.964947 239.721736 107.418964 Q 240.009838 106.304836 240.13072 105.126237 Q 242.645064 105.27734 245.125157 105.259208 Q 247.097547 105.24309 248.743556 104.245814 Q 249.263348 103.929507 249.758964 103.194142 Q 249.813361 103.113554 249.897978 103.063186 L 250.047066 102.976554 Q 252.619836 102.60182 255.184547 102.140454 Q 267.583001 99.914213 278.780694 95.348906 Q 288.999245 91.184524 298.951855 85.0679 Z" style="fill:#243340;"/>
		<path d="M 237.52773 91.093863 C 237.761435 91.869522 237.773523 92.796283 238.825196 92.905077 Q 242.278389 93.265708 245.711435 93.68678 Q 246.031772 93.839897 246.380315 93.964808 C 247.911485 94.510792 249.170672 95.89086 249.716655 97.339428 Q 250.715946 99.996815 250.008786 102.90201 Q 250.000728 102.932231 250.010801 102.960437 Q 250.045051 103.059157 250.047066 102.976554 L 249.897978 103.063186 Q 249.813361 103.113554 249.758964 103.194142 Q 249.263348 103.929507 248.743556 104.245814 Q 247.097547 105.24309 245.125157 105.259208 Q 242.645064 105.27734 240.13072 105.126237 Q 238.543138 105.065796 236.95757 104.703151 C 233.907317 104.002036 231.989324 101.316443 231.660928 98.328645 C 231.403047 95.975477 231.803972 93.944661 233.766288 92.492064 Q 235.361929 91.309436 237.358495 91.08379 Q 237.416921 91.077745 237.52773 91.093863 Z M 235.398194 96.132624 Q 235.32365 98.473703 235.2894 99.410538 Q 235.251121 100.540784 235.402223 100.984018 C 235.780986 102.088072 237.19329 102.482953 238.289286 102.611894 Q 240.912423 102.920143 244.313234 103.248539 C 245.566376 103.371435 246.861827 102.930216 247.168062 101.612603 C 247.734192 99.16676 247.127768 96.064124 244.210484 95.540302 Q 243.906265 95.483891 242.985548 95.383156 Q 238.218771 94.865378 236.7561 94.748526 Q 236.083191 94.696144 235.519075 94.692114 C 235.458635 94.692114 235.408267 94.740467 235.408267 94.800908 Q 235.416326 95.554405 235.398194 96.132624 Z" style="fill:#cc8737;"/>
		<path d="M 223.906354 31.331864 Q 223.884192 31.323805 223.888222 31.311717 L 223.908369 31.265379 Q 223.912398 31.251276 223.928516 31.255306 Q 225.703465 31.76301 227.178224 32.86505 Q 227.220533 32.897285 227.166136 32.907358 L 227.164121 32.907358 Q 227.127857 32.915417 227.117783 32.911388 C 226.581873 32.647462 226.201095 32.290861 225.606759 32.041038 Q 225.173599 31.86173 223.906354 31.331864 Z" style="fill:#fbe2c2;"/>
		<path d="M 223.146752 34.138662 C 223.142783 34.166545 223.118607 34.186692 223.091086 34.183106 L 223.091086 34.183106 C 223.06421 34.180648 223.044063 34.154457 223.046642 34.12744 L 223.308049 31.796937 C 223.312018 31.769054 223.336194 31.748907 223.363715 31.752493 L 223.363715 31.752493 C 223.390591 31.754951 223.410738 31.781142 223.408159 31.808159 L 223.146752 34.138662 Z" style="fill:#cc8737;"/>
		<path d="M 225.689362 35.095321 Q 225.737715 34.994586 225.786067 34.988542 Q 225.957317 34.960336 225.822332 35.06913 Q 225.794126 35.091292 225.689362 35.095321 Z" style="fill:#cc8737;"/>
		<path d="M 225.689362 35.095321 Q 225.483863 35.324997 225.26829 35.324997 Q 225.328731 35.212173 225.443569 35.159791 Q 225.467745 35.147703 225.441554 35.141659 Q 225.36701 35.121512 225.348878 35.117483 L 225.350893 35.117483 Q 225.516098 35.115468 225.689362 35.095321 Z" style="fill:#cc8737;"/>
		<path d="M 225.26829 35.324997 Q 224.937879 35.701745 224.456367 35.852848 Q 224.464425 35.784348 224.522852 35.760171 Q 224.875424 35.455952 225.26829 35.324997 Z" style="fill:#cc8737;"/>
		<path d="M 235.398194 96.132624 Q 235.416326 95.554405 235.408267 94.800908 C 235.408267 94.740467 235.458635 94.692114 235.519075 94.692114 Q 236.083191 94.696144 236.7561 94.748526 Q 238.218771 94.865378 242.985548 95.383156 Q 243.906265 95.483891 244.210484 95.540302 C 247.127768 96.064124 247.734192 99.16676 247.168062 101.612603 C 246.861827 102.930216 245.566376 103.371435 244.313234 103.248539 Q 240.912423 102.920143 238.289286 102.611894 C 237.19329 102.482953 235.780986 102.088072 235.402223 100.984018 Q 235.251121 100.540784 235.2894 99.410538 Q 235.32365 98.473703 235.398194 96.132624 Z M 237.951965 100.793085 C 238.593505 100.583093 238.903769 99.781243 238.649272 99.00504 C 238.39405 98.22791 237.666744 97.768559 237.026936 97.979639 C 236.385396 98.189631 236.075132 98.991481 236.329629 99.767684 C 236.584851 100.544813 237.312157 101.004164 237.951965 100.793085 Z" style="fill:#fbe2c2;"/>
		<path d="M 237.951965 100.793085 C 237.312157 101.004164 236.584851 100.544813 236.329629 99.767684 C 236.075132 98.991481 236.385396 98.189631 237.026936 97.979639 C 237.666744 97.768559 238.39405 98.22791 238.649272 99.00504 C 238.903769 99.781243 238.593505 100.583093 237.951965 100.793085 Z" style="fill:#243340;"/>
	</g>
	<g id="surface4">
	</g>
</svg>
