<?xml version="1.0" encoding="utf-8"?>
<svg xmlns="http://www.w3.org/2000/svg" width="490pt" height="280pt" viewBox="0 0 490 280" version="1.1" xmlns:xlink="http://www.w3.org/1999/xlink">
	<g id="surface2">
		<path d="M 247.336973 23.142823 Q 247.89946 22.454406 248.287745 21.518325 C 248.348611 21.369308 248.287745 21.153128 248.459849 20.966332 Q 248.529111 20.890774 248.560593 20.792129 Q 248.974064 19.560113 249.230121 18.378469 Q 249.238517 18.346987 249.290988 18.288219 Q 249.356051 18.216859 249.381237 18.120312 Q 249.945824 15.836781 250.174597 15.056014 C 250.596463 13.616214 250.802148 12.543709 251.203026 11.217246 C 251.381427 10.627473 251.513653 9.743864 251.77181 9.086929 Q 252.212565 7.964053 252.418251 7.298722 Q 252.575663 6.786606 252.875797 6.314369 C 253.343837 5.581875 253.845458 4.67308 254.762649 4.274302 C 255.069079 4.139976 255.667247 4.179854 255.971578 4.408627 Q 256.628513 4.897655 256.911855 5.201986 C 257.801761 6.156956 258.641295 7.216867 259.394777 8.459377 Q 260.572223 10.402898 260.693955 10.654758 Q 261.004583 11.297002 261.229158 11.630716 Q 261.579663 12.157524 261.674111 12.501733 Q 261.785349 12.90261 262.054 13.211139 C 262.423395 13.635103 262.509447 14.375992 262.813778 14.77477 Q 263.176876 15.247008 263.273423 15.689862 Q 263.325894 15.920734 263.688992 16.61125 Q 263.947149 17.09818 264.110858 17.503255 C 264.415189 18.246243 264.839153 19.081579 265.122496 19.99667 Q 265.27781 20.494094 265.407937 20.708175 Q 265.624117 21.058681 265.699675 21.379802 Q 265.892768 22.192051 266.218087 23.002201 C 266.556 23.845933 266.667238 24.496572 266.900209 25.600558 Q 266.958976 25.879703 267.24022 26.312063 Q 268.375689 28.049898 268.761875 28.805479 Q 269.771414 30.776284 269.933024 33.303281 Q 270.088338 35.750522 269.773513 37.964792 Q 269.685362 38.573454 269.179543 40.61562 Q 268.973857 41.440462 268.64434 42.275798 Q 268.360997 42.989402 268.117533 43.94647 C 268.069259 44.135366 267.955922 44.294877 267.871969 44.494266 Q 267.638998 45.052556 266.740697 48.154634 Q 266.602174 48.639464 266.614767 48.931202 C 266.635755 49.336277 266.436366 49.560853 266.423773 49.970125 C 266.394389 50.973368 266.352413 51.896855 266.526616 52.841331 C 266.629459 53.399621 266.566494 53.865562 266.744895 54.341997 C 266.837244 54.587561 266.824651 54.873003 266.902307 55.126962 Q 267.364051 56.610838 267.70826 58.105208 C 267.756533 58.312992 267.958021 58.491393 268.037777 58.701277 Q 269.007438 61.261855 269.376833 62.006941 Q 269.914135 63.092038 270.052658 63.392172 Q 270.338099 64.015525 270.497611 64.240101 C 270.724285 64.559124 270.793547 64.972594 271.072691 65.354582 Q 271.391714 65.789041 271.557522 66.101767 Q 271.845063 66.639069 272.004574 66.861545 C 272.348783 67.342178 272.585951 67.845898 272.896579 68.313938 Q 275.293448 71.902945 277.814148 75.023912 C 279.115425 76.633718 280.33065 78.237228 281.333893 79.582581 Q 283.203955 82.096984 285.105499 85.253631 C 285.244022 85.484503 285.294394 85.8497 285.491684 86.078473 C 285.926143 86.580095 286.104544 87.276908 286.480235 87.893965 Q 286.784566 88.393488 286.996548 89.075609 C 287.088897 89.373643 287.355449 89.589823 287.42681 89.8123 Q 287.762623 90.889002 288.222268 91.743227 Q 288.32721 91.93632 288.744878 93.338342 C 288.820436 93.592301 289.024023 93.793789 289.086988 93.98898 Q 289.198226 94.33109 289.56972 95.949292 C 289.615894 96.154977 289.80269 96.381652 289.855161 96.631413 Q 290.123812 97.949481 290.356782 99.275944 Q 290.36098 99.299031 290.493207 99.876211 Q 290.558271 100.157455 290.562468 100.751425 C 290.564567 100.822785 290.608643 100.887849 290.675805 100.910936 Q 290.900381 100.990692 291.177427 100.971803 Q 291.28027 100.963407 291.376816 101.003285 C 291.970786 101.240453 292.516483 101.129215 293.041192 101.385273 Q 293.234284 101.477622 294.779027 101.920476 Q 295.234474 102.050603 295.608066 102.25419 C 296.294385 102.625684 296.945024 102.81248 297.549488 103.261631 Q 297.771965 103.427439 298.674463 103.987828 C 300.089078 104.871437 301.260227 106.409883 302.368412 108.120433 C 302.723115 108.668229 302.815464 109.165652 303.098806 109.69246 Q 303.302393 110.072349 303.468201 110.762865 Q 303.667591 111.604498 303.707468 111.887841 Q 303.825003 112.737869 303.743149 114.920656 C 303.720061 115.552406 303.552155 116.096004 303.392643 116.801212 Q 303.331777 117.07406 303.121894 117.544199 C 302.974975 117.875815 302.926702 118.247309 302.775586 118.55164 Q 301.665303 120.799492 300.330444 122.306455 Q 298.598905 124.258371 296.10549 125.872375 C 295.652142 126.166211 294.909154 126.508321 294.336173 126.921792 Q 294.048632 127.127478 294.115795 127.475884 Q 294.325678 128.560981 294.405434 128.835929 Q 294.594329 129.486567 294.604823 130.164491 C 294.613219 130.714386 294.831498 131.742814 294.671986 132.460616 Q 294.535562 133.06508 294.541858 133.392498 C 294.552353 133.957085 294.348766 134.597229 294.342469 135.214287 C 294.336173 135.917396 294.151475 136.59532 294.115795 137.245958 C 294.086411 137.81894 293.958382 138.177841 293.897516 138.742427 Q 293.868133 138.99009 293.756894 139.323805 Q 293.039093 141.483505 291.017915 143.219241 Q 289.332551 144.665338 287.55274 145.464994 Q 287.22742 145.611913 286.488631 145.937232 Q 285.605021 146.327615 285.418225 146.396877 Q 280.72733 148.109526 275.616668 149.051902 Q 274.924053 149.177832 274.634414 149.257588 Q 274.013159 149.427594 273.662653 149.461175 Q 272.766451 149.545128 271.824074 149.761308 C 271.332947 149.872547 270.797744 149.838965 270.302419 149.964895 Q 269.744129 150.109715 269.521653 150.107616 C 269.091392 150.107616 268.831136 150.260831 268.449148 150.281819 Q 267.183551 150.35318 265.764739 150.619732 C 265.118298 150.741464 264.566305 150.647016 264.073079 150.796034 Q 263.592445 150.942952 263.374167 150.92826 Q 263.00897 150.907272 262.652168 150.997522 C 261.842018 151.19901 260.9731 151.041597 260.236409 151.236789 C 259.577375 151.410992 258.880562 151.314446 258.154365 151.459265 C 257.283349 151.63137 256.18356 151.490748 255.140439 151.677544 C 254.244237 151.837056 253.251488 151.72162 252.45603 151.853846 Q 251.580816 152.000765 250.869311 151.981875 Q 249.081104 151.931503 246.948688 152.057433 C 243.548576 152.254724 239.936482 152.18966 236.91626 152.179166 Q 235.732517 152.177067 234.739768 152.107805 Q 233.010329 151.99027 232.57587 151.983974 Q 230.869518 151.965084 229.110694 151.960887 C 228.795869 151.958788 228.41598 151.786684 228.052882 151.784585 C 227.045441 151.774091 226.195413 151.849649 225.656013 151.66705 Q 225.399955 151.578899 225.143897 151.589393 Q 224.413503 151.622974 222.136267 151.387905 Q 212.361995 150.380464 205.190278 148.730781 Q 205.171388 148.726583 204.71804 148.64263 Q 204.279384 148.562874 203.69171 148.363485 Q 203.215275 148.201874 201.645347 147.863962 Q 200.917051 147.708648 200.041837 147.385428 Q 199.170821 147.066405 198.39845 146.942574 Q 198.274618 146.921585 198.192764 146.852324 Q 198.115107 146.785161 198.020659 146.75158 Q 197.300759 146.501818 196.408755 146.243662 Q 195.911331 146.100941 195.248099 145.8155 Q 194.593263 145.532157 194.475728 145.502773 Q 194.047566 145.39993 193.692863 145.213134 Q 193.132474 144.9151 192.116638 144.461751 C 191.755639 144.300141 191.445011 144.046182 191.15957 143.890868 Q 188.741712 142.570701 187.331296 140.427791 C 186.31546 138.885148 186.082489 137.138918 186.025821 135.390589 Q 185.977547 133.854242 186.019524 130.481415 Q 186.027919 129.776207 186.109774 129.501259 Q 186.22521 129.108777 186.227309 128.846423 Q 186.227309 128.676417 186.426698 128.223069 Q 187.100424 126.699315 188.489852 125.662491 C 188.924311 125.339271 189.327287 125.192352 189.728165 124.911108 C 190.250774 124.543812 190.987465 124.415783 191.474395 124.168121 Q 191.885766 123.962435 192.152318 123.882679 Q 192.542702 123.767244 192.561591 123.758848 Q 192.823945 123.637116 194.461036 123.204756 Q 197.752009 122.340036 199.569599 122.167932 Q 200.425924 122.088176 201.439661 121.890886 C 202.308578 121.72088 202.982304 121.725078 203.960361 121.613839 Q 206.029812 121.37877 207.559862 121.173084 C 207.664804 121.160491 207.767647 121.21716 207.807525 121.315805 Q 207.897774 121.534084 207.897774 121.785944 Q 207.897774 121.922368 207.76135 121.939159 Q 206.936508 122.039903 204.32136 122.65696 Q 204.042216 122.724123 203.763071 122.776594 Q 203.114531 122.898326 199.926401 123.725267 Q 198.935751 123.981325 198.339682 124.220592 C 197.510643 124.554306 196.683702 124.724312 195.774907 125.125189 Q 195.073896 125.433718 194.77796 125.494584 Q 194.307821 125.591131 193.888054 125.882869 Q 193.854473 125.905956 192.991852 126.306833 Q 192.030586 126.758083 190.916105 127.857872 Q 189.780635 128.976551 190.33053 130.48981 Q 190.462757 130.857106 191.489087 131.75121 C 192.047377 132.240238 192.567888 132.645313 193.392729 133.008412 Q 193.743235 133.163725 194.108432 133.375708 C 194.643635 133.686335 195.172541 133.808068 195.762314 134.09141 Q 196.100226 134.253021 196.742469 134.454509 Q 198.016462 134.855386 198.625124 135.061072 Q 199.235885 135.268856 200.255918 135.506025 C 200.998906 135.680228 201.798561 135.948879 202.428212 136.095797 C 206.315253 137.012988 210.40798 137.821039 214.471324 138.261794 Q 214.576266 138.274387 215.79359 138.450689 C 216.45892 138.549335 216.977332 138.494765 217.569204 138.641683 C 218.291203 138.822183 219.267161 138.675265 219.984962 138.862061 C 220.683874 139.04466 221.630448 138.906136 222.472081 139.063549 C 223.112225 139.185281 224.000032 139.103427 224.816479 139.237752 C 226.035902 139.43924 227.26372 139.348991 228.510428 139.500107 C 229.188351 139.581961 229.948129 139.567269 230.651239 139.588258 C 231.264098 139.607147 232.002888 139.804438 232.61155 139.798141 C 234.966442 139.770856 237.615171 139.989135 239.678326 140.001728 Q 246.606578 140.043705 251.66267 139.884193 C 253.373221 139.829624 255.129945 139.772955 257.193099 139.653322 C 258.305482 139.588258 259.890102 139.615543 260.86606 139.472822 C 261.823128 139.334299 262.889336 139.416153 263.913567 139.275531 Q 264.906316 139.141206 265.22324 139.149601 C 265.844495 139.166392 266.30414 138.983793 266.971569 138.962805 Q 267.794312 138.939718 268.468038 138.830578 C 269.122874 138.723538 269.777711 138.784404 270.344396 138.668968 C 271.108372 138.511556 271.891237 138.595509 272.506195 138.423405 Q 272.65941 138.381428 277.887607 137.674121 Q 278.378734 137.606958 279.239256 137.40547 Q 279.833227 137.264848 280.091383 137.273243 C 280.467075 137.283737 280.790295 137.103238 281.224754 137.02768 Q 282.389607 136.826192 282.714926 136.750634 Q 285.302789 136.158762 287.970408 135.401083 Q 290.03776 134.813409 291.320147 134.175364 Q 291.78399 133.944492 292.088321 133.818562 C 292.667599 133.579295 293.110453 133.207801 293.53022 132.968534 Q 293.979371 132.716674 294.1074 132.403947 C 294.77273 130.771054 293.06218 129.253597 292.174373 128.141215 C 292.124001 128.07825 292.040048 128.055162 291.966588 128.082447 Q 286.834938 129.965102 281.056847 131.111065 Q 278.767019 131.566512 277.159311 131.87714 C 276.151871 132.072332 275.385796 132.403947 275.089861 133.468056 C 274.823309 134.425125 275.303942 134.846991 275.939889 135.472443 C 276.04483 135.575286 276.004952 135.749489 275.866429 135.797763 Q 275.427773 135.950978 275.247273 135.974065 Q 271.941609 136.391733 270.62564 136.578529 Q 267.040831 137.090645 263.168481 137.313121 C 262.685749 137.342505 262.133756 137.499917 261.665715 137.491522 C 260.761118 137.472633 259.896398 137.65733 259.092544 137.667824 C 256.901361 137.697208 254.72487 137.970056 252.483315 137.92808 Q 251.085491 137.902894 249.272098 138.102283 Q 249.024436 138.129568 249.011843 137.881905 Q 249.009744 137.848324 249.005546 137.825237 C 248.986657 137.730789 249.053819 137.640539 249.148267 137.630045 Q 250.199783 137.504115 250.386579 137.432755 Q 250.886102 137.239662 253.045802 136.158762 Q 253.438284 135.963571 253.688046 135.720106 C 253.942005 135.476641 254.273621 135.405281 254.596841 135.180705 Q 256.941239 133.554109 259.403172 131.51614 C 259.787259 131.201315 260.16295 130.726979 260.586915 130.433142 Q 260.675066 130.372276 260.780007 130.368078 C 261.655221 130.330299 262.748714 130.357584 263.655411 130.242148 C 264.828659 130.095229 265.905361 130.219061 267.013546 129.994485 Q 267.340964 129.929422 268.900398 129.786701 Q 270.073646 129.67966 270.923674 129.541137 Q 272.21026 129.331254 272.946951 129.293475 C 273.354125 129.272486 273.635368 129.083591 274.078222 129.089888 Q 274.20835 129.089888 274.693181 128.984946 Q 274.968128 128.92408 275.320732 128.871609 Q 276.848684 128.647034 280.731528 127.813796 Q 284.822156 126.938582 289.403912 125.173463 Q 291.601391 124.327632 293.876528 122.988576 Q 294.346667 122.71153 295.750787 121.601246 Q 297.54529 120.180335 298.580016 118.408919 Q 298.758417 118.100391 298.888545 117.913594 Q 299.07744 117.636548 299.157195 117.403578 Q 299.681904 115.835748 299.753264 115.451661 Q 299.824625 115.071772 299.83302 114.127297 Q 299.837218 113.499745 299.684003 112.813427 Q 299.406957 111.587707 298.724835 110.439645 Q 298.055307 109.312571 297.117128 108.500322 Q 294.571242 106.298644 291.09977 105.698378 C 291.00952 105.681587 290.929764 105.757145 290.93816 105.847395 C 291.0452 106.90101 291.116561 107.828695 291.051497 108.949472 C 290.965444 110.479523 291.068287 111.770306 290.84791 113.073682 C 290.75766 113.615181 290.782846 114.188163 290.700991 114.704476 Q 290.287521 117.359502 290.121713 118.387931 C 289.926521 119.609453 289.450086 120.868753 289.259092 122.004223 C 289.181435 122.482757 288.982046 122.663257 288.514006 122.808076 Q 281.287719 125.045434 274.025752 126.183002 C 273.414991 126.279548 272.422242 126.365601 271.605795 126.502025 Q 270.986639 126.606967 270.640332 126.648943 Q 268.604462 126.898705 263.420341 127.471686 Q 263.11601 127.505268 263.233545 127.221925 C 263.355277 126.919693 263.695288 126.734995 263.92616 126.468444 C 265.034345 125.198649 265.739553 124.270964 266.658843 122.950797 C 267.540353 121.678903 268.274945 120.377626 269.110281 119.057459 Q 269.248804 118.83918 269.320165 118.593617 C 269.339054 118.526454 269.372636 118.465588 269.41881 118.413117 C 269.685362 118.098292 269.781908 117.689019 269.981298 117.414072 Q 270.142908 117.191595 270.159699 117.042578 C 270.191181 116.748741 270.491314 116.459102 270.627739 116.125387 C 270.678111 116.005754 270.799843 115.934393 270.927872 115.951184 Q 271.931115 116.079213 273.140043 116.35416 Q 273.807473 116.505276 274.055135 116.507375 C 274.493792 116.509474 274.810716 116.664788 275.259866 116.681578 Q 278.095392 116.78652 278.783809 116.713061 Q 283.078025 116.249219 285.875771 113.180723 Q 286.545299 112.446131 287.009142 111.573015 Q 287.521257 110.611749 287.733239 109.730239 Q 287.817193 109.379733 287.873861 109.195036 C 288.09214 108.494025 288.029175 107.698567 288.012384 106.697423 C 288.006088 106.349016 287.857071 106.076168 287.82139 105.702575 Q 287.796204 105.425529 287.760524 105.293303 Q 286.969264 102.325551 284.920801 100.50796 Q 283.319391 99.089148 281.19537 98.354556 Q 280.939312 98.266405 280.148052 97.955777 Q 279.491116 97.69972 279.065053 97.619964 C 278.267496 97.468848 277.637846 97.24847 276.892759 97.15822 Q 276.550649 97.116244 276.624109 96.778331 Q 276.875969 95.638664 277.119434 94.255532 C 277.1803 93.89873 277.314625 93.476865 277.327218 92.950057 C 277.331416 92.725482 277.446852 92.526093 277.461544 92.360285 Q 277.621055 90.431456 277.839334 89.021039 Q 277.950572 88.292744 277.946374 87.631611 C 277.940078 87.008257 278.124775 86.393298 278.135269 85.757352 Q 278.160455 84.195819 278.126874 84.01322 C 278.04502 83.585058 277.474137 82.659472 276.9998 82.399216 C 276.663986 82.216618 276.412126 81.908089 276.017545 81.67302 C 273.328939 80.075807 270.325506 78.772431 267.317877 77.817461 Q 262.435988 76.266422 259.273044 75.703935 C 256.892966 75.282069 254.485603 74.765756 252.071943 74.526488 C 251.677362 74.486611 250.940671 74.316605 250.350899 74.310308 C 249.786312 74.304012 249.242714 74.12771 248.720105 74.125611 Q 248.121937 74.121413 247.784024 74.066844 Q 246.568799 73.871652 244.954796 73.873751 C 244.585401 73.873751 244.272674 73.701646 243.934762 73.699548 Q 240.862068 73.691152 236.569952 73.682757 C 234.69989 73.678559 232.926375 73.894739 230.817047 74.064745 C 230.724698 74.07314 230.644942 73.997582 230.647041 73.903135 C 230.661733 73.336449 230.701611 72.694206 230.825442 72.154805 Q 231.161255 70.673028 231.421511 69.980413 Q 231.576825 69.562745 232.35969 68.137636 Q 233.117369 66.756603 234.821623 65.03346 Q 238.807309 61.003698 240.975405 58.701277 Q 242.297671 57.297156 243.733274 55.294868 C 243.985134 54.944363 244.134151 54.436445 244.541325 54.077544 C 244.5875 54.037666 244.616883 53.980998 244.62318 53.922231 Q 244.656761 53.603208 244.247488 53.561231 Q 243.718582 53.50876 243.221158 53.569626 Q 241.684811 53.76062 240.356249 54.323108 C 239.441157 54.709294 238.469397 54.927572 237.487143 55.013624 C 236.947742 55.061898 236.475504 55.217211 236.007464 55.225607 Q 233.898136 55.269682 232.535992 55.213014 C 232.307219 55.20252 232.154004 55.038811 231.944121 55.038811 C 231.18854 55.036712 230.682721 54.810038 229.994304 54.654724 Q 229.547252 54.55398 229.377246 54.453236 C 228.865131 54.153102 228.313137 54.006184 227.78633 53.609504 C 226.600488 52.721697 225.653914 51.92414 224.982287 50.692124 Q 224.233003 49.319487 223.722986 47.462018 Q 223.632736 47.128303 223.393469 46.802984 C 223.070249 46.36013 223.055557 46.059997 223.078644 45.594055 Q 223.089138 45.398864 223.296923 45.098731 Q 224.671659 43.140518 225.366374 42.305182 Q 226.103064 41.421573 226.65086 40.640806 Q 227.034947 40.090912 227.030749 39.622871 Q 227.022354 38.997419 226.833459 38.479007 C 226.739011 38.216652 226.724319 37.985781 226.657157 37.796885 Q 226.054791 36.136707 226.348628 34.350599 Q 226.457767 33.691565 226.801976 33.068211 C 227.120999 32.493131 227.374958 31.997806 227.746452 31.506679 Q 230.817047 27.445434 234.979035 24.28249 C 235.071384 24.213229 235.113361 24.095694 235.086076 23.982357 Q 234.164688 20.023955 233.965298 18.77305 Q 233.807886 17.778202 233.574915 16.678413 C 233.192927 14.869218 232.951561 12.900511 232.664021 11.28231 C 232.592661 10.883531 232.596858 10.402898 232.594759 10.07548 C 232.594759 9.724975 232.743777 9.523487 233.056503 9.447928 Q 233.163544 9.420644 233.381822 9.565463 C 234.66421 10.407096 236.009563 11.544664 237.124044 12.356913 Q 238.817804 13.593127 239.497826 14.159812 C 240.599714 15.0812 241.848521 15.916536 242.981891 16.848419 C 244.308355 17.939813 245.672597 18.867498 247.015851 20.01556 C 247.30549 20.263222 247.73785 20.408042 247.964524 20.731263 C 248.004402 20.785832 248.021193 20.855094 248.014896 20.922256 Q 247.968722 21.409186 247.802914 21.717715 C 247.565746 22.15847 247.534263 22.508975 247.26981 22.949731 Q 247.238327 23.002201 247.26981 23.054672 L 247.318083 23.140724 Q 247.326478 23.155416 247.336973 23.142823 Z M 234.37667 37.005625 C 233.803688 37.96899 233.803688 38.68889 233.881345 39.834854 C 233.900234 40.137086 234.021967 40.30919 234.252839 40.470801 Q 235.144843 41.089957 236.276115 40.917852 Q 239.361402 40.449812 241.527399 38.105414 Q 242.127666 37.454775 242.46138 36.745369 C 242.532741 36.592154 242.431997 36.411655 242.261991 36.394864 Q 241.298626 36.289922 239.988953 35.817685 C 239.678326 35.706446 239.413873 35.746324 239.176704 35.660272 Q 238.85978 35.544836 238.574339 35.528045 Q 237.380102 35.462982 236.301301 35.614098 Q 235.562511 35.716941 235.188919 36.046458 Q 234.676803 36.501905 234.37667 37.005625 Z" style="fill:#020202;"/>
		<path d="M 222.446895 50.08766 Q 222.285285 50.098154 222.121575 50.127538 Q 221.926384 50.163218 221.800454 50.163218 Q 219.374201 50.154823 216.259531 50.184206 Q 215.176532 50.194701 214.234156 50.314334 C 213.396721 50.423474 212.410268 50.39409 211.52456 50.496933 Q 211.287392 50.524218 209.816109 50.654345 C 208.802372 50.742496 207.224049 50.996455 205.901783 51.019543 Q 205.624737 51.02374 204.648779 51.328071 Q 204.631988 51.334368 204.621494 51.317577 L 204.590011 51.263007 Q 204.562726 51.216833 204.613098 51.193746 Q 205.181883 50.912502 205.796841 50.822252 Q 206.839962 50.666938 206.867247 50.662741 Q 208.176919 50.387793 209.505482 50.24927 Q 211.994699 49.989015 212.158408 49.970125 Q 215.266782 49.615422 218.377255 49.772835 Q 219.439265 49.825306 220.627205 49.762341 Q 221.821442 49.697277 222.870859 49.774934 Q 223.798544 49.844195 222.893947 50.058276 Q 222.885551 50.060375 222.446895 50.08766 Z" style="fill:#020202;"/>
		<path d="M 210.800462 54.260143 Q 210.888613 54.167794 211.11109 54.079643 Q 214.204772 52.837133 214.309714 52.818244 C 214.517498 52.780465 214.834422 52.704907 214.985538 52.637744 Q 215.73902 52.299832 216.712879 52.041675 Q 217.967982 51.705861 218.452813 51.548449 Q 219.680631 51.151769 220.450903 51.072013 Q 221.57378 50.956577 222.142564 50.721508 Q 222.430104 50.603973 223.622242 50.601874 Q 223.790149 50.601874 223.775457 50.769781 L 223.764963 50.868426 Q 223.743975 51.07831 223.53619 51.044729 C 222.940121 50.946083 222.388127 51.214734 221.985151 51.281897 Q 220.534857 51.529559 219.009004 52.056367 Q 217.548215 52.560087 215.669758 53.120476 Q 214.271935 53.536045 212.878309 54.077544 Q 211.780618 54.503608 210.082661 55.049305 Q 209.530668 55.227706 208.894721 55.565618 Q 208.323838 55.872048 208.095065 55.924519 Q 207.595542 56.037856 207.272322 56.20996 Q 206.793787 56.463919 205.06015 57.16493 Q 204.189134 57.517534 204.961505 56.98443 C 205.767457 56.428239 206.961694 56.002176 207.740362 55.519444 Q 207.826414 55.464874 208.516931 55.252892 Q 208.87793 55.141653 209.243127 54.889793 Q 209.879074 54.451137 210.622062 54.350393 Q 210.727003 54.3378 210.800462 54.260143 Z" style="fill:#020202;"/>
		<path d="M 223.548783 51.54635 L 223.649527 51.424618 Q 223.729283 51.328071 223.82373 51.409926 Q 223.93287 51.504373 223.918178 51.611414 Q 223.905585 51.697466 223.773358 51.800309 C 223.66212 51.88846 223.561376 52.008094 223.437545 52.052169 Q 222.344052 52.442552 221.808849 52.76997 Q 221.424762 53.00504 220.761531 53.212825 C 220.249415 53.372336 219.819154 53.687161 219.361608 53.857167 Q 218.322685 54.24755 217.16203 54.933869 Q 216.547071 55.296967 214.695899 56.186873 Q 214.672812 56.195268 214.666516 56.17428 Q 214.664417 56.167983 214.664417 56.161687 Q 214.660219 56.153292 214.670713 56.146995 Q 215.566915 55.513147 216.528182 54.982142 C 216.677199 54.900287 216.798931 54.736578 216.960542 54.64423 Q 219.697422 53.101586 220.285095 52.858122 Q 221.162408 52.497122 222.010337 52.066861 Q 222.312569 51.913646 223.460632 51.603019 C 223.494213 51.592524 223.525696 51.573635 223.548783 51.54635 Z" style="fill:#020202;"/>
		<path d="M 207.572455 81.171398 C 207.773943 81.013986 207.908269 81.032875 208.113954 80.951021 Q 209.893766 80.258405 210.781573 79.977162 Q 215.537532 78.480693 220.505473 77.727211 C 220.746839 77.691531 221.426861 77.69363 221.762675 77.565601 C 222.22232 77.391397 222.669371 77.487944 223.13951 77.364113 C 223.813236 77.183613 224.386218 77.326334 225.083031 77.156328 Q 225.656013 77.013607 226.252082 77.028299 C 226.703331 77.040892 227.131493 76.851997 227.580644 76.8457 Q 229.536758 76.824712 229.631205 76.820514 C 229.988007 76.812119 230.309129 76.654707 230.655436 76.64841 Q 232.252649 76.623224 237.283556 76.505689 C 239.76018 76.446922 242.44459 76.652608 245.034551 76.625323 C 245.456417 76.621125 245.874085 76.807921 246.266567 76.81002 Q 247.838594 76.820514 248.623558 76.908666 Q 248.627756 76.910764 249.156662 76.961136 Q 250.753875 77.11645 252.544181 77.359915 Q 256.324182 77.874129 259.396875 78.482791 C 260.251101 78.652797 260.870257 78.835396 262.012023 79.118738 Q 265.905361 80.086301 269.727339 81.662526 Q 272.413847 82.768611 273.610182 83.543081 C 274.22724 83.943959 275.543209 84.678551 274.718367 85.47191 Q 274.306995 85.866491 274.053036 86.007113 Q 272.485207 86.87603 270.808238 87.526669 C 270.327605 87.711366 269.933024 87.723959 269.576223 87.946436 Q 269.29288 88.122738 268.237166 88.412377 Q 267.317877 88.664237 266.885517 88.809057 Q 265.615722 89.237219 264.511735 89.436608 Q 263.940852 89.54155 263.716277 89.625503 C 263.038353 89.88366 262.515743 89.885759 261.644727 90.078852 Q 261.20817 90.175398 260.225915 90.362194 Q 259.682317 90.465037 258.807103 90.65813 C 258.385237 90.750479 257.71361 90.687514 257.182605 90.792455 Q 255.986269 91.031723 254.055342 91.218519 C 253.921016 91.231112 253.692243 91.325559 253.511744 91.325559 Q 252.659617 91.321362 252.357385 91.382228 Q 251.551432 91.539641 251.253398 91.533344 Q 250.162004 91.508158 249.496673 91.604704 C 248.061071 91.812489 246.413485 91.678164 245.34308 91.797797 Q 243.810931 91.967803 242.958804 91.948913 C 241.928276 91.925826 238.937437 92.030768 236.935149 91.827181 C 235.501645 91.682361 234.187775 91.856565 232.806742 91.602606 Q 232.519201 91.550135 231.27879 91.514455 Q 230.437158 91.489268 229.752938 91.401117 Q 224.044108 90.672822 223.114324 90.465037 Q 221.836134 90.181695 220.692269 89.990701 Q 219.577788 89.801806 218.446516 89.497475 Q 217.399198 89.212033 216.18817 88.989557 C 215.888037 88.934987 215.680253 88.783871 215.390613 88.704115 Q 212.236065 87.822605 211.138375 87.383948 Q 209.587336 86.764792 209.062628 86.586391 Q 208.621872 86.437374 208.034199 86.112055 Q 207.927158 86.053287 207.337386 85.847601 C 206.795886 85.660805 206.313154 85.285114 205.790545 85.073132 Q 205.278429 84.863248 205.068546 84.676452 C 204.522849 84.197918 203.947768 84.172732 204.197529 83.22196 Q 204.262593 82.970099 204.606802 82.73503 Q 204.676064 82.686757 205.769556 82.002537 Q 206.239695 81.7087 206.661561 81.574375 Q 207.335287 81.360293 207.572455 81.171398 Z" style="fill:#020202;"/>
		<path d="M 275.713214 101.402064 Q 275.874825 100.625495 275.929394 100.123873 C 275.939889 100.025228 276.042731 99.966461 276.132981 100.006339 C 276.462498 100.155356 276.779422 100.086094 277.148817 100.178443 Q 279.310617 100.717844 280.001133 100.957111 Q 283.178769 102.054801 284.771784 105.003664 Q 284.987964 105.40664 285.260812 106.875824 Q 285.476992 108.038578 284.885121 109.560233 Q 284.169418 111.398812 282.605787 112.504898 C 282.141944 112.834415 281.270928 113.296158 280.630784 113.489251 Q 278.605408 114.100012 276.479289 113.997169 Q 276.158167 113.982477 275.46975 113.850251 C 274.991215 113.760001 274.544164 113.772594 274.097112 113.67185 Q 273.030904 113.43678 272.145196 113.285664 C 272.031859 113.266775 271.964696 113.147141 272.008772 113.0422 Q 273.349927 109.675669 274.195757 106.888417 Q 274.82121 104.825263 275.408883 102.676056 Q 275.580988 102.046406 275.713214 101.402064 Z" style="fill:#020202;"/>
		<path d="M 204.959406 125.637305 Q 204.978296 125.614218 204.999284 125.597427 Q 205.007679 125.591131 205.028668 125.584834 Q 208.521128 124.718016 209.574743 124.474551 Q 209.906359 124.396894 210.126737 124.655051 C 212.305327 127.207233 214.966649 129.967201 217.30475 131.675652 Q 218.557755 132.594941 219.653346 133.438673 C 219.957677 133.675841 220.36695 133.808068 220.734246 134.095608 Q 220.935734 134.253021 222.705051 135.338118 C 223.748172 135.978262 224.852159 136.620506 226.100966 137.180895 Q 226.283564 137.262749 226.281465 137.300528 C 226.270971 137.439051 226.142942 137.541894 226.00232 137.523005 Q 224.856357 137.376086 223.848916 137.264848 Q 223.403963 137.216575 222.371337 137.06336 Q 221.046972 136.866069 220.883263 136.893354 Q 220.56424 136.943726 220.112991 136.75693 Q 219.987061 136.704459 219.313335 136.651988 Q 219.040487 136.631 218.681586 136.530256 C 218.406639 136.452599 218.039342 136.448401 217.804273 136.416919 Q 215.82927 136.150367 210.315632 134.95613 C 207.360473 134.315986 204.117774 133.400894 201.233975 131.925413 Q 200.910754 131.759605 199.827756 130.76056 Q 199.422681 130.389066 199.407989 129.933619 C 199.387001 129.333353 199.338727 128.821237 199.745901 128.338505 Q 200.41543 127.545146 200.980016 127.217727 Q 202.598217 126.281647 204.923726 125.660392 Q 204.944714 125.654096 204.959406 125.637305 Z" style="fill:#020202;"/>
	</g>
	<g id="surface4">
	</g>
</svg>
