<?xml version="1.0" encoding="utf-8"?>
<svg xmlns="http://www.w3.org/2000/svg" width="490pt" height="280pt" viewBox="0 0 490 280" version="1.1" xmlns:xlink="http://www.w3.org/1999/xlink">
	<g id="surface2">
		<path d="M 251.266458 55.12041 Q 251.496586 55.094841 251.698587 55.215018 Q 251.818765 55.289171 251.765069 55.417019 Q 251.435219 56.176441 251.36618 58.066046 Q 251.330383 59.058152 251.074685 60.730414 Q 250.813874 62.425689 250.448226 63.328301 Q 249.878021 64.732081 249.062346 65.754871 Q 248.704369 66.202341 248.231329 66.567989 C 247.592085 67.064042 247.246893 67.452702 246.758511 67.969211 C 246.707371 68.022908 246.709928 68.104731 246.761068 68.158428 L 246.842891 68.240251 C 246.906815 68.304175 247.011651 68.309289 247.08069 68.247922 Q 248.643002 66.887611 250.330605 65.972214 C 250.496809 65.882719 250.686025 66.043809 250.622101 66.22024 Q 250.586303 66.322519 250.473796 66.427355 C 250.414986 66.483609 250.371517 66.557761 250.353618 66.637027 C 250.161845 67.506399 249.908705 68.07149 249.901034 68.935748 Q 249.890806 70.1094 249.89592 73.474379 Q 249.89592 73.929521 249.509816 74.959982 Q 249.292473 75.542972 248.732496 76.264039 Q 247.827327 77.422349 246.917043 78.240581 Q 246.814764 78.335189 246.796866 78.524406 C 246.786638 78.636912 246.899145 78.718736 247.003981 78.677824 C 247.68925 78.406785 247.911707 78.143416 248.791306 77.491387 C 249.752729 76.780548 250.146503 76.154089 250.785747 75.271933 Q 251.051672 74.908842 251.348282 74.770766 Q 251.685802 74.617347 251.588637 74.975324 C 251.325269 75.946974 251.483801 76.972321 251.320155 77.908174 Q 250.747392 81.150419 250.703924 81.784549 Q 250.491695 84.944971 250.215542 86.082825 Q 249.56607 88.744636 246.786638 90.191884 C 246.441446 90.370872 246.341724 90.815786 246.341724 91.212117 Q 246.341724 101.905388 246.298255 114.958747 Q 246.298255 115.217001 246.047672 115.270698 Q 245.965849 115.28604 245.924937 115.270698 C 245.756177 115.199103 245.641113 115.101938 245.635999 115.027785 Q 245.331719 110.663028 245.231997 107.538405 Q 245.22944 107.479594 245.063236 103.846132 C 244.971185 101.790324 245.03511 99.79844 244.907261 97.798886 Q 244.715488 94.825123 244.761513 90.713507 Q 244.76407 90.480822 244.556955 90.370872 C 244.122269 90.145858 243.754065 90.035908 243.413987 89.614008 Q 242.992086 89.097499 242.613654 88.634686 C 241.698257 87.522402 241.084583 86.26437 240.780303 84.88616 C 240.64734 84.2776 240.455567 83.745749 240.3763 83.257367 Q 239.921159 80.46515 239.831665 79.626462 Q 239.762626 78.979547 239.545284 78.445139 C 239.335612 77.923516 239.376523 77.202449 239.120826 76.616902 C 238.683583 75.619682 238.819103 74.070154 238.883027 73.003896 C 238.890698 72.891389 239.005762 72.822351 239.108041 72.868376 L 239.205206 72.911845 Q 239.419992 73.011567 239.409764 73.246808 Q 239.348396 74.576436 239.992754 77.102727 Q 240.151287 77.724072 240.36863 79.432132 Q 240.550175 80.876823 240.73172 81.659257 C 240.95162 82.607895 241.08714 83.58466 241.478357 84.571652 Q 242.534388 87.218122 244.743614 89.064258 C 244.792197 89.105169 244.866349 89.102612 244.912375 89.056587 L 244.986527 88.984992 Q 245.019768 88.949194 244.989084 88.913396 Q 242.825883 86.428016 242.378412 83.316177 Q 242.245449 82.398223 242.710819 81.331964 C 242.861681 80.981659 242.669907 80.587885 242.424438 80.283605 Q 239.737057 76.972321 239.558068 72.740527 Q 239.476245 70.812568 239.473688 70.794669 Q 239.384194 69.541751 239.289586 68.616126 C 239.279358 68.513847 239.327941 68.414125 239.417435 68.365543 Q 239.721715 68.196782 239.849564 68.51129 Q 240.493921 70.073602 240.616656 71.840472 Q 240.813543 74.663373 241.440002 76.27171 Q 241.89003 77.422349 242.347728 77.887719 Q 242.731275 78.278936 243.109707 78.72385 C 243.587862 79.283827 244.18108 79.608563 244.656677 80.206895 C 244.756399 80.332187 244.9584 80.275934 244.978856 80.117401 C 245.188528 78.424683 245.001869 76.714067 244.025104 75.27449 Q 243.135277 73.965319 242.493476 73.159871 Q 241.938612 72.464374 241.72127 72.057815 C 241.411875 71.472268 241.018101 71.121962 240.826328 70.513402 Q 240.48625 69.426687 240.043894 68.357872 Q 239.575967 67.227689 239.460903 66.151202 Q 239.233333 64.059596 239.192421 63.29506 Q 239.108041 61.717407 238.957179 60.423577 Q 238.71171 58.308959 238.724494 55.7213 Q 238.727051 55.266158 238.622215 54.637142 Q 238.586418 54.422356 238.801204 54.384001 Q 238.834444 54.378887 238.908597 54.363546 Q 239.110598 54.327748 239.120826 54.532306 Q 239.166851 55.58578 239.491587 57.112294 Q 239.501815 57.163434 239.468574 57.212016 Q 239.422549 57.283611 239.435334 57.365435 Q 239.982526 60.901732 240.141059 64.384332 Q 240.215211 65.990112 240.414655 66.675382 Q 240.747062 67.820907 241.460458 68.769545 C 242.230108 69.792335 243.57252 71.065708 244.730829 71.981106 C 244.825438 72.055258 244.968628 71.999004 244.986527 71.878827 C 245.099034 71.173101 245.114376 70.395781 244.84845 69.638916 Q 244.784526 69.454814 244.631107 68.820684 C 244.454676 68.09706 243.996978 67.347866 243.337278 66.665154 Q 241.294255 64.542864 240.657568 62.520297 Q 240.18197 61.011681 239.808652 57.830804 Q 239.795867 57.728525 239.721715 57.654373 Q 239.668018 57.603233 239.675689 57.529081 Q 239.688474 57.383333 239.834222 57.403789 Q 240.450453 57.493283 240.662682 58.089059 C 240.997645 59.017241 241.112709 60.157652 241.463015 61.001454 C 241.887473 62.029358 242.611097 62.740197 243.319379 63.637695 Q 243.756622 64.192559 243.950952 64.325522 C 243.994421 64.356205 244.053231 64.320408 244.04556 64.266711 Q 244.007205 64.018684 243.759179 63.443365 Q 243.639001 63.167212 243.529051 62.504955 C 243.375633 61.574216 243.472798 60.502843 243.49581 59.538864 Q 243.513709 58.810126 243.275911 58.452149 C 241.376078 55.606236 239.754955 52.985336 240.314933 49.707294 Q 240.524605 48.467161 240.92605 47.316522 Q 241.209874 46.503403 241.217545 45.777222 Q 241.253343 42.696067 240.849341 39.750432 C 240.831442 39.607241 240.974633 39.499848 241.105038 39.556102 C 241.910486 39.901293 242.401425 43.000347 242.516489 43.959213 C 242.603426 44.662381 242.749174 45.217245 242.946061 45.961325 Q 243.053454 46.370441 243.270797 46.702848 Q 244.150396 48.063158 244.930274 48.981113 C 244.981413 49.04248 245.078578 49.032252 245.116933 48.960657 C 245.699923 47.8586 246.722713 46.713075 245.612986 45.375777 Q 244.784526 44.378557 244.191308 42.869942 C 243.948395 42.25371 243.963737 41.803683 244.186194 41.253933 C 244.26546 41.057046 244.221991 40.834589 244.076244 40.683728 Q 243.224771 39.806685 242.396311 38.451488 Q 241.700814 37.316191 241.470686 35.853601 Q 241.151064 33.828477 241.284027 32.322418 Q 241.416989 30.84193 241.437445 30.343319 Q 241.493699 28.970224 241.634332 28.410246 C 241.790308 27.783787 242.212209 26.351881 242.805427 25.891625 Q 242.933276 25.791903 242.994643 25.942765 Q 243.199201 26.431147 243.094365 27.016694 C 242.838668 28.448601 243.153176 29.908634 244.175966 30.923753 Q 244.651563 31.394236 244.971185 31.859606 Q 245.076021 32.013024 245.065793 31.826365 Q 245.006983 30.785676 245.134832 30.576004 C 245.607872 29.803798 245.720379 28.842375 246.571852 28.228701 C 246.651118 28.172447 246.671574 28.065054 246.622991 27.983231 Q 245.878911 26.727756 244.838222 25.756106 C 244.403537 25.349547 244.055788 24.439263 243.991864 23.927868 Q 243.743837 21.974339 243.733609 21.358108 Q 243.71571 20.10519 243.541836 18.844601 Q 243.531608 18.773006 243.419101 16.325981 Q 243.176188 11.015143 243.288695 5.377012 C 243.291252 5.27729 243.350063 5.187796 243.442114 5.149441 C 243.705482 5.034378 243.958623 5.210809 244.007205 5.499747 C 244.216877 6.721981 244.055788 8.061836 244.104371 9.133209 Q 244.232219 11.892185 244.234776 12.01492 Q 244.32427 16.839933 244.917489 23.684956 Q 244.963514 24.234705 245.306149 24.615695 C 245.349618 24.66172 245.421213 24.666834 245.467238 24.623366 Q 245.582302 24.521087 245.577188 24.354883 Q 245.431441 19.601466 245.612986 16.911528 Q 245.942836 11.966338 245.976076 11.408917 Q 245.986304 11.217144 246.160179 11.132764 L 246.249673 11.089295 Q 246.469573 10.981902 246.464459 11.227372 L 246.188305 24.38301 Q 246.185748 24.508302 246.098811 24.597796 Q 245.963292 24.740986 245.991418 24.917418 Q 246.011874 25.05038 246.137166 25.098963 Q 247.175298 25.51575 247.750617 26.346767 Q 248.067682 26.801909 248.085581 26.247045 C 248.123936 25.139875 248.318266 24.002021 248.333608 22.818141 C 248.389861 18.939209 248.694141 15.553774 248.975409 11.912641 Q 249.008649 11.493297 249.282246 9.107639 Q 249.438221 7.757556 249.458677 6.287295 C 249.463791 5.862838 249.568627 5.19291 250.095364 5.128986 Q 250.251339 5.111087 250.241111 5.269619 Q 250.136275 6.724538 250.17463 8.1769 C 250.2002 9.053943 249.890806 10.46795 249.893363 11.460057 C 249.901034 12.608139 249.617209 13.543991 249.619766 14.648605 C 249.627437 16.264613 249.397309 18.404802 249.325714 19.698631 Q 249.139055 23.130092 249.093029 24.186123 Q 249.072574 24.674505 248.962624 25.221698 C 248.837332 25.837929 249.021434 26.56411 248.525381 27.065277 Q 248.43333 27.159885 248.428216 27.290291 Q 248.425659 27.420697 248.520267 27.533204 C 248.586748 27.61247 248.714597 27.584343 248.745281 27.484621 C 248.939611 26.840263 249.297587 26.351881 249.302701 25.715194 C 249.307815 24.935317 249.601867 24.33187 249.604424 23.50341 Q 249.606981 21.941098 250.384302 20.291849 Q 250.484024 20.07962 250.683468 20.199798 C 251.031217 20.404356 251.100255 21.358108 251.292028 22.28629 C 251.419877 22.897407 251.460789 23.738652 251.555397 24.367668 Q 252.00031 27.364443 251.928715 30.90074 Q 251.918487 31.516971 251.839221 32.05905 Q 251.690916 33.079283 251.685802 33.199461 C 251.660233 33.85916 251.685802 34.309188 251.575852 34.881951 Q 251.389193 35.84593 251.412206 37.167887 Q 251.445447 39.374556 251.437776 41.051932 C 251.432662 42.251153 251.051672 43.117968 250.491695 44.168885 Q 250.294808 44.537089 250.407315 45.051041 Q 250.435441 45.173776 250.36896 45.281169 Q 249.691362 46.36277 248.285025 47.902069 Q 247.24945 49.037366 246.924714 50.707071 Q 246.487472 52.954652 246.479801 54.961878 Q 246.474687 55.649704 246.845448 55.069271 C 247.211096 54.501622 247.870795 54.205013 248.277354 53.719188 Q 248.464013 53.496731 248.903813 53.062045 Q 249.880578 52.098065 250.03911 50.540868 Q 250.312707 47.863714 250.435441 46.851152 C 250.50448 46.286061 250.795975 46.068718 250.905925 45.598234 C 250.987748 45.245372 251.460789 44.828585 251.716486 44.506406 C 251.785524 44.416912 251.926158 44.452709 251.946614 44.562659 C 252.046336 45.091953 251.793195 45.636589 251.61165 46.263048 Q 251.458232 46.797456 251.430105 47.273053 Q 251.327826 49.119189 251.084913 50.852819 Q 250.903368 52.167104 250.379188 53.391895 Q 249.977743 54.325191 249.307815 54.803345 Q 248.510039 55.376108 247.584414 55.846591 C 247.487249 55.895174 247.464236 56.02558 247.543502 56.104846 L 247.599756 56.161099 C 247.615098 56.176441 247.63811 56.181555 247.658566 56.171327 Q 249.241334 55.526969 250.591417 54.545091 Q 250.703924 54.463268 250.829216 54.522078 Q 251.074685 54.637142 251.115597 55.000232 C 251.123268 55.074385 251.192306 55.128081 251.266458 55.12041 Z M 250.458454 32.593458 Q 250.847114 31.831479 250.877798 30.836816 Q 250.962178 28.139207 250.790861 25.206356 Q 250.742278 24.342098 250.484024 25.170558 C 250.358732 25.582231 250.466125 26.073171 250.297365 26.574338 Q 249.645336 28.515082 248.039556 29.691291 Q 247.668794 29.96233 247.157399 30.944209 Q 246.773853 31.680617 246.755954 32.381229 Q 246.712485 34.212023 247.975631 35.856158 C 248.075353 35.986564 248.269683 35.994235 248.379633 35.874057 Q 248.860345 35.349877 249.06746 35.181117 C 249.901034 34.490733 249.995642 33.49607 250.458454 32.593458 Z M 245.53372 36.653935 Q 246.160179 36.482617 246.689473 36.953101 C 246.740612 36.999126 246.819878 36.988898 246.858233 36.932645 Q 246.881246 36.89429 246.899145 36.820138 Q 246.9196 36.72553 246.858233 36.61558 C 246.587194 36.114413 246.126938 35.822918 245.901924 35.285953 C 245.6181 34.60324 244.889362 34.025364 244.470018 33.383563 Q 244.175966 32.936092 243.465127 32.082063 C 243.252898 31.823808 243.130163 31.42492 242.925605 31.115526 Q 242.823326 30.964664 242.807984 31.14621 Q 242.715933 32.161329 242.513932 33.286398 C 242.41421 33.836148 242.345171 35.066053 242.570185 35.459827 C 242.759401 35.789677 242.772186 36.283173 242.935833 36.579782 C 243.112264 36.901961 243.265683 37.272723 243.500924 37.546319 Q 244.26546 38.44126 244.666905 39.499848 C 244.674576 39.522861 244.689918 39.543317 244.710374 39.558658 Q 244.912375 39.714634 244.960957 39.46405 Q 244.973742 39.400126 245.019768 37.970777 C 245.037667 37.46961 245.221769 37.298292 245.326605 36.86872 C 245.349618 36.763884 245.428884 36.682061 245.53372 36.653935 Z M 250.317821 34.899849 Q 250.253896 34.3501 250.06468 34.869166 Q 249.755286 35.723195 249.108371 36.385452 C 248.586748 36.91986 248.448672 37.3929 248.203202 38.175335 C 247.878466 39.216024 247.438666 39.949876 246.791752 41.322971 C 246.444003 42.05938 246.538611 42.581003 246.72527 43.376223 Q 246.983525 44.468051 246.9196 45.61869 C 246.917043 45.651931 246.927271 45.687728 246.950284 45.715855 Q 246.986082 45.761881 247.026993 45.764438 C 247.124158 45.772109 247.208539 45.731197 247.246893 45.659602 C 247.584414 45.01013 248.164847 44.723749 248.60209 44.199569 C 248.885914 43.859491 249.537943 43.189563 249.78597 42.601459 Q 250.215542 41.583783 250.225769 40.507296 Q 250.241111 38.535868 250.34339 36.78434 Q 250.407315 35.669499 250.317821 34.899849 Z M 244.820324 54.263824 C 244.771741 54.036253 244.761513 53.783112 244.682247 53.583668 Q 244.186194 52.338421 243.922825 50.962768 C 243.879357 50.72497 243.754065 50.543424 243.63133 50.382335 Q 242.595755 49.019467 242.02555 47.917411 Q 241.923271 47.71541 241.969296 47.122192 C 241.971853 47.083837 241.925828 47.063381 241.900258 47.091508 L 241.741725 47.247483 C 241.734054 47.255154 241.72894 47.267939 241.726383 47.280724 Q 241.61132 48.127083 241.416989 48.960657 Q 241.148507 50.121524 241.186862 50.745426 Q 241.30704 52.698955 242.227551 54.089949 Q 243.506038 56.015352 245.142503 57.577664 Q 246.101368 58.493061 245.50815 57.250371 Q 245.06835 56.32986 245.053008 55.179221 C 245.047894 54.854485 244.87402 54.516964 244.820324 54.263824 Z M 250.03911 56.245479 C 249.745058 56.915407 248.60209 57.720854 248.111151 58.022577 C 247.60487 58.337085 246.160179 59.106735 245.682024 59.820131 Q 245.155287 60.607679 245.053008 61.167657 Q 244.748728 62.857818 245.185971 65.018462 Q 245.303592 65.606566 245.306149 65.938973 C 245.306149 66.153759 245.523492 66.299506 245.722936 66.217683 C 247.44378 65.50173 249.197865 64.317851 249.693919 62.484499 Q 250.223212 60.533527 250.340833 58.659264 C 250.402201 57.6825 250.363846 56.946091 250.701367 56.237809 Q 250.747392 56.140643 251.141167 55.378665 C 251.207648 55.250816 251.077242 55.107625 250.94428 55.161322 L 250.732051 55.243145 C 250.719266 55.250816 250.709038 55.258487 250.69881 55.268715 Q 250.228326 55.821022 250.03911 56.245479 Z M 247.74806 75.486719 C 248.827104 74.407675 248.481912 72.773768 248.535609 71.441584 C 248.589305 70.05826 248.438444 68.769545 249.379411 67.583108 Q 249.425436 67.524298 249.422879 67.450145 Q 249.420322 67.416905 249.397309 67.368322 C 249.369183 67.309512 249.297587 67.289056 249.241334 67.322297 Q 248.729939 67.639362 248.446115 68.143086 Q 247.497477 69.823018 245.6181 72.911845 Q 245.344504 73.359315 245.528606 73.678937 Q 246.380079 75.172211 246.592308 76.849587 Q 246.674131 77.506729 246.873575 76.875156 Q 247.001424 76.468597 247.208539 76.108064 Q 247.318489 75.916291 247.74806 75.486719 Z M 250.903368 77.092499 L 250.78319 77.089942 Q 250.701367 77.087385 250.655341 77.156424 Q 250.558176 77.297057 250.136275 77.920959 C 249.445892 78.936079 248.134164 79.877045 247.111374 80.54953 C 245.303592 81.738524 244.211763 82.89939 244.700146 85.159756 Q 245.060679 86.819233 246.103925 88.519622 Q 246.339167 88.903168 246.669017 88.596331 C 247.722491 87.624681 248.599533 86.954753 249.082801 85.589328 Q 249.45612 84.533298 249.640222 81.429129 C 249.673463 80.858924 249.872907 80.447251 249.855008 79.981881 Q 249.837109 79.496056 250.074908 78.91818 Q 250.443112 78.028352 250.980077 77.243361 C 251.023546 77.179436 250.980077 77.092499 250.903368 77.092499 Z" style="fill:#292520;"/>
		<path d="M 269.924707 55.19712 Q 269.722706 55.897731 269.155058 57.603233 Q 268.086242 60.819908 267.375403 63.425466 C 267.291023 63.742531 267.081351 64.041697 266.991857 64.376661 Q 266.618538 65.759985 266.007421 67.053814 C 265.836104 67.416905 265.613647 67.455259 265.296582 67.445031 Q 264.872124 67.42969 264.989745 67.02313 C 265.201974 66.276494 265.44233 65.240919 265.708255 64.435471 Q 267.643885 58.572327 269.3903 53.327971 C 270.019315 51.440923 270.661116 49.832585 271.43588 47.725638 C 271.550944 47.416244 271.775958 47.124748 271.870566 46.743759 Q 272.116035 45.764438 272.939381 44.450152 C 272.952166 44.429696 272.970065 44.414355 272.990521 44.406684 L 273.218092 44.312076 C 273.366396 44.250708 273.514701 44.40157 273.450776 44.549874 Q 273.021205 45.544538 272.890799 46.137756 Q 272.714367 46.961102 272.346163 47.666827 C 271.911477 48.497844 271.709476 49.781446 271.348943 50.791451 Q 270.740383 52.504625 270.152278 54.445369 Q 269.996303 54.956764 269.924707 55.19712 Z" style="fill:#292520;"/>
		<path d="M 274.967063 49.316076 Q 274.8341 49.76099 274.327819 51.116187 Q 273.859892 52.366548 273.729487 52.926525 C 273.504473 53.87772 273.123484 54.772662 272.860115 55.677831 Q 272.200415 57.945868 271.338715 60.03236 C 271.134157 60.533527 270.758281 61.364544 270.211089 61.461709 Q 270.078126 61.484722 270.062784 61.351759 Q 270.014202 60.929858 270.098582 60.702287 C 270.502584 59.610459 270.855446 58.62091 271.129043 57.541866 C 271.238993 57.109737 271.471677 56.721077 271.594412 56.357986 Q 272.525151 53.565769 273.821538 50.308183 C 273.959614 49.965548 274.026096 49.612685 274.179514 49.272608 Q 275.128152 47.163103 275.946384 45.64426 C 275.99241 45.562437 276.079347 45.511297 276.171398 45.513854 L 276.286462 45.516411 Q 276.378513 45.518968 276.345272 45.605905 Q 275.212532 48.630807 275.151165 48.781668 Q 275.046329 49.045037 274.967063 49.316076 Z" style="fill:#292520;"/>
		<path d="M 256.454561 96.574094 C 256.567068 96.101054 256.316485 95.653583 256.377852 95.180543 C 256.513372 94.116841 256.477574 93.191216 256.763955 92.076375 Q 257.19097 90.40667 257.336718 89.082157 C 257.357174 88.898054 257.582187 88.821345 257.712593 88.951751 L 258.420875 89.660033 Q 258.520597 89.759755 258.553838 89.892718 Q 258.617762 90.156086 258.804422 90.232796 C 258.950169 90.291606 259.106145 90.173985 259.090803 90.015453 Q 258.896473 88.107949 258.975739 86.325737 C 259.065233 84.402892 260.683799 83.704838 262.069679 82.843137 C 262.642442 82.487717 262.368845 81.937968 262.044109 81.449585 Q 261.13894 80.089274 261.105699 78.58833 C 261.087801 77.711287 261.049446 76.202672 261.35884 75.179882 C 261.686133 74.105952 261.693804 73.282606 262.087578 72.244474 C 262.235883 71.858371 262.368845 70.840695 262.744721 70.503174 Q 262.875126 70.385553 262.887911 70.559427 Q 262.910924 70.891834 262.82143 71.405786 Q 262.49158 73.28772 262.294693 75.522516 C 262.189857 76.724295 262.422542 78.470709 263.079684 79.854033 Q 263.189634 80.086717 263.23566 80.3552 Q 263.245888 80.421681 263.304698 80.396111 L 263.373737 80.367985 Q 263.399306 80.357757 263.396749 80.32963 C 263.353281 80.007451 263.176849 79.825906 263.135938 79.470486 Q 262.954393 77.859592 263.373737 76.118292 C 263.570624 75.297503 264.041107 74.405118 264.335159 73.517848 Q 264.370957 73.402784 264.769845 72.587109 C 265.296582 71.515736 264.455337 69.83836 264.923264 69.132635 C 265.048555 68.943419 265.334937 68.979217 265.411646 69.194003 Q 266.188966 71.403229 266.263119 73.56643 Q 266.27079 73.75309 266.401195 73.622684 L 266.710589 73.31329 Q 266.810311 73.213568 266.802641 73.075491 Q 266.656893 70.155425 266.74383 69.199116 Q 266.922818 67.263486 267.897026 65.854593 Q 268.132268 65.517072 268.919816 64.606789 C 269.594858 63.829468 270.410533 63.586556 271.637881 63.01635 Q 272.049554 62.824577 272.502139 61.898952 Q 275.585851 55.578109 277.240214 52.82169 Q 277.705583 52.044369 281.085905 46.298845 Q 281.35183 45.848818 281.497578 45.690285 Q 281.970618 45.184004 281.855554 45.874388 C 281.755832 46.467606 281.218867 46.889507 281.068006 47.513409 C 280.866005 48.344426 280.185849 48.996454 279.930152 49.748205 Q 279.697467 50.430918 279.134933 51.190339 C 279.007084 51.364214 278.938045 51.691506 278.815311 51.91652 Q 276.616312 55.907959 274.647441 60.017018 C 274.473566 60.382666 274.059336 60.778997 273.918703 61.229024 Q 273.67579 62.024244 273.033989 62.481942 C 272.962394 62.530525 272.939381 62.62769 272.977736 62.704399 Q 273.080015 62.908957 273.279459 62.837362 C 274.100248 62.54331 274.905695 62.471714 275.514255 61.893838 C 276.025651 61.408013 276.485906 60.66649 277.033099 60.789225 C 277.18396 60.822465 277.265784 60.988669 277.196745 61.126745 C 276.976845 61.571659 277.010086 62.057484 276.7953 62.487056 Q 274.550276 66.954092 273.765284 69.043141 Q 273.376624 70.078716 273.333156 70.150311 Q 273.120927 70.500617 272.714367 71.160317 Q 272.031655 72.270044 270.955168 72.952756 Q 269.725263 73.735191 269.699694 73.75309 C 267.600417 75.22335 265.352836 75.888164 264.818428 78.895167 C 264.690579 79.603449 264.987188 80.477935 265.084353 81.250141 C 265.11248 81.480269 265.311924 81.651586 265.544609 81.643915 C 266.396081 81.618346 267.347276 81.37799 268.032546 80.774544 Q 269.180628 79.764539 269.518148 78.593444 Q 269.732934 77.854478 269.794302 77.693389 C 270.090911 76.910954 270.19319 76.312622 270.474457 75.471377 Q 270.648331 74.947197 270.93727 74.479271 C 271.369398 73.781216 271.653223 72.985997 272.29758 72.285386 C 272.681127 71.868599 272.819203 71.431356 273.154167 70.945531 C 273.3127 70.712846 273.576068 70.661706 273.770398 70.845809 Q 273.872677 70.940417 273.813867 71.068265 C 273.70136 71.313735 273.660448 71.82513 273.530043 72.162651 Q 272.494468 74.816791 271.527931 77.516957 Q 271.341272 78.033466 271.052334 78.644583 Q 271.044663 78.662482 270.52304 79.756868 Q 269.697137 81.490497 268.311256 82.653921 Q 268.208977 82.740858 268.249889 82.868707 Q 268.457004 83.502836 268.081128 84.390107 Q 267.551834 85.645582 267.124819 86.591663 C 266.986743 86.895943 266.979072 87.251362 266.953502 87.53263 Q 266.945831 87.647693 267.060895 87.65025 L 268.022318 87.670706 Q 268.464674 87.680934 268.357282 88.110506 Q 268.283129 88.417343 268.193635 88.537521 Q 267.122262 89.974541 266.759172 90.918065 Q 266.416537 91.800221 265.030657 94.830237 C 264.457894 96.080598 263.406977 97.64291 262.136161 98.381876 C 261.289802 98.872815 260.673571 99.402109 259.834883 99.747301 Q 258.487357 100.302164 258.466901 100.309835 C 257.615428 100.706166 256.595195 101.013004 255.912483 101.417006 Q 253.854117 102.631569 253.058898 104.638795 Q 252.675352 105.610445 252.422211 107.336404 Q 252.368515 107.69438 252.023323 107.597215 L 251.793195 107.533291 Q 251.437776 107.433569 251.445447 107.065364 Q 251.453118 106.663919 251.225547 105.669256 Q 251.008204 104.707833 251.55284 103.549523 Q 252.52449 101.48093 254.876908 100.51695 C 256.375295 99.900719 254.86668 96.809336 254.503589 95.694495 Q 254.022878 94.211449 254.270904 92.674707 Q 254.608425 90.583101 255.572405 88.179544 Q 255.825545 87.545414 256.390637 87.174653 Q 256.510815 87.095387 256.467346 87.233463 Q 255.909926 88.926181 255.835773 89.657476 Q 255.610759 91.892273 255.513594 92.912506 Q 255.321821 94.889048 256.342054 96.589436 Q 256.418764 96.719842 256.454561 96.574094 Z M 267.971178 72.622906 Q 269.975847 71.500394 271.285018 70.400895 Q 272.006085 69.792335 272.514923 68.276048 C 272.765507 67.526855 273.06723 67.046143 273.358725 66.268823 Q 273.806196 65.072158 274.739492 64.177217 C 274.762505 64.154204 274.772733 64.120963 274.767619 64.087723 L 274.754834 64.000786 Q 274.72415 63.81924 274.586073 63.939418 Q 274.537491 63.982887 274.304806 64.164432 Q 274.1744 64.266711 274.00564 64.297395 Q 273.954501 64.305066 271.775958 64.749979 Q 270.298026 65.051703 269.656225 65.491502 Q 268.081128 66.570546 267.851 68.751646 Q 267.666898 70.475047 267.881684 72.216347 Q 267.899583 72.372323 267.861228 72.541083 Q 267.822874 72.707287 267.971178 72.622906 Z M 266.150612 85.205782 C 266.610867 84.408006 266.605753 83.738078 267.367732 83.155088 Q 267.674569 82.919846 267.288466 82.935188 Q 264.984631 83.029796 263.010646 83.530963 C 262.097806 83.763648 261.609424 84.103726 261.292359 84.950085 Q 260.819318 86.21323 260.847445 87.83691 C 260.850002 88.097721 260.696583 88.399444 260.658229 88.667927 C 260.630102 88.852029 260.826989 88.990106 260.990636 88.898054 C 261.207978 88.777877 261.371625 88.596331 261.629879 88.476153 Q 263.204976 87.742302 263.816093 87.489161 Q 264.795415 87.082602 265.189189 86.589106 Q 265.769622 85.862925 266.150612 85.205782 Z M 266.580184 88.223013 Q 266.953502 87.678377 266.347499 87.972429 Q 265.483241 88.389216 265.079239 88.644914 C 264.353058 89.107726 263.437661 89.368538 262.616872 89.9413 Q 262.090135 90.309505 261.461119 90.62657 Q 260.044555 91.337409 259.006423 92.710505 C 258.766067 93.02757 258.589636 93.886713 258.574294 94.293272 Q 258.51804 95.814673 258.791637 97.251693 Q 258.812093 97.356529 258.812093 97.466479 L 258.801865 97.893494 Q 258.796751 98.100609 258.991081 98.023899 C 261.08013 97.190325 262.540163 96.545968 263.276572 94.43902 C 263.378851 94.147525 263.419762 93.725624 263.552725 93.377875 Q 263.805865 92.718176 263.839106 92.608226 Q 264.399084 90.746748 265.744053 89.046359 C 265.994636 88.726737 266.385854 88.501723 266.580184 88.223013 Z" style="fill:#292520;"/>
		<path d="M 231.485697 90.759532 Q 231.887142 90.902723 231.662129 90.554974 Q 230.657237 89.010561 230.391312 88.604002 Q 229.752068 87.629795 228.471023 87.126071 Q 225.847567 86.095609 225.643009 86.016343 C 224.842675 85.712063 224.134393 85.277377 223.339174 84.868261 Q 222.912159 84.648361 221.940508 83.331519 Q 220.996984 82.047918 219.30171 79.444917 Q 218.455351 78.145973 215.790983 75.210565 C 215.750071 75.167097 215.727058 75.108286 215.729615 75.046919 L 215.732172 74.862817 C 215.734729 74.760538 215.85235 74.704284 215.931616 74.765652 Q 217.895373 76.292166 218.703378 77.391665 Q 220.413994 79.726184 221.876584 81.659257 Q 222.206434 82.0965 223.316161 82.84058 C 224.35685 83.538634 225.604654 84.124181 226.768078 84.707172 Q 227.174637 84.91173 228.023553 85.717177 C 228.095148 85.786215 228.207655 85.783658 228.276693 85.71462 L 228.332947 85.658367 C 228.376415 85.614898 228.376415 85.543303 228.332947 85.497277 Q 228.148844 85.313175 227.882919 84.60745 Q 227.14651 82.651364 225.423109 81.503282 Q 224.239229 80.71829 223.730391 80.467707 Q 223.068134 80.140414 222.482587 79.55231 Q 221.810103 78.877268 220.869136 78.286607 Q 219.337507 77.327741 218.936062 76.949309 Q 217.312383 75.430465 217.041344 74.99578 Q 213.464135 69.232357 211.364858 65.24859 Q 209.296265 61.331303 208.600768 60.111626 Q 208.470362 59.884055 208.508717 59.625801 Q 208.529173 59.472382 208.61611 59.469825 C 208.731174 59.464711 208.823225 59.492838 208.848795 59.536307 C 209.569862 60.748313 210.288372 61.789002 210.90716 62.870603 Q 211.364858 63.670936 213.170083 66.723964 Q 216.258909 71.942751 218.595985 75.353756 Q 219.046012 76.005785 220.275917 76.327964 Q 221.390759 76.619459 222.733171 76.95698 Q 223.446567 77.135968 224.019329 77.493944 Q 224.40799 77.7343 224.208545 77.322627 C 223.850569 76.586218 223.63834 76.079937 223.30849 75.517403 Q 220.334728 70.44692 217.143623 64.113293 Q 215.900933 61.653482 215.080144 59.347091 Q 214.975308 59.050481 215.105713 58.861265 Q 215.200321 58.725746 215.279588 58.871493 Q 219.974194 67.468044 223.178084 72.965541 C 223.436339 73.410455 223.74829 73.799115 224.047456 74.238915 Q 224.379863 74.729854 224.390091 74.146864 Q 224.392648 74.059927 224.328723 73.661038 Q 224.165077 72.640805 224.630446 71.827687 C 224.740396 71.635914 224.970524 71.551534 225.177639 71.6308 Q 225.727389 71.840472 226.320607 72.533412 C 228.355959 74.906285 230.29159 77.281716 231.455014 80.125072 C 231.682584 80.682493 231.882028 81.697612 231.695369 82.134855 C 231.434558 82.748529 231.17886 83.359646 230.759516 83.876155 C 230.194425 84.569095 229.386421 85.522847 229.322496 86.379434 Q 229.312268 86.512396 229.440117 86.558422 C 230.312046 86.865259 230.879694 87.407338 231.495925 88.095164 Q 232.094257 88.759978 231.874358 87.893163 C 231.756737 87.430351 231.452457 87.031462 231.444786 86.560979 C 231.437115 86.100723 231.196759 85.415454 231.319494 84.939857 C 231.485697 84.300613 231.529166 83.712508 232.061017 83.441469 Q 232.186309 83.380102 232.224663 83.515621 Q 232.782084 85.550974 233.403429 87.351084 Q 233.817659 88.550306 233.807431 89.084714 C 233.792089 89.88249 233.914824 90.508949 233.833001 91.465258 C 233.674468 93.262811 233.628443 94.748414 234.79698 96.141966 Q 235.167742 96.581765 236.464128 98.062254 C 236.663572 98.292382 236.745396 98.599219 236.909042 98.819119 Q 237.379525 99.463476 237.192866 98.673371 C 237.049676 98.064811 237.039448 97.213338 237.192866 96.453917 C 237.550843 94.661477 237.573856 93.134963 236.770965 91.439688 Q 235.28792 88.312507 234.638448 87.310173 Q 233.203985 85.103503 233.014769 84.74297 C 232.72583 84.198334 232.700261 83.646027 232.339727 83.11929 Q 232.170967 82.876378 232.42155 82.549085 Q 232.623551 82.283159 232.822995 82.549085 Q 233.694924 83.69461 234.398092 85.006338 Q 234.998981 86.12885 236.602205 89.071929 C 237.072688 89.936186 237.525273 91.033129 237.908819 91.841133 C 238.259125 92.58777 238.581304 93.446914 238.632443 94.183322 Q 238.783305 96.372093 239.37908 99.174538 Q 239.875133 101.509057 240.53739 103.017672 C 240.726606 103.454915 240.698479 103.971424 240.831442 104.408667 Q 240.969519 104.868922 241.115266 104.411224 Q 241.381192 103.569979 241.672687 103.045799 C 242.526717 101.514171 241.399091 98.673371 240.759847 96.942299 Q 240.256123 95.576874 239.601537 94.5234 Q 238.959736 93.490382 238.706596 92.789771 Q 238.340948 91.772095 237.980415 90.764646 Q 237.801426 90.255808 238.261682 90.468037 Q 238.325606 90.496164 238.530164 90.76976 C 239.749842 92.421566 240.555289 93.385546 241.238001 95.224011 Q 242.079246 97.489492 242.920491 100.493938 Q 243.52138 102.636683 242.490919 104.429123 C 242.125272 105.065809 241.53461 105.352191 241.043671 105.878928 C 240.890253 106.042574 240.86724 106.290601 240.989975 106.47726 Q 241.667573 107.52562 242.007651 108.724841 Q 244.224548 116.544072 245.536277 124.726393 C 245.625771 125.28637 245.87124 126.050906 245.917266 126.738732 Q 245.932608 126.94329 245.950507 126.971417 Q 246.178078 127.311495 246.257344 126.91005 C 246.934942 123.442791 247.533274 119.880924 248.464013 116.388096 Q 249.410094 112.8339 250.097921 110.790877 C 250.164402 110.588876 250.136275 110.366419 250.016097 110.189988 C 249.433107 109.318059 248.911484 108.187876 248.816876 107.108833 Q 248.637888 105.019784 249.116042 103.518839 Q 249.949616 100.905611 251.24856 98.4458 C 251.660233 97.66848 251.795752 97.272149 252.49125 96.985767 Q 252.782745 96.86559 252.639554 97.1443 C 252.386414 97.648024 252.429882 98.259141 252.296919 98.755194 C 252.140944 99.348413 252.020766 100.005555 251.726714 100.65247 Q 251.343168 101.493715 251.256231 102.053692 C 251.148838 102.736405 250.788304 103.268256 250.680911 104.014893 C 250.591417 104.651579 250.322935 105.62323 250.435441 106.464475 Q 250.609316 107.760861 250.91871 109.018893 C 250.962178 109.192768 251.141167 109.297604 251.312484 109.243907 C 251.739499 109.110944 252.176742 108.975425 252.573073 108.745297 Q 253.795307 108.031901 255.104478 107.650911 Q 255.822988 107.44124 256.889247 106.369867 Q 257.229325 106.029789 258.091026 104.57487 Q 258.853004 103.286155 259.241664 102.74919 Q 260.180074 101.447689 261.622208 100.151303 C 262.578517 99.292159 262.951836 98.831904 264.102475 98.803777 Q 264.337716 98.798663 264.207311 98.992993 Q 263.601307 99.887934 262.979962 100.442798 C 261.236105 102.002553 260.246556 103.981652 259.00898 106.5105 Q 258.855561 106.827565 257.776518 108.15975 Q 257.201198 108.873146 256.400865 109.29249 Q 254.986858 110.034012 254.759287 110.067253 Q 253.997308 110.184874 253.286469 110.468698 C 252.57563 110.75508 251.575852 110.565863 251.460789 111.632122 Q 251.399421 112.212555 251.19742 112.831344 Q 250.926381 113.657247 250.921267 113.675145 C 250.414986 115.715612 249.732273 118.277701 249.310372 120.423003 Q 248.581634 124.133174 247.658566 127.935397 Q 247.512819 128.536286 247.33383 129.016997 Q 247.060234 129.75852 247.05512 130.111383 Q 246.871018 145.760072 246.881246 146.98742 Q 246.901702 149.805207 246.904259 152.415879 Q 246.904259 152.996312 246.326382 153.050008 L 245.682024 153.108819 Q 245.014654 153.170186 245.012097 152.497702 Q 244.971185 142.098483 245.012097 130.799209 Q 245.017211 129.878698 244.771741 129.009326 Q 244.083915 126.562301 243.833331 125.168749 Q 242.1355 115.746295 241.191976 112.340404 Q 240.514377 109.885708 239.806095 107.438683 Q 239.660347 106.937515 239.642449 106.888933 C 239.575967 106.704831 239.391865 106.592324 239.205206 106.62045 Q 237.264462 106.919617 235.658681 106.111612 Q 234.081027 105.316393 232.81021 103.800107 Q 231.209544 101.890046 230.066576 99.890491 Q 229.918271 99.62968 230.064019 99.445578 C 230.125386 99.366311 230.243007 99.356084 230.319717 99.425122 Q 231.027999 100.066923 231.649344 100.816116 Q 232.459905 101.797995 232.743729 102.094604 C 233.856013 103.260585 235.055235 104.487933 236.753066 104.810112 C 237.244006 104.902163 237.543172 105.078594 237.993199 105.078594 Q 238.77052 105.076037 239.803538 105.331735 C 239.887918 105.352191 239.964627 105.283152 239.9544 105.198772 C 239.7345 103.518839 238.913711 102.767089 237.346285 101.95397 Q 236.742839 101.642019 236.126607 101.115283 C 235.23678 100.353304 234.497814 99.859808 233.405986 99.729402 C 231.953624 99.555528 230.468021 97.982988 229.296926 96.714728 Q 228.317605 95.653583 227.688589 94.79444 C 226.665799 93.400888 225.561185 92.475263 224.18809 91.634018 C 223.963076 91.495941 223.63834 91.127737 223.467023 91.068926 Q 222.827779 90.84647 222.313827 90.365758 C 222.180864 90.240466 222.257573 90.015453 222.441676 90.000111 C 223.592314 89.902946 225.448679 91.127737 226.468912 91.846247 Q 227.545398 92.605669 228.476137 93.763978 C 229.209989 94.676819 229.982196 95.804445 230.854124 96.407891 Q 232.736058 97.714505 234.308598 97.929291 Q 235.379971 98.075039 234.546397 97.382099 C 234.283028 97.164756 233.90971 96.937185 233.671911 96.627791 Q 233.329276 96.185434 232.569855 95.111504 Q 232.319271 94.756085 232.155625 94.214006 C 231.815547 93.083823 229.943841 92.303946 228.852013 91.948526 Q 227.987755 91.669816 227.473803 91.322067 C 226.151847 90.429683 225.198095 89.516842 224.129279 88.246026 Q 222.574638 86.392219 222.096484 85.914064 Q 220.953516 84.765982 219.196874 83.06048 Q 218.77753 82.653921 218.877252 82.178323 C 218.890037 82.124627 218.953961 82.101614 218.99743 82.134855 Q 222.083699 84.576766 224.617662 87.489161 Q 225.006322 87.936632 226.535393 88.898054 Q 227.156738 89.286715 228.095148 89.547526 Q 228.58353 89.683046 229.711156 90.064035 C 230.186754 90.225125 230.76463 90.143301 231.286253 90.598443 Q 231.465241 90.751862 231.485697 90.759532 Z M 225.637895 73.144529 Q 225.394982 72.783996 225.443565 73.216125 C 225.492147 73.640583 225.763186 74.121294 225.837339 74.568765 Q 226.381975 77.926073 226.67347 78.928408 Q 227.361296 81.306395 228.798316 83.311063 C 228.852013 83.387773 228.969634 83.382659 229.015659 83.300835 Q 229.227888 82.922403 229.613991 82.48516 C 230.260906 81.748751 230.396426 81.035355 229.984753 80.140414 Q 229.261129 78.560203 228.120718 76.634801 C 227.407322 75.427908 226.282252 74.095724 225.637895 73.144529 Z" style="fill:#292520;"/>
		<path d="M 214.903712 65.634693 C 215.128726 65.898061 215.32817 66.19467 215.537842 66.588445 Q 215.783312 67.043586 216.330504 67.831135 Q 217.695929 69.792335 219.946068 73.847698 C 220.07903 74.09061 220.321943 74.290054 220.201765 74.637803 C 220.125056 74.862817 219.838675 74.926741 219.669914 74.760538 C 219.143177 74.244029 218.716162 73.722406 218.353072 72.92463 Q 218.232894 72.661261 217.749626 71.789333 Q 216.864912 70.196337 214.497153 66.036138 Q 213.91672 65.018462 213.673807 64.361319 Q 213.423224 63.681164 213.962745 64.14909 C 214.382089 64.512181 214.573862 65.24859 214.903712 65.634693 Z" style="fill:#292520;"/>
		<path d="M 257.712593 87.693719 C 257.707479 87.443135 257.54639 87.046804 257.444111 86.860145 C 257.037552 86.118622 257.206312 85.177655 257.349503 84.392664 Q 257.666568 82.684604 257.87624 82.027462 Q 258.43366 80.278491 259.522932 79.178991 Q 260.077795 78.619014 259.970402 79.398891 Q 259.609869 81.955866 258.768624 83.582103 Q 258.597307 83.906839 258.487357 84.489829 C 258.420875 84.837578 258.111481 85.290162 258.065456 85.68905 Q 257.965734 86.550751 257.699808 87.64258 Q 257.697251 87.65025 257.710036 87.67582 Q 257.71515 87.686048 257.712593 87.693719 Q 257.712593 87.698833 257.712593 87.693719 Z" style="fill:#292520;"/>
	</g>
	<g id="surface4">
	</g>
</svg>
