<?xml version="1.0" encoding="utf-8"?>
<svg xmlns="http://www.w3.org/2000/svg" width="490pt" height="280pt" viewBox="0 0 490 280" version="1.1" xmlns:xlink="http://www.w3.org/1999/xlink">
	<g id="surface2">
		<path vector-effect="non-scaling-stroke" d="M 209.810353 52.599372 C 208.655114 53.013237 207.654668 53.940361 207.654668 55.263427 Q 207.654668 57.666778 207.651409 60.440002 Q 207.620451 91.56463 207.605786 106.185157 Q 207.604157 107.56688 208.329236 108.383205 Q 208.819683 108.93231 209.140673 109.373875" style="fill:none;stroke-width:0.50;stroke:#83baa4;"/>
		<path vector-effect="non-scaling-stroke" d="M 209.140673 109.373875 C 211.843833 114.73783 216.120984 118.304567 222.084556 119.332713 Q 222.990497 119.489135 225.331932 119.676515 Q 229.51295 120.012169 234.001922 120.162073 Q 247.916922 120.62645 260.968344 119.824789 Q 263.332591 119.679774 264.917988 119.50217 Q 272.183443 118.689104 276.626793 112.97157 Q 277.954746 111.262339 278.976375 109.355952" style="fill:none;stroke-width:0.50;stroke:#81866d;"/>
		<path vector-effect="non-scaling-stroke" d="M 278.976375 109.355952 Q 279.334841 108.735154 279.778035 108.174643 C 280.134872 107.724931 280.229376 106.970523 280.227747 106.258479 Q 280.227747 105.520365 280.229376 100.110787 Q 280.229376 99.985324 280.335287 99.91363 Q 281.466084 99.141299 282.658798 98.354303 Q 293.836421 90.979679 297.435746 88.602397 Q 298.273253 88.048404 298.617055 87.662239 Q 299.172677 87.038182 299.166159 86.021442 Q 299.13683 81.729626 299.159642 60.764251 Q 299.161271 59.556872 298.366128 58.677001 C 297.735554 57.976363 296.604757 57.177961 295.628751 57.176332 Q 287.928249 57.166555 280.310846 57.195884 Q 280.239153 57.195884 280.240782 57.124191 Q 280.257076 56.16448 280.253817 55.164034 Q 280.250558 54.218987 279.540144 53.510202 Q 279.061103 53.031161 278.582062 52.825857" style="fill:none;stroke-width:0.50;stroke:#82a78d;"/>
		<path vector-effect="non-scaling-stroke" d="M 278.582062 52.825857 C 277.161233 51.96391 275.417784 51.646178 273.597755 51.351259 Q 270.575234 50.862441 267.520126 50.582186 C 259.231413 49.824519 251.006247 49.723497 241.98105 49.730014 Q 232.18841 49.736532 223.324522 50.363848 Q 218.982195 50.670173 214.729484 51.318671 C 213.104981 51.566338 211.34361 51.895475 209.810353 52.599372" style="fill:none;stroke-width:0.50;stroke:#81866d;"/>
		<path vector-effect="non-scaling-stroke" d="M 278.582062 52.825857 Q 278.459858 52.990426 278.34743 53.150106 C 277.666344 54.12937 275.901714 54.523683 274.81328 54.769721 Q 271.596862 55.4948 267.679806 55.86956 Q 267.461468 55.890742 267.094855 55.954288 Q 266.773865 56.011317 266.509903 56.040646" style="fill:none;stroke-width:0.50;stroke:#085975;"/>
		<path vector-effect="non-scaling-stroke" d="M 266.509903 56.040646 Q 258.245632 56.782019 249.596824 56.930294 Q 237.338915 57.140485 225.933177 56.410518 Q 221.331777 56.117227 216.494115 55.419848 Q 213.782808 55.030424 211.219776 54.140776 C 210.548467 53.906144 209.777765 53.464579 209.810353 52.599372" style="fill:none;stroke-width:0.50;stroke:#096c8c;"/>
		<path vector-effect="non-scaling-stroke" d="M 266.509903 56.040646 Q 267.595078 56.707067 267.761276 58.155596 Q 267.832969 58.78617 267.841116 59.421633 Q 267.878592 62.400159 267.865557 65.378686 Q 267.756388 92.460796 267.758017 97.019832 Q 267.759646 99.983694 267.596707 102.88564 Q 267.526643 104.104424 267.278976 105.329726 Q 266.436581 109.509114 262.949684 111.835885 C 262.85355 111.899431 262.801409 112.0086 262.752528 112.111252" style="fill:none;stroke-width:0.50;stroke:#098dac;"/>
		<path vector-effect="non-scaling-stroke" d="M 262.752528 112.111252 Q 262.540707 112.106364 262.31748 112.135693 Q 262.003008 112.176428 261.885692 112.182945 Q 247.398775 113.020452 232.895565 112.531635 C 226.565381 112.319814 220.249861 111.861955 214.01907 110.729528 C 212.663416 110.48349 211.276805 110.193459 210.012397 109.683459 Q 209.601791 109.518891 209.140673 109.373875" style="fill:none;stroke-width:0.50;stroke:#096c8c;"/>
		<path vector-effect="non-scaling-stroke" d="M 278.976375 109.355952 Q 279.023627 109.256559 278.919346 109.220712 C 278.894905 109.212565 278.868835 109.214195 278.846023 109.22723 Q 278.023181 109.7079 277.094428 109.966973 Q 273.418522 110.995119 269.51613 111.472531 Q 266.146549 111.886396 262.752528 112.111252" style="fill:none;stroke-width:0.50;stroke:#085975;"/>
		<path vector-effect="non-scaling-stroke" d="M 280.32551 62.959041 Q 280.239153 62.959041 280.239153 63.045398 L 280.239153 94.430729 C 280.239153 94.474723 280.288034 94.502423 280.32551 94.477982 Q 281.77241 93.523158 283.240491 92.330444 Q 287.419879 88.939681 292.097861 84.859686 Q 292.699106 84.333393 292.747988 84.274735 Q 293.051055 83.908122 293.054313 83.422563 Q 293.082013 80.393525 293.065719 66.437791 C 293.065719 65.293958 293.160224 64.733447 292.2608 64.128943 C 291.247319 63.449487 290.106745 63.032363 288.891219 62.983481 Q 288.32745 62.962299 287.68547 62.96067 Q 284.10081 62.955782 280.32551 62.959041" style="fill:none;stroke-width:0.50;stroke:#82a78d;"/>
		<path d="M 193.863502 131.305479 C 191.425933 129.125354 189.723219 127.186378 187.318238 124.393602 Q 185.987026 122.848939 183.520128 119.319678 Q 180.261345 114.65799 177.993233 109.936015 Q 174.486783 102.628196 172.88998 96.229577 Q 171.796659 91.843256 171.443081 89.542556 Q 171.073209 87.129428 171.073209 87.12291 Q 170.880941 85.873167 170.788066 84.682082 Q 170.392124 79.63097 170.540398 75.309825 Q 170.93634 63.698784 174.830585 52.840522 Q 177.046557 46.66513 180.349332 40.686894 C 185.863192 30.711762 193.892831 22.212858 203.406846 15.755581 C 214.990187 7.893769 228.911704 3.605212 242.957055 3.284222 Q 246.092004 3.212528 249.39315 3.34288 C 255.324134 3.577512 261.118248 4.656169 266.869999 6.334442 C 268.186547 6.718978 269.446066 7.220831 270.702327 7.642843 Q 271.471399 7.901916 272.225807 8.196836 Q 276.630051 9.919102 280.869727 12.283349 Q 289.997576 17.370308 297.476481 24.800331 Q 306.690687 33.952621 312.191512 45.581585 Q 313.654705 48.675798 314.674704 51.364294 Q 316.87927 57.176332 318.112719 63.377794 Q 318.474444 65.194565 318.893197 68.396319 Q 319.984889 76.732283 319.061025 85.372944 C 318.274029 92.728016 316.243807 99.973918 313.262022 106.913494 Q 310.327488 113.735755 306.226311 119.55431 Q 303.969604 122.756064 301.988265 125.136604 Q 301.03833 126.277178 298.734371 128.740817 C 296.723702 130.889984 294.768433 132.600845 292.495432 134.543079 Q 291.745912 135.18343 290.616744 135.989978 C 289.168216 137.024642 287.613777 138.191286 286.100072 139.159144 Q 283.594069 140.760835 283.440906 140.845564 Q 280.416756 142.517319 279.561326 142.952366 Q 272.932963 146.326835 266.583226 148.221817 Q 263.933836 149.012072 259.599656 149.913125 Q 258.314066 150.180345 256.588541 150.40846 C 255.123719 150.600728 253.779471 150.814178 252.552539 150.921718 Q 247.043568 151.39913 241.410763 151.200344 Q 238.477859 151.096063 236.028884 150.752261 C 234.70419 150.56814 232.045023 150.225968 230.28691 149.878908 Q 220.797337 148.001849 212.291915 143.850161 C 210.457221 142.955625 209.329682 142.413038 207.768726 141.500579 Q 203.120073 138.784384 198.886915 135.563078 C 197.104361 134.205795 195.602062 132.859918 193.863502 131.305479 Z M 209.810353 52.599372 C 208.655114 53.013237 207.654668 53.940361 207.654668 55.263427 Q 207.654668 57.666778 207.651409 60.440002 Q 207.620451 91.56463 207.605786 106.185157 Q 207.604157 107.56688 208.329236 108.383205 Q 208.819683 108.93231 209.140673 109.373875 C 211.843833 114.73783 216.120984 118.304567 222.084556 119.332713 Q 222.990497 119.489135 225.331932 119.676515 Q 229.51295 120.012169 234.001922 120.162073 Q 247.916922 120.62645 260.968344 119.824789 Q 263.332591 119.679774 264.917988 119.50217 Q 272.183443 118.689104 276.626793 112.97157 Q 277.954746 111.262339 278.976375 109.355952 Q 279.334841 108.735154 279.778035 108.174643 C 280.134872 107.724931 280.229376 106.970523 280.227747 106.258479 Q 280.227747 105.520365 280.229376 100.110787 Q 280.229376 99.985324 280.335287 99.91363 Q 281.466084 99.141299 282.658798 98.354303 Q 293.836421 90.979679 297.435746 88.602397 Q 298.273253 88.048404 298.617055 87.662239 Q 299.172677 87.038182 299.166159 86.021442 Q 299.13683 81.729626 299.159642 60.764251 Q 299.161271 59.556872 298.366128 58.677001 C 297.735554 57.976363 296.604757 57.177961 295.628751 57.176332 Q 287.928249 57.166555 280.310846 57.195884 Q 280.239153 57.195884 280.240782 57.124191 Q 280.257076 56.16448 280.253817 55.164034 Q 280.250558 54.218987 279.540144 53.510202 Q 279.061103 53.031161 278.582062 52.825857 C 277.161233 51.96391 275.417784 51.646178 273.597755 51.351259 Q 270.575234 50.862441 267.520126 50.582186 C 259.231413 49.824519 251.006247 49.723497 241.98105 49.730014 Q 232.18841 49.736532 223.324522 50.363848 Q 218.982195 50.670173 214.729484 51.318671 C 213.104981 51.566338 211.34361 51.895475 209.810353 52.599372 Z" style="fill:#fbd485;"/>
		<path d="M 278.582062 52.825857 Q 278.459858 52.990426 278.34743 53.150106 C 277.666344 54.12937 275.901714 54.523683 274.81328 54.769721 Q 271.596862 55.4948 267.679806 55.86956 Q 267.461468 55.890742 267.094855 55.954288 Q 266.773865 56.011317 266.509903 56.040646 Q 258.245632 56.782019 249.596824 56.930294 Q 237.338915 57.140485 225.933177 56.410518 Q 221.331777 56.117227 216.494115 55.419848 Q 213.782808 55.030424 211.219776 54.140776 C 210.548467 53.906144 209.777765 53.464579 209.810353 52.599372 C 211.34361 51.895475 213.104981 51.566338 214.729484 51.318671 Q 218.982195 50.670173 223.324522 50.363848 Q 232.18841 49.736532 241.98105 49.730014 C 251.006247 49.723497 259.231413 49.824519 267.520126 50.582186 Q 270.575234 50.862441 273.597755 51.351259 C 275.417784 51.646178 277.161233 51.96391 278.582062 52.825857 Z" style="fill:#073855;"/>
		<path d="M 209.810353 52.599372 C 209.777765 53.464579 210.548467 53.906144 211.219776 54.140776 Q 213.782808 55.030424 216.494115 55.419848 Q 221.331777 56.117227 225.933177 56.410518 Q 237.338915 57.140485 249.596824 56.930294 Q 258.245632 56.782019 266.509903 56.040646 Q 267.595078 56.707067 267.761276 58.155596 Q 267.832969 58.78617 267.841116 59.421633 Q 267.878592 62.400159 267.865557 65.378686 Q 267.756388 92.460796 267.758017 97.019832 Q 267.759646 99.983694 267.596707 102.88564 Q 267.526643 104.104424 267.278976 105.329726 Q 266.436581 109.509114 262.949684 111.835885 C 262.85355 111.899431 262.801409 112.0086 262.752528 112.111252 Q 262.540707 112.106364 262.31748 112.135693 Q 262.003008 112.176428 261.885692 112.182945 Q 247.398775 113.020452 232.895565 112.531635 C 226.565381 112.319814 220.249861 111.861955 214.01907 110.729528 C 212.663416 110.48349 211.276805 110.193459 210.012397 109.683459 Q 209.601791 109.518891 209.140673 109.373875 Q 208.819683 108.93231 208.329236 108.383205 Q 207.604157 107.56688 207.605786 106.185157 Q 207.620451 91.56463 207.651409 60.440002 Q 207.654668 57.666778 207.654668 55.263427 C 207.654668 53.940361 208.655114 53.013237 209.810353 52.599372 Z" style="fill:#0aa0c2;"/>
		<path d="M 278.976375 109.355952 Q 279.023627 109.256559 278.919346 109.220712 C 278.894905 109.212565 278.868835 109.214195 278.846023 109.22723 Q 278.023181 109.7079 277.094428 109.966973 Q 273.418522 110.995119 269.51613 111.472531 Q 266.146549 111.886396 262.752528 112.111252 C 262.801409 112.0086 262.85355 111.899431 262.949684 111.835885 Q 266.436581 109.509114 267.278976 105.329726 Q 267.526643 104.104424 267.596707 102.88564 Q 267.759646 99.983694 267.758017 97.019832 Q 267.756388 92.460796 267.865557 65.378686 Q 267.878592 62.400159 267.841116 59.421633 Q 267.832969 58.78617 267.761276 58.155596 Q 267.595078 56.707067 266.509903 56.040646 Q 266.773865 56.011317 267.094855 55.954288 Q 267.461468 55.890742 267.679806 55.86956 Q 271.596862 55.4948 274.81328 54.769721 C 275.901714 54.523683 277.666344 54.12937 278.34743 53.150106 Q 278.459858 52.990426 278.582062 52.825857 Q 279.061103 53.031161 279.540144 53.510202 Q 280.250558 54.218987 280.253817 55.164034 Q 280.257076 56.16448 280.240782 57.124191 Q 280.239153 57.195884 280.310846 57.195884 Q 287.928249 57.166555 295.628751 57.176332 C 296.604757 57.177961 297.735554 57.976363 298.366128 58.677001 Q 299.161271 59.556872 299.159642 60.764251 Q 299.13683 81.729626 299.166159 86.021442 Q 299.172677 87.038182 298.617055 87.662239 Q 298.273253 88.048404 297.435746 88.602397 Q 293.836421 90.979679 282.658798 98.354303 Q 281.466084 99.141299 280.335287 99.91363 Q 280.229376 99.985324 280.229376 100.110787 Q 280.227747 105.520365 280.227747 106.258479 C 280.229376 106.970523 280.134872 107.724931 279.778035 108.174643 Q 279.334841 108.735154 278.976375 109.355952 Z M 280.32551 62.959041 Q 280.239153 62.959041 280.239153 63.045398 L 280.239153 94.430729 C 280.239153 94.474723 280.288034 94.502423 280.32551 94.477982 Q 281.77241 93.523158 283.240491 92.330444 Q 287.419879 88.939681 292.097861 84.859686 Q 292.699106 84.333393 292.747988 84.274735 Q 293.051055 83.908122 293.054313 83.422563 Q 293.082013 80.393525 293.065719 66.437791 C 293.065719 65.293958 293.160224 64.733447 292.2608 64.128943 C 291.247319 63.449487 290.106745 63.032363 288.891219 62.983481 Q 288.32745 62.962299 287.68547 62.96067 Q 284.10081 62.955782 280.32551 62.959041 Z" style="fill:#087995;"/>
		<path d="M 278.976375 109.355952 Q 277.954746 111.262339 276.626793 112.97157 Q 272.183443 118.689104 264.917988 119.50217 Q 263.332591 119.679774 260.968344 119.824789 Q 247.916922 120.62645 234.001922 120.162073 Q 229.51295 120.012169 225.331932 119.676515 Q 222.990497 119.489135 222.084556 119.332713 C 216.120984 118.304567 211.843833 114.73783 209.140673 109.373875 Q 209.601791 109.518891 210.012397 109.683459 C 211.276805 110.193459 212.663416 110.48349 214.01907 110.729528 C 220.249861 111.861955 226.565381 112.319814 232.895565 112.531635 Q 247.398775 113.020452 261.885692 112.182945 Q 262.003008 112.176428 262.31748 112.135693 Q 262.540707 112.106364 262.752528 112.111252 Q 266.146549 111.886396 269.51613 111.472531 Q 273.418522 110.995119 277.094428 109.966973 Q 278.023181 109.7079 278.846023 109.22723 C 278.868835 109.214195 278.894905 109.212565 278.919346 109.220712 Q 279.023627 109.256559 278.976375 109.355952 Z" style="fill:#073855;"/>
		<path d="M 280.32551 62.959041 Q 284.10081 62.955782 287.68547 62.96067 Q 288.32745 62.962299 288.891219 62.983481 C 290.106745 63.032363 291.247319 63.449487 292.2608 64.128943 C 293.160224 64.733447 293.065719 65.293958 293.065719 66.437791 Q 293.082013 80.393525 293.054313 83.422563 Q 293.051055 83.908122 292.747988 84.274735 Q 292.699106 84.333393 292.097861 84.859686 Q 287.419879 88.939681 283.240491 92.330444 Q 281.77241 93.523158 280.32551 94.477982 C 280.288034 94.502423 280.239153 94.474723 280.239153 94.430729 L 280.239153 63.045398 Q 280.239153 62.959041 280.32551 62.959041 Z" style="fill:#fbd485;"/>
	</g>
	<g id="surface4">
	</g>
</svg>
