<?xml version="1.0" encoding="utf-8"?>
<svg xmlns="http://www.w3.org/2000/svg" width="490pt" height="280pt" viewBox="0 0 490 280" version="1.1" xmlns:xlink="http://www.w3.org/1999/xlink">
	<g id="surface2">
		<path vector-effect="non-scaling-stroke" d="M 310.49352 39.349402 Q 309.928336 39.632978 309.372999 39.869292 Q 303.748731 42.259999 299.380865 44.867328 Q 297.742423 45.846061 296.615994 46.722391 C 296.533284 46.785408 296.415127 46.767685 296.358018 46.681036 Q 295.505319 45.387218 294.701852 44.321837 Q 284.776674 31.192638 269.652593 24.432095 Q 266.940893 23.219018 265.231556 22.63611 Q 262.053136 21.549067 257.807366 20.591996 Q 254.099209 19.755052 249.808145 19.45966 C 245.209873 19.140636 240.664771 19.248946 236.198441 19.961826 Q 225.936516 21.602238 216.692709 26.423039 Q 202.955002 33.589254 194.353181 46.385644 C 194.325611 46.42503 194.270471 46.436845 194.229116 46.413214 Q 187.517805 42.384064 180.349621 39.341524 Q 180.259034 39.304108 180.201925 39.225337 L 180.07786 39.059917" style="fill:none;stroke-width:0.50;stroke:#dda372;"/>
		<path vector-effect="non-scaling-stroke" d="M 320.420667 64.174163 L 306.180794 68.764558 C 306.021282 68.815759 305.849954 68.715326 305.820415 68.547937 C 304.41041 60.950449 301.100048 53.622753 296.700673 47.313175 C 296.596301 47.16351 296.391496 47.130032 296.245769 47.236373 C 295.460026 47.809434 294.552187 48.417942 293.760536 48.896478 Q 291.279241 50.39707 288.884595 52.100498 Q 286.107908 54.075688 283.677815 56.501842" style="fill:none;stroke-width:0.50;stroke:#efc28a;"/>
		<path vector-effect="non-scaling-stroke" d="M 207.147602 56.858282 Q 206.19447 55.950444 204.776587 54.392742 Q 203.083005 52.53374 200.629281 50.668831 Q 197.785638 48.504591 194.662358 46.677098 Q 194.361058 46.499862 194.162161 46.787377 Q 191.580433 50.505381 189.44967 54.587701 C 187.653686 58.030005 186.342144 61.649544 185.272825 65.454196 Q 184.829736 67.029621 184.552068 68.719264 C 184.532375 68.847267 184.400433 68.926039 184.278337 68.884684 L 170.062095 64.117053" style="fill:none;stroke-width:0.50;stroke:#efc28a;"/>
		<path vector-effect="non-scaling-stroke" d="M 202.937279 71.779527 Q 201.91916 71.226159 200.912857 70.70233 C 200.536725 70.505402 200.296472 70.550696 199.959725 70.737777 Q 199.020378 71.261606 197.923488 72.057196 C 196.160981 73.337229 193.573346 75.446329 191.353965 77.112341 Q 189.898667 78.203323 188.782084 79.207657 C 187.789566 80.097772 186.867942 81.017426 186.05266 81.41916 Q 185.932534 81.478238 185.564278 81.633811 Q 180.16057 83.926055 178.589084 84.599549 C 176.066434 85.682654 173.496522 86.417196 171.040828 87.565287 Q 170.13102 87.990652 169.207427 88.400262" style="fill:none;stroke-width:0.50;stroke:#938c74;"/>
		<path vector-effect="non-scaling-stroke" d="M 321.131578 88.288013 Q 320.863756 88.230904 320.639257 88.13244 Q 316.042955 86.133619 313.402148 84.820109 C 308.801907 82.529834 305.245385 80.605846 301.265467 78.768507 Q 300.794809 78.551886 294.62505 75.66295 Q 293.536038 75.152906 290.129181 73.364799 Q 288.699483 72.616472 288.006296 71.919346" style="fill:none;stroke-width:0.50;stroke:#938c74;"/>
		<path vector-effect="non-scaling-stroke" d="M 311.663273 115.07024 Q 309.717623 116.423136 308.388358 118.0025 Q 308.167798 118.266384 306.948813 119.798485 Q 306.887766 119.875287 306.834595 119.794546 Q 306.40923 119.162407 305.064211 116.326641 Q 303.849164 113.764606 302.405681 111.377837 C 302.342664 111.273465 302.187091 111.285281 302.141797 111.39753 L 299.583701 117.699231 C 299.512807 117.870558 299.282401 117.898128 299.17409 117.746493 C 299.050026 117.571227 298.884606 117.254173 298.831435 117.112385 Q 298.461211 116.129713 297.91572 115.525144 Q 297.250102 114.788633 297.232379 114.765001 C 296.371803 113.687804 295.58606 112.594853 294.609296 111.724431 C 294.465539 111.596428 294.246948 111.598397 294.109099 111.732308 Q 293.244584 112.559406 292.539581 113.770514 Q 292.490349 113.857163 292.427332 113.780361 Q 291.824732 113.037942 291.482077 112.136011 C 291.42103 111.97453 291.196532 111.960745 291.11776 112.114349 L 289.737294 114.79651 Q 289.692001 114.883158 289.634891 114.804387 Q 289.085462 114.034398 288.725083 113.185638 C 287.30917 109.847706 286.795188 108.238803 285.320196 106.090317 Q 285.08979 105.75357 284.853476 106.086378 L 282.693175 109.12301 Q 282.32295 109.6429 282.508062 109.038331 Q 282.547448 108.910328 282.474584 108.57555 Q 282.427322 108.362868 282.332796 108.152154 C 281.135473 105.501502 280.241419 103.431787 278.748704 101.342379 C 278.620701 101.163175 278.350909 101.171052 278.236691 101.360103 Q 276.554924 104.117097 275.056301 106.844552 C 274.394623 108.047783 274.384776 109.247075 274.197695 110.35775 Q 274.178002 110.471968 274.116954 110.373504 C 273.683712 109.660624 273.421798 108.874881 272.643932 108.435731 C 272.403679 108.299851 272.096471 108.398315 271.980284 108.648413 Q 271.677014 109.290399 271.389499 109.782719 C 270.987766 110.471968 270.286702 111.137585 269.652593 111.848496 Q 269.142549 112.423526 268.762478 112.980832 Q 268.077168 113.987135 266.566729 115.86583 C 266.489927 115.962324 266.340262 115.952478 266.277245 115.848106 L 263.738841 111.669291 C 263.671886 111.559011 263.512374 111.564919 263.453295 111.679137 L 259.873142 118.628731 Q 259.827848 118.71538 259.766801 118.642516 C 259.272511 118.059609 258.937733 117.470794 258.374519 116.909549 C 256.688814 115.231721 255.704173 114.150586 254.626976 113.557832 Q 254.498973 113.486938 254.404447 113.599187 Q 252.894009 115.436526 251.543082 117.758309 C 250.739615 119.138775 250.036581 120.036768 248.939692 121.005654 Q 248.866828 121.07064 248.774272 121.033224 Q 245.871551 119.822116 245.51905 119.676389 Q 244.733307 119.347519 244.392621 119.351458 C 243.433581 119.359335 242.710855 120.176587 242.127947 120.928852 C 242.047207 121.033224 241.887695 121.027316 241.812862 120.919006 C 241.304788 120.178556 240.865638 119.396751 240.085803 119.000926 Q 239.319752 118.614946 238.453268 118.378633 Q 238.155907 118.299861 236.834519 118.158073 Q 235.008995 117.963114 233.447355 116.901672 Q 233.201195 116.734283 232.785676 116.129713 C 232.051134 115.060394 231.094064 114.142708 230.101546 113.299856 Q 229.965666 113.183668 229.841601 113.313641 C 228.563537 114.652752 227.4056 116.533416 226.564717 118.075363 C 226.505638 118.181705 226.354003 118.185643 226.290986 118.081271 L 223.378419 113.28804 C 223.264201 113.100959 222.986532 113.118682 222.895945 113.319549 L 220.814415 118.020223 C 220.765183 118.132473 220.611579 118.150196 220.536746 118.053701 Q 219.997163 117.350668 219.760849 116.96075 Q 217.994404 114.040306 216.352023 111.320728 C 216.283098 111.204541 216.111771 111.214387 216.056631 111.338452 L 211.568639 121.464497 C 211.527284 121.557053 211.407158 121.580684 211.334294 121.50979 Q 210.270882 120.452286 209.185808 119.229362 C 208.266154 118.19352 207.687185 117.165555 206.867964 115.999741 C 206.767531 115.854014 206.556818 115.846137 206.444569 115.983987 Q 205.190136 117.525934 203.789977 119.128929 Q 203.421722 119.550355 203.025896 119.833932 C 202.897893 119.926488 202.720658 119.894979 202.63204 119.765007 L 198.60289 113.908364 C 198.502457 113.762637 198.291744 113.744914 198.167679 113.872917 Q 197.982567 114.067876 197.805331 114.321913 Q 197.120021 115.298677 194.187761 119.768945 Q 194.075512 119.942242 193.545776 120.501518 Q 193.47882 120.570443 193.392172 120.531057 C 192.374053 120.068276 190.68441 118.429834 189.947899 117.366422 C 189.262589 116.379812 188.338996 114.613367 187.328754 113.276225 C 187.224382 113.140344 187.037301 113.100959 186.887635 113.185638 C 185.064081 114.225418 184.6269 115.948539 183.598935 117.622429 Q 183.541826 117.714985 183.435485 117.693323 L 179.630833 116.939088" style="fill:none;stroke-width:0.50;stroke:#314647;"/>
		<path vector-effect="non-scaling-stroke" d="M 169.575683 90.694475 Q 169.61113 90.529055 169.557959 90.507393" style="fill:none;stroke-width:0.50;stroke:#314647;"/>
		<path vector-effect="non-scaling-stroke" d="M 239.091315 65.009138 Q 239.341414 64.485309 239.670284 64.077668 C 241.452484 61.874042 242.565128 60.515238 243.786082 58.303735 C 243.807744 58.26238 243.772297 58.215117 243.727004 58.224964 Q 243.62854 58.248595 243.526137 58.331305 Q 241.103921 60.28877 238.591118 62.900038 Q 237.752204 63.77046 237.482413 64.308074 Q 236.436724 66.393543 235.062166 67.49634 Q 232.752199 69.353373 230.708085 71.562906 Q 229.591502 72.770076 229.002687 73.191502 Q 227.899889 73.981184 226.804969 74.843729 Q 225.832144 75.60781 225.503274 75.976066 Q 225.016861 76.519588 225.727772 76.362045 L 226.984173 76.084376 Q 227.320921 76.009544 227.135808 76.300997 Q 226.995989 76.521557 226.962511 76.620021 Q 226.842385 76.964645 227.125962 76.736209 C 228.029862 76.007574 228.870745 75.418759 229.873109 74.560153 Q 233.506433 71.446719 233.636406 71.3325 C 234.36504 70.688545 235.322111 70.034744 236.042868 69.440021 Q 236.548973 69.022533 237.311085 68.008353 C 238.104705 66.950849 238.415852 66.306894 239.351261 65.832298 Q 241.690767 64.644821 244.024365 64.221425 Q 244.388682 64.156439 244.018457 64.140685 Q 243.502506 64.120992 242.976708 64.191886 C 242.086592 64.310043 241.539132 64.337613 240.643109 64.371091 C 239.971584 64.396691 239.717547 64.67436 239.244919 65.119418 Q 238.870756 65.471919 239.091315 65.009138" style="fill:none;stroke-width:0.50;stroke:#557476;"/>
		<path vector-effect="non-scaling-stroke" d="M 279.430075 75.044596 Q 279.203608 75.393159 279.680174 75.790954 Q 281.645517 77.433334 283.187464 78.97922 C 283.532088 79.323844 283.979115 79.438063 284.341463 79.676346 Q 284.890893 80.038693 284.475374 79.493203 Q 283.354853 78.030026 283.031891 77.297454 C 283.002352 77.232467 282.95115 77.181266 282.886164 77.151727 L 282.706959 77.072956 Q 282.604557 77.027662 282.580925 76.917382 L 282.372182 75.976066 C 282.34855 75.871694 282.21267 75.844124 282.149653 75.930772 L 281.990141 76.15724 Q 281.927124 76.243888 281.822752 76.224195 Q 281.659302 76.194656 281.627793 76.043022 Q 281.617947 76.001667 281.615978 75.544793 C 281.614008 75.406944 281.503729 75.296664 281.367848 75.296664 L 280.853866 75.296664 Q 280.633306 75.296664 280.660876 75.078074 Q 280.755402 74.325808 280.312313 74.386856 C 280.241419 74.396702 280.178402 74.339593 280.182341 74.26673 Q 280.209911 73.695638 280.353668 73.354952 Q 280.879466 72.106428 281.165012 71.023323 C 281.184705 70.946521 281.101995 70.881535 281.03307 70.920921 Q 280.219757 71.377794 279.532478 72.086735 Q 279.077574 72.555424 277.41747 74.451842 Q 276.793207 75.166691 274.682138 76.86815 Q 274.546257 76.976461 274.668353 77.100526 L 274.719554 77.151727 Q 274.735308 77.167481 274.756971 77.155666 Q 275.80069 76.562912 276.903487 76.003636 Q 277.79951 75.550701 278.764458 75.28091 C 278.988956 75.217893 279.22527 75.082012 279.38872 74.971732 Q 279.544294 74.86933 279.430075 75.044596" style="fill:none;stroke-width:0.50;stroke:#557476;"/>
		<path vector-effect="non-scaling-stroke" d="M 194.431952 79.788595 C 194.315765 79.74724 194.282287 79.597574 194.370905 79.512895 C 194.808085 79.093438 195.162556 78.937865 195.152709 78.199385 Q 195.142863 77.533768 195.262989 77.326993 Q 195.804541 76.409308 196.649363 75.948496 Q 197.738376 75.357712 198.209034 74.796466 C 198.65803 74.260822 199.323647 73.116669 200.162561 72.405759 Q 200.335858 72.258063 200.125145 72.344711 C 199.309862 72.67752 198.925852 72.890202 198.254327 73.510526 Q 196.450466 75.166691 194.341365 76.338414 Q 194.282287 76.371892 192.994377 76.939045 Q 191.895518 77.423488 191.001464 78.374651 Q 188.283856 81.267525 187.557191 82.025698 Q 186.724185 82.894151 186.251557 83.991041 C 185.853763 84.914634 185.471722 85.635391 184.859275 86.218298 Q 184.030208 87.013888 183.224772 87.823263 Q 183.159786 87.888249 183.244465 87.923696 L 183.309451 87.949297 Q 183.331113 87.959143 183.348837 87.94142 Q 184.095194 87.183246 185.845885 85.623575 Q 186.531195 85.011129 188.181453 83.433735 C 189.595397 82.084777 191.678897 81.799231 193.323247 80.655079 C 193.376417 80.617662 193.417772 80.566461 193.443373 80.507382 Q 193.608793 80.109588 194.118837 80.15882 Q 194.380751 80.18442 195.402808 80.237591 Q 195.418562 80.23956 195.42447 80.223806 L 195.446132 80.174574 Q 195.455979 80.147004 195.428409 80.139127 L 194.431952 79.788595" style="fill:none;stroke-width:0.50;stroke:#557476;"/>
		<path vector-effect="non-scaling-stroke" d="M 198.763367 72.336578 C 198.724986 72.279725 198.646214 72.263971 198.588396 72.302568 L 197.024373 73.357532 C 196.966417 73.396307 196.950663 73.475079 196.990364 73.532483 L 196.996961 73.54229 C 197.035342 73.599143 197.114114 73.614898 197.171932 73.5763 L 198.735955 72.521336 C 198.793911 72.482561 198.809665 72.40379 198.769964 72.346385 L 198.763367 72.336578" style="fill:none;stroke-width:0.50;stroke:#557476;"/>
		<path vector-effect="non-scaling-stroke" d="M 271.976345 77.701156 Q 271.966499 77.063109 272.202813 76.131639 C 272.224475 76.044991 272.141765 75.970158 272.059055 75.999697 C 270.731759 76.482171 269.987371 76.688946 269.048024 77.240345 C 268.97713 77.2817 268.969253 77.382133 269.03227 77.435303 Q 270.775084 78.874848 272.62227 79.985523 C 273.346965 80.422703 273.797931 80.570399 274.607305 80.351809 Q 275.339878 80.152912 277.047245 79.642868 Q 277.708923 79.44594 278.148073 79.577882 Q 283.138232 81.084382 285.36352 81.484146 Q 288.004326 81.958743 290.633317 82.470756 Q 290.662856 82.474695 290.682549 82.439247 L 290.682549 82.437278 C 290.694365 82.417585 290.68058 82.393954 290.654979 82.386077 Q 287.82906 81.621996 285.038589 80.727942 C 282.909795 80.044601 280.221726 79.475479 278.305616 78.945742 Q 277.594705 78.748814 276.911364 78.794108 Q 274.579735 78.95165 272.669532 79.325814 Q 272.285522 79.400646 272.500174 79.075715 C 272.943262 78.400251 273.226839 77.890207 273.703405 77.458935 Q 274.443855 76.785441 275.194151 76.167086 Q 275.686471 75.763384 275.952324 75.304541 C 276.001556 75.215923 275.940509 75.107613 275.840075 75.103674 C 274.81211 75.068227 274.022429 75.566455 272.769966 76.216318 C 272.309154 76.456571 272.141765 77.3073 272.023608 77.707064 Q 271.978315 77.85673 271.976345 77.701156" style="fill:none;stroke-width:0.50;stroke:#557476;"/>
		<path vector-effect="non-scaling-stroke" d="M 213.697432 85.485726 Q 211.866 86.915424 210.243312 88.252566 C 207.324837 90.659028 204.071585 92.860685 201.09797 94.784672 Q 201.066461 94.778765 201.078277 94.824058 C 201.082215 94.837843 201.096 94.84572 201.109785 94.837843 C 202.403603 94.186011 203.923889 93.071398 206.481985 91.287229 Q 208.053472 90.190339 209.642682 88.939845 C 213.228743 86.113927 214.920356 84.747245 218.25238 82.382138 C 219.158249 81.740153 220.196061 81.214354 221.249626 80.534952 C 222.632062 79.642868 223.463098 79.14464 223.95148 77.752358 Q 224.063729 77.429396 223.758491 77.584969 Q 222.015677 78.475084 220.357542 79.619237 Q 217.253954 81.757876 213.644261 84.367174 Q 212.637959 85.093839 211.405188 86.102111 Q 210.455995 86.876038 209.114914 87.777969 Q 208.98888 87.862648 208.90814 87.976867 Q 208.829368 88.089116 208.939648 88.010344 C 209.550125 87.58301 210.515073 86.895731 211.326417 86.545199 Q 212.346505 86.102111 213.644261 85.408924 Q 213.652139 85.406955 213.658046 85.408924 Q 213.689555 85.420739 213.701371 85.432555 Q 213.726971 85.462094 213.697432 85.485726" style="fill:none;stroke-width:0.50;stroke:#557476;"/>
		<path vector-effect="non-scaling-stroke" d="M 171.196401 88.392385 Q 170.394904 88.740948 169.981355 88.957569 Q 169.867136 89.016647 169.778519 89.107234 Q 169.615068 89.270685 169.60916 89.436104 C 169.605222 89.524722 169.699747 89.58577 169.778519 89.544415 C 172.647762 88.081239 174.047921 87.407744 176.700543 86.271469 Q 176.722205 86.263592 176.728113 86.285254 Q 179.406335 94.652731 176.716297 86.257684 Q 176.706451 86.228145 176.678881 86.237991 Q 173.919917 87.155676 171.387422 88.258474 Q 171.373637 88.264382 171.296835 88.329368 Q 171.25351 88.366784 171.196401 88.392385" style="fill:none;stroke-width:0.50;stroke:#557476;"/>
		<path d="M 310.49352 39.349402 Q 309.928336 39.632978 309.372999 39.869292 Q 303.748731 42.259999 299.380865 44.867328 Q 297.742423 45.846061 296.615994 46.722391 C 296.533284 46.785408 296.415127 46.767685 296.358018 46.681036 Q 295.505319 45.387218 294.701852 44.321837 Q 284.776674 31.192638 269.652593 24.432095 Q 266.940893 23.219018 265.231556 22.63611 Q 262.053136 21.549067 257.807366 20.591996 Q 254.099209 19.755052 249.808145 19.45966 C 245.209873 19.140636 240.664771 19.248946 236.198441 19.961826 Q 225.936516 21.602238 216.692709 26.423039 Q 202.955002 33.589254 194.353181 46.385644 C 194.325611 46.42503 194.270471 46.436845 194.229116 46.413214 Q 187.517805 42.384064 180.349621 39.341524 Q 180.259034 39.304108 180.201925 39.225337 L 180.07786 39.059917 Q 183.689522 33.423834 188.571371 28.240685 C 192.978623 23.561673 197.722621 19.469506 202.909709 16.167021 Q 214.028271 9.093362 226.066488 6.214273 Q 246.09408 1.42695 265.784925 6.710532 Q 271.921205 8.356851 278.270169 11.358036 Q 292.043322 17.86848 302.43522 28.920087 Q 303.538018 30.09181 306.462401 33.646363 Q 307.852713 35.336006 310.49352 39.349402 Z" style="fill:#cf8a65;"/>
		<path d="M 310.49352 39.349402 Q 315.912982 47.842912 318.689669 57.013856 Q 319.516767 59.749187 320.420667 64.174163 L 306.180794 68.764558 C 306.021282 68.815759 305.849954 68.715326 305.820415 68.547937 C 304.41041 60.950449 301.100048 53.622753 296.700673 47.313175 C 296.596301 47.16351 296.391496 47.130032 296.245769 47.236373 C 295.460026 47.809434 294.552187 48.417942 293.760536 48.896478 Q 291.279241 50.39707 288.884595 52.100498 Q 286.107908 54.075688 283.677815 56.501842 Q 281.781397 52.976829 279.879071 50.678677 Q 277.299313 47.561305 273.583279 44.664492 Q 266.655347 39.268661 258.270147 36.604223 Q 252.677388 34.825962 247.001919 34.684174 Q 244.67029 34.625096 243.061387 34.66645 Q 238.707306 34.780669 234.382764 36.096149 C 226.314618 38.553812 218.455216 43.002419 212.653713 49.172177 Q 209.498924 52.529802 207.147602 56.858282 Q 206.19447 55.950444 204.776587 54.392742 Q 203.083005 52.53374 200.629281 50.668831 Q 197.785638 48.504591 194.662358 46.677098 Q 194.361058 46.499862 194.162161 46.787377 Q 191.580433 50.505381 189.44967 54.587701 C 187.653686 58.030005 186.342144 61.649544 185.272825 65.454196 Q 184.829736 67.029621 184.552068 68.719264 C 184.532375 68.847267 184.400433 68.926039 184.278337 68.884684 L 170.062095 64.117053 Q 172.604437 50.58809 180.07786 39.059917 L 180.201925 39.225337 Q 180.259034 39.304108 180.349621 39.341524 Q 187.517805 42.384064 194.229116 46.413214 C 194.270471 46.436845 194.325611 46.42503 194.353181 46.385644 Q 202.955002 33.589254 216.692709 26.423039 Q 225.936516 21.602238 236.198441 19.961826 C 240.664771 19.248946 245.209873 19.140636 249.808145 19.45966 Q 254.099209 19.755052 257.807366 20.591996 Q 262.053136 21.549067 265.231556 22.63611 Q 266.940893 23.219018 269.652593 24.432095 Q 284.776674 31.192638 294.701852 44.321837 Q 295.505319 45.387218 296.358018 46.681036 C 296.415127 46.767685 296.533284 46.785408 296.615994 46.722391 Q 297.742423 45.846061 299.380865 44.867328 Q 303.748731 42.259999 309.372999 39.869292 Q 309.928336 39.632978 310.49352 39.349402 Z" style="fill:#ebbb7f;"/>
		<path d="M 207.147602 56.858282 Q 205.861661 59.363208 205.387065 60.562501 Q 203.524124 65.288776 202.76792 70.253334 Q 202.71278 70.619621 202.506006 71.167081 C 202.482375 71.22419 202.49616 71.291146 202.537514 71.336439 L 202.937279 71.779527 Q 201.91916 71.226159 200.912857 70.70233 C 200.536725 70.505402 200.296472 70.550696 199.959725 70.737777 Q 199.020378 71.261606 197.923488 72.057196 C 196.160981 73.337229 193.573346 75.446329 191.353965 77.112341 Q 189.898667 78.203323 188.782084 79.207657 C 187.789566 80.097772 186.867942 81.017426 186.05266 81.41916 Q 185.932534 81.478238 185.564278 81.633811 Q 180.16057 83.926055 178.589084 84.599549 C 176.066434 85.682654 173.496522 86.417196 171.040828 87.565287 Q 170.13102 87.990652 169.207427 88.400262 Q 168.165677 81.387651 168.657998 74.256883 Q 168.73283 73.156055 169.122748 69.583779 Q 169.357092 67.413631 170.062095 64.117053 L 184.278337 68.884684 C 184.400433 68.926039 184.532375 68.847267 184.552068 68.719264 Q 184.829736 67.029621 185.272825 65.454196 C 186.342144 61.649544 187.653686 58.030005 189.44967 54.587701 Q 191.580433 50.505381 194.162161 46.787377 Q 194.361058 46.499862 194.662358 46.677098 Q 197.785638 48.504591 200.629281 50.668831 Q 203.083005 52.53374 204.776587 54.392742 Q 206.19447 55.950444 207.147602 56.858282 Z" style="fill:#f2c994;"/>
		<path d="M 320.420667 64.174163 C 321.91929 71.618046 322.122126 79.022544 321.403339 86.614124 Q 321.356076 87.102506 321.131578 88.288013 Q 320.863756 88.230904 320.639257 88.13244 Q 316.042955 86.133619 313.402148 84.820109 C 308.801907 82.529834 305.245385 80.605846 301.265467 78.768507 Q 300.794809 78.551886 294.62505 75.66295 Q 293.536038 75.152906 290.129181 73.364799 Q 288.699483 72.616472 288.006296 71.919346 Q 288.10476 71.007569 287.957064 70.219856 Q 287.498221 67.750378 286.915314 65.312407 Q 285.790854 60.623548 283.677815 56.501842 Q 286.107908 54.075688 288.884595 52.100498 Q 291.279241 50.39707 293.760536 48.896478 C 294.552187 48.417942 295.460026 47.809434 296.245769 47.236373 C 296.391496 47.130032 296.596301 47.16351 296.700673 47.313175 C 301.100048 53.622753 304.41041 60.950449 305.820415 68.547937 C 305.849954 68.715326 306.021282 68.815759 306.180794 68.764558 L 320.420667 64.174163 Z" style="fill:#f2c994;"/>
		<path d="M 288.006296 71.919346 Q 288.699483 72.616472 290.129181 73.364799 Q 293.536038 75.152906 294.62505 75.66295 Q 300.794809 78.551886 301.265467 78.768507 C 305.245385 80.605846 308.801907 82.529834 313.402148 84.820109 Q 316.042955 86.133619 320.639257 88.13244 Q 320.863756 88.230904 321.131578 88.288013 Q 319.052017 102.648013 311.663273 115.07024 Q 309.717623 116.423136 308.388358 118.0025 Q 308.167798 118.266384 306.948813 119.798485 Q 306.887766 119.875287 306.834595 119.794546 Q 306.40923 119.162407 305.064211 116.326641 Q 303.849164 113.764606 302.405681 111.377837 C 302.342664 111.273465 302.187091 111.285281 302.141797 111.39753 L 299.583701 117.699231 C 299.512807 117.870558 299.282401 117.898128 299.17409 117.746493 C 299.050026 117.571227 298.884606 117.254173 298.831435 117.112385 Q 298.461211 116.129713 297.91572 115.525144 Q 297.250102 114.788633 297.232379 114.765001 C 296.371803 113.687804 295.58606 112.594853 294.609296 111.724431 C 294.465539 111.596428 294.246948 111.598397 294.109099 111.732308 Q 293.244584 112.559406 292.539581 113.770514 Q 292.490349 113.857163 292.427332 113.780361 Q 291.824732 113.037942 291.482077 112.136011 C 291.42103 111.97453 291.196532 111.960745 291.11776 112.114349 L 289.737294 114.79651 Q 289.692001 114.883158 289.634891 114.804387 Q 289.085462 114.034398 288.725083 113.185638 C 287.30917 109.847706 286.795188 108.238803 285.320196 106.090317 Q 285.08979 105.75357 284.853476 106.086378 L 282.693175 109.12301 Q 282.32295 109.6429 282.508062 109.038331 Q 282.547448 108.910328 282.474584 108.57555 Q 282.427322 108.362868 282.332796 108.152154 C 281.135473 105.501502 280.241419 103.431787 278.748704 101.342379 C 278.620701 101.163175 278.350909 101.171052 278.236691 101.360103 Q 276.554924 104.117097 275.056301 106.844552 C 274.394623 108.047783 274.384776 109.247075 274.197695 110.35775 Q 274.178002 110.471968 274.116954 110.373504 C 273.683712 109.660624 273.421798 108.874881 272.643932 108.435731 C 272.403679 108.299851 272.096471 108.398315 271.980284 108.648413 Q 271.677014 109.290399 271.389499 109.782719 C 270.987766 110.471968 270.286702 111.137585 269.652593 111.848496 Q 269.142549 112.423526 268.762478 112.980832 Q 268.077168 113.987135 266.566729 115.86583 C 266.489927 115.962324 266.340262 115.952478 266.277245 115.848106 L 263.738841 111.669291 C 263.671886 111.559011 263.512374 111.564919 263.453295 111.679137 L 259.873142 118.628731 Q 259.827848 118.71538 259.766801 118.642516 C 259.272511 118.059609 258.937733 117.470794 258.374519 116.909549 C 256.688814 115.231721 255.704173 114.150586 254.626976 113.557832 Q 254.498973 113.486938 254.404447 113.599187 Q 252.894009 115.436526 251.543082 117.758309 C 250.739615 119.138775 250.036581 120.036768 248.939692 121.005654 Q 248.866828 121.07064 248.774272 121.033224 Q 245.871551 119.822116 245.51905 119.676389 Q 244.733307 119.347519 244.392621 119.351458 C 243.433581 119.359335 242.710855 120.176587 242.127947 120.928852 C 242.047207 121.033224 241.887695 121.027316 241.812862 120.919006 C 241.304788 120.178556 240.865638 119.396751 240.085803 119.000926 Q 239.319752 118.614946 238.453268 118.378633 Q 238.155907 118.299861 236.834519 118.158073 Q 235.008995 117.963114 233.447355 116.901672 Q 233.201195 116.734283 232.785676 116.129713 C 232.051134 115.060394 231.094064 114.142708 230.101546 113.299856 Q 229.965666 113.183668 229.841601 113.313641 C 228.563537 114.652752 227.4056 116.533416 226.564717 118.075363 C 226.505638 118.181705 226.354003 118.185643 226.290986 118.081271 L 223.378419 113.28804 C 223.264201 113.100959 222.986532 113.118682 222.895945 113.319549 L 220.814415 118.020223 C 220.765183 118.132473 220.611579 118.150196 220.536746 118.053701 Q 219.997163 117.350668 219.760849 116.96075 Q 217.994404 114.040306 216.352023 111.320728 C 216.283098 111.204541 216.111771 111.214387 216.056631 111.338452 L 211.568639 121.464497 C 211.527284 121.557053 211.407158 121.580684 211.334294 121.50979 Q 210.270882 120.452286 209.185808 119.229362 C 208.266154 118.19352 207.687185 117.165555 206.867964 115.999741 C 206.767531 115.854014 206.556818 115.846137 206.444569 115.983987 Q 205.190136 117.525934 203.789977 119.128929 Q 203.421722 119.550355 203.025896 119.833932 C 202.897893 119.926488 202.720658 119.894979 202.63204 119.765007 L 198.60289 113.908364 C 198.502457 113.762637 198.291744 113.744914 198.167679 113.872917 Q 197.982567 114.067876 197.805331 114.321913 Q 197.120021 115.298677 194.187761 119.768945 Q 194.075512 119.942242 193.545776 120.501518 Q 193.47882 120.570443 193.392172 120.531057 C 192.374053 120.068276 190.68441 118.429834 189.947899 117.366422 C 189.262589 116.379812 188.338996 114.613367 187.328754 113.276225 C 187.224382 113.140344 187.037301 113.100959 186.887635 113.185638 C 185.064081 114.225418 184.6269 115.948539 183.598935 117.622429 Q 183.541826 117.714985 183.435485 117.693323 L 179.630833 116.939088 Q 171.909281 104.865424 169.575683 90.694475 Q 169.61113 90.529055 169.557959 90.507393 L 169.207427 88.400262 Q 170.13102 87.990652 171.040828 87.565287 C 173.496522 86.417196 176.066434 85.682654 178.589084 84.599549 Q 180.16057 83.926055 185.564278 81.633811 Q 185.932534 81.478238 186.05266 81.41916 C 186.867942 81.017426 187.789566 80.097772 188.782084 79.207657 Q 189.898667 78.203323 191.353965 77.112341 C 193.573346 75.446329 196.160981 73.337229 197.923488 72.057196 Q 199.020378 71.261606 199.959725 70.737777 C 200.296472 70.550696 200.536725 70.505402 200.912857 70.70233 Q 201.91916 71.226159 202.937279 71.779527 Q 204.512704 72.742506 206.060559 73.782287 Q 207.429209 74.701941 208.624563 75.30651 C 210.306329 76.15724 211.952649 76.921321 213.453241 77.720849 Q 215.966044 79.056022 217.397712 79.751178 C 217.582824 79.841765 217.801414 79.820103 217.962895 79.694069 C 219.008584 78.888633 220.221661 77.775989 221.029067 77.104464 Q 224.168101 74.497136 227.320921 71.907531 Q 227.334706 71.897684 229.638765 70.113515 C 230.891228 69.144629 231.897531 68.228913 232.917618 66.941003 Q 235.292572 63.945726 235.723844 63.431744 C 236.50368 62.502243 237.994426 61.547141 238.679736 60.970142 Q 243.943625 56.525474 244.103137 56.391563 Q 244.717552 55.869703 245.265013 56.291129 Q 246.787267 57.46679 248.610822 58.94769 C 249.788452 59.904761 251.478095 61.019374 252.630125 62.120202 Q 253.21894 62.681447 254.837689 64.445923 Q 255.903071 65.60583 257.031469 66.925249 Q 260.115363 70.534942 262.283542 72.856724 C 262.94719 73.565666 263.589176 74.067832 264.528523 74.56606 Q 266.212259 75.458145 267.722697 76.432939 C 267.829039 76.501864 267.96295 76.505803 268.07323 76.446724 Q 269.465511 75.708244 271.712462 74.65074 Q 273.392259 73.861058 275.209905 73.286028 C 276.151222 72.990635 277.041337 72.157629 277.777848 71.523521 C 279.209516 70.290751 280.686477 69.189922 282.169346 68.026077 C 282.319011 67.90792 282.529724 67.903982 282.683328 68.016231 L 288.006296 71.919346 Z M 239.091315 65.009138 Q 239.341414 64.485309 239.670284 64.077668 C 241.452484 61.874042 242.565128 60.515238 243.786082 58.303735 C 243.807744 58.26238 243.772297 58.215117 243.727004 58.224964 Q 243.62854 58.248595 243.526137 58.331305 Q 241.103921 60.28877 238.591118 62.900038 Q 237.752204 63.77046 237.482413 64.308074 Q 236.436724 66.393543 235.062166 67.49634 Q 232.752199 69.353373 230.708085 71.562906 Q 229.591502 72.770076 229.002687 73.191502 Q 227.899889 73.981184 226.804969 74.843729 Q 225.832144 75.60781 225.503274 75.976066 Q 225.016861 76.519588 225.727772 76.362045 L 226.984173 76.084376 Q 227.320921 76.009544 227.135808 76.300997 Q 226.995989 76.521557 226.962511 76.620021 Q 226.842385 76.964645 227.125962 76.736209 C 228.029862 76.007574 228.870745 75.418759 229.873109 74.560153 Q 233.506433 71.446719 233.636406 71.3325 C 234.36504 70.688545 235.322111 70.034744 236.042868 69.440021 Q 236.548973 69.022533 237.311085 68.008353 C 238.104705 66.950849 238.415852 66.306894 239.351261 65.832298 Q 241.690767 64.644821 244.024365 64.221425 Q 244.388682 64.156439 244.018457 64.140685 Q 243.502506 64.120992 242.976708 64.191886 C 242.086592 64.310043 241.539132 64.337613 240.643109 64.371091 C 239.971584 64.396691 239.717547 64.67436 239.244919 65.119418 Q 238.870756 65.471919 239.091315 65.009138 Z M 279.430075 75.044596 Q 279.203608 75.393159 279.680174 75.790954 Q 281.645517 77.433334 283.187464 78.97922 C 283.532088 79.323844 283.979115 79.438063 284.341463 79.676346 Q 284.890893 80.038693 284.475374 79.493203 Q 283.354853 78.030026 283.031891 77.297454 C 283.002352 77.232467 282.95115 77.181266 282.886164 77.151727 L 282.706959 77.072956 Q 282.604557 77.027662 282.580925 76.917382 L 282.372182 75.976066 C 282.34855 75.871694 282.21267 75.844124 282.149653 75.930772 L 281.990141 76.15724 Q 281.927124 76.243888 281.822752 76.224195 Q 281.659302 76.194656 281.627793 76.043022 Q 281.617947 76.001667 281.615978 75.544793 C 281.614008 75.406944 281.503729 75.296664 281.367848 75.296664 L 280.853866 75.296664 Q 280.633306 75.296664 280.660876 75.078074 Q 280.755402 74.325808 280.312313 74.386856 C 280.241419 74.396702 280.178402 74.339593 280.182341 74.26673 Q 280.209911 73.695638 280.353668 73.354952 Q 280.879466 72.106428 281.165012 71.023323 C 281.184705 70.946521 281.101995 70.881535 281.03307 70.920921 Q 280.219757 71.377794 279.532478 72.086735 Q 279.077574 72.555424 277.41747 74.451842 Q 276.793207 75.166691 274.682138 76.86815 Q 274.546257 76.976461 274.668353 77.100526 L 274.719554 77.151727 Q 274.735308 77.167481 274.756971 77.155666 Q 275.80069 76.562912 276.903487 76.003636 Q 277.79951 75.550701 278.764458 75.28091 C 278.988956 75.217893 279.22527 75.082012 279.38872 74.971732 Q 279.544294 74.86933 279.430075 75.044596 Z M 194.431952 79.788595 C 194.315765 79.74724 194.282287 79.597574 194.370905 79.512895 C 194.808085 79.093438 195.162556 78.937865 195.152709 78.199385 Q 195.142863 77.533768 195.262989 77.326993 Q 195.804541 76.409308 196.649363 75.948496 Q 197.738376 75.357712 198.209034 74.796466 C 198.65803 74.260822 199.323647 73.116669 200.162561 72.405759 Q 200.335858 72.258063 200.125145 72.344711 C 199.309862 72.67752 198.925852 72.890202 198.254327 73.510526 Q 196.450466 75.166691 194.341365 76.338414 Q 194.282287 76.371892 192.994377 76.939045 Q 191.895518 77.423488 191.001464 78.374651 Q 188.283856 81.267525 187.557191 82.025698 Q 186.724185 82.894151 186.251557 83.991041 C 185.853763 84.914634 185.471722 85.635391 184.859275 86.218298 Q 184.030208 87.013888 183.224772 87.823263 Q 183.159786 87.888249 183.244465 87.923696 L 183.309451 87.949297 Q 183.331113 87.959143 183.348837 87.94142 Q 184.095194 87.183246 185.845885 85.623575 Q 186.531195 85.011129 188.181453 83.433735 C 189.595397 82.084777 191.678897 81.799231 193.323247 80.655079 C 193.376417 80.617662 193.417772 80.566461 193.443373 80.507382 Q 193.608793 80.109588 194.118837 80.15882 Q 194.380751 80.18442 195.402808 80.237591 Q 195.418562 80.23956 195.42447 80.223806 L 195.446132 80.174574 Q 195.455979 80.147004 195.428409 80.139127 L 194.431952 79.788595 Z M 198.763367 72.336578 C 198.724986 72.279725 198.646214 72.263971 198.588396 72.302568 L 197.024373 73.357532 C 196.966417 73.396307 196.950663 73.475079 196.990364 73.532483 L 196.996961 73.54229 C 197.035342 73.599143 197.114114 73.614898 197.171932 73.5763 L 198.735955 72.521336 C 198.793911 72.482561 198.809665 72.40379 198.769964 72.346385 L 198.763367 72.336578 Z M 271.976345 77.701156 Q 271.966499 77.063109 272.202813 76.131639 C 272.224475 76.044991 272.141765 75.970158 272.059055 75.999697 C 270.731759 76.482171 269.987371 76.688946 269.048024 77.240345 C 268.97713 77.2817 268.969253 77.382133 269.03227 77.435303 Q 270.775084 78.874848 272.62227 79.985523 C 273.346965 80.422703 273.797931 80.570399 274.607305 80.351809 Q 275.339878 80.152912 277.047245 79.642868 Q 277.708923 79.44594 278.148073 79.577882 Q 283.138232 81.084382 285.36352 81.484146 Q 288.004326 81.958743 290.633317 82.470756 Q 290.662856 82.474695 290.682549 82.439247 L 290.682549 82.437278 C 290.694365 82.417585 290.68058 82.393954 290.654979 82.386077 Q 287.82906 81.621996 285.038589 80.727942 C 282.909795 80.044601 280.221726 79.475479 278.305616 78.945742 Q 277.594705 78.748814 276.911364 78.794108 Q 274.579735 78.95165 272.669532 79.325814 Q 272.285522 79.400646 272.500174 79.075715 C 272.943262 78.400251 273.226839 77.890207 273.703405 77.458935 Q 274.443855 76.785441 275.194151 76.167086 Q 275.686471 75.763384 275.952324 75.304541 C 276.001556 75.215923 275.940509 75.107613 275.840075 75.103674 C 274.81211 75.068227 274.022429 75.566455 272.769966 76.216318 C 272.309154 76.456571 272.141765 77.3073 272.023608 77.707064 Q 271.978315 77.85673 271.976345 77.701156 Z M 213.697432 85.485726 Q 211.866 86.915424 210.243312 88.252566 C 207.324837 90.659028 204.071585 92.860685 201.09797 94.784672 Q 201.066461 94.778765 201.078277 94.824058 C 201.082215 94.837843 201.096 94.84572 201.109785 94.837843 C 202.403603 94.186011 203.923889 93.071398 206.481985 91.287229 Q 208.053472 90.190339 209.642682 88.939845 C 213.228743 86.113927 214.920356 84.747245 218.25238 82.382138 C 219.158249 81.740153 220.196061 81.214354 221.249626 80.534952 C 222.632062 79.642868 223.463098 79.14464 223.95148 77.752358 Q 224.063729 77.429396 223.758491 77.584969 Q 222.015677 78.475084 220.357542 79.619237 Q 217.253954 81.757876 213.644261 84.367174 Q 212.637959 85.093839 211.405188 86.102111 Q 210.455995 86.876038 209.114914 87.777969 Q 208.98888 87.862648 208.90814 87.976867 Q 208.829368 88.089116 208.939648 88.010344 C 209.550125 87.58301 210.515073 86.895731 211.326417 86.545199 Q 212.346505 86.102111 213.644261 85.408924 Q 213.652139 85.406955 213.658046 85.408924 Q 213.689555 85.420739 213.701371 85.432555 Q 213.726971 85.462094 213.697432 85.485726 Z M 171.196401 88.392385 Q 170.394904 88.740948 169.981355 88.957569 Q 169.867136 89.016647 169.778519 89.107234 Q 169.615068 89.270685 169.60916 89.436104 C 169.605222 89.524722 169.699747 89.58577 169.778519 89.544415 C 172.647762 88.081239 174.047921 87.407744 176.700543 86.271469 Q 176.722205 86.263592 176.728113 86.285254 Q 179.406335 94.652731 176.716297 86.257684 Q 176.706451 86.228145 176.678881 86.237991 Q 173.919917 87.155676 171.387422 88.258474 Q 171.373637 88.264382 171.296835 88.329368 Q 171.25351 88.366784 171.196401 88.392385 Z" style="fill:#344e54;"/>
		<path d="M 169.575683 90.694475 L 169.557959 90.507393 Q 169.61113 90.529055 169.575683 90.694475 Z" style="fill:#2e3d3a;"/>
		<path d="M 311.663273 115.07024 C 310.160711 117.614551 308.449406 120.046614 306.694776 122.342796 C 299.916509 131.218347 290.909016 138.416071 280.942483 143.402291 Q 267.350503 150.200251 252.240207 151.60041 Q 250.88928 151.724474 249.128743 151.801276 C 247.54741 151.870201 246.334332 151.95685 244.97159 151.935187 Q 239.623021 151.850508 236.649407 151.5177 Q 219.215358 149.566142 204.209434 140.519263 Q 189.268496 131.51177 179.630833 116.939088 L 183.435485 117.693323 Q 183.541826 117.714985 183.598935 117.622429 C 184.6269 115.948539 185.064081 114.225418 186.887635 113.185638 C 187.037301 113.100959 187.224382 113.140344 187.328754 113.276225 C 188.338996 114.613367 189.262589 116.379812 189.947899 117.366422 C 190.68441 118.429834 192.374053 120.068276 193.392172 120.531057 Q 193.47882 120.570443 193.545776 120.501518 Q 194.075512 119.942242 194.187761 119.768945 Q 197.120021 115.298677 197.805331 114.321913 Q 197.982567 114.067876 198.167679 113.872917 C 198.291744 113.744914 198.502457 113.762637 198.60289 113.908364 L 202.63204 119.765007 C 202.720658 119.894979 202.897893 119.926488 203.025896 119.833932 Q 203.421722 119.550355 203.789977 119.128929 Q 205.190136 117.525934 206.444569 115.983987 C 206.556818 115.846137 206.767531 115.854014 206.867964 115.999741 C 207.687185 117.165555 208.266154 118.19352 209.185808 119.229362 Q 210.270882 120.452286 211.334294 121.50979 C 211.407158 121.580684 211.527284 121.557053 211.568639 121.464497 L 216.056631 111.338452 C 216.111771 111.214387 216.283098 111.204541 216.352023 111.320728 Q 217.994404 114.040306 219.760849 116.96075 Q 219.997163 117.350668 220.536746 118.053701 C 220.611579 118.150196 220.765183 118.132473 220.814415 118.020223 L 222.895945 113.319549 C 222.986532 113.118682 223.264201 113.100959 223.378419 113.28804 L 226.290986 118.081271 C 226.354003 118.185643 226.505638 118.181705 226.564717 118.075363 C 227.4056 116.533416 228.563537 114.652752 229.841601 113.313641 Q 229.965666 113.183668 230.101546 113.299856 C 231.094064 114.142708 232.051134 115.060394 232.785676 116.129713 Q 233.201195 116.734283 233.447355 116.901672 Q 235.008995 117.963114 236.834519 118.158073 Q 238.155907 118.299861 238.453268 118.378633 Q 239.319752 118.614946 240.085803 119.000926 C 240.865638 119.396751 241.304788 120.178556 241.812862 120.919006 C 241.887695 121.027316 242.047207 121.033224 242.127947 120.928852 C 242.710855 120.176587 243.433581 119.359335 244.392621 119.351458 Q 244.733307 119.347519 245.51905 119.676389 Q 245.871551 119.822116 248.774272 121.033224 Q 248.866828 121.07064 248.939692 121.005654 C 250.036581 120.036768 250.739615 119.138775 251.543082 117.758309 Q 252.894009 115.436526 254.404447 113.599187 Q 254.498973 113.486938 254.626976 113.557832 C 255.704173 114.150586 256.688814 115.231721 258.374519 116.909549 C 258.937733 117.470794 259.272511 118.059609 259.766801 118.642516 Q 259.827848 118.71538 259.873142 118.628731 L 263.453295 111.679137 C 263.512374 111.564919 263.671886 111.559011 263.738841 111.669291 L 266.277245 115.848106 C 266.340262 115.952478 266.489927 115.962324 266.566729 115.86583 Q 268.077168 113.987135 268.762478 112.980832 Q 269.142549 112.423526 269.652593 111.848496 C 270.286702 111.137585 270.987766 110.471968 271.389499 109.782719 Q 271.677014 109.290399 271.980284 108.648413 C 272.096471 108.398315 272.403679 108.299851 272.643932 108.435731 C 273.421798 108.874881 273.683712 109.660624 274.116954 110.373504 Q 274.178002 110.471968 274.197695 110.35775 C 274.384776 109.247075 274.394623 108.047783 275.056301 106.844552 Q 276.554924 104.117097 278.236691 101.360103 C 278.350909 101.171052 278.620701 101.163175 278.748704 101.342379 C 280.241419 103.431787 281.135473 105.501502 282.332796 108.152154 Q 282.427322 108.362868 282.474584 108.57555 Q 282.547448 108.910328 282.508062 109.038331 Q 282.32295 109.6429 282.693175 109.12301 L 284.853476 106.086378 Q 285.08979 105.75357 285.320196 106.090317 C 286.795188 108.238803 287.30917 109.847706 288.725083 113.185638 Q 289.085462 114.034398 289.634891 114.804387 Q 289.692001 114.883158 289.737294 114.79651 L 291.11776 112.114349 C 291.196532 111.960745 291.42103 111.97453 291.482077 112.136011 Q 291.824732 113.037942 292.427332 113.780361 Q 292.490349 113.857163 292.539581 113.770514 Q 293.244584 112.559406 294.109099 111.732308 C 294.246948 111.598397 294.465539 111.596428 294.609296 111.724431 C 295.58606 112.594853 296.371803 113.687804 297.232379 114.765001 Q 297.250102 114.788633 297.91572 115.525144 Q 298.461211 116.129713 298.831435 117.112385 C 298.884606 117.254173 299.050026 117.571227 299.17409 117.746493 C 299.282401 117.898128 299.512807 117.870558 299.583701 117.699231 L 302.141797 111.39753 C 302.187091 111.285281 302.342664 111.273465 302.405681 111.377837 Q 303.849164 113.764606 305.064211 116.326641 Q 306.40923 119.162407 306.834595 119.794546 Q 306.887766 119.875287 306.948813 119.798485 Q 308.167798 118.266384 308.388358 118.0025 Q 309.717623 116.423136 311.663273 115.07024 Z" style="fill:#2e3d3a;"/>
		<path d="M 239.091315 65.009138 Q 238.870756 65.471919 239.244919 65.119418 C 239.717547 64.67436 239.971584 64.396691 240.643109 64.371091 C 241.539132 64.337613 242.086592 64.310043 242.976708 64.191886 Q 243.502506 64.120992 244.018457 64.140685 Q 244.388682 64.156439 244.024365 64.221425 Q 241.690767 64.644821 239.351261 65.832298 C 238.415852 66.306894 238.104705 66.950849 237.311085 68.008353 Q 236.548973 69.022533 236.042868 69.440021 C 235.322111 70.034744 234.36504 70.688545 233.636406 71.3325 Q 233.506433 71.446719 229.873109 74.560153 C 228.870745 75.418759 228.029862 76.007574 227.125962 76.736209 Q 226.842385 76.964645 226.962511 76.620021 Q 226.995989 76.521557 227.135808 76.300997 Q 227.320921 76.009544 226.984173 76.084376 L 225.727772 76.362045 Q 225.016861 76.519588 225.503274 75.976066 Q 225.832144 75.60781 226.804969 74.843729 Q 227.899889 73.981184 229.002687 73.191502 Q 229.591502 72.770076 230.708085 71.562906 Q 232.752199 69.353373 235.062166 67.49634 Q 236.436724 66.393543 237.482413 64.308074 Q 237.752204 63.77046 238.591118 62.900038 Q 241.103921 60.28877 243.526137 58.331305 Q 243.62854 58.248595 243.727004 58.224964 C 243.772297 58.215117 243.807744 58.26238 243.786082 58.303735 C 242.565128 60.515238 241.452484 61.874042 239.670284 64.077668 Q 239.341414 64.485309 239.091315 65.009138 Z" style="fill:#769a97;"/>
		<path d="M 279.38872 74.971732 C 279.22527 75.082012 278.988956 75.217893 278.764458 75.28091 Q 277.79951 75.550701 276.903487 76.003636 Q 275.80069 76.562912 274.756971 77.155666 Q 274.735308 77.167481 274.719554 77.151727 L 274.668353 77.100526 Q 274.546257 76.976461 274.682138 76.86815 Q 276.793207 75.166691 277.41747 74.451842 Q 279.077574 72.555424 279.532478 72.086735 Q 280.219757 71.377794 281.03307 70.920921 C 281.101995 70.881535 281.184705 70.946521 281.165012 71.023323 Q 280.879466 72.106428 280.353668 73.354952 Q 280.209911 73.695638 280.182341 74.26673 C 280.178402 74.339593 280.241419 74.396702 280.312313 74.386856 Q 280.755402 74.325808 280.660876 75.078074 Q 280.633306 75.296664 280.853866 75.296664 L 281.367848 75.296664 C 281.503729 75.296664 281.614008 75.406944 281.615978 75.544793 Q 281.617947 76.001667 281.627793 76.043022 Q 281.659302 76.194656 281.822752 76.224195 Q 281.927124 76.243888 281.990141 76.15724 L 282.149653 75.930772 C 282.21267 75.844124 282.34855 75.871694 282.372182 75.976066 L 282.580925 76.917382 Q 282.604557 77.027662 282.706959 77.072956 L 282.886164 77.151727 C 282.95115 77.181266 283.002352 77.232467 283.031891 77.297454 Q 283.354853 78.030026 284.475374 79.493203 Q 284.890893 80.038693 284.341463 79.676346 C 283.979115 79.438063 283.532088 79.323844 283.187464 78.97922 Q 281.645517 77.433334 279.680174 75.790954 Q 279.203608 75.393159 279.430075 75.044596 Q 279.544294 74.86933 279.38872 74.971732 Z" style="fill:#769a97;"/>
		<path d="M 194.431952 79.788595 L 195.428409 80.139127 Q 195.455979 80.147004 195.446132 80.174574 L 195.42447 80.223806 Q 195.418562 80.23956 195.402808 80.237591 Q 194.380751 80.18442 194.118837 80.15882 Q 193.608793 80.109588 193.443373 80.507382 C 193.417772 80.566461 193.376417 80.617662 193.323247 80.655079 C 191.678897 81.799231 189.595397 82.084777 188.181453 83.433735 Q 186.531195 85.011129 185.845885 85.623575 Q 184.095194 87.183246 183.348837 87.94142 Q 183.331113 87.959143 183.309451 87.949297 L 183.244465 87.923696 Q 183.159786 87.888249 183.224772 87.823263 Q 184.030208 87.013888 184.859275 86.218298 C 185.471722 85.635391 185.853763 84.914634 186.251557 83.991041 Q 186.724185 82.894151 187.557191 82.025698 Q 188.283856 81.267525 191.001464 78.374651 Q 191.895518 77.423488 192.994377 76.939045 Q 194.282287 76.371892 194.341365 76.338414 Q 196.450466 75.166691 198.254327 73.510526 C 198.925852 72.890202 199.309862 72.67752 200.125145 72.344711 Q 200.335858 72.258063 200.162561 72.405759 C 199.323647 73.116669 198.65803 74.260822 198.209034 74.796466 Q 197.738376 75.357712 196.649363 75.948496 Q 195.804541 76.409308 195.262989 77.326993 Q 195.142863 77.533768 195.152709 78.199385 C 195.162556 78.937865 194.808085 79.093438 194.370905 79.512895 C 194.282287 79.597574 194.315765 79.74724 194.431952 79.788595 Z" style="fill:#769a97;"/>
		<path d="M 198.769964 72.346385 C 198.809665 72.40379 198.793911 72.482561 198.735955 72.521336 L 197.171932 73.5763 C 197.114114 73.614898 197.035342 73.599143 196.996961 73.54229 L 196.990364 73.532483 C 196.950663 73.475079 196.966417 73.396307 197.024373 73.357532 L 198.588396 72.302568 C 198.646214 72.263971 198.724986 72.279725 198.763367 72.336578 L 198.769964 72.346385 Z" style="fill:#769a97;"/>
		<path d="M 272.023608 77.707064 C 272.141765 77.3073 272.309154 76.456571 272.769966 76.216318 C 274.022429 75.566455 274.81211 75.068227 275.840075 75.103674 C 275.940509 75.107613 276.001556 75.215923 275.952324 75.304541 Q 275.686471 75.763384 275.194151 76.167086 Q 274.443855 76.785441 273.703405 77.458935 C 273.226839 77.890207 272.943262 78.400251 272.500174 79.075715 Q 272.285522 79.400646 272.669532 79.325814 Q 274.579735 78.95165 276.911364 78.794108 Q 277.594705 78.748814 278.305616 78.945742 C 280.221726 79.475479 282.909795 80.044601 285.038589 80.727942 Q 287.82906 81.621996 290.654979 82.386077 C 290.68058 82.393954 290.694365 82.417585 290.682549 82.437278 L 290.682549 82.439247 Q 290.662856 82.474695 290.633317 82.470756 Q 288.004326 81.958743 285.36352 81.484146 Q 283.138232 81.084382 278.148073 79.577882 Q 277.708923 79.44594 277.047245 79.642868 Q 275.339878 80.152912 274.607305 80.351809 C 273.797931 80.570399 273.346965 80.422703 272.62227 79.985523 Q 270.775084 78.874848 269.03227 77.435303 C 268.969253 77.382133 268.97713 77.2817 269.048024 77.240345 C 269.987371 76.688946 270.731759 76.482171 272.059055 75.999697 C 272.141765 75.970158 272.224475 76.044991 272.202813 76.131639 Q 271.966499 77.063109 271.976345 77.701156 Q 271.978315 77.85673 272.023608 77.707064 Z" style="fill:#769a97;"/>
		<path d="M 213.701371 85.432555 Q 213.689555 85.420739 213.658046 85.408924 Q 213.652139 85.406955 213.644261 85.408924 Q 212.346505 86.102111 211.326417 86.545199 C 210.515073 86.895731 209.550125 87.58301 208.939648 88.010344 Q 208.829368 88.089116 208.90814 87.976867 Q 208.98888 87.862648 209.114914 87.777969 Q 210.455995 86.876038 211.405188 86.102111 Q 212.637959 85.093839 213.644261 84.367174 Q 217.253954 81.757876 220.357542 79.619237 Q 222.015677 78.475084 223.758491 77.584969 Q 224.063729 77.429396 223.95148 77.752358 C 223.463098 79.14464 222.632062 79.642868 221.249626 80.534952 C 220.196061 81.214354 219.158249 81.740153 218.25238 82.382138 C 214.920356 84.747245 213.228743 86.113927 209.642682 88.939845 Q 208.053472 90.190339 206.481985 91.287229 C 203.923889 93.071398 202.403603 94.186011 201.109785 94.837843 C 201.096 94.84572 201.082215 94.837843 201.078277 94.824058 Q 201.066461 94.778765 201.09797 94.784672 C 204.071585 92.860685 207.324837 90.659028 210.243312 88.252566 Q 211.866 86.915424 213.697432 85.485726 Q 213.726971 85.462094 213.701371 85.432555 Z" style="fill:#769a97;"/>
		<path d="M 171.196401 88.392385 Q 171.25351 88.366784 171.296835 88.329368 Q 171.373637 88.264382 171.387422 88.258474 Q 173.919917 87.155676 176.678881 86.237991 Q 176.706451 86.228145 176.716297 86.257684 Q 179.406335 94.652731 176.728113 86.285254 Q 176.722205 86.263592 176.700543 86.271469 C 174.047921 87.407744 172.647762 88.081239 169.778519 89.544415 C 169.699747 89.58577 169.605222 89.524722 169.60916 89.436104 Q 169.615068 89.270685 169.778519 89.107234 Q 169.867136 89.016647 169.981355 88.957569 Q 170.394904 88.740948 171.196401 88.392385 Z" style="fill:#769a97;"/>
	</g>
	<g id="surface4">
	</g>
</svg>
