<?xml version="1.0" encoding="utf-8"?>
<svg xmlns="http://www.w3.org/2000/svg" width="490pt" height="280pt" viewBox="0 0 490 280" version="1.1" xmlns:xlink="http://www.w3.org/1999/xlink">
	<g id="surface2">
		<path vector-effect="non-scaling-stroke" d="M 244.150068 3.136223 Q 244.090629 3.718106 243.913874 4.680089 Q 242.527992 12.207024 236.898433 17.04979 C 234.591236 19.034761 232.693861 20.170371 229.487249 22.233552 Q 225.479766 24.811355 222.004112 27.967913 C 216.934536 32.569792 213.182018 38.886035 211.764852 45.612099 Q 210.277297 52.674467 212.238805 59.625775 Q 213.188275 62.987243 214.902639 66.21419 C 219.038387 73.997654 226.415158 79.728886 235.140271 81.279009 Q 238.836478 81.935973 242.807984 81.455764 Q 243.159929 81.41353 243.782481 81.289958 Q 244.264255 81.194542 244.758543 81.127282" style="fill:none;stroke-width:0.50;stroke:#ec4c15;"/>
		<path vector-effect="non-scaling-stroke" d="M 244.758543 81.127282 Q 242.59056 84.800025 239.568524 87.726645 Q 235.043291 92.107972 229.036759 94.036632 Q 226.643532 94.804655 224.341028 95.183191 Q 223.06464 95.392794 221.323684 95.602397" style="fill:none;stroke-width:0.50;stroke:#783834;"/>
		<path vector-effect="non-scaling-stroke" d="M 221.323684 95.602397 Q 219.695351 95.769767 218.163998 95.75256 Q 211.140736 95.671222 204.780695 92.886944 C 200.186637 90.875382 196.160384 87.709439 192.828636 84.042952 Q 191.747773 82.851031 190.821766 81.634083 Q 186.00872 75.300633 183.742192 67.750235 Q 182.872497 64.856463 182.348489 62.084699 C 182.334412 62.009618 182.264023 61.959563 182.188941 61.970513 Q 181.818225 62.020567 181.51477 62.180116 Q 180.455806 62.733843 179.495387 63.170255 Q 179.213831 63.296955 178.94166 63.420527" style="fill:none;stroke-width:0.50;stroke:#76564a;"/>
		<path vector-effect="non-scaling-stroke" d="M 182.253073 48.65447 Q 182.290614 48.759272 182.395415 48.70296 C 182.406365 48.696704 182.414186 48.688883 182.420443 48.681062 Q 182.783337 48.20398 182.955399 47.662767 Q 183.244777 46.750838 183.251033 46.733631 Q 184.464853 43.674054 184.737024 42.965471 Q 185.20472 41.75478 185.692751 40.551909 Q 185.835093 40.201528 186.349715 39.183233 Q 186.698532 38.493421 186.925341 37.77076" style="fill:none;stroke-width:0.50;stroke:#ec4c15;"/>
		<path vector-effect="non-scaling-stroke" d="M 245.296628 3.128402 Q 245.284114 3.966814 245.260651 4.79584 Q 245.23406 5.732796 245.235624 6.466407 Q 245.251266 29.633787 245.299756 52.802731 Q 245.299756 52.993564 245.298192 53.124956" style="fill:none;stroke-width:0.50;stroke:#f78410;"/>
		<path vector-effect="non-scaling-stroke" d="M 245.298192 53.124956 Q 245.277857 56.567763 245.315398 59.955822 Q 245.315398 59.991799 245.332604 60.012133 Q 245.356067 60.040289 245.388916 60.044981" style="fill:none;stroke-width:0.50;stroke:#f79330;"/>
		<path vector-effect="non-scaling-stroke" d="M 245.388916 60.044981 Q 245.407686 60.210787 245.407686 60.339051 Q 245.413943 67.188687 245.448355 77.354429 Q 245.453048 78.538529 245.446791 79.176723 Q 245.442098 79.620956 245.262215 80.041726 Q 245.021328 80.604838 244.758543 81.127282" style="fill:none;stroke-width:0.50;stroke:#81582d;"/>
		<path vector-effect="non-scaling-stroke" d="M 276.751144 74.545124 Q 276.636958 74.714058 276.716732 74.942431 Q 277.128117 76.123403 277.472241 77.288732 Q 279.059905 82.674276 277.284537 88.023843 Q 276.468024 90.48746 274.994547 92.80717 C 272.677965 96.458015 269.609003 99.365864 265.801738 101.250727 Q 263.134775 102.569348 260.272287 103.337371 C 255.707949 104.563704 252.11498 105.48189 248.146602 106.780177 Q 246.831109 107.208768 245.388916 107.853219" style="fill:none;stroke-width:0.50;stroke:#147a7a;"/>
		<path vector-effect="non-scaling-stroke" d="M 245.388916 107.853219 C 237.796284 111.225636 232.682911 118.621178 231.910196 126.859824 C 231.248539 133.911242 233.307027 141.425663 238.387552 146.518702 C 240.256772 148.394179 242.427883 149.659617 244.858651 150.718581 Q 245.046356 150.79992 245.507795 151.108067" style="fill:none;stroke-width:0.50;stroke:#176d6f;"/>
		<path vector-effect="non-scaling-stroke" d="M 245.507795 151.108067 Q 245.506231 151.117452 245.504666 151.128402" style="fill:none;stroke-width:0.50;stroke:#147a7a;"/>
		<path vector-effect="non-scaling-stroke" d="M 207.352241 138.885401 Q 208.393999 137.743534 209.232411 136.229388 Q 210.748122 133.493601 211.49581 130.602957 Q 212.260704 127.645053 212.426509 124.591733 Q 212.487513 123.463944 212.515669 119.265629 C 212.528182 117.213397 212.603264 115.671095 212.906719 113.823774 Q 214.240982 105.702442 218.844426 98.965429 C 219.495133 98.012831 220.532198 96.769291 221.323684 95.602397" style="fill:none;stroke-width:0.50;stroke:#0b6263;"/>
		<path vector-effect="non-scaling-stroke" d="M 290.381591 21.740829 Q 289.608876 21.470222 288.937834 20.982191 Q 288.021212 20.315842 287.855407 20.212605 Q 286.335003 19.281905 284.651923 18.362155 Q 281.758151 16.779183 278.681368 16.02211 C 275.854857 15.327605 273.050245 15.566928 270.786846 17.37358 C 267.811736 19.748037 267.606826 24.196624 268.880085 27.487703 C 270.173679 30.828836 270.819694 34.281028 270.616348 37.816122 Q 270.342613 42.568164 267.154772 45.945274 C 265.135388 48.085101 262.35111 49.386516 259.559012 50.185823 C 255.359132 51.387129 250.738483 52.299058 246.472907 53.018591 Q 245.916051 53.112443 245.298192 53.124956" style="fill:none;stroke-width:0.50;stroke:#faab32;"/>
		<path vector-effect="non-scaling-stroke" d="M 311.72042 83.243645 Q 311.590592 83.228003 311.507689 83.334369 Q 310.232865 84.951753 308.088346 86.214063 Q 303.600653 88.855998 298.290191 88.527516 C 289.754347 88.00038 282.605948 81.691958 277.511346 75.331917 Q 277.242303 74.995614 276.751144 74.545124" style="fill:none;stroke-width:0.50;stroke:#8ab57d;"/>
		<path vector-effect="non-scaling-stroke" d="M 276.751144 74.545124 Q 275.182251 72.32083 273.492914 70.470381 C 267.201698 63.572254 258.182515 60.063752 248.822337 59.844764 Q 247.320704 59.808787 245.388916 60.044981" style="fill:none;stroke-width:0.50;stroke:#837f4f;"/>
		<path vector-effect="non-scaling-stroke" d="M 245.507795 151.108067 C 245.431149 150.523056 245.363888 149.961508 245.365453 149.356162 C 245.370145 146.65948 245.327912 143.903358 245.337297 141.248909 Q 245.373274 130.785969 245.357632 121.069152 Q 245.341989 111.774671 245.337297 109.614509 C 245.335733 109.065474 245.385787 108.444487 245.388916 107.853219" style="fill:none;stroke-width:0.50;stroke:#1ea39c;"/>
		<path d="M 244.150068 3.136223 Q 244.090629 3.718106 243.913874 4.680089 Q 242.527992 12.207024 236.898433 17.04979 C 234.591236 19.034761 232.693861 20.170371 229.487249 22.233552 Q 225.479766 24.811355 222.004112 27.967913 C 216.934536 32.569792 213.182018 38.886035 211.764852 45.612099 Q 210.277297 52.674467 212.238805 59.625775 Q 213.188275 62.987243 214.902639 66.21419 C 219.038387 73.997654 226.415158 79.728886 235.140271 81.279009 Q 238.836478 81.935973 242.807984 81.455764 Q 243.159929 81.41353 243.782481 81.289958 Q 244.264255 81.194542 244.758543 81.127282 Q 242.59056 84.800025 239.568524 87.726645 Q 235.043291 92.107972 229.036759 94.036632 Q 226.643532 94.804655 224.341028 95.183191 Q 223.06464 95.392794 221.323684 95.602397 Q 219.695351 95.769767 218.163998 95.75256 Q 211.140736 95.671222 204.780695 92.886944 C 200.186637 90.875382 196.160384 87.709439 192.828636 84.042952 Q 191.747773 82.851031 190.821766 81.634083 Q 186.00872 75.300633 183.742192 67.750235 Q 182.872497 64.856463 182.348489 62.084699 C 182.334412 62.009618 182.264023 61.959563 182.188941 61.970513 Q 181.818225 62.020567 181.51477 62.180116 Q 180.455806 62.733843 179.495387 63.170255 Q 179.213831 63.296955 178.94166 63.420527 Q 179.808227 59.169029 180.648203 54.970714 Q 181.073666 52.846529 182.253073 48.65447 Q 182.290614 48.759272 182.395415 48.70296 C 182.406365 48.696704 182.414186 48.688883 182.420443 48.681062 Q 182.783337 48.20398 182.955399 47.662767 Q 183.244777 46.750838 183.251033 46.733631 Q 184.464853 43.674054 184.737024 42.965471 Q 185.20472 41.75478 185.692751 40.551909 Q 185.835093 40.201528 186.349715 39.183233 Q 186.698532 38.493421 186.925341 37.77076 Q 189.246616 33.950981 191.405213 31.000898 Q 193.008519 28.809453 195.118626 26.383377 C 203.283755 16.993479 213.984453 10.079711 225.822326 6.250547 Q 232.942569 3.949607 240.339675 3.339569 Q 241.489363 3.244153 244.150068 3.136223 Z" style="fill:#e32c1b;"/>
		<path d="M 245.296628 3.128402 Q 245.284114 3.966814 245.260651 4.79584 Q 245.23406 5.732796 245.235624 6.466407 Q 245.251266 29.633787 245.299756 52.802731 Q 245.299756 52.993564 245.298192 53.124956 Q 245.277857 56.567763 245.315398 59.955822 Q 245.315398 59.991799 245.332604 60.012133 Q 245.356067 60.040289 245.388916 60.044981 Q 245.407686 60.210787 245.407686 60.339051 Q 245.413943 67.188687 245.448355 77.354429 Q 245.453048 78.538529 245.446791 79.176723 Q 245.442098 79.620956 245.262215 80.041726 Q 245.021328 80.604838 244.758543 81.127282 Q 244.264255 81.194542 243.782481 81.289958 Q 243.159929 81.41353 242.807984 81.455764 Q 238.836478 81.935973 235.140271 81.279009 C 226.415158 79.728886 219.038387 73.997654 214.902639 66.21419 Q 213.188275 62.987243 212.238805 59.625775 Q 210.277297 52.674467 211.764852 45.612099 C 213.182018 38.886035 216.934536 32.569792 222.004112 27.967913 Q 225.479766 24.811355 229.487249 22.233552 C 232.693861 20.170371 234.591236 19.034761 236.898433 17.04979 Q 242.527992 12.207024 243.913874 4.680089 Q 244.090629 3.718106 244.150068 3.136223 L 245.296628 3.128402 Z" style="fill:#f46c0e;"/>
		<path d="M 290.381591 21.740829 Q 289.608876 21.470222 288.937834 20.982191 Q 288.021212 20.315842 287.855407 20.212605 Q 286.335003 19.281905 284.651923 18.362155 Q 281.758151 16.779183 278.681368 16.02211 C 275.854857 15.327605 273.050245 15.566928 270.786846 17.37358 C 267.811736 19.748037 267.606826 24.196624 268.880085 27.487703 C 270.173679 30.828836 270.819694 34.281028 270.616348 37.816122 Q 270.342613 42.568164 267.154772 45.945274 C 265.135388 48.085101 262.35111 49.386516 259.559012 50.185823 C 255.359132 51.387129 250.738483 52.299058 246.472907 53.018591 Q 245.916051 53.112443 245.298192 53.124956 Q 245.299756 52.993564 245.299756 52.802731 Q 245.251266 29.633787 245.235624 6.466407 Q 245.23406 5.732796 245.260651 4.79584 Q 245.284114 3.966814 245.296628 3.128402 Q 254.187546 3.147172 262.559149 5.585762 Q 272.185242 8.391938 280.544332 13.924517 Q 284.666001 16.652483 288.219866 19.729266 Q 289.083304 20.476954 290.381591 21.740829 Z" style="fill:#fa9b11;"/>
		<path d="M 290.381591 21.740829 Q 291.316983 22.519801 291.797193 22.996882 Q 294.949058 26.12372 297.442394 29.280277 C 300.212594 32.790344 302.660569 36.300411 304.778497 40.106112 Q 309.916897 49.336462 312.693353 59.525667 C 313.730419 63.326675 314.287274 67.246562 314.41241 71.208683 C 314.539111 75.155162 313.889967 79.306552 311.903432 82.710253 Q 311.721985 83.023093 311.72042 83.243645 Q 311.590592 83.228003 311.507689 83.334369 Q 310.232865 84.951753 308.088346 86.214063 Q 303.600653 88.855998 298.290191 88.527516 C 289.754347 88.00038 282.605948 81.691958 277.511346 75.331917 Q 277.242303 74.995614 276.751144 74.545124 Q 275.182251 72.32083 273.492914 70.470381 C 267.201698 63.572254 258.182515 60.063752 248.822337 59.844764 Q 247.320704 59.808787 245.388916 60.044981 Q 245.356067 60.040289 245.332604 60.012133 Q 245.315398 59.991799 245.315398 59.955822 Q 245.277857 56.567763 245.298192 53.124956 Q 245.916051 53.112443 246.472907 53.018591 C 250.738483 52.299058 255.359132 51.387129 259.559012 50.185823 C 262.35111 49.386516 265.135388 48.085101 267.154772 45.945274 Q 270.342613 42.568164 270.616348 37.816122 C 270.819694 34.281028 270.173679 30.828836 268.880085 27.487703 C 267.606826 24.196624 267.811736 19.748037 270.786846 17.37358 C 273.050245 15.566928 275.854857 15.327605 278.681368 16.02211 Q 281.758151 16.779183 284.651923 18.362155 Q 286.335003 19.281905 287.855407 20.212605 Q 288.021212 20.315842 288.937834 20.982191 Q 289.608876 21.470222 290.381591 21.740829 Z" style="fill:#f9ba52;"/>
		<path d="M 186.925341 37.77076 Q 186.698532 38.493421 186.349715 39.183233 Q 185.835093 40.201528 185.692751 40.551909 Q 185.20472 41.75478 184.737024 42.965471 Q 184.464853 43.674054 183.251033 46.733631 Q 183.244777 46.750838 182.955399 47.662767 Q 182.783337 48.20398 182.420443 48.681062 C 182.414186 48.688883 182.406365 48.696704 182.395415 48.70296 Q 182.290614 48.759272 182.253073 48.65447 Q 183.65929 42.827822 186.925341 37.77076 Z" style="fill:#f46c0e;"/>
		<path d="M 276.751144 74.545124 Q 276.636958 74.714058 276.716732 74.942431 Q 277.128117 76.123403 277.472241 77.288732 Q 279.059905 82.674276 277.284537 88.023843 Q 276.468024 90.48746 274.994547 92.80717 C 272.677965 96.458015 269.609003 99.365864 265.801738 101.250727 Q 263.134775 102.569348 260.272287 103.337371 C 255.707949 104.563704 252.11498 105.48189 248.146602 106.780177 Q 246.831109 107.208768 245.388916 107.853219 C 237.796284 111.225636 232.682911 118.621178 231.910196 126.859824 C 231.248539 133.911242 233.307027 141.425663 238.387552 146.518702 C 240.256772 148.394179 242.427883 149.659617 244.858651 150.718581 Q 245.046356 150.79992 245.507795 151.108067 Q 245.506231 151.117452 245.504666 151.128402 Q 241.667681 151.103375 240.258336 150.931313 Q 239.207193 150.803048 238.104432 150.701375 Q 237.017312 150.60283 236.171079 150.463616 C 234.620956 150.208652 233.314848 150.028769 232.132313 149.748777 C 231.087426 149.500069 230.253707 149.374933 229.335521 149.093376 C 228.323483 148.7821 226.291586 148.265914 224.794646 147.738778 Q 220.466502 146.213683 217.092521 144.546244 Q 216.282264 144.147373 213.216431 142.520604 Q 210.932697 141.309913 207.352241 138.885401 Q 208.393999 137.743534 209.232411 136.229388 Q 210.748122 133.493601 211.49581 130.602957 Q 212.260704 127.645053 212.426509 124.591733 Q 212.487513 123.463944 212.515669 119.265629 C 212.528182 117.213397 212.603264 115.671095 212.906719 113.823774 Q 214.240982 105.702442 218.844426 98.965429 C 219.495133 98.012831 220.532198 96.769291 221.323684 95.602397 Q 223.06464 95.392794 224.341028 95.183191 Q 226.643532 94.804655 229.036759 94.036632 Q 235.043291 92.107972 239.568524 87.726645 Q 242.59056 84.800025 244.758543 81.127282 Q 245.021328 80.604838 245.262215 80.041726 Q 245.442098 79.620956 245.446791 79.176723 Q 245.453048 78.538529 245.448355 77.354429 Q 245.413943 67.188687 245.407686 60.339051 Q 245.407686 60.210787 245.388916 60.044981 Q 247.320704 59.808787 248.822337 59.844764 C 258.182515 60.063752 267.201698 63.572254 273.492914 70.470381 Q 275.182251 72.32083 276.751144 74.545124 Z" style="fill:#0d444c;"/>
		<path d="M 221.323684 95.602397 C 220.532198 96.769291 219.495133 98.012831 218.844426 98.965429 Q 214.240982 105.702442 212.906719 113.823774 C 212.603264 115.671095 212.528182 117.213397 212.515669 119.265629 Q 212.487513 123.463944 212.426509 124.591733 Q 212.260704 127.645053 211.49581 130.602957 Q 210.748122 133.493601 209.232411 136.229388 Q 208.393999 137.743534 207.352241 138.885401 Q 201.015663 134.538487 195.894469 128.926134 Q 194.87461 127.809294 193.825032 126.582961 C 187.763753 119.503387 183.042995 111.216251 180.081962 102.351924 C 178.206485 96.734879 176.862837 91.011467 176.262184 85.170741 C 176.007219 82.685226 175.961857 80.266971 176.024425 77.858102 Q 176.199616 71.182092 178.129839 64.771997 Q 178.315979 64.154137 178.94166 63.420527 Q 179.213831 63.296955 179.495387 63.170255 Q 180.455806 62.733843 181.51477 62.180116 Q 181.818225 62.020567 182.188941 61.970513 C 182.264023 61.959563 182.334412 62.009618 182.348489 62.084699 Q 182.872497 64.856463 183.742192 67.750235 Q 186.00872 75.300633 190.821766 81.634083 Q 191.747773 82.851031 192.828636 84.042952 C 196.160384 87.709439 200.186637 90.875382 204.780695 92.886944 Q 211.140736 95.671222 218.163998 95.75256 Q 219.695351 95.769767 221.323684 95.602397 Z" style="fill:#087f79;"/>
		<path d="M 311.72042 83.243645 Q 311.820529 84.061723 311.904996 84.886056 Q 311.958179 85.410064 311.983206 86.858514 Q 312.030132 89.628714 311.72042 92.211209 C 310.763129 100.166735 307.960081 107.954892 303.999525 114.970333 Q 298.291755 125.078199 289.881047 132.99462 Q 282.50584 139.936544 273.262976 144.494626 Q 266.094243 148.031284 258.276367 149.647104 Q 253.624433 150.609087 249.016297 150.909414 Q 247.261264 151.025165 245.504666 151.128402 Q 245.506231 151.117452 245.507795 151.108067 C 245.431149 150.523056 245.363888 149.961508 245.365453 149.356162 C 245.370145 146.65948 245.327912 143.903358 245.337297 141.248909 Q 245.373274 130.785969 245.357632 121.069152 Q 245.341989 111.774671 245.337297 109.614509 C 245.335733 109.065474 245.385787 108.444487 245.388916 107.853219 Q 246.831109 107.208768 248.146602 106.780177 C 252.11498 105.48189 255.707949 104.563704 260.272287 103.337371 Q 263.134775 102.569348 265.801738 101.250727 C 269.609003 99.365864 272.677965 96.458015 274.994547 92.80717 Q 276.468024 90.48746 277.284537 88.023843 Q 279.059905 82.674276 277.472241 77.288732 Q 277.128117 76.123403 276.716732 74.942431 Q 276.636958 74.714058 276.751144 74.545124 Q 277.242303 74.995614 277.511346 75.331917 C 282.605948 81.691958 289.754347 88.00038 298.290191 88.527516 Q 303.600653 88.855998 308.088346 86.214063 Q 310.232865 84.951753 311.507689 83.334369 Q 311.590592 83.228003 311.72042 83.243645 Z" style="fill:#1aafa7;"/>
		<path d="M 245.388916 107.853219 C 245.385787 108.444487 245.335733 109.065474 245.337297 109.614509 Q 245.341989 111.774671 245.357632 121.069152 Q 245.373274 130.785969 245.337297 141.248909 C 245.327912 143.903358 245.370145 146.65948 245.365453 149.356162 C 245.363888 149.961508 245.431149 150.523056 245.507795 151.108067 Q 245.046356 150.79992 244.858651 150.718581 C 242.427883 149.659617 240.256772 148.394179 238.387552 146.518702 C 233.307027 141.425663 231.248539 133.911242 231.910196 126.859824 C 232.682911 118.621178 237.796284 111.225636 245.388916 107.853219 Z" style="fill:#219691;"/>
	</g>
	<g id="surface4">
	</g>
</svg>
