<?xml version="1.0" encoding="utf-8"?>
<svg xmlns="http://www.w3.org/2000/svg" width="490pt" height="280pt" viewBox="0 0 490 280" version="1.1" xmlns:xlink="http://www.w3.org/1999/xlink">
	<g id="surface2">
		<path vector-effect="non-scaling-stroke" d="M 282.863262 8.520381 C 282.016573 9.182854 281.827042 10.06674 281.534775 11.111817 C 277.981515 23.836952 274.228096 36.716192 270.111557 51.239213 Q 270.054875 51.435829 270.230235 51.543879 L 270.733289 51.855631" style="fill:none;stroke-width:0.50;stroke:#4d7a85;"/>
		<path vector-effect="non-scaling-stroke" d="M 270.733289 51.855631 Q 272.892523 53.439188 274.052735 56.032395 Q 274.185584 56.329976 274.27415 56.016453 Q 274.805545 54.138858 275.207633 52.705863 Q 281.453294 30.392593 286.864665 11.636127 Q 287.078994 10.893945 286.949688 10.532597 Q 285.878042 7.540844 282.863262 8.520381" style="fill:none;stroke-width:0.50;stroke:#306678;"/>
		<path vector-effect="non-scaling-stroke" d="M 270.733289 51.855631 Q 271.450672 49.140203 272.222966 46.508028 C 273.407976 42.471198 274.518591 38.370601 275.677032 34.461307 Q 276.125175 32.953916 276.644171 31.053294 Q 277.669763 27.305189 278.815804 23.560627 C 279.060246 22.761763 279.24092 21.939873 279.457021 21.153408 Q 280.461357 17.499183 281.524147 13.96895 Q 281.860697 12.853021 282.863262 8.520381" style="fill:none;stroke-width:0.50;stroke:#77ada7;"/>
		<path vector-effect="non-scaling-stroke" d="M 283.521111 132.387936 C 284.631035 132.402691 285.568062 129.712061 285.613921 126.376372 C 285.66017 123.041285 284.79931 120.324086 283.689776 120.308728 C 282.579851 120.293973 281.642825 122.984603 281.596966 126.320292 C 281.550717 129.655379 282.411576 132.372578 283.521111 132.387936" style="fill:none;stroke-width:0.50;stroke:#306678;"/>
		<path vector-effect="non-scaling-stroke" d="M 252.446221 124.483136 C 252.446221 124.029679 252.079558 123.663017 251.626102 123.663017 L 231.829872 123.663017 C 231.376415 123.663017 231.009753 124.029679 231.009753 124.483136 L 231.009753 127.735273 C 231.009753 128.188729 231.376415 128.555392 231.829872 128.555392 L 251.626102 128.555392 C 252.079558 128.555392 252.446221 128.188729 252.446221 127.735273 L 252.446221 124.483136" style="fill:none;stroke-width:0.50;stroke:#306678;"/>
		<path vector-effect="non-scaling-stroke" d="M 189.775284 142.800316 Q 189.378509 143.960529 189.220862 145.464376 C 189.210234 145.567112 189.288172 145.655678 189.390908 145.655678 L 289.319709 145.655678 C 289.394105 145.655678 289.456101 145.600767 289.466729 145.528143 L 289.882988 142.770204" style="fill:none;stroke-width:0.50;stroke:#306678;"/>
		<path vector-effect="non-scaling-stroke" d="M 289.882988 142.770204 Q 290.297476 141.145907 291.060913 139.596006 C 291.092797 139.532238 291.044971 139.457843 290.974119 139.457843 Q 271.94664 139.452529 270.689006 139.459614 Q 270.423309 139.461385 270.166468 139.404703 C 269.615588 139.282483 269.417201 138.662522 269.38886 138.159468 Q 269.328635 137.066566 269.085965 134.416677 C 268.986771 133.313147 268.28533 133.431825 267.442183 133.42474 Q 262.746424 133.387542 261.701348 133.442453 Q 259.434063 133.561131 258.543091 135.575118 C 258.505893 135.661912 258.419099 135.716823 258.325219 135.716823 L 224.907569 135.716823 C 224.783577 135.716823 224.670212 135.642428 224.622387 135.527292 Q 223.892604 133.768375 221.979583 133.513306 Q 221.403905 133.435368 219.852232 133.419426 Q 217.898471 133.39817 215.726837 133.422969 C 214.933287 133.433597 214.387722 133.376915 214.292071 134.278514 Q 213.996261 137.027597 213.881126 138.180724 C 213.815587 138.841425 213.634913 139.450758 212.901588 139.448986 Q 205.998769 139.448986 193.415339 139.463157 C 191.867208 139.464928 190.432442 141.455887 189.775284 142.800316" style="fill:none;stroke-width:0.50;stroke:#4d7a85;"/>
		<path vector-effect="non-scaling-stroke" d="M 289.882988 142.770204 Q 285.734565 142.844599 278.615646 142.833971 Q 259.814896 142.807402 209.224335 142.839285 Q 199.552949 142.846371 189.775284 142.800316" style="fill:none;stroke-width:0.50;stroke:#77ada7;"/>
		<path d="M 268.91769 45.849098 C 268.967287 45.916408 269.071794 45.898695 269.096593 45.818986 C 269.344577 45.025436 269.495139 44.198231 269.762608 43.238178 Q 272.695907 32.700618 273.17062 31.145403 Q 273.209589 31.016097 273.246787 30.881477 Q 274.768347 25.392168 278.135619 13.749307 Q 278.488111 12.52887 279.090358 10.339523 Q 279.777629 7.841967 280.174404 6.736666 C 280.6934 5.280644 281.966976 4.177114 283.483223 3.743142 C 287.247269 2.667953 290.361243 5.780155 289.976868 9.505233 Q 289.865275 10.589279 289.498612 11.813258 Q 288.343714 15.683584 286.868208 21.261459 Q 286.786727 21.567896 286.719417 21.966442 Q 286.666278 22.285279 286.733588 22.67674 Q 288.938876 35.605577 292.635613 59.050717 Q 295.007405 74.092734 295.788556 79.760946 C 295.884207 80.46593 295.979858 81.509235 296.107393 82.370095 Q 296.210129 83.075078 296.249098 83.415171 Q 296.966481 89.680316 297.235721 94.847246 C 297.460678 99.137373 297.47662 103.801249 297.111729 108.316334 Q 296.520109 115.628327 294.653142 122.927921 Q 294.054437 125.274914 292.933194 127.724645 Q 291.858005 130.07341 289.268341 136.216334 C 289.229372 136.308443 289.296682 136.407636 289.395876 136.407636 Q 293.554926 136.384609 298.300282 136.405865 Q 301.699438 136.421807 303.30425 139.29311 Q 303.803761 140.184082 304.0978 141.308868 Q 304.953346 144.576947 304.271389 148.222315 C 304.074773 149.263849 303.548692 151.474452 302.18655 151.492165 Q 296.807063 151.564789 291.464773 151.532905 Q 290.265592 151.52582 201.522653 151.504564 Q 195.308876 151.502793 188.090762 151.520506 C 186.629427 151.524048 185.995295 149.591543 185.78628 148.454358 Q 185.161005 145.049888 185.901416 141.976654 C 186.204311 140.715477 187.088197 138.853824 188.090762 137.996507 Q 189.805396 136.531629 191.959317 136.513915 Q 194.120323 136.496202 200.373069 136.513915 Q 200.660022 136.513915 200.950518 136.214563 Q 202.348086 134.779797 204.482522 132.875632 C 204.581716 132.787066 204.638398 132.659531 204.638398 132.526683 L 204.638398 117.433298 Q 204.638398 117.358903 204.703937 117.319934 L 205.153851 117.061321 C 205.180421 117.04538 205.198134 117.01881 205.199905 116.988697 L 205.561254 112.888101 C 205.57011 112.783593 205.516971 112.686171 205.424862 112.638345 Q 203.827135 111.818226 203.642918 109.999084 C 203.499442 108.596202 204.131801 107.179149 205.306184 106.433424 C 205.591366 106.25275 205.89249 106.231494 206.1759 106.075619 C 206.227268 106.047278 206.260923 105.995909 206.268009 105.937456 Q 206.930481 100.030117 207.816139 94.763994 Q 210.432373 79.187039 215.627643 64.449689 Q 216.724088 61.339258 217.894928 58.567148 Q 218.858524 56.287464 219.859318 54.514377 Q 220.520019 53.345308 221.554467 52.493305 Q 223.070714 51.244527 225.049274 51.11345 C 225.185665 51.104593 225.304343 51.014256 225.346855 50.883179 Q 226.393703 47.742635 227.683221 44.265541 Q 228.317352 42.557993 228.52991 41.987629 Q 228.921371 40.93901 229.704293 40.189743 Q 230.232145 39.684918 231.47738 39.066729 Q 234.717118 37.460145 238.452823 36.629397 Q 240.206426 36.239708 241.726216 36.005894 Q 246.962226 35.205259 252.667635 35.71717 Q 257.087069 36.113944 260.642101 37.231645 Q 263.495691 38.127931 265.679724 39.335969 Q 267.102091 40.124204 267.716737 41.771528 Q 268.506744 43.891794 268.853922 45.67728 Q 268.87695 45.795959 268.91769 45.849098 Z M 282.863262 8.520381 C 282.016573 9.182854 281.827042 10.06674 281.534775 11.111817 C 277.981515 23.836952 274.228096 36.716192 270.111557 51.239213 Q 270.054875 51.435829 270.230235 51.543879 L 270.733289 51.855631 Q 272.892523 53.439188 274.052735 56.032395 Q 274.185584 56.329976 274.27415 56.016453 Q 274.805545 54.138858 275.207633 52.705863 Q 281.453294 30.392593 286.864665 11.636127 Q 287.078994 10.893945 286.949688 10.532597 Q 285.878042 7.540844 282.863262 8.520381 Z M 286.189794 44.984696 Q 285.449383 40.200371 284.627493 35.385934 Q 284.600923 35.2336 284.13861 31.977921 Q 284.089013 31.627201 284.025245 31.419957 Q 283.903024 31.026724 283.787889 31.421728 Q 282.195476 36.962405 281.153942 40.963808 Q 281.042349 41.388924 281.109659 41.838838 Q 281.171655 42.246241 281.644596 45.337188 Q 282.409805 50.350012 283.134273 55.15205 Q 284.032331 61.1267 285.272252 69.60599 C 285.523779 71.318853 285.878042 74.411571 286.262418 76.949867 Q 286.446634 78.163219 286.556456 79.231322 Q 286.620223 79.849512 286.639708 80.058527 Q 286.708789 80.77591 286.861122 81.735963 Q 287.025855 82.782811 287.093165 83.4134 Q 287.178188 84.233519 287.760951 87.818663 Q 288.611183 93.058216 289.077039 99.319819 Q 289.461415 104.470806 289.174461 111.201808 C 289.154977 111.665892 289.255942 112.055582 289.321481 112.498411 Q 289.363992 112.790678 290.120344 116.343938 Q 290.20891 116.761969 290.290391 117.282736 C 290.409069 118.049716 290.570258 118.657277 290.584429 119.37466 Q 290.595057 119.930854 290.692479 120.524244 Q 290.742076 120.830682 290.8147 120.527787 C 291.650761 117.006411 292.330947 113.656852 292.679896 110.188615 Q 292.917252 107.838078 292.972163 106.936478 Q 293.099698 104.872895 293.195349 100.616422 C 293.230775 99.004525 293.096155 97.661867 293.058958 95.973803 Q 293.032388 94.670114 292.876512 92.500252 Q 292.460253 86.635424 291.610021 80.430503 Q 290.905037 75.267117 289.673973 67.305051 Q 287.92037 55.947371 286.908948 49.455498 C 286.637937 47.719608 286.448406 46.655047 286.189794 44.984696 Z M 237.852347 47.691267 C 237.724812 48.619437 237.535282 49.574176 237.590192 50.49526 C 237.593735 50.551942 237.622076 50.603311 237.669902 50.635194 C 238.208382 51.007171 238.70435 50.971744 239.352652 50.969973 Q 252.24252 50.929233 255.942799 50.888493 Q 256.784174 50.879636 257.00736 50.752101 C 257.708801 50.351784 257.379336 49.464354 257.304941 48.840851 C 257.228775 48.213805 257.120724 47.593844 257.044558 46.963256 Q 256.918794 45.919951 255.925086 45.485978 Q 253.571007 44.453301 250.93706 44.15572 C 248.207461 43.847511 245.39284 43.973274 242.845687 44.455072 Q 241.106255 44.784537 239.501442 45.462951 C 238.904509 45.716249 238.188897 46.120109 238.027707 46.734756 Q 237.933828 47.097876 237.852347 47.691267 Z M 275.361738 61.406568 C 275.710687 62.276284 275.806338 63.03795 275.985241 63.891724 C 276.008268 64.003317 276.080892 64.097197 276.181857 64.148565 Q 278.041739 65.097991 279.36137 66.88702 Q 279.666036 67.297965 280.441873 68.422751 C 280.583578 68.628224 280.689857 68.948832 280.787279 69.196816 Q 280.803221 69.239328 280.833334 69.257041 Q 280.877616 69.283611 280.914814 69.274754 C 280.955554 69.265898 280.983895 69.2287 280.978582 69.18796 Q 280.81562 67.824046 280.339136 64.871262 Q 279.290517 58.349276 278.973452 55.984569 Q 278.681184 53.802308 278.355262 51.811348 Q 278.316293 51.568678 278.241898 51.428744 Q 278.155104 51.264012 278.103735 51.442914 L 275.342254 61.013336 Q 275.2838 61.213494 275.361738 61.406568 Z M 250.761699 96.271384 C 252.288574 96.299725 253.282282 96.437887 254.42301 97.351887 Q 256.475965 98.997439 256.534419 101.588875 Q 256.571616 103.225571 256.518477 106.056134 Q 256.516705 106.132301 256.591101 106.130529 Q 262.397475 106.01008 268.46069 106.141157 Q 268.551027 106.142929 268.533314 106.056134 Q 266.087127 93.834053 264.887946 81.126631 Q 264.551396 77.557429 264.376035 75.013819 Q 264.04657 70.229494 264.214845 65.221983 Q 264.312268 62.306396 264.7055 59.599825 Q 264.903887 58.234141 265.282949 56.854285 Q 265.343174 56.636413 265.116445 56.643499 Q 261.938704 56.73915 258.645827 56.756863 Q 253.461185 56.783433 238.539618 56.802917 Q 233.262867 56.810002 228.930228 56.910967 Q 227.134113 56.951708 226.657629 57.056215 Q 224.326577 57.559269 223.300985 59.766329 Q 222.179742 62.178862 221.609378 63.829728 C 221.304712 64.708301 220.773317 65.996048 220.473964 66.878163 Q 218.619396 72.323189 217.336963 77.010092 Q 214.69416 86.653137 212.892731 96.924999 Q 212.690801 98.076355 211.987589 102.848281 Q 211.937992 103.195459 211.932678 103.436358 C 211.92205 103.944725 211.767945 104.360985 211.750232 104.894151 Q 211.739604 105.200588 211.686465 106.018936 C 211.67938 106.119902 211.766174 106.203153 211.867139 106.194297 Q 212.674859 106.119902 213.608343 106.112816 Q 218.442265 106.079161 229.776917 106.123444 C 229.801715 106.123444 229.8212 106.107502 229.828285 106.086247 Q 229.869025 105.944541 229.86194 105.785123 Q 229.810572 104.74536 229.801715 102.846509 Q 229.79463 100.859093 230.115238 99.941551 Q 230.735199 98.159607 232.483488 96.972825 Q 233.530336 96.260756 235.129834 96.258984 Q 249.495208 96.248357 250.761699 96.271384 Z M 251.5358 102.893024 C 251.537536 102.070673 250.871521 101.404658 250.050498 101.402515 L 236.266133 101.37846 C 235.445128 101.376317 234.777342 102.042332 234.775642 102.863762 L 234.775536 102.923987 C 234.7738 103.746338 235.439815 104.412353 236.260837 104.414496 L 250.045202 104.438551 C 250.866207 104.440694 251.533993 103.774679 251.535694 102.953249 L 251.5358 102.893024 Z M 210.448315 117.052465 C 210.444772 117.084349 210.469571 117.110918 210.501454 117.110918 L 274.674467 117.110918 C 274.697494 117.110918 274.720522 117.094976 274.725835 117.071949 L 275.985241 112.71274 C 275.994098 112.677314 275.967528 112.641888 275.932102 112.641888 L 210.836233 112.641888 C 210.807892 112.641888 210.783094 112.663143 210.781322 112.693256 L 210.448315 117.052465 Z M 283.521111 132.387936 C 284.631035 132.402691 285.568062 129.712061 285.613921 126.376372 C 285.66017 123.041285 284.79931 120.324086 283.689776 120.308728 C 282.579851 120.293973 281.642825 122.984603 281.596966 126.320292 C 281.550717 129.655379 282.411576 132.372578 283.521111 132.387936 Z M 252.446221 124.483136 C 252.446221 124.029679 252.079558 123.663017 251.626102 123.663017 L 231.829872 123.663017 C 231.376415 123.663017 231.009753 124.029679 231.009753 124.483136 L 231.009753 127.735273 C 231.009753 128.188729 231.376415 128.555392 231.829872 128.555392 L 251.626102 128.555392 C 252.079558 128.555392 252.446221 128.188729 252.446221 127.735273 L 252.446221 124.483136 Z M 189.775284 142.800316 Q 189.378509 143.960529 189.220862 145.464376 C 189.210234 145.567112 189.288172 145.655678 189.390908 145.655678 L 289.319709 145.655678 C 289.394105 145.655678 289.456101 145.600767 289.466729 145.528143 L 289.882988 142.770204 Q 290.297476 141.145907 291.060913 139.596006 C 291.092797 139.532238 291.044971 139.457843 290.974119 139.457843 Q 271.94664 139.452529 270.689006 139.459614 Q 270.423309 139.461385 270.166468 139.404703 C 269.615588 139.282483 269.417201 138.662522 269.38886 138.159468 Q 269.328635 137.066566 269.085965 134.416677 C 268.986771 133.313147 268.28533 133.431825 267.442183 133.42474 Q 262.746424 133.387542 261.701348 133.442453 Q 259.434063 133.561131 258.543091 135.575118 C 258.505893 135.661912 258.419099 135.716823 258.325219 135.716823 L 224.907569 135.716823 C 224.783577 135.716823 224.670212 135.642428 224.622387 135.527292 Q 223.892604 133.768375 221.979583 133.513306 Q 221.403905 133.435368 219.852232 133.419426 Q 217.898471 133.39817 215.726837 133.422969 C 214.933287 133.433597 214.387722 133.376915 214.292071 134.278514 Q 213.996261 137.027597 213.881126 138.180724 C 213.815587 138.841425 213.634913 139.450758 212.901588 139.448986 Q 205.998769 139.448986 193.415339 139.463157 C 191.867208 139.464928 190.432442 141.455887 189.775284 142.800316 Z" style="fill:#053356;"/>
		<path d="M 270.733289 51.855631 Q 271.450672 49.140203 272.222966 46.508028 C 273.407976 42.471198 274.518591 38.370601 275.677032 34.461307 Q 276.125175 32.953916 276.644171 31.053294 Q 277.669763 27.305189 278.815804 23.560627 C 279.060246 22.761763 279.24092 21.939873 279.457021 21.153408 Q 280.461357 17.499183 281.524147 13.96895 Q 281.860697 12.853021 282.863262 8.520381 Q 285.878042 7.540844 286.949688 10.532597 Q 287.078994 10.893945 286.864665 11.636127 Q 281.453294 30.392593 275.207633 52.705863 Q 274.805545 54.138858 274.27415 56.016453 Q 274.185584 56.329976 274.052735 56.032395 Q 272.892523 53.439188 270.733289 51.855631 Z" style="fill:#5a999a;"/>
		<path d="M 282.863262 8.520381 Q 281.860697 12.853021 281.524147 13.96895 Q 280.461357 17.499183 279.457021 21.153408 C 279.24092 21.939873 279.060246 22.761763 278.815804 23.560627 Q 277.669763 27.305189 276.644171 31.053294 Q 276.125175 32.953916 275.677032 34.461307 C 274.518591 38.370601 273.407976 42.471198 272.222966 46.508028 Q 271.450672 49.140203 270.733289 51.855631 L 270.230235 51.543879 Q 270.054875 51.435829 270.111557 51.239213 C 274.228096 36.716192 277.981515 23.836952 281.534775 11.111817 C 281.827042 10.06674 282.016573 9.182854 282.863262 8.520381 Z" style="fill:#94c1b4;"/>
		<path d="M 283.521111 132.387936 C 282.411576 132.372578 281.550717 129.655379 281.596966 126.320292 C 281.642825 122.984603 282.579851 120.293973 283.689776 120.308728 C 284.79931 120.324086 285.66017 123.041285 285.613921 126.376372 C 285.568062 129.712061 284.631035 132.402691 283.521111 132.387936 Z" style="fill:#5a999a;"/>
		<path d="M 252.446221 127.735273 C 252.446221 128.188729 252.079558 128.555392 251.626102 128.555392 L 231.829872 128.555392 C 231.376415 128.555392 231.009753 128.188729 231.009753 127.735273 L 231.009753 124.483136 C 231.009753 124.029679 231.376415 123.663017 231.829872 123.663017 L 251.626102 123.663017 C 252.079558 123.663017 252.446221 124.029679 252.446221 124.483136 L 252.446221 127.735273 Z" style="fill:#5a999a;"/>
		<path d="M 289.882988 142.770204 Q 285.734565 142.844599 278.615646 142.833971 Q 259.814896 142.807402 209.224335 142.839285 Q 199.552949 142.846371 189.775284 142.800316 C 190.432442 141.455887 191.867208 139.464928 193.415339 139.463157 Q 205.998769 139.448986 212.901588 139.448986 C 213.634913 139.450758 213.815587 138.841425 213.881126 138.180724 Q 213.996261 137.027597 214.292071 134.278514 C 214.387722 133.376915 214.933287 133.433597 215.726837 133.422969 Q 217.898471 133.39817 219.852232 133.419426 Q 221.403905 133.435368 221.979583 133.513306 Q 223.892604 133.768375 224.622387 135.527292 C 224.670212 135.642428 224.783577 135.716823 224.907569 135.716823 L 258.325219 135.716823 C 258.419099 135.716823 258.505893 135.661912 258.543091 135.575118 Q 259.434063 133.561131 261.701348 133.442453 Q 262.746424 133.387542 267.442183 133.42474 C 268.28533 133.431825 268.986771 133.313147 269.085965 134.416677 Q 269.328635 137.066566 269.38886 138.159468 C 269.417201 138.662522 269.615588 139.282483 270.166468 139.404703 Q 270.423309 139.461385 270.689006 139.459614 Q 271.94664 139.452529 290.974119 139.457843 C 291.044971 139.457843 291.092797 139.532238 291.060913 139.596006 Q 290.297476 141.145907 289.882988 142.770204 Z" style="fill:#94c1b4;"/>
		<path d="M 189.775284 142.800316 Q 199.552949 142.846371 209.224335 142.839285 Q 259.814896 142.807402 278.615646 142.833971 Q 285.734565 142.844599 289.882988 142.770204 L 289.466729 145.528143 C 289.456101 145.600767 289.394105 145.655678 289.319709 145.655678 L 189.390908 145.655678 C 189.288172 145.655678 189.210234 145.567112 189.220862 145.464376 Q 189.378509 143.960529 189.775284 142.800316 Z" style="fill:#5a999a;"/>
		<path d="M 234.022762 67.838217 C 234.116641 68.653022 234.784428 69.033855 235.616946 69.035627 Q 244.407988 69.051568 250.761699 69.028541 C 252.109671 69.023227 252.609182 68.047232 252.90322 66.878163 Q 253.299995 65.296378 253.891615 63.750019 C 254.516889 62.115094 255.579679 61.094816 257.459046 61.045219 Q 258.721994 61.011564 259.499602 61.057619 C 259.701532 61.070018 259.853865 61.248921 259.829067 61.450851 C 259.791869 61.757288 259.765299 62.003501 259.605881 62.265656 Q 258.867242 63.477236 258.606858 64.127309 Q 257.93553 65.801203 257.159693 68.647708 Q 256.665496 70.457993 256.041993 73.460374 C 255.813493 74.565676 254.407068 75.348597 253.356677 75.649721 Q 252.782771 75.814453 251.339148 75.821539 Q 236.238678 75.887077 231.321504 75.865822 C 230.0373 75.860508 228.753096 74.976621 228.175647 73.807552 Q 227.922349 73.292099 227.785957 72.277135 Q 227.274047 68.428065 228.978053 64.864177 C 229.780459 63.184969 230.928272 61.736033 232.880263 61.50399 C 233.044995 61.484506 233.193786 61.604955 233.206185 61.771459 Q 233.25401 62.384334 233.340805 62.908644 Q 233.728723 65.294607 234.022762 67.838217 Z" style="fill:#053356;"/>
	</g>
	<g id="surface4">
	</g>
</svg>
