<?xml version="1.0" encoding="utf-8"?>
<svg xmlns="http://www.w3.org/2000/svg" width="490pt" height="280pt" viewBox="0 0 490 280" version="1.1" xmlns:xlink="http://www.w3.org/1999/xlink">
	<g id="surface2">
		<path vector-effect="non-scaling-stroke" d="M 241.853444 26.906532 C 240.661119 26.401752 239.910477 25.361731 238.985772 24.750338 Q 235.887468 22.702934 231.760022 21.31914 C 225.691784 19.289142 218.944704 19.550235 213.120153 22.274306 Q 210.256833 23.614583 208.126748 25.270349 Q 205.12853 27.598428 202.900536 31.140591 C 202.260858 32.154502 201.751726 33.248917 201.07506 34.502164 Q 200.639905 35.311552 200.459316 36.110062 Q 199.534611 40.24186 199.630345 44.495501" style="fill:none;stroke-width:0.50;stroke:#f98675;"/>
		<path vector-effect="non-scaling-stroke" d="M 221.253202 27.019672 C 221.781915 24.584979 220.202302 22.750801 217.758907 22.870468 C 212.454366 23.12721 207.917874 26.960926 205.683353 31.645371 Q 203.200793 36.849826 204.504082 42.417635 Q 204.756472 43.49682 205.415732 44.602114 C 206.438347 46.314449 208.215955 47.073795 209.991388 45.842306" style="fill:none;stroke-width:0.50;stroke:#fbc2ad;"/>
		<path vector-effect="non-scaling-stroke" d="M 250.103985 93.659324 Q 249.573096 93.117555 248.924715 92.638885 Q 248.00001 91.955691 247.699753 91.694598 Q 238.161153 83.424476 229.471106 74.797526 C 225.798397 71.150926 222.286695 67.491272 219.070899 63.448681 C 215.343796 58.764236 212.423905 53.781711 210.51575 48.137749 Q 210.332985 47.595981 209.991388 45.842306" style="fill:none;stroke-width:0.50;stroke:#f98675;"/>
		<path vector-effect="non-scaling-stroke" d="M 209.991388 45.842306 Q 209.832556 43.329285 209.817326 42.582994 Q 209.749877 39.49992 210.96396 36.264542 Q 212.225909 32.896442 215.169734 30.298566 Q 217.556559 28.194591 221.253202 27.019672" style="fill:none;stroke-width:0.50;stroke:#f9b8a2;"/>
		<path vector-effect="non-scaling-stroke" d="M 221.253202 27.019672 Q 226.057314 25.914378 230.641673 26.823852 Q 238.655054 28.418696 244.514418 34.291114 Q 244.592746 34.369442 244.671073 34.29329 Q 245.252006 33.721061 245.469583 32.852926" style="fill:none;stroke-width:0.50;stroke:#f98675;"/>
		<path d="M 174.667673 36.736685 C 174.793868 36.281948 175.148519 36.190566 175.731627 35.875078 Q 175.827361 35.82286 175.87958 35.727126 Q 176.127618 35.263685 176.306032 34.567437 Q 176.467039 33.932111 176.688969 33.394694 Q 177.559279 31.288544 178.899556 28.997452 Q 179.859073 27.359093 183.758063 20.749087 Q 184.036562 20.27912 185.063528 17.524588 C 185.877268 15.337934 186.371169 14.117323 187.317632 11.902384 Q 188.011704 10.279256 189.299763 8.012097 Q 190.272335 6.297586 191.434199 5.314136 C 191.880233 4.937727 192.863683 4.413365 193.618678 4.504747 Q 194.665226 4.630942 195.037283 4.844168 C 196.910626 5.916826 197.648214 8.244905 197.574237 10.283607 Q 197.548128 11.032074 197.983283 10.420681 Q 199.506326 8.284069 201.42536 5.951638 Q 201.973655 5.285851 202.891833 4.772368 Q 203.725155 4.304576 204.662914 4.356795 C 207.345645 4.506923 208.79036 7.265806 208.215955 9.711378 Q 207.922226 10.966801 207.245559 12.109083 C 206.033652 14.152136 202.674255 19.152068 198.459778 26.01664 Q 197.297914 27.907388 196.473295 29.012682 C 196.20785 29.367334 196.240487 30.209359 196.125171 30.68803 C 195.250509 34.32375 194.064712 37.278453 192.500329 41.416778 C 192.352376 41.810594 192.302333 42.173948 192.369782 42.617807 Q 193.00946 46.838811 192.648282 51.318733 Q 192.550372 52.53064 192.554723 53.757777 C 192.559075 56.251216 192.317564 58.725072 192.130447 61.207632 C 192.060822 62.121458 191.851948 63.53136 191.843245 64.6954 C 191.841069 64.83465 191.875881 64.969548 191.941155 65.091391 Q 192.924605 66.892934 193.403276 67.665334 Q 196.525514 72.697903 198.551161 76.002906 Q 199.915372 78.228724 200.985853 80.319644 Q 201.31222 80.959322 200.644257 80.696053 Q 200.243914 80.539397 198.431493 79.877962 C 196.062073 79.012003 193.44244 77.804448 191.068669 76.274877 Q 189.19315 75.065146 186.264556 73.287538 C 185.844632 73.032972 185.666218 72.319318 185.487805 71.79278 Q 184.77415 69.697508 183.958234 66.440372 Q 183.127088 63.126666 180.90127 60.141502 C 180.729384 59.913046 180.748966 59.408266 180.879512 59.088427 C 181.947818 56.462266 182.665824 54.127659 183.30115 50.972784 Q 183.34249 50.766086 183.401236 50.065486 C 183.438224 49.652089 183.570946 49.253922 183.584001 48.862282 Q 183.664505 46.229594 183.581825 45.304889 Q 183.24458 41.458118 180.890391 38.518646 C 179.856898 37.230586 178.301218 36.014328 176.647629 35.942527 Q 176.232056 35.922945 176.023181 36.194917 Q 175.955732 36.281948 175.849119 36.305882 Q 175.329109 36.434253 174.761231 36.804134 Q 174.621982 36.893341 174.667673 36.736685 Z" style="fill:#5ea4a9;"/>
		<path d="M 293.042914 10.535997 C 293.108187 10.599095 293.216976 10.557755 293.221328 10.468548 Q 293.269195 9.59171 293.41062 8.684412 Q 293.571627 7.648743 293.897994 6.976428 Q 294.596418 5.544768 295.867071 4.811532 Q 296.719975 4.319806 297.483672 4.424244 C 299.032824 4.63747 300.325234 5.908123 301.156381 7.196182 Q 302.50101 9.287102 303.617183 11.854517 Q 303.636765 11.900208 303.741202 12.135192 Q 303.852167 12.391934 304.920472 14.994161 C 305.564502 16.565071 306.382593 19.143365 307.400856 21.001477 Q 308.75854 23.479685 312.183211 29.241139 C 312.587905 29.919981 312.879459 30.655393 313.262396 31.240677 Q 313.499555 31.601855 313.673617 32.023956 C 314.241494 33.394694 314.715814 34.600074 314.885524 36.003449 Q 314.924688 36.323288 315.272812 36.634424 Q 315.35114 36.706225 315.446874 36.656182 C 315.6601 36.545217 315.803701 36.316761 316.040861 36.238433 Q 317.172264 35.870727 317.93161 36.643127 C 317.999059 36.712752 318.038223 36.80631 318.042574 36.902044 Q 318.131781 39.19096 318.070859 41.499458 Q 318.066508 41.643059 317.914203 42.223991 Q 317.835876 42.524248 317.914203 42.83756 C 318.053453 43.390207 318.129605 43.923272 318.227515 44.482446 C 318.294964 44.869734 318.286261 45.465897 318.403753 45.957622 Q 318.510366 46.408007 318.532124 46.54073 Q 319.267536 50.990191 319.922444 55.985771 Q 320.205295 58.131086 320.512079 60.872563 Q 320.879785 64.155808 320.921125 68.385516 C 320.927653 69.055654 321.101715 69.77366 321.10389 70.487315 Q 321.114769 73.705287 321.106066 76.923259 Q 321.10389 77.66955 320.945059 79.475443 Q 320.825391 80.850533 320.912422 82.238678 Q 320.942883 82.734755 320.353248 85.434892 Q 320.298853 85.682931 319.872401 86.377003 Q 318.621331 88.404826 317.309338 90.12804 Q 314.265428 94.124939 312.215847 96.938217 Q 307.672828 103.180517 304.254685 109.324907 Q 303.591073 110.517232 302.540174 113.038956 C 302.309542 113.593778 302.252972 113.950606 302.059328 114.681666 Q 301.254291 117.747334 303.247301 120.453999 Q 305.046667 122.895219 307.84689 125.63452 Q 311.55006 129.25501 312.3638 130.014356 Q 312.505226 130.144903 312.396437 130.303734 Q 311.597927 131.483005 311.012644 132.187956 Q 307.500942 136.422015 302.825201 139.990287 Q 294.964124 145.9889 285.8498 149.387461 Q 285.828042 149.396164 285.218825 149.585457 C 284.875053 149.694245 284.590026 149.905296 284.246254 149.944459 C 283.824153 149.992327 283.299791 150.277353 282.812418 150.403548 Q 281.252387 150.808242 279.696707 151.230343 Q 278.402121 151.580643 275.171094 151.926591 Q 275.149336 151.928767 273.743785 152.089774 Q 272.836487 152.192036 271.950946 152.109356 Q 271.842158 152.098477 271.802994 151.99404 Q 269.979694 147.202982 269.031056 144.528954 C 266.581133 137.633922 264.498915 131.493883 262.671264 124.892581 C 262.592936 124.605378 262.592936 124.165872 262.495026 123.943942 Q 262.316613 123.539248 262.170836 122.655883 Q 262.051168 121.935702 262.048992 121.929174 C 261.924973 121.41134 261.757438 120.678103 261.735681 119.999262 Q 261.700868 118.987526 261.644298 118.606765 Q 261.52463 117.799553 261.583376 117.225148 Q 261.711747 115.952319 261.72045 114.229105 Q 261.724802 113.506747 261.911918 112.675601 Q 261.940203 112.54723 262.092508 111.642108 Q 262.186066 111.078582 262.303558 110.612966 Q 263.199977 107.04687 265.025453 103.815843 Q 267.477552 99.472996 271.056703 95.761123 Q 275.068833 91.60104 279.951273 88.293861 C 280.460404 87.947913 280.95213 87.688996 281.4308 87.406145 Q 281.809385 87.179864 282.031314 87.079778 Q 284.26366 86.054988 286.506884 85.319576 Q 288.915468 84.527594 289.555146 84.340477 C 290.608221 84.031517 291.326227 83.709502 292.414115 83.30916 Q 292.936301 83.117691 293.536815 82.839192 Q 299.618107 80.01286 304.43745 75.132595 Q 306.846034 72.691375 308.268991 69.662696 Q 308.858626 68.407273 309.293781 67.308507 Q 309.776803 66.087897 311.991743 62.554437 Q 312.30723 62.051833 312.505226 61.190226 Q 312.653178 60.550548 312.642299 59.75639 Q 312.622718 57.965727 312.130992 56.40352 C 311.136663 53.237767 310.327274 51.183835 310.022666 48.296581 Q 309.976975 47.867953 310.024842 45.972852 Q 310.057478 44.606465 310.362087 43.69264 C 310.925613 41.991183 312.174508 40.009052 313.684496 38.899406 Q 313.849855 38.777563 315.016071 38.322826 Q 315.120508 38.281486 315.161848 38.177049 C 315.340261 37.728839 315.353316 37.267575 314.948622 36.852001 C 314.556982 36.447307 314.361162 36.190566 313.801988 36.133996 C 312.268066 35.97734 311.195409 36.723631 310.011787 37.720136 Q 307.812078 39.569545 306.769881 42.284913 C 306.539249 42.889778 306.384769 43.673058 306.223762 44.312736 Q 306.119325 44.726133 306.108446 45.137355 Q 306.00836 49.212582 306.134555 50.185154 Q 306.745948 54.904411 308.932602 59.075372 Q 308.984821 59.175458 309.034864 59.44743 Q 309.054446 59.554043 309.01093 59.654129 Q 308.765068 60.237236 308.519205 60.550548 Q 306.728542 62.817706 305.71463 65.522195 Q 305.346924 66.505646 304.920472 68.207102 Q 304.278619 70.776693 303.971834 71.779725 Q 303.793421 72.362833 303.523624 72.519489 Q 296.648174 76.529443 291.374094 79.288326 Q 290.649561 79.666911 289.88804 80.054199 Q 289.735735 80.130352 289.626946 80.095539 C 289.507279 80.056375 289.45506 79.917126 289.520333 79.808337 Q 293.308359 73.509467 297.566351 67.056117 Q 298.449716 65.715839 298.998011 64.745443 C 299.191655 64.401671 299.176425 64.038316 299.130734 63.692368 C 298.980605 62.519625 298.697754 60.842102 298.697754 59.430024 C 298.695579 58.631514 298.508462 57.909157 298.506286 57.06278 C 298.499759 54.995793 298.532395 53.174669 298.34963 50.870523 C 298.210381 49.112496 298.199502 46.934545 298.475825 44.978523 Q 298.634657 43.840592 298.843531 42.110851 C 298.882695 41.782309 298.599845 41.371087 298.512814 41.142631 Q 296.867927 36.810662 295.812676 33.734115 Q 295.103373 31.667129 294.800941 29.310764 Q 294.787886 29.21503 294.724788 29.141053 C 294.450641 28.814687 294.193899 28.579703 293.934982 28.168482 Q 289.315811 20.84047 283.832856 12.374527 Q 283.330252 11.599951 282.938613 10.466372 C 282.255419 8.497295 282.562203 6.578261 284.141816 5.150953 C 284.424667 4.894211 284.78367 4.787598 285.096982 4.591778 Q 285.308032 4.461232 285.506028 4.432947 Q 287.401128 4.167502 288.715297 5.194468 C 289.270119 5.629623 290.035992 6.432484 290.556003 7.13526 Q 292.013772 9.102161 292.755712 9.94201 C 292.799227 9.994229 292.831864 10.055151 292.847094 10.1226 Q 292.910192 10.407626 293.042914 10.535997 Z M 316.460785 36.488647 Q 315.892908 36.640951 315.779768 37.117446 C 315.627463 37.752773 315.325031 38.84066 315.50562 39.497744 C 315.531729 39.593479 315.6601 39.610885 315.710143 39.523854 L 317.135276 37.0587 Q 317.439884 36.529987 316.832843 36.479944 Q 316.573926 36.458186 316.460785 36.488647 Z" style="fill:#5ea4a9;"/>
		<path d="M 241.853444 26.906532 C 240.661119 26.401752 239.910477 25.361731 238.985772 24.750338 Q 235.887468 22.702934 231.760022 21.31914 C 225.691784 19.289142 218.944704 19.550235 213.120153 22.274306 Q 210.256833 23.614583 208.126748 25.270349 Q 205.12853 27.598428 202.900536 31.140591 C 202.260858 32.154502 201.751726 33.248917 201.07506 34.502164 Q 200.639905 35.311552 200.459316 36.110062 Q 199.534611 40.24186 199.630345 44.495501 Q 198.997195 40.209223 199.791353 36.388561 Q 201.464524 28.338192 207.602387 22.892226 C 210.879104 19.98539 214.721524 18.292637 218.920771 17.457139 C 220.026065 17.237386 221.235796 17.213452 222.406363 17.09596 Q 223.67484 16.967589 224.460295 17.061148 Q 225.419812 17.176464 226.29665 17.296131 Q 232.021115 18.066356 236.37049 21.258219 Q 239.399169 23.484037 241.853444 26.906532 Z" style="fill:#f77c69;"/>
		<path d="M 250.103985 93.659324 Q 249.573096 93.117555 248.924715 92.638885 Q 248.00001 91.955691 247.699753 91.694598 Q 238.161153 83.424476 229.471106 74.797526 C 225.798397 71.150926 222.286695 67.491272 219.070899 63.448681 C 215.343796 58.764236 212.423905 53.781711 210.51575 48.137749 Q 210.332985 47.595981 209.991388 45.842306 Q 209.832556 43.329285 209.817326 42.582994 Q 209.749877 39.49992 210.96396 36.264542 Q 212.225909 32.896442 215.169734 30.298566 Q 217.556559 28.194591 221.253202 27.019672 Q 226.057314 25.914378 230.641673 26.823852 Q 238.655054 28.418696 244.514418 34.291114 Q 244.592746 34.369442 244.671073 34.29329 Q 245.252006 33.721061 245.469583 32.852926 Q 245.595778 33.312015 246.091855 32.398189 Q 246.744587 31.203688 247.895573 29.195448 Q 251.231037 23.388303 256.809725 20.044136 Q 259.877568 18.205606 264.270459 17.374459 C 265.021102 17.233034 265.934927 17.270022 266.792183 17.122069 C 267.629856 16.978468 268.602428 17.021984 269.331313 17.030687 Q 269.960112 17.03939 270.336521 17.1373 C 270.776028 17.254792 271.191601 17.200397 271.68115 17.285253 Q 280.464756 18.82135 286.350229 25.514035 Q 288.52818 27.987892 289.898918 30.883849 C 292.039881 35.407287 292.549013 40.59216 291.713515 45.563807 Q 291.648242 45.951095 291.241372 47.787449 C 289.766196 54.423564 285.912898 60.224182 281.62662 65.265454 Q 276.872551 70.852845 270.556274 76.657814 Q 260.682605 85.732973 250.103985 93.659324 Z" style="fill:#f77c69;"/>
		<path d="M 241.853444 26.906532 Q 243.996583 29.680646 245.469583 32.852926 Q 245.252006 33.721061 244.671073 34.29329 Q 244.592746 34.369442 244.514418 34.291114 Q 238.655054 28.418696 230.641673 26.823852 Q 226.057314 25.914378 221.253202 27.019672 C 221.781915 24.584979 220.202302 22.750801 217.758907 22.870468 C 212.454366 23.12721 207.917874 26.960926 205.683353 31.645371 Q 203.200793 36.849826 204.504082 42.417635 Q 204.756472 43.49682 205.415732 44.602114 C 206.438347 46.314449 208.215955 47.073795 209.991388 45.842306 Q 210.332985 47.595981 210.51575 48.137749 C 212.423905 53.781711 215.343796 58.764236 219.070899 63.448681 C 222.286695 67.491272 225.798397 71.150926 229.471106 74.797526 Q 238.161153 83.424476 247.699753 91.694598 Q 248.00001 91.955691 248.924715 92.638885 Q 249.573096 93.117555 250.103985 93.659324 L 247.18627 95.719783 C 247.016559 95.839451 246.792455 95.856857 246.607514 95.761123 Q 246.165831 95.534842 245.689336 95.232409 Q 243.607119 93.907362 239.864785 91.170236 Q 231.272648 84.884421 223.348474 78.315755 C 221.322827 76.638232 220.065229 75.448083 217.550032 73.15264 Q 213.057056 69.051303 208.849106 64.027437 C 204.682496 59.051439 201.42536 53.159439 200.006754 46.862744 Q 199.791353 45.901052 199.630345 44.495501 Q 199.534611 40.24186 200.459316 36.110062 Q 200.639905 35.311552 201.07506 34.502164 C 201.751726 33.248917 202.260858 32.154502 202.900536 31.140591 Q 205.12853 27.598428 208.126748 25.270349 Q 210.256833 23.614583 213.120153 22.274306 C 218.944704 19.550235 225.691784 19.289142 231.760022 21.31914 Q 235.887468 22.702934 238.985772 24.750338 C 239.910477 25.361731 240.661119 26.401752 241.853444 26.906532 Z" style="fill:#fa9080;"/>
		<path fill-opacity="0.996" d="M 221.253202 27.019672 Q 217.556559 28.194591 215.169734 30.298566 Q 212.225909 32.896442 210.96396 36.264542 Q 209.749877 39.49992 209.817326 42.582994 Q 209.832556 43.329285 209.991388 45.842306 C 208.215955 47.073795 206.438347 46.314449 205.415732 44.602114 Q 204.756472 43.49682 204.504082 42.417635 Q 203.200793 36.849826 205.683353 31.645371 C 207.917874 26.960926 212.454366 23.12721 217.758907 22.870468 C 220.202302 22.750801 221.781915 24.584979 221.253202 27.019672 Z" style="fill:#fcf4db;"/>
		<path d="M 175.12241 37.979053 Q 178.76901 40.324539 179.367348 44.486798 Q 179.604508 46.140387 179.452203 48.444533 Q 179.426094 48.864458 178.869096 51.292623 C 178.342558 53.59677 177.108893 56.114142 176.843449 58.607581 C 176.686793 60.084932 176.536664 61.283784 177.330822 62.676281 C 178.529675 64.77808 179.228099 65.926889 179.950456 67.37378 Q 180.252889 67.978646 180.45306 68.74887 Q 181.158011 71.462062 182.378621 73.333229 Q 184.874236 77.156067 188.516484 80.019387 C 190.157019 81.307446 192.028186 82.42797 193.868892 83.124219 Q 196.749618 84.212106 198.32488 84.555879 Q 201.366614 85.217315 202.798274 85.674228 Q 203.461886 85.885278 205.261252 86.742533 C 211.819039 89.871298 217.595723 93.639742 222.408539 98.979095 Q 225.267508 102.151375 226.862351 105.850194 Q 228.687827 110.079901 229.04683 114.276972 Q 229.133861 115.290883 229.085994 118.885264 Q 229.077291 119.605446 228.935865 120.419186 C 228.816198 121.111083 228.740045 121.798628 228.589917 122.447009 Q 227.506381 127.133629 226.942855 128.837262 Q 225.717893 132.540431 225.341484 133.600034 Q 221.969032 143.084239 218.42687 152.229024 C 218.402936 152.292121 218.34419 152.333461 218.276741 152.335637 Q 217.604426 152.370449 216.993034 152.329109 Q 212.310765 152.011446 207.45661 150.383966 Q 201.310044 148.321331 195.039459 144.607282 Q 191.677886 142.616448 189.188799 140.675656 C 189.090889 140.599504 188.975573 140.57557 188.892893 140.510297 Q 187.393784 139.333202 185.785886 138.003804 Q 181.760701 134.681394 178.577542 130.595288 C 178.453522 130.434281 178.464401 130.208 178.601475 130.057872 Q 182.154517 126.239386 182.829007 125.514852 Q 184.959091 123.228112 186.416861 121.489668 C 187.265413 120.477932 188.190118 119.231213 188.37941 117.87788 Q 188.483847 117.133765 188.227106 115.921858 Q 187.811533 113.974539 186.956453 112.205634 Q 185.803292 109.82316 184.541342 107.656087 Q 179.352118 98.752814 172.611565 90.017075 Q 171.6564 88.776883 170.357462 86.772994 Q 169.619874 85.635064 169.393593 84.660316 Q 169.0607 83.21125 169.045469 81.96453 Q 168.975844 75.74834 169.012833 69.982535 Q 169.023712 68.374637 169.217356 66.542634 Q 169.23041 66.425142 169.578534 63.10926 Q 169.600292 62.882979 169.843979 60.376486 Q 169.981053 58.968759 170.172521 57.656767 Q 170.400977 56.103263 171.260409 49.806569 C 171.277815 49.671671 171.343088 49.580288 171.360494 49.432335 Q 171.654224 46.888854 172.008875 44.858855 Q 172.011051 44.839273 172.093731 44.116916 C 172.159004 43.549038 172.402691 42.989864 172.230805 42.450272 C 172.011051 41.751848 172.113313 41.068654 171.997997 40.365879 Q 171.86745 39.565194 171.843517 37.304563 Q 171.834813 36.588733 172.222101 36.45601 C 172.927053 36.214499 173.806066 36.221027 174.367416 36.80631 C 174.754704 37.211004 174.604576 37.648335 175.12241 37.979053 Z M 173.075005 37.502558 Q 173.86046 38.496888 174.517545 39.708795 Q 174.65897 39.972064 174.774286 39.693564 Q 174.846087 39.523854 174.765583 39.158323 Q 174.556709 38.196631 174.167245 37.42423 Q 173.64941 36.388561 172.509304 36.965142 C 172.459261 36.991251 172.457085 37.063052 172.507128 37.091337 C 172.689893 37.19795 172.929229 37.317617 173.075005 37.502558 Z" style="fill:#5ea4a9;"/>
	</g>
	<g id="surface4">
	</g>
</svg>
