<?xml version="1.0" encoding="utf-8"?>
<svg xmlns="http://www.w3.org/2000/svg" width="490pt" height="280pt" viewBox="0 0 490 280" version="1.1" xmlns:xlink="http://www.w3.org/1999/xlink">
	<g id="surface2">
		<path vector-effect="non-scaling-stroke" d="M 294.617099 58.154959 Q 292.643078 57.693016 290.755135 57.38314 C 290.600197 57.357317 290.485428 57.431917 290.402221 57.546686" style="fill:none;stroke-width:0.50;stroke:#cd6f61;"/>
		<path stroke-opacity="0.635" vector-effect="non-scaling-stroke" d="M 281.751536 46.635059 Q 278.231009 43.378499 274.701874 41.36431 Q 270.699318 39.080414 268.421161 38.041758 Q 267.184529 37.479392 264.246452 36.518205" style="fill:none;stroke-width:0.50;stroke:#e3a188;"/>
		<path stroke-opacity="0.796" vector-effect="non-scaling-stroke" d="M 264.246452 36.518205 L 262.903659 36.033307" style="fill:none;stroke-width:0.50;stroke:#eab2a2;"/>
		<path stroke-opacity="0.949" vector-effect="non-scaling-stroke" d="M 262.903659 36.033307 Q 261.718673 35.433641 260.040182 35.089336 Q 255.007578 34.053549 251.202998 33.752281 Q 248.184584 33.511267 242.05307 33.826881 Q 240.047488 33.930172 238.047645 34.34334 Q 235.565774 34.856929 234.111081 35.304527 Q 233.261793 35.565625 232.231745 36.268583" style="fill:none;stroke-width:0.50;stroke:#ebbdad;"/>
		<path stroke-opacity="0.635" vector-effect="non-scaling-stroke" d="M 232.231745 36.268583 Q 231.778409 36.366136 231.792755 36.552635" style="fill:none;stroke-width:0.50;stroke:#e3a188;"/>
		<path stroke-opacity="0.949" vector-effect="non-scaling-stroke" d="M 222.981394 40.535107 Q 221.076235 41.955368 220.631507 42.641111 Q 219.050569 45.079944 218.64314 47.977852 Q 218.361957 49.980564 218.077905 51.693486" style="fill:none;stroke-width:0.50;stroke:#ebbdad;"/>
		<path vector-effect="non-scaling-stroke" d="M 218.077905 51.693486 Q 216.781019 52.778049 216.201438 53.4724 Q 213.883112 56.244062 213.37813 59.489145 C 212.723948 63.683938 213.154331 68.421013 214.778307 72.501037 Q 215.073836 73.241295 215.214428 73.941383" style="fill:none;stroke-width:0.50;stroke:#cd6f61;"/>
		<path stroke-opacity="0.635" vector-effect="non-scaling-stroke" d="M 215.214428 73.941383 Q 215.618987 76.058864 217.030641 77.883686" style="fill:none;stroke-width:0.50;stroke:#e3a188;"/>
		<path stroke-opacity="0.949" vector-effect="non-scaling-stroke" d="M 217.030641 77.883686 C 217.156887 78.250945 217.443808 78.469006 217.590138 78.847742 Q 217.836891 79.478969 218.284488 79.946652 C 218.766516 80.445895 219.234199 81.148853 219.802303 81.67105 Q 223.853636 85.403899 228.869024 87.079521" style="fill:none;stroke-width:0.50;stroke:#ebbdad;"/>
		<path vector-effect="non-scaling-stroke" d="M 228.869024 87.079521 Q 233.583146 93.457788 241.014414 96.209365 Q 243.743038 97.219329 245.963811 97.884987" style="fill:none;stroke-width:0.50;stroke:#cd6f61;"/>
		<path stroke-opacity="0.996" vector-effect="non-scaling-stroke" d="M 245.963811 97.884987 Q 243.556539 100.539012 241.252559 103.135652 Q 238.911279 105.778199 236.506876 107.783781 Q 234.650494 109.330288 232.639174 110.466497" style="fill:none;stroke-width:0.50;stroke:#ebc1b0;"/>
		<path vector-effect="non-scaling-stroke" d="M 232.639174 110.466497 Q 230.940598 110.297214 228.315266 110.716119 Q 226.645382 110.982956 223.030171 111.057556 C 220.657329 111.106332 217.380685 110.937049 215.188605 111.034602 C 214.287671 111.074771 212.873148 111.499415 211.831622 111.47933 C 209.019791 111.419077 206.053022 109.941431 204.271239 107.709181 Q 202.80507 105.870014 201.872575 104.378022 C 199.542772 100.633696 197.769597 96.768862 196.676426 92.35314 Q 195.830007 88.930165 195.368064 87.131167 Q 195.224603 86.583147 194.931943 86.066688 Q 194.908989 86.020781 194.883166 86.066688 L 194.840128 86.141288 Q 194.765528 86.270403 194.736836 86.124073 Q 194.65076 85.687952 194.659367 85.246093" style="fill:none;stroke-width:0.50;stroke:#db7767;"/>
		<path stroke-opacity="0.949" vector-effect="non-scaling-stroke" d="M 228.869024 87.079521 Q 233.086771 88.118177 236.974558 87.512773 Q 241.378804 86.82703 245.326845 84.752588 Q 249.381046 82.62363 252.017855 80.176189 Q 252.58596 79.648253 254.557111 77.591026" style="fill:none;stroke-width:0.50;stroke:#d3968d;"/>
		<path stroke-opacity="0.949" vector-effect="non-scaling-stroke" d="M 206.440366 111.548192 L 204.302801 109.855354" style="fill:none;stroke-width:0.50;stroke:#e29f94;"/>
		<path vector-effect="non-scaling-stroke" d="M 204.302801 109.855354 Q 197.778205 104.208738 195.695154 95.979828 Q 195.388148 94.76615 195.164349 92.949936 Q 194.983589 91.47516 194.802828 89.888483" style="fill:none;stroke-width:0.50;stroke:#db7767;"/>
		<path stroke-opacity="0.796" vector-effect="non-scaling-stroke" d="M 194.802828 89.888483 L 194.75979 87.974717 Q 194.756921 87.894379 194.699536 87.917332 L 194.696667 87.920202 Q 194.653629 87.937417 194.65076 87.968978 L 194.610591 89.604431 Q 194.610591 89.610169 194.601983 89.6073 L 194.521645 89.561393 Q 194.478607 89.53557 194.481476 89.486793 L 194.607721 86.511417" style="fill:none;stroke-width:0.50;stroke:#df8e83;"/>
		<path vector-effect="non-scaling-stroke" d="M 309.752211 63.913475 Q 305.568895 64.573395 301.85326 66.251886 Q 297.816274 68.070968 294.717521 70.799592" style="fill:none;stroke-width:0.50;stroke:#cd6f61;"/>
		<path stroke-opacity="0.949" vector-effect="non-scaling-stroke" d="M 223.888066 66.535938 Q 225.121829 70.905753 228.343958 74.454973 Q 230.45857 76.784776 233.336393 78.052969 C 237.080719 79.702768 242.142016 78.936688 245.682628 77.272543" style="fill:none;stroke-width:0.50;stroke:#d3968d;"/>
		<path stroke-opacity="0.949" vector-effect="non-scaling-stroke" d="M 245.682628 77.272543 Q 248.89328 76.021565 251.74528 74.09919 Q 252.224439 73.777838 253.446725 72.607198 Q 253.495501 72.558421 253.512717 72.607198 L 253.512717 72.610067 Q 253.529932 72.658844 253.515586 72.67319 Q 252.55153 73.757754 252.172793 74.09919 Q 251.002153 75.163669 250.299195 75.812112 C 247.79437 78.118961 244.580849 79.851967 241.439058 81.125899" style="fill:none;stroke-width:0.50;stroke:#e29f94;"/>
		<path stroke-opacity="0.949" vector-effect="non-scaling-stroke" d="M 241.439058 81.125899 Q 240.277025 81.602189 239.671621 81.765734 C 235.930164 82.781436 233.072425 81.59932 229.947849 79.40437 C 226.831881 77.212289 224.269672 73.935645 222.200967 70.885669 C 220.278593 68.056622 218.559933 64.286473 218.037736 60.854891 C 217.598746 57.956984 217.83976 54.247088 218.077905 51.693486" style="fill:none;stroke-width:0.50;stroke:#d3968d;"/>
		<path stroke-opacity="0.796" vector-effect="non-scaling-stroke" d="M 266.289334 44.933614 L 265.531861 44.554878" style="fill:none;stroke-width:0.50;stroke:#eab2a2;"/>
		<path stroke-opacity="0.635" vector-effect="non-scaling-stroke" d="M 277.353029 55.125068 Q 272.937306 49.280476 266.762754 45.229143" style="fill:none;stroke-width:0.50;stroke:#e3a188;"/>
		<path stroke-opacity="0.635" vector-effect="non-scaling-stroke" d="M 266.398364 45.005345 Q 266.309418 44.965175 266.289334 44.933614" style="fill:none;stroke-width:0.50;stroke:#e3a188;"/>
		<path stroke-opacity="0.949" vector-effect="non-scaling-stroke" d="M 241.898132 82.993758 Q 236.813882 84.081191 232.260437 83.871738 Q 224.080304 83.49874 218.186935 77.906639" style="fill:none;stroke-width:0.50;stroke:#d3968d;"/>
		<path stroke-opacity="0.635" vector-effect="non-scaling-stroke" d="M 218.186935 77.906639 L 215.214428 73.941383" style="fill:none;stroke-width:0.50;stroke:#c06759;"/>
		<path stroke-opacity="0.949" vector-effect="non-scaling-stroke" d="M 265.531861 44.554878 L 265.199032 44.511839" style="fill:none;stroke-width:0.50;stroke:#ebbdad;"/>
		<path stroke-opacity="0.949" vector-effect="non-scaling-stroke" d="M 265.199032 44.511839 Q 265.092871 44.388463 264.946541 44.313864 Q 258.140761 40.724475 250.368057 38.862354" style="fill:none;stroke-width:0.50;stroke:#d3968d;"/>
		<path stroke-opacity="0.949" vector-effect="non-scaling-stroke" d="M 250.368057 38.862354 Q 245.906426 37.869605 241.619818 37.588422 Q 236.440884 37.246986 230.754099 37.860998 Q 230.501608 37.88969 230.412662 37.622853" style="fill:none;stroke-width:0.50;stroke:#ebbdad;"/>
		<path stroke-opacity="0.949" vector-effect="non-scaling-stroke" d="M 230.831568 37.473654 Q 231.015198 37.479392 231.170135 37.407662" style="fill:none;stroke-width:0.50;stroke:#ebbdad;"/>
		<path stroke-opacity="0.945" vector-effect="non-scaling-stroke" d="M 190.820357 113.74888 Q 192.269311 113.766095 193.712526 113.998502 C 194.865951 114.185001 195.634901 114.242385 196.598957 113.697234 C 197.313392 113.295544 197.915927 112.647101 198.805384 112.495033 C 200.179738 112.259757 201.565569 112.730308 203.091992 112.971323 C 204.19664 113.146345 206.110407 112.991407 206.440366 111.548192" style="fill:none;stroke-width:0.50;stroke:#f4ede1;"/>
		<path stroke-opacity="0.996" vector-effect="non-scaling-stroke" d="M 206.440366 111.548192 C 212.187405 115.46754 218.947277 116.431596 225.503435 114.001371 Q 229.078477 112.675793 232.639174 110.466497" style="fill:none;stroke-width:0.50;stroke:#e3a498;"/>
		<path stroke-opacity="0.996" vector-effect="non-scaling-stroke" d="M 245.963811 97.884987 Q 253.243011 88.961727 256.341763 77.72014" style="fill:none;stroke-width:0.50;stroke:#d59c92;"/>
		<path stroke-opacity="0.635" vector-effect="non-scaling-stroke" d="M 257.733333 56.553937 L 257.905486 57.698754" style="fill:none;stroke-width:0.50;stroke:#d57463;"/>
		<path stroke-opacity="0.796" vector-effect="non-scaling-stroke" d="M 257.905486 57.698754 L 258.137892 58.619772" style="fill:none;stroke-width:0.50;stroke:#df8e83;"/>
		<path stroke-opacity="0.996" vector-effect="non-scaling-stroke" d="M 258.137892 58.619772 Q 258.023124 58.743149 258.028862 58.84931 Q 258.456375 65.396859 257.529619 71.889894 Q 257.107844 74.848055 256.341763 77.72014" style="fill:none;stroke-width:0.50;stroke:#e3a498;"/>
		<path vector-effect="non-scaling-stroke" d="M 256.341763 77.72014 Q 255.472391 77.493472 254.557111 77.591026" style="fill:none;stroke-width:0.50;stroke:#c55249;"/>
		<path stroke-opacity="0.949" vector-effect="non-scaling-stroke" d="M 254.557111 77.591026 Q 254.000483 77.708663 253.438117 78.388667" style="fill:none;stroke-width:0.50;stroke:#e29f94;"/>
		<path stroke-opacity="0.635" vector-effect="non-scaling-stroke" d="M 253.438117 78.388667 Q 253.346302 78.397275 253.205711 78.466136" style="fill:none;stroke-width:0.50;stroke:#d57463;"/>
		<path stroke-opacity="0.949" vector-effect="non-scaling-stroke" d="M 253.205711 78.466136 C 249.590499 80.509018 245.923642 82.135863 241.898132 82.993758" style="fill:none;stroke-width:0.50;stroke:#e29f94;"/>
		<path vector-effect="non-scaling-stroke" d="M 241.898132 82.993758 Q 241.312812 82.170294 241.439058 81.125899" style="fill:none;stroke-width:0.50;stroke:#c55249;"/>
		<path vector-effect="non-scaling-stroke" d="M 245.229291 76.383086 L 245.484652 76.374478 C 245.56212 76.371609 245.608028 76.291271 245.576467 76.219541 C 245.269461 75.568229 244.936632 75.060377 244.368527 74.558265 Q 241.895263 72.38053 239.424868 70.136804" style="fill:none;stroke-width:0.50;stroke:#db7767;"/>
		<path stroke-opacity="0.996" vector-effect="non-scaling-stroke" d="M 239.424868 70.136804 Q 235.746534 65.987918 234.33488 60.536408 C 233.686437 58.04306 233.778252 55.541104 235.230075 53.343285 Q 236.489661 51.429518 238.572711 50.878629" style="fill:none;stroke-width:0.50;stroke:#e3a498;"/>
		<path vector-effect="non-scaling-stroke" d="M 238.572711 50.878629 Q 239.404784 51.228673 241.218128 51.673401 Q 242.744551 52.049269 244.242281 53.383454" style="fill:none;stroke-width:0.50;stroke:#db7767;"/>
		<path vector-effect="non-scaling-stroke" d="M 244.242281 53.383454 C 242.649867 53.564215 240.782007 53.392062 239.56546 54.620086 Q 239.462168 54.726247 239.605629 54.71477 C 240.271287 54.663124 241.611211 54.34751 242.423199 54.637301 Q 244.227935 55.282875 244.13899 57.159342 Q 244.118905 57.632762 243.677046 57.807784 L 243.490547 57.879515 Q 243.060165 58.048798 243.106072 57.589724 Q 243.174933 56.955627 243.11181 56.665837 Q 243.037211 56.318661 242.489191 56.089124 Q 241.149267 55.523889 239.71179 56.060432 C 238.455074 56.528114 238.105029 58.071752 237.944353 59.362899" style="fill:none;stroke-width:0.50;stroke:#c55249;"/>
		<path stroke-opacity="0.996" vector-effect="non-scaling-stroke" d="M 237.944353 59.362899 L 236.45523 59.403068 Q 236.300293 59.405937 236.331854 59.560875 Q 236.3462 59.632605 236.438015 59.704336 Q 236.656075 59.876489 236.82249 59.94535" style="fill:none;stroke-width:0.50;stroke:#e3a498;"/>
		<path vector-effect="non-scaling-stroke" d="M 236.82249 59.94535 C 237.155319 61.136074 239.984365 61.764433 241.031629 61.856247 C 244.316881 62.148907 247.923485 62.077177 250.864431 60.524931 Q 251.696503 60.085941 250.764008 60.266702 Q 250.534471 60.312609 250.181558 60.481893 Q 249.745437 60.688477 249.908982 60.235141 Q 250.907469 57.446263 250.058181 54.579917" style="fill:none;stroke-width:0.50;stroke:#db7767;"/>
		<path stroke-opacity="0.996" vector-effect="non-scaling-stroke" d="M 250.058181 54.579917 Q 248.457159 50.365039 244.362788 48.953385" style="fill:none;stroke-width:0.50;stroke:#e3a498;"/>
		<path vector-effect="non-scaling-stroke" d="M 250.368057 38.862354 Q 250.996415 39.746072 251.52722 40.497807 Q 253.334825 43.057147 254.841164 45.800117" style="fill:none;stroke-width:0.50;stroke:#cd6f61;"/>
		<path stroke-opacity="0.635" vector-effect="non-scaling-stroke" d="M 257.578395 56.074778 L 257.733333 56.553937" style="fill:none;stroke-width:0.50;stroke:#e3a188;"/>
		<path vector-effect="non-scaling-stroke" d="M 257.733333 56.553937 Q 256.037626 55.756295 254.577196 54.53114 C 252.055155 52.41079 249.567545 50.049425 246.80736 48.428319 Q 245.937988 47.917598 244.39435 47.630677 Q 244.239412 47.601985 244.216458 47.759791 Q 244.133251 48.376673 244.362788 48.953385" style="fill:none;stroke-width:0.50;stroke:#db7767;"/>
		<path stroke-opacity="0.996" vector-effect="non-scaling-stroke" d="M 244.362788 48.953385 Q 239.52816 47.745445 235.370667 50.4339 Q 233.290486 51.779562 232.811327 54.089281 Q 231.873093 58.639857 233.832767 63.069926 Q 233.841375 63.09001 233.835637 63.107225 Q 233.82416 63.141656 233.801206 63.173217 Q 233.781121 63.196171 233.763906 63.170348 Q 231.999339 60.53067 231.540264 59.216569 Q 230.731145 56.886766 230.320847 55.064814 Q 230.292155 54.929961 230.206079 54.806585 Q 230.051141 54.585655 230.111395 54.849623 Q 230.226163 55.331651 230.366755 55.764903 C 230.533169 56.281362 230.570469 56.619929 230.610638 57.170818 Q 230.650807 57.695885 230.263463 57.337233 Q 229.554767 56.683052 229.655189 55.595619 Q 229.76135 54.453671 229.962196 53.234255" style="fill:none;stroke-width:0.50;stroke:#ebc1b0;"/>
		<path vector-effect="non-scaling-stroke" d="M 229.962196 53.234255 Q 231.488618 50.878629 232.928964 49.550182 Q 237.559878 45.280789 244.044305 46.646536 C 247.260696 47.323671 249.616322 48.847224 252.052286 50.849937 Q 252.709336 51.392218 252.339208 50.626138 Q 249.983582 45.71691 244.621018 44.127365 Q 238.196844 42.222205 232.765419 46.158769 C 228.15459 49.498536 225.48335 54.927092 224.436086 60.413032 Q 224.243849 61.431604 224.123342 63.465877 Q 224.037265 64.952131 223.888066 66.535938" style="fill:none;stroke-width:0.50;stroke:#cd6f61;"/>
		<path stroke-opacity="0.949" vector-effect="non-scaling-stroke" d="M 223.888066 66.535938 Q 223.730259 66.168678 223.572453 65.87028 Q 223.342915 65.445636 223.256839 65.216099 Q 220.760621 58.651334 220.706106 51.601671 Q 220.686022 49.174315 221.331595 45.877586 Q 221.879615 43.074362 223.426123 40.721606" style="fill:none;stroke-width:0.50;stroke:#ebbdad;"/>
		<path stroke-opacity="0.949" vector-effect="non-scaling-stroke" d="M 204.302801 109.855354 Q 203.350221 110.756288 201.806583 110.182445 Q 200.0248 109.522525 198.280317 108.879821 Q 196.966217 108.397793 195.838615 106.816855 Q 195.815661 106.782425 195.850092 106.753732 Q 195.884522 106.72504 195.913215 106.76234 Q 197.014993 108.176863 198.702092 108.776529 C 201.046241 109.605733 202.087766 110.096369 203.921195 110.136538 Q 204.067525 110.139407 203.964233 110.036115 L 201.81806 107.889942 Q 201.703292 107.775173 201.726245 107.930111 L 201.815191 108.552731 Q 201.838145 108.710537 201.703292 108.793745 L 201.212656 109.106489 C 201.132318 109.158135 201.037634 109.169612 200.957296 109.138051 Q 200.90565 109.115097 200.865481 109.034759 Q 200.796619 108.905644 200.650289 108.876952 Q 200.53839 108.856867 200.458052 108.891298 C 200.452314 108.894167 200.449444 108.891298 200.446575 108.88556 C 200.443706 108.88269 200.446575 108.876952 200.449444 108.874083 Q 200.693328 108.727753 200.914257 108.942944 Q 201.017549 109.043366 201.152402 108.991721 Q 201.301601 108.934336 201.410632 108.765053" style="fill:none;stroke-width:0.50;stroke:#ebbdad;"/>
		<path stroke-opacity="0.796" vector-effect="non-scaling-stroke" d="M 200.036277 106.54428 L 199.993239 106.656179 Q 199.938724 106.805378 199.780917 106.805378 L 199.362012 106.805378 Q 199.100913 106.805378 199.339058 106.911539 Q 199.932986 107.178376 200.331807 106.882847 Q 200.449444 106.796771 200.455183 106.650441 Q 200.460921 106.452465 200.331807 106.237274 Q 200.239992 106.088074 200.17113 106.245881 L 200.036277 106.54428" style="fill:none;stroke-width:0.50;stroke:#eab2a2;"/>
		<path stroke-opacity="0.635" vector-effect="non-scaling-stroke" d="M 198.56437 103.525865 L 198.19711 102.926199" style="fill:none;stroke-width:0.50;stroke:#e3a188;"/>
		<path stroke-opacity="0.796" vector-effect="non-scaling-stroke" d="M 198.19711 102.926199 Q 198.136857 102.581893 197.90445 102.467124" style="fill:none;stroke-width:0.50;stroke:#eab2a2;"/>
		<path stroke-opacity="0.635" vector-effect="non-scaling-stroke" d="M 197.90445 102.467124 L 196.888748 100.427112" style="fill:none;stroke-width:0.50;stroke:#e3a188;"/>
		<path stroke-opacity="0.796" vector-effect="non-scaling-stroke" d="M 196.888748 100.427112 Q 196.888748 100.295128 196.837102 100.171752" style="fill:none;stroke-width:0.50;stroke:#eab2a2;"/>
		<path stroke-opacity="0.635" vector-effect="non-scaling-stroke" d="M 196.837102 100.171752 L 195.471355 96.427426" style="fill:none;stroke-width:0.50;stroke:#e3a188;"/>
		<path stroke-opacity="0.635" vector-effect="non-scaling-stroke" d="M 194.593375 85.570314 L 194.607721 86.511417" style="fill:none;stroke-width:0.50;stroke:#d57463;"/>
		<path stroke-opacity="0.796" vector-effect="non-scaling-stroke" d="M 194.802828 89.888483 Q 194.65076 90.264351 194.693798 90.694733 Q 194.854474 92.301494 194.983589 93.911124 C 195.05245 94.760411 195.304941 95.581007 195.471355 96.427426" style="fill:none;stroke-width:0.50;stroke:#eab2a2;"/>
		<path stroke-opacity="0.796" vector-effect="non-scaling-stroke" d="M 198.56437 103.525865 Q 199.032052 104.581736 199.746487 105.416678 Q 200.133831 105.870014 200.036277 106.54428 Q 199.318973 106.512718 198.687746 106.208581 Q 198.547154 106.14259 198.624623 106.274573 Q 199.161167 107.198461 199.981762 107.23863 Q 200.515436 107.267322 200.541259 106.710694 Q 200.544128 106.644702 200.601513 106.65331 L 200.604382 106.65331 Q 200.667505 106.661918 200.667505 106.69061 L 200.670374 107.41939 Q 200.670374 107.617366 200.828181 107.646058 Q 200.876957 107.654666 200.951557 107.74935 Q 201.029026 107.844034 200.985988 107.588674 Q 200.971642 107.49399 201.008941 107.410783 Q 201.080672 107.255845 201.175356 107.399306 Q 201.571308 107.996103 201.410632 108.765053" style="fill:none;stroke-width:0.50;stroke:#eab2a2;"/>
		<path vector-effect="non-scaling-stroke" d="M 226.895004 135.491795 L 230.911906 134.691284" style="fill:none;stroke-width:0.50;stroke:#cd6f61;"/>
		<path stroke-opacity="0.996" vector-effect="non-scaling-stroke" d="M 230.911906 134.691284 C 235.43379 138.185989 241.43045 140.822798 247.111497 140.673599 Q 251.89161 140.550222 256.103618 137.12151 C 257.607087 135.899224 259.658577 133.93955 261.626858 132.582411 Q 263.930838 130.995735 264.412867 130.728898 C 274.89698 124.869959 282.695508 116.672611 288.167102 106.065121" style="fill:none;stroke-width:0.50;stroke:#ebc1b0;"/>
		<path stroke-opacity="0.949" vector-effect="non-scaling-stroke" d="M 288.167102 106.065121 L 290.528467 100.613611" style="fill:none;stroke-width:0.50;stroke:#ebbdad;"/>
		<path stroke-opacity="0.796" vector-effect="non-scaling-stroke" d="M 290.528467 100.613611 L 291.4294 98.100178" style="fill:none;stroke-width:0.50;stroke:#eab2a2;"/>
		<path stroke-opacity="0.635" vector-effect="non-scaling-stroke" d="M 291.4294 98.100178 L 292.611517 94.424713" style="fill:none;stroke-width:0.50;stroke:#e3a188;"/>
		<path stroke-opacity="0.996" vector-effect="non-scaling-stroke" d="M 229.962196 53.234255 Q 229.494513 54.008943 229.439998 54.909877 Q 229.21333 58.697241 231.038151 61.899286" style="fill:none;stroke-width:0.50;stroke:#d59c92;"/>
		<path vector-effect="non-scaling-stroke" d="M 231.038151 61.899286 Q 231.706679 65.600574 233.881544 68.633335 Q 236.151093 71.79521 239.64006 73.554039 Q 242.434676 74.962824 245.229291 76.383086" style="fill:none;stroke-width:0.50;stroke:#cd6f61;"/>
		<path vector-effect="non-scaling-stroke" d="M 245.229291 76.383086 Q 245.533428 76.781907 245.682628 77.272543" style="fill:none;stroke-width:0.50;stroke:#c55249;"/>
		<path stroke-opacity="0.635" vector-effect="non-scaling-stroke" d="M 188.720091 80.365557 L 188.883636 80.787332" style="fill:none;stroke-width:0.50;stroke:#e3a188;"/>
		<path stroke-opacity="0.635" vector-effect="non-scaling-stroke" d="M 188.929544 80.9394 L 189.058659 81.820249" style="fill:none;stroke-width:0.50;stroke:#e3a188;"/>
		<path stroke-opacity="0.796" vector-effect="non-scaling-stroke" d="M 189.058659 81.820249 L 188.754522 83.581948" style="fill:none;stroke-width:0.50;stroke:#eab2a2;"/>
		<path stroke-opacity="0.635" vector-effect="non-scaling-stroke" d="M 188.754522 83.581948 L 187.66422 85.960527" style="fill:none;stroke-width:0.50;stroke:#e3a188;"/>
		<path stroke-opacity="0.796" vector-effect="non-scaling-stroke" d="M 187.66422 85.960527 Q 186.005813 89.730677 185.409016 92.619977 Q 184.909773 95.041595 184.29863 98.289547 Q 184.112131 99.285164 184.631459 100.197575 Q 184.648674 100.226267 184.648674 100.254959 C 184.651544 100.297997 184.59129 100.266436 184.574075 100.21479 Q 184.490867 99.970907 184.338799 99.770062 Q 184.246984 99.646685 184.241246 99.801623 L 184.22403 100.358251" style="fill:none;stroke-width:0.50;stroke:#eab2a2;"/>
		<path stroke-opacity="0.949" vector-effect="non-scaling-stroke" d="M 184.22403 100.358251 L 184.160908 102.759784" style="fill:none;stroke-width:0.50;stroke:#ebbdad;"/>
		<path stroke-opacity="0.796" vector-effect="non-scaling-stroke" d="M 184.160908 102.759784 Q 184.163777 105.221571 184.651544 107.643189" style="fill:none;stroke-width:0.50;stroke:#eab2a2;"/>
		<path stroke-opacity="0.635" vector-effect="non-scaling-stroke" d="M 184.651544 107.643189 Q 185.188087 110.325906 186.981347 112.46921" style="fill:none;stroke-width:0.50;stroke:#e3a188;"/>
		<path stroke-opacity="0.796" vector-effect="non-scaling-stroke" d="M 186.981347 112.46921 Q 187.566667 113.066007 188.315532 113.275459 Q 188.5049 113.327105 188.461862 113.134868 L 187.84498 110.446413 Q 187.830634 110.386159 187.836373 110.386159 L 187.839242 110.386159 Q 187.879411 110.374682 187.893757 110.411982 Q 188.479077 111.835113 188.527854 113.261113 Q 188.533592 113.421789 188.691399 113.447612 L 189.348449 113.568119 Q 189.365665 113.570989 189.362795 113.588204 L 189.348449 113.668542 Q 189.342711 113.694365 189.319757 113.685757 Q 189.081612 113.588204 188.83486 113.611158 Q 188.831991 113.614027 188.83486 113.614027 C 189.107435 113.634111 189.291065 113.714449 189.592333 113.67715" style="fill:none;stroke-width:0.50;stroke:#eab2a2;"/>
		<path stroke-opacity="0.949" vector-effect="non-scaling-stroke" d="M 189.592333 113.67715 L 190.820357 113.74888" style="fill:none;stroke-width:0.50;stroke:#ebbdad;"/>
		<path stroke-opacity="0.996" vector-effect="non-scaling-stroke" d="M 190.820357 113.74888 Q 193.233367 113.817741 195.193041 115.062981 Q 197.115416 116.282397 200.211299 118.506039 Q 203.496551 120.870273 208.136073 122.829947 Q 221.549656 128.499517 234.48121 122.390957 Q 238.346043 120.563267 241.005806 117.805951 Q 244.61241 114.067363 248.095638 108.819568 Q 253.056512 101.34813 256.272902 93.618464 Q 260.34145 83.837308 261.050146 72.239939" style="fill:none;stroke-width:0.50;stroke:#ebc1b0;"/>
		<path stroke-opacity="0.949" vector-effect="non-scaling-stroke" d="M 261.050146 72.239939 L 261.104661 69.080932" style="fill:none;stroke-width:0.50;stroke:#ebbdad;"/>
		<path stroke-opacity="0.796" vector-effect="non-scaling-stroke" d="M 261.104661 69.080932 Q 260.952593 68.656288 261.064492 68.257467" style="fill:none;stroke-width:0.50;stroke:#eab2a2;"/>
		<path stroke-opacity="0.949" vector-effect="non-scaling-stroke" d="M 261.064492 68.257467 L 260.972677 66.395346" style="fill:none;stroke-width:0.50;stroke:#ebbdad;"/>
		<path stroke-opacity="0.796" vector-effect="non-scaling-stroke" d="M 260.972677 66.395346 Q 261.113269 66.246147 260.958331 66.079733" style="fill:none;stroke-width:0.50;stroke:#eab2a2;"/>
		<path stroke-opacity="0.949" vector-effect="non-scaling-stroke" d="M 260.958331 66.079733 Q 261.021454 65.591966 260.946854 65.485805" style="fill:none;stroke-width:0.50;stroke:#ebbdad;"/>
		<path stroke-opacity="0.796" vector-effect="non-scaling-stroke" d="M 260.946854 65.485805 L 260.812001 64.016767" style="fill:none;stroke-width:0.50;stroke:#eab2a2;"/>
		<path stroke-opacity="0.949" vector-effect="non-scaling-stroke" d="M 260.812001 64.016767 L 260.298412 59.342815" style="fill:none;stroke-width:0.50;stroke:#ebbdad;"/>
		<path stroke-opacity="0.796" vector-effect="non-scaling-stroke" d="M 266.398364 45.005345 L 266.762754 45.229143" style="fill:none;stroke-width:0.50;stroke:#eab2a2;"/>
		<path vector-effect="non-scaling-stroke" d="M 285.17451 89.415063 Q 282.316772 95.104717 278.954051 100.300867 C 278.385946 101.175977 277.688727 101.962142 277.089061 102.771261 Q 276.317242 103.815656 275.651584 104.590344 Q 271.812574 109.077797 267.65508 112.532333 Q 256.163872 122.08682 241.935432 127.908459 C 234.925938 130.777674 227.308171 132.748825 219.707619 133.334145 C 218.112335 133.457522 216.063715 133.618198 214.075349 133.618198 Q 213.392476 133.618198 212.698126 133.687059 Q 212.554665 133.701405 212.480065 133.824781 L 211.32951 135.727071" style="fill:none;stroke-width:0.50;stroke:#cd6f61;"/>
		<path vector-effect="non-scaling-stroke" d="M 265.199032 44.511839 Q 265.262154 44.718423 265.155994 44.833192 Q 264.696919 45.318089 264.470251 45.802986 Q 263.313957 48.284858 262.731506 51.01922 Q 261.675635 55.962879 260.688625 59.718682 Q 260.642717 59.890835 260.504995 59.776066 Q 260.395965 59.684251 260.298412 59.342815" style="fill:none;stroke-width:0.50;stroke:#cd6f61;"/>
		<path stroke-opacity="0.949" vector-effect="non-scaling-stroke" d="M 260.298412 59.342815 L 260.218074 59.121885" style="fill:none;stroke-width:0.50;stroke:#d3968d;"/>
		<path stroke-opacity="0.796" vector-effect="non-scaling-stroke" d="M 260.218074 59.121885 Q 260.220943 58.938255 260.172166 58.789056" style="fill:none;stroke-width:0.50;stroke:#ce847c;"/>
		<path stroke-opacity="0.949" vector-effect="non-scaling-stroke" d="M 260.172166 58.789056 L 259.810645 57.400356" style="fill:none;stroke-width:0.50;stroke:#d3968d;"/>
		<path stroke-opacity="0.635" vector-effect="non-scaling-stroke" d="M 259.810645 57.400356 L 259.299925 55.377559" style="fill:none;stroke-width:0.50;stroke:#c06759;"/>
		<path stroke-opacity="0.635" vector-effect="non-scaling-stroke" d="M 285.246241 89.604431 L 284.282184 92.100649" style="fill:none;stroke-width:0.50;stroke:#c06759;"/>
		<path stroke-opacity="0.949" vector-effect="non-scaling-stroke" d="M 284.282184 92.100649 Q 281.742929 98.630983 277.743242 104.398106" style="fill:none;stroke-width:0.50;stroke:#d3968d;"/>
		<path stroke-opacity="0.996" vector-effect="non-scaling-stroke" d="M 277.743242 104.398106 Q 271.505568 113.599681 261.821965 120.612044 C 252.689252 127.225585 242.035855 132.378697 230.911906 134.691284" style="fill:none;stroke-width:0.50;stroke:#d59c92;"/>
		<path stroke-opacity="0.945" vector-effect="non-scaling-stroke" d="M 261.050146 72.239939 L 260.921031 70.765162 Q 260.918162 70.756554 260.923901 70.750816 Q 260.932508 70.745077 260.935377 70.756554 Q 260.938247 70.762293 260.938247 70.7709 Q 260.81487 71.743564 260.430395 72.796566 Q 260.384488 72.925681 260.249635 72.89125 Q 260.172166 72.871166 260.066005 72.802305 Q 259.948367 72.721967 259.810645 72.765005 Q 259.6098 72.825259 259.601192 73.11218 Q 259.598323 73.126526 259.589715 73.132265 Q 259.555285 73.152349 259.506508 73.14948 Q 259.431908 73.140872 259.414693 73.066273 Q 258.872411 70.776639 258.430552 68.458312 Q 258.347345 68.019322 258.995788 66.957713 Q 259.067518 66.845813 258.998657 66.733914 Q 258.832242 66.461338 258.815027 66.441254 Q 258.62279 66.223194 258.628528 66.002264 Q 258.640005 65.508759 258.895365 65.348083 Q 259.033088 65.264876 258.967096 65.118546 Q 258.631397 64.355334 258.648613 64.163097 Q 258.749035 62.94368 258.470721 61.62671 Q 258.390383 61.247974 258.447768 61.07869 Q 258.574013 60.7143 258.961357 60.697084 C 259.050303 60.694215 259.124902 60.633962 259.153595 60.547885 Q 259.216717 60.355648 259.064649 59.910919 Q 259.007265 59.741636 258.881019 59.867881 Q 258.703128 60.051511 258.499413 59.910919 Q 258.373168 59.824843 258.358822 59.675644 L 258.289961 59.053024" style="fill:none;stroke-width:0.50;stroke:#f4ede1;"/>
		<path stroke-opacity="0.792" vector-effect="non-scaling-stroke" d="M 258.289961 59.053024 Q 258.281353 58.809141 258.137892 58.619772" style="fill:none;stroke-width:0.50;stroke:#f4ebe0;"/>
		<path stroke-opacity="0.996" vector-effect="non-scaling-stroke" d="M 250.058181 54.579917 Q 249.722483 55.122199 249.117079 56.553937 Q 248.158761 58.817748 246.196217 59.905181 Q 244.962454 60.588054 245.906426 59.540791 Q 246.988121 58.344328 247.802978 56.467861 Q 248.471505 54.9357 247.676732 53.549868 C 245.874865 50.402339 241.823533 49.839973 238.572711 50.878629" style="fill:none;stroke-width:0.50;stroke:#ebc1b0;"/>
		<path stroke-opacity="0.996" vector-effect="non-scaling-stroke" d="M 239.424868 70.136804 Q 239.413392 70.349125 239.399045 70.357733 C 239.301492 70.40651 239.186724 70.400771 239.094909 70.343387 C 238.061991 69.703552 237.166796 69.020679 236.294554 68.10253 Q 233.56593 65.227576 231.038151 61.899286" style="fill:none;stroke-width:0.50;stroke:#ebc1b0;"/>
		<path stroke-opacity="0.996" vector-effect="non-scaling-stroke" d="M 236.82249 59.94535 Q 240.7361 60.326956 244.299666 58.768972 Q 246.319593 57.885253 246.170394 56.450645" style="fill:none;stroke-width:0.50;stroke:#ebc1b0;"/>
		<path vector-effect="non-scaling-stroke" d="M 246.170394 56.450645 Q 246.006849 54.470887 244.242281 53.383454" style="fill:none;stroke-width:0.50;stroke:#cd6f61;"/>
		<path stroke-opacity="0.996" vector-effect="non-scaling-stroke" d="M 246.170394 56.450645 Q 242.761766 59.704336 237.944353 59.362899" style="fill:none;stroke-width:0.50;stroke:#d59c92;"/>
		<path stroke-opacity="0.945" vector-effect="non-scaling-stroke" d="M 288.167102 106.065121 Q 286.279158 106.638964 284.612144 105.715076 C 283.797287 105.26461 282.890615 104.188654 281.912212 103.867302 C 280.666973 103.457004 279.002828 104.09397 277.743242 104.398106" style="fill:none;stroke-width:0.50;stroke:#f4ede1;"/>
		<path vector-effect="non-scaling-stroke" d="M 237.089327 61.787386 Q 235.68915 61.104513 234.667709 59.953958 Q 234.593109 59.87075 234.535725 59.968304 L 234.489818 60.048642 Q 234.475472 60.071595 234.489818 60.09168 Q 235.43379 61.402911 236.977428 61.973885 Q 237.034812 61.996839 237.066373 61.942324 L 237.112281 61.861986 Q 237.140973 61.813209 237.089327 61.787386" style="fill:none;stroke-width:0.50;stroke:#db7767;"/>
		<path vector-effect="non-scaling-stroke" d="M 239.852382 65.092723 C 240.879561 65.904711 242.285476 66.977797 243.269617 66.567499 Q 245.123131 65.792811 246.833183 63.962252" style="fill:none;stroke-width:0.50;stroke:#db7767;"/>
		<path stroke-opacity="0.949" vector-effect="non-scaling-stroke" d="M 246.833183 63.962252 Q 247.272173 63.669592 247.441457 63.391278 Q 247.524664 63.259294 247.369726 63.285117 Q 245.803135 63.557692 244.239412 63.853221 Q 243.619662 63.96799 240.776269 64.054067 C 239.970019 64.07702 239.069086 63.841745 238.420643 63.597861 Q 237.482409 63.242079 238.274313 63.85896 L 239.852382 65.092723" style="fill:none;stroke-width:0.50;stroke:#e29f94;"/>
		<path stroke-opacity="0.949" vector-effect="non-scaling-stroke" d="M 246.833183 63.962252 Q 244.664056 64.9177 243.44177 64.92057 Q 241.662857 64.923439 239.852382 65.092723" style="fill:none;stroke-width:0.50;stroke:#ebbdad;"/>
		<path d="M 294.617099 58.154959 Q 292.643078 57.693016 290.755135 57.38314 C 290.600197 57.357317 290.485428 57.431917 290.402221 57.546686 Q 289.019259 54.795108 287.51866 53.004717 C 285.507339 50.603184 284.270708 48.893132 281.751536 46.635059 Q 278.231009 43.378499 274.701874 41.36431 Q 270.699318 39.080414 268.421161 38.041758 Q 267.184529 37.479392 264.246452 36.518205 L 262.903659 36.033307 Q 261.718673 35.433641 260.040182 35.089336 Q 255.007578 34.053549 251.202998 33.752281 Q 248.184584 33.511267 242.05307 33.826881 Q 240.047488 33.930172 238.047645 34.34334 Q 235.565774 34.856929 234.111081 35.304527 Q 233.261793 35.565625 232.231745 36.268583 Q 231.778409 36.366136 231.792755 36.552635 Q 230.300763 36.739135 228.940755 37.318716 C 226.98395 38.156527 224.875076 38.959907 222.981394 40.535107 Q 221.076235 41.955368 220.631507 42.641111 Q 219.050569 45.079944 218.64314 47.977852 Q 218.361957 49.980564 218.077905 51.693486 Q 216.781019 52.778049 216.201438 53.4724 Q 213.883112 56.244062 213.37813 59.489145 C 212.723948 63.683938 213.154331 68.421013 214.778307 72.501037 Q 215.073836 73.241295 215.214428 73.941383 Q 215.618987 76.058864 217.030641 77.883686 C 217.156887 78.250945 217.443808 78.469006 217.590138 78.847742 Q 217.836891 79.478969 218.284488 79.946652 C 218.766516 80.445895 219.234199 81.148853 219.802303 81.67105 Q 223.853636 85.403899 228.869024 87.079521 Q 233.583146 93.457788 241.014414 96.209365 Q 243.743038 97.219329 245.963811 97.884987 Q 243.556539 100.539012 241.252559 103.135652 Q 238.911279 105.778199 236.506876 107.783781 Q 234.650494 109.330288 232.639174 110.466497 Q 230.940598 110.297214 228.315266 110.716119 Q 226.645382 110.982956 223.030171 111.057556 C 220.657329 111.106332 217.380685 110.937049 215.188605 111.034602 C 214.287671 111.074771 212.873148 111.499415 211.831622 111.47933 C 209.019791 111.419077 206.053022 109.941431 204.271239 107.709181 Q 202.80507 105.870014 201.872575 104.378022 C 199.542772 100.633696 197.769597 96.768862 196.676426 92.35314 Q 195.830007 88.930165 195.368064 87.131167 Q 195.224603 86.583147 194.931943 86.066688 Q 194.908989 86.020781 194.883166 86.066688 L 194.840128 86.141288 Q 194.765528 86.270403 194.736836 86.124073 Q 194.65076 85.687952 194.659367 85.246093 Q 194.570422 80.420072 194.254808 78.85635 Q 193.394043 74.601303 192.56484 69.654775 C 192.071335 66.696614 192.039774 63.93069 192.223403 61.072952 C 192.665263 54.195442 196.085368 48.296335 200.222776 42.956725 C 202.044728 40.606837 202.248443 38.013066 202.251312 34.96309 C 202.25705 31.987714 204.185163 28.822969 206.236652 26.725572 Q 209.886294 22.992723 214.924637 19.914055 Q 220.958597 16.224243 225.586642 14.014947 Q 230.510216 11.66506 235.76088 9.556186 Q 239.149424 8.193309 242.311299 7.295245 C 248.153022 5.633969 254.620234 5.094556 260.470565 6.704186 Q 264.857595 7.912126 269.350787 10.551804 Q 280.572289 17.142392 286.855871 28.713939 Q 294.054733 41.972584 294.014564 57.124911 Q 294.014564 57.790569 294.617099 58.154959 Z" style="fill:#e3947f;"/>
		<path fill-opacity="0.898" d="M 262.903659 36.033307 L 260.608287 35.488157 Q 260.470565 35.453726 260.433265 35.591448 Q 260.143474 36.716181 260.476303 37.74336 C 260.909554 39.086153 262.530661 39.783372 262.886444 41.068781 Q 263.075812 41.760262 262.992605 42.807525 Q 262.981128 42.953855 263.110243 43.028455 L 265.16747 44.21631 Q 265.273631 44.279433 265.333885 44.385594 Q 265.397008 44.491755 265.531861 44.554878 L 265.199032 44.511839 Q 265.092871 44.388463 264.946541 44.313864 Q 258.140761 40.724475 250.368057 38.862354 Q 245.906426 37.869605 241.619818 37.588422 Q 236.440884 37.246986 230.754099 37.860998 Q 230.501608 37.88969 230.412662 37.622853 Q 230.622115 37.485131 230.831568 37.473654 Q 231.015198 37.479392 231.170135 37.407662 L 232.0309 37.137955 L 232.693689 37.066225 Q 232.842888 37.04901 232.851496 36.899811 Q 232.90888 36.053392 232.231745 36.268583 Q 233.261793 35.565625 234.111081 35.304527 Q 235.565774 34.856929 238.047645 34.34334 Q 240.047488 33.930172 242.05307 33.826881 Q 248.184584 33.511267 251.202998 33.752281 Q 255.007578 34.053549 260.040182 35.089336 Q 261.718673 35.433641 262.903659 36.033307 Z M 255.656021 34.406462 Q 255.541252 34.386378 255.489606 34.492539 Q 255.29163 34.88849 255.280154 35.272965 C 255.265807 35.625879 255.610113 35.886977 255.945812 35.775078 Q 256.511047 35.58571 256.815184 34.788068 Q 256.875437 34.627392 256.703284 34.59583 L 255.656021 34.406462 Z" style="fill:#f3ebe0;"/>
		<path fill-opacity="0.592" d="M 262.903659 36.033307 L 264.246452 36.518205 Q 263.494718 37.117871 262.269563 36.391959 Q 261.968295 36.214068 261.908041 36.558374 L 261.764581 37.344539 Q 261.707196 37.677368 261.996987 37.85239 Q 264.039869 39.074676 265.374054 41.022873 C 265.982328 41.906592 266.12005 42.787441 265.640891 43.74002 C 265.569161 43.883481 265.620806 44.150318 265.775744 44.428632 Q 265.815913 44.500363 265.879036 44.477409 Q 265.982328 44.440109 265.881905 44.394202 Q 265.537599 44.224918 265.686798 43.880612 C 265.726967 43.791666 265.844605 43.77732 265.904859 43.85192 Q 266.085619 44.078588 266.148742 44.313864 Q 266.151611 44.319602 266.151611 44.313864 Q 266.154481 44.308125 266.15735 44.305256 Q 266.171696 44.270825 266.163088 44.259348 Q 265.996674 43.972427 266.249165 43.768713 Q 266.389756 43.656813 266.37541 43.837574 L 266.289334 44.933614 L 265.531861 44.554878 Q 265.397008 44.491755 265.333885 44.385594 Q 265.273631 44.279433 265.16747 44.21631 L 263.110243 43.028455 Q 262.981128 42.953855 262.992605 42.807525 Q 263.075812 41.760262 262.886444 41.068781 C 262.530661 39.783372 260.909554 39.086153 260.476303 37.74336 Q 260.143474 36.716181 260.433265 35.591448 Q 260.470565 35.453726 260.608287 35.488157 L 262.903659 36.033307 Z" style="fill:#f5e5dc;"/>
		<path fill-opacity="0.271" d="M 232.0309 37.137955 Q 232.036638 36.730527 231.792755 36.552635 Q 231.778409 36.366136 232.231745 36.268583 Q 232.90888 36.053392 232.851496 36.899811 Q 232.842888 37.04901 232.693689 37.066225 L 232.0309 37.137955 Z" style="fill:#e2d3ab;"/>
		<path fill-opacity="0.271" d="M 264.246452 36.518205 Q 267.184529 37.479392 268.421161 38.041758 Q 270.699318 39.080414 274.701874 41.36431 Q 278.231009 43.378499 281.751536 46.635059 C 279.941061 46.775651 278.618353 45.802986 277.243999 44.833192 Q 276.701717 44.451586 276.957077 45.065598 Q 278.317085 48.35085 280.477605 50.683522 C 281.639637 51.937369 282.354072 53.202693 283.613657 54.373333 C 284.617883 55.308698 284.985142 56.771997 285.6881 57.833607 C 286.646418 59.276823 287.309207 59.931004 286.60338 61.655402 Q 286.551734 61.781648 286.439834 61.70131 Q 284.342438 60.197841 283.025468 58.496396 Q 282.965214 58.418927 283.005383 58.499265 Q 283.013991 58.513611 283.008253 58.525088 Q 282.996776 58.559519 283.028337 58.608295 Q 283.71408 59.675644 283.960832 60.002734 Q 284.497376 60.7143 283.834587 60.212187 C 282.658208 59.32273 282.058542 57.93403 281.04284 56.938412 Q 280.804695 56.706006 279.585279 56.289969 Q 278.414639 55.891148 277.353029 55.125068 Q 272.937306 49.280476 266.762754 45.229143 Q 266.868915 44.861884 266.802923 44.669646 Q 266.745539 44.506101 266.627901 44.632346 Q 266.48444 44.790153 266.398364 45.005345 Q 266.309418 44.965175 266.289334 44.933614 L 266.37541 43.837574 Q 266.389756 43.656813 266.249165 43.768713 Q 265.996674 43.972427 266.163088 44.259348 Q 266.171696 44.270825 266.15735 44.305256 Q 266.154481 44.308125 266.151611 44.313864 Q 266.151611 44.319602 266.148742 44.313864 Q 266.085619 44.078588 265.904859 43.85192 C 265.844605 43.77732 265.726967 43.791666 265.686798 43.880612 Q 265.537599 44.224918 265.881905 44.394202 Q 265.982328 44.440109 265.879036 44.477409 Q 265.815913 44.500363 265.775744 44.428632 C 265.620806 44.150318 265.569161 43.883481 265.640891 43.74002 C 266.12005 42.787441 265.982328 41.906592 265.374054 41.022873 Q 264.039869 39.074676 261.996987 37.85239 Q 261.707196 37.677368 261.764581 37.344539 L 261.908041 36.558374 Q 261.968295 36.214068 262.269563 36.391959 Q 263.494718 37.117871 264.246452 36.518205 Z" style="fill:#e2d3ab;"/>
		<path d="M 231.170135 37.407662 Q 231.015198 37.479392 230.831568 37.473654 Q 230.886083 37.370362 231.170135 37.407662 Z" style="fill:#e3947f;"/>
		<path d="M 250.368057 38.862354 Q 250.996415 39.746072 251.52722 40.497807 Q 253.334825 43.057147 254.841164 45.800117 Q 254.723526 46.41126 254.99897 47.053964 Q 255.435091 48.069667 255.466653 48.181566 Q 256.037626 50.118287 256.631554 52.049269 C 257.033244 53.354762 257.265651 54.720508 257.578395 56.074778 L 257.733333 56.553937 Q 256.037626 55.756295 254.577196 54.53114 C 252.055155 52.41079 249.567545 50.049425 246.80736 48.428319 Q 245.937988 47.917598 244.39435 47.630677 Q 244.239412 47.601985 244.216458 47.759791 Q 244.133251 48.376673 244.362788 48.953385 Q 239.52816 47.745445 235.370667 50.4339 Q 233.290486 51.779562 232.811327 54.089281 Q 231.873093 58.639857 233.832767 63.069926 Q 233.841375 63.09001 233.835637 63.107225 Q 233.82416 63.141656 233.801206 63.173217 Q 233.781121 63.196171 233.763906 63.170348 Q 231.999339 60.53067 231.540264 59.216569 Q 230.731145 56.886766 230.320847 55.064814 Q 230.292155 54.929961 230.206079 54.806585 Q 230.051141 54.585655 230.111395 54.849623 Q 230.226163 55.331651 230.366755 55.764903 C 230.533169 56.281362 230.570469 56.619929 230.610638 57.170818 Q 230.650807 57.695885 230.263463 57.337233 Q 229.554767 56.683052 229.655189 55.595619 Q 229.76135 54.453671 229.962196 53.234255 Q 231.488618 50.878629 232.928964 49.550182 Q 237.559878 45.280789 244.044305 46.646536 C 247.260696 47.323671 249.616322 48.847224 252.052286 50.849937 Q 252.709336 51.392218 252.339208 50.626138 Q 249.983582 45.71691 244.621018 44.127365 Q 238.196844 42.222205 232.765419 46.158769 C 228.15459 49.498536 225.48335 54.927092 224.436086 60.413032 Q 224.243849 61.431604 224.123342 63.465877 Q 224.037265 64.952131 223.888066 66.535938 Q 223.730259 66.168678 223.572453 65.87028 Q 223.342915 65.445636 223.256839 65.216099 Q 220.760621 58.651334 220.706106 51.601671 Q 220.686022 49.174315 221.331595 45.877586 Q 221.879615 43.074362 223.426123 40.721606 Q 224.743092 39.441936 226.975342 38.713155 Q 228.682525 38.156527 230.412662 37.622853 Q 230.501608 37.88969 230.754099 37.860998 Q 236.440884 37.246986 241.619818 37.588422 Q 245.906426 37.869605 250.368057 38.862354 Z" style="fill:#e3947f;"/>
		<path d="M 250.368057 38.862354 Q 258.140761 40.724475 264.946541 44.313864 Q 265.092871 44.388463 265.199032 44.511839 Q 265.262154 44.718423 265.155994 44.833192 Q 264.696919 45.318089 264.470251 45.802986 Q 263.313957 48.284858 262.731506 51.01922 Q 261.675635 55.962879 260.688625 59.718682 Q 260.642717 59.890835 260.504995 59.776066 Q 260.395965 59.684251 260.298412 59.342815 L 260.218074 59.121885 Q 260.220943 58.938255 260.172166 58.789056 L 259.810645 57.400356 L 259.299925 55.377559 Q 257.796456 50.336347 254.841164 45.800117 Q 253.334825 43.057147 251.52722 40.497807 Q 250.996415 39.746072 250.368057 38.862354 Z" style="fill:#b74a43;"/>
		<path d="M 188.720091 80.365557 L 188.883636 80.787332 Q 188.926675 80.876277 188.929544 80.9394 L 189.058659 81.820249 L 188.754522 83.581948 L 187.66422 85.960527 Q 186.005813 89.730677 185.409016 92.619977 Q 184.909773 95.041595 184.29863 98.289547 Q 184.112131 99.285164 184.631459 100.197575 Q 184.648674 100.226267 184.648674 100.254959 C 184.651544 100.297997 184.59129 100.266436 184.574075 100.21479 Q 184.490867 99.970907 184.338799 99.770062 Q 184.246984 99.646685 184.241246 99.801623 L 184.22403 100.358251 L 184.160908 102.759784 Q 184.163777 105.221571 184.651544 107.643189 Q 185.188087 110.325906 186.981347 112.46921 Q 187.566667 113.066007 188.315532 113.275459 Q 188.5049 113.327105 188.461862 113.134868 L 187.84498 110.446413 Q 187.830634 110.386159 187.836373 110.386159 L 187.839242 110.386159 Q 187.879411 110.374682 187.893757 110.411982 Q 188.479077 111.835113 188.527854 113.261113 Q 188.533592 113.421789 188.691399 113.447612 L 189.348449 113.568119 Q 189.365665 113.570989 189.362795 113.588204 L 189.348449 113.668542 Q 189.342711 113.694365 189.319757 113.685757 Q 189.081612 113.588204 188.83486 113.611158 Q 188.831991 113.614027 188.83486 113.614027 C 189.107435 113.634111 189.291065 113.714449 189.592333 113.67715 L 190.820357 113.74888 Q 193.233367 113.817741 195.193041 115.062981 Q 197.115416 116.282397 200.211299 118.506039 Q 203.496551 120.870273 208.136073 122.829947 Q 221.549656 128.499517 234.48121 122.390957 Q 238.346043 120.563267 241.005806 117.805951 Q 244.61241 114.067363 248.095638 108.819568 Q 253.056512 101.34813 256.272902 93.618464 Q 260.34145 83.837308 261.050146 72.239939 L 261.104661 69.080932 Q 260.952593 68.656288 261.064492 68.257467 L 260.972677 66.395346 Q 261.113269 66.246147 260.958331 66.079733 Q 261.021454 65.591966 260.946854 65.485805 L 260.812001 64.016767 L 260.298412 59.342815 Q 260.395965 59.684251 260.504995 59.776066 Q 260.642717 59.890835 260.688625 59.718682 Q 261.675635 55.962879 262.731506 51.01922 Q 263.313957 48.284858 264.470251 45.802986 Q 264.696919 45.318089 265.155994 44.833192 Q 265.262154 44.718423 265.199032 44.511839 L 265.531861 44.554878 L 266.289334 44.933614 Q 266.309418 44.965175 266.398364 45.005345 L 266.762754 45.229143 Q 272.937306 49.280476 277.353029 55.125068 Q 278.124848 56.183808 278.856498 57.213857 Q 282.890615 62.892034 285.32371 69.408023 Q 287.857227 76.199456 286.683718 83.363887 Q 286.058229 87.185682 285.17451 89.415063 Q 282.316772 95.104717 278.954051 100.300867 C 278.385946 101.175977 277.688727 101.962142 277.089061 102.771261 Q 276.317242 103.815656 275.651584 104.590344 Q 271.812574 109.077797 267.65508 112.532333 Q 256.163872 122.08682 241.935432 127.908459 C 234.925938 130.777674 227.308171 132.748825 219.707619 133.334145 C 218.112335 133.457522 216.063715 133.618198 214.075349 133.618198 Q 213.392476 133.618198 212.698126 133.687059 Q 212.554665 133.701405 212.480065 133.824781 L 211.32951 135.727071 Q 204.868036 135.227828 199.189859 133.664105 C 190.255122 131.202318 181.95735 125.977477 176.112758 118.655239 C 171.412983 112.767608 168.116254 106.133982 165.152355 99.101535 Q 161.858495 91.294399 160.208696 83.745493 Q 159.563123 80.795939 159.5 76.865114 C 159.264724 62.341145 170.669856 49.96048 182.886976 43.754367 Q 188.243801 41.031481 193.557589 39.989956 Q 193.815818 39.941179 193.970756 39.998563 C 194.079786 40.041602 194.140039 40.159239 194.108478 40.271139 C 193.15016 43.662552 192.478764 47.452785 191.46593 50.505631 Q 190.174783 54.393418 187.144892 61.59228 C 185.434839 65.655089 185.013065 70.581532 186.482103 74.919786 Q 187.431813 77.728748 188.720091 80.365557 Z" style="fill:#e3947f;"/>
		<path fill-opacity="0.898" d="M 222.981394 40.535107 L 222.200967 41.502032 L 222.209575 41.588109 Q 222.215314 41.642624 222.249744 41.602455 Q 222.30139 41.542201 222.324344 41.570893 L 223.426123 40.721606 Q 221.879615 43.074362 221.331595 45.877586 Q 220.686022 49.174315 220.706106 51.601671 Q 220.760621 58.651334 223.256839 65.216099 Q 223.342915 65.445636 223.572453 65.87028 Q 223.730259 66.168678 223.888066 66.535938 Q 225.121829 70.905753 228.343958 74.454973 Q 230.45857 76.784776 233.336393 78.052969 C 237.080719 79.702768 242.142016 78.936688 245.682628 77.272543 Q 248.89328 76.021565 251.74528 74.09919 Q 252.224439 73.777838 253.446725 72.607198 Q 253.495501 72.558421 253.512717 72.607198 L 253.512717 72.610067 Q 253.529932 72.658844 253.515586 72.67319 Q 252.55153 73.757754 252.172793 74.09919 Q 251.002153 75.163669 250.299195 75.812112 C 247.79437 78.118961 244.580849 79.851967 241.439058 81.125899 Q 240.277025 81.602189 239.671621 81.765734 C 235.930164 82.781436 233.072425 81.59932 229.947849 79.40437 C 226.831881 77.212289 224.269672 73.935645 222.200967 70.885669 C 220.278593 68.056622 218.559933 64.286473 218.037736 60.854891 C 217.598746 57.956984 217.83976 54.247088 218.077905 51.693486 Q 218.361957 49.980564 218.64314 47.977852 Q 219.050569 45.079944 220.631507 42.641111 Q 221.076235 41.955368 222.981394 40.535107 Z M 222.000122 41.777477 Q 221.977169 41.814777 221.991515 41.834861 C 222.000122 41.843469 222.014468 41.8406 222.014468 41.829123 Q 222.028815 41.7287 222.000122 41.777477 Z" style="fill:#f3ebe0;"/>
		<path fill-opacity="0.271" d="M 222.200967 41.502032 Q 222.261221 41.536463 222.324344 41.570893 Q 222.30139 41.542201 222.249744 41.602455 Q 222.215314 41.642624 222.209575 41.588109 L 222.200967 41.502032 Z" style="fill:#e2d3ab;"/>
		<path d="M 229.962196 53.234255 Q 229.494513 54.008943 229.439998 54.909877 Q 229.21333 58.697241 231.038151 61.899286 Q 231.706679 65.600574 233.881544 68.633335 Q 236.151093 71.79521 239.64006 73.554039 Q 242.434676 74.962824 245.229291 76.383086 Q 245.533428 76.781907 245.682628 77.272543 C 242.142016 78.936688 237.080719 79.702768 233.336393 78.052969 Q 230.45857 76.784776 228.343958 74.454973 Q 225.121829 70.905753 223.888066 66.535938 Q 224.037265 64.952131 224.123342 63.465877 Q 224.243849 61.431604 224.436086 60.413032 C 225.48335 54.927092 228.15459 49.498536 232.765419 46.158769 Q 238.196844 42.222205 244.621018 44.127365 Q 249.983582 45.71691 252.339208 50.626138 Q 252.709336 51.392218 252.052286 50.849937 C 249.616322 48.847224 247.260696 47.323671 244.044305 46.646536 Q 237.559878 45.280789 232.928964 49.550182 Q 231.488618 50.878629 229.962196 53.234255 Z" style="fill:#b74a43;"/>
		<path fill-opacity="0.592" d="M 266.762754 45.229143 L 266.398364 45.005345 Q 266.48444 44.790153 266.627901 44.632346 Q 266.745539 44.506101 266.802923 44.669646 Q 266.868915 44.861884 266.762754 45.229143 Z" style="fill:#f5e5dc;"/>
		<path d="M 257.733333 56.553937 L 257.905486 57.698754 L 258.137892 58.619772 Q 258.023124 58.743149 258.028862 58.84931 Q 258.456375 65.396859 257.529619 71.889894 Q 257.107844 74.848055 256.341763 77.72014 Q 255.472391 77.493472 254.557111 77.591026 Q 254.000483 77.708663 253.438117 78.388667 Q 253.346302 78.397275 253.205711 78.466136 C 249.590499 80.509018 245.923642 82.135863 241.898132 82.993758 Q 241.312812 82.170294 241.439058 81.125899 C 244.580849 79.851967 247.79437 78.118961 250.299195 75.812112 Q 251.002153 75.163669 252.172793 74.09919 Q 252.55153 73.757754 253.515586 72.67319 Q 253.529932 72.658844 253.512717 72.610067 L 253.512717 72.607198 Q 253.495501 72.558421 253.446725 72.607198 Q 252.224439 73.777838 251.74528 74.09919 Q 248.89328 76.021565 245.682628 77.272543 Q 245.533428 76.781907 245.229291 76.383086 L 245.484652 76.374478 C 245.56212 76.371609 245.608028 76.291271 245.576467 76.219541 C 245.269461 75.568229 244.936632 75.060377 244.368527 74.558265 Q 241.895263 72.38053 239.424868 70.136804 Q 235.746534 65.987918 234.33488 60.536408 C 233.686437 58.04306 233.778252 55.541104 235.230075 53.343285 Q 236.489661 51.429518 238.572711 50.878629 Q 239.404784 51.228673 241.218128 51.673401 Q 242.744551 52.049269 244.242281 53.383454 C 242.649867 53.564215 240.782007 53.392062 239.56546 54.620086 Q 239.462168 54.726247 239.605629 54.71477 C 240.271287 54.663124 241.611211 54.34751 242.423199 54.637301 Q 244.227935 55.282875 244.13899 57.159342 Q 244.118905 57.632762 243.677046 57.807784 L 243.490547 57.879515 Q 243.060165 58.048798 243.106072 57.589724 Q 243.174933 56.955627 243.11181 56.665837 Q 243.037211 56.318661 242.489191 56.089124 Q 241.149267 55.523889 239.71179 56.060432 C 238.455074 56.528114 238.105029 58.071752 237.944353 59.362899 L 236.45523 59.403068 Q 236.300293 59.405937 236.331854 59.560875 Q 236.3462 59.632605 236.438015 59.704336 Q 236.656075 59.876489 236.82249 59.94535 C 237.155319 61.136074 239.984365 61.764433 241.031629 61.856247 C 244.316881 62.148907 247.923485 62.077177 250.864431 60.524931 Q 251.696503 60.085941 250.764008 60.266702 Q 250.534471 60.312609 250.181558 60.481893 Q 249.745437 60.688477 249.908982 60.235141 Q 250.907469 57.446263 250.058181 54.579917 Q 248.457159 50.365039 244.362788 48.953385 Q 244.133251 48.376673 244.216458 47.759791 Q 244.239412 47.601985 244.39435 47.630677 Q 245.937988 47.917598 246.80736 48.428319 C 249.567545 50.049425 252.055155 52.41079 254.577196 54.53114 Q 256.037626 55.756295 257.733333 56.553937 Z M 237.089327 61.787386 Q 235.68915 61.104513 234.667709 59.953958 Q 234.593109 59.87075 234.535725 59.968304 L 234.489818 60.048642 Q 234.475472 60.071595 234.489818 60.09168 Q 235.43379 61.402911 236.977428 61.973885 Q 237.034812 61.996839 237.066373 61.942324 L 237.112281 61.861986 Q 237.140973 61.813209 237.089327 61.787386 Z M 239.852382 65.092723 C 240.879561 65.904711 242.285476 66.977797 243.269617 66.567499 Q 245.123131 65.792811 246.833183 63.962252 Q 247.272173 63.669592 247.441457 63.391278 Q 247.524664 63.259294 247.369726 63.285117 Q 245.803135 63.557692 244.239412 63.853221 Q 243.619662 63.96799 240.776269 64.054067 C 239.970019 64.07702 239.069086 63.841745 238.420643 63.597861 Q 237.482409 63.242079 238.274313 63.85896 L 239.852382 65.092723 Z" style="fill:#d25a4f;"/>
		<path fill-opacity="0.992" d="M 244.362788 48.953385 Q 248.457159 50.365039 250.058181 54.579917 Q 249.722483 55.122199 249.117079 56.553937 Q 248.158761 58.817748 246.196217 59.905181 Q 244.962454 60.588054 245.906426 59.540791 Q 246.988121 58.344328 247.802978 56.467861 Q 248.471505 54.9357 247.676732 53.549868 C 245.874865 50.402339 241.823533 49.839973 238.572711 50.878629 Q 236.489661 51.429518 235.230075 53.343285 C 233.778252 55.541104 233.686437 58.04306 234.33488 60.536408 Q 235.746534 65.987918 239.424868 70.136804 Q 239.413392 70.349125 239.399045 70.357733 C 239.301492 70.40651 239.186724 70.400771 239.094909 70.343387 C 238.061991 69.703552 237.166796 69.020679 236.294554 68.10253 Q 233.56593 65.227576 231.038151 61.899286 Q 229.21333 58.697241 229.439998 54.909877 Q 229.494513 54.008943 229.962196 53.234255 Q 229.76135 54.453671 229.655189 55.595619 Q 229.554767 56.683052 230.263463 57.337233 Q 230.650807 57.695885 230.610638 57.170818 C 230.570469 56.619929 230.533169 56.281362 230.366755 55.764903 Q 230.226163 55.331651 230.111395 54.849623 Q 230.051141 54.585655 230.206079 54.806585 Q 230.292155 54.929961 230.320847 55.064814 Q 230.731145 56.886766 231.540264 59.216569 Q 231.999339 60.53067 233.763906 63.170348 Q 233.781121 63.196171 233.801206 63.173217 Q 233.82416 63.141656 233.835637 63.107225 Q 233.841375 63.09001 233.832767 63.069926 Q 231.873093 58.639857 232.811327 54.089281 Q 233.290486 51.779562 235.370667 50.4339 Q 239.52816 47.745445 244.362788 48.953385 Z" style="fill:#f4eee2;"/>
		<path d="M 250.058181 54.579917 Q 250.907469 57.446263 249.908982 60.235141 Q 249.745437 60.688477 250.181558 60.481893 Q 250.534471 60.312609 250.764008 60.266702 Q 251.696503 60.085941 250.864431 60.524931 C 247.923485 62.077177 244.316881 62.148907 241.031629 61.856247 C 239.984365 61.764433 237.155319 61.136074 236.82249 59.94535 Q 240.7361 60.326956 244.299666 58.768972 Q 246.319593 57.885253 246.170394 56.450645 Q 246.006849 54.470887 244.242281 53.383454 Q 242.744551 52.049269 241.218128 51.673401 Q 239.404784 51.228673 238.572711 50.878629 C 241.823533 49.839973 245.874865 50.402339 247.676732 53.549868 Q 248.471505 54.9357 247.802978 56.467861 Q 246.988121 58.344328 245.906426 59.540791 Q 244.962454 60.588054 246.196217 59.905181 Q 248.158761 58.817748 249.117079 56.553937 Q 249.722483 55.122199 250.058181 54.579917 Z" style="fill:#e3947f;"/>
		<path d="M 218.077905 51.693486 C 217.83976 54.247088 217.598746 57.956984 218.037736 60.854891 C 218.559933 64.286473 220.278593 68.056622 222.200967 70.885669 C 224.269672 73.935645 226.831881 77.212289 229.947849 79.40437 C 233.072425 81.59932 235.930164 82.781436 239.671621 81.765734 Q 240.277025 81.602189 241.439058 81.125899 Q 241.312812 82.170294 241.898132 82.993758 Q 236.813882 84.081191 232.260437 83.871738 Q 224.080304 83.49874 218.186935 77.906639 L 215.214428 73.941383 Q 215.073836 73.241295 214.778307 72.501037 C 213.154331 68.421013 212.723948 63.683938 213.37813 59.489145 Q 213.883112 56.244062 216.201438 53.4724 Q 216.781019 52.778049 218.077905 51.693486 Z" style="fill:#b74a43;"/>
		<path d="M 244.242281 53.383454 Q 246.006849 54.470887 246.170394 56.450645 Q 242.761766 59.704336 237.944353 59.362899 C 238.105029 58.071752 238.455074 56.528114 239.71179 56.060432 Q 241.149267 55.523889 242.489191 56.089124 Q 243.037211 56.318661 243.11181 56.665837 Q 243.174933 56.955627 243.106072 57.589724 Q 243.060165 58.048798 243.490547 57.879515 L 243.677046 57.807784 Q 244.118905 57.632762 244.13899 57.159342 Q 244.227935 55.282875 242.423199 54.637301 C 241.611211 54.34751 240.271287 54.663124 239.605629 54.71477 Q 239.462168 54.726247 239.56546 54.620086 C 240.782007 53.392062 242.649867 53.564215 244.242281 53.383454 Z" style="fill:#b74a43;"/>
		<path fill-opacity="0.271" d="M 259.810645 57.400356 L 259.736045 58.26399 Q 259.38887 58.542303 258.921188 58.487788 Q 258.757643 58.467704 258.774858 58.634118 Q 258.783466 58.714456 258.757643 58.783318 Q 258.671566 59.007116 258.58549 58.786187 L 258.051816 57.429048 Q 258.00017 57.297064 258.137892 57.259764 L 258.935534 57.035965 Q 259.107687 56.987189 258.929796 57.007273 Q 258.634267 57.041704 258.493675 57.110565 Q 258.361691 57.179426 258.281353 57.05605 Q 258.169454 56.881028 258.086246 56.875289 Q 258.031731 56.869551 258.0719 56.90972 Q 258.106331 56.94702 258.126415 56.984319 Q 258.157977 57.05605 258.080508 57.067527 Q 257.819409 57.107696 257.905486 57.698754 L 257.733333 56.553937 L 257.578395 56.074778 Q 258.617051 56.401869 259.299925 55.377559 L 259.810645 57.400356 Z" style="fill:#e2d3ab;"/>
		<path fill-opacity="0.992" d="M 246.170394 56.450645 Q 246.319593 57.885253 244.299666 58.768972 Q 240.7361 60.326956 236.82249 59.94535 Q 236.656075 59.876489 236.438015 59.704336 Q 236.3462 59.632605 236.331854 59.560875 Q 236.300293 59.405937 236.45523 59.403068 L 237.944353 59.362899 Q 242.761766 59.704336 246.170394 56.450645 Z" style="fill:#f4eee2;"/>
		<path fill-opacity="0.592" d="M 259.736045 58.26399 Q 260.01149 58.582473 259.824991 59.012855 Q 259.770476 59.133362 259.638492 59.14197 L 258.58549 59.219438 Q 258.568275 59.219438 258.545321 59.190746 L 258.542452 59.187877 Q 258.479329 59.110408 258.576882 59.101801 Q 258.76625 59.090324 258.944142 59.164923 Q 259.010134 59.193615 259.056041 59.14197 Q 259.127772 59.058762 259.018741 59.073108 Q 258.642874 59.124754 258.289961 59.053024 Q 258.281353 58.809141 258.137892 58.619772 L 257.905486 57.698754 Q 257.819409 57.107696 258.080508 57.067527 Q 258.157977 57.05605 258.126415 56.984319 Q 258.106331 56.94702 258.0719 56.90972 Q 258.031731 56.869551 258.086246 56.875289 Q 258.169454 56.881028 258.281353 57.05605 Q 258.361691 57.179426 258.493675 57.110565 Q 258.634267 57.041704 258.929796 57.007273 Q 259.107687 56.987189 258.935534 57.035965 L 258.137892 57.259764 Q 258.00017 57.297064 258.051816 57.429048 L 258.58549 58.786187 Q 258.671566 59.007116 258.757643 58.783318 Q 258.783466 58.714456 258.774858 58.634118 Q 258.757643 58.467704 258.921188 58.487788 Q 259.38887 58.542303 259.736045 58.26399 Z" style="fill:#f5e5dc;"/>
		<path d="M 294.617099 58.154959 Q 297.426061 58.978424 299.130375 59.546529 Q 304.257663 61.256581 309.752211 63.913475 Q 305.568895 64.573395 301.85326 66.251886 Q 297.816274 68.070968 294.717521 70.799592 Q 294.206801 68.68785 293.710427 66.409693 Q 292.697594 61.741479 290.402221 57.546686 C 290.485428 57.431917 290.600197 57.357317 290.755135 57.38314 Q 292.643078 57.693016 294.617099 58.154959 Z" style="fill:#b74a43;"/>
		<path fill-opacity="0.898" d="M 259.810645 57.400356 L 260.172166 58.789056 L 260.218074 59.121885 L 260.298412 59.342815 L 260.812001 64.016767 L 260.946854 65.485805 Q 261.021454 65.591966 260.958331 66.079733 L 260.972677 66.395346 L 261.064492 68.257467 L 260.794786 67.606155 Q 260.74314 67.47991 260.616894 67.540163 Q 259.552416 68.062361 258.73182 69.006333 Q 258.703128 69.037894 258.720343 69.078063 Q 258.737558 69.115363 258.777727 69.129709 Q 258.812158 69.141186 258.84085 69.121101 L 260.043051 68.314852 Q 260.177905 68.225906 260.220943 68.380844 Q 260.275458 68.573081 260.000013 68.828441 Q 259.971321 68.854264 259.971321 68.894433 L 259.971321 69.057978 C 259.971321 69.080932 259.965583 69.101017 259.951236 69.121101 L 259.334355 69.935958 Q 259.225325 70.082288 259.342963 70.217142 L 259.50077 70.400771 Q 259.624146 70.541363 259.437647 70.538494 L 259.213848 70.538494 Q 259.199502 70.527017 259.185156 70.51554 Q 259.185156 70.512671 259.185156 70.51554 Q 259.199502 70.527017 259.213848 70.538494 Q 259.736045 70.8455 260.106174 70.897146 C 260.358665 70.934445 260.602548 70.779508 260.674279 70.532755 L 261.104661 69.080932 L 261.050146 72.239939 L 260.921031 70.765162 Q 260.918162 70.756554 260.923901 70.750816 Q 260.932508 70.745077 260.935377 70.756554 Q 260.938247 70.762293 260.938247 70.7709 Q 260.81487 71.743564 260.430395 72.796566 Q 260.384488 72.925681 260.249635 72.89125 Q 260.172166 72.871166 260.066005 72.802305 Q 259.948367 72.721967 259.810645 72.765005 Q 259.6098 72.825259 259.601192 73.11218 Q 259.598323 73.126526 259.589715 73.132265 Q 259.555285 73.152349 259.506508 73.14948 Q 259.431908 73.140872 259.414693 73.066273 Q 258.872411 70.776639 258.430552 68.458312 Q 258.347345 68.019322 258.995788 66.957713 Q 259.067518 66.845813 258.998657 66.733914 Q 258.832242 66.461338 258.815027 66.441254 Q 258.62279 66.223194 258.628528 66.002264 Q 258.640005 65.508759 258.895365 65.348083 Q 259.033088 65.264876 258.967096 65.118546 Q 258.631397 64.355334 258.648613 64.163097 Q 258.749035 62.94368 258.470721 61.62671 Q 258.390383 61.247974 258.447768 61.07869 Q 258.574013 60.7143 258.961357 60.697084 C 259.050303 60.694215 259.124902 60.633962 259.153595 60.547885 Q 259.216717 60.355648 259.064649 59.910919 Q 259.007265 59.741636 258.881019 59.867881 Q 258.703128 60.051511 258.499413 59.910919 Q 258.373168 59.824843 258.358822 59.675644 L 258.289961 59.053024 Q 258.642874 59.124754 259.018741 59.073108 Q 259.127772 59.058762 259.056041 59.14197 Q 259.010134 59.193615 258.944142 59.164923 Q 258.76625 59.090324 258.576882 59.101801 Q 258.479329 59.110408 258.542452 59.187877 L 258.545321 59.190746 Q 258.568275 59.219438 258.58549 59.219438 L 259.638492 59.14197 Q 259.770476 59.133362 259.824991 59.012855 Q 260.01149 58.582473 259.736045 58.26399 L 259.810645 57.400356 Z" style="fill:#f3ebe0;"/>
		<path fill-opacity="0.992" d="M 258.137892 58.619772 Q 258.281353 58.809141 258.289961 59.053024 L 258.358822 59.675644 Q 258.373168 59.824843 258.499413 59.910919 Q 258.703128 60.051511 258.881019 59.867881 Q 259.007265 59.741636 259.064649 59.910919 Q 259.216717 60.355648 259.153595 60.547885 C 259.124902 60.633962 259.050303 60.694215 258.961357 60.697084 Q 258.574013 60.7143 258.447768 61.07869 Q 258.390383 61.247974 258.470721 61.62671 Q 258.749035 62.94368 258.648613 64.163097 Q 258.631397 64.355334 258.967096 65.118546 Q 259.033088 65.264876 258.895365 65.348083 Q 258.640005 65.508759 258.628528 66.002264 Q 258.62279 66.223194 258.815027 66.441254 Q 258.832242 66.461338 258.998657 66.733914 Q 259.067518 66.845813 258.995788 66.957713 Q 258.347345 68.019322 258.430552 68.458312 Q 258.872411 70.776639 259.414693 73.066273 Q 259.431908 73.140872 259.506508 73.14948 Q 259.555285 73.152349 259.589715 73.132265 Q 259.598323 73.126526 259.601192 73.11218 Q 259.6098 72.825259 259.810645 72.765005 Q 259.948367 72.721967 260.066005 72.802305 Q 260.172166 72.871166 260.249635 72.89125 Q 260.384488 72.925681 260.430395 72.796566 Q 260.81487 71.743564 260.938247 70.7709 Q 260.938247 70.762293 260.935377 70.756554 Q 260.932508 70.745077 260.923901 70.750816 Q 260.918162 70.756554 260.921031 70.765162 L 261.050146 72.239939 Q 260.34145 83.837308 256.272902 93.618464 Q 253.056512 101.34813 248.095638 108.819568 Q 244.61241 114.067363 241.005806 117.805951 Q 238.346043 120.563267 234.48121 122.390957 Q 221.549656 128.499517 208.136073 122.829947 Q 203.496551 120.870273 200.211299 118.506039 Q 197.115416 116.282397 195.193041 115.062981 Q 193.233367 113.817741 190.820357 113.74888 Q 192.269311 113.766095 193.712526 113.998502 C 194.865951 114.185001 195.634901 114.242385 196.598957 113.697234 C 197.313392 113.295544 197.915927 112.647101 198.805384 112.495033 C 200.179738 112.259757 201.565569 112.730308 203.091992 112.971323 C 204.19664 113.146345 206.110407 112.991407 206.440366 111.548192 C 212.187405 115.46754 218.947277 116.431596 225.503435 114.001371 Q 229.078477 112.675793 232.639174 110.466497 Q 234.650494 109.330288 236.506876 107.783781 Q 238.911279 105.778199 241.252559 103.135652 Q 243.556539 100.539012 245.963811 97.884987 Q 253.243011 88.961727 256.341763 77.72014 Q 257.107844 74.848055 257.529619 71.889894 Q 258.456375 65.396859 258.028862 58.84931 Q 258.023124 58.743149 258.137892 58.619772 Z" style="fill:#f4eee2;"/>
		<path fill-opacity="0.592" d="M 260.218074 59.121885 L 260.172166 58.789056 Q 260.220943 58.938255 260.218074 59.121885 Z" style="fill:#f5e5dc;"/>
		<path d="M 239.424868 70.136804 Q 241.895263 72.38053 244.368527 74.558265 C 244.936632 75.060377 245.269461 75.568229 245.576467 76.219541 C 245.608028 76.291271 245.56212 76.371609 245.484652 76.374478 L 245.229291 76.383086 Q 242.434676 74.962824 239.64006 73.554039 Q 236.151093 71.79521 233.881544 68.633335 Q 231.706679 65.600574 231.038151 61.899286 Q 233.56593 65.227576 236.294554 68.10253 C 237.166796 69.020679 238.061991 69.703552 239.094909 70.343387 C 239.186724 70.400771 239.301492 70.40651 239.399045 70.357733 Q 239.413392 70.349125 239.424868 70.136804 Z" style="fill:#e3947f;"/>
		<path d="M 226.895004 135.491795 L 230.911906 134.691284 C 235.43379 138.185989 241.43045 140.822798 247.111497 140.673599 Q 251.89161 140.550222 256.103618 137.12151 C 257.607087 135.899224 259.658577 133.93955 261.626858 132.582411 Q 263.930838 130.995735 264.412867 130.728898 C 274.89698 124.869959 282.695508 116.672611 288.167102 106.065121 L 290.528467 100.613611 L 291.4294 98.100178 L 292.611517 94.424713 Q 294.64866 87.814041 294.921236 81.582104 Q 295.122081 76.974144 294.717521 70.799592 Q 297.816274 68.070968 301.85326 66.251886 Q 305.568895 64.573395 309.752211 63.913475 Q 311.909861 64.946393 314.176541 66.518723 Q 322.827226 72.529729 327.716369 81.490289 Q 330.315879 86.253187 330.324486 91.521067 Q 330.335963 96.421687 328.950132 101.262054 Q 325.822687 112.208111 321.16595 122.445472 Q 318.907878 127.406346 316.038662 132.309835 Q 314.027342 135.750025 311.643024 138.863124 C 306.802657 145.181136 300.444476 149.625551 292.769324 151.895101 Q 287.77402 153.372747 282.635255 153.610892 C 277.252606 153.863383 271.706413 153.774437 266.670939 153.065741 C 259.822122 152.101684 253.773815 150.695769 247.820193 148.509426 Q 245.252245 147.565454 242.34573 146.237008 Q 233.89589 142.372174 227.609439 135.787325 C 227.388509 135.554918 227.196272 135.526226 226.895004 135.491795 Z" style="fill:#e3947f;"/>
		<path fill-opacity="0.592" d="M 260.946854 65.485805 L 260.812001 64.016767 L 260.946854 65.485805 Z" style="fill:#f5e5dc;"/>
		<path fill-opacity="0.592" d="M 260.972677 66.395346 L 260.958331 66.079733 Q 261.113269 66.246147 260.972677 66.395346 Z" style="fill:#f5e5dc;"/>
		<path fill-opacity="0.592" d="M 261.064492 68.257467 Q 260.952593 68.656288 261.104661 69.080932 L 260.674279 70.532755 C 260.602548 70.779508 260.358665 70.934445 260.106174 70.897146 Q 259.736045 70.8455 259.213848 70.538494 L 259.437647 70.538494 Q 259.624146 70.541363 259.50077 70.400771 L 259.342963 70.217142 Q 259.225325 70.082288 259.334355 69.935958 L 259.951236 69.121101 C 259.965583 69.101017 259.971321 69.080932 259.971321 69.057978 L 259.971321 68.894433 Q 259.971321 68.854264 260.000013 68.828441 Q 260.275458 68.573081 260.220943 68.380844 Q 260.177905 68.225906 260.043051 68.314852 L 258.84085 69.121101 Q 258.812158 69.141186 258.777727 69.129709 Q 258.737558 69.115363 258.720343 69.078063 Q 258.703128 69.037894 258.73182 69.006333 Q 259.552416 68.062361 260.616894 67.540163 Q 260.74314 67.47991 260.794786 67.606155 L 261.064492 68.257467 Z" style="fill:#f5e5dc;"/>
		<path fill-opacity="0.592" d="M 259.213848 70.538494 Q 259.199502 70.527017 259.185156 70.51554 Q 259.185156 70.512671 259.185156 70.51554 Q 259.199502 70.527017 259.213848 70.538494 Z" style="fill:#f5e5dc;"/>
		<path fill-opacity="0.271" d="M 218.186935 77.906639 L 217.030641 77.883686 Q 215.618987 76.058864 215.214428 73.941383 L 218.186935 77.906639 Z" style="fill:#e2d3ab;"/>
		<path d="M 256.341763 77.72014 Q 253.243011 88.961727 245.963811 97.884987 Q 243.743038 97.219329 241.014414 96.209365 Q 233.583146 93.457788 228.869024 87.079521 Q 233.086771 88.118177 236.974558 87.512773 Q 241.378804 86.82703 245.326845 84.752588 Q 249.381046 82.62363 252.017855 80.176189 Q 252.58596 79.648253 254.557111 77.591026 Q 255.472391 77.493472 256.341763 77.72014 Z" style="fill:#b74a43;"/>
		<path fill-opacity="0.898" d="M 254.557111 77.591026 Q 252.58596 79.648253 252.017855 80.176189 Q 249.381046 82.62363 245.326845 84.752588 Q 241.378804 86.82703 236.974558 87.512773 Q 233.086771 88.118177 228.869024 87.079521 Q 223.853636 85.403899 219.802303 81.67105 C 219.234199 81.148853 218.766516 80.445895 218.284488 79.946652 Q 217.836891 79.478969 217.590138 78.847742 C 217.443808 78.469006 217.156887 78.250945 217.030641 77.883686 L 218.186935 77.906639 Q 224.080304 83.49874 232.260437 83.871738 Q 236.813882 84.081191 241.898132 82.993758 C 245.923642 82.135863 249.590499 80.509018 253.205711 78.466136 Q 253.119634 78.916603 253.438117 78.388667 Q 254.000483 77.708663 254.557111 77.591026 Z M 252.855666 79.014156 Q 252.930266 78.991203 252.961827 78.956772 Q 253.214318 78.701412 252.864274 78.78175 Q 252.786805 78.801835 252.634737 78.936688 Q 251.994902 79.499054 251.363674 79.886398 Q 251.323505 79.912221 251.323505 79.958128 L 251.323505 80.064289 C 251.323505 80.127412 251.389497 80.167581 251.446882 80.138889 Q 252.164185 79.765891 252.674906 79.134664 Q 252.746636 79.045718 252.855666 79.014156 Z" style="fill:#f3ebe0;"/>
		<path fill-opacity="0.271" d="M 253.438117 78.388667 Q 253.119634 78.916603 253.205711 78.466136 Q 253.346302 78.397275 253.438117 78.388667 Z" style="fill:#e2d3ab;"/>
		<path fill-opacity="0.271" d="M 188.883636 80.787332 L 188.720091 80.365557 Q 190.312506 80.333996 191.778675 79.771629 Q 191.916397 79.717114 192.059858 79.742937 L 192.435725 79.811798 Q 192.656655 79.851967 192.473025 79.978213 Q 192.246357 80.130281 191.999605 80.087243 Q 191.859013 80.064289 191.729898 80.133151 Q 190.430144 80.833239 188.883636 80.787332 Z" style="fill:#e2d3ab;"/>
		<path fill-opacity="0.271" d="M 194.593375 85.570314 L 194.607721 86.511417 L 193.009568 87.12256 Q 192.871846 87.174205 192.78577 87.056568 Q 192.12585 86.13268 191.233524 85.897405 Q 189.916554 85.553099 189.342711 85.378077 Q 189.204989 85.337908 189.093089 85.429722 L 187.865065 86.42534 Q 187.718735 86.542978 187.70152 86.356479 L 187.66422 85.960527 L 188.754522 83.581948 Q 189.942377 82.835952 189.058659 81.820249 L 188.929544 80.9394 C 189.684148 80.910708 191.480277 80.970961 191.87049 81.765734 Q 192.071335 82.176032 192.091419 82.207593 Q 192.648047 83.054012 192.871846 84.540266 Q 192.975138 85.234616 193.792864 85.099763 C 193.878941 85.085417 193.947802 85.165755 193.924848 85.248962 Q 193.767041 85.828543 193.023915 85.851497 Q 193.021045 85.851497 193.032522 85.854366 Q 193.04113 85.854366 193.043999 85.865843 Q 193.046868 85.883058 193.061214 85.885928 Q 193.838772 85.983481 194.593375 85.570314 Z" style="fill:#e2d3ab;"/>
		<path fill-opacity="0.592" d="M 189.058659 81.820249 Q 189.942377 82.835952 188.754522 83.581948 L 189.058659 81.820249 Z" style="fill:#f5e5dc;"/>
		<path d="M 194.659367 85.246093 Q 194.65076 85.687952 194.736836 86.124073 Q 194.765528 86.270403 194.840128 86.141288 L 194.883166 86.066688 Q 194.908989 86.020781 194.931943 86.066688 Q 195.224603 86.583147 195.368064 87.131167 Q 195.830007 88.930165 196.676426 92.35314 C 197.769597 96.768862 199.542772 100.633696 201.872575 104.378022 Q 202.80507 105.870014 204.271239 107.709181 C 206.053022 109.941431 209.019791 111.419077 211.831622 111.47933 C 212.873148 111.499415 214.287671 111.074771 215.188605 111.034602 C 217.380685 110.937049 220.657329 111.106332 223.030171 111.057556 Q 226.645382 110.982956 228.315266 110.716119 Q 230.940598 110.297214 232.639174 110.466497 Q 229.078477 112.675793 225.503435 114.001371 C 218.947277 116.431596 212.187405 115.46754 206.440366 111.548192 L 204.302801 109.855354 Q 197.778205 104.208738 195.695154 95.979828 Q 195.388148 94.76615 195.164349 92.949936 Q 194.983589 91.47516 194.802828 89.888483 L 194.75979 87.974717 Q 194.756921 87.894379 194.699536 87.917332 L 194.696667 87.920202 Q 194.653629 87.937417 194.65076 87.968978 L 194.610591 89.604431 Q 194.610591 89.610169 194.601983 89.6073 L 194.521645 89.561393 Q 194.478607 89.53557 194.481476 89.486793 L 194.607721 86.511417 L 194.593375 85.570314 Q 194.579029 85.403899 194.659367 85.246093 Z" style="fill:#d25a4f;"/>
		<path fill-opacity="0.592" d="M 194.607721 86.511417 L 194.481476 89.486793 Q 194.478607 89.53557 194.521645 89.561393 L 194.601983 89.6073 Q 194.610591 89.610169 194.610591 89.604431 L 194.65076 87.968978 Q 194.653629 87.937417 194.696667 87.920202 L 194.699536 87.917332 Q 194.756921 87.894379 194.75979 87.974717 L 194.802828 89.888483 Q 194.65076 90.264351 194.693798 90.694733 Q 194.854474 92.301494 194.983589 93.911124 C 195.05245 94.760411 195.304941 95.581007 195.471355 96.427426 Q 194.946289 95.638391 194.68806 94.964126 Q 194.46713 94.384544 194.3581 94.992818 Q 194.188816 95.945397 194.203162 97.248021 C 194.231854 99.698331 195.626293 102.183072 197.327738 103.870171 Q 197.64909 104.188654 197.666305 104.139877 Q 197.674913 104.114054 197.399468 103.80131 Q 197.046555 103.39675 196.802671 102.977845 Q 196.745287 102.877422 196.822756 102.963499 Q 197.629005 103.884517 198.283187 104.86005 Q 198.369263 104.989165 198.463947 105.00638 Q 198.578716 105.029334 198.6734 104.977688 C 198.753738 104.93465 198.796776 104.845704 198.78243 104.753889 L 198.56437 103.525865 Q 199.032052 104.581736 199.746487 105.416678 Q 200.133831 105.870014 200.036277 106.54428 Q 199.318973 106.512718 198.687746 106.208581 Q 198.547154 106.14259 198.624623 106.274573 Q 199.161167 107.198461 199.981762 107.23863 Q 200.515436 107.267322 200.541259 106.710694 Q 200.544128 106.644702 200.601513 106.65331 L 200.604382 106.65331 Q 200.667505 106.661918 200.667505 106.69061 L 200.670374 107.41939 Q 200.670374 107.617366 200.828181 107.646058 Q 200.876957 107.654666 200.951557 107.74935 Q 201.029026 107.844034 200.985988 107.588674 Q 200.971642 107.49399 201.008941 107.410783 Q 201.080672 107.255845 201.175356 107.399306 Q 201.571308 107.996103 201.410632 108.765053 L 199.763702 108.087918 Q 199.634587 108.036272 199.591549 107.901419 Q 199.491126 107.591543 199.164036 107.448083 Q 199.032052 107.387829 198.934499 107.27593 C 198.320486 106.564364 197.838458 106.073728 197.066639 105.505624 Q 196.22309 104.883004 196.07676 104.670682 Q 192.561971 99.554871 191.841798 98.60516 Q 190.986771 97.477559 189.67554 97.933764 Q 188.011395 98.510476 187.558059 100.183229 Q 187.216622 101.451422 187.136284 103.870171 Q 187.107592 104.75102 187.529367 106.211451 Q 188.519246 109.61721 189.526341 112.297057 Q 189.689886 112.727439 189.592333 113.67715 C 189.291065 113.714449 189.107435 113.634111 188.83486 113.614027 Q 188.831991 113.614027 188.83486 113.611158 Q 189.081612 113.588204 189.319757 113.685757 Q 189.342711 113.694365 189.348449 113.668542 L 189.362795 113.588204 Q 189.365665 113.570989 189.348449 113.568119 L 188.691399 113.447612 Q 188.533592 113.421789 188.527854 113.261113 Q 188.479077 111.835113 187.893757 110.411982 Q 187.879411 110.374682 187.839242 110.386159 L 187.836373 110.386159 Q 187.830634 110.386159 187.84498 110.446413 L 188.461862 113.134868 Q 188.5049 113.327105 188.315532 113.275459 Q 187.566667 113.066007 186.981347 112.46921 Q 187.047339 110.42059 186.077544 108.624461 C 185.787753 108.087918 185.337286 107.416521 184.651544 107.643189 Q 184.163777 105.221571 184.160908 102.759784 Q 184.683105 101.709651 184.22403 100.358251 L 184.241246 99.801623 Q 184.246984 99.646685 184.338799 99.770062 Q 184.490867 99.970907 184.574075 100.21479 C 184.59129 100.266436 184.651544 100.297997 184.648674 100.254959 Q 184.648674 100.226267 184.631459 100.197575 Q 184.112131 99.285164 184.29863 98.289547 Q 184.909773 95.041595 185.409016 92.619977 Q 186.005813 89.730677 187.66422 85.960527 L 187.70152 86.356479 Q 187.718735 86.542978 187.865065 86.42534 L 189.093089 85.429722 Q 189.204989 85.337908 189.342711 85.378077 Q 189.916554 85.553099 191.233524 85.897405 Q 192.12585 86.13268 192.78577 87.056568 Q 192.871846 87.174205 193.009568 87.12256 L 194.607721 86.511417 Z" style="fill:#f5e5dc;"/>
		<path d="M 285.17451 89.415063 Q 285.21181 89.509747 285.246241 89.604431 L 284.282184 92.100649 Q 281.742929 98.630983 277.743242 104.398106 Q 271.505568 113.599681 261.821965 120.612044 C 252.689252 127.225585 242.035855 132.378697 230.911906 134.691284 L 226.895004 135.491795 Q 219.19116 136.298045 211.32951 135.727071 L 212.480065 133.824781 Q 212.554665 133.701405 212.698126 133.687059 Q 213.392476 133.618198 214.075349 133.618198 C 216.063715 133.618198 218.112335 133.457522 219.707619 133.334145 C 227.308171 132.748825 234.925938 130.777674 241.935432 127.908459 Q 256.163872 122.08682 267.65508 112.532333 Q 271.812574 109.077797 275.651584 104.590344 Q 276.317242 103.815656 277.089061 102.771261 C 277.688727 101.962142 278.385946 101.175977 278.954051 100.300867 Q 282.316772 95.104717 285.17451 89.415063 Z" style="fill:#b74a43;"/>
		<path fill-opacity="0.271" d="M 292.611517 94.424713 L 291.4294 98.100178 Q 290.009139 97.29106 288.749553 96.26388 Q 287.997819 95.652737 287.303468 95.489192 Q 286.319327 95.256786 284.709697 95.159232 Q 283.96944 95.116194 283.478804 94.321421 L 284.282184 92.100649 L 285.246241 89.604431 C 286.19882 90.37625 286.221774 91.087816 286.170128 92.324447 Q 286.16439 92.470777 286.307851 92.505208 Q 289.099597 93.176604 291.228555 94.998556 C 291.43227 95.173578 291.742145 95.13054 291.894213 94.909611 Q 292.120881 94.573912 292.611517 94.424713 Z" style="fill:#e2d3ab;"/>
		<path d="M 194.802828 89.888483 Q 194.983589 91.47516 195.164349 92.949936 Q 195.388148 94.76615 195.695154 95.979828 Q 197.778205 104.208738 204.302801 109.855354 Q 203.350221 110.756288 201.806583 110.182445 Q 200.0248 109.522525 198.280317 108.879821 Q 196.966217 108.397793 195.838615 106.816855 Q 195.815661 106.782425 195.850092 106.753732 Q 195.884522 106.72504 195.913215 106.76234 Q 197.014993 108.176863 198.702092 108.776529 C 201.046241 109.605733 202.087766 110.096369 203.921195 110.136538 Q 204.067525 110.139407 203.964233 110.036115 L 201.81806 107.889942 Q 201.703292 107.775173 201.726245 107.930111 L 201.815191 108.552731 Q 201.838145 108.710537 201.703292 108.793745 L 201.212656 109.106489 C 201.132318 109.158135 201.037634 109.169612 200.957296 109.138051 Q 200.90565 109.115097 200.865481 109.034759 Q 200.796619 108.905644 200.650289 108.876952 Q 200.53839 108.856867 200.458052 108.891298 C 200.452314 108.894167 200.449444 108.891298 200.446575 108.88556 C 200.443706 108.88269 200.446575 108.876952 200.449444 108.874083 Q 200.693328 108.727753 200.914257 108.942944 Q 201.017549 109.043366 201.152402 108.991721 Q 201.301601 108.934336 201.410632 108.765053 Q 201.571308 107.996103 201.175356 107.399306 Q 201.080672 107.255845 201.008941 107.410783 Q 200.971642 107.49399 200.985988 107.588674 Q 201.029026 107.844034 200.951557 107.74935 Q 200.876957 107.654666 200.828181 107.646058 Q 200.670374 107.617366 200.670374 107.41939 L 200.667505 106.69061 Q 200.667505 106.661918 200.604382 106.65331 L 200.601513 106.65331 Q 200.544128 106.644702 200.541259 106.710694 Q 200.515436 107.267322 199.981762 107.23863 Q 199.161167 107.198461 198.624623 106.274573 Q 198.547154 106.14259 198.687746 106.208581 Q 199.318973 106.512718 200.036277 106.54428 L 199.993239 106.656179 Q 199.938724 106.805378 199.780917 106.805378 L 199.362012 106.805378 Q 199.100913 106.805378 199.339058 106.911539 Q 199.932986 107.178376 200.331807 106.882847 Q 200.449444 106.796771 200.455183 106.650441 Q 200.460921 106.452465 200.331807 106.237274 Q 200.239992 106.088074 200.17113 106.245881 L 200.036277 106.54428 Q 200.133831 105.870014 199.746487 105.416678 Q 199.032052 104.581736 198.56437 103.525865 L 198.19711 102.926199 Q 198.136857 102.581893 197.90445 102.467124 L 196.888748 100.427112 Q 196.888748 100.295128 196.837102 100.171752 L 195.471355 96.427426 C 195.304941 95.581007 195.05245 94.760411 194.983589 93.911124 Q 194.854474 92.301494 194.693798 90.694733 Q 194.65076 90.264351 194.802828 89.888483 Z" style="fill:#e3947f;"/>
		<path fill-opacity="0.898" d="M 284.282184 92.100649 L 283.478804 94.321421 L 281.771621 98.097309 Q 281.714236 98.226424 281.851959 98.249378 Q 282.486055 98.358408 282.94513 98.077225 Q 285.421263 96.565148 287.702289 98.326846 C 288.21014 98.719929 289.469726 100.108629 289.266012 100.880448 Q 289.225843 101.041124 289.386519 101.069816 L 290.118169 101.2018 Q 290.264499 101.227623 290.287453 101.078424 Q 290.336229 100.782895 290.528467 100.613611 L 288.167102 106.065121 Q 286.279158 106.638964 284.612144 105.715076 C 283.797287 105.26461 282.890615 104.188654 281.912212 103.867302 C 280.666973 103.457004 279.002828 104.09397 277.743242 104.398106 Q 281.742929 98.630983 284.282184 92.100649 Z M 289.911585 101.649398 C 289.911585 101.629313 289.89437 101.612098 289.874285 101.612098 C 289.854201 101.612098 289.836986 101.629313 289.836986 101.649398 C 289.836986 101.669482 289.854201 101.686698 289.874285 101.686698 C 289.89437 101.686698 289.911585 101.669482 289.911585 101.649398 Z" style="fill:#f3ebe0;"/>
		<path fill-opacity="0.592" d="M 283.478804 94.321421 Q 283.96944 95.116194 284.709697 95.159232 Q 286.319327 95.256786 287.303468 95.489192 Q 287.997819 95.652737 288.749553 96.26388 Q 290.009139 97.29106 291.4294 98.100178 L 290.528467 100.613611 Q 290.336229 100.782895 290.287453 101.078424 Q 290.264499 101.227623 290.118169 101.2018 L 289.386519 101.069816 Q 289.225843 101.041124 289.266012 100.880448 C 289.469726 100.108629 288.21014 98.719929 287.702289 98.326846 Q 285.421263 96.565148 282.94513 98.077225 Q 282.486055 98.358408 281.851959 98.249378 Q 281.714236 98.226424 281.771621 98.097309 L 283.478804 94.321421 Z" style="fill:#f5e5dc;"/>
		<path fill-opacity="0.271" d="M 195.471355 96.427426 L 196.837102 100.171752 Q 196.839971 100.352513 196.888748 100.427112 L 197.90445 102.467124 Q 197.956096 102.716746 198.19711 102.926199 L 198.56437 103.525865 L 198.78243 104.753889 C 198.796776 104.845704 198.753738 104.93465 198.6734 104.977688 Q 198.578716 105.029334 198.463947 105.00638 Q 198.369263 104.989165 198.283187 104.86005 Q 197.629005 103.884517 196.822756 102.963499 Q 196.745287 102.877422 196.802671 102.977845 Q 197.046555 103.39675 197.399468 103.80131 Q 197.674913 104.114054 197.666305 104.139877 Q 197.64909 104.188654 197.327738 103.870171 C 195.626293 102.183072 194.231854 99.698331 194.203162 97.248021 Q 194.188816 95.945397 194.3581 94.992818 Q 194.46713 94.384544 194.68806 94.964126 Q 194.946289 95.638391 195.471355 96.427426 Z" style="fill:#e2d3ab;"/>
		<path fill-opacity="0.898" d="M 201.410632 108.765053 Q 201.301601 108.934336 201.152402 108.991721 Q 201.017549 109.043366 200.914257 108.942944 Q 200.693328 108.727753 200.449444 108.874083 C 200.446575 108.876952 200.443706 108.88269 200.446575 108.88556 C 200.449444 108.891298 200.452314 108.894167 200.458052 108.891298 Q 200.53839 108.856867 200.650289 108.876952 Q 200.796619 108.905644 200.865481 109.034759 Q 200.90565 109.115097 200.957296 109.138051 C 201.037634 109.169612 201.132318 109.158135 201.212656 109.106489 L 201.703292 108.793745 Q 201.838145 108.710537 201.815191 108.552731 L 201.726245 107.930111 Q 201.703292 107.775173 201.81806 107.889942 L 203.964233 110.036115 Q 204.067525 110.139407 203.921195 110.136538 C 202.087766 110.096369 201.046241 109.605733 198.702092 108.776529 Q 197.014993 108.176863 195.913215 106.76234 Q 195.884522 106.72504 195.850092 106.753732 Q 195.815661 106.782425 195.838615 106.816855 Q 196.966217 108.397793 198.280317 108.879821 Q 200.0248 109.522525 201.806583 110.182445 Q 203.350221 110.756288 204.302801 109.855354 L 206.440366 111.548192 C 206.110407 112.991407 204.19664 113.146345 203.091992 112.971323 C 201.565569 112.730308 200.179738 112.259757 198.805384 112.495033 C 197.915927 112.647101 197.313392 113.295544 196.598957 113.697234 C 195.634901 114.242385 194.865951 114.185001 193.712526 113.998502 Q 192.269311 113.766095 190.820357 113.74888 L 189.592333 113.67715 Q 189.689886 112.727439 189.526341 112.297057 Q 188.519246 109.61721 187.529367 106.211451 Q 187.107592 104.75102 187.136284 103.870171 Q 187.216622 101.451422 187.558059 100.183229 Q 188.011395 98.510476 189.67554 97.933764 Q 190.986771 97.477559 191.841798 98.60516 Q 192.561971 99.554871 196.07676 104.670682 Q 196.22309 104.883004 197.066639 105.505624 C 197.838458 106.073728 198.320486 106.564364 198.934499 107.27593 Q 199.032052 107.387829 199.164036 107.448083 Q 199.491126 107.591543 199.591549 107.901419 Q 199.634587 108.036272 199.763702 108.087918 L 201.410632 108.765053 Z" style="fill:#f3ebe0;"/>
		<path fill-opacity="0.592" d="M 196.888748 100.427112 Q 196.839971 100.352513 196.837102 100.171752 Q 196.888748 100.295128 196.888748 100.427112 Z" style="fill:#f5e5dc;"/>
		<path fill-opacity="0.898" d="M 184.22403 100.358251 Q 184.683105 101.709651 184.160908 102.759784 L 184.22403 100.358251 Z" style="fill:#f3ebe0;"/>
		<path fill-opacity="0.592" d="M 198.19711 102.926199 Q 197.956096 102.716746 197.90445 102.467124 Q 198.136857 102.581893 198.19711 102.926199 Z" style="fill:#f5e5dc;"/>
		<path fill-opacity="0.992" d="M 288.167102 106.065121 C 282.695508 116.672611 274.89698 124.869959 264.412867 130.728898 Q 263.930838 130.995735 261.626858 132.582411 C 259.658577 133.93955 257.607087 135.899224 256.103618 137.12151 Q 251.89161 140.550222 247.111497 140.673599 C 241.43045 140.822798 235.43379 138.185989 230.911906 134.691284 C 242.035855 132.378697 252.689252 127.225585 261.821965 120.612044 Q 271.505568 113.599681 277.743242 104.398106 C 279.002828 104.09397 280.666973 103.457004 281.912212 103.867302 C 282.890615 104.188654 283.797287 105.26461 284.612144 105.715076 Q 286.279158 106.638964 288.167102 106.065121 Z" style="fill:#f4eee2;"/>
		<path fill-opacity="0.592" d="M 200.036277 106.54428 L 200.17113 106.245881 Q 200.239992 106.088074 200.331807 106.237274 Q 200.460921 106.452465 200.455183 106.650441 Q 200.449444 106.796771 200.331807 106.882847 Q 199.932986 107.178376 199.339058 106.911539 Q 199.100913 106.805378 199.362012 106.805378 L 199.780917 106.805378 Q 199.938724 106.805378 199.993239 106.656179 L 200.036277 106.54428 Z" style="fill:#f5e5dc;"/>
		<path fill-opacity="0.271" d="M 186.981347 112.46921 Q 185.188087 110.325906 184.651544 107.643189 C 185.337286 107.416521 185.787753 108.087918 186.077544 108.624461 Q 187.047339 110.42059 186.981347 112.46921 Z" style="fill:#e2d3ab;"/>
		<path fill-opacity="0.592" d="M 255.656021 34.406462 L 256.703284 34.59583 Q 256.875437 34.627392 256.815184 34.788068 Q 256.511047 35.58571 255.945812 35.775078 C 255.610113 35.886977 255.265807 35.625879 255.280154 35.272965 Q 255.29163 34.88849 255.489606 34.492539 Q 255.541252 34.386378 255.656021 34.406462 Z" style="fill:#f5e5dc;"/>
		<path fill-opacity="0.271" d="M 222.000122 41.777477 Q 222.028815 41.7287 222.014468 41.829123 C 222.014468 41.8406 222.000122 41.843469 221.991515 41.834861 Q 221.977169 41.814777 222.000122 41.777477 Z" style="fill:#e2d3ab;"/>
		<path d="M 237.089327 61.787386 Q 237.140973 61.813209 237.112281 61.861986 L 237.066373 61.942324 Q 237.034812 61.996839 236.977428 61.973885 Q 235.43379 61.402911 234.489818 60.09168 Q 234.475472 60.071595 234.489818 60.048642 L 234.535725 59.968304 Q 234.593109 59.87075 234.667709 59.953958 Q 235.68915 61.104513 237.089327 61.787386 Z" style="fill:#e3947f;"/>
		<path fill-opacity="0.898" d="M 246.833183 63.962252 Q 244.664056 64.9177 243.44177 64.92057 Q 241.662857 64.923439 239.852382 65.092723 L 238.274313 63.85896 Q 237.482409 63.242079 238.420643 63.597861 C 239.069086 63.841745 239.970019 64.07702 240.776269 64.054067 Q 243.619662 63.96799 244.239412 63.853221 Q 245.803135 63.557692 247.369726 63.285117 Q 247.524664 63.259294 247.441457 63.391278 Q 247.272173 63.669592 246.833183 63.962252 Z" style="fill:#f3ebe0;"/>
		<path d="M 246.833183 63.962252 Q 245.123131 65.792811 243.269617 66.567499 C 242.285476 66.977797 240.879561 65.904711 239.852382 65.092723 Q 241.662857 64.923439 243.44177 64.92057 Q 244.664056 64.9177 246.833183 63.962252 Z" style="fill:#e3947f;"/>
		<path fill-opacity="0.271" d="M 252.674906 79.134664 Q 252.164185 79.765891 251.446882 80.138889 C 251.389497 80.167581 251.323505 80.127412 251.323505 80.064289 L 251.323505 79.958128 Q 251.323505 79.912221 251.363674 79.886398 Q 251.994902 79.499054 252.634737 78.936688 Q 252.786805 78.801835 252.864274 78.78175 Q 253.214318 78.701412 252.961827 78.956772 Q 252.930266 78.991203 252.855666 79.014156 Q 252.746636 79.045718 252.674906 79.134664 Z" style="fill:#e2d3ab;"/>
		<path fill-opacity="0.592" d="M 289.911585 101.649398 C 289.911585 101.669482 289.89437 101.686698 289.874285 101.686698 C 289.854201 101.686698 289.836986 101.669482 289.836986 101.649398 C 289.836986 101.629313 289.854201 101.612098 289.874285 101.612098 C 289.89437 101.612098 289.911585 101.629313 289.911585 101.649398 Z" style="fill:#f5e5dc;"/>
	</g>
	<g id="surface4">
	</g>
</svg>
