<?xml version="1.0" encoding="utf-8"?>
<svg xmlns="http://www.w3.org/2000/svg" width="490pt" height="280pt" viewBox="0 0 490 280" version="1.1" xmlns:xlink="http://www.w3.org/1999/xlink">
	<g id="surface2">
		<path vector-effect="non-scaling-stroke" d="M 166.688208 29.497138 Q 166.903872 32.348947 167.585278 34.89791 Q 170.345316 45.222242 174.899494 55.223078" style="fill:none;stroke-width:0.50;stroke:#7f573f;"/>
		<path vector-effect="non-scaling-stroke" d="M 174.899494 55.223078 Q 176.496324 58.859537 178.460241 62.365222" style="fill:none;stroke-width:0.50;stroke:#7e493d;"/>
		<path vector-effect="non-scaling-stroke" d="M 178.460241 62.365222 Q 181.351054 67.529682 185.352306 71.909493 C 188.332597 75.171982 191.489548 77.548872 196.11026 77.406626 C 197.961757 77.349269 200.467128 76.915647 202.552643 76.456787 Q 215.588833 73.588918 227.030487 66.742738 Q 227.76925 66.302234 228.487365 65.859434" style="fill:none;stroke-width:0.50;stroke:#7d373d;"/>
		<path vector-effect="non-scaling-stroke" d="M 228.487365 65.859434 C 231.394238 64.049235 233.383392 62.408813 235.996595 60.263647 Q 236.042481 60.224644 236.005772 60.178758 C 235.021519 58.962781 234.356174 57.565554 234.12445 56.007728 Q 234.032678 55.383679 233.938612 54.725216" style="fill:none;stroke-width:0.50;stroke:#612b3f;"/>
		<path vector-effect="non-scaling-stroke" d="M 233.938612 54.725216 L 234.044149 53.952038 C 234.053327 53.890092 234.009735 53.832735 233.945495 53.823558 Q 231.926514 53.543654 231.286406 53.502356 Q 226.456913 53.197215 220.950602 53.830441 Q 218.181387 54.147053 216.222058 54.686213 C 214.517396 55.156544 212.154272 55.893013 210.376192 56.16374 Q 205.551288 56.900209 200.937459 55.225373 C 197.10369 53.832735 193.969682 52.625935 190.046436 53.256867 C 186.008475 53.906152 182.344484 55.243727 178.623136 56.884149 Q 178.591016 56.897914 178.556601 56.858911 L 178.554307 56.856617 Q 178.522187 56.819908 178.57725 56.792377 L 180.15802 55.980196" style="fill:none;stroke-width:0.50;stroke:#7e493d;"/>
		<path vector-effect="non-scaling-stroke" d="M 180.15802 55.980196 Q 183.828894 54.220471 187.430938 53.238512 C 189.569222 52.658055 192.386617 52.300145 194.708445 52.72459 Q 196.316746 53.020554 196.885732 53.259161 Q 200.0358 54.578381 201.017759 54.917937 Q 205.994087 56.640953 211.041538 55.381385 Q 212.234572 55.083126 216.061458 53.828146 C 220.65005 52.325382 225.697501 52.144133 230.536171 52.389623" style="fill:none;stroke-width:0.50;stroke:#7f573f;"/>
		<path vector-effect="non-scaling-stroke" d="M 230.536171 52.389623 Q 230.731186 52.557106 231.261168 52.552518 C 231.341469 52.550223 231.375883 52.449274 231.313937 52.3988 C 230.99503 52.139545 230.797721 51.705923 230.492579 51.396193 Q 227.347099 48.214004 223.251781 47.087505 Q 222.079396 46.764009 220.700524 46.881018" style="fill:none;stroke-width:0.50;stroke:#612b3f;"/>
		<path vector-effect="non-scaling-stroke" d="M 220.700524 46.881018 Q 218.305279 46.495576 217.231549 46.484105 Q 210.729514 46.408393 203.658494 47.431649 C 201.072822 47.805619 198.271487 47.817091 195.853299 46.605703 C 194.981466 46.167492 194.082102 45.453966 193.116204 44.7565 C 188.720333 41.5789 182.996064 40.319332 177.597586 40.709362 Q 176.438966 40.791957 174.403926 41.048918 Q 174.348863 41.055801 174.367217 41.005326 L 174.385571 40.947969 Q 174.385571 40.945674 174.39016 40.945674 C 181.050501 39.429145 188.20641 39.920124 193.91003 43.978734 C 195.708758 45.258951 197.211522 46.468045 199.519584 46.628646 Q 201.442204 46.761715 202.674241 46.534579 Q 207.687277 45.612272 209.256576 45.458555 C 213.427606 45.054759 215.61407 44.972164 217.16272 44.561485 C 217.360029 44.508716 217.405915 44.249461 217.238431 44.134746 L 214.884484 42.519561 C 214.730766 42.414024 214.691763 42.200654 214.797301 42.046937 L 215.157505 41.519248 C 215.237805 41.404534 215.194214 41.246227 215.068027 41.186576 Q 212.085443 39.793938 209.304756 38.031919 Q 203.777797 34.528529 198.879475 30.148718" style="fill:none;stroke-width:0.50;stroke:#7f573f;"/>
		<path vector-effect="non-scaling-stroke" d="M 198.879475 30.148718 Q 195.890007 27.37262 193.804492 23.86923 Q 193.760901 23.798106 193.841201 23.821049 L 193.919207 23.843992 Q 193.94215 23.850875 193.953622 23.86923 Q 195.639929 26.124522 196.151557 26.716451 Q 198.108592 28.976332 201.410084 31.493175 Q 205.404453 34.535412 209.89439 36.815942 Q 217.165014 40.512053 225.523134 43.214733 C 225.573609 43.230793 225.614906 43.173436 225.582786 43.129844 Q 224.222268 41.31735 222.698856 39.770995 C 217.970312 34.969033 212.229983 30.637403 206.430003 26.757748 C 200.418948 22.738142 193.868733 19.551365 186.857364 17.812288 Q 183.285145 16.92669 179.433022 16.979459 C 176.728047 17.016167 174.130904 17.491087 171.822843 18.895196 Q 166.252292 22.28846 166.688208 29.497138" style="fill:none;stroke-width:0.50;stroke:#7f673d;"/>
		<path vector-effect="non-scaling-stroke" d="M 198.879475 30.148718 Q 199.643476 31.523001 200.905338 32.50496 Q 200.99711 32.576083 200.886984 32.610497 Q 197.991583 33.509861 194.983761 33.720936" style="fill:none;stroke-width:0.50;stroke:#f99e3c;"/>
		<path vector-effect="non-scaling-stroke" d="M 194.983761 33.720936 Q 193.373165 32.17917 190.909091 31.252274 Q 186.575166 29.623324 182.413313 29.290651 Q 176.452732 28.815732 170.804175 30.458448" style="fill:none;stroke-width:0.50;stroke:#7f673d;"/>
		<path vector-effect="non-scaling-stroke" d="M 170.804175 30.458448 L 166.688208 29.497138" style="fill:none;stroke-width:0.50;stroke:#f99e3c;"/>
		<path vector-effect="non-scaling-stroke" d="M 194.983761 33.720936 Q 196.163029 35.07916 196.475053 36.845768 Q 196.486524 36.912302 196.447521 36.967365 L 196.374104 37.075197 C 196.360338 37.095846 196.328218 37.088963 196.321335 37.06602 C 195.655989 34.835964 193.451171 33.096888 191.345007 32.257176 Q 181.42906 28.299515 170.804175 30.458448" style="fill:none;stroke-width:0.50;stroke:#7f573f;"/>
		<path vector-effect="non-scaling-stroke" d="M 220.700524 46.881018 Q 224.403518 48.028166 227.824313 50.437177 Q 229.850176 51.861935 230.536171 52.389623" style="fill:none;stroke-width:0.50;stroke:#dc613e;"/>
		<path vector-effect="non-scaling-stroke" d="M 180.15802 55.980196 L 174.899494 55.223078" style="fill:none;stroke-width:0.50;stroke:#f9803d;"/>
		<path vector-effect="non-scaling-stroke" d="M 233.938612 54.725216 Q 233.642648 55.711763 233.225086 56.480352 C 231.637433 59.410168 229.306428 61.346554 226.346786 62.964033" style="fill:none;stroke-width:0.50;stroke:#db543d;"/>
		<path vector-effect="non-scaling-stroke" d="M 226.346786 62.964033 C 223.407793 64.446148 220.526158 65.366161 217.229254 66.389417 Q 214.35909 67.279604 209.396528 67.935772 C 208.806894 68.013778 207.937356 68.100962 207.155001 67.970187 Q 201.233423 66.983639 195.24531 66.233405" style="fill:none;stroke-width:0.50;stroke:#f7603b;"/>
		<path vector-effect="non-scaling-stroke" d="M 195.24531 66.233405 Q 198.230189 64.081355 201.618864 62.730015 C 202.527406 62.367516 203.669965 62.158735 204.677161 62.037137 Q 211.773418 61.181365 218.764138 59.554709 Q 219.335418 59.42164 220.996488 58.928366 Q 221.04008 58.914601 221.026314 58.871009 L 221.026314 58.868715 Q 221.014843 58.825123 220.97584 58.836594 Q 216.417073 60.070926 211.732121 60.688091 Q 210.862583 60.802806 205.234675 61.45668 Q 201.410084 61.901774 197.750681 64.216718" style="fill:none;stroke-width:0.50;stroke:#7e493d;"/>
		<path vector-effect="non-scaling-stroke" d="M 197.750681 64.216718 C 191.595085 61.888008 184.937038 61.142362 178.460241 62.365222" style="fill:none;stroke-width:0.50;stroke:#f7603b;"/>
		<path vector-effect="non-scaling-stroke" d="M 228.487365 65.859434 Q 227.544409 64.299313 226.346786 62.964033" style="fill:none;stroke-width:0.50;stroke:#da423d;"/>
		<path vector-effect="non-scaling-stroke" d="M 195.24531 66.233405 C 193.113909 67.655868 191.147698 69.849215 190.996274 72.53813 Q 190.99398 72.584016 190.954977 72.574839 L 190.952683 72.574839 Q 190.913679 72.567956 190.913679 72.542719 C 191.005451 70.202537 192.102125 68.587352 193.754018 67.084588 Q 195.58716 65.416635 197.750681 64.216718" style="fill:none;stroke-width:0.50;stroke:#7d373d;"/>
		<path vector-effect="non-scaling-stroke" d="M 275.242822 42.274072 L 272.707625 44.123274 Q 272.248766 44.460536 272.799397 44.605077 Q 273.577163 44.806975 274.666954 44.905629 Q 278.454837 45.249774 279.806177 45.403492 C 282.263368 45.68569 284.417712 46.178964 286.737245 46.527697 C 289.139373 46.887901 291.789285 46.793835 293.773851 45.39202 C 295.698765 44.033797 297.589265 42.650336 299.672486 41.826684 C 304.660285 39.85359 310.054175 39.741169 315.266815 40.938792 Q 315.294347 40.94338 315.289758 40.973206 L 315.278287 41.042035 Q 315.271404 41.094804 315.216341 41.087921 Q 313.167535 40.801134 312.612315 40.750659 C 306.938521 40.236737 301.244078 41.491717 296.584363 44.802386 Q 294.377251 46.371684 294.214356 46.461162 C 292.053129 47.658784 289.511049 47.807914 286.982735 47.537187 Q 284.968343 47.323817 281.820569 46.92461 Q 278.65444 46.523108 274.646305 46.479516 Q 272.108814 46.451985 268.931214 46.922315" style="fill:none;stroke-width:0.50;stroke:#7f573f;"/>
		<path vector-effect="non-scaling-stroke" d="M 268.931214 46.922315 Q 264.661529 46.970496 261.002127 49.794774 Q 259.42824 51.010751 258.544936 52.235905" style="fill:none;stroke-width:0.50;stroke:#612b3f;"/>
		<path vector-effect="non-scaling-stroke" d="M 258.544936 52.235905 L 258.349921 52.465335 Q 258.2375 52.598404 258.411867 52.589227 C 258.746834 52.573166 258.957909 52.46304 259.327291 52.442392 C 264.581229 52.132662 269.477256 52.373563 274.086497 53.887798 Q 276.903892 54.812399 278.60626 55.303379 C 282.116533 56.310575 285.66122 55.980196 289.072838 54.736688 C 290.837152 54.094285 292.427099 53.366993 293.867917 53.013671 Q 297.492904 52.125779 301.253256 52.967785" style="fill:none;stroke-width:0.50;stroke:#7f573f;"/>
		<path vector-effect="non-scaling-stroke" d="M 301.253256 52.967785 Q 306.163049 54.195234 310.662163 56.560653 Q 310.887004 56.677662 311.095785 56.810731 Q 311.155437 56.849734 311.11414 56.884149 L 311.111845 56.886443 Q 311.079725 56.913974 311.043016 56.897914 Q 308.250858 55.59246 305.39446 54.596735 Q 303.198819 53.832735 300.321771 53.321107 Q 298.35556 52.97008 296.811499 53.116915 Q 294.508025 53.334873 293.314992 53.708843 Q 291.367134 54.32142 288.340958 55.36303 Q 283.286624 57.102107 278.282764 55.890718 Q 276.938307 55.564928 274.359518 54.835342 C 270.755179 53.816675 266.724101 53.454176 262.777912 53.364699 Q 259.370883 53.288987 255.89273 53.846501 C 255.784898 53.862561 255.709186 53.958921 255.716069 54.066753 L 255.803252 55.326322" style="fill:none;stroke-width:0.50;stroke:#7e493d;"/>
		<path vector-effect="non-scaling-stroke" d="M 255.803252 55.326322 Q 255.413222 58.173543 253.713149 60.160403 C 253.658086 60.222349 253.667263 60.31871 253.731503 60.371478 L 256.957283 63.007625" style="fill:none;stroke-width:0.50;stroke:#612b3f;"/>
		<path vector-effect="non-scaling-stroke" d="M 256.957283 63.007625 Q 258.074605 63.8221 259.19881 64.592983 Q 264.622526 68.305154 270.596873 70.939006 Q 277.768842 74.105134 283.745483 75.68361 Q 288.531384 76.947767 292.677177 77.34468 Q 298.284437 77.879251 302.352223 73.926179 Q 305.896911 70.484735 308.590414 66.373357" style="fill:none;stroke-width:0.50;stroke:#7d373d;"/>
		<path vector-effect="non-scaling-stroke" d="M 308.590414 66.373357 C 311.646416 61.832945 314.032484 56.767139 316.124882 51.738043" style="fill:none;stroke-width:0.50;stroke:#7e493d;"/>
		<path vector-effect="non-scaling-stroke" d="M 316.124882 51.738043 Q 319.804933 43.230793 322.103817 34.60424 Q 322.603974 32.729801 322.865524 30.488273" style="fill:none;stroke-width:0.50;stroke:#7f573f;"/>
		<path vector-effect="non-scaling-stroke" d="M 322.865524 30.488273 C 323.95302 23.380545 319.635155 17.949946 312.536603 17.123999 C 307.798882 16.573368 303.164404 17.520913 298.552869 19.092505 C 291.945297 21.34321 285.663514 24.890191 280.060844 28.8685 Q 272.826928 34.003135 268.451706 38.307234 Q 266.031224 40.691008 264.372448 43.015129 Q 264.225613 43.221616 264.466514 43.145904 C 268.727022 41.783092 272.436898 40.289506 276.789178 38.325588 Q 284.791682 34.712072 290.584779 29.696741 Q 292.385802 28.13662 293.771556 26.576499 Q 294.235004 26.055694 295.939666 23.763692 Q 295.967198 23.726983 296.006201 23.754515 L 296.061264 23.791223 Q 296.063558 23.793518 296.063558 23.795812 Q 293.583424 28.051731 289.584466 31.39452 Q 284.12863 35.950992 279.1936 38.883102 C 277.658716 39.796232 276.43815 40.388161 274.855086 41.142984 C 274.738077 41.200341 274.71284 41.356353 274.806906 41.445831 Q 275.112047 41.739501 275.242822 42.274072" style="fill:none;stroke-width:0.50;stroke:#7f673d;"/>
		<path vector-effect="non-scaling-stroke" d="M 322.865524 30.488273 L 321.743613 33.62687 Q 321.706904 33.732408 321.596778 33.750762 Q 315.337939 34.858907 311.976795 35.7468 Q 306.229584 37.267918 304.646519 37.639594 Q 299.291633 38.894574 292.195375 39.509445 Q 285.734638 40.069253 278.498428 40.218383 Q 277.798668 40.232148 277.264097 40.454695 Q 276.598751 40.730011 276.12842 41.032858 Q 275.490606 41.445831 275.242822 42.274072" style="fill:none;stroke-width:0.50;stroke:#f99e3c;"/>
		<path vector-effect="non-scaling-stroke" d="M 316.124882 51.738043 Q 314.07837 49.714474 311.173791 49.962258 Q 308.634006 50.175627 305.933619 51.166763 Q 302.799611 52.316205 301.253256 52.967785" style="fill:none;stroke-width:0.50;stroke:#f9803d;"/>
		<path vector-effect="non-scaling-stroke" d="M 258.544936 52.235905 Q 258.900552 52.403389 259.33188 52.134956 Q 260.79564 51.212649 262.220398 50.207747 Q 265.239692 48.080935 268.931214 46.922315" style="fill:none;stroke-width:0.50;stroke:#dc613e;"/>
		<path vector-effect="non-scaling-stroke" d="M 308.590414 66.373357 Q 302.618362 66.467423 296.800027 67.665045" style="fill:none;stroke-width:0.50;stroke:#f7603b;"/>
		<path vector-effect="non-scaling-stroke" d="M 296.800027 67.665045 C 294.586031 65.717188 291.924648 64.01482 289.325211 62.819492 Q 287.420945 61.945365 285.603863 61.651696 Q 283.178792 61.26396 278.743918 60.818866 Q 273.198604 60.261352 267.600522 58.673699 Q 267.582168 58.666817 267.577579 58.685171 L 267.568402 58.749411 Q 267.556931 58.806769 267.614288 58.825123 Q 269.573617 59.426229 270.805654 59.687778 Q 277.667893 61.142362 285.158769 62.030254 C 288.061054 62.376693 290.490713 63.604141 293.032793 65.228503" style="fill:none;stroke-width:0.50;stroke:#7e493d;"/>
		<path vector-effect="non-scaling-stroke" d="M 293.032793 65.228503 Q 285.663514 66.701441 278.156578 67.628337 Q 277.328337 67.73158 276.539099 67.584745 Q 269.541497 66.290762 263.525853 63.145282 Q 261.722536 62.202327 259.570486 60.568788" style="fill:none;stroke-width:0.50;stroke:#f7603b;"/>
		<path vector-effect="non-scaling-stroke" d="M 259.570486 60.568788 Q 257.143121 58.531453 255.803252 55.326322" style="fill:none;stroke-width:0.50;stroke:#db543d;"/>
		<path vector-effect="non-scaling-stroke" d="M 296.800027 67.665045 C 298.183488 68.993443 299.26869 70.415906 299.498119 72.359175 Q 299.505002 72.402767 299.465999 72.402767 L 299.463705 72.402767 Q 299.424702 72.402767 299.417819 72.370646 Q 299.080557 70.464086 297.885229 69.09898 Q 295.907546 66.845982 293.032793 65.228503" style="fill:none;stroke-width:0.50;stroke:#7d373d;"/>
		<path vector-effect="non-scaling-stroke" d="M 259.570486 60.568788 L 256.957283 63.007625" style="fill:none;stroke-width:0.50;stroke:#da423d;"/>
		<path vector-effect="non-scaling-stroke" d="M 193.125381 110.02922 C 193.641597 114.411326 195.557335 118.807197 198.640868 122.016917" style="fill:none;stroke-width:0.50;stroke:#7f673d;"/>
		<path vector-effect="non-scaling-stroke" d="M 198.640868 122.016917 Q 203.029856 126.486205 209.293284 127.729714" style="fill:none;stroke-width:0.50;stroke:#7f573f;"/>
		<path vector-effect="non-scaling-stroke" d="M 209.293284 127.729714 Q 213.838285 127.998146 218.137795 126.399022 Q 219.592379 125.857568 220.773942 124.962793 C 221.944032 124.077195 222.866339 122.709794 223.623457 121.445637 Q 225.855807 117.719701 227.47558 113.076045 C 230.747246 103.692375 232.59186 93.271683 233.314563 83.275435 Q 233.32374 83.149249 233.842251 74.846192 Q 233.904197 73.818347 233.860606 73.393902" style="fill:none;stroke-width:0.50;stroke:#612b3f;"/>
		<path vector-effect="non-scaling-stroke" d="M 233.860606 73.393902 L 234.282756 69.906572" style="fill:none;stroke-width:0.50;stroke:#7d373d;"/>
		<path vector-effect="non-scaling-stroke" d="M 234.282756 69.906572 Q 234.390588 68.75713 234.622312 67.575568 Q 234.828799 66.513309 235.280775 65.609356 Q 235.416138 65.340924 235.18212 65.53135 Q 230.072723 69.700086 224.453992 72.779031 Q 223.410088 73.350311 218.332811 75.926805 C 216.784161 76.711454 215.045084 77.645233 213.868111 78.533125 Q 208.214965 82.789044 203.018385 87.843378 C 200.375356 90.41299 198.133829 92.688931 196.378692 95.354903 Q 192.072299 101.893647 193.125381 110.02922" style="fill:none;stroke-width:0.50;stroke:#7f7539;"/>
		<path vector-effect="non-scaling-stroke" d="M 234.282756 69.906572 Q 234.039561 70.163534 233.477458 70.959654 Q 232.47944 72.372941 228.296938 76.851406" style="fill:none;stroke-width:0.50;stroke:#f88c37;"/>
		<path vector-effect="non-scaling-stroke" d="M 228.296938 76.851406 Q 226.296312 78.955276 224.387458 81.144034 C 221.77196 84.13809 219.392775 87.671306 217.417387 91.06457" style="fill:none;stroke-width:0.50;stroke:#dc7f39;"/>
		<path vector-effect="non-scaling-stroke" d="M 217.417387 91.06457 Q 213.49414 93.429989 210.828168 94.526663 Q 204.54868 97.112334 202.990853 97.791446 Q 197.840159 100.037561 193.467231 104.015871 Q 193.382342 104.093877 193.37087 104.208592 Q 193.06114 107.08105 193.125381 110.02922" style="fill:none;stroke-width:0.50;stroke:#fabc37;"/>
		<path vector-effect="non-scaling-stroke" d="M 233.860606 73.393902 C 232.816701 75.690493 231.818682 77.652116 230.334273 79.118171 Q 227.925262 81.497356 226.603748 82.947351 C 226.57851 82.974882 226.53033 82.967999 226.51427 82.933585 C 226.138006 82.112227 226.298606 81.215157 226.193069 80.526869 Q 226.170126 80.386916 225.97511 80.113895 Q 225.906282 80.019829 225.949873 79.914292 Q 226.087531 79.574736 226.349081 79.281066 Q 227.957382 77.500692 228.342824 77.037244 Q 228.363473 77.014301 228.37265 76.984476 Q 228.381827 76.956944 228.391004 76.911058 Q 228.400181 76.867466 228.354295 76.860584 L 228.296938 76.851406" style="fill:none;stroke-width:0.50;stroke:#da423d;"/>
		<path vector-effect="non-scaling-stroke" d="M 208.263146 117.6394 C 204.56474 118.153322 201.531681 119.642321 198.640868 122.016917" style="fill:none;stroke-width:0.50;stroke:#f99e3c;"/>
		<path vector-effect="non-scaling-stroke" d="M 209.293284 127.729714 Q 209.389645 127.539287 209.233633 127.15614 Q 209.079915 126.770698 209.040912 126.623863 Q 208.327386 123.840882 208.240203 120.961541 Q 208.21726 120.142477 208.263146 117.6394" style="fill:none;stroke-width:0.50;stroke:#dc613e;"/>
		<path vector-effect="non-scaling-stroke" d="M 208.263146 117.6394 Q 209.045501 109.912211 211.86519 102.682885 Q 214.203078 96.685595 217.417387 91.06457" style="fill:none;stroke-width:0.50;stroke:#dc723c;"/>
		<path vector-effect="non-scaling-stroke" d="M 255.479757 70.156651 L 255.649535 72.684965" style="fill:none;stroke-width:0.50;stroke:#7d373d;"/>
		<path vector-effect="non-scaling-stroke" d="M 255.649535 72.684965 Q 255.833078 77.642939 256.1864 82.472432 C 256.980226 93.381809 258.673417 104.254477 262.459005 114.574221 Q 264.030598 118.857671 266.389134 122.519368 Q 267.880426 124.832018 269.899407 125.839214 Q 274.611891 128.193162 280.331571 127.697594" style="fill:none;stroke-width:0.50;stroke:#612b3f;"/>
		<path vector-effect="non-scaling-stroke" d="M 280.331571 127.697594 Q 285.991599 126.605509 290.19016 122.624905" style="fill:none;stroke-width:0.50;stroke:#7f573f;"/>
		<path vector-effect="non-scaling-stroke" d="M 290.19016 122.624905 Q 293.181922 119.82357 294.799401 116.07469" style="fill:none;stroke-width:0.50;stroke:#7f673d;"/>
		<path vector-effect="non-scaling-stroke" d="M 294.799401 116.07469 C 297.685625 109.191802 297.327715 100.991989 292.963964 94.838687 Q 291.266185 92.44803 289.738184 90.839729 Q 286.234794 87.164267 281.334178 82.993237 C 278.16805 80.299733 275.123519 77.849425 271.867913 76.248007 Q 267.270144 73.985831 264.016832 72.18022 Q 259.680613 69.771209 255.376513 66.270113 C 255.133318 66.072804 254.938303 65.820431 254.713462 65.577236 Q 254.527624 65.377632 254.610218 65.636888 Q 255.314567 67.830235 255.479757 70.156651" style="fill:none;stroke-width:0.50;stroke:#7f7539;"/>
		<path vector-effect="non-scaling-stroke" d="M 294.799401 116.07469 Q 294.801695 115.074377 295.038008 114.312671 Q 296.136976 110.779455 296.226453 107.347188 Q 296.247102 106.518948 296.162213 106.069266 Q 296.141564 105.952256 296.047498 105.881133 C 293.22322 103.724495 290.738497 101.705515 288.127588 100.053622 Q 281.331884 95.756405 273.556515 93.512584" style="fill:none;stroke-width:0.50;stroke:#fabc37;"/>
		<path vector-effect="non-scaling-stroke" d="M 273.556515 93.512584 Q 270.844657 88.231114 267.758829 84.255099 Q 265.173157 80.926076 261.139785 76.711454" style="fill:none;stroke-width:0.50;stroke:#dc7f39;"/>
		<path vector-effect="non-scaling-stroke" d="M 261.139785 76.711454 Q 258.1572 73.650864 255.479757 70.156651" style="fill:none;stroke-width:0.50;stroke:#f88c37;"/>
		<path vector-effect="non-scaling-stroke" d="M 261.139785 76.711454 Q 261.945083 79.301714 262.075858 81.963098 Q 262.080446 82.036515 262.029972 81.981452 C 260.791052 80.584226 259.228636 79.207648 258.226029 77.847131 Q 256.537427 75.559718 255.649535 72.684965" style="fill:none;stroke-width:0.50;stroke:#da423d;"/>
		<path vector-effect="non-scaling-stroke" d="M 290.19016 122.624905 Q 288.868646 120.287018 287.526483 119.18805 C 285.635983 117.6394 283.488522 116.671207 281.017565 115.861321" style="fill:none;stroke-width:0.50;stroke:#f99e3c;"/>
		<path vector-effect="non-scaling-stroke" d="M 273.556515 93.512584 C 277.241154 100.526247 280.099847 108.021711 281.017565 115.861321" style="fill:none;stroke-width:0.50;stroke:#dc723c;"/>
		<path vector-effect="non-scaling-stroke" d="M 281.017565 115.861321 Q 281.620965 120.651811 280.694069 125.577664 Q 280.492171 126.646806 280.134261 127.472753 Q 280.083787 127.589762 280.127378 127.640236 Q 280.180147 127.704477 280.331571 127.697594" style="fill:none;stroke-width:0.50;stroke:#dc613e;"/>
		<path vector-effect="non-scaling-stroke" d="M 243.75813 35.600424 C 243.108913 34.927736 241.918173 35.024097 241.09989 35.813633 C 240.28234 36.604866 240.144682 37.791018 240.794037 38.462787 C 241.443254 39.135475 242.633994 39.039115 243.452277 38.249578 C 244.269827 37.458345 244.407484 36.272194 243.75813 35.600424" style="fill:none;stroke-width:0.50;stroke:#7d373d;"/>
		<path vector-effect="non-scaling-stroke" d="M 248.699286 38.847449 C 249.448053 38.557312 249.787608 37.630417 249.458354 36.774094 C 249.129145 35.918872 248.252724 35.457719 247.503316 35.748039 C 246.754549 36.038175 246.414993 36.965071 246.744248 37.821394 C 247.073456 38.676616 247.949877 39.137769 248.699286 38.847449" style="fill:none;stroke-width:0.50;stroke:#7d373d;"/>
		<path vector-effect="non-scaling-stroke" d="M 319.038638 30.435505 L 319.038638 30.371264 Q 319.038638 30.357499 319.027166 30.35291 C 315.181926 29.212645 311.036134 28.971744 307.011938 29.331948 C 303.508549 29.646267 299.601362 30.573162 296.506357 32.344359 Q 293.785322 33.902186 293.220925 37.00178 Q 293.211748 37.052254 293.253046 37.08208 L 293.31958 37.127966 Q 293.358583 37.153203 293.372349 37.109612 C 294.267124 34.062787 297.387367 32.484311 300.186408 31.562004 C 306.153872 29.595792 312.784387 29.09793 318.985869 30.479096 Q 319.040932 30.492862 319.038638 30.435505" style="fill:none;stroke-width:0.50;stroke:#7f673d;"/>
		<path d="M 254.667576 49.797068 Q 254.782291 49.657116 254.871768 49.230377 Q 254.894711 49.120251 254.956657 49.023891 Q 255.227384 48.620094 255.773427 47.316934 Q 256.445655 45.710927 258.508227 42.363549 Q 260.501971 39.126298 264.019126 35.07916 Q 270.55787 27.546986 278.49384 21.393684 Q 283.862492 17.231831 289.653295 13.726147 Q 290.314052 13.32694 291.234065 12.826783 Q 292.743712 12.007719 292.826306 11.954951 C 293.289754 11.661281 294.028518 11.431851 294.427725 11.161124 C 294.934764 10.819274 295.389035 10.677028 296.052087 10.369592 C 296.23563 10.284703 296.618778 10.007093 296.933096 9.91991 Q 297.208412 9.841904 297.325421 9.789135 Q 303.962819 6.749193 311.251797 5.446033 Q 312.977108 5.138597 314.550995 4.966525 Q 316.005579 4.808219 317.873136 4.682032 Q 321.65643 4.425071 325.419075 4.874753 Q 325.494787 4.88393 326.293202 5.037648 C 326.621286 5.101889 327.0985 5.074357 327.467881 5.186777 C 328.307594 5.441444 329.702526 5.680051 330.656953 5.966838 Q 334.538902 7.130046 337.812862 9.357808 C 340.27923 11.034938 342.360156 13.214519 343.477479 15.657944 Q 344.436494 17.752637 344.571858 19.551365 Q 344.675101 20.914176 344.537443 23.123583 Q 344.523678 23.375956 343.800974 25.975393 C 343.25952 27.930133 342.580409 29.549906 341.742991 31.495469 Q 337.925282 40.390455 336.567059 44.249461 Q 333.683129 52.437803 332.671345 55.727823 Q 331.342947 60.047983 329.629108 64.735229 C 329.096831 66.187519 328.121756 68.071136 327.201743 69.470656 C 323.801596 74.632822 318.9331 78.900213 313.243246 81.267926 Q 308.402282 83.282318 303.295179 83.541573 Q 300.746216 83.672348 298.704293 83.614991 Q 298.311968 83.603519 296.765613 83.348853 C 295.964903 83.218078 295.366092 83.202018 294.60668 83.098774 Q 294.166175 83.039123 294.482788 83.353441 C 295.542753 84.401934 296.660075 85.204938 297.717745 86.152482 Q 298.552869 86.895834 300.707213 88.823043 Q 304.306964 92.04194 307.752996 95.841294 Q 308.787724 96.981559 311.664771 100.654727 Q 314.048544 103.699258 316.705339 108.496631 Q 316.987537 109.005964 317.27203 109.664427 C 317.487694 110.166878 317.815778 110.715215 318.013088 111.231432 Q 320.337209 117.267724 318.742674 123.141122 Q 317.361508 128.227576 313.796172 131.781441 Q 311.511053 134.057382 308.959796 136.060302 Q 305.986388 138.393602 305.50688 138.74004 Q 300.030396 142.718349 294.255653 146.416755 C 287.645786 150.649731 280.168676 152.870609 272.356598 152.572351 Q 270.218314 152.489756 267.416979 151.902416 Q 266.636918 151.739521 265.629722 151.388494 C 264.957493 151.15677 264.007655 150.860806 263.319366 150.523544 Q 257.666221 147.738269 254.73411 142.484331 Q 253.0088 139.393915 252.237916 135.381191 Q 251.311021 130.560875 251.145832 125.827742 C 251.111417 124.866432 250.955405 123.60457 250.955405 122.452833 C 250.946228 113.876755 250.989819 105.298382 250.939345 96.724598 Q 250.918696 92.838061 251.290372 89.307139 Q 251.359201 88.655559 251.00588 89.20619 Q 250.251056 90.378575 249.840377 91.172402 C 248.796473 93.189088 247.750274 94.705618 246.364519 97.09398 Q 245.738176 98.172299 245.288494 99.757657 Q 245.13707 100.292228 244.94435 100.618018 Q 244.864049 100.751088 244.831929 100.599664 Q 244.655268 99.771423 244.203292 98.367314 Q 244.042691 97.867157 243.799496 97.449596 C 242.971255 96.011072 241.794281 94.173341 239.906076 91.11275 C 239.63076 90.667657 238.970003 89.816473 238.696982 89.151127 Q 238.646507 89.027235 238.570795 89.001998 Q 238.504261 88.979055 238.456081 88.988232 Q 238.339071 89.015764 238.34366 89.135067 C 238.442315 91.411009 238.536381 92.785292 238.54097 94.542723 Q 238.602916 115.989801 238.531792 122.280761 Q 238.511144 123.932654 238.107348 129.106291 Q 237.854975 132.3206 236.9602 136.505396 Q 236.875311 136.900015 236.471515 138.258238 C 234.438768 145.06312 229.512915 149.812313 222.808982 151.705107 Q 219.525845 152.632002 215.283691 152.579233 Q 207.402785 152.482873 200.267524 149.055195 C 199.017133 148.454089 197.427186 147.575374 196.068963 146.74025 Q 189.112657 142.465977 182.81252 137.744316 C 180.506753 136.016711 178.173454 134.199628 176.143002 132.148528 Q 171.235503 127.185966 170.418734 120.215895 Q 170.356788 119.690501 170.411851 117.426031 Q 170.450854 115.803963 170.714698 114.661404 Q 171.304332 112.103264 172.265642 110.059046 Q 174.052898 106.261986 176.753285 102.386921 Q 181.651607 95.357198 187.655779 89.892185 Q 189.392561 88.30912 189.573811 88.139343 C 191.340419 86.464507 193.033609 85.103989 195.041118 83.497982 Q 195.486211 83.140072 194.917226 83.17678 C 193.396108 83.275435 191.790101 83.614991 190.330928 83.612697 Q 187.580067 83.608108 186.722001 83.562222 Q 180.261263 83.218078 174.784779 80.416742 Q 169.597376 77.764536 165.407991 73.192004 Q 161.236961 68.637827 159.263867 62.670363 Q 158.401211 60.059454 158.348442 59.894265 Q 155.61823 51.455844 153.486829 45.435612 Q 152.681531 43.166553 151.355428 39.775584 Q 150.543248 37.70154 149.616352 35.53343 C 148.207654 32.231938 147.122452 29.848165 146.268974 27.354265 C 145.562331 25.289399 145.020877 23.082286 145.000229 20.989888 Q 144.988757 19.872566 145.553154 17.472732 Q 145.660986 17.009285 145.963833 16.401296 Q 146.041839 16.245284 146.438752 15.355097 Q 146.771425 14.602568 147.445948 13.664201 Q 148.008051 12.877258 148.705517 12.161437 Q 152.007008 8.768173 156.363876 6.978623 Q 160.374306 5.329024 165.105144 4.849516 Q 171.187323 4.23235 176.978126 5.11336 Q 177.581526 5.205132 179.14853 5.485036 Q 180.401215 5.709877 181.314345 5.932424 Q 187.495178 7.435188 193.531471 10.332883 Q 197.964051 12.46199 202.132787 15.045367 Q 207.884587 18.610703 214.797301 24.474924 Q 222.083985 30.658051 228.448362 38.594021 Q 231.655787 42.592979 234.021206 47.014087 Q 234.638372 48.168118 235.11788 49.574522 Q 235.296835 50.095327 235.452847 49.567639 Q 236.145725 47.229751 237.758615 45.247479 C 239.013594 43.708007 241.101404 42.345195 243.124973 42.099705 Q 243.872913 42.007933 245.043004 41.987285 C 249.693542 41.909279 253.263467 45.497558 254.465678 49.753477 C 254.490915 49.842954 254.607924 49.868191 254.667576 49.797068 Z M 166.688208 29.497138 Q 166.903872 32.348947 167.585278 34.89791 Q 170.345316 45.222242 174.899494 55.223078 Q 176.496324 58.859537 178.460241 62.365222 Q 181.351054 67.529682 185.352306 71.909493 C 188.332597 75.171982 191.489548 77.548872 196.11026 77.406626 C 197.961757 77.349269 200.467128 76.915647 202.552643 76.456787 Q 215.588833 73.588918 227.030487 66.742738 Q 227.76925 66.302234 228.487365 65.859434 C 231.394238 64.049235 233.383392 62.408813 235.996595 60.263647 Q 236.042481 60.224644 236.005772 60.178758 C 235.021519 58.962781 234.356174 57.565554 234.12445 56.007728 Q 234.032678 55.383679 233.938612 54.725216 L 234.044149 53.952038 C 234.053327 53.890092 234.009735 53.832735 233.945495 53.823558 Q 231.926514 53.543654 231.286406 53.502356 Q 226.456913 53.197215 220.950602 53.830441 Q 218.181387 54.147053 216.222058 54.686213 C 214.517396 55.156544 212.154272 55.893013 210.376192 56.16374 Q 205.551288 56.900209 200.937459 55.225373 C 197.10369 53.832735 193.969682 52.625935 190.046436 53.256867 C 186.008475 53.906152 182.344484 55.243727 178.623136 56.884149 Q 178.591016 56.897914 178.556601 56.858911 L 178.554307 56.856617 Q 178.522187 56.819908 178.57725 56.792377 L 180.15802 55.980196 Q 183.828894 54.220471 187.430938 53.238512 C 189.569222 52.658055 192.386617 52.300145 194.708445 52.72459 Q 196.316746 53.020554 196.885732 53.259161 Q 200.0358 54.578381 201.017759 54.917937 Q 205.994087 56.640953 211.041538 55.381385 Q 212.234572 55.083126 216.061458 53.828146 C 220.65005 52.325382 225.697501 52.144133 230.536171 52.389623 Q 230.731186 52.557106 231.261168 52.552518 C 231.341469 52.550223 231.375883 52.449274 231.313937 52.3988 C 230.99503 52.139545 230.797721 51.705923 230.492579 51.396193 Q 227.347099 48.214004 223.251781 47.087505 Q 222.079396 46.764009 220.700524 46.881018 Q 218.305279 46.495576 217.231549 46.484105 Q 210.729514 46.408393 203.658494 47.431649 C 201.072822 47.805619 198.271487 47.817091 195.853299 46.605703 C 194.981466 46.167492 194.082102 45.453966 193.116204 44.7565 C 188.720333 41.5789 182.996064 40.319332 177.597586 40.709362 Q 176.438966 40.791957 174.403926 41.048918 Q 174.348863 41.055801 174.367217 41.005326 L 174.385571 40.947969 Q 174.385571 40.945674 174.39016 40.945674 C 181.050501 39.429145 188.20641 39.920124 193.91003 43.978734 C 195.708758 45.258951 197.211522 46.468045 199.519584 46.628646 Q 201.442204 46.761715 202.674241 46.534579 Q 207.687277 45.612272 209.256576 45.458555 C 213.427606 45.054759 215.61407 44.972164 217.16272 44.561485 C 217.360029 44.508716 217.405915 44.249461 217.238431 44.134746 L 214.884484 42.519561 C 214.730766 42.414024 214.691763 42.200654 214.797301 42.046937 L 215.157505 41.519248 C 215.237805 41.404534 215.194214 41.246227 215.068027 41.186576 Q 212.085443 39.793938 209.304756 38.031919 Q 203.777797 34.528529 198.879475 30.148718 Q 195.890007 27.37262 193.804492 23.86923 Q 193.760901 23.798106 193.841201 23.821049 L 193.919207 23.843992 Q 193.94215 23.850875 193.953622 23.86923 Q 195.639929 26.124522 196.151557 26.716451 Q 198.108592 28.976332 201.410084 31.493175 Q 205.404453 34.535412 209.89439 36.815942 Q 217.165014 40.512053 225.523134 43.214733 C 225.573609 43.230793 225.614906 43.173436 225.582786 43.129844 Q 224.222268 41.31735 222.698856 39.770995 C 217.970312 34.969033 212.229983 30.637403 206.430003 26.757748 C 200.418948 22.738142 193.868733 19.551365 186.857364 17.812288 Q 183.285145 16.92669 179.433022 16.979459 C 176.728047 17.016167 174.130904 17.491087 171.822843 18.895196 Q 166.252292 22.28846 166.688208 29.497138 Z M 275.242822 42.274072 L 272.707625 44.123274 Q 272.248766 44.460536 272.799397 44.605077 Q 273.577163 44.806975 274.666954 44.905629 Q 278.454837 45.249774 279.806177 45.403492 C 282.263368 45.68569 284.417712 46.178964 286.737245 46.527697 C 289.139373 46.887901 291.789285 46.793835 293.773851 45.39202 C 295.698765 44.033797 297.589265 42.650336 299.672486 41.826684 C 304.660285 39.85359 310.054175 39.741169 315.266815 40.938792 Q 315.294347 40.94338 315.289758 40.973206 L 315.278287 41.042035 Q 315.271404 41.094804 315.216341 41.087921 Q 313.167535 40.801134 312.612315 40.750659 C 306.938521 40.236737 301.244078 41.491717 296.584363 44.802386 Q 294.377251 46.371684 294.214356 46.461162 C 292.053129 47.658784 289.511049 47.807914 286.982735 47.537187 Q 284.968343 47.323817 281.820569 46.92461 Q 278.65444 46.523108 274.646305 46.479516 Q 272.108814 46.451985 268.931214 46.922315 Q 264.661529 46.970496 261.002127 49.794774 Q 259.42824 51.010751 258.544936 52.235905 L 258.349921 52.465335 Q 258.2375 52.598404 258.411867 52.589227 C 258.746834 52.573166 258.957909 52.46304 259.327291 52.442392 C 264.581229 52.132662 269.477256 52.373563 274.086497 53.887798 Q 276.903892 54.812399 278.60626 55.303379 C 282.116533 56.310575 285.66122 55.980196 289.072838 54.736688 C 290.837152 54.094285 292.427099 53.366993 293.867917 53.013671 Q 297.492904 52.125779 301.253256 52.967785 Q 306.163049 54.195234 310.662163 56.560653 Q 310.887004 56.677662 311.095785 56.810731 Q 311.155437 56.849734 311.11414 56.884149 L 311.111845 56.886443 Q 311.079725 56.913974 311.043016 56.897914 Q 308.250858 55.59246 305.39446 54.596735 Q 303.198819 53.832735 300.321771 53.321107 Q 298.35556 52.97008 296.811499 53.116915 Q 294.508025 53.334873 293.314992 53.708843 Q 291.367134 54.32142 288.340958 55.36303 Q 283.286624 57.102107 278.282764 55.890718 Q 276.938307 55.564928 274.359518 54.835342 C 270.755179 53.816675 266.724101 53.454176 262.777912 53.364699 Q 259.370883 53.288987 255.89273 53.846501 C 255.784898 53.862561 255.709186 53.958921 255.716069 54.066753 L 255.803252 55.326322 Q 255.413222 58.173543 253.713149 60.160403 C 253.658086 60.222349 253.667263 60.31871 253.731503 60.371478 L 256.957283 63.007625 Q 258.074605 63.8221 259.19881 64.592983 Q 264.622526 68.305154 270.596873 70.939006 Q 277.768842 74.105134 283.745483 75.68361 Q 288.531384 76.947767 292.677177 77.34468 Q 298.284437 77.879251 302.352223 73.926179 Q 305.896911 70.484735 308.590414 66.373357 C 311.646416 61.832945 314.032484 56.767139 316.124882 51.738043 Q 319.804933 43.230793 322.103817 34.60424 Q 322.603974 32.729801 322.865524 30.488273 C 323.95302 23.380545 319.635155 17.949946 312.536603 17.123999 C 307.798882 16.573368 303.164404 17.520913 298.552869 19.092505 C 291.945297 21.34321 285.663514 24.890191 280.060844 28.8685 Q 272.826928 34.003135 268.451706 38.307234 Q 266.031224 40.691008 264.372448 43.015129 Q 264.225613 43.221616 264.466514 43.145904 C 268.727022 41.783092 272.436898 40.289506 276.789178 38.325588 Q 284.791682 34.712072 290.584779 29.696741 Q 292.385802 28.13662 293.771556 26.576499 Q 294.235004 26.055694 295.939666 23.763692 Q 295.967198 23.726983 296.006201 23.754515 L 296.061264 23.791223 Q 296.063558 23.793518 296.063558 23.795812 Q 293.583424 28.051731 289.584466 31.39452 Q 284.12863 35.950992 279.1936 38.883102 C 277.658716 39.796232 276.43815 40.388161 274.855086 41.142984 C 274.738077 41.200341 274.71284 41.356353 274.806906 41.445831 Q 275.112047 41.739501 275.242822 42.274072 Z M 193.125381 110.02922 C 193.641597 114.411326 195.557335 118.807197 198.640868 122.016917 Q 203.029856 126.486205 209.293284 127.729714 Q 213.838285 127.998146 218.137795 126.399022 Q 219.592379 125.857568 220.773942 124.962793 C 221.944032 124.077195 222.866339 122.709794 223.623457 121.445637 Q 225.855807 117.719701 227.47558 113.076045 C 230.747246 103.692375 232.59186 93.271683 233.314563 83.275435 Q 233.32374 83.149249 233.842251 74.846192 Q 233.904197 73.818347 233.860606 73.393902 L 234.282756 69.906572 Q 234.390588 68.75713 234.622312 67.575568 Q 234.828799 66.513309 235.280775 65.609356 Q 235.416138 65.340924 235.18212 65.53135 Q 230.072723 69.700086 224.453992 72.779031 Q 223.410088 73.350311 218.332811 75.926805 C 216.784161 76.711454 215.045084 77.645233 213.868111 78.533125 Q 208.214965 82.789044 203.018385 87.843378 C 200.375356 90.41299 198.133829 92.688931 196.378692 95.354903 Q 192.072299 101.893647 193.125381 110.02922 Z M 255.479757 70.156651 L 255.649535 72.684965 Q 255.833078 77.642939 256.1864 82.472432 C 256.980226 93.381809 258.673417 104.254477 262.459005 114.574221 Q 264.030598 118.857671 266.389134 122.519368 Q 267.880426 124.832018 269.899407 125.839214 Q 274.611891 128.193162 280.331571 127.697594 Q 285.991599 126.605509 290.19016 122.624905 Q 293.181922 119.82357 294.799401 116.07469 C 297.685625 109.191802 297.327715 100.991989 292.963964 94.838687 Q 291.266185 92.44803 289.738184 90.839729 Q 286.234794 87.164267 281.334178 82.993237 C 278.16805 80.299733 275.123519 77.849425 271.867913 76.248007 Q 267.270144 73.985831 264.016832 72.18022 Q 259.680613 69.771209 255.376513 66.270113 C 255.133318 66.072804 254.938303 65.820431 254.713462 65.577236 Q 254.527624 65.377632 254.610218 65.636888 Q 255.314567 67.830235 255.479757 70.156651 Z" style="fill:#04203f;"/>
		<path d="M 242.429801 33.883831 C 242.500924 33.879243 242.549105 33.812708 242.535339 33.743879 Q 241.913585 30.947133 241.303302 28.744608 Q 241.062401 27.879659 240.183685 25.851501 Q 239.653703 24.626347 238.70157 23.105229 Q 236.907431 20.239653 236.739947 20.005635 Q 235.599682 18.42716 234.427297 16.823447 C 234.374528 16.752323 234.372234 16.655963 234.422708 16.582546 L 234.49842 16.474714 C 234.535129 16.421945 234.613135 16.421945 234.647549 16.477008 Q 234.941219 16.951927 235.622625 17.743459 Q 235.698337 17.830643 235.835995 18.037129 C 236.051658 18.358331 236.349917 18.567112 236.563286 18.895196 Q 236.937257 19.466476 236.948728 19.48483 C 237.35023 20.019401 238.06605 20.934825 238.536381 21.682765 Q 239.20861 22.751907 240.078148 24.17896 Q 240.984395 25.665663 242.087951 28.593185 Q 242.535339 29.78163 243.16627 33.805825 Q 243.18233 33.915952 243.287868 33.957249 Q 244.200998 34.310571 244.822752 34.925442 C 244.939761 35.040157 245.132482 35.024097 245.226548 34.888733 Q 245.641816 34.289922 246.447113 34.007723 Q 246.729312 33.911363 246.752255 33.615399 C 247.068868 29.724273 248.622106 25.821675 250.732858 22.648664 Q 250.973759 22.286165 251.106829 22.146213 C 251.439501 21.802069 251.464739 21.338621 251.806589 21.01742 Q 252.052078 20.78799 252.231034 20.459906 Q 252.504055 19.959749 252.94456 19.507773 C 253.199226 19.248517 253.357533 18.791953 253.545665 18.645118 C 253.963227 18.319328 254.307371 17.757225 254.665282 17.392432 Q 255.034663 17.016167 255.472874 16.424239 C 255.500405 16.38753 255.539408 16.362293 255.583 16.350822 L 255.720658 16.318702 C 255.839961 16.29117 255.931733 16.424239 255.86061 16.525188 Q 254.991072 17.750342 254.958951 17.819171 C 254.759348 18.239027 254.314254 18.493694 254.094002 18.922727 Q 253.958638 19.186571 253.761329 19.370115 Q 253.38277 19.716554 253.116632 20.310777 C 252.910145 20.77193 252.432932 21.061011 252.288391 21.490045 C 252.189736 21.78142 251.857063 22.047559 251.655165 22.373349 Q 250.716798 23.876112 249.686659 26.014396 Q 248.291727 28.909798 247.532315 32.573788 C 247.474958 32.853693 247.098693 33.418089 247.229468 33.803531 Q 247.270766 33.925129 247.401541 33.929717 C 251.077003 34.044432 251.905244 38.463246 249.117674 40.390455 Q 248.424797 40.867668 247.293709 40.993855 Q 244.689683 41.282936 242.303615 41.028269 Q 241.52126 40.94338 240.582893 40.202323 C 239.302676 39.190538 238.889703 37.68548 239.293499 36.132242 C 239.522928 35.246643 240.016202 35.012625 240.475061 34.549177 C 241.023398 33.998546 241.670389 33.929717 242.429801 33.883831 Z M 243.75813 35.600424 C 243.108913 34.927736 241.918173 35.024097 241.09989 35.813633 C 240.28234 36.604866 240.144682 37.791018 240.794037 38.462787 C 241.443254 39.135475 242.633994 39.039115 243.452277 38.249578 C 244.269827 37.458345 244.407484 36.272194 243.75813 35.600424 Z M 248.699286 38.847449 C 249.448053 38.557312 249.787608 37.630417 249.458354 36.774094 C 249.129145 35.918872 248.252724 35.457719 247.503316 35.748039 C 246.754549 36.038175 246.414993 36.965071 246.744248 37.821394 C 247.073456 38.676616 247.949877 39.137769 248.699286 38.847449 Z" style="fill:#04203f;"/>
		<path d="M 198.879475 30.148718 Q 199.643476 31.523001 200.905338 32.50496 Q 200.99711 32.576083 200.886984 32.610497 Q 197.991583 33.509861 194.983761 33.720936 Q 193.373165 32.17917 190.909091 31.252274 Q 186.575166 29.623324 182.413313 29.290651 Q 176.452732 28.815732 170.804175 30.458448 L 166.688208 29.497138 Q 166.252292 22.28846 171.822843 18.895196 C 174.130904 17.491087 176.728047 17.016167 179.433022 16.979459 Q 183.285145 16.92669 186.857364 17.812288 C 193.868733 19.551365 200.418948 22.738142 206.430003 26.757748 C 212.229983 30.637403 217.970312 34.969033 222.698856 39.770995 Q 224.222268 41.31735 225.582786 43.129844 C 225.614906 43.173436 225.573609 43.230793 225.523134 43.214733 Q 217.165014 40.512053 209.89439 36.815942 Q 205.404453 34.535412 201.410084 31.493175 Q 198.108592 28.976332 196.151557 26.716451 Q 195.639929 26.124522 193.953622 23.86923 Q 193.94215 23.850875 193.919207 23.843992 L 193.841201 23.821049 Q 193.760901 23.798106 193.804492 23.86923 Q 195.890007 27.37262 198.879475 30.148718 Z" style="fill:#f9ae3a;"/>
		<path d="M 322.865524 30.488273 L 321.743613 33.62687 Q 321.706904 33.732408 321.596778 33.750762 Q 315.337939 34.858907 311.976795 35.7468 Q 306.229584 37.267918 304.646519 37.639594 Q 299.291633 38.894574 292.195375 39.509445 Q 285.734638 40.069253 278.498428 40.218383 Q 277.798668 40.232148 277.264097 40.454695 Q 276.598751 40.730011 276.12842 41.032858 Q 275.490606 41.445831 275.242822 42.274072 Q 275.112047 41.739501 274.806906 41.445831 C 274.71284 41.356353 274.738077 41.200341 274.855086 41.142984 C 276.43815 40.388161 277.658716 39.796232 279.1936 38.883102 Q 284.12863 35.950992 289.584466 31.39452 Q 293.583424 28.051731 296.063558 23.795812 Q 296.063558 23.793518 296.061264 23.791223 L 296.006201 23.754515 Q 295.967198 23.726983 295.939666 23.763692 Q 294.235004 26.055694 293.771556 26.576499 Q 292.385802 28.13662 290.584779 29.696741 Q 284.791682 34.712072 276.789178 38.325588 C 272.436898 40.289506 268.727022 41.783092 264.466514 43.145904 Q 264.225613 43.221616 264.372448 43.015129 Q 266.031224 40.691008 268.451706 38.307234 Q 272.826928 34.003135 280.060844 28.8685 C 285.663514 24.890191 291.945297 21.34321 298.552869 19.092505 C 303.164404 17.520913 307.798882 16.573368 312.536603 17.123999 C 319.635155 17.949946 323.95302 23.380545 322.865524 30.488273 Z M 319.038638 30.435505 L 319.038638 30.371264 Q 319.038638 30.357499 319.027166 30.35291 C 315.181926 29.212645 311.036134 28.971744 307.011938 29.331948 C 303.508549 29.646267 299.601362 30.573162 296.506357 32.344359 Q 293.785322 33.902186 293.220925 37.00178 Q 293.211748 37.052254 293.253046 37.08208 L 293.31958 37.127966 Q 293.358583 37.153203 293.372349 37.109612 C 294.267124 34.062787 297.387367 32.484311 300.186408 31.562004 C 306.153872 29.595792 312.784387 29.09793 318.985869 30.479096 Q 319.040932 30.492862 319.038638 30.435505 Z" style="fill:#f9ae3a;"/>
		<path d="M 194.983761 33.720936 Q 196.163029 35.07916 196.475053 36.845768 Q 196.486524 36.912302 196.447521 36.967365 L 196.374104 37.075197 C 196.360338 37.095846 196.328218 37.088963 196.321335 37.06602 C 195.655989 34.835964 193.451171 33.096888 191.345007 32.257176 Q 181.42906 28.299515 170.804175 30.458448 Q 176.452732 28.815732 182.413313 29.290651 Q 186.575166 29.623324 190.909091 31.252274 Q 193.373165 32.17917 194.983761 33.720936 Z" style="fill:#04203f;"/>
		<path d="M 170.804175 30.458448 Q 181.42906 28.299515 191.345007 32.257176 C 193.451171 33.096888 195.655989 34.835964 196.321335 37.06602 C 196.328218 37.088963 196.360338 37.095846 196.374104 37.075197 L 196.447521 36.967365 Q 196.486524 36.912302 196.475053 36.845768 Q 196.163029 35.07916 194.983761 33.720936 Q 197.991583 33.509861 200.886984 32.610497 Q 200.99711 32.576083 200.905338 32.50496 Q 199.643476 31.523001 198.879475 30.148718 Q 203.777797 34.528529 209.304756 38.031919 Q 212.085443 39.793938 215.068027 41.186576 C 215.194214 41.246227 215.237805 41.404534 215.157505 41.519248 L 214.797301 42.046937 C 214.691763 42.200654 214.730766 42.414024 214.884484 42.519561 L 217.238431 44.134746 C 217.405915 44.249461 217.360029 44.508716 217.16272 44.561485 C 215.61407 44.972164 213.427606 45.054759 209.256576 45.458555 Q 207.687277 45.612272 202.674241 46.534579 Q 201.442204 46.761715 199.519584 46.628646 C 197.211522 46.468045 195.708758 45.258951 193.91003 43.978734 C 188.20641 39.920124 181.050501 39.429145 174.39016 40.945674 Q 174.385571 40.945674 174.385571 40.947969 L 174.367217 41.005326 Q 174.348863 41.055801 174.403926 41.048918 Q 176.438966 40.791957 177.597586 40.709362 C 182.996064 40.319332 188.720333 41.5789 193.116204 44.7565 C 194.082102 45.453966 194.981466 46.167492 195.853299 46.605703 C 198.271487 47.817091 201.072822 47.805619 203.658494 47.431649 Q 210.729514 46.408393 217.231549 46.484105 Q 218.305279 46.495576 220.700524 46.881018 Q 224.403518 48.028166 227.824313 50.437177 Q 229.850176 51.861935 230.536171 52.389623 C 225.697501 52.144133 220.65005 52.325382 216.061458 53.828146 Q 212.234572 55.083126 211.041538 55.381385 Q 205.994087 56.640953 201.017759 54.917937 Q 200.0358 54.578381 196.885732 53.259161 Q 196.316746 53.020554 194.708445 52.72459 C 192.386617 52.300145 189.569222 52.658055 187.430938 53.238512 Q 183.828894 54.220471 180.15802 55.980196 L 174.899494 55.223078 Q 170.345316 45.222242 167.585278 34.89791 Q 166.903872 32.348947 166.688208 29.497138 L 170.804175 30.458448 Z" style="fill:#f98d3e;"/>
		<path d="M 322.865524 30.488273 Q 322.603974 32.729801 322.103817 34.60424 Q 319.804933 43.230793 316.124882 51.738043 Q 314.07837 49.714474 311.173791 49.962258 Q 308.634006 50.175627 305.933619 51.166763 Q 302.799611 52.316205 301.253256 52.967785 Q 297.492904 52.125779 293.867917 53.013671 C 292.427099 53.366993 290.837152 54.094285 289.072838 54.736688 C 285.66122 55.980196 282.116533 56.310575 278.60626 55.303379 Q 276.903892 54.812399 274.086497 53.887798 C 269.477256 52.373563 264.581229 52.132662 259.327291 52.442392 C 258.957909 52.46304 258.746834 52.573166 258.411867 52.589227 Q 258.2375 52.598404 258.349921 52.465335 L 258.544936 52.235905 Q 258.900552 52.403389 259.33188 52.134956 Q 260.79564 51.212649 262.220398 50.207747 Q 265.239692 48.080935 268.931214 46.922315 Q 272.108814 46.451985 274.646305 46.479516 Q 278.65444 46.523108 281.820569 46.92461 Q 284.968343 47.323817 286.982735 47.537187 C 289.511049 47.807914 292.053129 47.658784 294.214356 46.461162 Q 294.377251 46.371684 296.584363 44.802386 C 301.244078 41.491717 306.938521 40.236737 312.612315 40.750659 Q 313.167535 40.801134 315.216341 41.087921 Q 315.271404 41.094804 315.278287 41.042035 L 315.289758 40.973206 Q 315.294347 40.94338 315.266815 40.938792 C 310.054175 39.741169 304.660285 39.85359 299.672486 41.826684 C 297.589265 42.650336 295.698765 44.033797 293.773851 45.39202 C 291.789285 46.793835 289.139373 46.887901 286.737245 46.527697 C 284.417712 46.178964 282.263368 45.68569 279.806177 45.403492 Q 278.454837 45.249774 274.666954 44.905629 Q 273.577163 44.806975 272.799397 44.605077 Q 272.248766 44.460536 272.707625 44.123274 L 275.242822 42.274072 Q 275.490606 41.445831 276.12842 41.032858 Q 276.598751 40.730011 277.264097 40.454695 Q 277.798668 40.232148 278.498428 40.218383 Q 285.734638 40.069253 292.195375 39.509445 Q 299.291633 38.894574 304.646519 37.639594 Q 306.229584 37.267918 311.976795 35.7468 Q 315.337939 34.858907 321.596778 33.750762 Q 321.706904 33.732408 321.743613 33.62687 L 322.865524 30.488273 Z" style="fill:#f98d3e;"/>
		<path d="M 243.75813 35.600424 C 244.407484 36.272194 244.269827 37.458345 243.452277 38.249578 C 242.633994 39.039115 241.443254 39.135475 240.794037 38.462787 C 240.144682 37.791018 240.28234 36.604866 241.09989 35.813633 C 241.918173 35.024097 243.108913 34.927736 243.75813 35.600424 Z" style="fill:#f54e3b;"/>
		<path d="M 248.699286 38.847449 C 247.949877 39.137769 247.073456 38.676616 246.744248 37.821394 C 246.414993 36.965071 246.754549 36.038175 247.503316 35.748039 C 248.252724 35.457719 249.129145 35.918872 249.458354 36.774094 C 249.787608 37.630417 249.448053 38.557312 248.699286 38.847449 Z" style="fill:#f54e3b;"/>
		<path d="M 230.536171 52.389623 Q 229.850176 51.861935 227.824313 50.437177 Q 224.403518 48.028166 220.700524 46.881018 Q 222.079396 46.764009 223.251781 47.087505 Q 227.347099 48.214004 230.492579 51.396193 C 230.797721 51.705923 230.99503 52.139545 231.313937 52.3988 C 231.375883 52.449274 231.341469 52.550223 231.261168 52.552518 Q 230.731186 52.557106 230.536171 52.389623 Z" style="fill:#be353e;"/>
		<path d="M 268.931214 46.922315 Q 265.239692 48.080935 262.220398 50.207747 Q 260.79564 51.212649 259.33188 52.134956 Q 258.900552 52.403389 258.544936 52.235905 Q 259.42824 51.010751 261.002127 49.794774 Q 264.661529 46.970496 268.931214 46.922315 Z" style="fill:#be353e;"/>
		<path d="M 316.124882 51.738043 C 314.032484 56.767139 311.646416 61.832945 308.590414 66.373357 Q 302.618362 66.467423 296.800027 67.665045 C 294.586031 65.717188 291.924648 64.01482 289.325211 62.819492 Q 287.420945 61.945365 285.603863 61.651696 Q 283.178792 61.26396 278.743918 60.818866 Q 273.198604 60.261352 267.600522 58.673699 Q 267.582168 58.666817 267.577579 58.685171 L 267.568402 58.749411 Q 267.556931 58.806769 267.614288 58.825123 Q 269.573617 59.426229 270.805654 59.687778 Q 277.667893 61.142362 285.158769 62.030254 C 288.061054 62.376693 290.490713 63.604141 293.032793 65.228503 Q 285.663514 66.701441 278.156578 67.628337 Q 277.328337 67.73158 276.539099 67.584745 Q 269.541497 66.290762 263.525853 63.145282 Q 261.722536 62.202327 259.570486 60.568788 Q 257.143121 58.531453 255.803252 55.326322 L 255.716069 54.066753 C 255.709186 53.958921 255.784898 53.862561 255.89273 53.846501 Q 259.370883 53.288987 262.777912 53.364699 C 266.724101 53.454176 270.755179 53.816675 274.359518 54.835342 Q 276.938307 55.564928 278.282764 55.890718 Q 283.286624 57.102107 288.340958 55.36303 Q 291.367134 54.32142 293.314992 53.708843 Q 294.508025 53.334873 296.811499 53.116915 Q 298.35556 52.97008 300.321771 53.321107 Q 303.198819 53.832735 305.39446 54.596735 Q 308.250858 55.59246 311.043016 56.897914 Q 311.079725 56.913974 311.111845 56.886443 L 311.11414 56.884149 Q 311.155437 56.849734 311.095785 56.810731 Q 310.887004 56.677662 310.662163 56.560653 Q 306.163049 54.195234 301.253256 52.967785 Q 302.799611 52.316205 305.933619 51.166763 Q 308.634006 50.175627 311.173791 49.962258 Q 314.07837 49.714474 316.124882 51.738043 Z" style="fill:#f8723b;"/>
		<path d="M 233.938612 54.725216 Q 233.642648 55.711763 233.225086 56.480352 C 231.637433 59.410168 229.306428 61.346554 226.346786 62.964033 C 223.407793 64.446148 220.526158 65.366161 217.229254 66.389417 Q 214.35909 67.279604 209.396528 67.935772 C 208.806894 68.013778 207.937356 68.100962 207.155001 67.970187 Q 201.233423 66.983639 195.24531 66.233405 Q 198.230189 64.081355 201.618864 62.730015 C 202.527406 62.367516 203.669965 62.158735 204.677161 62.037137 Q 211.773418 61.181365 218.764138 59.554709 Q 219.335418 59.42164 220.996488 58.928366 Q 221.04008 58.914601 221.026314 58.871009 L 221.026314 58.868715 Q 221.014843 58.825123 220.97584 58.836594 Q 216.417073 60.070926 211.732121 60.688091 Q 210.862583 60.802806 205.234675 61.45668 Q 201.410084 61.901774 197.750681 64.216718 C 191.595085 61.888008 184.937038 61.142362 178.460241 62.365222 Q 176.496324 58.859537 174.899494 55.223078 L 180.15802 55.980196 L 178.57725 56.792377 Q 178.522187 56.819908 178.554307 56.856617 L 178.556601 56.858911 Q 178.591016 56.897914 178.623136 56.884149 C 182.344484 55.243727 186.008475 53.906152 190.046436 53.256867 C 193.969682 52.625935 197.10369 53.832735 200.937459 55.225373 Q 205.551288 56.900209 210.376192 56.16374 C 212.154272 55.893013 214.517396 55.156544 216.222058 54.686213 Q 218.181387 54.147053 220.950602 53.830441 Q 226.456913 53.197215 231.286406 53.502356 Q 231.926514 53.543654 233.945495 53.823558 C 234.009735 53.832735 234.053327 53.890092 234.044149 53.952038 L 233.938612 54.725216 Z" style="fill:#f8723b;"/>
		<path d="M 233.938612 54.725216 Q 234.032678 55.383679 234.12445 56.007728 C 234.356174 57.565554 235.021519 58.962781 236.005772 60.178758 Q 236.042481 60.224644 235.996595 60.263647 C 233.383392 62.408813 231.394238 64.049235 228.487365 65.859434 Q 227.544409 64.299313 226.346786 62.964033 C 229.306428 61.346554 231.637433 59.410168 233.225086 56.480352 Q 233.642648 55.711763 233.938612 54.725216 Z" style="fill:#be353e;"/>
		<path d="M 259.570486 60.568788 L 256.957283 63.007625 L 253.731503 60.371478 C 253.667263 60.31871 253.658086 60.222349 253.713149 60.160403 Q 255.413222 58.173543 255.803252 55.326322 Q 257.143121 58.531453 259.570486 60.568788 Z" style="fill:#be353e;"/>
		<path d="M 296.800027 67.665045 C 298.183488 68.993443 299.26869 70.415906 299.498119 72.359175 Q 299.505002 72.402767 299.465999 72.402767 L 299.463705 72.402767 Q 299.424702 72.402767 299.417819 72.370646 Q 299.080557 70.464086 297.885229 69.09898 Q 295.907546 66.845982 293.032793 65.228503 C 290.490713 63.604141 288.061054 62.376693 285.158769 62.030254 Q 277.667893 61.142362 270.805654 59.687778 Q 269.573617 59.426229 267.614288 58.825123 Q 267.556931 58.806769 267.568402 58.749411 L 267.577579 58.685171 Q 267.582168 58.666817 267.600522 58.673699 Q 273.198604 60.261352 278.743918 60.818866 Q 283.178792 61.26396 285.603863 61.651696 Q 287.420945 61.945365 289.325211 62.819492 C 291.924648 64.01482 294.586031 65.717188 296.800027 67.665045 Z" style="fill:#04203f;"/>
		<path d="M 195.24531 66.233405 C 193.113909 67.655868 191.147698 69.849215 190.996274 72.53813 Q 190.99398 72.584016 190.954977 72.574839 L 190.952683 72.574839 Q 190.913679 72.567956 190.913679 72.542719 C 191.005451 70.202537 192.102125 68.587352 193.754018 67.084588 Q 195.58716 65.416635 197.750681 64.216718 Q 201.410084 61.901774 205.234675 61.45668 Q 210.862583 60.802806 211.732121 60.688091 Q 216.417073 60.070926 220.97584 58.836594 Q 221.014843 58.825123 221.026314 58.868715 L 221.026314 58.871009 Q 221.04008 58.914601 220.996488 58.928366 Q 219.335418 59.42164 218.764138 59.554709 Q 211.773418 61.181365 204.677161 62.037137 C 203.669965 62.158735 202.527406 62.367516 201.618864 62.730015 Q 198.230189 64.081355 195.24531 66.233405 Z" style="fill:#04203f;"/>
		<path d="M 293.032793 65.228503 Q 295.907546 66.845982 297.885229 69.09898 Q 299.080557 70.464086 299.417819 72.370646 Q 299.424702 72.402767 299.463705 72.402767 L 299.465999 72.402767 Q 299.505002 72.402767 299.498119 72.359175 C 299.26869 70.415906 298.183488 68.993443 296.800027 67.665045 Q 302.618362 66.467423 308.590414 66.373357 Q 305.896911 70.484735 302.352223 73.926179 Q 298.284437 77.879251 292.677177 77.34468 Q 288.531384 76.947767 283.745483 75.68361 Q 277.768842 74.105134 270.596873 70.939006 Q 264.622526 68.305154 259.19881 64.592983 Q 258.074605 63.8221 256.957283 63.007625 L 259.570486 60.568788 Q 261.722536 62.202327 263.525853 63.145282 Q 269.541497 66.290762 276.539099 67.584745 Q 277.328337 67.73158 278.156578 67.628337 Q 285.663514 66.701441 293.032793 65.228503 Z" style="fill:#f54e3b;"/>
		<path d="M 197.750681 64.216718 Q 195.58716 65.416635 193.754018 67.084588 C 192.102125 68.587352 191.005451 70.202537 190.913679 72.542719 Q 190.913679 72.567956 190.952683 72.574839 L 190.954977 72.574839 Q 190.99398 72.584016 190.996274 72.53813 C 191.147698 69.849215 193.113909 67.655868 195.24531 66.233405 Q 201.233423 66.983639 207.155001 67.970187 C 207.937356 68.100962 208.806894 68.013778 209.396528 67.935772 Q 214.35909 67.279604 217.229254 66.389417 C 220.526158 65.366161 223.407793 64.446148 226.346786 62.964033 Q 227.544409 64.299313 228.487365 65.859434 Q 227.76925 66.302234 227.030487 66.742738 Q 215.588833 73.588918 202.552643 76.456787 C 200.467128 76.915647 197.961757 77.349269 196.11026 77.406626 C 191.489548 77.548872 188.332597 75.171982 185.352306 71.909493 Q 181.351054 67.529682 178.460241 62.365222 C 184.937038 61.142362 191.595085 61.888008 197.750681 64.216718 Z" style="fill:#f54e3b;"/>
		<path d="M 234.282756 69.906572 Q 234.039561 70.163534 233.477458 70.959654 Q 232.47944 72.372941 228.296938 76.851406 Q 226.296312 78.955276 224.387458 81.144034 C 221.77196 84.13809 219.392775 87.671306 217.417387 91.06457 Q 213.49414 93.429989 210.828168 94.526663 Q 204.54868 97.112334 202.990853 97.791446 Q 197.840159 100.037561 193.467231 104.015871 Q 193.382342 104.093877 193.37087 104.208592 Q 193.06114 107.08105 193.125381 110.02922 Q 192.072299 101.893647 196.378692 95.354903 C 198.133829 92.688931 200.375356 90.41299 203.018385 87.843378 Q 208.214965 82.789044 213.868111 78.533125 C 215.045084 77.645233 216.784161 76.711454 218.332811 75.926805 Q 223.410088 73.350311 224.453992 72.779031 Q 230.072723 69.700086 235.18212 65.53135 Q 235.416138 65.340924 235.280775 65.609356 Q 234.828799 66.513309 234.622312 67.575568 Q 234.390588 68.75713 234.282756 69.906572 Z" style="fill:#fac933;"/>
		<path d="M 294.799401 116.07469 Q 294.801695 115.074377 295.038008 114.312671 Q 296.136976 110.779455 296.226453 107.347188 Q 296.247102 106.518948 296.162213 106.069266 Q 296.141564 105.952256 296.047498 105.881133 C 293.22322 103.724495 290.738497 101.705515 288.127588 100.053622 Q 281.331884 95.756405 273.556515 93.512584 Q 270.844657 88.231114 267.758829 84.255099 Q 265.173157 80.926076 261.139785 76.711454 Q 258.1572 73.650864 255.479757 70.156651 Q 255.314567 67.830235 254.610218 65.636888 Q 254.527624 65.377632 254.713462 65.577236 C 254.938303 65.820431 255.133318 66.072804 255.376513 66.270113 Q 259.680613 69.771209 264.016832 72.18022 Q 267.270144 73.985831 271.867913 76.248007 C 275.123519 77.849425 278.16805 80.299733 281.334178 82.993237 Q 286.234794 87.164267 289.738184 90.839729 Q 291.266185 92.44803 292.963964 94.838687 C 297.327715 100.991989 297.685625 109.191802 294.799401 116.07469 Z" style="fill:#fac933;"/>
		<path d="M 234.282756 69.906572 L 233.860606 73.393902 C 232.816701 75.690493 231.818682 77.652116 230.334273 79.118171 Q 227.925262 81.497356 226.603748 82.947351 C 226.57851 82.974882 226.53033 82.967999 226.51427 82.933585 C 226.138006 82.112227 226.298606 81.215157 226.193069 80.526869 Q 226.170126 80.386916 225.97511 80.113895 Q 225.906282 80.019829 225.949873 79.914292 Q 226.087531 79.574736 226.349081 79.281066 Q 227.957382 77.500692 228.342824 77.037244 Q 228.363473 77.014301 228.37265 76.984476 Q 228.381827 76.956944 228.391004 76.911058 Q 228.400181 76.867466 228.354295 76.860584 L 228.296938 76.851406 Q 232.47944 72.372941 233.477458 70.959654 Q 234.039561 70.163534 234.282756 69.906572 Z" style="fill:#f54e3b;"/>
		<path d="M 261.139785 76.711454 Q 261.945083 79.301714 262.075858 81.963098 Q 262.080446 82.036515 262.029972 81.981452 C 260.791052 80.584226 259.228636 79.207648 258.226029 77.847131 Q 256.537427 75.559718 255.649535 72.684965 L 255.479757 70.156651 Q 258.1572 73.650864 261.139785 76.711454 Z" style="fill:#f54e3b;"/>
		<path d="M 261.139785 76.711454 Q 265.173157 80.926076 267.758829 84.255099 Q 270.844657 88.231114 273.556515 93.512584 C 277.241154 100.526247 280.099847 108.021711 281.017565 115.861321 Q 281.620965 120.651811 280.694069 125.577664 Q 280.492171 126.646806 280.134261 127.472753 Q 280.083787 127.589762 280.127378 127.640236 Q 280.180147 127.704477 280.331571 127.697594 Q 274.611891 128.193162 269.899407 125.839214 Q 267.880426 124.832018 266.389134 122.519368 Q 264.030598 118.857671 262.459005 114.574221 C 258.673417 104.254477 256.980226 93.381809 256.1864 82.472432 Q 255.833078 77.642939 255.649535 72.684965 Q 256.537427 75.559718 258.226029 77.847131 C 259.228636 79.207648 260.791052 80.584226 262.029972 81.981452 Q 262.080446 82.036515 262.075858 81.963098 Q 261.945083 79.301714 261.139785 76.711454 Z" style="fill:#be353e;"/>
		<path d="M 233.860606 73.393902 Q 233.904197 73.818347 233.842251 74.846192 Q 233.32374 83.149249 233.314563 83.275435 C 232.59186 93.271683 230.747246 103.692375 227.47558 113.076045 Q 225.855807 117.719701 223.623457 121.445637 C 222.866339 122.709794 221.944032 124.077195 220.773942 124.962793 Q 219.592379 125.857568 218.137795 126.399022 Q 213.838285 127.998146 209.293284 127.729714 Q 209.389645 127.539287 209.233633 127.15614 Q 209.079915 126.770698 209.040912 126.623863 Q 208.327386 123.840882 208.240203 120.961541 Q 208.21726 120.142477 208.263146 117.6394 Q 209.045501 109.912211 211.86519 102.682885 Q 214.203078 96.685595 217.417387 91.06457 C 219.392775 87.671306 221.77196 84.13809 224.387458 81.144034 Q 226.296312 78.955276 228.296938 76.851406 L 228.354295 76.860584 Q 228.400181 76.867466 228.391004 76.911058 Q 228.381827 76.956944 228.37265 76.984476 Q 228.363473 77.014301 228.342824 77.037244 Q 227.957382 77.500692 226.349081 79.281066 Q 226.087531 79.574736 225.949873 79.914292 Q 225.906282 80.019829 225.97511 80.113895 Q 226.170126 80.386916 226.193069 80.526869 C 226.298606 81.215157 226.138006 82.112227 226.51427 82.933585 C 226.53033 82.967999 226.57851 82.974882 226.603748 82.947351 Q 227.925262 81.497356 230.334273 79.118171 C 231.818682 77.652116 232.816701 75.690493 233.860606 73.393902 Z" style="fill:#be353e;"/>
		<path d="M 217.417387 91.06457 Q 214.203078 96.685595 211.86519 102.682885 Q 209.045501 109.912211 208.263146 117.6394 C 204.56474 118.153322 201.531681 119.642321 198.640868 122.016917 C 195.557335 118.807197 193.641597 114.411326 193.125381 110.02922 Q 193.06114 107.08105 193.37087 104.208592 Q 193.382342 104.093877 193.467231 104.015871 Q 197.840159 100.037561 202.990853 97.791446 Q 204.54868 97.112334 210.828168 94.526663 Q 213.49414 93.429989 217.417387 91.06457 Z" style="fill:#f9ae3a;"/>
		<path d="M 294.799401 116.07469 Q 293.181922 119.82357 290.19016 122.624905 Q 288.868646 120.287018 287.526483 119.18805 C 285.635983 117.6394 283.488522 116.671207 281.017565 115.861321 C 280.099847 108.021711 277.241154 100.526247 273.556515 93.512584 Q 281.331884 95.756405 288.127588 100.053622 C 290.738497 101.705515 293.22322 103.724495 296.047498 105.881133 Q 296.141564 105.952256 296.162213 106.069266 Q 296.247102 106.518948 296.226453 107.347188 Q 296.136976 110.779455 295.038008 114.312671 Q 294.801695 115.074377 294.799401 116.07469 Z" style="fill:#f9ae3a;"/>
		<path d="M 290.19016 122.624905 Q 285.991599 126.605509 280.331571 127.697594 Q 280.180147 127.704477 280.127378 127.640236 Q 280.083787 127.589762 280.134261 127.472753 Q 280.492171 126.646806 280.694069 125.577664 Q 281.620965 120.651811 281.017565 115.861321 C 283.488522 116.671207 285.635983 117.6394 287.526483 119.18805 Q 288.868646 120.287018 290.19016 122.624905 Z" style="fill:#f98d3e;"/>
		<path d="M 208.263146 117.6394 Q 208.21726 120.142477 208.240203 120.961541 Q 208.327386 123.840882 209.040912 126.623863 Q 209.079915 126.770698 209.233633 127.15614 Q 209.389645 127.539287 209.293284 127.729714 Q 203.029856 126.486205 198.640868 122.016917 C 201.531681 119.642321 204.56474 118.153322 208.263146 117.6394 Z" style="fill:#f98d3e;"/>
		<path d="M 318.985869 30.479096 C 312.784387 29.09793 306.153872 29.595792 300.186408 31.562004 C 297.387367 32.484311 294.267124 34.062787 293.372349 37.109612 Q 293.358583 37.153203 293.31958 37.127966 L 293.253046 37.08208 Q 293.211748 37.052254 293.220925 37.00178 Q 293.785322 33.902186 296.506357 32.344359 C 299.601362 30.573162 303.508549 29.646267 307.011938 29.331948 C 311.036134 28.971744 315.181926 29.212645 319.027166 30.35291 Q 319.038638 30.357499 319.038638 30.371264 L 319.038638 30.435505 Q 319.040932 30.492862 318.985869 30.479096 Z" style="fill:#04203f;"/>
	</g>
	<g id="surface4">
	</g>
</svg>
