<?xml version="1.0" encoding="utf-8"?>
<svg xmlns="http://www.w3.org/2000/svg" width="490pt" height="280pt" viewBox="0 0 490 280" version="1.1" xmlns:xlink="http://www.w3.org/1999/xlink">
	<g id="surface2">
		<path vector-effect="non-scaling-stroke" d="M 314.755424 22.200388 Q 314.418544 22.360234 314.299949 22.877585 Q 313.981975 24.274949 313.700096 25.665438 C 313.486968 26.712172 312.852741 28.119848 312.19445 29.21127 Q 311.893664 29.707996 311.613504 30.213316" style="fill:none;stroke-width:0.50;stroke:#fc9806;"/>
		<path vector-effect="non-scaling-stroke" d="M 310.929432 31.144892 Q 310.834899 30.840669 310.956932 30.455663 Q 311.132247 29.91253 311.149435 29.812841 Q 311.921165 25.717001 312.081011 21.555848 C 312.156637 19.622226 312.223669 18.551429 312.072417 17.054377 Q 312.03976 16.724372 311.878195 17.013126 Q 311.419282 17.8347 310.870993 18.958779 C 310.422393 19.878323 309.702226 21.129591 309.329252 21.782726 C 308.868621 22.59055 308.047046 23.247122 307.39735 23.984476 Q 300.670065 31.614117 291.967909 36.880443" style="fill:none;stroke-width:0.50;stroke:#f95906;"/>
		<path vector-effect="non-scaling-stroke" d="M 291.967909 36.880443 Q 290.897112 37.421857 289.846941 37.983896 Q 289.351934 38.248588 288.65583 38.377496 Q 288.308638 38.442809 288.016446 38.631874 Q 287.459563 38.994536 286.85971 39.224852" style="fill:none;stroke-width:0.50;stroke:#e4530b;"/>
		<path vector-effect="non-scaling-stroke" d="M 273.802179 55.616806 Q 273.611395 55.812746 273.554675 56.20119 Q 273.460143 56.864637 273.458424 57.16886 Q 273.448111 58.863572 273.147326 61.25095 Q 272.894666 63.248166 271.818713 65.030535 Q 270.907762 66.543057 269.237113 67.256348 C 267.385993 68.048704 265.644874 67.378381 264.427982 65.939767 C 264.393606 65.900235 264.328293 65.917423 264.319699 65.968986 C 263.912349 68.2498 262.717801 70.589053 261.275749 72.355953 Q 259.550099 74.468327 256.830997 75.380997 C 256.801778 75.391309 256.781153 75.415372 256.774278 75.444591 L 256.229426 77.940252" style="fill:none;stroke-width:0.50;stroke:#e4400b;"/>
		<path vector-effect="non-scaling-stroke" d="M 256.229426 77.940252 L 255.440509 80.322474" style="fill:none;stroke-width:0.50;stroke:#e4530b;"/>
		<path vector-effect="non-scaling-stroke" d="M 255.440509 80.322474 Q 254.12049 83.521114 252.192024 86.221309 Q 252.14218 86.29006 252.152493 86.382874" style="fill:none;stroke-width:0.50;stroke:#e56d0d;"/>
		<path vector-effect="non-scaling-stroke" d="M 249.026041 90.270742 Q 248.983072 90.200272 248.866195 90.332618 Q 246.681633 92.771559 244.211753 94.997372" style="fill:none;stroke-width:0.50;stroke:#e4400b;"/>
		<path vector-effect="non-scaling-stroke" d="M 245.060828 76.333198 Q 245.088329 76.281635 245.122704 76.273041 C 245.188017 76.257572 245.251612 76.281635 245.277394 76.333198 L 246.090374 78.002128 C 246.123031 78.067441 246.195219 78.101817 246.265689 78.086348 Q 249.079323 77.462433 250.258403 75.171306 Q 250.839349 74.047227 251.098884 71.860946 Q 251.550921 68.052141 250.822161 64.203805 Q 250.636533 63.217228 250.297935 61.893771 C 250.265278 61.768301 250.395905 61.663456 250.512782 61.721894 Q 251.879207 62.405966 253.434699 62.230651 Q 254.998784 62.055336 256.492399 61.660018" style="fill:none;stroke-width:0.50;stroke:#e2220b;"/>
		<path vector-effect="non-scaling-stroke" d="M 256.492399 61.660018 Q 257.939607 61.218293 259.560412 60.396719" style="fill:none;stroke-width:0.50;stroke:#e4530b;"/>
		<path vector-effect="non-scaling-stroke" d="M 291.175554 47.294499 L 292.777452 45.62385 Q 292.837609 45.561974 292.818702 45.477754 C 292.179318 42.712246 292.007441 39.824704 291.967909 36.880443" style="fill:none;stroke-width:0.50;stroke:#e2220b;"/>
		<path vector-effect="non-scaling-stroke" d="M 261.158872 87.501796 Q 260.514332 87.58086 260.323548 87.654767 Q 259.453848 87.995084 257.018344 89.124319 Q 256.760528 89.244633 256.115987 89.229164" style="fill:none;stroke-width:0.50;stroke:#fccc48;"/>
		<path vector-effect="non-scaling-stroke" d="M 256.492399 61.660018 Q 256.47693 60.752505 256.105674 59.992807" style="fill:none;stroke-width:0.50;stroke:#f95906;"/>
		<path vector-effect="non-scaling-stroke" d="M 224.21381 53.743342 Q 225.544141 56.302597 227.639328 58.289501 C 228.921534 59.506393 230.341242 60.523908 231.992984 60.946727 C 232.060016 60.963914 232.123611 60.908913 232.118455 60.840162 Q 231.879545 58.047154 232.159705 55.291958 Q 232.178612 55.111486 232.154549 54.583823 Q 232.13908 54.198817 232.261113 53.865375" style="fill:none;stroke-width:0.50;stroke:#f97307;"/>
		<path vector-effect="non-scaling-stroke" d="M 235.559442 57.504021 Q 237.214622 56.297441 237.934788 55.511961 Q 238.967772 54.387882 240.043725 53.301617" style="fill:none;stroke-width:0.50;stroke:#fccc48;"/>
		<path vector-effect="non-scaling-stroke" d="M 240.043725 53.301617 C 239.983568 53.624746 239.964661 53.97022 239.864972 54.267568 Q 239.144806 56.441818 238.778707 58.330751 Q 237.522282 64.808813 240.899675 70.308892 C 241.485777 71.262812 242.338289 72.288921 243.113456 73.28581 Q 244.23066 74.724425 245.060828 76.333198" style="fill:none;stroke-width:0.50;stroke:#f97307;"/>
		<path vector-effect="non-scaling-stroke" d="M 245.060828 76.333198 Q 246.018186 78.177443 246.205532 80.028563 Q 246.564756 83.605334 245.559273 87.176947 Q 245.071141 88.907754 244.500508 90.614497 C 244.158471 91.637168 243.589557 94.022827 244.211753 94.997372" style="fill:none;stroke-width:0.50;stroke:#e56d0d;"/>
		<path vector-effect="non-scaling-stroke" d="M 244.211753 94.997372 Q 244.856294 96.03895 245.597086 97.185373 Q 246.408348 98.441797 247.168046 100.392606 Q 248.221655 103.101395 248.7751 105.780965" style="fill:none;stroke-width:0.50;stroke:#fc9108;"/>
		<path vector-effect="non-scaling-stroke" d="M 247.876181 108.331627 Q 247.355392 107.803963 247.229922 107.180048 Q 246.788197 104.978297 246.329284 103.780311 C 245.741463 102.245445 244.703323 100.7948 243.773466 99.485093 C 242.590949 97.816163 241.569997 96.073325 241.109365 94.172361 Q 240.739829 92.642651 240.480294 90.588715 Q 240.337635 89.466355 240.109038 89.187914 Q 239.514342 88.467747 239.06918 87.742424 Q 239.024491 87.668517 238.943709 87.639298 L 238.789019 87.58086" style="fill:none;stroke-width:0.50;stroke:#fca408;"/>
		<path vector-effect="non-scaling-stroke" d="M 231.843451 89.617608 Q 230.997813 89.169007 230.191708 88.734157 Q 228.974816 88.081023 226.49978 87.448514" style="fill:none;stroke-width:0.50;stroke:#fccc48;"/>
		<path vector-effect="non-scaling-stroke" d="M 227.11682 86.286622 Q 228.146366 85.44786 228.993722 84.285968" style="fill:none;stroke-width:0.50;stroke:#fca408;"/>
		<path vector-effect="non-scaling-stroke" d="M 228.993722 84.285968 Q 229.925298 83.244391 230.896406 82.247502 Q 232.278301 80.827794 233.78051 79.609182 C 233.830354 79.567932 233.845823 79.497462 233.820042 79.439024 L 232.665025 76.902112" style="fill:none;stroke-width:0.50;stroke:#fc9108;"/>
		<path vector-effect="non-scaling-stroke" d="M 232.665025 76.902112 Q 232.534398 76.486169 232.431272 76.128664 Q 231.989546 74.59036 231.922514 73.562533 Q 231.903608 73.268622 231.726574 73.194715 C 228.888877 72.012198 226.967287 69.263877 226.329621 66.323054 Q 226.204151 65.743827 226.004773 64.592248 C 225.977273 64.432402 225.77102 64.384276 225.676487 64.516622 C 225.358514 64.961784 225.153979 65.274601 225.038822 65.788515 Q 224.743192 67.11369 224.303186 68.217144 C 224.050526 68.851371 223.548644 69.894668 222.730507 69.574976 C 221.322831 69.028405 220.258909 67.842451 219.524992 66.543057 Q 218.057159 63.945988 217.294023 60.924382" style="fill:none;stroke-width:0.50;stroke:#fccc48;"/>
		<path vector-effect="non-scaling-stroke" d="M 217.022456 59.752178 Q 217.013862 59.676552 216.9898 59.628426" style="fill:none;stroke-width:0.50;stroke:#e56d0d;"/>
		<path vector-effect="non-scaling-stroke" d="M 198.605785 48.494204 Q 198.054058 47.698411 197.63124 47.392469 Q 196.065436 46.264953 195.903871 46.161826 Q 192.999142 44.300393 190.116757 41.787545 C 187.12437 39.178445 184.804024 35.86121 183.169469 32.219126 C 182.136486 29.91253 181.600228 27.495933 181.198035 25.012304 C 181.034751 23.994789 180.070519 23.266028 179.637387 22.642113 Q 178.516746 21.024746 177.968457 19.177063 C 177.956426 19.134094 177.913456 19.106594 177.870487 19.115187 Q 177.839549 19.118625 177.818924 19.135813 Q 177.793142 19.159876 177.793142 19.238939 C 177.787986 19.952231 177.775954 20.629428 177.657359 21.368501 Q 177.007662 25.414497 177.72611 29.512056" style="fill:none;stroke-width:0.50;stroke:#fcb208;"/>
		<path vector-effect="non-scaling-stroke" d="M 260.375111 86.320998 Q 259.438379 85.246763 258.45524 84.160498 C 257.656009 83.277048 256.932405 82.357503 256.181301 81.444834 Q 255.969891 81.187018 255.440509 80.322474" style="fill:none;stroke-width:0.50;stroke:#fca408;"/>
		<path vector-effect="non-scaling-stroke" d="M 268.669918 50.524077 Q 268.308975 51.532997 267.267397 54.12491 C 266.181132 56.821667 264.424544 59.116231 261.702005 60.157809 Q 260.550426 60.597815 259.560412 60.396719" style="fill:none;stroke-width:0.50;stroke:#e4400b;"/>
		<path vector-effect="non-scaling-stroke" d="M 259.560412 60.396719 Q 259.948855 59.050918 259.979793 57.459333 Q 259.99698 56.632602 259.797603 55.642588 Q 259.531193 54.312256 259.522599 53.82928 Q 259.505411 52.990518 259.36619 51.319869 Q 259.336971 50.950333 259.25447 50.604859" style="fill:none;stroke-width:0.50;stroke:#fb7706;"/>
		<path vector-effect="non-scaling-stroke" d="M 300.59272 49.351872 C 300.438031 49.302028 300.314279 49.300309 300.193965 49.432655 Q 299.573487 50.108133 299.1902 50.941739 C 298.473471 52.502386 298.193311 53.287866 297.669085 53.947876 C 297.610646 54.021783 297.655334 54.130066 297.748148 54.142097 Q 298.738163 54.260693 299.384422 54.274443 Q 300.682097 54.301943 299.405047 54.558041 C 296.713446 55.094299 294.222941 56.718541 292.394165 58.738101 Q 292.132911 59.025136 291.457433 60.039213 Q 290.943519 60.810943 290.21304 61.587829" style="fill:none;stroke-width:0.50;stroke:#fb7706;"/>
		<path vector-effect="non-scaling-stroke" d="M 274.568752 61.441734 Q 273.671552 61.794082 273.226389 62.742846 Q 272.996074 63.234416 272.843103 63.433794" style="fill:none;stroke-width:0.50;stroke:#f45c06;"/>
		<path vector-effect="non-scaling-stroke" d="M 272.843103 63.433794 Q 272.195125 64.831157 271.806682 66.360867 C 271.402769 67.945577 271.091671 69.160751 270.603539 70.308892 Q 270.096501 71.501722 268.66648 74.040352 Q 266.672701 77.575872 263.88313 80.417006 C 263.829848 80.470289 263.864224 80.561384 263.93985 80.568259 Q 263.965631 80.571696 264.003444 80.569977" style="fill:none;stroke-width:0.50;stroke:#e4400b;"/>
		<path vector-effect="non-scaling-stroke" d="M 264.003444 80.569977 L 259.954011 82.780322 Q 259.892135 82.812978 259.935105 82.757978 C 261.702005 80.418725 263.138901 77.70478 264.474389 74.961616 Q 264.510483 74.885989 264.434857 74.923803 Q 260.57277 76.841955 256.229426 77.940252" style="fill:none;stroke-width:0.50;stroke:#fb7706;"/>
		<path vector-effect="non-scaling-stroke" d="M 242.212818 145.409035 Q 242.816108 141.6707 242.587511 137.975334" style="fill:none;stroke-width:0.50;stroke:#f94606;"/>
		<path vector-effect="non-scaling-stroke" d="M 240.267165 52.696608 L 240.043725 53.301617" style="fill:none;stroke-width:0.50;stroke:#f98146;"/>
		<path vector-effect="non-scaling-stroke" d="M 243.357522 34.76635 Q 243.302522 35.18745 243.362679 35.598237 Q 243.414242 35.954023 243.634245 36.235902" style="fill:none;stroke-width:0.50;stroke:#f49746;"/>
		<path vector-effect="non-scaling-stroke" d="M 243.797529 36.493719 Q 243.830185 36.663877 243.938468 36.753254" style="fill:none;stroke-width:0.50;stroke:#f49746;"/>
		<path vector-effect="non-scaling-stroke" d="M 244.232379 37.172635 L 243.551744 37.248261 Q 243.462368 37.256855 243.43143 37.341075 Q 242.795483 39.065006 242.749076 40.77003 Q 242.714701 42.076299 242.805796 45.28697 Q 242.857359 47.060746 243.457211 48.772645 C 244.321755 51.230493 246.542412 53.208803 248.76135 54.478977 Q 249.020885 54.626792 251.226073 55.61165 Q 253.008442 56.407442 254.539871 57.418082 Q 254.771905 57.572772 255.328788 57.689648" style="fill:none;stroke-width:0.50;stroke:#f45c06;"/>
		<path vector-effect="non-scaling-stroke" d="M 255.679418 58.449347 L 256.105674 59.992807" style="fill:none;stroke-width:0.50;stroke:#f46f06;"/>
		<path vector-effect="non-scaling-stroke" d="M 256.105674 59.992807 Q 255.853015 60.216247 255.547073 59.949837 Q 254.103302 58.693413 252.152493 57.761837 C 251.25873 57.333862 249.906054 56.670415 248.646192 56.190877 C 247.17664 55.628838 245.81537 55.04961 244.433475 54.116316 Q 242.877984 53.066144 242.346883 51.325026 C 242.30907 51.202993 242.147505 51.175492 242.073598 51.280338 Q 241.358587 52.289258 240.267165 52.696608" style="fill:none;stroke-width:0.50;stroke:#f13e05;"/>
		<path vector-effect="non-scaling-stroke" d="M 240.267165 52.696608 C 240.497481 51.416121 240.731235 50.212978 240.786235 48.941085 C 240.806861 48.452953 240.702015 48.253575 240.490606 47.724193 Q 239.971536 46.428236 239.962942 44.700868" style="fill:none;stroke-width:0.50;stroke:#f49746;"/>
		<path vector-effect="non-scaling-stroke" d="M 216.603075 61.275012 Q 216.566981 61.931584 216.716514 62.577844 Q 216.921049 63.464731 216.924486 63.483638 C 217.249334 65.229913 217.697935 67.130878 218.450758 68.803246 Q 219.605775 71.374533 222.180499 72.627519 Q 224.720848 73.865037 228.194492 75.398184 Q 230.000924 76.195696 232.665025 76.902112" style="fill:none;stroke-width:0.50;stroke:#fb9f47;"/>
		<path vector-effect="non-scaling-stroke" d="M 228.993722 84.285968 L 228.942159 83.978308 Q 228.928409 83.895807 228.851064 83.86315 C 227.618702 83.354392 226.82291 82.730477 225.556173 81.802339 Q 224.574752 81.083891 223.63802 80.501226 C 220.750479 78.706826 218.486852 77.182272 215.661187 76.154445 C 215.559779 76.116632 215.472121 76.051319 215.410246 75.963661 C 215.009771 75.406778 214.693516 74.77255 214.291323 74.2827 Q 214.110852 74.064415 213.010836 72.713458 Q 212.41614 71.982979 211.864413 71.596255 Q 210.367361 70.547802 208.462958 69.829354 C 206.785434 69.196845 204.99619 68.641681 203.268821 68.576367 Q 202.689594 68.554023 202.139586 68.528242" style="fill:none;stroke-width:0.50;stroke:#fb7706;"/>
		<path vector-effect="non-scaling-stroke" d="M 241.181554 133.570115 Q 240.559357 133.767774 240.304979 133.992933 Q 238.013852 136.015931 235.052403 138.480654 Q 231.118128 141.75492 226.336496 143.59229 C 224.861788 144.157767 222.910978 144.810901 220.900012 145.572318 Q 220.50985 145.720133 219.975311 145.986543 Q 218.823732 146.557176 216.202601 147.543753 Q 215.552904 147.787819 215.324307 148.54408" style="fill:none;stroke-width:0.50;stroke:#fb7706;"/>
		<path vector-effect="non-scaling-stroke" d="M 215.283056 146.600146 C 216.181975 146.213421 217.239022 145.991699 218.043408 145.69607 Q 221.047827 144.589179 223.027855 143.470257 Q 224.40975 142.688214 225.410077 141.387102 C 228.166991 137.801738 230.59562 134.37622 232.788777 130.730699 Q 233.801135 129.048018 234.519583 127.980659 Q 234.911463 127.399713 234.67771 126.902987" style="fill:none;stroke-width:0.50;stroke:#fb7706;"/>
		<path vector-effect="non-scaling-stroke" d="M 241.009676 113.60139 Q 240.958113 113.185446 241.021708 113.051382 Q 243.398773 107.953496 242.231725 102.345134 Q 241.547653 99.058837 240.712328 96.618177 C 240.304979 95.428785 239.947473 94.088141 239.730908 93.297504 Q 239.602 92.817966 239.235901 93.063751 C 239.1809 93.099845 239.139649 93.154846 239.120743 93.218441 L 237.970882 97.095996" style="fill:none;stroke-width:0.50;stroke:#fb7706;"/>
		<path vector-effect="non-scaling-stroke" d="M 237.970882 97.095996 L 237.800724 99.223839" style="fill:none;stroke-width:0.50;stroke:#f95906;"/>
		<path vector-effect="non-scaling-stroke" d="M 237.800724 99.223839 L 236.300233 94.504084 Q 236.272733 94.418145 236.24867 94.504084 Q 235.22428 98.244138 234.318486 101.929191 C 233.166907 106.619727 231.406882 111.052447 229.000597 115.244539 Q 228.383557 116.32221 227.433075 117.413632 Q 225.717738 119.383348 224.18459 120.8254 Q 221.145797 123.682004 217.407462 126.712203 C 215.915565 127.922221 213.966475 129.324741 212.698019 130.263192 Q 211.407219 131.218831 209.435785 133.136983 C 208.86687 133.690429 208.16561 134.297156 207.612165 134.591067 Q 206.022298 135.433266 204.427275 136.443906" style="fill:none;stroke-width:0.50;stroke:#fb7706;"/>
		<path vector-effect="non-scaling-stroke" d="M 197.619208 137.622985 Q 198.543909 137.102197 200.382998 136.387186 Q 201.479576 135.96093 204.033676 134.493097 Q 206.022298 133.35183 207.861387 131.985404 Q 208.356394 131.617586 208.878902 130.811481 Q 209.255313 130.232254 208.86687 129.778498" style="fill:none;stroke-width:0.50;stroke:#fb7706;"/>
		<path vector-effect="non-scaling-stroke" d="M 281.828857 68.450897 C 279.788671 68.751682 277.530201 69.592163 276.057211 71.078903 Q 272.660913 74.500984 271.961371 75.145524 C 269.730402 77.197741 267.090364 78.775577 264.003444 80.569977" style="fill:none;stroke-width:0.50;stroke:#e4530b;"/>
		<path vector-effect="non-scaling-stroke" d="M 285.732194 68.433709 L 281.828857 68.450897" style="fill:none;stroke-width:0.50;stroke:#f46f06;"/>
		<path vector-effect="non-scaling-stroke" d="M 281.828857 68.450897 L 281.895889 68.413084 C 281.931983 68.392459 281.931983 68.340895 281.897608 68.32027 Q 281.093221 67.842451 280.773529 67.667136 C 279.933048 67.203066 279.1871 66.603214 278.477246 66.058363 C 277.528483 65.329602 276.811753 64.92569 275.69455 64.466777 Q 274.111558 63.81708 272.843103 63.433794" style="fill:none;stroke-width:0.50;stroke:#dd380b;"/>
		<path vector-effect="non-scaling-stroke" d="M 303.504325 47.619347 C 304.416994 46.350892 305.358883 45.245719 306.118581 43.738354 C 307.17219 41.648324 307.84595 39.257508 308.330644 36.969819" style="fill:none;stroke-width:0.50;stroke:#fb7706;"/>
		<path vector-effect="non-scaling-stroke" d="M 245.915059 28.74892 Q 246.253658 28.6922 245.851465 28.406884" style="fill:none;stroke-width:0.50;stroke:#e47b4c;"/>
		<path vector-effect="non-scaling-stroke" d="M 243.99175 36.789348 L 243.357522 34.76635" style="fill:none;stroke-width:0.50;stroke:#e47b4c;"/>
		<path vector-effect="non-scaling-stroke" d="M 243.357522 34.76635 L 243.226896 33.193671" style="fill:none;stroke-width:0.50;stroke:#dd380b;"/>
		<path vector-effect="non-scaling-stroke" d="M 226.757596 132.29994 Q 226.64072 131.478366 227.269791 130.909451 Q 227.639328 130.576009 227.809486 130.466007 Q 228.916377 129.74756 229.839359 128.80739 Q 229.987174 128.656138 230.253584 128.272851 C 230.889531 127.356744 231.546103 126.428606 232.157986 125.347496 Q 233.445349 123.068401 233.490037 122.992775 Q 234.981933 120.411175 236.951649 116.145177 Q 237.481032 114.998754 237.958851 113.331542 Q 239.120743 109.273515 239.223869 105.000641 Q 239.321839 100.909957 238.242449 97.015214 C 238.216667 96.920681 238.087759 96.903494 238.037915 96.987714 L 237.970882 97.095996" style="fill:none;stroke-width:0.50;stroke:#f94606;"/>
		<path vector-effect="non-scaling-stroke" d="M 222.335189 135.209826 Q 221.535959 135.264826 220.9447 135.515768 Q 217.036206 137.176104 213.816941 138.246901 Q 213.199901 138.451435 212.565673 138.599249 Q 212.478016 138.619875 212.512391 138.537373 L 214.103977 134.587629" style="fill:none;stroke-width:0.50;stroke:#e2220b;"/>
		<path vector-effect="non-scaling-stroke" d="M 237.800724 99.223839 Q 237.625409 102.733577 236.666332 106.410037 Q 235.679756 110.191341 233.863011 113.199197 Q 232.455334 115.531574 230.753747 118.03411 C 228.649967 121.127904 226.150869 123.618409 223.242702 126.201727 Q 222.792383 126.602202 221.938152 127.269086 C 221.180172 127.860345 220.035468 128.283164 219.320458 128.84864 C 218.003877 129.893655 216.178538 131.466334 214.653985 132.56635 Q 214.042101 133.008075 213.646783 133.564958" style="fill:none;stroke-width:0.50;stroke:#f94606;"/>
		<path vector-effect="non-scaling-stroke" d="M 188.110947 45.661663 Q 188.109228 45.938386 188.248449 46.215108 Q 188.437514 46.59152 188.477046 46.735897 C 188.719393 47.634816 189.035648 48.461547 189.735189 48.96171 Q 191.376619 50.135634 193.234614 50.77158 Q 193.286177 50.788768 193.311959 50.836894 Q 193.327428 50.862675 193.327428 50.883301 C 193.325709 50.952052 193.267271 51.005334 193.19852 50.99674 Q 191.553653 50.802518 190.005036 50.115008" style="fill:none;stroke-width:0.50;stroke:#fc8506;"/>
		<path vector-effect="non-scaling-stroke" d="M 190.005036 50.115008 Q 189.236744 49.522031 188.423764 49.221245" style="fill:none;stroke-width:0.50;stroke:#fb7706;"/>
		<path vector-effect="non-scaling-stroke" d="M 190.005036 50.115008 C 189.748939 50.938301 190.075506 51.359401 190.544732 52.229101 C 191.232242 53.502713 192.041785 54.726481 193.012892 55.613369 C 193.724465 56.263065 194.850262 57.039952 195.628867 57.677617 C 197.146545 58.920291 198.184685 59.807179 199.975649 60.8161 C 200.272997 60.98454 200.496437 61.225168 200.718159 61.472672" style="fill:none;stroke-width:0.50;stroke:#fc9806;"/>
		<path vector-effect="non-scaling-stroke" d="M 244.536602 32.696945 Q 244.30113 32.518193 244.077689 32.52163 C 243.996907 32.523349 243.960812 32.621319 244.020969 32.674601 Q 244.070814 32.719289 244.086283 32.70382" style="fill:none;stroke-width:0.50;stroke:#e47b4c;"/>
		<path vector-effect="non-scaling-stroke" d="M 240.992488 46.873399 Q 240.830924 47.779193 241.389525 48.217481 Q 241.707499 48.466703 242.348602 48.382483 Q 242.437978 48.370452 242.444853 48.279357 C 242.57548 46.416205 242.39329 44.692274 242.217975 42.863498 Q 242.052972 41.148161 242.176724 39.1011 Q 242.192193 38.851878 242.171568 38.740157 Q 242.162974 38.690313 242.138911 38.735001 Q 242.078754 38.850159 242.018597 39.092506 Q 241.465151 41.304569 241.348275 43.57507 C 241.277805 44.941496 241.210773 45.644475 240.992488 46.873399" style="fill:none;stroke-width:0.50;stroke:#f46f06;"/>
		<path d="M 314.755424 22.200388 Q 314.418544 22.360234 314.299949 22.877585 Q 313.981975 24.274949 313.700096 25.665438 C 313.486968 26.712172 312.852741 28.119848 312.19445 29.21127 Q 311.893664 29.707996 311.613504 30.213316 Q 311.221623 30.460819 310.929432 31.144892 Q 310.834899 30.840669 310.956932 30.455663 Q 311.132247 29.91253 311.149435 29.812841 Q 311.921165 25.717001 312.081011 21.555848 C 312.156637 19.622226 312.223669 18.551429 312.072417 17.054377 Q 312.03976 16.724372 311.878195 17.013126 Q 311.419282 17.8347 310.870993 18.958779 C 310.422393 19.878323 309.702226 21.129591 309.329252 21.782726 C 308.868621 22.59055 308.047046 23.247122 307.39735 23.984476 Q 300.670065 31.614117 291.967909 36.880443 Q 290.897112 37.421857 289.846941 37.983896 Q 289.351934 38.248588 288.65583 38.377496 Q 288.308638 38.442809 288.016446 38.631874 Q 287.459563 38.994536 286.85971 39.224852 Q 291.842438 35.869803 295.609993 32.492411 Q 299.769427 28.764389 303.681359 23.761036 Q 309.913636 15.789358 314.822456 7.582209 C 315.558092 6.351566 316.235289 5.043579 316.623732 3.65309 Q 316.661545 3.519026 316.66842 3.510432 Q 316.835142 3.326523 316.874673 3.606683 Q 317.135927 5.423428 317.629215 7.812525 C 318.426727 11.684924 317.806249 15.251382 316.247321 18.945029 C 315.850284 19.885199 315.133555 21.115841 314.717611 21.865227 Q 314.580109 22.112731 314.755424 22.200388 Z" style="fill:#fb8a06;"/>
		<path d="M 224.21381 53.743342 Q 225.544141 56.302597 227.639328 58.289501 C 228.921534 59.506393 230.341242 60.523908 231.992984 60.946727 C 232.060016 60.963914 232.123611 60.908913 232.118455 60.840162 Q 231.879545 58.047154 232.159705 55.291958 Q 232.178612 55.111486 232.154549 54.583823 Q 232.13908 54.198817 232.261113 53.865375 Q 232.429553 55.004922 232.623774 55.496492 Q 233.00878 56.465881 233.158313 56.921356 C 233.328472 57.443864 233.663633 57.925121 233.775353 58.464816 C 233.802854 58.590286 233.954106 58.64185 234.050357 58.555911 Q 234.798024 57.887308 235.559442 57.504021 Q 237.214622 56.297441 237.934788 55.511961 Q 238.967772 54.387882 240.043725 53.301617 C 239.983568 53.624746 239.964661 53.97022 239.864972 54.267568 Q 239.144806 56.441818 238.778707 58.330751 Q 237.522282 64.808813 240.899675 70.308892 C 241.485777 71.262812 242.338289 72.288921 243.113456 73.28581 Q 244.23066 74.724425 245.060828 76.333198 Q 246.018186 78.177443 246.205532 80.028563 Q 246.564756 83.605334 245.559273 87.176947 Q 245.071141 88.907754 244.500508 90.614497 C 244.158471 91.637168 243.589557 94.022827 244.211753 94.997372 Q 244.856294 96.03895 245.597086 97.185373 Q 246.408348 98.441797 247.168046 100.392606 Q 248.221655 103.101395 248.7751 105.780965 Q 248.133997 106.99442 247.876181 108.331627 Q 247.355392 107.803963 247.229922 107.180048 Q 246.788197 104.978297 246.329284 103.780311 C 245.741463 102.245445 244.703323 100.7948 243.773466 99.485093 C 242.590949 97.816163 241.569997 96.073325 241.109365 94.172361 Q 240.739829 92.642651 240.480294 90.588715 Q 240.337635 89.466355 240.109038 89.187914 Q 239.514342 88.467747 239.06918 87.742424 Q 239.024491 87.668517 238.943709 87.639298 L 238.789019 87.58086 L 237.77838 85.805365 C 237.714785 85.691926 237.563533 85.666144 237.463844 85.750364 Q 236.52883 86.546157 235.626474 87.230229 Q 233.835511 88.58978 231.843451 89.617608 Q 230.997813 89.169007 230.191708 88.734157 Q 228.974816 88.081023 226.49978 87.448514 L 227.11682 86.286622 Q 228.146366 85.44786 228.993722 84.285968 Q 229.925298 83.244391 230.896406 82.247502 Q 232.278301 80.827794 233.78051 79.609182 C 233.830354 79.567932 233.845823 79.497462 233.820042 79.439024 L 232.665025 76.902112 Q 232.534398 76.486169 232.431272 76.128664 Q 231.989546 74.59036 231.922514 73.562533 Q 231.903608 73.268622 231.726574 73.194715 C 228.888877 72.012198 226.967287 69.263877 226.329621 66.323054 Q 226.204151 65.743827 226.004773 64.592248 C 225.977273 64.432402 225.77102 64.384276 225.676487 64.516622 C 225.358514 64.961784 225.153979 65.274601 225.038822 65.788515 Q 224.743192 67.11369 224.303186 68.217144 C 224.050526 68.851371 223.548644 69.894668 222.730507 69.574976 C 221.322831 69.028405 220.258909 67.842451 219.524992 66.543057 Q 218.057159 63.945988 217.294023 60.924382 L 217.022456 59.752178 Q 217.013862 59.676552 216.9898 59.628426 C 216.802453 57.96809 216.298852 55.824778 215.224618 54.595854 Q 214.387575 53.636778 213.290996 53.054113 C 211.470814 52.088162 209.226094 51.481434 206.904029 50.807674 C 204.157427 50.013601 201.359262 49.315778 198.605785 48.494204 Q 198.054058 47.698411 197.63124 47.392469 Q 196.065436 46.264953 195.903871 46.161826 Q 192.999142 44.300393 190.116757 41.787545 C 187.12437 39.178445 184.804024 35.86121 183.169469 32.219126 C 182.136486 29.91253 181.600228 27.495933 181.198035 25.012304 C 181.034751 23.994789 180.070519 23.266028 179.637387 22.642113 Q 178.516746 21.024746 177.968457 19.177063 C 177.956426 19.134094 177.913456 19.106594 177.870487 19.115187 Q 177.839549 19.118625 177.818924 19.135813 Q 177.793142 19.159876 177.793142 19.238939 C 177.787986 19.952231 177.775954 20.629428 177.657359 21.368501 Q 177.007662 25.414497 177.72611 29.512056 Q 176.645001 28.70595 175.575923 27.92047 Q 174.207778 26.916706 173.479018 26.294509 Q 170.9232 24.115103 168.821138 21.624599 C 167.129864 19.620507 165.553747 17.044064 165.070772 14.474496 Q 164.52592 11.580079 165.393901 8.589411 Q 165.471246 8.319563 165.534841 8.242219 Q 165.730781 8.005028 165.78922 8.297219 Q 165.976566 9.223639 166.112349 9.658489 C 167.623152 14.49684 171.20336 18.931279 175.443577 21.787882 C 175.484828 21.815383 175.541547 21.798195 175.558735 21.751788 Q 175.587954 21.679599 175.548422 21.574754 Q 174.515439 18.879715 173.874336 16.808592 Q 172.158999 11.255231 173.523706 5.727651 C 173.695583 5.033266 174.016994 4.28388 174.252466 3.556839 Q 174.305748 3.393555 174.328092 3.565433 C 174.52747 5.175925 175.247637 6.748603 176.100149 8.269719 Q 179.123474 13.656359 182.385708 18.611586 Q 185.864508 23.8951 189.166274 27.705624 Q 192.870234 31.980216 196.612006 35.044792 Q 199.456579 37.373731 200.468937 38.081866 Q 201.469264 38.784845 203.48023 39.857361 C 207.421381 41.959422 212.196137 44.238518 215.399933 45.948698 C 217.022456 46.814961 219.114205 48.031853 220.480631 49.300309 Q 222.087685 50.792205 222.916135 52.015973 Q 223.797866 53.318804 224.21381 53.743342 Z" style="fill:#fcbe09;"/>
		<path d="M 232.261113 53.865375 Q 232.13908 54.198817 232.154549 54.583823 Q 232.178612 55.111486 232.159705 55.291958 Q 231.879545 58.047154 232.118455 60.840162 C 232.123611 60.908913 232.060016 60.963914 231.992984 60.946727 C 230.341242 60.523908 228.921534 59.506393 227.639328 58.289501 Q 225.544141 56.302597 224.21381 53.743342 Q 223.433486 51.735813 222.694413 50.35048 C 220.472037 46.194483 216.039317 43.997889 211.976134 41.854577 C 205.365726 38.363746 198.93579 34.560097 193.837904 29.030799 Q 191.680842 26.689828 190.30926 24.49839 C 189.063148 22.50633 188.511421 20.650053 188.196885 18.276425 Q 187.863443 15.742951 187.915006 12.267589 Q 187.959695 9.313015 188.404857 5.686401 Q 188.432358 5.461241 188.51314 5.320302 Q 188.612829 5.144987 188.655798 5.342646 C 189.559874 9.539894 191.06552 13.852299 193.265552 17.52704 C 196.127312 22.305233 199.755645 26.337479 204.373993 29.508618 Q 207.318254 31.529897 210.400017 33.13867 Q 214.971958 35.529486 219.861872 37.322168 Q 220.379223 37.511233 220.69204 37.634985 C 222.830196 38.480622 224.798193 39.107975 225.853521 39.66142 C 228.105116 40.843937 229.536855 42.698495 230.370461 45.056654 Q 231.389694 47.942477 231.845169 49.968912 Q 232.211268 51.596592 232.261113 53.865375 Z" style="fill:#f62805;"/>
		<path d="M 268.669918 50.524077 Q 268.308975 51.532997 267.267397 54.12491 C 266.181132 56.821667 264.424544 59.116231 261.702005 60.157809 Q 260.550426 60.597815 259.560412 60.396719 Q 259.948855 59.050918 259.979793 57.459333 Q 259.99698 56.632602 259.797603 55.642588 Q 259.531193 54.312256 259.522599 53.82928 Q 259.505411 52.990518 259.36619 51.319869 Q 259.336971 50.950333 259.25447 50.604859 C 259.713383 48.214043 260.509175 45.797446 261.738099 43.690228 Q 263.381248 40.874875 266.430354 39.709546 Q 270.534788 38.142024 274.463907 36.091525 Q 278.435996 34.018683 281.488539 31.859902 Q 288.330982 27.021551 293.22949 20.228954 C 294.374194 18.640806 295.477647 16.885937 296.208126 15.14138 Q 297.349393 12.42056 297.945807 9.318172 C 298.114247 8.439878 298.114247 7.487677 298.133154 6.57157 Q 298.136591 6.391098 298.207061 6.281097 C 298.258624 6.198595 298.384095 6.219221 298.408158 6.313753 C 298.62988 7.164547 298.712381 8.414096 298.846445 9.247702 Q 299.006291 10.235997 299.441141 13.55667 Q 300.016931 17.946421 298.973635 22.233045 C 298.310188 24.957303 296.76329 27.420307 294.824513 29.560181 Q 291.223679 33.535707 286.497049 37.045445 Q 282.743245 39.831579 278.628498 41.801295 C 275.998773 43.061157 273.712803 44.23508 271.677773 46.067294 Q 269.563681 47.96654 268.669918 50.524077 Z" style="fill:#fb6406;"/>
		<path d="M 311.613504 30.213316 Q 311.893664 29.707996 312.19445 29.21127 C 312.852741 28.119848 313.486968 26.712172 313.700096 25.665438 Q 313.981975 24.274949 314.299949 22.877585 Q 314.418544 22.360234 314.755424 22.200388 Q 317.649841 20.002075 319.224238 18.463772 Q 322.230375 15.522948 324.401188 11.035228 C 324.79135 10.230841 325.086979 9.273483 325.399796 8.417534 Q 325.525266 8.073779 325.554486 8.438159 Q 325.638706 9.472861 325.801989 10.846162 Q 325.88449 11.531953 325.812302 13.377917 C 325.717769 15.809984 325.004478 17.781418 323.560707 19.888636 Q 320.545976 24.290418 316.405448 27.20546 Q 314.525108 28.527198 311.613504 30.213316 Z" style="fill:#fca506;"/>
		<path d="M 310.929432 31.144892 Q 310.865837 31.466303 310.695678 31.810058 C 308.655493 35.950586 305.738732 39.140632 301.88352 41.691293 Q 297.497207 44.590866 292.921829 46.600114 Q 292.081348 46.969651 291.175554 47.294499 L 292.777452 45.62385 Q 292.837609 45.561974 292.818702 45.477754 C 292.179318 42.712246 292.007441 39.824704 291.967909 36.880443 Q 300.670065 31.614117 307.39735 23.984476 C 308.047046 23.247122 308.868621 22.59055 309.329252 21.782726 C 309.702226 21.129591 310.422393 19.878323 310.870993 18.958779 Q 311.419282 17.8347 311.878195 17.013126 Q 312.03976 16.724372 312.072417 17.054377 C 312.223669 18.551429 312.156637 19.622226 312.081011 21.555848 Q 311.921165 25.717001 311.149435 29.812841 Q 311.132247 29.91253 310.956932 30.455663 Q 310.834899 30.840669 310.929432 31.144892 Z" style="fill:#f62805;"/>
		<path d="M 198.605785 48.494204 C 195.027296 47.445751 191.469433 46.230577 188.275949 44.420708 Q 186.149825 43.214128 183.812291 40.984877 Q 182.016172 39.26954 180.694434 37.172635 C 179.931298 35.960898 179.216288 34.21978 178.70753 32.977106 Q 178.069865 31.414739 177.72611 29.512056 Q 177.007662 25.414497 177.657359 21.368501 C 177.775954 20.629428 177.787986 19.952231 177.793142 19.238939 Q 177.793142 19.159876 177.818924 19.135813 Q 177.839549 19.118625 177.870487 19.115187 C 177.913456 19.106594 177.956426 19.134094 177.968457 19.177063 Q 178.516746 21.024746 179.637387 22.642113 C 180.070519 23.266028 181.034751 23.994789 181.198035 25.012304 C 181.600228 27.495933 182.136486 29.91253 183.169469 32.219126 C 184.804024 35.86121 187.12437 39.178445 190.116757 41.787545 Q 192.999142 44.300393 195.903871 46.161826 Q 196.065436 46.264953 197.63124 47.392469 Q 198.054058 47.698411 198.605785 48.494204 Z" style="fill:#fca506;"/>
		<path d="M 188.110947 45.661663 Q 188.109228 45.938386 188.248449 46.215108 Q 188.437514 46.59152 188.477046 46.735897 C 188.719393 47.634816 189.035648 48.461547 189.735189 48.96171 Q 191.376619 50.135634 193.234614 50.77158 Q 193.286177 50.788768 193.311959 50.836894 Q 193.327428 50.862675 193.327428 50.883301 C 193.325709 50.952052 193.267271 51.005334 193.19852 50.99674 Q 191.553653 50.802518 190.005036 50.115008 Q 189.236744 49.522031 188.423764 49.221245 Q 187.970007 48.860303 187.445781 48.61108 Q 186.500455 48.16248 186.417954 48.117792 Q 184.4448 47.019495 182.459615 45.938386 Q 181.754918 45.555099 179.568636 44.08039 Q 177.906581 42.95803 176.761877 42.103799 C 173.690427 39.812673 170.65679 37.420138 168.021908 34.754319 C 166.150162 32.85851 164.904051 30.689416 164.629047 27.953127 Q 164.323105 24.921208 164.742486 21.985541 Q 164.773424 21.768976 164.892019 21.585067 C 164.921238 21.542097 164.986552 21.548972 165.005458 21.598817 C 165.244368 22.231326 165.356088 22.929149 165.701562 23.632127 Q 166.894392 26.0556 168.743793 28.045941 Q 173.073387 32.702102 178.8055 35.589643 C 179.197381 35.787302 179.623637 36.203246 179.859109 36.653565 Q 180.048175 37.019664 181.27538 39.008286 Q 183.270877 42.248176 186.067324 44.264299 Q 186.538268 44.602898 188.110947 45.661663 Z" style="fill:#fb6406;"/>
		<path d="M 303.504325 47.619347 C 304.416994 46.350892 305.358883 45.245719 306.118581 43.738354 C 307.17219 41.648324 307.84595 39.257508 308.330644 36.969819 Q 308.935653 36.356217 309.702226 35.941992 C 312.402422 34.482752 314.612766 33.112889 317.414369 31.003952 Q 319.719245 29.269709 321.881464 26.835924 Q 323.589926 24.914333 324.901351 22.370547 Q 324.976977 22.224451 325.069791 22.214138 C 325.133386 22.207263 325.188387 22.258826 325.186668 22.322421 C 325.119636 24.924646 325.135105 26.99577 324.662442 28.93111 C 323.871805 32.181313 321.838495 34.69588 319.232832 36.775598 C 315.219493 39.977675 311.431314 42.799903 307.357818 45.219938 Q 305.40529 46.380111 303.504325 47.619347 Z" style="fill:#fb8a06;"/>
		<path d="M 245.915059 28.74892 Q 246.253658 28.6922 245.851465 28.406884 Q 245.267081 26.963113 244.129252 25.863097 Q 244.036438 25.772002 244.012376 25.701532 C 243.986594 25.622469 244.055345 25.545124 244.136127 25.56403 Q 244.830512 25.720439 245.499116 26.093413 Q 246.54585 26.679515 246.607725 27.870626 C 246.633507 28.377664 246.458192 28.896734 246.965231 29.359085 C 248.589473 30.847544 249.835584 32.389285 250.004024 34.594473 C 250.019493 34.800726 250.146683 34.964009 250.272153 35.101511 Q 251.129822 36.039962 252.051085 37.000757 C 252.217806 37.174353 252.546092 37.435607 252.702501 37.708892 Q 253.037662 38.296713 252.393121 38.09046 Q 251.277636 37.731236 250.199965 37.598891 Q 250.107151 37.586859 247.970714 37.504358 Q 245.911622 37.423576 243.99175 36.789348 L 243.357522 34.76635 L 243.226896 33.193671 Q 243.668621 31.686306 244.753167 30.651603 C 244.813325 30.594884 244.77723 30.493476 244.694729 30.486601 C 242.637356 30.313005 241.91547 28.979236 241.006239 27.380775 C 240.834361 27.076552 240.329041 26.483575 240.035131 26.332323 Q 239.134493 25.868253 238.441827 25.794346 Q 238.35245 25.785752 238.309481 25.706689 Q 238.237293 25.574343 238.278543 25.45231 C 238.29745 25.39559 238.347294 25.356058 238.407451 25.350902 C 239.706845 25.237463 240.824048 25.252932 241.815782 26.229196 Q 242.831577 27.231242 243.266427 27.757187 C 243.847373 28.458447 245.023015 28.740326 245.915059 28.74892 Z M 244.086283 32.70382 Q 244.629416 33.731648 245.64693 33.939619 C 246.255377 34.06509 247.211015 33.901806 247.941495 33.838212 C 248.092747 33.82618 248.151185 33.635396 248.036027 33.537426 C 247.333048 32.939293 246.686789 32.750227 245.683025 32.73304 Q 245.10036 32.724446 244.536602 32.696945 Q 244.30113 32.518193 244.077689 32.52163 C 243.996907 32.523349 243.960812 32.621319 244.020969 32.674601 Q 244.070814 32.719289 244.086283 32.70382 Z" style="fill:#cd1c10;"/>
		<path fill-opacity="0.996" d="M 245.915059 28.74892 Q 245.932247 28.554698 245.851465 28.406884 Q 246.253658 28.6922 245.915059 28.74892 Z" style="fill:#fcda88;"/>
		<path d="M 243.357522 34.76635 Q 243.302522 35.18745 243.362679 35.598237 Q 243.414242 35.954023 243.634245 36.235902 Q 243.65487 36.454187 243.797529 36.493719 Q 243.830185 36.663877 243.938468 36.753254 Q 243.998625 37.000757 244.232379 37.172635 L 243.551744 37.248261 Q 243.462368 37.256855 243.43143 37.341075 Q 242.795483 39.065006 242.749076 40.77003 Q 242.714701 42.076299 242.805796 45.28697 Q 242.857359 47.060746 243.457211 48.772645 C 244.321755 51.230493 246.542412 53.208803 248.76135 54.478977 Q 249.020885 54.626792 251.226073 55.61165 Q 253.008442 56.407442 254.539871 57.418082 Q 254.771905 57.572772 255.328788 57.689648 L 255.679418 58.449347 L 256.105674 59.992807 Q 255.853015 60.216247 255.547073 59.949837 Q 254.103302 58.693413 252.152493 57.761837 C 251.25873 57.333862 249.906054 56.670415 248.646192 56.190877 C 247.17664 55.628838 245.81537 55.04961 244.433475 54.116316 Q 242.877984 53.066144 242.346883 51.325026 C 242.30907 51.202993 242.147505 51.175492 242.073598 51.280338 Q 241.358587 52.289258 240.267165 52.696608 C 240.497481 51.416121 240.731235 50.212978 240.786235 48.941085 C 240.806861 48.452953 240.702015 48.253575 240.490606 47.724193 Q 239.971536 46.428236 239.962942 44.700868 Q 240.088413 42.617713 240.442481 41.266756 Q 241.339681 37.848113 241.757343 36.822005 Q 242.496416 35.001822 243.226896 33.193671 L 243.357522 34.76635 Z M 240.992488 46.873399 Q 240.830924 47.779193 241.389525 48.217481 Q 241.707499 48.466703 242.348602 48.382483 Q 242.437978 48.370452 242.444853 48.279357 C 242.57548 46.416205 242.39329 44.692274 242.217975 42.863498 Q 242.052972 41.148161 242.176724 39.1011 Q 242.192193 38.851878 242.171568 38.740157 Q 242.162974 38.690313 242.138911 38.735001 Q 242.078754 38.850159 242.018597 39.092506 Q 241.465151 41.304569 241.348275 43.57507 C 241.277805 44.941496 241.210773 45.644475 240.992488 46.873399 Z" style="fill:#ec5405;"/>
		<path fill-opacity="0.996" d="M 243.357522 34.76635 L 243.99175 36.789348 Q 243.965969 36.77216 243.938468 36.753254 Q 243.830185 36.663877 243.797529 36.493719 Q 243.770028 36.35106 243.634245 36.235902 Q 243.414242 35.954023 243.362679 35.598237 Q 243.302522 35.18745 243.357522 34.76635 Z" style="fill:#fcda88;"/>
		<path d="M 291.967909 36.880443 C 292.007441 39.824704 292.179318 42.712246 292.818702 45.477754 Q 292.837609 45.561974 292.777452 45.62385 L 291.175554 47.294499 Q 288.289731 48.459828 285.262969 49.375935 Q 281.806513 50.42095 280.668684 50.805956 C 278.508184 51.536435 276.229089 52.388947 274.635785 54.097409 Q 274.030776 54.745387 273.802179 55.616806 Q 273.611395 55.812746 273.554675 56.20119 Q 273.460143 56.864637 273.458424 57.16886 Q 273.448111 58.863572 273.147326 61.25095 Q 272.894666 63.248166 271.818713 65.030535 Q 270.907762 66.543057 269.237113 67.256348 C 267.385993 68.048704 265.644874 67.378381 264.427982 65.939767 C 264.393606 65.900235 264.328293 65.917423 264.319699 65.968986 C 263.912349 68.2498 262.717801 70.589053 261.275749 72.355953 Q 259.550099 74.468327 256.830997 75.380997 C 256.801778 75.391309 256.781153 75.415372 256.774278 75.444591 L 256.229426 77.940252 L 255.440509 80.322474 Q 254.12049 83.521114 252.192024 86.221309 Q 252.14218 86.29006 252.152493 86.382874 Q 251.999522 86.516938 251.87577 86.680222 Q 250.586689 88.368058 249.149793 89.930425 Q 249.017448 90.073083 249.026041 90.270742 Q 248.983072 90.200272 248.866195 90.332618 Q 246.681633 92.771559 244.211753 94.997372 C 243.589557 94.022827 244.158471 91.637168 244.500508 90.614497 Q 245.071141 88.907754 245.559273 87.176947 Q 246.564756 83.605334 246.205532 80.028563 Q 246.018186 78.177443 245.060828 76.333198 Q 245.088329 76.281635 245.122704 76.273041 C 245.188017 76.257572 245.251612 76.281635 245.277394 76.333198 L 246.090374 78.002128 C 246.123031 78.067441 246.195219 78.101817 246.265689 78.086348 Q 249.079323 77.462433 250.258403 75.171306 Q 250.839349 74.047227 251.098884 71.860946 Q 251.550921 68.052141 250.822161 64.203805 Q 250.636533 63.217228 250.297935 61.893771 C 250.265278 61.768301 250.395905 61.663456 250.512782 61.721894 Q 251.879207 62.405966 253.434699 62.230651 Q 254.998784 62.055336 256.492399 61.660018 Q 257.939607 61.218293 259.560412 60.396719 Q 260.550426 60.597815 261.702005 60.157809 C 264.424544 59.116231 266.181132 56.821667 267.267397 54.12491 Q 268.308975 51.532997 268.669918 50.524077 Q 269.206175 49.745472 270.232284 48.449516 C 271.260111 47.151841 272.550911 46.185889 273.829679 45.429628 Q 275.321576 44.546178 277.79833 43.423818 C 280.708216 42.105518 283.84498 40.828468 286.85971 39.224852 Q 287.459563 38.994536 288.016446 38.631874 Q 288.308638 38.442809 288.65583 38.377496 Q 289.351934 38.248588 289.846941 37.983896 Q 290.897112 37.421857 291.967909 36.880443 Z" style="fill:#cd1c10;"/>
		<path d="M 308.330644 36.969819 C 307.84595 39.257508 307.17219 41.648324 306.118581 43.738354 C 305.358883 45.245719 304.416994 46.350892 303.504325 47.619347 Q 302.203212 48.609362 300.692409 49.207495 Q 300.585845 49.248746 300.59272 49.351872 C 300.438031 49.302028 300.314279 49.300309 300.193965 49.432655 Q 299.573487 50.108133 299.1902 50.941739 C 298.473471 52.502386 298.193311 53.287866 297.669085 53.947876 C 297.610646 54.021783 297.655334 54.130066 297.748148 54.142097 Q 298.738163 54.260693 299.384422 54.274443 Q 300.682097 54.301943 299.405047 54.558041 C 296.713446 55.094299 294.222941 56.718541 292.394165 58.738101 Q 292.132911 59.025136 291.457433 60.039213 Q 290.943519 60.810943 290.21304 61.587829 Q 286.524549 61.458921 282.622931 61.185636 C 280.091176 61.006884 277.605827 60.627034 275.055166 60.388125 Q 274.879851 60.372656 274.831725 60.541096 L 274.568752 61.441734 Q 273.671552 61.794082 273.226389 62.742846 Q 272.996074 63.234416 272.843103 63.433794 Q 272.195125 64.831157 271.806682 66.360867 C 271.402769 67.945577 271.091671 69.160751 270.603539 70.308892 Q 270.096501 71.501722 268.66648 74.040352 Q 266.672701 77.575872 263.88313 80.417006 C 263.829848 80.470289 263.864224 80.561384 263.93985 80.568259 Q 263.965631 80.571696 264.003444 80.569977 L 259.954011 82.780322 Q 259.892135 82.812978 259.935105 82.757978 C 261.702005 80.418725 263.138901 77.70478 264.474389 74.961616 Q 264.510483 74.885989 264.434857 74.923803 Q 260.57277 76.841955 256.229426 77.940252 L 256.774278 75.444591 C 256.781153 75.415372 256.801778 75.391309 256.830997 75.380997 Q 259.550099 74.468327 261.275749 72.355953 C 262.717801 70.589053 263.912349 68.2498 264.319699 65.968986 C 264.328293 65.917423 264.393606 65.900235 264.427982 65.939767 C 265.644874 67.378381 267.385993 68.048704 269.237113 67.256348 Q 270.907762 66.543057 271.818713 65.030535 Q 272.894666 63.248166 273.147326 61.25095 Q 273.448111 58.863572 273.458424 57.16886 Q 273.460143 56.864637 273.554675 56.20119 Q 273.611395 55.812746 273.802179 55.616806 Q 274.446719 55.154456 274.732036 55.010079 Q 275.885334 54.429133 277.136602 54.102566 Q 277.550827 53.994283 281.180879 53.079895 Q 281.658698 52.95958 283.116219 52.462855 Q 288.370513 50.677048 293.581838 48.03701 C 294.882951 47.377 296.811416 46.289016 298.313625 45.290408 Q 301.739143 43.01475 303.698546 41.393945 Q 305.745607 39.702671 308.330644 36.969819 Z" style="fill:#fb6406;"/>
		<path d="M 244.232379 37.172635 C 245.382239 37.934052 246.635226 38.576874 247.484301 39.687202 Q 248.07384 40.457213 248.472596 41.65348 C 248.948697 43.083501 249.117136 44.690555 249.388703 46.215108 C 249.931836 49.259058 251.506233 51.146273 253.694234 54.496165 Q 254.448776 55.649463 255.328788 57.689648 Q 254.771905 57.572772 254.539871 57.418082 Q 253.008442 56.407442 251.226073 55.61165 Q 249.020885 54.626792 248.76135 54.478977 C 246.542412 53.208803 244.321755 51.230493 243.457211 48.772645 Q 242.857359 47.060746 242.805796 45.28697 Q 242.714701 42.076299 242.749076 40.77003 Q 242.795483 39.065006 243.43143 37.341075 Q 243.462368 37.256855 243.551744 37.248261 L 244.232379 37.172635 Z" style="fill:#fb6406;"/>
		<path d="M 290.21304 61.587829 Q 290.943519 60.810943 291.457433 60.039213 Q 292.132911 59.025136 292.394165 58.738101 C 294.222941 56.718541 296.713446 55.094299 299.405047 54.558041 Q 300.682097 54.301943 299.384422 54.274443 Q 298.738163 54.260693 297.748148 54.142097 C 297.655334 54.130066 297.610646 54.021783 297.669085 53.947876 C 298.193311 53.287866 298.473471 52.502386 299.1902 50.941739 Q 299.573487 50.108133 300.193965 49.432655 C 300.314279 49.300309 300.438031 49.302028 300.59272 49.351872 Q 300.812724 49.406873 300.991476 49.375935 C 302.249619 49.150776 303.671046 48.954835 304.910283 48.674675 Q 310.910525 47.321999 316.281696 44.594304 Q 319.25002 43.088657 322.244126 40.733936 Q 323.105232 40.058457 324.213841 38.83469 Q 324.296343 38.743595 324.366812 38.724688 C 324.426969 38.7075 324.483689 38.755626 324.478533 38.817502 Q 324.322124 40.410806 324.136497 41.438633 C 323.736022 43.654134 322.079123 45.701195 320.329411 47.11059 Q 318.187817 48.831084 315.711063 50.053132 Q 311.056621 52.351134 305.984517 53.401306 Q 304.604341 53.688341 300.948507 54.200536 Q 300.910694 54.205692 300.907256 54.245224 L 300.903819 54.298506 Q 300.896944 54.367257 300.967413 54.368976 Q 305.93811 54.47554 310.685366 53.82928 Q 314.250104 53.342867 317.544995 52.254883 Q 319.15205 51.7255 320.850199 50.871269 Q 320.999733 50.795643 320.936138 50.950333 C 320.747073 51.400652 320.576914 51.794251 320.270972 52.242851 Q 319.588619 53.248335 319.292989 53.638496 C 317.254523 56.336973 314.00432 57.847776 310.803961 58.638412 Q 307.806418 59.379204 306.532806 59.568269 Q 301.739143 60.283279 301.077415 60.474063 Q 298.868789 61.111729 297.189547 61.225168 Q 294.296849 61.421108 291.400713 61.570642 Q 290.974457 61.592986 290.21304 61.587829 Z" style="fill:#fb8a06;"/>
		<path d="M 188.423764 49.221245 Q 189.236744 49.522031 190.005036 50.115008 C 189.748939 50.938301 190.075506 51.359401 190.544732 52.229101 C 191.232242 53.502713 192.041785 54.726481 193.012892 55.613369 C 193.724465 56.263065 194.850262 57.039952 195.628867 57.677617 C 197.146545 58.920291 198.184685 59.807179 199.975649 60.8161 C 200.272997 60.98454 200.496437 61.225168 200.718159 61.472672 Q 198.427033 61.637674 197.26686 61.574079 C 195.419177 61.47439 193.46493 61.429702 191.54334 61.159855 C 190.585982 61.02579 189.504873 60.666566 188.678142 60.513595 Q 185.780288 59.9739 183.621507 59.606082 C 178.523621 58.738101 173.212608 57.069171 169.871309 52.895986 Q 169.254269 52.127693 168.649261 50.993302 Q 168.60801 50.915957 168.626917 50.872988 Q 168.656136 50.802518 168.724887 50.835175 C 171.765399 52.306446 175.082634 53.308492 178.44112 53.781155 Q 183.188376 54.451477 188.06454 54.420539 Q 188.514859 54.41882 188.104072 54.224599 Q 187.890944 54.12491 187.471563 54.078503 Q 183.855261 53.679747 180.916156 52.894267 Q 176.622657 51.746125 172.875728 49.595938 C 170.897418 48.459828 169.297239 47.227467 167.868937 45.513848 Q 167.047363 44.530709 166.371884 42.964905 Q 165.581248 41.132692 165.117179 39.052974 Q 165.087959 38.925785 165.094835 38.87594 Q 165.127491 38.637031 165.266712 38.83469 C 165.880315 39.70439 166.603919 40.515651 167.432368 41.199724 Q 169.549899 42.947718 171.947589 44.186954 C 176.242807 46.405892 180.971157 47.930446 185.752788 48.868897 Q 186.280452 48.973742 186.823584 49.039055 C 187.229215 49.087181 187.842818 49.272809 188.423764 49.221245 Z" style="fill:#fb8a06;"/>
		<path fill-opacity="0.996" d="M 240.267165 52.696608 L 240.043725 53.301617 Q 238.967772 54.387882 237.934788 55.511961 Q 237.214622 56.297441 235.559442 57.504021 Q 235.669443 57.242767 235.930697 57.026201 Q 236.216013 56.792448 236.284764 56.624008 C 236.381016 56.391974 236.372422 56.113532 236.437735 55.895248 C 236.783209 54.771169 237.173371 53.665997 237.630565 52.437073 Q 238.668705 49.64922 238.909333 48.664362 Q 239.381997 46.737616 239.962942 44.700868 Q 239.971536 46.428236 240.490606 47.724193 C 240.702015 48.253575 240.806861 48.452953 240.786235 48.941085 C 240.731235 50.212978 240.497481 51.416121 240.267165 52.696608 Z" style="fill:#fcda88;"/>
		<path d="M 188.110947 45.661663 Q 190.419261 47.189654 192.880547 48.31717 Q 195.592773 49.559844 197.67249 50.307511 C 201.788956 51.789095 206.036048 52.899423 210.554707 54.001158 Q 211.675348 54.274443 213.339122 55.016954 Q 215.365557 55.91931 216.030723 57.950902 Q 216.126975 58.244813 216.166506 58.997636 Q 216.195726 59.542488 216.331509 60.068433 Q 216.264477 60.150934 216.104631 60.011713 Q 216.039317 59.956712 215.955097 59.953275 Q 215.480715 59.934368 215.174773 59.980775 Q 212.043166 60.444844 208.39077 60.975946 Q 205.934641 61.333451 200.718159 61.472672 C 200.496437 61.225168 200.272997 60.98454 199.975649 60.8161 C 198.184685 59.807179 197.146545 58.920291 195.628867 57.677617 C 194.850262 57.039952 193.724465 56.263065 193.012892 55.613369 C 192.041785 54.726481 191.232242 53.502713 190.544732 52.229101 C 190.075506 51.359401 189.748939 50.938301 190.005036 50.115008 Q 191.553653 50.802518 193.19852 50.99674 C 193.267271 51.005334 193.325709 50.952052 193.327428 50.883301 Q 193.327428 50.862675 193.311959 50.836894 Q 193.286177 50.788768 193.234614 50.77158 Q 191.376619 50.135634 189.735189 48.96171 C 189.035648 48.461547 188.719393 47.634816 188.477046 46.735897 Q 188.437514 46.59152 188.248449 46.215108 Q 188.109228 45.938386 188.110947 45.661663 Z" style="fill:#fca506;"/>
		<path d="M 259.560412 60.396719 Q 257.939607 61.218293 256.492399 61.660018 Q 256.47693 60.752505 256.105674 59.992807 L 255.679418 58.449347 Q 257.343192 56.385098 258.233518 53.853343 Q 258.888371 51.993629 259.25447 50.604859 Q 259.336971 50.950333 259.36619 51.319869 Q 259.505411 52.990518 259.522599 53.82928 Q 259.531193 54.312256 259.797603 55.642588 Q 259.99698 56.632602 259.979793 57.459333 Q 259.948855 59.050918 259.560412 60.396719 Z" style="fill:#fb8a06;"/>
		<path d="M 256.105674 59.992807 Q 256.47693 60.752505 256.492399 61.660018 Q 254.998784 62.055336 253.434699 62.230651 Q 251.879207 62.405966 250.512782 61.721894 C 250.395905 61.663456 250.265278 61.768301 250.297935 61.893771 Q 250.636533 63.217228 250.822161 64.203805 Q 251.550921 68.052141 251.098884 71.860946 Q 250.839349 74.047227 250.258403 75.171306 Q 249.079323 77.462433 246.265689 78.086348 C 246.195219 78.101817 246.123031 78.067441 246.090374 78.002128 L 245.277394 76.333198 C 245.251612 76.281635 245.188017 76.257572 245.122704 76.273041 Q 245.088329 76.281635 245.060828 76.333198 Q 244.23066 74.724425 243.113456 73.28581 C 242.338289 72.288921 241.485777 71.262812 240.899675 70.308892 Q 237.522282 64.808813 238.778707 58.330751 Q 239.144806 56.441818 239.864972 54.267568 C 239.964661 53.97022 239.983568 53.624746 240.043725 53.301617 L 240.267165 52.696608 Q 241.358587 52.289258 242.073598 51.280338 C 242.147505 51.175492 242.30907 51.202993 242.346883 51.325026 Q 242.877984 53.066144 244.433475 54.116316 C 245.81537 55.04961 247.17664 55.628838 248.646192 56.190877 C 249.906054 56.670415 251.25873 57.333862 252.152493 57.761837 Q 254.103302 58.693413 255.547073 59.949837 Q 255.853015 60.216247 256.105674 59.992807 Z" style="fill:#f62805;"/>
		<path d="M 217.022456 59.752178 Q 216.993237 59.70749 216.9898 59.628426 Q 217.013862 59.676552 217.022456 59.752178 Z" style="fill:#cd1c10;"/>
		<path d="M 216.331509 60.068433 Q 216.384791 60.023744 216.393385 60.03062 C 216.398541 60.035776 216.401979 60.040932 216.403697 60.046089 Q 216.408854 60.05812 216.331509 60.068433 Z" style="fill:#cd1c10;"/>
		<path d="M 216.42776 60.24031 C 216.42776 60.245466 216.422604 60.250623 216.417448 60.250623 C 216.412291 60.250623 216.407135 60.245466 216.407135 60.24031 C 216.407135 60.235154 216.412291 60.229997 216.417448 60.229997 C 216.422604 60.229997 216.42776 60.235154 216.42776 60.24031 Z" style="fill:#ec5405;"/>
		<path d="M 216.603075 61.275012 Q 216.566981 61.931584 216.716514 62.577844 Q 216.921049 63.464731 216.924486 63.483638 C 217.249334 65.229913 217.697935 67.130878 218.450758 68.803246 Q 219.605775 71.374533 222.180499 72.627519 Q 224.720848 73.865037 228.194492 75.398184 Q 230.000924 76.195696 232.665025 76.902112 L 233.820042 79.439024 C 233.845823 79.497462 233.830354 79.567932 233.78051 79.609182 Q 232.278301 80.827794 230.896406 82.247502 Q 229.925298 83.244391 228.993722 84.285968 L 228.942159 83.978308 Q 228.928409 83.895807 228.851064 83.86315 C 227.618702 83.354392 226.82291 82.730477 225.556173 81.802339 Q 224.574752 81.083891 223.63802 80.501226 C 220.750479 78.706826 218.486852 77.182272 215.661187 76.154445 C 215.559779 76.116632 215.472121 76.051319 215.410246 75.963661 C 215.009771 75.406778 214.693516 74.77255 214.291323 74.2827 Q 214.110852 74.064415 213.010836 72.713458 Q 212.41614 71.982979 211.864413 71.596255 Q 210.367361 70.547802 208.462958 69.829354 C 206.785434 69.196845 204.99619 68.641681 203.268821 68.576367 Q 202.689594 68.554023 202.139586 68.528242 Q 196.202938 68.57293 194.645728 68.433709 Q 190.512075 68.069329 186.242639 67.124003 Q 183.666195 66.555088 181.406007 65.766171 C 179.317695 65.03741 177.4872 64.002708 176.005616 62.564094 Q 175.514047 62.086274 174.185434 60.733598 Q 173.92418 60.46547 173.879492 60.355468 C 173.841679 60.257498 173.932774 60.161246 174.032463 60.192184 C 175.388576 60.630472 176.321871 60.979383 177.397824 61.22173 Q 180.085988 61.826739 181.617416 62.032992 C 182.970092 62.216901 185.410752 62.552062 187.316873 62.65347 Q 195.209486 63.072851 203.114131 62.689564 Q 204.685091 62.613938 206.53793 62.416279 Q 211.843788 61.849083 212.575986 61.733925 C 214.090227 61.493297 215.178211 61.385014 216.379634 60.960477 C 216.487917 60.920945 216.60995 60.975946 216.651201 61.084228 Q 216.695889 61.195949 216.603075 61.275012 Z" style="fill:#fb6406;"/>
		<path d="M 285.732194 68.433709 L 281.828857 68.450897 L 281.895889 68.413084 C 281.931983 68.392459 281.931983 68.340895 281.897608 68.32027 Q 281.093221 67.842451 280.773529 67.667136 C 279.933048 67.203066 279.1871 66.603214 278.477246 66.058363 C 277.528483 65.329602 276.811753 64.92569 275.69455 64.466777 Q 274.111558 63.81708 272.843103 63.433794 Q 272.996074 63.234416 273.226389 62.742846 Q 273.671552 61.794082 274.568752 61.441734 Q 275.271731 61.572361 275.943772 61.716738 Q 276.688002 61.876584 277.32223 61.95221 Q 281.074315 62.402529 283.88623 62.588156 Q 289.143962 62.93363 295.02389 62.900973 Q 301.419451 62.864879 307.572665 62.062211 Q 308.598773 61.928147 309.733164 61.69955 C 310.925994 61.46064 311.704599 61.333451 312.588049 61.075635 Q 314.049008 60.649378 315.100898 60.269529 C 315.16793 60.245466 315.234962 60.302186 315.222931 60.370937 Q 315.209181 60.444844 315.123242 60.553127 C 313.234308 62.928474 311.135685 64.655842 308.175954 65.802265 Q 306.276708 66.536182 303.002443 67.191035 Q 298.999416 67.991984 297.256579 68.132924 C 295.721713 68.256675 294.15419 68.468085 292.66745 68.492148 Q 289.214432 68.547148 285.732194 68.433709 Z" style="fill:#ec5405;"/>
		<path fill-opacity="0.996" d="M 232.665025 76.902112 Q 230.000924 76.195696 228.194492 75.398184 Q 224.720848 73.865037 222.180499 72.627519 Q 219.605775 71.374533 218.450758 68.803246 C 217.697935 67.130878 217.249334 65.229913 216.924486 63.483638 Q 216.921049 63.464731 216.716514 62.577844 Q 216.566981 61.931584 216.603075 61.275012 Q 216.766359 61.338607 216.809328 61.498453 Q 216.831672 61.580954 216.903861 61.623924 Q 216.976049 61.666893 217.061988 61.665174 Q 217.144489 61.663456 217.144489 61.580954 L 217.146208 61.462359 C 217.146208 61.417671 217.163396 61.372983 217.192615 61.338607 Q 217.307773 61.20798 217.294023 60.924382 Q 218.057159 63.945988 219.524992 66.543057 C 220.258909 67.842451 221.322831 69.028405 222.730507 69.574976 C 223.548644 69.894668 224.050526 68.851371 224.303186 68.217144 Q 224.743192 67.11369 225.038822 65.788515 C 225.153979 65.274601 225.358514 64.961784 225.676487 64.516622 C 225.77102 64.384276 225.977273 64.432402 226.004773 64.592248 Q 226.204151 65.743827 226.329621 66.323054 C 226.967287 69.263877 228.888877 72.012198 231.726574 73.194715 Q 231.903608 73.268622 231.922514 73.562533 Q 231.989546 74.59036 232.431272 76.128664 Q 232.534398 76.486169 232.665025 76.902112 Z" style="fill:#fcda88;"/>
		<path d="M 281.828857 68.450897 C 279.788671 68.751682 277.530201 69.592163 276.057211 71.078903 Q 272.660913 74.500984 271.961371 75.145524 C 269.730402 77.197741 267.090364 78.775577 264.003444 80.569977 Q 263.965631 80.571696 263.93985 80.568259 C 263.864224 80.561384 263.829848 80.470289 263.88313 80.417006 Q 266.672701 77.575872 268.66648 74.040352 Q 270.096501 71.501722 270.603539 70.308892 C 271.091671 69.160751 271.402769 67.945577 271.806682 66.360867 Q 272.195125 64.831157 272.843103 63.433794 Q 274.111558 63.81708 275.69455 64.466777 C 276.811753 64.92569 277.528483 65.329602 278.477246 66.058363 C 279.1871 66.603214 279.933048 67.203066 280.773529 67.667136 Q 281.093221 67.842451 281.897608 68.32027 C 281.931983 68.340895 281.931983 68.392459 281.895889 68.413084 L 281.828857 68.450897 Z" style="fill:#cd1c10;"/>
		<path d="M 202.139586 68.528242 Q 202.689594 68.554023 203.268821 68.576367 C 204.99619 68.641681 206.785434 69.196845 208.462958 69.829354 Q 210.367361 70.547802 211.864413 71.596255 Q 212.41614 71.982979 213.010836 72.713458 Q 214.110852 74.064415 214.291323 74.2827 C 214.693516 74.77255 215.009771 75.406778 215.410246 75.963661 C 215.472121 76.051319 215.559779 76.116632 215.661187 76.154445 C 218.486852 77.182272 220.750479 78.706826 223.63802 80.501226 Q 224.574752 81.083891 225.556173 81.802339 C 226.82291 82.730477 227.618702 83.354392 228.851064 83.86315 Q 228.928409 83.895807 228.942159 83.978308 L 228.993722 84.285968 Q 228.146366 85.44786 227.11682 86.286622 Q 222.833634 89.270415 218.204973 90.528558 Q 217.036206 90.846531 215.185086 90.870594 Q 213.523031 90.89122 212.015665 90.140115 C 211.919414 90.091989 211.928008 89.949331 212.031134 89.914956 Q 214.68836 89.000567 217.127301 87.51039 Q 218.136222 86.89335 219.03686 86.070057 C 220.358598 84.863477 221.192204 84.095184 222.111748 82.800947 Q 222.156436 82.737352 222.190812 82.666883 Q 222.271594 82.50188 222.216593 82.465786 Q 222.177062 82.440004 222.134092 82.464067 Q 219.753589 83.882056 219.715776 83.906119 Q 216.945111 85.592237 213.490374 87.254292 C 212.648175 87.659923 211.321281 88.247744 210.434393 88.428215 Q 209.789852 88.560561 208.664055 88.500404 Q 205.726669 88.345714 203.176007 86.888193 C 203.108975 86.848661 203.121006 86.748973 203.194914 86.726628 Q 206.568868 85.722864 209.772664 84.040184 C 211.640973 83.057044 213.956162 81.437959 215.539154 80.343099 Q 215.927597 80.07497 216.298852 79.712309 Q 216.496511 79.519806 216.224945 79.564494 C 216.010098 79.59887 215.714469 79.652152 215.478997 79.753559 Q 211.140809 81.61843 206.780278 83.307986 Q 205.157754 83.937057 202.935379 84.56441 Q 198.095309 85.929117 193.80181 83.601896 Q 191.821781 82.527662 190.065194 81.147486 Q 189.671594 80.838106 190.161445 80.942952 Q 198.021402 82.622194 205.295256 79.196676 Q 207.075907 78.357914 208.67093 77.163366 Q 209.10578 76.836799 209.410003 76.463825 Q 209.54063 76.303979 209.336096 76.328041 Q 208.932184 76.374448 208.444052 76.513669 Q 205.673387 77.29743 203.03163 77.809625 Q 200.826442 78.2376 199.652519 78.357914 Q 196.378253 78.694794 192.6932 78.626043 C 190.86958 78.591668 189.302058 78.395727 187.725941 77.55009 Q 185.524191 76.369292 183.803697 74.43567 C 183.75729 74.384107 183.791666 74.301606 183.860417 74.29645 Q 184.058076 74.2827 184.156046 74.317075 C 185.139185 74.667705 186.082793 74.939271 187.19484 75.104274 Q 191.490058 75.741939 195.845433 75.484123 C 197.538426 75.384434 199.563143 75.102555 201.336918 74.573172 Q 203.500856 73.928632 205.482603 73.034869 Q 205.821201 72.881898 206.094487 72.648145 C 206.137456 72.612051 206.115112 72.541581 206.060111 72.534706 Q 205.841827 72.505486 205.601198 72.532987 Q 201.371294 73.041744 196.923105 73.015963 C 193.987437 72.998775 191.906001 72.998775 189.487685 72.734084 C 187.270466 72.491736 184.841837 72.036261 182.885872 71.017028 C 181.763512 70.432644 180.833655 69.683258 179.895204 68.868559 Q 179.580668 68.593555 179.436291 68.340895 Q 179.322852 68.139799 179.539417 68.215425 Q 181.904451 69.036999 184.556521 69.423723 Q 186.098262 69.647164 189.17315 69.808729 Q 195.340113 70.133577 201.593016 68.932154 Q 201.953958 68.863403 202.139586 68.528242 Z" style="fill:#fb8a06;"/>
		<path d="M 260.375111 86.320998 Q 259.438379 85.246763 258.45524 84.160498 C 257.656009 83.277048 256.932405 82.357503 256.181301 81.444834 Q 255.969891 81.187018 255.440509 80.322474 L 256.229426 77.940252 Q 260.57277 76.841955 264.434857 74.923803 Q 264.510483 74.885989 264.474389 74.961616 C 263.138901 77.70478 261.702005 80.418725 259.935105 82.757978 Q 259.892135 82.812978 259.954011 82.780322 L 264.003444 80.569977 C 267.090364 78.775577 269.730402 77.197741 271.961371 75.145524 Q 272.660913 74.500984 276.057211 71.078903 C 277.530201 69.592163 279.788671 68.751682 281.828857 68.450897 L 285.732194 68.433709 Q 286.314859 68.724182 286.912992 68.880591 Q 288.906771 69.399661 290.989926 69.640289 Q 293.561213 69.937637 297.096733 69.915293 Q 300.505063 69.894668 304.052614 69.507943 Q 307.024375 69.184814 309.923948 68.210268 Q 310.133639 68.139799 310.102701 68.364958 Q 310.099263 68.385583 310.001293 68.492148 Q 307.469538 71.233593 304.176366 72.031105 Q 301.039602 72.789084 297.471426 72.917992 C 291.51759 73.132839 287.461282 73.182684 282.614337 72.453923 Q 282.466522 72.431579 282.353083 72.481424 C 282.308395 72.50033 282.306676 72.563925 282.351364 72.58455 Q 284.310768 73.485188 285.804383 74.042071 Q 288.690206 75.118024 292.14838 75.427403 Q 296.139375 75.78319 300.737098 75.312246 Q 302.931973 75.087086 304.934345 74.330825 Q 305.176693 74.23973 305.051222 74.46489 Q 304.929189 74.681455 304.844969 74.770832 C 303.031662 76.658046 301.161635 78.012441 298.569723 78.412915 C 297.452519 78.584793 296.703133 78.591668 295.326395 78.624324 Q 291.215086 78.717138 287.463 78.081192 Q 283.014811 77.324931 278.688655 76.034131 Q 278.575216 75.999755 278.521934 76.099444 C 278.508184 76.125226 278.515059 76.156164 278.537403 76.173352 C 279.455229 76.898675 280.302585 77.594778 281.380257 78.211819 C 286.472986 81.12686 292.397603 82.190782 298.153779 81.008265 Q 298.837851 80.867325 298.280968 81.288425 Q 296.648132 82.527662 295.159674 83.383612 Q 291.117115 85.705676 286.431736 84.865195 Q 284.805775 84.574723 283.026843 83.897525 Q 277.892863 81.944997 272.963417 79.655589 Q 272.423722 79.404648 271.531678 79.184645 Q 271.476677 79.170895 271.442301 79.219021 Q 271.428551 79.239646 271.43027 79.265427 Q 271.433707 79.306678 271.468083 79.330741 Q 274.230154 81.302175 275.367983 82.118593 Q 278.929284 84.670974 283.1145 86.106151 Q 284.164672 86.467093 285.218281 86.666471 C 285.290469 86.680222 285.34547 86.735222 285.357501 86.807411 Q 285.385002 86.967257 285.17703 87.078977 C 282.714026 88.409309 279.654607 88.969629 276.937224 88.048366 Q 275.759863 87.64961 273.042481 86.310685 Q 270.818386 85.215825 266.373635 82.905792 Q 265.909565 82.665164 265.641437 82.598132 Q 265.081116 82.458911 265.521122 82.831885 C 266.1691 83.383612 266.799891 84.212061 267.265679 84.67613 Q 269.795715 87.199292 273.212639 88.816659 Q 274.517189 89.433699 276.07268 89.85308 C 276.150025 89.873705 276.205026 89.944175 276.203307 90.02152 Q 276.201588 90.104021 276.03143 90.176209 Q 274.496564 90.824187 273.453268 90.870594 C 270.163533 91.01669 266.846298 89.823861 263.89688 88.287276 Q 261.679661 87.132259 260.375111 86.320998 Z" style="fill:#fb8a06;"/>
		<path d="M 260.375111 86.320998 Q 260.607145 86.913975 261.158872 87.501796 Q 260.514332 87.58086 260.323548 87.654767 Q 259.453848 87.995084 257.018344 89.124319 Q 256.760528 89.244633 256.115987 89.229164 C 254.904251 88.508998 253.943456 87.728674 252.855472 86.970694 C 252.611405 86.800536 252.491091 86.638971 252.326089 86.430999 C 252.295151 86.393186 252.248744 86.372561 252.200618 86.375998 Q 252.174837 86.377717 252.152493 86.382874 Q 252.14218 86.29006 252.192024 86.221309 Q 254.12049 83.521114 255.440509 80.322474 Q 255.969891 81.187018 256.181301 81.444834 C 256.932405 82.357503 257.656009 83.277048 258.45524 84.160498 Q 259.438379 85.246763 260.375111 86.320998 Z" style="fill:#fcbe09;"/>
		<path fill-opacity="0.996" d="M 226.49978 87.448514 Q 228.974816 88.081023 230.191708 88.734157 Q 230.997813 89.169007 231.843451 89.617608 Q 229.043567 91.075129 225.987585 91.850296 Q 223.234108 92.548118 221.647679 92.836873 Q 221.235173 92.91078 221.027201 92.917655 C 220.936106 92.921093 220.887981 92.809372 220.955013 92.745778 L 226.49978 87.448514 Z" style="fill:#fcda88;"/>
		<path fill-opacity="0.996" d="M 261.158872 87.501796 Q 262.679988 89.60042 264.80955 91.121535 Q 266.010973 91.980923 267.379118 92.931405 Q 267.51662 93.027657 267.360211 93.087814 Q 267.318961 93.103283 267.178021 93.086095 Q 265.950816 92.933124 264.754549 92.623745 C 261.602316 91.805608 258.84712 90.908407 256.115987 89.229164 Q 256.760528 89.244633 257.018344 89.124319 Q 259.453848 87.995084 260.323548 87.654767 Q 260.514332 87.58086 261.158872 87.501796 Z" style="fill:#fcda88;"/>
		<path d="M 247.876181 108.331627 Q 247.960401 109.261484 248.154623 110.363218 Q 248.422752 111.884334 248.295562 114.615467 Q 248.142591 117.872545 246.987575 121.714007 Q 245.952872 125.151556 244.010657 129.056612 Q 242.740482 131.610711 241.181554 133.570115 Q 240.559357 133.767774 240.304979 133.992933 Q 238.013852 136.015931 235.052403 138.480654 Q 231.118128 141.75492 226.336496 143.59229 C 224.861788 144.157767 222.910978 144.810901 220.900012 145.572318 Q 220.50985 145.720133 219.975311 145.986543 Q 218.823732 146.557176 216.202601 147.543753 Q 215.552904 147.787819 215.324307 148.54408 Q 211.551596 149.303778 207.8992 149.408624 Q 207.515913 149.418936 207.883731 149.310653 C 209.298283 148.892991 210.477362 148.575018 212.105042 147.96829 Q 213.375216 147.493909 214.659141 147.059059 Q 214.91352 146.97312 215.283056 146.600146 C 216.181975 146.213421 217.239022 145.991699 218.043408 145.69607 Q 221.047827 144.589179 223.027855 143.470257 Q 224.40975 142.688214 225.410077 141.387102 C 228.166991 137.801738 230.59562 134.37622 232.788777 130.730699 Q 233.801135 129.048018 234.519583 127.980659 Q 234.911463 127.399713 234.67771 126.902987 Q 237.269622 122.856992 238.177135 120.938839 C 239.402622 118.348646 240.476856 116.064394 241.009676 113.60139 Q 240.958113 113.185446 241.021708 113.051382 Q 243.398773 107.953496 242.231725 102.345134 Q 241.547653 99.058837 240.712328 96.618177 C 240.304979 95.428785 239.947473 94.088141 239.730908 93.297504 Q 239.602 92.817966 239.235901 93.063751 C 239.1809 93.099845 239.139649 93.154846 239.120743 93.218441 L 237.970882 97.095996 L 237.800724 99.223839 L 236.300233 94.504084 Q 236.272733 94.418145 236.24867 94.504084 Q 235.22428 98.244138 234.318486 101.929191 C 233.166907 106.619727 231.406882 111.052447 229.000597 115.244539 Q 228.383557 116.32221 227.433075 117.413632 Q 225.717738 119.383348 224.18459 120.8254 Q 221.145797 123.682004 217.407462 126.712203 C 215.915565 127.922221 213.966475 129.324741 212.698019 130.263192 Q 211.407219 131.218831 209.435785 133.136983 C 208.86687 133.690429 208.16561 134.297156 207.612165 134.591067 Q 206.022298 135.433266 204.427275 136.443906 Q 202.48506 137.031727 200.358935 137.387513 Q 199.045791 137.605798 197.619208 137.622985 Q 198.543909 137.102197 200.382998 136.387186 Q 201.479576 135.96093 204.033676 134.493097 Q 206.022298 133.35183 207.861387 131.985404 Q 208.356394 131.617586 208.878902 130.811481 Q 209.255313 130.232254 208.86687 129.778498 Q 210.527207 128.965517 210.962057 128.704263 Q 214.007725 126.870331 216.994956 124.421077 C 219.109049 122.686833 220.839855 120.718836 222.367846 118.627087 Q 227.17354 112.049336 229.988893 104.780638 Q 230.518275 103.415931 232.238769 98.811333 Q 232.977842 96.834743 234.069264 94.837526 Q 235.834445 91.607949 238.701362 87.845551 C 238.730581 87.807738 238.751206 87.76305 238.761519 87.714924 L 238.789019 87.58086 L 238.943709 87.639298 Q 239.024491 87.668517 239.06918 87.742424 Q 239.514342 88.467747 240.109038 89.187914 Q 240.337635 89.466355 240.480294 90.588715 Q 240.739829 92.642651 241.109365 94.172361 C 241.569997 96.073325 242.590949 97.816163 243.773466 99.485093 C 244.703323 100.7948 245.741463 102.245445 246.329284 103.780311 Q 246.788197 104.978297 247.229922 107.180048 Q 247.355392 107.803963 247.876181 108.331627 Z" style="fill:#fb8a06;"/>
		<path d="M 249.026041 90.270742 Q 251.557797 93.560477 253.689077 97.126934 Q 255.851296 100.744955 257.078501 104.65173 Q 257.876012 107.193798 258.407114 110.449157 Q 259.37994 116.402993 258.283362 121.796508 Q 257.552883 125.392184 255.624418 129.154582 Q 253.142507 133.994652 249.232294 138.441122 Q 247.532426 140.374744 246.989293 140.964283 Q 244.787543 143.349943 242.212818 145.409035 Q 242.816108 141.6707 242.587511 137.975334 Q 244.65176 135.103262 246.22272 131.954466 Q 250.784348 122.810585 249.861366 112.685283 Q 249.576049 109.5468 248.7751 105.780965 Q 248.221655 103.101395 247.168046 100.392606 Q 246.408348 98.441797 245.597086 97.185373 Q 244.856294 96.03895 244.211753 94.997372 Q 246.681633 92.771559 248.866195 90.332618 Q 248.983072 90.200272 249.026041 90.270742 Z" style="fill:#fb6406;"/>
		<path d="M 241.009676 113.60139 Q 240.714047 114.111866 240.488887 114.598279 Q 239.803096 116.085019 239.017616 117.525353 Q 235.762257 123.494657 230.978907 128.522073 Q 228.95419 130.651635 226.757596 132.29994 Q 226.64072 131.478366 227.269791 130.909451 Q 227.639328 130.576009 227.809486 130.466007 Q 228.916377 129.74756 229.839359 128.80739 Q 229.987174 128.656138 230.253584 128.272851 C 230.889531 127.356744 231.546103 126.428606 232.157986 125.347496 Q 233.445349 123.068401 233.490037 122.992775 Q 234.981933 120.411175 236.951649 116.145177 Q 237.481032 114.998754 237.958851 113.331542 Q 239.120743 109.273515 239.223869 105.000641 Q 239.321839 100.909957 238.242449 97.015214 C 238.216667 96.920681 238.087759 96.903494 238.037915 96.987714 L 237.970882 97.095996 L 239.120743 93.218441 C 239.139649 93.154846 239.1809 93.099845 239.235901 93.063751 Q 239.602 92.817966 239.730908 93.297504 C 239.947473 94.088141 240.304979 95.428785 240.712328 96.618177 Q 241.547653 99.058837 242.231725 102.345134 Q 243.398773 107.953496 241.021708 113.051382 Q 240.958113 113.185446 241.009676 113.60139 Z" style="fill:#fb6406;"/>
		<path d="M 237.800724 99.223839 Q 237.625409 102.733577 236.666332 106.410037 Q 235.679756 110.191341 233.863011 113.199197 Q 232.455334 115.531574 230.753747 118.03411 C 228.649967 121.127904 226.150869 123.618409 223.242702 126.201727 Q 222.792383 126.602202 221.938152 127.269086 C 221.180172 127.860345 220.035468 128.283164 219.320458 128.84864 C 218.003877 129.893655 216.178538 131.466334 214.653985 132.56635 Q 214.042101 133.008075 213.646783 133.564958 Q 209.219219 135.388578 204.427275 136.443906 Q 206.022298 135.433266 207.612165 134.591067 C 208.16561 134.297156 208.86687 133.690429 209.435785 133.136983 Q 211.407219 131.218831 212.698019 130.263192 C 213.966475 129.324741 215.915565 127.922221 217.407462 126.712203 Q 221.145797 123.682004 224.18459 120.8254 Q 225.717738 119.383348 227.433075 117.413632 Q 228.383557 116.32221 229.000597 115.244539 C 231.406882 111.052447 233.166907 106.619727 234.318486 101.929191 Q 235.22428 98.244138 236.24867 94.504084 Q 236.272733 94.418145 236.300233 94.504084 L 237.800724 99.223839 Z" style="fill:#fb6406;"/>
		<path d="M 226.757596 132.29994 Q 224.636628 133.865744 222.335189 135.209826 Q 221.535959 135.264826 220.9447 135.515768 Q 217.036206 137.176104 213.816941 138.246901 Q 213.199901 138.451435 212.565673 138.599249 Q 212.478016 138.619875 212.512391 138.537373 L 214.103977 134.587629 C 216.087443 133.442925 217.654965 132.5526 219.231082 131.06586 Q 219.30327 130.997109 219.2053 131.017734 Q 218.823732 131.095079 218.397476 131.325395 C 216.469011 132.37041 215.351807 132.970262 213.646783 133.564958 Q 214.042101 133.008075 214.653985 132.56635 C 216.178538 131.466334 218.003877 129.893655 219.320458 128.84864 C 220.035468 128.283164 221.180172 127.860345 221.938152 127.269086 Q 222.792383 126.602202 223.242702 126.201727 C 226.150869 123.618409 228.649967 121.127904 230.753747 118.03411 Q 232.455334 115.531574 233.863011 113.199197 Q 235.679756 110.191341 236.666332 106.410037 Q 237.625409 102.733577 237.800724 99.223839 L 237.970882 97.095996 L 238.037915 96.987714 C 238.087759 96.903494 238.216667 96.920681 238.242449 97.015214 Q 239.321839 100.909957 239.223869 105.000641 Q 239.120743 109.273515 237.958851 113.331542 Q 237.481032 114.998754 236.951649 116.145177 Q 234.981933 120.411175 233.490037 122.992775 Q 233.445349 123.068401 232.157986 125.347496 C 231.546103 126.428606 230.889531 127.356744 230.253584 128.272851 Q 229.987174 128.656138 229.839359 128.80739 Q 228.916377 129.74756 227.809486 130.466007 Q 227.639328 130.576009 227.269791 130.909451 Q 226.64072 131.478366 226.757596 132.29994 Z" style="fill:#f62805;"/>
		<path d="M 234.67771 126.902987 Q 234.911463 127.399713 234.519583 127.980659 Q 233.801135 129.048018 232.788777 130.730699 C 230.59562 134.37622 228.166991 137.801738 225.410077 141.387102 Q 224.40975 142.688214 223.027855 143.470257 Q 221.047827 144.589179 218.043408 145.69607 C 217.239022 145.991699 216.181975 146.213421 215.283056 146.600146 Q 214.672891 146.607021 214.44945 146.655146 C 212.043166 147.181092 209.559536 147.457814 207.165283 147.705318 C 205.953547 147.82907 204.372274 147.88407 202.983504 148.037041 Q 202.672406 148.071417 202.959442 147.944228 Q 203.404604 147.748287 203.755234 147.66063 Q 206.247458 147.028121 208.148422 146.4678 Q 212.015665 145.328252 215.621655 143.475413 C 217.010425 142.760403 218.165441 142.014455 219.71062 141.050222 Q 222.99348 138.999724 226.198994 136.457656 Q 227.43995 135.474517 228.553716 134.347001 Q 231.958609 130.907733 234.67771 126.902987 Z" style="fill:#fb6406;"/>
		<path d="M 208.86687 129.778498 Q 209.255313 130.232254 208.878902 130.811481 Q 208.356394 131.617586 207.861387 131.985404 Q 206.022298 133.35183 204.033676 134.493097 Q 201.479576 135.96093 200.382998 136.387186 Q 198.543909 137.102197 197.619208 137.622985 Q 195.472459 137.810332 193.286177 137.600641 C 190.787079 137.360013 188.590485 136.519532 186.316546 135.416079 C 184.255735 134.417471 182.650399 132.994325 180.617089 132.270721 Q 178.654248 131.57118 176.567656 131.916653 Q 176.383747 131.947591 176.471404 131.782589 Q 176.559062 131.617586 176.942349 131.547117 Q 178.618154 131.237737 180.766622 131.471491 Q 182.985561 131.713838 185.907478 132.446036 C 187.777504 132.913543 189.637219 133.396518 191.447088 133.516833 Q 195.711369 133.80043 199.893147 132.751978 Q 199.932679 132.741665 202.271932 132.122906 Q 205.663074 131.225706 208.86687 129.778498 Z" style="fill:#fb6406;"/>
		<path d="M 241.181554 133.570115 Q 239.076055 136.43875 236.339765 138.996286 Q 233.883636 141.290851 231.085471 142.884155 Q 226.683689 145.391847 222.422846 146.861399 Q 219.213894 147.966572 215.324307 148.54408 Q 215.552904 147.787819 216.202601 147.543753 Q 218.823732 146.557176 219.975311 145.986543 Q 220.50985 145.720133 220.900012 145.572318 C 222.910978 144.810901 224.861788 144.157767 226.336496 143.59229 Q 231.118128 141.75492 235.052403 138.480654 Q 238.013852 136.015931 240.304979 133.992933 Q 240.559357 133.767774 241.181554 133.570115 Z" style="fill:#fb6406;"/>
		<path d="M 214.103977 134.587629 L 212.512391 138.537373 Q 212.478016 138.619875 212.565673 138.599249 Q 213.199901 138.451435 213.816941 138.246901 Q 217.036206 137.176104 220.9447 135.515768 Q 221.535959 135.264826 222.335189 135.209826 C 219.200144 137.189854 216.114943 138.671438 212.99193 140.010363 Q 211.580815 140.615372 209.159062 141.359602 Q 205.881359 142.368522 203.023036 142.698527 Q 202.115523 142.803372 199.764239 142.784466 C 197.689678 142.765559 195.482772 142.402898 193.435711 141.988673 C 191.802875 141.658668 189.595968 141.385383 187.686409 140.991784 C 187.500782 140.953971 187.196559 141.007253 186.981712 140.95569 Q 185.835289 140.680686 184.647616 140.615372 C 184.616678 140.613653 184.59949 140.579278 184.616678 140.553496 L 184.644178 140.510527 Q 184.652772 140.496777 184.66996 140.496777 C 185.838727 140.524277 187.014368 140.623966 188.126416 140.601622 Q 192.363195 140.512246 193.313678 140.458964 Q 195.145892 140.357556 197.536707 140.030989 Q 199.418766 139.77661 200.926131 139.458637 Q 206.252614 138.339714 211.4055 135.917961 Q 212.756457 135.282014 214.103977 134.587629 Z" style="fill:#cd1c10;"/>
		<path d="M 242.212818 145.409035 Q 241.215929 146.072482 239.756689 146.839055 C 237.773223 147.882352 235.56116 148.844865 233.854417 149.723159 Q 232.235331 150.556765 230.597339 151.39209 Q 230.353273 151.515841 230.52515 151.302713 Q 230.870624 150.869582 231.362194 150.520671 Q 233.340503 149.109557 234.777399 147.725943 Q 235.64538 146.892337 237.037588 145.139187 C 238.701362 143.042282 240.867018 140.465839 242.587511 137.975334 Q 242.816108 141.6707 242.212818 145.409035 Z" style="fill:#f62805;"/>
		<path fill-opacity="0.996" d="M 244.536602 32.696945 Q 244.359568 32.611007 244.086283 32.70382 Q 244.070814 32.719289 244.020969 32.674601 C 243.960812 32.621319 243.996907 32.523349 244.077689 32.52163 Q 244.30113 32.518193 244.536602 32.696945 Z" style="fill:#fcda88;"/>
		<path d="M 240.992488 46.873399 C 241.210773 45.644475 241.277805 44.941496 241.348275 43.57507 Q 241.465151 41.304569 242.018597 39.092506 Q 242.078754 38.850159 242.138911 38.735001 Q 242.162974 38.690313 242.171568 38.740157 Q 242.192193 38.851878 242.176724 39.1011 Q 242.052972 41.148161 242.217975 42.863498 C 242.39329 44.692274 242.57548 46.416205 242.444853 48.279357 Q 242.437978 48.370452 242.348602 48.382483 Q 241.707499 48.466703 241.389525 48.217481 Q 240.830924 47.779193 240.992488 46.873399 Z" style="fill:#fb8a06;"/>
	</g>
	<g id="surface4">
	</g>
</svg>
