<?xml version="1.0" encoding="utf-8"?>
<svg xmlns="http://www.w3.org/2000/svg" width="490pt" height="280pt" viewBox="0 0 490 280" version="1.1" xmlns:xlink="http://www.w3.org/1999/xlink">
	<g id="surface2">
		<path d="M 234.382727 44.662722 Q 233.565343 44.374233 232.74513 43.817054 Q 226.913135 39.848922 221.513873 34.715521 C 218.066151 31.437499 215.152982 28.408368 212.935579 24.66933 C 212.067285 23.20426 211.594956 21.365852 212.522645 19.810276 Q 213.72468 17.793685 214.841867 16.733065 Q 220.685175 11.161275 228.751543 8.440431 C 232.196436 7.277992 236.093861 6.302222 239.739565 5.95151 Q 246.470966 5.303825 252.724381 6.078784 C 255.023805 6.364445 257.659798 7.077181 259.896999 7.710725 C 265.494244 9.294584 271.049064 12.117247 275.619629 15.997702 C 277.087526 17.244991 278.42815 18.619554 279.381294 20.308061 C 280.139283 21.657169 280.074232 23.119411 279.440688 24.3667 Q 278.289562 26.632184 276.666107 28.569583 Q 268.746812 38.01617 258.1293 43.68978 Q 257.391108 44.085744 256.406853 44.422314 C 256.31069 44.453426 256.20887 44.402516 256.183416 44.306353 Q 256.067455 43.876449 255.733713 41.947535 Q 255.094513 38.267891 252.274678 35.795939 Q 249.593431 33.448434 246.207932 33.208027 C 241.976766 32.905397 237.977522 35.538562 236.127801 39.280429 C 235.378296 40.799237 235.129404 42.626331 234.829602 44.402516 C 234.792834 44.608984 234.58071 44.73343 234.382727 44.662722 Z" style="fill:#bbcec1;"/>
		<path d="M 220.221331 103.890564 Q 214.321456 99.059794 210.74646 92.232231 Q 209.558565 89.963918 205.960943 83.020393 Q 205.084164 81.32623 204.136677 78.998523 Q 203.059087 76.351215 203.296666 72.815816 C 203.531416 69.322841 204.193243 65.06622 204.425165 61.075461 Q 204.758907 55.350942 204.710826 48.548833 Q 204.674057 43.579475 205.921346 39.07679 C 206.532263 36.873529 208.005818 33.603992 209.844226 32.472664 Q 211.812736 31.259315 214.355396 32.978933 Q 214.759845 33.250452 215.580058 34.265818 C 217.644731 36.819791 219.036265 40.12044 219.765971 43.296643 Q 220.119511 44.840906 220.125168 47.069622 Q 220.127996 47.423162 220.142138 51.609075 C 220.156279 55.588521 221.762765 58.996646 223.85855 62.218102 Q 226.684041 66.565229 229.540644 70.88973 Q 229.882871 71.404484 230.74268 73.146729 Q 231.38188 74.444928 231.551579 75.528174 Q 231.919261 77.870023 231.475215 79.815907 Q 229.653777 87.825708 229.63115 87.9247 Q 229.266297 89.64149 228.972152 91.372421 Q 227.710721 98.748679 227.459001 99.786672 Q 226.664243 103.044897 225.64322 105.972208 Q 225.431096 106.57464 225.15392 107.089394 C 225.046444 107.287376 224.786239 107.346771 224.602398 107.216668 Q 222.263378 105.56493 220.221331 103.890564 Z" style="fill:#e5c697;"/>
		<path d="M 266.283345 106.093825 C 264.874842 102.544284 263.545532 98.672314 262.722491 94.888023 Q 261.54591 89.483104 260.974589 83.738787 C 260.909538 83.082616 260.915194 82.313313 260.827517 81.592092 Q 260.623878 79.920555 260.547513 77.536281 C 260.423067 73.627544 261.534596 70.819022 263.723716 67.38827 Q 265.491416 64.613689 268.05953 61.259302 Q 269.346415 59.576451 270.548451 57.378847 Q 271.312098 55.981657 271.911701 53.28344 Q 272.231302 51.855139 272.270898 49.015506 C 272.350091 43.463514 272.140795 36.426655 277.709757 33.564395 Q 279.418062 32.684788 281.47425 33.530455 C 282.944977 34.130059 284.206407 35.832708 284.970053 37.47879 C 286.392698 40.54186 286.723612 43.607758 286.723612 47.250634 Q 286.72644 59.169173 286.99513 63.41731 Q 287.212911 66.879173 287.795545 72.411366 C 288.146256 75.75444 287.06301 78.763772 285.643194 81.674113 Q 284.401561 84.216773 281.007578 90.614432 C 277.65319 96.938555 273.178789 102.63479 266.962142 106.325748 C 266.71325 106.47282 266.390821 106.362516 266.283345 106.093825 Z" style="fill:#c3ac94;"/>
		<path d="M 245.597015 38.344255 C 246.960265 38.341427 248.066138 38.680825 249.186153 39.520836 Q 251.123552 40.977421 251.839117 43.373008 C 253.114689 47.638114 252.059725 52.893132 249.10696 56.38045 Q 247.644718 58.108553 245.613985 58.108553 Q 243.580423 58.111382 242.115353 56.386107 C 239.156931 52.904445 238.093483 47.652256 239.36057 43.384321 Q 240.073307 40.985906 242.007877 39.529321 C 243.125064 38.683654 244.230937 38.344255 245.597015 38.344255 Z" style="fill:#90623a;"/>
		<path d="M 230.046913 109.63771 Q 229.716 109.459526 229.537816 109.451041 Q 229.124881 109.434071 229.198417 109.026793 C 230.284492 103.101463 231.707137 97.314721 233.440897 90.470187 Q 233.783124 89.118251 234.032016 87.780455 C 234.337474 86.117403 234.869198 83.504036 234.922936 81.609062 C 234.987988 79.219132 235.007786 76.433237 234.510002 73.992397 Q 233.658678 69.843252 232.255831 66.955537 C 230.027115 62.37366 226.200399 57.022479 224.42987 53.877387 C 222.922376 51.204625 221.73731 47.640942 222.515098 44.634438 Q 222.690454 43.955642 223.43713 43.242905 C 224.489265 42.244508 226.19757 42.694211 227.133744 43.599273 C 229.687717 46.071225 231.379052 50.605021 233.21746 53.860417 Q 234.300706 55.77519 236.371036 58.600681 Q 237.550445 60.212823 238.77228 61.341323 Q 241.495951 63.852871 245.348123 63.734081 Q 247.166732 63.677515 248.45079 63.142962 Q 251.338504 61.943755 253.58419 59.717867 Q 257.58909 55.74125 259.351134 52.553734 Q 261.698639 48.311254 262.84128 46.481331 Q 263.870789 44.835249 264.402513 44.167766 C 264.719284 43.774629 265.539497 42.937447 266.192839 42.838455 Q 267.536291 42.631988 268.331049 43.316441 Q 268.930652 43.834024 269.37187 45.03606 Q 270.09592 46.998914 269.711269 49.122982 Q 269.337931 51.198968 268.630851 52.779999 C 268.104783 53.962237 267.075275 55.611147 266.141929 56.923487 Q 264.937065 58.617651 263.061889 61.148997 C 262.207737 62.302952 261.172572 63.912265 260.369329 65.159554 Q 257.671112 69.351124 256.466248 74.343108 Q 255.465022 78.486597 255.951493 82.836553 Q 256.157961 84.694759 256.474733 86.841453 Q 256.641603 87.969953 257.905862 93.73124 C 258.853349 98.030286 259.583056 101.673162 260.335389 105.791195 Q 260.423067 106.280494 260.445693 106.365344 Q 260.677616 107.276063 260.909538 109.168209 C 260.920851 109.244573 260.87277 109.320938 260.799233 109.346393 C 258.332939 110.192061 256.358771 111.62319 253.966013 113.704834 Q 249.321912 117.749331 245.294385 123.08637 C 245.130342 123.304151 244.805085 123.304151 244.643871 123.08637 Q 240.822811 117.975596 236.167397 113.755743 Q 234.586366 112.321785 232.592401 110.969849 C 231.83724 110.457923 230.688942 109.979937 230.046913 109.63771 Z" style="fill:#90623a;"/>
		<path d="M 187.879495 57.260058 Q 188.521524 55.70731 189.884774 55.551752 C 191.027415 55.42165 192.102176 56.00994 192.959157 56.912174 C 194.834333 58.880685 195.708284 61.191422 196.333343 63.790648 Q 196.887693 66.087243 196.986684 70.191135 C 197.017796 71.494991 196.766076 72.736623 196.726479 73.933002 Q 196.717994 74.215834 196.52284 75.188776 C 196.423849 75.683732 196.45496 76.280507 196.341828 76.902738 Q 195.470705 81.651487 195.524443 84.986075 C 195.575353 88.283896 197.755987 91.62697 199.976218 94.237509 Q 206.730246 102.182259 214.607116 107.423136 Q 220.897299 111.609049 224.585428 114.527875 Q 225.818575 115.503645 228.157596 117.701249 Q 229.798021 119.242684 231.265919 120.987757 C 235.570622 126.107016 238.876927 131.511934 240.627657 137.728581 Q 242.236971 143.447444 242.647078 147.692751 Q 242.887485 150.173188 243.175973 153.360704 Q 243.204257 153.671819 242.89597 153.646364 Q 237.117713 153.219288 232.284114 152.028565 Q 230.40611 151.564721 230.145905 151.508155 Q 229.221044 151.304516 227.987897 150.900066 Q 222.860153 149.222872 219.545362 147.636185 Q 212.140821 144.089472 205.842153 139.006982 Q 200.643702 134.812584 196.534153 129.424635 Q 194.14988 126.296513 192.585819 123.089198 Q 190.266597 118.331965 185.679062 109.357706 C 184.491168 107.032827 183.484286 104.693807 182.40104 102.346302 C 181.798608 101.042446 181.241429 99.469901 180.726675 98.137762 Q 180.556975 97.690888 180.22889 95.911874 C 179.917775 94.217711 180.005453 92.138896 180.030908 90.716251 Q 180.047878 89.845129 180.282628 88.654406 Q 180.390104 88.111369 180.607885 86.586904 C 180.791726 85.297191 181.114154 83.653937 181.510119 82.211494 Q 182.695185 77.89265 184.595816 71.653376 Q 184.983296 70.377804 185.206733 69.294558 C 185.537646 67.676759 186.012804 65.99108 186.306949 64.27429 Q 186.711399 61.909815 186.739682 61.607185 C 186.858472 60.396664 187.251608 59.282306 187.525955 58.077442 C 187.588178 57.817237 187.723937 57.639052 187.879495 57.260058 Z" style="fill:#255252;"/>
		<path d="M 309.18047 87.271358 Q 309.205925 87.424087 309.234208 87.582473 Q 309.698053 90.147759 309.596233 93.79912 Q 309.562293 95.035095 309.46613 95.501768 Q 309.089964 97.280781 308.962689 97.815334 Q 308.702484 98.904237 308.218841 100.061019 Q 306.162653 104.954013 305.164256 106.919695 Q 303.832117 109.538719 300.780361 115.766679 Q 299.634891 118.102871 297.219506 122.727173 Q 295.666759 125.702566 294.357247 127.603197 C 287.187456 138.019898 276.403073 145.356559 264.515645 149.915811 Q 261.297018 151.151786 259.226688 151.607146 Q 258.151926 151.844725 257.351512 152.048364 Q 257.145044 152.099273 255.832704 152.4415 Q 255.071886 152.639483 254.296926 152.769585 Q 250.492836 153.408785 246.875415 153.654849 Q 246.456824 153.683133 246.462481 153.264541 C 246.470966 151.988969 246.725515 150.854813 246.765111 149.686717 Q 246.793394 148.903272 246.971578 147.675781 Q 247.460878 144.318566 247.780478 142.960973 C 247.876641 142.542381 247.92755 141.795705 248.122704 141.238526 C 248.538467 140.044975 248.657257 138.845767 249.112616 137.731409 C 249.522723 136.721699 249.71222 135.907143 250.142125 134.83521 Q 251.856086 130.564447 254.180965 126.763186 Q 254.217733 126.703791 254.534505 126.304998 C 254.707033 126.087217 254.774912 125.827012 254.916328 125.620545 Q 259.404872 118.957023 265.842127 113.987666 C 268.840146 111.6741 271.017952 110.257112 274.779618 107.694654 C 280.266558 103.955616 285.213289 99.577377 289.484052 94.562766 C 291.667514 91.99748 293.491781 89.15219 294.074415 85.843056 Q 294.297852 84.561828 294.017848 82.256747 C 293.785926 80.35046 293.401274 78.124572 293.143897 75.811006 Q 293.101473 75.412213 292.982683 74.758871 Q 292.889349 74.232804 292.688538 70.677606 Q 292.609345 69.280416 292.767731 68.276363 C 292.928945 67.238369 292.849752 66.191891 293.059048 65.074705 Q 293.370163 63.420138 293.96411 61.502537 Q 294.532602 59.669786 295.508373 58.167948 Q 296.091006 57.271371 296.914048 56.521866 C 297.748402 55.761048 298.336692 55.662057 299.538728 55.653572 Q 300.4947 55.645087 301.105617 56.360652 Q 301.928658 57.325109 302.089873 57.938854 C 302.369876 58.999474 302.63291 59.723524 302.737558 60.631415 Q 302.836549 61.485567 303.419183 65.060563 Q 303.478578 65.422588 303.741611 66.443612 C 303.891512 67.020589 303.936765 67.750295 304.095151 68.315959 C 304.341215 69.20688 304.663643 70.717203 305.011527 71.854187 Q 306.239018 75.847775 307.483478 79.838534 Q 307.718229 80.588038 307.828533 81.159359 C 307.958636 81.824014 308.329146 82.67251 308.436622 83.424843 Q 308.529956 84.066872 308.611978 84.397785 Q 308.897638 85.563053 309.18047 87.271358 Z" style="fill:#255252;"/>
	</g>
	<g id="surface4">
	</g>
</svg>
