<?xml version="1.0" encoding="utf-8"?>
<svg xmlns="http://www.w3.org/2000/svg" width="490pt" height="280pt" viewBox="0 0 490 280" version="1.1" xmlns:xlink="http://www.w3.org/1999/xlink">
	<g id="surface2">
		<path vector-effect="non-scaling-stroke" d="M 281.241541 58.258591 Q 281.674257 59.845219 282.165571 61.40931 Q 282.512646 62.511386 282.555467 63.410625 Q 282.598288 64.291835 282.598288 65.513359 Q 282.596034 109.012666 282.589273 152.507467" style="fill:none;stroke-width:0.50;stroke:#967576;"/>
		<path vector-effect="non-scaling-stroke" d="M 275.352535 152.43084 Q 275.354789 108.62277 275.320983 64.724552 Q 275.318729 63.318222 274.960386 62.238684 Q 274.252713 60.11116 273.497713 58.015188 Q 273.468414 57.931799 273.382772 57.934053 L 270.964516 57.999411" style="fill:none;stroke-width:0.50;stroke:#967576;"/>
		<path vector-effect="non-scaling-stroke" d="M 218.357872 58.006173 L 216.090616 57.958844 Q 215.973422 57.956591 215.935109 58.067023 Q 215.245466 59.980443 214.60766 61.914146 C 214.238047 63.034252 214.10057 64.001103 214.10057 65.118955 Q 214.114092 108.794054 214.125361 152.473661" style="fill:none;stroke-width:0.50;stroke:#967576;"/>
		<path vector-effect="non-scaling-stroke" d="M 206.845802 152.455631 Q 206.843548 109.411577 206.863832 66.414852 C 206.863832 64.780895 206.77819 63.442178 207.210907 62.101206 Q 207.868997 60.059324 208.497789 57.963352" style="fill:none;stroke-width:0.50;stroke:#967576;"/>
		<path d="M 281.241541 58.258591 Q 281.674257 59.845219 282.165571 61.40931 Q 282.512646 62.511386 282.555467 63.410625 Q 282.598288 64.291835 282.598288 65.513359 Q 282.596034 109.012666 282.589273 152.507467 L 275.352535 152.43084 Q 275.354789 108.62277 275.320983 64.724552 Q 275.318729 63.318222 274.960386 62.238684 Q 274.252713 60.11116 273.497713 58.015188 Q 273.468414 57.931799 273.382772 57.934053 L 270.964516 57.999411 Q 268.404275 51.860242 265.871079 45.815729 C 265.591616 45.148624 265.363989 44.47025 265.131854 43.791876 C 264.802809 42.831786 264.552645 41.508844 263.993719 40.406769 Q 255.880279 24.369202 250.829662 14.709701 Q 250.284259 13.67073 249.925915 13.420565 Q 249.328676 13.003625 248.213078 12.609221 Q 247.293555 12.286937 246.502494 12.192281 C 244.361448 11.939862 241.859804 12.063818 240.023011 13.287595 C 239.159831 13.864551 238.754159 14.831402 238.190726 15.919956 Q 232.894452 26.149651 232.673586 26.586876 Q 228.267538 35.268257 225.445863 40.702008 Q 225.042445 41.479546 224.794535 42.408084 Q 224.472251 43.631861 224.24237 44.161489 Q 221.305755 50.981286 218.357872 58.006173 L 216.090616 57.958844 Q 215.973422 57.956591 215.935109 58.067023 Q 215.245466 59.980443 214.60766 61.914146 C 214.238047 63.034252 214.10057 64.001103 214.10057 65.118955 Q 214.114092 108.794054 214.125361 152.473661 L 206.845802 152.455631 Q 206.843548 109.411577 206.863832 66.414852 C 206.863832 64.780895 206.77819 63.442178 207.210907 62.101206 Q 207.868997 60.059324 208.497789 57.963352 Q 208.953043 56.944664 209.408297 55.898932 Q 209.883835 54.803618 210.354865 53.848035 Q 215.71875 43.030114 219.498261 35.69872 Q 221.31477 32.173881 227.449432 20.271915 Q 229.403419 16.483389 231.96366 11.82943 C 233.009393 9.931786 233.969483 8.557009 235.743171 7.337739 C 238.386801 5.52123 241.528505 4.761722 244.695 4.516065 C 245.400419 4.461975 246.096822 4.67608 246.766181 4.741438 Q 247.7736 4.836095 248.168003 4.964558 Q 248.868914 5.192185 249.254303 5.178662 Q 249.36699 5.174155 249.4639 5.237259 C 249.716318 5.404036 249.984512 5.406289 250.196363 5.48517 Q 252.258529 6.231156 254.133636 7.572127 C 255.970428 8.8838 257.020668 10.70707 258.106968 12.629505 Q 259.042267 14.276984 260.86103 17.788301 Q 262.763181 21.457379 265.325676 26.305159 Q 267.000199 29.476162 268.760365 32.895075 Q 272.945548 41.026545 277.270462 49.669613 Q 279.391226 53.913393 281.241541 58.258591 Z" style="fill:#373642;"/>
		<path d="M 218.357872 58.006173 L 270.964516 57.999411 L 273.382772 57.934053 Q 273.468414 57.931799 273.497713 58.015188 Q 274.252713 60.11116 274.960386 62.238684 Q 275.318729 63.318222 275.320983 64.724552 Q 275.354789 108.62277 275.352535 152.43084 L 214.125361 152.473661 Q 214.114092 108.794054 214.10057 65.118955 C 214.10057 64.001103 214.238047 63.034252 214.60766 61.914146 Q 215.245466 59.980443 215.935109 58.067023 Q 215.973422 57.956591 216.090616 57.958844 L 218.357872 58.006173 Z" style="fill:#f5b3aa;"/>
		<path d="M 208.497789 57.963352 Q 207.868997 60.059324 207.210907 62.101206 C 206.77819 63.442178 206.863832 64.780895 206.863832 66.414852 Q 206.843548 109.411577 206.845802 152.455631 Q 204.042158 152.345198 201.421066 152.381258 C 199.807393 152.403795 197.761003 150.738286 196.548494 149.656494 Q 190.616668 144.369236 189.8211 143.650295 Q 188.004591 142.009577 188.006845 139.830217 Q 188.038397 94.947116 188.000083 61.010399 Q 187.99783 59.696473 188.056427 59.065427 C 188.144322 58.0828 188.750577 57.961098 189.645309 57.963352 Q 198.02469 57.983635 206.406324 57.97462 C 206.958489 57.97462 207.512907 58.042232 208.060564 58.114352 C 208.234102 58.136889 208.351296 58.051247 208.497789 57.963352 Z" style="fill:#f5b3aa;"/>
		<path d="M 282.589273 152.507467 Q 282.596034 109.012666 282.598288 65.513359 Q 282.598288 64.291835 282.555467 63.410625 Q 282.512646 62.511386 282.165571 61.40931 Q 281.674257 59.845219 281.241541 58.258591 Q 282.379676 58.008426 282.71999 58.006173 C 288.478278 57.970113 294.948747 58.078292 301.092424 57.949829 C 302.192246 57.927292 302.17647 59.144308 302.187739 60.048055 Q 302.187739 60.072846 302.178724 67.598062 Q 302.14041 100.216345 302.129142 136.224243 Q 302.126888 139.5485 302.124634 139.769366 Q 302.106604 141.263591 301.405693 142.469338 Q 301.006782 143.156727 299.550871 144.434594 Q 296.873435 146.778477 292.091013 151.001973 Q 291.17149 151.815571 289.898131 152.191944 Q 289.100309 152.426332 287.47086 152.428586 Q 284.960201 152.428586 282.589273 152.507467 Z" style="fill:#f5b3aa;"/>
	</g>
	<g id="surface4">
	</g>
</svg>
