<?xml version="1.0" encoding="utf-8"?>
<svg xmlns="http://www.w3.org/2000/svg" width="490pt" height="280pt" viewBox="0 0 490 280" version="1.1" xmlns:xlink="http://www.w3.org/1999/xlink">
	<g id="surface2">
		<path stroke-opacity="0.910" vector-effect="non-scaling-stroke" d="M 182.105721 22.773321 Q 182.170182 22.870012 182.231062 22.855688 Q 182.227481 22.796598 182.118255 22.737509" style="fill:none;stroke-width:0.50;stroke:#6a6a68;"/>
		<path stroke-opacity="0.910" vector-effect="non-scaling-stroke" d="M 165.472985 8.133505 L 165.238419 8.043976" style="fill:none;stroke-width:0.50;stroke:#6a6a68;"/>
		<path stroke-opacity="0.910" vector-effect="non-scaling-stroke" d="M 165.238419 8.043976 L 164.72094 7.761063 Q 164.695872 7.748529 164.688709 7.773597 L 164.688709 7.775388 Q 164.683337 7.796875 164.701243 7.805828 L 165.15247 8.05651" style="fill:none;stroke-width:0.50;stroke:#6a6a68;"/>
		<path stroke-opacity="0.910" vector-effect="non-scaling-stroke" d="M 321.817841 9.358264 Q 321.705035 9.329615 321.5976 9.485396" style="fill:none;stroke-width:0.50;stroke:#6a6a68;"/>
		<path stroke-opacity="0.910" vector-effect="non-scaling-stroke" d="M 321.5976 9.485396 Q 321.484793 9.514045 321.411379 9.603574" style="fill:none;stroke-width:0.50;stroke:#6a6a68;"/>
		<path stroke-opacity="0.910" vector-effect="non-scaling-stroke" d="M 321.20188 9.711009 L 320.345981 10.29474" style="fill:none;stroke-width:0.50;stroke:#6a6a68;"/>
		<path stroke-opacity="0.910" vector-effect="non-scaling-stroke" d="M 319.622585 10.837287 Q 319.51515 10.828334 319.441736 10.917863" style="fill:none;stroke-width:0.50;stroke:#6a6a68;"/>
		<path stroke-opacity="0.910" vector-effect="non-scaling-stroke" d="M 319.441736 10.917863 Q 319.370113 10.93935 319.332511 10.998439" style="fill:none;stroke-width:0.50;stroke:#6a6a68;"/>
		<path stroke-opacity="0.910" vector-effect="non-scaling-stroke" d="M 318.823985 11.372671 Q 318.750571 11.386996 318.721921 11.453248" style="fill:none;stroke-width:0.50;stroke:#6a6a68;"/>
		<path stroke-opacity="0.910" vector-effect="non-scaling-stroke" d="M 318.721921 11.453248 Q 318.541072 11.524871 318.421103 11.671699" style="fill:none;stroke-width:0.50;stroke:#6a6a68;"/>
		<path stroke-opacity="0.910" vector-effect="non-scaling-stroke" d="M 318.113123 11.870454 Q 317.934064 11.931334 318.052243 11.94924" style="fill:none;stroke-width:0.50;stroke:#6a6a68;"/>
		<path stroke-opacity="0.910" vector-effect="non-scaling-stroke" d="M 316.617985 13.057611 Q 313.815721 15.154385 311.51303 17.779382" style="fill:none;stroke-width:0.50;stroke:#6a6a68;"/>
		<path stroke-opacity="0.910" vector-effect="non-scaling-stroke" d="M 309.962384 20.916485 Q 313.158576 16.919901 316.925965 13.501676 Q 316.97073 13.462283 316.94029 13.404985" style="fill:none;stroke-width:0.50;stroke:#6a6a68;"/>
		<path stroke-opacity="0.910" vector-effect="non-scaling-stroke" d="M 317.081746 13.353058 Q 317.121139 13.306502 317.128301 13.240251" style="fill:none;stroke-width:0.50;stroke:#6a6a68;"/>
		<path stroke-opacity="0.910" vector-effect="non-scaling-stroke" d="M 321.182184 10.167608 Q 321.29141 10.113891 321.337965 10.010037" style="fill:none;stroke-width:0.50;stroke:#6a6a68;"/>
		<path stroke-opacity="0.910" vector-effect="non-scaling-stroke" d="M 321.466887 9.949157 L 321.8447 9.660873" style="fill:none;stroke-width:0.50;stroke:#6a6a68;"/>
		<path stroke-opacity="0.910" vector-effect="non-scaling-stroke" d="M 322.175958 9.388704 Q 322.473195 9.299175 322.680903 9.034169" style="fill:none;stroke-width:0.50;stroke:#6a6a68;"/>
		<path stroke-opacity="0.910" vector-effect="non-scaling-stroke" d="M 323.01037 8.808555 L 323.601263 8.33405 Q 323.629913 8.310773 323.608426 8.292867 L 323.608426 8.291076 Q 323.585148 8.27138 323.565452 8.282123 L 322.849218 8.720816" style="fill:none;stroke-width:0.50;stroke:#6a6a68;"/>
		<path stroke-opacity="0.910" vector-effect="non-scaling-stroke" d="M 254.389813 36.829407 Q 254.22508 37.008465 254.80702 37.019208" style="fill:none;stroke-width:0.50;stroke:#6a6a68;"/>
		<path stroke-opacity="0.910" vector-effect="non-scaling-stroke" d="M 250.300119 36.431897 Q 250.448738 36.141822 250.183731 36.080942" style="fill:none;stroke-width:0.50;stroke:#6a6a68;"/>
		<path stroke-opacity="0.910" vector-effect="non-scaling-stroke" d="M 238.392735 43.587071 Q 239.250424 43.724946 238.675647 43.526191" style="fill:none;stroke-width:0.50;stroke:#6a6a68;"/>
		<path stroke-opacity="0.910" vector-effect="non-scaling-stroke" d="M 236.217175 67.378563 L 236.206431 69.106477" style="fill:none;stroke-width:0.50;stroke:#6a6a68;"/>
		<path stroke-opacity="0.910" vector-effect="non-scaling-stroke" d="M 231.441687 82.177741 Q 231.710274 81.563571 231.477499 80.920751 C 231.386179 80.666488 231.439896 80.467733 231.409456 80.256444 Q 231.393341 80.136475 231.502567 80.190193 Q 231.579562 80.227795 231.590305 80.285094 Q 231.692369 80.859871 231.835615 80.639629" style="fill:none;stroke-width:0.50;stroke:#6a6a68;"/>
		<path stroke-opacity="0.910" vector-effect="non-scaling-stroke" d="M 238.478683 85.384677 Q 238.849334 85.506437 239.223566 85.458091" style="fill:none;stroke-width:0.50;stroke:#6a6a68;"/>
		<path stroke-opacity="0.910" vector-effect="non-scaling-stroke" d="M 238.958559 85.318426 Q 238.689972 85.223525 238.385572 85.322007" style="fill:none;stroke-width:0.50;stroke:#6a6a68;"/>
		<path stroke-opacity="0.910" vector-effect="non-scaling-stroke" d="M 251.648429 85.248593 Q 251.241967 85.155483 250.774624 85.268289" style="fill:none;stroke-width:0.50;stroke:#6a6a68;"/>
		<path stroke-opacity="0.910" vector-effect="non-scaling-stroke" d="M 250.686885 85.438395 L 251.261663 85.493903" style="fill:none;stroke-width:0.50;stroke:#6a6a68;"/>
		<path stroke-opacity="0.910" vector-effect="non-scaling-stroke" d="M 250.035113 86.553929 L 249.968861 86.657783 C 249.950955 86.686432 249.950955 86.724034 249.970652 86.752684 Q 250.036903 86.851166 250.198056 86.722244" style="fill:none;stroke-width:0.50;stroke:#6a6a68;"/>
		<path stroke-opacity="0.910" vector-effect="non-scaling-stroke" d="M 252.07996 85.463463 Q 252.452401 85.513599 252.880351 85.420489" style="fill:none;stroke-width:0.50;stroke:#6a6a68;"/>
		<path stroke-opacity="0.910" vector-effect="non-scaling-stroke" d="M 252.994948 85.490322 Q 253.071944 85.570898 253.199075 85.558364" style="fill:none;stroke-width:0.50;stroke:#6a6a68;"/>
		<path stroke-opacity="0.910" vector-effect="non-scaling-stroke" d="M 259.74187 46.353524 L 260.044478 46.40187" style="fill:none;stroke-width:0.50;stroke:#6a6a68;"/>
		<path stroke-opacity="0.910" vector-effect="non-scaling-stroke" d="M 255.372844 36.868799 Q 255.109628 36.730924 254.93236 36.791804" style="fill:none;stroke-width:0.50;stroke:#6a6a68;"/>
		<path stroke-opacity="0.910" vector-effect="non-scaling-stroke" d="M 232.874154 49.447653 Q 232.960102 49.420794 233.04605 49.449444" style="fill:none;stroke-width:0.50;stroke:#6a6a68;"/>
		<path stroke-opacity="0.910" vector-effect="non-scaling-stroke" d="M 259.781262 45.948852 Q 259.564602 45.879019 259.577136 46.09747" style="fill:none;stroke-width:0.50;stroke:#6a6a68;"/>
		<path stroke-opacity="0.910" vector-effect="non-scaling-stroke" d="M 232.175826 49.512114 Q 233.35224 49.642827 234.508958 49.519277" style="fill:none;stroke-width:0.50;stroke:#6a6a68;"/>
		<path stroke-opacity="0.910" vector-effect="non-scaling-stroke" d="M 236.070347 49.809351 Q 236.496506 50.034965 236.988917 50.072567" style="fill:none;stroke-width:0.50;stroke:#6a6a68;"/>
		<path stroke-opacity="0.910" vector-effect="non-scaling-stroke" d="M 237.162603 50.162096 Q 237.511767 50.3895 237.925392 50.48082" style="fill:none;stroke-width:0.50;stroke:#6a6a68;"/>
		<path stroke-opacity="0.910" vector-effect="non-scaling-stroke" d="M 238.020293 50.525585 Q 238.111613 50.645554 238.208304 50.586465" style="fill:none;stroke-width:0.50;stroke:#6a6a68;"/>
		<path stroke-opacity="0.910" vector-effect="non-scaling-stroke" d="M 243.306098 55.250936 Q 243.481575 55.664561 243.65168 56.067443 Q 243.692864 56.165925 243.723304 56.124742 Q 243.750162 56.092511 243.755534 55.96717" style="fill:none;stroke-width:0.50;stroke:#6a6a68;"/>
		<path stroke-opacity="0.910" vector-effect="non-scaling-stroke" d="M 243.614078 55.576823 L 243.415323 55.19901" style="fill:none;stroke-width:0.50;stroke:#6a6a68;"/>
		<path stroke-opacity="0.910" vector-effect="non-scaling-stroke" d="M 236.922665 45.818139 Q 237.415076 45.556714 236.695261 45.746516" style="fill:none;stroke-width:0.50;stroke:#6a6a68;"/>
		<path stroke-opacity="0.910" vector-effect="non-scaling-stroke" d="M 200.067071 62.058737 Q 200.006191 62.047994 199.990076 62.055156 C 199.938149 62.078434 199.923824 62.142895 199.959636 62.185869 Q 200.031259 62.270026 200.054537 62.223471" style="fill:none;stroke-width:0.50;stroke:#6a6a68;"/>
		<path stroke-opacity="0.910" vector-effect="non-scaling-stroke" d="M 224.243538 60.672825 Q 224.18803 60.654919 224.1558 60.71938 C 224.130732 60.769517 224.154009 60.830397 224.205936 60.853674 Q 224.239957 60.867999 224.288303 60.792794" style="fill:none;stroke-width:0.50;stroke:#6a6a68;"/>
		<path stroke-opacity="0.910" vector-effect="non-scaling-stroke" d="M 262.918366 63.093695 Q 262.918366 63.125926 262.925528 63.136669 C 262.927319 63.14025 262.932691 63.13846 262.932691 63.134879 Q 262.941643 63.038187 262.925528 63.066836 Q 262.918366 63.07758 262.918366 63.093695" style="fill:none;stroke-width:0.50;stroke:#6a6a68;"/>
		<path stroke-opacity="0.910" vector-effect="non-scaling-stroke" d="M 264.119848 68.488725 L 264.132382 67.731308 Q 264.132382 67.722355 264.139544 67.716983 Q 264.144916 67.713402 264.144916 67.709821 Q 264.143125 67.702659 264.141335 67.709821 L 264.050015 68.304295" style="fill:none;stroke-width:0.50;stroke:#6a6a68;"/>
		<path stroke-opacity="0.910" vector-effect="non-scaling-stroke" d="M 244.505789 88.681143 L 244.801235 88.661446" style="fill:none;stroke-width:0.50;stroke:#6a6a68;"/>
		<path stroke-opacity="0.910" vector-effect="non-scaling-stroke" d="M 251.800629 93.014356 L 251.856137 92.96243" style="fill:none;stroke-width:0.50;stroke:#6a6a68;"/>
		<path stroke-opacity="0.910" vector-effect="non-scaling-stroke" d="M 252.960927 91.275699 L 253.204447 90.486052 Q 253.21519 90.45024 253.181169 90.444868 Q 253.15252 90.441287 253.139986 90.466355 L 252.373616 91.943587" style="fill:none;stroke-width:0.50;stroke:#6a6a68;"/>
		<path stroke-opacity="0.910" vector-effect="non-scaling-stroke" d="M 252.312736 92.027745 Q 252.130096 92.145923 252.087122 92.296332" style="fill:none;stroke-width:0.50;stroke:#6a6a68;"/>
		<path stroke-opacity="0.910" vector-effect="non-scaling-stroke" d="M 251.98685 92.391233 Q 251.857927 92.439579 251.766608 92.572082" style="fill:none;stroke-width:0.50;stroke:#6a6a68;"/>
		<path stroke-opacity="0.910" vector-effect="non-scaling-stroke" d="M 251.766608 92.572082 Q 251.646639 92.615056 251.540994 92.743978" style="fill:none;stroke-width:0.50;stroke:#6a6a68;"/>
		<path stroke-opacity="0.910" vector-effect="non-scaling-stroke" d="M 251.540994 92.743978 Q 251.421025 92.799486 251.324333 92.894387" style="fill:none;stroke-width:0.50;stroke:#6a6a68;"/>
		<path stroke-opacity="0.910" vector-effect="non-scaling-stroke" d="M 251.066489 93.0251 Q 250.647493 93.186253 250.103155 93.193415" style="fill:none;stroke-width:0.50;stroke:#6a6a68;"/>
		<path stroke-opacity="0.910" vector-effect="non-scaling-stroke" d="M 244.806607 88.004302 Q 244.607852 87.843149 244.430584 87.53875" style="fill:none;stroke-width:0.50;stroke:#6a6a68;"/>
		<path stroke-opacity="0.910" vector-effect="non-scaling-stroke" d="M 242.940818 97.886536 Q 242.82264 97.934882 242.776085 97.900861" style="fill:none;stroke-width:0.50;stroke:#6a6a68;"/>
		<path stroke-opacity="0.910" vector-effect="non-scaling-stroke" d="M 241.357942 98.013667 Q 241.35078 98.024411 241.341827 98.036945" style="fill:none;stroke-width:0.50;stroke:#6a6a68;"/>
		<path stroke-opacity="0.910" vector-effect="non-scaling-stroke" d="M 241.162768 98.062013 Q 241.132328 98.08171 241.094726 98.101406 Q 241.051752 98.124684 241.026684 98.124684 Q 240.040072 98.137218 239.356069 98.282255 C 238.797407 98.402224 238.233373 98.350297 237.597715 98.411177 Q 237.597715 98.407596 237.595925 98.409387 C 237.911067 98.445198 238.202933 98.468476 238.521657 98.436245" style="fill:none;stroke-width:0.50;stroke:#6a6a68;"/>
		<path stroke-opacity="0.910" vector-effect="non-scaling-stroke" d="M 239.567358 98.38969 L 240.176156 98.314486" style="fill:none;stroke-width:0.50;stroke:#6a6a68;"/>
		<path stroke-opacity="0.910" vector-effect="non-scaling-stroke" d="M 240.314031 98.29658 Q 240.355215 98.271512 240.399979 98.278674" style="fill:none;stroke-width:0.50;stroke:#6a6a68;"/>
		<path stroke-opacity="0.910" vector-effect="non-scaling-stroke" d="M 241.003406 98.242862 L 243.032138 97.958159" style="fill:none;stroke-width:0.50;stroke:#6a6a68;"/>
		<path stroke-opacity="0.910" vector-effect="non-scaling-stroke" d="M 244.960597 97.822075 Q 244.933739 97.823866 244.905089 97.823866" style="fill:none;stroke-width:0.50;stroke:#6a6a68;"/>
		<path stroke-opacity="0.910" vector-effect="non-scaling-stroke" d="M 249.698483 98.332391 Q 249.827405 98.35925 249.897238 98.402224" style="fill:none;stroke-width:0.50;stroke:#6a6a68;"/>
		<path stroke-opacity="0.910" vector-effect="non-scaling-stroke" d="M 251.455046 98.445198 L 249.027014 98.119312" style="fill:none;stroke-width:0.50;stroke:#6a6a68;"/>
		<path stroke-opacity="0.910" vector-effect="non-scaling-stroke" d="M 246.201472 97.754033 Q 244.625758 97.467539 243.084065 97.863258" style="fill:none;stroke-width:0.50;stroke:#6a6a68;"/>
		<path fill-opacity="0.996" d="M 204.274944 48.065322 Q 204.192577 48.008024 204.004566 47.970421 Q 202.092222 47.59977 200.072443 47.10915 Q 198.362435 46.695525 196.63094 46.122538 Q 193.912833 45.221875 192.480366 44.636354 Q 190.104261 43.665857 188.025393 42.446469 Q 187.472102 42.120583 186.070075 41.048023 C 184.488989 39.835797 183.104867 38.184879 182.150486 36.637814 Q 180.943632 34.682496 180.07878 32.91519 Q 178.596176 29.88194 177.892477 28.342038 Q 176.4618 25.217468 174.71419 21.772384 C 172.406127 17.217138 169.421223 13.254575 165.399571 10.147912 Q 163.107623 8.380605 160.418166 6.557791 Q 160.228364 6.428869 159.404695 5.658917 Q 159.128945 5.401073 159.064484 5.105627 C 158.593561 2.942601 160.810304 3.492311 161.877492 4.238984 Q 162.160404 4.435948 162.525683 4.591729 Q 162.770994 4.695583 163.354724 5.037585 Q 163.653752 5.213062 164.181974 5.478068 Q 164.921485 5.848719 167.245663 7.331323 C 167.428303 7.447711 167.713006 7.524706 167.852671 7.630351 C 168.384475 8.033232 169.020132 8.387768 169.541192 8.73156 Q 169.806199 8.907037 172.083822 10.468426 Q 172.955836 11.068272 175.408937 13.129235 Q 176.92019 14.400549 178.042886 15.571591 Q 181.360838 19.032791 184.100432 23.058024 C 185.328773 24.864723 186.970739 26.513851 188.558987 27.91946 C 190.141863 29.319697 191.882311 30.544456 193.730194 31.593738 Q 194.152772 31.833677 194.408825 31.928578 C 194.720387 32.041385 194.965697 32.281323 195.314861 32.401292 Q 196.528877 32.816707 196.919224 32.979651 C 197.533395 33.239285 198.181586 33.309118 198.890657 33.527569 Q 199.248774 33.638586 199.680305 33.690513 Q 200.290894 33.765717 201.091285 33.977006 C 201.216626 34.011027 201.422543 33.982378 201.569371 34.009237 Q 203.308028 34.336913 205.297367 34.643103 Q 205.85603 34.729051 205.967046 34.746957 Q 207.641242 35.008382 209.200841 35.223253 C 211.118557 35.484678 212.821402 35.808774 214.545735 36.057665 Q 217.057924 36.419363 218.642591 36.775689 C 218.76256 36.802548 218.889692 36.782851 218.995336 36.71839 Q 220.084011 36.064827 221.460971 36.088105 Q 222.033958 36.098848 222.542484 35.987832 Q 224.621352 35.533024 227.001038 35.40052 Q 227.155028 35.391567 227.52747 35.085378 C 227.937514 34.748748 228.220426 34.673543 228.854293 34.41928 Q 229.226734 34.270662 229.706611 34.168599 C 230.682479 33.962681 231.486451 33.839131 232.202685 33.441621 Q 232.752394 33.135431 233.53488 32.952792 Q 233.853604 32.879378 234.926164 32.725388 Q 235.962912 32.574979 237.325546 32.197165 C 237.855559 32.048547 238.235163 31.835467 238.912004 31.527487 C 239.640772 31.198019 240.530692 31.051191 241.245135 30.963453 Q 242.935447 30.761117 244.312406 30.009071 Q 244.516532 29.898055 244.772586 30.016234 Q 246.325022 30.730677 247.662589 30.86139 Q 248.849746 30.977778 250.137176 31.432586 C 251.349402 31.862326 252.257228 32.136285 253.329788 32.472915 C 253.687904 32.583932 254.19464 32.696738 254.599312 32.721806 Q 256.114146 32.809545 257.340696 33.366417 C 258.151831 33.733487 258.561875 33.946566 259.285271 34.037886 Q 259.919137 34.118462 260.411548 34.313636 Q 261.39816 34.702193 262.375819 35.359337 Q 262.499369 35.443494 262.957759 35.438123 Q 264.243398 35.423798 265.674075 35.851748 Q 266.010705 35.953811 266.347335 35.953811 C 267.115495 35.957392 267.871122 36.123916 268.624958 36.170472 C 268.886383 36.186587 269.144227 36.297603 269.418186 36.344158 Q 269.597245 36.372808 269.731539 36.439059 Q 270.467469 36.800757 270.798727 36.979816 Q 270.879303 37.02279 270.967042 37.001303 Q 271.455871 36.883124 274.952882 36.313718 Q 280.92448 35.343222 282.523472 35.135514 Q 283.003348 35.072844 283.058857 35.072844 Q 283.347141 35.072844 283.588869 34.988686 C 283.902222 34.881251 284.349868 34.897366 284.7241 34.823952 Q 286.648978 34.446139 289.880982 33.935823 Q 289.911422 33.930451 289.932909 33.908964 Q 289.963349 33.878524 290.002742 33.873152 Q 290.532755 33.797948 291.963432 33.470271 Q 294.085274 32.986813 295.431793 32.297438 C 295.594736 32.215071 295.863324 32.016316 296.114006 31.917834 Q 296.293064 31.846211 296.393337 31.78354 Q 299.979877 29.518451 302.955828 26.472668 C 303.408846 26.008906 303.94423 25.328484 304.49394 24.791309 Q 304.794758 24.495863 305.788532 23.041909 Q 306.168136 22.486827 306.477907 22.100061 Q 306.988223 21.462613 307.176235 21.154633 C 307.423335 20.744589 307.729525 20.47242 308.007066 20.046261 Q 308.175381 19.786626 308.329371 19.595034 Q 310.771728 16.54746 313.622338 13.908139 Q 314.225765 13.347686 316.700352 11.347603 Q 318.191908 10.14254 322.664788 7.35281 C 323.244937 6.992903 323.762416 6.776242 324.315706 6.43245 Q 325.728477 5.555064 329.055383 3.965025 C 329.705365 3.655254 330.618563 3.408153 330.958774 4.301655 Q 331.060837 4.570242 331.019653 5.187994 Q 330.999957 5.506718 330.690186 5.782468 Q 330.170917 6.244438 330.147639 6.260554 Q 328.629224 7.29014 327.395511 8.115599 Q 326.392784 8.785277 325.868143 9.204274 C 325.21637 9.723543 324.589666 10.115681 323.864479 10.708365 Q 320.179457 13.716546 317.663686 17.856377 Q 316.856133 19.18499 316.170339 20.397216 Q 315.523938 21.541399 313.013539 26.952544 Q 312.329536 28.424405 311.477218 30.18992 C 309.625754 34.025352 307.854866 37.635169 304.792967 40.385507 Q 304.037341 41.065929 303.02387 41.748141 Q 300.980813 43.121519 297.983376 44.432227 Q 296.83203 44.935381 295.48372 45.413467 Q 294.008279 45.938108 293.933074 45.966758 C 293.163123 46.244298 292.346617 46.382173 291.5892 46.681201 Q 291.250779 46.815494 290.869385 46.879955 Q 290.430692 46.95516 289.155796 47.320439 Q 288.606086 47.478011 287.028582 47.805688 C 286.480663 47.920285 286.016902 48.162014 285.456449 48.145898 C 285.404522 48.144108 285.356176 48.172757 285.331108 48.217522 L 285.284553 48.296308 C 285.243369 48.36614 285.286343 48.45567 285.36692 48.468204 C 285.721455 48.525502 286.283699 48.600707 286.659721 48.810205 C 287.066184 49.035819 287.476228 49.060887 287.922083 49.290082 Q 288.047424 49.354543 289.222047 49.877393 Q 291.173784 50.745827 293.46036 52.282148 Q 294.056624 52.683239 294.701235 53.234739 C 295.961806 54.31088 297.063015 55.302863 297.988747 56.735331 Q 298.128413 56.951991 298.253754 57.71478 Q 298.441765 58.858964 297.471268 59.528642 Q 296.819496 59.978079 296.171304 60.246666 Q 294.239264 61.043476 292.126375 61.11689 Q 291.485346 61.140168 292.086982 61.394431 C 292.767404 61.680924 292.871258 62.466991 292.185464 62.826898 C 290.633028 63.645195 288.856768 63.990778 287.123483 64.101794 C 287.02321 64.108956 286.955168 64.203857 286.980236 64.300549 Q 287.465484 66.130526 285.648041 66.51013 C 283.991751 66.857503 282.056129 66.098295 280.731097 65.201213 C 280.632615 65.134961 280.501902 65.211956 280.512646 65.330135 Q 280.546667 65.690042 280.537714 66.11262 C 280.518018 67.016865 279.531406 67.428699 278.732805 67.305149 C 278.252929 67.229945 277.58146 66.932708 277.200065 66.583544 Q 276.114971 65.586188 275.522288 64.937997 Q 275.237585 64.624645 274.834703 64.429471 C 274.725478 64.377544 274.600137 64.461701 274.607299 64.583461 Q 274.67176 65.518146 274.256345 66.490433 Q 273.882113 67.36961 273.380749 67.631035 Q 273.312707 67.666847 273.241084 67.636407 Q 272.895501 67.487789 272.653772 67.21741 C 271.486311 65.903122 270.687711 64.572718 270.580276 62.902103 C 270.571323 62.760646 270.494327 62.631724 270.372568 62.55831 Q 269.208688 61.845658 267.985719 62.056947 C 267.25337 62.184078 267.396617 62.705138 267.133401 63.197549 Q 266.676802 64.055239 266.481628 64.363219 Q 266.236318 64.749985 266.177229 65.290742 Q 265.908641 67.833371 266.060841 69.289116 Q 266.481628 73.310768 265.822693 76.693182 Q 265.62752 77.6977 264.845034 81.864389 Q 264.597934 83.184049 264.497661 84.097247 Q 264.408132 84.894057 264.31144 85.594176 C 264.146707 86.77238 264.200424 88.340932 264.209377 89.311428 Q 264.21833 90.330271 264.422457 90.985625 C 264.639117 91.682162 265.160177 92.568501 265.380419 93.053749 Q 266.528184 95.598169 267.538073 98.731692 Q 268.63212 102.13022 269.901644 106.397183 C 270.302735 107.750864 270.01087 108.895047 269.529203 110.554919 Q 267.301716 118.234734 264.406341 124.542962 Q 263.580882 126.340709 262.825255 127.75527 Q 259.303176 134.358945 255.134697 139.945567 Q 251.560691 144.731799 246.80669 150.368558 C 246.169242 151.124184 245.017896 152.103634 243.982938 151.256688 Q 243.359815 150.746371 243.18971 150.55836 Q 240.161832 147.184899 236.11153 142.029807 C 233.87151 139.179197 231.944841 136.665217 230.127398 133.796701 Q 227.017153 128.892291 224.773551 123.961023 Q 223.572069 121.319911 221.953381 116.732434 Q 220.481521 112.563954 219.695455 108.561999 C 219.55758 107.858299 219.570114 107.197574 219.767078 106.424041 Q 220.338274 104.175068 220.397364 103.994219 Q 220.803826 102.7426 220.929167 102.31286 Q 221.817297 99.24738 221.976659 98.812268 Q 222.406399 97.644807 222.877323 96.493462 C 223.059962 96.045815 223.124423 95.56952 223.369733 95.220356 C 223.566698 94.939234 223.656227 94.452196 223.822751 94.085126 Q 224.619561 92.335725 225.008118 91.325836 C 225.387722 90.337433 225.509481 89.340078 225.477251 88.190523 Q 225.387722 84.886895 224.893521 81.74621 Q 224.392157 78.550018 223.806636 73.973284 Q 223.777987 73.753043 223.724269 72.836264 C 223.693829 72.320575 223.563117 71.806678 223.555954 71.32322 Q 223.514771 68.630181 223.534467 66.782298 Q 223.545211 65.659602 223.493284 65.102731 C 223.466425 64.800122 223.201419 64.544068 223.093983 64.311292 Q 222.741238 63.553875 222.393865 62.796458 C 222.311498 62.615609 222.313289 62.289723 222.144974 62.110664 C 222.107372 62.069481 222.055445 62.040832 221.999937 62.030088 Q 221.222823 61.886841 220.277395 62.099921 Q 219.813633 62.203775 219.521768 62.431179 Q 219.330176 62.581588 219.249599 63.143831 Q 218.859252 65.852985 216.766059 67.570156 C 216.624603 67.684753 216.420476 67.681172 216.286182 67.561203 C 215.494744 66.859294 215.17602 65.423245 215.147371 64.501094 Q 215.136627 64.116119 214.880574 64.404403 C 213.913658 65.496659 211.831209 67.815466 210.151641 67.299777 Q 209.78099 67.18518 209.392433 66.692769 C 209.111312 66.336443 209.19905 65.861938 209.245606 65.31581 C 209.256349 65.197631 209.122055 65.120636 209.025364 65.190469 C 208.635016 65.473381 208.167674 65.609466 207.766583 65.801058 Q 207.352958 65.996232 207.225827 66.039206 Q 206.147895 66.391951 205.075335 66.51192 C 204.337614 66.594287 203.537223 66.531617 202.978561 65.996232 C 202.559564 65.596932 202.754738 64.696268 202.817408 64.189533 C 202.82099 64.155512 202.795921 64.125072 202.7619 64.123281 Q 201.392103 64.039124 199.841457 63.732934 Q 198.328414 63.435697 197.200346 62.723044 Q 196.544992 62.307629 196.919224 61.632578 C 197.006963 61.473216 197.187812 61.398012 197.313153 61.294158 Q 197.5513 61.098984 197.241529 61.079288 C 196.992638 61.064963 196.777768 61.138377 196.527086 61.090031 Q 194.279903 60.660291 193.481303 60.248457 C 192.825949 59.911827 191.540309 59.274379 191.490173 58.396993 C 191.422131 57.200883 191.912751 56.361099 192.714933 55.496246 Q 194.340783 53.739683 195.257562 53.068214 Q 195.762507 52.699354 196.63094 51.98312 Q 197.300619 51.42983 199.769834 50.063614 Q 202.058201 48.797671 204.248085 48.215731 Q 204.421772 48.169176 204.274944 48.065322 Z M 165.15247 8.05651 Q 166.584938 9.087886 168.046054 10.078079 Q 168.851817 10.624207 171.743611 12.894668 C 174.687331 15.208103 177.326652 17.766848 179.994623 20.558368 C 180.540751 21.131355 181.269519 22.019485 181.946359 22.694535 Q 181.98038 22.728556 182.017983 22.744672 Q 182.062747 22.762577 182.105721 22.773321 Q 182.170182 22.870012 182.231062 22.855688 Q 182.227481 22.796598 182.118255 22.737509 L 182.10035 22.646189 Q 182.084234 22.565613 182.023354 22.513686 C 181.769092 22.293444 181.600777 21.962186 181.448577 21.767013 C 181.102994 21.324738 180.888124 20.948716 180.556866 20.610295 C 180.07878 20.123256 179.441332 19.242289 178.905947 18.66214 Q 176.667717 16.24127 174.230732 14.054967 Q 173.179659 13.111329 171.978177 12.296613 C 171.331776 11.856129 170.735512 11.335069 170.047928 10.891004 C 168.21616 9.709219 166.957379 8.932105 165.472985 8.133505 L 165.238419 8.043976 L 164.72094 7.761063 Q 164.695872 7.748529 164.688709 7.773597 L 164.688709 7.775388 Q 164.683337 7.796875 164.701243 7.805828 L 165.15247 8.05651 Z M 322.849218 8.720816 L 321.817841 9.358264 Q 321.705035 9.329615 321.5976 9.485396 Q 321.484793 9.514045 321.411379 9.603574 L 321.20188 9.711009 L 320.345981 10.29474 L 319.622585 10.837287 Q 319.51515 10.828334 319.441736 10.917863 Q 319.370113 10.93935 319.332511 10.998439 L 318.823985 11.372671 Q 318.750571 11.386996 318.721921 11.453248 Q 318.541072 11.524871 318.421103 11.671699 L 318.113123 11.870454 Q 317.934064 11.931334 318.052243 11.94924 L 316.617985 13.057611 Q 313.815721 15.154385 311.51303 17.779382 Q 308.836106 20.766076 306.501184 24.048217 C 305.924616 24.857561 305.280006 25.568423 304.687323 26.282866 Q 303.460773 27.761888 301.954891 29.056481 Q 301.405182 29.530986 300.914562 29.984003 C 299.972715 30.856018 299.082794 31.400355 298.117669 32.091521 C 297.116733 32.811336 296.185629 33.260772 295.157834 33.756764 Q 293.877566 34.372725 291.669776 34.929597 Q 290.513058 35.221462 285.961393 35.960973 Q 284.759912 36.156147 283.184197 36.458756 C 282.919191 36.508892 282.450058 36.490986 282.265628 36.560819 Q 281.920045 36.691532 281.59953 36.689741 Q 281.347058 36.689741 280.392677 36.863428 Q 279.431133 37.038905 279.198357 37.074717 Q 277.142766 37.386278 275.096129 37.733652 Q 274.94751 37.76051 273.103209 38.041632 Q 272.225822 38.175926 271.126404 38.417655 C 270.983157 38.449885 270.877512 38.571645 270.87035 38.718473 C 270.845282 39.239533 270.822004 39.733734 270.922277 40.206448 Q 271.155053 41.300495 271.588374 42.333662 C 271.898145 43.071383 272.333257 43.633626 272.938475 44.553987 C 273.026213 44.690071 273.187366 44.761694 273.348519 44.740207 Q 274.800682 44.546824 275.969934 44.297933 C 276.256427 44.237053 276.593057 44.22631 276.933268 44.172592 Q 284.083071 43.042734 289.196979 42.070446 Q 291.850625 41.565502 295.925994 40.483989 Q 296.225022 40.403413 296.699527 40.408784 C 296.790847 40.410575 296.848145 40.308512 296.796218 40.231516 Q 295.91346 38.902903 295.410306 37.332561 Q 295.322567 37.056811 295.367332 36.331624 Q 295.372704 36.240304 295.442537 36.179425 Q 295.616223 36.027225 295.786329 35.955601 Q 300.148192 34.098766 303.349756 30.592802 Q 304.259373 29.593656 305.450112 27.70459 Q 306.15023 26.594427 307.960511 23.688309 Q 308.340114 23.079511 309.962384 20.916485 Q 313.158576 16.919901 316.925965 13.501676 Q 316.97073 13.462283 316.94029 13.404985 Q 317.008332 13.458702 317.081746 13.353058 Q 317.121139 13.306502 317.128301 13.240251 L 317.248271 13.220554 Q 317.271548 13.216973 317.266176 13.193696 L 317.253642 13.14714 Q 317.237527 13.08447 317.341381 13.093423 Q 317.42912 13.098795 317.511486 12.99315 C 317.712032 12.731725 318.089845 12.498949 318.342318 12.25722 Q 318.505261 12.10323 318.723712 11.961774 Q 319.006624 11.780925 319.124803 11.686024 Q 319.683465 11.233006 319.687046 11.231215 C 320.154389 10.892795 320.550108 10.636741 320.888528 10.330552 Q 321.028194 10.205211 321.182184 10.167608 Q 321.29141 10.113891 321.337965 10.010037 Q 321.409588 10.002875 321.466887 9.949157 L 321.8447 9.660873 Q 322.023759 9.601784 322.175958 9.388704 Q 322.473195 9.299175 322.680903 9.034169 Q 322.874286 9.0091 323.01037 8.808555 L 323.601263 8.33405 Q 323.629913 8.310773 323.608426 8.292867 L 323.608426 8.291076 Q 323.585148 8.27138 323.565452 8.282123 L 322.849218 8.720816 Z M 194.061452 38.274408 C 193.96476 38.73996 193.7481 39.073009 193.646036 39.569 Q 193.608434 39.749849 193.791074 39.735525 C 194.090101 39.712247 194.236929 39.798195 194.500145 39.862656 Q 197.393729 40.568146 199.794902 40.974609 Q 201.524607 41.268265 204.855093 41.690843 Q 208.916138 42.208321 212.461495 42.426773 C 212.708595 42.441097 213.066712 42.552114 213.362159 42.559276 Q 215.560996 42.612993 217.093736 42.768774 C 217.190427 42.777727 217.274585 42.702523 217.274585 42.605831 Q 217.274585 41.694424 217.292491 41.490297 Q 217.433947 39.898468 217.851153 38.346031 C 217.894127 38.181298 217.790273 38.012983 217.623749 37.978962 Q 216.280811 37.701421 215.682756 37.615473 Q 212.790962 37.201848 209.686089 36.7166 Q 208.212438 36.485614 207.809557 36.415782 Q 206.627771 36.206283 205.936606 36.109592 Q 203.612428 35.781915 200.389376 35.201766 Q 197.773333 34.730842 195.622841 33.889267 C 195.184148 33.717371 194.715015 33.488177 194.376595 33.34672 Q 193.816142 33.110363 193.450863 32.906237 Q 190.816913 31.450492 188.521384 29.495174 C 188.319048 29.323278 187.994953 28.945464 187.753224 28.80759 C 187.459568 28.639275 187.336018 28.376059 187.045943 28.137911 Q 186.293898 27.523741 185.586617 26.72514 C 185.531109 26.66247 185.427255 26.714397 185.44337 26.796763 L 185.477391 26.957916 C 185.477391 26.963288 185.479182 26.966869 185.482763 26.972241 C 185.763885 27.389447 186.066494 27.733239 186.318966 28.162979 Q 187.124729 29.529195 187.751433 30.252591 Q 189.046026 31.749519 190.578766 33.017253 Q 191.226957 33.552638 192.473204 34.313636 Q 193.466978 34.922434 194.415987 35.550929 C 194.552072 35.642249 194.629067 35.79624 194.620114 35.959183 Q 194.582512 36.610955 194.498354 36.877752 Q 194.082939 38.174135 194.061452 38.274408 Z M 254.389813 36.829407 Q 254.22508 37.008465 254.80702 37.019208 Q 255.593086 37.155293 256.377362 37.225126 Q 256.921699 37.273471 257.951285 37.6674 C 257.987097 37.681725 257.99605 37.72828 257.967401 37.755139 L 257.883243 37.830343 C 257.831316 37.875108 257.761483 37.894804 257.695232 37.88227 Q 257.090014 37.762301 256.499122 37.799903 Q 254.679888 37.910919 253.148939 37.934197 C 252.855283 37.937778 252.561627 37.860783 252.273343 37.785579 Q 252.176651 37.75872 252.190976 37.858992 Q 252.216044 38.014773 252.378987 38.113255 C 252.833796 38.387215 253.285023 38.761447 253.816827 38.967364 Q 254.303865 39.157166 254.842831 39.368455 C 255.315546 39.552885 256.022826 39.592278 256.483006 39.647786 Q 257.430225 39.762383 256.531352 40.093642 Q 256.490169 40.109757 256.192932 40.104385 Q 256.022826 40.102594 255.870627 40.170637 Q 255.26899 40.439224 254.026325 40.994305 Q 252.81589 41.536852 252.108609 41.579826 Q 250.865944 41.658612 249.899028 41.028326 Q 249.531959 40.790179 249.200701 40.317465 C 248.828259 39.789242 248.414634 39.29146 248.466561 38.786515 Q 248.49342 38.519718 248.656363 38.731007 C 249.338576 39.615556 250.414717 40.36402 251.496229 40.42669 C 251.938504 40.451758 253.15431 40.387297 253.618072 40.004112 Q 253.693276 39.943232 253.614491 39.885934 C 253.417526 39.742687 253.077315 39.728362 252.824843 39.585116 Q 250.97696 38.548367 249.437058 37.05323 Q 249.315298 36.935051 249.419152 36.797176 Q 249.472869 36.725553 249.560608 36.738087 Q 250.0566 36.815082 250.300119 36.431897 Q 250.448738 36.141822 250.183731 36.080942 Q 250.035113 35.943067 249.856054 35.841004 Q 249.055663 35.380824 247.621405 34.750538 Q 246.514824 34.263499 245.444055 33.704837 Q 245.331248 33.645748 245.18263 33.686931 C 245.103844 33.710209 245.080566 33.810482 245.141446 33.86599 C 245.952581 34.580433 246.188938 34.890204 246.946355 35.140886 Q 247.14511 35.207137 246.935612 35.395149 C 246.910543 35.416636 246.878313 35.43096 246.844292 35.434542 Q 245.762779 35.516908 244.675894 35.194603 C 244.598899 35.171326 244.521904 35.237577 244.532648 35.318154 Q 244.580993 35.712082 244.819141 37.712165 Q 244.935529 38.696986 245.094891 39.182234 C 245.565815 40.620073 246.423505 41.751722 247.807626 42.414239 Q 249.315298 43.135844 250.538267 43.436662 Q 251.575015 43.689135 251.856137 43.760758 Q 252.515072 43.927282 253.202656 44.04188 C 253.251002 44.049042 253.290395 44.081272 253.308301 44.126037 Q 253.390668 44.331954 253.113127 44.357022 Q 252.731733 44.391043 250.02795 44.3803 Q 248.806772 44.374928 247.639311 43.887889 C 247.261498 43.730318 246.99291 43.517238 246.68672 43.334599 Q 246.251608 43.080336 245.999136 42.78489 Q 244.75289 41.334516 244.126185 39.644205 Q 244.074258 39.502749 243.984729 39.124935 Q 243.898781 38.759656 243.850435 39.132098 C 243.819995 39.379198 243.83611 39.608393 243.757325 39.885934 Q 243.431438 41.03907 243.311469 41.373909 C 242.409015 43.904005 239.891454 45.221875 237.36852 43.963094 Q 237.164394 43.861031 237.248551 43.669438 Q 237.282572 43.590652 237.370311 43.590652 L 238.392735 43.587071 Q 239.250424 43.724946 238.675647 43.526191 Q 239.20745 43.479636 239.749997 43.318484 Q 240.290754 43.160912 240.688263 42.801005 Q 241.524466 42.045378 242.063432 41.012211 Q 242.892473 39.418591 243.449344 37.964637 Q 243.902362 36.77927 244.133347 35.271598 C 244.14051 35.225043 244.093955 35.187441 244.04919 35.203556 Q 243.92743 35.24653 243.830739 35.346803 Q 243.114505 36.086314 242.648953 36.62528 C 242.274721 37.056811 241.755452 37.436415 241.451052 37.767673 C 240.808233 38.469582 239.964867 38.931552 239.117921 39.463356 Q 238.92991 39.581534 238.71683 39.647786 C 238.331855 39.767755 238.013131 39.885934 237.649642 39.939651 C 236.442788 40.116919 235.108803 40.041715 233.823164 39.925327 C 233.097977 39.860866 232.483807 39.998741 231.683416 40.1205 C 231.550912 40.141987 231.436315 40.032762 231.484661 39.928908 Q 231.490033 39.914583 231.500776 39.882353 C 231.534797 39.762383 231.626117 39.667482 231.744296 39.62988 Q 232.388906 39.425754 233.38268 39.194768 C 234.417638 38.95483 235.814293 38.886788 236.677355 38.790096 Q 237.552951 38.691614 238.174283 38.392587 Q 239.545871 37.735442 240.435791 37.006674 Q 241.90228 35.803402 242.634628 34.958246 Q 243.184338 34.324379 243.606916 33.917917 Q 243.730466 33.797948 243.708979 33.638586 C 243.701817 33.597402 243.658843 33.572334 243.61945 33.588449 Q 242.181611 34.206201 241.091145 35.071053 Q 240.197643 35.781915 239.588845 36.231351 Q 239.492153 36.301184 239.468876 36.184796 Q 239.458132 36.129288 239.48141 36.079152 Q 239.585264 35.855329 239.603169 35.841004 Q 241.343617 34.390631 242.541518 32.524842 Q 242.697299 32.281323 242.419758 32.36548 C 241.81275 32.551701 241.314968 32.54991 240.691845 32.850729 Q 238.47152 33.925079 235.610167 34.344076 C 235.502732 34.360191 235.318302 34.464045 235.182217 34.489113 Q 233.10514 34.874089 231.608211 35.407683 Q 231.387969 35.486468 230.496258 35.70492 Q 230.268854 35.762218 230.22409 35.925162 Q 230.199021 36.018272 230.295713 36.029015 L 234.831263 36.526798 Q 234.974509 36.542913 234.902886 36.666463 L 234.877818 36.711228 Q 234.79366 36.854475 234.628927 36.856265 Q 233.710357 36.863428 233.545623 36.888496 C 231.323508 37.230497 228.628679 37.119481 226.88465 37.162455 Q 224.327696 37.226916 222.060816 37.887642 Q 221.475295 38.059538 220.984675 38.397958 Q 220.909471 38.449885 220.884403 38.537624 Q 220.549563 39.742687 220.610443 40.757948 C 220.646255 41.329145 220.954235 41.984498 221.043765 42.584344 C 221.052718 42.641643 221.09211 42.689989 221.147618 42.709685 Q 221.419787 42.806377 223.410917 43.617511 Q 224.639258 44.117084 225.935641 44.44118 C 226.041285 44.468039 226.077097 44.602332 225.99652 44.675746 Q 225.153155 45.461813 224.193402 46.541535 C 224.080595 46.668667 223.88184 46.74029 223.751128 46.845934 Q 223.672342 46.910395 223.661599 46.973066 Q 223.643693 47.055433 223.688457 47.118103 C 223.722478 47.164658 223.781568 47.186145 223.837076 47.171821 Q 224.877405 46.887118 225.119134 46.674038 Q 226.635759 45.347215 228.152384 44.020393 Q 228.472898 43.739271 228.551684 43.717784 Q 229.307311 43.504704 228.739695 44.052623 Q 228.089713 44.679328 227.351993 45.640871 C 227.004619 46.093889 226.845257 46.529001 226.535486 47.07871 Q 226.066353 47.913123 226.818399 47.327602 Q 226.970598 47.209423 227.49703 46.903233 Q 227.615208 46.8334 227.659973 46.964113 Q 227.665345 46.982019 227.668926 47.041108 Q 227.670717 47.080501 227.654601 47.114522 Q 226.938368 48.742163 226.872116 48.910478 Q 226.45491 49.961551 226.402983 51.315232 C 226.401192 51.374322 226.472816 51.406552 226.51579 51.363578 C 226.847048 51.025158 227.323343 50.980393 227.724434 50.744036 C 228.311746 50.396663 228.931288 50.246254 229.509647 49.891718 Q 229.821208 49.701916 230.333315 49.503161 Q 230.419263 49.46914 230.478353 49.540764 Q 230.539232 49.619549 230.435379 49.789655 C 230.401357 49.843372 230.356593 49.891718 230.304666 49.92932 Q 229.199875 50.711806 228.256238 51.608888 Q 226.27048 53.496164 226.447748 56.371842 Q 226.488931 57.07017 226.984923 57.558999 Q 227.643858 58.208981 227.959001 58.490103 Q 229.67259 60.024634 230.526698 62.058737 Q 230.607275 62.252121 230.911674 62.791086 C 231.063874 63.057883 231.119382 63.394513 231.310974 63.686378 C 231.552703 64.049867 231.670882 64.542278 231.88038 64.952321 Q 233.04605 67.229945 234.091751 69.63828 C 234.113238 69.688417 234.174118 69.706322 234.218883 69.675882 Q 234.299459 69.622165 234.279763 69.520102 Q 234.093542 68.479772 234.123982 67.285453 Q 234.136516 66.75544 234.0255 66.135898 C 233.912693 65.510984 233.99685 64.683734 233.855394 63.999731 C 233.739006 63.430325 233.699613 62.64963 233.518764 62.0659 Q 233.423864 61.7615 233.157066 61.179561 Q 233.080071 61.013036 233.0747 60.948575 Q 233.040678 60.508092 233.355821 60.819653 Q 233.550995 61.013036 233.794514 61.383687 Q 235.606586 64.128653 236.217175 67.378563 L 236.206431 69.106477 Q 236.100787 71.004496 236.100787 72.91863 C 236.100787 73.586518 235.937844 74.227547 235.941425 74.87932 Q 235.945006 75.326966 235.821456 76.333274 Q 235.731926 77.058461 235.697905 78.208016 Q 235.692534 78.40319 235.563612 78.641337 C 235.508103 78.74161 235.359485 78.725495 235.327254 78.614479 C 235.248469 78.34231 235.248469 78.084466 235.164311 77.808716 Q 234.401522 75.301898 233.427445 72.410105 Q 233.183925 71.683127 232.850877 71.156696 Q 232.317282 70.31333 232.046904 70.025046 Q 231.276953 69.203168 230.908093 68.454704 Q 230.374499 67.36961 229.839114 66.467156 C 229.781815 66.372255 229.688705 66.307794 229.58127 66.288097 L 228.29563 66.064274 Q 227.758455 65.969373 228.224007 65.711529 Q 228.252656 65.697204 228.485432 65.71332 Q 229.513228 65.786734 229.864182 65.904912 C 230.512374 66.121573 230.995831 66.963147 231.35932 67.52181 C 231.407666 67.597014 231.522263 67.580899 231.547331 67.494951 C 231.722809 66.916592 231.079989 66.069646 230.721872 65.797477 Q 230.381661 65.537842 229.563364 65.349831 Q 228.213264 65.04006 227.316181 64.97918 C 227.271416 64.975599 227.232023 64.950531 227.208746 64.912929 L 226.54802 63.765164 Q 226.474606 63.639823 226.594575 63.557456 Q 226.696639 63.484042 226.779006 63.5682 Q 226.924043 63.716818 227.035059 63.779489 Q 227.183678 63.861856 227.294694 63.729352 Q 227.310809 63.707865 227.328715 63.63087 Q 227.353783 63.512692 227.249929 63.453603 L 226.759309 63.17069 Q 226.675152 63.122344 226.650084 63.029234 Q 226.494303 62.456247 226.676942 61.818799 Q 226.680524 61.804475 226.655455 61.718526 Q 226.642921 61.679134 226.605319 61.657647 C 226.57667 61.641531 226.539067 61.648694 226.522952 61.677343 Q 226.324197 61.990695 226.297339 62.087387 Q 225.5059 64.966646 227.262463 67.473464 Q 228.521244 69.26942 229.267918 70.110994 Q 229.389677 70.25066 229.608129 70.551478 C 229.869554 70.913176 230.152466 71.205041 230.304666 71.632991 C 230.464028 72.084218 230.712919 72.381455 230.732616 72.873866 Q 230.763055 73.620539 230.585788 74.130856 Q 230.431797 74.574921 230.811401 74.299171 Q 231.785479 73.595471 232.184779 72.630346 Q 232.286843 72.383246 232.328026 72.646462 Q 232.376372 72.954442 232.204476 73.317931 Q 230.965391 75.932184 229.916109 77.719187 C 229.731679 78.03612 229.701239 78.336938 229.575898 78.666406 Q 229.378934 79.178513 229.232106 78.65029 C 228.952775 77.645773 228.795203 76.904471 228.496176 76.07543 Q 227.502402 73.323302 226.478188 70.581918 C 226.385077 70.331236 226.164835 70.059068 226.084259 69.745715 Q 225.869389 68.907722 225.624079 68.080472 Q 225.616917 68.055404 225.588267 68.055404 Q 225.53634 68.053613 225.541712 68.10554 C 225.613335 68.793124 225.706446 69.899706 225.880132 70.743071 Q 226.743194 74.927666 227.715481 78.175786 Q 228.335023 80.240329 230.030707 84.981796 Q 230.037869 85.005074 230.199021 85.646103 Q 230.249158 85.843067 230.351221 85.66759 C 230.512374 85.39184 230.560719 85.010445 230.65383 84.757973 Q 230.780961 84.4106 230.949276 83.977278 C 231.038805 83.749874 231.031643 83.499192 231.142659 83.271788 C 231.325299 82.899347 231.364692 82.566298 231.441687 82.177741 Q 231.710274 81.563571 231.477499 80.920751 C 231.386179 80.666488 231.439896 80.467733 231.409456 80.256444 Q 231.393341 80.136475 231.502567 80.190193 Q 231.579562 80.227795 231.590305 80.285094 Q 231.692369 80.859871 231.835615 80.639629 Q 232.143596 82.004054 232.390696 83.463381 Q 232.680771 85.169807 233.133789 86.559301 C 233.151695 86.611228 233.221527 86.61839 233.248386 86.571835 Q 233.35224 86.390986 233.65843 85.796512 Q 233.887625 85.352447 234.11861 85.057 Q 234.603858 84.433877 235.072992 83.80001 Q 235.653141 83.021106 235.936053 81.765907 Q 236.084672 81.098019 236.226128 80.73453 Q 236.381909 80.329858 236.562758 79.708526 C 236.702423 79.226858 237.005032 78.625222 237.216321 78.245618 Q 237.4294 77.862433 237.903905 77.679794 Q 238.005968 77.640401 238.023874 77.747836 Q 238.047152 77.88392 237.875256 78.027167 Q 237.805423 78.086256 237.774983 78.172204 Q 237.352405 79.405917 237.30585 80.021878 C 237.246761 80.768551 236.971011 81.486576 237.015775 82.324569 C 237.033681 82.655827 237.160813 82.838467 237.30585 83.117798 C 237.379264 83.255673 237.334499 83.427569 237.203787 83.513517 C 236.405186 84.041739 235.762366 84.408809 235.34337 85.05521 C 234.929745 85.696239 234.383617 86.46619 234.070264 87.263 Q 233.554576 88.571917 233.264502 90.120772 Q 232.793578 92.640124 232.73986 93.109257 Q 232.704049 93.419029 232.569755 94.581118 Q 232.385325 96.169366 232.852667 97.643017 C 232.881317 97.736127 232.965474 97.800588 233.062166 97.804169 C 233.977154 97.841771 234.981672 97.564231 235.538543 96.799651 Q 235.755204 96.504205 235.731926 95.872129 Q 235.658513 93.814748 235.583308 92.980335 Q 235.502732 92.110111 235.549287 89.699985 C 235.565402 88.910338 235.762366 87.932679 235.860849 87.411619 C 235.95575 86.913836 236.23329 86.090168 236.496506 85.850229 C 236.81702 85.558364 237.416866 85.205619 237.76424 85.690867 Q 238.253069 86.369499 239.062413 86.530651 Q 239.479619 86.613018 239.262958 86.247739 Q 239.091062 85.955874 238.679228 85.737422 C 238.625511 85.708773 238.582536 85.660427 238.561049 85.603129 L 238.478683 85.384677 Q 238.849334 85.506437 239.223566 85.458091 Q 240.901343 85.671171 242.503916 85.472416 Q 242.786828 85.438395 242.503916 85.407955 Q 242.095663 85.36319 241.549534 85.388259 C 240.786746 85.42407 240.269267 85.357819 239.425902 85.268289 Q 239.17522 85.243221 238.958559 85.318426 Q 238.689972 85.223525 238.385572 85.322007 Q 237.88958 85.14832 237.364939 85.049838 C 236.928037 84.969262 236.637962 85.153692 236.270892 85.311263 Q 236.20106 85.341703 236.163457 85.275452 Q 236.149133 85.250384 236.150923 85.214572 Q 236.152714 85.164436 236.206431 85.112509 C 236.881482 84.460736 237.986272 84.433877 238.874402 84.414181 Q 244.17095 84.297793 249.573142 84.378369 Q 250.810436 84.396275 252.122934 84.552056 Q 252.330642 84.577124 253.012854 84.960309 C 253.062991 84.988958 253.09164 85.042676 253.084478 85.099974 L 253.075525 85.189504 C 253.066572 85.273661 252.977043 85.323798 252.900047 85.287986 Q 252.153374 84.942403 251.648429 85.248593 Q 251.241967 85.155483 250.774624 85.268289 L 247.601709 85.416908 C 247.589175 85.416908 247.583803 85.433023 247.592756 85.440185 Q 247.612452 85.458091 247.632149 85.463463 Q 247.693029 85.477788 247.651845 85.526134 Q 247.614243 85.570898 247.537248 85.556573 Q 247.531876 85.554783 247.531876 85.558364 Q 247.530086 85.560155 247.530086 85.563736 Q 247.530086 85.570898 247.537248 85.570898 Q 249.025223 85.619244 250.513199 85.54583 Q 250.583032 85.542249 250.686885 85.438395 L 251.261663 85.493903 Q 250.54901 85.905737 250.035113 86.553929 L 249.968861 86.657783 C 249.950955 86.686432 249.950955 86.724034 249.970652 86.752684 Q 250.036903 86.851166 250.198056 86.722244 L 252.07996 85.463463 Q 252.452401 85.513599 252.880351 85.420489 Q 252.760382 85.483159 252.994948 85.490322 Q 253.071944 85.570898 253.199075 85.558364 Q 253.64493 85.911109 253.809664 86.265645 Q 254.375489 87.472499 254.520526 89.125208 C 254.583197 89.852185 254.68526 90.631089 254.719281 91.46192 Q 254.862528 94.804941 254.966382 95.444179 Q 255.217063 96.994825 255.45163 97.589299 Q 255.517882 97.757614 255.992386 98.595607 C 256.019245 98.642163 256.0658 98.674393 256.119518 98.679765 L 256.508075 98.722739 C 256.601185 98.733482 256.683552 98.661859 256.685342 98.566958 Q 256.70862 97.537372 256.669227 95.642934 C 256.658484 95.095015 256.543886 94.504123 256.506284 93.909649 Q 256.448985 93.003613 256.398849 92.616847 Q 256.166073 90.804776 256.069381 90.140469 Q 255.933297 89.220109 255.591295 87.63186 Q 255.340614 86.46619 254.955638 85.837695 Q 254.366536 84.877942 253.746994 84.407018 Q 253.156101 83.959372 253.016435 83.751665 C 252.751429 83.354155 252.375406 82.84921 252.377197 82.44991 Q 252.382569 80.277931 252.380778 79.737175 C 252.377197 79.013779 252.17307 78.392446 251.884786 77.771113 Q 251.83465 77.663678 251.832859 77.525803 C 251.829278 77.414787 251.959991 77.353907 252.044148 77.425531 C 252.749638 78.032539 253.293976 79.097936 253.573307 80.161543 Q 253.7649 80.892102 253.97977 81.783813 C 254.07109 82.158045 254.217917 82.503627 254.354002 82.951273 C 254.590359 83.728387 255.057701 84.372997 255.525044 85.033723 C 255.791841 85.411536 255.904648 85.672961 256.106984 86.154629 Q 256.484797 87.049921 256.55642 86.079424 Q 256.595813 85.518971 256.828589 84.38016 Q 257.254748 82.286967 257.29235 82.118652 Q 257.503639 81.16427 257.747159 80.433712 Q 258.105276 79.361152 258.325517 78.757725 C 258.370282 78.632384 258.384607 78.499881 258.368492 78.367378 C 258.189433 76.970722 257.992469 75.849817 257.482152 74.60357 Q 257.027344 73.489827 256.902003 73.112014 Q 256.477635 71.84428 256.871563 70.422556 C 256.884097 70.379582 256.855448 70.336608 256.810683 70.331236 L 256.748013 70.325865 C 256.688924 70.318702 256.633415 70.358095 256.620881 70.415394 Q 256.474053 71.060004 256.130261 72.037663 Q 255.324498 74.343935 254.482924 77.33063 Q 254.438159 77.488201 254.19643 77.633239 Q 254.10332 77.686956 254.096158 77.581312 C 254.046021 76.888356 253.836523 76.053943 253.818617 75.418286 C 253.791758 74.472857 253.64314 73.606215 253.634187 72.617812 Q 253.619862 71.029564 253.514218 69.063503 Q 253.456919 67.992733 253.804292 66.01951 Q 253.872335 65.625581 254.033487 65.249558 Q 254.291331 64.64076 254.296703 64.626435 Q 254.65482 63.5682 255.193786 62.590541 Q 255.229597 62.527871 255.541159 62.055156 C 255.834815 61.609301 255.874208 61.050639 256.486588 60.764145 Q 256.756966 60.637014 256.606557 60.894858 L 256.3702 61.304902 Q 256.325435 61.383687 256.318273 61.473216 C 256.28067 61.9137 256.040732 62.350603 255.963737 62.739159 C 255.815118 63.480461 255.628898 64.15014 255.623526 64.945159 C 255.610992 66.710675 255.641432 67.500323 255.530416 68.35085 Q 255.439096 69.040225 255.446258 69.169147 Q 255.501766 69.991025 255.815118 69.226446 Q 256.171445 68.354431 256.543886 67.389307 Q 256.679971 67.03119 257.376508 65.600513 Q 258.067673 64.176999 258.418628 62.821526 Q 258.441905 62.731997 258.524272 62.690814 Q 258.683634 62.610237 258.778535 62.425807 C 259.19216 61.623625 259.494769 60.805329 260.01941 60.219808 Q 260.241443 59.972707 260.621046 59.385395 Q 260.900378 58.952074 261.774183 58.171379 C 262.613967 57.421124 262.884345 56.88753 262.751842 55.766625 C 262.479673 53.456771 261.075855 51.682302 259.399868 50.026012 Q 259.226181 49.855906 259.231553 49.605225 C 259.233344 49.535392 259.315711 49.49958 259.367637 49.546135 C 260.035525 50.158515 260.864566 50.462914 261.777764 50.844309 C 262.04098 50.953534 262.139462 51.066341 262.313148 51.193473 Q 262.581736 51.392228 262.476092 51.075294 C 262.264803 50.443218 262.202132 49.902462 261.851178 49.245317 C 261.562894 48.704561 261.156431 48.206778 260.780408 47.708996 Q 260.760712 47.682137 260.20384 47.087663 Q 259.913766 46.776102 259.74187 46.353524 L 260.044478 46.40187 Q 260.7249 47.001715 261.267447 47.035736 Q 261.756277 47.067967 262.221829 47.184355 C 262.513694 47.255978 262.737517 47.488754 262.988199 47.59798 Q 263.228137 47.700043 263.11533 47.465477 C 262.721402 46.64897 261.750905 46.122538 260.932608 45.608641 Q 260.812639 45.533436 260.708785 45.433163 Q 260.544051 45.275592 260.51003 45.214712 Q 260.243233 44.734836 260.689089 45.064303 Q 261.55036 45.694589 262.544134 45.051769 Q 263.167257 44.648888 262.819884 43.864612 Q 262.388353 42.892325 261.85834 42.185044 Q 261.18329 41.28438 260.352459 40.274491 Q 259.645178 39.416801 260.567329 40.081107 Q 260.757131 40.218982 261.149269 40.600377 Q 261.36772 40.813456 261.645261 41.16083 Q 262.62471 42.38738 262.637244 42.401704 Q 263.319457 43.193143 263.656087 44.088435 C 263.69727 44.19766 263.808286 44.263912 263.924674 44.249587 Q 265.384 44.065157 266.538927 43.626464 C 266.846908 43.508286 267.165632 43.517238 267.462868 43.40085 C 267.518377 43.379363 267.561351 43.336389 267.584628 43.280881 Q 267.763687 42.860094 267.765477 42.643433 Q 267.783383 40.351486 268.137919 38.186669 C 268.155825 38.081025 268.082411 37.978962 267.976766 37.962846 C 267.324993 37.860783 266.760959 37.656656 266.096653 37.585033 Q 265.115413 37.477598 263.928255 37.20901 Q 263.3302 37.074717 261.158222 37.08367 Q 261.15464 37.08367 259.740079 37.123062 Q 258.205548 37.167827 256.683552 36.947585 Q 256.368409 36.90103 256.029989 36.897449 Q 255.687987 36.892077 255.372844 36.868799 Q 255.109628 36.730924 254.93236 36.791804 Q 255.048748 36.605584 255.122162 36.59484 C 256.037151 36.448012 256.943187 36.295812 257.851013 36.107801 Q 258.576199 35.955601 259.321082 35.975298 Q 259.371219 35.975298 259.417774 35.948439 Q 259.525209 35.885769 259.414193 35.760428 C 259.389124 35.731778 259.356894 35.712082 259.321082 35.701339 Q 258.998777 35.606438 256.914537 34.995848 Q 255.403284 34.551784 254.473971 34.370935 C 253.322625 34.148902 252.062054 33.980587 250.959054 33.635004 C 250.011835 33.337767 249.32246 33.155128 248.5543 32.802383 C 247.691238 32.406664 246.923078 32.245511 246.095828 31.849792 Q 246.043901 31.826514 245.931094 31.835467 C 245.854099 31.84263 245.818287 31.933949 245.868423 31.993039 Q 246.13522 32.301019 246.444992 32.562445 C 247.352818 33.327024 248.359126 34.379887 249.660881 35.040613 C 250.27147 35.352175 250.88564 35.833842 251.299265 36.234933 C 251.503392 36.431897 251.859718 36.605584 252.056682 36.636023 C 252.837377 36.757783 253.560773 36.983397 254.389813 36.829407 Z M 221.127922 51.209588 C 220.474359 50.976812 219.811843 50.711806 219.169023 50.543491 Q 217.772367 50.17463 217.584356 50.117332 Q 215.97104 49.619549 215.08291 49.329475 Q 213.526892 48.822739 212.556396 48.688445 Q 210.633308 48.423439 209.066547 48.584592 Q 206.330535 48.863923 203.304447 49.966923 C 202.840686 50.135237 202.54703 50.385919 202.162055 50.500517 Q 201.746639 50.625858 201.325852 50.923095 C 200.674079 51.383275 199.999029 51.698417 199.32756 52.185456 Q 197.542347 53.480049 197.066052 53.893674 Q 195.397228 55.338675 193.988038 57.041521 Q 193.760634 57.31548 194.111588 57.25281 Q 194.236929 57.231323 194.475077 57.030777 Q 196.222687 55.558917 197.819888 53.940229 C 198.088476 53.66806 198.446592 53.490792 198.740248 53.231158 Q 199.318607 52.71905 199.397393 52.659961 Q 200.856719 51.585611 202.518381 50.885492 C 202.908728 50.722549 203.270426 50.702853 203.610637 50.598999 Q 203.859528 50.522004 204.439678 50.468286 C 205.58028 50.362642 206.34665 50.065405 207.616174 49.62313 Q 208.753195 49.227411 209.530308 49.157579 Q 211.25285 49.005379 212.731873 49.311569 Q 213.557332 49.481674 215.050679 49.938273 C 217.036437 50.547072 219.177976 50.923095 221.054508 51.27763 Q 221.095692 51.286583 221.131503 51.268677 Q 221.201336 51.234656 221.127922 51.209588 Z M 286.636444 51.161242 Q 287.555013 51.349254 288.860349 51.884638 Q 289.666112 52.214106 290.575729 52.835438 Q 291.723493 53.621505 292.215904 54.060198 Q 294.130038 55.763044 295.517741 56.97885 Q 295.664569 57.109563 295.836465 57.150746 Q 296.199954 57.238485 295.94211 56.966316 Q 295.077257 56.056699 294.19629 55.150664 C 293.76655 54.708389 293.229375 54.314461 292.710105 53.870396 C 291.911505 53.186393 290.599006 52.448672 290.000951 52.015351 C 289.71983 51.811224 289.342016 51.700208 289.053732 51.505034 Q 288.645479 51.231075 288.351823 51.103944 C 287.834345 50.87833 287.435044 50.545281 286.980236 50.414569 C 286.444851 50.262369 285.984671 49.923949 285.409894 49.741309 Q 284.186925 49.352752 283.719582 49.239945 Q 282.967537 49.059096 281.669363 49.030447 Q 279.48306 48.982101 277.601156 49.288291 Q 277.203646 49.350962 274.780986 50.070776 C 272.759416 50.670622 270.859607 51.236447 268.798644 51.248981 C 268.737764 51.248981 268.700162 51.315232 268.730602 51.367159 L 268.769995 51.438783 C 268.773576 51.445945 268.780738 51.449526 268.787901 51.449526 C 270.519396 51.472804 272.163152 51.177357 273.81228 50.829984 C 275.490057 50.477239 277.599365 49.723403 279.552893 49.617759 C 280.347912 49.572994 281.039078 49.49779 281.708756 49.746681 Q 284.152903 50.656297 286.636444 51.161242 Z M 206.579426 54.724505 C 206.140733 55.263471 205.651903 55.68963 205.005502 55.979704 Q 203.102111 56.835603 201.827215 57.080913 Q 201.594439 57.125678 201.238113 57.234904 Q 200.702728 57.397847 200.661545 57.4068 Q 197.667688 58.017389 194.609371 58.497266 Q 194.313924 58.543821 194.582512 58.676324 C 195.198473 58.982514 195.857408 59.029069 196.453672 59.181269 C 198.197701 59.623543 200.181668 59.426579 201.916745 58.907309 C 203.388605 58.466826 204.8157 57.476633 205.748595 56.190993 Q 205.945559 55.920615 206.636724 55.052182 Q 206.77639 54.876704 206.826526 54.729876 Q 206.921427 54.461289 206.679698 54.611698 Q 206.663583 54.620651 206.579426 54.724505 Z M 279.803575 59.722025 C 278.648648 59.141876 277.620852 58.309254 276.517853 57.635995 C 275.549147 57.043311 274.553582 56.353936 273.93404 55.96717 C 273.626059 55.775578 273.396864 55.429995 273.028004 55.340466 Q 272.809553 55.286748 272.967124 55.447901 C 274.553582 57.064798 275.814153 58.284186 277.361218 59.46239 C 277.996875 59.947639 278.854565 60.449002 279.57617 60.876952 Q 280.410583 61.374734 281.221717 61.997858 Q 282.068664 62.64784 283.123318 63.204711 Q 283.98817 63.66131 284.503858 63.981825 C 284.575481 64.026589 284.665011 63.960338 284.643524 63.877971 L 284.075908 61.750757 C 284.052631 61.664809 284.133207 61.586023 284.219155 61.611091 C 284.516392 61.69883 284.677545 61.766872 284.942551 61.774035 Q 287.334772 61.834914 287.947151 61.849239 C 288.235435 61.856401 288.523719 61.954884 288.786935 61.928025 Q 289.277555 61.876098 288.8317 61.664809 Q 288.307059 61.414127 287.990125 61.235069 Q 286.185217 60.218017 284.188715 59.727397 Q 284.066955 59.696957 283.449204 59.603847 Q 283.168082 59.562663 282.709693 59.469553 C 281.135769 59.149038 280.183178 58.928796 278.877843 58.23584 C 278.344248 57.951137 277.869744 57.507073 277.457909 57.19372 Q 276.680796 56.602828 277.320034 57.340548 C 277.833932 57.933232 278.34783 58.441757 279.05332 58.989676 Q 279.649584 59.455228 279.830433 59.691585 C 279.842967 59.709491 279.823271 59.732769 279.803575 59.722025 Z M 200.067071 62.058737 Q 200.006191 62.047994 199.990076 62.055156 C 199.938149 62.078434 199.923824 62.142895 199.959636 62.185869 Q 200.031259 62.270026 200.054537 62.223471 Q 200.511136 62.21989 200.937295 62.316582 Q 201.56579 62.456247 201.802147 62.474153 Q 203.34384 62.58696 204.516673 62.409692 Q 205.88647 62.201984 207.007375 61.571699 Q 207.317146 61.398012 207.200758 61.734642 Q 206.987679 62.357765 206.908893 62.927171 C 206.86771 63.217245 206.68507 63.50732 206.711929 63.849322 Q 206.726254 64.030171 206.83727 63.886924 C 207.589315 62.898521 209.005667 62.316582 209.986907 61.414127 Q 212.187535 59.390767 212.964649 58.692439 Q 214.588709 57.234904 216.382874 56.074605 Q 216.855588 55.768415 216.304088 55.881222 Q 216.030129 55.938521 215.550252 56.223224 Q 215.396262 56.316334 213.988863 57.16328 C 212.789172 57.884886 211.696915 58.740785 210.586753 59.580569 Q 210.085389 59.960173 208.328826 61.695249 C 208.271528 61.752548 208.174836 61.691668 208.201695 61.614673 L 208.284062 61.381897 C 208.285852 61.376525 208.287643 61.372944 208.291224 61.369363 Q 210.470365 58.574261 210.674492 58.316417 Q 211.415794 57.372779 212.04787 56.903646 Q 212.812449 56.33424 211.909995 56.64222 Q 210.876828 56.994965 210.457831 57.088076 Q 210.114039 57.165071 209.768456 57.405009 C 209.437198 57.634204 208.907185 57.795357 208.570555 58.065735 Q 208.3718 58.225097 208.062029 58.393412 Q 206.83906 59.0613 205.927653 59.602056 C 205.587442 59.802601 205.220372 59.908246 204.930298 60.076561 Q 204.556066 60.293221 204.194368 60.445421 Q 202.675952 61.08645 201.368826 61.600348 C 200.991013 61.748966 200.489649 61.872517 200.067071 62.058737 Z M 286.124337 57.066589 C 285.852168 57.03973 285.599695 56.925133 285.391988 56.880368 Q 284.974782 56.792629 285.241579 57.105982 Q 285.846796 57.815053 286.446642 58.250165 Q 287.879109 59.286913 289.470938 59.444485 C 290.631237 59.559082 292.017149 59.451647 293.365459 59.229614 C 294.033347 59.120389 294.695863 58.792712 295.438955 58.629769 C 295.476558 58.622606 295.510579 58.597538 295.526694 58.563517 Q 295.601899 58.422061 295.379866 58.380878 Q 290.557823 57.505282 286.124337 57.066589 Z M 224.243538 60.672825 Q 224.18803 60.654919 224.1558 60.71938 C 224.130732 60.769517 224.154009 60.830397 224.205936 60.853674 Q 224.239957 60.867999 224.288303 60.792794 Q 224.376042 60.844721 224.504964 60.819653 Q 225.342957 60.649548 226.360009 60.436468 Q 226.621434 60.382751 226.850629 60.454374 C 227.425407 60.635223 227.996603 61.109728 228.553475 61.478588 Q 228.685978 61.566327 228.796994 61.573489 C 228.890104 61.578861 228.952775 61.478588 228.90622 61.396221 Q 228.702093 61.039895 228.567799 60.703265 C 228.07897 59.489249 226.499675 58.085431 225.176433 58.835686 Q 225.092275 58.884032 224.997374 58.885822 Q 224.650001 58.894775 224.419016 59.045184 Q 224.109245 59.24573 224.472733 59.310191 C 224.927542 59.392558 225.670634 59.378233 226.014426 59.82946 Q 226.254365 60.141022 225.869389 60.053283 C 225.686749 60.0121 225.47546 60.021053 225.285658 60.112372 Q 224.880986 60.309337 224.451246 60.447212 Q 224.365298 60.475861 224.243538 60.672825 Z M 263.641762 60.10521 Q 263.342734 60.19653 263.530746 59.947639 C 263.994507 59.333468 264.436781 59.465972 265.163758 59.412254 Q 265.271193 59.403301 265.305215 59.329887 C 265.335654 59.261845 265.305215 59.183059 265.237172 59.15441 Q 264.699997 58.932378 264.331137 58.819571 C 262.610385 58.300301 261.364139 59.664726 260.830545 61.161655 Q 260.778618 61.308483 260.825173 61.419499 C 260.857403 61.496494 260.955886 61.521562 261.020347 61.466054 C 261.664957 60.919926 262.125137 60.44184 262.998942 60.456165 Q 263.917512 60.47228 265.129737 60.832187 C 265.176292 60.846512 265.226429 60.833978 265.258659 60.798166 L 265.308796 60.744449 C 265.342817 60.708637 265.32133 60.645967 265.267612 60.619108 Q 265.249706 60.610155 264.205796 60.114163 C 263.978392 60.006728 263.867375 60.037168 263.641762 60.10521 Z M 263.007895 63.020281 C 263.002523 63.045349 263.007895 63.070418 263.020429 63.091905 C 263.308713 63.561038 262.920156 64.228925 262.635454 64.61032 C 262.248687 65.126008 261.394579 65.160029 260.7249 65.217328 Q 259.142024 65.351622 258.035443 66.519083 Q 257.747159 66.823482 257.591378 67.145787 Q 257.562729 67.204876 257.612865 67.249641 Q 257.641514 67.274709 257.673745 67.2765 Q 257.697022 67.2765 257.761483 67.220992 Q 259.016683 66.159175 260.185934 65.813592 Q 261.06153 65.552167 262.71603 65.641696 C 263.066984 65.659602 263.23888 65.519937 263.260367 65.16182 Q 263.289017 64.674781 263.362431 64.239669 Q 263.441216 63.765164 263.394661 63.319309 Q 263.32841 62.687232 263.203069 61.831333 C 263.197697 61.79015 263.165466 61.757919 263.124283 61.754338 L 263.040126 61.745385 C 262.981036 61.738223 262.932691 61.793731 262.948806 61.85282 Q 263.11354 62.474153 263.007895 63.020281 Z M 262.918366 63.093695 Q 262.918366 63.125926 262.925528 63.136669 C 262.927319 63.14025 262.932691 63.13846 262.932691 63.134879 Q 262.941643 63.038187 262.925528 63.066836 Q 262.918366 63.07758 262.918366 63.093695 Z M 262.307633 64.051568 C 262.374028 64.087469 262.536971 63.919154 262.668884 63.675169 C 262.801978 63.430325 262.853905 63.202921 262.787796 63.167199 C 262.721402 63.131297 262.558458 63.299612 262.426546 63.543597 C 262.293452 63.788442 262.241525 64.015846 262.307633 64.051568 Z M 264.050015 68.304295 Q 263.808286 69.502196 263.632809 69.962376 Q 262.239734 73.597262 261.772392 75.267877 Q 261.014975 77.971659 261.047205 80.750646 Q 261.054368 81.278868 261.292515 80.804363 Q 261.356976 80.675441 261.512757 80.073805 C 261.922801 78.480185 262.259431 77.002953 262.74826 75.194463 Q 263.580882 72.114658 263.802914 71.034936 Q 263.949742 70.329446 264.119848 68.488725 L 264.132382 67.731308 Q 264.132382 67.722355 264.139544 67.716983 Q 264.144916 67.713402 264.144916 67.709821 Q 264.143125 67.702659 264.141335 67.709821 L 264.050015 68.304295 Z M 244.505789 88.681143 L 244.801235 88.661446 C 244.765424 89.257711 245.503144 89.77519 245.977649 89.850394 Q 247.184503 90.043777 248.316152 89.673126 Q 248.536394 89.599712 249.01627 89.325753 Q 249.605373 88.987333 249.732504 88.964055 Q 249.830986 88.944359 249.78085 89.028516 C 249.610744 89.3168 249.095056 89.687451 248.881977 90.049149 C 248.412844 90.840587 248.171115 92.169201 248.812144 92.924827 C 249.215025 93.401123 249.766525 93.574809 250.400392 93.512139 Q 250.667189 93.48528 250.901756 93.521092 Q 250.989494 93.533626 251.071861 93.497814 Q 251.463999 93.329499 251.800629 93.014356 L 251.856137 92.96243 Q 252.047729 92.777999 252.235741 92.589988 Q 252.488213 92.332144 252.960927 91.275699 L 253.204447 90.486052 Q 253.21519 90.45024 253.181169 90.444868 Q 253.15252 90.441287 253.139986 90.466355 L 252.373616 91.943587 Q 252.346757 92.000886 252.312736 92.027745 Q 252.130096 92.145923 252.087122 92.296332 L 251.98685 92.391233 Q 251.857927 92.439579 251.766608 92.572082 Q 251.646639 92.615056 251.540994 92.743978 Q 251.421025 92.799486 251.324333 92.894387 Q 251.156018 92.917665 251.066489 93.0251 Q 250.647493 93.186253 250.103155 93.193415 C 249.343947 93.023309 248.699337 92.450322 248.772751 91.617701 C 248.847955 90.767173 249.256209 90.013337 249.87217 89.433188 Q 250.457691 88.883479 250.611681 88.716954 Q 251.091557 88.199476 251.664544 87.735714 C 251.723634 87.687369 251.694984 87.592468 251.61978 87.583515 L 251.480114 87.56919 C 251.453255 87.565609 251.426397 87.572771 251.403119 87.587096 C 250.790739 87.9667 250.205218 87.93626 249.35111 87.955956 C 248.625923 87.972071 248.230204 87.687369 247.768233 87.151984 C 247.54262 86.890559 247.313425 86.883396 247.062743 86.716872 Q 246.835339 86.566463 246.457526 86.607646 Q 245.111006 86.756265 244.806607 88.004302 Q 244.607852 87.843149 244.430584 87.53875 Q 243.674958 86.442913 242.416177 86.575416 C 241.359733 86.686432 241.196789 87.921935 240.050815 87.943422 Q 239.262958 87.957747 238.919166 87.921935 C 238.521657 87.880752 238.206514 87.590677 237.830491 87.526216 Q 237.390007 87.451011 237.737381 87.732133 Q 238.145634 88.05981 238.77771 88.659656 Q 238.824265 88.70442 239.678374 89.413492 C 240.197643 89.845023 240.741981 90.738524 240.743772 91.504894 Q 240.745562 92.042069 240.681101 92.179944 Q 240.113486 93.381426 238.860077 93.11642 C 238.514494 93.041215 238.22442 92.781581 238.023874 92.649077 C 237.561904 92.342887 237.209158 91.782435 236.895806 91.33837 Q 236.668402 91.019646 236.770465 91.397459 C 237.119629 92.699214 238.544934 94.239116 240.025747 93.429772 C 240.437582 93.204158 241.030265 92.68847 241.082192 92.239034 Q 241.257669 90.749268 240.315822 89.452885 Q 240.299707 89.431398 240.31045 89.404539 Q 240.328356 89.361565 240.331937 89.359774 Q 240.385655 89.31501 240.460859 89.365146 C 240.629174 89.476162 240.702588 89.59255 240.926411 89.658802 Q 242.045526 89.988269 243.225521 89.848604 C 243.538873 89.811001 243.812833 89.649849 244.08142 89.504812 C 244.423422 89.318591 244.505789 89.044631 244.505789 88.681143 Z M 236.677355 90.777917 L 236.618266 90.432334 Q 236.596779 90.310574 236.573501 90.432334 Q 236.516202 90.733152 236.60036 90.81731 C 236.6308 90.84954 236.684517 90.820891 236.677355 90.777917 Z M 236.66124 91.059039 Q 236.704214 91.075154 236.659449 90.956975 Q 236.650496 90.933698 236.627219 90.944441 Q 236.596779 90.958766 236.621847 91.017855 Q 236.636171 91.050086 236.66124 91.059039 Z M 222.723333 104.259225 C 222.524578 105.13124 222.354472 106.003254 222.327613 106.805436 Q 222.297174 107.641639 222.508462 108.936231 Q 223.077868 112.420708 224.496011 116.710947 Q 226.005473 121.278728 227.22128 123.785545 Q 228.515872 126.458888 228.952775 127.289719 C 230.96002 131.119778 233.533089 134.654391 236.374746 137.950857 Q 236.426673 138.011737 236.457113 138.035014 C 236.514412 138.079779 236.596779 138.031433 236.586035 137.95981 Q 236.285217 136.070743 235.970074 134.656182 C 235.817875 133.970388 235.59047 133.420679 235.414993 132.763534 Q 235.225191 132.04372 234.938698 131.352554 Q 233.728263 128.430321 231.998559 125.816068 Q 231.314555 124.782901 229.173017 121.923338 Q 227.763827 120.037853 226.24183 117.036834 C 225.797766 116.161238 225.436068 115.205066 225.239103 114.270381 Q 224.906055 112.676761 224.875615 112.429661 Q 224.843384 112.164654 224.7073 109.901356 C 224.617771 108.422333 224.732368 107.059699 224.814735 105.353272 Q 224.848756 104.678222 224.95261 103.859925 C 225.052883 103.061324 225.108391 102.31286 225.276706 101.474867 C 225.335795 101.184792 225.548874 100.849953 225.50411 100.490045 Q 225.316098 98.968049 225.269543 97.412031 C 225.267753 97.309968 225.142412 97.261622 225.072579 97.336827 Q 225.006327 97.406659 224.963353 97.558859 Q 224.839803 97.993971 224.701928 98.312695 Q 223.407336 101.277902 222.723333 104.259225 Z M 264.716112 97.53021 Q 264.694625 97.22402 264.58719 97.494398 C 264.52452 97.655551 264.549588 97.916976 264.501242 98.146171 Q 263.396452 103.279776 262.017702 107.385585 Q 260.037316 113.281979 256.894841 121.606404 Q 256.796359 121.86783 256.835751 122.045098 Q 256.857238 122.136417 256.918118 122.064794 Q 257.122245 121.826646 257.539451 120.994025 Q 258.499204 119.074518 259.945996 116.01441 Q 261.94966 111.776097 263.247833 107.464371 Q 264.204005 104.287874 264.682091 100.362914 Q 264.8325 99.132783 264.716112 97.53021 Z M 243.084065 97.863258 Q 243.041091 97.813122 242.940818 97.886536 Q 242.82264 97.934882 242.776085 97.900861 Q 242.043736 97.74508 241.357942 98.013667 Q 241.35078 98.024411 241.341827 98.036945 L 241.162768 98.062013 Q 241.132328 98.08171 241.094726 98.101406 Q 241.051752 98.124684 241.026684 98.124684 Q 240.040072 98.137218 239.356069 98.282255 C 238.797407 98.402224 238.233373 98.350297 237.597715 98.411177 Q 237.597715 98.407596 237.595925 98.409387 C 237.911067 98.445198 238.202933 98.468476 238.521657 98.436245 L 239.567358 98.38969 L 240.176156 98.314486 Q 240.324775 98.341344 240.314031 98.29658 Q 240.355215 98.271512 240.399979 98.278674 Q 240.67752 98.35746 241.003406 98.242862 L 243.032138 97.958159 L 244.960597 97.822075 Q 244.933739 97.823866 244.905089 97.823866 L 248.072633 98.05127 Q 248.120978 98.05306 248.15679 98.087081 Q 248.178277 98.108568 248.199764 98.130055 Q 248.266016 98.196307 248.357335 98.20526 L 249.698483 98.332391 Q 249.827405 98.35925 249.897238 98.402224 L 251.455046 98.445198 L 249.027014 98.119312 L 246.201472 97.754033 Q 244.625758 97.467539 243.084065 97.863258 Z M 251.761236 98.466685 Q 251.788095 98.489963 251.818535 98.491753 Q 252.541931 98.545471 253.222353 98.319857 Q 253.319044 98.287627 253.216981 98.289417 L 251.440721 98.318067 Q 251.211527 98.321648 251.429978 98.395062 Q 251.539203 98.432664 251.639476 98.425502 Q 251.709309 98.42013 251.761236 98.466685 Z M 234.725618 99.505224 Q 234.600277 99.507015 234.707712 99.571476 Q 234.874237 99.671748 235.169683 99.743372 C 235.785644 99.893781 236.093624 99.992263 236.525155 100.38261 Q 237.692616 101.433683 238.494798 102.038901 Q 239.767903 102.998654 241.379429 102.839292 Q 242.109987 102.767668 242.695508 102.7426 Q 242.718786 102.74081 242.729529 102.721113 L 242.770713 102.647699 Q 242.801153 102.597563 242.742063 102.593982 C 241.540582 102.542055 240.505624 102.568914 239.502897 101.829402 Q 239.015858 101.471286 237.341662 100.049562 C 236.747188 99.542826 235.470501 99.490899 234.725618 99.505224 Z M 247.116461 102.585029 Q 246.590029 102.524149 247.066324 102.751553 Q 247.274032 102.850035 247.780767 102.862569 C 248.652782 102.884056 249.465707 102.944936 250.103155 102.615469 C 251.10051 102.103362 252.028033 101.308342 253.120289 100.423794 C 253.358437 100.230411 253.650302 100.099698 253.92068 99.95287 Q 254.242986 99.775602 253.884869 99.687864 Q 253.872335 99.684283 253.686114 99.720094 C 252.909 99.868713 252.464936 100.155206 251.802419 100.699544 Q 251.256291 101.14719 250.407554 101.781057 Q 249.028804 102.808852 247.116461 102.585029 Z M 244.881812 135.537149 Q 244.888974 135.567589 244.917623 135.555055 Q 245.057289 135.481641 245.057289 135.272143 C 245.051917 133.685685 245.042964 132.074159 244.930157 130.473377 C 244.872859 129.633593 244.880021 128.632657 244.774377 127.739155 Q 244.657989 126.766868 244.629339 126.543045 Q 244.555925 125.991545 244.439537 124.747089 Q 244.353589 123.835682 244.222877 122.929646 Q 243.913106 120.800642 243.850435 120.293906 Q 243.784183 119.749569 243.546036 118.446023 C 243.481575 118.093278 243.18971 117.702931 242.980211 117.534616 Q 241.975693 116.721691 241.109051 115.767309 Q 238.974674 113.418063 237.350615 110.529851 Q 236.009467 108.144793 234.650414 105.40878 Q 234.645042 105.396246 234.211721 104.629876 Q 233.923436 104.115978 233.731844 103.474949 C 233.708566 103.399745 233.604713 103.399745 233.581435 103.474949 L 233.549204 103.585965 Q 233.525927 103.66117 233.53667 103.739956 C 233.8733 106.031903 234.390779 107.713262 235.1285 110.150247 C 235.524219 111.462745 236.016629 112.700039 236.60215 114.007165 Q 237.508186 116.032316 238.766967 118.431699 Q 240.009632 120.798851 240.394608 121.613567 Q 241.963159 124.947634 242.401853 126.014823 Q 243.413533 128.484038 244.44849 132.471669 C 244.555925 132.883504 244.675894 133.451119 244.683057 133.991875 Q 244.69201 134.731386 244.881812 135.537149 Z M 228.360091 108.905791 Q 229.124671 112.064381 230.628762 114.922154 Q 231.932307 117.396741 231.94126 117.416437 Q 233.069328 119.686898 234.234998 121.903641 Q 234.365711 122.156114 234.372873 121.871411 C 234.381826 121.511503 234.152631 121.153387 234.05594 120.899124 C 233.552786 119.561557 233.101558 118.102231 232.625263 116.857775 Q 232.243869 115.86042 230.575044 111.514672 Q 230.28676 110.762627 228.367254 106.300491 C 228.150593 105.795546 228.071807 105.233303 227.785314 104.73373 Q 227.43615 104.117769 227.554329 104.816097 L 228.207892 108.642575 Q 228.222217 108.728523 228.283096 108.791194 Q 228.349348 108.861026 228.360091 108.905791 Z" style="fill:#040b13;"/>
		<path fill-opacity="0.824" d="M 165.238419 8.043976 Q 165.21335 8.083368 165.15247 8.05651 L 164.701243 7.805828 Q 164.683337 7.796875 164.688709 7.775388 L 164.688709 7.773597 Q 164.695872 7.748529 164.72094 7.761063 L 165.238419 8.043976 Z" style="fill:#e5ddce;"/>
		<path fill-opacity="0.824" d="M 165.472985 8.133505 Q 165.326157 8.249893 165.238419 8.043976 L 165.472985 8.133505 Z" style="fill:#e5ddce;"/>
		<path fill-opacity="0.824" d="M 323.01037 8.808555 Q 322.926213 8.862273 322.859961 8.876597 Q 322.775804 8.896294 322.790129 8.833623 Q 322.799082 8.79244 322.849218 8.720816 L 323.565452 8.282123 Q 323.585148 8.27138 323.608426 8.291076 L 323.608426 8.292867 Q 323.629913 8.310773 323.601263 8.33405 L 323.01037 8.808555 Z" style="fill:#e5ddce;"/>
		<path fill-opacity="0.824" d="M 322.680903 9.034169 Q 322.473195 9.299175 322.175958 9.388704 Q 322.380085 9.114745 322.680903 9.034169 Z" style="fill:#e5ddce;"/>
		<path fill-opacity="0.824" d="M 321.817841 9.358264 Q 321.728312 9.472862 321.5976 9.485396 Q 321.705035 9.329615 321.817841 9.358264 Z" style="fill:#e5ddce;"/>
		<path fill-opacity="0.824" d="M 321.5976 9.485396 Q 321.525976 9.587459 321.411379 9.603574 Q 321.484793 9.514045 321.5976 9.485396 Z" style="fill:#e5ddce;"/>
		<path fill-opacity="0.824" d="M 321.8447 9.660873 L 321.466887 9.949157 Q 321.441819 9.972435 321.413169 9.976016 Q 321.370195 9.979597 321.395264 9.943785 Q 321.545673 9.737868 321.8447 9.660873 Z" style="fill:#e5ddce;"/>
		<path fill-opacity="0.824" d="M 321.20188 9.711009 Q 320.865251 10.158655 320.345981 10.29474 L 321.20188 9.711009 Z" style="fill:#e5ddce;"/>
		<path fill-opacity="0.824" d="M 321.337965 10.010037 Q 321.29141 10.113891 321.182184 10.167608 Q 321.074749 10.085241 321.337965 10.010037 Z" style="fill:#e5ddce;"/>
		<path fill-opacity="0.824" d="M 319.622585 10.837287 L 319.441736 10.917863 Q 319.51515 10.828334 319.622585 10.837287 Z" style="fill:#e5ddce;"/>
		<path fill-opacity="0.824" d="M 319.441736 10.917863 Q 319.396972 10.978743 319.332511 10.998439 Q 319.370113 10.93935 319.441736 10.917863 Z" style="fill:#e5ddce;"/>
		<path fill-opacity="0.824" d="M 318.823985 11.372671 L 318.721921 11.453248 Q 318.750571 11.386996 318.823985 11.372671 Z" style="fill:#e5ddce;"/>
		<path fill-opacity="0.824" d="M 318.721921 11.453248 Q 318.612696 11.617982 318.421103 11.671699 Q 318.541072 11.524871 318.721921 11.453248 Z" style="fill:#e5ddce;"/>
		<path fill-opacity="0.824" d="M 318.113123 11.870454 L 318.052243 11.94924 Q 317.934064 11.931334 318.113123 11.870454 Z" style="fill:#e5ddce;"/>
		<path fill-opacity="0.824" d="M 316.617985 13.057611 L 315.80506 13.933207 Q 315.74418 13.997668 315.706578 14.076454 L 315.593771 14.307439 Q 315.491708 14.305648 315.382482 14.361156 Q 315.284 14.411293 315.393225 14.427408 Q 315.563331 14.454267 315.593771 14.307439 Q 315.763876 14.325345 315.83729 14.208957 Q 315.883845 14.133752 315.955469 14.085407 L 316.94029 13.404985 Q 316.97073 13.462283 316.925965 13.501676 Q 313.158576 16.919901 309.962384 20.916485 Q 310.358103 20.121466 310.952577 19.466112 Q 311.165656 19.231545 311.437825 18.825083 Q 311.702831 18.425783 311.989325 18.241352 Q 312.064529 18.191216 312.082435 18.101687 Q 312.107503 17.960231 312.222101 17.861749 Q 312.295515 17.799078 312.232844 17.725664 Q 312.111085 17.580627 311.924864 17.594951 Q 311.813848 17.602114 311.51303 17.779382 Q 313.815721 15.154385 316.617985 13.057611 Z M 314.54807 15.147223 Q 314.558813 15.147223 314.571347 15.147223 Q 314.576719 15.147223 314.571347 15.145432 Q 314.558813 15.145432 314.54807 15.145432 Q 314.413776 15.147223 314.54807 15.147223 Z" style="fill:#e5ddce;"/>
		<path fill-opacity="0.824" d="M 317.128301 13.240251 Q 317.121139 13.306502 317.081746 13.353058 Q 316.954615 13.320827 317.128301 13.240251 Z" style="fill:#e5ddce;"/>
		<path fill-opacity="0.824" d="M 182.105721 22.773321 Q 182.112884 22.755415 182.118255 22.737509 Q 182.227481 22.796598 182.231062 22.855688 Q 182.170182 22.870012 182.105721 22.773321 Z" style="fill:#e5ddce;"/>
		<path fill-opacity="0.824" d="M 250.300119 36.431897 L 250.183731 36.080942 Q 250.448738 36.141822 250.300119 36.431897 Z" style="fill:#e5ddce;"/>
		<path fill-opacity="0.824" d="M 254.93236 36.791804 Q 255.109628 36.730924 255.372844 36.868799 Q 255.397912 37.08546 254.80702 37.019208 Q 254.22508 37.008465 254.389813 36.829407 Q 254.710328 36.859847 254.93236 36.791804 Z" style="fill:#e5ddce;"/>
		<path fill-opacity="0.996" d="M 259.781262 45.948852 Q 259.564602 45.879019 259.577136 46.09747 Q 259.005939 45.982873 258.748095 46.102842 Q 258.253894 46.333827 257.654048 46.52721 Q 257.26191 46.652551 257.005857 46.824447 C 256.483006 47.173611 255.779307 47.259559 255.183042 47.273884 C 255.080979 47.277465 255.02368 47.393853 255.08456 47.47622 Q 255.621735 48.199616 255.958365 48.301679 Q 256.918118 48.593545 255.931506 48.770812 Q 255.859883 48.785137 255.394331 48.73321 Q 254.430997 48.627566 253.605538 48.482528 Q 252.022661 48.204988 250.656446 47.411759 Q 249.420942 46.693735 248.260644 45.82172 Q 248.196183 45.773374 248.165743 45.848579 C 248.104863 46.002569 248.753055 46.711641 249.25979 47.325811 Q 250.266098 48.546989 251.553528 49.22204 Q 251.915226 49.411841 252.44882 49.4387 Q 254.989659 49.567622 257.244005 50.163887 Q 257.389042 50.20328 257.636143 50.095845 Q 257.707766 50.065405 257.722091 50.1424 L 257.754321 50.337574 Q 257.775808 50.453961 257.65763 50.462914 C 257.457084 50.47903 257.281607 50.495145 257.097177 50.457543 Q 255.677244 50.171049 254.592149 50.303552 Q 251.598293 50.672413 248.663525 52.180085 C 248.49342 52.267823 248.355545 52.477322 248.169324 52.572223 C 247.338493 52.991219 247.164806 53.351127 246.479013 54.224932 C 246.432457 54.284021 246.421714 54.362807 246.448573 54.432639 Q 246.482594 54.516797 246.559589 54.468451 Q 247.42086 53.927695 247.888202 53.915161 Q 248.411053 53.899045 249.04492 53.732521 C 249.111171 53.714615 249.16847 53.779076 249.145192 53.841747 Q 249.084313 54.013643 248.971506 54.144355 Q 247.968779 55.29391 246.380531 56.199946 C 246.068969 56.377214 245.957953 56.742493 246.208634 57.086285 Q 246.25698 57.154327 246.473641 57.524978 C 246.606144 57.752383 246.527358 58.046038 246.299954 58.176751 L 245.7968 58.466826 Q 245.718014 58.513381 245.67325 58.593957 Q 245.494191 58.932378 245.469123 59.192012 Q 245.281112 61.263718 244.715287 62.794668 Q 244.546972 63.245895 244.375076 63.510901 Q 244.156625 63.84395 244.169159 63.44644 Q 244.187065 62.828689 244.315987 61.94414 C 244.407307 61.310273 244.212133 60.264572 244.274804 59.550129 Q 244.32494 58.993257 244.301662 58.556355 C 244.298081 58.497266 244.314196 58.438176 244.346427 58.38983 C 244.634711 57.949347 245.137865 57.580486 245.325876 57.125678 C 245.542537 56.602828 245.805753 55.924196 245.499563 55.462225 C 245.42973 55.356581 245.27395 55.363743 245.211279 55.472969 Q 244.536229 56.661917 244.156625 58.239421 Q 243.567523 60.676406 243.384883 61.677343 Q 243.361606 61.809846 243.230893 61.774035 Q 243.178966 61.7615 243.103761 61.695249 C 243.032138 61.632578 242.992745 61.541259 242.998117 61.446358 Q 243.171804 58.961027 243.087646 58.187494 Q 243.050044 57.838331 242.733111 56.874996 Q 242.514659 56.217852 242.129684 55.664561 C 240.938945 53.958135 239.484991 52.754862 237.767821 51.531893 C 236.045279 50.305343 234.476727 49.820095 232.396068 49.945436 Q 232.025417 49.966923 232.005721 49.565832 Q 232.00214 49.474512 232.088088 49.453025 Q 232.172245 49.431538 232.175826 49.512114 Q 233.35224 49.642827 234.508958 49.519277 L 236.070347 49.809351 Q 236.496506 50.034965 236.988917 50.072567 L 237.162603 50.162096 Q 237.511767 50.3895 237.925392 50.48082 Q 237.968366 50.47903 238.020293 50.525585 Q 238.111613 50.645554 238.208304 50.586465 C 238.356923 50.670622 238.46973 50.795963 238.618348 50.867586 Q 239.347116 51.220332 240.176156 51.870314 Q 242.102825 53.383357 243.306098 55.250936 Q 243.481575 55.664561 243.65168 56.067443 Q 243.692864 56.165925 243.723304 56.124742 Q 243.750162 56.092511 243.755534 55.96717 Q 243.83432 55.850782 243.80388 55.703954 Q 243.793136 55.646656 243.848645 55.662771 Q 243.877294 55.671724 243.889828 55.69142 Q 243.902362 55.711117 243.914896 55.693211 C 244.276594 55.145292 244.575622 54.382503 245.008943 53.777286 Q 245.453008 53.163115 245.485238 53.11477 Q 246.670605 51.401181 248.711871 50.613323 Q 249.644765 50.253416 250.552592 50.079729 Q 250.776415 50.036755 250.57945 49.902462 C 250.441575 49.807561 250.233868 49.764587 250.078087 49.635665 C 249.111171 48.82632 246.914125 46.478865 247.424441 45.160995 C 247.462043 45.060722 247.442347 44.947915 247.370724 44.867339 L 245.929303 43.243279 Q 245.85768 43.162703 245.966906 43.159122 Q 246.122686 43.15554 246.244446 43.254023 Q 247.23822 44.056204 248.389566 44.876292 Q 248.865861 45.214712 249.361853 45.495834 Q 250.264308 46.00615 250.325187 46.043753 Q 251.77377 46.931882 253.191913 47.374157 Q 253.548239 47.486964 253.906356 47.528147 C 253.969026 47.535309 254.01021 47.461895 253.969026 47.41355 Q 253.378133 46.708059 253.131033 45.988245 Q 252.93765 45.418839 253.356646 45.823511 C 253.707601 46.163722 254.135551 46.229973 254.737187 46.435891 C 255.474907 46.690154 256.067591 46.657923 256.789196 46.487818 C 256.871563 46.469912 256.894841 46.364267 256.828589 46.31234 Q 256.24844 45.861113 255.793631 45.375865 C 255.523253 45.08579 255.136487 45.039235 254.975335 44.616657 C 254.925198 44.485944 255.05233 44.358813 255.183042 44.407159 Q 256.701458 44.980146 257.084643 45.128764 Q 257.858175 45.427792 259.147396 45.511949 Q 259.577136 45.540599 259.781262 45.948852 Z" style="fill:#040b13;"/>
		<path fill-opacity="0.824" d="M 238.675647 43.526191 Q 239.250424 43.724946 238.392735 43.587071 Q 238.525238 43.531563 238.675647 43.526191 Z" style="fill:#e5ddce;"/>
		<path fill-opacity="0.996" d="M 243.614078 55.576823 L 243.415323 55.19901 Q 243.261333 54.488148 243.121667 53.784448 Q 242.953352 52.948245 242.811896 52.53462 Q 242.595236 51.909706 242.369622 51.286583 Q 241.101888 47.807478 237.697988 46.027637 Q 237.293316 45.818139 236.922665 45.818139 Q 237.415076 45.556714 236.695261 45.746516 Q 236.449951 45.682055 236.482181 45.48509 Q 236.510831 45.306032 236.688098 45.334681 Q 238.065058 45.558504 239.219984 45.964967 C 239.853851 46.186999 240.357005 46.518257 240.994453 46.885327 Q 241.173512 46.987391 242.113568 47.956097 Q 242.734901 48.597126 243.035719 49.195181 Q 243.426067 49.972294 243.64989 50.78701 Q 243.816414 51.397599 243.818205 52.459416 Q 243.818205 54.135403 243.793136 55.532058 Q 243.791346 55.644865 243.685701 55.603682 L 243.614078 55.576823 Z" style="fill:#040b13;"/>
		<path fill-opacity="0.824" d="M 236.922665 45.818139 L 236.695261 45.746516 Q 237.415076 45.556714 236.922665 45.818139 Z" style="fill:#e5ddce;"/>
		<path fill-opacity="0.824" d="M 259.781262 45.948852 L 260.044478 46.40187 L 259.74187 46.353524 L 259.577136 46.09747 Q 259.564602 45.879019 259.781262 45.948852 Z" style="fill:#e5ddce;"/>
		<path fill-opacity="0.824" d="M 232.874154 49.447653 Q 232.960102 49.420794 233.04605 49.449444 L 234.508958 49.519277 Q 233.35224 49.642827 232.175826 49.512114 Q 232.46411 49.37782 232.874154 49.447653 Z" style="fill:#e5ddce;"/>
		<path fill-opacity="0.996" d="M 233.04605 49.449444 Q 232.960102 49.420794 232.874154 49.447653 Q 232.958312 49.417213 233.04605 49.449444 Z" style="fill:#040b13;"/>
		<path fill-opacity="0.824" d="M 236.070347 49.809351 Q 236.566339 49.841582 236.988917 50.072567 Q 236.496506 50.034965 236.070347 49.809351 Z" style="fill:#e5ddce;"/>
		<path fill-opacity="0.824" d="M 237.925392 50.48082 Q 237.511767 50.3895 237.162603 50.162096 Q 237.572647 50.255207 237.925392 50.48082 Z" style="fill:#e5ddce;"/>
		<path fill-opacity="0.824" d="M 238.208304 50.586465 Q 238.111613 50.645554 238.020293 50.525585 Q 238.122356 50.527375 238.208304 50.586465 Z" style="fill:#e5ddce;"/>
		<path fill-opacity="0.824" d="M 243.415323 55.19901 L 243.614078 55.576823 Q 243.583638 55.81497 243.755534 55.96717 Q 243.750162 56.092511 243.723304 56.124742 Q 243.692864 56.165925 243.65168 56.067443 Q 243.481575 55.664561 243.306098 55.250936 L 243.415323 55.19901 Z" style="fill:#e5ddce;"/>
		<path fill-opacity="0.824" d="M 224.243538 60.672825 L 224.288303 60.792794 Q 224.239957 60.867999 224.205936 60.853674 C 224.154009 60.830397 224.130732 60.769517 224.1558 60.71938 Q 224.18803 60.654919 224.243538 60.672825 Z" style="fill:#e5ddce;"/>
		<path fill-opacity="0.824" d="M 200.067071 62.058737 L 200.054537 62.223471 Q 200.031259 62.270026 199.959636 62.185869 C 199.923824 62.142895 199.938149 62.078434 199.990076 62.055156 Q 200.006191 62.047994 200.067071 62.058737 Z" style="fill:#e5ddce;"/>
		<path fill-opacity="0.824" d="M 262.925528 63.066836 Q 262.941643 63.038187 262.932691 63.134879 C 262.932691 63.13846 262.927319 63.14025 262.925528 63.136669 Q 262.918366 63.125926 262.918366 63.093695 Q 262.918366 63.07758 262.925528 63.066836 Z" style="fill:#e5ddce;"/>
		<path fill-opacity="0.824" d="M 236.217175 67.378563 Q 236.364003 68.243415 236.206431 69.106477 L 236.217175 67.378563 Z" style="fill:#e5ddce;"/>
		<path fill-opacity="0.824" d="M 264.119848 68.488725 L 264.050015 68.304295 L 264.141335 67.709821 Q 264.143125 67.702659 264.144916 67.709821 Q 264.144916 67.713402 264.139544 67.716983 Q 264.132382 67.722355 264.132382 67.731308 L 264.119848 68.488725 Z" style="fill:#e5ddce;"/>
		<path fill-opacity="0.824" d="M 231.835615 80.639629 Q 231.692369 80.859871 231.590305 80.285094 Q 231.579562 80.227795 231.502567 80.190193 Q 231.393341 80.136475 231.409456 80.256444 C 231.439896 80.467733 231.386179 80.666488 231.477499 80.920751 Q 231.710274 81.563571 231.441687 82.177741 Q 231.461383 81.46867 231.355739 80.772133 C 231.287697 80.320905 231.384388 80.068433 231.368273 79.681667 Q 231.35932 79.473959 231.438106 79.667342 L 231.835615 80.639629 Z" style="fill:#e5ddce;"/>
		<path fill-opacity="0.824" d="M 251.648429 85.248593 Q 251.580387 85.427651 251.261663 85.493903 L 250.686885 85.438395 L 250.742394 85.409746 Q 250.787158 85.388259 250.776415 85.339913 Q 250.769252 85.311263 250.774624 85.268289 Q 251.241967 85.155483 251.648429 85.248593 Z" style="fill:#e5ddce;"/>
		<path fill-opacity="0.824" d="M 238.958559 85.318426 Q 238.894098 85.382887 239.223566 85.458091 Q 238.849334 85.506437 238.478683 85.384677 L 238.385572 85.322007 Q 238.689972 85.223525 238.958559 85.318426 Z" style="fill:#e5ddce;"/>
		<path fill-opacity="0.824" d="M 252.880351 85.420489 Q 252.452401 85.513599 252.07996 85.463463 Q 252.443449 85.327379 252.880351 85.420489 Z" style="fill:#e5ddce;"/>
		<path fill-opacity="0.824" d="M 253.199075 85.558364 Q 253.071944 85.570898 252.994948 85.490322 Q 253.032551 85.388259 253.199075 85.558364 Z" style="fill:#e5ddce;"/>
		<path fill-opacity="0.824" d="M 250.035113 86.553929 Q 250.099574 86.661364 250.198056 86.722244 Q 250.036903 86.851166 249.970652 86.752684 C 249.950955 86.724034 249.950955 86.686432 249.968861 86.657783 L 250.035113 86.553929 Z" style="fill:#e5ddce;"/>
		<path fill-opacity="0.824" d="M 244.806607 88.004302 Q 244.858534 88.373162 244.801235 88.661446 L 244.505789 88.681143 L 244.430584 87.53875 Q 244.607852 87.843149 244.806607 88.004302 Z" style="fill:#e5ddce;"/>
		<path fill-opacity="0.824" d="M 252.960927 91.275699 L 252.373616 91.943587 L 253.139986 90.466355 Q 253.15252 90.441287 253.181169 90.444868 Q 253.21519 90.45024 253.204447 90.486052 L 252.960927 91.275699 Z" style="fill:#e5ddce;"/>
		<path fill-opacity="0.824" d="M 252.312736 92.027745 Q 252.237531 92.210384 252.087122 92.296332 Q 252.130096 92.145923 252.312736 92.027745 Z" style="fill:#e5ddce;"/>
		<path fill-opacity="0.824" d="M 251.98685 92.391233 Q 251.891949 92.511202 251.766608 92.572082 Q 251.857927 92.439579 251.98685 92.391233 Z" style="fill:#e5ddce;"/>
		<path fill-opacity="0.824" d="M 251.766608 92.572082 Q 251.693194 92.701004 251.540994 92.743978 Q 251.646639 92.615056 251.766608 92.572082 Z" style="fill:#e5ddce;"/>
		<path fill-opacity="0.824" d="M 251.540994 92.743978 Q 251.4067 92.921246 251.324333 92.894387 Q 251.421025 92.799486 251.540994 92.743978 Z" style="fill:#e5ddce;"/>
		<path fill-opacity="0.824" d="M 251.856137 92.96243 L 251.800629 93.014356 Q 251.729005 93.016147 251.795257 92.955267 Q 251.870462 92.885434 251.856137 92.96243 Z" style="fill:#e5ddce;"/>
		<path fill-opacity="0.824" d="M 251.066489 93.0251 Q 250.781786 93.435144 250.103155 93.193415 Q 250.647493 93.186253 251.066489 93.0251 Z" style="fill:#e5ddce;"/>
		<path fill-opacity="0.824" d="M 246.201472 97.754033 L 244.905089 97.823866 Q 244.933739 97.823866 244.960597 97.822075 L 243.084065 97.863258 Q 244.625758 97.467539 246.201472 97.754033 Z" style="fill:#e5ddce;"/>
		<path fill-opacity="0.824" d="M 242.776085 97.900861 Q 242.82264 97.934882 242.940818 97.886536 Q 242.998117 97.908023 243.032138 97.958159 L 241.003406 98.242862 L 240.399979 98.278674 Q 240.355215 98.271512 240.314031 98.29658 L 240.176156 98.314486 L 239.567358 98.38969 L 238.521657 98.436245 C 238.202933 98.468476 237.911067 98.445198 237.595925 98.409387 Q 237.597715 98.407596 237.597715 98.411177 C 238.233373 98.350297 238.797407 98.402224 239.356069 98.282255 Q 240.040072 98.137218 241.026684 98.124684 Q 241.051752 98.124684 241.094726 98.101406 Q 241.132328 98.08171 241.162768 98.062013 Q 241.25946 98.079919 241.341827 98.036945 Q 241.35078 98.024411 241.357942 98.013667 L 242.776085 97.900861 Z" style="fill:#e5ddce;"/>
		<path fill-opacity="0.824" d="M 251.455046 98.445198 L 249.897238 98.402224 Q 249.827405 98.35925 249.698483 98.332391 Q 249.300973 98.273302 248.899882 98.214213 Q 248.751264 98.192726 248.876605 98.14438 Q 248.930322 98.124684 249.027014 98.119312 L 251.455046 98.445198 Z" style="fill:#e5ddce;"/>
		<path fill-opacity="0.996" d="M 263.004314 41.397187 Q 262.094697 40.560984 261.33728 40.106176 C 260.988116 39.894887 260.655067 39.56721 260.397223 39.273554 Q 260.119683 38.958411 260.495705 39.146422 C 262.485044 40.145568 263.998088 41.567292 265.419812 43.282672 Q 265.471739 43.345342 265.29089 43.45994 Q 265.272984 43.470683 265.212104 43.476055 Q 264.968585 43.499333 264.798479 43.323855 C 264.472593 42.989016 263.996298 42.498396 263.564767 41.970174 Q 263.369593 41.733817 263.004314 41.397187 Z" style="fill:#040b13;"/>
		<path fill-opacity="0.996" d="M 241.239763 56.309172 C 241.916604 57.277878 242.290836 58.114081 242.611351 59.286913 Q 242.652534 59.439113 242.500335 59.396139 L 242.439455 59.378233 Q 242.269349 59.329887 242.237119 59.156201 Q 242.124312 58.533077 242.018667 58.355809 Q 240.534273 55.884803 238.695343 53.594646 C 238.677437 53.573159 238.675647 53.542719 238.689972 53.519442 Q 238.709668 53.487211 238.738317 53.474677 Q 238.774129 53.458562 238.804569 53.481839 Q 239.107178 53.703872 239.320257 53.934857 Q 240.369539 55.064716 241.239763 56.309172 Z" style="fill:#040b13;"/>
		<path fill-opacity="0.996" d="M 259.475073 60.028215 Q 259.464329 60.046121 259.457167 60.065817 C 259.238715 60.59404 259.004149 60.966481 258.866274 61.462473 Q 258.733771 61.940559 258.449068 62.565473 Q 258.445487 62.574426 258.436534 62.578007 Q 258.400722 62.592332 258.389979 62.585169 C 258.348795 62.554729 258.329099 62.502802 258.339842 62.454457 Q 258.592315 61.093613 259.236925 59.899293 Q 259.881535 58.706764 260.882472 57.752383 C 260.918283 57.716571 260.972001 57.704037 261.020347 57.721943 Q 261.03109 57.727314 261.040043 57.764917 Q 261.041834 57.77387 261.036462 57.782822 Q 260.669392 58.362972 260.341715 58.735413 C 260.001504 59.122179 259.818865 59.52148 259.494769 59.994194 Q 259.484025 60.010309 259.475073 60.028215 Z" style="fill:#040b13;"/>
		<path fill-opacity="0.996" d="M 231.244723 62.180497 Q 231.259047 62.232424 231.20533 62.232424 L 231.149822 62.232424 Q 231.140869 62.232424 231.139078 62.225262 Q 230.836469 61.394431 230.549976 60.735496 C 230.213346 59.963754 229.851648 59.519689 229.217781 58.622606 Q 228.127316 57.080913 229.386096 58.48115 Q 229.957293 59.116808 230.50163 60.065817 Q 230.841841 60.65671 231.244723 62.180497 Z" style="fill:#040b13;"/>
	</g>
	<g id="surface4">
	</g>
</svg>
