<?xml version="1.0" encoding="utf-8"?>
<svg xmlns="http://www.w3.org/2000/svg" width="490pt" height="280pt" viewBox="0 0 490 280" version="1.1" xmlns:xlink="http://www.w3.org/1999/xlink">
	<g id="surface2">
		<path d="M 245.100524 56.408595 Q 243.232596 58.558852 241.390333 60.828884 Q 237.235261 65.950716 235.307445 68.217897 Q 234.774158 68.848144 233.388184 70.516447 Q 226.301462 79.060438 217.070187 90.481896 Q 216.668083 90.978109 216.211795 91.251881 Q 215.615769 91.608356 215.863875 90.958146 L 216.334422 89.731872 C 216.397162 89.572171 216.348681 89.392508 216.217499 89.278436 Q 213.060557 86.566375 209.863689 83.985496 C 209.470141 83.666095 209.076593 83.443654 208.523343 83.098587 Q 208.400716 83.021588 208.275237 83.095735 Q 207.650693 83.466469 207.12311 83.954126 Q 203.695247 87.122476 201.553545 89.2214 Q 193.765281 96.84426 177.849388 112.868522 C 177.666873 113.051037 177.378841 113.076703 177.164956 112.92841 Q 175.453876 111.72495 173.680057 110.222052 C 172.696186 109.386475 171.544059 108.898817 170.400487 109.754357 Q 168.25023 111.362772 165.937421 113.319106 Q 164.605631 114.445567 161.793756 117.234627 Q 146.396891 132.497458 132.311853 145.744067 C 130.423961 147.517886 128.02845 149.334482 125.932377 150.637755 Q 122.635697 152.688199 118.814286 153.401149 C 117.143131 153.711995 115.463421 153.615034 113.869265 153.378334 C 113.755193 153.361223 113.65538 153.298484 113.592641 153.201523 Q 113.344534 152.822233 113.760897 152.360242 Q 121.794416 143.445516 123.55968 141.477775 Q 137.370945 126.092316 146.525222 116.108166 Q 161.847941 99.402324 171.986088 88.103495 Q 183.025404 75.800832 203.492769 52.875215 C 217.209925 37.509719 230.952747 21.879006 244.056766 6.673211 Q 244.518757 6.134221 244.972193 5.749228 C 245.054895 5.680785 245.177523 5.68934 245.248818 5.76919 C 247.219411 8.033519 249.269855 10.548806 251.129228 12.656286 Q 260.021139 22.743101 273.843812 38.504997 Q 274.990235 39.813973 290.740724 57.646276 C 293.318751 60.563667 296.276067 63.740571 298.668727 66.509669 Q 300.707763 68.870959 302.470175 70.775961 C 306.268772 74.873997 309.710894 78.846553 313.483825 83.038699 Q 319.184572 89.372546 321.511641 91.953424 C 330.557549 101.986055 339.127207 111.342809 348.848991 121.982873 Q 370.11486 145.262113 376.083677 152.097876 Q 376.511447 152.588386 376.788071 153.0076 C 376.916402 153.204374 376.80233 153.46674 376.571334 153.506665 C 372.305042 154.245281 368.118601 152.845048 364.51963 150.609237 Q 360.110748 147.874361 356.334965 144.301056 C 350.118042 138.417794 344.428702 133.187594 339.942821 128.82434 Q 332.419774 121.506623 328.276109 117.719433 C 326.813136 116.384791 325.572603 115.492177 324.249368 114.405642 C 322.198925 112.728784 321.004021 113.647063 319.019168 115.018779 Q 314.413512 118.198535 310.038851 121.903023 C 309.930483 121.99428 309.770782 121.985725 309.673821 121.885912 Q 309.360123 121.572214 308.958019 121.095964 Q 299.909259 110.413122 290.683688 100.280679 Q 287.033385 96.268197 282.941052 91.634023 Q 282.601688 91.24903 282.210992 91.585542 L 277.477004 95.660763 C 277.405709 95.720651 277.300193 95.709244 277.246009 95.635097 Q 276.869571 95.110366 276.296359 94.37175 Q 271.784812 88.556931 259.390892 73.476615 Q 258.566722 72.472782 245.291595 56.411447 Q 245.197485 56.297375 245.100524 56.408595 Z" style="fill:#fdd17c;"/>
	</g>
	<g id="surface4">
	</g>
</svg>
