<?xml version="1.0" encoding="utf-8"?>
<svg xmlns="http://www.w3.org/2000/svg" width="490pt" height="280pt" viewBox="0 0 490 280" version="1.1" xmlns:xlink="http://www.w3.org/1999/xlink">
	<g id="surface2">
		<path vector-effect="non-scaling-stroke" d="M 304.148482 38.638109 Q 303.883218 38.567262 303.650907 38.305294 Q 303.327978 37.941175 303.255484 37.876918 Q 301.489259 36.313348 300.298045 35.319846 C 295.951682 31.693483 290.975936 28.628951 285.65749 26.531559 Q 274.455471 22.114349 262.688326 24.017324 C 255.167042 25.234899 247.794041 28.22529 241.384885 32.352522 C 234.529229 36.76479 228.744513 42.460536 223.984602 49.118479 Q 222.949911 50.563423 222.160711 51.860082 Q 217.949451 58.779994 215.664233 66.525352 C 215.647757 66.579723 215.66588 66.637389 215.708718 66.673636 Q 215.736727 66.69835 215.794393 66.71153" style="fill:none;stroke-width:0.50;stroke:#d6b185;"/>
		<path vector-effect="non-scaling-stroke" d="M 215.794393 66.71153 Q 215.647757 66.767549 215.496178 66.802148 C 213.238968 67.311256 211.041073 67.634185 208.762445 67.441416 Q 206.480522 67.250295 204.831276 65.769104 C 204.799972 65.741095 204.748896 65.759219 204.743953 65.802056 Q 204.391367 68.978625 203.794937 72.372677 Q 203.785051 72.431991 203.743861 72.486361 Q 203.699376 72.54897 203.674662 72.600046" style="fill:none;stroke-width:0.50;stroke:#f0e4ce;"/>
		<path vector-effect="non-scaling-stroke" d="M 203.674662 72.600046 Q 202.621847 71.53405 202.219833 71.03318 C 199.193196 67.245352 196.306604 63.465762 192.418273 60.463839 C 189.755755 58.409284 186.806554 57.625028 183.445454 57.269147 Q 179.466505 56.845714 179.290212 56.837476 C 178.659182 56.806171 177.996848 57.743655 177.705223 58.218163 C 175.986778 61.017432 175.454604 64.480683 175.573231 67.798945 Q 175.752819 72.801053 177.374056 77.481878 Q 177.930944 79.088286 178.901379 81.244992 C 179.387421 82.327464 179.700464 83.197396 180.09424 84.192545 Q 180.132135 84.293048 180.029984 84.261744 C 177.958953 83.637304 175.63584 82.34394 174.106869 81.676663 Q 172.684992 81.055518 170.444259 80.841331" style="fill:none;stroke-width:0.50;stroke:#9ea395;"/>
		<path vector-effect="non-scaling-stroke" d="M 203.674662 72.600046 L 202.918415 77.75538" style="fill:none;stroke-width:0.50;stroke:#aab7ae;"/>
		<path vector-effect="non-scaling-stroke" d="M 202.918415 77.75538 Q 201.94798 77.869064 201.499833 78.472085 Q 200.998963 79.142657 200.537636 80.495335" style="fill:none;stroke-width:0.50;stroke:#726158;"/>
		<path vector-effect="non-scaling-stroke" d="M 200.537636 80.495335 Q 199.339832 80.521697 198.496262 80.630438 C 196.466421 80.894054 195.138457 82.002887 194.054338 83.839959 Q 193.270081 85.166275 192.760973 86.420097 Q 191.263307 90.107422 190.759142 93.890307 Q 190.699828 94.330215 190.474107 93.947973 C 190.09516 93.302114 189.592642 92.389345 188.943489 91.880237 C 188.826509 91.791267 188.663397 91.764905 188.520056 91.743486 Q 188.014244 91.666049 183.616805 91.08939 Q 182.774882 90.979001 181.728657 90.946049 Q 179.021654 90.863669 176.912728 92.488201 C 176.817168 92.562343 176.677122 92.537629 176.612866 92.43383 C 175.513918 90.644539 174.302933 88.90138 172.826686 87.482798 Q 171.343847 86.057626 170.813321 85.513918 Q 168.971306 83.627419 168.760414 80.969843" style="fill:none;stroke-width:0.50;stroke:#47625f;"/>
		<path vector-effect="non-scaling-stroke" d="M 243.937014 74.928102 Q 243.961728 76.289017 243.943604 77.641695 C 243.933719 78.313915 243.997975 79.080048 243.983147 79.803344 Q 243.951842 81.401514 243.951842 81.422933 Q 244.006213 90.614882 244.062231 99.806831 Q 244.070469 101.230356 244.231934 108.707155 C 244.258295 109.964272 244.33738 111.211504 244.386808 112.493335 Q 244.390103 112.592191 244.322552 112.519697 Q 244.100126 112.287385 243.41143 111.23457 Q 243.024245 110.639788 241.564473 108.960885 Q 237.847492 104.687016 232.397238 102.980105 C 229.100394 101.947061 225.541583 101.811958 222.178835 102.232095 C 216.885103 102.896077 211.306336 104.260288 206.034023 105.250495 Q 203.330314 105.757955 200.890222 105.491044 C 199.845645 105.37736 199.097635 105.016536 198.448482 104.189441 Q 198.148619 103.805551 197.837223 103.420013" style="fill:none;stroke-width:0.50;stroke:#f3e1c6;"/>
		<path vector-effect="non-scaling-stroke" d="M 197.837223 103.420013 C 199.614981 95.933328 200.786423 89.49122 202.142396 82.498814 Q 202.465325 80.829797 202.918415 77.75538" style="fill:none;stroke-width:0.50;stroke:#c4a291;"/>
		<path vector-effect="non-scaling-stroke" d="M 317.288075 83.69497 L 317.233705 83.72957" style="fill:none;stroke-width:0.50;stroke:#7f7050;"/>
		<path vector-effect="non-scaling-stroke" d="M 317.233705 83.72957 Q 317.045879 83.795474 316.775672 83.727922" style="fill:none;stroke-width:0.50;stroke:#908466;"/>
		<path vector-effect="non-scaling-stroke" d="M 316.775672 83.727922 Q 317.316085 80.432726 317.134849 77.234739 Q 316.998098 74.807827 316.02272 72.822471 C 315.118189 70.980457 313.342078 69.085719 311.193611 68.884712 C 308.835898 68.662286 306.273883 69.395468 304.174843 70.382379 Q 301.00816 71.87016 298.016122 74.114188 C 295.467288 76.023754 293.557722 77.709247 291.252732 79.725907 Q 291.162114 79.804992 291.185181 79.688012 C 292.539506 72.741739 292.780056 65.665306 291.162114 58.877202 C 289.796256 53.141914 286.479641 47.737792 281.283117 44.71445 C 275.714236 41.475272 268.822334 42.185387 263.859769 46.263192 Q 259.332169 49.983468 259.104801 55.870336 Q 259.035602 57.676103 259.119629 59.234731 Q 259.248142 61.577615 259.457387 63.918852" style="fill:none;stroke-width:0.50;stroke:#7f7050;"/>
		<path vector-effect="non-scaling-stroke" d="M 259.457387 63.918852 Q 258.363382 63.813406 256.793221 63.829882 C 253.956057 63.859538 251.431937 64.741003 249.492714 66.741187 C 247.421684 68.876474 245.85317 71.75318 245.493994 74.687552" style="fill:none;stroke-width:0.50;stroke:#e2c59f;"/>
		<path vector-effect="non-scaling-stroke" d="M 245.493994 74.687552 L 243.937014 74.928102" style="fill:none;stroke-width:0.50;stroke:#d9af7e;"/>
		<path vector-effect="non-scaling-stroke" d="M 243.937014 74.928102 C 243.429554 71.975606 242.007677 68.89295 239.941589 66.749425 C 236.964379 63.661827 232.97884 63.503657 228.973529 64.027593 Q 227.164467 64.264847 224.615632 64.81844 Q 220.205013 65.775695 215.794393 66.71153" style="fill:none;stroke-width:0.50;stroke:#e2c59f;"/>
		<path vector-effect="non-scaling-stroke" d="M 194.352553 111.290589 L 193.438136 115.966472" style="fill:none;stroke-width:0.50;stroke:#52493d;"/>
		<path vector-effect="non-scaling-stroke" d="M 193.438136 115.966472 Q 185.918499 111.384502 179.375887 105.985323 Q 179.247375 105.878229 179.329755 106.023218 Q 180.191448 107.553837 180.89662 109.435393 Q 180.995476 109.702304 180.745041 109.565554 Q 180.082707 109.206377 179.672455 108.890038 C 178.61305 108.07283 177.168106 107.05791 175.907694 105.998504 Q 175.840142 105.942486 175.8006 105.944133 Q 175.766 105.945781 175.739639 105.921067 L 173.353917 103.762714" style="fill:none;stroke-width:0.50;stroke:#726352;"/>
		<path vector-effect="non-scaling-stroke" d="M 195.583309 111.664593 L 194.352553 111.290589" style="fill:none;stroke-width:0.50;stroke:#7e4836;"/>
		<path vector-effect="non-scaling-stroke" d="M 194.352553 111.290589 C 195.118686 107.0645 195.871638 102.836764 196.667428 98.617265 Q 197.850403 92.333326 199.010312 86.046093 Q 199.547429 83.138082 200.537636 80.495335" style="fill:none;stroke-width:0.50;stroke:#614d42;"/>
		<path vector-effect="non-scaling-stroke" d="M 292.21493 106.758047 Q 292.964587 109.20473 294.040468 111.773335" style="fill:none;stroke-width:0.50;stroke:#bb8c70;"/>
		<path vector-effect="non-scaling-stroke" d="M 294.040468 111.773335 Q 289.769894 110.367934 284.514057 109.145416 Q 279.076983 107.881709 274.371444 107.174889 C 267.873317 106.197863 261.076976 106.543859 255.402648 110.158689 C 252.677521 111.895257 250.464797 114.070086 248.354224 116.510179 C 247.6161 117.363635 246.596237 118.315946 245.485756 118.602629 C 244.46754 118.864597 243.184062 118.179196 242.440995 117.502033 C 241.498569 116.641987 240.829644 115.737456 239.822962 114.564366 Q 234.231014 108.061297 225.643734 107.095804 Q 222.369956 106.72839 218.919886 106.978825 Q 214.153385 107.32482 209.666976 108.186514 C 204.912008 109.099283 200.22624 110.21965 195.583309 111.664593" style="fill:none;stroke-width:0.50;stroke:#ad886b;"/>
		<path vector-effect="non-scaling-stroke" d="M 195.583309 111.664593 Q 196.290128 109.633105 196.809122 107.603264 Q 197.339648 105.517405 197.837223 103.420013" style="fill:none;stroke-width:0.50;stroke:#bb8c70;"/>
		<path vector-effect="non-scaling-stroke" d="M 316.775672 83.727922 Q 313.091643 83.131492 309.448804 84.685177 Q 306.80441 85.810486 304.479649 87.499274 C 303.303264 88.35273 302.168069 89.308337 302.189488 90.908154 Q 302.232325 94.401062 305.293562 96.025594 Q 305.93283 96.364999 307.437087 97.147608 Q 309.511413 98.226784 309.49988 100.67182 Q 309.489994 102.945505 309.302168 104.34102 Q 308.964411 106.853607 309.078095 108.835668" style="fill:none;stroke-width:0.50;stroke:#47625f;"/>
		<path vector-effect="non-scaling-stroke" d="M 309.078095 108.835668 Q 307.178414 110.17846 303.8272 112.336813 Q 299.899326 114.867524 295.809988 116.765557" style="fill:none;stroke-width:0.50;stroke:#726352;"/>
		<path vector-effect="non-scaling-stroke" d="M 295.809988 116.765557 Q 295.134473 114.132695 294.775297 111.414159" style="fill:none;stroke-width:0.50;stroke:#52493d;"/>
		<path vector-effect="non-scaling-stroke" d="M 294.775297 111.414159 Q 294.455663 109.715485 294.206875 108.010221 Q 293.837814 105.476215 293.717539 104.777634 Q 293.300697 102.355665 292.872321 99.935344 Q 292.364861 97.071818 292.264357 96.43255 Q 291.448796 91.211312 290.305364 85.27996 Q 289.741885 82.352178 288.474882 79.658355 Q 288.158543 78.986135 287.647788 78.407828 Q 287.282021 77.990986 286.776209 78.154098" style="fill:none;stroke-width:0.50;stroke:#614d42;"/>
		<path vector-effect="non-scaling-stroke" d="M 286.776209 78.154098 Q 285.731632 72.001968 285.538863 65.803704 C 285.537215 65.750981 285.474606 65.722972 285.435064 65.757571 Q 284.413553 66.634093 283.350852 67.227229 C 281.807053 68.09057 279.770622 68.159769 277.945084 67.955467 C 273.18023 67.421645 268.382425 65.780638 263.767503 64.637205 Q 262.230294 64.256609 259.457387 63.918852" style="fill:none;stroke-width:0.50;stroke:#99a398;"/>
		<path vector-effect="non-scaling-stroke" d="M 317.233705 83.72957 L 317.438007 83.727922" style="fill:none;stroke-width:0.50;stroke:#47625f;"/>
		<path vector-effect="non-scaling-stroke" d="M 320.995171 97.266235 Q 315.737686 103.808846 309.078095 108.835668" style="fill:none;stroke-width:0.50;stroke:#837768;"/>
		<path vector-effect="non-scaling-stroke" d="M 286.776209 78.154098 C 288.05804 85.937351 289.359642 93.704128 290.941336 101.436305 Q 291.570719 104.514018 292.21493 106.758047" style="fill:none;stroke-width:0.50;stroke:#c4a291;"/>
		<path vector-effect="non-scaling-stroke" d="M 292.21493 106.758047 Q 292.033694 106.665781 291.870582 106.575163 Q 291.694289 106.476307 291.513053 106.43347 Q 290.229574 106.127017 289.848979 106.066056 Q 284.4844 105.214247 281.195794 104.471181 C 276.378218 103.383766 273.140688 102.624223 269.127139 102.054155 Q 265.622698 101.55658 262.342331 101.750996 Q 257.364937 102.044269 253.260771 104.545323 Q 252.039901 105.290037 250.652623 106.548802 Q 248.378938 108.609947 246.901043 110.733701 Q 246.416649 111.430635 245.678525 112.501573 Q 245.548365 112.692695 245.55166 112.460383 C 245.726305 99.922163 245.518708 87.861746 245.493994 74.687552" style="fill:none;stroke-width:0.50;stroke:#f3e1c6;"/>
		<path vector-effect="non-scaling-stroke" d="M 193.438136 115.966472 L 196.561982 117.775534" style="fill:none;stroke-width:0.50;stroke:#8f5e46;"/>
		<path vector-effect="non-scaling-stroke" d="M 196.561982 117.775534 C 196.935987 118.385146 197.426971 118.744322 198.265598 119.487389 Q 198.486376 119.6851 198.5045 119.798785 Q 198.55228 120.085467 198.293607 119.950364 Q 197.807566 119.701576 197.189717 119.50716 Q 196.650952 119.339105 196.074293 119.060661 Q 194.21086 118.166015 193.952187 118.04574 Q 193.424955 117.801896 191.579646 116.930317 Q 190.195663 116.27622 186.771955 114.397958 Q 182.788063 112.214891 179.136986 109.517773 Q 179.036482 109.443631 178.103942 108.651137 Q 177.588244 108.212876 176.988518 107.885004" style="fill:none;stroke-width:0.50;stroke:#c8967b;"/>
		<path vector-effect="non-scaling-stroke" d="M 251.880084 118.157777 Q 250.30498 118.342308 248.746352 118.521896 Q 248.454727 118.554848 246.85491 118.815169 Q 245.907541 118.968395 244.945344 118.996404 Q 244.136373 119.019471 242.974817 118.803635 Q 240.669827 118.37526 238.303876 118.078692" style="fill:none;stroke-width:0.50;stroke:#7e4836;"/>
		<path vector-effect="non-scaling-stroke" d="M 199.127292 119.245192 L 196.561982 117.775534" style="fill:none;stroke-width:0.50;stroke:#a97c67;"/>
		<path vector-effect="non-scaling-stroke" d="M 294.775297 111.414159 L 294.040468 111.773335" style="fill:none;stroke-width:0.50;stroke:#7e4836;"/>
		<path vector-effect="non-scaling-stroke" d="M 312.475442 108.234294 Q 312.009172 108.609947 310.504915 109.916492 Q 306.988941 112.972786 301.693561 115.885739 Q 296.062071 118.984871 291.793144 120.77581 Q 286.949206 122.807299 283.276711 124.080892 Q 272.335012 127.872015 260.602467 129.372976 Q 256.040269 129.957874 251.253996 130.223137 Q 249.675598 130.312107 247.962096 130.31705 Q 242.946807 130.331878 241.412894 130.254441 Q 232.311563 129.798057 223.587531 127.867072 Q 215.866887 126.158513 208.414802 123.515766 Q 204.103038 121.986795 199.928025 119.790547 Q 199.570496 119.60272 199.127292 119.245192" style="fill:none;stroke-width:0.50;stroke:#c8967b;"/>
		<path vector-effect="non-scaling-stroke" d="M 199.127292 119.245192 Q 207.895808 117.472376 216.736819 117.136266 Q 223.521627 116.877593 229.835223 117.276312 Q 233.703783 117.520157 238.303876 118.078692" style="fill:none;stroke-width:0.50;stroke:#8f5e46;"/>
		<path vector-effect="non-scaling-stroke" d="M 238.303876 118.078692 Q 238.87724 119.604368 240.071749 120.471005 Q 241.015823 121.156405 242.737563 121.451325 Q 245.536831 121.932424 248.250425 121.278328 Q 250.810793 120.663774 251.880084 118.157777" style="fill:none;stroke-width:0.50;stroke:#9d624b;"/>
		<path vector-effect="non-scaling-stroke" d="M 251.880084 118.157777 Q 259.847867 117.245008 265.711669 117.123086 Q 270.860412 117.015992 275.926776 117.269722 Q 280.569707 117.502033 284.626093 118.062216 Q 286.67241 118.343956 290.188384 118.877777 Q 290.519551 118.927205 290.901794 118.780569 Q 293.411086 117.816724 295.809988 116.765557" style="fill:none;stroke-width:0.50;stroke:#8f5e46;"/>
		<path d="M 304.148482 38.638109 Q 303.883218 38.567262 303.650907 38.305294 Q 303.327978 37.941175 303.255484 37.876918 Q 301.489259 36.313348 300.298045 35.319846 C 295.951682 31.693483 290.975936 28.628951 285.65749 26.531559 Q 274.455471 22.114349 262.688326 24.017324 C 255.167042 25.234899 247.794041 28.22529 241.384885 32.352522 C 234.529229 36.76479 228.744513 42.460536 223.984602 49.118479 Q 222.949911 50.563423 222.160711 51.860082 Q 217.949451 58.779994 215.664233 66.525352 C 215.647757 66.579723 215.66588 66.637389 215.708718 66.673636 Q 215.736727 66.69835 215.794393 66.71153 Q 215.647757 66.767549 215.496178 66.802148 C 213.238968 67.311256 211.041073 67.634185 208.762445 67.441416 Q 206.480522 67.250295 204.831276 65.769104 C 204.799972 65.741095 204.748896 65.759219 204.743953 65.802056 Q 204.391367 68.978625 203.794937 72.372677 Q 203.785051 72.431991 203.743861 72.486361 Q 203.699376 72.54897 203.674662 72.600046 Q 202.621847 71.53405 202.219833 71.03318 C 199.193196 67.245352 196.306604 63.465762 192.418273 60.463839 C 189.755755 58.409284 186.806554 57.625028 183.445454 57.269147 Q 179.466505 56.845714 179.290212 56.837476 C 178.659182 56.806171 177.996848 57.743655 177.705223 58.218163 C 175.986778 61.017432 175.454604 64.480683 175.573231 67.798945 Q 175.752819 72.801053 177.374056 77.481878 Q 177.930944 79.088286 178.901379 81.244992 C 179.387421 82.327464 179.700464 83.197396 180.09424 84.192545 Q 180.132135 84.293048 180.029984 84.261744 C 177.958953 83.637304 175.63584 82.34394 174.106869 81.676663 Q 172.684992 81.055518 170.444259 80.841331 Q 170.63538 80.594191 170.630437 80.528287 Q 170.496982 79.068515 170.391536 77.605448 Q 170.295975 76.275837 170.399774 72.097528 Q 170.440964 70.440045 170.597485 68.820456 Q 171.373504 60.844434 173.764169 53.950884 Q 178.583393 40.055043 188.417905 28.77394 C 191.106785 25.689636 193.968663 23.030413 197.66093 20.021899 Q 199.128939 18.824095 200.270725 18.010182 Q 216.049771 6.753793 235.028452 4.003952 Q 240.63358 3.191686 247.009784 3.310313 C 248.395414 3.336675 250.285209 3.47013 251.303424 3.534386 Q 252.558894 3.613471 253.50132 3.72386 C 254.479993 3.837544 255.404296 3.849078 256.429102 4.035256 Q 257.427546 4.218139 258.905441 4.455394 Q 259.816563 4.60203 261.370248 4.941435 Q 274.036981 7.702809 284.743073 14.588121 Q 289.95113 17.93604 294.9104 22.359841 Q 298.813559 25.841215 303.186284 30.87957 Q 304.224271 32.077374 305.161754 33.357557 Q 306.969169 35.828954 308.755166 38.491472 Q 309.295578 39.297148 309.63004 40.101176 C 309.651459 40.152251 309.615212 40.209917 309.559193 40.209917 Q 309.427386 40.213212 309.320292 40.178613 Q 307.40084 39.54923 305.609901 38.789688 Q 305.183173 38.608452 304.16331 38.430511 Q 304.049626 38.41074 304.095759 38.516186 L 304.148482 38.638109 Z" style="fill:#e4d0b4;"/>
		<path d="M 304.148482 38.638109 Q 304.960747 39.621725 305.794432 40.615226 C 308.595349 43.956555 310.901986 47.722964 312.831323 51.743103 Q 315.900798 58.142373 317.060707 64.892582 Q 317.821897 69.321326 317.924048 73.700641 Q 317.975124 75.835928 317.933934 78.511627 Q 317.914163 79.68966 317.396817 83.362156 Q 317.381989 83.467602 317.288075 83.69497 L 317.233705 83.72957 Q 317.045879 83.795474 316.775672 83.727922 Q 317.316085 80.432726 317.134849 77.234739 Q 316.998098 74.807827 316.02272 72.822471 C 315.118189 70.980457 313.342078 69.085719 311.193611 68.884712 C 308.835898 68.662286 306.273883 69.395468 304.174843 70.382379 Q 301.00816 71.87016 298.016122 74.114188 C 295.467288 76.023754 293.557722 77.709247 291.252732 79.725907 Q 291.162114 79.804992 291.185181 79.688012 C 292.539506 72.741739 292.780056 65.665306 291.162114 58.877202 C 289.796256 53.141914 286.479641 47.737792 281.283117 44.71445 C 275.714236 41.475272 268.822334 42.185387 263.859769 46.263192 Q 259.332169 49.983468 259.104801 55.870336 Q 259.035602 57.676103 259.119629 59.234731 Q 259.248142 61.577615 259.457387 63.918852 Q 258.363382 63.813406 256.793221 63.829882 C 253.956057 63.859538 251.431937 64.741003 249.492714 66.741187 C 247.421684 68.876474 245.85317 71.75318 245.493994 74.687552 L 243.937014 74.928102 C 243.429554 71.975606 242.007677 68.89295 239.941589 66.749425 C 236.964379 63.661827 232.97884 63.503657 228.973529 64.027593 Q 227.164467 64.264847 224.615632 64.81844 Q 220.205013 65.775695 215.794393 66.71153 Q 215.736727 66.69835 215.708718 66.673636 C 215.66588 66.637389 215.647757 66.579723 215.664233 66.525352 Q 217.949451 58.779994 222.160711 51.860082 Q 222.949911 50.563423 223.984602 49.118479 C 228.744513 42.460536 234.529229 36.76479 241.384885 32.352522 C 247.794041 28.22529 255.167042 25.234899 262.688326 24.017324 Q 274.455471 22.114349 285.65749 26.531559 C 290.975936 28.628951 295.951682 31.693483 300.298045 35.319846 Q 301.489259 36.313348 303.255484 37.876918 Q 303.327978 37.941175 303.650907 38.305294 Q 303.883218 38.567262 304.148482 38.638109 Z" style="fill:#c89256;"/>
		<path d="M 316.775672 83.727922 Q 313.091643 83.131492 309.448804 84.685177 Q 306.80441 85.810486 304.479649 87.499274 C 303.303264 88.35273 302.168069 89.308337 302.189488 90.908154 Q 302.232325 94.401062 305.293562 96.025594 Q 305.93283 96.364999 307.437087 97.147608 Q 309.511413 98.226784 309.49988 100.67182 Q 309.489994 102.945505 309.302168 104.34102 Q 308.964411 106.853607 309.078095 108.835668 Q 307.178414 110.17846 303.8272 112.336813 Q 299.899326 114.867524 295.809988 116.765557 Q 295.134473 114.132695 294.775297 111.414159 Q 294.455663 109.715485 294.206875 108.010221 Q 293.837814 105.476215 293.717539 104.777634 Q 293.300697 102.355665 292.872321 99.935344 Q 292.364861 97.071818 292.264357 96.43255 Q 291.448796 91.211312 290.305364 85.27996 Q 289.741885 82.352178 288.474882 79.658355 Q 288.158543 78.986135 287.647788 78.407828 Q 287.282021 77.990986 286.776209 78.154098 Q 285.731632 72.001968 285.538863 65.803704 C 285.537215 65.750981 285.474606 65.722972 285.435064 65.757571 Q 284.413553 66.634093 283.350852 67.227229 C 281.807053 68.09057 279.770622 68.159769 277.945084 67.955467 C 273.18023 67.421645 268.382425 65.780638 263.767503 64.637205 Q 262.230294 64.256609 259.457387 63.918852 Q 259.248142 61.577615 259.119629 59.234731 Q 259.035602 57.676103 259.104801 55.870336 Q 259.332169 49.983468 263.859769 46.263192 C 268.822334 42.185387 275.714236 41.475272 281.283117 44.71445 C 286.479641 47.737792 289.796256 53.141914 291.162114 58.877202 C 292.780056 65.665306 292.539506 72.741739 291.185181 79.688012 Q 291.162114 79.804992 291.252732 79.725907 C 293.557722 77.709247 295.467288 76.023754 298.016122 74.114188 Q 301.00816 71.87016 304.174843 70.382379 C 306.273883 69.395468 308.835898 68.662286 311.193611 68.884712 C 313.342078 69.085719 315.118189 70.980457 316.02272 72.822471 Q 316.998098 74.807827 317.134849 77.234739 Q 317.316085 80.432726 316.775672 83.727922 Z" style="fill:#354e49;"/>
		<path d="M 203.674662 72.600046 L 202.918415 77.75538 Q 201.94798 77.869064 201.499833 78.472085 Q 200.998963 79.142657 200.537636 80.495335 Q 199.339832 80.521697 198.496262 80.630438 C 196.466421 80.894054 195.138457 82.002887 194.054338 83.839959 Q 193.270081 85.166275 192.760973 86.420097 Q 191.263307 90.107422 190.759142 93.890307 Q 190.699828 94.330215 190.474107 93.947973 C 190.09516 93.302114 189.592642 92.389345 188.943489 91.880237 C 188.826509 91.791267 188.663397 91.764905 188.520056 91.743486 Q 188.014244 91.666049 183.616805 91.08939 Q 182.774882 90.979001 181.728657 90.946049 Q 179.021654 90.863669 176.912728 92.488201 C 176.817168 92.562343 176.677122 92.537629 176.612866 92.43383 C 175.513918 90.644539 174.302933 88.90138 172.826686 87.482798 Q 171.343847 86.057626 170.813321 85.513918 Q 168.971306 83.627419 168.760414 80.969843 L 170.444259 80.841331 Q 172.684992 81.055518 174.106869 81.676663 C 175.63584 82.34394 177.958953 83.637304 180.029984 84.261744 Q 180.132135 84.293048 180.09424 84.192545 C 179.700464 83.197396 179.387421 82.327464 178.901379 81.244992 Q 177.930944 79.088286 177.374056 77.481878 Q 175.752819 72.801053 175.573231 67.798945 C 175.454604 64.480683 175.986778 61.017432 177.705223 58.218163 C 177.996848 57.743655 178.659182 56.806171 179.290212 56.837476 Q 179.466505 56.845714 183.445454 57.269147 C 186.806554 57.625028 189.755755 58.409284 192.418273 60.463839 C 196.306604 63.465762 199.193196 67.245352 202.219833 71.03318 Q 202.621847 71.53405 203.674662 72.600046 Z" style="fill:#587675;"/>
		<path d="M 243.937014 74.928102 Q 243.961728 76.289017 243.943604 77.641695 C 243.933719 78.313915 243.997975 79.080048 243.983147 79.803344 Q 243.951842 81.401514 243.951842 81.422933 Q 244.006213 90.614882 244.062231 99.806831 Q 244.070469 101.230356 244.231934 108.707155 C 244.258295 109.964272 244.33738 111.211504 244.386808 112.493335 Q 244.390103 112.592191 244.322552 112.519697 Q 244.100126 112.287385 243.41143 111.23457 Q 243.024245 110.639788 241.564473 108.960885 Q 237.847492 104.687016 232.397238 102.980105 C 229.100394 101.947061 225.541583 101.811958 222.178835 102.232095 C 216.885103 102.896077 211.306336 104.260288 206.034023 105.250495 Q 203.330314 105.757955 200.890222 105.491044 C 199.845645 105.37736 199.097635 105.016536 198.448482 104.189441 Q 198.148619 103.805551 197.837223 103.420013 C 199.614981 95.933328 200.786423 89.49122 202.142396 82.498814 Q 202.465325 80.829797 202.918415 77.75538 L 203.674662 72.600046 Q 203.699376 72.54897 203.743861 72.486361 Q 203.785051 72.431991 203.794937 72.372677 Q 204.391367 68.978625 204.743953 65.802056 C 204.748896 65.759219 204.799972 65.741095 204.831276 65.769104 Q 206.480522 67.250295 208.762445 67.441416 C 211.041073 67.634185 213.238968 67.311256 215.496178 66.802148 Q 215.647757 66.767549 215.794393 66.71153 Q 220.205013 65.775695 224.615632 64.81844 Q 227.164467 64.264847 228.973529 64.027593 C 232.97884 63.503657 236.964379 63.661827 239.941589 66.749425 C 242.007677 68.89295 243.429554 71.975606 243.937014 74.928102 Z" style="fill:#fcf7e7;"/>
		<path d="M 259.457387 63.918852 Q 262.230294 64.256609 263.767503 64.637205 C 268.382425 65.780638 273.18023 67.421645 277.945084 67.955467 C 279.770622 68.159769 281.807053 68.09057 283.350852 67.227229 Q 284.413553 66.634093 285.435064 65.757571 C 285.474606 65.722972 285.537215 65.750981 285.538863 65.803704 Q 285.731632 72.001968 286.776209 78.154098 C 288.05804 85.937351 289.359642 93.704128 290.941336 101.436305 Q 291.570719 104.514018 292.21493 106.758047 Q 292.033694 106.665781 291.870582 106.575163 Q 291.694289 106.476307 291.513053 106.43347 Q 290.229574 106.127017 289.848979 106.066056 Q 284.4844 105.214247 281.195794 104.471181 C 276.378218 103.383766 273.140688 102.624223 269.127139 102.054155 Q 265.622698 101.55658 262.342331 101.750996 Q 257.364937 102.044269 253.260771 104.545323 Q 252.039901 105.290037 250.652623 106.548802 Q 248.378938 108.609947 246.901043 110.733701 Q 246.416649 111.430635 245.678525 112.501573 Q 245.548365 112.692695 245.55166 112.460383 C 245.726305 99.922163 245.518708 87.861746 245.493994 74.687552 C 245.85317 71.75318 247.421684 68.876474 249.492714 66.741187 C 251.431937 64.741003 253.956057 63.859538 256.793221 63.829882 Q 258.363382 63.813406 259.457387 63.918852 Z" style="fill:#fcf7e7;"/>
		<path d="M 245.493994 74.687552 C 245.518708 87.861746 245.726305 99.922163 245.55166 112.460383 Q 245.548365 112.692695 245.678525 112.501573 Q 246.416649 111.430635 246.901043 110.733701 Q 248.378938 108.609947 250.652623 106.548802 Q 252.039901 105.290037 253.260771 104.545323 Q 257.364937 102.044269 262.342331 101.750996 Q 265.622698 101.55658 269.127139 102.054155 C 273.140688 102.624223 276.378218 103.383766 281.195794 104.471181 Q 284.4844 105.214247 289.848979 106.066056 Q 290.229574 106.127017 291.513053 106.43347 Q 291.694289 106.476307 291.870582 106.575163 Q 292.033694 106.665781 292.21493 106.758047 Q 292.964587 109.20473 294.040468 111.773335 Q 289.769894 110.367934 284.514057 109.145416 Q 279.076983 107.881709 274.371444 107.174889 C 267.873317 106.197863 261.076976 106.543859 255.402648 110.158689 C 252.677521 111.895257 250.464797 114.070086 248.354224 116.510179 C 247.6161 117.363635 246.596237 118.315946 245.485756 118.602629 C 244.46754 118.864597 243.184062 118.179196 242.440995 117.502033 C 241.498569 116.641987 240.829644 115.737456 239.822962 114.564366 Q 234.231014 108.061297 225.643734 107.095804 Q 222.369956 106.72839 218.919886 106.978825 Q 214.153385 107.32482 209.666976 108.186514 C 204.912008 109.099283 200.22624 110.21965 195.583309 111.664593 Q 196.290128 109.633105 196.809122 107.603264 Q 197.339648 105.517405 197.837223 103.420013 Q 198.148619 103.805551 198.448482 104.189441 C 199.097635 105.016536 199.845645 105.37736 200.890222 105.491044 Q 203.330314 105.757955 206.034023 105.250495 C 211.306336 104.260288 216.885103 102.896077 222.178835 102.232095 C 225.541583 101.811958 229.100394 101.947061 232.397238 102.980105 Q 237.847492 104.687016 241.564473 108.960885 Q 243.024245 110.639788 243.41143 111.23457 Q 244.100126 112.287385 244.322552 112.519697 Q 244.390103 112.592191 244.386808 112.493335 C 244.33738 111.211504 244.258295 109.964272 244.231934 108.707155 Q 244.070469 101.230356 244.062231 99.806831 Q 244.006213 90.614882 243.951842 81.422933 Q 243.951842 81.401514 243.983147 79.803344 C 243.997975 79.080048 243.933719 78.313915 243.943604 77.641695 Q 243.961728 76.289017 243.937014 74.928102 L 245.493994 74.687552 Z" style="fill:#eacba5;"/>
		<path d="M 202.918415 77.75538 Q 202.465325 80.829797 202.142396 82.498814 C 200.786423 89.49122 199.614981 95.933328 197.837223 103.420013 Q 197.339648 105.517405 196.809122 107.603264 Q 196.290128 109.633105 195.583309 111.664593 L 194.352553 111.290589 C 195.118686 107.0645 195.871638 102.836764 196.667428 98.617265 Q 197.850403 92.333326 199.010312 86.046093 Q 199.547429 83.138082 200.537636 80.495335 Q 200.998963 79.142657 201.499833 78.472085 Q 201.94798 77.869064 202.918415 77.75538 Z" style="fill:#8c4c3b;"/>
		<path d="M 294.775297 111.414159 L 294.040468 111.773335 Q 292.964587 109.20473 292.21493 106.758047 Q 291.570719 104.514018 290.941336 101.436305 C 289.359642 93.704128 288.05804 85.937351 286.776209 78.154098 Q 287.282021 77.990986 287.647788 78.407828 Q 288.158543 78.986135 288.474882 79.658355 Q 289.741885 82.352178 290.305364 85.27996 Q 291.448796 91.211312 292.264357 96.43255 Q 292.364861 97.071818 292.872321 99.935344 Q 293.300697 102.355665 293.717539 104.777634 Q 293.837814 105.476215 294.206875 108.010221 Q 294.455663 109.715485 294.775297 111.414159 Z" style="fill:#8c4c3b;"/>
		<path d="M 200.537636 80.495335 Q 199.547429 83.138082 199.010312 86.046093 Q 197.850403 92.333326 196.667428 98.617265 C 195.871638 102.836764 195.118686 107.0645 194.352553 111.290589 L 193.438136 115.966472 Q 185.918499 111.384502 179.375887 105.985323 Q 179.247375 105.878229 179.329755 106.023218 Q 180.191448 107.553837 180.89662 109.435393 Q 180.995476 109.702304 180.745041 109.565554 Q 180.082707 109.206377 179.672455 108.890038 C 178.61305 108.07283 177.168106 107.05791 175.907694 105.998504 Q 175.840142 105.942486 175.8006 105.944133 Q 175.766 105.945781 175.739639 105.921067 L 173.353917 103.762714 Q 171.200506 101.464314 169.295883 98.894062 C 166.598765 95.25287 164.346499 91.196484 164.507963 86.546962 Q 164.550801 85.289845 165.051671 83.709799 Q 165.600321 81.986411 167.327003 81.413047 Q 167.9811 81.195564 168.760414 80.969843 Q 168.971306 83.627419 170.813321 85.513918 Q 171.343847 86.057626 172.826686 87.482798 C 174.302933 88.90138 175.513918 90.644539 176.612866 92.43383 C 176.677122 92.537629 176.817168 92.562343 176.912728 92.488201 Q 179.021654 90.863669 181.728657 90.946049 Q 182.774882 90.979001 183.616805 91.08939 Q 188.014244 91.666049 188.520056 91.743486 C 188.663397 91.764905 188.826509 91.791267 188.943489 91.880237 C 189.592642 92.389345 190.09516 93.302114 190.474107 93.947973 Q 190.699828 94.330215 190.759142 93.890307 Q 191.263307 90.107422 192.760973 86.420097 Q 193.270081 85.166275 194.054338 83.839959 C 195.138457 82.002887 196.466421 80.894054 198.496262 80.630438 Q 199.339832 80.521697 200.537636 80.495335 Z" style="fill:#354e49;"/>
		<path d="M 316.775672 83.727922 Q 317.045879 83.795474 317.233705 83.72957 L 317.438007 83.727922 Q 320.856773 84.373781 323.819154 86.187786 C 324.702266 86.728198 325.562312 87.449846 325.705653 88.515842 Q 325.763319 88.94257 325.47499 89.636209 Q 324.84396 91.151999 324.028399 92.590352 Q 322.618055 95.076577 320.995171 97.266235 Q 315.737686 103.808846 309.078095 108.835668 Q 308.964411 106.853607 309.302168 104.34102 Q 309.489994 102.945505 309.49988 100.67182 Q 309.511413 98.226784 307.437087 97.147608 Q 305.93283 96.364999 305.293562 96.025594 Q 302.232325 94.401062 302.189488 90.908154 C 302.168069 89.308337 303.303264 88.35273 304.479649 87.499274 Q 306.80441 85.810486 309.448804 84.685177 Q 313.091643 83.131492 316.775672 83.727922 Z" style="fill:#587675;"/>
		<path d="M 317.288075 83.69497 L 317.438007 83.727922 L 317.233705 83.72957 L 317.288075 83.69497 Z" style="fill:#354e49;"/>
		<path d="M 320.995171 97.266235 Q 320.377322 98.615618 319.794072 99.391636 Q 316.874528 103.27832 313.505191 106.781113 Q 312.856037 107.456628 312.475442 108.234294 Q 312.009172 108.609947 310.504915 109.916492 Q 306.988941 112.972786 301.693561 115.885739 Q 296.062071 118.984871 291.793144 120.77581 Q 286.949206 122.807299 283.276711 124.080892 Q 272.335012 127.872015 260.602467 129.372976 Q 256.040269 129.957874 251.253996 130.223137 Q 249.675598 130.312107 247.962096 130.31705 Q 242.946807 130.331878 241.412894 130.254441 Q 232.311563 129.798057 223.587531 127.867072 Q 215.866887 126.158513 208.414802 123.515766 Q 204.103038 121.986795 199.928025 119.790547 Q 199.570496 119.60272 199.127292 119.245192 Q 207.895808 117.472376 216.736819 117.136266 Q 223.521627 116.877593 229.835223 117.276312 Q 233.703783 117.520157 238.303876 118.078692 Q 238.87724 119.604368 240.071749 120.471005 Q 241.015823 121.156405 242.737563 121.451325 Q 245.536831 121.932424 248.250425 121.278328 Q 250.810793 120.663774 251.880084 118.157777 Q 259.847867 117.245008 265.711669 117.123086 Q 270.860412 117.015992 275.926776 117.269722 Q 280.569707 117.502033 284.626093 118.062216 Q 286.67241 118.343956 290.188384 118.877777 Q 290.519551 118.927205 290.901794 118.780569 Q 293.411086 117.816724 295.809988 116.765557 Q 299.899326 114.867524 303.8272 112.336813 Q 307.178414 110.17846 309.078095 108.835668 Q 315.737686 103.808846 320.995171 97.266235 Z" style="fill:#ae775a;"/>
		<path d="M 193.438136 115.966472 L 196.561982 117.775534 C 196.935987 118.385146 197.426971 118.744322 198.265598 119.487389 Q 198.486376 119.6851 198.5045 119.798785 Q 198.55228 120.085467 198.293607 119.950364 Q 197.807566 119.701576 197.189717 119.50716 Q 196.650952 119.339105 196.074293 119.060661 Q 194.21086 118.166015 193.952187 118.04574 Q 193.424955 117.801896 191.579646 116.930317 Q 190.195663 116.27622 186.771955 114.397958 Q 182.788063 112.214891 179.136986 109.517773 Q 179.036482 109.443631 178.103942 108.651137 Q 177.588244 108.212876 176.988518 107.885004 Q 176.85012 107.644454 176.672179 107.375896 Q 176.517305 107.138642 176.298174 106.909626 Q 174.820279 105.362531 173.353917 103.762714 L 175.739639 105.921067 Q 175.766 105.945781 175.8006 105.944133 Q 175.840142 105.942486 175.907694 105.998504 C 177.168106 107.05791 178.61305 108.07283 179.672455 108.890038 Q 180.082707 109.206377 180.745041 109.565554 Q 180.995476 109.702304 180.89662 109.435393 Q 180.191448 107.553837 179.329755 106.023218 Q 179.247375 105.878229 179.375887 105.985323 Q 185.918499 111.384502 193.438136 115.966472 Z" style="fill:#ae775a;"/>
		<path d="M 294.040468 111.773335 L 294.775297 111.414159 Q 295.134473 114.132695 295.809988 116.765557 Q 293.411086 117.816724 290.901794 118.780569 Q 290.519551 118.927205 290.188384 118.877777 Q 286.67241 118.343956 284.626093 118.062216 Q 280.569707 117.502033 275.926776 117.269722 Q 270.860412 117.015992 265.711669 117.123086 Q 259.847867 117.245008 251.880084 118.157777 Q 250.30498 118.342308 248.746352 118.521896 Q 248.454727 118.554848 246.85491 118.815169 Q 245.907541 118.968395 244.945344 118.996404 Q 244.136373 119.019471 242.974817 118.803635 Q 240.669827 118.37526 238.303876 118.078692 Q 233.703783 117.520157 229.835223 117.276312 Q 223.521627 116.877593 216.736819 117.136266 Q 207.895808 117.472376 199.127292 119.245192 L 196.561982 117.775534 L 193.438136 115.966472 L 194.352553 111.290589 L 195.583309 111.664593 C 200.22624 110.21965 204.912008 109.099283 209.666976 108.186514 Q 214.153385 107.32482 218.919886 106.978825 Q 222.369956 106.72839 225.643734 107.095804 Q 234.231014 108.061297 239.822962 114.564366 C 240.829644 115.737456 241.498569 116.641987 242.440995 117.502033 C 243.184062 118.179196 244.46754 118.864597 245.485756 118.602629 C 246.596237 118.315946 247.6161 117.363635 248.354224 116.510179 C 250.464797 114.070086 252.677521 111.895257 255.402648 110.158689 C 261.076976 106.543859 267.873317 106.197863 274.371444 107.174889 Q 279.076983 107.881709 284.514057 109.145416 Q 289.769894 110.367934 294.040468 111.773335 Z" style="fill:#6f4431;"/>
		<path d="M 196.561982 117.775534 L 199.127292 119.245192 Q 199.570496 119.60272 199.928025 119.790547 Q 204.103038 121.986795 208.414802 123.515766 Q 215.866887 126.158513 223.587531 127.867072 Q 232.311563 129.798057 241.412894 130.254441 Q 242.946807 130.331878 247.962096 130.31705 Q 249.675598 130.312107 251.253996 130.223137 Q 256.040269 129.957874 260.602467 129.372976 Q 272.335012 127.872015 283.276711 124.080892 Q 286.949206 122.807299 291.793144 120.77581 Q 296.062071 118.984871 301.693561 115.885739 Q 306.988941 112.972786 310.504915 109.916492 Q 312.009172 108.609947 312.475442 108.234294 Q 312.233245 108.857087 311.967982 109.407384 Q 310.292374 112.86734 308.679376 115.552925 Q 302.738138 125.445103 294.16239 132.953207 Q 291.735479 135.078608 288.923029 137.185886 Q 275.948195 146.908362 260.378394 149.902047 Q 255.890337 150.765388 250.55212 151.144336 Q 247.154773 151.386533 241.951658 151.239897 Q 240.295822 151.192116 238.6647 151.030652 Q 231.927672 150.363375 227.083734 149.182047 Q 220.793205 147.648133 213.644278 144.44026 Q 212.260295 143.817468 210.680249 142.998612 Q 200.158688 137.541767 191.556579 129.201626 C 190.429622 128.109269 189.073649 126.591831 188.136166 125.530778 Q 182.250946 118.87613 178.148427 110.592007 Q 177.408655 109.095988 176.988518 107.885004 Q 177.588244 108.212876 178.103942 108.651137 Q 179.036482 109.443631 179.136986 109.517773 Q 182.788063 112.214891 186.771955 114.397958 Q 190.195663 116.27622 191.579646 116.930317 Q 193.424955 117.801896 193.952187 118.04574 Q 194.21086 118.166015 196.074293 119.060661 Q 196.650952 119.339105 197.189717 119.50716 Q 197.807566 119.701576 198.293607 119.950364 Q 198.55228 120.085467 198.5045 119.798785 Q 198.486376 119.6851 198.265598 119.487389 C 197.426971 118.744322 196.935987 118.385146 196.561982 117.775534 Z" style="fill:#e2b49c;"/>
		<path d="M 251.880084 118.157777 Q 250.810793 120.663774 248.250425 121.278328 Q 245.536831 121.932424 242.737563 121.451325 Q 241.015823 121.156405 240.071749 120.471005 Q 238.87724 119.604368 238.303876 118.078692 Q 240.669827 118.37526 242.974817 118.803635 Q 244.136373 119.019471 244.945344 118.996404 Q 245.907541 118.968395 246.85491 118.815169 Q 248.454727 118.554848 248.746352 118.521896 Q 250.30498 118.342308 251.880084 118.157777 Z" style="fill:#8c4c3b;"/>
	</g>
	<g id="surface4">
	</g>
</svg>
