<?xml version="1.0" encoding="utf-8"?>
<svg xmlns="http://www.w3.org/2000/svg" width="490pt" height="280pt" viewBox="0 0 490 280" version="1.1" xmlns:xlink="http://www.w3.org/1999/xlink">
	<g id="surface2">
		<path stroke-opacity="0.796" vector-effect="non-scaling-stroke" d="M 261.371927 99.84219 Q 260.788472 100.307131 260.390386 100.933129" style="fill:none;stroke-width:0.50;stroke:#4b443e;"/>
		<path stroke-opacity="0.796" vector-effect="non-scaling-stroke" d="M 257.798266 103.920296 L 256.011436 105.570379 Q 255.956737 105.619001 256.002319 105.655467 L 256.005358 105.655467 Q 256.057018 105.69801 256.090445 105.667622 L 258.162926 103.813937" style="fill:none;stroke-width:0.50;stroke:#4b443e;"/>
		<path stroke-opacity="0.796" vector-effect="non-scaling-stroke" d="M 269.452169 89.686429 Q 270.090323 89.102974 270.220992 88.282491" style="fill:none;stroke-width:0.50;stroke:#4b443e;"/>
		<path stroke-opacity="0.796" vector-effect="non-scaling-stroke" d="M 274.21705 79.68261 Q 274.779233 79.017107 274.882553 78.138885" style="fill:none;stroke-width:0.50;stroke:#4b443e;"/>
		<path stroke-opacity="0.796" vector-effect="non-scaling-stroke" d="M 291.927336 10.035727 Q 292.167403 9.604214 292.009384 9.233477" style="fill:none;stroke-width:0.50;stroke:#4b443e;"/>
		<path stroke-opacity="0.796" vector-effect="non-scaling-stroke" d="M 292.264645 8.44642 L 292.53814 6.817609" style="fill:none;stroke-width:0.50;stroke:#4b443e;"/>
		<path stroke-opacity="0.796" vector-effect="non-scaling-stroke" d="M 280.404103 67.068438 Q 278.20703 74.352507 275.359649 81.360042 Q 274.098536 84.465724 272.858694 86.893747 Q 270.546147 91.430716 267.68661 95.660764 Q 267.607601 95.779278 267.595446 95.952491" style="fill:none;stroke-width:0.50;stroke:#4b443e;"/>
		<path stroke-opacity="0.796" vector-effect="non-scaling-stroke" d="M 267.595446 95.952491 L 266.115537 97.930768" style="fill:none;stroke-width:0.50;stroke:#4b443e;"/>
		<path stroke-opacity="0.796" vector-effect="non-scaling-stroke" d="M 266.015255 98.085748 Q 265.27682 98.720863 264.802763 99.574773" style="fill:none;stroke-width:0.50;stroke:#4b443e;"/>
		<path stroke-opacity="0.796" vector-effect="non-scaling-stroke" d="M 264.544463 99.939432 Q 263.948853 100.377024 263.596349 100.999983" style="fill:none;stroke-width:0.50;stroke:#4b443e;"/>
		<path stroke-opacity="0.796" vector-effect="non-scaling-stroke" d="M 262.140751 102.74427 Q 261.770014 102.820241 261.54514 103.309492" style="fill:none;stroke-width:0.50;stroke:#4b443e;"/>
		<path stroke-opacity="0.796" vector-effect="non-scaling-stroke" d="M 261.004229 103.85952 Q 260.487628 104.072238 260.575754 104.330538" style="fill:none;stroke-width:0.50;stroke:#4b443e;"/>
		<path vector-effect="non-scaling-stroke" d="M 256.755949 107.600316 L 254.133441 109.314215" style="fill:none;stroke-width:0.50;stroke:#705a44;"/>
		<path vector-effect="non-scaling-stroke" d="M 254.078742 109.371952 L 250.495964 111.189171" style="fill:none;stroke-width:0.50;stroke:#705a44;"/>
		<path vector-effect="non-scaling-stroke" d="M 248.891464 111.644995 Q 248.01932 111.474821 248.909697 112.605265" style="fill:none;stroke-width:0.50;stroke:#705a44;"/>
		<path stroke-opacity="0.796" vector-effect="non-scaling-stroke" d="M 249.280433 113.398398 Q 249.268278 113.760019 249.462763 113.70532" style="fill:none;stroke-width:0.50;stroke:#4b443e;"/>
		<path stroke-opacity="0.796" vector-effect="non-scaling-stroke" d="M 258.965176 128.361584 Q 259.241709 128.905534 259.788698 129.209417" style="fill:none;stroke-width:0.50;stroke:#4b443e;"/>
		<path stroke-opacity="0.796" vector-effect="non-scaling-stroke" d="M 261.694043 131.178577 Q 262.067819 131.79242 262.666468 132.196584" style="fill:none;stroke-width:0.50;stroke:#4b443e;"/>
		<path vector-effect="non-scaling-stroke" d="M 262.687739 132.248244 L 264.140299 134.171822" style="fill:none;stroke-width:0.50;stroke:#705a44;"/>
		<path vector-effect="non-scaling-stroke" d="M 263.620659 134.609413 L 260.046999 138.310705" style="fill:none;stroke-width:0.50;stroke:#705a44;"/>
		<path stroke-opacity="0.796" vector-effect="non-scaling-stroke" d="M 257.026404 141.519706 Q 256.54627 141.799278 256.272775 142.279413" style="fill:none;stroke-width:0.50;stroke:#4b443e;"/>
		<path stroke-opacity="0.796" vector-effect="non-scaling-stroke" d="M 256.139067 142.44351 Q 255.63766 142.789936 255.318583 143.285265" style="fill:none;stroke-width:0.50;stroke:#4b443e;"/>
		<path vector-effect="non-scaling-stroke" d="M 251.425846 147.454536 Q 250.632712 148.06534 249.979364 148.806814 Q 248.918813 150.013228 248.657474 150.271529 Q 246.952692 151.976311 245.387696 153.81784 Q 245.214483 154.018403 244.725231 153.905966" style="fill:none;stroke-width:0.50;stroke:#705a44;"/>
		<path stroke-opacity="0.796" vector-effect="non-scaling-stroke" d="M 244.713076 153.811763 Q 244.49428 153.094599 243.807506 152.763367" style="fill:none;stroke-width:0.50;stroke:#4b443e;"/>
		<path stroke-opacity="0.796" vector-effect="non-scaling-stroke" d="M 240.899348 149.630336 Q 239.085168 147.402876 236.912406 145.497531" style="fill:none;stroke-width:0.50;stroke:#4b443e;"/>
		<path stroke-opacity="0.796" vector-effect="non-scaling-stroke" d="M 235.128615 143.586109 Q 233.779375 141.875249 232.114098 140.462194" style="fill:none;stroke-width:0.50;stroke:#4b443e;"/>
		<path stroke-opacity="0.796" vector-effect="non-scaling-stroke" d="M 227.698682 135.864449 Q 227.428226 135.21414 226.793112 134.819092" style="fill:none;stroke-width:0.50;stroke:#4b443e;"/>
		<path vector-effect="non-scaling-stroke" d="M 226.58951 134.606374 Q 226.188385 134.278181 226.179268 133.870978 Q 226.17623 133.715998 226.27955 133.6066 L 226.902509 132.935019" style="fill:none;stroke-width:0.50;stroke:#705a44;"/>
		<path stroke-opacity="0.796" vector-effect="non-scaling-stroke" d="M 226.902509 132.935019 Q 227.045334 132.883359 227.100033 132.707107" style="fill:none;stroke-width:0.50;stroke:#4b443e;"/>
		<path stroke-opacity="0.796" vector-effect="non-scaling-stroke" d="M 228.680223 130.978014 Q 229.321416 130.628549 229.670881 130.05725" style="fill:none;stroke-width:0.50;stroke:#4b443e;"/>
		<path stroke-opacity="0.796" vector-effect="non-scaling-stroke" d="M 229.670881 130.05725 Q 230.986693 128.954155 232.0047 127.528945" style="fill:none;stroke-width:0.50;stroke:#4b443e;"/>
		<path stroke-opacity="0.796" vector-effect="non-scaling-stroke" d="M 232.381515 127.048811 Q 232.825184 126.936374 232.922426 126.453201" style="fill:none;stroke-width:0.50;stroke:#4b443e;"/>
		<path stroke-opacity="0.796" vector-effect="non-scaling-stroke" d="M 233.408639 126.021687 L 235.797157 123.49946" style="fill:none;stroke-width:0.50;stroke:#4b443e;"/>
		<path stroke-opacity="0.796" vector-effect="non-scaling-stroke" d="M 240.255116 114.692939 Q 240.53165 114.477182 240.483028 114.097329" style="fill:none;stroke-width:0.50;stroke:#4b443e;"/>
		<path stroke-opacity="0.796" vector-effect="non-scaling-stroke" d="M 240.47999 111.499131 L 237.748084 110.356532" style="fill:none;stroke-width:0.50;stroke:#4b443e;"/>
		<path stroke-opacity="0.796" vector-effect="non-scaling-stroke" d="M 237.748084 110.356532 Q 237.62957 110.262329 237.508017 110.323105" style="fill:none;stroke-width:0.50;stroke:#4b443e;"/>
		<path vector-effect="non-scaling-stroke" d="M 234.174423 108.423838 Q 233.925239 108.068295 233.548425 107.946742" style="fill:none;stroke-width:0.50;stroke:#705a44;"/>
		<path vector-effect="non-scaling-stroke" d="M 231.864914 103.968917 L 232.433175 104.470324" style="fill:none;stroke-width:0.50;stroke:#705a44;"/>
		<path vector-effect="non-scaling-stroke" d="M 232.667165 104.655692 L 235.14077 106.728173 Q 235.177236 106.758561 235.216741 106.716017 L 235.21978 106.712978 Q 235.256246 106.676513 235.210663 106.633969 L 231.892264 103.665035" style="fill:none;stroke-width:0.50;stroke:#705a44;"/>
		<path stroke-opacity="0.796" vector-effect="non-scaling-stroke" d="M 231.369585 103.218327 Q 230.810441 102.124349 229.816745 101.443652" style="fill:none;stroke-width:0.50;stroke:#4b443e;"/>
		<path stroke-opacity="0.796" vector-effect="non-scaling-stroke" d="M 203.68283 8.0848 Q 203.445801 8.722954 203.810461 9.20005" style="fill:none;stroke-width:0.50;stroke:#4b443e;"/>
		<path stroke-opacity="0.796" vector-effect="non-scaling-stroke" d="M 235.547973 104.42778 Q 236.034185 105.1024 236.754387 105.488331" style="fill:none;stroke-width:0.50;stroke:#4b443e;"/>
		<path vector-effect="non-scaling-stroke" d="M 237.568793 106.111291 Q 237.745045 106.472911 238.134015 106.646124" style="fill:none;stroke-width:0.50;stroke:#705a44;"/>
		<path stroke-opacity="0.796" vector-effect="non-scaling-stroke" d="M 238.134015 106.646124 Q 238.22518 106.828454 238.364966 106.782871" style="fill:none;stroke-width:0.50;stroke:#4b443e;"/>
		<path stroke-opacity="0.796" vector-effect="non-scaling-stroke" d="M 244.387922 107.17488 Q 245.029114 107.345055 245.132434 106.986473" style="fill:none;stroke-width:0.50;stroke:#4b443e;"/>
		<path stroke-opacity="0.796" vector-effect="non-scaling-stroke" d="M 271.831571 73.103549 Q 272.682442 71.137427 272.968092 68.958588" style="fill:none;stroke-width:0.50;stroke:#4b443e;"/>
		<path stroke-opacity="0.796" vector-effect="non-scaling-stroke" d="M 278.49268 46.264626 Q 278.808718 46.243354 278.617272 45.641666" style="fill:none;stroke-width:0.50;stroke:#4b443e;"/>
		<path stroke-opacity="0.796" vector-effect="non-scaling-stroke" d="M 286.387553 7.884237 Q 286.694475 7.574277 286.633698 6.890541" style="fill:none;stroke-width:0.50;stroke:#4b443e;"/>
		<path stroke-opacity="0.796" vector-effect="non-scaling-stroke" d="M 234.846004 124.456691 L 234.943246 124.344254" style="fill:none;stroke-width:0.50;stroke:#d8b493;"/>
		<path stroke-opacity="0.796" vector-effect="non-scaling-stroke" d="M 226.902509 132.935019 Q 226.896432 132.90767 226.887315 132.883359" style="fill:none;stroke-width:0.50;stroke:#d8b493;"/>
		<path vector-effect="non-scaling-stroke" d="M 244.83159 109.918941 Q 243.555283 112.164635 242.415723 114.471105 C 242.011559 115.28551 242.187811 115.704868 242.695295 116.358216 C 243.412458 117.278981 244.41831 118.886521 245.099007 119.138743 Q 245.241832 119.193442 245.345152 119.077967 Q 246.797712 117.403573 247.78533 115.479995" style="fill:none;stroke-width:0.50;stroke:#705a44;"/>
		<path vector-effect="non-scaling-stroke" d="M 247.724554 114.465027 L 245.481899 110.159009" style="fill:none;stroke-width:0.50;stroke:#705a44;"/>
		<path stroke-opacity="0.796" vector-effect="non-scaling-stroke" d="M 245.481899 110.159009 Q 245.445433 109.976679 245.342113 109.836893" style="fill:none;stroke-width:0.50;stroke:#4b443e;"/>
		<path stroke-opacity="0.796" vector-effect="non-scaling-stroke" d="M 245.481899 110.159009 L 245.357307 110.134698" style="fill:none;stroke-width:0.50;stroke:#d8b493;"/>
		<path stroke-opacity="0.796" vector-effect="non-scaling-stroke" d="M 241.823151 119.667499 Q 241.461531 119.980498 240.294621 121.281116 Q 239.200643 122.499686 235.21978 126.671996 C 234.174423 127.769013 232.582078 129.64093 231.184217 130.953704 C 230.585568 131.515887 230.181404 132.169235 229.494629 132.597709 Q 228.84432 133.004912 229.607066 133.068728 Q 230.302957 133.126465 231.475944 133.038339" style="fill:none;stroke-width:0.50;stroke:#4b443e;"/>
		<path stroke-opacity="0.796" vector-effect="non-scaling-stroke" d="M 233.542347 132.196584 L 238.450053 126.860403" style="fill:none;stroke-width:0.50;stroke:#4b443e;"/>
		<path vector-effect="non-scaling-stroke" d="M 238.450053 126.860403 Q 240.689669 124.736263 242.60413 122.30824" style="fill:none;stroke-width:0.50;stroke:#705a44;"/>
		<path stroke-opacity="0.796" vector-effect="non-scaling-stroke" d="M 242.60413 122.30824 Q 243.081226 122.031707 243.22709 121.603232" style="fill:none;stroke-width:0.50;stroke:#4b443e;"/>
		<path stroke-opacity="0.796" vector-effect="non-scaling-stroke" d="M 243.375992 121.47864 Q 243.48539 121.439135 243.524895 121.308466" style="fill:none;stroke-width:0.50;stroke:#4b443e;"/>
		<path stroke-opacity="0.796" vector-effect="non-scaling-stroke" d="M 243.938175 120.83137 Q 244.126582 120.533565 243.540089 120.333002" style="fill:none;stroke-width:0.50;stroke:#4b443e;"/>
		<path stroke-opacity="0.796" vector-effect="non-scaling-stroke" d="M 241.3339 123.611897 L 238.450053 126.860403" style="fill:none;stroke-width:0.50;stroke:#d8b493;"/>
		<path stroke-opacity="0.796" vector-effect="non-scaling-stroke" d="M 241.616511 123.311053 Q 241.792763 123.165189 241.856578 122.979821" style="fill:none;stroke-width:0.50;stroke:#d8b493;"/>
		<path stroke-opacity="0.796" vector-effect="non-scaling-stroke" d="M 242.60413 122.30824 L 242.154383 122.69721" style="fill:none;stroke-width:0.50;stroke:#d8b493;"/>
		<path stroke-opacity="0.796" vector-effect="non-scaling-stroke" d="M 252.826745 127.984769 L 255.236535 130.510035" style="fill:none;stroke-width:0.50;stroke:#4b443e;"/>
		<path stroke-opacity="0.796" vector-effect="non-scaling-stroke" d="M 255.586 130.838228 Q 256.057018 131.743799 256.880541 132.403224" style="fill:none;stroke-width:0.50;stroke:#4b443e;"/>
		<path vector-effect="non-scaling-stroke" d="M 260.721618 133.111271 Q 260.931297 133.311834 261.13186 133.074805 Q 261.168326 133.029223 261.128821 132.986679 L 252.623143 124.237895" style="fill:none;stroke-width:0.50;stroke:#705a44;"/>
		<path vector-effect="non-scaling-stroke" d="M 235.21978 132.746612 C 235.095188 132.877281 235.186352 133.089999 235.365643 133.089999 L 254.844526 133.123426 C 255.020778 133.123426 255.114982 132.910709 254.993429 132.780039 L 245.27222 122.429793 C 245.190172 122.341667 245.056464 122.341667 244.974415 122.426754 L 235.21978 132.746612" style="fill:none;stroke-width:0.50;stroke:#705a44;"/>
		<path vector-effect="non-scaling-stroke" d="M 255.178797 134.888985 C 255.236535 134.828209 255.193991 134.730966 255.108904 134.730966 L 235.14077 134.764393 C 235.058722 134.764393 235.016178 134.864674 235.073916 134.925451 L 245.077735 145.564385 C 245.114201 145.60389 245.178017 145.60389 245.214483 145.561347 L 255.178797 134.888985" style="fill:none;stroke-width:0.50;stroke:#705a44;"/>
		<path vector-effect="non-scaling-stroke" d="M 257.445762 134.782626 C 257.415374 134.782626 257.388025 134.794781 257.369792 134.816053 L 246.053199 147.120265 C 246.034966 147.141537 246.025849 147.165847 246.025849 147.190158 L 246.025849 150.301917 C 246.025849 150.396121 246.138286 150.441703 246.20514 150.374849 L 260.89787 134.955839 C 260.961686 134.892024 260.916103 134.782626 260.824938 134.782626 L 257.445762 134.782626" style="fill:none;stroke-width:0.50;stroke:#705a44;"/>
		<path stroke-opacity="0.796" vector-effect="non-scaling-stroke" d="M 235.24409 141.188474 Q 235.383876 141.574405 235.772846 141.738502" style="fill:none;stroke-width:0.50;stroke:#4b443e;"/>
		<path stroke-opacity="0.796" vector-effect="non-scaling-stroke" d="M 236.140544 142.112278 Q 236.183088 142.318918 236.380612 142.337151" style="fill:none;stroke-width:0.50;stroke:#4b443e;"/>
		<path stroke-opacity="0.796" vector-effect="non-scaling-stroke" d="M 236.51432 142.49517 Q 236.547747 142.631917 236.687533 142.644072" style="fill:none;stroke-width:0.50;stroke:#4b443e;"/>
		<path stroke-opacity="0.796" vector-effect="non-scaling-stroke" d="M 236.82428 142.817285 L 238.623266 144.74998" style="fill:none;stroke-width:0.50;stroke:#4b443e;"/>
		<path vector-effect="non-scaling-stroke" d="M 238.623266 144.74998 L 244.397038 150.815479 Q 244.503397 150.927915 244.500358 150.772935 L 244.424387 148.141311" style="fill:none;stroke-width:0.50;stroke:#705a44;"/>
		<path stroke-opacity="0.796" vector-effect="non-scaling-stroke" d="M 244.351456 147.67637 Q 244.36665 147.466691 244.190398 147.360332" style="fill:none;stroke-width:0.50;stroke:#4b443e;"/>
		<path stroke-opacity="0.796" vector-effect="non-scaling-stroke" d="M 244.008068 147.129381 Q 243.883476 147.041255 243.932097 147.004789" style="fill:none;stroke-width:0.50;stroke:#4b443e;"/>
		<path vector-effect="non-scaling-stroke" d="M 243.932097 147.004789 Q 243.609982 146.512499 242.227315 145.011319 Q 237.60222 139.994215 235.76373 138.210423" style="fill:none;stroke-width:0.50;stroke:#705a44;"/>
		<path stroke-opacity="0.796" vector-effect="non-scaling-stroke" d="M 244.308912 148.19601 L 244.387922 150.186442 Q 244.393999 150.341422 244.242058 150.323189 Q 244.163048 150.311034 244.108349 150.262412 C 243.919942 150.089199 243.819661 149.770122 243.521856 149.530055 Q 242.689217 148.864552 241.807957 147.934671 Q 240.99659 147.083799 238.623266 144.74998" style="fill:none;stroke-width:0.50;stroke:#d8b493;"/>
		<path stroke-opacity="0.796" vector-effect="non-scaling-stroke" d="M 243.932097 147.004789 Q 243.856127 147.026061 243.786234 147.032139 Q 243.634292 147.050372 243.606943 146.898431 Q 243.506662 146.348403 242.977906 146.068831" style="fill:none;stroke-width:0.50;stroke:#d8b493;"/>
		<path stroke-opacity="0.796" vector-effect="non-scaling-stroke" d="M 259.259942 135.198945 Q 259.044186 135.590954 259.287292 135.843177 Q 259.384534 135.949536 259.506087 135.870526 L 260.359998 135.308343 Q 260.803667 135.016616 260.277949 134.937606 Q 260.046999 134.904179 259.487854 135.028771 Q 259.335913 135.062198 259.259942 135.198945" style="fill:none;stroke-width:0.50;stroke:#d8b493;"/>
		<path stroke-opacity="0.796" vector-effect="non-scaling-stroke" d="M 258.56709 137.040475 Q 258.606594 137.058708 258.697759 137.016164 Q 258.758536 136.985776 258.761575 136.94931 Q 258.767652 136.824718 258.676487 136.858145 Q 258.615711 136.879417 258.588361 136.906766 Q 258.485041 136.997931 258.56709 137.040475" style="fill:none;stroke-width:0.50;stroke:#d8b493;"/>
		<path stroke-opacity="0.796" vector-effect="non-scaling-stroke" d="M 246.44381 149.741497 C 246.436091 149.678957 246.366198 149.639453 246.292415 149.649724 C 246.217296 149.660725 246.165635 149.718462 246.173111 149.780515 C 246.18083 149.843054 246.250723 149.882559 246.324505 149.872288 C 246.399625 149.861287 246.451285 149.803549 246.44381 149.741497" style="fill:none;stroke-width:0.50;stroke:#d8b493;"/>
		<path d="M 261.371927 99.84219 Q 260.788472 100.307131 260.390386 100.933129 L 257.798266 103.920296 L 256.011436 105.570379 Q 255.956737 105.619001 256.002319 105.655467 L 256.005358 105.655467 Q 256.057018 105.69801 256.090445 105.667622 L 258.162926 103.813937 C 259.05938 103.078541 259.88898 102.051417 260.578793 101.391992 C 261.332422 100.668751 261.788247 100.273703 262.289653 99.650744 Q 266.08211 94.940562 266.698991 93.980292 Q 268.087736 91.819686 269.452169 89.686429 Q 270.090323 89.102974 270.220992 88.282491 Q 271.46995 85.821041 272.709792 83.314008 C 272.925549 82.882495 273.098762 82.180526 273.390489 81.642653 C 273.733877 81.016655 273.937478 80.326841 274.21705 79.68261 Q 274.779233 79.017107 274.882553 78.138885 Q 274.818738 78.029488 274.909903 77.78942 Q 275.690881 75.729095 276.426278 73.680926 Q 277.140402 71.690494 277.778556 69.514694 Q 281.039217 58.353081 283.558405 47.951175 Q 283.682997 47.428497 283.789356 46.993945 Q 286.411864 36.054166 287.657783 30.335093 Q 289.833584 20.361662 291.796666 10.360882 Q 291.833132 10.181591 291.927336 10.035727 Q 292.167403 9.604214 292.009384 9.233477 L 292.264645 8.44642 L 292.53814 6.817609 C 292.957498 5.52003 294.397902 6.215921 294.097058 7.328132 C 293.966389 7.802189 294.036282 8.607478 293.920806 9.178778 Q 290.857668 24.701108 286.369321 44.064515 Q 283.54625 56.235018 280.404103 67.068438 Q 278.20703 74.352507 275.359649 81.360042 Q 274.098536 84.465724 272.858694 86.893747 Q 270.546147 91.430716 267.68661 95.660764 Q 267.607601 95.779278 267.595446 95.952491 L 266.115537 97.930768 L 266.015255 98.085748 Q 265.27682 98.720863 264.802763 99.574773 Q 264.717676 99.823957 264.544463 99.939432 Q 263.948853 100.377024 263.596349 100.999983 C 263.474796 101.312982 263.350204 101.556089 263.055438 101.768806 Q 262.487177 102.17297 262.140751 102.74427 Q 261.770014 102.820241 261.54514 103.309492 L 261.004229 103.85952 Q 260.487628 104.072238 260.575754 104.330538 L 256.755949 107.600316 L 254.133441 109.314215 Q 254.121285 109.362836 254.078742 109.371952 L 250.495964 111.189171 L 248.891464 111.644995 Q 248.01932 111.474821 248.909697 112.605265 Q 249.174075 112.933458 249.280433 113.398398 Q 249.268278 113.760019 249.462763 113.70532 Q 249.812228 114.361707 249.775762 115.097103 C 249.739296 115.747412 249.228773 116.333906 248.888425 116.801885 C 248.687862 117.07538 248.712173 117.455233 248.946162 117.704417 L 258.965176 128.361584 Q 259.241709 128.905534 259.788698 129.209417 L 261.694043 131.178577 Q 262.067819 131.79242 262.666468 132.196584 Q 262.81537 132.278632 262.687739 132.248244 L 264.140299 134.171822 L 263.620659 134.609413 L 260.046999 138.310705 L 257.026404 141.519706 Q 256.54627 141.799278 256.272775 142.279413 Q 256.224154 142.367539 256.139067 142.44351 Q 255.63766 142.789936 255.318583 143.285265 L 251.425846 147.454536 Q 250.632712 148.06534 249.979364 148.806814 Q 248.918813 150.013228 248.657474 150.271529 Q 246.952692 151.976311 245.387696 153.81784 Q 245.214483 154.018403 244.725231 153.905966 Q 244.646222 153.76618 244.713076 153.811763 Q 244.49428 153.094599 243.807506 152.763367 L 240.899348 149.630336 Q 239.085168 147.402876 236.912406 145.497531 L 235.128615 143.586109 Q 233.779375 141.875249 232.114098 140.462194 L 227.698682 135.864449 Q 227.428226 135.21414 226.793112 134.819092 Q 226.665481 134.724888 226.58951 134.606374 Q 226.188385 134.278181 226.179268 133.870978 Q 226.17623 133.715998 226.27955 133.6066 L 226.902509 132.935019 Q 227.045334 132.883359 227.100033 132.707107 L 228.680223 130.978014 Q 229.321416 130.628549 229.670881 130.05725 Q 230.986693 128.954155 232.0047 127.528945 Q 232.144486 127.264567 232.381515 127.048811 Q 232.825184 126.936374 232.922426 126.453201 L 233.408639 126.021687 L 235.797157 123.49946 Q 238.179597 120.846564 240.674475 118.242289 Q 240.698785 118.217979 241.090794 117.941445 Q 241.309589 117.786465 241.336939 117.595019 Q 241.36125 117.430922 241.236658 117.224282 C 240.574193 116.127265 240.118369 115.601548 240.255116 114.692939 Q 240.53165 114.477182 240.483028 114.097329 L 241.461531 111.900257 C 241.525346 111.757432 241.428104 111.593335 241.273124 111.578141 L 240.47999 111.499131 L 237.748084 110.356532 Q 237.62957 110.262329 237.508017 110.323105 C 236.240826 109.867281 235.259284 109.107574 234.174423 108.423838 Q 233.925239 108.068295 233.548425 107.946742 Q 232.934581 107.542578 232.378476 107.07156 Q 225.963512 101.632059 221.76993 95.344726 Q 218.059522 89.777594 215.488674 83.788065 C 215.045005 82.757903 214.315687 81.226334 213.853785 79.880134 Q 213.318951 78.318176 212.501507 76.200114 Q 212.185469 75.385708 210.18592 69.271587 Q 210.173765 69.235122 209.982319 68.776259 C 209.860766 68.484531 209.863805 68.192804 209.781756 67.928426 Q 207.457053 60.331358 205.585136 52.740367 Q 205.481816 52.324048 204.779847 49.662035 C 204.387838 48.179087 204.147771 46.848081 203.789189 45.544424 Q 203.327287 43.857875 202.938317 41.888715 C 202.670901 40.536437 202.208999 39.086916 201.993242 37.816686 Q 201.677204 35.947807 201.197069 34.109317 C 200.808099 32.611175 200.552838 30.796995 200.090936 28.976738 Q 199.671578 27.317538 199.297802 25.141738 C 199.051657 23.695256 198.592794 22.118104 198.395271 20.948156 Q 198.073155 19.018501 197.520088 16.137692 Q 196.760381 12.202411 196.037141 7.875121 C 195.949015 7.337248 196.037141 6.94524 196.100956 6.559309 Q 196.125267 6.395212 196.262014 6.328358 C 198.143048 5.413671 197.954641 8.507197 198.109621 9.370224 Q 199.863024 19.255529 202.184688 29.864075 Q 202.631396 31.909206 203.442763 35.81106 Q 203.944169 38.236044 204.980409 42.618033 Q 207.979732 55.277788 209.493068 60.383018 Q 209.529534 60.513687 211.270782 66.506255 Q 211.343714 66.7524 211.696218 67.630621 C 211.908935 68.153299 211.994023 68.724599 212.139886 69.177384 Q 213.446582 73.294995 213.823397 74.285652 Q 214.294415 75.528533 214.789744 76.993248 C 215.093626 77.89274 215.588955 78.889476 215.901955 79.849745 Q 216.084284 80.405851 216.336507 80.992344 Q 218.369482 85.754187 218.977248 86.817776 Q 219.949672 88.519519 220.280905 89.112091 Q 221.672688 91.613046 222.377695 92.749567 Q 223.416974 94.427 224.796602 96.171287 Q 227.060528 99.027784 227.543702 99.596045 Q 229.281911 101.647253 231.864914 103.968917 L 232.433175 104.470324 Q 232.518262 104.822828 232.667165 104.655692 L 235.14077 106.728173 Q 235.177236 106.758561 235.216741 106.716017 L 235.21978 106.712978 Q 235.256246 106.676513 235.210663 106.633969 L 231.892264 103.665035 Q 231.542799 103.485744 231.369585 103.218327 Q 230.810441 102.124349 229.816745 101.443652 Q 228.704534 99.957665 227.555857 98.456485 Q 225.203805 95.390308 224.486642 93.995486 Q 224.091594 93.229702 223.787711 92.731334 Q 223.237684 91.825764 223.073587 91.479337 Q 220.78535 86.644563 219.706566 83.979512 Q 219.591091 83.690823 219.557664 83.389979 Q 219.54247 83.241076 219.46346 83.110407 Q 219.056257 82.444904 218.989403 82.062011 C 218.873928 81.432974 218.606511 81.040966 218.351249 80.30253 Q 216.293963 74.340351 213.796047 64.643453 Q 212.990758 61.519539 212.753729 60.510648 Q 212.732458 60.425561 212.085187 57.821286 Q 211.7418 56.447736 211.337636 54.490732 Q 211.319403 54.414761 211.188733 54.214198 Q 211.106685 54.089606 211.09453 53.937665 Q 211.06718 53.566928 210.878773 52.828493 Q 210.511075 51.397205 208.58142 42.915838 C 208.523682 42.660577 208.389973 42.453937 208.338313 42.180442 Q 207.736626 38.944091 207.472248 37.892657 Q 206.937414 35.762439 206.66392 34.118433 Q 206.597065 33.717308 205.837359 30.34421 Q 205.670223 29.605775 205.563864 28.727554 Q 205.44535 27.77944 205.269098 27.113936 Q 204.649177 24.804428 204.375683 22.780569 Q 204.235897 21.753445 203.609898 18.896947 C 203.193579 16.988564 203.072026 15.195656 202.683056 13.408825 C 202.239387 11.381928 201.956776 8.853623 201.674165 7.015133 C 201.658971 6.899657 201.665049 6.784182 201.698476 6.674784 Q 201.914233 5.954582 202.701289 6.155145 C 203.482267 6.34963 203.582549 7.43753 203.68283 8.0848 Q 203.445801 8.722954 203.810461 9.20005 Q 204.172081 11.463976 204.527624 13.755252 Q 204.66741 14.651706 205.010798 16.341294 Q 205.296447 17.75131 205.466622 18.948608 Q 205.484855 19.088394 205.545631 19.401393 Q 208.201566 32.930252 209.730096 39.737225 Q 211.140112 46.003287 213.786931 57.1649 Q 214.343036 59.516952 214.944724 61.704907 Q 214.999423 61.902431 215.054122 62.206314 Q 215.29115 63.470466 218.120298 73.35881 Q 219.940556 79.716037 222.243987 85.231508 Q 224.052089 89.552721 226.735374 93.949904 Q 230.111511 99.474492 235.547973 104.42778 Q 236.034185 105.1024 236.754387 105.488331 L 237.568793 106.111291 Q 237.745045 106.472911 238.134015 106.646124 Q 238.22518 106.828454 238.364966 106.782871 L 242.357985 109.651524 C 242.561586 109.797388 242.850275 109.706223 242.929284 109.469195 Q 243.366876 108.177693 244.387922 107.17488 Q 245.029114 107.345055 245.132434 106.986473 C 246.241606 107.326822 246.515101 108.019674 247.046895 108.846235 Q 247.068167 108.876623 247.265691 109.368914 C 247.432826 109.785233 247.928155 109.727495 248.256349 109.505661 Q 253.808286 105.746631 258.129499 100.683945 Q 260.694269 97.684623 262.27142 95.265716 Q 263.407942 93.521429 263.872882 92.889353 Q 263.927581 92.81946 263.939736 92.755645 Q 263.948853 92.691829 263.95493 92.652325 Q 263.961008 92.597626 263.985319 92.552043 Q 264.903045 90.938426 265.598936 89.628691 C 265.772149 89.297459 265.835965 88.899373 266.212779 88.455704 C 266.276594 88.379733 266.322177 88.291607 266.355604 88.197404 Q 266.607827 87.425542 266.951214 86.720534 Q 267.431349 85.735954 267.61064 85.264935 Q 268.248793 83.563192 269.051044 81.733818 Q 269.327577 81.095664 269.391392 80.633763 C 269.461285 80.114123 269.749974 79.767697 269.926226 79.178164 Q 270.85003 76.102871 271.831571 73.103549 Q 272.682442 71.137427 272.968092 68.958588 L 278.49268 46.264626 Q 278.808718 46.243354 278.617272 45.641666 C 279.118679 43.35343 279.76291 40.943639 280.218734 38.798227 C 281.349178 33.455969 282.558631 28.104594 283.582716 22.759297 Q 285.007926 15.320248 286.387553 7.884237 Q 286.694475 7.574277 286.633698 6.890541 C 286.879843 5.775291 288.052831 5.842145 288.359752 6.878386 Q 288.508655 7.373714 288.229083 8.096955 C 287.885695 8.981254 287.95255 9.756155 287.779336 10.664764 Q 283.695152 31.802847 282.452272 37.193727 Q 280.10022 47.392031 277.717779 57.581219 C 277.392625 58.973002 276.915529 60.586619 276.532637 62.318751 C 276.277375 63.482621 275.870172 64.655609 275.620988 65.825557 C 275.277601 67.457408 274.815699 68.761064 274.420652 70.344293 Q 272.928587 76.36421 271.296737 80.831286 Q 270.792292 82.207875 270.56438 82.918961 Q 270.105517 84.353287 268.680307 87.465046 Q 268.668152 87.489357 268.330842 88.325035 Q 268.23056 88.568141 267.905406 89.112091 C 267.574174 89.665157 267.455659 90.269884 267.094039 90.804718 C 266.5744 91.573541 266.215818 92.500383 265.869392 93.083838 Q 263.77564 96.575451 261.371927 99.84219 Z M 244.83159 109.918941 Q 243.555283 112.164635 242.415723 114.471105 C 242.011559 115.28551 242.187811 115.704868 242.695295 116.358216 C 243.412458 117.278981 244.41831 118.886521 245.099007 119.138743 Q 245.241832 119.193442 245.345152 119.077967 Q 246.797712 117.403573 247.78533 115.479995 Q 247.867379 114.893502 247.724554 114.465027 L 245.481899 110.159009 Q 245.445433 109.976679 245.342113 109.836893 Q 245.260065 109.733573 245.162822 109.691029 Q 245.044308 109.639369 244.953143 109.709262 Q 244.861979 109.776116 244.83159 109.918941 Z M 241.823151 119.667499 Q 241.461531 119.980498 240.294621 121.281116 Q 239.200643 122.499686 235.21978 126.671996 C 234.174423 127.769013 232.582078 129.64093 231.184217 130.953704 C 230.585568 131.515887 230.181404 132.169235 229.494629 132.597709 Q 228.84432 133.004912 229.607066 133.068728 Q 230.302957 133.126465 231.475944 133.038339 Q 232.220457 133.162931 232.910271 132.971485 Q 233.050057 132.93198 233.132105 132.810427 L 233.542347 132.196584 L 238.450053 126.860403 Q 240.689669 124.736263 242.60413 122.30824 Q 243.081226 122.031707 243.22709 121.603232 L 243.375992 121.47864 Q 243.48539 121.439135 243.524895 121.308466 Q 243.828777 121.235534 243.938175 120.83137 Q 244.126582 120.533565 243.540089 120.333002 Q 243.047799 120.074702 242.686178 119.479092 Q 242.464344 119.117471 242.29417 119.135704 Q 242.048025 119.160015 241.823151 119.667499 Z M 252.826745 127.984769 L 255.236535 130.510035 L 255.586 130.838228 Q 256.057018 131.743799 256.880541 132.403224 Q 256.935239 133.126465 257.336365 133.105193 Q 259.041147 133.001873 260.721618 133.111271 Q 260.931297 133.311834 261.13186 133.074805 Q 261.168326 133.029223 261.128821 132.986679 L 252.623143 124.237895 L 247.973738 119.205597 C 247.843068 119.062773 247.609078 119.099238 247.52703 119.272452 Q 247.156293 120.050391 246.454324 120.4424 C 246.271994 120.54572 246.23249 120.788826 246.375315 120.943807 L 252.826745 127.984769 Z M 235.21978 132.746612 C 235.095188 132.877281 235.186352 133.089999 235.365643 133.089999 L 254.844526 133.123426 C 255.020778 133.123426 255.114982 132.910709 254.993429 132.780039 L 245.27222 122.429793 C 245.190172 122.341667 245.056464 122.341667 244.974415 122.426754 L 235.21978 132.746612 Z M 255.178797 134.888985 C 255.236535 134.828209 255.193991 134.730966 255.108904 134.730966 L 235.14077 134.764393 C 235.058722 134.764393 235.016178 134.864674 235.073916 134.925451 L 245.077735 145.564385 C 245.114201 145.60389 245.178017 145.60389 245.214483 145.561347 L 255.178797 134.888985 Z M 257.445762 134.782626 C 257.415374 134.782626 257.388025 134.794781 257.369792 134.816053 L 246.053199 147.120265 C 246.034966 147.141537 246.025849 147.165847 246.025849 147.190158 L 246.025849 150.301917 C 246.025849 150.396121 246.138286 150.441703 246.20514 150.374849 L 260.89787 134.955839 C 260.961686 134.892024 260.916103 134.782626 260.824938 134.782626 L 257.445762 134.782626 Z M 235.24409 141.188474 Q 235.383876 141.574405 235.772846 141.738502 L 236.140544 142.112278 Q 236.183088 142.318918 236.380612 142.337151 Q 236.477854 142.422238 236.51432 142.49517 Q 236.547747 142.631917 236.687533 142.644072 Q 236.730077 142.729159 236.82428 142.817285 L 238.623266 144.74998 L 244.397038 150.815479 Q 244.503397 150.927915 244.500358 150.772935 L 244.424387 148.141311 Q 244.503397 147.965059 244.351456 147.67637 Q 244.36665 147.466691 244.190398 147.360332 Q 244.163048 147.232702 244.008068 147.129381 Q 243.883476 147.041255 243.932097 147.004789 Q 243.609982 146.512499 242.227315 145.011319 Q 237.60222 139.994215 235.76373 138.210423 L 232.828223 135.047004 Q 232.700592 134.913296 232.518262 134.913296 L 229.613143 134.913296 C 229.497668 134.913296 229.436891 135.053082 229.515901 135.138169 L 235.24409 141.188474 Z" style="fill:#000000;"/>
		<path fill-opacity="0.592" d="M 292.264645 8.44642 Q 292.042811 7.35852 292.53814 6.817609 L 292.264645 8.44642 Z" style="fill:#cab7a6;"/>
		<path fill-opacity="0.592" d="M 286.633698 6.890541 Q 286.694475 7.574277 286.387553 7.884237 Q 286.341971 7.148841 286.633698 6.890541 Z" style="fill:#cab7a6;"/>
		<path fill-opacity="0.592" d="M 203.68283 8.0848 L 203.810461 9.20005 Q 203.445801 8.722954 203.68283 8.0848 Z" style="fill:#cab7a6;"/>
		<path fill-opacity="0.592" d="M 291.927336 10.035727 Q 291.899986 9.631563 292.009384 9.233477 Q 292.167403 9.604214 291.927336 10.035727 Z" style="fill:#cab7a6;"/>
		<path fill-opacity="0.592" d="M 278.49268 46.264626 L 278.617272 45.641666 Q 278.808718 46.243354 278.49268 46.264626 Z" style="fill:#cab7a6;"/>
		<path fill-opacity="0.592" d="M 280.404103 67.068438 Q 278.735786 73.25549 275.779007 80.746199 Q 272.445414 89.194139 267.595446 95.952491 Q 267.607601 95.779278 267.68661 95.660764 Q 270.546147 91.430716 272.858694 86.893747 Q 274.098536 84.465724 275.359649 81.360042 Q 278.20703 74.352507 280.404103 67.068438 Z" style="fill:#cab7a6;"/>
		<path fill-opacity="0.592" d="M 271.831571 73.103549 L 272.968092 68.958588 Q 272.682442 71.137427 271.831571 73.103549 Z" style="fill:#cab7a6;"/>
		<path fill-opacity="0.592" d="M 274.21705 79.68261 Q 274.37203 78.819583 274.882553 78.138885 Q 274.779233 79.017107 274.21705 79.68261 Z" style="fill:#cab7a6;"/>
		<path fill-opacity="0.592" d="M 270.220992 88.282491 Q 270.090323 89.102974 269.452169 89.686429 Q 269.70743 88.917606 270.220992 88.282491 Z" style="fill:#cab7a6;"/>
		<path fill-opacity="0.592" d="M 267.595446 95.952491 L 266.115537 97.930768 L 267.595446 95.952491 Z" style="fill:#cab7a6;"/>
		<path fill-opacity="0.592" d="M 266.015255 98.085748 Q 265.544237 98.939658 264.802763 99.574773 Q 265.27682 98.720863 266.015255 98.085748 Z" style="fill:#cab7a6;"/>
		<path fill-opacity="0.592" d="M 261.371927 99.84219 L 260.390386 100.933129 Q 260.788472 100.307131 261.371927 99.84219 Z" style="fill:#cab7a6;"/>
		<path fill-opacity="0.592" d="M 264.544463 99.939432 Q 264.16461 100.553276 263.596349 100.999983 Q 263.948853 100.377024 264.544463 99.939432 Z" style="fill:#cab7a6;"/>
		<path fill-opacity="0.592" d="M 231.369585 103.218327 L 229.816745 101.443652 Q 230.810441 102.124349 231.369585 103.218327 Z" style="fill:#cab7a6;"/>
		<path fill-opacity="0.592" d="M 262.140751 102.74427 Q 261.870295 103.10589 261.54514 103.309492 Q 261.770014 102.820241 262.140751 102.74427 Z" style="fill:#cab7a6;"/>
		<path d="M 232.667165 104.655692 Q 232.582078 104.482479 232.433175 104.470324 L 231.864914 103.968917 Q 231.922652 103.947646 231.892264 103.665035 L 235.210663 106.633969 Q 235.256246 106.676513 235.21978 106.712978 L 235.216741 106.716017 Q 235.177236 106.758561 235.14077 106.728173 L 232.667165 104.655692 Z" style="fill:#e0b387;"/>
		<path fill-opacity="0.592" d="M 258.162926 103.813937 L 256.090445 105.667622 Q 256.057018 105.69801 256.005358 105.655467 L 256.002319 105.655467 Q 255.956737 105.619001 256.011436 105.570379 L 257.798266 103.920296 L 258.162926 103.813937 Z" style="fill:#cab7a6;"/>
		<path fill-opacity="0.592" d="M 261.004229 103.85952 Q 260.855327 104.120859 260.575754 104.330538 Q 260.487628 104.072238 261.004229 103.85952 Z" style="fill:#cab7a6;"/>
		<path fill-opacity="0.592" d="M 236.754387 105.488331 Q 236.034185 105.1024 235.547973 104.42778 Q 236.240826 104.841061 236.754387 105.488331 Z" style="fill:#cab7a6;"/>
		<path d="M 238.134015 106.646124 Q 237.745045 106.472911 237.568793 106.111291 Q 237.936491 106.299698 238.134015 106.646124 Z" style="fill:#e0b387;"/>
		<path fill-opacity="0.592" d="M 238.364966 106.782871 Q 238.22518 106.828454 238.134015 106.646124 L 238.364966 106.782871 Z" style="fill:#cab7a6;"/>
		<path fill-opacity="0.592" d="M 245.132434 106.986473 Q 245.029114 107.345055 244.387922 107.17488 Q 244.67661 106.925696 245.132434 106.986473 Z" style="fill:#cab7a6;"/>
		<path d="M 256.755949 107.600316 Q 255.567767 108.65175 254.133441 109.314215 L 256.755949 107.600316 Z" style="fill:#e0b387;"/>
		<path d="M 234.174423 108.423838 Q 233.761143 108.287091 233.548425 107.946742 Q 233.925239 108.068295 234.174423 108.423838 Z" style="fill:#e0b387;"/>
		<path d="M 254.078742 109.371952 Q 252.456008 110.617872 250.495964 111.189171 L 254.078742 109.371952 Z" style="fill:#e0b387;"/>
		<path fill-opacity="0.592" d="M 237.748084 110.356532 Q 237.656919 110.380843 237.508017 110.323105 Q 237.62957 110.262329 237.748084 110.356532 Z" style="fill:#cab7a6;"/>
		<path fill-opacity="0.592" d="M 240.47999 111.499131 Q 239.291808 111.225637 238.203908 110.745502 Q 237.896986 110.608755 237.748084 110.356532 L 240.47999 111.499131 Z" style="fill:#cab7a6;"/>
		<path d="M 248.891464 111.644995 Q 248.53896 111.99446 248.909697 112.605265 Q 248.01932 111.474821 248.891464 111.644995 Z" style="fill:#e0b387;"/>
		<path fill-opacity="0.592" d="M 249.462763 113.70532 Q 249.268278 113.760019 249.280433 113.398398 L 249.462763 113.70532 Z" style="fill:#cab7a6;"/>
		<path fill-opacity="0.592" d="M 240.483028 114.097329 Q 240.53165 114.477182 240.255116 114.692939 Q 240.173068 114.22496 240.483028 114.097329 Z" style="fill:#cab7a6;"/>
		<path fill-opacity="0.592" d="M 235.797157 123.49946 L 233.408639 126.021687 L 234.846004 124.456691 L 234.943246 124.344254 L 235.797157 123.49946 Z" style="fill:#cab7a6;"/>
		<path d="M 234.943246 124.344254 L 234.846004 124.456691 Q 234.794344 124.456691 234.943246 124.344254 Z" style="fill:#e0b387;"/>
		<path fill-opacity="0.592" d="M 232.922426 126.453201 Q 232.825184 126.936374 232.381515 127.048811 Q 232.566883 126.693268 232.922426 126.453201 Z" style="fill:#cab7a6;"/>
		<path fill-opacity="0.592" d="M 232.0047 127.528945 Q 230.986693 128.954155 229.670881 130.05725 Q 230.670655 128.662428 232.0047 127.528945 Z" style="fill:#cab7a6;"/>
		<path fill-opacity="0.592" d="M 259.788698 129.209417 Q 259.241709 128.905534 258.965176 128.361584 Q 259.451388 128.717127 259.788698 129.209417 Z" style="fill:#cab7a6;"/>
		<path fill-opacity="0.592" d="M 229.670881 130.05725 Q 229.321416 130.628549 228.680223 130.978014 Q 229.081348 130.364171 229.670881 130.05725 Z" style="fill:#cab7a6;"/>
		<path fill-opacity="0.592" d="M 262.666468 132.196584 Q 262.067819 131.79242 261.694043 131.178577 Q 262.283575 131.588819 262.666468 132.196584 Z" style="fill:#cab7a6;"/>
		<path d="M 264.140299 134.171822 L 262.687739 132.248244 Q 263.429213 132.852971 264.061289 133.454659 Q 264.219308 133.6066 264.255774 133.776774 Q 264.322629 134.095851 264.140299 134.171822 Z" style="fill:#e0b387;"/>
		<path fill-opacity="0.592" d="M 227.100033 132.707107 Q 227.045334 132.883359 226.902509 132.935019 Q 226.896432 132.90767 226.887315 132.883359 Q 226.92682 132.752689 227.100033 132.707107 Z" style="fill:#cab7a6;"/>
		<path d="M 226.887315 132.883359 Q 226.896432 132.90767 226.902509 132.935019 L 226.27955 133.6066 Q 226.17623 133.715998 226.179268 133.870978 Q 226.188385 134.278181 226.58951 134.606374 Q 226.33121 134.618529 226.164074 134.545598 Q 225.9939 134.466588 225.960473 134.217404 Q 225.829803 133.266251 226.887315 132.883359 Z" style="fill:#e0b387;"/>
		<path d="M 263.620659 134.609413 L 260.046999 138.310705 L 263.620659 134.609413 Z" style="fill:#e0b387;"/>
		<path fill-opacity="0.592" d="M 227.698682 135.864449 Q 227.142577 135.423819 226.793112 134.819092 Q 227.428226 135.21414 227.698682 135.864449 Z" style="fill:#cab7a6;"/>
		<path fill-opacity="0.592" d="M 235.128615 143.586109 L 232.114098 140.462194 Q 233.779375 141.875249 235.128615 143.586109 Z" style="fill:#cab7a6;"/>
		<path fill-opacity="0.592" d="M 257.026404 141.519706 Q 256.749871 141.996802 256.272775 142.279413 Q 256.54627 141.799278 257.026404 141.519706 Z" style="fill:#cab7a6;"/>
		<path fill-opacity="0.592" d="M 256.139067 142.44351 Q 255.804796 142.941877 255.318583 143.285265 Q 255.63766 142.789936 256.139067 142.44351 Z" style="fill:#cab7a6;"/>
		<path fill-opacity="0.592" d="M 240.899348 149.630336 L 236.912406 145.497531 Q 239.085168 147.402876 240.899348 149.630336 Z" style="fill:#cab7a6;"/>
		<path d="M 251.425846 147.454536 Q 248.484261 150.642266 245.554831 153.81784 Q 245.120279 154.288858 244.725231 153.905966 Q 245.214483 154.018403 245.387696 153.81784 Q 246.952692 151.976311 248.657474 150.271529 Q 248.918813 150.013228 249.979364 148.806814 Q 250.632712 148.06534 251.425846 147.454536 Z" style="fill:#e0b387;"/>
		<path fill-opacity="0.592" d="M 244.713076 153.811763 L 243.807506 152.763367 Q 244.49428 153.094599 244.713076 153.811763 Z" style="fill:#cab7a6;"/>
		<path fill-opacity="0.592" d="M 245.481899 110.159009 L 245.357307 110.134698 L 245.342113 109.836893 Q 245.445433 109.976679 245.481899 110.159009 Z" style="fill:#cab7a6;"/>
		<path d="M 244.83159 109.918941 Q 244.874134 110.341338 245.214483 110.329183 Q 245.357307 110.326144 245.357307 110.134698 L 245.481899 110.159009 L 247.724554 114.465027 L 247.78533 115.479995 Q 246.797712 117.403573 245.345152 119.077967 Q 245.241832 119.193442 245.099007 119.138743 C 244.41831 118.886521 243.412458 117.278981 242.695295 116.358216 C 242.187811 115.704868 242.011559 115.28551 242.415723 114.471105 Q 243.555283 112.164635 244.83159 109.918941 Z" style="fill:#e0b387;"/>
		<path fill-opacity="0.592" d="M 241.823151 119.667499 L 241.449376 120.28742 Q 241.400754 120.372507 241.485841 120.41809 Q 241.531424 120.4424 241.580045 120.439361 Q 241.64386 120.436322 241.646899 120.503177 L 241.707676 121.521184 Q 241.713754 121.63362 241.783647 121.548533 Q 241.926471 121.378359 242.002442 121.794678 C 242.014597 121.861532 241.999403 121.931426 241.95686 121.986124 L 240.993551 123.289781 Q 240.941891 123.356636 241.014823 123.405257 L 241.3339 123.611897 L 238.450053 126.860403 L 233.542347 132.196584 Q 233.770259 131.752915 234.131879 131.48246 Q 234.268627 131.382178 234.183539 131.233276 L 234.119724 131.123878 Q 234.068064 131.029674 233.97386 131.081334 Q 233.451182 131.363945 233.341784 131.667828 Q 233.238464 131.959556 233.141222 132.123652 Q 233.065251 132.257361 232.91331 132.287749 Q 231.922652 132.482234 231.475944 133.038339 Q 230.302957 133.126465 229.607066 133.068728 Q 228.84432 133.004912 229.494629 132.597709 C 230.181404 132.169235 230.585568 131.515887 231.184217 130.953704 C 232.582078 129.64093 234.174423 127.769013 235.21978 126.671996 Q 239.200643 122.499686 240.294621 121.281116 Q 241.461531 119.980498 241.823151 119.667499 Z" style="fill:#cab7a6;"/>
		<path fill-opacity="0.592" d="M 243.938175 120.83137 Q 243.780156 120.506216 243.540089 120.333002 Q 244.126582 120.533565 243.938175 120.83137 Z" style="fill:#cab7a6;"/>
		<path fill-opacity="0.592" d="M 243.524895 121.308466 Q 243.48539 121.439135 243.375992 121.47864 Q 243.379031 121.344932 243.524895 121.308466 Z" style="fill:#cab7a6;"/>
		<path fill-opacity="0.592" d="M 243.22709 121.603232 Q 243.081226 122.031707 242.60413 122.30824 L 242.154383 122.69721 Q 242.528159 121.964853 243.22709 121.603232 Z" style="fill:#cab7a6;"/>
		<path d="M 242.60413 122.30824 Q 240.689669 124.736263 238.450053 126.860403 L 241.3339 123.611897 Q 241.081677 123.459956 241.616511 123.311053 Q 241.792763 123.165189 241.856578 122.979821 L 242.154383 122.69721 L 242.60413 122.30824 Z" style="fill:#e0b387;"/>
		<path d="M 235.21978 132.746612 L 244.974415 122.426754 C 245.056464 122.341667 245.190172 122.341667 245.27222 122.429793 L 254.993429 132.780039 C 255.114982 132.910709 255.020778 133.123426 254.844526 133.123426 L 235.365643 133.089999 C 235.186352 133.089999 235.095188 132.877281 235.21978 132.746612 Z" style="fill:#e0b387;"/>
		<path fill-opacity="0.592" d="M 241.856578 122.979821 Q 241.792763 123.165189 241.616511 123.311053 Q 241.695521 123.101374 241.856578 122.979821 Z" style="fill:#cab7a6;"/>
		<path d="M 260.721618 133.111271 L 260.733774 132.962369 C 260.74289 132.865126 260.700346 132.773961 260.621337 132.716224 Q 260.192862 132.418418 259.895057 132.008177 C 259.31768 131.218082 258.664332 130.683248 257.89247 129.938735 Q 257.108453 129.185106 256.36394 128.337273 Q 254.531527 126.255677 252.623143 124.237895 L 261.128821 132.986679 Q 261.168326 133.029223 261.13186 133.074805 Q 260.931297 133.311834 260.721618 133.111271 Z" style="fill:#e0b387;"/>
		<path fill-opacity="0.592" d="M 255.236535 130.510035 L 252.826745 127.984769 L 255.236535 130.510035 Z" style="fill:#cab7a6;"/>
		<path fill-opacity="0.592" d="M 256.880541 132.403224 Q 256.057018 131.743799 255.586 130.838228 Q 256.345707 131.48246 256.880541 132.403224 Z" style="fill:#cab7a6;"/>
		<path d="M 255.178797 134.888985 L 245.214483 145.561347 C 245.178017 145.60389 245.114201 145.60389 245.077735 145.564385 L 235.073916 134.925451 C 235.016178 134.864674 235.058722 134.764393 235.14077 134.764393 L 255.108904 134.730966 C 255.193991 134.730966 255.236535 134.828209 255.178797 134.888985 Z" style="fill:#e0b387;"/>
		<path d="M 257.445762 134.782626 L 260.824938 134.782626 C 260.916103 134.782626 260.961686 134.892024 260.89787 134.955839 L 246.20514 150.374849 C 246.138286 150.441703 246.025849 150.396121 246.025849 150.301917 L 246.025849 147.190158 C 246.025849 147.165847 246.034966 147.141537 246.053199 147.120265 L 257.369792 134.816053 C 257.388025 134.794781 257.415374 134.782626 257.445762 134.782626 Z M 259.259942 135.198945 Q 259.044186 135.590954 259.287292 135.843177 Q 259.384534 135.949536 259.506087 135.870526 L 260.359998 135.308343 Q 260.803667 135.016616 260.277949 134.937606 Q 260.046999 134.904179 259.487854 135.028771 Q 259.335913 135.062198 259.259942 135.198945 Z M 258.56709 137.040475 Q 258.606594 137.058708 258.697759 137.016164 Q 258.758536 136.985776 258.761575 136.94931 Q 258.767652 136.824718 258.676487 136.858145 Q 258.615711 136.879417 258.588361 136.906766 Q 258.485041 136.997931 258.56709 137.040475 Z M 246.44381 149.741497 C 246.436091 149.678957 246.366198 149.639453 246.292415 149.649724 C 246.217296 149.660725 246.165635 149.718462 246.173111 149.780515 C 246.18083 149.843054 246.250723 149.882559 246.324505 149.872288 C 246.399625 149.861287 246.451285 149.803549 246.44381 149.741497 Z" style="fill:#e0b387;"/>
		<path d="M 243.932097 147.004789 Q 243.856127 147.026061 243.786234 147.032139 Q 243.634292 147.050372 243.606943 146.898431 Q 243.506662 146.348403 242.977906 146.068831 L 235.76373 138.210423 Q 237.60222 139.994215 242.227315 145.011319 Q 243.609982 146.512499 243.932097 147.004789 Z" style="fill:#e0b387;"/>
		<path fill-opacity="0.592" d="M 237.286182 141.066921 Q 238.045889 140.981834 238.364966 141.76889 Q 238.422704 141.908676 238.553373 141.97553 L 238.842062 142.118355 C 238.890683 142.142666 238.918032 142.191287 238.914994 142.242947 Q 238.911955 142.309801 238.875489 142.358423 Q 238.811673 142.452626 238.729625 142.373617 L 238.589839 142.245986 C 238.571606 142.227753 238.541218 142.239908 238.538179 142.267258 Q 238.532101 142.346267 238.526024 142.3645 Q 238.51083 142.407044 238.556412 142.400966 Q 238.696198 142.373617 238.787363 142.407044 C 238.845101 142.428316 238.851178 142.504286 238.799518 142.531636 Q 238.735703 142.568102 238.632383 142.558985 Q 238.541218 142.549869 238.611111 142.610645 L 239.148983 143.069508 Q 239.319158 143.212333 239.194566 143.026965 L 239.076051 142.844635 Q 238.945382 142.647111 239.155061 142.759548 Q 239.379934 142.88414 239.358662 143.030003 Q 239.285731 143.552682 239.802331 143.646885 Q 240.68663 143.810982 240.47999 144.373165 C 240.397941 144.591961 240.540766 144.832028 240.771717 144.865455 Q 241.504074 144.98093 241.738064 145.704171 Q 241.786685 145.850035 241.9052 145.947278 Q 242.494732 146.421335 242.977906 146.068831 Q 243.506662 146.348403 243.606943 146.898431 Q 243.634292 147.050372 243.786234 147.032139 Q 243.856127 147.026061 243.932097 147.004789 Q 243.883476 147.041255 244.008068 147.129381 Q 243.622137 147.712836 244.308912 148.19601 L 244.387922 150.186442 Q 244.393999 150.341422 244.242058 150.323189 Q 244.163048 150.311034 244.108349 150.262412 C 243.919942 150.089199 243.819661 149.770122 243.521856 149.530055 Q 242.689217 148.864552 241.807957 147.934671 Q 240.99659 147.083799 238.623266 144.74998 L 236.82428 142.817285 L 235.672565 140.185661 Q 235.63306 140.094496 235.730303 140.103613 Q 236.180049 140.13704 236.602446 139.945594 C 236.6693 139.915205 236.74831 139.942555 236.781737 140.009409 L 237.286182 141.066921 Z" style="fill:#cab7a6;"/>
		<path fill-opacity="0.592" d="M 237.286182 141.066921 Q 237.280104 141.036533 237.301376 141.024377 Q 237.301376 141.021339 237.301376 141.024377 Q 237.280104 141.036533 237.286182 141.066921 Z" style="fill:#cab7a6;"/>
		<path fill-opacity="0.592" d="M 235.772846 141.738502 Q 235.383876 141.574405 235.24409 141.188474 Q 235.593555 141.376881 235.772846 141.738502 Z" style="fill:#cab7a6;"/>
		<path fill-opacity="0.592" d="M 236.380612 142.337151 Q 236.183088 142.318918 236.140544 142.112278 Q 236.328952 142.179132 236.380612 142.337151 Z" style="fill:#cab7a6;"/>
		<path fill-opacity="0.592" d="M 236.687533 142.644072 Q 236.547747 142.631917 236.51432 142.49517 Q 236.663223 142.525558 236.687533 142.644072 Z" style="fill:#cab7a6;"/>
		<path d="M 244.308912 148.19601 Q 244.384883 148.183854 244.424387 148.141311 L 244.500358 150.772935 Q 244.503397 150.927915 244.397038 150.815479 L 238.623266 144.74998 Q 240.99659 147.083799 241.807957 147.934671 Q 242.689217 148.864552 243.521856 149.530055 C 243.819661 149.770122 243.919942 150.089199 244.108349 150.262412 Q 244.163048 150.311034 244.242058 150.323189 Q 244.393999 150.341422 244.387922 150.186442 L 244.308912 148.19601 Z" style="fill:#e0b387;"/>
		<path fill-opacity="0.592" d="M 244.351456 147.67637 Q 244.202553 147.606477 244.190398 147.360332 Q 244.36665 147.466691 244.351456 147.67637 Z" style="fill:#cab7a6;"/>
		<path fill-opacity="0.592" d="M 259.259942 135.198945 Q 259.335913 135.062198 259.487854 135.028771 Q 260.046999 134.904179 260.277949 134.937606 Q 260.803667 135.016616 260.359998 135.308343 L 259.506087 135.870526 Q 259.384534 135.949536 259.287292 135.843177 Q 259.044186 135.590954 259.259942 135.198945 Z" style="fill:#cab7a6;"/>
		<path fill-opacity="0.592" d="M 258.588361 136.906766 Q 258.615711 136.879417 258.676487 136.858145 Q 258.767652 136.824718 258.761575 136.94931 Q 258.758536 136.985776 258.697759 137.016164 Q 258.606594 137.058708 258.56709 137.040475 Q 258.485041 136.997931 258.588361 136.906766 Z" style="fill:#cab7a6;"/>
		<path fill-opacity="0.592" d="M 246.44381 149.741497 C 246.451285 149.803549 246.399625 149.861287 246.324505 149.872288 C 246.250723 149.882559 246.18083 149.843054 246.173111 149.780515 C 246.165635 149.718462 246.217296 149.660725 246.292415 149.649724 C 246.366198 149.639453 246.436091 149.678957 246.44381 149.741497 Z" style="fill:#cab7a6;"/>
	</g>
	<g id="surface4">
	</g>
</svg>
