<?xml version="1.0" encoding="utf-8"?>
<svg xmlns="http://www.w3.org/2000/svg" width="490pt" height="280pt" viewBox="0 0 490 280" version="1.1" xmlns:xlink="http://www.w3.org/1999/xlink">
	<g id="surface2">
		<path vector-effect="non-scaling-stroke" d="M 256.618283 13.054736 Q 256.589035 13.102909 256.575271 13.101189" style="fill:none;stroke-width:0.50;stroke:#8ea6ac;"/>
		<path vector-effect="non-scaling-stroke" d="M 256.575271 13.101189 Q 255.377822 12.399236 253.960153 12.371708 Q 253.693479 12.366547 253.727889 12.103314 Q 253.757137 11.884814 253.810471 11.590614 C 253.889613 11.146732 253.774342 11.009094 253.464656 10.659838 Q 251.739022 8.715704 249.970377 6.818023 C 249.380255 6.184889 248.938093 5.503582 248.287755 4.846361 C 247.656341 4.208066 246.55868 3.888058 245.746617 3.63859 C 245.681239 3.617944 245.615861 3.672999 245.626184 3.740097 L 246.314373 8.758716 C 246.328136 8.863665 246.293727 8.968613 246.219747 9.042594 L 238.794187 16.468153 Q 238.715045 16.547295 238.7701 16.647082 C 239.047097 17.14946 239.236348 17.500437 239.086667 18.121527 C 238.947309 18.699606 238.869888 19.792106 239.191616 20.289323 Q 239.601089 20.924177 241.268227 23.516929 Q 241.319841 23.596071 241.299195 23.688977 L 240.998112 25.037827 Q 240.977467 25.123851 240.906927 25.175465 Q 239.862601 25.941075 238.740852 26.911422 C 238.288368 27.303689 237.82212 27.554878 237.188986 27.954028 C 236.736502 28.239626 236.301222 28.717918 235.862502 29.005237 C 235.78164 29.058571 235.774758 29.175564 235.850459 29.237501 C 236.395848 29.683103 236.645317 29.932571 236.841451 30.646568 Q 237.187266 31.900792 237.290494 32.36704 Q 237.309419 32.446182 237.244041 32.496076 Q 233.971703 34.973556 230.522155 36.957261 Q 230.446454 37.000273 230.449895 37.089737 L 230.530757 39.006344 Q 230.534198 39.078604 230.4671 39.109572 Q 228.092848 40.176265 227.77284 40.343151 Q 223.318536 42.648584 218.821221 44.867994 Q 216.81343 45.858986 215.743296 46.409537 Q 206.705654 51.065136 197.655968 55.693207 Q 195.815062 56.636026 192.962519 58.308325 Q 192.788751 58.409833 192.408527 58.729841 Q 192.386161 58.748766 192.358633 58.72468 L 192.356913 58.722959 Q 192.336267 58.704034 192.360353 58.678227 C 194.951385 55.85149 197.723066 53.129703 200.837122 50.879325 Q 204.639366 48.13001 206.776193 46.574702 Q 207.282012 46.206521 207.452339 45.884793 Q 207.839445 45.150151 208.219669 44.363895 C 208.448492 43.892486 208.118162 43.462368 207.885898 42.980635 Q 207.846327 42.898053 207.915146 42.837836 C 208.646347 42.199541 209.355181 41.167257 210.284236 40.491111 Q 210.285957 40.489391 212.001268 39.457107 Q 212.114819 39.388289 212.360847 39.131938" style="fill:none;stroke-width:0.50;stroke:#617983;"/>
		<path vector-effect="non-scaling-stroke" d="M 212.360847 39.131938 Q 212.452032 39.111293 212.544937 39.087206 Q 212.644725 39.063119 212.718705 39.013226 Q 214.537245 37.776206 216.082229 36.22434 Q 216.871926 35.429481 218.167442 33.688363 Q 219.261662 32.217359 220.41782 30.775603" style="fill:none;stroke-width:0.50;stroke:#8ea6ac;"/>
		<path vector-effect="non-scaling-stroke" d="M 220.41782 30.775603 L 226.246781 23.92124" style="fill:none;stroke-width:0.50;stroke:#617983;"/>
		<path vector-effect="non-scaling-stroke" d="M 226.246781 23.92124 Q 227.148308 22.86487 227.702301 21.688067 Q 227.962092 21.135795 228.892868 19.093594 C 229.021903 18.807996 229.051151 18.467342 228.858458 18.186905 Q 228.645119 17.8755 228.304466 17.589901" style="fill:none;stroke-width:0.50;stroke:#8ea6ac;"/>
		<path vector-effect="non-scaling-stroke" d="M 256.575271 13.101189 Q 257.710783 14.202291 258.677688 15.468559 Q 258.727582 15.533937 258.782637 15.492645" style="fill:none;stroke-width:0.50;stroke:#315b6f;"/>
		<path vector-effect="non-scaling-stroke" d="M 258.805003 15.549421 L 263.104464 20.674709" style="fill:none;stroke-width:0.50;stroke:#29556c;"/>
		<path vector-effect="non-scaling-stroke" d="M 263.144035 20.700516 Q 264.049004 21.956461 265.12946 23.043799" style="fill:none;stroke-width:0.50;stroke:#29556c;"/>
		<path vector-effect="non-scaling-stroke" d="M 266.368201 24.495878 L 267.409086 25.681284" style="fill:none;stroke-width:0.50;stroke:#29556c;"/>
		<path vector-effect="non-scaling-stroke" d="M 267.591457 25.875697 L 268.9145 27.34326" style="fill:none;stroke-width:0.50;stroke:#29556c;"/>
		<path vector-effect="non-scaling-stroke" d="M 269.330854 27.806067 Q 269.895169 28.61813 270.638413 29.259867" style="fill:none;stroke-width:0.50;stroke:#29556c;"/>
		<path vector-effect="non-scaling-stroke" d="M 273.546012 32.449623 Q 274.63163 33.739977 276.346941 34.496985 Q 276.491461 34.560643 276.629099 34.534836" style="fill:none;stroke-width:0.50;stroke:#29556c;"/>
		<path vector-effect="non-scaling-stroke" d="M 276.775339 34.667312 L 276.125 35.384749 Q 276.08715 35.427761 276.126721 35.467332 L 276.162851 35.503462 Q 276.183496 35.524107 276.204142 35.501741 Q 276.770178 34.872048 277.343095 35.448406 Q 278.506134 36.616607 280.613713 38.982257 Q 280.728985 39.109572 281.162544 39.53797 C 281.198674 39.572379 281.198674 39.630875 281.162544 39.665285 C 280.482957 40.327667 279.732831 40.993489 279.239056 41.697163 Q 278.287634 43.052895 277.549552 44.732076 C 277.528906 44.776809 277.552993 44.830143 277.601166 44.843907 L 278.826142 45.220691 C 278.92593 45.251659 278.974103 45.36349 278.929371 45.458116 C 278.096662 47.176868 276.978355 48.573892 275.768863 50.151565 Q 275.639827 50.318451 275.815315 50.199738 Q 282.108804 45.934687 289.014781 42.497182 C 289.069836 42.469655 289.104245 42.4146 289.104245 42.352663 C 289.105966 41.68856 289.142096 40.99693 288.871981 40.458423 Q 288.839292 40.393045 288.460789 39.646359 Q 288.419497 39.563777 288.484875 39.496678 Q 289.737379 38.197722 291.504304 36.504777 C 292.28884 35.75293 292.103029 34.748174 291.712482 33.856969 Q 291.683234 33.789871 291.709041 33.719332 Q 291.721084 33.688363 291.734848 33.660835" style="fill:none;stroke-width:0.50;stroke:#617983;"/>
		<path vector-effect="non-scaling-stroke" d="M 291.734848 33.660835 C 291.81399 33.67632 291.882808 33.672879 291.951627 33.721052 Q 292.756808 34.299131 293.544785 34.899576 Q 293.570592 34.920221 294.174478 35.441525 Q 294.492765 35.7168 294.866108 35.918095" style="fill:none;stroke-width:0.50;stroke:#315b6f;"/>
		<path vector-effect="non-scaling-stroke" d="M 297.510474 38.5573 L 299.076104 40.284655" style="fill:none;stroke-width:0.50;stroke:#29556c;"/>
		<path vector-effect="non-scaling-stroke" d="M 300.834427 42.350942 Q 301.453797 43.267954 302.289947 44.035285" style="fill:none;stroke-width:0.50;stroke:#29556c;"/>
		<path vector-effect="non-scaling-stroke" d="M 302.322636 44.057651 L 303.674927 45.58199" style="fill:none;stroke-width:0.50;stroke:#29556c;"/>
		<path vector-effect="non-scaling-stroke" d="M 303.733423 45.666293 L 304.746782 46.839655" style="fill:none;stroke-width:0.50;stroke:#29556c;"/>
		<path vector-effect="non-scaling-stroke" d="M 304.781191 46.855139 Q 304.834526 47.096006 305.06679 47.154502" style="fill:none;stroke-width:0.50;stroke:#29556c;"/>
		<path vector-effect="non-scaling-stroke" d="M 307.494376 49.91586 L 309.010113 51.650096" style="fill:none;stroke-width:0.50;stroke:#29556c;"/>
		<path vector-effect="non-scaling-stroke" d="M 309.025597 51.675904 L 310.205841 52.985183" style="fill:none;stroke-width:0.50;stroke:#29556c;"/>
		<path vector-effect="non-scaling-stroke" d="M 313.156451 56.173219 Q 313.534955 56.794309 314.13368 57.220987" style="fill:none;stroke-width:0.50;stroke:#29556c;"/>
		<path vector-effect="non-scaling-stroke" d="M 315.943617 59.080817 Q 316.370294 59.652014 316.867511 60.168156 Q 320.483944 63.910184 324.308555 67.437153 Q 324.828137 67.917164 325.395893 68.324916" style="fill:none;stroke-width:0.50;stroke:#315b6f;"/>
		<path vector-effect="non-scaling-stroke" d="M 325.395893 68.324916 L 326.18559 69.164507" style="fill:none;stroke-width:0.50;stroke:#29556c;"/>
		<path vector-effect="non-scaling-stroke" d="M 324.289629 106.381769 Q 324.014354 106.727584 324.196724 106.928879" style="fill:none;stroke-width:0.50;stroke:#29556c;"/>
		<path vector-effect="non-scaling-stroke" d="M 323.936932 108.358592 Q 323.699507 108.614942 323.837145 108.902261" style="fill:none;stroke-width:0.50;stroke:#29556c;"/>
		<path vector-effect="non-scaling-stroke" d="M 323.799295 109.18786 L 323.074976 111.913088 C 323.056051 111.985348 322.973468 112.021478 322.90809 111.987069 C 322.350657 111.687706 321.726125 111.513939 321.12568 111.235222 Q 316.351369 109.012372 312.036424 106.378328 C 309.684538 104.941734 308.027723 103.971387 305.944231 102.870285 Q 298.487703 98.932123 290.318899 97.166918 Q 288.932198 96.867556 286.933009 96.609485 Q 283.578087 96.175926 280.887268 96.193131 C 274.95852 96.230981 268.783744 97.332083 262.922094 98.856422 Q 262.197775 99.045674 261.165492 99.451706" style="fill:none;stroke-width:0.50;stroke:#315b6f;"/>
		<path vector-effect="non-scaling-stroke" d="M 261.165492 99.451706 Q 253.703802 95.914414 246.59481 93.099721 C 238.955911 90.07341 230.988403 87.841957 222.841966 86.329662 Q 212.729028 84.450906 202.423397 85.001457 Q 188.475526 85.744701 175.888549 91.649363 Q 169.677643 94.562123 164.258155 98.042639" style="fill:none;stroke-width:0.50;stroke:#808d8f;"/>
		<path vector-effect="non-scaling-stroke" d="M 164.258155 98.042639 L 164.074064 96.538946" style="fill:none;stroke-width:0.50;stroke:#29556c;"/>
		<path vector-effect="non-scaling-stroke" d="M 164.600529 61.544534 Q 165.490013 60.988821 166.398423 60.512251 C 166.948974 60.224932 167.177797 59.985786 167.527053 59.540184 Q 167.9176 59.042967 168.703856 58.561235 Q 168.946443 58.413274 168.986013 58.292841 C 169.48323 56.825278 170.966277 55.803317 172.370183 55.26653 Q 174.085494 54.61103 175.379289 54.552534 C 176.050274 54.521565 176.786636 54.304786 177.526439 54.278978 Q 177.615904 54.277258 177.652034 54.192955 Q 177.679561 54.131018 177.6744 54.057038" style="fill:none;stroke-width:0.50;stroke:#5b7782;"/>
		<path vector-effect="non-scaling-stroke" d="M 177.578053 53.587349 Q 177.648593 53.429065 177.578053 53.150348" style="fill:none;stroke-width:0.50;stroke:#29556c;"/>
		<path vector-effect="non-scaling-stroke" d="M 177.949675 52.386459 Q 178.51399 52.778726 179.145404 52.962817" style="fill:none;stroke-width:0.50;stroke:#29556c;"/>
		<path vector-effect="non-scaling-stroke" d="M 181.122227 51.00836 Q 181.225455 51.115029 181.335565 50.894809" style="fill:none;stroke-width:0.50;stroke:#29556c;"/>
		<path vector-effect="non-scaling-stroke" d="M 182.455593 50.487057 Q 183.597987 50.301246 184.112408 49.631982 Q 184.516719 49.108958 184.77307 48.923147 Q 185.094798 48.689163 185.671156 48.666797 C 186.209664 48.646151 187.075062 48.542923 187.763251 48.544643 Q 188.554668 48.546364 190.63644 48.529159 C 191.740983 48.520557 194.075665 48.006136 194.877405 46.975573 Q 196.052488 45.466718 196.430992 45.091655 Q 197.788444 43.744525 199.305901 42.180616 Q 200.966157 40.470466 201.785102 39.799482 Q 204.040642 37.951694 206.958563 36.743922 Q 207.999449 36.312084 209.921217 35.615292 Q 210.638654 35.35378 210.888122 34.903017 Q 211.479965 33.834603 212.44687 32.489194 Q 212.785804 32.021225 213.110973 31.900792 Q 213.623674 31.713261 214.043469 31.788961 Q 214.77467 31.921438 215.526516 31.668528 Q 215.968678 31.520568 216.163091 31.222926 Q 216.853001 30.169997 217.443123 28.401351 C 217.54291 28.103709 217.685709 27.840477 217.973028 27.74413 Q 219.167036 27.34154 220.31115 26.90626 Q 220.698257 26.7583 221.028588 26.374634 Q 221.768391 25.517839 222.864332 24.413296 C 223.523273 23.747473 223.98608 23.023154 224.498781 22.324642 C 224.571041 22.226575 224.71384 22.219693 224.794702 22.309158 L 226.246781 23.92124" style="fill:none;stroke-width:0.50;stroke:#315b6f;"/>
		<path vector-effect="non-scaling-stroke" d="M 220.41782 30.775603 C 219.445753 31.01991 218.678422 31.179914 217.517103 31.365725 Q 216.200942 31.575623 214.910587 31.988536 C 214.860693 32.00402 214.836607 32.062516 214.860693 32.108969 C 215.110162 32.599304 215.273607 33.025981 215.108441 33.612662 Q 214.643914 35.257434 214.138095 36.08154 Q 213.417217 37.254903 212.686016 38.416222 Q 212.474398 38.749993 212.360847 39.131938" style="fill:none;stroke-width:0.50;stroke:#315b6f;"/>
		<path vector-effect="non-scaling-stroke" d="M 291.719364 33.564489 L 291.734848 33.660835" style="fill:none;stroke-width:0.50;stroke:#8ea6ac;"/>
		<path vector-effect="non-scaling-stroke" d="M 261.165492 99.451706 C 262.405952 100.12269 263.673941 100.647434 264.387937 100.964001 Q 265.623236 101.514552 266.903268 102.149407 C 270.95498 104.157198 275.646709 106.411017 280.293705 108.226116 C 286.258584 110.557356 290.485785 112.217612 295.769356 113.428825 C 296.789596 113.662809 297.887258 113.674852 298.917821 113.857222 Q 302.365648 114.469711 304.9584 114.872301 Q 313.390436 116.181581 321.746771 115.787593 Q 322.07022 115.772108 322.233665 115.386722" style="fill:none;stroke-width:0.50;stroke:#adb9b8;"/>
		<path vector-effect="non-scaling-stroke" d="M 320.843523 119.355853 L 316.750519 120.357168" style="fill:none;stroke-width:0.50;stroke:#adb9b8;"/>
		<path vector-effect="non-scaling-stroke" d="M 316.750519 120.357168 Q 310.145625 121.623435 303.069321 121.792042 Q 294.174478 122.00366 285.833627 120.491364 Q 274.980886 118.523144 263.737598 114.671006 Q 259.329747 113.160431 256.315479 111.744482 C 247.881723 107.782234 244.203353 105.934446 237.536522 103.309005 C 236.708974 102.983836 235.391092 102.567481 234.355368 102.094352" style="fill:none;stroke-width:0.50;stroke:#a5b4b4;"/>
		<path vector-effect="non-scaling-stroke" d="M 234.355368 102.094352 Q 234.030199 101.913702 233.713632 101.745096 Q 233.391903 101.573048 233.054691 101.444013 C 232.455966 101.21519 231.953588 100.857332 231.356584 100.592379 Q 229.039108 99.561816 226.363773 98.281784 Q 221.214399 95.816347 215.622863 94.178457 Q 208.505268 92.093245 200.585933 91.733666 Q 190.760314 91.288063 181.616002 94.047701 Q 176.750506 95.515264 172.512982 97.652091 Q 168.487076 99.683969 164.573001 102.109836" style="fill:none;stroke-width:0.50;stroke:#d7d6cb;"/>
		<path vector-effect="non-scaling-stroke" d="M 164.196218 98.052961 Q 164.382029 97.97554 164.258155 98.042639" style="fill:none;stroke-width:0.50;stroke:#a5b4b4;"/>
		<path vector-effect="non-scaling-stroke" d="M 234.355368 102.094352 Q 232.941139 101.703804 228.904911 100.428934 Q 225.033848 99.205678 219.669414 98.400497 Q 209.96767 96.944977 200.369153 98.753194 C 194.961708 99.773434 189.832979 101.50767 184.394566 103.678907 C 180.747164 105.136147 178.968195 106.115096 174.708305 108.308698 Q 170.630785 110.407675 166.333045 111.878679" style="fill:none;stroke-width:0.50;stroke:#7f9ea8;"/>
		<path vector-effect="non-scaling-stroke" d="M 316.750519 120.357168 Q 317.058483 120.770081 316.884715 121.265577 Q 316.855467 121.34816 316.774605 121.382569 Q 314.31777 122.40625 311.91255 123.101321 Q 308.087939 124.204144 304.096443 125.005884 Q 295.898391 126.648936 287.987659 127.104861 Q 284.672308 127.295833 284.458969 127.309597 Q 282.724733 127.416266 278.585276 127.220133 Q 272.281465 126.922491 265.89163 125.768054 Q 264.229653 125.468692 262.528106 125.045455 Q 257.820893 123.877254 255.272873 123.046266 Q 250.369526 121.446227 246.81503 119.971782 C 243.212361 118.480132 241.557266 117.795384 238.592892 116.518793 Q 234.315797 114.676167 229.99397 113.144947 C 223.826076 110.959947 217.480973 109.58873 211.053288 109.18786 Q 203.45224 108.713009 195.758287 110.283801 Q 191.195594 111.214576 188.226058 112.157395 Q 178.797868 115.144136 168.986013 120.179959" style="fill:none;stroke-width:0.50;stroke:#558295;"/>
		<path vector-effect="non-scaling-stroke" d="M 320.064149 121.134821 Q 317.622798 121.805805 315.353495 122.636794 Q 312.707408 123.60542 312.113845 123.798113 Q 310.119817 124.44329 308.339128 124.895774 Q 299.428801 127.165077 289.470706 128.01327 Q 288.132178 128.126822 286.036643 128.19392 C 280.689414 128.360806 275.50391 128.259298 270.471528 127.581432 Q 261.642062 126.390865 252.939912 123.362833 Q 248.143235 121.693975 245.003372 120.382975 Q 241.786089 119.041006 236.991132 117.002246 Q 231.674872 114.739825 226.219253 113.043439 Q 224.655344 112.556545 222.905623 112.140191 Q 218.339489 111.049411 214.203473 110.552195 Q 206.600705 109.636903 198.879224 110.808545 Q 194.182334 111.520821 190.503964 112.541061 Q 185.265125 113.99314 179.842195 116.203947 Q 173.667419 118.720998 171.508226 119.787691 C 170.859608 120.107699 170.340025 120.494805 169.755065 120.763199 C 169.613986 120.826857 169.541726 120.986861 169.589899 121.134821 Q 169.672482 121.391172 169.546888 121.528809" style="fill:none;stroke-width:0.50;stroke:#558295;"/>
		<path vector-effect="non-scaling-stroke" d="M 308.967101 137.44146 Q 308.519778 137.412212 308.112026 137.511999 Q 304.59538 138.365354 301.553585 139.065586 Q 296.448943 140.240669 288.875422 141.188649 Q 285.962662 141.553389 282.982804 141.66522 Q 277.785256 141.861354 272.787284 141.642854 Q 270.924012 141.561992 269.35322 141.396826 Q 264.078252 140.839393 259.524161 139.779582 Q 251.178148 137.838889 242.33664 134.231058 Q 239.289683 132.987157 235.790242 131.466259 C 228.765553 128.414141 221.377843 126.151719 213.855937 124.644585 C 206.745224 123.221754 199.22848 122.683246 192.045507 123.366274 Q 182.293869 124.291888 172.817506 126.970664 C 172.65062 127.017117 172.573199 127.20981 172.659222 127.359491 C 173.132352 128.185318 173.612364 128.868345 174.231734 129.857617 Q 174.594754 130.437416 175.014549 130.920869 Q 175.177994 131.110121 175.396494 131.662393" style="fill:none;stroke-width:0.50;stroke:#29556c;"/>
		<path d="M 256.618283 13.054736 Q 256.589035 13.102909 256.575271 13.101189 Q 255.377822 12.399236 253.960153 12.371708 Q 253.693479 12.366547 253.727889 12.103314 Q 253.757137 11.884814 253.810471 11.590614 C 253.889613 11.146732 253.774342 11.009094 253.464656 10.659838 Q 251.739022 8.715704 249.970377 6.818023 C 249.380255 6.184889 248.938093 5.503582 248.287755 4.846361 C 247.656341 4.208066 246.55868 3.888058 245.746617 3.63859 C 245.681239 3.617944 245.615861 3.672999 245.626184 3.740097 L 246.314373 8.758716 C 246.328136 8.863665 246.293727 8.968613 246.219747 9.042594 L 238.794187 16.468153 Q 238.715045 16.547295 238.7701 16.647082 C 239.047097 17.14946 239.236348 17.500437 239.086667 18.121527 C 238.947309 18.699606 238.869888 19.792106 239.191616 20.289323 Q 239.601089 20.924177 241.268227 23.516929 Q 241.319841 23.596071 241.299195 23.688977 L 240.998112 25.037827 Q 240.977467 25.123851 240.906927 25.175465 Q 239.862601 25.941075 238.740852 26.911422 C 238.288368 27.303689 237.82212 27.554878 237.188986 27.954028 C 236.736502 28.239626 236.301222 28.717918 235.862502 29.005237 C 235.78164 29.058571 235.774758 29.175564 235.850459 29.237501 C 236.395848 29.683103 236.645317 29.932571 236.841451 30.646568 Q 237.187266 31.900792 237.290494 32.36704 Q 237.309419 32.446182 237.244041 32.496076 Q 233.971703 34.973556 230.522155 36.957261 Q 230.446454 37.000273 230.449895 37.089737 L 230.530757 39.006344 Q 230.534198 39.078604 230.4671 39.109572 Q 228.092848 40.176265 227.77284 40.343151 Q 223.318536 42.648584 218.821221 44.867994 Q 216.81343 45.858986 215.743296 46.409537 Q 206.705654 51.065136 197.655968 55.693207 Q 195.815062 56.636026 192.962519 58.308325 Q 192.788751 58.409833 192.408527 58.729841 Q 192.386161 58.748766 192.358633 58.72468 L 192.356913 58.722959 Q 192.336267 58.704034 192.360353 58.678227 C 194.951385 55.85149 197.723066 53.129703 200.837122 50.879325 Q 204.639366 48.13001 206.776193 46.574702 Q 207.282012 46.206521 207.452339 45.884793 Q 207.839445 45.150151 208.219669 44.363895 C 208.448492 43.892486 208.118162 43.462368 207.885898 42.980635 Q 207.846327 42.898053 207.915146 42.837836 C 208.646347 42.199541 209.355181 41.167257 210.284236 40.491111 Q 210.285957 40.489391 212.001268 39.457107 Q 212.114819 39.388289 212.360847 39.131938 Q 212.452032 39.111293 212.544937 39.087206 Q 212.644725 39.063119 212.718705 39.013226 Q 214.537245 37.776206 216.082229 36.22434 Q 216.871926 35.429481 218.167442 33.688363 Q 219.261662 32.217359 220.41782 30.775603 L 226.246781 23.92124 Q 227.148308 22.86487 227.702301 21.688067 Q 227.962092 21.135795 228.892868 19.093594 C 229.021903 18.807996 229.051151 18.467342 228.858458 18.186905 Q 228.645119 17.8755 228.304466 17.589901 Q 228.5006 17.521083 228.57458 17.447102 C 229.713533 16.315031 231.04862 15.139949 232.443923 14.164441 Q 234.811293 12.511066 235.969171 11.72309 C 239.038494 9.637877 241.46436 7.031361 244.077758 4.347424 Q 244.297979 4.122042 244.910467 3.67644 C 245.187463 3.476865 245.428329 3.368475 245.787908 3.49579 C 246.875247 3.879456 247.816345 4.1857 248.545825 5.02529 Q 249.755318 6.417153 250.837495 7.612881 Q 253.717566 10.795755 253.793267 10.890381 C 254.264676 11.471901 254.455649 12.019011 255.348574 12.383751 Q 256.02472 12.659027 256.618283 13.054736 Z" style="fill:#bec4bf;"/>
		<path d="M 256.575271 13.101189 Q 257.710783 14.202291 258.677688 15.468559 Q 258.727582 15.533937 258.782637 15.492645 Q 258.763712 15.497807 258.805003 15.549421 L 263.104464 20.674709 Q 263.142315 20.683311 263.144035 20.700516 Q 264.049004 21.956461 265.12946 23.043799 L 266.368201 24.495878 L 267.409086 25.681284 Q 267.557047 25.724296 267.591457 25.875697 L 268.9145 27.34326 Q 269.179453 27.529071 269.330854 27.806067 Q 269.895169 28.61813 270.638413 29.259867 L 273.546012 32.449623 Q 274.63163 33.739977 276.346941 34.496985 Q 276.491461 34.560643 276.629099 34.534836 Q 276.763296 34.598493 276.775339 34.667312 L 276.125 35.384749 Q 276.08715 35.427761 276.126721 35.467332 L 276.162851 35.503462 Q 276.183496 35.524107 276.204142 35.501741 Q 276.770178 34.872048 277.343095 35.448406 Q 278.506134 36.616607 280.613713 38.982257 Q 280.728985 39.109572 281.162544 39.53797 C 281.198674 39.572379 281.198674 39.630875 281.162544 39.665285 C 280.482957 40.327667 279.732831 40.993489 279.239056 41.697163 Q 278.287634 43.052895 277.549552 44.732076 C 277.528906 44.776809 277.552993 44.830143 277.601166 44.843907 L 278.826142 45.220691 C 278.92593 45.251659 278.974103 45.36349 278.929371 45.458116 C 278.096662 47.176868 276.978355 48.573892 275.768863 50.151565 Q 275.639827 50.318451 275.815315 50.199738 Q 282.108804 45.934687 289.014781 42.497182 C 289.069836 42.469655 289.104245 42.4146 289.104245 42.352663 C 289.105966 41.68856 289.142096 40.99693 288.871981 40.458423 Q 288.839292 40.393045 288.460789 39.646359 Q 288.419497 39.563777 288.484875 39.496678 Q 289.737379 38.197722 291.504304 36.504777 C 292.28884 35.75293 292.103029 34.748174 291.712482 33.856969 Q 291.683234 33.789871 291.709041 33.719332 Q 291.721084 33.688363 291.734848 33.660835 C 291.81399 33.67632 291.882808 33.672879 291.951627 33.721052 Q 292.756808 34.299131 293.544785 34.899576 Q 293.570592 34.920221 294.174478 35.441525 Q 294.492765 35.7168 294.866108 35.918095 Q 296.264852 37.143072 297.510474 38.5573 L 299.076104 40.284655 L 300.834427 42.350942 Q 301.453797 43.267954 302.289947 44.035285 Q 302.322636 44.033564 302.322636 44.057651 L 303.674927 45.58199 Q 303.747187 45.611238 303.733423 45.666293 L 304.746782 46.839655 Q 304.770868 46.825891 304.781191 46.855139 Q 304.834526 47.096006 305.06679 47.154502 L 307.494376 49.91586 L 309.010113 51.650096 Q 309.03764 51.646655 309.025597 51.675904 L 310.205841 52.985183 Q 310.214443 52.985183 310.223046 52.985183 Q 310.240251 52.985183 310.252294 52.997226 L 313.156451 56.173219 Q 313.534955 56.794309 314.13368 57.220987 L 315.943617 59.080817 Q 316.370294 59.652014 316.867511 60.168156 Q 320.483944 63.910184 324.308555 67.437153 Q 324.828137 67.917164 325.395893 68.324916 L 326.18559 69.164507 Q 326.264732 69.580861 326.264732 70.091842 Q 326.268173 75.574988 326.216559 81.059854 Q 326.18559 84.382087 325.760633 92.385725 C 325.666007 94.185339 325.502562 95.79054 325.333956 97.961776 Q 325.099972 100.95884 324.513291 105.163675 C 324.458236 105.555942 324.346405 105.972297 324.289629 106.381769 Q 324.014354 106.727584 324.196724 106.928879 L 323.936932 108.358592 Q 323.699507 108.614942 323.837145 108.902261 Q 323.849188 109.053663 323.799295 109.18786 L 323.074976 111.913088 C 323.056051 111.985348 322.973468 112.021478 322.90809 111.987069 C 322.350657 111.687706 321.726125 111.513939 321.12568 111.235222 Q 316.351369 109.012372 312.036424 106.378328 C 309.684538 104.941734 308.027723 103.971387 305.944231 102.870285 Q 298.487703 98.932123 290.318899 97.166918 Q 288.932198 96.867556 286.933009 96.609485 Q 283.578087 96.175926 280.887268 96.193131 C 274.95852 96.230981 268.783744 97.332083 262.922094 98.856422 Q 262.197775 99.045674 261.165492 99.451706 Q 253.703802 95.914414 246.59481 93.099721 C 238.955911 90.07341 230.988403 87.841957 222.841966 86.329662 Q 212.729028 84.450906 202.423397 85.001457 Q 188.475526 85.744701 175.888549 91.649363 Q 169.677643 94.562123 164.258155 98.042639 L 164.074064 96.538946 Q 163.625021 89.675981 163.552761 85.404047 Q 163.473619 80.815547 163.51319 63.455979 Q 163.514911 62.934676 163.712765 62.578538 Q 164.051698 61.971211 164.600529 61.544534 Q 165.490013 60.988821 166.398423 60.512251 C 166.948974 60.224932 167.177797 59.985786 167.527053 59.540184 Q 167.9176 59.042967 168.703856 58.561235 Q 168.946443 58.413274 168.986013 58.292841 C 169.48323 56.825278 170.966277 55.803317 172.370183 55.26653 Q 174.085494 54.61103 175.379289 54.552534 C 176.050274 54.521565 176.786636 54.304786 177.526439 54.278978 Q 177.615904 54.277258 177.652034 54.192955 Q 177.679561 54.131018 177.6744 54.057038 L 177.578053 53.587349 Q 177.648593 53.429065 177.578053 53.150348 L 177.411168 52.439793 C 177.390522 52.346888 177.464502 52.260864 177.559128 52.266026 Q 177.755262 52.276348 177.949675 52.386459 Q 178.51399 52.778726 179.145404 52.962817 L 179.295085 52.947333 Q 179.382829 52.93701 179.441325 52.871632 L 181.122227 51.00836 Q 181.225455 51.115029 181.335565 50.894809 L 182.455593 50.487057 Q 183.597987 50.301246 184.112408 49.631982 Q 184.516719 49.108958 184.77307 48.923147 Q 185.094798 48.689163 185.671156 48.666797 C 186.209664 48.646151 187.075062 48.542923 187.763251 48.544643 Q 188.554668 48.546364 190.63644 48.529159 C 191.740983 48.520557 194.075665 48.006136 194.877405 46.975573 Q 196.052488 45.466718 196.430992 45.091655 Q 197.788444 43.744525 199.305901 42.180616 Q 200.966157 40.470466 201.785102 39.799482 Q 204.040642 37.951694 206.958563 36.743922 Q 207.999449 36.312084 209.921217 35.615292 Q 210.638654 35.35378 210.888122 34.903017 Q 211.479965 33.834603 212.44687 32.489194 Q 212.785804 32.021225 213.110973 31.900792 Q 213.623674 31.713261 214.043469 31.788961 Q 214.77467 31.921438 215.526516 31.668528 Q 215.968678 31.520568 216.163091 31.222926 Q 216.853001 30.169997 217.443123 28.401351 C 217.54291 28.103709 217.685709 27.840477 217.973028 27.74413 Q 219.167036 27.34154 220.31115 26.90626 Q 220.698257 26.7583 221.028588 26.374634 Q 221.768391 25.517839 222.864332 24.413296 C 223.523273 23.747473 223.98608 23.023154 224.498781 22.324642 C 224.571041 22.226575 224.71384 22.219693 224.794702 22.309158 L 226.246781 23.92124 L 220.41782 30.775603 C 219.445753 31.01991 218.678422 31.179914 217.517103 31.365725 Q 216.200942 31.575623 214.910587 31.988536 C 214.860693 32.00402 214.836607 32.062516 214.860693 32.108969 C 215.110162 32.599304 215.273607 33.025981 215.108441 33.612662 Q 214.643914 35.257434 214.138095 36.08154 Q 213.417217 37.254903 212.686016 38.416222 Q 212.474398 38.749993 212.360847 39.131938 Q 212.114819 39.388289 212.001268 39.457107 Q 210.285957 40.489391 210.284236 40.491111 C 209.355181 41.167257 208.646347 42.199541 207.915146 42.837836 Q 207.846327 42.898053 207.885898 42.980635 C 208.118162 43.462368 208.448492 43.892486 208.219669 44.363895 Q 207.839445 45.150151 207.452339 45.884793 Q 207.282012 46.206521 206.776193 46.574702 Q 204.639366 48.13001 200.837122 50.879325 C 197.723066 53.129703 194.951385 55.85149 192.360353 58.678227 Q 192.336267 58.704034 192.356913 58.722959 L 192.358633 58.72468 Q 192.386161 58.748766 192.408527 58.729841 Q 192.788751 58.409833 192.962519 58.308325 Q 195.815062 56.636026 197.655968 55.693207 Q 206.705654 51.065136 215.743296 46.409537 Q 216.81343 45.858986 218.821221 44.867994 Q 223.318536 42.648584 227.77284 40.343151 Q 228.092848 40.176265 230.4671 39.109572 Q 230.534198 39.078604 230.530757 39.006344 L 230.449895 37.089737 Q 230.446454 37.000273 230.522155 36.957261 Q 233.971703 34.973556 237.244041 32.496076 Q 237.309419 32.446182 237.290494 32.36704 Q 237.187266 31.900792 236.841451 30.646568 C 236.645317 29.932571 236.395848 29.683103 235.850459 29.237501 C 235.774758 29.175564 235.78164 29.058571 235.862502 29.005237 C 236.301222 28.717918 236.736502 28.239626 237.188986 27.954028 C 237.82212 27.554878 238.288368 27.303689 238.740852 26.911422 Q 239.862601 25.941075 240.906927 25.175465 Q 240.977467 25.123851 240.998112 25.037827 L 241.299195 23.688977 Q 241.319841 23.596071 241.268227 23.516929 Q 239.601089 20.924177 239.191616 20.289323 C 238.869888 19.792106 238.947309 18.699606 239.086667 18.121527 C 239.236348 17.500437 239.047097 17.14946 238.7701 16.647082 Q 238.715045 16.547295 238.794187 16.468153 L 246.219747 9.042594 C 246.293727 8.968613 246.328136 8.863665 246.314373 8.758716 L 245.626184 3.740097 C 245.615861 3.672999 245.681239 3.617944 245.746617 3.63859 C 246.55868 3.888058 247.656341 4.208066 248.287755 4.846361 C 248.938093 5.503582 249.380255 6.184889 249.970377 6.818023 Q 251.739022 8.715704 253.464656 10.659838 C 253.774342 11.009094 253.889613 11.146732 253.810471 11.590614 Q 253.757137 11.884814 253.727889 12.103314 Q 253.693479 12.366547 253.960153 12.371708 Q 255.377822 12.399236 256.575271 13.101189 Z" style="fill:#042e46;"/>
		<path d="M 258.782637 15.492645 Q 258.727582 15.533937 258.677688 15.468559 Q 257.710783 14.202291 256.575271 13.101189 Q 256.589035 13.102909 256.618283 13.054736 Q 256.927968 13.28872 257.180877 13.569157 Q 258.018747 14.501653 258.782637 15.492645 Z" style="fill:#5d8798;"/>
		<path d="M 263.104464 20.674709 L 258.805003 15.549421 L 263.104464 20.674709 Z" style="fill:#4d7c91;"/>
		<path d="M 228.304466 17.589901 Q 228.645119 17.8755 228.858458 18.186905 C 229.051151 18.467342 229.021903 18.807996 228.892868 19.093594 Q 227.962092 21.135795 227.702301 21.688067 Q 227.148308 22.86487 226.246781 23.92124 L 224.794702 22.309158 C 224.71384 22.219693 224.571041 22.226575 224.498781 22.324642 C 223.98608 23.023154 223.523273 23.747473 222.864332 24.413296 Q 221.768391 25.517839 221.028588 26.374634 Q 220.698257 26.7583 220.31115 26.90626 Q 219.167036 27.34154 217.973028 27.74413 C 217.685709 27.840477 217.54291 28.103709 217.443123 28.401351 Q 216.853001 30.169997 216.163091 31.222926 Q 215.968678 31.520568 215.526516 31.668528 Q 214.77467 31.921438 214.043469 31.788961 Q 213.623674 31.713261 213.110973 31.900792 Q 212.785804 32.021225 212.44687 32.489194 Q 211.479965 33.834603 210.888122 34.903017 Q 210.638654 35.35378 209.921217 35.615292 Q 207.999449 36.312084 206.958563 36.743922 Q 204.040642 37.951694 201.785102 39.799482 Q 200.966157 40.470466 199.305901 42.180616 Q 197.788444 43.744525 196.430992 45.091655 Q 196.052488 45.466718 194.877405 46.975573 C 194.075665 48.006136 191.740983 48.520557 190.63644 48.529159 Q 188.554668 48.546364 187.763251 48.544643 C 187.075062 48.542923 186.209664 48.646151 185.671156 48.666797 Q 185.094798 48.689163 184.77307 48.923147 Q 184.516719 49.108958 184.112408 49.631982 Q 183.597987 50.301246 182.455593 50.487057 C 182.957971 50.290923 183.582503 50.058659 183.924877 49.66123 C 184.15714 49.391116 184.358436 49.164014 184.661239 48.905943 Q 186.691396 47.169986 189.296192 44.974663 Q 190.080727 44.312281 191.069999 43.560435 C 191.94572 42.894612 192.666598 42.311371 193.490704 41.738454 Q 195.470968 40.360356 196.781968 39.290222 C 197.764358 38.488481 198.691692 37.46308 199.529563 36.719836 Q 200.83024 35.567119 200.837122 35.561958 Q 202.409634 34.195902 204.085374 33.559328 C 205.869504 32.881461 207.74826 32.69393 209.917776 32.601024 C 210.667902 32.568335 211.175441 32.449623 212.059764 32.275855 C 212.267941 32.236284 212.457193 32.134776 212.603433 31.985095 C 213.171189 31.407016 213.673567 30.696461 214.186268 30.164835 Q 218.239702 25.961721 222.024741 21.774091 Q 223.242836 20.426961 223.918981 19.888453 Q 224.744808 19.232953 226.219253 18.49315 Q 227.633482 17.782594 228.304466 17.589901 Z" style="fill:#5d8798;"/>
		<path d="M 265.12946 23.043799 Q 264.049004 21.956461 263.144035 20.700516 L 265.12946 23.043799 Z" style="fill:#4d7c91;"/>
		<path d="M 267.409086 25.681284 L 266.368201 24.495878 L 267.409086 25.681284 Z" style="fill:#4d7c91;"/>
		<path d="M 267.591457 25.875697 L 268.9145 27.34326 L 267.591457 25.875697 Z" style="fill:#4d7c91;"/>
		<path d="M 270.638413 29.259867 Q 269.895169 28.61813 269.330854 27.806067 L 270.638413 29.259867 Z" style="fill:#4d7c91;"/>
		<path d="M 220.41782 30.775603 Q 219.261662 32.217359 218.167442 33.688363 Q 216.871926 35.429481 216.082229 36.22434 Q 214.537245 37.776206 212.718705 39.013226 Q 212.644725 39.063119 212.544937 39.087206 Q 212.452032 39.111293 212.360847 39.131938 Q 212.474398 38.749993 212.686016 38.416222 Q 213.417217 37.254903 214.138095 36.08154 Q 214.643914 35.257434 215.108441 33.612662 C 215.273607 33.025981 215.110162 32.599304 214.860693 32.108969 C 214.836607 32.062516 214.860693 32.00402 214.910587 31.988536 Q 216.200942 31.575623 217.517103 31.365725 C 218.678422 31.179914 219.445753 31.01991 220.41782 30.775603 Z" style="fill:#5d8798;"/>
		<path d="M 291.719364 33.564489 L 291.734848 33.660835 Q 291.721084 33.688363 291.709041 33.719332 Q 291.683234 33.789871 291.712482 33.856969 C 292.103029 34.748174 292.28884 35.75293 291.504304 36.504777 Q 289.737379 38.197722 288.484875 39.496678 Q 288.419497 39.563777 288.460789 39.646359 Q 288.839292 40.393045 288.871981 40.458423 C 289.142096 40.99693 289.105966 41.68856 289.104245 42.352663 C 289.104245 42.4146 289.069836 42.469655 289.014781 42.497182 Q 282.108804 45.934687 275.815315 50.199738 Q 275.639827 50.318451 275.768863 50.151565 C 276.978355 48.573892 278.096662 47.176868 278.929371 45.458116 C 278.974103 45.36349 278.92593 45.251659 278.826142 45.220691 L 277.601166 44.843907 C 277.552993 44.830143 277.528906 44.776809 277.549552 44.732076 Q 278.287634 43.052895 279.239056 41.697163 C 279.732831 40.993489 280.482957 40.327667 281.162544 39.665285 C 281.198674 39.630875 281.198674 39.572379 281.162544 39.53797 Q 280.728985 39.109572 280.613713 38.982257 Q 278.506134 36.616607 277.343095 35.448406 Q 276.770178 34.872048 276.204142 35.501741 Q 276.183496 35.524107 276.162851 35.503462 L 276.126721 35.467332 Q 276.08715 35.427761 276.125 35.384749 L 276.775339 34.667312 Q 277.79902 34.423005 278.970662 33.776107 Q 280.799524 32.764469 281.98665 32.060796 Q 282.764304 31.60143 283.715725 31.229808 C 284.544993 30.908079 285.246946 30.94765 286.081375 30.966575 C 286.939891 30.985501 287.81217 31.444867 288.632836 31.642721 Q 289.128332 31.761434 289.579096 32.091765 C 290.293092 32.614788 290.919344 33.185985 291.719364 33.564489 Z" style="fill:#bec4bf;"/>
		<path d="M 273.546012 32.449623 Q 274.098284 33.02254 274.512918 33.31158 Q 275.343906 33.891379 276.629099 34.534836 Q 276.491461 34.560643 276.346941 34.496985 Q 274.63163 33.739977 273.546012 32.449623 Z" style="fill:#4d7c91;"/>
		<path d="M 294.866108 35.918095 Q 294.492765 35.7168 294.174478 35.441525 Q 293.570592 34.920221 293.544785 34.899576 Q 292.756808 34.299131 291.951627 33.721052 C 291.882808 33.672879 291.81399 33.67632 291.734848 33.660835 L 291.719364 33.564489 Q 291.788182 33.583414 291.846679 33.619544 Q 293.460482 34.598493 294.866108 35.918095 Z" style="fill:#5d8798;"/>
		<path d="M 299.076104 40.284655 L 297.510474 38.5573 L 299.076104 40.284655 Z" style="fill:#4d7c91;"/>
		<path d="M 300.834427 42.350942 L 302.289947 44.035285 Q 301.453797 43.267954 300.834427 42.350942 Z" style="fill:#4d7c91;"/>
		<path d="M 303.674927 45.58199 L 302.322636 44.057651 L 303.674927 45.58199 Z" style="fill:#4d7c91;"/>
		<path d="M 304.746782 46.839655 L 303.733423 45.666293 L 304.746782 46.839655 Z" style="fill:#4d7c91;"/>
		<path d="M 305.06679 47.154502 Q 304.834526 47.096006 304.781191 46.855139 Q 304.948077 46.961809 305.06679 47.154502 Z" style="fill:#4d7c91;"/>
		<path d="M 309.010113 51.650096 L 307.494376 49.91586 L 309.010113 51.650096 Z" style="fill:#4d7c91;"/>
		<path d="M 181.335565 50.894809 Q 181.225455 51.115029 181.122227 51.00836 L 181.335565 50.894809 Z" style="fill:#4d7c91;"/>
		<path d="M 310.205841 52.985183 L 309.025597 51.675904 L 310.205841 52.985183 Z" style="fill:#4d7c91;"/>
		<path d="M 179.145404 52.962817 Q 178.51399 52.778726 177.949675 52.386459 L 179.145404 52.962817 Z" style="fill:#4d7c91;"/>
		<path d="M 177.578053 53.587349 L 177.578053 53.150348 Q 177.648593 53.429065 177.578053 53.587349 Z" style="fill:#4d7c91;"/>
		<path d="M 177.6744 54.057038 Q 177.679561 54.131018 177.652034 54.192955 Q 177.615904 54.277258 177.526439 54.278978 C 176.786636 54.304786 176.050274 54.521565 175.379289 54.552534 Q 174.085494 54.61103 172.370183 55.26653 C 170.966277 55.803317 169.48323 56.825278 168.986013 58.292841 Q 168.946443 58.413274 168.703856 58.561235 Q 167.9176 59.042967 167.527053 59.540184 C 167.177797 59.985786 166.948974 60.224932 166.398423 60.512251 Q 165.490013 60.988821 164.600529 61.544534 Q 165.342053 60.885593 166.236698 60.465798 C 166.518856 60.333321 166.959297 60.070089 167.136505 59.825782 Q 167.645765 59.120388 168.356321 58.669624 C 169.0101 58.254991 169.158061 57.614975 169.577856 57.093672 Q 170.543041 55.896223 172.339214 55.190829 Q 173.70527 54.655762 174.849384 54.514683 Q 175.63564 54.416616 177.27353 54.24801 Q 177.536762 54.220482 177.6744 54.057038 Z" style="fill:#b1c0be;"/>
		<path d="M 313.156451 56.173219 L 314.13368 57.220987 Q 313.534955 56.794309 313.156451 56.173219 Z" style="fill:#4d7c91;"/>
		<path d="M 325.395893 68.324916 Q 324.828137 67.917164 324.308555 67.437153 Q 320.483944 63.910184 316.867511 60.168156 Q 316.370294 59.652014 315.943617 59.080817 Q 320.549322 63.829322 325.395893 68.324916 Z" style="fill:#5d8798;"/>
		<path d="M 326.18559 69.164507 L 325.395893 68.324916 Q 325.915476 68.588149 326.18559 69.164507 Z" style="fill:#4d7c91;"/>
		<path d="M 261.165492 99.451706 C 262.405952 100.12269 263.673941 100.647434 264.387937 100.964001 Q 265.623236 101.514552 266.903268 102.149407 C 270.95498 104.157198 275.646709 106.411017 280.293705 108.226116 C 286.258584 110.557356 290.485785 112.217612 295.769356 113.428825 C 296.789596 113.662809 297.887258 113.674852 298.917821 113.857222 Q 302.365648 114.469711 304.9584 114.872301 Q 313.390436 116.181581 321.746771 115.787593 Q 322.07022 115.772108 322.233665 115.386722 Q 321.724405 117.501183 320.843523 119.355853 L 316.750519 120.357168 Q 310.145625 121.623435 303.069321 121.792042 Q 294.174478 122.00366 285.833627 120.491364 Q 274.980886 118.523144 263.737598 114.671006 Q 259.329747 113.160431 256.315479 111.744482 C 247.881723 107.782234 244.203353 105.934446 237.536522 103.309005 C 236.708974 102.983836 235.391092 102.567481 234.355368 102.094352 Q 234.030199 101.913702 233.713632 101.745096 Q 233.391903 101.573048 233.054691 101.444013 C 232.455966 101.21519 231.953588 100.857332 231.356584 100.592379 Q 229.039108 99.561816 226.363773 98.281784 Q 221.214399 95.816347 215.622863 94.178457 Q 208.505268 92.093245 200.585933 91.733666 Q 190.760314 91.288063 181.616002 94.047701 Q 176.750506 95.515264 172.512982 97.652091 Q 168.487076 99.683969 164.573001 102.109836 L 164.196218 98.052961 Q 164.382029 97.97554 164.258155 98.042639 Q 169.677643 94.562123 175.888549 91.649363 Q 188.475526 85.744701 202.423397 85.001457 Q 212.729028 84.450906 222.841966 86.329662 C 230.988403 87.841957 238.955911 90.07341 246.59481 93.099721 Q 253.703802 95.914414 261.165492 99.451706 Z" style="fill:#fcebd7;"/>
		<path d="M 234.355368 102.094352 Q 232.941139 101.703804 228.904911 100.428934 Q 225.033848 99.205678 219.669414 98.400497 Q 209.96767 96.944977 200.369153 98.753194 C 194.961708 99.773434 189.832979 101.50767 184.394566 103.678907 C 180.747164 105.136147 178.968195 106.115096 174.708305 108.308698 Q 170.630785 110.407675 166.333045 111.878679 Q 165.180328 107.045871 164.573001 102.109836 Q 168.487076 99.683969 172.512982 97.652091 Q 176.750506 95.515264 181.616002 94.047701 Q 190.760314 91.288063 200.585933 91.733666 Q 208.505268 92.093245 215.622863 94.178457 Q 221.214399 95.816347 226.363773 98.281784 Q 229.039108 99.561816 231.356584 100.592379 C 231.953588 100.857332 232.455966 101.21519 233.054691 101.444013 Q 233.391903 101.573048 233.713632 101.745096 Q 234.030199 101.913702 234.355368 102.094352 Z" style="fill:#b1c0be;"/>
		<path d="M 323.799295 109.18786 L 322.233665 115.386722 Q 322.07022 115.772108 321.746771 115.787593 Q 313.390436 116.181581 304.9584 114.872301 Q 302.365648 114.469711 298.917821 113.857222 C 297.887258 113.674852 296.789596 113.662809 295.769356 113.428825 C 290.485785 112.217612 286.258584 110.557356 280.293705 108.226116 C 275.646709 106.411017 270.95498 104.157198 266.903268 102.149407 Q 265.623236 101.514552 264.387937 100.964001 C 263.673941 100.647434 262.405952 100.12269 261.165492 99.451706 Q 262.197775 99.045674 262.922094 98.856422 C 268.783744 97.332083 274.95852 96.230981 280.887268 96.193131 Q 283.578087 96.175926 286.933009 96.609485 Q 288.932198 96.867556 290.318899 97.166918 Q 298.487703 98.932123 305.944231 102.870285 C 308.027723 103.971387 309.684538 104.941734 312.036424 106.378328 Q 316.351369 109.012372 321.12568 111.235222 C 321.726125 111.513939 322.350657 111.687706 322.90809 111.987069 C 322.973468 112.021478 323.056051 111.985348 323.074976 111.913088 L 323.799295 109.18786 Z" style="fill:#5d8798;"/>
		<path d="M 164.258155 98.042639 Q 164.382029 97.97554 164.196218 98.052961 L 164.074064 96.538946 L 164.258155 98.042639 Z" style="fill:#4d7c91;"/>
		<path d="M 234.355368 102.094352 C 235.391092 102.567481 236.708974 102.983836 237.536522 103.309005 C 244.203353 105.934446 247.881723 107.782234 256.315479 111.744482 Q 259.329747 113.160431 263.737598 114.671006 Q 274.980886 118.523144 285.833627 120.491364 Q 294.174478 122.00366 303.069321 121.792042 Q 310.145625 121.623435 316.750519 120.357168 Q 317.058483 120.770081 316.884715 121.265577 Q 316.855467 121.34816 316.774605 121.382569 Q 314.31777 122.40625 311.91255 123.101321 Q 308.087939 124.204144 304.096443 125.005884 Q 295.898391 126.648936 287.987659 127.104861 Q 284.672308 127.295833 284.458969 127.309597 Q 282.724733 127.416266 278.585276 127.220133 Q 272.281465 126.922491 265.89163 125.768054 Q 264.229653 125.468692 262.528106 125.045455 Q 257.820893 123.877254 255.272873 123.046266 Q 250.369526 121.446227 246.81503 119.971782 C 243.212361 118.480132 241.557266 117.795384 238.592892 116.518793 Q 234.315797 114.676167 229.99397 113.144947 C 223.826076 110.959947 217.480973 109.58873 211.053288 109.18786 Q 203.45224 108.713009 195.758287 110.283801 Q 191.195594 111.214576 188.226058 112.157395 Q 178.797868 115.144136 168.986013 120.179959 Q 167.411781 116.147171 166.333045 111.878679 Q 170.630785 110.407675 174.708305 108.308698 C 178.968195 106.115096 180.747164 105.136147 184.394566 103.678907 C 189.832979 101.50767 194.961708 99.773434 200.369153 98.753194 Q 209.96767 96.944977 219.669414 98.400497 Q 225.033848 99.205678 228.904911 100.428934 Q 232.941139 101.703804 234.355368 102.094352 Z" style="fill:#4d7c91;"/>
		<path d="M 324.289629 106.381769 L 324.196724 106.928879 Q 324.014354 106.727584 324.289629 106.381769 Z" style="fill:#4d7c91;"/>
		<path d="M 323.936932 108.358592 L 323.837145 108.902261 Q 323.699507 108.614942 323.936932 108.358592 Z" style="fill:#4d7c91;"/>
		<path d="M 316.750519 120.357168 L 320.843523 119.355853 L 320.064149 121.134821 Q 317.622798 121.805805 315.353495 122.636794 Q 312.707408 123.60542 312.113845 123.798113 Q 310.119817 124.44329 308.339128 124.895774 Q 299.428801 127.165077 289.470706 128.01327 Q 288.132178 128.126822 286.036643 128.19392 C 280.689414 128.360806 275.50391 128.259298 270.471528 127.581432 Q 261.642062 126.390865 252.939912 123.362833 Q 248.143235 121.693975 245.003372 120.382975 Q 241.786089 119.041006 236.991132 117.002246 Q 231.674872 114.739825 226.219253 113.043439 Q 224.655344 112.556545 222.905623 112.140191 Q 218.339489 111.049411 214.203473 110.552195 Q 206.600705 109.636903 198.879224 110.808545 Q 194.182334 111.520821 190.503964 112.541061 Q 185.265125 113.99314 179.842195 116.203947 Q 173.667419 118.720998 171.508226 119.787691 C 170.859608 120.107699 170.340025 120.494805 169.755065 120.763199 C 169.613986 120.826857 169.541726 120.986861 169.589899 121.134821 Q 169.672482 121.391172 169.546888 121.528809 L 168.986013 120.179959 Q 178.797868 115.144136 188.226058 112.157395 Q 191.195594 111.214576 195.758287 110.283801 Q 203.45224 108.713009 211.053288 109.18786 C 217.480973 109.58873 223.826076 110.959947 229.99397 113.144947 Q 234.315797 114.676167 238.592892 116.518793 C 241.557266 117.795384 243.212361 118.480132 246.81503 119.971782 Q 250.369526 121.446227 255.272873 123.046266 Q 257.820893 123.877254 262.528106 125.045455 Q 264.229653 125.468692 265.89163 125.768054 Q 272.281465 126.922491 278.585276 127.220133 Q 282.724733 127.416266 284.458969 127.309597 Q 284.672308 127.295833 287.987659 127.104861 Q 295.898391 126.648936 304.096443 125.005884 Q 308.087939 124.204144 311.91255 123.101321 Q 314.31777 122.40625 316.774605 121.382569 Q 316.855467 121.34816 316.884715 121.265577 Q 317.058483 120.770081 316.750519 120.357168 Z" style="fill:#5d8798;"/>
		<path d="M 320.064149 121.134821 Q 316.800412 128.868345 311.410172 134.908924 Q 310.026912 136.45907 308.967101 137.44146 Q 308.519778 137.412212 308.112026 137.511999 Q 304.59538 138.365354 301.553585 139.065586 Q 296.448943 140.240669 288.875422 141.188649 Q 285.962662 141.553389 282.982804 141.66522 Q 277.785256 141.861354 272.787284 141.642854 Q 270.924012 141.561992 269.35322 141.396826 Q 264.078252 140.839393 259.524161 139.779582 Q 251.178148 137.838889 242.33664 134.231058 Q 239.289683 132.987157 235.790242 131.466259 C 228.765553 128.414141 221.377843 126.151719 213.855937 124.644585 C 206.745224 123.221754 199.22848 122.683246 192.045507 123.366274 Q 182.293869 124.291888 172.817506 126.970664 C 172.65062 127.017117 172.573199 127.20981 172.659222 127.359491 C 173.132352 128.185318 173.612364 128.868345 174.231734 129.857617 Q 174.594754 130.437416 175.014549 130.920869 Q 175.177994 131.110121 175.396494 131.662393 Q 171.934903 126.905286 169.546888 121.528809 Q 169.672482 121.391172 169.589899 121.134821 C 169.541726 120.986861 169.613986 120.826857 169.755065 120.763199 C 170.340025 120.494805 170.859608 120.107699 171.508226 119.787691 Q 173.667419 118.720998 179.842195 116.203947 Q 185.265125 113.99314 190.503964 112.541061 Q 194.182334 111.520821 198.879224 110.808545 Q 206.600705 109.636903 214.203473 110.552195 Q 218.339489 111.049411 222.905623 112.140191 Q 224.655344 112.556545 226.219253 113.043439 Q 231.674872 114.739825 236.991132 117.002246 Q 241.786089 119.041006 245.003372 120.382975 Q 248.143235 121.693975 252.939912 123.362833 Q 261.642062 126.390865 270.471528 127.581432 C 275.50391 128.259298 280.689414 128.360806 286.036643 128.19392 Q 288.132178 128.126822 289.470706 128.01327 Q 299.428801 127.165077 308.339128 124.895774 Q 310.119817 124.44329 312.113845 123.798113 Q 312.707408 123.60542 315.353495 122.636794 Q 317.622798 121.805805 320.064149 121.134821 Z" style="fill:#4d7c91;"/>
		<path d="M 308.967101 137.44146 C 306.837156 139.66087 304.222038 141.589519 301.548423 143.236012 Q 295.389131 147.026213 288.61219 148.956583 Q 285.931694 149.720473 282.170741 150.298551 Q 278.722914 150.830177 274.519799 151.060721 Q 267.727374 151.434063 260.406763 151.435784 Q 243.583983 151.440945 226.20893 151.440945 Q 224.636418 151.440945 222.767985 151.399654 Q 216.48826 151.258575 211.851587 150.8405 Q 210.66274 150.733831 208.18698 150.394898 Q 206.161984 150.116181 204.790768 149.846067 Q 200.969598 149.0925 197.564783 147.979354 C 191.525924 146.004252 185.803633 142.817937 181.234058 138.379118 Q 178.025376 135.261621 175.396494 131.662393 Q 175.177994 131.110121 175.014549 130.920869 Q 174.594754 130.437416 174.231734 129.857617 C 173.612364 128.868345 173.132352 128.185318 172.659222 127.359491 C 172.573199 127.20981 172.65062 127.017117 172.817506 126.970664 Q 182.293869 124.291888 192.045507 123.366274 C 199.22848 122.683246 206.745224 123.221754 213.855937 124.644585 C 221.377843 126.151719 228.765553 128.414141 235.790242 131.466259 Q 239.289683 132.987157 242.33664 134.231058 Q 251.178148 137.838889 259.524161 139.779582 Q 264.078252 140.839393 269.35322 141.396826 Q 270.924012 141.561992 272.787284 141.642854 Q 277.785256 141.861354 282.982804 141.66522 Q 285.962662 141.553389 288.875422 141.188649 Q 296.448943 140.240669 301.553585 139.065586 Q 304.59538 138.365354 308.112026 137.511999 Q 308.519778 137.412212 308.967101 137.44146 Z" style="fill:#042e46;"/>
	</g>
	<g id="surface4">
	</g>
</svg>
