<?xml version="1.0" encoding="utf-8"?>
<svg xmlns="http://www.w3.org/2000/svg" width="490pt" height="280pt" viewBox="0 0 490 280" version="1.1" xmlns:xlink="http://www.w3.org/1999/xlink">
	<g id="surface2">
		<path vector-effect="non-scaling-stroke" d="M 247.228126 52.030133 Q 246.899055 52.428203 246.614213 52.599815 C 243.884336 54.25048 241.249995 56.051527 238.566117 57.778267" style="fill:none;stroke-width:0.50;stroke:#f59781;"/>
		<path vector-effect="non-scaling-stroke" d="M 238.566117 57.778267 Q 238.399812 57.698653 238.566117 57.447427 C 238.636885 57.341275 238.620962 57.197969 238.527194 57.111278 Q 238.123817 56.741515 237.617825 56.513288 C 236.858838 56.166525 235.68055 55.681764 234.870256 55.13685 Q 233.19836 54.013407 231.823691 52.380434 Q 229.585651 49.721325 227.865988 47.0516" style="fill:none;stroke-width:0.50;stroke:#f45305;"/>
		<path vector-effect="non-scaling-stroke" d="M 227.865988 47.0516 Q 226.379859 44.224417 225.244032 41.225621 C 224.554043 39.408651 223.743749 36.650466 222.87861 34.391196 Q 221.995778 32.085927 220.744953 29.90804" style="fill:none;stroke-width:0.50;stroke:#e46a26;"/>
		<path vector-effect="non-scaling-stroke" d="M 220.744953 29.90804 Q 220.284961 28.84652 219.609126 27.797383 Q 218.386608 25.9008 217.268473 24.168752 Q 216.707636 23.301843 216.336103 22.850697 Q 211.706104 17.242329 205.471439 13.242165 Q 202.962711 11.633961 200.917515 10.400828 C 198.944855 9.211925 196.995196 7.752334 195.528528 5.878749 Q 195.029613 5.241837 194.693465 4.300622" style="fill:none;stroke-width:0.50;stroke:#f45305;"/>
		<path vector-effect="non-scaling-stroke" d="M 277.058628 79.236909 Q 276.186412 78.32577 275.446886 77.356248 Q 274.859511 76.583107 274.118215 76.052347" style="fill:none;stroke-width:0.50;stroke:#ebcfa3;"/>
		<path vector-effect="non-scaling-stroke" d="M 274.118215 76.052347 Q 271.521028 72.949168 268.263929 70.612053 C 265.104135 68.343937 260.950051 66.12359 258.819932 64.899302 Q 253.995321 62.121656 250.182692 58.029494 C 250.094232 57.933957 249.954465 57.909188 249.837698 57.967572 Q 247.406815 59.209551 245.145776 60.727526 Q 224.265663 74.73783 221.388942 76.641491 Q 220.95018 76.933409 220.737876 77.225327 Q 220.605186 77.407555 220.6848 77.61809 Q 222.484078 82.442702 222.774227 87.709614 C 222.998915 91.791161 222.809611 96.154011 222.890994 99.741951 C 222.982992 103.678424 224.102897 107.945737 226.298476 111.317835 C 226.367474 111.423987 226.48778 111.48414 226.611624 111.473524 L 227.282151 111.420448" style="fill:none;stroke-width:0.50;stroke:#86d5e2;"/>
		<path vector-effect="non-scaling-stroke" d="M 227.282151 111.420448 Q 227.973909 112.780964 228.739973 114.063635 Q 234.049346 122.948564 239.326873 131.837031" style="fill:none;stroke-width:0.50;stroke:#ebcfa3;"/>
		<path vector-effect="non-scaling-stroke" d="M 239.326873 131.837031 L 240.593621 134.400603" style="fill:none;stroke-width:0.50;stroke:#8092a0;"/>
		<path vector-effect="non-scaling-stroke" d="M 220.744953 29.90804 Q 221.132408 30.923562 221.967471 32.774146 C 222.599076 34.173585 223.398755 36.107322 223.970207 37.811062 Q 224.617734 39.748338 224.688502 39.985411 Q 224.953883 40.870011 225.466951 42.13499 Q 226.020711 43.502583 226.523164 44.94802 Q 226.855774 45.910466 227.632453 47.159522 C 227.68376 47.242674 227.800527 47.25152 227.864219 47.177214 Q 227.892526 47.143599 227.865988 47.0516" style="fill:none;stroke-width:0.50;stroke:#ea8b27;"/>
		<path vector-effect="non-scaling-stroke" d="M 238.566117 57.778267 L 217.682466 71.496654" style="fill:none;stroke-width:0.50;stroke:#fbb881;"/>
		<path vector-effect="non-scaling-stroke" d="M 289.931336 97.532219 Q 289.584573 97.730369 288.761894 98.289437 Q 267.06441 113.01096 254.335007 121.708354 Q 247.328971 126.495812 240.30878 131.26204 Q 239.827557 131.589342 239.326873 131.837031" style="fill:none;stroke-width:0.50;stroke:#6f6545;"/>
		<path vector-effect="non-scaling-stroke" d="M 274.118215 76.052347 Q 273.990833 76.0895 273.86345 76.137268 Q 273.734299 76.186806 273.640531 76.280574 Q 272.84616 77.071407 271.998712 78.028545 Q 271.253879 78.867146 271.347646 80.022434 C 271.453798 81.312182 271.572335 82.24632 271.298109 83.256534 C 270.887654 84.763894 268.923841 85.399037 267.715476 84.454283 Q 267.37579 84.188903 267.103333 83.629836 C 266.947643 83.311379 266.634494 82.301165 266.296577 82.04817 Q 265.627819 81.545717 265.061674 82.108323 C 264.704296 82.462163 265.328824 83.651066 265.178442 84.043829 C 264.930753 84.687818 263.971846 85.025735 263.342011 85.616649 C 262.715714 86.207562 262.216799 87.028471 261.701961 87.721998 C 261.050895 88.601291 260.461751 88.808288 259.352462 89.055976 Q 258.098098 89.33374 258.432477 90.533259 Q 258.773933 91.757546 258.841163 92.189231 C 258.938469 92.83499 258.890701 93.422364 258.308633 93.668283 C 256.399665 94.476808 254.345623 95.55779 253.163796 97.210224 C 252.417193 98.252284 252.817033 99.227114 253.570712 100.125868 C 253.944014 100.569937 254.188164 101.010468 253.494637 101.321848 C 252.252658 101.879146 251.702436 100.838856 251.270751 99.913564 Q 250.814297 98.931657 250.248153 97.779907 Q 249.809391 96.889999 248.783254 97.137687 C 247.77304 97.381837 246.9539 98.275283 246.302834 99.03604 Q 241.784294 104.30649 236.405922 108.697648 C 235.057791 109.798091 233.911348 110.569463 232.200531 110.378389 C 231.811307 110.335928 231.636156 110.215622 231.475158 109.881243 C 231.146087 109.203639 231.116011 108.773723 230.887784 107.680357 Q 230.809939 107.305286 230.445483 106.622375 C 230.302178 106.351687 229.992568 106.229612 229.732495 106.339303 Q 229.723649 106.34461 229.713034 106.346379 Q 229.231811 106.479069 229.470653 106.947908 Q 230.111104 108.200502 229.58919 109.2461 C 229.092044 110.238622 228.14906 110.756998 227.282151 111.420448" style="fill:none;stroke-width:0.50;stroke:#75a887;"/>
		<path vector-effect="non-scaling-stroke" d="M 219.893967 73.278239 Q 220.474265 73.936382 220.741415 74.776753 Q 220.776799 74.888212 220.847567 74.794445 C 220.974949 74.62814 221.121793 74.49545 221.344712 74.345068 Q 229.555575 68.867621 245.603999 58.109108 Q 245.752612 58.010033 245.664152 57.854343 C 245.285543 57.189123 245.451848 56.150602 245.573923 55.354462 Q 245.598692 55.193464 245.462463 55.283694 L 218.729833 72.952706 Q 218.526375 73.087166 218.765217 73.037628 C 219.131441 72.963321 219.571973 72.915553 219.893967 73.278239" style="fill:none;stroke-width:0.50;stroke:#86d5e2;"/>
		<path vector-effect="non-scaling-stroke" d="M 254.478313 83.314918 L 254.126242 83.544914 C 254.083781 83.573221 254.071396 83.631605 254.099704 83.675835 L 255.34699 85.588341 C 256.058209 86.679939 256.686276 87.532694 256.748198 87.492002 L 257.033039 87.306236 C 257.094961 87.265544 256.567739 86.347329 255.85652 85.255732 L 254.609234 83.343225 C 254.580926 83.298995 254.522543 83.286611 254.478313 83.314918" style="fill:none;stroke-width:0.50;stroke:#75a887;"/>
		<path d="M 247.228126 52.030133 Q 246.899055 52.428203 246.614213 52.599815 C 243.884336 54.25048 241.249995 56.051527 238.566117 57.778267 Q 238.399812 57.698653 238.566117 57.447427 C 238.636885 57.341275 238.620962 57.197969 238.527194 57.111278 Q 238.123817 56.741515 237.617825 56.513288 C 236.858838 56.166525 235.68055 55.681764 234.870256 55.13685 Q 233.19836 54.013407 231.823691 52.380434 Q 229.585651 49.721325 227.865988 47.0516 Q 226.379859 44.224417 225.244032 41.225621 C 224.554043 39.408651 223.743749 36.650466 222.87861 34.391196 Q 221.995778 32.085927 220.744953 29.90804 Q 220.284961 28.84652 219.609126 27.797383 Q 218.386608 25.9008 217.268473 24.168752 Q 216.707636 23.301843 216.336103 22.850697 Q 211.706104 17.242329 205.471439 13.242165 Q 202.962711 11.633961 200.917515 10.400828 C 198.944855 9.211925 196.995196 7.752334 195.528528 5.878749 Q 195.029613 5.241837 194.693465 4.300622 Q 194.923461 3.633633 195.647064 3.575249 Q 196.892582 3.474405 198.304405 3.649556 Q 200.545983 3.92909 202.647794 4.541233 C 217.234858 8.796162 229.320271 21.325645 231.453928 36.634544 Q 231.874998 39.652801 231.989996 40.479018 Q 232.142147 41.58123 232.674677 42.996591 Q 234.185575 47.012678 238.27066 48.321887 Q 240.213243 48.944646 241.418069 49.261333 Q 242.205364 49.468329 244.02941 50.24147 Q 245.584538 50.899613 246.84244 51.99121 C 246.971592 52.104439 247.083052 52.097362 247.228126 52.030133 Z" style="fill:#ee3204;"/>
		<path d="M 220.744953 29.90804 Q 221.132408 30.923562 221.967471 32.774146 C 222.599076 34.173585 223.398755 36.107322 223.970207 37.811062 Q 224.617734 39.748338 224.688502 39.985411 Q 224.953883 40.870011 225.466951 42.13499 Q 226.020711 43.502583 226.523164 44.94802 Q 226.855774 45.910466 227.632453 47.159522 C 227.68376 47.242674 227.800527 47.25152 227.864219 47.177214 Q 227.892526 47.143599 227.865988 47.0516 Q 229.585651 49.721325 231.823691 52.380434 Q 233.19836 54.013407 234.870256 55.13685 C 235.68055 55.681764 236.858838 56.166525 237.617825 56.513288 Q 238.123817 56.741515 238.527194 57.111278 C 238.620962 57.197969 238.636885 57.341275 238.566117 57.447427 Q 238.399812 57.698653 238.566117 57.778267 L 217.682466 71.496654 Q 217.091552 69.527533 217.355163 67.422183 Q 217.565698 65.753826 217.661235 65.272604 C 218.126535 62.942566 218.552913 60.76291 218.430838 58.434641 C 218.306994 56.028527 216.695251 54.016946 214.74913 52.792658 Q 213.875145 52.242437 210.945347 50.761615 Q 208.305699 49.427638 206.101274 47.626591 C 204.535531 46.345689 202.952096 44.974558 201.603965 43.527351 Q 194.449315 35.849018 192.197122 25.539883 Q 191.793744 23.696375 191.650439 22.047479 Q 191.232907 17.260021 191.974203 12.967939 Q 192.550962 9.634764 193.991092 5.836289 C 194.187473 5.321451 194.454623 4.81369 194.693465 4.300622 Q 195.029613 5.241837 195.528528 5.878749 C 196.995196 7.752334 198.944855 9.211925 200.917515 10.400828 Q 202.962711 11.633961 205.471439 13.242165 Q 211.706104 17.242329 216.336103 22.850697 Q 216.707636 23.301843 217.268473 24.168752 Q 218.386608 25.9008 219.609126 27.797383 Q 220.284961 28.84652 220.744953 29.90804 Z" style="fill:#fa7305;"/>
		<path d="M 220.744953 29.90804 Q 221.995778 32.085927 222.87861 34.391196 C 223.743749 36.650466 224.554043 39.408651 225.244032 41.225621 Q 226.379859 44.224417 227.865988 47.0516 Q 227.892526 47.143599 227.864219 47.177214 C 227.800527 47.25152 227.68376 47.242674 227.632453 47.159522 Q 226.855774 45.910466 226.523164 44.94802 Q 226.020711 43.502583 225.466951 42.13499 Q 224.953883 40.870011 224.688502 39.985411 Q 224.617734 39.748338 223.970207 37.811062 C 223.398755 36.107322 222.599076 34.173585 221.967471 32.774146 Q 221.132408 30.923562 220.744953 29.90804 Z" style="fill:#daa248;"/>
		<path d="M 277.058628 79.236909 Q 276.186412 78.32577 275.446886 77.356248 Q 274.859511 76.583107 274.118215 76.052347 Q 271.521028 72.949168 268.263929 70.612053 C 265.104135 68.343937 260.950051 66.12359 258.819932 64.899302 Q 253.995321 62.121656 250.182692 58.029494 C 250.094232 57.933957 249.954465 57.909188 249.837698 57.967572 Q 247.406815 59.209551 245.145776 60.727526 Q 224.265663 74.73783 221.388942 76.641491 Q 220.95018 76.933409 220.737876 77.225327 Q 220.605186 77.407555 220.6848 77.61809 Q 222.484078 82.442702 222.774227 87.709614 C 222.998915 91.791161 222.809611 96.154011 222.890994 99.741951 C 222.982992 103.678424 224.102897 107.945737 226.298476 111.317835 C 226.367474 111.423987 226.48778 111.48414 226.611624 111.473524 L 227.282151 111.420448 Q 227.973909 112.780964 228.739973 114.063635 Q 234.049346 122.948564 239.326873 131.837031 L 240.593621 134.400603 C 240.416701 134.34045 240.246858 134.290913 240.054015 134.324527 Q 239.034955 134.494371 238.010588 134.623522 C 236.660687 134.793366 236.027313 134.198914 235.241788 133.094933 Q 234.567722 132.146641 234.164344 131.509728 C 230.963859 126.465736 229.486576 124.227696 227.44138 120.590218 C 227.000848 119.808231 226.553241 118.900631 226.496626 117.954109 Q 226.429396 116.839512 226.604547 116.301675 Q 226.636393 116.20083 226.53201 116.216753 C 225.339569 116.40075 223.802133 116.199061 222.942301 115.220693 Q 222.162083 114.337861 221.710937 113.400185 Q 219.20044 108.188118 218.544067 102.484213 C 218.296378 100.339941 218.214995 98.255822 218.218534 95.817863 Q 218.223841 91.476243 218.177842 90.276725 Q 218.101766 88.245682 217.641774 84.763894 Q 217.123398 80.845113 215.267506 75.871888 Q 214.839359 74.721907 214.862359 74.224762 Q 214.906589 73.264086 215.840727 72.653711 Q 216.769558 72.045106 217.682466 71.496654 L 238.566117 57.778267 C 241.249995 56.051527 243.884336 54.25048 246.614213 52.599815 Q 246.899055 52.428203 247.228126 52.030133 C 247.903961 51.731138 248.362184 51.352528 249.19017 51.738214 Q 249.915543 52.074363 250.476379 52.617507 Q 254.126242 56.147064 257.655798 58.574408 C 260.911128 60.814217 264.838755 62.91072 267.984395 64.876303 Q 272.129633 67.464644 275.549499 70.875664 Q 276.039568 71.363964 276.533175 71.977876 C 277.784 73.527697 277.978613 75.618892 277.288624 77.464169 C 277.173626 77.770241 276.938322 78.108159 276.812709 78.465537 Q 276.784402 78.54692 276.816247 78.628304 L 277.058628 79.236909 Z M 219.893967 73.278239 Q 220.474265 73.936382 220.741415 74.776753 Q 220.776799 74.888212 220.847567 74.794445 C 220.974949 74.62814 221.121793 74.49545 221.344712 74.345068 Q 229.555575 68.867621 245.603999 58.109108 Q 245.752612 58.010033 245.664152 57.854343 C 245.285543 57.189123 245.451848 56.150602 245.573923 55.354462 Q 245.598692 55.193464 245.462463 55.283694 L 218.729833 72.952706 Q 218.526375 73.087166 218.765217 73.037628 C 219.131441 72.963321 219.571973 72.915553 219.893967 73.278239 Z" style="fill:#fcfcfd;"/>
		<path d="M 274.118215 76.052347 Q 273.990833 76.0895 273.86345 76.137268 Q 273.734299 76.186806 273.640531 76.280574 Q 272.84616 77.071407 271.998712 78.028545 Q 271.253879 78.867146 271.347646 80.022434 C 271.453798 81.312182 271.572335 82.24632 271.298109 83.256534 C 270.887654 84.763894 268.923841 85.399037 267.715476 84.454283 Q 267.37579 84.188903 267.103333 83.629836 C 266.947643 83.311379 266.634494 82.301165 266.296577 82.04817 Q 265.627819 81.545717 265.061674 82.108323 C 264.704296 82.462163 265.328824 83.651066 265.178442 84.043829 C 264.930753 84.687818 263.971846 85.025735 263.342011 85.616649 C 262.715714 86.207562 262.216799 87.028471 261.701961 87.721998 C 261.050895 88.601291 260.461751 88.808288 259.352462 89.055976 Q 258.098098 89.33374 258.432477 90.533259 Q 258.773933 91.757546 258.841163 92.189231 C 258.938469 92.83499 258.890701 93.422364 258.308633 93.668283 C 256.399665 94.476808 254.345623 95.55779 253.163796 97.210224 C 252.417193 98.252284 252.817033 99.227114 253.570712 100.125868 C 253.944014 100.569937 254.188164 101.010468 253.494637 101.321848 C 252.252658 101.879146 251.702436 100.838856 251.270751 99.913564 Q 250.814297 98.931657 250.248153 97.779907 Q 249.809391 96.889999 248.783254 97.137687 C 247.77304 97.381837 246.9539 98.275283 246.302834 99.03604 Q 241.784294 104.30649 236.405922 108.697648 C 235.057791 109.798091 233.911348 110.569463 232.200531 110.378389 C 231.811307 110.335928 231.636156 110.215622 231.475158 109.881243 C 231.146087 109.203639 231.116011 108.773723 230.887784 107.680357 Q 230.809939 107.305286 230.445483 106.622375 C 230.302178 106.351687 229.992568 106.229612 229.732495 106.339303 Q 229.723649 106.34461 229.713034 106.346379 Q 229.231811 106.479069 229.470653 106.947908 Q 230.111104 108.200502 229.58919 109.2461 C 229.092044 110.238622 228.14906 110.756998 227.282151 111.420448 L 226.611624 111.473524 C 226.48778 111.48414 226.367474 111.423987 226.298476 111.317835 C 224.102897 107.945737 222.982992 103.678424 222.890994 99.741951 C 222.809611 96.154011 222.998915 91.791161 222.774227 87.709614 Q 222.484078 82.442702 220.6848 77.61809 Q 220.605186 77.407555 220.737876 77.225327 Q 220.95018 76.933409 221.388942 76.641491 Q 224.265663 74.73783 245.145776 60.727526 Q 247.406815 59.209551 249.837698 57.967572 C 249.954465 57.909188 250.094232 57.933957 250.182692 58.029494 Q 253.995321 62.121656 258.819932 64.899302 C 260.950051 66.12359 265.104135 68.343937 268.263929 70.612053 Q 271.521028 72.949168 274.118215 76.052347 Z M 254.478313 83.314918 L 254.126242 83.544914 C 254.083781 83.573221 254.071396 83.631605 254.099704 83.675835 L 255.34699 85.588341 C 256.058209 86.679939 256.686276 87.532694 256.748198 87.492002 L 257.033039 87.306236 C 257.094961 87.265544 256.567739 86.347329 255.85652 85.255732 L 254.609234 83.343225 C 254.580926 83.298995 254.522543 83.286611 254.478313 83.314918 Z" style="fill:#10aec6;"/>
		<path d="M 277.058628 79.236909 Q 277.316931 79.512904 277.550466 79.875591 Q 277.891922 80.406351 277.994535 80.546118 Q 282.212311 86.306637 288.241749 94.901417 Q 289.342192 96.468929 289.931336 97.532219 Q 289.584573 97.730369 288.761894 98.289437 Q 267.06441 113.01096 254.335007 121.708354 Q 247.328971 126.495812 240.30878 131.26204 Q 239.827557 131.589342 239.326873 131.837031 Q 234.049346 122.948564 228.739973 114.063635 Q 227.973909 112.780964 227.282151 111.420448 C 228.14906 110.756998 229.092044 110.238622 229.58919 109.2461 Q 230.111104 108.200502 229.470653 106.947908 Q 229.231811 106.479069 229.713034 106.346379 Q 229.723649 106.34461 229.732495 106.339303 C 229.992568 106.229612 230.302178 106.351687 230.445483 106.622375 Q 230.809939 107.305286 230.887784 107.680357 C 231.116011 108.773723 231.146087 109.203639 231.475158 109.881243 C 231.636156 110.215622 231.811307 110.335928 232.200531 110.378389 C 233.911348 110.569463 235.057791 109.798091 236.405922 108.697648 Q 241.784294 104.30649 246.302834 99.03604 C 246.9539 98.275283 247.77304 97.381837 248.783254 97.137687 Q 249.809391 96.889999 250.248153 97.779907 Q 250.814297 98.931657 251.270751 99.913564 C 251.702436 100.838856 252.252658 101.879146 253.494637 101.321848 C 254.188164 101.010468 253.944014 100.569937 253.570712 100.125868 C 252.817033 99.227114 252.417193 98.252284 253.163796 97.210224 C 254.345623 95.55779 256.399665 94.476808 258.308633 93.668283 C 258.890701 93.422364 258.938469 92.83499 258.841163 92.189231 Q 258.773933 91.757546 258.432477 90.533259 Q 258.098098 89.33374 259.352462 89.055976 C 260.461751 88.808288 261.050895 88.601291 261.701961 87.721998 C 262.216799 87.028471 262.715714 86.207562 263.342011 85.616649 C 263.971846 85.025735 264.930753 84.687818 265.178442 84.043829 C 265.328824 83.651066 264.704296 82.462163 265.061674 82.108323 Q 265.627819 81.545717 266.296577 82.04817 C 266.634494 82.301165 266.947643 83.311379 267.103333 83.629836 Q 267.37579 84.188903 267.715476 84.454283 C 268.923841 85.399037 270.887654 84.763894 271.298109 83.256534 C 271.572335 82.24632 271.453798 81.312182 271.347646 80.022434 Q 271.253879 78.867146 271.998712 78.028545 Q 272.84616 77.071407 273.640531 76.280574 Q 273.734299 76.186806 273.86345 76.137268 Q 273.990833 76.0895 274.118215 76.052347 Q 274.859511 76.583107 275.446886 77.356248 Q 276.186412 78.32577 277.058628 79.236909 Z" style="fill:#daa248;"/>
		<path d="M 240.593621 134.400603 L 239.326873 131.837031 Q 239.827557 131.589342 240.30878 131.26204 Q 247.328971 126.495812 254.335007 121.708354 Q 267.06441 113.01096 288.761894 98.289437 Q 289.584573 97.730369 289.931336 97.532219 Q 290.524018 98.577817 291.164469 99.605723 Q 291.971225 100.900778 292.388756 101.682765 Q 293.871347 104.467488 294.796639 107.018676 Q 296.512765 111.760135 297.537132 116.924433 Q 297.933433 118.918323 298.143968 120.795446 C 298.243043 121.669431 298.322657 123.021101 297.193907 123.330711 C 296.185462 123.608476 295.585703 122.842412 295.184094 121.933042 C 294.66218 120.752985 294.025268 119.684387 293.291049 118.550329 Q 290.739861 114.596165 286.743235 112.007823 C 286.677775 111.965362 286.594622 112.020208 286.608776 112.096283 Q 287.155459 115.130463 287.319995 116.211445 C 287.889678 119.958614 288.066598 123.778319 287.792372 127.56264 Q 287.13246 136.682873 283.882437 145.300652 Q 283.066835 147.462616 281.826625 149.64581 C 281.497554 150.224339 280.759797 151.064709 280.0875 150.411874 Q 279.873427 150.204878 279.691199 149.652887 Q 279.204669 148.18445 278.921597 147.570537 Q 277.569927 144.631894 275.004585 141.622483 C 272.975311 139.242907 270.565659 137.004867 267.878243 135.177282 Q 267.361636 134.825211 266.929951 135.237435 C 265.427899 136.670488 265.843661 139.363213 266.563726 141.09703 Q 266.963566 142.057706 267.133409 142.427469 Q 267.435942 143.080304 268.612461 145.594339 C 268.76992 145.928718 268.780535 146.227713 268.936225 146.535554 C 269.109607 146.878779 269.044146 147.681997 268.994609 148.044683 C 268.824765 149.245971 267.602247 149.605118 266.664571 148.992975 Q 266.158579 148.662134 265.590666 147.862455 Q 263.902848 145.488187 262.195568 143.159918 Q 261.778037 142.590236 258.055638 137.466629 Q 256.725198 135.635506 256.461587 135.285204 C 256.426203 135.239204 256.351897 135.255127 256.341282 135.313511 Q 256.238668 135.851348 256.258129 136.452877 Q 256.314744 138.409613 256.718121 140.895341 Q 257.273651 144.318745 258.667781 147.444924 C 259.242772 148.736441 259.662072 149.348584 259.412615 150.46495 C 259.147235 151.648546 257.684105 151.747621 256.792428 151.291167 Q 255.886597 150.827636 254.895844 149.992573 Q 248.188802 144.348822 243.390729 138.269846 Q 242.145211 136.68818 240.761696 134.554524 Q 240.717466 134.489063 240.593621 134.400603 Z" style="fill:#042742;"/>
		<path d="M 297.349597 127.990787 Q 297.273521 127.061956 297.34252 126.279969 Q 297.40798 125.54752 298.168737 125.556366 Q 298.189967 125.556366 298.200582 125.554597 Q 298.920647 125.528059 298.918878 126.3242 L 298.904725 133.353236 Q 298.904725 133.952995 298.366887 133.96538 Q 298.365118 133.967149 298.343888 133.967149 Q 297.775974 133.977764 297.71936 133.436388 Q 297.657438 132.850783 297.639746 132.417329 C 297.597285 131.430114 297.482287 130.39867 297.476979 129.558299 Q 297.476979 129.549453 297.349597 127.990787 Z" style="fill:#042742;"/>
		<path d="M 219.893967 73.278239 C 219.571973 72.915553 219.131441 72.963321 218.765217 73.037628 Q 218.526375 73.087166 218.729833 72.952706 L 245.462463 55.283694 Q 245.598692 55.193464 245.573923 55.354462 C 245.451848 56.150602 245.285543 57.189123 245.664152 57.854343 Q 245.752612 58.010033 245.603999 58.109108 Q 229.555575 68.867621 221.344712 74.345068 C 221.121793 74.49545 220.974949 74.62814 220.847567 74.794445 Q 220.776799 74.888212 220.741415 74.776753 Q 220.474265 73.936382 219.893967 73.278239 Z" style="fill:#10aec6;"/>
		<path d="M 254.478313 83.314918 C 254.522543 83.286611 254.580926 83.298995 254.609234 83.343225 L 255.85652 85.255732 C 256.567739 86.347329 257.094961 87.265544 257.033039 87.306236 L 256.748198 87.492002 C 256.686276 87.532694 256.058209 86.679939 255.34699 85.588341 L 254.099704 83.675835 C 254.071396 83.631605 254.083781 83.573221 254.126242 83.544914 L 254.478313 83.314918 Z" style="fill:#daa248;"/>
	</g>
	<g id="surface4">
	</g>
</svg>
