<?xml version="1.0" encoding="utf-8"?>
<svg xmlns="http://www.w3.org/2000/svg" width="490pt" height="280pt" viewBox="0 0 490 280" version="1.1" xmlns:xlink="http://www.w3.org/1999/xlink">
	<g id="surface2" data-size="103.54630766187 148" data-bboxpos="193 52.898479347023" data-pivot="244.77315383094 126.89847934702" data-center="244.77315383094 126.89847934702">
		<path vector-effect="non-scaling-stroke" d="M 244.845654 57.189346 Q 205.175949 57.196244 201.302453 57.223838 C 198.829348 57.244533 197.163365 59.234745 197.18406 61.673357 Q 197.45655 92.240519 197.463449 126.943319 Q 197.470347 161.642671 197.208205 192.213282 C 197.18751 194.648445 198.853492 196.638656 201.326597 196.659352 Q 205.200093 196.686946 244.869799 196.680047 Q 284.539504 196.673149 288.413001 196.642106 C 290.886105 196.624859 292.552088 194.634648 292.531393 192.196036 Q 292.258903 161.625424 292.252004 126.926073 Q 292.245106 92.226722 292.507248 61.656111 C 292.527943 59.217498 290.861961 57.227287 288.388856 57.210041 Q 284.51536 57.182447 244.845654 57.189346" style="fill:none;stroke-width:0.50;stroke:#86b9d6;"/>
		<path vector-effect="non-scaling-stroke" d="M 282.345788 71.927947 C 282.345788 71.814122 282.256108 71.724442 282.142283 71.724442 L 207.397259 71.724442 C 207.283434 71.724442 207.193754 71.814122 207.193754 71.927947 L 207.193754 90.402074 C 207.193754 90.515899 207.283434 90.60558 207.397259 90.60558 L 282.142283 90.60558 C 282.256108 90.60558 282.345788 90.515899 282.345788 90.402074 L 282.345788 71.927947" style="fill:none;stroke-width:0.50;stroke:#86b9d6;"/>
		<path vector-effect="non-scaling-stroke" d="M 281.884521 110.579161 C 281.890488 109.138344 280.724645 107.965603 279.282587 107.95898 L 271.232096 107.930869 C 269.790556 107.924212 268.617814 109.090055 268.611916 110.532803 L 268.609984 111.09158 C 268.604017 112.532396 269.76986 113.705138 271.211918 113.71176 L 279.262409 113.739871 C 280.70395 113.746528 281.876691 112.580685 281.88259 111.137937 L 281.884521 110.579161" style="fill:none;stroke-width:0.50;stroke:#86b9d6;"/>
		<path vector-effect="non-scaling-stroke" d="M 258.501194 110.742241 C 258.501194 109.797149 257.735463 109.031418 256.790371 109.031418 L 209.873813 109.031418 C 208.928721 109.031418 208.16299 109.797149 208.16299 110.742241 L 208.16299 111.183743 C 208.16299 112.128835 208.928721 112.894566 209.873813 112.894566 L 256.790371 112.894566 C 257.735463 112.894566 258.501194 112.128835 258.501194 111.183743 L 258.501194 110.742241" style="fill:none;stroke-width:0.50;stroke:#86b9d6;"/>
		<path vector-effect="non-scaling-stroke" d="M 258.577077 123.187097 C 258.577077 122.242006 257.807897 121.472825 256.862805 121.472825 L 209.960044 121.472825 C 209.014952 121.472825 208.245772 122.242006 208.245772 123.187097 L 208.245772 123.483732 C 208.245772 124.428824 209.014952 125.198004 209.960044 125.198004 L 256.862805 125.198004 C 257.807897 125.198004 258.577077 124.428824 258.577077 123.483732 L 258.577077 123.187097" style="fill:none;stroke-width:0.50;stroke:#86b9d6;"/>
		<path vector-effect="non-scaling-stroke" d="M 281.894593 135.106566 C 281.900836 133.648641 280.721196 132.458654 279.261719 132.455239 L 271.349198 132.427611 C 269.890583 132.424161 268.704045 133.600352 268.697871 135.060484 L 268.696491 135.460596 C 268.690248 136.918521 269.869888 138.108508 271.329365 138.111923 L 279.241886 138.139551 C 280.700501 138.143001 281.887039 136.96681 281.893213 135.506678 L 281.894593 135.106566" style="fill:none;stroke-width:0.50;stroke:#86b9d6;"/>
		<path vector-effect="non-scaling-stroke" d="M 258.356326 135.069728 C 258.356326 134.076347 257.549204 133.269225 256.555823 133.269225 L 209.997986 133.269225 C 209.004605 133.269225 208.197483 134.076347 208.197483 135.069728 L 208.197483 135.338769 C 208.197483 136.33215 209.004605 137.139272 209.997986 137.139272 L 256.555823 137.139272 C 257.549204 137.139272 258.356326 136.33215 258.356326 135.338769 L 258.356326 135.069728" style="fill:none;stroke-width:0.50;stroke:#86b9d6;"/>
		<path vector-effect="non-scaling-stroke" d="M 257.511262 147.204153 C 257.511262 146.22112 256.714488 145.424346 255.731455 145.424346 L 209.960044 145.424346 C 208.977011 145.424346 208.180236 146.22112 208.180236 147.204153 L 208.180236 147.507686 C 208.180236 148.49072 208.977011 149.287494 209.960044 149.287494 L 255.731455 149.287494 C 256.714488 149.287494 257.511262 148.49072 257.511262 147.507686 L 257.511262 147.204153" style="fill:none;stroke-width:0.50;stroke:#86b9d6;"/>
		<path vector-effect="non-scaling-stroke" d="M 234.183813 159.008866 C 234.180605 157.983027 233.349338 157.15521 232.32488 157.156417 L 209.994537 157.195393 C 208.970112 157.196601 208.138846 158.027867 208.142088 159.054327 L 208.142536 159.323367 C 208.145744 160.349206 208.977011 161.177023 210.00147 161.175816 L 232.331813 161.13684 C 233.356237 161.135632 234.187504 160.304366 234.184261 159.277906 L 234.183813 159.008866" style="fill:none;stroke-width:0.50;stroke:#86b9d6;"/>
		<path vector-effect="non-scaling-stroke" d="M 281.500517 159.069469 C 281.497275 158.024418 280.648762 157.175905 279.603573 157.179147 L 271.456469 157.193358 C 270.411419 157.196601 269.562906 158.045114 269.566148 159.090302 L 269.566562 159.331749 C 269.569804 160.3768 270.418317 161.225313 271.463506 161.22207 L 279.61061 161.207859 C 280.65566 161.204617 281.504173 160.356104 281.500931 159.310916 L 281.500517 159.069469" style="fill:none;stroke-width:0.50;stroke:#86b9d6;"/>
		<path vector-effect="non-scaling-stroke" d="M 281.048874 175.215429 C 281.048874 174.142715 280.176216 173.270058 279.103503 173.270058 L 259.560111 173.270058 C 258.487397 173.270058 257.614739 174.142715 257.614739 175.215429 L 257.614739 175.491368 C 257.614739 176.564081 258.487397 177.436739 259.560111 177.436739 L 279.103503 177.436739 C 280.176216 177.436739 281.048874 176.564081 281.048874 175.491368 L 281.048874 175.215429" style="fill:none;stroke-width:0.50;stroke:#86b9d6;"/>
		<path d="M 295.884054 126.908827 C 295.884054 138.367201 296.008226 152.874703 296.135848 170.35545 C 296.191036 177.998965 296.549757 185.614886 296.529061 193.682658 C 296.529061 194.424244 296.508366 195.0796 296.260021 195.731506 Q 294.942411 199.211789 291.807052 200.412125 Q 290.537732 200.898467 287.005711 200.895018 Q 248.098287 200.846729 200.626402 200.898467 Q 196.197578 200.905366 193.879689 196.959436 Q 193.662387 196.590367 193.210536 194.80711 Q 192.972539 193.868917 193.003582 192.565104 C 193.065668 190.126492 192.993234 186.663455 193.145001 183.497053 Q 193.303666 180.19958 193.372651 174.722187 Q 193.658937 151.770947 193.662387 126.898479 Q 193.665836 102.026012 193.382998 79.071322 Q 193.317463 73.593929 193.158798 70.296456 C 193.007031 67.130054 193.082914 63.667018 193.020828 61.228405 Q 192.989785 59.924593 193.227782 58.986399 Q 193.679633 57.203143 193.896935 56.834074 Q 196.218273 52.891593 200.647097 52.898491 Q 248.118983 52.960578 287.026406 52.922636 Q 290.558428 52.922636 291.827748 53.408979 Q 294.959657 54.609314 296.277267 58.089597 C 296.525612 58.741503 296.546308 59.396859 296.546308 60.138445 C 296.563554 68.206217 296.204833 75.822138 296.146196 83.465653 C 296.015125 100.9464 295.887503 115.453902 295.884054 126.908827 Z M 244.845654 57.189346 Q 205.175949 57.196244 201.302453 57.223838 C 198.829348 57.244533 197.163365 59.234745 197.18406 61.673357 Q 197.45655 92.240519 197.463449 126.943319 Q 197.470347 161.642671 197.208205 192.213282 C 197.18751 194.648445 198.853492 196.638656 201.326597 196.659352 Q 205.200093 196.686946 244.869799 196.680047 Q 284.539504 196.673149 288.413001 196.642106 C 290.886105 196.624859 292.552088 194.634648 292.531393 192.196036 Q 292.258903 161.625424 292.252004 126.926073 Q 292.245106 92.226722 292.507248 61.656111 C 292.527943 59.217498 290.861961 57.227287 288.388856 57.210041 Q 284.51536 57.182447 244.845654 57.189346 Z" style="fill:#0c73ac;"/>
		<path d="M 292.252004 126.926073 Q 292.258903 161.625424 292.531393 192.196036 C 292.552088 194.634648 290.886105 196.624859 288.413001 196.642106 Q 284.539504 196.673149 244.869799 196.680047 Q 205.200093 196.686946 201.326597 196.659352 C 198.853492 196.638656 197.18751 194.648445 197.208205 192.213282 Q 197.470347 161.642671 197.463449 126.943319 Q 197.45655 92.240519 197.18406 61.673357 C 197.163365 59.234745 198.829348 57.244533 201.302453 57.223838 Q 205.175949 57.196244 244.845654 57.189346 Q 284.51536 57.182447 288.388856 57.210041 C 290.861961 57.227287 292.527943 59.217498 292.507248 61.656111 Q 292.245106 92.226722 292.252004 126.926073 Z M 282.345788 71.927947 C 282.345788 71.814122 282.256108 71.724442 282.142283 71.724442 L 207.397259 71.724442 C 207.283434 71.724442 207.193754 71.814122 207.193754 71.927947 L 207.193754 90.402074 C 207.193754 90.515899 207.283434 90.60558 207.397259 90.60558 L 282.142283 90.60558 C 282.256108 90.60558 282.345788 90.515899 282.345788 90.402074 L 282.345788 71.927947 Z M 281.884521 110.579161 C 281.890488 109.138344 280.724645 107.965603 279.282587 107.95898 L 271.232096 107.930869 C 269.790556 107.924212 268.617814 109.090055 268.611916 110.532803 L 268.609984 111.09158 C 268.604017 112.532396 269.76986 113.705138 271.211918 113.71176 L 279.262409 113.739871 C 280.70395 113.746528 281.876691 112.580685 281.88259 111.137937 L 281.884521 110.579161 Z M 258.501194 110.742241 C 258.501194 109.797149 257.735463 109.031418 256.790371 109.031418 L 209.873813 109.031418 C 208.928721 109.031418 208.16299 109.797149 208.16299 110.742241 L 208.16299 111.183743 C 208.16299 112.128835 208.928721 112.894566 209.873813 112.894566 L 256.790371 112.894566 C 257.735463 112.894566 258.501194 112.128835 258.501194 111.183743 L 258.501194 110.742241 Z M 258.577077 123.187097 C 258.577077 122.242006 257.807897 121.472825 256.862805 121.472825 L 209.960044 121.472825 C 209.014952 121.472825 208.245772 122.242006 208.245772 123.187097 L 208.245772 123.483732 C 208.245772 124.428824 209.014952 125.198004 209.960044 125.198004 L 256.862805 125.198004 C 257.807897 125.198004 258.577077 124.428824 258.577077 123.483732 L 258.577077 123.187097 Z M 281.894593 135.106566 C 281.900836 133.648641 280.721196 132.458654 279.261719 132.455239 L 271.349198 132.427611 C 269.890583 132.424161 268.704045 133.600352 268.697871 135.060484 L 268.696491 135.460596 C 268.690248 136.918521 269.869888 138.108508 271.329365 138.111923 L 279.241886 138.139551 C 280.700501 138.143001 281.887039 136.96681 281.893213 135.506678 L 281.894593 135.106566 Z M 258.356326 135.069728 C 258.356326 134.076347 257.549204 133.269225 256.555823 133.269225 L 209.997986 133.269225 C 209.004605 133.269225 208.197483 134.076347 208.197483 135.069728 L 208.197483 135.338769 C 208.197483 136.33215 209.004605 137.139272 209.997986 137.139272 L 256.555823 137.139272 C 257.549204 137.139272 258.356326 136.33215 258.356326 135.338769 L 258.356326 135.069728 Z M 257.511262 147.204153 C 257.511262 146.22112 256.714488 145.424346 255.731455 145.424346 L 209.960044 145.424346 C 208.977011 145.424346 208.180236 146.22112 208.180236 147.204153 L 208.180236 147.507686 C 208.180236 148.49072 208.977011 149.287494 209.960044 149.287494 L 255.731455 149.287494 C 256.714488 149.287494 257.511262 148.49072 257.511262 147.507686 L 257.511262 147.204153 Z M 234.183813 159.008866 C 234.180605 157.983027 233.349338 157.15521 232.32488 157.156417 L 209.994537 157.195393 C 208.970112 157.196601 208.138846 158.027867 208.142088 159.054327 L 208.142536 159.323367 C 208.145744 160.349206 208.977011 161.177023 210.00147 161.175816 L 232.331813 161.13684 C 233.356237 161.135632 234.187504 160.304366 234.184261 159.277906 L 234.183813 159.008866 Z M 281.500517 159.069469 C 281.497275 158.024418 280.648762 157.175905 279.603573 157.179147 L 271.456469 157.193358 C 270.411419 157.196601 269.562906 158.045114 269.566148 159.090302 L 269.566562 159.331749 C 269.569804 160.3768 270.418317 161.225313 271.463506 161.22207 L 279.61061 161.207859 C 280.65566 161.204617 281.504173 160.356104 281.500931 159.310916 L 281.500517 159.069469 Z M 281.048874 175.215429 C 281.048874 174.142715 280.176216 173.270058 279.103503 173.270058 L 259.560111 173.270058 C 258.487397 173.270058 257.614739 174.142715 257.614739 175.215429 L 257.614739 175.491368 C 257.614739 176.564081 258.487397 177.436739 259.560111 177.436739 L 279.103503 177.436739 C 280.176216 177.436739 281.048874 176.564081 281.048874 175.491368 L 281.048874 175.215429 Z" style="fill:#ffffff;"/>
		<path d="M 282.345788 90.402074 C 282.345788 90.515899 282.256108 90.60558 282.142283 90.60558 L 207.397259 90.60558 C 207.283434 90.60558 207.193754 90.515899 207.193754 90.402074 L 207.193754 71.927947 C 207.193754 71.814122 207.283434 71.724442 207.397259 71.724442 L 282.142283 71.724442 C 282.256108 71.724442 282.345788 71.814122 282.345788 71.927947 L 282.345788 90.402074 Z" style="fill:#0c73ac;"/>
		<path d="M 281.88259 111.137937 C 281.876691 112.580685 280.70395 113.746528 279.262409 113.739871 L 271.211918 113.71176 C 269.76986 113.705138 268.604017 112.532396 268.609984 111.09158 L 268.611916 110.532803 C 268.617814 109.090055 269.790556 107.924212 271.232096 107.930869 L 279.282587 107.95898 C 280.724645 107.965603 281.890488 109.138344 281.884521 110.579161 L 281.88259 111.137937 Z" style="fill:#0c73ac;"/>
		<path d="M 258.501194 111.183743 C 258.501194 112.128835 257.735463 112.894566 256.790371 112.894566 L 209.873813 112.894566 C 208.928721 112.894566 208.16299 112.128835 208.16299 111.183743 L 208.16299 110.742241 C 208.16299 109.797149 208.928721 109.031418 209.873813 109.031418 L 256.790371 109.031418 C 257.735463 109.031418 258.501194 109.797149 258.501194 110.742241 L 258.501194 111.183743 Z" style="fill:#0c73ac;"/>
		<path d="M 258.577077 123.483732 C 258.577077 124.428824 257.807897 125.198004 256.862805 125.198004 L 209.960044 125.198004 C 209.014952 125.198004 208.245772 124.428824 208.245772 123.483732 L 208.245772 123.187097 C 208.245772 122.242006 209.014952 121.472825 209.960044 121.472825 L 256.862805 121.472825 C 257.807897 121.472825 258.577077 122.242006 258.577077 123.187097 L 258.577077 123.483732 Z" style="fill:#0c73ac;"/>
		<path d="M 281.893213 135.506678 C 281.887039 136.96681 280.700501 138.143001 279.241886 138.139551 L 271.329365 138.111923 C 269.869888 138.108508 268.690248 136.918521 268.696491 135.460596 L 268.697871 135.060484 C 268.704045 133.600352 269.890583 132.424161 271.349198 132.427611 L 279.261719 132.455239 C 280.721196 132.458654 281.900836 133.648641 281.894593 135.106566 L 281.893213 135.506678 Z" style="fill:#0c73ac;"/>
		<path d="M 258.356326 135.338769 C 258.356326 136.33215 257.549204 137.139272 256.555823 137.139272 L 209.997986 137.139272 C 209.004605 137.139272 208.197483 136.33215 208.197483 135.338769 L 208.197483 135.069728 C 208.197483 134.076347 209.004605 133.269225 209.997986 133.269225 L 256.555823 133.269225 C 257.549204 133.269225 258.356326 134.076347 258.356326 135.069728 L 258.356326 135.338769 Z" style="fill:#0c73ac;"/>
		<path d="M 257.511262 147.507686 C 257.511262 148.49072 256.714488 149.287494 255.731455 149.287494 L 209.960044 149.287494 C 208.977011 149.287494 208.180236 148.49072 208.180236 147.507686 L 208.180236 147.204153 C 208.180236 146.22112 208.977011 145.424346 209.960044 145.424346 L 255.731455 145.424346 C 256.714488 145.424346 257.511262 146.22112 257.511262 147.204153 L 257.511262 147.507686 Z" style="fill:#0c73ac;"/>
		<path d="M 234.184261 159.277906 C 234.187504 160.304366 233.356237 161.135632 232.331813 161.13684 L 210.00147 161.175816 C 208.977011 161.177023 208.145744 160.349206 208.142536 159.323367 L 208.142088 159.054327 C 208.138846 158.027867 208.970112 157.196601 209.994537 157.195393 L 232.32488 157.156417 C 233.349338 157.15521 234.180605 157.983027 234.183813 159.008866 L 234.184261 159.277906 Z" style="fill:#0c73ac;"/>
		<path d="M 281.500931 159.310916 C 281.504173 160.356104 280.65566 161.204617 279.61061 161.207859 L 271.463506 161.22207 C 270.418317 161.225313 269.569804 160.3768 269.566562 159.331749 L 269.566148 159.090302 C 269.562906 158.045114 270.411419 157.196601 271.456469 157.193358 L 279.603573 157.179147 C 280.648762 157.175905 281.497275 158.024418 281.500517 159.069469 L 281.500931 159.310916 Z" style="fill:#0c73ac;"/>
		<path d="M 281.048874 175.491368 C 281.048874 176.564081 280.176216 177.436739 279.103503 177.436739 L 259.560111 177.436739 C 258.487397 177.436739 257.614739 176.564081 257.614739 175.491368 L 257.614739 175.215429 C 257.614739 174.142715 258.487397 173.270058 259.560111 173.270058 L 279.103503 173.270058 C 280.176216 173.270058 281.048874 174.142715 281.048874 175.215429 L 281.048874 175.491368 Z" style="fill:#0c73ac;"/>
	</g>
	<g id="surface4">
	</g>
</svg>
