<?xml version="1.0" encoding="utf-8"?>
<svg xmlns="http://www.w3.org/2000/svg" width="490pt" height="280pt" viewBox="0 0 490 280" version="1.1" xmlns:xlink="http://www.w3.org/1999/xlink">
	<g id="surface2" data-size="240.6558914564 148" data-bboxpos="124.5 56.113903302982" data-pivot="244.8279457282 130.11390330298" data-center="244.8279457282 130.11390330298">
		<path d="M 279.0278 139.81982 Q 279.149167 139.764194 279.265477 139.506289 Q 279.634634 138.702234 281.81418 133.058676 Q 282.16311 132.153481 283.978556 128.603501 C 287.867352 120.997846 293.500796 114.044537 300.039434 107.693006 Q 324.692074 83.74834 346.962889 62.200669 Q 350.437014 58.837796 353.021117 57.047635 Q 355.640618 55.23219 358.356201 56.946496 C 358.391599 56.971781 358.426998 56.997066 358.452283 57.027408 L 364.409372 63.818894 C 364.424543 63.839121 364.439713 63.864406 364.454884 63.894748 Q 366.416982 68.102132 362.887229 70.928968 Q 360.429551 72.896122 357.976929 74.605372 Q 351.256241 79.288109 338.00197 88.886203 Q 325.030889 98.282019 314.527601 108.375695 C 301.859937 120.552834 291.98371 135.733803 285.323705 152.24475 Q 283.1745 157.564663 282.977279 157.933821 C 282.896368 158.085529 282.850856 158.247352 282.835685 158.419288 C 282.769944 159.385166 282.056914 160.447126 281.697871 161.549541 Q 280.848303 164.148814 280.079646 166.485126 Q 279.852083 167.188042 279.619463 168.229774 C 279.432356 169.059114 279.012629 169.590094 278.815408 170.515517 Q 278.694041 171.092009 277.576455 174.753242 C 276.752172 177.463768 275.988572 180.958122 275.265428 183.405686 C 274.658594 185.448695 274.269209 187.54733 273.3539 189.691477 C 273.267932 189.888698 272.999914 189.903869 272.888661 189.721819 Q 272.509389 189.094757 272.514446 188.14405 Q 272.64087 153.286482 272.565016 118.444085 C 272.565016 117.968732 273.095996 117.685543 273.490438 117.958618 L 274.390575 118.575566 C 274.471487 118.631193 274.537227 118.70199 274.58274 118.782901 Q 276.782514 122.585729 277.475316 125.584501 Q 277.839416 127.177441 278.415909 132.755259 C 278.643472 134.995488 278.092264 137.271116 278.324884 139.425378 C 278.360282 139.764194 278.719326 139.966472 279.0278 139.81982 Z" style="fill:#0075ba;"/>
		<path d="M 214.991621 98.590493 C 214.996678 99.035505 215.350665 99.389492 215.795677 99.399605 Q 233.783254 99.647396 259.381543 99.652453 Q 261.722912 99.652453 263.492845 100.279515 Q 265.085784 100.840837 266.365193 102.838333 C 266.471389 103.005212 266.547243 103.192319 266.582642 103.384483 Q 267.098451 106.170864 266.709066 109.093782 C 266.648382 109.564078 266.248883 109.918065 265.77353 109.918065 Q 221.970215 109.907951 140.780856 109.816926 C 139.526732 109.816926 139.182859 109.038155 139.177802 107.864943 Q 139.14746 103.298515 139.223315 99.778877 Q 139.243543 98.600607 140.214477 95.389443 Q 141.069102 92.552493 144.194298 90.580282 C 145.124777 89.993675 146.469926 89.700372 147.729107 89.204791 C 147.931385 89.12388 148.148834 89.083424 148.37134 89.078367 C 158.748205 88.936772 177.640976 88.896317 206.182412 88.77495 C 207.198859 88.769893 208.22542 88.936772 209.332892 89.042968 C 209.525057 89.063196 209.712164 89.118823 209.8841 89.209848 Q 212.609797 90.630851 213.681871 92.926707 Q 214.956223 95.657461 214.991621 98.590493 Z" style="fill:#0075ba;"/>
		<path d="M 264.655943 119.617298 C 266.1882 121.463086 266.577585 123.172335 266.582642 125.837349 Q 266.638269 160.285303 266.582642 194.379271 C 266.582642 194.622005 266.5523 194.869796 266.491617 195.102415 C 264.746969 202.09618 258.784823 204.41732 252.195615 204.098732 Q 251.598894 204.068391 249.105817 204.063334 Q 189.140484 203.982423 135.086728 204.113903 C 132.92741 204.11896 129.357202 202.465337 127.678294 200.720689 Q 124.517699 197.443784 124.517699 193.064464 Q 124.482301 143.496224 124.517699 126.322816 Q 124.522756 124.300035 125.316698 121.963724 C 126.575879 118.262035 130.161257 117.518663 133.701124 117.518663 Q 195.436389 117.549005 258.870791 117.382126 C 260.974483 117.377069 263.325965 118.014244 264.655943 119.617298 Z" style="fill:#0075ba;"/>
	</g>
	<g id="surface4">
	</g>
</svg>
