<?xml version="1.0" encoding="utf-8"?>
<svg xmlns="http://www.w3.org/2000/svg" width="490pt" height="280pt" viewBox="0 0 490 280" version="1.1" xmlns:xlink="http://www.w3.org/1999/xlink">
	<g id="surface2" data-size="171.97380118142 148" data-bboxpos="159 51.562812791936" data-pivot="244.98690059071 125.56281279194" data-center="244.98690059071 125.56281279194">
		<path vector-effect="non-scaling-stroke" d="M 197.371726 134.453844 C 197.505234 134.40656 197.585895 134.273053 197.566425 134.133982 Q 195.410835 118.246589 193.922782 105.671851 Q 193.547293 102.509392 193.920001 99.491566 C 194.156421 97.602991 194.746079 96.050966 196.206317 94.960655 C 198.470382 93.272341 201.435361 92.61871 203.935845 91.778726 Q 204.611727 91.55065 204.614509 90.774638 Q 204.659011 80.166354 204.620071 72.550863 C 204.614509 71.491147 203.095861 71.499492 202.286471 71.466115 Q 201.143313 71.416049 198.359126 71.402142 C 197.090804 71.393798 196.637435 71.499492 196.631872 72.9792 C 196.626309 74.770426 196.709752 75.905239 196.473332 77.123495 C 195.702883 81.081437 192.776843 83.776619 188.857841 84.480315 C 183.175428 85.495529 177.287191 82.995044 176.413829 76.786945 Q 176.33595 76.239008 176.352638 73.872031 C 176.360982 72.667682 176.238601 72.066898 174.920214 72.005708 C 169.382434 71.747037 166.80407 75.571471 166.528711 80.683696 C 166.272821 85.45937 167.229625 90.949867 172.330725 92.846786 Q 174.185923 93.536574 175.334643 93.920409 Q 177.025739 94.490597 177.732216 94.996813 C 180.672162 97.110682 181.145001 100.245327 181.125532 103.627517 Q 181.092155 109.746611 180.992024 133.388565 Q 180.989243 134.039414 181.136657 134.412123 C 181.170034 134.498346 181.253476 134.553975 181.345263 134.553975 Q 188.087392 134.540068 196.453862 134.567882 Q 197.040739 134.570663 197.371726 134.453844" style="fill:none;stroke-width:0.50;stroke:#7e1f18;"/>
		<path vector-effect="non-scaling-stroke" d="M 320.473992 74.795458 L 320.473992 84.930903 C 320.473992 85.172885 320.671472 85.370365 320.913454 85.370365 L 321.008022 85.370365 C 323.252617 85.370365 325.074438 83.623642 325.074438 81.468052 L 325.074438 78.258309 C 325.074438 76.102719 323.252617 74.355996 321.008022 74.355996 L 320.913454 74.355996 C 320.671472 74.355996 320.473992 74.553476 320.473992 74.795458" style="fill:none;stroke-width:0.50;stroke:#7e1f18;"/>
		<path vector-effect="non-scaling-stroke" d="M 250.833139 89.942997 L 237.74384 89.920746 C 237.38782 89.920746 237.098554 90.207231 237.098554 90.56047 L 237.09021 95.586471 C 237.087428 97.046709 239.854928 98.23437 243.270495 98.239933 L 245.273107 98.245495 C 248.691456 98.251058 251.461737 97.071742 251.464518 95.614285 L 251.472862 90.588284 C 251.472862 90.232264 251.186377 89.942997 250.833139 89.942997" style="fill:none;stroke-width:0.50;stroke:#7e1f18;"/>
		<path vector-effect="non-scaling-stroke" d="M 307.092646 90.844173 C 307.12046 90.379678 306.750533 89.984719 306.283257 89.984719 L 294.985184 89.984719 C 294.506782 89.984719 294.131292 90.396367 294.178576 90.871987 L 294.893397 98.184305 C 294.935119 98.598734 295.282794 98.915814 295.700005 98.915814 L 305.827106 98.915814 C 306.252661 98.915814 306.6059 98.584827 306.633714 98.15649 L 307.092646 90.844173" style="fill:none;stroke-width:0.50;stroke:#7e1f18;"/>
		<path vector-effect="non-scaling-stroke" d="M 278.079796 93.514323 Q 276.847633 93.263997 274.747671 92.946916 C 274.01338 92.83566 273.482131 93.035921 273.112204 93.642268 Q 272.355661 94.868868 271.693687 96.284604 C 271.387732 96.938234 270.989991 97.70034 271.827194 97.933978 Q 273.960533 98.529199 276.641809 99.277397 C 276.919949 99.355277 277.203653 99.177267 277.253718 98.893563 L 278.193833 93.683989 C 278.20774 93.60611 278.157675 93.531012 278.079796 93.514323" style="fill:none;stroke-width:0.50;stroke:#7e1f18;"/>
		<path vector-effect="non-scaling-stroke" d="M 295.569279 102.692964 C 295.307827 102.692964 295.082533 102.8821 295.035249 103.137989 L 289.483562 133.928158 C 289.425152 134.261927 289.681042 134.567882 290.017592 134.567882 L 310.54159 134.567882 C 310.872577 134.567882 311.125685 134.273053 311.07562 133.944847 L 306.458485 103.154678 C 306.419546 102.890444 306.19147 102.692964 305.921674 102.692964 L 295.569279 102.692964" style="fill:none;stroke-width:0.50;stroke:#7e1f18;"/>
		<path vector-effect="non-scaling-stroke" d="M 324.760139 142.422573 C 324.760139 141.896887 324.334584 141.471332 323.808898 141.471332 L 166.292291 141.471332 C 165.766605 141.471332 165.34105 141.896887 165.34105 142.422573 L 165.34105 169.891743 C 165.34105 170.417429 165.766605 170.842984 166.292291 170.842984 L 323.808898 170.842984 C 324.334584 170.842984 324.760139 170.417429 324.760139 169.891743 L 324.760139 142.422573" style="fill:none;stroke-width:0.50;stroke:#808080;"/>
		<path vector-effect="non-scaling-stroke" d="M 174.582356 146.170741 C 174.580882 145.952178 174.405654 145.776949 174.186729 145.776449 L 170.437393 145.783013 C 170.219637 145.782512 170.041627 145.960522 170.043129 146.17864 L 170.045716 147.658348 C 170.04719 147.876911 170.222419 148.05214 170.441343 148.05264 L 174.190679 148.046076 C 174.408435 148.046577 174.586445 147.868567 174.584943 147.650449 L 174.582356 146.170741" style="fill:none;stroke-width:0.50;stroke:#808080;"/>
		<path vector-effect="non-scaling-stroke" d="M 185.165441 146.156417 C 185.166915 145.946615 184.994468 145.774168 184.785056 145.774696 L 181.002343 145.768077 C 180.791763 145.768605 180.622097 145.938271 180.620623 146.148462 L 180.618008 147.644858 C 180.616534 147.85466 180.788981 148.027107 180.998394 148.026579 L 184.781106 148.033198 C 184.991686 148.03267 185.161352 147.863004 185.162826 147.652813 L 185.165441 146.156417" style="fill:none;stroke-width:0.50;stroke:#808080;"/>
		<path vector-effect="non-scaling-stroke" d="M 198.81269 146.155666 C 198.812495 145.932708 198.631703 145.751917 198.407995 145.753752 L 194.680938 145.766769 C 194.456812 145.768605 194.278802 145.949397 194.279025 146.171492 L 194.284171 147.640047 C 194.284365 147.863004 194.465157 148.043796 194.688865 148.04196 L 198.415922 148.028943 C 198.640048 148.027107 198.818058 147.846316 198.817835 147.62422 L 198.81269 146.155666" style="fill:none;stroke-width:0.50;stroke:#808080;"/>
		<path vector-effect="non-scaling-stroke" d="M 212.835233 146.151744 C 212.833565 145.927145 212.649992 145.746354 212.427034 145.747772 L 208.716694 145.767214 C 208.491789 145.768605 208.310998 145.952178 208.312722 146.175414 L 208.320454 147.649531 C 208.322123 147.87413 208.505696 148.054921 208.728654 148.053503 L 212.438994 148.034061 C 212.663899 148.03267 212.84469 147.849097 212.842966 147.625861 L 212.835233 146.151744" style="fill:none;stroke-width:0.50;stroke:#808080;"/>
		<path vector-effect="non-scaling-stroke" d="M 225.896662 146.231987 C 225.895049 145.971648 225.686443 145.763042 225.425798 145.762764 L 221.9101 145.768883 C 221.650623 145.768605 221.439236 145.979992 221.440849 146.239775 L 221.443185 147.57485 C 221.444799 147.83519 221.653404 148.043796 221.91405 148.044074 L 225.429747 148.037955 C 225.689225 148.038233 225.900612 147.826846 225.898999 147.567063 L 225.896662 146.231987" style="fill:none;stroke-width:0.50;stroke:#808080;"/>
		<path vector-effect="non-scaling-stroke" d="M 235.502722 146.513966 C 235.504808 146.110718 235.176602 145.785294 234.775273 145.783986 L 233.095303 145.781038 C 232.692806 145.779731 232.367382 146.105155 232.365296 146.508515 L 232.363905 147.30956 C 232.361819 147.712808 232.690025 148.038233 233.091354 148.03954 L 234.771323 148.042488 C 235.173821 148.043796 235.499245 147.718371 235.501331 147.315012 L 235.502722 146.513966" style="fill:none;stroke-width:0.50;stroke:#808080;"/>
		<path vector-effect="non-scaling-stroke" d="M 246.072901 146.184537 C 246.071371 145.952178 245.885017 145.765824 245.652185 145.765295 L 241.852784 145.771915 C 241.621121 145.771387 241.431985 145.960522 241.433515 146.192658 L 241.436018 147.627864 C 241.437548 147.860223 241.623902 148.046577 241.856734 148.047105 L 245.656135 148.040486 C 245.887798 148.041014 246.076934 147.851879 246.075404 147.619742 L 246.072901 146.184537" style="fill:none;stroke-width:0.50;stroke:#808080;"/>
		<path vector-effect="non-scaling-stroke" d="M 259.074807 146.164149 C 259.074446 145.946615 258.896436 145.771387 258.677094 145.771943 L 254.844427 145.7987 C 254.626977 145.799201 254.451748 145.977211 254.452221 146.196413 L 254.462512 147.670503 C 254.462874 147.888037 254.640884 148.063265 254.860226 148.062709 L 258.692893 148.035952 C 258.910343 148.035451 259.085571 147.857441 259.085099 147.638239 L 259.074807 146.164149" style="fill:none;stroke-width:0.50;stroke:#808080;"/>
		<path vector-effect="non-scaling-stroke" d="M 271.946711 146.085991 C 271.946795 145.902113 271.796599 145.754698 271.614556 145.756144 L 267.664986 145.76994 C 267.482637 145.771387 267.335223 145.918801 267.335167 146.102096 L 267.340869 147.737535 C 267.340786 147.921414 267.490982 148.068828 267.673025 148.067382 L 271.622594 148.053586 C 271.804943 148.05214 271.952357 147.904725 271.952413 147.721431 L 271.946711 146.085991" style="fill:none;stroke-width:0.50;stroke:#808080;"/>
		<path vector-effect="non-scaling-stroke" d="M 288.438143 146.147906 C 288.437753 145.924364 288.25418 145.743573 288.02922 145.744685 L 284.352284 145.77033 C 284.129355 145.771387 283.948563 145.954959 283.949064 146.179252 L 283.959299 147.647807 C 283.959689 147.871348 284.143262 148.05214 284.368222 148.051027 L 288.045158 148.025383 C 288.268087 148.024326 288.448879 147.840753 288.448378 147.61646 L 288.438143 146.147906" style="fill:none;stroke-width:0.50;stroke:#808080;"/>
		<path vector-effect="non-scaling-stroke" d="M 301.070901 147.595989 L 301.070901 146.19416 C 301.073682 145.952178 300.876203 145.754698 300.63422 145.754698 L 297.599706 145.749135 C 297.129648 145.749135 296.748595 146.130188 296.748595 146.600246 L 296.748595 147.178778 C 296.748595 147.648836 297.126867 148.029889 297.594143 148.029889 L 300.628657 148.035451 C 300.873421 148.035451 301.06812 147.840753 301.070901 147.595989" style="fill:none;stroke-width:0.50;stroke:#808080;"/>
		<path vector-effect="non-scaling-stroke" d="M 318.668859 146.163565 C 318.668859 145.949397 318.496412 145.776949 318.282244 145.776949 L 314.594099 145.776949 C 314.379931 145.776949 314.207483 145.949397 314.207483 146.163565 L 314.207483 147.643273 C 314.207483 147.857441 314.379931 148.029889 314.594099 148.029889 L 318.282244 148.029889 C 318.496412 148.029889 318.668859 147.857441 318.668859 147.643273 L 318.668859 146.163565" style="fill:none;stroke-width:0.50;stroke:#808080;"/>
		<path vector-effect="non-scaling-stroke" d="M 307.811083 146.677402 C 307.81303 146.216412 307.440322 145.840922 306.979582 145.84006 L 305.878145 145.836221 C 305.418239 145.835359 305.042749 146.208067 305.04083 146.667723 L 305.039134 147.151687 C 305.037187 147.612678 305.409895 147.988167 305.870635 147.98903 L 306.972072 147.992868 C 307.431977 147.99373 307.807467 147.621022 307.809386 147.161367 L 307.811083 146.677402" style="fill:none;stroke-width:0.50;stroke:#808080;"/>
		<path vector-effect="non-scaling-stroke" d="M 188.743804 156.624434 C 188.743804 154.49944 187.022113 152.777749 184.897119 152.777749 C 182.772124 152.777749 181.050434 154.49944 181.050434 156.624434 C 181.050434 158.749429 182.772124 160.471119 184.897119 160.471119 C 187.022113 160.471119 188.743804 158.749429 188.743804 156.624434" style="fill:none;stroke-width:0.50;stroke:#808080;"/>
		<path vector-effect="non-scaling-stroke" d="M 298.051629 153.159525 C 296.178407 153.751242 295.149287 155.776105 295.750488 157.682203 C 296.350854 159.589414 298.356248 160.657474 300.229581 160.067092 C 302.102803 159.475376 303.131923 157.450512 302.530722 155.544414 C 301.930356 153.637204 299.924962 152.569144 298.051629 153.159525" style="fill:none;stroke-width:0.50;stroke:#808080;"/>
		<path vector-effect="non-scaling-stroke" d="M 198.795612 164.734543 C 198.795806 164.498596 198.606671 164.30946 198.371559 164.307513 L 194.716791 164.294747 C 194.481845 164.292772 194.289928 164.484689 194.289761 164.7188 L 194.28456 166.209634 C 194.284365 166.44558 194.473501 166.634716 194.708613 166.636663 L 198.363381 166.64943 C 198.598327 166.651404 198.790244 166.459487 198.790411 166.225376 L 198.795612 164.734543" style="fill:none;stroke-width:0.50;stroke:#808080;"/>
		<path vector-effect="non-scaling-stroke" d="M 212.83871 164.795761 C 212.839127 164.520847 212.616615 164.298335 212.342563 164.296165 L 208.815767 164.283843 C 208.541854 164.281646 208.316561 164.504159 208.316171 164.779963 L 208.311415 166.137289 C 208.310998 166.412203 208.53351 166.634716 208.807562 166.636885 L 212.334358 166.649207 C 212.608271 166.651404 212.833565 166.428892 212.833954 166.153088 L 212.83871 164.795761" style="fill:none;stroke-width:0.50;stroke:#808080;"/>
		<path vector-effect="non-scaling-stroke" d="M 225.887929 164.892526 C 225.889486 164.568131 225.628034 164.301116 225.302387 164.298752 L 222.003722 164.275722 C 221.678437 164.273302 221.411422 164.534754 221.409976 164.861263 L 221.401854 166.023836 C 221.400296 166.348231 221.661748 166.615246 221.987395 166.61761 L 225.28606 166.64064 C 225.611345 166.64306 225.878361 166.381608 225.879807 166.055099 L 225.887929 164.892526" style="fill:none;stroke-width:0.50;stroke:#808080;"/>
		<path vector-effect="non-scaling-stroke" d="M 235.539186 165.03524 C 235.543748 164.640448 235.226667 164.317804 234.830623 164.314189 L 233.117332 164.299252 C 232.723402 164.295553 232.400759 164.612634 232.396308 165.007816 L 232.388632 165.886685 C 232.38407 166.281477 232.70115 166.60412 233.097195 166.607736 L 234.810486 166.622672 C 235.204416 166.626372 235.527059 166.309291 235.53151 165.914109 L 235.539186 165.03524" style="fill:none;stroke-width:0.50;stroke:#808080;"/>
		<path vector-effect="non-scaling-stroke" d="M 246.04937 164.743721 C 246.04912 164.495814 245.846077 164.295553 245.600006 164.297472 L 241.911889 164.31035 C 241.665623 164.312242 241.465362 164.512503 241.46564 164.759714 L 241.470674 166.194892 C 241.470925 166.442799 241.673967 166.64306 241.920038 166.641141 L 245.608156 166.628263 C 245.854421 166.626372 246.054683 166.42611 246.054404 166.178899 L 246.04937 164.743721" style="fill:none;stroke-width:0.50;stroke:#808080;"/>
		<path vector-effect="non-scaling-stroke" d="M 259.06332 164.762829 C 259.06332 164.50694 258.854715 164.298335 258.598825 164.298335 L 254.932932 164.298335 C 254.677042 164.298335 254.468437 164.50694 254.468437 164.762829 L 254.468437 166.175784 C 254.468437 166.431673 254.677042 166.640279 254.932932 166.640279 L 258.598825 166.640279 C 258.854715 166.640279 259.06332 166.431673 259.06332 166.175784 L 259.06332 164.762829" style="fill:none;stroke-width:0.50;stroke:#808080;"/>
		<path vector-effect="non-scaling-stroke" d="M 271.948102 164.699747 C 271.949576 164.481907 271.774347 164.303897 271.5552 164.302729 L 267.755855 164.282842 C 267.538266 164.281646 267.360255 164.456875 267.358837 164.675716 L 267.350604 166.244429 C 267.34913 166.462269 267.524358 166.640279 267.743505 166.641447 L 271.542851 166.661334 C 271.76044 166.66253 271.93845 166.487301 271.939869 166.26846 L 271.948102 164.699747" style="fill:none;stroke-width:0.50;stroke:#808080;"/>
		<path vector-effect="non-scaling-stroke" d="M 288.437447 164.762273 C 288.437753 164.50694 288.231929 164.301116 287.977347 164.298974 L 284.433863 164.286597 C 284.17942 164.284428 283.970814 164.493033 283.970536 164.746697 L 283.965558 166.17634 C 283.965252 166.431673 284.171076 166.637497 284.425658 166.639639 L 287.969142 166.652016 C 288.223585 166.654186 288.43219 166.44558 288.432468 166.191916 L 288.437447 164.762273" style="fill:none;stroke-width:0.50;stroke:#808080;"/>
		<path vector-effect="non-scaling-stroke" d="M 301.076464 166.125719 L 301.087589 164.835146 C 301.090371 164.551443 300.862296 164.317804 300.578592 164.315023 L 297.585799 164.28999 C 297.118523 164.284428 296.740251 164.648792 296.734688 165.102161 L 296.729126 165.780824 C 296.726344 166.234193 297.099053 166.60412 297.563548 166.609683 L 300.556341 166.634716 C 300.842826 166.637497 301.073682 166.409422 301.076464 166.125719" style="fill:none;stroke-width:0.50;stroke:#808080;"/>
		<path vector-effect="non-scaling-stroke" d="M 318.660738 164.735572 C 318.660515 164.493033 318.463035 164.295553 318.219746 164.297639 L 314.637322 164.310156 C 314.393838 164.312242 314.199139 164.509721 314.19939 164.751148 L 314.20448 166.208605 C 314.204702 166.451143 314.402182 166.648623 314.645471 166.646537 L 318.227895 166.634021 C 318.471379 166.631935 318.666078 166.434455 318.665828 166.193029 L 318.660738 164.735572" style="fill:none;stroke-width:0.50;stroke:#808080;"/>
		<path vector-effect="non-scaling-stroke" d="M 174.562942 164.747782 C 174.561413 164.498596 174.361151 164.298335 174.111576 164.297973 L 170.512436 164.304259 C 170.26414 164.303897 170.061097 164.50694 170.062627 164.755626 L 170.06513 166.190831 C 170.06666 166.440018 170.266921 166.640279 170.516497 166.64064 L 174.115637 166.634354 C 174.363933 166.634716 174.566975 166.431673 174.565446 166.182988 L 174.562942 164.747782" style="fill:none;stroke-width:0.50;stroke:#808080;"/>
		<path vector-effect="non-scaling-stroke" d="M 185.133538 164.698857 C 185.133538 164.484689 184.95831 164.30946 184.744141 164.30946 L 181.005931 164.30946 C 180.791763 164.30946 180.616534 164.484689 180.616534 164.698857 L 180.616534 166.245319 C 180.616534 166.459487 180.791763 166.634716 181.005931 166.634716 L 184.744141 166.634716 C 184.95831 166.634716 185.133538 166.459487 185.133538 166.245319 L 185.133538 164.698857" style="fill:none;stroke-width:0.50;stroke:#808080;"/>
		<path vector-effect="non-scaling-stroke" d="M 305.117847 165.739103 C 305.117847 166.192472 305.487774 166.562399 305.941144 166.562399 L 306.978608 166.562399 C 307.431977 166.562399 307.801904 166.192472 307.801904 165.739103 L 307.801904 165.132757 C 307.801904 164.679387 307.431977 164.30946 306.978608 164.30946 L 305.941144 164.30946 C 305.487774 164.30946 305.117847 164.679387 305.117847 165.132757 L 305.117847 165.739103" style="fill:none;stroke-width:0.50;stroke:#808080;"/>
		<path d="M 222.810469 72.467421 Q 222.802125 69.199269 222.796562 68.904439 Q 222.757623 66.968581 222.999605 65.352583 C 223.731115 60.496248 226.084185 55.37846 230.114442 52.385667 C 230.95999 51.75985 231.969641 51.567933 233.129487 51.579059 C 235.006936 51.592966 236.806506 51.350984 238.083172 52.346727 Q 239.535066 53.484322 239.526722 55.712229 Q 239.490563 63.636456 239.515596 66.771101 C 239.554536 71.413268 245.250856 73.159991 247.979416 69.533037 C 248.841652 68.387098 248.886154 66.498523 248.902843 64.968749 Q 248.961252 58.677208 248.925094 55.372897 Q 248.908405 54.040604 249.317272 53.364722 Q 250.171164 51.943423 251.673123 51.704222 Q 253.172301 51.46224 256.351449 51.654157 C 256.484956 51.662501 256.618464 51.690315 256.746409 51.737599 L 257.427853 51.999051 C 257.491826 52.024084 257.553017 52.054679 257.611426 52.096401 Q 260.089659 53.901533 261.697312 56.390892 C 265.048907 61.569871 266.072464 67.850286 265.112879 73.952692 Q 265.087846 74.114014 265.121223 74.266991 C 265.17407 74.497848 265.438304 74.611885 265.644128 74.492285 Q 267.771904 73.246215 268.826057 72.673245 Q 276.196784 68.659676 284.401932 67.371885 Q 286.882947 66.982488 290.153881 66.98805 Q 296.484362 67.001957 308.196864 67.00752 Q 310.516557 67.00752 312.510826 67.177186 Q 315.804011 67.455327 316.808098 67.591616 Q 319.408713 67.939291 322.242967 68.66802 C 324.698948 69.299399 327.113209 70.598316 328.79596 72.531393 C 330.698442 74.72036 330.97102 77.732623 330.868108 80.83111 Q 330.781884 83.445632 330.025342 85.139509 C 328.620731 88.296405 326.072963 89.645387 322.871564 90.593847 Q 321.967607 90.860862 320.718756 90.983243 Q 319.764733 91.07503 318.705018 91.378203 C 318.641045 91.394892 318.577073 91.406017 318.513101 91.408799 L 313.406438 91.595153 C 313.222866 91.600716 313.058763 91.717535 312.992009 91.8872 Q 312.819562 92.329444 312.763934 92.902414 Q 312.421821 96.387516 312.352285 98.406817 C 312.305001 99.794739 311.962888 101.961454 312.154806 103.41613 Q 312.546984 106.372765 313.937687 115.153665 C 314.802704 120.633036 315.214353 123.737085 316.082151 129.183079 Q 316.282413 130.43193 316.833131 134.236894 C 316.860945 134.439937 317.038955 134.590133 317.244779 134.587351 Q 320.462866 134.537286 322.662959 134.562319 C 324.387431 134.581789 326.44289 135.31608 327.833593 136.500959 Q 330.050374 138.389534 330.729037 141.09028 Q 330.973801 142.072116 330.973801 146.572432 Q 330.97102 162.164996 330.95155 169.513472 C 330.95155 170.356238 330.762414 170.95424 330.676191 171.719127 C 330.667846 171.80535 330.645595 171.891574 330.615 171.972235 Q 329.079663 176.097061 325.202383 177.287502 Q 323.858964 177.699151 320.782728 177.699151 Q 285.400457 177.682462 255.263919 177.685244 C 255.105379 177.685244 254.977434 177.81597 254.982997 177.971728 Q 255.077565 181.365044 255.10816 185.615033 Q 255.116505 186.905606 255.222198 188.243462 C 255.391864 190.407396 254.899555 192.740996 253.739708 194.710232 Q 251.219754 198.999161 245.946208 199.516502 C 241.162189 199.98656 236.831539 197.255219 235.262826 192.657554 Q 234.726014 191.083278 234.742703 187.698307 Q 234.778861 180.794856 234.762173 178.235962 C 234.759391 177.932789 234.514627 177.688025 234.208673 177.688025 L 166.80407 177.688025 C 166.478646 177.688025 166.153221 177.63796 165.844485 177.54061 Q 164.598415 177.156776 164.11445 176.995455 Q 162.985199 176.617184 161.627873 175.379458 Q 159.043946 173.023606 159.027258 169.338243 Q 158.968848 157.336474 159.035602 145.070472 C 159.043946 143.501759 158.95216 141.635435 159.469501 140.225262 Q 160.590408 137.185185 163.360689 135.69157 Q 164.520535 135.065753 165.813889 134.770924 Q 166.812414 134.54563 168.422849 134.553975 Q 170.789825 134.5651 174.564194 134.562319 C 174.797832 134.562319 174.984186 134.375965 174.986968 134.142326 Q 175.064847 117.503953 175.226169 102.690183 C 175.234513 101.894701 175.123257 101.460801 174.973061 100.542937 C 174.950809 100.401085 174.878493 100.270359 174.770018 100.175792 Q 174.024601 99.516598 173.704739 99.42203 Q 170.906644 98.573701 170.622941 98.473571 Q 168.692645 97.789345 166.80407 96.504335 Q 162.517923 93.583858 161.244039 88.488322 Q 160.086974 83.851717 160.696102 78.920284 C 161.013182 76.347483 161.736348 73.986069 163.118707 71.93061 Q 166.178254 67.380229 171.944109 66.245415 Q 175.356895 65.575096 178.424786 66.529118 Q 178.878155 66.67097 179.754298 67.207782 C 182.057303 68.612392 181.779162 71.29923 181.740222 73.702365 Q 181.712408 75.524187 182.043396 76.34192 C 182.969604 78.633799 185.389428 79.468221 187.697995 78.928628 Q 190.343112 78.308374 191.038464 75.618754 C 191.069059 75.501935 191.082966 75.385116 191.082966 75.265516 Q 191.091311 74.261428 191.121906 68.423256 Q 191.124688 67.969887 191.614215 66.90739 C 191.650373 66.82951 191.692094 66.757194 191.744941 66.687659 Q 192.813001 65.277485 195.12435 65.296955 Q 197.686025 65.316425 204.211205 65.335895 C 204.328024 65.335895 204.444843 65.349802 204.556099 65.380398 Q 205.727071 65.694696 206.878573 65.858799 C 207.729684 65.981181 208.511259 66.248196 209.317867 66.37336 C 210.358113 66.534681 211.278758 66.843417 212.466419 67.171623 C 214.813926 67.822472 217.628709 68.854374 219.678606 70.320175 C 220.841234 71.151816 221.66453 71.663595 222.418291 72.606491 C 222.549017 72.770594 222.810469 72.676027 222.810469 72.467421 Z M 233.543917 57.59246 Q 232.606583 57.292068 231.916794 58.154304 C 228.979629 61.834104 227.819782 66.782226 228.225868 71.460552 C 228.6848 76.742443 231.135219 81.342889 235.426929 84.335682 C 235.999898 84.733423 237.05127 85.30083 237.599207 85.303612 Q 248.232524 85.328644 249.931963 85.331426 C 251.453392 85.334207 253.236274 84.313431 254.290427 83.376097 C 258.206647 79.888213 260.178664 75.290549 260.109129 69.975281 C 260.056282 65.917209 258.849152 61.147097 256.287477 57.923447 Q 255.592125 57.047304 254.67148 57.470078 C 254.5936 57.506236 254.532409 57.57299 254.510158 57.656432 L 254.298771 58.440789 C 254.279301 58.510324 254.270957 58.579859 254.273738 58.649394 Q 254.343274 61.219414 254.346055 65.644631 C 254.346055 70.562158 252.226623 74.56182 247.389758 76.18338 Q 246.652685 76.428144 246.530303 76.433707 C 245.762635 76.467083 245.050595 76.689596 244.321866 76.695159 Q 241.312385 76.711847 238.717332 75.143134 C 234.998592 72.890195 233.919406 68.843248 233.941658 64.71286 Q 233.958346 61.756225 233.98616 58.201588 C 233.988942 57.923447 233.80815 57.675902 233.543917 57.59246 Z M 197.371726 134.453844 C 197.505234 134.40656 197.585895 134.273053 197.566425 134.133982 Q 195.410835 118.246589 193.922782 105.671851 Q 193.547293 102.509392 193.920001 99.491566 C 194.156421 97.602991 194.746079 96.050966 196.206317 94.960655 C 198.470382 93.272341 201.435361 92.61871 203.935845 91.778726 Q 204.611727 91.55065 204.614509 90.774638 Q 204.659011 80.166354 204.620071 72.550863 C 204.614509 71.491147 203.095861 71.499492 202.286471 71.466115 Q 201.143313 71.416049 198.359126 71.402142 C 197.090804 71.393798 196.637435 71.499492 196.631872 72.9792 C 196.626309 74.770426 196.709752 75.905239 196.473332 77.123495 C 195.702883 81.081437 192.776843 83.776619 188.857841 84.480315 C 183.175428 85.495529 177.287191 82.995044 176.413829 76.786945 Q 176.33595 76.239008 176.352638 73.872031 C 176.360982 72.667682 176.238601 72.066898 174.920214 72.005708 C 169.382434 71.747037 166.80407 75.571471 166.528711 80.683696 C 166.272821 85.45937 167.229625 90.949867 172.330725 92.846786 Q 174.185923 93.536574 175.334643 93.920409 Q 177.025739 94.490597 177.732216 94.996813 C 180.672162 97.110682 181.145001 100.245327 181.125532 103.627517 Q 181.092155 109.746611 180.992024 133.388565 Q 180.989243 134.039414 181.136657 134.412123 C 181.170034 134.498346 181.253476 134.553975 181.345263 134.553975 Q 188.087392 134.540068 196.453862 134.567882 Q 197.040739 134.570663 197.371726 134.453844 Z M 209.301178 72.561989 C 209.112043 72.631524 208.989661 72.812315 208.992442 73.012577 Q 209.142638 81.370703 209.014694 90.084849 C 209.003568 90.730135 208.945158 91.536743 209.729515 91.478334 Q 212.502577 91.269728 214.930745 89.979156 C 217.414541 88.657988 218.424191 86.507961 218.780211 83.743243 Q 219.158483 80.814422 218.524322 78.233276 C 217.990292 76.052654 216.185159 74.52288 214.115793 73.802496 Q 211.985236 73.059861 210.013218 72.56477 Q 209.5821 72.459077 209.301178 72.561989 Z M 316.315789 73.88872 C 316.315789 73.694021 316.19897 73.521574 316.02096 73.446476 Q 315.573154 73.260122 315.083626 73.223964 C 313.512132 73.115489 311.420514 73.126614 309.387306 72.94026 C 308.32759 72.842911 307.064832 72.918009 305.904985 72.78172 Q 305.076126 72.684371 304.792423 72.681589 Q 296.175626 72.60371 286.930231 72.912446 Q 285.798198 72.948604 285.795417 74.038916 Q 285.767603 82.308037 285.848264 85.092225 C 285.884422 86.396704 286.01793 86.733254 287.505982 86.685971 C 291.513989 86.563589 295.199352 86.666501 299.891585 86.510742 Q 301.638308 86.455114 307.156618 86.399486 Q 308.182957 86.391141 311.050587 86.068498 Q 312.599831 85.89327 313.40922 85.89327 Q 315.014091 85.89327 315.806792 85.776451 C 316.09884 85.731948 316.315789 85.484403 316.315789 85.189574 L 316.315789 73.88872 Z M 282.644084 87.779063 L 282.644084 73.994413 C 282.644084 73.79137 282.482762 73.627267 282.279719 73.624486 Q 281.228348 73.61336 280.435647 73.852561 Q 280.432866 73.852561 278.624951 74.342089 Q 277.05902 74.764863 275.676661 75.496373 Q 274.850583 75.935835 274.850583 76.825885 Q 274.84502 83.901783 274.861709 85.414868 C 274.875616 86.638687 275.882485 86.950204 276.933856 87.384104 C 277.086834 87.448076 277.248155 87.487016 277.412258 87.506485 Q 278.335685 87.609397 279.19514 87.83191 C 280.28267 88.110051 281.33126 88.146209 282.335348 88.098925 C 282.507795 88.090581 282.644084 87.95151 282.644084 87.779063 Z M 320.473992 74.795458 L 320.473992 84.930903 C 320.473992 85.172885 320.671472 85.370365 320.913454 85.370365 L 321.008022 85.370365 C 323.252617 85.370365 325.074438 83.623642 325.074438 81.468052 L 325.074438 78.258309 C 325.074438 76.102719 323.252617 74.355996 321.008022 74.355996 L 320.913454 74.355996 C 320.671472 74.355996 320.473992 74.553476 320.473992 74.795458 Z M 271.006679 78.069174 Q 270.578343 78.013545 270.086034 78.302812 Q 267.999979 79.537756 266.595369 80.647537 Q 266.033525 81.092562 265.927831 81.646062 C 265.911143 81.729504 265.922268 81.815728 265.955645 81.893607 C 266.57868 83.331594 268.881685 84.54985 270.230667 84.997657 Q 270.650659 85.136727 270.992772 85.08388 C 271.179126 85.056066 271.315415 84.889182 271.301508 84.700046 C 271.193034 82.919946 271.379388 81.128721 271.379388 79.345839 Q 271.379388 78.956442 271.193034 78.233276 C 271.170782 78.147053 271.098466 78.080299 271.006679 78.069174 Z M 225.088441 80.388866 C 224.938245 80.27761 224.726858 80.386085 224.72964 80.572439 Q 224.743547 82.474921 224.582225 84.07423 C 224.053758 89.297711 221.183347 93.058173 216.510584 95.258265 Q 214.07129 96.404204 211.470675 97.018895 Q 210.085535 97.347101 209.882492 97.424981 C 209.687794 97.500079 209.484751 97.544581 209.276146 97.555707 Q 207.82147 97.636367 206.489177 98.011857 C 206.288915 98.070267 206.08031 98.100862 205.871704 98.106425 Q 204.341931 98.159272 202.714808 98.582046 C 201.766348 98.829591 201.034839 98.426287 200.189291 99.388654 C 200.133663 99.449844 200.094723 99.524942 200.069691 99.602822 Q 199.694201 100.782138 199.699764 101.26054 Q 199.747047 105.847079 200.367301 110.094287 Q 200.556437 111.373734 200.589814 111.765912 C 200.726102 113.28456 201.087685 114.616854 201.134969 115.946366 Q 201.168346 116.847541 201.435361 118.202086 C 201.699595 119.545506 201.74966 121.055809 202.038926 122.446513 C 202.26422 123.536824 202.241969 124.685545 202.445012 125.837047 Q 202.723152 127.40576 202.820501 128.370908 Q 202.970697 129.875649 203.123675 130.632192 C 203.37122 131.85601 203.35175 132.835065 203.58817 134.172922 C 203.632672 134.417686 203.841278 134.595696 204.088823 134.595696 L 230.715226 134.595696 C 230.962771 134.595696 231.165814 134.392653 231.165814 134.142326 Q 231.15747 100.595784 231.165814 89.372809 Q 231.165814 88.040515 230.309141 87.092056 C 228.262026 84.830772 226.840727 83.264841 225.536248 80.956273 Q 225.308172 80.552969 225.088441 80.388866 Z M 260.509652 84.338464 Q 260.072971 84.744549 257.605863 87.525955 Q 257.188652 87.996013 257.074615 88.329782 C 257.046801 88.410442 257.041238 88.499447 257.057926 88.58289 Q 257.130243 88.941691 257.130243 89.720485 Q 257.138587 99.644543 257.088522 114.266396 Q 257.077396 117.459451 256.982828 119.003131 Q 256.943889 119.612259 257.196997 120.040596 C 257.344411 120.288141 257.714338 120.243639 257.800562 119.968279 Q 259.269144 115.284391 261.438641 108.314187 Q 264.175545 99.527724 267.891504 91.597934 C 267.927662 91.514492 267.974946 91.436613 268.033356 91.367077 C 268.37825 90.933178 268.692549 90.460339 268.272557 90.023658 C 268.038919 89.778894 267.343567 89.773332 266.965296 89.525786 C 266.606494 89.289367 266.297758 89.239302 265.933394 89.052947 Q 262.709744 87.400792 260.737727 84.366278 C 260.687662 84.288398 260.576405 84.274491 260.509652 84.338464 Z M 250.833139 89.942997 L 237.74384 89.920746 C 237.38782 89.920746 237.098554 90.207231 237.098554 90.56047 L 237.09021 95.586471 C 237.087428 97.046709 239.854928 98.23437 243.270495 98.239933 L 245.273107 98.245495 C 248.691456 98.251058 251.461737 97.071742 251.464518 95.614285 L 251.472862 90.588284 C 251.472862 90.232264 251.186377 89.942997 250.833139 89.942997 Z M 307.092646 90.844173 C 307.12046 90.379678 306.750533 89.984719 306.283257 89.984719 L 294.985184 89.984719 C 294.506782 89.984719 294.131292 90.396367 294.178576 90.871987 L 294.893397 98.184305 C 294.935119 98.598734 295.282794 98.915814 295.700005 98.915814 L 305.827106 98.915814 C 306.252661 98.915814 306.6059 98.584827 306.633714 98.15649 L 307.092646 90.844173 Z M 278.079796 93.514323 Q 276.847633 93.263997 274.747671 92.946916 C 274.01338 92.83566 273.482131 93.035921 273.112204 93.642268 Q 272.355661 94.868868 271.693687 96.284604 C 271.387732 96.938234 270.989991 97.70034 271.827194 97.933978 Q 273.960533 98.529199 276.641809 99.277397 C 276.919949 99.355277 277.203653 99.177267 277.253718 98.893563 L 278.193833 93.683989 C 278.20774 93.60611 278.157675 93.531012 278.079796 93.514323 Z M 275.384613 134.581789 L 283.080764 134.581789 C 283.344998 134.581789 283.570292 134.392653 283.620357 134.133982 Q 283.901279 132.643148 283.951345 132.248189 C 284.109885 131.038277 284.549347 129.928496 284.599412 128.626798 C 284.602194 128.526667 284.618882 128.429318 284.646696 128.331968 Q 285.044437 126.938484 285.141787 125.68407 C 285.150131 125.556125 285.175163 125.430962 285.214103 125.305798 Q 285.58403 124.129263 285.703631 122.713528 C 285.717538 122.549425 285.748133 122.385322 285.798198 122.226781 Q 286.19594 120.964023 286.254349 119.854242 C 286.262693 119.723516 286.284945 119.595571 286.326666 119.473189 Q 286.693811 118.374534 286.746658 117.693089 C 286.852352 116.352451 287.272344 115.214856 287.40307 113.81859 C 287.411414 113.715678 287.433665 113.612766 287.464261 113.512635 C 287.8175 112.39451 287.8175 111.312543 288.103984 110.19998 C 288.368218 109.173641 288.45166 108.189023 288.682517 107.198843 C 288.994034 105.863768 288.960658 105.2157 289.227673 103.983537 Q 289.352836 103.407786 289.344492 102.384228 Q 289.327803 100.267578 289.205421 99.238458 C 288.96622 97.252533 289.069132 95.923021 288.863308 94.243052 C 288.746489 93.302936 288.485037 93.216713 287.589424 93.238964 Q 286.262693 93.269559 284.941525 93.177773 C 284.855302 93.17221 284.77186 93.194461 284.696762 93.238964 Q 284.31849 93.472602 284.19889 94.028883 Q 283.873465 95.541968 283.837307 95.694946 Q 281.245036 107.093149 275.320641 132.139714 Q 274.967402 133.63611 274.917337 134.053321 C 274.88396 134.334243 275.100909 134.581789 275.384613 134.581789 Z M 295.569279 102.692964 C 295.307827 102.692964 295.082533 102.8821 295.035249 103.137989 L 289.483562 133.928158 C 289.425152 134.261927 289.681042 134.567882 290.017592 134.567882 L 310.54159 134.567882 C 310.872577 134.567882 311.125685 134.273053 311.07562 133.944847 L 306.458485 103.154678 C 306.419546 102.890444 306.19147 102.692964 305.921674 102.692964 L 295.569279 102.692964 Z M 269.488031 103.146334 C 269.312803 103.093487 269.12923 103.190836 269.07082 103.363283 L 258.993785 134.131201 C 258.921468 134.350932 259.085571 134.573444 259.313647 134.573444 L 268.675861 134.573444 C 268.831619 134.573444 268.967908 134.46497 269.004067 134.311992 L 275.718382 105.332519 C 275.760103 105.160072 275.657191 104.984843 275.487525 104.934778 L 269.488031 103.146334 Z M 324.760139 142.422573 C 324.760139 141.896887 324.334584 141.471332 323.808898 141.471332 L 166.292291 141.471332 C 165.766605 141.471332 165.34105 141.896887 165.34105 142.422573 L 165.34105 169.891743 C 165.34105 170.417429 165.766605 170.842984 166.292291 170.842984 L 323.808898 170.842984 C 324.334584 170.842984 324.760139 170.417429 324.760139 169.891743 L 324.760139 142.422573 Z" style="fill:#000000;"/>
		<path d="M 197.371726 134.453844 Q 197.040739 134.570663 196.453862 134.567882 Q 188.087392 134.540068 181.345263 134.553975 C 181.253476 134.553975 181.170034 134.498346 181.136657 134.412123 Q 180.989243 134.039414 180.992024 133.388565 Q 181.092155 109.746611 181.125532 103.627517 C 181.145001 100.245327 180.672162 97.110682 177.732216 94.996813 Q 177.025739 94.490597 175.334643 93.920409 Q 174.185923 93.536574 172.330725 92.846786 C 167.229625 90.949867 166.272821 85.45937 166.528711 80.683696 C 166.80407 75.571471 169.382434 71.747037 174.920214 72.005708 C 176.238601 72.066898 176.360982 72.667682 176.352638 73.872031 Q 176.33595 76.239008 176.413829 76.786945 C 177.287191 82.995044 183.175428 85.495529 188.857841 84.480315 C 192.776843 83.776619 195.702883 81.081437 196.473332 77.123495 C 196.709752 75.905239 196.626309 74.770426 196.631872 72.9792 C 196.637435 71.499492 197.090804 71.393798 198.359126 71.402142 Q 201.143313 71.416049 202.286471 71.466115 C 203.095861 71.499492 204.614509 71.491147 204.620071 72.550863 Q 204.659011 80.166354 204.614509 90.774638 Q 204.611727 91.55065 203.935845 91.778726 C 201.435361 92.61871 198.470382 93.272341 196.206317 94.960655 C 194.746079 96.050966 194.156421 97.602991 193.920001 99.491566 Q 193.547293 102.509392 193.922782 105.671851 Q 195.410835 118.246589 197.566425 134.133982 C 197.585895 134.273053 197.505234 134.40656 197.371726 134.453844 Z" style="fill:#fc3d2f;"/>
		<path d="M 320.473992 74.795458 C 320.473992 74.553476 320.671472 74.355996 320.913454 74.355996 L 321.008022 74.355996 C 323.252617 74.355996 325.074438 76.102719 325.074438 78.258309 L 325.074438 81.468052 C 325.074438 83.623642 323.252617 85.370365 321.008022 85.370365 L 320.913454 85.370365 C 320.671472 85.370365 320.473992 85.172885 320.473992 84.930903 L 320.473992 74.795458 Z" style="fill:#fc3d2f;"/>
		<path d="M 250.833139 89.942997 C 251.186377 89.942997 251.472862 90.232264 251.472862 90.588284 L 251.464518 95.614285 C 251.461737 97.071742 248.691456 98.251058 245.273107 98.245495 L 243.270495 98.239933 C 239.854928 98.23437 237.087428 97.046709 237.09021 95.586471 L 237.098554 90.56047 C 237.098554 90.207231 237.38782 89.920746 237.74384 89.920746 L 250.833139 89.942997 Z" style="fill:#fc3d2f;"/>
		<path d="M 307.092646 90.844173 L 306.633714 98.15649 C 306.6059 98.584827 306.252661 98.915814 305.827106 98.915814 L 295.700005 98.915814 C 295.282794 98.915814 294.935119 98.598734 294.893397 98.184305 L 294.178576 90.871987 C 294.131292 90.396367 294.506782 89.984719 294.985184 89.984719 L 306.283257 89.984719 C 306.750533 89.984719 307.12046 90.379678 307.092646 90.844173 Z" style="fill:#fc3d2f;"/>
		<path d="M 278.079796 93.514323 C 278.157675 93.531012 278.20774 93.60611 278.193833 93.683989 L 277.253718 98.893563 C 277.203653 99.177267 276.919949 99.355277 276.641809 99.277397 Q 273.960533 98.529199 271.827194 97.933978 C 270.989991 97.70034 271.387732 96.938234 271.693687 96.284604 Q 272.355661 94.868868 273.112204 93.642268 C 273.482131 93.035921 274.01338 92.83566 274.747671 92.946916 Q 276.847633 93.263997 278.079796 93.514323 Z" style="fill:#fc3d2f;"/>
		<path d="M 295.569279 102.692964 L 305.921674 102.692964 C 306.19147 102.692964 306.419546 102.890444 306.458485 103.154678 L 311.07562 133.944847 C 311.125685 134.273053 310.872577 134.567882 310.54159 134.567882 L 290.017592 134.567882 C 289.681042 134.567882 289.425152 134.261927 289.483562 133.928158 L 295.035249 103.137989 C 295.082533 102.8821 295.307827 102.692964 295.569279 102.692964 Z" style="fill:#fc3d2f;"/>
		<path d="M 324.760139 169.891743 C 324.760139 170.417429 324.334584 170.842984 323.808898 170.842984 L 166.292291 170.842984 C 165.766605 170.842984 165.34105 170.417429 165.34105 169.891743 L 165.34105 142.422573 C 165.34105 141.896887 165.766605 141.471332 166.292291 141.471332 L 323.808898 141.471332 C 324.334584 141.471332 324.760139 141.896887 324.760139 142.422573 L 324.760139 169.891743 Z M 174.582356 146.170741 C 174.580882 145.952178 174.405654 145.776949 174.186729 145.776449 L 170.437393 145.783013 C 170.219637 145.782512 170.041627 145.960522 170.043129 146.17864 L 170.045716 147.658348 C 170.04719 147.876911 170.222419 148.05214 170.441343 148.05264 L 174.190679 148.046076 C 174.408435 148.046577 174.586445 147.868567 174.584943 147.650449 L 174.582356 146.170741 Z M 185.165441 146.156417 C 185.166915 145.946615 184.994468 145.774168 184.785056 145.774696 L 181.002343 145.768077 C 180.791763 145.768605 180.622097 145.938271 180.620623 146.148462 L 180.618008 147.644858 C 180.616534 147.85466 180.788981 148.027107 180.998394 148.026579 L 184.781106 148.033198 C 184.991686 148.03267 185.161352 147.863004 185.162826 147.652813 L 185.165441 146.156417 Z M 198.81269 146.155666 C 198.812495 145.932708 198.631703 145.751917 198.407995 145.753752 L 194.680938 145.766769 C 194.456812 145.768605 194.278802 145.949397 194.279025 146.171492 L 194.284171 147.640047 C 194.284365 147.863004 194.465157 148.043796 194.688865 148.04196 L 198.415922 148.028943 C 198.640048 148.027107 198.818058 147.846316 198.817835 147.62422 L 198.81269 146.155666 Z M 212.835233 146.151744 C 212.833565 145.927145 212.649992 145.746354 212.427034 145.747772 L 208.716694 145.767214 C 208.491789 145.768605 208.310998 145.952178 208.312722 146.175414 L 208.320454 147.649531 C 208.322123 147.87413 208.505696 148.054921 208.728654 148.053503 L 212.438994 148.034061 C 212.663899 148.03267 212.84469 147.849097 212.842966 147.625861 L 212.835233 146.151744 Z M 225.896662 146.231987 C 225.895049 145.971648 225.686443 145.763042 225.425798 145.762764 L 221.9101 145.768883 C 221.650623 145.768605 221.439236 145.979992 221.440849 146.239775 L 221.443185 147.57485 C 221.444799 147.83519 221.653404 148.043796 221.91405 148.044074 L 225.429747 148.037955 C 225.689225 148.038233 225.900612 147.826846 225.898999 147.567063 L 225.896662 146.231987 Z M 235.502722 146.513966 C 235.504808 146.110718 235.176602 145.785294 234.775273 145.783986 L 233.095303 145.781038 C 232.692806 145.779731 232.367382 146.105155 232.365296 146.508515 L 232.363905 147.30956 C 232.361819 147.712808 232.690025 148.038233 233.091354 148.03954 L 234.771323 148.042488 C 235.173821 148.043796 235.499245 147.718371 235.501331 147.315012 L 235.502722 146.513966 Z M 246.072901 146.184537 C 246.071371 145.952178 245.885017 145.765824 245.652185 145.765295 L 241.852784 145.771915 C 241.621121 145.771387 241.431985 145.960522 241.433515 146.192658 L 241.436018 147.627864 C 241.437548 147.860223 241.623902 148.046577 241.856734 148.047105 L 245.656135 148.040486 C 245.887798 148.041014 246.076934 147.851879 246.075404 147.619742 L 246.072901 146.184537 Z M 259.074807 146.164149 C 259.074446 145.946615 258.896436 145.771387 258.677094 145.771943 L 254.844427 145.7987 C 254.626977 145.799201 254.451748 145.977211 254.452221 146.196413 L 254.462512 147.670503 C 254.462874 147.888037 254.640884 148.063265 254.860226 148.062709 L 258.692893 148.035952 C 258.910343 148.035451 259.085571 147.857441 259.085099 147.638239 L 259.074807 146.164149 Z M 271.946711 146.085991 C 271.946795 145.902113 271.796599 145.754698 271.614556 145.756144 L 267.664986 145.76994 C 267.482637 145.771387 267.335223 145.918801 267.335167 146.102096 L 267.340869 147.737535 C 267.340786 147.921414 267.490982 148.068828 267.673025 148.067382 L 271.622594 148.053586 C 271.804943 148.05214 271.952357 147.904725 271.952413 147.721431 L 271.946711 146.085991 Z M 288.438143 146.147906 C 288.437753 145.924364 288.25418 145.743573 288.02922 145.744685 L 284.352284 145.77033 C 284.129355 145.771387 283.948563 145.954959 283.949064 146.179252 L 283.959299 147.647807 C 283.959689 147.871348 284.143262 148.05214 284.368222 148.051027 L 288.045158 148.025383 C 288.268087 148.024326 288.448879 147.840753 288.448378 147.61646 L 288.438143 146.147906 Z M 301.070901 147.595989 L 301.070901 146.19416 C 301.073682 145.952178 300.876203 145.754698 300.63422 145.754698 L 297.599706 145.749135 C 297.129648 145.749135 296.748595 146.130188 296.748595 146.600246 L 296.748595 147.178778 C 296.748595 147.648836 297.126867 148.029889 297.594143 148.029889 L 300.628657 148.035451 C 300.873421 148.035451 301.06812 147.840753 301.070901 147.595989 Z M 318.668859 146.163565 C 318.668859 145.949397 318.496412 145.776949 318.282244 145.776949 L 314.594099 145.776949 C 314.379931 145.776949 314.207483 145.949397 314.207483 146.163565 L 314.207483 147.643273 C 314.207483 147.857441 314.379931 148.029889 314.594099 148.029889 L 318.282244 148.029889 C 318.496412 148.029889 318.668859 147.857441 318.668859 147.643273 L 318.668859 146.163565 Z M 307.811083 146.677402 C 307.81303 146.216412 307.440322 145.840922 306.979582 145.84006 L 305.878145 145.836221 C 305.418239 145.835359 305.042749 146.208067 305.04083 146.667723 L 305.039134 147.151687 C 305.037187 147.612678 305.409895 147.988167 305.870635 147.98903 L 306.972072 147.992868 C 307.431977 147.99373 307.807467 147.621022 307.809386 147.161367 L 307.811083 146.677402 Z M 188.743804 156.624434 C 188.743804 154.49944 187.022113 152.777749 184.897119 152.777749 C 182.772124 152.777749 181.050434 154.49944 181.050434 156.624434 C 181.050434 158.749429 182.772124 160.471119 184.897119 160.471119 C 187.022113 160.471119 188.743804 158.749429 188.743804 156.624434 Z M 298.051629 153.159525 C 296.178407 153.751242 295.149287 155.776105 295.750488 157.682203 C 296.350854 159.589414 298.356248 160.657474 300.229581 160.067092 C 302.102803 159.475376 303.131923 157.450512 302.530722 155.544414 C 301.930356 153.637204 299.924962 152.569144 298.051629 153.159525 Z M 198.795612 164.734543 C 198.795806 164.498596 198.606671 164.30946 198.371559 164.307513 L 194.716791 164.294747 C 194.481845 164.292772 194.289928 164.484689 194.289761 164.7188 L 194.28456 166.209634 C 194.284365 166.44558 194.473501 166.634716 194.708613 166.636663 L 198.363381 166.64943 C 198.598327 166.651404 198.790244 166.459487 198.790411 166.225376 L 198.795612 164.734543 Z M 212.83871 164.795761 C 212.839127 164.520847 212.616615 164.298335 212.342563 164.296165 L 208.815767 164.283843 C 208.541854 164.281646 208.316561 164.504159 208.316171 164.779963 L 208.311415 166.137289 C 208.310998 166.412203 208.53351 166.634716 208.807562 166.636885 L 212.334358 166.649207 C 212.608271 166.651404 212.833565 166.428892 212.833954 166.153088 L 212.83871 164.795761 Z M 225.887929 164.892526 C 225.889486 164.568131 225.628034 164.301116 225.302387 164.298752 L 222.003722 164.275722 C 221.678437 164.273302 221.411422 164.534754 221.409976 164.861263 L 221.401854 166.023836 C 221.400296 166.348231 221.661748 166.615246 221.987395 166.61761 L 225.28606 166.64064 C 225.611345 166.64306 225.878361 166.381608 225.879807 166.055099 L 225.887929 164.892526 Z M 235.539186 165.03524 C 235.543748 164.640448 235.226667 164.317804 234.830623 164.314189 L 233.117332 164.299252 C 232.723402 164.295553 232.400759 164.612634 232.396308 165.007816 L 232.388632 165.886685 C 232.38407 166.281477 232.70115 166.60412 233.097195 166.607736 L 234.810486 166.622672 C 235.204416 166.626372 235.527059 166.309291 235.53151 165.914109 L 235.539186 165.03524 Z M 246.04937 164.743721 C 246.04912 164.495814 245.846077 164.295553 245.600006 164.297472 L 241.911889 164.31035 C 241.665623 164.312242 241.465362 164.512503 241.46564 164.759714 L 241.470674 166.194892 C 241.470925 166.442799 241.673967 166.64306 241.920038 166.641141 L 245.608156 166.628263 C 245.854421 166.626372 246.054683 166.42611 246.054404 166.178899 L 246.04937 164.743721 Z M 259.06332 164.762829 C 259.06332 164.50694 258.854715 164.298335 258.598825 164.298335 L 254.932932 164.298335 C 254.677042 164.298335 254.468437 164.50694 254.468437 164.762829 L 254.468437 166.175784 C 254.468437 166.431673 254.677042 166.640279 254.932932 166.640279 L 258.598825 166.640279 C 258.854715 166.640279 259.06332 166.431673 259.06332 166.175784 L 259.06332 164.762829 Z M 271.948102 164.699747 C 271.949576 164.481907 271.774347 164.303897 271.5552 164.302729 L 267.755855 164.282842 C 267.538266 164.281646 267.360255 164.456875 267.358837 164.675716 L 267.350604 166.244429 C 267.34913 166.462269 267.524358 166.640279 267.743505 166.641447 L 271.542851 166.661334 C 271.76044 166.66253 271.93845 166.487301 271.939869 166.26846 L 271.948102 164.699747 Z M 288.437447 164.762273 C 288.437753 164.50694 288.231929 164.301116 287.977347 164.298974 L 284.433863 164.286597 C 284.17942 164.284428 283.970814 164.493033 283.970536 164.746697 L 283.965558 166.17634 C 283.965252 166.431673 284.171076 166.637497 284.425658 166.639639 L 287.969142 166.652016 C 288.223585 166.654186 288.43219 166.44558 288.432468 166.191916 L 288.437447 164.762273 Z M 301.076464 166.125719 L 301.087589 164.835146 C 301.090371 164.551443 300.862296 164.317804 300.578592 164.315023 L 297.585799 164.28999 C 297.118523 164.284428 296.740251 164.648792 296.734688 165.102161 L 296.729126 165.780824 C 296.726344 166.234193 297.099053 166.60412 297.563548 166.609683 L 300.556341 166.634716 C 300.842826 166.637497 301.073682 166.409422 301.076464 166.125719 Z M 318.660738 164.735572 C 318.660515 164.493033 318.463035 164.295553 318.219746 164.297639 L 314.637322 164.310156 C 314.393838 164.312242 314.199139 164.509721 314.19939 164.751148 L 314.20448 166.208605 C 314.204702 166.451143 314.402182 166.648623 314.645471 166.646537 L 318.227895 166.634021 C 318.471379 166.631935 318.666078 166.434455 318.665828 166.193029 L 318.660738 164.735572 Z M 174.562942 164.747782 C 174.561413 164.498596 174.361151 164.298335 174.111576 164.297973 L 170.512436 164.304259 C 170.26414 164.303897 170.061097 164.50694 170.062627 164.755626 L 170.06513 166.190831 C 170.06666 166.440018 170.266921 166.640279 170.516497 166.64064 L 174.115637 166.634354 C 174.363933 166.634716 174.566975 166.431673 174.565446 166.182988 L 174.562942 164.747782 Z M 185.133538 164.698857 C 185.133538 164.484689 184.95831 164.30946 184.744141 164.30946 L 181.005931 164.30946 C 180.791763 164.30946 180.616534 164.484689 180.616534 164.698857 L 180.616534 166.245319 C 180.616534 166.459487 180.791763 166.634716 181.005931 166.634716 L 184.744141 166.634716 C 184.95831 166.634716 185.133538 166.459487 185.133538 166.245319 L 185.133538 164.698857 Z M 305.117847 165.739103 C 305.117847 166.192472 305.487774 166.562399 305.941144 166.562399 L 306.978608 166.562399 C 307.431977 166.562399 307.801904 166.192472 307.801904 165.739103 L 307.801904 165.132757 C 307.801904 164.679387 307.431977 164.30946 306.978608 164.30946 L 305.941144 164.30946 C 305.487774 164.30946 305.117847 164.679387 305.117847 165.132757 L 305.117847 165.739103 Z" style="fill:#ffffff;"/>
		<path d="M 174.584943 147.650449 C 174.586445 147.868567 174.408435 148.046577 174.190679 148.046076 L 170.441343 148.05264 C 170.222419 148.05214 170.04719 147.876911 170.045716 147.658348 L 170.043129 146.17864 C 170.041627 145.960522 170.219637 145.782512 170.437393 145.783013 L 174.186729 145.776449 C 174.405654 145.776949 174.580882 145.952178 174.582356 146.170741 L 174.584943 147.650449 Z" style="fill:#000000;"/>
		<path d="M 185.162826 147.652813 C 185.161352 147.863004 184.991686 148.03267 184.781106 148.033198 L 180.998394 148.026579 C 180.788981 148.027107 180.616534 147.85466 180.618008 147.644858 L 180.620623 146.148462 C 180.622097 145.938271 180.791763 145.768605 181.002343 145.768077 L 184.785056 145.774696 C 184.994468 145.774168 185.166915 145.946615 185.165441 146.156417 L 185.162826 147.652813 Z" style="fill:#000000;"/>
		<path d="M 198.817835 147.62422 C 198.818058 147.846316 198.640048 148.027107 198.415922 148.028943 L 194.688865 148.04196 C 194.465157 148.043796 194.284365 147.863004 194.284171 147.640047 L 194.279025 146.171492 C 194.278802 145.949397 194.456812 145.768605 194.680938 145.766769 L 198.407995 145.753752 C 198.631703 145.751917 198.812495 145.932708 198.81269 146.155666 L 198.817835 147.62422 Z" style="fill:#000000;"/>
		<path d="M 212.842966 147.625861 C 212.84469 147.849097 212.663899 148.03267 212.438994 148.034061 L 208.728654 148.053503 C 208.505696 148.054921 208.322123 147.87413 208.320454 147.649531 L 208.312722 146.175414 C 208.310998 145.952178 208.491789 145.768605 208.716694 145.767214 L 212.427034 145.747772 C 212.649992 145.746354 212.833565 145.927145 212.835233 146.151744 L 212.842966 147.625861 Z" style="fill:#000000;"/>
		<path d="M 225.898999 147.567063 C 225.900612 147.826846 225.689225 148.038233 225.429747 148.037955 L 221.91405 148.044074 C 221.653404 148.043796 221.444799 147.83519 221.443185 147.57485 L 221.440849 146.239775 C 221.439236 145.979992 221.650623 145.768605 221.9101 145.768883 L 225.425798 145.762764 C 225.686443 145.763042 225.895049 145.971648 225.896662 146.231987 L 225.898999 147.567063 Z" style="fill:#000000;"/>
		<path d="M 235.501331 147.315012 C 235.499245 147.718371 235.173821 148.043796 234.771323 148.042488 L 233.091354 148.03954 C 232.690025 148.038233 232.361819 147.712808 232.363905 147.30956 L 232.365296 146.508515 C 232.367382 146.105155 232.692806 145.779731 233.095303 145.781038 L 234.775273 145.783986 C 235.176602 145.785294 235.504808 146.110718 235.502722 146.513966 L 235.501331 147.315012 Z" style="fill:#000000;"/>
		<path d="M 246.075404 147.619742 C 246.076934 147.851879 245.887798 148.041014 245.656135 148.040486 L 241.856734 148.047105 C 241.623902 148.046577 241.437548 147.860223 241.436018 147.627864 L 241.433515 146.192658 C 241.431985 145.960522 241.621121 145.771387 241.852784 145.771915 L 245.652185 145.765295 C 245.885017 145.765824 246.071371 145.952178 246.072901 146.184537 L 246.075404 147.619742 Z" style="fill:#000000;"/>
		<path d="M 259.085099 147.638239 C 259.085571 147.857441 258.910343 148.035451 258.692893 148.035952 L 254.860226 148.062709 C 254.640884 148.063265 254.462874 147.888037 254.462512 147.670503 L 254.452221 146.196413 C 254.451748 145.977211 254.626977 145.799201 254.844427 145.7987 L 258.677094 145.771943 C 258.896436 145.771387 259.074446 145.946615 259.074807 146.164149 L 259.085099 147.638239 Z" style="fill:#000000;"/>
		<path d="M 271.952413 147.721431 C 271.952357 147.904725 271.804943 148.05214 271.622594 148.053586 L 267.673025 148.067382 C 267.490982 148.068828 267.340786 147.921414 267.340869 147.737535 L 267.335167 146.102096 C 267.335223 145.918801 267.482637 145.771387 267.664986 145.76994 L 271.614556 145.756144 C 271.796599 145.754698 271.946795 145.902113 271.946711 146.085991 L 271.952413 147.721431 Z" style="fill:#000000;"/>
		<path d="M 288.448378 147.61646 C 288.448879 147.840753 288.268087 148.024326 288.045158 148.025383 L 284.368222 148.051027 C 284.143262 148.05214 283.959689 147.871348 283.959299 147.647807 L 283.949064 146.179252 C 283.948563 145.954959 284.129355 145.771387 284.352284 145.77033 L 288.02922 145.744685 C 288.25418 145.743573 288.437753 145.924364 288.438143 146.147906 L 288.448378 147.61646 Z" style="fill:#000000;"/>
		<path d="M 301.070901 147.595989 C 301.06812 147.840753 300.873421 148.035451 300.628657 148.035451 L 297.594143 148.029889 C 297.126867 148.029889 296.748595 147.648836 296.748595 147.178778 L 296.748595 146.600246 C 296.748595 146.130188 297.129648 145.749135 297.599706 145.749135 L 300.63422 145.754698 C 300.876203 145.754698 301.073682 145.952178 301.070901 146.19416 L 301.070901 147.595989 Z" style="fill:#000000;"/>
		<path d="M 318.668859 147.643273 C 318.668859 147.857441 318.496412 148.029889 318.282244 148.029889 L 314.594099 148.029889 C 314.379931 148.029889 314.207483 147.857441 314.207483 147.643273 L 314.207483 146.163565 C 314.207483 145.949397 314.379931 145.776949 314.594099 145.776949 L 318.282244 145.776949 C 318.496412 145.776949 318.668859 145.949397 318.668859 146.163565 L 318.668859 147.643273 Z" style="fill:#000000;"/>
		<path d="M 307.809386 147.161367 C 307.807467 147.621022 307.431977 147.99373 306.972072 147.992868 L 305.870635 147.98903 C 305.409895 147.988167 305.037187 147.612678 305.039134 147.151687 L 305.04083 146.667723 C 305.042749 146.208067 305.418239 145.835359 305.878145 145.836221 L 306.979582 145.84006 C 307.440322 145.840922 307.81303 146.216412 307.811083 146.677402 L 307.809386 147.161367 Z" style="fill:#000000;"/>
		<path d="M 188.743804 156.624434 C 188.743804 158.749429 187.022113 160.471119 184.897119 160.471119 C 182.772124 160.471119 181.050434 158.749429 181.050434 156.624434 C 181.050434 154.49944 182.772124 152.777749 184.897119 152.777749 C 187.022113 152.777749 188.743804 154.49944 188.743804 156.624434 Z" style="fill:#000000;"/>
		<path d="M 298.051629 153.159525 C 299.924962 152.569144 301.930356 153.637204 302.530722 155.544414 C 303.131923 157.450512 302.102803 159.475376 300.229581 160.067092 C 298.356248 160.657474 296.350854 159.589414 295.750488 157.682203 C 295.149287 155.776105 296.178407 153.751242 298.051629 153.159525 Z" style="fill:#000000;"/>
		<path d="M 198.790411 166.225376 C 198.790244 166.459487 198.598327 166.651404 198.363381 166.64943 L 194.708613 166.636663 C 194.473501 166.634716 194.284365 166.44558 194.28456 166.209634 L 194.289761 164.7188 C 194.289928 164.484689 194.481845 164.292772 194.716791 164.294747 L 198.371559 164.307513 C 198.606671 164.30946 198.795806 164.498596 198.795612 164.734543 L 198.790411 166.225376 Z" style="fill:#000000;"/>
		<path d="M 212.833954 166.153088 C 212.833565 166.428892 212.608271 166.651404 212.334358 166.649207 L 208.807562 166.636885 C 208.53351 166.634716 208.310998 166.412203 208.311415 166.137289 L 208.316171 164.779963 C 208.316561 164.504159 208.541854 164.281646 208.815767 164.283843 L 212.342563 164.296165 C 212.616615 164.298335 212.839127 164.520847 212.83871 164.795761 L 212.833954 166.153088 Z" style="fill:#000000;"/>
		<path d="M 225.879807 166.055099 C 225.878361 166.381608 225.611345 166.64306 225.28606 166.64064 L 221.987395 166.61761 C 221.661748 166.615246 221.400296 166.348231 221.401854 166.023836 L 221.409976 164.861263 C 221.411422 164.534754 221.678437 164.273302 222.003722 164.275722 L 225.302387 164.298752 C 225.628034 164.301116 225.889486 164.568131 225.887929 164.892526 L 225.879807 166.055099 Z" style="fill:#000000;"/>
		<path d="M 235.53151 165.914109 C 235.527059 166.309291 235.204416 166.626372 234.810486 166.622672 L 233.097195 166.607736 C 232.70115 166.60412 232.38407 166.281477 232.388632 165.886685 L 232.396308 165.007816 C 232.400759 164.612634 232.723402 164.295553 233.117332 164.299252 L 234.830623 164.314189 C 235.226667 164.317804 235.543748 164.640448 235.539186 165.03524 L 235.53151 165.914109 Z" style="fill:#000000;"/>
		<path d="M 246.054404 166.178899 C 246.054683 166.42611 245.854421 166.626372 245.608156 166.628263 L 241.920038 166.641141 C 241.673967 166.64306 241.470925 166.442799 241.470674 166.194892 L 241.46564 164.759714 C 241.465362 164.512503 241.665623 164.312242 241.911889 164.31035 L 245.600006 164.297472 C 245.846077 164.295553 246.04912 164.495814 246.04937 164.743721 L 246.054404 166.178899 Z" style="fill:#000000;"/>
		<path d="M 259.06332 166.175784 C 259.06332 166.431673 258.854715 166.640279 258.598825 166.640279 L 254.932932 166.640279 C 254.677042 166.640279 254.468437 166.431673 254.468437 166.175784 L 254.468437 164.762829 C 254.468437 164.50694 254.677042 164.298335 254.932932 164.298335 L 258.598825 164.298335 C 258.854715 164.298335 259.06332 164.50694 259.06332 164.762829 L 259.06332 166.175784 Z" style="fill:#000000;"/>
		<path d="M 271.939869 166.26846 C 271.93845 166.487301 271.76044 166.66253 271.542851 166.661334 L 267.743505 166.641447 C 267.524358 166.640279 267.34913 166.462269 267.350604 166.244429 L 267.358837 164.675716 C 267.360255 164.456875 267.538266 164.281646 267.755855 164.282842 L 271.5552 164.302729 C 271.774347 164.303897 271.949576 164.481907 271.948102 164.699747 L 271.939869 166.26846 Z" style="fill:#000000;"/>
		<path d="M 288.432468 166.191916 C 288.43219 166.44558 288.223585 166.654186 287.969142 166.652016 L 284.425658 166.639639 C 284.171076 166.637497 283.965252 166.431673 283.965558 166.17634 L 283.970536 164.746697 C 283.970814 164.493033 284.17942 164.284428 284.433863 164.286597 L 287.977347 164.298974 C 288.231929 164.301116 288.437753 164.50694 288.437447 164.762273 L 288.432468 166.191916 Z" style="fill:#000000;"/>
		<path d="M 301.076464 166.125719 C 301.073682 166.409422 300.842826 166.637497 300.556341 166.634716 L 297.563548 166.609683 C 297.099053 166.60412 296.726344 166.234193 296.729126 165.780824 L 296.734688 165.102161 C 296.740251 164.648792 297.118523 164.284428 297.585799 164.28999 L 300.578592 164.315023 C 300.862296 164.317804 301.090371 164.551443 301.087589 164.835146 L 301.076464 166.125719 Z" style="fill:#000000;"/>
		<path d="M 318.665828 166.193029 C 318.666078 166.434455 318.471379 166.631935 318.227895 166.634021 L 314.645471 166.646537 C 314.402182 166.648623 314.204702 166.451143 314.20448 166.208605 L 314.19939 164.751148 C 314.199139 164.509721 314.393838 164.312242 314.637322 164.310156 L 318.219746 164.297639 C 318.463035 164.295553 318.660515 164.493033 318.660738 164.735572 L 318.665828 166.193029 Z" style="fill:#000000;"/>
		<path d="M 174.565446 166.182988 C 174.566975 166.431673 174.363933 166.634716 174.115637 166.634354 L 170.516497 166.64064 C 170.266921 166.640279 170.06666 166.440018 170.06513 166.190831 L 170.062627 164.755626 C 170.061097 164.50694 170.26414 164.303897 170.512436 164.304259 L 174.111576 164.297973 C 174.361151 164.298335 174.561413 164.498596 174.562942 164.747782 L 174.565446 166.182988 Z" style="fill:#000000;"/>
		<path d="M 185.133538 166.245319 C 185.133538 166.459487 184.95831 166.634716 184.744141 166.634716 L 181.005931 166.634716 C 180.791763 166.634716 180.616534 166.459487 180.616534 166.245319 L 180.616534 164.698857 C 180.616534 164.484689 180.791763 164.30946 181.005931 164.30946 L 184.744141 164.30946 C 184.95831 164.30946 185.133538 164.484689 185.133538 164.698857 L 185.133538 166.245319 Z" style="fill:#000000;"/>
		<path d="M 305.117847 165.739103 L 305.117847 165.132757 C 305.117847 164.679387 305.487774 164.30946 305.941144 164.30946 L 306.978608 164.30946 C 307.431977 164.30946 307.801904 164.679387 307.801904 165.132757 L 307.801904 165.739103 C 307.801904 166.192472 307.431977 166.562399 306.978608 166.562399 L 305.941144 166.562399 C 305.487774 166.562399 305.117847 166.192472 305.117847 165.739103 Z" style="fill:#000000;"/>
	</g>
	<g id="surface4">
	</g>
</svg>
