<?xml version="1.0" encoding="utf-8"?>
<svg xmlns="http://www.w3.org/2000/svg" width="490pt" height="280pt" viewBox="0 0 490 280" version="1.1" xmlns:xlink="http://www.w3.org/1999/xlink">
	<g id="surface2" data-size="140.81158893319 148" data-bboxpos="174.5 51.494109654492" data-pivot="244.9057944666 125.49410965449" data-center="244.9057944666 125.49410965449">
		<path vector-effect="non-scaling-stroke" d="M 195.4606 51.525505 Q 195.315006 51.682087 195.6007 51.684834 Q 241.270486 51.742522 286.937525 51.701316 Q 287.096855 51.701316 287.195749 51.616157" style="fill:none;stroke-width:0.50;stroke:#3482b4;"/>
		<path vector-effect="non-scaling-stroke" d="M 288.832993 199.163219 L 204.437975 199.234643" style="fill:none;stroke-width:0.50;stroke:#3482b4;"/>
		<path vector-effect="non-scaling-stroke" d="M 217.038715 120.190887 Q 217.274962 120.399663 217.395833 120.215611 Q 217.486485 120.078258 217.362868 119.968376 Q 217.354627 119.957387 217.269468 119.938158" style="fill:none;stroke-width:0.50;stroke:#3482b4;"/>
		<path vector-effect="non-scaling-stroke" d="M 244.012047 120.174405 Q 243.742835 120.221105 243.998311 120.295275 Q 244.121929 120.330987 244.292246 120.330987 Q 258.648355 120.363951 273.012705 120.339228" style="fill:none;stroke-width:0.50;stroke:#3482b4;"/>
		<path vector-effect="non-scaling-stroke" d="M 249.775368 121.723744 L 246.382755 121.641332 C 246.347043 121.638585 246.308585 121.633091 246.272873 121.619356 Q 245.984432 121.514967 245.759174 121.534197 C 245.64105 121.545185 245.599844 121.696273 245.695991 121.764949 L 246.418467 122.284143" style="fill:none;stroke-width:0.50;stroke:#3482b4;"/>
		<path vector-effect="non-scaling-stroke" d="M 239.05636 178.631731 Q 238.929995 178.458667 238.119614 177.892774 C 235.820329 176.283 234.696784 173.47551 235.13906 170.786143 C 235.457718 168.841228 237.037275 167.01169 238.696496 165.940338 C 243.56153 162.803202 250.588496 163.185042 252.97294 169.288998 C 253.030628 169.440086 253.225669 169.486786 253.349286 169.379651 Q 253.618497 169.146151 255.016748 167.912723 C 258.478037 164.857999 263.757877 164.668452 267.845494 166.657319 C 270.33982 167.868771 272.586911 170.283432 274.435679 172.43987 Q 277.369534 175.859953 282.432356 182.040826 C 284.454188 184.510429 286.574914 186.779496 288.786293 188.933187 C 291.634989 191.704965 295.049578 194.218521 298.71415 195.756871 C 303.823671 197.899574 308.3673 194.737714 310.526485 190.136397 C 313.688345 183.403366 312.106042 175.892918 307.469013 170.239479 C 303.744007 165.704091 298.332309 162.396637 292.791499 160.602811 C 291.236666 160.097353 289.245052 159.589147 287.239701 159.146872 Q 285.588722 158.78426 284.690435 158.421649 C 282.476308 157.526109 280.613805 155.578447 280.374811 153.139063 Q 280.284159 152.221546 280.806099 150.260149 C 282.143915 145.244027 282.135674 140.497116 279.322689 136.096334 Q 278.001356 134.030549 276.438282 132.780639 C 272.748987 129.835797 268.043282 128.882569 263.430977 129.648997 Q 259.576859 130.291808 256.901228 132.626804 C 253.121281 135.926017 251.805441 141.241568 252.821852 146.059902 Q 253.37401 148.675099 253.54158 149.664038 C 254.137691 153.136316 251.772477 155.811947 248.624352 156.990433 Q 247.327742 157.476662 245.481721 158.092002 Q 240.836451 159.641341 236.79004 162.360926 Q 234.325931 164.0174 232.501887 166.37712 Q 230.098214 169.486786 231.021224 172.928846 C 231.867317 176.087959 234.584155 177.716962 237.515262 178.593273 Q 238.125108 178.777325 238.951972 178.829519 C 239.05636 178.835013 239.119542 178.71689 239.05636 178.631731" style="fill:none;stroke-width:0.50;stroke:#3482b4;"/>
		<path stroke-opacity="0.984" vector-effect="non-scaling-stroke" d="M 209.822202 195.353054 Q 218.744636 195.523372 232.273881 195.526119 Q 282.718049 195.537107 287.627036 195.556336 Q 289.000564 195.56183 290.527926 195.339319 C 290.838343 195.292619 290.989431 194.932755 290.799885 194.680026 Q 290.53342 194.325656 289.970274 194.254232 Q 289.231316 194.160832 288.181941 194.160832 Q 271.430401 194.180062 252.659775 194.158085 C 250.539049 194.155338 247.951323 193.960297 245.572374 194.078421 Q 243.556036 194.180062 240.262317 194.166326 Q 224.873316 194.105891 209.484315 194.251485" style="fill:none;stroke-width:0.50;stroke:#7da1bd;"/>
		<path stroke-opacity="0.984" vector-effect="non-scaling-stroke" d="M 188.52978 192.342282 Q 188.892392 192.361511 189.287968 192.405464 Q 189.598385 192.441176 189.697279 192.246135" style="fill:none;stroke-width:0.50;stroke:#7da1bd;"/>
		<path stroke-opacity="0.984" vector-effect="non-scaling-stroke" d="M 192.592674 192.369753 Q 192.306981 192.498864 191.930634 192.449417 Q 191.947117 192.452164 191.960852 192.452164 Q 195.468841 192.592264 199.669088 192.556552 Q 208.792057 192.479635 210.297443 192.454911 C 211.198477 192.438429 212.069293 192.548311 212.865939 192.518094 C 215.676176 192.410958 218.642995 192.529082 221.346097 192.534576 Q 253.623992 192.622482 287.481442 192.562046 C 287.635277 192.562046 287.742413 192.408211 287.687471 192.262617 L 287.662748 192.202182 C 287.594072 192.020877 287.423754 191.902753 287.228713 191.900006 C 265.419845 191.781883 239.482153 191.770895 218.32159 191.979671" style="fill:none;stroke-width:0.50;stroke:#7da1bd;"/>
		<path stroke-opacity="0.984" vector-effect="non-scaling-stroke" d="M 190.120325 192.117024 Q 189.197315 191.795618 188.353969 192.0923" style="fill:none;stroke-width:0.50;stroke:#7da1bd;"/>
		<path vector-effect="non-scaling-stroke" d="M 246.27562 188.438717 L 245.998167 188.48267 C 245.937732 188.490911 245.932238 188.57607 245.989926 188.595299 Q 246.745366 188.842534 247.35796 188.663976 C 247.437624 188.641999 247.434877 188.52937 247.355212 188.510141 Q 247.011831 188.427729 246.640978 188.468935" style="fill:none;stroke-width:0.50;stroke:#3482b4;"/>
		<path vector-effect="non-scaling-stroke" d="M 263.293625 188.430476 Q 261.977785 188.666723 264.002365 188.699687 Q 267.230154 188.749134 270.452449 188.559588" style="fill:none;stroke-width:0.50;stroke:#3482b4;"/>
		<path vector-effect="non-scaling-stroke" d="M 272.095188 187.647565 Q 269.114634 187.595371 266.131332 187.578889 Q 234.971489 187.430548 228.221976 187.554166 Q 227.513235 187.567901 226.43639 187.532189 Q 223.980523 187.449777 217.942496 187.510213 C 217.318915 187.515707 216.568969 187.639324 215.871217 187.644818" style="fill:none;stroke-width:0.50;stroke:#3482b4;"/>
		<path vector-effect="non-scaling-stroke" d="M 264.777034 188.43597 L 267.095548 188.468935" style="fill:none;stroke-width:0.50;stroke:#3482b4;"/>
		<path vector-effect="non-scaling-stroke" d="M 267.219166 188.466188 L 267.631224 188.460694" style="fill:none;stroke-width:0.50;stroke:#3482b4;"/>
		<path stroke-opacity="0.984" vector-effect="non-scaling-stroke" d="M 213.258768 195.215701 Q 213.352168 195.190978 213.467544 195.199219" style="fill:none;stroke-width:0.50;stroke:#7da1bd;"/>
		<path stroke-opacity="0.984" vector-effect="non-scaling-stroke" d="M 213.662585 195.218448 L 214.069149 195.20746" style="fill:none;stroke-width:0.50;stroke:#aedbf1;"/>
		<path stroke-opacity="0.984" vector-effect="non-scaling-stroke" d="M 238.965707 194.894296 L 241.740232 194.927261 C 241.745727 194.927261 241.751221 194.921767 241.748474 194.916272 Q 241.748474 194.913525 241.745727 194.908031 C 241.742979 194.897043 241.734738 194.888802 241.72375 194.888802 L 239.221183 194.855837" style="fill:none;stroke-width:0.50;stroke:#aedbf1;"/>
		<path stroke-opacity="0.984" vector-effect="non-scaling-stroke" d="M 228.342846 194.770679 L 226.312772 194.699255" style="fill:none;stroke-width:0.50;stroke:#aedbf1;"/>
		<path stroke-opacity="0.984" vector-effect="non-scaling-stroke" d="M 226.153443 194.674532 Q 225.859508 194.542673 225.483162 194.644314" style="fill:none;stroke-width:0.50;stroke:#aedbf1;"/>
		<path stroke-opacity="0.984" vector-effect="non-scaling-stroke" d="M 224.848592 194.633326 L 223.837676 194.616843" style="fill:none;stroke-width:0.50;stroke:#aedbf1;"/>
		<path stroke-opacity="0.984" vector-effect="non-scaling-stroke" d="M 210.146355 192.295582 Q 210.330407 192.468647 210.51446 192.284594" style="fill:none;stroke-width:0.50;stroke:#aedbf1;"/>
		<path stroke-opacity="0.984" vector-effect="non-scaling-stroke" d="M 210.679283 192.309317 Q 211.745141 192.487876 212.791769 192.30657" style="fill:none;stroke-width:0.50;stroke:#aedbf1;"/>
		<path stroke-opacity="0.984" vector-effect="non-scaling-stroke" d="M 214.670754 192.125265 Q 215.011389 192.21317 215.255877 192.073071" style="fill:none;stroke-width:0.50;stroke:#aedbf1;"/>
		<path stroke-opacity="0.984" vector-effect="non-scaling-stroke" d="M 239.567312 190.724267 L 266.735684 190.699543" style="fill:none;stroke-width:0.50;stroke:#7da1bd;"/>
		<path stroke-opacity="0.984" vector-effect="non-scaling-stroke" d="M 266.966437 190.650096 Q 266.988413 190.636361 267.007643 190.625373" style="fill:none;stroke-width:0.50;stroke:#7da1bd;"/>
		<path stroke-opacity="0.984" vector-effect="non-scaling-stroke" d="M 277.009669 190.630867 Q 279.558936 190.839643 282.135674 190.663832" style="fill:none;stroke-width:0.50;stroke:#7da1bd;"/>
		<path stroke-opacity="0.984" vector-effect="non-scaling-stroke" d="M 285.36621 190.705037 Q 285.448622 190.867114 285.709592 190.812173 C 285.899139 190.773714 285.93485 190.520985 285.76728 190.427585 Q 285.465104 190.262762 285.072275 190.342426" style="fill:none;stroke-width:0.50;stroke:#7da1bd;"/>
		<path stroke-opacity="0.984" vector-effect="non-scaling-stroke" d="M 283.638313 190.380885 Q 281.135746 190.284738 278.64142 190.328691 C 277.048128 190.356161 275.608671 190.194085 274.204926 190.309461 Q 273.106104 190.400114 272.34517 190.34792 C 271.174925 190.271003 270.051379 190.39462 268.919593 190.364403 C 263.966653 190.229797 256.013929 190.30122 243.929635 190.32045 Q 242.45172 190.323197 239.581047 190.257267 Q 236.963104 190.196832 235.224218 190.213315 Q 232.131035 190.243532 229.037851 190.345173" style="fill:none;stroke-width:0.50;stroke:#7da1bd;"/>
		<path vector-effect="non-scaling-stroke" d="M 258.227836 139.493452 C 255.879324 144.601216 258.18685 150.677702 263.383728 153.067694 C 268.578958 155.457577 274.696649 153.254439 277.045601 148.148653 C 279.394113 143.040889 277.086587 136.964404 271.889709 134.574411 C 266.694478 132.184528 260.576787 134.387666 258.227836 139.493452" style="fill:none;stroke-width:0.50;stroke:#3482b4;"/>
		<path vector-effect="non-scaling-stroke" d="M 299.395419 186.746531 C 302.123245 187.966224 305.092811 187.122878 306.485568 184.463729 Q 307.372866 182.771543 307.186067 180.398088 C 306.864661 176.283 304.345612 172.687105 301.257922 169.98675 C 297.626316 166.808407 293.393104 164.63274 288.712123 164.572305 C 286.929284 164.547581 284.904705 165.536521 284.182229 167.275407 C 282.630143 171.008654 286.099674 175.01386 288.398959 177.579609 Q 292.233847 181.859521 296.326959 184.949958 Q 297.700486 185.988344 299.395419 186.746531" style="fill:none;stroke-width:0.50;stroke:#3482b4;"/>
		<path stroke-opacity="0.984" vector-effect="non-scaling-stroke" d="M 286.149121 194.930008 L 289.887862 195.064613 C 289.91808 195.064613 289.948298 195.061866 289.978515 195.059119 L 290.489467 194.984949 C 290.591108 194.968466 290.629567 194.844849 290.55265 194.776173 Q 289.816439 194.119627 289.052758 194.68552 C 288.99507 194.729473 288.923646 194.754196 288.849476 194.756943 L 286.14088 194.847596 C 286.12165 194.850343 286.105168 194.866825 286.105168 194.886055 C 286.107915 194.910778 286.124397 194.927261 286.149121 194.930008" style="fill:none;stroke-width:0.50;stroke:#aedbf1;"/>
		<path d="M 195.4606 51.525505 Q 195.315006 51.682087 195.6007 51.684834 Q 241.270486 51.742522 286.937525 51.701316 Q 287.096855 51.701316 287.195749 51.616157 Q 289.720292 51.951298 291.813548 53.489649 Q 294.579832 55.522469 295.398454 58.890359 Q 295.500095 59.316152 295.670413 60.568809 Q 295.788536 61.439625 295.788536 62.263742 Q 295.783042 115.0017 295.802271 158.061785 C 295.802271 158.284296 295.93413 158.487578 296.137412 158.578231 Q 296.357176 158.674378 297.917504 159.385865 Q 304.765911 162.495531 309.334263 167.681971 Q 311.759913 170.43452 313.48781 174.145791 Q 314.193803 175.664912 314.614103 177.48621 Q 315.09209 179.549248 315.276143 180.947499 Q 315.331084 181.367798 315.300867 184.216494 Q 315.295372 184.840075 315.105826 186.059768 Q 314.990449 186.812461 314.723985 187.875571 Q 313.570222 192.507105 310.268262 195.960153 Q 308.595306 197.710027 306.081751 198.698967 Q 302.98582 199.915912 299.782754 199.270354 Q 297.439516 198.795114 294.818826 197.179846 C 294.736414 197.130399 294.640267 197.102928 294.54412 197.105675 Q 294.195244 197.111169 293.893068 197.465539 C 293.838127 197.525975 293.774945 197.578169 293.703522 197.616627 Q 291.393248 198.86379 288.832993 199.163219 L 204.437975 199.234643 L 190.491178 199.259366 C 190.362066 199.262113 190.232954 199.245631 190.10659 199.215413 Q 189.032491 198.948949 188.342981 198.704461 Q 183.868028 197.122157 182.425825 192.746099 Q 182.054972 191.61706 182.054972 189.930368 Q 182.054972 183.680818 182.03849 177.656527 Q 182.035743 176.766481 181.939596 176.030271 C 181.909378 175.802265 181.700602 175.637442 181.469849 175.662165 Q 180.436957 175.766553 178.9975 175.708865 Q 175.799928 175.577006 174.775277 172.667875 C 174.343989 171.439942 174.407172 169.541727 175.041741 168.385217 C 176.415269 165.888144 179.307917 166.522714 181.61819 166.657319 C 181.857184 166.671055 182.060466 166.481508 182.060466 166.242514 L 182.060466 160.130317 C 182.060466 159.751224 181.75829 159.443553 181.379197 159.435312 C 180.719904 159.424324 179.299676 159.264995 178.714553 158.844696 Q 177.722867 158.130461 177.67342 156.847587 Q 177.601996 154.996072 179.209023 154.303814 Q 179.225506 154.29832 179.241988 154.292826 L 181.456114 153.801103 C 181.829714 153.718691 182.093431 153.386298 182.093431 153.004457 L 182.093431 151.776523 C 182.093431 151.435889 181.802243 151.166677 181.464355 151.194148 C 180.140275 151.293042 178.989259 151.018336 177.857472 150.916695 C 177.777808 150.908454 177.698143 150.891972 177.621226 150.864501 C 175.71477 150.183232 174.46486 148.381164 174.668142 146.381308 C 174.907136 144.062793 176.887762 143.257906 179.013982 143.257906 Q 180.538598 143.260653 181.648408 143.299112 C 181.862678 143.307353 182.041237 143.134289 182.041237 142.917272 L 182.041237 138.733507 C 182.041237 138.456055 181.80499 138.23629 181.527538 138.261014 C 179.063429 138.464296 176.854797 139.313136 175.20107 136.827051 Q 174.563754 135.871076 174.517054 134.643142 Q 174.467607 133.316315 174.745059 132.330122 Q 174.794506 132.14607 175.286229 131.267012 C 175.324688 131.198336 175.371388 131.132406 175.426329 131.074718 Q 176.036175 130.440149 176.96468 129.951173 Q 177.698143 129.569332 178.758506 129.45945 Q 180.46168 129.283639 181.620937 129.261662 C 181.854437 129.256168 182.041237 129.066621 182.041237 128.830374 L 182.041237 123.79777 C 182.041237 123.380218 181.612696 123.097271 181.228109 123.259347 L 180.805062 123.437906 C 180.675951 123.492847 180.538598 123.520317 180.398498 123.520317 L 177.637708 123.520317 C 177.511343 123.520317 177.387726 123.498341 177.27235 123.451641 Q 175.245023 122.671478 174.750553 120.85018 Q 174.467607 119.814541 174.522548 118.44376 Q 174.574742 117.11968 175.250517 116.174693 C 176.610309 114.26549 178.607418 114.383613 180.989115 114.323178 C 181.370956 114.314937 181.71159 114.444048 181.986296 114.081437 C 182.030249 114.026496 182.054972 113.95782 182.054972 113.886396 L 182.054972 109.136738 C 182.054972 108.834562 181.752796 108.623039 181.467102 108.727427 Q 180.261145 109.17245 178.879377 109.221897 Q 177.277844 109.276838 176.346592 108.645016 Q 175.030753 107.75497 174.67913 106.296284 Q 174.46486 105.403491 174.561007 104.016228 Q 174.651659 102.741595 175.288976 101.890008 C 175.948269 101.008203 176.868533 100.450551 178.036031 100.261004 Q 179.676023 99.991793 181.478091 100.109916 C 181.788508 100.131893 182.052225 99.884658 182.052225 99.571493 L 182.052225 94.7614 C 182.052225 94.494936 181.821473 94.28616 181.555008 94.313631 Q 181.307773 94.341101 179.225506 94.56636 Q 175.76147 94.945453 174.67913 91.654481 Q 174.495077 91.096829 174.574742 89.454091 C 174.651659 87.91574 175.297217 86.907571 176.560863 86.099937 Q 177.277844 85.638431 178.294254 85.484596 Q 179.969958 85.22912 181.54402 85.278567 C 181.82422 85.286808 182.054972 85.064297 182.054972 84.784097 L 182.054972 72.793203 C 182.054972 72.493774 181.774773 72.27401 181.483585 72.345433 L 179.236494 72.894844 C 179.228253 72.897591 179.217265 72.897591 179.209023 72.897591 Q 176.725686 73.15032 175.354905 71.326276 Q 174.646165 70.381289 174.552765 69.068197 C 174.462113 67.801804 174.574742 66.233236 175.624117 65.170126 C 176.648768 64.128992 177.915161 63.609799 179.423294 63.538375 Q 180.417727 63.488928 181.722579 63.299382 C 181.920366 63.271911 182.06596 63.101594 182.06596 62.903806 Q 182.063213 61.409408 182.01926 58.036025 Q 181.994537 56.154292 182.502742 55.036241 C 183.651011 52.511697 186.246978 51.547481 188.917115 51.511769 Q 192.18611 51.470563 195.4606 51.525505 Z M 217.038715 120.190887 Q 217.274962 120.399663 217.395833 120.215611 Q 217.486485 120.078258 217.362868 119.968376 Q 217.354627 119.957387 217.269468 119.938158 Q 216.12944 119.034377 215.406965 118.218502 Q 214.313637 116.97958 213.29448 115.595064 Q 210.720489 112.103558 210.896301 107.925287 C 210.904542 107.719258 210.739719 107.546194 210.53369 107.546194 L 208.797551 107.546194 C 208.698657 107.546194 208.608004 107.494 208.558557 107.408841 L 208.231658 106.840201 C 208.182211 106.757789 208.182211 106.653401 208.231658 106.568242 C 208.627234 105.892467 209.676608 106.164425 210.72873 106.213872 C 211.05563 106.230354 211.338577 105.988614 211.374288 105.664461 C 211.511641 104.398069 213.058233 102.519083 213.786202 101.851549 C 214.983918 100.752727 216.711816 99.936852 218.340819 99.335247 C 218.741889 99.186906 219.192406 99.263823 219.5248 99.535782 L 227.337424 105.96389 C 227.474777 106.076519 227.650588 106.139702 227.831894 106.139702 L 272.908316 106.139702 C 273.226975 106.139702 273.485198 106.397925 273.485198 106.716583 L 273.485198 106.939095 C 273.485198 107.293465 273.196757 107.581905 272.83964 107.581905 L 229.45815 107.581905 C 229.257615 107.581905 229.166962 107.831887 229.320798 107.960999 L 244.012047 120.174405 Q 243.742835 120.221105 243.998311 120.295275 Q 244.121929 120.330987 244.292246 120.330987 Q 258.648355 120.363951 273.012705 120.339228 Q 273.328616 120.319999 273.476957 120.677116 C 273.597827 120.962809 273.498933 121.29795 273.237963 121.471015 Q 272.754481 121.795167 272.243529 121.789673 Q 261.010822 121.668803 249.775368 121.723744 L 246.382755 121.641332 C 246.347043 121.638585 246.308585 121.633091 246.272873 121.619356 Q 245.984432 121.514967 245.759174 121.534197 C 245.64105 121.545185 245.599844 121.696273 245.695991 121.764949 L 246.418467 122.284143 L 254.813466 129.363303 C 255.129378 129.629767 255.585389 129.635262 255.906794 129.379785 C 257.060557 128.465016 258.162126 128.055705 259.909253 127.385424 Q 261.145428 126.91293 261.876144 126.786566 C 265.070969 126.237155 268.545993 126.151996 271.619948 126.973365 Q 278.984802 128.934763 282.729037 135.681529 Q 283.231749 136.588057 283.68776 137.914885 Q 284.316835 139.752664 284.410235 140.21417 Q 285.316763 144.741316 284.369029 149.054192 Q 283.924006 151.073277 283.85533 151.290295 Q 283.561395 152.240776 283.767424 153.446733 C 283.783907 153.54288 283.816871 153.63628 283.863571 153.724185 Q 284.676699 155.229571 286.280979 155.7158 Q 287.37156 156.048194 289.365922 156.460252 C 289.451081 156.479481 289.536239 156.504205 289.618651 156.534422 Q 290.676267 156.932745 291.343801 157.006916 C 291.640483 157.037133 291.838271 157.306345 292.104736 157.22668 C 292.332741 157.158004 292.486576 156.960216 292.486576 156.737704 Q 292.467347 109.414191 292.489323 62.195066 C 292.489323 62.002772 292.470094 61.807731 292.428888 61.618184 Q 292.255824 60.777585 292.198135 60.159498 Q 292.1377 59.516687 291.423466 58.137666 Q 290.343873 56.049904 288.209412 55.184582 Q 287.234207 54.791753 283.836101 54.7945 Q 269.84535 54.810982 188.941839 54.799994 C 188.829209 54.799994 188.71658 54.816476 188.606698 54.846694 Q 188.139699 54.973058 187.246906 55.341164 Q 186.345872 55.712016 185.873378 56.714691 Q 185.584938 57.324537 185.642626 58.678835 Q 185.656361 59.033205 185.64812 62.763706 C 185.645373 62.961494 185.804702 63.12357 186.005237 63.129064 Q 188.988539 63.189499 190.754895 63.222464 Q 192.51301 63.258176 193.466238 63.802093 C 195.128206 64.752574 195.858923 66.123354 195.825958 68.054533 C 195.79574 69.925278 195.4606 71.172441 193.831596 72.224563 C 193.740943 72.284998 193.639302 72.323457 193.532167 72.337192 C 193.065168 72.403121 192.427851 72.499268 191.905911 72.477292 Q 190.021431 72.397627 185.972272 72.304227 C 185.796461 72.298733 185.653614 72.44158 185.653614 72.617392 L 185.653614 75.751781 C 185.653614 75.858916 185.730532 75.952316 185.83492 75.968798 Q 186.422789 76.070439 187.016153 76.056704 Q 190.966418 75.982534 192.86738 75.938581 C 193.598097 75.922098 194.47166 76.103404 194.823283 76.581392 Q 196.509975 78.877929 194.394742 80.501439 C 194.315078 80.561874 194.216184 80.597586 194.114543 80.605827 Q 192.664098 80.690986 191.579011 80.567368 C 189.441803 80.32288 188.197387 80.36958 186.14259 80.089381 C 185.884367 80.053669 185.653614 80.254204 185.653614 80.515174 L 185.653614 84.850027 C 185.653614 85.053309 185.81569 85.218132 186.016225 85.220879 Q 189.61212 85.27582 190.603807 85.256591 Q 191.966346 85.231867 192.86738 85.577996 Q 193.911261 85.979066 194.760101 86.874606 Q 195.760029 87.923981 195.803982 89.607926 C 195.839693 91.033647 195.735305 92.330257 194.760101 93.387873 Q 193.696991 94.541636 192.095458 94.486695 Q 186.219507 94.280666 186.010731 94.275172 C 185.81569 94.272425 185.653614 94.431754 185.653614 94.629542 L 185.653614 99.541276 C 185.653614 99.785764 185.856896 99.980805 186.101384 99.967069 Q 189.290715 99.791258 191.749329 99.989046 Q 194.11729 100.18134 195.353465 102.071313 C 195.411153 102.153725 195.452359 102.247125 195.479829 102.343272 Q 196.224281 104.917262 195.408406 106.925359 Q 194.905695 108.167028 193.337126 108.81808 C 193.240979 108.859286 193.139338 108.881262 193.03495 108.884009 Q 189.274232 109.029603 186.134349 108.686221 C 185.878872 108.658751 185.653614 108.859286 185.653614 109.117509 L 185.653614 113.880902 C 185.653614 114.023749 185.76899 114.141872 185.911837 114.144619 Q 188.046299 114.183078 190.312619 114.152861 Q 191.999311 114.128137 193.650291 114.735236 C 193.735449 114.765454 193.815114 114.809407 193.889284 114.864348 Q 195.177653 115.839552 195.468841 116.647186 Q 196.031987 118.226743 195.713329 120.223852 C 195.125459 123.880182 191.61747 123.613717 188.647904 123.306047 C 187.656217 123.201659 186.950224 123.196165 186.112372 123.18243 C 185.856896 123.176936 185.64812 123.382965 185.64812 123.638441 L 185.64812 128.709504 C 185.64812 128.962233 185.854149 129.165515 186.106878 129.162768 Q 186.656289 129.160021 190.584577 129.165515 Q 192.427851 129.171009 193.383826 129.681961 C 195.144688 130.629695 195.902876 132.09937 195.806729 134.063514 C 195.707835 136.038646 195.2271 137.38745 193.326138 138.244531 C 193.186038 138.307714 193.032203 138.337931 192.875621 138.335184 L 186.082155 138.219808 C 185.845908 138.214314 185.650867 138.406608 185.650867 138.642854 L 185.650867 142.749701 C 185.650867 143.00243 185.856896 143.208459 186.109625 143.208459 L 193.249221 143.208459 C 193.331632 143.208459 193.414044 143.224942 193.490961 143.255159 Q 195.369947 144.002358 195.710582 145.878597 Q 195.820464 146.474708 195.713329 147.188942 Q 195.529276 148.397646 195.482576 148.480058 Q 194.359031 150.392008 192.502022 150.625507 Q 190.993889 150.812307 185.964031 150.889225 C 185.790967 150.891972 185.650867 151.032072 185.650867 151.205136 L 185.650867 152.836887 C 185.650867 153.00171 185.785473 153.136316 185.953043 153.136316 L 192.312475 153.130821 C 192.331704 153.130821 192.350934 153.133569 192.370163 153.139063 Q 194.449684 153.677485 195.430382 155.424612 C 195.477082 155.504277 195.504553 155.592183 195.518288 155.680088 C 195.718823 157.004169 195.977046 157.847515 195.496311 159.303454 Q 194.900201 161.113763 192.94155 161.632956 C 192.856392 161.654933 192.771233 161.665921 192.683327 161.665921 L 186.016225 161.632956 C 185.81569 161.632956 185.653614 161.795032 185.653614 161.995567 L 185.653614 166.267238 C 185.653614 166.456784 185.807449 166.610619 185.994249 166.610619 L 192.166881 166.610619 C 192.191604 166.610619 192.219075 166.613367 192.243799 166.621608 Q 193.875549 167.135307 194.411225 167.585824 C 196.067699 168.981328 196.070446 171.876724 195.471588 173.78318 C 195.446864 173.85735 195.416647 173.928774 195.375441 173.994703 Q 194.784824 174.969907 193.683255 175.577006 C 193.609085 175.615465 193.534914 175.642936 193.45525 175.659418 C 191.043336 176.162129 188.17541 175.708865 186.062925 175.645683 C 185.837667 175.637442 185.650867 175.818747 185.650867 176.044006 L 185.650867 185.647709 C 185.650867 185.837256 185.856896 185.95538 186.018972 185.859233 L 187.266135 185.139504 C 187.307341 185.117528 187.348547 185.101046 187.3925 185.08731 Q 189.455538 184.515923 193.265703 184.548888 Q 208.877215 184.680746 243.674159 184.554382 Q 244.737269 184.548888 251.418107 184.551635 Q 263.425483 184.557129 264.895158 184.570864 Q 272.257264 184.631299 279.968247 184.576358 C 280.223723 184.576358 280.363823 184.279676 280.201747 184.081888 Q 275.47956 178.266373 272.611635 174.909472 C 270.705178 172.678864 268.460835 169.973015 265.66708 168.99781 C 264.329264 168.528064 263.513389 168.50334 262.002509 168.497846 Q 260.653705 168.492352 259.711465 168.800022 Q 258.409361 169.228563 257.310539 170.12685 C 255.159595 171.890459 254.132197 174.662237 252.357599 176.722528 Q 247.10523 182.818243 238.660784 181.961162 Q 237.020792 181.796339 235.229712 181.161769 Q 231.411306 179.810218 229.216409 176.634623 Q 227.667071 174.395773 227.601141 171.670694 Q 227.513235 168.146223 229.425186 165.319504 Q 230.713554 163.410301 232.466175 161.910409 Q 234.433067 160.229211 235.759894 159.374877 Q 239.416224 157.020651 243.814259 155.336706 Q 245.679509 154.619725 247.459601 154.034603 C 249.08311 153.501674 250.409937 152.051229 250.440155 150.284873 C 250.442902 150.185979 250.429167 150.087085 250.401696 149.993685 Q 250.088532 148.933322 249.725921 147.092795 C 249.643509 146.680737 249.712186 145.941779 249.267163 145.620374 Q 248.995204 145.422586 242.440731 140.321305 C 236.98508 136.074358 231.856329 132.025199 223.933823 125.701479 Q 221.815844 124.009293 219.439641 121.987461 C 219.153948 121.740226 218.785842 121.608367 218.406749 121.613861 L 209.140933 121.731985 C 208.720633 121.737479 208.360769 121.427062 208.305828 121.009509 L 208.300334 120.960062 C 208.24814 120.556245 208.564051 120.196381 208.970615 120.196381 L 217.038715 120.190887 Z M 192.507516 68.082004 L 192.507516 67.939157 C 192.507516 67.246899 191.949864 66.6865 191.257606 66.678259 Q 186.749689 66.631559 182.071454 66.6865 Q 180.132034 66.711224 179.118371 66.823853 C 178.437101 66.898023 177.920655 67.474905 177.920655 68.158922 L 177.920655 68.268804 C 177.920655 69.04622 178.632142 69.631343 179.395823 69.483002 Q 181.884655 68.996773 185.175626 69.024244 Q 190.054396 69.068197 191.397706 69.136873 C 192.002058 69.167091 192.507516 68.686356 192.507516 68.082004 Z M 192.491033 90.121625 L 192.491033 89.978778 C 192.499275 89.289267 191.949864 88.720627 191.260353 88.706892 Q 186.760677 88.605251 182.093431 88.602504 Q 180.156757 88.605251 179.143094 88.704145 C 178.461824 88.772821 177.939884 89.338714 177.931643 90.022731 L 177.931643 90.132613 C 177.920655 90.91003 178.623901 91.503393 179.387582 91.363294 Q 181.879161 90.907283 185.161891 90.973212 Q 190.029672 91.0776 191.370235 91.160012 C 191.97184 91.19847 192.482792 90.725977 192.491033 90.121625 Z M 236.086794 117.726779 C 235.985153 117.559209 235.724182 117.430097 235.564853 117.295491 Q 232.718904 114.908301 222.49986 106.208378 Q 219.736323 103.854152 219.022089 103.282765 C 218.961654 103.233318 218.895724 103.192112 218.821554 103.161894 Q 218.035896 102.818512 217.217274 103.351441 Q 216.302505 103.950299 215.453665 104.845839 C 215.395977 104.909021 215.343783 104.97495 215.29983 105.049121 Q 213.640609 107.818152 214.467472 110.784971 Q 214.92623 112.433204 216.588198 114.474266 Q 218.04139 116.262599 219.513812 117.61415 Q 223.994258 121.726491 228.590081 125.641044 C 228.801604 125.819602 229.120263 125.775649 229.274098 125.544897 Q 231.188795 122.657742 233.894644 119.938158 Q 234.869848 118.957459 235.935706 118.298166 C 236.136241 118.174549 236.20217 117.919073 236.086794 117.726779 Z M 192.485539 104.562892 L 192.488286 104.420045 C 192.491033 103.727787 191.933381 103.161894 191.241124 103.150906 Q 186.722218 103.084977 182.035743 103.120688 Q 180.090828 103.137171 179.074418 103.247053 C 178.393148 103.318476 177.871208 103.892611 177.868461 104.579374 L 177.868461 104.689257 C 177.865714 105.46942 178.577201 106.060037 179.343629 105.911696 Q 181.837955 105.436456 185.137168 105.477661 Q 190.024178 105.540844 191.370235 105.615014 C 191.974587 105.647979 192.485539 105.167244 192.485539 104.562892 Z M 192.469057 118.89153 L 192.469057 118.748683 C 192.477298 118.059172 191.92514 117.490532 191.232882 117.47405 Q 186.722218 117.383397 182.03849 117.388891 Q 180.099069 117.394385 179.082659 117.496026 C 178.401389 117.564703 177.879449 118.13609 177.871208 118.820107 L 177.871208 118.929989 C 177.862966 119.710152 178.566213 120.300769 179.332641 120.160669 Q 181.829714 119.699164 185.123432 119.759599 Q 190.002202 119.852999 191.348259 119.935411 C 191.949864 119.97387 192.460816 119.498629 192.469057 118.89153 Z M 248.975975 141.431115 C 249.149039 141.568468 249.404515 141.46408 249.434733 141.244315 Q 249.775368 138.645601 250.464879 136.579816 Q 251.242295 134.247567 252.838334 132.324628 C 252.970193 132.168046 252.948216 131.934546 252.791634 131.802688 C 247.772765 127.563982 243.292318 123.915893 238.883295 120.028811 C 238.119614 119.355782 237.842162 119.157994 237.034527 120.086499 Q 236.853222 120.292528 235.787365 121.278721 C 234.007273 122.924207 232.718904 124.698804 231.106383 126.868977 C 230.985513 127.033801 231.01573 127.264553 231.177807 127.390918 L 248.975975 141.431115 Z M 239.05636 178.631731 Q 238.929995 178.458667 238.119614 177.892774 C 235.820329 176.283 234.696784 173.47551 235.13906 170.786143 C 235.457718 168.841228 237.037275 167.01169 238.696496 165.940338 C 243.56153 162.803202 250.588496 163.185042 252.97294 169.288998 C 253.030628 169.440086 253.225669 169.486786 253.349286 169.379651 Q 253.618497 169.146151 255.016748 167.912723 C 258.478037 164.857999 263.757877 164.668452 267.845494 166.657319 C 270.33982 167.868771 272.586911 170.283432 274.435679 172.43987 Q 277.369534 175.859953 282.432356 182.040826 C 284.454188 184.510429 286.574914 186.779496 288.786293 188.933187 C 291.634989 191.704965 295.049578 194.218521 298.71415 195.756871 C 303.823671 197.899574 308.3673 194.737714 310.526485 190.136397 C 313.688345 183.403366 312.106042 175.892918 307.469013 170.239479 C 303.744007 165.704091 298.332309 162.396637 292.791499 160.602811 C 291.236666 160.097353 289.245052 159.589147 287.239701 159.146872 Q 285.588722 158.78426 284.690435 158.421649 C 282.476308 157.526109 280.613805 155.578447 280.374811 153.139063 Q 280.284159 152.221546 280.806099 150.260149 C 282.143915 145.244027 282.135674 140.497116 279.322689 136.096334 Q 278.001356 134.030549 276.438282 132.780639 C 272.748987 129.835797 268.043282 128.882569 263.430977 129.648997 Q 259.576859 130.291808 256.901228 132.626804 C 253.121281 135.926017 251.805441 141.241568 252.821852 146.059902 Q 253.37401 148.675099 253.54158 149.664038 C 254.137691 153.136316 251.772477 155.811947 248.624352 156.990433 Q 247.327742 157.476662 245.481721 158.092002 Q 240.836451 159.641341 236.79004 162.360926 Q 234.325931 164.0174 232.501887 166.37712 Q 230.098214 169.486786 231.021224 172.928846 C 231.867317 176.087959 234.584155 177.716962 237.515262 178.593273 Q 238.125108 178.777325 238.951972 178.829519 C 239.05636 178.835013 239.119542 178.71689 239.05636 178.631731 Z M 192.491033 134.033296 L 192.491033 133.890449 C 192.496528 133.200939 191.947117 132.632298 191.254859 132.62131 Q 186.755183 132.536151 182.082443 132.549887 Q 180.145769 132.558128 179.132106 132.662516 C 178.450836 132.731192 177.931643 133.299833 177.926149 133.983849 L 177.926149 134.093732 C 177.917908 134.871148 178.623901 135.461765 179.387582 135.318918 Q 181.876414 134.854666 185.161891 134.909607 Q 190.032419 134.994765 191.372982 135.077177 C 191.974587 135.112889 192.485539 134.634901 192.491033 134.033296 Z M 185.64812 147.9279 C 185.672843 148.133929 185.843161 148.296005 186.054684 148.315234 Q 188.353969 148.507528 191.144977 148.44984 C 191.724605 148.438852 192.224569 148.035035 192.359175 147.471889 L 192.37291 147.419694 C 192.493781 146.908742 192.125675 146.411525 191.600988 146.384055 Q 188.10124 146.191761 184.747086 146.392296 C 182.755471 146.513166 181.384691 146.400537 179.261217 146.235714 Q 177.96186 146.134073 177.942631 147.353765 C 177.939884 147.458153 177.978343 147.559794 178.047019 147.642206 Q 178.585442 148.268534 179.329894 148.397646 Q 180.203457 148.551481 181.500067 148.491046 C 181.623685 148.485552 181.725326 148.400393 181.755543 148.28227 C 181.939596 147.559794 182.456042 147.260365 183.249941 147.257618 C 184.107022 147.254871 185.538238 147.068071 185.64812 147.9279 Z M 192.256133 157.071939 C 192.260281 156.567387 191.853717 156.155329 191.347764 156.150824 L 183.205686 156.09396 C 182.70053 156.0894 182.288472 156.495964 182.284544 157.002328 L 182.281632 157.419881 C 182.277484 157.924432 182.684048 158.33649 183.19 158.340996 L 191.332078 158.39786 C 191.837234 158.40242 192.249293 157.995856 192.253221 157.489491 L 192.256133 157.071939 Z M 250.067242 170.60481 C 249.508903 168.039088 246.399237 166.541943 243.120518 167.255381 C 239.842018 167.970412 237.63888 170.626814 238.198592 173.19259 C 238.756931 175.758312 241.866597 177.255457 245.145317 176.542019 C 248.423817 175.826988 250.626955 173.170586 250.067242 170.60481 Z M 192.45686 170.935665 C 192.460816 170.396061 192.026781 169.953785 191.485749 169.950928 L 178.937504 169.863325 C 178.398642 169.860385 177.956366 170.29442 177.952768 170.834409 L 177.949334 171.323384 C 177.945378 171.862988 178.379413 172.305264 178.920445 172.308121 L 191.46869 172.395725 C 192.007552 172.398664 192.449828 171.964629 192.453426 171.424641 L 192.45686 170.935665 Z M 209.822202 195.353054 Q 218.744636 195.523372 232.273881 195.526119 Q 282.718049 195.537107 287.627036 195.556336 Q 289.000564 195.56183 290.527926 195.339319 C 290.838343 195.292619 290.989431 194.932755 290.799885 194.680026 Q 290.53342 194.325656 289.970274 194.254232 Q 289.231316 194.160832 288.181941 194.160832 Q 271.430401 194.180062 252.659775 194.158085 C 250.539049 194.155338 247.951323 193.960297 245.572374 194.078421 Q 243.556036 194.180062 240.262317 194.166326 Q 224.873316 194.105891 209.484315 194.251485 Q 200.537157 194.306426 191.587252 194.26522 C 190.175266 194.259726 189.653326 194.133362 188.730315 193.171893 Q 188.367704 192.798293 188.52978 192.342282 Q 188.892392 192.361511 189.287968 192.405464 Q 189.598385 192.441176 189.697279 192.246135 Q 189.878584 192.364259 190.10659 192.369753 Q 191.345512 192.397223 192.592674 192.369753 Q 192.306981 192.498864 191.930634 192.449417 Q 191.947117 192.452164 191.960852 192.452164 Q 195.468841 192.592264 199.669088 192.556552 Q 208.792057 192.479635 210.297443 192.454911 C 211.198477 192.438429 212.069293 192.548311 212.865939 192.518094 C 215.676176 192.410958 218.642995 192.529082 221.346097 192.534576 Q 253.623992 192.622482 287.481442 192.562046 C 287.635277 192.562046 287.742413 192.408211 287.687471 192.262617 L 287.662748 192.202182 C 287.594072 192.020877 287.423754 191.902753 287.228713 191.900006 C 265.419845 191.781883 239.482153 191.770895 218.32159 191.979671 Q 217.252986 191.949453 216.187128 192.009888 C 214.78613 192.0923 212.96758 191.976924 212.011605 191.974177 C 204.926951 191.957694 198.710366 192.059335 191.411441 191.930224 Q 191.144977 191.92473 190.120325 192.117024 Q 189.197315 191.795618 188.353969 192.0923 Q 188.139699 191.790124 188.186399 191.295654 C 188.19464 191.19676 188.224857 191.10336 188.271557 191.015455 Q 188.505057 190.589661 188.581974 190.155626 C 188.774268 189.067793 190.131313 188.647493 191.070806 188.639252 C 200.603086 188.581564 209.344215 188.683205 218.121055 188.48267 Q 220.807675 188.419488 224.568393 188.488164 C 229.631215 188.581564 235.339595 188.515635 240.836451 188.540358 C 242.289643 188.545852 244.451576 188.3618 246.27562 188.438717 L 245.998167 188.48267 C 245.937732 188.490911 245.932238 188.57607 245.989926 188.595299 Q 246.745366 188.842534 247.35796 188.663976 C 247.437624 188.641999 247.434877 188.52937 247.355212 188.510141 Q 247.011831 188.427729 246.640978 188.468935 L 263.293625 188.430476 Q 261.977785 188.666723 264.002365 188.699687 Q 267.230154 188.749134 270.452449 188.559588 L 283.487225 188.620023 C 283.726218 188.620023 283.874559 188.364547 283.756436 188.158518 L 283.665783 188.004682 C 283.503707 187.721736 283.201531 187.548671 282.874631 187.551418 L 272.095188 187.647565 Q 269.114634 187.595371 266.131332 187.578889 Q 234.971489 187.430548 228.221976 187.554166 Q 227.513235 187.567901 226.43639 187.532189 Q 223.980523 187.449777 217.942496 187.510213 C 217.318915 187.515707 216.568969 187.639324 215.871217 187.644818 Q 204.251175 187.611854 192.628386 187.510213 Q 191.708123 187.501971 191.024106 187.576142 C 188.625927 187.839859 187.095818 189.37821 187.282617 191.864295 C 187.387006 193.257051 188.310016 194.463008 189.535202 195.081096 Q 190.24669 195.44096 191.974587 195.438213 Q 200.908009 195.413489 209.822202 195.353054 Z M 239.567312 190.724267 L 266.735684 190.699543 L 266.966437 190.650096 Q 266.988413 190.636361 267.007643 190.625373 L 277.009669 190.630867 Q 279.558936 190.839643 282.135674 190.663832 L 285.36621 190.705037 Q 285.448622 190.867114 285.709592 190.812173 C 285.899139 190.773714 285.93485 190.520985 285.76728 190.427585 Q 285.465104 190.262762 285.072275 190.342426 L 283.638313 190.380885 Q 281.135746 190.284738 278.64142 190.328691 C 277.048128 190.356161 275.608671 190.194085 274.204926 190.309461 Q 273.106104 190.400114 272.34517 190.34792 C 271.174925 190.271003 270.051379 190.39462 268.919593 190.364403 C 263.966653 190.229797 256.013929 190.30122 243.929635 190.32045 Q 242.45172 190.323197 239.581047 190.257267 Q 236.963104 190.196832 235.224218 190.213315 Q 232.131035 190.243532 229.037851 190.345173 Q 226.755048 190.438573 224.474993 190.350667 Q 223.203106 190.30122 222.488872 190.331438 Q 221.497185 190.372644 220.505499 190.331438 Q 218.684201 190.25452 217.530438 190.268256 Q 203.207294 190.424838 190.381295 190.298473 Q 189.579155 190.290232 189.334667 190.531973 C 189.287968 190.575926 189.315438 190.65559 189.37862 190.663832 Q 190.620289 190.803931 191.686146 190.801184 Q 213.401615 190.76822 233.625432 190.688555 C 234.477019 190.685808 235.732423 190.784702 236.735098 190.724267 Q 238.306414 190.625373 239.567312 190.724267 Z" style="fill:#034880;"/>
		<path d="M 287.195749 51.616157 Q 287.096855 51.701316 286.937525 51.701316 Q 241.270486 51.742522 195.6007 51.684834 Q 195.315006 51.682087 195.4606 51.525505 Q 198.306549 51.541987 201.163486 51.53924 Q 244.050506 51.495287 286.940273 51.517263 Q 287.113337 51.517263 287.195749 51.616157 Z" style="fill:#65bce8;"/>
		<path d="M 288.832993 199.163219 L 204.437975 199.234643 L 288.832993 199.163219 Z" style="fill:#65bce8;"/>
		<path d="M 217.038715 120.190887 Q 217.184309 120.108475 217.269468 119.938158 Q 217.354627 119.957387 217.362868 119.968376 Q 217.486485 120.078258 217.395833 120.215611 Q 217.274962 120.399663 217.038715 120.190887 Z" style="fill:#65bce8;"/>
		<path d="M 273.012705 120.339228 Q 258.648355 120.363951 244.292246 120.330987 Q 244.121929 120.330987 243.998311 120.295275 Q 243.742835 120.221105 244.012047 120.174405 Q 258.288491 120.18814 272.779205 120.179899 Q 273.015452 120.179899 273.012705 120.339228 Z" style="fill:#65bce8;"/>
		<path d="M 249.775368 121.723744 Q 248.184823 121.715502 246.484396 121.778685 Q 246.330561 121.784179 246.256391 121.918785 Q 246.149255 122.105584 246.418467 122.284143 L 245.695991 121.764949 C 245.599844 121.696273 245.64105 121.545185 245.759174 121.534197 Q 245.984432 121.514967 246.272873 121.619356 C 246.308585 121.633091 246.347043 121.638585 246.382755 121.641332 L 249.775368 121.723744 Z" style="fill:#65bce8;"/>
		<path d="M 239.05636 178.631731 C 239.119542 178.71689 239.05636 178.835013 238.951972 178.829519 Q 238.125108 178.777325 237.515262 178.593273 C 234.584155 177.716962 231.867317 176.087959 231.021224 172.928846 Q 230.098214 169.486786 232.501887 166.37712 Q 234.325931 164.0174 236.79004 162.360926 Q 240.836451 159.641341 245.481721 158.092002 Q 247.327742 157.476662 248.624352 156.990433 C 251.772477 155.811947 254.137691 153.136316 253.54158 149.664038 Q 253.37401 148.675099 252.821852 146.059902 C 251.805441 141.241568 253.121281 135.926017 256.901228 132.626804 Q 259.576859 130.291808 263.430977 129.648997 C 268.043282 128.882569 272.748987 129.835797 276.438282 132.780639 Q 278.001356 134.030549 279.322689 136.096334 C 282.135674 140.497116 282.143915 145.244027 280.806099 150.260149 Q 280.284159 152.221546 280.374811 153.139063 C 280.613805 155.578447 282.476308 157.526109 284.690435 158.421649 Q 285.588722 158.78426 287.239701 159.146872 C 289.245052 159.589147 291.236666 160.097353 292.791499 160.602811 C 298.332309 162.396637 303.744007 165.704091 307.469013 170.239479 C 312.106042 175.892918 313.688345 183.403366 310.526485 190.136397 C 308.3673 194.737714 303.823671 197.899574 298.71415 195.756871 C 295.049578 194.218521 291.634989 191.704965 288.786293 188.933187 C 286.574914 186.779496 284.454188 184.510429 282.432356 182.040826 Q 277.369534 175.859953 274.435679 172.43987 C 272.586911 170.283432 270.33982 167.868771 267.845494 166.657319 C 263.757877 164.668452 258.478037 164.857999 255.016748 167.912723 Q 253.618497 169.146151 253.349286 169.379651 C 253.225669 169.486786 253.030628 169.440086 252.97294 169.288998 C 250.588496 163.185042 243.56153 162.803202 238.696496 165.940338 C 237.037275 167.01169 235.457718 168.841228 235.13906 170.786143 C 234.696784 173.47551 235.820329 176.283 238.119614 177.892774 Q 238.929995 178.458667 239.05636 178.631731 Z M 258.227836 139.493452 C 255.879324 144.601216 258.18685 150.677702 263.383728 153.067694 C 268.578958 155.457577 274.696649 153.254439 277.045601 148.148653 C 279.394113 143.040889 277.086587 136.964404 271.889709 134.574411 C 266.694478 132.184528 260.576787 134.387666 258.227836 139.493452 Z M 299.395419 186.746531 C 302.123245 187.966224 305.092811 187.122878 306.485568 184.463729 Q 307.372866 182.771543 307.186067 180.398088 C 306.864661 176.283 304.345612 172.687105 301.257922 169.98675 C 297.626316 166.808407 293.393104 164.63274 288.712123 164.572305 C 286.929284 164.547581 284.904705 165.536521 284.182229 167.275407 C 282.630143 171.008654 286.099674 175.01386 288.398959 177.579609 Q 292.233847 181.859521 296.326959 184.949958 Q 297.700486 185.988344 299.395419 186.746531 Z" style="fill:#65bce8;"/>
		<path d="M 272.095188 187.647565 Q 261.343216 187.837112 250.588496 187.713495 Q 248.412829 187.688771 246.445937 187.749206 C 244.610905 187.804147 243.031348 187.650312 240.918863 187.653059 Q 234.710519 187.655807 230.144914 187.622842 Q 227.892329 187.603612 225.82105 187.713495 C 225.667215 187.721736 225.505138 187.644818 225.337568 187.647565 Q 220.604393 187.710748 215.871217 187.644818 C 216.568969 187.639324 217.318915 187.515707 217.942496 187.510213 Q 223.980523 187.449777 226.43639 187.532189 Q 227.513235 187.567901 228.221976 187.554166 Q 234.971489 187.430548 266.131332 187.578889 Q 269.114634 187.595371 272.095188 187.647565 Z" style="fill:#65bce8;"/>
		<path d="M 246.640978 188.468935 Q 247.011831 188.427729 247.355212 188.510141 C 247.434877 188.52937 247.437624 188.641999 247.35796 188.663976 Q 246.745366 188.842534 245.989926 188.595299 C 245.932238 188.57607 245.937732 188.490911 245.998167 188.48267 L 246.27562 188.438717 Q 246.511867 188.367294 246.640978 188.468935 Z" style="fill:#65bce8;"/>
		<path d="M 264.777034 188.43597 L 267.095548 188.468935 L 267.219166 188.466188 L 267.631224 188.460694 L 270.452449 188.559588 Q 267.230154 188.749134 264.002365 188.699687 Q 261.977785 188.666723 263.293625 188.430476 L 264.777034 188.43597 Z" style="fill:#65bce8;"/>
		<path d="M 267.095548 188.468935 L 264.777034 188.43597 L 267.095548 188.468935 Z" style="fill:#034880;"/>
		<path d="M 267.631224 188.460694 L 267.219166 188.466188 L 267.631224 188.460694 Z" style="fill:#034880;"/>
		<path fill-opacity="0.969" d="M 283.638313 190.380885 Q 282.803208 190.375391 282.135674 190.663832 Q 279.558936 190.839643 277.009669 190.630867 L 267.007643 190.625373 Q 266.988413 190.636361 266.966437 190.650096 Q 266.82359 190.633614 266.735684 190.699543 L 239.567312 190.724267 L 240.756787 190.677567 C 240.784257 190.67482 240.803487 190.65559 240.806234 190.630867 L 240.806234 190.62812 C 240.806234 190.603396 240.784257 190.58142 240.759534 190.58142 L 229.037851 190.345173 Q 232.131035 190.243532 235.224218 190.213315 Q 236.963104 190.196832 239.581047 190.257267 Q 242.45172 190.323197 243.929635 190.32045 C 256.013929 190.30122 263.966653 190.229797 268.919593 190.364403 C 270.051379 190.39462 271.174925 190.271003 272.34517 190.34792 Q 273.106104 190.400114 274.204926 190.309461 C 275.608671 190.194085 277.048128 190.356161 278.64142 190.328691 Q 281.135746 190.284738 283.638313 190.380885 Z" style="fill:#fafcfb;"/>
		<path fill-opacity="0.969" d="M 285.36621 190.705037 Q 285.495322 190.696796 285.498069 190.562191 C 285.498069 190.523732 285.473345 190.485273 285.434886 190.471538 L 285.072275 190.342426 Q 285.465104 190.262762 285.76728 190.427585 C 285.93485 190.520985 285.899139 190.773714 285.709592 190.812173 Q 285.448622 190.867114 285.36621 190.705037 Z" style="fill:#fafcfb;"/>
		<path fill-opacity="0.969" d="M 192.592674 192.369753 L 210.146355 192.295582 Q 210.330407 192.468647 210.51446 192.284594 L 210.679283 192.309317 Q 211.745141 192.487876 212.791769 192.30657 Q 213.728514 192.062082 214.670754 192.125265 Q 215.011389 192.21317 215.255877 192.073071 L 218.32159 191.979671 C 239.482153 191.770895 265.419845 191.781883 287.228713 191.900006 C 287.423754 191.902753 287.594072 192.020877 287.662748 192.202182 L 287.687471 192.262617 C 287.742413 192.408211 287.635277 192.562046 287.481442 192.562046 Q 253.623992 192.622482 221.346097 192.534576 C 218.642995 192.529082 215.676176 192.410958 212.865939 192.518094 C 212.069293 192.548311 211.198477 192.438429 210.297443 192.454911 Q 208.792057 192.479635 199.669088 192.556552 Q 195.468841 192.592264 191.960852 192.452164 Q 191.947117 192.452164 191.930634 192.449417 Q 192.306981 192.498864 192.592674 192.369753 Z" style="fill:#fafcfb;"/>
		<path fill-opacity="0.969" d="M 190.120325 192.117024 Q 189.895067 192.229653 189.697279 192.246135 Q 189.598385 192.441176 189.287968 192.405464 Q 188.892392 192.361511 188.52978 192.342282 Q 188.447369 192.339535 188.353969 192.0923 Q 189.197315 191.795618 190.120325 192.117024 Z" style="fill:#fafcfb;"/>
		<path d="M 215.255877 192.073071 Q 215.011389 192.21317 214.670754 192.125265 Q 214.816348 192.007141 215.255877 192.073071 Z" style="fill:#65bce8;"/>
		<path d="M 210.51446 192.284594 Q 210.330407 192.468647 210.146355 192.295582 Q 210.333155 192.229653 210.51446 192.284594 Z" style="fill:#65bce8;"/>
		<path d="M 212.791769 192.30657 Q 211.745141 192.487876 210.679283 192.309317 L 212.791769 192.30657 Z" style="fill:#65bce8;"/>
		<path fill-opacity="0.969" d="M 209.822202 195.353054 L 213.258768 195.215701 Q 213.352168 195.190978 213.467544 195.199219 L 213.662585 195.218448 L 214.069149 195.20746 L 238.965707 194.894296 L 241.740232 194.927261 C 241.745727 194.927261 241.751221 194.921767 241.748474 194.916272 Q 241.748474 194.913525 241.745727 194.908031 C 241.742979 194.897043 241.734738 194.888802 241.72375 194.888802 L 239.221183 194.855837 L 228.342846 194.770679 L 226.312772 194.699255 Q 226.230361 194.707496 226.153443 194.674532 Q 225.859508 194.542673 225.483162 194.644314 L 224.848592 194.633326 L 223.837676 194.616843 L 209.484315 194.251485 Q 224.873316 194.105891 240.262317 194.166326 Q 243.556036 194.180062 245.572374 194.078421 C 247.951323 193.960297 250.539049 194.155338 252.659775 194.158085 Q 271.430401 194.180062 288.181941 194.160832 Q 289.231316 194.160832 289.970274 194.254232 Q 290.53342 194.325656 290.799885 194.680026 C 290.989431 194.932755 290.838343 195.292619 290.527926 195.339319 Q 289.000564 195.56183 287.627036 195.556336 Q 282.718049 195.537107 232.273881 195.526119 Q 218.744636 195.523372 209.822202 195.353054 Z M 286.149121 194.930008 L 289.887862 195.064613 C 289.91808 195.064613 289.948298 195.061866 289.978515 195.059119 L 290.489467 194.984949 C 290.591108 194.968466 290.629567 194.844849 290.55265 194.776173 Q 289.816439 194.119627 289.052758 194.68552 C 288.99507 194.729473 288.923646 194.754196 288.849476 194.756943 L 286.14088 194.847596 C 286.12165 194.850343 286.105168 194.866825 286.105168 194.886055 C 286.107915 194.910778 286.124397 194.927261 286.149121 194.930008 Z" style="fill:#fafcfb;"/>
		<path d="M 224.848592 194.633326 L 223.837676 194.616843 L 224.848592 194.633326 Z" style="fill:#65bce8;"/>
		<path d="M 226.153443 194.674532 L 225.483162 194.644314 Q 225.859508 194.542673 226.153443 194.674532 Z" style="fill:#65bce8;"/>
		<path d="M 228.342846 194.770679 L 226.312772 194.699255 L 228.342846 194.770679 Z" style="fill:#65bce8;"/>
		<path d="M 238.965707 194.894296 Q 239.075589 194.850343 239.221183 194.855837 L 241.72375 194.888802 C 241.734738 194.888802 241.742979 194.897043 241.745727 194.908031 Q 241.748474 194.913525 241.748474 194.916272 C 241.751221 194.921767 241.745727 194.927261 241.740232 194.927261 L 238.965707 194.894296 Z" style="fill:#65bce8;"/>
		<path d="M 213.467544 195.199219 Q 213.352168 195.190978 213.258768 195.215701 Q 213.349421 195.182737 213.467544 195.199219 Z" style="fill:#034880;"/>
		<path d="M 214.069149 195.20746 L 213.662585 195.218448 Q 213.86312 195.169001 214.069149 195.20746 Z" style="fill:#65bce8;"/>
		<path d="M 273.564863 78.974076 C 273.564863 79.430088 273.19401 79.80094 272.737999 79.80094 L 209.14368 79.80094 C 208.687669 79.80094 208.316816 79.430088 208.316816 78.974076 L 208.316816 78.963088 C 208.316816 78.507077 208.687669 78.136225 209.14368 78.136225 L 272.737999 78.136225 C 273.19401 78.136225 273.564863 78.507077 273.564863 78.963088 L 273.564863 78.974076 Z" style="fill:#034880;"/>
		<path d="M 273.526404 93.40985 C 273.526404 93.794437 273.215987 94.104854 272.831399 94.104854 L 208.923915 94.104854 C 208.539328 94.104854 208.228911 93.794437 208.228911 93.40985 L 208.228911 93.398861 C 208.228911 93.014274 208.539328 92.703856 208.923915 92.703856 L 272.831399 92.703856 C 273.215987 92.703856 273.526404 93.014274 273.526404 93.398861 L 273.526404 93.40985 Z" style="fill:#034880;"/>
		<path d="M 258.227836 139.493452 C 260.576787 134.387666 266.694478 132.184528 271.889709 134.574411 C 277.086587 136.964404 279.394113 143.040889 277.045601 148.148653 C 274.696649 153.254439 268.578958 155.457577 263.383728 153.067694 C 258.18685 150.677702 255.879324 144.601216 258.227836 139.493452 Z M 261.656133 139.93408 C 259.538401 143.194724 260.513605 147.584518 263.833778 149.740049 C 267.153237 151.894647 271.559513 151.001854 273.677739 147.74099 C 275.795471 144.480346 274.820267 140.090552 271.500094 137.935021 C 268.180635 135.780423 263.774359 136.673216 261.656133 139.93408 Z" style="fill:#034880;"/>
		<path d="M 306.485568 184.463729 C 305.092811 187.122878 302.123245 187.966224 299.395419 186.746531 Q 297.700486 185.988344 296.326959 184.949958 Q 292.233847 181.859521 288.398959 177.579609 C 286.099674 175.01386 282.630143 171.008654 284.182229 167.275407 C 284.904705 165.536521 286.929284 164.547581 288.712123 164.572305 C 293.393104 164.63274 297.626316 166.808407 301.257922 169.98675 C 304.345612 172.687105 306.864661 176.283 307.186067 180.398088 Q 307.372866 182.771543 306.485568 184.463729 Z M 292.483829 176.780216 L 292.483829 168.786287 C 292.483829 168.695634 292.453612 168.607728 292.39867 168.533558 Q 292.123965 168.165453 291.640483 168.077547 Q 290.690002 167.904482 289.75051 167.731418 C 288.473129 167.495171 287.214978 167.863277 287.000708 169.32471 C 286.929284 169.810938 287.256184 170.670767 287.368813 171.00316 C 287.399031 171.091066 287.440236 171.176225 287.486936 171.255889 Q 288.923646 173.634839 290.909767 175.673153 Q 290.926249 175.692383 291.827283 176.755493 Q 292.167918 177.15931 292.431635 176.901087 C 292.4646 176.870869 292.483829 176.826916 292.483829 176.780216 Z M 295.788536 170.250467 L 295.788536 180.205794 C 295.788536 180.356882 295.854465 180.502476 295.969842 180.604117 Q 297.640051 182.076538 299.326743 183.263266 Q 300.285465 183.939041 301.38154 184.142323 C 303.018784 184.444499 304.018712 182.895161 304.081895 181.466692 Q 304.156065 179.719565 303.551713 178.266373 C 303.318213 177.703227 303.136908 177.178539 302.801767 176.631876 Q 300.329418 172.599199 296.236306 170.005979 C 296.041265 169.882362 295.788536 170.019715 295.788536 170.250467 Z" style="fill:#034880;"/>
		<path d="M 286.149121 194.930008 C 286.124397 194.927261 286.107915 194.910778 286.105168 194.886055 C 286.105168 194.866825 286.12165 194.850343 286.14088 194.847596 L 288.849476 194.756943 C 288.923646 194.754196 288.99507 194.729473 289.052758 194.68552 Q 289.816439 194.119627 290.55265 194.776173 C 290.629567 194.844849 290.591108 194.968466 290.489467 194.984949 L 289.978515 195.059119 C 289.948298 195.061866 289.91808 195.064613 289.887862 195.064613 L 286.149121 194.930008 Z" style="fill:#65bce8;"/>
	</g>
	<g id="surface4">
	</g>
</svg>
