<?xml version="1.0" encoding="utf-8"?>
<svg xmlns="http://www.w3.org/2000/svg" width="490pt" height="280pt" viewBox="0 0 490 280" version="1.1" xmlns:xlink="http://www.w3.org/1999/xlink">
	<g id="surface2" data-size="133.96813486943 148" data-bboxpos="178 51.911842177916" data-pivot="244.98406743472 125.91184217792" data-center="244.98406743472 125.91184217792">
		<path d="M 282.456514 69.532324 Q 282.521544 69.567795 282.598398 69.656473 Q 293.668323 82.192534 295.77885 98.949651 Q 295.956205 100.356669 295.920734 104.908788 Q 295.894131 108.18986 295.438919 110.838366 Q 294.614217 115.650605 292.882048 119.915999 Q 291.327233 123.743917 288.702375 127.545232 Q 284.448805 133.708327 278.052191 137.621967 C 277.183151 138.154032 276.482597 138.325476 275.604689 138.67723 Q 275.323876 138.792511 274.380937 138.75704 C 274.283392 138.754084 274.185847 138.721569 274.103081 138.668363 C 273.706987 138.405286 273.346365 137.805234 273.695164 137.308639 Q 274.041007 136.812044 274.230185 136.708587 C 280.136116 133.51028 285.409479 128.018179 288.519108 121.967408 Q 291.930241 115.32841 292.580544 108.104139 Q 292.805194 105.641856 292.630794 100.675909 Q 292.598279 99.756617 292.459351 99.192036 C 292.302687 98.532866 292.358849 97.93577 292.231745 97.190878 Q 290.786299 88.772415 286.783982 81.423995 Q 283.884224 76.100381 279.914422 71.675367 Q 270.085984 60.714812 256.166552 56.269106 C 255.259084 55.97647 253.801815 55.695658 253.012584 55.219754 Q 252.439135 54.876868 252.081469 54.267948 C 251.540535 53.3457 251.771097 52.02736 253.062835 51.915035 C 253.163336 51.906167 253.263837 51.915035 253.361383 51.941638 Q 258.179534 53.289538 260.547227 54.235433 Q 273.186745 59.290058 282.131363 69.088936 Q 282.311674 69.284027 282.353057 69.411131 C 282.370792 69.461382 282.406263 69.505721 282.456514 69.532324 Z" style="fill:#295760;"/>
		<path d="M 227.290159 107.823326 C 227.621222 108.331744 227.313806 109.174182 226.78174 109.496377 C 224.065249 111.136914 222.058178 113.342031 220.033372 116.061478 Q 218.53472 118.077416 217.544487 120.300269 C 217.003553 121.509241 216.326647 123.037452 215.909862 124.417867 Q 214.177693 130.158266 214.626993 136.339097 Q 214.789568 138.558994 214.958056 139.667464 Q 215.803449 145.289626 218.049949 150.38859 Q 221.437435 158.085808 226.994566 164.494245 Q 234.19519 172.794472 243.686653 178.10035 Q 246.007051 179.395043 249.24674 180.742943 Q 257.934192 184.352123 267.502509 184.505831 C 269.509579 184.538346 271.297912 184.281181 273.163098 184.295961 Q 273.834092 184.301872 275.412554 184.024016 Q 280.000143 183.220005 281.070187 182.933281 Q 289.603931 180.627662 297.567182 176.164222 Q 302.184331 173.577791 307.17097 170.175525 Q 308.926787 168.978377 310.851092 170.069112 C 310.963417 170.131187 311.063918 170.213952 311.14964 170.308542 Q 312.385215 171.697825 311.755604 173.586658 Q 311.646235 173.91181 311.347687 174.228093 C 308.82333 176.920937 306.452681 179.294542 303.668204 181.579469 Q 298.55446 185.782789 292.887959 189.146627 Q 285.527716 193.518434 277.537861 196.098953 Q 276.52398 196.427061 276.352537 196.518694 C 276.195873 196.60146 276.021474 196.648755 275.844118 196.663534 C 275.146521 196.722653 274.253833 197.121702 273.497117 197.307925 Q 268.50161 198.531677 265.726 198.924814 Q 263.914021 199.181979 261.626138 199.486439 Q 260.050632 199.699265 259.166812 199.693353 C 258.073121 199.687442 257.076975 199.864797 255.882783 199.8914 Q 249.317683 200.045108 242.578182 199.043051 Q 226.471368 196.651711 212.209049 187.908096 Q 201.210067 181.162684 193.258639 171.629839 Q 184.718983 161.393484 180.828991 149.043646 Q 178.946069 143.066773 178.360797 137.403228 Q 178.210045 135.93118 178.091808 134.131024 C 177.876026 130.882466 178.068161 127.548187 178.381488 124.615914 Q 178.768714 121.003778 179.903788 117.069447 Q 180.926536 113.510518 182.555249 109.839264 Q 183.749441 107.152332 185.877704 103.883083 C 192.141301 94.258604 202.212124 87.347661 213.181547 84.00747 Q 213.684054 83.853762 217.112922 82.993589 C 218.617486 82.615231 219.711177 82.538377 221.452214 82.266432 C 223.051368 82.015179 224.18053 82.032915 225.67327 81.858515 C 227.287203 81.669336 229.241066 81.704807 230.846132 81.820088 Q 232.078751 81.908766 234.254309 82.165931 Q 243.730992 83.292137 251.895246 88.237393 Q 259.970822 93.132398 264.629354 101.069046 Q 268.800158 108.178037 268.944999 116.549205 Q 268.959778 117.465541 268.853365 118.124711 C 268.670098 119.283432 268.696701 120.025368 268.404065 121.133839 Q 268.161679 122.05313 268.087781 122.570416 C 267.972501 123.389207 267.594143 123.94492 267.47295 124.69868 C 267.45817 124.799181 267.428611 124.89377 267.387228 124.985404 Q 266.104358 127.858559 265.513174 128.819234 Q 264.576147 130.341533 263.095231 132.079615 Q 262.373986 132.925008 261.442871 133.07576 Q 260.505844 133.223556 260.319621 132.528915 Q 260.148177 131.884524 260.49402 131.402709 Q 264.880607 125.310555 264.845136 117.743397 Q 264.839224 116.478263 264.68256 115.774754 Q 264.540676 115.142187 264.528852 114.465281 Q 264.522941 113.927303 264.318982 113.167631 Q 262.846933 107.693266 260.514712 104.261441 Q 254.313189 95.136513 243.692565 91.456391 Q 234.05035 88.1162 224.156882 89.55869 C 223.305577 89.682838 222.486787 89.75378 221.647305 89.942959 Q 221.132975 90.05824 219.68753 90.353832 Q 218.40466 90.616909 216.648843 91.178534 Q 212.005091 92.659451 207.840198 95.305 Q 199.965624 100.306419 195.327784 107.83515 Q 191.310687 114.361823 189.850462 122.195014 Q 189.480972 124.193217 189.427765 125.606147 C 189.371603 127.054549 189.138085 128.526597 189.206071 130.167134 Q 189.347955 133.616693 189.478016 134.781326 Q 190.459382 143.542676 193.864603 151.080275 Q 199.466073 163.477408 210.329083 172.696926 Q 211.538055 173.722631 212.915514 174.703997 Q 213.364814 175.023236 215.510813 176.560315 Q 219.823502 179.643341 225.933391 182.38348 Q 228.587808 183.57176 231.487567 184.47036 Q 235.439633 185.691155 237.201362 186.054734 Q 238.126565 186.246868 238.877369 186.104984 C 239.143402 186.054734 239.252771 185.735494 239.07246 185.531536 C 238.407378 184.786643 237.627015 184.319608 236.849607 183.725468 Q 232.732009 180.583324 230.53576 178.688578 Q 225.708741 174.523685 221.298507 169.007937 Q 212.377537 157.849335 209.557588 144.077698 Q 209.329982 142.969228 209.267908 142.239115 C 209.19401 141.399634 208.998919 140.764111 208.972316 139.779789 Q 208.922065 138.00328 208.830431 136.259287 C 208.765401 135.029624 208.95458 133.371352 208.984139 132.132821 C 209.010743 131.068689 209.365453 129.791732 209.533941 128.653702 C 209.678781 127.666424 210.071918 126.333304 210.376378 125.319423 Q 212.105592 119.573112 215.939422 114.86433 Q 219.947651 109.939766 225.75308 107.539558 C 226.131437 107.382894 226.994566 107.359246 227.290159 107.823326 Z" style="fill:#295760;"/>
	</g>
	<g id="surface4">
	</g>
</svg>
