<?xml version="1.0" encoding="utf-8"?>
<svg xmlns="http://www.w3.org/2000/svg" width="490pt" height="280pt" viewBox="0 0 490 280" version="1.1" xmlns:xlink="http://www.w3.org/1999/xlink">
	<g id="surface2" data-size="195.26114089577 148" data-bboxpos="147.5 52.218420652899" data-pivot="245.13057044789 126.2184206529" data-center="245.13057044789 126.2184206529">
		<path d="M 274.322944 183.355239 C 274.372692 183.426751 274.462859 183.457843 274.546807 183.432969 C 276.773002 182.773817 278.933903 181.682484 281.178753 180.513421 Q 291.827798 174.960371 299.255702 166.487773 Q 308.322159 156.140321 312.68749 143.000798 Q 313.83168 139.555793 314.475286 136.132553 C 314.534361 135.824741 314.385119 135.51382 314.10529 135.364578 Q 311.854222 134.176859 309.938949 132.488558 Q 304.019012 127.271303 303.428262 119.261977 Q 303.210617 116.329992 303.972374 113.677836 Q 306.565455 104.654907 315.420486 101.268977 Q 317.348197 100.532094 319.891531 100.087477 Q 322.789315 99.580676 325.789703 100.065713 Q 334.013564 101.405783 339.03183 107.900923 Q 342.89036 112.894315 342.756664 119.666175 Q 342.744227 120.253816 342.542128 121.932789 C 341.886085 127.398781 338.279401 132.12789 333.587602 134.839121 Q 329.9747 136.922292 325.988692 137.335817 Q 323.666112 137.578335 322.385117 137.684049 C 322.226548 137.696485 322.089742 137.802199 322.039995 137.95455 Q 320.050101 144.092131 317.593824 149.872153 Q 315.830902 154.029167 312.637743 159.678602 Q 309.06837 165.996518 303.446917 172.255358 C 295.689438 180.892745 285.674671 187.13293 274.761343 190.975914 Q 273.048168 191.575991 269.348208 192.704635 Q 268.455864 192.975136 266.904368 193.345132 Q 264.572461 193.901681 264.448092 193.9421 C 263.163988 194.37739 261.8177 194.427137 260.430993 194.868645 C 260.415446 194.871754 260.40301 194.874863 260.390573 194.877973 L 256.286415 195.565108 C 256.273978 195.568217 256.261541 195.568217 256.249105 195.568217 Q 254.632315 195.63662 252.863175 195.916449 Q 250.860843 196.236698 249.76951 196.22737 C 247.422057 196.202496 244.598894 196.556946 242.322952 196.339301 Q 241.495902 196.258462 239.434495 196.218042 Q 238.563916 196.199387 236.561585 195.897794 Q 224.535159 194.078906 214.542157 186.909067 C 210.450437 183.977081 206.548378 180.485438 202.807998 177.034215 C 202.382036 176.639345 201.834815 176.406154 201.153898 176.347079 C 198.060233 176.076578 195.743872 175.812295 193.439947 176.141871 C 192.084331 176.337751 190.809555 176.275567 189.481922 176.58027 Q 189.251841 176.633126 187.666143 176.962703 C 182.517291 178.03538 177.427514 180.777704 174.072676 184.909844 Q 171.743877 187.779645 171.112707 191.588428 Q 170.717838 193.979411 171.436065 196.759045 Q 171.750096 197.977855 170.78935 198.972803 C 170.714729 199.050533 170.624561 199.115826 170.525067 199.165574 Q 168.920714 199.939767 167.456276 200.176067 C 165.578313 200.48077 165.006218 199.097171 164.689079 197.617187 C 164.09522 194.856208 163.784299 192.29111 164.403032 189.45551 Q 165.096385 186.262351 166.570151 183.684815 Q 169.284492 178.937051 174.122423 175.774984 Q 178.755146 172.746613 184.616008 171.160916 Q 185.918767 170.809575 186.804892 170.675879 C 187.961518 170.504873 188.769913 170.175297 189.746205 170.116222 C 191.213752 170.026054 193.548769 169.503707 195.268162 169.481943 Q 196.940918 169.463287 201.129024 169.497489 C 202.074224 169.506816 203.187321 169.693369 204.455879 169.827065 Q 211.967731 170.613695 219.209082 172.628463 Q 220.549152 172.99846 223.359878 173.856602 Q 225.225404 174.422478 227.476472 175.187344 Q 234.397574 177.528579 239.055172 178.635458 Q 240.2802 178.927724 245.537875 179.851159 C 246.927692 180.096787 248.305072 180.165189 250.083541 180.32065 Q 254.567022 180.709301 258.061774 180.644008 Q 259.703437 180.612916 266.338492 180.025275 C 266.46597 180.015947 266.587229 179.972418 266.692942 179.900906 Q 267.945954 179.073857 269.326443 177.777316 Q 276.284856 171.247974 277.01863 162.054039 Q 277.233165 159.355245 276.81964 156.609812 Q 276.393678 153.771103 275.563519 151.30239 C 274.170593 147.164031 271.462471 142.310554 269.873664 138.828238 Q 267.246382 133.07309 266.689833 127.115843 C 266.571683 125.847285 266.372693 124.609819 266.357147 123.490503 Q 266.3074 120.188522 266.462861 117.387124 C 266.478407 117.110404 266.34782 116.843012 266.117738 116.684442 Q 265.825472 116.485453 265.315562 116.255371 C 257.691778 112.788602 254.828196 105.096415 253.98249 97.289188 Q 253.948289 96.984485 253.736863 92.908311 C 253.525436 88.779279 253.907869 84.28958 253.910978 80.866339 Q 253.910978 79.411229 254.113077 77.775784 C 254.25921 76.588066 254.175261 75.108082 254.330722 73.646753 C 254.523493 71.843411 254.430217 70.248386 254.73181 68.805712 C 254.918363 67.916478 254.793994 66.638593 254.921472 65.621881 Q 255.238611 63.097202 255.459365 61.987214 C 256.183811 58.38053 257.974716 55.305521 261.242496 53.579909 C 261.886103 53.241005 262.476853 53.101091 263.2355 52.771515 C 263.359869 52.718658 263.487346 52.678238 263.621042 52.650255 Q 266.630758 52.028413 269.979377 52.302024 Q 271.163987 52.3953 271.963054 52.777733 C 274.294961 53.884612 275.20596 56.269376 274.123955 58.644813 Q 273.309342 60.423281 271.247935 61.206802 C 271.136004 61.250331 271.014744 61.275205 270.896594 61.278314 Q 268.378134 61.349826 267.911753 61.234785 C 266.515717 60.889663 264.724812 60.556977 263.422053 61.349826 Q 261.70266 62.400739 261.118128 64.427944 C 261.096364 64.505674 261.083927 64.586514 261.080817 64.664244 Q 260.91292 68.42017 260.592671 74.424055 C 260.384354 78.375862 260.51805 81.332721 260.275532 85.303182 Q 259.942846 90.728754 260.070324 96.906755 Q 260.08587 97.569017 260.263095 98.877995 Q 260.328389 99.347485 260.52116 100.843015 Q 260.75746 102.665013 261.615602 104.860115 C 263.586841 109.897036 268.35637 113.024902 273.778832 111.880712 Q 275.448478 111.529371 276.667289 110.98526 C 280.709262 109.181918 283.482678 104.614488 285.20829 100.768394 Q 286.887263 97.021796 288.093637 93.626538 Q 291.028731 85.365366 293.450806 76.507226 Q 294.675835 72.033073 295.198182 68.930081 Q 295.428264 67.552701 295.073814 66.212631 Q 294.383569 63.597785 291.843344 62.528217 Q 290.472183 61.949904 288.989089 61.878392 C 288.842956 61.869064 288.699933 61.837972 288.563128 61.782006 Q 287.316334 61.262768 287.229276 61.203693 C 285.239382 59.869842 284.947116 57.693395 286.097524 55.681735 C 287.204403 53.741588 290.067985 53.290753 292.079644 53.738479 Q 294.396006 54.254608 296.124727 55.028801 C 297.642022 55.706609 299.42049 56.785505 300.449639 58.138012 C 302.57012 60.930083 302.072646 63.753245 301.537862 67.014807 Q 301.335764 68.242945 300.928457 70.077379 Q 298.310502 81.830194 293.736854 94.360312 Q 291.11268 101.555025 287.670784 107.275972 C 284.816529 112.014408 280.528928 115.658403 275.153103 117.138387 Q 274.322944 117.365359 274.040006 117.670062 Q 273.582952 118.164426 273.536314 118.804924 Q 273.340434 121.45708 273.399509 123.991086 Q 273.458584 126.581059 274.02446 129.127502 Q 274.798653 132.609817 275.961498 135.215336 C 276.717036 136.903637 277.17409 137.976314 277.898536 139.415879 Q 280.420106 144.406161 281.250265 146.470677 Q 282.776887 150.273241 283.293016 153.040438 Q 283.333436 153.264302 283.778053 155.754779 Q 284.048554 157.278292 284.054773 158.487775 Q 284.076537 162.203281 284.017462 162.79714 Q 283.19974 170.862432 278.784661 177.488159 C 277.540977 179.353685 275.563519 181.495931 274.350927 182.876421 Q 274.148828 183.106502 274.322944 183.355239 Z M 309.735544 112.61318 C 306.450415 119.784325 309.808362 128.356418 317.231943 131.754878 C 324.654841 135.153151 333.335756 132.093688 336.620388 124.922046 C 339.905518 117.750901 336.547571 109.178808 329.123989 105.780348 C 321.701091 102.382075 313.020176 105.441538 309.735544 112.61318 Z M 257.362202 186.728732 C 255.770286 186.514197 254.113077 186.77537 252.741915 186.700749 C 249.315566 186.517306 245.668462 186.30588 242.276313 185.721348 Q 235.171768 184.502538 229.422838 182.590373 Q 217.135239 178.50798 214.268547 177.699586 C 213.752418 177.553453 213.335784 177.494378 212.841419 177.513033 C 212.629993 177.519251 212.533607 177.783534 212.695286 177.923449 Q 220.978223 185.065305 231.14845 188.205607 C 233.554978 188.948709 236.023691 189.29694 238.74425 189.645172 Q 243.072271 190.195502 245.413507 189.884581 Q 245.457036 189.881472 249.129013 189.486602 Q 251.190419 189.265848 252.794772 188.855432 Q 255.829361 188.07813 257.452369 187.294609 C 257.719761 187.167131 257.657577 186.769152 257.362202 186.728732 Z" style="fill:#01083c;"/>
		<path d="M 200.547602 91.658408 C 200.500963 91.574459 200.379704 91.57135 200.333066 91.655299 C 200.019036 92.190083 200.12164 93.094863 199.938196 93.788217 Q 199.471815 95.554249 199.45005 97.298516 C 199.446941 97.590781 199.41274 97.883047 199.341228 98.165985 Q 198.840645 100.202518 198.825099 101.881492 C 198.82199 102.148884 198.784679 102.410057 198.706949 102.661904 Q 198.228131 104.272474 198.212585 106.21884 C 198.212585 106.470686 198.178383 106.719423 198.11309 106.961941 Q 197.631162 108.790157 197.584524 110.655683 C 197.575197 110.898202 197.544104 111.14072 197.491248 111.37702 Q 197.04974 113.310949 196.959573 115.086308 C 196.953354 115.213786 196.934699 115.341263 196.906716 115.468741 Q 196.403024 117.660734 196.34084 119.401892 C 196.334622 119.56668 196.312857 119.728359 196.272437 119.886929 Q 195.802947 121.774219 195.715889 123.773442 C 195.706561 124.01596 195.67236 124.261588 195.616394 124.500997 Q 195.143794 126.49711 195.094047 128.312889 C 195.090938 128.511878 195.062955 128.710868 195.013207 128.903639 Q 194.546826 130.790929 194.469095 132.532087 C 194.459768 132.762169 194.428676 132.995359 194.375819 133.219223 Q 193.909438 135.187353 193.850363 136.754395 C 193.847253 136.906746 193.825489 137.055988 193.791288 137.202121 Q 193.281377 139.375459 193.222302 141.22233 C 193.219193 141.402664 193.194319 141.586108 193.15079 141.763333 Q 192.681299 143.678606 192.597351 145.304723 C 192.584914 145.559678 192.547603 145.814634 192.48231 146.060261 Q 192.006601 147.925787 191.9724 149.903245 Q 191.96929 150.148873 191.546438 151.672386 C 191.288373 152.595821 190.529726 152.881869 189.621837 152.947162 Q 188.266221 153.043548 187.834041 151.818519 C 187.32413 150.366518 187.069175 148.392169 186.720943 146.909076 Q 183.935091 134.994582 180.480758 121.052883 Q 180.269332 120.19785 180.12009 119.476513 C 180.088998 119.324162 179.908663 119.249541 179.781186 119.339708 Q 179.383207 119.616427 179.286821 119.759451 Q 177.645158 122.218836 176.864747 123.164036 C 176.230468 123.935121 174.284102 123.823189 173.444615 123.813861 Q 164.340847 123.73924 148.950256 123.446975 Q 147.883797 123.428319 147.659934 122.427154 Q 147.43918 121.441534 147.523129 120.03928 Q 147.59775 118.851562 148.409254 118.456692 Q 148.888072 118.220392 150.302763 118.223501 Q 170.988339 118.257703 173.534782 118.282576 C 173.631168 118.282576 173.724444 118.254593 173.802174 118.204846 Q 174.638552 117.670062 175.024094 116.73108 Q 176.622228 112.850786 178.441116 109.980985 Q 178.773802 109.455528 179.809169 108.743519 C 179.896227 108.684444 179.992612 108.640915 180.095216 108.616041 Q 182.308974 108.096803 183.145351 110.263923 C 183.888453 112.182306 184.404582 114.321442 185.004659 116.469907 Q 185.893893 119.659956 186.350947 121.453971 Q 186.69296 122.79715 186.752035 122.933955 C 187.019427 123.568234 187.031864 124.168311 187.233963 124.926959 Q 187.986392 127.750122 188.452773 129.376239 C 188.493193 129.522372 188.685964 129.553464 188.773022 129.429095 Q 188.956466 129.171031 189.024868 128.648683 Q 189.286042 126.671226 190.187713 120.916077 Q 190.517289 118.81736 190.694514 117.4804 Q 190.980561 115.307062 191.108039 114.551524 C 191.38165 112.922298 191.390977 112.20407 191.717444 110.665011 Q 191.925761 109.6825 192.357942 106.402284 Q 192.504075 105.317169 192.998439 102.142665 Q 194.801781 90.635478 195.572865 85.141503 Q 196.371932 79.454758 196.620669 78.030739 Q 196.944027 76.183868 197.04974 75.251105 Q 197.320241 72.903651 197.447719 72.462144 Q 197.559651 72.076602 197.631162 71.162494 C 197.755531 69.517721 198.361827 67.857403 200.404578 68.289583 C 201.30314 68.479245 201.865907 69.701165 201.968511 70.711658 Q 202.052459 71.535599 202.441111 72.878778 C 202.500186 73.071549 202.534387 73.273648 202.546824 73.472637 C 202.615226 74.573297 203.106482 75.770343 203.258833 77.0047 Q 203.324126 77.533266 203.687904 78.727202 C 203.746979 78.923083 203.78429 79.125181 203.802945 79.32728 Q 203.877566 80.235169 204.278654 81.45398 C 204.337729 81.637423 204.37504 81.827085 204.390586 82.019856 C 204.49008 83.223121 204.990663 84.246051 205.077721 85.421332 Q 205.127468 86.089812 205.513011 87.218456 C 205.578304 87.408118 205.621833 87.607107 205.637379 87.809206 Q 205.690236 88.490123 205.982501 89.457087 C 206.318296 90.560857 206.30275 91.422108 206.641654 92.528987 Q 206.731821 92.821253 206.912155 93.757125 Q 207.44383 96.539868 207.984833 98.731862 C 208.186931 99.555802 208.236679 100.417054 208.485416 101.250322 Q 208.755917 102.167539 208.855412 103.128285 C 208.920705 103.768782 209.324902 104.745074 209.430616 105.606326 Q 209.520783 106.37741 209.946744 107.813865 C 209.980946 107.922687 210.00271 108.03151 210.012038 108.146551 Q 210.136406 109.33116 210.562368 110.717867 C 210.602788 110.851564 210.630771 110.991478 210.643208 111.131392 Q 210.745811 112.247599 211.1469 113.506829 C 211.202865 113.684054 211.237067 113.870607 211.252613 114.057159 Q 211.336561 115.129837 211.796725 116.609821 C 211.843363 116.759063 211.868236 116.917633 211.874455 117.073093 Q 211.896219 117.732246 212.232014 118.93862 C 212.493188 119.874492 212.605119 121.0249 212.928477 122.137997 Q 213.105702 122.741184 213.15234 123.418992 Q 213.214524 124.336209 213.618722 125.595439 C 213.684015 125.794428 213.724435 125.999636 213.74309 126.207953 C 213.836367 127.28374 214.37426 128.396837 214.424007 129.603211 C 214.433335 129.830183 214.473755 130.054046 214.545267 130.268582 Q 215.048959 131.788986 215.170218 133.990307 C 215.185764 134.279463 215.552651 134.388286 215.726766 134.158204 C 216.115418 133.642075 216.230459 132.407719 216.295752 131.705037 C 216.317516 131.4563 216.38281 131.213782 216.482305 130.9837 C 216.81499 130.240599 216.864737 129.513044 217.066836 128.70154 Q 220.067224 116.681333 222.517282 107.076982 Q 222.862404 105.724476 223.251055 104.794822 Q 223.891553 103.274418 225.449267 103.000807 C 226.493962 102.817364 227.504455 103.862059 227.924199 104.741965 Q 228.875617 106.734969 229.960731 109.545695 Q 232.112305 115.114291 233.592289 118.428709 Q 233.719767 118.711647 233.878336 118.854671 C 233.98094 118.947947 234.148838 118.907527 234.195476 118.773831 Q 236.866287 111.283744 239.459369 103.669288 Q 239.552645 103.398786 239.978607 102.680559 C 240.028354 102.590392 240.102975 102.515771 240.190033 102.459805 Q 241.713546 101.452421 243.258824 102.534426 Q 243.492015 102.699214 244.098311 104.001973 C 244.144949 104.098359 244.169823 104.204072 244.17915 104.309785 C 244.253771 105.180364 244.745026 106.106909 244.866286 106.92774 Q 244.869395 106.955723 248.479188 119.858946 C 248.743471 120.801037 249.066829 121.441534 249.231617 122.290348 Q 249.268927 122.470683 249.567412 123.251094 C 250.540594 125.803756 251.917975 129.286072 255.540205 128.281797 C 256.289524 128.07348 257.256489 127.67861 257.890768 127.299286 C 259.019411 126.627697 261.624929 124.830573 262.722481 126.512656 Q 263.356759 127.47962 263.132896 128.595827 C 263.027183 129.136829 262.893487 129.889258 262.535928 130.554629 C 260.981323 133.449304 257.909423 136.872545 254.371142 137.195903 Q 250.329168 137.565899 247.935076 134.086692 C 246.980549 132.696875 246.243666 131.164035 245.739974 129.643631 Q 244.412341 125.623422 243.327227 121.133722 Q 242.543706 117.884597 241.679345 114.996141 C 241.632707 114.837571 241.421281 114.797151 241.321786 114.930847 Q 241.010865 115.344372 240.87406 115.820082 Q 240.255327 117.943672 239.45626 119.927348 Q 238.231231 122.968156 236.773011 126.167534 C 236.530493 126.702318 236.22579 127.140716 235.983272 127.504494 C 235.930415 127.585333 235.865122 127.656845 235.79361 127.71592 Q 233.875227 129.301618 232.479192 127.404999 C 231.966172 126.708536 231.335002 125.729135 230.896604 124.84301 Q 228.39058 119.759451 226.291863 114.110016 C 226.214133 113.89859 225.931195 113.861279 225.800608 114.044723 C 225.573636 114.36808 225.63582 114.871772 225.533216 115.220004 Q 225.160111 116.504108 224.389026 119.830963 Q 224.109197 121.049773 223.826259 121.861277 C 223.698782 122.234383 223.714328 122.769167 223.565086 123.173364 C 223.213745 124.109236 223.117359 125.085528 222.874841 125.999636 Q 222.231234 128.427929 221.301581 132.218057 Q 221.040407 133.281407 220.912929 133.620311 C 220.670411 134.25459 220.648646 134.873323 220.47764 135.516929 Q 219.849579 137.864383 219.299249 140.087468 Q 218.279428 144.179189 217.334228 148.326876 C 217.054399 149.551904 216.292643 150.724077 214.912153 150.836008 C 213.177214 150.972814 212.729488 149.601652 212.415457 148.078139 C 211.000767 141.234767 209.396414 134.534419 208.084327 128.396837 Q 204.667305 112.443479 202.736486 103.0319 C 202.288759 100.852343 202.074224 99.148496 201.642044 97.1244 Q 201.225409 95.181143 200.970454 92.923857 Q 200.895833 92.289578 200.547602 91.658408 Z" style="fill:#fb3173;"/>
		<path d="M 313.826954 112.544839 C 316.909798 107.851176 323.572836 106.778498 328.708785 110.152209 C 333.842558 113.525484 335.505985 120.064154 332.423265 124.760305 C 329.340421 129.453969 322.677383 130.526646 317.541434 127.152936 C 312.407662 123.77966 310.744234 117.240991 313.826954 112.544839 Z" style="fill:#01083c;"/>
	</g>
	<g id="surface4">
	</g>
</svg>
