<?xml version="1.0" encoding="utf-8"?>
<svg xmlns="http://www.w3.org/2000/svg" width="490pt" height="280pt" viewBox="0 0 490 280" version="1.1" xmlns:xlink="http://www.w3.org/1999/xlink">
	<g id="surface2" data-size="146.86555828287 148" data-bboxpos="171.5 51.712612011449" data-pivot="244.93277914144 125.71261201145" data-center="244.93277914144 125.71261201145">
		<path d="M 222.590499 51.720473 C 222.790441 51.674772 222.981813 51.829012 222.981813 52.034666 Q 222.941825 117.889657 222.950394 198.820232 Q 222.950394 199.65713 222.182048 199.639992 C 218.30604 199.554303 214.427177 199.645704 210.962478 199.268672 Q 206.043919 198.731686 201.842292 197.512044 Q 198.197646 196.452354 194.247375 194.607181 Q 188.92322 192.119338 184.170327 187.911999 Q 175.298641 180.057158 172.82508 168.431992 Q 172.43091 166.581106 172.130997 163.899035 Q 171.879642 161.671116 171.84251 159.31752 C 171.753965 153.644896 171.616862 148.255047 171.599724 141.431332 Q 171.576874 133.010941 171.522604 94.102341 Q 171.519748 92.26288 171.508323 91.591648 Q 171.471191 89.620797 171.599724 89.083811 C 172.139566 86.85018 174.09328 84.799352 175.835626 83.199821 Q 179.13466 80.16928 183.316292 76.973074 Q 201.676627 62.940043 221.627924 52.08608 Q 222.093502 51.834725 222.590499 51.720473 Z" style="fill:#1c4075;"/>
		<path d="M 318.102516 66.967434 Q 318.373865 67.190226 318.365296 67.852889 Q 318.125366 86.147529 318.051102 139.069167 C 318.028252 156.823965 317.839736 173.202023 317.791178 191.813713 C 317.785466 193.870254 317.556961 196.218137 317.422715 197.811956 Q 317.365589 198.491757 317.202779 199.005892 C 317.162791 199.131569 317.054252 199.225827 316.920005 199.245821 Q 316.214498 199.354361 314.300773 199.422912 Q 311.315933 199.531452 305.948934 199.691405 Q 301.590211 199.822795 296.446004 199.140138 Q 289.602294 198.234689 283.075635 194.681444 C 276.843176 191.285297 271.833215 186.138233 269.185419 179.585867 Q 268.699847 178.389075 268.379941 177.135157 C 267.917219 175.327115 268.042897 172.864979 268.042897 171.036943 Q 268.060035 141.017167 268.005765 100.557593 Q 268.002908 100.203411 268.082885 99.0209 C 268.091454 98.895223 268.117161 98.772401 268.162862 98.658149 Q 268.928352 96.693011 270.433625 95.459086 Q 275.720647 91.128927 281.721746 87.11296 C 293.152683 79.466629 305.086329 72.67719 317.528398 66.896026 Q 317.839736 66.750355 318.102516 66.967434 Z" style="fill:#1c4075;"/>
	</g>
	<g id="surface4">
	</g>
</svg>
