<?xml version="1.0" encoding="utf-8"?>
<svg xmlns="http://www.w3.org/2000/svg" width="490pt" height="280pt" viewBox="0 0 490 280" version="1.1" xmlns:xlink="http://www.w3.org/1999/xlink">
	<g id="surface2" data-size="98.843202620405 148" data-bboxpos="195.5 50.33384872817" data-pivot="244.9216013102 124.33384872817" data-center="244.9216013102 124.33384872817">
		<path d="M 266.424544 55.099722 Q 268.927342 55.411759 271.152773 56.077005 Q 271.958869 56.317533 273.404208 56.950275 Q 274.589515 57.466003 275.534294 58.046739 Q 280.37737 61.017592 282.498789 66.339558 Q 283.170536 68.025426 283.473905 70.044999 Q 283.658094 71.264977 283.519411 74.001803 C 283.473905 74.914078 283.194372 76.179562 282.964678 76.996492 Q 282.286431 79.401778 280.9061 82.509148 Q 280.362202 83.735627 278.598325 87.449736 Q 277.465024 89.837686 276.197373 92.353485 Q 271.131104 102.414515 266.890433 111.023706 C 266.480884 111.853638 265.711626 113.119122 265.286909 113.81037 Q 263.908745 116.053137 262.253215 118.137718 Q 256.129487 125.851969 246.982899 129.173864 C 245.53106 129.702594 245.162682 130.075305 244.460599 131.362458 Q 244.237406 131.76984 243.983876 132.721119 Q 243.585162 134.207629 243.299128 135.902164 Q 243.156111 136.742931 242.86791 139.386579 Q 242.748729 140.470041 242.755229 141.33031 C 242.76173 142.383435 242.575375 143.18303 242.560206 144.13431 Q 242.48003 148.758527 242.547205 153.731618 Q 242.56454 155.135785 242.696723 156.123902 C 242.824571 157.090351 242.744395 158.123974 242.898247 159.315782 Q 243.125774 161.09266 243.173446 161.74057 Q 243.244954 162.717853 243.433477 163.595458 Q 243.485483 163.84032 243.756349 165.443844 Q 244.72063 171.132021 246.831214 176.271965 Q 248.53225 180.419458 251.373088 184.023054 Q 254.900841 188.493419 260.181635 190.447984 Q 260.820878 190.684179 261.5663 190.818528 C 262.175206 190.929042 262.818782 191.147901 263.445023 191.180405 C 264.591326 191.241079 265.718127 191.45127 266.851428 191.273583 C 267.609852 191.154402 268.446285 191.182572 269.388897 190.991882 Q 272.062882 190.443651 274.253642 189.451199 C 279.599444 187.030745 284.152153 182.924423 287.868428 178.363047 Q 289.354938 176.538497 289.623637 176.235128 Q 290.195705 175.589384 291.188156 175.86675 Q 291.781893 176.033604 292.783012 176.573168 C 293.647615 177.039056 294.345365 177.37493 294.343198 178.263369 C 294.341031 178.339211 294.325862 178.412886 294.293359 178.482228 Q 294.039828 179.013125 293.628113 179.684871 Q 288.327816 188.328732 280.076168 193.793716 Q 275.100909 197.087441 269.47124 198.079892 Q 267.973895 198.344257 264.777682 198.333422 C 263.702887 198.329088 263.041975 198.153567 262.025688 198.099394 Q 261.743988 198.084226 260.935725 197.910872 Q 257.748179 197.223957 254.632142 195.561926 C 249.438024 192.792597 245.268862 188.408909 242.319678 183.392479 Q 240.857004 180.90485 239.476673 177.626293 Q 239.277316 177.14957 238.534061 174.991313 Q 237.981495 173.385622 237.68246 172.312994 Q 236.412642 167.747285 235.953254 163.166407 Q 235.777733 161.419866 235.747396 161.129498 Q 235.621714 159.903019 235.619548 159.092589 C 235.61088 156.195411 235.517702 154.277683 235.558874 151.816057 Q 235.628215 147.625225 235.608713 140.617392 C 235.604379 138.730001 235.389854 136.896783 235.379019 135.033228 C 235.376852 134.907546 235.361684 134.779697 235.331347 134.656183 C 235.162327 133.971435 235.236002 133.22818 235.092985 132.539098 C 234.906629 131.628989 234.889294 130.476186 234.091866 129.711261 Q 233.669316 129.31038 232.544682 128.946337 Q 229.747183 128.040563 228.265006 127.444659 C 223.25291 125.43592 218.927729 122.285212 215.597166 117.951363 Q 213.066199 114.659805 210.777927 110.141767 Q 200.974761 90.780298 199.377738 87.696765 Q 198.140424 85.310981 197.455676 83.830972 Q 196.045008 80.782109 195.542281 77.685574 Q 195.455604 77.14601 195.546615 73.648594 C 195.548782 73.574919 195.559617 73.50341 195.576952 73.431902 Q 195.843484 72.372276 195.98 71.897719 C 196.851104 68.833688 198.829506 66.313555 201.653008 64.547512 Q 203.705086 63.264693 205.839506 62.603781 Q 207.332517 62.140059 208.093107 61.973206 C 208.305466 61.9277 208.459318 61.745679 208.472319 61.528986 Q 208.537327 60.410853 209.224242 59.663264 Q 209.612121 59.240714 210.981618 58.731487 Q 211.538517 58.523462 213.831123 57.630689 Q 214.886415 57.218974 215.77052 56.831094 Q 216.988332 56.295864 217.725086 56.059669 Q 218.325324 55.866813 219.341612 55.996828 C 219.380616 56.001162 219.417454 56.011997 219.454292 56.027165 L 220.500916 56.48872 C 220.550756 56.510389 220.598428 56.540726 220.639599 56.577564 Q 221.824907 57.626356 222.253958 59.195209 Q 222.739349 60.982921 221.796737 62.562609 C 221.181331 63.587564 219.670984 64.291815 218.62436 64.52801 Q 217.179021 64.853048 216.944993 64.987398 C 216.882153 65.024235 216.808477 65.043738 216.736969 65.041571 Q 216.548446 65.037237 216.121562 65.173753 Q 215.365306 65.418616 212.465961 66.174872 C 211.807216 66.348226 210.979451 65.962514 210.257865 65.691648 C 210.110514 65.635308 209.950162 65.622306 209.79631 65.652643 Q 209.534112 65.702483 208.78869 65.897506 Q 206.017194 66.627759 203.711586 68.257286 Q 203.128684 68.669002 202.311753 69.509769 Q 199.570594 72.328937 199.908634 76.207732 Q 200.105824 78.446165 201.195787 81.024805 Q 202.118897 83.209065 203.995453 86.864666 Q 204.905562 88.632876 205.525302 89.837686 Q 209.425766 97.421921 212.626313 103.385297 Q 212.849506 103.801347 213.350066 104.466593 C 213.395571 104.527266 213.456245 104.572772 213.52342 104.603109 Q 213.646935 104.659449 214.541874 104.726623 Q 215.402143 104.789464 215.907037 105.56739 Q 218.037123 108.837279 219.551803 110.774509 Q 219.948351 111.28157 221.402357 112.826587 Q 225.328824 116.997916 230.715798 119.04566 Q 233.612976 120.146457 236.696509 120.436825 Q 238.542729 120.608012 240.681483 120.562507 Q 242.737894 120.517001 244.625285 120.066281 Q 247.938513 119.279688 250.816188 117.47464 Q 252.894269 116.172318 254.44362 114.765984 Q 258.783969 110.824349 261.674646 105.855591 Q 262.604257 104.256401 262.989969 103.54565 Q 263.219663 103.120933 263.58154 102.865235 C 263.618377 102.839232 263.659549 102.81973 263.705054 102.804562 Q 264.34213 102.609538 265.40609 102.713551 C 266.021496 102.774225 266.155846 102.072141 266.450547 101.7276 C 266.474384 101.69943 266.496053 101.666926 266.513388 101.634422 Q 270.465858 94.004682 274.531008 85.616518 Q 276.409732 81.73989 277.241831 79.819995 Q 277.874573 78.357321 278.307958 77.148177 Q 279.58861 73.564084 279.055546 69.839141 C 278.401135 65.256096 275.235259 61.78035 270.968585 60.111818 Q 268.500458 59.145369 266.08217 58.881005 C 265.780968 58.848501 265.475431 58.909175 265.2089 59.056526 L 263.904411 59.775944 C 263.848071 59.808448 263.787397 59.830118 263.72239 59.840952 Q 262.868621 59.999138 262.010519 59.825784 Q 261.219592 59.663264 260.636689 59.574421 Q 257.243286 59.050025 254.942012 58.449787 Q 252.922439 57.923224 252.311366 55.541774 Q 252.239857 55.266575 252.326534 53.617545 C 252.330868 53.550371 252.34387 53.485363 252.365539 53.422522 Q 252.551895 52.89596 252.731749 52.497246 Q 253.422998 50.945728 255.247548 50.445168 Q 255.997304 50.241477 256.556371 50.410497 C 257.958371 50.837381 260.129629 51.675981 261.975849 52.206878 Q 263.187159 52.555752 263.759227 52.742108 Q 264.799351 53.082315 265.26524 53.502698 Q 265.832974 54.01626 266.175348 54.902532 C 266.214353 55.008711 266.311864 55.084553 266.424544 55.099722 Z" style="fill:#0b4f88;"/>
	</g>
	<g id="surface4">
	</g>
</svg>
