<?xml version="1.0" encoding="utf-8"?>
<svg xmlns="http://www.w3.org/2000/svg" width="490pt" height="280pt" viewBox="0 0 490 280" version="1.1" xmlns:xlink="http://www.w3.org/1999/xlink">
	<g id="surface2" data-size="133.90223180703 148" data-bboxpos="178 54.925170645644" data-pivot="244.95111590351 128.92517064564" data-center="244.95111590351 128.92517064564">
		<path vector-effect="non-scaling-stroke" d="M 258.907126 126.407041 Q 258.648296 126.344565 258.875888 125.898306 Q 265.775045 112.224945 275.557032 100.631148 C 277.551807 98.261515 281.166501 94.245188 284.201059 91.420372 Q 286.044107 89.706739 291.591101 84.11512 Q 297.115781 78.545813 298.450094 71.008507 C 298.49472 70.754139 298.258203 70.539935 298.035074 70.633649 Q 297.865496 70.705051 297.794094 70.870167 Q 295.4914 76.283283 291.778529 80.259446 Q 287.989794 84.320399 284.134121 87.591474 C 282.014393 89.389896 280.345386 90.996426 278.047154 93.013515 C 272.848242 97.574277 268.229466 102.746413 263.691017 108.462985 C 261.459725 111.274414 259.134718 114.871258 257.599588 117.588972 Q 256.149248 120.159421 254.373139 124.407803" style="fill:none;stroke-width:0.50;stroke:#89af2a;"/>
		<path vector-effect="non-scaling-stroke" d="M 199.947448 145.248076 Q 202.714251 146.35926 205.244537 147.769437 Q 208.729816 149.710661 210.193544 150.322036 Q 213.790388 151.825927 216.414388 152.232022 Q 222.603994 153.187015 224.380103 153.16024 Q 228.55262 153.088838 232.327968 152.218634 C 232.59126 152.156158 232.742988 151.875015 232.649274 151.620648 Q 231.274797 147.881001 229.552239 144.721491 Q 227.008566 140.07594 226.754198 139.500266 Q 225.589464 136.849491 223.398334 133.328511 C 221.158116 129.718279 218.717082 125.889381 215.932429 122.511204 Q 215.147014 121.556211 211.94734 117.571122 Q 210.568402 115.853027 208.042578 113.54587 C 205.860374 111.560019 203.499666 108.949407 201.732483 107.369652 Q 201.237136 106.927856 199.389625 105.611393 C 199.246823 105.508754 199.112945 105.392727 198.987993 105.263312 Q 196.993217 103.228373 194.610196 101.844971 C 194.538795 101.804808 194.503094 101.724481 194.520945 101.644155 L 194.54772 101.487964 C 194.574496 101.327311 194.748537 101.233597 194.900264 101.304998 Q 198.82734 103.148046 202.076102 105.437352 Q 205.159748 107.615094 205.409653 107.793597 C 209.845463 110.962033 212.639041 113.746686 217.525572 118.561816 Q 219.908593 120.913598 225.5136 128.419667 Q 229.257709 133.43115 232.680512 140.656076 Q 235.134934 145.837137 236.451396 149.625872 C 236.540648 149.893627 236.897655 149.956104 237.076158 149.732974 C 240.351696 145.725573 242.975696 141.138035 244.109193 135.91681 Q 244.430499 134.435232 245.39888 132.770688" style="fill:none;stroke-width:0.50;stroke:#2ba13b;"/>
		<path vector-effect="non-scaling-stroke" d="M 243.957465 171.139996 Q 244.046717 171.064132 244.077955 170.858853 Q 244.109193 170.653574 243.859288 170.568785 Q 243.70756 170.519697 243.649547 170.863316 C 243.613846 171.07752 243.814662 171.256023 243.957465 171.139996" style="fill:none;stroke-width:0.50;stroke:#2ba13b;"/>
		<path vector-effect="non-scaling-stroke" d="M 264.244378 160.8939 Q 271.763834 161.496349 277.101086 156.502716 Q 281.429794 152.446226 283.08095 146.760893 C 283.143427 146.551151 282.964923 146.345872 282.746257 146.37711 Q 277.016297 147.175913 271.745984 150.023042 Q 265.395725 153.459233 264.048024 160.63507 C 264.025711 160.760023 264.114963 160.880512 264.244378 160.8939" style="fill:none;stroke-width:0.50;stroke:#d8b911;"/>
		<path d="M 258.907126 126.407041 Q 258.648296 126.344565 258.875888 125.898306 Q 265.775045 112.224945 275.557032 100.631148 C 277.551807 98.261515 281.166501 94.245188 284.201059 91.420372 Q 286.044107 89.706739 291.591101 84.11512 Q 297.115781 78.545813 298.450094 71.008507 C 298.49472 70.754139 298.258203 70.539935 298.035074 70.633649 Q 297.865496 70.705051 297.794094 70.870167 Q 295.4914 76.283283 291.778529 80.259446 Q 287.989794 84.320399 284.134121 87.591474 C 282.014393 89.389896 280.345386 90.996426 278.047154 93.013515 C 272.848242 97.574277 268.229466 102.746413 263.691017 108.462985 C 261.459725 111.274414 259.134718 114.871258 257.599588 117.588972 Q 256.149248 120.159421 254.373139 124.407803 Q 251.276105 118.441326 250.191697 112.041979 Q 249.767751 109.542931 249.825765 107.316101 C 249.87039 105.477516 249.705275 103.049869 250.062282 101.001543 Q 251.628649 92.004971 256.524105 85.154902 C 265.685793 72.34282 280.349848 65.448125 294.97374 60.226901 Q 304.836054 56.705921 309.173687 55.139553 C 310.954258 54.496941 311.71736 55.318057 311.784299 57.045077 Q 312.159156 66.505758 311.342503 75.337214 Q 310.454449 84.904997 307.821523 93.526712 Q 306.07219 99.247747 302.783265 105.209761 Q 296.66506 116.312673 285.843291 122.707558 Q 284.468814 123.519748 279.760787 125.460973 Q 278.895045 125.81798 278.10963 126.009871 C 277.266202 126.21515 276.556651 126.536456 275.860487 126.598932 C 273.923725 126.764048 271.612106 127.478061 269.537004 127.531612 Q 265.917847 127.629789 263.124269 127.076429 Q 260.460105 126.545381 258.907126 126.407041 Z" style="fill:#ffd21a;"/>
		<path d="M 258.907126 126.407041 Q 258.22435 127.219231 257.871806 128.009109 Q 255.863643 132.538633 255.216568 134.48432 Q 254.413302 136.894116 253.694826 139.321763 Q 252.289112 144.065491 251.619724 148.639641 Q 250.919098 153.45477 250.90571 153.691288 Q 250.798608 155.262118 250.24971 160.519043 Q 249.897166 163.919533 249.807914 167.346799 Q 249.352731 184.996324 249.754363 200.847427 Q 249.794526 202.360243 248.437901 202.6994 C 247.143751 203.020706 245.309628 203.078719 244.06903 202.351318 C 243.390717 201.954148 243.560295 200.361005 243.555832 199.401549 Q 243.515669 193.510936 243.573683 175.727534 C 243.573683 175.540105 243.533519 175.352677 243.457655 175.174173 Q 242.408948 172.724214 241.556594 170.930255 Q 240.623914 168.966717 239.646607 166.713111 Q 237.723233 162.268377 235.224185 157.707614 Q 234.764539 156.864186 233.840784 157.100703 Q 228.757899 158.39039 224.08111 157.63175 Q 217.909354 156.627669 212.076755 153.785002 Q 205.54353 150.598716 199.947448 145.248076 Q 202.714251 146.35926 205.244537 147.769437 Q 208.729816 149.710661 210.193544 150.322036 Q 213.790388 151.825927 216.414388 152.232022 Q 222.603994 153.187015 224.380103 153.16024 Q 228.55262 153.088838 232.327968 152.218634 C 232.59126 152.156158 232.742988 151.875015 232.649274 151.620648 Q 231.274797 147.881001 229.552239 144.721491 Q 227.008566 140.07594 226.754198 139.500266 Q 225.589464 136.849491 223.398334 133.328511 C 221.158116 129.718279 218.717082 125.889381 215.932429 122.511204 Q 215.147014 121.556211 211.94734 117.571122 Q 210.568402 115.853027 208.042578 113.54587 C 205.860374 111.560019 203.499666 108.949407 201.732483 107.369652 Q 201.237136 106.927856 199.389625 105.611393 C 199.246823 105.508754 199.112945 105.392727 198.987993 105.263312 Q 196.993217 103.228373 194.610196 101.844971 C 194.538795 101.804808 194.503094 101.724481 194.520945 101.644155 L 194.54772 101.487964 C 194.574496 101.327311 194.748537 101.233597 194.900264 101.304998 Q 198.82734 103.148046 202.076102 105.437352 Q 205.159748 107.615094 205.409653 107.793597 C 209.845463 110.962033 212.639041 113.746686 217.525572 118.561816 Q 219.908593 120.913598 225.5136 128.419667 Q 229.257709 133.43115 232.680512 140.656076 Q 235.134934 145.837137 236.451396 149.625872 C 236.540648 149.893627 236.897655 149.956104 237.076158 149.732974 C 240.351696 145.725573 242.975696 141.138035 244.109193 135.91681 Q 244.430499 134.435232 245.39888 132.770688 Q 245.622009 137.733082 245.215914 141.262987 Q 244.783043 145.033872 242.944458 149.309029 Q 242.649927 149.991804 241.864512 151.254716 Q 240.949682 152.722906 240.860431 153.0219 C 240.793492 153.151315 240.713165 153.271804 240.623914 153.383369 L 238.410471 156.145709 C 238.325682 156.252811 238.303369 156.400077 238.352458 156.529492 L 243.636159 170.43937 C 243.68971 170.57771 243.890526 170.57771 243.939615 170.43937 Q 244.528676 168.828377 244.470662 166.90054 C 244.4662 166.846989 244.470662 166.793438 244.479587 166.74435 L 247.282091 150.83077 C 247.282091 150.821845 247.282091 150.81292 247.286554 150.803995 Q 247.755125 149.108212 247.947016 147.943478 Q 248.103207 146.970634 248.553928 145.1856 Q 248.982336 143.471967 249.607098 141.120185 Q 251.16454 135.251885 251.463533 134.243341 Q 251.807152 133.05183 254.15001 125.759966 Q 254.257112 125.434197 254.373139 124.407803 Q 256.149248 120.159421 257.599588 117.588972 C 259.134718 114.871258 261.459725 111.274414 263.691017 108.462985 C 268.229466 102.746413 272.848242 97.574277 278.047154 93.013515 C 280.345386 90.996426 282.014393 89.389896 284.134121 87.591474 Q 287.989794 84.320399 291.778529 80.259446 Q 295.4914 76.283283 297.794094 70.870167 Q 297.865496 70.705051 298.035074 70.633649 C 298.258203 70.539935 298.49472 70.754139 298.450094 71.008507 Q 297.115781 78.545813 291.591101 84.11512 Q 286.044107 89.706739 284.201059 91.420372 C 281.166501 94.245188 277.551807 98.261515 275.557032 100.631148 Q 265.775045 112.224945 258.875888 125.898306 Q 258.648296 126.344565 258.907126 126.407041 Z M 243.957465 171.139996 Q 244.046717 171.064132 244.077955 170.858853 Q 244.109193 170.653574 243.859288 170.568785 Q 243.70756 170.519697 243.649547 170.863316 C 243.613846 171.07752 243.814662 171.256023 243.957465 171.139996 Z" style="fill:#138c39;"/>
		<path d="M 245.39888 132.770688 Q 244.430499 134.435232 244.109193 135.91681 C 242.975696 141.138035 240.351696 145.725573 237.076158 149.732974 C 236.897655 149.956104 236.540648 149.893627 236.451396 149.625872 Q 235.134934 145.837137 232.680512 140.656076 Q 229.257709 133.43115 225.5136 128.419667 Q 219.908593 120.913598 217.525572 118.561816 C 212.639041 113.746686 209.845463 110.962033 205.409653 107.793597 Q 205.159748 107.615094 202.076102 105.437352 Q 198.82734 103.148046 194.900264 101.304998 C 194.748537 101.233597 194.574496 101.327311 194.54772 101.487964 L 194.520945 101.644155 C 194.503094 101.724481 194.538795 101.804808 194.610196 101.844971 Q 196.993217 103.228373 198.987993 105.263312 C 199.112945 105.392727 199.246823 105.508754 199.389625 105.611393 Q 201.237136 106.927856 201.732483 107.369652 C 203.499666 108.949407 205.860374 111.560019 208.042578 113.54587 Q 210.568402 115.853027 211.94734 117.571122 Q 215.147014 121.556211 215.932429 122.511204 C 218.717082 125.889381 221.158116 129.718279 223.398334 133.328511 Q 225.589464 136.849491 226.754198 139.500266 Q 227.008566 140.07594 229.552239 144.721491 Q 231.274797 147.881001 232.649274 151.620648 C 232.742988 151.875015 232.59126 152.156158 232.327968 152.218634 Q 228.55262 153.088838 224.380103 153.16024 Q 222.603994 153.187015 216.414388 152.232022 Q 213.790388 151.825927 210.193544 150.322036 Q 208.729816 149.710661 205.244537 147.769437 Q 202.714251 146.35926 199.947448 145.248076 Q 194.828863 140.892593 190.73221 134.769926 Q 187.48791 129.923558 185.082577 124.608619 Q 181.052862 115.705761 179.566821 107.034958 Q 179.343692 105.749733 178.826032 102.996318 Q 178.406549 100.782876 178.375311 98.939828 C 178.348535 97.154794 178.054005 95.615202 178.018304 93.370522 Q 177.920127 87.975256 178.348535 82.646929 Q 178.56274 79.978303 179.263365 79.1438 C 180.454876 77.724698 181.838277 77.613133 183.770577 77.938902 Q 193.815856 79.648072 203.69602 83.311854 Q 213.522633 86.953324 222.2693 93.178631 Q 230.841927 99.283447 236.723614 107.704346 Q 243.439805 117.321217 245.215914 129.463912 Q 245.385492 130.646497 245.39888 132.770688 Z" style="fill:#42b63d;"/>
		<path d="M 258.2065 168.0742 L 259.424786 165.624241 C 259.576514 165.325247 259.652377 164.995016 259.652377 164.660322 L 259.652377 159.06424 C 259.652377 158.841111 259.67469 158.622444 259.723779 158.403778 C 260.892976 153.218253 263.865058 149.920403 268.345494 147.314253 Q 272.74114 144.761654 278.480025 143.088185 Q 284.745495 141.258525 291.354584 140.557899 C 291.876706 140.504348 292.278339 141.017545 292.095373 141.512892 Q 290.475454 145.935314 288.239699 150.125682 C 285.01325 156.18141 279.916977 161.5499 273.870174 164.098036 Q 269.278174 166.034799 264.106038 165.548377 Q 263.267072 165.46805 261.981847 165.923234 C 261.843507 165.972322 261.714092 166.039261 261.593602 166.12405 L 258.469792 168.301792 C 258.318064 168.408894 258.121711 168.239316 258.2065 168.0742 Z M 264.244378 160.8939 Q 271.763834 161.496349 277.101086 156.502716 Q 281.429794 152.446226 283.08095 146.760893 C 283.143427 146.551151 282.964923 146.345872 282.746257 146.37711 Q 277.016297 147.175913 271.745984 150.023042 Q 265.395725 153.459233 264.048024 160.63507 C 264.025711 160.760023 264.114963 160.880512 264.244378 160.8939 Z" style="fill:#b0a007;"/>
		<path d="M 264.244378 160.8939 C 264.114963 160.880512 264.025711 160.760023 264.048024 160.63507 Q 265.395725 153.459233 271.745984 150.023042 Q 277.016297 147.175913 282.746257 146.37711 C 282.964923 146.345872 283.143427 146.551151 283.08095 146.760893 Q 281.429794 152.446226 277.101086 156.502716 Q 271.763834 161.496349 264.244378 160.8939 Z" style="fill:#ffd21a;"/>
		<path d="M 243.957465 171.139996 C 243.814662 171.256023 243.613846 171.07752 243.649547 170.863316 Q 243.70756 170.519697 243.859288 170.568785 Q 244.109193 170.653574 244.077955 170.858853 Q 244.046717 171.064132 243.957465 171.139996 Z" style="fill:#42b63d;"/>
	</g>
	<g id="surface4">
	</g>
</svg>
