<?xml version="1.0" encoding="utf-8"?>
<svg xmlns="http://www.w3.org/2000/svg" width="490pt" height="280pt" viewBox="0 0 490 280" version="1.1" xmlns:xlink="http://www.w3.org/1999/xlink">
	<g id="surface2" data-size="240.52292018914 148" data-bboxpos="124.5 54.044021123263" data-pivot="244.76146009457 128.04402112326" data-center="244.76146009457 128.04402112326">
		<path stroke-opacity="0.988" vector-effect="non-scaling-stroke" d="M 246.179394 132.623803 Q 246.002425 132.627825 246.002425 132.796749 Q 245.837523 152.146642 246.11102 171.512623" style="fill:none;stroke-width:0.50;stroke:#d59a75;"/>
		<path stroke-opacity="0.988" vector-effect="non-scaling-stroke" d="M 255.538612 175.940856 Q 254.456692 176.761347 253.704576 177.790981 C 253.676421 177.831201 253.680443 177.883488 253.716642 177.919686 C 253.75284 177.951862 253.809148 177.94784 253.845346 177.915664 L 255.639163 176.210331" style="fill:none;stroke-width:0.50;stroke:#d59a75;"/>
		<path stroke-opacity="0.988" vector-effect="non-scaling-stroke" d="M 255.023795 179.62904 Q 254.404405 179.906559 254.126887 180.324848 C 254.078623 180.397244 254.142975 180.497794 254.231459 180.481706 Q 254.77443 180.381156 255.180653 179.834163" style="fill:none;stroke-width:0.50;stroke:#d59a75;"/>
		<path stroke-opacity="0.988" vector-effect="non-scaling-stroke" d="M 136.832993 179.926669 L 136.161317 181.286108 C 136.048701 181.507319 136.249801 181.760706 136.495144 181.70842 Q 136.752552 181.652111 136.70831 181.519385" style="fill:none;stroke-width:0.50;stroke:#d59a75;"/>
		<path stroke-opacity="0.988" vector-effect="non-scaling-stroke" d="M 234.451211 176.491872 L 236.140455 178.076544 C 236.196764 178.12883 236.285248 178.116764 236.341556 178.052412 L 236.345578 178.04839 C 236.393842 177.98806 236.38982 177.899576 236.333512 177.843267 L 234.503497 176.117825" style="fill:none;stroke-width:0.50;stroke:#d59a75;"/>
		<path stroke-opacity="0.988" vector-effect="non-scaling-stroke" d="M 222.417355 183.136233 Q 219.046911 181.8693 215.716686 181.358505 Q 212.306021 180.839665 208.818938 180.353002 Q 208.215636 180.26854 205.98342 180.216254 C 205.846672 180.212232 205.713946 180.196144 205.581219 180.16799 Q 203.554126 179.713502 201.659759 179.616974 Q 196.427123 179.351521 192.421201 179.222817 C 188.893897 179.106179 186.21926 179.275103 181.919731 179.395763 Q 177.620202 179.512402 174.048656 179.76981 Q 160.582965 180.735093 146.743227 182.882847 C 144.80864 183.180475 142.705128 183.224718 141.152632 183.518324 Q 137.975244 184.121626 134.721437 184.556003 C 134.242818 184.620355 133.800397 184.837544 133.462548 185.179415 L 132.6863 185.955663 C 132.461067 186.180895 132.654124 186.562986 132.96784 186.514722 Q 151.062866 183.695293 168.582744 182.315743 Q 177.941963 181.579715 186.275568 181.422857 Q 189.400671 181.362527 200.272165 181.559605 Q 201.293756 181.575693 201.832705 181.680265 C 203.063441 181.913542 204.330374 181.776794 205.7421 181.92963 Q 215.435145 182.991441 226.708841 184.913962 C 227.786739 185.098974 228.92899 185.577594 229.926449 185.64999 C 230.006889 185.658034 230.075263 185.601726 230.08733 185.521286 L 230.103418 185.412691 C 230.111462 185.364427 230.079285 185.320185 230.035043 185.308119 L 227.094954 184.543937" style="fill:none;stroke-width:0.50;stroke:#d59a75;"/>
		<path stroke-opacity="0.988" vector-effect="non-scaling-stroke" d="M 205.898958 180.336914 Q 205.327833 180.159945 204.559628 180.292672" style="fill:none;stroke-width:0.50;stroke:#d59a75;"/>
		<path stroke-opacity="0.988" vector-effect="non-scaling-stroke" d="M 204.189604 180.22832 Q 203.992525 180.031241 203.654676 180.172012" style="fill:none;stroke-width:0.50;stroke:#d59a75;"/>
		<path stroke-opacity="0.988" vector-effect="non-scaling-stroke" d="M 202.850274 180.103637 L 202.279148 180.075483" style="fill:none;stroke-width:0.50;stroke:#d59a75;"/>
		<path stroke-opacity="0.988" vector-effect="non-scaling-stroke" d="M 202.045872 180.015153 L 201.173096 179.982977" style="fill:none;stroke-width:0.50;stroke:#d59a75;"/>
		<path stroke-opacity="0.988" vector-effect="non-scaling-stroke" d="M 195.666963 180.863797 Q 196.133516 181.076964 196.6604 180.952282" style="fill:none;stroke-width:0.50;stroke:#d59a75;"/>
		<path stroke-opacity="0.988" vector-effect="non-scaling-stroke" d="M 214.634765 182.424337 Q 214.843909 182.621416 215.262199 182.641526" style="fill:none;stroke-width:0.50;stroke:#d59a75;"/>
		<path stroke-opacity="0.988" vector-effect="non-scaling-stroke" d="M 297.391654 181.060876 Q 303.472934 181.660155 309.558236 181.294152" style="fill:none;stroke-width:0.50;stroke:#d59a75;"/>
		<path stroke-opacity="0.988" vector-effect="non-scaling-stroke" d="M 324.813722 182.408249 Q 325.774983 182.593262 326.748309 182.66968 Q 327.255083 182.705878 328.682896 182.874803 Q 330.046358 183.035683 331.454062 182.834583" style="fill:none;stroke-width:0.50;stroke:#d59a75;"/>
		<path stroke-opacity="0.988" vector-effect="non-scaling-stroke" d="M 352.818982 185.674122 L 356.977741 186.442326 C 357.130577 186.47048 357.255259 186.325688 357.206995 186.180895 Q 357.130577 185.955663 356.748486 185.774672 C 356.664024 185.734452 356.587606 185.678144 356.527276 185.605748 Q 355.457421 184.298594 353.482614 184.676663" style="fill:none;stroke-width:0.50;stroke:#d59a75;"/>
		<path stroke-opacity="0.988" vector-effect="non-scaling-stroke" d="M 329.177604 181.559605 C 329.491321 181.523407 329.796993 181.527429 330.114732 181.507319 Q 330.074512 181.507319 330.038314 181.499275 Q 328.735183 181.12925 327.327479 181.20969" style="fill:none;stroke-width:0.50;stroke:#d59a75;"/>
		<path stroke-opacity="0.988" vector-effect="non-scaling-stroke" d="M 310.732663 179.693392 Q 306.758917 179.166509 302.72484 179.480226 C 302.712774 179.480226 302.700708 179.492292 302.700708 179.504358 C 302.700708 179.516424 302.712774 179.52849 302.72484 179.52849 L 304.100368 179.653172" style="fill:none;stroke-width:0.50;stroke:#d59a75;"/>
		<path stroke-opacity="0.988" vector-effect="non-scaling-stroke" d="M 355.988326 185.931531 Q 356.108986 185.971751 356.358351 185.867178" style="fill:none;stroke-width:0.50;stroke:#d59a75;"/>
		<path stroke-opacity="0.988" vector-effect="non-scaling-stroke" d="M 230.468938 181.118632 C 230.4292 181.193602 230.549861 181.338395 230.743118 181.437416 C 230.935974 181.535473 231.120986 181.555583 231.161689 181.477717 C 231.201426 181.402747 231.080766 181.257954 230.887509 181.158932 C 230.694653 181.060876 230.509641 181.040766 230.468938 181.118632" style="fill:none;stroke-width:0.50;stroke:#d59a75;"/>
		<path stroke-opacity="0.988" vector-effect="non-scaling-stroke" d="M 261.774096 185.069131 C 261.748597 184.978314 261.350418 185.01049 260.879802 185.137063 C 260.409267 185.263877 260.051308 185.440845 260.074073 185.531019 C 260.099572 185.621836 260.497751 185.58966 260.968367 185.463087 C 261.438902 185.336273 261.796861 185.159305 261.774096 185.069131" style="fill:none;stroke-width:0.50;stroke:#d59a75;"/>
		<path stroke-opacity="0.988" vector-effect="non-scaling-stroke" d="M 168.269027 181.402747 C 168.220763 181.410791 168.184565 181.455033 168.184565 181.503297 C 168.188587 181.555583 168.228807 181.595803 168.277071 181.599825 Q 173.079352 181.945718 177.423123 180.706939 C 177.483453 180.690851 177.479431 180.602367 177.419101 180.590301 Q 176.132058 180.340936 174.474989 180.276584 Q 173.405135 180.236364 171.57512 180.775313 Q 170.967796 180.956304 168.269027 181.402747" style="fill:none;stroke-width:0.50;stroke:#d59a75;"/>
		<path d="M 364.285734 187.419675 C 364.623583 187.496093 364.885013 187.761545 364.949366 188.099394 C 365.315369 189.989739 364.430526 190.456293 362.801612 190.383896 Q 358.960592 190.218994 356.491077 189.800705 Q 352.11513 189.064677 348.688377 188.642366 Q 347.268607 188.469419 338.798253 187.387498 Q 337.294021 187.194442 336.815402 187.186398 C 335.23073 187.154222 334.116633 186.812351 332.455542 186.800285 Q 331.385688 186.792241 330.428449 186.474502 C 329.752751 186.249269 328.586368 186.442326 327.661306 186.285468 C 325.425068 185.903377 322.995773 186.048169 320.626809 185.694232 Q 320.055684 185.60977 319.649461 185.605748 C 316.025629 185.56955 312.735625 185.211591 309.534104 185.207569 C 301.027552 185.191481 295.308253 184.998424 289.210885 185.408669 Q 286.612666 185.581616 283.913897 185.742496 Q 283.568004 185.762606 282.876218 185.81087 Q 279.847644 186.015993 275.942272 186.575052 C 274.53859 186.776153 273.464713 186.756043 272.378771 186.961165 C 270.49647 187.319124 267.49605 187.552401 265.167306 188.018954 Q 263.063794 188.441265 262.138732 188.445287 C 261.905455 188.445287 261.688267 188.561926 261.559562 188.759004 C 260.968327 189.672 260.887886 190.560865 260.529927 191.445707 Q 257.477221 198.922625 249.803225 201.239303 Q 242.177493 203.543915 235.432582 199.248408 Q 230.614213 196.183636 228.832462 190.818273 C 228.530811 189.913321 228.659516 189.141095 227.762607 188.545838 C 227.662057 188.477463 227.545419 188.437243 227.428781 188.433221 Q 225.832042 188.360825 225.510281 188.284407 Q 222.529972 187.576533 220.277646 187.403587 Q 220.012193 187.383476 219.74674 187.31108 C 218.94636 187.097914 218.077606 187.21053 217.32549 187.053672 C 216.002249 186.780175 214.755425 186.920945 213.681548 186.526788 C 213.472404 186.45037 213.247171 186.41015 213.021939 186.41015 Q 211.839468 186.402106 210.886251 186.225137 C 209.108522 185.891311 207.612334 186.040125 205.987442 185.822936 Q 204.728553 185.654012 203.212255 185.573572 Q 197.951465 185.300075 196.933896 185.275943 Q 178.267745 184.793302 160.538723 186.422216 Q 157.823866 186.671581 149.482216 187.564467 C 147.048899 187.821876 145.287259 188.115482 143.034933 188.372891 Q 138.305049 188.919884 132.400737 189.796683 Q 129.400317 190.243126 126.255105 190.359764 C 123.962559 190.440204 123.974625 187.596643 125.933344 187.162266 Q 127.316916 186.852571 128.531563 186.727889 Q 129.520977 186.63136 130.128301 185.436823 Q 131.918096 181.921586 132.855224 179.633062 Q 136.72842 170.169271 138.992812 160.540578 Q 140.219526 155.336096 140.645859 153.453795 Q 142.278795 146.206132 144.410461 133.379941 Q 146.602456 120.183724 147.965918 110.772219 Q 148.714012 105.59187 148.746188 105.374681 Q 149.176543 102.293821 149.687338 99.096323 Q 149.739625 98.774562 149.840175 98.11093 Q 150.069429 96.594632 151.259945 88.3294 Q 151.384627 87.460646 151.428869 86.559716 C 151.465067 85.799556 151.698344 85.156034 151.819004 84.218906 Q 152.534922 78.563959 152.872771 76.589152 C 153.089959 75.314174 152.989409 73.918536 153.560535 72.514855 C 154.127638 71.123239 155.326197 71.034755 156.520734 70.733104 C 156.99131 70.612444 157.345247 70.214265 157.401555 69.731624 Q 157.827888 66.212364 158.588048 62.38341 Q 158.809258 61.285401 159.287878 60.875156 C 160.454261 59.88172 162.505486 59.608223 163.418482 59.214066 Q 163.925256 58.996877 165.224365 58.783711 C 165.896041 58.675116 166.696421 58.180409 167.589307 58.091925 Q 168.586766 57.995397 169.877831 57.476557 C 170.082954 57.392095 170.300143 57.339809 170.521353 57.319699 Q 171.651538 57.215127 173.179902 56.676177 C 173.405135 56.595737 173.638411 56.543451 173.879732 56.519319 Q 175.138621 56.402681 177.03701 55.871775 C 177.298441 55.799379 177.559872 55.751115 177.829346 55.726983 Q 179.904704 55.54197 182.333998 54.966823 C 182.474768 54.930625 182.619561 54.910515 182.768375 54.906493 Q 184.59839 54.84214 185.861301 54.66115 Q 190.438349 54.005562 194.806253 54.065892 Q 196.692576 54.090024 198.023861 54.311235 C 199.431565 54.544512 200.774917 54.415807 202.327413 54.608864 Q 210.689173 55.646543 218.254574 58.598698 Q 222.244409 60.151194 226.523828 62.44374 Q 227.859136 63.159658 228.381997 63.517617 C 229.230641 64.104831 230.047109 64.466812 230.831401 65.009783 Q 237.74926 69.791954 243.633461 75.712353 C 244.369489 76.452403 245.097473 76.223149 245.805347 75.511253 Q 248.966647 72.333864 252.739293 69.24496 Q 264.708796 59.435276 279.586213 55.980369 Q 280.197559 55.839599 284.235658 54.942691 C 284.408604 54.906493 284.585573 54.882361 284.766563 54.878339 Q 285.583031 54.86225 287.228034 54.665172 Q 294.624511 53.768264 298.650544 54.166443 Q 302.270353 54.524402 303.517176 54.532446 Q 303.822849 54.532446 307.860948 55.087483 Q 310.109252 55.397178 312.176565 55.827533 Q 320.638875 57.577108 328.916173 60.135106 Q 330.585307 60.649924 330.927178 62.041539 Q 331.293181 63.501529 331.53048 65.102289 C 331.803977 66.912194 332.218244 68.34403 332.395212 69.820108 C 332.455542 70.310793 332.829589 70.700928 333.316253 70.781368 C 335.665107 71.163459 336.308628 72.711933 336.421245 75.036655 Q 336.505707 76.697746 336.859644 78.298506 C 337.261845 80.116455 337.217603 80.836395 337.543386 82.795114 Q 337.841014 84.592953 338.782165 91.470591 Q 338.995332 93.051241 339.25274 94.619825 Q 339.566457 96.526258 339.671029 97.781125 C 339.819844 99.518634 340.266287 101.227988 340.447277 103.058003 C 340.624246 104.863886 341.062645 106.585306 341.239613 108.379123 Q 341.356252 109.589748 341.47289 110.305666 Q 343.902184 125.492778 344.449178 128.798871 Q 346.560733 141.572776 348.796971 152.267302 Q 348.841213 152.480469 349.866826 156.908702 Q 352.380583 167.784219 355.385025 176.162067 Q 357.255259 181.370571 359.781082 185.742496 Q 359.966095 186.060235 361.092258 186.707779 C 361.108346 186.719845 361.124434 186.723867 361.140522 186.727889 L 364.285734 187.419675 Z M 242.51132 176.238485 C 242.732531 176.443608 243.094512 176.282727 243.094512 175.981077 L 243.094512 78.978226 C 243.094512 78.769081 243.014071 78.567981 242.869279 78.419166 Q 237.021276 72.2856 230.384958 67.772904 Q 224.605329 63.8434 219.111263 61.768043 Q 217.422018 61.128543 215.760928 60.537307 C 211.646411 59.077318 207.580158 58.216607 202.725592 57.500689 Q 200.984061 57.243281 199.970514 57.247303 C 198.490415 57.255347 197.114887 56.905432 195.642831 56.913476 C 194.243171 56.92152 192.903842 56.869234 191.673107 56.985872 C 188.793347 57.263391 186.585263 57.186973 183.846274 57.597218 Q 177.511607 58.546412 174.804794 59.097428 Q 170.143284 60.0426 162.525596 62.286882 C 161.021364 62.729303 161.081694 63.867532 161.005276 65.395896 C 161.001254 65.528622 160.981144 65.657327 160.944946 65.786031 Q 160.434151 67.672354 160.241094 69.421929 C 160.084236 70.857786 159.637793 72.116676 159.501044 73.443939 C 159.307988 75.257866 158.760994 77.140167 158.628268 78.901808 C 158.53174 80.156675 158.05312 81.600577 157.91235 82.839356 Q 157.727338 84.48838 157.425687 85.8076 Q 157.095882 87.24748 157.01142 88.337444 C 156.918913 89.584268 156.440294 91.032191 156.299524 92.287059 Q 156.114511 93.948149 155.832971 95.259325 Q 155.535342 96.642896 155.454902 97.358814 C 155.277933 98.979684 154.678653 100.793611 154.602235 102.120875 C 154.529839 103.35161 154.075352 104.674851 153.902405 106.066467 Q 153.701305 107.711469 153.387588 109.030689 C 153.025607 110.546987 152.997453 111.709348 152.635472 113.197492 C 152.245337 114.79423 152.180985 116.382924 151.83107 118.124455 Q 150.897964 122.802053 149.566678 130.053738 Q 149.518414 130.327235 147.479255 141.190685 C 147.14945 142.964392 146.598434 144.68179 146.473752 146.246352 C 146.473752 146.258418 146.473752 146.270484 146.46973 146.278529 L 145.596954 149.914426 C 145.512491 150.264341 145.822186 150.586102 146.176123 150.517728 Q 149.305247 149.894316 151.839114 149.757568 C 153.158334 149.689193 154.622345 149.351345 156.013961 149.198508 Q 158.527718 148.912945 163.07259 148.365952 Q 166.796971 147.915487 175.504624 147.60177 Q 178.340142 147.50122 180.556269 147.617858 Q 184.795469 147.839069 185.611937 147.814937 Q 186.484713 147.786782 187.333357 147.947663 C 188.813457 148.229204 190.068324 148.164851 191.628865 148.42226 Q 194.034027 148.820439 196.342661 149.258838 C 209.249293 151.728353 221.371633 157.495916 231.68809 165.519827 Q 235.561286 168.532313 239.929189 173.306439 C 240.697393 174.14704 241.537994 175.341577 242.51132 176.238485 Z M 246.179394 132.623803 Q 246.002425 132.627825 246.002425 132.796749 Q 245.837523 152.146642 246.11102 171.512623 L 246.123086 175.611052 C 246.123086 176.069561 246.629859 176.343057 247.01195 176.097715 Q 247.414151 175.840306 247.804286 175.245049 Q 247.969188 174.995684 248.560424 174.324008 Q 253.370749 168.870162 259.311258 164.397686 Q 272.000702 154.849433 287.433156 150.594146 C 288.450725 150.312605 289.315457 149.994866 290.123881 149.838008 Q 293.779889 149.126112 297.616887 148.498678 Q 300.207062 148.076367 300.697747 148.128653 C 301.437797 148.20105 302.399057 147.851135 303.114975 147.839069 C 306.626191 147.774716 310.189692 147.448934 313.576225 147.60177 Q 318.643958 147.835047 319.713813 147.802871 C 321.378925 147.758628 322.585528 148.124631 324.383367 148.176917 Q 325.344628 148.205072 327.886538 148.494656 Q 336.256342 149.447873 338.906847 149.833986 Q 341.734321 150.252275 343.938382 150.356847 C 344.099263 150.364891 344.227967 150.216077 344.191769 150.059218 Q 339.996812 130.480071 336.372981 109.67421 Q 334.884837 101.123416 334.848639 100.910249 Q 330.364097 74.437376 328.328959 63.308473 C 328.224387 62.741369 327.765878 62.30297 327.194753 62.226552 Q 325.891621 62.053605 324.8097 61.60314 C 324.097804 61.305511 323.450261 61.353776 322.750431 61.088323 Q 322.082777 60.830914 321.230111 60.613726 Q 313.451542 58.610764 305.101849 57.460469 C 303.472934 57.235237 302.145671 57.319699 300.737967 57.114576 Q 299.378527 56.913476 297.46405 56.897388 Q 293.273115 56.86119 287.972106 57.307633 C 286.266773 57.452425 284.505132 57.999419 283.117539 58.055727 C 281.625373 58.116057 279.735028 58.767623 278.287104 58.960679 C 278.110136 58.984811 277.933167 59.033075 277.768265 59.109494 C 276.827114 59.527783 275.962382 59.620289 275.166024 59.88172 Q 267.793679 62.319058 262.561043 65.399918 Q 260.268497 66.751314 255.586876 70.10567 C 252.21241 72.526921 249.863555 75.177426 246.581595 78.016965 C 246.456913 78.12556 246.360384 78.270352 246.31212 78.431232 Q 246.102976 79.082798 246.106998 80.003838 Q 246.127108 106.315832 246.179394 132.623803 Z M 211.397046 157.745281 Q 211.071264 157.367212 210.516226 157.218397 Q 209.422239 156.932834 208.444891 156.486391 Q 207.021099 155.84287 203.513906 154.712685 Q 202.383721 154.350704 202.22284 154.270263 C 201.169074 153.76349 200.079109 153.807732 198.928814 153.502059 Q 195.268784 152.528733 190.490636 151.800749 Q 188.330816 151.474966 186.581241 151.434746 C 184.570236 151.390504 182.442592 151.056677 180.242553 151.048633 C 178.267745 151.044611 176.180322 151.024501 174.217581 151.173315 C 170.851158 151.430724 167.987486 151.40257 164.665306 151.732375 Q 160.241094 152.170774 160.216962 152.170774 Q 158.543806 152.178818 156.066247 152.689613 Q 155.028568 152.90278 151.915532 153.140079 Q 151.432891 153.176277 148.9312 153.630764 C 147.632091 153.868062 146.280695 153.759468 145.058004 154.189823 C 144.679935 154.326572 144.394372 154.640288 144.301866 155.030423 L 141.86855 165.318727 C 141.792132 165.636465 142.081716 165.922028 142.399455 165.837566 L 154.043176 162.772794 C 154.204056 162.728552 154.368959 162.700398 154.533861 162.688332 C 155.804816 162.712464 157.15219 161.887952 158.274331 161.839687 Q 159.171239 161.799467 160.245116 161.389222 Q 161.214421 161.019197 162.445156 160.991043 C 162.529618 160.987021 162.61408 160.974955 162.698543 160.946801 L 164.488337 160.36361 C 164.645196 160.311323 164.802054 160.283169 164.966957 160.271103 Q 166.720553 160.154465 168.192609 159.599427 C 168.353489 159.539097 168.522414 159.506921 168.691338 159.494855 Q 170.123174 159.410393 171.104545 159.088632 Q 172.681173 158.565771 173.533839 158.561749 C 174.965675 158.549683 176.514149 157.886051 177.950007 157.813655 C 179.788065 157.721149 182.072567 157.009253 184.067485 156.965011 Q 185.165494 156.940879 188.242332 156.570854 C 191.118069 156.228983 193.957609 156.180719 196.732796 156.345621 Q 202.166532 156.66336 208.28401 157.765391 Q 209.973255 158.071063 211.232144 158.099218 C 211.417156 158.10324 211.517707 157.886051 211.397046 157.745281 Z M 278.186554 158.14346 C 278.110136 158.252054 278.214708 158.392824 278.33939 158.348582 Q 279.268475 158.018777 280.406704 157.882029 C 282.14019 157.672884 283.853567 157.190243 285.534767 157.037407 C 289.609064 156.675426 293.864351 156.04397 298.489663 156.353665 Q 302.861589 156.64325 306.151593 157.021319 C 307.511033 157.178177 308.641218 157.459718 309.912173 157.447652 C 310.077076 157.447652 310.237956 157.46374 310.398836 157.491894 Q 328.638654 160.781899 347.417422 165.942138 C 347.807557 166.050732 348.169538 165.692773 348.064965 165.298616 Q 346.697482 160.170553 345.647737 155.464801 C 345.422504 154.439188 345.040413 153.944481 344.022845 153.888172 Q 341.943465 153.775556 341.070689 153.62272 Q 339.735381 153.389443 338.544866 153.244651 Q 334.788308 152.794186 331.916593 152.351764 Q 330.927178 152.198928 330.400295 152.194906 C 329.016723 152.194906 327.781966 151.832925 326.607539 151.796727 Q 325.457244 151.764551 323.506569 151.52323 C 322.006359 151.338218 320.305048 151.54334 318.865169 151.293976 Q 317.200056 151.004391 315.40624 150.988303 Q 311.179106 150.948083 307.060568 151.036567 C 306.123439 151.056677 305.04554 151.378438 303.887201 151.378438 Q 301.10397 151.38246 298.409223 151.941519 C 296.953255 152.24317 295.505331 152.154686 294.037297 152.737877 C 293.425952 152.979198 292.569264 153.011374 291.978028 153.047572 C 291.744751 153.059638 291.515497 153.10388 291.290264 153.180299 Q 289.713636 153.711204 288.639759 153.900239 C 287.927863 154.024921 287.457288 154.439188 286.753436 154.555826 Q 286.222531 154.640288 285.329645 154.982159 Q 280.101031 156.985121 279.308695 157.355146 Q 278.480161 157.745281 278.186554 158.14346 Z M 255.538612 175.940856 Q 254.456692 176.761347 253.704576 177.790981 C 253.676421 177.831201 253.680443 177.883488 253.716642 177.919686 C 253.75284 177.951862 253.809148 177.94784 253.845346 177.915664 L 255.639163 176.210331 Q 259.130268 173.873543 262.701813 171.80623 Q 268.348716 168.536335 274.779911 166.722408 Q 279.055308 165.511783 281.412206 165.137736 Q 283.266353 164.840107 283.765082 164.683249 C 285.595097 164.096035 287.099329 164.277026 289.347633 164.035705 Q 290.570324 163.902979 292.56122 163.854715 Q 300.468492 163.657636 308.218907 165.30666 Q 312.880417 166.296075 316.681217 167.337776 Q 316.689261 167.337776 317.72694 167.563008 Q 319.022027 167.844549 320.095904 168.612753 C 320.220586 168.701237 320.192432 168.894294 320.04764 168.94658 Q 320.035574 168.950602 319.931001 168.96669 C 319.842517 168.978756 319.754033 168.970712 319.669571 168.942558 C 317.473553 168.319146 315.38613 168.383499 313.16598 167.840527 C 311.259547 167.369952 308.74579 167.289512 307.454725 167.016015 Q 305.697106 166.650012 303.975686 166.738496 Q 303.195415 166.782738 298.188012 166.396625 Q 294.717017 166.131173 289.037938 166.60577 Q 287.835357 166.70632 287.34065 166.754584 Q 272.081142 168.278926 258.896991 176.560246 Q 257.396781 177.505419 255.023795 179.62904 Q 254.404405 179.906559 254.126887 180.324848 C 254.078623 180.397244 254.142975 180.497794 254.231459 180.481706 Q 254.77443 180.381156 255.180653 179.834163 Q 256.178112 179.411852 258.720023 177.984038 Q 260.385135 177.046909 267.214509 174.10682 Q 269.346175 173.189801 277.715979 170.885189 C 278.560601 170.655935 279.610346 170.676045 280.41877 170.30602 Q 281.243282 169.927951 282.433797 169.903819 Q 283.712796 169.875664 285.643361 169.485529 Q 287.059109 169.203989 288.84086 169.111482 Q 297.158378 168.681127 298.68272 168.74548 Q 304.257226 168.982778 307.273734 169.143659 Q 309.538126 169.260297 313.801457 170.000347 Q 317.02711 170.559406 320.305048 171.110422 Q 325.746829 172.02744 335.886317 174.754363 Q 339.719293 175.783998 343.709128 176.950381 Q 345.800573 177.557705 346.255061 177.726629 Q 348.390748 178.502877 348.809037 178.619515 C 348.97394 178.663758 349.138842 178.691912 349.307767 178.695934 Q 350.478172 178.72811 351.531938 179.58882 Q 351.926095 179.914603 351.733039 180.224298 C 351.688797 180.292672 351.612379 180.324848 351.53596 180.30876 Q 344.53364 178.897034 340.193891 178.044368 Q 338.939023 177.799025 338.55291 177.658255 Q 337.370439 177.223878 336.915952 177.219856 C 335.435852 177.199746 333.863246 176.363168 332.178024 176.318925 C 331.944747 176.314903 331.71147 176.266639 331.494282 176.178155 C 329.977984 175.570831 328.381246 175.546699 326.94941 175.08819 C 325.654322 174.669901 324.580446 174.786539 323.341666 174.412492 Q 321.881677 173.974093 320.095904 173.885609 C 319.890781 173.873543 319.685659 173.841367 319.48858 173.785059 Q 317.606279 173.225999 316.098025 173.145559 C 313.544049 173.012833 311.368141 172.361267 308.854384 172.341157 Q 307.000237 172.325069 305.041518 172.063638 Q 302.668532 171.745899 298.739028 171.593063 C 294.628533 171.432183 290.437598 172.019396 285.945012 172.365289 C 284.577529 172.473883 283.354837 172.835864 282.095948 172.984679 Q 280.656068 173.153603 279.220211 173.523628 Q 272.463233 175.265159 271.051507 175.751822 Q 266.607185 177.292252 260.747116 180.011131 Q 259.898472 180.405288 259.017651 181.101096 C 258.965365 181.141316 258.949277 181.217734 258.981453 181.278064 C 259.013629 181.334373 259.082004 181.362527 259.146356 181.342417 C 265.565485 179.154443 272.471277 177.175614 279.501751 175.876504 Q 281.235238 175.554743 281.91898 175.526589 Q 283.025033 175.478325 284.332186 175.156564 Q 285.731846 174.810671 287.947973 174.726209 Q 293.631074 174.513043 294.632555 174.452712 C 297.130224 174.299876 300.018027 174.597505 302.411123 174.641747 Q 304.820308 174.685989 308.218907 175.104278 Q 312.574744 175.643228 317.960216 176.326969 Q 319.939045 176.580356 321.246199 176.833743 Q 322.573462 177.091151 324.52816 177.276164 Q 326.096744 177.424978 332.383146 178.611471 C 332.966338 178.720066 333.638013 178.72811 334.168919 178.820616 Q 339.550369 179.725568 343.636732 180.304738 Q 346.79401 180.755203 350.385665 181.434923 C 351.298662 181.611891 352.280032 181.664177 353.201073 181.752662 C 353.374019 181.76875 353.502724 181.603847 353.446415 181.442967 L 349.187106 169.54586 C 349.126776 169.380957 348.990028 169.256275 348.817081 169.212033 Q 332.99047 165.238286 318.048701 162.2258 Q 317.236254 162.060898 315.655604 161.823599 C 313.632533 161.517927 311.9272 161.200188 309.642698 161.015175 C 307.36624 160.830163 304.699647 160.263059 302.173825 160.234905 Q 292.327943 160.130333 290.131925 160.319367 C 288.535187 160.456116 286.250685 161.031263 284.352296 161.095615 C 283.073297 161.139858 281.9592 161.678807 280.394638 161.879907 C 279.17999 162.036766 278.375588 162.575715 277.249425 162.668222 C 277.084523 162.680288 276.91962 162.716486 276.762762 162.772794 Q 273.094688 164.120167 271.892107 164.610853 Q 264.849567 167.498656 258.961343 172.365289 C 257.758762 173.354704 256.700973 174.754363 255.538612 175.940856 Z M 136.832993 179.926669 L 136.161317 181.286108 C 136.048701 181.507319 136.249801 181.760706 136.495144 181.70842 Q 136.752552 181.652111 136.70831 181.519385 Q 140.122997 181.056854 143.404958 180.646609 Q 144.193272 180.546058 144.96952 180.461596 Q 145.464227 180.405288 148.400295 179.906559 Q 150.572181 179.540556 151.827048 179.395763 Q 153.661085 179.186619 155.028568 178.832682 C 155.225647 178.780396 155.426747 178.756264 155.627848 178.756264 Q 157.526237 178.756264 159.303966 178.12883 C 159.364296 178.10872 159.424626 178.096654 159.484956 178.08861 L 167.508867 177.018755 C 167.537021 177.014733 167.561153 177.010711 167.585285 177.002667 Q 169.608357 176.40741 171.571098 176.351101 C 174.141163 176.278705 176.03553 175.635184 178.484934 175.514523 Q 179.510547 175.466259 181.37676 175.184718 C 184.51795 174.714143 188.612357 174.677945 190.490636 174.545219 C 194.496558 174.255634 199.298839 174.392382 202.576777 174.818715 Q 205.790364 175.241027 207.165891 175.397885 Q 209.892814 175.715624 211.734895 176.101737 Q 220.848771 178.024258 229.922427 180.976414 C 229.998845 181.000546 230.079285 180.964348 230.10744 180.891951 L 230.111462 180.887929 C 230.14766 180.795423 230.10744 180.694873 230.022977 180.650631 Q 225.345379 178.241446 222.284629 177.12735 Q 220.000127 176.298815 219.650212 176.145979 C 217.430062 175.184718 214.610633 174.726209 212.80475 174.143018 Q 212.579518 174.070621 211.32465 173.837345 Q 210.709283 173.724729 209.699758 173.306439 C 209.627362 173.278285 209.550944 173.258175 209.474525 173.246109 L 203.706962 172.381377 C 203.670764 172.377355 203.630544 172.373333 203.594346 172.373333 Q 202.693416 172.389421 199.845832 172.039506 C 196.853456 171.669481 193.611716 171.480447 190.466503 171.753943 C 187.952747 171.971132 186.331877 171.862538 183.966934 172.192343 Q 183.150466 172.304959 181.316429 172.333113 C 180.91825 172.337135 180.520071 172.381377 180.129936 172.461817 Q 177.282353 173.036965 174.491078 173.141537 C 172.737481 173.205889 171.382063 173.825279 169.769237 173.917785 C 168.011619 174.018335 165.952349 174.633703 163.95341 174.786539 C 163.696001 174.806649 163.438593 174.86698 163.19325 174.959486 C 161.745326 175.506479 160.19283 175.466259 158.929919 175.952922 C 157.707227 176.419476 156.504646 176.270661 155.281955 176.733192 Q 154.895842 176.877985 153.504226 177.151482 Q 149.42993 177.955884 143.445178 179.259015 C 141.904748 179.592842 140.883157 179.60893 139.479476 180.075483 Q 138.582567 180.373112 137.770121 180.284628 C 137.532822 180.260496 137.464448 179.942757 137.673593 179.822097 L 139.362837 178.844748 C 139.443277 178.800506 139.531762 178.776374 139.624268 178.780396 C 140.497044 178.800506 141.422107 178.301777 142.407499 178.00817 Q 150.021165 175.763888 156.102445 174.034423 C 156.219084 174.002247 156.335722 173.982137 156.456382 173.970071 Q 157.835932 173.853433 158.777082 173.503518 C 160.056082 173.024899 161.403455 173.121427 162.750829 172.542257 C 162.778983 172.530191 162.807137 172.522147 162.835291 172.514103 L 167.130798 171.544799 C 167.15493 171.540777 167.179062 171.536755 167.203194 171.532733 Q 169.161914 171.428161 171.237271 170.885189 C 171.506746 170.812793 171.77622 170.768551 172.053739 170.748441 Q 173.819402 170.619736 175.878671 170.028501 C 176.07575 169.968171 176.280872 169.940017 176.490017 169.935995 C 179.41804 169.871642 182.812617 169.051152 185.535519 169.08735 C 187.502282 169.115504 192.417179 168.520247 195.626743 168.797766 Q 198.293336 169.02702 199.709084 169.039086 Q 202.492315 169.059196 205.794386 169.662498 Q 211.674565 170.732353 213.713725 171.299456 Q 219.380737 172.884128 223.374594 174.525109 Q 225.739536 175.494413 232.959045 178.84877 C 233.067639 178.901056 233.16819 178.96943 233.24863 179.057915 Q 233.598545 179.435984 234.503497 179.818075 C 234.591981 179.854273 234.684488 179.765788 234.648289 179.673282 Q 234.531651 179.383697 234.032922 179.037805 C 232.383898 177.88751 230.026999 176.013253 227.94762 174.862958 Q 220.708001 170.848991 212.491033 168.616775 C 211.24421 168.278926 210.101959 168.114024 208.826982 167.699757 C 208.790784 167.687691 208.754585 167.679647 208.718387 167.675625 L 203.304761 166.730452 C 203.244431 166.718386 203.180079 166.714364 203.111705 166.714364 C 199.367213 166.694254 196.125472 166.151283 192.710785 166.364449 Q 189.951686 166.537396 185.370616 166.710342 Q 183.588865 166.774694 181.782983 167.076345 C 178.891157 167.563008 177.813258 167.615295 175.070247 168.114024 Q 173.360893 168.423719 171.892859 168.315124 Q 171.237271 168.26686 170.171438 168.862118 Q 169.769237 169.08735 169.45552 169.035064 C 169.113649 168.978756 169.101583 168.488071 169.443454 168.415675 Q 170.384605 168.214574 170.891378 167.768131 C 171.084435 167.595184 171.329777 167.502678 171.587186 167.502678 Q 172.781723 167.498656 173.666565 167.092433 Q 174.539342 166.690232 175.420162 166.682188 C 176.731337 166.670122 177.958051 165.954204 179.31749 165.8255 Q 180.399411 165.72495 181.573838 165.24633 C 181.758851 165.169912 181.951907 165.12567 182.153008 165.10556 C 183.914648 164.948702 185.809015 164.361488 187.671206 164.273004 Q 189.633947 164.180498 192.807314 163.882869 Q 195.349224 163.649592 199.443631 163.931133 Q 212.201449 164.811953 223.422858 169.956105 Q 227.541397 171.84645 234.085208 176.145979 C 234.14956 176.190221 234.23 176.274683 234.310441 176.3873 Q 234.366749 176.46774 234.451211 176.491872 L 236.140455 178.076544 C 236.196764 178.12883 236.285248 178.116764 236.341556 178.052412 L 236.345578 178.04839 C 236.393842 177.98806 236.38982 177.899576 236.333512 177.843267 L 234.503497 176.117825 Q 226.523828 167.659537 215.551783 163.713944 C 214.876086 163.468602 214.12397 163.42436 213.536756 163.066401 Q 213.098357 162.800948 212.02448 162.619957 Q 211.232144 162.487231 210.126091 162.036766 C 209.615296 161.831643 208.826982 161.912084 208.489133 161.791423 Q 206.876307 161.216276 204.225802 161.023219 C 203.996547 161.007131 203.771314 160.974955 203.550104 160.926691 Q 200.477288 160.263059 197.336098 160.222839 Q 194.034027 160.178597 186.709946 160.287191 C 185.579761 160.303279 183.850296 160.588842 182.989586 160.765811 C 181.075109 161.155946 178.915289 161.035285 177.053098 161.493794 C 175.271348 161.928172 173.23621 161.887952 171.313689 162.475165 C 171.044214 162.559627 170.762674 162.607891 170.481133 162.623979 Q 168.743624 162.720508 167.146886 163.243369 C 166.986006 163.295655 166.821103 163.331853 166.648157 163.347941 Q 165.445576 163.452514 164.291259 163.76623 Q 162.159593 164.3454 161.684996 164.329312 Q 161.568358 164.321268 157.562435 165.270462 Q 154.847578 165.913984 153.447918 166.219657 Q 149.478194 167.080367 149.160455 167.221138 Q 148.874892 167.34582 147.426968 167.563008 Q 146.803557 167.655515 145.697504 168.04565 C 145.528579 168.10598 145.355633 168.1462 145.174643 168.170332 Q 143.111351 168.467961 141.011862 169.244209 C 140.810761 169.316605 140.653903 169.477485 140.581506 169.674564 L 136.832993 179.926669 Z M 227.094954 184.543937 Q 225.924549 183.948679 224.995464 183.759645 Q 223.109141 183.373532 222.417355 183.136233 Q 219.046911 181.8693 215.716686 181.358505 Q 212.306021 180.839665 208.818938 180.353002 Q 208.215636 180.26854 205.98342 180.216254 C 205.846672 180.212232 205.713946 180.196144 205.581219 180.16799 Q 203.554126 179.713502 201.659759 179.616974 Q 196.427123 179.351521 192.421201 179.222817 C 188.893897 179.106179 186.21926 179.275103 181.919731 179.395763 Q 177.620202 179.512402 174.048656 179.76981 Q 160.582965 180.735093 146.743227 182.882847 C 144.80864 183.180475 142.705128 183.224718 141.152632 183.518324 Q 137.975244 184.121626 134.721437 184.556003 C 134.242818 184.620355 133.800397 184.837544 133.462548 185.179415 L 132.6863 185.955663 C 132.461067 186.180895 132.654124 186.562986 132.96784 186.514722 Q 151.062866 183.695293 168.582744 182.315743 Q 177.941963 181.579715 186.275568 181.422857 Q 189.400671 181.362527 200.272165 181.559605 Q 201.293756 181.575693 201.832705 181.680265 C 203.063441 181.913542 204.330374 181.776794 205.7421 181.92963 Q 215.435145 182.991441 226.708841 184.913962 C 227.786739 185.098974 228.92899 185.577594 229.926449 185.64999 C 230.006889 185.658034 230.075263 185.601726 230.08733 185.521286 L 230.103418 185.412691 C 230.111462 185.364427 230.079285 185.320185 230.035043 185.308119 L 227.094954 184.543937 Z M 304.100368 179.653172 Q 295.533485 179.311301 286.982691 179.906559 Q 283.427234 180.155923 280.475078 180.698895 C 276.903532 181.354483 272.974028 181.648089 269.281822 182.524888 C 266.317601 183.22874 264.238221 183.671161 261.945675 184.865698 C 261.921543 184.877764 261.909477 184.905918 261.917521 184.934072 C 261.925565 184.958204 261.949697 184.974292 261.977851 184.97027 Q 265.489066 184.439365 268.984194 183.743557 Q 271.071617 183.32929 277.59934 182.303677 C 279.441421 182.018114 281.010005 182.187039 282.743492 181.94974 Q 284.456868 181.720486 286.6006 181.607869 Q 292.014226 181.330351 297.391654 181.060876 Q 303.472934 181.660155 309.558236 181.294152 L 324.813722 182.408249 Q 325.774983 182.593262 326.748309 182.66968 Q 327.255083 182.705878 328.682896 182.874803 Q 330.046358 183.035683 331.454062 182.834583 Q 342.188808 184.475563 345.346086 184.745038 Q 345.97352 184.797324 348.101163 184.841566 C 348.39477 184.845588 348.684355 184.897874 348.961874 184.994402 Q 350.840153 185.62988 352.818982 185.674122 L 356.977741 186.442326 C 357.130577 186.47048 357.255259 186.325688 357.206995 186.180895 Q 357.130577 185.955663 356.748486 185.774672 C 356.664024 185.734452 356.587606 185.678144 356.527276 185.605748 Q 355.457421 184.298594 353.482614 184.676663 Q 349.006116 183.912481 344.4532 183.22874 Q 336.843556 182.086489 329.177604 181.559605 C 329.491321 181.523407 329.796993 181.527429 330.114732 181.507319 Q 330.074512 181.507319 330.038314 181.499275 Q 328.735183 181.12925 327.327479 181.20969 C 324.970581 180.578235 322.424648 180.678785 319.999376 180.361046 Q 317.288541 180.003087 315.575164 179.926669 Q 313.12576 179.814053 310.732663 179.693392 Q 306.758917 179.166509 302.72484 179.480226 C 302.712774 179.480226 302.700708 179.492292 302.700708 179.504358 C 302.700708 179.516424 302.712774 179.52849 302.72484 179.52849 L 304.100368 179.653172 Z M 230.468938 181.118632 C 230.4292 181.193602 230.549861 181.338395 230.743118 181.437416 C 230.935974 181.535473 231.120986 181.555583 231.161689 181.477717 C 231.201426 181.402747 231.080766 181.257954 230.887509 181.158932 C 230.694653 181.060876 230.509641 181.040766 230.468938 181.118632 Z M 261.774096 185.069131 C 261.748597 184.978314 261.350418 185.01049 260.879802 185.137063 C 260.409267 185.263877 260.051308 185.440845 260.074073 185.531019 C 260.099572 185.621836 260.497751 185.58966 260.968367 185.463087 C 261.438902 185.336273 261.796861 185.159305 261.774096 185.069131 Z" style="fill:#b6511b;"/>
		<path fill-opacity="0.973" d="M 246.179394 132.623803 L 246.11102 171.512623 Q 245.837523 152.146642 246.002425 132.796749 Q 246.002425 132.627825 246.179394 132.623803 Z" style="fill:#f4e6d1;"/>
		<path fill-opacity="0.973" d="M 255.538612 175.940856 Q 255.590898 176.077605 255.639163 176.210331 L 253.845346 177.915664 C 253.809148 177.94784 253.75284 177.951862 253.716642 177.919686 C 253.680443 177.883488 253.676421 177.831201 253.704576 177.790981 Q 254.456692 176.761347 255.538612 175.940856 Z" style="fill:#f4e6d1;"/>
		<path fill-opacity="0.973" d="M 234.451211 176.491872 Q 234.402947 176.435564 234.374793 176.3873 C 234.338595 176.322947 234.354683 176.246529 234.406969 176.198265 Q 234.455233 176.158045 234.503497 176.117825 L 236.333512 177.843267 C 236.38982 177.899576 236.393842 177.98806 236.345578 178.04839 L 236.341556 178.052412 C 236.285248 178.116764 236.196764 178.12883 236.140455 178.076544 L 234.451211 176.491872 Z" style="fill:#f4e6d1;"/>
		<path fill-opacity="0.973" d="M 222.417355 183.136233 L 219.135395 182.633482 C 219.095175 182.625438 219.054955 182.661636 219.058977 182.701856 Q 219.062999 182.79034 219.147461 182.79034 Q 219.316385 182.794362 219.131373 182.846649 Q 218.869942 182.923067 218.431543 182.826538 C 218.375235 182.814472 218.371213 182.738054 218.423499 182.721966 Q 218.568291 182.677724 218.568291 182.673702 C 218.644709 182.597284 218.612533 182.464558 218.507961 182.432381 Q 216.476846 181.796904 214.610633 181.792882 C 214.46584 181.792882 214.321048 181.772772 214.1843 181.732552 Q 210.118047 180.602367 205.898958 180.336914 Q 205.327833 180.159945 204.559628 180.292672 Q 204.386682 180.22832 204.189604 180.22832 Q 203.992525 180.031241 203.654676 180.172012 L 202.850274 180.103637 L 202.279148 180.075483 L 202.045872 180.015153 L 201.173096 179.982977 L 193.917389 179.810031 C 193.836948 179.810031 193.76053 179.830141 193.692156 179.870361 L 193.398549 180.039285 C 193.342241 180.071461 193.277889 180.079505 193.217559 180.055373 Q 193.08081 180.007109 192.907864 180.047329 C 192.803292 180.071461 192.77916 180.204188 192.863622 180.264518 C 193.808794 180.924127 194.733857 180.590301 195.666963 180.863797 Q 196.133516 181.076964 196.6604 180.952282 L 214.634765 182.424337 Q 214.843909 182.621416 215.262199 182.641526 L 219.449112 183.220696 C 219.52553 183.232762 219.601948 183.252872 219.674344 183.281026 Q 220.844749 183.771711 222.031242 183.735513 C 222.847711 183.707359 223.374594 184.021076 224.211172 184.27044 C 224.239326 184.278484 224.271502 184.282506 224.299656 184.286528 L 227.094954 184.543937 L 230.035043 185.308119 C 230.079285 185.320185 230.111462 185.364427 230.103418 185.412691 L 230.08733 185.521286 C 230.075263 185.601726 230.006889 185.658034 229.926449 185.64999 C 228.92899 185.577594 227.786739 185.098974 226.708841 184.913962 Q 215.435145 182.991441 205.7421 181.92963 C 204.330374 181.776794 203.063441 181.913542 201.832705 181.680265 Q 201.293756 181.575693 200.272165 181.559605 Q 189.400671 181.362527 186.275568 181.422857 Q 177.941963 181.579715 168.582744 182.315743 Q 151.062866 183.695293 132.96784 186.514722 C 132.654124 186.562986 132.461067 186.180895 132.6863 185.955663 L 133.462548 185.179415 C 133.800397 184.837544 134.242818 184.620355 134.721437 184.556003 Q 137.975244 184.121626 141.152632 183.518324 C 142.705128 183.224718 144.80864 183.180475 146.743227 182.882847 Q 160.582965 180.735093 174.048656 179.76981 Q 177.620202 179.512402 181.919731 179.395763 C 186.21926 179.275103 188.893897 179.106179 192.421201 179.222817 Q 196.427123 179.351521 201.659759 179.616974 Q 203.554126 179.713502 205.581219 180.16799 C 205.713946 180.196144 205.846672 180.212232 205.98342 180.216254 Q 208.215636 180.26854 208.818938 180.353002 Q 212.306021 180.839665 215.716686 181.358505 Q 219.046911 181.8693 222.417355 183.136233 Z M 168.269027 181.402747 C 168.220763 181.410791 168.184565 181.455033 168.184565 181.503297 C 168.188587 181.555583 168.228807 181.595803 168.277071 181.599825 Q 173.079352 181.945718 177.423123 180.706939 C 177.483453 180.690851 177.479431 180.602367 177.419101 180.590301 Q 176.132058 180.340936 174.474989 180.276584 Q 173.405135 180.236364 171.57512 180.775313 Q 170.967796 180.956304 168.269027 181.402747 Z M 159.456199 182.323103 C 159.45278 182.215193 159.364296 182.130731 159.258798 182.134511 L 156.395891 182.199467 C 156.287458 182.203127 156.202996 182.291611 156.207259 182.396867 L 156.207621 182.412955 C 156.21104 182.520866 156.299524 182.605328 156.405021 182.601547 L 159.267928 182.536592 C 159.376362 182.532932 159.460824 182.444447 159.456561 182.339191 L 159.456199 182.323103 Z M 150.182046 183.216674 L 151.312231 183.192541 C 151.352451 183.192541 151.384627 183.160365 151.384627 183.120145 C 151.388649 183.083947 151.360495 183.047749 151.320275 183.043727 Q 150.363036 182.927089 149.124257 183.168409 C 149.047839 183.184497 149.043817 183.28907 149.116213 183.30918 Q 149.627008 183.462016 150.121716 183.22874 C 150.141826 183.220696 150.161936 183.216674 150.182046 183.216674 Z M 146.19024 183.893015 C 146.184167 183.751601 145.528579 183.675183 144.731015 183.715765 C 143.931841 183.755623 143.292342 183.904437 143.298334 184.044564 C 143.304408 184.185978 143.959995 184.262396 144.75756 184.221814 C 145.556734 184.181956 146.196233 184.033142 146.19024 183.893015 Z M 137.717835 184.88983 Q 138.321137 185.0306 138.679095 184.893852 C 138.74747 184.865698 138.78769 184.793302 138.76758 184.720905 C 138.751492 184.648509 138.679095 184.604267 138.606699 184.612311 L 137.725879 184.728949 C 137.637395 184.741016 137.629351 184.86972 137.717835 184.88983 Z M 139.197694 184.645332 C 139.197935 184.628399 139.145649 184.620355 139.08749 184.624458 C 139.02901 184.628399 138.980746 184.644487 138.980988 184.659731 C 138.980746 184.676663 139.033032 184.684707 139.091191 184.680605 C 139.149671 184.676663 139.197935 184.660575 139.197694 184.645332 Z" style="fill:#f4e6d1;"/>
		<path fill-opacity="0.973" d="M 310.732663 179.693392 Q 307.426571 180.023197 304.100368 179.653172 L 302.72484 179.52849 C 302.712774 179.52849 302.700708 179.516424 302.700708 179.504358 C 302.700708 179.492292 302.712774 179.480226 302.72484 179.480226 Q 306.758917 179.166509 310.732663 179.693392 Z" style="fill:#f4e6d1;"/>
		<path fill-opacity="0.973" d="M 255.023795 179.62904 Q 255.168587 179.76981 255.180653 179.834163 Q 254.77443 180.381156 254.231459 180.481706 C 254.142975 180.497794 254.078623 180.397244 254.126887 180.324848 Q 254.404405 179.906559 255.023795 179.62904 Z" style="fill:#f4e6d1;"/>
		<path fill-opacity="0.973" d="M 136.832993 179.926669 Q 136.60776 181.024678 136.70831 181.519385 Q 136.752552 181.652111 136.495144 181.70842 C 136.249801 181.760706 136.048701 181.507319 136.161317 181.286108 L 136.832993 179.926669 Z" style="fill:#f4e6d1;"/>
		<path d="M 202.045872 180.015153 L 201.173096 179.982977 L 202.045872 180.015153 Z" style="fill:#b6511b;"/>
		<path d="M 202.850274 180.103637 L 202.279148 180.075483 L 202.850274 180.103637 Z" style="fill:#b6511b;"/>
		<path d="M 204.189604 180.22832 Q 203.900019 180.284628 203.654676 180.172012 Q 203.992525 180.031241 204.189604 180.22832 Z" style="fill:#b6511b;"/>
		<path d="M 205.898958 180.336914 L 204.559628 180.292672 Q 205.327833 180.159945 205.898958 180.336914 Z" style="fill:#b6511b;"/>
		<path d="M 196.6604 180.952282 Q 196.133516 181.076964 195.666963 180.863797 Q 196.173736 180.646609 196.6604 180.952282 Z" style="fill:#b6511b;"/>
		<path fill-opacity="0.973" d="M 309.558236 181.294152 Q 303.472934 181.660155 297.391654 181.060876 Q 303.497066 180.783357 309.558236 181.294152 Z" style="fill:#f4e6d1;"/>
		<path fill-opacity="0.973" d="M 230.468938 181.118632 C 230.509641 181.040766 230.694653 181.060876 230.887509 181.158932 C 231.080766 181.257954 231.201426 181.402747 231.161689 181.477717 C 231.120986 181.555583 230.935974 181.535473 230.743118 181.437416 C 230.549861 181.338395 230.4292 181.193602 230.468938 181.118632 Z" style="fill:#f4e6d1;"/>
		<path fill-opacity="0.973" d="M 329.177604 181.559605 Q 328.188189 181.587759 327.327479 181.20969 Q 328.735183 181.12925 330.038314 181.499275 Q 330.074512 181.507319 330.114732 181.507319 C 329.796993 181.527429 329.491321 181.523407 329.177604 181.559605 Z" style="fill:#f4e6d1;"/>
		<path d="M 215.262199 182.641526 Q 214.843909 182.621416 214.634765 182.424337 Q 215.849412 182.251391 215.262199 182.641526 Z" style="fill:#b6511b;"/>
		<path fill-opacity="0.973" d="M 331.454062 182.834583 Q 330.046358 183.035683 328.682896 182.874803 Q 327.255083 182.705878 326.748309 182.66968 Q 325.774983 182.593262 324.813722 182.408249 Q 328.071551 182.315743 331.454062 182.834583 Z" style="fill:#f4e6d1;"/>
		<path fill-opacity="0.973" d="M 352.818982 185.674122 L 355.988326 185.931531 Q 356.108986 185.971751 356.358351 185.867178 Q 356.000392 185.159305 355.119572 184.982336 Q 354.331258 184.825478 353.482614 184.676663 Q 355.457421 184.298594 356.527276 185.605748 C 356.587606 185.678144 356.664024 185.734452 356.748486 185.774672 Q 357.130577 185.955663 357.206995 186.180895 C 357.255259 186.325688 357.130577 186.47048 356.977741 186.442326 L 352.818982 185.674122 Z" style="fill:#f4e6d1;"/>
		<path fill-opacity="0.973" d="M 261.774096 185.069131 C 261.796861 185.159305 261.438902 185.336273 260.968367 185.463087 C 260.497751 185.58966 260.099572 185.621836 260.074073 185.531019 C 260.051308 185.440845 260.409267 185.263877 260.879802 185.137063 C 261.350418 185.01049 261.748597 184.978314 261.774096 185.069131 Z" style="fill:#f4e6d1;"/>
		<path d="M 356.358351 185.867178 Q 356.108986 185.971751 355.988326 185.931531 Q 356.108986 185.947619 356.358351 185.867178 Z" style="fill:#b6511b;"/>
		<path d="M 173.292518 78.32666 Q 173.634389 77.940547 174.519232 77.675094 Q 178.094799 76.609262 182.43857 75.957696 C 183.617019 75.784749 184.626544 75.82497 185.700421 75.611803 Q 186.593307 75.430812 188.161891 75.398636 C 191.512226 75.318196 195.047574 75.18547 198.377798 75.623869 Q 199.089694 75.716375 201.185162 75.933564 Q 203.948283 76.227171 209.233205 77.642918 Q 217.502458 79.859046 224.862738 84.979066 Q 225.80791 85.638675 227.895334 87.372162 C 228.735934 88.071992 230.312562 89.475673 229.677084 90.392692 C 229.451852 90.718475 229.025519 90.815003 228.731912 90.605858 Q 228.104478 90.159415 227.332252 89.544048 Q 220.555164 84.122377 212.539297 81.419586 Q 210.142179 80.611162 207.918007 79.955574 Q 205.339899 79.199436 200.067043 78.38699 Q 196.065142 77.779667 189.887334 77.823909 Q 187.900461 77.844019 186.569175 78.008921 C 185.056899 78.197956 183.383743 78.157736 181.770917 78.443298 C 180.322993 78.692663 179.767955 78.873654 178.050557 79.058666 C 176.95657 79.171282 174.949587 80.084279 173.698741 79.790672 C 173.059242 79.637836 172.838031 78.833433 173.292518 78.32666 Z" style="fill:#b6511b;"/>
		<path d="M 316.154334 78.32666 C 316.608821 78.837455 316.38761 79.641858 315.74811 79.790672 C 314.493243 80.084279 312.48626 79.171282 311.392273 79.054644 C 309.670853 78.869632 309.115815 78.688641 307.667891 78.435254 C 306.051043 78.149692 304.377887 78.189912 302.865611 77.996855 Q 301.530303 77.831953 299.54343 77.811843 Q 293.357578 77.759557 289.351655 78.36688 Q 284.070755 79.175304 281.488624 79.931442 Q 279.264453 80.583008 276.863312 81.391432 Q 268.835379 84.090201 262.046225 89.515893 Q 261.273999 90.131261 260.646566 90.577704 C 260.352959 90.786849 259.926626 90.690321 259.697371 90.360516 C 259.061894 89.443497 260.642544 88.039816 261.483144 87.339986 Q 263.574589 85.606499 264.523784 84.946889 Q 271.896129 79.82687 280.173427 77.614764 Q 285.466393 76.199016 288.233536 75.909432 Q 290.333026 75.692243 291.044922 75.599737 C 294.379168 75.16536 297.918538 75.302108 301.272894 75.382548 Q 302.841479 75.418746 303.734365 75.599737 C 304.812264 75.812903 305.821788 75.772683 307.000237 75.949652 Q 311.348031 76.60524 314.92762 77.675094 Q 315.812463 77.940547 316.154334 78.32666 Z" style="fill:#b6511b;"/>
		<path d="M 228.261337 116.471408 C 227.983818 116.833389 227.444869 116.853499 227.139196 116.51565 Q 224.90698 114.030048 221.138356 111.540423 Q 216.923289 108.757192 213.323589 107.27307 Q 210.40361 106.074511 206.952725 104.916172 Q 205.24337 104.345046 202.178598 103.657283 Q 200.280209 103.230949 198.607053 103.062025 Q 197.42056 102.937343 195.333136 102.446657 C 195.123992 102.398393 194.914847 102.370239 194.701681 102.366217 C 191.25884 102.253601 188.250376 101.923796 184.799491 102.100765 Q 179.699581 102.362195 178.645814 102.438613 Q 176.920372 102.567318 171.132699 103.697503 C 170.710388 103.777943 170.316231 103.45216 170.316231 103.021805 L 170.316231 102.515032 C 170.316231 102.128919 170.561573 101.787048 170.923554 101.658343 C 171.446416 101.473331 172.126135 101.485397 172.701283 101.240054 Q 173.618301 100.849919 174.491078 100.745347 C 175.995309 100.560334 176.554369 100.359234 177.8575 100.101825 C 179.15661 99.844417 180.467785 99.969099 181.738741 99.727778 Q 182.760331 99.534722 184.248475 99.514612 Q 187.884373 99.462326 191.48005 99.526678 C 192.984282 99.554832 194.291436 99.824307 196.0209 99.985187 Q 203.248453 100.660885 211.328672 103.629129 Q 218.00521 106.082555 223.841147 110.506767 Q 226.28653 112.364935 228.285469 115.115991 C 228.579076 115.518192 228.571032 116.065185 228.269381 116.459342 L 228.261337 116.471408 Z" style="fill:#b6511b;"/>
		<path d="M 260.811468 116.218022 C 261.020613 114.359853 264.017011 111.805876 265.657991 110.522855 Q 271.011287 106.339964 276.754718 104.027308 Q 278.781811 103.210839 282.988834 101.859444 C 284.030535 101.525617 285.112456 101.441155 286.270795 101.075152 Q 286.926383 100.870029 287.58197 100.789589 Q 289.275237 100.576423 291.539629 100.041495 C 291.797038 99.981165 292.058468 99.953011 292.319899 99.957033 Q 294.073496 99.977143 295.199659 99.784086 Q 296.852705 99.498524 298.059308 99.486458 Q 304.832374 99.430149 306.839357 99.558854 Q 307.221448 99.582986 311.545109 100.146067 C 313.869832 100.447718 315.458526 100.898183 318.366439 101.577903 C 318.949631 101.714651 319.331722 102.277733 319.243238 102.868969 L 319.223128 102.989629 C 319.138665 103.548688 318.595694 103.910669 318.048701 103.777943 C 317.035154 103.5326 316.20662 103.194751 315.38613 103.166597 Q 314.408781 103.130399 312.450062 102.716132 C 310.636135 102.334041 309.743249 102.338063 308.021828 102.293821 Q 307.100788 102.273711 306.252144 102.161095 C 302.672554 101.690519 299.833015 102.09272 294.98247 102.354151 C 293.763801 102.418503 292.412405 102.65178 290.952415 102.893101 Q 285.587053 103.790009 284.609705 104.135902 Q 283.748994 104.441575 283.161781 104.602455 C 280.249845 105.394791 277.450526 106.528998 275.246464 107.538523 Q 269.330087 110.25338 263.964724 114.826406 Q 263.526325 115.196431 263.071838 115.751468 C 262.548977 116.382924 261.953719 117.118952 260.992459 116.571959 C 260.867776 116.499562 260.79538 116.362814 260.811468 116.218022 Z" style="fill:#b6511b;"/>
		<path d="M 168.269027 181.402747 Q 170.967796 180.956304 171.57512 180.775313 Q 173.405135 180.236364 174.474989 180.276584 Q 176.132058 180.340936 177.419101 180.590301 C 177.479431 180.602367 177.483453 180.690851 177.423123 180.706939 Q 173.079352 181.945718 168.277071 181.599825 C 168.228807 181.595803 168.188587 181.555583 168.184565 181.503297 C 168.184565 181.455033 168.220763 181.410791 168.269027 181.402747 Z" style="fill:#b6511b;"/>
	</g>
	<g id="surface4">
	</g>
</svg>
