<?xml version="1.0" encoding="utf-8"?>
<svg xmlns="http://www.w3.org/2000/svg" width="490pt" height="280pt" viewBox="0 0 490 280" version="1.1" xmlns:xlink="http://www.w3.org/1999/xlink">
	<g id="surface2" data-size="127.75919370918 148" data-bboxpos="181 49.931498172155" data-pivot="244.87959685459 123.93149817215" data-center="244.87959685459 123.93149817215">
		<path vector-effect="non-scaling-stroke" d="M 193.459258 100.328037 Q 192.195281 100.092147 190.950962 100.231715" style="fill:none;stroke-width:0.50;stroke:#8b7423;"/>
		<path vector-effect="non-scaling-stroke" d="M 192.460657 109.812776 L 190.567641 109.895337" style="fill:none;stroke-width:0.50;stroke:#80681a;"/>
		<path vector-effect="non-scaling-stroke" d="M 196.376429 127.81314 L 196.370532 128.06279" style="fill:none;stroke-width:0.50;stroke:#1f6e87;"/>
		<path vector-effect="non-scaling-stroke" d="M 196.370532 128.06279 Q 196.358738 129.896834 196.327286 131.783953 Q 196.303697 133.138355 196.457025 134.286352 Q 196.470785 134.380708 196.54745 134.478995" style="fill:none;stroke-width:0.50;stroke:#0c2033;"/>
		<path vector-effect="non-scaling-stroke" d="M 196.54745 134.478995 Q 196.506169 134.618564 196.537621 134.769926" style="fill:none;stroke-width:0.50;stroke:#68655f;"/>
		<path vector-effect="non-scaling-stroke" d="M 193.0838 141.45937 Q 193.750189 136.847723 193.703011 131.587378 Q 193.618483 122.094776 192.407582 112.531407 C 192.378096 112.297483 192.230665 112.096976 192.016398 111.998689 C 190.838914 111.454176 190.532257 112.423291 190.345511 113.414028 Q 189.747924 116.596576 189.227 119.311275 Q 188.470187 123.242774 186.710841 130.348957 Q 185.525494 135.143419 183.351376 140.140353" style="fill:none;stroke-width:0.50;stroke:#802e34;"/>
		<path vector-effect="non-scaling-stroke" d="M 190.215772 141.486891 Q 190.644305 137.093442 190.740627 135.21222 Q 190.895921 132.133857 191.434536 117.976532 Q 191.495474 116.380344 191.505303 114.790053 C 191.505303 114.756635 191.481714 114.729114 191.450262 114.725183 L 191.39129 114.715354 C 191.32642 114.70356 191.265482 114.748772 191.257619 114.815607 Q 190.640374 120.995922 189.972019 127.188032 Q 189.114952 135.137521 187.752688 141.276556" style="fill:none;stroke-width:0.50;stroke:#802e34;"/>
		<path vector-effect="non-scaling-stroke" d="M 219.900549 125.554495 Q 219.753118 126.203192 219.837645 126.853855 Q 220.018494 128.233811 220.046014 129.625561 Q 220.091226 131.894035 220.089261 134.158578 Q 220.089261 135.41076 219.493639 136.234409" style="fill:none;stroke-width:0.50;stroke:#123e55;"/>
		<path vector-effect="non-scaling-stroke" d="M 219.493639 136.234409 L 202.189149 125.756967 C 202.100691 125.703891 201.986677 125.721583 201.917876 125.798247 C 199.77521 128.2574 199.352574 132.157446 200.072038 135.259398 C 200.351174 136.464402 201.164994 138.382973 202.212738 139.027739 C 209.637373 143.586311 215.353771 147.128591 223.5765 152.432182 Q 231.03062 157.238438 231.551544 157.578513 Q 234.134538 159.255297 237.446825 161.447107 Q 242.931265 165.07588 245.899546 167.102567 C 247.279502 168.046127 248.545444 168.993618 250.047277 169.752397" style="fill:none;stroke-width:0.50;stroke:#2a7a90;"/>
		<path vector-effect="non-scaling-stroke" d="M 250.047277 169.752397 L 251.252281 170.450238 C 251.299459 170.477758 251.3545 170.491519 251.411507 170.485621 Q 252.716764 170.346053 253.876556 169.738637 Q 254.743451 169.284549 257.361829 167.798442 C 258.596319 167.098636 259.777735 166.276953 260.882486 165.699022 Q 262.278168 164.967764 262.525852 164.804607 C 263.70137 164.030101 264.418868 163.715582 265.777201 162.89783 C 267.398944 161.922818 268.694373 161.27019 270.736786 160.137918 C 270.94319 160.023905 271.086689 159.821433 271.126004 159.589474 L 271.354031 158.235073 C 271.379586 158.085676 271.226257 157.971663 271.090621 158.038498 C 269.557336 158.797277 267.744916 159.878439 266.39248 160.590041 Q 261.311019 163.261494 260.373357 163.815835 Q 258.159923 165.125024 257.383452 165.443475 C 256.870392 165.655776 256.426133 166.025337 255.858031 166.288747 Q 255.429498 166.485322 254.698239 166.884369 Q 253.247516 167.6746 250.731357 169.058488 Q 250.442392 169.217713 249.968647 169.219679" style="fill:none;stroke-width:0.50;stroke:#195671;"/>
		<path vector-effect="non-scaling-stroke" d="M 249.968647 169.219679 C 248.75578 168.913022 247.808289 166.909924 247.401378 165.710817 Q 246.60525 163.359781 246.46175 160.914389 C 246.284833 157.889101 246.558072 155.196025 247.715898 152.489189" style="fill:none;stroke-width:0.50;stroke:#2a7a90;"/>
		<path vector-effect="non-scaling-stroke" d="M 247.715898 152.489189 Q 247.824015 151.976128 248.356733 151.400164 Q 249.044745 150.655145 249.585326 150.36618 Q 251.157925 149.524839 252.795394 148.826998 Q 253.699639 148.439745 255.376422 147.492254 Q 257.179014 146.472031 259.03075 145.587443" style="fill:none;stroke-width:0.50;stroke:#164960;"/>
		<path vector-effect="non-scaling-stroke" d="M 305.683873 140.045997 Q 305.184573 140.462736 304.986032 140.559057 Q 301.455547 142.255499 297.956513 144.028604 Q 293.541441 146.263661 292.051403 147.051927 Q 291.054768 147.580713 291.039042 147.58661 C 290.164284 147.938479 289.057567 148.367013 288.180843 148.919388 Q 287.292325 149.479627 286.810716 149.689962 C 285.951684 150.06542 285.477938 150.368145 284.778132 150.674802 Q 283.148526 151.386403 283.077759 151.413924 C 282.89691 151.484691 282.780931 151.66554 282.794691 151.860149 L 283.032546 155.268758 C 283.040409 155.372942 283.150491 155.433881 283.242882 155.386703 L 287.577358 153.13592 C 287.640262 153.102502 287.699235 153.061222 287.750344 153.010112 C 287.966577 152.799777 288.25161 152.762428 288.542541 152.597305 Q 290.879817 151.270424 294.233385 149.601503 C 294.288426 149.573983 294.339535 149.540565 294.386713 149.50125 Q 294.742514 149.192627 295.108143 149.009813 Q 297.940787 147.602336 299.474072 146.737407 Q 301.485033 145.601204 303.100879 144.746103 C 303.761371 144.3962 304.31178 144.183899 304.976203 143.745537 C 305.475504 143.415291 306.47607 143.037867 307.171945 142.479594" style="fill:none;stroke-width:0.50;stroke:#195671;"/>
		<path vector-effect="non-scaling-stroke" d="M 273.539944 161.167971 L 272.215029 161.920853" style="fill:none;stroke-width:0.50;stroke:#8a959d;"/>
		<path vector-effect="non-scaling-stroke" d="M 272.215029 161.920853 Q 270.919601 162.612796 269.57896 163.479692 Q 269.044276 163.825664 268.655058 164.014375 C 267.858929 164.403594 266.980239 164.893065 266.315816 165.29801 Q 263.624706 166.935479 260.913938 168.543461" style="fill:none;stroke-width:0.50;stroke:#164960;"/>
		<path vector-effect="non-scaling-stroke" d="M 260.913938 168.543461 Q 258.773237 169.76026 256.707235 171.108764 Q 256.373057 171.326962 256.188277 171.560886 C 256.070332 171.708317 256.139133 171.926515 256.318016 171.981556 Q 258.256245 172.563418 260.304555 172.170268 C 262.083558 171.830194 263.730856 171.299442 265.590455 170.674333 C 267.564067 170.011876 270.099883 169.424117 271.988968 168.763625 C 274.328209 167.945874 275.16955 167.751264 277.432127 166.949239 Q 278.025783 166.736938 280.927229 165.897563 C 283.791326 165.066051 286.596449 163.760794 289.151923 163.074747 C 290.376585 162.744502 291.092118 162.428016 292.218492 162.08401 Q 292.957614 161.857949 294.498761 161.291813 C 296.723989 160.474061 298.410601 160.002282 300.329173 159.294612 Q 301.453581 158.879839 302.660551 158.864113" style="fill:none;stroke-width:0.50;stroke:#123e55;"/>
		<path vector-effect="non-scaling-stroke" d="M 305.16295 174.590106 Q 304.537841 174.704119 304.368787 174.704119 C 302.29099 174.70805 300.278063 175.246666 298.133431 175.968096 Q 297.25081 176.264924 292.025848 177.725475 C 290.907337 178.039995 289.806518 178.558953 288.760739 178.891165 Q 285.48187 179.92908 284.573694 180.200353 Q 281.945487 180.986653 280.801421 181.377837 Q 278.300988 182.232938 277.048806 182.633951 C 275.967644 182.981888 275.008359 183.137183 273.844635 183.555887 C 273.168417 183.797674 272.460748 183.949037 271.810085 184.169201 Q 269.461015 184.967295 268.851632 185.173699 Q 268.273702 185.370273 267.904141 185.452835 C 266.995965 185.655307 266.416069 185.946238 265.521654 186.119224 Q 265.128504 186.195888 263.78 186.62049 Q 259.21553 188.061384 252.785565 189.842353 C 252.199772 190.00551 251.606116 190.270886 250.97511 190.432077 Q 249.390717 190.837022 247.89085 191.578109" style="fill:none;stroke-width:0.50;stroke:#164960;"/>
		<path vector-effect="non-scaling-stroke" d="M 247.89085 191.578109 Q 245.317684 187.145345 245.681348 182.081575 Q 245.929032 178.633651 248.130671 175.995616 C 248.287931 175.804938 248.248616 175.519905 248.044178 175.380337 Q 227.187581 161.150279 206.17962 147.116796 C 205.43067 146.61553 204.622747 146.289216 203.871831 146.784585 C 202.92434 147.409693 202.46632 148.62256 202.285471 149.76466 C 201.617116 153.985124 202.647169 158.018841 204.870431 161.771456 Q 205.621347 163.037398 206.673023 163.861047 Q 210.683151 167.000348 213.531522 169.121392 C 217.026624 171.722078 219.58996 173.925682 222.823618 176.310136 Q 222.965152 176.416286 227.492272 179.86421 Q 228.35327 180.518805 229.149398 181.14981 Q 232.182549 183.551956 238.832678 188.428979 Q 240.52912 189.673298 241.022523 190.060551 C 243.180915 191.756992 245.242986 193.188058 247.651029 194.996547 C 248.109048 195.342519 248.394082 195.605929 248.885519 195.379868 Q 249.803524 194.959198 250.194708 194.805869" style="fill:none;stroke-width:0.50;stroke:#27716c;"/>
		<path vector-effect="non-scaling-stroke" d="M 250.194708 194.805869 Q 251.297493 194.357678 252.526086 193.838721 Q 253.723228 193.331557 254.871225 192.910887 Q 259.471078 191.220343 262.44329 190.263023 Q 279.551205 184.751063 296.238449 179.333458 C 300.224988 178.039995 303.266002 177.161305 307.266301 176.32193" style="fill:none;stroke-width:0.50;stroke:#164960;"/>
		<path vector-effect="non-scaling-stroke" d="M 196.734196 134.830864 Q 196.71847 134.42592 196.54745 134.478995" style="fill:none;stroke-width:0.50;stroke:#727168;"/>
		<path vector-effect="non-scaling-stroke" d="M 196.370532 128.06279 Q 196.594628 128.047064 196.519929 127.547764" style="fill:none;stroke-width:0.50;stroke:#2a7a90;"/>
		<path vector-effect="non-scaling-stroke" d="M 247.89085 191.578109 L 250.194708 194.805869" style="fill:none;stroke-width:0.50;stroke:#278d90;"/>
		<path vector-effect="non-scaling-stroke" d="M 244.411474 150.586343 Q 245.5693 151.158376 246.668154 151.852286 Q 246.856866 151.970231 247.23429 152.109799 Q 247.633337 152.255264 247.715898 152.489189" style="fill:none;stroke-width:0.50;stroke:#2996b3;"/>
		<path vector-effect="non-scaling-stroke" d="M 249.968647 169.219679 Q 250.283167 169.272754 250.501365 169.471295 C 250.603584 169.565651 250.54068 169.736671 250.401112 169.740603 L 250.047277 169.752397" style="fill:none;stroke-width:0.50;stroke:#2da3c4;"/>
		<path vector-effect="non-scaling-stroke" d="M 307.134596 141.992088 Q 307.101178 142.251567 307.160151 142.410793" style="fill:none;stroke-width:0.50;stroke:#0f4a68;"/>
		<path vector-effect="non-scaling-stroke" d="M 308.742579 120.060226 Q 306.409235 120.62243 303.684706 121.911961 Q 301.811347 122.796549 300.224988 123.559259 C 297.962411 124.648284 296.181442 125.656714 294.125268 126.647451 Q 293.177777 127.103505 291.447918 128.023475 Q 289.206964 129.212754 283.726456 132.035569 C 281.894378 132.981095 280.01119 134.07012 278.216461 134.958638 Q 276.919067 135.601438 274.10608 137.197626 C 272.193406 138.28272 270.239451 139.24004 268.275668 140.429318 C 266.341371 141.600904 264.283232 142.668306 261.95775 143.979461 Q 260.524719 144.789349 259.03075 145.587443" style="fill:none;stroke-width:0.50;stroke:#195671;"/>
		<path vector-effect="non-scaling-stroke" d="M 259.03075 145.587443 Q 258.806655 143.900831 258.865627 142.271225 Q 258.889216 141.632356 258.612045 140.091209" style="fill:none;stroke-width:0.50;stroke:#197294;"/>
		<path vector-effect="non-scaling-stroke" d="M 244.273872 138.888171 Q 244.094988 139.485758 244.20507 139.755066 Q 244.767275 141.13109 244.749583 142.214218 Q 244.686679 146.179134 244.722062 147.655412 Q 244.759412 149.249634 244.411474 150.586343" style="fill:none;stroke-width:0.50;stroke:#125b78;"/>
		<path vector-effect="non-scaling-stroke" d="M 244.411474 150.586343 Q 231.838543 143.588277 219.493639 136.234409" style="fill:none;stroke-width:0.50;stroke:#268ca8;"/>
		<path vector-effect="non-scaling-stroke" d="M 307.574924 155.325764 Q 304.156486 156.176934 300.795055 157.26989 Q 294.781829 159.223845 283.39621 163.062953 C 278.137831 164.838024 272.999363 166.534466 267.450053 167.871175 Q 264.080759 168.681064 260.913938 168.543461" style="fill:none;stroke-width:0.50;stroke:#125b78;"/>
		<path vector-effect="non-scaling-stroke" d="M 272.215029 161.920853 Q 272.962014 161.907092 273.744382 161.3901" style="fill:none;stroke-width:0.50;stroke:#8ab2c1;"/>
		<path vector-effect="non-scaling-stroke" d="M 303.920596 151.74417 Q 303.775131 151.824765 303.580522 151.791348" style="fill:none;stroke-width:0.50;stroke:#164960;"/>
		<path vector-effect="non-scaling-stroke" d="M 234.997502 69.619104 Q 236.780436 69.682008 238.724562 69.088352 Q 240.47801 68.553668 241.629939 67.454815 C 241.681049 67.403705 241.720364 67.342767 241.745918 67.275931 C 242.135137 66.196735 241.293796 65.772133 240.395449 65.544106 C 240.332545 65.52838 240.267675 65.522483 240.202805 65.52838 Q 237.841941 65.732818 235.713034 67.016453 C 235.046645 67.419431 234.183682 68.079923 234.207271 68.915366" style="fill:none;stroke-width:0.50;stroke:#8b3a3d;"/>
		<path vector-effect="non-scaling-stroke" d="M 234.207271 68.915366 Q 234.126675 69.019551 233.821984 69.068695 C 233.774806 69.076558 233.729594 69.090318 233.686347 69.111941 L 191.167194 89.740512" style="fill:none;stroke-width:0.50;stroke:#727168;"/>
		<path vector-effect="non-scaling-stroke" d="M 191.167194 89.740512 Q 189.881594 90.306648 188.428906 90.91603 C 188.291303 90.975002 188.261817 91.157817 188.373865 91.25807 Q 188.462324 91.3367 188.731631 91.320974 C 197.996207 90.766633 204.072337 90.334168 212.471983 89.81521 Q 213.877494 89.728717 216.798597 89.504622 Q 218.964852 89.337533 234.38812 88.20133 Q 236.721464 88.03031 239.994436 87.788523 Q 242.848704 87.578188 245.734423 86.805649" style="fill:none;stroke-width:0.50;stroke:#8b3a3d;"/>
		<path vector-effect="non-scaling-stroke" d="M 245.734423 86.805649 Q 246.52662 86.662149 247.556673 86.23165 C 249.001498 85.626199 250.464016 84.938187 251.816451 84.073257 Q 252.408141 83.695834 256.089989 81.240613 Q 277.009491 67.283794 297.596781 52.611443 C 297.854294 52.428629 298.09215 52.308718 298.245479 52.019753 C 298.278896 51.956849 298.229753 51.88215 298.158986 51.888048 Q 292.167382 52.391279 287.019086 52.892545 Q 263.483172 55.184609 257.96728 55.748779 Q 249.036882 56.664818 241.840274 57.344967 C 241.364563 57.390179 241.085427 57.354796 240.953721 57.808884 Q 239.933498 61.317746 239.782135 65.143094 C 239.776238 65.268902 239.894183 65.367189 240.018025 65.337703 Q 241.629939 64.958313 243.131771 65.12147 C 244.380022 65.257107 245.972279 66.039475 244.657193 67.460712 Q 243.947557 68.22932 243.326381 68.575292 Q 240.377757 70.220624 236.947525 70.151822 Q 235.929267 70.132165 234.997502 69.619104" style="fill:none;stroke-width:0.50;stroke:#727168;"/>
		<path vector-effect="non-scaling-stroke" d="M 245.734423 86.805649 Q 243.19271 86.453779 240.709969 86.636594 Q 239.127541 86.752573 238.486706 86.770265 Q 237.427168 86.797786 236.261478 86.909833 C 235.754315 86.958977 235.107584 86.896073 234.673153 86.964874 Q 232.721164 87.279394 230.655162 87.287257 C 230.035951 87.289223 229.33811 87.432723 228.683516 87.472038 Q 224.867997 87.70203 221.221532 87.979201 Q 220.930601 88.000824 218.001635 88.18757 Q 213.122646 88.498159 198.971218 89.494793 Q 196.057978 89.701197 191.998706 89.758204 Q 191.90435 89.760169 191.574104 89.81521 Q 191.296934 89.862388 191.167194 89.740512" style="fill:none;stroke-width:0.50;stroke:#e77f69;"/>
		<path vector-effect="non-scaling-stroke" d="M 234.207271 68.915366 Q 234.280003 69.377317 234.997502 69.619104" style="fill:none;stroke-width:0.50;stroke:#e77f69;"/>
		<path vector-effect="non-scaling-stroke" d="M 301.015219 126.19926 Q 300.863856 126.183534 300.714459 126.266096 Q 290.663584 131.746604 279.606246 137.39027 Q 279.360527 137.516078 279.189507 137.620262 C 279.097117 137.677269 279.075493 137.801111 279.140363 137.885639 C 280.176313 139.24004 281.178845 140.991522 281.62507 142.62506 Q 281.933693 143.7534 282.214795 145.261129 C 282.228555 145.337793 282.317014 145.373177 282.379918 145.32993 Q 283.042375 144.871911 283.406039 144.677302 Q 286.680977 142.908127 289.686607 141.256898 C 293.114873 139.375676 296.961844 137.415825 300.071659 135.910061 C 300.173878 135.860917 300.226954 135.748869 300.201399 135.638787 Q 299.073059 130.641853 301.04274 126.248404 C 301.052568 126.226781 301.038808 126.201226 301.015219 126.19926" style="fill:none;stroke-width:0.50;stroke:#8a959d;"/>
		<path vector-effect="non-scaling-stroke" d="M 302.479702 140.397866 C 302.560298 140.358551 302.583887 140.256332 302.528846 140.187531 Q 301.280595 138.636555 300.576857 136.942079 C 300.527713 136.824134 300.388145 136.77499 300.276097 136.833963 Q 292.682409 140.787084 285.021884 144.374576 C 284.211996 144.753966 283.341169 145.265061 282.385815 145.650347 C 282.317014 145.677868 282.275733 145.748635 282.285562 145.821368 L 282.747513 149.68603 C 282.759307 149.780386 282.85956 149.833462 282.944088 149.792181 L 302.479702 140.397866" style="fill:none;stroke-width:0.50;stroke:#8a959d;"/>
		<path vector-effect="non-scaling-stroke" d="M 273.526184 157.39963 L 273.164486 159.622892 C 273.144828 159.746734 273.256876 159.848953 273.378753 159.817501 Q 273.909505 159.681864 274.332141 159.48529 Q 277.974674 157.780985 280.51049 156.473762 C 280.897743 156.273256 281.271235 156.060955 281.322345 155.581312 Q 281.408838 154.781252 281.404906 154.635787 Q 281.383283 153.88487 281.371488 153.415056" style="fill:none;stroke-width:0.50;stroke:#665528;"/>
		<path vector-effect="non-scaling-stroke" d="M 281.371488 153.415056 Q 281.385249 148.565553 280.720825 144.050228 Q 280.457415 142.263362 280.064265 140.954173 Q 279.574794 139.328498 278.755076 137.946577 C 278.676446 137.812906 278.505426 137.765728 278.367824 137.838461 L 269.987835 142.239773 C 269.889548 142.290882 269.871856 142.422587 269.950486 142.499252 Q 271.666585 144.138686 272.507926 146.306908 Q 273.807286 149.656544 273.760108 153.114297 Q 273.72669 155.687462 273.526184 157.39963" style="fill:none;stroke-width:0.50;stroke:#8b7423;"/>
		<path vector-effect="non-scaling-stroke" d="M 281.371488 153.415056 Q 278.019886 154.877574 275.267837 156.296845 Q 274.516921 156.686063 273.526184 157.39963" style="fill:none;stroke-width:0.50;stroke:#da9d0e;"/>
		<path vector-effect="non-scaling-stroke" d="M 271.686243 153.336426 L 271.615476 152.960968" style="fill:none;stroke-width:0.50;stroke:#123e55;"/>
		<path vector-effect="non-scaling-stroke" d="M 271.615476 152.960968 Q 271.652825 150.17157 270.650293 147.266193 Q 270.001596 145.390869 268.814283 143.792715 C 268.717962 143.662975 268.539078 143.621694 268.397544 143.700324 Q 262.122873 147.118762 255.128738 150.80061 Q 253.369393 151.728444 251.319116 152.691661 Q 250.707768 152.980626 250.446324 153.346255 Q 249.245251 155.042697 248.983806 157.195192 Q 248.628006 160.108432 249.068334 162.549892 C 249.31995 163.943608 250.021722 165.724577 251.185445 166.561986 C 251.238521 166.599335 251.30339 166.615061 251.36826 166.605233 Q 251.694574 166.558055 252.030718 166.381137 Q 257.961383 163.245768 262.177914 160.996951 C 262.793194 160.66867 263.439925 160.383637 264.009992 160.065186 Q 267.218095 158.264559 271.393346 156.110098 C 271.515222 156.047194 271.595818 155.923352 271.59975 155.78575 L 271.686243 153.336426" style="fill:none;stroke-width:0.50;stroke:#8a959d;"/>
		<path vector-effect="non-scaling-stroke" d="M 271.615476 152.960968 Q 267.448088 154.879539 263.605048 157.157843 C 263.463514 157.24237 263.542144 157.460568 263.705301 157.433047 Q 263.988369 157.381938 264.322547 157.234507 C 266.661788 156.202489 269.244782 154.680999 271.686243 153.336426" style="fill:none;stroke-width:0.50;stroke:#86a7b6;"/>
		<path vector-effect="non-scaling-stroke" d="M 299.265702 160.344322 Q 299.108442 160.358082 298.915799 160.424918 Q 276.358828 168.116894 254.426966 175.358713 Q 253.239653 175.751863 251.53928 176.355348 Q 248.095288 177.578044 247.438728 181.191091 C 246.974811 183.746565 247.635303 186.695188 249.807455 188.314966 C 250.420769 188.772985 250.902378 188.721876 251.602184 188.509575 Q 275.346467 181.267755 300.337036 173.308437 C 300.468741 173.267156 300.502159 173.096136 300.396008 173.009643 C 298.949217 171.810536 298.066595 170.084609 297.775665 168.193558 Q 297.148591 164.100868 299.340401 160.464233 C 299.373819 160.409192 299.330572 160.338425 299.265702 160.344322" style="fill:none;stroke-width:0.50;stroke:#8a959d;"/>
		<path vector-effect="non-scaling-stroke" d="M 281.923864 141.475096 Q 282.014288 141.652014 282.511623 141.437747 Q 290.752043 137.885639 298.430259 133.757565 C 298.59145 133.673038 298.672046 133.488258 298.626834 133.309375 Q 298.622902 133.295614 298.540341 133.130492 Q 298.457779 132.965369 298.447951 132.953574 C 298.333937 132.81204 298.137362 132.768794 297.972239 132.845458 Q 290.075825 136.5391 282.305219 141.026906 Q 281.835405 141.296213 281.923864 141.475096" style="fill:none;stroke-width:0.50;stroke:#8a959d;"/>
		<path vector-effect="non-scaling-stroke" d="M 270.023219 148.168472 L 270.017322 148.164541 C 269.922966 148.099671 269.801089 148.089842 269.696905 148.138986 Q 268.389681 148.758197 264.09452 150.965733 Q 259.113312 153.525138 258.002663 154.167938 Q 254.185179 156.381372 252.651894 157.26989 Q 252.543778 157.332794 252.543778 157.431082 C 252.541812 157.507746 252.612579 157.568684 252.693175 157.562787 Q 253.711433 157.47826 254.782766 157.083144 Q 256.730824 156.36368 257.95352 155.687462 C 259.146729 155.026971 261.226492 153.865213 263.003529 152.725078 Q 265.602249 151.058123 270.017322 148.365047 C 270.090054 148.319835 270.09202 148.217616 270.023219 148.168472" style="fill:none;stroke-width:0.50;stroke:#8a959d;"/>
		<path vector-effect="non-scaling-stroke" d="M 252.492669 161.128656 L 252.73249 161.582744 C 252.763942 161.643682 252.83864 161.667271 252.899579 161.633853 Q 256.636468 159.548193 256.850734 159.436146 C 258.051807 158.809072 259.046476 158.109265 260.292761 157.383904 Q 260.933595 157.008446 262.840372 155.797544 C 265.336873 154.211185 268.647195 152.284751 270.459615 151.191794 Q 270.766272 151.007014 271.059169 150.745569 C 271.135833 150.676768 271.102415 150.548994 271.000196 150.529337 Q 270.882251 150.505748 270.795758 150.548994 Q 269.598617 151.144616 266.252912 153.067119 Q 262.681146 155.121327 261.739552 155.644216 Q 257.639 157.916622 252.531984 160.991053 C 252.484806 161.02054 252.467114 161.079512 252.492669 161.128656" style="fill:none;stroke-width:0.50;stroke:#86a7b6;"/>
		<path vector-effect="non-scaling-stroke" d="M 257.403012 152.67218 C 257.326446 152.530469 257.149528 152.477394 257.006264 152.553154 L 250.394625 156.113165 C 250.251715 156.190694 250.198639 156.367611 250.275598 156.509912 L 250.279333 156.516831 C 250.355899 156.658542 250.532817 156.711618 250.676081 156.635858 L 257.28772 153.075847 C 257.43063 152.998318 257.483706 152.8214 257.406746 152.6791 L 257.403012 152.67218" style="fill:none;stroke-width:0.50;stroke:#86a7b6;"/>
		<path vector-effect="non-scaling-stroke" d="M 285.845533 172.614528 L 285.839636 172.588973 C 285.821944 172.512309 285.743314 172.463165 285.66665 172.480857 Q 281.51892 173.412622 280.231354 173.746799 Q 268.566599 176.758327 259.134935 179.433711 Q 257.066967 180.019504 254.940026 180.83529 C 254.540979 180.988619 253.843138 181.222543 253.760577 181.619624 Q 253.691776 181.943973 253.864761 182.156274 C 253.913905 182.215246 253.988604 182.25063 254.067234 182.25063 C 256.357331 182.254561 258.344704 181.72774 260.626938 181.061351 Q 261.774936 180.727174 265.462681 179.565416 Q 267.497231 178.922616 270.239451 177.890598 C 275.476207 175.920918 279.977772 174.564551 285.741349 172.797342 C 285.819979 172.773753 285.865191 172.693158 285.845533 172.614528" style="fill:none;stroke-width:0.50;stroke:#8a959d;"/>
		<path d="M 193.459258 100.328037 Q 192.195281 100.092147 190.950962 100.231715 Q 191.125914 98.952012 191.263516 97.674275 C 191.318557 97.163181 191.458125 96.654051 191.444365 96.146888 C 191.43257 95.655451 191.587865 95.301616 191.662563 94.827871 C 191.697947 94.595912 191.499406 94.397372 191.269413 94.434721 Q 190.907715 94.491727 190.612853 94.495659 Q 188.474118 94.529077 183.47915 94.521214 Q 182.806863 94.519248 182.340981 94.306947 C 181.48588 93.917729 181.202812 93.1216 181.698181 92.297952 C 181.733564 92.238979 181.780742 92.18787 181.839715 92.15052 Q 191.778542 85.543638 192.439034 85.105276 Q 203.185784 77.989264 226.847506 62.082422 Q 227.879524 61.388513 229.709637 60.220858 Q 233.391485 57.871788 237.686646 56.922331 C 238.311755 56.784729 238.868062 56.800455 239.453855 56.700201 Q 240.747318 56.480037 242.164623 56.401407 Q 242.978443 56.356195 243.807989 56.236285 Q 245.04248 56.055436 245.451355 56.031847 Q 246.719264 55.957148 247.87709 55.760573 Q 248.706636 55.621005 249.500798 55.611176 C 250.609481 55.59545 252.064135 55.288793 253.070599 55.237684 C 254.36013 55.168883 255.651627 54.883849 257.072864 54.828808 Q 258.234622 54.785562 259.170318 54.630268 C 260.196439 54.463179 261.041711 54.441556 261.967579 54.317713 Q 263.257111 54.146693 263.919568 54.09755 Q 265.645496 53.96781 266.353165 53.87542 Q 267.853032 53.676879 267.972943 53.672948 Q 268.928297 53.631667 269.600583 53.525517 Q 270.840971 53.328942 272.299556 53.254243 C 273.410205 53.195271 273.899676 53.091086 275.157756 52.925963 C 275.74748 52.849299 276.347034 52.847333 277.013423 52.741183 C 278.599782 52.487601 280.296224 52.491533 281.770535 52.251711 C 282.934259 52.062999 283.787394 52.074794 285.029747 51.897876 Q 285.989033 51.76224 286.704566 51.715062 Q 288.345966 51.608911 289.104745 51.502761 Q 290.413934 51.31798 290.702899 51.30422 C 291.972773 51.247213 293.230853 50.950385 294.435857 50.899276 C 295.613341 50.850132 296.914666 50.55527 297.94865 50.519886 Q 299.104511 50.480571 300.618138 50.232887 C 301.345465 50.112976 302.196634 50.14836 302.664483 50.063832 C 303.32694 49.947853 303.836069 49.822045 304.486732 50.089387 C 304.54767 50.112976 304.600745 50.152291 304.643992 50.203401 Q 305.638661 51.365158 304.435622 52.235985 Q 293.238716 60.352563 281.406872 68.736483 C 281.192605 68.887846 281.12577 69.172879 281.247646 69.404838 C 281.38918 69.67218 281.456016 70.026014 281.556269 70.273699 Q 286.173813 81.777262 289.704299 90.566127 Q 289.889079 91.024146 289.596183 91.749508 Q 289.403539 92.227185 288.489466 93.398771 C 287.245147 94.994959 285.843568 96.540038 284.343701 97.906234 Q 281.208331 100.760501 277.831174 102.93462 Q 274.82751 104.866951 271.251812 106.873981 Q 265.374222 110.174474 261.863394 111.979031 Q 258.126505 113.899568 255.044211 114.829368 Q 251.834143 115.800448 249.473278 116.126762 Q 247.603851 116.386241 247.59009 116.388207 Q 246.408675 116.576918 245.704937 116.571021 Q 245.618444 116.569055 242.866395 116.797082 C 239.473512 117.076219 236.01576 116.962205 232.589459 116.714521 C 229.87476 116.517946 227.079464 116.303679 224.728428 115.641222 Q 222.353804 114.972867 220.952225 113.331467 Q 220.189514 112.439017 219.845508 110.996157 Q 219.021859 107.538404 216.004434 94.487796 C 215.906147 94.057297 215.544449 94.108406 215.194545 94.110372 Q 209.195079 94.133961 204.378994 94.259769 C 200.948762 94.348228 197.813392 94.289255 194.491276 94.413098 C 194.337948 94.418995 194.208208 94.531042 194.178722 94.682405 Q 194.074537 95.252472 193.881894 96.467305 C 193.761983 97.218221 193.842579 97.902302 193.64797 98.611938 C 193.644038 98.623732 193.642072 98.635527 193.640107 98.645355 L 193.459258 100.328037 Z M 234.997502 69.619104 Q 236.780436 69.682008 238.724562 69.088352 Q 240.47801 68.553668 241.629939 67.454815 C 241.681049 67.403705 241.720364 67.342767 241.745918 67.275931 C 242.135137 66.196735 241.293796 65.772133 240.395449 65.544106 C 240.332545 65.52838 240.267675 65.522483 240.202805 65.52838 Q 237.841941 65.732818 235.713034 67.016453 C 235.046645 67.419431 234.183682 68.079923 234.207271 68.915366 Q 234.126675 69.019551 233.821984 69.068695 C 233.774806 69.076558 233.729594 69.090318 233.686347 69.111941 L 191.167194 89.740512 Q 189.881594 90.306648 188.428906 90.91603 C 188.291303 90.975002 188.261817 91.157817 188.373865 91.25807 Q 188.462324 91.3367 188.731631 91.320974 C 197.996207 90.766633 204.072337 90.334168 212.471983 89.81521 Q 213.877494 89.728717 216.798597 89.504622 Q 218.964852 89.337533 234.38812 88.20133 Q 236.721464 88.03031 239.994436 87.788523 Q 242.848704 87.578188 245.734423 86.805649 Q 246.52662 86.662149 247.556673 86.23165 C 249.001498 85.626199 250.464016 84.938187 251.816451 84.073257 Q 252.408141 83.695834 256.089989 81.240613 Q 277.009491 67.283794 297.596781 52.611443 C 297.854294 52.428629 298.09215 52.308718 298.245479 52.019753 C 298.278896 51.956849 298.229753 51.88215 298.158986 51.888048 Q 292.167382 52.391279 287.019086 52.892545 Q 263.483172 55.184609 257.96728 55.748779 Q 249.036882 56.664818 241.840274 57.344967 C 241.364563 57.390179 241.085427 57.354796 240.953721 57.808884 Q 239.933498 61.317746 239.782135 65.143094 C 239.776238 65.268902 239.894183 65.367189 240.018025 65.337703 Q 241.629939 64.958313 243.131771 65.12147 C 244.380022 65.257107 245.972279 66.039475 244.657193 67.460712 Q 243.947557 68.22932 243.326381 68.575292 Q 240.377757 70.220624 236.947525 70.151822 Q 235.929267 70.132165 234.997502 69.619104 Z" style="fill:#162c3c;"/>
		<path d="M 193.459258 100.328037 L 195.047583 101.246041 C 195.084932 101.267665 195.11835 101.293219 195.147836 101.322706 Q 196.604456 102.738045 196.726333 104.581918 Q 196.860004 106.557495 195.621582 108.008218 Q 194.501105 109.319373 192.460657 109.812776 L 190.567641 109.895337 Q 190.661997 109.857988 190.728832 109.751838 C 190.764216 109.694831 190.752421 109.622098 190.701312 109.578852 C 190.542086 109.447147 190.308162 109.49629 190.129279 109.411763 Q 188.297201 108.552731 187.583634 106.999789 Q 186.824855 105.350525 187.34971 103.504687 Q 187.907982 101.552698 190.074238 100.607173 Q 190.510634 100.418461 190.950962 100.231715 Q 192.195281 100.092147 193.459258 100.328037 Z" style="fill:#ffbc09;"/>
		<path d="M 192.460657 109.812776 L 193.127046 110.386775 C 193.20371 110.451644 193.266614 110.530274 193.313792 110.618733 Q 193.921209 111.770662 194.125647 112.674907 Q 194.320256 113.545733 194.876563 116.747939 C 194.968953 117.276725 194.984679 117.728847 195.092795 118.257634 Q 195.259884 119.085214 195.328685 119.714254 Q 195.436801 120.71482 195.560644 121.446079 Q 195.688417 122.20879 195.725766 122.603905 Q 195.804396 123.449177 195.847643 123.763697 Q 196.085499 125.534837 196.272245 127.282388 Q 196.299765 127.54973 196.376429 127.81314 L 196.370532 128.06279 Q 196.358738 129.896834 196.327286 131.783953 Q 196.303697 133.138355 196.457025 134.286352 Q 196.470785 134.380708 196.54745 134.478995 Q 196.506169 134.618564 196.537621 134.769926 L 196.323354 136.717984 C 196.321388 136.74747 196.313525 136.77499 196.303697 136.802511 Q 196.164129 137.193695 196.152334 137.696927 Q 196.144471 137.983926 196.014732 138.544165 Q 195.684486 139.983093 195.34048 140.643585 Q 195.033823 141.235275 194.263249 141.449542 C 194.21214 141.463302 194.16103 141.471165 194.107955 141.471165 L 193.0838 141.45937 Q 193.750189 136.847723 193.703011 131.587378 Q 193.618483 122.094776 192.407582 112.531407 C 192.378096 112.297483 192.230665 112.096976 192.016398 111.998689 C 190.838914 111.454176 190.532257 112.423291 190.345511 113.414028 Q 189.747924 116.596576 189.227 119.311275 Q 188.470187 123.242774 186.710841 130.348957 Q 185.525494 135.143419 183.351376 140.140353 L 181.350243 139.320635 C 181.098628 139.218416 180.957094 138.95304 181.010169 138.687664 Q 181.102559 138.23161 181.265716 137.828632 Q 183.337616 132.725547 184.605524 128.640721 Q 185.566775 125.540734 186.246924 123.059959 Q 186.72067 121.326168 187.957126 116.248638 Q 187.974818 116.177871 188.403351 114.206225 Q 188.688385 112.904899 189.089398 111.788354 Q 189.502205 110.642322 190.567641 109.895337 L 192.460657 109.812776 Z" style="fill:#01142a;"/>
		<path d="M 193.0838 141.45937 L 190.215772 141.486891 Q 190.644305 137.093442 190.740627 135.21222 Q 190.895921 132.133857 191.434536 117.976532 Q 191.495474 116.380344 191.505303 114.790053 C 191.505303 114.756635 191.481714 114.729114 191.450262 114.725183 L 191.39129 114.715354 C 191.32642 114.70356 191.265482 114.748772 191.257619 114.815607 Q 190.640374 120.995922 189.972019 127.188032 Q 189.114952 135.137521 187.752688 141.276556 Q 186.940834 141.101604 186.030692 140.926652 Q 184.627147 140.655379 183.351376 140.140353 Q 185.525494 135.143419 186.710841 130.348957 Q 188.470187 123.242774 189.227 119.311275 Q 189.747924 116.596576 190.345511 113.414028 C 190.532257 112.423291 190.838914 111.454176 192.016398 111.998689 C 192.230665 112.096976 192.378096 112.297483 192.407582 112.531407 Q 193.618483 122.094776 193.703011 131.587378 Q 193.750189 136.847723 193.0838 141.45937 Z" style="fill:#ff483e;"/>
		<path d="M 190.215772 141.486891 Q 189.718437 141.561589 189.177856 141.461336 C 188.613686 141.35322 188.253954 141.323734 187.752688 141.276556 Q 189.114952 135.137521 189.972019 127.188032 Q 190.640374 120.995922 191.257619 114.815607 C 191.265482 114.748772 191.32642 114.70356 191.39129 114.715354 L 191.450262 114.725183 C 191.481714 114.729114 191.505303 114.756635 191.505303 114.790053 Q 191.495474 116.380344 191.434536 117.976532 Q 190.895921 132.133857 190.740627 135.21222 Q 190.644305 137.093442 190.215772 141.486891 Z" style="fill:#01142a;"/>
		<path d="M 308.742579 120.060226 Q 306.409235 120.62243 303.684706 121.911961 Q 301.811347 122.796549 300.224988 123.559259 C 297.962411 124.648284 296.181442 125.656714 294.125268 126.647451 Q 293.177777 127.103505 291.447918 128.023475 Q 289.206964 129.212754 283.726456 132.035569 C 281.894378 132.981095 280.01119 134.07012 278.216461 134.958638 Q 276.919067 135.601438 274.10608 137.197626 C 272.193406 138.28272 270.239451 139.24004 268.275668 140.429318 C 266.341371 141.600904 264.283232 142.668306 261.95775 143.979461 Q 260.524719 144.789349 259.03075 145.587443 Q 258.806655 143.900831 258.865627 142.271225 Q 258.889216 141.632356 258.612045 140.091209 Q 273.453451 131.412427 277.327943 129.212754 Q 282.069329 126.519677 288.428528 123.433451 Q 298.265136 118.658647 300.152255 117.793717 C 300.905137 117.449711 301.746478 116.993657 302.485599 116.820671 Q 304.20563 116.419659 305.92566 117.113568 C 306.605809 117.388773 307.612273 117.834998 308.188237 118.477798 Q 308.856592 119.222817 308.742579 120.060226 Z" style="fill:#1c7fa5;"/>
		<path d="M 219.900549 125.554495 Q 219.753118 126.203192 219.837645 126.853855 Q 220.018494 128.233811 220.046014 129.625561 Q 220.091226 131.894035 220.089261 134.158578 Q 220.089261 135.41076 219.493639 136.234409 L 202.189149 125.756967 C 202.100691 125.703891 201.986677 125.721583 201.917876 125.798247 C 199.77521 128.2574 199.352574 132.157446 200.072038 135.259398 C 200.351174 136.464402 201.164994 138.382973 202.212738 139.027739 C 209.637373 143.586311 215.353771 147.128591 223.5765 152.432182 Q 231.03062 157.238438 231.551544 157.578513 Q 234.134538 159.255297 237.446825 161.447107 Q 242.931265 165.07588 245.899546 167.102567 C 247.279502 168.046127 248.545444 168.993618 250.047277 169.752397 L 251.252281 170.450238 C 251.299459 170.477758 251.3545 170.491519 251.411507 170.485621 Q 252.716764 170.346053 253.876556 169.738637 Q 254.743451 169.284549 257.361829 167.798442 C 258.596319 167.098636 259.777735 166.276953 260.882486 165.699022 Q 262.278168 164.967764 262.525852 164.804607 C 263.70137 164.030101 264.418868 163.715582 265.777201 162.89783 C 267.398944 161.922818 268.694373 161.27019 270.736786 160.137918 C 270.94319 160.023905 271.086689 159.821433 271.126004 159.589474 L 271.354031 158.235073 C 271.379586 158.085676 271.226257 157.971663 271.090621 158.038498 C 269.557336 158.797277 267.744916 159.878439 266.39248 160.590041 Q 261.311019 163.261494 260.373357 163.815835 Q 258.159923 165.125024 257.383452 165.443475 C 256.870392 165.655776 256.426133 166.025337 255.858031 166.288747 Q 255.429498 166.485322 254.698239 166.884369 Q 253.247516 167.6746 250.731357 169.058488 Q 250.442392 169.217713 249.968647 169.219679 C 248.75578 168.913022 247.808289 166.909924 247.401378 165.710817 Q 246.60525 163.359781 246.46175 160.914389 C 246.284833 157.889101 246.558072 155.196025 247.715898 152.489189 Q 247.824015 151.976128 248.356733 151.400164 Q 249.044745 150.655145 249.585326 150.36618 Q 251.157925 149.524839 252.795394 148.826998 Q 253.699639 148.439745 255.376422 147.492254 Q 257.179014 146.472031 259.03075 145.587443 Q 260.524719 144.789349 261.95775 143.979461 C 264.283232 142.668306 266.341371 141.600904 268.275668 140.429318 C 270.239451 139.24004 272.193406 138.28272 274.10608 137.197626 Q 276.919067 135.601438 278.216461 134.958638 C 280.01119 134.07012 281.894378 132.981095 283.726456 132.035569 Q 289.206964 129.212754 291.447918 128.023475 Q 293.177777 127.103505 294.125268 126.647451 C 296.181442 125.656714 297.962411 124.648284 300.224988 123.559259 Q 301.811347 122.796549 303.684706 121.911961 Q 306.409235 120.62243 308.742579 120.060226 Q 308.650188 120.756101 308.487031 121.009683 C 308.205929 121.45001 307.657485 121.913927 307.111007 122.242207 Q 305.418497 123.252602 304.716725 123.728314 C 303.582487 124.496922 303.140194 125.430652 302.692003 126.718218 Q 302.21236 128.098174 301.980402 129.277623 Q 301.852628 129.924355 301.74058 131.980528 Q 301.703231 132.690164 301.80545 133.252368 C 301.915532 133.863716 301.878183 134.390537 302.025614 134.938981 Q 302.458079 136.554826 302.843366 137.24677 Q 303.729919 138.839027 305.683873 140.045997 Q 305.184573 140.462736 304.986032 140.559057 Q 301.455547 142.255499 297.956513 144.028604 Q 293.541441 146.263661 292.051403 147.051927 Q 291.054768 147.580713 291.039042 147.58661 C 290.164284 147.938479 289.057567 148.367013 288.180843 148.919388 Q 287.292325 149.479627 286.810716 149.689962 C 285.951684 150.06542 285.477938 150.368145 284.778132 150.674802 Q 283.148526 151.386403 283.077759 151.413924 C 282.89691 151.484691 282.780931 151.66554 282.794691 151.860149 L 283.032546 155.268758 C 283.040409 155.372942 283.150491 155.433881 283.242882 155.386703 L 287.577358 153.13592 C 287.640262 153.102502 287.699235 153.061222 287.750344 153.010112 C 287.966577 152.799777 288.25161 152.762428 288.542541 152.597305 Q 290.879817 151.270424 294.233385 149.601503 C 294.288426 149.573983 294.339535 149.540565 294.386713 149.50125 Q 294.742514 149.192627 295.108143 149.009813 Q 297.940787 147.602336 299.474072 146.737407 Q 301.485033 145.601204 303.100879 144.746103 C 303.761371 144.3962 304.31178 144.183899 304.976203 143.745537 C 305.475504 143.415291 306.47607 143.037867 307.171945 142.479594 Q 307.173911 142.935648 306.853494 143.112565 Q 298.508889 147.686864 289.775066 152.327997 Q 284.74668 154.99945 283.795257 155.532168 Q 283.360826 155.775921 280.498696 157.236473 Q 279.690773 157.64928 277.237518 159.003681 Q 274.823578 160.338425 273.539944 161.167971 L 272.215029 161.920853 Q 270.919601 162.612796 269.57896 163.479692 Q 269.044276 163.825664 268.655058 164.014375 C 267.858929 164.403594 266.980239 164.893065 266.315816 165.29801 Q 263.624706 166.935479 260.913938 168.543461 Q 258.773237 169.76026 256.707235 171.108764 Q 256.373057 171.326962 256.188277 171.560886 C 256.070332 171.708317 256.139133 171.926515 256.318016 171.981556 Q 258.256245 172.563418 260.304555 172.170268 C 262.083558 171.830194 263.730856 171.299442 265.590455 170.674333 C 267.564067 170.011876 270.099883 169.424117 271.988968 168.763625 C 274.328209 167.945874 275.16955 167.751264 277.432127 166.949239 Q 278.025783 166.736938 280.927229 165.897563 C 283.791326 165.066051 286.596449 163.760794 289.151923 163.074747 C 290.376585 162.744502 291.092118 162.428016 292.218492 162.08401 Q 292.957614 161.857949 294.498761 161.291813 C 296.723989 160.474061 298.410601 160.002282 300.329173 159.294612 Q 301.453581 158.879839 302.660551 158.864113 Q 301.205897 159.890234 300.508056 161.388135 Q 298.791957 165.077846 299.69227 168.918919 Q 300.132598 170.788347 301.832971 172.268556 Q 302.066895 172.472994 303.010454 173.084342 Q 304.105377 173.790046 305.16295 174.590106 Q 304.537841 174.704119 304.368787 174.704119 C 302.29099 174.70805 300.278063 175.246666 298.133431 175.968096 Q 297.25081 176.264924 292.025848 177.725475 C 290.907337 178.039995 289.806518 178.558953 288.760739 178.891165 Q 285.48187 179.92908 284.573694 180.200353 Q 281.945487 180.986653 280.801421 181.377837 Q 278.300988 182.232938 277.048806 182.633951 C 275.967644 182.981888 275.008359 183.137183 273.844635 183.555887 C 273.168417 183.797674 272.460748 183.949037 271.810085 184.169201 Q 269.461015 184.967295 268.851632 185.173699 Q 268.273702 185.370273 267.904141 185.452835 C 266.995965 185.655307 266.416069 185.946238 265.521654 186.119224 Q 265.128504 186.195888 263.78 186.62049 Q 259.21553 188.061384 252.785565 189.842353 C 252.199772 190.00551 251.606116 190.270886 250.97511 190.432077 Q 249.390717 190.837022 247.89085 191.578109 Q 245.317684 187.145345 245.681348 182.081575 Q 245.929032 178.633651 248.130671 175.995616 C 248.287931 175.804938 248.248616 175.519905 248.044178 175.380337 Q 227.187581 161.150279 206.17962 147.116796 C 205.43067 146.61553 204.622747 146.289216 203.871831 146.784585 C 202.92434 147.409693 202.46632 148.62256 202.285471 149.76466 C 201.617116 153.985124 202.647169 158.018841 204.870431 161.771456 Q 205.621347 163.037398 206.673023 163.861047 Q 210.683151 167.000348 213.531522 169.121392 C 217.026624 171.722078 219.58996 173.925682 222.823618 176.310136 Q 222.965152 176.416286 227.492272 179.86421 Q 228.35327 180.518805 229.149398 181.14981 Q 232.182549 183.551956 238.832678 188.428979 Q 240.52912 189.673298 241.022523 190.060551 C 243.180915 191.756992 245.242986 193.188058 247.651029 194.996547 C 248.109048 195.342519 248.394082 195.605929 248.885519 195.379868 Q 249.803524 194.959198 250.194708 194.805869 Q 251.297493 194.357678 252.526086 193.838721 Q 253.723228 193.331557 254.871225 192.910887 Q 259.471078 191.220343 262.44329 190.263023 Q 279.551205 184.751063 296.238449 179.333458 C 300.224988 178.039995 303.266002 177.161305 307.266301 176.32193 Q 308.030978 176.915587 308.15482 177.241901 Q 308.669846 178.596302 307.43339 179.268588 Q 305.7684 180.172833 304.754074 180.473593 Q 303.828206 180.750763 303.193269 180.953235 Q 301.082054 181.627487 300.99163 181.655008 Q 295.853162 183.204018 290.787427 184.806104 Q 289.043807 185.356513 287.90957 185.690691 Q 285.876985 186.288278 285.029747 186.587072 Q 284.465577 186.785613 283.905339 186.938941 Q 283.390313 187.080475 282.780931 187.294742 Q 282.25411 187.481488 279.055836 188.480089 C 274.408805 189.930811 271.674448 190.844885 267.068698 192.356546 Q 259.789529 194.744931 253.090256 197.548089 Q 252.164388 197.937307 251.69654 197.93141 Q 250.979042 197.923547 250.338208 197.463562 Q 244.737788 193.451468 239.037116 189.203484 Q 238.158426 188.54889 228.046613 181.124255 Q 226.147699 179.730539 225.756515 179.441574 Q 219.342276 174.721811 217.142603 173.06665 Q 216.527323 172.604699 216.094859 172.282316 Q 212.179086 169.38087 208.414677 166.654376 Q 205.652799 164.653244 203.696879 163.117994 C 201.084398 161.067718 199.413512 158.176101 198.727465 154.928683 C 198.397219 153.365913 198.377562 151.577081 198.552514 149.97303 Q 198.709774 148.520341 199.437101 146.806208 Q 200.378695 144.579014 202.291368 143.169572 C 202.499738 143.016244 202.493841 142.70369 202.28154 142.558224 Q 198.122015 139.717717 196.734196 134.830864 Q 196.71847 134.42592 196.54745 134.478995 Q 196.470785 134.380708 196.457025 134.286352 Q 196.303697 133.138355 196.327286 131.783953 Q 196.358738 129.896834 196.370532 128.06279 Q 196.594628 128.047064 196.519929 127.547764 C 196.799065 126.899067 196.938634 126.073452 197.084099 125.580049 Q 197.764248 123.262431 199.323087 120.995922 C 200.449462 119.360419 202.159663 117.992258 203.905248 117.034938 Q 204.424206 116.75187 204.935301 116.808877 Q 205.230163 116.842295 205.902449 117.257068 Q 208.084431 118.603606 212.979146 121.483428 Q 216.44083 123.52191 219.900549 125.554495 Z M 301.015219 126.19926 Q 300.863856 126.183534 300.714459 126.266096 Q 290.663584 131.746604 279.606246 137.39027 Q 279.360527 137.516078 279.189507 137.620262 C 279.097117 137.677269 279.075493 137.801111 279.140363 137.885639 C 280.176313 139.24004 281.178845 140.991522 281.62507 142.62506 Q 281.933693 143.7534 282.214795 145.261129 C 282.228555 145.337793 282.317014 145.373177 282.379918 145.32993 Q 283.042375 144.871911 283.406039 144.677302 Q 286.680977 142.908127 289.686607 141.256898 C 293.114873 139.375676 296.961844 137.415825 300.071659 135.910061 C 300.173878 135.860917 300.226954 135.748869 300.201399 135.638787 Q 299.073059 130.641853 301.04274 126.248404 C 301.052568 126.226781 301.038808 126.201226 301.015219 126.19926 Z M 302.479702 140.397866 C 302.560298 140.358551 302.583887 140.256332 302.528846 140.187531 Q 301.280595 138.636555 300.576857 136.942079 C 300.527713 136.824134 300.388145 136.77499 300.276097 136.833963 Q 292.682409 140.787084 285.021884 144.374576 C 284.211996 144.753966 283.341169 145.265061 282.385815 145.650347 C 282.317014 145.677868 282.275733 145.748635 282.285562 145.821368 L 282.747513 149.68603 C 282.759307 149.780386 282.85956 149.833462 282.944088 149.792181 L 302.479702 140.397866 Z M 273.526184 157.39963 L 273.164486 159.622892 C 273.144828 159.746734 273.256876 159.848953 273.378753 159.817501 Q 273.909505 159.681864 274.332141 159.48529 Q 277.974674 157.780985 280.51049 156.473762 C 280.897743 156.273256 281.271235 156.060955 281.322345 155.581312 Q 281.408838 154.781252 281.404906 154.635787 Q 281.383283 153.88487 281.371488 153.415056 Q 281.385249 148.565553 280.720825 144.050228 Q 280.457415 142.263362 280.064265 140.954173 Q 279.574794 139.328498 278.755076 137.946577 C 278.676446 137.812906 278.505426 137.765728 278.367824 137.838461 L 269.987835 142.239773 C 269.889548 142.290882 269.871856 142.422587 269.950486 142.499252 Q 271.666585 144.138686 272.507926 146.306908 Q 273.807286 149.656544 273.760108 153.114297 Q 273.72669 155.687462 273.526184 157.39963 Z M 271.686243 153.336426 L 271.615476 152.960968 Q 271.652825 150.17157 270.650293 147.266193 Q 270.001596 145.390869 268.814283 143.792715 C 268.717962 143.662975 268.539078 143.621694 268.397544 143.700324 Q 262.122873 147.118762 255.128738 150.80061 Q 253.369393 151.728444 251.319116 152.691661 Q 250.707768 152.980626 250.446324 153.346255 Q 249.245251 155.042697 248.983806 157.195192 Q 248.628006 160.108432 249.068334 162.549892 C 249.31995 163.943608 250.021722 165.724577 251.185445 166.561986 C 251.238521 166.599335 251.30339 166.615061 251.36826 166.605233 Q 251.694574 166.558055 252.030718 166.381137 Q 257.961383 163.245768 262.177914 160.996951 C 262.793194 160.66867 263.439925 160.383637 264.009992 160.065186 Q 267.218095 158.264559 271.393346 156.110098 C 271.515222 156.047194 271.595818 155.923352 271.59975 155.78575 L 271.686243 153.336426 Z M 299.265702 160.344322 Q 299.108442 160.358082 298.915799 160.424918 Q 276.358828 168.116894 254.426966 175.358713 Q 253.239653 175.751863 251.53928 176.355348 Q 248.095288 177.578044 247.438728 181.191091 C 246.974811 183.746565 247.635303 186.695188 249.807455 188.314966 C 250.420769 188.772985 250.902378 188.721876 251.602184 188.509575 Q 275.346467 181.267755 300.337036 173.308437 C 300.468741 173.267156 300.502159 173.096136 300.396008 173.009643 C 298.949217 171.810536 298.066595 170.084609 297.775665 168.193558 Q 297.148591 164.100868 299.340401 160.464233 C 299.373819 160.409192 299.330572 160.338425 299.265702 160.344322 Z" style="fill:#162c3c;"/>
		<path d="M 244.273872 138.888171 Q 244.094988 139.485758 244.20507 139.755066 Q 244.767275 141.13109 244.749583 142.214218 Q 244.686679 146.179134 244.722062 147.655412 Q 244.759412 149.249634 244.411474 150.586343 Q 231.838543 143.588277 219.493639 136.234409 Q 220.089261 135.41076 220.089261 134.158578 Q 220.091226 131.894035 220.046014 129.625561 Q 220.018494 128.233811 219.837645 126.853855 Q 219.753118 126.203192 219.900549 125.554495 Q 231.90931 132.550596 244.273872 138.888171 Z" style="fill:#0e506d;"/>
		<path d="M 219.493639 136.234409 Q 231.838543 143.588277 244.411474 150.586343 Q 245.5693 151.158376 246.668154 151.852286 Q 246.856866 151.970231 247.23429 152.109799 Q 247.633337 152.255264 247.715898 152.489189 C 246.558072 155.196025 246.284833 157.889101 246.46175 160.914389 Q 246.60525 163.359781 247.401378 165.710817 C 247.808289 166.909924 248.75578 168.913022 249.968647 169.219679 Q 250.283167 169.272754 250.501365 169.471295 C 250.603584 169.565651 250.54068 169.736671 250.401112 169.740603 L 250.047277 169.752397 C 248.545444 168.993618 247.279502 168.046127 245.899546 167.102567 Q 242.931265 165.07588 237.446825 161.447107 Q 234.134538 159.255297 231.551544 157.578513 Q 231.03062 157.238438 223.5765 152.432182 C 215.353771 147.128591 209.637373 143.586311 202.212738 139.027739 C 201.164994 138.382973 200.351174 136.464402 200.072038 135.259398 C 199.352574 132.157446 199.77521 128.2574 201.917876 125.798247 C 201.986677 125.721583 202.100691 125.703891 202.189149 125.756967 L 219.493639 136.234409 Z" style="fill:#3dc7e3;"/>
		<path d="M 196.370532 128.06279 L 196.376429 127.81314 L 196.519929 127.547764 Q 196.594628 128.047064 196.370532 128.06279 Z" style="fill:#3dc7e3;"/>
		<path d="M 196.734196 134.830864 Q 196.624114 134.81907 196.537621 134.769926 Q 196.506169 134.618564 196.54745 134.478995 Q 196.71847 134.42592 196.734196 134.830864 Z" style="fill:#ceb693;"/>
		<path d="M 244.273872 138.888171 Q 245.166322 139.320635 246.052875 139.764895 Q 246.94729 140.21112 247.407276 140.378208 C 248.116911 140.633756 248.586725 140.889303 249.25508 141.087844 Q 252.590956 142.084479 256.013325 141.172371 Q 256.601084 141.015111 258.612045 140.091209 Q 258.889216 141.632356 258.865627 142.271225 Q 258.806655 143.900831 259.03075 145.587443 Q 257.179014 146.472031 255.376422 147.492254 Q 253.699639 148.439745 252.795394 148.826998 Q 251.157925 149.524839 249.585326 150.36618 Q 249.044745 150.655145 248.356733 151.400164 Q 247.824015 151.976128 247.715898 152.489189 Q 247.633337 152.255264 247.23429 152.109799 Q 246.856866 151.970231 246.668154 151.852286 Q 245.5693 151.158376 244.411474 150.586343 Q 244.759412 149.249634 244.722062 147.655412 Q 244.686679 146.179134 244.749583 142.214218 Q 244.767275 141.13109 244.20507 139.755066 Q 244.094988 139.485758 244.273872 138.888171 Z" style="fill:#156583;"/>
		<path d="M 305.683873 140.045997 Q 306.812213 140.830331 307.134596 141.992088 Q 307.101178 142.251567 307.160151 142.410793 Q 307.160151 142.452074 307.171945 142.479594 C 306.47607 143.037867 305.475504 143.415291 304.976203 143.745537 C 304.31178 144.183899 303.761371 144.3962 303.100879 144.746103 Q 301.485033 145.601204 299.474072 146.737407 Q 297.940787 147.602336 295.108143 149.009813 Q 294.742514 149.192627 294.386713 149.50125 C 294.339535 149.540565 294.288426 149.573983 294.233385 149.601503 Q 290.879817 151.270424 288.542541 152.597305 C 288.25161 152.762428 287.966577 152.799777 287.750344 153.010112 C 287.699235 153.061222 287.640262 153.102502 287.577358 153.13592 L 283.242882 155.386703 C 283.150491 155.433881 283.040409 155.372942 283.032546 155.268758 L 282.794691 151.860149 C 282.780931 151.66554 282.89691 151.484691 283.077759 151.413924 Q 283.148526 151.386403 284.778132 150.674802 C 285.477938 150.368145 285.951684 150.06542 286.810716 149.689962 Q 287.292325 149.479627 288.180843 148.919388 C 289.057567 148.367013 290.164284 147.938479 291.039042 147.58661 Q 291.054768 147.580713 292.051403 147.051927 Q 293.541441 146.263661 297.956513 144.028604 Q 301.455547 142.255499 304.986032 140.559057 Q 305.184573 140.462736 305.683873 140.045997 Z" style="fill:#1c7fa5;"/>
		<path d="M 307.160151 142.410793 Q 307.101178 142.251567 307.134596 141.992088 L 307.160151 142.410793 Z" style="fill:#01142a;"/>
		<path d="M 247.89085 191.578109 L 250.194708 194.805869 Q 249.803524 194.959198 248.885519 195.379868 C 248.394082 195.605929 248.109048 195.342519 247.651029 194.996547 C 245.242986 193.188058 243.180915 191.756992 241.022523 190.060551 Q 240.52912 189.673298 238.832678 188.428979 Q 232.182549 183.551956 229.149398 181.14981 Q 228.35327 180.518805 227.492272 179.86421 Q 222.965152 176.416286 222.823618 176.310136 C 219.58996 173.925682 217.026624 171.722078 213.531522 169.121392 Q 210.683151 167.000348 206.673023 163.861047 Q 205.621347 163.037398 204.870431 161.771456 C 202.647169 158.018841 201.617116 153.985124 202.285471 149.76466 C 202.46632 148.62256 202.92434 147.409693 203.871831 146.784585 C 204.622747 146.289216 205.43067 146.61553 206.17962 147.116796 Q 227.187581 161.150279 248.044178 175.380337 C 248.248616 175.519905 248.287931 175.804938 248.130671 175.995616 Q 245.929032 178.633651 245.681348 182.081575 Q 245.317684 187.145345 247.89085 191.578109 Z" style="fill:#38b59c;"/>
		<path d="M 303.920596 151.74417 Q 303.775131 151.824765 303.580522 151.791348 Q 303.727953 151.702889 303.920596 151.74417 Z" style="fill:#162c3c;"/>
		<path d="M 307.574924 155.325764 Q 304.156486 156.176934 300.795055 157.26989 Q 294.781829 159.223845 283.39621 163.062953 C 278.137831 164.838024 272.999363 166.534466 267.450053 167.871175 Q 264.080759 168.681064 260.913938 168.543461 Q 263.624706 166.935479 266.315816 165.29801 C 266.980239 164.893065 267.858929 164.403594 268.655058 164.014375 Q 269.044276 163.825664 269.57896 163.479692 Q 270.919601 162.612796 272.215029 161.920853 Q 272.962014 161.907092 273.744382 161.3901 Q 274.30462 161.272155 274.9199 161.057889 Q 279.739917 159.377173 284.497029 157.782951 C 289.873353 155.980359 294.895842 154.142384 299.820044 152.491154 C 300.236782 152.351586 300.582754 152.320134 300.930692 152.219881 Q 302.214326 151.844423 303.580522 151.791348 Q 303.775131 151.824765 303.920596 151.74417 C 305.359525 151.616396 307.223055 151.852286 308.107642 153.131988 C 308.144991 153.187029 308.16858 153.247968 308.178409 153.310872 Q 308.341566 154.395965 307.574924 155.325764 Z" style="fill:#156583;"/>
		<path d="M 307.574924 155.325764 C 306.255906 156.935713 304.396307 157.79278 302.660551 158.864113 Q 301.453581 158.879839 300.329173 159.294612 C 298.410601 160.002282 296.723989 160.474061 294.498761 161.291813 Q 292.957614 161.857949 292.218492 162.08401 C 291.092118 162.428016 290.376585 162.744502 289.151923 163.074747 C 286.596449 163.760794 283.791326 165.066051 280.927229 165.897563 Q 278.025783 166.736938 277.432127 166.949239 C 275.16955 167.751264 274.328209 167.945874 271.988968 168.763625 C 270.099883 169.424117 267.564067 170.011876 265.590455 170.674333 C 263.730856 171.299442 262.083558 171.830194 260.304555 172.170268 Q 258.256245 172.563418 256.318016 171.981556 C 256.139133 171.926515 256.070332 171.708317 256.188277 171.560886 Q 256.373057 171.326962 256.707235 171.108764 Q 258.773237 169.76026 260.913938 168.543461 Q 264.080759 168.681064 267.450053 167.871175 C 272.999363 166.534466 278.137831 164.838024 283.39621 163.062953 Q 294.781829 159.223845 300.795055 157.26989 Q 304.156486 156.176934 307.574924 155.325764 Z" style="fill:#0e506d;"/>
		<path d="M 250.047277 169.752397 L 250.401112 169.740603 C 250.54068 169.736671 250.603584 169.565651 250.501365 169.471295 Q 250.283167 169.272754 249.968647 169.219679 Q 250.442392 169.217713 250.731357 169.058488 Q 253.247516 167.6746 254.698239 166.884369 Q 255.429498 166.485322 255.858031 166.288747 C 256.426133 166.025337 256.870392 165.655776 257.383452 165.443475 Q 258.159923 165.125024 260.373357 163.815835 Q 261.311019 163.261494 266.39248 160.590041 C 267.744916 159.878439 269.557336 158.797277 271.090621 158.038498 C 271.226257 157.971663 271.379586 158.085676 271.354031 158.235073 L 271.126004 159.589474 C 271.086689 159.821433 270.94319 160.023905 270.736786 160.137918 C 268.694373 161.27019 267.398944 161.922818 265.777201 162.89783 C 264.418868 163.715582 263.70137 164.030101 262.525852 164.804607 Q 262.278168 164.967764 260.882486 165.699022 C 259.777735 166.276953 258.596319 167.098636 257.361829 167.798442 Q 254.743451 169.284549 253.876556 169.738637 Q 252.716764 170.346053 251.411507 170.485621 C 251.3545 170.491519 251.299459 170.477758 251.252281 170.450238 L 250.047277 169.752397 Z" style="fill:#1c7fa5;"/>
		<path fill-opacity="0.996" d="M 273.539944 161.167971 Q 273.494732 161.331128 273.744382 161.3901 Q 272.962014 161.907092 272.215029 161.920853 L 273.539944 161.167971 Z" style="fill:#ffffff;"/>
		<path d="M 305.16295 174.590106 Q 306.301118 175.346919 307.266301 176.32193 C 303.266002 177.161305 300.224988 178.039995 296.238449 179.333458 Q 279.551205 184.751063 262.44329 190.263023 Q 259.471078 191.220343 254.871225 192.910887 Q 253.723228 193.331557 252.526086 193.838721 Q 251.297493 194.357678 250.194708 194.805869 L 247.89085 191.578109 Q 249.390717 190.837022 250.97511 190.432077 C 251.606116 190.270886 252.199772 190.00551 252.785565 189.842353 Q 259.21553 188.061384 263.78 186.62049 Q 265.128504 186.195888 265.521654 186.119224 C 266.416069 185.946238 266.995965 185.655307 267.904141 185.452835 Q 268.273702 185.370273 268.851632 185.173699 Q 269.461015 184.967295 271.810085 184.169201 C 272.460748 183.949037 273.168417 183.797674 273.844635 183.555887 C 275.008359 183.137183 275.967644 182.981888 277.048806 182.633951 Q 278.300988 182.232938 280.801421 181.377837 Q 281.945487 180.986653 284.573694 180.200353 Q 285.48187 179.92908 288.760739 178.891165 C 289.806518 178.558953 290.907337 178.039995 292.025848 177.725475 Q 297.25081 176.264924 298.133431 175.968096 C 300.278063 175.246666 302.29099 174.70805 304.368787 174.704119 Q 304.537841 174.704119 305.16295 174.590106 Z" style="fill:#156583;"/>
		<path d="M 245.734423 86.805649 Q 243.19271 86.453779 240.709969 86.636594 Q 239.127541 86.752573 238.486706 86.770265 Q 237.427168 86.797786 236.261478 86.909833 C 235.754315 86.958977 235.107584 86.896073 234.673153 86.964874 Q 232.721164 87.279394 230.655162 87.287257 C 230.035951 87.289223 229.33811 87.432723 228.683516 87.472038 Q 224.867997 87.70203 221.221532 87.979201 Q 220.930601 88.000824 218.001635 88.18757 Q 213.122646 88.498159 198.971218 89.494793 Q 196.057978 89.701197 191.998706 89.758204 Q 191.90435 89.760169 191.574104 89.81521 Q 191.296934 89.862388 191.167194 89.740512 L 233.686347 69.111941 C 233.729594 69.090318 233.774806 69.076558 233.821984 69.068695 Q 234.126675 69.019551 234.207271 68.915366 Q 234.280003 69.377317 234.997502 69.619104 Q 235.929267 70.132165 236.947525 70.151822 Q 240.377757 70.220624 243.326381 68.575292 Q 243.947557 68.22932 244.657193 67.460712 C 245.972279 66.039475 244.380022 65.257107 243.131771 65.12147 Q 241.629939 64.958313 240.018025 65.337703 C 239.894183 65.367189 239.776238 65.268902 239.782135 65.143094 Q 239.933498 61.317746 240.953721 57.808884 C 241.085427 57.354796 241.364563 57.390179 241.840274 57.344967 Q 249.036882 56.664818 257.96728 55.748779 Q 263.483172 55.184609 287.019086 52.892545 Q 292.167382 52.391279 298.158986 51.888048 C 298.229753 51.88215 298.278896 51.956849 298.245479 52.019753 C 298.09215 52.308718 297.854294 52.428629 297.596781 52.611443 Q 277.009491 67.283794 256.089989 81.240613 Q 252.408141 83.695834 251.816451 84.073257 C 250.464016 84.938187 249.001498 85.626199 247.556673 86.23165 Q 246.52662 86.662149 245.734423 86.805649 Z" style="fill:#ceb693;"/>
		<path d="M 234.997502 69.619104 Q 234.280003 69.377317 234.207271 68.915366 C 234.183682 68.079923 235.046645 67.419431 235.713034 67.016453 Q 237.841941 65.732818 240.202805 65.52838 C 240.267675 65.522483 240.332545 65.52838 240.395449 65.544106 C 241.293796 65.772133 242.135137 66.196735 241.745918 67.275931 C 241.720364 67.342767 241.681049 67.403705 241.629939 67.454815 Q 240.47801 68.553668 238.724562 69.088352 Q 236.780436 69.682008 234.997502 69.619104 Z" style="fill:#ff483e;"/>
		<path d="M 245.734423 86.805649 Q 242.848704 87.578188 239.994436 87.788523 Q 236.721464 88.03031 234.38812 88.20133 Q 218.964852 89.337533 216.798597 89.504622 Q 213.877494 89.728717 212.471983 89.81521 C 204.072337 90.334168 197.996207 90.766633 188.731631 91.320974 Q 188.462324 91.3367 188.373865 91.25807 C 188.261817 91.157817 188.291303 90.975002 188.428906 90.91603 Q 189.881594 90.306648 191.167194 89.740512 Q 191.296934 89.862388 191.574104 89.81521 Q 191.90435 89.760169 191.998706 89.758204 Q 196.057978 89.701197 198.971218 89.494793 Q 213.122646 88.498159 218.001635 88.18757 Q 220.930601 88.000824 221.221532 87.979201 Q 224.867997 87.70203 228.683516 87.472038 C 229.33811 87.432723 230.035951 87.289223 230.655162 87.287257 Q 232.721164 87.279394 234.673153 86.964874 C 235.107584 86.896073 235.754315 86.958977 236.261478 86.909833 Q 237.427168 86.797786 238.486706 86.770265 Q 239.127541 86.752573 240.709969 86.636594 Q 243.19271 86.453779 245.734423 86.805649 Z" style="fill:#ff483e;"/>
		<path fill-opacity="0.996" d="M 301.015219 126.19926 C 301.038808 126.201226 301.052568 126.226781 301.04274 126.248404 Q 299.073059 130.641853 300.201399 135.638787 C 300.226954 135.748869 300.173878 135.860917 300.071659 135.910061 C 296.961844 137.415825 293.114873 139.375676 289.686607 141.256898 Q 286.680977 142.908127 283.406039 144.677302 Q 283.042375 144.871911 282.379918 145.32993 C 282.317014 145.373177 282.228555 145.337793 282.214795 145.261129 Q 281.933693 143.7534 281.62507 142.62506 C 281.178845 140.991522 280.176313 139.24004 279.140363 137.885639 C 279.075493 137.801111 279.097117 137.677269 279.189507 137.620262 Q 279.360527 137.516078 279.606246 137.39027 Q 290.663584 131.746604 300.714459 126.266096 Q 300.863856 126.183534 301.015219 126.19926 Z M 281.923864 141.475096 Q 282.014288 141.652014 282.511623 141.437747 Q 290.752043 137.885639 298.430259 133.757565 C 298.59145 133.673038 298.672046 133.488258 298.626834 133.309375 Q 298.622902 133.295614 298.540341 133.130492 Q 298.457779 132.965369 298.447951 132.953574 C 298.333937 132.81204 298.137362 132.768794 297.972239 132.845458 Q 290.075825 136.5391 282.305219 141.026906 Q 281.835405 141.296213 281.923864 141.475096 Z" style="fill:#ffffff;"/>
		<path fill-opacity="0.996" d="M 302.479702 140.397866 L 282.944088 149.792181 C 282.85956 149.833462 282.759307 149.780386 282.747513 149.68603 L 282.285562 145.821368 C 282.275733 145.748635 282.317014 145.677868 282.385815 145.650347 C 283.341169 145.265061 284.211996 144.753966 285.021884 144.374576 Q 292.682409 140.787084 300.276097 136.833963 C 300.388145 136.77499 300.527713 136.824134 300.576857 136.942079 Q 301.280595 138.636555 302.528846 140.187531 C 302.583887 140.256332 302.560298 140.358551 302.479702 140.397866 Z" style="fill:#ffffff;"/>
		<path d="M 281.371488 153.415056 Q 278.019886 154.877574 275.267837 156.296845 Q 274.516921 156.686063 273.526184 157.39963 Q 273.72669 155.687462 273.760108 153.114297 Q 273.807286 149.656544 272.507926 146.306908 Q 271.666585 144.138686 269.950486 142.499252 C 269.871856 142.422587 269.889548 142.290882 269.987835 142.239773 L 278.367824 137.838461 C 278.505426 137.765728 278.676446 137.812906 278.755076 137.946577 Q 279.574794 139.328498 280.064265 140.954173 Q 280.457415 142.263362 280.720825 144.050228 Q 281.385249 148.565553 281.371488 153.415056 Z" style="fill:#ffbc09;"/>
		<path fill-opacity="0.996" d="M 271.615476 152.960968 Q 267.448088 154.879539 263.605048 157.157843 C 263.463514 157.24237 263.542144 157.460568 263.705301 157.433047 Q 263.988369 157.381938 264.322547 157.234507 C 266.661788 156.202489 269.244782 154.680999 271.686243 153.336426 L 271.59975 155.78575 C 271.595818 155.923352 271.515222 156.047194 271.393346 156.110098 Q 267.218095 158.264559 264.009992 160.065186 C 263.439925 160.383637 262.793194 160.66867 262.177914 160.996951 Q 257.961383 163.245768 252.030718 166.381137 Q 251.694574 166.558055 251.36826 166.605233 C 251.30339 166.615061 251.238521 166.599335 251.185445 166.561986 C 250.021722 165.724577 249.31995 163.943608 249.068334 162.549892 Q 248.628006 160.108432 248.983806 157.195192 Q 249.245251 155.042697 250.446324 153.346255 Q 250.707768 152.980626 251.319116 152.691661 Q 253.369393 151.728444 255.128738 150.80061 Q 262.122873 147.118762 268.397544 143.700324 C 268.539078 143.621694 268.717962 143.662975 268.814283 143.792715 Q 270.001596 145.390869 270.650293 147.266193 Q 271.652825 150.17157 271.615476 152.960968 Z M 270.023219 148.168472 L 270.017322 148.164541 C 269.922966 148.099671 269.801089 148.089842 269.696905 148.138986 Q 268.389681 148.758197 264.09452 150.965733 Q 259.113312 153.525138 258.002663 154.167938 Q 254.185179 156.381372 252.651894 157.26989 Q 252.543778 157.332794 252.543778 157.431082 C 252.541812 157.507746 252.612579 157.568684 252.693175 157.562787 Q 253.711433 157.47826 254.782766 157.083144 Q 256.730824 156.36368 257.95352 155.687462 C 259.146729 155.026971 261.226492 153.865213 263.003529 152.725078 Q 265.602249 151.058123 270.017322 148.365047 C 270.090054 148.319835 270.09202 148.217616 270.023219 148.168472 Z M 252.492669 161.128656 L 252.73249 161.582744 C 252.763942 161.643682 252.83864 161.667271 252.899579 161.633853 Q 256.636468 159.548193 256.850734 159.436146 C 258.051807 158.809072 259.046476 158.109265 260.292761 157.383904 Q 260.933595 157.008446 262.840372 155.797544 C 265.336873 154.211185 268.647195 152.284751 270.459615 151.191794 Q 270.766272 151.007014 271.059169 150.745569 C 271.135833 150.676768 271.102415 150.548994 271.000196 150.529337 Q 270.882251 150.505748 270.795758 150.548994 Q 269.598617 151.144616 266.252912 153.067119 Q 262.681146 155.121327 261.739552 155.644216 Q 257.639 157.916622 252.531984 160.991053 C 252.484806 161.02054 252.467114 161.079512 252.492669 161.128656 Z M 257.403012 152.67218 C 257.326446 152.530469 257.149528 152.477394 257.006264 152.553154 L 250.394625 156.113165 C 250.251715 156.190694 250.198639 156.367611 250.275598 156.509912 L 250.279333 156.516831 C 250.355899 156.658542 250.532817 156.711618 250.676081 156.635858 L 257.28772 153.075847 C 257.43063 152.998318 257.483706 152.8214 257.406746 152.6791 L 257.403012 152.67218 Z" style="fill:#ffffff;"/>
		<path d="M 271.615476 152.960968 L 271.686243 153.336426 C 269.244782 154.680999 266.661788 156.202489 264.322547 157.234507 Q 263.988369 157.381938 263.705301 157.433047 C 263.542144 157.460568 263.463514 157.24237 263.605048 157.157843 Q 267.448088 154.879539 271.615476 152.960968 Z" style="fill:#0e506d;"/>
		<path d="M 281.371488 153.415056 Q 281.383283 153.88487 281.404906 154.635787 Q 281.408838 154.781252 281.322345 155.581312 C 281.271235 156.060955 280.897743 156.273256 280.51049 156.473762 Q 277.974674 157.780985 274.332141 159.48529 Q 273.909505 159.681864 273.378753 159.817501 C 273.256876 159.848953 273.144828 159.746734 273.164486 159.622892 L 273.526184 157.39963 Q 274.516921 156.686063 275.267837 156.296845 Q 278.019886 154.877574 281.371488 153.415056 Z" style="fill:#b57e13;"/>
		<path fill-opacity="0.996" d="M 299.265702 160.344322 C 299.330572 160.338425 299.373819 160.409192 299.340401 160.464233 Q 297.148591 164.100868 297.775665 168.193558 C 298.066595 170.084609 298.949217 171.810536 300.396008 173.009643 C 300.502159 173.096136 300.468741 173.267156 300.337036 173.308437 Q 275.346467 181.267755 251.602184 188.509575 C 250.902378 188.721876 250.420769 188.772985 249.807455 188.314966 C 247.635303 186.695188 246.974811 183.746565 247.438728 181.191091 Q 248.095288 177.578044 251.53928 176.355348 Q 253.239653 175.751863 254.426966 175.358713 Q 276.358828 168.116894 298.915799 160.424918 Q 299.108442 160.358082 299.265702 160.344322 Z M 285.845533 172.614528 L 285.839636 172.588973 C 285.821944 172.512309 285.743314 172.463165 285.66665 172.480857 Q 281.51892 173.412622 280.231354 173.746799 Q 268.566599 176.758327 259.134935 179.433711 Q 257.066967 180.019504 254.940026 180.83529 C 254.540979 180.988619 253.843138 181.222543 253.760577 181.619624 Q 253.691776 181.943973 253.864761 182.156274 C 253.913905 182.215246 253.988604 182.25063 254.067234 182.25063 C 256.357331 182.254561 258.344704 181.72774 260.626938 181.061351 Q 261.774936 180.727174 265.462681 179.565416 Q 267.497231 178.922616 270.239451 177.890598 C 275.476207 175.920918 279.977772 174.564551 285.741349 172.797342 C 285.819979 172.773753 285.865191 172.693158 285.845533 172.614528 Z" style="fill:#ffffff;"/>
		<path d="M 298.540341 133.130492 Q 298.622902 133.295614 298.626834 133.309375 C 298.672046 133.488258 298.59145 133.673038 298.430259 133.757565 Q 290.752043 137.885639 282.511623 141.437747 Q 282.014288 141.652014 281.923864 141.475096 Q 281.835405 141.296213 282.305219 141.026906 Q 290.075825 136.5391 297.972239 132.845458 C 298.137362 132.768794 298.333937 132.81204 298.447951 132.953574 Q 298.457779 132.965369 298.540341 133.130492 Z" style="fill:#162c3c;"/>
		<path d="M 270.023219 148.168472 C 270.09202 148.217616 270.090054 148.319835 270.017322 148.365047 Q 265.602249 151.058123 263.003529 152.725078 C 261.226492 153.865213 259.146729 155.026971 257.95352 155.687462 Q 256.730824 156.36368 254.782766 157.083144 Q 253.711433 157.47826 252.693175 157.562787 C 252.612579 157.568684 252.541812 157.507746 252.543778 157.431082 Q 252.543778 157.332794 252.651894 157.26989 Q 254.185179 156.381372 258.002663 154.167938 Q 259.113312 153.525138 264.09452 150.965733 Q 268.389681 148.758197 269.696905 148.138986 C 269.801089 148.089842 269.922966 148.099671 270.017322 148.164541 L 270.023219 148.168472 Z" style="fill:#162c3c;"/>
		<path d="M 252.531984 160.991053 Q 257.639 157.916622 261.739552 155.644216 Q 262.681146 155.121327 266.252912 153.067119 Q 269.598617 151.144616 270.795758 150.548994 Q 270.882251 150.505748 271.000196 150.529337 C 271.102415 150.548994 271.135833 150.676768 271.059169 150.745569 Q 270.766272 151.007014 270.459615 151.191794 C 268.647195 152.284751 265.336873 154.211185 262.840372 155.797544 Q 260.933595 157.008446 260.292761 157.383904 C 259.046476 158.109265 258.051807 158.809072 256.850734 159.436146 Q 256.636468 159.548193 252.899579 161.633853 C 252.83864 161.667271 252.763942 161.643682 252.73249 161.582744 L 252.492669 161.128656 C 252.467114 161.079512 252.484806 161.02054 252.531984 160.991053 Z" style="fill:#0e506d;"/>
		<path d="M 257.406746 152.6791 C 257.483706 152.8214 257.43063 152.998318 257.28772 153.075847 L 250.676081 156.635858 C 250.532817 156.711618 250.355899 156.658542 250.279333 156.516831 L 250.275598 156.509912 C 250.198639 156.367611 250.251715 156.190694 250.394625 156.113165 L 257.006264 152.553154 C 257.149528 152.477394 257.326446 152.530469 257.403012 152.67218 L 257.406746 152.6791 Z" style="fill:#0e506d;"/>
		<path d="M 285.741349 172.797342 C 279.977772 174.564551 275.476207 175.920918 270.239451 177.890598 Q 267.497231 178.922616 265.462681 179.565416 Q 261.774936 180.727174 260.626938 181.061351 C 258.344704 181.72774 256.357331 182.254561 254.067234 182.25063 C 253.988604 182.25063 253.913905 182.215246 253.864761 182.156274 Q 253.691776 181.943973 253.760577 181.619624 C 253.843138 181.222543 254.540979 180.988619 254.940026 180.83529 Q 257.066967 180.019504 259.134935 179.433711 Q 268.566599 176.758327 280.231354 173.746799 Q 281.51892 173.412622 285.66665 172.480857 C 285.743314 172.463165 285.821944 172.512309 285.839636 172.588973 L 285.845533 172.614528 C 285.865191 172.693158 285.819979 172.773753 285.741349 172.797342 Z" style="fill:#162c3c;"/>
	</g>
	<g id="surface4">
	</g>
</svg>
