<?xml version="1.0" encoding="utf-8"?>
<svg xmlns="http://www.w3.org/2000/svg" width="490pt" height="280pt" viewBox="0 0 490 280" version="1.1" xmlns:xlink="http://www.w3.org/1999/xlink">
	<g id="surface2" data-size="264.78054131386 148" data-bboxpos="112.5 56.754419975686" data-pivot="244.89027065693 130.75441997569" data-center="244.89027065693 130.75441997569">
		<path vector-effect="non-scaling-stroke" d="M 238.760327 160.359758 Q 239.669075 155.676208 240.050857 151.062562 Q 240.21755 149.029976 238.765704 147.98142 Q 235.119955 145.346587 234.453181 144.572269 C 234.318751 144.41633 234.20583 144.249636 234.10904 144.072189 Q 233.227177 142.448271 233.114256 141.754611 Q 231.04403 129.161185 232.877659 116.099942 Q 233.883197 108.921367 233.931592 107.759889 C 233.942346 107.512538 233.630468 107.394239 233.474529 107.587819 C 232.366824 108.985893 231.640901 111.830437 230.984881 114.298577 C 228.575891 123.321535 228.371557 132.995136 229.29106 142.561193 Q 230.94724 159.886563 239.281916 175.496604" style="fill:none;stroke-width:0.50;stroke:#755f3a;"/>
		<path vector-effect="non-scaling-stroke" d="M 188.671616 170.528062 C 188.537185 170.850694 188.714633 171.221722 189.053397 171.318512 Q 191.166641 171.936891 193.1347 171.07116 C 193.306771 170.995879 193.494973 170.968993 193.683175 170.990502 C 194.253159 171.060405 194.737108 171.490582 195.452277 171.506714 C 204.959185 171.737934 212.557182 169.565541 218.423718 161.886885 Q 219.488406 160.499565 219.811039 159.407991 C 219.875565 159.187526 220.02075 159.004701 220.214329 158.881025 Q 221.257508 158.23576 222.375968 156.681746 C 222.548038 156.445149 222.531907 156.117139 222.338327 155.891296 Q 221.924282 155.418102 221.031665 155.283671 Q 202.146904 152.412241 190.709578 167.097402 Q 189.365276 168.818109 188.671616 170.528062" style="fill:none;stroke-width:0.50;stroke:#755f3a;"/>
		<path vector-effect="non-scaling-stroke" d="M 219.176528 159.241298 C 219.165773 159.122999 219.058229 159.042341 218.939931 159.06385 Q 215.3372 159.822037 212.288322 160.709276 Q 203.899874 163.15053 198.097865 167.624368 Q 197.323546 168.215861 196.640641 169.006311 C 196.554605 169.103101 196.656772 169.248286 196.780448 169.205268 Q 199.969134 168.022282 203.88912 166.823164 Q 206.260469 166.097241 211.379573 163.279583 Q 213.643379 162.03207 214.320907 161.736323 C 216.12765 160.945873 217.18696 160.064011 219.101247 159.499404 C 219.149642 159.48865 219.187282 159.440255 219.181905 159.386483 L 219.176528 159.241298" style="fill:none;stroke-width:0.50;stroke:#755f3a;"/>
		<path d="M 238.760327 160.359758 Q 239.669075 155.676208 240.050857 151.062562 Q 240.21755 149.029976 238.765704 147.98142 Q 235.119955 145.346587 234.453181 144.572269 C 234.318751 144.41633 234.20583 144.249636 234.10904 144.072189 Q 233.227177 142.448271 233.114256 141.754611 Q 231.04403 129.161185 232.877659 116.099942 Q 233.883197 108.921367 233.931592 107.759889 C 233.942346 107.512538 233.630468 107.394239 233.474529 107.587819 C 232.366824 108.985893 231.640901 111.830437 230.984881 114.298577 C 228.575891 123.321535 228.371557 132.995136 229.29106 142.561193 Q 230.94724 159.886563 239.281916 175.496604 L 243.728869 182.685933 C 244.003106 183.132242 244.019238 183.696849 243.761132 184.153912 C 243.002945 185.508969 242.12646 186.632806 241.185448 188.138424 Q 237.695639 193.709214 233.361608 197.935701 C 231.458075 199.796216 228.516742 201.85031 226.177655 202.694532 Q 223.553577 203.635544 222.488889 204.011948 C 222.220029 204.108738 221.940414 204.167887 221.655422 204.189396 C 219.423879 204.366844 217.6494 204.780889 215.632946 204.754003 Q 210.970905 204.689477 206.981016 203.936667 Q 204.921544 203.544131 204.184866 203.409701 Q 202.044737 203.011787 201.394094 202.839716 C 197.839759 201.877196 194.634941 201.027597 191.903319 200.043567 Q 176.352427 194.445892 162.715823 183.852788 Q 151.429059 175.082559 141.518861 161.822359 C 129.914842 146.287599 121.434982 128.370735 115.708253 109.631159 Q 114.665074 106.211253 112.530322 98.537974 C 112.369006 97.962613 112.826069 97.398006 113.422939 97.441024 Q 121.757614 98.016385 131.388198 97.69913 Q 134.867252 97.580831 138.491492 96.865662 C 138.738844 96.817267 138.986195 96.790381 139.238924 96.785004 Q 142.65883 96.741986 145.976568 95.870878 Q 146.530421 95.725694 148.175847 95.602018 C 148.455462 95.580509 148.740454 95.526737 149.009315 95.435324 C 151.149444 94.741664 153.418627 94.526576 155.655546 93.945837 Q 173.497129 89.348322 190.101953 80.841576 Q 205.271063 73.066131 218.396832 63.150555 Q 223.548199 59.257455 226.376612 57.036668 Q 227.296115 56.321499 227.989775 57.41845 Q 235.007034 68.517011 240.809044 82.906425 Q 245.69155 95.021279 247.815548 105.711172 Q 249.364185 113.508127 249.918037 121.219046 C 250.305196 126.639274 249.864265 131.150753 249.073815 137.915283 C 248.761937 140.533984 247.901584 143.1258 247.482161 145.346587 C 247.471407 145.416491 247.449898 145.481018 247.417635 145.540167 L 246.691711 146.943619 C 246.61643 147.088803 246.487377 147.19097 246.331438 147.228611 C 244.712898 147.626524 244.202063 146.717776 242.981436 146.201564 C 242.368434 145.93808 241.690906 146.411275 241.723169 147.083426 L 242.018916 152.487522 C 242.024293 152.573558 242.018916 152.659593 241.997407 152.740251 L 241.319879 155.643944 C 241.314501 155.665453 241.309124 155.686962 241.29837 155.708471 L 238.760327 160.359758 Z M 224.596755 114.212541 Q 227.67252 111.631481 229.205024 107.905074 C 230.038492 105.88862 229.032954 104.786292 227.392905 103.522648 C 227.253097 103.415104 227.097158 103.339823 226.925087 103.296805 Q 226.209918 103.11398 225.349565 102.55475 C 225.268907 102.506355 225.177494 102.468715 225.086082 102.441829 L 220.225084 101.242711 C 220.171312 101.226579 220.11754 101.221202 220.05839 101.215825 Q 216.885836 101.006114 213.799318 101.156676 Q 212.331339 101.231957 211.438723 101.7643 C 211.288161 101.855713 211.121467 101.920239 210.949396 101.947125 Q 209.250198 102.215986 207.362797 103.355954 Q 203.281495 105.813339 200.781092 110.217274 Q 199.442167 112.588624 198.619454 115.841836 Q 197.81825 119.035899 198.442006 121.918083 C 198.485024 122.111663 198.571059 122.294488 198.700112 122.44505 C 200.625153 124.71961 203.46432 124.66046 206.16368 124.079722 Q 216.584713 121.837425 224.333272 114.535174 Q 224.381667 114.486779 224.424685 114.433007 C 224.494588 114.325463 224.559115 114.244805 224.596755 114.212541 Z M 145.438847 140.738318 Q 146.788527 142.485912 148.912525 142.819299 Q 161.027379 144.722831 171.916229 138.888558 Q 176.325541 136.527963 178.782926 133.328523 C 178.890471 133.188716 178.971129 133.032776 179.030278 132.87146 Q 180.089588 129.774187 178.169924 127.983576 Q 175.529714 125.520814 171.426903 124.095853 Q 170.598813 123.805484 166.963819 122.885981 Q 164.931233 122.375146 159.968069 122.735419 C 159.602418 122.762305 159.247522 122.853718 158.914135 122.998903 Q 157.623605 123.56351 156.741743 123.660299 C 156.569672 123.676431 156.397601 123.724826 156.236285 123.79473 Q 152.493747 125.445533 149.832028 128.585824 Q 149.294307 129.214957 149.262044 129.263352 Q 146.132507 133.651156 145.191496 138.415364 Q 145.078574 138.974593 145.229136 140.227483 C 145.250645 140.415686 145.320549 140.593134 145.438847 140.738318 Z M 188.671616 170.528062 C 188.537185 170.850694 188.714633 171.221722 189.053397 171.318512 Q 191.166641 171.936891 193.1347 171.07116 C 193.306771 170.995879 193.494973 170.968993 193.683175 170.990502 C 194.253159 171.060405 194.737108 171.490582 195.452277 171.506714 C 204.959185 171.737934 212.557182 169.565541 218.423718 161.886885 Q 219.488406 160.499565 219.811039 159.407991 C 219.875565 159.187526 220.02075 159.004701 220.214329 158.881025 Q 221.257508 158.23576 222.375968 156.681746 C 222.548038 156.445149 222.531907 156.117139 222.338327 155.891296 Q 221.924282 155.418102 221.031665 155.283671 Q 202.146904 152.412241 190.709578 167.097402 Q 189.365276 168.818109 188.671616 170.528062 Z" style="fill:#070606;"/>
		<path d="M 314.745681 79.750003 Q 315.159726 79.873678 315.589903 80.002732 Q 341.061747 87.735159 364.527891 93.144633 Q 373.308875 95.166464 376.49756 95.779466 C 377.040659 95.881633 377.3848 96.419354 377.255747 96.962452 L 376.782553 98.860607 C 376.664254 99.360687 376.169551 99.672566 375.664093 99.581153 Q 343.658939 93.601696 313.32072 84.487325 Q 282.982501 75.367577 252.983047 62.715001 C 252.509852 62.516045 252.273255 61.983701 252.445326 61.499752 L 253.101346 59.655369 C 253.289548 59.13378 253.875664 58.870296 254.381122 59.085385 Q 257.381605 60.332897 265.823824 63.483942 Q 288.386598 71.904653 313.901459 79.497274 Q 314.331636 79.626327 314.745681 79.750003 Z" style="fill:#070606;"/>
		<path d="M 238.760327 160.359758 Q 238.432317 161.177093 238.410808 161.419068 Q 237.873087 167.995396 239.281916 175.496604 Q 230.94724 159.886563 229.29106 142.561193 C 228.371557 132.995136 228.575891 123.321535 230.984881 114.298577 C 231.640901 111.830437 232.366824 108.985893 233.474529 107.587819 C 233.630468 107.394239 233.942346 107.512538 233.931592 107.759889 Q 233.883197 108.921367 232.877659 116.099942 Q 231.04403 129.161185 233.114256 141.754611 Q 233.227177 142.448271 234.10904 144.072189 C 234.20583 144.249636 234.318751 144.41633 234.453181 144.572269 Q 235.119955 145.346587 238.765704 147.98142 Q 240.21755 149.029976 240.050857 151.062562 Q 239.669075 155.676208 238.760327 160.359758 Z" style="fill:#e3b86e;"/>
		<path d="M 287.924157 128.080366 C 287.628411 128.462148 287.106822 128.585824 286.671268 128.365358 Q 282.073753 126.047781 278.777523 124.547539 Q 274.067087 122.402032 266.060422 120.563026 Q 265.049506 120.331806 261.393003 120.143604 Q 261.048862 120.122095 259.355041 119.304759 C 259.139952 119.197215 258.957127 119.030522 258.838829 118.826188 Q 257.257929 116.132205 257.634334 113.927549 Q 257.806404 112.895125 258.973259 112.136938 Q 261.941479 110.211897 266.291642 109.002025 Q 267.743488 108.604111 268.813553 108.544962 Q 271.201034 108.421286 271.389237 108.362137 C 271.711869 108.308365 272.039879 108.29761 272.362512 108.335251 L 275.707136 108.690147 C 275.949111 108.717033 276.185708 108.792314 276.400796 108.921367 Q 277.352563 109.491351 278.202162 109.684931 C 278.304329 109.706439 278.395741 109.738703 278.487154 109.787098 Q 284.057943 112.658528 286.192696 117.584052 Q 288.402729 122.670893 288.133869 127.252276 Q 288.096228 127.854523 287.924157 128.080366 Z" style="fill:#070606;"/>
		<path d="M 324.370887 136.893613 Q 324.053631 136.248348 323.182523 136.350515 Q 322.429714 136.43655 321.752186 136.30212 Q 317.584848 135.463275 310.524571 134.941686 C 309.981473 134.898668 309.648086 134.323307 309.89006 133.833981 Q 311.056915 131.430368 313.154027 129.704283 C 317.520321 126.10693 322.601785 124.106608 328.274741 124.789514 C 329.78036 124.966961 330.732126 125.467042 332.087183 125.838069 C 332.84537 126.042403 333.565916 126.370413 334.227313 126.80059 Q 335.786704 127.827637 335.894248 127.897541 Q 336.932049 128.596578 337.437507 129.080527 Q 340.093849 131.629325 341.766161 134.887914 C 342.80934 136.915122 344.094493 138.797146 342.271619 140.85124 C 341.470415 141.754611 339.781971 142.926843 338.545212 143.346265 C 338.367764 143.405414 338.179562 143.421546 337.996737 143.383906 Q 336.824505 143.16344 335.792081 142.502043 Q 330.635336 139.184305 324.822572 137.28615 C 324.623616 137.227 324.462299 137.081816 324.370887 136.893613 Z" style="fill:#070606;"/>
		<path d="M 292.113004 137.544256 C 292.446391 137.45822 292.758269 137.743212 292.709874 138.087354 Q 292.537804 139.275717 291.553774 141.716971 Q 288.918941 148.27179 287.574639 151.186237 Q 287.467095 151.422835 286.380898 153.272595 C 286.230336 153.530701 285.966853 153.708149 285.665729 153.745789 Q 283.251362 154.063045 282.009226 153.611359 Q 280.32616 153.003734 278.874313 152.509031 C 278.132258 152.256302 277.841889 151.363685 278.293574 150.723797 Q 282.864203 144.2819 289.322232 138.936953 Q 290.526727 137.942169 292.113004 137.544256 Z" style="fill:#070606;"/>
		<path d="M 301.243507 140.399554 Q 302.028579 142.136393 302.480265 144.894902 Q 303.206188 149.314968 303.614856 156.305341 Q 303.695514 157.719547 303.501935 158.493866 C 303.367505 159.020832 302.867424 159.364974 302.324326 159.311202 L 300.006748 159.06385 C 299.850809 159.047718 299.700247 158.999323 299.56044 158.92942 Q 298.033312 158.13897 297.533232 158.026048 C 297.334275 157.977654 297.146073 157.891618 296.984756 157.77332 Q 294.753214 156.138648 295.452251 153.503815 Q 297.334275 146.438161 299.985239 140.410309 C 300.221837 139.861833 300.996155 139.856456 301.243507 140.399554 Z" style="fill:#070606;"/>
		<path d="M 264.909699 166.828541 Q 266.587388 165.892907 268.297341 165.661687 Q 270.652559 165.339054 271.684983 165.086325 Q 274.459624 164.408797 277.771985 164.521718 C 279.697026 164.591622 281.509146 165.140097 283.547109 165.46273 Q 284.423594 165.59716 285.810914 166.02196 Q 292.521672 168.059922 298.479621 172.877902 Q 300.065898 174.157678 301.039173 175.163217 Q 303.109398 177.297969 304.217104 179.464985 C 304.47521 179.970442 304.120314 180.578067 303.55033 180.588822 Q 294.054177 180.80391 284.665568 178.023892 Q 281.041329 176.953828 278.137635 175.824613 Q 272.642127 173.695238 267.340198 169.958077 Q 266.076553 169.070838 264.780646 167.662009 C 264.544048 167.40928 264.608575 167.000612 264.909699 166.828541 Z" style="fill:#070606;"/>
		<path d="M 188.671616 170.528062 Q 189.365276 168.818109 190.709578 167.097402 Q 202.146904 152.412241 221.031665 155.283671 Q 221.924282 155.418102 222.338327 155.891296 C 222.531907 156.117139 222.548038 156.445149 222.375968 156.681746 Q 221.257508 158.23576 220.214329 158.881025 C 220.02075 159.004701 219.875565 159.187526 219.811039 159.407991 Q 219.488406 160.499565 218.423718 161.886885 C 212.557182 169.565541 204.959185 171.737934 195.452277 171.506714 C 194.737108 171.490582 194.253159 171.060405 193.683175 170.990502 C 193.494973 170.968993 193.306771 170.995879 193.1347 171.07116 Q 191.166641 171.936891 189.053397 171.318512 C 188.714633 171.221722 188.537185 170.850694 188.671616 170.528062 Z M 219.176528 159.241298 C 219.165773 159.122999 219.058229 159.042341 218.939931 159.06385 Q 215.3372 159.822037 212.288322 160.709276 Q 203.899874 163.15053 198.097865 167.624368 Q 197.323546 168.215861 196.640641 169.006311 C 196.554605 169.103101 196.656772 169.248286 196.780448 169.205268 Q 199.969134 168.022282 203.88912 166.823164 Q 206.260469 166.097241 211.379573 163.279583 Q 213.643379 162.03207 214.320907 161.736323 C 216.12765 160.945873 217.18696 160.064011 219.101247 159.499404 C 219.149642 159.48865 219.187282 159.440255 219.181905 159.386483 L 219.176528 159.241298 Z" style="fill:#e3b86e;"/>
		<path d="M 219.176528 159.241298 L 219.181905 159.386483 C 219.187282 159.440255 219.149642 159.48865 219.101247 159.499404 C 217.18696 160.064011 216.12765 160.945873 214.320907 161.736323 Q 213.643379 162.03207 211.379573 163.279583 Q 206.260469 166.097241 203.88912 166.823164 Q 199.969134 168.022282 196.780448 169.205268 C 196.656772 169.248286 196.554605 169.103101 196.640641 169.006311 Q 197.323546 168.215861 198.097865 167.624368 Q 203.899874 163.15053 212.288322 160.709276 Q 215.3372 159.822037 218.939931 159.06385 C 219.058229 159.042341 219.165773 159.122999 219.176528 159.241298 Z" style="fill:#070606;"/>
	</g>
	<g id="surface4">
	</g>
</svg>
