<?xml version="1.0" encoding="utf-8"?>
<svg xmlns="http://www.w3.org/2000/svg" width="490pt" height="280pt" viewBox="0 0 490 280" version="1.1" xmlns:xlink="http://www.w3.org/1999/xlink">
	<g id="surface2" data-size="109.12693890112 148" data-bboxpos="190.5 55.157849142999" data-pivot="245.06346945056 129.157849143" data-center="245.06346945056 129.157849143">
		<path d="M 245.146878 55.157849 Q 245.879506 55.162428 246.515976 55.753109 Q 257.592395 66.092321 261.260113 80.850195 C 261.617269 82.292556 261.585217 83.702865 261.878268 85.140647 Q 261.974425 85.612276 262.001899 86.866902 Q 262.12553 92.242559 261.511954 95.608069 Q 261.250955 97.032114 260.344328 99.980942 Q 259.799436 101.748407 258.663863 104.175237 Q 255.56851 110.773467 252.093106 116.455912 Q 250.110432 119.697791 248.622281 121.337046 C 247.468392 122.609987 246.71287 123.086195 245.041562 123.086195 C 243.370255 123.081616 242.619311 122.600829 241.470001 121.327888 Q 239.981851 119.684054 238.012913 116.433018 Q 234.551246 110.741415 231.478788 104.134026 Q 230.347793 101.702617 229.812059 99.935153 Q 228.91459 96.981746 228.653591 95.557701 Q 228.053752 92.192191 228.19112 86.816534 Q 228.223172 85.561908 228.31933 85.090279 C 228.61696 83.652497 228.589486 82.242188 228.951221 80.799827 Q 232.664729 66.05569 243.7732 55.74853 Q 244.409671 55.157849 245.146878 55.157849 Z" style="fill:#eb6095;"/>
		<path d="M 265.623828 93.249923 Q 265.596355 93.194976 265.719986 92.645505 Q 266.232825 90.333148 266.223667 89.948518 C 266.219089 89.792835 266.241983 89.637151 266.283193 89.490626 Q 267.180663 86.354062 267.377556 85.827486 Q 269.140442 81.166141 273.339316 78.409628 Q 275.459358 77.017635 277.185613 76.431533 Q 278.357818 76.037745 280.450386 75.350907 Q 281.224224 75.094487 282.172062 75.5478 C 282.327745 75.621063 282.437639 75.758431 282.47885 75.927851 C 282.923005 77.722789 282.107957 80.245777 281.595117 81.646928 Q 279.749811 86.679166 274.81373 88.213106 C 274.68552 88.254316 274.561889 88.304684 274.447416 88.368789 C 271.718377 89.875255 269.122127 90.937566 266.887612 93.43308 C 266.521298 93.845183 265.857354 93.744447 265.623828 93.249923 Z" style="fill:#eb6095;"/>
		<path d="M 224.44556 93.790236 C 224.35856 94.124497 223.937299 94.225234 223.703774 93.968814 Q 220.677105 90.644515 216.881176 88.936576 Q 213.176826 87.265268 211.816886 86.102221 C 209.692265 84.293546 208.336903 81.985768 207.975168 79.302518 C 207.737064 77.50758 207.03191 74.773962 210.099789 75.556958 C 215.109132 76.829899 219.422479 79.247571 221.785205 83.799022 C 222.78341 85.717592 223.717511 88.332158 224.111298 90.905513 C 224.257824 91.85793 224.665348 92.956871 224.44556 93.790236 Z" style="fill:#eb6095;"/>
		<path d="M 243.443518 129.125797 Q 243.452676 128.988429 243.420623 126.753914 C 243.406886 126.025865 243.992989 125.430605 244.721038 125.430605 L 245.39414 125.430605 C 246.167978 125.430605 246.790712 126.067075 246.776975 126.840913 Q 246.635028 134.05272 246.653344 134.194666 Q 246.795291 135.215766 246.726607 141.754471 Q 246.685396 145.935029 246.685396 149.305117 Q 246.680817 190.639069 246.694554 194.293051 Q 246.699133 196.994617 246.502239 202.310748 C 246.483924 202.782377 246.094715 203.157849 245.623086 203.157849 L 244.734774 203.157849 C 244.125777 203.157849 243.635833 202.663325 243.640411 202.058907 Q 243.686201 194.329683 243.741148 132.019677 Q 243.741148 130.746736 243.374834 129.863004 C 243.324466 129.74853 243.168782 129.734794 243.100098 129.840109 Q 242.555206 130.678052 242.353734 131.479364 C 242.317102 131.630468 242.252997 131.776994 242.165998 131.905204 C 240.371059 134.625085 237.829756 136.598602 234.738982 137.844069 Q 233.484357 138.347751 233.008149 138.466803 Q 228.346803 139.625271 225.416292 139.721428 Q 220.970156 139.867954 217.97096 139.057484 C 216.066128 138.540066 213.295878 137.642596 212.883775 135.696553 C 212.425883 133.53988 214.3124 132.253202 216.107338 131.534311 Q 217.24749 131.07184 219.454532 131.07184 Q 222.091992 131.067261 226.258814 130.746736 Q 227.824806 130.627684 228.44754 130.458264 C 229.633481 130.137739 230.164636 130.215581 231.323104 129.762267 Q 232.293836 129.382216 233.227937 129.299796 C 234.551246 129.180744 235.489926 128.448116 236.83613 128.242064 C 236.941445 128.223749 237.042181 128.177959 237.124602 128.113854 L 238.571542 126.973702 C 238.699752 126.872966 238.653963 126.671493 238.4937 126.630283 C 237.316917 126.337232 235.572346 126.859229 234.226143 127.285069 C 234.020091 127.353753 233.804882 127.390384 233.585093 127.399542 Q 231.753523 127.486542 229.486956 128.09096 C 229.056537 128.205433 228.61696 128.269538 228.172804 128.283275 C 222.861252 128.484747 219.67432 128.750325 215.447973 127.903224 Q 212.499145 127.312543 209.783843 125.943444 Q 200.658047 121.327888 195.561703 112.041829 Q 191.056042 103.822659 190.51115 94.243549 C 190.428729 92.837819 190.776727 91.999876 192.219089 91.702246 Q 195.506756 91.019986 195.905123 90.96046 Q 196.903328 90.800198 201.376938 90.79104 C 212.627355 90.763567 223.264197 96.954273 228.539118 106.803539 Q 233.397357 115.860652 234.052143 116.987068 Q 236.909392 121.881938 238.87833 123.823402 Q 239.711694 124.647608 241.982841 126.868387 C 242.060683 126.94165 242.120209 127.028649 242.161419 127.120228 L 243.118414 129.185323 C 243.191677 129.341006 243.429781 129.299796 243.443518 129.125797 Z" style="fill:#eb6095;"/>
		<path d="M 252.322052 126.451705 C 251.859581 126.396758 251.616898 126.978281 251.983212 127.266753 Q 253.109627 128.159644 254.524515 128.663325 Q 261.873689 131.277891 270.51412 130.94363 Q 273.737683 130.819999 276.201144 132.72941 C 278.568448 134.565559 277.533611 136.822969 275.19836 137.963121 Q 273.421737 138.828538 272.148796 139.089537 Q 268.719181 139.785533 265.793249 139.780954 Q 264.291361 139.780954 263.109999 139.579481 C 261.814163 139.359693 260.664853 139.368851 259.565911 139.11701 C 255.715036 138.219541 251.772582 136.452076 249.116805 133.503249 Q 245.961926 129.995792 248.741333 126.21818 C 248.819175 126.112864 248.901596 126.021286 248.997753 125.938865 Q 252.84405 122.522987 255.087723 118.887321 Q 257.05666 115.686653 260.298539 109.202896 C 260.989957 107.815482 261.99732 106.020543 262.63837 105.01318 Q 266.599139 98.740053 273.362211 94.797599 Q 276.791825 92.796609 280.825858 91.743456 C 282.144588 91.400037 284.177631 90.868882 285.729886 90.83225 Q 291.824435 90.681146 293.875793 90.937566 Q 294.814472 91.052039 298.637875 91.802982 Q 299.626922 91.995297 299.626922 93.249923 Q 299.63608 102.88398 294.617579 112.050987 Q 292.332695 116.222387 289.41592 119.358951 Q 288.05598 120.819627 287.108142 121.561413 C 285.995464 122.42683 285.139205 123.415878 283.783843 124.194295 Q 282.565849 124.890291 281.343276 125.604604 Q 280.015388 126.378442 279.452181 126.538704 C 278.595922 126.776808 277.877031 127.285069 276.778089 127.413279 Q 276.242354 127.477384 273.902524 128.159644 C 273.650683 128.228327 273.398842 128.278696 273.142422 128.30159 Q 269.346494 128.654167 264.712622 128.461853 Q 262.029373 128.347379 258.499022 127.646804 Q 252.834892 126.51581 252.322052 126.451705 Z" style="fill:#eb6095;"/>
	</g>
	<g id="surface4">
	</g>
</svg>
