<?xml version="1.0" encoding="utf-8"?>
<svg xmlns="http://www.w3.org/2000/svg" width="490pt" height="280pt" viewBox="0 0 490 280" version="1.1" xmlns:xlink="http://www.w3.org/1999/xlink">
	<g id="surface2" data-size="107.90575666693 148" data-bboxpos="191 54.698567804408" data-pivot="244.95287833347 128.69856780441" data-center="244.95287833347 128.69856780441">
		<path d="M 244.587527 202.532208 C 233.644729 193.990214 222.51926 185.165517 212.111424 175.766715 C 204.508876 168.899195 197.476084 161.292298 194.209772 151.523806 C 193.048513 148.044379 192.265642 144.116976 191.930747 140.559261 Q 191.743728 138.619481 191.66979 138.271538 Q 191.400134 136.992849 191.430579 135.979465 C 191.534962 132.739249 191.030445 129.103248 191.026096 125.706457 Q 191.008699 117.455865 191 74.206586 C 191 73.732514 191.382737 73.345428 191.856809 73.336729 Q 194.288059 73.297586 196.193045 72.836562 Q 197.471734 72.527763 199.315831 72.327696 C 200.47709 72.205916 201.942798 71.757939 203.386761 71.453489 Q 224.637362 66.960679 243.71767 55.087134 Q 244.926771 54.334708 246.070633 55.039292 Q 253.507908 59.623437 259.992691 62.572252 Q 260.705973 62.898448 263.70263 64.229329 Q 265.803334 65.168774 267.429966 65.764626 Q 275.067309 68.578613 279.621009 69.739872 Q 285.096757 71.140341 290.716032 72.245059 C 291.5163 72.401633 292.273076 72.392935 292.929818 72.553858 Q 295.578531 73.197552 298.044575 73.310634 C 298.527346 73.33238 298.910083 73.732514 298.905734 74.215285 Q 298.901384 75.767979 298.801351 122.666307 C 298.797002 126.380596 298.409915 129.612114 298.44036 132.926268 Q 298.462107 135.28358 298.114164 137.95839 C 297.874953 139.815534 297.600948 142.868731 297.109479 145.352172 Q 296.839824 146.696101 296.613661 147.722532 Q 295.300177 153.576668 292.242631 158.856699 Q 289.385151 163.784437 285.531686 168.011941 Q 279.773234 174.322752 272.392499 180.646611 Q 265.485836 186.561637 262.115141 189.284289 Q 253.568798 196.182253 245.553068 202.532208 C 245.270365 202.754021 244.87023 202.754021 244.587527 202.532208 Z M 243.943833 187.083551 C 244.191742 187.27057 244.548383 187.096599 244.552733 186.783451 Q 244.557082 186.05712 244.57013 185.061134 Q 244.826738 169.438506 244.761498 125.341117 Q 244.718005 98.78004 244.857183 89.020247 C 244.939819 83.309637 244.718005 76.25075 244.657116 69.44847 C 244.652766 69.01789 244.126503 68.804776 243.830752 69.117924 Q 243.508905 69.457168 242.730383 69.87035 Q 231.970254 75.589658 221.971251 79.10388 Q 218.926752 80.173804 211.185027 82.374541 C 209.423567 82.874709 207.45769 83.079125 205.63534 83.605389 C 205.187364 83.735867 204.878565 84.1447 204.874216 84.614423 Q 204.822024 110.37958 204.869866 134.474613 Q 204.878565 141.076826 205.522259 145.447856 Q 206.309479 150.836619 208.871208 154.78142 Q 210.998007 158.056431 211.920056 159.113306 Q 216.486804 164.332447 222.166968 169.299329 Q 226.807654 173.361561 240.74276 184.595761 Q 241.89532 185.526508 243.943833 187.083551 Z M 245.740087 186.913929 Q 246.127173 186.992216 246.505561 186.713862 Q 248.349658 185.356886 257.874589 177.649954 Q 265.507583 171.469622 271.366068 166.028668 Q 275.123849 162.536193 278.194444 158.721871 Q 280.303846 156.103602 282.278421 152.241438 Q 283.470125 149.905872 284.087723 146.356857 Q 284.848848 141.937984 284.914087 140.233065 Q 284.966279 138.889136 284.974977 84.405657 C 284.979327 84.109906 284.77491 83.853298 284.483508 83.783709 Q 278.651118 82.435431 273.258006 80.787053 Q 259.75348 76.655233 248.145241 70.244389 Q 247.471102 69.874699 246.622992 69.248403 C 246.222858 68.957 245.666149 69.248403 245.674848 69.739872 Q 245.822724 78.077449 245.609609 88.841926 C 245.60091 89.242061 245.683547 89.79007 245.727039 90.425066 Q 245.800977 91.538483 245.718341 184.787129 Q 245.718341 185.722225 245.531322 186.600781 C 245.500877 186.744307 245.596561 186.883484 245.740087 186.913929 Z" style="fill:#072c6d;"/>
	</g>
	<g id="surface4">
	</g>
</svg>
