<?xml version="1.0" encoding="utf-8"?>
<svg xmlns="http://www.w3.org/2000/svg" width="490pt" height="280pt" viewBox="0 0 490 280" version="1.1" xmlns:xlink="http://www.w3.org/1999/xlink">
	<g id="surface2" data-size="133.87487649263 148" data-bboxpos="178 50.684283560827" data-pivot="244.93743824631 124.68428356083" data-center="244.93743824631 124.68428356083">
		<path d="M 276.357776 104.923083 C 276.339039 104.988663 276.250037 104.998031 276.217247 104.939478 Q 273.252096 99.817214 271.167589 96.381292 Q 267.612218 90.514227 263.323757 85.061721 C 260.981615 82.082516 259.311668 80.154934 257.229504 77.206177 Q 254.824124 73.800703 252.306322 70.620074 C 251.617732 69.748798 251.980764 67.933638 251.709076 66.863279 C 251.175067 64.762378 249.673754 63.275118 247.598617 62.65445 C 245.888853 62.141521 245.172158 62.181338 245.165131 60.061699 Q 245.151079 55.754501 245.211974 51.278668 C 245.219001 50.739975 245.516453 50.564314 246.001276 50.761054 C 250.184341 52.466134 253.863846 54.426506 256.971868 57.398684 Q 261.524992 61.750384 263.848396 67.877426 Q 265.349709 71.837988 266.183512 74.796113 Q 266.497359 75.910973 269.040925 84.59095 Q 270.795189 90.575122 272.507295 95.175089 Q 273.95708 99.070071 275.025097 101.43095 Q 275.788635 103.117292 276.32967 104.644368 Q 276.390566 104.813002 276.357776 104.923083 Z" style="fill:#212121;"/>
		<path d="M 213.885828 105.522671 Q 213.878802 105.218193 214.016988 104.951189 Q 214.506496 104.014332 214.960871 102.906499 Q 218.263291 94.87061 220.343113 87.38981 Q 221.701555 82.506444 223.912537 74.477582 C 224.612837 71.929332 225.395113 69.645743 226.292153 67.331707 Q 227.193878 65.008303 228.634295 62.652108 Q 231.889872 57.326078 237.44309 54.065816 Q 240.490216 52.27642 243.366367 51.152192 Q 243.544369 51.08427 243.759846 51.072559 C 243.862901 51.067875 243.923796 51.187324 243.858216 51.269299 Q 243.017387 52.297499 242.401404 53.222645 Q 241.874422 54.014289 241.787763 54.670089 C 241.591023 56.150323 243.537343 57.377605 242.214033 58.956208 C 240.405899 61.115663 238.73361 63.193143 238.084837 65.532942 Q 237.857649 66.359719 237.454801 67.631502 C 237.429037 67.708792 237.396247 67.781399 237.356431 67.849321 C 237.192481 68.118667 236.937187 68.514489 236.695947 68.769782 Q 234.76368 70.814472 233.508292 73.081665 Q 232.800965 74.358133 232.346589 76.217793 Q 231.871135 78.166455 230.472876 79.892614 Q 229.625021 80.941893 227.809861 83.075584 Q 226.947953 84.092074 225.383402 86.79959 Q 221.858479 92.910238 218.303107 98.988096 Q 216.897822 101.395817 214.998345 104.17594 Q 214.513522 104.885609 213.972487 105.553119 C 213.944381 105.588251 213.885828 105.567172 213.885828 105.522671 Z" style="fill:#212121;"/>
		<path d="M 246.875363 78.943836 C 246.404124 79.541292 245.539874 79.644347 244.941433 79.174443 L 244.628523 78.928213 C 244.031535 78.456881 243.928481 77.592631 244.397916 76.994284 L 244.536969 76.817592 C 245.008208 76.220135 245.872458 76.117081 246.470899 76.586985 L 246.783809 76.833214 C 247.380798 77.304547 247.483852 78.168797 247.014416 78.767144 L 246.875363 78.943836 Z" style="fill:#212121;"/>
		<path d="M 245.057393 198.650913 Q 245.055051 198.648571 244.956681 198.587675 C 244.891101 198.547858 244.844258 198.482279 244.825521 198.409672 C 244.558517 197.430657 244.58428 196.770173 244.42033 195.690446 Q 243.319524 188.408727 243.157916 187.064337 Q 243.017387 185.900293 242.876859 185.122702 C 242.684803 184.057027 242.616881 182.963247 242.408431 181.813255 C 242.204664 180.70308 242.185927 179.9372 241.984503 178.77784 C 241.790105 177.658296 241.703446 176.686307 241.492653 175.489473 Q 241.345098 174.650986 241.286545 174.180215 Q 240.649482 169.109478 239.558044 163.891187 Q 236.923134 151.288122 229.805366 140.39482 Q 226.858951 135.886197 223.448793 132.262904 Q 221.769477 130.478192 218.764509 127.510698 C 216.947007 125.716618 215.241928 123.547794 214.309756 121.282943 Q 212.365778 116.554159 213.668009 111.609898 Q 214.438573 108.686905 216.333366 105.796702 Q 221.176915 98.409587 223.137288 95.273459 C 224.601127 92.933659 226.397549 91.015445 228.842745 89.729609 C 230.967068 88.612408 232.932125 87.689604 235.185265 86.457637 Q 238.218339 84.801743 239.759468 84.080363 Q 240.25366 83.848491 242.225743 83.178639 Q 243.193048 82.848397 244.101799 82.846055 C 244.750572 82.843712 245.734272 82.630577 246.643023 82.740658 Q 248.37855 82.951451 249.690149 83.394116 Q 255.953036 85.504385 261.419595 89.635924 C 264.042794 91.619718 266.11559 93.833042 268.047857 96.409398 Q 271.094983 100.473014 273.994555 105.789675 C 275.5755 108.686905 276.449119 111.303077 276.720808 114.382994 C 276.873047 116.102126 276.601358 117.608123 276.224274 119.069619 C 275.59658 121.514815 274.071845 123.929564 272.40424 125.803277 C 271.37604 126.957953 270.74132 127.707438 269.95436 128.503766 Q 266.295935 132.206693 265.729136 132.825018 Q 258.093754 141.134937 253.711607 151.613679 Q 251.68097 156.473624 250.505215 162.186107 Q 250.025076 164.525907 249.772124 166.230986 Q 249.479357 168.219465 249.441882 168.418547 C 249.247485 169.486563 249.226405 170.299286 249.048402 171.334513 C 248.790767 172.826457 248.734555 174.236427 248.490973 175.587843 C 248.287206 176.721439 248.298917 177.583347 248.095151 178.77784 Q 247.891384 179.977016 247.832831 181.047375 C 247.764909 182.262947 247.488536 183.457439 247.387824 184.712827 Q 247.273059 186.143876 247.102083 187.054969 C 246.888948 188.19325 246.900658 189.027052 246.699234 190.179386 C 246.476731 191.434774 246.427546 192.715925 246.198016 193.931497 Q 245.947407 195.245439 245.938038 195.854395 C 245.926327 196.535959 245.729588 197.297155 245.584375 198.325355 C 245.546901 198.594701 245.279896 198.758651 245.057393 198.650913 Z" style="fill:#212121;"/>
		<path d="M 181.325373 191.547197 L 181.044316 190.97103 C 181.004499 190.893739 180.967025 190.814106 180.931893 190.734474 Q 180.892077 190.652499 180.41428 188.753022 Q 179.315815 184.403664 178.627226 179.152582 Q 178.542908 178.508493 178.322747 176.386513 C 178.210324 175.299759 178.037006 173.688366 178.020611 172.308844 Q 177.969084 167.692483 178.046374 164.628961 C 178.07448 163.514102 178.308694 162.293846 178.282931 161.396806 C 178.259509 160.555977 178.512461 159.801807 178.503092 158.902425 C 178.493723 158.108439 178.765412 157.14816 178.753701 156.326069 C 178.751359 156.194909 178.770096 156.066091 178.805228 155.941957 C 179.016021 155.215893 178.962152 154.35867 179.074575 153.520183 Q 179.306447 151.779971 179.66011 148.695371 Q 179.711637 148.226942 179.847481 147.449351 C 179.941167 146.905974 179.920088 146.446915 180.027826 145.781746 Q 180.243303 144.425646 180.390858 143.088283 Q 180.475175 142.320061 180.615704 141.565891 C 180.842892 140.364372 180.863971 139.357251 181.088817 138.230681 Q 181.112238 138.111232 181.34411 136.42489 Q 181.489323 135.359215 181.664983 134.295883 Q 181.854697 133.148234 182.184939 131.377574 Q 182.423837 130.101107 182.716605 129.606915 C 182.756422 129.541335 182.803264 129.482782 182.857134 129.428912 Q 183.817412 128.499082 185.611492 127.824545 Q 186.644377 127.43575 190.895364 125.953174 Q 199.294285 123.020812 207.30441 118.608217 C 208.159291 118.135105 208.405216 119.029803 208.524665 119.699655 C 208.534034 119.760551 208.548087 119.819105 208.569166 119.875316 Q 209.36081 122.198721 210.08219 123.484557 Q 211.934824 126.791661 214.860159 130.192451 Q 217.38733 133.131839 220.174479 136.558392 Q 223.764982 140.973329 226.039202 144.847232 Q 228.055786 148.280812 228.941115 150.721323 Q 229.35099 151.85492 229.746812 153.658369 Q 229.990395 154.759176 230.05129 156.675048 Q 230.107502 158.387153 230.388559 160.445896 C 230.468192 161.031431 230.489271 161.912077 230.552509 162.474191 Q 230.908514 165.713373 232.081927 172.540716 Q 232.332537 174.006897 232.444959 175.030413 C 232.557382 176.086719 232.78457 177.285895 232.807991 178.365623 Q 232.864203 180.848293 232.932125 182.38708 C 232.943836 182.628321 232.634673 182.738401 232.48946 182.546346 L 209.313967 151.927526 C 209.199202 151.775287 208.955619 151.857262 208.955619 152.049318 C 208.93454 156.764049 208.630062 162.806775 208.477823 168.165595 Q 208.414585 170.374235 208.318557 171.292355 C 208.042184 173.960054 208.063263 176.229589 207.704916 178.733339 C 207.529255 179.951253 207.536282 180.810819 207.353595 182.054496 C 206.690768 186.556093 206.308999 189.174607 205.510329 191.832938 Q 205.297194 192.542607 205.023163 192.959508 C 204.847503 193.226512 204.456365 193.231197 204.273678 192.968877 C 204.128465 192.762768 203.955147 192.388026 203.831013 192.017967 Q 202.863709 189.137133 201.931536 183.904788 Q 200.992337 178.641995 200.425539 172.547743 Q 200.196009 170.072099 199.961795 167.043709 Q 199.676054 163.317362 199.594079 161.064221 Q 199.528499 159.218614 199.418418 157.904672 C 199.308337 156.550914 199.406707 155.131576 199.261495 153.691159 C 199.076465 151.845551 199.186546 149.573674 199.038991 147.5688 C 198.858646 145.128289 198.931253 142.186559 198.661906 140.270687 C 198.645511 140.169975 198.605695 140.073947 198.544799 139.991972 L 195.591358 136.089964 C 195.425066 135.872144 195.083114 135.93304 195.003481 136.19536 Q 193.497484 141.21457 193.115715 142.652645 C 191.178763 149.992917 189.684477 157.529929 188.230007 165.63374 Q 187.386836 170.322708 186.049473 177.456872 Q 185.31404 181.377617 184.117206 186.127481 Q 183.545723 188.385305 182.688499 190.549444 Q 182.454285 191.13498 182.074858 191.624487 C 181.873434 191.884465 181.468244 191.842307 181.325373 191.547197 Z" style="fill:#212121;"/>
		<path d="M 308.669964 191.547197 C 308.564567 191.715831 308.330353 191.741594 308.189825 191.601066 Q 307.897057 191.303614 307.573841 190.504944 Q 306.868857 188.760048 306.072528 186.024426 Q 305.032617 182.443292 304.208184 178.761445 Q 302.503104 171.126063 302.292312 170.022914 Q 301.922253 168.062541 301.615433 166.697072 Q 301.149346 164.600856 300.919816 163.3806 Q 298.79081 152.05166 295.58676 140.169975 Q 294.973119 137.886386 294.518743 136.577129 C 294.450821 136.385073 294.237686 136.289046 294.057341 136.371021 Q 293.787995 136.492812 293.715388 136.809001 C 293.713046 136.825396 293.70602 136.839449 293.696651 136.85116 L 290.576918 140.776589 C 290.37081 141.036567 290.249019 141.35744 290.230281 141.690025 Q 289.996067 146.121357 289.984357 148.341707 C 289.963277 152.35848 289.642404 156.211304 289.522955 160.356895 Q 289.464401 162.448427 289.319188 164.582118 Q 289.052184 168.512232 289.052184 168.807342 C 289.049842 170.821584 288.750048 172.744482 288.597809 175.067887 C 288.497096 176.604332 288.239461 178.159514 288.11767 179.471114 Q 288.094248 179.747486 287.881113 181.220694 Q 287.67032 182.693901 287.628162 182.965589 Q 286.719411 188.86076 285.653736 192.575397 Q 285.506181 193.09301 285.281336 193.357672 C 285.124412 193.542702 284.831645 193.526307 284.6958 193.324882 Q 284.527166 193.0813 284.410059 192.758084 C 283.550493 190.397205 283.016485 187.76698 282.618321 185.307731 Q 281.772807 180.070702 281.585436 177.639559 Q 281.477698 176.210852 281.391038 175.866557 C 281.365275 175.758819 281.351222 175.648738 281.351222 175.538658 C 281.339511 174.252822 281.107639 173.147331 281.079533 171.859153 C 281.056112 170.699793 280.85703 169.779331 280.878109 168.737078 C 280.903873 167.542586 280.704791 166.233328 280.667317 164.996677 Q 280.43076 157.056817 280.38626 151.826814 C 280.38626 151.805735 280.376891 151.784656 280.358154 151.770603 L 280.241047 151.676917 C 280.105202 151.569179 279.910805 151.587916 279.79604 151.716734 Q 279.058265 152.55522 278.105013 153.871504 Q 270.375946 164.530591 264.31214 172.751509 Q 260.321131 178.161856 257.388769 181.932705 Q 257.255267 182.103681 257.114739 182.216104 C 256.978895 182.3215 256.779812 182.234841 256.768102 182.061522 Q 256.557309 179.147898 257.002316 176.180404 C 257.124107 175.362997 257.199056 174.517484 257.344269 173.782051 Q 258.241309 169.212533 258.857292 165.647793 C 259.072769 164.397089 259.213298 163.029278 259.414722 161.684889 Q 259.475618 161.275014 259.583356 160.092233 Q 259.857387 157.056817 259.920625 156.34949 C 260.026021 155.185446 259.944046 153.574052 260.215734 152.26011 Q 260.524897 150.775193 260.590477 150.585479 C 261.056563 149.238748 261.782627 147.674197 262.574271 146.26657 Q 265.72211 140.682904 269.870043 135.619193 Q 271.741414 133.335605 276.294538 127.993179 Q 277.528847 126.548078 279.100424 124.126303 Q 280.709475 121.648317 281.658042 118.790904 C 281.800913 118.364635 282.435634 118.474715 282.730743 118.641007 Q 284.637247 119.711366 289.949224 122.210431 Q 295.310387 124.730576 303.069903 127.433408 Q 303.557068 127.604384 305.99758 128.681769 C 307.447366 129.323516 307.412234 130.140924 307.662843 131.630526 Q 308.388907 135.993936 309.100918 141.045936 Q 309.613847 144.706703 309.911299 146.786525 Q 310.091644 148.067677 310.180645 149.004533 C 310.276673 150.056155 310.515571 150.995354 310.576467 151.955632 C 310.667811 153.412444 310.991026 154.873941 311.070659 156.25112 Q 311.152634 157.656405 311.445402 159.797123 C 311.527377 160.382658 311.527377 161.120433 311.576562 161.825418 Q 312.091833 169.252349 311.71709 173.800788 Q 311.58593 175.386418 311.541429 176.318591 C 311.468823 177.883142 311.194792 179.154925 311.077685 180.597684 Q 311.035527 181.110613 310.836445 182.368343 Q 310.140829 186.752832 309.054075 190.795369 Q 308.986153 191.045978 308.669964 191.547197 Z" style="fill:#212121;"/>
	</g>
	<g id="surface4">
	</g>
</svg>
