<?xml version="1.0" encoding="utf-8"?>
<svg xmlns="http://www.w3.org/2000/svg" width="490pt" height="280pt" viewBox="0 0 490 280" version="1.1" xmlns:xlink="http://www.w3.org/1999/xlink">
	<g id="surface2" data-size="129.60462286043 148" data-bboxpos="180 51.007906602026" data-pivot="244.80231143022 125.00790660203" data-center="244.80231143022 125.00790660203">
		<path vector-effect="non-scaling-stroke" d="M 218.981545 67.269916 L 218.893907 94.6857 C 218.893907 94.878505 219.049152 95.03375 219.241956 95.03375 L 237.558375 94.948615" style="fill:none;stroke-width:0.50;stroke:#497fc2;"/>
		<path vector-effect="non-scaling-stroke" d="M 237.590926 97.51016 Q 228.892192 97.410001 220.195962 97.40249 Q 219.57999 97.40249 218.984049 97.532695 C 218.911434 97.550223 218.83882 97.557735 218.766205 97.555231 C 217.729568 97.532695 216.662884 97.417513 215.666311 97.415009 Q 211.594883 97.407497 200.289534 97.450065 Q 198.759618 97.455073 197.122033 97.309843" style="fill:none;stroke-width:0.50;stroke:#497fc2;"/>
		<path vector-effect="non-scaling-stroke" d="M 197.740509 94.928584 L 216.289795 94.936096" style="fill:none;stroke-width:0.50;stroke:#497fc2;"/>
		<path vector-effect="non-scaling-stroke" d="M 222.066415 94.870993 L 222.940295 94.865985" style="fill:none;stroke-width:0.50;stroke:#497fc2;"/>
		<path vector-effect="non-scaling-stroke" d="M 223.648914 94.863481 L 224.004475 94.868489" style="fill:none;stroke-width:0.50;stroke:#497fc2;"/>
		<path vector-effect="non-scaling-stroke" d="M 278.119914 94.966143 Q 275.03254 95.194003 271.965197 94.936096 C 271.47943 94.896032 270.765803 95.051277 270.207422 95.048773 Q 267.202678 95.048773 251.347645 94.998694 C 251.342637 94.998694 251.33763 94.99619 251.335126 94.991183 Q 251.315094 94.963639 251.315094 94.928584" style="fill:none;stroke-width:0.50;stroke:#497fc2;"/>
		<path vector-effect="non-scaling-stroke" d="M 287.354494 97.49764 Q 284.0017 97.437545 280.646403 97.447561 Q 278.765934 97.455073 276.307052 97.37745 Q 274.030958 97.304835 271.967701 97.500144 C 271.542029 97.542711 270.961112 97.394978 270.455313 97.397482 Q 267.553231 97.404994 265.267122 97.407497 Q 258.301124 97.415009 251.32511 97.51016" style="fill:none;stroke-width:0.50;stroke:#497fc2;"/>
		<path d="M 241.111484 57.584624 C 241.111484 57.301677 240.851073 57.088841 240.575638 57.146432 C 239.664199 57.334229 238.775296 57.24659 237.811274 57.401836 Q 237.803762 57.40434 234.971791 57.817492 Q 224.838292 59.302336 215.698862 64.996326 Q 204.408537 72.029931 197.815628 83.530588 Q 196.991827 84.967857 195.54955 88.403281 Q 193.791775 92.582379 192.905375 98.03599 Q 192.772666 98.849775 192.772666 99.252911 C 192.772666 100.269516 192.529782 101.023206 192.529782 101.992236 Q 192.537294 140.25765 192.469687 184.690302 C 192.469687 184.933185 192.271875 185.130997 192.028992 185.130997 L 186.592909 185.130997 C 186.277411 185.130997 186.022008 184.875594 186.019504 184.560096 Q 186.014496 116.234722 186.014496 102.906179 Q 186.014496 101.892078 186.154717 100.928056 Q 186.297443 99.93649 186.407616 98.954941 Q 187.116235 92.707577 189.828017 86.054573 Q 192.269371 80.062613 196.476013 74.488813 Q 202.983787 65.865198 212.183312 60.030987 Q 216.447544 57.326717 220.884549 55.518863 Q 225.937527 53.458109 230.950442 52.396433 Q 231.26594 52.328826 232.835919 52.025848 C 234.105423 51.777956 234.951759 51.69783 236.406556 51.487498 Q 237.388106 51.344773 238.086709 51.284678 Q 242.658927 50.891557 247.356344 51.056818 Q 248.530698 51.096881 253.062853 51.647751 Q 256.989052 52.126006 261.616358 53.430566 Q 267.585783 55.115726 273.783067 58.481039 Q 274.939893 59.109532 275.505787 59.502652 C 276.241949 60.013459 277.060742 60.386548 277.789392 60.882331 Q 290.4619 69.50845 297.205046 82.356234 Q 299.46862 86.665538 301.041103 91.91132 Q 301.52687 93.528874 301.767249 94.655653 Q 302.263032 97.001857 302.343158 97.437545 Q 302.433301 97.930824 302.748799 100.209421 Q 302.929083 101.501461 302.976658 102.993817 C 303.046769 105.127185 303.141919 106.173838 303.146927 108.560105 Q 303.22455 147.098451 303.114376 184.732869 C 303.111872 185.010808 302.884012 185.231156 302.606073 185.22114 Q 300.074577 185.130997 297.51804 185.120982 Q 296.846981 185.118478 296.846981 184.477466 Q 296.761846 136.606886 296.761846 136.276365 Q 296.779374 119.114269 296.794398 106.486832 C 296.794398 105.037043 296.719279 103.957839 296.714271 102.705863 Q 296.706759 101.308657 296.506443 99.999089 Q 296.246032 98.311425 296.231008 98.208763 Q 296.038204 96.914219 295.923022 96.423444 Q 294.691077 91.105047 292.580244 86.675554 Q 288.4988 78.107025 281.380061 71.368887 Q 280.608844 70.640237 280.095533 70.244612 C 279.509608 69.796404 279.028849 69.26807 278.360294 68.734728 Q 267.663405 60.198751 254.021867 57.897618 Q 251.194904 57.421867 250.421183 57.359268 Q 248.670919 57.224055 247.561668 57.204023 C 247.34132 57.199015 247.161035 57.376796 247.161035 57.597144 L 247.161035 184.617687 C 247.161035 184.888114 246.940688 185.108462 246.667757 185.108462 L 241.719945 185.108462 C 241.384415 185.108462 241.111484 184.835531 241.111484 184.500001 L 241.111484 57.584624 Z" style="fill:#1955a5;"/>
		<path d="M 218.981545 67.269916 L 218.893907 94.6857 C 218.893907 94.878505 219.049152 95.03375 219.241956 95.03375 L 237.558375 94.948615 Q 238.10674 94.813402 238.236946 95.727345 Q 238.327088 96.353333 238.231938 96.996849 Q 238.139292 97.627845 237.590926 97.51016 Q 228.892192 97.410001 220.195962 97.40249 Q 219.57999 97.40249 218.984049 97.532695 C 218.911434 97.550223 218.83882 97.557735 218.766205 97.555231 C 217.729568 97.532695 216.662884 97.417513 215.666311 97.415009 Q 211.594883 97.407497 200.289534 97.450065 Q 198.759618 97.455073 197.122033 97.309843 Q 196.528596 95.026238 197.740509 94.928584 L 216.289795 94.936096 Q 216.657876 94.988679 216.868208 94.868489 Q 217.066021 94.753307 217.066021 94.352674 Q 217.061013 80.881406 217.056005 67.412641 Q 217.056005 66.754101 217.519236 66.598856 Q 218.781229 66.173184 218.981545 67.269916 Z" style="fill:#1955a5;"/>
		<path d="M 278.119914 94.966143 Q 275.03254 95.194003 271.965197 94.936096 C 271.47943 94.896032 270.765803 95.051277 270.207422 95.048773 Q 267.202678 95.048773 251.347645 94.998694 C 251.342637 94.998694 251.33763 94.99619 251.335126 94.991183 Q 251.315094 94.963639 251.315094 94.928584 Q 251.685679 94.865985 251.808373 94.865985 Q 261.273316 94.923576 270.21243 94.91356 Q 270.73826 94.91356 270.966119 94.720756 C 271.028718 94.665669 271.06127 94.583038 271.051254 94.500408 Q 270.948592 93.581457 270.946088 91.831193 Q 270.936072 81.630088 270.968623 67.530327 C 270.971127 66.991977 271.38428 66.546273 271.920126 66.501202 L 271.977717 66.496194 C 272.478507 66.446115 272.914195 66.84174 272.914195 67.345034 L 272.89166 94.623101 C 272.89166 94.760819 273.001834 94.873497 273.139551 94.876001 L 278.119914 94.966143 Z" style="fill:#78a9df;"/>
		<path d="M 218.981545 67.269916 L 219.044144 94.608078 C 219.044144 94.745795 219.154318 94.855969 219.289531 94.855969 L 222.066415 94.870993 L 222.940295 94.865985 L 223.648914 94.863481 L 224.004475 94.868489 Q 230.234311 94.883513 236.464147 94.903544 Q 236.50421 94.903544 236.974953 94.860977 Q 237.297963 94.833433 237.558375 94.948615 L 219.241956 95.03375 C 219.049152 95.03375 218.893907 94.878505 218.893907 94.6857 L 218.981545 67.269916 Z" style="fill:#78a9df;"/>
		<path d="M 216.289795 94.936096 L 197.740509 94.928584 L 216.289795 94.936096 Z" style="fill:#78a9df;"/>
		<path d="M 222.940295 94.865985 L 222.066415 94.870993 L 222.940295 94.865985 Z" style="fill:#1955a5;"/>
		<path d="M 224.004475 94.868489 L 223.648914 94.863481 L 224.004475 94.868489 Z" style="fill:#1955a5;"/>
		<path d="M 251.315094 94.928584 Q 251.315094 94.963639 251.335126 94.991183 C 251.33763 94.99619 251.342637 94.998694 251.347645 94.998694 Q 267.202678 95.048773 270.207422 95.048773 C 270.765803 95.051277 271.47943 94.896032 271.965197 94.936096 Q 275.03254 95.194003 278.119914 94.966143 Q 286.145084 95.001198 291.057841 94.865985 Q 291.613718 94.850961 291.846586 95.148932 C 291.899169 95.216538 291.926713 95.296665 291.926713 95.379295 L 291.926713 97.004361 C 291.926713 97.071968 291.906681 97.142078 291.871626 97.202173 Q 291.668805 97.545215 291.210582 97.537703 Q 289.282538 97.502648 287.354494 97.49764 Q 284.0017 97.437545 280.646403 97.447561 Q 278.765934 97.455073 276.307052 97.37745 Q 274.030958 97.304835 271.967701 97.500144 C 271.542029 97.542711 270.961112 97.394978 270.455313 97.397482 Q 267.553231 97.404994 265.267122 97.407497 Q 258.301124 97.415009 251.32511 97.51016 Q 250.801784 97.562743 250.461246 97.262268 C 250.398647 97.207181 250.361088 97.127055 250.361088 97.04192 L 250.361088 95.389311 C 250.361088 95.291657 250.411167 95.204019 250.493797 95.151436 Q 250.866886 94.916064 251.315094 94.928584 Z" style="fill:#1955a5;"/>
		<path d="M 237.590926 97.51016 Q 226.310616 97.667909 219.820369 97.560239 Q 219.299547 97.550223 219.079199 97.855705 C 219.044144 97.900776 219.026616 97.955863 219.026616 98.01095 L 219.026616 129.267799 C 219.026616 129.753566 218.630992 130.149191 218.145225 130.149191 L 217.989979 130.149191 C 217.444118 130.149191 217.003422 129.708495 217.003422 129.162633 L 217.003422 98.03599 C 217.003422 97.780587 216.795594 97.572758 216.540191 97.572758 Q 208.552579 97.562743 197.78558 97.585278 Q 197.547705 97.585278 197.122033 97.309843 Q 198.759618 97.455073 200.289534 97.450065 Q 211.594883 97.407497 215.666311 97.415009 C 216.662884 97.417513 217.729568 97.532695 218.766205 97.555231 C 218.83882 97.557735 218.911434 97.550223 218.984049 97.532695 Q 219.57999 97.40249 220.195962 97.40249 Q 228.892192 97.410001 237.590926 97.51016 Z" style="fill:#78a9df;"/>
		<path d="M 287.354494 97.49764 Q 278.861084 97.60531 273.467569 97.527687 Q 272.899171 97.517671 272.899171 98.088573 Q 272.884148 108.09437 272.906683 127.136935 Q 272.909187 128.759497 272.788997 129.510683 C 272.716383 129.968906 272.253151 130.254357 271.809952 130.114135 L 271.774896 130.10412 C 271.274106 129.943867 270.936072 129.480635 270.933568 128.954805 Q 270.918544 112.749219 270.983647 98.894846 Q 270.986151 98.491709 271.076293 98.236306 C 271.234042 97.778083 270.883489 97.577766 270.445297 97.575262 Q 270.167358 97.575262 269.273447 97.58027 Q 260.301782 97.622837 251.32511 97.51016 Q 258.301124 97.415009 265.267122 97.407497 Q 267.553231 97.404994 270.455313 97.397482 C 270.961112 97.394978 271.542029 97.542711 271.967701 97.500144 Q 274.030958 97.304835 276.307052 97.37745 Q 278.765934 97.455073 280.646403 97.447561 Q 284.0017 97.437545 287.354494 97.49764 Z" style="fill:#78a9df;"/>
		<path d="M 292.485094 183.646153 C 292.452543 183.838958 292.284778 183.979179 292.086966 183.979179 Q 252.506976 183.981683 251.808373 183.979179 C 250.944509 183.974171 251.067203 183.39075 251.067203 182.642068 Q 251.094746 161.103062 251.064699 154.560232 Q 251.059691 153.573674 252.006185 152.562077 Q 255.709532 148.608335 259.613195 145.716268 Q 268.985492 138.772806 279.920256 134.60122 Q 281.883356 133.852538 284.787942 133.091336 Q 288.000514 132.247504 291.245637 132.209944 Q 291.776475 132.204936 292.27977 132.385221 C 292.357393 132.412765 292.422495 132.470356 292.455047 132.547978 Q 292.640339 132.97365 292.640339 133.709812 Q 292.657867 157.289541 292.595268 182.286506 Q 292.592764 183.045204 292.485094 183.646153 Z" style="fill:#b5e032;"/>
		<path d="M 238.094221 183.986691 L 197.532681 183.986691 C 197.277278 183.986691 197.071954 183.781367 197.071954 183.525963 L 197.021875 133.211526 C 197.021875 133.151431 197.03189 133.091336 197.054426 133.036249 C 197.302317 132.372701 197.995912 132.500403 198.604373 132.53045 Q 200.770293 132.63812 202.034789 132.97365 Q 205.092116 133.779923 207.716259 136.113608 C 210.062463 138.201905 212.558905 141.26424 214.982732 143.535325 Q 218.500786 146.835536 221.543089 148.868746 Q 222.800074 149.70757 223.461117 150.16329 C 225.516863 151.580527 228.293747 153.037828 229.62585 153.971803 Q 231.153262 155.038487 232.402735 156.508307 Q 232.928565 157.12428 233.764885 158.831976 Q 234.338291 159.998818 235.192139 161.183188 C 236.40906 162.868349 237.285444 164.418296 237.726139 166.063393 Q 238.099228 167.463103 238.274505 168.096603 C 238.302049 168.199265 238.319576 168.304431 238.32208 168.412101 C 238.364647 169.929497 238.517389 171.193993 238.487341 172.723909 Q 238.382175 178.024778 238.369655 183.711256 C 238.369655 183.863997 238.246962 183.986691 238.094221 183.986691 Z" style="fill:#299acd;"/>
		<path d="M 309.604623 198.632314 C 309.604623 198.840142 309.436858 199.007907 309.22903 199.007907 L 180.375593 199.007907 C 180.167765 199.007907 180 198.840142 180 198.632314 L 180 189.352663 C 180 189.144835 180.167765 188.97707 180.375593 188.97707 L 309.22903 188.97707 C 309.436858 188.97707 309.604623 189.144835 309.604623 189.352663 L 309.604623 198.632314 Z" style="fill:#1955a5;"/>
	</g>
	<g id="surface4">
	</g>
</svg>
