<?xml version="1.0" encoding="utf-8"?>
<svg xmlns="http://www.w3.org/2000/svg" width="490pt" height="280pt" viewBox="0 0 490 280" version="1.1" xmlns:xlink="http://www.w3.org/1999/xlink">
	<g id="surface2" data-size="128.70079505169 148" data-bboxpos="180.5 50.052331994413" data-pivot="244.85039752585 124.05233199441" data-center="244.85039752585 124.05233199441">
		<path vector-effect="non-scaling-stroke" d="M 257.970679 52.196747 Q 255.871571 52.095438 253.768411 52.235244 Q 252.992389 52.285898 253.018729 53.076103 Q 253.31455 62.191823 253.063305 71.964022" style="fill:none;stroke-width:0.50;stroke:#407692;"/>
		<path vector-effect="non-scaling-stroke" d="M 253.063305 71.964022 Q 250.759554 71.613495 248.664499 71.469637 C 247.612918 71.398722 247.049644 71.133294 246.591731 70.290409 Q 246.38101 69.905437 246.362774 68.446598 Q 246.251335 59.644933 246.022378 53.181463 C 245.991986 52.310212 245.910939 51.339678 245.007269 51.201899 Q 244.488571 51.124905 243.929349 51.06412" style="fill:none;stroke-width:0.50;stroke:#738897;"/>
		<path vector-effect="non-scaling-stroke" d="M 253.063305 71.964022 Q 253.164613 72.464485 253.588082 73.06423 C 253.632658 73.125015 253.697495 73.167565 253.772463 73.179722 Q 254.763258 73.355998 255.610196 73.892932" style="fill:none;stroke-width:0.50;stroke:#99d8f9;"/>
		<path vector-effect="non-scaling-stroke" d="M 255.610196 73.892932 Q 254.749075 73.773388 253.918347 73.734891 Q 248.593583 73.477568 243.276923 73.516065" style="fill:none;stroke-width:0.50;stroke:#738897;"/>
		<path vector-effect="non-scaling-stroke" d="M 243.276923 73.516065 L 243.078359 73.512013 C 242.952737 73.509987 242.879795 73.370181 242.948684 73.266847 Q 243.256662 72.804881 243.147249 72.259842" style="fill:none;stroke-width:0.50;stroke:#99d8f9;"/>
		<path vector-effect="non-scaling-stroke" d="M 243.147249 72.259842 C 243.726732 71.913368 243.617319 70.979305 243.62745 70.247859 Q 243.728758 62.615292 243.297185 54.996908 C 243.258688 54.303959 243.234374 52.960611 242.691361 52.121778" style="fill:none;stroke-width:0.50;stroke:#738897;"/>
		<path vector-effect="non-scaling-stroke" d="M 242.691361 52.121778 Q 242.571817 51.998182 242.79267 51.988051" style="fill:none;stroke-width:0.50;stroke:#7d858f;"/>
		<path vector-effect="non-scaling-stroke" d="M 242.691361 52.121778 L 242.071354 52.022496" style="fill:none;stroke-width:0.50;stroke:#242328;"/>
		<path vector-effect="non-scaling-stroke" d="M 243.147249 72.259842 Q 241.970046 72.217293 241.797822 71.058326 Q 241.153501 66.706121 239.94388 56.672547 Q 239.874991 56.086985 239.76963 55.639203 C 239.735185 55.485214 239.57917 55.39201 239.427208 55.43456 Q 234.191595 56.907582 230.93352 61.19495 C 228.102966 64.921069 227.132433 68.947061 226.842691 73.769336 Q 226.822429 74.093522 226.867005 74.346793 C 226.897397 74.527122 227.061517 74.65477 227.243872 74.638561 Q 227.541718 74.612221 232.499746 74.146203 C 236.063772 73.811885 239.676426 73.661949 243.276923 73.516065" style="fill:none;stroke-width:0.50;stroke:#407692;"/>
		<path vector-effect="non-scaling-stroke" d="M 255.610196 73.892932 Q 259.769914 74.209014 263.927607 74.758105 C 265.783575 75.003271 267.690197 75.442949 269.266555 75.68001 C 269.36381 75.694194 269.450936 75.621252 269.454988 75.523996 C 269.619107 70.867866 268.632365 66.369778 265.988218 62.400518 C 265.171673 61.172662 264.292317 60.29128 263.188057 59.205255 Q 262.614652 58.639954 261.840656 58.151648 C 261.723138 58.07668 261.565098 58.139491 261.530653 58.273218 Q 261.508365 58.352239 261.512417 58.449495 C 261.696798 63.180592 261.575228 67.670576 260.440575 71.818138 C 260.306848 72.306444 259.806385 73.398548 259.279582 73.457306 Q 258.126694 73.589007 258.144929 72.423962 Q 258.311075 61.352991 258.191531 52.946428" style="fill:none;stroke-width:0.50;stroke:#407692;"/>
		<path vector-effect="non-scaling-stroke" d="M 277.194942 83.077542 Q 275.997478 82.771591 275.282241 82.200213" style="fill:none;stroke-width:0.50;stroke:#242328;"/>
		<path vector-effect="non-scaling-stroke" d="M 275.282241 82.200213 Q 274.850668 80.668431 273.742355 79.778944 Q 272.95215 79.144754 271.406186 78.77194 Q 269.708259 78.362654 268.067064 78.083043 C 261.471894 76.958521 254.791625 76.524922 247.756776 76.38309 Q 238.272293 76.19263 228.727025 77.146955 C 227.634922 77.256368 226.400987 77.341467 225.464898 77.667679 C 224.952278 77.845982 223.811547 78.441675 223.754814 79.043446 Q 223.698081 79.64927 223.860175 80.317904 C 223.884488 80.425291 223.979718 80.502286 224.089131 80.506338 L 225.088031 80.544835" style="fill:none;stroke-width:0.50;stroke:#738897;"/>
		<path vector-effect="non-scaling-stroke" d="M 225.088031 80.544835 Q 224.334297 80.678562 223.902724 80.94399 Q 223.09631 81.438374 223.144938 82.702702" style="fill:none;stroke-width:0.50;stroke:#242328;"/>
		<path vector-effect="non-scaling-stroke" d="M 275.282241 82.200213 Q 269.323287 81.50929 265.145333 81.21347 C 260.580381 80.887257 254.728813 80.548887 249.697843 80.447579 Q 237.392937 80.198361 225.088031 80.544835" style="fill:none;stroke-width:0.50;stroke:#7d858f;"/>
		<path vector-effect="non-scaling-stroke" d="M 230.698485 83.640817 Q 230.566784 83.962977 230.54247 84.508016 Q 230.534365 84.708606 230.35201 87.646547 Q 230.149394 90.916779 230.321618 93.949949 C 230.765348 101.819578 234.582645 109.620317 242.448221 112.302961 C 247.057749 113.873239 252.406827 113.822585 256.619226 111.281773 C 260.396 109.002336 262.94289 104.814251 264.257872 100.391131 Q 265.297295 96.904099 265.692398 92.969285 Q 266.158416 88.349626 266.119919 85.138153 Q 266.11384 84.633638 265.558671 84.603245 Q 258.914872 84.250693 253.817039 84.015657 Q 242.417829 83.486828 230.988226 83.448331 C 230.860578 83.446305 230.747113 83.523299 230.698485 83.640817" style="fill:none;stroke-width:0.50;stroke:#979090;"/>
		<path vector-effect="non-scaling-stroke" d="M 233.579693 116.693663 C 233.484463 116.851703 233.494594 117.052294 233.610085 117.198178 Q 234.159176 117.893153 234.803497 118.436165 Q 236.847899 120.158406 238.614715 121.256588 C 242.29018 123.54413 247.552134 125.16101 251.551785 122.707323 C 253.466512 121.534173 254.799729 119.493824 254.641688 117.238701 C 254.627505 117.056346 254.443124 116.936802 254.2709 116.999614 C 253.004546 117.461579 251.969175 117.872891 250.875046 118.075508 Q 248.788095 118.458453 246.516763 118.077534 Q 241.309516 117.206283 236.341357 115.787966 C 236.002987 115.69071 235.561283 115.619795 235.164155 115.530643 C 234.382055 115.350314 233.899827 116.162807 233.579693 116.693663" style="fill:none;stroke-width:0.50;stroke:#979090;"/>
		<path vector-effect="non-scaling-stroke" d="M 234.93925 141.670211 C 233.557405 133.518945 230.83829 125.732389 226.445562 118.697541 Q 225.999806 117.982304 225.547971 117.459553 C 225.505421 117.408899 225.438558 117.384585 225.373721 117.39269 Q 221.130929 117.933676 216.750358 118.946759 C 216.592317 118.98323 216.515323 119.161533 216.598396 119.301338 Q 219.880784 124.790222 221.669889 131.071336 Q 223.159121 136.296819 223.888541 141.771519 C 223.900698 141.858644 223.97364 141.923482 224.062791 141.923482 L 234.726503 141.923482 C 234.86023 141.923482 234.961538 141.801912 234.93925 141.670211" style="fill:none;stroke-width:0.50;stroke:#979090;"/>
		<path vector-effect="non-scaling-stroke" d="M 270.6484 141.733022 Q 270.697028 134.919026 269.515773 128.042218 Q 268.940342 124.686887 268.144059 122.277776 Q 268.012358 121.878621 267.582811 121.671952 Q 263.684467 119.801801 259.709129 119.007544 Q 259.366707 118.940681 259.056704 118.938654 C 258.835852 118.938654 258.677811 119.155454 258.746701 119.366175 Q 261.417187 127.632933 261.794054 136.458912 Q 261.923729 139.490056 261.915624 141.577007 C 261.913598 141.771519 262.073665 141.931586 262.268177 141.931586 L 270.449835 141.931586 C 270.559248 141.931586 270.6484 141.842435 270.6484 141.733022" style="fill:none;stroke-width:0.50;stroke:#979090;"/>
		<path vector-effect="non-scaling-stroke" d="M 230.587046 120.776387 Q 230.580967 120.857434 230.625543 120.942533 Q 233.500672 126.565143 235.154024 132.260696 Q 236.495346 136.87225 237.194373 141.704656 C 237.212608 141.838383 237.3281 141.939691 237.463853 141.939691 L 258.570424 141.939691 C 258.663628 141.939691 258.740622 141.864723 258.742648 141.771519 C 258.852061 136.029365 258.501535 130.236556 257.37296 124.561265 C 257.344594 124.413355 257.210867 124.310021 257.058904 124.318125 Q 256.742822 124.338387 256.410531 124.660547 Q 255.213067 125.819514 253.746123 126.909592 Q 251.624727 128.483922 248.520641 130.350021 Q 248.099198 130.603292 247.730436 130.43512 C 241.848476 127.770712 236.327174 125.189377 231.644704 120.940506 Q 231.344832 120.669 230.974043 120.529195 C 230.795741 120.462331 230.601229 120.585927 230.587046 120.776387" style="fill:none;stroke-width:0.50;stroke:#97612c;"/>
		<path vector-effect="non-scaling-stroke" d="M 199.501607 159.486288 Q 199.56847 159.35864 199.71638 159.196547 C 205.045197 153.351058 210.37604 146.982818 215.056483 140.545689 Q 215.234786 140.298496 215.246943 139.804112 Q 215.36446 134.785299 214.294645 130.084594 C 213.589539 126.990638 212.223903 124.380936 209.55139 122.654643 C 209.439951 122.581701 209.296093 122.585753 209.188707 122.664774 Q 208.329612 123.288833 207.533329 124.05675 Q 205.343043 126.170041 203.732241 128.107056 Q 199.831872 132.79763 196.213139 138.266252 Q 192.168912 144.379195 189.129663 150.068669 Q 187.261538 153.561779 185.760149 156.834037 Q 184.655889 159.235044 183.873789 161.571213 C 183.829213 161.702914 183.847448 161.844746 183.92039 161.960237 Q 184.828113 163.40692 185.948583 164.711771 Q 190.367651 169.866337 195.469537 174.028082 Q 200.697045 178.295187 208.485627 182.728439 Q 209.431846 183.267399 210.434799 183.717208 C 210.643494 183.812437 210.890686 183.725312 210.996047 183.520669 Q 211.129774 183.259294 211.143957 182.736543 Q 211.216899 179.571672 211.247291 176.0583 C 211.249317 175.932678 211.208794 175.811108 211.135852 175.711826 L 199.536052 159.936097 C 199.440822 159.806423 199.426639 159.632172 199.501607 159.486288" style="fill:none;stroke-width:0.50;stroke:#97612c;"/>
		<path vector-effect="non-scaling-stroke" d="M 274.139484 127.258092 Q 274.109091 127.355348 274.145562 127.588357 C 275.000604 132.854363 275.290346 138.120368 275.306555 143.240489 Q 275.324791 148.852969 275.338974 149.977491 C 275.389628 154.16355 276.990299 157.990978 279.403463 161.370623 Q 279.812749 161.944028 280.29295 162.353313 C 280.373997 162.422203 280.499619 162.401941 280.554325 162.310764 Q 280.655634 162.142592 280.728576 161.8954 Q 282.864155 154.619438 286.685504 147.586616 Q 286.886094 147.217853 286.703739 146.780201 C 284.164953 140.653075 280.809622 135.119616 276.749186 129.831323 Q 275.778652 128.566995 274.485958 127.181098 C 274.378571 127.065606 274.188112 127.108156 274.139484 127.258092" style="fill:none;stroke-width:0.50;stroke:#97612c;"/>
		<path vector-effect="non-scaling-stroke" d="M 304.955442 150.125401 C 305.121588 150.026119 305.226949 149.847817 305.235053 149.653305 Q 305.291786 148.283617 304.973678 147.001054 Q 304.694067 145.874505 303.693141 145.7347 Q 300.129115 145.238289 295.203505 145.444958 Q 293.566363 145.513848 293.606887 147.242167 C 293.633227 148.283617 293.420479 150.127428 294.694938 150.133506 Q 304.580602 150.172003 304.762957 150.153768 Q 304.933155 150.137558 304.955442 150.125401" style="fill:none;stroke-width:0.50;stroke:#979090;"/>
		<path vector-effect="non-scaling-stroke" d="M 270.567353 181.34862 C 270.646374 181.34862 270.711211 181.283782 270.711211 181.202736 L 270.711211 147.0821 C 270.711211 146.970661 270.62206 146.88151 270.512647 146.879484 C 262.584259 146.782228 254.874697 146.642422 247.440694 146.644448 Q 240.480814 146.646474 218.484756 146.666736 C 218.349003 146.666736 218.237564 146.778175 218.237564 146.913928 Q 218.23959 162.576192 218.221355 180.442923 C 218.221355 180.860314 218.115994 181.34862 218.715739 181.34862 Q 239.544725 181.354698 239.74329 181.352672 C 239.913488 181.350646 240.053293 181.212866 240.057345 181.042668 L 240.142444 177.061252 C 240.144471 176.984258 240.209308 176.923473 240.286302 176.923473 L 257.099428 176.923473 C 257.192631 176.923473 257.267599 176.998441 257.269626 177.091645 Q 257.308123 180.408478 257.291913 180.730639 Q 257.263547 181.340515 257.913946 181.342541 Q 265.246641 181.360777 270.567353 181.34862" style="fill:none;stroke-width:0.50;stroke:#979090;"/>
		<path vector-effect="non-scaling-stroke" d="M 204.678461 160.347409 C 204.605519 160.426429 204.597414 160.547999 204.662252 160.637151 L 212.659529 171.712174 C 212.789203 171.894529 213.076919 171.801325 213.076919 171.576421 L 213.076919 151.651104 C 213.076919 151.440383 212.815544 151.339075 212.673712 151.497116 L 204.678461 160.347409" style="fill:none;stroke-width:0.50;stroke:#979090;"/>
		<path vector-effect="non-scaling-stroke" d="M 304.232101 152.887066 L 295.057621 152.887066 C 294.384934 152.887066 293.83787 153.434131 293.83787 154.106818 L 293.83787 158.987852 C 293.83787 159.998908 294.579446 160.817479 295.493247 160.817479 L 303.796475 160.817479 C 304.710276 160.817479 305.451853 159.998908 305.451853 158.987852 L 305.451853 154.106818 C 305.451853 153.434131 304.904788 152.887066 304.232101 152.887066" style="fill:none;stroke-width:0.50;stroke:#979090;"/>
		<path vector-effect="non-scaling-stroke" d="M 257.037468 180.28932 C 257.038643 180.03769 256.834 179.833047 256.58237 179.832622 L 240.822872 179.805127 C 240.571992 179.804681 240.367349 180.009324 240.366194 180.260204 L 240.34421 192.850779 C 240.343035 193.102408 240.547678 193.307051 240.799307 193.307477 L 256.558806 193.334972 C 256.809686 193.335418 257.014329 193.130775 257.015484 192.879895 L 257.037468 180.28932" style="fill:none;stroke-width:0.50;stroke:#979090;"/>
		<path vector-effect="non-scaling-stroke" d="M 241.146957 86.718927 C 239.518385 86.740851 238.219613 88.398254 238.248263 90.421037 C 238.276346 92.442482 239.619694 94.063415 241.249197 94.040762 C 242.877769 94.018839 244.176541 92.361435 244.147891 90.338653 C 244.119808 88.317208 242.77646 86.696275 241.146957 86.718927" style="fill:none;stroke-width:0.50;stroke:#979090;"/>
		<path vector-effect="non-scaling-stroke" d="M 256.711417 86.958319 C 255.12189 86.988043 253.865667 88.64342 253.904691 90.653904 C 253.942661 92.66536 255.261695 94.270083 256.851222 94.239022 C 258.44075 94.209298 259.696973 92.553921 259.657949 90.543437 C 259.619978 88.531981 258.300944 86.927258 256.711417 86.958319" style="fill:none;stroke-width:0.50;stroke:#979090;"/>
		<path vector-effect="non-scaling-stroke" d="M 249.310846 96.64475 Q 248.729336 96.656907 248.506458 96.610305 C 247.714227 96.446186 246.626176 96.061214 246.492449 97.098611 C 246.299963 98.597974 248.149852 99.205824 249.365552 99.18151 C 250.581252 99.15517 252.400749 98.468299 252.145452 96.979067 C 251.969175 95.947749 250.897334 96.379322 250.113207 96.57586 Q 249.892355 96.630567 249.310846 96.64475" style="fill:none;stroke-width:0.50;stroke:#979090;"/>
		<path vector-effect="non-scaling-stroke" d="M 242.119982 101.061792 C 241.566839 100.640349 240.871864 101.05774 240.796896 101.691929 C 240.689509 102.57939 241.585075 103.535741 242.292207 104.060518 C 246.605914 107.255781 252.702647 107.369247 256.536154 103.286522 C 257.15616 102.623966 257.889632 101.505522 256.927204 100.802443 C 256.568572 100.543093 256.179548 100.5978 255.88778 100.889568 Q 254.832148 101.9452 253.742071 102.615861 C 250.662298 104.514379 246.63428 104.14359 243.661895 102.176183 Q 243.039862 101.764871 242.119982 101.061792" style="fill:none;stroke-width:0.50;stroke:#979090;"/>
		<path vector-effect="non-scaling-stroke" d="M 266.571612 151.772229 C 266.571754 151.685549 266.502864 151.61666 266.415861 151.615951 L 262.602636 151.609284 C 262.517396 151.608555 262.44648 151.679471 262.446338 151.765036 L 262.422308 165.53484 C 262.422166 165.621519 262.491055 165.690409 262.578059 165.691118 L 266.391283 165.697784 C 266.476524 165.698513 266.54744 165.627598 266.547582 165.542033 L 266.571612 151.772229" style="fill:none;stroke-width:0.50;stroke:#d1c1c2;"/>
		<path vector-effect="non-scaling-stroke" d="M 253.871745 182.795302 C 253.871745 182.724386 253.815013 182.667654 253.744097 182.667654 L 243.767255 182.667654 C 243.69634 182.667654 243.639607 182.724386 243.639607 182.795302 L 243.639607 190.442053 C 243.639607 190.512968 243.69634 190.569701 243.767255 190.569701 L 253.744097 190.569701 C 253.815013 190.569701 253.871745 190.512968 253.871745 190.442053 L 253.871745 182.795302" style="fill:none;stroke-width:0.50;stroke:#979090;"/>
		<path d="M 257.970679 52.196747 Q 255.871571 52.095438 253.768411 52.235244 Q 252.992389 52.285898 253.018729 53.076103 Q 253.31455 62.191823 253.063305 71.964022 Q 250.759554 71.613495 248.664499 71.469637 C 247.612918 71.398722 247.049644 71.133294 246.591731 70.290409 Q 246.38101 69.905437 246.362774 68.446598 Q 246.251335 59.644933 246.022378 53.181463 C 245.991986 52.310212 245.910939 51.339678 245.007269 51.201899 Q 244.488571 51.124905 243.929349 51.06412 C 244.535172 50.263784 245.266618 50.354962 246.085189 50.243522 Q 246.926048 50.130057 247.059775 50.123979 Q 250.688638 49.945676 253.867693 50.211104 Q 255.723661 50.367119 256.449028 50.385354 C 257.028512 50.399537 257.687016 51.57674 257.970679 52.196747 Z" style="fill:#1a2630;"/>
		<path d="M 243.929349 51.06412 Q 244.488571 51.124905 245.007269 51.201899 C 245.910939 51.339678 245.991986 52.310212 246.022378 53.181463 Q 246.251335 59.644933 246.362774 68.446598 Q 246.38101 69.905437 246.591731 70.290409 C 247.049644 71.133294 247.612918 71.398722 248.664499 71.469637 Q 250.759554 71.613495 253.063305 71.964022 Q 253.164613 72.464485 253.588082 73.06423 C 253.632658 73.125015 253.697495 73.167565 253.772463 73.179722 Q 254.763258 73.355998 255.610196 73.892932 Q 254.749075 73.773388 253.918347 73.734891 Q 248.593583 73.477568 243.276923 73.516065 L 243.078359 73.512013 C 242.952737 73.509987 242.879795 73.370181 242.948684 73.266847 Q 243.256662 72.804881 243.147249 72.259842 C 243.726732 71.913368 243.617319 70.979305 243.62745 70.247859 Q 243.728758 62.615292 243.297185 54.996908 C 243.258688 54.303959 243.234374 52.960611 242.691361 52.121778 Q 242.571817 51.998182 242.79267 51.988051 L 243.929349 51.06412 Z" style="fill:#cceafe;"/>
		<path d="M 242.79267 51.988051 Q 242.571817 51.998182 242.691361 52.121778 L 242.071354 52.022496 L 242.79267 51.988051 Z" style="fill:#2e2020;"/>
		<path d="M 242.071354 52.022496 L 242.691361 52.121778 C 243.234374 52.960611 243.258688 54.303959 243.297185 54.996908 Q 243.728758 62.615292 243.62745 70.247859 C 243.617319 70.979305 243.726732 71.913368 243.147249 72.259842 Q 241.970046 72.217293 241.797822 71.058326 Q 241.153501 66.706121 239.94388 56.672547 Q 239.874991 56.086985 239.76963 55.639203 C 239.735185 55.485214 239.57917 55.39201 239.427208 55.43456 Q 234.191595 56.907582 230.93352 61.19495 C 228.102966 64.921069 227.132433 68.947061 226.842691 73.769336 Q 226.822429 74.093522 226.867005 74.346793 C 226.897397 74.527122 227.061517 74.65477 227.243872 74.638561 Q 227.541718 74.612221 232.499746 74.146203 C 236.063772 73.811885 239.676426 73.661949 243.276923 73.516065 Q 248.593583 73.477568 253.918347 73.734891 Q 254.749075 73.773388 255.610196 73.892932 Q 259.769914 74.209014 263.927607 74.758105 C 265.783575 75.003271 267.690197 75.442949 269.266555 75.68001 C 269.36381 75.694194 269.450936 75.621252 269.454988 75.523996 C 269.619107 70.867866 268.632365 66.369778 265.988218 62.400518 C 265.171673 61.172662 264.292317 60.29128 263.188057 59.205255 Q 262.614652 58.639954 261.840656 58.151648 C 261.723138 58.07668 261.565098 58.139491 261.530653 58.273218 Q 261.508365 58.352239 261.512417 58.449495 C 261.696798 63.180592 261.575228 67.670576 260.440575 71.818138 C 260.306848 72.306444 259.806385 73.398548 259.279582 73.457306 Q 258.126694 73.589007 258.144929 72.423962 Q 258.311075 61.352991 258.191531 52.946428 C 258.929056 53.36787 259.897563 53.72245 260.412209 53.97572 Q 269.240214 58.303611 271.60475 67.828617 Q 271.799262 68.606665 271.963381 69.714978 C 272.068742 70.426162 272.277437 71.408853 272.29162 72.25579 Q 272.326065 74.095549 272.548943 75.836025 Q 272.605676 76.269625 273.335096 76.725512 Q 274.16785 77.246237 275.213352 78.360628 Q 275.971138 79.171094 276.493889 80.429344 Q 277.018666 81.695697 277.194942 83.077542 Q 275.997478 82.771591 275.282241 82.200213 Q 274.850668 80.668431 273.742355 79.778944 Q 272.95215 79.144754 271.406186 78.77194 Q 269.708259 78.362654 268.067064 78.083043 C 261.471894 76.958521 254.791625 76.524922 247.756776 76.38309 Q 238.272293 76.19263 228.727025 77.146955 C 227.634922 77.256368 226.400987 77.341467 225.464898 77.667679 C 224.952278 77.845982 223.811547 78.441675 223.754814 79.043446 Q 223.698081 79.64927 223.860175 80.317904 C 223.884488 80.425291 223.979718 80.502286 224.089131 80.506338 L 225.088031 80.544835 Q 224.334297 80.678562 223.902724 80.94399 Q 223.09631 81.438374 223.144938 82.702702 C 222.460094 82.485902 221.957605 82.313678 221.690151 81.693671 C 221.663811 81.632886 221.649627 81.566023 221.647601 81.499159 Q 221.580738 78.295791 223.602851 75.860339 Q 223.775076 75.651644 223.793311 74.908041 Q 223.876384 71.597286 224.508548 68.171039 Q 224.745609 66.890502 225.32104 65.239177 Q 228.641926 55.726328 238.369549 52.780282 Q 239.830415 52.338578 242.071354 52.022496 Z" style="fill:#1a2630;"/>
		<path d="M 257.970679 52.196747 Q 258.205714 52.678974 258.191531 52.946428 Q 258.311075 61.352991 258.144929 72.423962 Q 258.126694 73.589007 259.279582 73.457306 C 259.806385 73.398548 260.306848 72.306444 260.440575 71.818138 C 261.575228 67.670576 261.696798 63.180592 261.512417 58.449495 Q 261.508365 58.352239 261.530653 58.273218 C 261.565098 58.139491 261.723138 58.07668 261.840656 58.151648 Q 262.614652 58.639954 263.188057 59.205255 C 264.292317 60.29128 265.171673 61.172662 265.988218 62.400518 C 268.632365 66.369778 269.619107 70.867866 269.454988 75.523996 C 269.450936 75.621252 269.36381 75.694194 269.266555 75.68001 C 267.690197 75.442949 265.783575 75.003271 263.927607 74.758105 Q 259.769914 74.209014 255.610196 73.892932 Q 254.763258 73.355998 253.772463 73.179722 C 253.697495 73.167565 253.632658 73.125015 253.588082 73.06423 Q 253.164613 72.464485 253.063305 71.964022 Q 253.31455 62.191823 253.018729 53.076103 Q 252.992389 52.285898 253.768411 52.235244 Q 255.871571 52.095438 257.970679 52.196747 Z" style="fill:#66c5f3;"/>
		<path d="M 243.147249 72.259842 Q 243.256662 72.804881 242.948684 73.266847 C 242.879795 73.370181 242.952737 73.509987 243.078359 73.512013 L 243.276923 73.516065 C 239.676426 73.661949 236.063772 73.811885 232.499746 74.146203 Q 227.541718 74.612221 227.243872 74.638561 C 227.061517 74.65477 226.897397 74.527122 226.867005 74.346793 Q 226.822429 74.093522 226.842691 73.769336 C 227.132433 68.947061 228.102966 64.921069 230.93352 61.19495 Q 234.191595 56.907582 239.427208 55.43456 C 239.57917 55.39201 239.735185 55.485214 239.76963 55.639203 Q 239.874991 56.086985 239.94388 56.672547 Q 241.153501 66.706121 241.797822 71.058326 Q 241.970046 72.217293 243.147249 72.259842 Z" style="fill:#66c5f3;"/>
		<path d="M 275.282241 82.200213 Q 269.323287 81.50929 265.145333 81.21347 C 260.580381 80.887257 254.728813 80.548887 249.697843 80.447579 Q 237.392937 80.198361 225.088031 80.544835 L 224.089131 80.506338 C 223.979718 80.502286 223.884488 80.425291 223.860175 80.317904 Q 223.698081 79.64927 223.754814 79.043446 C 223.811547 78.441675 224.952278 77.845982 225.464898 77.667679 C 226.400987 77.341467 227.634922 77.256368 228.727025 77.146955 Q 238.272293 76.19263 247.756776 76.38309 C 254.791625 76.524922 261.471894 76.958521 268.067064 78.083043 Q 269.708259 78.362654 271.406186 78.77194 Q 272.95215 79.144754 273.742355 79.778944 Q 274.850668 80.668431 275.282241 82.200213 Z" style="fill:#cceafe;"/>
		<path d="M 275.282241 82.200213 Q 275.997478 82.771591 277.194942 83.077542 Q 277.259779 83.906244 276.532386 84.299321 C 276.483758 84.325661 276.429051 84.343896 276.372319 84.352001 C 275.796888 84.431021 275.308582 84.659978 274.72302 84.753182 Q 272.50842 85.105735 270.437678 84.94972 C 270.235062 84.935537 270.056759 85.081421 270.032445 85.284037 L 269.880483 86.54026 C 269.870352 86.623333 269.890614 86.706406 269.937215 86.773269 Q 270.143884 87.077194 270.423495 87.225104 C 270.482254 87.255497 270.534934 87.293994 270.581536 87.33857 Q 272.82045 89.474149 272.488158 92.697779 Q 272.119396 96.247621 269.260476 98.279866 C 268.891714 98.543268 268.589815 98.595948 268.306152 98.814774 C 268.036672 99.023469 267.540261 98.887716 267.187708 99.224059 C 267.137054 99.272687 267.098557 99.333472 267.076269 99.402362 C 266.881757 99.987924 266.770318 100.212828 266.62646 100.830809 Q 266.565675 101.092184 266.312404 101.783107 Q 265.366185 104.364442 263.834403 106.737083 Q 261.577255 110.230193 258.108458 112.511656 Q 257.322306 113.028328 256.572625 113.37075 Q 255.202936 113.998862 255.10568 114.051542 C 254.848357 114.193374 254.71463 114.46488 254.779468 114.70802 Q 254.844305 114.943055 255.150256 115.107175 C 255.196858 115.133515 255.249538 115.147698 255.302218 115.153776 Q 257.741722 115.390838 259.794228 115.994635 Q 266.059134 117.83642 271.554096 121.047893 Q 272.024166 121.323452 272.571231 121.708423 C 272.625938 121.746921 272.678618 121.791496 272.72522 121.840124 Q 279.138035 128.463661 284.201424 136.258321 Q 286.78276 140.229607 289.392461 144.677041 C 289.544424 144.93639 289.888872 145.00528 290.129986 144.822925 Q 290.608161 144.460241 290.810778 144.346776 C 290.86751 144.316384 290.920191 144.277886 290.968819 144.235337 Q 292.9342 142.476625 295.025203 141.420992 C 295.23795 141.313606 295.367625 141.092753 295.35952 140.853666 Q 295.282526 138.914625 295.391939 136.807412 C 295.432462 135.982763 296.125411 135.575503 296.866988 135.435698 Q 297.920594 135.235108 299.304465 135.229029 Q 300.266894 135.224977 300.842325 135.583608 C 300.899058 135.618053 300.947686 135.664655 300.986183 135.719361 Q 301.338736 136.197536 301.346841 136.858067 Q 301.385338 139.927708 301.450175 141.400731 C 301.456254 141.572955 301.583902 141.716813 301.752074 141.743153 C 302.051947 141.793807 302.463258 141.864723 302.884701 141.880932 Q 304.95139 141.9559 306.444674 143.262777 C 308.47084 145.035673 308.716006 147.882436 309.042219 150.419196 Q 309.17392 151.446462 309.188103 152.489937 C 309.228626 155.389381 309.202286 157.563457 308.659274 159.84492 Q 308.426265 160.819506 307.83665 162.008865 C 307.417234 162.859855 306.369706 163.91954 305.352571 164.231569 Q 304.931128 164.359218 304.467136 164.58007 C 304.436744 164.594253 304.406351 164.602358 304.371907 164.604384 L 301.733838 164.736085 C 301.604164 164.742163 301.494751 164.831314 301.460306 164.956937 Q 301.334684 165.427007 301.340762 165.83224 Q 301.407626 172.338259 301.356972 177.243607 Q 301.350893 177.837274 301.302265 178.548458 Q 301.29416 178.686237 300.923372 179.089444 C 300.846378 179.174543 300.734939 179.221145 300.621473 179.215067 L 296.11528 179.014476 C 295.778937 179.000293 295.487169 178.777415 295.38586 178.457281 Q 295.262264 178.064204 295.268343 176.925499 Q 295.278474 174.674429 295.292657 169.074106 Q 295.292657 168.549329 295.268343 168.456125 C 295.195401 168.192724 294.867162 168.105599 294.674676 168.296058 C 294.382908 168.5858 294.101271 168.713448 293.758849 168.952536 Q 292.697138 169.692087 291.712421 170.24523 Q 290.073253 171.167135 288.993307 171.462956 Q 288.324672 171.645311 287.801921 171.821587 C 287.726953 171.847927 287.651985 171.866163 287.57499 171.876293 Q 285.325946 172.206559 283.437559 171.817535 C 282.939123 171.7142 282.19552 171.467008 281.599827 171.179292 Q 279.707388 170.269544 278.129005 168.666847 Q 276.698531 167.214086 275.079625 165.035957 Q 274.980343 164.904256 274.816223 164.898178 C 274.652104 164.892099 274.514324 165.0238 274.514324 165.18792 Q 274.528508 186.600442 274.514324 197.827428 C 274.512298 197.951024 274.413016 198.052332 274.28942 198.052332 L 213.45176 198.052332 C 213.251169 198.052332 213.08705 197.888213 213.08705 197.687622 L 213.08705 189.556618 C 213.08705 189.319557 212.957375 189.100731 212.74868 188.985239 Q 208.050001 186.395799 203.335113 183.28766 C 199.321278 180.639461 195.5364 177.740018 191.881197 174.627827 Q 187.188596 170.630201 181.851675 164.956937 Q 180.798069 163.838493 180.544798 162.223639 Q 180.40094 161.297681 180.719048 160.513555 Q 181.867884 157.701236 183.156526 155.046959 C 187.911937 145.24842 193.791871 135.980737 200.545082 127.351296 Q 203.02511 124.182372 205.849585 121.055998 Q 206.589136 120.239453 207.355026 119.46951 C 207.849411 118.973099 208.313403 118.567866 208.967854 118.290281 Q 211.314155 117.303539 212.677764 116.900331 Q 213.273457 116.724055 214.223729 116.434313 Q 215.974336 115.899405 217.903246 115.413126 Q 218.679268 115.218614 219.165548 115.147698 C 219.785555 115.05652 220.241442 114.85593 220.843213 114.789067 Q 221.485508 114.718151 222.312184 114.475011 C 222.431727 114.440566 222.553297 114.418278 222.674867 114.408147 C 223.669715 114.331153 224.889467 114.00494 225.86 113.950234 C 226.775827 113.89958 228.052312 113.624021 229.122128 113.565262 Q 230.578941 113.486242 232.896875 113.316044 Q 233.472306 113.273494 233.707341 112.730482 Q 234.163229 111.676876 234.744738 110.550327 C 234.850099 110.345684 234.813628 110.098492 234.655587 109.932347 Q 230.226388 105.284322 228.747287 99.347655 C 228.696633 99.143013 228.534539 98.986998 228.329897 98.940396 Q 226.054512 98.427776 224.694955 96.450238 Q 222.814673 93.718966 223.367816 90.430499 Q 223.521805 89.526829 224.202597 88.398254 Q 224.810446 87.389224 226.244972 86.724641 C 226.297652 86.700327 226.344254 86.66183 226.376673 86.613202 C 226.601577 86.29712 226.358437 85.954698 226.342228 85.642669 Q 226.299678 84.848412 226.093009 83.474671 C 226.074774 83.353101 225.98157 83.255845 225.86 83.231531 L 223.144938 82.702702 Q 223.09631 81.438374 223.902724 80.94399 Q 224.334297 80.678562 225.088031 80.544835 Q 237.392937 80.198361 249.697843 80.447579 C 254.728813 80.548887 260.580381 80.887257 265.145333 81.21347 Q 269.323287 81.50929 275.282241 82.200213 Z M 230.698485 83.640817 Q 230.566784 83.962977 230.54247 84.508016 Q 230.534365 84.708606 230.35201 87.646547 Q 230.149394 90.916779 230.321618 93.949949 C 230.765348 101.819578 234.582645 109.620317 242.448221 112.302961 C 247.057749 113.873239 252.406827 113.822585 256.619226 111.281773 C 260.396 109.002336 262.94289 104.814251 264.257872 100.391131 Q 265.297295 96.904099 265.692398 92.969285 Q 266.158416 88.349626 266.119919 85.138153 Q 266.11384 84.633638 265.558671 84.603245 Q 258.914872 84.250693 253.817039 84.015657 Q 242.417829 83.486828 230.988226 83.448331 C 230.860578 83.446305 230.747113 83.523299 230.698485 83.640817 Z M 233.579693 116.693663 C 233.484463 116.851703 233.494594 117.052294 233.610085 117.198178 Q 234.159176 117.893153 234.803497 118.436165 Q 236.847899 120.158406 238.614715 121.256588 C 242.29018 123.54413 247.552134 125.16101 251.551785 122.707323 C 253.466512 121.534173 254.799729 119.493824 254.641688 117.238701 C 254.627505 117.056346 254.443124 116.936802 254.2709 116.999614 C 253.004546 117.461579 251.969175 117.872891 250.875046 118.075508 Q 248.788095 118.458453 246.516763 118.077534 Q 241.309516 117.206283 236.341357 115.787966 C 236.002987 115.69071 235.561283 115.619795 235.164155 115.530643 C 234.382055 115.350314 233.899827 116.162807 233.579693 116.693663 Z M 234.93925 141.670211 C 233.557405 133.518945 230.83829 125.732389 226.445562 118.697541 Q 225.999806 117.982304 225.547971 117.459553 C 225.505421 117.408899 225.438558 117.384585 225.373721 117.39269 Q 221.130929 117.933676 216.750358 118.946759 C 216.592317 118.98323 216.515323 119.161533 216.598396 119.301338 Q 219.880784 124.790222 221.669889 131.071336 Q 223.159121 136.296819 223.888541 141.771519 C 223.900698 141.858644 223.97364 141.923482 224.062791 141.923482 L 234.726503 141.923482 C 234.86023 141.923482 234.961538 141.801912 234.93925 141.670211 Z M 270.6484 141.733022 Q 270.697028 134.919026 269.515773 128.042218 Q 268.940342 124.686887 268.144059 122.277776 Q 268.012358 121.878621 267.582811 121.671952 Q 263.684467 119.801801 259.709129 119.007544 Q 259.366707 118.940681 259.056704 118.938654 C 258.835852 118.938654 258.677811 119.155454 258.746701 119.366175 Q 261.417187 127.632933 261.794054 136.458912 Q 261.923729 139.490056 261.915624 141.577007 C 261.913598 141.771519 262.073665 141.931586 262.268177 141.931586 L 270.449835 141.931586 C 270.559248 141.931586 270.6484 141.842435 270.6484 141.733022 Z M 230.587046 120.776387 Q 230.580967 120.857434 230.625543 120.942533 Q 233.500672 126.565143 235.154024 132.260696 Q 236.495346 136.87225 237.194373 141.704656 C 237.212608 141.838383 237.3281 141.939691 237.463853 141.939691 L 258.570424 141.939691 C 258.663628 141.939691 258.740622 141.864723 258.742648 141.771519 C 258.852061 136.029365 258.501535 130.236556 257.37296 124.561265 C 257.344594 124.413355 257.210867 124.310021 257.058904 124.318125 Q 256.742822 124.338387 256.410531 124.660547 Q 255.213067 125.819514 253.746123 126.909592 Q 251.624727 128.483922 248.520641 130.350021 Q 248.099198 130.603292 247.730436 130.43512 C 241.848476 127.770712 236.327174 125.189377 231.644704 120.940506 Q 231.344832 120.669 230.974043 120.529195 C 230.795741 120.462331 230.601229 120.585927 230.587046 120.776387 Z M 199.501607 159.486288 Q 199.56847 159.35864 199.71638 159.196547 C 205.045197 153.351058 210.37604 146.982818 215.056483 140.545689 Q 215.234786 140.298496 215.246943 139.804112 Q 215.36446 134.785299 214.294645 130.084594 C 213.589539 126.990638 212.223903 124.380936 209.55139 122.654643 C 209.439951 122.581701 209.296093 122.585753 209.188707 122.664774 Q 208.329612 123.288833 207.533329 124.05675 Q 205.343043 126.170041 203.732241 128.107056 Q 199.831872 132.79763 196.213139 138.266252 Q 192.168912 144.379195 189.129663 150.068669 Q 187.261538 153.561779 185.760149 156.834037 Q 184.655889 159.235044 183.873789 161.571213 C 183.829213 161.702914 183.847448 161.844746 183.92039 161.960237 Q 184.828113 163.40692 185.948583 164.711771 Q 190.367651 169.866337 195.469537 174.028082 Q 200.697045 178.295187 208.485627 182.728439 Q 209.431846 183.267399 210.434799 183.717208 C 210.643494 183.812437 210.890686 183.725312 210.996047 183.520669 Q 211.129774 183.259294 211.143957 182.736543 Q 211.216899 179.571672 211.247291 176.0583 C 211.249317 175.932678 211.208794 175.811108 211.135852 175.711826 L 199.536052 159.936097 C 199.440822 159.806423 199.426639 159.632172 199.501607 159.486288 Z M 274.139484 127.258092 Q 274.109091 127.355348 274.145562 127.588357 C 275.000604 132.854363 275.290346 138.120368 275.306555 143.240489 Q 275.324791 148.852969 275.338974 149.977491 C 275.389628 154.16355 276.990299 157.990978 279.403463 161.370623 Q 279.812749 161.944028 280.29295 162.353313 C 280.373997 162.422203 280.499619 162.401941 280.554325 162.310764 Q 280.655634 162.142592 280.728576 161.8954 Q 282.864155 154.619438 286.685504 147.586616 Q 286.886094 147.217853 286.703739 146.780201 C 284.164953 140.653075 280.809622 135.119616 276.749186 129.831323 Q 275.778652 128.566995 274.485958 127.181098 C 274.378571 127.065606 274.188112 127.108156 274.139484 127.258092 Z M 304.955442 150.125401 C 305.121588 150.026119 305.226949 149.847817 305.235053 149.653305 Q 305.291786 148.283617 304.973678 147.001054 Q 304.694067 145.874505 303.693141 145.7347 Q 300.129115 145.238289 295.203505 145.444958 Q 293.566363 145.513848 293.606887 147.242167 C 293.633227 148.283617 293.420479 150.127428 294.694938 150.133506 Q 304.580602 150.172003 304.762957 150.153768 Q 304.933155 150.137558 304.955442 150.125401 Z M 270.567353 181.34862 C 270.646374 181.34862 270.711211 181.283782 270.711211 181.202736 L 270.711211 147.0821 C 270.711211 146.970661 270.62206 146.88151 270.512647 146.879484 C 262.584259 146.782228 254.874697 146.642422 247.440694 146.644448 Q 240.480814 146.646474 218.484756 146.666736 C 218.349003 146.666736 218.237564 146.778175 218.237564 146.913928 Q 218.23959 162.576192 218.221355 180.442923 C 218.221355 180.860314 218.115994 181.34862 218.715739 181.34862 Q 239.544725 181.354698 239.74329 181.352672 C 239.913488 181.350646 240.053293 181.212866 240.057345 181.042668 L 240.142444 177.061252 C 240.144471 176.984258 240.209308 176.923473 240.286302 176.923473 L 257.099428 176.923473 C 257.192631 176.923473 257.267599 176.998441 257.269626 177.091645 Q 257.308123 180.408478 257.291913 180.730639 Q 257.263547 181.340515 257.913946 181.342541 Q 265.246641 181.360777 270.567353 181.34862 Z M 204.678461 160.347409 C 204.605519 160.426429 204.597414 160.547999 204.662252 160.637151 L 212.659529 171.712174 C 212.789203 171.894529 213.076919 171.801325 213.076919 171.576421 L 213.076919 151.651104 C 213.076919 151.440383 212.815544 151.339075 212.673712 151.497116 L 204.678461 160.347409 Z M 304.232101 152.887066 L 295.057621 152.887066 C 294.384934 152.887066 293.83787 153.434131 293.83787 154.106818 L 293.83787 158.987852 C 293.83787 159.998908 294.579446 160.817479 295.493247 160.817479 L 303.796475 160.817479 C 304.710276 160.817479 305.451853 159.998908 305.451853 158.987852 L 305.451853 154.106818 C 305.451853 153.434131 304.904788 152.887066 304.232101 152.887066 Z M 257.037468 180.28932 C 257.038643 180.03769 256.834 179.833047 256.58237 179.832622 L 240.822872 179.805127 C 240.571992 179.804681 240.367349 180.009324 240.366194 180.260204 L 240.34421 192.850779 C 240.343035 193.102408 240.547678 193.307051 240.799307 193.307477 L 256.558806 193.334972 C 256.809686 193.335418 257.014329 193.130775 257.015484 192.879895 L 257.037468 180.28932 Z" style="fill:#2e2020;"/>
		<path d="M 230.698485 83.640817 C 230.747113 83.523299 230.860578 83.446305 230.988226 83.448331 Q 242.417829 83.486828 253.817039 84.015657 Q 258.914872 84.250693 265.558671 84.603245 Q 266.11384 84.633638 266.119919 85.138153 Q 266.158416 88.349626 265.692398 92.969285 Q 265.297295 96.904099 264.257872 100.391131 C 262.94289 104.814251 260.396 109.002336 256.619226 111.281773 C 252.406827 113.822585 247.057749 113.873239 242.448221 112.302961 C 234.582645 109.620317 230.765348 101.819578 230.321618 93.949949 Q 230.149394 90.916779 230.35201 87.646547 Q 230.534365 84.708606 230.54247 84.508016 Q 230.566784 83.962977 230.698485 83.640817 Z M 241.146957 86.718927 C 239.518385 86.740851 238.219613 88.398254 238.248263 90.421037 C 238.276346 92.442482 239.619694 94.063415 241.249197 94.040762 C 242.877769 94.018839 244.176541 92.361435 244.147891 90.338653 C 244.119808 88.317208 242.77646 86.696275 241.146957 86.718927 Z M 256.711417 86.958319 C 255.12189 86.988043 253.865667 88.64342 253.904691 90.653904 C 253.942661 92.66536 255.261695 94.270083 256.851222 94.239022 C 258.44075 94.209298 259.696973 92.553921 259.657949 90.543437 C 259.619978 88.531981 258.300944 86.927258 256.711417 86.958319 Z M 249.310846 96.64475 Q 248.729336 96.656907 248.506458 96.610305 C 247.714227 96.446186 246.626176 96.061214 246.492449 97.098611 C 246.299963 98.597974 248.149852 99.205824 249.365552 99.18151 C 250.581252 99.15517 252.400749 98.468299 252.145452 96.979067 C 251.969175 95.947749 250.897334 96.379322 250.113207 96.57586 Q 249.892355 96.630567 249.310846 96.64475 Z M 242.119982 101.061792 C 241.566839 100.640349 240.871864 101.05774 240.796896 101.691929 C 240.689509 102.57939 241.585075 103.535741 242.292207 104.060518 C 246.605914 107.255781 252.702647 107.369247 256.536154 103.286522 C 257.15616 102.623966 257.889632 101.505522 256.927204 100.802443 C 256.568572 100.543093 256.179548 100.5978 255.88778 100.889568 Q 254.832148 101.9452 253.742071 102.615861 C 250.662298 104.514379 246.63428 104.14359 243.661895 102.176183 Q 243.039862 101.764871 242.119982 101.061792 Z" style="fill:#ffffff;"/>
		<path d="M 233.579693 116.693663 C 233.899827 116.162807 234.382055 115.350314 235.164155 115.530643 C 235.561283 115.619795 236.002987 115.69071 236.341357 115.787966 Q 241.309516 117.206283 246.516763 118.077534 Q 248.788095 118.458453 250.875046 118.075508 C 251.969175 117.872891 253.004546 117.461579 254.2709 116.999614 C 254.443124 116.936802 254.627505 117.056346 254.641688 117.238701 C 254.799729 119.493824 253.466512 121.534173 251.551785 122.707323 C 247.552134 125.16101 242.29018 123.54413 238.614715 121.256588 Q 236.847899 120.158406 234.803497 118.436165 Q 234.159176 117.893153 233.610085 117.198178 C 233.494594 117.052294 233.484463 116.851703 233.579693 116.693663 Z" style="fill:#ffffff;"/>
		<path d="M 234.93925 141.670211 C 234.961538 141.801912 234.86023 141.923482 234.726503 141.923482 L 224.062791 141.923482 C 223.97364 141.923482 223.900698 141.858644 223.888541 141.771519 Q 223.159121 136.296819 221.669889 131.071336 Q 219.880784 124.790222 216.598396 119.301338 C 216.515323 119.161533 216.592317 118.98323 216.750358 118.946759 Q 221.130929 117.933676 225.373721 117.39269 C 225.438558 117.384585 225.505421 117.408899 225.547971 117.459553 Q 225.999806 117.982304 226.445562 118.697541 C 230.83829 125.732389 233.557405 133.518945 234.93925 141.670211 Z" style="fill:#ffffff;"/>
		<path d="M 270.6484 141.733022 C 270.6484 141.842435 270.559248 141.931586 270.449835 141.931586 L 262.268177 141.931586 C 262.073665 141.931586 261.913598 141.771519 261.915624 141.577007 Q 261.923729 139.490056 261.794054 136.458912 Q 261.417187 127.632933 258.746701 119.366175 C 258.677811 119.155454 258.835852 118.938654 259.056704 118.938654 Q 259.366707 118.940681 259.709129 119.007544 Q 263.684467 119.801801 267.582811 121.671952 Q 268.012358 121.878621 268.144059 122.277776 Q 268.940342 124.686887 269.515773 128.042218 Q 270.697028 134.919026 270.6484 141.733022 Z" style="fill:#ffffff;"/>
		<path d="M 230.587046 120.776387 C 230.601229 120.585927 230.795741 120.462331 230.974043 120.529195 Q 231.344832 120.669 231.644704 120.940506 C 236.327174 125.189377 241.848476 127.770712 247.730436 130.43512 Q 248.099198 130.603292 248.520641 130.350021 Q 251.624727 128.483922 253.746123 126.909592 Q 255.213067 125.819514 256.410531 124.660547 Q 256.742822 124.338387 257.058904 124.318125 C 257.210867 124.310021 257.344594 124.413355 257.37296 124.561265 C 258.501535 130.236556 258.852061 136.029365 258.742648 141.771519 C 258.740622 141.864723 258.663628 141.939691 258.570424 141.939691 L 237.463853 141.939691 C 237.3281 141.939691 237.212608 141.838383 237.194373 141.704656 Q 236.495346 136.87225 235.154024 132.260696 Q 233.500672 126.565143 230.625543 120.942533 Q 230.580967 120.857434 230.587046 120.776387 Z" style="fill:#ffa238;"/>
		<path d="M 199.501607 159.486288 C 199.426639 159.632172 199.440822 159.806423 199.536052 159.936097 L 211.135852 175.711826 C 211.208794 175.811108 211.249317 175.932678 211.247291 176.0583 Q 211.216899 179.571672 211.143957 182.736543 Q 211.129774 183.259294 210.996047 183.520669 C 210.890686 183.725312 210.643494 183.812437 210.434799 183.717208 Q 209.431846 183.267399 208.485627 182.728439 Q 200.697045 178.295187 195.469537 174.028082 Q 190.367651 169.866337 185.948583 164.711771 Q 184.828113 163.40692 183.92039 161.960237 C 183.847448 161.844746 183.829213 161.702914 183.873789 161.571213 Q 184.655889 159.235044 185.760149 156.834037 Q 187.261538 153.561779 189.129663 150.068669 Q 192.168912 144.379195 196.213139 138.266252 Q 199.831872 132.79763 203.732241 128.107056 Q 205.343043 126.170041 207.533329 124.05675 Q 208.329612 123.288833 209.188707 122.664774 C 209.296093 122.585753 209.439951 122.581701 209.55139 122.654643 C 212.223903 124.380936 213.589539 126.990638 214.294645 130.084594 Q 215.36446 134.785299 215.246943 139.804112 Q 215.234786 140.298496 215.056483 140.545689 C 210.37604 146.982818 205.045197 153.351058 199.71638 159.196547 Q 199.56847 159.35864 199.501607 159.486288 Z" style="fill:#ffa238;"/>
		<path d="M 274.139484 127.258092 C 274.188112 127.108156 274.378571 127.065606 274.485958 127.181098 Q 275.778652 128.566995 276.749186 129.831323 C 280.809622 135.119616 284.164953 140.653075 286.703739 146.780201 Q 286.886094 147.217853 286.685504 147.586616 Q 282.864155 154.619438 280.728576 161.8954 Q 280.655634 162.142592 280.554325 162.310764 C 280.499619 162.401941 280.373997 162.422203 280.29295 162.353313 Q 279.812749 161.944028 279.403463 161.370623 C 276.990299 157.990978 275.389628 154.16355 275.338974 149.977491 Q 275.324791 148.852969 275.306555 143.240489 C 275.290346 138.120368 275.000604 132.854363 274.145562 127.588357 Q 274.109091 127.355348 274.139484 127.258092 Z" style="fill:#ffa238;"/>
		<path d="M 304.955442 150.125401 Q 304.933155 150.137558 304.762957 150.153768 Q 304.580602 150.172003 294.694938 150.133506 C 293.420479 150.127428 293.633227 148.283617 293.606887 147.242167 Q 293.566363 145.513848 295.203505 145.444958 Q 300.129115 145.238289 303.693141 145.7347 Q 304.694067 145.874505 304.973678 147.001054 Q 305.291786 148.283617 305.235053 149.653305 C 305.226949 149.847817 305.121588 150.026119 304.955442 150.125401 Z" style="fill:#ffffff;"/>
		<path d="M 270.567353 181.34862 Q 265.246641 181.360777 257.913946 181.342541 Q 257.263547 181.340515 257.291913 180.730639 Q 257.308123 180.408478 257.269626 177.091645 C 257.267599 176.998441 257.192631 176.923473 257.099428 176.923473 L 240.286302 176.923473 C 240.209308 176.923473 240.144471 176.984258 240.142444 177.061252 L 240.057345 181.042668 C 240.053293 181.212866 239.913488 181.350646 239.74329 181.352672 Q 239.544725 181.354698 218.715739 181.34862 C 218.115994 181.34862 218.221355 180.860314 218.221355 180.442923 Q 218.23959 162.576192 218.237564 146.913928 C 218.237564 146.778175 218.349003 146.666736 218.484756 146.666736 Q 240.480814 146.646474 247.440694 146.644448 C 254.874697 146.642422 262.584259 146.782228 270.512647 146.879484 C 270.62206 146.88151 270.711211 146.970661 270.711211 147.0821 L 270.711211 181.202736 C 270.711211 181.283782 270.646374 181.34862 270.567353 181.34862 Z M 266.571612 151.772229 C 266.571754 151.685549 266.502864 151.61666 266.415861 151.615951 L 262.602636 151.609284 C 262.517396 151.608555 262.44648 151.679471 262.446338 151.765036 L 262.422308 165.53484 C 262.422166 165.621519 262.491055 165.690409 262.578059 165.691118 L 266.391283 165.697784 C 266.476524 165.698513 266.54744 165.627598 266.547582 165.542033 L 266.571612 151.772229 Z" style="fill:#ffffff;"/>
		<path d="M 204.678461 160.347409 L 212.673712 151.497116 C 212.815544 151.339075 213.076919 151.440383 213.076919 151.651104 L 213.076919 171.576421 C 213.076919 171.801325 212.789203 171.894529 212.659529 171.712174 L 204.662252 160.637151 C 204.597414 160.547999 204.605519 160.426429 204.678461 160.347409 Z" style="fill:#ffffff;"/>
		<path d="M 304.232101 152.887066 C 304.904788 152.887066 305.451853 153.434131 305.451853 154.106818 L 305.451853 158.987852 C 305.451853 159.998908 304.710276 160.817479 303.796475 160.817479 L 295.493247 160.817479 C 294.579446 160.817479 293.83787 159.998908 293.83787 158.987852 L 293.83787 154.106818 C 293.83787 153.434131 294.384934 152.887066 295.057621 152.887066 L 304.232101 152.887066 Z" style="fill:#ffffff;"/>
		<path d="M 257.015484 192.879895 C 257.014329 193.130775 256.809686 193.335418 256.558806 193.334972 L 240.799307 193.307477 C 240.547678 193.307051 240.343035 193.102408 240.34421 192.850779 L 240.366194 180.260204 C 240.367349 180.009324 240.571992 179.804681 240.822872 179.805127 L 256.58237 179.832622 C 256.834 179.833047 257.038643 180.03769 257.037468 180.28932 L 257.015484 192.879895 Z M 253.871745 182.795302 C 253.871745 182.724386 253.815013 182.667654 253.744097 182.667654 L 243.767255 182.667654 C 243.69634 182.667654 243.639607 182.724386 243.639607 182.795302 L 243.639607 190.442053 C 243.639607 190.512968 243.69634 190.569701 243.767255 190.569701 L 253.744097 190.569701 C 253.815013 190.569701 253.871745 190.512968 253.871745 190.442053 L 253.871745 182.795302 Z" style="fill:#ffffff;"/>
		<path d="M 241.146957 86.718927 C 242.77646 86.696275 244.119808 88.317208 244.147891 90.338653 C 244.176541 92.361435 242.877769 94.018839 241.249197 94.040762 C 239.619694 94.063415 238.276346 92.442482 238.248263 90.421037 C 238.219613 88.398254 239.518385 86.740851 241.146957 86.718927 Z" style="fill:#2e2020;"/>
		<path d="M 256.711417 86.958319 C 258.300944 86.927258 259.619978 88.531981 259.657949 90.543437 C 259.696973 92.553921 258.44075 94.209298 256.851222 94.239022 C 255.261695 94.270083 253.942661 92.66536 253.904691 90.653904 C 253.865667 88.64342 255.12189 86.988043 256.711417 86.958319 Z" style="fill:#2e2020;"/>
		<path d="M 249.365552 99.18151 C 248.149852 99.205824 246.299963 98.597974 246.492449 97.098611 C 246.626176 96.061214 247.714227 96.446186 248.506458 96.610305 Q 248.729336 96.656907 249.310846 96.64475 Q 249.892355 96.630567 250.113207 96.57586 C 250.897334 96.379322 251.969175 95.947749 252.145452 96.979067 C 252.400749 98.468299 250.581252 99.15517 249.365552 99.18151 Z" style="fill:#2e2020;"/>
		<path d="M 240.796896 101.691929 C 240.871864 101.05774 241.566839 100.640349 242.119982 101.061792 Q 243.039862 101.764871 243.661895 102.176183 C 246.63428 104.14359 250.662298 104.514379 253.742071 102.615861 Q 254.832148 101.9452 255.88778 100.889568 C 256.179548 100.5978 256.568572 100.543093 256.927204 100.802443 C 257.889632 101.505522 257.15616 102.623966 256.536154 103.286522 C 252.702647 107.369247 246.605914 107.255781 242.292207 104.060518 C 241.585075 103.535741 240.689509 102.57939 240.796896 101.691929 Z" style="fill:#2e2020;"/>
		<path d="M 266.547582 165.542033 C 266.54744 165.627598 266.476524 165.698513 266.391283 165.697784 L 262.578059 165.691118 C 262.491055 165.690409 262.422166 165.621519 262.422308 165.53484 L 262.446338 151.765036 C 262.44648 151.679471 262.517396 151.608555 262.602636 151.609284 L 266.415861 151.615951 C 266.502864 151.61666 266.571754 151.685549 266.571612 151.772229 L 266.547582 165.542033 Z" style="fill:#a38384;"/>
		<path d="M 253.871745 190.442053 C 253.871745 190.512968 253.815013 190.569701 253.744097 190.569701 L 243.767255 190.569701 C 243.69634 190.569701 243.639607 190.512968 243.639607 190.442053 L 243.639607 182.795302 C 243.639607 182.724386 243.69634 182.667654 243.767255 182.667654 L 253.744097 182.667654 C 253.815013 182.667654 253.871745 182.724386 253.871745 182.795302 L 253.871745 190.442053 Z" style="fill:#2e2020;"/>
	</g>
	<g id="surface4">
	</g>
</svg>
