<?xml version="1.0" encoding="utf-8"?>
<svg xmlns="http://www.w3.org/2000/svg" width="490pt" height="280pt" viewBox="0 0 490 280" version="1.1" xmlns:xlink="http://www.w3.org/1999/xlink">
	<g id="surface2" data-size="300.09643993677 148" data-bboxpos="95 53.628791077162" data-pivot="245.04821996839 127.62879107716" data-center="245.04821996839 127.62879107716">
		<path d="M 200.097388 91.011775 L 200.825938 94.60875 C 200.852638 94.738439 200.902225 94.864314 200.974699 94.978746 Q 201.268407 95.432659 201.626961 95.001632 Q 202.756022 93.655151 203.679105 92.655779 Q 221.690681 73.099373 241.861205 53.760388 C 242.067182 53.562039 242.399035 53.58874 242.570682 53.817604 C 243.493766 55.045839 244.470251 56.621184 245.187358 57.582412 Q 248.208359 61.625671 251.881622 66.931496 Q 253.163259 68.781477 259.334951 76.818409 C 266.380139 85.995844 274.13862 94.437102 282.198438 102.420632 Q 289.91496 110.060866 290.403202 110.617768 Q 292.844416 113.406091 293.466162 114.245258 C 293.717912 114.584739 293.416575 115.05391 293.00462 114.962364 Q 291.131752 114.550409 289.358058 113.642583 Q 287.534777 112.711871 278.879913 107.726456 Q 270.358554 102.817329 265.910969 99.807771 C 259.781235 95.665337 254.692831 89.802611 250.78689 83.177006 Q 246.140957 75.296465 243.78366 67.22139 Q 243.001709 64.547498 242.364705 61.675258 Q 242.215944 61.003925 241.903163 60.553826 C 241.788731 60.389807 241.552239 60.37455 241.418735 60.519497 C 239.881533 62.190202 238.172684 63.506168 236.364661 65.245533 C 225.894145 75.304094 214.923943 86.064504 204.392397 97.187281 Q 203.915598 97.690781 203.373954 98.030262 C 203.171791 98.156137 203.103132 98.415516 203.209935 98.629122 Q 204.079617 100.353229 205.944856 103.778556 C 206.166091 104.179068 206.352997 104.743598 206.475057 105.224212 C 206.513201 105.376788 206.532273 105.533178 206.532273 105.689569 C 206.608561 119.707472 206.475057 139.294393 206.528459 155.131764 Q 206.528459 156.06629 205.433727 155.761139 Q 204.049102 155.379699 202.256336 155.112692 Q 200.852638 154.9029 200.360581 154.765582 C 198.377096 154.204865 196.462269 154.26971 194.558886 153.823426 C 194.185075 153.735695 193.921882 153.403842 193.925696 153.018588 L 194.196518 103.305571 C 194.196518 102.855473 193.700647 102.577022 193.319207 102.821143 Q 193.159003 102.924132 192.819521 103.34753 Q 186.342678 111.388276 180.296861 120.802204 C 180.232016 120.905192 180.155728 120.996738 180.071811 121.080655 L 179.282232 121.858791 C 179.240273 121.90075 179.190686 121.942708 179.141099 121.977038 C 175.822575 124.135985 172.317145 125.707516 168.544708 127.423994 C 168.418833 127.48121 168.289144 127.526983 168.15564 127.565127 Q 167.549151 127.729146 166.729056 128.068627 Q 164.406089 129.041298 162.517963 129.281605 C 162.235698 129.319749 161.976319 129.15573 161.919103 128.90398 Q 161.800857 128.40048 162.216626 127.965639 Q 167.343174 122.587341 176.982151 113.264958 Q 177.790803 112.479193 178.12647 111.498893 C 178.24853 111.14034 177.848019 110.827559 177.531424 111.037351 Q 176.665556 111.617139 176.299374 111.769715 Q 170.95922 114.001136 165.291029 118.738616 Q 155.110407 127.244718 146.314411 133.412595 Q 142.751765 135.90721 139.833753 137.223177 Q 139.089946 137.558843 138.594074 137.162146 C 138.224078 136.864623 138.155419 136.296278 138.430055 135.819479 Q 138.777165 135.209176 139.143347 134.831551 C 146.4174 127.298119 154.511547 120.230044 163.330429 114.195671 Q 165.706798 112.570738 168.769757 111.849817 Q 171.287259 111.254772 172.359104 110.892404 Q 176.444321 109.511593 180.563868 106.357088 Q 184.382078 103.439075 187.563284 100.608794 C 189.123372 99.224168 191.434896 97.374186 193.246734 95.863686 Q 194.032499 95.211424 195.020428 95.009261 C 195.146303 94.98256 195.272178 95.028333 195.356094 95.123693 L 196.149489 96.039148 C 196.176189 96.069663 196.191447 96.103993 196.195261 96.142137 Q 196.313508 97.053777 197.106902 98.148509 C 197.251849 98.350672 197.557001 98.335414 197.68669 98.121808 Q 198.262664 97.149137 199.204819 95.089363 Q 199.61296 94.200609 199.92574 91.023218 C 199.929555 90.981259 199.963884 90.94693 200.009657 90.943115 C 200.051615 90.939301 200.089759 90.969816 200.097388 91.011775 Z" style="fill:#29511e;"/>
		<path d="M 316.844592 77.024386 C 317.088714 77.15789 317.409123 77.058716 317.580771 76.795522 Q 318.316949 75.666461 318.427566 74.533586 C 318.469525 74.091116 319.056942 73.965241 319.281991 74.350495 L 319.968582 75.536772 C 320.063942 75.700791 320.285177 75.73512 320.42631 75.605431 L 321.193003 74.899768 C 321.223518 74.873067 321.246405 74.838737 321.257848 74.800594 Q 321.894852 72.828551 322.123716 72.267835 Q 322.238148 71.989384 322.341136 71.909282 C 322.539485 71.737634 322.848451 71.874952 322.852265 72.134331 L 322.886595 73.904211 C 322.894224 74.28565 323.386281 74.438226 323.607516 74.125446 L 325.404096 71.619388 C 325.468941 71.531657 325.606259 71.577429 325.606259 71.684232 L 325.59863 73.450297 C 325.594816 73.62576 325.762649 73.755449 325.930482 73.709676 Q 326.502642 73.560915 326.895525 72.775149 C 326.967998 72.626388 327.158718 72.576801 327.296036 72.675975 L 327.402839 72.752263 C 327.482941 72.809479 327.517271 72.912468 327.486756 73.007828 L 326.25852 76.768822 C 326.163161 77.058716 326.502642 77.291394 326.742949 77.108303 Q 326.98707 76.921397 327.475313 77.066344 C 327.624074 77.108303 327.704176 77.276136 327.643146 77.421083 L 326.033471 81.170634 C 325.976255 81.307952 325.972441 81.460528 326.022028 81.601661 L 326.35388 82.475157 C 326.414911 82.639176 326.392024 82.822267 326.29285 82.967214 L 325.491827 84.122976 C 325.419353 84.229779 325.354509 84.344211 325.297293 84.462457 Q 321.982583 91.534347 316.020683 95.558534 Q 311.443408 98.64438 306.091811 100.234983 C 305.748516 100.337972 305.557796 100.707968 305.664599 101.066521 C 305.790474 101.478476 306.278717 101.638681 306.683043 101.631052 C 308.105812 101.596722 311.611242 101.299199 312.385564 102.302385 C 312.641128 102.634238 312.404636 103.126295 311.943094 103.225469 Q 311.500624 103.324643 310.714859 103.378045 C 310.348677 103.404746 310.096927 103.75567 310.192286 104.110409 Q 310.756817 106.15111 308.78096 106.971205 Q 308.101998 107.257285 307.758702 107.997278 C 307.423035 108.729642 306.73263 109.538294 306.892834 110.461377 C 306.965308 110.880961 307.464994 111.060238 307.785403 110.781787 L 309.402707 109.378089 C 309.864248 108.981392 310.562283 109.400975 310.428779 109.996021 Q 310.26476 110.724571 310.588984 111.758272 C 310.634756 111.899405 310.657643 112.048166 310.661457 112.196927 Q 311.107741 139.218105 311.092484 166.151552 C 311.092484 167.99772 311.180215 170.091823 313.468852 169.882031 Q 314.678016 169.771414 315.082342 169.660796 C 315.788005 169.470076 315.669758 168.75297 315.673573 168.096894 Q 315.700274 158.671523 315.643058 156.009075 C 315.6278 155.200423 315.959652 154.99826 316.749232 155.005889 Q 325.056986 155.101248 329.157461 155.078362 C 329.287151 155.078362 329.413026 155.116506 329.519829 155.188979 Q 330.133946 155.608563 330.179719 156.310412 Q 330.286522 157.874314 330.576416 167.818443 C 330.576416 167.860401 330.584045 167.906174 330.595488 167.948133 L 330.973113 169.370902 C 330.980742 169.393788 330.988371 169.416675 330.999814 169.439561 Q 331.289708 170.061308 332.35011 170.04605 Q 338.777367 169.943061 350.251068 169.962133 Q 354.603294 169.965948 358.688511 170.171925 C 363.288672 170.400789 367.728629 170.133781 372.321161 170.545736 Q 374.422893 170.732641 377.516368 170.744084 C 378.298319 170.744084 379.305319 171.011092 379.934694 171.018721 Q 387.319364 171.110266 394.871867 172.372831 C 395.165576 172.422419 395.173205 172.842002 394.883311 172.903032 L 393.239306 173.253957 C 393.227863 173.257771 393.21642 173.257771 393.204977 173.257771 Q 391.202419 173.414161 388.948111 174.028279 C 388.79935 174.070237 388.642959 174.093124 388.486569 174.104567 Q 386.758648 174.196112 384.954439 174.600438 C 383.447753 174.932291 382.120343 174.96662 380.632729 175.275586 Q 379.160372 175.576924 377.699459 175.744757 C 376.410193 175.889704 374.995052 176.35506 373.801146 176.438977 Q 372.889506 176.500007 370.902206 176.904333 C 369.471808 177.194227 367.793473 177.30103 366.374518 177.609996 C 364.665669 177.979993 362.838574 178.079167 361.034365 178.525451 C 360.740656 178.597925 360.446948 178.643698 360.149425 178.66277 Q 357.887488 178.811531 355.987919 179.353175 C 355.85823 179.387505 355.724726 179.410391 355.591222 179.41802 C 353.283513 179.540081 351.055906 180.123683 348.690981 180.337289 C 347.169037 180.474608 345.536476 180.856047 344.155664 180.993365 C 341.68775 181.237487 340.200136 181.287074 339.036746 181.611297 C 338.830768 181.668513 338.620976 181.699028 338.411185 181.706657 Q 336.751923 181.756244 332.838353 182.137684 Q 329.603745 182.450464 327.269335 182.522938 Q 318.828078 182.782317 310.733931 182.469536 C 309.421779 182.419949 308.391892 182.137684 307.197986 182.13387 C 305.962122 182.130055 304.84069 181.760059 303.612454 181.756244 Q 302.799988 181.756244 302.174427 181.630369 Q 300.740214 181.34429 297.650554 180.993365 C 296.422319 180.852233 295.209341 180.486051 293.992549 180.30296 Q 293.149567 180.17327 292.524006 180.039766 Q 279.925058 177.331546 267.696106 172.967877 Q 264.053358 171.667168 262.653475 171.232327 Q 260.025356 170.416046 257.599401 169.553993 Q 256.798378 169.267913 256.809821 168.115966 Q 256.91281 155.46743 256.928067 143.982285 C 256.928067 143.547444 256.577143 143.19652 256.142302 143.19652 Q 244.371077 143.219406 232.428205 142.879925 Q 231.363988 142.84941 231.367803 143.89074 Q 231.386875 150.852012 231.38306 161.11655 C 231.38306 161.49799 230.997806 161.761183 230.643067 161.627679 Q 229.52545 161.204281 228.671025 161.086035 C 228.552779 161.066963 228.438347 161.032633 228.327729 160.983046 C 227.210112 160.468103 226.012391 160.414701 224.887145 160.010375 Q 224.03272 159.701409 223.342314 159.628936 C 223.159223 159.609864 222.979947 159.567906 222.808299 159.499246 Q 221.454189 158.97286 220.122965 158.835542 C 219.981832 158.820284 219.840699 158.789769 219.707195 158.740182 Q 218.292055 158.240496 216.945573 158.065034 C 216.819698 158.045962 216.701452 158.015447 216.583206 157.973488 Q 215.114663 157.42803 214.00086 157.313598 C 213.890242 157.302155 213.779625 157.279268 213.672822 157.241124 Q 212.425514 156.779582 210.030074 156.459173 Q 208.611119 156.264639 208.660706 154.77321 C 208.897199 147.678435 208.817096 136.483184 208.85524 115.195042 Q 208.85524 114.996694 208.885755 114.893705 C 209.004002 114.527523 209.446471 114.390205 209.751623 114.619069 Q 216.472588 119.669328 224.452304 125.253603 Q 224.97869 125.619785 225.67291 125.871535 C 226.145895 126.043183 226.580736 125.535869 226.340429 125.093399 Q 225.962804 124.402993 225.127452 123.533311 Q 224.177667 122.549197 221.766969 120.51231 Q 215.065076 114.847932 208.778952 110.152411 Q 208.092361 109.641282 208.080918 108.828816 Q 208.054217 107.081823 208.107619 105.399675 C 208.111433 105.247099 208.164835 105.094523 208.252566 104.964833 Q 208.60349 104.446076 209.26338 104.156182 C 211.552018 103.145367 212.726852 102.630423 214.367042 101.467033 Q 214.847656 101.127552 216.060633 99.68571 Q 222.457375 92.098877 230.902446 86.403985 Q 231.459348 86.030174 232.432019 85.461829 C 233.580152 84.790495 234.114167 84.706579 235.319516 85.282552 Q 243.547168 89.219009 245.564983 98.053149 C 245.950237 99.739112 245.839619 101.26487 245.86632 102.851658 Q 245.885392 103.919689 245.568797 106.017607 Q 245.1721 108.653354 245.221687 109.191184 Q 245.591684 113.261144 245.591684 114.531337 Q 245.595498 117.224301 244.779217 120.13087 Q 243.669228 124.113099 241.437807 127.736775 C 240.362147 129.487582 240.892348 131.657973 241.872648 133.401152 Q 242.357076 134.26702 243.077997 134.118259 C 243.188614 134.095372 243.287789 134.034342 243.356448 133.946611 Q 243.993452 133.103629 244.458808 131.444367 Q 244.615198 130.898909 245.431479 130.628087 C 245.606941 130.567056 245.801475 130.63953 245.893021 130.799734 L 247.327234 133.290535 C 247.441665 133.481254 247.701044 133.515584 247.857435 133.363008 Q 257.176003 124.334334 267.989814 115.648955 C 268.260636 115.435349 268.409398 115.099682 268.386511 114.756387 C 268.321667 113.63114 268.249193 111.506522 269.950414 111.846003 Q 270.404327 111.933734 270.915456 112.582181 C 270.972672 112.65084 271.003187 112.738572 271.003187 112.826303 L 270.991743 114.817417 C 270.987929 114.95855 271.045145 115.095868 271.148134 115.198857 Q 276.720966 120.695401 281.328755 126.756475 Q 283.834813 130.052113 285.207996 132.432296 Q 286.241697 134.225062 287.134265 136.795964 C 287.538591 137.966984 288.362501 139.324908 289.480119 140.267064 Q 291.848858 142.261993 292.367616 142.593845 Q 293.588223 143.375797 293.88956 144.306509 C 293.904817 144.348467 293.912446 144.39424 293.912446 144.436198 L 293.939147 151.222008 C 293.939147 151.672107 293.572965 152.038289 293.122866 152.034474 L 283.014718 151.981073 C 282.755339 151.977258 282.541733 152.183236 282.53029 152.446429 C 282.503589 153.243638 282.343385 155.394957 282.762968 156.401957 C 282.904101 156.73381 283.228324 156.95123 283.590692 156.955045 Q 287.550035 156.970302 291.467419 156.623192 Q 293.378431 156.455359 293.355545 158.293897 Q 293.248741 166.864844 293.302143 167.253913 C 293.576779 169.260285 294.587594 169.233584 296.273557 169.225955 C 297.307258 169.222141 297.55138 168.432561 297.559008 167.547621 Q 297.787872 141.342724 297.742099 111.636211 C 297.742099 111.2624 297.974778 110.934362 298.325702 110.812302 C 298.764357 110.655912 299.008479 110.449934 299.389918 109.931176 Q 299.668369 109.553551 299.916305 109.740457 C 300.206199 109.961692 300.637226 109.7519 300.717328 109.347574 Q 300.839389 108.722013 300.679184 108.611396 C 300.305373 108.359645 299.908676 108.599952 299.744657 108.916547 C 299.59971 109.198812 299.180127 109.137782 299.119096 108.828816 L 298.802501 107.253471 C 298.710956 106.803372 298.249414 106.53255 297.810759 106.669868 Q 296.300258 107.139039 294.412132 106.944505 Q 293.466162 106.849145 293.557707 105.876474 C 293.569151 105.754413 293.622552 105.639981 293.710283 105.556065 C 294.190897 105.090708 294.446462 104.838958 295.091095 104.690197 Q 295.884489 104.503292 296.433762 104.003606 C 296.651182 103.805257 296.597781 103.450518 296.334587 103.320829 Q 295.186454 102.756298 294.404503 102.52362 C 290.864744 101.463218 287.515705 99.250869 284.643465 96.62275 Q 278.693008 91.183422 276.488287 83.608033 C 276.339526 83.089275 276.389113 82.475157 276.244166 81.906812 Q 275.858912 80.400126 276.057261 78.504372 C 276.114477 77.966542 276.789625 77.752936 277.144363 78.16489 L 278.185693 79.370239 C 278.30394 79.507558 278.525175 79.454156 278.570947 79.282508 Q 278.647235 78.984985 278.513731 78.531072 Q 277.792811 76.074602 277.911057 73.194733 C 277.9225 72.885767 278.307754 72.759892 278.502288 72.996384 Q 278.727338 73.274835 278.86847 73.621945 Q 282.480703 82.379797 290.006505 88.009845 Q 293.09998 90.321369 294.011621 91.141464 Q 296.563451 93.43773 298.596524 95.661523 Q 299.984964 97.179652 300.911862 98.037891 C 301.155983 98.26294 301.529794 98.259126 301.770101 98.034077 Q 303.265344 96.626565 304.211314 95.272454 Q 304.798731 94.433287 305.34419 92.49176 Q 305.94305 90.344255 307.133141 88.643035 Q 309.185286 85.709765 311.546397 83.516487 Q 314.391936 80.873111 315.746046 79.229107 C 315.852849 79.099417 315.925323 78.950656 315.963467 78.786637 L 316.325834 77.203663 C 316.360164 77.058716 316.470781 76.948098 316.615729 76.921397 Q 316.650058 76.917583 316.844592 77.024386 Z M 303.806988 110.694056 L 304.463064 108.969949 C 304.527909 108.80593 304.443992 108.622839 304.279973 108.561808 L 304.157913 108.512221 C 303.604825 108.30243 302.979264 108.607581 302.754215 109.191184 L 302.677927 109.389532 C 302.456692 109.973135 302.719886 110.617768 303.272973 110.831374 L 303.395034 110.877147 C 303.559053 110.938177 303.742144 110.858075 303.806988 110.694056 Z M 278.605277 150.840569 C 278.605277 150.401913 278.246724 150.04336 277.808068 150.04336 L 261.162046 150.04336 C 260.723391 150.04336 260.364838 150.401913 260.364838 150.840569 L 260.364838 155.394957 C 260.364838 155.833612 260.723391 156.192166 261.162046 156.192166 L 277.808068 156.192166 C 278.246724 156.192166 278.605277 155.833612 278.605277 155.394957 L 278.605277 150.840569 Z" style="fill:#29511e;"/>
		<path d="M 312.923394 112.486821 C 313.075969 112.093939 313.54514 111.933734 313.907508 112.151155 Q 318.5954 114.977622 321.143416 116.1906 C 323.027727 117.086982 324.782349 117.216672 326.716248 117.804089 Q 328.75695 118.425835 330.954041 119.924893 Q 340.425185 126.382664 343.102891 128.488211 Q 350.11375 133.988569 351.25044 134.907838 Q 356.838529 139.435526 363.563309 145.759794 Q 365.92442 147.983586 368.304602 150.695622 C 368.499137 150.916856 368.346561 151.267781 368.052852 151.27541 Q 367.968936 151.27541 367.751515 151.195307 Q 363.609082 149.619962 359.825201 146.659991 Q 344.823184 134.923096 337.102847 129.232018 Q 326.228005 121.221787 313.323905 113.66547 C 312.923394 113.428977 312.751746 112.93692 312.919579 112.498265 L 312.923394 112.486821 Z" style="fill:#29511e;"/>
		<path d="M 102.17804 164.99579 C 101.991135 165.007234 101.89196 164.774555 102.033093 164.64868 C 109.638998 157.820912 117.729331 151.042732 125.968425 145.012172 C 126.002755 144.985471 126.03327 144.954956 126.059971 144.920627 L 126.555842 144.230221 C 126.746562 143.959399 126.552028 143.585588 126.220175 143.593217 C 124.396894 143.635175 121.280533 143.844967 120.212502 142.895183 C 119.850135 142.570959 119.907351 141.987357 120.330749 141.743235 L 125.510698 138.752749 C 125.834921 138.565844 125.838736 138.096673 125.514512 137.905953 Q 124.908023 137.551215 124.461739 137.482555 C 124.305349 137.459669 124.160402 137.383381 124.053599 137.268949 C 123.572985 136.754006 123.031341 136.322979 123.058041 135.792778 C 123.073299 135.487627 123.31742 135.243505 123.614943 135.235876 C 125.014826 135.201547 126.353679 135.285464 127.032641 134.450111 C 127.257691 134.17166 127.154702 133.755891 126.826664 133.614758 L 125.136887 132.890023 C 124.89658 132.787034 124.846993 132.47044 125.045341 132.298792 L 127.131816 130.490768 C 127.333979 130.315306 127.280577 129.991083 127.036456 129.888094 L 126.700789 129.743147 C 126.483369 129.651601 126.456668 129.354079 126.651202 129.220575 C 127.780263 128.438624 127.787892 128.072442 127.318721 126.836577 C 127.250062 126.653486 127.276763 126.447509 127.391195 126.287304 L 128.600358 124.601342 C 128.638502 124.54794 128.718604 124.544126 128.764377 124.593713 L 130.126116 126.169058 C 130.217662 126.272047 130.225291 126.428437 130.141374 126.539055 L 129.836222 126.966267 C 129.717976 127.130286 129.72179 127.351521 129.847665 127.507911 Q 130.457969 128.278419 131.190333 128.442438 C 131.468783 128.503468 131.548886 128.865836 131.320022 129.037484 Q 130.721162 129.487582 131.125488 130.231389 C 131.156003 130.288605 131.197961 130.338193 131.251363 130.376337 L 133.456084 131.955496 C 133.787936 132.195803 133.688762 132.710747 133.292065 132.809921 Q 132.590216 132.985383 131.941769 132.977754 C 131.499299 132.970125 131.156003 133.363008 131.220848 133.797849 Q 131.297136 134.316607 131.640431 134.434853 Q 132.746606 134.816293 135.069573 136.010199 C 135.355653 136.15896 135.30988 136.586172 134.997099 136.666275 Q 133.864224 136.967612 133.181447 137.432968 C 132.918254 137.612245 132.952583 138.008942 133.242477 138.142446 Q 134.73772 138.817594 136.007914 139.324908 Q 136.599145 139.561401 136.877596 139.912325 C 137.072131 140.156447 136.904297 140.518814 136.591517 140.526443 C 135.164933 140.564587 133.719277 140.518814 132.658875 141.319837 C 132.449083 141.480042 132.430011 141.789008 132.613102 141.975913 Q 134.566073 143.955585 137.255222 145.08846 C 137.892226 145.359282 138.655105 145.008358 139.253965 144.604032 Q 149.75881 137.509256 154.152994 134.77052 Q 155.865657 133.702489 158.798928 132.43611 C 159.012534 132.344565 159.237583 132.27972 159.466447 132.24539 C 160.687053 132.054671 161.549107 131.780034 162.777342 131.730447 Q 162.85363 131.726633 166.07298 131.440553 Q 168.056465 131.265091 169.315216 130.826435 Q 173.343218 129.415109 176.528238 127.698631 C 177.630598 127.103585 178.37822 127.912237 179.270788 128.751404 Q 184.740632 133.893209 190.64913 139.485113 Q 191.175517 139.980984 191.545513 140.865924 C 191.614172 141.026129 191.648502 141.197777 191.652316 141.373239 Q 191.713347 147.941628 191.633244 152.583747 Q 191.617987 153.556418 190.549956 153.35807 Q 187.132258 152.728694 183.783218 152.694365 Q 183.657343 152.694365 182.711373 152.484573 C 182.54354 152.446429 182.375706 152.423543 182.204059 152.419728 C 179.804804 152.354884 177.535238 152.011588 175.017737 151.99633 Q 163.521149 151.923857 161.247769 152.080247 Q 157.45626 152.339626 152.78744 152.782096 Q 151.032818 152.949929 148.896757 153.251267 Q 147.527389 153.441986 145.967301 153.625077 Q 144.845869 153.754767 143.037845 154.063733 Q 132.235477 155.9099 123.202988 158.465545 Q 121.764961 158.869871 121.410222 158.919458 C 120.601571 159.030076 119.949309 159.384815 119.041483 159.63275 Q 113.777617 161.051705 108.601482 162.909316 C 107.144383 163.431888 104.855746 164.046006 103.112567 164.77837 Q 102.662468 164.965275 102.17804 164.99579 Z" style="fill:#29511e;"/>
		<path d="M 390.401396 165.640423 C 390.527271 165.838772 390.374695 166.098151 390.138203 166.086708 C 389.093058 166.03712 387.956368 165.796813 386.705247 165.800628 Q 385.015469 165.804442 381.25829 165.510734 Q 378.073269 165.258984 376.940394 165.171253 Q 374.609798 164.991976 372.622498 164.980533 C 368.358004 164.950018 364.63134 164.614351 360.881789 164.58765 Q 349.255511 164.511362 339.216022 164.591464 Q 337.20965 164.606722 334.154319 164.911874 Q 332.556087 165.072078 332.502686 163.351786 Q 332.380625 159.514504 332.449284 154.391771 C 332.468356 153.07199 331.427026 152.72488 330.210234 152.743952 Q 324.908224 152.835497 317.382422 152.461687 Q 315.936766 152.389213 315.330277 151.412728 C 315.276876 151.324997 315.250175 151.225823 315.250175 151.126648 L 315.246361 132.672603 C 315.246361 132.607758 315.257804 132.542913 315.284504 132.481883 C 316.459338 129.582942 320.212704 130.76159 322.264848 131.577871 Q 326.975627 133.458368 331.602489 135.96824 Q 335.588532 138.127188 338.235722 139.832223 Q 342.889285 142.826524 343.751338 143.356725 Q 346.593063 145.103718 351.151266 145.931442 Q 351.860743 146.057317 354.889373 147.132976 Q 356.979662 147.876783 359.336959 148.956257 Q 375.433708 156.329484 390.225934 165.453518 C 390.275521 165.484033 390.317479 165.522177 390.351809 165.571764 Q 390.397581 165.636609 390.401396 165.640423 Z" style="fill:#29511e;"/>
		<path d="M 237.566195 147.373283 L 251.641315 147.445757 C 251.851107 147.449571 252.022754 147.621219 252.01894 147.83101 L 251.915951 167.387416 C 251.912137 167.642981 251.664201 167.826072 251.416266 167.749784 L 237.367847 163.267869 C 237.207642 163.218282 237.100839 163.069521 237.100839 162.905502 L 237.180941 147.750908 C 237.184756 147.541116 237.356404 147.369469 237.566195 147.373283 Z" style="fill:#29511e;"/>
		<path d="M 357.734912 190.23946 C 357.822644 190.262346 357.830272 190.380593 357.746356 190.418737 Q 353.649695 192.211503 349.823856 193.561799 Q 349.797155 193.573242 349.221182 193.752518 Q 343.877213 195.434667 338.903242 196.77352 Q 330.706106 198.982055 323.67236 200.046271 Q 321.810935 200.328536 320.04487 200.622245 C 318.568699 200.866366 317.340464 200.820593 315.894808 201.083787 C 315.608728 201.133374 315.318834 201.160075 315.02894 201.15626 C 312.91195 201.121931 310.787332 201.579658 308.708487 201.602544 Q 302.670298 201.667389 297.55138 201.572029 C 295.873046 201.541514 294.442647 201.194404 292.955033 201.209662 C 291.517006 201.221105 289.956918 200.790078 288.39683 200.797707 C 288.110751 200.797707 287.824671 200.767192 287.542406 200.706161 C 285.757269 200.313279 283.205438 200.107301 281.477517 199.748748 C 279.69238 199.382566 278.20858 199.245248 276.335712 198.840922 Q 264.152532 196.20136 257.618473 194.477254 Q 257.469711 194.43911 251.637501 192.92098 Q 229.514006 187.157428 220.294612 185.112912 Q 204.926413 181.710472 188.814406 179.288331 Q 185.713302 178.822974 184.008268 178.582667 Q 181.872206 178.277516 179.759031 178.044838 Q 177.958636 177.842675 175.643298 177.510822 Q 172.786316 177.098867 171.40169 177.117939 C 171.203342 177.121754 171.008808 177.091239 170.821902 177.030208 Q 170.024694 176.774644 168.804087 176.786087 C 167.591109 176.793716 166.343802 176.419905 164.985877 176.416091 Q 163.772899 176.412276 162.525592 176.152897 C 161.472819 175.931662 160.263655 176.130011 159.214697 175.908776 C 157.379972 175.519708 155.240096 175.725685 153.336713 175.386204 C 152.009303 175.153526 150.437772 175.363317 149.175208 175.168783 C 146.657707 174.779715 142.576303 174.993321 139.055616 174.657654 Q 137.83501 174.539408 136.000285 174.512707 Q 124.698231 174.356317 113.522052 174.520336 C 111.786503 174.547037 109.211786 174.817859 107.869118 174.840745 Q 97.745713 175.016207 97.051493 175.023836 Q 95.937689 175.035279 95.357901 174.814045 Q 95.136666 174.726313 95.068007 174.61951 C 94.915431 174.371575 95.029863 174.039722 95.308314 173.92529 Q 98.676425 172.540665 101.727941 171.423047 Q 118.530354 165.266613 136.034615 161.646751 Q 138.018101 161.234796 139.18912 161.097478 C 140.596632 160.929645 141.996515 160.506247 143.384955 160.403258 C 145.086176 160.273569 146.913271 159.735739 148.694594 159.63275 Q 151.200652 159.491618 153.973717 158.999561 C 154.393301 158.927087 154.820513 158.892758 155.247725 158.896572 C 157.616465 158.923273 159.607579 158.545648 161.911474 158.484617 Q 169.929334 158.271011 177.512352 158.526576 Q 178.748216 158.568534 180.308304 158.801212 C 181.460251 158.97286 182.806733 158.797398 184.034968 159.022447 Q 185.484439 159.28564 187.124629 159.281826 C 187.349678 159.281826 187.574727 159.316155 187.792148 159.388629 C 188.741932 159.705224 190.042641 159.621307 191.312835 159.808212 C 194.097344 160.216353 197.839266 160.632122 200.658104 161.162323 Q 204.010958 161.795513 205.231564 161.955717 Q 207.627005 162.272312 214.290754 163.840029 Q 227.633509 166.979276 233.934891 168.802557 Q 243.242016 171.49552 247.979495 173.063237 Q 252.537698 174.573738 254.631801 175.225999 Q 260.975141 177.201856 268.611561 179.891005 Q 269.847425 180.325846 272.326782 181.073468 Q 272.856983 181.233672 276.034374 182.282631 Q 277.468587 182.755616 283.289355 184.533124 Q 287.225811 185.730845 290.612994 186.558568 Q 299.733214 188.782361 303.086068 189.331634 Q 311.27176 190.678116 312.995867 190.868835 C 313.575655 190.93368 314.472038 190.914608 315.040383 191.044298 C 316.550884 191.395222 318.156744 191.212131 319.724461 191.574499 C 319.934253 191.624086 320.151673 191.646972 320.369094 191.643158 Q 322.657731 191.624086 327.154903 191.906351 C 330.313223 192.1047 334.802766 192.097071 338.617162 191.833877 C 341.798368 191.616457 344.491331 191.830063 347.519961 191.349449 Q 349.686538 191.006154 351.704353 190.910794 C 353.672581 190.819248 354.698654 190.598013 357.02162 190.189873 Q 357.334401 190.132657 357.734912 190.23946 Z" style="fill:#29511e;"/>
	</g>
	<g id="surface4">
	</g>
</svg>
