<?xml version="1.0" encoding="utf-8"?>
<svg xmlns="http://www.w3.org/2000/svg" width="490pt" height="280pt" viewBox="0 0 490 280" version="1.1" xmlns:xlink="http://www.w3.org/1999/xlink">
	<g id="surface2" data-size="85.517342458245 148" data-bboxpos="202 54.540811753066" data-pivot="244.75867122912 128.54081175307" data-center="244.75867122912 128.54081175307">
		<path d="M 280.565894 142.926716 C 280.694006 143.097532 280.800766 143.340946 281.014287 143.639874 Q 286.219912 150.942268 287.223457 159.952824 Q 287.829855 165.371969 287.185023 171.444487 Q 286.668304 176.308479 284.703917 180.890624 Q 282.816398 185.289142 279.442777 189.119697 Q 272.862082 196.588636 262.882143 199.740196 Q 258.667253 201.068292 256.694325 201.392843 Q 256.023872 201.503874 252.791174 201.9907 Q 251.018956 202.259735 248.866671 202.396388 Q 243.404822 202.742291 237.725182 202.259735 Q 236.789964 202.182868 232.284685 201.473981 Q 231.426334 201.341598 230.469763 201.034129 C 229.752335 200.803527 228.829927 200.658333 228.039902 200.436272 Q 222.565242 198.890385 217.466377 195.78153 Q 209.198871 190.742451 204.813164 182.167476 Q 204.518506 181.590971 203.566206 178.892074 C 202.891482 176.983203 202.677961 175.364719 202.276543 172.964751 Q 202.050212 171.628114 202.041671 170.402508 Q 201.977615 162.42966 202.071564 153.350777 C 202.075834 153.197042 202.105727 153.043308 202.161242 152.902384 C 202.720665 151.527314 204.014598 151.096003 205.534863 151.104543 Q 209.271468 151.130166 215.929031 151.091732 C 217.92331 151.083191 219.439304 151.446176 219.383789 153.692409 C 219.217243 160.170615 219.050698 163.121466 219.379519 168.11357 Q 219.657095 172.290027 220.575232 174.655832 Q 222.385884 179.319115 226.822836 182.385266 Q 230.730258 185.088433 235.688199 186.10479 Q 245.019036 188.013661 254.097919 185.814402 C 259.956915 184.396628 265.405953 180.73689 268.143283 175.317745 Q 269.552517 172.524899 269.953936 168.85235 C 270.517629 163.732134 269.612303 158.675973 266.503448 154.418378 Q 263.945474 150.908105 260.255844 148.081096 Q 256.228851 144.993593 250.950629 142.115339 Q 240.829767 136.593704 239.074631 135.735353 Q 232.01992 132.284865 223.513272 127.177459 Q 221.271309 125.832281 217.859254 123.223063 C 211.197421 118.13274 205.829521 111.436743 203.382578 103.425462 Q 202.8744 101.764274 202.622446 100.051841 C 202.361951 98.305245 202.075834 97.156506 202.050212 95.482507 Q 201.934911 87.394358 202.084375 86.168752 Q 203.783996 72.195984 214.310547 63.84734 Q 220.250682 59.132812 228.659111 56.604732 Q 229.338105 56.399752 230.819936 56.130717 C 231.639854 55.985523 232.852649 55.528589 233.685378 55.464533 C 235.560087 55.315069 237.947244 54.606182 240.069635 54.576289 Q 245.253908 54.499422 250.250283 54.5891 C 252.018231 54.623263 254.127811 55.148523 255.964086 55.443181 Q 262.672894 56.515053 268.903416 59.666613 Q 277.252059 63.885774 282.295409 71.478555 Q 284.426341 74.694171 286.040554 79.797306 Q 286.527381 81.330382 286.800687 83.384447 C 286.992855 84.840655 287.419896 86.67266 287.424166 88.25271 Q 287.428436 90.328127 287.445518 93.496768 Q 287.458329 95.649053 287.103886 98.689582 Q 286.740901 101.781356 286.441973 103.839691 Q 286.164396 105.786996 284.050545 105.846782 Q 283.422796 105.863864 272.73397 105.885216 C 270.120481 105.889486 269.975288 104.360681 269.988099 102.020498 Q 269.992369 100.538667 270.111941 92.437707 C 270.137563 90.78079 270.111941 88.735266 269.830094 87.103971 Q 268.331181 78.456399 260.524879 74.241508 Q 257.757656 72.742596 254.068026 71.807377 C 253.37195 71.62802 252.573384 71.683535 251.864496 71.401688 Q 251.608272 71.299198 250.989063 71.20952 Q 244.596265 70.252949 238.190657 71.303469 C 238.109519 71.31628 238.028381 71.341902 237.951514 71.380336 C 237.272519 71.713428 236.499576 71.623749 235.585709 71.858622 Q 231.575798 72.900601 228.266233 75.005911 C 223.009364 78.349638 219.947483 83.273416 219.3966 89.567995 Q 219.025075 93.770074 220.323278 98.117347 Q 220.993732 100.376392 222.672002 102.87885 Q 225.259868 106.739297 229.346646 109.737122 Q 234.321669 113.388319 241.48314 117.210332 Q 250.228931 121.882156 258.85088 126.327649 C 263.193883 128.569612 268.224421 131.541814 272.52899 134.855649 Q 277.273411 138.506846 280.565894 142.926716 Z" style="fill:#000000;"/>
	</g>
	<g id="surface4">
	</g>
</svg>
