<?xml version="1.0" encoding="utf-8"?>
<svg xmlns="http://www.w3.org/2000/svg" width="490pt" height="280pt" viewBox="0 0 490 280" version="1.1" xmlns:xlink="http://www.w3.org/1999/xlink">
	<g id="surface2" data-size="263.61245720136 148" data-bboxpos="113 56.101496045399" data-pivot="244.80622860068 130.1014960454" data-center="244.80622860068 130.1014960454">
		<path stroke-opacity="0.831" vector-effect="non-scaling-stroke" d="M 310.45776 87.550435 Q 306.593937 87.085766 302.664455 86.964548 Q 301.507834 86.929193 300.336061 87.141324" style="fill:none;stroke-width:0.50;stroke:#6f7f9d;"/>
		<path stroke-opacity="0.831" vector-effect="non-scaling-stroke" d="M 292.780142 89.87883 Q 301.81593 91.454663 311.326488 92.000144 C 311.796208 92.025397 312.14976 91.585982 312.018441 91.136466 Q 311.957832 90.929385 312.276029 90.793015" style="fill:none;stroke-width:0.50;stroke:#6f7f9d;"/>
		<path stroke-opacity="0.831" vector-effect="non-scaling-stroke" d="M 372.64762 165.443071 L 362.773408 166.236038 C 362.328942 166.271393 362.030948 166.710808 362.147115 167.150224 L 362.152166 167.185579 C 362.283485 167.670451 362.7229 168.013901 363.222924 168.018952 L 370.112144 168.109866" style="fill:none;stroke-width:0.50;stroke:#6f7f9d;"/>
		<path stroke-opacity="0.831" vector-effect="non-scaling-stroke" d="M 371.627369 168.064409 L 373.915358 167.928039" style="fill:none;stroke-width:0.50;stroke:#6f7f9d;"/>
		<path stroke-opacity="0.831" vector-effect="non-scaling-stroke" d="M 355.661954 136.709365 L 355.90439 139.032709 C 355.90439 139.042811 355.914492 139.052912 355.924593 139.052912 C 355.934695 139.052912 355.944796 139.042811 355.944796 139.032709 L 356.010456 138.421569" style="fill:none;stroke-width:0.50;stroke:#6f7f9d;"/>
		<path stroke-opacity="0.831" vector-effect="non-scaling-stroke" d="M 357.11657 152.053538 Q 356.934743 157.230554 357.818624 164.710712 C 357.914588 165.539035 358.657048 166.140074 359.485371 166.059262 L 359.636893 166.059262 C 360.364201 166.064313 360.950088 165.458223 360.924834 164.730915 L 360.753108 159.912502 Q 360.753108 159.9024 360.753108 159.897349 L 360.692499 159.776131 C 360.641992 159.680167 360.611687 159.574101 360.606637 159.462985 L 360.29349 154.437491" style="fill:none;stroke-width:0.50;stroke:#6f7f9d;"/>
		<path stroke-opacity="0.831" vector-effect="non-scaling-stroke" d="M 359.157072 137.027562 Q 359.263138 133.148588 356.232689 134.401173 Q 355.732665 134.608254 355.550838 134.966857 Q 355.323554 135.396171 355.459924 135.86084" style="fill:none;stroke-width:0.50;stroke:#6f7f9d;"/>
		<path stroke-opacity="0.831" vector-effect="non-scaling-stroke" d="M 359.066159 137.234643 Q 358.742911 136.906344 358.586338 136.088123" style="fill:none;stroke-width:0.50;stroke:#6f7f9d;"/>
		<path stroke-opacity="0.831" vector-effect="non-scaling-stroke" d="M 256.687496 164.806676 L 280.557331 164.76627" style="fill:none;stroke-width:0.50;stroke:#6f7f9d;"/>
		<path stroke-opacity="0.831" vector-effect="non-scaling-stroke" d="M 258.364344 95.055846 L 250.247792 94.874019" style="fill:none;stroke-width:0.50;stroke:#6f7f9d;"/>
		<path stroke-opacity="0.831" vector-effect="non-scaling-stroke" d="M 360.227831 163.740969 Q 360.217729 163.589446 360.212678 163.554091 C 360.187425 163.442974 360.040953 163.417721 359.980344 163.513685 Q 359.859126 163.700563 359.899532 163.806628 C 359.929836 163.88744 360.010648 163.932897 360.09146 163.912694 C 360.172272 163.897542 360.232881 163.826831 360.227831 163.740969" style="fill:none;stroke-width:0.50;stroke:#6f7f9d;"/>
		<path d="M 310.45776 87.550435 Q 306.593937 87.085766 302.664455 86.964548 Q 301.507834 86.929193 300.336061 87.141324 Q 297.745027 86.929193 295.113587 86.792822 C 290.815401 86.57059 286.719244 86.080667 282.461463 86.080667 C 281.476567 86.075616 279.365355 86.070566 279.13302 87.272644 C 279.052208 87.686805 279.340101 88.095915 279.789618 88.217133 C 282.016997 88.823223 284.587828 88.782817 286.971781 89.065659 Q 289.921418 89.419211 292.780142 89.87883 Q 301.81593 91.454663 311.326488 92.000144 C 311.796208 92.025397 312.14976 91.585982 312.018441 91.136466 Q 311.957832 90.929385 312.276029 90.793015 Q 312.558871 90.570782 313.02354 90.616239 Q 314.665033 90.787964 316.634824 91.808215 C 318.190455 92.606233 319.927912 94.61138 319.594563 96.596324 C 319.559208 96.793304 319.427888 96.954927 319.246061 97.025638 L 317.326777 97.803453 C 317.023732 97.924671 316.887362 98.273173 317.028783 98.561065 Q 320.902707 106.69277 324.498839 114.970946 Q 325.736272 117.824618 327.064619 120.678291 Q 327.574745 121.789456 326.756523 122.446053 C 326.625204 122.552118 326.453479 122.597575 326.286804 122.572321 Q 323.776582 122.233921 321.761334 121.698542 C 316.786347 120.380297 311.967933 120.168165 305.952492 120.163115 Q 298.679415 120.163115 294.765085 120.622733 C 293.98727 120.713646 293.31047 121.188417 292.951867 121.88542 L 292.921562 121.951079 C 292.663974 122.456154 293.052882 123.052143 293.618566 123.011737 Q 306.265639 122.153109 318.185404 123.016787 Q 320.074384 123.153157 321.241107 123.127904 C 323.933155 123.067295 326.796929 123.799653 328.882888 124.026937 C 335.231679 124.728991 341.540063 125.910866 347.863599 127.304872 Q 355.97005 129.097888 363.652238 131.825292 Q 365.521015 132.48694 368.112048 133.790033 Q 370.182855 134.830487 370.379834 137.345759 Q 370.576813 139.946895 370.935416 141.446967 C 371.001076 141.714656 371.031381 141.982346 371.036431 142.255087 C 371.09199 146.674491 371.879906 151.861609 372.132444 155.806243 Q 372.344575 159.09428 373.061781 164.256145 Q 373.127441 164.705661 372.64762 165.443071 L 362.773408 166.236038 C 362.328942 166.271393 362.030948 166.710808 362.147115 167.150224 L 362.152166 167.185579 C 362.283485 167.670451 362.7229 168.013901 363.222924 168.018952 L 370.112144 168.109866 L 371.627369 168.064409 L 373.915358 167.928039 L 375.607358 168.094713 C 376.178093 168.150272 376.612457 168.635143 376.612457 169.210929 L 376.612457 185.161191 C 376.612457 185.752128 376.132636 186.23195 375.541699 186.23195 L 344.621019 186.23195 C 343.903813 186.23195 343.328028 185.651114 343.322977 184.933907 Q 343.302774 181.282216 342.595669 177.357785 C 341.979478 173.933378 340.30768 170.428159 338.105554 167.624994 Q 330.862782 158.397277 318.796545 157.255808 C 316.432795 157.033575 313.720543 157.669969 311.887121 157.634614 C 311.614381 157.629563 311.346691 157.669969 311.094154 157.755832 C 309.235479 158.387176 307.361651 158.680119 305.523179 159.579152 Q 294.977217 164.715763 291.694231 176.266824 Q 290.416391 180.761989 290.598218 185.034922 C 290.623472 185.656164 290.108296 186.161239 289.492105 186.120833 C 286.497011 185.933955 283.648389 186.135985 280.112865 186.146087 Q 261.187713 186.216797 248.116377 186.125884 Q 244.641462 186.10063 241.323121 185.944057 C 240.257413 185.893549 239.974571 184.736928 239.095741 184.358122 Q 238.661376 184.171244 237.676481 184.151041 C 226.519378 183.908605 221.781777 184.090432 213.77129 183.408581 C 210.008483 183.090384 203.922332 182.969166 199.179679 182.312569 C 196.235093 181.903458 193.654161 181.873154 190.896452 181.458993 Q 186.638672 180.812497 184.093095 180.706431 C 183.79005 180.69633 183.492056 180.645822 183.204163 180.55996 Q 182.37079 180.317524 180.880819 180.145798 C 180.421201 180.09024 180.022192 179.8175 179.81006 179.408389 Q 179.385798 178.600269 179.108007 177.463851 Q 178.880723 176.539564 177.067504 174.100053 C 176.981642 173.988936 176.870525 173.892972 176.749307 173.817211 L 175.966441 173.367694 C 175.516925 173.110106 174.961342 173.483862 175.037104 173.999038 C 175.648244 178.322478 176.213928 182.358026 174.865378 186.737024 Q 172.289497 195.090962 165.334617 199.242676 Q 158.708035 203.202463 151.071304 201.69734 Q 143.964902 200.303334 139.323264 193.398961 Q 138.732327 192.51508 138.065628 192.848429 C 137.949461 192.909038 137.843395 192.98985 137.757532 193.090865 C 136.949413 194.06566 136.499896 195.040454 135.590762 195.88898 Q 133.211859 198.11636 129.893518 198.909327 Q 129.075297 199.106306 126.403451 199.06085 Q 124.534674 199.030545 122.984094 198.394151 C 117.746469 196.237481 114.564498 191.464524 113.493739 185.979412 Q 112.07953 178.751792 114.71602 172.301986 Q 117.473728 165.564289 125.065003 163.695512 C 126.130711 163.432873 128.110604 163.599548 129.30258 163.932897 Q 134.257364 165.311751 137.484792 169.529126 C 137.787837 169.928135 138.373724 169.96349 138.722225 169.604887 C 139.378823 168.938188 139.853593 168.044206 140.363718 167.407812 Q 143.641654 163.301554 148.434814 161.033768 C 149.434862 160.558997 150.515722 160.382221 151.586481 159.897349 C 151.828916 159.786233 152.086505 159.715522 152.349143 159.680167 Q 156.884715 159.104382 158.460549 159.149839 Q 162.698126 159.266006 167.622606 161.38732 Q 168.203442 161.639857 169.829782 161.463081 Q 172.521831 161.170138 176.22908 160.77618 C 178.976687 160.488287 181.067697 160.634759 183.961775 160.341815 Q 186.396236 160.099379 190.032774 159.806436 Q 193.825886 159.508442 196.108824 159.543797 C 199.209984 159.589254 201.765662 159.200346 205.013293 159.104382 Q 208.215467 159.013468 213.059135 158.765982 C 213.508651 158.740728 213.862204 158.366973 213.867254 157.917456 Q 213.948066 117.950887 213.821798 61.099667 Q 213.816747 60.10467 213.761189 57.67526 Q 213.715732 55.958006 215.544103 56.114579 C 219.98371 56.493385 223.064667 56.564096 227.529528 57.018663 Q 230.58523 57.331809 232.777255 57.478281 C 237.232015 57.766174 241.934261 58.357111 247.116329 58.826831 Q 250.626599 59.145028 260.354339 60.665303 Q 268.819393 61.988599 278.653199 64.791764 Q 280.27954 65.251382 285.067649 67.221174 Q 295.709575 71.58502 304.275644 79.938957 Q 306.578785 82.18149 309.846619 85.984703 Q 310.599181 86.863533 310.45776 87.550435 Z M 272.365018 92.156717 C 265.677828 91.530424 260.510912 92.015296 251.672103 92.540574 C 251.475124 92.555726 251.283196 92.540574 251.086217 92.505218 C 249.550789 92.197123 247.32846 91.63649 246.843588 93.712347 C 246.838538 93.737601 246.838538 93.762855 246.838538 93.788108 L 246.767827 154.088989 C 246.762776 154.205156 246.803182 154.321324 246.878943 154.412237 Q 247.687063 155.457742 249.252795 155.457742 Q 264.576765 155.462793 279.779516 155.356727 C 281.870526 155.341575 284.108007 155.250661 285.057548 153.361681 C 285.855566 151.780797 286.209118 150.553466 286.209118 148.684689 Q 286.229321 132.259656 286.188915 119.097407 C 286.188915 118.718601 286.138408 118.339795 286.042444 117.976141 Q 285.365643 115.435615 284.522169 113.698157 Q 282.395804 109.314108 277.3097 99.207561 Q 275.925795 96.449853 274.74392 93.611332 C 274.708565 93.52547 274.658058 93.439607 274.597449 93.363846 Q 273.769126 92.288036 272.365018 92.156717 Z M 313.584173 117.132666 L 313.584173 116.693251 C 313.584173 116.516475 313.543767 116.344749 313.462955 116.188176 Q 309.634488 108.657511 306.154522 101.546057 C 305.487824 100.182355 305.154474 97.990331 303.361459 97.828707 Q 292.573061 96.843811 281.572532 97.04079 C 281.163421 97.050892 280.850275 97.414546 280.910884 97.823656 Q 281.011899 98.510558 281.461415 99.298475 Q 284.618133 104.849247 290.512356 115.531579 C 290.583066 115.657847 290.663878 115.768964 290.759842 115.87503 Q 291.093192 116.248785 291.259866 116.561931 C 291.694231 117.375102 292.618518 117.799365 293.522601 117.607436 Q 295.861098 117.107412 300.144132 117.082158 Q 305.821173 117.046803 311.316387 117.243782 Q 312.003288 117.269036 312.947778 117.587233 C 313.260925 117.693299 313.584173 117.460964 313.584173 117.132666 Z M 322.781585 119.11761 C 323.276558 119.178219 323.645263 118.673144 323.443233 118.218577 L 314.912519 99.19746 C 314.821606 98.99543 314.629677 98.854009 314.407445 98.823704 L 307.841472 98.020635 C 307.331347 97.960026 306.957591 98.490355 307.189926 98.944922 L 316.852007 118.102409 C 316.953022 118.294338 317.134848 118.425657 317.34698 118.450911 L 322.781585 119.11761 Z M 355.459924 135.86084 L 355.661954 136.709365 L 355.90439 139.032709 C 355.90439 139.042811 355.914492 139.052912 355.924593 139.052912 C 355.934695 139.052912 355.944796 139.042811 355.944796 139.032709 L 356.010456 138.421569 Q 356.005405 145.290586 357.11657 152.053538 Q 356.934743 157.230554 357.818624 164.710712 C 357.914588 165.539035 358.657048 166.140074 359.485371 166.059262 L 359.636893 166.059262 C 360.364201 166.064313 360.950088 165.458223 360.924834 164.730915 L 360.753108 159.912502 Q 360.753108 159.9024 360.753108 159.897349 L 360.692499 159.776131 C 360.641992 159.680167 360.611687 159.574101 360.606637 159.462985 L 360.29349 154.437491 L 359.157072 137.027562 Q 359.263138 133.148588 356.232689 134.401173 Q 355.732665 134.608254 355.550838 134.966857 Q 355.323554 135.396171 355.459924 135.86084 Z M 354.434623 164.533936 C 354.863936 164.533936 355.126575 164.064216 354.904342 163.700563 C 354.08107 162.367165 353.06587 161.548944 351.530443 160.195343 Q 342.378487 152.129299 330.741564 148.891769 C 329.019259 148.411948 326.998959 148.139208 324.902899 147.684641 Q 323.721024 147.432103 318.478347 147.038145 C 315.92772 146.851267 312.973032 147.447255 310.275933 147.512915 C 309.85167 147.523017 309.432458 147.598778 309.028398 147.740199 C 307.528326 148.250324 306.109066 148.437202 304.947394 148.871566 Q 292.244762 153.599067 286.815208 165.917841 C 286.244474 167.210832 286.108103 168.508875 285.527267 169.887729 C 285.431303 170.120063 285.365643 170.36755 285.330288 170.620087 C 285.20907 171.635288 284.562574 174.064698 285.441405 175.403146 C 285.61313 175.660734 285.991936 175.655683 286.15356 175.393044 Q 286.997035 174.024292 287.325334 172.155515 C 287.350587 172.014094 287.385943 171.877724 287.441501 171.741353 Q 289.542612 166.579489 291.492201 163.705613 Q 297.164191 155.346625 307.189926 151.917167 C 308.659693 151.412093 310.063801 151.336331 311.664888 150.901967 Q 312.866966 150.573669 315.074143 150.472654 Q 335.17107 149.513011 348.934358 164.094521 C 349.202048 164.377363 349.570752 164.533936 349.954609 164.533936 L 354.434623 164.533936 Z M 256.687496 164.806676 L 280.557331 164.76627 Q 282.16852 163.043965 282.754407 160.463033 C 282.84532 160.03877 282.527123 159.639761 282.097809 159.639761 L 248.187087 159.639761 C 247.6012 159.639761 247.096126 160.058973 246.99006 160.634759 Q 246.641558 162.488383 247.232496 164.059166 C 247.424424 164.569291 247.914347 164.902641 248.454777 164.89759 L 256.687496 164.806676 Z M 150.044942 169.849444 C 145.318502 169.938236 141.59105 175.221319 141.713834 181.643446 C 141.838537 188.065371 145.768019 193.201982 150.491529 193.108947 C 155.217968 193.020155 158.94542 187.737072 158.822637 181.314945 C 158.697934 174.89302 154.768452 169.756409 150.044942 169.849444 Z M 278.703707 172.099957 L 278.703707 171.726201 C 278.703707 170.867574 278.001653 170.175622 277.143026 170.185723 Q 266.203105 170.29684 255.50057 170.609986 Q 253.924737 170.660493 248.959852 170.64029 C 247.752723 170.63524 247.116329 171.054452 246.99006 172.241378 Q 246.863791 173.493963 246.959755 180.044783 Q 246.974908 181.216557 248.495183 181.762038 C 248.54064 181.77719 248.586096 181.782241 248.631553 181.782241 L 277.314751 181.782241 C 278.031957 181.782241 278.617844 181.196354 278.617844 180.479148 L 278.617844 179.635673 C 278.617844 178.847756 277.98145 178.211362 277.193533 178.211362 L 251.167029 178.211362 C 250.267995 178.211362 249.540688 177.479003 249.540688 176.57997 L 249.540688 174.968781 C 249.540688 174.130357 250.217488 173.453557 251.055912 173.453557 L 277.350106 173.453557 C 278.097617 173.453557 278.703707 172.847467 278.703707 172.099957 Z M 124.881357 171.500786 C 120.635497 171.58478 117.2818 176.165809 117.38928 181.737895 C 117.493931 187.307759 121.024404 191.762519 125.268851 191.679838 C 129.514712 191.595844 132.868408 187.014815 132.760928 181.442729 C 132.656277 175.872865 129.125804 171.418106 124.881357 171.500786 Z" style="fill:#14315f;"/>
		<path d="M 208.03364 57.902544 L 207.710393 60.554186 C 207.644733 61.104718 207.190166 61.52393 206.634583 61.549184 Q 204.861771 61.635047 203.836469 62.094665 Q 202.740457 62.584587 201.654546 62.640145 C 200.341351 62.705805 199.371608 63.488671 198.048312 63.61494 Q 196.654305 63.741208 195.06837 64.473567 C 194.881493 64.55943 194.679463 64.604886 194.477433 64.604886 C 192.846041 64.614988 191.482339 65.514021 189.855998 65.690797 Q 188.977168 65.786761 187.446792 66.413054 C 187.118493 66.544374 186.775042 66.625186 186.42149 66.650439 Q 184.719388 66.756505 183.022336 67.448458 C 182.790002 67.544422 182.542515 67.59998 182.295029 67.620183 Q 180.845464 67.741401 179.178717 68.448506 C 178.936281 68.554571 178.678693 68.61518 178.416054 68.630333 C 177.860472 68.670739 176.880627 68.716195 176.15837 69.059646 Q 174.784566 69.721294 173.264291 69.766751 Q 172.976398 69.776852 171.456123 70.403145 C 171.183383 70.514262 170.900541 70.584972 170.612648 70.620327 C 168.854988 70.812256 167.31451 71.731492 165.824539 71.761796 C 164.440634 71.792101 163.506246 72.711337 162.203153 72.716388 Q 161.37483 72.716388 160.102042 73.241666 C 158.677731 73.827552 157.218065 73.630573 155.824058 74.423541 C 155.536165 74.585164 155.217968 74.681129 154.894721 74.701332 Q 152.904726 74.832651 151.283436 75.49935 C 151.010695 75.610466 150.727853 75.676126 150.43491 75.70138 Q 149.091411 75.812496 147.662049 76.458992 C 147.369106 76.590311 147.050909 76.671123 146.727661 76.691326 Q 145.242741 76.792341 144.116424 77.236807 C 142.631504 77.827745 141.38902 77.66107 140.141486 78.322718 C 139.010118 78.918706 137.611061 78.767184 136.38878 79.267208 Q 135.070535 79.807638 134.257364 79.837942 C 132.833053 79.88845 131.822904 80.726874 130.31273 80.797585 Q 128.807607 80.873346 127.549971 81.550146 C 127.307535 81.681465 127.039845 81.757227 126.762054 81.772379 Q 125.277134 81.843089 124.054853 82.363316 C 122.691151 82.949203 121.377957 82.686564 120.155676 83.257299 C 118.746517 83.913896 117.256546 83.838135 115.59485 84.454326 C 114.862492 84.727067 114.079626 84.186636 114.074575 83.403771 L 114.069524 82.827985 C 114.059423 81.944104 114.670563 81.176391 115.534241 80.979411 C 116.40297 80.782432 117.473728 80.721823 118.519233 80.252104 C 119.696058 79.721775 120.837527 79.777333 122.019402 79.322766 Q 123.307342 78.827793 124.984191 78.656067 C 125.196322 78.630814 125.408454 78.575255 125.600382 78.484342 C 127.130759 77.767136 128.585374 77.792389 130.080395 77.1863 Q 130.777399 76.908509 132.413841 76.681225 C 132.600719 76.655971 132.782546 76.610514 132.959322 76.554956 Q 136.217054 75.489248 140.23745 74.665976 Q 141.212244 74.463947 141.651659 74.28717 C 142.964854 73.751791 144.076018 73.716436 145.37406 73.256818 C 147.12667 72.645677 148.505524 72.681032 150.202576 71.943623 C 150.414707 71.85271 150.63694 71.797152 150.864224 71.771898 Q 152.207723 71.620375 153.566374 71.115301 C 154.798756 70.655683 155.965479 70.741545 157.142303 70.276876 C 158.60197 69.701091 160.167701 69.615228 161.703129 68.94853 C 161.996072 68.827312 162.304168 68.751551 162.627416 68.736398 Q 163.925458 68.665688 165.15279 68.155562 C 166.486187 67.605031 167.567047 67.690893 168.961054 67.185819 Q 170.28435 66.705998 171.516732 66.594881 C 172.668303 66.488815 173.6633 65.786761 174.895683 65.650391 Q 176.062405 65.524123 177.633188 64.867525 C 177.855421 64.776612 178.092806 64.721054 178.335242 64.700851 Q 179.709046 64.589734 181.522264 63.842223 C 181.734395 63.756361 181.956628 63.700803 182.183912 63.68565 C 183.734492 63.569483 185.381036 62.776516 187.143747 62.569435 Q 188.280165 62.438116 189.684273 61.826975 C 189.861049 61.751214 190.052977 61.700706 190.244906 61.675453 Q 191.679318 61.513829 193.548095 60.811775 C 193.78043 60.725912 194.022865 60.670354 194.270352 60.650151 Q 195.871439 60.533984 197.780622 59.76627 C 197.962449 59.690509 198.154377 59.645052 198.346306 59.6299 C 200.048408 59.483428 201.518175 58.710663 203.280887 58.518735 Q 204.129412 58.427822 205.659789 57.756072 Q 206.038595 57.589397 207.685139 57.523738 C 207.89222 57.513636 208.058894 57.695463 208.03364 57.902544 Z" style="fill:#14315f;"/>
		<path fill-opacity="0.663" d="M 310.45776 87.550435 Q 310.210273 88.883832 311.180017 89.378805 C 311.215372 89.399008 311.250727 89.424262 311.275981 89.459617 Q 311.669939 89.94954 311.639635 90.28794 Q 311.629533 90.429361 311.861868 90.530376 Q 312.089151 90.62634 312.276029 90.793015 Q 311.957832 90.929385 312.018441 91.136466 C 312.14976 91.585982 311.796208 92.025397 311.326488 92.000144 Q 301.81593 91.454663 292.780142 89.87883 L 296.184346 90.070758 C 296.285361 90.075809 296.376274 90.106113 296.457086 90.166722 L 296.785385 90.404107 C 296.805588 90.41926 296.825791 90.42431 296.845994 90.429361 Q 298.159188 90.535427 298.942054 90.343498 C 299.027917 90.318245 299.103678 90.272788 299.159236 90.202077 Q 299.18449 90.166722 299.139033 90.055606 C 299.098627 89.94954 299.149135 89.828322 299.2552 89.787916 Q 300.149183 89.429313 300.174437 89.363653 Q 300.229995 89.202029 300.280502 89.121217 Q 300.376467 88.959593 300.416873 88.954543 C 300.477482 88.944441 300.522938 89.010101 300.487583 89.060608 Q 300.224944 89.444465 300.416873 89.626292 Q 300.46738 89.671749 300.876491 89.94954 Q 301.47753 90.3536 301.836133 90.232382 C 301.992706 90.181874 301.967452 89.954591 301.805828 89.934388 L 301.063368 89.843474 C 300.74012 89.803068 300.53304 89.47982 300.629004 89.166674 Q 301.033064 87.909038 301.68461 88.075712 C 301.770473 88.095915 301.856336 88.070662 301.916945 88.010053 L 302.235142 87.691856 C 302.371512 87.555485 302.285649 87.328202 302.098772 87.307999 L 300.336061 87.141324 Q 301.507834 86.929193 302.664455 86.964548 Q 306.593937 87.085766 310.45776 87.550435 Z" style="fill:#f9f4fa;"/>
		<path d="M 190.638864 100.854105 Q 190.421682 101.344028 189.401431 101.586463 Q 187.835699 101.950117 182.84556 102.041031 Q 178.572627 102.116792 176.264435 102.283467 Q 167.491286 102.91481 159.874758 103.025927 C 146.510479 103.222906 141.015265 103.515849 127.297433 103.490595 Q 120.579938 103.475443 115.45848 102.995622 C 114.993811 102.950165 114.78673 102.384482 115.12008 102.051132 L 115.544343 101.626869 C 115.801931 101.369281 116.140331 101.212708 116.498934 101.187454 C 120.675903 100.864206 125.191271 101.035932 129.656133 100.702583 Q 139.005067 100.015681 149.212629 99.960123 C 158.788847 99.914666 164.516395 99.571215 176.112913 99.192409 Q 183.456701 98.949973 189.689324 99.490403 C 190.426733 99.551012 190.911605 100.248015 190.638864 100.854105 Z" style="fill:#14315f;"/>
		<path d="M 113.988712 120.248977 C 114.120032 119.607532 114.685715 119.147914 115.337262 119.147914 L 192.154089 119.112559 C 193.118782 119.112559 194.043068 119.481264 194.745122 120.142912 L 194.755224 120.153013 C 195.073421 120.546972 194.820884 121.132858 194.315809 121.168214 Q 181.527315 122.047044 176.895779 122.102602 C 154.904822 122.36019 135.479645 122.390495 114.857441 121.587426 C 114.256402 121.562172 113.822038 120.996488 113.958408 120.405551 L 113.988712 120.248977 Z" style="fill:#14315f;"/>
		<path d="M 198.24024 148.194766 Q 197.472526 148.89682 196.871487 148.906922 Q 156.324082 149.482707 115.473632 148.957429 C 114.751375 148.947328 114.114981 148.472557 113.897799 147.780605 L 113.882647 147.730097 C 113.695769 147.134109 114.120032 146.517918 114.741274 146.477512 Q 121.095115 146.038097 122.47902 146.027995 Q 140.787981 145.911828 167.097328 145.99264 C 177.628137 146.022945 185.54266 146.421954 196.714914 146.512867 Q 197.760419 146.522969 198.331153 147.730097 C 198.406915 147.886671 198.371559 148.078599 198.24024 148.194766 Z" style="fill:#14315f;"/>
		<path d="M 317.872258 204.101496 C 307.104063 204.687383 296.366173 198.3891 294.209503 187.484535 C 291.679078 174.675838 300.366365 163.175285 313.124555 161.276204 Q 314.947875 161.008514 315.52366 160.978209 Q 316.104496 160.942854 317.942968 161.013565 C 330.832477 161.513589 340.716791 172.003992 339.590474 185.009669 C 338.635883 196.085959 328.645503 203.510559 317.872258 204.101496 Z M 326.968655 181.837799 C 326.968655 175.822358 322.089632 170.943335 316.074191 170.943335 C 310.058751 170.943335 305.179728 175.822358 305.179728 181.837799 C 305.179728 187.85324 310.058751 192.732262 316.074191 192.732262 C 322.089632 192.732262 326.968655 187.85324 326.968655 181.837799 Z" style="fill:#14315f;"/>
		<path fill-opacity="0.663" d="M 372.64762 165.443071 C 371.965769 166.407764 370.561661 166.210784 369.652526 166.241089 Q 369.026234 166.266343 367.849409 166.443119 Q 364.975534 166.877483 363.450208 166.761316 Q 362.914829 166.725961 362.672393 166.852229 C 362.394602 167.003752 362.490566 167.422964 362.808763 167.438116 L 373.915358 167.928039 L 371.627369 168.064409 L 370.112144 168.109866 L 363.222924 168.018952 C 362.7229 168.013901 362.283485 167.670451 362.152166 167.185579 L 362.147115 167.150224 C 362.030948 166.710808 362.328942 166.271393 362.773408 166.236038 L 372.64762 165.443071 Z" style="fill:#f9f4fa;"/>
		<path fill-opacity="0.663" d="M 359.157072 137.027562 L 359.066159 137.234643 Q 358.742911 136.906344 358.586338 136.088123 Q 358.763114 135.310308 358.429764 134.790081 C 358.359054 134.678964 358.242887 134.608254 358.111567 134.593102 L 356.788271 134.431478 C 356.682206 134.416326 356.571089 134.44663 356.485226 134.507239 Q 355.783172 135.012314 355.879137 135.891144 C 355.889238 135.982057 355.828629 136.06792 355.742766 136.093174 C 355.651853 136.118428 355.560939 136.078022 355.520533 135.992159 L 355.459924 135.86084 Q 355.323554 135.396171 355.550838 134.966857 Q 355.732665 134.608254 356.232689 134.401173 Q 359.263138 133.148588 359.157072 137.027562 Z" style="fill:#f9f4fa;"/>
		<path d="M 358.586338 136.088123 Q 358.742911 136.906344 359.066159 137.234643 Q 359.263138 137.578094 359.066159 137.800327 C 358.965144 137.911443 358.788367 137.881139 358.727758 137.744769 Q 358.424714 137.062918 358.586338 136.088123 Z" style="fill:#14315f;"/>
		<path fill-opacity="0.663" d="M 356.010456 138.421569 L 355.944796 139.032709 C 355.944796 139.042811 355.934695 139.052912 355.924593 139.052912 C 355.914492 139.052912 355.90439 139.042811 355.90439 139.032709 L 355.661954 136.709365 Q 356.177131 137.386165 356.010456 138.421569 Z" style="fill:#f9f4fa;"/>
		<path fill-opacity="0.663" d="M 357.11657 152.053538 L 357.293346 155.275915 C 357.298397 155.321372 357.308498 155.366828 357.323651 155.412285 C 357.571137 156.124441 357.828725 156.988118 358.374206 157.407331 Q 358.657048 157.629563 358.525729 158.053826 C 358.510576 158.104334 358.550982 158.154841 358.606541 158.149791 Q 358.712606 158.134638 358.778266 158.038674 C 358.798469 158.00837 358.80857 157.967964 358.80352 157.927558 Q 358.616642 156.821444 359.525777 156.387079 C 359.672248 156.316369 359.778314 156.1901 359.823771 156.038578 L 360.29349 154.437491 L 360.606637 159.462985 C 360.611687 159.574101 360.641992 159.680167 360.692499 159.776131 L 360.753108 159.897349 Q 360.753108 159.9024 360.753108 159.912502 L 360.924834 164.730915 C 360.950088 165.458223 360.364201 166.064313 359.636893 166.059262 L 359.485371 166.059262 C 358.657048 166.140074 357.914588 165.539035 357.818624 164.710712 Q 356.934743 157.230554 357.11657 152.053538 Z M 360.227831 163.740969 Q 360.217729 163.589446 360.212678 163.554091 C 360.187425 163.442974 360.040953 163.417721 359.980344 163.513685 Q 359.859126 163.700563 359.899532 163.806628 C 359.929836 163.88744 360.010648 163.932897 360.09146 163.912694 C 360.172272 163.897542 360.232881 163.826831 360.227831 163.740969 Z" style="fill:#f9f4fa;"/>
		<path fill-opacity="0.663" d="M 280.557331 164.76627 L 256.687496 164.806676 L 280.557331 164.76627 Z" style="fill:#f9f4fa;"/>
		<path fill-opacity="0.663" d="M 258.364344 95.055846 L 250.247792 94.874019 Q 254.056056 94.283082 258.364344 95.055846 Z" style="fill:#f9f4fa;"/>
		<path d="M 250.247792 94.874019 L 258.364344 95.055846 L 270.592205 94.995237 C 271.324564 94.990187 272.011466 95.34879 272.430678 95.944778 Q 273.228696 97.076145 273.602451 97.904468 Q 279.158274 110.243446 279.951242 111.996055 Q 281.749308 115.950791 282.10286 117.263985 Q 282.618036 119.152965 282.612986 122.213718 Q 282.597834 139.366059 282.375601 150.396892 Q 282.355398 151.32623 282.224078 152.028284 C 282.163469 152.351532 281.880627 152.583866 281.552329 152.583866 L 250.313452 152.583866 C 249.707362 152.583866 249.237643 152.053538 249.308353 151.447448 L 249.545738 149.543316 C 249.616449 148.957429 250.086168 148.502862 250.672055 148.447304 Q 252.333751 148.28568 254.505573 146.927028 Q 256.253132 145.836067 255.919782 143.856174 C 255.884427 143.654144 255.793514 143.472317 255.647042 143.325845 L 253.934838 141.613642 C 253.848976 141.527779 253.727758 141.46717 253.596438 141.452018 L 250.687207 141.093414 C 250.237691 141.037856 249.899291 140.653999 249.899291 140.199432 Q 249.909392 117.476117 249.863936 96.328635 Q 249.863936 95.449805 250.247792 94.874019 Z M 253.490373 97.480205 C 253.096414 97.480205 252.773166 97.803453 252.773166 98.197412 L 252.773166 118.673144 C 252.773166 119.067102 253.096414 119.39035 253.490373 119.39035 L 278.037008 119.39035 C 278.542083 119.39035 278.890584 118.875174 278.698656 118.405454 L 270.450785 97.929722 C 270.339668 97.656981 270.077029 97.480205 269.784086 97.480205 L 253.490373 97.480205 Z" style="fill:#14315f;"/>
		<path d="M 357.869131 135.668911 Q 357.975197 135.800231 358.045907 135.805281 C 358.202481 135.810332 358.313597 135.956804 358.26814 136.103275 Q 358.146922 136.517437 357.828725 136.74472 C 357.697406 136.840685 357.515579 136.820482 357.404462 136.699264 Q 357.010504 136.249747 357.162027 135.790129 C 357.263042 135.482033 357.667101 135.411323 357.869131 135.668911 Z" style="fill:#14315f;"/>
		<path d="M 359.899532 163.806628 Q 359.859126 163.700563 359.980344 163.513685 C 360.040953 163.417721 360.187425 163.442974 360.212678 163.554091 Q 360.217729 163.589446 360.227831 163.740969 C 360.232881 163.826831 360.172272 163.897542 360.09146 163.912694 C 360.010648 163.932897 359.929836 163.88744 359.899532 163.806628 Z" style="fill:#14315f;"/>
	</g>
	<g id="surface4">
	</g>
</svg>
