<?xml version="1.0" encoding="utf-8"?>
<svg xmlns="http://www.w3.org/2000/svg" width="490pt" height="280pt" viewBox="0 0 490 280" version="1.1" xmlns:xlink="http://www.w3.org/1999/xlink">
	<g id="surface2" data-size="149.35398687047 148" data-bboxpos="170.5 52.500228035027" data-pivot="245.17699343523 126.50022803503" data-center="245.17699343523 126.50022803503">
		<path vector-effect="non-scaling-stroke" d="M 289.124001 65.750943 Q 289.055749 65.702191 288.964746 65.734692 Q 288.80549 65.793194 288.857492 65.9557 Q 288.899743 66.079204 289.003747 66.101955 Q 289.117501 66.131206 289.215004 65.994701" style="fill:none;stroke-width:0.50;stroke:#0d76b3;"/>
		<path vector-effect="non-scaling-stroke" d="M 284.557591 71.334639 Q 283.316047 70.710617 283.039788 71.181883" style="fill:none;stroke-width:0.50;stroke:#7a706e;"/>
		<path vector-effect="non-scaling-stroke" d="M 278.336873 163.416869 Q 278.086614 163.241363 277.98261 163.257614 Q 271.479132 164.255399 264.891151 165.464441" style="fill:none;stroke-width:0.50;stroke:#dcb49c;"/>
		<path vector-effect="non-scaling-stroke" d="M 264.29638 167.232503 Q 271.501883 165.415689 278.778888 164.668163" style="fill:none;stroke-width:0.50;stroke:#70bae1;"/>
		<path vector-effect="non-scaling-stroke" d="M 315.30692 181.789764 Q 314.370887 181.10724 313.392603 181.442001" style="fill:none;stroke-width:0.50;stroke:#70bae1;"/>
		<path vector-effect="non-scaling-stroke" d="M 310.903015 181.12024 Q 311.33203 181.217744 311.60179 181.12674 C 311.696043 181.097489 311.686293 180.960985 311.588789 180.944734 C 311.101272 180.860231 310.626756 180.847231 310.100237 180.720476 Q 300.398647 178.429146 292.419617 177.093349 Q 281.856746 175.325287 271.329627 178.156136 Q 266.941973 179.335928 261.108018 181.344498 C 257.757151 182.495038 254.614291 183.372569 251.058666 184.2566 Q 241.49033 186.635684 231.606733 185.826405 Q 230.6512 185.748403 227.596093 185.325888 Q 225.607023 185.049628 223.575702 184.857871" style="fill:none;stroke-width:0.50;stroke:#70bae1;"/>
		<path vector-effect="non-scaling-stroke" d="M 222.061149 190.340814 Q 222.467413 190.558571 222.95493 190.610573" style="fill:none;stroke-width:0.50;stroke:#0d76b3;"/>
		<path vector-effect="non-scaling-stroke" d="M 222.95493 190.610573 Q 232.724773 192.586642 242.540117 191.683111 Q 245.708978 191.393851 249.75862 190.558571 Q 254.04227 189.67779 256.837369 188.754758 Q 266.600711 185.530645 267.972259 185.121131 Q 274.043472 183.314067 277.667349 182.784299 Q 285.022357 181.711761 292.955886 182.725796 C 292.981887 182.729047 293.004637 182.742047 293.017638 182.758298 L 293.066389 182.8233" style="fill:none;stroke-width:0.50;stroke:#70bae1;"/>
		<path vector-effect="non-scaling-stroke" d="M 223.864962 188.829511 L 223.5302 188.553251 C 223.500949 188.5305 223.458698 188.5305 223.432697 188.559751 C 223.406696 188.585752 223.403446 188.628004 223.426196 188.657255 L 224.453232 189.9573 C 224.527985 190.051553 224.479233 190.194559 224.362229 190.22381 L 223.309192 190.503319" style="fill:none;stroke-width:0.50;stroke:#0d76b3;"/>
		<path vector-effect="non-scaling-stroke" d="M 250.489896 126.931089 Q 250.415143 124.597507 250.216886 123.736227 C 248.104312 114.639158 241.581333 108.233183 233.036784 104.99607 C 218.258515 99.396123 202.209452 102.025465 189.579509 111.499548 Q 179.985172 118.6953 175.623519 129.560431 Q 172.737418 136.749684 173.111181 145.749249" style="fill:none;stroke-width:0.50;stroke:#70bae1;"/>
		<path vector-effect="non-scaling-stroke" d="M 222.95493 190.610573 Q 223.123936 190.464318 223.309192 190.503319" style="fill:none;stroke-width:0.50;stroke:#6aaacc;"/>
		<path vector-effect="non-scaling-stroke" d="M 223.309192 190.503319 Q 224.241975 190.604073 225.161757 190.643074 Q 225.265761 190.646324 225.291762 190.610573 Q 225.373015 190.503319 225.405516 190.500069 C 225.425017 190.500069 225.441267 190.51957 225.434767 190.539071 Q 225.421766 190.584572 225.415266 190.604073 C 225.399016 190.672325 225.438017 190.734077 225.496519 190.737328 L 225.912534 190.753578 C 225.915784 190.753578 225.919034 190.756828 225.919034 190.760078 L 225.922284 190.763328 C 225.922284 190.769829 225.919034 190.776329 225.915784 190.776329 Q 225.776029 190.734077 225.691526 190.782829 C 225.652525 190.80883 225.665525 190.870582 225.714277 190.870582 L 228.405371 190.935584 C 228.441122 190.935584 228.480124 190.942085 228.515875 190.955085 Q 228.93514 191.111091 229.299152 191.029838 C 229.377155 191.013587 229.399906 190.909584 229.331654 190.860832 C 228.740133 190.448067 227.852852 190.571572 226.598308 190.51307 C 226.595058 190.50982 226.595058 190.50982 226.595058 190.506569 L 226.595058 190.412316 C 226.595058 190.376565 226.624309 190.347314 226.66006 190.350564 Q 227.316583 190.402566 227.927604 190.24656 C 227.973106 190.23681 228.002357 190.191308 227.995857 190.145807 C 227.989357 190.100305 227.950355 190.067804 227.904854 190.067804 Q 226.416301 190.093805 224.904998 189.557536 C 224.852996 189.538035 224.797745 189.564036 224.774994 189.612788 C 224.752243 189.66154 224.768494 189.723292 224.817245 189.749293 Q 225.389265 190.087305 226.000287 190.262811 L 226.000287 190.266061 Q 225.369765 190.370065 224.924499 189.96055 Q 224.349229 189.437282 223.864962 188.829511" style="fill:none;stroke-width:0.50;stroke:#70bae1;"/>
		<path vector-effect="non-scaling-stroke" d="M 223.864962 188.829511 L 222.97118 187.474213" style="fill:none;stroke-width:0.50;stroke:#6aaacc;"/>
		<path vector-effect="non-scaling-stroke" d="M 222.97118 187.474213 L 222.051398 186.837191 C 221.879142 186.716937 221.927894 186.450427 222.129401 186.398425 Q 223.708956 185.985661 225.623274 186.362674 C 225.714277 186.382175 225.80528 186.326923 225.834531 186.23592 C 225.860532 186.144916 225.81503 186.050663 225.727277 186.014912 Q 225.688276 185.998661 225.50952 186.115665 Q 225.421766 186.135166 225.548521 186.073414 Q 226.270046 185.725652 225.834531 185.481893" style="fill:none;stroke-width:0.50;stroke:#70bae1;"/>
		<path vector-effect="non-scaling-stroke" d="M 222.97118 187.474213 L 221.80764 186.859942 C 221.654884 186.778689 221.635384 186.570681 221.768638 186.463428 L 222.620168 185.777654" style="fill:none;stroke-width:0.50;stroke:#0d76b3;"/>
		<path d="M 289.124001 65.750943 Q 289.055749 65.702191 288.964746 65.734692 Q 288.80549 65.793194 288.857492 65.9557 Q 288.899743 66.079204 289.003747 66.101955 Q 289.117501 66.131206 289.215004 65.994701 Q 289.267006 66.131206 289.423012 66.124706 Q 292.702377 65.9557 294.236431 66.121456 C 294.382686 66.137706 294.528941 66.166957 294.668696 66.209209 C 295.815986 66.547221 296.78777 66.732477 297.92856 67.219994 Q 301.328179 68.669545 303.62601 71.766904 Q 305.784086 74.679006 306.505611 78.322384 Q 307.03863 81.029729 306.967127 84.916865 Q 306.947626 86.083656 306.804621 86.785681 C 306.629115 87.669712 306.700618 88.381487 306.47961 89.262268 Q 306.057095 90.942577 305.839338 91.90786 Q 305.784086 92.154869 305.751584 92.18412 C 305.572828 92.359626 305.270568 92.291374 305.186065 92.054116 Q 304.532792 90.208051 303.726763 88.647996 Q 300.687907 82.755539 295.403221 78.358135 Q 291.967851 75.498035 288.340724 73.430962 Q 286.575912 72.426677 284.557591 71.334639 Q 283.316047 70.710617 283.039788 71.181883 Q 275.025007 76.255311 269.262554 83.581068 Q 266.912722 86.567923 265.339667 89.652281 Q 263.633357 93.003149 262.651823 96.367017 C 262.560819 96.685528 262.122054 96.721279 261.975799 96.422269 C 260.448245 93.246907 259.515462 89.870039 259.479711 86.330665 Q 259.45046 83.451064 259.560964 82.648286 Q 259.827473 80.756719 260.757006 78.351635 C 261.663788 75.998552 263.171841 73.759224 265.180411 72.202419 Q 269.587566 68.789799 275.142011 68.269781 C 275.346768 68.250281 275.447521 68.009772 275.317517 67.850517 Q 275.047757 67.532005 274.683745 67.483254 Q 273.663209 67.349999 272.145406 66.839731 C 272.008901 66.794229 271.869146 66.764978 271.726141 66.748728 Q 270.751107 66.654475 269.587566 66.222209 C 269.477062 66.179958 269.363308 66.153957 269.243054 66.144207 C 268.099014 66.033703 266.870471 65.552686 265.693929 65.451932 C 263.815363 65.289427 260.981264 64.80841 258.647682 64.756408 Q 252.738975 64.632904 247.207281 64.909163 C 246.957022 64.922164 246.823767 64.619903 246.999273 64.444397 Q 251.663187 59.731732 257.529643 56.865131 Q 259.908726 55.70484 262.30081 55.142571 Q 264.644142 54.590051 267.325486 54.466547 Q 268.641783 54.404795 270.975365 54.866311 Q 277.150581 56.088354 280.943464 61.304787 Q 281.69099 62.331823 282.204508 63.440112 C 282.337763 63.726122 282.675775 63.826875 282.867532 63.641619 Q 283.238045 63.287356 283.231544 62.695836 C 283.231544 62.549581 283.264046 62.406576 283.325798 62.273321 Q 283.420051 62.068564 284.157827 60.563761 C 285.129611 58.581191 286.80017 56.793629 288.464228 55.68209 Q 292.383866 53.059248 297.320789 52.617232 Q 299.488615 52.422225 300.752909 52.55223 Q 306.1806 53.1145 311.016769 55.626838 Q 314.107628 57.232394 316.45096 58.893202 Q 316.938477 59.237714 317.126984 59.67323 C 317.195236 59.825985 317.068482 59.991741 316.902726 59.96899 Q 314.806402 59.67973 313.233347 59.640729 Q 310.002734 59.565976 305.764585 60.281001 Q 299.478864 61.343788 295.581978 63.004597 Q 295.143212 63.189853 292.611374 64.168137 Q 290.823811 64.857162 289.124001 65.750943 Z" style="fill:#07659e;"/>
		<path d="M 289.124001 65.750943 Q 289.215004 65.923199 289.215004 65.994701 Q 289.117501 66.131206 289.003747 66.101955 Q 288.899743 66.079204 288.857492 65.9557 Q 288.80549 65.793194 288.964746 65.734692 Q 289.055749 65.702191 289.124001 65.750943 Z" style="fill:#1386c8;"/>
		<path d="M 284.557591 71.334639 Q 284.723347 72.702937 285.149112 73.963981 Q 285.96164 76.378816 285.997392 76.51207 Q 286.702666 79.144663 287.112181 81.754504 C 287.427442 83.753324 287.687451 85.085871 287.797955 86.649176 Q 287.921459 88.413988 288.360224 94.507952 Q 288.454478 95.850249 288.402476 101.147935 C 288.382975 102.984249 288.106715 104.459801 288.113216 106.104359 C 288.119716 107.86267 287.794705 109.679484 287.801205 111.584051 Q 287.804455 112.393329 287.628949 113.777878 Q 287.333188 116.104959 287.206434 117.973775 Q 287.09593 119.647584 286.855422 121.311642 Q 286.618163 122.985451 286.569412 123.53472 C 286.406906 125.348284 286.020142 127.152097 285.877137 128.757653 Q 285.795884 129.677435 285.509874 131.214739 Q 285.331118 132.176773 285.149112 133.668576 C 284.999606 134.910119 284.612843 136.047659 284.547841 137.181949 Q 284.512089 137.844972 284.206579 138.985762 Q 284.144827 139.21977 283.849066 140.786325 Q 281.934749 150.91043 279.779923 159.220972 C 279.68567 159.594735 279.458162 160.231757 279.354158 160.800527 Q 279.081149 162.269579 278.336873 163.416869 Q 278.086614 163.241363 277.98261 163.257614 Q 271.479132 164.255399 264.891151 165.464441 Q 263.873865 165.42544 263.766612 164.59666 Q 263.701609 164.102643 264.117624 163.088608 Q 268.966794 151.271193 272.808429 139.054014 C 273.526704 136.775685 273.949219 135.199379 274.758497 132.446533 Q 277.059578 124.649509 279.162402 115.126675 Q 280.078934 110.966529 281.720241 102.184721 Q 281.928249 101.063432 282.107005 99.652882 C 282.201258 98.889105 282.487268 97.462305 282.633523 96.282514 Q 282.935784 93.854679 283.017037 93.428914 Q 283.280296 92.028115 283.273796 91.300089 Q 283.267296 90.416058 283.407051 89.870039 C 283.696311 88.719499 283.543555 87.507206 283.728812 86.246162 Q 283.878317 85.235376 283.897818 84.036084 Q 283.95957 79.62243 283.917319 74.438498 Q 283.907568 73.35946 283.657309 72.400676 C 283.628058 72.296673 283.624808 72.189419 283.644309 72.082165 Q 283.67031 71.92616 283.725562 71.490644 Q 283.774314 71.08438 283.039788 71.181883 Q 283.316047 70.710617 284.557591 71.334639 Z" style="fill:#ec7a3e;"/>
		<path d="M 250.489896 126.931089 Q 250.415143 124.597507 250.216886 123.736227 C 248.104312 114.639158 241.581333 108.233183 233.036784 104.99607 C 218.258515 99.396123 202.209452 102.025465 189.579509 111.499548 Q 179.985172 118.6953 175.623519 129.560431 Q 172.737418 136.749684 173.111181 145.749249 Q 172.409157 144.296448 171.762384 143.090656 Q 171.505625 142.609639 171.37237 140.822076 C 171.300868 139.869793 170.949856 138.556747 170.836102 137.467959 Q 169.919569 128.738153 171.502375 120.151351 C 171.64538 119.371324 171.853387 118.815554 172.126397 117.756017 Q 173.800206 111.249289 177.463084 106.214862 C 183.641551 97.725565 193.453645 91.524347 203.431495 88.491991 Q 212.353058 85.778145 222.061149 86.844183 Q 223.669955 87.022939 225.425017 87.432453 Q 227.969856 88.030474 228.746633 88.231982 Q 235.887134 90.094297 242.35486 94.702959 C 247.20078 98.15458 250.840908 102.828244 252.60897 108.567945 Q 253.327245 110.901527 253.44425 113.712875 Q 253.574254 116.767983 253.304495 118.926058 Q 252.813727 122.835945 250.489896 126.931089 Z" style="fill:#cceef9;"/>
		<path d="M 250.489896 126.931089 L 249.076096 129.618933 C 248.955842 129.846441 248.61783 129.80744 248.552828 129.557181 Q 248.361071 128.799905 248.088062 127.675365 Q 245.991738 119.101564 237.817701 115.643443 Q 236.719163 115.175427 234.496085 114.765912 Q 232.578518 114.4084 231.073715 114.476652 Q 225.067504 114.749662 220.653849 117.476507 Q 213.419095 121.951914 210.802754 130.603718 Q 210.539494 131.471498 210.41924 132.579787 Q 210.363988 133.080305 210.11698 134.568857 Q 209.54821 137.994477 210.266485 142.291128 Q 210.591496 144.231446 210.597996 144.267197 Q 212.642318 154.274298 220.029827 161.798312 Q 225.278761 167.1415 232.159253 169.809843 Q 238.331219 172.205177 245.016704 171.99067 C 246.810767 171.932168 248.871339 171.441401 250.515897 171.278895 C 250.59715 171.272395 250.678402 171.256144 250.759655 171.233393 L 264.29638 167.232503 Q 271.501883 165.415689 278.778888 164.668163 Q 285.912889 164.411404 291.126071 165.610696 Q 301.792946 168.071032 310.649506 174.373003 Q 314.344886 176.999096 319.30456 181.630508 C 319.551569 181.858016 319.86683 182.033522 319.853829 182.426786 C 319.847329 182.579541 319.704324 182.690045 319.554819 182.660794 L 315.30692 181.789764 Q 314.370887 181.10724 313.392603 181.442001 L 310.903015 181.12024 Q 311.33203 181.217744 311.60179 181.12674 C 311.696043 181.097489 311.686293 180.960985 311.588789 180.944734 C 311.101272 180.860231 310.626756 180.847231 310.100237 180.720476 Q 300.398647 178.429146 292.419617 177.093349 Q 281.856746 175.325287 271.329627 178.156136 Q 266.941973 179.335928 261.108018 181.344498 C 257.757151 182.495038 254.614291 183.372569 251.058666 184.2566 Q 241.49033 186.635684 231.606733 185.826405 Q 230.6512 185.748403 227.596093 185.325888 Q 225.607023 185.049628 223.575702 184.857871 Q 221.212869 184.2566 218.733032 183.590327 Q 210.832005 181.471252 203.805258 178.663154 Q 202.297205 178.061883 200.987409 179.300176 C 200.906156 179.378179 200.841154 179.469182 200.792402 179.569936 Q 199.521608 182.26753 201.965694 183.590327 Q 205.079303 185.277136 209.037942 186.687685 Q 215.440666 188.969266 222.061149 190.340814 Q 222.467413 190.558571 222.95493 190.610573 Q 232.724773 192.586642 242.540117 191.683111 Q 245.708978 191.393851 249.75862 190.558571 Q 254.04227 189.67779 256.837369 188.754758 Q 266.600711 185.530645 267.972259 185.121131 Q 274.043472 183.314067 277.667349 182.784299 Q 285.022357 181.711761 292.955886 182.725796 C 292.981887 182.729047 293.004637 182.742047 293.017638 182.758298 L 293.066389 182.8233 Q 293.027388 182.914303 292.926635 182.940304 Q 289.553016 183.843836 286.634414 185.322638 Q 284.297582 186.505679 278.856891 189.310527 C 274.660994 191.475103 269.69482 193.65593 264.897651 195.35899 Q 264.312631 195.566997 264.046121 195.6645 Q 263.061337 196.031763 262.29431 196.269022 Q 255.927337 198.22234 252.092202 198.989367 Q 250.574399 199.291628 249.297104 199.463884 C 247.984058 199.63614 246.872519 199.93515 245.562723 200.029404 C 239.527261 200.474669 235.763629 200.711927 231.005462 200.250411 Q 227.976356 199.954651 227.904854 199.957901 C 226.741313 200.048904 224.765243 199.36638 223.497699 199.278627 C 223.305942 199.262377 223.114185 199.226625 222.928929 199.171373 C 221.853141 198.843112 220.774103 198.693607 219.844571 198.456348 Q 209.486457 195.788005 200.948408 189.973551 Q 192.73212 184.373604 186.108387 175.523544 C 180.150928 167.564015 175.711273 158.29794 173.556447 148.485845 Q 173.419942 147.865074 173.325689 147.120797 Q 173.234686 146.389522 173.111181 145.749249 Q 172.737418 136.749684 175.623519 129.560431 Q 179.985172 118.6953 189.579509 111.499548 C 202.209452 102.025465 218.258515 99.396123 233.036784 104.99607 C 241.581333 108.233183 248.104312 114.639158 250.216886 123.736227 Q 250.415143 124.597507 250.489896 126.931089 Z M 207.536389 164.281399 Q 207.763897 163.124359 207.234128 162.318331 Q 204.211522 157.716169 203.873511 157.1604 Q 199.986374 150.770675 198.341816 144.822967 Q 196.411249 137.844972 197.30503 129.943945 Q 197.448035 128.705651 197.922552 126.869337 Q 198.546574 124.448002 198.761081 123.846731 Q 201.458676 116.202463 207.809399 110.956779 Q 208.355418 110.505013 210.942508 108.515943 Q 212.109299 107.618912 211.579531 106.637377 Q 210.945759 105.457586 209.535209 105.86385 C 208.059657 106.286365 206.541854 106.965639 205.095553 107.924422 C 198.179311 112.510333 193.807907 119.559831 192.45261 127.769619 C 192.033345 130.291707 191.770086 133.008802 191.857839 136.36292 C 191.89359 137.688967 192.189351 138.742003 192.212101 139.895794 Q 192.231602 140.870828 192.618366 142.531636 Q 193.430894 146.006008 193.788407 147.085046 C 195.822978 153.224512 199.277849 158.951212 204.201772 163.234863 C 204.809543 163.764631 206.502853 165.240183 207.370633 164.554409 C 207.455136 164.486157 207.516888 164.391903 207.536389 164.281399 Z" style="fill:#1386c8;"/>
		<path d="M 278.336873 163.416869 L 277.371589 163.855635 C 277.12458 163.969388 277.166832 164.333401 277.433341 164.388653 L 278.778888 164.668163 Q 271.501883 165.415689 264.29638 167.232503 L 266.207447 166.065712 C 266.269199 166.026711 266.259449 165.932457 266.191197 165.909707 L 264.891151 165.464441 Q 271.479132 164.255399 277.98261 163.257614 Q 278.086614 163.241363 278.336873 163.416869 Z" style="fill:#cceef9;"/>
		<path d="M 310.903015 181.12024 L 307.33764 182.904553 C 307.207636 182.969555 307.071131 183.011807 306.928126 183.034557 Q 303.642261 183.544825 300.310894 183.320567 Q 296.862523 183.089809 294.356685 182.709546 Q 293.700162 182.608792 293.066389 182.8233 L 293.017638 182.758298 C 293.004637 182.742047 292.981887 182.729047 292.955886 182.725796 Q 285.022357 181.711761 277.667349 182.784299 Q 274.043472 183.314067 267.972259 185.121131 Q 266.600711 185.530645 256.837369 188.754758 Q 254.04227 189.67779 249.75862 190.558571 Q 245.708978 191.393851 242.540117 191.683111 Q 232.724773 192.586642 222.95493 190.610573 Q 223.123936 190.464318 223.309192 190.503319 Q 224.241975 190.604073 225.161757 190.643074 Q 225.265761 190.646324 225.291762 190.610573 Q 225.373015 190.503319 225.405516 190.500069 C 225.425017 190.500069 225.441267 190.51957 225.434767 190.539071 Q 225.421766 190.584572 225.415266 190.604073 C 225.399016 190.672325 225.438017 190.734077 225.496519 190.737328 L 225.912534 190.753578 C 225.915784 190.753578 225.919034 190.756828 225.919034 190.760078 L 225.922284 190.763328 C 225.922284 190.769829 225.919034 190.776329 225.915784 190.776329 Q 225.776029 190.734077 225.691526 190.782829 C 225.652525 190.80883 225.665525 190.870582 225.714277 190.870582 L 228.405371 190.935584 C 228.441122 190.935584 228.480124 190.942085 228.515875 190.955085 Q 228.93514 191.111091 229.299152 191.029838 C 229.377155 191.013587 229.399906 190.909584 229.331654 190.860832 C 228.740133 190.448067 227.852852 190.571572 226.598308 190.51307 C 226.595058 190.50982 226.595058 190.50982 226.595058 190.506569 L 226.595058 190.412316 C 226.595058 190.376565 226.624309 190.347314 226.66006 190.350564 Q 227.316583 190.402566 227.927604 190.24656 C 227.973106 190.23681 228.002357 190.191308 227.995857 190.145807 C 227.989357 190.100305 227.950355 190.067804 227.904854 190.067804 Q 226.416301 190.093805 224.904998 189.557536 C 224.852996 189.538035 224.797745 189.564036 224.774994 189.612788 C 224.752243 189.66154 224.768494 189.723292 224.817245 189.749293 Q 225.389265 190.087305 226.000287 190.262811 L 226.000287 190.266061 Q 225.369765 190.370065 224.924499 189.96055 Q 224.349229 189.437282 223.864962 188.829511 L 222.97118 187.474213 L 222.051398 186.837191 C 221.879142 186.716937 221.927894 186.450427 222.129401 186.398425 Q 223.708956 185.985661 225.623274 186.362674 C 225.714277 186.382175 225.80528 186.326923 225.834531 186.23592 C 225.860532 186.144916 225.81503 186.050663 225.727277 186.014912 Q 225.688276 185.998661 225.50952 186.115665 Q 225.421766 186.135166 225.548521 186.073414 Q 226.270046 185.725652 225.834531 185.481893 L 223.575702 184.857871 Q 225.607023 185.049628 227.596093 185.325888 Q 230.6512 185.748403 231.606733 185.826405 Q 241.49033 186.635684 251.058666 184.2566 C 254.614291 183.372569 257.757151 182.495038 261.108018 181.344498 Q 266.941973 179.335928 271.329627 178.156136 Q 281.856746 175.325287 292.419617 177.093349 Q 300.398647 178.429146 310.100237 180.720476 C 310.626756 180.847231 311.101272 180.860231 311.588789 180.944734 C 311.686293 180.960985 311.696043 181.097489 311.60179 181.12674 Q 311.33203 181.217744 310.903015 181.12024 Z" style="fill:#cceef9;"/>
		<path d="M 315.30692 181.789764 Q 314.338386 181.835265 313.392603 181.442001 Q 314.370887 181.10724 315.30692 181.789764 Z" style="fill:#cceef9;"/>
		<path d="M 222.97118 187.474213 L 221.80764 186.859942 C 221.654884 186.778689 221.635384 186.570681 221.768638 186.463428 L 222.620168 185.777654 L 223.5367 185.6704 C 223.617953 185.660649 223.699206 185.66715 223.777209 185.693151 Q 224.96025 186.096165 225.834531 185.481893 Q 226.270046 185.725652 225.548521 186.073414 Q 225.421766 186.135166 225.50952 186.115665 Q 225.688276 185.998661 225.727277 186.014912 C 225.81503 186.050663 225.860532 186.144916 225.834531 186.23592 C 225.80528 186.326923 225.714277 186.382175 225.623274 186.362674 Q 223.708956 185.985661 222.129401 186.398425 C 221.927894 186.450427 221.879142 186.716937 222.051398 186.837191 L 222.97118 187.474213 Z" style="fill:#1386c8;"/>
		<path d="M 222.620168 185.777654 L 221.768638 186.463428 C 221.635384 186.570681 221.654884 186.778689 221.80764 186.859942 L 222.97118 187.474213 L 223.864962 188.829511 L 223.5302 188.553251 C 223.500949 188.5305 223.458698 188.5305 223.432697 188.559751 C 223.406696 188.585752 223.403446 188.628004 223.426196 188.657255 L 224.453232 189.9573 C 224.527985 190.051553 224.479233 190.194559 224.362229 190.22381 L 223.309192 190.503319 Q 223.123936 190.464318 222.95493 190.610573 Q 222.467413 190.558571 222.061149 190.340814 L 223.949465 190.113306 C 224.076219 190.097055 224.131471 189.94105 224.043718 189.846796 Q 223.198688 188.946515 222.304907 188.465498 C 221.443627 188.007232 220.806605 187.259706 220.618098 186.391925 C 220.592097 186.278171 220.66685 186.164417 220.783854 186.141666 L 222.620168 185.777654 Z" style="fill:#07659e;"/>
		<path d="M 223.864962 188.829511 Q 224.349229 189.437282 224.924499 189.96055 Q 225.369765 190.370065 226.000287 190.266061 L 226.000287 190.262811 Q 225.389265 190.087305 224.817245 189.749293 C 224.768494 189.723292 224.752243 189.66154 224.774994 189.612788 C 224.797745 189.564036 224.852996 189.538035 224.904998 189.557536 Q 226.416301 190.093805 227.904854 190.067804 C 227.950355 190.067804 227.989357 190.100305 227.995857 190.145807 C 228.002357 190.191308 227.973106 190.23681 227.927604 190.24656 Q 227.316583 190.402566 226.66006 190.350564 C 226.624309 190.347314 226.595058 190.376565 226.595058 190.412316 L 226.595058 190.506569 C 226.595058 190.50982 226.595058 190.50982 226.598308 190.51307 C 227.852852 190.571572 228.740133 190.448067 229.331654 190.860832 C 229.399906 190.909584 229.377155 191.013587 229.299152 191.029838 Q 228.93514 191.111091 228.515875 190.955085 C 228.480124 190.942085 228.441122 190.935584 228.405371 190.935584 L 225.714277 190.870582 C 225.665525 190.870582 225.652525 190.80883 225.691526 190.782829 Q 225.776029 190.734077 225.915784 190.776329 C 225.919034 190.776329 225.922284 190.769829 225.922284 190.763328 L 225.919034 190.760078 C 225.919034 190.756828 225.915784 190.753578 225.912534 190.753578 L 225.496519 190.737328 C 225.438017 190.734077 225.399016 190.672325 225.415266 190.604073 Q 225.421766 190.584572 225.434767 190.539071 C 225.441267 190.51957 225.425017 190.500069 225.405516 190.500069 Q 225.373015 190.503319 225.291762 190.610573 Q 225.265761 190.646324 225.161757 190.643074 Q 224.241975 190.604073 223.309192 190.503319 L 224.362229 190.22381 C 224.479233 190.194559 224.527985 190.051553 224.453232 189.9573 L 223.426196 188.657255 C 223.403446 188.628004 223.406696 188.585752 223.432697 188.559751 C 223.458698 188.5305 223.500949 188.5305 223.5302 188.553251 L 223.864962 188.829511 Z" style="fill:#1386c8;"/>
	</g>
	<g id="surface4">
	</g>
</svg>
