<?xml version="1.0" encoding="utf-8"?>
<svg xmlns="http://www.w3.org/2000/svg" width="490pt" height="280pt" viewBox="0 0 490 280" version="1.1" xmlns:xlink="http://www.w3.org/1999/xlink">
	<g id="surface2" data-size="145.74699830926 148" data-bboxpos="172 54.56556999307" data-pivot="244.87349915463 128.56556999307" data-center="244.87349915463 128.56556999307">
		<path d="M 209.481507 122.124161 Q 209.412982 122.201251 209.344458 122.616681 Q 209.211691 123.473238 209.263085 126.573974 Q 209.571445 144.46745 209.648535 164.956294 C 209.691363 175.243543 210.145338 187.273886 210.20958 197.295603 Q 210.218146 198.666094 208.791978 198.726053 Q 202.547678 198.987303 196.457558 199.24427 C 193.763686 199.359905 190.153298 199.715377 186.585738 199.925233 Q 184.868341 200.02802 182.63701 200.323532 Q 177.968775 200.940253 174.542547 201.45847 C 172.465396 201.771113 172.33263 200.293553 172.5639 198.640398 Q 172.872261 196.417632 172.876543 192.635933 C 172.880826 191.342532 173.244863 189.188291 173.24058 187.509439 Q 173.223449 182.121696 173.484699 179.06807 Q 173.818756 175.209281 173.745949 173.007929 C 173.668859 170.553894 174.041461 167.791497 174.088571 164.913466 Q 174.144248 161.564328 174.109985 157.341502 Q 174.092854 155.294331 174.426911 147.846567 Q 174.555395 144.98995 174.568243 138.351633 Q 174.615354 115.074697 174.563961 98.221938 C 174.551112 93.8278 174.054309 89.502187 174.105703 84.881062 C 174.135682 82.354219 173.771645 80.105757 173.7331 77.775922 Q 173.711686 76.426845 173.334801 73.865739 C 173.129228 72.4824 173.304822 70.358139 173.107814 68.632176 Q 172.949351 67.257402 172.015704 57.406997 Q 171.827261 55.436916 173.900129 55.441198 Q 191.361043 55.471178 204.410689 55.783821 Q 205.798312 55.818083 206.021016 55.929436 C 206.145217 55.993678 206.260852 56.070768 206.367922 56.169272 Q 207.24161 56.957304 208.295175 58.777488 Q 213.083329 67.064677 217.802958 76.028546 Q 228.184429 95.763619 240.120551 121.481743 Q 240.249034 121.760124 240.557395 122.051353 C 240.810079 122.295472 241.212661 122.278341 241.443931 122.017091 C 242.236246 121.113424 242.566021 120.20119 243.084238 119.194736 Q 250.998824 103.956587 257.148904 93.223928 Q 265.812978 78.101414 278.798382 57.822427 Q 279.081046 57.385583 280.006127 56.807407 C 280.11748 56.738882 280.245963 56.691772 280.37873 56.670358 C 283.625081 56.169272 286.520243 56.387694 289.856533 56.019374 Q 291.526819 55.835215 295.736797 55.753842 Q 298.41782 55.702448 306.824927 55.158535 C 309.899967 54.957244 313.25767 54.957244 315.96439 54.580359 Q 316.726726 54.473289 317.514758 55.141403 C 317.617545 55.227059 317.681787 55.35126 317.694635 55.484026 Q 317.848815 57.055808 317.549021 58.773205 Q 317.082197 61.419966 317.176418 61.501339 Q 317.227812 61.544167 316.028632 72.306806 Q 315.544677 76.606722 315.304841 80.285634 C 315.112116 83.257887 314.743796 86.872557 314.516809 90.945486 C 314.225579 96.153353 313.870108 101.879436 313.75019 107.185807 Q 313.176297 132.394279 313.801584 155.050212 Q 313.998592 162.326664 315.347669 180.883971 C 315.583222 184.134605 316.139984 188.237513 316.328427 191.886446 Q 316.366972 192.558843 317.065066 198.953041 Q 317.193549 200.156503 317.125025 201.659761 C 317.120742 201.813941 317.043652 201.955273 316.923734 202.045212 Q 316.152833 202.623388 315.694575 202.559146 Q 313.882957 202.306462 312.491051 202.21224 C 312.178408 202.190826 311.865765 202.139433 311.56597 202.05806 C 309.672979 201.552691 307.934168 201.484167 306.298144 201.081585 C 303.034662 200.280704 298.529172 199.61259 294.965895 198.901647 Q 290.83729 198.079353 289.809422 198.04509 Q 289.428254 198.032242 285.012703 197.394107 Q 281.903401 196.944415 278.81123 196.871607 Q 276.824018 196.824497 276.828301 194.892961 Q 277.008178 120.291129 276.879694 117.049061 Q 276.871129 116.903446 276.794038 116.843487 Q 276.524223 116.642196 276.327215 116.912011 C 275.6591 117.828527 275.286498 118.745043 274.849654 119.588752 Q 267.658858 133.452127 262.078389 145.264048 Q 260.725029 148.124949 256.750605 156.681953 Q 255.521445 159.324431 254.296569 162.039717 Q 252.720504 165.538752 251.688353 167.320391 Q 249.876735 170.446824 246.818826 172.742397 Q 243.709524 175.076514 239.820756 174.057212 Q 239.353932 173.933011 238.073379 172.909425 C 236.728585 171.825881 235.233893 169.800123 234.176045 168.189796 Q 230.604202 162.742094 226.946704 155.863941 Q 221.040743 144.754397 214.680808 131.546288 Q 214.312488 130.779669 212.432346 127.070777 Q 211.181772 124.599611 210.188166 122.244079 C 210.068248 121.961415 209.691363 121.897173 209.481507 122.124161 Z" style="fill:#3cbe46;"/>
	</g>
	<g id="surface4">
	</g>
</svg>
