<?xml version="1.0" encoding="utf-8"?>
<svg xmlns="http://www.w3.org/2000/svg" width="490pt" height="280pt" viewBox="0 0 490 280" version="1.1" xmlns:xlink="http://www.w3.org/1999/xlink">
	<g id="surface2" data-size="450 140.2889057916" data-bboxpos="20 67.189893126056" data-pivot="245 137.33434602185" data-center="245 137.33434602185">
		<path stroke-opacity="0.992" vector-effect="non-scaling-stroke" d="M 313.24509 113.586008 L 319.304527 113.800881 C 319.467831 113.809476 319.596755 113.689147 319.613945 113.525843 Q 319.691299 112.683538 318.917754 112.631969" style="fill:none;stroke-width:0.50;stroke:#7d9cbc;"/>
		<path stroke-opacity="0.992" vector-effect="non-scaling-stroke" d="M 429.80116 135.769565 C 429.474552 135.700805 429.242488 136.078983 429.457362 136.336831 C 434.571355 142.490813 438.774284 145.791272 447.962282 146.341349 Q 448.460789 146.367134 449.10541 146.057716 C 449.466398 145.885817 449.560942 145.4045 449.311689 145.034917 Q 447.558319 142.456433 444.945456 141.150001 Q 437.485042 137.428389 429.80116 135.769565" style="fill:none;stroke-width:0.50;stroke:#7d9cbc;"/>
		<path stroke-opacity="0.992" vector-effect="non-scaling-stroke" d="M 75.562758 169.628583 C 75.371348 185.121748 88.951364 197.859459 105.884354 198.063675 C 122.824048 198.272016 136.704887 185.878103 136.891655 170.377891 C 137.083065 154.884726 123.503049 142.147015 106.570059 141.942799 C 89.630365 141.734458 75.749526 154.128371 75.562758 169.628583" style="fill:none;stroke-width:0.50;stroke:#7d9cbc;"/>
		<path stroke-opacity="0.992" vector-effect="non-scaling-stroke" d="M 356.364991 168.868102 C 355.7471 184.356798 369.043483 197.472686 386.06947 198.154867 C 403.096661 198.839283 417.407247 186.832142 418.027029 171.34465 C 418.644919 155.855955 405.348537 142.740066 388.322549 142.057886 C 371.295359 141.37347 356.984773 153.38061 356.364991 168.868102" style="fill:none;stroke-width:0.50;stroke:#7d9cbc;"/>
		<path stroke-opacity="0.992" vector-effect="non-scaling-stroke" d="M 211.8591 167.441943 C 214.093786 167.811526 216.397232 168.284248 218.640513 168.438957 Q 234.102822 169.52192 249.573725 170.561908" style="fill:none;stroke-width:0.50;stroke:#7d9cbc;"/>
		<path stroke-opacity="0.992" vector-effect="non-scaling-stroke" d="M 303.910978 173.630304 Q 311.070568 174.807812 319.717084 174.661698 C 320.052287 174.653103 320.33592 174.421039 320.40468 174.103026 L 320.413275 174.077242 C 320.482035 173.767824 320.267161 173.48419 319.974933 173.467 L 305.234599 172.77081" style="fill:none;stroke-width:0.50;stroke:#7d9cbc;"/>
		<path stroke-opacity="0.992" vector-effect="non-scaling-stroke" d="M 215.03923 167.476323 L 216.500371 167.433348" style="fill:none;stroke-width:0.50;stroke:#7d9cbc;"/>
		<path stroke-opacity="0.992" vector-effect="non-scaling-stroke" d="M 131.806713 169.450754 C 130.877513 155.838765 118.707069 145.576399 104.623905 146.536111 C 90.541429 147.493072 79.8751 159.311123 80.802409 172.927925 C 81.731609 186.539914 93.902053 196.80228 107.985217 195.842569 C 122.067693 194.885607 132.734022 183.067556 131.806713 169.450754" style="fill:none;stroke-width:0.50;stroke:#7d9cbc;"/>
		<path stroke-opacity="0.992" vector-effect="non-scaling-stroke" d="M 361.656642 168.022102 C 359.950029 181.537655 369.971737 193.931568 384.045274 195.705393 C 398.120187 197.481281 410.909467 187.97527 412.615049 174.459717 C 414.321661 160.944163 404.299953 148.55025 390.226416 146.776425 C 376.151503 145.000537 363.362223 154.506548 361.656642 168.022102" style="fill:none;stroke-width:0.50;stroke:#7d9cbc;"/>
		<path d="M 136.352494 192.797035 C 134.899948 194.361316 132.802781 197.025749 130.636855 198.770523 Q 123.881227 204.228314 116.592712 206.050443 Q 109.819894 207.752242 102.247746 207.064647 Q 95.1827 206.420026 88.573186 202.775768 Q 77.4943 196.656166 72.096674 185.061583 C 71.701306 184.210684 70.867596 183.643417 69.930747 183.566063 Q 65.203527 183.187885 55.869415 182.096327 C 52.689284 181.726744 49.620889 180.987579 45.718783 180.257008 Q 36.221367 178.469259 28.49451 174.592938 C 25.469089 173.071633 24.454885 171.301074 23.509441 167.8545 Q 21.910781 162.035722 20.733273 157.231146 Q 18.936929 149.942632 21.541198 144.166828 Q 25.408924 135.571881 26.328583 133.105131 Q 27.798319 129.134266 27.050559 125.902566 Q 26.302799 122.705246 26.285609 121.467574 C 26.277014 121.140966 26.216849 120.822953 26.105115 120.513535 Q 24.325961 115.726149 24.506455 110.087864 C 24.609594 106.735835 26.526267 106.022455 29.611853 105.008251 C 29.938461 104.896517 30.282259 104.836352 30.626057 104.810567 C 34.442213 104.578504 39.728105 104.827757 44.893668 104.243301 Q 49.543534 103.719009 55.293553 103.048603 Q 58.233025 102.7134 59.994989 102.128944 C 62.135131 101.415563 63.83693 101.21788 66.148971 100.3326 Q 72.68113 97.831471 81.362026 94.419277 Q 118.337486 79.868032 157.685152 72.682657 Q 160.057357 72.244315 163.675829 71.711428 Q 167.887353 71.092592 169.675102 70.611275 C 170.079065 70.508136 170.483027 70.456566 170.895585 70.447971 Q 173.98117 70.422186 175.425121 70.095578 C 178.562277 69.390792 180.943077 69.75178 183.736435 69.05559 C 186.796236 68.282044 190.345949 68.789146 193.569054 68.333614 C 198.777591 67.611639 202.800026 67.843702 208.283602 67.448335 C 216.448801 66.863878 223.178645 67.38817 233.019858 67.843702 C 235.14281 67.938247 237.583775 68.359399 240.170854 68.643032 Q 267.709063 71.668453 291.903837 84.182696 Q 300.687873 88.729422 308.913236 93.809036 Q 324.186457 103.263477 337.525814 113.087501 C 338.307954 113.663362 339.236208 113.98997 340.207437 114.032945 Q 345.983241 114.299388 355.334543 115.133098 Q 365.192947 116.018378 383.044651 118.510912 Q 397.561515 120.539319 414.158357 124.338286 Q 430.875528 128.171632 444.833721 134.514703 Q 450.351677 137.024427 456.583013 142.525193 Q 465.719442 150.595848 469.028496 162.499849 Q 469.930965 165.740143 469.982535 169.547705 C 470.0427 174.618723 470.188814 177.962157 466.802405 181.468896 C 466.570341 181.709554 466.278113 181.881453 465.951505 181.967403 Q 459.58265 183.677797 458.044154 183.772341 C 452.930161 184.098949 446.569901 185.328027 440.97459 185.731989 Q 431.743618 186.3938 429.431577 186.771978 Q 425.520876 187.399409 422.942393 187.373624 C 422.383721 187.365029 421.842239 187.554118 421.412492 187.897916 Q 420.501428 188.602701 418.232362 191.705477 Q 410.46253 202.346021 397.67325 206.110607 Q 396.246489 206.523165 390.745723 207.210761 Q 387.006921 207.683483 383.783816 207.322495 Q 367.951924 205.577721 357.844267 193.192403 Q 356.941798 192.083655 354.689922 192.083655 Q 248.85175 191.877376 141.1055 191.877376 Q 139.627169 191.877376 136.997115 192.436047 C 136.747862 192.496212 136.524393 192.616541 136.352494 192.797035 Z M 313.24509 113.586008 L 319.304527 113.800881 C 319.467831 113.809476 319.596755 113.689147 319.613945 113.525843 Q 319.691299 112.683538 318.917754 112.631969 Q 318.73726 112.202221 317.576943 111.359917 Q 304.24618 101.613247 296.631058 97.16966 Q 290.081709 93.344909 278.61605 88.23951 Q 269.393672 84.139721 259.509484 81.836275 Q 246.45376 78.785069 237.57518 78.123258 C 233.716049 77.839625 230.922691 77.427068 226.977611 77.315333 Q 208.446906 76.782447 191.841469 78.338132 C 191.042139 78.406891 190.440493 79.103082 190.474873 79.911007 L 191.497671 99.249637 C 191.506266 99.447321 191.540646 99.645004 191.583621 99.842688 Q 192.434521 103.486946 192.228242 107.552355 C 192.185267 108.36028 192.829888 109.039281 193.646408 109.039281 C 197.557109 109.039281 201.278721 109.92456 205.077687 109.890181 Q 209.590034 109.838611 212.718595 110.208194 C 218.700677 110.921574 224.124089 110.491827 228.997423 111.127853 C 233.801998 111.755284 236.165609 111.59198 241.812489 111.634955 C 247.313254 111.67793 254.000123 112.623374 259.922041 112.571804 C 264.99306 112.520234 270.218787 113.164855 274.542045 113.2594 Q 283.730043 113.448489 313.24509 113.586008 Z M 184.406841 106.890544 C 183.435612 100.358385 183.908334 95.51943 183.031649 88.755207 Q 182.619092 85.575077 182.756611 80.607198 C 182.782396 79.756298 182.04323 79.085892 181.200925 79.189032 Q 159.722154 81.77611 139.670144 87.912902 Q 127.121522 91.746249 120.709692 95.158442 Q 118.629715 96.26719 117.632701 97.255609 C 116.798991 98.089319 116.996675 99.4817 118.028068 100.048967 L 119.918957 101.088955 C 120.065071 101.16631 120.211185 101.226475 120.374489 101.260854 Q 130.387601 103.254882 142.188463 104.621478 Q 151.084233 105.652872 165.669857 107.088228 C 168.377265 107.354671 170.457242 107.260127 172.305156 107.6469 C 175.768919 108.368875 179.335822 108.239951 183.212143 108.265736 C 183.951308 108.274331 184.518575 107.621115 184.406841 106.890544 Z M 429.80116 135.769565 C 429.474552 135.700805 429.242488 136.078983 429.457362 136.336831 C 434.571355 142.490813 438.774284 145.791272 447.962282 146.341349 Q 448.460789 146.367134 449.10541 146.057716 C 449.466398 145.885817 449.560942 145.4045 449.311689 145.034917 Q 447.558319 142.456433 444.945456 141.150001 Q 437.485042 137.428389 429.80116 135.769565 Z M 75.562758 169.628583 C 75.371348 185.121748 88.951364 197.859459 105.884354 198.063675 C 122.824048 198.272016 136.704887 185.878103 136.891655 170.377891 C 137.083065 154.884726 123.503049 142.147015 106.570059 141.942799 C 89.630365 141.734458 75.749526 154.128371 75.562758 169.628583 Z M 356.364991 168.868102 C 355.7471 184.356798 369.043483 197.472686 386.06947 198.154867 C 403.096661 198.839283 417.407247 186.832142 418.027029 171.34465 C 418.644919 155.855955 405.348537 142.740066 388.322549 142.057886 C 371.295359 141.37347 356.984773 153.38061 356.364991 168.868102 Z M 211.8591 167.441943 C 214.093786 167.811526 216.397232 168.284248 218.640513 168.438957 Q 234.102822 169.52192 249.573725 170.561908 Q 261.047979 170.708023 272.427688 172.108999 Q 275.736743 172.521556 279.062987 172.633291 C 287.35711 172.925519 295.634044 173.58733 303.910978 173.630304 Q 311.070568 174.807812 319.717084 174.661698 C 320.052287 174.653103 320.33592 174.421039 320.40468 174.103026 L 320.413275 174.077242 C 320.482035 173.767824 320.267161 173.48419 319.974933 173.467 L 305.234599 172.77081 C 303.335116 172.555936 301.349684 172.151974 299.544745 172.057429 Q 290.734924 171.576112 284.580943 170.750997 C 278.220682 169.891503 272.427688 170.132161 265.852554 169.392996 C 246.204506 167.1755 226.556459 166.195676 217.781018 165.172877 Q 211.755961 164.468091 209.074337 163.402318 C 205.318346 161.906797 199.7832 158.924351 195.313828 155.701246 C 192.202457 153.457965 189.615378 151.481127 187.217388 150.613038 C 186.83921 150.475518 186.521197 150.931051 186.779046 151.240469 Q 192.193862 157.910147 199.508162 164.304787 C 202.619532 167.029385 207.587411 167.278639 211.8591 167.441943 Z" style="fill:#0a4782;"/>
		<path fill-opacity="0.984" d="M 313.24509 113.586008 Q 315.66027 113.482868 318.05826 113.371134 Q 318.453627 113.353944 318.625526 113.17345 Q 318.82321 112.975767 318.917754 112.631969 Q 319.691299 112.683538 319.613945 113.525843 C 319.596755 113.689147 319.467831 113.809476 319.304527 113.800881 L 313.24509 113.586008 Z" style="fill:#f1f2f6;"/>
		<path fill-opacity="0.984" d="M 429.80116 135.769565 Q 437.485042 137.428389 444.945456 141.150001 Q 447.558319 142.456433 449.311689 145.034917 C 449.560942 145.4045 449.466398 145.885817 449.10541 146.057716 Q 448.460789 146.367134 447.962282 146.341349 C 438.774284 145.791272 434.571355 142.490813 429.457362 136.336831 C 429.242488 136.078983 429.474552 135.700805 429.80116 135.769565 Z" style="fill:#f1f2f6;"/>
		<path fill-opacity="0.984" d="M 75.562758 169.628583 C 75.749526 154.128371 89.630365 141.734458 106.570059 141.942799 C 123.503049 142.147015 137.083065 154.884726 136.891655 170.377891 C 136.704887 185.878103 122.824048 198.272016 105.884354 198.063675 C 88.951364 197.859459 75.371348 185.121748 75.562758 169.628583 Z M 131.806713 169.450754 C 130.877513 155.838765 118.707069 145.576399 104.623905 146.536111 C 90.541429 147.493072 79.8751 159.311123 80.802409 172.927925 C 81.731609 186.539914 93.902053 196.80228 107.985217 195.842569 C 122.067693 194.885607 132.734022 183.067556 131.806713 169.450754 Z M 122.308352 191.739857 C 122.222402 191.825806 122.213807 191.963325 122.282567 192.05787 C 122.359921 192.152414 122.49744 192.186794 122.60058 192.126629 Q 125.247823 190.699868 126.382356 188.602701 C 126.459711 188.456587 126.425331 188.267498 126.287812 188.164359 C 126.150293 188.06122 125.961204 188.07841 125.840875 188.198739 L 122.308352 191.739857 Z" style="fill:#f1f2f6;"/>
		<path fill-opacity="0.984" d="M 356.364991 168.868102 C 356.984773 153.38061 371.295359 141.37347 388.322549 142.057886 C 405.348537 142.740066 418.644919 155.855955 418.027029 171.34465 C 417.407247 186.832142 403.096661 198.839283 386.06947 198.154867 C 369.043483 197.472686 355.7471 184.356798 356.364991 168.868102 Z M 361.656642 168.022102 C 359.950029 181.537655 369.971737 193.931568 384.045274 195.705393 C 398.120187 197.481281 410.909467 187.97527 412.615049 174.459717 C 414.321661 160.944163 404.299953 148.55025 390.226416 146.776425 C 376.151503 145.000537 363.362223 154.506548 361.656642 168.022102 Z" style="fill:#f1f2f6;"/>
		<path fill-opacity="0.984" d="M 215.03923 167.476323 L 216.500371 167.433348 L 249.573725 170.561908 Q 234.102822 169.52192 218.640513 168.438957 C 216.397232 168.284248 214.093786 167.811526 211.8591 167.441943 L 215.03923 167.476323 Z" style="fill:#f1f2f6;"/>
		<path d="M 216.500371 167.433348 L 215.03923 167.476323 Q 215.744016 167.235664 216.500371 167.433348 Z" style="fill:#0a4782;"/>
		<path fill-opacity="0.984" d="M 303.910978 173.630304 Q 305.09708 173.277912 305.234599 172.77081 L 319.974933 173.467 C 320.267161 173.48419 320.482035 173.767824 320.413275 174.077242 L 320.40468 174.103026 C 320.33592 174.421039 320.052287 174.653103 319.717084 174.661698 Q 311.070568 174.807812 303.910978 173.630304 Z" style="fill:#f1f2f6;"/>
		<path d="M 361.656642 168.022102 C 363.362223 154.506548 376.151503 145.000537 390.226416 146.776425 C 404.299953 148.55025 414.321661 160.944163 412.615049 174.459717 C 410.909467 187.97527 398.120187 197.481281 384.045274 195.705393 C 369.971737 193.931568 359.950029 181.537655 361.656642 168.022102 Z" style="fill:#0a4782;"/>
		<path d="M 131.806713 169.450754 C 132.734022 183.067556 122.067693 194.885607 107.985217 195.842569 C 93.902053 196.80228 81.731609 186.539914 80.802409 172.927925 C 79.8751 159.311123 90.541429 147.493072 104.623905 146.536111 C 118.707069 145.576399 130.877513 155.838765 131.806713 169.450754 Z" style="fill:#0a4782;"/>
	</g>
	<g id="surface4">
	</g>
</svg>
