<?xml version="1.0" encoding="utf-8"?>
<svg xmlns="http://www.w3.org/2000/svg" width="490pt" height="280pt" viewBox="0 0 490 280" version="1.1" xmlns:xlink="http://www.w3.org/1999/xlink">
	<g id="surface2" data-size="250.56107750246 148" data-bboxpos="119.5 52.754861701635" data-pivot="244.78053875123 126.75486170163" data-center="244.78053875123 126.75486170163">
		<path d="M 136.049026 124.315191 C 136.049026 123.88288 135.677509 123.592421 135.262085 123.788312 C 134.529182 124.136187 133.792902 124.261152 132.769541 124.60565 C 132.610802 124.659689 132.445307 124.686708 132.279813 124.690086 Q 126.517916 124.784654 120.273047 124.659689 C 119.425311 124.642802 119.37465 123.51474 119.641467 122.970974 C 119.668487 122.916935 119.709016 122.869651 119.759677 122.842631 L 168.22581 95.590142 C 168.468985 95.451667 168.620969 95.194982 168.617592 94.918033 Q 168.533156 85.103219 168.627724 71.593496 Q 168.658121 67.324423 168.617592 65.936299 Q 168.600705 65.267568 168.840502 64.858898 C 168.955335 64.669762 169.161358 64.551552 169.380891 64.551552 Q 180.759456 64.592081 192.610861 64.551552 Q 193.745677 64.548175 193.749055 65.730276 Q 193.782829 73.390289 193.72879 81.087454 C 193.72879 81.347516 194.009117 81.51301 194.235405 81.384668 L 244.981303 52.852132 C 245.167062 52.747431 245.386595 52.727167 245.585863 52.791338 Q 246.187046 52.983852 247.203653 53.558015 Q 349.485769 111.44718 369.385591 122.731176 C 370.18942 123.187129 370.459614 124.609028 369.155926 124.669821 Q 367.416549 124.757635 357.888817 124.686708 C 357.591603 124.683331 357.291011 124.646179 357.000552 124.575253 L 354.876148 124.044997 C 354.612709 123.980825 354.356024 124.180094 354.356024 124.453666 Q 354.278343 177.685353 354.30874 195.970764 Q 354.30874 196.750951 354.281721 200.000039 Q 354.278343 200.280366 353.82239 200.614731 Q 353.609612 200.770093 353.028694 200.753206 Q 351.704741 200.716054 347.72275 200.702545 Q 347.114812 200.699167 346.895279 200.189175 Q 346.773692 199.908848 346.773692 199.159059 Q 346.824353 136.119312 346.793956 120.069761 Q 346.793956 119.299706 346.040789 118.877527 Q 315.485172 101.848521 246.210688 62.653436 C 245.14342 62.048876 244.55237 62.562245 243.393911 63.21409 Q 209.450731 82.286442 181.759175 97.650375 Q 151.879045 114.230183 144.080557 118.603956 C 143.90493 118.701901 143.796853 118.88766 143.796853 119.086928 L 143.796853 199.878452 C 143.796853 199.97302 143.769833 200.067588 143.722549 200.148646 Q 143.361164 200.770093 142.776868 200.749829 Q 140.257305 200.662015 136.981197 200.712677 Q 136.457695 200.722809 136.133462 200.172288 C 136.079423 200.081097 136.049026 199.97302 136.049026 199.861564 Q 136.049026 199.665673 136.049026 124.315191 Z M 176.368796 70.874103 C 176.105356 70.874103 175.8892 71.090258 175.8892 71.353698 L 175.8892 90.669225 C 175.8892 91.037365 176.28436 91.26703 176.605216 91.088026 L 187.558224 84.93097 C 187.706831 84.846534 187.801399 84.684417 187.801399 84.512169 L 187.801399 71.353698 C 187.801399 71.090258 187.585243 70.874103 187.321804 70.874103 L 176.368796 70.874103 Z" style="fill:#000000;"/>
	</g>
	<g id="surface4">
	</g>
</svg>
