<?xml version="1.0" encoding="utf-8"?>
<svg xmlns="http://www.w3.org/2000/svg" width="490pt" height="280pt" viewBox="0 0 490 280" version="1.1" xmlns:xlink="http://www.w3.org/1999/xlink">
	<g id="surface2" data-size="277.3016919516 148" data-bboxpos="106.5 57.155019438806" data-pivot="245.1508459758 131.15501943881" data-center="245.1508459758 131.15501943881">
		<path vector-effect="non-scaling-stroke" d="M 252.260395 98.456615 Q 254.000578 99.817527 255.924819 101.172862 C 262.12701 105.52332 264.625734 112.060161 263.4935 119.701349 C 262.444928 126.734589 257.213224 130.889834 250.743313 132.853117 Q 240.341257 136.009988 229.967089 132.908892 C 225.086768 131.447585 221.662177 129.813375 217.53482 132.334409 C 217.400959 132.418072 217.278254 132.507312 217.161127 132.613284 Q 214.450457 135.162206 209.770926 140.17081 C 205.928022 144.281435 202.19109 147.421573 197.941028 150.321878 Q 185.492026 158.80527 170.555455 157.014889 Q 167.164329 156.602154 164.130164 156.228461 C 160.164555 155.743217 157.911241 157.37185 157.849888 161.488052 Q 157.571013 179.062785 157.877776 188.868047 Q 158.112031 196.453461 164.927748 198.478097 C 166.595423 198.974495 169.049528 199.041425 170.823176 199.047003 C 229.905736 199.208751 291.609726 199.403963 352.231679 199.16413 Q 357.535891 199.14182 360.848932 198.578492 C 369.711595 197.072564 374.0007 188.879203 375.194287 180.741616 Q 376.605397 171.092524 377.101795 161.192444 C 377.838027 146.484551 377.709744 131.313725 376.371141 115.942108 Q 375.729728 108.54633 369.957005 104.073167 C 363.409009 99.003211 354.445951 94.479851 347.089215 90.988329 Q 309.67528 73.240694 269.076587 65.415447 Q 261.123058 63.881632 251.691489 62.682468 Q 245.706821 61.923926 240.330102 64.283213 C 233.308017 67.373153 226.787908 71.623216 219.631963 75.661333 Q 217.568285 76.827032 216.051202 77.920224 C 215.805792 78.093127 215.922919 78.477975 216.224105 78.48913 Q 226.442103 78.851668 236.54855 81.618113 C 242.114905 83.140773 247.396807 84.953464 251.546474 88.378055 C 254.084241 90.475199 256.577388 93.972297 255.818846 97.201675 C 255.679409 97.809624 255.088193 98.211205 254.469089 98.116387 L 252.550426 97.815201" style="fill:none;stroke-width:0.50;stroke:#86771f;"/>
		<path vector-effect="non-scaling-stroke" d="M 268.136442 83.641243 C 267.420067 87.323906 274.771224 91.852843 284.55189 93.752655 C 294.331551 95.656705 302.842831 94.21213 303.559875 90.526902 C 304.276251 86.84424 296.925093 82.315302 287.144428 80.41549 C 277.364766 78.51144 268.853487 79.956015 268.136442 83.641243" style="fill:none;stroke-width:0.50;stroke:#86771f;"/>
		<path vector-effect="non-scaling-stroke" d="M 308.846128 138.978004 C 307.338304 147.371375 313.785905 155.559159 323.248987 157.261639 C 332.715973 158.967018 341.612101 153.540101 343.12171 145.145168 C 344.629534 136.751797 338.181932 128.564012 328.718851 126.861533 C 319.251864 125.156154 310.355736 130.583071 308.846128 138.978004" style="fill:none;stroke-width:0.50;stroke:#86771f;"/>
		<path vector-effect="non-scaling-stroke" d="M 252.107069 149.883597 C 252.00383 144.828031 246.364967 140.845689 239.51361 140.987134 C 232.666604 141.130142 227.195067 145.346739 227.303772 150.403198 C 227.407012 155.458764 233.045874 159.441106 239.897231 159.299661 C 246.744238 159.156653 252.215775 154.940056 252.107069 149.883597" style="fill:none;stroke-width:0.50;stroke:#86771f;"/>
		<path vector-effect="non-scaling-stroke" d="M 301.39134 177.49043 C 300.472389 171.739515 294.192113 167.963541 287.364795 169.055617 C 280.538369 170.149925 275.752866 175.699547 276.674494 181.449458 C 277.593444 187.200372 283.87372 190.976346 290.701038 189.88427 C 297.527464 188.789962 302.312967 183.24034 301.39134 177.49043" style="fill:none;stroke-width:0.50;stroke:#86771f;"/>
		<path vector-effect="non-scaling-stroke" d="M 313.856628 139.173384 C 312.397105 145.067864 316.652745 151.197547 323.358418 152.855462 C 330.066656 154.516165 336.68716 151.080419 338.144675 145.184043 C 339.604197 139.289564 335.348557 133.15988 328.642885 131.501966 C 321.934647 129.841262 315.314143 133.277008 313.856628 139.173384" style="fill:none;stroke-width:0.50;stroke:#86771f;"/>
		<path vector-effect="non-scaling-stroke" d="M 231.080192 149.066046 C 230.781405 152.050906 234.345434 154.850816 239.043147 155.32033 C 243.73796 155.787837 247.787232 153.746469 248.085239 150.763393 C 248.384026 147.778533 244.819997 144.978624 240.122284 144.509109 C 235.427471 144.041602 231.378199 146.08297 231.080192 149.066046" style="fill:none;stroke-width:0.50;stroke:#5e5529;"/>
		<path vector-effect="non-scaling-stroke" d="M 297.069718 178.370059 C 296.612752 174.790413 292.552325 172.364196 288.002249 172.94699 C 283.455407 173.529896 280.136789 176.904289 280.594535 180.480588 C 281.0515 184.060234 285.111927 186.486451 289.662004 185.903657 C 294.208846 185.320751 297.527464 181.946358 297.069718 178.370059" style="fill:none;stroke-width:0.50;stroke:#86771f;"/>
		<path d="M 252.260395 98.456615 Q 254.000578 99.817527 255.924819 101.172862 C 262.12701 105.52332 264.625734 112.060161 263.4935 119.701349 C 262.444928 126.734589 257.213224 130.889834 250.743313 132.853117 Q 240.341257 136.009988 229.967089 132.908892 C 225.086768 131.447585 221.662177 129.813375 217.53482 132.334409 C 217.400959 132.418072 217.278254 132.507312 217.161127 132.613284 Q 214.450457 135.162206 209.770926 140.17081 C 205.928022 144.281435 202.19109 147.421573 197.941028 150.321878 Q 185.492026 158.80527 170.555455 157.014889 Q 167.164329 156.602154 164.130164 156.228461 C 160.164555 155.743217 157.911241 157.37185 157.849888 161.488052 Q 157.571013 179.062785 157.877776 188.868047 Q 158.112031 196.453461 164.927748 198.478097 C 166.595423 198.974495 169.049528 199.041425 170.823176 199.047003 C 229.905736 199.208751 291.609726 199.403963 352.231679 199.16413 Q 357.535891 199.14182 360.848932 198.578492 C 369.711595 197.072564 374.0007 188.879203 375.194287 180.741616 Q 376.605397 171.092524 377.101795 161.192444 C 377.838027 146.484551 377.709744 131.313725 376.371141 115.942108 Q 375.729728 108.54633 369.957005 104.073167 C 363.409009 99.003211 354.445951 94.479851 347.089215 90.988329 Q 309.67528 73.240694 269.076587 65.415447 Q 261.123058 63.881632 251.691489 62.682468 Q 245.706821 61.923926 240.330102 64.283213 C 233.308017 67.373153 226.787908 71.623216 219.631963 75.661333 Q 217.568285 76.827032 216.051202 77.920224 C 215.805792 78.093127 215.922919 78.477975 216.224105 78.48913 Q 226.442103 78.851668 236.54855 81.618113 C 242.114905 83.140773 247.396807 84.953464 251.546474 88.378055 C 254.084241 90.475199 256.577388 93.972297 255.818846 97.201675 C 255.679409 97.809624 255.088193 98.211205 254.469089 98.116387 L 252.550426 97.815201 L 251.245288 94.602556 C 251.183936 94.446385 251.089118 94.306948 250.977568 94.184243 L 248.205546 91.23374 C 248.177658 91.200275 248.144193 91.172387 248.10515 91.150077 C 242.265498 87.569316 235.243413 85.288115 228.410964 84.206078 C 225.315446 83.715257 223.184837 82.995758 220.345885 82.956715 C 217.144394 82.912095 213.083967 81.913721 210.579665 82.198174 Q 208.471366 82.438007 204.444404 83.904892 Q 201.995878 84.797294 198.666104 86.576519 C 188.487149 92.003436 179.418118 99.477299 169.596124 107.168685 C 163.589146 111.876103 157.766226 115.707853 151.251694 118.385057 Q 144.424822 121.190545 136.538224 123.376928 Q 118.193794 128.469195 117.987426 128.519392 Q 113.703899 129.623739 110.926299 130.471521 Q 109.565387 130.884256 107.22841 131.442007 C 106.943957 131.508938 106.659504 131.336035 106.592574 131.057159 Q 106.380628 130.170335 106.653926 129.300244 Q 107.886556 125.384832 111.456162 124.325105 C 113.285586 123.778509 113.921422 123.505211 115.73969 123.031123 Q 129.995805 119.344389 139.561234 116.483126 Q 155.167106 111.814751 167.292612 102.115461 Q 171.827128 98.49008 178.631689 93.358771 Q 189.13414 85.438707 200.852488 79.889085 C 204.327277 78.249297 206.725606 77.195148 209.547826 75.494007 Q 220.133939 69.141224 223.045399 67.361998 Q 223.815096 66.893487 231.86902 62.381282 Q 236.219477 59.94391 241.149996 58.270657 Q 244.435149 57.155155 247.59202 57.155155 Q 252.394255 57.149578 254.351961 57.372678 Q 267.386602 58.850718 281.308066 62.113562 Q 297.415914 65.895113 311.348533 70.513291 Q 322.62068 74.2558 335.192387 79.426152 Q 335.331825 79.487504 335.917463 79.732915 Q 339.514957 81.22211 345.661373 84.038752 Q 355.360662 88.47845 364.262368 93.464744 Q 367.341153 95.182617 372.355334 98.612785 C 376.967935 101.758501 380.660246 106.293016 381.820368 111.574918 C 382.389274 114.162882 382.896828 116.973947 382.997223 119.517292 Q 383.047421 120.833584 383.354184 126.91307 Q 384.179655 143.361146 383.482466 156.524069 Q 383.047421 164.817826 383.041843 165.146899 Q 382.986068 167.729286 382.595642 170.746718 Q 381.998849 175.337009 381.976539 176.352116 C 381.915186 179.157603 381.184532 181.684215 380.470611 185.080918 Q 379.95748 187.507135 378.496173 190.836908 Q 377.079485 194.071864 375.450852 196.11881 Q 371.691611 200.854116 365.829648 203.319375 Q 363.074358 204.485075 358.573308 204.752795 Q 351.573533 205.171108 348.187985 205.154376 Q 259.204395 204.85319 168.876625 205.009361 Q 167.287035 205.014938 166.093448 204.814148 C 164.615407 204.568737 163.438553 204.579892 162.406714 204.239664 C 156.968642 202.460439 153.36557 199.498781 152.093898 194.088597 Q 151.564035 191.84086 151.586345 188.081619 Q 151.636542 178.867573 151.647697 163.356518 Q 151.647697 163.044177 151.46364 162.731837 C 151.290737 162.436229 150.905889 162.358144 150.632591 162.553357 Q 136.465716 172.704424 122.901212 183.474596 Q 120.725983 185.203624 120.413643 185.476922 C 119.130816 186.609156 116.604204 189.024218 115.572364 186.525493 Q 114.925373 184.952636 114.696695 181.929625 C 114.679963 181.728835 114.724583 181.528045 114.824978 181.355142 Q 115.265601 180.613333 116.386681 179.759974 Q 131.579817 168.203374 144.865446 159.022793 Q 152.411816 153.807821 157.537548 151.331407 Q 159.355816 150.455738 162.523841 149.992805 Q 163.784359 149.803169 167.649573 150.494781 Q 173.701171 151.576818 180.885003 150.862896 Q 182.441129 150.706726 183.31122 150.299568 C 184.270552 149.858945 185.592422 149.819902 186.551753 149.423899 Q 194.806468 146.032773 199.742564 141.51499 Q 203.64682 137.945384 211.131839 129.763177 Q 212.872022 127.855669 216.27988 126.176838 C 218.834379 124.910744 222.582466 124.810348 224.919443 125.47965 Q 227.70262 126.277233 229.861116 127.06924 Q 233.090494 128.257249 235.661726 128.446885 Q 241.010558 128.83731 245.807216 128.463617 C 247.402384 128.340912 248.668479 127.654878 250.196717 127.376003 C 250.52579 127.31465 250.843708 127.191945 251.128161 127.013465 Q 251.624559 126.695547 252.33848 126.338586 Q 256.68336 124.174512 257.971765 119.377854 C 258.02754 119.177064 257.955033 118.959541 257.787707 118.831258 L 256.672205 117.983476 C 256.493725 117.849616 256.287357 117.743644 256.075412 117.682291 Q 250.732158 116.131743 249.917841 115.903065 Q 238.344508 112.71273 228.645219 111.14545 Q 225.862042 110.699249 217.294987 109.946285 C 216.318923 109.857045 215.588269 109.003686 215.655199 108.022044 L 215.666354 107.916071 C 215.738862 106.923275 216.5476 106.136846 217.540397 106.103381 Q 223.675658 105.88028 226.118607 106.270706 Q 230.385402 106.95674 233.079339 107.302545 C 235.455358 107.609308 237.201119 108.261877 239.32615 108.445935 Q 239.499053 108.45709 241.813719 108.936756 Q 245.862992 109.773382 254.932022 112.679265 Q 256.426795 113.158931 257.213224 112.946985 Q 258.512784 112.590025 257.971765 111.407593 Q 256.410062 108.010889 253.236459 105.646025 Q 251.473966 104.329733 246.509983 102.054109 Q 237.039371 97.714806 225.086768 95.863073 C 224.406312 95.7571 223.33543 95.42245 222.476493 95.35552 Q 211.851337 94.496583 211.728632 94.474273 Q 210.5462 94.284638 210.021914 93.436856 Q 209.966139 93.342039 210.178084 92.232114 C 210.222704 92.014591 210.362142 91.830533 210.562933 91.741293 L 212.805091 90.692721 C 212.849712 90.675989 212.894332 90.664834 212.944529 90.659256 Q 218.756294 90.296718 221.517162 90.664834 Q 225.404686 91.18912 229.911314 91.774758 Q 232.242713 92.075944 236.39238 93.068741 Q 239.532518 93.821704 242.717276 94.942784 Q 247.463737 96.616037 252.260395 98.456615 Z M 238.785187 128.979146 C 238.785132 128.987903 239.158825 128.999058 239.621591 129.004636 C 240.084691 129.010213 240.458385 129.004636 240.458329 128.99666 C 240.458385 128.987903 240.084691 128.976748 239.621925 128.971171 C 239.158825 128.965593 238.785132 128.971171 238.785187 128.979146 Z M 242.555528 128.989353 C 242.555528 128.982326 242.181835 128.976748 241.718902 128.976748 C 241.255969 128.976748 240.882275 128.982326 240.882275 128.986453 C 240.882275 128.993481 241.255969 128.999058 241.718902 128.999058 C 242.181835 128.999058 242.555528 128.993481 242.555528 128.989353 Z" style="fill:#0d1e38;"/>
		<path d="M 252.260395 98.456615 Q 252.187888 98.021569 252.550426 97.815201 L 254.469089 98.116387 C 255.088193 98.211205 255.679409 97.809624 255.818846 97.201675 C 256.577388 93.972297 254.084241 90.475199 251.546474 88.378055 C 247.396807 84.953464 242.114905 83.140773 236.54855 81.618113 Q 226.442103 78.851668 216.224105 78.48913 C 215.922919 78.477975 215.805792 78.093127 216.051202 77.920224 Q 217.568285 76.827032 219.631963 75.661333 C 226.787908 71.623216 233.308017 67.373153 240.330102 64.283213 Q 245.706821 61.923926 251.691489 62.682468 Q 261.123058 63.881632 269.076587 65.415447 Q 309.67528 73.240694 347.089215 90.988329 C 354.445951 94.479851 363.409009 99.003211 369.957005 104.073167 Q 375.729728 108.54633 376.371141 115.942108 C 377.709744 131.313725 377.838027 146.484551 377.101795 161.192444 Q 376.605397 171.092524 375.194287 180.741616 C 374.0007 188.879203 369.711595 197.072564 360.848932 198.578492 Q 357.535891 199.14182 352.231679 199.16413 C 291.609726 199.403963 229.905736 199.208751 170.823176 199.047003 C 169.049528 199.041425 166.595423 198.974495 164.927748 198.478097 Q 158.112031 196.453461 157.877776 188.868047 Q 157.571013 179.062785 157.849888 161.488052 C 157.911241 157.37185 160.164555 155.743217 164.130164 156.228461 Q 167.164329 156.602154 170.555455 157.014889 Q 185.492026 158.80527 197.941028 150.321878 C 202.19109 147.421573 205.928022 144.281435 209.770926 140.17081 Q 214.450457 135.162206 217.161127 132.613284 C 217.278254 132.507312 217.400959 132.418072 217.53482 132.334409 C 221.662177 129.813375 225.086768 131.447585 229.967089 132.908892 Q 240.341257 136.009988 250.743313 132.853117 C 257.213224 130.889834 262.444928 126.734589 263.4935 119.701349 C 264.625734 112.060161 262.12701 105.52332 255.924819 101.172862 Q 254.000578 99.817527 252.260395 98.456615 Z M 268.136442 83.641243 C 267.420067 87.323906 274.771224 91.852843 284.55189 93.752655 C 294.331551 95.656705 302.842831 94.21213 303.559875 90.526902 C 304.276251 86.84424 296.925093 82.315302 287.144428 80.41549 C 277.364766 78.51144 268.853487 79.956015 268.136442 83.641243 Z M 308.846128 138.978004 C 307.338304 147.371375 313.785905 155.559159 323.248987 157.261639 C 332.715973 158.967018 341.612101 153.540101 343.12171 145.145168 C 344.629534 136.751797 338.181932 128.564012 328.718851 126.861533 C 319.251864 125.156154 310.355736 130.583071 308.846128 138.978004 Z M 252.107069 149.883597 C 252.00383 144.828031 246.364967 140.845689 239.51361 140.987134 C 232.666604 141.130142 227.195067 145.346739 227.303772 150.403198 C 227.407012 155.458764 233.045874 159.441106 239.897231 159.299661 C 246.744238 159.156653 252.215775 154.940056 252.107069 149.883597 Z M 301.39134 177.49043 C 300.472389 171.739515 294.192113 167.963541 287.364795 169.055617 C 280.538369 170.149925 275.752866 175.699547 276.674494 181.449458 C 277.593444 187.200372 283.87372 190.976346 290.701038 189.88427 C 297.527464 188.789962 302.312967 183.24034 301.39134 177.49043 Z" style="fill:#ffd006;"/>
		<path d="M 268.136442 83.641243 C 268.853487 79.956015 277.364766 78.51144 287.144428 80.41549 C 296.925093 82.315302 304.276251 86.84424 303.559875 90.526902 C 302.842831 94.21213 294.331551 95.656705 284.55189 93.752655 C 274.771224 91.852843 267.420067 87.323906 268.136442 83.641243 Z" style="fill:#0d1e38;"/>
		<path d="M 308.846128 138.978004 C 310.355736 130.583071 319.251864 125.156154 328.718851 126.861533 C 338.181932 128.564012 344.629534 136.751797 343.12171 145.145168 C 341.612101 153.540101 332.715973 158.967018 323.248987 157.261639 C 313.785905 155.559159 307.338304 147.371375 308.846128 138.978004 Z M 313.856628 139.173384 C 312.397105 145.067864 316.652745 151.197547 323.358418 152.855462 C 330.066656 154.516165 336.68716 151.080419 338.144675 145.184043 C 339.604197 139.289564 335.348557 133.15988 328.642885 131.501966 C 321.934647 129.841262 315.314143 133.277008 313.856628 139.173384 Z" style="fill:#0d1e38;"/>
		<path d="M 252.107069 149.883597 C 252.215775 154.940056 246.744238 159.156653 239.897231 159.299661 C 233.045874 159.441106 227.407012 155.458764 227.303772 150.403198 C 227.195067 145.346739 232.666604 141.130142 239.51361 140.987134 C 246.364967 140.845689 252.00383 144.828031 252.107069 149.883597 Z M 231.080192 149.066046 C 230.781405 152.050906 234.345434 154.850816 239.043147 155.32033 C 243.73796 155.787837 247.787232 153.746469 248.085239 150.763393 C 248.384026 147.778533 244.819997 144.978624 240.122284 144.509109 C 235.427471 144.041602 231.378199 146.08297 231.080192 149.066046 Z" style="fill:#0d1e38;"/>
		<path d="M 301.39134 177.49043 C 302.312967 183.24034 297.527464 188.789962 290.701038 189.88427 C 283.87372 190.976346 277.593444 187.200372 276.674494 181.449458 C 275.752866 175.699547 280.538369 170.149925 287.364795 169.055617 C 294.192113 167.963541 300.472389 171.739515 301.39134 177.49043 Z M 297.069718 178.370059 C 296.612752 174.790413 292.552325 172.364196 288.002249 172.94699 C 283.455407 173.529896 280.136789 176.904289 280.594535 180.480588 C 281.0515 184.060234 285.111927 186.486451 289.662004 185.903657 C 294.208846 185.320751 297.527464 181.946358 297.069718 178.370059 Z" style="fill:#0d1e38;"/>
		<path d="M 313.856628 139.173384 C 315.314143 133.277008 321.934647 129.841262 328.642885 131.501966 C 335.348557 133.15988 339.604197 139.289564 338.144675 145.184043 C 336.68716 151.080419 330.066656 154.516165 323.358418 152.855462 C 316.652745 151.197547 312.397105 145.067864 313.856628 139.173384 Z" style="fill:#ffd006;"/>
		<path d="M 231.080192 149.066046 C 231.378199 146.08297 235.427471 144.041602 240.122284 144.509109 C 244.819997 144.978624 248.384026 147.778533 248.085239 150.763393 C 247.787232 153.746469 243.73796 155.787837 239.043147 155.32033 C 234.345434 154.850816 230.781405 152.050906 231.080192 149.066046 Z" style="fill:#af8c1a;"/>
		<path d="M 297.069718 178.370059 C 297.527464 181.946358 294.208846 185.320751 289.662004 185.903657 C 285.111927 186.486451 281.0515 184.060234 280.594535 180.480588 C 280.136789 176.904289 283.455407 173.529896 288.002249 172.94699 C 292.552325 172.364196 296.612752 174.790413 297.069718 178.370059 Z" style="fill:#ffd006;"/>
	</g>
	<g id="surface4">
	</g>
</svg>
