<?xml version="1.0" encoding="utf-8"?>
<svg xmlns="http://www.w3.org/2000/svg" width="490pt" height="280pt" viewBox="0 0 490 280" version="1.1" xmlns:xlink="http://www.w3.org/1999/xlink">
	<g id="surface2" data-size="90.358029006073 148" data-bboxpos="200 49.534127150158" data-pivot="245.17901450304 123.53412715016" data-center="245.17901450304 123.53412715016">
		<path vector-effect="non-scaling-stroke" d="M 245.190559 63.908334 C 253.803227 63.901266 262.428264 64.57275 270.950812 65.829132 C 271.093944 65.850337 271.1982 65.696603 271.125751 65.571141 L 271.035631 65.413872 C 270.968482 65.297246 270.853623 65.215961 270.721093 65.189455 Q 267.803671 64.613393 265.335083 64.286486 Q 255.294628 62.957654 245.190559 62.964722 Q 235.086489 62.971791 225.047801 64.316526 Q 222.579213 64.6452 219.661791 65.226564 C 219.531029 65.251303 219.416169 65.334355 219.349021 65.450981 L 219.258901 65.608249 C 219.186451 65.733711 219.290708 65.887446 219.43384 65.866241 C 227.954621 64.597489 236.579658 63.913635 245.190559 63.908334" style="fill:none;stroke-width:0.50;stroke:#90763d;"/>
		<path vector-effect="non-scaling-stroke" d="M 235.521187 180.985131 Q 235.351549 180.969228 235.192513 180.999268 C 235.188979 180.999268 235.185445 181.002802 235.185445 181.008103 C 235.187212 181.011637 235.190746 181.015172 235.19428 181.015172 L 236.316365 181.048746" style="fill:none;stroke-width:0.50;stroke:#90763d;"/>
		<path vector-effect="non-scaling-stroke" d="M 237.786562 181.168906 Q 238.712504 181.333243 239.641979 181.223685" style="fill:none;stroke-width:0.50;stroke:#90763d;"/>
		<path vector-effect="non-scaling-stroke" d="M 280.517694 126.154916 L 280.600746 121.214206" style="fill:none;stroke-width:0.50;stroke:#90763d;"/>
		<path vector-effect="non-scaling-stroke" d="M 280.597212 121.182399 L 280.510625 117.660641" style="fill:none;stroke-width:0.50;stroke:#90763d;"/>
		<path vector-effect="non-scaling-stroke" d="M 273.062452 68.765992 Q 272.958196 68.324226 272.627755 67.776436 Q 272.32382 67.271056 271.779564 67.210976 Q 267.764796 66.776278 264.42858 66.437002 Q 261.542965 66.14367 257.052857 65.924554 Q 245.858509 65.376764 233.619826 65.919253 Q 228.746265 66.136601 224.429329 66.594271 Q 221.222108 66.935314 219.126371 67.145595 C 217.945973 67.262221 217.617299 67.979649 217.334569 68.988642" style="fill:none;stroke-width:0.50;stroke:#90763d;"/>
		<path vector-effect="non-scaling-stroke" d="M 272.337956 70.006471 Q 271.221172 69.331452 269.865834 69.02575 C 268.11114 68.633462 266.90777 68.329527 265.398698 68.140452 Q 261.28144 67.624469 259.153895 67.444229 Q 243.015303 66.080055 226.606351 67.965512 Q 223.392062 68.334829 220.540022 68.956835 Q 219.265969 69.234264 217.94774 69.939322" style="fill:none;stroke-width:0.50;stroke:#90763d;"/>
		<path vector-effect="non-scaling-stroke" d="M 246.932883 119.008911 Q 246.810956 118.535338 246.885173 118.219033 C 247.874728 113.981615 250.099461 110.571182 252.926763 106.909826 Q 252.997446 106.816172 256.851411 101.962048 Q 260.074535 97.90487 262.64738 93.526087 Q 263.603361 91.898621 264.77139 88.975898 Q 264.826169 88.8363 264.859743 88.435177 C 264.866812 88.346824 264.852675 88.25847 264.819101 88.175418 Q 264.585849 87.617026 264.126412 87.38024" style="fill:none;stroke-width:0.50;stroke:#90763d;"/>
		<path vector-effect="non-scaling-stroke" d="M 226.129244 87.026827 L 225.507238 87.5004 C 225.371174 87.604657 225.302258 87.772528 225.323463 87.942166 Q 225.39768 88.532365 225.632699 89.184412 Q 226.182256 90.704086 227.092294 92.365126 C 229.552046 96.855235 232.858222 101.173938 236.159097 105.218747 C 238.830897 108.494882 241.069766 111.709171 242.711369 115.441209 Q 243.47474 117.176466 243.647912 118.864011" style="fill:none;stroke-width:0.50;stroke:#90763d;"/>
		<path vector-effect="non-scaling-stroke" d="M 280.579541 121.145291 L 280.56187 120.90497" style="fill:none;stroke-width:0.50;stroke:#90763d;"/>
		<path vector-effect="non-scaling-stroke" d="M 280.537131 122.71621 L 280.542433 122.597817" style="fill:none;stroke-width:0.50;stroke:#90763d;"/>
		<path vector-effect="non-scaling-stroke" d="M 248.185731 119.645054 L 248.450791 122.889382" style="fill:none;stroke-width:0.50;stroke:#90763d;"/>
		<path vector-effect="non-scaling-stroke" d="M 246.298508 124.948011 L 244.181565 124.919738" style="fill:none;stroke-width:0.50;stroke:#90763d;"/>
		<path vector-effect="non-scaling-stroke" d="M 242.050487 122.802796 Q 242.039884 121.70545 242.151209 120.692922 Q 242.183017 120.396056 242.326149 120.002" style="fill:none;stroke-width:0.50;stroke:#90763d;"/>
		<path vector-effect="non-scaling-stroke" d="M 245.86381 153.661027 Q 245.151683 153.247535 244.626865 153.675164" style="fill:none;stroke-width:0.50;stroke:#90763d;"/>
		<path vector-effect="non-scaling-stroke" d="M 264.179424 177.74257 Q 263.624566 177.83269 262.023606 178.170199 Q 260.609955 178.4706 257.849802 178.850519 L 257.848035 178.850519 C 257.885143 178.854053 257.918718 178.861121 257.954059 178.871723" style="fill:none;stroke-width:0.50;stroke:#90763d;"/>
		<path vector-effect="non-scaling-stroke" d="M 225.314628 165.224691 Q 225.134387 165.579871 224.904669 166.002199 C 223.98933 167.684444 224.94001 170.559456 225.708683 172.199291 C 226.949161 174.853421 229.136786 176.692934 232.054208 177.304338 Q 234.220628 177.756706 236.666244 177.99526 Q 245.111041 178.818712 253.541701 178.041204 Q 255.665712 177.845059 257.798557 177.426265 C 261.355656 176.728275 263.573321 174.823381 264.992273 171.497767 Q 265.798054 169.607009 265.833395 167.610227 Q 265.843998 167.009426 265.707934 166.578262 Q 265.520625 165.982762 265.048819 165.17168" style="fill:none;stroke-width:0.50;stroke:#90763d;"/>
		<path vector-effect="non-scaling-stroke" d="M 212.187112 69.255469 Q 212.222454 69.269605 212.233056 69.269605 C 212.254261 69.269605 212.26663 69.244866 212.256028 69.227196 Q 212.23659 69.191854 212.208317 69.186553 C 212.190646 69.183019 212.172976 69.195389 212.167675 69.211292 C 212.162373 69.228963 212.169442 69.2484 212.187112 69.255469" style="fill:none;stroke-width:0.50;stroke:#90763d;"/>
		<path vector-effect="non-scaling-stroke" d="M 213.13956 172.508527 Q 212.837392 174.501775 211.959161 176.307714 C 211.941491 176.344823 211.964462 176.388999 212.005105 176.396067 L 212.072253 176.408437 C 212.089924 176.411971 212.107594 176.403136 212.11643 176.387232 L 212.720766 175.284584" style="fill:none;stroke-width:0.50;stroke:#8f8d8d;"/>
		<path vector-effect="non-scaling-stroke" d="M 212.752573 175.210368 Q 212.8745 175.001854 212.897472 174.802176" style="fill:none;stroke-width:0.50;stroke:#8f8d8d;"/>
		<path vector-effect="non-scaling-stroke" d="M 212.931046 174.71559 L 213.291527 173.950451" style="fill:none;stroke-width:0.50;stroke:#8f8d8d;"/>
		<path vector-effect="non-scaling-stroke" d="M 213.372812 173.614709 L 213.484137 173.254228" style="fill:none;stroke-width:0.50;stroke:#8f8d8d;"/>
		<path vector-effect="non-scaling-stroke" d="M 213.508876 173.139369 Q 213.60253 172.95206 213.63257 172.524431" style="fill:none;stroke-width:0.50;stroke:#8f8d8d;"/>
		<path vector-effect="non-scaling-stroke" d="M 213.729759 171.884754 Q 213.77747 171.782264 213.768634 171.62853" style="fill:none;stroke-width:0.50;stroke:#90763d;"/>
		<path vector-effect="non-scaling-stroke" d="M 278.111236 176.215138 C 278.072078 176.251168 278.091515 176.332453 278.151172 176.396244 C 278.211676 176.459682 278.291194 176.482653 278.329786 176.446234 C 278.368944 176.410204 278.349507 176.328919 278.289851 176.265128 C 278.229346 176.20169 278.149829 176.178719 278.111236 176.215138" style="fill:none;stroke-width:0.50;stroke:#90763d;"/>
		<path vector-effect="non-scaling-stroke" d="M 287.135347 184.791386 Q 287.28378 184.655323 287.347394 184.51219 C 287.366832 184.468014 287.31382 184.427371 287.274945 184.457411 Q 287.259041 184.469781 287.241371 184.489219" style="fill:none;stroke-width:0.50;stroke:#8f8d8d;"/>
		<path vector-effect="non-scaling-stroke" d="M 285.362982 185.63781 Q 283.007486 186.542546 280.598979 187.185758 Q 277.26453 188.074591 276.059392 188.346718 Q 266.397089 190.530809 255.969647 191.258839 Q 244.812407 192.038114 234.30368 191.242936 C 225.493101 190.574985 217.615532 189.304467 209.577159 187.139814 Q 207.357728 186.542546 204.905043 185.593633" style="fill:none;stroke-width:0.50;stroke:#8f8d8d;"/>
		<path vector-effect="non-scaling-stroke" d="M 204.141672 185.203112 Q 204.092194 185.075884 203.975568 185.107691" style="fill:none;stroke-width:0.50;stroke:#90763d;"/>
		<path vector-effect="non-scaling-stroke" d="M 203.945528 185.088253 Q 203.804163 184.962792 203.590348 184.877973" style="fill:none;stroke-width:0.50;stroke:#90763d;"/>
		<path vector-effect="non-scaling-stroke" d="M 203.394204 184.76488 L 202.954205 184.333717 C 202.925932 184.305444 202.876454 184.321347 202.869386 184.360223 L 202.851715 184.453877 C 202.849948 184.462713 202.853483 184.471548 202.858784 184.478616 Q 204.555165 186.413551 206.649135 187.185758 Q 209.585995 188.270735 213.130724 189.141897 Q 220.534721 190.965507 228.429961 191.873777 Q 240.115552 193.22028 252.105078 192.674257 C 261.838065 192.232491 271.454425 190.841812 280.825163 188.166478 Q 281.950782 187.846639 283.636561 187.233468 Q 284.871738 186.786401 285.852459 185.945279" style="fill:none;stroke-width:0.50;stroke:#8f8d8d;"/>
		<path d="M 284.437041 179.495497 C 284.376961 179.529071 284.385796 179.615657 284.44941 179.638629 C 284.869971 179.785295 285.237521 179.705777 285.643945 179.815335 Q 287.183058 180.228828 287.826269 180.50449 Q 288.312211 180.713004 288.736306 181.211316 Q 289.01727 181.541756 289.250522 182.227377 Q 289.67285 183.466089 289.773573 183.943196 C 289.975018 184.900944 290.192367 185.62544 290.215339 186.383511 C 290.245379 187.424311 290.748992 188.405031 289.665782 189.205511 Q 288.100164 190.361171 285.829487 191.241168 Q 284.619048 191.70944 283.910456 191.963897 Q 280.966528 193.017067 277.842359 193.796342 Q 272.525265 195.123407 266.531386 196.005172 Q 265.395164 196.173043 263.515008 196.4275 Q 262.776375 196.526456 262.474208 196.544126 Q 261.875173 196.5777 261.546499 196.674889 C 261.47405 196.696094 261.398066 196.706696 261.322082 196.708463 Q 260.549875 196.719066 260.078069 196.787981 C 259.327067 196.899306 258.756306 196.844527 258.083055 197.007097 C 257.996468 197.028302 257.908115 197.040671 257.819762 197.045972 C 257.013981 197.083081 256.376071 197.074245 255.435993 197.182036 Q 254.631979 197.273924 253.414473 197.254486 C 253.039855 197.247418 252.518571 197.387016 252.053834 197.397618 C 247.291597 197.489505 245.588148 197.611433 242.308478 197.470068 Q 241.626391 197.440027 238.921017 197.417056 Q 238.162947 197.409987 237.597487 197.33047 C 236.599096 197.190872 235.810985 197.279225 234.690667 197.146695 Q 234.00858 197.06541 233.091474 197.058342 C 232.943041 197.056575 232.792841 197.042438 232.646174 197.014165 C 231.900474 196.867499 231.18658 196.913443 230.403771 196.798583 C 229.787066 196.708463 229.180963 196.696094 228.573093 196.621877 Q 218.288783 195.376097 210.094909 193.068312 Q 207.166885 192.244861 203.897817 190.930165 Q 203.535569 190.785266 202.735089 190.387677 C 201.796779 189.922939 200.983929 189.504145 200.356622 188.894508 C 199.867145 188.419168 200.004976 187.765354 200.061522 186.968409 C 200.142807 185.849857 200.429071 184.73484 200.695898 183.63396 C 200.856701 182.971311 201.059913 182.35814 201.282563 181.783844 C 201.662482 180.801357 202.508905 180.518627 203.516131 180.189953 Q 204.746008 179.788829 205.793876 179.712846 C 205.896366 179.705777 205.928173 179.569714 205.83982 179.516702 C 204.585205 178.772768 203.512597 177.89277 203.00545 176.521529 Q 202.609628 175.459524 202.789868 174.491173 C 203.136213 172.623387 204.682393 171.347567 206.631464 171.644433 Q 207.848971 171.829975 208.543427 172.893747 Q 209.308566 174.065311 208.51162 175.217436 Q 208.320777 175.494865 208.094593 175.526672 C 207.023753 175.680407 207.128009 175.219203 207.128009 174.379848 C 207.128009 174.302097 207.105037 174.22788 207.062628 174.162499 C 206.712749 173.634147 205.933474 173.597039 205.528817 174.058242 C 204.708899 174.989485 205.053477 176.099201 205.91227 176.837833 C 207.027287 177.795582 208.880936 177.511084 209.790974 176.433176 Q 210.626795 175.44362 210.941333 174.097118 Q 211.144545 173.227722 211.201091 171.743389 C 211.232898 170.893431 211.004947 169.953354 211.036754 169.131669 C 211.040288 169.029179 211.029686 168.924923 211.004947 168.8242 Q 210.920128 168.477855 210.778763 167.544846 Q 210.658602 166.758503 210.549044 166.263725 Q 209.806878 162.950481 209.416357 161.639319 Q 207.016684 153.588578 206.186164 150.596939 Q 204.263599 143.664749 203.153883 136.403885 Q 203.092036 136.002761 203.081434 135.636979 C 203.069064 135.281799 202.925932 134.992001 202.922398 134.629753 Q 202.917097 133.884052 202.837579 133.596021 C 202.683844 133.03056 202.786334 132.52518 202.673242 131.949117 C 202.523042 131.175143 202.641435 130.364061 202.493002 129.704947 C 202.325131 128.952177 202.424086 127.930815 202.296858 127.022544 Q 202.23501 126.575477 202.227942 126.107205 Q 202.178464 122.979503 202.21734 118.669634 C 202.227942 117.607629 202.425853 116.480243 202.388745 115.444743 Q 202.372841 114.939363 202.485933 114.412778 C 202.618463 113.799607 202.50007 112.976156 202.678543 112.355916 C 202.791635 111.958327 202.717419 111.460015 202.779266 110.982908 Q 203.609786 104.68686 204.837895 99.677235 Q 206.10488 94.510341 207.725277 89.405295 C 209.133626 84.962897 210.418282 80.965799 211.100368 76.569345 C 211.231131 75.722921 211.229364 74.922442 211.317717 74.044211 Q 211.416673 73.077627 211.132175 71.695783 C 210.833542 70.252093 209.646075 68.71298 208.121099 68.545109 Q 206.815239 68.401977 205.781507 69.398601 Q 205.311468 69.852736 205.101187 70.578999 C 204.791951 71.653374 206.06247 73.171282 207.076764 72.102208 C 207.129776 72.047429 207.158049 71.97498 207.159816 71.900763 Q 207.170419 71.310564 207.154515 70.990725 Q 207.135078 70.547192 207.56094 70.511851 Q 208.412665 70.442935 208.845595 71.229279 Q 208.877402 71.287592 209.055876 71.801807 C 209.092984 71.907831 209.105353 72.02269 209.08945 72.135782 Q 208.939249 73.240197 208.861499 73.365659 Q 207.87371 74.956016 206.177329 74.948948 Q 204.765445 74.943646 203.790026 73.968227 Q 203.019587 73.197788 202.759828 72.05273 Q 202.708583 71.828313 202.745692 70.336912 C 202.747459 70.280366 202.756294 70.22382 202.770431 70.167273 Q 203.496694 67.405353 206.080141 66.159573 Q 206.329297 66.039413 206.461826 65.892747 C 206.546645 65.799092 206.484798 65.648892 206.359337 65.641824 C 205.788575 65.606482 205.343275 65.396202 204.788417 65.237166 Q 203.491392 64.862549 202.553082 64.464959 C 201.756136 64.125683 201.353246 63.607933 201.044009 62.722635 Q 200.54393 61.29308 200.24353 59.685052 Q 200.065056 58.734372 200.06859 57.695339 C 200.06859 57.219999 200.077426 57.068031 200.464413 56.774699 Q 201.086419 56.302893 201.84979 55.967151 Q 203.747617 55.133097 205.173637 54.701933 Q 209.361578 53.436716 214.266946 52.509007 Q 217.923001 51.816318 219.631751 51.577765 Q 220.638977 51.4364 221.621465 51.287966 Q 222.927325 51.090055 223.61648 51.024674 Q 223.726037 51.014071 223.832061 50.985798 C 224.333907 50.851502 224.791577 50.952224 225.129086 50.82853 C 225.199769 50.803791 225.272218 50.789654 225.346435 50.787887 Q 226.247637 50.759614 227.221289 50.598811 Q 228.277993 50.423872 229.071405 50.397366 Q 230.076864 50.365559 231.663687 50.149977 C 232.586094 50.026283 233.48553 50.112869 234.215327 50.010379 Q 235.432834 49.838974 236.030101 49.858412 C 236.791706 49.881384 237.652266 49.706444 238.454512 49.70291 Q 239.763906 49.699376 241.658199 49.683473 C 242.115868 49.679938 242.729039 49.57038 243.07185 49.563312 Q 245.605819 49.506766 248.113282 49.559778 C 248.512638 49.568613 249.016251 49.671103 249.465086 49.676404 Q 251.93544 49.706444 252.449656 49.701143 C 253.258971 49.694075 254.365153 49.890219 255.220412 49.872548 Q 255.946675 49.858412 256.761291 50.013913 C 257.307314 50.11817 258.144902 50.012146 258.821687 50.141142 Q 259.45783 50.261302 260.440317 50.247166 C 260.576381 50.245399 260.712445 50.263069 260.844975 50.296644 Q 261.307946 50.416804 262.050112 50.415037 C 262.532521 50.41327 262.958383 50.565237 263.393081 50.57584 Q 263.891393 50.588209 264.377335 50.710136 C 264.776691 50.810859 265.232594 50.733108 265.713235 50.821461 Q 266.370583 50.943389 267.034999 50.955758 C 267.141022 50.957525 267.308893 51.045879 267.453793 51.063549 Q 275.963971 52.139691 283.43865 54.132939 Q 285.347078 54.641853 287.700807 55.571328 Q 288.089561 55.725063 289.28763 56.400081 Q 289.973251 56.785301 290.172929 57.168754 C 290.199435 57.219999 290.215339 57.276545 290.218873 57.336625 C 290.252447 57.887949 290.240078 58.736139 290.111082 59.455334 C 289.86546 60.796535 289.556224 62.275568 289.052611 63.388818 Q 288.762812 64.026728 287.916389 64.411947 Q 286.439124 65.083432 284.772783 65.438611 C 284.725072 65.447447 284.680896 65.46335 284.640253 65.486322 Q 284.366358 65.629454 283.949331 65.627687 C 283.799131 65.627687 283.726681 65.811462 283.838006 65.913951 Q 284.028849 66.088891 284.088929 66.115397 Q 284.816959 66.437002 285.299368 66.806319 Q 286.17053 67.474269 286.895026 68.483262 Q 287.188359 68.891454 287.478157 69.803258 C 287.59655 70.177876 287.540004 70.563096 287.660165 70.955384 C 287.681369 71.026066 287.688438 71.100283 287.681369 71.1745 Q 287.550607 72.494496 287.177756 73.150077 C 285.912539 75.37481 282.585158 75.707018 281.42243 73.180117 C 281.415362 73.16598 281.410061 73.150077 281.408294 73.134173 L 281.263395 72.321324 C 281.245724 72.224135 281.252792 72.12518 281.282832 72.031526 Q 281.36235 71.791205 281.37472 71.579157 Q 281.387089 71.351206 281.586767 71.064942 Q 282.12042 70.30157 282.947406 70.575465 C 283.064032 70.612574 283.141783 70.722131 283.141783 70.844059 L 283.141783 71.768233 C 283.141783 71.943172 283.223068 72.107509 283.362666 72.211766 Q 284.073026 72.75072 284.811658 72.116345 C 285.150934 71.824779 285.304669 71.026066 285.15977 70.540124 Q 284.703867 68.993943 283.20363 68.621093 Q 282.017931 68.325993 281.03721 68.907357 Q 279.754322 69.667194 279.337295 71.257552 Q 278.950308 72.73305 279.017457 74.4418 Q 279.114645 76.880348 279.540508 78.827652 C 280.233196 81.999531 281.136166 85.05125 282.244115 88.537666 Q 283.452786 92.345688 283.921058 93.994359 Q 285.718162 100.339884 286.817275 106.192399 Q 287.190126 108.185646 287.617755 111.898247 Q 287.764421 113.158163 287.734381 113.651174 C 287.732614 113.67768 287.736148 113.702419 287.74145 113.727158 L 287.842172 114.190128 C 287.881048 114.363301 287.900485 114.541774 287.900485 114.720247 Q 287.900485 115.704502 287.976469 116.31944 Q 288.094862 117.268353 288.087794 117.909797 C 288.073658 119.560235 288.230926 121.779666 288.170846 123.620947 Q 288.064822 126.791059 288.073658 127.047283 Q 288.093095 127.568567 287.98177 128.381416 C 287.868678 129.201333 287.974702 129.911693 287.808598 130.726309 C 287.681369 131.343014 287.805064 131.97739 287.630125 132.583493 C 287.490527 133.064134 287.628358 133.77096 287.458719 134.258669 C 287.350929 134.564371 287.391571 135.020274 287.340326 135.373686 Q 286.682979 139.94508 286.135189 142.422503 Q 284.53953 149.63389 282.590459 155.975881 Q 280.890544 161.508557 280.0989 164.740516 Q 279.840908 165.784851 279.422114 168.338257 Q 279.222436 169.557531 279.224203 170.859857 Q 279.229504 172.909651 279.273681 173.392059 Q 279.326693 173.948684 279.618258 174.841051 Q 280.028217 176.092132 281.017773 176.890845 Q 281.567329 177.332611 282.290058 177.385623 C 283.339694 177.463374 284.249732 177.198314 284.871738 176.348357 C 285.490211 175.501933 285.377119 174.45053 284.475916 173.810853 C 284.429972 173.779046 284.375194 173.759609 284.320415 173.756074 Q 283.698408 173.729568 283.641862 173.763143 C 282.791905 174.234949 283.43865 174.832216 283.124112 175.411813 C 283.099374 175.45599 283.055197 175.487797 283.005719 175.494865 Q 282.489737 175.567315 282.327167 175.48603 Q 281.683956 175.167958 281.562028 174.408121 Q 281.364117 173.185313 282.244115 172.365395 Q 282.975679 171.683309 284.111901 171.605558 Q 285.092621 171.536643 286.043302 172.197524 Q 287.730847 173.370855 287.532936 175.685708 C 287.527635 175.740487 287.515265 175.795266 287.494061 175.846511 Q 287.412776 176.046189 287.368599 176.381931 C 287.357997 176.457915 287.336792 176.532131 287.306752 176.602814 Q 286.921532 177.484579 286.165229 178.29036 Q 285.712861 178.772768 285.362982 178.974213 Q 285.196878 179.069635 284.437041 179.495497 Z M 287.18129 60.215171 C 287.209563 60.229308 287.243138 60.220473 287.259041 60.195734 C 287.276712 60.169228 287.273178 60.135654 287.250206 60.114449 Q 287.094704 59.973084 287.025789 59.856458 C 286.995749 59.80698 286.960408 59.76457 286.917998 59.727462 C 285.953181 58.907544 284.871738 58.186582 283.698408 57.85084 Q 283.551742 57.808431 282.756563 57.564576 Q 280.662593 56.923132 276.684933 56.165062 Q 272.387434 55.346911 267.877888 54.767314 C 266.930742 54.645387 266.200945 54.636552 265.322714 54.466914 Q 264.654764 54.337918 263.40545 54.279605 Q 262.760472 54.247798 261.74441 54.101131 Q 260.809634 53.965068 260.085138 53.947397 Q 258.728033 53.91559 257.284342 53.768924 C 255.038404 53.542739 253.329654 53.622257 251.053676 53.477358 C 248.692879 53.327158 246.800354 53.369567 243.439399 53.383704 Q 240.926634 53.394306 239.613706 53.482659 C 237.791864 53.604587 235.998294 53.567478 234.194122 53.703542 C 232.674447 53.820168 232.131959 53.88555 230.382566 53.968602 Q 229.11028 54.026915 227.931649 54.221292 C 227.253096 54.332617 226.512697 54.260167 225.811173 54.389163 Q 225.348202 54.475749 224.001699 54.620648 C 222.181624 54.818559 220.843957 55.030607 218.506132 55.355747 Q 218.313522 55.382253 217.209107 55.574862 Q 216.290234 55.735665 215.913849 55.785143 Q 213.130724 56.147391 207.730578 57.518632 Q 206.007691 57.955097 204.723036 58.714934 C 204.157575 59.050677 203.491392 59.582563 203.070831 60.07734 C 203.046092 60.107381 203.046092 60.14979 203.070831 60.178063 C 203.09557 60.208103 203.13798 60.213404 203.171554 60.193967 Q 204.703598 59.25919 206.684476 58.737906 Q 211.47852 57.476223 216.523486 56.776466 C 217.081878 56.698715 217.949507 56.518474 218.686372 56.430121 Q 220.13183 56.256949 220.319139 56.230443 Q 222.628691 55.905303 225.448924 55.610204 Q 227.587071 55.387554 227.740806 55.376951 Q 229.094377 55.288598 230.034454 55.166671 Q 231.260797 55.009402 232.48007 54.995266 Q 233.662236 54.981129 234.929221 54.889242 Q 237.657567 54.693098 238.783186 54.675427 Q 242.357956 54.617114 250.905242 54.645387 Q 252.986843 54.652455 255.114388 54.792053 Q 258.379921 55.004101 259.318232 55.025306 Q 259.735259 55.034141 261.362725 55.244422 Q 261.763848 55.295666 262.907138 55.359281 Q 263.370109 55.38402 264.455086 55.502413 Q 272.617152 56.387712 280.215526 57.928591 Q 282.827246 58.45871 284.500655 59.008267 Q 285.889567 59.465936 286.274787 59.732763 Q 286.396714 59.817582 287.18129 60.215171 Z M 245.190559 63.908334 C 253.803227 63.901266 262.428264 64.57275 270.950812 65.829132 C 271.093944 65.850337 271.1982 65.696603 271.125751 65.571141 L 271.035631 65.413872 C 270.968482 65.297246 270.853623 65.215961 270.721093 65.189455 Q 267.803671 64.613393 265.335083 64.286486 Q 255.294628 62.957654 245.190559 62.964722 Q 235.086489 62.971791 225.047801 64.316526 Q 222.579213 64.6452 219.661791 65.226564 C 219.531029 65.251303 219.416169 65.334355 219.349021 65.450981 L 219.258901 65.608249 C 219.186451 65.733711 219.290708 65.887446 219.43384 65.866241 C 227.954621 64.597489 236.579658 63.913635 245.190559 63.908334 Z M 217.334569 68.988642 Q 216.435133 67.891296 215.210558 67.30463 Q 214.710479 67.06431 214.274014 66.972423 Q 214.153854 66.947684 213.3198 66.684391 C 213.181969 66.641982 213.072411 66.801017 213.160764 66.914109 Q 214.173292 68.202299 214.904856 69.86864 Q 216.963485 74.561961 216.661317 79.796003 Q 216.412161 84.150048 215.261803 88.514695 Q 213.800441 94.068575 212.727834 98.297159 Q 211.282376 103.997706 210.550811 109.821947 C 210.499567 110.233673 210.526073 110.549977 210.430651 110.887487 C 210.324627 111.260337 210.326394 111.765717 210.32286 112.165073 C 210.32286 112.242824 210.314025 112.318808 210.294587 112.394792 C 210.109046 113.165231 210.193865 114.043462 210.08254 114.778561 C 209.925271 115.817594 210.008323 117.102249 209.914669 118.261443 C 209.776838 119.956057 209.810412 121.473964 209.808645 124.025604 C 209.806878 125.52054 210.024227 127.19925 209.990652 128.512179 C 209.971215 129.266715 210.158523 129.954102 210.153222 130.71394 C 210.149688 131.424299 210.349366 132.185904 210.347599 133.049998 C 210.345832 133.15072 210.358202 133.251443 210.384707 133.348632 Q 210.430651 133.521804 210.444788 133.643731 Q 211.096834 139.496246 211.816029 143.067481 Q 212.99466 148.919996 215.224695 157.19162 Q 216.295535 161.158678 216.663084 165.353687 Q 216.70196 165.811357 216.691357 167.967174 C 216.687823 168.792393 216.576498 169.322512 216.456338 170.308533 Q 216.329109 171.331663 216.161238 172.050858 Q 215.470316 175.026593 213.954176 177.71253 C 213.902931 177.804417 213.998353 177.908674 214.093774 177.864497 Q 215.779553 177.081688 217.182601 175.871249 C 217.352239 175.724583 217.608463 175.754623 217.739226 175.936631 C 218.078502 176.410204 218.474325 177.060483 218.962034 177.428032 C 220.008136 178.219677 221.268052 178.604897 222.648129 178.961844 C 223.409733 179.159755 223.906278 179.317023 224.471738 179.42128 Q 225.254547 179.566179 225.470129 179.631561 C 225.961373 179.783528 226.440247 179.792364 227.058719 179.931962 Q 227.693095 180.076861 228.255021 180.13164 C 228.965381 180.200555 229.767628 180.426739 230.516863 180.47445 Q 231.128267 180.515093 232.089549 180.675895 Q 232.699186 180.778385 233.662236 180.824329 Q 234.593478 180.866738 235.521187 180.985131 Q 235.351549 180.969228 235.192513 180.999268 C 235.188979 180.999268 235.185445 181.002802 235.185445 181.008103 C 235.187212 181.011637 235.190746 181.015172 235.19428 181.015172 L 236.316365 181.048746 L 237.786562 181.168906 Q 238.712504 181.333243 239.641979 181.223685 Q 244.367107 181.412761 249.11344 181.283765 Q 249.359062 181.276697 249.609985 181.267862 Q 252.640499 181.168906 255.573824 180.951557 Q 258.659117 180.721839 261.603045 180.209391 Q 261.740876 180.184652 265.453477 179.552043 Q 267.23291 179.249875 270.194508 178.20554 Q 271.791934 177.643614 272.595948 175.977273 C 272.620687 175.927796 272.657795 175.887153 272.705506 175.85888 Q 273.025344 175.67864 273.332813 175.96137 Q 274.617468 177.140001 276.177786 177.894537 C 276.359793 177.98289 276.538267 177.769076 276.419873 177.606506 Q 276.041722 177.083455 275.732486 176.473818 Q 274.84542 174.717357 274.403654 172.856639 Q 274.218112 172.075597 274.023735 171.211503 C 273.921245 170.752066 273.970723 170.248453 273.834659 169.822591 C 273.811687 169.755442 273.799318 169.686527 273.797551 169.615844 C 273.76221 168.453117 273.589037 167.131353 273.652652 165.940352 Q 273.832892 162.536988 274.29763 160.400608 Q 275.069837 156.845276 276.368628 152.187296 Q 277.766376 147.174137 279.026292 140.128855 Q 279.492797 137.520669 279.92396 133.479394 Q 280.029984 132.470401 280.072394 132.180603 Q 280.166048 131.53209 280.187253 130.878277 Q 280.190787 130.766952 280.245566 130.475386 C 280.325084 130.04599 280.30918 129.651935 280.316248 128.885029 Q 280.319783 128.563423 280.420505 127.697562 Q 280.510625 126.932424 280.517694 126.154916 L 280.600746 121.214206 Q 280.598979 121.198302 280.597212 121.182399 L 280.510625 117.660641 Q 280.519461 116.911406 280.424039 116.178075 Q 280.319783 115.38643 280.314481 115.059524 C 280.298578 114.292618 280.332152 113.967478 280.197855 113.458564 Q 280.134241 113.216476 280.137775 112.981457 Q 280.148377 112.327643 280.003478 111.659693 Q 279.998177 111.640256 279.952233 111.239132 Q 279.374404 106.187097 278.107419 100.454743 C 276.812161 94.589859 274.709356 88.622485 273.889438 82.667481 C 273.753374 81.677926 273.816989 80.810297 273.70213 79.963874 Q 273.594339 79.152792 273.673856 77.929984 Q 273.80992 75.797138 273.832892 75.595693 Q 274.20751 72.346063 275.373772 69.843901 Q 276.131842 68.218202 277.229188 66.958286 C 277.328144 66.845194 277.206217 66.673789 277.066619 66.733869 Q 276.707905 66.885836 276.292645 66.963587 Q 275.76606 67.062543 275.516904 67.149129 Q 274.000763 67.673947 273.062452 68.765992 Q 272.958196 68.324226 272.627755 67.776436 Q 272.32382 67.271056 271.779564 67.210976 Q 267.764796 66.776278 264.42858 66.437002 Q 261.542965 66.14367 257.052857 65.924554 Q 245.858509 65.376764 233.619826 65.919253 Q 228.746265 66.136601 224.429329 66.594271 Q 221.222108 66.935314 219.126371 67.145595 C 217.945973 67.262221 217.617299 67.979649 217.334569 68.988642 Z M 212.187112 69.255469 Q 212.222454 69.269605 212.233056 69.269605 C 212.254261 69.269605 212.26663 69.244866 212.256028 69.227196 Q 212.23659 69.191854 212.208317 69.186553 C 212.190646 69.183019 212.172976 69.195389 212.167675 69.211292 C 212.162373 69.228963 212.169442 69.2484 212.187112 69.255469 Z M 278.167499 176.028518 L 277.883002 175.494865 C 277.867098 175.464825 277.858263 175.431251 277.852962 175.397676 C 277.789348 174.927638 277.469509 174.491173 277.492481 174.114788 Q 277.501316 173.971656 277.292803 173.183546 Q 277.186779 172.780655 277.124932 172.250536 Q 276.771519 169.147573 277.024209 166.373283 Q 277.280433 163.553049 278.225812 159.633702 Q 278.669345 157.797723 280.540666 151.08995 Q 280.9895 149.478388 282.184035 144.170129 C 282.86082 141.16082 283.353831 138.022515 283.636561 135.177542 Q 283.753187 134.013048 283.799131 133.838108 C 283.825637 133.742687 283.838006 133.645498 283.838006 133.546543 Q 283.827404 132.611766 283.910456 131.915543 Q 284.020014 131.010807 284.021781 130.326953 Q 284.050054 121.313162 284.020014 113.370211 C 284.020014 113.110452 283.940496 112.755273 283.878649 112.438968 C 283.862745 112.364752 283.857444 112.288768 283.860978 112.214551 Q 283.885717 111.5413 283.714312 110.04283 Q 283.136482 104.989028 282.339536 101.219882 Q 281.25986 96.113068 279.982273 91.690108 C 278.614566 86.956145 277.580834 83.669406 276.928788 79.391345 Q 276.769752 78.352312 276.762684 77.163078 Q 276.752081 75.063807 276.759149 74.924209 Q 276.859872 72.63056 277.625011 70.559562 Q 277.692159 70.377554 278.162198 69.511693 C 278.186937 69.467516 278.186937 69.41097 278.160431 69.365027 L 278.128624 69.310248 C 278.096817 69.255469 278.019066 69.250167 277.98019 69.301412 C 277.819388 69.515227 277.626778 69.707837 277.48718 69.953459 Q 276.598347 71.494338 276.227263 73.355056 C 276.073529 74.130797 275.872084 75.53738 275.889754 76.514566 Q 275.955136 80.129978 276.820997 83.671173 Q 277.451838 86.245785 278.349507 89.29397 Q 279.422114 92.942956 280.524762 97.456036 Q 281.957851 103.331523 282.694716 110.178894 Q 282.781302 110.991743 282.78837 111.177285 C 282.821945 112.256961 282.973912 113.223545 282.965077 114.439284 C 282.961543 115.045387 283.124112 115.504824 283.129414 116.132131 Q 283.175357 122.133079 283.132948 128.081015 C 283.127647 128.589929 282.968611 129.192498 282.973912 129.61836 Q 282.989816 131.092091 282.843149 132.304297 Q 282.777768 132.852087 282.783069 133.198431 C 282.797206 133.960036 282.636403 134.606781 282.574556 135.398425 Q 282.449094 136.988783 282.069176 139.407893 Q 281.487812 143.095754 281.01954 145.164986 C 279.874483 150.225856 279.132316 152.795166 277.446537 159.082378 Q 276.937623 160.976671 276.37393 164.567344 Q 276.2414 165.410233 276.232565 165.880272 C 276.21136 167.004124 276.029352 168.089101 276.092967 169.170544 Q 276.214894 171.298089 276.707905 173.268365 C 276.886378 173.984026 277.206217 174.646674 277.510152 175.318159 C 277.651517 175.629162 277.814086 175.75639 277.939548 176.148678 C 277.955452 176.20169 278.017299 176.224662 278.065009 176.196389 L 278.128624 176.159281 C 278.174567 176.134542 278.192238 176.076229 278.167499 176.028518 Z M 213.13956 172.508527 Q 212.837392 174.501775 211.959161 176.307714 C 211.941491 176.344823 211.964462 176.388999 212.005105 176.396067 L 212.072253 176.408437 C 212.089924 176.411971 212.107594 176.403136 212.11643 176.387232 L 212.720766 175.284584 Q 212.745504 175.275749 212.766709 175.273982 C 212.777312 175.272215 212.782613 175.259845 212.777312 175.25101 Q 212.766709 175.231572 212.752573 175.210368 Q 212.8745 175.001854 212.897472 174.802176 L 212.931046 174.71559 L 213.291527 173.950451 Q 213.367511 173.793183 213.372812 173.614709 L 213.484137 173.254228 L 213.508876 173.139369 Q 213.60253 172.95206 213.63257 172.524431 Q 213.719156 172.367162 213.729759 171.884754 Q 213.77747 171.782264 213.768634 171.62853 Q 213.773935 171.584353 213.816345 171.566683 C 213.819879 171.564916 213.821646 171.561381 213.821646 171.557847 L 214.042529 170.153032 C 214.044296 170.147731 214.044296 170.144196 214.044296 170.138895 Q 214.083172 168.891348 214.046063 166.762037 C 214.037228 166.185974 213.881726 165.730072 213.871124 165.162844 Q 213.865823 164.754653 213.738594 163.961241 Q 213.250885 160.884783 212.353216 157.640455 Q 211.049123 152.922395 209.872259 148.061203 Q 208.352584 141.788127 207.719976 135.170474 C 207.670498 134.654492 207.682867 134.080196 207.559173 133.527105 C 207.536201 133.426382 207.523832 133.32566 207.522064 133.221403 C 207.506161 132.519879 207.527366 131.896105 207.421342 131.134501 C 207.302949 130.289845 207.378932 129.443421 207.299414 128.612901 C 207.234033 127.913144 207.165118 127.15154 207.159816 126.253871 Q 207.138612 122.548339 207.159816 117.556384 C 207.165118 116.34948 207.373631 115.08603 207.340057 113.824346 C 207.334756 113.633503 207.350659 113.440893 207.387768 113.253585 C 207.573309 112.318808 207.449615 111.262104 207.619253 110.217769 Q 207.674032 109.88026 207.746482 108.940182 Q 207.972666 105.976817 208.893306 101.212813 Q 209.501176 98.070974 210.701012 93.439501 C 211.549202 90.161598 213.514177 84.273742 214.084939 79.873754 Q 214.40301 77.419302 214.376504 76.733682 Q 214.265179 73.943488 213.848152 72.558111 Q 213.429358 71.169199 213.033536 70.338679 Q 212.747271 69.737877 212.332012 69.304946 C 212.303739 69.276673 212.259562 69.271372 212.225988 69.294344 C 212.194181 69.317316 212.181811 69.361492 212.199482 69.396834 Q 213.325101 71.754097 213.480603 74.445334 Q 213.696185 78.182674 212.906307 81.824592 Q 212.153538 85.300406 211.116272 88.6861 Q 208.760776 96.378127 207.412507 103.946461 Q 206.944235 106.572317 206.486565 111.331019 C 206.419417 112.032544 206.488332 112.628044 206.391144 113.258886 Q 206.288654 113.93037 206.281586 114.702577 Q 206.256847 117.141125 206.283353 119.429472 C 206.322228 122.907053 206.251546 126.577244 206.286887 129.796834 C 206.295722 130.599081 206.46536 131.277633 206.445923 132.071045 Q 206.431786 132.65771 206.55018 133.779795 Q 206.6403 134.652725 206.785199 135.891436 Q 207.387768 141.042426 208.283669 145.369965 C 209.151297 149.559673 210.276917 153.399502 211.56864 158.241256 C 212.270164 160.870647 212.923978 163.639635 213.118355 165.92975 C 213.28976 167.954805 213.448796 170.356244 213.13956 172.508527 Z M 278.111236 176.215138 C 278.072078 176.251168 278.091515 176.332453 278.151172 176.396244 C 278.211676 176.459682 278.291194 176.482653 278.329786 176.446234 C 278.368944 176.410204 278.349507 176.328919 278.289851 176.265128 C 278.229346 176.20169 278.149829 176.178719 278.111236 176.215138 Z M 285.852459 185.945279 Q 286.594625 185.47524 287.135347 184.791386 Q 287.28378 184.655323 287.347394 184.51219 C 287.366832 184.468014 287.31382 184.427371 287.274945 184.457411 Q 287.259041 184.469781 287.241371 184.489219 Q 287.126511 184.517492 287.105307 184.607612 L 285.362982 185.63781 Q 283.007486 186.542546 280.598979 187.185758 Q 277.26453 188.074591 276.059392 188.346718 Q 266.397089 190.530809 255.969647 191.258839 Q 244.812407 192.038114 234.30368 191.242936 C 225.493101 190.574985 217.615532 189.304467 209.577159 187.139814 Q 207.357728 186.542546 204.905043 185.593633 L 204.141672 185.203112 Q 204.092194 185.075884 203.975568 185.107691 Q 203.959664 185.097088 203.945528 185.088253 Q 203.804163 184.962792 203.590348 184.877973 Q 203.528501 184.771949 203.394204 184.76488 L 202.954205 184.333717 C 202.925932 184.305444 202.876454 184.321347 202.869386 184.360223 L 202.851715 184.453877 C 202.849948 184.462713 202.853483 184.471548 202.858784 184.478616 Q 204.555165 186.413551 206.649135 187.185758 Q 209.585995 188.270735 213.130724 189.141897 Q 220.534721 190.965507 228.429961 191.873777 Q 240.115552 193.22028 252.105078 192.674257 C 261.838065 192.232491 271.454425 190.841812 280.825163 188.166478 Q 281.950782 187.846639 283.636561 187.233468 Q 284.871738 186.786401 285.852459 185.945279 Z" style="fill:#211d1c;"/>
		<path d="M 245.190559 62.964722 Q 255.294628 62.957654 265.335083 64.286486 Q 267.803671 64.613393 270.721093 65.189455 C 270.853623 65.215961 270.968482 65.297246 271.035631 65.413872 L 271.125751 65.571141 C 271.1982 65.696603 271.093944 65.850337 270.950812 65.829132 C 262.428264 64.57275 253.803227 63.901266 245.190559 63.908334 C 236.579658 63.913635 227.954621 64.597489 219.43384 65.866241 C 219.290708 65.887446 219.186451 65.733711 219.258901 65.608249 L 219.349021 65.450981 C 219.416169 65.334355 219.531029 65.251303 219.661791 65.226564 Q 222.579213 64.6452 225.047801 64.316526 Q 235.086489 62.971791 245.190559 62.964722 Z" style="fill:#ffce5e;"/>
		<path d="M 273.062452 68.765992 L 272.868076 69.587677 C 272.855706 69.63362 272.832734 69.67603 272.797393 69.711371 Q 272.603016 69.907515 272.337956 70.006471 Q 271.221172 69.331452 269.865834 69.02575 C 268.11114 68.633462 266.90777 68.329527 265.398698 68.140452 Q 261.28144 67.624469 259.153895 67.444229 Q 243.015303 66.080055 226.606351 67.965512 Q 223.392062 68.334829 220.540022 68.956835 Q 219.265969 69.234264 217.94774 69.939322 Q 217.551917 69.720206 217.475934 69.463982 Q 217.396416 69.197156 217.334569 68.988642 C 217.617299 67.979649 217.945973 67.262221 219.126371 67.145595 Q 221.222108 66.935314 224.429329 66.594271 Q 228.746265 66.136601 233.619826 65.919253 Q 245.858509 65.376764 257.052857 65.924554 Q 261.542965 66.14367 264.42858 66.437002 Q 267.764796 66.776278 271.779564 67.210976 Q 272.32382 67.271056 272.627755 67.776436 Q 272.958196 68.324226 273.062452 68.765992 Z" style="fill:#ffce5e;"/>
		<path d="M 272.337956 70.006471 Q 271.562216 69.939322 270.818282 69.743178 Q 269.929449 69.509926 269.581337 69.458681 C 268.897484 69.356191 268.128811 69.114104 267.384877 69.138842 C 267.259416 69.142377 267.181665 69.276673 267.238211 69.387998 Q 267.727688 70.354582 268.017486 71.275222 Q 268.844472 73.901079 268.987604 76.383803 Q 269.037082 77.217857 268.991138 79.861384 C 268.989371 79.946203 268.980536 80.029255 268.962865 80.11054 C 268.842705 80.649495 268.840938 81.202586 268.763187 81.727403 Q 268.185357 85.600807 266.868895 89.05895 Q 265.946487 91.479827 264.580547 94.091547 Q 264.460387 94.319498 263.124487 96.545999 Q 262.332842 97.862461 261.562403 98.933301 Q 259.452529 101.863093 258.425865 103.089435 Q 256.452055 105.444931 255.648041 106.362037 Q 252.283552 110.198332 251.818814 110.795599 Q 250.080024 113.022099 249.069263 114.624826 Q 248.592156 115.381129 247.736897 117.045703 C 247.611436 117.287791 247.4524 117.441525 247.432962 117.692448 C 247.427661 117.756063 247.406456 117.81791 247.371115 117.870922 Q 247.088385 118.305619 246.932883 119.008911 Q 246.810956 118.535338 246.885173 118.219033 C 247.874728 113.981615 250.099461 110.571182 252.926763 106.909826 Q 252.997446 106.816172 256.851411 101.962048 Q 260.074535 97.90487 262.64738 93.526087 Q 263.603361 91.898621 264.77139 88.975898 Q 264.826169 88.8363 264.859743 88.435177 C 264.866812 88.346824 264.852675 88.25847 264.819101 88.175418 Q 264.585849 87.617026 264.126412 87.38024 Q 264.919824 84.892214 265.236128 82.418325 Q 265.280305 82.071981 265.437573 80.713109 Q 265.52946 79.919697 265.396931 77.937052 Q 265.328015 76.913922 264.912755 74.980755 C 264.456853 72.867347 263.340069 70.614341 261.806258 69.161814 Q 261.498788 68.870249 260.852043 68.518603 C 260.772525 68.476194 260.684172 68.449688 260.594052 68.444386 Q 260.214133 68.423182 259.779436 68.315391 C 259.696384 68.295953 259.613332 68.283584 259.528513 68.28005 Q 255.990851 68.122781 254.115997 68.143986 Q 247.570793 68.216435 239.758605 68.140452 Q 235.049381 68.094508 230.893247 68.265913 C 230.813729 68.269447 230.734212 68.28005 230.654694 68.29772 C 229.833009 68.476194 229.195099 68.437318 228.486507 69.130007 Q 227.505786 70.09129 226.72121 71.473133 Q 225.807638 73.086463 225.383543 74.98959 C 225.316395 75.289991 225.183865 75.655773 225.167961 76.094005 C 225.16266 76.279546 225.058403 76.493361 225.049568 76.60822 C 224.964749 77.66139 224.864026 78.228618 224.883464 79.135121 Q 224.925874 81.008209 225.183865 83.052701 Q 225.302258 83.983944 225.634466 85.339281 Q 225.835911 86.162733 226.129244 87.026827 L 225.507238 87.5004 C 225.371174 87.604657 225.302258 87.772528 225.323463 87.942166 Q 225.39768 88.532365 225.632699 89.184412 Q 226.182256 90.704086 227.092294 92.365126 C 229.552046 96.855235 232.858222 101.173938 236.159097 105.218747 C 238.830897 108.494882 241.069766 111.709171 242.711369 115.441209 Q 243.47474 117.176466 243.647912 118.864011 Q 243.177873 117.957508 242.743176 117.096948 Q 242.191852 116.00667 241.781893 115.359924 Q 240.013062 112.559129 237.906723 109.993352 Q 236.793473 108.638015 236.668011 108.493115 Q 234.650025 106.178262 232.146095 103.213129 C 229.566183 100.157876 227.32908 96.890576 225.47543 93.439501 C 224.894067 92.356291 224.459369 91.31549 223.870937 89.997261 Q 223.609411 89.408829 223.312545 88.581843 Q 222.287648 85.728035 221.72042 82.678084 C 221.6303 82.193908 221.686846 81.706199 221.534879 81.310376 C 221.49777 81.214955 221.478333 81.112465 221.4801 81.009976 Q 221.483634 80.403873 221.400582 79.893191 C 221.252148 78.970784 221.273353 77.7038 221.312229 77.044685 Q 221.386445 75.791837 221.655039 73.909914 Q 221.893593 72.247107 222.718811 70.184944 C 222.738249 70.137233 222.762988 70.09129 222.793028 70.047113 Q 223.052786 69.677797 223.104031 69.310248 C 223.118168 69.209525 223.031581 69.122939 222.929092 69.137075 L 220.031108 69.562938 C 220.006369 69.566472 219.983397 69.571773 219.960425 69.580608 Q 218.981472 69.946391 217.94774 69.939322 Q 219.265969 69.234264 220.540022 68.956835 Q 223.392062 68.334829 226.606351 67.965512 Q 243.015303 66.080055 259.153895 67.444229 Q 261.28144 67.624469 265.398698 68.140452 C 266.90777 68.329527 268.11114 68.633462 269.865834 69.02575 Q 271.221172 69.331452 272.337956 70.006471 Z" style="fill:#211d1c;"/>
		<path d="M 212.187112 69.255469 C 212.169442 69.2484 212.162373 69.228963 212.167675 69.211292 C 212.172976 69.195389 212.190646 69.183019 212.208317 69.186553 Q 212.23659 69.191854 212.256028 69.227196 C 212.26663 69.244866 212.254261 69.269605 212.233056 69.269605 Q 212.222454 69.269605 212.187112 69.255469 Z" style="fill:#ffce5e;"/>
		<path d="M 264.126412 87.38024 Q 264.585849 87.617026 264.819101 88.175418 C 264.852675 88.25847 264.866812 88.346824 264.859743 88.435177 Q 264.826169 88.8363 264.77139 88.975898 Q 263.603361 91.898621 262.64738 93.526087 Q 260.074535 97.90487 256.851411 101.962048 Q 252.997446 106.816172 252.926763 106.909826 C 250.099461 110.571182 247.874728 113.981615 246.885173 118.219033 Q 246.810956 118.535338 246.932883 119.008911 L 247.915371 119.966659 C 247.952479 120.002 248.010792 120.000233 248.046133 119.963125 Q 248.173362 119.828828 248.185731 119.645054 L 248.450791 122.889382 L 247.144931 124.516848 C 247.12726 124.53982 247.104289 124.55749 247.07955 124.56986 L 246.298508 124.948011 L 244.181565 124.919738 Q 242.978195 124.221748 242.050487 122.802796 Q 242.039884 121.70545 242.151209 120.692922 Q 242.183017 120.396056 242.326149 120.002 Q 242.847432 119.710435 243.271528 119.342886 Q 243.487109 119.157344 243.647912 118.864011 Q 243.47474 117.176466 242.711369 115.441209 C 241.069766 111.709171 238.830897 108.494882 236.159097 105.218747 C 232.858222 101.173938 229.552046 96.855235 227.092294 92.365126 Q 226.182256 90.704086 225.632699 89.184412 Q 225.39768 88.532365 225.323463 87.942166 C 225.302258 87.772528 225.371174 87.604657 225.507238 87.5004 L 226.129244 87.026827 Q 227.348518 86.221046 228.419358 85.853497 Q 230.872043 85.012375 233.324727 84.759684 Q 234.547535 84.634223 234.642956 84.618319 Q 235.388657 84.491091 235.957652 84.498159 C 236.804075 84.508761 237.606322 84.351493 238.569372 84.34089 Q 240.889526 84.312617 244.089678 84.339123 C 245.234735 84.347959 246.33915 84.506994 247.657379 84.517597 C 247.804046 84.519364 247.948945 84.5335 248.093844 84.560006 C 248.934966 84.715508 249.742514 84.644825 250.550063 84.784423 Q 250.922913 84.849805 251.765802 84.862174 C 251.882428 84.863941 251.997288 84.881612 252.11038 84.911652 C 252.665238 85.063619 253.35616 84.982334 253.854471 85.137836 C 254.165475 85.235025 254.536558 85.194382 254.909408 85.249161 Q 256.711813 85.515988 258.136066 85.74924 Q 261.193086 86.252853 262.527219 86.706989 Q 262.914206 86.839518 264.126412 87.38024 Z" style="fill:#ffce5e;"/>
		<path d="M 248.450791 122.889382 L 248.185731 119.645054 L 248.597457 118.436382 Q 248.600991 118.427547 248.604526 118.418711 Q 249.327255 117.013896 249.585246 116.642813 Q 250.474079 115.354623 251.991986 113.57519 Q 252.437286 113.052139 252.953269 112.620976 C 253.006281 112.576799 253.089333 112.612141 253.092867 112.681056 Q 253.096401 112.765875 253.023952 112.845393 Q 250.276168 115.840566 249.392636 119.680395 C 248.911995 121.770831 249.337857 124.182873 250.131268 126.161984 C 250.143638 126.190257 250.131268 126.223831 250.102995 126.239735 C 250.07649 126.253871 250.041148 126.246803 250.023478 126.220297 Q 249.346692 125.257248 248.867818 124.000865 Q 248.696413 123.550264 248.450791 122.889382 Z" style="fill:#211d1c;"/>
		<path d="M 242.326149 120.002 Q 242.183017 120.396056 242.151209 120.692922 Q 242.039884 121.70545 242.050487 122.802796 Q 241.444384 124.728895 240.37531 126.211462 Q 240.316997 126.292747 240.253383 126.306883 C 240.216275 126.315719 240.186235 126.27861 240.202138 126.243269 Q 241.112176 124.202311 241.24824 121.887457 C 241.437316 118.697908 239.668485 115.460647 237.555077 113.043304 C 237.516202 112.999127 237.528571 112.928445 237.579816 112.900172 L 237.627527 112.871899 C 237.654033 112.855995 237.689374 112.861297 237.710579 112.882501 Q 239.011137 114.24314 240.467198 116.185143 Q 241.787194 117.946905 242.326149 120.002 Z" style="fill:#211d1c;"/>
		<path d="M 280.597212 121.182399 Q 280.588376 121.164728 280.579541 121.145291 L 280.56187 120.90497 L 280.510625 117.660641 L 280.597212 121.182399 Z" style="fill:#ffce5e;"/>
		<path d="M 280.579541 121.145291 Q 280.53183 121.042801 280.56187 120.90497 L 280.579541 121.145291 Z" style="fill:#211d1c;"/>
		<path d="M 280.517694 126.154916 L 280.537131 122.71621 L 280.542433 122.597817 L 280.600746 121.214206 L 280.517694 126.154916 Z" style="fill:#ffce5e;"/>
		<path d="M 280.542433 122.597817 L 280.537131 122.71621 Q 280.57424 122.647295 280.542433 122.597817 Z" style="fill:#211d1c;"/>
		<path d="M 246.298508 124.948011 Q 246.197785 126.271542 246.104131 127.628647 C 246.015777 128.909768 246.042283 130.217395 245.999874 131.51442 Q 245.851441 135.933846 245.865577 139.687089 Q 245.890316 146.541528 245.86381 153.661027 Q 245.151683 153.247535 244.626865 153.675164 Q 244.607428 142.270536 244.614496 131.323577 Q 244.616263 130.463017 244.51554 129.607758 C 244.390079 128.53515 244.487267 127.549129 244.340601 126.402305 Q 244.246947 125.667206 244.181565 124.919738 L 246.298508 124.948011 Z" style="fill:#211d1c;"/>
		<path d="M 264.179424 177.74257 Q 263.624566 177.83269 262.023606 178.170199 Q 260.609955 178.4706 257.849802 178.850519 L 257.848035 178.850519 C 257.885143 178.854053 257.918718 178.861121 257.954059 178.871723 C 256.91856 179.062566 255.953743 179.099675 254.990693 179.225136 Q 253.933989 179.362967 253.393268 179.396541 Q 249.91392 179.615657 248.284687 179.698709 C 245.342526 179.852444 241.774825 179.681039 238.14881 179.444252 Q 237.100942 179.377104 236.250984 179.274614 Q 234.46625 179.060799 234.354925 179.062566 Q 233.805368 179.071402 232.716857 178.857587 Q 231.941116 178.705619 231.048749 178.666744 C 231.045215 178.664977 231.041681 178.664977 231.036379 178.664977 L 229.004256 178.304496 C 228.997188 178.302729 228.99012 178.300962 228.984819 178.299195 C 228.392852 178.09775 227.595907 178.023533 227.032213 177.887469 Q 225.261616 177.461607 223.60411 176.927954 Q 223.257766 176.816628 222.872546 176.562171 Q 221.91303 175.93133 222.204596 174.825148 C 222.291182 174.494707 222.453752 174.378081 222.648129 174.148362 C 222.699374 174.090049 222.724112 174.012299 222.715277 173.934548 C 222.669333 173.519288 222.40074 173.17471 222.361864 172.794792 C 222.315921 172.342424 222.054395 171.769895 221.997849 171.264515 Q 221.934235 170.691986 221.692147 169.631748 C 221.67271 169.548696 221.663874 169.465644 221.662107 169.379058 Q 221.656806 168.624522 221.52781 168.21633 C 221.503072 168.135045 221.488935 168.050226 221.487168 167.965407 Q 221.469497 167.242678 221.37761 165.445574 Q 221.351104 164.933126 221.513674 162.671285 Q 221.624999 161.144542 221.868854 159.921734 Q 222.694072 155.77797 224.123627 152.58842 Q 226.129244 148.108914 229.041365 144.074708 Q 231.234291 141.038892 232.769869 139.188777 Q 235.888736 135.432 237.304154 133.700277 Q 239.166639 131.420765 240.993783 128.687118 Q 241.30832 128.217079 242.771449 125.584154 C 242.801489 125.531142 242.820926 125.471062 242.833296 125.410982 Q 242.884541 125.152991 242.974661 125.018694 C 243.057713 124.893232 243.253857 124.960381 243.243255 125.110581 L 243.190243 125.836844 C 243.186709 125.884555 243.172572 125.930499 243.1496 125.972908 Q 243.063014 126.121342 242.757312 127.239893 Q 242.280205 128.973382 241.062698 131.233457 Q 240.051938 133.104777 238.405035 135.375454 Q 235.075887 139.964518 234.842634 140.245481 Q 234.674763 140.446926 233.114446 142.715836 C 231.460475 145.119042 230.00088 147.764336 228.809879 150.416699 Q 226.049726 156.555478 225.378242 162.777308 Q 225.32523 163.27562 225.314628 165.224691 Q 225.134387 165.579871 224.904669 166.002199 C 223.98933 167.684444 224.94001 170.559456 225.708683 172.199291 C 226.949161 174.853421 229.136786 176.692934 232.054208 177.304338 Q 234.220628 177.756706 236.666244 177.99526 Q 245.111041 178.818712 253.541701 178.041204 Q 255.665712 177.845059 257.798557 177.426265 C 261.355656 176.728275 263.573321 174.823381 264.992273 171.497767 Q 265.798054 169.607009 265.833395 167.610227 Q 265.843998 167.009426 265.707934 166.578262 Q 265.520625 165.982762 265.048819 165.17168 Q 265.147775 164.445416 265.043518 163.79337 C 264.941028 163.146625 264.964 162.565261 264.930426 162.194177 C 264.923358 162.118194 264.907454 162.04221 264.884482 161.96976 C 264.743117 161.522693 264.781993 161.073859 264.700708 160.609121 Q 263.649305 154.618776 261.002244 149.227465 Q 259.629235 146.433737 258.252693 144.297358 Q 255.715189 140.358573 252.587487 136.237781 Q 251.23745 134.45658 249.629422 131.765343 C 248.671674 130.164383 247.993122 128.489207 247.521316 126.757484 C 247.385252 126.253871 247.136096 125.403914 247.250955 124.963915 C 247.265091 124.905602 247.342842 124.894999 247.372882 124.948011 C 247.629106 125.403914 247.796978 125.877487 248.042599 126.313952 Q 250.049984 129.888721 252.746523 133.239074 Q 255.027802 136.073444 256.681773 138.049021 Q 259.475501 141.38347 261.663125 144.461694 Q 264.410909 148.331564 266.358213 152.883519 Q 268.208329 157.20399 268.814432 161.900845 Q 268.968166 163.08301 269.005275 164.307585 Q 269.065355 166.198343 269.00174 166.724928 Q 268.639492 169.781948 268.577645 170.145963 Q 268.204795 172.353026 267.69588 173.796717 C 267.649937 173.923945 267.676443 174.067078 267.766563 174.171334 Q 268.88158 175.461291 267.757728 176.487955 Q 267.372508 176.8396 266.437731 177.166507 Q 265.324481 177.553494 264.179424 177.74257 Z" style="fill:#211d1c;"/>
		<path d="M 245.86381 153.661027 Q 251.613835 157.182785 257.57414 160.658599 Q 259.848351 161.985664 262.119028 163.316263 Q 262.822319 163.727989 263.590992 164.231602 Q 264.299584 164.692805 265.048819 165.17168 Q 265.520625 165.982762 265.707934 166.578262 Q 265.843998 167.009426 265.833395 167.610227 Q 265.798054 169.607009 264.992273 171.497767 C 263.573321 174.823381 261.355656 176.728275 257.798557 177.426265 Q 255.665712 177.845059 253.541701 178.041204 Q 245.111041 178.818712 236.666244 177.99526 Q 234.220628 177.756706 232.054208 177.304338 C 229.136786 176.692934 226.949161 174.853421 225.708683 172.199291 C 224.94001 170.559456 223.98933 167.684444 224.904669 166.002199 Q 225.134387 165.579871 225.314628 165.224691 Q 226.34836 164.445416 226.738881 164.219232 Q 231.826257 161.259401 236.911866 158.296035 Q 236.924235 158.2872 239.926476 156.580216 Q 242.414502 155.164799 244.626865 153.675164 Q 245.151683 153.247535 245.86381 153.661027 Z" style="fill:#ffce5e;"/>
		<path d="M 213.768634 171.62853 Q 213.77747 171.782264 213.729759 171.884754 L 213.768634 171.62853 Z" style="fill:#ffce5e;"/>
		<path fill-opacity="0.996" d="M 213.63257 172.524431 Q 213.60253 172.95206 213.508876 173.139369 L 213.484137 173.254228 L 213.372812 173.614709 Q 213.358675 173.664187 213.335704 173.685392 C 213.314499 173.706597 213.279158 173.690693 213.279158 173.660653 Q 213.291527 173.098727 213.63257 172.524431 Z" style="fill:#fefefe;"/>
		<path fill-opacity="0.996" d="M 213.13956 172.508527 Q 213.174901 173.128767 212.991126 173.708364 C 212.890404 174.021134 212.939881 174.356876 212.75434 174.62547 Q 212.715464 174.680249 212.75434 174.763301 C 212.768476 174.793341 212.800283 174.811011 212.832091 174.803943 Q 212.858596 174.798642 212.897472 174.802176 Q 212.8745 175.001854 212.752573 175.210368 Q 212.745504 175.249243 212.720766 175.284584 L 212.11643 176.387232 C 212.107594 176.403136 212.089924 176.411971 212.072253 176.408437 L 212.005105 176.396067 C 211.964462 176.388999 211.941491 176.344823 211.959161 176.307714 Q 212.837392 174.501775 213.13956 172.508527 Z" style="fill:#fefefe;"/>
		<path fill-opacity="0.996" d="M 213.291527 173.950451 L 212.931046 174.71559 Q 212.982291 174.217278 213.24735 173.860331 C 213.272089 173.82499 213.328635 173.851496 213.316266 173.893905 Q 213.309198 173.918644 213.291527 173.950451 Z" style="fill:#fefefe;"/>
		<path d="M 278.111236 176.215138 C 278.149829 176.178719 278.229346 176.20169 278.289851 176.265128 C 278.349507 176.328919 278.368944 176.410204 278.329786 176.446234 C 278.291194 176.482653 278.211676 176.459682 278.151172 176.396244 C 278.091515 176.332453 278.072078 176.251168 278.111236 176.215138 Z" style="fill:#ffce5e;"/>
		<path d="M 264.179424 177.74257 Q 263.325932 178.016465 262.458304 178.239115 C 261.541198 178.474134 260.641763 178.454696 259.742327 178.707387 C 259.691082 178.721523 259.639838 178.730358 259.588593 178.73566 L 257.954059 178.871723 C 257.918718 178.861121 257.885143 178.854053 257.848035 178.850519 L 257.849802 178.850519 Q 260.609955 178.4706 262.023606 178.170199 Q 263.624566 177.83269 264.179424 177.74257 Z" style="fill:#ffce5e;"/>
		<path d="M 235.521187 180.985131 Q 235.924077 180.948023 236.316365 181.048746 L 235.19428 181.015172 C 235.190746 181.015172 235.187212 181.011637 235.185445 181.008103 C 235.185445 181.002802 235.188979 180.999268 235.192513 180.999268 Q 235.351549 180.969228 235.521187 180.985131 Z" style="fill:#ffce5e;"/>
		<path d="M 239.641979 181.223685 Q 238.712504 181.333243 237.786562 181.168906 L 239.641979 181.223685 Z" style="fill:#ffce5e;"/>
		<path fill-opacity="0.996" d="M 203.394204 184.76488 Q 203.307618 184.863836 203.381835 184.93982 Q 203.816532 185.383353 204.691229 186.035399 C 204.737172 186.068973 204.78665 186.097246 204.839662 186.118451 Q 205.299099 186.303993 205.585363 186.404715 Q 205.792109 186.475398 205.975884 186.418852 C 205.998856 186.411784 206.011225 186.387045 206.005924 186.364073 L 206.000623 186.349936 C 205.993555 186.323431 205.965281 186.30576 205.938776 186.312828 Q 205.790342 186.348169 205.735563 186.254515 C 205.610102 186.042467 205.113557 185.78801 204.905043 185.593633 Q 207.357728 186.542546 209.577159 187.139814 C 217.615532 189.304467 225.493101 190.574985 234.30368 191.242936 Q 244.812407 192.038114 255.969647 191.258839 Q 266.397089 190.530809 276.059392 188.346718 Q 277.26453 188.074591 280.598979 187.185758 Q 283.007486 186.542546 285.362982 185.63781 L 284.251499 186.247447 C 284.210857 186.270419 284.16668 186.284555 284.120736 186.291623 Q 283.8115 186.332266 283.572947 186.466563 C 283.534071 186.487767 283.525236 186.540779 283.557043 186.572586 Q 283.572947 186.58849 283.655999 186.574354 C 283.686039 186.569052 283.707243 186.604394 283.689573 186.629133 Q 283.666601 186.66094 283.627726 186.664474 Q 283.274313 186.687446 282.954474 186.69098 C 282.927968 186.69098 282.906764 186.712185 282.906764 186.73869 L 282.906764 186.797004 C 282.906764 186.798771 282.908531 186.798771 282.910298 186.798771 L 283.364433 186.798771 C 283.405076 186.798771 283.43865 186.834112 283.436883 186.876521 Q 283.433349 186.971943 283.546441 187.007284 C 283.57118 187.014352 283.597686 187.012585 283.620657 187.001983 L 285.852459 185.945279 Q 284.871738 186.786401 283.636561 187.233468 Q 281.950782 187.846639 280.825163 188.166478 C 271.454425 190.841812 261.838065 192.232491 252.105078 192.674257 Q 240.115552 193.22028 228.429961 191.873777 Q 220.534721 190.965507 213.130724 189.141897 Q 209.585995 188.270735 206.649135 187.185758 Q 204.555165 186.413551 202.858784 184.478616 C 202.853483 184.471548 202.849948 184.462713 202.851715 184.453877 L 202.869386 184.360223 C 202.876454 184.321347 202.925932 184.305444 202.954205 184.333717 L 203.394204 184.76488 Z" style="fill:#fefefe;"/>
		<path fill-opacity="0.996" d="M 287.135347 184.791386 Q 287.140648 184.701266 287.105307 184.607612 Q 287.175989 184.630584 287.241371 184.489219 Q 287.259041 184.469781 287.274945 184.457411 C 287.31382 184.427371 287.366832 184.468014 287.347394 184.51219 Q 287.28378 184.655323 287.135347 184.791386 Z" style="fill:#fefefe;"/>
		<path d="M 203.945528 185.088253 Q 203.692838 185.084719 203.590348 184.877973 Q 203.804163 184.962792 203.945528 185.088253 Z" style="fill:#ffce5e;"/>
		<path d="M 204.141672 185.203112 Q 203.963198 185.203112 203.975568 185.107691 Q 204.092194 185.075884 204.141672 185.203112 Z" style="fill:#ffce5e;"/>
	</g>
	<g id="surface4">
	</g>
</svg>
