<?xml version="1.0" encoding="utf-8"?>
<svg xmlns="http://www.w3.org/2000/svg" width="490pt" height="280pt" viewBox="0 0 490 280" version="1.1" xmlns:xlink="http://www.w3.org/1999/xlink">
	<g id="surface2" data-size="147.7779677507 148" data-bboxpos="171 51.950054917399" data-pivot="244.88898387535 125.9500549174" data-center="244.88898387535 125.9500549174">
		<path vector-effect="non-scaling-stroke" d="M 218.59963 52.596588 L 208.529162 60.697588" style="fill:none;stroke-width:0.50;stroke:#ff942d;"/>
		<path vector-effect="non-scaling-stroke" d="M 283.476054 56.187446 Q 284.817791 58.978022 284.69879 61.789423" style="fill:none;stroke-width:0.50;stroke:#ffa12c;"/>
		<path vector-effect="non-scaling-stroke" d="M 263.644521 70.262301 C 261.618527 69.057415 258.798201 68.334483 256.99831 67.685927 Q 254.32376 66.724993 252.613119 66.33824 Q 245.223151 64.672224 237.288753 65.294005 Q 233.334941 65.603408 227.658589 67.668077 Q 222.211313 69.65242 218.340803 72.442996" style="fill:none;stroke-width:0.50;stroke:#ff6d33;"/>
		<path vector-effect="non-scaling-stroke" d="M 218.340803 72.442996 Q 217.406644 73.290879 216.038131 73.597307" style="fill:none;stroke-width:0.50;stroke:#f75440;"/>
		<path vector-effect="non-scaling-stroke" d="M 216.038131 73.597307 C 215.029597 71.705189 214.107339 69.836872 212.720976 68.167882 C 212.60495 68.028055 212.378848 68.075656 212.331247 68.251182 Q 210.677132 74.210162 208.442886 80.886124 C 207.22015 84.539458 206.140215 87.074181 204.661626 90.917917 Q 203.510291 93.910794 201.83535 97.692054 Q 201.749075 97.891381 198.833548 104.388841 Q 197.863689 106.548711 196.974156 108.893032" style="fill:none;stroke-width:0.50;stroke:#b24d44;"/>
		<path vector-effect="non-scaling-stroke" d="M 196.974156 108.893032 Q 194.17168 112.495791 191.580431 116.565628" style="fill:none;stroke-width:0.50;stroke:#956469;"/>
		<path vector-effect="non-scaling-stroke" d="M 191.580431 116.565628 Q 189.628813 117.449211 189.646663 119.829233" style="fill:none;stroke-width:0.50;stroke:#ff6d33;"/>
		<path vector-effect="non-scaling-stroke" d="M 189.646663 119.829233 L 189.616913 119.543631" style="fill:none;stroke-width:0.50;stroke:#ffa12c;"/>
		<path vector-effect="non-scaling-stroke" d="M 189.616913 119.543631 Q 189.652613 118.311969 189.548487 117.904391 Q 189.200409 116.547778 189.277759 115.08704 Q 189.414611 112.37084 189.670463 110.19907 C 189.950116 107.822023 189.953091 105.534226 190.158368 103.261306 Q 191.021126 93.628167 192.118911 83.780826 Q 192.172461 83.310771 192.734741 78.87203 Q 193.07092 76.209381 193.252396 73.43963" style="fill:none;stroke-width:0.50;stroke:#ff942d;"/>
		<path vector-effect="non-scaling-stroke" d="M 231.04417 86.104322 L 219.15596 92.771359" style="fill:none;stroke-width:0.50;stroke:#8d4076;"/>
		<path vector-effect="non-scaling-stroke" d="M 192.02371 128.68589 C 192.03561 129.251145 191.857108 129.75095 191.931484 130.280505 Q 192.163536 131.901895 192.818042 134.067715 Q 195.33789 142.406717 195.837695 144.054882 C 196.075697 144.831364 196.575502 146.190952 197.637587 146.428954 Q 201.766925 147.357162 204.182647 150.962896 Q 205.333983 152.679487 206.500193 154.12535 C 207.428402 155.273711 208.999217 156.395296 210.070226 157.046827 Q 211.373288 157.841159 213.393332 158.218988 C 213.494483 158.236838 213.580759 158.144612 213.553984 158.046436 Q 213.530183 157.95421 213.568859 157.838184" style="fill:none;stroke-width:0.50;stroke:#ffbd26;"/>
		<path vector-effect="non-scaling-stroke" d="M 213.568859 157.838184 L 224.951314 175.741899" style="fill:none;stroke-width:0.50;stroke:#8c8155;"/>
		<path vector-effect="non-scaling-stroke" d="M 225.638545 130.426281 Q 225.361868 130.363806 225.150641 130.818985" style="fill:none;stroke-width:0.50;stroke:#955869;"/>
		<path vector-effect="non-scaling-stroke" d="M 225.150641 130.818985 Q 225.12684 132.4612 225.08519 134.165891 Q 225.040565 136.028258 225.076265 137.509822 Q 225.329142 147.529714 226.70658 157.418705 C 226.739305 157.656708 226.513203 157.847109 226.287101 157.775709 Q 224.079631 157.097402 220.708925 156.154319 C 218.319978 155.484938 215.776329 154.907782 213.351682 153.982549 Q 212.607925 153.696946 212.143821 153.655296 Q 211.191812 153.56902 211.135286 154.1432" style="fill:none;stroke-width:0.50;stroke:#224493;"/>
		<path vector-effect="non-scaling-stroke" d="M 211.135286 154.1432 L 203.492441 141.463633" style="fill:none;stroke-width:0.50;stroke:#958063;"/>
		<path vector-effect="non-scaling-stroke" d="M 203.492441 141.463633 Q 201.070768 136.608388 198.610421 131.92272 Q 196.617152 128.126585 191.580431 116.565628" style="fill:none;stroke-width:0.50;stroke:#955869;"/>
		<path vector-effect="non-scaling-stroke" d="M 216.038131 73.597307 Q 219.420738 82.781216 219.15596 92.771359" style="fill:none;stroke-width:0.50;stroke:#aa2951;"/>
		<path vector-effect="non-scaling-stroke" d="M 219.15596 92.771359 Q 217.019891 94.139871 214.791595 95.564909 Q 208.984341 99.277744 204.387924 102.847777 C 202.962886 103.954487 201.412897 105.343825 199.737956 106.399959 C 199.711181 106.414835 199.690356 106.432685 199.66953 106.45351 L 196.974156 108.893032" style="fill:none;stroke-width:0.50;stroke:#48397a;"/>
		<path vector-effect="non-scaling-stroke" d="M 314.654342 55.223537 Q 307.96648 59.3737 301.269693 63.339412 C 299.969606 64.109944 298.25599 65.002452 296.783352 65.900911" style="fill:none;stroke-width:0.50;stroke:#2e7db9;"/>
		<path vector-effect="non-scaling-stroke" d="M 296.783352 65.900911 Q 295.947369 66.201388 295.48029 66.463191 Q 290.07169 69.536394 283.07145 73.323604 Q 277.415923 76.384907 270.106281 80.936699 C 267.247279 82.715766 263.668321 85.324865 261.285324 86.839154 C 257.129211 89.486928 253.505627 92.268579 248.599807 95.793987 C 248.010752 96.219416 247.234269 96.885822 246.380437 97.391576 Q 245.056549 98.174009 242.697353 100.098851" style="fill:none;stroke-width:0.50;stroke:#226cb4;"/>
		<path vector-effect="non-scaling-stroke" d="M 242.697353 100.098851 L 226.983258 110.261545 C 226.894007 110.318071 226.777981 110.255595 226.780956 110.148494 Q 226.801781 109.461263 226.899957 108.797832 Q 227.950141 101.803542 229.208578 95.621435 Q 229.211553 95.60656 230.038611 91.923476 Q 230.681217 89.061499 231.04417 86.104322" style="fill:none;stroke-width:0.50;stroke:#224493;"/>
		<path vector-effect="non-scaling-stroke" d="M 231.04417 86.104322 L 248.40048 77.280391" style="fill:none;stroke-width:0.50;stroke:#83346a;"/>
		<path vector-effect="non-scaling-stroke" d="M 248.40048 77.280391 Q 255.909449 73.579457 263.644521 70.262301" style="fill:none;stroke-width:0.50;stroke:#8c4d5c;"/>
		<path vector-effect="non-scaling-stroke" d="M 263.644521 70.262301 Q 265.069559 69.637545 266.527322 69.006839 Q 275.42563 65.151204 284.69879 61.789423" style="fill:none;stroke-width:0.50;stroke:#8c585d;"/>
		<path vector-effect="non-scaling-stroke" d="M 284.69879 61.789423 Q 294.284329 58.469292 297.381332 57.576784 Q 300.124308 56.788402 302.855383 55.922669" style="fill:none;stroke-width:0.50;stroke:#8c8155;"/>
		<path vector-effect="non-scaling-stroke" d="M 189.616913 119.543631 Q 189.387836 119.421655 189.277759 119.216378" style="fill:none;stroke-width:0.50;stroke:#ffbd26;"/>
		<path vector-effect="non-scaling-stroke" d="M 248.40048 77.280391 Q 248.117853 76.62886 247.356246 76.334332 Q 245.583129 75.647101 245.130925 75.513224 Q 240.412531 74.109011 235.738763 73.43963 Q 233.207015 73.076677 225.971748 72.579847 C 224.061781 72.448946 222.074462 72.612573 219.828316 72.678023 Q 219.462388 72.686948 218.340803 72.442996" style="fill:none;stroke-width:0.50;stroke:#f74940;"/>
		<path vector-effect="non-scaling-stroke" d="M 203.492441 141.463633 Q 201.954352 140.612775 201.038043 139.52689 Q 199.485079 137.691298 199.276827 137.474121 C 197.610811 135.70993 196.093547 133.767237 195.159389 132.693252 C 194.20738 131.595467 193.11257 129.997877 192.02371 128.68589" style="fill:none;stroke-width:0.50;stroke:#ff892d;"/>
		<path vector-effect="non-scaling-stroke" d="M 192.02371 128.68589 Q 191.393004 127.418528 191.012201 126.041091 Q 190.405295 123.848496 189.816239 121.6559 Q 189.572287 120.754467 189.646663 119.829233" style="fill:none;stroke-width:0.50;stroke:#ff962b;"/>
		<path vector-effect="non-scaling-stroke" d="M 211.135286 154.1432 L 213.568859 157.838184" style="fill:none;stroke-width:0.50;stroke:#8c7457;"/>
		<path vector-effect="non-scaling-stroke" d="M 273.964891 174.525113 L 274.818724 175.105244" style="fill:none;stroke-width:0.50;stroke:#83346a;"/>
		<path vector-effect="non-scaling-stroke" d="M 302.596555 137.697248 Q 301.882549 138.319029 300.719313 138.393405 C 300.612212 138.399355 300.505111 138.42613 300.40396 138.470755 C 299.074123 139.068736 297.678835 139.360289 296.286522 139.803568 Q 287.447716 142.620919 285.505023 143.2784 C 283.255902 144.037032 280.872905 145.521571 279.784045 147.737966 C 278.180505 151.001571 277.103545 154.940507 276.341938 158.834818 Q 274.991276 165.739857 273.85779 171.187132 Q 273.509712 172.856123 273.964891 174.525113" style="fill:none;stroke-width:0.50;stroke:#f74940;"/>
		<path vector-effect="non-scaling-stroke" d="M 273.964891 174.525113 Q 264.406128 168.16748 255.778548 160.649585 Q 245.776506 151.932755 236.479545 142.466217 Q 227.444387 133.267432 225.150641 130.818985" style="fill:none;stroke-width:0.50;stroke:#8c4d5c;"/>
		<path vector-effect="non-scaling-stroke" d="M 255.019916 110.21097 Q 255.159743 109.937267 255.42452 109.70819 Q 261.686953 104.338265 262.534836 103.630209 C 262.609211 103.567733 262.674662 103.499308 262.734162 103.421957 Q 264.218701 101.503064 266.140569 99.96795 Q 266.423197 99.741848 266.643349 99.242043" style="fill:none;stroke-width:0.50;stroke:#3788c6;"/>
		<path vector-effect="non-scaling-stroke" d="M 266.643349 99.242043 Q 267.274054 98.88504 267.622133 98.474486 C 269.585651 96.16289 272.022198 93.592466 273.81019 91.575398 Q 278.058529 86.782628 281.241808 83.367297 C 282.49132 82.028535 283.63968 80.633247 284.609539 79.660413 Q 286.040528 78.226449 287.194838 76.944213 Q 288.979855 74.959869 292.618313 71.21431 C 293.522722 70.283126 295.54574 68.590336 296.631625 67.090922 Q 296.970778 66.626817 296.783352 65.900911" style="fill:none;stroke-width:0.50;stroke:#38b1e7;"/>
		<path vector-effect="non-scaling-stroke" d="M 266.643349 99.242043 Q 266.640374 98.974291 266.387496 98.944541 Q 254.656963 97.611728 242.697353 100.098851" style="fill:none;stroke-width:0.50;stroke:#2c78c1;"/>
		<path d="M 218.59963 52.596588 L 208.529162 60.697588 L 215.225949 52.24851 C 215.416351 52.007532 215.728729 51.900431 216.026231 51.971832 L 218.59963 52.596588 Z" style="fill:#ffb027;"/>
		<path d="M 314.654342 55.223537 Q 307.96648 59.3737 301.269693 63.339412 C 299.969606 64.109944 298.25599 65.002452 296.783352 65.900911 Q 295.947369 66.201388 295.48029 66.463191 Q 290.07169 69.536394 283.07145 73.323604 Q 277.415923 76.384907 270.106281 80.936699 C 267.247279 82.715766 263.668321 85.324865 261.285324 86.839154 C 257.129211 89.486928 253.505627 92.268579 248.599807 95.793987 C 248.010752 96.219416 247.234269 96.885822 246.380437 97.391576 Q 245.056549 98.174009 242.697353 100.098851 L 226.983258 110.261545 C 226.894007 110.318071 226.777981 110.255595 226.780956 110.148494 Q 226.801781 109.461263 226.899957 108.797832 Q 227.950141 101.803542 229.208578 95.621435 Q 229.211553 95.60656 230.038611 91.923476 Q 230.681217 89.061499 231.04417 86.104322 L 248.40048 77.280391 Q 255.909449 73.579457 263.644521 70.262301 Q 265.069559 69.637545 266.527322 69.006839 Q 275.42563 65.151204 284.69879 61.789423 Q 294.284329 58.469292 297.381332 57.576784 Q 300.124308 56.788402 302.855383 55.922669 Q 308.662636 54.482755 314.48179 53.007142 C 315.769977 52.679889 316.974863 52.504362 318.176774 52.040258 Q 318.331476 51.980757 318.614103 52.043233 C 318.792605 52.081908 318.83723 52.31396 318.688479 52.418086 L 314.654342 55.223537 Z" style="fill:#183886;"/>
		<path d="M 283.476054 56.187446 Q 284.817791 58.978022 284.69879 61.789423 Q 275.42563 65.151204 266.527322 69.006839 Q 265.069559 69.637545 263.644521 70.262301 C 261.618527 69.057415 258.798201 68.334483 256.99831 67.685927 Q 254.32376 66.724993 252.613119 66.33824 Q 245.223151 64.672224 237.288753 65.294005 Q 233.334941 65.603408 227.658589 67.668077 Q 222.211313 69.65242 218.340803 72.442996 Q 217.406644 73.290879 216.038131 73.597307 C 215.029597 71.705189 214.107339 69.836872 212.720976 68.167882 C 212.60495 68.028055 212.378848 68.075656 212.331247 68.251182 Q 210.677132 74.210162 208.442886 80.886124 C 207.22015 84.539458 206.140215 87.074181 204.661626 90.917917 Q 203.510291 93.910794 201.83535 97.692054 Q 201.749075 97.891381 198.833548 104.388841 Q 197.863689 106.548711 196.974156 108.893032 Q 194.17168 112.495791 191.580431 116.565628 Q 189.628813 117.449211 189.646663 119.829233 L 189.616913 119.543631 Q 189.652613 118.311969 189.548487 117.904391 Q 189.200409 116.547778 189.277759 115.08704 Q 189.414611 112.37084 189.670463 110.19907 C 189.950116 107.822023 189.953091 105.534226 190.158368 103.261306 Q 191.021126 93.628167 192.118911 83.780826 Q 192.172461 83.310771 192.734741 78.87203 Q 193.07092 76.209381 193.252396 73.43963 Q 201.356371 67.885254 208.529162 60.697588 L 218.59963 52.596588 Q 227.432487 54.188228 238.639415 55.074786 Q 242.503976 55.378239 243.104931 55.345513 Q 243.45301 55.327663 244.407993 55.50319 C 244.63112 55.54484 244.857222 55.565665 245.083325 55.565665 Q 247.924476 55.56269 250.465149 55.696566 C 254.29996 55.901843 256.665106 55.824493 259.830536 56.020844 Q 261.710753 56.139846 263.576095 56.154721 Q 273.554337 56.235046 283.476054 56.187446 Z" style="fill:#ff7833;"/>
		<path d="M 314.654342 55.223537 Q 314.359814 57.612484 313.970085 59.831855 Q 313.803484 60.768988 313.601182 61.405644 C 313.38103 62.092876 313.360205 62.658131 313.143028 63.520889 Q 311.396687 70.449728 308.864938 76.795461 Q 306.868695 81.799457 304.7475 85.702693 Q 303.747891 87.544235 301.582071 91.379046 C 298.856946 96.207515 295.144112 100.551055 290.455468 103.410057 Q 287.069887 105.474726 283.722981 106.533836 Q 280.447476 107.569145 278.641634 107.896398 Q 277.317747 108.1344 276.948844 108.229601 C 275.440505 108.622305 274.098767 108.67288 272.492253 109.035834 C 272.26615 109.086409 272.037073 109.11616 271.807996 109.125085 C 269.701677 109.202435 267.497181 109.681415 265.566389 109.740915 Q 262.284933 109.842066 257.477289 110.243695 C 256.662131 110.312121 255.843999 110.255595 255.019916 110.21097 Q 255.159743 109.937267 255.42452 109.70819 Q 261.686953 104.338265 262.534836 103.630209 C 262.609211 103.567733 262.674662 103.499308 262.734162 103.421957 Q 264.218701 101.503064 266.140569 99.96795 Q 266.423197 99.741848 266.643349 99.242043 Q 267.274054 98.88504 267.622133 98.474486 C 269.585651 96.16289 272.022198 93.592466 273.81019 91.575398 Q 278.058529 86.782628 281.241808 83.367297 C 282.49132 82.028535 283.63968 80.633247 284.609539 79.660413 Q 286.040528 78.226449 287.194838 76.944213 Q 288.979855 74.959869 292.618313 71.21431 C 293.522722 70.283126 295.54574 68.590336 296.631625 67.090922 Q 296.970778 66.626817 296.783352 65.900911 C 298.25599 65.002452 299.969606 64.109944 301.269693 63.339412 Q 307.96648 59.3737 314.654342 55.223537 Z" style="fill:#43c1ec;"/>
		<path d="M 302.855383 55.922669 Q 300.124308 56.788402 297.381332 57.576784 Q 294.284329 58.469292 284.69879 61.789423 Q 284.817791 58.978022 283.476054 56.187446 Q 288.459225 56.318347 293.36802 56.014894 C 295.956294 55.857218 298.077489 56.050595 300.418835 55.732267 C 300.505111 55.723342 300.588412 55.720367 300.674688 55.726317 L 302.855383 55.922669 Z" style="fill:#ffca24;"/>
		<path d="M 263.644521 70.262301 Q 255.909449 73.579457 248.40048 77.280391 Q 248.117853 76.62886 247.356246 76.334332 Q 245.583129 75.647101 245.130925 75.513224 Q 240.412531 74.109011 235.738763 73.43963 Q 233.207015 73.076677 225.971748 72.579847 C 224.061781 72.448946 222.074462 72.612573 219.828316 72.678023 Q 219.462388 72.686948 218.340803 72.442996 Q 222.211313 69.65242 227.658589 67.668077 Q 233.334941 65.603408 237.288753 65.294005 Q 245.223151 64.672224 252.613119 66.33824 Q 254.32376 66.724993 256.99831 67.685927 C 258.798201 68.334483 261.618527 69.057415 263.644521 70.262301 Z" style="fill:#ff6132;"/>
		<path d="M 296.783352 65.900911 Q 296.970778 66.626817 296.631625 67.090922 C 295.54574 68.590336 293.522722 70.283126 292.618313 71.21431 Q 288.979855 74.959869 287.194838 76.944213 Q 286.040528 78.226449 284.609539 79.660413 C 283.63968 80.633247 282.49132 82.028535 281.241808 83.367297 Q 278.058529 86.782628 273.81019 91.575398 C 272.022198 93.592466 269.585651 96.16289 267.622133 98.474486 Q 267.274054 98.88504 266.643349 99.242043 Q 266.640374 98.974291 266.387496 98.944541 Q 254.656963 97.611728 242.697353 100.098851 Q 245.056549 98.174009 246.380437 97.391576 C 247.234269 96.885822 248.010752 96.219416 248.599807 95.793987 C 253.505627 92.268579 257.129211 89.486928 261.285324 86.839154 C 263.668321 85.324865 267.247279 82.715766 270.106281 80.936699 Q 277.415923 76.384907 283.07145 73.323604 Q 290.07169 69.536394 295.48029 66.463191 Q 295.947369 66.201388 296.783352 65.900911 Z" style="fill:#2ca0e2;"/>
		<path d="M 216.038131 73.597307 Q 219.420738 82.781216 219.15596 92.771359 Q 217.019891 94.139871 214.791595 95.564909 Q 208.984341 99.277744 204.387924 102.847777 C 202.962886 103.954487 201.412897 105.343825 199.737956 106.399959 C 199.711181 106.414835 199.690356 106.432685 199.66953 106.45351 L 196.974156 108.893032 Q 197.863689 106.548711 198.833548 104.388841 Q 201.749075 97.891381 201.83535 97.692054 Q 203.510291 93.910794 204.661626 90.917917 C 206.140215 87.074181 207.22015 84.539458 208.442886 80.886124 Q 210.677132 74.210162 212.331247 68.251182 C 212.378848 68.075656 212.60495 68.028055 212.720976 68.167882 C 214.107339 69.836872 215.029597 71.705189 216.038131 73.597307 Z" style="fill:#652254;"/>
		<path d="M 218.340803 72.442996 Q 219.462388 72.686948 219.828316 72.678023 C 222.074462 72.612573 224.061781 72.448946 225.971748 72.579847 Q 233.207015 73.076677 235.738763 73.43963 Q 240.412531 74.109011 245.130925 75.513224 Q 245.583129 75.647101 247.356246 76.334332 Q 248.117853 76.62886 248.40048 77.280391 L 231.04417 86.104322 L 219.15596 92.771359 Q 219.420738 82.781216 216.038131 73.597307 Q 217.406644 73.290879 218.340803 72.442996 Z" style="fill:#ee304d;"/>
		<path d="M 193.252396 73.43963 Q 193.07092 76.209381 192.734741 78.87203 Q 192.172461 83.310771 192.118911 83.780826 Q 191.021126 93.628167 190.158368 103.261306 C 189.953091 105.534226 189.950116 107.822023 189.670463 110.19907 Q 189.414611 112.37084 189.277759 115.08704 Q 189.200409 116.547778 189.548487 117.904391 Q 189.652613 118.311969 189.616913 119.543631 Q 189.387836 119.421655 189.277759 119.216378 Q 189.143883 117.80919 188.718454 116.381177 Q 188.159149 114.506909 188.114524 114.334358 Q 185.796977 105.38845 184.705142 96.246191 Q 184.580191 95.178156 184.565316 94.360023 C 184.553416 93.524041 184.330289 92.726733 184.315414 91.846125 Q 184.276738 89.852857 184.029811 85.711619 Q 183.997086 85.170164 184.053611 81.171727 Q 184.071461 79.978741 184.300539 79.163583 C 184.327314 79.071357 184.389789 78.994007 184.47309 78.946406 Q 188.78688 76.497958 193.252396 73.43963 Z" style="fill:#ffb027;"/>
		<path d="M 231.04417 86.104322 Q 230.681217 89.061499 230.038611 91.923476 Q 229.211553 95.60656 229.208578 95.621435 Q 227.950141 101.803542 226.899957 108.797832 Q 226.801781 109.461263 226.780956 110.148494 C 226.777981 110.255595 226.894007 110.318071 226.983258 110.261545 L 242.697353 100.098851 Q 254.656963 97.611728 266.387496 98.944541 Q 266.640374 98.974291 266.643349 99.242043 Q 266.423197 99.741848 266.140569 99.96795 Q 264.218701 101.503064 262.734162 103.421957 C 262.674662 103.499308 262.609211 103.567733 262.534836 103.630209 Q 261.686953 104.338265 255.42452 109.70819 Q 255.159743 109.937267 255.019916 110.21097 Q 254.576637 110.362696 254.37731 110.514422 Q 240.650534 121.03412 225.906298 130.072253 Q 225.802172 130.137704 225.638545 130.426281 Q 225.361868 130.363806 225.150641 130.818985 Q 225.12684 132.4612 225.08519 134.165891 Q 225.040565 136.028258 225.076265 137.509822 Q 225.329142 147.529714 226.70658 157.418705 C 226.739305 157.656708 226.513203 157.847109 226.287101 157.775709 Q 224.079631 157.097402 220.708925 156.154319 C 218.319978 155.484938 215.776329 154.907782 213.351682 153.982549 Q 212.607925 153.696946 212.143821 153.655296 Q 211.191812 153.56902 211.135286 154.1432 L 203.492441 141.463633 Q 201.070768 136.608388 198.610421 131.92272 Q 196.617152 128.126585 191.580431 116.565628 Q 194.17168 112.495791 196.974156 108.893032 L 199.66953 106.45351 C 199.690356 106.432685 199.711181 106.414835 199.737956 106.399959 C 201.412897 105.343825 202.962886 103.954487 204.387924 102.847777 Q 208.984341 99.277744 214.791595 95.564909 Q 217.019891 94.139871 219.15596 92.771359 L 231.04417 86.104322 Z" style="fill:#2b4f9f;"/>
		<path d="M 191.580431 116.565628 Q 196.617152 128.126585 198.610421 131.92272 Q 201.070768 136.608388 203.492441 141.463633 Q 201.954352 140.612775 201.038043 139.52689 Q 199.485079 137.691298 199.276827 137.474121 C 197.610811 135.70993 196.093547 133.767237 195.159389 132.693252 C 194.20738 131.595467 193.11257 129.997877 192.02371 128.68589 Q 191.393004 127.418528 191.012201 126.041091 Q 190.405295 123.848496 189.816239 121.6559 Q 189.572287 120.754467 189.646663 119.829233 Q 189.628813 117.449211 191.580431 116.565628 Z" style="fill:#ff6132;"/>
		<path d="M 189.277759 119.216378 Q 189.387836 119.421655 189.616913 119.543631 L 189.646663 119.829233 Q 189.572287 120.754467 189.816239 121.6559 Q 190.405295 123.848496 191.012201 126.041091 Q 191.393004 127.418528 192.02371 128.68589 C 192.03561 129.251145 191.857108 129.75095 191.931484 130.280505 Q 192.163536 131.901895 192.818042 134.067715 Q 195.33789 142.406717 195.837695 144.054882 C 196.075697 144.831364 196.575502 146.190952 197.637587 146.428954 Q 201.766925 147.357162 204.182647 150.962896 Q 205.333983 152.679487 206.500193 154.12535 C 207.428402 155.273711 208.999217 156.395296 210.070226 157.046827 Q 211.373288 157.841159 213.393332 158.218988 C 213.494483 158.236838 213.580759 158.144612 213.553984 158.046436 Q 213.530183 157.95421 213.568859 157.838184 L 224.951314 175.741899 Q 224.216482 175.625873 223.853529 175.390846 C 221.27418 173.704006 219.033984 172.400944 215.767404 170.4285 Q 210.564081 167.286871 201.567598 161.598619 Q 180.66803 148.383547 171.927399 142.644719 Q 171.382969 142.287716 171.192568 142.135989 C 170.972416 141.960463 170.93374 141.63916 171.112242 141.419008 C 172.540255 139.631016 174.741775 137.646673 176.529767 135.549279 Q 179.311418 132.291623 179.62082 131.92867 Q 184.758693 125.889364 189.277759 119.216378 Z" style="fill:#ffca24;"/>
		<path d="M 203.492441 141.463633 L 211.135286 154.1432 L 213.568859 157.838184 Q 213.530183 157.95421 213.553984 158.046436 C 213.580759 158.144612 213.494483 158.236838 213.393332 158.218988 Q 211.373288 157.841159 210.070226 157.046827 C 208.999217 156.395296 207.428402 155.273711 206.500193 154.12535 Q 205.333983 152.679487 204.182647 150.962896 Q 201.766925 147.357162 197.637587 146.428954 C 196.575502 146.190952 196.075697 144.831364 195.837695 144.054882 Q 195.33789 142.406717 192.818042 134.067715 Q 192.163536 131.901895 191.931484 130.280505 C 191.857108 129.75095 192.03561 129.251145 192.02371 128.68589 C 193.11257 129.997877 194.20738 131.595467 195.159389 132.693252 C 196.093547 133.767237 197.610811 135.70993 199.276827 137.474121 Q 199.485079 137.691298 201.038043 139.52689 Q 201.954352 140.612775 203.492441 141.463633 Z" style="fill:#ffb027;"/>
		<path d="M 225.638545 130.426281 Q 225.573094 130.81006 225.962823 130.88146 Q 231.793877 131.95247 237.55948 132.99373 Q 251.551034 135.519528 262.445585 136.450712 Q 263.724847 136.560788 264.007474 136.584588 Q 272.078724 137.277769 276.898268 137.414621 C 279.061113 137.474121 282.47347 137.709148 285.424697 137.712123 Q 298.592168 137.724024 302.596555 137.697248 Q 301.882549 138.319029 300.719313 138.393405 C 300.612212 138.399355 300.505111 138.42613 300.40396 138.470755 C 299.074123 139.068736 297.678835 139.360289 296.286522 139.803568 Q 287.447716 142.620919 285.505023 143.2784 C 283.255902 144.037032 280.872905 145.521571 279.784045 147.737966 C 278.180505 151.001571 277.103545 154.940507 276.341938 158.834818 Q 274.991276 165.739857 273.85779 171.187132 Q 273.509712 172.856123 273.964891 174.525113 Q 264.406128 168.16748 255.778548 160.649585 Q 245.776506 151.932755 236.479545 142.466217 Q 227.444387 133.267432 225.150641 130.818985 Q 225.361868 130.363806 225.638545 130.426281 Z" style="fill:#ff6132;"/>
		<path d="M 273.964891 174.525113 L 274.818724 175.105244 Q 268.92222 180.073539 263.942024 183.521596 Q 251.548059 192.0986 238.318112 199.905073 C 238.151511 200.003248 237.934334 199.934823 237.854008 199.759296 C 236.193943 196.162488 235.271684 194.038318 233.680044 190.91454 Q 230.49379 184.666982 226.025299 177.512041 Q 225.460043 176.607632 224.951314 175.741899 L 213.568859 157.838184 L 211.135286 154.1432 Q 211.191812 153.56902 212.143821 153.655296 Q 212.607925 153.696946 213.351682 153.982549 C 215.776329 154.907782 218.319978 155.484938 220.708925 156.154319 Q 224.079631 157.097402 226.287101 157.775709 C 226.513203 157.847109 226.739305 157.656708 226.70658 157.418705 Q 225.329142 147.529714 225.076265 137.509822 Q 225.040565 136.028258 225.08519 134.165891 Q 225.12684 132.4612 225.150641 130.818985 Q 227.444387 133.267432 236.479545 142.466217 Q 245.776506 151.932755 255.778548 160.649585 Q 264.406128 168.16748 273.964891 174.525113 Z" style="fill:#183886;"/>
		<path d="M 274.818724 175.105244 L 273.964891 174.525113 Q 273.509712 172.856123 273.85779 171.187132 Q 274.991276 165.739857 276.341938 158.834818 C 277.103545 154.940507 278.180505 151.001571 279.784045 147.737966 C 280.872905 145.521571 283.255902 144.037032 285.505023 143.2784 Q 287.447716 142.620919 296.286522 139.803568 C 297.678835 139.360289 299.074123 139.068736 300.40396 138.470755 C 300.505111 138.42613 300.612212 138.399355 300.719313 138.393405 Q 301.882549 138.319029 302.596555 137.697248 Q 302.902983 137.607998 303.07851 137.706173 C 303.316512 137.84005 303.361137 138.170278 303.173711 138.393405 Q 302.346653 139.372189 302.0432 140.243872 C 302.00155 140.365848 301.939074 140.478899 301.861724 140.58005 C 301.278618 141.329757 300.847239 142.397792 300.347435 143.257575 Q 295.828368 150.992646 291.362852 157.023027 Q 284.181135 166.721616 274.818724 175.105244 Z" style="fill:#ee304d;"/>
	</g>
	<g id="surface4">
	</g>
</svg>
