<?xml version="1.0" encoding="utf-8"?>
<svg xmlns="http://www.w3.org/2000/svg" width="490pt" height="280pt" viewBox="0 0 490 280" version="1.1" xmlns:xlink="http://www.w3.org/1999/xlink">
	<g id="surface2" data-size="238.13855940009 148" data-bboxpos="126 53.803788724007" data-pivot="245.06927970005 127.80378872401" data-center="245.06927970005 127.80378872401">
		<path vector-effect="non-scaling-stroke" d="M 165.543311 152.202882 Q 165.395039 152.269214 165.555017 152.358958 C 165.597938 152.382369 165.644761 152.386271 165.687681 152.370664 Q 172.675974 149.612024 179.426252 151.652715 C 191.182659 155.199537 196.731153 166.433091 197.655902 177.916366 C 197.67151 178.076344 197.862702 178.15048 197.979759 178.041227 L 205.307517 171.091953 C 205.580649 170.830526 205.693804 170.444238 205.604061 170.07746 C 201.479758 153.595859 185.392248 140.551826 167.798606 146.361746" style="fill:none;stroke-width:0.50;stroke:#83b1d5;"/>
		<path vector-effect="non-scaling-stroke" d="M 172.004848 105.025078 L 188.623017 104.98996" style="fill:none;stroke-width:0.50;stroke:#83b1d5;"/>
		<path vector-effect="non-scaling-stroke" d="M 219.810858 132.841682 Q 222.10127 136.244134 225.222786 139.20177" style="fill:none;stroke-width:0.50;stroke:#83b1d5;"/>
		<path vector-effect="non-scaling-stroke" d="M 223.884436 136.919162 Q 222.34709 134.523399 220.076187 132.603667" style="fill:none;stroke-width:0.50;stroke:#83b1d5;"/>
		<path vector-effect="non-scaling-stroke" d="M 181.615214 96.339461 L 174.260143 96.245815 C 174.228928 96.241913 174.205517 96.265325 174.205517 96.29654 L 174.205517 96.409695 C 174.205517 96.483831 174.264045 96.542359 174.334279 96.542359 L 179.960811 96.495536" style="fill:none;stroke-width:0.50;stroke:#83b1d5;"/>
		<path vector-effect="non-scaling-stroke" d="M 179.750109 98.009471 L 174.010422 97.865101" style="fill:none;stroke-width:0.50;stroke:#83b1d5;"/>
		<path vector-effect="non-scaling-stroke" d="M 182.976975 98.161645 Q 178.638069 98.270898 174.303064 98.29431 Q 174.00652 98.29431 173.959698 98.083607" style="fill:none;stroke-width:0.50;stroke:#83b1d5;"/>
		<path vector-effect="non-scaling-stroke" d="M 187.893362 103.667218 L 173.690467 103.604788" style="fill:none;stroke-width:0.50;stroke:#83b1d5;"/>
		<path d="M 165.543311 152.202882 Q 165.395039 152.269214 165.555017 152.358958 C 165.597938 152.382369 165.644761 152.386271 165.687681 152.370664 Q 172.675974 149.612024 179.426252 151.652715 C 191.182659 155.199537 196.731153 166.433091 197.655902 177.916366 C 197.67151 178.076344 197.862702 178.15048 197.979759 178.041227 L 205.307517 171.091953 C 205.580649 170.830526 205.693804 170.444238 205.604061 170.07746 C 201.479758 153.595859 185.392248 140.551826 167.798606 146.361746 L 168.208305 143.267544 C 168.212207 143.232427 168.216109 143.193408 168.216109 143.158291 Q 168.220011 141.535103 168.411204 140.37624 Q 168.699944 138.600879 168.676533 138.124847 C 168.62971 137.188393 169.004292 136.11147 168.996488 135.112585 Q 168.984782 134.172228 169.45301 129.938673 C 169.757357 127.187837 169.932943 124.179477 170.288015 121.135999 C 170.576755 118.670002 170.795261 115.973793 171.076198 113.394641 Q 171.103511 113.148822 171.384447 109.188399 Q 171.532719 107.042357 172.004848 105.025078 L 188.623017 104.98996 Q 189.052225 104.619281 189.422905 105.419169 Q 189.633607 105.87569 189.633607 106.480484 C 189.657019 115.685053 190.047208 124.569666 190.094031 133.657178 C 190.121344 139.845583 189.96917 142.963196 190.50373 146.709015 C 190.56616 147.153831 190.897821 147.512805 191.334833 147.618156 Q 191.998155 147.778134 192.969727 147.493296 Q 194.795813 146.954834 197.359358 145.920832 Q 203.512645 143.439228 208.791909 140.45818 C 210.973067 139.229083 213.704394 137.559073 215.218329 136.396308 Q 217.696031 134.492184 219.810858 132.841682 Q 222.10127 136.244134 225.222786 139.20177 L 233.623564 148.839449 C 233.725013 148.956506 233.916206 148.897978 233.959127 148.741902 L 233.966931 148.706785 C 234.021557 148.492181 233.974735 148.261969 233.838168 148.086384 Q 230.946865 144.469328 227.903387 141.340008 C 226.849876 140.255282 225.413978 138.269217 223.884436 136.919162 Q 222.34709 134.523399 220.076187 132.603667 Q 222.39001 130.309353 224.852106 127.812141 C 225.488114 127.164426 226.018772 126.969331 226.881091 126.973233 Q 251.786882 127.051271 268.79524 127.02786 Q 271.24563 127.023958 271.604604 126.973233 Q 272.716644 126.809354 274.242285 126.075798 C 279.014301 123.785386 283.567812 119.762533 285.378291 114.701776 Q 286.07673 112.746926 286.15867 110.682824 Q 286.267923 107.850049 285.998692 106.570228 C 285.081747 102.20791 282.073387 98.696205 277.855439 97.135447 Q 275.128015 96.124856 273.411181 96.120955 Q 228.133599 96.105347 189.298044 96.13266 C 186.976417 96.136562 184.178759 96.351166 181.615214 96.339461 L 174.260143 96.245815 C 174.228928 96.241913 174.205517 96.265325 174.205517 96.29654 L 174.205517 96.409695 C 174.205517 96.483831 174.264045 96.542359 174.334279 96.542359 L 179.960811 96.495536 Q 179.617444 97.260308 179.750109 98.009471 L 174.010422 97.865101 L 173.994815 96.604789 C 173.990913 96.483831 173.951894 96.366774 173.877758 96.269227 Q 173.651448 95.980486 173.643644 95.765882 Q 173.585116 93.803229 173.65535 90.400777 C 173.663154 90.026196 173.358806 89.717946 172.984224 89.721848 L 166.09738 89.811591 C 165.722799 89.819395 165.387236 89.585282 165.258473 89.234111 Q 165.098495 88.801001 165.114103 87.595315 Q 165.164828 83.81438 165.133612 74.028429 C 165.129711 73.130993 165.769621 72.674471 166.670959 72.682275 Q 167.377202 72.682275 170.346543 72.670569 C 170.658695 72.666668 170.908416 72.420848 170.91622 72.108697 Q 170.963043 69.986066 170.845986 67.375699 Q 170.791359 66.173915 172.055573 66.310482 Q 172.843756 66.392421 173.827033 66.326089 C 174.182106 66.302678 174.45914 66.006134 174.45914 65.651062 L 174.45914 61.401899 C 174.45914 60.980494 174.115773 60.637127 173.690467 60.633225 Q 155.390582 60.551286 155.074529 60.551286 C 151.590137 60.547384 148.726147 60.188409 145.097385 60.172802 Q 143.255691 60.161096 140.309761 59.86065 Q 136.009873 59.415834 135.52994 59.404129 C 133.567287 59.3456 131.24566 58.701788 128.924033 58.452066 Q 128.619685 58.420851 126.329273 57.761431 C 126.188805 57.71851 126.079552 57.613159 126.036631 57.472691 C 125.84934 56.895211 126.333175 56.497217 126.910655 56.395768 C 129.446887 55.950952 130.804746 55.549057 133.16149 55.389079 Q 133.309762 55.381276 136.954131 54.93646 Q 139.271857 54.655523 140.852124 54.671131 C 142.767954 54.69064 144.309202 54.362881 146.049447 54.355077 C 148.191587 54.347274 150.942423 53.992201 153.810315 53.964888 Q 178.134725 53.715167 204.074518 53.941477 C 209.076747 53.984397 213.314204 54.362881 218.417882 54.655523 C 221.64865 54.842814 225.324235 55.295434 227.653666 55.568566 Q 231.508737 56.017284 232.866597 56.450395 Q 233.568938 56.676704 233.896697 57.066894 C 234.095693 57.304909 234.00595 57.671688 233.721112 57.792646 C 233.018771 58.096994 231.953553 58.487183 231.141959 58.584731 Q 230.306954 58.690082 227.103499 59.244151 C 225.823677 59.466559 224.567267 59.353404 223.314759 59.517284 Q 218.425686 60.161096 214.722788 60.211821 C 212.561138 60.243036 210.165375 60.566893 207.956903 60.574697 Q 198.904508 60.617618 185.263486 60.598108 C 184.920119 60.598108 184.643084 60.875143 184.643084 61.21851 L 184.643084 65.70959 C 184.643084 66.025643 184.900609 66.283168 185.216663 66.283168 L 187.503173 66.283168 C 187.873853 66.283168 188.174299 66.583614 188.174299 66.954294 L 188.174299 72.186735 C 188.174299 72.467671 188.400609 72.693981 188.681545 72.693981 L 192.641968 72.693981 C 192.965825 72.693981 193.211644 72.986623 193.157018 73.306578 Q 192.961923 74.426422 192.926806 75.386288 Q 192.782436 79.229654 193.000942 88.933665 C 193.008746 89.171681 193.211644 89.351168 193.44966 89.327756 L 193.465267 89.323855 C 193.703283 89.300443 193.886672 89.093643 193.878868 88.855627 Q 193.777419 83.81438 193.769615 83.209586 C 193.7384 80.072463 194.011533 76.673913 193.65646 73.447046 Q 193.617441 73.076366 194.159805 72.159421 C 194.187118 72.108697 194.226137 72.069678 194.27296 72.034561 L 204.706625 64.30881 C 204.808074 64.234674 204.921229 64.176145 205.038286 64.141028 Q 205.408966 64.023972 206.595142 64.027873 Q 255.856558 64.14493 289.092894 64.012266 Q 289.838156 64.008364 290.392225 64.234674 C 290.411735 64.238576 290.427342 64.250281 290.44295 64.261987 L 301.746738 72.596433 C 301.836481 72.666668 301.945735 72.701785 302.058889 72.701785 L 306.109056 72.701785 C 306.269033 72.701785 306.401698 72.56912 306.401698 72.405241 L 306.401698 66.954294 C 306.401698 66.614829 306.67483 66.341697 307.014295 66.341697 L 309.152533 66.341697 C 309.554429 66.341697 309.882188 66.013938 309.882188 65.612043 L 309.882188 61.187294 C 309.882188 60.836124 309.597349 60.551286 309.242277 60.551286 Q 297.01374 60.559089 290.981411 60.551286 C 288.148636 60.551286 285.382193 60.192311 282.767924 60.204017 Q 278.304157 60.219625 274.19156 59.579714 C 272.806387 59.361208 270.93738 59.419736 269.150312 59.045154 Q 267.515419 58.70569 265.572275 58.502791 C 265.342063 58.47938 265.119656 58.432557 264.901149 58.366225 L 263.160905 57.827763 C 262.505386 57.624865 262.524896 56.68841 263.188218 56.512825 Q 264.027125 56.294319 266.083423 55.80268 C 267.648083 55.428098 270.235039 55.252513 271.709955 55.014497 Q 273.383868 54.745267 274.347636 54.721855 Q 277.086766 54.651621 281.925115 54.284843 Q 285.588993 54.007809 289.49479 53.957084 Q 314.306936 53.641031 339.930676 53.976594 C 342.377164 54.007809 344.417855 54.277039 346.96189 54.397998 Q 351.363227 54.6087 358.761218 55.529548 Q 359.529892 55.627095 363.123536 56.364553 C 363.224985 56.387964 363.326435 56.426983 363.42008 56.485512 Q 363.755643 56.692312 364.056089 57.090305 C 364.216067 57.304909 364.138029 57.613159 363.896111 57.726314 C 362.011496 58.615946 360.259546 58.627652 358.562222 58.986626 C 356.205478 59.482167 353.076158 59.603125 351.273483 59.845043 Q 348.741154 60.188409 347.125769 60.192311 C 344.484187 60.200115 341.815291 60.508365 338.974712 60.531776 Q 331.584524 60.598108 321.053311 60.613716 C 320.592888 60.613716 320.218306 60.988298 320.218306 61.452623 L 320.218306 65.541808 C 320.218306 65.974919 320.604593 66.302678 321.0299 66.232444 Q 321.841494 66.099779 322.770145 66.189523 C 323.589543 66.271463 323.83146 66.649946 323.784637 67.477148 Q 323.648071 69.724639 323.706599 71.948719 C 323.718305 72.34281 324.030457 72.662766 324.420646 72.682275 Q 325.08787 72.717392 328.513733 72.65106 Q 329.274603 72.635452 329.711615 73.548496 C 329.758438 73.642141 329.781849 73.747492 329.781849 73.852843 Q 329.816966 86.96711 329.731124 88.742472 Q 329.684302 89.768671 328.48642 89.776474 Q 325.985306 89.799886 322.337034 89.682829 C 321.919532 89.671123 321.615184 90.07692 321.747848 90.474913 C 322.660892 93.229651 323.558327 96.066328 323.815852 99.172236 Q 324.155317 103.253617 323.866577 105.465992 Q 323.62466 107.331097 323.491995 108.817719 C 323.464682 109.12987 323.406153 109.442022 323.308606 109.74637 C 322.937926 110.936447 322.828673 112.009468 322.457993 113.012255 C 321.611282 115.294863 321.11184 116.789289 320.292442 118.463202 Q 316.14863 126.942018 308.711619 133.321615 Q 300.615189 140.263085 290.419539 144.040119 C 289.9279 144.223508 289.756217 144.832204 290.083976 145.241903 C 300.673717 158.516147 311.63804 172.004996 320.94796 183.730189 Q 325.879955 189.942005 335.150856 201.159951 Q 335.275716 201.312125 335.275716 201.464299 C 335.271814 201.655491 335.115738 201.807665 334.924546 201.803763 Q 317.947403 201.675001 293.798579 201.71402 C 292.245625 201.71402 291.773496 201.105324 290.805826 199.919148 Q 268.311405 172.32105 261.046078 163.428632 Q 259.54775 161.59084 256.629133 158.098645 Q 256.098476 157.466538 255.481976 157.08025 C 255.368822 157.010016 255.236157 156.970997 255.103493 156.970997 Q 251.12356 156.974899 232.410075 156.967095 C 231.399484 156.967095 230.747868 157.088054 230.720555 155.784821 Q 230.693242 154.64937 230.638615 153.541232 C 230.630811 153.357843 230.427913 153.252492 230.275739 153.350039 Q 221.383322 158.999982 213.068385 166.027294 Q 209.076747 169.398531 204.527138 173.92863 Q 199.247875 179.18058 196.317552 182.165529 Q 194.487564 184.030635 190.441299 188.876787 Q 189.262927 190.285371 184.229483 196.805437 Q 183.870509 197.273664 182.94576 197.777008 Q 179.867166 199.450921 177.042194 199.805993 C 175.03662 200.059617 172.383332 199.981579 170.245094 199.329962 Q 160.775196 196.450364 157.450782 187.144346 Q 157.009868 185.907446 157.01377 183.273667 Q 157.041084 161.938109 157.021574 159.768655 Q 157.017672 159.214586 157.450782 158.340562 C 157.513213 158.207898 157.61076 158.090841 157.731719 158.004999 L 165.543311 152.202882 Z" style="fill:#2e76b0;"/>
		<path d="M 181.615214 96.339461 L 179.960811 96.495536 L 174.334279 96.542359 C 174.264045 96.542359 174.205517 96.483831 174.205517 96.409695 L 174.205517 96.29654 C 174.205517 96.265325 174.228928 96.241913 174.260143 96.245815 L 181.615214 96.339461 Z" style="fill:#d7ecfa;"/>
		<path d="M 179.750109 98.009471 L 182.976975 98.161645 Q 178.638069 98.270898 174.303064 98.29431 Q 174.00652 98.29431 173.959698 98.083607 Q 173.987011 97.974354 174.010422 97.865101 L 179.750109 98.009471 Z" style="fill:#d7ecfa;"/>
		<path d="M 173.959698 98.083607 Q 174.00652 98.29431 174.303064 98.29431 Q 178.638069 98.270898 182.976975 98.161645 Q 184.978647 98.114823 186.992025 98.177253 Q 187.944087 98.208468 187.944087 99.183942 Q 187.940185 101.564097 187.893362 103.667218 L 173.690467 103.604788 Q 173.589018 100.795424 173.702173 98.700107 Q 173.71778 98.407465 173.959698 98.083607 Z" style="fill:#2e76b0;"/>
		<path d="M 187.893362 103.667218 Q 187.269059 104.209582 188.623017 104.98996 L 172.004848 105.025078 L 173.272964 104.525635 C 173.382217 104.478812 173.475863 104.396873 173.534391 104.287619 Q 173.682663 104.002781 173.690467 103.604788 L 187.893362 103.667218 Z" style="fill:#d7ecfa;"/>
		<path d="M 220.076187 132.603667 Q 222.34709 134.523399 223.884436 136.919162 L 225.222786 139.20177 Q 222.10127 136.244134 219.810858 132.841682 Q 219.943523 132.724626 220.076187 132.603667 Z" style="fill:#d7ecfa;"/>
		<path d="M 165.543311 152.202882 L 165.785229 151.769772 C 165.835953 151.68393 165.867169 151.586383 165.882776 151.488836 Q 166.191026 149.494968 166.784114 148.433652 Q 167.322575 147.462081 167.798606 146.361746 C 185.392248 140.551826 201.479758 153.595859 205.604061 170.07746 C 205.693804 170.444238 205.580649 170.830526 205.307517 171.091953 L 197.979759 178.041227 C 197.862702 178.15048 197.67151 178.076344 197.655902 177.916366 C 196.731153 166.433091 191.182659 155.199537 179.426252 151.652715 Q 172.675974 149.612024 165.687681 152.370664 C 165.644761 152.386271 165.597938 152.382369 165.555017 152.358958 Q 165.395039 152.269214 165.543311 152.202882 Z" style="fill:#d7ecfa;"/>
	</g>
	<g id="surface4">
	</g>
</svg>
