<?xml version="1.0" encoding="utf-8"?>
<svg xmlns="http://www.w3.org/2000/svg" width="490pt" height="280pt" viewBox="0 0 490 280" version="1.1" xmlns:xlink="http://www.w3.org/1999/xlink">
	<g id="surface2" data-size="192.10224602551 148" data-bboxpos="149 52.599011902879" data-pivot="245.05112301276 126.59901190288" data-center="245.05112301276 126.59901190288">
		<path d="M 179.46003 52.615544 C 182.614358 52.605646 185.432136 54.667837 187.137981 57.267848 Q 187.870471 58.38638 189.163877 61.474718 Q 190.559568 64.803919 195.95426 78.450676 Q 197.729395 82.941303 198.547672 84.749433 C 198.587266 84.841819 198.656556 84.921007 198.742343 84.973799 Q 199.23067 85.280653 199.834479 85.280653 Q 274.235039 85.287252 339.980995 85.264156 Q 340.565007 85.264156 341.01374 85.788777 C 341.096228 85.884463 341.122624 86.016443 341.086329 86.138525 Q 340.386834 88.332696 339.67744 90.840321 Q 334.67209 108.528972 325.770023 140.299915 Q 325.004537 143.035205 324.400728 144.94232 Q 323.51646 147.720504 321.949195 148.789544 Q 321.935997 148.796143 321.922799 148.802742 L 320.447919 149.535232 C 320.37863 149.571527 320.302741 149.591324 320.226853 149.601222 Q 318.121768 149.861883 317.461867 149.861883 Q 269.691619 149.921274 222.145739 149.865183 C 221.697006 149.861883 221.284568 150.109346 221.073399 150.505287 L 210.231223 170.747756 C 210.178431 170.846741 210.145436 170.955625 210.135537 171.067808 Q 210.086044 171.731009 210.607366 172.087355 C 210.679955 172.136848 210.769042 172.159944 210.858129 172.150046 L 214.111442 171.85639 C 214.269818 171.839892 214.431494 171.849791 214.58987 171.886085 C 215.553326 172.090655 216.678457 172.041162 217.833284 172.367813 Q 219.888877 172.948526 221.762996 173.92518 C 221.904875 173.997769 222.063251 174.037363 222.224927 174.037363 L 299.479559 174.037363 C 299.799611 174.037363 300.116364 173.961475 300.400121 173.816296 Q 301.973986 173.001318 303.867902 172.433803 C 305.266893 172.014766 306.454715 172.041162 307.866903 171.843192 C 308.048376 171.816796 308.233148 171.820095 308.411322 171.85309 C 309.404473 172.034563 310.209553 172.018066 311.017931 172.239132 Q 313.842309 173.004618 316.128866 174.575183 C 319.728627 177.046513 321.98219 181.593232 322.04818 185.984874 C 322.150465 192.656475 317.590547 198.734165 311.050927 200.228841 Q 305.798113 201.429862 300.980834 198.734165 C 297.324982 196.688472 294.507204 192.920436 293.913293 188.489199 Q 293.8638 188.136152 293.725221 187.169397 Q 293.46456 185.367867 293.936389 183.797302 Q 294.002379 183.586133 294.045273 182.80415 Q 294.084867 182.094757 293.583342 181.745009 C 293.500854 181.688917 293.405169 181.659222 293.302884 181.659222 L 228.160738 181.659222 C 227.952869 181.659222 227.768097 181.791202 227.698807 181.985873 C 227.487639 182.592982 228.018859 182.87674 227.933072 183.302376 Q 227.893478 183.506945 228.137641 184.671671 Q 228.28282 185.374466 228.266322 186.040966 C 228.131042 190.930834 226.190933 195.206993 222.092947 198.03137 C 215.513732 202.568191 207.034001 200.921738 202.43779 194.467904 Q 200.23042 191.369668 199.910368 187.588434 Q 199.850977 186.902137 199.89717 185.202891 C 199.96646 182.728262 201.028901 180.098556 202.378399 178.079258 C 202.619262 177.722911 202.668755 177.274179 202.513678 176.874938 Q 201.645908 174.627975 201.909869 172.404108 Q 202.045148 171.262479 203.63551 168.302822 Q 210.841631 154.883731 213.296464 150.465693 C 213.428444 150.228128 213.448241 149.94767 213.349256 149.693608 Q 209.802287 140.412098 208.508881 137.138988 Q 206.04415 130.899622 203.668505 124.590967 Q 201.111388 117.800584 195.931164 104.374894 Q 190.084439 89.223563 181.106484 65.99834 Q 180.740238 65.044783 179.882367 64.991991 C 177.114081 64.817117 173.98285 65.00189 171.620404 64.988691 Q 160.477972 64.919402 153.182765 64.958996 Q 152.041136 64.965595 151.417529 63.840463 Q 150.450774 62.098324 149.790873 60.86101 Q 148.682239 58.779021 149.127672 56.51556 C 149.493917 54.654639 150.833517 53.681285 152.618549 52.905901 Q 153.337842 52.595747 155.195463 52.599047 Q 170.188418 52.648539 179.46003 52.615544 Z M 153.779975 59.062779 Q 153.968047 59.940447 155.056884 60.468368 C 155.162468 60.517861 155.274652 60.544257 155.390134 60.544257 Q 166.344494 60.534358 180.86232 60.550856 Q 181.383642 60.550856 181.898365 60.095524 C 181.980853 60.019636 182.040244 59.92395 182.06334 59.815066 Q 182.429586 58.181811 181.146078 57.356934 C 181.083387 57.314041 181.017397 57.284345 180.944808 57.264548 L 179.981352 56.997288 C 179.93186 56.98409 179.882367 56.977491 179.832874 56.974192 Q 158.834818 56.944496 155.202062 57.046781 Q 153.357639 57.099573 153.779975 59.062779 Z M 232.611772 143.127591 C 232.931824 143.127591 233.169388 142.827336 233.096799 142.513883 L 220.796241 90.629152 C 220.740149 90.404786 220.542179 90.24641 220.311213 90.24641 L 201.715198 90.24641 C 201.372049 90.24641 201.131185 90.589558 201.246668 90.91291 L 220.027456 142.797641 C 220.100045 142.995611 220.284817 143.127591 220.495986 143.127591 L 232.611772 143.127591 Z M 250.551185 143.114393 C 250.78875 143.114393 250.970223 142.906525 250.937228 142.67226 L 243.688213 90.586259 C 243.661817 90.391588 243.496842 90.249709 243.302171 90.249709 L 225.7455 90.249709 C 225.494737 90.249709 225.309965 90.483974 225.366056 90.728137 L 237.716107 142.814138 C 237.759001 142.989012 237.917377 143.114393 238.09555 143.114393 L 250.551185 143.114393 Z M 267.863693 143.111094 C 268.058364 143.111094 268.21674 142.949418 268.213441 142.754747 L 267.170797 90.589558 C 267.167497 90.398187 267.012421 90.24641 266.821049 90.24641 L 248.58468 90.24641 C 248.370212 90.24641 248.208536 90.434481 248.238232 90.64565 L 255.493845 142.810839 C 255.520241 142.982413 255.66542 143.111094 255.840293 143.111094 L 267.863693 143.111094 Z M 285.1828 143.111094 C 285.463258 143.111094 285.697523 142.896626 285.723919 142.616168 L 290.607188 90.840321 C 290.636883 90.523568 290.386121 90.24641 290.066069 90.24641 L 272.215741 90.24641 C 271.912187 90.24641 271.668023 90.497172 271.671323 90.800727 L 272.710667 142.576574 C 272.717266 142.873529 272.95813 143.111094 273.255086 143.111094 L 285.1828 143.111094 Z M 304.517905 143.107794 C 304.778566 143.107794 304.999633 142.923022 305.045826 142.665661 L 314.36693 90.883214 C 314.426321 90.553264 314.175559 90.249709 313.839009 90.249709 L 295.592741 90.249709 C 295.315583 90.249709 295.084617 90.460877 295.058221 90.738036 L 290.174952 142.520482 C 290.145257 142.833935 290.39272 143.107794 290.709472 143.107794 L 304.517905 143.107794 Z M 319.738526 143.120992 C 319.926598 143.120992 320.091573 142.995611 320.141065 142.814138 L 334.681988 90.787529 C 334.757877 90.520269 334.556607 90.256308 334.279448 90.256308 L 319.342585 90.256308 C 319.141315 90.256308 318.966441 90.401486 318.930147 90.602756 L 309.566149 142.629366 C 309.519956 142.883428 309.717926 143.120992 309.978587 143.120992 L 319.738526 143.120992 Z M 223.765796 186.176246 C 223.765796 180.817848 219.423646 176.475698 214.065249 176.475698 C 208.706851 176.475698 204.364701 180.817848 204.364701 186.176246 C 204.364701 191.534643 208.706851 195.876793 214.065249 195.876793 C 219.423646 195.876793 223.765796 191.534643 223.765796 186.176246 Z M 317.524557 186.156449 C 317.524557 180.80135 313.185707 176.4625 307.830609 176.4625 C 302.475511 176.4625 298.13666 180.80135 298.13666 186.156449 C 298.13666 191.511547 302.475511 195.850397 307.830609 195.850397 C 313.185707 195.850397 317.524557 191.511547 317.524557 186.156449 Z" style="fill:#000000;"/>
	</g>
	<g id="surface4">
	</g>
</svg>
