<?xml version="1.0" encoding="utf-8"?>
<svg xmlns="http://www.w3.org/2000/svg" width="490pt" height="280pt" viewBox="0 0 490 280" version="1.1" xmlns:xlink="http://www.w3.org/1999/xlink">
	<g id="surface2" data-size="134.04379359248 148" data-bboxpos="178 53.690648097216" data-pivot="245.02189679624 127.69064809722" data-center="245.02189679624 127.69064809722">
		<path vector-effect="non-scaling-stroke" d="M 244.9245 53.699661 L 245.001407 69.634683" style="fill:none;stroke-width:0.50;stroke:#499711;"/>
		<path stroke-opacity="0.992" vector-effect="non-scaling-stroke" d="M 245.001407 69.634683 L 245.074468 149.901978" style="fill:none;stroke-width:0.50;stroke:#aed57f;"/>
		<path vector-effect="non-scaling-stroke" d="M 245.074468 149.901978 Q 245.605123 151.670827 244.989871 152.966701" style="fill:none;stroke-width:0.50;stroke:#499711;"/>
		<path vector-effect="non-scaling-stroke" d="M 244.989871 152.966701 L 244.50536 153.066679" style="fill:none;stroke-width:0.50;stroke:#3d8912;"/>
		<path vector-effect="non-scaling-stroke" d="M 268.369441 149.04447 Q 268.050279 149.198283 267.996445 149.482837 C 267.973373 149.613578 268.092578 149.721247 268.219473 149.682794 Q 268.384822 149.62896 268.388668 149.467456" style="fill:none;stroke-width:0.50;stroke:#717229;"/>
		<path vector-effect="non-scaling-stroke" d="M 221.218078 149.259809 Q 221.406499 149.344406 221.491096 149.229046 Q 221.560311 149.136758 221.42188 148.956028" style="fill:none;stroke-width:0.50;stroke:#717229;"/>
		<path vector-effect="non-scaling-stroke" d="M 245.389785 152.670611 Q 245.224436 152.739827 244.989871 152.966701" style="fill:none;stroke-width:0.50;stroke:#247215;"/>
		<path stroke-opacity="0.992" vector-effect="non-scaling-stroke" d="M 245.074468 149.901978 Q 245.597432 119.081705 245.593587 110.022122 Q 245.589741 95.194552 245.262889 72.695561 Q 245.235972 70.857496 245.001407 69.634683" style="fill:none;stroke-width:0.50;stroke:#95bf81;"/>
		<path vector-effect="non-scaling-stroke" d="M 271.922521 144.895366 Q 271.403402 143.591801 270.31902 142.738139 C 270.226733 142.668923 270.103682 142.665078 270.011395 142.734294 L 260.663412 149.659722" style="fill:none;stroke-width:0.50;stroke:#247215;"/>
		<path vector-effect="non-scaling-stroke" d="M 228.574183 148.963719 Q 221.19116 143.422607 217.641926 139.665725 Q 213.988868 135.801174 212.062361 132.940253 Q 209.289882 128.821911 208.413149 127.279936 C 205.925224 122.903957 202.937407 117.251331 200.453328 111.875568 Q 195.181389 100.466492 189.990201 88.265278 C 189.963284 88.207599 189.878687 88.211444 189.863305 88.272969 Q 189.821007 88.411401 189.874841 88.588286 C 191.985924 95.479106 194.735331 101.908488 198.323018 109.995205 C 199.242051 112.063989 200.253371 113.759777 201.095497 115.601687 C 203.064303 119.919986 205.533001 124.088317 207.9594 128.175897 Q 209.993577 131.60208 212.616088 136.220315 Q 214.888674 140.219452 217.318919 144.237815" style="fill:none;stroke-width:0.50;stroke:#3d8912;"/>
		<path vector-effect="non-scaling-stroke" d="M 223.802135 71.78422 C 223.836743 71.615025 223.702157 71.461212 223.532963 71.472748 C 215.949984 71.90727 210.274285 77.556051 206.813494 83.900836 C 206.313602 84.816023 205.76372 85.635077 205.540692 86.727149 C 205.45994 87.130908 205.636825 87.542358 205.982904 87.765386 Q 208.459292 89.35735 210.128163 86.988631 C 212.904487 83.039483 215.576987 79.463332 218.672473 76.59472 Q 222.679301 72.883982 223.679085 72.003403 Q 223.775218 71.918806 223.802135 71.78422" style="fill:none;stroke-width:0.50;stroke:#955423;"/>
		<path vector-effect="non-scaling-stroke" d="M 266.435243 71.864971 Q 266.46216 71.999558 266.558294 72.084155 Q 267.558078 72.964734 271.557215 76.679317 C 274.648855 79.547929 277.31751 83.12408 280.089989 87.073228 Q 281.755014 89.441948 284.231403 87.853829 C 284.581327 87.6308 284.754367 87.21935 284.673615 86.815591 C 284.454432 85.723519 283.90455 84.904465 283.404658 83.989278 C 279.951557 77.644493 274.28355 71.995712 266.704416 71.5535 C 266.535222 71.545809 266.404481 71.699622 266.435243 71.864971" style="fill:none;stroke-width:0.50;stroke:#955423;"/>
		<path vector-effect="non-scaling-stroke" d="M 292.206605 104.18492 Q 291.852835 104.361805 292.014339 104.565607" style="fill:none;stroke-width:0.50;stroke:#7d8028;"/>
		<path stroke-opacity="0.992" vector-effect="non-scaling-stroke" d="M 279.701611 128.560429 Q 278.175017 130.813789 276.790701 133.205581 Q 276.65996 133.4363 276.525373 133.659329 Q 274.733452 136.685599 271.611049 141.03466 C 271.595668 141.057732 271.591823 141.088495 271.607204 141.115412 Q 271.630276 141.161556 271.68411 141.176937 C 271.695646 141.180783 271.711028 141.180783 271.722564 141.173092 Q 271.991736 141.000052 272.545463 140.20407 Q 276.452312 134.605279 279.832352 128.641181" style="fill:none;stroke-width:0.50;stroke:#95bf81;"/>
		<path stroke-opacity="0.992" vector-effect="non-scaling-stroke" d="M 292.521921 104.077251 Q 295.859663 97.559427 298.909005 90.891635 Q 299.312764 90.003365 299.654998 89.084332 C 299.670379 89.034343 299.647307 88.976663 299.597318 88.957437 L 299.50503 88.918984 C 299.493494 88.915138 299.481958 88.918984 299.478113 88.93052 L 292.306583 104.134931" style="fill:none;stroke-width:0.50;stroke:#95bf81;"/>
		<path stroke-opacity="0.992" vector-effect="non-scaling-stroke" d="M 228.470359 156.04296 Q 215.861541 157.469575 203.56035 155.158536 Q 193.281798 153.228183 183.68387 148.03315 C 183.656952 148.017769 183.630035 148.021614 183.62619 148.036995 Q 183.62619 148.056222 183.622344 148.075449 C 183.614654 148.102366 183.641571 148.144665 183.687715 148.183118 Q 184.199143 148.609949 185.110485 149.109841 Q 193.447147 153.674241 203.97949 155.616129 Q 209.574436 156.646676 216.234538 156.881241 Q 222.325531 157.092734 228.539575 156.169856 C 228.562647 156.16601 228.578028 156.146784 228.574183 156.123712 C 228.566492 156.073723 228.520348 156.035269 228.470359 156.04296" style="fill:none;stroke-width:0.50;stroke:#89b083;"/>
		<path stroke-opacity="0.992" vector-effect="non-scaling-stroke" d="M 284.023755 155.677654 Q 277.248294 156.700511 271.030405 156.604377 Q 267.458099 156.550543 261.697804 156.016043 C 261.643969 156.012198 261.597825 156.050651 261.59398 156.104485 L 261.59398 156.108331 C 261.58629 156.15832 261.624743 156.204464 261.678577 156.212154 Q 273.449114 157.807964 285.161971 155.854539" style="fill:none;stroke-width:0.50;stroke:#89b083;"/>
		<path stroke-opacity="0.992" vector-effect="non-scaling-stroke" d="M 286.411702 155.758406 Q 286.815461 155.550759 287.473011 155.466162" style="fill:none;stroke-width:0.50;stroke:#89b083;"/>
		<path stroke-opacity="0.992" vector-effect="non-scaling-stroke" d="M 288.399734 155.285431 Q 289.714835 154.962424 291.064544 154.635572 Q 298.751346 152.770589 304.926937 149.382859 Q 305.807516 148.902193 306.318944 148.55996 C 306.353552 148.536888 306.365088 148.494589 306.342016 148.459981 L 306.342016 148.456136 C 306.322789 148.421528 306.276646 148.409992 306.242038 148.429219 Q 296.021166 153.804982 284.596709 155.646892" style="fill:none;stroke-width:0.50;stroke:#89b083;"/>
		<path d="M 244.9245 53.699661 L 245.001407 69.634683 L 245.074468 149.901978 Q 245.605123 151.670827 244.989871 152.966701 L 244.50536 153.066679 C 243.955479 151.970762 243.028756 151.044039 242.444266 150.148078 Q 241.009961 147.960089 240.037094 146.506556 Q 236.153316 140.711653 232.723287 133.359394 Q 228.358844 123.999875 226.213154 114.167381 C 225.87092 112.586953 225.536377 110.35282 225.271049 108.303262 Q 225.067247 106.715143 225.044175 105.942233 Q 224.798074 98.332337 225.044175 95.625229 Q 226.059341 84.508397 231.469712 74.687439 Q 235.638043 67.127532 240.510068 58.925456 Q 242.213547 56.06069 242.978766 54.868639 Q 243.570946 53.953452 244.9245 53.699661 Z" style="fill:#62ad0e;"/>
		<path d="M 245.389785 152.670611 Q 245.224436 152.739827 244.989871 152.966701 Q 245.605123 151.670827 245.074468 149.901978 Q 245.597432 119.081705 245.593587 110.022122 Q 245.589741 95.194552 245.262889 72.695561 Q 245.235972 70.857496 245.001407 69.634683 L 244.9245 53.699661 Q 246.401105 53.584301 247.277839 54.945546 Q 248.381447 56.66056 250.611735 60.478967 Q 251.623055 62.209363 253.872569 66.043151 Q 257.344897 71.961104 259.182962 75.533411 Q 265.620034 88.034559 265.258574 102.235341 Q 265.243193 102.835211 264.743301 107.33424 Q 264.427984 110.145172 263.912711 112.390842 Q 262.859092 116.955241 262.193851 119.308579 Q 261.420941 122.027224 260.425002 124.499767 C 259.382919 127.08767 258.602318 129.194908 257.648678 131.267537 Q 253.75721 139.754167 249.042842 147.060283 Q 248.735217 147.533258 248.316076 148.186963 Q 246.924069 150.340345 245.389785 152.670611 Z" style="fill:#308013;"/>
		<path d="M 228.228103 69.550086 Q 228.54342 69.838486 228.893344 70.342223 C 229.504751 71.222802 228.328082 72.745551 227.720521 73.353112 C 225.847848 75.221939 222.748517 77.867522 220.495157 80.401591 Q 219.34156 81.70131 217.818811 83.231749 C 216.046117 85.01598 213.800448 88.1653 212.416131 89.734192 C 210.885692 91.464588 209.543674 90.783966 207.555641 89.64575 Q 204.829307 88.080703 203.514206 86.788674 Q 202.179878 85.481264 203.048922 83.566292 C 206.102109 76.83313 211.904703 71.49582 219.087768 69.438572 C 219.187747 69.411655 219.287725 69.392428 219.391549 69.380892 Q 220.052944 69.323212 220.918142 69.150173 Q 224.521211 68.423406 227.878179 69.35782 C 228.00892 69.392428 228.128125 69.457799 228.228103 69.550086 Z M 223.802135 71.78422 C 223.836743 71.615025 223.702157 71.461212 223.532963 71.472748 C 215.949984 71.90727 210.274285 77.556051 206.813494 83.900836 C 206.313602 84.816023 205.76372 85.635077 205.540692 86.727149 C 205.45994 87.130908 205.636825 87.542358 205.982904 87.765386 Q 208.459292 89.35735 210.128163 86.988631 C 212.904487 83.039483 215.576987 79.463332 218.672473 76.59472 Q 222.679301 72.883982 223.679085 72.003403 Q 223.775218 71.918806 223.802135 71.78422 Z" style="fill:#5f2809;"/>
		<path d="M 286.523216 87.069383 Q 285.015849 88.203753 281.989579 90.12257 C 279.201719 91.887574 277.828938 89.799563 276.198521 87.761541 Q 275.12183 86.411832 274.179726 85.342832 Q 269.119279 79.597918 263.4282 74.27599 Q 262.486095 73.391565 261.282509 71.468903 C 261.205602 71.342007 261.167149 71.195885 261.17484 71.049763 Q 261.228674 70.034597 262.00543 69.511633 C 262.101563 69.446263 262.209232 69.400119 262.320746 69.373201 C 267.950301 67.988885 273.868255 69.669291 278.409582 73.022414 Q 280.959032 74.910468 283.473874 77.798306 Q 285.777223 80.447735 287.176921 83.654735 Q 287.880615 85.265926 286.75009 86.838663 C 286.68472 86.927106 286.611658 87.004012 286.523216 87.069383 Z M 266.435243 71.864971 Q 266.46216 71.999558 266.558294 72.084155 Q 267.558078 72.964734 271.557215 76.679317 C 274.648855 79.547929 277.31751 83.12408 280.089989 87.073228 Q 281.755014 89.441948 284.231403 87.853829 C 284.581327 87.6308 284.754367 87.21935 284.673615 86.815591 C 284.454432 85.723519 283.90455 84.904465 283.404658 83.989278 C 279.951557 77.644493 274.28355 71.995712 266.704416 71.5535 C 266.535222 71.545809 266.404481 71.699622 266.435243 71.864971 Z" style="fill:#5f2809;"/>
		<path fill-opacity="0.984" d="M 245.001407 69.634683 Q 245.235972 70.857496 245.262889 72.695561 Q 245.589741 95.194552 245.593587 110.022122 Q 245.597432 119.081705 245.074468 149.901978 L 245.001407 69.634683 Z" style="fill:#fbfef1;"/>
		<path d="M 271.922521 144.895366 Q 271.403402 143.591801 270.31902 142.738139 C 270.226733 142.668923 270.103682 142.665078 270.011395 142.734294 L 260.663412 149.659722 Q 261.344034 145.756718 262.097718 142.130578 Q 263.55125 135.159005 263.574322 135.043645 Q 265.162441 127.368379 266.923599 120.892853 Q 267.87724 117.389763 269.188495 114.052022 Q 272.418567 105.838409 278.701827 99.939682 Q 279.86696 98.84761 281.70887 97.524819 C 285.773378 94.602372 290.637713 91.645318 293.152555 89.845707 Q 294.440738 88.922829 298.039961 85.888868 C 299.539638 84.623757 300.758606 84.008505 302.565908 84.816023 C 302.669732 84.866012 302.762019 84.935228 302.835081 85.02367 Q 303.47725 85.79658 303.607991 86.481048 Q 304.346293 90.441732 304.788505 94.106326 Q 305.299933 98.332337 305.396066 101.800819 Q 305.415293 102.431452 305.284552 110.037503 Q 305.269171 111.075741 304.511642 115.297907 Q 303.761804 119.497 301.746854 124.953515 C 301.254652 126.295533 300.554803 127.691386 299.939552 128.841138 Q 298.186084 132.105818 295.948105 134.751401 Q 291.73363 139.734941 285.569576 141.803725 C 284.665924 142.107506 283.89686 142.445894 282.977827 142.545873 Q 282.716345 142.576635 281.262813 143.072682 C 281.243586 143.080373 281.228205 143.084218 281.208978 143.088063 L 276.648424 143.93788 C 276.625352 143.941725 276.60228 143.945571 276.579208 143.945571 Q 274.148963 144.064776 271.922521 144.895366 Z M 292.306583 104.134931 Q 292.256594 104.161848 292.206605 104.18492 Q 291.852835 104.361805 292.014339 104.565607 L 279.701611 128.560429 Q 278.175017 130.813789 276.790701 133.205581 Q 276.65996 133.4363 276.525373 133.659329 Q 274.733452 136.685599 271.611049 141.03466 C 271.595668 141.057732 271.591823 141.088495 271.607204 141.115412 Q 271.630276 141.161556 271.68411 141.176937 C 271.695646 141.180783 271.711028 141.180783 271.722564 141.173092 Q 271.991736 141.000052 272.545463 140.20407 Q 276.452312 134.605279 279.832352 128.641181 Q 285.32732 119.323961 286.796234 116.266928 Q 289.657155 110.314367 292.421943 104.319506 Q 292.487314 104.18492 292.521921 104.077251 Q 295.859663 97.559427 298.909005 90.891635 Q 299.312764 90.003365 299.654998 89.084332 C 299.670379 89.034343 299.647307 88.976663 299.597318 88.957437 L 299.50503 88.918984 C 299.493494 88.915138 299.481958 88.918984 299.478113 88.93052 L 292.306583 104.134931 Z" style="fill:#308013;"/>
		<path d="M 228.574183 148.963719 Q 221.19116 143.422607 217.641926 139.665725 Q 213.988868 135.801174 212.062361 132.940253 Q 209.289882 128.821911 208.413149 127.279936 C 205.925224 122.903957 202.937407 117.251331 200.453328 111.875568 Q 195.181389 100.466492 189.990201 88.265278 C 189.963284 88.207599 189.878687 88.211444 189.863305 88.272969 Q 189.821007 88.411401 189.874841 88.588286 C 191.985924 95.479106 194.735331 101.908488 198.323018 109.995205 C 199.242051 112.063989 200.253371 113.759777 201.095497 115.601687 C 203.064303 119.919986 205.533001 124.088317 207.9594 128.175897 Q 209.993577 131.60208 212.616088 136.220315 Q 214.888674 140.219452 217.318919 144.237815 Q 213.819674 144.103229 212.554563 143.799448 Q 210.620365 143.334164 209.151451 143.130362 Q 207.532569 142.903488 203.844904 141.634531 C 198.249957 139.711869 194.07009 135.889617 190.98614 130.575379 Q 187.179269 124.015256 185.598841 116.159259 Q 184.868229 112.533119 184.672118 109.63759 Q 184.541377 107.753381 184.587521 102.516049 Q 184.614438 98.928362 185.064341 95.421427 Q 185.748809 90.087962 186.340989 87.227041 Q 186.494801 86.492584 186.821654 85.631231 C 186.95624 85.277462 187.233104 84.996753 187.586874 84.858321 C 189.451856 84.116174 190.532392 84.581458 192.085903 85.923476 Q 195.250604 88.657502 197.023299 89.911077 Q 199.11131 91.387682 205.329199 95.448344 C 206.994224 96.53657 208.251645 97.547891 209.862836 98.786085 Q 210.535767 99.301358 211.489408 100.235772 C 219.037779 107.611104 222.214017 117.974252 224.409697 128.352782 Q 226.713046 139.246585 228.205031 146.125869 C 228.431906 147.179488 228.497276 147.971625 228.574183 148.963719 Z" style="fill:#62ad0e;"/>
		<path d="M 228.574183 148.963719 L 242.463493 163.441364 C 242.774964 163.764371 243.309464 163.702846 243.536338 163.318313 C 244.013159 162.514641 243.79013 160.407403 243.928561 159.399928 Q 244.147745 157.815655 244.213115 156.608223 Q 244.313094 154.839374 244.50536 153.066679 L 244.989871 152.966701 Q 245.224436 152.739827 245.389785 152.670611 Q 245.593587 154.078 245.697411 155.56614 C 245.855069 157.927169 246.174231 160.218982 246.185767 162.606928 Q 246.189612 162.903018 246.381878 163.176036 C 246.612598 163.502889 247.085573 163.541342 247.366281 163.256788 L 260.663412 149.659722 L 270.011395 142.734294 C 270.103682 142.665078 270.226733 142.668923 270.31902 142.738139 Q 271.403402 143.591801 271.922521 144.895366 Q 269.8422 146.729585 268.369441 149.04447 Q 268.050279 149.198283 267.996445 149.482837 C 267.973373 149.613578 268.092578 149.721247 268.219473 149.682794 Q 268.384822 149.62896 268.388668 149.467456 Q 270.522823 149.394395 272.587762 148.729154 C 272.764647 148.671474 272.953067 148.636866 273.145334 148.62533 C 274.829586 148.513816 276.509992 147.952398 278.044276 147.840884 Q 279.740064 147.717834 281.293575 147.410208 Q 282.020342 147.267931 288.518939 146.210467 Q 290.776144 145.845161 294.902177 144.987653 Q 300.274095 143.87251 302.262127 143.40338 Q 307.034174 142.2767 307.960898 141.942157 C 308.837631 141.62684 309.491337 141.596078 310.637243 141.357668 Q 311.006394 141.280761 311.821603 141.796035 C 311.933117 141.869096 312.006178 141.988301 312.017714 142.122887 Q 312.106157 142.999621 311.894664 143.57642 Q 311.037157 145.956675 309.945085 147.883182 Q 305.561415 155.62382 298.420649 161.73404 Q 293.45249 165.979277 287.796018 168.194184 Q 286.915439 168.540263 286.200209 168.686386 C 285.496514 168.828663 284.665924 169.167051 284.039137 169.26703 Q 278.348057 170.182217 274.402755 169.113217 Q 269.311546 167.736591 265.63157 165.883144 Q 260.259653 163.183727 257.702512 161.903234 Q 256.491235 161.299518 255.59912 161.622525 C 255.487606 161.664824 255.383782 161.722504 255.291494 161.79941 Q 253.138113 163.564414 251.826857 165.41786 Q 248.885184 169.566965 247.681598 174.915811 Q 246.958677 178.138192 247.354745 182.264225 C 248.212252 191.154614 255.472224 197.237917 263.66661 199.360536 C 263.951164 199.433597 264.02807 199.802748 263.797351 199.987323 Q 263.520488 200.206507 263.105193 200.256496 C 261.751638 200.406464 260.551897 200.798687 259.140663 200.910201 Q 256.141311 201.148611 254.17635 201.363949 C 249.90035 201.829234 244.928346 201.663885 241.517543 201.656194 Q 239.248802 201.652349 237.356903 201.410093 Q 235.976431 201.237054 231.219765 200.867903 C 229.566276 200.741007 227.393668 200.30264 226.036269 199.975787 C 225.828621 199.925798 225.732488 199.683543 225.847848 199.502813 Q 226.086258 199.129816 226.247762 198.964467 Q 228.366535 196.826467 230.135384 194.684621 Q 236.534003 186.943984 238.333615 177.026893 Q 238.39514 176.688505 238.771982 172.5394 C 238.833507 171.851087 238.798899 171.158929 238.672004 170.482152 C 238.472047 169.409307 238.468201 168.374914 238.125967 167.213626 Q 237.180018 163.975864 234.465219 161.787874 C 234.365241 161.707122 234.246036 161.657133 234.11914 161.637907 Q 233.011687 161.480248 232.427197 161.787874 Q 226.190082 165.087162 220.629743 167.532788 C 220.456703 167.609695 220.279819 167.667375 220.095243 167.709673 Q 219.149293 167.921166 218.434063 168.305699 C 218.257178 168.397986 218.064912 168.463357 217.864955 168.490274 Q 217.472732 168.544109 214.557976 169.251648 Q 213.292865 169.559274 210.824167 169.674634 Q 209.009174 169.759231 207.078821 169.451605 Q 202.172188 168.671004 197.996166 166.24076 Q 185.448873 158.94618 178.846452 145.660585 Q 178.661876 145.295279 178.408085 144.449308 C 178.069696 143.307247 177.423682 141.772963 179.111779 141.38843 Q 179.577064 141.284606 180.788341 141.607614 Q 190.759266 144.260887 201.230083 146.07588 Q 207.759443 147.210251 208.120904 147.26024 Q 214.215743 148.110057 220.595135 149.252118 C 220.791247 149.286726 220.998894 149.209819 221.218078 149.259809 Q 221.406499 149.344406 221.491096 149.229046 Q 221.560311 149.136758 221.42188 148.956028 L 217.318919 144.237815 Q 214.888674 140.219452 212.616088 136.220315 Q 209.993577 131.60208 207.9594 128.175897 C 205.533001 124.088317 203.064303 119.919986 201.095497 115.601687 C 200.253371 113.759777 199.242051 112.063989 198.323018 109.995205 C 194.735331 101.908488 191.985924 95.479106 189.874841 88.588286 Q 189.821007 88.411401 189.863305 88.272969 C 189.878687 88.211444 189.963284 88.207599 189.990201 88.265278 Q 195.181389 100.466492 200.453328 111.875568 C 202.937407 117.251331 205.925224 122.903957 208.413149 127.279936 Q 209.289882 128.821911 212.062361 132.940253 Q 213.988868 135.801174 217.641926 139.665725 Q 221.19116 143.422607 228.574183 148.963719 Z M 228.470359 156.04296 Q 215.861541 157.469575 203.56035 155.158536 Q 193.281798 153.228183 183.68387 148.03315 C 183.656952 148.017769 183.630035 148.021614 183.62619 148.036995 Q 183.62619 148.056222 183.622344 148.075449 C 183.614654 148.102366 183.641571 148.144665 183.687715 148.183118 Q 184.199143 148.609949 185.110485 149.109841 Q 193.447147 153.674241 203.97949 155.616129 Q 209.574436 156.646676 216.234538 156.881241 Q 222.325531 157.092734 228.539575 156.169856 C 228.562647 156.16601 228.578028 156.146784 228.574183 156.123712 C 228.566492 156.073723 228.520348 156.035269 228.470359 156.04296 Z M 284.596709 155.646892 Q 284.289083 155.600748 284.023755 155.677654 Q 277.248294 156.700511 271.030405 156.604377 Q 267.458099 156.550543 261.697804 156.016043 C 261.643969 156.012198 261.597825 156.050651 261.59398 156.104485 L 261.59398 156.108331 C 261.58629 156.15832 261.624743 156.204464 261.678577 156.212154 Q 273.449114 157.807964 285.161971 155.854539 Q 285.719543 155.996816 286.411702 155.758406 Q 286.815461 155.550759 287.473011 155.466162 Q 288.034428 155.554604 288.399734 155.285431 Q 289.714835 154.962424 291.064544 154.635572 Q 298.751346 152.770589 304.926937 149.382859 Q 305.807516 148.902193 306.318944 148.55996 C 306.353552 148.536888 306.365088 148.494589 306.342016 148.459981 L 306.342016 148.456136 C 306.322789 148.421528 306.276646 148.409992 306.242038 148.429219 Q 296.021166 153.804982 284.596709 155.646892 Z" style="fill:#186416;"/>
		<path d="M 221.42188 148.956028 Q 221.560311 149.136758 221.491096 149.229046 Q 221.406499 149.344406 221.218078 149.259809 Q 221.110409 149.098305 221.42188 148.956028 Z" style="fill:#ca7f3c;"/>
		<path d="M 268.369441 149.04447 Q 268.41174 149.125222 268.388668 149.467456 Q 268.384822 149.62896 268.219473 149.682794 C 268.092578 149.721247 267.973373 149.613578 267.996445 149.482837 Q 268.050279 149.198283 268.369441 149.04447 Z" style="fill:#ca7f3c;"/>
		<path d="M 223.802135 71.78422 Q 223.775218 71.918806 223.679085 72.003403 Q 222.679301 72.883982 218.672473 76.59472 C 215.576987 79.463332 212.904487 83.039483 210.128163 86.988631 Q 208.459292 89.35735 205.982904 87.765386 C 205.636825 87.542358 205.45994 87.130908 205.540692 86.727149 C 205.76372 85.635077 206.313602 84.816023 206.813494 83.900836 C 210.274285 77.556051 215.949984 71.90727 223.532963 71.472748 C 223.702157 71.461212 223.836743 71.615025 223.802135 71.78422 Z" style="fill:#ca7f3c;"/>
		<path d="M 266.435243 71.864971 C 266.404481 71.699622 266.535222 71.545809 266.704416 71.5535 C 274.28355 71.995712 279.951557 77.644493 283.404658 83.989278 C 283.90455 84.904465 284.454432 85.723519 284.673615 86.815591 C 284.754367 87.21935 284.581327 87.6308 284.231403 87.853829 Q 281.755014 89.441948 280.089989 87.073228 C 277.31751 83.12408 274.648855 79.547929 271.557215 76.679317 Q 267.558078 72.964734 266.558294 72.084155 Q 266.46216 71.999558 266.435243 71.864971 Z" style="fill:#ca7f3c;"/>
		<path fill-opacity="0.984" d="M 292.521921 104.077251 L 292.306583 104.134931 L 299.478113 88.93052 C 299.481958 88.918984 299.493494 88.915138 299.50503 88.918984 L 299.597318 88.957437 C 299.647307 88.976663 299.670379 89.034343 299.654998 89.084332 Q 299.312764 90.003365 298.909005 90.891635 Q 295.859663 97.559427 292.521921 104.077251 Z" style="fill:#fbfef1;"/>
		<path d="M 292.206605 104.18492 L 292.014339 104.565607 Q 291.852835 104.361805 292.206605 104.18492 Z" style="fill:#ca7f3c;"/>
		<path fill-opacity="0.984" d="M 279.832352 128.641181 Q 276.452312 134.605279 272.545463 140.20407 Q 271.991736 141.000052 271.722564 141.173092 C 271.711028 141.180783 271.695646 141.180783 271.68411 141.176937 Q 271.630276 141.161556 271.607204 141.115412 C 271.591823 141.088495 271.595668 141.057732 271.611049 141.03466 Q 274.733452 136.685599 276.525373 133.659329 Q 276.65996 133.4363 276.790701 133.205581 Q 278.175017 130.813789 279.701611 128.560429 Q 279.766982 128.602728 279.832352 128.641181 Z" style="fill:#fbfef1;"/>
		<path fill-opacity="0.984" d="M 228.470359 156.04296 C 228.520348 156.035269 228.566492 156.073723 228.574183 156.123712 C 228.578028 156.146784 228.562647 156.16601 228.539575 156.169856 Q 222.325531 157.092734 216.234538 156.881241 Q 209.574436 156.646676 203.97949 155.616129 Q 193.447147 153.674241 185.110485 149.109841 Q 184.199143 148.609949 183.687715 148.183118 C 183.641571 148.144665 183.614654 148.102366 183.622344 148.075449 Q 183.62619 148.056222 183.62619 148.036995 C 183.630035 148.021614 183.656952 148.017769 183.68387 148.03315 Q 193.281798 153.228183 203.56035 155.158536 Q 215.861541 157.469575 228.470359 156.04296 Z" style="fill:#fbfef1;"/>
		<path fill-opacity="0.984" d="M 288.399734 155.285431 L 287.473011 155.466162 Q 286.815461 155.550759 286.411702 155.758406 Q 285.688781 155.673809 285.161971 155.854539 Q 273.449114 157.807964 261.678577 156.212154 C 261.624743 156.204464 261.58629 156.15832 261.59398 156.108331 L 261.59398 156.104485 C 261.597825 156.050651 261.643969 156.012198 261.697804 156.016043 Q 267.458099 156.550543 271.030405 156.604377 Q 277.248294 156.700511 284.023755 155.677654 L 284.596709 155.646892 Q 296.021166 153.804982 306.242038 148.429219 C 306.276646 148.409992 306.322789 148.421528 306.342016 148.456136 L 306.342016 148.459981 C 306.365088 148.494589 306.353552 148.536888 306.318944 148.55996 Q 305.807516 148.902193 304.926937 149.382859 Q 298.751346 152.770589 291.064544 154.635572 Q 289.714835 154.962424 288.399734 155.285431 Z" style="fill:#fbfef1;"/>
	</g>
	<g id="surface4">
	</g>
</svg>
