<?xml version="1.0" encoding="utf-8"?>
<svg xmlns="http://www.w3.org/2000/svg" width="490pt" height="280pt" viewBox="0 0 490 280" version="1.1" xmlns:xlink="http://www.w3.org/1999/xlink">
	<g id="surface2" data-size="162.75073722138 148" data-bboxpos="163.5 50.785565154862" data-pivot="244.87536861069 124.78556515486" data-center="244.87536861069 124.78556515486">
		<path stroke-opacity="0.969" vector-effect="non-scaling-stroke" d="M 255.641642 93.750573 C 255.641044 93.612485 255.528583 93.500024 255.390831 93.498876 L 248.475713 93.486816 C 248.335879 93.485668 248.223418 93.598128 248.224016 93.737628 L 248.213249 99.906197 C 248.213847 100.044285 248.326308 100.156745 248.46406 100.157894 L 255.379178 100.169954 C 255.519012 100.171102 255.631473 100.058641 255.630875 99.919142 L 255.641642 93.750573" style="fill:none;stroke-width:0.50;stroke:#86b7de;"/>
		<path stroke-opacity="0.969" vector-effect="non-scaling-stroke" d="M 264.349529 93.761795 C 264.350773 93.614878 264.231134 93.492846 264.08247 93.49287 L 257.224803 93.468942 C 257.076714 93.468918 256.957075 93.588557 256.955878 93.735977 L 256.934391 99.894975 C 256.933147 100.041892 257.052786 100.163924 257.201449 100.1639 L 264.059116 100.187828 C 264.207206 100.187852 264.326845 100.068212 264.328041 99.920793 L 264.349529 93.761795" style="fill:none;stroke-width:0.50;stroke:#86b7de;"/>
		<path stroke-opacity="0.969" vector-effect="non-scaling-stroke" d="M 255.631928 101.505581 C 255.631473 101.350744 255.507048 101.226319 255.352475 101.225123 L 248.489974 101.213159 C 248.335879 101.211962 248.209061 101.33878 248.20954 101.492612 L 248.199036 107.512853 C 248.19949 107.66769 248.323915 107.792115 248.478489 107.793311 L 255.340989 107.805275 C 255.495084 107.806471 255.621902 107.679654 255.621423 107.525822 L 255.631928 101.505581" style="fill:none;stroke-width:0.50;stroke:#86b7de;"/>
		<path stroke-opacity="0.969" vector-effect="non-scaling-stroke" d="M 264.33443 101.541425 C 264.334023 101.372279 264.197635 101.23589 264.02868 101.234622 L 257.25713 101.222802 C 257.088678 101.221534 256.949896 101.360315 256.950327 101.528552 L 256.939918 107.48658 C 256.940325 107.655726 257.076714 107.792115 257.245668 107.793383 L 264.017219 107.805203 C 264.185671 107.806471 264.324452 107.66769 264.324021 107.499453 L 264.33443 101.541425" style="fill:none;stroke-width:0.50;stroke:#86b7de;"/>
		<path stroke-opacity="0.824" vector-effect="non-scaling-stroke" d="M 304.365276 178.573016 C 304.805548 178.668727 305.169251 178.659156 305.410922 178.539517" style="fill:none;stroke-width:0.50;stroke:#71aad8;"/>
		<path stroke-opacity="0.969" vector-effect="non-scaling-stroke" d="M 305.410922 178.539517 C 305.729162 178.381593 305.805731 178.046604 305.626272 177.608725 C 305.126181 176.397977 302.977462 175.002984 301.649468 175.029305 C 301.20441 175.036483 300.926847 175.213549 300.876599 175.524611 C 300.831136 175.802174 300.965132 176.16827 301.259444 176.565471 C 301.929423 177.469943 303.262203 178.331345 304.365276 178.573016" style="fill:none;stroke-width:0.50;stroke:#86b7de;"/>
		<path stroke-opacity="0.824" vector-effect="non-scaling-stroke" d="M 198.161621 183.265263 C 197.97977 183.643322 197.826632 184.035739 197.7046 184.437726 C 197.439001 185.313485 197.316969 186.225135 197.343289 187.136785 C 197.355253 187.557915 197.398323 187.979044 197.474893 188.395388 C 197.867309 190.570428 199.099592 192.501403 200.90375 193.776756 C 202.643303 195.004254 204.78245 195.528273 206.890492 195.245925 C 208.134739 195.07843 209.326345 194.635765 210.379169 193.946644" style="fill:none;stroke-width:0.50;stroke:#71aad8;"/>
		<path stroke-opacity="0.824" vector-effect="non-scaling-stroke" d="M 214.166944 186.232313 C 214.047305 184.693754 213.504143 183.217407 212.602064 181.965982 C 210.862511 179.554057 207.983994 178.238026 205.024122 178.49884 C 204.000011 178.589765 203.00222 178.867328 202.080999 179.314779 C 201.810615 179.446382 201.549801 179.589949 201.296166 179.750265" style="fill:none;stroke-width:0.50;stroke:#71aad8;"/>
		<path d="M 163.511737 136.608395 Q 163.786907 136.366724 164.062077 136.230336 Q 171.350492 132.626805 177.401839 130.312984 Q 178.82076 129.772215 183.62786 128.106839 Q 186.434594 127.135369 193.11285 125.273784 Q 193.737366 125.101504 194.254207 125.020149 C 194.859581 124.929223 195.27114 124.656446 195.845408 124.587055 Q 196.431639 124.515272 197.13751 124.240102 C 197.293041 124.180282 197.45575 124.141998 197.623245 124.125248 Q 198.496611 124.046287 199.374762 123.720868 C 199.501579 123.673013 199.635575 123.644299 199.769571 123.634728 Q 200.492191 123.574908 201.43734 123.271025 C 201.60005 123.218384 201.769937 123.187278 201.942218 123.177707 C 202.461451 123.144208 203.514276 123.089174 203.849265 122.627367 C 203.88755 122.574725 203.909085 122.51012 203.909085 122.443122 L 203.909085 92.741512 C 203.909085 92.442414 203.554953 92.286883 203.334817 92.487877 Q 203.078789 92.719977 201.985288 93.466525 Q 199.379547 95.24197 194.582018 98.675613 Q 193.969466 99.113492 193.316236 98.821573 Q 192.945355 98.656471 192.395015 97.878816 Q 189.925663 94.382961 189.313111 93.299031 Q 188.908731 92.581196 189.121689 91.954287 Q 189.248506 91.583405 190.066838 90.982817 Q 195.838229 86.752377 195.893263 86.709307 Q 197.465321 85.520094 202.961543 81.449971 Q 205.485929 79.581208 241.499699 52.815542 Q 242.672163 51.944569 243.356498 51.391836 C 244.284898 50.642895 244.983591 50.566326 245.883277 51.265019 Q 247.819038 52.770079 249.843332 54.277532 Q 257.265744 59.812038 265.537593 65.951918 C 266.04247 66.327585 266.585632 66.638647 267.035475 67.078919 C 267.222112 67.263163 267.540352 67.129167 267.537959 66.865961 Q 267.516424 63.298323 267.525995 56.978984 Q 267.528388 56.51957 267.961482 56.309005 C 268.002159 56.289862 268.047622 56.280291 268.090692 56.280291 L 280.444628 56.191758 C 280.48052 56.191758 280.516412 56.198937 280.549911 56.210901 C 280.990183 56.383181 281.17682 56.56264 281.17682 57.077088 Q 281.162463 75.903501 281.172034 77.243459 C 281.174427 77.430096 281.26296 77.607162 281.411313 77.719623 Q 286.407443 81.485863 295.741687 88.293329 Q 298.402462 90.233876 300.031947 91.437446 C 300.544002 91.815505 300.469826 92.712799 300.287974 93.27271 C 300.271225 93.320566 300.24969 93.363636 300.218584 93.404313 Q 298.165576 96.148835 296.792119 98.060668 Q 296.598304 98.328659 296.20828 98.682791 C 295.959431 98.907713 295.605299 98.969925 295.294237 98.847893 Q 294.657757 98.596651 293.894459 98.055882 Q 287.85029 93.768016 285.890602 92.420879 Q 285.806854 92.363453 285.727892 92.358667 C 285.601075 92.346703 285.491007 92.4472 285.491007 92.57641 Q 285.488614 115.913219 285.479043 122.325876 C 285.479043 122.565154 285.64893 122.770934 285.883423 122.818789 Q 288.673408 123.381093 291.654815 124.096535 C 293.219695 124.472202 294.490262 124.819155 295.593335 125.103897 Q 299.146617 126.027511 305.339138 127.941737 Q 305.82248 128.092482 306.037831 128.209728 C 306.341714 128.372438 306.669525 128.39158 306.994944 128.506433 Q 314.295323 131.131316 317.063773 132.322922 Q 320.454346 133.782519 325.830928 136.352367 Q 326.137204 136.498327 326.24488 136.754355 C 326.2712 136.816567 326.208988 136.881172 326.144383 136.857245 Q 325.35955 136.553361 323.978915 136.232728 Q 323.421396 136.103518 321.820625 135.562749 Q 320.684053 135.177511 319.492447 134.844914 Q 314.297716 133.404459 308.220049 132.004681 Q 307.2414 131.77976 306.724559 131.71994 C 305.994761 131.636193 305.439635 131.35863 304.733764 131.296418 C 303.881934 131.219849 302.948749 130.837004 302.039491 130.755649 Q 301.541792 130.710186 300.285582 130.382375 C 300.168335 130.351269 300.051089 130.332126 299.929057 130.324948 C 298.742237 130.253165 297.622414 129.848784 296.457129 129.779394 C 296.301599 129.769823 296.146068 129.743502 295.997715 129.702825 C 294.540511 129.300837 293.006737 129.221875 291.556711 128.927563 C 291.465785 128.908421 291.374859 128.896457 291.281541 128.894064 Q 290.281358 128.85578 289.728625 128.705034 Q 288.912686 128.480113 288.18528 128.4179 C 286.859678 128.303047 285.522113 127.951308 284.222832 127.913023 C 283.069511 127.877132 281.944903 127.491894 280.782011 127.43686 C 279.267379 127.367469 277.819746 127.013337 276.642497 126.975052 C 274.893373 126.920018 273.613234 126.580243 271.785148 126.49171 C 269.674714 126.388821 267.636063 126.022725 265.580663 125.998797 C 263.666437 125.974869 261.862279 125.654237 259.830806 125.594417 C 250.845908 125.328818 243.007152 125.077576 235.352641 125.455636 C 233.091461 125.565704 229.487931 125.398209 227.032936 125.754733 Q 225.326882 126.00119 223.587329 126.020332 C 221.680281 126.039475 219.275535 126.441462 217.215349 126.522817 C 215.844284 126.577851 214.652679 126.91284 213.331863 126.958303 C 211.755019 127.013337 210.245173 127.381826 208.615688 127.451216 Q 207.778214 127.487108 206.34733 127.786206 C 206.108052 127.836454 205.866381 127.86756 205.622317 127.877132 C 204.179469 127.936951 203.129038 128.264762 201.724474 128.382009 C 200.559189 128.480113 199.515936 128.803138 198.34108 128.894064 C 197.125546 128.987383 196.359856 129.250589 195.084503 129.36305 Q 194.392989 129.422869 193.383234 129.712396 C 193.222918 129.757859 193.057816 129.788965 192.892714 129.800929 Q 191.947565 129.875105 190.667426 130.183774 C 190.495146 130.226844 190.320473 130.255557 190.143407 130.267521 Q 188.911124 130.36084 188.032972 130.659938 C 187.887013 130.710186 187.733875 130.741292 187.580737 130.750863 Q 186.673872 130.815469 185.566014 131.136101 C 185.424839 131.176779 185.281272 131.203099 185.135313 131.215063 Q 184.257162 131.284454 183.166053 131.65055 C 183.055985 131.686441 182.943524 131.710369 182.82867 131.717548 Q 182.010339 131.77976 180.897695 132.117142 C 180.763699 132.15782 180.62731 132.18414 180.486136 132.198497 C 179.521845 132.298994 178.823152 132.655518 177.928252 132.75123 C 177.476016 132.799085 176.865856 133.107754 176.310731 133.165181 Q 175.705357 133.227393 174.970772 133.519313 C 174.71953 133.61981 174.415647 133.641345 174.085443 133.713128 Q 172.355461 134.093581 167.165516 135.689567 Q 166.624747 135.857061 163.54045 136.665822 C 163.506951 136.675393 163.485416 136.632323 163.511737 136.608395 Z M 255.641642 93.750573 C 255.641044 93.612485 255.528583 93.500024 255.390831 93.498876 L 248.475713 93.486816 C 248.335879 93.485668 248.223418 93.598128 248.224016 93.737628 L 248.213249 99.906197 C 248.213847 100.044285 248.326308 100.156745 248.46406 100.157894 L 255.379178 100.169954 C 255.519012 100.171102 255.631473 100.058641 255.630875 99.919142 L 255.641642 93.750573 Z M 264.349529 93.761795 C 264.350773 93.614878 264.231134 93.492846 264.08247 93.49287 L 257.224803 93.468942 C 257.076714 93.468918 256.957075 93.588557 256.955878 93.735977 L 256.934391 99.894975 C 256.933147 100.041892 257.052786 100.163924 257.201449 100.1639 L 264.059116 100.187828 C 264.207206 100.187852 264.326845 100.068212 264.328041 99.920793 L 264.349529 93.761795 Z M 255.631928 101.505581 C 255.631473 101.350744 255.507048 101.226319 255.352475 101.225123 L 248.489974 101.213159 C 248.335879 101.211962 248.209061 101.33878 248.20954 101.492612 L 248.199036 107.512853 C 248.19949 107.66769 248.323915 107.792115 248.478489 107.793311 L 255.340989 107.805275 C 255.495084 107.806471 255.621902 107.679654 255.621423 107.525822 L 255.631928 101.505581 Z M 264.33443 101.541425 C 264.334023 101.372279 264.197635 101.23589 264.02868 101.234622 L 257.25713 101.222802 C 257.088678 101.221534 256.949896 101.360315 256.950327 101.528552 L 256.939918 107.48658 C 256.940325 107.655726 257.076714 107.792115 257.245668 107.793383 L 264.017219 107.805203 C 264.185671 107.806471 264.324452 107.66769 264.324021 107.499453 L 264.33443 101.541425 Z" style="fill:#1675c0;"/>
		<path d="M 216.880359 192.489439 C 216.758327 192.489439 216.643474 192.551652 216.576476 192.656934 C 214.478005 195.949403 211.692807 198.043088 207.718395 198.710674 Q 207.148912 198.806385 205.179652 198.753744 C 200.537654 198.626927 196.675703 195.717303 194.656195 191.58736 Q 194.371453 191.008307 193.93836 190.99395 C 190.399434 190.886275 186.37956 190.577606 184.106416 187.670375 C 182.938738 186.174886 182.582214 184.423369 182.29508 182.430182 C 182.058194 180.791125 182.156298 179.070715 182.110836 177.730757 Q 182.072551 176.567864 182.323793 174.665602 Q 182.517609 173.186862 182.685103 171.605233 Q 182.730566 171.174532 183.108626 170.466269 C 183.14691 170.394485 183.20673 170.337058 183.280906 170.303559 C 184.070525 169.947035 185.226238 170.042746 185.774186 169.990105 C 186.410666 169.930285 187.465883 169.423015 187.930083 168.779357 Q 188.83934 167.51836 187.896584 166.061156 C 187.272068 165.092079 185.750258 164.44842 184.465334 163.78562 C 184.166236 163.632482 183.943707 163.362097 183.852781 163.036679 C 183.615896 162.189634 183.522577 161.167916 184.039418 160.418975 Q 184.273911 160.079199 184.955854 159.957168 Q 187.238569 159.548002 188.566563 159.473825 C 188.858482 159.457076 189.145616 159.416399 189.427965 159.347008 Q 190.466432 159.093373 191.112484 158.96177 Q 194.512628 158.270256 196.962837 156.978153 Q 201.226776 154.728938 202.21978 154.233632 Q 206.687105 152.010737 211.180751 150.637279 Q 214.329653 149.675381 218.524201 148.825943 Q 219.988584 148.529238 220.8452 148.452669 C 221.924345 148.352172 222.733105 148.086573 223.939068 148.000433 C 225.348417 147.899936 226.760158 147.560161 228.095331 147.536233 C 230.253621 147.493163 232.794756 147.074426 234.845371 147.055284 Q 241.607374 146.995464 242.784623 147.060069 Q 245.514788 147.213208 248.046352 147.569732 Q 249.178138 147.730049 251.219182 148.24689 C 254.939959 149.189646 258.507598 150.936377 262.065665 153.022884 Q 267.688704 156.317745 273.361992 160.746786 Q 276.22376 162.981645 276.362541 163.082142 C 276.436718 163.139568 276.518072 163.187424 276.604212 163.228101 L 277.549361 163.685123 C 277.604395 163.711443 277.659429 163.732978 277.719249 163.744942 Q 283.258541 164.898264 288.273813 166.109012 Q 289.228533 166.338719 290.491922 166.704814 Q 292.20994 167.202513 292.698068 167.331723 Q 292.90624 167.38915 293.183803 167.468112 Q 293.971028 167.697819 295.069315 168.092628 Q 296.471486 168.599898 296.935686 168.762607 Q 300.211405 169.903965 303.274167 171.636339 C 303.939361 172.014399 304.929972 172.648486 305.573631 173.172506 Q 309.978744 176.752108 310.832967 182.367969 Q 311.088995 184.054881 311.012426 185.588655 Q 310.933464 187.198997 310.378338 188.747128 Q 309.761001 190.465145 308.703391 191.45815 C 307.961628 192.15445 306.320179 192.348265 305.413315 192.405692 Q 302.352946 192.599507 299.043727 192.355444 C 298.804449 192.338694 298.572349 192.448762 298.435961 192.647363 Q 297.998081 193.283843 297.349637 194.087818 Q 294.267733 197.91627 289.262032 198.722638 Q 288.587267 198.830313 286.795073 198.753744 Q 285.443151 198.696317 284.361613 198.387649 C 281.246211 197.499926 278.666791 195.458883 276.927238 192.752646 C 276.821956 192.587544 276.640104 192.489439 276.446289 192.489439 L 216.880359 192.489439 Z M 266.846445 163.82869 C 267.765273 163.82869 268.442431 162.976859 268.255794 162.1346 C 268.045229 161.177487 266.91105 160.438117 265.918045 159.698747 Q 263.360161 157.796485 260.503178 155.963613 Q 255.380231 152.67593 249.474843 151.180441 C 248.144456 150.843059 246.794927 150.819131 245.529145 150.601388 Q 244.294469 150.38843 242.542952 150.369288 Q 238.573326 150.326218 235.244965 150.405179 Q 233.608302 150.443464 231.837643 150.72342 Q 231.404549 150.790417 228.815559 150.919628 C 228.150365 150.953127 227.688558 151.065587 227.040114 151.242653 C 226.815192 151.302473 226.583093 151.335972 226.350993 151.340757 Q 224.960786 151.374256 223.797894 151.735567 C 223.625613 151.790601 223.448547 151.821707 223.269089 151.828885 Q 222.249763 151.879134 221.65396 152.075342 C 220.897841 152.321798 220.091473 152.343333 219.443029 152.628075 Q 219.098469 152.783605 218.727587 152.800355 C 218.148534 152.831461 217.658014 153.228663 217.184243 153.28609 Q 217.112459 153.295661 215.906497 153.731147 C 214.293761 154.317379 209.883863 156.178964 210.589734 158.365967 Q 210.915152 159.373329 211.922514 159.794458 Q 212.724096 160.129448 213.547213 160.263444 C 217.748939 160.952565 221.137119 161.289947 226.214604 161.754147 Q 230.626895 162.16092 238.956171 162.768687 C 240.298522 162.866791 241.365703 162.845256 242.550131 162.957717 C 246.000523 163.283135 249.34324 163.333384 252.669208 163.565484 C 257.318385 163.888509 261.484219 163.835868 266.846445 163.82869 Z M 304.365276 178.573016 C 304.805548 178.668727 305.169251 178.659156 305.410922 178.539517 C 305.729162 178.381593 305.805731 178.046604 305.626272 177.608725 C 305.126181 176.397977 302.977462 175.002984 301.649468 175.029305 C 301.20441 175.036483 300.926847 175.213549 300.876599 175.524611 C 300.831136 175.802174 300.965132 176.16827 301.259444 176.565471 C 301.929423 177.469943 303.262203 178.331345 304.365276 178.573016 Z M 201.296166 179.750265 C 199.937066 180.599703 198.850742 181.820022 198.161621 183.265263 C 197.97977 183.643322 197.826632 184.035739 197.7046 184.437726 C 197.439001 185.313485 197.316969 186.225135 197.343289 187.136785 C 197.355253 187.557915 197.398323 187.979044 197.474893 188.395388 C 197.867309 190.570428 199.099592 192.501403 200.90375 193.776756 C 202.643303 195.004254 204.78245 195.528273 206.890492 195.245925 C 208.134739 195.07843 209.326345 194.635765 210.379169 193.946644 C 211.625809 193.130705 212.635563 191.998919 213.303149 190.666139 C 213.989878 189.295075 214.286583 187.761301 214.166944 186.232313 C 214.047305 184.693754 213.504143 183.217407 212.602064 181.965982 C 210.862511 179.554057 207.983994 178.238026 205.024122 178.49884 C 204.000011 178.589765 203.00222 178.867328 202.080999 179.314779 C 201.810615 179.446382 201.549801 179.589949 201.296166 179.750265 Z M 279.824395 183.65208 C 278.078166 187.907261 280.159887 192.793323 284.471945 194.560776 C 288.783476 196.329856 293.695858 194.31274 295.440699 190.056793 C 297.186928 185.801612 295.105207 180.91555 290.79315 179.148097 C 286.481619 177.379017 281.569236 179.396133 279.824395 183.65208 Z" style="fill:#1675c0;"/>
		<path fill-opacity="0.937" d="M 255.630875 99.919142 C 255.631473 100.058641 255.519012 100.171102 255.379178 100.169954 L 248.46406 100.157894 C 248.326308 100.156745 248.213847 100.044285 248.213249 99.906197 L 248.224016 93.737628 C 248.223418 93.598128 248.335879 93.485668 248.475713 93.486816 L 255.390831 93.498876 C 255.528583 93.500024 255.641044 93.612485 255.641642 93.750573 L 255.630875 99.919142 Z" style="fill:#fefefe;"/>
		<path fill-opacity="0.937" d="M 264.328041 99.920793 C 264.326845 100.068212 264.207206 100.187852 264.059116 100.187828 L 257.201449 100.1639 C 257.052786 100.163924 256.933147 100.041892 256.934391 99.894975 L 256.955878 93.735977 C 256.957075 93.588557 257.076714 93.468918 257.224803 93.468942 L 264.08247 93.49287 C 264.231134 93.492846 264.350773 93.614878 264.349529 93.761795 L 264.328041 99.920793 Z" style="fill:#fefefe;"/>
		<path fill-opacity="0.937" d="M 255.621423 107.525822 C 255.621902 107.679654 255.495084 107.806471 255.340989 107.805275 L 248.478489 107.793311 C 248.323915 107.792115 248.19949 107.66769 248.199036 107.512853 L 248.20954 101.492612 C 248.209061 101.33878 248.335879 101.211962 248.489974 101.213159 L 255.352475 101.225123 C 255.507048 101.226319 255.631473 101.350744 255.631928 101.505581 L 255.621423 107.525822 Z" style="fill:#fefefe;"/>
		<path fill-opacity="0.937" d="M 264.324021 107.499453 C 264.324452 107.66769 264.185671 107.806471 264.017219 107.805203 L 257.245668 107.793383 C 257.076714 107.792115 256.940325 107.655726 256.939918 107.48658 L 256.950327 101.528552 C 256.949896 101.360315 257.088678 101.221534 257.25713 101.222802 L 264.02868 101.234622 C 264.197635 101.23589 264.334023 101.372279 264.33443 101.541425 L 264.324021 107.499453 Z" style="fill:#fefefe;"/>
		<path fill-opacity="0.937" d="M 305.410922 178.539517 Q 305.659771 177.993963 305.482705 177.687686 Q 304.405953 175.826102 302.338589 175.294904 C 302.266805 175.275762 302.195022 175.244655 302.13281 175.203978 Q 301.661431 174.90488 301.355155 175.148944 C 300.503325 175.828494 302.278769 177.343126 302.836288 177.723578 C 302.881751 177.754684 302.929606 177.778612 302.979855 177.795362 Q 303.721617 178.058568 304.365276 178.573016 C 303.262203 178.331345 301.929423 177.469943 301.259444 176.565471 C 300.965132 176.16827 300.831136 175.802174 300.876599 175.524611 C 300.926847 175.213549 301.20441 175.036483 301.649468 175.029305 C 302.977462 175.002984 305.126181 176.397977 305.626272 177.608725 C 305.805731 178.046604 305.729162 178.381593 305.410922 178.539517 Z" style="fill:#fefefe;"/>
		<path fill-opacity="0.643" d="M 305.410922 178.539517 C 305.169251 178.659156 304.805548 178.668727 304.365276 178.573016 Q 303.721617 178.058568 302.979855 177.795362 C 302.929606 177.778612 302.881751 177.754684 302.836288 177.723578 C 302.278769 177.343126 300.503325 175.828494 301.355155 175.148944 Q 301.661431 174.90488 302.13281 175.203978 C 302.195022 175.244655 302.266805 175.275762 302.338589 175.294904 Q 304.405953 175.826102 305.482705 177.687686 Q 305.659771 177.993963 305.410922 178.539517 Z" style="fill:#fefdfd;"/>
		<path fill-opacity="0.643" d="M 214.166944 186.232313 L 213.006444 185.732221 C 212.941839 185.703508 212.867663 185.727436 212.831771 185.789648 Q 211.989512 187.256424 211.843552 188.986406 C 211.841159 189.010334 211.812446 189.019905 211.798089 189.000762 Q 211.778947 188.979227 211.802875 188.926586 Q 211.810053 188.91223 211.814838 188.850017 Q 211.91055 187.861798 212.1259 186.931006 C 212.130686 186.90947 212.116329 186.885543 212.094794 186.880757 L 212.092401 186.880757 C 212.070866 186.875972 212.049331 186.887935 212.044546 186.90947 Q 211.400887 189.244826 211.587524 191.721356 C 211.594702 191.812282 211.57556 191.903208 211.527705 191.98217 C 210.747657 193.293414 209.876685 193.348448 208.594153 193.750436 Q 208.981784 193.779149 209.091852 193.786328 C 209.096637 193.786328 209.101423 193.786328 209.103816 193.783935 L 209.371807 193.649939 C 209.422056 193.626011 209.474697 193.673867 209.455555 193.726508 Q 209.364629 193.95143 209.206705 194.06389 C 209.18517 194.08064 209.194742 194.116532 209.223455 194.116532 L 209.572801 194.116532 C 209.611086 194.116532 209.627835 194.164387 209.596729 194.185922 L 209.335916 194.374952 C 209.333523 194.374952 209.333523 194.377345 209.333523 194.379738 C 209.335916 194.38213 209.335916 194.38213 209.338309 194.38213 Q 209.900612 194.214636 210.379169 193.946644 C 209.326345 194.635765 208.134739 195.07843 206.890492 195.245925 C 204.78245 195.528273 202.643303 195.004254 200.90375 193.776756 C 199.099592 192.501403 197.867309 190.570428 197.474893 188.395388 C 197.398323 187.979044 197.355253 187.557915 197.343289 187.136785 C 197.316969 186.225135 197.439001 185.313485 197.7046 184.437726 C 197.826632 184.035739 197.97977 183.643322 198.161621 183.265263 Q 198.046768 184.138628 197.991734 184.980888 Q 197.974984 185.236915 197.575389 185.990642 C 197.563425 186.016963 197.556247 186.045676 197.556247 186.076782 L 197.628031 188.074756 C 197.635209 188.263785 197.73092 188.438459 197.886451 188.546134 L 198.451148 188.928979 C 198.61625 189.04144 198.841171 188.921801 198.838779 188.720807 Q 198.807672 187.033895 199.436974 185.746578 C 199.451331 185.717865 199.487223 185.705901 199.518329 185.720258 L 199.523114 185.72265 C 199.551828 185.7394 199.563792 185.775292 199.547042 185.804005 C 199.415439 186.043283 199.145055 186.603194 199.145055 186.871186 C 199.556613 185.938001 199.965779 185.064635 200.358196 184.279802 C 200.362981 184.270231 200.360588 184.258267 200.351017 184.253482 L 200.35341 184.255875 C 200.362981 184.267839 200.362981 184.282195 200.355803 184.294159 L 199.271872 185.887752 C 199.262301 185.902109 199.245552 185.904502 199.231195 185.894931 L 199.178554 185.859039 C 199.130698 185.82554 199.12352 185.760935 199.164197 185.720258 C 199.563792 185.325448 199.384333 184.923461 199.604469 184.521473 Q 200.161987 183.49497 200.748219 182.729279 C 201.317701 181.980338 202.523664 181.224219 203.375494 180.616452 C 203.401815 180.59731 203.437707 180.602096 203.456849 180.628416 L 203.492741 180.678665 C 203.495133 180.68345 203.495133 180.688236 203.492741 180.690629 L 201.521088 182.11912 C 201.506731 182.128691 201.499553 182.14544 201.506731 182.155012 C 201.516302 182.169368 201.535445 182.171761 201.549801 182.16219 Q 202.810798 181.284039 204.155541 180.350853 Q 204.346964 180.21925 204.803986 179.716766 C 204.825521 179.695231 204.823128 179.661732 204.801593 179.64259 L 204.7992 179.64259 C 204.777665 179.637804 204.75613 179.64259 204.741773 179.656947 L 203.665021 180.64038 C 203.648272 180.654737 203.624344 180.65713 203.605201 180.645166 L 203.550167 180.606881 C 203.531025 180.594917 203.531025 180.566204 203.547775 180.551847 L 204.387641 179.83162 C 204.442675 179.783764 204.425926 179.695231 204.356535 179.673696 Q 203.01897 179.245388 202.880188 179.228638 Q 202.289171 179.159248 201.296166 179.750265 C 201.549801 179.589949 201.810615 179.446382 202.080999 179.314779 C 203.00222 178.867328 204.000011 178.589765 205.024122 178.49884 C 207.983994 178.238026 210.862511 179.554057 212.602064 181.965982 C 213.504143 183.217407 214.047305 184.693754 214.166944 186.232313 Z M 208.850181 191.376796 C 207.948102 190.261759 206.888099 189.438642 205.660602 188.402567 C 205.287328 188.089112 204.770487 187.385634 204.607777 186.962112 C 203.985654 185.339805 203.782267 184.598043 202.887367 183.497363 C 202.837118 183.43515 202.750978 183.413615 202.676802 183.444721 Q 201.255489 184.038131 200.831966 185.394839 C 200.03517 187.926403 200.834359 190.627855 203.619558 191.405509 Q 206.222906 192.130522 208.73772 191.678286 C 208.876501 191.654358 208.938714 191.489256 208.850181 191.376796 Z M 199.380576 191.875547 C 199.302978 191.96542 199.755214 192.491832 200.39045 193.052964 C 201.025782 193.614047 201.607228 193.996892 201.685161 193.907307 C 201.762759 193.817434 201.310523 193.291022 200.675287 192.72989 C 200.039955 192.168807 199.458509 191.785961 199.380576 191.875547 Z M 206.259156 194.581689 C 206.256405 194.640551 206.466969 194.697978 206.728429 194.707477 C 206.990989 194.71712 207.203946 194.676443 207.20598 194.618059 C 207.208732 194.559196 206.998167 194.50177 206.736708 194.49227 C 206.474148 194.482627 206.26119 194.523305 206.259156 194.581689 Z" style="fill:#fefdfd;"/>
		<path fill-opacity="0.937" d="M 208.850181 191.376796 C 208.938714 191.489256 208.876501 191.654358 208.73772 191.678286 Q 206.222906 192.130522 203.619558 191.405509 C 200.834359 190.627855 200.03517 187.926403 200.831966 185.394839 Q 201.255489 184.038131 202.676802 183.444721 C 202.750978 183.413615 202.837118 183.43515 202.887367 183.497363 C 203.782267 184.598043 203.985654 185.339805 204.607777 186.962112 C 204.770487 187.385634 205.287328 188.089112 205.660602 188.402567 C 206.888099 189.438642 207.948102 190.261759 208.850181 191.376796 Z" style="fill:#fefefe;"/>
		<path fill-opacity="0.937" d="M 199.380576 191.875547 C 199.458509 191.785961 200.039955 192.168807 200.675287 192.72989 C 201.310523 193.291022 201.762759 193.817434 201.685161 193.907307 C 201.607228 193.996892 201.025782 193.614047 200.39045 193.052964 C 199.755214 192.491832 199.302978 191.96542 199.380576 191.875547 Z" style="fill:#fefefe;"/>
	</g>
	<g id="surface4">
	</g>
</svg>
