<?xml version="1.0" encoding="utf-8"?>
<svg xmlns="http://www.w3.org/2000/svg" width="490pt" height="280pt" viewBox="0 0 490 280" version="1.1" xmlns:xlink="http://www.w3.org/1999/xlink">
	<g id="surface2" data-size="144.75024542098 148" data-bboxpos="172.5 53.697452663267" data-pivot="244.87512271049 127.69745266327" data-center="244.87512271049 127.69745266327">
		<path vector-effect="non-scaling-stroke" d="M 310.423352 123.747836 Q 309.568934 125.0641 308.599055 126.434247 C 305.146748 131.318281 299.389053 132.669183 293.519746 131.59154 Q 289.012887 130.764064 283.759376 128.558744 Q 278.736788 126.45349 276.820122 125.787661 Q 267.983446 122.716377 258.36163 122.158312 C 258.165345 122.146766 258.015245 121.98127 258.022943 121.784985 Q 258.049884 121.092215 258.261564 120.207008 Q 260.020432 112.871335 259.63171 105.054572 C 259.339207 99.158323 258.069127 93.593065 256.090882 88.135571 C 254.52445 83.805754 251.818796 79.418206 249.167023 75.423228 Q 246.884729 71.986315 243.975091 68.79957 Q 242.531819 67.221592 241.904477 65.243347 Q 241.8352 65.023969 241.885233 64.823836 Q 241.958359 64.523635 242.150795 64.53903" style="fill:none;stroke-width:0.50;stroke:#cecab6;"/>
		<path vector-effect="non-scaling-stroke" d="M 178.98165 123.874844 Q 181.606481 126.553557 183.065149 127.762057 C 187.383419 131.329827 193.110324 132.19579 198.998876 131.857102 Q 202.12789 131.676212 205.010586 131.172029 Q 220.721087 128.412492 236.851099 125.225747 C 242.389416 124.12886 248.505042 122.974242 254.16267 122.416177 C 254.428232 122.389235 254.639912 122.189102 254.682248 121.927388 C 255.070969 119.560422 255.671371 117.197304 255.886899 114.814942 Q 257.845901 93.285167 246.596074 75.038355 Q 246.041857 74.141602 245.118163 72.971589 C 243.501698 70.920218 242.389416 68.641772 240.145609 67.121525 C 237.312946 65.201011 234.03768 63.315135 230.696986 61.995022 Q 218.996858 57.37655 206.442312 59.566476 Q 198.814137 60.898135 192.479133 64.458207 Q 191.162869 65.197162 187.475789 67.729624 Q 186.967757 68.076009 184.99336 69.715567 Q 183.777163 70.723933 182.372378 71.520619" style="fill:none;stroke-width:0.50;stroke:#cbeacb;"/>
		<path vector-effect="non-scaling-stroke" d="M 200.157342 110.550553 Q 200.049578 110.246504 199.849444 110.104101 C 196.212398 107.498513 192.771636 104.342558 190.393123 100.605444 Q 186.29423 94.166525 184.162036 86.638417 C 184.108153 86.449829 183.861835 86.403644 183.742524 86.561442 C 183.51545 86.861643 183.526996 87.32349 183.473114 87.600598 Q 181.872043 95.979275 185.547577 103.618997 Q 187.179437 107.017422 190.739509 109.08034 Q 195.130906 111.628197 199.976452 110.854603 C 200.118855 110.83151 200.203527 110.685259 200.157342 110.550553" style="fill:none;stroke-width:0.50;stroke:#cbeacb;"/>
		<path d="M 310.423352 123.747836 Q 309.568934 125.0641 308.599055 126.434247 C 305.146748 131.318281 299.389053 132.669183 293.519746 131.59154 Q 289.012887 130.764064 283.759376 128.558744 Q 278.736788 126.45349 276.820122 125.787661 Q 267.983446 122.716377 258.36163 122.158312 C 258.165345 122.146766 258.015245 121.98127 258.022943 121.784985 Q 258.049884 121.092215 258.261564 120.207008 Q 260.020432 112.871335 259.63171 105.054572 C 259.339207 99.158323 258.069127 93.593065 256.090882 88.135571 C 254.52445 83.805754 251.818796 79.418206 249.167023 75.423228 Q 246.884729 71.986315 243.975091 68.79957 Q 242.531819 67.221592 241.904477 65.243347 Q 241.8352 65.023969 241.885233 64.823836 Q 241.958359 64.523635 242.150795 64.53903 Q 248.112472 60.890437 249.886735 59.909012 Q 251.995837 58.738999 255.752194 57.214904 Q 258.865814 55.948673 261.902459 55.244356 C 267.302222 53.99352 272.528792 53.308446 278.017076 53.912697 Q 286.326476 54.832542 293.854585 58.642781 Q 308.087175 65.851446 313.971877 80.649798 Q 315.934728 85.587714 316.677532 90.97978 C 317.112438 94.124189 317.43958 97.122347 317.127833 100.016589 Q 316.708322 103.923046 316.677532 104.323314 Q 316.508188 106.501693 316.034795 108.606946 Q 315.041823 112.982948 313.529274 117.004867 Q 312.236102 120.445629 310.423352 123.747836 Z" style="fill:#ffbdc9;"/>
		<path d="M 242.150795 64.53903 Q 241.958359 64.523635 241.885233 64.823836 Q 241.8352 65.023969 241.904477 65.243347 Q 242.531819 67.221592 243.975091 68.79957 Q 246.884729 71.986315 249.167023 75.423228 C 251.818796 79.418206 254.52445 83.805754 256.090882 88.135571 C 258.069127 93.593065 259.339207 99.158323 259.63171 105.054572 Q 260.020432 112.871335 258.261564 120.207008 Q 258.049884 121.092215 258.022943 121.784985 C 258.015245 121.98127 258.165345 122.146766 258.36163 122.158312 Q 267.983446 122.716377 276.820122 125.787661 Q 278.736788 126.45349 283.759376 128.558744 Q 289.012887 130.764064 293.519746 131.59154 C 299.389053 132.669183 305.146748 131.318281 308.599055 126.434247 Q 309.568934 125.0641 310.423352 123.747836 Q 310.908291 124.948638 311.400928 126.1225 C 312.143732 127.912158 312.474723 129.378522 311.858926 131.041172 Q 311.624154 131.676212 310.45799 133.273433 Q 300.355083 147.140394 291.198964 158.471045 C 281.565602 170.398248 271.050881 182.471702 259.827995 192.332139 Q 255.355775 196.261689 251.214546 199.013528 C 248.124018 201.068748 245.018096 202.689062 241.257891 200.980227 Q 236.839553 198.971192 232.686777 195.615103 Q 225.116332 189.491779 219.362487 183.349212 Q 212.469418 175.994296 207.535351 170.082652 Q 192.078866 151.562581 178.208056 132.053387 C 177.607655 131.206667 177.234328 129.705664 177.546075 128.493315 C 178.019468 126.661322 178.716088 125.271931 178.98165 123.874844 Q 181.606481 126.553557 183.065149 127.762057 C 187.383419 131.329827 193.110324 132.19579 198.998876 131.857102 Q 202.12789 131.676212 205.010586 131.172029 Q 220.721087 128.412492 236.851099 125.225747 C 242.389416 124.12886 248.505042 122.974242 254.16267 122.416177 C 254.428232 122.389235 254.639912 122.189102 254.682248 121.927388 C 255.070969 119.560422 255.671371 117.197304 255.886899 114.814942 Q 257.845901 93.285167 246.596074 75.038355 Q 246.041857 74.141602 245.118163 72.971589 C 243.501698 70.920218 242.389416 68.641772 240.145609 67.121525 C 237.312946 65.201011 234.03768 63.315135 230.696986 61.995022 Q 218.996858 57.37655 206.442312 59.566476 Q 198.814137 60.898135 192.479133 64.458207 Q 191.162869 65.197162 187.475789 67.729624 Q 186.967757 68.076009 184.99336 69.715567 Q 183.777163 70.723933 182.372378 71.520619 Q 188.884423 64.184947 197.524813 60.016776 Q 199.653159 58.989167 202.431939 58.07317 Q 205.245358 57.149475 207.550745 56.768451 Q 209.263429 56.491343 211.291707 56.156504 C 214.239832 55.675413 217.819147 55.644623 219.989829 55.856303 Q 221.848764 56.033345 225.378046 56.687628 Q 228.283834 57.22645 232.917701 59.035351 Q 236.858796 60.570993 241.284832 64.254224 Q 241.450327 64.38893 242.150795 64.53903 Z" style="fill:#9cd6a2;"/>
		<path d="M 178.98165 123.874844 C 178.731483 122.050548 177.538378 120.326318 176.537709 118.432745 C 173.855146 113.363972 172.731318 107.637067 172.511941 102.048717 Q 172.469605 100.994166 172.577369 96.037006 Q 172.646646 92.815622 173.320173 90.094573 Q 174.859664 83.859636 177.384428 79.198829 Q 179.320338 75.62721 182.372378 71.520619 Q 183.777163 70.723933 184.99336 69.715567 Q 186.967757 68.076009 187.475789 67.729624 Q 191.162869 65.197162 192.479133 64.458207 Q 198.814137 60.898135 206.442312 59.566476 Q 218.996858 57.37655 230.696986 61.995022 C 234.03768 63.315135 237.312946 65.201011 240.145609 67.121525 C 242.389416 68.641772 243.501698 70.920218 245.118163 72.971589 Q 246.041857 74.141602 246.596074 75.038355 Q 257.845901 93.285167 255.886899 114.814942 C 255.671371 117.197304 255.070969 119.560422 254.682248 121.927388 C 254.639912 122.189102 254.428232 122.389235 254.16267 122.416177 C 248.505042 122.974242 242.389416 124.12886 236.851099 125.225747 Q 220.721087 128.412492 205.010586 131.172029 Q 202.12789 131.676212 198.998876 131.857102 C 193.110324 132.19579 187.383419 131.329827 183.065149 127.762057 Q 181.606481 126.553557 178.98165 123.874844 Z M 200.157342 110.550553 Q 200.049578 110.246504 199.849444 110.104101 C 196.212398 107.498513 192.771636 104.342558 190.393123 100.605444 Q 186.29423 94.166525 184.162036 86.638417 C 184.108153 86.449829 183.861835 86.403644 183.742524 86.561442 C 183.51545 86.861643 183.526996 87.32349 183.473114 87.600598 Q 181.872043 95.979275 185.547577 103.618997 Q 187.179437 107.017422 190.739509 109.08034 Q 195.130906 111.628197 199.976452 110.854603 C 200.118855 110.83151 200.203527 110.685259 200.157342 110.550553 Z" style="fill:#fafef3;"/>
		<path d="M 200.157342 110.550553 C 200.203527 110.685259 200.118855 110.83151 199.976452 110.854603 Q 195.130906 111.628197 190.739509 109.08034 Q 187.179437 107.017422 185.547577 103.618997 Q 181.872043 95.979275 183.473114 87.600598 C 183.526996 87.32349 183.51545 86.861643 183.742524 86.561442 C 183.861835 86.403644 184.108153 86.449829 184.162036 86.638417 Q 186.29423 94.166525 190.393123 100.605444 C 192.771636 104.342558 196.212398 107.498513 199.849444 110.104101 Q 200.049578 110.246504 200.157342 110.550553 Z" style="fill:#9cd6a2;"/>
	</g>
	<g id="surface4">
	</g>
</svg>
