<?xml version="1.0" encoding="utf-8"?>
<svg xmlns="http://www.w3.org/2000/svg" width="490pt" height="280pt" viewBox="0 0 490 280" version="1.1" xmlns:xlink="http://www.w3.org/1999/xlink">
	<g id="surface2" data-size="150.16145040086 148" data-bboxpos="170 52.425826466435" data-pivot="245.08072520043 126.42582646643" data-center="245.08072520043 126.42582646643">
		<path d="M 299.967963 75.727881 Q 306.840384 83.037259 311.630838 91.802086 Q 312.331253 93.084039 313.37545 95.406975 C 313.992329 96.775676 314.850177 98.584546 315.505611 100.313093 Q 318.47113 108.120473 319.586011 116.628267 Q 319.704889 117.537521 319.791638 118.976906 Q 319.817341 119.41065 319.984412 121.325546 Q 320.273575 124.599504 320.090438 129.132925 Q 320.02618 130.790788 319.904089 131.504055 C 319.730592 132.545039 319.798063 133.557107 319.621353 134.639858 C 319.258294 136.892111 319.094435 138.286515 318.689608 140.15643 Q 316.132129 151.944609 310.107917 162.145609 Q 303.033082 174.11371 291.971022 183.2673 Q 277.185195 195.495648 257.631405 199.261182 Q 255.041797 199.759184 251.363011 200.054772 Q 246.421551 200.44996 245.046424 200.424257 Q 240.898553 200.347147 238.70092 200.11903 Q 236.220551 199.86521 235.333787 199.855571 C 235.108883 199.852358 234.880767 199.823442 234.662289 199.768822 C 233.21969 199.418615 231.555401 199.274034 230.119229 198.981659 Q 212.14298 195.328576 197.93869 183.935586 C 196.210143 182.547608 195.15952 181.78936 194.070343 180.716247 Q 189.784316 176.494479 189.254186 175.903303 Q 186.111957 172.394802 183.432387 168.722442 Q 178.802579 162.376938 175.782441 155.167161 C 175.255523 153.904486 174.310926 151.697215 173.700473 149.814448 Q 171.943009 144.378198 171.355046 140.757245 Q 170.927729 138.109805 170.837767 137.50899 Q 170.812064 137.348344 170.304424 133.412525 Q 170.012048 131.140996 170.005623 129.299997 Q 169.983132 122.11271 170.050603 121.171326 Q 170.683547 112.139827 173.530188 103.313954 Q 175.037045 98.63274 177.122225 94.472017 Q 179.519059 89.691202 181.877337 86.185914 Q 185.106315 81.385822 189.752187 76.312632 C 191.429328 74.481271 193.064701 73.09008 194.9057 71.4033 Q 196.255124 70.166328 198.035078 68.768711 Q 209.598352 59.692231 223.654848 55.595767 Q 228.859767 54.079272 233.245394 53.439902 Q 234.588391 53.243914 235.973157 53.028649 Q 237.881628 52.729848 238.716985 52.723423 Q 240.127454 52.710571 241.486516 52.549925 C 243.205425 52.347512 246.180582 52.459964 247.42398 52.43426 C 248.789468 52.405344 250.061782 52.681655 251.536509 52.713784 Q 252.040936 52.726635 253.178307 52.845513 Q 263.552804 53.921839 273.512835 57.848019 Q 279.819784 60.331601 284.452805 63.316397 Q 284.912251 63.615198 284.931529 63.624837 C 286.865703 64.720441 287.929177 65.488327 290.088255 67.049803 Q 295.482736 70.953492 299.967963 75.727881 Z M 291.746118 148.821657 Q 294.030499 148.70278 296.128532 148.535708 Q 296.973528 148.47145 298.027363 148.233694 Q 299.665949 147.864209 299.903705 147.806377 Q 306.760061 146.12281 312.710377 143.150866 C 313.532883 142.739613 313.931284 142.447238 314.133697 141.579751 Q 314.911222 138.260812 315.444566 134.569174 C 315.611637 133.402887 315.557018 132.368329 315.810838 131.195615 C 315.839754 131.054247 315.855819 130.912879 315.859032 130.768298 C 315.916864 127.401165 316.045381 124.066161 315.69196 120.805054 Q 315.508824 119.108636 315.380308 117.9552 C 314.053374 106.160595 309.27256 94.812586 302.252344 85.328066 Q 299.145457 81.132001 294.897986 76.865253 C 293.76704 75.734307 292.703566 74.915014 291.598324 73.877243 Q 290.673005 73.01297 288.928393 71.669972 Q 275.421306 61.289049 258.579215 58.166098 Q 250.209576 56.61426 242.398984 56.983746 Q 235.057477 57.33074 227.597092 59.136397 Q 220.384102 60.881009 213.537384 64.235291 Q 199.397353 71.165545 189.257399 83.695906 Q 180.409036 94.62945 176.691695 108.152602 Q 176.463578 108.97832 175.538259 112.920565 C 175.178413 114.453125 175.091664 115.619412 174.824992 117.280488 Q 174.555108 118.951203 174.519766 120.576937 C 174.484424 122.115923 174.217752 123.484624 174.214539 125.129635 Q 174.211326 127.176261 174.211326 128.522472 C 174.214539 130.122502 174.522979 131.555462 174.51334 133.078383 C 174.506914 134.591665 175.059535 136.7154 175.1752 138.113018 Q 175.226607 138.729897 175.454723 139.629513 C 175.756737 140.837568 175.808144 141.557261 176.151926 142.701058 Q 176.402533 143.533202 176.527836 144.252895 Q 176.765592 145.605531 178.1857 145.226407 Q 181.98015 144.211127 188.10075 142.521135 Q 191.368283 141.615093 192.508867 141.444809 Q 193.218921 141.338782 194.468744 141.020704 Q 195.577199 140.741181 196.441473 140.631942 Q 197.183656 140.538767 198.767622 140.31065 Q 204.547653 139.475293 210.86424 139.799797 Q 212.666685 139.892971 214.594432 140.159643 Q 216.496477 140.423102 218.295708 140.760458 Q 222.970497 141.63437 227.519982 143.369344 Q 235.780382 146.517999 242.206209 152.140597 Q 243.064057 152.889206 246.823165 156.150312 Q 249.531651 158.498952 251.610406 159.922273 Q 256.09242 162.993818 261.274849 165.16896 Q 266.10707 167.196308 269.917585 168.163395 Q 274.881536 169.42607 277.580383 169.644548 Q 277.692835 169.654187 279.045472 169.827684 Q 280.266379 169.98833 280.491283 169.991543 Q 288.057694 170.177892 292.417617 169.493541 Q 296.228132 168.892726 298.962321 168.169821 Q 300.029008 167.887084 300.893282 167.54009 C 301.616187 167.247715 302.223428 166.341673 302.74392 165.586639 Q 305.943981 160.940766 306.342383 160.298183 Q 306.737571 159.658814 306.596203 159.263625 C 306.557648 159.160812 306.451622 159.10298 306.345596 159.128683 Q 304.572068 159.559213 304.009808 159.858014 C 303.881291 159.925485 303.739923 159.970466 303.595342 159.992957 Q 302.686087 160.11826 301.725426 160.5263 C 301.641891 160.561642 301.555142 160.584133 301.468393 160.596984 C 300.305319 160.767269 298.907702 161.287761 297.754266 161.368084 C 296.934973 161.422703 295.726917 161.850021 294.698785 161.965685 C 292.099538 162.254848 289.548485 162.595416 287.045626 162.617907 Q 282.145933 162.662888 280.147501 162.569713 Q 273.869469 162.267699 267.173758 160.474894 Q 261.798554 159.035509 256.988823 156.548714 Q 255.170314 155.610543 253.075494 154.22899 C 252.304395 153.72135 251.735709 153.155877 250.909991 152.747837 C 250.746132 152.667515 250.800752 152.423333 250.983888 152.416907 Q 251.822458 152.391204 255.732573 152.355862 C 257.907716 152.336584 259.976832 152.638598 262.151974 152.680366 C 262.772066 152.693218 263.385733 152.950251 264.073296 152.963103 Q 264.834757 152.975954 265.519107 153.107684 C 266.707885 153.3358 268.719169 153.531788 270.296709 153.881996 C 271.736094 154.2065 273.111221 154.367146 274.52169 154.640243 Q 279.061536 155.50773 283.896971 156.063564 C 285.143581 156.208145 286.113881 156.166377 287.241614 156.320597 Q 288.096248 156.439475 289.760538 156.510159 Q 294.705211 156.718998 300.250699 156.47803 C 301.298109 156.433049 302.274835 156.150312 303.354373 156.185654 C 304.282905 156.217784 305.195373 155.886854 306.188163 155.874002 C 306.94641 155.864363 307.553651 155.581627 308.241214 155.549498 C 308.546441 155.536646 308.819539 155.356723 308.954481 155.080412 Q 309.375373 154.209713 311.190669 150.450604 Q 311.74329 149.306807 311.76578 148.191926 C 311.772206 147.938106 311.540876 147.745331 311.290269 147.793525 L 305.198586 149.004793 C 304.838739 149.07869 304.459616 149.117245 304.074066 149.120458 Q 303.50538 149.123671 301.69651 149.358214 Q 299.61133 149.628099 294.390346 149.396769 Q 292.98309 149.332511 291.736479 148.905193 C 291.691498 148.889129 291.697924 148.82487 291.746118 148.821657 Z M 238.688069 155.700505 Q 235.481581 153.72135 232.442165 152.339797 Q 225.900674 149.36464 219.182473 148.175862 Q 217.56959 147.889913 217.026608 147.835293 C 215.163118 147.645731 213.508468 147.240904 211.60321 147.202349 Q 207.32361 147.112388 203.860089 147.211988 Q 202.60384 147.24733 200.865654 147.542918 Q 199.066423 147.851358 197.884071 148.028068 Q 197.668806 148.060197 195.760335 148.362211 Q 194.989236 148.487514 194.247053 148.728483 Q 193.283179 149.036923 192.756261 149.152587 Q 189.042134 149.962242 188.245331 150.18072 C 187.175431 150.476308 186.385054 150.460243 184.942456 150.656231 Q 181.941595 151.064271 179.326284 150.76547 C 178.905392 150.717276 178.59374 151.151019 178.77045 151.536569 Q 180.123086 154.479598 181.083747 156.375216 C 181.745608 157.673233 182.908682 157.490097 184.25168 157.326239 Q 186.140873 157.098122 191.570696 156.195293 C 192.881565 155.976815 193.887207 155.694079 195.361934 155.478814 Q 196.38364 155.327807 200.621473 154.495662 Q 201.668883 154.290036 202.777338 154.2065 C 204.36773 154.084409 205.858521 153.669943 207.590282 153.602472 Q 208.772634 153.554279 210.260212 153.361504 Q 211.352603 153.220136 216.776001 153.274755 C 218.421012 153.29082 219.738307 153.541427 221.261227 153.599259 C 223.025117 153.666731 225.11351 154.132603 226.941658 154.312526 C 228.422811 154.457107 229.920029 154.900489 231.397969 154.961535 C 231.64215 154.971173 231.886331 155.012941 232.120874 155.093264 Q 233.50564 155.555923 234.880767 155.575201 C 235.022135 155.578414 235.16029 155.594478 235.295232 155.629821 C 236.217339 155.854724 237.463949 156.256339 238.562765 156.19208 C 238.823011 156.176016 238.90976 155.835447 238.688069 155.700505 Z M 243.613465 167.421212 Q 243.125102 167.482257 240.442319 167.311973 Q 238.386055 167.180244 237.293664 167.234863 Q 233.026916 167.453341 231.092742 167.89351 Q 227.89268 168.622842 226.691051 168.892726 Q 224.891819 169.300766 224.123933 169.564225 C 224.04361 169.593141 223.960075 169.618845 223.876539 169.634909 L 215.04424 171.530528 C 214.992834 171.540167 214.941427 171.546593 214.89002 171.549806 C 213.090789 171.64298 211.085931 172.263072 209.405578 172.272711 Q 209.190312 172.272711 206.732434 172.500828 Q 205.170958 172.645409 200.637537 172.648622 C 198.645531 172.648622 196.878429 172.275924 194.745054 172.211666 C 194.7065 172.208453 194.667945 172.20524 194.632603 172.195601 L 192.02693 171.517676 C 191.670297 171.424502 191.413263 171.855032 191.663871 172.12813 Q 197.17723 178.084871 203.644824 182.750021 Q 209.251358 186.795079 215.988837 189.844134 Q 218.536677 190.994356 221.013833 191.877908 Q 222.87411 192.542981 222.95122 192.565471 Q 228.792296 194.400044 234.713695 195.254679 C 235.606885 195.383196 236.294448 195.351067 236.982012 195.486009 Q 237.913757 195.669145 238.672004 195.701274 Q 240.484087 195.781597 243.459245 195.990437 Q 245.820736 196.154295 251.648961 195.563119 Q 253.155817 195.412112 253.56707 195.383196 Q 254.678738 195.302873 255.472328 195.158292 Q 259.404933 194.445025 261.644334 193.902043 Q 266.858892 192.632942 271.748946 190.512419 Q 277.371544 188.077031 280.828639 185.937231 Q 284.610238 183.59823 286.319507 182.27451 Q 290.07219 179.370036 293.407194 176.56195 C 293.625672 176.378814 293.487517 176.022181 293.201568 176.035032 Q 291.784673 176.089652 290.377417 176.584441 C 290.178216 176.655125 289.966164 176.69368 289.754112 176.703318 Q 288.700276 176.73866 286.393404 177.098507 C 283.594957 177.535463 281.214188 177.419798 278.152282 177.403733 C 276.404457 177.397308 275.164273 177.140275 273.014834 176.883242 Q 271.038892 176.645486 269.204319 176.214956 C 263.311836 174.833403 257.216939 172.378737 252.005594 169.11763 Q 247.793465 166.479828 242.819875 162.691804 Q 240.201351 160.699798 235.844641 158.823456 Q 235.250252 158.566423 232.252604 157.814601 Q 230.909606 157.477246 230.31843 157.464394 Q 229.357769 157.441904 228.364979 157.271619 C 226.472573 156.950328 223.266085 157.017799 221.669267 157.143103 Q 217.649913 157.457968 215.847469 157.586485 C 215.034602 157.644317 213.861888 158.036293 212.885163 158.11019 Q 211.538952 158.20979 210.086715 158.598552 C 209.87145 158.656385 209.656185 158.69494 209.434494 158.711004 Q 207.718798 158.836308 205.86816 159.305393 C 205.678598 159.353587 205.485823 159.37929 205.289836 159.388929 C 203.612695 159.453187 201.852019 159.899782 200.447975 160.009021 C 198.012587 160.198583 196.248698 160.609836 193.774755 160.683733 C 190.642164 160.773695 187.027637 160.799398 183.978582 160.5263 Q 183.631588 160.494171 183.551265 160.837953 Q 183.522349 160.953618 183.576968 161.030728 Q 185.06776 163.119121 186.346499 165.233218 Q 186.873417 166.103918 187.477445 166.364164 Q 188.364209 166.743287 190.690358 166.987469 Q 192.772326 167.202734 196.004516 166.945701 C 197.325024 166.839675 198.594125 166.479828 199.67045 166.425209 C 200.669666 166.377015 201.604624 165.975401 202.58135 165.85331 Q 203.313894 165.760136 204.762918 165.403503 Q 207.574217 164.712726 208.457768 164.574571 C 209.77185 164.368944 210.986331 163.935201 212.290774 163.813111 C 212.461058 163.797046 212.62813 163.764917 212.791988 163.716723 C 214.10607 163.321535 215.42979 163.241212 216.59929 163.025947 Q 222.360044 161.965685 228.02441 162.502242 Q 230.299152 162.717507 232.111235 163.115908 Q 234.816508 163.707084 236.124164 164.111911 Q 237.598891 164.568145 237.846286 164.58421 C 237.984441 164.593848 238.11617 164.635616 238.235048 164.7063 Q 238.845502 165.072572 239.539491 165.201089 C 239.616601 165.213941 239.690498 165.236431 239.761182 165.26856 C 241.277677 165.920782 241.945963 166.319183 242.826301 166.528022 Q 243.340367 166.6469 243.697001 167.250928 C 243.738768 167.321612 243.693788 167.411573 243.613465 167.421212 Z" style="fill:#1178b5;"/>
	</g>
	<g id="surface4">
	</g>
</svg>
