<?xml version="1.0" encoding="utf-8"?>
<svg xmlns="http://www.w3.org/2000/svg" width="490pt" height="280pt" viewBox="0 0 490 280" version="1.1" xmlns:xlink="http://www.w3.org/1999/xlink">
	<g id="surface2" data-size="258.44794713885 148" data-bboxpos="116 54.138101017707" data-pivot="245.22397356942 128.13810101771" data-center="245.22397356942 128.13810101771">
		<path vector-effect="non-scaling-stroke" d="M 299.577926 131.93984 C 298.772254 133.530838 299.56165 135.390395 301.356101 135.370049 Q 304.945004 135.329359 311.077063 134.906178 C 323.687051 134.03947 334.571761 133.307041 346.180762 131.943909 C 351.494942 131.321344 355.185571 130.788298 357.671761 126.532072 Q 360.796791 121.173132 360.190503 115.057349 Q 359.917876 112.327016 358.164116 110.797053 C 355.523302 108.502109 351.702463 108.92529 348.406533 109.555993 Q 342.274473 110.731948 337.338715 112.034045 Q 325.453019 115.171283 318.214178 117.441813 Q 311.361897 119.586202 308.643771 120.672639 Q 305.608259 121.885216 304.123056 124.078434 Q 301.852526 127.43947 299.577926 131.93984" style="fill:none;stroke-width:0.50;stroke:#808080;"/>
		<path vector-effect="non-scaling-stroke" d="M 191.418495 133.384353 Q 191.288285 132.36709 190.983106 131.80963 Q 189.534524 129.140333 187.259925 125.156733 Q 185.514303 122.100876 182.198026 120.762158 Q 180.065844 119.903588 177.327373 119.024673 Q 162.035881 114.113329 147.143156 110.650567 Q 143.350801 109.767583 138.447595 109.18164 C 135.802712 108.868323 132.372503 109.3973 130.71233 111.631209 C 128.087793 115.163144 129.30037 121.274858 130.993095 124.99804 Q 133.479285 130.470912 139.147472 131.362035 Q 143.045622 131.976461 146.992601 132.358952 Q 167.586066 134.369063 188.391121 135.406671 Q 190.657582 135.516535 191.369666 133.774981 C 191.418495 133.65291 191.43884 133.518631 191.418495 133.384353" style="fill:none;stroke-width:0.50;stroke:#808080;"/>
		<path d="M 153.242663 89.772269 C 153.328113 89.841443 153.450185 89.825167 153.519358 89.739717 C 160.037977 81.227263 166.161898 73.907041 173.950061 64.409877 Q 174.902219 63.246129 176.578668 61.349951 Q 179.589765 57.940087 183.581504 56.637991 Q 184.256966 56.418262 187.589518 55.730593 C 187.788902 55.689902 187.992354 55.669557 188.195807 55.669557 Q 190.747101 55.653281 191.414426 55.580038 Q 193.888408 55.295204 194.588285 55.266721 C 198.046978 55.112097 200.411096 54.823194 203.560542 54.84354 C 208.781133 54.880161 214.160418 54.554637 218.876448 54.473256 Q 243.522687 54.037868 252.482736 54.168077 Q 266.634893 54.379668 272.600122 54.45698 C 278.43514 54.534292 283.065719 54.872023 288.982119 54.851678 C 291.403204 54.84354 293.372624 54.990026 296.375584 55.209754 C 297.59223 55.299273 298.914671 55.209754 300.180146 55.445759 C 301.66128 55.722455 303.764979 55.616659 304.74969 55.706178 Q 309.563376 56.149705 313.107519 58.880038 C 314.983352 60.32862 317.257951 63.294958 318.608876 64.902233 Q 320.248703 66.855377 333.574843 83.412343 Q 333.936989 83.859939 335.983721 86.59841 Q 337.021329 87.994094 337.27361 88.177201 C 337.375337 88.254513 337.460787 88.352171 337.521822 88.466104 Q 337.953142 89.288052 338.653018 89.800753 C 339.03144 90.077448 339.564486 89.833305 339.601107 89.369433 Q 339.857457 86.069433 341.249073 82.964748 C 342.433166 80.315796 345.366952 79.306671 348.194942 79.274119 Q 352.390133 79.221221 353.293462 79.294464 Q 359.043031 79.762405 362.351169 80.275105 Q 363.478296 80.450075 364.780392 81.219125 C 366.705053 82.350321 367.160786 84.921961 366.615534 87.062282 Q 366.025521 89.397917 364.53218 90.915672 Q 363.41726 92.046869 360.638098 92.819988 Q 358.033906 93.548348 356.227248 93.833182 Q 353.964856 94.187189 353.126631 94.553404 C 353.114424 94.557473 353.106286 94.561542 353.094079 94.565611 L 348.019973 95.163761 C 347.442168 95.232935 347.254991 95.98164 347.73107 96.315303 Q 348.089147 96.567584 348.361773 96.685586 Q 349.513314 97.18201 353.73292 98.874735 Q 356.410355 99.948965 360.483474 101.877695 Q 368.287913 105.572392 371.425151 113.498903 Q 372.776076 116.912836 373.244017 119.622824 C 373.724165 122.418262 374.212451 125.042799 374.265348 127.801615 C 374.570527 143.341319 374.403696 164.024303 374.395558 194.306177 Q 374.391489 198.293846 371.050799 200.259198 Q 369.907395 200.93466 368.353018 201.333427 Q 367.107889 201.650813 365.468061 201.703711 C 363.527124 201.760677 361.834399 202.065856 359.950429 202.09027 Q 353.541674 202.171651 344.488037 202.110616 C 341.143277 202.086201 338.677433 201.809506 335.763993 201.711849 Q 334.982735 201.683365 334.413068 201.504327 C 333.782365 201.309013 333.253388 201.357841 332.643031 201.036386 C 330.238222 199.770912 329.737729 197.703834 329.815041 195.189161 C 329.953388 190.4772 329.920836 185.667583 329.928974 180.764377 C 329.928974 180.455129 329.676693 180.202848 329.363376 180.202848 L 162.861898 180.202848 C 162.621824 180.202848 162.430579 180.402231 162.442786 180.642305 Q 162.707274 186.623809 162.64217 196.0518 Q 162.617755 199.583735 159.773489 201.113698 C 159.68397 201.162527 159.590382 201.195079 159.488655 201.215425 L 157.303575 201.638606 C 157.238471 201.650813 157.173366 201.658951 157.108261 201.66302 C 154.357583 201.744401 151.785943 202.053649 149.637484 202.082132 Q 140.852404 202.191997 131.908631 202.086201 C 129.764242 202.057718 127.107152 201.760677 124.718619 201.719987 Q 123.445006 201.695573 121.487793 201.089284 Q 118.086067 200.031331 116.775832 196.816781 Q 116.22651 195.457718 116.238718 192.951183 Q 116.238718 192.719247 116.173613 189.02048 Q 115.978298 177.49286 116.002713 137.172639 Q 116.002713 133.543046 116.104439 131.012096 C 116.259063 127.240086 116.088163 124.896313 116.507275 122.198533 Q 116.991492 119.061295 117.276326 117.771406 C 118.741184 111.199889 122.187669 105.682257 128.205795 102.492121 Q 134.114057 99.358952 141.08434 97.161665 C 141.959186 96.88497 143.70074 96.445512 143.029346 95.29804 C 142.923551 95.123071 142.744513 95.009137 142.54106 94.984723 L 139.281751 94.614439 C 139.253267 94.61037 139.228853 94.602232 139.20037 94.594094 C 137.841307 94.040703 136.49852 93.92677 135.17201 93.593108 C 133.064241 93.060062 130.716399 92.535155 129.064365 91.521961 C 127.534402 90.58201 126.639211 88.474242 126.277065 86.573996 C 125.862022 84.401123 126.647349 82.199766 128.624907 81.052294 Q 129.007398 80.832565 131.172133 80.205932 C 131.326757 80.161172 131.48545 80.136758 131.648212 80.132689 Q 132.559679 80.112343 134.150678 79.855993 Q 139.269544 79.025907 145.450431 79.339224 C 145.592848 79.343293 145.731196 79.367707 145.869543 79.408398 Q 146.52873 79.599643 147.509371 79.904822 C 149.706658 80.580284 151.167447 82.309631 151.777805 84.543539 Q 152.298643 86.447855 152.644513 88.755007 Q 152.738101 89.373502 153.242663 89.772269 Z M 246.065843 94.968447 Q 328.211835 94.99693 329.847593 95.086449 C 329.892353 95.090518 329.937112 95.078311 329.973734 95.053897 Q 330.685818 94.565611 330.258567 93.621591 Q 329.440688 91.819002 327.971761 89.64206 Q 320.798025 79.0137 313.335386 68.560309 C 310.91837 65.166721 308.668185 62.151554 304.066089 62.167831 C 301.783352 62.175969 300.159801 61.78534 297.661404 61.732442 C 295.932057 61.695821 292.778543 61.386573 290.316767 61.386573 C 284.99038 61.390642 279.700615 60.995944 274.325399 60.959323 C 265.4508 60.898287 256.035017 60.938977 246.07805 60.938977 C 236.121084 60.934908 226.705301 60.88608 217.830702 60.938977 C 212.455486 60.975599 207.16572 61.366228 201.839333 61.35809 C 199.377558 61.35809 196.224043 61.663268 194.494697 61.69989 C 191.9963 61.752787 190.372749 62.139347 188.090012 62.131209 C 183.487915 62.110864 181.233661 65.12603 178.816645 68.519618 Q 171.345869 78.964871 164.168064 89.589162 Q 162.695067 91.766104 161.877188 93.568693 Q 161.449938 94.512713 162.162022 95.000999 C 162.198643 95.025413 162.243403 95.037621 162.288162 95.033552 Q 163.919851 94.944032 246.065843 94.968447 Z M 299.577926 131.93984 C 298.772254 133.530838 299.56165 135.390395 301.356101 135.370049 Q 304.945004 135.329359 311.077063 134.906178 C 323.687051 134.03947 334.571761 133.307041 346.180762 131.943909 C 351.494942 131.321344 355.185571 130.788298 357.671761 126.532072 Q 360.796791 121.173132 360.190503 115.057349 Q 359.917876 112.327016 358.164116 110.797053 C 355.523302 108.502109 351.702463 108.92529 348.406533 109.555993 Q 342.274473 110.731948 337.338715 112.034045 Q 325.453019 115.171283 318.214178 117.441813 Q 311.361897 119.586202 308.643771 120.672639 Q 305.608259 121.885216 304.123056 124.078434 Q 301.852526 127.43947 299.577926 131.93984 Z M 191.418495 133.384353 Q 191.288285 132.36709 190.983106 131.80963 Q 189.534524 129.140333 187.259925 125.156733 Q 185.514303 122.100876 182.198026 120.762158 Q 180.065844 119.903588 177.327373 119.024673 Q 162.035881 114.113329 147.143156 110.650567 Q 143.350801 109.767583 138.447595 109.18164 C 135.802712 108.868323 132.372503 109.3973 130.71233 111.631209 C 128.087793 115.163144 129.30037 121.274858 130.993095 124.99804 Q 133.479285 130.470912 139.147472 131.362035 Q 143.045622 131.976461 146.992601 132.358952 Q 167.586066 134.369063 188.391121 135.406671 Q 190.657582 135.516535 191.369666 133.774981 C 191.418495 133.65291 191.43884 133.518631 191.418495 133.384353 Z" style="fill:#000000;"/>
		<path d="M 301.356101 135.370049 C 299.56165 135.390395 298.772254 133.530838 299.577926 131.93984 Q 301.852526 127.43947 304.123056 124.078434 Q 305.608259 121.885216 308.643771 120.672639 Q 311.361897 119.586202 318.214178 117.441813 Q 325.453019 115.171283 337.338715 112.034045 Q 342.274473 110.731948 348.406533 109.555993 C 351.702463 108.92529 355.523302 108.502109 358.164116 110.797053 Q 359.917876 112.327016 360.190503 115.057349 Q 360.796791 121.173132 357.671761 126.532072 C 355.185571 130.788298 351.494942 131.321344 346.180762 131.943909 C 334.571761 133.307041 323.687051 134.03947 311.077063 134.906178 Q 304.945004 135.329359 301.356101 135.370049 Z" style="fill:#ffffff;"/>
		<path d="M 191.369666 133.774981 Q 190.657582 135.516535 188.391121 135.406671 Q 167.586066 134.369063 146.992601 132.358952 Q 143.045622 131.976461 139.147472 131.362035 Q 133.479285 130.470912 130.993095 124.99804 C 129.30037 121.274858 128.087793 115.163144 130.71233 111.631209 C 132.372503 109.3973 135.802712 108.868323 138.447595 109.18164 Q 143.350801 109.767583 147.143156 110.650567 Q 162.035881 114.113329 177.327373 119.024673 Q 180.065844 119.903588 182.198026 120.762158 Q 185.514303 122.100876 187.259925 125.156733 Q 189.534524 129.140333 190.983106 131.80963 Q 191.288285 132.36709 191.418495 133.384353 C 191.43884 133.518631 191.418495 133.65291 191.369666 133.774981 Z" style="fill:#ffffff;"/>
	</g>
	<g id="surface4">
	</g>
</svg>
