<?xml version="1.0" encoding="utf-8"?>
<svg xmlns="http://www.w3.org/2000/svg" width="490pt" height="280pt" viewBox="0 0 490 280" version="1.1" xmlns:xlink="http://www.w3.org/1999/xlink">
	<g id="surface2" data-size="67.74766645494 148" data-bboxpos="211 52.744713254357" data-pivot="244.87383322747 126.74471325436" data-center="244.87383322747 126.74471325436">
		<path d="M 278.133898 52.744713 C 278.474506 52.744713 278.747666 53.017874 278.747666 53.358482 L 278.747666 55.081756 C 278.747666 55.385268 278.501484 55.631451 278.197972 55.631451 L 275.756386 55.631451 C 275.564162 55.631451 275.398916 55.77309 275.368565 55.965314 Q 275.297746 56.369997 275.297746 57.364842 Q 275.291001 119.183511 275.301118 156.680745 Q 275.30449 160.140782 275.264022 163.415341 C 275.243788 165.236413 275.000978 167.283434 274.768286 168.831345 Q 273.793675 175.302898 271.645483 179.521716 Q 269.719868 183.3055 268.984694 184.273366 Q 267.106291 186.762166 266.829758 187.096029 Q 260.60776 194.579288 251.60694 198.160731 Q 250.693032 198.524946 247.74222 199.411875 Q 246.703534 199.725504 245.587284 199.884005 Q 244.538481 200.032389 243.67853 200.312295 C 243.509912 200.369625 243.331177 200.399976 243.152442 200.403348 C 241.557318 200.443816 240.238726 200.700116 238.778496 200.727094 Q 235.706279 200.781052 234.650731 200.669764 C 232.816169 200.47754 231.622355 200.467423 230.152007 200.19089 Q 227.535059 199.698526 227.059556 199.587238 C 220.864537 198.11689 214.885349 195.061535 211.239831 189.719722 Q 210.990277 189.352136 211.000394 188.927219 C 211.010511 188.492185 211.492758 188.235885 211.8536 188.475323 Q 213.104745 189.298178 214.763944 190.040096 Q 218.591569 191.753253 223.107154 192.903227 Q 228.030795 194.154371 234.86319 193.631656 C 235.028435 193.618167 235.190308 193.584443 235.348809 193.533858 Q 236.067121 193.301165 237.09569 193.024632 Q 240.919942 192.002808 243.884244 189.250965 Q 248.639266 184.83655 250.153455 178.418955 Q 250.514297 176.884533 250.767224 175.400696 C 251.13481 173.228898 251.063991 170.976164 251.060619 168.652611 Q 251.023523 103.357042 251.053874 72.28752 Q 251.057246 69.137739 250.767224 67.583082 C 250.177061 64.450163 248.956268 62.079396 246.615853 59.772704 Q 245.128643 58.302357 243.233379 57.455895 Q 240.822144 56.376741 239.334935 56.167655 Q 237.928662 55.968686 237.584681 55.843909 C 237.547586 55.83042 237.507117 55.823675 237.470021 55.820302 Q 232.495795 55.321194 227.312483 55.557259 C 226.975248 55.570748 226.69197 55.30096 226.69197 54.960352 L 226.69197 53.311269 C 226.69197 52.99764 226.944896 52.744713 227.258525 52.744713 L 278.133898 52.744713 Z" style="fill:#000000;"/>
	</g>
	<g id="surface4">
	</g>
</svg>
