<?xml version="1.0" encoding="utf-8"?>
<svg xmlns="http://www.w3.org/2000/svg" width="490pt" height="280pt" viewBox="0 0 490 280" version="1.1" xmlns:xlink="http://www.w3.org/1999/xlink">
	<g id="surface2" data-size="157.29066609729 148" data-bboxpos="166.5 52.248634430609" data-pivot="245.14533304865 126.24863443061" data-center="245.14533304865 126.24863443061">
		<path vector-effect="non-scaling-stroke" d="M 279.236523 134.584916 Q 278.552298 135.322255 276.440259 137.7436 C 274.03766 140.502373 270.266609 142.798746 266.408077 142.605038 Q 263.183782 142.445698 261.134229 140.055595 C 260.068837 138.812117 259.30338 136.178318 259.031564 134.709888 Q 258.709759 132.966519 258.6379 129.904689 Q 258.609781 128.608097 258.931586 127.330251 Q 259.493963 125.11511 260.715571 122.906218 C 261.340434 121.775215 262.174627 121.075368 263.068182 120.006852 C 263.186906 119.866257 263.199403 119.663177 263.099425 119.506961 L 258.77537 112.930273 C 258.569165 112.617841 258.244236 112.405388 257.875567 112.34915 Q 256.657083 112.161691 256.238424 112.73969" style="fill:none;stroke-width:0.50;stroke:#e19a54;"/>
		<path vector-effect="non-scaling-stroke" d="M 256.238424 112.73969 Q 255.979106 112.730317 255.722912 112.692825 Q 255.444848 112.649085 255.213648 112.683452 Q 246.059399 114.033157 236.49274 112.620966 Q 236.024092 112.552231 235.746028 112.945895" style="fill:none;stroke-width:0.50;stroke:#f8d4a8;"/>
		<path vector-effect="non-scaling-stroke" d="M 235.746028 112.945895 Q 235.855379 112.489744 235.143035 112.374145 C 234.083891 112.202307 233.680854 112.280415 233.093482 113.192716 Q 231.831258 115.154787 229.494269 118.52905 Q 228.938141 119.331999 228.885027 119.622561 C 228.853784 119.788149 228.8944 119.959987 228.994378 120.094333 C 229.612993 120.944147 230.494051 121.681486 231.075174 122.515678 Q 233.693351 126.271108 233.443406 130.991951 Q 233.296563 133.772593 232.756056 136.078339 Q 231.86875 139.852515 228.91627 141.720856 C 226.554287 143.217404 222.836349 142.617535 220.486862 141.452165 Q 217.040741 139.736915 214.563157 136.362652 Q 213.457149 134.856731 212.679194 134.185003" style="fill:none;stroke-width:0.50;stroke:#e19a54;"/>
		<path vector-effect="non-scaling-stroke" d="M 235.746028 112.945895 Q 235.424223 118.472812 235.499207 123.99348 C 235.50858 124.674582 235.43672 125.515023 235.636677 126.255486 C 235.724158 126.589788 236.027216 126.827236 236.374016 126.836609 Q 245.743843 127.086554 255.148038 126.867852 C 255.591691 126.855355 256.038468 126.886598 256.244673 126.452318 Q 256.541483 125.833703 256.547732 124.97764 Q 256.588348 118.857103 256.238424 112.73969" style="fill:none;stroke-width:0.50;stroke:#e8bc8c;"/>
		<path vector-effect="non-scaling-stroke" d="M 280.026976 145.948057 Q 274.756253 146.947839 273.309694 147.422735 Q 268.345154 149.050504 265.864446 153.112117 Q 264.033596 156.111461 263.652429 159.582578 C 263.330624 162.513187 264.386644 166.096779 266.857979 168.043229 C 266.939211 168.105715 267.01107 168.177574 267.070432 168.261931 Q 267.554701 168.927411 268.160819 169.386685" style="fill:none;stroke-width:0.50;stroke:#e19a54;"/>
		<path vector-effect="non-scaling-stroke" d="M 268.160819 169.386685 Q 268.507618 171.195665 266.892346 172.032982" style="fill:none;stroke-width:0.50;stroke:#de8d40;"/>
		<path vector-effect="non-scaling-stroke" d="M 266.892346 172.032982 Q 265.355182 172.223565 265.195842 173.873205 Q 264.917778 176.738204 265.148977 182.621293 Q 265.333312 187.307769 266.276856 191.906764 Q 266.651774 193.728241 267.579696 194.89986" style="fill:none;stroke-width:0.50;stroke:#e8bc8c;"/>
		<path vector-effect="non-scaling-stroke" d="M 267.579696 194.89986 L 264.7022 195.349761" style="fill:none;stroke-width:0.50;stroke:#e19a54;"/>
		<path vector-effect="non-scaling-stroke" d="M 222.770738 197.402438 Q 225.288938 194.034424 226.076266 191.891142 Q 227.716533 187.41712 227.994597 181.455923 Q 228.169559 177.659877 228.113321 175.522844 C 228.066456 173.901324 227.113539 173.09525 225.863812 172.170452 Q 224.835912 171.411243 222.933203 170.392715 C 222.770738 170.305234 222.758241 170.074035 222.914457 169.974057 L 224.236043 169.105497 C 224.257913 169.089875 224.279784 169.074253 224.295405 169.055508 C 225.3483 167.890137 226.248103 167.090312 226.894837 166.021796 Q 229.091232 162.391339 228.194553 158.254743 C 227.216642 153.749478 224.207924 149.73473 219.918237 147.910129 Q 218.07489 147.125925 215.841003 146.776002 Q 213.650856 146.432327 212.594837 146.226122 Q 212.166806 146.144889 212.291778 145.710609" style="fill:none;stroke-width:0.50;stroke:#e19a54;"/>
		<path vector-effect="non-scaling-stroke" d="M 267.579696 194.89986 Q 269.041876 196.215197 270.722759 196.480764 Q 275.696672 197.271216 282.72951 196.996276 C 284.97277 196.908796 287.669056 196.512007 288.487627 194.031299 Q 288.871918 192.872178 288.906285 192.472265 C 289.415549 186.779759 289.406176 183.168048 289.493657 176.053978 C 289.509278 175.029202 289.381181 173.87008 288.959399 173.029639 C 288.197065 171.508097 286.94109 171.56121 285.244585 171.483102 Q 282.985704 171.383124 280.708077 171.383124" style="fill:none;stroke-width:0.50;stroke:#f8d4a8;"/>
		<path vector-effect="non-scaling-stroke" d="M 280.708077 171.383124 Q 283.635562 171.048822 286.072529 171.176919 C 286.484939 171.198789 286.697393 170.689525 286.39121 170.411461 L 285.335191 169.452296 C 284.910283 169.064881 284.338533 168.88367 283.766783 168.952405 Q 281.026757 169.283583 278.61166 169.292956 Q 271.072683 169.324199 268.160819 169.386685" style="fill:none;stroke-width:0.50;stroke:#eea55c;"/>
		<path vector-effect="non-scaling-stroke" d="M 280.708077 171.383124 L 266.892346 172.032982" style="fill:none;stroke-width:0.50;stroke:#f5c794;"/>
		<path vector-effect="non-scaling-stroke" d="M 226.501173 67.383977 Q 226.510546 67.215264 226.373076 67.077794 C 224.070454 64.828285 220.193177 64.478362 217.778079 66.665384 C 215.147404 69.049238 215.634798 72.910894 218.243603 75.016684 C 218.368575 75.119786 218.559159 75.088543 218.64664 74.951073 Q 221.699098 70.189614 226.423065 67.512074 C 226.466806 67.483955 226.498049 67.43709 226.501173 67.383977" style="fill:none;stroke-width:0.50;stroke:#f8c691;"/>
		<path vector-effect="non-scaling-stroke" d="M 265.8457 67.408971 C 265.851948 67.462085 265.880067 67.508949 265.923808 67.537068 Q 270.6509 70.186489 273.718979 74.926079 C 273.80646 75.063548 273.997043 75.094792 274.122016 74.991689 C 276.715199 72.876526 277.186971 69.021119 274.550048 66.652887 C 272.128702 64.481486 268.260797 64.847031 265.973797 67.102788 Q 265.836327 67.240258 265.8457 67.408971" style="fill:none;stroke-width:0.50;stroke:#f8c691;"/>
		<path vector-effect="non-scaling-stroke" d="M 235.999097 88.810544 C 235.999097 87.107791 234.621274 85.729967 232.918521 85.729967 C 231.215768 85.729967 229.837944 87.107791 229.837944 88.810544 C 229.837944 90.513297 231.215768 91.891121 232.918521 91.891121 C 234.621274 91.891121 235.999097 90.513297 235.999097 88.810544" style="fill:none;stroke-width:0.50;stroke:#c6874b;"/>
		<path vector-effect="non-scaling-stroke" d="M 262.546421 88.801171 C 262.546421 87.123413 261.187343 85.764335 259.509585 85.764335 C 257.831826 85.764335 256.472748 87.123413 256.472748 88.801171 C 256.472748 90.47893 257.831826 91.838008 259.509585 91.838008 C 261.187343 91.838008 262.546421 90.47893 262.546421 88.801171" style="fill:none;stroke-width:0.50;stroke:#c6874b;"/>
		<path vector-effect="non-scaling-stroke" d="M 259.709541 98.114761 C 259.709541 92.547228 253.685857 88.032589 246.253107 88.032589 C 238.820356 88.032589 232.796672 92.547228 232.796672 98.114761 C 232.796672 103.682294 238.820356 108.196933 246.253107 108.196933 C 253.685857 108.196933 259.709541 103.682294 259.709541 98.114761" style="fill:none;stroke-width:0.50;stroke:#f8d4a8;"/>
		<path vector-effect="non-scaling-stroke" d="M 232.996191 86.783019 C 232.71544 86.776614 232.484241 87.126537 232.474961 87.563598 C 232.465495 88.001346 232.687321 88.357518 232.965823 88.363611 C 233.246574 88.370016 233.477773 88.020092 233.487053 87.583031 C 233.496519 87.145283 233.274693 86.789111 232.996191 86.783019" style="fill:none;stroke-width:0.50;stroke:#cda983;"/>
		<path vector-effect="non-scaling-stroke" d="M 259.009694 87.032808 L 259.069056 88.238794 C 259.07218 88.357518 259.175283 88.448123 259.294007 88.441875 L 259.372115 88.43875 C 259.765779 88.420005 260.068837 88.107573 260.050091 87.742028 L 260.03447 87.429596 C 260.018848 87.064051 259.684546 86.782862 259.290882 86.804733 L 259.212774 86.807857 C 259.09405 86.814106 259.003445 86.914084 259.009694 87.032808" style="fill:none;stroke-width:0.50;stroke:#cda983;"/>
		<path vector-effect="non-scaling-stroke" d="M 239.941986 100.411134 Q 240.466871 101.317186 241.232329 101.948298 C 244.847164 104.928897 249.733596 104.429006 252.39239 100.536107 C 252.420509 100.495491 252.41426 100.439253 252.376768 100.404885 C 252.339276 100.370518 252.283039 100.370518 252.245547 100.401761 Q 250.039779 102.2826 247.021689 102.457562 C 246.871721 102.466935 246.743624 102.345086 246.743624 102.195119 L 246.743624 96.668202 C 246.743624 96.511986 246.837354 96.371392 246.981072 96.31203 Q 248.349523 95.759026 249.839823 94.89359 C 252.71107 93.22208 251.898748 90.307092 248.855663 89.747839 C 246.92171 89.391667 242.235235 89.176089 240.941767 90.997566 C 240.035715 92.275412 240.6762 93.562631 241.850944 94.521796 Q 243.019438 95.471589 245.090861 96.155814 Q 245.706351 96.35577 245.703227 97.011877 Q 245.690729 100.001848 245.728221 102.160752 C 245.731346 102.338838 245.581378 102.479432 245.406417 102.470059 Q 242.428942 102.323216 240.051337 100.320529 C 239.988851 100.267415 239.90137 100.342399 239.941986 100.411134" style="fill:none;stroke-width:0.50;stroke:#cda983;"/>
		<path vector-effect="non-scaling-stroke" d="M 232.765429 155.895883 C 232.815418 157.782971 234.743122 157.782971 236.161562 157.820463 Q 246.990445 158.114149 256.1197 157.851706 C 257.822453 157.801717 259.206526 157.879825 259.240893 155.927127 Q 259.32525 151.218781 259.290882 147.675805 Q 259.256515 144.251553 258.969078 141.65837 Q 258.772246 139.880633 257.95055 135.725292 Q 257.341308 132.647839 257.2632 129.885943 C 257.256952 129.611003 257.063244 129.373555 256.794553 129.311068 Q 256.454002 129.23296 255.626058 129.226712 Q 245.7126 129.142355 236.024092 129.223587 Q 234.736873 129.236085 234.739998 130.435822 Q 234.743122 133.044627 234.149502 135.800275 Q 233.546508 138.605912 233.455903 139.333878 Q 232.677948 145.610631 232.6717 148.256928 Q 232.662327 152.027979 232.765429 155.895883" style="fill:none;stroke-width:0.50;stroke:#e19a54;"/>
		<path vector-effect="non-scaling-stroke" d="M 261.456034 163.069316 C 261.449785 161.960183 261.33731 160.80731 259.887627 160.804186 Q 244.662829 160.779191 232.353019 160.869796 C 230.928331 160.882294 230.672137 161.63213 230.662764 162.953716 C 230.619023 172.142333 230.893963 184.336543 230.578407 194.96547 Q 230.537791 196.333921 231.89062 196.512007 Q 235.658547 197.002525 239.067177 197.177487 Q 249.12123 197.696124 259.900124 196.502634 Q 261.421667 196.333921 261.440413 194.759265 Q 261.47478 191.997369 261.396672 185.992431 Q 261.352932 182.35885 261.418542 177.225597 Q 261.493526 171.351881 261.456034 163.069316" style="fill:none;stroke-width:0.50;stroke:#e19a54;"/>
		<path vector-effect="non-scaling-stroke" d="M 239.96145 120.019724 C 239.910743 123.249893 242.52892 125.908687 245.811328 125.961082 C 249.093111 126.011789 251.795645 123.437352 251.844916 120.206433 C 251.895623 116.976264 249.277446 114.31747 245.995038 114.265075 C 242.713255 114.214368 240.010721 116.788805 239.96145 120.019724" style="fill:none;stroke-width:0.50;stroke:#cda983;"/>
		<path vector-effect="non-scaling-stroke" d="M 238.611964 142.787279 C 238.54854 146.829115 241.850944 150.156513 245.988196 150.221217 C 250.124136 150.287734 253.529641 147.063439 253.594315 143.022666 C 253.657738 138.98083 250.355335 135.653432 246.218083 135.588728 C 242.082143 135.522211 238.676637 138.746506 238.611964 142.787279" style="fill:none;stroke-width:0.50;stroke:#f8c691;"/>
		<path vector-effect="non-scaling-stroke" d="M 207.052298 167.255901 C 207.114785 167.237155 207.139779 167.162171 207.102288 167.109058 Q 205.408908 164.634599 205.090227 161.922691 Q 204.705936 158.639034 206.433684 156.23331 Q 208.267658 153.680743 211.338862 153.04963 C 214.388195 152.427891 217.078232 153.446419 219.427719 155.620944 Q 223.008186 158.935844 224.245416 163.725422 Q 224.464118 164.572112 224.454745 167.177793 C 224.454745 167.287144 224.573469 167.355879 224.667199 167.302766 L 224.726561 167.271522 C 224.860907 167.196539 224.945263 167.055945 224.951512 166.899729 Q 225.067112 163.619196 224.860907 162.666279 C 224.051708 158.879606 221.920924 155.395993 218.618521 153.318322 C 214.89121 150.97196 210.145373 150.743884 206.93045 154.099401 Q 204.168554 156.980022 204.52785 161.238466 Q 204.659071 162.828743 204.955882 163.575455 Q 205.758831 165.584391 206.902331 167.287144 C 206.90858 167.293393 206.917953 167.296517 206.927326 167.293393 L 207.052298 167.255901" style="fill:none;stroke-width:0.50;stroke:#f8c691;"/>
		<path vector-effect="non-scaling-stroke" d="M 210.742117 170.361472 C 206.311835 170.455202 203.037551 173.029639 201.69097 177.184981 C 200.413124 181.127869 200.941134 185.548778 202.512666 189.347948 C 203.890489 192.675346 206.864839 196.030862 210.517166 196.815066 C 214.25385 197.618016 218.031149 196.858806 220.846159 194.196888 C 223.055051 192.10672 223.829882 188.529377 223.851752 185.58627 Q 223.90799 178.469075 218.843472 173.623259 Q 215.328615 170.261494 210.742117 170.361472" style="fill:none;stroke-width:0.50;stroke:#f8d4a8;"/>
		<path vector-effect="non-scaling-stroke" d="M 267.40161 168.215066 Q 267.489091 165.034511 267.792149 163.662936 C 268.195186 161.853956 268.829423 159.745042 270.097896 158.111024 Q 271.5632 156.230185 271.828767 156.020856 C 273.69086 154.5618 274.799993 153.740105 276.87454 153.149609 Q 279.883257 152.293546 282.573294 153.73698 Q 284.629095 154.839864 285.613255 156.498877 Q 286.622409 158.20163 286.763004 160.498003 Q 286.966084 163.809779 285.410174 166.306108 Q 285.03838 166.896604 283.516838 168.718081 C 283.48247 168.758697 283.507465 168.821184 283.560578 168.830557 L 283.869886 168.874297 C 283.87301 168.874297 283.876134 168.874297 283.879259 168.871173 Q 285.706984 166.793502 286.547426 164.972025 Q 288.750069 160.198068 286.125643 155.527214 Q 284.276047 152.234184 280.511245 151.743666 C 278.239866 151.446856 275.874758 151.734293 273.818957 153.015263 Q 272.050594 154.118147 271.147666 155.08981 C 269.313692 157.058129 267.342248 160.163701 267.298507 163.019327 C 267.295383 163.131802 267.276637 163.244278 267.236021 163.350504 Q 266.686141 164.85955 267.01107 166.521686 Q 267.176659 167.387122 267.161037 167.927629 Q 267.157913 168.105715 267.279761 168.255682 C 267.320378 168.305671 267.398485 168.277553 267.40161 168.215066" style="fill:none;stroke-width:0.50;stroke:#f8c691;"/>
		<path vector-effect="non-scaling-stroke" d="M 236.185682 178.296863 C 235.924114 183.63982 240.063834 188.185702 245.429911 188.449082 C 250.795864 188.710587 255.360491 184.592737 255.620684 179.247405 C 255.882252 173.904448 251.742532 169.358566 246.376455 169.095186 C 241.010502 168.833681 236.445875 172.951531 236.185682 178.296863" style="fill:none;stroke-width:0.50;stroke:#e19a54;"/>
		<path vector-effect="non-scaling-stroke" d="M 283.88632 182.598142 C 283.251271 179.100187 279.852014 176.785068 276.298072 177.432458 C 272.744192 178.078536 270.37596 181.437177 271.012508 184.937693 C 271.647557 188.435647 275.046814 190.750766 278.600756 190.103377 C 282.154636 189.457299 284.522868 186.098658 283.88632 182.598142" style="fill:none;stroke-width:0.50;stroke:#e8bc8c;"/>
		<path d="M 184.482231 52.743426 C 184.054199 53.41203 183.329358 54.043142 182.854462 54.839843 Q 181.411027 57.261189 181.076725 59.526319 Q 180.801785 61.391536 180.914261 63.744147 Q 181.023612 65.965537 181.748453 67.861997 C 183.994837 73.732589 189.424901 78.00978 195.826627 78.172244 C 196.19842 78.181617 196.376507 78.634643 196.107815 78.890837 Q 194.251971 80.671698 191.974344 81.777706 Q 191.09641 82.205738 190.902703 82.249478 C 190.415309 82.358829 189.818565 82.715001 189.440522 82.796234 Q 183.316861 84.09595 178.48979 81.534009 Q 175.496695 79.946856 172.987868 76.431999 Q 171.450704 74.282469 170.738359 70.91758 Q 170.129118 68.043208 170.857084 64.984501 Q 172.331761 58.785856 177.627479 55.167896 Q 178.977184 54.243099 181.28293 53.224571 C 182.092128 52.868399 183.257499 52.652821 184.07607 52.277903 C 184.366631 52.143557 184.654068 52.471611 184.482231 52.743426 Z" style="fill:#ea9848;"/>
		<path d="M 279.236523 134.584916 Q 278.552298 135.322255 276.440259 137.7436 C 274.03766 140.502373 270.266609 142.798746 266.408077 142.605038 Q 263.183782 142.445698 261.134229 140.055595 C 260.068837 138.812117 259.30338 136.178318 259.031564 134.709888 Q 258.709759 132.966519 258.6379 129.904689 Q 258.609781 128.608097 258.931586 127.330251 Q 259.493963 125.11511 260.715571 122.906218 C 261.340434 121.775215 262.174627 121.075368 263.068182 120.006852 C 263.186906 119.866257 263.199403 119.663177 263.099425 119.506961 L 258.77537 112.930273 C 258.569165 112.617841 258.244236 112.405388 257.875567 112.34915 Q 256.657083 112.161691 256.238424 112.73969 Q 255.979106 112.730317 255.722912 112.692825 Q 255.444848 112.649085 255.213648 112.683452 Q 246.059399 114.033157 236.49274 112.620966 Q 236.024092 112.552231 235.746028 112.945895 Q 235.855379 112.489744 235.143035 112.374145 C 234.083891 112.202307 233.680854 112.280415 233.093482 113.192716 Q 231.831258 115.154787 229.494269 118.52905 Q 228.938141 119.331999 228.885027 119.622561 C 228.853784 119.788149 228.8944 119.959987 228.994378 120.094333 C 229.612993 120.944147 230.494051 121.681486 231.075174 122.515678 Q 233.693351 126.271108 233.443406 130.991951 Q 233.296563 133.772593 232.756056 136.078339 Q 231.86875 139.852515 228.91627 141.720856 C 226.554287 143.217404 222.836349 142.617535 220.486862 141.452165 Q 217.040741 139.736915 214.563157 136.362652 Q 213.457149 134.856731 212.679194 134.185003 Q 212.35114 133.035254 212.316773 132.719698 C 212.119941 130.720135 212.154308 128.036347 212.691691 125.964925 Q 214.278844 119.850636 218.424813 115.342246 Q 220.95551 112.592847 224.842161 110.04028 C 225.30456 109.734097 225.679478 109.665362 226.048147 109.252952 C 226.251228 109.024877 226.207487 108.668704 225.954418 108.499991 Q 223.189397 106.656644 221.20858 104.560227 C 216.887649 99.983103 214.588152 94.599904 214.475676 88.376264 Q 214.460055 87.529574 214.606897 86.686009 C 214.763113 85.773708 214.719373 85.164466 214.919329 84.4365 Q 215.228637 83.296124 215.687911 81.180962 C 215.753522 80.874779 215.609803 80.559222 215.331739 80.409255 Q 212.832285 79.053302 211.170149 76.897523 Q 209.567374 74.822976 209.095602 71.936107 C 208.520728 68.427499 209.679849 64.809539 212.079325 62.210107 Q 215.634798 58.357824 221.342925 58.264095 Q 222.189615 58.248473 223.270629 58.53591 Q 226.844848 59.488827 229.375545 62.072638 C 229.62549 62.325707 230.012906 62.381945 230.322213 62.210107 Q 236.042838 59.054547 242.34771 58.254722 C 249.230581 57.383037 256.21343 58.876461 262.315221 62.263221 C 262.615156 62.431934 262.993198 62.372572 263.230646 62.119502 C 266.333093 58.829596 270.625905 57.489264 275.046814 58.807726 C 278.955335 59.969972 281.364183 62.61002 282.957585 66.290466 C 283.676178 67.952603 283.666805 69.614739 283.557454 71.461211 C 283.498092 72.476614 283.098179 73.201455 282.873229 74.120005 Q 282.770126 74.52929 282.460819 75.141656 Q 280.661212 78.653389 277.024507 80.384261 C 276.683956 80.546725 276.515243 80.931016 276.624594 81.290313 Q 277.44629 83.98035 277.830581 86.97657 C 278.111769 89.160468 277.7431 91.731781 276.993264 94.543666 Q 276.468378 96.508862 275.849764 97.802329 Q 272.634841 104.50399 266.176877 108.587472 C 265.848824 108.793677 265.861321 109.281071 266.204996 109.46853 Q 273.07537 113.223959 277.043253 119.938117 Q 280.661212 126.05553 279.636436 133.21334 Q 279.580198 133.607004 279.236523 134.584916 Z M 226.501173 67.383977 Q 226.510546 67.215264 226.373076 67.077794 C 224.070454 64.828285 220.193177 64.478362 217.778079 66.665384 C 215.147404 69.049238 215.634798 72.910894 218.243603 75.016684 C 218.368575 75.119786 218.559159 75.088543 218.64664 74.951073 Q 221.699098 70.189614 226.423065 67.512074 C 226.466806 67.483955 226.498049 67.43709 226.501173 67.383977 Z M 265.8457 67.408971 C 265.851948 67.462085 265.880067 67.508949 265.923808 67.537068 Q 270.6509 70.186489 273.718979 74.926079 C 273.80646 75.063548 273.997043 75.094792 274.122016 74.991689 C 276.715199 72.876526 277.186971 69.021119 274.550048 66.652887 C 272.128702 64.481486 268.260797 64.847031 265.973797 67.102788 Q 265.836327 67.240258 265.8457 67.408971 Z M 235.999097 88.810544 C 235.999097 87.107791 234.621274 85.729967 232.918521 85.729967 C 231.215768 85.729967 229.837944 87.107791 229.837944 88.810544 C 229.837944 90.513297 231.215768 91.891121 232.918521 91.891121 C 234.621274 91.891121 235.999097 90.513297 235.999097 88.810544 Z M 262.546421 88.801171 C 262.546421 87.123413 261.187343 85.764335 259.509585 85.764335 C 257.831826 85.764335 256.472748 87.123413 256.472748 88.801171 C 256.472748 90.47893 257.831826 91.838008 259.509585 91.838008 C 261.187343 91.838008 262.546421 90.47893 262.546421 88.801171 Z M 259.709541 98.114761 C 259.709541 92.547228 253.685857 88.032589 246.253107 88.032589 C 238.820356 88.032589 232.796672 92.547228 232.796672 98.114761 C 232.796672 103.682294 238.820356 108.196933 246.253107 108.196933 C 253.685857 108.196933 259.709541 103.682294 259.709541 98.114761 Z" style="fill:#f1b270;"/>
		<path d="M 305.377686 69.514761 C 305.296453 69.439777 305.330821 69.305432 305.437048 69.277313 Q 308.005236 68.58059 310.061037 68.480612 C 310.348474 68.468115 310.601544 68.286904 310.710895 68.021337 L 312.15433 64.46274 Q 312.160578 64.447119 312.166827 64.431497 L 312.404275 63.77539 C 312.51675 63.466083 312.95103 63.459834 313.069755 63.766017 Q 313.113495 63.872244 314.381968 66.649762 C 314.688151 67.324615 314.753762 67.968224 315.275522 68.37751 C 315.359879 68.446245 315.462982 68.486861 315.569208 68.502482 L 320.121338 69.139843 C 320.346289 69.171086 320.424397 69.455399 320.249435 69.599118 L 316.743952 72.457868 C 316.403401 72.735932 316.278428 73.201455 316.434644 73.610741 C 316.653346 74.182491 316.653346 74.816727 316.831432 75.363483 Q 317.250091 76.631956 317.378188 77.869185 C 317.403183 78.094136 317.156361 78.250352 316.962654 78.128504 Q 315.672311 77.319306 313.738358 76.007092 Q 313.154111 75.60718 312.557367 75.438467 C 312.479259 75.416596 312.398026 75.429094 312.332416 75.472834 L 308.464511 78.016028 C 308.258306 78.150374 307.995863 77.966039 308.048977 77.725467 L 309.030012 73.445152 C 309.101872 73.13272 308.998769 72.804667 308.761321 72.589089 L 305.377686 69.514761 Z" style="fill:#9a5c26;"/>
		<path d="M 297.301326 96.47137 C 297.301326 97.421162 296.532744 98.189745 295.582951 98.189745 C 294.633159 98.189745 293.864577 97.421162 293.864577 96.47137 C 293.864577 95.521578 294.633159 94.752996 295.582951 94.752996 C 296.532744 94.752996 297.301326 95.521578 297.301326 96.47137 Z" style="fill:#9a5c26;"/>
		<path d="M 194.766858 97.528889 C 195.495449 96.933769 196.585836 97.058742 197.198577 97.811421 C 197.810568 98.561538 197.716839 99.655049 196.986373 100.250294 C 196.257782 100.845414 195.167396 100.720441 194.554655 99.967762 C 193.942663 99.217645 194.036393 98.124134 194.766858 97.528889 Z" style="fill:#9a5c26;"/>
		<path d="M 305.808841 110.308971 Q 306.06816 110.308971 306.311856 110.921337 Q 307.499097 113.880066 307.661561 114.276854 C 307.755291 114.533048 307.980242 114.717383 308.248933 114.761123 L 312.007487 115.351619 C 312.232438 115.385986 312.31367 115.667175 312.144957 115.820267 L 309.33932 118.325969 C 309.139363 118.507179 309.048758 118.778995 309.104996 119.041438 L 309.917318 122.821861 C 309.948562 122.971829 309.823589 123.106174 309.670497 123.087428 Q 309.436174 123.056185 309.248715 122.94371 Q 307.711551 121.993917 306.177511 121.119109 Q 306.021295 121.028503 305.83696 121.031628 Q 305.649501 121.031628 305.493285 121.122233 Q 303.965494 122.00329 302.434579 122.962456 Q 302.24712 123.074931 302.012796 123.106174 C 301.859704 123.128045 301.731607 122.993699 301.762851 122.843732 L 302.556427 119.057059 C 302.612665 118.794617 302.52206 118.522801 302.318979 118.344715 L 299.500845 115.85151 C 299.329007 115.701543 299.41024 115.420354 299.635191 115.382862 L 303.39062 114.77362 C 303.659311 114.72988 303.884262 114.542421 303.974867 114.286227 Q 304.137332 113.889439 305.308951 110.924461 Q 305.549523 110.308971 305.808841 110.308971 Z" style="fill:#d18138;"/>
		<path d="M 235.746028 112.945895 Q 235.424223 118.472812 235.499207 123.99348 C 235.50858 124.674582 235.43672 125.515023 235.636677 126.255486 C 235.724158 126.589788 236.027216 126.827236 236.374016 126.836609 Q 245.743843 127.086554 255.148038 126.867852 C 255.591691 126.855355 256.038468 126.886598 256.244673 126.452318 Q 256.541483 125.833703 256.547732 124.97764 Q 256.588348 118.857103 256.238424 112.73969 Q 256.657083 112.161691 257.875567 112.34915 C 258.244236 112.405388 258.569165 112.617841 258.77537 112.930273 L 263.099425 119.506961 C 263.199403 119.663177 263.186906 119.866257 263.068182 120.006852 C 262.174627 121.075368 261.340434 121.775215 260.715571 122.906218 Q 259.493963 125.11511 258.931586 127.330251 Q 258.609781 128.608097 258.6379 129.904689 Q 258.709759 132.966519 259.031564 134.709888 C 259.30338 136.178318 260.068837 138.812117 261.134229 140.055595 Q 263.183782 142.445698 266.408077 142.605038 C 270.266609 142.798746 274.03766 140.502373 276.440259 137.7436 Q 278.552298 135.322255 279.236523 134.584916 Q 278.836611 136.362652 278.239866 137.515525 Q 276.190314 141.470911 272.950397 144.601477 C 272.675457 144.867044 272.869165 145.329443 273.250332 145.323194 C 274.628156 145.301324 275.902877 145.335691 277.180723 145.313821 Q 278.533552 145.288827 280.026976 145.948057 Q 274.756253 146.947839 273.309694 147.422735 Q 268.345154 149.050504 265.864446 153.112117 Q 264.033596 156.111461 263.652429 159.582578 C 263.330624 162.513187 264.386644 166.096779 266.857979 168.043229 C 266.939211 168.105715 267.01107 168.177574 267.070432 168.261931 Q 267.554701 168.927411 268.160819 169.386685 Q 268.507618 171.195665 266.892346 172.032982 Q 265.355182 172.223565 265.195842 173.873205 Q 264.917778 176.738204 265.148977 182.621293 Q 265.333312 187.307769 266.276856 191.906764 Q 266.651774 193.728241 267.579696 194.89986 L 264.7022 195.349761 Q 264.674081 195.249783 264.567854 195.177924 C 264.399141 195.065448 264.167941 195.165427 264.136698 195.368507 Q 263.908623 196.836936 263.4431 198.083539 C 263.261889 198.570932 262.424572 199.042704 261.755969 199.167677 Q 259.112796 199.667568 258.444192 199.683189 Q 256.516489 199.720681 255.413605 199.823784 Q 253.10161 200.042486 252.395514 200.02374 C 250.442816 199.973751 248.068335 200.289307 246.07502 200.245566 Q 239.4171 200.104972 237.42691 199.942508 Q 234.383825 199.695687 233.42466 199.692562 C 232.393635 199.686314 231.172027 199.408249 230.415943 199.245785 C 228.447623 198.827126 227.916489 196.768201 227.891494 195.062324 C 227.88837 194.718649 227.479084 194.540563 227.22289 194.771763 Q 225.417035 196.418278 222.770738 197.402438 Q 225.288938 194.034424 226.076266 191.891142 Q 227.716533 187.41712 227.994597 181.455923 Q 228.169559 177.659877 228.113321 175.522844 C 228.066456 173.901324 227.113539 173.09525 225.863812 172.170452 Q 224.835912 171.411243 222.933203 170.392715 C 222.770738 170.305234 222.758241 170.074035 222.914457 169.974057 L 224.236043 169.105497 C 224.257913 169.089875 224.279784 169.074253 224.295405 169.055508 C 225.3483 167.890137 226.248103 167.090312 226.894837 166.021796 Q 229.091232 162.391339 228.194553 158.254743 C 227.216642 153.749478 224.207924 149.73473 219.918237 147.910129 Q 218.07489 147.125925 215.841003 146.776002 Q 213.650856 146.432327 212.594837 146.226122 Q 212.166806 146.144889 212.291778 145.710609 Q 215.437966 145.126362 218.777861 145.329443 C 218.959071 145.338816 219.118412 145.201346 219.134033 145.020135 Q 219.168401 144.620223 218.82785 144.354656 C 217.571875 143.370496 216.790795 142.23012 215.83163 140.874166 Q 213.669602 137.812335 212.679194 134.185003 Q 213.457149 134.856731 214.563157 136.362652 Q 217.040741 139.736915 220.486862 141.452165 C 222.836349 142.617535 226.554287 143.217404 228.91627 141.720856 Q 231.86875 139.852515 232.756056 136.078339 Q 233.296563 133.772593 233.443406 130.991951 Q 233.693351 126.271108 231.075174 122.515678 C 230.494051 121.681486 229.612993 120.944147 228.994378 120.094333 C 228.8944 119.959987 228.853784 119.788149 228.885027 119.622561 Q 228.938141 119.331999 229.494269 118.52905 Q 231.831258 115.154787 233.093482 113.192716 C 233.680854 112.280415 234.083891 112.202307 235.143035 112.374145 Q 235.855379 112.489744 235.746028 112.945895 Z M 232.765429 155.895883 C 232.815418 157.782971 234.743122 157.782971 236.161562 157.820463 Q 246.990445 158.114149 256.1197 157.851706 C 257.822453 157.801717 259.206526 157.879825 259.240893 155.927127 Q 259.32525 151.218781 259.290882 147.675805 Q 259.256515 144.251553 258.969078 141.65837 Q 258.772246 139.880633 257.95055 135.725292 Q 257.341308 132.647839 257.2632 129.885943 C 257.256952 129.611003 257.063244 129.373555 256.794553 129.311068 Q 256.454002 129.23296 255.626058 129.226712 Q 245.7126 129.142355 236.024092 129.223587 Q 234.736873 129.236085 234.739998 130.435822 Q 234.743122 133.044627 234.149502 135.800275 Q 233.546508 138.605912 233.455903 139.333878 Q 232.677948 145.610631 232.6717 148.256928 Q 232.662327 152.027979 232.765429 155.895883 Z M 261.456034 163.069316 C 261.449785 161.960183 261.33731 160.80731 259.887627 160.804186 Q 244.662829 160.779191 232.353019 160.869796 C 230.928331 160.882294 230.672137 161.63213 230.662764 162.953716 C 230.619023 172.142333 230.893963 184.336543 230.578407 194.96547 Q 230.537791 196.333921 231.89062 196.512007 Q 235.658547 197.002525 239.067177 197.177487 Q 249.12123 197.696124 259.900124 196.502634 Q 261.421667 196.333921 261.440413 194.759265 Q 261.47478 191.997369 261.396672 185.992431 Q 261.352932 182.35885 261.418542 177.225597 Q 261.493526 171.351881 261.456034 163.069316 Z" style="fill:#d18138;"/>
		<path d="M 256.238424 112.73969 Q 256.588348 118.857103 256.547732 124.97764 Q 256.541483 125.833703 256.244673 126.452318 C 256.038468 126.886598 255.591691 126.855355 255.148038 126.867852 Q 245.743843 127.086554 236.374016 126.836609 C 236.027216 126.827236 235.724158 126.589788 235.636677 126.255486 C 235.43672 125.515023 235.50858 124.674582 235.499207 123.99348 Q 235.424223 118.472812 235.746028 112.945895 Q 236.024092 112.552231 236.49274 112.620966 Q 246.059399 114.033157 255.213648 112.683452 Q 255.444848 112.649085 255.722912 112.692825 Q 255.979106 112.730317 256.238424 112.73969 Z M 239.96145 120.019724 C 239.910743 123.249893 242.52892 125.908687 245.811328 125.961082 C 249.093111 126.011789 251.795645 123.437352 251.844916 120.206433 C 251.895623 116.976264 249.277446 114.31747 245.995038 114.265075 C 242.713255 114.214368 240.010721 116.788805 239.96145 120.019724 Z" style="fill:#fff6e0;"/>
		<path d="M 187.625294 116.691951 C 187.625294 117.629246 186.862961 118.39158 185.925665 118.39158 C 184.98837 118.39158 184.226037 117.629246 184.226037 116.691951 C 184.226037 115.754656 184.98837 114.992322 185.925665 114.992322 C 186.862961 114.992322 187.625294 115.754656 187.625294 116.691951 Z" style="fill:#9a5c26;"/>
		<path d="M 317.628133 146.4417 Q 317.340696 146.4417 317.031389 146.619786 Q 315.856645 147.294638 314.091406 148.456884 C 313.872704 148.603727 313.588391 148.410019 313.641505 148.153825 L 314.403838 144.598352 C 314.491319 144.185943 314.356973 143.754787 314.05079 143.46735 Q 313.360316 142.82374 311.78566 141.524024 Q 311.457607 141.252209 311.482601 140.883539 C 311.491974 140.780437 311.573207 140.699205 311.673185 140.683583 Q 313.657126 140.418016 314.647535 140.361778 C 315.213036 140.327411 315.706678 140.083714 315.887889 139.627564 Q 316.725206 137.528023 317.387561 136.168945 Q 317.496912 135.940869 317.628133 135.940869 Q 317.787474 135.940869 317.896825 136.168945 Q 318.552931 137.528023 319.387124 139.633812 C 319.568334 140.089963 320.058852 140.333659 320.624354 140.368027 Q 321.617886 140.427389 323.598704 140.699205 C 323.701806 140.711702 323.779914 140.796058 323.789287 140.899161 Q 323.811157 141.26783 323.486228 141.539646 Q 321.908448 142.833113 321.21485 143.476723 C 320.905542 143.76416 320.771196 144.192191 320.858677 144.604601 L 321.611638 148.163198 C 321.664751 148.419392 321.380438 148.6131 321.161736 148.466257 Q 319.399621 147.297763 318.224878 146.62291 Q 317.918695 146.4417 317.628133 146.4417 Z" style="fill:#ea9848;"/>
		<path d="M 172.600453 135.981486 Q 172.756668 135.981486 172.866019 136.206436 Q 173.52525 137.559266 174.359443 139.649434 C 174.540654 140.10246 175.031171 140.343032 175.593548 140.3774 Q 176.580833 140.433638 178.552277 140.69608 C 178.655379 140.711702 178.733487 140.792934 178.74286 140.896037 Q 178.767855 141.261582 178.442926 141.533397 Q 176.877643 142.826865 176.190293 143.46735 C 175.88411 143.754787 175.749764 144.182818 175.840369 144.592104 L 176.599579 148.128831 C 176.652692 148.385025 176.371503 148.575608 176.152801 148.43189 Q 174.396935 147.275892 173.225316 146.604164 Q 172.919133 146.429202 172.631696 146.429202 Q 172.344259 146.429202 172.038075 146.607288 Q 170.869581 147.282141 169.119963 148.444387 C 168.901261 148.59123 168.616948 148.397522 168.670061 148.144452 L 169.416773 144.604601 C 169.504254 144.192191 169.369909 143.767284 169.063725 143.479847 Q 168.373251 142.842486 166.80172 141.555267 Q 166.476791 141.283452 166.501785 140.917907 C 166.508034 140.814804 166.589266 140.733572 166.689244 140.71795 Q 168.660689 140.449259 169.647973 140.386773 C 170.21035 140.352405 170.700868 140.108709 170.878954 139.655683 Q 171.706898 137.56239 172.35988 136.209561 Q 172.469231 135.981486 172.600453 135.981486 Z" style="fill:#ea9848;"/>
		<path d="M 212.291778 145.710609 Q 212.166806 146.144889 212.594837 146.226122 Q 213.650856 146.432327 215.841003 146.776002 Q 218.07489 147.125925 219.918237 147.910129 C 224.207924 149.73473 227.216642 153.749478 228.194553 158.254743 Q 229.091232 162.391339 226.894837 166.021796 C 226.248103 167.090312 225.3483 167.890137 224.295405 169.055508 C 224.279784 169.074253 224.257913 169.089875 224.236043 169.105497 L 222.914457 169.974057 C 222.758241 170.074035 222.770738 170.305234 222.933203 170.392715 Q 224.835912 171.411243 225.863812 172.170452 C 227.113539 173.09525 228.066456 173.901324 228.113321 175.522844 Q 228.169559 177.659877 227.994597 181.455923 Q 227.716533 187.41712 226.076266 191.891142 Q 225.288938 194.034424 222.770738 197.402438 Q 217.175086 200.539252 210.47655 199.970626 Q 207.66154 199.733178 205.88068 198.774013 Q 202.79073 197.108752 201.116096 194.090661 Q 197.454396 187.507725 198.016773 179.974996 Q 198.232351 177.069381 199.588305 174.076285 C 200.634951 171.767415 202.565779 169.839711 204.843406 168.843054 C 205.149589 168.708708 205.252692 168.324417 205.052735 168.052602 Q 204.077948 166.731016 203.134405 164.684588 C 201.006745 160.07622 201.722213 154.589919 204.859028 150.578296 Q 207.592805 147.085309 212.291778 145.710609 Z M 207.052298 167.255901 C 207.114785 167.237155 207.139779 167.162171 207.102288 167.109058 Q 205.408908 164.634599 205.090227 161.922691 Q 204.705936 158.639034 206.433684 156.23331 Q 208.267658 153.680743 211.338862 153.04963 C 214.388195 152.427891 217.078232 153.446419 219.427719 155.620944 Q 223.008186 158.935844 224.245416 163.725422 Q 224.464118 164.572112 224.454745 167.177793 C 224.454745 167.287144 224.573469 167.355879 224.667199 167.302766 L 224.726561 167.271522 C 224.860907 167.196539 224.945263 167.055945 224.951512 166.899729 Q 225.067112 163.619196 224.860907 162.666279 C 224.051708 158.879606 221.920924 155.395993 218.618521 153.318322 C 214.89121 150.97196 210.145373 150.743884 206.93045 154.099401 Q 204.168554 156.980022 204.52785 161.238466 Q 204.659071 162.828743 204.955882 163.575455 Q 205.758831 165.584391 206.902331 167.287144 C 206.90858 167.293393 206.917953 167.296517 206.927326 167.293393 L 207.052298 167.255901 Z M 210.742117 170.361472 C 206.311835 170.455202 203.037551 173.029639 201.69097 177.184981 C 200.413124 181.127869 200.941134 185.548778 202.512666 189.347948 C 203.890489 192.675346 206.864839 196.030862 210.517166 196.815066 C 214.25385 197.618016 218.031149 196.858806 220.846159 194.196888 C 223.055051 192.10672 223.829882 188.529377 223.851752 185.58627 Q 223.90799 178.469075 218.843472 173.623259 Q 215.328615 170.261494 210.742117 170.361472 Z" style="fill:#f1b270;"/>
		<path d="M 264.7022 195.349761 L 267.579696 194.89986 Q 269.041876 196.215197 270.722759 196.480764 Q 275.696672 197.271216 282.72951 196.996276 C 284.97277 196.908796 287.669056 196.512007 288.487627 194.031299 Q 288.871918 192.872178 288.906285 192.472265 C 289.415549 186.779759 289.406176 183.168048 289.493657 176.053978 C 289.509278 175.029202 289.381181 173.87008 288.959399 173.029639 C 288.197065 171.508097 286.94109 171.56121 285.244585 171.483102 Q 282.985704 171.383124 280.708077 171.383124 Q 283.635562 171.048822 286.072529 171.176919 C 286.484939 171.198789 286.697393 170.689525 286.39121 170.411461 L 285.335191 169.452296 C 284.910283 169.064881 284.338533 168.88367 283.766783 168.952405 Q 281.026757 169.283583 278.61166 169.292956 Q 271.072683 169.324199 268.160819 169.386685 Q 267.554701 168.927411 267.070432 168.261931 C 267.01107 168.177574 266.939211 168.105715 266.857979 168.043229 C 264.386644 166.096779 263.330624 162.513187 263.652429 159.582578 Q 264.033596 156.111461 265.864446 153.112117 Q 268.345154 149.050504 273.309694 147.422735 Q 274.756253 146.947839 280.026976 145.948057 Q 284.688457 147.110303 287.456602 151.053192 Q 289.274955 153.640126 289.812337 156.427017 Q 290.37159 159.34513 289.724856 162.300734 Q 289.009388 165.556272 286.934841 168.096342 C 286.756755 168.315044 286.828614 168.639973 287.07856 168.764946 Q 288.65634 169.552274 289.862326 170.558304 C 291.418236 171.854896 291.989986 174.160642 292.118083 176.575739 Q 292.549239 184.745829 291.574452 193.081507 Q 291.433858 194.281245 290.980832 195.412248 Q 289.534273 199.042704 285.616379 199.626952 C 281.357935 200.264312 276.696454 200.070605 272.422388 199.555092 C 270.860229 199.367633 269.363681 199.195796 267.960863 198.433462 Q 265.958175 197.339951 264.7022 195.349761 Z M 267.40161 168.215066 Q 267.489091 165.034511 267.792149 163.662936 C 268.195186 161.853956 268.829423 159.745042 270.097896 158.111024 Q 271.5632 156.230185 271.828767 156.020856 C 273.69086 154.5618 274.799993 153.740105 276.87454 153.149609 Q 279.883257 152.293546 282.573294 153.73698 Q 284.629095 154.839864 285.613255 156.498877 Q 286.622409 158.20163 286.763004 160.498003 Q 286.966084 163.809779 285.410174 166.306108 Q 285.03838 166.896604 283.516838 168.718081 C 283.48247 168.758697 283.507465 168.821184 283.560578 168.830557 L 283.869886 168.874297 C 283.87301 168.874297 283.876134 168.874297 283.879259 168.871173 Q 285.706984 166.793502 286.547426 164.972025 Q 288.750069 160.198068 286.125643 155.527214 Q 284.276047 152.234184 280.511245 151.743666 C 278.239866 151.446856 275.874758 151.734293 273.818957 153.015263 Q 272.050594 154.118147 271.147666 155.08981 C 269.313692 157.058129 267.342248 160.163701 267.298507 163.019327 C 267.295383 163.131802 267.276637 163.244278 267.236021 163.350504 Q 266.686141 164.85955 267.01107 166.521686 Q 267.176659 167.387122 267.161037 167.927629 Q 267.157913 168.105715 267.279761 168.255682 C 267.320378 168.305671 267.398485 168.277553 267.40161 168.215066 Z" style="fill:#f1b270;"/>
		<path d="M 280.708077 171.383124 L 266.892346 172.032982 Q 268.507618 171.195665 268.160819 169.386685 Q 271.072683 169.324199 278.61166 169.292956 Q 281.026757 169.283583 283.766783 168.952405 C 284.338533 168.88367 284.910283 169.064881 285.335191 169.452296 L 286.39121 170.411461 C 286.697393 170.689525 286.484939 171.198789 286.072529 171.176919 Q 283.635562 171.048822 280.708077 171.383124 Z" style="fill:#ea9848;"/>
		<path d="M 280.708077 171.383124 Q 282.985704 171.383124 285.244585 171.483102 C 286.94109 171.56121 288.197065 171.508097 288.959399 173.029639 C 289.381181 173.87008 289.509278 175.029202 289.493657 176.053978 C 289.406176 183.168048 289.415549 186.779759 288.906285 192.472265 Q 288.871918 192.872178 288.487627 194.031299 C 287.669056 196.512007 284.97277 196.908796 282.72951 196.996276 Q 275.696672 197.271216 270.722759 196.480764 Q 269.041876 196.215197 267.579696 194.89986 Q 266.651774 193.728241 266.276856 191.906764 Q 265.333312 187.307769 265.148977 182.621293 Q 264.917778 176.738204 265.195842 173.873205 Q 265.355182 172.223565 266.892346 172.032982 L 280.708077 171.383124 Z M 283.88632 182.598142 C 283.251271 179.100187 279.852014 176.785068 276.298072 177.432458 C 272.744192 178.078536 270.37596 181.437177 271.012508 184.937693 C 271.647557 188.435647 275.046814 190.750766 278.600756 190.103377 C 282.154636 189.457299 284.522868 186.098658 283.88632 182.598142 Z" style="fill:#fff6e0;"/>
		<path d="M 226.501173 67.383977 C 226.498049 67.43709 226.466806 67.483955 226.423065 67.512074 Q 221.699098 70.189614 218.64664 74.951073 C 218.559159 75.088543 218.368575 75.119786 218.243603 75.016684 C 215.634798 72.910894 215.147404 69.049238 217.778079 66.665384 C 220.193177 64.478362 224.070454 64.828285 226.373076 67.077794 Q 226.510546 67.215264 226.501173 67.383977 Z" style="fill:#fed9b2;"/>
		<path d="M 265.8457 67.408971 Q 265.836327 67.240258 265.973797 67.102788 C 268.260797 64.847031 272.128702 64.481486 274.550048 66.652887 C 277.186971 69.021119 276.715199 72.876526 274.122016 74.991689 C 273.997043 75.094792 273.80646 75.063548 273.718979 74.926079 Q 270.6509 70.186489 265.923808 67.537068 C 265.880067 67.508949 265.851948 67.462085 265.8457 67.408971 Z" style="fill:#fed9b2;"/>
		<path d="M 235.999097 88.810544 C 235.999097 90.513297 234.621274 91.891121 232.918521 91.891121 C 231.215768 91.891121 229.837944 90.513297 229.837944 88.810544 C 229.837944 87.107791 231.215768 85.729967 232.918521 85.729967 C 234.621274 85.729967 235.999097 87.107791 235.999097 88.810544 Z M 232.996191 86.783019 C 232.71544 86.776614 232.484241 87.126537 232.474961 87.563598 C 232.465495 88.001346 232.687321 88.357518 232.965823 88.363611 C 233.246574 88.370016 233.477773 88.020092 233.487053 87.583031 C 233.496519 87.145283 233.274693 86.789111 232.996191 86.783019 Z" style="fill:#9a5c26;"/>
		<path d="M 262.546421 88.801171 C 262.546421 90.47893 261.187343 91.838008 259.509585 91.838008 C 257.831826 91.838008 256.472748 90.47893 256.472748 88.801171 C 256.472748 87.123413 257.831826 85.764335 259.509585 85.764335 C 261.187343 85.764335 262.546421 87.123413 262.546421 88.801171 Z M 259.009694 87.032808 L 259.069056 88.238794 C 259.07218 88.357518 259.175283 88.448123 259.294007 88.441875 L 259.372115 88.43875 C 259.765779 88.420005 260.068837 88.107573 260.050091 87.742028 L 260.03447 87.429596 C 260.018848 87.064051 259.684546 86.782862 259.290882 86.804733 L 259.212774 86.807857 C 259.09405 86.814106 259.003445 86.914084 259.009694 87.032808 Z" style="fill:#9a5c26;"/>
		<path d="M 259.709541 98.114761 C 259.709541 103.682294 253.685857 108.196933 246.253107 108.196933 C 238.820356 108.196933 232.796672 103.682294 232.796672 98.114761 C 232.796672 92.547228 238.820356 88.032589 246.253107 88.032589 C 253.685857 88.032589 259.709541 92.547228 259.709541 98.114761 Z M 239.941986 100.411134 Q 240.466871 101.317186 241.232329 101.948298 C 244.847164 104.928897 249.733596 104.429006 252.39239 100.536107 C 252.420509 100.495491 252.41426 100.439253 252.376768 100.404885 C 252.339276 100.370518 252.283039 100.370518 252.245547 100.401761 Q 250.039779 102.2826 247.021689 102.457562 C 246.871721 102.466935 246.743624 102.345086 246.743624 102.195119 L 246.743624 96.668202 C 246.743624 96.511986 246.837354 96.371392 246.981072 96.31203 Q 248.349523 95.759026 249.839823 94.89359 C 252.71107 93.22208 251.898748 90.307092 248.855663 89.747839 C 246.92171 89.391667 242.235235 89.176089 240.941767 90.997566 C 240.035715 92.275412 240.6762 93.562631 241.850944 94.521796 Q 243.019438 95.471589 245.090861 96.155814 Q 245.706351 96.35577 245.703227 97.011877 Q 245.690729 100.001848 245.728221 102.160752 C 245.731346 102.338838 245.581378 102.479432 245.406417 102.470059 Q 242.428942 102.323216 240.051337 100.320529 C 239.988851 100.267415 239.90137 100.342399 239.941986 100.411134 Z" style="fill:#fff6e0;"/>
		<path d="M 239.96145 120.019724 C 240.010721 116.788805 242.713255 114.214368 245.995038 114.265075 C 249.277446 114.31747 251.895623 116.976264 251.844916 120.206433 C 251.795645 123.437352 249.093111 126.011789 245.811328 125.961082 C 242.52892 125.908687 239.910743 123.249893 239.96145 120.019724 Z" style="fill:#9a5c26;"/>
		<path d="M 236.161562 157.820463 C 234.743122 157.782971 232.815418 157.782971 232.765429 155.895883 Q 232.662327 152.027979 232.6717 148.256928 Q 232.677948 145.610631 233.455903 139.333878 Q 233.546508 138.605912 234.149502 135.800275 Q 234.743122 133.044627 234.739998 130.435822 Q 234.736873 129.236085 236.024092 129.223587 Q 245.7126 129.142355 255.626058 129.226712 Q 256.454002 129.23296 256.794553 129.311068 C 257.063244 129.373555 257.256952 129.611003 257.2632 129.885943 Q 257.341308 132.647839 257.95055 135.725292 Q 258.772246 139.880633 258.969078 141.65837 Q 259.256515 144.251553 259.290882 147.675805 Q 259.32525 151.218781 259.240893 155.927127 C 259.206526 157.879825 257.822453 157.801717 256.1197 157.851706 Q 246.990445 158.114149 236.161562 157.820463 Z M 238.611964 142.787279 C 238.54854 146.829115 241.850944 150.156513 245.988196 150.221217 C 250.124136 150.287734 253.529641 147.063439 253.594315 143.022666 C 253.657738 138.98083 250.355335 135.653432 246.218083 135.588728 C 242.082143 135.522211 238.676637 138.746506 238.611964 142.787279 Z" style="fill:#f1b270;"/>
		<path d="M 207.052298 167.255901 L 206.927326 167.293393 C 206.917953 167.296517 206.90858 167.293393 206.902331 167.287144 Q 205.758831 165.584391 204.955882 163.575455 Q 204.659071 162.828743 204.52785 161.238466 Q 204.168554 156.980022 206.93045 154.099401 C 210.145373 150.743884 214.89121 150.97196 218.618521 153.318322 C 221.920924 155.395993 224.051708 158.879606 224.860907 162.666279 Q 225.067112 163.619196 224.951512 166.899729 C 224.945263 167.055945 224.860907 167.196539 224.726561 167.271522 L 224.667199 167.302766 C 224.573469 167.355879 224.454745 167.287144 224.454745 167.177793 Q 224.464118 164.572112 224.245416 163.725422 Q 223.008186 158.935844 219.427719 155.620944 C 217.078232 153.446419 214.388195 152.427891 211.338862 153.04963 Q 208.267658 153.680743 206.433684 156.23331 Q 204.705936 158.639034 205.090227 161.922691 Q 205.408908 164.634599 207.102288 167.109058 C 207.139779 167.162171 207.114785 167.237155 207.052298 167.255901 Z" style="fill:#fed9b2;"/>
		<path d="M 267.279761 168.255682 Q 267.157913 168.105715 267.161037 167.927629 Q 267.176659 167.387122 267.01107 166.521686 Q 266.686141 164.85955 267.236021 163.350504 C 267.276637 163.244278 267.295383 163.131802 267.298507 163.019327 C 267.342248 160.163701 269.313692 157.058129 271.147666 155.08981 Q 272.050594 154.118147 273.818957 153.015263 C 275.874758 151.734293 278.239866 151.446856 280.511245 151.743666 Q 284.276047 152.234184 286.125643 155.527214 Q 288.750069 160.198068 286.547426 164.972025 Q 285.706984 166.793502 283.879259 168.871173 C 283.876134 168.874297 283.87301 168.874297 283.869886 168.874297 L 283.560578 168.830557 C 283.507465 168.821184 283.48247 168.758697 283.516838 168.718081 Q 285.03838 166.896604 285.410174 166.306108 Q 286.966084 163.809779 286.763004 160.498003 Q 286.622409 158.20163 285.613255 156.498877 Q 284.629095 154.839864 282.573294 153.73698 Q 279.883257 152.293546 276.87454 153.149609 C 274.799993 153.740105 273.69086 154.5618 271.828767 156.020856 Q 271.5632 156.230185 270.097896 158.111024 C 268.829423 159.745042 268.195186 161.853956 267.792149 163.662936 Q 267.489091 165.034511 267.40161 168.215066 C 267.398485 168.277553 267.320378 168.305671 267.279761 168.255682 Z" style="fill:#fed9b2;"/>
		<path d="M 259.887627 160.804186 C 261.33731 160.80731 261.449785 161.960183 261.456034 163.069316 Q 261.493526 171.351881 261.418542 177.225597 Q 261.352932 182.35885 261.396672 185.992431 Q 261.47478 191.997369 261.440413 194.759265 Q 261.421667 196.333921 259.900124 196.502634 Q 249.12123 197.696124 239.067177 197.177487 Q 235.658547 197.002525 231.89062 196.512007 Q 230.537791 196.333921 230.578407 194.96547 C 230.893963 184.336543 230.619023 172.142333 230.662764 162.953716 C 230.672137 161.63213 230.928331 160.882294 232.353019 160.869796 Q 244.662829 160.779191 259.887627 160.804186 Z M 236.185682 178.296863 C 235.924114 183.63982 240.063834 188.185702 245.429911 188.449082 C 250.795864 188.710587 255.360491 184.592737 255.620684 179.247405 C 255.882252 173.904448 251.742532 169.358566 246.376455 169.095186 C 241.010502 168.833681 236.445875 172.951531 236.185682 178.296863 Z" style="fill:#f1b270;"/>
		<path d="M 210.742117 170.361472 Q 215.328615 170.261494 218.843472 173.623259 Q 223.90799 178.469075 223.851752 185.58627 C 223.829882 188.529377 223.055051 192.10672 220.846159 194.196888 C 218.031149 196.858806 214.25385 197.618016 210.517166 196.815066 C 206.864839 196.030862 203.890489 192.675346 202.512666 189.347948 C 200.941134 185.548778 200.413124 181.127869 201.69097 177.184981 C 203.037551 173.029639 206.311835 170.455202 210.742117 170.361472 Z" style="fill:#fff6e0;"/>
		<path d="M 283.88632 182.598142 C 284.522868 186.098658 282.154636 189.457299 278.600756 190.103377 C 275.046814 190.750766 271.647557 188.435647 271.012508 184.937693 C 270.37596 181.437177 272.744192 178.078536 276.298072 177.432458 C 279.852014 176.785068 283.251271 179.100187 283.88632 182.598142 Z" style="fill:#d18138;"/>
		<path d="M 232.996191 86.783019 C 233.274693 86.789111 233.496519 87.145283 233.487053 87.583031 C 233.477773 88.020092 233.246574 88.370016 232.965823 88.363611 C 232.687321 88.357518 232.465495 88.001346 232.474961 87.563598 C 232.484241 87.126537 232.71544 86.776614 232.996191 86.783019 Z" style="fill:#fff6e0;"/>
		<path d="M 259.009694 87.032808 C 259.003445 86.914084 259.09405 86.814106 259.212774 86.807857 L 259.290882 86.804733 C 259.684546 86.782862 260.018848 87.064051 260.03447 87.429596 L 260.050091 87.742028 C 260.068837 88.107573 259.765779 88.420005 259.372115 88.43875 L 259.294007 88.441875 C 259.175283 88.448123 259.07218 88.357518 259.069056 88.238794 L 259.009694 87.032808 Z" style="fill:#fff6e0;"/>
		<path d="M 239.941986 100.411134 C 239.90137 100.342399 239.988851 100.267415 240.051337 100.320529 Q 242.428942 102.323216 245.406417 102.470059 C 245.581378 102.479432 245.731346 102.338838 245.728221 102.160752 Q 245.690729 100.001848 245.703227 97.011877 Q 245.706351 96.35577 245.090861 96.155814 Q 243.019438 95.471589 241.850944 94.521796 C 240.6762 93.562631 240.035715 92.275412 240.941767 90.997566 C 242.235235 89.176089 246.92171 89.391667 248.855663 89.747839 C 251.898748 90.307092 252.71107 93.22208 249.839823 94.89359 Q 248.349523 95.759026 246.981072 96.31203 C 246.837354 96.371392 246.743624 96.511986 246.743624 96.668202 L 246.743624 102.195119 C 246.743624 102.345086 246.871721 102.466935 247.021689 102.457562 Q 250.039779 102.2826 252.245547 100.401761 C 252.283039 100.370518 252.339276 100.370518 252.376768 100.404885 C 252.41426 100.439253 252.420509 100.495491 252.39239 100.536107 C 249.733596 104.429006 244.847164 104.928897 241.232329 101.948298 Q 240.466871 101.317186 239.941986 100.411134 Z" style="fill:#9a5c26;"/>
		<path d="M 238.611964 142.787279 C 238.676637 138.746506 242.082143 135.522211 246.218083 135.588728 C 250.355335 135.653432 253.657738 138.98083 253.594315 143.022666 C 253.529641 147.063439 250.124136 150.287734 245.988196 150.221217 C 241.850944 150.156513 238.54854 146.829115 238.611964 142.787279 Z" style="fill:#fed9b2;"/>
		<path d="M 236.185682 178.296863 C 236.445875 172.951531 241.010502 168.833681 246.376455 169.095186 C 251.742532 169.358566 255.882252 173.904448 255.620684 179.247405 C 255.360491 184.592737 250.795864 188.710587 245.429911 188.449082 C 240.063834 188.185702 235.924114 183.63982 236.185682 178.296863 Z" style="fill:#d18138;"/>
	</g>
	<g id="surface4">
	</g>
</svg>
