<?xml version="1.0" encoding="utf-8"?>
<svg xmlns="http://www.w3.org/2000/svg" width="490pt" height="280pt" viewBox="0 0 490 280" version="1.1" xmlns:xlink="http://www.w3.org/1999/xlink">
	<g id="surface2" data-size="187.7846717413 148" data-bboxpos="151 53.553887761599" data-pivot="244.89233587065 127.5538877616" data-center="244.89233587065 127.5538877616">
		<path vector-effect="non-scaling-stroke" d="M 294.947882 121.924149 Q 293.909223 122.619107 292.349345 122.819285" style="fill:none;stroke-width:0.50;stroke:#d3991d;"/>
		<path vector-effect="non-scaling-stroke" d="M 292.349345 122.819285 Q 291.05763 122.139435 290.117171 120.783512 Q 289.803685 120.330279 289.391998 120.296287 C 289.206928 120.277402 289.052073 120.436033 289.070958 120.621104 L 289.418436 123.857945" style="fill:none;stroke-width:0.50;stroke:#8e7a29;"/>
		<path vector-effect="non-scaling-stroke" d="M 289.418436 123.857945 Q 281.230022 125.799294 273.018946 127.098562 Q 271.749893 127.29874 270.582817 127.294964 C 270.412855 127.294964 270.261777 127.185432 270.2089 127.023024 Q 267.610362 119.155649 263.051591 110.816157 C 262.938283 110.612202 263.062922 110.35537 263.293316 110.317601 Q 270.990727 108.999447 278.083828 106.0421 Q 279.058279 105.637967 279.481297 105.21495 C 279.760791 104.935456 279.454858 104.474669 279.088495 104.621969 L 274.140698 106.58598 C 273.902751 106.680404 273.630811 106.601088 273.475956 106.393356 C 272.335319 104.844809 270.707456 103.783488 269.219341 102.427565 C 266.756773 100.187837 264.116689 98.488213 261.140458 96.50154 C 261.053588 96.444886 260.932726 96.478878 260.894956 96.577079 L 260.891179 96.58841 C 260.845856 96.701718 260.883625 96.830134 260.981826 96.898119 Q 264.906071 99.625073 267.240222 101.759046 Q 269.831205 104.12719 272.376866 106.457564 C 272.558159 106.62375 272.53172 106.918351 272.320212 107.046767 Q 272.082264 107.197845 271.795216 107.292269 Q 268.652799 108.323374 263.02893 109.373365 C 262.734328 109.430019 262.432172 109.290272 262.281095 109.029663 Q 259.032923 103.432232 255.055801 98.446666 Q 253.507254 96.50154 251.664105 94.971878 C 251.637667 94.949216 251.603674 94.952993 251.581013 94.975655 L 251.577236 94.975655 C 251.554574 94.998316 251.554574 95.036086 251.577236 95.058748 Q 252.732981 96.327801 254.262643 98.495766 Q 257.896063 103.655072 260.985603 109.309157 C 261.083803 109.49045 260.970495 109.709513 260.76654 109.735951 Q 252.95582 110.717957 245.413263 111.023889 C 245.349055 111.027666 245.296178 110.974789 245.296178 110.910581 Q 245.420817 102.397349 244.994023 94.220266 C 244.990246 94.171166 244.952476 94.133396 244.903376 94.129619 C 244.858053 94.125842 244.812729 94.159835 244.805175 94.208935 Q 244.597443 95.41378 244.571005 96.82258 Q 244.540789 98.582636 244.450143 110.597095 C 244.446366 110.778388 244.299065 110.921912 244.117772 110.918135 Q 236.424137 110.67641 228.858918 109.686851 C 228.688956 109.66419 228.590755 109.479119 228.670071 109.324265 Q 232.605647 101.664622 238.180416 94.964324 C 238.191747 94.952993 238.195524 94.941662 238.1993 94.926554 Q 238.221962 94.832131 238.165308 94.767923 C 238.131315 94.73393 238.078438 94.730153 238.044446 94.764146 Q 234.856705 97.902786 233.149527 100.282261 Q 229.916463 104.773047 227.650296 108.923909 C 227.469003 109.25628 227.095085 109.437573 226.721168 109.369588 Q 222.868685 108.685961 218.910448 107.605755 Q 218.056859 107.371585 217.112623 106.850366 C 216.984207 106.778604 216.961545 106.604865 217.067299 106.502887 Q 218.491207 105.120526 219.911338 103.95345 C 220.311694 103.621079 220.893344 102.831698 221.346577 102.491773 Q 222.56653 101.589083 223.892237 100.4069 C 225.085751 99.341802 227.132855 98.019872 228.662517 96.830134 C 228.707841 96.792365 228.719171 96.728157 228.685179 96.679056 L 228.65874 96.63751 C 228.628525 96.592187 228.564317 96.577079 228.515216 96.607295 Q 224.1604 99.126516 221.505209 101.400236 C 218.827355 103.692841 217.411001 104.795709 216.206156 106.355587 C 216.021086 106.597311 215.696269 106.680404 215.416775 106.563319 L 210.438763 104.444453" style="fill:none;stroke-width:0.50;stroke:#d3991d;"/>
		<path stroke-opacity="0.996" vector-effect="non-scaling-stroke" d="M 289.418436 123.857945 L 289.686599 125.194983" style="fill:none;stroke-width:0.50;stroke:#613927;"/>
		<path vector-effect="non-scaling-stroke" d="M 289.686599 125.194983 Q 280.425533 127.294964 271.134251 128.718871 C 270.926519 128.749087 270.794326 128.960596 270.858534 129.160774 Q 273.147362 136.533368 274.321992 144.079702 C 274.669471 146.300545 274.858318 149.05016 275.186912 151.561828" style="fill:none;stroke-width:0.50;stroke:#d3991d;"/>
		<path vector-effect="non-scaling-stroke" d="M 273.725235 151.440966 Q 273.608149 149.609148 273.366425 147.856646 Q 272.070933 138.47094 269.272218 129.190989 C 269.238225 129.073904 269.124917 129.002142 269.004055 129.01725 Q 261.929839 129.851955 254.04358 130.312742 Q 250.043796 130.550689 245.915597 130.51292 C 245.681426 130.509143 245.492579 130.701767 245.492579 130.935937 L 245.526572 151.45985" style="fill:none;stroke-width:0.50;stroke:#d3991d;"/>
		<path vector-effect="non-scaling-stroke" d="M 244.227303 151.45985 L 244.234857 130.935937 C 244.234857 130.765975 244.098887 130.626228 243.928924 130.622451 Q 232.352591 130.252311 220.817805 129.036135 C 220.500541 129.002142 220.209717 129.206097 220.130401 129.515807 Q 218.578077 135.69111 217.199493 142.047706 Q 216.57252 144.918184 215.900224 151.429635" style="fill:none;stroke-width:0.50;stroke:#d3991d;"/>
		<path vector-effect="non-scaling-stroke" d="M 214.393223 151.44852 C 214.612286 148.963291 214.770918 146.326984 215.227928 144.038156 C 215.514976 142.606694 215.673607 140.95617 216.043748 139.00349 Q 216.953991 134.225656 218.729155 129.039912 C 218.793363 128.843511 218.664947 128.635779 218.457215 128.613117 Q 207.877995 127.404495 197.623592 124.235639 Q 195.546273 123.597335 194.016611 122.921263" style="fill:none;stroke-width:0.50;stroke:#d3991d;"/>
		<path vector-effect="non-scaling-stroke" d="M 194.609591 121.852387 Q 198.654698 123.336726 201.664922 124.080784 Q 210.053515 126.16188 218.778255 127.370502 C 219.125734 127.419603 219.458105 127.211871 219.567636 126.875723 Q 222.355021 118.279399 226.845807 110.623533 C 226.936454 110.472456 226.84203 110.276054 226.668291 110.249616 Q 218.884009 109.090094 211.662493 106.068539 Q 211.005305 105.796599 209.917545 104.825924" style="fill:none;stroke-width:0.50;stroke:#d3991d;"/>
		<path stroke-opacity="0.996" vector-effect="non-scaling-stroke" d="M 292.349345 122.819285 L 293.134949 123.669097" style="fill:none;stroke-width:0.50;stroke:#613927;"/>
		<path vector-effect="non-scaling-stroke" d="M 293.134949 123.669097 Q 295.703271 125.795517 297.667282 128.193876" style="fill:none;stroke-width:0.50;stroke:#8e7a29;"/>
		<path vector-effect="non-scaling-stroke" d="M 298.721049 130.686659 Q 298.660618 131.309855 298.717272 131.914166 C 298.849465 133.311635 298.437778 134.422057 297.697497 135.623125 C 297.455773 136.01215 297.297141 136.423837 296.843908 136.635346 C 296.700384 136.703331 296.553083 136.552253 296.621068 136.412506 Q 297.686167 134.202994 296.700384 131.547802 C 295.944995 129.51203 293.916777 127.903052 291.918773 127.325179 C 291.718595 127.264748 291.522194 127.430934 291.548633 127.638665 Q 291.711041 128.903942 291.971651 130.29008 Q 292.987648 135.657117 294.434218 142.667125 Q 294.910113 144.963507 294.774143 145.620695 C 294.362456 147.611145 292.696824 149.205015 290.68749 149.831988 C 288.738587 150.440076 286.389327 149.635587 285.924763 147.482729 C 285.343114 144.770883 287.318456 142.576478 289.803685 141.851305 C 290.528858 141.639796 291.699711 141.692674 292.526861 141.673789 C 292.674162 141.670012 292.779917 141.537819 292.753478 141.394295 L 289.686599 125.194983" style="fill:none;stroke-width:0.50;stroke:#8e7a29;"/>
		<path vector-effect="non-scaling-stroke" d="M 295.476654 123.038348 L 293.134949 123.669097" style="fill:none;stroke-width:0.50;stroke:#d3991d;"/>
		<path vector-effect="non-scaling-stroke" d="M 314.40292 135.528701 Q 314.232958 135.483378 314.025226 135.600463" style="fill:none;stroke-width:0.50;stroke:#d38b1d;"/>
		<path vector-effect="non-scaling-stroke" d="M 308.684627 146.606478 Q 308.748835 146.304322 308.677073 145.971951" style="fill:none;stroke-width:0.50;stroke:#d38b1d;"/>
		<path stroke-opacity="0.996" vector-effect="non-scaling-stroke" d="M 279.405758 163.187261 Q 279.250904 163.413878 279.473743 163.564956 Q 279.568167 163.632941 279.817445 163.542294" style="fill:none;stroke-width:0.50;stroke:#613927;"/>
		<path stroke-opacity="0.953" vector-effect="non-scaling-stroke" d="M 266.126024 169.321018 Q 264.932509 169.513642 263.387739 170.034861 Q 252.181547 173.815581 239.982018 177.645402 Q 230.989115 180.46678 222.883793 182.117304 Q 221.762041 182.343921 220.644065 182.51766 C 220.379679 182.559206 220.15684 182.729169 220.051085 182.97467 C 219.314581 184.689403 217.698049 185.739393 215.771808 184.919796" style="fill:none;stroke-width:0.50;stroke:#706b78;"/>
		<path stroke-opacity="0.690" vector-effect="non-scaling-stroke" d="M 215.771808 184.919796 Q 215.824685 184.889581 215.692492 184.814042" style="fill:none;stroke-width:0.50;stroke:#595967;"/>
		<path stroke-opacity="0.953" vector-effect="non-scaling-stroke" d="M 215.692492 184.814042 L 214.993757 183.624305 C 214.929549 183.514773 214.808687 183.454342 214.684048 183.46945 Q 205.17748 184.583648 195.674689 183.680959 C 193.631363 183.488335 191.474728 183.050209 189.382301 182.672515" style="fill:none;stroke-width:0.50;stroke:#706b78;"/>
		<path stroke-opacity="0.953" vector-effect="non-scaling-stroke" d="M 195.289441 181.550762 Q 197.884202 182.003996 201.35899 182.049319 Q 208.950647 182.14752 215.148612 181.275045 C 215.496091 181.225945 215.839793 181.139076 216.172164 181.014436 Q 217.66028 180.459226 218.989764 180.368579 C 219.174834 180.357248 219.307027 180.179732 219.265481 179.994662 L 217.902004 173.955328 C 217.864235 173.789143 217.705603 173.679611 217.535641 173.70605 Q 214.060852 174.242376 209.158379 174.688055 Q 201.800892 175.352797 194.333874 174.665394" style="fill:none;stroke-width:0.50;stroke:#706b78;"/>
		<path stroke-opacity="0.953" vector-effect="non-scaling-stroke" d="M 190.232113 189.742954 Q 195.187464 190.762729 198.903976 191.00823 Q 211.874002 191.869373 225.780709 189.047996 C 225.867579 189.029111 225.954448 188.998896 226.033764 188.961126 C 226.664514 188.651417 227.370802 188.700517 228.167738 188.530555 Q 237.179526 186.585429 245.964697 183.726282" style="fill:none;stroke-width:0.50;stroke:#706b78;"/>
		<path stroke-opacity="0.996" vector-effect="non-scaling-stroke" d="M 207.783571 199.313729 Q 210.416101 199.442146 213.029746 199.007797" style="fill:none;stroke-width:0.50;stroke:#613927;"/>
		<path vector-effect="non-scaling-stroke" d="M 221.067083 127.619781 Q 221.433447 127.717981 222.423006 127.823736 Q 233.655637 129.055019 244.178203 129.232536 C 244.265072 129.232536 244.32928 129.168328 244.32928 129.085235 L 244.344388 112.058772 C 244.344388 111.934133 244.242411 111.832155 244.121548 111.832155 Q 236.832047 111.820824 228.647409 110.608425 C 228.349031 110.563102 228.054429 110.71418 227.918459 110.982343 Q 223.865798 118.913925 220.893344 127.29874 C 220.844243 127.438487 220.923559 127.585788 221.067083 127.619781" style="fill:none;stroke-width:0.50;stroke:#d3991d;"/>
		<path vector-effect="non-scaling-stroke" d="M 268.645245 127.634888 C 268.784992 127.600896 268.868085 127.449818 268.818985 127.313848 Q 265.854084 118.940364 261.812754 111.016335 C 261.676784 110.748172 261.385959 110.597095 261.08758 110.642418 Q 252.914274 111.847263 245.636103 111.854817 C 245.511464 111.854817 245.413263 111.953018 245.413263 112.077657 L 245.413263 129.081458 C 245.413263 129.164551 245.481248 129.228759 245.564341 129.228759 Q 256.071799 129.058796 267.289322 127.835067 Q 268.278882 127.729312 268.645245 127.634888" style="fill:none;stroke-width:0.50;stroke:#d3991d;"/>
		<path stroke-opacity="0.953" vector-effect="non-scaling-stroke" d="M 249.246861 164.611169 Q 244.555897 166.171047 239.91781 167.715817 Q 230.51322 170.846903 220.708273 172.992208 Q 220.375902 173.067746 220.379679 173.407671 Q 220.383456 173.630511 220.802697 173.777812" style="fill:none;stroke-width:0.50;stroke:#706b78;"/>
		<path stroke-opacity="0.690" vector-effect="non-scaling-stroke" d="M 220.802697 173.777812 Q 220.840466 173.902451 220.897121 173.94022" style="fill:none;stroke-width:0.50;stroke:#595967;"/>
		<path stroke-opacity="0.953" vector-effect="non-scaling-stroke" d="M 220.897121 173.94022 Q 221.724271 175.137512 221.626071 176.217718" style="fill:none;stroke-width:0.50;stroke:#706b78;"/>
		<path stroke-opacity="0.690" vector-effect="non-scaling-stroke" d="M 221.626071 176.217718 Q 221.482547 176.565196 221.240822 176.772928" style="fill:none;stroke-width:0.50;stroke:#595967;"/>
		<path stroke-opacity="0.953" vector-effect="non-scaling-stroke" d="M 221.240822 176.772928 Q 221.214384 176.916452 221.040644 176.769151 C 221.002875 176.735159 220.980213 176.689836 220.980213 176.640735 L 220.980213 175.643622 C 220.980213 175.379236 220.859351 175.129958 220.655396 174.963772 L 219.367458 173.92889 C 219.076634 173.694719 218.649839 173.959105 218.732932 174.325469 L 220.035977 180.089085 C 220.096408 180.349694 220.349464 180.512103 220.610073 180.459226 Q 225.093305 179.522544 232.065544 177.762488 Q 232.696293 177.603856 237.330603 176.195056 Q 242.210415 174.710717 247.026018 173.105516" style="fill:none;stroke-width:0.50;stroke:#706b78;"/>
		<path stroke-opacity="0.996" vector-effect="non-scaling-stroke" d="M 247.026018 173.105516 L 250.76897 171.791139" style="fill:none;stroke-width:0.50;stroke:#613927;"/>
		<path stroke-opacity="0.953" vector-effect="non-scaling-stroke" d="M 275.738346 163.67071 Q 276.478627 163.799126 277.215131 163.489417 C 277.313331 163.44787 277.42664 163.444093 277.528617 163.481863 Q 278.01962 163.651825 278.095159 163.281685 C 278.098936 163.247692 278.098936 163.2137 278.091382 163.179707 L 276.452188 155.920421 C 276.406865 155.720243 276.20291 155.599381 276.006509 155.652258 L 274.363538 156.097938" style="fill:none;stroke-width:0.50;stroke:#706b78;"/>
		<path stroke-opacity="0.953" vector-effect="non-scaling-stroke" d="M 243.199974 174.151729 Q 243.362383 174.208383 243.490799 174.068637" style="fill:none;stroke-width:0.50;stroke:#b88c6b;"/>
		<path stroke-opacity="0.953" vector-effect="non-scaling-stroke" d="M 247.026018 173.105516 Q 247.101557 173.237709 246.924041 173.048862" style="fill:none;stroke-width:0.50;stroke:#b88c6b;"/>
		<path d="M 244.922261 53.553911 Q 245.443479 53.550134 245.545456 54.154445 C 247.218642 64.148239 248.181763 74.153363 248.166655 84.264242 Q 248.166655 85.163155 247.966477 86.046959 C 247.936262 86.171599 247.868277 86.28113 247.766299 86.356669 C 246.931595 87.01008 246.108221 86.968534 244.997799 86.972311 C 243.887378 86.972311 243.060227 87.017634 242.221746 86.368 C 242.123545 86.292461 242.051783 86.182929 242.021568 86.05829 Q 241.817613 85.178262 241.813836 84.27935 C 241.753405 74.168471 242.674979 64.15957 244.302842 54.154445 Q 244.401042 53.553911 244.922261 53.553911 Z" style="fill:#ffbd20;"/>
		<path d="M 266.84742 61.62524 Q 267.243999 61.719664 267.115583 62.369298 Q 265.9825 68.238669 264.063812 78.130485 Q 262.772097 84.796791 262.103578 87.550183 C 261.880739 88.452873 261.563475 88.996753 260.539924 88.758805 C 259.523926 88.520858 259.478602 87.893885 259.67878 86.987418 Q 260.286868 84.218919 262.065809 77.665921 Q 264.702116 67.94029 266.26577 62.172897 Q 266.43951 61.530817 266.84742 61.62524 Z" style="fill:#ffbd20;"/>
		<path d="M 229.161074 88.845675 C 228.137522 89.079845 227.816482 88.535965 227.601196 87.633276 Q 226.932677 84.879884 225.652293 78.209801 Q 223.748713 68.310431 222.623184 62.437283 Q 222.498545 61.787649 222.895124 61.697002 Q 223.303034 61.602579 223.472996 62.240882 Q 225.032874 68.015829 227.650296 77.749014 Q 229.417906 84.305788 230.025994 87.074288 C 230.222395 87.980755 230.177072 88.611504 229.161074 88.845675 Z" style="fill:#ffbd20;"/>
		<path d="M 291.986758 64.174677 Q 292.489092 64.457948 291.881004 66.063149 Q 290.188933 70.531274 289.101173 73.250674 Q 284.867219 83.826116 278.775009 93.880341 C 277.755234 95.561081 276.384203 95.194718 274.952741 94.386452 C 273.52128 93.578186 272.497728 92.592403 273.407971 90.855009 Q 278.858101 80.438198 285.717031 71.343317 Q 287.480864 69.005389 290.42688 65.247329 Q 291.488202 63.891407 291.986758 64.174677 Z" style="fill:#ffbd20;"/>
		<path d="M 214.593401 94.480875 C 213.169493 95.274033 211.80224 95.629066 210.80135 93.95588 Q 204.80734 83.939425 200.660255 73.416859 Q 199.595157 70.70879 197.940856 66.267104 Q 197.347875 64.66568 197.842655 64.389963 Q 198.341212 64.110469 199.387425 65.462615 Q 202.291895 69.209344 204.033066 71.539718 Q 210.790019 80.60816 216.145725 90.983425 C 217.040861 92.713265 216.017309 93.687717 214.593401 94.480875 Z" style="fill:#ffbd20;"/>
		<path d="M 291.578848 105.592644 C 291.386224 105.373581 291.408886 105.04121 291.627949 104.848586 L 291.68838 104.799486 C 303.449783 94.49976 313.356707 86.579509 313.813717 87.104504 L 313.885479 87.18382 C 314.342489 87.708815 305.179623 96.478878 293.41822 106.774827 L 293.357789 106.827705 C 293.142503 107.020329 292.810132 106.997667 292.617508 106.778604 L 291.578848 105.592644 Z" style="fill:#ffbd20;"/>
		<path d="M 196.977735 106.812597 C 196.781334 107.039214 196.437632 107.061875 196.211015 106.865474 L 196.158138 106.816374 C 184.498712 96.611071 175.411385 87.916547 175.864619 87.399105 L 175.943935 87.308459 C 176.397168 86.78724 186.217222 94.643284 197.876648 104.852363 L 197.933302 104.897686 C 198.159918 105.097864 198.18258 105.441566 197.982402 105.664406 L 196.977735 106.812597 Z" style="fill:#ffbd20;"/>
		<path d="M 294.947882 121.924149 Q 293.909223 122.619107 292.349345 122.819285 Q 291.05763 122.139435 290.117171 120.783512 Q 289.803685 120.330279 289.391998 120.296287 C 289.206928 120.277402 289.052073 120.436033 289.070958 120.621104 L 289.418436 123.857945 Q 281.230022 125.799294 273.018946 127.098562 Q 271.749893 127.29874 270.582817 127.294964 C 270.412855 127.294964 270.261777 127.185432 270.2089 127.023024 Q 267.610362 119.155649 263.051591 110.816157 C 262.938283 110.612202 263.062922 110.35537 263.293316 110.317601 Q 270.990727 108.999447 278.083828 106.0421 Q 279.058279 105.637967 279.481297 105.21495 C 279.760791 104.935456 279.454858 104.474669 279.088495 104.621969 L 274.140698 106.58598 C 273.902751 106.680404 273.630811 106.601088 273.475956 106.393356 C 272.335319 104.844809 270.707456 103.783488 269.219341 102.427565 C 266.756773 100.187837 264.116689 98.488213 261.140458 96.50154 C 261.053588 96.444886 260.932726 96.478878 260.894956 96.577079 L 260.891179 96.58841 C 260.845856 96.701718 260.883625 96.830134 260.981826 96.898119 Q 264.906071 99.625073 267.240222 101.759046 Q 269.831205 104.12719 272.376866 106.457564 C 272.558159 106.62375 272.53172 106.918351 272.320212 107.046767 Q 272.082264 107.197845 271.795216 107.292269 Q 268.652799 108.323374 263.02893 109.373365 C 262.734328 109.430019 262.432172 109.290272 262.281095 109.029663 Q 259.032923 103.432232 255.055801 98.446666 Q 253.507254 96.50154 251.664105 94.971878 C 251.637667 94.949216 251.603674 94.952993 251.581013 94.975655 L 251.577236 94.975655 C 251.554574 94.998316 251.554574 95.036086 251.577236 95.058748 Q 252.732981 96.327801 254.262643 98.495766 Q 257.896063 103.655072 260.985603 109.309157 C 261.083803 109.49045 260.970495 109.709513 260.76654 109.735951 Q 252.95582 110.717957 245.413263 111.023889 C 245.349055 111.027666 245.296178 110.974789 245.296178 110.910581 Q 245.420817 102.397349 244.994023 94.220266 C 244.990246 94.171166 244.952476 94.133396 244.903376 94.129619 C 244.858053 94.125842 244.812729 94.159835 244.805175 94.208935 Q 244.597443 95.41378 244.571005 96.82258 Q 244.540789 98.582636 244.450143 110.597095 C 244.446366 110.778388 244.299065 110.921912 244.117772 110.918135 Q 236.424137 110.67641 228.858918 109.686851 C 228.688956 109.66419 228.590755 109.479119 228.670071 109.324265 Q 232.605647 101.664622 238.180416 94.964324 C 238.191747 94.952993 238.195524 94.941662 238.1993 94.926554 Q 238.221962 94.832131 238.165308 94.767923 C 238.131315 94.73393 238.078438 94.730153 238.044446 94.764146 Q 234.856705 97.902786 233.149527 100.282261 Q 229.916463 104.773047 227.650296 108.923909 C 227.469003 109.25628 227.095085 109.437573 226.721168 109.369588 Q 222.868685 108.685961 218.910448 107.605755 Q 218.056859 107.371585 217.112623 106.850366 C 216.984207 106.778604 216.961545 106.604865 217.067299 106.502887 Q 218.491207 105.120526 219.911338 103.95345 C 220.311694 103.621079 220.893344 102.831698 221.346577 102.491773 Q 222.56653 101.589083 223.892237 100.4069 C 225.085751 99.341802 227.132855 98.019872 228.662517 96.830134 C 228.707841 96.792365 228.719171 96.728157 228.685179 96.679056 L 228.65874 96.63751 C 228.628525 96.592187 228.564317 96.577079 228.515216 96.607295 Q 224.1604 99.126516 221.505209 101.400236 C 218.827355 103.692841 217.411001 104.795709 216.206156 106.355587 C 216.021086 106.597311 215.696269 106.680404 215.416775 106.563319 L 210.438763 104.444453 C 212.047741 103.364247 213.743589 102.049871 215.29969 101.200058 Q 219.76026 98.760153 224.749603 96.852796 Q 226.679622 96.112515 228.205507 95.757482 Q 231.593426 94.971878 231.74828 94.941662 Q 234.097539 94.484652 234.350595 94.41289 Q 235.559217 94.076742 236.956686 93.91811 Q 242.353939 93.313799 244.129102 93.291138 Q 247.698314 93.245814 252.457264 93.797248 Q 255.614789 94.159835 262.084694 95.919891 Q 263.686118 96.358016 265.147795 96.981212 C 266.454618 97.536423 267.844533 97.831024 269.189125 98.50332 Q 273.536387 100.675063 276.15381 102.291595 Q 285.732139 108.213843 292.322906 117.811057 Q 293.607067 119.680645 294.947882 121.924149 Z" style="fill:#ffd920;"/>
		<path fill-opacity="0.996" d="M 289.418436 123.857945 L 289.686599 125.194983 Q 280.425533 127.294964 271.134251 128.718871 C 270.926519 128.749087 270.794326 128.960596 270.858534 129.160774 Q 273.147362 136.533368 274.321992 144.079702 C 274.669471 146.300545 274.858318 149.05016 275.186912 151.561828 L 273.725235 151.440966 Q 273.608149 149.609148 273.366425 147.856646 Q 272.070933 138.47094 269.272218 129.190989 C 269.238225 129.073904 269.124917 129.002142 269.004055 129.01725 Q 261.929839 129.851955 254.04358 130.312742 Q 250.043796 130.550689 245.915597 130.51292 C 245.681426 130.509143 245.492579 130.701767 245.492579 130.935937 L 245.526572 151.45985 L 244.227303 151.45985 L 244.234857 130.935937 C 244.234857 130.765975 244.098887 130.626228 243.928924 130.622451 Q 232.352591 130.252311 220.817805 129.036135 C 220.500541 129.002142 220.209717 129.206097 220.130401 129.515807 Q 218.578077 135.69111 217.199493 142.047706 Q 216.57252 144.918184 215.900224 151.429635 L 214.393223 151.44852 C 214.612286 148.963291 214.770918 146.326984 215.227928 144.038156 C 215.514976 142.606694 215.673607 140.95617 216.043748 139.00349 Q 216.953991 134.225656 218.729155 129.039912 C 218.793363 128.843511 218.664947 128.635779 218.457215 128.613117 Q 207.877995 127.404495 197.623592 124.235639 Q 195.546273 123.597335 194.016611 122.921263 L 194.609591 121.852387 Q 198.654698 123.336726 201.664922 124.080784 Q 210.053515 126.16188 218.778255 127.370502 C 219.125734 127.419603 219.458105 127.211871 219.567636 126.875723 Q 222.355021 118.279399 226.845807 110.623533 C 226.936454 110.472456 226.84203 110.276054 226.668291 110.249616 Q 218.884009 109.090094 211.662493 106.068539 Q 211.005305 105.796599 209.917545 104.825924 L 210.438763 104.444453 L 215.416775 106.563319 C 215.696269 106.680404 216.021086 106.597311 216.206156 106.355587 C 217.411001 104.795709 218.827355 103.692841 221.505209 101.400236 Q 224.1604 99.126516 228.515216 96.607295 C 228.564317 96.577079 228.628525 96.592187 228.65874 96.63751 L 228.685179 96.679056 C 228.719171 96.728157 228.707841 96.792365 228.662517 96.830134 C 227.132855 98.019872 225.085751 99.341802 223.892237 100.4069 Q 222.56653 101.589083 221.346577 102.491773 C 220.893344 102.831698 220.311694 103.621079 219.911338 103.95345 Q 218.491207 105.120526 217.067299 106.502887 C 216.961545 106.604865 216.984207 106.778604 217.112623 106.850366 Q 218.056859 107.371585 218.910448 107.605755 Q 222.868685 108.685961 226.721168 109.369588 C 227.095085 109.437573 227.469003 109.25628 227.650296 108.923909 Q 229.916463 104.773047 233.149527 100.282261 Q 234.856705 97.902786 238.044446 94.764146 C 238.078438 94.730153 238.131315 94.73393 238.165308 94.767923 Q 238.221962 94.832131 238.1993 94.926554 C 238.195524 94.941662 238.191747 94.952993 238.180416 94.964324 Q 232.605647 101.664622 228.670071 109.324265 C 228.590755 109.479119 228.688956 109.66419 228.858918 109.686851 Q 236.424137 110.67641 244.117772 110.918135 C 244.299065 110.921912 244.446366 110.778388 244.450143 110.597095 Q 244.540789 98.582636 244.571005 96.82258 Q 244.597443 95.41378 244.805175 94.208935 C 244.812729 94.159835 244.858053 94.125842 244.903376 94.129619 C 244.952476 94.133396 244.990246 94.171166 244.994023 94.220266 Q 245.420817 102.397349 245.296178 110.910581 C 245.296178 110.974789 245.349055 111.027666 245.413263 111.023889 Q 252.95582 110.717957 260.76654 109.735951 C 260.970495 109.709513 261.083803 109.49045 260.985603 109.309157 Q 257.896063 103.655072 254.262643 98.495766 Q 252.732981 96.327801 251.577236 95.058748 C 251.554574 95.036086 251.554574 94.998316 251.577236 94.975655 L 251.581013 94.975655 C 251.603674 94.952993 251.637667 94.949216 251.664105 94.971878 Q 253.507254 96.50154 255.055801 98.446666 Q 259.032923 103.432232 262.281095 109.029663 C 262.432172 109.290272 262.734328 109.430019 263.02893 109.373365 Q 268.652799 108.323374 271.795216 107.292269 Q 272.082264 107.197845 272.320212 107.046767 C 272.53172 106.918351 272.558159 106.62375 272.376866 106.457564 Q 269.831205 104.12719 267.240222 101.759046 Q 264.906071 99.625073 260.981826 96.898119 C 260.883625 96.830134 260.845856 96.701718 260.891179 96.58841 L 260.894956 96.577079 C 260.932726 96.478878 261.053588 96.444886 261.140458 96.50154 C 264.116689 98.488213 266.756773 100.187837 269.219341 102.427565 C 270.707456 103.783488 272.335319 104.844809 273.475956 106.393356 C 273.630811 106.601088 273.902751 106.680404 274.140698 106.58598 L 279.088495 104.621969 C 279.454858 104.474669 279.760791 104.935456 279.481297 105.21495 Q 279.058279 105.637967 278.083828 106.0421 Q 270.990727 108.999447 263.293316 110.317601 C 263.062922 110.35537 262.938283 110.612202 263.051591 110.816157 Q 267.610362 119.155649 270.2089 127.023024 C 270.261777 127.185432 270.412855 127.294964 270.582817 127.294964 Q 271.749893 127.29874 273.018946 127.098562 Q 281.230022 125.799294 289.418436 123.857945 Z M 221.067083 127.619781 Q 221.433447 127.717981 222.423006 127.823736 Q 233.655637 129.055019 244.178203 129.232536 C 244.265072 129.232536 244.32928 129.168328 244.32928 129.085235 L 244.344388 112.058772 C 244.344388 111.934133 244.242411 111.832155 244.121548 111.832155 Q 236.832047 111.820824 228.647409 110.608425 C 228.349031 110.563102 228.054429 110.71418 227.918459 110.982343 Q 223.865798 118.913925 220.893344 127.29874 C 220.844243 127.438487 220.923559 127.585788 221.067083 127.619781 Z M 268.645245 127.634888 C 268.784992 127.600896 268.868085 127.449818 268.818985 127.313848 Q 265.854084 118.940364 261.812754 111.016335 C 261.676784 110.748172 261.385959 110.597095 261.08758 110.642418 Q 252.914274 111.847263 245.636103 111.854817 C 245.511464 111.854817 245.413263 111.953018 245.413263 112.077657 L 245.413263 129.081458 C 245.413263 129.164551 245.481248 129.228759 245.564341 129.228759 Q 256.071799 129.058796 267.289322 127.835067 Q 268.278882 127.729312 268.645245 127.634888 Z" style="fill:#a6581a;"/>
		<path d="M 209.917545 104.825924 Q 211.005305 105.796599 211.662493 106.068539 Q 218.884009 109.090094 226.668291 110.249616 C 226.84203 110.276054 226.936454 110.472456 226.845807 110.623533 Q 222.355021 118.279399 219.567636 126.875723 C 219.458105 127.211871 219.125734 127.419603 218.778255 127.370502 Q 210.053515 126.16188 201.664922 124.080784 Q 198.654698 123.336726 194.609591 121.852387 Q 200.509178 111.745286 209.917545 104.825924 Z" style="fill:#ffd920;"/>
		<path d="M 159.162973 112.697075 C 159.060995 112.549775 159.125203 112.342043 159.295166 112.277835 C 160.228071 111.919025 161.629317 112.372258 162.7624 112.466682 Q 164.197639 112.583767 164.775511 112.670637 C 172.401161 113.822605 179.951272 115.552445 187.044373 118.211414 C 188.211448 118.645762 189.37097 119.30295 188.770436 120.787289 Q 188.094363 122.456698 187.214335 123.767298 C 186.946172 124.167654 186.492939 124.409378 186.00949 124.413155 Q 184.967053 124.413155 184.109687 124.186539 Q 181.862406 123.582228 177.424497 121.878826 Q 176.601123 121.561563 172.087675 119.66176 Q 165.901041 117.059446 160.178971 113.645088 Q 159.544444 113.263617 159.162973 112.697075 Z" style="fill:#ffbd20;"/>
		<path d="M 330.564463 112.670637 Q 330.352954 113.112539 329.892167 113.369371 Q 322.036124 117.727965 318.240295 119.284066 Q 312.280278 121.727748 310.648638 122.362275 Q 309.708179 122.728638 306.527992 123.854168 Q 305.62908 124.175208 305.190954 124.24697 C 304.054094 124.439594 303.506437 124.700203 302.543316 124.046792 C 302.460224 123.990138 302.392239 123.922153 302.339361 123.83906 Q 301.221386 122.075227 300.82103 120.707973 Q 300.730383 120.386933 300.87013 119.465359 C 300.889015 119.336943 300.960777 119.223634 301.066531 119.151873 Q 302.445116 118.207637 302.603748 118.154759 Q 311.438019 115.21252 314.803276 114.559109 Q 316.023229 114.321161 318.240295 113.830159 Q 322.07767 112.976569 327.626001 112.262727 Q 328.925269 112.096541 330.262308 112.160749 C 330.515363 112.17208 330.673994 112.440243 330.564463 112.670637 Z" style="fill:#ffbd20;"/>
		<path fill-opacity="0.996" d="M 292.349345 122.819285 L 293.134949 123.669097 Q 295.703271 125.795517 297.667282 128.193876 L 298.721049 130.686659 Q 298.660618 131.309855 298.717272 131.914166 C 298.849465 133.311635 298.437778 134.422057 297.697497 135.623125 C 297.455773 136.01215 297.297141 136.423837 296.843908 136.635346 C 296.700384 136.703331 296.553083 136.552253 296.621068 136.412506 Q 297.686167 134.202994 296.700384 131.547802 C 295.944995 129.51203 293.916777 127.903052 291.918773 127.325179 C 291.718595 127.264748 291.522194 127.430934 291.548633 127.638665 Q 291.711041 128.903942 291.971651 130.29008 Q 292.987648 135.657117 294.434218 142.667125 Q 294.910113 144.963507 294.774143 145.620695 C 294.362456 147.611145 292.696824 149.205015 290.68749 149.831988 C 288.738587 150.440076 286.389327 149.635587 285.924763 147.482729 C 285.343114 144.770883 287.318456 142.576478 289.803685 141.851305 C 290.528858 141.639796 291.699711 141.692674 292.526861 141.673789 C 292.674162 141.670012 292.779917 141.537819 292.753478 141.394295 L 289.686599 125.194983 L 289.418436 123.857945 L 289.070958 120.621104 C 289.052073 120.436033 289.206928 120.277402 289.391998 120.296287 Q 289.803685 120.330279 290.117171 120.783512 Q 291.05763 122.139435 292.349345 122.819285 Z" style="fill:#1c1a33;"/>
		<path fill-opacity="0.996" d="M 295.476654 123.038348 L 293.134949 123.669097 L 292.349345 122.819285 Q 293.909223 122.619107 294.947882 121.924149 Q 295.397339 122.320728 295.476654 123.038348 Z" style="fill:#a6581a;"/>
		<path d="M 194.016611 122.921263 Q 195.546273 123.597335 197.623592 124.235639 Q 207.877995 127.404495 218.457215 128.613117 C 218.664947 128.635779 218.793363 128.843511 218.729155 129.039912 Q 216.953991 134.225656 216.043748 139.00349 C 215.673607 140.95617 215.514976 142.606694 215.227928 144.038156 C 214.770918 146.326984 214.612286 148.963291 214.393223 151.44852 L 187.701561 151.452297 C 187.384298 151.452297 187.123688 151.195464 187.116135 150.878201 Q 187.01038 145.243001 188.117025 139.570031 Q 189.82798 130.815075 194.016611 122.921263 Z" style="fill:#ffd920;"/>
		<path d="M 295.476654 123.038348 Q 296.224489 124.416932 296.957216 125.670878 Q 297.285811 126.233642 297.667282 128.193876 Q 295.703271 125.795517 293.134949 123.669097 L 295.476654 123.038348 Z" style="fill:#ffd920;"/>
		<path d="M 289.686599 125.194983 L 292.753478 141.394295 C 292.779917 141.537819 292.674162 141.670012 292.526861 141.673789 C 291.699711 141.692674 290.528858 141.639796 289.803685 141.851305 C 287.318456 142.576478 285.343114 144.770883 285.924763 147.482729 C 286.389327 149.635587 288.738587 150.440076 290.68749 149.831988 C 292.696824 149.205015 294.362456 147.611145 294.774143 145.620695 Q 294.910113 144.963507 294.434218 142.667125 Q 292.987648 135.657117 291.971651 130.29008 Q 291.711041 128.903942 291.548633 127.638665 C 291.522194 127.430934 291.718595 127.264748 291.918773 127.325179 C 293.916777 127.903052 295.944995 129.51203 296.700384 131.547802 Q 297.686167 134.202994 296.621068 136.412506 C 296.553083 136.552253 296.700384 136.703331 296.843908 136.635346 C 297.297141 136.423837 297.455773 136.01215 297.697497 135.623125 C 298.437778 134.422057 298.849465 133.311635 298.717272 131.914166 Q 298.660618 131.309855 298.721049 130.686659 C 300.601967 135.207661 301.693504 139.860856 302.237384 144.136356 Q 302.683063 147.603591 302.539539 150.983956 C 302.531986 151.22568 302.335585 151.414527 302.09386 151.418304 L 275.186912 151.561828 C 274.858318 149.05016 274.669471 146.300545 274.321992 144.079702 Q 273.147362 136.533368 270.858534 129.160774 C 270.794326 128.960596 270.926519 128.749087 271.134251 128.718871 Q 280.425533 127.294964 289.686599 125.194983 Z" style="fill:#ffd920;"/>
		<path d="M 244.227303 151.45985 L 215.900224 151.429635 Q 216.57252 144.918184 217.199493 142.047706 Q 218.578077 135.69111 220.130401 129.515807 C 220.209717 129.206097 220.500541 129.002142 220.817805 129.036135 Q 232.352591 130.252311 243.928924 130.622451 C 244.098887 130.626228 244.234857 130.765975 244.234857 130.935937 L 244.227303 151.45985 Z" style="fill:#ffd920;"/>
		<path d="M 273.725235 151.440966 L 245.526572 151.45985 L 245.492579 130.935937 C 245.492579 130.701767 245.681426 130.509143 245.915597 130.51292 Q 250.043796 130.550689 254.04358 130.312742 Q 261.929839 129.851955 269.004055 129.01725 C 269.124917 129.002142 269.238225 129.073904 269.272218 129.190989 Q 272.070933 138.47094 273.366425 147.856646 Q 273.608149 149.609148 273.725235 151.440966 Z" style="fill:#ffd920;"/>
		<path d="M 182.039318 136.39551 C 182.002152 136.593799 181.817082 136.722215 181.618264 136.688147 L 171.603962 134.886319 C 171.407825 134.852628 171.275632 134.663781 171.311324 134.465265 L 171.314006 134.450384 C 171.351171 134.252094 171.536241 134.123678 171.735059 134.157746 L 181.749362 135.959575 C 181.945498 135.993265 182.077691 136.182113 182.041999 136.380629 L 182.039318 136.39551 Z" style="fill:#ffbd20;"/>
		<path d="M 314.40292 135.528701 Q 314.232958 135.483378 314.025226 135.600463 C 312.967682 135.796864 311.868591 135.974381 310.871478 136.110351 C 309.364477 136.314306 308.231394 136.404952 307.804599 136.348298 C 307.661075 136.329413 307.600644 136.295421 307.623306 136.246321 C 307.657298 136.170782 307.895246 136.065027 308.318264 135.932834 C 309.236061 135.645786 310.920578 135.275646 312.77128 134.958383 C 314.757953 134.614681 316.616209 134.384287 317.583107 134.361626 C 318.145872 134.346518 318.368711 134.403172 318.213857 134.524034 C 317.930586 134.743097 316.434916 135.135899 314.40292 135.528701 Z" style="fill:#ffbd20;"/>
		<path fill-opacity="0.996" d="M 314.40292 135.528701 C 314.278281 135.551363 314.149865 135.574025 314.025226 135.600463 Q 314.232958 135.483378 314.40292 135.528701 Z" style="fill:#a6581a;"/>
		<path d="M 151.193621 150.76867 C 150.974559 150.674246 150.933012 150.383421 151.110528 150.228567 C 151.548654 149.843319 152.175627 149.869757 152.670406 149.76778 Q 157.780611 148.702681 159.340489 148.476065 Q 168.322062 147.165465 172.276522 146.568708 C 174.686212 146.202345 177.24698 145.945512 179.951272 145.428071 Q 180.816192 145.261886 180.971047 146.028605 C 180.974824 146.055044 180.978601 146.077705 180.974824 146.104144 L 180.74443 150.961294 C 180.729322 151.289888 180.457382 151.54672 180.128788 151.550497 Q 170.561789 151.614705 156.220734 151.323881 C 155.314267 151.304996 152.557098 151.36165 151.193621 150.76867 Z" style="fill:#ffbd20;"/>
		<path d="M 308.684627 146.606478 Q 308.748835 146.304322 308.677073 145.971951 Q 308.786605 145.261886 309.662856 145.41674 Q 311.566435 145.756665 315.547334 146.315653 Q 319.807727 146.91241 324.090781 147.520498 Q 332.875953 148.774443 338.439391 150.032166 Q 338.620684 150.073712 338.662231 150.126589 C 338.919063 150.421191 338.752877 150.881978 338.367629 150.942409 Q 336.320526 151.259672 333.555803 151.323881 Q 321.246743 151.603374 309.53444 151.59582 C 309.156745 151.59582 308.843259 151.293665 308.831928 150.915971 L 308.684627 146.606478 Z" style="fill:#ffbd20;"/>
		<path fill-opacity="0.996" d="M 308.677073 145.971951 Q 308.748835 146.304322 308.684627 146.606478 Q 308.601534 146.308099 308.677073 145.971951 Z" style="fill:#a6581a;"/>
		<path fill-opacity="0.996" d="M 279.405758 163.187261 Q 279.250904 163.413878 279.473743 163.564956 Q 279.568167 163.632941 279.817445 163.542294 L 281.823002 162.858667 C 281.958972 162.809567 282.102496 162.783128 282.24602 162.775574 Q 283.620828 162.692482 284.950312 162.099501 C 285.067397 162.046624 285.195813 162.016409 285.328006 162.008855 Q 286.804791 161.944647 288.342007 161.351667 C 288.432654 161.317674 288.527078 161.295012 288.625278 161.283682 Q 290.589289 161.098611 291.068961 160.947534 Q 292.810132 160.399877 294.396448 160.399877 Q 295.223599 160.399877 297.531312 159.995744 C 300.069418 159.550064 302.656625 159.659596 305.081423 159.735135 C 305.27027 159.738911 305.436455 159.859774 305.500664 160.041067 L 305.511994 160.071283 C 305.564872 160.218583 305.462894 160.373438 305.308039 160.388546 Q 303.219389 160.558508 301.874797 160.879549 C 300.299812 161.249689 298.702165 161.230804 297.089409 161.699145 C 295.971434 162.023963 294.585296 161.872885 293.693937 162.288349 Q 292.92344 162.643381 291.567518 162.764244 Q 290.68749 162.843559 289.429767 163.34967 C 289.233366 163.428986 289.021857 163.470532 288.806572 163.466755 Q 287.416656 163.455424 286.359112 163.908658 C 285.297791 164.361891 284.440424 164.052181 283.477304 164.588507 C 282.314005 165.230588 281.010959 164.864224 279.66259 165.612059 C 279.541728 165.680044 279.447305 165.789576 279.401981 165.917992 L 278.827886 167.477869 C 278.820332 167.500531 278.809001 167.523193 278.793893 167.545854 Q 277.335993 169.929106 274.677024 169.774251 Q 272.826322 169.66472 272.490174 168.082181 C 272.429743 167.806464 272.150249 167.640278 271.878309 167.715817 L 266.126024 169.321018 Q 264.932509 169.513642 263.387739 170.034861 Q 252.181547 173.815581 239.982018 177.645402 Q 230.989115 180.46678 222.883793 182.117304 Q 221.762041 182.343921 220.644065 182.51766 C 220.379679 182.559206 220.15684 182.729169 220.051085 182.97467 C 219.314581 184.689403 217.698049 185.739393 215.771808 184.919796 Q 215.824685 184.889581 215.692492 184.814042 L 214.993757 183.624305 C 214.929549 183.514773 214.808687 183.454342 214.684048 183.46945 Q 205.17748 184.583648 195.674689 183.680959 C 193.631363 183.488335 191.474728 183.050209 189.382301 182.672515 L 185.125685 181.524324 C 185.031261 181.497885 184.940615 181.460116 184.857522 181.407239 Q 184.27965 181.044652 183.32786 180.708504 C 183.229659 180.674511 183.135236 180.621634 183.052143 180.553649 L 180.449829 178.461222 C 180.196773 178.257267 180.310082 177.853134 180.631122 177.804034 Q 181.242987 177.717164 181.575358 178.162844 C 181.643343 178.257267 181.737766 178.332806 181.847298 178.37813 Q 183.475161 179.110857 185.41651 179.820922 C 186.4174 180.187286 187.456059 180.153293 188.50605 180.496995 Q 189.620248 180.863359 190.753331 180.795374 C 190.794878 180.791597 190.836424 180.795374 190.877971 180.802928 L 195.289441 181.550762 Q 197.884202 182.003996 201.35899 182.049319 Q 208.950647 182.14752 215.148612 181.275045 C 215.496091 181.225945 215.839793 181.139076 216.172164 181.014436 Q 217.66028 180.459226 218.989764 180.368579 C 219.174834 180.357248 219.307027 180.179732 219.265481 179.994662 L 217.902004 173.955328 C 217.864235 173.789143 217.705603 173.679611 217.535641 173.70605 Q 214.060852 174.242376 209.158379 174.688055 Q 201.800892 175.352797 194.333874 174.665394 Q 192.524718 174.502985 190.655131 174.178168 Q 190.126359 174.083744 188.660905 173.672057 Q 187.236997 173.267924 186.670455 173.139508 Q 184.68756 172.690052 181.786867 170.945104 C 181.688666 170.884673 181.601796 170.805357 181.537588 170.707157 C 181.261871 170.284139 180.835077 170.337016 180.702884 169.898891 Q 180.60846 169.592958 180.189219 169.385226 Q 180.026811 169.30591 180.01548 169.196379 Q 180.000372 169.049078 180.087242 168.958431 C 180.132565 168.909331 180.20055 168.898 180.257204 168.928216 Q 182.311862 170.015976 182.659341 170.174607 Q 183.354298 170.488094 186.043482 171.186828 Q 187.663791 171.609846 189.510717 171.855347 Q 190.311429 171.964879 191.927961 172.278365 C 194.311213 172.739152 196.513171 172.572967 199.470518 172.663613 C 199.583826 172.66739 199.697135 172.693829 199.799112 172.746706 C 200.248568 172.973323 200.732017 172.871345 201.351436 172.878899 Q 202.643151 172.894007 202.998184 172.844907 Q 203.931089 172.727821 204.629823 172.701383 Q 209.045071 172.535197 209.192371 172.53142 Q 210.336785 172.504982 211.25836 172.353904 Q 213.02597 172.055525 213.381002 172.100849 C 213.460318 172.11218 213.539634 172.07441 213.584957 172.006425 Q 213.698266 171.828909 213.819128 171.832686 Q 215.971986 171.927109 217.471432 171.186828 C 217.773588 171.039528 218.109736 170.979096 218.445884 171.009312 Q 219.945331 171.145282 221.214384 170.627841 C 222.279482 170.193492 223.193502 170.39367 224.217054 169.906444 Q 224.764711 169.645835 226.128188 169.487204 Q 226.978 169.389003 227.92979 168.93577 C 228.061983 168.871562 228.205507 168.833792 228.349031 168.814908 C 229.576538 168.678938 230.324372 168.172827 231.336593 168.002865 C 232.277052 167.84801 232.862479 167.394777 233.617868 167.296576 C 234.648973 167.164383 235.336377 166.605395 236.337267 166.476979 Q 237.126648 166.375002 237.934914 165.940653 C 238.085992 165.861338 238.248401 165.80846 238.414586 165.789576 Q 239.215298 165.687598 240.257735 165.162603 C 240.42392 165.07951 240.605214 165.022856 240.794061 165.003971 Q 241.572111 164.920878 242.418147 164.414768 C 242.46347 164.388329 242.51257 164.369445 242.561671 164.358114 L 243.747631 164.089951 C 243.819393 164.071066 243.887378 164.044628 243.951586 164.010635 Q 244.73719 163.557402 245.579449 163.417655 C 245.760742 163.387439 245.938259 163.323231 246.09689 163.232585 Q 246.757855 162.85489 247.350836 162.752913 C 248.264856 162.590504 249.054237 161.959754 249.832288 161.921985 C 249.987142 161.914431 250.134443 161.869108 250.262859 161.786015 Q 251.059794 161.283682 252.000253 161.155265 C 252.162662 161.132604 252.321294 161.07595 252.461041 160.985303 C 253.125783 160.562285 253.764086 160.486746 254.440159 160.256353 Q 266.329979 156.184807 269.544158 155.21791 Q 269.80099 155.142371 270.057822 155.078163 C 270.733895 154.915754 271.273998 154.496513 271.866978 154.443636 C 272.943407 154.35299 273.65725 153.756232 274.631701 153.669363 Q 275.60993 153.578716 276.512619 153.170806 Q 277.052722 152.925305 278.419976 152.698688 Q 278.786339 152.642034 279.103603 152.868651 C 280.448195 153.846879 278.608823 155.021509 277.740126 155.149925 C 277.498402 155.187694 277.33977 155.425642 277.403978 155.659812 L 279.405758 163.187261 Z M 274.363538 156.097938 Q 273.098262 156.656925 271.749893 156.853326 C 271.595038 156.875988 271.440184 156.917534 271.292883 156.974189 C 269.347757 157.729577 267.342199 158.243242 265.185565 159.040177 Q 261.265097 160.4943 258.844076 161.291235 C 257.873401 161.608499 257.053804 162.07684 255.977375 162.288349 C 255.633673 162.356334 255.312633 162.741582 254.885839 162.798236 Q 253.832071 162.930429 253.477038 163.198592 C 252.706542 163.776464 251.864283 163.666933 250.908717 164.173044 C 250.859616 164.199482 250.802962 164.222144 250.746308 164.233475 L 249.246861 164.611169 Q 244.555897 166.171047 239.91781 167.715817 Q 230.51322 170.846903 220.708273 172.992208 Q 220.375902 173.067746 220.379679 173.407671 Q 220.383456 173.630511 220.802697 173.777812 Q 220.840466 173.902451 220.897121 173.94022 Q 221.724271 175.137512 221.626071 176.217718 Q 221.482547 176.565196 221.240822 176.772928 Q 221.214384 176.916452 221.040644 176.769151 C 221.002875 176.735159 220.980213 176.689836 220.980213 176.640735 L 220.980213 175.643622 C 220.980213 175.379236 220.859351 175.129958 220.655396 174.963772 L 219.367458 173.92889 C 219.076634 173.694719 218.649839 173.959105 218.732932 174.325469 L 220.035977 180.089085 C 220.096408 180.349694 220.349464 180.512103 220.610073 180.459226 Q 225.093305 179.522544 232.065544 177.762488 Q 232.696293 177.603856 237.330603 176.195056 Q 242.210415 174.710717 247.026018 173.105516 L 250.76897 171.791139 L 272.879199 164.913325 Q 272.89053 164.909548 272.901861 164.905771 L 275.738346 163.67071 Q 276.478627 163.799126 277.215131 163.489417 C 277.313331 163.44787 277.42664 163.444093 277.528617 163.481863 Q 278.01962 163.651825 278.095159 163.281685 C 278.098936 163.247692 278.098936 163.2137 278.091382 163.179707 L 276.452188 155.920421 C 276.406865 155.720243 276.20291 155.599381 276.006509 155.652258 L 274.363538 156.097938 Z M 191.010164 181.098058 C 191.010164 181.101306 191.074372 181.105083 191.157502 181.105083 C 191.240557 181.105083 191.304765 181.101306 191.304765 181.097 C 191.304765 181.093752 191.240557 181.089975 191.157427 181.089975 C 191.074372 181.089975 191.010164 181.093752 191.010164 181.098058 Z" style="fill:#1c1a33;"/>
		<path fill-opacity="0.996" d="M 279.405758 163.187261 L 279.817445 163.542294 Q 279.568167 163.632941 279.473743 163.564956 Q 279.250904 163.413878 279.405758 163.187261 Z" style="fill:#a6581a;"/>
		<path fill-opacity="0.910" d="M 266.126024 169.321018 L 263.036483 170.340793 C 262.987383 170.355901 262.938283 170.363455 262.885406 170.367232 Q 261.960054 170.427663 261.363297 170.922442 C 261.268874 170.997981 261.155565 171.050858 261.03848 171.069743 L 259.871404 171.262367 C 259.705219 171.292583 259.546587 171.356791 259.40684 171.447438 Q 258.783645 171.866678 257.824301 172.013979 C 257.658115 172.040418 257.499484 172.100849 257.35596 172.183942 Q 256.525032 172.686275 255.350403 172.833576 C 255.248425 172.844907 255.150225 172.867568 255.055801 172.901561 L 248.219533 175.254597 C 248.18554 175.265928 248.155325 175.281036 248.128886 175.29992 Q 247.562344 175.700276 245.802289 176.002432 Q 244.608774 176.210164 242.410593 177.218608 L 238.690303 178.276152 C 238.656311 178.287483 238.626095 178.298814 238.592103 178.317698 L 238.074661 178.544315 C 238.040669 178.559423 238.002899 178.570754 237.968907 178.582085 L 232.307268 180.29304 Q 232.288383 180.296817 232.269499 180.300594 Q 230.505666 180.534764 228.715394 181.191953 Q 227.661627 181.346807 226.588975 181.728279 C 226.554983 181.73961 226.517213 181.75094 226.475667 181.758494 L 220.946221 182.627191 Q 220.273925 182.785823 219.669614 184.122861 Q 219.61296 183.990668 219.488321 184.251277 Q 218.396784 185.354145 217.123954 185.527884 Q 216.391227 185.629862 215.771808 184.919796 C 217.698049 185.739393 219.314581 184.689403 220.051085 182.97467 C 220.15684 182.729169 220.379679 182.559206 220.644065 182.51766 Q 221.762041 182.343921 222.883793 182.117304 Q 230.989115 180.46678 239.982018 177.645402 Q 252.181547 173.815581 263.387739 170.034861 Q 264.932509 169.513642 266.126024 169.321018 Z" style="fill:#cbc4c4;"/>
		<path fill-opacity="0.996" d="M 207.783571 199.313729 Q 210.416101 199.442146 213.029746 199.007797 L 219.333466 198.082446 C 219.39012 198.074892 219.446774 198.059784 219.503428 198.040899 C 221.093522 197.45925 222.475883 197.54612 223.967776 197.009794 C 224.972443 196.650984 226.105526 196.749185 227.11397 196.27329 C 227.227279 196.216635 227.344364 196.178866 227.469003 196.156204 Q 229.327259 195.789841 232.133529 194.909813 Q 235.982234 193.701191 236.220182 193.625652 Q 240.78273 192.156421 246.587893 190.052663 Q 247.743638 189.633422 250.659438 188.617424 Q 252.309963 188.043329 254.719653 187.159524 Q 273.645919 180.221278 277.551279 178.982441 Q 289.611061 175.156396 293.829907 174.234822 Q 296.031865 173.751373 296.783477 173.48321 C 296.987432 173.411448 297.198941 173.366125 297.418004 173.351017 Q 298.864573 173.24904 300.824807 172.701383 C 301.047647 172.637175 301.27804 172.606959 301.508434 172.603182 Q 303.45356 172.561636 305.334478 172.225488 Q 305.995443 172.108403 306.607308 172.316135 C 306.792378 172.380343 306.799932 172.640952 306.618639 172.712714 L 305.474225 173.169724 C 305.334478 173.226378 305.1834 173.256594 305.032322 173.260371 Q 303.680177 173.294363 302.679286 173.690942 C 301.553757 174.129068 300.639737 174.061083 299.529315 174.563416 C 299.374461 174.635178 299.208275 174.684278 299.038313 174.710717 Q 297.897675 174.895787 297.300918 175.179058 C 296.617291 175.503875 296.009204 175.518983 295.280253 175.741823 Q 289.826346 177.422563 283.983414 179.318589 Q 278.049835 181.248607 272.769668 183.15974 Q 261.487936 187.246394 251.671659 190.845821 Q 244.200864 193.587883 237.647867 195.699194 Q 230.887137 197.878491 226.774045 198.796288 Q 223.786483 199.464807 223.514543 199.581892 C 223.352134 199.653654 223.178395 199.698978 223.000878 199.710309 C 221.3428 199.834948 219.650729 200.454367 218.158836 200.533682 C 216.538527 200.620552 214.079737 201.27774 212.361227 201.255079 Q 211.398107 201.243748 208.16882 201.474141 C 205.35122 201.678096 203.111492 201.447703 199.523395 201.281517 Q 197.563161 201.190871 195.840875 200.896269 Q 192.996836 200.405266 192.177239 200.231527 Q 190.047043 199.785847 187.626022 198.924704 Q 185.042592 198.00313 182.780203 196.303505 C 182.625348 196.18642 182.708441 195.940919 182.904842 195.940919 Q 183.852855 195.948472 184.355189 196.477245 C 184.438281 196.567891 184.55159 196.628322 184.672452 196.650984 Q 185.616688 196.8285 185.994382 197.013571 C 187.006603 197.515904 188.162348 197.463027 189.133023 197.957807 C 189.291654 198.040899 189.465394 198.09 189.64291 198.108884 C 191.542713 198.293955 193.586039 198.879381 195.459404 198.898266 Q 197.041943 198.913373 200.724463 199.279737 C 202.809336 199.491246 205.44942 199.291068 207.783571 199.313729 Z" style="fill:#1c1a33;"/>
		<path fill-opacity="0.910" d="M 195.289441 181.550762 L 196.951296 181.46767 L 207.609832 181.698063 C 207.711809 181.70184 207.813787 181.682955 207.908211 181.648963 C 208.57673 181.407239 209.301903 181.664071 210.011968 181.403462 C 210.132831 181.358138 210.1215 181.180622 209.993084 181.154183 Q 209.955314 181.146629 209.81179 181.191953 L 209.81179 181.188176 Q 210.076176 181.188176 210.283908 181.188176 C 210.344339 181.188176 210.397217 181.142852 210.40477 181.082421 C 210.412324 181.02199 210.374555 180.961559 210.314124 180.946451 Q 210.079953 180.878466 209.81179 180.908682 Q 210.212146 180.957782 210.283908 180.942674 C 210.370778 180.92379 210.431209 180.844474 210.427432 180.757604 C 210.423655 180.670734 210.351893 180.598973 210.265024 180.591419 Q 208.988417 180.481887 206.963975 180.704727 Q 203.874435 181.044652 201.053057 180.818035 C 200.928418 180.806704 200.811333 180.753827 200.724463 180.663181 C 199.092824 179.035318 198.647144 177.637849 198.284558 175.367905 C 198.265673 175.25082 198.167472 175.160173 198.050387 175.152619 L 195.712459 174.944888 Q 194.941962 174.922226 194.333874 174.665394 Q 201.800892 175.352797 209.158379 174.688055 Q 214.060852 174.242376 217.535641 173.70605 C 217.705603 173.679611 217.864235 173.789143 217.902004 173.955328 L 219.265481 179.994662 C 219.307027 180.179732 219.174834 180.357248 218.989764 180.368579 Q 217.66028 180.459226 216.172164 181.014436 C 215.839793 181.139076 215.496091 181.225945 215.148612 181.275045 Q 208.950647 182.14752 201.35899 182.049319 Q 197.884202 182.003996 195.289441 181.550762 Z M 216.629174 179.152403 Q 216.447881 178.956002 215.352567 178.551869 C 215.318574 178.540538 215.292136 178.574531 215.307244 178.604746 L 215.881339 179.598082 C 215.937993 179.692506 215.919109 179.813368 215.839793 179.888907 Q 215.465875 180.232609 215.269474 180.610303 C 215.227928 180.689619 215.29969 180.780266 215.386559 180.761381 L 218.664947 180.0211 C 218.899117 179.968223 219.012426 179.70006 218.884009 179.496105 C 218.34013 178.631185 218.147505 176.595412 218.192829 176.036424 Q 218.230598 175.560529 217.580964 174.178168 C 217.512979 174.034644 217.335462 173.981767 217.199493 174.061083 Q 216.874675 174.246153 216.406334 174.280145 C 216.330795 174.283922 216.308134 174.3859 216.376119 174.419892 Q 216.383673 174.423669 216.591405 174.416115 C 216.663166 174.412338 216.719821 174.468993 216.719821 174.540755 L 216.719821 174.650286 C 216.719821 174.797587 216.549858 174.884456 216.432773 174.797587 Q 216.157056 174.597409 216.089071 174.438777 C 216.043748 174.325469 215.926662 174.253707 215.8058 174.268815 L 207.893103 175.197943 C 207.67404 175.224381 207.507855 175.409452 207.507855 175.628514 L 207.507855 176.100632 C 207.507855 176.308364 207.708033 176.459442 207.908211 176.402788 Q 208.365221 176.266818 208.905324 176.365018 C 209.090394 176.399011 209.26791 176.47455 209.418988 176.587858 C 210.756026 177.600079 211.605839 178.102413 213.448987 178.321475 Q 215.107066 178.5141 216.353457 178.702947 C 216.444104 178.714278 216.527197 178.759601 216.591405 178.831363 Q 216.802913 179.06931 216.802913 179.076864 C 216.810467 179.171288 216.693382 179.224165 216.629174 179.152403 Z" style="fill:#cbc4c4;"/>
		<path fill-opacity="0.996" d="M 190.232113 189.742954 Q 195.187464 190.762729 198.903976 191.00823 Q 211.874002 191.869373 225.780709 189.047996 C 225.867579 189.029111 225.954448 188.998896 226.033764 188.961126 C 226.664514 188.651417 227.370802 188.700517 228.167738 188.530555 Q 237.179526 186.585429 245.964697 183.726282 C 251.622559 181.917126 257.650561 180.255271 263.010045 178.578308 Q 271.213567 176.013763 279.432197 173.921336 C 279.945861 173.789143 280.485964 174.030867 280.731466 174.506762 L 280.765458 174.578524 C 280.984521 175.005319 280.769235 175.526537 280.312225 175.673838 Q 278.47663 176.259264 277.347324 176.493435 Q 277.090492 176.546312 276.391757 176.901344 C 276.278449 176.957999 276.161363 177.003322 276.044278 177.041091 Q 262.352857 181.074867 247.23375 185.720508 Q 246.750301 185.871586 246.187537 186.109534 C 245.556787 186.381474 244.895822 186.302158 244.234857 186.615644 C 243.347275 187.034885 242.00646 186.989562 241.167978 187.47301 C 240.64676 187.775166 239.902702 187.78272 239.200191 187.96779 Q 236.065327 188.791164 235.525224 188.980011 Q 234.777389 189.244397 233.621645 189.357705 C 232.938018 189.421913 232.012666 189.882701 231.094869 190.00734 Q 230.324372 190.109317 229.036435 190.558774 C 228.768272 190.653197 228.488778 190.709851 228.20173 190.73629 Q 226.562536 190.868483 225.047982 191.393478 Q 225.021543 191.401032 224.995105 191.408586 L 220.594965 192.152644 C 220.560973 192.156421 220.52698 192.160198 220.492988 192.163975 C 218.139952 192.250844 215.802023 192.82494 213.286579 193.01001 Q 210.178154 193.244181 207.972419 193.342381 Q 199.466741 193.735183 191.501166 192.114874 C 190.519161 191.914696 189.839311 191.586102 188.925291 191.521894 C 188.91396 191.521894 188.906406 191.518117 188.895075 191.51434 L 185.945282 190.419027 C 185.941505 190.41525 185.941505 190.41525 185.937728 190.41525 L 183.165451 189.059327 C 183.093689 189.021557 183.040812 188.961126 183.014373 188.885587 Q 183.010597 188.87048 182.88218 188.704294 Q 182.806642 188.609871 182.723549 188.583432 Q 182.179669 188.413469 182.066361 187.975344 C 182.032368 187.843151 181.922837 187.741173 181.786867 187.718512 Q 181.250541 187.624088 181.141009 186.883807 C 181.125902 186.789384 181.205217 186.710068 181.299641 186.725176 Q 182.224992 186.864922 182.614017 187.329487 C 182.704664 187.435241 182.825526 187.51078 182.961496 187.544772 Q 183.803755 187.748727 184.234326 188.058437 C 184.347635 188.141529 184.483605 188.194407 184.623352 188.217068 Q 185.677119 188.383254 186.625132 188.904472 C 186.666678 188.927134 186.712002 188.942242 186.761102 188.953572 L 190.232113 189.742954 Z" style="fill:#1c1a33;"/>
		<path fill-opacity="0.384" d="M 195.712459 174.944888 L 198.050387 175.152619 C 198.167472 175.160173 198.265673 175.25082 198.284558 175.367905 C 198.647144 177.637849 199.092824 179.035318 200.724463 180.663181 C 200.811333 180.753827 200.928418 180.806704 201.053057 180.818035 Q 203.874435 181.044652 206.963975 180.704727 Q 208.988417 180.481887 210.265024 180.591419 C 210.351893 180.598973 210.423655 180.670734 210.427432 180.757604 C 210.431209 180.844474 210.370778 180.92379 210.283908 180.942674 Q 210.212146 180.957782 209.81179 180.908682 Q 210.079953 180.878466 210.314124 180.946451 C 210.374555 180.961559 210.412324 181.02199 210.40477 181.082421 C 210.397217 181.142852 210.344339 181.188176 210.283908 181.188176 Q 210.076176 181.188176 209.81179 181.188176 L 209.81179 181.191953 Q 209.955314 181.146629 209.993084 181.154183 C 210.1215 181.180622 210.132831 181.358138 210.011968 181.403462 C 209.301903 181.664071 208.57673 181.407239 207.908211 181.648963 C 207.813787 181.682955 207.711809 181.70184 207.609832 181.698063 L 196.951296 181.46767 Q 196.837988 180.723612 195.988176 180.315702 C 195.882421 180.266601 195.814436 180.15707 195.810659 180.039985 L 195.712459 174.944888 Z" style="fill:#f6fcef;"/>
		<path fill-opacity="0.384" d="M 242.410593 177.218608 Q 241.14154 179.193949 239.000013 179.805814 Q 236.393921 180.549872 234.856705 181.10886 C 232.32993 182.026657 230.135525 182.755607 228.307484 182.978447 Q 227.491665 183.076648 225.803371 182.800931 C 225.795817 182.800931 225.79204 182.793377 225.795817 182.7896 Q 225.799594 182.785823 225.803371 182.774492 C 225.810925 182.755607 225.826032 182.744277 225.844917 182.748054 Q 226.513436 182.891577 226.528544 182.411906 C 226.532321 182.313705 226.653183 182.268382 226.717391 182.343921 Q 226.868469 182.51766 226.940231 182.751831 L 228.715394 181.191953 Q 230.505666 180.534764 232.269499 180.300594 Q 232.288383 180.296817 232.307268 180.29304 L 237.968907 178.582085 C 238.002899 178.570754 238.040669 178.559423 238.074661 178.544315 L 238.592103 178.317698 C 238.626095 178.298814 238.656311 178.287483 238.690303 178.276152 L 242.410593 177.218608 Z" style="fill:#f6fcef;"/>
		<path fill-opacity="0.384" d="M 226.940231 182.751831 Q 227.008216 182.706507 227.068647 182.672515 Q 227.008216 182.706507 226.940231 182.751831 Z" style="fill:#f6fcef;"/>
		<path fill-opacity="0.910" d="M 215.692492 184.814042 L 213.373448 185.342814 C 213.252586 185.369253 213.150609 185.456122 213.105285 185.576985 Q 212.712483 186.615644 211.416991 186.479674 Q 207.190591 186.033995 202.140817 186.067987 Q 200.811333 186.079318 199.59138 186.271942 C 199.474295 186.290827 199.360987 186.271942 199.259009 186.222842 L 198.163695 185.682739 C 198.039056 185.622308 197.944633 185.516553 197.895532 185.388137 Q 197.767116 185.085982 197.816217 184.443901 C 197.827547 184.326816 197.748232 184.217285 197.631146 184.194623 Q 197.351652 184.137969 196.14303 184.077538 Q 195.391419 184.039768 194.673799 183.92646 Q 192.543603 183.590312 190.383191 183.152187 L 189.382301 182.672515 C 191.474728 183.050209 193.631363 183.488335 195.674689 183.680959 Q 205.17748 184.583648 214.684048 183.46945 C 214.808687 183.454342 214.929549 183.514773 214.993757 183.624305 L 215.692492 184.814042 Z M 199.209909 185.565654 Q 198.564051 184.802711 199.157032 184.319262 C 199.206132 184.277716 199.179693 184.194623 199.111708 184.194623 L 198.261896 184.194623 C 198.171249 184.194623 198.09571 184.270162 198.09571 184.360809 L 198.09571 185.214398 C 198.09571 185.369253 198.167472 185.512777 198.292111 185.599646 Q 199.247678 186.28705 200.512954 186.026441 C 200.648924 186.000002 200.667809 185.814932 200.539393 185.758278 Q 200.535616 185.754501 199.595157 185.746947 C 199.447856 185.74317 199.304332 185.678962 199.209909 185.565654 Z" style="fill:#cbc4c4;"/>
		<path fill-opacity="0.384" d="M 220.946221 182.627191 Q 221.376792 183.665851 220.829136 184.715841 C 220.825359 184.719618 220.817805 184.719618 220.814028 184.715841 Q 220.764928 184.674295 220.734712 184.670518 C 220.715827 184.666741 220.696943 184.651633 220.693166 184.632749 C 220.689389 184.613864 220.700719 184.598756 220.719604 184.594979 Q 220.74982 184.591202 220.79892 184.523217 C 220.836689 184.474117 220.806474 184.402355 220.746043 184.387247 L 219.669614 184.122861 Q 220.273925 182.785823 220.946221 182.627191 Z" style="fill:#f6fcef;"/>
		<path fill-opacity="0.384" d="M 215.692492 184.814042 Q 215.824685 184.889581 215.771808 184.919796 Q 216.391227 185.629862 217.123954 185.527884 Q 218.396784 185.354145 219.488321 184.251277 Q 220.081301 186.55899 219.446774 188.949795 C 219.431666 189.010227 219.375012 189.047996 219.310804 189.040442 C 219.250373 189.032888 219.20505 188.980011 219.20505 188.91958 L 219.239042 186.128418 C 219.239042 186.075541 219.208827 186.026441 219.163503 186.000002 L 219.140842 185.988671 C 219.080411 185.977341 219.023756 186.01511 219.008649 186.075541 Q 218.774478 187.031108 218.687608 187.778943 Q 218.687608 187.794051 218.698939 187.812935 C 218.702716 187.824266 218.717824 187.812935 218.721601 187.797828 Q 218.834909 187.284163 218.970879 186.540105 C 218.978433 186.491005 219.027533 186.457012 219.076634 186.464566 L 219.080411 186.464566 C 219.129511 186.47212 219.16728 186.517444 219.159726 186.566544 L 218.74804 189.773169 Q 217.94355 189.848708 215.873785 190.267949 Q 213.958875 190.656974 210.136607 190.645643 Q 202.733797 190.630535 198.144811 190.619205 Q 197.166582 190.615428 194.983509 190.32838 C 194.892862 190.317049 194.805992 190.27928 194.738007 190.218849 Q 194.447183 189.96957 194.175243 190.113094 C 194.122365 190.139533 194.065711 190.150864 194.00528 190.14331 L 190.311429 189.731623 C 189.718449 188.387031 190.118805 187.295494 190.511607 185.622308 Q 190.689123 184.855588 190.383191 183.152187 Q 192.543603 183.590312 194.673799 183.92646 Q 195.391419 184.039768 196.14303 184.077538 Q 197.351652 184.137969 197.631146 184.194623 C 197.748232 184.217285 197.827547 184.326816 197.816217 184.443901 Q 197.767116 185.085982 197.895532 185.388137 C 197.944633 185.516553 198.039056 185.622308 198.163695 185.682739 L 199.259009 186.222842 C 199.360987 186.271942 199.474295 186.290827 199.59138 186.271942 Q 200.811333 186.079318 202.140817 186.067987 Q 207.190591 186.033995 211.416991 186.479674 Q 212.712483 186.615644 213.105285 185.576985 C 213.150609 185.456122 213.252586 185.369253 213.373448 185.342814 L 215.692492 184.814042 Z M 198.779337 190.05644 Q 198.243011 189.962016 196.362093 190.082879 C 196.335655 190.082879 196.312993 190.109317 196.312993 190.135756 C 196.312993 190.162194 196.335655 190.184856 196.362093 190.188633 Q 198.295888 190.32838 198.779337 190.237733 C 198.881315 190.218849 198.881315 190.075325 198.779337 190.05644 Z" style="fill:#f6fcef;"/>
		<path fill-opacity="0.910" d="M 245.964697 183.726282 Q 237.179526 186.585429 228.167738 188.530555 C 227.370802 188.700517 226.664514 188.651417 226.033764 188.961126 C 225.954448 188.998896 225.867579 189.029111 225.780709 189.047996 Q 211.874002 191.869373 198.903976 191.00823 Q 195.187464 190.762729 190.232113 189.742954 Q 190.269883 189.7354 190.311429 189.731623 L 194.00528 190.14331 C 194.065711 190.150864 194.122365 190.139533 194.175243 190.113094 Q 194.447183 189.96957 194.738007 190.218849 C 194.805992 190.27928 194.892862 190.317049 194.983509 190.32838 Q 197.166582 190.615428 198.144811 190.619205 Q 202.733797 190.630535 210.136607 190.645643 Q 213.958875 190.656974 215.873785 190.267949 Q 217.94355 189.848708 218.74804 189.773169 Q 220.746043 189.943132 221.493878 189.712738 Q 223.083971 189.229289 224.772265 189.123535 C 224.896904 189.115981 225.021543 189.089542 225.142405 189.044219 Q 226.709837 188.481454 227.941121 188.371923 C 228.987334 188.281276 229.712508 187.820489 230.800267 187.684519 C 231.974897 187.537218 233.096649 186.902692 234.41858 186.808268 C 234.588542 186.796937 234.758505 186.766722 234.920913 186.717622 C 236.09932 186.366366 237.383481 186.139749 238.475017 185.754501 Q 242.146207 184.466563 245.964697 183.726282 Z" style="fill:#cbc4c4;"/>
		<path fill-opacity="0.384" d="M 192.940182 193.527451 C 192.940182 193.591659 192.887305 193.644537 192.823097 193.644537 C 192.758889 193.644537 192.706011 193.591659 192.706011 193.527451 C 192.706011 193.463243 192.758889 193.410366 192.823097 193.410366 C 192.887305 193.410366 192.940182 193.463243 192.940182 193.527451 Z" style="fill:#f6fcef;"/>
		<path fill-opacity="0.996" d="M 213.029746 199.007797 Q 210.416101 199.442146 207.783571 199.313729 Q 210.400994 198.864273 213.029746 199.007797 Z" style="fill:#a6581a;"/>
		<path d="M 221.067083 127.619781 C 220.923559 127.585788 220.844243 127.438487 220.893344 127.29874 Q 223.865798 118.913925 227.918459 110.982343 C 228.054429 110.71418 228.349031 110.563102 228.647409 110.608425 Q 236.832047 111.820824 244.121548 111.832155 C 244.242411 111.832155 244.344388 111.934133 244.344388 112.058772 L 244.32928 129.085235 C 244.32928 129.168328 244.265072 129.232536 244.178203 129.232536 Q 233.655637 129.055019 222.423006 127.823736 Q 221.433447 127.717981 221.067083 127.619781 Z" style="fill:#ffd920;"/>
		<path d="M 268.645245 127.634888 Q 268.278882 127.729312 267.289322 127.835067 Q 256.071799 129.058796 245.564341 129.228759 C 245.481248 129.228759 245.413263 129.164551 245.413263 129.081458 L 245.413263 112.077657 C 245.413263 111.953018 245.511464 111.854817 245.636103 111.854817 Q 252.914274 111.847263 261.08758 110.642418 C 261.385959 110.597095 261.676784 110.748172 261.812754 111.016335 Q 265.854084 118.940364 268.818985 127.313848 C 268.868085 127.449818 268.784992 127.600896 268.645245 127.634888 Z" style="fill:#ffd920;"/>
		<path fill-opacity="0.910" d="M 275.738346 163.67071 Q 276.682582 163.293016 277.528617 163.315677 C 277.781672 163.323231 277.966743 163.07773 277.891204 162.836005 L 277.400201 161.257243 C 277.38887 161.22325 277.381316 161.189258 277.373762 161.155265 L 276.195356 156.075276 C 276.168917 155.965745 276.055609 155.89776 275.946078 155.927975 Q 275.168027 156.143261 274.363538 156.097938 L 276.006509 155.652258 C 276.20291 155.599381 276.406865 155.720243 276.452188 155.920421 L 278.091382 163.179707 C 278.098936 163.2137 278.098936 163.247692 278.095159 163.281685 Q 278.01962 163.651825 277.528617 163.481863 C 277.42664 163.444093 277.313331 163.44787 277.215131 163.489417 Q 276.478627 163.799126 275.738346 163.67071 Z" style="fill:#cbc4c4;"/>
		<path fill-opacity="0.910" d="M 249.246861 164.611169 Q 247.849392 165.325011 246.376384 165.850007 C 245.239524 166.25414 244.499243 166.699819 243.381267 166.888666 C 242.939365 166.960428 242.342608 167.383446 241.753405 167.4892 Q 240.986685 167.62517 240.41259 167.995311 C 240.344605 168.036857 240.272843 168.07085 240.197304 168.093511 L 234.868036 169.728928 C 234.803828 169.747813 234.73962 169.762921 234.675412 169.770474 Q 233.731176 169.861121 233.119311 170.102845 C 232.065544 170.525863 231.313932 170.491871 230.301711 170.93755 Q 229.806931 171.156613 228.934457 171.326575 Q 227.623858 171.575854 226.290596 172.051749 Q 225.176398 172.108403 224.07353 172.629621 C 223.892237 172.712714 223.699613 172.765591 223.503212 172.780699 Q 222.339913 172.871345 221.210607 173.139508 Q 220.723381 173.256594 220.802697 173.777812 Q 220.383456 173.630511 220.379679 173.407671 Q 220.375902 173.067746 220.708273 172.992208 Q 230.51322 170.846903 239.91781 167.715817 Q 244.555897 166.171047 249.246861 164.611169 Z" style="fill:#cbc4c4;"/>
		<path fill-opacity="0.996" d="M 250.76897 171.791139 L 247.026018 173.105516 Q 247.101557 173.237709 246.924041 173.048862 L 250.76897 171.791139 Z" style="fill:#a6581a;"/>
		<path fill-opacity="0.384" d="M 226.290596 172.051749 L 224.692949 175.496321 C 224.651403 175.586968 224.628741 175.681392 224.628741 175.779592 Q 224.628741 176.145956 224.628741 176.187502 L 224.628741 176.183725 Q 225.195283 174.763594 225.894017 173.411448 C 225.912902 173.373679 225.962002 173.358571 225.999772 173.377456 L 226.082865 173.419002 C 226.086641 173.419002 226.086641 173.426556 226.086641 173.426556 L 224.915789 175.821139 C 224.844027 175.968439 224.904458 176.142179 225.051759 176.213941 Q 225.844917 176.599189 226.951562 176.663397 Q 226.962892 176.667174 226.974223 176.667174 C 226.974223 176.667174 226.978 176.667174 226.978 176.663397 C 226.978 176.663397 226.974223 176.65962 226.974223 176.65962 C 225.973333 176.444334 225.637185 175.511429 225.837363 174.52187 C 225.848694 174.468993 225.894017 174.431223 225.950671 174.435 C 226.003549 174.435 226.045095 174.476547 226.052649 174.529424 C 226.147073 175.322582 226.419013 175.923116 227.072424 176.383903 Q 228.307484 177.260154 229.655853 177.577417 C 229.856031 177.622741 230.029771 177.433894 229.965563 177.237492 Q 229.78427 176.693613 229.863585 175.998655 C 229.886247 175.824915 230.037325 175.700276 230.211064 175.715384 Q 232.095759 175.870239 233.591429 177.033538 L 225.6183 179.141072 C 225.542762 179.159957 225.467223 179.171288 225.387907 179.175065 Q 223.423896 179.254381 222.25682 179.752937 C 222.222828 179.768045 222.188835 179.779376 222.151066 179.783153 L 220.61385 180.047539 C 220.402341 180.085308 220.20594 179.938007 220.179501 179.726499 L 219.832022 176.769151 Q 220.670504 176.848467 220.644065 176.652066 Q 220.632734 176.976883 220.851797 177.097746 Q 221.055752 177.211054 221.331469 177.044868 Q 222.060419 176.606743 222.037758 175.855131 Q 221.996211 174.419892 220.897121 173.94022 Q 220.840466 173.902451 220.802697 173.777812 Q 220.723381 173.256594 221.210607 173.139508 Q 222.339913 172.871345 223.503212 172.780699 C 223.699613 172.765591 223.892237 172.712714 224.07353 172.629621 Q 225.176398 172.108403 226.290596 172.051749 Z" style="fill:#f6fcef;"/>
		<path fill-opacity="0.910" d="M 246.924041 173.048862 Q 247.101557 173.237709 247.026018 173.105516 Q 242.210415 174.710717 237.330603 176.195056 Q 232.696293 177.603856 232.065544 177.762488 Q 225.093305 179.522544 220.610073 180.459226 C 220.349464 180.512103 220.096408 180.349694 220.035977 180.089085 L 218.732932 174.325469 C 218.649839 173.959105 219.076634 173.694719 219.367458 173.92889 L 220.655396 174.963772 C 220.859351 175.129958 220.980213 175.379236 220.980213 175.643622 L 220.980213 176.640735 C 220.980213 176.689836 221.002875 176.735159 221.040644 176.769151 Q 221.214384 176.916452 221.240822 176.772928 Q 221.610963 176.833359 221.626071 176.217718 Q 221.724271 175.137512 220.897121 173.94022 Q 221.996211 174.419892 222.037758 175.855131 Q 222.060419 176.606743 221.331469 177.044868 Q 221.055752 177.211054 220.851797 177.097746 Q 220.632734 176.976883 220.644065 176.652066 Q 220.84802 176.02887 220.708273 175.488767 C 220.678058 175.371682 220.606296 175.265928 220.511872 175.190389 L 219.499651 174.374569 C 219.412782 174.306584 219.284366 174.382123 219.310804 174.491654 L 219.832022 176.769151 L 220.179501 179.726499 C 220.20594 179.938007 220.402341 180.085308 220.61385 180.047539 L 222.151066 179.783153 C 222.188835 179.779376 222.222828 179.768045 222.25682 179.752937 Q 223.423896 179.254381 225.387907 179.175065 C 225.467223 179.171288 225.542762 179.159957 225.6183 179.141072 L 233.591429 177.033538 L 243.199974 174.151729 Q 243.362383 174.208383 243.490799 174.068637 L 246.924041 173.048862 Z" style="fill:#cbc4c4;"/>
		<path fill-opacity="0.384" d="M 216.802913 179.076864 Q 216.802913 179.06931 216.591405 178.831363 C 216.527197 178.759601 216.444104 178.714278 216.353457 178.702947 Q 215.107066 178.5141 213.448987 178.321475 C 211.605839 178.102413 210.756026 177.600079 209.418988 176.587858 C 209.26791 176.47455 209.090394 176.399011 208.905324 176.365018 Q 208.365221 176.266818 207.908211 176.402788 C 207.708033 176.459442 207.507855 176.308364 207.507855 176.100632 L 207.507855 175.628514 C 207.507855 175.409452 207.67404 175.224381 207.893103 175.197943 L 215.8058 174.268815 C 215.926662 174.253707 216.043748 174.325469 216.089071 174.438777 Q 216.157056 174.597409 216.432773 174.797587 C 216.549858 174.884456 216.719821 174.797587 216.719821 174.650286 L 216.719821 174.540755 C 216.719821 174.468993 216.663166 174.412338 216.591405 174.416115 Q 216.383673 174.423669 216.376119 174.419892 C 216.308134 174.3859 216.330795 174.283922 216.406334 174.280145 Q 216.874675 174.246153 217.199493 174.061083 C 217.335462 173.981767 217.512979 174.034644 217.580964 174.178168 Q 218.230598 175.560529 218.192829 176.036424 C 218.147505 176.595412 218.34013 178.631185 218.884009 179.496105 C 219.012426 179.70006 218.899117 179.968223 218.664947 180.0211 L 215.386559 180.761381 C 215.29969 180.780266 215.227928 180.689619 215.269474 180.610303 Q 215.465875 180.232609 215.839793 179.888907 C 215.919109 179.813368 215.937993 179.692506 215.881339 179.598082 L 215.307244 178.604746 C 215.292136 178.574531 215.318574 178.540538 215.352567 178.551869 Q 216.447881 178.956002 216.629174 179.152403 C 216.693382 179.224165 216.810467 179.171288 216.802913 179.076864 Z" style="fill:#f6fcef;"/>
		<path fill-opacity="0.996" d="M 243.490799 174.068637 Q 243.362383 174.208383 243.199974 174.151729 Q 243.332167 174.068637 243.490799 174.068637 Z" style="fill:#a6581a;"/>
		<path fill-opacity="0.384" d="M 221.626071 176.217718 Q 221.610963 176.833359 221.240822 176.772928 Q 221.482547 176.565196 221.626071 176.217718 Z" style="fill:#f6fcef;"/>
		<path fill-opacity="0.384" d="M 199.595157 185.746947 Q 200.535616 185.754501 200.539393 185.758278 C 200.667809 185.814932 200.648924 186.000002 200.512954 186.026441 Q 199.247678 186.28705 198.292111 185.599646 C 198.167472 185.512777 198.09571 185.369253 198.09571 185.214398 L 198.09571 184.360809 C 198.09571 184.270162 198.171249 184.194623 198.261896 184.194623 L 199.111708 184.194623 C 199.179693 184.194623 199.206132 184.277716 199.157032 184.319262 Q 198.564051 184.802711 199.209909 185.565654 C 199.304332 185.678962 199.447856 185.74317 199.595157 185.746947 Z" style="fill:#f6fcef;"/>
		<path fill-opacity="0.384" d="M 226.186164 173.730336 C 226.207504 173.736266 226.207504 173.781589 226.190243 173.831973 C 226.173511 173.879789 226.143296 173.913782 226.123089 173.908381 C 226.101749 173.902451 226.101749 173.857128 226.11901 173.806743 C 226.135742 173.758927 226.165957 173.724935 226.186164 173.730336 Z" style="fill:#f6fcef;"/>
	</g>
	<g id="surface4">
	</g>
</svg>
