<?xml version="1.0" encoding="utf-8"?>
<svg xmlns="http://www.w3.org/2000/svg" width="490pt" height="280pt" viewBox="0 0 490 280" version="1.1" xmlns:xlink="http://www.w3.org/1999/xlink">
	<g id="surface2" data-size="179.049477318 148" data-bboxpos="155.5 54.999997560886" data-pivot="245.024738659 128.99999756089" data-center="245.024738659 128.99999756089">
		<path d="M 300.621661 75.622132 C 299.915161 76.648132 298.362661 76.630132 297.359162 76.976632 Q 288.615664 79.964631 288.116164 80.135631 Q 283.580165 81.69263 278.220667 83.70413 C 278.117167 83.74463 278.013667 83.77163 277.910167 83.78963 Q 276.942667 83.97413 276.366667 84.30713 C 275.183168 84.99563 272.609168 84.78413 272.613668 86.791129 Q 272.627168 91.921128 272.078168 97.384126 C 271.889168 99.260626 269.072169 99.170626 267.72217 99.526126 Q 265.74667 100.048125 257.885172 102.176625 Q 257.268672 102.343125 256.710673 102.491625 Q 252.665174 103.576125 248.030175 105.061124 Q 246.747675 105.475124 246.050175 105.565124 C 244.313176 105.790124 243.026176 104.872124 241.860677 104.678624 Q 240.659177 104.480624 238.647677 103.877624 Q 236.595678 103.265625 225.395181 100.363125 Q 221.921182 99.467626 219.909683 99.080626 C 219.225683 98.945626 218.708183 98.374126 218.654183 97.676626 L 217.745183 86.273629 C 217.727183 86.057629 217.637183 85.850629 217.484183 85.693129 Q 217.137683 85.337629 215.436684 84.74363 Q 202.733187 80.329131 192.92319 76.940632 C 191.90619 76.589632 190.75419 76.468132 189.854191 75.685132 C 189.408691 75.298132 189.548191 74.573632 190.106191 74.380132 Q 193.41369 73.232633 198.980188 71.248133 Q 235.943178 58.099137 244.691176 55.124638 Q 245.636176 54.805138 247.026675 55.304638 Q 280.844166 67.445634 294.479162 72.310133 Q 298.416661 73.718633 300.009661 74.177632 C 300.671161 74.366632 300.981661 75.104632 300.621661 75.622132 Z" style="fill:#4581a6;"/>
		<path d="M 292.544163 91.151628 C 292.746663 90.845628 293.223663 90.967128 293.259663 91.331628 Q 293.399163 92.722127 293.286663 94.805627 Q 292.976163 100.619625 292.773663 106.433624 C 292.701663 108.373123 292.413663 110.128123 292.373163 112.022622 C 292.314663 114.673121 291.720663 117.184121 291.500163 120.26662 Q 291.257163 123.655119 291.041163 126.845618 Q 290.676663 132.191617 291.099663 135.080616 C 291.378663 136.975115 291.977163 138.401615 293.948162 138.793115 Q 297.062162 139.414115 301.080661 139.585115 C 301.50366 139.603115 301.89966 139.391615 302.12016 139.031615 Q 303.02916 137.528615 303.12816 135.953616 Q 303.49716 130.252117 303.06066 126.733118 C 302.88516 125.302119 302.13366 122.809119 301.40466 120.93712 Q 300.207661 117.863621 299.114161 114.772121 C 298.709161 113.624622 298.592161 112.571622 298.133161 111.473622 Q 298.056661 111.293622 297.836161 110.137123 Q 296.139662 101.209125 297.287162 92.537627 Q 297.413162 91.579128 297.818161 90.872628 C 297.962161 90.629628 298.259161 90.521628 298.520161 90.620628 Q 306.350159 93.554627 312.726657 97.384126 Q 314.450157 98.419126 318.009656 101.254125 Q 320.570155 103.301625 322.658155 105.560624 Q 331.815652 115.469621 334.056652 128.677118 Q 334.826151 133.222116 334.394152 137.164115 Q 333.863152 141.965614 332.823652 145.507113 Q 329.831153 155.68611 322.356655 163.930108 Q 315.606657 171.373106 306.584159 176.453605 C 306.111659 176.719105 305.832659 177.236605 305.877659 177.781104 L 306.336659 183.550103 C 306.377159 184.022603 305.963159 184.409603 305.495159 184.337603 Q 304.41966 184.175603 302.95716 183.518603 Q 301.99866 183.091103 300.554161 182.663603 Q 299.181661 182.263103 297.102662 181.709603 Q 295.127162 181.187603 293.772663 180.962604 C 291.306663 180.553104 290.285163 180.260604 288.107164 180.157104 Q 287.657164 180.134604 285.821165 179.945604 Q 281.676666 179.509104 277.023667 179.968104 Q 272.037668 180.463104 271.115169 180.616104 Q 259.590672 182.551103 249.276675 187.699102 Q 248.147175 188.266102 247.481175 187.388602 C 247.080675 186.862102 247.143675 185.593102 247.067175 184.544603 Q 246.954675 183.005603 247.157175 169.708107 C 247.431675 151.321112 247.454175 129.163118 247.328175 118.85362 Q 247.310175 117.341621 248.475675 116.819621 Q 252.354674 115.078121 256.170673 113.615622 Q 262.794671 111.086622 270.881169 110.213623 Q 278.499667 109.394623 285.083165 110.722123 C 286.986664 111.104622 286.946164 109.165123 287.004664 107.783623 C 287.009164 107.630623 287.036164 107.477623 287.076664 107.329123 C 287.634664 105.367124 287.769664 103.585125 288.269164 101.884125 C 289.353664 98.144626 290.415663 94.346627 292.544163 91.151628 Z" style="fill:#4581a6;"/>
		<path d="M 245.793676 184.198103 L 245.420176 186.691102 C 245.307676 187.429102 244.587676 187.915102 243.863176 187.730602 Q 243.287176 187.582102 241.676177 186.781102 Q 229.11668 180.526104 215.306184 179.806104 Q 209.820685 179.518104 204.056187 180.152604 Q 196.892189 180.935604 189.935191 182.933603 C 189.786691 182.974103 189.647191 183.032603 189.512191 183.100103 Q 188.036191 183.833603 186.605192 183.824603 C 186.150692 183.820103 185.781692 183.451103 185.777192 182.996603 Q 185.777192 180.764604 185.957192 178.618104 Q 186.047192 177.556104 185.043692 177.020605 Q 176.754694 172.570106 170.837196 167.161107 Q 166.004197 162.746608 162.071198 156.48711 Q 154.7452 144.823113 155.5867 131.084617 Q 155.7037 129.212618 155.9917 127.835618 C 156.3157 126.278618 156.4912 125.090619 156.9322 123.596619 Q 161.868698 106.811624 177.033694 97.789126 Q 182.033193 94.814627 187.856191 94.000127 C 191.43369 93.496127 194.646689 94.184627 197.972188 94.927127 Q 198.669688 95.080127 200.060188 95.714627 C 200.258188 95.804627 200.406688 95.971127 200.474188 96.178127 C 201.270688 98.662126 201.338188 101.267625 201.905187 103.585125 Q 202.260687 105.043124 202.836687 109.628623 C 202.890687 110.056123 203.192187 110.407123 203.601687 110.524123 Q 204.668187 110.834623 205.743686 110.654623 C 212.273185 109.565623 218.919683 109.772623 225.737181 110.947123 C 232.199179 112.063122 238.310178 114.529122 244.124176 117.188621 C 244.628176 117.413621 244.961176 117.904121 244.992676 118.45762 Q 245.105176 120.65812 245.105176 122.00812 Q 245.096176 135.193116 245.154676 157.63461 C 245.172676 163.534108 245.649676 170.486606 245.573176 176.683105 Q 245.541676 179.144604 245.838676 182.942603 C 245.870176 183.361103 245.856676 183.784103 245.793676 184.198103 Z" style="fill:#4581a6;"/>
		<path d="M 301.87716 193.6436 Q 301.76916 194.0036 301.58916 194.0576 Q 300.819661 194.3006 299.244661 194.1386 Q 287.580664 192.9596 276.866167 194.1791 Q 264.97717 195.5336 254.253673 200.020098 Q 253.308673 200.416098 248.012175 202.643598 C 245.118676 203.867597 242.882176 201.635598 240.348677 200.537598 Q 234.620179 198.049099 230.11118 196.667599 C 218.910683 193.2251 207.620186 193.0001 195.128189 193.9766 C 193.83219 194.0801 192.05919 194.5211 190.78569 194.4311 Q 190.218691 194.3906 189.971191 194.1251 C 189.620191 193.7426 189.768691 193.1216 190.263691 192.9146 Q 193.71069 191.474601 198.116188 190.309101 Q 202.044687 189.269601 206.261186 188.900601 C 214.617684 188.176102 223.064182 188.981601 230.93468 191.623101 Q 234.287179 192.7481 234.417679 192.7976 Q 238.589177 194.3636 243.332176 197.027599 C 244.655176 197.770099 246.342675 198.413599 247.620675 197.752099 Q 252.908174 195.0251 256.287673 193.7156 Q 262.853171 191.168601 269.396169 189.850101 Q 273.351668 189.053601 276.911167 188.851101 C 282.684666 188.527101 288.507664 188.788101 293.493663 190.111101 Q 297.602161 191.204601 301.55766 192.9416 C 301.82316 193.0586 301.96266 193.3601 301.87716 193.6436 Z" style="fill:#4581a6;"/>
	</g>
	<g id="surface4">
	</g>
</svg>
