<?xml version="1.0" encoding="utf-8"?>
<svg xmlns="http://www.w3.org/2000/svg" width="490pt" height="280pt" viewBox="0 0 490 280" version="1.1" xmlns:xlink="http://www.w3.org/1999/xlink">
	<g id="surface2" data-size="93.167489494984 148" data-bboxpos="198.5 54.007638918808" data-pivot="245.08374474749 128.00763891881" data-center="245.08374474749 128.00763891881">
		<path d="M 220.585681 148.428527 C 221.26633 148.428527 221.746788 148.904981 221.806846 149.593638 C 222.435445 156.896605 226.407234 162.225689 233.085605 164.832175 Q 235.792187 165.893187 237.830131 166.18947 Q 243.031093 166.942188 244.928903 166.806058 Q 245.649591 166.758012 248.648451 166.521787 Q 250.886586 166.349623 252.339973 166.005294 Q 254.874391 165.408725 257.264671 164.443805 C 258.738076 163.847236 261.13236 162.433887 262.273449 161.224734 Q 265.252291 158.077732 265.968974 154.646459 Q 266.277268 153.173053 265.976982 149.209272 C 265.96497 149.077146 265.940948 148.949023 265.896906 148.824905 Q 264.279362 144.088387 259.867153 141.561977 Q 257.789171 140.368838 255.370864 139.556063 C 254.421959 139.235757 253.665237 139.187712 252.656275 138.907444 Q 250.181914 138.21078 246.314225 137.337947 Q 242.778852 136.541187 240.220411 136.012683 Q 231.59218 134.234987 225.38626 131.888749 Q 225.30218 131.860722 222.739736 130.74766 C 215.801116 127.736788 209.218837 122.439735 205.603388 115.745349 Q 203.209104 111.309117 202.18813 106.508537 Q 201.351332 102.54876 201.57955 97.251707 Q 201.787748 92.483158 203.353242 88.147021 Q 207.313019 77.184563 217.863083 71.078739 Q 222.415426 68.448229 227.232021 67.171011 Q 231.343944 66.081972 233.722212 65.849751 Q 235.099526 65.713621 235.083511 64.332303 Q 235.047477 60.332487 234.93537 55.824187 Q 234.895331 54.074518 236.689043 54.050495 Q 242.614695 53.98243 252.027675 54.022468 Q 252.856466 54.026472 253.433016 54.510934 C 253.541119 54.599018 253.601176 54.72714 253.601176 54.86327 Q 253.641214 58.530769 253.609184 64.44441 C 253.60518 65.249178 253.933493 65.697605 254.70623 65.785689 Q 261.108337 66.514385 267.334277 69.044798 Q 268.223125 69.405142 271.246008 71.126785 C 281.679962 77.080464 287.389408 88.163036 287.445462 100.146468 C 287.449466 101.227499 286.576633 101.383648 285.627728 101.379644 Q 270.233042 101.339606 266.061062 101.435698 C 264.919974 101.463725 264.567637 100.911198 264.463538 99.806143 Q 263.951049 94.320911 259.883169 90.789542 Q 258.525874 89.608415 256.531972 88.671521 Q 254.09765 87.526429 252.820431 87.274188 C 251.054747 86.921852 249.46523 86.413367 247.707554 86.381337 Q 244.284288 86.321279 240.820984 86.385341 C 240.244434 86.397352 239.675892 86.469421 239.115357 86.609554 Q 238.014307 86.873807 235.76416 87.394303 Q 234.010487 87.794685 231.752333 89.228052 Q 228.681404 91.173909 227.572346 94.196792 Q 226.303135 97.676111 227.224013 100.743037 Q 228.401136 104.662776 231.436031 106.700721 Q 235.567973 109.471364 241.39353 110.912739 Q 246.566465 112.193961 252.748362 113.202923 C 255.631112 113.67137 258.694034 114.360027 262.137319 115.172802 Q 265.400432 115.949543 269.468313 117.543064 C 275.770324 120.009416 281.067377 123.785018 285.207327 129.118106 C 289.022967 134.0388 290.964819 140.280754 291.649472 146.810984 Q 291.685507 147.171328 291.649472 150.882868 Q 291.629453 153.14903 291.305144 154.906707 Q 290.612483 158.698324 290.003903 160.756287 Q 289.479402 162.521971 288.298275 165.244569 Q 287.393412 167.322551 286.02811 169.48061 Q 280.134488 178.797498 270.13695 183.710184 Q 268.15506 184.687116 265.364398 185.648033 Q 262.701858 186.568911 260.431692 187.073392 Q 259.650947 187.245557 257.100514 187.786072 Q 256.095556 187.998275 255.967433 188.006282 C 254.954467 188.042317 254.053608 188.074347 253.589165 189.059287 C 253.541119 189.159382 253.517096 189.271489 253.5211 189.383596 Q 253.721291 196.994857 253.577153 200.942623 Q 253.549126 201.687333 252.70432 201.983616 C 252.656275 201.999631 252.608229 202.007639 252.556179 202.007639 L 236.348718 202.007639 C 236.236611 202.007639 236.1205 201.98762 236.012397 201.947582 Q 235.167591 201.647295 235.159584 200.674367 Q 235.115542 195.56149 235.243664 190.040223 Q 235.267687 188.999229 234.683129 188.274538 C 234.599049 188.170439 234.478934 188.102374 234.350812 188.082355 C 233.658151 187.970248 232.761296 188.038313 231.920494 187.830114 Q 229.922588 187.329637 228.70943 187.209522 C 228.493224 187.189503 228.281022 187.141457 228.072823 187.069389 C 226.671486 186.584926 225.294172 186.412762 223.964904 185.924296 Q 219.416565 184.242692 215.468799 181.75632 C 207.621313 176.815607 202.86878 169.989095 200.110148 161.192703 C 199.569632 159.467057 199.337411 157.769438 198.985075 156.155898 C 198.732834 155.01481 198.78088 154.057897 198.752853 152.940831 C 198.720823 151.771716 198.448563 150.606605 198.50862 149.517566 C 198.540651 148.961035 198.965056 148.504599 199.517583 148.440538 Q 199.853904 148.4005 200.682694 148.4005 Q 208.546196 148.396496 220.585681 148.428527 Z" style="fill:#208d36;"/>
	</g>
	<g id="surface4">
	</g>
</svg>
