<?xml version="1.0" encoding="utf-8"?>
<svg xmlns="http://www.w3.org/2000/svg" width="490pt" height="280pt" viewBox="0 0 490 280" version="1.1" xmlns:xlink="http://www.w3.org/1999/xlink">
	<g id="surface2" data-size="107.97230970939 148" data-bboxpos="191 50.719324422831" data-pivot="244.9861548547 124.71932442283" data-center="244.9861548547 124.71932442283">
		<path d="M 216.854196 100.334866 C 216.634747 100.330146 216.54744 100.049347 216.724414 99.919565 Q 218.409213 98.687821 219.961871 97.036058 C 221.311598 95.599024 221.955786 94.329525 221.464976 92.500787 Q 221.273843 91.795248 220.686287 90.853743 Q 219.865125 89.539411 219.032164 88.597906 C 218.914181 88.465765 219.003848 88.253395 219.180823 88.248676 C 219.973669 88.225079 220.466839 88.392615 221.545204 88.595546 Q 222.375805 88.751284 223.095502 88.996689 Q 225.28055 89.744702 227.059735 90.853743 Q 227.895055 91.372869 229.950321 92.746192 Q 232.503476 94.452228 235.441255 94.85337 Q 236.750868 95.030345 238.421509 94.92888 Q 239.971807 94.834493 241.34749 94.430991 Q 246.774713 92.838219 250.484102 90.101011 Q 251.623819 89.258611 252.709263 87.488865 Q 253.801787 85.714399 253.697962 83.246192 Q 253.643689 81.938939 252.935791 80.862933 C 252.534648 80.2565 251.597862 79.442416 250.809735 78.989361 Q 249.523719 78.246068 247.881394 77.587722 Q 234.379407 72.172297 220.570664 67.61343 Q 220.334698 67.535561 218.888225 67.162734 Q 216.948582 66.662486 214.907475 66.785188 Q 214.742298 66.794627 213.468081 67.082506 C 213.340659 67.113181 213.217956 67.160375 213.104693 67.224086 C 211.592149 68.083003 210.612889 69.527116 209.744534 71.039659 C 208.040858 74.005755 206.551911 76.927017 204.989814 79.852998 C 202.538125 84.44962 200.298806 88.98961 197.995776 93.590951 Q 196.91741 95.740603 196.041975 97.644851 Q 195.010803 99.88653 196.443118 102.187201 Q 198.401637 105.330271 204.314951 114.424409 Q 206.481121 117.756252 211.672378 126.118895 Q 216.611151 134.070956 221.908592 142.433599 Q 222.385244 143.183972 223.189889 144.24346 C 223.355065 144.460549 223.614628 144.585611 223.888349 144.578532 Q 228.265522 144.441672 229.81582 144.415715 Q 231.132512 144.394478 232.083456 144.252899 Q 233.853202 143.988617 234.334574 143.950862 C 235.167534 143.887151 236.000495 143.578035 236.864131 143.486009 Q 237.241677 143.445894 237.864628 143.2642 Q 240.103948 142.608214 242.640585 141.66199 Q 243.206903 141.44962 245.052159 141.006004 Q 246.246148 140.720484 247.513287 140.623738 Q 253.686163 140.156525 259.700942 142.277861 Q 261.152135 142.789908 262.070043 143.806923 Q 262.99739 144.835735 263.573148 145.520037 C 263.672254 145.63802 263.589666 145.817355 263.436288 145.822074 Q 259.887356 145.911741 256.647539 145.456326 C 255.847614 145.345422 255.113759 145.385537 254.259561 145.243957 Q 253.405364 145.102377 253.122204 145.168448 Q 252.357674 145.345422 251.711126 145.387896 C 251.628538 145.394975 251.54595 145.409133 251.465721 145.43037 Q 248.183431 146.352998 247.437778 146.598403 C 246.788871 146.813132 246.224911 146.846168 245.450942 147.152924 C 245.439144 147.157643 245.427346 147.162362 245.415547 147.164722 L 243.15971 147.688567 Q 243.145552 147.690927 243.131394 147.693286 Q 242.168652 147.778234 241.120962 148.101508 C 241.040734 148.127464 240.958145 148.143982 240.875557 148.15342 C 239.483357 148.304439 238.121831 148.604116 236.651762 148.733897 Q 236.021732 148.78817 233.614877 149.021776 Q 229.230624 149.444156 225.358419 149.373366 C 225.077619 149.368646 224.834573 149.569218 224.785021 149.845298 C 224.638722 150.666461 224.659958 151.489983 224.546695 152.282829 C 224.379159 153.450862 224.211623 154.132804 224.171508 154.949248 Q 224.131394 155.789287 223.947341 156.884171 Q 223.706655 158.299968 223.680699 158.812015 Q 223.666541 159.116411 223.211126 162.235884 Q 222.892571 164.409133 222.748632 165.461543 Q 222.604693 166.502154 222.496148 167.035437 C 222.340411 167.792889 222.279059 168.547981 222.184673 169.130817 Q 221.708021 172.054439 220.853823 177.455706 Q 219.242174 187.668324 217.290733 198.31276 C 217.196347 198.834245 216.773967 198.713903 216.401141 198.529849 Q 214.914554 197.791275 213.236834 197.104613 C 212.944236 196.98427 212.760182 196.691672 212.779059 196.375477 Q 212.830972 195.544876 213.005587 194.695398 Q 213.293466 193.298478 213.291106 193.041275 Q 213.288746 192.776992 213.928215 189.138393 Q 214.126426 188.005755 214.539367 185.233152 Q 216.153376 174.392864 216.948582 168.543262 Q 217.883009 161.63653 218.019869 160.407146 Q 218.404494 156.912487 218.671136 154.349893 C 218.751364 153.559407 218.730127 152.962412 218.902383 152.330023 C 218.937778 152.202601 218.954295 152.072819 218.956655 151.940678 Q 218.982611 150.329029 219.119472 148.847161 C 219.161946 148.36579 218.7844 147.886779 218.527196 147.431364 Q 218.284151 146.999546 205.103078 125.226942 Q 199.274712 115.60188 194.557748 108.40963 Q 193.068801 106.139635 192.09898 104.244826 Q 191.270738 102.628457 191.030053 100.72185 C 190.921508 99.870012 191.140957 99.19043 191.152755 98.430618 C 191.155115 98.35039 191.166913 98.272521 191.19051 98.197012 Q 191.969198 95.573067 192.998011 93.428134 Q 198.514901 81.912983 204.893068 69.98725 Q 205.114876 69.571949 206.190882 67.995695 Q 206.988448 66.827662 207.693987 66.162238 Q 211.115497 62.922421 215.851339 63.035685 Q 216.653625 63.054562 217.267137 63.160747 C 217.890088 63.269292 218.416292 63.264572 219.150147 63.394354 Q 222.817062 64.045621 226.576004 65.090951 Q 227.073893 65.227811 228.187654 65.114548 C 228.265522 65.107469 228.338672 65.079153 228.404742 65.036679 C 229.284896 64.449123 229.789864 63.472223 230.124936 62.485884 Q 231.153749 59.472595 231.257574 59.182357 C 232.114131 56.796738 233.624315 55.199247 235.953302 53.891994 Q 237.815075 52.846664 239.754718 52.110449 Q 240.955786 51.655034 243.475905 51.036803 C 243.58209 51.010846 243.690634 50.991969 243.801538 50.982531 Q 244.330103 50.935337 244.920018 50.857468 Q 248.657723 50.366659 252.253848 51.619639 Q 257.008568 53.278482 259.630152 57.639138 Q 260.739194 59.482034 261.230003 60.258363 C 261.369224 60.480171 261.621707 60.605233 261.88363 60.581636 Q 265.161201 60.284319 267.707276 60.496689 Q 268.733729 60.583996 270.715846 61.098402 C 272.749874 61.624607 274.703675 62.636902 276.301166 63.757742 Q 277.969447 64.930494 279.595254 66.997558 Q 281.641082 69.600265 282.157848 72.592317 Q 282.459884 74.340827 282.457525 74.867031 C 282.455165 74.985015 282.547192 75.08412 282.667535 75.095919 Q 283.913436 75.202103 285.440138 75.560772 Q 290.074514 76.650936 294.177967 79.723216 Q 296.058618 81.131935 297.311598 82.830891 Q 297.802408 83.496316 298.236586 84.390628 Q 298.880774 85.723837 298.828861 87.144354 C 298.802905 87.875849 298.762791 88.982531 298.496149 89.945273 Q 297.835443 92.330891 296.997763 94.671676 Q 296.898657 94.945397 296.780674 95.448005 C 296.596621 96.217255 296.256829 96.757618 296.514032 97.623614 Q 296.778315 98.520285 297.391827 99.688318 C 297.733978 100.341945 297.981742 100.993211 298.241305 101.618522 C 299.031792 103.522769 299.003476 105.346788 298.949204 107.57195 C 298.927967 108.463902 298.746273 109.084493 298.734475 109.839585 C 298.720317 110.818845 298.373446 112.18273 298.236586 113.152551 Q 298.116243 114.013828 297.36823 117.020037 Q 296.889219 118.95496 296.200197 120.814374 Q 295.180823 123.558661 294.248757 125.488865 Q 293.427594 127.187822 292.125061 129.495571 Q 289.189641 134.693907 285.07203 139.486381 Q 282.634499 142.325055 279.529184 145.567231 Q 277.695726 147.480917 276.235095 149.295497 Q 275.876427 149.739113 275.888225 150.201607 Q 275.909462 151.058165 275.749005 153.625477 C 275.531916 157.082382 275.612145 159.496317 275.616864 164.196764 Q 275.619224 165.928756 275.723049 167.361071 C 275.866988 169.338468 275.796198 170.832134 276.001489 172.700986 C 276.145428 174.017678 276.018007 175.664722 276.235095 177.101756 C 276.379035 178.040902 276.279929 179.027241 276.428588 180.067852 C 276.581966 181.162735 276.463983 182.66584 276.678712 183.869268 C 276.822651 184.666833 276.742423 185.289784 276.912319 186.063753 C 277.084574 186.847161 276.990187 187.850018 277.101091 188.74433 Q 277.171881 189.313008 277.327619 190.589586 Q 277.438523 191.509854 277.547068 193.008239 Q 277.629656 194.122 277.886859 195.443411 Q 277.974166 195.894106 277.964728 196.535934 C 277.962368 196.609084 277.931693 196.682233 277.87978 196.734146 C 277.344137 197.26507 277.084574 197.19664 276.541852 197.439685 Q 275.166168 198.053197 273.743292 198.647832 Q 273.389343 198.796491 273.210008 198.636034 Q 273.084946 198.52277 273.037753 198.109829 Q 272.537505 193.609953 272.301539 190.922298 Q 272.226029 190.077539 272.14816 189.600887 C 272.027818 188.885909 272.136362 188.201607 271.966467 187.493709 C 271.768255 186.658388 271.879159 185.662611 271.711623 184.744702 Q 271.600719 184.145348 271.596 182.819218 C 271.59128 182.075924 271.371832 181.4105 271.378911 180.690803 Q 271.390709 179.560524 271.286884 178.725204 Q 271.10519 177.278731 271.126427 176.766684 C 271.17126 175.631687 270.883382 174.579278 270.89754 173.394727 Q 270.918776 171.962412 270.800793 170.827415 Q 270.61438 169.026992 270.645056 168.264821 C 270.713486 166.582382 270.449204 165.006128 270.432686 163.210425 Q 270.368975 155.857718 270.456283 151.504141 Q 270.47516 150.53196 270.633257 149.498428 C 270.649775 149.387524 270.628538 149.27426 270.571906 149.177514 L 269.073521 146.581885 C 268.934301 146.33884 269.016889 146.029724 269.259934 145.890504 Q 271.459139 144.625725 273.939144 142.931488 C 274.885369 142.28494 275.659338 141.610077 276.513536 140.935214 Q 276.917038 140.616659 277.483357 140.066858 C 282.297068 135.387648 286.306134 129.939188 289.774837 124.134419 Q 291.065572 121.977687 291.830103 120.170186 Q 293.975036 115.11343 293.800421 109.145844 Q 293.783903 108.520534 293.696596 107.730047 Q 293.545577 106.333127 293.545577 106.321329 Q 293.507823 105.540281 293.153874 104.365169 C 293.125558 104.270782 293.10668 104.176396 293.099601 104.07965 L 293.061847 103.617156 C 293.033531 103.275005 292.568677 103.194776 292.427098 103.506252 Q 292.344509 103.685586 291.865498 104.339212 Q 290.17598 106.642243 287.884748 109.263827 C 286.362766 111.007618 284.675607 112.685338 282.724167 113.733028 C 281.924241 114.162486 281.216342 114.271031 280.383382 114.551831 Q 280.130898 114.639138 279.401762 114.69577 Q 277.141206 114.872745 275.798558 114.594304 Q 273.122701 114.035064 271.131146 112.963778 Q 269.366119 112.012834 267.844137 111.045372 C 267.709636 110.958065 267.549179 110.915591 267.388722 110.92503 C 265.762915 111.019416 263.353699 111.34033 261.475408 111.427638 Q 259.965225 111.496068 258.787753 111.906649 C 256.996769 112.5296 255.831096 114.561269 255.45591 116.345174 Q 254.865994 119.16261 255.142075 121.715765 Q 255.286014 123.030097 255.307251 123.884295 C 255.340287 125.269416 255.618727 127.022645 255.720192 128.381811 Q 255.887728 130.595174 255.998632 131.562635 Q 256.260555 133.801955 256.241678 134.778855 C 256.236958 135.014821 256.01279 135.187077 255.781543 135.130445 L 253.554022 134.583003 C 253.412443 134.547608 253.294459 134.446143 253.240187 134.311642 C 252.914554 133.509357 253.001861 132.674036 252.87208 131.843435 Q 251.26751 121.418448 245.696347 113.110077 C 243.218702 109.417206 239.74056 105.870633 235.745652 103.669068 Q 230.304271 100.669938 224.169149 100.223962 C 221.828364 100.054066 218.508319 100.370261 216.854196 100.334866 Z M 252.511052 75.334245 C 252.671509 75.355482 252.824887 75.258735 252.87444 75.105357 Q 254.61823 69.626222 256.631022 63.97955 C 257.301166 62.105978 257.102954 60.685462 255.904246 59.118646 C 253.485592 55.956698 249.759685 54.519664 245.821409 54.62113 C 242.694857 54.703718 239.712244 55.31959 237.371459 57.282829 Q 235.837678 58.571204 235.556879 60.55568 Q 235.394062 61.704836 235.351588 61.924284 Q 235.077867 63.335362 235.044832 63.719987 Q 234.91505 65.140504 234.556382 67.582754 C 234.513908 67.870633 234.674365 68.149073 234.941007 68.257618 Q 237.043466 69.111815 237.130773 69.137772 Q 238.416789 69.510598 244.731245 72.023638 Q 245.920515 72.495571 246.453799 72.705581 Q 247.935667 73.293137 250.906481 74.673539 C 251.442125 74.923663 251.942373 75.251656 252.511052 75.334245 Z M 269.56433 94.99259 Q 269.672875 94.735387 269.750744 94.548974 Q 272.072651 89.032084 276.718826 78.505631 Q 277.863262 75.910002 278.136983 75.341324 C 279.517386 72.479053 276.263411 68.906525 274.25062 67.280717 C 271.985344 65.44962 269.00981 64.531711 266.097987 64.442044 C 265.276824 64.416088 264.620838 64.623738 263.827992 64.701607 C 263.672254 64.718124 263.518876 64.75116 263.370217 64.805432 Q 262.211623 65.225452 262.081842 65.291522 Q 260.982239 65.857841 260.231866 66.766311 Q 259.759934 67.33499 259.236089 68.920683 Q 257.886362 73.014697 256.819795 76.891622 Q 256.522477 77.967628 256.513039 78.43956 C 256.510679 78.543385 256.529556 78.64721 256.564951 78.743956 C 257.154867 80.362685 257.662194 81.787921 257.685791 83.366535 Q 257.709387 84.994702 257.655115 85.310896 Q 257.34128 87.108959 256.949576 87.94192 Q 255.076004 91.917951 253.681444 94.912362 C 253.426601 95.459804 253.318056 95.865665 253.0113 96.500415 C 252.949949 96.625477 252.919273 96.762337 252.919273 96.901557 L 252.919273 98.801085 C 252.919273 98.890752 252.935791 98.97806 252.966466 99.060648 Q 253.589417 100.65342 255.071285 101.509977 Q 256.569671 102.378333 257.633878 102.74644 Q 259.568801 103.414225 261.867112 103.612436 Q 263.34662 103.737499 264.653873 103.279724 C 264.755339 103.244329 264.854445 103.197136 264.946471 103.142864 C 266.329233 102.309903 266.815324 101.035685 267.671881 99.228184 Q 268.511921 97.458437 269.56433 94.99259 Z M 274.000495 95.702849 Q 272.764032 98.647707 271.166541 102.47036 Q 270.765398 103.428383 270.61202 104.030097 C 269.875806 106.93956 273.575756 109.183599 275.822155 110.004761 C 277.138846 110.483773 278.745776 110.686704 280.128538 110.134543 Q 281.362641 109.641373 281.869969 109.266187 Q 283.46982 108.081637 284.977644 106.420435 Q 290.629035 100.200365 293.755587 92.127961 Q 294.468205 90.287424 294.890585 88.619143 Q 295.093516 87.823937 294.914182 86.134418 C 294.907103 86.061269 294.890585 85.988119 294.866988 85.91497 C 294.378538 84.435462 292.313834 82.896962 291.070292 82.118273 Q 288.267013 80.367404 285.081469 79.435337 Q 284.16356 79.168696 282.613262 79.362188 C 282.528315 79.373986 282.443367 79.397583 282.367858 79.437697 Q 281.308369 79.97334 280.524961 80.841696 Q 280.078985 81.334866 279.432438 82.863927 Q 278.103948 86.006997 276.702309 89.282208 Q 276.534773 89.676271 276.386114 90.008984 Q 275.753724 91.417702 275.177967 92.850017 Q 274.708394 94.01805 274.000495 95.702849 Z" style="fill:#0c3c67;"/>
		<path d="M 253.723918 175.289536 Q 253.63661 174.104985 253.674365 173.503272 Q 253.884375 170.202104 253.915051 166.008984 Q 253.924489 164.685214 254.035393 163.540778 C 254.188771 161.955085 254.05663 160.664349 254.26664 159.170683 C 254.424738 158.045124 254.299676 156.870013 254.512045 155.685462 C 254.68902 154.689685 254.542721 153.649074 254.745652 152.599024 C 254.929705 151.65044 254.679581 150.751408 255.422875 149.795745 C 255.472428 149.729675 255.545577 149.680122 255.628165 149.658885 Q 256.78204 149.371006 256.970813 149.378085 Q 259.361151 149.496068 259.523968 151.754265 Q 259.606556 152.896341 259.500371 153.092193 Q 259.479134 153.129948 259.106307 156.350887 Q 259.044956 156.88889 258.863262 157.702973 Q 258.863262 157.710052 258.608419 159.05034 Q 257.673992 163.939561 256.024589 169.187449 Q 254.995776 172.46502 253.983481 175.324931 C 253.936288 175.461791 253.735716 175.433475 253.723918 175.289536 Z" style="fill:#0c3c67;"/>
		<path d="M 247.249005 178.293386 C 247.21125 178.371255 247.093267 178.345298 247.090907 178.257991 C 247.07675 177.533575 246.814827 176.983773 246.824266 176.231041 Q 246.828985 175.737872 246.661449 175.034692 C 246.633133 174.91435 246.616615 174.791647 246.614256 174.666585 Q 246.588299 173.482035 246.550545 173.297981 Q 246.333456 172.238493 246.342895 171.129451 C 246.352333 170.138393 246.111648 169.371503 246.121086 168.453594 Q 246.137604 166.818348 246.043217 165.798974 C 245.762418 162.766808 245.88276 159.829029 245.894559 156.247062 C 245.901638 154.623614 246.149402 153.231413 246.121086 151.692914 C 246.116367 151.43807 246.265026 151.206823 246.498632 151.107717 L 249.754966 149.717876 C 249.929581 149.644727 250.123073 149.769789 250.125433 149.956202 C 250.14431 151.001533 250.14431 152.049223 250.026327 153.082755 Q 249.684176 156.079526 249.636983 157.93422 C 249.613386 158.809655 249.408096 159.529352 249.415175 160.303321 C 249.424613 161.14808 249.179209 162.049471 249.176849 163.012213 Q 249.174489 163.333127 249.080103 164.088219 Q 248.839417 166.018423 248.487828 169.74197 C 248.395801 170.695274 248.230624 171.436207 248.218826 172.363555 C 248.218826 172.472099 248.204668 172.583003 248.176352 172.686828 Q 247.947465 173.578781 247.848359 174.576918 Q 247.723297 175.836977 247.607674 176.438691 Q 247.260803 178.269789 247.249005 178.293386 Z" style="fill:#0c3c67;"/>
	</g>
	<g id="surface4">
	</g>
</svg>
