<?xml version="1.0" encoding="utf-8"?>
<svg xmlns="http://www.w3.org/2000/svg" width="490pt" height="280pt" viewBox="0 0 490 280" version="1.1" xmlns:xlink="http://www.w3.org/1999/xlink">
	<g id="surface2" data-size="119.95044871845 148" data-bboxpos="185 56.153661445868" data-pivot="244.97522435922 130.15366144587" data-center="244.97522435922 130.15366144587">
		<path vector-effect="non-scaling-stroke" d="M 278.317226 127.625515 Q 277.611546 127.899664 277.357705 128.143352 Q 265.97545 138.845311 255.029803 149.988954 Q 253.19199 151.862305 251.4151 153.629042" style="fill:none;stroke-width:0.50;stroke:#3096d3;"/>
		<path vector-effect="non-scaling-stroke" d="M 247.353635 204.153661 Q 247.343481 190.258376 247.333328 176.34786 Q 247.333328 174.69789 247.688706 173.291607" style="fill:none;stroke-width:0.50;stroke:#3ca0d6;"/>
		<path d="M 278.317226 127.625515 Q 277.611546 127.899664 277.357705 128.143352 Q 265.97545 138.845311 255.029803 149.988954 Q 253.19199 151.862305 251.4151 153.629042 Q 235.504312 141.20096 225.081579 131.499137 Q 223.198074 129.742554 224.259132 127.422442 C 224.853121 126.12785 226.817855 124.696184 227.975372 123.569127 C 237.438585 114.334372 246.348422 105.439765 254.649041 95.641482 Q 260.421397 88.828375 263.071503 86.188423 Q 277.362781 71.973297 288.389658 60.743347 Q 291.060071 58.022166 291.76575 57.468791 C 291.902825 57.362178 292.044976 57.265718 292.202358 57.189566 Q 294.806772 55.828975 298.228556 56.255429 C 298.380861 56.270659 298.533165 56.321428 298.67024 56.39758 C 300.137444 57.204796 299.842988 58.540003 299.853141 60.007207 Q 299.969909 81.167437 299.883602 101.337686 Q 299.873449 102.982579 299.771912 104.932082 C 299.756682 105.17577 299.680529 105.414381 299.543455 105.622531 Q 298.67024 106.942507 298.213325 107.379114 Q 291.024533 114.25822 278.692911 126.792915 Q 278.494915 126.990911 278.317226 127.625515 Z" style="fill:#3ab6e6;"/>
		<path d="M 251.034337 59.748288 Q 253.455985 63.09392 252.374621 66.779699 Q 251.740017 68.937352 248.33854 72.810974 Q 248.140544 73.034354 243.667856 78.461486 C 240.215611 82.649872 237.326894 86.249345 234.986475 90.488498 Q 232.676517 94.671807 231.123007 99.413567 C 229.924875 103.084115 228.787665 106.419593 226.26448 109.414923 C 222.624392 113.735306 219.461527 116.522486 214.537001 121.28963 C 212.252427 123.503129 209.759703 125.478016 207.124828 122.92437 Q 202.190149 118.141995 196.915322 113.298699 C 195.539501 112.039645 193.98599 110.33383 192.584785 109.079852 C 190.985583 107.643109 190.234212 105.916987 190.229136 103.876101 Q 190.193598 80.471911 190.234212 62.99746 C 190.244366 57.082952 193.919992 56.367119 199.138974 56.448348 Q 203.921348 56.529578 244.835527 56.463579 C 247.084563 56.458502 249.622978 57.798785 251.034337 59.748288 Z" style="fill:#3ab6e6;"/>
		<path d="M 278.317226 127.625515 Q 279.672739 128.843955 281.018099 130.138546 Q 287.922589 136.799348 292.48666 140.855736 Q 297.319803 145.155812 301.756953 149.486348 Q 303.71661 151.400313 304.584748 153.898114 Q 304.955356 154.969325 304.935049 157.147286 Q 304.919819 158.467262 304.950279 176.47478 Q 304.955356 178.784738 304.808128 181.739454 C 304.803051 181.886682 304.777667 182.028833 304.737053 182.165908 L 303.630304 185.927839 C 303.615073 185.973531 303.599843 186.019222 303.574458 186.064914 C 302.91447 187.308737 301.894027 189.710078 300.690819 191.334664 Q 296.131825 197.497936 290.318853 200.879106 Q 287.013837 202.803224 283.160522 203.630748 Q 280.738874 204.153661 275.509738 204.128277 Q 261.436763 204.072432 247.353635 204.153661 Q 247.343481 190.258376 247.333328 176.34786 Q 247.333328 174.69789 247.688706 173.291607 C 248.957913 173.113918 250.242352 172.976844 251.420176 172.580851 Q 254.547504 171.529947 257.720523 170.585657 Q 258.588661 170.331815 259.121729 169.65152 C 259.223265 169.524599 259.27911 169.362141 259.284187 169.199682 Q 259.340032 166.35158 258.075901 163.742089 Q 255.33949 158.091576 251.4151 153.629042 Q 253.19199 151.862305 255.029803 149.988954 Q 265.97545 138.845311 277.357705 128.143352 Q 277.611546 127.899664 278.317226 127.625515 Z" style="fill:#2676c0;"/>
		<path d="M 247.688706 173.291607 Q 247.333328 174.69789 247.333328 176.34786 Q 247.343481 190.258376 247.353635 204.153661 Q 230.6864 204.001357 213.99378 204.113047 C 210.038929 204.138431 206.114539 203.78813 202.581065 202.351387 C 194.437828 199.036216 187.203345 190.806673 185.395993 182.135447 Q 184.989846 180.196097 185.005077 175.616796 Q 185.060922 158.655105 185 157.167593 C 184.852772 153.720425 186.614432 151.664309 189.396535 149.318813 Q 196.392408 143.414459 205.7287 135.712906 C 207.98789 133.84971 209.967853 133.575561 212.221966 135.596139 C 218.710156 141.434495 224.776969 147.364233 229.711648 154.370259 Q 233.453272 159.675547 237.890422 164.899606 Q 242.124499 169.879977 247.688706 173.291607 Z" style="fill:#51c9ec;"/>
	</g>
	<g id="surface4">
	</g>
</svg>
