<?xml version="1.0" encoding="utf-8"?>
<svg xmlns="http://www.w3.org/2000/svg" width="490pt" height="280pt" viewBox="0 0 490 280" version="1.1" xmlns:xlink="http://www.w3.org/1999/xlink">
	<g id="surface2" data-size="166.25298919267 148" data-bboxpos="162 52.649837372334" data-pivot="245.12649459634 126.64983737233" data-center="245.12649459634 126.64983737233">
		<path vector-effect="non-scaling-stroke" d="M 168.383424 116.28626 Q 167.312801 122.63353 168.270377 127.893551 Q 169.098282 132.42874 171.538772 136.195873 C 174.305105 140.471718 177.719796 144.607917 181.247535 148.328501 Q 183.092865 150.276904 185.220813 151.955988 C 187.332136 153.625097 189.473384 154.502875 192.046871 155.666597 Q 195.035973 157.016514 196.422464 158.785371 C 198.487238 161.425356 200.0566 163.131039 202.566913 164.431083 Q 214.041208 170.376037 227.051615 170.68193 Q 233.448758 170.834876 241.431888 170.632056 Q 245.584711 170.525658 257.807112 170.731803 C 264.64647 170.844851 271.219834 169.568082 277.676826 167.20739 C 283.565257 165.052842 289.048048 162.309784 294.318045 159.40713 Q 301.120828 155.656622 306.809764 150.293528 C 309.63262 147.633593 312.113009 144.059306 314.061412 140.794236 C 316.555101 136.611488 318.766172 132.089598 320.495129 127.388163" style="fill:none;stroke-width:0.50;stroke:#96643b;"/>
		<path vector-effect="non-scaling-stroke" d="M 320.495129 127.388163 Q 323.13844 120.78155 322.410282 113.6097 C 321.91487 108.72872 320.102789 104.103758 317.39963 100.044032 Q 315.541 97.25775 314.357329 95.871259 Q 308.485523 88.992002 304.771589 84.506687 C 303.687665 83.196669 302.001932 81.357989 301.02773 80.294015 Q 293.536689 72.101416 283.47216 67.373381 Q 280.379985 65.923717 274.86062 64.065087 Q 272.84572 63.386804 266.179258 60.926364 C 260.330726 58.771817 253.032529 57.501698 246.698559 57.644669 Q 234.492783 57.923962 223.76992 63.606248 Q 222.290331 64.390929 218.762592 66.17641 C 218.194031 66.462353 217.588896 66.675148 216.963811 66.80482 C 212.910735 67.646024 209.073779 68.666775 205.582615 70.252761 Q 200.495489 72.570229 195.75748 76.307438 Q 193.549734 78.05302 189.217365 82.102771 Q 186.357935 84.77933 182.956543 88.200672 C 175.252706 95.937758 170.109057 105.343953 168.383424 116.28626" style="fill:none;stroke-width:0.50;stroke:#9d7349;"/>
		<path vector-effect="non-scaling-stroke" d="M 320.495129 127.388163 Q 317.931617 128.295866 315.710571 129.768805 C 313.466251 131.258369 312.495375 132.84103 311.102234 135.49764 C 309.512923 138.529966 308.428999 140.385271 306.460648 142.729338 C 302.540568 147.400849 298.307947 151.86954 292.931553 154.788818 C 288.818629 157.023164 284.180367 159.004815 279.545431 160.484404 Q 273.723498 162.346358 273.344457 162.459406 Q 268.918991 163.786048 262.338977 164.663827 C 258.678241 165.15259 254.538717 165.172539 250.824783 165.16589 Q 241.76438 165.149265 232.644128 165.056167 Q 226.692523 164.996319 223.464027 164.470982 Q 221.661921 164.178389 220.28873 163.978894 C 215.613894 163.30061 211.145204 162.180113 206.590065 160.564202 C 203.474616 159.460329 201.935179 157.864368 199.162197 155.137935 C 197.835554 153.834567 196.129871 152.68082 194.33109 151.643445 Q 188.143416 148.072483 187.019594 147.297777 C 183.049641 144.551394 179.026489 141.346172 176.13381 137.838383 C 174.341679 135.663886 172.908639 133.539263 172.499674 131.102098 Q 171.562047 125.542834 171.103208 124.162992 C 170.082458 121.104067 169.241253 119.112441 169.111582 117.323635 C 169.101607 117.160714 169.035108 117.007767 168.928711 116.88807 L 168.383424 116.28626" style="fill:none;stroke-width:0.50;stroke:#f2b976;"/>
		<path vector-effect="non-scaling-stroke" d="M 316.718022 150.310153 L 316.761246 149.089908 C 316.767895 148.887088 316.548451 148.757416 316.37223 148.857163 Q 315.797019 149.18633 315.434603 149.528797 Q 307.99011 156.54105 300.884759 161.308984 Q 292.858405 166.695352 281.237814 171.755878 Q 273.600476 175.080797 264.719618 176.301042 C 253.880383 177.790606 242.77848 177.837155 231.799598 177.152221 Q 225.339281 176.749906 220.338604 175.978525 Q 213.259852 174.884627 206.373945 171.925449 Q 193.622882 166.445983 182.411256 157.864368" style="fill:none;stroke-width:0.50;stroke:#96643b;"/>
		<path vector-effect="non-scaling-stroke" d="M 182.411256 157.864368 Q 177.144585 153.571898 172.582797 148.195505 Q 172.370002 147.942811 172.094034 147.829764 C 171.977661 147.783215 171.851315 147.876312 171.861289 148.002659 Q 172.010911 149.59862 172.506324 151.593571 C 175.372403 163.194213 183.348883 171.586308 193.217242 178.003401 Q 206.78956 186.83106 222.602873 190.255726 Q 239.786053 193.97631 257.557744 192.091081 C 270.624674 190.707915 283.761428 186.814435 295.012953 179.808831 C 305.004333 173.587909 313.569324 164.32801 316.342306 152.597697 Q 316.608299 151.470549 316.718022 150.310153" style="fill:none;stroke-width:0.50;stroke:#85542f;"/>
		<path vector-effect="non-scaling-stroke" d="M 182.411256 157.864368 Q 181.742948 158.40633 181.772872 160.517653 Q 181.822746 163.972244 183.764498 166.189964 Q 185.420308 168.081843 188.013744 169.757602 C 191.298764 171.8789 194.503986 173.508111 197.762406 175.419939 Q 205.017378 179.67916 213.020458 182.648312 Q 213.695416 182.897681 217.505773 183.998229 Q 219.956238 184.706437 222.067561 185.075503 Q 230.775523 186.591666 239.440262 187.130302 Q 245.747632 187.522643 251.905382 187.130302 Q 261.407999 186.525167 270.089362 184.862708 C 272.346982 184.430468 274.182337 183.911781 276.346859 183.36317 C 278.188864 182.894356 279.758226 182.242672 281.374136 181.733959 Q 283.26934 181.138799 285.098045 180.360768 Q 292.615686 177.152221 299.039429 172.693505 Q 302.377647 170.376037 306.211279 166.821699 Q 309.785566 163.51008 312.06646 159.317358 Q 313.891841 155.95919 314.407203 154.476276 Q 315.354805 151.756492 316.718022 150.310153" style="fill:none;stroke-width:0.50;stroke:#da9a5c;"/>
		<path vector-effect="non-scaling-stroke" d="M 244.711288 69.091101 C 244.680333 70.282685 245.983702 71.28681 247.62282 71.329303 C 249.262071 71.373258 250.615313 70.438956 250.647532 69.246574 C 250.678487 68.054989 249.375119 67.050864 247.736 67.008372 C 246.096749 66.964416 244.743507 67.898718 244.711288 69.091101" style="fill:none;stroke-width:0.50;stroke:#9d7349;"/>
		<path vector-effect="non-scaling-stroke" d="M 200.099824 74.289212 Q 199.168846 74.974145 197.832229 75.905122 C 196.532186 76.8095 194.9462 78.345613 193.599608 79.476085 C 191.03942 81.627308 188.928097 84.433539 187.235713 87.226471 C 186.733651 88.05105 186.321361 89.115024 186.048717 89.949579 Q 185.882471 90.468266 185.94232 90.657787 C 186.055367 91.006903 186.510881 91.086701 186.7403 90.800758 Q 188.648804 88.386867 190.756802 85.773481 Q 194.630332 80.965649 199.458114 77.155292 Q 200.86788 76.044769 202.018302 75.323262 Q 203.50454 74.395609 204.635013 73.56438 Q 205.250123 73.108866 210.393772 70.419007 Q 210.939059 70.133064 211.215027 69.837146 C 211.308125 69.740723 211.244951 69.581127 211.111954 69.571152 Q 210.417046 69.524604 209.918309 69.687525 Q 206.590065 70.778098 206.227649 71.000867 C 205.449618 71.473006 204.661612 71.665851 203.803783 72.13134 Q 202.550289 72.812948 201.007526 73.830373 Q 200.661735 74.056468 200.256095 74.206089 C 200.199571 74.226039 200.149697 74.252638 200.099824 74.289212" style="fill:none;stroke-width:0.50;stroke:#fce3c1;"/>
		<path vector-effect="non-scaling-stroke" d="M 276.948237 86.932182 C 276.227162 90.102525 278.614454 93.350971 282.280642 94.182167 C 285.945899 95.01343 289.500237 93.118227 290.222177 89.94795 C 290.943252 86.777607 288.55596 83.529161 284.889772 82.697965 C 281.224515 81.866702 277.670177 83.761905 276.948237 86.932182" style="fill:none;stroke-width:0.50;stroke:#9d7349;"/>
		<path vector-effect="non-scaling-stroke" d="M 217.423016 87.704162 C 215.836664 83.894902 211.008882 82.282317 206.641568 84.099551 C 202.274321 85.916453 200.016701 90.481566 201.602321 94.289695 C 203.188673 98.098955 208.016455 99.71154 212.383769 97.894306 C 216.751016 96.077404 219.008636 91.512291 217.423016 87.704162" style="fill:none;stroke-width:0.50;stroke:#9d7349;"/>
		<path vector-effect="non-scaling-stroke" d="M 256.009894 94.819754 C 255.330048 90.804083 251.1606 88.160773 246.6956 88.915729 C 242.229868 89.670286 239.160968 93.537166 239.841014 97.554499 C 240.52086 101.57017 244.690308 104.21348 249.155308 103.458524 C 253.62104 102.703967 256.68994 98.837087 256.009894 94.819754" style="fill:none;stroke-width:0.50;stroke:#9d7349;"/>
		<path vector-effect="non-scaling-stroke" d="M 309.518708 106.18406 C 308.315952 105.846015 306.999284 106.790292 306.57825 108.289797 C 306.154755 109.789369 306.789814 111.282257 307.990975 111.619171 C 309.193731 111.957216 310.510399 111.012939 310.931433 109.513434 C 311.354928 108.013862 310.719868 106.520974 309.518708 106.18406" style="fill:none;stroke-width:0.50;stroke:#9d7349;"/>
		<path vector-effect="non-scaling-stroke" d="M 180.872717 110.56587 C 179.661549 110.407804 178.484527 111.751071 178.244136 113.566709 C 178.005739 115.385207 178.793745 116.984493 180.006442 117.145618 C 181.21761 117.303685 182.394632 115.960418 182.635023 114.14478 C 182.87342 112.326282 182.085414 110.726996 180.872717 110.56587" style="fill:none;stroke-width:0.50;stroke:#9d7349;"/>
		<path vector-effect="non-scaling-stroke" d="M 221.056587 116.023226 C 218.759267 111.704522 212.877486 110.341305 207.917805 112.977401 C 202.959254 115.614626 200.798057 121.253688 203.095775 125.573124 C 205.393094 129.891827 211.274875 131.255044 216.234557 128.618949 C 221.193108 125.981723 223.354305 120.342661 221.056587 116.023226" style="fill:none;stroke-width:0.50;stroke:#9d7349;"/>
		<path vector-effect="non-scaling-stroke" d="M 263.581233 118.526058 C 261.816964 123.428185 264.712969 128.957525 270.049463 130.880259 C 275.385958 132.801131 281.144717 130.38724 282.908187 125.484182 C 284.672455 120.582055 281.776451 115.052715 276.439957 113.129981 C 271.103462 111.209109 265.344703 113.623 263.581233 118.526058" style="fill:none;stroke-width:0.50;stroke:#9d7349;"/>
		<path vector-effect="non-scaling-stroke" d="M 227.591515 142.583474 C 227.151362 146.173954 230.040716 149.482248 234.046977 149.9754 C 238.05377 150.466424 241.657982 147.95611 242.098933 144.364766 C 242.539086 140.774286 239.649731 137.465992 235.64347 136.97284 C 231.636677 136.481816 228.032466 138.99213 227.591515 142.583474" style="fill:none;stroke-width:0.50;stroke:#9d7349;"/>
		<path vector-effect="non-scaling-stroke" d="M 196.525802 140.276313 C 195.77078 141.279674 196.206344 142.882285 197.497443 143.849769 C 198.789806 144.817387 200.445615 144.790788 201.200106 143.785898 C 201.955128 142.782537 201.519564 141.179926 200.228465 140.212441 C 198.936102 139.244823 197.280293 139.271423 196.525802 140.276313" style="fill:none;stroke-width:0.50;stroke:#9d7349;"/>
		<path vector-effect="non-scaling-stroke" d="M 288.503194 142.433986 C 288.100447 141.41932 286.740555 141.010355 285.468341 141.516075 C 284.196992 142.021131 283.492109 143.254675 283.893992 144.26821 C 284.29674 145.282876 285.656631 145.691841 286.928845 145.186121 C 288.200194 144.681066 288.905077 143.447521 288.503194 142.433986" style="fill:none;stroke-width:0.50;stroke:#9d7349;"/>
		<path d="M 182.387982 176.81973 L 182.112014 176.676758 C 182.022241 176.633534 181.942443 176.57701 181.869295 176.507187 Q 176.828718 171.888875 173.28103 166.698677 Q 168.316926 159.43373 166.780814 150.529597 C 166.577993 149.345926 166.601268 148.265328 166.302025 146.995209 C 166.2987 146.971934 166.295375 146.945335 166.295375 146.918736 L 166.295375 140.332072 C 166.295375 139.903157 166.195628 139.480893 166.006107 139.098527 Q 161.720287 130.423814 162.01953 120.994345 Q 162.105978 118.274561 162.767637 114.457555 Q 163.286324 111.435204 164.410147 108.08701 Q 168.429973 96.104004 177.068112 86.222345 Q 182.417906 80.10117 188.445984 74.654953 Q 189.672879 73.54443 192.299564 71.526205 Q 198.074948 67.084113 204.495366 64.530576 Q 208.348947 62.997788 210.516794 62.326155 Q 212.112755 61.827417 214.290577 61.019462 Q 214.377025 60.986212 214.636368 60.952963 C 214.742766 60.939663 214.845838 60.913064 214.948911 60.87649 Q 218.223955 59.63962 224.301907 57.239029 Q 229.329184 55.254053 233.292487 54.369624 Q 235.20099 53.94071 235.516858 53.807713 C 235.540132 53.797738 235.566731 53.787763 235.593331 53.784438 L 240.008823 53.052956 C 240.13517 53.029682 240.264841 53.026357 240.391188 53.039657 Q 240.913201 53.086206 243.762656 52.760364 Q 245.375241 52.577493 251.828909 52.69719 Q 252.949406 52.71714 253.807235 52.91331 C 254.512118 53.072906 255.45972 52.983133 256.447221 53.136079 Q 264.486874 54.362974 272.972067 57.368701 Q 280.044169 59.87569 285.187818 62.30288 Q 296.615563 67.695898 304.93451 76.892623 Q 307.125631 79.316489 311.494574 84.623059 Q 313.436327 86.980427 316.139486 90.075926 Q 319.677199 94.125677 322.433557 98.424797 Q 326.549806 104.838565 327.849849 112.336257 C 328.321988 115.05604 328.345262 118.33441 328.095893 121.064168 Q 328.01277 121.968546 327.673629 123.823851 Q 327.381036 125.439761 327.075143 126.556934 Q 325.918072 130.79953 323.836673 135.820157 Q 323.514155 136.598188 323.284736 137.452692 C 323.241512 137.608963 323.218238 137.771884 323.214913 137.934805 C 323.175014 139.863258 323.244837 141.136702 323.071941 142.822436 C 322.855822 144.91381 323.035367 147.394199 322.619752 149.492223 C 322.32051 150.991761 322.190838 152.325054 321.775223 153.894415 Q 319.996392 160.594126 316.262508 166.392785 Q 312.631697 172.025197 307.411574 176.743256 Q 307.271928 176.869603 307.268603 176.879578 C 307.132281 177.155546 307.281902 177.488038 307.581145 177.571161 Q 309.492973 178.109798 311.49125 178.701634 Q 313.439652 179.276844 315.388054 180.433916 Q 316.548451 181.118849 317.376356 182.279246 C 317.446179 182.378994 317.496053 182.488716 317.525977 182.605088 Q 317.981491 184.596714 316.518527 186.016455 Q 315.009013 187.476094 313.32993 188.403746 Q 309.556147 190.485145 305.020958 191.978034 Q 302.208077 192.902361 301.366872 193.231528 C 301.290399 193.261452 301.207276 193.278077 301.120828 193.278077 C 300.346122 193.298027 299.368596 193.899837 298.530716 193.986285 C 297.832484 194.059433 297.077727 194.488347 296.409418 194.59807 Q 295.890731 194.681193 291.894179 195.705268 C 290.793631 195.987886 289.580035 196.117558 288.383065 196.526523 C 288.246743 196.576396 288.103771 196.602996 287.9608 196.606321 Q 287.275867 196.63292 285.909325 196.958762 C 284.47296 197.297904 283.422286 197.334478 281.972621 197.643695 Q 281.081543 197.833216 280.087393 197.952913 Q 278.082467 198.195632 276.077541 198.544748 Q 275.88802 198.574672 275.103339 198.684395 Q 271.871518 199.136584 270.192435 199.279555 Q 266.69462 199.582123 265.042135 199.831492 C 264.220881 199.957839 262.904213 199.964489 262.109557 200.047611 Q 259.888512 200.283681 258.219402 200.290331 C 256.836236 200.29698 255.519568 200.556324 254.239475 200.579598 Q 247.519814 200.70927 238.625657 200.599548 Q 237.069595 200.582923 236.264964 200.483176 C 234.273338 200.233807 232.34156 200.326905 230.479606 200.054261 C 229.156288 199.858091 227.537053 199.987763 225.907843 199.768318 Q 223.118236 199.389278 220.587973 199.262931 Q 219.780017 199.223032 219.088434 199.026861 C 218.539823 198.87059 217.741842 198.993612 217.046934 198.817392 C 216.209055 198.607922 215.224879 198.69437 214.436873 198.508174 Q 214.107706 198.428376 210.686365 197.936288 Q 197.253693 195.994536 184.625652 191.91486 Q 182.188487 191.13018 180.173586 190.322224 C 177.590124 189.28485 175.305905 188.224201 173.221181 186.737962 C 172.529598 186.245874 171.262804 185.122051 171.03006 184.304121 C 170.544621 182.618388 171.482249 181.577688 172.928588 180.743134 Q 173.849591 180.211147 175.31588 179.542838 C 175.495425 179.459715 175.688271 179.396542 175.884441 179.356642 Q 176.559399 179.220321 177.264282 178.871204 C 177.433853 178.788081 177.616724 178.731558 177.802919 178.708283 Q 178.531076 178.618511 179.880993 178.133072 C 180.00069 178.089848 180.123712 178.063249 180.250059 178.053274 Q 181.25086 177.960177 182.364707 177.491363 C 182.653975 177.368341 182.667275 176.962701 182.387982 176.81973 Z M 168.383424 116.28626 Q 167.312801 122.63353 168.270377 127.893551 Q 169.098282 132.42874 171.538772 136.195873 C 174.305105 140.471718 177.719796 144.607917 181.247535 148.328501 Q 183.092865 150.276904 185.220813 151.955988 C 187.332136 153.625097 189.473384 154.502875 192.046871 155.666597 Q 195.035973 157.016514 196.422464 158.785371 C 198.487238 161.425356 200.0566 163.131039 202.566913 164.431083 Q 214.041208 170.376037 227.051615 170.68193 Q 233.448758 170.834876 241.431888 170.632056 Q 245.584711 170.525658 257.807112 170.731803 C 264.64647 170.844851 271.219834 169.568082 277.676826 167.20739 C 283.565257 165.052842 289.048048 162.309784 294.318045 159.40713 Q 301.120828 155.656622 306.809764 150.293528 C 309.63262 147.633593 312.113009 144.059306 314.061412 140.794236 C 316.555101 136.611488 318.766172 132.089598 320.495129 127.388163 Q 323.13844 120.78155 322.410282 113.6097 C 321.91487 108.72872 320.102789 104.103758 317.39963 100.044032 Q 315.541 97.25775 314.357329 95.871259 Q 308.485523 88.992002 304.771589 84.506687 C 303.687665 83.196669 302.001932 81.357989 301.02773 80.294015 Q 293.536689 72.101416 283.47216 67.373381 Q 280.379985 65.923717 274.86062 64.065087 Q 272.84572 63.386804 266.179258 60.926364 C 260.330726 58.771817 253.032529 57.501698 246.698559 57.644669 Q 234.492783 57.923962 223.76992 63.606248 Q 222.290331 64.390929 218.762592 66.17641 C 218.194031 66.462353 217.588896 66.675148 216.963811 66.80482 C 212.910735 67.646024 209.073779 68.666775 205.582615 70.252761 Q 200.495489 72.570229 195.75748 76.307438 Q 193.549734 78.05302 189.217365 82.102771 Q 186.357935 84.77933 182.956543 88.200672 C 175.252706 95.937758 170.109057 105.343953 168.383424 116.28626 Z M 316.718022 150.310153 L 316.761246 149.089908 C 316.767895 148.887088 316.548451 148.757416 316.37223 148.857163 Q 315.797019 149.18633 315.434603 149.528797 Q 307.99011 156.54105 300.884759 161.308984 Q 292.858405 166.695352 281.237814 171.755878 Q 273.600476 175.080797 264.719618 176.301042 C 253.880383 177.790606 242.77848 177.837155 231.799598 177.152221 Q 225.339281 176.749906 220.338604 175.978525 Q 213.259852 174.884627 206.373945 171.925449 Q 193.622882 166.445983 182.411256 157.864368 Q 177.144585 153.571898 172.582797 148.195505 Q 172.370002 147.942811 172.094034 147.829764 C 171.977661 147.783215 171.851315 147.876312 171.861289 148.002659 Q 172.010911 149.59862 172.506324 151.593571 C 175.372403 163.194213 183.348883 171.586308 193.217242 178.003401 Q 206.78956 186.83106 222.602873 190.255726 Q 239.786053 193.97631 257.557744 192.091081 C 270.624674 190.707915 283.761428 186.814435 295.012953 179.808831 C 305.004333 173.587909 313.569324 164.32801 316.342306 152.597697 Q 316.608299 151.470549 316.718022 150.310153 Z" style="fill:#401e0d;"/>
		<path d="M 320.495129 127.388163 Q 317.931617 128.295866 315.710571 129.768805 C 313.466251 131.258369 312.495375 132.84103 311.102234 135.49764 C 309.512923 138.529966 308.428999 140.385271 306.460648 142.729338 C 302.540568 147.400849 298.307947 151.86954 292.931553 154.788818 C 288.818629 157.023164 284.180367 159.004815 279.545431 160.484404 Q 273.723498 162.346358 273.344457 162.459406 Q 268.918991 163.786048 262.338977 164.663827 C 258.678241 165.15259 254.538717 165.172539 250.824783 165.16589 Q 241.76438 165.149265 232.644128 165.056167 Q 226.692523 164.996319 223.464027 164.470982 Q 221.661921 164.178389 220.28873 163.978894 C 215.613894 163.30061 211.145204 162.180113 206.590065 160.564202 C 203.474616 159.460329 201.935179 157.864368 199.162197 155.137935 C 197.835554 153.834567 196.129871 152.68082 194.33109 151.643445 Q 188.143416 148.072483 187.019594 147.297777 C 183.049641 144.551394 179.026489 141.346172 176.13381 137.838383 C 174.341679 135.663886 172.908639 133.539263 172.499674 131.102098 Q 171.562047 125.542834 171.103208 124.162992 C 170.082458 121.104067 169.241253 119.112441 169.111582 117.323635 C 169.101607 117.160714 169.035108 117.007767 168.928711 116.88807 L 168.383424 116.28626 C 170.109057 105.343953 175.252706 95.937758 182.956543 88.200672 Q 186.357935 84.77933 189.217365 82.102771 Q 193.549734 78.05302 195.75748 76.307438 Q 200.495489 72.570229 205.582615 70.252761 C 209.073779 68.666775 212.910735 67.646024 216.963811 66.80482 C 217.588896 66.675148 218.194031 66.462353 218.762592 66.17641 Q 222.290331 64.390929 223.76992 63.606248 Q 234.492783 57.923962 246.698559 57.644669 C 253.032529 57.501698 260.330726 58.771817 266.179258 60.926364 Q 272.84572 63.386804 274.86062 64.065087 Q 280.379985 65.923717 283.47216 67.373381 Q 293.536689 72.101416 301.02773 80.294015 C 302.001932 81.357989 303.687665 83.196669 304.771589 84.506687 Q 308.485523 88.992002 314.357329 95.871259 Q 315.541 97.25775 317.39963 100.044032 C 320.102789 104.103758 321.91487 108.72872 322.410282 113.6097 Q 323.13844 120.78155 320.495129 127.388163 Z M 244.711288 69.091101 C 244.680333 70.282685 245.983702 71.28681 247.62282 71.329303 C 249.262071 71.373258 250.615313 70.438956 250.647532 69.246574 C 250.678487 68.054989 249.375119 67.050864 247.736 67.008372 C 246.096749 66.964416 244.743507 67.898718 244.711288 69.091101 Z M 200.099824 74.289212 Q 199.168846 74.974145 197.832229 75.905122 C 196.532186 76.8095 194.9462 78.345613 193.599608 79.476085 C 191.03942 81.627308 188.928097 84.433539 187.235713 87.226471 C 186.733651 88.05105 186.321361 89.115024 186.048717 89.949579 Q 185.882471 90.468266 185.94232 90.657787 C 186.055367 91.006903 186.510881 91.086701 186.7403 90.800758 Q 188.648804 88.386867 190.756802 85.773481 Q 194.630332 80.965649 199.458114 77.155292 Q 200.86788 76.044769 202.018302 75.323262 Q 203.50454 74.395609 204.635013 73.56438 Q 205.250123 73.108866 210.393772 70.419007 Q 210.939059 70.133064 211.215027 69.837146 C 211.308125 69.740723 211.244951 69.581127 211.111954 69.571152 Q 210.417046 69.524604 209.918309 69.687525 Q 206.590065 70.778098 206.227649 71.000867 C 205.449618 71.473006 204.661612 71.665851 203.803783 72.13134 Q 202.550289 72.812948 201.007526 73.830373 Q 200.661735 74.056468 200.256095 74.206089 C 200.199571 74.226039 200.149697 74.252638 200.099824 74.289212 Z M 276.948237 86.932182 C 276.227162 90.102525 278.614454 93.350971 282.280642 94.182167 C 285.945899 95.01343 289.500237 93.118227 290.222177 89.94795 C 290.943252 86.777607 288.55596 83.529161 284.889772 82.697965 C 281.224515 81.866702 277.670177 83.761905 276.948237 86.932182 Z M 217.423016 87.704162 C 215.836664 83.894902 211.008882 82.282317 206.641568 84.099551 C 202.274321 85.916453 200.016701 90.481566 201.602321 94.289695 C 203.188673 98.098955 208.016455 99.71154 212.383769 97.894306 C 216.751016 96.077404 219.008636 91.512291 217.423016 87.704162 Z M 256.009894 94.819754 C 255.330048 90.804083 251.1606 88.160773 246.6956 88.915729 C 242.229868 89.670286 239.160968 93.537166 239.841014 97.554499 C 240.52086 101.57017 244.690308 104.21348 249.155308 103.458524 C 253.62104 102.703967 256.68994 98.837087 256.009894 94.819754 Z M 309.518708 106.18406 C 308.315952 105.846015 306.999284 106.790292 306.57825 108.289797 C 306.154755 109.789369 306.789814 111.282257 307.990975 111.619171 C 309.193731 111.957216 310.510399 111.012939 310.931433 109.513434 C 311.354928 108.013862 310.719868 106.520974 309.518708 106.18406 Z M 180.872717 110.56587 C 179.661549 110.407804 178.484527 111.751071 178.244136 113.566709 C 178.005739 115.385207 178.793745 116.984493 180.006442 117.145618 C 181.21761 117.303685 182.394632 115.960418 182.635023 114.14478 C 182.87342 112.326282 182.085414 110.726996 180.872717 110.56587 Z M 221.056587 116.023226 C 218.759267 111.704522 212.877486 110.341305 207.917805 112.977401 C 202.959254 115.614626 200.798057 121.253688 203.095775 125.573124 C 205.393094 129.891827 211.274875 131.255044 216.234557 128.618949 C 221.193108 125.981723 223.354305 120.342661 221.056587 116.023226 Z M 263.581233 118.526058 C 261.816964 123.428185 264.712969 128.957525 270.049463 130.880259 C 275.385958 132.801131 281.144717 130.38724 282.908187 125.484182 C 284.672455 120.582055 281.776451 115.052715 276.439957 113.129981 C 271.103462 111.209109 265.344703 113.623 263.581233 118.526058 Z M 227.591515 142.583474 C 227.151362 146.173954 230.040716 149.482248 234.046977 149.9754 C 238.05377 150.466424 241.657982 147.95611 242.098933 144.364766 C 242.539086 140.774286 239.649731 137.465992 235.64347 136.97284 C 231.636677 136.481816 228.032466 138.99213 227.591515 142.583474 Z M 196.525802 140.276313 C 195.77078 141.279674 196.206344 142.882285 197.497443 143.849769 C 198.789806 144.817387 200.445615 144.790788 201.200106 143.785898 C 201.955128 142.782537 201.519564 141.179926 200.228465 140.212441 C 198.936102 139.244823 197.280293 139.271423 196.525802 140.276313 Z M 288.503194 142.433986 C 288.100447 141.41932 286.740555 141.010355 285.468341 141.516075 C 284.196992 142.021131 283.492109 143.254675 283.893992 144.26821 C 284.29674 145.282876 285.656631 145.691841 286.928845 145.186121 C 288.200194 144.681066 288.905077 143.447521 288.503194 142.433986 Z" style="fill:#f9c784;"/>
		<path d="M 320.495129 127.388163 C 318.766172 132.089598 316.555101 136.611488 314.061412 140.794236 C 312.113009 144.059306 309.63262 147.633593 306.809764 150.293528 Q 301.120828 155.656622 294.318045 159.40713 C 289.048048 162.309784 283.565257 165.052842 277.676826 167.20739 C 271.219834 169.568082 264.64647 170.844851 257.807112 170.731803 Q 245.584711 170.525658 241.431888 170.632056 Q 233.448758 170.834876 227.051615 170.68193 Q 214.041208 170.376037 202.566913 164.431083 C 200.0566 163.131039 198.487238 161.425356 196.422464 158.785371 Q 195.035973 157.016514 192.046871 155.666597 C 189.473384 154.502875 187.332136 153.625097 185.220813 151.955988 Q 183.092865 150.276904 181.247535 148.328501 C 177.719796 144.607917 174.305105 140.471718 171.538772 136.195873 Q 169.098282 132.42874 168.270377 127.893551 Q 167.312801 122.63353 168.383424 116.28626 L 168.928711 116.88807 C 169.035108 117.007767 169.101607 117.160714 169.111582 117.323635 C 169.241253 119.112441 170.082458 121.104067 171.103208 124.162992 Q 171.562047 125.542834 172.499674 131.102098 C 172.908639 133.539263 174.341679 135.663886 176.13381 137.838383 C 179.026489 141.346172 183.049641 144.551394 187.019594 147.297777 Q 188.143416 148.072483 194.33109 151.643445 C 196.129871 152.68082 197.835554 153.834567 199.162197 155.137935 C 201.935179 157.864368 203.474616 159.460329 206.590065 160.564202 C 211.145204 162.180113 215.613894 163.30061 220.28873 163.978894 Q 221.661921 164.178389 223.464027 164.470982 Q 226.692523 164.996319 232.644128 165.056167 Q 241.76438 165.149265 250.824783 165.16589 C 254.538717 165.172539 258.678241 165.15259 262.338977 164.663827 Q 268.918991 163.786048 273.344457 162.459406 Q 273.723498 162.346358 279.545431 160.484404 C 284.180367 159.004815 288.818629 157.023164 292.931553 154.788818 C 298.307947 151.86954 302.540568 147.400849 306.460648 142.729338 C 308.428999 140.385271 309.512923 138.529966 311.102234 135.49764 C 312.495375 132.84103 313.466251 131.258369 315.710571 129.768805 Q 317.931617 128.295866 320.495129 127.388163 Z" style="fill:#ebaa68;"/>
		<path d="M 182.411256 157.864368 Q 181.742948 158.40633 181.772872 160.517653 Q 181.822746 163.972244 183.764498 166.189964 Q 185.420308 168.081843 188.013744 169.757602 C 191.298764 171.8789 194.503986 173.508111 197.762406 175.419939 Q 205.017378 179.67916 213.020458 182.648312 Q 213.695416 182.897681 217.505773 183.998229 Q 219.956238 184.706437 222.067561 185.075503 Q 230.775523 186.591666 239.440262 187.130302 Q 245.747632 187.522643 251.905382 187.130302 Q 261.407999 186.525167 270.089362 184.862708 C 272.346982 184.430468 274.182337 183.911781 276.346859 183.36317 C 278.188864 182.894356 279.758226 182.242672 281.374136 181.733959 Q 283.26934 181.138799 285.098045 180.360768 Q 292.615686 177.152221 299.039429 172.693505 Q 302.377647 170.376037 306.211279 166.821699 Q 309.785566 163.51008 312.06646 159.317358 Q 313.891841 155.95919 314.407203 154.476276 Q 315.354805 151.756492 316.718022 150.310153 Q 316.608299 151.470549 316.342306 152.597697 C 313.569324 164.32801 305.004333 173.587909 295.012953 179.808831 C 283.761428 186.814435 270.624674 190.707915 257.557744 192.091081 Q 239.786053 193.97631 222.602873 190.255726 Q 206.78956 186.83106 193.217242 178.003401 C 183.348883 171.586308 175.372403 163.194213 172.506324 151.593571 Q 172.010911 149.59862 171.861289 148.002659 C 171.851315 147.876312 171.977661 147.783215 172.094034 147.829764 Q 172.370002 147.942811 172.582797 148.195505 Q 177.144585 153.571898 182.411256 157.864368 Z" style="fill:#c98950;"/>
		<path d="M 316.718022 150.310153 Q 315.354805 151.756492 314.407203 154.476276 Q 313.891841 155.95919 312.06646 159.317358 Q 309.785566 163.51008 306.211279 166.821699 Q 302.377647 170.376037 299.039429 172.693505 Q 292.615686 177.152221 285.098045 180.360768 Q 283.26934 181.138799 281.374136 181.733959 C 279.758226 182.242672 278.188864 182.894356 276.346859 183.36317 C 274.182337 183.911781 272.346982 184.430468 270.089362 184.862708 Q 261.407999 186.525167 251.905382 187.130302 Q 245.747632 187.522643 239.440262 187.130302 Q 230.775523 186.591666 222.067561 185.075503 Q 219.956238 184.706437 217.505773 183.998229 Q 213.695416 182.897681 213.020458 182.648312 Q 205.017378 179.67916 197.762406 175.419939 C 194.503986 173.508111 191.298764 171.8789 188.013744 169.757602 Q 185.420308 168.081843 183.764498 166.189964 Q 181.822746 163.972244 181.772872 160.517653 Q 181.742948 158.40633 182.411256 157.864368 Q 193.622882 166.445983 206.373945 171.925449 Q 213.259852 174.884627 220.338604 175.978525 Q 225.339281 176.749906 231.799598 177.152221 C 242.77848 177.837155 253.880383 177.790606 264.719618 176.301042 Q 273.600476 175.080797 281.237814 171.755878 Q 292.858405 166.695352 300.884759 161.308984 Q 307.99011 156.54105 315.434603 149.528797 Q 315.797019 149.18633 316.37223 148.857163 C 316.548451 148.757416 316.767895 148.887088 316.761246 149.089908 L 316.718022 150.310153 Z" style="fill:#ebaa68;"/>
		<path d="M 244.711288 69.091101 C 244.743507 67.898718 246.096749 66.964416 247.736 67.008372 C 249.375119 67.050864 250.678487 68.054989 250.647532 69.246574 C 250.615313 70.438956 249.262071 71.373258 247.62282 71.329303 C 245.983702 71.28681 244.680333 70.282685 244.711288 69.091101 Z" style="fill:#401e0d;"/>
		<path d="M 200.256095 74.206089 Q 200.661735 74.056468 201.007526 73.830373 Q 202.550289 72.812948 203.803783 72.13134 C 204.661612 71.665851 205.449618 71.473006 206.227649 71.000867 Q 206.590065 70.778098 209.918309 69.687525 Q 210.417046 69.524604 211.111954 69.571152 C 211.244951 69.581127 211.308125 69.740723 211.215027 69.837146 Q 210.939059 70.133064 210.393772 70.419007 Q 205.250123 73.108866 204.635013 73.56438 Q 203.50454 74.395609 202.018302 75.323262 Q 200.86788 76.044769 199.458114 77.155292 Q 194.630332 80.965649 190.756802 85.773481 Q 188.648804 88.386867 186.7403 90.800758 C 186.510881 91.086701 186.055367 91.006903 185.94232 90.657787 Q 185.882471 90.468266 186.048717 89.949579 C 186.321361 89.115024 186.733651 88.05105 187.235713 87.226471 C 188.928097 84.433539 191.03942 81.627308 193.599608 79.476085 C 194.9462 78.345613 196.532186 76.8095 197.832229 75.905122 Q 199.168846 74.974145 200.099824 74.289212 C 200.149697 74.252638 200.199571 74.226039 200.256095 74.206089 Z" style="fill:#fffffe;"/>
		<path d="M 276.948237 86.932182 C 277.670177 83.761905 281.224515 81.866702 284.889772 82.697965 C 288.55596 83.529161 290.943252 86.777607 290.222177 89.94795 C 289.500237 93.118227 285.945899 95.01343 282.280642 94.182167 C 278.614454 93.350971 276.227162 90.102525 276.948237 86.932182 Z" style="fill:#401e0d;"/>
		<path d="M 217.423016 87.704162 C 219.008636 91.512291 216.751016 96.077404 212.383769 97.894306 C 208.016455 99.71154 203.188673 98.098955 201.602321 94.289695 C 200.016701 90.481566 202.274321 85.916453 206.641568 84.099551 C 211.008882 82.282317 215.836664 83.894902 217.423016 87.704162 Z" style="fill:#401e0d;"/>
		<path d="M 256.009894 94.819754 C 256.68994 98.837087 253.62104 102.703967 249.155308 103.458524 C 244.690308 104.21348 240.52086 101.57017 239.841014 97.554499 C 239.160968 93.537166 242.229868 89.670286 246.6956 88.915729 C 251.1606 88.160773 255.330048 90.804083 256.009894 94.819754 Z" style="fill:#401e0d;"/>
		<path d="M 309.518708 106.18406 C 310.719868 106.520974 311.354928 108.013862 310.931433 109.513434 C 310.510399 111.012939 309.193731 111.957216 307.990975 111.619171 C 306.789814 111.282257 306.154755 109.789369 306.57825 108.289797 C 306.999284 106.790292 308.315952 105.846015 309.518708 106.18406 Z" style="fill:#401e0d;"/>
		<path d="M 180.872717 110.56587 C 182.085414 110.726996 182.87342 112.326282 182.635023 114.14478 C 182.394632 115.960418 181.21761 117.303685 180.006442 117.145618 C 178.793745 116.984493 178.005739 115.385207 178.244136 113.566709 C 178.484527 111.751071 179.661549 110.407804 180.872717 110.56587 Z" style="fill:#401e0d;"/>
		<path d="M 221.056587 116.023226 C 223.354305 120.342661 221.193108 125.981723 216.234557 128.618949 C 211.274875 131.255044 205.393094 129.891827 203.095775 125.573124 C 200.798057 121.253688 202.959254 115.614626 207.917805 112.977401 C 212.877486 110.341305 218.759267 111.704522 221.056587 116.023226 Z" style="fill:#401e0d;"/>
		<path d="M 263.581233 118.526058 C 265.344703 113.623 271.103462 111.209109 276.439957 113.129981 C 281.776451 115.052715 284.672455 120.582055 282.908187 125.484182 C 281.144717 130.38724 275.385958 132.801131 270.049463 130.880259 C 264.712969 128.957525 261.816964 123.428185 263.581233 118.526058 Z" style="fill:#401e0d;"/>
		<path d="M 227.591515 142.583474 C 228.032466 138.99213 231.636677 136.481816 235.64347 136.97284 C 239.649731 137.465992 242.539086 140.774286 242.098933 144.364766 C 241.657982 147.95611 238.05377 150.466424 234.046977 149.9754 C 230.040716 149.482248 227.151362 146.173954 227.591515 142.583474 Z" style="fill:#401e0d;"/>
		<path d="M 196.525802 140.276313 C 197.280293 139.271423 198.936102 139.244823 200.228465 140.212441 C 201.519564 141.179926 201.955128 142.782537 201.200106 143.785898 C 200.445615 144.790788 198.789806 144.817387 197.497443 143.849769 C 196.206344 142.882285 195.77078 141.279674 196.525802 140.276313 Z" style="fill:#401e0d;"/>
		<path d="M 288.503194 142.433986 C 288.905077 143.447521 288.200194 144.681066 286.928845 145.186121 C 285.656631 145.691841 284.29674 145.282876 283.893992 144.26821 C 283.492109 143.254675 284.196992 142.021131 285.468341 141.516075 C 286.740555 141.010355 288.100447 141.41932 288.503194 142.433986 Z" style="fill:#401e0d;"/>
	</g>
	<g id="surface4">
	</g>
</svg>
