<?xml version="1.0" encoding="utf-8"?>
<svg xmlns="http://www.w3.org/2000/svg" width="490pt" height="280pt" viewBox="0 0 490 280" version="1.1" xmlns:xlink="http://www.w3.org/1999/xlink">
	<g id="surface2" data-size="105.03946153366 148" data-bboxpos="192.5 50.170610096548" data-pivot="245.01973076683 124.17061009655" data-center="245.01973076683 124.17061009655">
		<path vector-effect="non-scaling-stroke" d="M 264.138413 167.125505 L 267.520778 176.108999" style="fill:none;stroke-width:0.50;stroke:#9c7625;"/>
		<path vector-effect="non-scaling-stroke" d="M 267.520778 176.108999 L 270.114897 182.67771" style="fill:none;stroke-width:0.50;stroke:#9c4a1e;"/>
		<path vector-effect="non-scaling-stroke" d="M 270.114897 182.67771 Q 270.381817 183.413822 270.765513 184.368892 Q 271.147123 185.321877 270.598688 186.078842 C 269.983523 186.927561 268.484189 187.486423 267.716797 186.4396 Q 267.566655 186.237325 267.230921 185.501213" style="fill:none;stroke-width:0.50;stroke:#9c7625;"/>
		<path vector-effect="non-scaling-stroke" d="M 267.230921 185.501213 L 265.368743 180.809276" style="fill:none;stroke-width:0.50;stroke:#9c4a1e;"/>
		<path vector-effect="non-scaling-stroke" d="M 265.368743 180.809276 L 259.544486 165.832616" style="fill:none;stroke-width:0.50;stroke:#9c7625;"/>
		<path vector-effect="non-scaling-stroke" d="M 250.888385 157.357936 Q 250.767437 157.199453 250.596442 156.90751 Q 247.553982 151.727612 243.706594 147.106576 C 243.673229 147.06487 243.6065 147.081553 243.593988 147.133685 L 240.939395 157.412154" style="fill:none;stroke-width:0.50;stroke:#9c7625;"/>
		<path vector-effect="non-scaling-stroke" d="M 230.172965 172.451374 Q 230.058273 172.459715 230.020737 172.553554 Q 227.774864 178.094209 227.695622 178.319422 Q 227.095054 180.010605 226.388136 181.657996 C 225.731265 183.194865 225.099417 184.900645 224.448802 186.533439" style="fill:none;stroke-width:0.50;stroke:#9c4a1e;"/>
		<path vector-effect="non-scaling-stroke" d="M 224.448802 186.533439 Q 223.203875 187.563579 221.840086 186.495903 Q 221.041414 185.870312 221.22075 184.754674" style="fill:none;stroke-width:0.50;stroke:#9c7625;"/>
		<path vector-effect="non-scaling-stroke" d="M 221.22075 184.754674 L 226.675908 170.597538" style="fill:none;stroke-width:0.50;stroke:#9c4a1e;"/>
		<path vector-effect="non-scaling-stroke" d="M 240.668305 188.274668 L 226.235909 188.237133" style="fill:none;stroke-width:0.50;stroke:#9c4a1e;"/>
		<path vector-effect="non-scaling-stroke" d="M 226.235909 188.237133 Q 224.997237 187.50102 224.448802 186.533439" style="fill:none;stroke-width:0.50;stroke:#ffa022;"/>
		<path vector-effect="non-scaling-stroke" d="M 221.22075 184.754674 Q 220.81203 183.830883 219.988335 182.91752 Q 218.718384 181.507854 218.634972 181.401503 Q 216.266065 178.354872 214.387205 175.681511 Q 212.91498 173.58995 211.678394 171.062561 Q 211.146641 169.980287 210.911002 169.064838 C 210.594036 167.838679 210.512709 166.987875 210.201998 166.055743 C 210.158207 165.922284 209.978871 165.899345 209.9038 166.018208 Q 209.628539 166.445695 209.438777 167.152614 Q 208.829867 169.396402 209.119725 172.059336 Q 209.684843 177.260087 212.70645 181.710128 Q 215.248436 185.451165 218.478574 188.364337" style="fill:none;stroke-width:0.50;stroke:#ffa022;"/>
		<path vector-effect="non-scaling-stroke" d="M 218.478574 188.364337 L 215.006541 188.597891" style="fill:none;stroke-width:0.50;stroke:#9c4a1e;"/>
		<path vector-effect="non-scaling-stroke" d="M 276.18522 188.495711 L 272.054231 188.335142" style="fill:none;stroke-width:0.50;stroke:#9c4a1e;"/>
		<path vector-effect="non-scaling-stroke" d="M 272.054231 188.335142 L 272.506742 188.301777 C 272.569302 188.295522 272.629775 188.270498 272.675652 188.226706 Q 273.926835 187.027656 274.852711 186.116378 Q 278.474885 182.548421 280.7291 178.025394 Q 282.26597 174.943313 282.910329 172.025972 Q 283.723598 168.355835 283.104263 164.387499 Q 282.876964 162.927786 282.167961 161.301248 Q 282.119999 161.190727 282.017819 161.115656 C 281.949004 161.065608 281.850994 161.107314 281.838482 161.190727 C 281.404739 164.295746 280.48512 167.680196 279.069197 170.58294 Q 277.713749 173.356396 276.101808 175.635635 Q 273.505604 179.305771 270.114897 182.67771" style="fill:none;stroke-width:0.50;stroke:#ffa022;"/>
		<path vector-effect="non-scaling-stroke" d="M 267.520778 176.108999 Q 267.760588 174.528338 267.74182 173.03943 C 267.723053 171.500475 267.585422 170.06787 267.16002 168.547683 Q 266.922295 167.698964 266.690827 166.837733" style="fill:none;stroke-width:0.50;stroke:#ffa022;"/>
		<path vector-effect="non-scaling-stroke" d="M 265.368743 180.809276 Q 264.405332 182.961311 262.935192 184.785953 Q 261.408749 186.683581 259.744675 188.303863" style="fill:none;stroke-width:0.50;stroke:#ffa022;"/>
		<path vector-effect="non-scaling-stroke" d="M 259.744675 188.303863 L 240.668305 188.274668" style="fill:none;stroke-width:0.50;stroke:#9c7625;"/>
		<path vector-effect="non-scaling-stroke" d="M 240.668305 188.274668 Q 240.578637 184.956948 241.637972 181.472403 Q 242.697307 177.987859 244.409342 175.124735 Q 245.272658 173.675448 246.206875 172.432606 Q 249.524595 168.011759 253.565917 164.823328 C 253.772362 164.660674 253.849518 164.383329 253.757765 164.137263 L 252.594164 161.028073 C 252.542032 160.892528 252.431511 160.788263 252.291795 160.746557 C 251.897673 160.625609 251.753787 160.298216 251.459759 160.047979 Q 248.840615 157.818788 246.54678 156.104667 Q 246.100525 155.771019 245.625075 155.631303 C 245.52081 155.602109 245.414459 155.666753 245.393606 155.773104 C 244.651238 159.78106 243.035126 164.147689 240.474372 167.267305 Q 240.3284 167.444556 240.224135 167.317353" style="fill:none;stroke-width:0.50;stroke:#ffa022;"/>
		<path vector-effect="non-scaling-stroke" d="M 226.235909 188.237133 L 218.478574 188.364337" style="fill:none;stroke-width:0.50;stroke:#9c7625;"/>
		<path vector-effect="non-scaling-stroke" d="M 272.054231 188.335142 L 264.173863 188.291351" style="fill:none;stroke-width:0.50;stroke:#9c7625;"/>
		<path vector-effect="non-scaling-stroke" d="M 264.173863 188.291351 Q 264.211399 187.947276 264.534621 187.732489 Q 265.998505 186.760737 267.230921 185.501213" style="fill:none;stroke-width:0.50;stroke:#ffa022;"/>
		<path vector-effect="non-scaling-stroke" d="M 264.173863 188.291351 L 259.744675 188.303863" style="fill:none;stroke-width:0.50;stroke:#9c4a1e;"/>
		<path vector-effect="non-scaling-stroke" d="M 235.805374 132.317593 Q 233.540732 132.269631 231.340735 132.528209" style="fill:none;stroke-width:0.50;stroke:#9c4a1e;"/>
		<path vector-effect="non-scaling-stroke" d="M 231.340735 132.528209 L 227.095054 133.034938" style="fill:none;stroke-width:0.50;stroke:#9c7625;"/>
		<path vector-effect="non-scaling-stroke" d="M 226.830221 135.182802 Q 227.063775 135.326688 227.570504 135.376735 Q 230.129173 135.626972 232.752487 135.825076" style="fill:none;stroke-width:0.50;stroke:#9c7625;"/>
		<path vector-effect="non-scaling-stroke" d="M 232.752487 135.825076 Q 238.641388 136.210857 244.66792 136.240052" style="fill:none;stroke-width:0.50;stroke:#9c4a1e;"/>
		<path vector-effect="non-scaling-stroke" d="M 247.535214 136.250478 Q 255.267526 136.233796 262.91851 135.553986 Q 263.116614 135.537304 263.74012 135.430953" style="fill:none;stroke-width:0.50;stroke:#9c4a1e;"/>
		<path vector-effect="non-scaling-stroke" d="M 259.498609 132.53655 Q 259.448562 132.465649 259.377662 132.457308 Q 257.834536 132.282143 256.416529 132.328019" style="fill:none;stroke-width:0.50;stroke:#9c4a1e;"/>
		<path vector-effect="non-scaling-stroke" d="M 232.752487 135.825076 L 231.340735 132.528209" style="fill:none;stroke-width:0.50;stroke:#ffa022;"/>
		<path d="M 238.459967 90.934714 C 238.489161 90.997273 238.426602 91.064003 238.364043 91.036894 Q 237.938641 90.855473 237.4903 90.455094 Q 235.807459 88.951589 234.869072 87.96524 Q 230.596282 83.473493 229.979031 77.697198 Q 229.574482 73.901942 231.378271 70.32773 C 232.735805 67.641857 235.063005 65.65039 237.703001 63.938355 Q 240.105273 62.382717 242.121763 61.217032 C 246.457112 58.710495 250.193978 55.236377 251.949805 50.396384 C 252.020706 50.200365 252.250089 50.112783 252.433596 50.210792 L 252.650468 50.329654 C 252.675491 50.342166 252.69843 50.356763 252.719283 50.375531 Q 257.065059 53.845479 258.558137 59.142153 Q 258.724961 59.73438 258.797947 60.268218 C 258.906383 61.060634 259.137852 61.830112 259.106572 62.622527 Q 259.106572 62.653807 259.104487 63.625559 C 259.102402 63.777786 259.085719 63.930014 259.050269 64.080156 Q 258.843824 64.983093 258.758326 65.479395 Q 258.631123 66.22802 258.40591 66.87655 Q 257.448755 69.614555 255.599089 71.530951 Q 253.365727 73.843554 250.335779 75.31995 Q 248.513223 76.20829 246.863746 76.888099 C 246.742799 76.938147 246.61351 76.840137 246.630192 76.710848 Q 246.64896 76.564877 246.778249 76.450185 Q 247.743745 75.593125 248.542417 74.46706 Q 250.809143 71.276543 251.855966 67.556359 Q 251.974829 67.137213 252.087435 66.578351 Q 252.266772 65.700438 252.291795 65.583661 Q 253.065443 62.122054 252.646297 58.831443 C 252.619188 58.624998 252.346013 58.57078 252.243833 58.752201 Q 251.078148 60.820824 249.184691 62.841485 C 247.793792 64.324136 246.584315 65.218732 244.496925 66.966218 C 242.607639 68.546879 241.383565 69.775124 240.028116 71.52678 C 238.760251 73.16583 237.938641 74.980045 237.348499 76.92772 Q 237.044045 77.926581 236.866794 78.994257 Q 236.39343 81.81776 236.731249 85.058325 Q 236.787552 85.602589 236.906415 86.061356 C 237.029448 86.532635 237.023192 86.885052 237.167078 87.393866 Q 237.715513 89.308176 238.459967 90.934714 Z" style="fill:#ff741a;"/>
		<path d="M 244.790953 81.769798 Q 244.966119 81.828187 245.139199 82.020035 Q 247.960617 85.150078 249.286871 89.087134 Q 249.493316 89.696043 249.639287 90.427985 Q 249.910377 91.779263 249.910377 91.785519 C 250.000045 92.876133 250.014642 94.310823 249.72687 95.58703 Q 249.051231 98.587784 247.287063 100.85034 Q 245.720999 102.854318 242.951714 104.724836 Q 242.876643 104.776969 242.811999 104.831187 Q 242.647259 104.964646 242.474179 104.827016 C 242.426217 104.789481 242.413705 104.720666 242.444985 104.668533 Q 244.01939 101.970148 244.482328 98.669111 Q 244.574081 98.026837 244.561569 95.295087 Q 244.557399 94.008454 244.29465 92.311015 Q 244.08612 90.968079 243.933893 89.33737 Q 243.573135 85.498324 244.590764 81.874064 C 244.613702 81.788566 244.705455 81.740604 244.790953 81.769798 Z" style="fill:#ff741a;"/>
		<path d="M 260.897849 89.994242 C 261.010456 89.8441 261.246095 89.87955 261.308654 90.056801 C 261.767421 91.347605 261.719459 92.969972 261.631877 94.590254 C 261.59017 95.343049 261.373299 95.951958 261.200218 96.665132 Q 260.808181 98.29167 259.984486 99.876502 Q 259.296335 101.200671 258.78752 102.220385 Q 258.537284 102.722944 258.203635 104.036686 C 257.632261 106.299242 257.780318 108.768243 258.266194 111.158002 Q 258.314156 111.391557 258.549796 113.141128 Q 258.71662 114.381884 258.572734 115.120082 Q 258.253682 116.759132 257.573873 118.016571 C 257.473778 118.202163 257.21103 118.218845 257.090082 118.045765 Q 254.712834 114.677997 253.469993 111.024543 Q 252.677577 108.695257 252.73388 106.274218 Q 252.781842 104.232704 253.609708 102.272518 Q 254.354162 100.506264 255.724207 98.742096 Q 257.500887 96.456602 257.590555 96.339825 Q 258.891786 94.619448 260.01368 92.465328 C 260.311878 91.893954 260.434911 91.310069 260.712257 90.676136 Q 260.774816 90.53225 260.79984 90.321634 Q 260.831119 90.08391 260.897849 89.994242 Z" style="fill:#ff741a;"/>
		<path d="M 234.203859 118.886143 C 234.333148 119.0342 234.166324 119.253157 233.989073 119.169744 Q 230.767277 117.655813 228.458844 114.809372 C 226.986618 112.993071 225.779227 110.338478 225.741691 107.921609 Q 225.725009 106.820568 225.80008 105.738295 C 225.845957 105.079338 226.231738 103.867776 226.559131 103.156687 Q 227.639319 100.798207 229.030217 99.159157 Q 230.838177 97.027975 231.803673 95.576603 Q 232.333341 94.782102 232.506421 94.554804 Q 232.541871 94.508927 232.571065 94.504756 C 232.696184 94.485989 232.810875 94.577742 232.819217 94.704946 C 232.867179 95.48485 232.873435 96.389872 232.717037 97.223994 Q 232.437606 98.744182 232.381303 98.979821 Q 232.030971 100.454132 231.042537 103.596686 Q 230.811068 104.334884 230.771447 104.685216 C 230.715144 105.208627 230.575428 105.588153 230.496187 106.163697 Q 230.206329 108.30739 230.556661 110.636676 Q 230.704717 111.635537 230.842348 112.223593 Q 231.730687 116.041787 234.203859 118.886143 Z" style="fill:#ff741a;"/>
		<path d="M 217.821703 135.347541 C 217.256585 133.723088 218.019807 132.390578 219.473264 131.675319 Q 220.073832 131.379206 220.845395 131.087263 Q 221.466816 130.849538 221.875536 130.772382 C 222.357241 130.682714 222.786814 130.459586 223.264349 130.409539 C 224.040082 130.328212 224.965958 130.011245 225.827189 129.97371 C 226.865671 129.929919 228.041783 129.615037 229.140739 129.554564 Q 230.51704 129.477407 232.84424 129.204232 Q 233.369737 129.143759 235.844994 129.122905 C 236.280823 129.118735 236.789638 128.995702 237.171248 128.987361 C 241.433612 128.899778 244.83683 128.735039 248.638341 128.812195 Q 253.780703 128.914375 255.102786 128.995702 Q 257.413304 129.137503 258.009702 129.137503 Q 259.206667 129.141673 260.916617 129.306412 Q 264.613863 129.662999 266.211206 129.869445 Q 268.59471 130.17807 270.844754 130.816173 Q 272.193947 131.197784 273.303329 131.885935 Q 275.025791 132.953611 274.754701 134.96593 Q 274.637924 135.839673 273.99565 136.194175 Q 272.784088 136.865643 272.189776 137.001188 Q 271.420298 137.180524 270.976128 137.357775 C 270.819731 137.420334 270.654992 137.455784 270.486082 137.464126 Q 269.712434 137.499576 268.788643 137.810286 C 268.769876 137.816542 268.753193 137.820713 268.736511 137.824883 L 265.737842 138.298248 C 265.727416 138.300333 265.714904 138.302418 265.702392 138.302418 Q 264.211399 138.319101 262.564008 138.671517 C 262.455572 138.694456 262.345051 138.706967 262.23453 138.709053 Q 260.157566 138.731991 257.809512 138.959289 Q 255.742975 139.159479 254.896341 139.146967 C 253.847433 139.13237 252.143739 139.155308 250.994736 139.215782 Q 246.354932 139.455592 240.974845 139.219953 C 238.968781 139.13237 236.353809 139.215782 233.941111 138.969716 Q 231.816185 138.752844 230.913248 138.740332 Q 230.064529 138.727821 228.636095 138.513034 Q 227.497518 138.342039 226.34643 138.27948 C 226.231738 138.273224 226.117046 138.256542 226.006525 138.229433 Q 224.794963 137.93749 223.71269 137.881187 C 223.566718 137.874931 223.424917 137.845736 223.287287 137.797774 C 222.626246 137.566306 221.954777 137.52877 221.370892 137.341093 Q 219.708904 136.811425 219.03118 136.492374 Q 218.426441 136.210857 217.928053 135.549816 C 217.882177 135.489342 217.846726 135.420527 217.821703 135.347541 Z M 235.805374 132.317593 Q 233.540732 132.269631 231.340735 132.528209 L 227.095054 133.034938 L 224.607285 133.420719 C 224.576006 133.426975 224.546812 133.433231 224.517617 133.441572 Q 223.600083 133.750197 222.507383 133.856548 Q 222.171649 133.887828 221.981886 134.238159 C 221.948521 134.296547 221.973545 134.371618 222.036104 134.400813 C 222.388521 134.567637 222.642928 134.525931 223.020368 134.615599 Q 224.892972 135.072281 226.830221 135.182802 Q 227.063775 135.326688 227.570504 135.376735 Q 230.129173 135.626972 232.752487 135.825076 Q 238.641388 136.210857 244.66792 136.240052 L 247.535214 136.250478 Q 255.267526 136.233796 262.91851 135.553986 Q 263.116614 135.537304 263.74012 135.430953 C 265.030924 135.316261 266.277936 135.06811 267.572911 134.942992 Q 268.342388 134.870006 269.005515 134.65522 C 269.422576 134.52176 269.966841 134.648964 270.310916 134.292377 C 270.392243 134.206879 270.358878 134.067164 270.248357 134.027543 Q 269.545609 133.773136 269.232813 133.752283 Q 268.698975 133.712662 268.192246 133.539582 Q 267.470731 133.29143 266.51149 133.293516 C 266.40514 133.293516 266.300875 133.283089 266.194524 133.264321 Q 264.522109 132.959867 264.225996 132.947355 Q 263.865238 132.930672 262.849695 132.801384 Q 261.538038 132.634559 261.533867 132.632474 Q 261.427517 132.60745 259.84477 132.503185 Q 259.667519 132.492758 259.498609 132.53655 Q 259.448562 132.465649 259.377662 132.457308 Q 257.834536 132.282143 256.416529 132.328019 Q 255.50525 132.182048 254.604399 132.192475 Q 253.34696 132.204986 252.786013 132.179963 Q 251.440991 132.121574 249.107534 132.098636 Q 243.660718 132.044418 238.85409 132.190389 Q 238.572573 132.19873 237.35684 132.186219 Q 236.583192 132.177877 235.805374 132.317593 Z" style="fill:#381f21;"/>
		<path d="M 264.138413 167.125505 L 267.520778 176.108999 L 270.114897 182.67771 Q 270.381817 183.413822 270.765513 184.368892 Q 271.147123 185.321877 270.598688 186.078842 C 269.983523 186.927561 268.484189 187.486423 267.716797 186.4396 Q 267.566655 186.237325 267.230921 185.501213 L 265.368743 180.809276 L 259.544486 165.832616 Q 259.554913 165.703327 259.529889 165.640767 Q 256.896149 158.898976 256.137098 156.778221 Q 255.953591 156.267321 255.592833 156.315283 C 255.519847 156.32571 255.451032 156.344478 255.382217 156.373672 L 254.862976 156.594714 C 254.792076 156.625994 254.71492 156.644762 254.635678 156.646847 Q 253.841177 156.676041 253.04042 156.967984 C 252.877766 157.026372 252.708856 157.057652 252.535776 157.063908 Q 251.674545 157.095187 250.888385 157.357936 Q 250.767437 157.199453 250.596442 156.90751 Q 247.553982 151.727612 243.706594 147.106576 C 243.673229 147.06487 243.6065 147.081553 243.593988 147.133685 L 240.939395 157.412154 Q 240.146979 157.097273 239.381672 157.072249 C 239.244042 157.068078 239.106411 157.043055 238.975037 156.995093 Q 238.117977 156.688553 237.406888 156.634335 C 237.367267 156.630164 237.327646 156.621823 237.290111 156.609311 L 236.460159 156.336136 C 236.357979 156.300686 236.245373 156.352819 236.207837 156.454999 L 230.093723 172.286635 C 230.087467 172.301232 230.087467 172.315829 230.089552 172.330426 Q 230.112491 172.422179 230.172965 172.451374 Q 230.058273 172.459715 230.020737 172.553554 Q 227.774864 178.094209 227.695622 178.319422 Q 227.095054 180.010605 226.388136 181.657996 C 225.731265 183.194865 225.099417 184.900645 224.448802 186.533439 Q 223.203875 187.563579 221.840086 186.495903 Q 221.041414 185.870312 221.22075 184.754674 L 226.675908 170.597538 L 232.746231 155.255948 C 232.833814 155.036991 232.719122 154.78884 232.495994 154.709598 L 231.903768 154.498983 C 231.885 154.492727 231.868318 154.486471 231.85372 154.476044 Q 229.601591 153.131022 228.953061 152.682682 Q 224.813731 149.819558 221.927668 145.753213 Q 221.137338 144.63966 220.39914 143.240421 C 219.467008 141.467911 218.839332 140.095781 218.31592 138.406684 Q 218.211655 138.073035 218.21374 137.758154 C 218.215825 137.635121 218.345114 137.557964 218.45355 137.614268 Q 219.293928 138.054267 220.0217 138.31076 Q 222.401033 139.153223 224.713636 139.536919 Q 226.160838 139.778814 226.237994 139.797582 Q 227.120078 140.004027 227.764437 139.995686 Q 227.966712 139.993601 229.386805 140.222984 Q 230.293912 140.368956 231.013343 140.393979 Q 232.358364 140.441941 234.871157 140.685922 Q 236.524804 140.84649 237.594565 140.829808 C 238.79153 140.813126 240.161576 140.954926 241.233423 140.994547 Q 243.760812 141.092556 248.848957 141.044594 Q 250.569333 141.029997 251.422223 140.950756 Q 252.80478 140.821467 253.989234 140.821467 Q 255.930653 140.823552 258.841738 140.539951 C 260.341073 140.393979 261.923819 140.462794 263.283438 140.175022 Q 264.121731 139.999857 264.866185 139.974833 Q 265.389596 139.958151 266.446846 139.728767 C 267.193385 139.566113 267.898218 139.591137 268.621819 139.347156 Q 269.226558 139.140711 269.54978 139.140711 C 269.885514 139.140711 270.342196 138.905071 270.775939 138.788294 Q 271.660109 138.552655 272.750723 138.14185 Q 273.392997 137.90204 273.981053 137.5246 C 274.13328 137.42659 274.327214 137.562135 274.289678 137.739386 C 273.966456 139.236635 273.497262 140.573315 272.786173 141.982982 Q 268.66561 150.151122 260.45785 154.501068 C 260.399461 154.532347 260.336902 154.555286 260.272258 154.571968 Q 259.905244 154.663722 259.627898 154.845143 C 259.488183 154.936897 259.43188 155.112062 259.492354 155.26846 L 264.138413 167.125505 Z" style="fill:#381f21;"/>
		<path d="M 276.18522 188.495711 L 272.054231 188.335142 L 272.506742 188.301777 C 272.569302 188.295522 272.629775 188.270498 272.675652 188.226706 Q 273.926835 187.027656 274.852711 186.116378 Q 278.474885 182.548421 280.7291 178.025394 Q 282.26597 174.943313 282.910329 172.025972 Q 283.723598 168.355835 283.104263 164.387499 Q 282.876964 162.927786 282.167961 161.301248 Q 282.119999 161.190727 282.017819 161.115656 C 281.949004 161.065608 281.850994 161.107314 281.838482 161.190727 C 281.404739 164.295746 280.48512 167.680196 279.069197 170.58294 Q 277.713749 173.356396 276.101808 175.635635 Q 273.505604 179.305771 270.114897 182.67771 L 267.520778 176.108999 Q 267.760588 174.528338 267.74182 173.03943 C 267.723053 171.500475 267.585422 170.06787 267.16002 168.547683 Q 266.922295 167.698964 266.690827 166.837733 C 273.051007 164.806645 276.085126 158.909403 277.588631 152.884957 Q 278.074507 150.941452 278.595833 147.857286 Q 279.229766 144.109993 280.078485 139.703743 C 280.097253 139.607819 280.203603 139.555687 280.291186 139.601563 Q 280.468437 139.693317 280.578958 139.910188 Q 281.198294 141.134263 281.819715 142.940137 Q 282.927012 146.161933 283.615162 149.431691 Q 284.782933 154.972347 285.222933 157.051396 Q 285.293833 157.393386 285.485681 157.870921 C 285.519046 157.956418 285.631652 157.973101 285.690041 157.9022 C 287.729469 155.40609 288.705392 152.576331 289.241315 149.425435 C 289.260083 149.314914 289.406055 149.289891 289.462358 149.385815 Q 289.729277 149.848752 289.825201 150.082307 Q 290.538375 151.790171 291.239038 153.992253 Q 291.964724 156.269407 292.404723 159.357743 Q 292.794675 162.093664 292.602827 164.837925 Q 292.260837 169.759245 290.215153 174.16758 Q 289.053638 176.669946 287.12056 179.337051 Q 286.278097 180.496481 285.072791 181.720555 Q 283.414973 183.401311 282.816491 183.914296 Q 282.268055 184.385575 280.385025 185.788985 Q 279.73441 186.274861 278.285123 187.138177 Q 277.24247 187.761683 276.18522 188.495711 Z" style="fill:#ff741a;"/>
		<path d="M 226.675908 170.597538 L 221.22075 184.754674 Q 220.81203 183.830883 219.988335 182.91752 Q 218.718384 181.507854 218.634972 181.401503 Q 216.266065 178.354872 214.387205 175.681511 Q 212.91498 173.58995 211.678394 171.062561 Q 211.146641 169.980287 210.911002 169.064838 C 210.594036 167.838679 210.512709 166.987875 210.201998 166.055743 C 210.158207 165.922284 209.978871 165.899345 209.9038 166.018208 Q 209.628539 166.445695 209.438777 167.152614 Q 208.829867 169.396402 209.119725 172.059336 Q 209.684843 177.260087 212.70645 181.710128 Q 215.248436 185.451165 218.478574 188.364337 L 215.006541 188.597891 C 214.989859 188.326801 214.90019 188.155806 214.643698 188.032773 Q 210.904746 186.23524 207.778874 183.56605 Q 202.004664 178.634303 200.413576 171.273176 Q 199.312535 166.178776 199.510639 160.994708 Q 199.648269 157.389215 200.125804 154.486471 Q 201.014144 149.102213 203.264188 144.464495 Q 203.395562 144.19132 203.608264 144.051604 C 203.733382 143.970277 203.900206 144.047434 203.918974 144.19549 Q 203.948168 144.433215 204.146272 147.7134 Q 204.225514 149.01463 204.894897 151.592067 Q 206.106459 156.25898 209.192711 159.98125 Q 209.332426 160.148074 210.035174 160.606841 C 210.095648 160.646462 210.176974 160.636035 210.227022 160.581817 C 210.877637 159.858217 211.096594 159.190919 211.363513 158.194143 Q 212.74607 153.022587 214.408058 146.239089 C 214.499812 145.863734 214.483129 145.471697 214.670807 145.21729 C 214.825119 145.010845 215.150427 145.075489 215.210901 145.325726 C 215.381896 146.013876 215.703033 147.031505 215.796872 147.803068 C 215.899052 148.639275 216.120094 149.331597 216.165971 150.042686 Q 216.222274 150.897661 216.470425 152.409507 C 216.610141 153.262397 216.568434 154.056898 216.664359 154.901446 Q 216.910424 157.049311 217.160661 158.803052 Q 217.231561 159.291014 217.569381 160.63395 Q 218.766346 165.373848 222.549089 168.318299 Q 224.19648 169.600762 226.371454 170.607964 C 226.427757 170.632988 226.490316 170.639244 226.55079 170.626732 L 226.675908 170.597538 Z" style="fill:#ff741a;"/>
		<path d="M 250.888385 157.357936 L 251.98317 159.534994 C 251.999853 159.568359 252.012364 159.603809 252.022791 159.63926 C 252.348098 160.913381 253.545064 161.355466 254.456342 162.149967 Q 256.368567 163.822381 259.156619 166.134985 C 259.258799 166.220482 259.4006 166.237165 259.517377 166.176691 Q 259.582022 166.145411 259.544486 165.832616 L 265.368743 180.809276 Q 264.405332 182.961311 262.935192 184.785953 Q 261.408749 186.683581 259.744675 188.303863 L 240.668305 188.274668 Q 240.578637 184.956948 241.637972 181.472403 Q 242.697307 177.987859 244.409342 175.124735 Q 245.272658 173.675448 246.206875 172.432606 Q 249.524595 168.011759 253.565917 164.823328 C 253.772362 164.660674 253.849518 164.383329 253.757765 164.137263 L 252.594164 161.028073 C 252.542032 160.892528 252.431511 160.788263 252.291795 160.746557 C 251.897673 160.625609 251.753787 160.298216 251.459759 160.047979 Q 248.840615 157.818788 246.54678 156.104667 Q 246.100525 155.771019 245.625075 155.631303 C 245.52081 155.602109 245.414459 155.666753 245.393606 155.773104 C 244.651238 159.78106 243.035126 164.147689 240.474372 167.267305 Q 240.3284 167.444556 240.224135 167.317353 Q 240.188685 167.171381 239.959301 167.242282 Q 239.652761 167.334035 239.485937 167.452898 C 239.423378 167.494604 239.354563 167.523798 239.281577 167.534224 Q 238.841578 167.60304 238.334849 167.815741 C 238.013712 167.951285 237.563286 167.974224 237.260916 167.970053 C 237.156651 167.967968 237.089921 167.857447 237.139969 167.765693 C 238.622621 165.029773 239.646505 162.089493 240.574466 158.932341 Q 240.668305 158.613289 240.939395 157.412154 L 243.593988 147.133685 C 243.6065 147.081553 243.673229 147.06487 243.706594 147.106576 Q 247.553982 151.727612 250.596442 156.90751 Q 250.767437 157.199453 250.888385 157.357936 Z" style="fill:#ffcc29;"/>
		<path d="M 240.668305 188.274668 L 226.235909 188.237133 Q 224.997237 187.50102 224.448802 186.533439 C 225.099417 184.900645 225.731265 183.194865 226.388136 181.657996 Q 227.095054 180.010605 227.695622 178.319422 Q 227.774864 178.094209 230.020737 172.553554 Q 230.058273 172.459715 230.172965 172.451374 Q 232.068507 172.484739 233.69296 171.952986 Q 237.290111 170.776874 239.91551 167.911665 Q 240.157405 167.648916 240.224135 167.317353 Q 240.3284 167.444556 240.474372 167.267305 C 243.035126 164.147689 244.651238 159.78106 245.393606 155.773104 C 245.414459 155.666753 245.52081 155.602109 245.625075 155.631303 Q 246.100525 155.771019 246.54678 156.104667 Q 248.840615 157.818788 251.459759 160.047979 C 251.753787 160.298216 251.897673 160.625609 252.291795 160.746557 C 252.431511 160.788263 252.542032 160.892528 252.594164 161.028073 L 253.757765 164.137263 C 253.849518 164.383329 253.772362 164.660674 253.565917 164.823328 Q 249.524595 168.011759 246.206875 172.432606 Q 245.272658 173.675448 244.409342 175.124735 Q 242.697307 177.987859 241.637972 181.472403 Q 240.578637 184.956948 240.668305 188.274668 Z" style="fill:#ff741a;"/>
		<path d="M 272.054231 188.335142 L 264.173863 188.291351 Q 264.211399 187.947276 264.534621 187.732489 Q 265.998505 186.760737 267.230921 185.501213 Q 267.566655 186.237325 267.716797 186.4396 C 268.484189 187.486423 269.983523 186.927561 270.598688 186.078842 Q 271.147123 185.321877 270.765513 184.368892 Q 270.381817 183.413822 270.114897 182.67771 Q 273.505604 179.305771 276.101808 175.635635 Q 277.713749 173.356396 279.069197 170.58294 C 280.48512 167.680196 281.404739 164.295746 281.838482 161.190727 C 281.850994 161.107314 281.949004 161.065608 282.017819 161.115656 Q 282.119999 161.190727 282.167961 161.301248 Q 282.876964 162.927786 283.104263 164.387499 Q 283.723598 168.355835 282.910329 172.025972 Q 282.26597 174.943313 280.7291 178.025394 Q 278.474885 182.548421 274.852711 186.116378 Q 273.926835 187.027656 272.675652 188.226706 C 272.629775 188.270498 272.569302 188.295522 272.506742 188.301777 L 272.054231 188.335142 Z" style="fill:#ffcc29;"/>
		<path d="M 221.22075 184.754674 Q 221.041414 185.870312 221.840086 186.495903 Q 223.203875 187.563579 224.448802 186.533439 Q 224.997237 187.50102 226.235909 188.237133 L 218.478574 188.364337 Q 215.248436 185.451165 212.70645 181.710128 Q 209.684843 177.260087 209.119725 172.059336 Q 208.829867 169.396402 209.438777 167.152614 Q 209.628539 166.445695 209.9038 166.018208 C 209.978871 165.899345 210.158207 165.922284 210.201998 166.055743 C 210.512709 166.987875 210.594036 167.838679 210.911002 169.064838 Q 211.146641 169.980287 211.678394 171.062561 Q 212.91498 173.58995 214.387205 175.681511 Q 216.266065 178.354872 218.634972 181.401503 Q 218.718384 181.507854 219.988335 182.91752 Q 220.81203 183.830883 221.22075 184.754674 Z" style="fill:#ffcc29;"/>
		<path d="M 266.690827 166.837733 Q 266.922295 167.698964 267.16002 168.547683 C 267.585422 170.06787 267.723053 171.500475 267.74182 173.03943 Q 267.760588 174.528338 267.520778 176.108999 L 264.138413 167.125505 Q 265.41462 167.154699 266.690827 166.837733 Z" style="fill:#ffcc29;"/>
		<path d="M 265.368743 180.809276 L 267.230921 185.501213 Q 265.998505 186.760737 264.534621 187.732489 Q 264.211399 187.947276 264.173863 188.291351 L 259.744675 188.303863 Q 261.408749 186.683581 262.935192 184.785953 Q 264.405332 182.961311 265.368743 180.809276 Z" style="fill:#ff741a;"/>
		<path d="M 226.235909 188.237133 L 240.668305 188.274668 L 259.744675 188.303863 L 264.173863 188.291351 L 272.054231 188.335142 L 276.18522 188.495711 Q 277.559437 188.652109 280.17858 188.837701 Q 281.525687 188.93154 287.270702 189.611349 Q 291.068043 190.05969 295.32415 191.050209 Q 296.377229 191.296275 297.250972 191.761299 C 297.313531 191.794663 297.367749 191.844711 297.409455 191.905185 C 297.968317 192.743477 296.629551 193.014567 296.193722 193.262718 C 296.095713 193.319021 295.987277 193.350301 295.876756 193.354472 C 295.370027 193.375325 294.896663 193.715229 294.375336 193.794471 Q 293.926996 193.863286 293.305575 194.090584 C 293.17003 194.140632 293.028229 194.171911 292.886429 194.184423 Q 292.148231 194.244897 291.359985 194.507645 C 291.234867 194.549351 291.105578 194.57646 290.976289 194.591057 Q 290.148423 194.682811 289.27468 194.941389 C 289.151647 194.976839 289.024444 195.001863 288.89724 195.014374 Q 287.912976 195.099872 286.928712 195.360535 C 286.807764 195.3939 286.684731 195.414753 286.557528 195.423094 Q 285.479425 195.49608 284.169854 195.792193 C 284.019712 195.825558 283.867484 195.846411 283.715257 195.856838 C 282.487012 195.929823 281.321327 196.238448 280.239054 196.305178 C 279.069197 196.376079 277.745029 196.642998 276.608537 196.722239 Q 274.783896 196.847358 274.149963 196.916173 Q 272.492145 197.095509 271.695559 197.141386 Q 269.576889 197.264419 268.538407 197.399963 C 267.003622 197.598067 265.479264 197.539679 263.756802 197.698162 C 262.997751 197.769062 261.890454 197.698162 260.977091 197.794086 C 259.025245 197.996361 256.981646 197.929631 255.02146 197.99219 Q 245.716828 198.290389 237.794755 198.090199 C 233.303007 197.977593 231.065475 198.000531 227.524627 197.794086 C 225.097332 197.652285 222.949468 197.585556 220.653547 197.391622 C 219.160469 197.266504 217.016775 197.1393 215.419431 196.957879 C 213.442562 196.734751 212.080858 196.693045 210.270813 196.38859 C 209.572236 196.269728 208.902853 196.284325 208.122949 196.142524 C 206.844657 195.906885 205.83954 195.871435 204.694708 195.637881 Q 204.569589 195.612857 202.822104 195.320914 Q 199.750449 194.810014 196.678795 194.082243 Q 195.296238 193.75485 194.683158 193.527552 C 194.207708 193.354472 192.176621 192.93324 192.54155 192.090777 C 192.71463 191.692483 193.557093 191.550683 193.817756 191.398455 C 193.830268 191.3922 193.84278 191.388029 193.855292 191.383858 L 195.536048 190.968883 L 197.921637 190.478836 C 197.932063 190.476751 197.940404 190.476751 197.948746 190.476751 Q 198.699456 190.420447 198.789124 190.391253 C 199.696231 190.09931 200.807699 190.061775 201.769025 189.909548 C 202.565611 189.784429 203.038975 189.667652 203.593666 189.640543 C 205.067977 189.565472 206.617359 189.231823 208.183423 189.179691 Q 209.207308 189.144241 210.865125 188.923198 C 212.09337 188.758459 213.619813 188.825189 215.006541 188.597891 L 218.478574 188.364337 L 226.235909 188.237133 Z" style="fill:#381f21;"/>
		<path d="M 235.805374 132.317593 Q 236.73959 132.611621 237.646698 132.807639 Q 238.797786 133.055791 239.477596 133.306027 C 241.494086 134.050481 242.862046 134.8283 244.66792 136.240052 Q 238.641388 136.210857 232.752487 135.825076 L 231.340735 132.528209 Q 233.540732 132.269631 235.805374 132.317593 Z" style="fill:#ff741a;"/>
		<path d="M 259.498609 132.53655 Q 259.411027 132.640815 259.415197 132.653327 Q 259.46733 132.876455 259.67169 132.982805 Q 261.85709 134.11304 263.74012 135.430953 Q 263.116614 135.537304 262.91851 135.553986 Q 255.267526 136.233796 247.535214 136.250478 C 249.389051 134.830385 250.700707 134.058823 252.742221 133.310198 Q 253.428287 133.057876 254.571034 132.809725 Q 255.473971 132.611621 256.416529 132.328019 Q 257.834536 132.282143 259.377662 132.457308 Q 259.448562 132.465649 259.498609 132.53655 Z" style="fill:#ff741a;"/>
		<path d="M 231.340735 132.528209 L 232.752487 135.825076 Q 230.129173 135.626972 227.570504 135.376735 Q 227.063775 135.326688 226.830221 135.182802 Q 227.113822 134.117211 227.095054 133.034938 L 231.340735 132.528209 Z" style="fill:#ffcc29;"/>
	</g>
	<g id="surface4">
	</g>
</svg>
