<?xml version="1.0" encoding="utf-8"?>
<svg xmlns="http://www.w3.org/2000/svg" width="490pt" height="280pt" viewBox="0 0 490 280" version="1.1" xmlns:xlink="http://www.w3.org/1999/xlink">
	<g id="surface2" data-size="96.435549695185 148" data-bboxpos="197 55.259802368914" data-pivot="245.21777484759 129.25980236891" data-center="245.21777484759 129.25980236891">
		<path d="M 232.80873 80.294257 L 229.854853 82.632357 C 229.447422 82.95645 228.864054 82.919411 228.498292 82.553649 L 205.061732 59.117089 C 204.631151 58.686508 204.67282 57.973503 205.1497 57.598481 L 207.825783 55.477986 C 208.228585 55.158523 208.802692 55.190933 209.168454 55.552065 L 232.892068 78.766389 C 233.327279 79.19697 233.29024 79.914605 232.80873 80.294257 Z" style="fill:#0a5e99;"/>
		<path d="M 213.015902 144.233192 C 213.057571 144.32579 212.988123 144.432278 212.886265 144.432278 Q 209.964797 144.367459 199.871613 144.270231 C 198.964152 144.260972 198.269667 143.765572 197.820567 142.862741 C 196.325109 139.825526 196.996444 136.316061 198.802106 133.672388 Q 199.339174 132.894564 202.177304 129.991616 Q 210.812069 121.157765 219.67833 112.138717 Q 221.321945 110.467323 221.752526 109.629311 C 221.817344 109.499673 221.803455 109.342257 221.715487 109.231139 L 217.613394 104.04102 C 217.266152 103.605809 217.312451 102.980773 217.715252 102.601121 Q 219.803337 100.638043 224.785111 96.52669 Q 226.095373 95.447923 227.401005 93.461696 C 227.493603 93.322799 227.563052 93.165382 227.595461 92.998706 L 228.646449 87.790067 C 228.669598 87.669689 228.706637 87.553942 228.757566 87.447454 L 229.387233 86.053854 C 229.461311 85.896437 229.558539 85.74828 229.678917 85.618643 Q 231.165115 84.002808 232.368889 82.812923 Q 234.271779 80.942443 236.943232 80.581311 Q 239.35078 80.252588 242.290768 80.034982 Q 242.577821 80.016463 244.49923 78.872877 Q 245.105747 78.511745 246.466938 77.31723 Q 247.406808 76.497738 251.08758 73.270697 Q 251.967261 72.497503 252.439511 72.492873 C 253.365491 72.474354 253.467349 73.09939 253.944229 73.715167 Q 256.634201 77.187593 262.81049 84.174114 C 263.685541 85.164913 262.889198 85.664942 262.055816 86.391837 Q 260.014029 88.183608 259.421402 88.665118 C 256.606422 90.952289 254.143315 93.470956 251.212587 95.869244 C 250.254198 96.656328 249.346737 97.443411 249.869916 98.688854 C 249.971774 98.938869 250.12456 99.165734 250.319016 99.35556 L 293.071524 141.209867 C 293.622482 141.746935 293.543774 142.654396 292.914107 143.089607 L 290.529708 144.751741 C 290.400071 144.839709 290.256544 144.895268 290.103757 144.909158 Q 288.946282 145.048055 287.950853 144.006327 C 284.34416 140.242217 278.973475 135.228034 276.501107 132.792706 Q 268.505268 124.921874 248.781889 105.795753 C 247.865169 104.911441 246.777142 104.161397 246.073397 103.540991 C 245.962279 103.443763 245.837272 103.369684 245.703005 103.318755 Q 243.702887 102.545562 241.920375 104.05491 Q 235.12831 109.833026 227.877885 115.606513 C 225.817579 117.250128 223.928579 119.180797 222.155327 120.981828 Q 210.747251 132.565841 208.506379 134.880792 Q 208.080428 135.320632 207.376683 136.251243 C 206.983141 136.779051 207.02481 137.515206 207.478541 137.992085 L 212.566802 143.38592 C 212.6594 143.483148 212.733478 143.598896 212.789037 143.719273 L 213.015902 144.233192 Z" style="fill:#0a5e99;"/>
		<path d="M 293.034485 203.259802 L 202.163414 203.259802 C 201.760613 203.259802 201.547637 202.778293 201.820801 202.481979 Q 202.154154 202.120847 202.316201 201.861572 Q 203.876477 199.435504 207.01555 193.708316 C 208.580457 190.860927 210.075915 188.536717 211.849167 185.439313 C 221.882163 167.887357 232.188323 149.353863 241.943525 130.250891 Q 244.582569 125.088551 245.749304 122.574514 C 246.152105 121.694833 246.258593 120.778113 246.962338 120.153076 C 247.091975 120.037329 247.300321 120.069738 247.383659 120.227155 Q 248.578173 122.430987 249.258769 123.782919 Q 256.796248 138.742129 265.005063 153.409656 Q 265.917153 155.030122 272.64903 166.961377 Q 273.348145 168.202191 283.195944 185.226337 Q 286.510954 190.967415 290.043568 196.898318 Q 291.742742 199.745707 293.367837 202.694954 C 293.506734 202.949599 293.326168 203.259802 293.034485 203.259802 Z M 247.513296 190.24978 Q 268.329332 190.198851 275.163066 190.157182 C 275.468639 190.157182 275.658465 189.823829 275.505679 189.559925 Q 262.616034 167.456777 249.67083 146.038854 Q 249.258769 145.348998 247.865169 143.233134 Q 247.666083 142.92756 247.392919 142.92756 Q 247.119754 142.92756 246.920669 143.237763 Q 245.536328 145.358258 245.128897 146.048113 Q 232.290181 167.530855 219.511654 189.698822 C 219.358867 189.962726 219.553323 190.296079 219.858896 190.296079 Q 226.69263 190.305339 247.513296 190.24978 Z" style="fill:#0a5e99;"/>
	</g>
	<g id="surface4">
	</g>
</svg>
