<?xml version="1.0" encoding="utf-8"?>
<svg xmlns="http://www.w3.org/2000/svg" width="490pt" height="280pt" viewBox="0 0 490 280" version="1.1" xmlns:xlink="http://www.w3.org/1999/xlink">
	<g id="surface2" data-size="166.0406885777 148" data-bboxpos="162 49.919925780883" data-pivot="245.02034428885 123.91992578088" data-center="245.02034428885 123.91992578088">
		<path d="M 263.946388 49.980615 C 264.142384 50.115852 264.185503 50.398087 264.046346 50.621522 Q 263.601434 51.327109 262.862528 51.960177 Q 260.261658 54.186695 259.744227 54.621807 Q 259.207198 55.072598 258.783846 55.688027 C 258.740726 55.750745 258.730927 55.831104 258.758366 55.901663 Q 258.868124 56.193697 259.309116 56.607249 Q 262.098143 59.21596 262.907608 60.015625 C 263.83271 60.927007 264.783292 62.063786 264.634335 63.375001 Q 264.489298 64.680336 263.407398 65.370243 C 262.492095 65.952352 261.994265 65.695597 261.19852 64.968451 Q 257.039479 61.156323 254.487607 58.67501 C 253.660503 57.871425 252.688361 56.609209 253.092113 55.258795 C 253.550745 53.724144 255.594986 52.773562 256.95128 52.175773 Q 260.291057 50.707761 263.532836 49.945335 Q 263.805271 49.880657 263.946388 49.980615 Z" style="fill:#000000;"/>
		<path d="M 272.489866 66.938214 Q 272.531025 66.971533 272.558465 67.008772 C 273.403209 68.108311 274.112715 70.003596 273.816761 71.420649 C 273.140574 74.668307 269.477403 76.881105 266.45906 77.559252 C 265.871071 77.69057 265.314442 77.951245 264.669614 77.961045 C 264.659814 77.961045 264.651974 77.961045 264.642175 77.963005 L 261.163241 78.556874 C 261.155401 78.558834 261.147561 78.560794 261.139721 78.562753 Q 260.788888 78.703871 259.981383 78.73719 C 259.021001 78.778349 257.778385 79.111543 256.814083 79.144862 Q 256.547528 79.154662 255.767463 79.319299 Q 255.536187 79.368298 254.726722 79.499616 Q 252.845158 79.80341 251.910256 80.228722 Q 249.181987 81.471338 247.114227 83.850733 Q 245.820651 85.338345 244.429077 86.855356 Q 244.125283 87.18659 243.74113 87.312028 C 242.633751 87.674621 242.18296 86.708359 242.002643 85.804816 Q 241.920325 85.399104 241.912485 83.727256 C 241.894845 80.020966 243.886168 77.572972 247.010349 75.944243 Q 250.481443 74.137157 254.023096 73.315933 Q 255.467588 72.982739 258.707407 72.475109 Q 258.887724 72.445709 259.340475 72.449629 C 259.544311 72.451589 259.750107 72.43003 259.950024 72.38495 C 260.600731 72.241873 261.692431 72.094876 262.599893 71.85576 Q 263.468157 71.626445 263.556355 71.599005 C 265.471239 70.999257 267.076449 69.531244 267.51744 67.604601 Q 267.738916 66.632459 267.740876 66.624619 Q 267.827114 66.254187 267.840834 65.628958 Q 267.860434 64.801854 268.04859 63.619996 C 268.06035 63.555318 268.101509 63.500439 268.160308 63.472999 Q 268.58954 63.275043 268.860015 63.474959 Q 270.71218 64.856733 272.27427 66.650099 C 272.346789 66.734377 272.366388 66.838255 272.489866 66.938214 Z" style="fill:#000000;"/>
		<path d="M 269.767478 102.4939 C 269.767478 102.680097 269.61656 102.831014 269.430364 102.831014 L 216.797521 102.831014 C 216.611324 102.831014 216.460407 102.680097 216.460407 102.4939 L 216.460407 92.113937 C 216.460407 91.92774 216.611324 91.776823 216.797521 91.776823 L 269.430364 91.776823 C 269.61656 91.776823 269.767478 91.92774 269.767478 92.113937 L 269.767478 102.4939 Z" style="fill:#000000;"/>
		<path d="M 265.41048 106.570623 C 265.434 106.586303 265.449679 106.613742 265.449679 106.643142 L 265.449679 138.625816 C 265.449679 138.813973 265.334042 138.982529 265.157645 139.049168 L 264.187463 139.415681 C 264.169824 139.421561 264.154144 139.425481 264.136504 139.427441 Q 263.526956 139.513679 262.874288 139.788074 C 262.823329 139.809634 262.77041 139.825314 262.715531 139.835113 Q 262.2667 139.911552 262.023664 140.00367 Q 261.584633 140.174187 259.358115 140.826855 Q 258.452612 141.09145 256.880722 141.59712 Q 255.643985 141.994992 254.395489 142.353666 Q 251.13607 143.290528 247.776694 144.170551 Q 247.018188 144.370467 245.420819 144.78794 C 244.777951 144.956496 244.037085 145.052535 243.429496 145.28773 C 243.360898 145.31517 243.288379 145.332809 243.2139 145.340649 Q 242.563193 145.403368 241.910525 145.638563 C 241.785087 145.683643 241.65377 145.713042 241.520492 145.724802 Q 240.712988 145.793401 239.756526 146.083475 C 239.697727 146.101115 239.636968 146.112874 239.576209 146.120714 Q 238.717746 146.218712 237.904361 146.459788 C 237.831842 146.481348 237.757364 146.497027 237.680925 146.504867 Q 236.502987 146.632265 235.705283 146.8655 C 235.622964 146.89098 235.538686 146.904699 235.452447 146.910579 Q 234.317629 146.977218 233.429766 147.255533 C 233.414086 147.261413 233.398406 147.263373 233.382727 147.265333 L 225.942707 148.272754 C 225.850589 148.284513 225.760431 148.288433 225.668313 148.286473 C 225.060724 148.266874 224.566813 148.45503 223.939625 148.47659 Q 221.850305 148.554988 220.929122 148.711785 C 220.264695 148.823503 220.200016 148.545188 220.200016 147.972879 Q 220.201976 145.342609 220.200016 106.835218 C 220.200016 106.598063 220.392092 106.405986 220.629248 106.405986 Q 255.614586 106.368747 264.87933 106.413826 Q 265.173325 106.413826 265.41048 106.570623 Z" style="fill:#000000;"/>
		<path d="M 328.023455 182.723021 C 327.994055 182.887658 327.870578 183.018976 327.709861 183.062095 Q 325.959614 183.528566 324.138808 183.29925 Q 322.198445 183.054255 321.655535 182.903338 Q 320.987188 182.719101 320.038566 182.182072 Q 319.215381 181.71756 317.233859 180.184869 Q 308.958896 173.79343 297.10112 164.389528 Q 292.318811 160.59896 281.290099 151.783047 Q 280.621752 151.247977 279.933805 151.745808 Q 278.144359 153.039383 274.314592 155.969528 Q 264.099265 163.78194 251.545703 173.183882 Q 243.562774 179.161769 234.26667 185.845242 Q 228.925771 189.686769 224.274779 192.80507 Q 220.209816 195.531379 215.870458 197.757897 C 215.735221 197.826495 215.590183 197.871574 215.441226 197.889214 Q 214.765039 197.973493 213.977134 197.826495 Q 212.340565 197.516821 211.295905 197.424703 C 210.743195 197.375704 210.694196 196.871993 211.101868 196.53292 Q 231.675599 179.500842 243.20998 170.145939 Q 263.360359 153.803769 280.453195 140.407423 Q 280.847148 140.099708 281.2705 140.448582 Q 286.850514 145.050575 294.316013 151.559611 Q 306.748057 162.398206 315.07006 170.000902 Q 321.986769 176.321783 325.908655 180.028072 Q 326.551522 180.635661 327.476625 181.578403 C 327.817659 181.927276 328.119493 182.201671 328.023455 182.723021 Z" style="fill:#000000;"/>
		<path d="M 252.182691 151.596851 C 252.398286 151.704649 252.443366 152.000603 252.276769 152.204439 Q 251.961215 152.588592 251.633901 152.768908 Q 251.236029 152.988424 251.216429 153.002144 Q 244.676033 157.178825 237.40849 160.216767 Q 233.419966 161.884696 231.789277 162.484445 Q 230.627019 162.913676 229.717596 163.376228 Q 225.346879 165.604705 212.856035 172.425376 Q 206.231361 176.043468 190.477179 184.726103 Q 186.533734 186.899702 183.599669 188.412794 C 179.566065 190.492314 177.180791 191.75257 174.895474 192.769791 C 174.503481 192.944228 174.017411 192.854069 173.562699 192.687473 Q 171.755613 192.028925 170.485557 191.450736 Q 169.883849 191.176341 170.128844 190.664791 C 170.156284 190.605992 170.197443 190.556993 170.248402 190.517794 Q 170.618835 190.235559 170.86971 190.065042 Q 176.790758 186.041238 183.244916 182.105633 Q 191.962831 176.788254 202.752426 170.694729 Q 209.243824 167.027638 216.919038 163.009715 C 222.747968 159.958052 228.474979 157.290543 234.566544 155.124784 Q 241.62829 152.612111 248.156927 151.692889 C 248.742956 151.61057 249.305465 151.659569 249.832695 151.569411 C 250.508882 151.455733 251.584902 151.296976 252.182691 151.596851 Z" style="fill:#000000;"/>
		<path d="M 215.23151 153.942926 Q 215.362828 154.087963 215.286389 154.229081 C 215.066873 154.634793 214.833638 154.664193 214.471045 154.840589 C 207.31718 158.317563 200.122156 161.963094 193.387724 165.89086 Q 182.063058 172.497895 164.978062 181.966476 Q 163.098457 183.009176 162.496749 183.126774 Q 162.173355 183.191452 162.022438 182.846499 C 161.998918 182.79162 161.993038 182.728901 162.008718 182.670102 Q 162.228234 181.823398 162.469309 181.519604 C 162.96322 180.902216 163.741325 180.275028 164.362633 179.822276 Q 172.012369 174.257942 180.183454 168.464291 C 183.617309 166.030017 186.986485 163.689822 190.618296 161.792578 C 197.29197 158.305804 204.635951 155.626534 212.203368 154.074244 Q 212.983433 153.915487 214.802278 153.74693 Q 215.033554 153.72537 215.23151 153.942926 Z" style="fill:#000000;"/>
	</g>
	<g id="surface4">
	</g>
</svg>
