<?xml version="1.0" encoding="utf-8"?>
<svg xmlns="http://www.w3.org/2000/svg" width="490pt" height="280pt" viewBox="0 0 490 280" version="1.1" xmlns:xlink="http://www.w3.org/1999/xlink">
	<g id="surface2" data-size="141.62257777153 148" data-bboxpos="174 50.000130382628" data-pivot="244.81128888577 124.00013038263" data-center="244.81128888577 124.00013038263">
		<path vector-effect="non-scaling-stroke" d="M 245.836967 72.598043 L 245.070942 72.566042" style="fill:none;stroke-width:0.50;stroke:#82815b;"/>
		<path vector-effect="non-scaling-stroke" d="M 253.231208 144.216377 Q 253.267209 140.792266 253.249209 137.336153 C 253.235208 134.344056 252.621188 131.239954 250.571121 129.033882 C 248.741062 127.065818 246.342984 126.071786 243.722898 126.733807 C 240.488793 127.549834 238.406725 130.705937 237.714702 133.770037 Q 237.464694 134.882073 237.450694 137.704165 Q 237.432693 140.990272 237.466694 144.316381" style="fill:none;stroke-width:0.50;stroke:#81a3cb;"/>
		<path vector-effect="non-scaling-stroke" d="M 252.093171 144.376383 Q 252.081171 140.91027 252.081171 137.54216 Q 252.081171 135.604097 251.937166 134.718068 C 251.577154 132.495995 250.623123 130.421928 248.851065 128.999881 C 245.228947 126.093787 240.752801 128.481864 239.314755 132.405992 Q 238.542729 134.508061 238.55873 135.826104 Q 238.612732 139.976239 238.524729 144.140375" style="fill:none;stroke-width:0.50;stroke:#81a3cb;"/>
		<path vector-effect="non-scaling-stroke" d="M 243.7649 144.354382 Q 241.962841 144.116374 240.210784 144.330381" style="fill:none;stroke-width:0.50;stroke:#81a3cb;"/>
		<path vector-effect="non-scaling-stroke" d="M 312.579143 119.771581 Q 312.427138 119.821582 312.479139 119.961587" style="fill:none;stroke-width:0.50;stroke:#7fcea3;"/>
		<path vector-effect="non-scaling-stroke" d="M 312.479139 119.961587 Q 311.941122 120.557606 311.87712 121.27963" style="fill:none;stroke-width:0.50;stroke:#037572;"/>
		<path vector-effect="non-scaling-stroke" d="M 309.74305 127.349828 Q 309.557044 127.081819 309.317036 127.473832 C 309.281035 127.533834 309.331037 127.607836 309.399039 127.595836 L 309.463041 127.585835" style="fill:none;stroke-width:0.50;stroke:#7fcea3;"/>
		<path vector-effect="non-scaling-stroke" d="M 297.318645 118.569541 Q 297.338646 118.583542 297.364647 118.591542 C 297.380647 118.597542 297.386647 118.617543 297.376647 118.631543 Q 297.190641 118.861551 297.316645 119.221563 C 297.366647 119.365567 297.574654 119.351567 297.606655 119.201562 Q 297.668657 118.903552 297.566653 118.463538" style="fill:none;stroke-width:0.50;stroke:#7fcea3;"/>
		<path vector-effect="non-scaling-stroke" d="M 305.980928 122.989685 Q 306.234936 123.065688 306.326939 122.907683 C 306.37094 122.83168 306.334939 122.733677 306.252936 122.705676 Q 306.218935 122.693676 306.134933 122.719677" style="fill:none;stroke-width:0.50;stroke:#7fcea3;"/>
		<path vector-effect="non-scaling-stroke" d="M 312.921154 120.099591 Q 312.50114 120.203595 312.479139 119.961587" style="fill:none;stroke-width:0.50;stroke:#81a3cb;"/>
		<path vector-effect="non-scaling-stroke" d="M 314.369201 125.775776 Q 314.223196 125.723775 314.097192 125.777776 Q 313.965188 125.835778 313.981188 125.971783 Q 313.997189 126.107787 314.169194 126.089786" style="fill:none;stroke-width:0.50;stroke:#81a3cb;"/>
		<path vector-effect="non-scaling-stroke" d="M 192.751237 118.547541 Q 192.561231 118.709546 192.583231 119.14356 C 192.587231 119.229563 192.693235 119.263564 192.749237 119.199562 Q 193.137249 118.749547 192.887241 118.593542" style="fill:none;stroke-width:0.50;stroke:#7fcea3;"/>
		<path vector-effect="non-scaling-stroke" d="M 174.282635 132.03398 Q 175.122662 132.357991 175.470674 132.351991 Q 176.132695 132.33799 176.852719 132.291989 C 176.864719 132.291989 176.876719 132.281988 176.876719 132.267988 C 176.878719 132.255987 176.870719 132.243987 176.858719 132.239987 Q 176.828718 132.229987 176.782716 132.191985" style="fill:none;stroke-width:0.50;stroke:#7fcea3;"/>
		<path vector-effect="non-scaling-stroke" d="M 176.546709 132.107983 Q 176.194697 132.145984 176.196697 131.979978 Q 176.198697 131.375959 176.198697 131.363958 C 176.194697 131.277956 176.096694 131.229954 176.028692 131.283956 Q 175.742682 131.507963 175.37467 131.459962 C 175.332669 131.453961 175.290668 131.477962 175.274667 131.517963 Q 175.264667 131.541964 175.254667 131.573965" style="fill:none;stroke-width:0.50;stroke:#7fcea3;"/>
		<path vector-effect="non-scaling-stroke" d="M 179.326799 125.419765 Q 179.920819 125.083754 180.088824 124.483734" style="fill:none;stroke-width:0.50;stroke:#7fcea3;"/>
		<path vector-effect="non-scaling-stroke" d="M 175.234666 132.067981 Q 175.568677 132.175985 175.776684 132.093982 C 175.898688 132.045981 175.944689 131.897976 175.872687 131.787972 Q 175.834685 131.73197 175.722682 131.667968" style="fill:none;stroke-width:0.50;stroke:#7fcea3;"/>
		<path vector-effect="non-scaling-stroke" d="M 175.616678 131.649968 Q 175.550676 131.571965 175.462673 131.651968" style="fill:none;stroke-width:0.50;stroke:#81a3cb;"/>
		<path vector-effect="non-scaling-stroke" d="M 179.296798 123.163691 Q 179.292798 123.353697 179.210795 123.553704 C 179.198795 123.585705 179.214796 123.621706 179.246797 123.631706 L 179.302798 123.651707 C 179.328799 123.659707 179.3568 123.647707 179.364801 123.621706 L 179.490805 123.255694 C 179.498805 123.231693 179.484804 123.205692 179.460804 123.199692 Q 179.432803 123.191692 179.408802 123.179692" style="fill:none;stroke-width:0.50;stroke:#7fcea3;"/>
		<path vector-effect="non-scaling-stroke" d="M 180.180827 123.271695 L 180.194828 123.471701" style="fill:none;stroke-width:0.50;stroke:#037572;"/>
		<path vector-effect="non-scaling-stroke" d="M 180.068823 123.833713 Q 180.018822 123.913716 180.026822 124.017719" style="fill:none;stroke-width:0.50;stroke:#037572;"/>
		<path vector-effect="non-scaling-stroke" d="M 179.996821 124.233726 Q 179.94882 124.149723 179.946819 124.05372 C 179.906818 124.177724 179.872817 124.289728 179.928819 124.463733 Q 179.986821 124.647739 179.832816 124.787744 Q 179.564807 125.029752 179.284798 125.221758" style="fill:none;stroke-width:0.50;stroke:#7fcea3;"/>
		<path vector-effect="non-scaling-stroke" d="M 306.924958 177.44546 L 306.716951 177.44146 C 306.67695 177.43946 306.636949 177.461461 306.616948 177.497462 Q 306.546946 177.617466 306.638949 177.673468" style="fill:none;stroke-width:0.50;stroke:#7fcea3;"/>
		<path vector-effect="non-scaling-stroke" d="M 293.914534 162.818984 Q 293.78653 163.036991 293.932535 163.228997 C 293.994537 163.309 294.114541 163.309 294.174543 163.226997 Q 294.380549 162.948988 294.334548 162.71698" style="fill:none;stroke-width:0.50;stroke:#7fcea3;"/>
		<path vector-effect="non-scaling-stroke" d="M 196.561361 162.422971 L 196.813369 163.290999 C 196.84337 163.399003 196.993375 163.409003 197.039377 163.305 Q 197.187381 162.958988 197.215382 162.548975 C 197.215382 162.530974 197.207382 162.512974 197.195382 162.500973 Q 197.14138 162.452972 197.051377 162.466972" style="fill:none;stroke-width:0.50;stroke:#7fcea3;"/>
		<path vector-effect="non-scaling-stroke" d="M 183.34093 165.307065 L 183.066921 163.63301" style="fill:none;stroke-width:0.50;stroke:#037572;"/>
		<path vector-effect="non-scaling-stroke" d="M 179.148793 173.189322 Q 179.376801 173.359327 179.534806 173.153321 C 179.574807 173.101319 179.556807 173.025316 179.496805 172.999315 Q 179.410802 172.961314 179.274798 172.993315" style="fill:none;stroke-width:0.50;stroke:#81a3cb;"/>
		<path vector-effect="non-scaling-stroke" d="M 196.779368 162.482973 Q 196.871371 162.518974 196.971374 162.486973" style="fill:none;stroke-width:0.50;stroke:#7fcea3;"/>
		<path vector-effect="non-scaling-stroke" d="M 237.534697 184.535692 Q 237.722703 184.511691 237.754704 184.287683 C 237.770704 184.18968 237.682701 184.107678 237.586698 184.129678 Q 237.418693 184.16768 237.374691 184.455689" style="fill:none;stroke-width:0.50;stroke:#7fcea3;"/>
		<path vector-effect="non-scaling-stroke" d="M 226.530338 106.981164 L 224.344267 106.891161 C 224.276264 106.889161 224.218262 106.839159 224.208262 106.771157 C 224.112259 106.159137 224.192262 105.493115 224.192262 104.985099 Q 224.196262 102.751026 224.178261 100.474952 Q 224.172261 99.542921 224.586274 98.680893 C 224.634276 98.58089 224.782281 98.58289 224.848283 98.684893 Q 224.928286 98.806897 225.008288 98.728895 C 225.022289 98.714894 225.014288 98.692894 224.996288 98.690893 L 224.942286 98.686893 C 224.908285 98.684893 224.888284 98.648892 224.900285 98.616891 Q 224.940286 98.524888 225.036289 98.554889 Q 225.092291 98.57289 225.088291 98.618891 Q 225.084291 98.660892 225.104291 98.694894 C 225.130292 98.742895 225.194294 98.752895 225.236296 98.716894 Q 225.3623 98.604891 225.426302 98.380883 C 225.444302 98.314881 225.510305 98.27088 225.578307 98.28088 Q 226.208327 98.366883 226.270329 98.226878 C 226.28833 98.184877 226.246329 98.140876 226.204327 98.158876 Q 225.97232 98.250879 225.738312 98.258879 C 225.652309 98.260879 225.618308 98.146876 225.694311 98.102874 L 226.028321 97.908868 C 226.044322 97.898868 226.064323 97.894867 226.082323 97.896868 Q 226.398334 97.920868 226.694343 97.790864 C 226.718344 97.780864 226.728344 97.748863 226.716344 97.724862 L 226.716344 97.722862 C 226.702343 97.698861 226.670342 97.690861 226.646342 97.706861 Q 226.152326 98.046872 225.548306 97.808865 C 225.542306 97.806865 225.544306 97.798864 225.550306 97.798864 Q 226.086323 97.802864 226.198327 97.800864 Q 226.426334 97.794864 226.468336 97.67086 Q 226.480336 97.638859 226.490337 97.584857 C 226.510337 97.472854 226.662342 97.452853 226.710344 97.554856 Q 226.778346 97.698861 226.730344 97.818865 C 226.712344 97.864867 226.752345 97.912868 226.800347 97.904868 Q 227.044355 97.858866 227.190359 98.072873 C 227.22436 98.120875 227.278362 98.152876 227.336364 98.158876 L 228.294395 98.242879 C 228.342397 98.246879 228.370398 98.190877 228.338397 98.154876 C 227.284362 96.992838 225.556306 96.962837 224.648277 98.206878 Q 224.024256 99.058905 224.016256 100.184942 Q 223.998255 102.811028 223.996255 102.843029 C 223.936253 103.997066 224.068258 105.287108 224.016256 106.57515 Q 223.994255 107.121168 224.486271 107.147169 Q 225.99632 107.221171 228.014386 107.091167" style="fill:none;stroke-width:0.50;stroke:#81a3cb;"/>
		<path vector-effect="non-scaling-stroke" d="M 240.08878 116.657479 L 250.621123 116.657479 C 250.771128 116.657479 250.893132 116.535475 250.893132 116.38547 L 250.893132 104.167072 C 250.893132 100.668958 248.489054 97.832865 245.522957 97.832865 L 245.186946 97.832865 C 242.220849 97.832865 239.816771 100.668958 239.816771 104.167072 L 239.816771 116.38547 C 239.816771 116.535475 239.938775 116.657479 240.08878 116.657479" style="fill:none;stroke-width:0.50;stroke:#82815b;"/>
		<path vector-effect="non-scaling-stroke" d="M 306.860956 175.615401 L 305.936926 174.567367 C 305.926926 174.555366 305.910925 174.555366 305.898925 174.565367 L 305.886924 174.575367 C 305.694918 174.745372 305.74492 175.117385 305.998928 175.405394 L 306.038929 175.449395 C 306.292938 175.737405 306.654949 175.835408 306.846956 175.665402 L 306.858956 175.655402 C 306.870957 175.643402 306.870957 175.627401 306.860956 175.615401" style="fill:none;stroke-width:0.50;stroke:#7fcea3;"/>
		<path vector-effect="non-scaling-stroke" d="M 249.60309 164.389035 Q 249.547088 164.465037 249.589089 164.531039 C 249.631091 164.595042 249.727094 164.579041 249.745095 164.505039 Q 249.759095 164.447037 249.747095 164.409035 C 249.725094 164.347033 249.643091 164.335033 249.60309 164.389035" style="fill:none;stroke-width:0.50;stroke:#7fcea3;"/>
		<path d="M 245.836967 72.598043 L 245.070942 72.566042 L 245.026941 50.283316 C 245.026941 50.10931 245.180946 49.977306 245.352951 50.003306 L 267.369669 53.363416 C 267.41367 53.371416 267.447672 53.403417 267.457672 53.447419 Q 267.515674 53.681426 267.295667 53.78743 Q 263.311537 55.705492 259.989428 56.981534 Q 256.085301 58.481583 255.015266 58.69759 Q 254.801259 58.741591 254.149238 58.931598 Q 253.419214 59.143604 253.28721 59.173605 Q 252.173174 59.425614 250.589122 59.759624 C 249.129074 60.065634 247.697028 60.141637 246.286982 60.355644 C 246.060974 60.389645 245.892969 60.583651 245.890969 60.813659 L 245.836967 72.598043 Z" style="fill:#ffb81b;"/>
		<path d="M 245.070942 72.566042 L 245.836967 72.598043 Q 248.163043 72.662045 250.169108 72.622044 Q 250.83713 72.608043 250.83313 73.206063 Q 250.815129 75.448136 250.82313 78.600239 C 250.82313 78.736243 250.935133 78.848247 251.073138 78.846247 Q 253.447215 78.826246 256.253307 78.854247 C 256.487314 78.856247 256.731322 78.94625 256.935329 78.752244 C 256.989331 78.700242 257.019332 78.63024 257.019332 78.556237 L 257.019332 73.048058 C 257.019332 72.82605 257.199337 72.646045 257.421345 72.644044 Q 258.783389 72.628044 265.673614 72.636044 Q 265.941622 72.636044 266.251633 72.738048 C 266.363636 72.776049 266.439639 72.880052 266.439639 72.998056 L 266.439639 78.502235 C 266.439639 78.700242 266.599644 78.860247 266.79765 78.860247 L 271.3978 78.860247 C 271.537805 78.860247 271.649808 78.748243 271.651809 78.608239 Q 271.659809 76.020154 271.629808 73.070058 C 271.625808 72.682046 271.973819 72.600043 272.31583 72.602043 Q 274.271894 72.614043 275.98195 72.622044 C 276.231958 72.624044 276.433964 72.82605 276.433964 73.076059 L 276.433964 90.178616 C 276.433964 90.268619 276.379963 90.348622 276.29796 90.382623 C 275.859946 90.568629 275.459933 90.398623 275.06392 90.408623 Q 273.503869 90.440625 271.3838 90.386623 C 271.155792 90.380623 270.967786 90.564629 270.967786 90.792636 L 270.967786 124.941749 C 270.967786 125.167756 271.149792 125.351762 271.3758 125.353763 C 272.499836 125.365763 273.487868 125.469766 273.881881 125.26376 Q 274.033886 125.183757 274.035886 124.849746 Q 274.035886 124.131723 274.029886 121.831648 C 274.029886 121.741645 274.081888 121.659642 274.16189 121.619641 C 274.723909 121.347632 275.653939 121.437635 276.89798 121.455635 Q 277.481999 121.461636 277.473998 122.125657 Q 277.459998 123.521703 277.457998 124.849746 C 277.457998 125.133755 277.686005 125.361763 277.970015 125.363763 Q 278.770041 125.365763 278.800042 125.367763 C 279.282057 125.423765 279.490064 125.165756 279.490064 124.725742 Q 279.490064 124.67174 279.444063 122.115657 C 279.434062 121.643642 279.852076 121.387633 280.344092 121.403634 C 280.722104 121.417634 281.436127 121.28163 281.974145 121.645642 C 281.998146 121.661642 282.014146 121.689643 282.014146 121.717644 L 282.014146 147.492484 C 282.014146 147.654489 281.884142 147.788494 281.720137 147.794494 C 281.404126 147.802494 281.060115 147.67849 280.688103 147.612488 Q 278.906045 147.302478 277.139987 146.988468 Q 276.213957 146.824462 275.485934 146.736459 Q 274.879914 146.664457 273.83188 146.478451 Q 272.765845 146.288445 269.621742 145.864431 Q 267.731681 145.610423 267.39367 145.576422 C 265.899621 145.426417 264.711582 145.172408 263.513543 145.168408 Q 262.945525 145.166408 261.841489 145.010403 C 261.339472 144.940401 260.241437 144.840398 259.611416 144.800396 Q 258.18937 144.710393 258.18537 144.708393 Q 257.515348 144.630391 256.759323 144.586389 Q 255.207273 144.496386 253.627221 144.396383 Q 253.199207 144.368382 253.231208 144.216377 Q 253.267209 140.792266 253.249209 137.336153 C 253.235208 134.344056 252.621188 131.239954 250.571121 129.033882 C 248.741062 127.065818 246.342984 126.071786 243.722898 126.733807 C 240.488793 127.549834 238.406725 130.705937 237.714702 133.770037 Q 237.464694 134.882073 237.450694 137.704165 Q 237.432693 140.990272 237.466694 144.316381 Q 237.316689 144.508387 236.772672 144.520387 C 235.940645 144.540388 234.592601 144.558388 233.558567 144.696393 C 232.660538 144.814397 231.772509 144.778396 230.708474 144.868399 Q 228.4284 145.064405 225.720311 145.356414 C 225.238296 145.408416 224.426269 145.550421 223.774248 145.604423 Q 222.070192 145.746427 219.2181 146.182441 Q 217.986059 146.372448 217.872056 146.380448 C 216.922025 146.44645 215.945993 146.692458 214.905959 146.822462 Q 213.843924 146.956467 213.297907 147.126472 C 213.231904 147.146473 213.165902 147.158473 213.0999 147.160473 Q 212.48588 147.174474 211.86386 147.306478 Q 210.791825 147.532485 209.039768 147.808494 C 208.81576 147.844496 208.611754 147.67049 208.611754 147.442482 L 208.611754 121.847648 C 208.611754 121.669642 208.737758 121.515637 208.913764 121.481636 Q 209.937797 121.28163 210.779824 121.541638 C 210.923829 121.58764 211.021832 121.721644 211.021832 121.873649 L 211.021832 124.789744 C 211.021832 125.125755 211.293841 125.397764 211.629852 125.397764 L 212.465879 125.397764 C 212.77789 125.397764 213.029898 125.143756 213.029898 124.831745 L 213.029898 121.971652 C 213.029898 121.91365 213.043898 121.857649 213.069899 121.807647 Q 213.241905 121.477636 213.671919 121.469636 Q 215.195968 121.435635 216.079997 121.487636 C 216.294004 121.499637 216.46001 121.679643 216.456009 121.89565 Q 216.410008 124.159724 216.47001 124.813745 Q 216.502011 125.173757 216.808021 125.317761 C 216.856023 125.341762 216.908024 125.353763 216.962026 125.353763 L 219.008093 125.373763 C 219.252101 125.377763 219.450107 125.181757 219.450107 124.937749 L 219.450107 90.702633 C 219.450107 90.524627 219.304102 90.380623 219.126097 90.384623 Q 216.260003 90.426624 214.63195 90.410624 Q 214.069932 90.404623 214.073932 89.832605 Q 214.115933 82.554367 214.041931 73.274065 C 214.037931 72.686046 214.355941 72.602043 214.889958 72.612043 Q 215.603982 72.624044 219.2301 72.658045 C 219.444107 72.660045 219.618113 72.836051 219.618113 73.050058 L 219.618113 78.574238 C 219.618113 78.726243 219.742117 78.850247 219.894122 78.850247 L 224.102259 78.850247 C 224.276264 78.850247 224.416269 78.710242 224.416269 78.536237 L 224.416269 73.018057 C 224.416269 72.80205 224.590275 72.628044 224.806282 72.626044 Q 228.082388 72.600043 233.620569 72.652045 Q 234.152586 72.656045 234.144586 73.246064 Q 234.108585 76.024155 234.162587 78.516236 C 234.166587 78.702242 234.318592 78.848247 234.504598 78.846247 Q 236.544664 78.826246 239.446759 78.850247 C 239.692767 78.852247 239.970776 78.94425 240.152782 78.742243 C 240.194783 78.696242 240.216784 78.63824 240.216784 78.578238 L 240.216784 73.012056 C 240.216784 72.790049 240.39479 72.610043 240.616797 72.608043 L 245.070942 72.566042 Z M 262.087497 107.159169 L 266.091627 107.139169 C 266.391637 107.137169 266.633645 106.893161 266.633645 106.591151 L 266.599644 100.318947 C 266.591644 98.59489 265.445606 97.200845 264.043561 97.208845 L 264.03156 97.208845 C 262.629514 97.216845 261.499478 98.620891 261.507478 100.346947 L 261.541479 106.619152 C 261.541479 106.919162 261.787487 107.16117 262.087497 107.159169 Z M 228.014386 107.091167 C 228.760411 107.191171 229.03842 106.981164 229.03842 106.225139 Q 229.04042 105.373111 228.986418 99.846931 C 228.984418 99.678926 228.900415 99.522921 228.760411 99.428917 Q 228.174391 99.034905 227.336364 98.936901 C 227.316363 98.934901 227.302363 98.916901 227.304363 98.8969 L 227.310363 98.838898 C 227.310363 98.836898 227.312363 98.834898 227.314363 98.834898 L 228.520403 98.972903 C 228.528403 98.974903 228.536403 98.966902 228.536403 98.958902 L 228.544403 98.8869 C 228.548404 98.836898 228.510402 98.792897 228.462401 98.788897 L 227.020354 98.662893 C 226.982353 98.658892 226.946351 98.688893 226.942351 98.726895 L 226.810347 100.250944 C 226.806347 100.304946 226.760345 100.348947 226.706344 100.350948 C 226.650342 100.352948 226.60434 100.312946 226.59434 100.258945 L 226.29033 98.462886 C 226.28033 98.410884 226.238328 98.370883 226.186327 98.366883 L 225.816315 98.334882 C 225.746312 98.328882 225.68031 98.354882 225.634309 98.406884 C 224.942286 99.18891 224.488271 99.614924 224.304265 100.546954 Q 224.246263 100.838963 224.486271 101.66099 Q 224.944286 103.237042 224.682278 105.149104 C 224.682278 105.157104 224.684278 105.163104 224.690278 105.167105 Q 224.716279 105.187105 224.736279 105.189105 C 224.782281 105.191105 224.808282 105.139104 224.782281 105.103102 Q 224.694278 104.987099 224.702278 104.979098 C 224.75028 104.921097 224.840283 104.931097 224.876284 104.999099 Q 225.488304 106.167137 226.530338 106.981164 L 224.344267 106.891161 C 224.276264 106.889161 224.218262 106.839159 224.208262 106.771157 C 224.112259 106.159137 224.192262 105.493115 224.192262 104.985099 Q 224.196262 102.751026 224.178261 100.474952 Q 224.172261 99.542921 224.586274 98.680893 C 224.634276 98.58089 224.782281 98.58289 224.848283 98.684893 Q 224.928286 98.806897 225.008288 98.728895 C 225.022289 98.714894 225.014288 98.692894 224.996288 98.690893 L 224.942286 98.686893 C 224.908285 98.684893 224.888284 98.648892 224.900285 98.616891 Q 224.940286 98.524888 225.036289 98.554889 Q 225.092291 98.57289 225.088291 98.618891 Q 225.084291 98.660892 225.104291 98.694894 C 225.130292 98.742895 225.194294 98.752895 225.236296 98.716894 Q 225.3623 98.604891 225.426302 98.380883 C 225.444302 98.314881 225.510305 98.27088 225.578307 98.28088 Q 226.208327 98.366883 226.270329 98.226878 C 226.28833 98.184877 226.246329 98.140876 226.204327 98.158876 Q 225.97232 98.250879 225.738312 98.258879 C 225.652309 98.260879 225.618308 98.146876 225.694311 98.102874 L 226.028321 97.908868 C 226.044322 97.898868 226.064323 97.894867 226.082323 97.896868 Q 226.398334 97.920868 226.694343 97.790864 C 226.718344 97.780864 226.728344 97.748863 226.716344 97.724862 L 226.716344 97.722862 C 226.702343 97.698861 226.670342 97.690861 226.646342 97.706861 Q 226.152326 98.046872 225.548306 97.808865 C 225.542306 97.806865 225.544306 97.798864 225.550306 97.798864 Q 226.086323 97.802864 226.198327 97.800864 Q 226.426334 97.794864 226.468336 97.67086 Q 226.480336 97.638859 226.490337 97.584857 C 226.510337 97.472854 226.662342 97.452853 226.710344 97.554856 Q 226.778346 97.698861 226.730344 97.818865 C 226.712344 97.864867 226.752345 97.912868 226.800347 97.904868 Q 227.044355 97.858866 227.190359 98.072873 C 227.22436 98.120875 227.278362 98.152876 227.336364 98.158876 L 228.294395 98.242879 C 228.342397 98.246879 228.370398 98.190877 228.338397 98.154876 C 227.284362 96.992838 225.556306 96.962837 224.648277 98.206878 Q 224.024256 99.058905 224.016256 100.184942 Q 223.998255 102.811028 223.996255 102.843029 C 223.936253 103.997066 224.068258 105.287108 224.016256 106.57515 Q 223.994255 107.121168 224.486271 107.147169 Q 225.99632 107.221171 228.014386 107.091167 Z M 240.08878 116.657479 L 250.621123 116.657479 C 250.771128 116.657479 250.893132 116.535475 250.893132 116.38547 L 250.893132 104.167072 C 250.893132 100.668958 248.489054 97.832865 245.522957 97.832865 L 245.186946 97.832865 C 242.220849 97.832865 239.816771 100.668958 239.816771 104.167072 L 239.816771 116.38547 C 239.816771 116.535475 239.938775 116.657479 240.08878 116.657479 Z" style="fill:#054a9a;"/>
		<path d="M 194.013278 104.42108 C 193.983277 104.309077 193.895274 104.221074 193.78127 104.193073 Q 192.311222 103.823061 191.787205 102.617021 Q 191.255188 101.398982 191.759204 100.11694 Q 192.22322 98.942902 193.657266 98.512888 C 194.773303 98.178877 196.23335 98.828898 196.793369 99.884932 C 197.44339 101.108972 197.14738 102.27501 196.417356 103.339045 C 196.289352 103.523051 196.373355 103.779059 196.585362 103.853062 Q 198.189414 104.41508 199.819467 104.431081 Q 200.443488 104.439081 200.443488 103.887063 C 200.443488 103.687056 200.673495 103.563052 200.881502 103.651055 Q 201.279515 103.819061 201.357517 103.963065 C 201.467521 104.163072 201.42952 104.41108 201.263514 104.569085 Q 200.741497 105.067101 200.085476 105.351111 C 199.427454 105.63712 198.731432 105.679121 198.003408 105.819126 C 197.795401 105.859127 197.687398 106.093135 197.791401 106.277141 Q 199.193447 108.763222 200.873502 111.073297 Q 201.151511 111.455309 201.613526 111.833322 C 201.697528 111.903324 201.803532 111.941325 201.911535 111.941325 L 203.055573 111.941325 C 203.26758 111.941325 203.405584 112.165333 203.309581 112.353339 C 203.155576 112.655349 202.35355 114.163398 201.855534 113.367372 Q 201.807532 113.291369 201.645527 113.139364 C 201.599525 113.097363 201.545523 113.063362 201.489522 113.037361 C 200.019474 112.39134 198.815434 111.201301 197.653397 110.097265 Q 197.181381 109.649251 196.53536 109.379242 C 196.391355 109.31924 196.22535 109.373242 196.145347 109.507246 Q 195.799336 110.083265 195.61933 110.343273 Q 195.333321 110.757287 195.165316 111.227302 Q 194.587297 112.827354 194.497294 113.441374 Q 194.343289 114.507409 194.053279 114.819419 C 193.995277 114.881421 193.919275 114.927423 193.839272 114.947423 Q 193.227252 115.109429 192.577231 114.815419 C 192.423226 114.745417 192.369224 114.55141 192.469228 114.413406 Q 192.597232 114.2334 192.941243 114.025393 C 193.117249 113.91939 193.235253 113.737384 193.257253 113.531377 Q 193.291254 113.205367 193.391258 111.47931 C 193.45126 110.445277 193.795271 109.575248 194.243285 108.253205 C 194.441292 107.665186 194.427291 107.217171 194.38529 106.675154 C 194.37529 106.55715 194.239285 106.497148 194.147282 106.56915 Q 193.531262 107.047166 192.971244 107.561183 Q 192.145217 108.319207 191.32919 107.603184 C 191.195186 107.48518 191.259188 107.265173 191.435194 107.237172 L 192.199219 107.107168 C 192.449227 107.065166 192.667234 106.915162 192.793238 106.695154 L 194.011278 104.585086 C 194.027278 104.557085 194.033279 104.523084 194.027278 104.491082 Q 194.021278 104.451081 194.013278 104.42108 Z" style="fill:#019f4a;"/>
		<path d="M 295.458585 107.077167 Q 295.282579 108.045198 295.662591 108.929227 Q 296.122606 109.995262 296.338613 110.675284 Q 296.53462 111.291304 296.602622 113.713383 C 296.604622 113.775385 296.624623 113.833387 296.660624 113.881389 Q 296.906632 114.2254 297.402648 114.423406 C 297.542652 114.479408 297.540652 114.679415 297.398648 114.731416 Q 296.714625 114.983424 296.122606 114.933423 C 295.866598 114.913422 295.662591 114.713416 295.63659 114.457407 L 295.546587 113.645381 C 295.546587 113.643381 295.546587 113.639381 295.544587 113.637381 Q 295.256578 112.901357 295.218577 112.553345 C 295.214577 112.503344 295.202576 112.455342 295.182576 112.409341 Q 294.606557 111.001295 293.878533 109.92726 Q 293.626525 109.555248 293.272513 109.385242 C 293.212511 109.357241 293.144509 109.351241 293.080507 109.371242 Q 292.752496 109.471245 292.516489 109.717253 Q 291.550457 110.725286 290.434421 111.761319 C 289.618394 112.517344 288.648363 112.931358 287.790335 113.517377 C 287.610329 113.639381 287.368321 113.61138 287.220316 113.451375 Q 286.7363 112.925357 286.648297 112.351339 C 286.616296 112.149332 286.768301 111.963326 286.974308 111.955326 Q 287.054311 111.951326 287.840336 111.935325 C 288.468357 111.923325 289.296384 110.659284 289.632395 110.133266 Q 290.842434 108.249205 291.974471 106.24514 C 292.084475 106.051133 291.960471 105.805125 291.736463 105.779124 Q 290.694429 105.65512 290.176412 105.525116 Q 289.884403 105.451114 288.824368 104.799093 C 288.320352 104.489082 288.340353 104.053068 288.722365 103.683056 C 288.902371 103.50905 289.202381 103.601053 289.214381 103.835061 C 289.236382 104.237074 289.534391 104.389079 289.946405 104.40708 Q 291.64646 104.487082 293.212511 103.769059 C 293.406518 103.679056 293.460519 103.431048 293.322515 103.269043 Q 291.614459 101.276978 293.256513 99.298913 C 293.306514 99.238911 293.362516 99.18691 293.424518 99.140908 C 294.318547 98.490887 295.526587 98.192877 296.572621 98.726895 C 298.098671 99.50492 298.532685 101.000969 297.982667 102.609021 C 297.958666 102.677023 297.924665 102.743026 297.880663 102.799027 C 297.404648 103.409047 297.15664 103.821061 296.352614 104.051068 Q 296.086605 104.127071 295.710593 104.457081 C 295.648591 104.513083 295.63459 104.605086 295.678592 104.677089 L 296.870631 106.633152 C 296.896631 106.675154 296.926632 106.711155 296.964634 106.741156 Q 297.46265 107.16717 298.330678 107.205171 C 298.508684 107.213171 298.574686 107.441179 298.428681 107.543182 L 297.856663 107.943195 C 297.844662 107.953195 297.830662 107.959196 297.816661 107.961196 Q 297.444649 108.059199 297.15264 107.851192 Q 296.53462 107.413178 296.036603 106.901161 C 295.842597 106.703155 295.508586 106.805158 295.458585 107.077167 Z" style="fill:#019f4a;"/>
		<path d="M 312.579143 119.771581 Q 312.427138 119.821582 312.479139 119.961587 Q 311.941122 120.557606 311.87712 121.27963 Q 311.767116 121.019621 311.481107 121.147625 C 311.413105 121.177626 311.357103 121.227628 311.321102 121.29163 Q 310.827085 122.163659 309.825053 122.701676 C 309.757051 122.737677 309.685048 122.759678 309.609046 122.765678 Q 309.095029 122.80768 308.543011 123.159691 C 308.413007 123.243694 308.385006 123.4237 308.485009 123.543704 Q 309.221033 124.427732 310.511075 125.763776 C 310.909088 126.175789 311.319102 126.761808 311.563109 127.187822 Q 311.765116 127.543834 312.873152 129.623902 C 313.307166 130.439928 314.059191 130.309924 314.729213 130.765939 C 314.877217 130.867942 314.869217 131.089949 314.713212 131.179952 L 313.755181 131.73397 C 313.72318 131.751971 313.687179 131.759971 313.649177 131.757971 C 312.985156 131.71197 311.851119 129.895911 311.465106 129.26589 C 311.151096 128.753873 310.845086 128.421863 310.36307 127.837843 Q 310.085061 127.499832 309.74305 127.349828 Q 309.557044 127.081819 309.317036 127.473832 C 309.281035 127.533834 309.331037 127.607836 309.399039 127.595836 L 309.463041 127.585835 Q 309.595045 128.33386 309.705049 128.539866 Q 310.877087 130.729938 311.097094 131.203953 Q 311.981123 133.104015 312.387136 135.194083 Q 312.453138 135.538094 312.48514 136.152114 C 312.49114 136.262118 312.423137 136.362121 312.319134 136.400123 L 311.003091 136.868138 C 310.861087 136.918139 310.767084 137.056144 310.773084 137.208149 C 310.801085 137.85417 311.075094 138.444189 311.237099 139.09821 Q 311.57311 140.466255 311.971123 141.932303 C 311.987123 141.990305 311.997124 142.048307 311.999124 142.108309 Q 312.047125 142.970337 312.449138 143.944368 C 312.475139 144.00437 312.50714 144.060372 312.549142 144.110374 C 312.941154 144.586389 313.757181 145.268412 313.161162 145.926433 C 313.11716 145.974435 313.053158 146.002436 312.987156 146.004436 Q 312.211131 146.022436 311.473107 145.986435 C 310.819085 145.956434 311.015092 144.882399 311.049093 144.376383 C 311.073093 144.00237 310.891088 143.424352 310.66308 143.006338 Q 309.43904 140.758265 308.032994 137.732166 C 307.998993 137.656163 307.924991 137.606162 307.842988 137.600162 Q 307.436975 137.56416 306.880957 137.592161 Q 306.440942 137.614162 306.398941 138.106178 Q 306.37894 138.338186 306.130932 139.738231 C 306.020929 140.360252 306.04293 140.958271 305.964927 141.53029 Q 305.778921 142.884334 305.810922 144.896399 C 305.820922 145.574422 305.628916 145.890432 304.930893 145.940434 Q 303.946861 146.010436 303.332841 145.970434 C 303.122834 145.956434 302.960829 145.778428 302.968829 145.568421 C 302.99283 144.9044 303.620851 144.528387 304.140868 144.198377 C 304.368875 144.054372 304.488879 143.786363 304.444877 143.518355 L 304.032864 141.078275 C 304.030864 141.066275 304.028864 141.054274 304.028864 141.042274 Q 304.040864 140.31625 303.870859 139.640228 C 303.860858 139.606227 303.856858 139.570226 303.854858 139.532225 L 303.822857 137.884171 C 303.818857 137.640163 303.644851 137.432156 303.404844 137.382155 L 302.612818 137.218149 C 302.504814 137.196149 302.424812 137.104146 302.418811 136.994142 Q 302.38481 136.430124 302.440812 136.02611 Q 302.508814 135.550095 302.758822 133.86404 Q 302.882827 133.030013 303.140835 132.157984 C 303.364842 131.39996 303.574849 130.655935 303.836858 129.935912 Q 304.682885 127.627837 304.800889 127.059818 Q 304.858891 126.781809 304.858891 126.421797 C 304.858891 126.253792 304.732887 126.111787 304.564881 126.089786 L 303.352842 125.941782 C 303.322841 125.937782 303.29284 125.929781 303.262839 125.919781 Q 302.206804 125.517768 301.47078 124.879747 C 300.582752 124.109722 299.556718 123.099689 298.808694 121.967652 Q 298.148672 120.96762 297.060637 119.993588 Q 296.662624 119.639576 296.520619 118.81955 C 296.506619 118.735547 296.54262 118.651544 296.614622 118.603542 Q 296.908632 118.415536 297.318645 118.569541 Q 297.338646 118.583542 297.364647 118.591542 C 297.380647 118.597542 297.386647 118.617543 297.376647 118.631543 Q 297.190641 118.861551 297.316645 119.221563 C 297.366647 119.365567 297.574654 119.351567 297.606655 119.201562 Q 297.668657 118.903552 297.566653 118.463538 Q 297.956666 118.257531 298.312678 118.703546 C 298.360679 118.763548 298.39068 118.83355 298.404681 118.907552 C 298.532685 119.657577 298.68469 120.3676 299.244708 120.903617 C 300.314743 121.929651 301.44478 123.195692 302.880826 123.721709 C 302.956829 123.74971 303.038832 123.759711 303.118834 123.75371 Q 304.624883 123.625706 305.980928 122.989685 Q 306.234936 123.065688 306.326939 122.907683 C 306.37094 122.83168 306.334939 122.733677 306.252936 122.705676 Q 306.218935 122.693676 306.134933 122.719677 C 306.096931 122.617673 306.06293 122.541671 305.970927 122.475669 Q 304.430877 121.361632 304.284872 119.429569 Q 304.248871 118.951554 304.670885 117.465505 C 304.690885 117.393503 304.682885 117.3155 304.644884 117.251498 L 304.53688 117.065492 C 304.498879 116.99949 304.496879 116.919488 304.53088 116.851485 C 305.264904 115.363437 306.742952 114.513409 308.361005 114.593412 C 309.947057 114.673414 311.57111 115.813452 312.277133 117.223498 Q 312.829151 118.323533 312.579143 119.771581 Z" style="fill:#019f4a;"/>
		<path d="M 192.751237 118.547541 Q 192.561231 118.709546 192.583231 119.14356 C 192.587231 119.229563 192.693235 119.263564 192.749237 119.199562 Q 193.137249 118.749547 192.887241 118.593542 Q 193.443259 118.52954 193.677267 118.875551 C 193.717268 118.933553 193.729269 119.007556 193.711268 119.075558 Q 193.44926 120.089591 192.523229 120.631609 Q 192.287222 120.769613 191.957211 121.341632 C 191.92721 121.395633 191.891209 121.445635 191.853208 121.493637 Q 190.327158 123.365698 190.211154 123.501702 Q 189.497131 124.337729 187.93108 125.501767 Q 187.921079 125.507768 187.911079 125.513768 L 187.207056 125.839778 C 187.173055 125.853779 187.139054 125.865779 187.103053 125.87578 L 185.643005 126.213791 C 185.434998 126.261792 185.310994 126.479799 185.376996 126.683806 C 185.499 127.067818 185.595004 127.535834 185.717008 127.861844 Q 186.39103 129.691904 187.093052 132.049981 Q 187.163055 132.285988 187.435064 133.532029 Q 187.605069 134.312054 187.62707 135.034078 Q 187.63707 135.380089 187.823076 136.888138 C 187.845077 137.078145 187.723073 137.25615 187.537067 137.302152 L 186.773042 137.490158 C 186.563035 137.54216 186.41703 137.734166 186.423031 137.950173 Q 186.475032 139.776233 186.141021 141.422286 C 185.995017 142.13831 186.079019 142.858333 185.871013 143.542355 C 185.78101 143.836365 185.897013 144.156375 186.157022 144.322381 Q 186.673039 144.652392 187.101053 145.20441 C 187.233057 145.376415 187.235057 145.616423 187.103053 145.794429 Q 186.939047 146.014436 186.571035 146.004436 Q 185.216991 145.960434 185.058986 145.946434 Q 184.326962 145.876431 184.336963 145.22441 C 184.350963 144.228378 184.452966 143.346349 184.320962 142.228313 Q 184.226959 141.448287 184.204958 140.546258 C 184.202958 140.492256 184.196958 140.440254 184.182958 140.388253 L 184.036953 139.796233 C 184.030953 139.774233 184.028953 139.750232 184.030953 139.726231 Q 184.060954 138.908204 183.842946 138.064177 C 183.798945 137.890171 183.64094 137.768167 183.460934 137.768167 L 182.400899 137.768167 C 182.340898 137.768167 182.280896 137.790168 182.232894 137.828169 Q 181.904883 138.102178 181.734878 138.536192 Q 180.682843 141.21828 179.172794 143.440352 C 179.170794 143.442352 179.112792 143.508354 179.04079 143.590357 Q 178.872784 143.782363 178.590775 144.252378 C 178.262765 144.800396 178.536774 145.22841 178.652777 145.680425 C 178.670778 145.752427 178.658777 145.82843 178.618776 145.890432 C 178.250764 146.478451 177.664745 145.986435 177.390736 145.652424 Q 176.842718 144.982402 176.608711 144.122374 C 176.536708 143.860366 176.664712 143.582357 176.910721 143.464353 L 177.552741 143.158343 C 177.738748 143.07034 177.884752 142.916335 177.966755 142.728329 Q 178.302766 141.950303 178.402769 141.296282 C 178.480772 140.780265 178.72478 140.202246 178.764781 139.820234 C 178.852784 138.936205 179.242797 138.330185 179.228796 137.490158 C 179.226796 137.354154 179.126793 137.24015 178.992788 137.222149 Q 178.42877 137.142147 177.722747 136.772135 Q 175.426672 135.572096 174.240633 133.294021 Q 174.042627 132.912009 174.008626 132.623999 Q 173.950624 132.121983 174.282635 132.03398 Q 175.122662 132.357991 175.470674 132.351991 Q 176.132695 132.33799 176.852719 132.291989 C 176.864719 132.291989 176.876719 132.281988 176.876719 132.267988 C 176.878719 132.255987 176.870719 132.243987 176.858719 132.239987 Q 176.828718 132.229987 176.782716 132.191985 Q 177.450738 132.157984 177.908753 131.911976 Q 179.212796 131.207953 180.224829 129.89391 C 180.908851 129.003881 181.296863 127.831843 181.18686 126.779809 C 181.164859 126.567802 181.030855 126.399797 180.858849 126.367796 C 180.438836 126.289793 179.774814 126.903813 179.504805 127.255825 Q 179.088792 127.805842 177.260732 130.80194 Q 176.866719 131.445961 176.546709 132.107983 Q 176.194697 132.145984 176.196697 131.979978 Q 176.198697 131.375959 176.198697 131.363958 C 176.194697 131.277956 176.096694 131.229954 176.028692 131.283956 Q 175.742682 131.507963 175.37467 131.459962 C 175.332669 131.453961 175.290668 131.477962 175.274667 131.517963 Q 175.264667 131.541964 175.254667 131.573965 Q 174.994658 131.121951 175.290668 130.685936 C 175.328669 130.629934 175.380671 130.583933 175.440673 130.553932 C 176.208698 130.17792 176.618711 130.015914 177.040725 129.247889 C 177.668745 128.107852 178.282765 126.673806 179.326799 125.419765 Q 179.920819 125.083754 180.088824 124.483734 Q 181.106857 124.251727 181.750878 123.479701 C 181.894883 123.307696 181.79888 123.045687 181.578873 123.007686 L 180.020822 122.731677 C 179.97482 122.723677 179.930819 122.707676 179.892818 122.683675 Q 179.844816 122.655675 179.064791 121.983653 C 177.830751 120.917618 177.482739 119.13556 177.936754 117.59351 Q 178.292766 116.38347 179.418802 115.559443 Q 180.988853 114.411406 183.172925 114.793418 Q 183.544937 114.85742 184.040953 115.087428 C 184.85898 115.46744 185.511001 116.36947 185.815011 117.183496 Q 186.047018 117.797516 186.047018 118.697546 Q 186.049018 119.955587 185.985016 120.235596 Q 185.899013 120.619608 185.19299 121.813647 C 185.158989 121.867649 185.116988 121.91565 185.066986 121.951652 Q 184.528969 122.345664 184.194958 122.919683 C 184.156957 122.983685 184.186958 123.065688 184.25696 123.089689 C 184.478967 123.165691 184.724975 123.159691 184.994984 123.251694 Q 186.227024 123.675708 187.073052 123.72771 C 187.415063 123.74771 187.863078 123.537703 188.183088 123.319696 Q 190.011148 122.073656 191.509196 120.3616 C 191.555198 120.307598 191.587199 120.241596 191.597199 120.171594 Q 191.687202 119.593575 191.953211 118.761548 C 192.021213 118.549541 192.209219 118.409536 192.413226 118.419536 Q 192.55123 118.425537 192.751237 118.547541 Z" style="fill:#019f4a;"/>
		<path fill-opacity="0.996" d="M 297.566653 118.463538 Q 297.668657 118.903552 297.606655 119.201562 C 297.574654 119.351567 297.366647 119.365567 297.316645 119.221563 Q 297.190641 118.861551 297.376647 118.631543 C 297.386647 118.617543 297.380647 118.597542 297.364647 118.591542 Q 297.338646 118.583542 297.318645 118.569541 L 297.566653 118.463538 Z" style="fill:#fefdfd;"/>
		<path fill-opacity="0.996" d="M 192.751237 118.547541 Q 192.819239 118.569541 192.887241 118.593542 Q 193.137249 118.749547 192.749237 119.199562 C 192.693235 119.263564 192.587231 119.229563 192.583231 119.14356 Q 192.561231 118.709546 192.751237 118.547541 Z" style="fill:#fefdfd;"/>
		<path fill-opacity="0.996" d="M 312.579143 119.771581 Q 312.607143 119.991588 312.921154 120.099591 Q 312.50114 120.203595 312.479139 119.961587 Q 312.427138 119.821582 312.579143 119.771581 Z" style="fill:#fefdfd;"/>
		<path d="M 312.479139 119.961587 Q 312.50114 120.203595 312.921154 120.099591 C 314.525206 120.557606 315.159227 122.151658 314.65521 123.697709 Q 314.559207 123.993718 314.579208 124.265727 C 314.595208 124.461733 314.791215 124.589738 314.977221 124.523735 L 315.391234 124.375731 C 315.517238 124.331729 315.645243 124.441733 315.619242 124.573737 Q 315.395234 125.661773 314.369201 125.775776 Q 314.223196 125.723775 314.097192 125.777776 Q 313.965188 125.835778 313.981188 125.971783 Q 313.997189 126.107787 314.169194 126.089786 L 314.179195 126.387796 C 314.183195 126.483799 314.105192 126.565802 314.009189 126.563802 Q 312.657145 126.561802 312.127128 125.687773 Q 312.073126 125.59777 311.725115 124.96575 C 311.651112 124.833746 311.615111 124.683741 311.617111 124.533736 L 311.637112 122.949684 C 311.639112 122.907683 311.645112 122.867681 311.655112 122.82568 Q 311.855119 122.085656 311.87712 121.27963 Q 311.941122 120.557606 312.479139 119.961587 Z" style="fill:#054a9a;"/>
		<path fill-opacity="0.996" d="M 305.980928 122.989685 L 306.134933 122.719677 Q 306.218935 122.693676 306.252936 122.705676 C 306.334939 122.733677 306.37094 122.83168 306.326939 122.907683 Q 306.234936 123.065688 305.980928 122.989685 Z" style="fill:#fefdfd;"/>
		<path d="M 179.296798 123.163691 Q 179.292798 123.353697 179.210795 123.553704 C 179.198795 123.585705 179.214796 123.621706 179.246797 123.631706 L 179.302798 123.651707 C 179.328799 123.659707 179.3568 123.647707 179.364801 123.621706 L 179.490805 123.255694 C 179.498805 123.231693 179.484804 123.205692 179.460804 123.199692 Q 179.432803 123.191692 179.408802 123.179692 L 179.928819 122.963685 C 179.95482 122.951684 179.984821 122.953684 180.010822 122.965685 Q 180.142826 123.031687 180.180827 123.271695 L 180.194828 123.471701 L 180.068823 123.833713 Q 180.018822 123.913716 180.026822 124.017719 L 179.996821 124.233726 Q 179.94882 124.149723 179.946819 124.05372 C 179.906818 124.177724 179.872817 124.289728 179.928819 124.463733 Q 179.986821 124.647739 179.832816 124.787744 Q 179.564807 125.029752 179.284798 125.221758 Q 178.272765 125.177757 177.902753 124.321729 C 177.876752 124.261727 177.866752 124.195725 177.874752 124.129723 Q 177.978755 123.263694 178.818783 123.015686 Q 179.130793 122.923683 179.296798 123.163691 Z" style="fill:#019f4a;"/>
		<path fill-opacity="0.996" d="M 179.408802 123.179692 Q 179.432803 123.191692 179.460804 123.199692 C 179.484804 123.205692 179.498805 123.231693 179.490805 123.255694 L 179.364801 123.621706 C 179.3568 123.647707 179.328799 123.659707 179.302798 123.651707 L 179.246797 123.631706 C 179.214796 123.621706 179.198795 123.585705 179.210795 123.553704 Q 179.292798 123.353697 179.296798 123.163691 Q 179.3528 123.185692 179.408802 123.179692 Z" style="fill:#fefdfd;"/>
		<path d="M 180.194828 123.471701 L 180.180827 123.271695 Q 180.244829 123.347697 180.194828 123.471701 Z" style="fill:#054a9a;"/>
		<path d="M 180.068823 123.833713 L 180.026822 124.017719 Q 180.018822 123.913716 180.068823 123.833713 Z" style="fill:#054a9a;"/>
		<path fill-opacity="0.996" d="M 179.996821 124.233726 L 180.088824 124.483734 Q 179.920819 125.083754 179.326799 125.419765 Q 179.276798 125.313761 179.284798 125.221758 Q 179.564807 125.029752 179.832816 124.787744 Q 179.986821 124.647739 179.928819 124.463733 C 179.872817 124.289728 179.906818 124.177724 179.946819 124.05372 Q 179.94882 124.149723 179.996821 124.233726 Z" style="fill:#fefdfd;"/>
		<path fill-opacity="0.996" d="M 314.369201 125.775776 Q 314.209196 125.811777 314.169194 126.089786 Q 313.997189 126.107787 313.981188 125.971783 Q 313.965188 125.835778 314.097192 125.777776 Q 314.223196 125.723775 314.369201 125.775776 Z" style="fill:#fefdfd;"/>
		<path fill-opacity="0.996" d="M 253.231208 144.216377 L 252.093171 144.376383 Q 252.081171 140.91027 252.081171 137.54216 Q 252.081171 135.604097 251.937166 134.718068 C 251.577154 132.495995 250.623123 130.421928 248.851065 128.999881 C 245.228947 126.093787 240.752801 128.481864 239.314755 132.405992 Q 238.542729 134.508061 238.55873 135.826104 Q 238.612732 139.976239 238.524729 144.140375 Q 238.272721 144.050372 238.142716 143.864366 C 238.112715 143.822364 238.096715 143.772363 238.096715 143.720361 L 238.096715 143.110341 C 238.096715 143.052339 238.054713 143.002338 237.996712 142.994337 C 237.93871 142.984337 237.882708 143.020338 237.866707 143.07634 C 237.748704 143.484353 237.884708 144.128374 237.466694 144.316381 Q 237.432693 140.990272 237.450694 137.704165 Q 237.464694 134.882073 237.714702 133.770037 C 238.406725 130.705937 240.488793 127.549834 243.722898 126.733807 C 246.342984 126.071786 248.741062 127.065818 250.571121 129.033882 C 252.621188 131.239954 253.235208 134.344056 253.249209 137.336153 Q 253.267209 140.792266 253.231208 144.216377 Z" style="fill:#fefdfd;"/>
		<path fill-opacity="0.996" d="M 309.74305 127.349828 Q 309.517043 127.387829 309.463041 127.585835 L 309.399039 127.595836 C 309.331037 127.607836 309.281035 127.533834 309.317036 127.473832 Q 309.557044 127.081819 309.74305 127.349828 Z" style="fill:#fefdfd;"/>
		<path d="M 252.093171 144.376383 L 243.7649 144.354382 Q 241.962841 144.116374 240.210784 144.330381 Q 239.684767 144.430384 239.074747 144.414384 Q 238.690734 144.402383 238.524729 144.140375 Q 238.612732 139.976239 238.55873 135.826104 Q 238.542729 134.508061 239.314755 132.405992 C 240.752801 128.481864 245.228947 126.093787 248.851065 128.999881 C 250.623123 130.421928 251.577154 132.495995 251.937166 134.718068 Q 252.081171 135.604097 252.081171 137.54216 Q 252.081171 140.91027 252.093171 144.376383 Z" style="fill:#054a9a;"/>
		<path fill-opacity="0.996" d="M 176.546709 132.107983 L 176.782716 132.191985 Q 176.828718 132.229987 176.858719 132.239987 C 176.870719 132.243987 176.878719 132.255987 176.876719 132.267988 C 176.876719 132.281988 176.864719 132.291989 176.852719 132.291989 Q 176.132695 132.33799 175.470674 132.351991 Q 175.122662 132.357991 174.282635 132.03398 L 175.234666 132.067981 Q 175.568677 132.175985 175.776684 132.093982 C 175.898688 132.045981 175.944689 131.897976 175.872687 131.787972 Q 175.834685 131.73197 175.722682 131.667968 L 175.616678 131.649968 Q 175.550676 131.571965 175.462673 131.651968 L 175.254667 131.573965 Q 175.264667 131.541964 175.274667 131.517963 C 175.290668 131.477962 175.332669 131.453961 175.37467 131.459962 Q 175.742682 131.507963 176.028692 131.283956 C 176.096694 131.229954 176.194697 131.277956 176.198697 131.363958 Q 176.198697 131.375959 176.196697 131.979978 Q 176.194697 132.145984 176.546709 132.107983 Z" style="fill:#fefdfd;"/>
		<path d="M 175.616678 131.649968 L 175.462673 131.651968 Q 175.550676 131.571965 175.616678 131.649968 Z" style="fill:#054a9a;"/>
		<path d="M 175.234666 132.067981 Q 175.536676 132.093982 175.65468 131.999979 Q 175.774683 131.903976 175.786684 131.853974 Q 175.800684 131.789972 175.722682 131.667968 Q 175.834685 131.73197 175.872687 131.787972 C 175.944689 131.897976 175.898688 132.045981 175.776684 132.093982 Q 175.568677 132.175985 175.234666 132.067981 Z" style="fill:#019f4a;"/>
		<path fill-opacity="0.996" d="M 243.7649 144.354382 L 240.210784 144.330381 Q 241.962841 144.116374 243.7649 144.354382 Z" style="fill:#fefdfd;"/>
		<path d="M 306.924958 177.44546 L 306.716951 177.44146 C 306.67695 177.43946 306.636949 177.461461 306.616948 177.497462 Q 306.546946 177.617466 306.638949 177.673468 Q 306.98096 178.599498 307.148966 179.557529 Q 307.236968 180.057546 307.478976 181.481592 Q 307.678983 182.64963 307.636981 183.781667 C 307.634981 183.857669 307.59298 183.925672 307.526978 183.963673 L 307.006961 184.263683 C 306.844956 184.357686 306.764953 184.545692 306.810955 184.727698 Q 307.120965 185.947738 307.206967 186.715763 Q 307.308971 187.611792 307.438975 188.095808 C 307.616981 188.753829 307.60498 189.253845 307.774986 189.933867 C 307.964992 190.701892 308.008994 191.389915 308.166999 192.091938 Q 308.389006 193.08797 308.475009 194.076002 C 308.51501 194.552018 308.775019 195.154038 309.223033 195.588052 Q 309.579045 195.930063 309.909056 196.534083 C 310.225066 197.114102 309.529043 197.402111 309.083029 197.402111 Q 308.235001 197.400111 307.540978 197.400111 C 307.262969 197.398111 307.038962 197.174103 307.038962 196.896094 L 307.038962 195.54205 C 307.038962 195.418046 307.016961 195.294042 306.97296 195.176038 Q 306.832955 194.794026 306.820955 194.464015 C 306.818955 194.366012 306.800954 194.268009 306.766953 194.176006 Q 305.254904 189.939868 303.410844 185.611727 Q 303.164836 185.031708 302.596817 185.207713 C 302.534815 185.225714 302.488814 185.277716 302.474813 185.341718 L 300.460748 195.142037 C 300.446747 195.21604 300.438747 195.290042 300.436747 195.364044 Q 300.428747 196.576084 300.386745 196.790091 Q 300.298742 197.222105 299.770725 197.214105 Q 299.498716 197.210105 297.334646 197.198104 C 297.060637 197.196104 296.836629 196.976097 296.832629 196.700088 Q 296.820629 195.868061 297.626655 195.374045 Q 298.134672 195.060035 298.668689 194.744024 C 298.728691 194.708023 298.776693 194.658021 298.808694 194.596019 Q 299.016701 194.186006 299.036701 193.38798 Q 299.092703 191.24791 298.936698 188.307814 C 298.858695 186.829766 298.856695 185.691729 298.844695 184.145679 C 298.842695 184.059676 298.782693 183.983674 298.69669 183.965673 L 298.120671 183.847669 C 297.930665 183.809668 297.800661 183.635662 297.818661 183.443656 L 298.07267 180.545561 C 298.07667 180.49756 298.08467 180.449558 298.096671 180.403557 Q 298.208674 179.993543 298.456682 178.783504 Q 298.722691 177.485462 299.390713 175.537398 Q 299.572719 175.011381 299.640721 174.643369 C 299.790726 173.845343 299.898729 173.641336 299.582719 173.011316 C 299.552718 172.953314 299.510717 172.901312 299.460715 172.859311 C 298.270676 171.847278 297.520652 171.30526 296.788628 170.183224 Q 295.346581 167.973152 294.898566 166.99312 Q 293.926535 164.86505 293.340515 164.195029 C 293.290514 164.137027 293.258513 164.067024 293.246512 163.993022 Q 293.224512 163.871018 293.090507 163.144994 C 293.040506 162.866985 293.224512 162.606977 293.49052 162.576976 Q 293.682527 162.554975 293.914534 162.818984 Q 293.78653 163.036991 293.932535 163.228997 C 293.994537 163.309 294.114541 163.309 294.174543 163.226997 Q 294.380549 162.948988 294.334548 162.71698 Q 294.528554 162.41097 294.962568 162.446972 C 295.098573 162.458972 295.206576 162.564975 295.218577 162.70098 Q 295.298579 163.609009 295.096573 164.461037 C 295.086572 164.503039 295.086572 164.54704 295.096573 164.591041 L 295.246578 165.201061 C 295.256578 165.235062 295.268578 165.269064 295.286579 165.301065 Q 296.22861 167.00312 297.78866 168.817179 Q 298.09267 169.169191 298.522684 169.365197 C 298.582686 169.393198 298.646688 169.407198 298.712691 169.407198 Q 299.484716 169.409198 300.288742 169.229193 C 300.398746 169.205192 300.508749 169.193191 300.620753 169.191191 Q 301.396778 169.187191 301.400778 169.187191 C 301.600785 169.183191 301.77479 169.033186 301.824792 168.825179 Q 301.896794 168.53117 301.644786 168.213159 C 301.612785 168.173158 301.572784 168.139157 301.526782 168.115156 Q 299.598719 167.069122 299.274709 165.015055 Q 299.236708 164.763047 299.214707 163.869018 C 299.212707 163.751014 299.174706 163.63701 299.106703 163.541007 C 298.960699 163.337001 298.796693 162.978989 299.016701 162.740981 Q 299.392713 162.336968 299.398713 161.810951 C 299.404713 161.17693 300.186739 160.2369 300.726756 160.020892 C 300.772758 160.002892 300.822759 159.992892 300.872761 159.992892 L 301.76279 159.992892 C 301.822792 159.992892 301.882794 159.970891 301.928795 159.93089 C 302.398811 159.522876 302.792824 159.562878 303.366842 159.63888 C 303.758855 159.688882 304.248871 159.510876 304.564881 159.64888 Q 305.228903 159.93689 305.616916 160.2629 C 305.682918 160.316902 305.76092 160.348903 305.844923 160.356903 Q 306.790954 160.444906 307.356972 161.266933 C 307.406974 161.338935 307.430975 161.424938 307.424975 161.510941 Q 307.390973 162.170963 307.89099 162.70898 C 307.976993 162.802983 308.024994 162.924987 308.024994 163.052991 L 308.024994 164.893051 C 308.024994 164.973054 307.992993 165.049056 307.936991 165.105058 L 307.310971 165.731079 C 307.27697 165.76508 307.256969 165.809081 307.252969 165.857083 L 307.206967 166.3831 C 307.194967 166.513104 307.136965 166.635108 307.040962 166.723111 Q 305.768921 167.90715 304.562881 168.363164 C 304.480879 168.393165 304.420877 168.465168 304.406876 168.551171 Q 304.368875 168.761177 304.420877 169.015186 C 304.432877 169.075188 304.462878 169.131189 304.506879 169.175191 Q 304.792889 169.4612 305.088898 169.597205 C 305.1509 169.627206 305.208902 169.665207 305.258904 169.713208 Q 306.190934 170.599237 306.852956 171.60727 Q 307.856989 173.13532 308.635014 174.691371 C 309.061028 175.545398 309.903055 177.163451 308.711016 177.569464 C 308.677015 177.581465 308.639014 177.585465 308.601013 177.583465 L 306.924958 177.44546 Z M 306.860956 175.615401 L 305.936926 174.567367 C 305.926926 174.555366 305.910925 174.555366 305.898925 174.565367 L 305.886924 174.575367 C 305.694918 174.745372 305.74492 175.117385 305.998928 175.405394 L 306.038929 175.449395 C 306.292938 175.737405 306.654949 175.835408 306.846956 175.665402 L 306.858956 175.655402 C 306.870957 175.643402 306.870957 175.627401 306.860956 175.615401 Z" style="fill:#019f4a;"/>
		<path d="M 196.561361 162.422971 L 196.813369 163.290999 C 196.84337 163.399003 196.993375 163.409003 197.039377 163.305 Q 197.187381 162.958988 197.215382 162.548975 C 197.215382 162.530974 197.207382 162.512974 197.195382 162.500973 Q 197.14138 162.452972 197.051377 162.466972 Q 197.897405 162.170963 197.993408 162.758982 Q 198.177414 163.911019 197.44939 164.55304 Q 196.697365 165.217062 196.571361 165.47307 C 195.90134 166.833115 195.517327 167.467135 194.411291 169.381198 C 193.847273 170.355229 193.205252 171.151255 192.407226 171.813277 Q 191.559198 172.5153 191.359191 172.887312 C 191.333191 172.939314 191.32119 172.995315 191.32319 173.051317 Q 191.335191 173.357327 191.6092 174.181354 C 191.739204 174.575367 191.889209 174.97538 192.383225 175.005381 Q 192.673234 175.021381 192.937243 175.201387 C 192.997245 175.241389 193.033246 175.307391 193.035246 175.379393 Q 193.051247 176.331424 192.143217 176.81144 C 192.057214 176.855441 192.005213 176.943444 192.007213 177.039447 L 192.021213 177.607466 C 192.021213 177.625466 192.023213 177.641467 192.027213 177.657467 Q 192.693235 179.997544 192.747237 180.449558 C 192.913242 181.845604 193.091248 182.835636 192.997245 184.235682 C 192.989245 184.351686 192.951243 184.461689 192.885241 184.557692 C 192.517229 185.08971 192.699235 185.695729 192.559231 186.171745 Q 192.411226 186.677761 192.409226 188.027805 Q 192.409226 188.383817 192.203219 189.663859 C 191.959211 191.165908 191.93121 193.141972 191.719203 194.226007 Q 191.6172 194.746024 191.653201 195.174038 C 191.673202 195.418046 191.813206 195.634053 192.027213 195.752057 Q 192.637233 196.088068 193.213252 196.470081 C 193.809271 196.866093 193.861273 197.99813 192.923242 197.99613 Q 190.969179 197.99013 190.721171 198.00013 C 190.159152 198.020131 190.013148 197.67212 190.015148 197.148103 Q 190.023148 194.956031 189.79514 193.525985 Q 189.611134 192.379947 189.611134 191.879931 C 189.609134 191.151907 189.411128 190.63789 189.423128 189.953868 C 189.425128 189.873866 189.409128 189.795863 189.379127 189.721861 Q 189.225122 189.337848 189.207121 188.331815 Q 189.195121 187.741796 188.829109 185.483722 C 188.815109 185.39772 188.765107 185.323717 188.691104 185.279716 Q 188.199088 184.981706 187.837077 185.513723 Q 187.389062 186.169745 187.02105 187.105775 C 186.571035 188.251813 186.207024 189.037838 185.553002 190.61989 Q 185.106988 191.703925 184.920982 192.247943 Q 184.370964 193.857995 184.350963 193.897997 C 183.800945 194.974032 183.876948 195.920063 184.198958 196.896094 Q 184.286961 197.162103 184.018952 197.482113 C 183.974951 197.534115 183.908949 197.566116 183.838946 197.572116 Q 183.04492 197.624118 182.168892 197.582117 C 181.434868 197.548116 181.534871 196.46408 181.708877 196.068067 Q 182.10089 195.166038 182.334897 194.738024 C 182.370898 194.674022 182.392899 194.60202 182.400899 194.530017 L 182.442901 194.118004 C 182.450901 194.044001 182.464902 193.973999 182.486902 193.903997 Q 182.782912 192.937965 182.842914 192.139939 C 182.848914 192.061937 182.864915 191.983934 182.888915 191.909932 Q 183.184925 190.997902 183.238927 190.243878 C 183.244927 190.161875 183.258927 190.079872 183.284928 190.00187 Q 183.600939 189.007837 183.63894 188.137809 C 183.64294 188.053806 183.65894 187.969803 183.686941 187.889801 Q 184.006952 186.971771 184.042953 186.165745 C 184.046953 186.075742 184.062954 185.985739 184.090955 185.899736 Q 184.240959 185.447721 184.25096 184.723698 C 184.25896 184.299684 183.998952 184.125678 183.63294 184.065676 Q 182.922916 183.951672 182.350898 183.743666 C 181.964885 183.601661 181.646875 183.607661 181.266863 183.487657 C 181.024855 183.411655 180.898851 183.143646 180.994854 182.909639 Q 182.032887 180.371556 183.400932 177.907475 Q 183.694942 177.379458 184.748976 175.879409 C 184.786977 175.825408 184.808978 175.761406 184.814978 175.695403 Q 184.830979 175.505397 184.588971 175.177386 C 184.100955 174.513365 183.864947 173.969347 184.180957 173.163321 Q 184.57897 172.147288 185.128988 171.437265 Q 185.591003 170.839245 186.591036 169.839212 C 186.689039 169.741209 186.775042 169.633206 186.849044 169.517202 L 187.109053 169.115189 C 187.169055 169.023186 187.129054 168.899182 187.02705 168.85718 C 186.489033 168.641173 185.631005 168.383165 185.18299 168.007153 Q 184.618972 167.535137 184.220959 166.985119 C 184.218959 166.981119 184.214959 166.977119 184.212959 166.971119 L 183.34093 165.307065 L 183.066921 163.63301 Q 183.396932 162.548975 183.752944 162.010957 Q 184.27096 161.228932 185.462999 160.470907 C 186.475032 159.824886 187.651071 159.708882 188.785108 159.810886 C 190.037148 159.920889 191.219187 160.800918 191.509196 162.108961 Q 191.6252 162.630978 191.93921 163.212997 C 191.969211 163.268998 191.991212 163.329 192.005213 163.391002 Q 192.745237 166.69511 189.873143 168.437167 C 189.661136 168.567171 189.653136 168.873181 189.861143 169.013186 C 190.37916 169.359197 192.24522 169.065187 192.563231 168.961184 Q 192.977244 168.82718 193.411258 168.213159 Q 194.241285 167.039121 195.62133 164.979054 Q 195.823337 164.677044 195.973342 164.321033 C 196.013343 164.225029 196.017343 164.119026 195.987342 164.021023 Q 195.781336 163.389002 195.819337 162.676979 C 195.829337 162.452972 195.975342 162.262966 196.177349 162.206964 Q 196.389355 162.148962 196.561361 162.422971 Z" style="fill:#019f4a;"/>
		<path d="M 212.433878 176.255422 L 212.281873 176.329424 C 212.217871 176.357425 212.16187 176.403426 212.121868 176.461428 Q 211.049833 177.977478 210.233807 179.379523 Q 209.979798 179.813538 209.801793 180.069546 Q 209.445781 180.579563 209.431781 180.79357 Q 209.381779 181.663598 209.205773 182.255617 C 209.167772 182.383621 209.009767 182.427623 208.909764 182.33762 C 208.559752 182.017609 208.463749 182.325619 208.17574 182.209616 Q 208.057736 182.161614 208.015734 182.003609 Q 207.927732 181.653598 207.58572 181.567595 C 207.505718 181.547594 207.443716 181.481592 207.431715 181.399589 C 207.27171 180.395557 208.455749 180.393557 208.761759 179.57153 Q 208.843761 179.355523 208.945765 179.127515 C 209.937797 176.939444 211.057834 174.703371 212.569883 172.773308 Q 213.337908 171.793276 214.661951 171.081253 C 214.749954 171.035251 214.767954 170.915248 214.697952 170.845245 L 214.461944 170.609238 C 214.419943 170.567236 214.373942 170.535235 214.32194 170.509234 Q 213.147902 169.955216 212.577883 168.717176 Q 212.231872 167.965151 212.16187 167.125124 C 212.141869 166.893116 211.923862 166.731111 211.695854 166.781113 Q 211.279841 166.871116 211.039833 166.801113 C 210.703822 166.70311 210.677821 166.237095 210.999832 166.07109 Q 211.55585 165.78508 211.805858 165.211062 Q 212.457879 163.715013 212.49188 163.645011 Q 212.571883 163.477005 213.063899 163.068992 C 213.431911 162.764982 213.977929 162.656978 214.549947 162.450972 C 214.62195 162.422971 214.699952 162.40897 214.777955 162.41097 Q 215.081965 162.41097 215.755987 162.268966 Q 217.250035 161.956956 218.668082 162.840984 C 218.732084 162.880986 218.790086 162.930987 218.838087 162.988989 Q 219.650114 163.969021 220.012125 165.331066 C 220.180131 165.965086 220.562143 166.179093 221.07616 166.499104 C 221.134162 166.535105 221.166163 166.599107 221.158163 166.665109 C 221.08216 167.393133 220.430139 167.169125 219.966124 167.193126 C 219.84012 167.199126 219.734116 167.29513 219.716116 167.419134 L 219.608112 168.125157 C 219.600112 168.177158 219.582111 168.22916 219.55411 168.273161 Q 218.962091 169.229193 218.662081 169.515202 Q 218.01206 170.137222 217.114031 170.447232 C 216.866023 170.531235 216.77402 170.833245 216.934025 171.037252 C 217.034028 171.165256 217.314037 171.231258 217.458042 171.361262 C 218.204066 172.035284 218.550078 172.689305 218.952091 173.643336 Q 219.2181 174.279357 219.55411 174.96938 Q 220.250133 176.399426 220.76015 177.73147 Q 220.984157 178.317489 221.040159 179.141516 C 221.090161 179.89954 220.670147 180.627564 220.280134 181.293586 C 219.922122 181.905606 219.932123 182.401622 220.192131 183.113645 Q 221.112161 185.637727 221.238165 185.985739 C 221.314168 186.195746 221.158163 186.415753 220.936156 186.415753 L 219.282102 186.415753 C 219.066095 186.415753 218.888089 186.585758 218.882089 186.801765 L 218.62808 193.949998 C 218.62208 194.138004 218.694082 194.32201 218.826087 194.454015 L 219.754117 195.380045 C 219.954123 195.582052 219.896122 195.920063 219.640113 196.042067 L 219.442107 196.13607 C 219.406106 196.15207 219.366104 196.15807 219.326103 196.15407 Q 218.484076 196.056067 217.420041 196.044067 Q 216.980027 196.040066 216.892024 195.454047 Q 216.816021 194.946031 216.806021 193.953999 C 216.804021 193.829994 216.79002 193.70399 216.762019 193.581986 C 216.600014 192.881964 216.682017 192.209942 216.518011 191.517919 C 216.374007 190.9219 216.46401 190.255878 216.318005 189.629858 C 216.192001 189.08584 216.300004 188.421818 216.137999 187.879801 Q 216.083997 187.699795 216.005995 187.103775 C 215.993994 187.015772 215.919992 186.94977 215.829989 186.94977 L 214.379942 186.94977 C 214.271938 186.94977 214.173935 187.013772 214.127934 187.111775 L 213.649918 188.147809 C 213.647918 188.151809 213.645918 188.15581 213.645918 188.15981 Q 213.621917 188.321815 213.571915 188.48382 Q 213.38991 189.08784 212.401877 190.965901 Q 211.609852 192.47195 210.397812 193.881996 C 210.255807 194.048002 210.213806 194.276009 210.285808 194.482016 Q 210.459814 194.978032 210.405812 195.738057 C 210.399812 195.812059 210.363811 195.880061 210.305809 195.924063 C 209.561785 196.500081 208.701757 195.802059 208.441748 195.068035 C 208.18374 194.334011 208.19374 193.923998 208.715757 193.317978 Q 209.143771 192.825962 209.40778 192.16594 Q 210.363811 189.781863 211.157837 187.26378 Q 211.26784 186.915769 211.133836 186.693762 C 211.093835 186.62776 211.029833 186.577758 210.95583 186.557757 C 210.205806 186.34375 209.517783 186.357751 208.743758 185.951738 C 208.659755 185.907736 208.625754 185.801733 208.671756 185.71773 Q 210.425813 182.367621 211.943862 178.749503 C 211.961863 178.703501 211.975863 178.6555 211.985864 178.605498 C 212.075867 178.095482 212.321875 177.773471 212.435878 177.235454 Q 212.521881 176.81744 212.655886 176.459428 C 212.705887 176.323424 212.565883 176.19342 212.433878 176.255422 Z M 218.363512 176.803199 C 218.160065 176.883442 218.236067 177.563464 218.533377 178.321989 C 218.830087 179.081514 219.2361 179.631532 219.440667 179.551769 C 219.644113 179.471526 219.568111 178.791504 219.270801 178.03298 C 218.974092 177.273455 218.568078 176.723437 218.363512 176.803199 Z" style="fill:#054a9a;"/>
		<path fill-opacity="0.996" d="M 196.561361 162.422971 L 196.779368 162.482973 Q 196.871371 162.518974 196.971374 162.486973 Q 197.027376 162.462972 197.051377 162.466972 Q 197.14138 162.452972 197.195382 162.500973 C 197.207382 162.512974 197.215382 162.530974 197.215382 162.548975 Q 197.187381 162.958988 197.039377 163.305 C 196.993375 163.409003 196.84337 163.399003 196.813369 163.290999 L 196.561361 162.422971 Z" style="fill:#fefdfd;"/>
		<path d="M 196.971374 162.486973 Q 196.871371 162.518974 196.779368 162.482973 L 196.971374 162.486973 Z" style="fill:#019f4a;"/>
		<path fill-opacity="0.996" d="M 294.334548 162.71698 Q 294.380549 162.948988 294.174543 163.226997 C 294.114541 163.309 293.994537 163.309 293.932535 163.228997 Q 293.78653 163.036991 293.914534 162.818984 Q 294.146542 162.982989 294.334548 162.71698 Z" style="fill:#fefdfd;"/>
		<path d="M 237.534697 184.535692 Q 237.722703 184.511691 237.754704 184.287683 C 237.770704 184.18968 237.682701 184.107678 237.586698 184.129678 Q 237.418693 184.16768 237.374691 184.455689 C 236.646668 184.625694 236.766671 183.87967 236.880675 183.477657 C 236.906676 183.383654 236.968678 183.303651 237.054681 183.25565 Q 237.486695 183.009642 237.902709 182.711632 Q 238.238719 182.471624 238.608732 181.615596 Q 239.952775 178.519495 240.574796 177.179452 Q 240.766802 176.767438 241.63083 175.339392 C 242.444857 173.993348 243.350886 173.44133 244.634928 172.751307 C 244.896936 172.609303 244.902937 172.235291 244.644928 172.085286 L 243.970906 171.697273 C 243.960906 171.691273 243.950906 171.689273 243.940905 171.687273 L 242.820869 171.58927 C 242.668864 171.575269 242.53486 171.487266 242.462857 171.353262 L 242.142847 170.759242 C 242.120846 170.717241 242.102845 170.67524 242.092845 170.629238 Q 241.850837 169.535203 241.836837 169.279194 Q 241.724833 167.175126 242.620862 165.811081 Q 243.904904 163.859018 246.284982 163.801016 C 246.828999 163.787015 247.353017 163.93502 247.799031 164.021023 C 247.861033 164.031023 247.921035 164.051024 247.975037 164.083025 L 249.353082 164.85305 C 249.473086 164.919052 249.623091 164.84105 249.635091 164.703045 Q 249.703093 163.92502 248.98907 163.425003 C 248.777063 163.276999 248.885066 162.944988 249.143075 162.948988 Q 249.811097 162.960988 250.335114 163.266998 C 251.047137 163.683012 251.369147 164.521039 250.881132 165.233062 Q 250.623123 165.609075 250.569121 165.697077 C 250.493119 165.821082 250.599122 165.975087 250.741127 165.951086 L 251.595155 165.807081 C 251.719159 165.78708 251.813162 165.919085 251.74916 166.029088 L 251.687158 166.135092 C 251.625156 166.243095 251.517152 166.317098 251.395148 166.337098 L 250.633123 166.465103 C 250.487119 166.491103 250.385115 166.619108 250.391116 166.765112 C 250.405116 167.061122 250.419116 167.565138 250.481119 167.867148 Q 250.725126 169.079188 250.393116 170.465233 Q 250.269112 170.98925 250.021104 171.359262 Q 249.795096 171.693273 249.329081 171.629271 Q 248.021038 171.445265 247.44702 172.5313 C 247.417019 172.587302 247.433019 172.655304 247.481021 172.695306 C 247.905035 173.031317 248.451052 173.189322 248.843065 173.515332 Q 249.973102 174.459363 250.633123 175.665402 Q 252.201175 178.523496 253.427215 181.819603 C 253.60122 182.287618 253.861229 182.857637 254.493249 183.143646 Q 254.777259 183.27165 255.165271 183.663663 C 255.213273 183.713665 255.231273 183.785667 255.211273 183.851669 C 255.13727 184.105677 254.767258 184.735698 254.395246 184.699697 Q 254.235241 184.683696 254.117237 184.711697 C 254.055235 184.727698 254.009234 184.779699 254.001233 184.843702 Q 253.989233 184.945705 253.917231 185.045708 Q 253.863229 185.121711 253.757225 185.139711 C 253.163206 185.233714 253.231208 184.369686 253.193207 183.86167 C 253.187207 183.771667 253.159206 183.685664 253.113204 183.607661 Q 251.837163 181.41159 250.319113 179.289521 Q 250.259111 179.207518 250.177109 179.197518 C 250.077105 179.187517 249.985102 179.27352 249.975102 179.391524 Q 249.9251 179.89354 250.093106 180.467559 Q 251.299145 184.579693 253.041202 187.827799 C 253.121205 187.977804 253.019201 188.16181 252.849196 188.16981 Q 251.995168 188.213811 250.82313 188.195811 C 250.307113 188.187811 250.019103 188.323815 250.031104 188.877833 Q 250.073105 190.987902 249.853098 193.179973 Q 249.753095 194.180006 250.363115 194.92803 Q 250.54112 195.146037 250.349114 195.494049 C 250.319113 195.550051 250.261111 195.584052 250.199109 195.584052 L 248.713061 195.584052 C 248.601057 195.584052 248.499054 195.518049 248.455052 195.414046 C 248.155043 194.722024 248.319048 194.042001 248.115041 193.38598 Q 248.021038 193.08397 248.015038 192.209942 C 248.013038 192.039936 247.993037 191.871931 247.953036 191.707925 C 247.817032 191.165908 247.879034 190.717893 247.683027 190.261878 C 247.659027 190.205876 247.645026 190.145874 247.643026 190.083872 L 247.587024 188.875833 C 247.579024 188.687827 247.423019 188.537822 247.235013 188.537822 L 245.020941 188.537822 C 244.848935 188.537822 244.69893 188.651826 244.652929 188.815831 Q 244.464922 189.469852 244.440922 189.929867 Q 244.39292 190.873898 244.338918 191.019903 Q 244.324918 191.059904 244.158912 192.101938 C 243.996907 193.117971 243.988907 194.066002 243.7889 195.22604 C 243.752899 195.442047 243.562893 195.600052 243.342886 195.600052 L 242.026843 195.600052 C 242.000842 195.600052 241.976841 195.596052 241.952841 195.586052 Q 241.460824 195.386045 241.706833 195.004033 Q 242.23685 194.174006 242.24485 194.054002 C 242.24885 193.996 242.25485 193.939998 242.260851 193.881996 Q 242.262851 193.861996 242.23885 191.54592 C 242.22885 190.561888 241.966841 189.541855 242.040843 188.533822 C 242.052844 188.355816 241.914839 188.205811 241.736833 188.205811 L 239.408758 188.205811 C 239.226752 188.205811 239.106748 188.015805 239.18675 187.8518 Q 240.11078 185.949738 240.984809 183.86967 Q 241.136814 183.505658 241.260818 183.113645 Q 241.302819 182.983641 241.540827 182.359621 Q 241.994842 181.171582 242.330853 179.791537 Q 242.434856 179.361523 242.428856 178.997511 C 242.426856 178.859507 242.272851 178.779504 242.156847 178.855506 Q 241.918839 179.013512 241.776835 179.179517 Q 240.268786 180.935574 238.804738 183.711665 Q 238.516729 184.253682 238.200718 184.611694 Q 237.872708 184.985706 237.534697 184.535692 Z M 249.60309 164.389035 Q 249.547088 164.465037 249.589089 164.531039 C 249.631091 164.595042 249.727094 164.579041 249.745095 164.505039 Q 249.759095 164.447037 249.747095 164.409035 C 249.725094 164.347033 249.643091 164.335033 249.60309 164.389035 Z" style="fill:#019f4a;"/>
		<path d="M 273.779878 172.237291 C 273.923883 172.113287 273.877881 171.879279 273.697875 171.821277 Q 270.985787 170.929248 270.581774 168.23716 Q 270.46177 167.441134 270.663776 166.617107 C 270.881783 165.729079 271.457802 164.653043 272.253828 164.151027 Q 274.253893 162.890986 276.199957 163.61901 Q 277.329994 164.041023 278.100019 165.105058 Q 278.814042 166.09109 278.916045 167.375132 Q 279.086051 169.497201 277.371995 170.945249 C 277.085986 171.187256 276.667972 171.395263 276.391963 171.675272 C 276.213957 171.853278 276.239958 172.149288 276.445965 172.293292 Q 278.240023 173.545333 279.458063 175.687403 Q 279.880077 176.429427 282.072148 180.581563 Q 282.100149 180.633564 282.510162 181.049578 C 282.564164 181.10358 282.628166 181.145581 282.700169 181.175582 L 283.790204 181.607596 C 284.010211 181.695599 283.990211 182.013609 283.760203 182.071611 Q 283.420192 182.155614 283.198185 182.413622 C 282.838173 182.829636 282.482162 183.129646 282.082149 182.669631 C 281.608133 182.117613 281.362125 181.461591 280.956112 180.79757 Q 279.842076 178.97351 278.622036 177.195452 C 278.45403 176.949444 278.118019 176.889442 277.872011 177.057448 L 277.862011 177.065448 C 277.592002 177.251454 277.495999 177.607466 277.638004 177.903475 L 281.684136 186.375751 C 281.770138 186.557757 281.668135 186.771764 281.474129 186.819766 L 279.226055 187.375784 C 279.014049 187.427786 278.862044 187.617792 278.860044 187.835799 Q 278.820042 190.751894 278.704038 193.027968 Q 278.680038 193.513984 278.818042 193.919997 C 278.850043 194.012 278.906045 194.096003 278.980047 194.158005 Q 279.694071 194.766025 279.824075 195.52205 Q 279.904078 195.986065 279.416062 196.028066 Q 278.682038 196.090068 277.904012 195.962064 C 277.778008 195.942063 277.676005 195.84606 277.648004 195.720056 C 277.443997 194.794026 277.239991 194.066002 277.20599 193.183973 Q 277.183989 192.647956 277.003983 191.811929 Q 276.875979 191.209909 276.771975 190.385882 Q 276.709973 189.895866 276.493966 188.961836 Q 276.395963 188.545822 276.393963 188.131809 C 276.391963 187.935802 276.229958 187.779797 276.035951 187.783797 Q 275.015918 187.807798 274.533903 187.831799 C 274.169891 187.8498 274.049887 188.207811 274.039886 188.573823 C 274.013886 189.535854 273.711876 190.365882 273.621873 191.271911 C 273.563871 191.84193 273.387865 192.695957 273.271861 193.115971 C 273.251861 193.217975 273.23786 193.321978 273.23186 193.425981 L 273.113856 195.114036 C 273.091855 195.430047 272.849848 195.688055 272.533837 195.728056 Q 271.99382 195.796059 271.125791 195.734057 C 270.853783 195.714056 270.641776 195.508049 270.631775 195.252041 Q 270.625775 195.062035 270.839782 194.650021 C 270.863783 194.60602 270.895784 194.566018 270.935785 194.532017 C 271.411801 194.128004 271.879816 193.717991 271.869816 192.975967 Q 271.839815 190.62189 271.805814 188.287814 Q 271.797813 187.745796 271.123791 187.641793 Q 270.587774 187.55779 270.043756 187.503788 Q 269.605742 187.459787 269.287732 187.093775 C 269.25373 187.055774 269.24373 187.001772 269.259731 186.95377 L 269.447737 186.409753 Q 269.465737 186.355751 269.483738 186.301749 L 270.76978 182.601628 C 270.77378 182.591628 270.77578 182.579628 270.77778 182.567627 C 270.865783 182.04761 271.225795 181.583595 271.249795 181.133581 C 271.263796 180.905573 271.477803 180.579563 271.593807 180.249552 Q 271.959819 179.207518 272.329831 178.189485 Q 272.491836 177.73747 272.30983 177.357458 C 272.191826 177.11345 271.873816 177.059448 271.69981 177.253454 Q 271.221795 177.785471 270.811781 178.465494 Q 269.531739 180.587563 268.267698 183.167647 Q 267.953688 183.807668 267.361669 183.439656 C 267.119661 183.289651 267.057659 183.279651 266.765649 183.295651 C 266.703647 183.297651 266.651646 183.25365 266.643645 183.193648 Q 266.595644 182.831636 266.147629 182.737633 C 266.077627 182.721632 266.031625 182.65363 266.045626 182.583628 Q 266.157629 182.055611 266.543642 182.013609 Q 267.507673 181.905606 267.835684 181.591596 C 267.875685 181.553594 267.911687 181.513593 267.943688 181.467592 Q 268.02569 181.347588 268.249698 180.80357 Q 269.469737 177.815472 269.727746 177.225453 Q 270.011755 176.573432 270.853783 174.903378 Q 271.241795 174.133352 272.333831 173.195322 C 272.757845 172.83131 273.365864 172.589302 273.779878 172.237291 Z" style="fill:#019f4a;"/>
		<path d="M 183.066921 163.63301 L 183.34093 165.307065 Q 182.662908 166.327098 182.844914 167.62514 C 183.100922 169.4412 183.384932 170.813244 182.782912 172.501299 C 182.582905 173.057317 182.090889 173.697338 181.606874 173.957347 C 180.832848 174.37736 179.594808 174.185354 178.830783 173.883344 C 178.586775 173.787341 178.578775 173.44533 178.816783 173.339327 L 179.148793 173.189322 Q 179.376801 173.359327 179.534806 173.153321 C 179.574807 173.101319 179.556807 173.025316 179.496805 172.999315 Q 179.410802 172.961314 179.274798 172.993315 C 178.156761 172.579302 177.444738 171.255259 177.660745 170.085221 C 177.686746 169.949216 177.850751 169.893214 177.952754 169.985217 Q 178.274765 170.269227 178.516773 170.441232 C 178.73678 170.597237 179.018789 170.587237 179.172794 170.417231 Q 179.244797 170.339229 179.228796 170.123222 C 179.184795 169.539203 179.250797 169.099188 179.066791 168.613173 C 179.04479 168.557171 179.03279 168.495169 179.03079 168.435167 Q 178.958787 166.483103 179.766814 165.17506 Q 180.854849 163.415003 183.066921 163.63301 Z" style="fill:#054a9a;"/>
		<path fill-opacity="0.996" d="M 179.148793 173.189322 Q 179.272798 173.099319 179.274798 172.993315 Q 179.410802 172.961314 179.496805 172.999315 C 179.556807 173.025316 179.574807 173.101319 179.534806 173.153321 Q 179.376801 173.359327 179.148793 173.189322 Z" style="fill:#fefdfd;"/>
		<path fill-opacity="0.996" d="M 306.924958 177.44546 L 306.638949 177.673468 Q 306.546946 177.617466 306.616948 177.497462 C 306.636949 177.461461 306.67695 177.43946 306.716951 177.44146 L 306.924958 177.44546 Z" style="fill:#fefdfd;"/>
		<path fill-opacity="0.996" d="M 237.534697 184.535692 Q 237.444694 184.507691 237.374691 184.455689 Q 237.418693 184.16768 237.586698 184.129678 C 237.682701 184.107678 237.770704 184.18968 237.754704 184.287683 Q 237.722703 184.511691 237.534697 184.535692 Z" style="fill:#fefdfd;"/>
		<path fill-opacity="0.996" d="M 226.530338 106.981164 L 228.014386 107.091167 Q 225.99632 107.221171 224.486271 107.147169 Q 223.994255 107.121168 224.016256 106.57515 C 224.068258 105.287108 223.936253 103.997066 223.996255 102.843029 Q 223.998255 102.811028 224.016256 100.184942 Q 224.024256 99.058905 224.648277 98.206878 C 225.556306 96.962837 227.284362 96.992838 228.338397 98.154876 C 228.370398 98.190877 228.342397 98.246879 228.294395 98.242879 L 227.336364 98.158876 C 227.278362 98.152876 227.22436 98.120875 227.190359 98.072873 Q 227.044355 97.858866 226.800347 97.904868 C 226.752345 97.912868 226.712344 97.864867 226.730344 97.818865 Q 226.778346 97.698861 226.710344 97.554856 C 226.662342 97.452853 226.510337 97.472854 226.490337 97.584857 Q 226.480336 97.638859 226.468336 97.67086 Q 226.426334 97.794864 226.198327 97.800864 Q 226.086323 97.802864 225.550306 97.798864 C 225.544306 97.798864 225.542306 97.806865 225.548306 97.808865 Q 226.152326 98.046872 226.646342 97.706861 C 226.670342 97.690861 226.702343 97.698861 226.716344 97.722862 L 226.716344 97.724862 C 226.728344 97.748863 226.718344 97.780864 226.694343 97.790864 Q 226.398334 97.920868 226.082323 97.896868 C 226.064323 97.894867 226.044322 97.898868 226.028321 97.908868 L 225.694311 98.102874 C 225.618308 98.146876 225.652309 98.260879 225.738312 98.258879 Q 225.97232 98.250879 226.204327 98.158876 C 226.246329 98.140876 226.28833 98.184877 226.270329 98.226878 Q 226.208327 98.366883 225.578307 98.28088 C 225.510305 98.27088 225.444302 98.314881 225.426302 98.380883 Q 225.3623 98.604891 225.236296 98.716894 C 225.194294 98.752895 225.130292 98.742895 225.104291 98.694894 Q 225.084291 98.660892 225.088291 98.618891 Q 225.092291 98.57289 225.036289 98.554889 Q 224.940286 98.524888 224.900285 98.616891 C 224.888284 98.648892 224.908285 98.684893 224.942286 98.686893 L 224.996288 98.690893 C 225.014288 98.692894 225.022289 98.714894 225.008288 98.728895 Q 224.928286 98.806897 224.848283 98.684893 C 224.782281 98.58289 224.634276 98.58089 224.586274 98.680893 Q 224.172261 99.542921 224.178261 100.474952 Q 224.196262 102.751026 224.192262 104.985099 C 224.192262 105.493115 224.112259 106.159137 224.208262 106.771157 C 224.218262 106.839159 224.276264 106.889161 224.344267 106.891161 L 226.530338 106.981164 Z" style="fill:#fefdfd;"/>
		<path d="M 240.08878 116.657479 C 239.938775 116.657479 239.816771 116.535475 239.816771 116.38547 L 239.816771 104.167072 C 239.816771 100.668958 242.220849 97.832865 245.186946 97.832865 L 245.522957 97.832865 C 248.489054 97.832865 250.893132 100.668958 250.893132 104.167072 L 250.893132 116.38547 C 250.893132 116.535475 250.771128 116.657479 250.621123 116.657479 L 240.08878 116.657479 Z" style="fill:#ffb81b;"/>
		<path fill-opacity="0.996" d="M 249.747095 164.409035 Q 249.759095 164.447037 249.745095 164.505039 C 249.727094 164.579041 249.631091 164.595042 249.589089 164.531039 Q 249.547088 164.465037 249.60309 164.389035 C 249.643091 164.335033 249.725094 164.347033 249.747095 164.409035 Z" style="fill:#fefdfd;"/>
		<path fill-opacity="0.996" d="M 306.860956 175.615401 C 306.870957 175.627401 306.870957 175.643402 306.858956 175.655402 L 306.846956 175.665402 C 306.654949 175.835408 306.292938 175.737405 306.038929 175.449395 L 305.998928 175.405394 C 305.74492 175.117385 305.694918 174.745372 305.886924 174.575367 L 305.898925 174.565367 C 305.910925 174.555366 305.926926 174.555366 305.936926 174.567367 L 306.860956 175.615401 Z M 305.904145 174.864316 C 305.842923 174.917378 305.934926 175.121385 306.109412 175.317951 C 306.282937 175.515398 306.472944 175.631401 306.533726 175.57846 C 306.594948 175.525398 306.502945 175.321391 306.328459 175.124825 C 306.154933 174.927378 305.964927 174.811375 305.904145 174.864316 Z" style="fill:#fefdfd;"/>
	</g>
	<g id="surface4">
	</g>
</svg>
