<?xml version="1.0" encoding="utf-8"?>
<svg xmlns="http://www.w3.org/2000/svg" width="490pt" height="280pt" viewBox="0 0 490 280" version="1.1" xmlns:xlink="http://www.w3.org/1999/xlink">
	<g id="surface2">
		<path d="M 243.375665 44.735397 C 243.389564 44.42034 243.130105 44.165515 242.819682 44.18868 L 240.716212 44.341576 C 240.308491 44.369375 239.988801 44.702965 239.974901 45.110686 C 239.951735 45.7547 239.789573 46.208753 239.205791 46.560875 Q 232.135539 50.851212 231.602722 51.143103 Q 219.55642 57.722237 210.164938 61.183232 Q 194.064593 67.118352 175.883944 68.332249 Q 175.601319 68.350781 175.643018 68.07279 Q 177.083941 58.180923 181.448409 49.141564 Q 191.794328 27.694514 213.315509 16.829677 Q 231.88998 7.447461 252.623518 9.703826 Q 262.923105 10.825059 271.8976 14.587211 C 289.133078 21.814992 302.115284 34.829631 310.038044 51.740785 Q 313.781664 59.737676 314.870464 68.202519 Q 314.921429 68.600974 314.522974 68.559275 Q 298.380931 66.965457 284.082897 62.44346 Q 279.82036 61.095201 275.062071 59.03343 Q 262.890673 53.76549 251.696879 46.792535 C 250.844372 46.264351 250.793407 45.814931 250.589546 44.948524 Q 250.496882 44.545436 250.103061 44.424973 Q 248.967929 44.091383 247.754032 44.457406 C 247.517739 44.531537 247.350944 44.744664 247.337045 44.990223 L 247.216582 47.06126 Q 247.188782 47.566278 246.693031 47.468981 Q 245.409636 47.218789 244.246705 47.255854 Q 243.245935 47.288287 243.2969 46.287517 L 243.375665 44.735397 Z" style="fill:#65b4b4;"/>
		<path d="M 310.26507 69.912167 C 311.775491 70.065063 313.299812 70.074329 314.819499 70.176259 C 314.939962 70.185526 315.037259 70.287456 315.032626 70.412552 L 315.032626 70.537648 Q 315.023359 70.871238 314.689769 70.875871 Q 304.825702 70.973168 298.677455 70.287456 Q 293.770904 69.740739 285.936174 67.646536 Q 281.553174 66.474338 277.364768 64.875887 Q 263.488355 59.570881 251.159429 51.073605 Q 250.830472 50.846579 250.79804 50.452757 L 250.575646 47.839636 C 250.561747 47.654309 250.774874 47.538479 250.918503 47.654309 Q 254.370231 50.397159 258.187982 52.607192 C 267.032748 57.736136 276.303766 62.197901 285.991773 65.065848 Q 298.237302 68.689004 310.26507 69.912167 Z" style="fill:#65b4b4;"/>
		<path d="M 175.596686 70.102128 C 178.700925 70.111395 181.860763 69.842669 184.978902 69.421049 Q 209.683086 66.094416 231.825115 52.963948 Q 236.050587 50.45739 239.34942 47.987899 Q 239.794207 47.649676 239.808106 48.210292 L 239.849805 50.406425 C 239.859071 50.698316 239.720076 50.976308 239.483783 51.143103 Q 221.154872 64.259672 198.252999 69.504446 Q 194.240654 70.421819 190.256108 70.607146 Q 182.912498 70.950003 175.870045 70.926837 C 175.670817 70.926837 175.48549 70.811007 175.397459 70.625679 L 175.341861 70.500583 C 175.25383 70.315255 175.392826 70.102128 175.596686 70.102128 Z" style="fill:#65b4b4;"/>
		<path d="M 247.369477 49.873608 L 247.318512 71.126064 C 247.318512 71.241894 247.221215 71.339191 247.105385 71.339191 L 243.496128 71.329924 C 243.375665 71.329924 243.283001 71.23726 243.283001 71.116797 L 243.245935 49.646582 C 243.245935 49.521485 243.347866 49.424188 243.472962 49.433455 L 247.17025 49.660481 C 247.281446 49.669748 247.369477 49.762412 247.369477 49.873608 Z" style="fill:#65b4b4;"/>
		<path d="M 296.416457 71.038033 L 296.411824 71.153863 Q 296.411824 71.227994 296.337692 71.227994 L 250.890704 71.306758 C 250.779507 71.311392 250.686843 71.218728 250.686843 71.102898 L 250.571013 53.079778 Q 250.571013 52.787886 250.807306 52.959315 C 258.285279 58.458915 266.458232 62.55929 275.029638 66.029552 Q 285.315327 70.199425 296.388658 71.005601 Q 296.42109 71.010234 296.416457 71.038033 Z" style="fill:#65b4b4;"/>
		<path d="M 196.015167 70.977802 Q 204.220552 70.537648 212.342539 67.600204 Q 227.381883 62.160836 239.715442 53.102944 Q 239.910036 52.959315 239.910036 53.200241 L 239.896137 71.14923 C 239.896137 71.278959 239.794207 71.380889 239.66911 71.380889 L 196.0198 71.13533 Q 195.992001 71.13533 195.992001 71.126064 L 195.987368 71.010234 Q 195.987368 70.982435 196.015167 70.977802 Z" style="fill:#65b4b4;"/>
		<path d="M 177.834518 102.242587 Q 173.303256 87.661929 174.929506 72.877411 Q 174.948039 72.733782 175.091668 72.747681 Q 177.093207 72.928376 179.131812 72.965441 Q 246.984922 74.248836 315.185521 72.886677 Q 315.333783 72.886677 315.347683 73.030306 C 316.223356 83.042636 315.644207 92.869638 312.614099 102.446448 Q 312.526068 102.733706 312.224911 102.692007 C 303.477443 101.468844 294.887503 100.301279 286.269764 99.578501 Q 242.32393 95.899746 198.910913 100.092786 Q 188.467696 101.102822 178.608262 102.719806 Q 178.015213 102.821736 177.834518 102.242587 Z" style="fill:#027185;"/>
		<path d="M 277.109942 106.532924 C 271.953198 106.421727 266.805721 105.893543 261.672143 105.759181 Q 240.419688 105.193931 226.251384 105.870377 Q 208.927876 106.695086 200.824421 107.334466 Q 193.170387 107.936781 181.828331 109.627897 Q 181.165784 109.725194 180.331809 109.169211 Q 180.178914 109.06728 180.109416 108.895852 Q 179.826791 108.163808 180.600534 108.043345 Q 194.884668 105.77308 199.170372 105.314394 Q 224.268377 102.622509 248.727002 102.937566 Q 257.72003 103.053396 269.599536 103.516715 C 275.29373 103.734475 280.90916 104.299725 286.557022 104.80011 Q 298.144638 105.828678 310.251171 108.131375 C 310.547695 108.191607 310.742289 108.478865 310.677424 108.770756 Q 310.644992 108.914385 310.566228 109.039481 C 310.316035 109.442569 309.848083 109.664962 309.375497 109.604731 Q 295.313757 107.858017 281.724602 106.769217 Q 279.431172 106.583889 277.109942 106.532924 Z" style="fill:#65b4b4;"/>
		<path d="M 284.513784 115.428654 Q 274.343926 114.307421 264.123102 114.080395 Q 256.960186 113.918233 249.732405 113.793137 Q 248.101521 113.765338 246.030484 114.353753 Q 244.909252 114.673444 243.811185 114.237924 Q 242.86138 113.862635 241.675283 113.862635 Q 231.514691 113.876534 221.039042 114.298155 Q 217.272256 114.45105 211.800455 114.919003 Q 205.82827 115.428654 199.499328 115.929039 Q 192.781199 116.457223 185.025234 117.328263 Q 184.232958 117.416294 183.361917 116.804712 Q 183.185856 116.679616 183.088559 116.489655 Q 182.717904 115.739078 183.547245 115.604715 Q 201.695462 112.741402 212.958753 112.097388 Q 228.025897 111.240248 239.516215 111.129051 C 241.920842 111.105885 244.246705 111.411676 246.743996 111.337545 Q 257.650532 111.013221 272.745474 111.717467 Q 290.523035 112.546808 307.299827 115.757611 Q 307.925308 115.873441 307.63805 116.443323 L 307.559286 116.605485 C 307.332259 117.050272 306.85504 117.30973 306.359289 117.254132 C 301.045016 116.688883 295.517617 116.081934 290.073616 115.859541 Q 287.502194 115.757611 284.513784 115.428654 Z" style="fill:#65b4b4;"/>
		<path d="M 255.088376 123.318982 Q 251.77101 123.305082 249.417348 123.25875 Q 248.57874 123.240217 245.868322 124.620909 C 245.238208 124.945232 244.464465 124.690407 243.922381 124.291952 Q 242.546323 123.277283 241.059068 123.25875 Q 237.987261 123.217051 235.281477 123.300449 Q 230.842878 123.444078 226.862965 123.397746 C 219.871477 123.323615 212.708561 123.842532 205.874602 124.24562 Q 196.895474 124.773804 188.898583 125.325154 Q 188.175805 125.376119 187.35573 124.852568 Q 187.119437 124.704306 187.003607 124.47728 Q 186.707083 123.884231 187.360363 123.768401 Q 192.873862 122.786164 197.493156 122.28578 Q 202.385807 121.752962 207.449887 121.243311 C 217.615112 120.228642 228.062962 119.969183 238.056759 119.783855 Q 240.938605 119.728257 243.389564 120.724394 Q 244.228172 121.062617 245.062147 121.377674 Q 245.40037 121.50277 245.73396 121.359141 C 247.406543 120.613197 249.227387 119.737523 251.038966 119.756056 Q 267.774058 119.913585 280.418042 120.830957 Q 287.390997 121.335975 302.597136 123.49041 Q 303.231883 123.583074 303.634971 124.078825 Q 303.866631 124.366083 303.699836 124.59311 Q 303.134586 125.36222 302.263546 125.292722 Q 294.947735 124.736739 288.132308 124.282686 C 283.930002 124.004694 279.556268 124.037126 275.275198 123.749869 Q 273.032732 123.596973 270.123087 123.532108 Q 262.274458 123.351414 255.088376 123.318982 Z" style="fill:#65b4b4;"/>
		<path d="M 232.339399 132.307376 Q 213.662999 132.914324 194.870769 133.752932 C 194.194322 133.780731 193.448378 133.553705 192.892395 133.15525 C 192.683901 133.006988 192.758033 132.678031 193.012858 132.636332 Q 215.103922 128.948311 238.061392 129.203137 Q 241.638217 129.240202 244.881452 131.246375 C 245.210409 131.450235 245.636663 131.427069 245.942454 131.186143 C 248.620439 129.054874 250.747075 129.161438 254.680655 129.147538 C 263.747814 129.115106 272.861304 129.666456 281.858965 130.477265 Q 289.781725 131.186143 297.245798 132.710464 Q 297.505257 132.766062 297.607187 133.002355 C 297.74155 133.331311 297.495991 133.6927 297.139235 133.683434 Q 286.691385 133.382276 277.781755 132.928224 C 269.029654 132.483437 259.902264 132.38614 251.502285 132.279577 C 249.074492 132.251777 247.211948 133.549071 245.326239 134.813933 C 245.103846 134.966828 244.802688 134.939029 244.608094 134.749068 Q 242.365629 132.562201 239.571813 132.349074 Q 237.032824 132.15448 232.339399 132.307376 Z" style="fill:#65b4b4;"/>
		<path d="M 245.613497 141.638626 C 247.652102 140.003109 249.732405 138.817012 252.456723 138.849444 Q 270.947796 139.099636 289.142344 141.518163 C 289.258174 141.532063 289.318405 141.661792 289.262807 141.763722 L 289.184043 141.911985 C 289.072846 142.111212 288.864352 142.231675 288.641959 142.236308 Q 270.507642 142.407736 252.266762 142.352138 C 249.34785 142.342872 247.550171 143.436305 245.242841 145.368346 Q 245.001915 145.567574 244.756356 145.37298 Q 244.325469 145.030123 243.940914 144.622402 C 241.601152 142.143644 237.950196 142.407736 234.799625 142.407736 Q 217.735575 142.393837 202.311676 142.227042 Q 201.811291 142.222408 201.412837 141.902718 Q 201.297007 141.810054 201.338706 141.657159 C 201.371138 141.52743 201.477702 141.434766 201.607431 141.416233 Q 218.435187 139.261798 236.958693 138.87261 C 240.174128 138.807745 242.398061 139.794615 244.927784 141.652526 C 245.131645 141.800788 245.41427 141.796155 245.613497 141.638626 Z" style="fill:#65b4b4;"/>
		<path d="M 245.715427 152.475664 C 248.004224 150.520457 250.154026 149.223163 253.295331 149.325093 Q 263.025036 149.635517 273.964004 150.469492 Q 274.237362 150.492658 274.191031 150.766016 C 274.172498 150.87258 274.0891 150.955977 273.982537 150.969877 Q 264.544723 152.100376 255.459032 152.725857 C 251.173328 153.017748 248.296116 153.814657 245.692261 157.067158 C 245.479134 157.335884 245.071413 157.33125 244.86292 157.062525 Q 242.954044 154.597667 240.160229 153.596897 Q 238.802703 153.110412 234.841323 152.827787 Q 225.528606 152.174507 216.753338 151.081073 Q 216.294652 151.020842 216.169556 150.696518 C 216.109325 150.529723 216.220521 150.353662 216.396583 150.344396 Q 226.334781 149.806945 236.435142 149.329726 C 239.840539 149.167565 242.467559 150.330496 245.085313 152.480298 Q 245.405003 152.739756 245.715427 152.475664 Z" style="fill:#65b4b4;"/>
	</g>
	<g id="surface4">
	</g>
</svg>
