<?xml version="1.0" encoding="utf-8"?>
<svg xmlns="http://www.w3.org/2000/svg" width="490pt" height="280pt" viewBox="0 0 490 280" version="1.1" xmlns:xlink="http://www.w3.org/1999/xlink">
	<g id="surface2">
		<path d="M 293.003121 53.845985 C 281.140864 42.197355 264.40078 34.761933 247.589486 33.990501 C 247.4352 33.984566 247.316518 33.85995 247.316518 33.705664 L 247.239375 12.188633 C 247.239375 12.01061 247.387727 11.862257 247.56575 11.868192 C 255.256338 11.897862 263.439456 12.971933 270.851142 15.25656 Q 292.605537 21.962088 308.870893 37.758651 C 309.161664 38.037554 309.191334 38.488545 308.948037 38.808986 Q 308.378363 39.550748 307.784954 40.144158 Q 301.08536 46.849686 293.89917 53.845985 C 293.649938 54.089283 293.252353 54.089283 293.003121 53.845985 Z" style="fill:#ffb302;"/>
		<path d="M 242.966826 34.014237 C 226.588722 34.281271 209.035666 42.167684 197.155607 53.934996 Q 196.680879 54.40379 196.218019 53.917194 Q 188.901279 46.20287 180.848711 38.488545 Q 180.605413 38.257115 180.842777 38.019752 Q 187.548306 31.248948 196.864836 25.457271 Q 217.859667 12.40226 242.907485 11.903796 C 243.162651 11.897862 243.370344 12.099621 243.370344 12.354787 L 243.36441 33.610718 C 243.36441 33.83028 243.186387 34.008303 242.966826 34.014237 Z" style="fill:#fc8801;"/>
		<path d="M 193.29251 57.48952 C 182.255092 69.322107 175.964951 84.471853 175.769125 100.844023 C 175.763191 101.116992 175.54363 101.336553 175.270661 101.330619 L 153.59341 101.312817 C 153.385716 101.312817 153.213627 101.134794 153.225496 100.927101 C 154.127478 80.745241 160.720259 61.833278 173.270871 46.244408 Q 175.116375 43.947913 177.401002 41.805705 C 177.608695 41.609879 177.929136 41.627682 178.124961 41.835375 Q 185.334888 49.591238 193.286576 57.15721 C 193.381522 57.246222 193.381522 57.394574 193.29251 57.48952 Z" style="fill:#eb3a1c;"/>
		<path d="M 312.941683 42.007464 C 328.067693 58.171941 336.405098 78.650505 337.105321 100.992376 Q 337.111255 101.277212 336.826418 101.277212 L 315.012682 101.295015 C 314.876198 101.295015 314.769385 101.182267 314.76345 101.045783 Q 313.825863 75.594446 297.073911 57.222485 C 297.002702 57.145342 297.008636 57.032594 297.085779 56.961385 Q 299.038097 55.246432 300.859864 53.371257 Q 306.473519 47.585514 312.312669 41.989662 C 312.490692 41.817573 312.775528 41.823507 312.941683 42.007464 Z" style="fill:#ffb302;"/>
		<path d="M 212.157001 60.367556 Q 213.201401 59.424035 214.803607 59.424035 Q 229.632913 59.418101 243.951886 59.382496 C 244.123974 59.382496 244.260459 59.524915 244.260459 59.697003 L 244.112106 109.056812 Q 244.106172 109.774837 243.388147 109.774837 L 211.581393 109.721431 C 211.326227 109.715497 211.118534 109.513737 211.118534 109.258571 Q 211.183809 86.934503 211.088863 65.245383 C 211.082929 63.643177 210.827763 61.566244 212.157001 60.367556 Z M 228.218521 66.784925 C 228.214664 65.16824 226.903229 63.856804 225.281915 63.858644 L 220.558434 63.866892 C 218.939672 63.868673 217.628237 65.186042 217.632094 66.803439 L 217.636248 69.200814 C 217.640105 70.817499 218.95154 72.128934 220.572854 72.127094 L 225.296335 72.118846 C 226.915097 72.117066 228.226532 70.799697 228.222675 69.182299 L 228.218521 66.784925 Z" style="fill:#074062;"/>
		<path d="M 278.921512 95.68136 Q 280.399102 102.541175 279.081733 108.855053 C 278.968985 109.406924 278.476455 109.804508 277.912716 109.798574 L 247.46487 109.709562 C 247.33432 109.709562 247.233441 109.608683 247.233441 109.484067 L 247.221572 68.882984 C 247.221572 68.586279 247.470804 68.354849 247.761575 68.378585 Q 251.286428 68.627817 254.395894 69.695955 C 266.311559 73.772678 276.239301 83.225693 278.921512 95.68136 Z" style="fill:#fda200;"/>
		<path d="M 175.561432 106.404271 C 176.52869 119.892471 181.246296 134.116498 190.43821 144.566441 C 190.592497 144.744464 190.592497 145.011498 190.43821 145.189521 Q 189.512491 146.269526 188.414683 147.183377 Q 180.201895 154.037258 174.202524 159.769594 Q 173.977029 159.983222 173.799006 159.73399 Q 170.446242 155.194406 167.60381 150.791307 Q 154.584404 130.615382 153 106.119434 C 152.994066 106.000753 153.089011 105.899873 153.213627 105.899873 L 175.104507 105.977016 C 175.347805 105.98295 175.54363 106.166907 175.561432 106.404271 Z" style="fill:#eb3a1c;"/>
		<path d="M 336.666198 105.994818 Q 337.134991 106.000753 337.111255 106.463612 Q 336.29235 125.796896 327.521756 142.916762 Q 322.845689 152.043402 316.727636 159.288932 Q 316.223238 159.888276 315.659499 159.336405 Q 308.342759 152.138347 299.673045 145.450621 C 299.560297 145.36161 299.542495 145.201389 299.631506 145.094575 Q 313.463883 127.980643 314.591362 106.208446 Q 314.609164 105.935478 314.882132 105.935478 L 336.666198 105.994818 Z" style="fill:#ffb302;"/>
	</g>
	<g id="surface4">
	</g>
</svg>
