<?xml version="1.0" encoding="utf-8"?>
<svg xmlns="http://www.w3.org/2000/svg" width="490pt" height="280pt" viewBox="0 0 490 280" version="1.1" xmlns:xlink="http://www.w3.org/1999/xlink">
	<g id="surface2">
		<path d="M 278.864086 18.478663 C 264.630361 12.849655 249.017132 10.460631 234.165009 13.468054 Q 216.210324 17.09916 202.695421 28.182755 C 196.458586 33.293788 190.871862 39.128929 186.601216 46.047587 Q 172.356919 69.129161 176.516571 95.905267 Q 178.112778 106.159046 182.695266 114.906471 Q 182.822117 115.144316 182.795689 115.41916 L 182.452135 119.124263 Q 182.277715 120.979457 181.51661 119.277541 C 179.523994 114.83776 177.568376 110.271128 176.2153 105.693926 Q 168.731099 80.350178 178.667751 55.376412 C 182.367568 46.0793 188.741824 37.051746 196.437444 30.080233 Q 213.292754 14.810559 235.671363 11.32216 C 250.211645 9.0547 265.66631 11.982841 278.853515 18.325385 Q 278.922226 18.362383 278.916941 18.420523 Q 278.916941 18.43638 278.911655 18.457521 Q 278.901085 18.489234 278.864086 18.478663 Z" style="fill:#0e4753;"/>
		<path d="M 312.262865 109.932859 Q 311.855885 110.937096 311.44362 111.936046 Q 311.337911 112.195033 311.078923 112.300742 Q 309.186731 113.067133 307.47953 113.997373 Q 305.238498 115.213027 306.533434 113.014279 Q 311.470047 104.615694 313.367525 94.59976 Q 316.628649 77.406181 312.02502 62.210503 Q 308.689899 51.195618 302.019657 40.804417 Q 302.0038 40.77799 302.035513 40.767419 L 302.209933 40.725136 Q 302.315642 40.698708 302.379068 40.783276 Q 311.401336 52.865821 314.974302 66.771849 Q 320.698448 89.060605 312.262865 109.932859 Z" style="fill:#0e4753;"/>
		<path d="M 234.725267 84.615539 Q 234.957827 84.604968 235.079392 84.409406 Q 244.920906 68.859603 254.783562 53.695638 C 254.942125 53.452507 255.301536 53.457792 255.454814 53.706209 Q 260.77198 62.226359 266.950675 71.275055 Q 276.62834 85.440069 286.903261 100.313335 Q 292.986817 109.1189 299.239508 117.263783 C 299.345217 117.401205 299.271221 117.602052 299.102087 117.63905 Q 295.962527 118.331445 292.394847 118.463581 Q 274.271028 119.134833 257.806841 109.568163 Q 252.066839 106.238328 246.379691 102.342949 C 234.423996 94.161067 221.834047 86.772004 207.18277 94.007789 C 205.692273 94.742467 204.349768 95.757274 202.970264 96.687514 Q 201.796894 97.475046 202.552713 96.280534 L 221.337214 66.597429 C 221.474636 66.380725 221.791763 66.37544 221.93447 66.592143 Q 227.965172 75.683123 234.534991 84.520401 C 234.577274 84.583826 234.651271 84.620824 234.725267 84.615539 Z" style="fill:#0e4753;"/>
		<path d="M 306.396012 121.291298 Q 307.458388 120.836749 308.457339 120.255349 Q 310.893933 118.838848 308.948886 120.879033 Q 307.738517 122.142256 306.02603 123.141207 C 297.363172 128.188815 287.35781 128.363235 277.273165 127.232148 Q 272.310124 126.682461 267.019386 125.075683 Q 257.870266 122.306105 250.111221 118.014317 Q 243.229561 114.208791 235.761216 110.006856 C 226.590954 104.848253 217.198704 103.146338 207.484041 107.184424 C 200.248256 110.197132 194.740814 114.668625 189.883482 120.577762 Q 189.529357 121.005884 189.032524 121.227873 Q 188.482837 121.476289 188.815821 120.974171 C 192.82748 114.959325 197.536818 109.309176 202.875126 104.425417 Q 207.515754 100.170627 213.224043 98.061732 C 221.601487 94.969741 230.655468 98.939117 237.690406 103.484607 Q 243.377554 107.152711 248.92728 110.905383 Q 260.877689 118.986841 274.175889 122.374816 C 284.847219 125.091539 296.353651 125.546088 306.396012 121.291298 Z" style="fill:#0e4753;"/>
		<path d="M 280.750993 133.722684 Q 285.624181 134.140235 290.62422 133.601119 Q 291.91387 133.458412 290.655932 133.775539 Q 288.827166 134.240659 287.088252 134.420364 C 277.933847 135.355889 269.450694 134.927768 260.719126 132.62331 Q 250.851185 130.017582 242.283465 126.317764 Q 235.237956 123.273343 230.169206 121.465718 Q 219.550731 117.670763 209.455515 121.275442 C 203.377244 123.442478 198.467058 127.242719 193.47759 131.370658 C 193.218603 131.582076 192.869763 131.63493 192.563207 131.502794 Q 191.950094 131.238521 192.177369 130.593696 Q 192.790481 128.870638 193.868714 127.285002 C 200.031552 118.257448 210.68174 110.308127 222.034894 111.930761 Q 227.801323 112.755291 233.324622 115.741572 C 241.876485 120.366344 249.80995 125.21839 259.175773 128.812498 Q 269.403125 132.744875 280.750993 133.722684 Z" style="fill:#0e4753;"/>
		<path d="M 277.632576 141.349593 Q 277.637861 141.397162 277.590292 141.407733 Q 265.978152 143.204787 254.403009 140.662484 C 246.802527 138.997566 239.106908 136.264987 231.38486 134.388651 C 223.091984 132.374894 215.274799 131.957343 207.790598 135.440456 C 207.53161 135.556736 207.230339 135.525024 207.00835 135.350604 L 203.165826 132.33261 C 203.028404 132.221615 203.028404 132.020768 203.160541 131.909774 C 206.971352 128.854782 212.431225 127.08944 217.008428 126.819882 C 225.190309 126.333621 233.24534 129.47318 240.692544 132.660308 C 244.159801 134.14552 247.780336 135.440456 251.37973 136.724822 Q 264.043676 141.233313 277.558579 141.275597 Q 277.62729 141.275597 277.632576 141.344308 L 277.632576 141.349593 Z" style="fill:#0e4753;"/>
		<path d="M 209.756786 145.699521 C 238.55722 161.455457 274.376737 159.172141 298.647538 135.620162 Q 298.732105 135.535595 298.816672 135.620162 L 298.821958 135.620162 Q 298.906525 135.699444 298.827243 135.784011 Q 295.523835 139.552539 291.290187 142.929944 Q 271.284747 158.892012 245.127039 158.564314 C 229.080403 158.368752 213.551741 152.723888 200.59181 143.014511 Q 197.679526 140.831619 195.961753 139.071563 C 195.824332 138.934141 195.834902 138.706867 195.988181 138.580016 L 197.415253 137.427787 Q 197.705953 137.195227 197.986082 137.438358 Q 203.662659 142.359115 209.756786 145.699521 Z" style="fill:#0e4753;"/>
		<path d="M 235.005396 142.581104 Q 247.452638 146.862321 260.581704 147.824273 Q 260.650415 147.829559 260.650415 147.89827 L 260.650415 147.89827 Q 260.645129 147.951124 260.592275 147.95641 C 249.883947 148.331677 239.360609 146.740755 228.842558 143.918323 Q 221.955612 142.068415 215.655352 140.266075 Q 214.619403 139.97009 215.650066 139.658248 C 218.049662 138.918285 221.326643 139.203699 223.863661 139.658248 Q 229.334105 140.630771 235.005396 142.581104 Z" style="fill:#0e4753;"/>
	</g>
	<g id="surface4">
	</g>
</svg>
