<?xml version="1.0" encoding="utf-8"?>
<svg xmlns="http://www.w3.org/2000/svg" width="490pt" height="280pt" viewBox="0 0 490 280" version="1.1" xmlns:xlink="http://www.w3.org/1999/xlink">
	<g id="surface2">
		<path d="M 194.790384 23.86507 L 196.070691 32.625061 C 196.076817 32.680193 196.02781 32.723074 195.972677 32.710823 L 190.036711 30.977202 C 189.908068 30.940447 189.81618 30.830181 189.803928 30.701538 L 188.603258 20.256933 C 188.58488 20.109913 188.676768 19.969018 188.823789 19.932262 C 198.974352 17.126615 209.382201 14.872296 219.937072 13.677751 Q 252.777849 9.953224 285.146935 15.956574 Q 292.755263 17.365524 300.081801 19.570836 C 300.798527 19.785242 301.515254 19.932262 302.26261 19.987395 Q 302.636288 20.018025 302.636288 20.391702 L 302.630162 29.733651 C 302.630162 30.125706 302.391253 30.481007 302.029827 30.634153 Q 299.340571 31.761313 296.859594 32.294264 C 296.565553 32.355522 296.314392 32.073732 296.412406 31.791943 Q 297.594698 28.349205 297.527314 24.453153 C 297.521188 24.183615 297.343538 23.950832 297.080125 23.877321 C 272.723675 17.292013 247.552484 15.717665 222.209769 18.327285 C 212.720799 19.307424 204.126207 21.298331 195.090552 23.424007 Q 194.741377 23.509769 194.790384 23.86507 Z" style="fill:#000000;"/>
		<path d="M 228.07835 52.356481 Q 225.915919 47.357773 225.297206 42.591848 C 225.21757 41.997638 224.856144 41.47694 224.323193 41.19515 Q 221.872846 39.920969 219.53889 39.308382 Q 210.435851 36.900916 200.989763 34.340304 C 200.052505 34.089143 198.998856 33.715465 198.717066 32.674067 Q 197.957458 29.831665 197.932955 27.203667 C 197.926829 26.97701 198.079975 26.774857 198.294381 26.719724 C 216.745495 21.629128 236.623936 20.146668 256.367608 21.181939 Q 276.019392 22.217211 294.311233 27.019891 C 294.593023 27.093402 294.758422 27.387444 294.678785 27.675359 L 293.196325 32.839466 C 293.073808 33.256025 292.743011 33.586822 292.326452 33.703213 Q 282.451553 36.472106 272.270361 39.112355 C 270.212069 39.651431 266.714199 40.98687 265.80757 43.161553 Q 264.508886 46.27962 264.318984 50.157294 Q 264.312858 50.3717 264.42925 50.555476 Q 264.484383 50.647364 264.588522 50.65349 C 264.735543 50.671867 264.876438 50.579979 264.925445 50.439084 Q 266.08936 47.106612 267.810729 44.766531 C 268.692854 43.578112 270.408097 42.9594 271.798669 42.604099 Q 280.38101 40.380409 288.283379 38.37725 C 296.296014 36.343462 306.256676 32.968109 314.961534 30.346238 Q 329.30219 26.027501 343.128274 21.733268 Q 351.220545 19.221662 370.657924 13.849276 C 371.356273 13.653248 372.171013 13.224437 372.795852 13.126423 Q 374.125165 12.918144 372.948999 13.567486 Q 367.276445 16.697804 361.438493 19.999647 C 354.987954 23.644538 349.303149 25.194383 341.762206 27.454828 Q 326.51492 32.024725 299.965409 40.466171 C 291.364691 43.204434 286.286346 44.680768 280.362632 48.729967 Q 279.676535 49.195533 280.460646 49.458945 C 281.593932 49.851001 283.823747 49.115897 284.944781 48.723841 Q 290.776607 46.659424 297.239398 44.503118 Q 297.60695 44.380601 297.564069 44.766531 Q 295.548659 62.782708 290.525447 76.682302 Q 290.225279 77.521546 289.318651 77.858469 Q 284.718124 79.555334 280.117597 80.58448 Q 279.780675 80.65799 279.774549 81.007165 C 279.707164 89.669142 279.014941 98.337245 276.987279 106.294747 C 275.419057 112.451244 272.742053 117.578596 268.257917 122.516045 Q 259.479549 132.182665 247.717882 137.634687 C 247.17268 137.885848 246.81738 138.424924 246.799002 139.025259 L 246.725492 141.359215 Q 246.700988 142.008557 247.301323 141.757396 Q 260.300415 136.20736 268.092519 127.202334 Q 269.97316 125.033777 273.127982 124.151652 C 280.215611 122.166871 287.358373 119.404104 294.151961 117.498959 C 300.057297 115.838849 305.821739 113.860194 311.739327 112.065315 Q 314.146793 111.336336 316.456245 110.080533 Q 316.480749 110.068282 316.493001 110.086659 L 316.609392 110.23368 Q 316.695154 110.356198 316.578763 110.44196 Q 313.197284 112.959691 308.737652 115.24464 C 297.484433 121.021333 286.059689 125.597357 274.371533 129.971226 C 273.593548 130.265268 272.86457 130.314275 272.092711 130.52868 C 271.878305 130.589939 271.688403 130.712456 271.547508 130.883981 Q 269.954783 132.801377 268.386561 134.761655 C 266.72645 136.832198 264.686536 138.71284 262.554734 140.330069 Q 255.07505 145.996497 246.045521 150.370366 Q 244.985745 150.884939 243.907593 150.388744 C 234.461504 146.039378 225.719891 140.379076 219.067199 132.47058 Q 218.436234 131.717099 218.105437 130.792093 Q 217.989046 130.467422 217.639871 130.491925 Q 217.051788 130.540932 216.475956 130.35103 Q 199.70333 124.837749 183.083851 116.09001 Q 178.091269 113.462013 173.607133 110.564477 Q 172.492225 109.841625 173.754154 110.26431 Q 187.862028 114.981228 202.999047 119.765531 C 208.052888 121.364382 212.984212 123.416548 218.154444 124.905134 Q 219.618527 125.327819 220.525155 126.277328 C 223.575837 129.462779 226.614268 132.409322 230.234656 134.804536 Q 235.956216 138.590322 243.319509 141.812529 C 243.36239 141.830907 243.417523 141.800277 243.417523 141.75127 L 243.582922 138.204393 C 243.589048 138.063498 243.509411 137.928729 243.380768 137.86747 C 237.383543 134.963809 231.686486 132.01114 226.865428 127.514753 Q 224.488592 125.297189 221.744203 122.362899 C 217.995172 118.368833 215.740852 114.39927 214.246141 109.180031 Q 210.36234 95.623485 209.927404 80.903025 Q 209.915152 80.419081 209.44346 80.351697 Q 204.940947 79.6656 200.462938 77.90135 C 200.040253 77.735951 199.709456 77.386777 199.562435 76.95184 Q 195.868537 65.986537 194.171672 54.561793 C 193.706106 51.382468 192.95875 48.172513 192.487058 44.97481 C 192.456429 44.784908 192.627953 44.625636 192.811729 44.674643 Q 193.871504 44.938055 194.851643 45.2566 Q 201.418573 47.382276 208.206035 49.63047 Q 209.345446 50.010273 210.533865 49.795868 C 210.723767 49.759113 210.791151 49.520204 210.64413 49.391561 Q 207.017617 46.267368 202.074041 44.484741 Q 187.402588 39.185865 167.677293 33.39692 C 158.488491 30.707664 149.409955 27.626352 140.362049 24.863586 C 136.502752 23.681293 132.839483 22.290721 129.274228 20.226304 Q 122.652165 16.391511 116.624311 13.157053 Q 115.325627 12.464829 116.72845 12.905892 C 124.263268 15.276603 132.024742 17.249132 139.449294 19.460571 Q 155.211152 24.165237 174.428 30.064448 C 188.290839 34.321926 202.159803 38.505894 216.684236 41.642338 C 219.575646 42.267177 222.454803 43.088043 223.851501 45.752795 Q 225.628003 49.1404 227.704672 52.742411 Q 227.72305 52.77304 227.759805 52.754662 L 227.955833 52.662774 Q 228.170238 52.56476 228.07835 52.356481 Z M 240.942673 27.779499 C 236.470789 29.537623 231.974402 33.813479 230.933005 38.652914 C 229.009482 47.596682 234.982203 53.538773 241.506252 57.894265 Q 242.253608 58.390461 241.904434 57.563469 C 239.068157 50.892398 237.236523 44.644013 237.763347 37.470622 Q 238.179906 31.81032 241.150952 28.061289 Q 241.573637 27.528338 240.942673 27.779499 Z M 217.578613 66.831907 C 216.50046 61.508527 218.050304 57.416448 222.087251 53.76543 Q 222.387419 53.495892 222.099503 53.201851 L 219.18359 50.243056 C 218.993688 50.047029 218.699646 49.998022 218.454612 50.126665 C 212.33487 53.318242 214.001106 62.249757 217.002781 67.058564 Q 217.921661 68.534898 217.578613 66.831907 Z M 246.621352 82.189457 Q 246.92152 83.187974 247.920036 83.573903 C 249.420874 84.143609 250.891082 84.878713 252.416423 83.910826 C 256.392111 81.386969 260.97426 78.881489 264.239348 75.50001 Q 264.50276 75.230471 264.802928 75.444877 L 268.558085 78.097378 C 268.974644 78.391419 269.550475 78.146384 269.630112 77.644063 Q 269.728126 77.049854 269.697496 76.498526 Q 269.525972 72.780124 268.919511 68.933079 C 268.447819 65.931404 267.179765 62.384526 264.178089 61.036836 C 262.058539 60.0812 258.658682 60.846934 256.655524 61.624919 Q 252.269402 63.309533 247.086918 65.380076 C 246.266052 65.710873 245.028626 65.974285 244.183257 65.790509 C 239.993163 64.890006 236.23188 62.666316 232.415465 60.638654 Q 226.651023 57.587972 222.840733 62.801086 Q 221.768706 64.265168 221.266385 67.009557 C 220.065715 73.509102 220.1331 79.610467 220.114722 86.177397 C 220.108596 88.615493 220.929462 90.434875 222.705964 92.094986 Q 225.511612 94.722983 228.188616 97.020183 Q 228.899216 97.626644 228.966601 98.570028 Q 229.419915 104.751028 229.389286 109.59659 C 229.389286 109.743611 229.230013 109.835499 229.10137 109.768114 Q 228.844084 109.627219 228.71544 109.357681 Q 227.043078 105.755671 225.628003 101.332794 Q 225.150185 99.844208 222.025993 96.015541 Q 221.756455 95.684744 221.787084 96.107429 Q 222.509936 106.000706 227.637288 114.092977 Q 230.393928 118.436217 233.08931 122.607933 Q 235.87658 126.920544 240.70989 125.566727 C 242.069832 125.193049 243.190866 124.323176 244.293522 123.490058 C 244.520179 123.318534 244.820347 123.29403 245.071508 123.416548 C 247.828148 124.751987 249.690412 125.860769 253.016758 125.756629 C 254.217428 125.713748 255.019917 124.929637 255.589623 123.96175 Q 259.473423 117.345813 263.344971 111.140309 C 264.68041 109.008507 266.028101 106.582663 266.597807 104.144568 Q 267.57182 99.9606 268.319176 96.058422 Q 268.404938 95.61736 268.110896 95.960408 C 264.668159 99.991229 263.167321 104.542749 261.274428 109.382185 Q 260.759855 110.711498 260.61896 109.290297 Q 260.147268 104.432483 260.772107 99.053971 Q 261.00489 97.105945 262.59149 95.831765 C 265.127599 93.791851 268.723483 90.845308 269.366699 87.586347 Q 270.071174 84.00884 269.660741 80.008648 Q 269.489217 78.354664 268.600966 79.757488 C 265.899458 84.045595 262.303574 85.913985 257.764306 87.574095 Q 257.029202 87.837507 257.513145 88.450094 Q 257.764306 88.762513 258.144109 88.903408 Q 259.044612 89.228079 259.926737 88.921786 Q 260.808862 88.615493 261.666484 88.180556 Q 262.242315 87.886514 261.825756 88.38271 Q 260.435184 90.030568 258.903717 90.208218 C 256.324727 90.50226 253.543583 89.957058 251.497543 88.198934 Q 250.051838 86.955382 248.256959 86.097761 Q 247.852652 85.907859 247.932288 86.348921 Q 248.998189 92.578929 248.961434 99.311258 Q 248.955308 100.897858 250.051838 102.012766 C 250.646047 102.613101 250.652173 103.574862 250.070216 104.181323 C 248.704147 105.60865 246.100653 108.683836 243.968851 107.078858 Q 241.788042 105.437126 239.974785 103.427841 C 239.742003 103.164429 239.717499 102.778499 239.919653 102.490583 Q 240.354589 101.865745 240.826281 102.214919 Q 242.290364 103.305324 243.809579 104.30384 C 244.152627 104.530497 244.618193 104.352847 244.722333 103.94854 Q 244.906109 103.195058 244.930613 102.459954 Q 245.163396 94.006256 245.457437 86.073257 Q 245.530948 84.070099 246.063898 82.195583 Q 246.333436 81.246074 246.621352 82.189457 Z" style="fill:#000000;"/>
		<path d="M 146.886098 31.338628 Q 148.98727 33.611325 151.155828 35.571603 Q 152.05633 36.392469 152.913952 36.557868 C 154.157503 36.790651 155.456187 37.078566 156.479207 37.881055 Q 156.742619 38.095461 157.079542 38.070957 Q 157.385835 38.058705 157.563485 38.334369 C 157.649248 38.456887 157.771765 38.542649 157.91266 38.579404 Q 159.229721 38.910201 160.448769 39.528914 Q 160.846951 39.724941 160.785692 39.982228 Q 160.730559 40.239514 160.412014 40.588689 L 153.771573 37.972943 C 153.606175 37.905559 153.446902 38.070957 153.508161 38.236355 L 154.598565 41.127765 C 154.966117 42.714365 156.656857 44.380601 157.698255 45.6119 Q 157.924912 46.990221 158.776407 47.768206 C 159.713665 48.625827 161.257384 48.497184 162.378418 49.281295 C 162.605075 49.434442 162.531564 49.783616 162.268152 49.838749 L 161.030727 50.102161 Q 155.572578 48.454303 153.53879 47.93973 Q 143.467864 45.366866 135.155061 39.516662 Q 133.837999 38.58553 135.406221 38.97146 Q 140.625461 40.251766 146.034602 41.170646 Q 146.402154 41.238031 146.23063 40.901108 Q 145.483274 39.455403 144.300982 38.156719 Q 139.608567 33.004864 135.39397 28.373708 Q 134.732376 27.64473 135.67576 27.932646 L 146.886098 31.338628 Z" style="fill:#000000;"/>
		<path d="M 299.181298 57.085651 Q 303.377518 56.160645 312.572445 53.367249 Q 322.079792 50.469714 327.495059 48.074499 Q 328.671226 47.5538 330.282329 46.481774 Q 331.09707 45.936571 332.891949 45.195341 Q 335.703722 44.031426 335.752729 41.3728 L 337.890657 37.801419 L 338.399104 36.447602 L 342.350289 33.04162 Q 342.552442 32.870095 342.39317 32.649564 Q 342.209394 32.392278 342.233897 31.865453 L 354.565269 27.981653 Q 355.55766 27.669233 354.902192 28.471722 L 345.211069 40.380409 Q 344.384077 41.397303 345.664383 41.103262 C 348.953974 40.355906 352.170055 40.110871 355.551534 38.781558 Q 355.716932 38.720299 355.790443 38.873446 Q 355.821072 38.946956 355.83945 39.020467 Q 355.83945 39.032718 355.833324 39.04497 Q 349.756463 43.884406 341.927604 46.347004 Q 335.470939 48.380793 328.59159 50.181798 Q 311.114489 54.751695 299.426333 58.151552 Q 299.144543 58.231188 299.0159 57.967776 Q 298.80762 57.532839 299.181298 57.085651 Z" style="fill:#000000;"/>
		<path d="M 146.886098 31.338628 Q 155.76248 33.758346 164.40608 36.557868 Q 171.144534 38.738677 176.081984 40.092493 Q 182.348747 41.807736 188.278587 43.676126 C 189.136208 43.945664 189.78555 44.478615 189.852935 45.440376 Q 189.9632 47.039228 190.373634 48.411422 C 190.459396 48.705464 190.189858 48.981128 189.895816 48.895366 L 160.412014 40.588689 Q 160.730559 40.239514 160.785692 39.982228 Q 160.846951 39.724941 160.448769 39.528914 Q 159.229721 38.910201 157.91266 38.579404 C 157.771765 38.542649 157.649248 38.456887 157.563485 38.334369 Q 157.385835 38.058705 157.079542 38.070957 Q 156.742619 38.095461 156.479207 37.881055 C 155.456187 37.078566 154.157503 36.790651 152.913952 36.557868 Q 152.05633 36.392469 151.155828 35.571603 Q 148.98727 33.611325 146.886098 31.338628 Z" style="fill:#dd0d10;"/>
		<path d="M 342.233897 31.865453 Q 342.209394 32.392278 342.39317 32.649564 Q 342.552442 32.870095 342.350289 33.04162 L 338.399104 36.447602 Q 335.912002 36.00654 332.714299 36.956049 Q 323.819539 39.596298 321.393695 40.466171 Q 320.536073 40.772465 318.630929 42.242673 Q 317.914202 42.794001 315.904917 43.382084 Q 314.348947 43.835399 313.019634 44.343846 Q 309.368616 45.752795 305.40518 46.616543 Q 304.541433 46.806445 303.738944 47.173997 Q 302.771057 47.615059 301.650023 47.58443 Q 301.227338 47.572178 301.466247 47.223004 Q 301.509128 47.155619 301.539757 47.082109 C 301.631645 46.861577 301.52138 46.610417 301.300848 46.530781 Q 301.03131 46.432767 300.761772 46.445018 Q 300.633129 45.189215 301.098695 44.184573 Q 301.227338 43.908909 301.52138 43.817021 Q 311.23088 40.931737 320.940381 38.064831 C 326.122865 36.533364 334.993122 33.562318 342.233897 31.865453 Z" style="fill:#dd0d10;"/>
		<path d="M 338.399104 36.447602 L 337.890657 37.801419 Q 335.274911 38.983711 334.539807 39.185865 Q 317.626286 43.817021 300.829157 48.956624 Q 300.528989 49.048512 300.486108 48.736093 Q 300.345213 47.639563 300.761772 46.445018 Q 301.03131 46.432767 301.300848 46.530781 C 301.52138 46.610417 301.631645 46.861577 301.539757 47.082109 Q 301.509128 47.155619 301.466247 47.223004 Q 301.227338 47.572178 301.650023 47.58443 Q 302.771057 47.615059 303.738944 47.173997 Q 304.541433 46.806445 305.40518 46.616543 Q 309.368616 45.752795 313.019634 44.343846 Q 314.348947 43.835399 315.904917 43.382084 Q 317.914202 42.794001 318.630929 42.242673 Q 320.536073 40.772465 321.393695 40.466171 Q 323.819539 39.596298 332.714299 36.956049 Q 335.912002 36.00654 338.399104 36.447602 Z" style="fill:#820002;"/>
		<path d="M 154.598565 41.127765 C 159.309358 43.921161 164.785884 45.379117 169.931613 46.959591 Q 180.210819 50.114413 190.447144 52.969068 C 190.784067 53.067082 191.022976 53.354997 191.047479 53.698046 L 191.286388 56.969259 Q 187.672126 56.295414 182.630537 54.6108 Q 180.92142 54.041094 180.027043 53.606158 C 179.285813 53.244732 178.483324 53.422382 177.717591 52.969068 Q 176.970235 52.521879 176.173872 52.411614 Q 175.536782 52.325852 174.997705 52.056313 Q 173.631637 51.376342 172.198184 50.972035 C 171.395695 50.745378 170.666717 50.187924 170.115389 49.581463 Q 169.851976 49.293547 169.466047 49.213911 Q 163.407563 47.976485 157.698255 45.6119 C 156.656857 44.380601 154.966117 42.714365 154.598565 41.127765 Z" style="fill:#dd0d10;"/>
		<path d="M 335.752729 41.3728 Q 335.703722 44.031426 332.891949 45.195341 Q 331.09707 45.936571 330.282329 46.481774 Q 328.671226 47.5538 327.495059 48.074499 Q 322.079792 50.469714 312.572445 53.367249 Q 303.377518 56.160645 299.181298 57.085651 L 299.701997 53.354997 Q 299.751004 53.036452 300.057297 52.944564 Q 320.088885 47.180123 331.954691 43.553609 Q 333.994605 42.934896 335.752729 41.3728 Z" style="fill:#dd0d10;"/>
		<path d="M 157.698255 45.6119 Q 163.407563 47.976485 169.466047 49.213911 Q 169.851976 49.293547 170.115389 49.581463 C 170.666717 50.187924 171.395695 50.745378 172.198184 50.972035 Q 173.631637 51.376342 174.997705 52.056313 Q 175.536782 52.325852 176.173872 52.411614 Q 176.970235 52.521879 177.717591 52.969068 C 178.483324 53.422382 179.285813 53.244732 180.027043 53.606158 Q 180.92142 54.041094 182.630537 54.6108 Q 187.672126 56.295414 191.286388 56.969259 Q 191.666192 57.379692 191.598807 57.85751 Q 191.555926 58.182181 191.237381 58.102545 L 161.030727 50.102161 L 162.268152 49.838749 C 162.531564 49.783616 162.605075 49.434442 162.378418 49.281295 C 161.257384 48.497184 159.713665 48.625827 158.776407 47.768206 Q 157.924912 46.990221 157.698255 45.6119 Z" style="fill:#820002;"/>
		<path d="M 289.582063 114.307382 Q 294.017192 109.841625 297.214895 104.524371 L 299.469214 102.025017 Q 304.057489 97.547008 305.350047 96.22382 Q 306.177039 95.378451 306.96115 93.883739 L 309.485008 91.415014 Q 309.950574 90.9617 309.337987 91.176105 C 308.578379 91.451769 307.947415 91.794818 307.132675 91.923461 Q 296.198001 93.638704 283.094769 96.309583 Q 282.861986 96.35859 282.647581 96.456603 Q 282.335162 96.597498 282.371917 96.25445 L 282.50056 95.115038 Q 283.646097 95.715373 284.926404 95.40908 Q 287.566653 94.778116 290.231405 94.28192 Q 293.104437 93.755096 295.579288 93.203768 Q 302.250358 91.709056 309.099078 90.202092 Q 310.526405 89.883547 311.678069 88.940164 Q 314.771632 86.404054 317.246482 83.151218 L 319.678452 80.48034 L 319.611067 80.670242 C 319.598816 80.706997 319.647823 80.737627 319.672326 80.706997 L 322.772015 77.117239 Q 325.669551 74.764905 327.985129 71.591706 L 329.982162 69.986728 Q 330.53349 69.668183 330.521238 69.276128 C 330.508986 68.933079 330.214945 68.657415 329.871896 68.669667 Q 327.727842 68.7248 325.41839 69.116855 Q 323.984937 69.355764 324.67716 68.081584 Q 324.940572 67.591514 325.467397 67.358731 C 325.792068 67.205584 326.037103 66.917669 326.135117 66.57462 Q 326.576179 64.951265 328.242415 63.401421 Q 328.87338 62.813337 328.689604 61.784191 Q 329.436959 60.840808 329.957658 59.572753 Q 330.227196 58.911159 329.602358 59.254208 L 328.658974 59.774907 C 328.616093 59.793284 328.573212 59.811662 328.530331 59.823914 Q 313.221787 63.205393 297.233272 67.297473 Q 296.877972 67.389361 296.963734 67.027934 L 297.447678 65.049279 Q 297.986754 66.727767 300.241073 65.943656 Q 302.489267 65.159545 302.783308 65.086034 Q 307.230688 64.007881 311.273761 62.758204 Q 311.923103 62.556051 313.711857 62.182373 Q 315.010541 61.906709 316.107071 61.422765 C 317.234231 60.92657 318.324635 61.275744 319.347655 60.485507 Q 319.978619 60.001564 320.750479 59.879047 Q 322.141051 59.658515 323.513245 59.315467 Q 323.709273 59.26646 323.807287 59.08881 Q 323.929804 58.862152 324.187091 58.868278 Q 325.118223 58.905034 325.926837 58.384335 Q 326.588431 57.96165 327.311283 57.722741 Q 328.732485 57.263301 330.129182 57.030518 C 333.204368 56.522071 335.354548 53.679668 338.147943 52.393236 Q 339.997956 51.547866 342.129758 50.671867 L 343.299798 50.249182 Q 344.139042 50.328819 344.935405 49.838749 L 349.119373 48.215394 Q 350.013749 47.86622 349.272519 48.472681 Q 345.351964 51.664258 342.043995 55.10087 C 339.765173 57.465455 337.302574 59.425732 335.005373 61.796443 Q 334.294773 62.525421 335.299415 62.384526 Q 341.094486 61.551408 345.92167 59.676893 C 346.02581 59.634012 346.129949 59.713648 346.129949 59.817788 Q 346.123823 59.970935 346.02581 60.0812 C 343.220162 63.217645 340.279745 66.256075 337.602741 69.368016 Q 325.926837 82.930687 312.43155 97.596015 C 312.327411 97.712406 312.400921 97.902308 312.560194 97.902308 L 324.444377 98.128965 Q 324.554643 98.135091 324.566894 98.159595 Q 324.609776 98.263734 324.566894 98.343371 Q 324.517888 98.416881 324.438251 98.44751 Q 323.072183 98.955957 321.614226 99.299006 Q 315.286205 100.799844 308.780533 101.773857 C 308.259834 101.847367 307.782017 102.08015 307.402213 102.43545 Q 305.484816 104.1997 303.763447 106.686803 Q 303.561294 106.98697 303.92272 107.005348 Q 308.82954 107.317767 312.443802 107.16462 Q 315.169813 107.048229 312.547942 107.795585 L 289.582063 114.307382 Z" style="fill:#000000;"/>
		<path d="M 149.722375 51.223195 Q 150.653507 51.578496 151.590764 51.835782 Q 151.713282 51.866411 151.590764 51.897041 Q 151.560135 51.903167 151.560135 51.939922 Q 151.560135 52.050187 151.658149 52.099194 Q 156.718116 54.623052 160.320126 59.033677 L 161.085859 60.503885 Q 163.928262 65.643488 165.233072 66.862536 Q 166.1397 67.707906 166.789042 68.271485 Q 167.842692 69.178114 166.458246 69.276128 L 163.370808 69.484407 L 160.203734 69.300631 Q 159.885189 69.282254 160.111846 69.502785 L 161.098111 70.464546 L 166.770665 76.584288 Q 167.530272 77.399029 168.602299 77.711448 Q 172.602491 78.863111 176.761955 79.73911 Q 177.245899 79.837124 177.754346 80.057655 Q 178.183157 80.241431 178.722233 80.425207 Q 179.720749 80.749878 178.685478 80.915277 Q 177.827856 81.056172 176.957983 80.854018 Q 173.729651 80.112788 170.51357 79.63497 Q 170.433934 79.622719 170.366549 79.579838 Q 168.779949 78.648706 170.041878 79.996397 Q 175.150852 85.466797 180.780525 91.084217 L 182.508019 92.928104 Q 182.465138 93.724466 183.028718 94.251291 Q 185.748603 96.805778 188.260209 99.421523 Q 188.48074 100.567061 188.97081 100.70183 Q 190.318501 102.098528 191.500793 103.501351 Q 192.413548 104.579504 194.030777 106.288621 Q 195.654132 107.997738 196.854802 109.860002 Q 196.928312 111.618126 197.96971 111.92442 L 200.37105 114.197117 Q 188.241832 111.103553 177.037619 107.366774 Q 175.359132 106.80932 177.123381 106.968593 Q 181.178706 107.336145 186.214169 106.888956 Q 186.661358 106.846075 186.453078 106.45402 C 184.707206 103.164429 182.495768 101.969884 178.869254 101.369549 Q 171.898016 100.217886 165.459729 98.049329 Q 165.024792 97.908434 165.484233 97.920686 Q 171.622352 98.067707 177.705339 97.553134 Q 178.079017 97.516379 177.858486 97.216211 Q 177.190766 96.291205 176.333144 95.384577 Q 164.632737 83.010324 157.269444 74.807786 Q 150.763772 67.560885 144.160087 60.222095 Q 143.694521 59.707522 144.368366 59.879047 L 154.77009 62.617309 Q 155.854368 62.905225 155.131516 62.041478 Q 154.604691 61.410514 154.016608 60.785675 Q 147.186265 53.520396 141.121656 48.650331 Q 140.355923 48.037744 141.287055 48.350163 L 149.722375 51.223195 Z" style="fill:#000000;"/>
		<path d="M 344.935405 49.838749 Q 344.139042 50.328819 343.299798 50.249182 Q 344.102287 49.783616 344.935405 49.838749 Z" style="fill:#dd0d10;"/>
		<path d="M 342.129758 50.671867 Q 339.997956 51.547866 338.147943 52.393236 C 335.354548 53.679668 333.204368 56.522071 330.129182 57.030518 Q 328.732485 57.263301 327.311283 57.722741 Q 326.588431 57.96165 325.926837 58.384335 Q 325.118223 58.905034 324.187091 58.868278 Q 323.929804 58.862152 323.807287 59.08881 Q 323.709273 59.26646 323.513245 59.315467 Q 322.141051 59.658515 320.750479 59.879047 Q 319.978619 60.001564 319.347655 60.485507 C 318.324635 61.275744 317.234231 60.92657 316.107071 61.422765 Q 315.010541 61.906709 313.711857 62.182373 Q 311.923103 62.556051 311.273761 62.758204 Q 307.230688 64.007881 302.783308 65.086034 Q 302.489267 65.159545 300.241073 65.943656 Q 297.986754 66.727767 297.447678 65.049279 Q 297.490559 63.53619 297.980628 62.311016 Q 298.090894 62.035352 298.378809 61.961842 L 342.129758 50.671867 Z" style="fill:#dd0d10;"/>
		<path d="M 149.722375 51.223195 L 191.800961 62.016974 Q 192.450303 62.182373 192.609575 62.831715 L 193.559085 66.642005 Q 193.712232 67.272969 193.075141 67.132074 C 190.924962 66.648131 188.68902 66.286704 186.526589 65.716999 Q 181.754538 64.467322 174.973202 63.021617 Q 168.412397 61.618793 160.320126 59.033677 Q 156.718116 54.623052 151.658149 52.099194 Q 151.560135 52.050187 151.560135 51.939922 Q 151.560135 51.903167 151.590764 51.897041 Q 151.713282 51.866411 151.590764 51.835782 Q 150.653507 51.578496 149.722375 51.223195 Z" style="fill:#dd0d10;"/>
		<path d="M 161.085859 60.503885 Q 162.991004 62.05373 166.415364 63.836357 Q 167.671167 64.491825 168.479782 64.669475 Q 169.178131 64.822622 169.196508 64.822622 Q 181.239965 68.253108 194.606608 71.475314 C 194.698496 71.499818 194.772007 71.573328 194.79651 71.665216 L 196.156453 76.694554 Q 196.193208 76.823197 196.058439 76.798694 L 163.370808 69.484407 L 166.458246 69.276128 Q 167.842692 69.178114 166.789042 68.271485 Q 166.1397 67.707906 165.233072 66.862536 Q 163.928262 65.643488 161.085859 60.503885 Z" style="fill:#dd0d10;"/>
		<path d="M 328.689604 61.784191 Q 328.87338 62.813337 328.242415 63.401421 Q 326.576179 64.951265 326.135117 66.57462 C 326.037103 66.917669 325.792068 67.205584 325.467397 67.358731 Q 324.940572 67.591514 324.67716 68.081584 Q 323.984937 69.355764 325.41839 69.116855 Q 327.727842 68.7248 329.871896 68.669667 C 330.214945 68.657415 330.508986 68.933079 330.521238 69.276128 Q 330.53349 69.668183 329.982162 69.986728 Q 330.061798 69.802952 330.067924 69.668183 C 330.07405 69.521163 329.939281 69.404771 329.79226 69.4354 Q 327.99738 69.809078 326.030977 69.92547 Q 324.14421 70.041861 322.306449 70.415539 Q 308.988813 73.104795 294.164212 76.743561 C 294.10908 76.755812 294.060073 76.706806 294.072324 76.651673 L 295.322001 71.51207 Q 295.371008 71.316042 295.567036 71.273161 Q 307.818772 68.510394 318.624803 65.894649 Q 323.059931 64.822622 324.977328 64.099769 Q 326.692571 63.456553 328.689604 61.784191 Z" style="fill:#dd0d10;"/>
		<path d="M 161.098111 70.464546 Q 162.721466 71.144518 164.081409 71.983761 Q 165.790526 73.031285 167.052455 73.417214 Q 169.116872 74.060431 170.991388 74.513745 C 182.587656 77.343896 194.281937 79.867753 206.159995 83.114463 C 206.349897 83.169596 206.472414 83.353372 206.441785 83.5494 Q 206.141617 85.485174 206.496918 87.298431 C 206.527547 87.439326 206.40503 87.561843 206.264135 87.531214 Q 194.067532 84.811329 182.618285 82.471247 Q 177.723716 81.466605 173.166071 81.546241 C 172.94554 81.552367 172.823022 81.809653 172.963917 81.981178 Q 174.50151 83.93533 176.627186 84.590797 C 178.685478 85.227888 180.866287 85.864978 182.973585 86.30604 Q 193.320176 88.486849 205.473898 91.194483 C 206.09261 91.335378 206.319268 91.176105 206.888973 91.102595 Q 207.262651 91.053588 207.32391 91.42114 L 208.077392 96.180939 Q 208.144776 96.591373 207.734343 96.511736 L 180.780525 91.084217 Q 175.150852 85.466797 170.041878 79.996397 Q 168.779949 78.648706 170.366549 79.579838 Q 170.433934 79.622719 170.51357 79.63497 Q 173.729651 80.112788 176.957983 80.854018 Q 177.827856 81.056172 178.685478 80.915277 Q 179.720749 80.749878 178.722233 80.425207 Q 178.183157 80.241431 177.754346 80.057655 Q 177.245899 79.837124 176.761955 79.73911 Q 172.602491 78.863111 168.602299 77.711448 Q 167.530272 77.399029 166.770665 76.584288 L 161.098111 70.464546 Z" style="fill:#dd0d10;"/>
		<path d="M 327.985129 71.591706 Q 325.669551 74.764905 322.772015 77.117239 Q 321.258926 77.264259 319.800969 77.454161 Q 318.36139 77.644063 316.940189 78.146384 Q 315.825281 78.53844 314.471464 78.654831 Q 313.313675 78.752845 311.990488 79.181656 Q 309.03782 80.143417 306.385319 80.639613 Q 306.048396 80.700871 305.993263 81.050046 C 305.962634 81.239948 305.840116 81.405346 305.662466 81.478857 Q 303.616426 82.379359 302.624036 82.642771 Q 293.012549 85.166629 283.143776 86.979886 L 283.229538 83.5494 Q 283.235664 83.230855 283.548083 83.151218 Q 292.308074 80.976535 300.633129 78.948873 C 307.298073 77.325518 314.698121 76.039086 321.442702 74.287088 Q 323.010924 73.88278 324.713915 73.104795 Q 326.257634 72.406446 327.985129 71.591706 Z" style="fill:#dd0d10;"/>
		<path d="M 232.874905 88.823772 C 233.328219 88.695129 233.407855 88.094794 233.009674 87.849759 C 229.181006 85.497426 225.235947 83.543274 221.860594 80.284312 Q 220.776316 79.236789 221.983112 78.336286 L 224.415081 76.516904 Q 225.21757 75.916569 225.995555 76.547533 Q 229.603691 79.475698 233.689645 81.582996 Q 234.761672 82.134324 235.821447 82.844925 C 236.709698 83.44526 237.628578 84.284504 238.743486 84.29063 C 241.046812 84.302882 242.455762 82.795918 243.772824 81.105179 Q 244.569186 80.082159 244.391536 81.362465 C 243.607425 87.102403 237.389669 90.067323 232.115297 90.318484 Q 229.995747 90.422624 228.029343 88.309199 Q 227.631162 87.880388 228.170238 88.10092 C 229.573062 88.670625 231.337312 89.252583 232.874905 88.823772 Z" style="fill:#000000;"/>
		<path d="M 322.772015 77.117239 L 319.672326 80.706997 C 319.647823 80.737627 319.598816 80.706997 319.611067 80.670242 L 319.678452 80.48034 Q 317.47314 80.829515 315.610876 81.086801 Q 313.221787 81.411472 310.863328 81.907667 Q 298.360432 84.517287 284.013649 87.457704 Q 283.737985 87.512836 283.499076 87.672109 Q 283.382685 87.751745 283.3153 87.886514 Q 283.06414 88.388835 283.039636 87.825256 Q 283.021259 87.316809 283.143776 86.979886 Q 293.012549 85.166629 302.624036 82.642771 Q 303.616426 82.379359 305.662466 81.478857 C 305.840116 81.405346 305.962634 81.239948 305.993263 81.050046 Q 306.048396 80.700871 306.385319 80.639613 Q 309.03782 80.143417 311.990488 79.181656 Q 313.313675 78.752845 314.471464 78.654831 Q 315.825281 78.53844 316.940189 78.146384 Q 318.36139 77.644063 319.800969 77.454161 Q 321.258926 77.264259 322.772015 77.117239 Z" style="fill:#820002;"/>
		<path d="M 317.246482 83.151218 Q 314.771632 86.404054 311.678069 88.940164 Q 310.526405 89.883547 309.099078 90.202092 Q 302.250358 91.709056 295.579288 93.203768 Q 293.104437 93.755096 290.231405 94.28192 Q 287.566653 94.778116 284.926404 95.40908 Q 283.646097 95.715373 282.50056 95.115038 L 282.831357 91.372133 Q 282.861986 91.059714 283.125399 91.231238 Q 283.633846 91.562035 284.179048 91.433392 Q 298.593215 88.149927 312.235523 85.528055 Q 313.472948 85.289146 314.765506 84.296756 C 314.998289 84.119106 315.261701 84.039469 315.555743 84.002714 Q 315.85591 83.972085 316.051938 83.739302 Q 316.554259 83.157344 317.246482 83.151218 Z" style="fill:#dd0d10;"/>
		<path d="M 182.508019 92.928104 Q 186.82063 95.746003 193.197659 97.271344 Q 200.824364 99.096852 208.414314 100.352655 C 208.830873 100.42004 209.149419 100.763089 209.180048 101.185773 L 209.431208 104.181323 Q 208.80637 104.150693 208.812496 104.463113 Q 208.34693 104.536623 208.046762 104.211952 Q 207.832357 103.979169 207.526064 103.893407 L 204.230347 102.913268 Q 204.040445 102.858135 203.844417 102.858135 Q 203.531998 102.852009 203.280837 102.64373 Q 203.017425 102.429325 202.674376 102.410947 Q 200.426183 102.319059 198.300507 101.602332 Q 198.141234 101.5472 198.061598 101.394053 Q 197.994213 101.253158 197.79206 101.332794 C 196.579138 101.093885 195.292705 101.075508 194.134916 100.756963 Q 191.255759 99.954474 188.260209 99.421523 Q 185.748603 96.805778 183.028718 94.251291 Q 182.465138 93.724466 182.508019 92.928104 Z" style="fill:#dd0d10;"/>
		<path d="M 306.96115 93.883739 Q 306.177039 95.378451 305.350047 96.22382 Q 304.057489 97.547008 299.469214 102.025017 C 298.115397 102.490583 296.988237 103.115422 295.554784 103.268568 Q 287.830065 104.120064 280.883331 105.878188 Q 280.460646 105.982328 280.546408 105.553517 L 281.544925 100.603816 Q 281.642939 100.113747 282.133008 100.187257 Q 283.070266 100.3159 283.713482 100.168879 Q 293.937555 97.81042 301.778666 96.425974 Q 304.780341 95.899149 306.96115 93.883739 Z" style="fill:#dd0d10;"/>
		<path d="M 188.260209 99.421523 Q 191.255759 99.954474 194.134916 100.756963 C 195.292705 101.075508 196.579138 101.093885 197.79206 101.332794 Q 197.994213 101.253158 198.061598 101.394053 Q 198.141234 101.5472 198.300507 101.602332 Q 200.426183 102.319059 202.674376 102.410947 Q 203.017425 102.429325 203.280837 102.64373 Q 203.531998 102.852009 203.844417 102.858135 Q 204.040445 102.858135 204.230347 102.913268 L 207.526064 103.893407 Q 207.832357 103.979169 208.046762 104.211952 Q 208.34693 104.536623 208.812496 104.463113 Q 208.80637 104.150693 209.431208 104.181323 Q 209.792635 105.002189 209.847767 105.706664 Q 209.878397 106.110971 209.480215 106.031335 L 193.081267 102.698863 L 188.97081 100.70183 Q 188.48074 100.567061 188.260209 99.421523 Z" style="fill:#820002;"/>
		<path d="M 188.97081 100.70183 L 193.081267 102.698863 Q 192.744344 102.637604 192.542191 102.803002 Q 192.278778 103.017408 192.536065 103.244065 Q 195.64188 106.025209 198.968226 107.176872 Q 203.317592 108.683836 210.490984 109.253541 Q 210.815655 109.278045 210.907543 109.590464 Q 212.347122 114.331886 215.067007 119.281587 Q 215.312042 119.728775 214.858727 119.489866 C 214.295148 119.189699 213.700938 118.901783 213.0761 118.748636 Q 210.270452 118.080917 207.599574 117.015016 Q 207.170763 116.843492 204.683661 115.385535 Q 202.711131 114.22162 200.37105 114.197117 L 197.96971 111.92442 Q 199.317401 112.053063 200.560952 112.56151 C 202.576362 113.382376 204.25485 113.694796 206.129366 114.313508 C 206.956358 114.589172 207.752721 114.356389 208.493951 114.705564 Q 210.037669 115.428416 211.893807 115.403913 Q 212.255234 115.403913 212.040828 115.115997 Q 211.581388 114.491158 210.876913 114.184865 Q 209.137167 113.437509 207.066623 113.235355 Q 204.842933 113.02095 196.854802 109.860002 Q 195.654132 107.997738 194.030777 106.288621 Q 192.413548 104.579504 191.500793 103.501351 Q 190.318501 102.098528 188.97081 100.70183 Z" style="fill:#dd0d10;"/>
		<path d="M 297.214895 104.524371 Q 294.017192 109.841625 289.582063 114.307382 Q 288.013841 113.97046 285.986179 114.570795 Q 285.692137 114.662683 285.514487 114.913843 Q 284.522096 116.322793 282.598574 116.947631 Q 278.788284 118.185057 274.928987 119.734901 Q 274.359282 119.961558 274.763589 119.502118 C 275.241407 118.95079 275.749854 118.38721 276.080651 117.731742 Q 278.022551 113.860194 279.541766 109.761988 Q 279.652031 109.461821 279.964451 109.406688 Q 286.194458 108.29178 292.228438 107.103362 Q 293.606758 106.833824 294.874813 106.061964 Q 295.989721 105.388119 297.214895 104.524371 Z" style="fill:#dd0d10;"/>
		<path d="M 250.762439 110.239806 C 252.330661 110.760505 253.898883 111.213819 255.436476 111.759021 Q 255.791776 111.881539 255.620252 112.218461 Q 255.332336 112.800419 254.609484 112.726908 Q 248.483616 112.114322 241.714532 112.065315 C 239.47859 112.053063 237.2549 112.45737 235.080217 112.304224 Q 234.069449 112.236839 234.969951 111.771273 C 239.043654 109.676226 243.331761 109.780366 247.926162 109.804869 Q 249.488258 109.810995 250.762439 110.239806 Z" style="fill:#000000;"/>
		<path d="M 196.854802 109.860002 Q 204.842933 113.02095 207.066623 113.235355 Q 209.137167 113.437509 210.876913 114.184865 Q 211.581388 114.491158 212.040828 115.115997 Q 212.255234 115.403913 211.893807 115.403913 Q 210.037669 115.428416 208.493951 114.705564 C 207.752721 114.356389 206.956358 114.589172 206.129366 114.313508 C 204.25485 113.694796 202.576362 113.382376 200.560952 112.56151 Q 199.317401 112.053063 197.96971 111.92442 Q 196.928312 111.618126 196.854802 109.860002 Z" style="fill:#820002;"/>
		<path d="M 238.241165 117.241673 C 238.198284 117.241673 238.167654 117.211044 238.167654 117.168163 L 238.167654 117.125282 C 238.179906 115.91236 241.06519 114.956724 244.605942 114.99348 L 245.708598 115.005731 C 249.249349 115.042486 252.11013 116.059381 252.097878 117.272302 L 252.097878 117.315183 C 252.097878 117.358064 252.067249 117.388694 252.024368 117.388694 L 238.241165 117.241673 Z" style="fill:#000000;"/>
		<path d="M 241.769665 154.033635 Q 243.239873 154.713607 244.820347 155.105662 C 244.997997 155.148543 245.187899 155.136291 245.359423 155.068907 Q 255.81628 151.019708 264.098453 143.864695 Q 268.215036 140.311691 272.104962 136.360507 C 273.795702 134.645264 276.454328 134.014299 278.653515 133.217936 Q 279.241598 133.003531 278.880172 133.511978 C 270.35909 145.38391 259.301899 154.725858 245.990388 160.024734 Q 244.795843 160.496426 243.589048 159.987979 Q 222.969376 151.258617 209.994788 132.936146 Q 209.743628 132.57472 210.141809 132.746244 C 212.800436 133.873404 215.83274 134.596257 217.872654 136.795443 C 224.598857 144.042345 232.930037 149.953807 241.769665 154.033635 Z" style="fill:#000000;"/>
	</g>
	<g id="surface4">
	</g>
</svg>
