<?xml version="1.0" encoding="utf-8"?>
<svg xmlns="http://www.w3.org/2000/svg" width="490pt" height="280pt" viewBox="0 0 490 280" version="1.1" xmlns:xlink="http://www.w3.org/1999/xlink">
	<g id="surface2">
		<path d="M 228.188769 31.236237 C 226.867733 26.60892 229.269953 22.328467 233.354833 20.066469 C 238.498757 17.221443 246.343794 18.977905 247.941584 25.287883 Q 248.210957 26.361687 247.823502 27.531431 Q 247.639 28.088628 247.428668 27.542501 Q 244.978477 21.239903 238.277354 21.258353 C 235.50982 21.265734 232.495053 22.834003 231.166636 25.365374 Q 229.170321 29.173502 231.177706 33.350633 Q 231.292098 33.586796 231.026414 33.601556 Q 225.269943 33.91521 220.030078 35.405989 C 218.771772 35.767613 216.96734 36.450272 216.15922 37.535145 C 215.443351 38.494557 216.723797 39.815593 217.491327 40.273159 C 220.745947 42.228883 225.262563 43.088664 228.978439 43.623721 Q 239.185105 45.088669 248.948966 44.232578 Q 253.019087 43.874644 257.3143 42.79346 C 259.103972 42.343275 260.782943 41.597886 261.823536 39.959505 Q 263.288484 37.656917 263.616898 35.358018 C 264.019113 32.524063 261.941617 30.217784 259.417626 29.387524 C 257.044927 28.608925 254.572596 28.701176 251.971114 28.907818 Q 251.63163 28.933649 251.926833 28.767597 C 256.358578 26.291576 262.554165 26.343236 265.251588 31.273138 Q 265.318009 31.391219 265.36598 31.265757 Q 269.849385 19.819236 274.23685 8.682678 C 274.520983 7.970499 275.03021 7.317361 275.90475 7.380091 C 278.207339 7.553524 281.613251 8.350573 280.373396 11.512943 Q 275.698108 23.42441 271.01913 35.158756 Q 270.775587 35.767613 270.650125 36.457652 C 270.627985 36.575733 270.672266 36.697505 270.760827 36.778686 C 273.580022 39.321127 274.28482 43.472429 271.447175 46.243653 Q 270.731306 46.944762 269.949017 47.60159 Q 269.757134 47.763952 269.731304 48.011185 Q 265.506202 89.520509 261.701764 129.210641 C 261.240509 134.037221 260.635341 138.992953 260.258957 144.048315 Q 260.163015 145.347211 259.421316 146.690388 C 257.29954 150.539106 253.579974 152.948705 249.417602 154.173801 Q 241.048579 156.638751 232.365901 154.066789 C 227.886185 152.742063 223.118646 149.738366 221.76071 145.044628 Q 221.476576 144.066765 221.037461 139.354577 Q 219.458121 122.432027 217.852951 105.660769 Q 217.487637 101.837882 217.122322 98.313888 Q 214.52084 73.280618 212.369543 47.882033 Q 212.347403 47.62742 212.15183 47.465058 C 209.864002 45.583135 208.520825 43.483499 209.148133 40.457661 C 210.443339 34.210414 222.686911 32.040667 228.041167 31.45395 Q 228.24781 31.43181 228.188769 31.236237 Z M 270.591085 24.457623 C 268.749752 29.291583 266.779267 33.959491 264.827233 38.70489 Q 264.57262 39.324817 264.58369 40.062826 C 264.58738 40.162458 264.675941 40.239949 264.775573 40.225189 C 266.111369 40.003786 267.211003 37.660607 267.738679 36.465032 Q 268.64274 34.413366 269.4361 32.472402 Q 273.731314 21.963152 278.063427 10.782314 Q 278.218409 10.387479 277.805124 10.276777 L 276.827262 10.025854 Q 276.369696 9.904083 276.188884 10.343198 Q 273.292198 17.372735 270.591085 24.457623 Z M 223.993187 44.767635 C 220.410153 43.992725 214.672132 42.667999 213.465487 38.778691 Q 213.428586 38.653229 213.317885 38.72334 C 210.812344 40.298989 210.937805 43.380178 213.376926 44.941067 C 216.461804 46.915241 220.380632 47.900484 224.140789 48.649563 Q 241.218321 52.066545 257.675925 48.789785 C 261.070767 48.114506 265.122437 47.059153 268.262666 45.269481 C 270.639055 43.911544 271.782969 41.450284 269.701784 39.073894 C 269.624293 38.985333 269.484071 38.992713 269.41765 39.092344 C 267.048641 42.656929 262.746047 43.937375 258.734968 44.852506 Q 252.162996 46.354354 245.410213 46.538857 C 238.229384 46.734429 230.952613 46.269483 223.993187 44.767635 Z M 216.782838 62.014909 C 220.590965 56.771354 227.181387 56.254747 232.661105 59.310105 C 234.531958 60.350698 235.993216 62.328562 236.738605 64.350707 Q 236.871447 64.716022 237.015359 64.354398 C 238.963703 59.501987 243.768142 57.121908 248.860405 58.162501 Q 252.554141 58.91896 254.639017 62.649596 C 254.683298 62.730777 254.805069 62.719707 254.830899 62.631146 Q 255.605809 60.162506 257.926848 58.188331 C 260.103975 56.339618 263.465606 55.494598 265.701774 57.597924 Q 265.901037 57.782426 265.930557 57.513053 L 266.830928 49.24366 C 266.845688 49.088678 266.698086 48.970597 266.550485 49.022258 Q 259.229434 51.66064 251.513548 52.43555 C 242.635298 53.324851 233.432324 53.110828 224.509794 51.387577 Q 219.576202 50.435545 215.30682 48.867276 Q 215.122317 48.800855 215.144458 48.992737 Q 215.804976 55.365446 216.351102 61.269519 C 216.388003 61.664354 216.354793 62.066569 216.362173 62.465094 Q 216.369553 62.819339 216.546675 62.513065 C 216.635236 62.354393 216.679517 62.15144 216.782838 62.014909 Z M 255.122413 138.631328 C 256.439759 137.804758 257.985888 136.863796 258.0929 135.56859 Q 258.495115 130.605479 258.996961 125.775209 Q 262.236821 94.520521 265.262659 63.620078 C 265.37336 62.483544 265.620593 61.29166 264.823543 60.383908 Q 263.915792 59.354386 262.218371 59.166193 Q 258.048619 60.022284 257.185149 64.723402 Q 256.963746 65.944807 256.845664 67.454036 Q 254.509865 97.952264 252.919456 123.328708 Q 252.517241 129.738318 251.801372 137.96343 Q 251.760781 138.435756 251.812442 140.004025 Q 251.816132 140.192217 251.996944 140.140557 Q 253.723886 139.653471 255.122413 138.631328 Z M 222.229345 60.852544 Q 218.701662 62.616386 217.340035 66.402373 Q 216.768078 67.992783 216.9821 70.085039 Q 219.325279 92.989152 221.686909 115.834226 C 222.354807 122.288115 222.878793 128.753076 223.539312 135.210656 C 223.657393 136.33612 224.074368 137.092579 224.904628 137.738337 Q 227.495041 139.760482 230.723831 140.43945 Q 233.613136 141.542774 236.830856 141.775247 C 236.926797 141.782627 237.007978 141.705136 237.004288 141.609195 Q 236.380671 104.786229 235.701702 69.944817 C 235.627901 66.19573 233.624207 62.417124 230.166634 60.959555 C 227.720133 59.930033 224.683226 59.789811 222.229345 60.852544 Z M 243.151905 61.265829 C 239.768133 63.155133 238.247834 66.653296 238.329015 70.620095 Q 239.078094 107.118337 239.55042 141.491113 Q 239.56149 142.070451 240.133447 142.144252 C 242.875151 142.502186 245.930509 141.98558 248.565202 141.288161 C 248.812435 141.22174 248.993247 141.007717 249.011697 140.753104 C 249.25155 137.793688 249.369632 134.801061 249.579964 131.860094 Q 251.812442 100.365554 253.926838 70.110869 Q 254.05968 68.206805 253.853037 66.918979 Q 253.365951 63.871002 250.495096 61.716015 C 248.583652 60.284277 245.20726 60.121915 243.151905 61.265829 Z M 253.402852 142.753109 C 251.428677 143.299236 249.329041 144.022485 247.543059 144.369349 Q 242.336404 145.380422 237.033809 144.649793 Q 234.188784 144.258648 230.996894 143.539089 Q 227.650022 142.642408 224.303151 140.826905 C 224.24411 140.793695 224.170309 140.837975 224.170309 140.904396 C 224.21459 142.671928 224.480273 144.764184 225.520866 146.232822 C 227.196147 148.605522 230.004272 150.218072 232.734906 151.147963 Q 240.886217 153.926568 249.20358 151.273425 C 254.10765 149.708845 257.484042 146.343524 257.749726 140.963437 C 257.753416 140.867496 257.653784 140.797385 257.565223 140.837975 L 253.402852 142.753109 Z" style="fill:#280301;"/>
		<path d="M 216.782838 62.014909 C 216.679517 62.15144 216.635236 62.354393 216.546675 62.513065 Q 216.369553 62.819339 216.362173 62.465094 C 216.354793 62.066569 216.388003 61.664354 216.351102 61.269519 Q 215.804976 55.365446 215.144458 48.992737 Q 215.122317 48.800855 215.30682 48.867276 Q 219.576202 50.435545 224.509794 51.387577 C 233.432324 53.110828 242.635298 53.324851 251.513548 52.43555 Q 259.229434 51.66064 266.550485 49.022258 C 266.698086 48.970597 266.845688 49.088678 266.830928 49.24366 L 265.930557 57.513053 Q 265.901037 57.782426 265.701774 57.597924 C 263.465606 55.494598 260.103975 56.339618 257.926848 58.188331 Q 255.605809 60.162506 254.830899 62.631146 C 254.805069 62.719707 254.683298 62.730777 254.639017 62.649596 Q 252.554141 58.91896 248.860405 58.162501 C 243.768142 57.121908 238.963703 59.501987 237.015359 64.354398 Q 236.871447 64.716022 236.738605 64.350707 C 235.993216 62.328562 234.531958 60.350698 232.661105 59.310105 C 227.181387 56.254747 220.590965 56.771354 216.782838 62.014909 Z" style="fill:#5dc6cc;"/>
		<path d="M 262.218371 59.166193 Q 263.915792 59.354386 264.823543 60.383908 C 265.620593 61.29166 265.37336 62.483544 265.262659 63.620078 Q 262.236821 94.520521 258.996961 125.775209 Q 258.495115 130.605479 258.0929 135.56859 C 257.985888 136.863796 256.439759 137.804758 255.122413 138.631328 Q 254.92315 137.20697 255.103963 134.826891 Q 257.004336 109.808381 258.853049 86.383971 Q 258.9453 85.254817 259.354895 79.022329 Q 259.797701 72.287996 260.683312 65.590563 Q 261.096597 62.468784 262.218371 59.166193 Z" style="fill:#5dc6cc;"/>
		<path d="M 222.229345 60.852544 Q 222.240415 61.693875 222.336357 62.494614 Q 223.646323 73.44298 224.834518 84.75666 Q 225.244113 88.634898 225.554077 92.099851 Q 227.351129 112.15894 229.642647 132.601793 Q 229.948921 135.339807 230.273645 138.147932 Q 230.328996 138.631328 230.723831 140.43945 Q 227.495041 139.760482 224.904628 137.738337 C 224.074368 137.092579 223.657393 136.33612 223.539312 135.210656 C 222.878793 128.753076 222.354807 122.288115 221.686909 115.834226 Q 219.325279 92.989152 216.9821 70.085039 Q 216.768078 67.992783 217.340035 66.402373 Q 218.701662 62.616386 222.229345 60.852544 Z" style="fill:#5dc6cc;"/>
		<path d="M 230.996894 143.539089 Q 232.070697 145.203299 233.709078 146.638727 Q 235.882515 148.535411 238.517207 148.845375 Q 242.443416 149.30294 246.258923 148.686703 C 248.790294 148.280798 250.454505 147.229135 251.996944 145.173779 Q 253.008017 143.830602 253.402852 142.753109 L 257.565223 140.837975 C 257.653784 140.797385 257.753416 140.867496 257.749726 140.963437 C 257.484042 146.343524 254.10765 149.708845 249.20358 151.273425 Q 240.886217 153.926568 232.734906 151.147963 C 230.004272 150.218072 227.196147 148.605522 225.520866 146.232822 C 224.480273 144.764184 224.21459 142.671928 224.170309 140.904396 C 224.170309 140.837975 224.24411 140.793695 224.303151 140.826905 Q 227.650022 142.642408 230.996894 143.539089 Z" style="fill:#5dc6cc;"/>
	</g>
	<g id="surface4">
	</g>
</svg>
