<?xml version="1.0" encoding="utf-8"?>
<svg xmlns="http://www.w3.org/2000/svg" width="490pt" height="280pt" viewBox="0 0 490 280" version="1.1" xmlns:xlink="http://www.w3.org/1999/xlink">
	<g id="surface2">
		<path d="M 254.866713 16.399571 Q 246.213189 20.597873 242.143347 28.690844 Q 234.914561 43.072509 241.156542 58.131508 Q 244.064406 65.13841 249.576502 69.938137 C 254.376229 74.118922 259.497107 78.01943 263.572788 83.046882 C 268.302446 88.880127 270.789896 96.120592 271.076011 103.705563 Q 271.607368 117.906217 262.270672 130.144938 C 254.24193 140.65529 241.541922 148.573089 228.059475 149.162836 Q 224.666967 148.888399 221.379563 148.327847 Q 206.413989 145.776167 195.080326 135.581126 Q 180.406707 122.378955 175.023071 104.04423 Q 169.762055 86.141597 173.656725 67.952848 C 177.422934 50.365526 188.114298 35.919631 202.817113 25.485187 C 220.678873 12.808534 242.914106 9.042325 264.44865 13.357408 C 264.57711 13.380764 264.629662 13.53842 264.542076 13.631845 Q 264.442811 13.748627 264.285156 13.771983 Q 260.390486 14.344213 258.002301 14.968995 Q 256.472461 15.371892 254.866713 16.399571 Z" style="fill:#0a91b2;"/>
		<path d="M 254.866713 16.399571 Q 275.490359 17.526514 291.010646 30.092224 C 308.306014 44.094349 318.582803 64.490271 318.442665 86.871482 C 318.343401 103.629655 312.609419 119.307597 301.713688 132.019284 Q 289.562553 146.196581 272.471552 153.647253 Q 262.936327 157.804681 253.967493 158.943303 C 247.982432 159.702384 242.166704 159.848361 236.140768 159.503855 Q 223.020345 158.750613 211.260429 152.812264 Q 207.032932 150.680998 203.558677 147.668031 Q 203.325113 147.463663 203.295918 147.165869 C 203.278401 146.973179 203.459412 146.821363 203.646263 146.879754 Q 215.668938 150.529182 228.059475 149.162836 C 241.541922 148.573089 254.24193 140.65529 262.270672 130.144938 Q 271.607368 117.906217 271.076011 103.705563 C 270.789896 96.120592 268.302446 88.880127 263.572788 83.046882 C 259.497107 78.01943 254.376229 74.118922 249.576502 69.938137 Q 244.064406 65.13841 241.156542 58.131508 Q 234.914561 43.072509 242.143347 28.690844 Q 246.213189 20.597873 254.866713 16.399571 Z" style="fill:#ffc324;"/>
	</g>
	<g id="surface4">
	</g>
</svg>
