<?xml version="1.0" encoding="utf-8"?>
<svg xmlns="http://www.w3.org/2000/svg" width="490pt" height="280pt" viewBox="0 0 490 280" version="1.1" xmlns:xlink="http://www.w3.org/1999/xlink">
	<g id="surface2">
		<path d="M 249.60913 104.16299 Q 249.738649 104.79587 250.20963 105.434637 Q 250.453951 105.767266 250.995578 106.164656 Q 251.454784 106.503173 251.831568 106.844634 Q 257.17425 113.155769 256.214627 121.286065 C 255.56703 126.770041 252.276055 132.103892 248.149091 135.798143 C 243.203799 140.222413 237.248843 143.286728 231.102551 145.847683 Q 231.055453 145.868289 231.034847 145.82119 L 230.999524 145.744656 Q 230.990693 145.726994 231.008355 145.718164 C 232.380085 145.076453 233.689998 144.264012 234.994025 143.422135 Q 239.656729 140.404918 242.049897 135.453738 C 244.940538 129.475233 244.01624 123.599755 240.151258 118.49845 Q 237.275335 114.698229 233.07478 111.501451 C 227.867505 107.542273 221.959647 104.427916 216.087113 101.604979 Q 209.855456 98.608367 206.205359 96.309395 C 195.358096 89.468407 186.868677 79.38943 182.883007 67.199873 Q 177.472622 50.656693 184.345989 35.176162 C 187.737047 27.540395 193.268121 20.914292 200.003138 15.998436 Q 204.289058 12.869361 210.603137 9.949284 Q 215.604358 7.635594 220.702719 5.890023 Q 220.740986 5.878249 220.755704 5.916516 L 220.755704 5.916516 Q 220.773366 5.957727 220.732155 5.978332 Q 215.042125 8.50102 210.1351 11.385774 C 202.649458 15.792382 196.397196 22.021096 192.449793 29.680412 Q 187.560429 39.164776 189.594475 49.826591 C 190.969149 57.044362 194.316052 63.476186 198.737379 68.986655 C 207.223854 79.568992 219.313327 86.468852 231.273281 92.565102 C 234.946927 94.437248 239.017962 96.700897 242.129375 98.670183 Q 245.287886 100.671849 249.60913 104.16299 Z" style="fill:#1e1918;"/>
		<path d="M 240.650026 25.318369 C 236.833791 26.58666 232.70094 24.487855 231.418785 20.630527 C 230.134098 16.77261 232.188749 12.61621 236.002393 11.347094 C 239.818628 10.078804 243.95148 12.177609 245.233635 16.034937 C 246.518322 19.892854 244.463671 24.049254 240.650026 25.318369 Z" style="fill:#000000;"/>
		<path d="M 256.623791 44.260193 Q 256.656171 44.354389 256.60613 44.469191 Q 256.54137 44.613428 256.388301 44.639921 Q 255.637677 44.775328 254.922375 44.975494 Q 254.183525 45.181548 253.544758 45.73495 Q 253.103214 46.117621 252.779415 46.953611 Q 252.117099 48.663858 251.11921 50.221037 Q 251.160421 48.066302 249.962365 46.515011 C 249.897605 46.429646 249.800465 46.373717 249.694495 46.356055 C 248.770196 46.194156 247.875334 46.129396 247.00402 45.758499 C 244.934651 44.881298 242.938872 42.994434 241.484721 41.254751 Q 240.327876 39.871246 239.400633 39.406153 Q 238.411575 38.911624 237.340095 38.337617 Q 237.107549 38.211041 236.939762 38.010874 Q 234.066782 34.546226 232.945261 31.923455 Q 231.811965 29.271248 230.934764 26.736785 Q 230.734597 26.153947 230.243012 25.765389 Q 228.032348 24.013931 226.372143 22.339007 Q 225.33893 21.296964 226.731266 21.765 C 227.334709 21.968111 228.217797 22.489132 228.886 22.321346 C 229.103828 22.265417 229.239235 22.044645 229.192137 21.823873 L 228.515103 18.635925 Q 228.470949 18.429872 228.665228 18.356281 Q 228.771199 18.31507 228.85362 18.376886 Q 229.109716 18.568222 229.183306 18.830205 Q 229.872115 21.264584 230.560923 22.506794 Q 231.823739 24.782217 233.616408 27.561001 Q 234.899829 29.547948 236.692497 31.090409 C 238.282055 32.459195 239.480111 33.931008 240.530986 35.720733 C 240.651675 35.926787 240.87539 36.144615 241.090275 36.250586 C 241.935096 36.665637 242.81524 37.051252 243.580583 37.607597 Q 245.367364 38.90868 247.201243 40.218594 C 247.413185 40.368719 247.675167 40.430535 247.934206 40.386381 C 250.64823 39.930119 253.4329 40.989824 255.514044 42.694184 C 256.035066 43.12101 256.299993 43.683242 256.623791 44.260193 Z" style="fill:#000000;"/>
		<path d="M 264.500936 42.938505 L 264.259558 43.073912 Q 264.124151 43.150446 264.029955 43.274078 L 263.670833 43.739171 Q 263.585468 43.851029 263.553088 43.989379 Q 263.470666 44.36322 263.082108 44.404431 Q 262.699436 44.445642 262.302047 44.260193 Q 262.201963 44.216039 262.098937 44.245475 Q 261.492549 44.422093 260.744868 44.430923 C 260.268001 44.433867 259.86178 44.551612 259.384913 44.442698 Q 259.046396 44.36322 258.710823 44.475078 Q 258.525374 44.536894 258.354644 44.439754 Q 257.786524 44.113012 257.227235 44.531007 C 257.103603 44.622259 256.926985 44.583992 256.862225 44.451529 Q 256.829845 44.383825 256.891661 44.236644 C 257.34498 43.359443 258.060281 41.410763 256.768029 40.886797 C 256.644397 40.836756 256.564919 40.716067 256.567863 40.58066 L 256.600242 39.088242 C 256.603186 38.961666 256.653228 38.840977 256.74448 38.755612 L 257.486274 38.037367 C 257.568696 37.957889 257.559865 37.825426 257.468612 37.754779 Q 257.14187 37.510458 256.991745 37.186659 Q 256.91521 37.018872 257.050617 36.89524 Q 257.58047 36.403654 258.316377 36.265304 Q 258.504769 36.22998 258.422347 36.056306 Q 258.366418 35.935618 258.239842 35.88852 Q 258.027901 35.806098 258.069112 35.585326 C 258.172139 35.026037 258.934538 34.999545 259.381969 34.875912 Q 259.546812 34.828814 259.617459 34.672802 Q 260.100214 33.613096 261.469 33.121511 C 261.607351 33.071469 261.636787 32.886021 261.516098 32.797712 L 261.142258 32.523955 Q 261.015682 32.429759 261.009795 32.273746 C 260.977415 31.022705 262.416848 30.46636 263.450061 30.775441 C 266.794021 31.776274 269.669944 34.08702 269.101824 37.76361 Q 268.842785 39.417928 267.780135 40.586547 Q 267.344479 41.060471 266.169972 41.790491 Q 265.269222 42.346836 264.500936 42.938505 Z" style="fill:#000000;"/>
		<path d="M 274.650559 123.788147 Q 275.32465 124.185537 275.32465 125.139272 Q 275.321706 125.786869 275.365861 126.290229 C 275.445339 127.226303 276.204794 127.841521 277.161473 127.756155 Q 278.765749 127.611918 280.090381 126.357933 C 281.285493 125.22758 281.288437 123.935328 280.838062 122.47529 Q 280.296435 120.715001 279.516374 119.343271 Q 279.201406 118.792813 279.557585 118.45724 Q 286.610513 113.541384 292.085658 108.787427 C 299.144475 102.655853 304.107429 94.622697 305.994293 85.491568 Q 308.30504 74.320506 305.031727 63.567439 C 302.450167 55.083907 297.637338 47.224425 291.856056 40.562998 Q 291.829563 40.536506 291.856056 40.510013 L 291.858999 40.510013 Q 291.879605 40.489408 291.90021 40.510013 Q 297.516649 45.749668 301.761358 52.658359 Q 305.105318 58.101124 306.830283 63.340779 C 311.996347 79.042082 309.34414 96.035638 299.19746 109.019973 Q 294.955694 114.448021 290.078105 118.789869 C 289.948586 118.907614 289.874995 119.075401 289.877939 119.249075 C 289.963304 122.822638 288.306042 126.49334 286.333813 129.522331 Q 282.85739 134.859126 277.476441 139.162708 Q 270.179191 145.002862 261.280608 148.364484 Q 245.529264 154.313553 228.635792 153.854347 Q 216.86423 153.536435 205.805026 150.557485 Q 203.049791 149.815691 200.12677 148.744211 Q 200.09439 148.732437 200.106165 148.700057 L 200.106165 148.697113 Q 200.12677 148.641185 200.182699 148.658846 Q 201.96065 149.244628 203.809247 149.577258 C 207.447569 150.227799 211.265453 150.692892 214.936155 150.73999 C 224.73843 150.860679 234.670226 149.506611 243.910269 146.374592 Q 250.898438 144.004973 256.703269 140.975981 Q 259.549756 139.492394 262.826012 137.293505 Q 267.818403 133.940714 271.391965 129.751934 Q 273.708599 127.037911 274.650559 123.788147 Z" style="fill:#1e1918;"/>
		<path d="M 264.500936 42.938505 Q 263.812127 43.898127 263.606073 44.713512 C 263.553088 44.922509 263.726762 45.119732 263.938703 45.090296 Q 265.878553 44.831257 266.114043 46.885908 Q 266.158197 47.24503 266.514376 47.30979 Q 268.0274 47.574716 269.687605 48.625591 C 271.771693 49.947279 272.169082 52.219759 272.392798 54.480464 C 272.486994 55.454804 273.637952 56.697015 274.200185 57.485906 C 275.05678 58.686906 275.639618 60.0292 276.402017 61.312621 C 277.694269 63.493848 277.850281 66.56405 277.388132 68.971937 Q 277.179134 70.064022 276.872997 71.135502 C 276.840617 71.24736 276.855336 71.365105 276.911264 71.468132 Q 277.738423 72.989987 278.642117 74.444138 C 279.192575 75.327226 278.703933 76.460522 278.129926 77.181711 C 278.06811 77.261188 277.959195 77.287681 277.867943 77.249414 Q 277.60596 77.137556 277.667776 76.860855 C 277.979801 75.506787 276.923039 74.394096 276.237174 73.313785 Q 275.748532 72.545499 275.939868 73.434474 Q 276.119429 74.270464 276.060556 75.097623 Q 276.051726 75.215368 275.96636 75.300733 Q 275.789743 75.46852 275.486549 75.153552 C 275.439451 75.10351 275.407071 75.041694 275.386466 74.976934 Q 274.909599 73.360884 274.294381 72.127504 C 273.708599 70.94711 275.448282 70.546777 274.880162 69.325172 Q 273.62029 66.617035 273.281773 64.135558 C 273.190521 63.467355 272.610626 63.246583 272.236786 62.772659 Q 269.858336 59.764273 268.321763 55.940503 C 268.218736 55.681463 267.859613 55.666745 267.735981 55.916954 Q 267.02068 57.35933 265.678386 58.536781 Q 265.566528 58.636864 265.540036 58.784046 Q 265.434065 59.381602 265.472332 59.982102 Q 265.554754 61.289072 265.481163 62.7079 C 265.404629 64.226811 264.639286 65.19232 263.40885 65.998874 C 263.220458 66.122506 263.223402 66.399207 263.411794 66.519896 C 264.294882 67.090959 265.513543 67.709121 266.008072 68.630476 C 266.788133 70.087571 266.502602 71.665355 265.431122 72.989987 Q 265.310433 73.140112 265.454671 73.266687 C 266.146423 73.873074 267.011849 74.279295 266.358364 75.37138 Q 265.896215 76.139667 266.11993 76.984488 Q 266.487883 78.38271 266.8264 79.78682 Q 267.794854 83.813701 269.599297 86.989874 C 269.711154 87.184153 269.628733 87.431418 269.425623 87.525614 L 268.074498 88.143775 C 267.980302 88.18793 267.921429 88.285069 267.93026 88.388096 L 268.042118 89.774544 Q 267.786023 89.486069 267.833121 89.073961 C 267.841952 89.006258 267.786023 88.944442 267.715376 88.944442 L 267.4269 88.944442 C 267.326817 88.944442 267.244395 89.026863 267.244395 89.126946 L 267.244395 89.282959 Q 267.244395 89.444858 267.08544 89.468407 Q 266.587967 89.541998 266.228844 89.229973 Q 266.105212 89.124003 265.960974 89.200537 Q 265.816737 89.280015 265.675443 89.191706 Q 265.537092 89.103397 265.384024 89.16227 Q 265.066112 89.285902 264.727595 89.371267 Q 264.368472 89.459576 264.10649 89.627363 Q 263.514821 90.007091 262.834843 90.060076 Q 262.781858 90.065963 262.773027 90.118948 Q 262.76714 90.160159 262.743591 90.195483 C 262.696493 90.263186 262.60524 90.286735 262.534593 90.242581 Q 262.313821 90.110118 262.190189 89.892289 C 262.146035 89.815755 262.075388 89.759826 261.992966 89.733333 Q 261.189356 89.468407 260.341592 89.692123 Q 260.191467 89.73039 260.082552 89.854022 Q 259.95892 89.99826 259.802908 90.116005 Q 259.638065 90.236694 259.826457 90.316171 Q 259.914766 90.354439 260.05606 90.336777 Q 259.48794 90.554605 259.234788 91.163936 C 259.128818 91.422975 258.787357 91.481848 258.598965 91.27285 Q 258.069112 90.678238 257.889551 89.806924 Q 256.962308 85.270796 255.720098 81.226253 C 255.693606 81.135001 255.572917 81.111452 255.514044 81.185042 Q 254.36603 82.595039 253.073778 83.993262 Q 251.666725 85.515117 250.527541 87.875905 C 250.256728 88.435194 249.859338 89.047468 249.367752 89.43014 C 249.10577 89.630307 248.74076 89.624419 248.484665 89.415422 C 247.580971 88.673628 247.224792 87.978932 245.870724 88.255633 Q 245.970808 88.19676 246.100327 88.173211 Q 246.147425 88.164381 246.176861 88.129057 Q 246.229847 88.073128 246.179805 87.978932 C 246.1592 87.937721 246.115045 87.914172 246.070891 87.914172 L 245.935484 87.914172 Q 245.764754 87.914172 245.82657 87.755217 Q 245.847175 87.708118 245.823626 87.658077 Q 245.779472 87.560937 245.673501 87.540332 Q 245.543982 87.516783 245.420349 87.443192 Q 245.276112 87.357827 245.314379 87.195927 Q 245.393857 86.830918 245.008242 86.716116 Q 244.969975 86.704342 244.996467 86.671962 Q 245.028847 86.633695 245.020016 86.595428 Q 244.993524 86.480626 244.881666 86.415867 Q 244.65795 86.283403 244.451896 86.106786 C 244.128097 85.824198 243.663004 85.727058 243.309769 85.462132 Q 243.18025 85.364992 243.136095 85.211923 Q 243.059561 84.938166 242.779917 84.90873 Q 242.635679 84.894012 242.500272 84.84397 Q 242.058728 84.685014 241.664282 84.487791 Q 241.293385 84.302343 240.887165 84.21109 Q 240.033513 84.022698 239.212241 83.887291 Q 240.133596 80.505065 241.375807 78.241416 Q 241.896829 77.299456 243.533485 74.968104 C 243.98386 74.326393 244.434235 74.16155 245.08772 73.870131 C 245.302604 73.772991 245.440955 73.56105 245.443898 73.32556 Q 245.464504 70.47613 246.356423 67.953442 Q 246.415295 67.782712 246.382915 67.609038 C 246.206298 66.637641 247.366086 65.85758 248.113768 65.416036 C 248.319821 65.292404 248.443454 65.065744 248.437566 64.827311 C 248.37575 62.596042 248.655395 60.538447 249.164642 58.254193 Q 249.771029 55.528395 250.271446 52.255082 Q 250.468669 50.956943 251.11921 50.221037 Q 252.117099 48.663858 252.779415 46.953611 Q 253.103214 46.117621 253.544758 45.73495 Q 254.183525 45.181548 254.922375 44.975494 Q 255.637677 44.775328 256.388301 44.639921 Q 256.54137 44.613428 256.60613 44.469191 Q 256.656171 44.354389 256.623791 44.260193 Q 256.700326 44.207208 256.891661 44.236644 Q 256.829845 44.383825 256.862225 44.451529 C 256.926985 44.583992 257.103603 44.622259 257.227235 44.531007 Q 257.786524 44.113012 258.354644 44.439754 Q 258.525374 44.536894 258.710823 44.475078 Q 259.046396 44.36322 259.384913 44.442698 C 259.86178 44.551612 260.268001 44.433867 260.744868 44.430923 Q 261.492549 44.422093 262.098937 44.245475 Q 262.201963 44.216039 262.302047 44.260193 Q 262.699436 44.445642 263.082108 44.404431 Q 263.470666 44.36322 263.553088 43.989379 Q 263.585468 43.851029 263.670833 43.739171 L 264.029955 43.274078 Q 264.124151 43.150446 264.259558 43.073912 L 264.500936 42.938505 Z" style="fill:#1e1918;"/>
		<path d="M 239.212241 83.887291 Q 240.033513 84.022698 240.887165 84.21109 Q 241.293385 84.302343 241.664282 84.487791 Q 242.058728 84.685014 242.500272 84.84397 Q 242.635679 84.894012 242.779917 84.90873 Q 243.059561 84.938166 243.136095 85.211923 Q 243.18025 85.364992 243.309769 85.462132 C 243.663004 85.727058 244.128097 85.824198 244.451896 86.106786 Q 244.65795 86.283403 244.881666 86.415867 Q 244.993524 86.480626 245.020016 86.595428 Q 245.028847 86.633695 244.996467 86.671962 Q 244.969975 86.704342 245.008242 86.716116 Q 245.393857 86.830918 245.314379 87.195927 Q 245.276112 87.357827 245.420349 87.443192 Q 245.543982 87.516783 245.673501 87.540332 Q 245.779472 87.560937 245.823626 87.658077 Q 245.847175 87.708118 245.82657 87.755217 Q 245.764754 87.914172 245.935484 87.914172 L 246.070891 87.914172 C 246.115045 87.914172 246.1592 87.937721 246.179805 87.978932 Q 246.229847 88.073128 246.176861 88.129057 Q 246.147425 88.164381 246.100327 88.173211 Q 245.970808 88.19676 245.870724 88.255633 L 244.660894 88.579432 C 244.21935 88.697177 244.113379 89.274128 244.484276 89.541998 Q 246.256339 90.816588 247.410241 92.270739 Q 248.137317 93.186207 249.082221 94.010423 Q 250.383304 95.146662 251.710879 96.636137 C 251.893384 96.839248 252.202465 96.859853 252.408518 96.683235 Q 252.764697 96.377098 252.891273 95.95616 Q 252.935428 95.814866 252.894217 95.673571 Q 252.752923 95.158437 252.782359 94.699231 Q 252.794134 94.522614 252.964864 94.472572 C 254.592689 94.001592 257.188968 94.145829 257.038843 96.574321 C 256.944647 98.075571 256.194022 99.082291 255.149035 100.056631 C 255.007741 100.189094 254.93415 100.377486 254.945924 100.571766 C 255.057782 102.314393 255.284441 104.263073 254.265947 105.752548 Q 253.435844 106.962379 251.831568 106.844634 Q 251.454784 106.503173 250.995578 106.164656 Q 250.453951 105.767266 250.20963 105.434637 Q 249.738649 104.79587 249.60913 104.16299 L 249.773973 102.488067 Q 249.788691 102.340885 249.670946 102.246689 L 248.926208 101.657964 C 248.623015 101.41953 248.581804 100.975043 248.832012 100.683624 C 249.267669 100.174376 250.141926 99.517948 249.167586 98.87035 Q 249.035123 98.784985 249.026292 98.626029 L 249.011574 98.234526 C 249.00863 98.122669 248.926208 98.028473 248.817294 98.007867 Q 248.187358 97.890122 247.633956 97.622252 C 246.544815 97.089456 245.520433 96.591983 244.337095 96.256409 C 241.266893 95.38804 237.543205 93.613033 237.605021 89.99826 C 237.640345 88.067241 238.532264 85.788874 239.212241 83.887291 Z" style="fill:#000000;"/>
		<path d="M 268.042118 89.774544 Q 268.215792 91.629029 269.104767 93.171489 C 269.690549 94.189984 270.73848 94.95827 271.389021 95.850189 Q 273.208182 98.343441 273.626177 100.710116 Q 274.679996 106.718058 276.290159 112.97032 C 276.343145 113.179318 276.519762 113.338273 276.734647 113.370653 C 277.717818 113.509004 278.218235 114.456851 278.656835 115.269292 C 279.142533 116.164155 279.201406 117.373985 279.557585 118.45724 Q 279.201406 118.792813 279.516374 119.343271 Q 280.296435 120.715001 280.838062 122.47529 C 281.288437 123.935328 281.285493 125.22758 280.090381 126.357933 Q 278.765749 127.611918 277.161473 127.756155 C 276.204794 127.841521 275.445339 127.226303 275.365861 126.290229 Q 275.321706 125.786869 275.32465 125.139272 Q 275.32465 124.185537 274.650559 123.788147 C 274.836008 123.131718 274.989076 122.490008 274.868388 121.830635 C 274.750643 121.180094 274.912542 120.526609 274.647616 119.926109 Q 273.640896 117.650686 272.807849 115.566599 C 272.74309 115.404699 272.760751 115.225138 272.854947 115.0809 Q 273.261168 114.462739 273.805739 114.044744 C 273.896991 113.974097 273.932315 113.850464 273.88816 113.74155 C 272.372193 109.906005 270.226289 106.250021 268.103934 102.667628 Q 267.385689 101.454854 265.669555 97.531 C 264.915987 95.808978 263.564862 94.469628 262.84073 92.738776 Q 262.413905 91.714394 262.119542 90.625252 C 262.048895 90.3721 261.83401 90.186652 261.574971 90.154272 Q 260.856726 90.065963 260.05606 90.336777 Q 259.914766 90.354439 259.826457 90.316171 Q 259.638065 90.236694 259.802908 90.116005 Q 259.95892 89.99826 260.082552 89.854022 Q 260.191467 89.73039 260.341592 89.692123 Q 261.189356 89.468407 261.992966 89.733333 C 262.075388 89.759826 262.146035 89.815755 262.190189 89.892289 Q 262.313821 90.110118 262.534593 90.242581 C 262.60524 90.286735 262.696493 90.263186 262.743591 90.195483 Q 262.76714 90.160159 262.773027 90.118948 Q 262.781858 90.065963 262.834843 90.060076 Q 263.514821 90.007091 264.10649 89.627363 Q 264.368472 89.459576 264.727595 89.371267 Q 265.066112 89.285902 265.384024 89.16227 Q 265.537092 89.103397 265.675443 89.191706 Q 265.816737 89.280015 265.960974 89.200537 Q 266.105212 89.124003 266.228844 89.229973 Q 266.587967 89.541998 267.08544 89.468407 Q 267.244395 89.444858 267.244395 89.282959 L 267.244395 89.126946 C 267.244395 89.026863 267.326817 88.944442 267.4269 88.944442 L 267.715376 88.944442 C 267.786023 88.944442 267.841952 89.006258 267.833121 89.073961 Q 267.786023 89.486069 268.042118 89.774544 Z" style="fill:#000000;"/>
	</g>
	<g id="surface4">
	</g>
</svg>
