<?xml version="1.0" encoding="utf-8"?>
<svg xmlns="http://www.w3.org/2000/svg" width="490pt" height="280pt" viewBox="0 0 490 280" version="1.1" xmlns:xlink="http://www.w3.org/1999/xlink">
	<g id="surface2">
		<path d="M 311.956933 116.697558 Q 319.804207 99.265723 317.608785 79.275585 Q 315.749026 62.320029 306.713321 47.959064 Q 291.30454 23.473753 263.621352 15.853279 Q 252.657848 12.832305 240.923224 13.363017 Q 236.418979 13.567137 231.882983 14.42444 Q 206.844281 19.141877 189.684605 38.388111 Q 179.546652 49.759854 174.815608 65.399971 Q 173.559137 69.545872 172.842449 74.041045 Q 168.465212 101.443001 183.647193 124.980288 Q 184.885521 126.908087 186.069416 128.622694 Q 187.217023 130.287404 185.29376 131.317076 Q 185.257472 131.339756 185.221184 131.3579 Q 183.343282 132.278707 182.191138 130.491524 Q 180.46746 127.81075 178.757389 125.161728 Q 176.929382 122.32673 175.632087 119.772964 Q 169.853227 108.414828 168.252021 96.693813 Q 165.394343 75.76926 173.395841 56.327978 Q 175.192096 51.959813 177.428342 48.113288 Q 186.146528 33.117282 200.135542 23.337673 Q 208.445488 17.527062 216.927801 14.306504 Q 234.300669 7.711165 251.709824 9.425772 Q 269.608868 11.190274 284.799921 20.411956 Q 293.064507 25.428768 299.26975 31.770091 Q 312.927636 45.736425 318.515984 63.004965 Q 324.176908 80.486696 321.663966 98.721403 Q 319.309784 115.831183 308.867919 130.527812 Q 307.62052 132.287779 305.651898 131.40326 Q 305.602002 131.38058 305.561178 131.353364 Q 303.914611 130.237509 304.966962 128.722486 Q 309.443991 122.276834 311.956933 116.697558 Z" style="fill:#000000;"/>
		<path d="M 208.572495 66.69273 Q 201.029133 65.635843 193.503914 66.152947 Q 193.268043 66.166555 193.227219 65.935219 Q 192.764547 63.322485 191.979819 60.827686 C 191.934459 60.687071 192.016107 60.541919 192.156723 60.505631 C 198.656807 58.868136 205.764714 58.641336 212.509741 59.2038 Q 212.745612 59.221944 212.890764 59.035968 C 220.034959 49.650991 231.207119 43.255235 243.073287 43.082867 Q 257.638372 42.869675 268.683524 51.751157 C 285.788768 65.504299 287.78007 90.329809 275.029384 107.702677 Q 267.653853 117.740838 257.624764 123.07517 Q 255.497382 124.209169 253.329175 124.862352 C 253.125055 124.925856 252.911864 124.803384 252.857432 124.599265 C 252.07724 121.619115 248.979154 120.203884 246.180444 119.718532 Q 243.313694 119.215036 240.673744 118.824941 C 223.355309 116.248495 209.416191 103.239256 207.202624 85.721237 Q 206.544905 80.518448 207.20716 74.526397 C 207.47932 72.022526 208.1824 69.505048 208.776615 66.992106 Q 208.840119 66.729018 208.572495 66.69273 Z M 264.474119 106.809085 C 257.983108 94.775086 248.897506 84.714245 237.376075 77.166347 C 230.25456 72.49427 222.239454 69.28732 213.852396 67.354986 C 213.59838 67.296018 213.344364 67.44117 213.262716 67.686114 Q 210.468542 76.390691 211.675117 85.775669 C 213.680028 101.361353 226.598547 112.873713 241.807744 114.88316 C 244.923973 115.291399 248.507411 115.509127 251.083857 117.287238 C 252.104456 117.994853 252.93908 119.024525 253.714735 119.990692 C 253.864423 120.176668 254.118439 120.2311 254.331631 120.122236 C 266.710366 113.808128 276.004623 102.332057 278.585605 88.560771 C 280.771956 76.880579 276.208743 64.229684 267.617565 56.368802 Q 258.463924 47.98628 245.976325 47.314952 Q 232.363798 46.584657 221.817606 55.688402 Q 219.980527 57.271465 218.624264 59.439671 Q 218.229633 60.070175 218.964464 60.192647 L 220.742575 60.487487 C 221.264214 60.573671 221.794926 60.378623 222.13059 59.974919 Q 223.201085 58.695768 224.344156 57.770425 Q 234.232629 49.746246 245.985397 50.612622 Q 258.350524 51.519821 267.114069 60.700679 C 279.578988 73.750741 278.172829 94.961062 265.100087 106.917949 C 264.905039 107.094853 264.596591 107.040421 264.474119 106.809085 Z M 242.243199 65.558731 C 242.243199 62.524149 239.780153 60.061103 236.745571 60.061103 C 233.710989 60.061103 231.247943 62.524149 231.247943 65.558731 C 231.247943 68.593313 233.710989 71.056359 236.745571 71.056359 C 239.780153 71.056359 242.243199 68.593313 242.243199 65.558731 Z M 267.549525 74.703301 C 267.703749 74.707837 267.830757 74.585365 267.835293 74.431141 L 267.857973 71.378415 C 267.862509 71.228727 267.740037 71.101719 267.590349 71.101719 L 263.0226 70.992855 C 262.868376 70.992855 262.736832 71.119863 262.741368 71.274087 L 262.791264 74.290525 C 262.7958 74.435677 262.913736 74.558149 263.058888 74.562685 L 267.549525 74.703301 Z M 267.888863 80.763347 C 267.889725 80.563808 267.730965 80.405048 267.532379 80.403143 L 263.078121 80.379783 C 262.881984 80.377832 262.718689 80.536592 262.717872 80.736267 L 262.701406 83.884203 C 262.700545 84.083742 262.859304 84.242502 263.05789 84.244407 L 267.512148 84.267767 C 267.708285 84.269718 267.871581 84.110958 267.872397 83.911283 L 267.888863 80.763347 Z M 267.805083 89.71373 C 267.803541 89.572298 267.690141 89.458898 267.549298 89.461529 L 263.086014 89.492691 C 262.945488 89.495186 262.832088 89.608586 262.833767 89.748431 L 262.857762 93.186671 C 262.859304 93.328103 262.972704 93.441503 263.113547 93.438872 L 267.576832 93.40771 C 267.717357 93.405215 267.830757 93.291815 267.829079 93.15197 L 267.805083 89.71373 Z" style="fill:#000000;"/>
		<path d="M 264.474119 106.809085 C 264.596591 107.040421 264.905039 107.094853 265.100087 106.917949 C 278.172829 94.961062 279.578988 73.750741 267.114069 60.700679 Q 258.350524 51.519821 245.985397 50.612622 Q 234.232629 49.746246 224.344156 57.770425 Q 223.201085 58.695768 222.13059 59.974919 C 221.794926 60.378623 221.264214 60.573671 220.742575 60.487487 L 218.964464 60.192647 Q 218.229633 60.070175 218.624264 59.439671 Q 219.980527 57.271465 221.817606 55.688402 Q 232.363798 46.584657 245.976325 47.314952 Q 258.463924 47.98628 267.617565 56.368802 C 276.208743 64.229684 280.771956 76.880579 278.585605 88.560771 C 276.004623 102.332057 266.710366 113.808128 254.331631 120.122236 C 254.118439 120.2311 253.864423 120.176668 253.714735 119.990692 C 252.93908 119.024525 252.104456 117.994853 251.083857 117.287238 C 248.507411 115.509127 244.923973 115.291399 241.807744 114.88316 C 226.598547 112.873713 213.680028 101.361353 211.675117 85.775669 Q 210.468542 76.390691 213.262716 67.686114 C 213.344364 67.44117 213.59838 67.296018 213.852396 67.354986 C 222.239454 69.28732 230.25456 72.49427 237.376075 77.166347 C 248.897506 84.714245 257.983108 94.775086 264.474119 106.809085 Z M 223.904164 83.584782 Q 219.726511 81.38936 215.172371 80.377832 C 215.027219 80.34608 214.886603 80.450408 214.882067 80.600096 Q 214.360427 92.969759 222.937997 101.792273 C 229.660344 108.705132 239.022642 112.193314 248.752355 111.190858 Q 249.77749 111.08653 250.734585 110.560355 C 250.870665 110.483243 250.934169 110.319947 250.884273 110.170259 Q 250.662009 109.489859 250.276449 108.868428 Q 247.450523 104.287071 244.529342 100.59477 Q 236.178572 90.044041 223.904164 83.584782 Z" style="fill:#ffba31;"/>
		<path d="M 223.904164 83.584782 Q 236.178572 90.044041 244.529342 100.59477 Q 247.450523 104.287071 250.276449 108.868428 Q 250.662009 109.489859 250.884273 110.170259 C 250.934169 110.319947 250.870665 110.483243 250.734585 110.560355 Q 249.77749 111.08653 248.752355 111.190858 C 239.022642 112.193314 229.660344 108.705132 222.937997 101.792273 Q 214.360427 92.969759 214.882067 80.600096 C 214.886603 80.450408 215.027219 80.34608 215.172371 80.377832 Q 219.726511 81.38936 223.904164 83.584782 Z" style="fill:#000000;"/>
		<path d="M 211.752229 149.451991 Q 205.392762 146.431017 198.99247 141.536676 Q 197.790431 140.615869 197.25972 139.627022 C 195.907993 137.123152 198.706703 135.508337 200.693469 137.313663 Q 204.580818 140.842669 210.849566 144.24013 Q 228.866545 153.997059 248.525555 152.822236 C 255.252438 152.423069 261.707161 151.139381 268.003125 148.621903 Q 275.528343 145.610001 282.037499 141.164725 Q 284.613945 139.404758 286.754935 137.381703 Q 287.852646 136.34296 289.231589 136.624192 C 290.73754 136.937176 290.891764 138.84683 290.161469 139.917326 Q 289.444781 140.969677 288.374286 141.772548 Q 282.18265 146.421945 276.358431 149.456527 C 259.988018 157.984201 240.896008 159.14088 223.250981 153.974379 C 219.209408 152.790484 215.548858 151.252781 211.752229 149.451991 Z" style="fill:#000000;"/>
	</g>
	<g id="surface4">
	</g>
</svg>
