<?xml version="1.0" encoding="utf-8"?>
<svg xmlns="http://www.w3.org/2000/svg" width="490pt" height="280pt" viewBox="0 0 490 280" version="1.1" xmlns:xlink="http://www.w3.org/1999/xlink">
	<g id="surface2">
		<path d="M 175.079517 116.378982 C 175.312903 116.237865 175.405171 115.944776 175.291192 115.695108 Q 168.669558 100.937547 168.82153 84.687405 Q 168.924654 74.163348 171.383342 65.842884 C 172.615401 61.674511 174.15683 57.451862 176.034769 53.478882 C 185.12052 34.216439 202.369335 20.023345 222.70101 13.819633 C 234.147753 10.324279 248.031475 10.014907 260.075251 12.365045 C 276.493648 15.572738 291.224071 24.256849 302.345161 36.702265 C 313.542236 49.234523 320.109595 65.001611 320.831461 81.865069 Q 321.607604 100.101701 314.253247 116.742629 C 314.150124 116.981442 314.24782 117.258248 314.475778 117.377654 C 326.676953 123.722483 338.367938 131.348218 348.327527 140.580513 C 353.695393 145.557594 358.992701 151.479072 361.749906 158.084424 C 361.89645 158.437216 361.635927 158.822573 361.255997 158.822573 L 128.489263 158.855138 C 128.147326 158.855138 127.908513 158.507774 128.033347 158.187547 C 131.300744 149.622843 138.134053 142.496445 145.211604 136.645525 Q 157.407352 126.571957 169.80392 119.478124 Q 172.430863 117.974687 175.079517 116.378982 Z M 188.295648 109.97445 Q 193.989168 108.18878 199.167069 106.419392 Q 204.138723 104.72599 213.696672 102.804631 Q 216.008817 102.788348 217.371137 102.066482 Q 223.862509 100.514197 230.511282 100.031143 Q 244.020502 99.043325 257.513439 100.139694 Q 260.900242 100.416501 269.475801 102.120757 Q 271.185486 103.070582 273.285955 102.582101 Q 283.364951 104.72599 287.750427 106.261993 Q 293.574209 108.302759 299.571673 110.430366 Q 301.400763 111.819823 303.962576 112.427711 C 304.119976 112.465704 304.282803 112.384291 304.342506 112.232319 Q 306.730636 106.072028 307.97355 100.660741 C 312.733528 79.943709 307.864998 58.787044 293.308258 43.090514 C 282.594236 31.535219 267.744407 23.610968 251.814491 21.933849 Q 232.161263 19.860518 214.923303 28.490353 Q 205.376209 33.266614 198.309513 40.550412 Q 178.260073 61.218595 179.687523 89.865306 Q 180.192287 100.079991 185.093382 111.152232 Q 185.207361 111.396473 185.473312 111.35848 Q 187.302403 111.092529 188.295648 109.97445 Z M 296.993577 120.547355 Q 286.561789 115.955631 275.06077 113.52408 Q 264.932926 111.385618 257.155219 110.604048 Q 226.598004 107.532044 197.392254 117.936694 Q 175.915363 125.584139 156.197004 140.933305 Q 151.578142 144.526356 147.523748 148.879266 C 147.344638 149.074659 147.480328 149.389458 147.746278 149.389458 L 342.167236 149.389458 C 342.362629 149.389458 342.487463 149.177783 342.389766 149.0041 Q 342.210657 148.694729 341.955561 148.445061 Q 338.525337 145.117961 334.280978 142.007964 Q 317.048446 129.372582 296.993577 120.547355 Z" style="fill:#2a2829;"/>
		<path d="M 299.571673 110.430366 L 296.597365 94.646994 L 296.22829 91.108219 Q 296.412827 88.416145 295.191624 86.451365 Q 295.072218 85.0999 294.605447 84.101227 C 294.410054 83.683305 293.986704 83.411926 293.525361 83.411926 L 271.896497 83.428209 C 271.597981 83.428209 271.348313 83.194823 271.321175 82.896307 Q 270.941245 77.658703 270.72957 72.393961 Q 270.664439 70.733124 270.273654 68.876896 C 269.828593 66.770999 267.820393 67.107508 266.458073 66.624454 Q 266.691458 64.751943 266.572052 62.960845 Q 266.137846 56.377204 265.529958 49.522184 Q 265.426835 48.322691 265.502821 46.965799 Q 265.519103 46.661855 265.795909 46.531593 Q 266.371232 46.265642 267.038823 46.222222 C 267.521876 46.189656 267.771545 45.630617 267.473028 45.250687 Q 266.686031 44.252014 265.367131 44.246586 Q 245.008319 44.203166 221.94115 44.230304 Q 220.681954 44.235731 219.943804 45.169273 C 219.650716 45.543776 219.79726 46.102815 220.242321 46.276497 Q 220.75794 46.477317 221.387538 46.477317 C 221.751185 46.47189 222.038846 46.786689 222.006281 47.144908 L 220.372582 66.4562 Q 219.580157 66.998957 218.076721 67.243197 C 217.202882 67.389742 216.502726 67.851085 216.421312 68.719496 Q 215.802569 75.748198 215.167543 82.923445 C 215.124123 83.411926 214.695345 83.764718 214.206864 83.71587 C 211.389955 83.417354 208.659888 83.216534 205.729001 83.270809 Q 200.730209 83.35765 195.910528 83.417354 Q 194.846724 83.428209 193.712362 83.487912 Q 191.894127 83.580181 191.915837 86.288538 Q 190.879171 88.285883 191.052853 91.184205 L 190.510096 94.836959 L 188.295648 109.97445 Q 187.302403 111.092529 185.473312 111.35848 Q 185.207361 111.396473 185.093382 111.152232 Q 180.192287 100.079991 179.687523 89.865306 Q 178.260073 61.218595 198.309513 40.550412 Q 205.376209 33.266614 214.923303 28.490353 Q 232.161263 19.860518 251.814491 21.933849 C 267.744407 23.610968 282.594236 31.535219 293.308258 43.090514 C 307.864998 58.787044 312.733528 79.943709 307.97355 100.660741 Q 306.730636 106.072028 304.342506 112.232319 C 304.282803 112.384291 304.119976 112.465704 303.962576 112.427711 Q 301.400763 111.819823 299.571673 110.430366 Z M 202.884954 76.149838 Q 202.152232 78.869051 201.79944 81.946482 Q 201.761447 82.304702 202.119667 82.304702 L 209.729119 82.348123 Q 210.402138 82.35355 210.559537 81.696814 Q 211.17828 79.02645 211.151142 76.128128 Q 211.13486 74.782091 209.805105 74.640974 Q 207.205299 74.369596 204.567501 74.722388 Q 203.226891 74.901498 202.884954 76.149838 Z M 284.423327 82.082172 C 284.477603 80.421335 284.374479 74.928635 282.0949 74.640974 Q 279.885879 74.364168 276.98213 74.760381 Q 275.874905 74.912353 275.885761 75.970729 Q 275.907471 78.923326 276.211415 81.468856 C 276.26569 81.908489 276.634765 82.239571 277.074398 82.250426 L 284.1031 82.380688 Q 284.412472 82.386116 284.423327 82.082172 Z" style="fill:#ffffff;"/>
		<path d="M 266.458073 66.624454 C 265.540814 66.738433 264.574706 66.347648 264.49872 65.348976 Q 263.765998 55.769316 263.054987 47.020074 C 263.038704 46.824682 262.881305 46.678138 262.685912 46.678138 L 244.617534 46.683565 C 244.395004 46.683565 244.210466 46.868102 244.210466 47.090633 L 244.215894 56.415197 Q 244.215894 56.69743 244.503555 56.69743 Q 250.457599 56.69743 255.662638 56.659437 C 256.769862 56.65401 258.484974 56.3175 258.674938 57.956626 Q 258.919179 60.035385 258.734642 61.897042 C 258.718359 62.065296 258.58267 62.19013 258.414415 62.19013 L 229.051266 62.054441 Q 228.025455 62.049014 228.009172 61.023203 Q 227.976607 59.37865 228.275123 57.983764 Q 228.579067 56.583451 230.006518 56.583451 L 243.005546 56.572596 C 243.157518 56.567169 243.276925 56.447762 243.276925 56.301218 L 243.271497 47.085205 C 243.271497 46.862675 243.08696 46.678138 242.859002 46.678138 L 225.197691 46.67271 Q 224.497535 46.67271 224.437832 47.372866 L 222.842126 66.05456 Q 222.820416 66.287945 222.587031 66.304228 L 220.372582 66.4562 L 222.006281 47.144908 C 222.038846 46.786689 221.751185 46.47189 221.387538 46.477317 Q 220.75794 46.477317 220.242321 46.276497 C 219.79726 46.102815 219.650716 45.543776 219.943804 45.169273 Q 220.681954 44.235731 221.94115 44.230304 Q 245.008319 44.203166 265.367131 44.246586 Q 266.686031 44.252014 267.473028 45.250687 C 267.771545 45.630617 267.521876 46.189656 267.038823 46.222222 Q 266.371232 46.265642 265.795909 46.531593 Q 265.519103 46.661855 265.502821 46.965799 Q 265.426835 48.322691 265.529958 49.522184 Q 266.137846 56.377204 266.572052 62.960845 Q 266.691458 64.751943 266.458073 66.624454 Z" style="fill:#000000;"/>
		<path d="M 266.458073 66.624454 C 267.820393 67.107508 269.828593 66.770999 270.273654 68.876896 Q 270.664439 70.733124 270.72957 72.393961 Q 270.941245 77.658703 271.321175 82.896307 C 271.348313 83.194823 271.597981 83.428209 271.896497 83.428209 L 293.525361 83.411926 C 293.986704 83.411926 294.410054 83.683305 294.605447 84.101227 Q 295.072218 85.0999 295.191624 86.451365 L 273.030859 86.64133 Q 272.281855 86.646757 272.29271 87.401189 L 272.33613 90.402635 Q 272.346985 91.189633 273.133983 91.184205 L 296.22829 91.108219 L 296.597365 94.646994 Q 295.365307 94.934656 294.68686 94.940083 Q 283.940273 95.010642 273.161121 94.864097 Q 272.878887 94.85867 272.889742 95.140903 L 273.285955 102.582101 Q 271.185486 103.070582 269.475801 102.120757 L 267.283063 75.585371 Q 267.20165 74.597554 266.213832 74.597554 L 220.437713 74.651829 C 220.041501 74.651829 219.710419 74.955773 219.677854 75.346558 L 217.371137 102.066482 Q 216.008817 102.788348 213.696672 102.804631 L 214.109167 95.330868 C 214.120023 95.146331 213.973478 94.994359 213.788941 94.994359 L 190.510096 94.836959 L 191.052853 91.184205 L 213.582693 91.205916 Q 214.413111 91.211343 214.445677 90.380925 L 214.559656 87.455465 Q 214.586794 86.706461 213.837789 86.695605 L 191.915837 86.288538 Q 191.894127 83.580181 193.712362 83.487912 Q 194.846724 83.428209 195.910528 83.417354 Q 200.730209 83.35765 205.729001 83.270809 C 208.659888 83.216534 211.389955 83.417354 214.206864 83.71587 C 214.695345 83.764718 215.124123 83.411926 215.167543 82.923445 Q 215.802569 75.748198 216.421312 68.719496 C 216.502726 67.851085 217.202882 67.389742 218.076721 67.243197 Q 219.580157 66.998957 220.372582 66.4562 L 222.587031 66.304228 Q 222.820416 66.287945 222.842126 66.05456 L 224.437832 47.372866 Q 224.497535 46.67271 225.197691 46.67271 L 242.859002 46.678138 C 243.08696 46.678138 243.271497 46.862675 243.271497 47.085205 L 243.276925 56.301218 C 243.276925 56.447762 243.157518 56.567169 243.005546 56.572596 L 230.006518 56.583451 Q 228.579067 56.583451 228.275123 57.983764 Q 227.976607 59.37865 228.009172 61.023203 Q 228.025455 62.049014 229.051266 62.054441 L 258.414415 62.19013 C 258.58267 62.19013 258.718359 62.065296 258.734642 61.897042 Q 258.919179 60.035385 258.674938 57.956626 C 258.484974 56.3175 256.769862 56.65401 255.662638 56.659437 Q 250.457599 56.69743 244.503555 56.69743 Q 244.215894 56.69743 244.215894 56.415197 L 244.210466 47.090633 C 244.210466 46.868102 244.395004 46.683565 244.617534 46.683565 L 262.685912 46.678138 C 262.881305 46.678138 263.038704 46.824682 263.054987 47.020074 Q 263.765998 55.769316 264.49872 65.348976 C 264.574706 66.347648 265.540814 66.738433 266.458073 66.624454 Z M 259.53244 66.215161 C 259.537922 65.332693 258.821483 64.610826 257.939666 64.60567 L 228.826619 64.45321 C 227.944041 64.447999 227.222175 65.159011 227.217127 66.045984 L 227.205946 68.173537 C 227.200464 69.056005 227.916904 69.777872 228.798721 69.783028 L 257.911768 69.935489 C 258.794345 69.940699 259.516212 69.229688 259.521259 68.342714 L 259.53244 66.215161 Z" style="fill:#ffc426;"/>
		<path d="M 259.521259 68.342714 C 259.516212 69.229688 258.794345 69.940699 257.911768 69.935489 L 228.798721 69.783028 C 227.916904 69.777872 227.200464 69.056005 227.205946 68.173537 L 227.217127 66.045984 C 227.222175 65.159011 227.944041 64.447999 228.826619 64.45321 L 257.939666 64.60567 C 258.821483 64.610826 259.537922 65.332693 259.53244 66.215161 L 259.521259 68.342714 Z" style="fill:#000000;"/>
		<path d="M 202.884954 76.149838 Q 203.226891 74.901498 204.567501 74.722388 Q 207.205299 74.369596 209.805105 74.640974 Q 211.13486 74.782091 211.151142 76.128128 Q 211.17828 79.02645 210.559537 81.696814 Q 210.402138 82.35355 209.729119 82.348123 L 202.119667 82.304702 Q 201.761447 82.304702 201.79944 81.946482 Q 202.152232 78.869051 202.884954 76.149838 Z" style="fill:#000000;"/>
		<path d="M 269.475801 102.120757 Q 260.900242 100.416501 257.513439 100.139694 Q 244.020502 99.043325 230.511282 100.031143 Q 223.862509 100.514197 217.371137 102.066482 L 219.677854 75.346558 C 219.710419 74.955773 220.041501 74.651829 220.437713 74.651829 L 266.213832 74.597554 Q 267.20165 74.597554 267.283063 75.585371 L 269.475801 102.120757 Z" style="fill:#000000;"/>
		<path d="M 282.0949 74.640974 C 284.374479 74.928635 284.477603 80.421335 284.423327 82.082172 Q 284.412472 82.386116 284.1031 82.380688 L 277.074398 82.250426 C 276.634765 82.239571 276.26569 81.908489 276.211415 81.468856 Q 275.907471 78.923326 275.885761 75.970729 Q 275.874905 74.912353 276.98213 74.760381 Q 279.885879 74.364168 282.0949 74.640974 Z" style="fill:#000000;"/>
		<path d="M 191.915837 86.288538 L 213.837789 86.695605 Q 214.586794 86.706461 214.559656 87.455465 L 214.445677 90.380925 Q 214.413111 91.211343 213.582693 91.205916 L 191.052853 91.184205 Q 190.879171 88.285883 191.915837 86.288538 Z" style="fill:#000000;"/>
		<path d="M 295.191624 86.451365 Q 296.412827 88.416145 296.22829 91.108219 L 273.133983 91.184205 Q 272.346985 91.189633 272.33613 90.402635 L 272.29271 87.401189 Q 272.281855 86.646757 273.030859 86.64133 L 295.191624 86.451365 Z" style="fill:#000000;"/>
		<path d="M 213.696672 102.804631 Q 204.138723 104.72599 199.167069 106.419392 Q 193.989168 108.18878 188.295648 109.97445 L 190.510096 94.836959 L 213.788941 94.994359 C 213.973478 94.994359 214.120023 95.146331 214.109167 95.330868 L 213.696672 102.804631 Z" style="fill:#000000;"/>
		<path d="M 296.597365 94.646994 L 299.571673 110.430366 Q 293.574209 108.302759 287.750427 106.261993 Q 283.364951 104.72599 273.285955 102.582101 L 272.889742 95.140903 Q 272.878887 94.85867 273.161121 94.864097 Q 283.940273 95.010642 294.68686 94.940083 Q 295.365307 94.934656 296.597365 94.646994 Z" style="fill:#000000;"/>
		<path d="M 296.993577 120.547355 Q 317.048446 129.372582 334.280978 142.007964 Q 338.525337 145.117961 341.955561 148.445061 Q 342.210657 148.694729 342.389766 149.0041 C 342.487463 149.177783 342.362629 149.389458 342.167236 149.389458 L 147.746278 149.389458 C 147.480328 149.389458 147.344638 149.074659 147.523748 148.879266 Q 151.578142 144.526356 156.197004 140.933305 Q 175.915363 125.584139 197.392254 117.936694 Q 226.598004 107.532044 257.155219 110.604048 Q 264.932926 111.385618 275.06077 113.52408 Q 286.561789 115.955631 296.993577 120.547355 Z" style="fill:#ffffff;"/>
	</g>
	<g id="surface4">
	</g>
</svg>
