<?xml version="1.0" encoding="utf-8"?>
<svg xmlns="http://www.w3.org/2000/svg" width="490pt" height="280pt" viewBox="0 0 490 280" version="1.1" xmlns:xlink="http://www.w3.org/1999/xlink">
	<g id="surface2">
		<path d="M 239.152533 12.833799 C 239.771867 15.309595 238.167568 17.841962 235.578025 18.488158 C 232.986244 19.133795 230.383922 17.650752 229.767387 15.173743 C 229.148053 12.697946 230.752351 10.16558 233.341894 9.519384 C 235.933676 8.873747 238.535997 10.35679 239.152533 12.833799 Z" style="fill:#9aa244;"/>
		<path d="M 260.311084 15.521931 C 259.583087 18.098463 256.868838 19.590833 254.251733 18.847959 C 251.636213 18.10779 250.106533 15.416859 250.833598 12.840048 C 251.561595 10.263517 254.275844 8.771146 256.892949 9.51402 C 259.508468 10.25419 261.038148 12.94512 260.311084 15.521931 Z" style="fill:#9aa244;"/>
		<path d="M 248.84035 13.170328 C 248.963937 15.262958 247.28502 17.063131 245.084799 17.191708 C 242.88719 17.324295 241.003072 15.733988 240.879485 13.643317 C 240.755898 11.550687 242.434815 9.750514 244.635036 9.621937 C 246.832645 9.48935 248.716763 11.079657 248.84035 13.170328 Z" style="fill:#9aa244;"/>
		<path d="M 223.585241 19.080629 C 221.756155 18.494874 220.758132 16.494164 221.361189 14.606269 C 221.961356 12.721265 223.934083 11.662614 225.765968 12.247437 C 227.595055 12.833193 228.593078 14.833902 227.99002 16.721797 C 227.389854 18.606801 225.417126 19.665452 223.585241 19.080629 Z" style="fill:#9aa244;"/>
		<path d="M 268.882421 16.013807 C 268.882421 18.009853 267.264132 19.628143 265.268086 19.628143 C 263.27204 19.628143 261.653751 18.009853 261.653751 16.013807 C 261.653751 14.017762 263.27204 12.399472 265.268086 12.399472 C 267.264132 12.399472 268.882421 14.017762 268.882421 16.013807 Z" style="fill:#9aa244;"/>
		<path d="M 220.099483 17.849563 C 221.480999 19.315678 221.359744 21.680152 219.820736 23.12985 C 218.281729 24.576284 215.917254 24.562293 214.533221 23.094966 C 213.151705 21.628852 213.27296 19.264377 214.811967 17.814679 C 216.350975 16.368245 218.715449 16.382236 220.099483 17.849563 Z" style="fill:#9aa244;"/>
		<path d="M 276.265645 22.661013 C 275.238988 24.431711 272.827876 24.949377 270.882198 23.820445 C 268.933722 22.692166 268.187536 20.341682 269.212888 18.572663 C 270.239546 16.801966 272.650657 16.2843 274.596335 17.413231 C 276.544812 18.54151 277.290997 20.891994 276.265645 22.661013 Z" style="fill:#9aa244;"/>
		<path d="M 234.861454 24.879142 C 234.585879 27.477079 232.188758 29.356534 229.517135 29.068553 C 226.844206 28.782904 224.89946 26.441747 225.17886 23.84437 C 225.454436 21.246432 227.851556 19.366978 230.523179 19.654959 C 233.196108 19.940608 235.140854 22.281764 234.861454 24.879142 Z" style="fill:#9aa244;"/>
		<path d="M 264.494525 25.288145 C 264.284054 27.714926 261.994198 29.496444 259.385115 29.26979 C 256.775565 29.039405 254.830819 26.889459 255.044741 24.461371 C 255.255212 22.03459 257.545068 20.253073 260.154152 20.479727 C 262.763702 20.710111 264.708447 22.860058 264.494525 25.288145 Z" style="fill:#9aa244;"/>
		<path d="M 253.750902 25.387481 C 253.375758 27.463089 251.309757 28.82954 249.136352 28.438073 C 246.963228 28.046046 245.498839 26.045336 245.874543 23.970288 C 246.249688 21.894681 248.315688 20.528229 250.489093 20.919696 C 252.662218 21.311723 254.126607 23.312433 253.750902 25.387481 Z" style="fill:#9aa244;"/>
		<path d="M 243.413064 26.454432 C 242.574725 28.218601 240.387469 28.932141 238.530727 28.04945 C 236.670534 27.164614 235.845066 25.019332 236.68098 23.257775 C 237.51932 21.493606 239.706575 20.780066 241.563318 21.662757 C 243.423511 22.547593 244.248978 24.692875 243.413064 26.454432 Z" style="fill:#9aa244;"/>
		<path d="M 285.466297 28.27214 C 285.27518 30.764959 282.989988 32.616431 280.362389 32.416546 C 277.734045 32.215356 275.761317 30.032764 275.952621 27.540132 C 276.143737 25.047314 278.42893 23.195841 281.056528 23.395726 C 283.684873 23.596916 285.6576 25.779508 285.466297 28.27214 Z" style="fill:#9aa244;"/>
		<path d="M 214.199862 26.132547 C 215.296988 28.391156 214.289638 31.138051 211.955197 32.272113 C 209.621316 33.404589 206.837112 32.495176 205.742318 30.239364 C 204.645192 27.980755 205.652543 25.23386 207.986983 24.099798 C 210.320865 22.967322 213.105069 23.876735 214.199862 26.132547 Z" style="fill:#9aa244;"/>
		<path d="M 223.719881 30.622577 C 223.12727 32.644413 220.97266 33.791673 218.91151 33.184091 C 216.849986 32.579122 215.660753 30.44783 216.257375 28.426274 C 216.849986 26.404438 219.004596 25.257178 221.065747 25.86476 C 223.12727 26.469729 224.316503 28.601021 223.719881 30.622577 Z" style="fill:#9aa244;"/>
		<path d="M 269.267873 32.889348 C 267.390051 32.313293 266.350055 30.289265 266.940894 28.367558 C 267.52996 26.446411 269.53067 25.359779 271.407093 25.935647 C 273.284915 26.511702 274.324911 28.53573 273.734072 30.457437 C 273.145005 32.378584 271.144296 33.465217 269.267873 32.889348 Z" style="fill:#9aa244;"/>
		<path d="M 248.356122 35.618894 C 247.261702 37.43399 244.822608 37.974974 242.916944 36.825662 C 241.007736 35.675791 240.35016 33.269343 241.447659 31.451449 C 242.54208 29.636353 244.981173 29.095369 246.886837 30.244681 C 248.796045 31.394552 249.453621 33.801 248.356122 35.618894 Z" style="fill:#9aa244;"/>
		<path d="M 251.006619 42.797197 C 250.409671 36.66915 257.386504 33.129433 261.854288 30.816259 C 261.984871 30.750968 262.138772 30.853568 262.124781 30.998141 C 261.793661 34.407276 260.166044 39.938374 256.892156 41.752537 Q 254.336471 43.17029 251.393703 43.156299 C 251.193166 43.151635 251.025274 42.997734 251.006619 42.797197 Z" style="fill:#9aa244;"/>
		<path d="M 236.384092 39.147185 C 235.131527 41.388772 232.21674 42.144285 229.873718 40.835196 C 227.529764 39.527972 226.648332 36.645832 227.900151 34.405643 C 229.152717 32.164056 232.067503 31.408543 234.410525 32.717632 C 236.75448 34.024856 237.635911 36.906996 236.384092 39.147185 Z" style="fill:#9aa244;"/>
		<path d="M 291.328609 37.793092 C 291.328609 40.362767 289.248617 42.442759 286.678941 42.442759 C 284.109266 42.442759 282.029274 40.362767 282.029274 37.793092 C 282.029274 35.223416 284.109266 33.143424 286.678941 33.143424 C 289.248617 33.143424 291.328609 35.223416 291.328609 37.793092 Z" style="fill:#9aa244;"/>
		<path d="M 208.725893 37.895692 C 208.725893 40.498013 206.613256 42.610651 204.010935 42.610651 C 201.408614 42.610651 199.295976 40.498013 199.295976 37.895692 C 199.295976 35.293371 201.408614 33.180734 204.010935 33.180734 C 206.613256 33.180734 208.725893 35.293371 208.725893 37.895692 Z" style="fill:#9aa244;"/>
		<path d="M 279.819959 37.590735 C 280.117174 40.232185 278.116465 42.624642 275.351102 42.935101 C 272.585366 43.244908 270.1043 41.356126 269.80923 38.713651 C 269.512015 36.072202 271.512725 33.679745 274.278087 33.369285 C 277.043823 33.059478 279.52489 34.94826 279.819959 37.590735 Z" style="fill:#9aa244;"/>
		<path d="M 219.93952 39.548726 C 219.58289 41.967066 217.265052 43.627328 214.762393 43.25806 C 212.260946 42.89047 210.521402 40.628596 210.878312 38.210722 C 211.234942 35.792382 213.55278 34.13212 216.055439 34.501388 C 218.556885 34.868978 220.29643 37.130852 219.93952 39.548726 Z" style="fill:#9aa244;"/>
		<path d="M 241.101009 152.519085 C 241.245583 152.519085 241.366838 152.402493 241.366838 152.25792 L 242.033741 84.723485 C 242.038404 84.401692 241.851858 84.103218 241.558048 83.967972 C 235.220136 81.02054 229.29729 77.546115 223.962065 72.980393 Q 223.836146 72.873129 223.780182 72.714565 C 223.719555 72.528018 223.859465 72.341472 224.055338 72.346136 Q 226.606359 72.430081 229.176035 73.535368 Q 235.695829 76.342891 242.168987 79.141086 C 242.21096 79.15974 242.257596 79.131758 242.257596 79.085122 L 242.719299 39.25748 C 242.723962 39.056943 242.891854 38.893715 243.092391 38.898379 L 246.8 39.005643 C 247.014528 39.010306 247.187083 39.178198 247.201074 39.392726 Q 247.294347 41.043661 247.317666 42.59666 Q 247.560176 60.784927 247.499548 78.460192 Q 247.499548 79.267005 248.236406 78.940548 Q 255.41844 75.736615 262.469891 73.017702 Q 263.943607 72.448736 265.687815 72.178244 C 265.907007 72.145598 266.070235 72.36479 265.981626 72.565328 C 265.22145 74.234917 262.148099 76.161008 260.459855 77.205668 Q 254.434408 80.941258 248.105824 84.089227 C 247.849323 84.21981 247.686095 84.480974 247.690758 84.765458 Q 247.826004 118.278506 248.436944 152.113347 Q 248.446271 152.509758 248.842682 152.509758 Q 260.338599 152.547067 271.601334 152.519085 C 274.572084 152.509758 274.404193 157.313326 271.713262 157.299335 Q 243.507457 157.154761 218.076528 157.327317 C 214.858604 157.345971 215.054478 152.542403 217.857336 152.547067 Q 228.96617 152.561058 241.101009 152.519085 Z" style="fill:#592919;"/>
		<path d="M 268.194159 45.276911 C 267.329423 47.013144 265.160822 47.689374 263.346706 46.784112 C 261.53716 45.879875 260.767656 43.739256 261.633138 42.005727 C 262.497873 40.269494 264.666474 39.593264 266.480591 40.498526 C 268.290137 41.402763 269.05964 43.543382 268.194159 45.276911 Z" style="fill:#9aa244;"/>
		<path d="M 228.378549 43.967775 C 228.378549 45.642028 227.021425 46.999153 225.347171 46.999153 C 223.672918 46.999153 222.315794 45.642028 222.315794 43.967775 C 222.315794 42.293522 223.672918 40.936397 225.347171 40.936397 C 227.021425 40.936397 228.378549 42.293522 228.378549 43.967775 Z" style="fill:#9aa244;"/>
		<path d="M 240.303524 47.86193 C 240.303524 50.492233 238.172232 52.623525 235.541928 52.623525 C 232.911625 52.623525 230.780333 50.492233 230.780333 47.86193 C 230.780333 45.231626 232.911625 43.100335 235.541928 43.100335 C 238.172232 43.100335 240.303524 45.231626 240.303524 47.86193 Z" style="fill:#9aa244;"/>
		<path d="M 201.415376 49.538142 C 199.864943 50.370978 197.901543 49.732057 197.027713 48.108171 C 196.152671 46.486151 196.698319 44.490105 198.249218 43.658015 C 199.799652 42.825179 201.763052 43.4641 202.636881 45.087986 C 203.511923 46.710006 202.966275 48.706052 201.415376 49.538142 Z" style="fill:#9aa244;"/>
		<path d="M 293.388873 47.138596 C 293.282681 48.724707 291.911566 49.92793 290.322051 49.823418 L 289.605434 49.775802 C 288.017411 49.671429 286.814187 48.29565 286.920612 46.70898 L 286.964497 46.048233 C 287.070689 44.462123 288.441804 43.258899 290.031319 43.363412 L 290.747937 43.411028 C 292.335959 43.5154 293.539183 44.891179 293.432758 46.477849 L 293.388873 47.138596 Z" style="fill:#9aa244;"/>
		<path d="M 221.30793 47.851437 C 221.336425 49.289009 220.133202 50.482906 218.625581 50.510421 C 217.115815 50.53887 215.870618 49.396273 215.843149 47.956369 C 215.814654 46.518796 217.017878 45.3249 218.525499 45.297384 C 220.035265 45.268936 221.280461 46.411532 221.30793 47.851437 Z" style="fill:#9aa244;"/>
		<path d="M 260.5438 50.114477 C 260.5438 52.740116 258.417172 54.866744 255.791533 54.866744 C 253.165893 54.866744 251.039265 52.740116 251.039265 50.114477 C 251.039265 47.488837 253.165893 45.362209 255.791533 45.362209 C 258.417172 45.362209 260.5438 47.488837 260.5438 50.114477 Z" style="fill:#9aa244;"/>
		<path d="M 273.742606 47.151701 C 274.282938 48.39825 273.639353 49.87663 272.306199 50.456276 C 270.97174 51.037881 269.451388 50.496897 268.90975 49.253052 C 268.369419 48.006503 269.013004 46.528123 270.346157 45.948477 C 271.680616 45.366873 273.200969 45.907857 273.742606 47.151701 Z" style="fill:#9aa244;"/>
		<path d="M 285.343876 51.291118 C 284.860115 53.75213 282.360394 55.328447 279.75658 54.819175 C 277.151087 54.307105 275.434861 51.900658 275.916477 49.441511 C 276.400239 46.980498 278.899959 45.404182 281.503773 45.913453 C 284.109266 46.425523 285.825492 48.831971 285.343876 51.291118 Z" style="fill:#9aa244;"/>
		<path d="M 213.825884 50.377973 C 214.364256 52.852044 212.722649 55.314456 210.151201 55.876007 C 207.583297 56.438397 205.060258 54.880735 204.521326 52.406665 C 203.982953 49.932594 205.624561 47.470182 208.196009 46.908631 C 210.763912 46.346241 213.286951 47.903903 213.825884 50.377973 Z" style="fill:#9aa244;"/>
		<path d="M 234.292068 63.321957 C 228.91487 62.692363 228.033439 54.79679 228.052093 50.478242 Q 228.056757 49.932594 228.350567 50.389633 C 229.115407 51.588193 229.884911 52.79608 230.934234 53.747466 C 234.12884 56.643598 237.631247 59.432466 238.773844 63.806977 C 238.82048 63.993524 238.652589 64.161415 238.466042 64.114779 Q 236.325423 63.564467 234.292068 63.321957 Z" style="fill:#9aa244;"/>
		<path d="M 202.434618 54.41437 C 202.434618 56.326469 200.886284 57.874804 198.974184 57.874804 C 197.062084 57.874804 195.51375 56.326469 195.51375 54.41437 C 195.51375 52.50227 197.062084 50.953935 198.974184 50.953935 C 200.886284 50.953935 202.434618 52.50227 202.434618 54.41437 Z" style="fill:#9aa244;"/>
		<path d="M 293.920623 56.660481 C 292.820979 58.271215 290.568432 58.653635 288.888816 57.507214 C 287.210598 56.363779 286.739569 54.125223 287.841172 52.513369 C 288.940816 50.902635 291.193363 50.520215 292.872979 51.666635 C 294.551196 52.810071 295.022226 55.048627 293.920623 56.660481 Z" style="fill:#9aa244;"/>
		<path d="M 262.451237 52.269087 Q 261.966216 56.802163 260.254654 60.49578 Q 259.177349 62.813618 256.990093 63.070119 Q 254.569654 63.349939 252.144552 63.331284 C 251.818096 63.331284 251.589577 63.014155 251.687513 62.70169 C 253.282484 57.641621 259.699678 56.755526 261.88227 52.110522 Q 262.642447 50.496897 262.451237 52.269087 Z" style="fill:#9aa244;"/>
		<path d="M 223.422946 56.80095 C 223.845474 59.367175 222.049965 61.796941 219.420688 62.229355 C 216.789359 62.659717 214.31762 60.9295 213.896025 58.361037 C 213.473498 55.794812 215.269006 53.365047 217.898283 52.932632 C 220.529613 52.50227 223.001351 54.232487 223.422946 56.80095 Z" style="fill:#9aa244;"/>
		<path d="M 274.437118 61.323579 C 272.431465 62.911555 269.474706 62.529135 267.837809 60.460429 C 266.200818 58.39247 266.499292 55.426383 268.504385 53.838408 C 270.510038 52.250432 273.466797 52.632852 275.103695 54.701558 C 276.740686 56.769517 276.442211 59.735604 274.437118 61.323579 Z" style="fill:#9aa244;"/>
		<path d="M 198.353498 67.408021 C 196.227289 67.118175 194.739582 65.126793 195.036751 62.961969 C 195.331867 60.798918 197.299931 59.278565 199.426979 59.571676 C 201.553187 59.861522 203.040894 61.852905 202.743726 64.017728 C 202.448609 66.180779 200.480546 67.701132 198.353498 67.408021 Z" style="fill:#9aa244;"/>
		<path d="M 294.344503 66.000296 C 293.058826 67.766423 290.563769 68.134852 288.769939 66.829867 C 286.977415 65.523204 286.567014 63.03281 287.855676 61.268548 C 289.141353 59.502421 291.63641 59.133992 293.43024 60.438977 C 295.222763 61.74564 295.633165 64.236034 294.344503 66.000296 Z" style="fill:#9aa244;"/>
		<path d="M 285.610964 63.321957 C 285.610964 65.271366 284.029983 66.852346 282.080574 66.852346 C 280.131165 66.852346 278.550185 65.271366 278.550185 63.321957 C 278.550185 61.372548 280.131165 59.791568 282.080574 59.791568 C 284.029983 59.791568 285.610964 61.372548 285.610964 63.321957 Z" style="fill:#9aa244;"/>
		<path d="M 210.689294 63.648413 C 210.689294 65.42993 209.24356 66.875664 207.462042 66.875664 C 205.680525 66.875664 204.234791 65.42993 204.234791 63.648413 C 204.234791 61.866896 205.680525 60.421161 207.462042 60.421161 C 209.24356 60.421161 210.689294 61.866896 210.689294 63.648413 Z" style="fill:#9aa244;"/>
		<path d="M 227.618933 70.007544 C 225.990756 71.315467 223.556327 70.984347 222.179335 69.270686 C 220.800105 67.556559 221.000642 65.108138 222.627699 63.799749 C 224.255875 62.491826 226.690305 62.822945 228.067297 64.536607 C 229.446527 66.250734 229.24599 68.699155 227.618933 70.007544 Z" style="fill:#9aa244;"/>
		<path d="M 268.674002 64.659821 C 269.959726 66.218089 269.656589 68.591891 267.997819 69.961747 C 266.336064 71.329458 263.948271 71.175557 262.664319 69.613838 C 261.378595 68.05557 261.681733 65.681768 263.340503 64.311912 C 265.002258 62.944201 267.390051 63.098101 268.674002 64.659821 Z" style="fill:#9aa244;"/>
		<path d="M 259.644834 68.333244 C 260.5438 70.420045 259.489814 72.877793 257.292624 73.824842 C 255.096648 74.771238 252.582936 73.847834 251.686394 71.76066 C 250.787427 69.673859 251.841414 67.216112 254.038603 66.269062 C 256.23458 65.322666 258.748292 66.246071 259.644834 68.333244 Z" style="fill:#9aa244;"/>
		<path d="M 233.50391 73.903797 C 232.35665 73.479405 231.218717 72.681919 231.106789 71.348113 Q 230.747688 67.234766 234.963635 66.90831 C 239.897785 66.52589 239.939758 76.296254 233.50391 73.903797 Z" style="fill:#9aa244;"/>
		<path d="M 218.333029 71.30614 C 218.333029 73.493396 216.560839 75.265586 214.373584 75.265586 C 212.186328 75.265586 210.414138 73.493396 210.414138 71.30614 C 210.414138 69.118884 212.186328 67.346694 214.373584 67.346694 C 216.560839 67.346694 218.333029 69.118884 218.333029 71.30614 Z" style="fill:#9aa244;"/>
		<path d="M 291.555775 74.141364 C 290.857579 76.632038 288.171312 78.059117 285.559897 77.324637 C 282.948015 76.590065 281.39968 73.973752 282.100581 71.483639 C 282.798778 68.992965 285.485045 67.565886 288.09646 68.300365 C 290.708342 69.034938 292.256677 71.651251 291.555775 74.141364 Z" style="fill:#9aa244;"/>
		<path d="M 208.029796 71.581762 C 208.735221 74.076353 207.219532 76.688001 204.644773 77.415486 C 202.070853 78.143063 199.412568 76.715983 198.704904 74.22046 C 197.999479 71.725869 199.515168 69.11422 202.089927 68.386736 C 204.663847 67.659159 207.322132 69.086239 208.029796 71.581762 Z" style="fill:#9aa244;"/>
		<path d="M 279.189106 72.248199 C 279.189106 73.987743 277.780681 75.396168 276.041137 75.396168 C 274.301592 75.396168 272.893167 73.987743 272.893167 72.248199 C 272.893167 70.508654 274.301592 69.100229 276.041137 69.100229 C 277.780681 69.100229 279.189106 70.508654 279.189106 72.248199 Z" style="fill:#9aa244;"/>
		<path d="M 220.570233 80.264794 C 220.371048 82.177127 218.580203 83.55757 216.569794 83.347286 C 214.56013 83.137841 213.095741 81.412287 213.297631 79.500421 C 213.496816 77.588088 215.287661 76.207645 217.29807 76.417929 C 219.307734 76.627374 220.772123 78.352927 220.570233 80.264794 Z" style="fill:#9aa244;"/>
		<path d="M 276.027659 80.758629 C 275.532798 82.494256 273.616035 83.464297 271.74698 82.933666 C 269.875781 82.400983 268.761166 80.563501 269.255001 78.829367 C 269.749862 77.09374 271.666625 76.123699 273.53568 76.65433 C 275.406879 77.187013 276.521494 79.024494 276.027659 80.758629 Z" style="fill:#9aa244;"/>
		<path d="M 286.336629 83.515504 C 286.268539 86.024645 284.043974 88.002036 281.370672 87.925646 C 278.699422 87.852799 276.586785 85.754153 276.658605 83.245198 C 276.726695 80.736057 278.95126 78.758666 281.624562 78.835056 C 284.295812 78.907903 286.408449 81.006549 286.336629 83.515504 Z" style="fill:#9aa244;"/>
		<path d="M 212.269388 84.189169 C 212.046418 86.593612 209.83118 88.351811 207.319567 88.118581 C 204.80842 87.885445 202.952285 85.749489 203.177026 83.3457 C 203.399996 80.941258 205.615233 79.183059 208.126847 79.416288 C 210.637993 79.649424 212.494129 81.78538 212.269388 84.189169 Z" style="fill:#9aa244;"/>
		<path d="M 232.363879 84.098788 C 232.641133 86.509666 230.850288 88.696922 228.35649 88.984949 C 225.864838 89.275215 223.616954 87.554325 223.339233 85.142981 C 223.061979 82.732103 224.852824 80.544847 227.346622 80.256819 C 229.838274 79.966553 232.086158 81.687443 232.363879 84.098788 Z" style="fill:#9aa244;"/>
		<path d="M 265.789063 84.195792 C 266.247454 86.803476 264.4193 89.307861 261.698102 89.785326 C 258.976811 90.263911 256.402472 88.538357 255.942122 85.932072 C 255.483731 83.324387 257.311885 80.820003 260.033083 80.342537 C 262.754374 79.863953 265.328714 81.589506 265.789063 84.195792 Z" style="fill:#9aa244;"/>
		<path d="M 219.079541 93.452267 C 216.999223 94.582458 214.350265 93.738336 213.172645 91.565025 C 211.995118 89.391807 212.722649 86.714867 214.806977 85.583183 C 216.887295 84.452992 219.536253 85.297115 220.713874 87.470426 C 221.891401 89.643644 221.16387 92.320584 219.079541 93.452267 Z" style="fill:#9aa244;"/>
		<path d="M 276.724643 91.316965 C 275.793963 93.51448 273.21496 94.517167 270.963252 93.562936 C 268.71453 92.609731 267.646552 90.054046 268.576672 87.858396 C 269.507352 85.66088 272.086355 84.658193 274.338062 85.612425 C 276.586785 86.56563 277.654763 89.121314 276.724643 91.316965 Z" style="fill:#9aa244;"/>
		<path d="M 238.097613 91.261934 C 238.097613 93.318607 236.432687 94.983533 234.376014 94.983533 C 232.319341 94.983533 230.654415 93.318607 230.654415 91.261934 C 230.654415 89.20526 232.319341 87.540334 234.376014 87.540334 C 236.432687 87.540334 238.097613 89.20526 238.097613 91.261934 Z" style="fill:#9aa244;"/>
		<path d="M 228.396038 97.967388 C 227.361872 100.006293 224.829505 100.803778 222.745969 99.744755 C 220.660195 98.686478 219.806745 96.177429 220.843244 94.135633 C 221.87741 92.096728 224.409776 91.299243 226.493312 92.358266 C 228.579087 93.416544 229.432536 95.925592 228.396038 97.967388 Z" style="fill:#9aa244;"/>
		<path d="M 269.274169 96.084156 C 269.274169 98.150157 267.595252 99.829074 265.529251 99.829074 C 263.46325 99.829074 261.784334 98.150157 261.784334 96.084156 C 261.784334 94.018156 263.46325 92.339239 265.529251 92.339239 C 267.595252 92.339239 269.274169 94.018156 269.274169 96.084156 Z" style="fill:#9aa244;"/>
		<path d="M 260.649106 97.505593 C 260.856266 99.810419 259.15403 101.848438 256.845799 102.054338 L 256.028213 102.127325 C 253.720868 102.333458 251.687513 100.631223 251.479514 98.323971 L 251.381671 97.227732 C 251.174511 94.922905 252.876746 92.884887 255.184977 92.678986 L 256.002563 92.606 C 258.309908 92.399866 260.343263 94.102101 260.551262 96.409353 L 260.649106 97.505593 Z" style="fill:#9aa244;"/>
		<path d="M 237.350961 100.545412 C 236.903717 102.417404 234.968298 103.56 233.027657 103.096713 C 231.088135 102.631932 229.87092 100.743151 230.319098 98.870226 C 230.766342 96.998233 232.701761 95.855637 234.642402 96.318925 C 236.581924 96.783705 237.799139 98.672487 237.350961 100.545412 Z" style="fill:#9aa244;"/>
	</g>
	<g id="surface4">
	</g>
</svg>
