<?xml version="1.0" encoding="utf-8"?>
<svg xmlns="http://www.w3.org/2000/svg" width="490pt" height="280pt" viewBox="0 0 490 280" version="1.1" xmlns:xlink="http://www.w3.org/1999/xlink">
	<g id="surface2">
		<path d="M 253.419339 47.785798 Q 253.173662 50.19412 253.810345 47.858463 Q 254.087163 46.848076 254.374362 45.841148 Q 255.737694 41.08333 255.512779 36.149039 C 255.38475 33.401616 254.152908 31.277033 253.13906 28.816809 Q 252.889923 28.211268 252.280922 28.072859 Q 252.132132 28.038257 252.024865 27.930989 C 251.014478 26.903301 251.062921 24.117814 251.273995 22.702579 Q 251.370881 22.038215 251.79649 21.481118 C 252.654627 20.353082 254.260175 17.844414 253.851867 16.398038 C 253.848407 16.384197 253.855328 16.370356 253.869169 16.366895 L 253.955674 16.349594 Q 253.997197 16.342674 254.007578 16.384197 Q 254.536993 18.276943 254.312078 20.117786 C 254.014498 22.55725 255.398591 24.598786 257.533554 25.726822 C 257.675423 25.802947 257.675423 26.007101 257.530094 26.083226 Q 255.606205 27.086693 253.568128 27.446557 C 253.405498 27.477699 253.312071 27.654171 253.381276 27.806421 C 254.889937 31.204369 259.820767 32.436211 262.979958 32.131711 Q 263.15989 32.114409 263.184112 32.290881 Q 263.412487 33.858366 263.782732 35.474294 Q 265.969599 45.034914 268.242971 54.505568 Q 268.360619 54.996921 268.571693 55.460592 C 269.13571 56.716656 267.547464 60.21841 266.973066 61.564441 Q 264.976512 66.242674 262.796566 71.11468 Q 262.651236 71.443402 262.305213 71.356896 Q 261.267144 71.100839 260.447069 71.464163 Q 260.30866 71.526447 260.274057 71.678697 Q 259.945335 73.06625 259.395158 74.394979 C 259.187545 74.893253 259.128721 75.547236 259.142562 76.090493 Q 259.232528 79.827543 258.163316 83.325837 Q 256.094098 90.08713 254.242874 96.903786 C 253.412418 99.966091 252.879542 103.218708 253.114838 106.350218 C 253.29823 108.855426 253.336293 111.242986 252.903764 113.710131 Q 252.080229 118.405665 250.716898 122.80708 Q 250.360494 123.955876 250.384715 125.066611 Q 250.467761 128.506081 250.682295 131.737937 C 250.696136 131.942091 250.561187 132.128943 250.360494 132.173926 L 245.066339 133.398848 C 244.955612 133.42307 244.848345 133.346945 244.834504 133.236218 Q 244.007509 126.333056 242.68224 118.865876 C 242.114762 115.654781 241.924449 112.412544 242.024796 109.166847 C 242.163205 104.685847 241.436557 100.017994 240.170112 95.77575 Q 238.232382 89.298197 236.720261 83.945218 Q 235.768697 80.571493 235.097412 77.39846 Q 234.509173 74.609514 234.682184 72.211573 Q 234.696025 72.045482 234.602599 71.903613 C 233.914013 70.882844 232.810199 70.96243 231.747908 71.190805 C 231.585277 71.225407 231.443408 71.080077 231.48147 70.920907 Q 231.765209 69.702905 232.208119 68.557569 Q 232.505699 67.789397 232.06971 67.097351 C 230.242707 64.201137 228.512591 61.183815 227.401857 57.879294 C 227.111198 57.010776 226.903584 56.246065 227.197703 55.336024 Q 228.429546 51.529769 229.474536 48.131821 Q 231.803272 40.571215 233.408819 32.356626 Q 233.450342 32.138631 233.664876 32.180154 C 234.851736 32.41545 235.792919 32.214756 236.924415 31.882574 C 239.720282 31.059039 241.976353 30.408515 244.159759 28.39466 Q 245.163226 27.467318 243.844878 27.820262 C 239.789486 28.910235 236.26351 25.792566 234.564537 22.245829 Q 234.32232 21.740635 234.720247 22.138562 C 235.914027 23.328881 237.827535 22.934415 238.910587 21.885965 Q 239.505747 21.311566 239.311974 20.526094 C 238.962491 19.097018 238.696053 17.429187 239.54727 16.166202 Q 240.862158 14.221552 241.796421 12.159254 C 243.076706 9.339165 245.66842 6.664406 249.024844 6.920463 C 249.70651 6.972367 250.15634 7.629811 249.844919 8.269954 Q 249.270521 9.446432 248.277434 10.121177 Q 246.654586 11.224991 245.22897 12.833999 Q 244.92793 13.176562 245.360459 13.328812 Q 246.474654 13.719818 247.249746 14.837473 C 247.353553 14.986263 247.291268 15.193877 247.125177 15.263082 Q 245.886414 15.785577 244.595748 16.263088 Q 243.934844 16.508765 243.87256 17.110845 C 243.706468 18.747535 244.792981 21.432675 246.41583 21.95863 C 247.730718 22.384238 249.225538 22.429221 250.561187 21.989772 Q 251.581956 21.654129 250.709977 22.280431 Q 250.087135 22.730261 249.318964 23.176631 C 248.184008 23.830615 246.959086 23.61262 245.948699 22.837529 Q 245.585374 22.56071 245.626897 23.01054 C 245.737624 24.332349 245.876034 26.657624 244.862186 27.63341 Q 244.751458 27.740677 244.706475 27.889467 C 244.526543 28.481166 244.118236 28.924076 243.834497 29.474253 C 242.606115 31.854892 241.685693 33.844525 241.737597 36.619631 Q 241.806801 40.367062 242.882933 44.495118 C 243.72377 47.726974 245.215129 50.145676 247.412376 52.557458 C 247.450439 52.59898 247.519644 52.58514 247.540405 52.533236 Q 247.61653 52.329082 247.540405 52.176832 Q 246.031744 49.093766 245.343158 45.820387 Q 245.267033 45.463983 245.453885 45.775404 L 248.668441 51.09724 C 248.734185 51.204507 248.886435 51.204507 248.95218 51.09724 Q 252.201337 45.633534 253.14944 39.339373 C 253.218645 38.879162 253.211725 38.370508 253.343213 37.931059 Q 253.419339 37.671541 253.478162 37.934519 Q 253.779203 39.342833 253.768822 40.903398 Q 253.751521 44.52626 253.419339 47.785798 Z M 244.547305 14.702524 L 246.218597 14.823632 C 246.239358 14.827092 246.260119 14.809791 246.26358 14.78557 L 246.26358 14.771729 C 246.287801 14.456848 245.934858 14.173109 245.474647 14.138506 L 245.381221 14.131586 C 244.92101 14.100444 244.533464 14.328819 244.509242 14.64716 L 244.509242 14.661001 C 244.509242 14.681763 244.526543 14.702524 244.547305 14.702524 Z M 259.578551 63.19767 C 260.543955 61.346446 261.523201 59.457159 262.374418 57.51597 Q 262.748123 56.668213 262.530128 55.993468 Q 260.969564 51.131842 259.706579 46.557416 Q 259.543948 45.972637 259.498965 46.578178 Q 259.260209 49.675085 258.886504 53.04189 Q 258.52664 56.304889 258.637368 58.187255 Q 258.786158 60.727064 259.381318 63.173448 Q 259.447062 63.450267 259.578551 63.19767 Z M 236.138942 47.848082 C 235.401913 50.785819 234.401906 53.664732 233.436501 56.554025 Q 233.280791 57.021156 233.505706 57.51943 Q 234.294638 59.280688 235.176998 60.903536 C 235.239282 61.014264 235.401913 60.996963 235.439975 60.879315 Q 237.090506 56.086894 236.692579 50.94499 Q 236.571471 49.380965 236.446903 47.872304 Q 236.367317 46.938042 236.138942 47.848082 Z M 243.654738 64.269546 C 243.671866 64.176915 243.609582 64.09041 243.516502 64.073627 L 238.572384 63.219608 C 238.481519 63.20459 238.391553 63.266874 238.376431 63.357844 L 238.374079 63.371477 C 238.35695 63.464108 238.419235 63.550613 238.512315 63.567396 L 243.456432 64.421415 C 243.547298 64.436433 243.637264 64.374149 243.652385 64.283179 L 243.654738 64.269546 Z M 239.834469 66.33956 Q 240.467692 66.374162 241.066312 66.33956 Q 241.298147 66.325719 241.370812 66.114645 Q 241.436557 65.934713 241.256624 65.868969 Q 239.657997 65.29457 238.017848 64.176915 Q 237.837916 64.055807 237.651063 64.166535 Q 235.990152 65.13886 234.540315 66.48489 C 234.260036 66.744407 234.225434 67.173476 234.453809 67.474516 Q 235.467657 68.824006 236.149323 70.194258 Q 236.246209 70.384571 236.336175 70.190798 Q 237.363864 68.069676 239.443463 66.460668 Q 239.616475 66.329179 239.834469 66.33956 Z M 261.21524 69.304979 Q 261.640849 68.339574 261.007626 67.491817 Q 260.114887 66.298037 258.986851 65.387996 C 258.924567 65.336093 258.831141 65.332633 258.761936 65.377616 L 256.519706 66.886277 C 256.336314 67.010845 256.388217 67.294584 256.602752 67.343027 C 258.049128 67.671749 259.325954 69.388024 259.86921 70.599105 Q 260.260216 71.474544 260.644302 70.599105 L 261.21524 69.304979 Z M 247.370854 94.782664 Q 249.249759 100.986859 248.934878 107.256799 Q 248.927958 107.402128 249.024844 107.519776 C 249.076748 107.5786 249.173634 107.550918 249.184015 107.474793 C 249.744573 103.775806 249.391629 100.090659 248.775708 96.433194 Q 247.962553 91.602711 247.118257 86.886415 Q 246.661506 84.336225 245.765306 81.962506 Q 245.706482 81.803335 245.637278 81.734131 Q 245.381221 81.471153 245.412363 81.841398 Q 245.623437 84.42273 245.848352 86.983302 Q 246.187454 90.872602 247.370854 94.782664 Z" style="fill:#000000;"/>
		<path d="M 250.793023 8.761306 C 250.768801 8.747465 250.75842 8.716323 250.772261 8.692102 L 250.831085 8.598676 C 250.869148 8.536391 250.945273 8.508709 251.014478 8.536391 Q 252.685769 9.224977 253.450481 10.785542 Q 253.575049 11.045059 253.391657 10.823604 Q 252.377809 9.609063 250.793023 8.761306 Z" style="fill:#000000;"/>
		<path d="M 253.140271 12.405276 C 252.98681 12.536419 252.336286 12.027765 251.686731 11.267656 C 251.035239 10.508723 250.633852 9.788995 250.784891 9.65716 C 250.938352 9.526018 251.588876 10.034672 252.238431 10.794781 C 252.889923 11.553713 253.29131 12.273441 253.140271 12.405276 Z" style="fill:#000000;"/>
		<path d="M 249.599243 14.013938 Q 249.464294 14.055461 249.467754 13.913591 L 249.474674 13.778642 Q 249.481595 13.588329 249.654607 13.508744 Q 251.675382 12.577942 252.305144 13.906671 Q 252.564661 14.456848 252.017945 14.18695 Q 250.869148 13.622932 249.599243 14.013938 Z" style="fill:#000000;"/>
		<path d="M 251.972962 15.657548 C 251.599257 17.062402 249.723811 16.058935 249.301663 15.200797 Q 249.215157 15.024326 249.41239 14.989723 Q 250.485062 14.799411 251.519671 14.962041 C 251.848393 15.010485 252.059467 15.335746 251.972962 15.657548 Z" style="fill:#000000;"/>
		<path d="M 248.294736 17.225033 C 248.294736 17.508772 248.06636 17.737147 247.782621 17.737147 C 247.498882 17.737147 247.270507 17.508772 247.270507 17.225033 C 247.270507 16.941294 247.498882 16.712919 247.782621 16.712919 C 248.06636 16.712919 248.294736 16.941294 248.294736 17.225033 Z" style="fill:#000000;"/>
		<path d="M 249.158098 19.443353 C 249.145952 19.71986 248.910657 19.934394 248.633285 19.920899 L 247.416633 19.863529 C 247.139018 19.851349 246.924484 19.616053 246.939121 19.338715 L 246.946941 19.172832 C 246.959086 18.896325 247.194382 18.68179 247.471754 18.695285 L 248.688406 18.752656 C 248.96602 18.764836 249.180555 19.000132 249.165918 19.277469 L 249.158098 19.443353 Z" style="fill:#000000;"/>
		<path d="M 258.031827 23.297739 C 260.550876 24.757957 262.201406 21.557243 260.256756 19.744081 C 260.246375 19.733701 260.246375 19.71986 260.256756 19.712939 L 260.31904 19.650655 Q 260.357103 19.612593 260.402086 19.643735 C 263.969585 22.325414 259.640835 27.349671 256.640814 23.737189 Q 255.242881 22.055516 255.163295 19.71986 Q 255.159835 19.605672 255.267102 19.57107 C 255.343227 19.546848 255.426273 19.595292 255.440114 19.674877 Q 255.914165 22.069357 258.031827 23.297739 Z" style="fill:#000000;"/>
		<path d="M 254.173669 28.488087 C 254.135606 28.398121 254.173669 28.294314 254.263635 28.252791 L 254.3363 28.218189 C 257.208292 26.910221 259.633914 26.065925 259.758483 26.332362 L 259.768863 26.360044 C 259.889972 26.626482 257.661582 27.903308 254.78959 29.214735 L 254.716925 29.249338 C 254.626959 29.2874 254.523152 29.249338 254.48163 29.159372 L 254.173669 28.488087 Z" style="fill:#000000;"/>
		<path d="M 247.782621 34.650759 Q 246.876041 35.328965 245.879494 36.194022 Q 245.561153 36.470841 245.197828 36.636932 C 245.107862 36.678455 245.007516 36.60233 245.021356 36.505443 Q 245.436584 33.799542 245.246271 31.218209 C 245.239351 31.128243 245.343158 31.07634 245.412363 31.131704 L 247.706496 32.982928 C 247.903729 33.142098 248.166707 33.197462 248.408923 33.135178 Q 250.540426 32.595382 251.931439 30.668033 Q 251.94528 30.650731 251.966041 30.661112 L 252.045627 30.709555 Q 252.062928 30.719936 252.052547 30.740697 Q 251.696143 31.629977 251.20479 32.387768 C 251.04908 32.629984 251.011017 32.931024 251.097523 33.204382 L 252.163274 36.470841 Q 252.325905 36.958734 251.876075 36.706137 L 248.21169 34.623077 C 248.076741 34.546952 247.90719 34.557333 247.782621 34.650759 Z" style="fill:#000000;"/>
		<path d="M 234.474571 76.50226 Q 235.391532 81.436551 237.066284 86.95562 Q 237.211614 87.426211 237.00746 87.945246 Q 235.329248 92.267075 233.343075 96.239421 C 233.187364 96.554302 232.862103 96.754996 232.509159 96.751536 Q 228.170029 96.710013 223.180375 95.851875 Q 222.266873 95.692705 221.401816 95.391665 Q 220.841258 95.194431 221.062713 94.640794 Q 222.993522 89.851834 224.654433 85.035191 C 225.758247 81.831017 226.893203 79.093974 228.145807 76.145856 C 228.208091 75.993606 228.367262 75.90018 228.533353 75.920941 C 230.540287 76.152777 232.249642 74.142382 233.308472 72.647562 Q 234.062803 71.585271 234.180451 72.886318 Q 234.266957 73.865564 234.249655 74.834429 C 234.239275 75.401907 234.370764 75.952084 234.474571 76.50226 Z M 231.522993 76.284266 C 230.779043 76.298107 229.502218 76.429595 228.886297 76.128555 C 228.841313 76.104334 228.78595 76.121635 228.761728 76.166618 L 228.709825 76.266965 Q 228.612938 76.450357 228.803251 76.540323 C 229.640627 76.931329 231.869016 76.734096 232.82058 76.637209 Q 233.543768 76.561084 233.751382 75.962464 Q 234.097405 74.958997 233.301552 75.661424 Q 232.616426 76.263504 231.522993 76.284266 Z" style="fill:#000000;"/>
		<path d="M 252.128672 148.146356 C 251.824172 146.71728 251.64424 145.22938 251.606177 143.720719 Q 251.516211 140.073635 250.644233 136.769114 Q 250.460841 136.066687 250.90029 136.644546 C 251.872615 137.931752 252.99373 139.616885 252.876082 141.288176 C 252.730752 143.326253 252.498917 145.447375 253.090617 147.405866 Q 253.526606 148.848783 253.43664 150.350523 C 253.301691 152.54777 251.516211 155.129103 249.10789 154.911108 C 247.370854 154.751938 246.768773 153.347084 246.837978 151.741536 C 246.934865 149.4128 247.263587 147.129047 247.343172 144.77263 Q 247.457359 141.298557 247.664973 138.045939 Q 247.664973 138.025178 247.685735 138.025178 L 247.779161 138.025178 Q 247.927951 138.025178 247.934871 138.173968 Q 248.242832 143.239747 247.91411 148.177498 Q 247.858746 148.96643 248.464287 149.080618 C 249.491976 149.277851 250.734199 149.160203 251.675382 148.893766 Q 252.25324 148.731135 252.128672 148.146356 Z" style="fill:#000000;"/>
	</g>
	<g id="surface4">
	</g>
</svg>
