<?xml version="1.0" encoding="utf-8"?>
<svg xmlns="http://www.w3.org/2000/svg" width="490pt" height="280pt" viewBox="0 0 490 280" version="1.1" xmlns:xlink="http://www.w3.org/1999/xlink">
	<g id="surface2">
		<path d="M 296.269735 87.163208 L 296.287219 57.104077 L 296.173574 48.414598 C 296.169203 48.099888 296.02059 47.802663 295.771445 47.605969 Q 290.967754 43.820713 286.684208 39.554651 C 286.456917 39.336102 286.102869 39.32736 285.871208 39.541538 L 273.409585 51.05029 L 270.231893 53.362531 Q 269.165378 49.214485 267.255266 45.822615 Q 266.923072 45.232535 266.442266 44.760471 C 265.345154 43.689584 264.06009 44.157277 262.923639 43.357391 C 260.082511 41.346747 257.752787 38.4182 255.226369 36.088475 C 255.09524 35.966088 254.894175 35.966088 254.758675 36.084104 L 250.632484 39.82128 Q 250.405194 40.026715 250.191016 39.808167 L 239.587054 28.872011 C 239.473409 28.753995 239.285457 28.758366 239.171812 28.876382 C 238.157748 29.929785 237.222361 31.061865 236.186443 32.093412 Q 230.853865 37.395394 225.783545 42.76731 Q 224.730142 43.886278 222.330482 43.881907 L 239.259231 26.555399 Q 239.683215 26.127044 240.115941 26.542286 Q 245.400438 31.638832 250.348371 37.290491 C 250.514468 37.482813 250.802951 37.500297 250.995274 37.3342 L 254.977223 33.89425 C 255.239481 33.671331 255.628497 33.680073 255.873271 33.920476 Q 260.126221 38.046668 264.086316 42.238424 Q 264.977993 43.178181 266.066363 44.096084 Q 267.13725 44.992132 267.875943 46.403954 Q 269.17412 48.87792 269.80791 50.919161 C 269.921555 51.281951 270.367393 51.404338 270.647135 51.150822 L 286.032934 37.203071 C 286.268966 36.988894 286.627385 36.993265 286.854675 37.211813 L 295.955026 45.770164 C 296.086155 45.896922 296.304703 45.809502 296.313445 45.625922 Q 296.413977 43.274342 296.317816 40.874682 Q 296.24788 39.156893 294.722413 38.413829 Q 271.600006 27.136738 247.821953 15.020421 Q 246.777292 14.487163 245.40918 14.128744 C 244.137229 13.796551 242.790972 14.434712 241.693859 14.985453 C 226.369254 22.669611 211.306907 30.388736 195.706931 38.134087 Q 194.66227 38.649861 193.556415 39.838763 C 193.490851 39.91307 193.451512 40.009231 193.451512 40.109763 L 193.359722 46.618131 C 193.355351 46.84105 193.62198 46.954695 193.779335 46.797341 Q 197.643268 42.907181 201.581508 39.698893 C 201.778202 39.541538 202.057943 39.541538 202.250266 39.707634 Q 208.872279 45.477309 214.912953 51.885145 Q 215.083421 52.09058 215.083421 52.247935 Q 215.087792 52.49708 214.843018 52.479596 Q 213.737163 52.418402 212.941648 51.86329 L 201.970524 42.037359 C 201.791315 41.880004 201.520315 41.888746 201.358589 42.059214 Q 197.700091 45.857583 193.744367 49.24071 Q 193.57827 49.384952 193.547674 49.59913 L 193.294158 51.627258 L 193.420916 87.158837 L 188.656563 87.150095 Q 188.022773 87.150095 188.022773 86.516305 Q 188.09708 63.026736 188.031515 42.207827 Q 188.018402 38.903377 188.586628 37.592087 Q 189.59195 35.257992 192.087771 34.104057 Q 198.696671 31.044381 205.218152 27.774898 Q 221.91524 19.395758 237.725022 11.195826 C 240.531182 9.744666 243.219326 8.105553 246.515034 8.99286 Q 247.835066 9.346908 249.596565 10.247327 Q 270.148845 20.724531 290.377674 30.620397 C 293.022108 31.914203 296.033703 33.041912 298.678137 34.681024 C 300.806797 36.001056 301.68099 38.265216 301.676619 40.765408 Q 301.667878 62.650833 301.628539 86.970885 C 301.628539 87.080159 301.54112 87.167578 301.431845 87.167578 L 296.269735 87.163208 Z" style="fill:#2b2625;"/>
		<path d="M 222.330482 43.881907 Q 221.163434 44.336487 219.174645 45.455454 Q 218.256742 45.971228 217.907065 46.867276 Q 216.901743 49.454888 215.800259 52.011903 L 214.912953 51.885145 Q 208.872279 45.477309 202.250266 39.707634 C 202.057943 39.541538 201.778202 39.541538 201.581508 39.698893 Q 197.643268 42.907181 193.779335 46.797341 C 193.62198 46.954695 193.355351 46.84105 193.359722 46.618131 L 193.451512 40.109763 C 193.451512 40.009231 193.490851 39.91307 193.556415 39.838763 Q 194.66227 38.649861 195.706931 38.134087 C 211.306907 30.388736 226.369254 22.669611 241.693859 14.985453 C 242.790972 14.434712 244.137229 13.796551 245.40918 14.128744 Q 246.777292 14.487163 247.821953 15.020421 Q 271.600006 27.136738 294.722413 38.413829 Q 296.24788 39.156893 296.317816 40.874682 Q 296.413977 43.274342 296.313445 45.625922 C 296.304703 45.809502 296.086155 45.896922 295.955026 45.770164 L 286.854675 37.211813 C 286.627385 36.993265 286.268966 36.988894 286.032934 37.203071 L 270.647135 51.150822 C 270.367393 51.404338 269.921555 51.281951 269.80791 50.919161 Q 269.17412 48.87792 267.875943 46.403954 Q 267.13725 44.992132 266.066363 44.096084 Q 264.977993 43.178181 264.086316 42.238424 Q 260.126221 38.046668 255.873271 33.920476 C 255.628497 33.680073 255.239481 33.671331 254.977223 33.89425 L 250.995274 37.3342 C 250.802951 37.500297 250.514468 37.482813 250.348371 37.290491 Q 245.400438 31.638832 240.115941 26.542286 Q 239.683215 26.127044 239.259231 26.555399 L 222.330482 43.881907 Z" style="fill:#f9ad32;"/>
		<path d="M 235.010653 42.002391 L 237.475877 38.855296 C 237.5327 38.785361 237.641974 38.785361 237.694426 38.855296 L 240.194618 41.976166 C 240.268924 42.067956 240.20336 42.203456 240.085344 42.203456 L 235.124298 42.229682 C 235.006282 42.229682 234.940717 42.094182 235.010653 42.002391 Z" style="fill:#d18738;"/>
		<path d="M 296.287219 57.104077 Q 295.032752 56.242997 294.447042 55.604836 Q 291.841947 52.772451 289.354868 49.96192 Q 288.786642 49.319388 288.214046 49.953178 L 285.285499 53.192063 C 285.005757 53.502402 284.507467 53.445579 284.302031 53.082789 L 282.514306 49.900726 C 282.3045 49.529194 281.793097 49.472372 281.508984 49.791452 L 278.055922 53.685982 C 277.82426 53.94824 277.426503 53.99195 277.14239 53.782144 L 273.409585 51.05029 L 285.871208 39.541538 C 286.102869 39.32736 286.456917 39.336102 286.684208 39.554651 Q 290.967754 43.820713 295.771445 47.605969 C 296.02059 47.802663 296.169203 48.099888 296.173574 48.414598 L 296.287219 57.104077 Z" style="fill:#ffffff;"/>
		<path d="M 251.06958 42.325843 Q 249.098275 42.199085 247.21876 42.54002 Q 246.576228 42.658036 247.118227 42.290875 C 248.44263 41.399198 250.046774 40.358908 251.375548 42.002391 C 251.423628 42.059214 251.436741 42.137891 251.410516 42.212198 Q 251.336209 42.408891 251.196338 42.352069 Q 251.135145 42.330214 251.06958 42.325843 Z" style="fill:#d18738;"/>
		<path d="M 212.941648 51.86329 Q 209.925682 52.772451 208.037424 54.962304 Q 207.316215 55.797159 206.490103 55.106546 Q 204.728603 53.646644 203.364862 51.86329 C 203.211878 51.662225 202.914653 51.649112 202.748556 51.837064 L 199.033235 55.915175 C 198.867139 56.098755 198.578655 56.090013 198.4213 55.902062 Q 196.240188 53.248886 193.294158 51.627258 L 193.547674 49.59913 Q 193.57827 49.384952 193.744367 49.24071 Q 197.700091 45.857583 201.358589 42.059214 C 201.520315 41.888746 201.791315 41.880004 201.970524 42.037359 L 212.941648 51.86329 Z" style="fill:#ffffff;"/>
		<path d="M 223.790384 45.739567 Q 243.586487 43.21752 263.369477 45.88818 C 265.034815 46.111099 265.926492 46.61376 266.50346 48.130485 Q 267.924023 51.872032 269.270281 55.753449 Q 270.092022 58.139996 270.411103 60.679527 C 270.432958 60.858737 270.279974 61.011721 270.100764 60.985495 Q 262.110639 59.748512 253.893224 59.433802 Q 238.205829 58.83498 222.658304 60.089447 Q 218.553968 60.42164 215.218921 61.125366 C 215.052824 61.160333 214.89984 61.020463 214.926066 60.849995 Q 215.044082 60.028253 215.310711 59.223996 Q 217.20771 53.54174 218.877419 48.200421 C 219.554919 46.028051 221.762256 45.997454 223.790384 45.739567 Z" style="fill:#2b2625;"/>
		<path d="M 263.159671 48.414598 Q 243.210584 46.010567 223.431965 48.497646 C 222.531546 48.611291 221.893385 48.856065 221.574305 49.756484 Q 220.652031 52.36158 219.690419 54.992901 Q 219.375709 55.853981 218.894903 56.675723 Q 218.357274 57.606738 218.689467 56.583932 L 221.355756 48.440824 Q 221.425692 48.217904 221.626756 48.104259 Q 221.950208 47.916308 222.32174 47.863856 Q 242.515601 44.944051 262.958607 47.632195 Q 264.213074 47.798292 264.562751 49.000307 Q 265.502509 52.22608 266.691411 55.504304 C 267.023605 56.409094 267.849717 57.34448 267.670507 58.345432 Q 267.59183 58.769415 267.430104 58.367286 L 263.553058 48.716194 Q 263.443784 48.449566 263.159671 48.414598 Z" style="fill:#ffffff;"/>
		<path d="M 296.287219 57.104077 L 296.269735 87.163208 L 277.457099 87.185062 C 277.199212 87.185062 277.011261 86.94903 277.063712 86.699885 Q 278.051551 82.079775 278.077776 78.784067 C 278.090889 77.494632 277.247293 76.62481 276.408068 75.750616 Q 276.224487 75.558294 276.215745 75.296036 C 276.075874 71.842973 276.290052 68.38991 275.33281 65.028638 Q 278.396857 63.791655 278.973824 60.933043 C 279.306018 59.280818 278.833953 57.746609 277.028745 57.401303 Q 274.685907 56.955465 271.713651 57.156529 L 270.231893 53.362531 L 273.409585 51.05029 L 277.14239 53.782144 C 277.426503 53.99195 277.82426 53.94824 278.055922 53.685982 L 281.508984 49.791452 C 281.793097 49.472372 282.3045 49.529194 282.514306 49.900726 L 284.302031 53.082789 C 284.507467 53.445579 285.005757 53.502402 285.285499 53.192063 L 288.214046 49.953178 Q 288.786642 49.319388 289.354868 49.96192 Q 291.841947 52.772451 294.447042 55.604836 Q 295.032752 56.242997 296.287219 57.104077 Z" style="fill:#d18738;"/>
		<path d="M 212.941648 51.86329 Q 213.737163 52.418402 214.843018 52.479596 Q 215.087792 52.49708 215.083421 52.247935 Q 215.083421 52.09058 214.912953 51.885145 L 215.800259 52.011903 L 214.104325 57.208981 Q 210.528875 56.850561 207.128264 57.462497 C 206.280296 57.61548 206.262812 57.917077 206.039893 58.647028 Q 205.449813 60.565882 206.324006 61.986446 Q 207.569731 64.010203 210.502649 65.194735 Q 209.912569 68.896942 209.881972 74.461182 Q 209.881972 74.701585 209.672165 75.418423 C 209.357456 76.506793 208.308424 76.812761 208.347763 78.124051 Q 208.465779 82.429452 209.431762 86.988369 C 209.453617 87.08453 209.379311 87.17632 209.278779 87.17632 L 193.420916 87.158837 L 193.294158 51.627258 Q 196.240188 53.248886 198.4213 55.902062 C 198.578655 56.090013 198.867139 56.098755 199.033235 55.915175 L 202.748556 51.837064 C 202.914653 51.649112 203.211878 51.662225 203.364862 51.86329 Q 204.728603 53.646644 206.490103 55.106546 Q 207.316215 55.797159 208.037424 54.962304 Q 209.925682 52.772451 212.941648 51.86329 Z" style="fill:#d18738;"/>
		<path d="M 214.104325 57.208981 Q 213.544841 59.079754 213.147083 60.876221 C 212.928535 61.850946 212.504551 62.113204 211.752745 62.589639 C 210.909149 63.122897 210.891665 64.329283 210.502649 65.194735 Q 207.569731 64.010203 206.324006 61.986446 Q 205.449813 60.565882 206.039893 58.647028 C 206.262812 57.917077 206.280296 57.61548 207.128264 57.462497 Q 210.528875 56.850561 214.104325 57.208981 Z" style="fill:#2b2625;"/>
		<path d="M 271.713651 57.156529 Q 274.685907 56.955465 277.028745 57.401303 C 278.833953 57.746609 279.306018 59.280818 278.973824 60.933043 Q 278.396857 63.791655 275.33281 65.028638 Q 274.74273 63.918413 273.982182 62.895607 C 273.400843 62.117575 272.491682 61.964591 272.273134 60.915559 Q 271.879747 59.036044 271.713651 57.156529 Z" style="fill:#2b2625;"/>
		<path d="M 218.169323 64.67459 C 216.420936 64.792606 214.668179 64.984928 212.959132 65.242815 Q 212.661906 65.286525 212.661906 64.989299 C 212.653164 63.979606 213.859551 63.551252 214.681292 63.45509 Q 225.726722 62.130688 236.531749 61.91651 Q 242.51123 61.798494 248.455743 61.750414 Q 251.091435 61.728559 253.534805 61.855317 Q 260.786237 62.239962 267.097911 62.86501 Q 269.676781 63.122897 271.630602 63.573106 Q 272.854473 63.857219 273.38773 65.330235 Q 273.501376 65.649315 273.169182 65.588122 Q 267.180959 64.53909 261.131543 64.202525 Q 254.798014 63.844106 248.455743 63.86159 Q 237.366603 63.887816 226.596544 64.246235 Q 222.330482 64.390477 218.169323 64.67459 Z" style="fill:#d18738;"/>
		<path d="M 217.802161 65.618718 C 220.866208 65.352089 223.855949 65.046122 226.94185 64.949961 Q 238.555506 64.582799 252.839821 64.731412 Q 263.657961 64.840686 273.25223 66.195686 Q 273.855424 66.283105 273.977811 66.881927 Q 274.777697 70.776458 274.432391 75.090601 C 274.406165 75.453391 274.069601 75.711278 273.711182 75.650084 Q 265.64675 74.281972 257.416222 74.207666 Q 237.926087 74.032827 228.476059 74.264488 Q 220.210563 74.465553 212.019374 75.606375 C 211.757116 75.641342 211.521084 75.444649 211.507971 75.182391 C 211.381213 72.454908 211.263197 69.20291 212.443358 66.702718 Q 212.552632 66.479799 212.766809 66.34867 Q 213.129599 66.134492 213.522986 66.082041 Q 215.498663 65.819783 217.802161 65.618718 Z" style="fill:#2b2625;"/>
		<path d="M 226.941064 69.982209 C 226.946221 70.046506 226.898141 70.103329 226.832882 70.109317 L 214.607466 71.092959 C 214.541421 71.099909 214.484599 71.051828 214.480359 70.984778 L 214.258095 68.222546 C 214.252937 68.158249 214.301018 68.101427 214.366277 68.095439 L 226.591692 67.111796 C 226.657738 67.104847 226.71456 67.152927 226.7188 67.219978 L 226.941064 69.982209 Z" style="fill:#ffffff;"/>
		<path d="M 260.047544 67.131072 L 271.43828 68.057717 C 271.521328 68.066459 271.582522 68.136394 271.578151 68.215072 L 271.508215 70.929441 C 271.503844 71.021232 271.429538 71.086796 271.342119 71.078054 L 260.235495 69.985313 C 260.161189 69.976571 260.104366 69.919748 260.099995 69.845442 L 259.881447 67.297169 C 259.877076 67.205379 259.955753 67.126701 260.047544 67.131072 Z" style="fill:#ffffff;"/>
		<path d="M 257.909486 69.979631 C 257.910141 70.042135 257.85769 70.094587 257.795666 70.093101 L 229.463111 70.043622 C 229.398333 70.042135 229.350252 69.994055 229.34964 69.929802 L 229.350908 69.221705 C 229.350252 69.1592 229.402704 69.106749 229.464728 69.108235 L 257.797283 69.157714 C 257.862061 69.1592 257.910141 69.207281 257.910753 69.271534 L 257.909486 69.979631 Z" style="fill:#ffffff;"/>
		<path d="M 226.631512 72.625376 L 214.576389 73.617585 C 214.322873 73.63944 214.165518 73.350956 214.314131 73.145521 L 214.633211 72.704053 C 214.681292 72.634118 214.759969 72.590408 214.847389 72.581666 L 226.605286 71.484554 C 226.784496 71.46707 226.937479 71.615683 226.928738 71.794893 L 226.906883 72.341263 C 226.898141 72.489876 226.780125 72.612263 226.631512 72.625376 Z" style="fill:#ffffff;"/>
		<path d="M 271.821788 73.265985 C 271.80107 73.477714 271.608747 73.635069 271.395444 73.613695 L 260.402204 72.497045 C 260.187414 72.476763 260.034431 72.284441 260.054493 72.070701 L 260.083648 71.783703 C 260.104366 71.571973 260.296689 71.414619 260.509992 71.435993 L 271.503232 72.552643 C 271.718022 72.572924 271.871005 72.765247 271.850943 72.978987 L 271.821788 73.265985 Z" style="fill:#ffffff;"/>
		<path d="M 256.244804 87.163208 Q 256.428384 85.017063 255.763997 82.892774 C 255.676578 82.617403 255.418691 82.429452 255.130207 82.433823 Q 247.065776 82.595549 239.307312 82.42071 Q 235.806169 82.346403 232.322509 82.385742 Q 231.701832 82.394484 231.64938 83.015161 L 231.308445 87.171949 L 212.00189 87.171949 Q 211.490487 87.171949 211.354987 86.67803 Q 210.480794 83.539677 209.759585 79.540244 Q 209.436133 77.739406 211.328761 77.249858 Q 213.536099 76.677261 215.782775 76.410632 Q 223.252755 75.536439 230.364316 75.440278 Q 245.68018 75.239213 258.871754 75.40531 Q 266.193121 75.501471 273.781117 77.009455 C 274.817036 77.21489 276.456148 77.71318 276.456148 79.033212 Q 276.456148 79.924889 276.320648 80.751001 Q 275.804874 83.963661 274.886972 86.90095 Q 274.79081 87.22003 274.454246 87.22003 L 256.244804 87.163208 Z" style="fill:#2b2625;"/>
		<path d="M 256.244804 87.163208 L 253.346853 87.067046 Q 253.657192 86.796046 253.486724 86.914062 Q 253.408047 86.879095 253.359966 86.817901 Q 253.272547 86.712998 253.132676 86.708627 Q 245.632099 86.40703 238.214571 86.839756 Q 237.899861 86.85724 237.585152 86.914062 Q 237.580781 86.909692 237.580781 86.914062 Q 237.580781 86.922804 237.585152 86.918433 Q 238.087813 86.822272 238.319474 87.045191 L 231.308445 87.171949 L 231.64938 83.015161 Q 231.701832 82.394484 232.322509 82.385742 Q 235.806169 82.346403 239.307312 82.42071 Q 247.065776 82.595549 255.130207 82.433823 C 255.418691 82.429452 255.676578 82.617403 255.763997 82.892774 Q 256.428384 85.017063 256.244804 87.163208 Z" style="fill:#d18738;"/>
		<path d="M 253.346853 87.067046 L 238.319474 87.045191 Q 238.087813 86.822272 237.585152 86.918433 Q 237.580781 86.922804 237.580781 86.914062 Q 237.580781 86.909692 237.585152 86.914062 Q 237.899861 86.85724 238.214571 86.839756 Q 245.632099 86.40703 253.132676 86.708627 Q 253.272547 86.712998 253.359966 86.817901 Q 253.408047 86.879095 253.486724 86.914062 Q 253.657192 86.796046 253.346853 87.067046 Z" style="fill:#2b2625;"/>
		<path d="M 203.141943 128.626187 Q 204.177862 129.369251 205.314313 130.020525 Q 222.22995 139.697843 238.752199 148.841902 Q 241.83373 150.55095 243.298004 150.944337 C 246.36205 151.770449 248.766081 149.973983 251.283758 148.579645 Q 267.958991 139.352536 284.756612 129.68396 Q 285.635176 129.181299 286.369498 128.521284 C 286.491885 128.412009 286.491885 128.219687 286.373869 128.110413 Q 266.630218 109.940309 246.466954 90.29719 Q 246.244034 90.083013 246.077938 89.825126 C 245.994889 89.693997 246.091051 89.523529 246.248405 89.532271 Q 248.092953 89.645916 249.885049 89.659029 Q 276.582906 89.895061 301.300716 89.785787 Q 301.619797 89.781416 301.619797 90.104867 Q 301.536749 105.114763 301.549861 120.509304 C 301.554232 126.082285 298.184218 128.766058 293.660269 131.13075 Q 291.514125 132.249717 289.389835 133.447362 Q 271.25907 143.684163 253.491095 153.457642 C 251.025871 154.817012 248.276533 156.574141 245.518454 156.727124 Q 242.384472 156.897592 239.106248 155.105496 Q 220.896805 145.135324 203.176911 135.099587 C 200.091009 133.351201 196.961398 131.716459 193.805561 130.033638 Q 189.723079 127.861268 188.477354 123.883689 Q 187.979063 122.292658 188.000918 117.152402 Q 188.057741 103.855925 188.10145 90.013077 Q 188.10145 89.720222 188.394305 89.720222 Q 215.240776 89.903803 242.672955 89.597835 C 242.769117 89.593464 242.847794 89.676513 242.843423 89.772674 Q 242.834681 90.02619 242.651101 90.201029 Q 231.124864 101.202749 219.659822 112.361824 Q 211.54731 120.26453 203.106975 128.031735 Q 202.757298 128.350816 203.141943 128.626187 Z" style="fill:#2b2625;"/>
	</g>
	<g id="surface4">
	</g>
</svg>
