<?xml version="1.0" encoding="utf-8"?>
<svg xmlns="http://www.w3.org/2000/svg" width="490pt" height="280pt" viewBox="0 0 490 280" version="1.1" xmlns:xlink="http://www.w3.org/1999/xlink">
	<g id="surface2">
		<path d="M 253.315616 155.670649 C 247.703551 158.864062 243.56155 158.576009 238.004117 155.471991 Q 218.078806 144.352158 197.428397 132.65622 Q 192.094453 129.636631 187.783593 127.386839 C 184.356758 125.593958 180.681601 123.160409 178.6106 119.981894 Q 174.99504 114.43936 175.000007 107.789313 Q 175.039738 30.938801 175.034772 30.81464 Q 174.970208 29.349543 175.034772 27.82485 Q 175.243362 22.81869 178.342413 20.310644 Q 180.105495 18.885279 184.292194 17.7579 Q 194.860754 14.902203 201.217782 13.774824 Q 236.509222 7.522091 272.47113 11.445569 Q 288.204775 13.163953 303.407012 17.027835 C 306.09385 17.708235 309.401491 18.358837 311.457592 20.087155 C 315.246977 23.265669 314.988723 27.506999 314.983756 32.150609 Q 314.958924 69.597479 314.929126 107.049315 C 314.924159 112.686211 313.429264 118.243645 309.495853 122.231686 Q 307.568879 124.188459 301.370776 127.838784 Q 276.623064 142.410285 253.315616 155.670649 Z M 209.755072 133.123064 C 219.95115 138.993382 230.316086 144.426655 240.651223 150.16288 C 243.64598 151.826633 246.183824 152.839784 249.148782 151.20583 Q 256.057084 147.406512 263.074647 143.453235 Q 277.233934 135.477151 289.818864 127.948046 Q 294.472407 125.166846 299.120984 122.50484 Q 302.890503 120.34941 304.28607 118.973709 Q 308.731023 114.603253 308.726057 109.060718 Q 308.696258 68.499898 308.750889 27.675857 Q 308.750889 26.618008 308.696258 25.570091 C 308.631695 24.467544 307.141766 24.090096 306.28754 23.86164 Q 283.496601 17.668504 260.99868 16.084213 Q 256.13158 15.74153 251.125421 15.667033 Q 234.343859 15.418712 220.040546 16.85401 Q 202.960998 18.567427 183.005889 24.085129 Q 182.161596 24.318552 181.689786 25.028751 Q 181.098781 25.917741 181.098781 27.273576 Q 181.059049 67.119231 180.989519 105.807708 Q 180.984553 108.633606 181.491129 111.370108 C 182.583743 117.23546 186.904536 120.096122 191.846132 122.897188 Q 201.063823 128.116904 209.755072 133.123064 Z" style="fill:#0280b9;"/>
		<path d="M 211.324464 52.726522 Q 204.470793 52.875515 197.939939 52.781152 Q 197.3688 52.77122 197.3688 52.20008 L 197.487994 30.834506 C 197.487994 30.382561 197.795913 29.985246 198.237925 29.875985 Q 201.361809 29.101222 204.445961 28.599613 Q 220.944436 25.927674 238.078613 25.217475 Q 238.798745 25.187676 239.484113 25.247274 C 239.747333 25.272106 239.950957 25.490629 239.955923 25.753849 Q 240.025453 29.419073 239.851628 33.16376 C 239.792031 34.340804 239.742367 36.02939 240.507197 36.963078 C 241.440885 38.10039 243.675778 39.093676 244.475373 37.146836 Q 244.818057 36.30751 244.81309 35.348989 Q 244.768392 30.670613 244.773359 25.520427 C 244.773359 25.296938 244.95215 25.118146 245.175639 25.123113 Q 269.163488 25.222441 291.030672 29.573033 Q 291.944495 29.751824 292.81362 30.104441 Q 293.538719 30.39746 293.538719 31.177189 L 293.434424 77.767253 C 293.429457 78.005642 293.205968 78.179467 292.972546 78.114903 Q 286.516189 76.361754 279.925739 74.623504 Q 270.295834 72.085659 259.434255 68.683656 Q 259.002176 68.549562 259.086605 68.102584 Q 260.477205 60.876431 255.699501 56.158324 C 250.822468 51.335922 243.780073 50.412166 238.063714 54.191618 C 233.335674 57.315501 230.534609 62.833203 232.347355 68.24661 C 232.387086 68.360838 232.322523 68.484999 232.203329 68.519764 Q 229.188707 69.478285 226.13932 70.347409 Q 211.935334 74.385116 197.840611 78.288728 C 197.641954 78.343359 197.443297 78.194366 197.443297 77.985776 L 197.483028 58.626639 C 197.483028 58.542209 197.547592 58.477646 197.632021 58.477646 Q 204.80851 58.591874 212.516407 58.59684 C 215.208211 58.601806 216.772636 55.472957 214.602307 53.60558 Q 213.524592 52.681824 211.324464 52.726522 Z M 231.023454 47.438666 C 231.810981 46.627748 231.796081 45.336476 230.988093 44.545175 L 223.317643 37.059874 C 222.50886 36.272745 221.212623 36.287644 220.424152 37.095185 L 220.132772 37.393767 C 219.345246 38.204685 219.360145 39.495957 220.168133 40.287258 L 227.838583 47.772559 C 228.647366 48.559688 229.943604 48.544789 230.732074 47.737248 L 231.023454 47.438666 Z M 271.283309 37.191981 C 270.479592 36.357174 269.153556 36.332342 268.319891 37.135066 L 260.561585 44.601097 C 259.727275 45.406006 259.702442 46.732043 260.50467 47.564515 L 260.587311 47.650385 C 261.391028 48.485192 262.717064 48.510024 263.550729 47.7073 L 271.309035 40.241268 C 272.143345 39.436359 272.168178 38.110323 271.36595 37.27785 L 271.283309 37.191981 Z M 287.74101 46.665294 C 287.355515 45.594731 286.178472 45.033524 285.105773 45.419614 L 279.102106 47.569233 C 278.028563 47.953784 277.472323 49.130828 277.856476 50.20447 L 278.020517 50.662673 C 278.406012 51.733236 279.583055 52.294442 280.655754 51.908352 L 286.659421 49.758733 C 287.732964 49.374183 288.289204 48.197139 287.905051 47.123497 L 287.74101 46.665294 Z M 287.680519 63.444322 C 287.693233 62.108105 286.615518 61.010524 285.278158 60.999648 L 275.276119 60.912338 C 273.936226 60.901263 272.843612 61.974011 272.831444 63.314748 L 272.826527 63.880871 C 272.813813 65.217089 273.891528 66.31467 275.228888 66.325546 L 285.230927 66.412856 C 286.57082 66.423931 287.663434 65.351183 287.675602 64.010446 L 287.680519 63.444322 Z" style="fill:#0280b9;"/>
		<path d="M 243.968797 80.657715 C 248.274691 81.10966 252.709711 79.813422 255.625005 76.620008 C 255.818695 76.411419 256.101782 76.322023 256.374935 76.376654 Q 258.396272 76.803766 260.184186 77.325241 Q 276.707493 82.132744 293.081807 86.334342 C 293.359927 86.403872 293.553618 86.65716 293.548652 86.940247 Q 293.489054 94.72264 293.43939 103.021542 C 293.419524 106.473209 291.105169 108.315754 287.911755 108.310788 Q 244.430675 108.241258 203.055361 108.300855 C 199.633491 108.305821 197.497927 106.567571 197.463162 103.026508 Q 197.378733 94.106803 197.468129 86.761455 Q 197.473095 86.428704 197.800879 86.344275 Q 216.499482 81.561605 234.900099 76.346855 Q 235.252716 76.247526 235.515936 76.505781 Q 239.300355 80.166038 243.968797 80.657715 Z" style="fill:#0280b9;"/>
	</g>
	<g id="surface4">
	</g>
</svg>
