<?xml version="1.0" encoding="utf-8"?>
<svg xmlns="http://www.w3.org/2000/svg" width="490pt" height="280pt" viewBox="0 0 490 280" version="1.1" xmlns:xlink="http://www.w3.org/1999/xlink">
	<g id="surface2">
		<path d="M 261.525594 36.864538 C 260.897746 36.742302 260.28101 36.681184 259.675386 36.947881 Q 259.014201 37.236802 258.241892 37.364594 Q 255.697162 37.781308 253.196881 37.959106 Q 250.713269 38.131347 248.301887 38.314701 Q 245.646034 38.525836 242.462343 38.4036 Q 240.439894 38.33137 238.523012 38.17024 Q 236.778372 38.02578 234.655911 37.553504 Q 231.766698 36.914544 229.027502 36.653403 Q 227.105063 36.870094 226.388316 35.619954 Q 225.232631 33.597505 227.099507 32.502937 C 227.277305 32.402926 227.382872 32.20846 227.37176 32.002881 Q 227.088395 26.457814 230.705468 20.790512 C 232.616793 17.790175 237.167304 15.617709 240.334326 14.406462 C 242.090079 13.734164 243.551354 12.784057 244.795938 11.400569 C 245.218208 10.93385 245.973848 11.050529 246.234989 11.622816 C 246.612809 12.434018 247.179539 13.078535 248.018522 13.423018 Q 251.346674 14.789838 254.53592 16.367793 C 259.275341 18.706944 261.375577 22.368467 262.786847 27.135668 Q 263.503594 29.535938 263.348021 32.758522 C 263.331352 33.114117 263.564712 33.436376 263.909195 33.525274 Q 264.892639 33.786415 264.670391 34.619842 Q 264.064768 36.881207 261.525594 36.864538 Z M 250.852174 17.873517 Q 249.918736 24.740955 250.052084 30.519381 Q 250.05764 30.813859 250.352118 30.824971 L 250.502134 30.836084 C 250.635483 30.84164 250.752162 30.736072 250.757719 30.597168 Q 251.035528 24.207562 251.452241 19.651495 Q 251.61337 17.923523 252.002303 16.178883 Q 252.235662 15.15099 251.596702 15.989973 Q 251.00219 16.773394 250.852174 17.873517 Z M 238.856383 16.456692 Q 239.973175 22.424028 240.295433 30.291578 C 240.306545 30.541606 240.484343 30.747185 240.728815 30.786078 L 240.873276 30.808303 C 241.05663 30.84164 241.223315 30.697179 241.217759 30.508269 Q 241.039961 24.235343 240.13986 18.384686 C 240.012068 17.529034 239.695366 16.678939 239.245315 15.945523 C 239.139748 15.773282 238.878607 15.828844 238.850826 16.02331 Q 238.817489 16.240001 238.856383 16.456692 Z" style="fill:#febe02;"/>
		<path d="M 250.852174 17.873517 Q 251.00219 16.773394 251.596702 15.989973 Q 252.235662 15.15099 252.002303 16.178883 Q 251.61337 17.923523 251.452241 19.651495 Q 251.035528 24.207562 250.757719 30.597168 C 250.752162 30.736072 250.635483 30.84164 250.502134 30.836084 L 250.352118 30.824971 Q 250.05764 30.813859 250.052084 30.519381 Q 249.918736 24.740955 250.852174 17.873517 Z" style="fill:#0b090a;"/>
		<path d="M 238.856383 16.456692 Q 238.817489 16.240001 238.850826 16.02331 C 238.878607 15.828844 239.139748 15.773282 239.245315 15.945523 C 239.695366 16.678939 240.012068 17.529034 240.13986 18.384686 Q 241.039961 24.235343 241.217759 30.508269 C 241.223315 30.697179 241.05663 30.84164 240.873276 30.808303 L 240.728815 30.786078 C 240.484343 30.747185 240.306545 30.541606 240.295433 30.291578 Q 239.973175 22.424028 238.856383 16.456692 Z" style="fill:#0b090a;"/>
		<path d="M 261.525594 36.864538 L 261.097768 37.270139 Q 257.786285 38.292476 255.441578 38.531392 Q 247.146202 39.375931 237.17286 38.725858 C 234.761479 38.570285 232.416771 38.064673 230.099844 37.442381 C 229.666462 37.325701 229.260861 37.686853 229.316423 38.131347 L 230.90549 50.016015 Q 226.588339 43.437498 229.027502 36.653403 Q 231.766698 36.914544 234.655911 37.553504 Q 236.778372 38.02578 238.523012 38.17024 Q 240.439894 38.33137 242.462343 38.4036 Q 245.646034 38.525836 248.301887 38.314701 Q 250.713269 38.131347 253.196881 37.959106 Q 255.697162 37.781308 258.241892 37.364594 Q 259.014201 37.236802 259.675386 36.947881 C 260.28101 36.681184 260.897746 36.742302 261.525594 36.864538 Z" style="fill:#f3d4a9;"/>
		<path d="M 261.097768 37.270139 L 261.314459 38.820313 L 259.708723 49.665975 Q 258.853072 52.082913 257.141769 55.455514 Q 256.269448 57.17793 255.124875 58.266941 L 254.730387 58.066918 Q 254.224774 57.811334 254.524808 57.333503 Q 257.05287 53.299716 257.85296 49.76043 Q 258.569707 48.354717 258.614156 47.26015 Q 258.758617 43.448611 258.403021 40.142684 Q 258.30301 39.231471 257.38624 39.342594 C 249.457573 40.342706 240.623248 40.587178 232.672355 38.903656 C 232.522338 38.870319 232.377878 38.981442 232.366765 39.137016 Q 232.133406 43.04301 232.277866 47.26015 Q 232.361209 49.743762 233.372434 52.016239 Q 233.850265 53.283048 235.650467 57.327946 Q 235.889383 57.872452 235.189304 57.972463 Q 232.527894 54.066469 230.90549 50.016015 L 229.316423 38.131347 C 229.260861 37.686853 229.666462 37.325701 230.099844 37.442381 C 232.416771 38.064673 234.761479 38.570285 237.17286 38.725858 Q 247.146202 39.375931 255.441578 38.531392 Q 257.786285 38.292476 261.097768 37.270139 Z" style="fill:#0b090a;"/>
		<path d="M 261.314459 38.820313 Q 261.95342 39.781532 261.942307 41.148352 Q 261.90897 45.748869 259.708723 49.665975 L 261.314459 38.820313 Z" style="fill:#f1b481;"/>
		<path d="M 257.85296 49.76043 Q 257.664049 45.493285 257.669606 41.70397 Q 257.669606 40.998336 257.35846 40.670521 Q 256.869516 40.14824 256.080538 40.531617 C 255.919409 40.609403 255.741611 40.653852 255.563814 40.659409 Q 251.552252 40.83165 248.162983 41.148352 Q 245.546022 41.39838 238.095186 40.881656 C 236.628355 40.781645 235.267091 40.164909 233.82804 39.998223 C 233.589125 39.970442 233.37799 40.14824 233.366878 40.387156 Q 233.027951 45.765537 233.900271 50.74943 Q 234.216973 52.582969 233.372434 52.016239 Q 232.361209 49.743762 232.277866 47.26015 Q 232.133406 43.04301 232.366765 39.137016 C 232.377878 38.981442 232.522338 38.870319 232.672355 38.903656 C 240.623248 40.587178 249.457573 40.342706 257.38624 39.342594 Q 258.30301 39.231471 258.403021 40.142684 Q 258.758617 43.448611 258.614156 47.26015 Q 258.569707 48.354717 257.85296 49.76043 Z" style="fill:#f3d4a9;"/>
		<path d="M 257.85296 49.76043 Q 257.05287 53.299716 254.524808 57.333503 Q 254.224774 57.811334 254.730387 58.066918 L 255.124875 58.266941 L 254.480359 63.506418 Q 253.33023 66.867906 250.357674 69.112603 Q 248.018522 70.873911 246.168315 71.812906 Q 246.051635 72.057378 245.307107 72.062934 Q 245.407118 71.840687 245.162646 71.818462 C 241.606691 71.446198 237.97295 67.579097 236.72281 64.206496 Q 236.206085 63.111929 236.067181 60.456075 Q 236.033844 59.889345 235.189304 57.972463 Q 235.889383 57.872452 235.650467 57.327946 Q 233.850265 53.283048 233.372434 52.016239 Q 234.216973 52.582969 233.900271 50.74943 Q 233.027951 45.765537 233.366878 40.387156 C 233.37799 40.14824 233.589125 39.970442 233.82804 39.998223 C 235.267091 40.164909 236.628355 40.781645 238.095186 40.881656 Q 245.546022 41.39838 248.162983 41.148352 Q 251.552252 40.83165 255.563814 40.659409 C 255.741611 40.653852 255.919409 40.609403 256.080538 40.531617 Q 256.869516 40.14824 257.35846 40.670521 Q 257.669606 40.998336 257.669606 41.70397 Q 257.664049 45.493285 257.85296 49.76043 Z" style="fill:#f1b481;"/>
		<path d="M 254.480359 63.506418 Q 254.558145 63.739777 255.091538 63.82312 Q 255.363791 63.867569 255.558257 64.062036 Q 256.219443 64.73989 257.069538 64.617654 Q 254.130319 76.080051 252.902404 80.036051 Q 251.135539 85.731135 249.018634 91.576235 Q 248.685264 92.498561 248.546359 93.465336 Q 248.529691 93.587572 248.407455 93.570904 L 248.401899 93.570904 Q 248.274106 93.548679 248.285219 93.415331 Q 249.201988 85.814477 247.70182 77.669119 C 247.62959 77.291298 248.001854 76.985709 248.357449 77.124613 Q 249.201988 77.457984 250.046528 77.291298 C 250.324337 77.235737 250.457685 76.924591 250.307668 76.685675 Q 248.463017 73.779793 246.168315 71.812906 Q 248.018522 70.873911 250.357674 69.112603 Q 253.33023 66.867906 254.480359 63.506418 Z" style="fill:#c3d1da;"/>
		<path d="M 236.72281 64.206496 C 237.97295 67.579097 241.606691 71.446198 245.162646 71.818462 Q 245.407118 71.840687 245.307107 72.062934 C 243.101304 72.951922 242.467899 74.741012 241.134416 76.296742 C 240.8955 76.574551 241.051073 77.01349 241.412225 77.074608 Q 242.095635 77.196843 242.717927 77.035714 Q 243.129084 76.935703 243.117972 77.357973 Q 243.067967 80.308304 242.91795 83.336422 C 242.75682 86.69791 242.884613 90.148297 242.99018 93.493117 Q 243.006849 93.99873 242.851276 93.520898 Q 241.478899 89.298202 239.884276 85.169961 Q 238.389664 81.308416 237.21731 76.730124 Q 235.750478 70.990591 234.433664 65.984474 Q 234.228085 65.217721 234.166967 64.406519 L 236.72281 64.206496 Z" style="fill:#c3d1da;"/>
		<path d="M 234.166967 64.406519 Q 234.228085 65.217721 234.433664 65.984474 Q 235.750478 70.990591 237.21731 76.730124 Q 238.389664 81.308416 239.884276 85.169961 Q 241.478899 89.298202 242.851276 93.520898 Q 243.006849 93.99873 242.99018 93.493117 C 242.884613 90.148297 242.75682 86.69791 242.91795 83.336422 Q 243.067967 80.308304 243.117972 77.357973 Q 243.129084 76.935703 242.717927 77.035714 Q 242.095635 77.196843 241.412225 77.074608 C 241.051073 77.01349 240.8955 76.574551 241.134416 76.296742 C 242.467899 74.741012 243.101304 72.951922 245.307107 72.062934 Q 246.051635 72.057378 246.168315 71.812906 Q 248.463017 73.779793 250.307668 76.685675 C 250.457685 76.924591 250.324337 77.235737 250.046528 77.291298 Q 249.201988 77.457984 248.357449 77.124613 C 248.001854 76.985709 247.62959 77.291298 247.70182 77.669119 Q 249.201988 85.814477 248.285219 93.415331 Q 248.274106 93.548679 248.401899 93.570904 L 248.407455 93.570904 Q 248.529691 93.587572 248.546359 93.465336 Q 248.685264 92.498561 249.018634 91.576235 Q 251.135539 85.731135 252.902404 80.036051 Q 254.130319 76.080051 257.069538 64.617654 Q 257.769617 64.378738 258.98642 64.845457 Q 256.67505 72.568546 254.602595 80.458321 Q 252.957966 86.703466 248.251882 97.671364 C 247.70182 98.943729 247.518466 99.938285 247.524022 101.293993 Q 247.546247 109.361565 247.462904 117.429137 Q 247.273994 130.730631 247.590696 137.898102 Q 247.624033 138.64263 248.513022 139.237141 C 250.185432 140.670635 254.041421 140.703972 256.1361 140.703972 Q 263.909195 140.709529 271.671177 140.342821 L 272.004548 140.742866 C 270.771076 142.748646 269.787633 143.770983 271.121116 145.921225 Q 271.626728 148.48818 273.360256 151.299606 Q 268.193009 155.183376 262.114549 156.850229 Q 247.073972 160.961802 231.816703 157.600314 Q 224.249187 155.927904 217.659559 151.838556 Q 216.987261 151.421842 216.953924 150.743988 Q 217.303963 150.577303 217.49843 150.182814 Q 218.848581 147.94923 219.937592 144.032124 Q 220.198733 143.104242 219.88203 142.687528 Q 219.270851 141.876326 218.037379 140.520618 Q 228.316311 140.826208 237.950725 140.598405 Q 240.82327 140.526175 241.878944 139.981669 Q 243.940287 138.914883 243.923618 136.020113 Q 243.834719 117.984755 243.634697 102.12742 C 243.618028 100.688369 243.856944 99.265987 243.156865 97.993622 C 240.806602 93.704252 239.050849 88.703691 237.950725 85.019944 Q 235.739366 77.641338 233.30576 68.656996 Q 232.655687 66.240058 233.155743 64.534311 Q 233.705804 64.312064 234.166967 64.406519 Z" style="fill:#0c2637;"/>
		<path d="M 233.155743 64.534311 Q 232.655687 66.240058 233.30576 68.656996 Q 235.739366 77.641338 237.950725 85.019944 C 239.050849 88.703691 240.806602 93.704252 243.156865 97.993622 C 243.856944 99.265987 243.618028 100.688369 243.634697 102.12742 Q 243.834719 117.984755 243.923618 136.020113 Q 243.940287 138.914883 241.878944 139.981669 Q 240.82327 140.526175 237.950725 140.598405 Q 228.316311 140.826208 218.037379 140.520618 Q 216.848357 135.847872 217.181727 130.525052 L 241.234427 130.552833 Q 242.017849 130.552833 242.07341 129.774968 L 242.151197 128.685957 Q 242.206759 128.002547 241.512236 128.002547 L 216.998373 128.063665 Q 216.487205 123.552047 216.765014 119.468255 L 241.756708 119.584935 Q 242.551242 119.584935 242.473455 118.801514 L 242.401225 118.073654 Q 242.317882 117.25134 241.495568 117.25134 L 216.720564 117.234671 L 216.470536 107.344672 Q 217.598441 105.755605 218.787463 103.994296 Q 220.715457 101.13842 221.632227 98.438117 Q 222.604558 95.576684 222.882367 92.109629 Q 223.421317 85.314421 223.215738 79.069276 Q 222.999047 72.612996 223.287968 66.395631 Q 228.533002 64.751002 233.155743 64.534311 Z" style="fill:#f97a0b;"/>
		<path d="M 258.98642 64.845457 Q 263.981425 65.206609 268.165228 66.4123 Q 267.698509 74.68545 267.876307 82.869702 C 268.026324 90.070511 268.215234 95.643359 270.659953 101.316218 Q 271.726739 103.788717 275.349368 108.066975 Q 275.154902 107.505801 274.960435 106.944627 L 274.582615 117.690278 Q 272.943542 117.151329 272.110115 117.167997 Q 260.425471 117.423581 250.457685 116.94575 Q 249.840949 116.917969 249.285331 117.112435 Q 248.685264 117.32357 248.235213 116.895744 Q 247.990741 116.662385 247.696264 116.834626 Q 247.451792 116.979087 247.462904 117.429137 Q 247.546247 109.361565 247.524022 101.293993 C 247.518466 99.938285 247.70182 98.943729 248.251882 97.671364 Q 252.957966 86.703466 254.602595 80.458321 Q 256.67505 72.568546 258.98642 64.845457 Z" style="fill:#f97a0b;"/>
		<path d="M 223.287968 66.395631 Q 222.999047 72.612996 223.215738 79.069276 Q 223.421317 85.314421 222.882367 92.109629 Q 222.604558 95.576684 221.632227 98.438117 Q 220.715457 101.13842 218.787463 103.994296 Q 217.598441 105.755605 216.470536 107.344672 Q 216.037154 107.355784 215.814907 107.177987 Q 215.648222 107.044638 215.670447 106.833504 C 216.187171 102.288549 216.820576 97.98251 216.948368 93.376437 Q 217.292851 80.652787 217.026154 68.879243 C 217.020598 68.518091 217.253958 68.195833 217.603997 68.090266 L 223.287968 66.395631 Z" style="fill:#383a3a;"/>
		<path d="M 268.165228 66.4123 Q 271.26002 67.112378 273.776969 68.095822 Q 273.954767 68.162496 274.127009 68.545872 Q 273.938098 70.023816 273.932542 70.596102 Q 273.68807 89.498224 274.243688 95.109965 Q 274.8382 101.049521 275.349368 108.066975 Q 271.726739 103.788717 270.659953 101.316218 C 268.215234 95.643359 268.026324 90.070511 267.876307 82.869702 Q 267.698509 74.68545 268.165228 66.4123 Z" style="fill:#383a3a;"/>
		<path d="M 274.127009 68.545872 L 274.199239 68.862575 Q 274.265913 69.157052 274.565947 69.184833 Q 275.377149 69.257063 276.099452 69.696001 Q 281.088901 72.724119 284.78376 78.352529 C 290.662198 87.30909 294.907119 96.865718 298.268607 107.40579 C 298.390843 107.800279 298.151928 108.211436 297.751883 108.300335 Q 297.140703 108.433683 296.712877 109.094869 Q 296.690653 108.789279 296.435068 108.88929 Q 290.801103 111.106205 284.650412 111.717385 Q 280.655519 111.839621 277.105121 110.18388 Q 276.260581 109.789391 274.960435 106.944627 Q 275.154902 107.505801 275.349368 108.066975 Q 274.8382 101.049521 274.243688 95.109965 Q 273.68807 89.498224 273.932542 70.596102 Q 273.938098 70.023816 274.127009 68.545872 Z" style="fill:#c3d1da;"/>
		<path d="M 206.624987 111.689604 Q 199.790886 111.311784 193.795769 108.767054 Q 193.090134 108.250329 192.123359 108.350341 C 191.712202 108.39479 191.395499 108.000301 191.528848 107.611369 C 191.862218 106.616813 192.15114 105.550026 192.573409 104.588807 Q 197.751768 92.77637 204.296948 81.847365 C 207.219498 76.957928 210.364295 73.063046 215.031486 70.046041 Q 215.448199 69.779344 215.920475 69.679333 C 216.192727 69.623771 216.448312 69.834906 216.442755 70.112715 C 216.326076 76.196731 216.498317 82.302972 216.259402 88.409213 C 216.142722 91.315095 216.153834 94.154303 215.859357 97.054628 Q 215.470424 100.960622 215.02593 104.855504 C 214.809239 106.783498 215.487093 108.194768 213.998037 109.883846 C 212.820127 111.228441 210.981031 111.500694 209.32529 111.611818 Q 207.502863 111.734054 206.624987 111.689604 Z" style="fill:#c3d1da;"/>
		<path d="M 193.795769 108.767054 Q 199.790886 111.311784 206.624987 111.689604 C 206.152711 113.378683 204.935908 116.617935 205.841565 118.623716 Q 208.214054 123.89653 210.275397 128.719294 Q 212.336739 133.55317 216.95948 140.803984 C 217.520654 141.692972 218.270738 142.354158 218.926368 143.154247 Q 219.104165 143.365382 219.104165 143.643191 Q 219.120834 144.771096 218.715233 145.854551 Q 217.981817 147.83255 217.14839 149.827219 Q 217.059491 150.04391 217.248401 150.18837 Q 217.398418 150.30505 217.49843 150.182814 Q 217.303963 150.577303 216.953924 150.743988 Q 216.58166 150.577303 216.231621 150.338387 Q 211.647773 147.243595 208.414076 143.865438 Q 202.124482 137.303591 197.457291 129.252687 Q 194.851443 124.763294 193.767988 121.446255 C 192.423393 117.334682 192.956786 113.084205 193.795769 108.767054 Z" style="fill:#f1b481;"/>
		<path d="M 296.712877 109.094869 Q 297.051804 111.106205 297.357394 113.095318 Q 298.368619 119.618272 295.462737 125.480041 Q 290.578855 135.331147 282.505727 143.77654 Q 278.155239 148.321494 273.360256 151.299606 Q 271.626728 148.48818 271.121116 145.921225 Q 271.765632 144.504399 272.393481 143.193141 Q 273.015773 141.876326 273.92143 140.609517 C 277.966328 134.914434 280.516615 128.630395 283.355822 122.407474 C 284.183693 120.59616 285.917221 118.773733 285.461614 116.617935 Q 284.989339 114.412132 284.650412 111.717385 Q 290.801103 111.106205 296.435068 108.88929 Q 296.690653 108.789279 296.712877 109.094869 Z" style="fill:#f1b481;"/>
		<path d="M 274.582615 117.690278 Q 273.971436 118.24034 274.538166 119.3738 L 249.218657 119.646053 Q 248.746382 119.651609 248.724157 120.123884 Q 248.251882 128.591502 248.313 136.886877 Q 248.318556 137.53695 248.57414 138.153686 Q 248.907511 138.959332 248.513022 139.237141 Q 247.624033 138.64263 247.590696 137.898102 Q 247.273994 130.730631 247.462904 117.429137 Q 247.451792 116.979087 247.696264 116.834626 Q 247.990741 116.662385 248.235213 116.895744 Q 248.685264 117.32357 249.285331 117.112435 Q 249.840949 116.917969 250.457685 116.94575 Q 260.425471 117.423581 272.110115 117.167997 Q 272.943542 117.151329 274.582615 117.690278 Z" style="fill:#f3d4a9;"/>
		<path d="M 216.765014 119.468255 Q 216.965036 118.329239 216.720564 117.234671 L 241.495568 117.25134 Q 242.317882 117.25134 242.401225 118.073654 L 242.473455 118.801514 Q 242.551242 119.584935 241.756708 119.584935 L 216.765014 119.468255 Z" style="fill:#f3d4a9;"/>
		<path d="M 274.538166 119.3738 L 274.277025 128.213681 L 249.49091 127.913648 Q 248.729713 127.902535 248.796387 128.658176 L 248.901955 129.936097 Q 248.974185 130.752855 249.790943 130.736187 Q 254.763724 130.630619 261.831184 130.747299 Q 266.653947 130.830642 274.054778 130.386148 L 273.54361 139.898326 Q 272.810194 139.792759 271.671177 140.342821 Q 263.909195 140.709529 256.1361 140.703972 C 254.041421 140.703972 250.185432 140.670635 248.513022 139.237141 Q 248.907511 138.959332 248.57414 138.153686 Q 248.318556 137.53695 248.313 136.886877 Q 248.251882 128.591502 248.724157 120.123884 Q 248.746382 119.651609 249.218657 119.646053 L 274.538166 119.3738 Z" style="fill:#f97a0b;"/>
		<path d="M 274.277025 128.213681 L 274.054778 130.386148 Q 266.653947 130.830642 261.831184 130.747299 Q 254.763724 130.630619 249.790943 130.736187 Q 248.974185 130.752855 248.901955 129.936097 L 248.796387 128.658176 Q 248.729713 127.902535 249.49091 127.913648 L 274.277025 128.213681 Z" style="fill:#f3d4a9;"/>
		<path d="M 216.998373 128.063665 L 241.512236 128.002547 Q 242.206759 128.002547 242.151197 128.685957 L 242.07341 129.774968 Q 242.017849 130.552833 241.234427 130.552833 L 217.181727 130.525052 L 216.998373 128.063665 Z" style="fill:#f3d4a9;"/>
		<path d="M 273.54361 139.898326 Q 273.260245 140.553956 272.004548 140.742866 L 271.671177 140.342821 Q 272.810194 139.792759 273.54361 139.898326 Z" style="fill:#383a3a;"/>
	</g>
	<g id="surface4">
	</g>
</svg>
