<?xml version="1.0" encoding="utf-8"?>
<svg xmlns="http://www.w3.org/2000/svg" width="490pt" height="280pt" viewBox="0 0 490 280" version="1.1" xmlns:xlink="http://www.w3.org/1999/xlink">
	<g id="surface2">
		<path d="M 270.104596 26.1114 Q 264.836924 23.819402 259.132148 21.280833 Q 254.02699 19.005647 247.274283 15.514414 Q 245.542676 14.617789 243.514062 15.553641 Q 231.84673 20.938995 220.000073 26.363576 Q 204.650974 33.396477 188.965641 40.104353 C 187.379736 40.782426 185.648129 41.303589 184.011789 41.914415 Q 183.014293 42.284272 183.227242 43.326599 Q 186.040403 56.916071 188.629407 68.348039 Q 192.428855 85.165361 196.883961 103.893614 Q 197.029662 104.510044 197.242611 105.143285 C 197.304254 105.333818 197.147344 105.524351 196.945604 105.496331 C 195.684725 105.311402 194.496697 105.4515 194.132443 103.859991 Q 190.187293 86.644792 186.247747 70.012399 C 183.978165 60.435324 182.123272 50.959119 180.105866 41.303589 C 180.033015 40.928127 180.229152 40.558269 180.582198 40.418172 Q 189.755792 36.71399 198.060781 32.858503 Q 203.059465 30.538485 208.287909 28.291319 C 214.519453 25.612652 220.414762 22.519296 226.674325 19.739759 Q 235.99362 15.598472 244.926246 11.322692 C 245.268085 11.160179 245.665962 11.171387 246.002196 11.345108 Q 247.279887 12.011972 248.74811 12.600383 Q 252.155285 13.950924 255.17579 15.435959 Q 255.411154 15.553641 255.646518 15.660115 Q 263.587253 19.285842 271.914657 23.197369 Q 274.475642 24.396605 277.300011 25.730334 Q 289.432467 31.451922 297.74306 34.758227 Q 300.337668 35.789345 302.489568 36.81486 C 305.084177 38.053323 307.802071 39.123669 310.391076 40.289282 Q 311.125187 40.619912 310.962674 41.404459 C 310.234166 44.878881 309.298314 48.314075 308.524975 51.754873 Q 302.259808 79.701552 296.263629 104.414778 Q 296.061888 105.255363 295.210094 105.429085 L 294.111729 105.653241 Q 293.428052 105.793338 293.584962 105.115266 Q 300.444142 76.036598 306.496361 47.338995 Q 306.871823 45.562557 307.157622 43.421865 C 307.236076 42.855871 306.916654 42.306688 306.389887 42.088136 C 303.604745 40.939335 300.870039 40.031502 298.146541 38.748208 Q 287.409457 33.687881 277.602622 29.557802 C 275.176131 28.537891 272.615146 27.198558 270.104596 26.1114 Z" style="fill:#8d8d8e;"/>
		<path d="M 233.953798 94.669585 L 233.97061 99.617834 C 233.97061 99.87001 234.166747 100.077354 234.418923 100.082958 L 240.852207 100.239868 Q 241.322935 100.251075 241.317331 100.721804 L 241.255688 106.617113 Q 241.255688 107.071029 240.801771 107.076633 L 234.22839 107.160691 C 234.082688 107.166295 233.965006 107.283977 233.965006 107.429679 Q 233.97061 111.206712 233.99863 114.994952 Q 233.99863 115.319979 234.093896 115.633797 Q 234.133123 115.768291 234.205974 115.891577 Q 234.525397 116.41274 233.965006 116.160564 Q 219.562968 109.609598 204.64537 107.250354 C 204.376383 107.211127 204.157831 107.009386 204.101791 106.740399 Q 202.633568 100.021315 200.935585 93.18455 Q 195.925693 72.993677 190.501112 48.728764 Q 190.361014 48.101127 190.035988 47.473489 C 189.873474 47.154067 190.007968 46.767397 190.332995 46.621696 Q 218.094745 34.17542 245.150403 21.600255 C 245.486637 21.443346 245.873306 21.44895 246.203937 21.617067 Q 253.046306 25.097093 259.899883 28.240884 Q 279.597612 37.296796 299.86694 46.319085 Q 300.651487 46.666527 300.460954 47.507113 Q 294.834633 72.063429 288.491011 99.001404 Q 287.650425 102.559885 286.91071 106.488223 C 286.837859 106.874892 286.535248 107.171899 286.148578 107.24475 Q 271.813787 109.878586 259.12094 115.291959 Q 256.520728 116.401532 253.578677 117.068397 C 253.567469 117.074001 253.556261 117.062793 253.550658 117.051585 C 253.545054 117.040378 253.550658 117.02917 253.561865 117.023566 L 256.728072 115.785103 C 257.081118 115.650609 257.305274 115.308771 257.294067 114.927705 L 257.041891 107.777121 C 257.030683 107.457698 256.772903 107.199919 256.453481 107.194315 L 249.941742 107.037406 Q 249.370144 107.026198 249.375748 106.454599 L 249.381351 100.985187 C 249.381351 100.643349 249.655943 100.35755 250.003385 100.346342 L 256.35261 100.105374 C 256.688845 100.094166 256.957832 99.813971 256.957832 99.477736 L 256.963436 94.663981 Q 256.963436 94.344559 256.644014 94.338955 L 249.874495 94.210065 Q 249.061929 94.193253 249.089948 93.380687 L 249.241254 87.96171 C 249.252462 87.664703 249.504637 87.440546 249.801644 87.468566 Q 253.276066 87.776781 256.812131 87.608664 C 256.991456 87.597456 257.131553 87.451754 257.131553 87.272429 L 257.06991 82.503505 C 257.064307 82.206498 256.828942 81.971134 256.531935 81.96553 L 250.003385 81.870264 C 249.616716 81.86466 249.308501 81.545237 249.319709 81.158568 L 249.454202 75.229635 C 249.459806 75.055914 249.599904 74.915817 249.773625 74.915817 L 256.431065 74.904609 C 256.716864 74.904609 256.952228 74.674849 256.957832 74.389049 L 257.058703 69.33993 C 257.064307 69.188625 256.941021 69.065339 256.795319 69.070943 L 250.272373 69.115774 C 249.745605 69.121378 249.319709 68.695481 249.319709 68.168714 L 249.302897 62.895438 C 249.302897 62.710509 249.454202 62.564808 249.639131 62.559204 L 256.672033 62.463938 Q 257.09793 62.458334 257.092326 62.026833 L 257.030683 57.442838 C 257.025079 57.213078 256.845754 57.022545 256.615994 57.016941 L 249.902515 56.803993 C 249.532657 56.792785 249.241254 56.490174 249.246858 56.120316 L 249.319709 50.465975 C 249.325312 50.236215 249.510241 50.051286 249.740001 50.045682 L 256.666429 49.984039 C 256.901793 49.984039 257.086722 49.793506 257.081118 49.563746 L 256.935417 44.509023 Q 256.929813 44.223224 256.644014 44.223224 L 234.474962 44.105542 C 234.290033 44.105542 234.144331 44.251243 234.144331 44.436172 L 234.149935 49.406837 C 234.149935 49.681428 234.368487 49.89998 234.643079 49.911188 L 240.751336 50.090513 C 241.031532 50.096117 241.261292 50.325877 241.266896 50.606073 L 241.378974 56.193167 C 241.384578 56.518193 241.121194 56.787181 240.790564 56.792785 L 234.334864 56.820804 Q 233.830512 56.820804 233.84172 57.33076 L 233.97061 61.785865 C 233.976214 62.105288 234.233994 62.368671 234.553416 62.385483 L 240.908246 62.671282 C 241.132402 62.68249 241.311727 62.867419 241.311727 63.091575 L 241.378974 68.448909 C 241.384578 68.857994 241.065155 69.199833 240.65607 69.216644 Q 237.473051 69.379158 234.295637 69.160605 Q 233.936987 69.132586 233.942591 69.49684 L 234.015441 74.517939 C 234.021045 74.725284 234.189162 74.899005 234.396507 74.904609 L 240.891434 75.111953 C 241.126798 75.117557 241.317331 75.313694 241.317331 75.549058 L 241.356558 81.074509 C 241.362162 81.438763 241.070759 81.730166 240.706505 81.73577 L 234.239598 81.814225 C 234.093896 81.814225 233.976214 81.931907 233.981818 82.077608 L 234.049065 87.11552 Q 234.054669 87.44615 234.385299 87.457358 L 240.566407 87.614268 C 240.897038 87.619871 241.166025 87.872047 241.194045 88.202678 Q 241.440617 90.898156 241.255688 93.638466 C 241.227668 94.00272 240.930661 94.282916 240.566407 94.288519 L 234.256409 94.366974 Q 233.953798 94.372578 233.953798 94.669585 Z" style="fill:#094c38;"/>
		<path d="M 339.671484 108.169395 C 328.671017 107.866784 317.7434 110.175593 307.381778 113.582768 Q 286.860274 120.335474 267.117714 131.621741 C 259.787805 135.813463 253.007079 140.834562 245.923742 145.687545 C 245.570695 145.928513 245.099967 145.911701 244.763733 145.648317 C 229.577148 133.745621 212.350741 124.583235 194.350995 117.471878 Q 179.797651 111.722271 166.606057 109.363026 C 161.265534 108.404759 156.104337 108.057316 150.578886 108.09094 Q 150.506035 108.09094 150.500431 108.018089 L 150.500431 108.012485 Q 150.494827 107.945238 150.562074 107.93403 Q 155.644817 107.082237 161.080605 107.127068 Q 168.729937 107.188711 175.790859 108.006881 Q 207.850805 111.727875 236.48116 125.748847 Q 240.644862 127.783065 244.875811 130.259992 C 245.18963 130.439317 245.570695 130.444921 245.890118 130.276803 Q 268.148833 118.301256 291.679634 112.361116 C 305.173839 108.948337 319.525442 106.908516 333.798591 107.317601 Q 336.768661 107.401659 339.671484 107.93403 Q 339.783562 107.956446 339.772354 108.074128 L 339.772354 108.079732 Q 339.761147 108.169395 339.671484 108.169395 Z" style="fill:#f38e26;"/>
		<path d="M 244.95987 159.002425 C 238.621852 154.199878 232.726543 149.077908 226.590266 144.297776 Q 218.918519 138.324012 211.779143 132.417496 Q 211.7175 132.36706 211.711896 132.288606 Q 211.706292 132.254982 211.728707 132.238171 Q 211.751123 132.204547 211.784746 132.226963 C 223.255942 138.480922 234.110708 146.42726 244.158511 154.328768 Q 245.385767 155.29264 246.674665 154.306352 C 250.698269 151.24662 254.598588 147.923503 258.734271 144.981453 Q 267.907865 138.46411 278.163012 132.540781 Q 279.99549 131.481643 278.353545 132.826581 Q 263.934695 144.617199 249.179611 156.262115 Q 247.683368 157.44454 246.069443 158.946386 Q 245.537072 159.43953 244.95987 159.002425 Z" style="fill:#8d8d8e;"/>
	</g>
	<g id="surface4">
	</g>
</svg>
