<?xml version="1.0" encoding="utf-8"?>
<svg xmlns="http://www.w3.org/2000/svg" width="490pt" height="280pt" viewBox="0 0 490 280" version="1.1" xmlns:xlink="http://www.w3.org/1999/xlink">
	<g id="surface2">
		<path d="M 252.070086 19.559751 Q 247.358703 20.40813 243.030326 20.181621 Q 241.312977 20.091017 238.920221 19.753313 L 238.178919 19.798615 Q 237.692955 19.572106 237.066967 19.658592 Q 237.293476 19.51445 237.268766 19.296177 C 237.256411 19.184982 237.161689 19.102615 237.050494 19.106734 L 235.530826 19.168509 C 235.291962 19.176746 235.127228 18.929645 235.226068 18.711373 C 235.600837 17.879468 235.963251 17.047563 236.074447 16.129173 Q 236.432742 13.176322 238.586635 10.960654 C 239.426777 10.095802 240.246327 9.832228 241.382989 9.770453 Q 241.70422 9.749861 241.82777 9.453341 L 242.058397 8.905601 C 242.107817 8.794406 242.190184 8.699684 242.293143 8.642027 C 243.298018 8.065459 245.361307 8.246666 246.539153 8.324915 C 247.226916 8.374335 248.021756 8.749104 248.202963 9.453341 Q 248.244147 9.609838 248.33475 9.737506 Q 248.466537 9.922832 248.688928 9.90224 Q 250.84282 9.733388 252.148335 11.730784 Q 253.457967 13.736416 253.79979 15.494948 Q 254.100429 17.059918 254.553446 18.612533 C 254.701707 19.119089 254.215742 19.580343 253.717423 19.407373 Q 252.008311 18.822568 252.070086 19.559751 Z M 247.813121 9.786885 C 247.815839 9.655139 247.712881 9.543944 247.581011 9.541432 L 247.564579 9.540979 C 247.432833 9.535707 247.321638 9.642784 247.319126 9.773089 L 247.134913 16.368078 C 247.132194 16.499823 247.235153 16.611019 247.367022 16.613531 L 247.383454 16.613984 C 247.5152 16.619255 247.626395 16.512178 247.628908 16.381874 L 247.813121 9.786885 Z M 242.957678 9.778237 C 242.956196 9.716914 242.902657 9.671613 242.84047 9.673425 L 242.569072 9.688621 C 242.507297 9.692204 242.461995 9.745743 242.46426 9.805829 L 242.831163 16.368489 C 242.832646 16.429812 242.886184 16.475113 242.948371 16.473301 L 243.21977 16.458105 C 243.281545 16.454522 243.326847 16.400983 243.324582 16.340897 L 242.957678 9.778237 Z" style="fill:#ffc602;"/>
		<path d="M 247.628908 16.381874 C 247.626395 16.512178 247.5152 16.619255 247.383454 16.613984 L 247.367022 16.613531 C 247.235153 16.611019 247.132194 16.499823 247.134913 16.368078 L 247.319126 9.773089 C 247.321638 9.642784 247.432833 9.535707 247.564579 9.540979 L 247.581011 9.541432 C 247.712881 9.543944 247.815839 9.655139 247.813121 9.786885 L 247.628908 16.381874 Z" style="fill:#fa7c00;"/>
		<path d="M 243.324582 16.340897 C 243.326847 16.400983 243.281545 16.454522 243.21977 16.458105 L 242.948371 16.473301 C 242.886184 16.475113 242.832646 16.429812 242.831163 16.368489 L 242.46426 9.805829 C 242.461995 9.745743 242.507297 9.692204 242.569072 9.688621 L 242.84047 9.673425 C 242.902657 9.671613 242.956196 9.716914 242.957678 9.778237 L 243.324582 16.340897 Z" style="fill:#fa7c00;"/>
		<path d="M 238.178919 19.798615 Q 238.335416 20.692295 238.294233 20.939396 Q 237.812387 23.657501 238.187156 25.770211 Q 238.224221 26.000838 237.960647 26.132625 C 236.478044 25.634305 236.490399 21.211206 236.659251 20.004532 Q 236.68808 19.778023 237.066967 19.658592 Q 237.692955 19.572106 238.178919 19.798615 Z" style="fill:#212223;"/>
		<path d="M 252.070086 19.559751 L 253.15321 19.794497 Q 251.752974 19.71213 251.818867 20.049834 Q 251.304075 19.988059 250.855175 20.086899 Q 246.061426 21.145313 241.177072 20.45755 Q 240.023936 20.296935 238.920221 19.753313 Q 241.312977 20.091017 243.030326 20.181621 Q 247.358703 20.40813 252.070086 19.559751 Z" style="fill:#4c4b4d;"/>
		<path d="M 238.178919 19.798615 L 238.920221 19.753313 Q 240.023936 20.296935 241.177072 20.45755 Q 246.061426 21.145313 250.855175 20.086899 Q 251.304075 19.988059 251.818867 20.049834 L 252.1854 26.066731 Q 251.752974 27.919985 251.287601 30.201547 Q 251.098158 31.132292 250.529826 31.910658 Q 249.879128 32.796102 249.290206 33.665072 L 245.612526 36.510846 Q 245.027722 36.55203 244.628243 36.366704 L 241.185309 33.673309 Q 240.398706 32.466635 239.579156 31.28467 Q 238.780197 30.127416 238.644292 29.246091 C 238.504268 28.348293 238.627819 26.775086 237.960647 26.132625 Q 238.224221 26.000838 238.187156 25.770211 Q 237.812387 23.657501 238.294233 20.939396 Q 238.335416 20.692295 238.178919 19.798615 Z" style="fill:#f5bc8e;"/>
		<path d="M 253.15321 19.794497 Q 253.668003 20.202213 253.639174 21.655987 Q 253.585636 24.402921 252.1854 26.066731 L 251.818867 20.049834 Q 251.752974 19.71213 253.15321 19.794497 Z" style="fill:#212223;"/>
		<path d="M 297.046497 45.134654 L 292.948747 41.296359 Q 293.780652 39.3072 294.760817 37.322159 C 295.39916 36.037237 295.658616 34.91293 295.852178 33.557995 C 295.918071 33.096741 296.511112 32.948481 296.787041 33.327368 Q 297.100035 33.751557 297.153574 34.29106 Q 297.334781 36.185497 297.557171 38.014041 Q 297.647775 38.767697 297.919585 39.438987 C 298.088437 39.867295 298.660887 39.957898 298.953289 39.599602 Q 299.632816 38.771816 300.361762 38.28997 Q 302.659797 36.778538 304.784861 35.151793 Q 305.83092 34.348717 306.057429 35.650113 L 306.218044 36.564385 Q 306.456908 37.948147 305.484979 38.965378 Q 301.613738 43.021945 297.046497 45.134654 Z" style="fill:#f5bc8e;"/>
		<path d="M 197.658554 41.66701 Q 197.563833 41.683483 197.489702 41.687602 Q 197.324969 41.699957 197.1973 41.802915 L 193.202509 45.134654 Q 188.981208 43.137258 185.571221 39.583129 Q 184.764026 38.738869 184.323364 37.976976 Q 184.055672 37.507485 184.508689 37.202728 Q 184.685778 37.083296 184.595174 36.885615 Q 184.236879 36.10313 184.813446 35.324764 C 185.011127 35.057072 185.385896 35.003533 185.64947 35.201213 L 191.373965 39.550182 C 191.604592 39.723153 191.929941 39.665496 192.08232 39.426632 C 192.774201 38.355863 193.128379 37.260384 193.058367 36.000172 Q 192.984237 34.665829 193.305467 33.66919 Q 193.482556 33.121451 194.125017 33.306776 C 194.363881 33.376788 194.54097 33.578587 194.582153 33.821569 Q 194.956922 36.111367 195.739407 38.009923 Q 196.468354 39.78081 197.114933 41.526986 Q 197.184945 41.720549 197.658554 41.66701 Z" style="fill:#f5bc8e;"/>
		<path d="M 241.185309 33.673309 L 244.628243 36.366704 L 245.171864 37.215083 L 244.072266 37.902846 C 243.808693 38.071698 243.639841 38.355863 243.615131 38.668857 Q 243.413332 41.424028 243.594539 44.208027 Q 243.672787 45.439411 244.414089 49.726605 Q 245.390136 55.389325 245.167745 61.175595 Q 244.768266 60.524897 244.690018 60.961441 Q 244.574704 54.63155 244.150515 51.616924 Q 243.726326 48.581706 241.906019 41.012194 Q 241.572433 39.628431 240.04041 35.691296 Q 240.2628 33.829806 241.185309 33.673309 Z" style="fill:#77b1ce;"/>
		<path d="M 249.290206 33.665072 L 250.550418 35.262989 Q 248.750703 42.898394 247.844668 48.013375 Q 246.778017 54.054982 246.675058 61.183832 Q 246.436195 61.097347 246.217923 61.175595 Q 245.979059 55.821751 246.8192 49.965469 Q 247.498727 45.221139 246.687414 39.867295 Q 246.650348 39.628431 246.806845 39.447224 Q 246.901567 39.340147 247.045709 39.3072 Q 247.346348 39.237188 247.198088 38.969496 Q 246.580337 37.869899 245.435438 37.210964 L 245.612526 36.510846 L 249.290206 33.665072 Z" style="fill:#77b1ce;"/>
		<path d="M 250.550418 35.262989 L 254.013944 36.189615 L 253.952168 61.192069 C 253.952168 61.406222 253.783316 61.583311 253.569163 61.591548 Q 250.463933 61.73569 247.148668 61.492707 Q 246.683295 61.459761 246.675058 61.183832 Q 246.778017 54.054982 247.844668 48.013375 Q 248.750703 42.898394 250.550418 35.262989 Z" style="fill:#fa7c00;"/>
		<path d="M 240.04041 35.691296 Q 241.572433 39.628431 241.906019 41.012194 Q 243.726326 48.581706 244.150515 51.616924 Q 244.574704 54.63155 244.690018 60.961441 Q 244.731201 61.295027 244.640598 61.467997 Q 244.566467 61.616258 244.393497 61.620376 Q 240.530493 61.678033 236.76221 61.591548 C 236.568648 61.587429 236.412151 61.426814 236.412151 61.233252 L 236.449216 36.218444 L 240.04041 35.691296 Z" style="fill:#fa7c00;"/>
		<path d="M 257.802818 36.416124 L 257.720451 61.16324 Q 257.716333 61.575074 258.132285 61.579193 L 262.954864 61.599784 Q 263.412 63.959594 262.88897 65.83344 L 246.996289 65.718126 Q 246.493851 65.714008 246.514443 66.220564 L 246.637993 69.13635 C 246.650348 69.465817 246.926277 69.729391 247.259863 69.729391 L 262.526556 69.659379 Q 263.115479 71.179047 262.386532 72.546337 C 262.295929 72.715189 262.122959 72.818147 261.929396 72.822266 Q 255.879552 72.867567 250.315673 72.797556 Q 250.282726 72.797556 248.322395 72.595757 Q 247.074538 72.472207 246.226159 72.995236 L 246.217923 61.175595 Q 246.436195 61.097347 246.675058 61.183832 Q 246.683295 61.459761 247.148668 61.492707 Q 250.463933 61.73569 253.569163 61.591548 C 253.783316 61.583311 253.952168 61.406222 253.952168 61.192069 L 254.013944 36.189615 C 255.405943 35.872503 256.476712 36.210207 257.802818 36.416124 Z" style="fill:#e8e9ea;"/>
		<path d="M 236.449216 36.218444 L 236.412151 61.233252 C 236.412151 61.426814 236.568648 61.587429 236.76221 61.591548 Q 240.530493 61.678033 244.393497 61.620376 Q 244.566467 61.616258 244.640598 61.467997 Q 244.731201 61.295027 244.690018 60.961441 Q 244.768266 60.524897 245.167745 61.175595 L 245.163627 72.731662 L 228.393739 72.682242 C 228.06839 72.682242 227.808935 72.422787 227.804816 72.097438 L 227.800698 69.659379 L 243.903414 69.675853 Q 244.76003 69.675853 244.764148 68.819238 L 244.78474 66.525321 Q 244.792976 65.763428 244.031083 65.75931 L 227.360035 65.722244 Q 226.939965 63.860754 227.257077 61.538009 L 232.09201 61.517418 C 232.174377 61.517418 232.24027 61.451524 232.24027 61.369157 L 232.14143 36.89797 Q 232.137312 36.671461 231.914921 36.667343 L 230.40349 36.646751 Q 233.904081 36.049592 235.926186 36.057829 Q 236.313311 36.061947 236.449216 36.218444 Z" style="fill:#e8e9ea;"/>
		<path d="M 244.628243 36.366704 Q 245.027722 36.55203 245.612526 36.510846 L 245.435438 37.210964 Q 245.307769 37.276858 245.171864 37.215083 L 244.628243 36.366704 Z" style="fill:#18293c;"/>
		<path d="M 257.802818 36.416124 L 262.637751 37.190373 C 262.88897 37.231556 263.070177 37.458065 263.049585 37.713402 L 262.806603 40.99572 Q 262.370059 47.185588 262.979574 53.260142 Q 263.317278 57.473206 262.954864 61.599784 L 258.132285 61.579193 Q 257.716333 61.575074 257.720451 61.16324 L 257.802818 36.416124 Z" style="fill:#fa7c00;"/>
		<path d="M 230.40349 36.646751 L 231.914921 36.667343 Q 232.137312 36.671461 232.14143 36.89797 L 232.24027 61.369157 C 232.24027 61.451524 232.174377 61.517418 232.09201 61.517418 L 227.257077 61.538009 Q 226.721692 57.184922 227.00174 52.757705 Q 227.594781 49.314771 227.533006 45.645328 Q 227.487704 42.807791 227.244722 39.941425 Q 226.878189 38.792408 227.014095 37.61868 C 227.034686 37.429236 227.178828 37.276858 227.364154 37.239793 L 230.40349 36.646751 Z" style="fill:#fa7c00;"/>
		<path d="M 245.171864 37.215083 Q 245.307769 37.276858 245.435438 37.210964 Q 246.580337 37.869899 247.198088 38.969496 Q 247.346348 39.237188 247.045709 39.3072 Q 246.901567 39.340147 246.806845 39.447224 Q 246.650348 39.628431 246.687414 39.867295 Q 247.498727 45.221139 246.8192 49.965469 Q 245.979059 55.821751 246.217923 61.175595 L 246.226159 72.995236 L 246.337354 73.658289 C 246.292053 74.654928 246.184976 76.664679 246.753307 77.500702 C 247.576975 78.715613 249.685566 79.14392 251.164051 79.152157 Q 256.390227 79.19334 261.608166 78.99566 Q 261.583456 78.188465 262.015882 77.760158 Q 270.359642 89.756887 273.835523 95.04072 Q 279.086408 103.005593 284.423779 110.83456 Q 286.812418 114.335151 288.995139 117.679245 C 293.58709 124.701017 298.261408 131.636305 302.836885 138.653959 Q 306.498091 144.267259 311.613072 152.030333 Q 311.876646 152.429813 312.14022 152.878712 C 312.885639 154.147161 312.206113 155.650356 310.888244 156.025125 Q 308.709641 156.642876 306.283938 155.456794 L 302.297383 149.658169 Q 302.334448 149.567565 302.375631 149.518145 Q 302.495063 149.390476 302.560957 149.551092 Q 302.779229 150.102949 303.252838 150.42418 Q 303.42169 150.535375 303.508175 150.712464 Q 304.051796 151.812061 304.718968 152.681031 Q 305.056672 153.125812 305.295536 153.60354 Q 305.63324 154.278948 306.283938 154.624889 Q 306.646352 154.814332 306.963464 155.06967 C 307.704765 155.658593 309.129712 155.675066 310.109877 155.609172 Q 311.122989 155.543279 311.584243 154.843161 Q 312.099036 154.064794 311.571888 152.961079 Q 311.147699 152.079753 310.595841 151.330215 Q 307.655345 147.331305 304.86311 142.867023 Q 304.274187 141.928041 303.648199 141.063189 Q 302.976909 140.140681 302.425051 139.14816 Q 301.630211 137.727332 300.641809 136.285913 Q 299.085076 134.00847 297.532461 131.850459 C 296.605834 130.565536 295.885125 129.152945 294.974971 127.925679 Q 293.867137 126.434839 292.994049 125.01813 Q 289.423446 119.231859 285.692229 113.630915 C 285.148607 112.811365 284.415543 112.164785 283.884277 111.30817 Q 281.981603 108.235887 279.803 105.254207 C 279.259379 104.504669 278.950503 103.672764 278.382172 102.943818 Q 277.793249 102.186043 277.249628 101.341783 Q 275.293416 98.302446 273.477227 95.444317 C 272.147002 93.3522 270.458482 91.523656 269.231216 89.345053 Q 268.119264 87.364131 266.603714 85.469693 Q 265.874768 84.563658 265.252898 83.583493 C 264.367455 82.203848 263.350224 80.939517 262.419479 79.613411 C 262.234154 79.349837 261.879976 79.259234 261.591692 79.407494 Q 260.825681 79.794618 259.56135 79.946997 Q 255.574795 79.951115 251.26701 80.033482 C 250.603957 80.049956 250.002679 80.062311 249.401401 79.778145 Q 248.380052 79.304536 247.362822 78.814453 C 246.732715 78.505577 246.304408 77.879589 245.85139 77.352442 Q 245.748432 77.23301 245.587816 77.228891 Q 244.690018 77.200063 244.714728 78.056678 C 244.718846 78.213175 244.665308 78.365554 244.566467 78.484986 Q 243.487462 79.7905 242.62261 79.856394 Q 239.019061 80.132322 231.013005 79.74108 L 228.537881 78.859755 C 228.443159 78.826808 228.336082 78.855636 228.274307 78.938003 Q 225.547965 82.529197 223.196392 86.157456 Q 218.773293 92.965075 214.280182 99.28673 Q 214.070147 99.583251 213.868348 99.888008 Q 209.226977 106.922136 204.515594 114.112761 Q 201.686293 118.437019 198.992897 122.390628 Q 197.535004 124.528047 196.15536 126.665466 Q 194.746887 128.839951 193.317822 130.932068 Q 191.995835 132.867689 190.834462 134.733298 Q 189.553658 136.792469 188.359339 138.530409 Q 185.060547 143.324159 181.860595 148.286761 Q 181.695862 148.542098 181.547601 148.694477 Q 180.95456 149.299873 180.950442 148.583281 Q 181.069874 148.253814 181.168714 148.105554 Q 188.095765 137.710859 194.849845 127.394413 Q 199.338838 120.537374 203.901961 113.729755 Q 206.68596 109.574348 209.173438 105.884314 Q 216.483495 95.024246 223.760605 84.139469 Q 225.860959 80.993056 228.393739 77.739566 Q 228.653195 77.887826 228.780863 78.097862 Q 229.217408 78.888583 229.847514 78.929767 Q 235.716151 79.321009 241.584788 79.131565 Q 243.821048 79.061554 244.624124 77.344205 C 245.159509 76.203424 244.994775 74.238975 245.163627 72.731662 L 245.167745 61.175595 Q 245.390136 55.389325 244.414089 49.726605 Q 243.672787 45.439411 243.594539 44.208027 Q 243.413332 41.424028 243.615131 38.668857 C 243.639841 38.355863 243.808693 38.071698 244.072266 37.902846 L 245.171864 37.215083 Z M 245.538396 38.981851 L 244.830041 39.01068 C 244.788858 39.01068 244.755911 39.047745 244.755911 39.088928 L 244.797095 40.093804 C 245.03184 45.925375 245.390136 50.640877 245.596053 50.63264 L 245.711366 50.628522 C 245.917284 50.620285 245.896692 45.88831 245.661946 40.060857 L 245.620763 39.055981 C 245.620763 39.01068 245.583698 38.977733 245.538396 38.981851 Z" style="fill:#212223;"/>
		<path d="M 245.538396 38.981851 C 245.583698 38.977733 245.620763 39.01068 245.620763 39.055981 L 245.661946 40.060857 C 245.896692 45.88831 245.917284 50.620285 245.711366 50.628522 L 245.596053 50.63264 C 245.390136 50.640877 245.03184 45.925375 244.797095 40.093804 L 244.755911 39.088928 C 244.755911 39.047745 244.788858 39.01068 244.830041 39.01068 L 245.538396 38.981851 Z" style="fill:#18293c;"/>
		<path d="M 227.244722 39.941425 Q 227.487704 42.807791 227.533006 45.645328 Q 227.594781 49.314771 227.00174 52.757705 Q 225.881551 54.668615 224.053007 55.702319 Q 218.361459 58.935217 211.615615 58.613987 C 203.881369 58.247454 197.959193 52.485894 193.791432 46.283671 Q 193.416662 45.727695 193.202509 45.134654 L 197.1973 41.802915 Q 197.324969 41.699957 197.489702 41.687602 Q 197.563833 41.683483 197.658554 41.66701 Q 198.78698 42.725424 202.781772 46.011861 Q 207.019545 49.495978 212.29926 48.915292 C 217.311282 48.363434 221.656132 44.912263 225.255563 41.411673 Q 225.613859 41.061614 226.276912 40.744502 Q 226.981148 40.406797 227.244722 39.941425 Z" style="fill:#77b1ce;"/>
		<path d="M 292.948747 41.296359 L 297.046497 45.134654 Q 292.858143 52.440592 285.914619 56.513632 Q 283.954288 57.666768 281.227946 58.177442 Q 272.929487 59.738294 265.611194 55.710556 Q 264.005041 54.825112 262.979574 53.260142 Q 262.370059 47.185588 262.806603 40.99572 Q 263.795005 40.279129 264.771052 41.185164 Q 265.985963 42.31359 269.573039 45.254086 Q 274.828043 49.570108 281.470928 48.857635 C 282.718786 48.72173 284.374359 47.947481 285.49043 47.243245 Q 289.546997 44.693991 292.948747 41.296359 Z" style="fill:#77b1ce;"/>
		<path d="M 227.800698 69.659379 L 227.360035 65.722244 L 244.031083 65.75931 Q 244.792976 65.763428 244.78474 66.525321 L 244.764148 68.819238 Q 244.76003 69.675853 243.903414 69.675853 L 227.800698 69.659379 Z" style="fill:#fa7c00;"/>
		<path d="M 262.88897 65.83344 L 262.526556 69.659379 L 247.259863 69.729391 C 246.926277 69.729391 246.650348 69.465817 246.637993 69.13635 L 246.514443 66.220564 Q 246.493851 65.714008 246.996289 65.718126 L 262.88897 65.83344 Z" style="fill:#fa7c00;"/>
		<path d="M 228.780863 78.097862 Q 228.653195 77.887826 228.393739 77.739566 L 227.96955 74.263685 Q 227.883065 73.571804 228.579065 73.600632 Q 236.342139 73.913626 244.051675 73.621224 C 244.315249 73.608869 244.541757 73.806549 244.570586 74.074242 C 244.644716 74.770241 244.537639 75.462123 244.471746 76.158123 C 244.307012 77.858998 243.19506 78.423211 241.53125 78.443802 Q 235.740861 78.522051 230.625881 78.307897 Q 230.32936 78.295542 229.711609 78.17611 Q 229.246236 78.081388 228.780863 78.097862 Z" style="fill:#fa7c00;"/>
		<path d="M 262.015882 77.760158 Q 261.583456 78.188465 261.608166 78.99566 Q 261.645231 78.357317 261.459906 78.361435 Q 256.311978 78.423211 251.164051 78.361435 C 249.734986 78.340844 247.655224 78.20082 246.983934 76.598785 Q 246.633875 75.762762 246.703887 73.563567 L 262.14355 73.682999 Q 262.341231 73.682999 262.324757 73.884798 L 262.015882 77.760158 Z" style="fill:#fa7c00;"/>
		<path d="M 246.337354 73.658289 Q 246.827437 73.645934 246.703887 73.563567 Q 246.633875 75.762762 246.983934 76.598785 C 247.655224 78.20082 249.734986 78.340844 251.164051 78.361435 Q 256.311978 78.423211 261.459906 78.361435 Q 261.645231 78.357317 261.608166 78.99566 Q 256.390227 79.19334 251.164051 79.152157 C 249.685566 79.14392 247.576975 78.715613 246.753307 77.500702 C 246.184976 76.664679 246.292053 74.654928 246.337354 73.658289 Z" style="fill:#e8e9ea;"/>
		<path d="M 259.56135 79.946997 Q 259.174226 82.207967 259.557232 84.501883 L 259.330723 96.807488 Q 259.281303 99.253783 259.215409 100.110398 Q 257.419812 122.748923 256.435529 145.313318 Q 256.386108 146.482927 255.253564 146.347022 C 255.125896 146.334667 255.035292 146.462335 255.092949 146.577649 C 255.830132 148.068489 256.53025 149.909387 258.259954 150.440653 C 259.977302 150.967801 262.592449 150.97192 262.683053 153.463516 C 262.728355 154.637244 260.722722 154.834924 259.874344 154.863753 C 256.962676 154.962593 254.203387 154.777267 252.551932 152.376274 Q 251.843577 151.350807 251.930063 152.594546 Q 251.979483 153.282309 251.995956 153.974191 Q 252.016548 154.843161 251.147578 154.826687 L 248.713638 154.785504 Q 247.910561 154.773149 247.955863 153.970072 Q 248.058821 152.195067 248.116478 150.580677 C 248.13707 149.938216 247.795247 149.592275 247.568739 149.048654 Q 247.482253 148.8345 247.511082 148.603873 L 247.774656 146.606477 Q 247.811721 146.338785 247.605804 146.169933 L 247.350467 145.964016 C 247.247508 145.881649 247.185733 145.753981 247.181615 145.622194 Q 246.778017 130.932068 246.259106 116.159576 Q 246.114964 112.05359 245.896692 107.935248 Q 245.55487 101.432386 245.126562 94.925406 Q 245.122444 94.884223 245.08126 94.884223 L 244.978302 94.884223 Q 244.776503 94.888341 244.768266 95.086021 L 243.730444 116.810274 Q 243.648077 116.386085 243.545119 115.982488 Q 243.44216 115.574772 243.289782 115.599482 C 243.038563 115.640665 242.857356 115.871292 242.857356 116.143103 Q 242.799699 125.355834 242.153119 134.432659 C 242.070752 135.635215 242.210776 136.780114 242.074871 137.990906 C 241.82777 140.260113 241.996622 142.624041 242.078989 144.88501 C 242.103699 145.593365 241.539486 146.186406 240.827013 146.198761 L 234.888364 146.272892 Q 233.570495 146.32643 233.504601 144.584371 Q 233.224554 137.159001 232.227915 118.222866 Q 232.021998 114.252784 231.713123 110.006774 Q 231.1242 101.910114 230.555869 93.813454 L 230.621762 87.874805 L 231.013005 79.74108 Q 239.019061 80.132322 242.62261 79.856394 Q 243.487462 79.7905 244.566467 78.484986 C 244.665308 78.365554 244.718846 78.213175 244.714728 78.056678 Q 244.690018 77.200063 245.587816 77.228891 Q 245.748432 77.23301 245.85139 77.352442 C 246.304408 77.879589 246.732715 78.505577 247.362822 78.814453 Q 248.380052 79.304536 249.401401 79.778145 C 250.002679 80.062311 250.603957 80.049956 251.26701 80.033482 Q 255.574795 79.951115 259.56135 79.946997 Z" style="fill:#18293c;"/>
		<path d="M 231.013005 79.74108 L 230.621762 87.874805 L 230.613525 85.42851 Q 230.613525 84.65838 230.15639 85.276131 C 228.459633 87.574166 227.05116 90.106946 225.424415 92.503821 Q 219.391044 101.395321 217.352465 104.603509 Q 213.835401 110.142679 210.375994 115.278251 C 205.928185 121.884071 201.653346 128.59285 197.316732 135.083357 C 193.408426 140.931402 189.874888 146.627069 186.205446 152.528653 Q 185.225281 154.110096 183.825044 155.580344 Q 181.769992 156.366947 179.96204 156.070427 C 175.699556 155.378545 179.385472 150.436535 180.950442 148.583281 Q 180.95456 149.299873 181.547601 148.694477 Q 181.695862 148.542098 181.860595 148.286761 Q 185.060547 143.324159 188.359339 138.530409 Q 189.553658 136.792469 190.834462 134.733298 Q 191.995835 132.867689 193.317822 130.932068 Q 194.746887 128.839951 196.15536 126.665466 Q 197.535004 124.528047 198.992897 122.390628 Q 201.686293 118.437019 204.515594 114.112761 Q 209.226977 106.922136 213.868348 99.888008 Q 214.070147 99.583251 214.280182 99.28673 Q 218.773293 92.965075 223.196392 86.157456 Q 225.547965 82.529197 228.274307 78.938003 C 228.336082 78.855636 228.443159 78.826808 228.537881 78.859755 L 231.013005 79.74108 Z" style="fill:#4c4b4d;"/>
		<path d="M 302.297383 149.658169 Q 296.614071 141.219686 291.235517 132.579405 C 288.89218 128.815241 286.421175 125.207573 283.970762 121.472237 Q 281.796277 118.148735 279.403521 114.61108 C 275.239877 108.441804 271.335689 102.111913 267.056732 95.897335 Q 263.206082 90.308745 259.557232 84.501883 Q 259.174226 82.207967 259.56135 79.946997 Q 260.825681 79.794618 261.591692 79.407494 C 261.879976 79.259234 262.234154 79.349837 262.419479 79.613411 C 263.350224 80.939517 264.367455 82.203848 265.252898 83.583493 Q 265.874768 84.563658 266.603714 85.469693 Q 268.119264 87.364131 269.231216 89.345053 C 270.458482 91.523656 272.147002 93.3522 273.477227 95.444317 Q 275.293416 98.302446 277.249628 101.341783 Q 277.793249 102.186043 278.382172 102.943818 C 278.950503 103.672764 279.259379 104.504669 279.803 105.254207 Q 281.981603 108.235887 283.884277 111.30817 C 284.415543 112.164785 285.148607 112.811365 285.692229 113.630915 Q 289.423446 119.231859 292.994049 125.01813 Q 293.867137 126.434839 294.974971 127.925679 C 295.885125 129.152945 296.605834 130.565536 297.532461 131.850459 Q 299.085076 134.00847 300.641809 136.285913 Q 301.630211 137.727332 302.425051 139.14816 Q 302.976909 140.140681 303.648199 141.063189 Q 304.274187 141.928041 304.86311 142.867023 Q 307.655345 147.331305 310.595841 151.330215 Q 311.147699 152.079753 311.571888 152.961079 Q 312.099036 154.064794 311.584243 154.843161 Q 311.122989 155.543279 310.109877 155.609172 C 309.129712 155.675066 307.704765 155.658593 306.963464 155.06967 Q 306.646352 154.814332 306.283938 154.624889 Q 305.63324 154.278948 305.295536 153.60354 Q 305.056672 153.125812 304.718968 152.681031 Q 304.051796 151.812061 303.508175 150.712464 Q 303.42169 150.535375 303.252838 150.42418 Q 302.779229 150.102949 302.560957 149.551092 Q 302.495063 149.390476 302.375631 149.518145 Q 302.334448 149.567565 302.297383 149.658169 Z" style="fill:#4c4b4d;"/>
		<path d="M 259.557232 84.501883 Q 263.206082 90.308745 267.056732 95.897335 C 271.335689 102.111913 275.239877 108.441804 279.403521 114.61108 Q 281.796277 118.148735 283.970762 121.472237 C 286.421175 125.207573 288.89218 128.815241 291.235517 132.579405 Q 296.614071 141.219686 302.297383 149.658169 L 306.283938 155.456794 Q 301.045407 155.872746 297.392438 155.617409 Q 297.017669 155.592699 296.667609 155.057315 C 295.312675 153.00638 294.056581 150.815423 292.709883 148.764488 C 287.541364 140.898456 282.558171 133.011831 277.430835 125.182863 Q 273.382505 119.009469 269.342412 112.597211 Q 267.773323 110.109732 265.442342 106.777994 Q 263.06194 103.380362 261.591692 100.909357 Q 261.113965 100.102162 259.330723 96.807488 L 259.557232 84.501883 Z" style="fill:#9e9fa0;"/>
		<path d="M 230.621762 87.874805 L 230.555869 93.813454 Q 230.473502 92.693265 230.539395 91.573076 Q 230.539395 91.552484 230.518804 91.548366 L 230.395253 91.544248 Q 230.312887 91.544248 230.308768 91.626614 Q 230.197573 94.583584 230.374662 97.536435 Q 230.407608 98.071819 229.501573 99.451464 Q 211.257319 127.188496 193.128379 155.48974 Q 192.988355 155.708013 192.728899 155.703894 L 183.825044 155.580344 Q 185.225281 154.110096 186.205446 152.528653 C 189.874888 146.627069 193.408426 140.931402 197.316732 135.083357 C 201.653346 128.59285 205.928185 121.884071 210.375994 115.278251 Q 213.835401 110.142679 217.352465 104.603509 Q 219.391044 101.395321 225.424415 92.503821 C 227.05116 90.106946 228.459633 87.574166 230.15639 85.276131 Q 230.613525 84.65838 230.613525 85.42851 L 230.621762 87.874805 Z" style="fill:#9e9fa0;"/>
		<path d="M 243.730444 116.810274 L 242.853237 145.737507 Q 242.845001 146.009318 242.593782 146.116395 L 242.280788 146.248182 C 242.177829 146.289365 242.120172 146.404679 242.144883 146.511755 C 242.437285 147.751376 242.589663 149.073364 241.87719 150.234736 Q 241.749522 150.444772 241.794823 150.683636 Q 242.140764 152.491588 241.930729 154.427208 Q 241.889545 154.781386 241.535368 154.801977 Q 240.061002 154.896699 238.541333 154.744321 C 238.273641 154.715492 238.055369 154.52193 237.997712 154.262475 L 237.577641 152.289789 C 237.540576 152.116819 237.322304 152.06328 237.206991 152.195067 C 236.531583 152.95696 236.132103 154.044203 235.040743 154.344841 C 233.323394 154.818451 228.66555 155.526806 227.500059 154.023611 Q 227.170592 153.599422 227.343562 153.026972 C 228.010733 150.823659 229.703372 151.099588 231.474259 150.625979 C 233.121596 150.189435 234.27885 147.693719 234.888364 146.272892 L 240.827013 146.198761 C 241.539486 146.186406 242.103699 145.593365 242.078989 144.88501 C 241.996622 142.624041 241.82777 140.260113 242.074871 137.990906 C 242.210776 136.780114 242.070752 135.635215 242.153119 134.432659 Q 242.799699 125.355834 242.857356 116.143103 C 242.857356 115.871292 243.038563 115.640665 243.289782 115.599482 Q 243.44216 115.574772 243.545119 115.982488 Q 243.648077 116.386085 243.730444 116.810274 Z" style="fill:#212223;"/>
	</g>
	<g id="surface4">
	</g>
</svg>
