<?xml version="1.0" encoding="utf-8"?>
<svg xmlns="http://www.w3.org/2000/svg" width="490pt" height="280pt" viewBox="0 0 490 280" version="1.1" xmlns:xlink="http://www.w3.org/1999/xlink">
	<g id="surface2">
		<path d="M 225.040663 117.102022 Q 217.358395 114.408468 209.179019 108.584188 Q 202.272382 103.66246 197.883018 98.303559 Q 184.605634 82.092881 185.564596 61.676171 Q 186.364905 44.591146 196.687842 30.91537 Q 198.771468 28.154831 201.264062 25.648134 Q 212.433142 14.415594 226.782306 9.772388 Q 234.052079 7.424343 241.780179 7.110565 Q 245.305773 6.969541 248.838417 7.163449 Q 261.329594 7.850939 272.329445 13.53067 Q 286.089835 20.63474 294.635873 32.519515 Q 302.762365 43.826092 304.3101 57.829749 Q 305.843734 71.727637 300.749251 84.687718 Q 296.645461 95.137576 288.14173 103.21471 Q 277.695397 113.132204 264.125389 117.592079 Q 261.84433 118.34303 259.073214 119.083405 Q 258.06842 119.354876 257.091831 119.457118 Q 255.946013 119.580514 257.053049 119.256159 Q 268.870838 115.776399 278.66141 108.538356 C 284.658444 104.10316 290.087857 97.848757 293.31025 91.164232 Q 299.561126 78.204152 299.857276 63.234483 Q 299.924263 59.867542 299.420103 55.901249 Q 298.295438 46.992075 294.512477 38.745713 C 289.950359 28.800014 281.372591 20.250451 271.814708 14.806935 Q 266.871826 11.989986 260.628001 10.015654 Q 256.742797 8.788747 253.393483 8.295164 C 245.64423 7.156398 237.937283 7.484278 230.515909 9.63489 Q 215.225411 14.06656 204.655683 25.708069 C 191.670923 40.007875 187.55303 60.336445 192.619308 78.852861 Q 197.664432 97.295239 212.651728 108.580663 C 214.950415 110.311729 217.633392 111.908823 220.129512 113.371944 Q 226.736473 117.250097 234.580918 119.576988 Q 234.65143 119.594616 234.637328 119.665128 L 234.612648 119.76737 Q 234.612648 119.774421 234.605597 119.770896 Q 233.212988 119.545258 232.077747 119.238531 Q 228.058571 118.1597 225.040663 117.102022 Z" style="fill:#d8a340;"/>
		<path d="M 236.199165 25.591724 C 239.389827 21.639534 244.424374 20.789866 249.053478 22.693687 C 252.025553 23.917068 254.070397 26.568314 253.643801 29.970511 Q 253.583865 30.432364 253.136115 30.308968 Q 251.672994 29.903525 250.255705 29.589747 Q 242.985932 27.975025 235.765517 30.266661 C 235.441163 30.368903 235.106231 30.136214 235.092129 29.794232 C 235.021617 28.264124 235.201422 26.825682 236.199165 25.591724 Z" style="fill:#000000;"/>
		<path d="M 250.721084 32.593553 C 252.543815 32.582976 254.02809 34.046097 254.042193 35.868829 L 254.052769 37.536434 C 254.091551 42.983476 249.906672 47.429249 244.709947 47.464505 L 244.167006 47.46803 C 238.966756 47.506812 234.721942 43.117448 234.68316 37.670407 L 234.672583 36.002801 C 234.658481 34.183595 236.125128 32.695795 237.944334 32.685218 L 250.721084 32.593553 Z" style="fill:#000000;"/>
		<path d="M 238.600094 107.522985 Q 237.623505 107.202156 237.630556 108.362076 Q 236.678646 107.480678 235.821927 106.560498 Q 228.446386 98.634964 222.911205 92.253641 C 217.414805 85.921675 212.718715 78.941001 209.320043 71.38918 Q 204.482929 60.646698 203.389995 47.718347 C 203.347688 47.238867 203.442879 46.798168 203.851848 46.498492 Q 208.3223 43.226742 212.880892 40.265243 Q 214.597856 39.151156 216.70616 38.287386 Q 217.309037 38.040594 217.400702 38.040594 Q 218.574725 38.033543 217.622815 38.703406 C 211.297901 43.149179 210.980597 50.778562 212.038275 57.794493 Q 213.268707 65.935087 216.381806 73.737225 Q 222.773706 89.746944 232.920364 101.095829 Q 237.249792 105.939994 238.600094 107.522985 Z" style="fill:#d8a340;"/>
		<path d="M 237.630556 108.362076 Q 237.623505 107.202156 238.600094 107.522985 L 244.403221 113.357842 C 244.632384 113.587005 245.002572 113.590531 245.235261 113.361367 Q 252.039656 106.666266 258.251751 99.149701 C 259.654937 97.450365 261.227351 95.193985 262.768036 93.244332 Q 264.25231 91.365191 266.170233 87.899533 Q 271.345804 78.532032 274.614029 69.019982 Q 277.004381 62.067512 277.804691 55.386513 Q 278.111417 52.851611 277.956291 50.101648 Q 277.522643 42.451111 271.127217 38.516549 C 271.042603 38.463665 271.024975 38.350846 271.088436 38.280334 L 271.165999 38.192195 C 271.278818 38.061748 271.465674 38.015915 271.624326 38.082901 C 276.694129 40.148899 280.720356 43.135076 285.123822 46.304584 C 285.642084 46.674772 286.068681 47.05201 286.06163 47.760654 Q 286.044002 48.952305 285.895927 50.189788 Q 284.439857 62.271996 279.736716 72.01321 Q 275.742219 80.291303 270.869849 86.827753 Q 267.238488 91.700123 261.833754 97.344597 C 259.750128 99.519888 257.853359 101.797422 255.797938 104.01502 Q 253.87649 106.091594 246.6596 113.724503 C 246.06025 114.35911 245.344554 114.729297 244.84392 115.409737 C 244.60418 115.734091 244.103545 115.688259 243.927266 115.325123 Q 243.62759 114.704618 243.151635 114.211035 Q 240.352314 111.291844 237.630556 108.362076 Z" style="fill:#d8a340;"/>
		<path d="M 244.477258 53.729484 Q 246.169543 51.843291 247.939391 49.541079 Q 248.253169 49.13211 248.679765 48.871216 C 248.912454 48.726667 249.219181 48.86064 249.265014 49.13211 C 249.733918 51.818612 246.582037 54.875302 244.551296 56.327846 C 244.364439 56.458293 244.114122 56.447716 243.941368 56.296116 C 242.576963 55.093888 238.825732 51.194582 239.213548 49.304864 C 239.273483 49.019291 239.576684 48.86064 239.841103 48.973459 Q 240.260649 49.153264 240.59558 49.470567 Q 242.450042 51.243941 244.121173 53.704805 C 244.202262 53.8282 244.378542 53.838777 244.477258 53.729484 Z" style="fill:#000000;"/>
		<path d="M 243.817972 60.78067 L 243.796819 87.268452 C 243.796819 87.434155 243.662846 87.568127 243.497143 87.568127 Q 236.160384 87.529346 229.253747 87.543448 C 227.134865 87.550499 225.632962 87.053391 225.513092 84.645411 Q 225.414376 82.731013 225.414376 80.516941 Q 225.403799 68.420631 225.456683 55.358308 C 225.463734 53.461539 227.762421 52.749369 229.355989 52.181748 Q 233.015555 50.877279 236.135705 49.992355 C 236.428329 49.907741 236.735055 50.08402 236.812619 50.38017 C 237.521263 53.066672 238.392084 55.361833 240.458082 57.322063 Q 241.833063 58.630058 243.363171 59.839337 C 243.652269 60.0685 243.817972 60.414008 243.817972 60.78067 Z" style="fill:#000000;"/>
		<path d="M 252.346382 50.059341 C 255.681593 51.050033 259.154303 51.942008 262.26035 53.408655 C 263.406168 53.948071 263.437898 54.981069 263.434373 56.066952 Q 263.409694 69.1328 263.441424 82.523003 C 263.448475 85.657256 263.113544 87.49409 259.510388 87.515243 Q 252.413368 87.557551 245.527885 87.536397 C 245.457373 87.536397 245.397438 87.479988 245.397438 87.409476 Q 245.443271 74.512856 245.404489 60.805349 Q 245.400964 60.153115 245.887495 59.730043 Q 247.156709 58.619482 248.387141 57.396101 C 250.343845 55.449973 251.482612 53.066672 251.895106 50.344914 C 251.926837 50.133379 252.138372 49.999406 252.346382 50.059341 Z" style="fill:#000000;"/>
		<path d="M 240.845897 115.533133 Q 233.565547 108.721687 226.976214 100.454171 Q 225.689372 98.839449 221.821796 93.610994 Q 221.783015 93.554585 221.835899 93.512278 L 221.90641 93.455868 Q 221.909936 93.452342 221.916987 93.455868 Q 224.878486 96.946205 225.717577 97.887539 Q 230.149247 102.844523 240.789488 113.678671 C 241.625053 114.528339 242.686257 115.36743 243.59586 116.252354 Q 243.944894 116.590811 243.684 116.999779 Q 243.571181 117.179585 243.334966 117.295929 C 243.105802 117.412274 242.830806 117.369967 242.640424 117.197213 Q 241.720244 116.35107 240.845897 115.533133 Z" style="fill:#d8a340;"/>
		<path d="M 254.405329 108.908543 Q 254.348919 108.5031 254.214947 108.393806 C 254.133858 108.32682 254.013988 108.355025 253.968155 108.44669 Q 253.150217 110.086091 251.390946 110.364613 L 265.697804 93.76612 Q 265.740111 93.720288 265.785944 93.759069 L 265.859981 93.815479 Q 265.870558 93.829581 265.859981 93.843683 Q 264.107761 96.008398 262.598807 98.032088 Q 261.999456 98.839449 261.357798 99.572772 C 260.761973 100.249686 260.342428 101.018265 259.806537 101.723384 Q 257.088305 105.29481 254.405329 108.908543 Z" style="fill:#d8a340;"/>
		<path d="M 254.405329 108.908543 L 247.689074 118.441747 C 247.625613 118.533412 247.632664 118.656808 247.710227 118.737897 Q 249.039376 120.179865 250.273333 121.526641 Q 258.332839 130.319471 266.572151 139.263901 Q 272.967577 146.205794 280.5335 153.020765 Q 281.256247 153.669474 280.74151 154.490938 L 280.678049 154.589654 Q 280.14921 155.435797 279.444092 154.730678 Q 274.744476 150.020485 271.959257 147.612505 Q 265.503896 142.02444 258.903986 136.097918 C 256.407866 133.859166 254.303086 131.779066 251.842222 129.057308 Q 248.53169 125.394217 245.0202 121.893303 C 244.935585 121.808689 244.798087 121.808689 244.713473 121.896828 Q 240.644938 126.092284 236.914861 130.513378 Q 235.345972 132.371366 230.240913 136.979316 C 223.806705 142.796545 217.182116 148.409289 210.941816 154.607282 Q 210.222595 155.319452 209.429336 154.684845 Q 209.334145 154.603757 209.281261 154.487412 Q 208.900497 153.606014 209.633821 152.985509 Q 214.231194 149.09678 218.112872 144.971836 Q 229.281951 133.101164 240.659041 120.796843 Q 243.239775 118.004574 246.102557 115.734091 Q 248.362462 113.939565 251.390946 110.364613 Q 253.150217 110.086091 253.968155 108.44669 C 254.013988 108.355025 254.133858 108.32682 254.214947 108.393806 Q 254.348919 108.5031 254.405329 108.908543 Z" style="fill:#4b1904;"/>
		<path d="M 246.764839 136.913141 C 244.061238 138.07225 240.912883 136.771306 239.728672 134.010238 C 238.543685 131.250227 239.777642 128.070142 242.478776 126.912937 C 245.182377 125.753827 248.330732 127.054771 249.514943 129.81584 C 250.69993 132.57585 249.465973 135.755935 246.764839 136.913141 Z" style="fill:#d8a340;"/>
	</g>
	<g id="surface4">
	</g>
</svg>
