<?xml version="1.0" encoding="utf-8"?>
<svg xmlns="http://www.w3.org/2000/svg" width="490pt" height="280pt" viewBox="0 0 490 280" version="1.1" xmlns:xlink="http://www.w3.org/1999/xlink">
	<g id="surface2">
		<path d="M 150.172884 28.048817 C 147.704267 27.807614 145.915547 25.425695 146.183398 22.724271 C 146.444862 20.023029 148.66251 18.033534 151.131127 18.276015 C 153.599744 18.517219 155.388464 20.899137 155.120613 23.600561 C 154.859149 26.301803 152.641501 28.291298 150.172884 28.048817 Z" style="fill:#0e2b40;"/>
		<path d="M 338.032159 28.103118 C 335.529046 27.679848 333.868091 25.142785 334.324945 22.440996 C 334.780703 19.740119 337.180874 17.887516 339.688003 18.312976 C 342.191117 18.736246 343.852072 21.273308 343.395218 23.975098 C 342.939459 26.675974 340.539288 28.528578 338.032159 28.103118 Z" style="fill:#0e2b40;"/>
		<path d="M 229.766383 85.813264 C 226.928158 92.374948 225.349339 94.939389 218.030186 96.034524 Q 215.684772 96.381317 214.20634 98.617218 Q 205.582152 111.603693 198.527657 123.05698 Q 195.269631 128.350133 191.491415 132.064466 C 186.855343 136.627528 179.77347 136.937816 174.206534 133.999204 C 163.857508 128.532655 163.857508 116.349278 165.90176 106.493063 Q 171.879372 77.727517 177.218155 50.695935 Q 180.156768 35.792973 193.563045 26.858497 C 195.452153 25.599092 198.30863 25.01502 200.61754 24.89638 Q 207.334368 24.549587 214.65352 24.869002 C 215.082448 24.887254 215.493124 25.097155 215.748655 25.443947 C 217.1267 27.269172 218.431736 29.55983 220.959672 29.84274 Q 224.30896 30.207785 227.557861 30.216911 Q 246.138651 30.253415 265.166622 30.198659 Q 267.174369 30.198659 269.136486 29.979632 C 269.41027 29.952253 269.656675 29.824487 269.848324 29.623713 L 273.480522 25.662974 C 273.927702 25.17929 274.539152 24.887254 275.196233 24.850749 Q 282.652277 24.394443 289.505997 24.969389 C 298.522609 25.717731 307.484463 36.942865 310.094535 44.572305 Q 311.828499 49.664683 313.553337 58.599159 Q 317.815237 80.693508 322.953245 105.480064 C 323.655957 108.847604 324.130515 112.324657 324.395173 115.774333 C 325.170894 125.822196 319.585705 134.300366 309.309688 135.733168 C 301.150933 136.864807 295.894285 131.982331 291.887916 125.630548 Q 283.026448 111.621946 274.146729 97.385191 Q 273.434891 96.253551 272.138981 96.116659 Q 269.492405 95.833749 266.718063 95.185795 C 262.27364 94.154542 260.658316 89.399831 258.988235 85.785886 C 258.842217 85.457345 258.504551 85.247444 258.139506 85.247444 L 230.633365 85.238318 Q 230.012788 85.238318 229.766383 85.813264 Z M 294.078368 39.992725 C 293.247708 37.317036 290.309096 35.84773 287.51276 36.713525 C 284.714782 37.581694 283.11771 40.447297 283.948005 43.128644 C 284.778664 45.804332 287.717277 47.273638 290.513613 46.407843 C 293.311591 45.539675 294.908663 42.674071 294.078368 39.992725 Z M 195.315261 51.599422 L 189.10037 51.681557 Q 186.307776 51.718061 186.517677 54.510655 L 186.672821 56.509277 Q 186.855343 58.945952 189.292019 59.183231 Q 192.166748 59.466141 195.169243 59.338376 C 195.716811 59.320123 196.173117 59.739925 196.200495 60.278366 L 196.428648 65.863555 C 196.465153 66.776167 197.231747 67.488005 198.14436 67.460627 L 203.948575 67.278104 C 204.724296 67.250726 205.353999 66.630149 205.372251 65.854429 L 205.509143 60.132348 C 205.518269 59.840312 205.755548 59.612159 206.047584 59.630412 Q 208.922314 59.812934 211.879178 59.25624 Q 215.018565 58.672168 215.009439 55.468899 L 215.000313 54.738809 Q 214.991187 51.6268 211.888304 51.654178 L 206.074963 51.690683 C 205.545647 51.690683 205.116719 51.261755 205.125846 50.741566 L 205.189728 42.546306 Q 205.189728 41.85272 204.487017 41.85272 L 197.69718 41.834468 Q 197.01272 41.834468 197.01272 42.518927 Q 196.985342 46.607431 196.090982 50.951467 Q 195.963216 51.590295 195.315261 51.599422 Z M 284.638305 51.73102 C 283.89343 49.409152 281.292485 48.158872 278.817936 48.952024 C 276.346125 49.737692 274.940702 52.265629 275.683386 54.588958 C 276.42826 56.910826 279.029206 58.161105 281.503755 57.367954 C 283.975565 56.582286 285.380989 54.054349 284.638305 51.73102 Z M 301.763752 54.654574 C 302.38296 52.293007 300.886275 49.856332 298.40981 49.199798 C 295.930789 48.54217 293.421105 49.929341 292.799159 52.28598 C 292.179952 54.647547 293.676636 57.084223 296.153102 57.740756 C 298.632122 58.398385 301.141807 57.011214 301.763752 54.654574 Z M 261.233353 51.172045 C 261.233262 50.586422 260.758704 50.102737 260.17308 50.096896 L 251.394022 50.035569 C 250.802101 50.029728 250.318417 50.504287 250.318782 51.095933 L 250.318325 51.168942 C 250.318417 51.754566 250.792975 52.23825 251.378598 52.244091 L 260.157657 52.305419 C 260.749577 52.311259 261.233262 51.836701 261.232897 51.245054 L 261.233353 51.172045 Z M 239.084248 51.087902 C 239.084157 50.559043 238.664355 50.130115 238.131024 50.12464 L 229.753333 50.080834 C 229.227942 50.075359 228.789888 50.504287 228.79007 51.034058 L 228.789796 51.088815 C 228.789888 51.617674 229.209689 52.046602 229.74302 52.052077 L 238.120712 52.095883 C 238.646103 52.101358 239.084157 51.672431 239.083974 51.142659 L 239.084248 51.087902 Z M 293.77675 62.817711 C 293.749645 60.232736 291.486366 58.170232 288.717865 58.197884 C 285.946808 58.224988 283.72916 60.342249 283.756812 62.922661 C 283.783917 65.507636 286.047196 67.57014 288.815697 67.542488 C 291.586754 67.515384 293.804402 65.398123 293.77675 62.817711 Z" style="fill:#0e2b40;"/>
		<path d="M 196.090982 50.951467 Q 196.985342 46.607431 197.01272 42.518927 Q 197.01272 41.834468 197.69718 41.834468 L 204.487017 41.85272 Q 205.189728 41.85272 205.189728 42.546306 L 205.125846 50.741566 C 205.116719 51.261755 205.545647 51.690683 206.074963 51.690683 L 211.888304 51.654178 Q 214.991187 51.6268 215.000313 54.738809 L 215.009439 55.468899 Q 215.018565 58.672168 211.879178 59.25624 Q 208.922314 59.812934 206.047584 59.630412 C 205.755548 59.612159 205.518269 59.840312 205.509143 60.132348 L 205.372251 65.854429 C 205.353999 66.630149 204.724296 67.250726 203.948575 67.278104 L 198.14436 67.460627 C 197.231747 67.488005 196.465153 66.776167 196.428648 65.863555 L 196.200495 60.278366 C 196.173117 59.739925 195.716811 59.320123 195.169243 59.338376 Q 192.166748 59.466141 189.292019 59.183231 Q 186.855343 58.945952 186.672821 56.509277 L 186.517677 54.510655 Q 186.307776 51.718061 189.10037 51.681557 L 195.315261 51.599422 Q 195.963216 51.590295 196.090982 50.951467 Z" style="fill:#08bff8;"/>
		<path d="M 284.638305 51.73102 C 285.380989 54.054349 283.975565 56.582286 281.503755 57.367954 C 279.029206 58.161105 276.42826 56.910826 275.683386 54.588958 C 274.940702 52.265629 276.346125 49.737692 278.817936 48.952024 C 281.292485 48.158872 283.89343 49.409152 284.638305 51.73102 Z" style="fill:#08bff8;"/>
		<path d="M 301.763752 54.654574 C 301.141807 57.011214 298.632122 58.398385 296.153102 57.740756 C 293.676636 57.084223 292.179952 54.647547 292.799159 52.28598 C 293.421105 49.929341 295.930789 48.54217 298.40981 49.199798 C 300.886275 49.856332 302.38296 52.293007 301.763752 54.654574 Z" style="fill:#fc933a;"/>
		<path d="M 293.77675 62.817711 C 293.804402 65.398123 291.586754 67.515384 288.815697 67.542488 C 286.047196 67.57014 283.783917 65.507636 283.756812 62.922661 C 283.72916 60.342249 285.946808 58.224988 288.717865 58.197884 C 291.486366 58.170232 293.749645 60.232736 293.77675 62.817711 Z" style="fill:#08bff8;"/>
		<path d="M 376.423212 149.45886 C 376.824761 155.993165 373.97741 163.604354 367.251456 165.639479 Q 361.063943 167.510335 357.815043 162.792128 Q 356.865926 161.404957 357.440872 159.871768 Q 361.100448 150.106815 357.011944 140.752537 Q 352.604025 130.686421 344.098477 123.887458 Q 339.581045 120.282638 333.366154 117.307522 C 333.083244 117.17063 332.891595 116.88772 332.873343 116.568305 Q 332.818586 115.683071 333.758577 115.75608 C 340.785694 116.331026 348.196107 118.448287 354.693908 121.195251 C 366.357096 126.123358 375.629239 136.618402 376.423212 149.45886 Z" style="fill:#08bff8;"/>
		<path d="M 155.570987 118.046738 C 141.872673 124.279881 128.676297 138.251978 131.368503 154.359589 C 131.998206 158.137805 134.845557 161.496219 130.729675 164.653858 Q 127.927954 166.807623 124.250126 166.059281 C 119.166874 165.018903 115.726325 160.610985 114.658569 155.755886 C 110.460551 136.727916 126.978837 122.345143 143.561006 118.128873 Q 150.925789 116.258017 155.735257 116.066369 Q 157.505725 115.99336 156.41059 117.389657 Q 156.063798 117.818585 155.570987 118.046738 Z" style="fill:#08bff8;"/>
	</g>
	<g id="surface4">
	</g>
</svg>
