<?xml version="1.0" encoding="utf-8"?>
<svg xmlns="http://www.w3.org/2000/svg" width="490pt" height="280pt" viewBox="0 0 490 280" version="1.1" xmlns:xlink="http://www.w3.org/1999/xlink">
	<g id="surface2">
		<path d="M 246.823332 24.154071 Q 228.38567 42.063768 208.357254 60.055745 C 208.19955 60.192879 208.000705 60.268302 207.795004 60.261446 Q 206.499088 60.220306 205.086608 59.911754 C 200.931449 58.992957 195.206106 57.450199 192.374289 54.193268 Q 188.2397 49.448432 187.910579 44.175631 C 187.787158 42.214615 189.336772 39.698207 190.550408 38.169163 C 198.490464 28.158383 209.728593 21.123411 221.618109 17.269946 C 243.888665 10.049842 269.710992 13.622182 287.963523 29.008614 C 288.100657 29.125178 288.107514 29.330879 287.984094 29.454299 Q 279.584638 38.169163 270.917771 46.21207 C 270.581793 46.520622 270.06754 46.513765 269.738419 46.1915 L 247.481575 24.154071 Q 247.152454 23.831806 246.823332 24.154071 Z" style="fill:#f06401;"/>
		<path d="M 254.489121 129.493531 Q 254.797673 129.424964 254.735962 130.192914 Q 254.626255 131.40655 252.548676 135.938827 C 252.185271 136.741061 252.06185 138.064404 252.260694 138.907778 Q 253.776025 145.387358 254.571402 152.244056 C 254.626255 152.737739 255.078797 153.094287 255.57248 153.02572 Q 261.194972 152.244056 266.467774 150.337894 Q 266.570624 150.296754 266.591194 150.20076 Q 266.625478 150.070483 266.522627 149.960776 C 266.467774 149.899066 266.39235 149.864782 266.31007 149.864782 C 261.174402 149.652224 259.323094 145.270794 258.849982 140.882507 C 258.808841 140.512245 259.076253 140.183124 259.439658 140.141984 Q 259.919627 140.08713 260.228178 140.347684 Q 260.406452 140.505389 260.63958 140.423108 Q 260.769857 140.375111 260.838424 140.237977 Q 261.002985 139.881429 260.68072 139.648301 Q 260.276175 139.367177 260.495589 138.928348 Q 262.77887 134.27265 262.120627 129.383824 Q 262.984571 129.034132 264.91816 128.629587 C 267.338574 128.122191 269.409297 124.96811 270.856061 122.78768 Q 273.290189 119.126203 276.471697 115.944694 Q 276.841958 115.567576 276.334563 115.711567 L 275.134641 116.054402 C 274.736952 116.164109 274.318693 116.020118 274.085566 115.68414 Q 271.034335 111.439843 271.911992 105.00826 Q 272.234257 102.656413 272.796506 104.96712 C 273.413609 107.483528 274.38726 109.609105 276.471697 111.282139 Q 277.747043 112.303788 278.70698 113.702554 Q 278.960678 114.072816 279.344653 113.853401 Q 286.647037 109.663959 295.457895 111.172432 Q 295.92415 111.254713 295.471608 111.412417 Q 290.04796 113.236299 284.768302 115.094464 C 280.215454 116.692075 276.533407 119.139916 274.126706 123.466493 C 270.890344 129.274116 267.194584 134.066949 262.504602 138.846067 Q 261.969779 139.387747 262.71716 139.559164 L 272.618232 141.746451 C 272.93364 141.815018 273.105058 142.150996 272.981637 142.445834 C 272.199974 144.283429 270.012687 145.805616 268.607064 147.204383 Q 268.271085 147.540361 268.524783 147.93805 C 270.410375 150.879573 275.861451 149.51509 278.700124 148.109467 Q 290.953044 142.027576 300.730696 130.686596 Q 302.266597 128.903855 302.273453 126.723425 Q 302.273453 126.394303 302.499724 126.154319 Q 308.286778 119.92158 312.057962 110.918734 Q 317.906726 96.97221 318.976371 79.261357 Q 319.586617 69.250577 318.386695 61.454511 Q 318.386695 61.447655 318.434692 61.420228 L 318.599252 61.331091 Q 318.674676 61.289951 318.695246 61.372231 Q 322.795552 74.317678 322.925829 86.700875 C 323.083533 101.881606 317.666741 116.45209 308.903881 129.301543 Q 298.577693 144.434277 283.074697 152.689742 C 266.755755 161.384036 247.7627 163.612463 229.400461 160.163543 C 216.9007 157.818552 206.073973 152.573178 196.19347 144.756542 C 174.149185 127.299387 163.994414 99.83831 167.697031 72.096107 C 169.335782 59.802047 173.717213 48.666769 178.283774 37.051521 Q 181.191014 29.646287 186.258114 23.78381 Q 187.43061 22.426183 186.525526 23.975797 C 185.503877 25.737969 184.557653 27.493283 184.00226 29.454299 C 180.656192 41.295818 184.955342 53.973853 192.408573 63.607515 Q 197.393393 70.052811 205.984836 75.757584 Q 208.206406 77.238631 210.661104 78.328846 C 210.750241 78.369987 210.763955 78.48655 210.688531 78.548261 Q 207.445313 80.934392 204.160954 83.320523 C 202.076518 84.828997 199.875518 85.720367 197.208262 85.638087 Q 193.190237 85.514666 189.556186 84.952417 C 189.391626 84.92499 189.329915 84.726146 189.453336 84.616439 Q 194.218741 80.433853 199.834377 78.397413 C 199.950941 78.356273 199.971511 78.191712 199.861804 78.123145 Q 185.819286 69.401425 180.231076 53.055056 Q 179.922525 52.156828 179.55912 53.034485 C 171.392792 72.898341 171.070527 93.56443 179.696254 113.250012 Q 187.807728 131.763098 205.388303 143.268638 Q 212.875818 148.164321 221.371267 150.303611 Q 223.222576 150.769866 224.998461 150.715013 C 225.101311 150.708156 225.156165 150.591592 225.087598 150.509312 C 221.549542 146.189592 217.70979 142.150996 214.398005 137.502155 Q 210.517114 132.064793 206.773356 126.750851 Q 202.007951 119.976433 200.869739 111.597548 Q 200.465194 108.614884 201.000016 105.933915 Q 201.287997 104.494008 201.658259 105.913344 Q 204.874051 118.221118 215.618497 125.153241 Q 219.108557 127.402238 223.25686 128.204471 Q 223.585981 128.273038 223.647691 128.60216 Q 223.963099 130.432898 225.286442 132.21564 Q 228.029122 135.918257 231.327194 139.771722 C 231.532895 140.00485 231.807163 140.162554 232.115714 140.203694 Q 236.935973 140.868794 239.959777 137.399304 C 240.124338 137.214173 240.096911 136.926192 239.904924 136.775345 Q 237.244525 134.690908 234.837823 132.579045 Q 234.021876 131.865948 233.960166 130.8443 C 233.925882 130.268338 234.378425 129.781512 234.954387 129.767799 Q 240.398606 129.651235 245.794828 128.499309 C 245.986815 128.458169 246.103379 128.252468 246.041669 128.060481 Q 243.669251 121.011795 239.946064 114.662492 C 238.828422 112.75633 238.279886 110.205638 238.581581 107.970354 C 239.178113 103.540927 239.76779 99.516045 238.410163 95.491163 C 235.262939 86.138626 226.280664 78.335703 217.572656 74.098263 C 213.924893 72.322378 210.181135 70.999036 206.636222 68.756895 C 203.35872 66.679316 199.882374 64.217761 197.400249 61.331091 Q 196.940851 60.796268 197.592237 61.08425 C 198.853869 61.639642 200.149786 62.181321 201.479985 62.572153 Q 206.999627 64.204047 212.471273 66.158206 C 226.376657 71.115599 244.313781 84.554729 244.423488 101.230219 Q 244.444058 104.898553 243.909235 108.676594 Q 243.48412 111.672971 244.642902 114.635065 Q 246.658772 119.757019 248.44837 124.700698 Q 249.017476 126.298309 249.13404 128.122191 Q 249.15461 128.471883 249.504301 128.54045 L 254.489121 129.493531 Z M 248.962622 139.079195 C 249.127183 139.044912 249.27803 138.976345 249.408308 138.880351 L 250.621943 137.961553 C 251.485887 137.30331 250.951065 135.931971 249.867706 136.027964 L 246.809619 136.315946 C 246.274796 136.370799 245.856538 136.802771 245.829111 137.337594 L 245.787971 138.331815 C 245.753687 139.024342 246.377647 139.572878 247.063317 139.4426 L 248.962622 139.079195 Z" style="fill:#031e39;"/>
		<path d="M 262.120627 129.383824 Q 262.77887 134.27265 260.495589 138.928348 Q 260.276175 139.367177 260.68072 139.648301 Q 261.002985 139.881429 260.838424 140.237977 Q 260.769857 140.375111 260.63958 140.423108 Q 260.406452 140.505389 260.228178 140.347684 Q 259.919627 140.08713 259.439658 140.141984 C 259.076253 140.183124 258.808841 140.512245 258.849982 140.882507 C 259.323094 145.270794 261.174402 149.652224 266.31007 149.864782 C 266.39235 149.864782 266.467774 149.899066 266.522627 149.960776 Q 266.625478 150.070483 266.591194 150.20076 Q 266.570624 150.296754 266.467774 150.337894 Q 261.194972 152.244056 255.57248 153.02572 C 255.078797 153.094287 254.626255 152.737739 254.571402 152.244056 Q 253.776025 145.387358 252.260694 138.907778 C 252.06185 138.064404 252.185271 136.741061 252.548676 135.938827 Q 254.626255 131.40655 254.735962 130.192914 Q 254.797673 129.424964 254.489121 129.493531 Q 254.749676 129.075272 254.543975 128.615873 Q 253.618321 126.56572 251.938429 124.289297 Q 250.279108 122.040299 247.495289 114.813339 Q 249.641435 110.898164 251.753299 106.996703 Q 253.062928 104.576288 253.563467 102.560419 C 254.585115 98.4464 251.904146 93.783845 249.792283 90.293785 C 249.387738 89.621829 249.401451 88.778455 249.833423 88.120212 C 251.945286 84.876993 254.468551 81.565208 255.833034 78.082005 Q 259.377947 69.003736 256.923249 59.356362 Q 256.827255 58.979243 256.662695 58.608981 Q 255.860461 56.833096 256.004452 58.211293 Q 255.778181 57.086794 255.263928 56.874237 Q 254.921093 56.737103 254.715392 57.038797 Q 252.390972 60.350583 249.559155 62.723 Q 243.511547 67.790101 237.244525 71.293874 Q 236.284587 71.828696 235.317792 71.335014 Q 228.481664 67.817528 221.474118 64.663446 C 221.350697 64.608593 221.330127 64.450889 221.426121 64.361751 Q 234.255004 53.075626 246.549064 41.391811 C 246.830189 41.1244 247.275874 41.131257 247.543286 41.405525 L 268.703057 63.010982 C 268.943042 63.26468 269.347587 63.271536 269.601285 63.024695 L 294.120839 39.355372 C 294.312826 39.170241 294.628234 39.183954 294.806509 39.382799 C 307.978226 53.905286 313.347021 73.947416 310.85804 93.338159 C 310.446638 96.547094 309.562124 100.146861 308.321061 103.143238 Q 307.751955 104.528291 306.346332 104.960263 C 302.060896 106.256179 297.604042 107.81265 293.092334 108.313189 Q 288.923461 108.779444 284.302046 109.567965 Q 282.210753 109.917656 280.70228 108.957719 Q 276.170002 106.064192 273.468463 101.367353 Q 273.303902 101.086229 273.214765 100.770821 L 272.93364 99.790313 Q 272.775936 99.228063 272.487955 99.742316 Q 270.197818 103.801481 270.136107 108.64231 Q 270.08811 113.140305 272.762223 116.225819 C 273.036491 116.548084 273.015921 117.021196 272.714226 117.316034 Q 269.368157 120.518112 265.64497 123.720191 Q 263.135418 125.880051 262.120627 129.383824 Z" style="fill:#f06401;"/>
		<path d="M 247.495289 114.813339 Q 245.527416 111.988379 244.965167 108.930292 C 244.780036 107.949784 245.301145 107.08584 246.117092 106.585301 Q 249.387738 104.583145 251.712158 101.381067 Q 253.446903 98.994936 252.192127 96.437387 C 250.861928 93.715278 249.305457 91.21944 247.234734 88.977299 Q 243.490977 84.918134 241.289977 83.224529 Q 238.142752 80.804115 235.372646 78.32199 C 235.180658 78.150572 235.214942 77.835164 235.448069 77.711743 Q 244.615475 72.822917 252.089277 66.521611 Q 252.658383 66.041643 252.445825 66.761596 C 250.820788 72.342949 247.049603 76.820373 243.292133 81.078382 C 243.154999 81.22923 243.161855 81.462358 243.305846 81.606348 Q 243.52526 81.825763 243.813242 81.716055 Q 247.433579 80.365286 249.977414 77.218061 Q 256.772402 68.798035 256.004452 58.211293 Q 255.860461 56.833096 256.662695 58.608981 Q 256.827255 58.979243 256.923249 59.356362 Q 259.377947 69.003736 255.833034 78.082005 C 254.468551 81.565208 251.945286 84.876993 249.833423 88.120212 C 249.401451 88.778455 249.387738 89.621829 249.792283 90.293785 C 251.904146 93.783845 254.585115 98.4464 253.563467 102.560419 Q 253.062928 104.576288 251.753299 106.996703 Q 249.641435 110.898164 247.495289 114.813339 Z" style="fill:#031e39;"/>
		<path d="M 228.865639 107.997781 C 227.981125 107.250401 226.24638 107.476672 225.217875 107.826363 C 223.873962 108.285762 222.852314 107.83322 221.84438 106.976133 Q 219.451392 104.932837 217.702934 102.820973 Q 217.222965 102.238154 217.257248 101.483917 Q 217.366955 98.583534 217.785214 95.306032 Q 217.894921 94.400948 218.33375 95.203181 C 220.617031 99.378911 224.161944 101.771899 228.138829 104.075749 C 229.71587 104.98769 229.695299 106.708722 230.092988 108.251479 C 230.147842 108.464036 229.928427 108.64231 229.729583 108.546317 Q 229.249614 108.320046 228.865639 107.997781 Z" style="fill:#031e39;"/>
		<path d="M 297.597185 112.653479 Q 303.404809 110.65818 308.554189 108.100631 Q 308.917594 107.9155 308.773603 108.299476 C 307.182849 112.516345 303.343098 118.790224 298.680543 119.578745 Q 298.234858 119.654168 298.207431 119.201626 L 298.145721 118.406249 C 298.125151 118.152551 297.988017 117.92628 297.775459 117.796003 L 293.791717 115.430442 C 293.551733 115.286451 293.531163 114.950473 293.750577 114.772199 Q 295.588172 113.346006 297.597185 112.653479 Z" style="fill:#031e39;"/>
		<path d="M 285.10428 129.850079 C 283.739797 130.748307 282.039336 131.742528 280.428012 132.15393 C 279.99604 132.263637 279.536641 132.147073 279.207519 131.852235 Q 277.863607 130.652313 276.924239 128.979278 Q 276.52655 128.266182 277.335641 128.300465 Q 280.777703 128.430742 284.603741 127.114256 C 285.08371 126.949696 285.611676 127.18968 285.796807 127.662792 Q 286.345343 129.040989 285.10428 129.850079 Z" style="fill:#031e39;"/>
	</g>
	<g id="surface4">
	</g>
</svg>
