<?xml version="1.0" encoding="utf-8"?>
<svg xmlns="http://www.w3.org/2000/svg" width="490pt" height="280pt" viewBox="0 0 490 280" version="1.1" xmlns:xlink="http://www.w3.org/1999/xlink">
	<g id="surface2">
		<path d="M 237.630294 11.926842 L 242.433828 11.56592 C 242.653662 11.549515 242.847247 11.41499 242.939118 11.211561 Q 243.969384 8.908227 244.67154 6.883787 Q 244.891374 6.247253 245.144019 6.870663 L 246.787851 10.949073 C 246.922376 11.287027 247.234081 11.519985 247.595002 11.556077 Q 250.05911 11.805441 252.257449 11.838252 C 252.372288 11.838252 252.444472 11.962934 252.388693 12.064648 Q 252.2312 12.353385 251.971993 12.560094 Q 250.370815 13.843005 248.77948 15.214506 C 248.474338 15.480275 248.33325 15.890413 248.411997 16.290708 L 249.238835 20.392086 Q 249.340549 20.887532 248.914006 20.615201 Q 247.253768 19.558686 245.29495 18.577636 C 245.045586 18.452954 244.750287 18.462798 244.507485 18.600604 L 240.977019 20.634887 C 240.849056 20.707072 240.691563 20.595514 240.721093 20.451146 L 241.603709 15.742764 C 241.633239 15.585271 241.570898 15.421216 241.442935 15.326064 L 237.505612 12.356666 Q 237.000323 11.976058 237.630294 11.926842 Z" style="fill:#0799c3;"/>
		<path d="M 214.495241 17.537527 L 219.400489 17.238946 C 219.528452 17.229103 219.636728 17.340661 219.623604 17.468624 Q 219.58095 17.888605 219.252839 18.197028 Q 217.73697 19.640713 216.759202 21.031901 Q 216.385156 21.566721 216.641082 22.236065 Q 217.297302 23.958644 217.904306 25.907619 C 217.956804 26.078236 217.782906 26.229167 217.622132 26.150421 Q 215.686281 25.205463 213.5995 24.552524 C 213.42232 24.496745 213.232017 24.545962 213.100772 24.673925 Q 211.640682 26.140577 210.229808 27.321774 Q 210.101845 27.430051 209.93779 27.416926 C 209.862324 27.410364 209.803264 27.344742 209.803264 27.269277 L 209.813108 22.757761 C 209.816389 22.51824 209.691707 22.291844 209.484998 22.167162 L 205.508301 19.696492 C 205.432836 19.650557 205.386901 19.57181 205.380338 19.486502 Q 205.363933 19.227294 205.708449 19.191202 Q 208.015064 18.94512 210.069034 18.416862 C 210.311835 18.354521 210.502139 18.164217 210.56448 17.918135 L 211.709585 13.386932 Q 211.847391 12.842269 212.103317 13.340997 L 214.131039 17.327536 C 214.199942 17.462061 214.34431 17.544089 214.495241 17.537527 Z" style="fill:#0799c3;"/>
		<path d="M 275.89123 17.412845 L 278.069882 13.423024 Q 278.355338 12.898048 278.506268 13.478803 L 279.690746 18.000162 C 279.73012 18.151093 279.848239 18.272494 279.99917 18.311867 Q 282.35172 18.948401 284.550059 19.178078 C 284.723958 19.197765 284.792861 19.417598 284.658335 19.529156 Q 283.011222 20.9105 281.121307 21.825928 Q 280.396183 22.177006 280.366654 22.997281 Q 280.287907 25.090625 280.281345 27.285682 C 280.281345 27.449737 280.084479 27.535046 279.963078 27.426769 L 277.101957 24.900321 C 276.78369 24.621427 276.340741 24.54268 275.947009 24.693611 L 272.455916 26.042144 C 272.272174 26.114328 272.088432 25.937149 272.154054 25.750126 L 273.633831 21.629061 C 273.702734 21.438758 273.663361 21.225486 273.528836 21.074555 L 270.80224 17.954227 Q 270.113208 17.166762 271.153318 17.284882 Q 273.27291 17.530965 275.589368 17.586743 Q 275.792797 17.593305 275.89123 17.412845 Z" style="fill:#0799c3;"/>
		<path d="M 246.54505 26.189794 C 246.54505 27.059286 245.839613 27.764723 244.97012 27.764723 C 244.100628 27.764723 243.395191 27.059286 243.395191 26.189794 C 243.395191 25.320302 244.100628 24.614865 244.97012 24.614865 C 245.839613 24.614865 246.54505 25.320302 246.54505 26.189794 Z" style="fill:#0799c3;"/>
		<path d="M 219.292213 32.371391 C 219.292213 33.283537 218.553965 34.021785 217.641818 34.021785 C 216.729672 34.021785 215.991424 33.283537 215.991424 32.371391 C 215.991424 31.459244 216.729672 30.720996 217.641818 30.720996 C 218.553965 30.720996 219.292213 31.459244 219.292213 32.371391 Z" style="fill:#0799c3;"/>
		<path d="M 273.489003 33.722778 C 272.800431 34.267868 271.766884 34.107094 271.17855 33.364384 C 270.588968 32.620755 270.670996 31.577364 271.357206 31.033128 C 272.045778 30.488038 273.079325 30.648812 273.667659 31.391522 C 274.257241 32.135151 274.175213 33.178542 273.489003 33.722778 Z" style="fill:#0799c3;"/>
		<path d="M 298.891758 38.644859 Q 299.941711 36.318557 300.886668 33.897103 Q 300.92276 33.805233 301.004788 33.749454 C 301.09994 33.687113 301.231184 33.729767 301.270557 33.834763 Q 302.130206 36.033101 302.684712 38.326592 C 302.760178 38.635015 303.019385 38.861411 303.334371 38.894222 L 308.577572 39.425761 C 308.731784 39.442167 308.794125 39.632471 308.679286 39.737466 Q 306.759842 41.489575 304.512286 43.051379 C 304.312139 43.189186 304.200582 43.422144 304.220268 43.664945 L 304.577908 48.327392 Q 304.627125 49.013142 304.095586 48.580037 L 301.191811 46.224205 C 300.909636 45.997809 300.522466 45.958436 300.204199 46.122491 L 296.263595 48.156775 C 296.119226 48.228959 295.958452 48.100996 295.997826 47.946784 L 297.254488 43.14325 C 297.313548 42.920135 297.238082 42.680615 297.060903 42.529684 L 293.156391 39.258425 C 293.06452 39.179678 293.080925 39.03531 293.185921 38.97625 Q 293.30404 38.910628 293.435285 38.913909 Q 296.178286 38.972969 298.593178 38.848287 Q 298.803168 38.835163 298.891758 38.644859 Z" style="fill:#0799c3;"/>
		<path d="M 191.540648 38.851568 Q 194.086784 38.999218 196.882283 38.8286 C 197.016808 38.818757 197.11196 38.963126 197.049619 39.084526 Q 196.895407 39.389669 196.639481 39.619346 Q 194.952995 41.125372 193.125421 42.75608 C 192.971209 42.893886 192.908868 43.110439 192.964647 43.310586 L 194.25412 48.012406 C 194.286931 48.133807 194.158968 48.238802 194.047411 48.176461 Q 191.875321 46.946048 189.676982 45.987966 C 189.575268 45.942031 189.453867 45.955155 189.361996 46.027339 L 185.756065 48.812995 C 185.651069 48.895023 185.500139 48.809714 185.513263 48.67847 L 186.025115 43.523858 C 186.044802 43.34996 185.969336 43.176061 185.828249 43.071066 L 181.438134 39.747309 C 181.359387 39.688249 181.33642 39.579973 181.385636 39.491383 Q 181.441415 39.39295 181.552972 39.383107 Q 184.328785 39.179678 187.012727 38.950001 C 187.239123 38.933596 187.429427 38.779384 187.49833 38.562831 L 188.886236 34.166154 Q 189.119195 33.431187 189.411213 34.143186 L 191.238787 38.635015 Q 191.320814 38.838444 191.540648 38.851568 Z" style="fill:#0799c3;"/>
		<path d="M 269.460269 103.226798 C 269.46355 104.791884 268.57109 106.229007 267.215995 106.944287 Q 266.451498 107.347863 265.234209 107.344582 Q 245.967576 107.288803 224.788059 107.344582 C 221.356026 107.354425 219.662977 105.438261 219.653134 102.078412 C 219.636728 96.969736 219.754848 92.025114 219.728599 87.067368 Q 219.666258 75.124156 219.728599 62.701902 C 219.745005 59.073002 219.587512 55.329265 219.741724 51.644587 C 219.82047 49.823575 221.01151 48.025531 222.668467 47.467743 Q 223.54124 47.172444 225.339285 47.179006 C 231.865397 47.208536 238.552284 47.287283 245.160424 47.25119 Q 255.433556 47.192131 264.981564 47.234785 Q 266.582742 47.241347 267.435829 47.690858 C 269.178094 48.606286 269.542297 50.387924 269.499642 52.28112 C 269.424177 55.788619 269.532453 59.227214 269.512767 62.783929 Q 269.411052 82.116185 269.460269 103.226798 Z M 253.655199 58.160856 Q 254.114553 58.14445 254.114553 57.688377 L 254.111272 50.089344 C 254.111272 49.905602 253.960341 49.757953 253.776599 49.754672 Q 241.055765 49.698893 227.73777 49.754672 Q 227.045458 49.754672 226.343302 49.731704 C 224.614161 49.675925 222.589721 49.48234 222.547066 51.890669 Q 222.494569 54.925689 222.543785 57.895087 C 222.547066 58.042736 222.668467 58.164137 222.816117 58.164137 Q 236.288323 58.111639 248.769637 58.219916 Q 251.233745 58.242884 253.655199 58.160856 Z M 230.982781 82.854433 C 231.015592 82.788811 231.107463 82.795373 231.133711 82.860995 C 232.649581 86.709728 236.350664 90.030204 240.350328 91.23765 C 250.02958 94.164393 259.370879 87.287202 259.948353 77.424208 C 260.000851 76.525186 260.598011 76.092081 260.965495 75.334146 Q 263.383667 70.350152 265.939646 65.431779 Q 267.05194 63.285938 266.871479 60.923544 C 266.855074 60.716835 266.684456 60.556061 266.477747 60.55278 L 222.753776 60.516688 C 222.622532 60.516688 222.514255 60.624964 222.514255 60.756208 L 222.507693 98.862932 Q 222.507693 99.010581 222.58644 98.885899 C 225.765828 93.787066 228.311963 88.209192 230.982781 82.854433 Z" style="fill:#0799c3;"/>
		<path d="M 247.650781 56.635143 C 246.686137 56.585927 244.215467 55.604877 244.22531 54.358058 C 244.238435 52.806097 245.928202 51.920199 247.345639 51.838172 Q 249.130558 51.739739 251.01063 51.979259 C 251.450298 52.035038 251.791532 52.395959 251.824343 52.838908 C 251.893247 53.790428 252.152454 56.156102 250.77111 56.398904 Q 249.035406 56.704047 247.650781 56.635143 Z" style="fill:#0799c3;"/>
		<path d="M 240.937219 53.587163 C 240.954051 54.341653 240.314236 54.971624 239.501146 54.990917 C 238.69009 55.010998 238.017464 54.413837 237.998204 53.659019 C 237.981372 52.90453 238.621187 52.274558 239.434277 52.255265 C 240.245333 52.235185 240.917959 52.832346 240.937219 53.587163 Z M 239.395527 53.751054 C 239.477555 53.780584 239.566145 53.744492 239.608799 53.669027 Q 239.736762 53.429506 239.470993 53.311387 C 239.388965 53.275294 239.293813 53.308105 239.25444 53.386852 Q 239.113353 53.652621 239.395527 53.751054 Z" style="fill:#0799c3;"/>
		<path d="M 200.387222 56.054716 C 199.523571 55.782057 199.060935 54.807569 199.353413 53.877869 C 199.644971 52.947184 200.583367 52.415646 201.448856 52.687649 C 202.312508 52.960309 202.775143 53.934796 202.482666 54.864496 C 202.191107 55.795181 201.252712 56.32672 200.387222 56.054716 Z" style="fill:#0799c3;"/>
		<path d="M 289.51358 56.099799 C 288.628469 56.366093 287.680231 55.808306 287.393167 54.855309 C 287.106038 53.901985 287.591641 52.914373 288.478326 52.649129 C 289.363436 52.382835 290.311675 52.940622 290.598739 53.893618 C 290.885868 54.846943 290.400265 55.834554 289.51358 56.099799 Z" style="fill:#0799c3;"/>
		<path d="M 234.801393 54.076048 C 234.798703 54.48274 234.467311 54.814132 234.060586 54.811703 L 226.048167 54.783748 C 225.641146 54.78132 225.309755 54.449929 225.312511 54.042908 L 225.313626 53.72136 C 225.316317 53.314668 225.647708 52.983276 226.054434 52.985704 L 234.066853 53.013659 C 234.473874 53.016087 234.805265 53.347479 234.802509 53.754499 L 234.801393 54.076048 Z" style="fill:#0799c3;"/>
		<path d="M 236.117706 68.568513 C 243.467375 60.802143 254.281889 65.074139 257.120043 74.359659 C 257.877977 76.836891 257.599084 79.990031 256.33914 82.372111 Q 253.471457 87.78593 247.716403 89.190242 C 242.847247 90.381282 237.6467 88.304344 234.900417 84.281712 C 231.511038 79.317405 231.986798 72.93566 236.117706 68.568513 Z M 242.384612 73.605005 Q 242.443672 73.358922 242.55851 73.585319 Q 243.710177 75.829593 246.141474 74.799326 Q 246.820662 74.513871 247.092994 73.939678 C 248.648236 70.674981 243.470657 68.571794 242.496169 72.148196 Q 242.397736 72.509117 242.207432 72.184288 Q 241.629958 71.186833 240.370015 71.367293 Q 238.56869 71.6265 238.4801 73.434388 Q 238.388229 75.265243 240.366734 75.570386 Q 241.629958 75.763971 242.158216 74.812451 C 242.358363 74.45153 242.286179 74.0053 242.384612 73.605005 Z M 252.641338 79.465054 C 252.641338 78.267452 251.670132 77.296245 250.472529 77.296245 C 249.274927 77.296245 248.30372 78.267452 248.30372 79.465054 C 248.30372 80.662657 249.274927 81.633863 250.472529 81.633863 C 251.670132 81.633863 252.641338 80.662657 252.641338 79.465054 Z" style="fill:#0799c3;"/>
		<path d="M 276.524483 68.05338 C 276.524483 68.673508 276.019193 69.178798 275.399064 69.178798 C 274.778936 69.178798 274.273646 68.673508 274.273646 68.05338 C 274.273646 67.433251 274.778936 66.927962 275.399064 66.927962 C 276.019193 66.927962 276.524483 67.433251 276.524483 68.05338 Z" style="fill:#0799c3;"/>
		<path d="M 274.752687 72.128509 C 274.752687 72.72567 274.270365 73.207992 273.673205 73.207992 C 273.076044 73.207992 272.593722 72.72567 272.593722 72.128509 C 272.593722 71.531348 273.076044 71.049026 273.673205 71.049026 C 274.270365 71.049026 274.752687 71.531348 274.752687 72.128509 Z" style="fill:#0799c3;"/>
		<path d="M 277.840106 74.851233 C 277.643338 75.481796 276.931339 75.816468 276.249362 75.604312 C 275.569682 75.389925 275.175949 74.707456 275.372914 74.078075 C 275.569682 73.447512 276.281681 73.11284 276.963658 73.324996 C 277.643338 73.539383 278.037071 74.221852 277.840106 74.851233 Z" style="fill:#0799c3;"/>
		<path d="M 314.96916 79.445368 L 320.645467 80.029404 C 320.806241 80.045809 320.89155 80.232832 320.796398 80.364076 Q 320.59625 80.64297 320.307513 80.839836 Q 317.817157 82.536166 316.032237 84.367021 C 315.874744 84.527795 315.809122 84.760753 315.858339 84.980587 L 316.996881 90.105669 Q 317.095314 90.551899 316.711425 90.305817 L 312.23272 87.438133 C 312.094914 87.349543 311.921016 87.352824 311.78649 87.441414 Q 309.558622 88.931035 307.133887 90.184416 C 307.087952 90.207384 307.028892 90.194259 306.996081 90.151605 Q 306.914053 90.040047 306.946864 89.89896 Q 307.481684 87.631718 308.137905 85.426817 Q 308.305241 84.862468 308.324927 84.27515 Q 308.33149 84.111095 308.210089 84.002819 Q 305.926441 81.958692 303.537799 80.245957 C 303.449209 80.186897 303.426241 80.065496 303.485301 79.976906 Q 303.544361 79.885035 303.652638 79.885035 Q 306.891086 79.816132 309.949073 79.432243 Q 310.139377 79.409275 310.218123 79.232096 Q 311.363228 76.633463 312.272094 74.090608 Q 312.541144 73.339236 312.810194 74.087327 L 314.667298 79.212409 Q 314.742764 79.4224 314.96916 79.445368 Z" style="fill:#0799c3;"/>
		<path d="M 180.004292 79.438805 C 181.828585 79.832538 183.823495 79.816132 185.68388 79.908003 Q 186.586184 79.950657 185.89059 80.528131 L 181.598908 84.078284 Q 181.438134 84.209528 181.493913 84.409675 L 183.026187 89.931771 C 183.058999 90.049891 182.97369 90.16801 182.852289 90.177854 Q 182.740732 90.184416 182.64558 90.128637 Q 180.322559 88.780104 177.989695 87.336419 C 177.907668 87.283921 177.802672 87.287202 177.723926 87.3397 L 173.340373 90.28613 Q 172.851489 90.617521 172.966327 90.036766 L 174.068778 84.626228 C 174.091746 84.51139 174.049091 84.39327 173.95722 84.317805 L 169.176654 80.43626 Q 168.773078 80.10815 169.291493 80.058934 L 175.102325 79.507708 C 175.279505 79.491303 175.430435 79.373183 175.489495 79.202566 L 177.244885 74.116857 Q 177.458157 73.50001 177.697677 74.107014 L 179.725398 79.202566 Q 179.800864 79.39287 180.004292 79.438805 Z" style="fill:#0799c3;"/>
		<path d="M 200.455305 109.406918 C 199.444824 109.316524 198.706576 108.338756 198.805731 107.220621 C 198.906723 106.104325 199.805745 105.270925 200.816423 105.360991 C 201.826904 105.451385 202.565152 106.429154 202.465998 107.547288 C 202.365005 108.663585 201.465983 109.496985 200.455305 109.406918 Z" style="fill:#0799c3;"/>
		<path d="M 289.837162 109.340903 C 288.845022 109.60198 287.804913 108.935916 287.518833 107.849346 C 287.23072 106.763826 287.804913 105.671219 288.79784 105.40732 C 289.78998 105.146243 290.830089 105.812307 291.116168 106.898877 C 291.404282 107.984397 290.830089 109.077004 289.837162 109.340903 Z" style="fill:#0799c3;"/>
		<path d="M 187.573795 111.390181 Q 189.591673 110.369758 191.209257 108.719363 Q 191.793293 108.128765 191.625957 108.942478 Q 191.294566 110.546938 190.923801 113.060262 C 190.900833 113.207912 191.002548 113.348999 191.150197 113.371967 L 195.202359 114.041312 C 195.287667 114.054436 195.317197 114.159431 195.254856 114.218491 Q 193.827577 115.491559 191.917975 116.47589 Q 191.297847 116.797438 191.445496 117.463501 Q 191.875321 119.376384 192.771062 121.361451 C 192.82684 121.486133 192.708721 121.617377 192.580758 121.574723 L 188.981388 120.396807 Q 188.440007 120.219628 188.131583 120.698668 L 186.294166 123.549946 Q 185.995585 124.015863 185.887309 123.474481 L 185.126093 119.63231 C 185.076877 119.382946 184.886573 119.18608 184.643771 119.12702 Q 182.360124 118.556109 179.991168 118.283777 C 179.846799 118.267372 179.787739 118.093473 179.889454 117.988478 C 181.12971 116.728535 182.67511 115.701549 183.921928 114.487542 C 184.026924 114.385827 184.07614 114.241459 184.049891 114.09709 L 183.157432 108.712801 Q 183.036031 107.990959 183.597099 108.463437 L 186.99304 111.324559 C 187.157095 111.459084 187.383492 111.485333 187.573795 111.390181 Z" style="fill:#0799c3;"/>
		<path d="M 298.904882 113.362123 C 299.121435 113.326031 299.262522 113.11276 299.216587 112.899488 L 298.288035 108.584838 C 298.258505 108.447032 298.415998 108.348599 298.527555 108.433908 L 302.4091 111.436116 C 302.491127 111.501738 302.605966 111.505019 302.694556 111.44596 Q 304.728839 110.054772 306.497353 108.414221 C 306.592505 108.325631 306.749998 108.387972 306.759842 108.519216 Q 306.805777 109.047474 306.749998 109.569169 Q 306.51704 111.65595 305.995345 114.152869 C 305.955971 114.343173 306.021593 114.540039 306.172524 114.664721 L 310.241091 118.044257 C 310.362492 118.145971 310.300151 118.346118 310.142658 118.359242 Q 307.570274 118.58892 305.125852 119.199205 C 305.030701 119.222172 304.955235 119.300919 304.932267 119.396071 L 303.905282 123.832121 C 303.875752 123.963365 303.701854 123.989614 303.632951 123.878057 L 301.618354 120.610079 C 301.51664 120.439461 301.313211 120.360715 301.119626 120.413213 L 297.23152 121.466446 C 297.126525 121.495976 297.037935 121.384419 297.087152 121.289267 Q 298.018985 119.419039 298.530837 117.368349 Q 298.625989 116.991023 298.301159 116.77447 L 294.800223 114.441606 Q 294.357274 114.146307 294.882251 114.054436 L 298.904882 113.362123 Z" style="fill:#0799c3;"/>
		<path d="M 220.71293 127.109943 C 220.71293 128.146771 219.872968 128.986733 218.836139 128.986733 C 217.799311 128.986733 216.959349 128.146771 216.959349 127.109943 C 216.959349 126.073114 217.799311 125.233152 218.836139 125.233152 C 219.872968 125.233152 220.71293 126.073114 220.71293 127.109943 Z" style="fill:#0799c3;"/>
		<path d="M 272.806993 127.096818 C 272.806993 128.123803 271.976875 128.953922 270.94989 128.953922 C 269.922904 128.953922 269.092786 128.123803 269.092786 127.096818 C 269.092786 126.069833 269.922904 125.239714 270.94989 125.239714 C 271.976875 125.239714 272.806993 126.069833 272.806993 127.096818 Z" style="fill:#0799c3;"/>
		<path d="M 211.063208 135.94267 Q 211.811299 133.668866 212.05082 130.998049 C 212.063944 130.837275 212.247686 130.748685 212.382211 130.840556 Q 212.572515 130.9718 212.674229 131.185072 Q 213.625749 133.189825 214.603517 135.240514 Q 214.705232 135.447224 214.934909 135.450505 Q 217.753376 135.463629 219.981244 135.07974 Q 220.614497 134.971464 220.214203 135.470192 L 217.211994 139.240178 C 217.031533 139.469856 216.988879 139.78156 217.103717 140.050611 L 218.937854 144.289795 Q 219.131439 144.739306 218.695052 144.519472 Q 216.762483 143.548266 214.446024 142.892045 Q 213.976827 142.760801 213.632311 143.088911 Q 212.109879 144.555564 210.508701 146.012374 Q 210.20684 146.287986 210.223246 145.88113 L 210.433236 140.893854 C 210.439798 140.687145 210.341365 140.490278 210.167467 140.378721 L 205.846255 137.550411 C 205.718292 137.465102 205.692043 137.284641 205.790476 137.166522 Q 205.86266 137.077932 205.98078 137.061526 Q 208.45145 136.759665 210.744941 136.231407 C 210.895872 136.198596 211.017272 136.09032 211.063208 135.94267 Z" style="fill:#0799c3;"/>
		<path d="M 275.317037 135.171611 Q 276.314492 133.002803 277.505532 130.870086 Q 277.548187 130.794621 277.669587 130.837275 C 277.715523 130.853681 277.751615 130.893054 277.764739 130.94227 L 278.919687 135.755648 Q 278.965623 135.94267 279.126397 136.044385 Q 279.694028 136.405306 280.442119 136.520144 Q 282.355002 136.808881 284.100548 136.949969 C 284.212106 136.959812 284.264603 137.094337 284.189138 137.176365 Q 283.437765 137.967111 282.525619 138.547866 Q 281.016312 139.505948 279.680903 140.58543 Q 279.497161 140.73308 279.507005 140.959476 L 279.726839 145.930346 C 279.733401 146.055028 279.58247 146.12065 279.49388 146.03206 Q 277.689274 144.168394 275.828889 142.931419 C 275.641866 142.806737 275.402346 142.780488 275.189074 142.859234 L 270.995825 144.414477 C 270.894111 144.45385 270.782553 144.381666 270.775991 144.273389 Q 270.766148 144.122459 270.825208 143.981371 Q 271.573299 142.288322 272.432948 140.58543 Q 272.701998 140.053892 272.813556 139.45345 C 272.843086 139.289395 272.793869 139.122059 272.685593 139.000658 L 269.657135 135.565344 Q 269.230592 135.083022 269.870407 135.145362 L 274.572227 135.601436 Q 275.097203 135.650652 275.317037 135.171611 Z" style="fill:#0799c3;"/>
		<path d="M 246.676294 133.239042 C 246.676294 134.183999 245.911797 134.948496 244.966839 134.948496 C 244.021882 134.948496 243.257385 134.183999 243.257385 133.239042 C 243.257385 132.294084 244.021882 131.529588 244.966839 131.529588 C 245.911797 131.529588 246.676294 132.294084 246.676294 133.239042 Z" style="fill:#0799c3;"/>
		<path d="M 249.593194 154.490742 Q 249.61288 154.599019 249.521009 154.54324 L 245.219484 152.036478 Q 244.943872 151.872423 244.658416 152.023353 Q 242.476483 153.17502 240.530789 154.539959 C 240.468448 154.582613 240.379858 154.553083 240.35689 154.477618 Q 240.301112 154.310282 240.333923 154.136383 Q 240.796558 151.705086 241.30841 149.339412 C 241.390438 148.952242 241.246069 148.555228 240.934364 148.309145 L 237.315308 145.477554 Q 236.895327 145.146163 237.426866 145.100227 L 242.55851 144.683527 C 242.725846 144.670403 242.873496 144.558845 242.935837 144.401352 L 244.756849 139.7225 Q 245.006213 139.076123 245.26542 139.719219 L 247.135648 144.391509 C 247.211113 144.578532 247.388293 144.706495 247.591721 144.716338 L 252.483845 144.985389 C 252.641338 144.991951 252.723365 145.178974 252.621651 145.300375 Q 252.162297 145.848319 251.581542 146.291267 Q 250.157543 147.377312 248.874632 148.512574 C 248.664642 148.696316 248.566209 148.97849 248.618706 149.254103 L 249.593194 154.490742 Z" style="fill:#0799c3;"/>
	</g>
	<g id="surface4">
	</g>
</svg>
