<?xml version="1.0" encoding="utf-8"?>
<svg xmlns="http://www.w3.org/2000/svg" width="490pt" height="280pt" viewBox="0 0 490 280" version="1.1" xmlns:xlink="http://www.w3.org/1999/xlink">
	<g id="surface2">
		<path d="M 267.774438 51.033552 Q 258.085904 51.18355 234.317974 51.265367 Q 228.052131 51.285822 223.252181 50.665374 Q 223.163546 49.642657 220.722663 49.894927 Q 219.652219 50.010835 217.961328 48.388125 C 217.790875 48.217672 217.695422 47.979039 217.709058 47.733587 Q 217.84542 45.299521 218.724957 43.526813 C 219.318132 42.333644 220.102215 41.440471 220.231759 40.029123 C 220.899934 32.617837 223.279454 26.011089 229.320299 21.64068 Q 231.222552 20.27024 234.317974 18.667985 C 235.84523 17.877084 236.861129 16.813459 238.074752 15.688471 C 238.667928 15.136204 239.629281 15.299838 240.004277 16.01574 Q 240.67927 17.311181 240.808814 18.920255 Q 241.07472 22.165675 241.483807 25.554275 Q 241.504261 25.71791 241.667896 25.71791 L 241.872439 25.711092 Q 241.954257 25.711092 241.961075 25.629275 Q 242.056528 20.065697 241.347445 14.802116 C 241.265627 14.17485 241.756531 13.622583 242.390616 13.63622 L 250.872344 13.799854 C 251.206432 13.806672 251.472338 14.086215 251.451884 14.420302 L 250.797345 26.406539 Q 250.783709 26.679264 251.056433 26.6929 L 251.274613 26.713354 Q 251.329158 26.713354 251.335976 26.658809 Q 251.779153 21.920223 252.58369 17.590723 Q 252.733688 16.765732 253.149593 16.01574 C 253.354136 15.647562 253.84504 15.558927 254.165491 15.831651 Q 257.390457 18.61344 261.433596 20.781599 C 265.354009 22.888395 268.824427 27.136077 269.942597 31.683756 C 270.590318 34.315547 271.019859 37.029154 271.244856 39.74958 Q 271.347128 41.092748 272.117574 42.463188 Q 272.942566 43.915445 273.419833 45.865425 Q 274.203916 49.049482 270.856224 49.690384 Q 269.240332 50.004017 267.678985 50.140379 C 267.51535 50.154016 267.413079 50.324468 267.488078 50.474467 L 267.774438 51.033552 Z" style="fill:#ffc005;"/>
		<path d="M 223.252181 50.665374 Q 228.052131 51.285822 234.317974 51.265367 Q 258.085904 51.18355 267.774438 51.033552 Q 267.01081 57.163032 264.474473 69.728809 Q 263.29494 75.558293 260.717695 79.117346 Q 256.906371 84.374109 252.235966 86.037727 C 244.006508 88.955878 235.804322 86.289997 230.329379 79.342344 Q 228.065767 76.471919 226.763508 71.303792 Q 224.62944 62.822064 223.940811 55.608503 C 223.79763 54.128974 221.902196 52.090359 223.252181 50.665374 Z" style="fill:#211c1b;"/>
		<path d="M 269.567601 66.456116 Q 268.810791 67.962918 267.174445 68.385641 L 266.90172 68.453822 Q 265.408554 68.842454 265.858549 67.362925 Q 267.760802 61.185717 268.231252 54.469879 Q 268.258524 54.053974 268.653974 54.183518 Q 271.12213 54.974419 271.388037 56.869854 Q 272.049393 61.526623 269.567601 66.456116 Z" style="fill:#211c1b;"/>
		<path d="M 222.822641 55.54714 Q 223.374907 63.524329 225.297614 67.56065 Q 225.843063 68.71291 224.561259 68.685638 Q 224.0499 68.672002 223.572633 68.419732 Q 222.079467 67.615195 221.336293 66.312936 Q 219.249951 62.631156 219.495403 57.224395 Q 219.556766 55.710775 220.91357 55.0426 L 221.459019 54.769876 Q 222.720369 54.14261 222.822641 55.54714 Z" style="fill:#211c1b;"/>
		<path d="M 226.893052 98.139872 Q 225.604429 96.053531 225.181707 92.780838 Q 225.031708 91.608123 225.965789 90.864949 C 228.679397 88.710426 228.59758 84.374109 228.536217 81.265051 Q 228.502126 79.737794 229.558933 80.842328 C 230.779375 82.13095 231.95209 83.4673 233.363438 84.503653 Q 242.329253 91.110401 252.924595 87.305896 Q 257.84727 85.540005 260.792694 81.033235 Q 261.617685 79.771884 261.617685 81.278687 Q 261.624503 84.742287 262.360859 88.08316 Q 262.769946 89.95814 264.399474 91.362671 C 264.733561 91.649032 264.944923 92.058118 264.985831 92.501295 C 265.463099 97.75124 261.488141 102.387555 257.185914 105.135253 Q 251.567791 108.728397 244.708773 108.557944 Q 233.138441 108.264765 226.893052 98.139872 Z" style="fill:#211c1b;"/>
		<path d="M 239.970187 111.537458 C 246.331483 112.887444 253.156411 111.776092 258.938168 108.367037 C 264.549472 105.053436 268.142616 98.971682 268.01989 92.583113 Q 268.006254 92.071755 268.503976 92.201299 L 275.083452 93.974007 C 275.403903 94.062643 275.628901 94.355821 275.622083 94.689909 Q 275.431176 107.746589 276.794798 120.230548 Q 277.122067 123.223698 277.94024 125.725944 Q 278.028875 125.991851 277.749333 126.005487 Q 268.033526 126.366847 258.160904 126.053214 C 244.633774 125.623673 231.174825 126.087304 217.770421 125.95776 C 217.422698 125.950942 217.170428 125.630491 217.245427 125.289585 Q 218.336324 120.503272 218.431778 115.519234 Q 218.622685 105.489795 217.286335 96.496708 Q 217.102246 95.228539 216.72725 94.008098 Q 216.577252 93.517194 217.081792 93.414922 L 221.697652 92.460387 C 221.902196 92.419478 222.093103 92.576295 222.086285 92.780838 C 222.086285 93.360377 222.024922 94.130824 222.181738 94.676272 Q 226.170332 108.619307 239.970187 111.537458 Z" style="fill:#211c1b;"/>
		<path d="M 202.777398 135.169026 Q 206.438723 135.134936 210.325045 134.596305 C 212.118208 134.344035 213.597738 134.569033 214.177277 132.387238 C 214.272731 132.032696 214.586364 131.787244 214.947724 131.794062 Q 224.908982 131.848607 234.904331 131.732699 C 236.233862 131.719063 237.611121 131.684972 238.763381 130.928162 C 243.365605 127.928194 249.501904 128.644095 254.376853 130.975889 Q 259.838159 133.580407 264.119931 139.505344 C 264.338111 139.812159 264.174476 140.2417 263.806298 140.316699 Q 254.929119 142.143953 245.581491 144.42802 C 241.43608 145.4371 237.208852 145.989367 232.892989 144.796197 C 229.565751 143.882571 224.55444 142.36895 221.220385 143.766663 Q 213.822736 146.862085 205.102373 150.850679 Q 194.8343 155.548357 182.111707 160.498304 C 179.643551 161.45284 175.770865 162.305103 173.302709 160.880118 Q 169.723202 158.821049 170.023198 154.027918 Q 170.302741 149.514329 171.414093 145.737097 Q 174.461788 135.428115 178.900377 122.487342 Q 181.286716 115.526052 183.741235 110.569286 C 186.707113 104.576168 190.988886 100.676209 197.384273 98.767138 Q 202.900124 97.123974 208.593245 95.760352 C 209.00915 95.65808 209.425055 95.930805 209.500054 96.353527 Q 211.702303 108.46249 209.868232 121.300991 C 209.104604 126.694116 206.452359 131.050888 202.531946 134.534942 Q 201.802408 135.182663 202.777398 135.169026 Z" style="fill:#211c1b;"/>
		<path d="M 312.201242 127.505471 L 318.753445 126.387301 C 319.217077 126.305484 319.67389 126.530481 319.89207 126.946386 Q 319.980705 127.110021 320.028432 127.205474 Q 320.498881 128.091829 319.510255 128.282736 Q 305.430859 130.996343 290.915103 134.044038 C 290.553743 134.119038 290.185565 133.934949 290.035567 133.594043 Q 288.746944 130.723619 287.601502 127.757741 C 287.226506 126.782751 286.496968 126.223666 286.244698 125.139587 Q 284.158356 116.371498 283.721997 107.582954 Q 283.435636 101.746652 283.128822 96.087621 Q 283.101549 95.671716 283.503818 95.773988 C 293.546893 98.228508 302.314982 101.589836 306.569483 111.346551 Q 309.473998 117.994208 311.519431 127.055476 Q 311.648975 127.600925 312.201242 127.505471 Z" style="fill:#211c1b;"/>
		<path d="M 262.926762 132.094059 L 280.081126 132.339511 C 280.162944 132.339511 280.237943 132.38042 280.278852 132.448601 L 282.181104 135.550841 C 282.262922 135.694021 282.181104 135.87811 282.01747 135.905382 L 267.672167 138.639444 C 267.583531 138.653081 267.494896 138.61899 267.440351 138.550809 L 262.735855 132.475873 C 262.613129 132.319057 262.722219 132.094059 262.926762 132.094059 Z" style="fill:#211c1b;"/>
	</g>
	<g id="surface4">
	</g>
</svg>
