<?xml version="1.0" encoding="utf-8"?>
<svg xmlns="http://www.w3.org/2000/svg" width="490pt" height="280pt" viewBox="0 0 490 280" version="1.1" xmlns:xlink="http://www.w3.org/1999/xlink">
	<g id="surface2">
		<path d="M 246.292989 32.971364 C 240.895665 33.048346 236.444508 27.84822 236.35539 21.362472 C 236.264376 14.873974 240.568583 9.55534 245.964959 9.480632 C 251.362283 9.40365 255.81344 14.603776 255.902558 21.089524 C 255.993572 27.578022 251.689365 32.896656 246.292989 32.971364 Z" style="fill:#2a4f72;"/>
		<path d="M 322.936316 49.663154 Q 323.29184 50.227252 323.486193 50.900377 Q 324.372632 53.957881 324.93673 57.5463 Q 326.823375 69.553521 325.187966 82.380816 C 322.832029 100.901231 314.247317 118.193905 301.510087 131.61848 Q 289.166304 144.630648 272.646302 151.542028 Q 254.16381 159.278224 234.107532 156.936508 Q 223.669356 155.713507 214.999318 152.16301 C 210.856282 150.465977 206.836494 148.617253 203.0395 146.31346 Q 186.102351 136.045935 175.521965 118.957095 C 171.013925 111.68071 167.354401 103.366196 165.273402 94.999538 Q 158.248253 66.733033 169.909431 40.286809 Q 175.991257 26.497229 187.751981 16.115937 Q 187.785163 16.087495 187.808865 16.125418 L 187.879969 16.272368 Q 187.913152 16.338732 187.861008 16.395616 Q 182.708285 21.998669 178.470442 28.355433 C 163.069155 51.469215 160.011651 80.148127 171.013925 105.807458 Q 183.315045 134.491111 211.207065 148.446602 Q 218.857935 152.276777 228.37175 154.300892 C 239.17493 156.599946 250.437921 156.832221 261.079931 154.201346 Q 276.926808 150.281104 289.957937 140.079944 Q 295.10592 136.050675 300.874885 129.864563 Q 304.188366 126.314066 306.937749 122.588178 Q 325.557711 97.383917 324.974652 65.652241 Q 324.832443 57.99663 322.898394 49.629972 Q 322.893653 49.606271 322.903134 49.582569 Q 322.912615 49.554127 322.931576 49.577829 Q 322.950537 49.60153 322.936316 49.620491 Q 322.922095 49.644193 322.936316 49.663154 Z" style="fill:#2a4f72;"/>
		<path d="M 224.282374 43.610434 C 219.881844 43.804124 216.132254 39.812777 215.907563 34.69518 C 215.681924 29.578435 219.07125 25.274228 223.473486 25.083952 C 227.874017 24.890262 231.623607 28.881608 231.848298 33.999206 C 232.073937 39.115951 228.684611 43.420158 224.282374 43.610434 Z" style="fill:#56c1ce;"/>
		<path d="M 270.349098 43.706094 C 265.886612 43.979515 262.013773 40.021351 261.697073 34.869908 C 261.383311 29.715904 264.744195 25.316891 269.207724 25.045176 C 273.670211 24.771754 277.543049 28.729918 277.859749 33.881362 C 278.173511 39.035366 274.812627 43.434379 270.349098 43.706094 Z" style="fill:#56c1ce;"/>
		<path d="M 255.140315 37.14872 Q 259.510886 39.229719 261.383311 44.510431 C 261.506559 44.851733 261.288505 45.216738 260.932981 45.278362 C 254.960183 46.29279 250.679677 48.70087 246.138455 52.976635 Q 245.896698 53.20417 245.669163 52.967155 C 242.004899 49.155941 237.297765 46.558247 232.27303 45.5533 C 231.851142 45.467975 231.599905 45.031865 231.732634 44.624198 Q 233.382264 39.656347 238.041995 37.172421 Q 239.601559 36.342866 241.170603 36.741053 C 244.000572 37.466321 247.167103 38.551853 250.044475 37.267228 C 251.841055 36.461374 253.211006 36.229098 255.140315 37.14872 Z" style="fill:#9fcde3;"/>
		<path d="M 246.105272 59.115345 C 248.262116 56.304337 250.779224 54.303924 254.031081 52.910271 Q 257.605279 51.379149 261.36909 50.549593 Q 270.252443 48.596583 278.675984 46.231165 C 281.942062 45.316284 285.193919 44.870695 288.592726 44.600497 C 290.138069 44.481989 292.645696 44.368221 293.935062 45.164594 C 294.214741 45.335246 294.281105 45.714471 294.082012 45.979929 Q 293.698046 46.487143 293.176611 46.861628 Q 287.118487 51.217978 281.719267 56.143166 C 276.192059 61.182123 270.769137 65.988803 264.341269 70.060735 C 258.140935 73.985716 252.447815 78.128753 247.029634 83.253034 C 246.773657 83.49479 246.37073 83.504271 246.105272 83.267255 Q 240.269943 78.038687 233.799412 73.649154 Q 231.746855 72.255501 225.233661 68.472729 Q 223.304352 67.354014 219.758595 64.481383 Q 216.151215 61.561348 210.116792 55.863488 Q 204.769716 50.815051 198.972309 46.553507 Q 198.559902 46.245386 198.327626 45.799797 C 198.119052 45.40161 198.337107 44.918098 198.768476 44.809071 Q 200.171609 44.453547 201.574743 44.477248 Q 206.955002 44.572055 211.951295 45.738173 C 215.534974 46.572468 219.090211 47.724365 222.607525 48.539699 C 229.656375 50.179849 236.634121 51.587723 242.398345 55.887189 C 243.616606 56.79259 244.631034 57.958708 245.61228 59.124825 Q 245.863516 59.428206 246.105272 59.115345 Z" style="fill:#56c1ce;"/>
		<path d="M 337.939417 57.764355 C 341.769592 70.515805 341.390367 84.774676 338.057925 97.564049 Q 335.175812 108.632687 329.658084 118.255529 Q 329.492173 118.544688 329.160351 118.587351 L 329.032363 118.606312 Q 328.662618 118.658455 328.828529 118.326633 Q 337.313695 101.522213 338.982286 82.082176 Q 340.015675 69.98963 337.351617 58.086696 C 337.313695 57.911304 337.413242 57.735913 337.583893 57.679029 L 337.697661 57.641106 C 337.797207 57.607924 337.906234 57.664808 337.939417 57.764355 Z" style="fill:#2a4f72;"/>
		<path d="M 152.000517 98.090224 C 148.800803 85.642154 148.615931 73.009211 151.74928 60.746013 C 151.777722 60.636986 151.891489 60.565881 152.000517 60.594323 L 152.119025 60.622765 C 152.185389 60.636986 152.228052 60.703351 152.218571 60.774455 Q 151.137779 67.154921 150.948167 70.084436 Q 149.540293 91.539107 158.034939 111.429473 Q 158.34306 112.145261 157.722078 111.67123 Q 157.172202 111.244601 156.84038 110.62836 Q 153.740213 104.864136 152.000517 98.090224 Z" style="fill:#2a4f72;"/>
		<path d="M 246.584044 89.619279 Q 246.797359 89.576616 246.939568 89.405965 C 256.088378 78.474796 270.859203 72.795897 285.013787 72.056408 Q 287.526155 71.923679 290.194953 72.151214 Q 290.384565 72.165435 290.512554 72.293423 C 290.645283 72.426152 290.574178 72.653688 290.389306 72.69161 C 288.151876 73.132459 285.904967 73.568569 283.805007 74.49767 Q 280.088599 76.14256 276.618687 78.564862 C 270.351989 82.935433 264.767897 88.334653 259.890112 94.245827 C 252.267683 103.475223 247.323534 114.567563 246.299625 126.351989 Q 246.076831 128.940201 245.659683 126.37569 C 245.252016 123.887024 245.067143 121.445761 244.479344 119.013979 Q 242.422047 110.524073 238.672457 104.115166 Q 229.523647 88.472122 214.188724 77.986543 Q 208.505085 74.104224 201.631627 72.620505 Q 201.366169 72.563622 201.247661 72.336086 C 201.195517 72.23654 201.257142 72.113291 201.370909 72.103811 Q 202.612872 71.994784 203.769509 71.990043 Q 216.999731 71.94738 229.386177 77.261275 Q 239.525714 81.612885 246.242742 89.505511 C 246.323327 89.605058 246.456056 89.647721 246.584044 89.619279 Z" style="fill:#2a4f72;"/>
	</g>
	<g id="surface4">
	</g>
</svg>
