<?xml version="1.0" encoding="utf-8"?>
<svg xmlns="http://www.w3.org/2000/svg" width="490pt" height="280pt" viewBox="0 0 490 280" version="1.1" xmlns:xlink="http://www.w3.org/1999/xlink">
	<g id="surface2">
		<path d="M 263.360912 17.601338 Q 253.036672 13.438338 240.947321 14.317563 Q 234.186609 14.810463 228.668136 16.881971 C 217.994204 20.891773 208.832274 28.008837 202.474541 37.493816 Q 194.544859 49.316736 194.118568 64.623254 C 194.011995 68.409918 188.077222 68.856192 187.217979 65.599061 Q 186.931565 64.523342 187.021486 62.411868 Q 187.31123 55.461324 189.049699 48.873793 Q 192.799729 34.669637 203.553591 23.992375 Q 207.71326 19.862679 211.822973 17.101778 C 220.215581 11.46008 229.487415 7.863248 239.305433 6.940728 Q 252.610381 5.688497 264.669759 10.038 C 275.376995 13.901263 284.289145 20.502116 291.516112 29.297702 Q 299.212667 38.669447 301.923612 50.818746 Q 303.40231 57.446242 303.385658 64.000469 Q 303.378997 66.441652 301.593903 67.417459 C 299.82546 68.386606 297.081211 67.747169 296.345192 65.725616 Q 296.16202 65.219395 296.108734 63.950513 Q 296.022144 61.985577 295.855624 60.09724 Q 294.57675 45.639974 285.797816 34.453161 C 280.049546 27.129612 272.163159 21.151544 263.360912 17.601338 Z" style="fill:#353433;"/>
		<path d="M 216.365639 43.758298 Q 217.04171 43.491866 217.984213 43.491866 Q 244.384293 43.488536 272.293044 43.478545 Q 275.436942 43.478545 275.433611 46.485896 Q 275.410299 66.075308 275.33703 87.606343 Q 275.330369 90.020883 275.303726 90.144108 Q 274.944043 91.762682 272.902507 91.766013 Q 244.85721 91.785995 217.161605 91.776004 Q 214.79036 91.776004 214.777038 89.531314 Q 214.660474 70.148387 214.733743 47.315165 C 214.740404 45.806494 214.677126 44.427709 216.365639 43.758298 Z M 269.988408 48.001228 C 269.988408 47.728135 269.768601 47.508329 269.495508 47.508329 L 235.372231 47.508329 C 235.099138 47.508329 234.879332 47.728135 234.879332 48.001228 L 234.879332 52.843629 C 234.879332 53.116722 235.099138 53.336528 235.372231 53.336528 L 269.495508 53.336528 C 269.768601 53.336528 269.988408 53.116722 269.988408 52.843629 L 269.988408 48.001228 Z M 269.985077 56.886735 C 269.985077 56.613642 269.76194 56.390505 269.488848 56.390505 L 235.432178 56.390505 C 235.159086 56.390505 234.935949 56.613642 234.935949 56.886735 L 234.935949 61.789083 C 234.935949 62.062176 235.159086 62.285313 235.432178 62.285313 L 269.488848 62.285313 C 269.76194 62.285313 269.985077 62.062176 269.985077 61.789083 L 269.985077 56.886735 Z M 270.00506 65.795554 C 270.00506 65.515801 269.778592 65.289334 269.498839 65.289334 L 235.428848 65.289334 C 235.149094 65.289334 234.922627 65.515801 234.922627 65.795554 L 234.922627 70.538044 C 234.922627 70.817798 235.149094 71.044265 235.428848 71.044265 L 269.498839 71.044265 C 269.778592 71.044265 270.00506 70.817798 270.00506 70.538044 L 270.00506 65.795554 Z M 269.934388 74.484002 C 269.935121 74.221466 269.721976 74.008321 269.457309 74.008587 L 235.400706 74.068035 C 235.139103 74.068268 234.925958 74.281413 234.925291 74.545081 L 234.933351 79.161015 C 234.932618 79.423551 235.145764 79.636696 235.410431 79.63643 L 269.467033 79.576982 C 269.728636 79.576749 269.941782 79.363604 269.942448 79.099936 L 269.934388 74.484002 Z M 269.992371 83.264135 C 269.991738 82.967096 269.751949 82.727308 269.457109 82.727008 L 235.447132 82.66766 C 235.152425 82.66736 234.909306 82.907149 234.910005 83.202922 L 234.902012 87.785552 C 234.902645 88.082591 235.142434 88.322379 235.437274 88.322679 L 269.447251 88.382027 C 269.741958 88.382327 269.985077 88.142538 269.984378 87.846765 L 269.992371 83.264135 Z" style="fill:#353433;"/>
		<path d="M 245.243536 125.779387 C 246.02285 124.510505 246.742216 123.171684 247.628103 121.999383 Q 251.221604 117.246902 256.443671 113.949806 Q 260.919729 111.118967 266.058536 108.591193 C 272.92582 105.210837 279.033774 100.758093 283.722977 94.803338 Q 285.438133 92.621926 287.143297 89.890998 C 288.512092 87.699595 291.929082 88.232459 292.99814 90.340602 C 294.636697 93.57109 290.716816 98.296927 288.728568 100.641529 Q 283.709655 106.559649 277.555076 110.629398 C 273.891636 113.053929 270.038364 115.102125 265.941972 117.783097 C 255.624393 124.537148 247.961143 135.457529 246.10278 147.839956 Q 245.60655 151.140382 245.393404 154.607328 Q 245.390074 154.663945 245.333457 154.660615 L 245.243536 154.657284 C 245.153616 154.653954 245.080347 154.584016 245.070356 154.494095 C 244.52084 148.915675 243.425138 142.854347 241.043902 137.725531 C 237.267229 129.592695 231.748756 122.798679 224.195409 117.783097 C 220.345467 115.222019 216.279049 113.030616 212.205969 110.326331 Q 203.869979 104.787876 198.378149 96.391938 C 197.538888 95.109734 196.816192 93.604394 196.752914 92.085731 C 196.679645 90.343932 197.828633 88.921851 199.520476 88.598803 C 201.378839 88.24245 202.407933 88.875226 203.417044 90.363914 C 204.223001 91.559528 205.002315 92.82175 205.871549 93.940764 Q 212.782129 102.826271 222.506896 107.798558 C 228.821335 111.025715 234.319825 113.749983 238.825856 117.893 Q 242.446 121.2234 244.903836 125.772726 C 244.973774 125.905942 245.163607 125.909273 245.243536 125.779387 Z" style="fill:#353433;"/>
		<path d="M 275.317047 95.812449 C 275.317047 96.808238 274.511091 97.614195 273.515301 97.614195 L 216.612089 97.614195 C 215.616299 97.614195 214.810342 96.808238 214.810342 95.812449 L 214.810342 95.685893 C 214.810342 94.690104 215.616299 93.884147 216.612089 93.884147 L 273.515301 93.884147 C 274.511091 93.884147 275.317047 94.690104 275.317047 95.685893 L 275.317047 95.812449 Z" style="fill:#353433;"/>
	</g>
	<g id="surface4">
	</g>
</svg>
