<?xml version="1.0" encoding="utf-8"?>
<svg xmlns="http://www.w3.org/2000/svg" width="490pt" height="280pt" viewBox="0 0 490 280" version="1.1" xmlns:xlink="http://www.w3.org/1999/xlink">
	<g id="surface2">
		<path d="M 237.9149 141.866697 Q 227.244176 140.532161 217.285203 134.782537 Q 216.879282 134.548993 216.595693 134.91599 Q 211.463292 141.622032 206.069544 147.11031 Q 205.758152 147.427262 205.402276 147.160355 Q 201.832393 144.45792 197.739817 142.050195 C 197.389502 141.844454 197.244927 141.416291 197.395062 141.043733 Q 200.547903 133.036519 204.384693 126.163661 C 204.551509 125.85783 204.501464 125.474151 204.26236 125.223925 Q 196.455327 117.066576 191.979072 106.08446 C 191.867861 105.823114 191.578711 105.6841 191.300683 105.761948 L 174.974864 110.544034 C 174.707957 110.621882 174.435489 110.455065 174.385444 110.188157 Q 173.345618 104.777728 171.538435 99.68425 C 171.416102 99.333934 171.59404 98.950255 171.938795 98.811241 L 187.63071 92.622332 Q 188.097797 92.438834 188.047752 91.938383 Q 187.185865 83.174932 188.80955 73.888789 Q 188.865155 73.577397 188.564885 73.466186 Q 180.652201 70.574692 172.433686 66.954764 Q 171.838705 66.693417 172.044446 66.076195 L 175.42527 55.816952 C 175.508678 55.572287 175.764464 55.433273 176.01469 55.5 Q 184.394461 57.768711 192.657461 60.91599 Q 193.0467 61.060565 193.219078 60.682447 C 195.849225 54.938383 199.513638 49.983919 203.706304 45.240757 Q 204.112225 44.779231 203.878681 44.217613 L 197.294972 28.481214 C 197.222685 28.314397 197.289411 28.114217 197.450668 28.025248 Q 201.3097 25.856628 204.796174 23.204238 Q 205.407836 22.742711 205.941651 23.298768 Q 211.218627 28.864893 216.36215 35.048242 C 216.601254 35.33183 217.018296 35.381876 217.313006 35.165014 Q 218.803238 34.052901 220.482528 33.229937 Q 228.156108 29.470995 237.497858 27.980763 Q 238.165125 27.875113 238.170686 27.202284 L 238.270776 11.365795 C 238.270776 11.254584 238.359745 11.165615 238.470956 11.165615 L 250.921062 11.12113 Q 251.349225 11.12113 251.349225 11.549294 L 251.271377 27.469191 C 251.271377 27.775023 251.49936 28.030809 251.799631 28.064172 Q 263.215471 29.359784 272.957581 35.281785 C 273.157761 35.404118 273.413547 35.348512 273.552561 35.165014 Q 278.228997 28.914938 283.784001 23.270965 Q 284.212165 22.837241 284.712616 23.187556 Q 288.510482 25.817704 292.569694 27.841749 C 292.72539 27.919597 292.797677 28.097535 292.736511 28.258792 Q 289.655958 36.232642 285.980424 43.928464 Q 285.624548 44.684701 286.175044 45.274121 Q 293.081266 52.708596 297.223887 60.704689 C 297.279493 60.81034 297.396265 60.854824 297.507476 60.821461 L 313.560827 55.394349 Q 314.333746 55.127442 314.57285 55.911482 Q 316.0464 60.765855 318.203899 66.087316 C 318.303989 66.343102 318.187217 66.632251 317.936992 66.737902 Q 311.097497 69.701683 304.369213 72.409678 Q 303.129207 72.910129 302.050457 73.588518 Q 301.805793 73.738653 301.855838 74.022242 Q 303.373872 83.380673 302.384091 92.133003 C 302.356289 92.394349 302.500863 92.639014 302.745528 92.733544 L 318.40964 98.966937 C 318.537533 99.022543 318.60982 99.161557 318.570896 99.295011 L 315.512586 110.366096 C 315.468101 110.532913 315.290163 110.633003 315.123346 110.588518 L 298.508378 105.995491 Q 298.196986 105.912083 298.057972 106.201232 C 297.051509 108.303126 296.228546 110.51067 295.099751 112.551398 Q 291.201795 119.602194 285.897016 125.123835 C 285.580064 125.457469 285.496655 125.946799 285.691275 126.363841 L 292.575255 140.938082 C 292.747632 141.30508 292.608618 141.744364 292.258302 141.950105 Q 287.748684 144.574692 284.312255 147.11031 Q 283.939697 147.382777 283.633866 147.043583 Q 278.345769 141.21055 273.424668 134.91599 C 273.235609 134.671326 272.896415 134.610159 272.629508 134.765855 Q 262.987488 140.404268 251.68842 141.866697 Q 251.315862 141.911181 251.321422 142.283739 L 251.377028 158.82642 Q 251.377028 159.12113 251.082318 159.12113 L 238.571047 159.065524 C 238.381987 159.065524 238.226292 158.909829 238.226292 158.720769 L 238.276337 142.272618 Q 238.276337 141.911181 237.9149 141.866697 Z M 293.203598 103.754584 C 300.143184 87.640066 297.690974 69.123384 287.22043 55.194169 C 277.066839 41.687556 262.108919 33.6581 245.138074 33.36339 C 232.810301 33.152089 219.982078 38.345657 211.046249 46.692065 Q 193.33585 63.234746 193.697286 87.528855 C 194.042041 110.393898 212.631011 130.723324 234.400623 135.666667 Q 249.592087 139.119778 264.449916 132.658401 Q 284.517996 123.922753 293.203598 103.754584 Z" style="fill:#24364f;"/>
		<path d="M 243.775735 37.233544 L 244.198338 38.295612 Q 244.298429 38.545837 244.237262 38.812744 L 243.92031 40.219567 Q 243.547752 40.380824 243.536631 40.959122 Q 243.43098 46.797716 243.269724 53.259092 Q 243.241921 54.254433 242.24658 54.237752 L 236.641531 54.143222 Q 235.635068 54.12654 235.523857 55.121882 Q 235.329237 56.795612 235.484933 58.441539 Q 235.590584 59.503607 236.652652 59.520289 L 242.608017 59.6315 Q 243.408738 59.642621 243.408738 60.443342 L 243.403178 70.546889 C 243.403178 70.830478 243.169634 71.064022 242.886045 71.058461 L 236.063232 70.991734 C 235.735158 70.986174 235.446009 71.225278 235.390403 71.547791 Q 235.006724 73.660806 235.223586 75.467989 Q 235.362601 76.641268 236.608167 76.669071 Q 239.660917 76.724677 242.830439 76.646829 Q 243.258603 76.635708 243.258603 77.063871 L 243.291966 86.422302 C 243.291966 86.822663 242.975014 87.145176 242.580214 87.156297 L 236.230049 87.289751 Q 234.945558 87.317553 234.945558 88.602044 L 234.939998 91.159904 Q 234.939998 92.566727 236.346821 92.538924 L 242.485684 92.422152 C 242.924969 92.416592 243.291966 92.761347 243.308648 93.200631 Q 243.569995 100.818605 243.314209 108.692365 C 243.297527 109.220619 242.858242 109.643222 242.324428 109.637662 L 235.896415 109.598738 C 235.75184 109.598738 235.623947 109.698828 235.590584 109.837842 Q 235.067891 111.817403 235.129057 114.158401 C 235.140178 114.714457 235.55722 115.181545 236.113277 115.253832 Q 238.893559 115.62639 242.263262 115.342801 Q 243.32533 115.253832 243.308648 116.3159 L 243.197437 124.18966 Q 243.186316 124.890292 242.485684 124.87917 L 235.863051 124.767959 Q 234.956679 124.756838 234.923316 125.66321 L 234.745378 131.062519 C 234.734257 131.346108 234.46735 131.546288 234.189321 131.479561 Q 225.976367 129.416592 219.487187 125.012624 C 205.129808 115.276075 196.160617 99.573039 197.745378 81.801473 Q 199.469153 62.461827 213.937743 49.294409 Q 226.565787 37.800721 243.775735 37.233544 Z M 224.036786 59.696447 C 226.20435 60.143072 228.334046 58.675083 228.797186 56.41627 C 229.262661 54.159904 227.87808 51.969041 225.713964 51.525975 C 223.5464 51.079351 221.416703 52.54734 220.953564 54.806153 C 220.488089 57.062519 221.87267 59.253381 224.036786 59.696447 Z M 226.615832 88.218365 C 226.615832 82.507665 221.983881 77.875714 216.273181 77.875714 C 210.56248 77.875714 205.93053 82.507665 205.93053 88.218365 C 205.93053 93.929065 210.56248 98.561016 216.273181 98.561016 C 221.983881 98.561016 226.615832 93.929065 226.615832 88.218365 Z M 227.840046 102.753404 C 226.543544 100.840848 223.896715 100.379321 221.929999 101.714079 C 219.965396 103.048392 219.42046 105.6841 220.720743 107.591652 C 222.017244 109.504208 224.664073 109.965735 226.63079 108.630977 C 228.595393 107.296664 229.140328 104.660956 227.840046 102.753404 Z" style="fill:#ee7a23;"/>
		<path d="M 243.775735 37.233544 Q 256.053463 37.544935 266.685264 42.794109 C 278.323526 48.538173 287.092537 58.619477 291.257401 70.791554 Q 294.877329 81.356628 292.569694 93.651037 Q 291.596595 98.844605 288.571648 104.8945 Q 281.687668 118.645777 269.115231 126.130298 Q 255.675345 134.137511 238.89912 132.469342 C 238.80459 132.458221 238.732303 132.380373 238.726742 132.285843 L 238.582168 129.416592 C 238.576607 129.333183 238.654455 129.260896 238.737864 129.272017 Q 244.693229 129.878118 250.470656 128.90502 C 254.674443 128.204388 258.950518 127.170123 262.859595 125.401864 Q 278.451419 118.339946 286.258453 101.619327 C 292.452922 88.351818 291.046099 73.666366 282.833145 61.460926 Q 274.041891 48.388037 258.755898 42.643974 C 253.984933 40.853472 249.03603 40.503156 243.92031 40.219567 L 244.237262 38.812744 Q 244.298429 38.545837 244.198338 38.295612 L 243.775735 37.233544 Z" style="fill:#24364f;"/>
		<path d="M 254.980274 56.523144 L 251.443755 56.523144 C 251.187969 56.523144 250.987788 56.317403 250.993349 56.061617 L 251.043394 53.587166 C 251.048955 53.348061 251.243574 53.153442 251.482679 53.147881 L 255.030319 53.053351 C 255.280545 53.047791 255.475164 52.84205 255.469604 52.591824 L 255.391756 49.928314 C 255.386195 49.683649 255.569694 49.483469 255.814359 49.466787 L 258.28325 49.294409 C 258.533475 49.277728 258.750337 49.466787 258.767019 49.717012 L 258.933836 52.608506 C 258.944957 52.84205 259.139577 53.031109 259.373121 53.031109 L 262.859595 53.086715 C 263.093139 53.086715 263.287758 53.281335 263.298879 53.514878 L 263.387849 55.677938 C 263.39897 55.939285 263.193229 56.150586 262.931882 56.150586 L 259.489892 56.100541 C 259.245228 56.100541 259.039487 56.295161 259.033926 56.539826 L 258.97276 59.103246 C 258.967199 59.33679 258.789261 59.525849 258.555717 59.542531 L 256.008979 59.748272 C 255.753193 59.770514 255.53077 59.575894 255.525209 59.320108 L 255.43068 56.956868 C 255.419559 56.712203 255.224939 56.523144 254.980274 56.523144 Z" style="fill:#24364f;"/>
		<path d="M 283.077809 87.556658 L 282.866508 89.74196 Q 282.833145 90.081154 283.133415 90.242411 Q 283.733956 90.564923 284.100953 91.070935 C 284.251089 91.276676 284.306694 91.538022 284.251089 91.788248 Q 283.828486 93.762248 282.304891 95.05786 Q 282.093589 95.235798 281.815561 95.207995 C 281.103809 95.124587 280.62004 94.601894 279.93053 94.496243 Q 278.679402 94.301623 277.739667 95.54719 C 276.900022 96.664863 277.606213 97.476706 277.96209 98.533213 C 278.028816 98.738954 277.995453 98.961377 277.861999 99.133754 Q 276.605312 100.757439 274.536781 100.824166 Q 274.197587 100.835287 274.002967 100.562819 L 273.196685 99.434025 Q 272.996505 99.155996 272.662871 99.206041 Q 271.250488 99.411782 270.282949 100.301473 C 270.110572 100.457169 270.010482 100.679591 270.004921 100.913135 Q 269.988239 101.480313 269.776938 102.008566 Q 269.582318 102.492335 269.059625 102.497896 L 265.617635 102.531259 C 265.36741 102.53682 265.161669 102.33664 265.156108 102.086414 L 265.111624 100.457169 Q 265.100503 100.17358 264.928125 99.945597 Q 264.394311 99.272768 263.287758 99.061467 C 261.780845 98.766757 261.247031 99.606402 260.657611 100.707394 Q 260.44631 101.102194 260.034828 100.929817 L 257.148894 99.695371 C 256.565035 99.445146 256.303689 98.755636 256.576156 98.182898 C 256.920911 97.460024 257.510331 96.53697 257.043244 95.74737 Q 255.786556 93.628795 253.75695 94.401713 C 252.48358 94.891043 251.4938 94.16817 251.021152 92.967087 Q 250.098098 90.62609 252.138825 90.197926 Q 252.522504 90.114518 252.466899 89.730839 L 252.149946 87.395401 C 252.116583 87.134055 251.899721 86.928314 251.632814 86.911632 L 250.231552 86.800421 Q 248.819168 86.69477 248.457731 85.326871 Q 248.229748 84.453862 248.207506 83.425158 Q 248.179703 82.274121 249.33074 82.285242 Q 251.960887 82.307484 251.960887 78.798768 Q 251.960887 77.975804 251.193529 77.686655 L 250.198188 77.314097 C 249.986887 77.236249 249.875675 76.991584 249.953523 76.774722 C 250.437292 75.417944 250.99891 72.72107 253.123045 73.466186 Q 255.358393 74.255786 256.520551 71.970394 C 257.021002 70.980613 256.498308 69.935227 256.253644 68.962128 C 256.181356 68.6841 256.337052 68.400511 256.603959 68.300421 L 259.695633 67.149384 C 259.945859 67.054854 260.229448 67.127142 260.401825 67.332882 L 261.475014 68.628494 Q 261.669634 68.862038 261.969904 68.845356 Q 264.600052 68.711903 264.477719 66.443192 C 264.444356 65.83153 265.005973 65.358882 265.600953 65.492335 Q 267.374774 65.881575 269.193078 65.570183 Q 269.526712 65.514578 269.537833 65.853772 Q 269.610121 68.361587 272.134617 68.728584 Q 272.479372 68.778629 272.707356 68.511722 Q 272.95202 68.233694 273.024308 67.877818 C 273.096595 67.527502 273.419108 67.293959 273.769424 67.327322 Q 275.437593 67.488578 276.677599 68.10024 C 277.27258 68.39495 277.550608 69.090021 277.322625 69.707244 Q 276.416252 72.159453 279.001915 73.349414 C 279.207656 73.443943 279.4412 73.460625 279.658062 73.388338 C 280.836902 73.01578 282.282649 72.387436 283.150097 73.721972 Q 284.056469 75.106552 284.645889 76.763601 C 284.75154 77.058311 284.601404 77.380824 284.306694 77.486474 L 282.972159 77.953562 Q 282.677449 78.059213 282.699691 78.376165 Q 282.838705 80.161106 283.606063 81.228735 C 283.733956 81.412233 283.917455 81.545687 284.123196 81.617974 L 285.780244 82.212955 Q 286.152802 82.346408 286.163923 82.741208 L 286.264013 85.938533 Q 286.275134 86.338894 285.885895 86.438984 L 283.500412 87.061767 C 283.272429 87.122934 283.100052 87.317553 283.077809 87.556658 Z M 275.937377 83.356262 C 275.760106 78.770965 271.834347 75.195521 267.166864 75.374016 C 262.498158 75.551398 258.855988 79.41599 259.034593 84.005625 C 259.211864 88.590923 263.137623 92.166366 267.805106 91.987872 C 272.473812 91.81049 276.115982 87.945897 275.937377 83.356262 Z" style="fill:#24364f;"/>
		<path d="M 221.665872 87.496715 C 222.128456 90.275774 220.148894 92.928164 217.232434 93.414213 C 214.321422 93.901262 211.580064 92.044034 211.114033 89.262528 C 210.651449 86.483469 212.631011 83.831079 215.547471 83.34503 C 218.458483 82.85798 221.199841 84.715209 221.665872 87.496715 Z" style="fill:#24364f;"/>
		<path d="M 259.106213 116.204689 L 258.833746 118.990532 C 258.817064 119.196273 258.644687 119.351969 258.438946 119.351969 L 256.125751 119.36309 C 255.897767 119.36309 255.719829 119.179591 255.719829 118.951608 L 255.775435 116.466035 C 255.775435 116.249173 255.614179 116.071235 255.397317 116.060114 L 251.716222 115.82101 C 251.49936 115.804328 251.332543 115.615269 251.343665 115.398407 L 251.471558 113.074091 C 251.482679 112.851668 251.671738 112.684851 251.894161 112.695972 L 255.263863 112.862789 C 255.486286 112.87391 255.675345 112.701533 255.686466 112.47911 L 255.808798 109.615419 C 255.819919 109.392997 256.008979 109.220619 256.231401 109.23174 L 258.767019 109.381876 C 258.97276 109.392997 259.139577 109.570935 259.139577 109.782236 L 259.156258 112.390141 C 259.156258 112.607003 259.328636 112.784941 259.545498 112.784941 L 263.237713 112.851668 C 263.465696 112.851668 263.643635 113.046288 263.632513 113.268711 L 263.515742 115.581906 C 263.50462 115.798768 263.321122 115.965585 263.098699 115.960024 L 259.517695 115.843252 C 259.306394 115.837692 259.128456 115.993387 259.106213 116.204689 Z" style="fill:#24364f;"/>
	</g>
	<g id="surface4">
	</g>
</svg>
