<?xml version="1.0" encoding="utf-8"?>
<svg xmlns="http://www.w3.org/2000/svg" width="490pt" height="280pt" viewBox="0 0 490 280" version="1.1" xmlns:xlink="http://www.w3.org/1999/xlink">
	<g id="surface2">
		<path d="M 195.856086 12.100221 C 195.855572 12.219298 195.760659 12.314211 195.642136 12.31342 L 178.431229 12.283364 C 178.312429 12.282573 178.217515 12.18766 178.21803 12.069453 L 178.224911 8.122641 C 178.225425 8.003565 178.320338 7.908651 178.438861 7.909442 L 195.649768 7.939498 C 195.768568 7.940289 195.863482 8.035203 195.862967 8.153409 L 195.856086 12.100221 Z" style="fill:#243b50;"/>
		<path d="M 244.182265 35.749889 C 244.182265 35.904123 244.059669 36.026719 243.905435 36.026719 L 178.375704 36.026719 C 178.22147 36.026719 178.098874 35.904123 178.098874 35.749889 L 178.098874 32.032451 C 178.098874 31.878217 178.22147 31.75562 178.375704 31.75562 L 243.905435 31.75562 C 244.059669 31.75562 244.182265 31.878217 244.182265 32.032451 L 244.182265 35.749889 Z" style="fill:#748b9f;"/>
		<path d="M 244.198084 47.629871 C 244.198084 47.807834 244.055714 47.950204 243.877752 47.950204 L 178.458753 47.950204 C 178.280791 47.950204 178.138421 47.807834 178.138421 47.629871 L 178.138421 43.754245 C 178.138421 43.576282 178.280791 43.433912 178.458753 43.433912 L 243.877752 43.433912 C 244.055714 43.433912 244.198084 43.576282 244.198084 43.754245 L 244.198084 47.629871 Z" style="fill:#748b9f;"/>
		<path d="M 279.810349 50.469361 Q 279.814304 51.007203 280.375874 50.999294 Q 280.585474 50.999294 280.490561 51.185166 Q 279.44256 53.217893 278.770257 55.254574 Q 278.703027 55.456265 278.556702 55.610499 Q 278.275917 55.915012 278.299645 56.357941 Q 278.31151 56.551723 278.129592 56.626862 L 276.571432 57.267527 Q 270.528618 57.113293 264.604446 59.418895 C 249.71492 65.220471 238.479557 78.915671 235.185275 94.414223 C 234.520881 97.538453 234.418059 100.575679 234.576248 103.739456 Q 234.908444 110.229154 237.823074 115.805311 Q 238.076176 116.493432 238.004991 116.94427 Q 237.969398 117.193418 237.791436 117.015455 Q 237.000492 116.204737 236.434967 115.156736 Q 236.296551 114.895725 236.154181 115.156736 Q 236.114634 115.231876 236.094861 115.314925 Q 236.031585 115.53639 235.877351 115.366337 L 235.280188 114.725672 Q 235.121999 114.551664 234.951946 114.717762 L 234.576248 115.093461 C 234.46947 115.200238 234.299417 115.204193 234.188685 115.10137 Q 233.872307 114.800811 233.583613 115.129053 C 233.508473 115.212102 233.41356 115.275378 233.306782 115.314925 Q 232.195505 115.710397 231.107957 115.639212 Q 231.020953 115.631303 230.965587 115.694578 Q 230.831127 115.848813 230.676892 115.718307 Q 230.471247 115.544299 230.186507 115.496842 L 229.098959 112.487299 Q 229.043593 112.333065 228.877494 112.333065 Q 225.369657 112.33702 221.573124 112.333065 Q 195.515466 112.305382 170.616541 112.352839 C 169.299619 112.352839 168.599633 111.664717 168.508675 110.359659 Q 168.374214 108.449529 170.323892 108.449529 Q 200.36 108.398118 228.050958 108.398118 Q 228.145871 108.398118 228.134007 108.303204 Q 227.02273 100.77737 228.383154 93.453226 L 229.269012 89.557826 Q 231.005134 82.751751 234.141228 77.519654 Q 243.328046 62.1872 259.107383 54.242165 Q 268.875545 49.322492 279.810349 50.469361 Z" style="fill:#243b50;"/>
		<path d="M 279.810349 50.469361 Q 284.927758 51.082343 289.230495 53.316761 Q 289.958164 54.048384 289.942345 54.95006 Q 289.942345 55.084521 289.851386 55.183389 Q 289.803929 55.2348 289.768337 55.286212 Q 289.661559 55.448355 289.799975 55.582816 Q 289.985847 55.768688 289.879069 56.061337 Q 289.803929 56.263028 289.618058 56.377715 C 289.028804 56.753413 289.23445 57.208206 289.119763 57.773731 Q 288.823159 59.244888 288.490962 60.743727 Q 282.922715 57.287301 276.571432 57.267527 L 278.129592 56.626862 Q 278.31151 56.551723 278.299645 56.357941 Q 278.275917 55.915012 278.556702 55.610499 Q 278.703027 55.456265 278.770257 55.254574 Q 279.44256 53.217893 280.490561 51.185166 Q 280.585474 50.999294 280.375874 50.999294 Q 279.814304 51.007203 279.810349 50.469361 Z" style="fill:#385064;"/>
		<path d="M 289.230495 53.316761 Q 294.446772 55.966424 297.606594 59.77482 Q 300.699186 63.500168 301.897467 64.761724 Q 301.636455 64.876411 301.4229 64.801271 Q 301.395217 64.793362 301.387308 64.765678 Q 301.36358 64.718222 301.359625 64.66681 Q 301.331942 64.386025 301.157934 64.60749 Q 301.106523 64.678675 301.074885 64.769633 Q 300.999745 64.995052 301.157934 65.16906 Q 301.434765 65.473574 301.324032 65.876955 Q 301.296349 65.979778 301.399172 65.960004 Q 301.470357 65.94814 301.513859 65.991642 Q 301.581089 66.062827 301.585044 66.153786 Q 301.612727 66.656035 301.893512 66.972413 C 302.660728 67.854316 303.032472 69.115872 303.329076 70.21133 C 306.552174 82.087357 304.317756 95.126073 298.211667 105.598175 Q 295.210033 110.743267 291.441184 115.279333 Q 290.393183 116.540889 289.190948 117.569116 Q 289.024849 117.711486 288.989257 117.925041 Q 288.953664 118.106958 289.143491 118.122777 Q 289.321453 118.138596 289.341227 118.237464 Q 286.976304 119.42388 285.346959 121.630615 Q 283.990489 122.567884 283.539651 123.868987 Q 283.397281 123.742436 283.100677 123.766164 Q 282.875258 123.781983 282.705205 123.924353 Q 277.848807 127.910712 272.335926 130.164903 C 269.947274 131.145674 267.412298 132.1304 264.936642 132.747336 C 259.862735 134.004938 254.152118 134.218493 249.003071 132.680106 Q 248.611553 132.565419 248.220036 132.395366 Q 247.409318 132.039441 247.334178 132.620785 L 243.04726 130.465462 Q 238.558652 127.388689 234.631614 122.967311 L 234.82935 122.809122 Q 234.955901 122.706299 235.094316 122.793303 Q 235.161546 122.836805 235.129909 122.876352 Q 234.987539 123.062224 235.216912 123.11759 Q 235.833849 123.25996 236.138362 123.924353 Q 236.367736 124.430558 236.869986 124.644112 Q 237.111224 124.746935 237.036084 124.493833 Q 236.972809 124.272369 236.786937 124.252595 Q 236.66434 124.236776 236.656431 124.11418 L 236.620838 123.631704 C 236.601065 123.366738 236.763208 123.121545 237.012356 123.030586 Q 237.562062 122.83285 237.759798 123.19273 Q 237.827028 123.311371 237.94567 123.252051 C 238.554697 122.959401 238.677293 123.252051 239.282366 123.196685 Q 239.385189 123.18482 239.349596 123.089907 C 239.321913 123.014767 239.393098 122.939628 239.472192 122.959401 Q 239.974442 123.093862 240.488556 123.078043 Q 240.694201 123.070133 240.872164 122.987084 Q 241.196451 122.836805 241.330911 123.169001 C 241.35464 123.224368 241.417915 123.256005 241.473281 123.232277 Q 241.884572 123.078043 242.12581 123.461651 Q 242.240497 123.643568 242.446143 123.694979 Q 243.063079 123.861078 243.680016 124.023221 Q 243.96871 124.098361 244.174356 124.311916 Q 244.411639 124.549199 244.609375 124.82603 Q 244.696379 124.944671 244.846659 124.936762 Q 244.937617 124.932807 245.020666 124.9684 Q 245.131399 125.015856 245.226312 125.11077 Q 245.764154 125.652566 246.404819 126.063857 Q 246.559053 126.162725 246.725151 126.123178 Q 246.95057 126.063857 247.132487 126.210182 Q 247.397454 126.415828 247.713831 126.443511 Q 247.931341 126.45933 247.923432 126.245775 L 247.915522 126.095495 C 247.911568 125.968944 247.820609 125.862167 247.698013 125.842393 Q 247.361861 125.779117 247.488412 125.411328 L 248.781606 125.870076 Q 250.92902 126.949715 252.158938 127.167225 Q 262.90787 129.057581 272.553435 124.007402 C 289.194902 115.299106 301.276576 96.747509 298.80092 77.543383 Q 298.282852 73.529341 296.400404 69.562755 Q 293.758651 64.026146 288.490962 60.743727 Q 288.823159 59.244888 289.119763 57.773731 C 289.23445 57.208206 289.028804 56.753413 289.618058 56.377715 Q 289.803929 56.263028 289.879069 56.061337 Q 289.985847 55.768688 289.799975 55.582816 Q 289.661559 55.448355 289.768337 55.286212 Q 289.803929 55.2348 289.851386 55.183389 Q 289.942345 55.084521 289.942345 54.95006 Q 289.958164 54.048384 289.230495 53.316761 Z" style="fill:#4e677e;"/>
		<path d="M 243.818431 59.652224 L 178.502255 59.616631 C 178.332202 59.616631 178.197742 59.482171 178.197742 59.312118 L 178.189832 55.151751 C 178.189832 54.985653 178.328248 54.847238 178.494346 54.847238 L 243.846114 54.910513 C 244.016167 54.910513 244.154582 55.048928 244.150628 55.218981 L 244.122945 59.351665 C 244.11899 59.517763 243.984529 59.652224 243.818431 59.652224 Z" style="fill:#748b9f;"/>
		<path d="M 276.571432 57.267527 Q 282.922715 57.287301 288.490962 60.743727 Q 293.758651 64.026146 296.400404 69.562755 Q 295.791377 69.622076 295.281218 69.258242 Q 294.312312 68.574075 293.240582 68.356565 C 285.908529 66.881454 278.074226 68.807404 271.639895 72.414109 Q 256.24812 81.043311 248.552232 96.933381 Q 245.475459 103.284663 244.530281 109.893002 C 244.059669 113.179376 244.360228 117.288331 245.740426 120.444199 Q 246.222902 121.547566 246.590691 122.152638 Q 247.417227 123.497243 248.109304 124.841849 Q 248.136987 124.897215 248.144896 124.96049 Q 248.148851 125.039585 248.133032 125.118679 Q 248.093485 125.280823 248.255628 125.324325 Q 248.607598 125.419238 248.781606 125.870076 L 247.488412 125.411328 C 243.312227 123.481424 240.021899 119.854945 237.823074 115.805311 Q 234.908444 110.229154 234.576248 103.739456 C 234.418059 100.575679 234.520881 97.538453 235.185275 94.414223 C 238.479557 78.915671 249.71492 65.220471 264.604446 59.418895 Q 270.528618 57.113293 276.571432 57.267527 Z" style="fill:#cdd8dc;"/>
		<path d="M 301.897467 64.761724 Q 304.495719 67.537938 306.571947 70.622621 Q 307.216567 72.647438 307.987738 74.498247 Q 308.549308 75.850762 308.996192 78.86426 C 311.096148 92.915384 305.638633 107.057467 296.791922 117.889449 Q 296.135438 118.692257 295.54223 119.562296 C 295.356358 119.835171 295.348449 120.195051 295.522456 120.479791 Q 296.807741 122.532291 298.872105 123.872942 Q 306.370257 131.272225 313.777449 138.817833 Q 315.058779 140.122891 315.604531 141.63755 Q 315.434478 147.110884 310.491076 148.716501 Q 308.466259 149.372984 306.413759 148.961693 Q 305.302482 148.30521 304.388941 147.407488 Q 299.180573 142.301943 294.0513 137.010526 Q 292.56037 135.302086 290.294315 133.12699 Q 289.515235 132.379547 288.898298 131.295954 C 288.672879 130.900481 288.779657 130.520828 288.961574 130.149084 Q 289.709016 128.606743 290.448549 127.511285 Q 292.908386 124.786482 295.854653 123.528881 C 295.989113 123.473515 295.997023 123.287643 295.866517 123.220413 Q 294.877837 122.714209 294.075028 121.998404 Q 291.986936 120.139685 290.033303 118.573615 Q 289.807884 118.391698 289.341227 118.237464 Q 289.321453 118.138596 289.143491 118.122777 Q 288.953664 118.106958 288.989257 117.925041 Q 289.024849 117.711486 289.190948 117.569116 Q 290.393183 116.540889 291.441184 115.279333 Q 295.210033 110.743267 298.211667 105.598175 C 304.317756 95.126073 306.552174 82.087357 303.329076 70.21133 C 303.032472 69.115872 302.660728 67.854316 301.893512 66.972413 Q 301.612727 66.656035 301.585044 66.153786 Q 301.581089 66.062827 301.513859 65.991642 Q 301.470357 65.94814 301.399172 65.960004 Q 301.296349 65.979778 301.324032 65.876955 Q 301.434765 65.473574 301.157934 65.16906 Q 300.999745 64.995052 301.074885 64.769633 Q 301.106523 64.678675 301.157934 64.60749 Q 301.331942 64.386025 301.359625 64.66681 Q 301.36358 64.718222 301.387308 64.765678 Q 301.395217 64.793362 301.4229 64.801271 Q 301.636455 64.876411 301.897467 64.761724 Z" style="fill:#243b50;"/>
		<path d="M 237.534854 70.682337 C 237.534379 70.792674 237.447375 70.879677 237.336801 70.879717 L 178.356168 70.776776 C 178.245199 70.776855 178.158195 70.689851 178.158788 70.578723 L 178.16563 66.65564 C 178.166104 66.545303 178.253108 66.458299 178.363682 66.45826 L 237.344315 66.561201 C 237.455285 66.561122 237.542289 66.648126 237.541695 66.759253 L 237.534854 70.682337 Z" style="fill:#748b9f;"/>
		<path d="M 306.571947 70.622621 Q 311.313658 75.625343 312.662218 82.878302 Q 314.797768 94.402359 310.767907 105.123609 C 308.509761 111.118966 304.851644 116.896814 300.920651 121.614796 Q 300.066431 122.646978 299.026339 123.643568 Q 298.974928 123.691025 298.919562 123.61193 Q 298.872105 123.536791 298.872105 123.623794 L 298.872105 123.872942 Q 296.807741 122.532291 295.522456 120.479791 C 295.348449 120.195051 295.356358 119.835171 295.54223 119.562296 Q 296.135438 118.692257 296.791922 117.889449 C 305.638633 107.057467 311.096148 92.915384 308.996192 78.86426 Q 308.549308 75.850762 307.987738 74.498247 Q 307.216567 72.647438 306.571947 70.622621 Z" style="fill:#cdd8dc;"/>
		<path d="M 178.510165 77.926991 L 231.234508 77.970493 C 231.471791 77.970493 231.661618 78.172183 231.649754 78.409467 L 231.463882 81.798663 C 231.452018 82.016172 231.270101 82.19018 231.052591 82.19018 L 178.57344 82.170407 C 178.348021 82.170407 178.162149 81.988489 178.158195 81.76307 L 178.094919 78.350146 C 178.090964 78.116817 178.276836 77.926991 178.510165 77.926991 Z" style="fill:#748b9f;"/>
		<path d="M 229.269012 89.557826 L 228.383154 93.453226 L 178.57344 93.441362 C 178.348021 93.441362 178.162149 93.259445 178.158195 93.034026 L 178.122602 89.585509 Q 178.118647 89.296814 178.407342 89.296814 Q 202.535096 89.320543 226.647032 89.308678 Q 228.078641 89.304724 229.269012 89.557826 Z" style="fill:#748b9f;"/>
		<path d="M 237.823074 115.805311 C 240.021899 119.854945 243.312227 123.481424 247.488412 125.411328 Q 247.361861 125.779117 247.698013 125.842393 C 247.820609 125.862167 247.911568 125.968944 247.915522 126.095495 L 247.923432 126.245775 Q 247.931341 126.45933 247.713831 126.443511 Q 247.397454 126.415828 247.132487 126.210182 Q 246.95057 126.063857 246.725151 126.123178 Q 246.559053 126.162725 246.404819 126.063857 Q 245.764154 125.652566 245.226312 125.11077 Q 245.131399 125.015856 245.020666 124.9684 Q 244.937617 124.932807 244.846659 124.936762 Q 244.696379 124.944671 244.609375 124.82603 Q 244.411639 124.549199 244.174356 124.311916 Q 243.96871 124.098361 243.680016 124.023221 Q 243.063079 123.861078 242.446143 123.694979 Q 242.240497 123.643568 242.12581 123.461651 Q 241.884572 123.078043 241.473281 123.232277 C 241.417915 123.256005 241.35464 123.224368 241.330911 123.169001 Q 241.196451 122.836805 240.872164 122.987084 Q 240.694201 123.070133 240.488556 123.078043 Q 239.974442 123.093862 239.472192 122.959401 C 239.393098 122.939628 239.321913 123.014767 239.349596 123.089907 Q 239.385189 123.18482 239.282366 123.196685 C 238.677293 123.252051 238.554697 122.959401 237.94567 123.252051 Q 237.827028 123.311371 237.759798 123.19273 Q 237.562062 122.83285 237.012356 123.030586 C 236.763208 123.121545 236.601065 123.366738 236.620838 123.631704 L 236.656431 124.11418 Q 236.66434 124.236776 236.786937 124.252595 Q 236.972809 124.272369 237.036084 124.493833 Q 237.111224 124.746935 236.869986 124.644112 Q 236.367736 124.430558 236.138362 123.924353 Q 235.833849 123.25996 235.216912 123.11759 Q 234.987539 123.062224 235.129909 122.876352 Q 235.161546 122.836805 235.094316 122.793303 Q 234.955901 122.706299 234.82935 122.809122 L 234.631614 122.967311 Q 231.91472 119.487156 230.186507 115.496842 Q 230.471247 115.544299 230.676892 115.718307 Q 230.831127 115.848813 230.965587 115.694578 Q 231.020953 115.631303 231.107957 115.639212 Q 232.195505 115.710397 233.306782 115.314925 C 233.41356 115.275378 233.508473 115.212102 233.583613 115.129053 Q 233.872307 114.800811 234.188685 115.10137 C 234.299417 115.204193 234.46947 115.200238 234.576248 115.093461 L 234.951946 114.717762 Q 235.121999 114.551664 235.280188 114.725672 L 235.877351 115.366337 Q 236.031585 115.53639 236.094861 115.314925 Q 236.114634 115.231876 236.154181 115.156736 Q 236.296551 114.895725 236.434967 115.156736 Q 237.000492 116.204737 237.791436 117.015455 Q 237.969398 117.193418 238.004991 116.94427 Q 238.076176 116.493432 237.823074 115.805311 Z" style="fill:#385064;"/>
		<path d="M 285.346959 121.630615 L 290.448549 127.511285 Q 289.709016 128.606743 288.961574 130.149084 C 288.779657 130.520828 288.672879 130.900481 288.898298 131.295954 Q 289.515235 132.379547 290.294315 133.12699 Q 292.56037 135.302086 294.0513 137.010526 Q 292.287494 138.639871 291.310678 139.407087 Q 284.097267 145.062338 275.392925 146.110339 Q 262.805048 147.621043 252.162893 140.842651 Q 246.033075 136.939341 243.04726 130.465462 L 247.334178 132.620785 Q 251.047661 134.538825 253.934608 135.452366 C 265.415164 139.0828 277.303056 136.041619 286.481964 128.207316 Q 286.632243 128.076811 286.517556 127.918622 L 283.539651 123.868987 Q 283.990489 122.567884 285.346959 121.630615 Z" style="fill:#cdd8dc;"/>
		<path d="M 283.539651 123.868987 L 286.517556 127.918622 Q 286.632243 128.076811 286.481964 128.207316 C 277.303056 136.041619 265.415164 139.0828 253.934608 135.452366 Q 251.047661 134.538825 247.334178 132.620785 Q 247.409318 132.039441 248.220036 132.395366 Q 248.611553 132.565419 249.003071 132.680106 C 254.152118 134.218493 259.862735 134.004938 264.936642 132.747336 C 267.412298 132.1304 269.947274 131.145674 272.335926 130.164903 Q 277.848807 127.910712 282.705205 123.924353 Q 282.875258 123.781983 283.100677 123.766164 Q 283.397281 123.742436 283.539651 123.868987 Z" style="fill:#243b50;"/>
		<path d="M 315.604531 141.63755 Q 320.350196 143.883831 321.069955 148.617633 C 321.445654 151.065605 320.180143 153.802272 317.997137 155.024281 C 314.904545 156.760404 311.792179 155.862682 309.51426 153.363298 Q 308.189428 151.911915 306.413759 148.961693 Q 308.466259 149.372984 310.491076 148.716501 Q 315.434478 147.110884 315.604531 141.63755 Z" style="fill:#cdd8dc;"/>
	</g>
	<g id="surface4">
	</g>
</svg>
