<?xml version="1.0" encoding="utf-8"?>
<svg xmlns="http://www.w3.org/2000/svg" width="490pt" height="280pt" viewBox="0 0 490 280" version="1.1" xmlns:xlink="http://www.w3.org/1999/xlink">
	<g id="surface2">
		<path d="M 284.86332 57.833657 L 282.705865 57.673069 C 282.307888 57.645141 282.04257 58.085011 282.265996 58.420149 Q 282.887399 59.355745 284.360612 58.594701 C 283.850922 59.495386 282.726811 59.390655 282.594152 60.787066 Q 282.356762 63.335516 282.24505 65.716396 C 282.231086 66.016625 282.489422 66.260996 282.78965 66.226086 L 295.32942 64.759855 Q 295.762307 64.71098 295.783253 64.271111 L 296.223123 55.117637 Q 296.237087 54.824391 295.964787 54.915158 L 284.360612 58.594701 Q 284.926159 58.0501 284.86332 57.833657 C 288.724396 57.163379 291.950105 55.634309 295.483025 54.021455 C 297.682372 53.016039 299.853791 53.742173 299.434868 56.465174 Q 298.883286 60.05395 299.365047 64.012775 Q 299.413922 64.459626 299.867755 64.424716 C 307.422338 63.782367 314.80237 63.579888 322.266186 64.508501 Q 324.807654 64.822693 328.012417 66.128337 Q 332.096919 67.790066 336.726021 69.144585 C 339.937766 70.087162 341.180572 72.370294 341.13868 75.602985 Q 341.013003 85.322005 341.285303 95.306343 C 341.292285 95.480895 341.494765 95.578644 341.634406 95.473913 Q 342.570001 94.782689 343.840735 94.698905 Q 352.044649 94.154304 356.778482 95.948692 Q 358.824224 96.730683 359.641124 99.851661 Q 359.689999 100.158871 359.375806 100.22171 Q 359.005757 100.298512 358.935937 99.928464 Q 357.700113 96.577077 353.427096 96.067387 Q 347.925237 95.411074 344.448174 95.550715 Q 343.058745 95.606572 342.437342 96.067387 L 341.494765 96.507257 Q 341.082823 96.695772 341.10377 97.149606 L 341.278321 100.780274 Q 341.299267 101.262036 341.781029 101.262036 C 346.884911 101.227126 351.737439 102.386147 356.799428 102.763178 Q 357.616329 102.819034 358.377373 103.154173 Q 358.84517 103.356652 358.935937 103.831432 Q 359.054632 104.431889 358.251696 104.711171 Q 358.412283 103.768594 357.818808 103.698773 Q 352.212218 103.028496 343.14253 102.455967 Q 342.325629 102.407093 341.704226 102.448985 C 341.529675 102.462949 341.397016 102.609573 341.403998 102.784124 L 341.431926 103.642917 Q 341.44589 103.985037 341.788011 103.971073 C 346.856983 103.810486 351.458157 104.145625 356.422397 104.410943 C 356.883213 104.431889 357.24628 104.80892 357.260244 105.269735 Q 357.351011 109.249506 357.24628 113.152475 C 357.239298 113.452703 357.036818 113.718021 356.750554 113.808788 Q 356.645823 113.843698 356.275774 113.697075 L 356.219918 105.702623 Q 356.212936 105.311628 355.828923 105.276717 L 341.808957 104.068822 C 341.641388 104.054858 341.501747 104.180535 341.501747 104.348104 L 341.397016 113.627255 Q 341.271339 114.318478 341.362106 114.695509 Q 341.459854 115.093486 342.130132 115.10745 Q 349.984943 115.261055 357.839754 115.128396 Q 358.070162 115.086504 358.202821 115.205199 Q 358.342462 115.330876 358.328498 115.526373 Q 358.237731 116.901838 358.342462 118.088787 C 358.370391 118.395998 358.133001 118.661316 357.82579 118.654334 L 341.962562 118.514693 C 341.501747 118.507711 341.117734 118.856813 341.075841 119.310647 Q 340.796559 122.229146 341.222465 125.587514 C 341.264357 125.936617 341.557603 126.194953 341.906706 126.201935 L 358.579852 126.292702 C 359.068596 126.292702 359.459591 125.873778 359.417699 125.385035 Q 359.236165 123.108885 360.269509 121.433192 L 360.800146 124.149211 Q 360.869966 124.484349 361.08641 124.749668 Q 361.966149 125.84585 361.931238 127.123566 Q 361.777633 132.241412 361.582136 137.582684 C 361.512315 139.530677 360.869966 144.641541 358.084126 144.662487 Q 353.399168 144.704379 348.951599 144.906859 C 348.658353 144.920823 348.400017 145.074428 348.253393 145.325782 Q 345.237146 150.548359 340.224031 153.801997 Q 339.400148 154.339615 340.384618 154.346597 Q 350.920538 154.360561 362.531695 155.233318 Q 364.521581 155.386923 365.848171 156.050218 Q 367.27251 156.762388 365.680602 156.790316 C 360.534827 156.888065 355.214502 157.020724 349.963997 157.411719 Q 329.85568 158.940789 310.14534 160.455895 C 295.09203 161.607934 279.480156 162.676188 262.827956 161.363562 L 257.109653 160.902746 L 240.010602 158.982681 C 239.319378 158.905878 238.98424 158.102942 239.410145 157.558342 Q 239.752266 157.125455 239.877943 156.587836 C 239.961727 156.238734 239.724337 155.896613 239.368253 155.840757 Q 225.997618 153.857853 212.536217 151.63756 Q 204.555728 150.317951 192.902679 148.865684 Q 187.177395 148.153514 180.090609 148.13955 Q 166.1265 148.10464 152.162391 148.013873 L 146.311429 147.385488 Q 145.920434 147.343596 146.115932 147.008457 L 147.568199 144.425097 Q 147.861445 143.915407 147.281935 143.78973 Q 146.430124 143.601215 146.025165 142.847153 Q 145.857596 142.539943 146.094986 142.295571 Q 146.38125 142.002324 146.730353 142.204804 Q 147.260989 142.518996 147.861445 142.637691 Q 148.18262 142.707512 148.45492 142.512014 Q 149.683762 141.632275 149.809439 140.347577 Q 152.741902 130.551755 148.957628 123.171723 L 147.428558 120.141512 C 147.288917 119.869211 146.946796 119.785427 146.68846 119.952996 Q 143.8328 121.859097 143.113648 125.280304 C 142.017466 130.509863 142.422425 136.528394 143.099684 141.939486 Q 143.253289 143.154363 143.909603 144.5019 Q 144.07019 144.830056 143.707123 144.878931 Q 142.499228 145.032536 143.092702 145.109339 Q 136.913584 145.674885 131.251138 145.332764 Q 129.519588 145.228034 127.48781 144.578702 Q 125.539817 143.950318 123.787321 143.503466 Q 122.195413 143.098507 123.822232 142.882063 Q 125.079001 142.721476 126.950192 142.847153 C 127.264384 142.868099 127.494792 142.560889 127.383079 142.274624 Q 124.310975 133.945033 125.351302 125.091788 L 126.007615 120.504578 Q 127.047941 118.137662 128.870257 116.427058 Q 131.125461 115.491463 132.870974 116.022099 L 133.666929 116.441023 L 134.344188 117.125264 Q 134.609506 117.390582 134.846896 117.097336 L 135.377532 116.427058 Q 144.370418 116.378184 153.230645 117.153192 Q 154.410613 117.250941 155.018051 118.179554 Q 157.929568 122.592213 158.20885 128.010287 Q 158.229796 128.42921 158.64872 128.443174 L 174.04415 129.092505 Q 174.484019 129.113452 174.728391 128.743403 Q 176.480887 126.125132 179.099158 123.883893 C 179.497135 123.541772 179.65074 122.99019 179.483171 122.494464 C 178.910642 120.769896 177.556124 119.261773 175.587184 119.240826 Q 167.327414 119.15006 159.968328 118.87776 Q 159.584315 118.863796 159.654136 119.240826 Q 160.114951 121.691528 159.821705 124.58908 Q 159.744902 125.350124 160.380269 125.496747 Q 160.485 125.685263 160.457072 125.81094 Q 160.429144 125.915671 160.226664 125.985491 Q 160.038149 126.041348 159.835669 126.111168 Q 158.816289 125.992473 158.823271 125.294268 C 158.837235 123.513844 159.039715 121.139945 158.488132 119.359521 Q 158.152994 118.277303 158.264707 117.153192 C 158.285653 116.922784 158.125066 116.713323 157.90164 116.678412 L 154.962195 116.203633 L 154.689895 116.043045 Q 154.445523 115.903404 154.661967 115.728853 Q 154.829536 115.589212 155.143728 115.672997 L 169.142748 116.413094 C 169.820007 116.448005 170.287805 115.749799 170.008523 115.135378 C 169.310317 113.613291 165.595864 113.096618 164.129633 112.677695 Q 163.201019 112.412377 163.187055 111.441872 L 163.180073 110.764612 Q 163.166109 109.912802 164.003956 110.038479 Q 174.065096 111.532638 184.23795 114.011268 Q 184.573088 114.095052 184.573088 113.738967 Q 184.217004 76.755024 184.601017 56.695582 Q 184.635927 54.977996 186.032338 52.841488 Q 187.212305 51.033135 190.62653 48.086708 C 190.787117 47.947067 190.982614 47.856301 191.199058 47.828372 Q 191.485322 47.78648 191.722712 47.632875 Q 192.064833 47.416431 192.064833 47.011472 L 191.939156 28.781328 Q 191.939156 28.460153 191.71573 28.229745 Q 191.164148 27.671181 190.45896 27.391899 Q 183.365193 24.627005 187.149466 18.196533 C 187.589336 17.449453 188.524931 17.163189 189.313903 17.533238 Q 192.93759 19.243841 196.177263 20.87066 C 197.59462 21.575847 198.425485 22.902438 198.54418 24.487364 Q 198.760623 27.356988 198.746659 30.31738 Q 198.711749 37.292452 198.760623 44.476986 Q 198.767605 44.902892 199.179546 44.847035 L 206.880753 43.897476 Q 207.732563 43.792745 207.732563 42.940934 L 207.704635 14.740416 C 207.704635 14.265636 208.116576 13.902569 208.584374 13.97239 C 210.420654 14.223744 213.164602 16.695391 213.164602 18.419959 Q 213.19253 31.197118 213.199512 42.508047 Q 213.199512 42.92697 213.618435 42.85715 Q 219.623002 41.893626 226.060457 42.131016 Q 235.025415 42.466155 243.564467 43.541391 Q 244.025283 43.597247 244.095103 43.143414 Q 244.269655 42.096106 245.114483 41.425828 Q 245.882509 40.825372 245.896474 41.795877 Q 245.903456 42.431244 245.603227 42.940934 Q 245.275071 43.513463 245.924402 43.625176 L 251.845184 44.637573 C 252.110502 44.679466 252.368838 44.518879 252.445641 44.260543 Q 252.592264 43.771799 252.766815 43.276073 Q 252.899474 42.89206 253.234613 42.717508 Q 253.541823 42.556921 253.83507 42.717508 Q 254.184172 42.913006 254.093406 43.297019 Q 253.988675 43.771799 253.639572 44.085991 Q 253.276505 44.400184 253.730339 44.567753 Q 256.188022 45.489384 258.722508 45.908307 C 258.96688 45.9502 259.183323 45.726774 259.134449 45.482402 Q 258.841203 43.94635 260.398201 43.485534 Q 260.817124 43.352875 261.026586 43.74387 Q 261.131317 43.94635 261.124335 44.176758 C 261.103388 44.714376 260.831088 44.847035 260.621627 45.286905 Q 260.384237 45.810559 260.942801 45.943218 L 266.870565 47.297736 C 267.15683 47.367557 267.415166 47.130167 267.380255 46.843903 C 266.814709 42.501065 266.430696 38.535258 267.066063 34.15751 C 267.624627 30.254541 270.291772 27.727037 273.349912 25.541654 C 273.908476 25.143677 274.676502 25.548636 274.655556 26.232878 Q 274.376274 35.309549 274.515915 44.847035 C 274.536861 46.438944 275.311869 47.744588 274.229651 49.182891 C 274.076046 49.385371 274.180777 49.678617 274.432131 49.741455 L 282.929291 51.745305 C 283.822994 51.954767 284.479307 52.715811 284.549128 53.63046 L 284.86332 57.833657 Z M 211.97067 18.468833 Q 211.984635 16.904853 210.581242 16.199665 L 210.106462 15.962275 Q 208.675141 15.236142 208.689105 16.842014 L 208.947441 42.906024 Q 208.954423 43.408732 209.450149 43.310983 L 211.195662 42.947916 C 211.551747 42.878096 211.803101 42.563903 211.803101 42.200836 L 211.97067 18.468833 Z M 193.091195 34.506612 Q 193.035338 43.883512 192.811913 47.793462 Q 192.797949 48.079726 192.295241 48.645273 L 191.904246 48.645273 Q 191.422484 48.652255 191.652892 49.071178 L 192.434882 50.495517 Q 191.95312 52.303869 191.911228 53.379106 Q 191.275861 69.961485 191.422484 86.578775 Q 191.345681 99.900535 191.380592 113.250224 Q 191.387574 115.812638 190.794099 118.256357 C 190.675404 118.738119 191.017525 119.205916 191.513251 119.240826 L 196.044604 119.568983 Q 196.81263 119.631822 196.805648 118.856813 Q 196.700917 97.212444 196.882451 75.295775 Q 196.889433 74.862888 196.749791 74.527749 Q 196.617132 74.206575 196.365778 73.927292 Q 196.009694 73.536297 196.512402 73.347782 Q 196.980199 73.17323 197.482907 73.019625 Q 197.908813 72.886966 197.999579 72.530881 Q 198.10431 72.104976 197.713315 71.53943 L 197.531782 24.592095 Q 195.709465 20.975391 190.102876 19.111182 C 189.13237 18.783025 188.406236 18.147658 187.596318 19.30668 C 184.873317 23.195684 189.083496 26.498196 192.679254 26.288734 C 192.860787 26.281752 193.014392 26.428375 193.014392 26.609909 L 193.091195 34.506612 Z M 268.741756 47.653821 L 272.700581 48.303152 Q 273.475589 48.435811 273.447661 47.646839 Q 273.126486 38.123317 273.37784 27.461719 C 273.384822 27.245276 273.14045 27.119599 272.972881 27.252258 Q 268.21112 30.987657 267.994676 36.531408 Q 267.799179 41.649254 267.980712 46.788046 Q 268.001658 47.535126 268.741756 47.653821 Z M 212.913248 44.25356 Q 212.927212 44.665502 212.347701 44.588699 Q 212.180132 44.567753 212.145222 44.400184 Q 212.124276 44.274507 212.054455 44.162794 Q 211.893868 43.932386 211.614586 43.960314 Q 207.383461 44.400184 203.752792 45.105371 C 202.195794 45.405599 200.736545 45.377671 199.179546 45.398617 C 198.8863 45.398617 198.655892 45.636007 198.64891 45.929254 L 198.634946 46.725208 Q 198.627964 47.262826 199.1586 47.158095 Q 202.817197 46.45989 206.831878 46.45989 Q 207.425353 46.45989 207.194945 47.423413 L 206.147637 48.072744 L 198.907246 48.268242 Q 198.453413 48.282206 198.418503 48.73604 Q 198.257915 50.781781 198.641928 52.939236 Q 198.725713 53.414016 199.137654 53.169644 Q 201.022809 52.038551 202.803233 51.535843 Q 203.459546 51.347328 203.536349 51.815126 C 202.803233 52.094408 202.14692 52.548241 201.965386 53.351178 C 201.70705 54.517181 201.357948 55.725076 201.36493 56.92599 Q 201.420786 64.36886 201.532499 71.825694 Q 201.532499 72.223671 201.930476 72.202725 Q 207.097196 71.958353 211.914814 70.624781 Q 212.075401 70.506086 212.263917 70.694601 C 212.438468 70.86217 212.382612 71.155417 212.159186 71.246183 Q 209.750377 72.230653 206.992466 72.7962 C 205.330737 73.13832 203.731846 73.012643 202.098045 73.396656 Q 201.748943 73.473459 201.448714 73.291925 Q 201.323037 73.215123 201.19736 73.187195 Q 200.92506 73.131338 201.148486 73.298907 Q 201.260199 73.382692 201.343983 73.494405 C 201.413804 73.585172 201.448714 73.689903 201.441732 73.801615 C 201.246235 84.337536 201.022809 95.292379 201.029791 106.177402 Q 201.029791 110.953128 200.631814 116.043045 Q 200.610868 116.252507 200.073249 116.39913 L 199.954555 74.283377 C 199.954555 73.997113 199.710183 73.766705 199.423918 73.794633 L 198.872336 73.85049 Q 198.397556 73.899364 198.397556 74.374144 Q 198.362646 96.458382 198.823462 118.591495 Q 198.844408 119.310647 199.291259 118.745101 Q 199.500721 118.479783 199.584506 118.158608 Q 199.710183 117.683828 200.198926 117.634954 L 205.665875 117.083372 Q 206.643363 117.216031 207.236837 117.58608 Q 209.450149 118.724154 211.858958 118.940598 Q 212.229006 118.968526 212.382612 118.633388 Q 212.529235 118.333159 212.201078 117.970093 Q 211.796119 117.516259 210.818631 117.795541 Q 211.069985 117.600044 211.042057 117.341708 Q 211.000165 116.978641 211.35625 116.992605 L 212.082383 117.020533 C 212.361665 117.027515 212.592073 116.804089 212.585091 116.531789 Q 212.578109 116.32931 212.44545 116.168722 Q 212.298827 115.980207 212.368648 115.756781 Q 212.599055 115.009701 212.263917 114.192801 C 212.117294 113.829734 212.44545 113.459685 212.822481 113.564416 Q 213.583525 113.773878 213.471812 114.702491 Q 213.360099 115.666015 213.080817 116.741251 C 213.017979 116.978641 213.178566 117.216031 213.422938 117.243959 Q 214.875205 117.411528 216.369365 117.669864 Q 217.842578 117.914236 219.287864 117.634954 Q 222.716052 116.978641 226.032528 116.392148 Q 226.123295 116.371202 226.102349 116.280435 L 226.060457 116.105884 C 226.025546 115.959261 225.878923 115.868494 225.7323 115.910386 Q 223.903002 116.420076 221.801403 115.700925 C 221.570995 115.624122 221.466265 115.351822 221.591942 115.135378 L 221.850278 114.667581 Q 222.248255 113.962393 221.319642 113.808788 L 213.052889 112.433323 C 212.368648 112.32161 211.879904 111.714172 211.90085 111.022948 L 213.122709 76.94354 C 215.594357 76.894666 218.226591 77.132055 219.727733 75.714698 Q 219.993051 75.463344 220.356118 75.470326 L 230.347438 75.777537 Q 230.892038 75.791501 230.871092 75.239919 L 230.86411 74.995547 C 230.857128 74.827977 230.724469 74.695318 230.563882 74.681354 Q 227.003034 74.346216 223.505025 74.339234 Q 221.598924 74.339234 219.685841 73.759723 Q 217.737848 73.17323 215.587375 73.263997 C 215.287146 73.277961 215.035792 73.040571 215.02881 72.747325 Q 215.02881 72.712415 215.203362 72.405204 C 217.193247 72.146868 219.03651 71.700017 221.033377 71.720963 Q 226.165187 71.769838 231.290015 71.895514 Q 232.344306 71.832676 232.525839 72.761289 Q 232.63057 73.30589 232.860978 73.794633 L 232.986655 75.323703 Q 232.372234 75.847357 232.330342 76.594437 Q 231.911418 84.958939 231.890472 99.097599 Q 231.88349 102.400111 231.241141 106.331008 Q 230.815236 108.893422 229.663197 111.490746 Q 227.617455 116.119848 226.744698 121.314497 Q 226.144241 124.847416 225.7323 131.620009 Q 225.655497 132.960564 226.709788 133.463272 Q 227.205513 133.700661 227.896737 132.883761 C 228.064306 132.681282 228.176019 132.43691 228.210929 132.178574 Q 229.146525 125.26634 231.583262 117.865362 Q 231.736867 117.390582 231.988221 116.992605 Q 232.253539 116.5667 232.337324 116.070974 Q 232.456019 115.358804 232.763229 114.667581 C 236.261238 106.742949 244.360422 98.371465 253.842052 103.55215 Q 259.378821 106.582362 262.667369 113.613291 Q 265.683616 120.085655 266.737906 127.004871 C 266.779799 127.277171 266.996242 127.493615 267.268543 127.542489 C 268.783648 127.786861 271.688183 128.080108 272.59585 126.537074 Q 273.712979 124.637955 274.487987 122.543338 C 275.116372 120.832735 275.186192 119.094203 275.521331 117.299815 Q 275.640026 116.664448 275.58417 115.81962 Q 275.528313 114.939881 275.674936 114.318478 L 298.960088 114.506993 Q 299.511671 114.506993 299.637348 113.976357 L 299.707168 113.704057 C 299.756042 113.501578 299.602437 113.30608 299.392976 113.30608 L 277.664822 113.292116 C 277.336665 113.285134 277.064365 113.019816 277.071347 112.691659 L 277.266845 100.7314 C 277.273827 100.487028 277.476306 100.298512 277.720678 100.312477 Q 287.865604 101.045592 298.11526 100.933879 Q 298.757609 100.926897 299.064819 100.158871 Q 299.358065 99.488594 300.028343 99.586343 Q 300.098163 100.431171 299.902666 101.03861 L 300.049289 118.340141 L 276.63846 117.788559 Q 276.233501 117.781577 276.184626 118.186536 Q 275.702864 122.089505 274.662538 125.385035 Q 274.411184 126.167025 275.228085 126.167025 L 299.874737 126.160043 Q 300.174966 126.509145 300.908081 126.516127 Q 320.68126 126.599912 340.35669 126.467253 C 340.496331 126.467253 340.615026 126.348558 340.615026 126.208917 C 340.573133 121.928917 340.18912 117.600044 340.231013 113.320044 Q 340.405564 93.449117 340.286869 74.255449 C 340.279887 72.468043 339.09992 71.071632 337.438191 70.422301 Q 333.465402 68.879267 329.150492 68.076331 C 328.913102 68.034438 328.675712 68.076331 328.466251 68.195026 Q 328.228861 68.327685 327.970525 68.355613 Q 327.181553 68.439397 327.509709 67.713264 Q 327.677279 67.329251 327.418943 67.02204 Q 326.734701 66.20514 326.685827 67.273394 Q 326.622988 68.460344 325.366219 68.306738 C 325.156757 68.285792 325.038062 68.062367 325.121847 67.873851 Q 325.317344 67.46191 325.792124 67.371143 C 326.364652 67.25943 326.483347 66.498386 325.980639 66.212122 Q 325.059008 65.681486 323.906969 65.69545 C 323.697508 65.69545 323.515974 65.849055 323.474082 66.058517 L 322.880607 69.291208 Q 322.859661 69.402921 322.831733 69.402921 L 322.643217 69.388957 C 322.594343 69.381975 322.559433 69.347065 322.559433 69.29819 L 322.538487 67.245466 L 322.817769 65.890948 C 322.873625 65.632612 322.692092 65.381258 322.426774 65.360311 C 314.781424 64.738909 307.624818 64.885532 299.595455 65.625629 Q 288.891966 66.610099 278.195458 67.629479 Q 276.959634 67.580605 277.162114 66.672938 L 273.936405 59.397637 Q 273.405769 58.203705 272.114088 58.385239 L 271.737058 58.441095 Q 270.564072 58.601683 271.045834 59.683901 L 274.3274 67.063933 Q 271.073762 67.838941 270.194023 67.901779 Q 265.495101 68.250882 260.754286 68.669805 Q 248.542672 69.752024 236.275202 69.479724 C 233.000619 69.402921 230.424241 68.383541 229.090668 65.520899 C 227.84088 62.853754 227.233442 59.523314 226.884339 56.590851 Q 226.388613 52.450493 225.048059 49.071178 Q 224.894453 48.666219 225.320359 48.687165 Q 238.481532 49.343478 253.499931 50.718943 Q 256.634873 51.005207 259.295036 51.633592 Q 262.325248 52.345762 265.062213 52.827523 C 269.055949 53.518747 273.014773 53.965598 276.868868 55.480704 Q 279.4243 56.479138 281.721396 57.128469 Q 283.704299 57.687033 283.459927 55.641291 Q 283.36916 54.88723 283.473891 54.147132 Q 283.641461 52.967165 282.51735 52.555223 Q 279.612815 51.486969 276.799047 51.061064 C 273.733925 50.600248 270.780516 49.252712 267.66652 48.631309 Q 260.195721 47.144131 252.899474 45.670918 Q 249.031416 44.888927 236.638269 43.995224 Q 230.940913 43.660086 225.676444 43.206252 Q 220.104764 42.724491 212.913248 44.25356 Z M 191.261897 55.208404 Q 191.932174 54.265827 191.694784 53.127752 C 191.422484 51.822108 191.610999 50.732907 190.870902 49.497083 C 190.766171 49.322532 190.521799 49.301586 190.382158 49.441227 Q 188.1479 51.647556 186.339548 54.300737 Q 185.52963 55.487686 185.522648 57.212254 C 185.501702 59.732775 185.613414 62.818844 185.585486 64.669088 Q 185.299222 84.484159 185.508684 103.489311 C 185.536612 106.456685 185.80193 109.97564 185.829858 113.229278 C 185.83684 113.669147 186.060266 114.074106 186.430315 114.304514 L 189.851522 116.448005 Q 190.18666 116.657466 190.319319 116.287417 Q 190.93374 114.625688 190.954686 112.99887 C 191.122256 99.111563 190.835991 83.932577 190.96865 69.214406 Q 191.024507 62.155548 191.052435 55.864717 C 191.052435 55.627327 191.122256 55.39692 191.261897 55.208404 Z M 258.311404 52.067806 C 258.296602 51.961749 258.198854 51.89891 258.093564 51.914131 L 257.433062 52.028218 C 257.333079 52.045533 257.263258 52.143282 257.279387 52.246058 L 260.041278 68.235591 C 260.05608 68.341649 260.153829 68.404487 260.259118 68.389266 L 260.919621 68.27518 C 261.019604 68.257864 261.089424 68.160115 261.073296 68.057339 L 258.311404 52.067806 Z M 199.996447 72.125922 C 200.031357 67.252448 200.226855 62.302172 200.240819 57.393787 Q 200.247801 55.417866 201.246235 53.839921 Q 202.007279 52.632026 200.750509 53.309285 C 199.528649 53.97258 199.011977 55.313135 199.039905 56.667653 Q 199.193511 64.243183 198.949139 71.727945 C 198.935175 72.028174 199.144636 72.28651 199.437883 72.349348 L 199.654326 72.398222 Q 199.996447 72.468043 199.996447 72.125922 Z M 297.102862 54.908176 L 297.019077 64.669088 C 297.019077 64.731927 297.067951 64.787783 297.137772 64.787783 L 297.186646 64.787783 C 297.940708 64.794765 298.562111 64.180344 298.562111 63.4193 L 298.631932 56.185892 C 298.631932 55.424848 298.024493 54.796463 297.270431 54.789481 L 297.221557 54.789481 C 297.158718 54.789481 297.102862 54.845337 297.102862 54.908176 Z M 281.466551 59.910748 C 281.46306 59.795614 281.365311 59.711829 281.253388 59.71951 L 279.552281 59.811673 C 279.438264 59.81656 279.354479 59.914309 279.361042 60.024765 L 279.700091 66.285503 C 279.703582 66.400638 279.801331 66.484422 279.913253 66.476742 L 281.614361 66.384579 C 281.728378 66.379691 281.812162 66.281943 281.805599 66.171487 L 281.466551 59.910748 Z M 220.258369 78.130489 Q 220.963557 78.081615 220.963557 79.038156 Q 220.893736 93.518937 221.082252 107.957826 C 221.089234 108.265037 221.312659 108.530355 221.61987 108.579229 L 221.801403 108.607157 C 222.059739 108.64905 222.290147 108.453552 222.290147 108.188234 L 222.283165 78.842659 C 222.283165 78.514502 222.590375 78.27013 222.91155 78.346933 L 223.72845 78.535448 Q 224.189266 78.640179 224.182284 79.114959 Q 223.916966 93.183799 224.182284 108.579229 Q 224.189266 108.977206 223.805253 109.102883 Q 223.400294 109.242524 222.967406 109.340273 Q 222.311093 109.486896 222.974388 109.598609 Q 223.574845 109.70334 224.300979 109.43104 Q 224.664046 109.298381 224.664046 108.907386 L 224.831615 79.345367 Q 224.831615 78.640179 225.543785 78.668107 L 230.368384 78.877569 C 230.5569 78.884551 230.731451 78.765856 230.801272 78.584323 L 230.885056 78.353915 Q 231.010733 78.004812 230.633702 77.990848 L 220.027961 77.711566 L 213.890735 78.046705 Q 213.555597 78.067651 213.562579 78.402789 Q 213.834879 94.279981 213.199512 110.666863 C 213.19253 110.876325 213.367081 111.057859 213.576543 111.050876 Q 218.114878 110.9252 222.227309 109.912802 Q 222.346004 109.877891 222.325057 109.759196 L 222.297129 109.584645 Q 222.297129 109.563699 222.276183 109.563699 Q 220.858826 109.710322 219.636966 109.165722 Q 219.245971 108.99117 219.245971 108.558283 Q 219.406559 94.636066 219.602056 79.038156 Q 219.602056 78.521484 220.258369 78.130489 Z M 299.102173 102.837397 C 299.106711 102.539752 298.869322 102.288398 298.566231 102.284279 L 278.725675 101.9726 C 278.425866 101.967223 278.174512 102.204613 278.172557 102.508612 L 278.025445 111.877342 C 278.020907 112.174987 278.258296 112.426341 278.561387 112.430461 L 298.401943 112.74214 C 298.701752 112.747516 298.953106 112.510126 298.955061 112.206127 L 299.102173 102.837397 Z M 236.645251 120.91652 Q 232.93778 132.03195 235.41641 143.594233 Q 236.959444 150.799713 242.189003 154.981964 C 248.5706 160.092828 254.728773 154.646825 257.395917 148.705097 Q 264.287205 133.337595 257.591415 117.956128 C 255.992524 114.276586 252.431677 109.144776 248.179605 109.612573 C 242.126164 110.275868 238.460585 115.463535 236.645251 120.91652 Z M 189.732827 117.034497 Q 188.615698 117.34869 187.763887 116.985623 Q 185.962517 116.224579 187.624246 117.257923 Q 188.608716 117.872344 189.998145 118.081805 Q 190.375176 118.137662 190.305355 117.760631 L 190.22157 117.327744 C 190.179678 117.104318 189.94927 116.971659 189.732827 117.034497 Z M 176.941703 118.633388 C 178.030903 118.780011 178.966499 119.275737 180.013807 119.568983 Q 180.404802 119.680696 180.537461 120.064709 Q 181.109989 121.656617 181.347379 123.039064 Q 181.542877 124.156193 182.576221 123.681413 L 183.96565 123.039064 Q 185.222419 122.466536 184.552142 121.25864 L 183.21857 118.87776 Q 182.932306 118.361088 182.352795 118.284285 Q 176.543726 117.516259 171.537592 117.565133 Q 170.755602 117.572115 170.029469 117.306797 C 168.961214 116.922784 167.89296 117.167156 166.817724 117.069408 Q 162.977594 116.734269 159.235212 116.699359 C 158.976876 116.699359 158.795343 116.957695 158.893092 117.195085 L 159.088589 117.676846 Q 159.270123 118.109734 159.73792 118.13068 Q 166.87358 118.500729 173.827706 118.347124 Q 174.735373 118.326177 176.941703 118.633388 Z M 204.115859 118.144644 C 202.76134 119.275737 201.867637 118.347124 200.757491 118.94758 Q 200.087214 119.310647 200.122124 120.162458 C 200.136088 120.420794 200.387442 120.595345 200.631814 120.525525 Q 202.293543 120.057727 204.032074 120.246242 C 204.513836 120.295117 204.925777 119.918086 204.918795 119.436324 L 204.897849 118.500729 Q 204.883885 117.495313 204.115859 118.144644 Z M 131.760828 119.743534 C 130.490094 120.413812 129.421839 122.648069 128.884221 125.734137 C 128.367549 128.729439 128.409441 132.171592 129.009898 135.041216 C 129.407875 136.947317 130.029278 138.469405 130.776358 139.411982 C 131.718935 140.591949 132.801154 140.752537 133.792605 139.872798 C 134.86086 138.923238 135.726635 136.849568 136.18745 134.161477 C 136.739033 130.921804 136.62732 127.186405 135.894204 124.232996 C 135.510191 122.689961 134.972573 121.447156 134.344188 120.623273 C 133.548234 119.589929 132.640566 119.275737 131.760828 119.743534 Z M 198.013543 122.941315 L 197.999579 123.862947 C 197.999579 123.981642 198.090346 124.072408 198.202059 124.072408 L 213.471812 124.205067 C 215.97837 124.226013 218.010148 123.995606 218.01713 123.695377 L 218.01713 123.471952 C 218.01713 123.164741 215.992334 122.899423 213.485776 122.878477 L 198.216023 122.745818 C 198.10431 122.745818 198.013543 122.829603 198.013543 122.941315 Z M 183.511816 124.603044 Q 177.947119 125.357106 176.648456 131.235996 Q 176.08291 133.784446 178.023921 134.950449 Q 179.099158 135.585816 178.463791 134.51058 Q 177.276841 132.50673 178.002975 130.495898 C 178.051849 130.342293 178.212437 130.251527 178.373024 130.293419 Q 178.743073 130.391168 178.673252 130.712342 Q 178.59645 131.082391 178.966499 131.14523 C 182.904377 131.843435 187.107574 131.661902 191.038471 132.011004 Q 192.162582 132.108753 193.321603 132.059879 Q 193.698634 132.038933 193.607867 131.682848 Q 193.070249 129.399716 193.712598 126.669733 C 193.796382 126.327612 194.02679 126.04833 194.340983 125.894724 L 195.618699 125.30125 Q 195.946855 125.147645 195.765322 124.833452 Q 195.597752 124.561152 195.297524 124.596062 Q 192.707182 124.882327 190.93374 124.665883 Q 190.284409 124.749668 190.109858 124.484349 Q 189.900396 124.163175 190.277427 124.114301 Q 193.936024 123.611593 196.868486 124.323762 C 197.140787 124.393583 197.399123 124.184121 197.392141 123.904839 Q 197.385158 123.520826 197.147769 123.192669 Q 196.875468 122.82262 196.414653 122.815638 Q 192.672272 122.724872 189.628096 123.206633 Q 189.509401 123.22758 186.995861 123.444023 Q 185.222419 123.590646 183.511816 124.603044 Z M 194.522516 130.12585 Q 194.292108 130.90784 194.585355 131.850417 Q 194.697067 132.192538 195.032206 132.311233 Q 196.03064 132.660335 196.533348 132.674299 Q 200.589922 132.758084 204.381177 133.239846 Q 207.027376 133.568002 209.694521 133.358541 Q 209.82718 133.344577 209.848126 133.477236 L 209.848126 133.477236 Q 209.855108 133.568002 209.771323 133.588949 Q 209.003297 133.756518 208.221307 133.819356 Q 202.405256 133.309666 196.519384 133.295702 Q 194.80878 133.295702 194.592337 134.370939 Q 194.50157 134.824772 194.166431 134.496616 Q 193.656741 133.993908 193.600885 133.260792 Q 193.572957 132.841869 193.154033 132.813941 L 179.476189 131.878345 Q 178.547575 131.815507 178.610414 132.751102 L 178.687216 133.917105 Q 178.750055 134.894593 179.727542 134.964413 L 195.821178 136.144381 Q 197.133804 136.800694 194.787834 136.737855 L 179.364476 135.760368 Q 179.134068 135.739421 179.155014 135.976811 L 179.21087 136.500465 Q 179.238799 136.744837 179.483171 136.765783 L 204.862939 138.839454 C 205.575108 138.82549 206.706201 138.804543 207.31364 139.209503 Q 207.655761 139.432928 208.074684 139.37009 Q 208.577392 139.286305 209.0801 139.349144 Q 212.17315 139.726175 215.545482 140.019421 C 216.313508 140.082259 217.891453 139.91469 218.128843 138.993059 Q 218.198663 138.713777 218.038076 138.497333 Q 217.77974 138.14823 217.381763 138.3158 Q 216.948875 138.504315 216.467114 138.504315 Q 216.076119 138.504315 216.076119 138.11332 C 216.055172 135.411265 216.062154 132.674299 215.664177 129.930352 Q 215.384895 127.954431 215.482644 125.943599 C 215.496608 125.727155 215.322057 125.552604 215.105613 125.559586 L 212.215042 125.664317 Q 204.876903 125.650353 198.271879 125.503729 C 197.168715 125.482783 195.842124 125.357106 195.060134 126.278737 Q 193.845257 127.724023 194.522516 130.12585 Z M 352.079559 143.859551 L 358.209803 143.594233 Q 358.60778 143.580269 358.84517 143.266076 Q 359.571304 142.295571 359.759819 141.066729 Q 360.478971 136.388752 360.290456 129.818639 Q 360.276491 129.385752 359.843604 129.385752 L 275.507367 129.44859 L 273.587302 129.364806 Q 273.238199 129.350841 273.252163 129.699944 Q 273.454643 135.278606 273.761853 140.843303 C 273.88753 143.063597 273.384822 148.13955 276.764137 148.362976 Q 281.232652 148.663204 285.624364 148.900594 Q 293.472193 149.340464 304.203611 150.569305 C 306.989451 150.89048 309.810201 151.456026 312.49131 152.272927 Q 313.23839 152.503334 312.672843 151.965716 L 307.736531 147.238865 C 307.345536 146.868816 306.828864 146.666337 306.291246 146.680301 Q 292.138621 147.08526 278.390955 147.092242 Q 276.819993 147.092242 275.221103 146.631427 Q 274.816144 146.512732 275.102408 146.212503 Q 275.388672 145.905293 275.912326 145.912275 Q 292.30619 146.170611 309.111996 145.346728 Q 322.161456 144.704379 342.967978 144.257528 C 345.670033 144.194689 349.028402 143.873515 352.079559 143.859551 Z M 166.454657 137.191689 Q 165.833254 140.298703 164.248328 142.560889 C 164.129633 142.721476 164.248328 142.944902 164.450807 142.944902 L 190.382158 142.525978 Q 191.338699 142.512014 190.745225 141.757952 L 188.608716 139.034951 Q 188.217721 138.546207 187.596318 138.448459 C 185.550576 138.14823 183.595601 137.750253 181.514948 137.659486 Q 173.84167 137.303402 166.929436 136.828622 Q 166.531459 136.800694 166.454657 137.191689 Z M 217.556314 144.257528 Q 222.101632 145.01159 226.71677 144.73929 Q 226.898303 142.97283 226.451452 141.332047 Q 226.346721 140.927088 225.920815 140.955016 Q 223.944894 141.101639 221.815367 141.220334 C 219.944177 141.325065 218.35925 142.107055 216.879055 143.21022 Q 216.166885 143.740856 216.976804 144.082977 Q 217.081534 144.124869 217.556314 144.257528 Z" style="fill:#000000;"/>
		<path d="M 211.97067 18.468833 L 211.803101 42.200836 C 211.803101 42.563903 211.551747 42.878096 211.195662 42.947916 L 209.450149 43.310983 Q 208.954423 43.408732 208.947441 42.906024 L 208.689105 16.842014 Q 208.675141 15.236142 210.106462 15.962275 L 210.581242 16.199665 Q 211.984635 16.904853 211.97067 18.468833 Z" style="fill:#e2e2e3;"/>
		<path d="M 197.531782 24.592095 L 197.315338 33.927102 C 197.308356 34.290169 197.05002 34.597379 196.693935 34.6672 Q 195.779286 34.848733 195.632663 36.377803 Q 195.395273 38.758684 195.367345 41.195421 L 195.08108 35.288602 Q 195.053152 34.785894 194.662157 34.485666 Q 194.29909 34.206384 194.208324 33.773497 Q 194.103593 33.298717 193.642777 33.438358 Q 193.105159 33.598945 193.091195 34.506612 L 193.014392 26.609909 C 193.014392 26.428375 192.860787 26.281752 192.679254 26.288734 C 189.083496 26.498196 184.873317 23.195684 187.596318 19.30668 C 188.406236 18.147658 189.13237 18.783025 190.102876 19.111182 Q 195.709465 20.975391 197.531782 24.592095 Z" style="fill:#e2e2e3;"/>
		<path d="M 197.531782 24.592095 L 197.713315 71.53943 Q 196.191227 71.378842 195.877035 72.670523 Q 195.779286 73.0685 195.506986 72.761289 Q 195.325452 72.551828 195.430183 72.104976 L 195.367345 41.195421 Q 195.395273 38.758684 195.632663 36.377803 Q 195.779286 34.848733 196.693935 34.6672 C 197.05002 34.597379 197.308356 34.290169 197.315338 33.927102 L 197.531782 24.592095 Z" style="fill:#c6c6c8;"/>
		<path d="M 212.913248 44.25356 Q 214.805385 45.056497 216.983786 45.00064 Q 219.623002 44.937802 220.768059 45.077443 Q 225.955726 45.705828 231.178303 45.077443 Q 233.796573 44.756268 236.638269 43.995224 Q 249.031416 44.888927 252.899474 45.670918 Q 260.195721 47.144131 267.66652 48.631309 C 270.780516 49.252712 273.733925 50.600248 276.799047 51.061064 Q 279.612815 51.486969 282.51735 52.555223 Q 283.641461 52.967165 283.473891 54.147132 Q 283.36916 54.88723 283.459927 55.641291 Q 283.704299 57.687033 281.721396 57.128469 Q 279.4243 56.479138 276.868868 55.480704 C 273.014773 53.965598 269.055949 53.518747 265.062213 52.827523 Q 262.325248 52.345762 259.295036 51.633592 Q 256.634873 51.005207 253.499931 50.718943 Q 238.481532 49.343478 225.320359 48.687165 Q 224.894453 48.666219 225.048059 49.071178 Q 226.388613 52.450493 226.884339 56.590851 C 227.233442 59.523314 227.84088 62.853754 229.090668 65.520899 C 230.424241 68.383541 233.000619 69.402921 236.275202 69.479724 Q 248.542672 69.752024 260.754286 68.669805 Q 265.495101 68.250882 270.194023 67.901779 Q 271.073762 67.838941 274.3274 67.063933 Q 275.612098 67.308305 277.162114 66.672938 Q 276.959634 67.580605 278.195458 67.629479 L 232.860978 73.794633 Q 232.63057 73.30589 232.525839 72.761289 Q 232.344306 71.832676 231.290015 71.895514 Q 231.534387 71.197309 230.912984 71.043704 Q 230.382348 70.911045 229.87964 70.959919 Q 228.650799 69.849773 225.508874 69.779952 Q 223.826199 69.73806 223.805253 68.160115 Q 223.791289 67.126771 223.777325 67.049969 Q 223.518989 64.690034 223.190832 62.309154 L 222.555465 52.743739 Q 223.169886 51.521879 222.520555 50.376822 C 222.415824 50.202271 222.241273 50.076594 222.031811 50.048666 Q 216.034226 49.217801 210.09948 49.28064 Q 209.436185 49.287622 208.891584 49.608796 Q 208.584374 49.79033 208.500589 50.139432 C 208.465679 50.293038 208.57041 50.432679 208.724015 50.439661 Q 212.298827 50.558356 215.580393 50.474571 Q 215.594357 50.474571 215.594357 50.488535 L 215.594357 50.670069 Q 215.601339 50.84462 215.426787 50.851602 Q 210.357816 50.977279 205.316772 51.55679 C 204.779154 51.619628 204.311357 51.884946 203.717882 52.010623 Q 204.199644 51.940803 203.536349 51.815126 Q 203.459546 51.347328 202.803233 51.535843 Q 201.022809 52.038551 199.137654 53.169644 Q 198.725713 53.414016 198.641928 52.939236 Q 198.257915 50.781781 198.418503 48.73604 Q 198.453413 48.282206 198.907246 48.268242 L 206.147637 48.072744 Q 205.582091 49.036268 204.346267 48.743022 Q 204.060003 48.673201 203.997164 48.959465 L 203.941308 49.196855 Q 203.878469 49.483119 204.171715 49.525012 C 207.24382 49.943935 208.835728 47.842337 210.357816 45.461456 Q 210.448583 45.314833 210.301959 45.224066 L 210.022677 45.063479 C 209.924928 45.007622 209.799251 45.021586 209.708485 45.098389 L 207.194945 47.423413 Q 207.425353 46.45989 206.831878 46.45989 Q 202.817197 46.45989 199.1586 47.158095 Q 198.627964 47.262826 198.634946 46.725208 L 198.64891 45.929254 C 198.655892 45.636007 198.8863 45.398617 199.179546 45.398617 C 200.736545 45.377671 202.195794 45.405599 203.752792 45.105371 Q 207.383461 44.400184 211.614586 43.960314 Q 211.893868 43.932386 212.054455 44.162794 Q 212.124276 44.274507 212.145222 44.400184 Q 212.180132 44.567753 212.347701 44.588699 Q 212.927212 44.665502 212.913248 44.25356 Z" style="fill:#f40000;"/>
		<path d="M 271.911609 45.817541 Q 272.204855 46.641423 272.204855 47.500216 Q 272.204855 48.275224 271.841788 47.597965 Q 271.199439 46.411015 271.618363 44.958748 Q 271.751022 44.49095 271.792914 44.972712 L 271.827824 45.426546 Q 271.84877 45.629025 271.911609 45.817541 Z" style="fill:#000000;"/>
		<path d="M 206.147637 48.072744 L 207.194945 47.423413 L 209.708485 45.098389 C 209.799251 45.021586 209.924928 45.007622 210.022677 45.063479 L 210.301959 45.224066 Q 210.448583 45.314833 210.357816 45.461456 C 208.835728 47.842337 207.24382 49.943935 204.171715 49.525012 Q 203.878469 49.483119 203.941308 49.196855 L 203.997164 48.959465 Q 204.060003 48.673201 204.346267 48.743022 Q 205.582091 49.036268 206.147637 48.072744 Z" style="fill:#e2e2e3;"/>
		<path d="M 192.295241 48.645273 Q 192.539613 49.58785 192.434882 50.495517 L 191.652892 49.071178 Q 191.422484 48.652255 191.904246 48.645273 L 192.295241 48.645273 Z" style="fill:#c6c6c8;"/>
		<path d="M 222.555465 52.743739 Q 220.139674 50.872548 217.284014 50.942369 Q 216.634683 50.956333 217.221175 51.228633 C 217.584242 51.38922 217.891453 51.82909 218.01713 52.192157 Q 218.750245 54.342629 218.785156 55.264261 Q 219.029528 61.590002 218.757227 67.692318 Q 218.743263 67.915743 218.966689 67.93669 L 219.301828 67.978582 Q 219.504307 68.00651 219.497325 67.804031 Q 219.14124 59.963183 219.399576 52.37369 Q 219.413541 51.884946 220.439903 52.178192 C 220.844862 52.296887 221.138108 52.639008 221.193965 53.050949 Q 221.871224 57.868567 221.968973 62.274243 Q 222.024829 64.759855 222.339021 67.545695 C 222.380914 67.9716 222.681142 68.229936 222.87664 68.572057 Q 223.197814 69.123639 223.197814 68.488272 L 223.190832 62.309154 Q 223.518989 64.690034 223.777325 67.049969 Q 223.791289 67.126771 223.805253 68.160115 Q 223.826199 69.73806 225.508874 69.779952 Q 228.650799 69.849773 229.87964 70.959919 L 222.988353 70.394373 Q 222.380914 70.345498 222.757945 69.870719 Q 222.841729 69.759006 222.87664 69.626347 Q 223.009299 69.123639 222.492627 69.193459 Q 220.607472 69.451795 218.910833 69.172513 Q 217.521404 68.942105 216.041208 69.200441 Q 211.46098 70.003378 207.411389 71.106542 C 206.196511 71.434699 204.890867 71.518484 203.620133 71.462627 C 203.089497 71.441681 202.663592 70.994829 202.670574 70.464193 Q 202.754358 63.531013 202.914946 56.444228 Q 202.970802 54.000509 203.717882 52.010623 C 204.311357 51.884946 204.779154 51.619628 205.316772 51.55679 Q 210.357816 50.977279 215.426787 50.851602 Q 215.601339 50.84462 215.594357 50.670069 L 215.594357 50.488535 Q 215.594357 50.474571 215.580393 50.474571 Q 212.298827 50.558356 208.724015 50.439661 C 208.57041 50.432679 208.465679 50.293038 208.500589 50.139432 Q 208.584374 49.79033 208.891584 49.608796 Q 209.436185 49.287622 210.09948 49.28064 Q 216.034226 49.217801 222.031811 50.048666 C 222.241273 50.076594 222.415824 50.202271 222.520555 50.376822 Q 223.169886 51.521879 222.555465 52.743739 Z" style="fill:#000000;"/>
		<path d="M 191.261897 55.208404 C 191.122256 55.39692 191.052435 55.627327 191.052435 55.864717 Q 191.024507 62.155548 190.96865 69.214406 C 190.835991 83.932577 191.122256 99.111563 190.954686 112.99887 Q 190.93374 114.625688 190.319319 116.287417 Q 190.18666 116.657466 189.851522 116.448005 L 186.430315 114.304514 C 186.060266 114.074106 185.83684 113.669147 185.829858 113.229278 C 185.80193 109.97564 185.536612 106.456685 185.508684 103.489311 Q 185.299222 84.484159 185.585486 64.669088 C 185.613414 62.818844 185.501702 59.732775 185.522648 57.212254 Q 185.52963 55.487686 186.339548 54.300737 Q 188.1479 51.647556 190.382158 49.441227 C 190.521799 49.301586 190.766171 49.322532 190.870902 49.497083 C 191.610999 50.732907 191.422484 51.822108 191.694784 53.127752 Q 191.932174 54.265827 191.261897 55.208404 Z" style="fill:#f40000;"/>
		<path d="M 222.555465 52.743739 L 223.190832 62.309154 L 223.197814 68.488272 Q 223.197814 69.123639 222.87664 68.572057 C 222.681142 68.229936 222.380914 67.9716 222.339021 67.545695 Q 222.024829 64.759855 221.968973 62.274243 Q 221.871224 57.868567 221.193965 53.050949 C 221.138108 52.639008 220.844862 52.296887 220.439903 52.178192 Q 219.413541 51.884946 219.399576 52.37369 Q 219.14124 59.963183 219.497325 67.804031 Q 219.504307 68.00651 219.301828 67.978582 L 218.966689 67.93669 Q 218.743263 67.915743 218.757227 67.692318 Q 219.029528 61.590002 218.785156 55.264261 Q 218.750245 54.342629 218.01713 52.192157 C 217.891453 51.82909 217.584242 51.38922 217.221175 51.228633 Q 216.634683 50.956333 217.284014 50.942369 Q 220.139674 50.872548 222.555465 52.743739 Z" style="fill:#c6c6c8;"/>
		<path d="M 203.536349 51.815126 Q 204.199644 51.940803 203.717882 52.010623 Q 202.970802 54.000509 202.914946 56.444228 Q 202.754358 63.531013 202.670574 70.464193 C 202.663592 70.994829 203.089497 71.441681 203.620133 71.462627 C 204.890867 71.518484 206.196511 71.434699 207.411389 71.106542 Q 211.46098 70.003378 216.041208 69.200441 Q 217.521404 68.942105 218.910833 69.172513 Q 220.607472 69.451795 222.492627 69.193459 Q 223.009299 69.123639 222.87664 69.626347 Q 222.841729 69.759006 222.757945 69.870719 Q 222.380914 70.345498 222.988353 70.394373 L 229.87964 70.959919 Q 230.382348 70.911045 230.912984 71.043704 Q 231.534387 71.197309 231.290015 71.895514 Q 226.165187 71.769838 221.033377 71.720963 C 219.03651 71.700017 217.193247 72.146868 215.203362 72.405204 Q 215.077685 72.495971 215.021828 71.748891 Q 215.838729 70.708565 216.676575 70.568924 Q 218.687407 70.226803 216.655629 70.038288 Q 214.51912 69.835808 211.914814 70.624781 Q 207.097196 71.958353 201.930476 72.202725 Q 201.532499 72.223671 201.532499 71.825694 Q 201.420786 64.36886 201.36493 56.92599 C 201.357948 55.725076 201.70705 54.517181 201.965386 53.351178 C 202.14692 52.548241 202.803233 52.094408 203.536349 51.815126 Z" style="fill:#c6c6c8;"/>
		<path d="M 261.073296 68.057339 C 261.089424 68.160115 261.019604 68.257864 260.919621 68.27518 L 260.259118 68.389266 C 260.153829 68.404487 260.05608 68.341649 260.041278 68.235591 L 257.279387 52.246058 C 257.263258 52.143282 257.333079 52.045533 257.433062 52.028218 L 258.093564 51.914131 C 258.198854 51.89891 258.296602 51.961749 258.311404 52.067806 L 261.073296 68.057339 Z" style="fill:#e2e2e3;"/>
		<path d="M 200.240819 57.393787 C 200.226855 62.302172 200.031357 67.252448 199.996447 72.125922 Q 199.996447 72.468043 199.654326 72.398222 L 199.437883 72.349348 C 199.144636 72.28651 198.935175 72.028174 198.949139 71.727945 Q 199.193511 64.243183 199.039905 56.667653 C 199.011977 55.313135 199.528649 53.97258 200.750509 53.309285 Q 202.007279 52.632026 201.246235 53.839921 Q 200.247801 55.417866 200.240819 57.393787 Z" style="fill:#e2e2e3;"/>
		<path d="M 299.874737 126.160043 L 300.049289 118.340141 L 299.902666 101.03861 L 300.761458 103.405527 Q 300.873171 103.726701 300.838261 104.068822 Q 300.670692 105.451269 300.684656 105.521089 Q 301.313041 109.019099 301.773856 105.493161 Q 302.095031 103.04246 301.836695 100.738382 Q 301.438718 97.219426 301.473628 96.011531 Q 301.578359 92.604288 301.55043 89.343669 Q 301.543448 88.645463 302.157869 88.987584 Q 302.618685 89.24592 302.555846 90.020928 Q 302.527918 90.335121 302.674541 90.614403 L 303.582208 92.352934 Q 303.749778 92.674109 303.659011 93.023212 L 303.379729 94.063538 Q 303.309908 94.328856 303.414639 94.573228 Q 304.154737 96.374598 304.30136 98.427322 Q 305.313758 112.991888 304.001132 123.220598 Q 303.868473 124.295834 304.105862 125.531658 Q 304.182665 125.908689 304.566678 125.908689 L 305.076368 125.908689 Q 305.404525 125.908689 305.474345 125.587514 Q 305.914215 123.688395 305.907233 122.152343 Q 305.837412 105.562982 306.584492 88.945692 L 307.352518 94.328856 Q 307.401392 94.663994 307.659728 94.880438 Q 307.918064 95.0899 307.876172 95.43202 Q 307.715585 96.65388 308.015813 97.757045 L 308.14149 122.31293 Q 308.148472 123.53479 309.36335 123.590646 L 312.826449 123.758216 Q 314.02038 123.814072 314.013398 122.620141 L 313.776008 73.766705 Q 313.776008 73.354764 313.364067 73.347782 L 307.806351 73.291925 Q 307.052289 73.012643 306.605438 74.032023 L 305.607004 69.451795 Q 308.336988 67.804031 311.904817 67.790066 Q 313.58051 67.783084 315.235257 67.573623 Q 315.360934 67.559659 315.353952 67.427 L 315.353952 67.427 Q 315.34697 67.294341 315.221293 67.294341 Q 313.154605 67.22452 311.066971 67.252448 L 322.538487 67.245466 L 322.559433 69.29819 C 322.559433 69.347065 322.594343 69.381975 322.643217 69.388957 L 322.831733 69.402921 Q 322.859661 69.402921 322.880607 69.291208 L 323.474082 66.058517 C 323.515974 65.849055 323.697508 65.69545 323.906969 65.69545 Q 325.059008 65.681486 325.980639 66.212122 C 326.483347 66.498386 326.364652 67.25943 325.792124 67.371143 Q 325.317344 67.46191 325.121847 67.873851 C 325.038062 68.062367 325.156757 68.285792 325.366219 68.306738 Q 326.622988 68.460344 326.685827 67.273394 Q 326.734701 66.20514 327.418943 67.02204 Q 327.677279 67.329251 327.509709 67.713264 Q 327.181553 68.439397 327.970525 68.355613 Q 328.228861 68.327685 328.466251 68.195026 C 328.675712 68.076331 328.913102 68.034438 329.150492 68.076331 Q 333.465402 68.879267 337.438191 70.422301 C 339.09992 71.071632 340.279887 72.468043 340.286869 74.255449 Q 340.405564 93.449117 340.231013 113.320044 C 340.18912 117.600044 340.573133 121.928917 340.615026 126.208917 C 340.615026 126.348558 340.496331 126.467253 340.35669 126.467253 Q 320.68126 126.599912 300.908081 126.516127 Q 300.174966 126.509145 299.874737 126.160043 Z M 322.622271 71.378842 Q 322.936464 72.495971 324.081521 72.691469 L 328.564 73.445531 Q 329.478649 73.599136 329.3809 72.670523 L 329.157474 70.666673 C 329.101618 70.143019 328.626838 69.77297 328.103184 69.84279 Q 325.659465 70.163965 323.425207 69.696167 Q 322.077671 69.416885 322.44772 70.743475 Q 322.531504 71.043704 322.622271 71.378842 Z M 320.597475 74.367162 C 320.597475 74.255449 320.513691 74.1577 320.394996 74.143736 L 315.717019 73.592154 C 315.58436 73.57819 315.458683 73.689903 315.458683 73.829544 L 316.101032 123.49988 C 316.101032 123.625557 316.198781 123.723306 316.324458 123.723306 L 320.492745 123.758216 C 320.618421 123.758216 320.723152 123.653485 320.723152 123.527808 L 320.597475 74.367162 Z M 326.692809 89.329705 Q 327.118714 87.842527 326.574114 85.685072 L 326.378617 75.561093 Q 326.364652 74.953654 325.764196 74.862888 L 322.580379 74.36018 Q 322.035779 74.269413 322.035779 74.820995 L 322.41281 123.032082 Q 322.419792 123.876911 323.26462 123.876911 L 326.029514 123.883893 Q 326.881324 123.883893 326.881324 123.032082 L 326.692809 89.329705 Z M 328.557018 123.674431 C 328.557018 123.80709 328.661748 123.911821 328.794407 123.911821 L 332.662466 123.925785 C 332.795125 123.925785 332.899855 123.821054 332.899855 123.688395 L 332.606609 75.875286 C 332.606609 75.749609 332.515842 75.65186 332.390165 75.637896 L 328.515125 75.260865 C 328.368502 75.246901 328.249807 75.358614 328.249807 75.498255 L 328.557018 123.674431 Z M 338.299986 76.695468 C 338.296984 76.384976 338.04563 76.133622 337.731507 76.132923 L 334.659403 76.148982 C 334.345141 76.147586 334.093787 76.405922 334.096859 76.717461 L 334.342138 123.566419 C 334.345141 123.876911 334.596495 124.128265 334.910617 124.128963 L 337.982721 124.112904 C 338.296984 124.114301 338.548338 123.855965 338.545266 123.544425 L 338.299986 76.695468 Z" style="fill:#e2e2e3;"/>
		<path d="M 299.281263 97.282265 L 298.652878 96.123244 Q 298.485309 95.809051 298.129224 95.746213 L 295.678523 95.32729 C 295.231671 95.250487 294.903515 94.859492 294.910497 94.398676 L 295.231671 68.167097 L 295.978751 67.245466 Q 296.202177 66.973166 296.544297 66.910328 Q 297.417054 66.742758 298.233955 66.763704 Q 299.525635 66.798615 299.776989 67.93669 Q 299.881719 68.390523 299.630365 68.781518 Q 298.974052 69.821844 299.197478 70.778386 Q 299.420904 71.686053 299.420904 72.712415 C 299.427886 73.68292 299.595455 74.653426 299.581491 75.561093 Q 299.455814 86.327421 299.281263 97.282265 Z" style="fill:#e2e2e3;"/>
		<path d="M 311.066971 67.252448 Q 313.154605 67.22452 315.221293 67.294341 Q 315.34697 67.294341 315.353952 67.427 L 315.353952 67.427 Q 315.360934 67.559659 315.235257 67.573623 Q 313.58051 67.783084 311.904817 67.790066 Q 308.336988 67.804031 305.607004 69.451795 Q 304.622534 70.212839 304.517804 70.219821 Q 302.653595 70.289642 304.161719 69.193459 Q 306.842828 67.238484 311.066971 67.252448 Z" style="fill:#c6c6c8;"/>
		<path d="M 295.231671 68.167097 L 294.910497 94.398676 C 294.903515 94.859492 295.231671 95.250487 295.678523 95.32729 L 298.129224 95.746213 Q 298.485309 95.809051 298.652878 96.123244 L 299.281263 97.282265 Q 299.225406 98.113129 300.028343 99.586343 Q 299.358065 99.488594 299.064819 100.158871 L 275.982147 99.383863 Q 275.207139 99.362917 275.228085 100.137925 L 275.674936 114.318478 Q 275.528313 114.939881 275.58417 115.81962 Q 275.640026 116.664448 275.521331 117.299815 C 275.186192 119.094203 275.116372 120.832735 274.487987 122.543338 Q 273.712979 124.637955 272.59585 126.537074 C 271.688183 128.080108 268.783648 127.786861 267.268543 127.542489 C 266.996242 127.493615 266.779799 127.277171 266.737906 127.004871 Q 265.683616 120.085655 262.667369 113.613291 Q 259.378821 106.582362 253.842052 103.55215 C 244.360422 98.371465 236.261238 106.742949 232.763229 114.667581 Q 232.456019 115.358804 232.337324 116.070974 Q 232.253539 116.5667 231.988221 116.992605 Q 231.736867 117.390582 231.583262 117.865362 Q 229.146525 125.26634 228.210929 132.178574 C 228.176019 132.43691 228.064306 132.681282 227.896737 132.883761 Q 227.205513 133.700661 226.709788 133.463272 Q 225.655497 132.960564 225.7323 131.620009 Q 226.144241 124.847416 226.744698 121.314497 Q 227.617455 116.119848 229.663197 111.490746 Q 230.815236 108.893422 231.241141 106.331008 Q 231.88349 102.400111 231.890472 99.097599 Q 231.911418 84.958939 232.330342 76.594437 Q 232.372234 75.847357 232.986655 75.323703 Q 233.552201 75.561093 233.852429 75.526183 Q 246.42711 74.004095 259.0367 72.719397 Q 265.341496 72.070066 272.812294 71.071632 Q 282.922309 69.717113 292.927593 69.144585 C 293.814314 69.095711 294.463645 68.620931 295.231671 68.167097 Z M 236.414843 101.541318 Q 233.363686 104.753063 232.812103 106.261187 Q 231.750831 109.172704 230.473115 112.391431 Q 229.886622 113.878609 229.272202 116.098902 Q 228.783458 117.886308 228.064306 119.813355 Q 227.854845 120.364937 228.24584 120.804807 L 228.385481 120.972376 Q 228.769494 121.412245 228.971973 120.860663 Q 231.548351 113.766896 236.079705 107.140926 Q 238.216214 104.02693 240.394615 102.0929 Q 240.597094 101.911367 240.506327 101.660013 L 240.443489 101.471498 Q 240.303848 101.066538 239.975691 101.345821 Q 237.147959 103.754629 235.01145 106.742949 C 234.955594 106.826733 234.836899 106.833716 234.767079 106.763895 L 234.620455 106.617272 C 234.424958 106.421774 234.410994 106.107582 234.585545 105.891138 L 236.701108 103.251922 Q 241.204533 97.680242 246.622607 95.795087 Q 249.268806 94.873456 253.716375 95.522787 Q 252.662084 96.088334 251.237745 96.14419 Q 250.958463 96.158154 250.874678 96.423472 Q 250.832786 96.528203 250.902607 96.625952 Q 251.265674 97.142624 251.935951 97.19848 Q 255.308283 97.477762 257.563487 98.734532 Q 260.684465 100.480046 264.727075 103.733683 C 265.439244 104.306212 266.046683 105.032345 267.017189 105.137076 C 267.49895 105.192933 267.889945 104.739099 267.764268 104.271302 Q 266.870565 100.898969 264.936536 98.783407 Q 262.402051 94.999133 258.303585 94.272999 Q 257.598397 94.147322 256.893209 93.979753 Q 254.994091 93.546866 256.935102 93.337404 C 262.737189 92.729965 268.853469 94.091466 272.442245 99.006832 Q 272.847204 99.565397 272.917025 98.881155 Q 273.021756 97.771009 273.733925 97.044875 Q 274.236633 96.535185 275.053533 96.318741 Q 277.413468 95.683374 278.565507 95.690356 Q 285.938556 95.760177 293.919045 95.718285 C 294.016794 95.718285 294.10756 95.683374 294.177381 95.620536 Q 294.652161 95.194631 294.07265 95.054989 Q 293.960937 95.027061 293.842242 95.013097 Q 291.48929 94.754761 289.21314 94.356784 Q 284.723679 93.567812 280.094577 93.044158 C 272.777384 92.206311 265.418298 90.628367 257.682182 90.963506 Q 251.949915 91.214859 247.334777 93.302494 Q 241.113766 96.123244 236.414843 101.541318 Z" style="fill:#f40000;"/>
		<path d="M 322.622271 71.378842 Q 322.531504 71.043704 322.44772 70.743475 Q 322.077671 69.416885 323.425207 69.696167 Q 325.659465 70.163965 328.103184 69.84279 C 328.626838 69.77297 329.101618 70.143019 329.157474 70.666673 L 329.3809 72.670523 Q 329.478649 73.599136 328.564 73.445531 L 324.081521 72.691469 Q 322.936464 72.495971 322.622271 71.378842 Z" style="fill:#f40000;"/>
		<path d="M 215.021828 71.748891 Q 213.674292 74.150718 213.122709 76.94354 L 211.90085 111.022948 C 211.879904 111.714172 212.368648 112.32161 213.052889 112.433323 L 221.319642 113.808788 Q 222.248255 113.962393 221.850278 114.667581 L 221.591942 115.135378 C 221.466265 115.351822 221.570995 115.624122 221.801403 115.700925 Q 223.903002 116.420076 225.7323 115.910386 C 225.878923 115.868494 226.025546 115.959261 226.060457 116.105884 L 226.102349 116.280435 Q 226.123295 116.371202 226.032528 116.392148 Q 222.716052 116.978641 219.287864 117.634954 Q 217.842578 117.914236 216.369365 117.669864 Q 214.875205 117.411528 213.422938 117.243959 C 213.178566 117.216031 213.017979 116.978641 213.080817 116.741251 Q 213.360099 115.666015 213.471812 114.702491 Q 213.583525 113.773878 212.822481 113.564416 C 212.44545 113.459685 212.117294 113.829734 212.263917 114.192801 Q 212.599055 115.009701 212.368648 115.756781 Q 212.298827 115.980207 212.44545 116.168722 Q 212.578109 116.32931 212.585091 116.531789 C 212.592073 116.804089 212.361665 117.027515 212.082383 117.020533 L 211.35625 116.992605 Q 211.000165 116.978641 211.042057 117.341708 Q 211.069985 117.600044 210.818631 117.795541 Q 208.989333 117.257923 207.236837 117.58608 Q 206.643363 117.216031 205.665875 117.083372 L 200.45028 116.852964 Q 200.184962 116.845982 200.101178 116.587646 Q 200.073249 116.503861 200.073249 116.39913 Q 200.610868 116.252507 200.631814 116.043045 Q 201.029791 110.953128 201.029791 106.177402 C 201.022809 95.292379 201.246235 84.337536 201.441732 73.801615 C 201.448714 73.689903 201.413804 73.585172 201.343983 73.494405 Q 201.260199 73.382692 201.148486 73.298907 Q 200.92506 73.131338 201.19736 73.187195 Q 201.323037 73.215123 201.448714 73.291925 Q 201.748943 73.473459 202.098045 73.396656 C 203.731846 73.012643 205.330737 73.13832 206.992466 72.7962 Q 209.750377 72.230653 212.159186 71.246183 C 212.382612 71.155417 212.438468 70.86217 212.263917 70.694601 Q 212.075401 70.506086 211.914814 70.624781 Q 214.51912 69.835808 216.655629 70.038288 Q 218.687407 70.226803 216.676575 70.568924 Q 215.838729 70.708565 215.021828 71.748891 Z M 207.27873 108.830583 Q 207.327604 108.279001 206.964537 107.66458 Q 205.421503 106.310061 203.857523 107.224711 Q 203.480492 107.441154 203.47351 107.86706 L 203.424636 109.912802 C 203.417654 110.143209 203.585223 110.338707 203.808649 110.373617 C 205.163167 110.569115 207.118143 110.75763 207.27873 108.830583 Z M 219.490343 115.435607 Q 219.504307 115.163307 219.406559 114.918935 C 219.322774 114.702491 219.050474 114.63267 218.86894 114.772312 Q 218.163753 115.330876 217.33987 115.693943 Q 216.194813 116.210615 217.444601 116.343274 Q 218.184699 116.427058 218.952725 116.154758 C 219.259935 116.043045 219.469397 115.756781 219.490343 115.435607 Z" style="fill:#f40000;"/>
		<path d="M 197.713315 71.53943 Q 198.10431 72.104976 197.999579 72.530881 Q 197.908813 72.886966 197.482907 73.019625 Q 196.980199 73.17323 196.512402 73.347782 Q 196.009694 73.536297 196.365778 73.927292 Q 196.617132 74.206575 196.749791 74.527749 Q 196.889433 74.862888 196.882451 75.295775 Q 196.700917 97.212444 196.805648 118.856813 Q 196.81263 119.631822 196.044604 119.568983 L 191.513251 119.240826 C 191.017525 119.205916 190.675404 118.738119 190.794099 118.256357 Q 191.387574 115.812638 191.380592 113.250224 Q 191.345681 99.900535 191.422484 86.578775 Q 193.44728 85.747911 193.642777 83.744061 Q 194.278144 77.090163 195.430183 72.104976 Q 195.325452 72.551828 195.506986 72.761289 Q 195.779286 73.0685 195.877035 72.670523 Q 196.191227 71.378842 197.713315 71.53943 Z" style="fill:#e2e2e3;"/>
		<path d="M 215.021828 71.748891 Q 215.077685 72.495971 215.203362 72.405204 Q 215.02881 72.712415 215.02881 72.747325 C 215.035792 73.040571 215.287146 73.277961 215.587375 73.263997 Q 217.737848 73.17323 219.685841 73.759723 Q 221.598924 74.339234 223.505025 74.339234 Q 227.003034 74.346216 230.563882 74.681354 C 230.724469 74.695318 230.857128 74.827977 230.86411 74.995547 L 230.871092 75.239919 Q 230.892038 75.791501 230.347438 75.777537 L 220.356118 75.470326 Q 219.993051 75.463344 219.727733 75.714698 C 218.226591 77.132055 215.594357 76.894666 213.122709 76.94354 Q 213.674292 74.150718 215.021828 71.748891 Z" style="fill:#e2e2e3;"/>
		<path d="M 308.015813 97.757045 L 307.806351 73.291925 L 313.364067 73.347782 Q 313.776008 73.354764 313.776008 73.766705 L 314.013398 122.620141 Q 314.02038 123.814072 312.826449 123.758216 L 309.36335 123.590646 Q 308.148472 123.53479 308.14149 122.31293 L 308.015813 97.757045 Z" style="fill:#000000;"/>
		<path d="M 307.806351 73.291925 L 308.015813 97.757045 Q 307.715585 96.65388 307.876172 95.43202 Q 307.918064 95.0899 307.659728 94.880438 Q 307.401392 94.663994 307.352518 94.328856 L 306.584492 88.945692 L 306.605438 74.032023 Q 307.052289 73.012643 307.806351 73.291925 Z" style="fill:#c6c6c8;"/>
		<path d="M 320.597475 74.367162 L 320.723152 123.527808 C 320.723152 123.653485 320.618421 123.758216 320.492745 123.758216 L 316.324458 123.723306 C 316.198781 123.723306 316.101032 123.625557 316.101032 123.49988 L 315.458683 73.829544 C 315.458683 73.689903 315.58436 73.57819 315.717019 73.592154 L 320.394996 74.143736 C 320.513691 74.1577 320.597475 74.255449 320.597475 74.367162 Z M 315.989319 94.363766 L 316.003283 86.543865 C 316.003283 86.536883 316.003283 86.536883 315.996301 86.536883 L 315.863642 86.536883 C 315.765894 86.536883 315.682109 86.655578 315.682109 86.809183 L 315.668145 94.098448 C 315.668145 94.245071 315.751929 94.370748 315.849678 94.370748 L 315.982337 94.370748 C 315.989319 94.370748 315.989319 94.370748 315.989319 94.363766 Z" style="fill:#000000;"/>
		<path d="M 200.073249 116.39913 Q 200.073249 116.503861 200.101178 116.587646 Q 200.184962 116.845982 200.45028 116.852964 L 205.665875 117.083372 L 200.198926 117.634954 Q 199.710183 117.683828 199.584506 118.158608 Q 199.500721 118.479783 199.291259 118.745101 Q 198.844408 119.310647 198.823462 118.591495 Q 198.362646 96.458382 198.397556 74.374144 Q 198.397556 73.899364 198.872336 73.85049 L 199.423918 73.794633 C 199.710183 73.766705 199.954555 73.997113 199.954555 74.283377 L 200.073249 116.39913 Z" style="fill:#c6c6c8;"/>
		<path d="M 326.574114 85.685072 L 326.692809 89.329705 L 326.881324 123.032082 Q 326.881324 123.883893 326.029514 123.883893 L 323.26462 123.876911 Q 322.419792 123.876911 322.41281 123.032082 L 322.035779 74.820995 Q 322.035779 74.269413 322.580379 74.36018 L 325.764196 74.862888 Q 326.364652 74.953654 326.378617 75.561093 L 326.574114 85.685072 Z" style="fill:#000000;"/>
		<path d="M 328.557018 123.674431 L 328.249807 75.498255 C 328.249807 75.358614 328.368502 75.246901 328.515125 75.260865 L 332.390165 75.637896 C 332.515842 75.65186 332.606609 75.749609 332.606609 75.875286 L 332.899855 123.688395 C 332.899855 123.821054 332.795125 123.925785 332.662466 123.925785 L 328.794407 123.911821 C 328.661748 123.911821 328.557018 123.80709 328.557018 123.674431 Z" style="fill:#000000;"/>
		<path d="M 338.545266 123.544425 C 338.548338 123.855965 338.296984 124.114301 337.982721 124.112904 L 334.910617 124.128963 C 334.596495 124.128265 334.345141 123.876911 334.342138 123.566419 L 334.096859 76.717461 C 334.093787 76.405922 334.345141 76.147586 334.659403 76.148982 L 337.731507 76.132923 C 338.04563 76.133622 338.296984 76.384976 338.299986 76.695468 L 338.545266 123.544425 Z" style="fill:#000000;"/>
		<path d="M 220.027961 77.711566 L 230.633702 77.990848 Q 231.010733 78.004812 230.885056 78.353915 L 230.801272 78.584323 C 230.731451 78.765856 230.5569 78.884551 230.368384 78.877569 L 225.543785 78.668107 Q 224.831615 78.640179 224.831615 79.345367 L 224.664046 108.907386 Q 224.664046 109.298381 224.300979 109.43104 Q 223.574845 109.70334 222.974388 109.598609 Q 222.311093 109.486896 222.967406 109.340273 Q 223.400294 109.242524 223.805253 109.102883 Q 224.189266 108.977206 224.182284 108.579229 Q 223.916966 93.183799 224.182284 79.114959 Q 224.189266 78.640179 223.72845 78.535448 L 222.91155 78.346933 C 222.590375 78.27013 222.283165 78.514502 222.283165 78.842659 L 222.290147 108.188234 C 222.290147 108.453552 222.059739 108.64905 221.801403 108.607157 L 221.61987 108.579229 C 221.312659 108.530355 221.089234 108.265037 221.082252 107.957826 Q 220.893736 93.518937 220.963557 79.038156 Q 220.963557 78.081615 220.258369 78.130489 L 220.027961 77.711566 Z" style="fill:#e2e2e3;"/>
		<path d="M 326.574114 85.685072 Q 327.118714 87.842527 326.692809 89.329705 L 326.574114 85.685072 Z" style="fill:#c6c6c8;"/>
		<path d="M 315.989319 94.363766 C 315.989319 94.370748 315.989319 94.370748 315.982337 94.370748 L 315.849678 94.370748 C 315.751929 94.370748 315.668145 94.245071 315.668145 94.098448 L 315.682109 86.809183 C 315.682109 86.655578 315.765894 86.536883 315.863642 86.536883 L 315.996301 86.536883 C 316.003283 86.536883 316.003283 86.536883 316.003283 86.543865 L 315.989319 94.363766 Z" style="fill:#3d3d3e;"/>
		<path d="M 253.716375 95.522787 Q 254.547239 95.739231 255.36414 96.402526 Q 256.104237 97.009965 256.858299 97.442852 Q 258.149979 98.196914 259.483552 98.943994 Q 260.789196 99.67711 262.164661 99.71202 Q 264.364008 99.774858 264.936536 98.783407 Q 266.870565 100.898969 267.764268 104.271302 C 267.889945 104.739099 267.49895 105.192933 267.017189 105.137076 C 266.046683 105.032345 265.439244 104.306212 264.727075 103.733683 Q 260.684465 100.480046 257.563487 98.734532 Q 255.308283 97.477762 251.935951 97.19848 Q 251.265674 97.142624 250.902607 96.625952 Q 250.832786 96.528203 250.874678 96.423472 Q 250.958463 96.158154 251.237745 96.14419 Q 252.662084 96.088334 253.716375 95.522787 Z" style="fill:#e2e2e3;"/>
		<path d="M 342.437342 96.067387 Q 349.021419 97.924614 355.403017 99.558415 Q 357.022854 99.977338 358.684583 100.242656 Q 358.873098 100.277566 358.935937 99.928464 Q 359.005757 100.298512 359.375806 100.22171 Q 359.689999 100.158871 359.641124 99.851661 Q 360.220635 102.26047 360.290456 103.999001 Q 360.583702 111.239392 360.353294 118.486765 Q 360.30442 120.197368 360.269509 121.433192 Q 359.236165 123.108885 359.417699 125.385035 C 359.459591 125.873778 359.068596 126.292702 358.579852 126.292702 L 341.906706 126.201935 C 341.557603 126.194953 341.264357 125.936617 341.222465 125.587514 Q 340.796559 122.229146 341.075841 119.310647 C 341.117734 118.856813 341.501747 118.507711 341.962562 118.514693 L 357.82579 118.654334 C 358.133001 118.661316 358.370391 118.395998 358.342462 118.088787 Q 358.237731 116.901838 358.328498 115.526373 Q 358.342462 115.330876 358.202821 115.205199 Q 358.070162 115.086504 357.839754 115.128396 Q 358.188857 114.897989 358.195839 114.472083 Q 358.272642 109.542753 358.251696 104.711171 Q 359.054632 104.431889 358.935937 103.831432 Q 358.84517 103.356652 358.377373 103.154173 Q 357.616329 102.819034 356.799428 102.763178 C 351.737439 102.386147 346.884911 101.227126 341.781029 101.262036 Q 341.299267 101.262036 341.278321 100.780274 L 341.10377 97.149606 Q 341.082823 96.695772 341.494765 96.507257 L 342.437342 96.067387 Z" style="fill:#f40000;"/>
		<path d="M 299.064819 100.158871 Q 298.757609 100.926897 298.11526 100.933879 Q 287.865604 101.045592 277.720678 100.312477 C 277.476306 100.298512 277.273827 100.487028 277.266845 100.7314 L 277.071347 112.691659 C 277.064365 113.019816 277.336665 113.285134 277.664822 113.292116 L 299.392976 113.30608 C 299.602437 113.30608 299.756042 113.501578 299.707168 113.704057 L 299.637348 113.976357 Q 299.511671 114.506993 298.960088 114.506993 L 275.674936 114.318478 L 275.228085 100.137925 Q 275.207139 99.362917 275.982147 99.383863 L 299.064819 100.158871 Z" style="fill:#e2e2e3;"/>
		<path d="M 236.414843 101.541318 Q 236.275202 102.134793 236.044795 102.798088 Q 235.947046 103.070388 236.701108 103.251922 L 234.585545 105.891138 C 234.410994 106.107582 234.424958 106.421774 234.620455 106.617272 L 234.767079 106.763895 C 234.836899 106.833716 234.955594 106.826733 235.01145 106.742949 Q 237.147959 103.754629 239.975691 101.345821 Q 240.303848 101.066538 240.443489 101.471498 L 240.506327 101.660013 Q 240.597094 101.911367 240.394615 102.0929 Q 238.216214 104.02693 236.079705 107.140926 Q 231.548351 113.766896 228.971973 120.860663 Q 228.769494 121.412245 228.385481 120.972376 L 228.24584 120.804807 Q 227.854845 120.364937 228.064306 119.813355 Q 228.783458 117.886308 229.272202 116.098902 Q 229.886622 113.878609 230.473115 112.391431 Q 231.750831 109.172704 232.812103 106.261187 Q 233.363686 104.753063 236.414843 101.541318 Z" style="fill:#e2e2e3;"/>
		<path d="M 298.955061 112.206127 C 298.953106 112.510126 298.701752 112.747516 298.401943 112.74214 L 278.561387 112.430461 C 278.258296 112.426341 278.020907 112.174987 278.025445 111.877342 L 278.172557 102.508612 C 278.174512 102.204613 278.425866 101.967223 278.725675 101.9726 L 298.566231 102.284279 C 298.869322 102.288398 299.106711 102.539752 299.102173 102.837397 L 298.955061 112.206127 Z" style="fill:#c6c6c8;"/>
		<path d="M 356.275774 113.697075 L 341.397016 113.627255 L 341.501747 104.348104 C 341.501747 104.180535 341.641388 104.054858 341.808957 104.068822 L 355.828923 105.276717 Q 356.212936 105.311628 356.219918 105.702623 L 356.275774 113.697075 Z" style="fill:#c6c6c8;"/>
		<path d="M 206.964537 107.66458 Q 206.22444 107.587777 205.540198 107.406244 Q 205.086365 107.294531 204.660459 107.39228 Q 204.011128 107.538903 204.073967 108.181252 C 204.143787 108.879458 204.835011 109.333291 205.505288 109.123829 Q 206.559578 108.795673 207.27873 108.830583 C 207.118143 110.75763 205.163167 110.569115 203.808649 110.373617 C 203.585223 110.338707 203.417654 110.143209 203.424636 109.912802 L 203.47351 107.86706 Q 203.480492 107.441154 203.857523 107.224711 Q 205.421503 106.310061 206.964537 107.66458 Z" style="fill:#000000;"/>
		<path d="M 206.964537 107.66458 Q 207.327604 108.279001 207.27873 108.830583 Q 206.559578 108.795673 205.505288 109.123829 C 204.835011 109.333291 204.143787 108.879458 204.073967 108.181252 Q 204.011128 107.538903 204.660459 107.39228 Q 205.086365 107.294531 205.540198 107.406244 Q 206.22444 107.587777 206.964537 107.66458 Z" style="fill:#c6c6c8;"/>
		<path d="M 217.556314 108.181252 Q 217.919381 108.390714 218.031094 108.767745 Q 218.163753 109.221578 217.716901 109.060991 Q 216.676575 108.690942 216.550898 107.727419 Q 216.467114 107.092052 216.962839 107.503993 Q 217.144373 107.66458 217.256086 107.86706 Q 217.367799 108.062557 217.556314 108.181252 Z" style="fill:#c6c6c8;"/>
		<path d="M 236.645251 120.91652 C 238.460585 115.463535 242.126164 110.275868 248.179605 109.612573 C 252.431677 109.144776 255.992524 114.276586 257.591415 117.956128 Q 264.287205 133.337595 257.395917 148.705097 C 254.728773 154.646825 248.5706 160.092828 242.189003 154.981964 Q 236.959444 150.799713 235.41641 143.594233 Q 232.93778 132.03195 236.645251 120.91652 Z M 242.691711 118.584513 Q 242.391482 118.577531 242.209949 118.807939 Q 237.741434 124.323762 237.022282 131.459422 Q 236.819803 133.505164 237.2876 136.214201 Q 237.685577 138.581118 238.153375 140.920106 Q 238.523424 142.77035 239.186719 144.411133 C 240.282902 147.113188 241.728187 149.947902 244.227763 151.393188 C 248.870829 154.067315 253.513895 148.118604 254.95918 144.292438 Q 258.240746 135.59978 256.432394 127.326046 C 255.964596 125.182555 254.868414 123.248526 253.925836 121.286568 Q 253.43011 120.260206 251.747435 118.766047 C 249.143129 116.448005 246.343325 116.475933 243.36897 118.389016 Q 243.061759 118.584513 242.691711 118.584513 Z" style="fill:#3d3d3e;"/>
		<path d="M 155.143728 115.672997 Q 154.829536 115.589212 154.661967 115.728853 Q 154.445523 115.903404 154.689895 116.043045 L 154.962195 116.203633 Q 152.490548 116.524807 151.841217 116.301382 Q 150.479716 115.833584 148.552669 115.770745 Q 139.894921 115.512409 134.686308 115.714889 Q 134.246439 115.735835 133.785623 115.610158 Q 133.0944 115.428625 132.870974 116.022099 Q 131.125461 115.491463 128.870257 116.427058 Q 130.420273 114.409245 133.338772 114.541904 Q 139.252572 114.80024 150.095703 114.960827 Q 151.317562 114.981773 155.143728 115.672997 Z" style="fill:#c6c6c8;"/>
		<path d="M 218.952725 116.154758 Q 218.184699 116.427058 217.444601 116.343274 Q 216.194813 116.210615 217.33987 115.693943 Q 218.163753 115.330876 218.86894 114.772312 C 219.050474 114.63267 219.322774 114.702491 219.406559 114.918935 Q 219.504307 115.163307 219.490343 115.435607 C 219.469397 115.756781 219.259935 116.043045 218.952725 116.154758 Z" style="fill:#e2e2e3;"/>
		<path d="M 133.666929 116.441023 L 135.377532 116.427058 L 134.846896 117.097336 Q 134.609506 117.390582 134.344188 117.125264 L 133.666929 116.441023 Z" style="fill:#3d3d3e;"/>
		<path d="M 189.732827 117.034497 C 189.94927 116.971659 190.179678 117.104318 190.22157 117.327744 L 190.305355 117.760631 Q 190.375176 118.137662 189.998145 118.081805 Q 188.608716 117.872344 187.624246 117.257923 Q 185.962517 116.224579 187.763887 116.985623 Q 188.615698 117.34869 189.732827 117.034497 Z" style="fill:#f40000;"/>
		<path d="M 176.941703 118.633388 Q 174.735373 118.326177 173.827706 118.347124 Q 166.87358 118.500729 159.73792 118.13068 Q 159.270123 118.109734 159.088589 117.676846 L 158.893092 117.195085 C 158.795343 116.957695 158.976876 116.699359 159.235212 116.699359 Q 162.977594 116.734269 166.817724 117.069408 C 167.89296 117.167156 168.961214 116.922784 170.029469 117.306797 Q 170.755602 117.572115 171.537592 117.565133 Q 176.543726 117.516259 182.352795 118.284285 Q 182.932306 118.361088 183.21857 118.87776 L 184.552142 121.25864 Q 185.222419 122.466536 183.96565 123.039064 L 182.576221 123.681413 Q 181.542877 124.156193 181.347379 123.039064 Q 181.109989 121.656617 180.537461 120.064709 Q 180.404802 119.680696 180.013807 119.568983 C 178.966499 119.275737 178.030903 118.780011 176.941703 118.633388 Z" style="fill:#e2e2e3;"/>
		<path d="M 243.36897 118.389016 C 246.343325 116.475933 249.143129 116.448005 251.747435 118.766047 Q 253.43011 120.260206 253.925836 121.286568 C 254.868414 123.248526 255.964596 125.182555 256.432394 127.326046 Q 258.240746 135.59978 254.95918 144.292438 C 253.513895 148.118604 248.870829 154.067315 244.227763 151.393188 C 241.728187 149.947902 240.282902 147.113188 239.186719 144.411133 Q 238.523424 142.77035 238.153375 140.920106 Q 237.685577 138.581118 237.2876 136.214201 Q 236.819803 133.505164 237.022282 131.459422 Q 237.741434 124.323762 242.209949 118.807939 Q 242.391482 118.577531 242.691711 118.584513 Q 243.061759 118.584513 243.36897 118.389016 Z M 238.439639 131.92722 C 238.223196 133.958998 238.216214 136.025686 238.425675 138.022553 C 238.530406 139.055897 238.697975 140.054331 238.914419 141.017855 C 239.710373 144.57172 241.183587 147.427381 243.075724 149.068164 C 245.009753 150.743857 247.24401 151.037103 249.345609 149.878082 C 250.371971 149.319518 251.335494 148.432797 252.201269 147.266794 C 254.358724 144.355277 255.734188 139.886762 255.957614 135.076126 C 256.25086 128.806241 254.533275 122.934333 251.55892 120.022817 C 249.631873 118.13068 247.355723 117.669864 245.184304 118.731137 C 242.901172 119.841283 240.911287 122.55032 239.654517 126.257791 C 239.061042 128.003305 238.649101 129.930352 238.439639 131.92722 Z" style="fill:#000000;"/>
		<path d="M 210.818631 117.795541 Q 211.796119 117.516259 212.201078 117.970093 Q 212.529235 118.333159 212.382612 118.633388 Q 212.229006 118.968526 211.858958 118.940598 Q 209.450149 118.724154 207.236837 117.58608 Q 208.989333 117.257923 210.818631 117.795541 Z" style="fill:#e2e2e3;"/>
		<path d="M 300.049289 118.340141 L 299.874737 126.160043 L 275.228085 126.167025 Q 274.411184 126.167025 274.662538 125.385035 Q 275.702864 122.089505 276.184626 118.186536 Q 276.233501 117.781577 276.63846 117.788559 L 300.049289 118.340141 Z" style="fill:#f40000;"/>
		<path d="M 204.115859 118.144644 Q 204.883885 117.495313 204.897849 118.500729 L 204.918795 119.436324 C 204.925777 119.918086 204.513836 120.295117 204.032074 120.246242 Q 202.293543 120.057727 200.631814 120.525525 C 200.387442 120.595345 200.136088 120.420794 200.122124 120.162458 Q 200.087214 119.310647 200.757491 118.94758 C 201.867637 118.347124 202.76134 119.275737 204.115859 118.144644 Z" style="fill:#e2e2e3;"/>
		<path d="M 130.776358 139.411982 Q 132.794172 139.649372 133.024579 137.680433 Q 134.42099 131.969112 133.429539 126.59293 Q 133.031562 124.407547 131.83763 124.79156 Q 130.23874 125.224447 131.202263 121.900989 Q 131.300012 121.565851 131.572312 121.349407 Q 132.836064 120.357955 131.760828 119.743534 C 132.640566 119.275737 133.548234 119.589929 134.344188 120.623273 C 134.972573 121.447156 135.510191 122.689961 135.894204 124.232996 C 136.62732 127.186405 136.739033 130.921804 136.18745 134.161477 C 135.726635 136.849568 134.86086 138.923238 133.792605 139.872798 C 132.801154 140.752537 131.718935 140.591949 130.776358 139.411982 Z" style="fill:#3d3d3e;"/>
		<path d="M 131.760828 119.743534 Q 132.836064 120.357955 131.572312 121.349407 Q 131.300012 121.565851 131.202263 121.900989 Q 130.23874 125.224447 131.83763 124.79156 Q 131.027712 126.327612 130.846178 128.08709 Q 130.343471 133.121151 131.404743 138.057464 C 131.516456 138.574136 132.172769 138.727741 132.500925 138.322782 L 133.024579 137.680433 Q 132.794172 139.649372 130.776358 139.411982 C 130.029278 138.469405 129.407875 136.947317 129.009898 135.041216 C 128.409441 132.171592 128.367549 128.729439 128.884221 125.734137 C 129.421839 122.648069 130.490094 120.413812 131.760828 119.743534 Z" style="fill:#c6c6c8;"/>
		<path d="M 148.957628 123.171723 Q 147.554235 122.438607 147.023599 122.641087 C 146.863012 122.703926 146.863012 122.934333 147.023599 122.997172 C 148.189602 123.451005 149.306731 124.156193 149.627905 125.454855 C 149.914169 126.66275 150.235344 127.779879 150.235344 129.015703 Q 150.228362 132.478802 149.935116 135.83717 C 149.921152 136.053614 149.78151 136.249111 149.579031 136.339878 Q 149.432408 136.409699 149.264838 136.423663 C 149.083305 136.437627 148.915736 136.31195 148.873843 136.130416 L 148.615507 134.929503 L 148.517759 128.42921 Q 149.313713 126.187971 147.924284 124.735703 Q 147.421576 124.323762 146.974725 124.267906 Q 146.61864 124.219031 146.395214 124.505296 Q 145.222229 126.006437 144.928983 127.744969 C 144.244741 131.801543 142.946079 138.183141 146.569765 141.436778 Q 148.524741 142.016288 149.809439 140.347577 Q 149.683762 141.632275 148.45492 142.512014 Q 148.18262 142.707512 147.861445 142.637691 Q 147.260989 142.518996 146.730353 142.204804 Q 146.38125 142.002324 146.094986 142.295571 Q 145.857596 142.539943 146.025165 142.847153 Q 146.430124 143.601215 147.281935 143.78973 Q 147.861445 143.915407 147.568199 144.425097 L 146.115932 147.008457 Q 145.920434 147.343596 146.311429 147.385488 L 152.162391 148.013873 Q 150.779944 148.111622 147.477432 148.055766 Q 144.440239 148.006891 143.092702 145.109339 Q 142.499228 145.032536 143.707123 144.878931 Q 144.07019 144.830056 143.909603 144.5019 Q 143.253289 143.154363 143.099684 141.939486 C 142.422425 136.528394 142.017466 130.509863 143.113648 125.280304 Q 143.8328 121.859097 146.68846 119.952996 C 146.946796 119.785427 147.288917 119.869211 147.428558 120.141512 L 148.957628 123.171723 Z" style="fill:#3d3d3e;"/>
		<path d="M 126.007615 120.504578 L 125.351302 125.091788 Q 125.058055 122.703926 126.007615 120.504578 Z" style="fill:#c6c6c8;"/>
		<path d="M 248.15824 122.836235 C 247.760682 122.543338 247.725772 121.921935 248.072361 121.462167 C 248.416995 121.000304 249.024434 120.867645 249.415848 121.161241 C 249.813406 121.454138 249.848316 122.075541 249.501727 122.535309 C 249.157093 122.997172 248.549654 123.129831 248.15824 122.836235 Z" style="fill:#000000;"/>
		<path d="M 243.780911 121.607743 C 243.955462 121.503012 244.178888 121.544904 244.304565 121.69851 Q 244.632722 122.110451 244.381368 122.592213 C 244.213798 122.920369 243.759965 122.95528 243.543521 122.662033 Q 243.075724 122.026666 243.780911 121.607743 Z" style="fill:#000000;"/>
		<path d="M 148.957628 123.171723 Q 152.741902 130.551755 149.809439 140.347577 Q 148.524741 142.016288 146.569765 141.436778 Q 147.498379 141.387904 147.449504 140.473254 Q 147.428558 140.054331 147.693876 139.726175 Q 148.287351 138.958149 148.482848 138.162194 C 148.566633 137.84102 148.447938 137.505881 148.18262 137.303402 Q 146.583729 136.095506 146.534855 133.707644 Q 146.444088 128.757367 146.695442 126.250809 Q 146.779227 125.378052 147.924284 124.735703 Q 149.313713 126.187971 148.517759 128.42921 Q 147.037563 130.90784 147.658966 134.775898 C 147.70784 135.104054 147.994104 135.341444 148.322261 135.341444 Q 148.6574 135.348426 148.615507 134.929503 L 148.873843 136.130416 C 148.915736 136.31195 149.083305 136.437627 149.264838 136.423663 Q 149.432408 136.409699 149.579031 136.339878 C 149.78151 136.249111 149.921152 136.053614 149.935116 135.83717 Q 150.228362 132.478802 150.235344 129.015703 C 150.235344 127.779879 149.914169 126.66275 149.627905 125.454855 C 149.306731 124.156193 148.189602 123.451005 147.023599 122.997172 C 146.863012 122.934333 146.863012 122.703926 147.023599 122.641087 Q 147.554235 122.438607 148.957628 123.171723 Z" style="fill:#c6c6c8;"/>
		<path d="M 190.93374 124.665883 Q 187.037754 125.30125 183.511816 124.603044 Q 185.222419 123.590646 186.995861 123.444023 Q 189.509401 123.22758 189.628096 123.206633 Q 192.672272 122.724872 196.414653 122.815638 Q 196.875468 122.82262 197.147769 123.192669 Q 197.385158 123.520826 197.392141 123.904839 C 197.399123 124.184121 197.140787 124.393583 196.868486 124.323762 Q 193.936024 123.611593 190.277427 124.114301 Q 189.900396 124.163175 190.109858 124.484349 Q 190.284409 124.749668 190.93374 124.665883 Z" style="fill:#c6c6c8;"/>
		<path d="M 253.360499 124.734586 C 253.548805 124.938183 253.423128 125.350124 253.090922 125.663828 C 252.752851 125.978509 252.333928 126.069276 252.145203 125.867913 C 251.956897 125.664317 252.082574 125.252375 252.41478 124.938672 C 252.752851 124.623991 253.171774 124.533224 253.360499 124.734586 Z" style="fill:#000000;"/>
		<path d="M 159.835669 126.111168 Q 160.038149 126.041348 160.226664 125.985491 Q 160.429144 125.915671 160.457072 125.81094 Q 160.485 125.685263 160.380269 125.496747 Q 161.350775 125.252375 163.187055 125.322196 Q 171.53061 125.629406 174.930871 125.929635 C 175.042584 125.943599 175.126369 126.041348 175.112404 126.146078 L 175.084476 126.362522 C 175.056548 126.59293 174.86105 126.760499 174.637625 126.746535 L 159.835669 126.111168 Z" style="fill:#c6c6c8;"/>
		<path d="M 204.862939 138.839454 L 214.819349 138.595082 Q 215.126559 138.5881 215.126559 138.287871 L 215.126559 137.966697 Q 215.126559 137.617594 214.784438 137.680433 Q 211.977652 138.197105 209.003297 137.666468 Q 206.957555 137.303402 204.311357 137.303402 Q 199.507703 137.303402 194.787834 136.737855 Q 197.133804 136.800694 195.821178 136.144381 L 213.639381 137.149796 Q 214.540067 137.198671 214.281731 136.339878 L 213.953574 135.278606 Q 213.730148 134.524544 212.948158 134.426795 L 208.221307 133.819356 Q 209.003297 133.756518 209.771323 133.588949 Q 209.855108 133.568002 209.848126 133.477236 L 209.848126 133.477236 Q 209.82718 133.344577 209.694521 133.358541 Q 207.027376 133.568002 204.381177 133.239846 Q 200.589922 132.758084 196.533348 132.674299 Q 196.03064 132.660335 195.032206 132.311233 Q 194.697067 132.192538 194.585355 131.850417 Q 194.292108 130.90784 194.522516 130.12585 Q 196.03064 130.335311 197.755207 130.384186 Q 204.283428 130.579683 211.104896 131.089373 C 211.879904 131.152212 212.438468 131.389601 213.164602 131.626991 Q 213.471812 131.731722 213.534651 131.403566 Q 214.574977 126.167025 212.215042 125.664317 L 215.105613 125.559586 C 215.322057 125.552604 215.496608 125.727155 215.482644 125.943599 Q 215.384895 127.954431 215.664177 129.930352 C 216.062154 132.674299 216.055172 135.411265 216.076119 138.11332 Q 216.076119 138.504315 216.467114 138.504315 Q 216.948875 138.504315 217.381763 138.3158 Q 217.77974 138.14823 218.038076 138.497333 Q 218.198663 138.713777 218.128843 138.993059 C 217.891453 139.91469 216.313508 140.082259 215.545482 140.019421 Q 212.17315 139.726175 209.0801 139.349144 Q 208.577392 139.286305 208.074684 139.37009 Q 207.655761 139.432928 207.31364 139.209503 C 206.706201 138.804543 205.575108 138.82549 204.862939 138.839454 Z" style="fill:#c6c6c8;"/>
		<path d="M 248.912721 132.995474 L 248.542672 133.547056 Q 248.22848 133.470254 248.012036 133.498182 Q 247.600095 133.554038 247.739736 133.945033 Q 247.963162 134.566436 248.619475 135.104054 Q 249.429393 136.116452 249.345609 137.387186 L 247.069459 140.319649 Q 246.832069 140.62686 246.475984 140.480236 L 242.991939 139.104772 Q 242.614908 138.958149 242.517159 139.349144 Q 242.489231 139.467839 242.510177 139.586533 Q 242.573016 139.991493 242.216931 140.193972 Q 241.784043 140.438344 241.316246 140.291721 C 240.673897 140.082259 240.541238 139.230449 241.09282 138.839454 Q 241.525707 138.532243 242.084272 138.65792 C 242.293733 138.706795 242.496213 138.553189 242.503195 138.343728 L 242.593962 136.409699 C 242.607926 136.137399 242.3845 135.906991 242.1122 135.906991 L 240.680879 135.893027 C 240.324794 135.893027 240.052494 135.585816 240.094386 135.236713 L 240.199117 134.287154 Q 240.27592 133.581967 240.967143 133.428361 L 242.014451 133.197954 Q 242.356572 133.121151 242.3845 132.77903 Q 242.6568 129.92337 245.980258 129.385752 Q 246.322379 129.329895 246.434092 129.001739 Q 246.503912 128.785295 246.420128 128.582815 Q 246.280487 128.233713 245.938366 128.3943 L 245.309981 128.687546 Q 244.939932 128.862098 244.583847 128.652636 Q 243.794875 128.184838 243.983391 127.451723 C 244.213798 126.565002 245.393766 126.334594 246.140845 127.025817 Q 247.034548 127.8497 248.053928 128.471103 Q 248.354157 128.652636 248.458888 128.987775 Q 249.08029 131.089373 248.912721 132.995474 Z M 245.414712 132.918671 C 245.728904 132.702228 245.624173 132.220466 245.254125 132.143663 Q 244.409296 131.96213 243.934516 132.932635 C 243.739019 133.337595 244.206816 133.742554 244.583847 133.484218 L 245.414712 132.918671 Z" style="fill:#000000;"/>
		<path d="M 148.517759 128.42921 L 148.615507 134.929503 Q 148.6574 135.348426 148.322261 135.341444 C 147.994104 135.341444 147.70784 135.104054 147.658966 134.775898 Q 147.037563 130.90784 148.517759 128.42921 Z" style="fill:#e2e2e3;"/>
		<path d="M 241.610539 131.284661 C 241.302282 131.466404 240.806556 131.208068 240.512402 130.699774 C 240.213081 130.19567 240.227045 129.637106 240.533208 129.455782 C 240.841466 129.274039 241.337192 129.532375 241.631346 130.040668 C 241.930667 130.544773 241.916702 131.103337 241.610539 131.284661 Z" style="fill:#000000;"/>
		<path d="M 352.079559 143.859551 Q 352.086541 143.580269 352.205236 143.363825 Q 352.351859 143.098507 352.051631 143.021704 Q 349.621876 142.407284 346.640539 142.449176 Q 337.144945 142.588817 326.462401 142.518996 Q 323.634669 142.49805 320.436888 142.93792 Q 317.364784 143.356843 314.362501 143.154363 Q 313.98547 143.133417 313.720152 143.398735 Q 313.650331 143.461574 313.566546 143.496484 Q 313.47578 143.538376 313.378031 143.538376 Q 307.652746 143.538376 301.934443 143.524412 C 299.67924 143.51743 297.354216 143.573287 294.980317 143.685 Q 289.841525 143.936353 280.129487 143.908425 Q 278.216404 143.908425 276.484855 143.545358 C 275.898362 143.426663 275.472457 142.903009 275.479439 142.302553 L 275.507367 129.44859 L 359.843604 129.385752 Q 360.276491 129.385752 360.290456 129.818639 Q 360.478971 136.388752 359.759819 141.066729 Q 359.571304 142.295571 358.84517 143.266076 Q 358.60778 143.580269 358.209803 143.594233 L 352.079559 143.859551 Z M 307.796786 132.921883 C 307.806351 132.527676 307.492159 132.19952 307.092855 132.18786 L 303.61656 132.115037 C 303.219142 132.108753 302.890985 132.422946 302.882537 132.818968 L 302.760909 138.62678 C 302.751344 139.020987 303.065536 139.349144 303.46484 139.360804 L 306.941135 139.433626 C 307.338554 139.43991 307.66671 139.125718 307.675159 138.729696 L 307.796786 132.921883 Z M 345.25111 138.07841 C 345.25111 138.483369 345.586249 138.804543 345.991208 138.783597 L 348.574568 138.650938 C 348.937635 138.636974 349.223899 138.35071 349.244845 137.987643 L 349.503181 133.065295 C 349.524127 132.660335 349.209935 132.325197 348.804976 132.318215 L 345.942333 132.304251 C 345.551338 132.304251 345.230164 132.625425 345.230164 133.01642 L 345.25111 138.07841 Z" style="fill:#e2e2e3;"/>
		<path d="M 253.807141 133.037366 L 250.902607 132.834887 Q 250.057778 131.864381 251.01432 131.305817 Q 252.319964 130.551755 253.814123 131.082391 Q 254.156244 131.208068 254.212101 131.564153 Q 254.323813 132.276322 253.807141 133.037366 Z" style="fill:#000000;"/>
		<path d="M 238.439639 131.92722 Q 238.299998 133.365523 238.697975 135.851134 Q 239.375235 140.11717 242.454321 142.449176 Q 242.733603 142.658637 243.082706 142.66562 L 245.896474 142.721476 L 241.742151 144.732308 Q 241.40003 144.899877 241.525707 145.255962 Q 241.644402 145.598082 241.832918 145.912275 Q 242.126164 146.394037 242.34959 146.903727 Q 243.794875 150.269077 247.44649 149.682584 Q 250.749001 149.144966 252.766815 144.97668 Q 252.983259 144.522846 252.501497 144.655505 Q 252.124466 144.760236 251.733471 145.207087 Q 251.726489 145.067446 251.691579 144.941769 Q 251.62874 144.711362 251.391351 144.662487 Q 251.28662 144.641541 251.146979 144.620595 Q 251.551938 144.564738 251.55892 144.327349 Q 251.55892 144.166761 251.349458 144.013156 Q 250.490665 143.377789 249.631873 142.686566 Q 248.584565 141.848719 247.621041 143.377789 Q 246.713374 142.644673 245.896474 142.721476 Q 246.064043 142.644673 246.140845 142.539943 Q 246.322379 142.288589 246.015168 142.267642 Q 245.763815 142.246696 245.596245 142.121019 Q 245.798725 142.15593 245.945348 142.114037 Q 246.091971 142.072145 246.140845 141.904576 Q 246.196702 141.730024 246.119899 141.590383 Q 246.22463 141.653222 246.475984 141.562455 Q 246.503912 142.058181 246.748284 142.274624 Q 247.027566 142.525978 247.355723 142.351427 Q 249.478268 141.20637 249.603945 138.874364 Q 250.092688 137.87593 251.363422 136.723891 Q 250.637289 137.91084 251.475135 138.469405 C 252.10352 138.89531 252.683031 139.391036 253.304433 139.775049 C 253.737321 140.040367 254.302867 139.865816 254.505347 139.398018 Q 255.252427 137.666468 253.234613 136.835604 Q 254.093406 136.612178 254.295885 136.905425 Q 255.419996 138.490351 255.594547 136.556322 Q 255.629458 136.095506 255.957614 135.076126 C 255.734188 139.886762 254.358724 144.355277 252.201269 147.266794 C 251.335494 148.432797 250.371971 149.319518 249.345609 149.878082 C 247.24401 151.037103 245.009753 150.743857 243.075724 149.068164 C 241.183587 147.427381 239.710373 144.57172 238.914419 141.017855 C 238.697975 140.054331 238.530406 139.055897 238.425675 138.022553 C 238.216214 136.025686 238.223196 133.958998 238.439639 131.92722 Z" style="fill:#c6c6c8;"/>
		<path d="M 245.414712 132.918671 L 244.583847 133.484218 C 244.206816 133.742554 243.739019 133.337595 243.934516 132.932635 Q 244.409296 131.96213 245.254125 132.143663 C 245.624173 132.220466 245.728904 132.702228 245.414712 132.918671 Z" style="fill:#e2e2e3;"/>
		<path d="M 307.675159 138.729696 C 307.66671 139.125718 307.338554 139.43991 306.941135 139.433626 L 303.46484 139.360804 C 303.065536 139.349144 302.751344 139.020987 302.760909 138.62678 L 302.882537 132.818968 C 302.890985 132.422946 303.219142 132.108753 303.61656 132.115037 L 307.092855 132.18786 C 307.492159 132.19952 307.806351 132.527676 307.796786 132.921883 L 307.675159 138.729696 Z" style="fill:#000000;"/>
		<path d="M 345.25111 138.07841 L 345.230164 133.01642 C 345.230164 132.625425 345.551338 132.304251 345.942333 132.304251 L 348.804976 132.318215 C 349.209935 132.325197 349.524127 132.660335 349.503181 133.065295 L 349.244845 137.987643 C 349.223899 138.35071 348.937635 138.636974 348.574568 138.650938 L 345.991208 138.783597 C 345.586249 138.804543 345.25111 138.483369 345.25111 138.07841 Z" style="fill:#000000;"/>
		<path d="M 250.902607 132.834887 L 253.807141 133.037366 Q 252.34091 134.042782 250.902607 132.834887 Z" style="fill:#c6c6c8;"/>
		<path d="M 248.912721 132.995474 Q 249.722639 133.330613 249.980975 134.54549 Q 250.323096 136.200237 249.345609 137.387186 Q 249.429393 136.116452 248.619475 135.104054 Q 249.429393 134.678149 248.542672 133.547056 L 248.912721 132.995474 Z" style="fill:#c6c6c8;"/>
		<path d="M 194.787834 136.737855 Q 199.507703 137.303402 204.311357 137.303402 Q 206.957555 137.303402 209.003297 137.666468 Q 211.977652 138.197105 214.784438 137.680433 Q 215.126559 137.617594 215.126559 137.966697 L 215.126559 138.287871 Q 215.126559 138.5881 214.819349 138.595082 L 204.862939 138.839454 L 179.483171 136.765783 Q 179.238799 136.744837 179.21087 136.500465 L 179.155014 135.976811 Q 179.134068 135.739421 179.364476 135.760368 L 194.787834 136.737855 Z" style="fill:#e2e2e3;"/>
		<path d="M 253.234613 136.835604 Q 255.252427 137.666468 254.505347 139.398018 C 254.302867 139.865816 253.737321 140.040367 253.304433 139.775049 C 252.683031 139.391036 252.10352 138.89531 251.475135 138.469405 Q 250.637289 137.91084 251.363422 136.723891 Q 252.312982 136.528394 253.234613 136.835604 Z" style="fill:#000000;"/>
		<path d="M 249.603945 138.874364 Q 249.478268 141.20637 247.355723 142.351427 Q 247.027566 142.525978 246.748284 142.274624 Q 246.503912 142.058181 246.475984 141.562455 Q 248.081857 140.989926 249.603945 138.874364 Z" style="fill:#000000;"/>
		<path d="M 246.119899 141.590383 Q 246.196702 141.730024 246.140845 141.904576 Q 246.091971 142.072145 245.945348 142.114037 Q 245.798725 142.15593 245.596245 142.121019 L 244.060193 141.192406 Q 243.487665 140.843303 244.157942 140.829339 Q 245.17034 140.808393 246.119899 141.590383 Z" style="fill:#3d3d3e;"/>
		<path d="M 251.146979 144.620595 Q 250.232329 145.395603 249.582998 145.144249 Q 248.989524 144.718344 248.340193 144.446043 Q 247.928251 144.271492 247.802574 144.055048 Q 247.635005 143.775766 247.621041 143.377789 Q 248.584565 141.848719 249.631873 142.686566 Q 250.490665 143.377789 251.349458 144.013156 Q 251.55892 144.166761 251.55892 144.327349 Q 251.551938 144.564738 251.146979 144.620595 Z" style="fill:#000000;"/>
		<path d="M 245.896474 142.721476 Q 246.713374 142.644673 247.621041 143.377789 Q 247.635005 143.775766 247.802574 144.055048 Q 247.928251 144.271492 248.340193 144.446043 Q 248.989524 144.718344 249.582998 145.144249 Q 249.275788 145.067446 249.003488 145.109339 Q 248.458888 145.200105 248.828936 145.605065 L 249.345609 146.184575 C 249.534124 146.401019 249.457321 146.736157 249.192003 146.84787 Q 246.790177 147.860268 244.346457 146.261378 Q 243.822803 145.109339 243.110634 145.674885 Q 242.817388 145.912275 242.970993 146.254396 Q 243.222347 146.819942 244.081139 147.08526 C 245.40773 148.746989 247.865413 148.537527 249.464303 147.90216 Q 249.918137 147.720627 250.09967 147.252829 C 250.455755 146.331198 250.944499 145.800562 251.733471 145.207087 Q 252.124466 144.760236 252.501497 144.655505 Q 252.983259 144.522846 252.766815 144.97668 Q 250.749001 149.144966 247.44649 149.682584 Q 243.794875 150.269077 242.34959 146.903727 Q 242.126164 146.394037 241.832918 145.912275 Q 241.644402 145.598082 241.525707 145.255962 Q 241.40003 144.899877 241.742151 144.732308 L 245.896474 142.721476 Z" style="fill:#3d3d3e;"/>
		<path d="M 217.556314 144.257528 Q 222.332039 143.559323 226.71677 144.73929 Q 222.101632 145.01159 217.556314 144.257528 Z" style="fill:#c6c6c8;"/>
		<path d="M 251.146979 144.620595 Q 251.28662 144.641541 251.391351 144.662487 Q 251.62874 144.711362 251.691579 144.941769 Q 251.726489 145.067446 251.733471 145.207087 C 250.944499 145.800562 250.455755 146.331198 250.09967 147.252829 Q 249.918137 147.720627 249.464303 147.90216 C 247.865413 148.537527 245.40773 148.746989 244.081139 147.08526 L 244.346457 146.261378 Q 246.790177 147.860268 249.192003 146.84787 C 249.457321 146.736157 249.534124 146.401019 249.345609 146.184575 L 248.828936 145.605065 Q 248.458888 145.200105 249.003488 145.109339 Q 249.275788 145.067446 249.582998 145.144249 Q 250.232329 145.395603 251.146979 144.620595 Z" style="fill:#e2e2e3;"/>
		<path d="M 244.346457 146.261378 L 244.081139 147.08526 Q 243.222347 146.819942 242.970993 146.254396 Q 242.817388 145.912275 243.110634 145.674885 Q 243.822803 145.109339 244.346457 146.261378 Z" style="fill:#c6c6c8;"/>
		<path d="M 257.109653 160.902746 L 262.827956 161.363562 L 257.109653 160.902746 Z" style="fill:#3d3d3e;"/>
	</g>
	<g id="surface4">
	</g>
</svg>
