<?xml version="1.0" encoding="utf-8"?>
<svg xmlns="http://www.w3.org/2000/svg" width="490pt" height="280pt" viewBox="0 0 490 280" version="1.1" xmlns:xlink="http://www.w3.org/1999/xlink">
	<g id="surface2">
		<path d="M 266.182269 65.351669 C 266.111129 65.128086 265.857057 65.021376 265.648719 65.128086 Q 262.533802 66.733818 259.149569 67.368997 Q 253.615891 68.400528 247.482604 68.751146 C 244.525211 68.918834 241.887949 67.551929 239.565735 65.783591 C 239.189709 65.493949 238.645996 65.590497 238.386843 65.99193 C 236.689645 68.644436 235.246519 71.352839 232.568605 73.146584 C 232.238312 73.365085 232.202742 73.832577 232.497465 74.096811 Q 233.031015 74.574466 233.61538 74.975899 Q 246.999868 84.127555 259.820318 96.058755 Q 262.818362 98.84846 263.672042 101.953214 Q 264.80012 106.064091 266.182269 110.047933 Q 271.019791 123.981216 275.999593 139.672673 Q 277.539266 144.52544 278.276074 147.894428 Q 278.331969 148.168825 278.611448 148.128174 Q 280.28832 147.869021 281.670469 149.479835 Q 283.078026 151.126218 284.363627 152.950452 C 285.410402 154.439311 287.437893 154.566347 289.074114 154.774685 C 289.597501 154.840744 289.998934 155.277747 290.01926 155.806216 C 290.120888 158.48413 286.203105 158.143674 283.931706 158.153837 Q 275.887801 158.194488 267.391649 157.925172 C 266.182269 157.889602 265.252367 156.81742 265.044028 155.658854 Q 264.088719 150.313189 268.875427 148.53977 Q 269.195557 148.422897 269.012626 148.133255 C 267.864222 146.359836 266.75647 144.540684 265.790999 142.685962 Q 260.907744 133.336129 256.20742 124.225124 Q 253.468529 118.909948 250.69915 110.906695 C 250.500974 110.332493 250.023319 109.722721 249.433873 109.473731 C 240.831011 105.855753 231.481179 102.878034 222.293953 101.765201 Q 220.937211 101.602595 220.073367 102.552823 Q 218.808091 103.945135 217.740991 105.296795 C 210.520278 114.417963 202.496699 121.907992 192.933446 129.367532 C 190.895793 130.963101 188.18739 131.994632 185.606024 132.340169 Q 168.756 134.601406 150.147801 137.944987 C 149.781938 138.011046 149.482133 138.122837 149.22298 138.397234 C 148.094903 139.576126 145.046044 142.279447 144.893601 143.869935 C 144.573471 147.289738 142.901681 152.604914 138.729826 152.747194 C 136.463508 152.823416 134.949242 151.324394 134.390284 149.18003 C 133.541685 145.938077 134.207353 142.416646 135.076277 139.220426 Q 135.396408 138.041534 136.300902 137.258994 C 136.814127 136.811828 137.10885 136.161405 137.068198 135.47033 Q 136.75315 130.373655 137.042791 127.080888 Q 137.291781 124.235287 140.076405 124.758675 Q 142.733993 125.251573 145.620246 126.37457 Q 147.505457 127.106296 149.599006 126.669293 C 155.61542 125.409098 161.520042 123.3562 167.333199 121.196592 C 170.42779 120.043107 173.781534 119.047147 176.896451 118.518678 Q 180.636384 117.883499 182.226872 117.410926 C 184.188304 116.831643 186.891625 112.675033 188.08068 110.82031 Q 193.741394 102.019273 198.141913 93.680645 C 198.832987 92.374717 199.148036 91.002731 198.919372 89.534198 Q 198.497613 86.785144 198.817743 84.132637 C 199.19885 80.936417 201.317807 77.425148 204.732528 76.723911 Q 205.052658 76.657852 205.062821 76.327559 C 205.139043 74.076486 205.916502 71.993099 207.385035 70.245087 C 207.583211 70.011341 207.68484 69.716618 207.674677 69.406651 Q 207.344384 58.791542 210.113763 48.440668 C 211.978648 41.453701 215.190113 34.888493 220.317276 29.791818 Q 220.678058 29.431036 220.530696 28.943219 C 219.717667 26.244979 219.544899 23.465437 219.616039 20.67065 C 219.778644 14.59834 224.575515 10.411242 230.393753 10.19274 C 232.79727 10.106356 235.459939 10.131763 237.614466 11.336062 C 240.226321 12.789351 240.876744 15.797558 241.506842 18.577101 Q 241.588145 18.922638 241.933682 18.988696 Q 244.515049 19.507002 247.167555 20.162507 C 248.011073 20.370846 249.347489 20.868826 249.286512 21.941008 C 249.215372 23.160551 247.71635 23.97358 246.679738 24.059964 Q 244.067883 24.273384 241.247689 24.308954 C 240.993617 24.314036 240.841174 24.588433 240.96821 24.801853 Q 242.736548 27.784653 242.233486 30.869081 C 241.765995 33.740089 240.04339 35.289926 237.055508 35.218786 Q 236.715053 35.208623 236.699808 35.55416 Q 236.679483 36.235072 237.390883 36.478981 Q 242.355441 38.171097 247.086252 41.067512 C 247.457197 41.291095 248.158434 41.499434 248.590356 41.535004 C 251.298758 41.753506 253.946184 41.463864 256.720645 41.855134 Q 262.005333 42.607186 267.137578 44.64484 C 271.893797 46.53005 276.477247 48.593111 281.624736 48.064642 Q 283.37783 47.886792 285.151249 47.602232 Q 286.507991 47.388812 288.611703 48.521971 Q 288.840368 48.643925 289.099521 48.618518 Q 289.790595 48.537215 290.476588 48.171352 Q 305.172086 40.340868 312.733255 35.73201 Q 320.568821 30.955466 328.409468 26.173839 Q 338.353828 20.106611 349.837861 14.003813 C 351.458837 13.145051 353.359292 13.414367 354.624569 14.8829 Q 356.270952 16.803681 355.991473 19.359641 C 355.823786 20.873907 354.319683 21.996903 353.084895 22.657489 Q 336.011288 31.748169 315.70081 40.391682 Q 304.069415 45.340996 294.760234 50.239495 Q 293.312027 50.996628 291.950203 51.860471 C 291.757109 51.982425 291.665643 52.221253 291.72662 52.439754 Q 292.493916 55.234541 290.151377 57.165485 Q 287.600499 59.274278 284.322976 60.590369 Q 282.671511 61.256036 281.055616 60.23975 C 280.791382 60.077144 280.445844 60.16861 280.298483 60.443007 C 278.987474 62.90242 276.690667 66.479747 273.936532 67.404567 C 271.675295 68.166782 267.091845 68.334469 266.182269 65.351669 Z M 248.6056 57.953106 C 253.996998 57.475452 259.220709 58.298644 265.04911 58.918578 Q 266.167024 59.035451 267.147741 58.761054 Q 269.52585 58.085224 272.168194 58.283399 Q 273.321679 58.364702 274.119463 57.831152 Q 276.817703 56.032326 278.926497 54.162359 C 279.266953 53.862555 279.109428 53.303597 278.667344 53.222294 C 275.587997 52.653174 271.964937 53.013956 268.804287 53.24262 C 263.077515 53.659297 257.640384 53.323923 252.005077 52.226334 C 248.087294 51.464119 244.159348 50.844185 240.333031 50.356368 Q 239.896028 50.305553 239.453944 50.427508 C 239.225279 50.488485 239.164302 50.788289 239.352315 50.935651 Q 243.27518 54.035323 246.623842 57.683791 Q 246.832181 57.912455 247.131985 57.942943 Q 247.853549 58.019165 248.6056 57.953106 Z" style="fill:#000000;"/>
	</g>
	<g id="surface4">
	</g>
</svg>
