<?xml version="1.0" encoding="utf-8"?>
<svg xmlns="http://www.w3.org/2000/svg" width="490pt" height="280pt" viewBox="0 0 490 280" version="1.1" xmlns:xlink="http://www.w3.org/1999/xlink">
	<g id="surface2">
		<path d="M 243.167226 41.622087 Q 243.11802 41.753304 243.088496 41.884521 Q 241.29082 50.05279 240.562565 59.513548 Q 239.568595 72.425318 238.341715 85.50439 Q 237.984148 89.312968 237.705311 93.279007 C 237.679068 93.662817 237.455999 94.003982 237.118114 94.184406 Q 230.809849 97.514041 224.380207 100.873201 C 215.158921 105.692152 206.360809 110.95068 197.769365 117.160532 Q 197.464285 117.380321 197.398676 117.016194 C 197.388835 116.970268 197.398676 116.921061 197.418359 116.878416 Q 208.338908 95.552345 220.361682 73.05188 Q 225.482432 63.463185 228.854713 56.954814 Q 230.777045 53.241368 231.902232 51.138612 Q 237.531449 40.637958 243.013046 30.055293 Q 243.213152 29.668203 243.321406 28.506931 Q 244.325218 17.612625 244.827123 6.695356 Q 244.833684 6.560859 244.968182 6.560859 L 245.050192 6.560859 Q 245.096118 6.560859 245.096118 6.603504 Q 245.322468 10.795893 245.571781 15.099816 C 245.824374 19.397178 246.263951 23.740467 246.578873 27.821321 Q 246.719931 29.622277 247.412102 31.006618 Q 251.939094 40.090126 256.803971 49.173635 C 261.065248 57.125396 265.408537 65.041072 269.617327 73.022356 C 277.398506 87.771166 285.025504 102.352675 292.462237 116.999791 Q 292.573772 117.21958 292.357263 117.285189 C 292.304777 117.301591 292.245729 117.29175 292.199803 117.262226 Q 287.105296 113.762008 281.70899 110.222424 Q 273.845801 105.06559 263.332025 99.787379 C 259.641542 97.933936 256.072435 95.965679 252.398354 94.128638 Q 252.1392 94.000702 252.109676 93.708743 Q 251.683221 89.224397 251.230521 84.644917 C 250.436657 76.607865 249.892106 68.534729 249.295068 60.477995 C 248.825967 54.17629 247.799192 47.907389 246.605116 41.687696 Q 246.437814 40.811821 246.388608 41.704098 Q 246.349242 42.419231 246.349242 43.111402 Q 246.326279 73.849024 246.142575 102.565902 Q 246.122893 105.695432 246.057284 109.1202 Q 245.663633 129.491666 245.919506 149.731915 C 245.922787 149.909058 246.076967 150.046836 246.25411 150.033714 Q 246.897074 149.987788 247.297287 149.551491 Q 248.694749 148.019531 250.006921 146.10376 Q 255.068624 138.732636 260.104083 131.617384 C 260.222178 131.450082 260.268104 131.240135 260.228739 131.033468 Q 259.9335 129.534312 259.461118 128.064679 Q 255.550847 115.940213 251.873485 104.094583 C 251.440469 102.7004 250.882796 101.342302 250.400573 99.967802 Q 250.289038 99.652881 250.580996 99.816903 C 257.883232 103.917439 265.556156 107.250356 272.907598 111.068775 Q 286.819899 118.292281 300.292622 126.027533 Q 300.325426 126.047215 300.309024 126.08002 L 300.309024 126.0833 Q 300.295902 126.106263 300.272939 126.096422 C 297.350077 124.981076 294.427214 123.787 291.592923 122.461706 C 280.016288 117.045717 268.196902 111.537877 256.728521 105.701993 Q 256.354552 105.511728 256.49561 105.90538 L 259.943341 115.53672 C 259.995828 115.681059 260.110643 115.792593 260.258263 115.838519 C 270.827806 119.161594 280.583803 123.144035 290.553027 127.37907 Q 295.31293 129.399814 299.216641 130.331456 Q 302.178869 131.040029 307.732636 131.325426 Q 313.65381 131.623945 320.45414 131.974951 Q 320.513188 131.978232 320.513188 132.037279 L 320.513188 132.04056 Q 320.509908 132.093047 320.457421 132.093047 Q 306.345014 132.437492 292.891973 132.145533 Q 284.064338 131.955269 274.718395 131.833893 C 271.388759 131.791247 268.10505 131.689554 264.74917 131.640347 C 263.860174 131.627226 263.312342 132.112729 262.866204 132.801619 Q 259.54969 137.915809 256.144604 142.954548 C 254.130421 145.936458 252.299941 149.026623 250.236551 152.024935 Q 248.750517 154.190018 246.054004 154.495098 Q 243.088496 154.829702 241.159603 153.461763 Q 240.044257 152.667899 238.285947 149.882815 Q 235.126894 144.873599 231.252707 139.290309 C 229.727307 137.08914 228.349527 134.812523 226.938942 132.516222 C 226.515767 131.827332 226.069629 131.607543 225.226558 131.633787 Q 217.494586 131.896221 209.487058 131.915903 Q 206.282079 131.922464 202.9262 132.014316 Q 185.953259 132.480137 169.068889 132.093047 Q 169 132.089766 169 132.020877 L 169 132.020877 Q 169 131.948708 169.068889 131.945427 Q 175.531335 131.66331 181.819918 131.338548 Q 186.65527 131.089235 190.158769 130.518441 C 194.000152 129.891879 198.03508 128.202457 201.755087 126.562243 C 210.805791 122.573241 219.879458 118.797467 229.438629 115.907408 Q 229.82572 115.792593 229.973339 115.369418 Q 231.616834 110.704648 233.26361 105.948025 Q 233.407949 105.531411 233.004456 105.711834 C 231.12149 106.551624 228.995771 107.735859 227.526139 108.464114 C 216.763051 113.788251 206.003243 119.158314 195.043328 124.101921 Q 192.428826 125.279595 189.55189 126.23748 Q 189.086069 126.394941 189.512524 126.15547 Q 199.688416 120.454083 210.057853 114.77566 Q 219.718717 109.484328 234.109961 102.497013 C 235.697689 101.726113 237.406792 100.732143 239.099494 99.892353 Q 239.437378 99.725051 239.316002 100.082618 Q 238.23018 103.294158 237.226369 106.636915 C 234.900544 114.395131 232.364772 122.087737 229.917572 129.865635 Q 229.717466 130.498758 229.661699 131.272939 C 229.655138 131.364791 229.681381 131.459924 229.733868 131.535374 Q 235.113772 139.293589 240.496957 146.736883 Q 241.349868 147.914557 242.35368 149.147999 Q 242.937596 149.869693 243.833153 150.00091 C 243.918444 150.014032 243.997175 149.945143 243.997175 149.859852 Q 244.161196 128.21886 243.701936 106.663159 Q 243.623206 103.113734 243.606804 100.1023 Q 243.455904 75.377704 243.419819 50.479246 C 243.413258 47.943474 243.295163 44.521986 243.324687 41.651611 Q 243.327967 41.18579 243.167226 41.622087 Z M 251.67994 50.315225 C 251.050098 49.167074 250.489144 47.953316 249.980678 46.713313 Q 249.882265 46.470561 249.915069 46.729715 Q 250.367768 50.108558 250.827028 53.313537 C 251.650416 59.034606 252.240893 64.653981 252.844492 70.263515 C 252.867455 70.457061 253.008514 70.611241 253.195498 70.653886 L 264.047159 73.028917 C 264.089804 73.038758 264.125889 72.992832 264.102926 72.953467 Q 257.94884 61.711436 251.67994 50.315225 Z M 239.644045 47.667918 Q 239.709654 47.182415 239.476743 47.615431 L 225.744866 73.045319 Q 225.607088 73.301193 225.882644 73.222462 Q 231.377363 71.647856 236.468589 70.466902 C 236.671976 70.420976 236.822876 70.253674 236.845839 70.047007 Q 238.076 59.470903 239.644045 47.667918 Z M 224.239149 75.964901 C 224.212906 75.971462 224.189943 75.987864 224.176821 76.014108 L 220.663481 82.673379 C 220.620835 82.75211 220.693005 82.843962 220.778296 82.820999 L 236.01589 78.592525 C 236.055255 78.579403 236.084779 78.546599 236.08806 78.503954 L 236.740865 72.779604 C 236.747426 72.707435 236.681817 72.651668 236.612928 72.67135 L 224.239149 75.964901 Z M 268.87595 82.67994 C 269.046533 82.725866 269.190872 82.545442 269.108861 82.387982 L 265.73658 76.056753 C 265.710336 76.007547 265.66113 75.971462 265.608643 75.95506 L 253.159414 72.720557 C 253.018355 72.684472 252.887138 72.799287 252.906821 72.943626 L 253.612113 78.451467 C 253.621954 78.533477 253.681002 78.599086 253.759732 78.622049 L 268.87595 82.67994 Z M 219.216812 85.576559 C 219.180727 85.5864 219.151203 85.612644 219.134801 85.642168 L 215.437757 92.649165 C 215.38199 92.754138 215.483683 92.875514 215.598498 92.83943 L 235.080968 86.747672 C 235.130174 86.73127 235.166259 86.688625 235.17282 86.636138 L 235.907636 80.8429 C 235.920758 80.747767 235.828906 80.669037 235.737054 80.698561 L 219.216812 85.576559 Z M 274.268976 92.711493 C 274.367389 92.741017 274.45268 92.636043 274.403474 92.547471 L 270.522726 85.474866 C 270.509604 85.448622 270.483361 85.42894 270.453837 85.419099 L 253.858145 80.669037 C 253.779415 80.646074 253.700685 80.711682 253.713806 80.796974 L 254.563437 86.672223 C 254.569998 86.714868 254.599522 86.754233 254.642168 86.764075 L 274.268976 92.711493 Z M 279.704648 102.798813 Q 279.786658 102.8513 279.881791 102.818496 C 279.95068 102.792252 279.980204 102.710241 279.944119 102.644633 Q 278.04475 99.495421 276.329086 96.290441 C 276.184747 96.018166 275.925593 95.775414 275.636915 95.67044 Q 265.684093 92.163661 255.035819 88.860269 Q 254.822591 88.79466 254.855396 89.017729 L 255.688625 94.640385 C 255.744392 95.007793 256.000265 95.316154 256.354552 95.434249 Q 265.766103 98.616266 275.463053 101.604737 Q 277.549406 102.247701 279.57343 102.739765 Q 279.6456 102.756167 279.704648 102.798813 Z M 231.154294 96.083774 Q 232.223714 95.713086 233.362023 95.276789 C 233.624457 95.175095 233.814722 94.942185 233.860648 94.663348 L 234.766047 89.060375 C 234.779168 88.978364 234.700438 88.909475 234.618427 88.935719 C 231.518422 89.978895 228.313442 90.890855 225.226558 91.976677 Q 220.082845 93.784193 214.732465 95.545784 C 214.138707 95.74261 213.827066 96.106737 213.531828 96.634886 Q 211.799761 99.734892 210.162827 102.736485 C 210.126742 102.805374 210.18907 102.884104 210.26452 102.864422 Q 212.363995 102.375638 214.627491 101.640821 Q 222.772797 98.996795 231.154294 96.083774 Z M 224.878833 129.786905 L 229.044978 118.403815 Q 229.179476 118.039688 228.798946 118.154503 Q 220.843905 120.555777 213.544949 123.363824 Q 204.756679 126.745947 195.74534 130.016535 C 194.659518 130.410186 193.576976 130.689023 192.481313 131.030188 Q 192.471472 131.033468 192.464911 131.04659 Q 192.448509 131.085955 192.445228 131.12532 Q 192.438667 131.20405 192.517398 131.20077 Q 201.63043 131.177807 215.316381 130.547964 Q 219.948347 130.334737 224.157138 130.295371 Q 224.695129 130.292091 224.878833 129.786905 Z M 297.199177 131.289341 Q 297.566585 131.299183 297.658437 131.286061 Q 298.206269 131.194209 297.67812 131.017066 C 285.196086 126.811555 273.212678 121.831864 261.009481 118.13154 C 260.878264 118.092174 260.760168 118.220111 260.809375 118.348048 Q 262.472552 122.733982 264.030756 127.129757 Q 264.549064 128.582987 265.178907 130.023096 C 265.228113 130.137911 265.339648 130.213361 265.464304 130.216641 Q 277.024537 130.66934 288.630696 131.036748 Q 292.737793 131.164685 297.199177 131.289341 Z" style="fill:#1f3851;"/>
	</g>
	<g id="surface4">
	</g>
</svg>
