<?xml version="1.0" encoding="utf-8"?>
<svg xmlns="http://www.w3.org/2000/svg" width="490pt" height="280pt" viewBox="0 0 490 280" version="1.1" xmlns:xlink="http://www.w3.org/1999/xlink">
	<g id="surface2">
		<path vector-effect="non-scaling-stroke" d="M 294.544715 9.077844 Q 293.541763 9.16284 292.569977 9.041012 Q 290.734066 8.811523 290.702901 8.80869 Q 288.912321 8.655698 287.141573 8.33838 C 286.99708 8.312881 286.86392 8.423375 286.86392 8.570702 L 286.86392 19.045028 C 286.86392 19.130024 286.790257 19.195187 286.705261 19.186688 L 278.420995 18.254566 C 278.299168 18.2404 278.208506 18.141238 278.208506 18.019411 L 278.208506 7.819905 C 278.208506 7.516753 277.939352 7.281597 277.639033 7.326929 Q 277.00723 7.417591 276.423592 7.284431 Q 275.667129 7.114439 275.267648 7.09744 Q 274.570682 7.071941 274.281696 6.967113 Q 273.84255 6.811287 273.307076 6.836786 C 272.454284 6.879284 271.553328 6.561966 270.734534 6.553466 Q 269.887409 6.544966 269.368934 6.423139 Q 268.938288 6.321144 268.011833 6.244648 Q 267.671849 6.219149 266.646232 6.009492 Q 265.572451 5.791336 264.439172 6.168151" style="fill:none;stroke-width:0.50;stroke:#f27a22;"/>
		<path vector-effect="non-scaling-stroke" d="M 264.439172 6.168151 Q 262.271777 6.119987 260.056218 6.142653 Q 259.65957 6.145486 259.271423 5.91033 Q 259.152428 5.839501 259.016435 5.833834 L 257.633835 5.768671" style="fill:none;stroke-width:0.50;stroke:#fbab0a;"/>
		<path vector-effect="non-scaling-stroke" d="M 300.885407 40.673647 Q 290.456413 40.795475 280.030251 40.75581 Q 276.007112 40.741644 273.437403 43.77883 Q 272.782935 44.555126 272.890596 45.637407" style="fill:none;stroke-width:0.50;stroke:#f27a22;"/>
		<path vector-effect="non-scaling-stroke" d="M 272.890596 45.637407 Q 272.567612 69.813069 272.737604 93.923569 C 272.740437 94.051062 272.799934 94.170057 272.901929 94.246553 L 276.539753 96.949422" style="fill:none;stroke-width:0.50;stroke:#f26925;"/>
		<path vector-effect="non-scaling-stroke" d="M 276.539753 96.949422 Q 276.967566 97.212909 277.409544 97.530227 Q 284.736189 102.751808 292.484981 107.327419 Q 293.116784 107.698568 293.748586 107.976221" style="fill:none;stroke-width:0.50;stroke:#f27a22;"/>
		<path vector-effect="non-scaling-stroke" d="M 293.748586 107.976221 Q 295.510834 108.911176 297.258916 109.823465 Q 297.970049 110.197447 298.723679 110.254111 Q 300.029782 110.356106 301.327386 110.35044" style="fill:none;stroke-width:0.50;stroke:#f26925;"/>
		<path vector-effect="non-scaling-stroke" d="M 301.327386 110.35044 Q 297.352412 110.319275 295.686493 110.662091 Q 292.666305 111.288228 290.345918 112.393174 Q 284.132719 115.353864 281.061534 121.77672" style="fill:none;stroke-width:0.50;stroke:#873256;"/>
		<path vector-effect="non-scaling-stroke" d="M 281.061534 121.77672 Q 281.072867 121.365906 280.803713 121.286577 Q 280.540226 121.210081 280.523227 121.201581 Q 276.562419 119.201344 272.791435 116.861124" style="fill:none;stroke-width:0.50;stroke:#ec3d36;"/>
		<path vector-effect="non-scaling-stroke" d="M 272.791435 116.861124 L 264.662995 111.914364" style="fill:none;stroke-width:0.50;stroke:#f04f2f;"/>
		<path vector-effect="non-scaling-stroke" d="M 264.662995 111.914364 Q 258.832277 107.87706 254.639147 104.587719 Q 246.896022 98.513346 239.416384 90.906215" style="fill:none;stroke-width:0.50;stroke:#f26925;"/>
		<path vector-effect="non-scaling-stroke" d="M 239.416384 90.906215 C 243.232699 90.271579 246.581537 90.297077 250.477182 90.486902 Q 252.066605 90.563398 253.304712 90.339575 Q 258.645286 89.376289 263.52405 86.698918" style="fill:none;stroke-width:0.50;stroke:#ec3d36;"/>
		<path vector-effect="non-scaling-stroke" d="M 264.439172 6.168151 Q 264.583665 6.768789 264.583665 7.020943 Q 264.611997 21.866891 264.648829 85.537308 Q 264.648829 86.585591 264.708326 87.597042 C 264.711159 87.676371 264.617664 87.718869 264.561 87.665038 L 263.52405 86.698918" style="fill:none;stroke-width:0.50;stroke:#f26925;"/>
		<path vector-effect="non-scaling-stroke" d="M 263.52405 86.698918 Q 253.905349 77.967008 244.73146 68.960277" style="fill:none;stroke-width:0.50;stroke:#f66e1f;"/>
		<path vector-effect="non-scaling-stroke" d="M 244.73146 68.960277 Q 237.645636 62.526089 231.880082 55.315605" style="fill:none;stroke-width:0.50;stroke:#fa8017;"/>
		<path vector-effect="non-scaling-stroke" d="M 231.880082 55.315605 Q 232.033075 49.671878 231.973578 44.277473 C 231.848917 32.913523 231.919747 21.541074 231.885749 10.177124 C 231.882916 9.448992 231.987744 8.151389 231.86025 7.120105 Q 231.826252 6.845285 231.664759 6.700792 Q 231.466436 6.527967 231.217114 6.491136" style="fill:none;stroke-width:0.50;stroke:#fbab0a;"/>
		<path vector-effect="non-scaling-stroke" d="M 264.662995 111.914364 L 264.603498 116.373815" style="fill:none;stroke-width:0.50;stroke:#fa8017;"/>
		<path vector-effect="non-scaling-stroke" d="M 309.917637 113.030643 L 310.931921 113.71911" style="fill:none;stroke-width:0.50;stroke:#8f4849;"/>
		<path vector-effect="non-scaling-stroke" d="M 280.676219 121.793719 L 281.061534 121.77672" style="fill:none;stroke-width:0.50;stroke:#8b3750;"/>
		<path stroke-opacity="0.988" vector-effect="non-scaling-stroke" d="M 326.695824 115.385029 Q 328.242749 117.172776 330.248652 118.121897" style="fill:none;stroke-width:0.50;stroke:#fccb84;"/>
		<path vector-effect="non-scaling-stroke" d="M 334.580609 121.725722 L 330.478141 121.756887" style="fill:none;stroke-width:0.50;stroke:#82502e;"/>
		<path vector-effect="non-scaling-stroke" d="M 330.478141 121.756887 Q 329.520521 121.340408 328.738559 121.017423 C 326.528666 120.105134 324.415101 118.935024 322.270372 117.886741 C 320.119976 116.835626 316.340492 114.843889 313.017153 113.359294 Q 312.861328 113.291297 312.314521 113.104306 Q 312.18136 113.058975 312.042534 113.09014 Q 310.980085 113.325296 309.917637 113.030643" style="fill:none;stroke-width:0.50;stroke:#fa8017;"/>
		<path vector-effect="non-scaling-stroke" d="M 309.917637 113.030643 Q 306.007826 110.630926 301.327386 110.35044" style="fill:none;stroke-width:0.50;stroke:#90633f;"/>
		<path vector-effect="non-scaling-stroke" d="M 239.416384 90.906215 C 235.57457 86.945406 231.806419 82.803274 228.531244 78.352323" style="fill:none;stroke-width:0.50;stroke:#f66e1f;"/>
		<path vector-effect="non-scaling-stroke" d="M 333.849645 51.847773 Q 333.220675 51.377462 332.832527 50.589834 C 332.775863 50.476506 332.662535 50.405676 332.537875 50.402843 L 326.843151 50.368844" style="fill:none;stroke-width:0.50;stroke:#819261;"/>
		<path vector-effect="non-scaling-stroke" d="M 326.843151 50.368844 L 315.768187 50.283848" style="fill:none;stroke-width:0.50;stroke:#a7ba78;"/>
		<path vector-effect="non-scaling-stroke" d="M 315.768187 50.283848 Q 312.425015 50.224351 308.999681 50.275349 C 308.370712 50.286682 306.495136 50.581334 306.62263 51.516289 Q 306.741624 52.380414 307.223267 53.298369 Q 308.316881 55.377935 308.46704 55.655588 Q 310.455944 59.284913 312.456181 62.905737 C 312.821663 63.568705 313.09365 64.296836 313.328805 64.871975 Q 313.391135 65.027801 313.524295 64.928639 Q 314.456417 64.234506 315.802185 64.169343 Q 318.595717 64.036182 322.174043 64.101346 C 322.295871 64.104179 322.395033 64.203341 322.395033 64.325168 L 322.431864 77.525029" style="fill:none;stroke-width:0.50;stroke:#819261;"/>
		<path vector-effect="non-scaling-stroke" d="M 322.431864 77.525029 Q 322.270372 78.618643 322.681185 79.179616" style="fill:none;stroke-width:0.50;stroke:#90743c;"/>
		<path vector-effect="non-scaling-stroke" d="M 322.681185 79.179616 Q 324.803249 82.854271 329.038878 83.667398" style="fill:none;stroke-width:0.50;stroke:#818759;"/>
		<path vector-effect="non-scaling-stroke" d="M 329.038878 83.667398 L 341.972418 83.735395" style="fill:none;stroke-width:0.50;stroke:#90743c;"/>
		<path vector-effect="non-scaling-stroke" d="M 341.972418 83.735395 L 352.140759 83.851556" style="fill:none;stroke-width:0.50;stroke:#a7ba78;"/>
		<path vector-effect="non-scaling-stroke" d="M 352.140759 83.851556 Q 353.750014 84.285035 355.427266 84.375698 C 356.838198 84.449361 357.69949 85.55714 358.620278 86.769748 Q 359.359743 87.741535 360.538352 88.945643 Q 360.614848 89.024972 360.623348 88.914478 Q 360.912334 85.350317 361.240985 83.188588 Q 361.351479 82.468957 361.348646 81.737992 Q 361.314648 74.918489 361.238152 68.093319" style="fill:none;stroke-width:0.50;stroke:#fbab0a;"/>
		<path vector-effect="non-scaling-stroke" d="M 361.238152 68.093319 L 364.501994 68.067821 C 364.84481 68.064987 365.122464 68.35114 365.113964 68.693957 Q 365.037468 71.716977 365.017635 71.974798 C 364.941139 72.972083 365.153629 74.306518 365.014802 75.374633 Q 365.011969 75.385966 364.892975 77.355038 C 364.810812 78.666807 364.938306 79.896414 364.969471 81.349844 C 365.006303 82.981765 363.836193 82.806107 362.906904 83.440743" style="fill:none;stroke-width:0.50;stroke:#f8a017;"/>
		<path vector-effect="non-scaling-stroke" d="M 369.913398 121.722889 L 334.580609 121.725722" style="fill:none;stroke-width:0.50;stroke:#82612b;"/>
		<path vector-effect="non-scaling-stroke" d="M 334.580609 121.725722 L 330.602802 121.527399 C 330.43281 121.518899 330.29965 121.380072 330.296817 121.212914 L 330.248652 118.121897" style="fill:none;stroke-width:0.50;stroke:#fbab0a;"/>
		<path stroke-opacity="0.988" vector-effect="non-scaling-stroke" d="M 330.248652 118.121897 Q 332.09023 119.085183 333.716484 119.093683 Q 337.640461 119.113515 341.793927 119.119182 Q 342.456894 119.119182 343.335185 118.988855 C 343.496677 118.963356 343.615672 118.827363 343.621338 118.663037 Q 343.703501 115.535189 342.510725 112.693493 C 341.978084 111.429887 341.975251 111.084238 340.609651 111.038906 Q 336.719672 110.911413 332.16106 111.044573 Q 331.311101 111.070072 330.529139 111.421388 Q 327.761106 112.659495 326.695824 115.385029" style="fill:none;stroke-width:0.50;stroke:#fcdd81;"/>
		<path vector-effect="non-scaling-stroke" d="M 326.695824 115.385029 Q 322.117379 113.129805 317.218783 111.007741 Q 314.156098 109.681805 310.424779 108.514529 Q 305.682009 107.029934 300.871242 107.253756 Q 299.026831 107.338752 293.748586 107.976221" style="fill:none;stroke-width:0.50;stroke:#fbab0a;"/>
		<path vector-effect="non-scaling-stroke" d="M 276.539753 96.949422 Q 276.916568 96.150461 276.885403 95.620653 Q 276.735244 93.203937 276.800407 86.843411 Q 276.845738 82.443458 276.647415 68.818618 C 276.545419 61.857455 276.772075 54.961455 276.551086 49.377226 C 276.542586 49.229899 276.46609 49.096739 276.341429 49.01741 C 274.924831 48.133453 273.749055 47.187165 272.890596 45.637407" style="fill:none;stroke-width:0.50;stroke:#fbab0a;"/>
		<path vector-effect="non-scaling-stroke" d="M 272.791435 116.861124 L 272.703605 119.535662 C 272.700772 119.623491 272.607277 119.682988 272.527947 119.643323 L 265.082308 116.115994 Q 264.949148 116.053664 264.920816 116.198157 L 264.674328 117.532592" style="fill:none;stroke-width:0.50;stroke:#f45429;"/>
		<path vector-effect="non-scaling-stroke" d="M 231.880082 55.315605 Q 226.366683 48.442271 223.867804 44.906442 Q 221.011942 40.869138 218.130581 36.851665 C 217.54411 36.032872 216.838644 35.245243 216.345668 34.721102 C 215.011233 33.301671 213.359479 33.669986 211.784222 34.398118 C 209.948311 35.248076 209.466668 36.976326 209.749987 38.868901 C 211.152419 48.323277 214.892238 57.378172 220.014657 65.696435 Q 220.065654 65.778598 223.587317 71.413825 Q 224.003797 72.079626 224.383445 72.688763" style="fill:none;stroke-width:0.50;stroke:#fa9114;"/>
		<path vector-effect="non-scaling-stroke" d="M 224.383445 72.688763 Q 224.975583 73.782377 225.652717 74.805161 Q 226.372349 75.893108 226.885158 76.95839 Q 228.103432 79.496934 229.831682 81.814488 Q 231.57693 84.149042 231.678925 84.293535 Q 235.364914 89.458451 239.286057 94.204055 Q 241.076637 96.368617 243.048542 98.442516 Q 247.499493 103.128623 250.460183 105.79466 Q 256.659216 111.37889 264.603498 116.373815" style="fill:none;stroke-width:0.50;stroke:#fbab0a;"/>
		<path vector-effect="non-scaling-stroke" d="M 264.603498 116.373815 L 264.674328 117.532592" style="fill:none;stroke-width:0.50;stroke:#fa9114;"/>
		<path vector-effect="non-scaling-stroke" d="M 264.674328 117.532592 L 264.617664 121.14775 Q 264.611997 121.606728 264.15302 121.56423 Q 263.781871 121.530232 263.1784 121.771053" style="fill:none;stroke-width:0.50;stroke:#f67f1c;"/>
		<path vector-effect="non-scaling-stroke" d="M 263.1784 121.771053 L 251.412137 121.762554" style="fill:none;stroke-width:0.50;stroke:#82612b;"/>
		<path vector-effect="non-scaling-stroke" d="M 251.412137 121.762554 Q 250.808666 121.586896 250.264692 121.326242 C 249.202244 120.819099 248.091631 120.615109 246.995184 120.18163 Q 205.899674 103.936084 159.591083 86.078448 Q 157.862833 85.412647 133.848663 76.128264 Q 133.732502 76.082932 133.670171 76.190594 Q 133.647506 76.230259 133.639006 76.281256" style="fill:none;stroke-width:0.50;stroke:#f27a22;"/>
		<path vector-effect="non-scaling-stroke" d="M 244.73146 68.960277 Q 243.677511 69.589247 243.045708 69.708241 C 236.707849 70.901017 229.783517 70.286213 223.714811 68.28031 Q 223.573151 68.232146 223.490989 68.35964 Q 222.757191 69.490085 223.624149 70.680027 Q 226.301519 74.360349 228.531244 78.352323" style="fill:none;stroke-width:0.50;stroke:#f45429;"/>
		<path vector-effect="non-scaling-stroke" d="M 228.531244 78.352323 L 224.383445 72.688763" style="fill:none;stroke-width:0.50;stroke:#fa8017;"/>
		<path vector-effect="non-scaling-stroke" d="M 263.1784 121.771053 L 280.676219 121.793719" style="fill:none;stroke-width:0.50;stroke:#7d243f;"/>
		<path vector-effect="non-scaling-stroke" d="M 280.676219 121.793719 Q 281.152196 121.782386 280.919874 122.283862 C 280.069915 124.11694 279.557107 126.539322 279.472111 128.213741 Q 279.245455 132.625028 279.228456 133.874467 Q 279.211457 135.319397 280.500561 135.996531 Q 280.673386 136.087193 280.585557 135.9427 Q 280.540226 135.869037 280.619556 135.829373 C 280.670553 135.801041 280.698885 135.74721 280.693219 135.687713 Q 280.500561 134.061458 280.727217 132.474868 Q 281.744334 125.369212 286.203785 120.136299 C 289.677284 116.05933 294.805369 113.741776 300.267771 113.85227 Q 301.44638 113.877769 301.905358 113.849437 C 304.401404 113.707777 306.96828 113.908934 309.469992 113.965598 Q 309.792976 113.971264 310.931921 113.71911" style="fill:none;stroke-width:0.50;stroke:#17195f;"/>
		<path vector-effect="non-scaling-stroke" d="M 310.931921 113.71911 C 313.773617 115.628684 316.501985 118.354219 317.813754 121.558564 C 317.876085 121.711556 318.026244 121.810718 318.19057 121.810718 L 330.478141 121.756887" style="fill:none;stroke-width:0.50;stroke:#813638;"/>
		<path vector-effect="non-scaling-stroke" d="M 311.181242 152.055087 Q 310.869591 151.904928 310.849758 151.885095 Q 310.566439 151.613108 310.869591 151.341121 C 312.266356 150.097348 313.770784 148.711915 314.717071 147.349148 Q 316.623812 144.592448 317.649429 141.628925 C 318.227401 139.951673 318.564551 137.631285 318.04041 135.886037 Q 317.558767 134.285281 317.507769 134.055792 C 316.853301 131.06677 315.890014 128.508394 314.082435 126.077512 Q 312.790498 124.340762 310.447444 122.723007 Q 306.265647 119.83598 301.10923 119.759484 Q 297.978548 119.71132 295.519334 120.515947 Q 290.000268 122.320693 286.654263 127.329784 Q 284.58603 130.426468 284.155384 134.265448 Q 284.030724 135.359062 283.880564 136.432843" style="fill:none;stroke-width:0.50;stroke:#17195f;"/>
		<path vector-effect="non-scaling-stroke" d="M 183.528757 141.688422 Q 184.001901 139.586191 184.109562 138.268754 Q 184.118062 138.166759 184.106729 137.027815 Q 184.101063 136.43001 183.80641 135.860538 Q 183.282269 134.85192 182.800626 133.149169 Q 182.163156 130.902445 181.930834 130.355638 Q 179.015476 123.530468 172.303634 120.955093 C 166.861064 118.867027 160.914185 119.589492 156.14875 122.966662 Q 149.405743 127.743431 149.357578 136.214687" style="fill:none;stroke-width:0.50;stroke:#17195f;"/>
		<path vector-effect="non-scaling-stroke" d="M 144.949125 124.615582 L 144.311656 124.717577 Q 143.923508 124.777074 144.317322 124.777074 L 145.665924 124.777074 C 145.80475 124.777074 145.906745 124.907401 145.87558 125.040562 Q 145.626259 126.114343 145.558262 126.740479 Q 145.167281 130.378303 145.337273 135.021912 Q 145.359939 135.622549 145.827416 135.245734 L 145.915245 135.177738 C 146.207064 134.939749 146.399722 134.602599 146.453552 134.228617 Q 146.906864 130.99594 147.105187 129.738001 C 147.527334 127.029465 149.000596 123.139487 150.966834 120.697272 C 155.638774 114.886387 162.733097 112.95698 169.949248 114.118591 C 172.425461 114.515238 175.049001 116.266153 177.043571 117.759248 Q 177.142733 117.832911 177.080403 117.728082 Q 176.434434 116.654301 175.465481 115.869506 C 173.910056 114.608734 172.606786 113.322462 170.700045 112.509335 C 169.35711 111.934196 168.512817 111.322226 167.337041 110.761253 Q 166.759069 110.486433 165.931776 110.486433 Q 164.353686 110.480767 162.82376 110.458101" style="fill:none;stroke-width:0.50;stroke:#17195f;"/>
		<path vector-effect="non-scaling-stroke" d="M 341.476609 83.049762 C 340.541654 82.432125 339.734193 81.678495 338.819071 81.021193 C 338.442256 80.749206 337.818952 80.729374 337.198482 80.559382 Q 336.617677 80.403557 336.246528 80.378058 Q 333.46433 80.179734 331.770079 82.049644 Q 331.333766 82.531287 331.517924 81.910817 C 332.101563 79.953078 333.297171 76.740234 331.908905 75.405799 Q 331.373431 74.895823 330.189155 74.235689 Q 329.019045 73.584053 327.630779 74.13936 Q 324.783417 75.278305 322.431864 77.525029" style="fill:none;stroke-width:0.50;stroke:#164996;"/>
		<path vector-effect="non-scaling-stroke" d="M 330.452642 76.034768 L 329.424192 75.728783 C 329.251367 75.677785 329.061543 75.740116 328.953882 75.887442 C 327.650611 77.646857 327.236965 79.154117 326.038523 81.888151 C 326.013024 81.941982 326.03569 82.007146 326.08952 82.038311 Q 327.60528 82.882603 329.319364 83.299083" style="fill:none;stroke-width:0.50;stroke:#075cb3;"/>
		<path vector-effect="non-scaling-stroke" d="M 356.342389 83.644733 L 352.718731 83.701397" style="fill:none;stroke-width:0.50;stroke:#818164;"/>
		<path vector-effect="non-scaling-stroke" d="M 326.843151 50.368844 Q 326.854483 50.680496 327.194467 51.00348 Q 327.625113 51.414294 327.74694 51.572953 Q 333.033684 58.332959 338.297763 65.107131 Q 349.282064 79.241946 352.463743 83.480408 Q 352.543073 83.585236 352.718731 83.701397" style="fill:none;stroke-width:0.50;stroke:#2d8fd2;"/>
		<path vector-effect="non-scaling-stroke" d="M 352.718731 83.701397 L 352.140759 83.851556" style="fill:none;stroke-width:0.50;stroke:#a7a97b;"/>
		<path vector-effect="non-scaling-stroke" d="M 341.972418 83.735395 Q 341.958252 83.446409 341.476609 83.049762" style="fill:none;stroke-width:0.50;stroke:#3c71ac;"/>
		<path vector-effect="non-scaling-stroke" d="M 341.476609 83.049762 Q 341.425611 82.61345 341.213121 82.39246 Q 340.895803 82.066643 340.691813 81.729492 Q 340.334831 81.137354 340.230002 81.009861 Q 337.756622 77.947175 335.52123 74.983652 Q 333.427498 72.212787 332.059065 70.501536 Q 323.990122 60.423857 315.768187 50.283848" style="fill:none;stroke-width:0.50;stroke:#2d8fd2;"/>
		<path vector-effect="non-scaling-stroke" d="M 329.038878 83.667398 L 329.319364 83.299083" style="fill:none;stroke-width:0.50;stroke:#163e8e;"/>
		<path vector-effect="non-scaling-stroke" d="M 329.319364 83.299083 C 329.489356 83.270751 329.642348 83.194255 329.727344 83.029929 Q 331.155275 80.346893 331.410263 77.496697 Q 331.506591 76.422916 330.452642 76.034768" style="fill:none;stroke-width:0.50;stroke:#164996;"/>
		<path vector-effect="non-scaling-stroke" d="M 330.452642 76.034768 Q 327.970763 74.363182 325.738204 76.383251 Q 324.213944 77.757351 322.681185 79.179616" style="fill:none;stroke-width:0.50;stroke:#163e8e;"/>
		<path vector-effect="non-scaling-stroke" d="M 361.238152 68.093319 Q 359.983046 68.081987 358.662776 68.518299" style="fill:none;stroke-width:0.50;stroke:#f88f1a;"/>
		<path vector-effect="non-scaling-stroke" d="M 251.412137 121.762554 Q 241.940762 121.890048 232.489219 121.657726 C 230.667474 121.612394 228.746567 121.711556 226.882324 121.637893 Q 224.584602 121.550064 222.683528 121.558564 Q 209.322175 121.603895 197.873229 121.742721 C 193.031297 121.802219 188.107202 121.725722 182.834624 121.802219 C 182.627801 121.805052 182.44081 121.686057 182.358647 121.496233 C 181.010046 118.46188 179.40079 116.198157 176.64409 114.231918 Q 170.544219 109.877296 162.82376 110.458101" style="fill:none;stroke-width:0.50;stroke:#791f45;"/>
		<path vector-effect="non-scaling-stroke" d="M 162.82376 110.458101 Q 158.993278 110.789585 155.746436 112.364842 Q 149.657897 115.322699 146.878532 121.541564" style="fill:none;stroke-width:0.50;stroke:#873256;"/>
		<path vector-effect="non-scaling-stroke" d="M 133.667338 120.360122 Q 133.675838 120.232628 133.639006 120.124966" style="fill:none;stroke-width:0.50;stroke:#791f45;"/>
		<path vector-effect="non-scaling-stroke" d="M 145.393937 124.655247 L 145.654591 124.641081" style="fill:none;stroke-width:0.50;stroke:#17195f;"/>
		<path vector-effect="non-scaling-stroke" d="M 309.4031 41.509298 C 309.365164 40.650982 308.520871 39.990847 307.515228 40.034818 C 306.509302 40.078676 305.724506 40.809641 305.763066 41.668241 C 305.801003 42.526557 306.645295 43.186692 307.650938 43.142721 C 308.656864 43.098863 309.44166 42.367898 309.4031 41.509298" style="fill:none;stroke-width:0.50;stroke:#f27a22;"/>
		<path vector-effect="non-scaling-stroke" d="M 317.162006 41.589336 C 317.15362 40.704812 316.32066 39.996513 315.306602 40.007931 C 314.292092 40.019179 313.476131 40.744477 313.484744 41.627868 C 313.49313 42.512391 314.32609 43.22069 315.340148 43.209273 C 316.354658 43.198025 317.170619 42.472727 317.162006 41.589336" style="fill:none;stroke-width:0.50;stroke:#f27a22;"/>
		<path vector-effect="non-scaling-stroke" d="M 324.771546 41.601122 C 324.749419 40.724645 323.922125 40.036178 322.92008 40.059325 C 321.919056 40.084342 321.125761 40.812474 321.146131 41.689745 C 321.168259 42.566222 321.995552 43.254689 322.997597 43.231542 C 323.998622 43.206524 324.791917 42.478393 324.771546 41.601122" style="fill:none;stroke-width:0.50;stroke:#f27a22;"/>
		<path vector-effect="non-scaling-stroke" d="M 283.571746 50.079858 Q 281.330688 51.720279 281.333521 54.094497 Q 281.353353 65.721934 281.367519 77.355038 Q 281.367519 79.700924 282.860614 81.250682" style="fill:none;stroke-width:0.50;stroke:#819261;"/>
		<path vector-effect="non-scaling-stroke" d="M 282.860614 81.250682 Q 283.860732 82.355629 285.554983 82.398127 C 290.464912 82.522787 295.193516 82.451957 300.287603 82.474623 C 304.497733 82.494455 308.53787 82.352795 313.16448 82.454791" style="fill:none;stroke-width:0.50;stroke:#818759;"/>
		<path vector-effect="non-scaling-stroke" d="M 313.16448 82.454791 Q 313.544128 83.452076 314.759569 83.738228 C 315.062721 83.809058 315.241212 84.12071 315.15055 84.418195 Q 314.190097 87.517712 313.895444 90.603063 C 313.872779 90.852384 314.045604 91.076206 314.292092 91.118704 C 315.210047 91.27453 316.938297 91.566349 317.150787 90.248913 Q 317.76559 86.466596 318.108407 84.109377 C 318.128239 83.97055 318.241567 83.860056 318.383227 83.84589 C 319.542004 83.726896 321.281586 83.392578 321.848226 82.262133 C 322.25054 81.466005 322.528193 79.950245 322.16271 79.097453 Q 321.890724 78.47415 321.95872 77.938676 Q 322.023884 77.448533 321.876558 75.326469 C 321.870891 75.258472 321.817061 75.207475 321.751897 75.207475 L 318.901702 75.207475 C 318.717544 75.207475 318.561718 75.346301 318.541886 75.530459 L 318.046077 79.933246 Q 318.034744 80.040907 317.986579 79.944579 Q 317.83642 79.641427 317.853419 79.273111 C 318.071575 74.323518 317.833587 69.362591 317.759924 64.696317 C 317.75709 64.63682 317.711759 64.591489 317.652262 64.591489 Q 315.450869 64.56599 313.646123 65.449947 Q 313.518629 65.512278 313.50163 65.653937 C 313.311806 67.297191 312.983155 68.999942 313.059651 70.830187 Q 313.065318 70.960514 312.977489 70.864185 Q 312.866994 70.742358 312.759333 70.697027" style="fill:none;stroke-width:0.50;stroke:#fbab0a;"/>
		<path vector-effect="non-scaling-stroke" d="M 312.759333 70.697027 Q 309.77881 66.095916 306.636796 61.579801 Q 303.219961 56.664206 300.043948 51.587119 Q 298.987166 49.892867 297.088925 49.824871 Q 290.887058 49.601048 283.571746 50.079858" style="fill:none;stroke-width:0.50;stroke:#818759;"/>
		<path vector-effect="non-scaling-stroke" d="M 312.759333 70.697027 Q 313.104982 71.541319 313.107816 72.042795 Q 313.119148 75.24714 313.14748 78.451484 Q 313.167313 80.440388 313.16448 82.454791" style="fill:none;stroke-width:0.50;stroke:#81765c;"/>
		<path vector-effect="non-scaling-stroke" d="M 282.860614 81.250682 Q 284.563365 82.120473 286.237783 82.194137 Q 288.934986 82.307464 292.198828 82.341463 C 292.215827 82.341463 292.232826 82.33013 292.23566 82.315964 Q 292.759801 80.630212 292.745635 78.717805 Q 292.623808 63.169224 292.700304 53.187874 Q 292.703137 52.79406 292.623808 51.895937 Q 292.612475 51.748611 292.482148 51.680614 Q 290.870059 50.816489 289.223972 50.779658 Q 286.147121 50.711661 283.571746 50.079858" style="fill:none;stroke-width:0.50;stroke:#075cb3;"/>
		<path vector-effect="non-scaling-stroke" d="M 295.485194 92.247591 C 295.485336 91.555017 294.92153 90.994044 294.227878 90.994667 L 281.960167 91.016086 C 281.268357 91.016709 280.707385 91.580515 280.707243 92.273373 L 280.707526 92.437699 C 280.707385 93.130274 281.271191 93.691246 281.964842 93.690623 L 294.232553 93.669204 C 294.924363 93.668581 295.485336 93.104775 295.485477 92.411917 L 295.485194 92.247591" style="fill:none;stroke-width:0.50;stroke:#82612b;"/>
		<path vector-effect="non-scaling-stroke" d="M 348.33861 99.33214 C 347.451819 99.346306 343.958488 99.708955 345.001105 101.423039 C 345.50258 102.244666 346.593361 103.899252 347.675642 103.845421 Q 353.665018 103.545103 360.920834 103.479939 Q 362.014447 103.47144 362.343098 102.777306 C 362.804909 101.797021 361.467641 100.408754 360.776341 99.876114 Q 359.801721 99.12815 358.72794 99.150815 Q 351.996266 99.281142 348.33861 99.33214" style="fill:none;stroke-width:0.50;stroke:#fbab0a;"/>
		<path vector-effect="non-scaling-stroke" d="M 348.171451 108.208543 C 348.559599 109.03017 349.310396 110.707422 350.149022 110.727255 Q 352.05293 110.772586 360.65168 110.4836 C 361.181488 110.466601 361.654631 110.265444 361.799124 109.707304 C 362.144774 108.372869 361.481807 106.772113 360.17287 106.222473 Q 359.660061 106.004317 358.410622 106.004317 Q 351.854606 105.99865 350.432342 106.137477 Q 349.2254 106.253638 348.443438 106.712616 Q 347.681308 107.160261 348.171451 108.208543" style="fill:none;stroke-width:0.50;stroke:#f8a017;"/>
		<path vector-effect="non-scaling-stroke" d="M 360.79334 113.489621 L 352.520407 113.662446 C 351.945268 113.673779 351.489124 114.149756 351.500457 114.724895 L 351.508956 115.064878 C 351.542954 116.699632 352.934054 117.994403 354.614139 117.960405 L 358.880932 117.869742 C 360.561018 117.835744 361.898286 116.481476 361.864288 114.849555 L 361.855788 114.509572 C 361.844456 113.934433 361.368479 113.475455 360.79334 113.489621" style="fill:none;stroke-width:0.50;stroke:#fbab0a;"/>
		<path vector-effect="non-scaling-stroke" d="M 299.661467 57.239345 Q 299.650134 59.182917 299.650134 59.732558 Q 299.635968 66.237576 299.590637 79.842584 Q 299.587804 80.712375 299.890956 81.531169 Q 299.93912 81.664329 300.08078 81.678495 Q 303.021637 81.953315 306.990945 81.825821 C 307.064608 81.822988 307.126939 81.774823 307.146771 81.703994 Q 307.413091 80.68121 307.418758 79.649926 Q 307.43859 72.651932 307.347928 66.362236 Q 307.316763 64.047515 306.214649 62.378763 C 304.778219 60.205701 303.211462 58.199798 301.987521 55.964407 Q 301.095064 54.335319 300.196941 53.060381 Q 299.689799 52.340749 299.686966 53.21904 Q 299.684132 53.593021 299.661467 57.239345" style="fill:none;stroke-width:0.50;stroke:#075cb3;"/>
		<path vector-effect="non-scaling-stroke" d="M 355.401768 131.06677 Q 354.786964 130.310307 354.973955 129.19686 Q 355.024953 128.890875 354.7388 129.015536 L 354.571641 129.086366 Q 354.288322 129.211026 354.214658 129.511345 Q 354.078665 130.063818 354.211825 130.956275 C 354.25149 131.219762 354.458313 131.429419 354.724634 131.471917 Q 357.189514 131.862898 359.730891 131.692906 C 360.263532 131.656075 360.566684 131.435085 360.626181 130.910944 C 360.691345 130.315973 360.739509 128.79738 359.954714 128.709551 Q 357.781652 128.468729 355.784249 128.746382 Q 355.384768 128.800213 355.469764 129.191194 Q 355.656755 130.058152 355.534928 131.027105 Q 355.515095 131.202763 355.401768 131.06677" style="fill:none;stroke-width:0.50;stroke:#17195f;"/>
		<path vector-effect="non-scaling-stroke" d="M 167.306556 149.044023 C 173.711732 148.00645 178.023857 141.736587 176.937808 135.039279 C 175.853629 128.341235 169.782089 123.754291 163.378386 124.790617 C 156.97321 125.82819 152.661085 132.098053 153.747134 138.795361 C 154.831313 145.493405 160.902853 150.080349 167.306556 149.044023" style="fill:none;stroke-width:0.50;stroke:#8d574c;"/>
		<path vector-effect="non-scaling-stroke" d="M 288.280518 137.710615 C 288.665833 143.190016 292.29799 147.918621 297.777391 148.952737 C 305.565848 150.425999 312.388184 143.702825 311.849877 136.047529 C 311.308736 128.392233 303.610942 122.691842 296.105806 125.244552 C 290.827561 127.037965 287.895203 132.22838 288.280518 137.710615" style="fill:none;stroke-width:0.50;stroke:#8d574c;"/>
		<path vector-effect="non-scaling-stroke" d="M 164.930808 140.268594 C 166.583411 140.243492 167.900847 138.792896 167.872147 137.028976 C 167.844183 135.265567 166.481416 133.857468 164.830512 133.883364 C 163.177909 133.908466 161.860473 135.359062 161.889173 137.122982 C 161.917137 138.886391 163.279904 140.29449 164.930808 140.268594" style="fill:none;stroke-width:0.50;stroke:#7f453b;"/>
		<path vector-effect="non-scaling-stroke" d="M 299.14251 140.254513 C 300.837243 140.359653 302.302006 139.008219 302.409582 137.238321 C 302.517328 135.469557 301.231057 133.950964 299.534455 133.846447 C 297.839722 133.741307 296.374959 135.092742 296.267383 136.862639 C 296.159636 138.631404 297.445907 140.149997 299.14251 140.254513" style="fill:none;stroke-width:0.50;stroke:#7f453b;"/>
		<path d="M 294.544715 9.077844 Q 293.541763 9.16284 292.569977 9.041012 Q 290.734066 8.811523 290.702901 8.80869 Q 288.912321 8.655698 287.141573 8.33838 C 286.99708 8.312881 286.86392 8.423375 286.86392 8.570702 L 286.86392 19.045028 C 286.86392 19.130024 286.790257 19.195187 286.705261 19.186688 L 278.420995 18.254566 C 278.299168 18.2404 278.208506 18.141238 278.208506 18.019411 L 278.208506 7.819905 C 278.208506 7.516753 277.939352 7.281597 277.639033 7.326929 Q 277.00723 7.417591 276.423592 7.284431 Q 275.667129 7.114439 275.267648 7.09744 Q 274.570682 7.071941 274.281696 6.967113 Q 273.84255 6.811287 273.307076 6.836786 C 272.454284 6.879284 271.553328 6.561966 270.734534 6.553466 Q 269.887409 6.544966 269.368934 6.423139 Q 268.938288 6.321144 268.011833 6.244648 Q 267.671849 6.219149 266.646232 6.009492 Q 265.572451 5.791336 264.439172 6.168151 Q 262.271777 6.119987 260.056218 6.142653 Q 259.65957 6.145486 259.271423 5.91033 Q 259.152428 5.839501 259.016435 5.833834 L 257.633835 5.768671 Q 263.881033 5.553348 265.72261 5.791336 Q 271.454166 6.536467 277.191388 7.193768 C 277.735362 7.256099 278.514491 7.142771 279.180292 7.216434 C 281.418517 7.468588 283.617077 7.649913 285.872301 7.99273 Q 290.190092 8.652864 294.544715 9.077844 Z" style="fill:#fbbc07;"/>
		<path d="M 257.633835 5.768671 L 259.016435 5.833834 Q 259.152428 5.839501 259.271423 5.91033 Q 259.65957 6.145486 260.056218 6.142653 Q 262.271777 6.119987 264.439172 6.168151 Q 264.583665 6.768789 264.583665 7.020943 Q 264.611997 21.866891 264.648829 85.537308 Q 264.648829 86.585591 264.708326 87.597042 C 264.711159 87.676371 264.617664 87.718869 264.561 87.665038 L 263.52405 86.698918 Q 253.905349 77.967008 244.73146 68.960277 Q 237.645636 62.526089 231.880082 55.315605 Q 232.033075 49.671878 231.973578 44.277473 C 231.848917 32.913523 231.919747 21.541074 231.885749 10.177124 C 231.882916 9.448992 231.987744 8.151389 231.86025 7.120105 Q 231.826252 6.845285 231.664759 6.700792 Q 231.466436 6.527967 231.217114 6.491136 L 257.633835 5.768671 Z" style="fill:#fb9a0d;"/>
		<path d="M 294.544715 9.077844 L 300.477427 9.788976 C 300.740914 9.820141 300.942071 10.043964 300.942071 10.310284 L 300.885407 40.673647 Q 290.456413 40.795475 280.030251 40.75581 Q 276.007112 40.741644 273.437403 43.77883 Q 272.782935 44.555126 272.890596 45.637407 Q 272.567612 69.813069 272.737604 93.923569 C 272.740437 94.051062 272.799934 94.170057 272.901929 94.246553 L 276.539753 96.949422 Q 276.967566 97.212909 277.409544 97.530227 Q 284.736189 102.751808 292.484981 107.327419 Q 293.116784 107.698568 293.748586 107.976221 Q 295.510834 108.911176 297.258916 109.823465 Q 297.970049 110.197447 298.723679 110.254111 Q 300.029782 110.356106 301.327386 110.35044 Q 297.352412 110.319275 295.686493 110.662091 Q 292.666305 111.288228 290.345918 112.393174 Q 284.132719 115.353864 281.061534 121.77672 Q 281.072867 121.365906 280.803713 121.286577 Q 280.540226 121.210081 280.523227 121.201581 Q 276.562419 119.201344 272.791435 116.861124 L 264.662995 111.914364 Q 258.832277 107.87706 254.639147 104.587719 Q 246.896022 98.513346 239.416384 90.906215 C 243.232699 90.271579 246.581537 90.297077 250.477182 90.486902 Q 252.066605 90.563398 253.304712 90.339575 Q 258.645286 89.376289 263.52405 86.698918 L 264.561 87.665038 C 264.617664 87.718869 264.711159 87.676371 264.708326 87.597042 Q 264.648829 86.585591 264.648829 85.537308 Q 264.611997 21.866891 264.583665 7.020943 Q 264.583665 6.768789 264.439172 6.168151 Q 265.572451 5.791336 266.646232 6.009492 Q 267.671849 6.219149 268.011833 6.244648 Q 268.938288 6.321144 269.368934 6.423139 Q 269.887409 6.544966 270.734534 6.553466 C 271.553328 6.561966 272.454284 6.879284 273.307076 6.836786 Q 273.84255 6.811287 274.281696 6.967113 Q 274.570682 7.071941 275.267648 7.09744 Q 275.667129 7.114439 276.423592 7.284431 Q 277.00723 7.417591 277.639033 7.326929 C 277.939352 7.281597 278.208506 7.516753 278.208506 7.819905 L 278.208506 18.019411 C 278.208506 18.141238 278.299168 18.2404 278.420995 18.254566 L 286.705261 19.186688 C 286.790257 19.195187 286.86392 19.130024 286.86392 19.045028 L 286.86392 8.570702 C 286.86392 8.423375 286.99708 8.312881 287.141573 8.33838 Q 288.912321 8.655698 290.702901 8.80869 Q 290.734066 8.811523 292.569977 9.041012 Q 293.541763 9.16284 294.544715 9.077844 Z" style="fill:#e8383c;"/>
		<path d="M 231.217114 6.491136 Q 231.466436 6.527967 231.664759 6.700792 Q 231.826252 6.845285 231.86025 7.120105 C 231.987744 8.151389 231.882916 9.448992 231.885749 10.177124 C 231.919747 21.541074 231.848917 32.913523 231.973578 44.277473 Q 232.033075 49.671878 231.880082 55.315605 Q 226.366683 48.442271 223.867804 44.906442 Q 221.011942 40.869138 218.130581 36.851665 C 217.54411 36.032872 216.838644 35.245243 216.345668 34.721102 C 215.011233 33.301671 213.359479 33.669986 211.784222 34.398118 C 209.948311 35.248076 209.466668 36.976326 209.749987 38.868901 C 211.152419 48.323277 214.892238 57.378172 220.014657 65.696435 Q 220.065654 65.778598 223.587317 71.413825 Q 224.003797 72.079626 224.383445 72.688763 Q 224.975583 73.782377 225.652717 74.805161 Q 226.372349 75.893108 226.885158 76.95839 Q 228.103432 79.496934 229.831682 81.814488 Q 231.57693 84.149042 231.678925 84.293535 Q 235.364914 89.458451 239.286057 94.204055 Q 241.076637 96.368617 243.048542 98.442516 Q 247.499493 103.128623 250.460183 105.79466 Q 256.659216 111.37889 264.603498 116.373815 L 264.674328 117.532592 L 264.617664 121.14775 Q 264.611997 121.606728 264.15302 121.56423 Q 263.781871 121.530232 263.1784 121.771053 L 251.412137 121.762554 Q 250.808666 121.586896 250.264692 121.326242 C 249.202244 120.819099 248.091631 120.615109 246.995184 120.18163 Q 205.899674 103.936084 159.591083 86.078448 Q 157.862833 85.412647 133.848663 76.128264 Q 133.732502 76.082932 133.670171 76.190594 Q 133.647506 76.230259 133.639006 76.281256 Q 133.656005 43.385016 133.664505 10.491609 Q 133.664505 9.573653 133.817498 9.032513 C 133.842996 8.94185 133.89966 8.862521 133.97899 8.811523 Q 134.299141 8.6047 134.766618 8.6047 C 145.221112 8.590534 155.703938 8.05506 166.988558 7.916233 C 174.369034 7.825571 181.746677 7.553584 189.161151 7.417591 C 199.216164 7.233433 209.121018 6.848118 215.433379 6.771622 Q 226.440346 6.641295 231.217114 6.491136 Z" style="fill:#fbbc07;"/>
		<path d="M 231.880082 55.315605 Q 237.645636 62.526089 244.73146 68.960277 Q 243.677511 69.589247 243.045708 69.708241 C 236.707849 70.901017 229.783517 70.286213 223.714811 68.28031 Q 223.573151 68.232146 223.490989 68.35964 Q 222.757191 69.490085 223.624149 70.680027 Q 226.301519 74.360349 228.531244 78.352323 L 224.383445 72.688763 Q 224.003797 72.079626 223.587317 71.413825 Q 220.065654 65.778598 220.014657 65.696435 C 214.892238 57.378172 211.152419 48.323277 209.749987 38.868901 C 209.466668 36.976326 209.948311 35.248076 211.784222 34.398118 C 213.359479 33.669986 215.011233 33.301671 216.345668 34.721102 C 216.838644 35.245243 217.54411 36.032872 218.130581 36.851665 Q 221.011942 40.869138 223.867804 44.906442 Q 226.366683 48.442271 231.880082 55.315605 Z" style="fill:#f86521;"/>
		<path d="M 333.849645 51.847773 Q 333.220675 51.377462 332.832527 50.589834 C 332.775863 50.476506 332.662535 50.405676 332.537875 50.402843 L 326.843151 50.368844 L 315.768187 50.283848 Q 312.425015 50.224351 308.999681 50.275349 C 308.370712 50.286682 306.495136 50.581334 306.62263 51.516289 Q 306.741624 52.380414 307.223267 53.298369 Q 308.316881 55.377935 308.46704 55.655588 Q 310.455944 59.284913 312.456181 62.905737 C 312.821663 63.568705 313.09365 64.296836 313.328805 64.871975 Q 313.391135 65.027801 313.524295 64.928639 Q 314.456417 64.234506 315.802185 64.169343 Q 318.595717 64.036182 322.174043 64.101346 C 322.295871 64.104179 322.395033 64.203341 322.395033 64.325168 L 322.431864 77.525029 Q 322.270372 78.618643 322.681185 79.179616 Q 324.803249 82.854271 329.038878 83.667398 L 341.972418 83.735395 L 352.140759 83.851556 Q 353.750014 84.285035 355.427266 84.375698 C 356.838198 84.449361 357.69949 85.55714 358.620278 86.769748 Q 359.359743 87.741535 360.538352 88.945643 Q 360.614848 89.024972 360.623348 88.914478 Q 360.912334 85.350317 361.240985 83.188588 Q 361.351479 82.468957 361.348646 81.737992 Q 361.314648 74.918489 361.238152 68.093319 L 364.501994 68.067821 C 364.84481 68.064987 365.122464 68.35114 365.113964 68.693957 Q 365.037468 71.716977 365.017635 71.974798 C 364.941139 72.972083 365.153629 74.306518 365.014802 75.374633 Q 365.011969 75.385966 364.892975 77.355038 C 364.810812 78.666807 364.938306 79.896414 364.969471 81.349844 C 365.006303 82.981765 363.836193 82.806107 362.906904 83.440743 L 361.923785 83.769394 C 361.838789 83.797726 361.767959 83.854389 361.722628 83.930886 Q 361.515805 84.279369 361.442142 84.673183 Q 361.031328 86.86891 360.833005 88.356338 Q 360.759341 88.903145 361.249484 89.61711 Q 364.416998 94.246553 366.77705 99.842115 C 368.420304 103.743426 369.423255 106.967604 369.530917 111.143735 Q 369.635745 115.186706 369.624412 120.561279 Q 369.624412 121.14775 369.913398 121.722889 L 334.580609 121.725722 L 330.602802 121.527399 C 330.43281 121.518899 330.29965 121.380072 330.296817 121.212914 L 330.248652 118.121897 Q 332.09023 119.085183 333.716484 119.093683 Q 337.640461 119.113515 341.793927 119.119182 Q 342.456894 119.119182 343.335185 118.988855 C 343.496677 118.963356 343.615672 118.827363 343.621338 118.663037 Q 343.703501 115.535189 342.510725 112.693493 C 341.978084 111.429887 341.975251 111.084238 340.609651 111.038906 Q 336.719672 110.911413 332.16106 111.044573 Q 331.311101 111.070072 330.529139 111.421388 Q 327.761106 112.659495 326.695824 115.385029 Q 322.117379 113.129805 317.218783 111.007741 Q 314.156098 109.681805 310.424779 108.514529 Q 305.682009 107.029934 300.871242 107.253756 Q 299.026831 107.338752 293.748586 107.976221 Q 293.116784 107.698568 292.484981 107.327419 Q 284.736189 102.751808 277.409544 97.530227 Q 276.967566 97.212909 276.539753 96.949422 Q 276.916568 96.150461 276.885403 95.620653 Q 276.735244 93.203937 276.800407 86.843411 Q 276.845738 82.443458 276.647415 68.818618 C 276.545419 61.857455 276.772075 54.961455 276.551086 49.377226 C 276.542586 49.229899 276.46609 49.096739 276.341429 49.01741 C 274.924831 48.133453 273.749055 47.187165 272.890596 45.637407 Q 272.782935 44.555126 273.437403 43.77883 Q 276.007112 40.741644 280.030251 40.75581 Q 290.456413 40.795475 300.885407 40.673647 Q 303.251126 40.376161 305.690508 40.625483 Q 305.832168 40.642482 305.945496 40.55182 Q 306.880451 39.798189 308.033561 39.971014 C 308.549203 40.050344 309.062012 40.48099 309.367997 40.650982 Q 309.495491 40.721811 309.628651 40.699146 C 309.860973 40.662314 310.13296 40.531987 310.424779 40.546153 Q 311.77338 40.611317 313.113482 40.758643 Q 313.354304 40.786975 313.855779 40.415826 C 314.456417 39.971014 315.14205 39.71886 315.790852 39.905851 C 316.405656 40.081509 316.864634 40.696313 317.567266 40.68498 Q 319.261518 40.662314 320.86794 40.792641 Q 321.018099 40.803974 321.137093 40.716145 C 321.96722 40.104175 322.839844 39.591366 323.831463 40.155172 Q 324.480265 40.520654 324.823082 40.704812 C 324.893912 40.741644 324.973241 40.758643 325.052571 40.752977 Q 325.709872 40.690646 326.058355 40.730311 C 326.885648 40.82664 327.775272 42.229072 328.432574 43.186692 Q 331.228938 47.243829 333.234841 50.80799 Q 333.520994 51.312299 333.849645 51.847773 Z M 309.4031 41.509298 C 309.365164 40.650982 308.520871 39.990847 307.515228 40.034818 C 306.509302 40.078676 305.724506 40.809641 305.763066 41.668241 C 305.801003 42.526557 306.645295 43.186692 307.650938 43.142721 C 308.656864 43.098863 309.44166 42.367898 309.4031 41.509298 Z M 317.162006 41.589336 C 317.15362 40.704812 316.32066 39.996513 315.306602 40.007931 C 314.292092 40.019179 313.476131 40.744477 313.484744 41.627868 C 313.49313 42.512391 314.32609 43.22069 315.340148 43.209273 C 316.354658 43.198025 317.170619 42.472727 317.162006 41.589336 Z M 324.771546 41.601122 C 324.749419 40.724645 323.922125 40.036178 322.92008 40.059325 C 321.919056 40.084342 321.125761 40.812474 321.146131 41.689745 C 321.168259 42.566222 321.995552 43.254689 322.997597 43.231542 C 323.998622 43.206524 324.791917 42.478393 324.771546 41.601122 Z M 283.571746 50.079858 Q 281.330688 51.720279 281.333521 54.094497 Q 281.353353 65.721934 281.367519 77.355038 Q 281.367519 79.700924 282.860614 81.250682 Q 283.860732 82.355629 285.554983 82.398127 C 290.464912 82.522787 295.193516 82.451957 300.287603 82.474623 C 304.497733 82.494455 308.53787 82.352795 313.16448 82.454791 Q 313.544128 83.452076 314.759569 83.738228 C 315.062721 83.809058 315.241212 84.12071 315.15055 84.418195 Q 314.190097 87.517712 313.895444 90.603063 C 313.872779 90.852384 314.045604 91.076206 314.292092 91.118704 C 315.210047 91.27453 316.938297 91.566349 317.150787 90.248913 Q 317.76559 86.466596 318.108407 84.109377 C 318.128239 83.97055 318.241567 83.860056 318.383227 83.84589 C 319.542004 83.726896 321.281586 83.392578 321.848226 82.262133 C 322.25054 81.466005 322.528193 79.950245 322.16271 79.097453 Q 321.890724 78.47415 321.95872 77.938676 Q 322.023884 77.448533 321.876558 75.326469 C 321.870891 75.258472 321.817061 75.207475 321.751897 75.207475 L 318.901702 75.207475 C 318.717544 75.207475 318.561718 75.346301 318.541886 75.530459 L 318.046077 79.933246 Q 318.034744 80.040907 317.986579 79.944579 Q 317.83642 79.641427 317.853419 79.273111 C 318.071575 74.323518 317.833587 69.362591 317.759924 64.696317 C 317.75709 64.63682 317.711759 64.591489 317.652262 64.591489 Q 315.450869 64.56599 313.646123 65.449947 Q 313.518629 65.512278 313.50163 65.653937 C 313.311806 67.297191 312.983155 68.999942 313.059651 70.830187 Q 313.065318 70.960514 312.977489 70.864185 Q 312.866994 70.742358 312.759333 70.697027 Q 309.77881 66.095916 306.636796 61.579801 Q 303.219961 56.664206 300.043948 51.587119 Q 298.987166 49.892867 297.088925 49.824871 Q 290.887058 49.601048 283.571746 50.079858 Z M 295.485194 92.247591 C 295.485336 91.555017 294.92153 90.994044 294.227878 90.994667 L 281.960167 91.016086 C 281.268357 91.016709 280.707385 91.580515 280.707243 92.273373 L 280.707526 92.437699 C 280.707385 93.130274 281.271191 93.691246 281.964842 93.690623 L 294.232553 93.669204 C 294.924363 93.668581 295.485336 93.104775 295.485477 92.411917 L 295.485194 92.247591 Z M 348.33861 99.33214 C 347.451819 99.346306 343.958488 99.708955 345.001105 101.423039 C 345.50258 102.244666 346.593361 103.899252 347.675642 103.845421 Q 353.665018 103.545103 360.920834 103.479939 Q 362.014447 103.47144 362.343098 102.777306 C 362.804909 101.797021 361.467641 100.408754 360.776341 99.876114 Q 359.801721 99.12815 358.72794 99.150815 Q 351.996266 99.281142 348.33861 99.33214 Z M 348.171451 108.208543 C 348.559599 109.03017 349.310396 110.707422 350.149022 110.727255 Q 352.05293 110.772586 360.65168 110.4836 C 361.181488 110.466601 361.654631 110.265444 361.799124 109.707304 C 362.144774 108.372869 361.481807 106.772113 360.17287 106.222473 Q 359.660061 106.004317 358.410622 106.004317 Q 351.854606 105.99865 350.432342 106.137477 Q 349.2254 106.253638 348.443438 106.712616 Q 347.681308 107.160261 348.171451 108.208543 Z M 360.79334 113.489621 L 352.520407 113.662446 C 351.945268 113.673779 351.489124 114.149756 351.500457 114.724895 L 351.508956 115.064878 C 351.542954 116.699632 352.934054 117.994403 354.614139 117.960405 L 358.880932 117.869742 C 360.561018 117.835744 361.898286 116.481476 361.864288 114.849555 L 361.855788 114.509572 C 361.844456 113.934433 361.368479 113.475455 360.79334 113.489621 Z" style="fill:#fbbc07;"/>
		<path d="M 276.539753 96.949422 L 272.901929 94.246553 C 272.799934 94.170057 272.740437 94.051062 272.737604 93.923569 Q 272.567612 69.813069 272.890596 45.637407 C 273.749055 47.187165 274.924831 48.133453 276.341429 49.01741 C 276.46609 49.096739 276.542586 49.229899 276.551086 49.377226 C 276.772075 54.961455 276.545419 61.857455 276.647415 68.818618 Q 276.845738 82.443458 276.800407 86.843411 Q 276.735244 93.203937 276.885403 95.620653 Q 276.916568 96.150461 276.539753 96.949422 Z" style="fill:#fb9a0d;"/>
		<path d="M 326.843151 50.368844 Q 326.854483 50.680496 327.194467 51.00348 Q 327.625113 51.414294 327.74694 51.572953 Q 333.033684 58.332959 338.297763 65.107131 Q 349.282064 79.241946 352.463743 83.480408 Q 352.543073 83.585236 352.718731 83.701397 L 352.140759 83.851556 L 341.972418 83.735395 Q 341.958252 83.446409 341.476609 83.049762 Q 341.425611 82.61345 341.213121 82.39246 Q 340.895803 82.066643 340.691813 81.729492 Q 340.334831 81.137354 340.230002 81.009861 Q 337.756622 77.947175 335.52123 74.983652 Q 333.427498 72.212787 332.059065 70.501536 Q 323.990122 60.423857 315.768187 50.283848 L 326.843151 50.368844 Z" style="fill:#52b7e8;"/>
		<path d="M 315.768187 50.283848 Q 323.990122 60.423857 332.059065 70.501536 Q 333.427498 72.212787 335.52123 74.983652 Q 337.756622 77.947175 340.230002 81.009861 Q 340.334831 81.137354 340.691813 81.729492 Q 340.895803 82.066643 341.213121 82.39246 Q 341.425611 82.61345 341.476609 83.049762 C 340.541654 82.432125 339.734193 81.678495 338.819071 81.021193 C 338.442256 80.749206 337.818952 80.729374 337.198482 80.559382 Q 336.617677 80.403557 336.246528 80.378058 Q 333.46433 80.179734 331.770079 82.049644 Q 331.333766 82.531287 331.517924 81.910817 C 332.101563 79.953078 333.297171 76.740234 331.908905 75.405799 Q 331.373431 74.895823 330.189155 74.235689 Q 329.019045 73.584053 327.630779 74.13936 Q 324.783417 75.278305 322.431864 77.525029 L 322.395033 64.325168 C 322.395033 64.203341 322.295871 64.104179 322.174043 64.101346 Q 318.595717 64.036182 315.802185 64.169343 Q 314.456417 64.234506 313.524295 64.928639 Q 313.391135 65.027801 313.328805 64.871975 C 313.09365 64.296836 312.821663 63.568705 312.456181 62.905737 Q 310.455944 59.284913 308.46704 55.655588 Q 308.316881 55.377935 307.223267 53.298369 Q 306.741624 52.380414 306.62263 51.516289 C 306.495136 50.581334 308.370712 50.286682 308.999681 50.275349 Q 312.425015 50.224351 315.768187 50.283848 Z" style="fill:#0767bb;"/>
		<path d="M 333.849645 51.847773 C 336.00004 54.255989 337.637628 56.431884 339.524536 58.738106 Q 340.958134 60.486188 342.102745 62.010447 C 343.355018 63.684866 344.326804 64.874809 345.363754 66.367903 C 347.208164 69.019774 348.585098 70.96618 350.123523 73.490558 Q 352.73573 77.771517 355.532095 82.177137 Q 355.789915 82.587951 356.342389 83.644733 L 352.718731 83.701397 Q 352.543073 83.585236 352.463743 83.480408 Q 349.282064 79.241946 338.297763 65.107131 Q 333.033684 58.332959 327.74694 51.572953 Q 327.625113 51.414294 327.194467 51.00348 Q 326.854483 50.680496 326.843151 50.368844 L 332.537875 50.402843 C 332.662535 50.405676 332.775863 50.476506 332.832527 50.589834 Q 333.220675 51.377462 333.849645 51.847773 Z" style="fill:#0767bb;"/>
		<path d="M 362.906904 83.440743 C 363.836193 82.806107 365.006303 82.981765 364.969471 81.349844 C 364.938306 79.896414 364.810812 78.666807 364.892975 77.355038 Q 365.011969 75.385966 365.014802 75.374633 C 365.153629 74.306518 364.941139 72.972083 365.017635 71.974798 Q 365.037468 71.716977 365.113964 68.693957 C 365.122464 68.35114 364.84481 68.064987 364.501994 68.067821 L 361.238152 68.093319 Q 359.983046 68.081987 358.662776 68.518299 Q 359.067923 68.062154 359.637396 67.977158 Q 362.17594 67.600343 364.873142 67.875163 C 365.184794 67.906328 365.419949 68.172649 365.417116 68.487134 Q 365.320787 75.385966 365.366118 81.542501 C 365.377451 82.811773 363.946687 83.318915 362.906904 83.440743 Z" style="fill:#f48327;"/>
		<path d="M 361.238152 68.093319 Q 361.314648 74.918489 361.348646 81.737992 Q 361.351479 82.468957 361.240985 83.188588 Q 360.912334 85.350317 360.623348 88.914478 Q 360.614848 89.024972 360.538352 88.945643 Q 359.359743 87.741535 358.620278 86.769748 C 357.69949 85.55714 356.838198 84.449361 355.427266 84.375698 Q 353.750014 84.285035 352.140759 83.851556 L 352.718731 83.701397 L 356.342389 83.644733 L 358.067805 85.763964 C 358.10747 85.809295 358.183966 85.792296 358.195299 85.732798 Q 358.277462 85.344651 358.260462 84.93667 Q 358.212298 83.746728 358.076305 69.776238 Q 358.067805 68.733622 358.662776 68.518299 Q 359.983046 68.081987 361.238152 68.093319 Z" style="fill:#fb9a0d;"/>
		<path d="M 244.73146 68.960277 Q 253.905349 77.967008 263.52405 86.698918 Q 258.645286 89.376289 253.304712 90.339575 Q 252.066605 90.563398 250.477182 90.486902 C 246.581537 90.297077 243.232699 90.271579 239.416384 90.906215 C 235.57457 86.945406 231.806419 82.803274 228.531244 78.352323 Q 226.301519 74.360349 223.624149 70.680027 Q 222.757191 69.490085 223.490989 68.35964 Q 223.573151 68.232146 223.714811 68.28031 C 229.783517 70.286213 236.707849 70.901017 243.045708 69.708241 Q 243.677511 69.589247 244.73146 68.960277 Z" style="fill:#f04230;"/>
		<path d="M 228.531244 78.352323 C 231.806419 82.803274 235.57457 86.945406 239.416384 90.906215 Q 246.896022 98.513346 254.639147 104.587719 Q 258.832277 107.87706 264.662995 111.914364 L 264.603498 116.373815 Q 256.659216 111.37889 250.460183 105.79466 Q 247.499493 103.128623 243.048542 98.442516 Q 241.076637 96.368617 239.286057 94.204055 Q 235.364914 89.458451 231.678925 84.293535 Q 231.57693 84.149042 229.831682 81.814488 Q 228.103432 79.496934 226.885158 76.95839 Q 226.372349 75.893108 225.652717 74.805161 Q 224.975583 73.782377 224.383445 72.688763 L 228.531244 78.352323 Z" style="fill:#fb9a0d;"/>
		<path d="M 341.476609 83.049762 Q 341.958252 83.446409 341.972418 83.735395 L 329.038878 83.667398 L 329.319364 83.299083 C 329.489356 83.270751 329.642348 83.194255 329.727344 83.029929 Q 331.155275 80.346893 331.410263 77.496697 Q 331.506591 76.422916 330.452642 76.034768 Q 327.970763 74.363182 325.738204 76.383251 Q 324.213944 77.757351 322.681185 79.179616 Q 322.270372 78.618643 322.431864 77.525029 Q 324.783417 75.278305 327.630779 74.13936 Q 329.019045 73.584053 330.189155 74.235689 Q 331.373431 74.895823 331.908905 75.405799 C 333.297171 76.740234 332.101563 79.953078 331.517924 81.910817 Q 331.333766 82.531287 331.770079 82.049644 Q 333.46433 80.179734 336.246528 80.378058 Q 336.617677 80.403557 337.198482 80.559382 C 337.818952 80.729374 338.442256 80.749206 338.819071 81.021193 C 339.734193 81.678495 340.541654 82.432125 341.476609 83.049762 Z" style="fill:#252b70;"/>
		<path d="M 330.452642 76.034768 L 329.424192 75.728783 C 329.251367 75.677785 329.061543 75.740116 328.953882 75.887442 C 327.650611 77.646857 327.236965 79.154117 326.038523 81.888151 C 326.013024 81.941982 326.03569 82.007146 326.08952 82.038311 Q 327.60528 82.882603 329.319364 83.299083 L 329.038878 83.667398 Q 324.803249 82.854271 322.681185 79.179616 Q 324.213944 77.757351 325.738204 76.383251 Q 327.970763 74.363182 330.452642 76.034768 Z" style="fill:#0751ab;"/>
		<path d="M 330.452642 76.034768 Q 331.506591 76.422916 331.410263 77.496697 Q 331.155275 80.346893 329.727344 83.029929 C 329.642348 83.194255 329.489356 83.270751 329.319364 83.299083 Q 327.60528 82.882603 326.08952 82.038311 C 326.03569 82.007146 326.013024 81.941982 326.038523 81.888151 C 327.236965 79.154117 327.650611 77.646857 328.953882 75.887442 C 329.061543 75.740116 329.251367 75.677785 329.424192 75.728783 L 330.452642 76.034768 Z" style="fill:#0767bb;"/>
		<path d="M 251.412137 121.762554 Q 241.940762 121.890048 232.489219 121.657726 C 230.667474 121.612394 228.746567 121.711556 226.882324 121.637893 Q 224.584602 121.550064 222.683528 121.558564 Q 209.322175 121.603895 197.873229 121.742721 C 193.031297 121.802219 188.107202 121.725722 182.834624 121.802219 C 182.627801 121.805052 182.44081 121.686057 182.358647 121.496233 C 181.010046 118.46188 179.40079 116.198157 176.64409 114.231918 Q 170.544219 109.877296 162.82376 110.458101 Q 158.993278 110.789585 155.746436 112.364842 Q 149.657897 115.322699 146.878532 121.541564 Q 140.605836 121.496233 134.687289 121.530232 Q 134.301974 121.533065 133.919493 121.414071 Q 133.775 121.36874 133.760834 121.21858 L 133.667338 120.360122 Q 133.675838 120.232628 133.639006 120.124966 L 133.639006 76.281256 Q 133.647506 76.230259 133.670171 76.190594 Q 133.732502 76.082932 133.848663 76.128264 Q 157.862833 85.412647 159.591083 86.078448 Q 205.899674 103.936084 246.995184 120.18163 C 248.091631 120.615109 249.202244 120.819099 250.264692 121.326242 Q 250.808666 121.586896 251.412137 121.762554 Z" style="fill:#e8383c;"/>
		<path d="M 326.695824 115.385029 Q 328.242749 117.172776 330.248652 118.121897 L 330.296817 121.212914 C 330.29965 121.380072 330.43281 121.518899 330.602802 121.527399 L 334.580609 121.725722 L 330.478141 121.756887 Q 329.520521 121.340408 328.738559 121.017423 C 326.528666 120.105134 324.415101 118.935024 322.270372 117.886741 C 320.119976 116.835626 316.340492 114.843889 313.017153 113.359294 Q 312.861328 113.291297 312.314521 113.104306 Q 312.18136 113.058975 312.042534 113.09014 Q 310.980085 113.325296 309.917637 113.030643 Q 306.007826 110.630926 301.327386 110.35044 Q 300.029782 110.356106 298.723679 110.254111 Q 297.970049 110.197447 297.258916 109.823465 Q 295.510834 108.911176 293.748586 107.976221 Q 299.026831 107.338752 300.871242 107.253756 Q 305.682009 107.029934 310.424779 108.514529 Q 314.156098 109.681805 317.218783 111.007741 Q 322.117379 113.129805 326.695824 115.385029 Z" style="fill:#fb9a0d;"/>
		<path d="M 251.412137 121.762554 L 263.1784 121.771053 L 280.676219 121.793719 Q 281.152196 121.782386 280.919874 122.283862 C 280.069915 124.11694 279.557107 126.539322 279.472111 128.213741 Q 279.245455 132.625028 279.228456 133.874467 Q 279.211457 135.319397 280.500561 135.996531 Q 280.673386 136.087193 280.585557 135.9427 Q 280.540226 135.869037 280.619556 135.829373 C 280.670553 135.801041 280.698885 135.74721 280.693219 135.687713 Q 280.500561 134.061458 280.727217 132.474868 Q 281.744334 125.369212 286.203785 120.136299 C 289.677284 116.05933 294.805369 113.741776 300.267771 113.85227 Q 301.44638 113.877769 301.905358 113.849437 C 304.401404 113.707777 306.96828 113.908934 309.469992 113.965598 Q 309.792976 113.971264 310.931921 113.71911 C 313.773617 115.628684 316.501985 118.354219 317.813754 121.558564 C 317.876085 121.711556 318.026244 121.810718 318.19057 121.810718 L 330.478141 121.756887 L 334.580609 121.725722 L 369.913398 121.722889 Q 369.930397 126.094511 369.919065 130.519963 C 369.916231 131.338757 369.740573 132.132052 369.530917 132.863016 Q 368.882115 135.109741 367.094368 135.908702 Q 366.286907 136.268518 363.544373 136.271351 Q 350.981982 136.29685 336.62901 136.240186 C 336.450519 136.240186 336.306026 136.384679 336.308859 136.56317 Q 336.308859 137.549123 336.076537 138.455745 C 334.693937 143.872816 330.917287 149.865026 325.403887 151.834098 Q 324.281941 152.236411 322.559358 152.590561 Q 321.091762 152.896546 319.646832 152.956043 Q 315.303543 153.140201 311.181242 152.055087 Q 310.869591 151.904928 310.849758 151.885095 Q 310.566439 151.613108 310.869591 151.341121 C 312.266356 150.097348 313.770784 148.711915 314.717071 147.349148 Q 316.623812 144.592448 317.649429 141.628925 C 318.227401 139.951673 318.564551 137.631285 318.04041 135.886037 Q 317.558767 134.285281 317.507769 134.055792 C 316.853301 131.06677 315.890014 128.508394 314.082435 126.077512 Q 312.790498 124.340762 310.447444 122.723007 Q 306.265647 119.83598 301.10923 119.759484 Q 297.978548 119.71132 295.519334 120.515947 Q 290.000268 122.320693 286.654263 127.329784 Q 284.58603 130.426468 284.155384 134.265448 Q 284.030724 135.359062 283.880564 136.432843 Q 283.906063 136.311016 283.874898 136.251519 Q 283.849399 136.197688 283.733238 136.197688 Q 270.830863 136.279851 257.395847 136.268518 Q 256.154907 136.268518 254.956465 136.540505 Q 250.64434 137.520791 245.822241 138.195091 Q 243.397025 138.535075 240.708321 138.535075 Q 221.164935 138.537908 214.555088 138.520909 C 214.390763 138.520909 214.243436 138.631404 214.200938 138.792896 Q 212.690845 144.595281 208.52888 148.850742 Q 205.469028 151.981424 200.516601 152.975876 Q 199.955628 153.089203 197.745735 153.038206 Q 196.119481 153.001374 195.017367 152.703889 Q 191.883852 151.859596 190.455922 150.814147 Q 186.91726 148.230272 185.45533 145.368744 Q 184.537375 143.566831 183.528757 141.688422 Q 184.001901 139.586191 184.109562 138.268754 Q 184.118062 138.166759 184.106729 137.027815 Q 184.101063 136.43001 183.80641 135.860538 Q 183.282269 134.85192 182.800626 133.149169 Q 182.163156 130.902445 181.930834 130.355638 Q 179.015476 123.530468 172.303634 120.955093 C 166.861064 118.867027 160.914185 119.589492 156.14875 122.966662 Q 149.405743 127.743431 149.357578 136.214687 C 148.105306 136.203355 146.739705 136.16369 145.518598 136.413011 Q 145.031288 136.50934 144.603475 136.50934 Q 127.788456 136.50084 120.413647 136.546171 C 120.186991 136.549004 120 136.362013 120 136.135358 L 120 124.876236 C 120 124.768575 120.084996 124.683579 120.189824 124.683579 L 144.949125 124.615582 L 144.311656 124.717577 Q 143.923508 124.777074 144.317322 124.777074 L 145.665924 124.777074 C 145.80475 124.777074 145.906745 124.907401 145.87558 125.040562 Q 145.626259 126.114343 145.558262 126.740479 Q 145.167281 130.378303 145.337273 135.021912 Q 145.359939 135.622549 145.827416 135.245734 L 145.915245 135.177738 C 146.207064 134.939749 146.399722 134.602599 146.453552 134.228617 Q 146.906864 130.99594 147.105187 129.738001 C 147.527334 127.029465 149.000596 123.139487 150.966834 120.697272 C 155.638774 114.886387 162.733097 112.95698 169.949248 114.118591 C 172.425461 114.515238 175.049001 116.266153 177.043571 117.759248 Q 177.142733 117.832911 177.080403 117.728082 Q 176.434434 116.654301 175.465481 115.869506 C 173.910056 114.608734 172.606786 113.322462 170.700045 112.509335 C 169.35711 111.934196 168.512817 111.322226 167.337041 110.761253 Q 166.759069 110.486433 165.931776 110.486433 Q 164.353686 110.480767 162.82376 110.458101 Q 170.544219 109.877296 176.64409 114.231918 C 179.40079 116.198157 181.010046 118.46188 182.358647 121.496233 C 182.44081 121.686057 182.627801 121.805052 182.834624 121.802219 C 188.107202 121.725722 193.031297 121.802219 197.873229 121.742721 Q 209.322175 121.603895 222.683528 121.558564 Q 224.584602 121.550064 226.882324 121.637893 C 228.746567 121.711556 230.667474 121.612394 232.489219 121.657726 Q 241.940762 121.890048 251.412137 121.762554 Z M 355.401768 131.06677 Q 354.786964 130.310307 354.973955 129.19686 Q 355.024953 128.890875 354.7388 129.015536 L 354.571641 129.086366 Q 354.288322 129.211026 354.214658 129.511345 Q 354.078665 130.063818 354.211825 130.956275 C 354.25149 131.219762 354.458313 131.429419 354.724634 131.471917 Q 357.189514 131.862898 359.730891 131.692906 C 360.263532 131.656075 360.566684 131.435085 360.626181 130.910944 C 360.691345 130.315973 360.739509 128.79738 359.954714 128.709551 Q 357.781652 128.468729 355.784249 128.746382 Q 355.384768 128.800213 355.469764 129.191194 Q 355.656755 130.058152 355.534928 131.027105 Q 355.515095 131.202763 355.401768 131.06677 Z" style="fill:#09064e;"/>
		<path d="M 301.327386 110.35044 Q 306.007826 110.630926 309.917637 113.030643 L 310.931921 113.71911 Q 309.792976 113.971264 309.469992 113.965598 C 306.96828 113.908934 304.401404 113.707777 301.905358 113.849437 Q 301.44638 113.877769 300.267771 113.85227 C 294.805369 113.741776 289.677284 116.05933 286.203785 120.136299 Q 281.744334 125.369212 280.727217 132.474868 Q 280.500561 134.061458 280.693219 135.687713 C 280.698885 135.74721 280.670553 135.801041 280.619556 135.829373 Q 280.540226 135.869037 280.585557 135.9427 Q 280.673386 136.087193 280.500561 135.996531 Q 279.211457 135.319397 279.228456 133.874467 Q 279.245455 132.625028 279.472111 128.213741 C 279.557107 126.539322 280.069915 124.11694 280.919874 122.283862 Q 281.152196 121.782386 280.676219 121.793719 L 281.061534 121.77672 Q 284.132719 115.353864 290.345918 112.393174 Q 292.666305 111.288228 295.686493 110.662091 Q 297.352412 110.319275 301.327386 110.35044 Z" style="fill:#252b70;"/>
		<path d="M 162.82376 110.458101 Q 164.353686 110.480767 165.931776 110.486433 Q 166.759069 110.486433 167.337041 110.761253 C 168.512817 111.322226 169.35711 111.934196 170.700045 112.509335 C 172.606786 113.322462 173.910056 114.608734 175.465481 115.869506 Q 176.434434 116.654301 177.080403 117.728082 Q 177.142733 117.832911 177.043571 117.759248 C 175.049001 116.266153 172.425461 114.515238 169.949248 114.118591 C 162.733097 112.95698 155.638774 114.886387 150.966834 120.697272 C 149.000596 123.139487 147.527334 127.029465 147.105187 129.738001 Q 146.906864 130.99594 146.453552 134.228617 C 146.399722 134.602599 146.207064 134.939749 145.915245 135.177738 L 145.827416 135.245734 Q 145.359939 135.622549 145.337273 135.021912 Q 145.167281 130.378303 145.558262 126.740479 Q 145.626259 126.114343 145.87558 125.040562 C 145.906745 124.907401 145.80475 124.777074 145.665924 124.777074 L 144.317322 124.777074 Q 143.923508 124.777074 144.311656 124.717577 L 144.949125 124.615582 L 145.393937 124.655247 L 145.654591 124.641081 Q 145.95491 124.689245 146.011574 124.380427 Q 146.275061 122.929831 146.878532 121.541564 Q 149.657897 115.322699 155.746436 112.364842 Q 158.993278 110.789585 162.82376 110.458101 Z" style="fill:#252b70;"/>
		<path fill-opacity="0.976" d="M 330.248652 118.121897 Q 328.242749 117.172776 326.695824 115.385029 Q 327.761106 112.659495 330.529139 111.421388 Q 331.311101 111.070072 332.16106 111.044573 Q 336.719672 110.911413 340.609651 111.038906 C 341.975251 111.084238 341.978084 111.429887 342.510725 112.693493 Q 343.703501 115.535189 343.621338 118.663037 C 343.615672 118.827363 343.496677 118.963356 343.335185 118.988855 Q 342.456894 119.119182 341.793927 119.119182 Q 337.640461 119.113515 333.716484 119.093683 Q 332.09023 119.085183 330.248652 118.121897 Z" style="fill:#fefefe;"/>
		<path d="M 272.791435 116.861124 L 272.703605 119.535662 C 272.700772 119.623491 272.607277 119.682988 272.527947 119.643323 L 265.082308 116.115994 Q 264.949148 116.053664 264.920816 116.198157 L 264.674328 117.532592 L 264.603498 116.373815 L 264.662995 111.914364 L 272.791435 116.861124 Z" style="fill:#f86521;"/>
		<path d="M 330.478141 121.756887 L 318.19057 121.810718 C 318.026244 121.810718 317.876085 121.711556 317.813754 121.558564 C 316.501985 118.354219 313.773617 115.628684 310.931921 113.71911 L 309.917637 113.030643 Q 310.980085 113.325296 312.042534 113.09014 Q 312.18136 113.058975 312.314521 113.104306 Q 312.861328 113.291297 313.017153 113.359294 C 316.340492 114.843889 320.119976 116.835626 322.270372 117.886741 C 324.415101 118.935024 326.528666 120.105134 328.738559 121.017423 Q 329.520521 121.340408 330.478141 121.756887 Z" style="fill:#f86521;"/>
		<path d="M 272.791435 116.861124 Q 276.562419 119.201344 280.523227 121.201581 Q 280.540226 121.210081 280.803713 121.286577 Q 281.072867 121.365906 281.061534 121.77672 L 280.676219 121.793719 L 263.1784 121.771053 Q 263.781871 121.530232 264.15302 121.56423 Q 264.611997 121.606728 264.617664 121.14775 L 264.674328 117.532592 L 264.920816 116.198157 Q 264.949148 116.053664 265.082308 116.115994 L 272.527947 119.643323 C 272.607277 119.682988 272.700772 119.623491 272.703605 119.535662 L 272.791435 116.861124 Z" style="fill:#f04230;"/>
		<path d="M 183.528757 141.688422 Q 181.590851 146.618184 177.533714 150.091682 Q 177.06057 150.496829 174.533359 151.975757 Q 172.289468 153.287527 169.677261 153.301693 C 168.288995 153.310193 166.727904 153.542515 165.611625 153.551014 Q 162.027632 153.579346 158.786455 152.344073 Q 157.021374 151.672605 155.630275 150.462831 C 151.493808 146.856172 149.269749 141.685589 149.357578 136.214687 Q 149.405743 127.743431 156.14875 122.966662 C 160.914185 119.589492 166.861064 118.867027 172.303634 120.955093 Q 179.015476 123.530468 181.930834 130.355638 Q 182.163156 130.902445 182.800626 133.149169 Q 183.282269 134.85192 183.80641 135.860538 Q 184.101063 136.43001 184.106729 137.027815 Q 184.118062 138.166759 184.109562 138.268754 Q 184.001901 139.586191 183.528757 141.688422 Z M 167.306556 149.044023 C 173.711732 148.00645 178.023857 141.736587 176.937808 135.039279 C 175.853629 128.341235 169.782089 123.754291 163.378386 124.790617 C 156.97321 125.82819 152.661085 132.098053 153.747134 138.795361 C 154.831313 145.493405 160.902853 150.080349 167.306556 149.044023 Z" style="fill:#252b70;"/>
		<path d="M 311.181242 152.055087 Q 305.43552 153.854166 299.525473 153.64451 Q 298.69818 153.616178 297.800057 153.471685 C 296.051975 153.188365 294.411554 152.822883 292.827798 152.072086 Q 291.337537 151.363787 289.988935 150.14268 C 286.09329 146.604018 283.8409 141.756419 283.880564 136.432843 Q 284.030724 135.359062 284.155384 134.265448 Q 284.58603 130.426468 286.654263 127.329784 Q 290.000268 122.320693 295.519334 120.515947 Q 297.978548 119.71132 301.10923 119.759484 Q 306.265647 119.83598 310.447444 122.723007 Q 312.790498 124.340762 314.082435 126.077512 C 315.890014 128.508394 316.853301 131.06677 317.507769 134.055792 Q 317.558767 134.285281 318.04041 135.886037 C 318.564551 137.631285 318.227401 139.951673 317.649429 141.628925 Q 316.623812 144.592448 314.717071 147.349148 C 313.770784 148.711915 312.266356 150.097348 310.869591 151.341121 Q 310.566439 151.613108 310.849758 151.885095 Q 310.869591 151.904928 311.181242 152.055087 Z M 288.280518 137.710615 C 288.665833 143.190016 292.29799 147.918621 297.777391 148.952737 C 305.565848 150.425999 312.388184 143.702825 311.849877 136.047529 C 311.308736 128.392233 303.610942 122.691842 296.105806 125.244552 C 290.827561 127.037965 287.895203 132.22838 288.280518 137.710615 Z" style="fill:#252b70;"/>
		<path d="M 133.667338 120.360122 L 133.639006 120.124966 Q 133.675838 120.232628 133.667338 120.360122 Z" style="fill:#09064e;"/>
		<path d="M 145.654591 124.641081 L 145.393937 124.655247 Q 145.518598 124.621249 145.654591 124.641081 Z" style="fill:#09064e;"/>
		<path d="M 309.4031 41.509298 C 309.44166 42.367898 308.656864 43.098863 307.650938 43.142721 C 306.645295 43.186692 305.801003 42.526557 305.763066 41.668241 C 305.724506 40.809641 306.509302 40.078676 307.515228 40.034818 C 308.520871 39.990847 309.365164 40.650982 309.4031 41.509298 Z" style="fill:#e8383c;"/>
		<path d="M 317.162006 41.589336 C 317.170619 42.472727 316.354658 43.198025 315.340148 43.209273 C 314.32609 43.22069 313.49313 42.512391 313.484744 41.627868 C 313.476131 40.744477 314.292092 40.019179 315.306602 40.007931 C 316.32066 39.996513 317.15362 40.704812 317.162006 41.589336 Z" style="fill:#e8383c;"/>
		<path d="M 324.771546 41.601122 C 324.791917 42.478393 323.998622 43.206524 322.997597 43.231542 C 321.995552 43.254689 321.168259 42.566222 321.146131 41.689745 C 321.125761 40.812474 321.919056 40.084342 322.92008 40.059325 C 323.922125 40.036178 324.749419 40.724645 324.771546 41.601122 Z" style="fill:#e8383c;"/>
		<path d="M 312.759333 70.697027 Q 313.104982 71.541319 313.107816 72.042795 Q 313.119148 75.24714 313.14748 78.451484 Q 313.167313 80.440388 313.16448 82.454791 C 308.53787 82.352795 304.497733 82.494455 300.287603 82.474623 C 295.193516 82.451957 290.464912 82.522787 285.554983 82.398127 Q 283.860732 82.355629 282.860614 81.250682 Q 284.563365 82.120473 286.237783 82.194137 Q 288.934986 82.307464 292.198828 82.341463 C 292.215827 82.341463 292.232826 82.33013 292.23566 82.315964 Q 292.759801 80.630212 292.745635 78.717805 Q 292.623808 63.169224 292.700304 53.187874 Q 292.703137 52.79406 292.623808 51.895937 Q 292.612475 51.748611 292.482148 51.680614 Q 290.870059 50.816489 289.223972 50.779658 Q 286.147121 50.711661 283.571746 50.079858 Q 290.887058 49.601048 297.088925 49.824871 Q 298.987166 49.892867 300.043948 51.587119 Q 303.219961 56.664206 306.636796 61.579801 Q 309.77881 66.095916 312.759333 70.697027 Z M 299.661467 57.239345 Q 299.650134 59.182917 299.650134 59.732558 Q 299.635968 66.237576 299.590637 79.842584 Q 299.587804 80.712375 299.890956 81.531169 Q 299.93912 81.664329 300.08078 81.678495 Q 303.021637 81.953315 306.990945 81.825821 C 307.064608 81.822988 307.126939 81.774823 307.146771 81.703994 Q 307.413091 80.68121 307.418758 79.649926 Q 307.43859 72.651932 307.347928 66.362236 Q 307.316763 64.047515 306.214649 62.378763 C 304.778219 60.205701 303.211462 58.199798 301.987521 55.964407 Q 301.095064 54.335319 300.196941 53.060381 Q 299.689799 52.340749 299.686966 53.21904 Q 299.684132 53.593021 299.661467 57.239345 Z" style="fill:#0751ab;"/>
		<path d="M 283.571746 50.079858 Q 286.147121 50.711661 289.223972 50.779658 Q 290.870059 50.816489 292.482148 51.680614 Q 292.612475 51.748611 292.623808 51.895937 Q 292.703137 52.79406 292.700304 53.187874 Q 292.623808 63.169224 292.745635 78.717805 Q 292.759801 80.630212 292.23566 82.315964 C 292.232826 82.33013 292.215827 82.341463 292.198828 82.341463 Q 288.934986 82.307464 286.237783 82.194137 Q 284.563365 82.120473 282.860614 81.250682 Q 281.367519 79.700924 281.367519 77.355038 Q 281.353353 65.721934 281.333521 54.094497 Q 281.330688 51.720279 283.571746 50.079858 Z" style="fill:#0767bb;"/>
		<path d="M 313.16448 82.454791 Q 313.167313 80.440388 313.14748 78.451484 Q 313.119148 75.24714 313.107816 72.042795 Q 313.104982 71.541319 312.759333 70.697027 Q 312.866994 70.742358 312.977489 70.864185 Q 313.065318 70.960514 313.059651 70.830187 C 312.983155 68.999942 313.311806 67.297191 313.50163 65.653937 Q 313.518629 65.512278 313.646123 65.449947 Q 315.450869 64.56599 317.652262 64.591489 C 317.711759 64.591489 317.75709 64.63682 317.759924 64.696317 C 317.833587 69.362591 318.071575 74.323518 317.853419 79.273111 Q 317.83642 79.641427 317.986579 79.944579 Q 318.034744 80.040907 318.046077 79.933246 L 318.541886 75.530459 C 318.561718 75.346301 318.717544 75.207475 318.901702 75.207475 L 321.751897 75.207475 C 321.817061 75.207475 321.870891 75.258472 321.876558 75.326469 Q 322.023884 77.448533 321.95872 77.938676 Q 321.890724 78.47415 322.16271 79.097453 C 322.528193 79.950245 322.25054 81.466005 321.848226 82.262133 C 321.281586 83.392578 319.542004 83.726896 318.383227 83.84589 C 318.241567 83.860056 318.128239 83.97055 318.108407 84.109377 Q 317.76559 86.466596 317.150787 90.248913 C 316.938297 91.566349 315.210047 91.27453 314.292092 91.118704 C 314.045604 91.076206 313.872779 90.852384 313.895444 90.603063 Q 314.190097 87.517712 315.15055 84.418195 C 315.241212 84.12071 315.062721 83.809058 314.759569 83.738228 Q 313.544128 83.452076 313.16448 82.454791 Z" style="fill:#fb9a0d;"/>
		<path d="M 295.485477 92.411917 C 295.485336 93.104775 294.924363 93.668581 294.232553 93.669204 L 281.964842 93.690623 C 281.271191 93.691246 280.707385 93.130274 280.707526 92.437699 L 280.707243 92.273373 C 280.707385 91.580515 281.268357 91.016709 281.960167 91.016086 L 294.227878 90.994667 C 294.92153 90.994044 295.485336 91.555017 295.485194 92.247591 L 295.485477 92.411917 Z" style="fill:#09064e;"/>
		<path d="M 345.001105 101.423039 C 343.958488 99.708955 347.451819 99.346306 348.33861 99.33214 Q 351.996266 99.281142 358.72794 99.150815 Q 359.801721 99.12815 360.776341 99.876114 C 361.467641 100.408754 362.804909 101.797021 362.343098 102.777306 Q 362.014447 103.47144 360.920834 103.479939 Q 353.665018 103.545103 347.675642 103.845421 C 346.593361 103.899252 345.50258 102.244666 345.001105 101.423039 Z" style="fill:#fb9a0d;"/>
		<path d="M 348.171451 108.208543 Q 347.681308 107.160261 348.443438 106.712616 Q 349.2254 106.253638 350.432342 106.137477 Q 351.854606 105.99865 358.410622 106.004317 Q 359.660061 106.004317 360.17287 106.222473 C 361.481807 106.772113 362.144774 108.372869 361.799124 109.707304 C 361.654631 110.265444 361.181488 110.466601 360.65168 110.4836 Q 352.05293 110.772586 350.149022 110.727255 C 349.310396 110.707422 348.559599 109.03017 348.171451 108.208543 Z" style="fill:#f48327;"/>
		<path d="M 360.79334 113.489621 C 361.368479 113.475455 361.844456 113.934433 361.855788 114.509572 L 361.864288 114.849555 C 361.898286 116.481476 360.561018 117.835744 358.880932 117.869742 L 354.614139 117.960405 C 352.934054 117.994403 351.542954 116.699632 351.508956 115.064878 L 351.500457 114.724895 C 351.489124 114.149756 351.945268 113.673779 352.520407 113.662446 L 360.79334 113.489621 Z" style="fill:#fb9a0d;"/>
		<path d="M 167.306556 149.044023 C 160.902853 150.080349 154.831313 145.493405 153.747134 138.795361 C 152.661085 132.098053 156.97321 125.82819 163.378386 124.790617 C 169.782089 123.754291 175.853629 128.341235 176.937808 135.039279 C 178.023857 141.736587 173.711732 148.00645 167.306556 149.044023 Z M 164.930808 140.268594 C 166.583411 140.243492 167.900847 138.792896 167.872147 137.028976 C 167.844183 135.265567 166.481416 133.857468 164.830512 133.883364 C 163.177909 133.908466 161.860473 135.359062 161.889173 137.122982 C 161.917137 138.886391 163.279904 140.29449 164.930808 140.268594 Z" style="fill:#f48327;"/>
		<path d="M 311.849877 136.047529 C 312.388184 143.702825 305.565848 150.425999 297.777391 148.952737 C 292.29799 147.918621 288.665833 143.190016 288.280518 137.710615 C 287.895203 132.22838 290.827561 127.037965 296.105806 125.244552 C 303.610942 122.691842 311.308736 128.392233 311.849877 136.047529 Z M 299.14251 140.254513 C 300.837243 140.359653 302.302006 139.008219 302.409582 137.238321 C 302.517328 135.469557 301.231057 133.950964 299.534455 133.846447 C 297.839722 133.741307 296.374959 135.092742 296.267383 136.862639 C 296.159636 138.631404 297.445907 140.149997 299.14251 140.254513 Z" style="fill:#f48327;"/>
		<path d="M 355.534928 131.027105 Q 355.656755 130.058152 355.469764 129.191194 Q 355.384768 128.800213 355.784249 128.746382 Q 357.781652 128.468729 359.954714 128.709551 C 360.739509 128.79738 360.691345 130.315973 360.626181 130.910944 C 360.566684 131.435085 360.263532 131.656075 359.730891 131.692906 Q 357.189514 131.862898 354.724634 131.471917 C 354.458313 131.429419 354.25149 131.219762 354.211825 130.956275 Q 354.078665 130.063818 354.214658 129.511345 Q 354.288322 129.211026 354.571641 129.086366 L 354.7388 129.015536 Q 355.024953 128.890875 354.973955 129.19686 Q 354.786964 130.310307 355.401768 131.06677 Q 355.515095 131.202763 355.534928 131.027105 Z" style="fill:#252b70;"/>
		<path d="M 299.661467 57.239345 Q 299.684132 53.593021 299.686966 53.21904 Q 299.689799 52.340749 300.196941 53.060381 Q 301.095064 54.335319 301.987521 55.964407 C 303.211462 58.199798 304.778219 60.205701 306.214649 62.378763 Q 307.316763 64.047515 307.347928 66.362236 Q 307.43859 72.651932 307.418758 79.649926 Q 307.413091 80.68121 307.146771 81.703994 C 307.126939 81.774823 307.064608 81.822988 306.990945 81.825821 Q 303.021637 81.953315 300.08078 81.678495 Q 299.93912 81.664329 299.890956 81.531169 Q 299.587804 80.712375 299.590637 79.842584 Q 299.635968 66.237576 299.650134 59.732558 Q 299.650134 59.182917 299.661467 57.239345 Z" style="fill:#0767bb;"/>
		<path d="M 299.14251 140.254513 C 297.445907 140.149997 296.159636 138.631404 296.267383 136.862639 C 296.374959 135.092742 297.839722 133.741307 299.534455 133.846447 C 301.231057 133.950964 302.517328 135.469557 302.409582 137.238321 C 302.302006 139.008219 300.837243 140.359653 299.14251 140.254513 Z" style="fill:#09064e;"/>
		<path d="M 164.930808 140.268594 C 163.279904 140.29449 161.917137 138.886391 161.889173 137.122982 C 161.860473 135.359062 163.177909 133.908466 164.830512 133.883364 C 166.481416 133.857468 167.844183 135.265567 167.872147 137.028976 C 167.900847 138.792896 166.583411 140.243492 164.930808 140.268594 Z" style="fill:#09064e;"/>
	</g>
	<g id="surface4">
	</g>
</svg>
