<?xml version="1.0" encoding="utf-8"?>
<svg xmlns="http://www.w3.org/2000/svg" width="490pt" height="280pt" viewBox="0 0 490 280" version="1.1" xmlns:xlink="http://www.w3.org/1999/xlink">
	<g id="surface2">
		<path vector-effect="non-scaling-stroke" d="M 264.723099 21.284496 Q 264.476002 21.52955 264.19419 21.725594 C 263.111867 22.477093 262.080597 23.332741 261.028906 24.188389 Q 253.103444 30.643526 245.245371 37.176263 Q 245.106507 37.292664 245.004401 37.478497 Q 244.910464 37.652077 244.800189 37.80932" style="fill:none;stroke-width:0.50;stroke:#f7dedc;"/>
		<path vector-effect="non-scaling-stroke" d="M 244.800189 37.80932 Q 236.0007 30.380092 227.164453 23.050929 C 226.562028 22.55061 225.73497 21.776647 224.967133 21.194643 C 224.875238 21.125211 224.754753 21.102747 224.650605 21.072116" style="fill:none;stroke-width:0.50;stroke:#f9da7b;"/>
		<path vector-effect="non-scaling-stroke" d="M 224.650605 21.072116 Q 224.505614 21.04761 224.460688 20.925083" style="fill:none;stroke-width:0.50;stroke:#f7dedc;"/>
		<path vector-effect="non-scaling-stroke" d="M 224.650605 21.072116 Q 224.360624 21.188516 224.301402 21.259991 Q 223.321185 22.456672 221.999935 23.087687" style="fill:none;stroke-width:0.50;stroke:#f5bd67;"/>
		<path vector-effect="non-scaling-stroke" d="M 244.800189 37.80932 Q 244.828779 37.909384 244.910464 37.995153" style="fill:none;stroke-width:0.50;stroke:#f5bd67;"/>
		<path vector-effect="non-scaling-stroke" d="M 244.910464 37.995153 Q 245.026864 38.769116 245.020738 39.822849 Q 244.990106 45.932868 245.002359 62.030889 C 245.004401 62.721125 245.037075 63.194897 244.561261 63.572689 Q 239.592787 67.513978 232.081874 73.558649 Q 228.499998 76.442121 224.846648 79.252076" style="fill:none;stroke-width:0.50;stroke:#f9da7b;"/>
		<path vector-effect="non-scaling-stroke" d="M 224.846648 79.252076 Q 224.705742 79.254118 224.546457 79.125465 C 220.290681 75.694705 215.677535 71.741163 211.00721 67.885643 Q 201.586917 60.105171 192.127823 52.371668 Q 191.027121 51.473136 189.818187 50.57052" style="fill:none;stroke-width:0.50;stroke:#c37342;"/>
		<path vector-effect="non-scaling-stroke" d="M 281.778874 36.142951 Q 282.195466 36.669818 282.561005 36.988388 C 287.968535 41.691388 293.204528 45.957374 300.029288 51.383283" style="fill:none;stroke-width:0.50;stroke:#c177a3;"/>
		<path vector-effect="non-scaling-stroke" d="M 300.029288 51.383283 C 299.359473 51.887686 298.632479 52.365542 298.009633 52.853608 Q 288.2626 60.485006 284.588829 63.472625 Q 281.684936 65.831272 280.161516 67.00549" style="fill:none;stroke-width:0.50;stroke:#f5bd67;"/>
		<path vector-effect="non-scaling-stroke" d="M 280.161516 67.00549 C 279.936883 66.850289 279.706123 66.79311 279.508038 66.627698 Q 263.681618 53.378433 247.791893 40.20881 Q 247.465154 39.937208 245.006443 37.964521 Q 244.941095 37.911426 244.910464 37.995153" style="fill:none;stroke-width:0.50;stroke:#f7dedc;"/>
		<path vector-effect="non-scaling-stroke" d="M 224.901785 79.297002 Q 224.693489 79.309255 224.564836 79.448119 Q 224.495404 79.523678 224.401466 79.566562 Q 223.9522 79.774858 223.782704 79.909638 Q 215.117995 86.783409 207.562156 92.975113 Q 205.718123 94.488323 204.384619 95.546141 Q 199.113911 99.730442 190.481876 106.853351 Q 190.167389 107.114743 189.991767 106.757372 C 189.967262 106.708361 189.955009 106.653224 189.955009 106.598087 L 189.883535 101.94614" style="fill:none;stroke-width:0.50;stroke:#50518b;"/>
		<path vector-effect="non-scaling-stroke" d="M 164.5 81.298279 Q 165.392406 80.722401 166.168411 80.083218 Q 176.648564 71.455267 187.11238 62.808937 Q 187.116464 62.806894 187.698468 62.404597 Q 188.051754 62.163627 188.162029 61.840972" style="fill:none;stroke-width:0.50;stroke:#8e66a0;"/>
		<path vector-effect="non-scaling-stroke" d="M 189.852903 60.521764 Q 190.028525 56.372179 189.885577 52.185835" style="fill:none;stroke-width:0.50;stroke:#8e66a0;"/>
		<path vector-effect="non-scaling-stroke" d="M 280.161516 67.00549 L 264.861963 79.515509" style="fill:none;stroke-width:0.50;stroke:#f9da7b;"/>
		<path vector-effect="non-scaling-stroke" d="M 264.861963 79.515509 Q 264.719015 79.52572 264.549519 79.480793" style="fill:none;stroke-width:0.50;stroke:#f9ab9b;"/>
		<path vector-effect="non-scaling-stroke" d="M 264.549519 79.480793 L 245.280087 63.670711 C 245.171855 63.5829 245.010528 63.635995 244.975812 63.770774 Q 244.934969 63.938228 244.937011 64.30581 Q 244.979896 69.300832 244.949264 95.26637 Q 244.947222 95.444035 244.847158 95.488961" style="fill:none;stroke-width:0.50;stroke:#c4cdd9;"/>
		<path vector-effect="non-scaling-stroke" d="M 244.847158 95.488961 L 224.901785 79.297002" style="fill:none;stroke-width:0.50;stroke:#86b8c4;"/>
		<path vector-effect="non-scaling-stroke" d="M 224.901785 79.297002 Q 224.873196 79.274539 224.846648 79.252076" style="fill:none;stroke-width:0.50;stroke:#c593b7;"/>
		<path vector-effect="non-scaling-stroke" d="M 300.327437 52.032676 L 300.327437 52.222593" style="fill:none;stroke-width:0.50;stroke:#c37342;"/>
		<path vector-effect="non-scaling-stroke" d="M 325.661961 80.955203 Q 325.096294 81.986473 324.753218 82.196811 Q 323.701527 82.840078 322.747858 83.609957 Q 321.193806 84.861776 320.832351 85.13542 Q 320.236052 85.584686 319.227245 86.40766 Q 318.138796 87.293939 317.624182 87.677857 Q 316.059919 88.850033 315.122587 89.619912 Q 313.433755 91.010595 312.065535 92.01736 Q 311.785765 92.221571 311.495784 92.505426 Q 311.156793 92.836249 310.936244 92.995534 Q 309.374023 94.12891 308.365216 94.892663 Q 308.152836 95.05399 307.746454 95.435866 C 307.246135 95.905553 306.453793 96.383409 306.096423 96.671348 Q 304.015504 98.345885 302.061196 99.855011 Q 302.053028 99.863179 301.191254 100.465604 Q 300.829799 100.718827 300.268216 101.268157 Q 300.00274 101.527506 299.984361 101.823613 C 299.874087 103.436887 300.025204 105.223741 300.012951 107.149459 Q 300.010909 107.453734 300.223289 107.472113" style="fill:none;stroke-width:0.50;stroke:#c2ac64;"/>
		<path vector-effect="non-scaling-stroke" d="M 299.688254 108.148055 Q 299.626991 108.16235 299.586148 108.154181 Q 299.486084 108.13376 299.535095 108.043907 Q 299.598401 107.929548 299.586148 107.876453 Q 299.573896 107.827442 299.516716 107.782515 Q 298.048433 106.65935 292.275364 101.915509 Q 282.501784 93.881814 265.84218 80.407915 Q 265.162154 79.858585 264.861963 79.515509" style="fill:none;stroke-width:0.50;stroke:#f78a26;"/>
		<path vector-effect="non-scaling-stroke" d="M 300.292721 51.511936 Q 300.131394 51.340398 300.029288 51.383283" style="fill:none;stroke-width:0.50;stroke:#c37342;"/>
		<path vector-effect="non-scaling-stroke" d="M 282.070897 35.955076 Q 282.618184 35.769244 283.065408 35.39962 Q 286.118376 32.879646 289.201975 30.394387 Q 290.849965 29.069052 293.923353 26.602173 Q 295.85724 25.052205 299.778107 21.768478" style="fill:none;stroke-width:0.50;stroke:#8e66a0;"/>
		<path vector-effect="non-scaling-stroke" d="M 189.814103 55.38992 Q 189.785513 55.26535 189.816145 55.144865" style="fill:none;stroke-width:0.50;stroke:#8e66a0;"/>
		<path vector-effect="non-scaling-stroke" d="M 244.898211 95.544098 L 244.926801 119.230633" style="fill:none;stroke-width:0.50;stroke:#84686f;"/>
		<path vector-effect="non-scaling-stroke" d="M 244.926801 119.230633 L 224.881364 135.688067" style="fill:none;stroke-width:0.50;stroke:#806f9f;"/>
		<path vector-effect="non-scaling-stroke" d="M 189.795724 105.72406 L 189.807976 105.180856" style="fill:none;stroke-width:0.50;stroke:#50518b;"/>
		<path vector-effect="non-scaling-stroke" d="M 264.549519 79.480793 Q 264.408613 79.762606 264.19419 79.936186 Q 255.116973 87.326613 246.023418 94.696619 Q 245.847796 94.839567 245.296424 95.456287 Q 245.229034 95.531846 245.12897 95.521635 Q 244.992148 95.505298 244.898211 95.544098" style="fill:none;stroke-width:0.50;stroke:#c27d84;"/>
		<path vector-effect="non-scaling-stroke" d="M 244.898211 95.544098 Q 244.892085 95.515509 244.847158 95.488961" style="fill:none;stroke-width:0.50;stroke:#4f8aad;"/>
		<path vector-effect="non-scaling-stroke" d="M 265.366366 135.698277 Q 264.588319 135.391959 263.824567 134.752776 Q 257.140712 129.173708 245.065665 119.336823" style="fill:none;stroke-width:0.50;stroke:#c34462;"/>
		<path vector-effect="non-scaling-stroke" d="M 245.065665 119.336823 Q 244.924759 119.163243 244.926801 119.230633" style="fill:none;stroke-width:0.50;stroke:#f36276;"/>
		<path vector-effect="non-scaling-stroke" d="M 245.065665 119.336823 Q 244.959475 119.426676 244.959475 119.567582 Q 244.98398 135.71053 244.957432 152.084237" style="fill:none;stroke-width:0.50;stroke:#bf4a92;"/>
		<path d="M 264.723099 21.284496 Q 264.476002 21.52955 264.19419 21.725594 C 263.111867 22.477093 262.080597 23.332741 261.028906 24.188389 Q 253.103444 30.643526 245.245371 37.176263 Q 245.106507 37.292664 245.004401 37.478497 Q 244.910464 37.652077 244.800189 37.80932 Q 236.0007 30.380092 227.164453 23.050929 C 226.562028 22.55061 225.73497 21.776647 224.967133 21.194643 C 224.875238 21.125211 224.754753 21.102747 224.650605 21.072116 Q 224.505614 21.04761 224.460688 20.925083 L 244.428524 4.149079 Q 244.585767 4.018383 244.740968 4.151121 L 264.723099 21.284496 Z" style="fill:#fbfaf0;"/>
		<path d="M 224.460688 20.925083 Q 224.505614 21.04761 224.650605 21.072116 Q 224.360624 21.188516 224.301402 21.259991 Q 223.321185 22.456672 221.999935 23.087687 L 224.460688 20.925083 Z" style="fill:#f2c1c7;"/>
		<path d="M 224.650605 21.072116 C 224.754753 21.102747 224.875238 21.125211 224.967133 21.194643 C 225.73497 21.776647 226.562028 22.55061 227.164453 23.050929 Q 236.0007 30.380092 244.800189 37.80932 Q 244.828779 37.909384 244.910464 37.995153 Q 245.026864 38.769116 245.020738 39.822849 Q 244.990106 45.932868 245.002359 62.030889 C 245.004401 62.721125 245.037075 63.194897 244.561261 63.572689 Q 239.592787 67.513978 232.081874 73.558649 Q 228.499998 76.442121 224.846648 79.252076 Q 224.705742 79.254118 224.546457 79.125465 C 220.290681 75.694705 215.677535 71.741163 211.00721 67.885643 Q 201.586917 60.105171 192.127823 52.371668 Q 191.027121 51.473136 189.818187 50.57052 Q 189.793682 50.31117 190.055073 50.062032 Q 190.69834 49.453481 192.901786 47.603321 Q 202.906125 39.206129 212.883917 30.778306 Q 217.462347 26.910533 221.999935 23.087687 Q 223.321185 22.456672 224.301402 21.259991 Q 224.360624 21.188516 224.650605 21.072116 Z" style="fill:#f7b906;"/>
		<path d="M 281.778874 36.142951 Q 282.195466 36.669818 282.561005 36.988388 C 287.968535 41.691388 293.204528 45.957374 300.029288 51.383283 C 299.359473 51.887686 298.632479 52.365542 298.009633 52.853608 Q 288.2626 60.485006 284.588829 63.472625 Q 281.684936 65.831272 280.161516 67.00549 C 279.936883 66.850289 279.706123 66.79311 279.508038 66.627698 Q 263.681618 53.378433 247.791893 40.20881 Q 247.465154 39.937208 245.006443 37.964521 Q 244.941095 37.911426 244.910464 37.995153 Q 244.828779 37.909384 244.800189 37.80932 Q 244.910464 37.652077 245.004401 37.478497 Q 245.106507 37.292664 245.245371 37.176263 Q 253.103444 30.643526 261.028906 24.188389 C 262.080597 23.332741 263.111867 22.477093 264.19419 21.725594 Q 264.476002 21.52955 264.723099 21.284496 L 281.778874 36.142951 Z" style="fill:#f2c1c7;"/>
		<path d="M 300.292721 51.511936 Q 300.131394 51.340398 300.029288 51.383283 C 293.204528 45.957374 287.968535 41.691388 282.561005 36.988388 Q 282.195466 36.669818 281.778874 36.142951 Q 282.060686 35.830507 282.070897 35.955076 Q 282.618184 35.769244 283.065408 35.39962 Q 286.118376 32.879646 289.201975 30.394387 Q 290.849965 29.069052 293.923353 26.602173 Q 295.85724 25.052205 299.778107 21.768478 Q 299.870003 21.660246 300.03133 21.623488 C 300.188573 21.588772 300.33969 21.709257 300.33969 21.870584 L 300.292721 51.511936 Z" style="fill:#8f2c7e;"/>
		<path d="M 299.778107 21.768478 Q 295.85724 25.052205 293.923353 26.602173 Q 290.849965 29.069052 289.201975 30.394387 Q 286.118376 32.879646 283.065408 35.39962 Q 282.618184 35.769244 282.070897 35.955076 C 282.481363 35.585453 282.98985 35.266882 283.351305 34.966691 C 285.734458 32.975625 288.164579 31.103002 290.349646 29.293685 Q 293.327055 26.826806 297.435797 23.528784 C 298.02597 23.057055 298.844859 22.293303 299.57798 21.792984 Q 299.651496 21.741931 299.778107 21.768478 Z" style="fill:#8d9fc2;"/>
		<path d="M 280.161516 67.00549 L 264.861963 79.515509 Q 264.719015 79.52572 264.549519 79.480793 L 245.280087 63.670711 C 245.171855 63.5829 245.010528 63.635995 244.975812 63.770774 Q 244.934969 63.938228 244.937011 64.30581 Q 244.979896 69.300832 244.949264 95.26637 Q 244.947222 95.444035 244.847158 95.488961 L 224.901785 79.297002 Q 224.873196 79.274539 224.846648 79.252076 Q 228.499998 76.442121 232.081874 73.558649 Q 239.592787 67.513978 244.561261 63.572689 C 245.037075 63.194897 245.004401 62.721125 245.002359 62.030889 Q 244.990106 45.932868 245.020738 39.822849 Q 245.026864 38.769116 244.910464 37.995153 Q 244.941095 37.911426 245.006443 37.964521 Q 247.465154 39.937208 247.791893 40.20881 Q 263.681618 53.378433 279.508038 66.627698 C 279.706123 66.79311 279.936883 66.850289 280.161516 67.00549 Z" style="fill:#fbfaf0;"/>
		<path d="M 224.846648 79.252076 Q 224.873196 79.274539 224.901785 79.297002 Q 224.693489 79.309255 224.564836 79.448119 Q 224.495404 79.523678 224.401466 79.566562 Q 223.9522 79.774858 223.782704 79.909638 Q 215.117995 86.783409 207.562156 92.975113 Q 205.718123 94.488323 204.384619 95.546141 Q 199.113911 99.730442 190.481876 106.853351 Q 190.167389 107.114743 189.991767 106.757372 C 189.967262 106.708361 189.955009 106.653224 189.955009 106.598087 L 189.883535 101.94614 Q 189.73446 101.62757 189.485322 101.4254 Q 178.218953 92.282835 166.519655 83.087175 Q 165.365858 82.180474 164.730759 81.73325 Q 164.608232 81.649523 164.569432 81.549459 Q 164.526548 81.443269 164.5 81.298279 Q 165.392406 80.722401 166.168411 80.083218 Q 176.648564 71.455267 187.11238 62.808937 Q 187.116464 62.806894 187.698468 62.404597 Q 188.051754 62.163627 188.162029 61.840972 L 189.852903 60.521764 Q 190.028525 56.372179 189.885577 52.185835 L 189.818187 50.57052 Q 191.027121 51.473136 192.127823 52.371668 Q 201.586917 60.105171 211.00721 67.885643 C 215.677535 71.741163 220.290681 75.694705 224.546457 79.125465 Q 224.705742 79.254118 224.846648 79.252076 Z" style="fill:#8f2c7e;"/>
		<path d="M 300.292721 51.511936 L 300.327437 52.032676 L 300.327437 52.222593 Q 300.30089 55.849396 300.319269 59.478241 C 300.321311 60.101087 300.480596 60.368605 300.985 60.785197 Q 316.025203 73.180857 318.283787 74.98609 Q 323.630053 79.254118 325.661961 80.955203 Q 325.096294 81.986473 324.753218 82.196811 Q 323.701527 82.840078 322.747858 83.609957 Q 321.193806 84.861776 320.832351 85.13542 Q 320.236052 85.584686 319.227245 86.40766 Q 318.138796 87.293939 317.624182 87.677857 Q 316.059919 88.850033 315.122587 89.619912 Q 313.433755 91.010595 312.065535 92.01736 Q 311.785765 92.221571 311.495784 92.505426 Q 311.156793 92.836249 310.936244 92.995534 Q 309.374023 94.12891 308.365216 94.892663 Q 308.152836 95.05399 307.746454 95.435866 C 307.246135 95.905553 306.453793 96.383409 306.096423 96.671348 Q 304.015504 98.345885 302.061196 99.855011 Q 302.053028 99.863179 301.191254 100.465604 Q 300.829799 100.718827 300.268216 101.268157 Q 300.00274 101.527506 299.984361 101.823613 C 299.874087 103.436887 300.025204 105.223741 300.012951 107.149459 Q 300.010909 107.453734 300.223289 107.472113 L 299.688254 108.148055 Q 299.626991 108.16235 299.586148 108.154181 Q 299.486084 108.13376 299.535095 108.043907 Q 299.598401 107.929548 299.586148 107.876453 Q 299.573896 107.827442 299.516716 107.782515 Q 298.048433 106.65935 292.275364 101.915509 Q 282.501784 93.881814 265.84218 80.407915 Q 265.162154 79.858585 264.861963 79.515509 L 280.161516 67.00549 Q 281.684936 65.831272 284.588829 63.472625 Q 288.2626 60.485006 298.009633 52.853608 C 298.632479 52.365542 299.359473 51.887686 300.029288 51.383283 Q 300.131394 51.340398 300.292721 51.511936 Z" style="fill:#f7b906;"/>
		<path d="M 300.327437 52.032676 L 300.327437 52.222593 L 300.327437 52.032676 Z" style="fill:#8f2c7e;"/>
		<path d="M 189.852903 60.521764 L 189.814103 55.38992 Q 189.785513 55.26535 189.816145 55.144865 L 189.885577 52.185835 Q 190.028525 56.372179 189.852903 60.521764 Z" style="fill:#8d9fc2;"/>
		<path d="M 189.816145 55.144865 Q 189.785513 55.26535 189.814103 55.38992 Q 189.767134 55.259224 189.816145 55.144865 Z" style="fill:#8f2c7e;"/>
		<path d="M 188.162029 61.840972 Q 188.051754 62.163627 187.698468 62.404597 Q 187.116464 62.806894 187.11238 62.808937 Q 176.648564 71.455267 166.168411 80.083218 Q 165.392406 80.722401 164.5 81.298279 Q 164.794065 80.953161 165.792661 80.164903 Q 166.627888 79.507341 171.653542 75.327124 C 177.099872 70.795663 182.556413 66.358139 186.050478 63.464457 Q 187.04499 62.641483 188.162029 61.840972 Z" style="fill:#8d9fc2;"/>
		<path d="M 264.549519 79.480793 Q 264.408613 79.762606 264.19419 79.936186 Q 255.116973 87.326613 246.023418 94.696619 Q 245.847796 94.839567 245.296424 95.456287 Q 245.229034 95.531846 245.12897 95.521635 Q 244.992148 95.505298 244.898211 95.544098 Q 244.892085 95.515509 244.847158 95.488961 Q 244.947222 95.444035 244.949264 95.26637 Q 244.979896 69.300832 244.937011 64.30581 Q 244.934969 63.938228 244.975812 63.770774 C 245.010528 63.635995 245.171855 63.5829 245.280087 63.670711 L 264.549519 79.480793 Z" style="fill:#8d9fc2;"/>
		<path d="M 224.901785 79.297002 L 244.847158 95.488961 Q 244.892085 95.515509 244.898211 95.544098 L 244.926801 119.230633 L 224.881364 135.688067 Q 207.639756 121.581111 190.214358 107.380218 C 189.709955 106.96771 189.740586 106.310148 189.795724 105.72406 L 189.807976 105.180856 L 189.883535 101.94614 L 189.955009 106.598087 C 189.955009 106.653224 189.967262 106.708361 189.991767 106.757372 Q 190.167389 107.114743 190.481876 106.853351 Q 199.113911 99.730442 204.384619 95.546141 Q 205.718123 94.488323 207.562156 92.975113 Q 215.117995 86.783409 223.782704 79.909638 Q 223.9522 79.774858 224.401466 79.566562 Q 224.495404 79.523678 224.564836 79.448119 Q 224.693489 79.309255 224.901785 79.297002 Z" style="fill:#117597;"/>
		<path d="M 264.861963 79.515509 Q 265.162154 79.858585 265.84218 80.407915 Q 282.501784 93.881814 292.275364 101.915509 Q 298.048433 106.65935 299.516716 107.782515 Q 299.573896 107.827442 299.586148 107.876453 Q 299.598401 107.929548 299.535095 108.043907 Q 299.486084 108.13376 299.586148 108.154181 Q 299.626991 108.16235 299.688254 108.148055 C 298.669237 108.891386 297.652262 109.622464 296.661834 110.414806 Q 281.421503 122.610339 266.224056 134.858967 Q 265.970833 135.063178 265.366366 135.698277 Q 264.588319 135.391959 263.824567 134.752776 Q 257.140712 129.173708 245.065665 119.336823 Q 244.924759 119.163243 244.926801 119.230633 L 244.898211 95.544098 Q 244.992148 95.505298 245.12897 95.521635 Q 245.229034 95.531846 245.296424 95.456287 Q 245.847796 94.839567 246.023418 94.696619 Q 255.116973 87.326613 264.19419 79.936186 Q 264.408613 79.762606 264.549519 79.480793 Q 264.719015 79.52572 264.861963 79.515509 Z" style="fill:#f75b46;"/>
		<path d="M 325.661961 80.955203 Q 325.80491 81.14512 325.864131 81.296237 C 325.970321 81.567838 325.719141 81.80064 325.519013 81.941546 C 323.509568 83.377156 321.001846 85.44378 319.306888 86.752778 C 317.350538 88.263945 314.965344 90.191705 312.866046 91.798853 Q 307.642306 95.791195 301.989722 100.322656 Q 301.203506 100.951629 300.772619 101.249778 C 300.364195 101.53159 300.231458 101.788897 300.245753 102.315764 Q 300.321311 104.917423 300.223289 107.472113 Q 300.010909 107.453734 300.012951 107.149459 C 300.025204 105.223741 299.874087 103.436887 299.984361 101.823613 Q 300.00274 101.527506 300.268216 101.268157 Q 300.829799 100.718827 301.191254 100.465604 Q 302.053028 99.863179 302.061196 99.855011 Q 304.015504 98.345885 306.096423 96.671348 C 306.453793 96.383409 307.246135 95.905553 307.746454 95.435866 Q 308.152836 95.05399 308.365216 94.892663 Q 309.374023 94.12891 310.936244 92.995534 Q 311.156793 92.836249 311.495784 92.505426 Q 311.785765 92.221571 312.065535 92.01736 Q 313.433755 91.010595 315.122587 89.619912 Q 316.059919 88.850033 317.624182 87.677857 Q 318.138796 87.293939 319.227245 86.40766 Q 320.236052 85.584686 320.832351 85.13542 Q 321.193806 84.861776 322.747858 83.609957 Q 323.701527 82.840078 324.753218 82.196811 Q 325.096294 81.986473 325.661961 80.955203 Z" style="fill:#8d9fc2;"/>
		<path d="M 189.807976 105.180856 L 189.795724 105.72406 L 189.807976 105.180856 Z" style="fill:#8f2c7e;"/>
		<path d="M 245.065665 119.336823 Q 244.959475 119.426676 244.959475 119.567582 Q 244.98398 135.71053 244.957432 152.084237 Q 240.824184 148.892406 236.878811 145.635227 Q 235.110336 144.175112 233.717611 143.051947 Q 229.596616 139.729419 225.540968 136.329292 Q 225.267324 136.098533 224.881364 135.688067 L 244.926801 119.230633 Q 244.924759 119.163243 245.065665 119.336823 Z" style="fill:#ee68a6;"/>
		<path d="M 245.065665 119.336823 Q 257.140712 129.173708 263.824567 134.752776 Q 264.588319 135.391959 265.366366 135.698277 Q 263.714292 137.150224 262.045881 138.491896 Q 253.914165 145.032802 245.825333 151.624761 Q 245.555773 151.843267 244.957432 152.084237 Q 244.98398 135.71053 244.959475 119.567582 Q 244.959475 119.426676 245.065665 119.336823 Z" style="fill:#8f2c7e;"/>
	</g>
	<g id="surface4">
	</g>
</svg>
