<?xml version="1.0" encoding="utf-8"?>
<svg xmlns="http://www.w3.org/2000/svg" width="490pt" height="280pt" viewBox="0 0 490 280" version="1.1" xmlns:xlink="http://www.w3.org/1999/xlink">
	<g id="surface2">
		<path vector-effect="non-scaling-stroke" d="M 273.727611 25.833221 Q 270.607824 26.021252 267.227095 25.875432 Q 267.023714 25.86392 266.993015 25.767986" style="fill:none;stroke-width:0.50;stroke:#82b1c7;"/>
		<path vector-effect="non-scaling-stroke" d="M 223.285292 25.748799 Q 223.246918 25.825546 223.162496 25.833221 Q 219.893051 26.105675 216.696516 25.84857" style="fill:none;stroke-width:0.50;stroke:#82b1c7;"/>
		<path vector-effect="non-scaling-stroke" d="M 322.780799 25.886944 L 322.811498 59.095603" style="fill:none;stroke-width:0.50;stroke:#83ced2;"/>
		<path vector-effect="non-scaling-stroke" d="M 322.811498 59.095603 L 322.957318 71.202527" style="fill:none;stroke-width:0.50;stroke:#83c4cb;"/>
		<path vector-effect="non-scaling-stroke" d="M 322.957318 71.202527 L 261.229275 82.399993 Q 261.029731 82.438367 261.029731 82.641748 L 261.064267 122.554304" style="fill:none;stroke-width:0.50;stroke:#d99a96;"/>
		<path vector-effect="non-scaling-stroke" d="M 261.064267 122.554304 Q 253.4394 123.440738 245.542078 124.419269 C 244.444588 124.557415 242.468339 124.108442 241.328638 124.000995 Q 235.231046 123.413877 229.129617 122.750011" style="fill:none;stroke-width:0.50;stroke:#83c4cb;"/>
		<path vector-effect="non-scaling-stroke" d="M 229.129617 122.750011 L 229.252413 83.029323 C 229.252413 82.875828 229.148804 82.737682 228.999146 82.691634 Q 228.154923 82.446042 227.195579 82.27336 Q 217.322009 80.488979 187.728158 74.878734 Q 182.67817 73.91939 169.166767 71.536379 Q 168.038578 71.336836 167.344013 71.237064" style="fill:none;stroke-width:0.50;stroke:#83ced2;"/>
		<path vector-effect="non-scaling-stroke" d="M 167.344013 71.237064 L 167.393899 25.925318" style="fill:none;stroke-width:0.50;stroke:#83c4cb;"/>
		<path vector-effect="non-scaling-stroke" d="M 167.344013 71.237064 Q 167.02551 72.088961 167.021673 73.953927 Q 166.990974 94.069456 167.090746 115.482019 C 167.094583 115.689237 167.248078 115.865756 167.451459 115.888781 C 178.096343 117.212676 189.017517 118.325515 199.907993 119.630223 Q 212.425516 121.1268 225.303752 122.577329 Q 226.251585 122.684775 227.214766 122.707799 Q 228.181785 122.726986 229.129617 122.750011" style="fill:none;stroke-width:0.50;stroke:#07939e;"/>
		<path vector-effect="non-scaling-stroke" d="M 261.064267 122.554304 Q 265.250845 122.477557 266.26775 122.059283 Q 267.039063 121.74078 267.875611 121.806016 Q 268.773557 121.875089 269.640805 121.698569 Q 271.187267 121.383904 271.359949 121.395416 Q 271.985442 121.429953 272.564886 121.276458 Q 273.036883 121.149824 273.754473 121.069239 Q 296.590702 118.594131 322.04786 115.942504 Q 323.241284 115.819708 323.241284 114.622446 L 323.302682 78.232602" style="fill:none;stroke-width:0.50;stroke:#5d5f62;"/>
		<path vector-effect="non-scaling-stroke" d="M 323.302682 78.232602 Q 323.862939 75.047579 323.406292 71.766622" style="fill:none;stroke-width:0.50;stroke:#067692;"/>
		<path vector-effect="non-scaling-stroke" d="M 323.406292 71.766622 Q 323.214423 71.267763 322.957318 71.202527" style="fill:none;stroke-width:0.50;stroke:#5d5f62;"/>
		<path vector-effect="non-scaling-stroke" d="M 322.811498 59.095603 L 322.953481 57.18459 Q 322.968831 56.985046 323.149187 57.069468 C 328.29511 59.471666 331.042671 52.614274 332.309006 49.175984" style="fill:none;stroke-width:0.50;stroke:#07939e;"/>
		<path vector-effect="non-scaling-stroke" d="M 323.406292 71.766622 L 323.302682 78.232602" style="fill:none;stroke-width:0.50;stroke:#5c4c5e;"/>
		<path vector-effect="non-scaling-stroke" d="M 253.308929 92.189141 C 253.308929 87.614988 249.598185 83.904245 245.024032 83.904245 C 240.449879 83.904245 236.739135 87.614988 236.739135 92.189141 C 236.739135 96.763295 240.449879 100.474038 245.024032 100.474038 C 249.598185 100.474038 253.308929 96.763295 253.308929 92.189141" style="fill:none;stroke-width:0.50;stroke:#d99a96;"/>
		<path d="M 273.727611 25.833221 Q 270.607824 26.021252 267.227095 25.875432 Q 267.023714 25.86392 266.993015 25.767986 L 267.081274 14.593544 C 267.085112 14.478423 266.993015 14.386326 266.877893 14.386326 L 223.354365 14.386326 C 223.235406 14.386326 223.139472 14.486098 223.143309 14.605056 L 223.285292 25.748799 Q 223.246918 25.825546 223.162496 25.833221 Q 219.893051 26.105675 216.696516 25.84857 Q 216.504647 21.316628 216.569883 16.773174 C 216.596744 14.954258 216.665817 12.889749 217.579113 11.347123 Q 219.724207 7.716965 224.052768 7.713127 Q 232.848035 7.701615 265.020603 7.674754 C 267.764327 7.674754 269.828836 7.993256 271.736012 10.172886 Q 272.891063 11.489106 273.37841 13.066268 Q 273.693075 14.083173 273.681562 16.301177 Q 273.662375 21.0365 273.727611 25.833221 Z" style="fill:#05638e;"/>
		<path d="M 266.993015 25.767986 Q 267.023714 25.86392 267.227095 25.875432 Q 270.607824 26.021252 273.727611 25.833221 L 322.780799 25.886944 L 322.811498 59.095603 L 322.957318 71.202527 L 261.229275 82.399993 Q 261.029731 82.438367 261.029731 82.641748 L 261.064267 122.554304 Q 253.4394 123.440738 245.542078 124.419269 C 244.444588 124.557415 242.468339 124.108442 241.328638 124.000995 Q 235.231046 123.413877 229.129617 122.750011 L 229.252413 83.029323 C 229.252413 82.875828 229.148804 82.737682 228.999146 82.691634 Q 228.154923 82.446042 227.195579 82.27336 Q 217.322009 80.488979 187.728158 74.878734 Q 182.67817 73.91939 169.166767 71.536379 Q 168.038578 71.336836 167.344013 71.237064 L 167.393899 25.925318 Q 171.02022 25.748799 173.499165 25.752636 Q 195.06906 25.798685 216.696516 25.84857 Q 219.893051 26.105675 223.162496 25.833221 Q 223.246918 25.825546 223.285292 25.748799 L 266.993015 25.767986 Z M 253.308929 92.189141 C 253.308929 87.614988 249.598185 83.904245 245.024032 83.904245 C 240.449879 83.904245 236.739135 87.614988 236.739135 92.189141 C 236.739135 96.763295 240.449879 100.474038 245.024032 100.474038 C 249.598185 100.474038 253.308929 96.763295 253.308929 92.189141 Z" style="fill:#ffffff;"/>
		<path d="M 167.393899 25.925318 L 167.344013 71.237064 Q 167.02551 72.088961 167.021673 73.953927 Q 166.990974 94.069456 167.090746 115.482019 C 167.094583 115.689237 167.248078 115.865756 167.451459 115.888781 C 178.096343 117.212676 189.017517 118.325515 199.907993 119.630223 Q 212.425516 121.1268 225.303752 122.577329 Q 226.251585 122.684775 227.214766 122.707799 Q 228.181785 122.726986 229.129617 122.750011 Q 235.231046 123.413877 241.328638 124.000995 C 242.468339 124.108442 244.444588 124.557415 245.542078 124.419269 Q 253.4394 123.440738 261.064267 122.554304 Q 265.250845 122.477557 266.26775 122.059283 Q 267.039063 121.74078 267.875611 121.806016 Q 268.773557 121.875089 269.640805 121.698569 Q 271.187267 121.383904 271.359949 121.395416 Q 271.985442 121.429953 272.564886 121.276458 Q 273.036883 121.149824 273.754473 121.069239 Q 296.590702 118.594131 322.04786 115.942504 Q 323.241284 115.819708 323.241284 114.622446 L 323.302682 78.232602 Q 323.862939 75.047579 323.406292 71.766622 Q 323.214423 71.267763 322.957318 71.202527 L 322.811498 59.095603 L 322.953481 57.18459 Q 322.968831 56.985046 323.149187 57.069468 C 328.29511 59.471666 331.042671 52.614274 332.309006 49.175984 Q 332.33203 92.906731 332.424127 136.614453 Q 332.431802 139.999019 331.944455 141.910033 Q 330.094839 149.158838 323.367918 153.31088 Q 319.603451 155.63633 315.50897 155.663192 C 309.303932 155.705403 301.068921 155.56342 293.992798 155.582607 Q 235.668507 155.747614 179.450937 155.617143 Q 173.955813 155.605631 171.818394 155.145146 Q 164.239575 153.506586 159.999273 146.369065 C 158.241755 143.40661 157.996163 140.866267 158 137.082613 Q 158.084422 89.184475 158.007675 41.290175 Q 158 37.330002 158.425949 35.718304 C 159.604024 31.259272 163.249532 27.928429 167.393899 25.925318 Z" style="fill:#078996;"/>
		<path d="M 332.309006 49.175984 C 331.042671 52.614274 328.29511 59.471666 323.149187 57.069468 Q 322.968831 56.985046 322.953481 57.18459 L 322.811498 59.095603 L 322.780799 25.886944 Q 327.765552 28.400426 330.436366 32.613866 Q 332.274469 35.511085 332.305168 39.509632 Q 332.335867 44.356239 332.309006 49.175984 Z" style="fill:#069ca5;"/>
		<path d="M 323.406292 71.766622 L 323.302682 78.232602 L 323.241284 114.622446 Q 323.241284 115.819708 322.04786 115.942504 Q 296.590702 118.594131 273.754473 121.069239 Q 273.036883 121.149824 272.564886 121.276458 Q 271.985442 121.429953 271.359949 121.395416 Q 271.187267 121.383904 269.640805 121.698569 Q 268.773557 121.875089 267.875611 121.806016 Q 267.039063 121.74078 266.26775 122.059283 Q 265.250845 122.477557 261.064267 122.554304 L 261.029731 82.641748 Q 261.029731 82.438367 261.229275 82.399993 L 322.957318 71.202527 Q 323.214423 71.267763 323.406292 71.766622 Z" style="fill:#b2352d;"/>
		<path d="M 229.129617 122.750011 Q 228.181785 122.726986 227.214766 122.707799 Q 226.251585 122.684775 225.303752 122.577329 Q 212.425516 121.1268 199.907993 119.630223 C 189.017517 118.325515 178.096343 117.212676 167.451459 115.888781 C 167.248078 115.865756 167.094583 115.689237 167.090746 115.482019 Q 166.990974 94.069456 167.021673 73.953927 Q 167.02551 72.088961 167.344013 71.237064 Q 168.038578 71.336836 169.166767 71.536379 Q 182.67817 73.91939 187.728158 74.878734 Q 217.322009 80.488979 227.195579 82.27336 Q 228.154923 82.446042 228.999146 82.691634 C 229.148804 82.737682 229.252413 82.875828 229.252413 83.029323 L 229.129617 122.750011 Z" style="fill:#069ca5;"/>
		<path d="M 323.302682 78.232602 L 323.406292 71.766622 Q 323.862939 75.047579 323.302682 78.232602 Z" style="fill:#05638e;"/>
		<path d="M 253.308929 92.189141 C 253.308929 96.763295 249.598185 100.474038 245.024032 100.474038 C 240.449879 100.474038 236.739135 96.763295 236.739135 92.189141 C 236.739135 87.614988 240.449879 83.904245 245.024032 83.904245 C 249.598185 83.904245 253.308929 87.614988 253.308929 92.189141 Z" style="fill:#b2352d;"/>
	</g>
	<g id="surface4">
	</g>
</svg>
