<?xml version="1.0" encoding="utf-8"?>
<svg xmlns="http://www.w3.org/2000/svg" width="490pt" height="280pt" viewBox="0 0 490 280" version="1.1" xmlns:xlink="http://www.w3.org/1999/xlink">
	<g id="surface2">
		<path vector-effect="non-scaling-stroke" d="M 268.507498 149.184384 Q 267.605242 148.287563 269.344531 149.518653 Q 269.790224 149.836617 269.559225 149.339289 C 269.268437 148.708797 268.926015 147.635329 267.91777 148.214186 Q 267.830806 148.263104 267.817217 148.165269 L 267.800912 148.067434 Q 267.795476 148.023952 267.830806 147.999493 Q 268.926015 147.273883 269.708695 146.230309 Q 270.263093 145.491111 270.24407 145.116077 Q 270.192435 144.048044 270.116341 142.085908 Q 270.081011 141.175499 270.121776 139.05574 Q 270.127211 138.781258 270.116341 135.816313 Q 270.100035 130.489739 270.132647 73.58236 Q 270.132647 71.614789 270.119058 70.541321 Q 270.113623 70.111934 269.877189 70.467945 Q 268.50478 72.541504 266.221963 73.856842 C 260.498613 77.150622 253.277844 78.215936 246.744638 78.259419 Q 239.692363 78.308336 234.765281 77.457715 C 230.476846 76.715799 225.682929 75.438508 222.198915 72.794245 Q 220.755848 71.696318 219.967732 70.41631 C 219.916097 70.332063 219.796521 70.321193 219.72858 70.391851 Q 219.693251 70.427181 219.693251 70.457075 Q 219.644333 75.019992 219.731298 77.522938 Q 219.753039 78.074619 219.739451 78.618147 Q 219.638898 82.613078 219.695968 142.341367 Q 219.695968 143.311564 219.310064 144.211103 C 219.277452 144.289914 219.269299 144.376879 219.29104 144.458408 L 219.617157 145.681346" style="fill:none;stroke-width:0.50;stroke:#817c73;"/>
		<path vector-effect="non-scaling-stroke" d="M 222.611996 148.116351 L 221.182517 147.143436" style="fill:none;stroke-width:0.50;stroke:#817c73;"/>
		<path vector-effect="non-scaling-stroke" d="M 221.182517 147.143436 Q 221.008588 146.923307 220.644425 146.695026" style="fill:none;stroke-width:0.50;stroke:#817c73;"/>
		<path vector-effect="non-scaling-stroke" d="M 245.03796 70.65818 Q 244.994478 70.756015 245.040678 70.810368 C 245.073289 70.848415 245.133078 70.848415 245.165689 70.813085 Q 247.12239 68.693326 248.358916 66.108851 Q 252.807693 56.814522 248.587198 47.392465 Q 247.657765 45.316188 246.114146 42.218079 C 245.518982 41.025035 244.904796 39.440651 244.157445 38.084548 Q 243.997104 37.791043 243.969928 38.125313 Q 243.695446 41.815868 242.575778 45.846128 C 241.893651 48.311027 240.879971 50.558515 239.920644 53.262567 Q 238.950447 55.985642 239.094482 58.784811 C 239.222211 61.252428 240.325573 63.345011 241.950721 65.21203 C 243.266059 66.725755 246.076099 68.255786 245.03796 70.65818" style="fill:none;stroke-width:0.50;stroke:#817c73;"/>
		<path d="M 268.507498 149.184384 Q 267.605242 148.287563 269.344531 149.518653 Q 269.790224 149.836617 269.559225 149.339289 C 269.268437 148.708797 268.926015 147.635329 267.91777 148.214186 Q 267.830806 148.263104 267.817217 148.165269 L 267.800912 148.067434 Q 267.795476 148.023952 267.830806 147.999493 Q 268.926015 147.273883 269.708695 146.230309 Q 270.263093 145.491111 270.24407 145.116077 Q 270.192435 144.048044 270.116341 142.085908 Q 270.081011 141.175499 270.121776 139.05574 Q 270.127211 138.781258 270.116341 135.816313 Q 270.100035 130.489739 270.132647 73.58236 Q 270.132647 71.614789 270.119058 70.541321 Q 270.113623 70.111934 269.877189 70.467945 Q 268.50478 72.541504 266.221963 73.856842 C 260.498613 77.150622 253.277844 78.215936 246.744638 78.259419 Q 239.692363 78.308336 234.765281 77.457715 C 230.476846 76.715799 225.682929 75.438508 222.198915 72.794245 Q 220.755848 71.696318 219.967732 70.41631 C 219.916097 70.332063 219.796521 70.321193 219.72858 70.391851 Q 219.693251 70.427181 219.693251 70.457075 Q 219.644333 75.019992 219.731298 77.522938 Q 219.753039 78.074619 219.739451 78.618147 Q 219.638898 82.613078 219.695968 142.341367 Q 219.695968 143.311564 219.310064 144.211103 C 219.277452 144.289914 219.269299 144.376879 219.29104 144.458408 L 219.617157 145.681346 C 219.130699 145.167712 218.55456 145.488394 218.380631 146.053663 Q 217.997444 147.287471 218.193114 148.43975 C 218.233878 148.689773 218.008314 148.904467 217.761009 148.850114 Q 216.565247 148.586503 215.603203 148.159834 Q 211.662625 146.412391 208.450375 144.654078 Q 197.775485 138.819305 189.451354 130.02774 Q 186.652185 127.068231 183.304053 122.730877 Q 180.205944 118.719641 177.42308 113.558843 Q 172.479693 104.397679 170.438746 94.239141 C 170.012076 92.105794 169.40876 88.92072 169.242984 86.578114 Q 168.658692 78.316489 169.479419 71.555001 C 171.10185 58.200519 176.822482 45.180306 185.28793 34.701087 Q 190.176964 28.648903 196.427536 23.412011 Q 213.393762 9.193319 235.730044 5.929434 Q 238.053626 5.589729 241.360993 5.502764 C 245.600512 5.394059 249.978629 5.345141 254.237171 5.891387 Q 274.07866 8.440533 290.226876 20.463372 Q 293.151056 22.640201 296.925858 26.091604 Q 304.801578 33.290632 310.356434 42.375702 Q 316.39503 52.251605 319.256705 64.453808 Q 319.83828 66.940449 320.218749 69.812994 Q 322.721696 88.801144 315.992819 105.905969 Q 314.745423 109.074737 312.440864 113.463725 Q 311.095632 116.02646 309.712354 118.165242 Q 301.676293 130.587574 290.379064 139.039434 Q 281.476075 145.700369 269.975024 149.760523 C 269.939694 149.774112 269.901647 149.774112 269.866318 149.765959 L 269.21952 149.613771 Q 269.089073 149.583877 269.091791 149.450712 Q 269.097226 149.168078 268.507498 149.184384 Z M 245.03796 70.65818 Q 244.994478 70.756015 245.040678 70.810368 C 245.073289 70.848415 245.133078 70.848415 245.165689 70.813085 Q 247.12239 68.693326 248.358916 66.108851 Q 252.807693 56.814522 248.587198 47.392465 Q 247.657765 45.316188 246.114146 42.218079 C 245.518982 41.025035 244.904796 39.440651 244.157445 38.084548 Q 243.997104 37.791043 243.969928 38.125313 Q 243.695446 41.815868 242.575778 45.846128 C 241.893651 48.311027 240.879971 50.558515 239.920644 53.262567 Q 238.950447 55.985642 239.094482 58.784811 C 239.222211 61.252428 240.325573 63.345011 241.950721 65.21203 C 243.266059 66.725755 246.076099 68.255786 245.03796 70.65818 Z" style="fill:#fdf3e3;"/>
		<path d="M 268.507498 149.184384 Q 267.708512 148.999584 266.656785 149.298525 Q 266.572538 149.322983 266.507315 149.246889 Q 266.436656 149.162643 266.36328 149.241454 Q 266.27088 149.339289 265.985528 149.331136 C 265.567012 149.322983 265.466459 149.507783 265.159366 149.6491 Q 262.194421 150.986179 260.400778 151.450895 C 259.036523 151.801471 257.52008 152.214552 256.26453 152.445552 Q 244.994478 154.510958 233.977166 152.266187 Q 228.416875 151.135649 223.087583 148.453339 Q 222.965289 148.393551 222.886478 148.284845 Q 222.772337 148.135375 222.611996 148.116351 L 221.182517 147.143436 Q 221.008588 146.923307 220.644425 146.695026 L 219.617157 145.681346 L 219.29104 144.458408 C 219.269299 144.376879 219.277452 144.289914 219.310064 144.211103 Q 219.695968 143.311564 219.695968 142.341367 Q 219.638898 82.613078 219.739451 78.618147 Q 219.753039 78.074619 219.731298 77.522938 Q 219.644333 75.019992 219.693251 70.457075 Q 219.693251 70.427181 219.72858 70.391851 C 219.796521 70.321193 219.916097 70.332063 219.967732 70.41631 Q 220.755848 71.696318 222.198915 72.794245 C 225.682929 75.438508 230.476846 76.715799 234.765281 77.457715 Q 239.692363 78.308336 246.744638 78.259419 C 253.277844 78.215936 260.498613 77.150622 266.221963 73.856842 Q 268.50478 72.541504 269.877189 70.467945 Q 270.113623 70.111934 270.119058 70.541321 Q 270.132647 71.614789 270.132647 73.58236 Q 270.100035 130.489739 270.116341 135.816313 Q 270.127211 138.781258 270.121776 139.05574 Q 270.081011 141.175499 270.116341 142.085908 Q 270.192435 144.048044 270.24407 145.116077 Q 270.263093 145.491111 269.708695 146.230309 Q 268.926015 147.273883 267.830806 147.999493 Q 267.795476 148.023952 267.800912 148.067434 L 267.817217 148.165269 Q 267.830806 148.263104 267.91777 148.214186 C 268.926015 147.635329 269.268437 148.708797 269.559225 149.339289 Q 269.790224 149.836617 269.344531 149.518653 Q 267.605242 148.287563 268.507498 149.184384 Z" style="fill:#040403;"/>
		<path d="M 221.182517 147.143436 Q 220.815636 147.053754 220.644425 146.695026 Q 221.008588 146.923307 221.182517 147.143436 Z" style="fill:#fdf3e3;"/>
		<path d="M 222.611996 148.116351 Q 221.802139 147.847305 221.182517 147.143436 L 222.611996 148.116351 Z" style="fill:#fdf3e3;"/>
		<path d="M 245.03796 70.65818 C 246.076099 68.255786 243.266059 66.725755 241.950721 65.21203 C 240.325573 63.345011 239.222211 61.252428 239.094482 58.784811 Q 238.950447 55.985642 239.920644 53.262567 C 240.879971 50.558515 241.893651 48.311027 242.575778 45.846128 Q 243.695446 41.815868 243.969928 38.125313 Q 243.997104 37.791043 244.157445 38.084548 C 244.904796 39.440651 245.518982 41.025035 246.114146 42.218079 Q 247.657765 45.316188 248.587198 47.392465 Q 252.807693 56.814522 248.358916 66.108851 Q 247.12239 68.693326 245.165689 70.813085 C 245.133078 70.848415 245.073289 70.848415 245.040678 70.810368 Q 244.994478 70.756015 245.03796 70.65818 Z" style="fill:#040403;"/>
	</g>
	<g id="surface4">
	</g>
</svg>
