<?xml version="1.0" encoding="utf-8"?>
<svg xmlns="http://www.w3.org/2000/svg" width="490pt" height="280pt" viewBox="0 0 490 280" version="1.1" xmlns:xlink="http://www.w3.org/1999/xlink">
	<g id="surface2">
		<path stroke-opacity="0.996" vector-effect="non-scaling-stroke" d="M 253.293917 125.112014 L 253.264293 125.295139" style="fill:none;stroke-width:0.50;stroke:#62772d;"/>
		<path stroke-opacity="0.996" vector-effect="non-scaling-stroke" d="M 253.226591 125.365158 L 253.186196 125.575214" style="fill:none;stroke-width:0.50;stroke:#62772d;"/>
		<path stroke-opacity="0.996" vector-effect="non-scaling-stroke" d="M 253.186196 125.575214 L 253.132335 125.782576" style="fill:none;stroke-width:0.50;stroke:#62772d;"/>
		<path stroke-opacity="0.996" vector-effect="non-scaling-stroke" d="M 252.962675 126.391199 L 252.933052 126.64165" style="fill:none;stroke-width:0.50;stroke:#62772d;"/>
		<path stroke-opacity="0.996" vector-effect="non-scaling-stroke" d="M 252.900736 126.73052 L 252.871112 126.978278" style="fill:none;stroke-width:0.50;stroke:#62772d;"/>
		<path stroke-opacity="0.996" vector-effect="non-scaling-stroke" d="M 246.529048 106.39821 L 246.561364 106.645968" style="fill:none;stroke-width:0.50;stroke:#62772d;"/>
		<path stroke-opacity="0.996" vector-effect="non-scaling-stroke" d="M 246.607145 106.802164 Q 246.601759 106.944894 246.636768 107.071466" style="fill:none;stroke-width:0.50;stroke:#62772d;"/>
		<path stroke-opacity="0.996" vector-effect="non-scaling-stroke" d="M 246.666392 107.206117 Q 246.65562 107.313838 246.693322 107.408093" style="fill:none;stroke-width:0.50;stroke:#62772d;"/>
		<path stroke-opacity="0.996" vector-effect="non-scaling-stroke" d="M 246.717559 107.475419 L 246.846824 109.153171" style="fill:none;stroke-width:0.50;stroke:#62772d;"/>
		<path stroke-opacity="0.996" vector-effect="non-scaling-stroke" d="M 246.814508 109.22319 Q 248.010209 118.285205 248.691544 127.393003 Q 248.69693 127.449556 248.742711 127.438784 L 248.745404 127.438784 Q 248.793878 127.428012 248.791185 127.387617 Q 248.411469 119.604786 247.506614 111.100225 Q 247.345033 109.59752 247.078424 108.4476" style="fill:none;stroke-width:0.50;stroke:#62772d;"/>
		<path stroke-opacity="0.996" vector-effect="non-scaling-stroke" d="M 247.05688 108.396432 L 247.021871 108.059804" style="fill:none;stroke-width:0.50;stroke:#62772d;"/>
		<path stroke-opacity="0.996" vector-effect="non-scaling-stroke" d="M 246.978782 107.655851 L 246.965317 107.448489" style="fill:none;stroke-width:0.50;stroke:#62772d;"/>
		<path stroke-opacity="0.996" vector-effect="non-scaling-stroke" d="M 248.742711 127.923528 C 248.745404 127.939686 248.764255 127.950458 248.77772 127.939686 Q 248.826195 127.910063 248.796571 127.826579 C 248.788492 127.796956 248.748097 127.796956 248.740018 127.826579 Q 248.734632 127.858895 248.742711 127.923528" style="fill:none;stroke-width:0.50;stroke:#62772d;"/>
		<path d="M 245.217546 80.162799 Q 242.826144 74.356646 241.96707 72.242624 Q 240.803685 69.388022 239.446402 64.707551 C 237.663622 58.562077 237.160027 52.136529 237.698632 45.649041 Q 238.043338 41.491017 238.827007 37.413783 Q 240.625945 28.047455 243.83872 17.593148 Q 244.296533 16.095828 245.077509 13.968341 C 246.265132 10.717865 247.153829 8.170267 248.284897 5.466474 Q 248.346837 5.315665 248.441093 5.447623 Q 248.640376 5.722311 248.890827 6.50598 Q 251.637709 15.083252 252.879191 20.967503 Q 254.341502 27.883181 254.909729 34.198316 C 255.087469 36.142677 255.284059 37.949694 255.319068 39.624753 Q 255.461799 46.715477 255.292138 49.952489 Q 255.122478 53.130254 254.422292 57.363683 Q 253.964479 60.132108 253.312768 62.636618 Q 251.705034 68.819794 249.512915 74.930259 Q 249.259771 75.633138 247.116126 81.210384 Q 246.814508 81.994054 246.429406 82.616141 C 246.370159 82.71309 246.224736 82.710397 246.170876 82.608062 Q 245.912346 82.117932 245.672667 81.398896 Q 245.454532 80.739106 245.217546 80.162799 Z" style="fill:#afd945;"/>
		<path d="M 253.293917 125.112014 L 253.264293 125.295139 Q 253.245442 125.330149 253.226591 125.365158 L 253.186196 125.575214 L 253.132335 125.782576 L 252.962675 126.391199 L 252.933052 126.64165 Q 252.916894 126.687431 252.900736 126.73052 L 252.871112 126.978278 C 252.372903 128.895709 252.079364 130.966642 251.729271 132.647087 Q 251.338783 134.518737 251.039858 136.710856 C 250.757091 138.771017 250.223873 141.108559 250.073063 143.510734 C 249.884552 146.494601 250.013817 149.413836 250.040747 152.957852 Q 250.04344 153.386042 249.617943 153.386042 L 241.880893 153.386042 C 241.783945 153.386042 241.700461 153.316024 241.68161 153.221768 Q 241.59274 152.74241 241.59274 152.241508 C 241.603512 144.340184 241.778558 136.519651 242.524525 128.688346 Q 242.616088 127.726937 242.454507 126.935189 Q 242.255223 125.976474 242.002079 125.198191 Q 238.627724 114.765427 237.553208 112.123573 C 236.279409 108.988897 235.180657 106.29049 233.871849 103.387413 Q 226.479506 86.992301 217.277453 69.932012 Q 212.567359 61.198545 207.569112 53.36724 Q 206.104108 51.072786 204.587937 48.87528 Q 199.228826 41.108608 192.552826 31.936178 C 192.512431 31.879624 192.49358 31.812299 192.501659 31.74228 Q 192.54744 31.338327 192.981017 31.556462 Q 202.632804 36.390435 210.100552 41.418305 Q 218.354661 46.976701 224.389721 54.498308 Q 230.206647 61.753307 234.873652 70.230937 Q 238.371887 76.58916 240.601708 82.966234 Q 243.636743 91.648534 245.276793 99.555244 Q 245.58649 101.047178 246.529048 106.39821 L 246.561364 106.645968 L 246.607145 106.802164 Q 246.601759 106.944894 246.636768 107.071466 L 246.666392 107.206117 Q 246.65562 107.313838 246.693322 107.408093 Q 246.704094 107.44041 246.717559 107.475419 L 246.846824 109.153171 Q 246.830666 109.18818 246.814508 109.22319 Q 248.010209 118.285205 248.691544 127.393003 Q 248.69693 127.449556 248.742711 127.438784 L 248.745404 127.438784 Q 248.793878 127.428012 248.791185 127.387617 Q 248.411469 119.604786 247.506614 111.100225 Q 247.345033 109.59752 247.078424 108.4476 Q 247.067652 108.423362 247.05688 108.396432 L 247.021871 108.059804 L 246.978782 107.655851 L 246.965317 107.448489 Q 246.652927 105.415258 246.642155 103.371255 Q 246.631382 101.585782 247.043415 99.32903 Q 248.734632 90.043494 251.896239 81.520082 Q 254.459995 74.604404 258.222145 68.467009 C 260.939403 64.034296 264.434945 59.388835 268.189016 55.446252 Q 274.558011 48.75948 280.423411 43.885112 Q 287.196359 38.254005 294.769134 33.126493 C 295.477399 32.647135 296.207207 32.014275 296.786207 31.564541 Q 297.238634 31.211755 297.362513 31.71535 C 297.384058 31.798834 297.362513 31.88501 297.308653 31.949643 Q 295.757473 33.823986 294.322093 36.107667 Q 293.19641 37.89314 293.182945 37.917378 C 287.18828 47.175984 281.387512 56.790069 276.381186 66.509182 Q 270.022963 78.856684 264.801196 90.670967 Q 259.083912 103.613627 255.235585 117.054495 Q 254.713139 118.874977 253.293917 125.112014 Z M 248.742711 127.923528 C 248.745404 127.939686 248.764255 127.950458 248.77772 127.939686 Q 248.826195 127.910063 248.796571 127.826579 C 248.788492 127.796956 248.748097 127.796956 248.740018 127.826579 Q 248.734632 127.858895 248.742711 127.923528 Z" style="fill:#afd945;"/>
		<path fill-opacity="0.988" d="M 246.561364 106.645968 L 246.529048 106.39821 Q 246.574829 106.505931 246.561364 106.645968 Z" style="fill:#151315;"/>
		<path fill-opacity="0.988" d="M 246.636768 107.071466 Q 246.601759 106.944894 246.607145 106.802164 L 246.636768 107.071466 Z" style="fill:#151315;"/>
		<path fill-opacity="0.988" d="M 246.693322 107.408093 Q 246.65562 107.313838 246.666392 107.206117 Q 246.696015 107.300373 246.693322 107.408093 Z" style="fill:#151315;"/>
		<path fill-opacity="0.988" d="M 246.846824 109.153171 L 246.717559 107.475419 L 246.846824 109.153171 Z" style="fill:#151315;"/>
		<path fill-opacity="0.988" d="M 246.978782 107.655851 Q 246.916843 107.507735 246.965317 107.448489 L 246.978782 107.655851 Z" style="fill:#151315;"/>
		<path fill-opacity="0.988" d="M 247.05688 108.396432 Q 247.008405 108.248316 247.021871 108.059804 L 247.05688 108.396432 Z" style="fill:#151315;"/>
		<path fill-opacity="0.988" d="M 246.814508 109.22319 Q 246.976089 109.454789 246.997633 109.737557 Q 247.003019 109.815654 247.067652 109.79411 L 247.067652 109.791417 Q 247.129591 109.769873 247.118819 109.718705 Q 246.984168 109.088539 247.078424 108.4476 Q 247.345033 109.59752 247.506614 111.100225 Q 248.411469 119.604786 248.791185 127.387617 Q 248.793878 127.428012 248.745404 127.438784 L 248.742711 127.438784 Q 248.69693 127.449556 248.691544 127.393003 Q 248.010209 118.285205 246.814508 109.22319 Z" style="fill:#151315;"/>
		<path fill-opacity="0.988" d="M 253.293917 125.112014 Q 253.301996 125.208963 253.264293 125.295139 L 253.293917 125.112014 Z" style="fill:#151315;"/>
		<path fill-opacity="0.988" d="M 253.226591 125.365158 Q 253.229284 125.480958 253.186196 125.575214 L 253.226591 125.365158 Z" style="fill:#151315;"/>
		<path fill-opacity="0.988" d="M 253.186196 125.575214 L 253.132335 125.782576 L 253.186196 125.575214 Z" style="fill:#151315;"/>
		<path fill-opacity="0.988" d="M 252.962675 126.391199 L 252.933052 126.64165 L 252.962675 126.391199 Z" style="fill:#151315;"/>
		<path fill-opacity="0.988" d="M 252.900736 126.73052 L 252.871112 126.978278 L 252.900736 126.73052 Z" style="fill:#151315;"/>
		<path fill-opacity="0.988" d="M 248.742711 127.923528 Q 248.734632 127.858895 248.740018 127.826579 C 248.748097 127.796956 248.788492 127.796956 248.796571 127.826579 Q 248.826195 127.910063 248.77772 127.939686 C 248.764255 127.950458 248.745404 127.939686 248.742711 127.923528 Z" style="fill:#151315;"/>
	</g>
	<g id="surface4">
	</g>
</svg>
