<?xml version="1.0" encoding="utf-8"?>
<svg xmlns="http://www.w3.org/2000/svg" width="490pt" height="280pt" viewBox="0 0 490 280" version="1.1" xmlns:xlink="http://www.w3.org/1999/xlink">
	<g id="surface2">
		<path vector-effect="non-scaling-stroke" d="M 327.791491 95.153273 Q 325.24932 97.598062 322.753278 100.078728 Q 320.872277 101.944353 319.011777 103.261566 Q 317.089773 104.624908 314.562979 106.880059 Q 310.47808 110.529304 303.374353 114.921723 Q 271.094938 134.890063 233.382659 139.272232 Q 227.626898 139.943652 218.806181 139.518248 C 213.849974 139.277357 208.258224 138.078026 203.988813 137.119587 Q 202.399956 136.760813 201.354386 136.084268 Q 201.082743 135.904881 201.000737 135.592235 L 200.190933 132.547781 C 200.144805 132.363268 200.298565 132.194132 200.488203 132.219759 C 201.805416 132.409396 203.409649 133.193574 204.578227 133.501094 Q 226.663333 139.302984 249.204595 135.023322 Q 261.495169 132.69129 273.457722 127.653077 Q 278.706074 125.438929 283.257379 122.722497 Q 283.339384 122.671243 283.283006 122.609739 Q 283.236878 122.563611 283.19075 122.589238 Q 274.749308 126.838148 264.262855 130.261877 Q 244.837802 136.612178 225.079602 135.607611 Q 215.167187 135.105327 204.783241 132.132628 Q 201.139121 131.087058 199.570766 130.118368 Q 199.442633 130.036362 199.391379 129.892852 L 198.274054 126.566504 C 198.248428 126.499875 198.320182 126.433245 198.386812 126.458872 Q 210.257108 131.061431 217.601726 132.050622 Q 235.40717 134.449283 252.689829 130.431014 Q 263.227536 127.975974 272.222514 124.101214 Q 278.214041 121.523166 285.768797 117.684284 Q 288.577486 116.254313 290.161217 115.300999 Q 290.268849 115.239495 290.197094 115.16774 Q 290.12534 115.095985 290.068961 115.126737 Q 277.552871 121.026008 275.764126 121.851188 Q 262.884138 127.781211 249.102088 130.466891 C 240.081483 132.224884 230.543219 132.506778 221.512363 131.573965 Q 210.149476 130.400262 199.345251 125.264667 Q 198.2023 124.721381 197.674389 123.573304 L 196.270045 120.518599 Q 195.68063 119.232137 196.967092 119.821552 Q 206.18246 124.075587 210.574879 125.577313 Q 220.42579 128.944664 230.850739 128.934413 Q 243.525714 128.919037 254.652836 126.048845 Q 265.887589 123.158151 276.061396 118.181442 Q 276.138277 118.140439 276.102399 118.063559 L 276.097274 118.063559 Q 276.066522 117.981554 275.984516 118.012306 C 269.516332 120.662108 264.447367 122.712246 257.62041 124.639375 Q 242.105994 129.006168 227.083612 128.119484 C 216.166629 127.468565 206.346471 123.481047 196.454557 118.386456 C 196.280296 118.299325 196.136786 118.171191 196.024028 118.017431 L 193.620242 114.71671 Q 193.461357 114.501445 193.466482 114.229802 Q 193.476733 112.886962 193.179463 112.394929 Q 191.990383 110.426797 189.883867 108.996826 C 188.377016 107.982008 186.034733 107.085073 184.327994 105.906244 Q 180.109836 102.989923 176.742485 99.14079 Q 176.645104 99.033158 176.511845 99.094662 L 176.306831 99.186918 C 176.173572 99.248422 176.14282 99.417559 176.240202 99.525191 L 177.777805 101.144799" style="fill:none;stroke-width:0.50;stroke:#7f98a9;"/>
		<path vector-effect="non-scaling-stroke" d="M 178.136579 101.544576 Q 181.468052 104.676161 185.025041 107.541228 C 186.42426 108.663679 189.494341 110.334541 190.775676 112.430806 Q 193.28197 116.541332 196.516061 125.454305 Q 197.705141 128.73965 199.85266 135.981761 C 201.226252 140.625322 201.687533 145.14075 202.676725 149.922696 C 203.194384 152.428989 204.649982 154.186982 205.716053 155.939849 C 205.921067 156.272997 205.716053 156.708651 205.331653 156.76503 Q 204.070818 156.959793 202.748479 156.811158 C 195.398737 155.991103 189.689104 151.260411 185.230055 145.350889 Q 175.584158 132.558031 170.151293 117.012864 C 168.449679 112.154038 167.906393 107.828248 168.070404 102.733656 C 168.126782 100.970538 168.659818 100.211987 169.592631 98.858896 Q 170.156419 98.033716 169.228731 98.305359 C 166.15865 99.207419 167.014583 109.053205 167.316978 111.380111 Q 167.34773 111.621002 167.12734 111.518495 C 165.138707 110.565181 163.677984 109.95014 162.140381 108.853316 Q 157.676207 105.670478 153.611809 101.990481 Q 145.94942 95.04564 139.604245 86.301804 Q 135.042689 80.013007 134.683915 79.515849 C 131.224307 74.698026 127.990216 70.971901 124.0232 66.999759 Q 116.950225 59.926785 109.093073 53.397097 Q 104.618648 49.676098 97.217652 43.617941 Q 95.111135 41.8907 92.615093 40.92201 C 91.974425 40.675994 91.318381 40.214713 91.318381 39.56892 C 91.333757 35.69416 96.643613 34.320568 99.739321 34.366696 Q 102.076478 34.402573 104.531517 34.889481 Q 117.483261 37.452153 129.860966 39.174268 C 137.405472 40.224964 142.899841 44.222732 150.018943 49.204566 Q 153.171029 51.413589 166.44567 58.445561 Q 177.798306 64.457589 182.236854 66.748618 Q 186.321753 68.860259 188.351389 70.690007 Q 188.546152 70.859143 188.797294 70.797639 C 195.168096 69.162654 200.903356 72.66839 205.864688 76.579027 C 210.626133 80.341029 215.059555 83.698129 220.323283 86.61445 Q 237.20104 95.963077 256.492834 97.885081 C 278.475433 100.068477 299.837866 97.229037 318.150719 84.205538 Q 324.998178 79.331336 329.56486 73.565325" style="fill:none;stroke-width:0.50;stroke:#7f98a9;"/>
		<path vector-effect="non-scaling-stroke" d="M 89.375876 40.942512 L 89.427129 40.558111" style="fill:none;stroke-width:0.50;stroke:#7f98a9;"/>
		<path vector-effect="non-scaling-stroke" d="M 146.636216 78.772674 Q 144.873098 80.515291 142.694827 79.192952 C 142.602571 79.136573 142.530816 79.059693 142.474437 78.967437 Q 141.787641 77.762981 141.300733 77.245322 Q 140.998338 76.922425 141.121346 77.347828 Q 141.669758 79.321086 142.541066 79.874623 C 144.703962 81.232839 147.035993 79.551726 147.676661 77.255572 Q 148.014934 76.045991 147.205129 74.657023 C 146.046802 72.673515 143.632765 72.012346 141.48012 72.565883 C 141.362237 72.596635 141.146973 72.750395 140.900956 72.970785 Q 140.701068 73.145047 140.726695 73.447442 Q 140.742071 73.667832 140.947085 73.585826 Q 143.166358 72.704267 144.960229 74.108611 C 146.210813 75.087552 148.102064 77.327327 146.636216 78.772674" style="fill:none;stroke-width:0.50;stroke:#7f98a9;"/>
		<path vector-effect="non-scaling-stroke" d="M 144.673209 77.491338 C 144.488697 77.880864 143.976163 77.967995 143.673767 77.6656 L 141.982404 75.974236 C 141.915775 75.907607 141.803017 75.933234 141.772265 76.020364 L 141.715886 76.17925 Q 141.659507 76.32276 141.76714 76.430392 Q 143.371372 78.085878 143.391874 78.101254 C 145.308752 79.582478 146.810478 76.240754 144.334937 75.27719 Q 143.520007 74.964544 142.81271 74.821034 Q 142.602571 74.780031 142.530816 74.97992 L 142.474437 75.13368 Q 142.37193 75.410448 142.653824 75.512955 L 144.304185 76.117746 Q 144.5297 76.199751 144.647583 76.409891 Q 144.939727 76.948052 144.673209 77.491338" style="fill:none;stroke-width:0.50;stroke:#7f98a9;"/>
		<path vector-effect="non-scaling-stroke" d="M 162.50428 105.26045 Q 164.574919 106.598165 166.517425 107.254209 C 166.614806 107.284961 166.717313 107.223457 166.737814 107.12095 L 166.773692 106.941563 Q 166.789068 106.864683 166.717313 106.833931 Q 164.467287 105.865241 163.918875 105.526968 C 157.712084 101.688086 152.386852 95.26603 148.409585 89.187372 C 148.409585 89.182247 148.399334 89.182247 148.394209 89.187372 Q 148.312204 89.269378 148.301953 89.279629 C 148.266075 89.330882 148.26095 89.407762 148.296827 89.484642 Q 149.321896 91.76542 151.115767 94.092326 C 154.421613 98.382239 157.850468 102.262124 162.50428 105.26045" style="fill:none;stroke-width:0.50;stroke:#7f98a9;"/>
		<path vector-effect="non-scaling-stroke" d="M 112.291288 60.844222 Q 111.501985 59.865281 112.450173 60.685336 C 114.843709 62.750849 117.24237 65.29302 121.188884 69.449674 Q 123.597796 71.986719 129.040911 79.310835 C 132.67478 84.195288 137.138954 90.509711 141.557 95.276281 C 144.939727 98.925526 148.491591 102.236498 153.007018 106.485408 Q 157.563449 110.780446 163.749739 114.434816 C 164.949069 115.147239 166.901825 115.844285 167.762883 116.341444 Q 168.53681 116.787349 168.285668 115.849411 L 167.368232 112.389804 Q 167.306727 112.164288 167.076087 112.138662 Q 166.220155 112.04128 165.195086 111.51337 C 160.044115 108.858442 155.984843 105.40396 151.633426 101.457445 C 150.377717 100.319619 149.040002 98.807643 147.727914 97.526307 Q 145.831537 95.686308 144.714212 94.394722 Q 139.394105 88.244309 138.553549 87.060355 C 133.464083 79.879748 129.389434 74.564767 123.42866 68.619368 Q 117.503762 62.714972 115.90978 61.27475 Q 109.451847 55.426733 99.313917 47.25181 Q 96.66924 45.119667 94.506345 43.602565 Q 92.835483 42.428861 91.713033 42.162344 C 90.508577 41.875324 89.468132 43.295045 89.134985 44.320113 Q 88.955598 44.8634 89.504009 45.990975 Q 91.713033 50.521779 93.301889 54.03264 C 95.275146 58.389182 98.211968 62.930236 101.487063 67.814689 Q 103.029792 70.121094 105.648842 73.365436 Q 110.041262 78.808551 114.069782 83.590497 C 115.504878 85.292111 117.452509 87.649769 119.061867 89.848542 Q 126.416735 99.914717 131.147427 104.891426 Q 133.151437 107.003067 134.760795 108.786687 Q 140.388422 115.019105 147.205129 120.877373 Q 149.342398 122.712246 152.222841 124.659877 Q 152.253593 124.680378 152.248468 124.721381 L 152.217715 124.875141 Q 152.192089 125.0084 152.074206 124.94177 Q 149.321896 123.475922 147.015492 121.389907 Q 146.933486 121.313027 146.84123 121.395033 L 146.836105 121.400158 Q 146.738723 121.482163 146.84123 121.579545 Q 149.019501 123.655309 151.6078 125.167286 Q 154.647128 126.940654 154.67788 126.956031 Q 164.923443 133.13207 176.501594 136.899197 C 176.973126 137.052958 177.367777 136.514797 177.075633 136.109894 L 176.399087 135.182207 Q 175.681539 134.198141 174.528337 133.80349 Q 172.447447 133.085942 170.228173 132.399146 Q 168.321546 131.804606 163.385839 129.385443 Q 159.987737 127.724832 156.886904 125.633692 C 146.118556 118.376205 137.051823 109.273595 128.692388 99.576444 Q 127.231665 97.885081 122.685485 91.888429 Q 120.799358 89.397512 116.432565 84.062029 Q 107.329955 72.945158 100.221103 61.013358 Q 95.428907 52.971694 91.90267 44.924904 Q 91.67203 44.396993 92.235818 44.504626 L 92.604842 44.576381 Q 93.301889 44.704514 93.578658 45.355433 Q 96.223335 51.454592 101.656199 60.541826 Q 106.766167 69.080649 110.943322 74.800533 C 114.484935 79.654233 119.656407 85.8764 124.192336 91.919181 Q 128.605257 97.79795 132.095616 101.688086 Q 133.761353 103.538335 142.166916 111.897771 Q 146.149308 115.849411 149.301395 118.355704 C 157.168798 124.608623 165.517982 130.077365 175.17413 132.701541 Q 175.589283 132.819424 175.348392 132.46065 C 174.28232 130.892295 173.923546 129.262435 171.991292 128.657645 Q 160.228628 124.977648 151.756435 117.863671 Q 146.144183 113.148354 138.26653 105.081063 Q 134.801797 101.534326 131.413945 97.449427 Q 117.201367 80.330778 104.813411 59.926785 Q 104.024108 58.630073 101.251297 54.478545 Q 99.293416 51.551973 97.930075 48.753536 Q 97.576426 48.030862 98.16584 48.574149 C 99.411299 49.732476 100.549125 51.095818 101.584445 52.638546 Q 104.757032 57.364113 109.928504 65.416028 C 114.162038 71.99697 117.877912 77.096687 121.803926 82.985707 Q 122.331836 83.780135 124.930385 87.188488 C 128.948655 92.467592 132.936172 97.536557 137.60536 102.369757 Q 141.931151 106.854432 151.530919 115.736653 Q 157.614702 121.36428 166.394416 125.321046 Q 167.665502 125.895084 172.098924 127.606949 Q 172.698589 127.842715 172.432071 127.2533 L 171.22249 124.618874 C 171.058479 124.27035 170.776585 123.988456 170.428062 123.834696 Q 160.905173 119.606288 154.124343 113.932532 Q 141.792766 103.61009 129.70208 89.197623 Q 126.385983 85.240858 122.731613 79.751615 C 117.970169 72.60176 112.870452 65.595415 108.247391 59.352747 Q 106.802045 57.399991 105.197812 55.662499 C 104.208621 54.596428 103.409067 53.263838 102.819652 52.228519 Q 102.563385 51.772363 102.93241 52.136263 Q 105.54121 54.693809 107.821988 57.056593 C 109.677362 58.983722 111.102208 61.402884 112.819198 63.724665 Q 120.051058 73.514071 120.517464 74.226494 C 123.464537 78.706044 126.590997 83.528993 130.194113 87.721524 C 139.255721 98.274607 148.763234 108.033261 159.628963 116.469577 C 160.874421 117.438267 162.842553 118.709352 164.43141 119.49353 Q 167.327229 120.923501 169.356865 122.020324 Q 170.412686 122.589238 170.018034 121.456537 L 168.946837 118.422333 Q 168.562437 117.330635 167.445112 117.017989 Q 165.564111 116.495204 163.139823 115.188241 Q 158.034981 112.441057 152.36635 107.310588 Q 146.200562 101.739339 141.495496 96.680625 C 138.158898 93.09801 133.838233 87.567764 131.147427 83.857015 Q 124.997015 75.379696 116.893846 66.179704 Q 113.423989 62.24344 112.291288 60.844222" style="fill:none;stroke-width:0.50;stroke:#7f98a9;"/>
		<path vector-effect="non-scaling-stroke" d="M 107.155693 78.63429 C 107.237699 78.55741 107.365832 78.562535 107.432462 78.649666 Q 111.307222 83.282976 114.992344 87.998293 Q 116.458192 89.869043 120.281699 95.594052 C 126.478239 104.865799 133.889486 112.26167 142.459061 119.672917 Q 143.684018 120.728738 145.154992 121.159267 Q 145.252373 121.184893 145.288251 121.092637 L 145.339504 120.949128 Q 145.380507 120.83637 145.283125 120.764615 Q 141.234104 117.791916 137.041573 113.332867 Q 130.834781 106.726299 125.448045 100.273491 Q 123.915567 98.438618 120.394456 93.262021 Q 119.456518 91.883303 113.936523 85.292111 C 112.009394 82.990832 110.574298 81.155959 108.811179 79.295459 Q 106.181878 76.527773 104.987673 74.938917 Q 98.647623 66.502601 94.198824 58.824836 Q 91.754035 54.611804 89.996042 49.358326 Q 89.960165 49.250694 89.862783 49.317323 L 89.719274 49.424956 Q 89.601391 49.512087 89.637268 49.650471 Q 91.210749 55.975145 94.767737 61.413135 Q 100.410741 70.033963 103.065669 73.744712 C 105.956363 77.788608 108.565163 81.981139 111.732625 86.230049 C 113.593125 88.736342 115.586884 91.750044 117.872787 94.37422 Q 117.903539 94.410098 117.944542 94.379346 L 118.108553 94.261463 C 118.185433 94.205084 118.200809 94.097452 118.14443 94.020572 L 107.068562 78.798301 Q 107.03781 78.752173 107.058312 78.731671 L 107.155693 78.63429" style="fill:none;stroke-width:0.50;stroke:#7f98a9;"/>
		<path vector-effect="non-scaling-stroke" d="M 212.097106 139.820643 L 202.466586 137.990896 Q 201.779789 137.857637 201.959176 138.534182 L 202.005305 138.708444 C 202.107811 139.103095 202.425583 139.400365 202.82536 139.487496 Q 206.653991 140.2973 212.061229 140.358804 Q 212.363624 140.36393 212.389251 140.28705 C 212.45588 140.082036 212.317496 139.861646 212.097106 139.820643" style="fill:none;stroke-width:0.50;stroke:#7f98a9;"/>
		<path d="M 327.791491 95.153273 Q 325.24932 97.598062 322.753278 100.078728 Q 320.872277 101.944353 319.011777 103.261566 Q 317.089773 104.624908 314.562979 106.880059 Q 310.47808 110.529304 303.374353 114.921723 Q 271.094938 134.890063 233.382659 139.272232 Q 227.626898 139.943652 218.806181 139.518248 C 213.849974 139.277357 208.258224 138.078026 203.988813 137.119587 Q 202.399956 136.760813 201.354386 136.084268 Q 201.082743 135.904881 201.000737 135.592235 L 200.190933 132.547781 C 200.144805 132.363268 200.298565 132.194132 200.488203 132.219759 C 201.805416 132.409396 203.409649 133.193574 204.578227 133.501094 Q 226.663333 139.302984 249.204595 135.023322 Q 261.495169 132.69129 273.457722 127.653077 Q 278.706074 125.438929 283.257379 122.722497 Q 283.339384 122.671243 283.283006 122.609739 Q 283.236878 122.563611 283.19075 122.589238 Q 274.749308 126.838148 264.262855 130.261877 Q 244.837802 136.612178 225.079602 135.607611 Q 215.167187 135.105327 204.783241 132.132628 Q 201.139121 131.087058 199.570766 130.118368 Q 199.442633 130.036362 199.391379 129.892852 L 198.274054 126.566504 C 198.248428 126.499875 198.320182 126.433245 198.386812 126.458872 Q 210.257108 131.061431 217.601726 132.050622 Q 235.40717 134.449283 252.689829 130.431014 Q 263.227536 127.975974 272.222514 124.101214 Q 278.214041 121.523166 285.768797 117.684284 Q 288.577486 116.254313 290.161217 115.300999 Q 290.268849 115.239495 290.197094 115.16774 Q 290.12534 115.095985 290.068961 115.126737 Q 277.552871 121.026008 275.764126 121.851188 Q 262.884138 127.781211 249.102088 130.466891 C 240.081483 132.224884 230.543219 132.506778 221.512363 131.573965 Q 210.149476 130.400262 199.345251 125.264667 Q 198.2023 124.721381 197.674389 123.573304 L 196.270045 120.518599 Q 195.68063 119.232137 196.967092 119.821552 Q 206.18246 124.075587 210.574879 125.577313 Q 220.42579 128.944664 230.850739 128.934413 Q 243.525714 128.919037 254.652836 126.048845 Q 265.887589 123.158151 276.061396 118.181442 Q 276.138277 118.140439 276.102399 118.063559 L 276.097274 118.063559 Q 276.066522 117.981554 275.984516 118.012306 C 269.516332 120.662108 264.447367 122.712246 257.62041 124.639375 Q 242.105994 129.006168 227.083612 128.119484 C 216.166629 127.468565 206.346471 123.481047 196.454557 118.386456 C 196.280296 118.299325 196.136786 118.171191 196.024028 118.017431 L 193.620242 114.71671 Q 193.461357 114.501445 193.466482 114.229802 Q 193.476733 112.886962 193.179463 112.394929 Q 191.990383 110.426797 189.883867 108.996826 C 188.377016 107.982008 186.034733 107.085073 184.327994 105.906244 Q 180.109836 102.989923 176.742485 99.14079 Q 176.645104 99.033158 176.511845 99.094662 L 176.306831 99.186918 C 176.173572 99.248422 176.14282 99.417559 176.240202 99.525191 L 177.777805 101.144799 Q 177.78293 101.488197 178.136579 101.544576 Q 181.468052 104.676161 185.025041 107.541228 C 186.42426 108.663679 189.494341 110.334541 190.775676 112.430806 Q 193.28197 116.541332 196.516061 125.454305 Q 197.705141 128.73965 199.85266 135.981761 C 201.226252 140.625322 201.687533 145.14075 202.676725 149.922696 C 203.194384 152.428989 204.649982 154.186982 205.716053 155.939849 C 205.921067 156.272997 205.716053 156.708651 205.331653 156.76503 Q 204.070818 156.959793 202.748479 156.811158 C 195.398737 155.991103 189.689104 151.260411 185.230055 145.350889 Q 175.584158 132.558031 170.151293 117.012864 C 168.449679 112.154038 167.906393 107.828248 168.070404 102.733656 C 168.126782 100.970538 168.659818 100.211987 169.592631 98.858896 Q 170.156419 98.033716 169.228731 98.305359 C 166.15865 99.207419 167.014583 109.053205 167.316978 111.380111 Q 167.34773 111.621002 167.12734 111.518495 C 165.138707 110.565181 163.677984 109.95014 162.140381 108.853316 Q 157.676207 105.670478 153.611809 101.990481 Q 145.94942 95.04564 139.604245 86.301804 Q 135.042689 80.013007 134.683915 79.515849 C 131.224307 74.698026 127.990216 70.971901 124.0232 66.999759 Q 116.950225 59.926785 109.093073 53.397097 Q 104.618648 49.676098 97.217652 43.617941 Q 95.111135 41.8907 92.615093 40.92201 C 91.974425 40.675994 91.318381 40.214713 91.318381 39.56892 C 91.333757 35.69416 96.643613 34.320568 99.739321 34.366696 Q 102.076478 34.402573 104.531517 34.889481 Q 117.483261 37.452153 129.860966 39.174268 C 137.405472 40.224964 142.899841 44.222732 150.018943 49.204566 Q 153.171029 51.413589 166.44567 58.445561 Q 177.798306 64.457589 182.236854 66.748618 Q 186.321753 68.860259 188.351389 70.690007 Q 188.546152 70.859143 188.797294 70.797639 C 195.168096 69.162654 200.903356 72.66839 205.864688 76.579027 C 210.626133 80.341029 215.059555 83.698129 220.323283 86.61445 Q 237.20104 95.963077 256.492834 97.885081 C 278.475433 100.068477 299.837866 97.229037 318.150719 84.205538 Q 324.998178 79.331336 329.56486 73.565325 Q 330.600179 72.873403 331.066585 72.022596 C 331.374106 71.458808 331.538117 71.289672 331.994273 70.874519 C 332.373548 70.531121 332.378673 69.936581 331.999398 69.588058 C 330.656558 68.347725 329.26759 66.969007 327.586477 66.266835 Q 326.745921 65.913187 325.157064 65.790178 C 322.830158 65.610791 320.303364 65.528786 318.027711 65.031627 Q 306.890339 62.597089 301.365218 52.141388 Q 295.763218 41.552428 296.286003 29.44124 Q 296.424387 26.186647 297.223941 23.531719 Q 298.095249 20.646151 299.607226 17.986097 Q 299.658479 17.898966 301.180706 15.474679 C 302.195524 13.860195 304.835076 10.513346 306.203543 10.257079 C 306.500813 10.2007 306.741704 10.508221 306.61357 10.784989 Q 306.285548 11.512788 306.054908 12.081701 Q 305.911398 12.43535 305.849894 13.465544 Q 305.163098 24.695172 313.814678 31.640013 Q 317.776569 34.817726 321.876844 37.006248 C 324.716285 38.518224 329.272715 40.532484 332.429927 42.751758 C 336.268809 45.447689 339.866801 48.604901 341.65042 53.022947 Q 343.346909 57.210353 344.192591 60.905726 Q 344.24897 61.151742 344.494986 61.090238 Q 347.426683 60.331687 348.708019 60.300935 Q 349.77409 60.275308 352.418767 60.659709 Q 354.46378 60.956979 356.006508 61.469513 Q 361.639261 63.350515 366.462209 66.502601 Q 369.153015 68.260594 372.648499 70.982151 C 375.108664 72.893905 378.368383 75.005546 380.741417 76.297133 Q 383.596233 77.850112 388.572942 79.397966 C 390.412941 79.97713 392.468203 80.141141 394.646475 80.474288 C 396.968255 80.838187 399.443796 80.622923 401.847583 80.438411 C 402.385744 80.397408 402.703515 81.027825 402.349866 81.437853 Q 401.514435 82.401417 400.345857 82.995957 Q 394.016057 86.214673 388.198792 87.537012 Q 383.293838 88.654337 378.035235 88.710715 Q 367.66154 88.818348 357.779877 85.666261 Q 355.647734 84.989716 347.677824 82.001641 C 345.914706 81.345597 343.88507 81.09958 342.316715 81.248215 Q 340.497218 81.422477 339.123626 82.89345 Q 333.403742 88.997735 327.791491 95.153273 Z M 146.636216 78.772674 Q 144.873098 80.515291 142.694827 79.192952 C 142.602571 79.136573 142.530816 79.059693 142.474437 78.967437 Q 141.787641 77.762981 141.300733 77.245322 Q 140.998338 76.922425 141.121346 77.347828 Q 141.669758 79.321086 142.541066 79.874623 C 144.703962 81.232839 147.035993 79.551726 147.676661 77.255572 Q 148.014934 76.045991 147.205129 74.657023 C 146.046802 72.673515 143.632765 72.012346 141.48012 72.565883 C 141.362237 72.596635 141.146973 72.750395 140.900956 72.970785 Q 140.701068 73.145047 140.726695 73.447442 Q 140.742071 73.667832 140.947085 73.585826 Q 143.166358 72.704267 144.960229 74.108611 C 146.210813 75.087552 148.102064 77.327327 146.636216 78.772674 Z M 144.673209 77.491338 C 144.488697 77.880864 143.976163 77.967995 143.673767 77.6656 L 141.982404 75.974236 C 141.915775 75.907607 141.803017 75.933234 141.772265 76.020364 L 141.715886 76.17925 Q 141.659507 76.32276 141.76714 76.430392 Q 143.371372 78.085878 143.391874 78.101254 C 145.308752 79.582478 146.810478 76.240754 144.334937 75.27719 Q 143.520007 74.964544 142.81271 74.821034 Q 142.602571 74.780031 142.530816 74.97992 L 142.474437 75.13368 Q 142.37193 75.410448 142.653824 75.512955 L 144.304185 76.117746 Q 144.5297 76.199751 144.647583 76.409891 Q 144.939727 76.948052 144.673209 77.491338 Z M 162.50428 105.26045 Q 164.574919 106.598165 166.517425 107.254209 C 166.614806 107.284961 166.717313 107.223457 166.737814 107.12095 L 166.773692 106.941563 Q 166.789068 106.864683 166.717313 106.833931 Q 164.467287 105.865241 163.918875 105.526968 C 157.712084 101.688086 152.386852 95.26603 148.409585 89.187372 C 148.409585 89.182247 148.399334 89.182247 148.394209 89.187372 Q 148.312204 89.269378 148.301953 89.279629 C 148.266075 89.330882 148.26095 89.407762 148.296827 89.484642 Q 149.321896 91.76542 151.115767 94.092326 C 154.421613 98.382239 157.850468 102.262124 162.50428 105.26045 Z" style="fill:#053556;"/>
		<path fill-opacity="0.996" d="M 329.56486 73.565325 Q 324.998178 79.331336 318.150719 84.205538 C 299.837866 97.229037 278.475433 100.068477 256.492834 97.885081 Q 237.20104 95.963077 220.323283 86.61445 C 215.059555 83.698129 210.626133 80.341029 205.864688 76.579027 C 200.903356 72.66839 195.168096 69.162654 188.797294 70.797639 Q 188.546152 70.859143 188.351389 70.690007 Q 186.321753 68.860259 182.236854 66.748618 Q 177.798306 64.457589 166.44567 58.445561 Q 153.171029 51.413589 150.018943 49.204566 C 142.899841 44.222732 137.405472 40.224964 129.860966 39.174268 Q 117.483261 37.452153 104.531517 34.889481 Q 102.076478 34.402573 99.739321 34.366696 C 96.643613 34.320568 91.333757 35.69416 91.318381 39.56892 C 91.318381 40.214713 91.974425 40.675994 92.615093 40.92201 Q 95.111135 41.8907 97.217652 43.617941 Q 104.618648 49.676098 109.093073 53.397097 Q 116.950225 59.926785 124.0232 66.999759 C 127.990216 70.971901 131.224307 74.698026 134.683915 79.515849 Q 135.042689 80.013007 139.604245 86.301804 Q 145.94942 95.04564 153.611809 101.990481 Q 157.676207 105.670478 162.140381 108.853316 C 163.677984 109.95014 165.138707 110.565181 167.12734 111.518495 Q 167.34773 111.621002 167.316978 111.380111 C 167.014583 109.053205 166.15865 99.207419 169.228731 98.305359 Q 170.156419 98.033716 169.592631 98.858896 C 168.659818 100.211987 168.126782 100.970538 168.070404 102.733656 C 167.906393 107.828248 168.449679 112.154038 170.151293 117.012864 Q 175.584158 132.558031 185.230055 145.350889 C 189.689104 151.260411 195.398737 155.991103 202.748479 156.811158 Q 204.070818 156.959793 205.331653 156.76503 C 205.716053 156.708651 205.921067 156.272997 205.716053 155.939849 C 204.649982 154.186982 203.194384 152.428989 202.676725 149.922696 C 201.687533 145.14075 201.226252 140.625322 199.85266 135.981761 Q 197.705141 128.73965 196.516061 125.454305 Q 193.28197 116.541332 190.775676 112.430806 C 189.494341 110.334541 186.42426 108.663679 185.025041 107.541228 Q 181.468052 104.676161 178.136579 101.544576 L 177.777805 101.144799 L 176.240202 99.525191 C 176.14282 99.417559 176.173572 99.248422 176.306831 99.186918 L 176.511845 99.094662 Q 176.645104 99.033158 176.742485 99.14079 Q 180.109836 102.989923 184.327994 105.906244 C 186.034733 107.085073 188.377016 107.982008 189.883867 108.996826 Q 191.990383 110.426797 193.179463 112.394929 Q 193.476733 112.886962 193.466482 114.229802 Q 193.461357 114.501445 193.620242 114.71671 L 196.024028 118.017431 C 196.136786 118.171191 196.280296 118.299325 196.454557 118.386456 C 206.346471 123.481047 216.166629 127.468565 227.083612 128.119484 Q 242.105994 129.006168 257.62041 124.639375 C 264.447367 122.712246 269.516332 120.662108 275.984516 118.012306 Q 276.066522 117.981554 276.097274 118.063559 L 276.102399 118.063559 Q 276.138277 118.140439 276.061396 118.181442 Q 265.887589 123.158151 254.652836 126.048845 Q 243.525714 128.919037 230.850739 128.934413 Q 220.42579 128.944664 210.574879 125.577313 Q 206.18246 124.075587 196.967092 119.821552 Q 195.68063 119.232137 196.270045 120.518599 L 197.674389 123.573304 Q 198.2023 124.721381 199.345251 125.264667 Q 210.149476 130.400262 221.512363 131.573965 C 230.543219 132.506778 240.081483 132.224884 249.102088 130.466891 Q 262.884138 127.781211 275.764126 121.851188 Q 277.552871 121.026008 290.068961 115.126737 Q 290.12534 115.095985 290.197094 115.16774 Q 290.268849 115.239495 290.161217 115.300999 Q 288.577486 116.254313 285.768797 117.684284 Q 278.214041 121.523166 272.222514 124.101214 Q 263.227536 127.975974 252.689829 130.431014 Q 235.40717 134.449283 217.601726 132.050622 Q 210.257108 131.061431 198.386812 126.458872 C 198.320182 126.433245 198.248428 126.499875 198.274054 126.566504 L 199.391379 129.892852 Q 199.442633 130.036362 199.570766 130.118368 Q 201.139121 131.087058 204.783241 132.132628 Q 215.167187 135.105327 225.079602 135.607611 Q 244.837802 136.612178 264.262855 130.261877 Q 274.749308 126.838148 283.19075 122.589238 Q 283.236878 122.563611 283.283006 122.609739 Q 283.339384 122.671243 283.257379 122.722497 Q 278.706074 125.438929 273.457722 127.653077 Q 261.495169 132.69129 249.204595 135.023322 Q 226.663333 139.302984 204.578227 133.501094 C 203.409649 133.193574 201.805416 132.409396 200.488203 132.219759 C 200.298565 132.194132 200.144805 132.363268 200.190933 132.547781 L 201.000737 135.592235 Q 201.082743 135.904881 201.354386 136.084268 Q 202.399956 136.760813 203.988813 137.119587 C 208.258224 138.078026 213.849974 139.277357 218.806181 139.518248 Q 227.626898 139.943652 233.382659 139.272232 Q 271.094938 134.890063 303.374353 114.921723 Q 310.47808 110.529304 314.562979 106.880059 Q 317.089773 104.624908 319.011777 103.261566 Q 320.872277 101.944353 322.753278 100.078728 Q 325.24932 97.598062 327.791491 95.153273 Q 323.701466 99.730205 319.057905 103.661343 Q 317.740692 104.773543 314.42972 107.838498 C 309.950169 111.979776 305.373237 114.173423 299.202323 117.822668 C 296.373134 119.498655 290.755757 122.584112 286.752863 125.341547 Q 286.40434 125.577313 282.708967 127.135418 C 279.362118 128.544887 275.272093 130.738534 272.284018 131.466333 Q 270.59778 131.876361 269.10118 132.573407 C 267.440568 133.35246 265.072659 133.73686 263.053274 134.582542 Q 260.675114 135.581984 260.270212 135.648613 Q 256.88236 136.232903 254.406819 137.001704 C 251.767267 137.821759 249.312227 138.037024 246.488163 138.641814 Q 243.382205 139.302984 242.270005 139.39524 C 240.035355 139.579752 238.513128 139.892398 236.570623 140.025657 Q 230.778984 140.435685 223.905898 141.471004 C 221.09721 141.896408 216.55103 141.48638 213.629584 141.583762 Q 208.581121 141.752898 203.245638 141.0456 Q 202.369204 140.927718 202.517839 141.793901 Q 203.117504 145.274009 203.891431 148.830998 C 204.142573 149.9842 204.5526 151.198906 205.275274 152.341858 C 205.982571 153.474559 206.894883 154.586759 207.07427 155.647705 C 207.22803 156.549765 207.222905 158.000238 205.982571 158.112995 C 202.794608 158.389764 200.483078 158.333385 197.653888 157.149431 C 196.577566 156.6984 194.834949 156.139738 193.58949 155.304307 Q 189.053561 152.275229 185.665709 148.287711 Q 182.057467 144.054177 179.48967 139.836019 C 178.700367 138.539307 176.29658 137.90889 174.856359 137.67825 C 172.980483 137.386105 171.704272 136.694184 169.772018 136.135521 Q 168.45993 135.75112 166.988956 135.054074 Q 166.912076 135.018196 164.200769 133.936749 Q 162.606787 133.301206 156.692141 130.215749 Q 152.268969 127.904219 149.516659 125.90021 Q 147.58953 124.49074 144.468196 122.840379 Q 142.069535 121.569294 139.563242 119.462778 Q 129.717456 111.200724 121.993563 101.416443 Q 119.702535 98.510373 115.797023 94.620237 Q 113.793013 92.621353 109.615858 86.84509 Q 99.939209 73.467943 93.23526 62.699596 Q 90.867351 58.896591 89.755151 55.575368 Q 88.945347 53.145955 88.745459 52.679549 Q 88.038161 51.008687 87.899777 49.742727 Q 87.556379 46.672646 87.5 44.955656 C 87.448747 43.474432 88.540445 42.126466 89.375876 40.942512 L 89.427129 40.558111 C 89.042728 36.903741 92.927739 33.895164 96.033697 33.187867 C 99.006397 32.516447 103.921601 33.105861 107.406835 33.890039 Q 111.496859 34.807475 112.342541 34.950985 Q 121.762923 36.539842 131.270436 37.728921 Q 135.145195 38.215829 140.316667 40.916885 C 143.924909 42.808137 148.291702 46.154986 151.648802 48.256377 Q 158.239994 52.377154 166.799318 56.774699 Q 179.136021 63.114749 186.080862 66.93313 Q 187.428827 67.676305 188.510275 68.106834 Q 189.325204 68.434856 191.062696 68.480984 C 199.663023 68.711624 205.029257 73.831843 211.717831 79.054568 Q 215.003176 81.61724 217.155821 82.96008 Q 221.666123 85.773894 224.551692 87.044979 Q 229.405392 89.182247 232.700988 90.48921 C 243.295074 94.697117 255.370384 96.619121 266.830652 96.988146 Q 270.233881 97.095778 276.871201 96.824135 Q 282.334817 96.603745 286.85537 95.676058 Q 296.450014 93.713051 304.276414 90.284196 Q 310.549834 87.531886 312.748607 85.978907 C 315.275401 84.185037 318.924646 81.940136 321.282304 79.966879 Q 325.679849 76.276632 329.395723 71.873961 Q 329.493105 71.761204 329.636615 71.725326 Q 329.94926 71.658697 329.805751 71.945716 Q 329.262464 73.05279 329.56486 73.565325 Z M 112.291288 60.844222 Q 111.501985 59.865281 112.450173 60.685336 C 114.843709 62.750849 117.24237 65.29302 121.188884 69.449674 Q 123.597796 71.986719 129.040911 79.310835 C 132.67478 84.195288 137.138954 90.509711 141.557 95.276281 C 144.939727 98.925526 148.491591 102.236498 153.007018 106.485408 Q 157.563449 110.780446 163.749739 114.434816 C 164.949069 115.147239 166.901825 115.844285 167.762883 116.341444 Q 168.53681 116.787349 168.285668 115.849411 L 167.368232 112.389804 Q 167.306727 112.164288 167.076087 112.138662 Q 166.220155 112.04128 165.195086 111.51337 C 160.044115 108.858442 155.984843 105.40396 151.633426 101.457445 C 150.377717 100.319619 149.040002 98.807643 147.727914 97.526307 Q 145.831537 95.686308 144.714212 94.394722 Q 139.394105 88.244309 138.553549 87.060355 C 133.464083 79.879748 129.389434 74.564767 123.42866 68.619368 Q 117.503762 62.714972 115.90978 61.27475 Q 109.451847 55.426733 99.313917 47.25181 Q 96.66924 45.119667 94.506345 43.602565 Q 92.835483 42.428861 91.713033 42.162344 C 90.508577 41.875324 89.468132 43.295045 89.134985 44.320113 Q 88.955598 44.8634 89.504009 45.990975 Q 91.713033 50.521779 93.301889 54.03264 C 95.275146 58.389182 98.211968 62.930236 101.487063 67.814689 Q 103.029792 70.121094 105.648842 73.365436 Q 110.041262 78.808551 114.069782 83.590497 C 115.504878 85.292111 117.452509 87.649769 119.061867 89.848542 Q 126.416735 99.914717 131.147427 104.891426 Q 133.151437 107.003067 134.760795 108.786687 Q 140.388422 115.019105 147.205129 120.877373 Q 149.342398 122.712246 152.222841 124.659877 Q 152.253593 124.680378 152.248468 124.721381 L 152.217715 124.875141 Q 152.192089 125.0084 152.074206 124.94177 Q 149.321896 123.475922 147.015492 121.389907 Q 146.933486 121.313027 146.84123 121.395033 L 146.836105 121.400158 Q 146.738723 121.482163 146.84123 121.579545 Q 149.019501 123.655309 151.6078 125.167286 Q 154.647128 126.940654 154.67788 126.956031 Q 164.923443 133.13207 176.501594 136.899197 C 176.973126 137.052958 177.367777 136.514797 177.075633 136.109894 L 176.399087 135.182207 Q 175.681539 134.198141 174.528337 133.80349 Q 172.447447 133.085942 170.228173 132.399146 Q 168.321546 131.804606 163.385839 129.385443 Q 159.987737 127.724832 156.886904 125.633692 C 146.118556 118.376205 137.051823 109.273595 128.692388 99.576444 Q 127.231665 97.885081 122.685485 91.888429 Q 120.799358 89.397512 116.432565 84.062029 Q 107.329955 72.945158 100.221103 61.013358 Q 95.428907 52.971694 91.90267 44.924904 Q 91.67203 44.396993 92.235818 44.504626 L 92.604842 44.576381 Q 93.301889 44.704514 93.578658 45.355433 Q 96.223335 51.454592 101.656199 60.541826 Q 106.766167 69.080649 110.943322 74.800533 C 114.484935 79.654233 119.656407 85.8764 124.192336 91.919181 Q 128.605257 97.79795 132.095616 101.688086 Q 133.761353 103.538335 142.166916 111.897771 Q 146.149308 115.849411 149.301395 118.355704 C 157.168798 124.608623 165.517982 130.077365 175.17413 132.701541 Q 175.589283 132.819424 175.348392 132.46065 C 174.28232 130.892295 173.923546 129.262435 171.991292 128.657645 Q 160.228628 124.977648 151.756435 117.863671 Q 146.144183 113.148354 138.26653 105.081063 Q 134.801797 101.534326 131.413945 97.449427 Q 117.201367 80.330778 104.813411 59.926785 Q 104.024108 58.630073 101.251297 54.478545 Q 99.293416 51.551973 97.930075 48.753536 Q 97.576426 48.030862 98.16584 48.574149 C 99.411299 49.732476 100.549125 51.095818 101.584445 52.638546 Q 104.757032 57.364113 109.928504 65.416028 C 114.162038 71.99697 117.877912 77.096687 121.803926 82.985707 Q 122.331836 83.780135 124.930385 87.188488 C 128.948655 92.467592 132.936172 97.536557 137.60536 102.369757 Q 141.931151 106.854432 151.530919 115.736653 Q 157.614702 121.36428 166.394416 125.321046 Q 167.665502 125.895084 172.098924 127.606949 Q 172.698589 127.842715 172.432071 127.2533 L 171.22249 124.618874 C 171.058479 124.27035 170.776585 123.988456 170.428062 123.834696 Q 160.905173 119.606288 154.124343 113.932532 Q 141.792766 103.61009 129.70208 89.197623 Q 126.385983 85.240858 122.731613 79.751615 C 117.970169 72.60176 112.870452 65.595415 108.247391 59.352747 Q 106.802045 57.399991 105.197812 55.662499 C 104.208621 54.596428 103.409067 53.263838 102.819652 52.228519 Q 102.563385 51.772363 102.93241 52.136263 Q 105.54121 54.693809 107.821988 57.056593 C 109.677362 58.983722 111.102208 61.402884 112.819198 63.724665 Q 120.051058 73.514071 120.517464 74.226494 C 123.464537 78.706044 126.590997 83.528993 130.194113 87.721524 C 139.255721 98.274607 148.763234 108.033261 159.628963 116.469577 C 160.874421 117.438267 162.842553 118.709352 164.43141 119.49353 Q 167.327229 120.923501 169.356865 122.020324 Q 170.412686 122.589238 170.018034 121.456537 L 168.946837 118.422333 Q 168.562437 117.330635 167.445112 117.017989 Q 165.564111 116.495204 163.139823 115.188241 Q 158.034981 112.441057 152.36635 107.310588 Q 146.200562 101.739339 141.495496 96.680625 C 138.158898 93.09801 133.838233 87.567764 131.147427 83.857015 Q 124.997015 75.379696 116.893846 66.179704 Q 113.423989 62.24344 112.291288 60.844222 Z M 107.155693 78.63429 C 107.237699 78.55741 107.365832 78.562535 107.432462 78.649666 Q 111.307222 83.282976 114.992344 87.998293 Q 116.458192 89.869043 120.281699 95.594052 C 126.478239 104.865799 133.889486 112.26167 142.459061 119.672917 Q 143.684018 120.728738 145.154992 121.159267 Q 145.252373 121.184893 145.288251 121.092637 L 145.339504 120.949128 Q 145.380507 120.83637 145.283125 120.764615 Q 141.234104 117.791916 137.041573 113.332867 Q 130.834781 106.726299 125.448045 100.273491 Q 123.915567 98.438618 120.394456 93.262021 Q 119.456518 91.883303 113.936523 85.292111 C 112.009394 82.990832 110.574298 81.155959 108.811179 79.295459 Q 106.181878 76.527773 104.987673 74.938917 Q 98.647623 66.502601 94.198824 58.824836 Q 91.754035 54.611804 89.996042 49.358326 Q 89.960165 49.250694 89.862783 49.317323 L 89.719274 49.424956 Q 89.601391 49.512087 89.637268 49.650471 Q 91.210749 55.975145 94.767737 61.413135 Q 100.410741 70.033963 103.065669 73.744712 C 105.956363 77.788608 108.565163 81.981139 111.732625 86.230049 C 113.593125 88.736342 115.586884 91.750044 117.872787 94.37422 Q 117.903539 94.410098 117.944542 94.379346 L 118.108553 94.261463 C 118.185433 94.205084 118.200809 94.097452 118.14443 94.020572 L 107.068562 78.798301 Q 107.03781 78.752173 107.058312 78.731671 L 107.155693 78.63429 Z M 212.097106 139.820643 L 202.466586 137.990896 Q 201.779789 137.857637 201.959176 138.534182 L 202.005305 138.708444 C 202.107811 139.103095 202.425583 139.400365 202.82536 139.487496 Q 206.653991 140.2973 212.061229 140.358804 Q 212.363624 140.36393 212.389251 140.28705 C 212.45588 140.082036 212.317496 139.861646 212.097106 139.820643 Z" style="fill:#fafcfc;"/>
		<path d="M 89.427129 40.558111 L 89.375876 40.942512 L 89.427129 40.558111 Z" style="fill:#053556;"/>
		<path d="M 112.291288 60.844222 Q 113.423989 62.24344 116.893846 66.179704 Q 124.997015 75.379696 131.147427 83.857015 C 133.838233 87.567764 138.158898 93.09801 141.495496 96.680625 Q 146.200562 101.739339 152.36635 107.310588 Q 158.034981 112.441057 163.139823 115.188241 Q 165.564111 116.495204 167.445112 117.017989 Q 168.562437 117.330635 168.946837 118.422333 L 170.018034 121.456537 Q 170.412686 122.589238 169.356865 122.020324 Q 167.327229 120.923501 164.43141 119.49353 C 162.842553 118.709352 160.874421 117.438267 159.628963 116.469577 C 148.763234 108.033261 139.255721 98.274607 130.194113 87.721524 C 126.590997 83.528993 123.464537 78.706044 120.517464 74.226494 Q 120.051058 73.514071 112.819198 63.724665 C 111.102208 61.402884 109.677362 58.983722 107.821988 57.056593 Q 105.54121 54.693809 102.93241 52.136263 Q 102.563385 51.772363 102.819652 52.228519 C 103.409067 53.263838 104.208621 54.596428 105.197812 55.662499 Q 106.802045 57.399991 108.247391 59.352747 C 112.870452 65.595415 117.970169 72.60176 122.731613 79.751615 Q 126.385983 85.240858 129.70208 89.197623 Q 141.792766 103.61009 154.124343 113.932532 Q 160.905173 119.606288 170.428062 123.834696 C 170.776585 123.988456 171.058479 124.27035 171.22249 124.618874 L 172.432071 127.2533 Q 172.698589 127.842715 172.098924 127.606949 Q 167.665502 125.895084 166.394416 125.321046 Q 157.614702 121.36428 151.530919 115.736653 Q 141.931151 106.854432 137.60536 102.369757 C 132.936172 97.536557 128.948655 92.467592 124.930385 87.188488 Q 122.331836 83.780135 121.803926 82.985707 C 117.877912 77.096687 114.162038 71.99697 109.928504 65.416028 Q 104.757032 57.364113 101.584445 52.638546 C 100.549125 51.095818 99.411299 49.732476 98.16584 48.574149 Q 97.576426 48.030862 97.930075 48.753536 Q 99.293416 51.551973 101.251297 54.478545 Q 104.024108 58.630073 104.813411 59.926785 Q 117.201367 80.330778 131.413945 97.449427 Q 134.801797 101.534326 138.26653 105.081063 Q 146.144183 113.148354 151.756435 117.863671 Q 160.228628 124.977648 171.991292 128.657645 C 173.923546 129.262435 174.28232 130.892295 175.348392 132.46065 Q 175.589283 132.819424 175.17413 132.701541 C 165.517982 130.077365 157.168798 124.608623 149.301395 118.355704 Q 146.149308 115.849411 142.166916 111.897771 Q 133.761353 103.538335 132.095616 101.688086 Q 128.605257 97.79795 124.192336 91.919181 C 119.656407 85.8764 114.484935 79.654233 110.943322 74.800533 Q 106.766167 69.080649 101.656199 60.541826 Q 96.223335 51.454592 93.578658 45.355433 Q 93.301889 44.704514 92.604842 44.576381 L 92.235818 44.504626 Q 91.67203 44.396993 91.90267 44.924904 Q 95.428907 52.971694 100.221103 61.013358 Q 107.329955 72.945158 116.432565 84.062029 Q 120.799358 89.397512 122.685485 91.888429 Q 127.231665 97.885081 128.692388 99.576444 C 137.051823 109.273595 146.118556 118.376205 156.886904 125.633692 Q 159.987737 127.724832 163.385839 129.385443 Q 168.321546 131.804606 170.228173 132.399146 Q 172.447447 133.085942 174.528337 133.80349 Q 175.681539 134.198141 176.399087 135.182207 L 177.075633 136.109894 C 177.367777 136.514797 176.973126 137.052958 176.501594 136.899197 Q 164.923443 133.13207 154.67788 126.956031 Q 154.647128 126.940654 151.6078 125.167286 Q 149.019501 123.655309 146.84123 121.579545 Q 146.738723 121.482163 146.836105 121.400158 L 146.84123 121.395033 Q 146.933486 121.313027 147.015492 121.389907 Q 149.321896 123.475922 152.074206 124.94177 Q 152.192089 125.0084 152.217715 124.875141 L 152.248468 124.721381 Q 152.253593 124.680378 152.222841 124.659877 Q 149.342398 122.712246 147.205129 120.877373 Q 140.388422 115.019105 134.760795 108.786687 Q 133.151437 107.003067 131.147427 104.891426 Q 126.416735 99.914717 119.061867 89.848542 C 117.452509 87.649769 115.504878 85.292111 114.069782 83.590497 Q 110.041262 78.808551 105.648842 73.365436 Q 103.029792 70.121094 101.487063 67.814689 C 98.211968 62.930236 95.275146 58.389182 93.301889 54.03264 Q 91.713033 50.521779 89.504009 45.990975 Q 88.955598 44.8634 89.134985 44.320113 C 89.468132 43.295045 90.508577 41.875324 91.713033 42.162344 Q 92.835483 42.428861 94.506345 43.602565 Q 96.66924 45.119667 99.313917 47.25181 Q 109.451847 55.426733 115.90978 61.27475 Q 117.503762 62.714972 123.42866 68.619368 C 129.389434 74.564767 133.464083 79.879748 138.553549 87.060355 Q 139.394105 88.244309 144.714212 94.394722 Q 145.831537 95.686308 147.727914 97.526307 C 149.040002 98.807643 150.377717 100.319619 151.633426 101.457445 C 155.984843 105.40396 160.044115 108.858442 165.195086 111.51337 Q 166.220155 112.04128 167.076087 112.138662 Q 167.306727 112.164288 167.368232 112.389804 L 168.285668 115.849411 Q 168.53681 116.787349 167.762883 116.341444 C 166.901825 115.844285 164.949069 115.147239 163.749739 114.434816 Q 157.563449 110.780446 153.007018 106.485408 C 148.491591 102.236498 144.939727 98.925526 141.557 95.276281 C 137.138954 90.509711 132.67478 84.195288 129.040911 79.310835 Q 123.597796 71.986719 121.188884 69.449674 C 117.24237 65.29302 114.843709 62.750849 112.450173 60.685336 Q 111.501985 59.865281 112.291288 60.844222 Z" style="fill:#053556;"/>
		<path d="M 107.155693 78.63429 L 107.058312 78.731671 Q 107.03781 78.752173 107.068562 78.798301 L 118.14443 94.020572 C 118.200809 94.097452 118.185433 94.205084 118.108553 94.261463 L 117.944542 94.379346 Q 117.903539 94.410098 117.872787 94.37422 C 115.586884 91.750044 113.593125 88.736342 111.732625 86.230049 C 108.565163 81.981139 105.956363 77.788608 103.065669 73.744712 Q 100.410741 70.033963 94.767737 61.413135 Q 91.210749 55.975145 89.637268 49.650471 Q 89.601391 49.512087 89.719274 49.424956 L 89.862783 49.317323 Q 89.960165 49.250694 89.996042 49.358326 Q 91.754035 54.611804 94.198824 58.824836 Q 98.647623 66.502601 104.987673 74.938917 Q 106.181878 76.527773 108.811179 79.295459 C 110.574298 81.155959 112.009394 82.990832 113.936523 85.292111 Q 119.456518 91.883303 120.394456 93.262021 Q 123.915567 98.438618 125.448045 100.273491 Q 130.834781 106.726299 137.041573 113.332867 Q 141.234104 117.791916 145.283125 120.764615 Q 145.380507 120.83637 145.339504 120.949128 L 145.288251 121.092637 Q 145.252373 121.184893 145.154992 121.159267 Q 143.684018 120.728738 142.459061 119.672917 C 133.889486 112.26167 126.478239 104.865799 120.281699 95.594052 Q 116.458192 89.869043 114.992344 87.998293 Q 111.307222 83.282976 107.432462 78.649666 C 107.365832 78.562535 107.237699 78.55741 107.155693 78.63429 Z" style="fill:#053556;"/>
		<path fill-opacity="0.996" d="M 146.636216 78.772674 C 148.102064 77.327327 146.210813 75.087552 144.960229 74.108611 Q 143.166358 72.704267 140.947085 73.585826 Q 140.742071 73.667832 140.726695 73.447442 Q 140.701068 73.145047 140.900956 72.970785 C 141.146973 72.750395 141.362237 72.596635 141.48012 72.565883 C 143.632765 72.012346 146.046802 72.673515 147.205129 74.657023 Q 148.014934 76.045991 147.676661 77.255572 C 147.035993 79.551726 144.703962 81.232839 142.541066 79.874623 Q 141.669758 79.321086 141.121346 77.347828 Q 140.998338 76.922425 141.300733 77.245322 Q 141.787641 77.762981 142.474437 78.967437 C 142.530816 79.059693 142.602571 79.136573 142.694827 79.192952 Q 144.873098 80.515291 146.636216 78.772674 Z" style="fill:#fafcfc;"/>
		<path fill-opacity="0.996" d="M 144.673209 77.491338 Q 144.939727 76.948052 144.647583 76.409891 Q 144.5297 76.199751 144.304185 76.117746 L 142.653824 75.512955 Q 142.37193 75.410448 142.474437 75.13368 L 142.530816 74.97992 Q 142.602571 74.780031 142.81271 74.821034 Q 143.520007 74.964544 144.334937 75.27719 C 146.810478 76.240754 145.308752 79.582478 143.391874 78.101254 Q 143.371372 78.085878 141.76714 76.430392 Q 141.659507 76.32276 141.715886 76.17925 L 141.772265 76.020364 C 141.803017 75.933234 141.915775 75.907607 141.982404 75.974236 L 143.673767 77.6656 C 143.976163 77.967995 144.488697 77.880864 144.673209 77.491338 Z" style="fill:#fafcfc;"/>
		<path fill-opacity="0.996" d="M 162.50428 105.26045 C 157.850468 102.262124 154.421613 98.382239 151.115767 94.092326 Q 149.321896 91.76542 148.296827 89.484642 C 148.26095 89.407762 148.266075 89.330882 148.301953 89.279629 Q 148.312204 89.269378 148.394209 89.187372 C 148.399334 89.182247 148.409585 89.182247 148.409585 89.187372 C 152.386852 95.26603 157.712084 101.688086 163.918875 105.526968 Q 164.467287 105.865241 166.717313 106.833931 Q 166.789068 106.864683 166.773692 106.941563 L 166.737814 107.12095 C 166.717313 107.223457 166.614806 107.284961 166.517425 107.254209 Q 164.574919 106.598165 162.50428 105.26045 Z" style="fill:#fafcfc;"/>
		<path d="M 202.466586 137.990896 L 212.097106 139.820643 C 212.317496 139.861646 212.45588 140.082036 212.389251 140.28705 Q 212.363624 140.36393 212.061229 140.358804 Q 206.653991 140.2973 202.82536 139.487496 C 202.425583 139.400365 202.107811 139.103095 202.005305 138.708444 L 201.959176 138.534182 Q 201.779789 137.857637 202.466586 137.990896 Z" style="fill:#053556;"/>
	</g>
	<g id="surface4">
	</g>
</svg>
