<?xml version="1.0" encoding="utf-8"?>
<svg xmlns="http://www.w3.org/2000/svg" width="490pt" height="280pt" viewBox="0 0 490 280" version="1.1" xmlns:xlink="http://www.w3.org/1999/xlink">
	<g id="surface2">
		<path vector-effect="non-scaling-stroke" d="M 307.595942 125.880458 L 305.378786 125.927332 C 305.315506 125.929676 305.268632 125.866395 305.292069 125.805459 Q 306.613925 122.402382 306.714705 118.764933 C 306.956108 110.161149 304.045211 102.084701 296.728127 97.080865 C 294.187538 95.344171 291.077426 94.584807 288.021219 95.384014 C 287.950908 95.402764 287.873565 95.384014 287.822003 95.332452 Q 287.266543 94.805116 285.513442 93.03561 C 282.272082 89.759094 278.913536 86.599763 275.083902 84.014644 C 267.867598 79.1444 260.496609 74.883523 252.546721 72.881989 Q 248.410061 71.841378 246.870239 71.269511 Q 244.582771 70.42343 242.982013 68.782828 Q 239.042225 64.739916 237.769586 59.171245 Q 237.635995 58.58766 237.732087 57.858764 Q 238.057864 55.407236 237.500059 53.098675 Q 236.543823 49.147168 234.6126 45.458158 Q 233.436054 43.210533 231.289209 41.061345 C 230.862653 40.634789 230.649375 40.278544 230.560313 39.70902 Q 229.547828 33.184113 228.549404 28.365431 C 228.25644 26.949826 227.157237 25.705312 226.107251 24.880324 C 225.931473 24.744388 225.683039 24.753763 225.518978 24.906105 Q 224.651803 25.705312 223.887752 26.546707 Q 219.219068 31.674759 214.83163 36.809843 C 214.77538 36.875467 214.69335 36.912966 214.606633 36.91531 Q 211.259805 36.987965 209.92623 37.065308 Q 205.297389 37.334835 200.856046 38.366071 Q 200.661518 38.410601 200.490426 38.382477 Q 200.234961 38.337946 200.138869 38.272322 Q 194.987379 34.728622 192.116326 32.867711 Q 190.461662 31.796632 189.10465 31.161485 C 188.952308 31.08883 188.771842 31.109923 188.63825 31.21539 C 187.644514 31.988817 186.608591 33.022396 186.385938 34.220035 Q 186.179691 35.316895 186.278127 36.554377 Q 186.477343 39.104341 187.217958 47.391724 Q 187.229676 47.50891 187.166396 47.607346 C 184.459403 51.861192 184.386748 57.521268 185.535169 62.304794" style="fill:none;stroke-width:0.50;stroke:#746d68;"/>
		<path vector-effect="non-scaling-stroke" d="M 185.535169 62.304794 L 185.387515 62.796975" style="fill:none;stroke-width:0.50;stroke:#eddcbf;"/>
		<path vector-effect="non-scaling-stroke" d="M 185.387515 62.796975 Q 183.634415 63.441497 182.251622 64.428202 Q 181.48757 64.974288 182.40162 64.751635 L 185.88907 63.903209 C 186.017975 63.872741 186.151567 63.936021 186.205472 64.057895 L 187.016398 65.874275 C 187.084366 66.028961 187.271863 66.089897 187.417174 66.00318 L 188.661687 65.269596 Q 188.685124 65.25319 188.703874 65.276627 L 188.73903 65.325845 Q 188.750749 65.339908 188.736686 65.349283 L 187.485141 66.16724 C 187.316394 66.277395 187.269519 66.502391 187.379674 66.671139 Q 188.345286 68.161743 189.172618 69.265634 Q 189.674173 69.933593 189.692923 70.217183 Q 190.229634 78.987371 192.988189 87.188036 Q 194.164734 90.689549 196.035021 95.151986 Q 197.551405 98.773029 199.409973 104.433105 Q 201.69744 111.400975 203.084921 119.400081 Q 203.572414 122.217228 203.691943 124.258606 Q 203.696631 124.345323 203.609913 124.354698 L 202.970079 124.422666 Q 202.634927 124.457822 202.634927 124.797661 L 202.634927 125.828896 Q 202.634927 125.943738 202.520085 125.943738 L 190.508536 125.943738 Q 190.299945 125.943738 190.283539 126.152329 Q 189.770265 132.135838 192.273355 137.327171" style="fill:none;stroke-width:0.50;stroke:#746d68;"/>
		<path vector-effect="non-scaling-stroke" d="M 192.273355 137.327171 Q 192.266324 137.362327 192.261636 137.399826" style="fill:none;stroke-width:0.50;stroke:#898678;"/>
		<path vector-effect="non-scaling-stroke" d="M 219.903433 52.072127 Q 217.66284 52.554932 216.795664 54.600997 Q 216.739415 54.736933 216.762852 54.774432 Q 216.863632 54.940836 217.011286 54.814275 C 217.965179 53.998662 219.326879 53.276797 220.622954 53.377577" style="fill:none;stroke-width:0.50;stroke:#7f8087;"/>
		<path vector-effect="non-scaling-stroke" d="M 240.687514 69.087511 C 241.280474 71.982001 243.162479 80.927969 247.847569 79.507676 Q 249.136613 79.118619 249.851447 78.073321 Q 249.947539 77.932698 250.015507 78.089727 Q 250.0741 78.218632 250.125662 78.354567 C 250.167849 78.467066 250.200661 78.556127 250.210035 78.570189 C 251.803763 81.014686 255.045123 81.790456 257.824771 82.116233 Q 262.566111 82.676381 265.200448 83.086532 C 267.417605 83.431058 269.85507 84.089643 272.161287 84.659166" style="fill:none;stroke-width:0.50;stroke:#949a97;"/>
		<path vector-effect="non-scaling-stroke" d="M 288.021219 97.155864 Q 287.974345 97.493359 287.768098 97.868354 Q 285.904843 101.219869 283.762686 103.814364" style="fill:none;stroke-width:0.50;stroke:#949a97;"/>
		<path vector-effect="non-scaling-stroke" d="M 283.762686 103.814364 Q 280.228361 107.219784 277.504962 111.171291 Q 277.4909 111.19004 277.500274 111.232227 Q 277.504962 111.265039 277.533086 111.288477 Q 277.57293 111.318945 277.610429 111.288477 C 278.379168 110.653329 279.171345 110.039276 279.888522 109.331473 Q 282.180677 107.07213 284.667361 104.901848" style="fill:none;stroke-width:0.50;stroke:#7f8087;"/>
		<path vector-effect="non-scaling-stroke" d="M 284.667361 104.901848 Q 285.290789 104.412011 285.515786 104.332325 Q 286.298587 104.051079 287.514977 104.137796 Q 292.129755 104.465917 295.333616 107.653372 Q 296.571098 108.886167 297.074998 110.072088 Q 298.225763 112.788455 298.589039 113.639225 Q 299.191374 115.03608 300.719477 116.456372" style="fill:none;stroke-width:0.50;stroke:#949a97;"/>
		<path vector-effect="non-scaling-stroke" d="M 300.719477 116.456372 Q 299.821834 117.714948 298.61482 118.853995 Q 295.333616 121.952388 291.281329 123.937516 Q 290.526653 124.307824 289.769632 124.659381 C 289.741508 124.673444 289.729789 124.703912 289.746195 124.717974 L 289.748539 124.720318 Q 289.788382 124.75313 289.802444 124.748442 C 294.389098 123.480492 298.703881 121.118025 301.994459 117.66573 Q 302.029615 117.630574 302.069458 117.611825 Q 302.200706 117.550888 302.165551 117.635262" style="fill:none;stroke-width:0.50;stroke:#7f8087;"/>
		<path vector-effect="non-scaling-stroke" d="M 302.165551 117.635262 Q 303.323347 118.284471 304.776451 118.650091" style="fill:none;stroke-width:0.50;stroke:#949a97;"/>
		<path vector-effect="non-scaling-stroke" d="M 252.696719 125.943738 Q 251.46158 125.460932 250.425657 124.371104 C 249.42489 123.318775 248.881148 121.797703 249.413172 120.426629 Q 249.849103 119.303988 251.098304 118.631341" style="fill:none;stroke-width:0.50;stroke:#949a97;"/>
		<path vector-effect="non-scaling-stroke" d="M 202.215402 55.43536 L 204.697398 56.035352 C 204.807553 56.061133 204.889583 55.936916 204.821615 55.845511 Q 204.399746 55.287706 203.680225 54.947867 Q 203.232575 54.739276 202.944298 54.561154" style="fill:none;stroke-width:0.50;stroke:#7f8087;"/>
		<path vector-effect="non-scaling-stroke" d="M 312.360719 131.47491 Q 312.105254 131.770218 312.177909 132.1499" style="fill:none;stroke-width:0.50;stroke:#1b2b40;"/>
		<path vector-effect="non-scaling-stroke" d="M 312.112285 132.428803 L 311.706822 133.745971" style="fill:none;stroke-width:0.50;stroke:#1b2b40;"/>
		<path vector-effect="non-scaling-stroke" d="M 311.652916 133.872532 L 311.059956 135.335011" style="fill:none;stroke-width:0.50;stroke:#1b2b40;"/>
		<path vector-effect="non-scaling-stroke" d="M 310.945114 135.695944 L 310.286529 137.045925" style="fill:none;stroke-width:0.50;stroke:#1b2b40;"/>
		<path vector-effect="non-scaling-stroke" d="M 310.068564 137.437325 Q 309.850598 137.594355 309.824817 137.920131" style="fill:none;stroke-width:0.50;stroke:#1b2b40;"/>
		<path vector-effect="non-scaling-stroke" d="M 309.824817 137.920131 L 308.662334 139.806823" style="fill:none;stroke-width:0.50;stroke:#1b2b40;"/>
		<path vector-effect="non-scaling-stroke" d="M 308.594366 139.895884 Q 308.343588 140.043539 308.27562 140.37869" style="fill:none;stroke-width:0.50;stroke:#1b2b40;"/>
		<path vector-effect="non-scaling-stroke" d="M 306.27643 142.804437 Q 306.072527 142.804437 306.105339 142.989591" style="fill:none;stroke-width:0.50;stroke:#1b2b40;"/>
		<path vector-effect="non-scaling-stroke" d="M 294.825029 150.576202 Q 294.539096 150.740262 295.021902 150.632451" style="fill:none;stroke-width:0.50;stroke:#1b2b40;"/>
		<path vector-effect="non-scaling-stroke" d="M 299.324966 150.569171 L 301.511654 150.592608" style="fill:none;stroke-width:0.50;stroke:#1b2b40;"/>
		<path vector-effect="non-scaling-stroke" d="M 304.685046 150.773074 L 306.939702 150.939478" style="fill:none;stroke-width:0.50;stroke:#1b2b40;"/>
		<path vector-effect="non-scaling-stroke" d="M 307.181105 150.962915 Q 307.143605 150.969947 307.122512 150.981665 Q 307.073294 151.012133 307.115481 151.049633 Q 307.347508 151.253536 307.673285 151.152756" style="fill:none;stroke-width:0.50;stroke:#1b2b40;"/>
		<path vector-effect="non-scaling-stroke" d="M 199.025603 152.118368 Q 199.259975 152.048056 199.517784 152.080868 Q 199.524815 152.083212 199.520127 152.076181 Q 199.517784 152.073837 199.513096 152.085556 Q 199.508409 152.092587 199.49669 152.092587 L 197.509218 152.036338" style="fill:none;stroke-width:0.50;stroke:#1b2b40;"/>
		<path vector-effect="non-scaling-stroke" d="M 195.477216 151.612125 Q 195.786587 151.185569 196.414703 151.007446 Q 196.576419 150.960572 197.298284 150.97229 Q 197.778746 150.979321 198.184209 150.751981" style="fill:none;stroke-width:0.50;stroke:#1b2b40;"/>
		<path vector-effect="non-scaling-stroke" d="M 207.44189 150.601983 Q 207.774698 150.805886 208.137974 150.700419 Q 208.278597 150.660576 208.147349 150.597296 Q 207.969227 150.508234 207.702043 150.564484" style="fill:none;stroke-width:0.50;stroke:#1b2b40;"/>
		<path vector-effect="non-scaling-stroke" d="M 192.653037 138.166221 Q 192.709286 138.018567 192.519445 137.873257" style="fill:none;stroke-width:0.50;stroke:#1b2b40;"/>
		<path vector-effect="non-scaling-stroke" d="M 192.519445 137.873257 Q 192.488977 137.556855 192.273355 137.327171" style="fill:none;stroke-width:0.50;stroke:#1b2b40;"/>
		<path vector-effect="non-scaling-stroke" d="M 185.387515 62.796975 C 187.070304 62.23917 190.103073 61.4634 191.828049 62.3212 Q 191.914766 62.363387 191.821018 62.386825 L 188.321848 63.237594 Q 188.042946 63.305562 188.139038 63.575089 L 188.600751 64.880539 C 188.652312 65.021162 188.809341 65.093818 188.949964 65.037568 C 189.592143 64.784447 190.147604 64.524294 190.302289 64.524294 C 190.306977 64.524294 190.30932 64.531325 190.304633 64.533669 L 189.092931 65.234441 C 188.952308 65.316471 188.912465 65.501624 189.010901 65.632872 L 193.550681 71.686693 Q 193.555368 71.693724 193.550681 71.700755 Q 193.538962 71.721849 193.513181 71.74763 Q 193.468651 71.794504 193.412401 71.759348 L 191.776487 70.735144 C 191.727269 70.704676 191.663989 70.742175 191.668676 70.800768 Q 192.474915 80.269384 195.716275 88.922387 Q 196.461577 90.912202 198.634202 96.305095 C 200.806828 101.6933 202.606803 107.653372 203.975533 113.604069 Q 205.142704 118.687591 205.77082 124.244543 C 205.777851 124.30548 205.829413 124.350011 205.89035 124.350011 L 208.775465 124.350011 C 208.808277 124.350011 208.834058 124.32423 208.836402 124.291418 Q 209.427019 115.225921 209.710608 105.928396 Q 209.921543 99.0074 209.879356 94.446527 Q 209.858262 92.02078 209.572329 89.482535 C 209.56061 89.377068 209.654359 89.29035 209.759826 89.311444 C 211.210587 89.609096 211.529333 91.148918 211.594957 92.398119 Q 211.749642 95.292609 211.733236 98.140225 C 211.686362 106.633855 211.273867 114.255622 210.793405 124.211731 Q 210.786374 124.357042 210.931685 124.357042 L 214.550384 124.357042 Q 214.658195 124.357042 214.681632 124.251574 Q 216.905819 114.382183 217.70737 111.726752 Q 221.25107 99.987074 223.580725 88.034118 Q 223.737754 87.225536 224.490087 87.499751 Q 224.513524 87.509125 224.518211 87.509125 Q 225.265857 87.80209 225.151015 88.528642 C 223.850252 96.881649 221.701064 104.70732 219.108913 113.20095 C 219.043289 113.423603 219.026883 113.700161 219.066726 113.892346 Q 219.755779 117.311829 221.040136 120.787561 Q 221.991685 123.363306 223.027607 125.868739 C 223.04167 125.903895 223.074482 125.924988 223.111981 125.924988 L 245.410103 125.924988 Q 245.456978 125.924988 245.431197 125.887489 Q 243.673409 123.288307 244.819487 120.644594 C 245.932752 118.080568 249.663949 116.803242 252.178758 116.538402 C 254.051387 116.339186 255.745895 116.739962 257.379465 117.595419 C 258.450544 118.153223 259.997397 119.278207 261.277066 119.573516 Q 262.284865 119.805544 263.482504 119.819606 Q 269.817571 119.892261 276.579194 119.421174 C 276.736223 119.411799 276.883877 119.491486 276.949501 119.627421 Q 276.987 119.70242 276.74091 119.836012 Q 274.828437 120.869591 272.412065 121.1274 Q 268.308217 121.568019 264.11062 121.5563 Q 263.616096 121.5563 264.026246 121.835202 C 264.75983 122.334414 265.709035 122.613316 266.515274 123.168777 Q 266.916049 123.445336 266.447306 123.403149 Q 264.954358 123.267213 263.414536 122.657847 C 260.972383 121.694579 258.145861 119.955542 256.378698 119.013367 Q 253.760766 117.6212 251.098304 118.631341" style="fill:none;stroke-width:0.50;stroke:#7f8087;"/>
		<path vector-effect="non-scaling-stroke" d="M 251.098304 118.631341 Q 249.928789 118.535249 248.595215 119.285238 Q 247.085861 120.13132 246.394464 121.485989 C 245.618694 123.00003 246.44837 124.877347 247.767882 125.699992 Q 248.337406 126.053893 249.502233 126.084361 Q 251.117054 126.124204 252.696719 125.943738" style="fill:none;stroke-width:0.50;stroke:#1b2b40;"/>
		<path vector-effect="non-scaling-stroke" d="M 252.696719 125.943738 L 303.248348 125.873427 Q 303.372565 125.873427 303.414752 125.758584 C 304.148335 123.822674 304.783482 121.476614 304.753014 119.435236 Q 304.745983 119.02743 304.776451 118.650091" style="fill:none;stroke-width:0.50;stroke:#7f8087;"/>
		<path vector-effect="non-scaling-stroke" d="M 304.776451 118.650091 Q 305.074103 114.403276 304.049899 110.31349 Q 304.019431 110.196305 303.853027 109.980683" style="fill:none;stroke-width:0.50;stroke:#1b2b40;"/>
		<path vector-effect="non-scaling-stroke" d="M 303.853027 109.980683 Q 303.166318 106.779165 301.366343 104.067485 Q 300.154641 102.244073 298.096858 100.254258 Q 297.351556 99.534737 296.552349 99.241772" style="fill:none;stroke-width:0.50;stroke:#746d68;"/>
		<path vector-effect="non-scaling-stroke" d="M 296.552349 99.241772 Q 295.366428 98.098038 294.382067 97.706637 C 293.554735 97.376173 292.675841 96.982429 291.820384 96.872274 Q 289.891505 96.62384 288.021219 97.155864" style="fill:none;stroke-width:0.50;stroke:#1b2b40;"/>
		<path vector-effect="non-scaling-stroke" d="M 288.021219 97.155864 L 284.381427 98.297254 C 284.322834 98.316004 284.259554 98.292567 284.233773 98.241005 Q 284.222054 98.215224 284.252523 98.156631 Q 284.27596 98.114444 284.306428 98.095694 Q 285.466568 97.331643 286.65952 96.410562 Q 286.818893 96.288689 286.661864 96.162128 C 286.354837 95.918382 285.900156 95.695728 285.630628 95.442607 C 281.111942 91.223917 277.961987 88.200522 273.490175 85.074004 Q 273.117524 84.813851 272.161287 84.659166" style="fill:none;stroke-width:0.50;stroke:#7f8087;"/>
		<path vector-effect="non-scaling-stroke" d="M 272.161287 84.659166 Q 272.444877 84.738852 272.451908 84.722446 C 272.501126 84.614635 272.468314 84.488074 272.369878 84.417763 Q 265.999656 79.908452 259.519279 77.14521 Q 255.778707 75.549138 253.240461 74.855398 Q 249.183487 73.74682 247.73507 73.341357 C 245.632756 72.753084 243.420288 71.714818 241.842966 70.186714 Q 241.285162 69.647659 240.687514 69.087511" style="fill:none;stroke-width:0.50;stroke:#1b2b40;"/>
		<path vector-effect="non-scaling-stroke" d="M 240.687514 69.087511 Q 240.610171 68.951575 240.436736 68.731266 Q 238.86879 66.767231 237.537558 64.1493 Q 237.44381 63.961802 237.427404 64.170393 C 237.282093 65.890681 236.053986 67.184413 234.69463 68.201586 Q 234.415728 68.410177 234.59385 68.110181 Q 235.761021 66.118022 236.11961 63.978208 Q 236.335232 62.707914 236.171172 62.046986 Q 235.859457 60.772004 235.95555 59.996233 Q 235.983674 59.778268 235.833676 59.939984 Q 234.832909 61.022781 233.98214 61.690741 Q 233.979796 61.693084 233.930578 61.702459 Q 233.902454 61.70949 233.867298 61.690741 Q 233.801674 61.655585 233.841517 61.592305 C 235.282903 59.321243 236.262576 57.167367 235.843051 54.408812 Q 235.77274 53.944756 235.599305 53.705697" style="fill:none;stroke-width:0.50;stroke:#7f8087;"/>
		<path vector-effect="non-scaling-stroke" d="M 235.599305 53.705697 Q 235.650866 53.396327 235.594617 53.192423 C 234.849315 50.405744 233.867298 47.916717 232.306382 45.317535 Q 230.218131 41.839459 226.458809 40.33948 Q 225.258826 39.861362 224.258059 39.509804 C 224.105717 39.455899 224.070561 39.256683 224.199466 39.176997 Q 224.258059 39.139497 224.408057 39.174653" style="fill:none;stroke-width:0.50;stroke:#1b2b40;"/>
		<path vector-effect="non-scaling-stroke" d="M 224.408057 39.174653 Q 226.40256 39.301214 228.289252 39.821519 C 228.352532 39.840268 228.415812 39.784019 228.406438 39.718395 Q 227.834571 35.084867 226.906459 30.320091" style="fill:none;stroke-width:0.50;stroke:#746d68;"/>
		<path vector-effect="non-scaling-stroke" d="M 226.906459 30.320091 Q 226.789273 29.007609 225.910379 27.650597 Q 225.828349 27.524036 225.711163 27.620129 Q 225.176796 28.063091 224.640085 28.649021 Q 220.646391 33.013021 217.946429 36.191101 Q 216.8941 37.433271 216.13708 38.76919 C 216.066768 38.891063 215.93552 38.966062 215.794897 38.961375 Q 212.947281 38.893407 210.226226 38.980124 Q 209.771545 38.994187 209.103586 39.17934" style="fill:none;stroke-width:0.50;stroke:#1b2b40;"/>
		<path vector-effect="non-scaling-stroke" d="M 209.103586 39.17934 Q 205.859882 39.305901 202.538835 39.983235" style="fill:none;stroke-width:0.50;stroke:#7f8087;"/>
		<path vector-effect="non-scaling-stroke" d="M 202.538835 39.983235 C 201.854469 39.955111 201.188854 40.2387 200.49277 40.353542 Q 199.892778 40.451979 199.672469 40.299637 Q 197.469375 38.771534 192.676474 35.527829 Q 190.991342 34.386439 189.238242 33.388016 C 189.179649 33.355204 189.10465 33.378641 189.078869 33.439578 Q 188.246849 35.368457 188.617157 37.121557" style="fill:none;stroke-width:0.50;stroke:#1b2b40;"/>
		<path vector-effect="non-scaling-stroke" d="M 188.617157 37.121557 L 189.371834 45.55425 Q 189.381208 45.657374 189.463238 45.59175 Q 191.101497 44.227706 193.030376 43.325375" style="fill:none;stroke-width:0.50;stroke:#746d68;"/>
		<path vector-effect="non-scaling-stroke" d="M 193.030376 43.325375 Q 193.199123 43.351156 193.238966 43.428499 Q 193.271778 43.494123 193.17803 43.594903 Q 192.268668 44.560514 191.300712 45.462845 Q 187.508579 48.99717 186.924993 54.181472 Q 186.486718 58.090792 187.503891 61.826676" style="fill:none;stroke-width:0.50;stroke:#1b2b40;"/>
		<path vector-effect="non-scaling-stroke" d="M 187.503891 61.826676 L 185.535169 62.304794" style="fill:none;stroke-width:0.50;stroke:#7f8087;"/>
		<path vector-effect="non-scaling-stroke" d="M 202.538835 39.983235 C 205.020831 42.043362 206.234876 44.825354 205.939568 48.069058 Q 205.604416 51.751038 202.944298 54.561154" style="fill:none;stroke-width:0.50;stroke:#949a97;"/>
		<path vector-effect="non-scaling-stroke" d="M 202.944298 54.561154 Q 202.189621 54.521311 201.55213 54.530686 C 199.972465 54.549435 198.188896 55.578327 197.999055 57.258772 Q 197.919369 57.961887 198.444361 57.486113 Q 198.805294 57.157992 199.503721 56.581438 Q 200.152931 56.04707 200.673236 55.81973 Q 201.45135 55.479891 202.215402 55.43536" style="fill:none;stroke-width:0.50;stroke:#1b2b40;"/>
		<path vector-effect="non-scaling-stroke" d="M 202.215402 55.43536 Q 200.054495 57.165023 197.710778 58.667346 Q 195.793618 59.895454 193.646773 60.596225 C 191.886642 61.170436 189.554643 61.446994 187.503891 61.826676" style="fill:none;stroke-width:0.50;stroke:#949a97;"/>
		<path vector-effect="non-scaling-stroke" d="M 193.030376 43.325375 Q 193.185061 43.273814 193.250685 43.18944 Q 193.325684 43.091004 193.262403 42.985536 Q 191.338212 39.863706 188.617157 37.121557" style="fill:none;stroke-width:0.50;stroke:#898678;"/>
		<path vector-effect="non-scaling-stroke" d="M 226.906459 30.320091 Q 225.057266 34.562218 224.051812 38.9145 Q 224.007281 39.106685 224.20181 39.139497 L 224.408057 39.174653" style="fill:none;stroke-width:0.50;stroke:#898678;"/>
		<path vector-effect="non-scaling-stroke" d="M 235.599305 53.705697 C 233.180589 55.156458 230.954058 57.036119 227.982225 57.0244 C 226.133032 57.015026 224.054155 56.10332 222.608082 54.92443 Q 221.239351 53.811165 220.622954 53.377577" style="fill:none;stroke-width:0.50;stroke:#949a97;"/>
		<path vector-effect="non-scaling-stroke" d="M 220.622954 53.377577 Q 222.912765 53.422108 224.684615 54.964273 Q 224.95883 55.203332 225.017423 54.833025 C 225.02211 54.802557 225.019767 54.772089 225.008048 54.743964 C 224.180716 52.658056 222.129964 51.854161 219.903433 52.072127" style="fill:none;stroke-width:0.50;stroke:#1b2b40;"/>
		<path vector-effect="non-scaling-stroke" d="M 219.903433 52.072127 Q 218.527671 51.132296 217.201127 49.60888 Q 215.628493 47.804218 214.763662 46.540955 Q 212.944938 43.885524 211.062933 41.274623 Q 210.53794 40.543384 209.103586 39.17934" style="fill:none;stroke-width:0.50;stroke:#949a97;"/>
		<path vector-effect="non-scaling-stroke" d="M 296.552349 99.241772 Q 298.528102 101.2644 299.892145 103.418275 C 300.454637 104.3042 301.075722 105.145595 301.55384 105.84871 C 302.474921 107.203378 303.140537 108.76195 303.714747 110.147086 Q 303.801465 110.358021 303.878808 110.144743 Q 303.895214 110.100212 303.853027 109.980683" style="fill:none;stroke-width:0.50;stroke:#898678;"/>
		<path vector-effect="non-scaling-stroke" d="M 302.165551 117.635262 C 302.233518 117.452452 302.247581 117.295423 302.355392 117.143081 C 302.943665 116.311062 303.386627 115.172015 302.992883 114.154842 C 302.957727 114.068125 302.840541 114.054062 302.788979 114.133749 C 302.256955 114.961081 301.635871 115.985285 300.719477 116.456372" style="fill:none;stroke-width:0.50;stroke:#1b2b40;"/>
		<path vector-effect="non-scaling-stroke" d="M 284.667361 104.901848 L 283.762686 103.814364" style="fill:none;stroke-width:0.50;stroke:#1b2b40;"/>
		<path vector-effect="non-scaling-stroke" d="M 217.967523 118.408688 Q 217.519873 120.021166 216.713634 123.850799 C 216.570668 124.528133 216.737071 125.062501 216.66676 125.779678 Q 216.652698 125.920301 216.793321 125.920301 L 220.80342 125.920301 C 220.854982 125.920301 220.890138 125.866395 220.869044 125.819521 Q 219.235474 122.210197 218.115177 118.406345 Q 218.040178 118.148536 217.967523 118.408688" style="fill:none;stroke-width:0.50;stroke:#746d68;"/>
		<path vector-effect="non-scaling-stroke" d="M 251.302208 142.635689 C 263.098134 142.635689 274.980779 142.61694 286.682957 142.185696 C 292.846932 141.958355 299.906207 141.346645 304.734264 137.038894 Q 307.924063 134.193621 308.812332 129.942119 Q 308.845144 129.78509 308.683427 129.782746 Q 307.593599 129.759309 251.304551 129.754622 Q 195.01316 129.74759 193.923332 129.768684 Q 193.763959 129.771028 193.796771 129.928057 Q 194.682696 134.179559 197.872495 137.027175 C 202.698208 141.334927 209.757483 141.94898 215.923802 142.176321 C 227.623636 142.612252 239.506281 142.633346 251.302208 142.635689" style="fill:none;stroke-width:0.50;stroke:#7f8087;"/>
		<path vector-effect="non-scaling-stroke" d="M 212.708222 59.579052 Q 213.212121 58.988435 213.22384 58.161103 Q 213.226184 58.041574 213.14181 57.954856 C 212.361352 57.146274 210.624658 57.324396 209.816076 57.830639 C 209.000462 58.341569 209.76217 59.072809 210.174664 59.684519 C 210.216851 59.743112 210.216851 59.822798 210.179352 59.883735 C 209.070774 61.634491 206.891117 61.758708 205.433325 60.448571 C 205.348951 60.373572 205.213016 60.425134 205.201297 60.537632 C 205.079424 61.657929 206.462217 62.501667 207.418453 62.581353 Q 209.977792 62.794631 211.456677 60.654818 C 211.503552 60.589194 211.5973 60.577475 211.658237 60.631381 Q 212.745722 61.589961 214.194139 61.814958 C 215.792554 62.065735 217.787057 61.360277 217.765963 59.485303 C 217.763619 59.2439 217.60659 59.039997 217.390968 58.993123 Q 217.334719 58.981404 217.238627 59.096246 Q 217.060504 59.304837 216.610511 59.761862 C 215.497245 60.88919 213.877737 60.786066 212.724628 59.79233 C 212.661348 59.738425 212.654317 59.642332 212.708222 59.579052" style="fill:none;stroke-width:0.50;stroke:#7f8087;"/>
		<path vector-effect="non-scaling-stroke" d="M 274.277664 116.859492 Q 273.58158 117.405578 274.415943 117.110269 Q 275.35343 116.779805 278.280732 115.579822 C 280.242423 114.778271 281.81037 115.150922 283.486127 116.156376 Q 286.157964 117.759479 288.192311 118.753215 Q 288.630586 118.966493 288.316528 118.591498 Q 286.247026 116.123564 283.291599 114.548587 C 279.930709 112.760331 276.876846 114.806396 274.277664 116.859492" style="fill:none;stroke-width:0.50;stroke:#7f8087;"/>
		<path vector-effect="non-scaling-stroke" d="M 234.65467 133.215424 C 234.645412 132.374897 233.916516 131.70225 233.030755 131.714086 C 232.144666 131.725688 231.43452 132.41474 231.444012 133.254658 C 231.45327 134.095185 232.182165 134.767832 233.067926 134.755996 C 233.954015 134.744395 234.664162 134.055342 234.65467 133.215424" style="fill:none;stroke-width:0.50;stroke:#7f8087;"/>
		<path vector-effect="non-scaling-stroke" d="M 230.363418 133.293634 C 230.368129 132.588175 229.770481 132.011621 229.029398 132.006957 C 228.286908 132.002246 227.682229 132.569426 227.677565 133.274884 C 227.672854 133.980343 228.270502 134.556897 229.011585 134.561561 C 229.754075 134.566272 230.358754 133.999093 230.363418 133.293634" style="fill:none;stroke-width:0.50;stroke:#7f8087;"/>
		<path vector-effect="non-scaling-stroke" d="M 234.645295 136.898739 C 234.654787 136.068595 233.958703 135.388917 233.091129 135.377316 C 232.222009 135.367823 231.509519 136.031095 231.500261 136.860302 C 231.490769 137.690447 232.186853 138.370125 233.054427 138.381726 C 233.923547 138.391218 234.636037 137.727946 234.645295 136.898739" style="fill:none;stroke-width:0.50;stroke:#7f8087;"/>
		<path vector-effect="non-scaling-stroke" d="M 230.274567 136.453574 C 230.063445 135.754537 229.311112 135.36548 228.596372 135.581945 C 227.881445 135.799067 227.473638 136.542026 227.686729 137.239844 C 227.897851 137.938881 228.650184 138.327938 229.364924 138.111472 C 230.079851 137.89435 230.487658 137.151392 230.274567 136.453574" style="fill:none;stroke-width:0.50;stroke:#7f8087;"/>
		<path d="M 307.595942 125.880458 L 305.378786 125.927332 C 305.315506 125.929676 305.268632 125.866395 305.292069 125.805459 Q 306.613925 122.402382 306.714705 118.764933 C 306.956108 110.161149 304.045211 102.084701 296.728127 97.080865 C 294.187538 95.344171 291.077426 94.584807 288.021219 95.384014 C 287.950908 95.402764 287.873565 95.384014 287.822003 95.332452 Q 287.266543 94.805116 285.513442 93.03561 C 282.272082 89.759094 278.913536 86.599763 275.083902 84.014644 C 267.867598 79.1444 260.496609 74.883523 252.546721 72.881989 Q 248.410061 71.841378 246.870239 71.269511 Q 244.582771 70.42343 242.982013 68.782828 Q 239.042225 64.739916 237.769586 59.171245 Q 237.635995 58.58766 237.732087 57.858764 Q 238.057864 55.407236 237.500059 53.098675 Q 236.543823 49.147168 234.6126 45.458158 Q 233.436054 43.210533 231.289209 41.061345 C 230.862653 40.634789 230.649375 40.278544 230.560313 39.70902 Q 229.547828 33.184113 228.549404 28.365431 C 228.25644 26.949826 227.157237 25.705312 226.107251 24.880324 C 225.931473 24.744388 225.683039 24.753763 225.518978 24.906105 Q 224.651803 25.705312 223.887752 26.546707 Q 219.219068 31.674759 214.83163 36.809843 C 214.77538 36.875467 214.69335 36.912966 214.606633 36.91531 Q 211.259805 36.987965 209.92623 37.065308 Q 205.297389 37.334835 200.856046 38.366071 Q 200.661518 38.410601 200.490426 38.382477 Q 200.234961 38.337946 200.138869 38.272322 Q 194.987379 34.728622 192.116326 32.867711 Q 190.461662 31.796632 189.10465 31.161485 C 188.952308 31.08883 188.771842 31.109923 188.63825 31.21539 C 187.644514 31.988817 186.608591 33.022396 186.385938 34.220035 Q 186.179691 35.316895 186.278127 36.554377 Q 186.477343 39.104341 187.217958 47.391724 Q 187.229676 47.50891 187.166396 47.607346 C 184.459403 51.861192 184.386748 57.521268 185.535169 62.304794 L 185.387515 62.796975 Q 183.634415 63.441497 182.251622 64.428202 Q 181.48757 64.974288 182.40162 64.751635 L 185.88907 63.903209 C 186.017975 63.872741 186.151567 63.936021 186.205472 64.057895 L 187.016398 65.874275 C 187.084366 66.028961 187.271863 66.089897 187.417174 66.00318 L 188.661687 65.269596 Q 188.685124 65.25319 188.703874 65.276627 L 188.73903 65.325845 Q 188.750749 65.339908 188.736686 65.349283 L 187.485141 66.16724 C 187.316394 66.277395 187.269519 66.502391 187.379674 66.671139 Q 188.345286 68.161743 189.172618 69.265634 Q 189.674173 69.933593 189.692923 70.217183 Q 190.229634 78.987371 192.988189 87.188036 Q 194.164734 90.689549 196.035021 95.151986 Q 197.551405 98.773029 199.409973 104.433105 Q 201.69744 111.400975 203.084921 119.400081 Q 203.572414 122.217228 203.691943 124.258606 Q 203.696631 124.345323 203.609913 124.354698 L 202.970079 124.422666 Q 202.634927 124.457822 202.634927 124.797661 L 202.634927 125.828896 Q 202.634927 125.943738 202.520085 125.943738 L 190.508536 125.943738 Q 190.299945 125.943738 190.283539 126.152329 Q 189.770265 132.135838 192.273355 137.327171 Q 192.266324 137.362327 192.261636 137.399826 Q 191.401492 135.93969 191.068685 135.564696 C 190.480412 134.906111 189.313241 134.18659 188.682781 133.626442 Q 183.390668 128.934321 180.149308 124.495321 Q 177.064976 120.267256 174.409545 114.883738 C 169.539302 105.007315 167.033868 93.916847 166.567469 82.802942 C 166.096381 71.583569 168.08151 60.336072 172.693944 50.119811 Q 175.33297 44.272237 179.289164 38.363727 Q 180.657894 36.320006 182.043031 34.564562 Q 188.560907 26.30296 196.724073 20.300701 Q 201.177135 17.028872 207.109083 13.911729 Q 209.279364 12.770339 211.330117 11.884414 Q 221.637783 7.421977 232.618097 5.62669 C 235.271184 5.193102 237.640682 4.949356 240.497673 4.85092 C 243.507005 4.745452 246.021813 4.616548 248.829586 4.733734 C 251.15221 4.83217 252.856092 4.864982 254.613879 5.017324 C 266.177778 6.022778 277.493243 9.531322 287.315761 15.662485 Q 297.639833 22.110051 305.432692 31.177891 Q 308.92483 35.241896 312.794306 41.696492 Q 313.49039 42.858976 315.269271 46.353458 Q 320.036392 55.721294 321.951208 66.389893 Q 323.118379 72.903082 322.99885 80.0397 Q 322.891039 86.487265 321.747305 91.997343 Q 319.548898 102.593287 315.030212 112.481428 Q 312.196659 118.678216 308.882643 123.65627 Q 308.767801 123.829705 308.254527 124.474228 C 308.017812 124.77188 307.431882 125.449214 307.595942 125.880458 Z" style="fill:#e2c8a0;"/>
		<path d="M 307.595942 125.880458 L 312.459155 125.87577 Q 312.609153 125.87577 312.623215 126.025768 Q 312.871649 128.82651 312.360719 131.47491 Q 312.105254 131.770218 312.177909 132.1499 L 312.112285 132.428803 L 311.706822 133.745971 Q 311.690416 133.917063 311.652916 133.872532 L 311.059956 135.335011 Q 311.027144 135.536571 310.945114 135.695944 L 310.286529 137.045925 Q 310.260749 137.28264 310.068564 137.437325 Q 309.850598 137.594355 309.824817 137.920131 L 308.662334 139.806823 L 308.594366 139.895884 Q 308.343588 140.043539 308.27562 140.37869 L 306.27643 142.804437 Q 306.072527 142.804437 306.105339 142.989591 C 304.242084 145.026281 302.076489 146.69032 299.735116 148.157486 Q 297.747644 149.402 294.825029 150.576202 Q 294.539096 150.740262 295.021902 150.632451 L 299.324966 150.569171 L 301.511654 150.592608 L 304.685046 150.773074 L 306.939702 150.939478 Q 307.000638 150.892604 307.181105 150.962915 Q 307.143605 150.969947 307.122512 150.981665 Q 307.073294 151.012133 307.115481 151.049633 Q 307.347508 151.253536 307.673285 151.152756 Q 308.120935 151.492595 307.434226 151.76681 Q 306.583457 152.104306 304.91473 152.123055 C 299.796053 152.176961 294.672688 152.123055 289.55401 152.23321 Q 281.458812 152.406645 271.214426 152.596486 Q 267.98244 152.655079 266.526992 152.659766 Q 240.413299 152.711328 234.769629 152.666798 Q 228.247065 152.61758 211.510583 152.25196 Q 209.424675 152.207429 206.818462 152.198054 Q 202.923204 152.188679 199.025603 152.118368 Q 199.259975 152.048056 199.517784 152.080868 Q 199.524815 152.083212 199.520127 152.076181 Q 199.517784 152.073837 199.513096 152.085556 Q 199.508409 152.092587 199.49669 152.092587 L 197.509218 152.036338 L 195.477216 151.612125 Q 195.786587 151.185569 196.414703 151.007446 Q 196.576419 150.960572 197.298284 150.97229 Q 197.778746 150.979321 198.184209 150.751981 Q 199.016228 150.648857 199.965434 150.637139 Q 203.720068 150.583233 207.44189 150.601983 Q 207.774698 150.805886 208.137974 150.700419 Q 208.278597 150.660576 208.147349 150.597296 Q 207.969227 150.508234 207.702043 150.564484 Q 207.734855 150.545734 207.746574 150.515265 Q 207.767667 150.466047 207.718449 150.449641 C 207.141895 150.248082 206.492685 150.102771 205.918474 149.823869 Q 204.235686 149.001224 202.89508 148.258266 C 198.589672 145.874706 195.045972 142.438817 192.653037 138.166221 Q 192.709286 138.018567 192.519445 137.873257 Q 192.488977 137.556855 192.273355 137.327171 Q 189.770265 132.135838 190.283539 126.152329 Q 190.299945 125.943738 190.508536 125.943738 L 202.520085 125.943738 Q 202.634927 125.943738 202.634927 125.828896 L 202.634927 124.797661 Q 202.634927 124.457822 202.970079 124.422666 L 203.609913 124.354698 Q 203.696631 124.345323 203.691943 124.258606 Q 203.572414 122.217228 203.084921 119.400081 Q 201.69744 111.400975 199.409973 104.433105 Q 197.551405 98.773029 196.035021 95.151986 Q 194.164734 90.689549 192.988189 87.188036 Q 190.229634 78.987371 189.692923 70.217183 Q 189.674173 69.933593 189.172618 69.265634 Q 188.345286 68.161743 187.379674 66.671139 C 187.269519 66.502391 187.316394 66.277395 187.485141 66.16724 L 188.736686 65.349283 Q 188.750749 65.339908 188.73903 65.325845 L 188.703874 65.276627 Q 188.685124 65.25319 188.661687 65.269596 L 187.417174 66.00318 C 187.271863 66.089897 187.084366 66.028961 187.016398 65.874275 L 186.205472 64.057895 C 186.151567 63.936021 186.017975 63.872741 185.88907 63.903209 L 182.40162 64.751635 Q 181.48757 64.974288 182.251622 64.428202 Q 183.634415 63.441497 185.387515 62.796975 C 187.070304 62.23917 190.103073 61.4634 191.828049 62.3212 Q 191.914766 62.363387 191.821018 62.386825 L 188.321848 63.237594 Q 188.042946 63.305562 188.139038 63.575089 L 188.600751 64.880539 C 188.652312 65.021162 188.809341 65.093818 188.949964 65.037568 C 189.592143 64.784447 190.147604 64.524294 190.302289 64.524294 C 190.306977 64.524294 190.30932 64.531325 190.304633 64.533669 L 189.092931 65.234441 C 188.952308 65.316471 188.912465 65.501624 189.010901 65.632872 L 193.550681 71.686693 Q 193.555368 71.693724 193.550681 71.700755 Q 193.538962 71.721849 193.513181 71.74763 Q 193.468651 71.794504 193.412401 71.759348 L 191.776487 70.735144 C 191.727269 70.704676 191.663989 70.742175 191.668676 70.800768 Q 192.474915 80.269384 195.716275 88.922387 Q 196.461577 90.912202 198.634202 96.305095 C 200.806828 101.6933 202.606803 107.653372 203.975533 113.604069 Q 205.142704 118.687591 205.77082 124.244543 C 205.777851 124.30548 205.829413 124.350011 205.89035 124.350011 L 208.775465 124.350011 C 208.808277 124.350011 208.834058 124.32423 208.836402 124.291418 Q 209.427019 115.225921 209.710608 105.928396 Q 209.921543 99.0074 209.879356 94.446527 Q 209.858262 92.02078 209.572329 89.482535 C 209.56061 89.377068 209.654359 89.29035 209.759826 89.311444 C 211.210587 89.609096 211.529333 91.148918 211.594957 92.398119 Q 211.749642 95.292609 211.733236 98.140225 C 211.686362 106.633855 211.273867 114.255622 210.793405 124.211731 Q 210.786374 124.357042 210.931685 124.357042 L 214.550384 124.357042 Q 214.658195 124.357042 214.681632 124.251574 Q 216.905819 114.382183 217.70737 111.726752 Q 221.25107 99.987074 223.580725 88.034118 Q 223.737754 87.225536 224.490087 87.499751 Q 224.513524 87.509125 224.518211 87.509125 Q 225.265857 87.80209 225.151015 88.528642 C 223.850252 96.881649 221.701064 104.70732 219.108913 113.20095 C 219.043289 113.423603 219.026883 113.700161 219.066726 113.892346 Q 219.755779 117.311829 221.040136 120.787561 Q 221.991685 123.363306 223.027607 125.868739 C 223.04167 125.903895 223.074482 125.924988 223.111981 125.924988 L 245.410103 125.924988 Q 245.456978 125.924988 245.431197 125.887489 Q 243.673409 123.288307 244.819487 120.644594 C 245.932752 118.080568 249.663949 116.803242 252.178758 116.538402 C 254.051387 116.339186 255.745895 116.739962 257.379465 117.595419 C 258.450544 118.153223 259.997397 119.278207 261.277066 119.573516 Q 262.284865 119.805544 263.482504 119.819606 Q 269.817571 119.892261 276.579194 119.421174 C 276.736223 119.411799 276.883877 119.491486 276.949501 119.627421 Q 276.987 119.70242 276.74091 119.836012 Q 274.828437 120.869591 272.412065 121.1274 Q 268.308217 121.568019 264.11062 121.5563 Q 263.616096 121.5563 264.026246 121.835202 C 264.75983 122.334414 265.709035 122.613316 266.515274 123.168777 Q 266.916049 123.445336 266.447306 123.403149 Q 264.954358 123.267213 263.414536 122.657847 C 260.972383 121.694579 258.145861 119.955542 256.378698 119.013367 Q 253.760766 117.6212 251.098304 118.631341 Q 249.928789 118.535249 248.595215 119.285238 Q 247.085861 120.13132 246.394464 121.485989 C 245.618694 123.00003 246.44837 124.877347 247.767882 125.699992 Q 248.337406 126.053893 249.502233 126.084361 Q 251.117054 126.124204 252.696719 125.943738 L 303.248348 125.873427 Q 303.372565 125.873427 303.414752 125.758584 C 304.148335 123.822674 304.783482 121.476614 304.753014 119.435236 Q 304.745983 119.02743 304.776451 118.650091 Q 305.074103 114.403276 304.049899 110.31349 Q 304.019431 110.196305 303.853027 109.980683 Q 303.166318 106.779165 301.366343 104.067485 Q 300.154641 102.244073 298.096858 100.254258 Q 297.351556 99.534737 296.552349 99.241772 Q 295.366428 98.098038 294.382067 97.706637 C 293.554735 97.376173 292.675841 96.982429 291.820384 96.872274 Q 289.891505 96.62384 288.021219 97.155864 L 284.381427 98.297254 C 284.322834 98.316004 284.259554 98.292567 284.233773 98.241005 Q 284.222054 98.215224 284.252523 98.156631 Q 284.27596 98.114444 284.306428 98.095694 Q 285.466568 97.331643 286.65952 96.410562 Q 286.818893 96.288689 286.661864 96.162128 C 286.354837 95.918382 285.900156 95.695728 285.630628 95.442607 C 281.111942 91.223917 277.961987 88.200522 273.490175 85.074004 Q 273.117524 84.813851 272.161287 84.659166 Q 272.444877 84.738852 272.451908 84.722446 C 272.501126 84.614635 272.468314 84.488074 272.369878 84.417763 Q 265.999656 79.908452 259.519279 77.14521 Q 255.778707 75.549138 253.240461 74.855398 Q 249.183487 73.74682 247.73507 73.341357 C 245.632756 72.753084 243.420288 71.714818 241.842966 70.186714 Q 241.285162 69.647659 240.687514 69.087511 Q 240.610171 68.951575 240.436736 68.731266 Q 238.86879 66.767231 237.537558 64.1493 Q 237.44381 63.961802 237.427404 64.170393 C 237.282093 65.890681 236.053986 67.184413 234.69463 68.201586 Q 234.415728 68.410177 234.59385 68.110181 Q 235.761021 66.118022 236.11961 63.978208 Q 236.335232 62.707914 236.171172 62.046986 Q 235.859457 60.772004 235.95555 59.996233 Q 235.983674 59.778268 235.833676 59.939984 Q 234.832909 61.022781 233.98214 61.690741 Q 233.979796 61.693084 233.930578 61.702459 Q 233.902454 61.70949 233.867298 61.690741 Q 233.801674 61.655585 233.841517 61.592305 C 235.282903 59.321243 236.262576 57.167367 235.843051 54.408812 Q 235.77274 53.944756 235.599305 53.705697 Q 235.650866 53.396327 235.594617 53.192423 C 234.849315 50.405744 233.867298 47.916717 232.306382 45.317535 Q 230.218131 41.839459 226.458809 40.33948 Q 225.258826 39.861362 224.258059 39.509804 C 224.105717 39.455899 224.070561 39.256683 224.199466 39.176997 Q 224.258059 39.139497 224.408057 39.174653 Q 226.40256 39.301214 228.289252 39.821519 C 228.352532 39.840268 228.415812 39.784019 228.406438 39.718395 Q 227.834571 35.084867 226.906459 30.320091 Q 226.789273 29.007609 225.910379 27.650597 Q 225.828349 27.524036 225.711163 27.620129 Q 225.176796 28.063091 224.640085 28.649021 Q 220.646391 33.013021 217.946429 36.191101 Q 216.8941 37.433271 216.13708 38.76919 C 216.066768 38.891063 215.93552 38.966062 215.794897 38.961375 Q 212.947281 38.893407 210.226226 38.980124 Q 209.771545 38.994187 209.103586 39.17934 Q 205.859882 39.305901 202.538835 39.983235 C 201.854469 39.955111 201.188854 40.2387 200.49277 40.353542 Q 199.892778 40.451979 199.672469 40.299637 Q 197.469375 38.771534 192.676474 35.527829 Q 190.991342 34.386439 189.238242 33.388016 C 189.179649 33.355204 189.10465 33.378641 189.078869 33.439578 Q 188.246849 35.368457 188.617157 37.121557 L 189.371834 45.55425 Q 189.381208 45.657374 189.463238 45.59175 Q 191.101497 44.227706 193.030376 43.325375 Q 193.199123 43.351156 193.238966 43.428499 Q 193.271778 43.494123 193.17803 43.594903 Q 192.268668 44.560514 191.300712 45.462845 Q 187.508579 48.99717 186.924993 54.181472 Q 186.486718 58.090792 187.503891 61.826676 L 185.535169 62.304794 C 184.386748 57.521268 184.459403 51.861192 187.166396 47.607346 Q 187.229676 47.50891 187.217958 47.391724 Q 186.477343 39.104341 186.278127 36.554377 Q 186.179691 35.316895 186.385938 34.220035 C 186.608591 33.022396 187.644514 31.988817 188.63825 31.21539 C 188.771842 31.109923 188.952308 31.08883 189.10465 31.161485 Q 190.461662 31.796632 192.116326 32.867711 Q 194.987379 34.728622 200.138869 38.272322 Q 200.234961 38.337946 200.490426 38.382477 Q 200.661518 38.410601 200.856046 38.366071 Q 205.297389 37.334835 209.92623 37.065308 Q 211.259805 36.987965 214.606633 36.91531 C 214.69335 36.912966 214.77538 36.875467 214.83163 36.809843 Q 219.219068 31.674759 223.887752 26.546707 Q 224.651803 25.705312 225.518978 24.906105 C 225.683039 24.753763 225.931473 24.744388 226.107251 24.880324 C 227.157237 25.705312 228.25644 26.949826 228.549404 28.365431 Q 229.547828 33.184113 230.560313 39.70902 C 230.649375 40.278544 230.862653 40.634789 231.289209 41.061345 Q 233.436054 43.210533 234.6126 45.458158 Q 236.543823 49.147168 237.500059 53.098675 Q 238.057864 55.407236 237.732087 57.858764 Q 237.635995 58.58766 237.769586 59.171245 Q 239.042225 64.739916 242.982013 68.782828 Q 244.582771 70.42343 246.870239 71.269511 Q 248.410061 71.841378 252.546721 72.881989 C 260.496609 74.883523 267.867598 79.1444 275.083902 84.014644 C 278.913536 86.599763 282.272082 89.759094 285.513442 93.03561 Q 287.266543 94.805116 287.822003 95.332452 C 287.873565 95.384014 287.950908 95.402764 288.021219 95.384014 C 291.077426 94.584807 294.187538 95.344171 296.728127 97.080865 C 304.045211 102.084701 306.956108 110.161149 306.714705 118.764933 Q 306.613925 122.402382 305.292069 125.805459 C 305.268632 125.866395 305.315506 125.929676 305.378786 125.927332 L 307.595942 125.880458 Z M 217.967523 118.408688 Q 217.519873 120.021166 216.713634 123.850799 C 216.570668 124.528133 216.737071 125.062501 216.66676 125.779678 Q 216.652698 125.920301 216.793321 125.920301 L 220.80342 125.920301 C 220.854982 125.920301 220.890138 125.866395 220.869044 125.819521 Q 219.235474 122.210197 218.115177 118.406345 Q 218.040178 118.148536 217.967523 118.408688 Z M 251.302208 142.635689 C 263.098134 142.635689 274.980779 142.61694 286.682957 142.185696 C 292.846932 141.958355 299.906207 141.346645 304.734264 137.038894 Q 307.924063 134.193621 308.812332 129.942119 Q 308.845144 129.78509 308.683427 129.782746 Q 307.593599 129.759309 251.304551 129.754622 Q 195.01316 129.74759 193.923332 129.768684 Q 193.763959 129.771028 193.796771 129.928057 Q 194.682696 134.179559 197.872495 137.027175 C 202.698208 141.334927 209.757483 141.94898 215.923802 142.176321 C 227.623636 142.612252 239.506281 142.633346 251.302208 142.635689 Z" style="fill:#061130;"/>
		<path d="M 226.906459 30.320091 Q 225.057266 34.562218 224.051812 38.9145 Q 224.007281 39.106685 224.20181 39.139497 L 224.408057 39.174653 Q 224.258059 39.139497 224.199466 39.176997 C 224.070561 39.256683 224.105717 39.455899 224.258059 39.509804 Q 225.258826 39.861362 226.458809 40.33948 Q 230.218131 41.839459 232.306382 45.317535 C 233.867298 47.916717 234.849315 50.405744 235.594617 53.192423 Q 235.650866 53.396327 235.599305 53.705697 C 233.180589 55.156458 230.954058 57.036119 227.982225 57.0244 C 226.133032 57.015026 224.054155 56.10332 222.608082 54.92443 Q 221.239351 53.811165 220.622954 53.377577 Q 222.912765 53.422108 224.684615 54.964273 Q 224.95883 55.203332 225.017423 54.833025 C 225.02211 54.802557 225.019767 54.772089 225.008048 54.743964 C 224.180716 52.658056 222.129964 51.854161 219.903433 52.072127 Q 218.527671 51.132296 217.201127 49.60888 Q 215.628493 47.804218 214.763662 46.540955 Q 212.944938 43.885524 211.062933 41.274623 Q 210.53794 40.543384 209.103586 39.17934 Q 209.771545 38.994187 210.226226 38.980124 Q 212.947281 38.893407 215.794897 38.961375 C 215.93552 38.966062 216.066768 38.891063 216.13708 38.76919 Q 216.8941 37.433271 217.946429 36.191101 Q 220.646391 33.013021 224.640085 28.649021 Q 225.176796 28.063091 225.711163 27.620129 Q 225.828349 27.524036 225.910379 27.650597 Q 226.789273 29.007609 226.906459 30.320091 Z" style="fill:#304450;"/>
		<path d="M 226.906459 30.320091 Q 227.834571 35.084867 228.406438 39.718395 C 228.415812 39.784019 228.352532 39.840268 228.289252 39.821519 Q 226.40256 39.301214 224.408057 39.174653 L 224.20181 39.139497 Q 224.007281 39.106685 224.051812 38.9145 Q 225.057266 34.562218 226.906459 30.320091 Z" style="fill:#e2c8a0;"/>
		<path d="M 202.538835 39.983235 C 205.020831 42.043362 206.234876 44.825354 205.939568 48.069058 Q 205.604416 51.751038 202.944298 54.561154 Q 202.189621 54.521311 201.55213 54.530686 C 199.972465 54.549435 198.188896 55.578327 197.999055 57.258772 Q 197.919369 57.961887 198.444361 57.486113 Q 198.805294 57.157992 199.503721 56.581438 Q 200.152931 56.04707 200.673236 55.81973 Q 201.45135 55.479891 202.215402 55.43536 Q 200.054495 57.165023 197.710778 58.667346 Q 195.793618 59.895454 193.646773 60.596225 C 191.886642 61.170436 189.554643 61.446994 187.503891 61.826676 Q 186.486718 58.090792 186.924993 54.181472 Q 187.508579 48.99717 191.300712 45.462845 Q 192.268668 44.560514 193.17803 43.594903 Q 193.271778 43.494123 193.238966 43.428499 Q 193.199123 43.351156 193.030376 43.325375 Q 193.185061 43.273814 193.250685 43.18944 Q 193.325684 43.091004 193.262403 42.985536 Q 191.338212 39.863706 188.617157 37.121557 Q 188.246849 35.368457 189.078869 33.439578 C 189.10465 33.378641 189.179649 33.355204 189.238242 33.388016 Q 190.991342 34.386439 192.676474 35.527829 Q 197.469375 38.771534 199.672469 40.299637 Q 199.892778 40.451979 200.49277 40.353542 C 201.188854 40.2387 201.854469 39.955111 202.538835 39.983235 Z" style="fill:#304450;"/>
		<path d="M 193.030376 43.325375 Q 191.101497 44.227706 189.463238 45.59175 Q 189.381208 45.657374 189.371834 45.55425 L 188.617157 37.121557 Q 191.338212 39.863706 193.262403 42.985536 Q 193.325684 43.091004 193.250685 43.18944 Q 193.185061 43.273814 193.030376 43.325375 Z" style="fill:#e2c8a0;"/>
		<path d="M 209.103586 39.17934 Q 210.53794 40.543384 211.062933 41.274623 Q 212.944938 43.885524 214.763662 46.540955 Q 215.628493 47.804218 217.201127 49.60888 Q 218.527671 51.132296 219.903433 52.072127 Q 217.66284 52.554932 216.795664 54.600997 Q 216.739415 54.736933 216.762852 54.774432 Q 216.863632 54.940836 217.011286 54.814275 C 217.965179 53.998662 219.326879 53.276797 220.622954 53.377577 Q 221.239351 53.811165 222.608082 54.92443 C 224.054155 56.10332 226.133032 57.015026 227.982225 57.0244 C 230.954058 57.036119 233.180589 55.156458 235.599305 53.705697 Q 235.77274 53.944756 235.843051 54.408812 C 236.262576 57.167367 235.282903 59.321243 233.841517 61.592305 Q 233.801674 61.655585 233.867298 61.690741 Q 233.902454 61.70949 233.930578 61.702459 Q 233.979796 61.693084 233.98214 61.690741 Q 234.832909 61.022781 235.833676 59.939984 Q 235.983674 59.778268 235.95555 59.996233 Q 235.859457 60.772004 236.171172 62.046986 Q 236.335232 62.707914 236.11961 63.978208 Q 235.761021 66.118022 234.59385 68.110181 Q 234.415728 68.410177 234.69463 68.201586 C 236.053986 67.184413 237.282093 65.890681 237.427404 64.170393 Q 237.44381 63.961802 237.537558 64.1493 Q 238.86879 66.767231 240.436736 68.731266 Q 240.610171 68.951575 240.687514 69.087511 C 241.280474 71.982001 243.162479 80.927969 247.847569 79.507676 Q 249.136613 79.118619 249.851447 78.073321 Q 249.947539 77.932698 250.015507 78.089727 Q 250.0741 78.218632 250.125662 78.354567 C 250.167849 78.467066 250.200661 78.556127 250.210035 78.570189 C 251.803763 81.014686 255.045123 81.790456 257.824771 82.116233 Q 262.566111 82.676381 265.200448 83.086532 C 267.417605 83.431058 269.85507 84.089643 272.161287 84.659166 Q 273.117524 84.813851 273.490175 85.074004 C 277.961987 88.200522 281.111942 91.223917 285.630628 95.442607 C 285.900156 95.695728 286.354837 95.918382 286.661864 96.162128 Q 286.818893 96.288689 286.65952 96.410562 Q 285.466568 97.331643 284.306428 98.095694 Q 284.27596 98.114444 284.252523 98.156631 Q 284.222054 98.215224 284.233773 98.241005 C 284.259554 98.292567 284.322834 98.316004 284.381427 98.297254 L 288.021219 97.155864 Q 287.974345 97.493359 287.768098 97.868354 Q 285.904843 101.219869 283.762686 103.814364 Q 280.228361 107.219784 277.504962 111.171291 Q 277.4909 111.19004 277.500274 111.232227 Q 277.504962 111.265039 277.533086 111.288477 Q 277.57293 111.318945 277.610429 111.288477 C 278.379168 110.653329 279.171345 110.039276 279.888522 109.331473 Q 282.180677 107.07213 284.667361 104.901848 Q 285.290789 104.412011 285.515786 104.332325 Q 286.298587 104.051079 287.514977 104.137796 Q 292.129755 104.465917 295.333616 107.653372 Q 296.571098 108.886167 297.074998 110.072088 Q 298.225763 112.788455 298.589039 113.639225 Q 299.191374 115.03608 300.719477 116.456372 Q 299.821834 117.714948 298.61482 118.853995 Q 295.333616 121.952388 291.281329 123.937516 Q 290.526653 124.307824 289.769632 124.659381 C 289.741508 124.673444 289.729789 124.703912 289.746195 124.717974 L 289.748539 124.720318 Q 289.788382 124.75313 289.802444 124.748442 C 294.389098 123.480492 298.703881 121.118025 301.994459 117.66573 Q 302.029615 117.630574 302.069458 117.611825 Q 302.200706 117.550888 302.165551 117.635262 Q 303.323347 118.284471 304.776451 118.650091 Q 304.745983 119.02743 304.753014 119.435236 C 304.783482 121.476614 304.148335 123.822674 303.414752 125.758584 Q 303.372565 125.873427 303.248348 125.873427 L 252.696719 125.943738 Q 251.46158 125.460932 250.425657 124.371104 C 249.42489 123.318775 248.881148 121.797703 249.413172 120.426629 Q 249.849103 119.303988 251.098304 118.631341 Q 253.760766 117.6212 256.378698 119.013367 C 258.145861 119.955542 260.972383 121.694579 263.414536 122.657847 Q 264.954358 123.267213 266.447306 123.403149 Q 266.916049 123.445336 266.515274 123.168777 C 265.709035 122.613316 264.75983 122.334414 264.026246 121.835202 Q 263.616096 121.5563 264.11062 121.5563 Q 268.308217 121.568019 272.412065 121.1274 Q 274.828437 120.869591 276.74091 119.836012 Q 276.987 119.70242 276.949501 119.627421 C 276.883877 119.491486 276.736223 119.411799 276.579194 119.421174 Q 269.817571 119.892261 263.482504 119.819606 Q 262.284865 119.805544 261.277066 119.573516 C 259.997397 119.278207 258.450544 118.153223 257.379465 117.595419 C 255.745895 116.739962 254.051387 116.339186 252.178758 116.538402 C 249.663949 116.803242 245.932752 118.080568 244.819487 120.644594 Q 243.673409 123.288307 245.431197 125.887489 Q 245.456978 125.924988 245.410103 125.924988 L 223.111981 125.924988 C 223.074482 125.924988 223.04167 125.903895 223.027607 125.868739 Q 221.991685 123.363306 221.040136 120.787561 Q 219.755779 117.311829 219.066726 113.892346 C 219.026883 113.700161 219.043289 113.423603 219.108913 113.20095 C 221.701064 104.70732 223.850252 96.881649 225.151015 88.528642 Q 225.265857 87.80209 224.518211 87.509125 Q 224.513524 87.509125 224.490087 87.499751 Q 223.737754 87.225536 223.580725 88.034118 Q 221.25107 99.987074 217.70737 111.726752 Q 216.905819 114.382183 214.681632 124.251574 Q 214.658195 124.357042 214.550384 124.357042 L 210.931685 124.357042 Q 210.786374 124.357042 210.793405 124.211731 C 211.273867 114.255622 211.686362 106.633855 211.733236 98.140225 Q 211.749642 95.292609 211.594957 92.398119 C 211.529333 91.148918 211.210587 89.609096 209.759826 89.311444 C 209.654359 89.29035 209.56061 89.377068 209.572329 89.482535 Q 209.858262 92.02078 209.879356 94.446527 Q 209.921543 99.0074 209.710608 105.928396 Q 209.427019 115.225921 208.836402 124.291418 C 208.834058 124.32423 208.808277 124.350011 208.775465 124.350011 L 205.89035 124.350011 C 205.829413 124.350011 205.777851 124.30548 205.77082 124.244543 Q 205.142704 118.687591 203.975533 113.604069 C 202.606803 107.653372 200.806828 101.6933 198.634202 96.305095 Q 196.461577 90.912202 195.716275 88.922387 Q 192.474915 80.269384 191.668676 70.800768 C 191.663989 70.742175 191.727269 70.704676 191.776487 70.735144 L 193.412401 71.759348 Q 193.468651 71.794504 193.513181 71.74763 Q 193.538962 71.721849 193.550681 71.700755 Q 193.555368 71.693724 193.550681 71.686693 L 189.010901 65.632872 C 188.912465 65.501624 188.952308 65.316471 189.092931 65.234441 L 190.304633 64.533669 C 190.30932 64.531325 190.306977 64.524294 190.302289 64.524294 C 190.147604 64.524294 189.592143 64.784447 188.949964 65.037568 C 188.809341 65.093818 188.652312 65.021162 188.600751 64.880539 L 188.139038 63.575089 Q 188.042946 63.305562 188.321848 63.237594 L 191.821018 62.386825 Q 191.914766 62.363387 191.828049 62.3212 C 190.103073 61.4634 187.070304 62.23917 185.387515 62.796975 L 185.535169 62.304794 L 187.503891 61.826676 C 189.554643 61.446994 191.886642 61.170436 193.646773 60.596225 Q 195.793618 59.895454 197.710778 58.667346 Q 200.054495 57.165023 202.215402 55.43536 L 204.697398 56.035352 C 204.807553 56.061133 204.889583 55.936916 204.821615 55.845511 Q 204.399746 55.287706 203.680225 54.947867 Q 203.232575 54.739276 202.944298 54.561154 Q 205.604416 51.751038 205.939568 48.069058 C 206.234876 44.825354 205.020831 42.043362 202.538835 39.983235 Q 205.859882 39.305901 209.103586 39.17934 Z M 212.708222 59.579052 Q 213.212121 58.988435 213.22384 58.161103 Q 213.226184 58.041574 213.14181 57.954856 C 212.361352 57.146274 210.624658 57.324396 209.816076 57.830639 C 209.000462 58.341569 209.76217 59.072809 210.174664 59.684519 C 210.216851 59.743112 210.216851 59.822798 210.179352 59.883735 C 209.070774 61.634491 206.891117 61.758708 205.433325 60.448571 C 205.348951 60.373572 205.213016 60.425134 205.201297 60.537632 C 205.079424 61.657929 206.462217 62.501667 207.418453 62.581353 Q 209.977792 62.794631 211.456677 60.654818 C 211.503552 60.589194 211.5973 60.577475 211.658237 60.631381 Q 212.745722 61.589961 214.194139 61.814958 C 215.792554 62.065735 217.787057 61.360277 217.765963 59.485303 C 217.763619 59.2439 217.60659 59.039997 217.390968 58.993123 Q 217.334719 58.981404 217.238627 59.096246 Q 217.060504 59.304837 216.610511 59.761862 C 215.497245 60.88919 213.877737 60.786066 212.724628 59.79233 C 212.661348 59.738425 212.654317 59.642332 212.708222 59.579052 Z M 274.277664 116.859492 Q 273.58158 117.405578 274.415943 117.110269 Q 275.35343 116.779805 278.280732 115.579822 C 280.242423 114.778271 281.81037 115.150922 283.486127 116.156376 Q 286.157964 117.759479 288.192311 118.753215 Q 288.630586 118.966493 288.316528 118.591498 Q 286.247026 116.123564 283.291599 114.548587 C 279.930709 112.760331 276.876846 114.806396 274.277664 116.859492 Z" style="fill:#f8efdd;"/>
		<path d="M 220.622954 53.377577 C 219.326879 53.276797 217.965179 53.998662 217.011286 54.814275 Q 216.863632 54.940836 216.762852 54.774432 Q 216.739415 54.736933 216.795664 54.600997 Q 217.66284 52.554932 219.903433 52.072127 C 222.129964 51.854161 224.180716 52.658056 225.008048 54.743964 C 225.019767 54.772089 225.02211 54.802557 225.017423 54.833025 Q 224.95883 55.203332 224.684615 54.964273 Q 222.912765 53.422108 220.622954 53.377577 Z" style="fill:#061130;"/>
		<path d="M 202.944298 54.561154 Q 203.232575 54.739276 203.680225 54.947867 Q 204.399746 55.287706 204.821615 55.845511 C 204.889583 55.936916 204.807553 56.061133 204.697398 56.035352 L 202.215402 55.43536 Q 201.45135 55.479891 200.673236 55.81973 Q 200.152931 56.04707 199.503721 56.581438 Q 198.805294 57.157992 198.444361 57.486113 Q 197.919369 57.961887 197.999055 57.258772 C 198.188896 55.578327 199.972465 54.549435 201.55213 54.530686 Q 202.189621 54.521311 202.944298 54.561154 Z" style="fill:#061130;"/>
		<path d="M 272.161287 84.659166 C 269.85507 84.089643 267.417605 83.431058 265.200448 83.086532 Q 262.566111 82.676381 257.824771 82.116233 C 255.045123 81.790456 251.803763 81.014686 250.210035 78.570189 C 250.200661 78.556127 250.167849 78.467066 250.125662 78.354567 Q 250.0741 78.218632 250.015507 78.089727 Q 249.947539 77.932698 249.851447 78.073321 Q 249.136613 79.118619 247.847569 79.507676 C 243.162479 80.927969 241.280474 71.982001 240.687514 69.087511 Q 241.285162 69.647659 241.842966 70.186714 C 243.420288 71.714818 245.632756 72.753084 247.73507 73.341357 Q 249.183487 73.74682 253.240461 74.855398 Q 255.778707 75.549138 259.519279 77.14521 Q 265.999656 79.908452 272.369878 84.417763 C 272.468314 84.488074 272.501126 84.614635 272.451908 84.722446 Q 272.444877 84.738852 272.161287 84.659166 Z" style="fill:#304450;"/>
		<path d="M 296.552349 99.241772 Q 298.528102 101.2644 299.892145 103.418275 C 300.454637 104.3042 301.075722 105.145595 301.55384 105.84871 C 302.474921 107.203378 303.140537 108.76195 303.714747 110.147086 Q 303.801465 110.358021 303.878808 110.144743 Q 303.895214 110.100212 303.853027 109.980683 Q 304.019431 110.196305 304.049899 110.31349 Q 305.074103 114.403276 304.776451 118.650091 Q 303.323347 118.284471 302.165551 117.635262 C 302.233518 117.452452 302.247581 117.295423 302.355392 117.143081 C 302.943665 116.311062 303.386627 115.172015 302.992883 114.154842 C 302.957727 114.068125 302.840541 114.054062 302.788979 114.133749 C 302.256955 114.961081 301.635871 115.985285 300.719477 116.456372 Q 299.191374 115.03608 298.589039 113.639225 Q 298.225763 112.788455 297.074998 110.072088 Q 296.571098 108.886167 295.333616 107.653372 Q 292.129755 104.465917 287.514977 104.137796 Q 286.298587 104.051079 285.515786 104.332325 Q 285.290789 104.412011 284.667361 104.901848 L 283.762686 103.814364 Q 285.904843 101.219869 287.768098 97.868354 Q 287.974345 97.493359 288.021219 97.155864 Q 289.891505 96.62384 291.820384 96.872274 C 292.675841 96.982429 293.554735 97.376173 294.382067 97.706637 Q 295.366428 98.098038 296.552349 99.241772 Z" style="fill:#304450;"/>
		<path d="M 296.552349 99.241772 Q 297.351556 99.534737 298.096858 100.254258 Q 300.154641 102.244073 301.366343 104.067485 Q 303.166318 106.779165 303.853027 109.980683 Q 303.895214 110.100212 303.878808 110.144743 Q 303.801465 110.358021 303.714747 110.147086 C 303.140537 108.76195 302.474921 107.203378 301.55384 105.84871 C 301.075722 105.145595 300.454637 104.3042 299.892145 103.418275 Q 298.528102 101.2644 296.552349 99.241772 Z" style="fill:#e2c8a0;"/>
		<path d="M 283.762686 103.814364 L 284.667361 104.901848 Q 282.180677 107.07213 279.888522 109.331473 C 279.171345 110.039276 278.379168 110.653329 277.610429 111.288477 Q 277.57293 111.318945 277.533086 111.288477 Q 277.504962 111.265039 277.500274 111.232227 Q 277.4909 111.19004 277.504962 111.171291 Q 280.228361 107.219784 283.762686 103.814364 Z" style="fill:#061130;"/>
		<path d="M 302.165551 117.635262 Q 302.200706 117.550888 302.069458 117.611825 Q 302.029615 117.630574 301.994459 117.66573 C 298.703881 121.118025 294.389098 123.480492 289.802444 124.748442 Q 289.788382 124.75313 289.748539 124.720318 L 289.746195 124.717974 C 289.729789 124.703912 289.741508 124.673444 289.769632 124.659381 Q 290.526653 124.307824 291.281329 123.937516 Q 295.333616 121.952388 298.61482 118.853995 Q 299.821834 117.714948 300.719477 116.456372 C 301.635871 115.985285 302.256955 114.961081 302.788979 114.133749 C 302.840541 114.054062 302.957727 114.068125 302.992883 114.154842 C 303.386627 115.172015 302.943665 116.311062 302.355392 117.143081 C 302.247581 117.295423 302.233518 117.452452 302.165551 117.635262 Z" style="fill:#061130;"/>
		<path d="M 251.098304 118.631341 Q 249.849103 119.303988 249.413172 120.426629 C 248.881148 121.797703 249.42489 123.318775 250.425657 124.371104 Q 251.46158 125.460932 252.696719 125.943738 Q 251.117054 126.124204 249.502233 126.084361 Q 248.337406 126.053893 247.767882 125.699992 C 246.44837 124.877347 245.618694 123.00003 246.394464 121.485989 Q 247.085861 120.13132 248.595215 119.285238 Q 249.928789 118.535249 251.098304 118.631341 Z" style="fill:#304450;"/>
		<path d="M 312.360719 131.47491 Q 312.349 131.896779 312.177909 132.1499 Q 312.105254 131.770218 312.360719 131.47491 Z" style="fill:#304450;"/>
		<path d="M 312.112285 132.428803 L 311.706822 133.745971 L 312.112285 132.428803 Z" style="fill:#304450;"/>
		<path d="M 311.652916 133.872532 Q 311.4912 134.660021 311.059956 135.335011 L 311.652916 133.872532 Z" style="fill:#304450;"/>
		<path d="M 310.945114 135.695944 L 310.286529 137.045925 L 310.945114 135.695944 Z" style="fill:#304450;"/>
		<path d="M 192.519445 137.873257 L 192.261636 137.399826 Q 192.266324 137.362327 192.273355 137.327171 Q 192.488977 137.556855 192.519445 137.873257 Z" style="fill:#304450;"/>
		<path d="M 310.068564 137.437325 Q 310.014658 137.727946 309.824817 137.920131 Q 309.850598 137.594355 310.068564 137.437325 Z" style="fill:#304450;"/>
		<path d="M 192.653037 138.166221 L 192.519445 137.873257 Q 192.709286 138.018567 192.653037 138.166221 Z" style="fill:#304450;"/>
		<path d="M 309.824817 137.920131 L 308.662334 139.806823 L 309.824817 137.920131 Z" style="fill:#304450;"/>
		<path d="M 308.594366 139.895884 Q 308.486555 140.153693 308.27562 140.37869 Q 308.343588 140.043539 308.594366 139.895884 Z" style="fill:#304450;"/>
		<path d="M 306.27643 142.804437 L 306.105339 142.989591 Q 306.072527 142.804437 306.27643 142.804437 Z" style="fill:#304450;"/>
		<path d="M 301.511654 150.592608 L 299.324966 150.569171 L 301.511654 150.592608 Z" style="fill:#304450;"/>
		<path d="M 207.702043 150.564484 Q 207.969227 150.508234 208.147349 150.597296 Q 208.278597 150.660576 208.137974 150.700419 Q 207.774698 150.805886 207.44189 150.601983 Q 207.587201 150.555109 207.702043 150.564484 Z" style="fill:#304450;"/>
		<path d="M 294.825029 150.576202 Q 294.949246 150.576202 295.021902 150.632451 Q 294.539096 150.740262 294.825029 150.576202 Z" style="fill:#304450;"/>
		<path d="M 198.184209 150.751981 Q 197.778746 150.979321 197.298284 150.97229 Q 196.576419 150.960572 196.414703 151.007446 Q 195.786587 151.185569 195.477216 151.612125 Q 195.306125 151.359004 195.502997 151.07307 Q 195.573308 150.97229 195.697525 150.962915 L 198.184209 150.751981 Z" style="fill:#304450;"/>
		<path d="M 306.939702 150.939478 L 304.685046 150.773074 Q 305.838155 150.653545 306.939702 150.939478 Z" style="fill:#304450;"/>
		<path d="M 307.181105 150.962915 Q 307.523287 150.937135 307.673285 151.152756 Q 307.347508 151.253536 307.115481 151.049633 Q 307.073294 151.012133 307.122512 150.981665 Q 307.143605 150.969947 307.181105 150.962915 Z" style="fill:#304450;"/>
		<path d="M 199.025603 152.118368 L 197.509218 152.036338 L 199.49669 152.092587 Q 199.508409 152.092587 199.513096 152.085556 Q 199.517784 152.073837 199.520127 152.076181 Q 199.524815 152.083212 199.517784 152.080868 Q 199.259975 152.048056 199.025603 152.118368 Z" style="fill:#304450;"/>
		<path d="M 212.708222 59.579052 C 212.654317 59.642332 212.661348 59.738425 212.724628 59.79233 C 213.877737 60.786066 215.497245 60.88919 216.610511 59.761862 Q 217.060504 59.304837 217.238627 59.096246 Q 217.334719 58.981404 217.390968 58.993123 C 217.60659 59.039997 217.763619 59.2439 217.765963 59.485303 C 217.787057 61.360277 215.792554 62.065735 214.194139 61.814958 Q 212.745722 61.589961 211.658237 60.631381 C 211.5973 60.577475 211.503552 60.589194 211.456677 60.654818 Q 209.977792 62.794631 207.418453 62.581353 C 206.462217 62.501667 205.079424 61.657929 205.201297 60.537632 C 205.213016 60.425134 205.348951 60.373572 205.433325 60.448571 C 206.891117 61.758708 209.070774 61.634491 210.179352 59.883735 C 210.216851 59.822798 210.216851 59.743112 210.174664 59.684519 C 209.76217 59.072809 209.000462 58.341569 209.816076 57.830639 C 210.624658 57.324396 212.361352 57.146274 213.14181 57.954856 Q 213.226184 58.041574 213.22384 58.161103 Q 213.212121 58.988435 212.708222 59.579052 Z" style="fill:#061130;"/>
		<path d="M 274.277664 116.859492 C 276.876846 114.806396 279.930709 112.760331 283.291599 114.548587 Q 286.247026 116.123564 288.316528 118.591498 Q 288.630586 118.966493 288.192311 118.753215 Q 286.157964 117.759479 283.486127 116.156376 C 281.81037 115.150922 280.242423 114.778271 278.280732 115.579822 Q 275.35343 116.779805 274.415943 117.110269 Q 273.58158 117.405578 274.277664 116.859492 Z" style="fill:#061130;"/>
		<path d="M 217.967523 118.408688 Q 218.040178 118.148536 218.115177 118.406345 Q 219.235474 122.210197 220.869044 125.819521 C 220.890138 125.866395 220.854982 125.920301 220.80342 125.920301 L 216.793321 125.920301 Q 216.652698 125.920301 216.66676 125.779678 C 216.737071 125.062501 216.570668 124.528133 216.713634 123.850799 Q 217.519873 120.021166 217.967523 118.408688 Z" style="fill:#e2c8a0;"/>
		<path d="M 251.304551 129.754622 Q 307.593599 129.759309 308.683427 129.782746 Q 308.845144 129.78509 308.812332 129.942119 Q 307.924063 134.193621 304.734264 137.038894 C 299.906207 141.346645 292.846932 141.958355 286.682957 142.185696 C 274.980779 142.61694 263.098134 142.635689 251.302208 142.635689 C 239.506281 142.633346 227.623636 142.612252 215.923802 142.176321 C 209.757483 141.94898 202.698208 141.334927 197.872495 137.027175 Q 194.682696 134.179559 193.796771 129.928057 Q 193.763959 129.771028 193.923332 129.768684 Q 195.01316 129.74759 251.304551 129.754622 Z M 234.65467 133.215424 C 234.645412 132.374897 233.916516 131.70225 233.030755 131.714086 C 232.144666 131.725688 231.43452 132.41474 231.444012 133.254658 C 231.45327 134.095185 232.182165 134.767832 233.067926 134.755996 C 233.954015 134.744395 234.664162 134.055342 234.65467 133.215424 Z M 230.363418 133.293634 C 230.368129 132.588175 229.770481 132.011621 229.029398 132.006957 C 228.286908 132.002246 227.682229 132.569426 227.677565 133.274884 C 227.672854 133.980343 228.270502 134.556897 229.011585 134.561561 C 229.754075 134.566272 230.358754 133.999093 230.363418 133.293634 Z M 234.645295 136.898739 C 234.654787 136.068595 233.958703 135.388917 233.091129 135.377316 C 232.222009 135.367823 231.509519 136.031095 231.500261 136.860302 C 231.490769 137.690447 232.186853 138.370125 233.054427 138.381726 C 233.923547 138.391218 234.636037 137.727946 234.645295 136.898739 Z M 230.274567 136.453574 C 230.063445 135.754537 229.311112 135.36548 228.596372 135.581945 C 227.881445 135.799067 227.473638 136.542026 227.686729 137.239844 C 227.897851 137.938881 228.650184 138.327938 229.364924 138.111472 C 230.079851 137.89435 230.487658 137.151392 230.274567 136.453574 Z" style="fill:#f8efdd;"/>
		<path d="M 234.65467 133.215424 C 234.664162 134.055342 233.954015 134.744395 233.067926 134.755996 C 232.182165 134.767832 231.45327 134.095185 231.444012 133.254658 C 231.43452 132.41474 232.144666 131.725688 233.030755 131.714086 C 233.916516 131.70225 234.645412 132.374897 234.65467 133.215424 Z" style="fill:#061130;"/>
		<path d="M 230.363418 133.293634 C 230.358754 133.999093 229.754075 134.566272 229.011585 134.561561 C 228.270502 134.556897 227.672854 133.980343 227.677565 133.274884 C 227.682229 132.569426 228.286908 132.002246 229.029398 132.006957 C 229.770481 132.011621 230.368129 132.588175 230.363418 133.293634 Z" style="fill:#061130;"/>
		<path d="M 234.645295 136.898739 C 234.636037 137.727946 233.923547 138.391218 233.054427 138.381726 C 232.186853 138.370125 231.490769 137.690447 231.500261 136.860302 C 231.509519 136.031095 232.222009 135.367823 233.091129 135.377316 C 233.958703 135.388917 234.654787 136.068595 234.645295 136.898739 Z" style="fill:#061130;"/>
		<path d="M 230.274567 136.453574 C 230.487658 137.151392 230.079851 137.89435 229.364924 138.111472 C 228.650184 138.327938 227.897851 137.938881 227.686729 137.239844 C 227.473638 136.542026 227.881445 135.799067 228.596372 135.581945 C 229.311112 135.36548 230.063445 135.754537 230.274567 136.453574 Z" style="fill:#061130;"/>
	</g>
	<g id="surface4">
	</g>
</svg>
