<?xml version="1.0" encoding="utf-8"?>
<svg xmlns="http://www.w3.org/2000/svg" width="490pt" height="280pt" viewBox="0 0 490 280" version="1.1" xmlns:xlink="http://www.w3.org/1999/xlink">
	<g id="surface2">
		<path d="M 247.666564 121.433247 Q 247.69218 123.552367 247.680536 125.785592 Q 247.678207 126.139555 247.980939 126.204759 Q 248.3023 126.27462 248.325587 126.286263 C 251.47865 127.65554 255.050879 130.442997 256.084823 133.840574 C 256.694943 135.836272 256.23386 137.855257 255.393199 139.764793 Q 253.465033 144.140425 250.251424 148.010728 Q 248.46298 150.162449 246.583717 151.676106 Q 246.45331 151.778569 246.069074 152.018425 C 245.433338 152.411976 245.209783 153.036068 244.331862 152.356087 C 240.284577 149.212339 237.220005 145.050948 235.12883 140.400529 Q 234.802812 139.676302 234.406932 138.272095 Q 233.806127 136.145989 234.148446 134.175907 Q 234.486108 132.224454 235.855385 130.65258 Q 238.256277 127.893068 241.702757 126.307222 Q 241.907683 126.214073 242.277946 126.158185 C 242.429312 126.134898 242.54109 126.002162 242.536432 125.848467 L 242.443284 121.964191 Q 242.438627 121.838442 242.496844 121.726664 Q 242.578349 121.572969 242.566706 121.430919 Q 242.555062 121.288868 242.410682 121.288868 L 193.25876 121.288868 C 193.119038 121.288868 193.004931 121.17709 193.004931 121.037368 Q 192.990959 117.169393 193.016575 115.061917 Q 193.030547 113.850992 193.247116 112.630752 C 193.589436 110.704915 194.31832 108.839625 195.934439 107.665958 Q 196.353605 107.363227 197.923151 106.266408 Q 201.744552 103.597715 204.371328 99.746041 Q 205.840739 97.591992 207.000433 95.104937 Q 207.405627 94.231674 207.708359 93.495804 Q 209.093937 90.119186 210.134867 85.932179 C 210.188427 85.710952 210.25363 85.168364 210.374723 84.821387 Q 210.481843 84.516327 210.516774 84.362633 Q 211.827833 78.585122 212.589319 72.623644 Q 212.952597 69.791942 213.308888 65.57699 Q 213.504499 63.278561 213.525457 60.926572 Q 213.567374 56.807097 213.567374 49.979342 Q 213.565045 46.258075 214.144892 42.846526 Q 215.11829 37.092302 218.080399 32.204356 Q 219.302968 30.187699 220.814296 28.441173 C 223.729831 25.076198 227.455755 22.223537 231.596188 20.474682 C 232.096859 20.260441 232.890947 19.897163 233.60353 19.661964 Q 236.870699 18.583775 240.361424 18.152965 Q 241.397697 18.024887 242.243016 18.069132 C 242.385067 18.076118 242.503831 17.962012 242.503831 17.819961 L 242.503831 13.46063 Q 242.503831 13.351181 242.431641 13.269676 C 242.310548 13.132283 242.089322 13.020505 241.979872 12.918042 Q 240.300878 11.301923 240.426628 8.935961 Q 240.482517 7.895031 240.941271 7.021768 Q 241.393039 6.157819 242.215071 5.566328 Q 244.369121 4.017741 247.012198 5.107574 C 247.95998 5.498796 248.968309 6.434935 249.310628 7.541068 C 249.424734 7.911332 249.592401 8.251322 249.627331 8.658845 Q 249.857873 11.332196 247.806286 13.099681 C 247.743411 13.153241 247.70848 13.230088 247.70848 13.311593 L 247.70848 17.899137 C 247.70848 17.980641 247.771355 18.045845 247.85286 18.050502 C 248.761054 18.09009 249.39679 18.087762 250.197863 18.227484 Q 252.358899 18.607062 253.655987 18.926094 Q 261.082219 20.749468 266.782882 25.919188 Q 269.677459 28.545964 271.899041 31.922583 C 273.931999 35.012771 275.301276 38.717736 276.009201 42.378457 Q 276.290974 43.838553 276.463298 46.118353 Q 276.610007 48.051176 276.600692 49.879207 C 276.579733 54.445793 276.516858 59.168401 276.896437 64.12388 Q 277.48327 71.755038 278.249413 76.389156 Q 278.680223 78.978673 278.719811 79.202228 C 279.742111 84.837688 281.139333 90.647801 283.507623 95.677798 Q 286.190288 101.380791 290.843036 105.279038 C 292.598878 106.74845 294.957853 107.521579 296.015084 109.74549 Q 296.886019 111.582836 297.000125 113.746201 Q 297.172449 116.976111 297.083958 121.06997 Q 297.079301 121.286539 296.860403 121.286539 L 247.810943 121.286539 Q 247.664235 121.286539 247.666564 121.433247 Z M 246.343744 8.369341 C 246.343861 8.258309 246.253041 8.169818 246.141729 8.170819 L 243.701342 8.192127 C 243.591335 8.193105 243.502844 8.283924 243.502844 8.394118 L 243.50296 8.408091 C 243.502844 8.519123 243.593663 8.607614 243.704975 8.606613 L 246.145362 8.585305 C 246.25537 8.584327 246.343861 8.493507 246.343861 8.383313 L 246.343744 8.369341 Z" style="fill:#424342;"/>
	</g>
	<g id="surface4">
	</g>
</svg>
