<?xml version="1.0" encoding="utf-8"?>
<svg xmlns="http://www.w3.org/2000/svg" width="490pt" height="280pt" viewBox="0 0 490 280" version="1.1" xmlns:xlink="http://www.w3.org/1999/xlink">
	<g id="surface2">
		<path vector-effect="non-scaling-stroke" d="M 301.247404 68.684831 Q 299.361554 67.58171 296.989033 67.595905 Q 294.253537 67.612127 292.055406 69.317503 Q 291.408539 69.818369 290.81034 70.325318" style="fill:none;stroke-width:0.50;stroke:#938041;"/>
		<path vector-effect="non-scaling-stroke" d="M 195.343746 75.19 L 192.076967 75.812533" style="fill:none;stroke-width:0.50;stroke:#956c69;"/>
		<path d="M 238.704101 23.14054 C 236.503943 21.489914 235.157486 19.141726 234.555231 16.469092 Q 234.342313 15.528194 234.322035 14.202016 C 234.297701 12.758225 234.320007 11.96333 234.591731 10.846014 C 235.934132 5.350688 241.601821 2.428634 246.766617 4.926878 C 249.35814 6.182084 251.373769 9.158888 251.925329 11.969413 C 252.817559 16.515731 251.150711 21.382441 247.01198 23.698183 C 244.341373 25.192669 241.178012 24.995973 238.704101 23.14054 Z" style="fill:#da7b10;"/>
		<path d="M 212.961235 34.072386 C 212.876067 34.437389 212.817261 34.950422 212.655037 35.386398 C 211.951392 37.294554 210.663742 39.139848 208.828587 40.062495 C 205.401612 41.788149 201.483911 40.447776 198.799109 37.906948 C 196.092002 35.343814 194.295375 31.748532 194.392709 27.97886 C 194.508294 23.48932 198.040714 20.15968 202.378169 19.733843 C 205.665226 19.413451 208.788031 20.820741 210.76716 23.45282 Q 211.876364 24.933111 212.385341 26.356623 Q 212.942984 27.920054 213.202542 30.209435 Q 213.419516 32.117591 212.961235 34.072386 Z" style="fill:#4d8e96;"/>
		<path d="M 261.316051 49.548523 Q 258.396025 48.737405 255.480055 48.29129 Q 250.086118 47.468005 244.943629 47.468005 C 239.352996 47.470032 233.411554 48.011454 227.985173 49.288965 C 227.881755 49.313299 227.782393 49.242326 227.772254 49.13688 C 227.622198 47.496394 227.668837 45.803184 227.543114 43.92139 Q 227.228805 39.255432 227.15986 35.173479 Q 227.119304 32.790819 228.877403 31.231444 Q 229.968357 30.264186 231.247896 29.751154 Q 233.762363 28.741311 236.818251 28.467559 Q 242.463634 27.96061 248.565272 27.89572 C 250.694457 27.873415 252.852032 27.812581 254.999467 28.021444 C 256.279007 28.147167 258.306802 28.611532 259.407895 29.365872 Q 261.545192 30.829941 261.747972 33.575576 C 261.800694 34.291388 261.867612 35.12684 261.845306 35.984598 C 261.808805 37.284415 261.733777 38.876234 261.733777 40.271358 Q 261.733777 45.020455 261.632387 49.311271 C 261.628332 49.475522 261.474219 49.591107 261.316051 49.548523 Z" style="fill:#da7b10;"/>
		<path d="M 301.247404 68.684831 Q 299.361554 67.58171 296.989033 67.595905 Q 294.253537 67.612127 292.055406 69.317503 Q 291.408539 69.818369 290.81034 70.325318 C 290.50617 70.1489 290.270946 69.990732 290.114806 69.660201 Q 288.17015 65.547831 285.223762 62.341886 C 281.00392 57.748929 275.636344 54.378732 269.563096 52.018378 Q 269.321789 51.9251 269.331928 51.497235 Q 269.457651 46.557524 269.473873 44.957594 Q 269.477929 44.499312 269.692875 43.386052 Q 269.84496 42.593184 270.311353 42.005123 Q 270.871024 41.29945 271.384057 40.889835 Q 271.477335 40.814807 271.471252 40.693139 C 271.398251 39.306127 271.290778 37.568306 271.692282 36.205627 C 272.416205 33.754022 273.766717 31.862089 275.974986 30.627161 C 279.114014 28.875146 282.976965 29.290844 285.682044 31.728254 C 288.559486 34.321805 289.415216 38.113783 288.174205 41.838844 C 287.519227 43.805806 285.937547 45.634877 284.313282 46.770443 C 282.180041 48.262901 279.105903 48.897601 276.575214 47.774202 Q 274.926616 47.044195 273.657216 45.851851 Q 273.03671 45.267846 273.430103 46.024214 C 275.068562 49.173381 277.731057 51.983906 281.535202 51.373539 Q 282.914103 51.152509 284.258532 50.33328 C 286.52358 48.952351 288.060649 47.173974 289.695052 45.081289 C 289.857276 44.872426 290.157389 44.833898 290.36828 44.994094 Q 293.945312 47.733646 297.272925 50.671922 Q 298.183405 51.474929 299.199331 52.590217 C 300.906734 54.469983 301.549546 56.591058 301.632685 59.101469 Q 301.705686 61.380711 301.247404 68.684831 Z" style="fill:#f2b028;"/>
		<path d="M 195.343746 75.19 L 192.076967 75.812533 C 190.51962 75.228528 189.309025 74.263297 188.649992 72.801256 Q 188.426934 72.308502 188.272822 71.432494 Q 187.459676 66.80912 186.889865 62.449359 C 186.780364 61.609852 186.54514 60.381008 186.462 59.405638 Q 186.413333 58.835827 186.127414 56.653919 C 185.87394 54.731569 185.930718 52.5963 186.829031 50.767228 Q 187.664483 49.065908 188.773687 47.697146 Q 192.107384 43.588831 196.11228 39.583935 C 196.26842 39.427795 196.519867 39.427795 196.676007 39.581907 C 198.981611 41.869261 201.419021 44.146475 204.890608 44.349255 Q 206.705485 44.456728 208.483862 43.371857 C 211.286275 41.662426 212.393452 37.86842 213.226876 34.897699 Q 213.303932 34.621919 213.577685 34.701003 Q 215.88126 35.360036 217.250023 37.15058 Q 217.688026 37.722418 217.874584 38.535565 Q 218.036807 39.245293 218.113864 40.042217 Q 218.472783 43.734833 218.726258 48.256817 C 218.795203 49.497828 219.020288 50.538087 218.955399 51.695959 Q 218.947288 51.846016 218.805342 51.894683 Q 218.051002 52.150185 217.422385 52.425965 C 211.046995 55.220268 204.839913 59.399555 200.437568 64.84013 Q 199.018111 66.592146 197.631099 69.029556 Q 195.99264 71.909026 195.343746 75.19 Z" style="fill:#4d8e96;"/>
		<path d="M 207.727494 70.726821 Q 208.224304 69.074168 209.272674 67.541154 Q 210.525852 65.705999 212.219061 64.254097 Q 214.167773 62.579138 216.284792 61.275266 Q 216.761324 60.981235 217.582581 60.561482 C 218.199031 60.247173 218.764786 59.920698 219.334597 59.653029 Q 223.410466 57.732706 227.847283 56.664058 Q 229.769633 56.201721 231.623039 55.826579 Q 232.567991 55.635966 236.954113 55.070211 Q 238.255958 54.899876 238.839963 54.907987 C 239.665276 54.918126 240.429755 54.780236 241.360514 54.761986 Q 243.301114 54.725485 245.241715 54.73968 Q 247.547318 54.755902 248.206352 54.849181 C 249.011387 54.96071 249.875228 54.907987 250.753263 55.01546 Q 252.067275 55.177684 254.042348 55.445353 Q 254.936606 55.567021 255.082607 55.617716 C 255.514528 55.763717 255.918059 55.735328 256.469619 55.865107 Q 257.763353 56.167248 259.535646 56.576863 Q 263.714933 57.542094 267.784719 59.417805 Q 270.97647 60.887957 273.399686 62.698778 C 277.122719 65.480914 280.50711 69.700757 279.933243 74.660745 C 279.523629 78.185054 277.108524 81.236887 274.304083 83.394461 Q 273.091461 84.329275 272.819736 84.53611 C 272.239787 84.974114 271.659837 85.258005 270.812218 85.789288 Q 268.964896 86.945131 265.45681 88.281449 Q 261.845306 89.656294 257.911382 90.524191 Q 256.072171 90.92975 253.52526 91.341393 Q 250.917515 91.763174 246.825423 91.998398 Q 237.682092 92.52157 228.267037 90.384273 Q 224.521698 89.532599 221.058223 88.149642 Q 217.829972 86.859964 215.118809 85.11606 Q 212.770622 83.605352 210.805688 81.457916 Q 208.047886 78.448667 207.437519 74.88583 Q 207.330046 74.265325 207.376685 72.46667 C 207.39088 71.947554 207.58352 71.544023 207.589604 71.030991 Q 207.591632 70.931629 207.646382 70.850517 Q 207.660577 70.826183 207.695049 70.781572 Q 207.721411 70.751155 207.727494 70.726821 Z" style="fill:#344f5a;"/>
		<path d="M 301.247404 68.684831 Q 301.946994 69.260725 302.431637 69.690618 Q 302.81489 70.02926 303.421201 71.002602 Q 303.840955 71.67583 304.088346 72.476809 Q 304.694657 74.447827 304.44321 76.692596 C 303.952484 81.078718 301.792881 85.270172 298.455129 88.025947 C 297.128951 89.120956 295.208629 90.096326 293.38564 90.254494 C 289.638274 90.580969 287.476644 87.271607 286.945361 84.033217 Q 286.789221 83.080153 286.689859 81.494417 Q 286.649303 80.8658 286.779082 80.117543 C 286.884527 79.501093 286.83586 78.9617 286.971722 78.284416 Q 287.458393 75.838894 288.376985 73.89221 Q 289.003574 72.559949 290.122917 71.087769 Q 290.258779 70.911351 290.465614 70.708571 Q 290.650144 70.52607 290.81034 70.325318 Q 291.408539 69.818369 292.055406 69.317503 Q 294.253537 67.612127 296.989033 67.595905 Q 299.361554 67.58171 301.247404 68.684831 Z" style="fill:#344f5a;"/>
		<path d="M 195.343746 75.19 C 197.631099 75.297473 199.664978 76.145092 201.339937 77.745022 Q 204.460715 80.723854 205.073109 85.156616 C 205.470557 88.015808 204.264019 91.375865 201.840803 93.09138 Q 199.768396 94.559504 196.957871 94.22289 Q 196.580701 94.178279 195.088243 93.612524 C 192.89214 92.7791 190.943429 90.777665 189.797724 88.857343 C 188.43099 86.565934 187.59351 84.043356 187.980819 81.421416 C 188.234294 79.71604 189.288748 77.584826 190.923151 76.568901 Q 191.494989 76.214037 192.076967 75.812533 L 195.343746 75.19 Z" style="fill:#dc493b;"/>
		<path d="M 289.54094 94.202612 Q 289.976916 94.014027 290.418975 93.831526 Q 293.558003 92.543875 294.932848 91.984204 Q 294.961237 91.972037 297.183702 91.033168 Q 298.552464 90.457274 300.014504 90.065909 Q 300.343007 89.978714 301.405572 90.00102 Q 302.103134 90.015214 302.754056 90.179466 C 305.805889 90.952056 307.237513 93.687552 306.894815 96.741413 C 306.712314 98.365677 306.097892 100.466473 305.718694 101.894041 Q 303.386729 110.670341 302.445831 113.657284 Q 302.224802 114.356874 301.381239 115.545162 Q 298.828244 119.136388 295.831162 121.859718 Q 294.014257 123.510344 290.461559 126.093755 Q 290.00936 126.424286 289.686941 126.395897 Q 289.190131 126.353313 288.817016 126.262062 Q 287.204919 125.874753 285.487376 125.329276 Q 280.841696 123.859125 275.399092 121.727911 Q 274.952977 121.553521 273.651132 120.943154 Q 272.36551 120.338871 271.779477 119.491253 Q 271.430696 118.986331 271.430696 118.380021 Q 271.432724 117.869016 271.64767 117.041675 Q 272.110008 115.255187 273.330741 110.366172 Q 273.827551 108.372849 274.192554 106.80739 Q 274.293944 106.371414 275.040172 104.11245 Q 275.348397 103.175608 275.806679 102.476019 C 276.646187 101.190396 277.315359 100.200832 278.469175 99.322796 Q 278.978152 98.935487 279.689908 98.503567 Q 280.271885 98.148703 280.987697 97.836422 Q 282.214514 97.299056 287.35092 95.133371 Q 288.73996 94.547338 289.54094 94.202612 Z" style="fill:#344f5a;"/>
		<path d="M 220.25116 120.089452 C 220.960889 122.472112 218.559979 123.573205 216.844463 124.339712 Q 210.929383 126.977874 205.671309 129.129366 Q 203.722597 129.926289 201.909748 130.498128 C 201.560967 130.607629 201.202047 130.485961 200.871517 130.281154 C 198.859943 129.027976 196.655729 127.47874 195.007131 126.213395 Q 191.002235 123.137229 188.132904 118.698384 Q 187.21634 117.278927 186.749947 115.776331 Q 185.37713 111.351681 183.854255 105.70427 Q 183.458835 104.242229 183.144527 102.575381 Q 182.974192 101.677067 183.004609 100.129859 Q 183.03097 98.799625 183.46289 97.75531 Q 184.466649 95.334122 187.189979 94.579782 C 188.039625 94.344558 188.990662 94.458115 189.909253 94.770395 Q 200.050259 98.219676 210.126376 101.378981 Q 212.363035 102.078571 213.245126 102.626076 Q 215.414867 103.968476 216.78363 106.367359 Q 217.258134 107.198755 217.602859 108.583739 Q 218.98176 114.125705 220.072714 119.140444 C 220.143687 119.460836 220.153826 119.765005 220.25116 120.089452 Z" style="fill:#dc493b;"/>
		<path d="M 256.489897 109.984946 Q 255.763946 112.99014 253.628678 115.305882 Q 251.868551 117.216066 249.617698 117.964322 C 246.47867 119.004582 243.230141 118.34352 240.742036 116.123084 Q 237.469174 113.199002 237.815927 108.729741 Q 238.032901 105.949633 239.68961 103.589279 Q 241.820823 100.557724 245.414077 99.373491 Q 246.61656 98.976043 248.080628 98.929404 C 251.473131 98.817875 254.338406 100.413751 255.891698 103.451389 Q 256.710927 105.051319 256.814345 107.496841 C 256.838678 108.068679 256.66226 108.731769 256.629815 109.400941 C 256.621704 109.585471 256.54262 109.763917 256.489897 109.984946 Z" style="fill:#344f5a;"/>
		<path d="M 227.190277 127.541602 C 227.257194 125.428638 228.690846 123.682706 230.680114 122.968922 Q 231.507454 122.672864 232.405768 122.490362 Q 233.15808 122.338278 234.174006 122.263249 Q 236.706722 122.076692 241.283457 121.742106 Q 241.871518 121.699522 245.856137 121.474437 Q 246.500976 121.437936 247.776459 121.326408 C 248.654495 121.249351 249.569031 121.231101 250.341621 121.16824 Q 251.679966 121.054683 255.974837 120.722125 C 257.412544 120.610596 258.503498 120.62479 259.908761 120.488928 C 262.234643 120.265871 264.724776 120.945182 266.12801 122.863477 Q 266.709988 123.662428 266.924934 124.698632 Q 267.180436 125.935587 267.095269 126.730483 Q 266.80935 129.374729 266.511264 130.885437 Q 266.474763 131.063883 266.322679 132.053447 Q 265.515616 137.32166 264.375995 143.269185 C 263.960297 145.453121 263.591238 146.955718 262.007529 148.322452 Q 261.368774 148.871985 259.93715 149.385017 C 255.615917 150.932225 251.611021 151.694676 247.224899 151.984651 C 243.366003 152.240153 239.543609 151.779844 235.725269 151.045782 C 234.472091 150.804474 232.671409 150.287386 231.718345 149.3546 Q 230.392167 148.056811 229.923746 146.203405 Q 229.364074 143.999192 228.741541 140.462716 Q 227.893922 135.65684 227.283556 130.092569 Q 227.149721 128.86778 227.190277 127.541602 Z" style="fill:#4d8e96;"/>
	</g>
	<g id="surface4">
	</g>
</svg>
