<?xml version="1.0" encoding="utf-8"?>
<svg xmlns="http://www.w3.org/2000/svg" width="490pt" height="280pt" viewBox="0 0 490 280" version="1.1" xmlns:xlink="http://www.w3.org/1999/xlink">
	<g id="surface2">
		<path vector-effect="non-scaling-stroke" d="M 260.066016 15.092037 Q 259.88605 15.531489 259.614009 15.592175 C 253.911602 16.868677 248.487515 20.258731 245.457392 25.228719 Q 245.181165 25.680726 244.938421 26.233179 C 244.915402 26.285495 244.84216 26.28968 244.812863 26.239457 C 242.107098 21.399213 237.059683 18.004973 231.874155 16.293205 Q 231.491205 16.167647 230.185406 15.790974 Q 230.087052 15.76377 230.020088 15.686343 L 229.459265 15.05437" style="fill:none;stroke-width:0.50;stroke:#af8d6e;"/>
		<path vector-effect="non-scaling-stroke" d="M 270.598204 18.040547 Q 272.337176 20.871871 272.251378 23.780621 C 272.102802 28.796646 269.028734 32.450372 264.893705 34.930134 C 259.752122 38.014665 254.261071 41.082455 252.036609 46.971105 Q 251.96546 47.161534 252.168444 47.178275 L 255.874486 47.464965 C 255.943542 47.46915 256.008414 47.435668 256.043988 47.374982 C 259.360801 41.720706 265.021355 40.643003 271.048118 36.118746 Q 273.052854 34.614147 274.369116 32.492224 Q 276.606134 28.882444 276.112274 24.517226" style="fill:none;stroke-width:0.50;stroke:#af8d6e;"/>
		<path vector-effect="non-scaling-stroke" d="M 285.935061 22.732216 Q 290.737639 24.795545 293.110677 28.918019 C 295.090301 32.356204 295.370713 36.422176 294.182101 40.214015 C 292.2527 46.372614 287.908408 50.444865 281.921404 52.694438 C 277.995637 54.169739 275.145481 55.406482 272.209526 57.360994 Q 268.520226 59.817738 265.898165 63.029919 Q 264.69909 64.498942 263.813909 66.237915 C 263.807632 66.248378 263.811817 66.263026 263.824373 66.269304 C 263.834836 66.27349 263.849484 66.269304 263.855762 66.258841 Q 267.561803 59.901443 274.659991 57.478181 Q 281.023668 55.30185 287.525457 56.618112 C 292.641928 57.651869 297.120149 60.437155 300.42022 64.513591 Q 304.624306 69.705397 304.015352 76.445746 Q 303.847942 78.316553 303.220154 80.538923 Q 301.546053 86.477796 297.59936 91.125519 C 295.57579 93.511113 292.449407 95.94693 289.247689 94.199587 C 287.768202 93.391833 286.788853 91.690528 286.282437 90.070835 C 285.991562 89.147987 285.755096 87.992857 285.426553 87.059546 Q 283.520171 81.637551 279.157045 78.144958 Q 274.492581 74.413806 268.225166 73.154045 Q 263.014526 72.105639 261.476446 71.653632 Q 259.80653 71.161864 258.151263 70.42526 Q 257.506734 70.13857 257.046356 69.814213 Q 256.822445 69.655174 256.996133 69.439633 C 259.421487 66.438807 261.221146 62.971325 262.378368 59.3176 Q 262.985229 57.396569 263.211233 55.488094 Q 263.35981 54.247167 263.068935 53.066925 C 263.054286 53.010424 262.991507 52.981128 262.939192 53.008332 Q 260.930271 54.054645 258.64303 54.481541 Q 255.405737 55.084217 252.902956 55.280924 Q 245.327649 55.877322 237.783732 55.312313 C 235.287229 55.123977 232.564722 54.770323 230.327704 54.219962 Q 228.513398 53.776326 227.033911 53.016702 Q 226.93765 52.968572 226.910446 53.069018 C 226.56307 54.293204 226.755592 55.745487 227.036003 56.971766 Q 228.597103 63.774894 232.799096 69.395688 C 232.838856 69.450096 232.822115 69.527523 232.761429 69.558913 Q 229.99707 70.99864 226.971132 71.770819 C 223.691987 72.607869 221.011333 73.059876 218.110953 73.949243 C 211.60707 75.945608 206.182983 80.739815 204.241026 87.321124 Q 204.169877 87.557591 203.627886 89.648125 C 202.797114 92.841472 200.336185 95.534682 196.736868 94.450702 C 195.309697 94.019621 194.133641 92.912621 193.166848 91.85166 C 190.04465 88.428123 187.859948 84.062905 186.700633 79.572129 C 185.250443 73.968076 186.152365 68.671639 189.990241 64.185049 C 196.138377 56.996877 205.494509 54.544319 214.526284 57.151732 C 217.583611 58.03482 220.410749 59.662883 222.744027 61.747139 Q 224.836653 63.617947 226.427049 66.346731 Q 226.473087 66.426251 226.466809 66.346731 Q 226.466809 66.334176 226.447975 66.300694 C 225.098232 63.779079 223.216961 61.533691 220.994591 59.658698 C 217.90169 57.053378 214.471876 55.052828 210.6905 53.646583 C 207.718971 52.541676 204.870906 51.392824 202.351384 49.551313 C 199.160129 47.215942 196.833129 43.419918 195.839132 39.630172 Q 193.903452 32.24948 198.618139 26.645427 C 199.555636 25.530057 200.957695 24.326797 202.211178 23.678083 Q 203.406068 23.056573 203.920854 22.709197" style="fill:none;stroke-width:0.50;stroke:#af8d6e;"/>
		<path vector-effect="non-scaling-stroke" d="M 214.844363 22.366006 Q 214.210297 23.590192 214.074277 24.458632 Q 213.230948 29.897368 216.497538 33.856617 C 217.794966 35.428179 219.705534 36.786293 221.536582 37.853533 Q 223.489002 38.991921 226.680257 40.795765 C 229.388115 42.325475 231.798821 44.095837 233.56709 46.715805 Q 233.736593 46.96692 233.864243 47.303833 C 233.90191 47.398001 233.996078 47.458687 234.096524 47.450317 L 237.844418 47.157349 C 237.946957 47.151071 238.011828 47.044347 237.972068 46.950179 Q 236.323079 42.917688 232.966506 40.157514 Q 232.414053 39.701322 231.022456 38.686398 C 228.02163 36.499603 224.830375 35.139396 222.130888 32.816581 C 218.353697 29.56464 216.443129 23.943846 218.845464 19.302401 Q 219.117506 18.779245 219.349787 18.205865" style="fill:none;stroke-width:0.50;stroke:#af8d6e;"/>
		<path vector-effect="non-scaling-stroke" d="M 303.136449 36.286156 Q 303.406398 37.838884 303.429417 39.370687 C 303.511029 44.725717 301.420495 50.195842 297.388005 53.818178 Q 297.249891 53.941643 297.423579 54.0107 Q 299.668967 54.900066 301.091953 55.714098 Q 308.409867 59.895165 311.389767 67.857608 Q 311.471379 68.075241 311.536251 67.85133 Q 314.938861 56.048918 309.74287 44.734088" style="fill:none;stroke-width:0.50;stroke:#af8d6e;"/>
		<path vector-effect="non-scaling-stroke" d="M 173.812148 84.100572 Q 174.048615 84.52119 174.082097 85.021328 C 174.086282 85.088292 174.109301 85.153163 174.149061 85.209664 Q 174.419009 85.586337 174.349953 86.063456 Q 174.393898 86.023696 174.370879 85.929528 Q 174.349953 85.847915 174.358323 85.772581 Q 174.383435 85.55704 174.406454 85.776766 C 174.462955 86.333405 174.136505 86.846098 174.18045 87.429941 Q 174.203469 87.718723 174.46714 88.382086 C 174.948444 89.589531 174.806145 90.629566 173.546384 91.259447 Q 173.450123 91.307577 173.404086 91.209224 Q 172.550294 89.426306 172.150603 87.614092 Q 172.142232 87.570147 172.102472 87.58898 L 172.033416 87.622462 C 171.987378 87.643389 171.966451 87.695704 171.9811 87.743835 Q 174.988204 97.290396 181.435585 104.800831 Q 182.739291 106.32217 184.350614 107.876992 C 191.358819 114.646638 199.967883 119.624995 209.242403 123.069458 Q 222.561969 128.014334 237.212445 128.819995 Q 244.938421 129.244798 253.061996 128.786513 C 265.632402 128.072927 277.947507 125.074194 289.180725 119.484789 C 295.833183 116.174255 302.010616 111.882278 307.114531 106.629786 Q 313.540987 100.017088 317.144489 91.228057 Q 317.282602 90.886959 316.966616 91.025073 Q 316.82641 91.085759 316.690389 90.868126 Q 316.610869 90.742568 316.589943 90.587714 Q 316.305346 88.620645 316.230011 87.093028 C 316.190251 86.255977 315.70267 85.820711 316.079342 84.832992 C 316.081435 84.826714 316.081435 84.818343 316.07725 84.812065 C 316.073064 84.80788 316.066787 84.80788 316.064694 84.814158 Q 316.058416 84.826714 316.052138 84.828806 C 316.035397 84.832992 316.018656 84.853918 316.0061 84.883215 Q 311.226542 96.675163 301.299123 104.401139 C 291.367519 112.129208 279.347474 117.120122 266.967497 119.499438 Q 260.440596 120.752921 253.430298 121.211206 Q 244.570119 121.788771 236.164039 121.23841 Q 227.764237 120.685957 220.668142 119.103931 Q 208.20446 116.327016 197.023558 109.902654 Q 192.942937 107.55682 189.228525 104.675274 C 183.057371 99.887345 178.02879 93.624114 174.956814 86.469425 Q 174.950536 86.454777 174.360416 84.956457 Q 174.010947 84.075461 173.573588 83.204928" style="fill:none;stroke-width:0.50;stroke:#af8d6e;"/>
		<path vector-effect="non-scaling-stroke" d="M 180.644572 44.677587 Q 177.254518 51.664866 177.338223 59.302952 Q 177.386353 63.697467 178.742375 68.079426 C 178.748653 68.102445 178.782135 68.102445 178.788413 68.079426 Q 179.604537 65.626868 181.278638 63.069679 Q 185.530855 56.574167 192.852954 53.964662 Q 192.9534 53.929087 192.875973 53.855845 C 192.568357 53.56497 192.191684 53.295022 191.913365 52.989498 Q 186.441147 46.992031 186.794801 38.837067 Q 186.82619 38.110926 187.014527 37.116928 Q 187.177752 36.263137 187.317958 35.40516" style="fill:none;stroke-width:0.50;stroke:#af8d6e;"/>
		<path vector-effect="non-scaling-stroke" d="M 225.811817 14.631659 Q 225.73439 14.709087 225.583721 14.660956" style="fill:none;stroke-width:0.50;stroke:#af8d6e;"/>
		<path vector-effect="non-scaling-stroke" d="M 304.155558 39.000292 L 304.339709 39.008662" style="fill:none;stroke-width:0.50;stroke:#af8d6e;"/>
		<path vector-effect="non-scaling-stroke" d="M 239.629428 48.806338 Q 236.036389 48.758208 232.28431 49.513646 C 231.116625 49.74802 229.540877 50.143527 228.672437 50.955466 C 228.538509 51.083116 228.525953 51.292378 228.645233 51.434677 C 229.29604 52.213134 231.250553 52.681882 232.250828 52.870219 Q 234.994261 53.391282 237.482394 53.577526 Q 242.525623 53.956292 247.935062 53.822363 C 251.816883 53.726103 255.631741 53.495914 259.067833 52.585621 C 259.750029 52.403563 260.875862 52.035261 261.355074 51.499548 C 261.505743 51.332138 261.486909 51.072653 261.315314 50.928261 C 260.137165 49.930079 258.184745 49.593166 256.5232 49.323217 Q 253.403094 48.816801 250.306007 48.75193 C 250.22858 48.749837 250.172079 48.676596 250.190913 48.601261 Q 250.820793 46.064998 250.02978 43.499438 Q 249.383159 41.394256 248.813965 40.370962 Q 246.346758 35.928317 245.110016 31.358021 Q 244.957254 30.788827 244.83379 31.364299 Q 244.316911 33.798023 243.410804 36.095727 C 242.795572 37.652641 241.904113 39.18235 241.129841 40.6723 C 240.137936 42.574497 239.198347 45.255152 239.568742 47.492169 Q 239.715226 48.371072 239.734059 48.695429 C 239.738245 48.756115 239.690114 48.808431 239.629428 48.806338" style="fill:none;stroke-width:0.50;stroke:#af8d6e;"/>
		<path vector-effect="non-scaling-stroke" d="M 228.253912 75.769827 C 223.851026 76.23439 219.801795 78.301905 216.734004 81.516179 C 214.011498 84.368429 212.18045 88.436494 212.460862 92.416669 C 213.061445 100.946214 221.701899 108.017198 229.940569 108.483853 C 234.065135 108.718227 239.359479 106.48121 239.179513 101.523778 Q 239.123013 99.991976 239.110457 98.748956 C 239.089531 96.65633 240.499961 94.984321 242.462844 94.323052 Q 243.429637 93.998694 244.771011 94.055195 C 247.840893 94.182846 249.759832 96.388474 249.835166 99.401855 Q 249.854 100.222165 249.799592 101.216162 Q 249.586144 105.062409 252.848548 106.991811 C 255.681964 108.668004 258.948553 108.835414 262.154457 108.09881 C 267.817103 106.801382 273.034021 103.122545 275.695841 97.895165 Q 277.717318 93.927545 277.072789 89.689977 C 275.890455 81.930519 268.735766 76.544099 261.281832 75.767735 Q 260.434318 75.677752 257.584161 75.48523 C 254.014141 75.244578 250.44412 74.417991 247.692317 72.076342 Q 245.220925 69.969067 244.331559 66.798739 Q 244.249947 66.505771 244.13276 66.788276 Q 242.377046 70.992362 238.296425 73.210545 Q 235.195153 74.89511 231.828118 75.365951 Q 231.039197 75.47686 228.253912 75.769827" style="fill:none;stroke-width:0.50;stroke:#af8d6e;"/>
		<path d="M 260.066016 15.092037 Q 259.88605 15.531489 259.614009 15.592175 C 253.911602 16.868677 248.487515 20.258731 245.457392 25.228719 Q 245.181165 25.680726 244.938421 26.233179 C 244.915402 26.285495 244.84216 26.28968 244.812863 26.239457 C 242.107098 21.399213 237.059683 18.004973 231.874155 16.293205 Q 231.491205 16.167647 230.185406 15.790974 Q 230.087052 15.76377 230.020088 15.686343 L 229.459265 15.05437 C 230.103793 15.025073 230.70647 14.972757 231.317517 14.725828 Q 232.61076 14.204764 233.918651 13.882499 C 234.046301 13.85111 234.134192 13.73183 234.127914 13.599995 C 234.031653 11.681056 235.944313 10.726819 237.635155 10.82308 Q 239.409702 10.921433 240.581573 11.821262 Q 242.48377 13.281915 243.373136 15.326411 C 243.396155 15.38082 243.469397 15.393375 243.509157 15.34943 Q 243.523806 15.334782 243.523806 15.244799 Q 243.507065 12.44068 241.571385 10.49663 Q 240.709223 9.630283 239.771727 9.362427 Q 239.390869 9.25361 239.767541 9.130145 Q 242.113375 8.368429 243.51125 6.183727 Q 243.747717 5.813332 243.881645 5.505716 C 244.093 5.02232 244.331559 4.425921 244.739621 4.239677 C 245.193721 4.030415 245.536912 4.457311 245.729434 4.869558 C 246.576947 6.683865 247.711151 8.249149 249.743091 8.79951 C 249.845629 8.826714 249.870741 8.95855 249.787036 9.023421 C 248.215474 10.224589 247.016399 11.260438 246.560206 13.327953 Q 246.396981 14.064558 246.300721 14.539584 Q 246.095643 15.541952 246.612522 14.658864 Q 247.483054 13.162636 248.891392 11.923801 C 250.707791 10.327127 253.66258 10.193199 255.181826 12.210491 C 255.558499 12.710628 255.550128 13.160543 255.508276 13.719274 Q 255.49572 13.897148 255.673593 13.924352 C 256.217676 14.003871 256.705258 14.064558 257.243063 14.257079 Q 258.68279 14.769773 260.066016 15.092037 Z" style="fill:#693d2c;"/>
		<path d="M 225.811817 14.631659 Q 225.73439 14.709087 225.583721 14.660956 Q 225.69463 14.619104 225.811817 14.631659 Z" style="fill:#693d2c;"/>
		<path d="M 229.459265 15.05437 L 230.020088 15.686343 Q 230.087052 15.76377 230.185406 15.790974 Q 231.491205 16.167647 231.874155 16.293205 C 237.059683 18.004973 242.107098 21.399213 244.812863 26.239457 C 244.84216 26.28968 244.915402 26.285495 244.938421 26.233179 Q 245.181165 25.680726 245.457392 25.228719 C 248.487515 20.258731 253.911602 16.868677 259.614009 15.592175 Q 259.88605 15.531489 260.066016 15.092037 C 261.419945 14.64003 262.7948 14.660956 264.247083 14.71955 C 266.032093 14.790699 267.427875 15.251077 268.70647 16.34552 Q 269.752783 17.239072 270.598204 18.040547 Q 272.337176 20.871871 272.251378 23.780621 C 272.102802 28.796646 269.028734 32.450372 264.893705 34.930134 C 259.752122 38.014665 254.261071 41.082455 252.036609 46.971105 Q 251.96546 47.161534 252.168444 47.178275 L 255.874486 47.464965 C 255.943542 47.46915 256.008414 47.435668 256.043988 47.374982 C 259.360801 41.720706 265.021355 40.643003 271.048118 36.118746 Q 273.052854 34.614147 274.369116 32.492224 Q 276.606134 28.882444 276.112274 24.517226 Q 276.294332 24.307963 276.447094 24.104978 Q 276.618689 23.876882 276.83423 23.75551 Q 278.935227 22.575269 281.481953 22.282301 Q 284.043327 21.987241 285.935061 22.732216 Q 290.737639 24.795545 293.110677 28.918019 C 295.090301 32.356204 295.370713 36.422176 294.182101 40.214015 C 292.2527 46.372614 287.908408 50.444865 281.921404 52.694438 C 277.995637 54.169739 275.145481 55.406482 272.209526 57.360994 Q 268.520226 59.817738 265.898165 63.029919 Q 264.69909 64.498942 263.813909 66.237915 C 263.807632 66.248378 263.811817 66.263026 263.824373 66.269304 C 263.834836 66.27349 263.849484 66.269304 263.855762 66.258841 Q 267.561803 59.901443 274.659991 57.478181 Q 281.023668 55.30185 287.525457 56.618112 C 292.641928 57.651869 297.120149 60.437155 300.42022 64.513591 Q 304.624306 69.705397 304.015352 76.445746 Q 303.847942 78.316553 303.220154 80.538923 Q 301.546053 86.477796 297.59936 91.125519 C 295.57579 93.511113 292.449407 95.94693 289.247689 94.199587 C 287.768202 93.391833 286.788853 91.690528 286.282437 90.070835 C 285.991562 89.147987 285.755096 87.992857 285.426553 87.059546 Q 283.520171 81.637551 279.157045 78.144958 Q 274.492581 74.413806 268.225166 73.154045 Q 263.014526 72.105639 261.476446 71.653632 Q 259.80653 71.161864 258.151263 70.42526 Q 257.506734 70.13857 257.046356 69.814213 Q 256.822445 69.655174 256.996133 69.439633 C 259.421487 66.438807 261.221146 62.971325 262.378368 59.3176 Q 262.985229 57.396569 263.211233 55.488094 Q 263.35981 54.247167 263.068935 53.066925 C 263.054286 53.010424 262.991507 52.981128 262.939192 53.008332 Q 260.930271 54.054645 258.64303 54.481541 Q 255.405737 55.084217 252.902956 55.280924 Q 245.327649 55.877322 237.783732 55.312313 C 235.287229 55.123977 232.564722 54.770323 230.327704 54.219962 Q 228.513398 53.776326 227.033911 53.016702 Q 226.93765 52.968572 226.910446 53.069018 C 226.56307 54.293204 226.755592 55.745487 227.036003 56.971766 Q 228.597103 63.774894 232.799096 69.395688 C 232.838856 69.450096 232.822115 69.527523 232.761429 69.558913 Q 229.99707 70.99864 226.971132 71.770819 C 223.691987 72.607869 221.011333 73.059876 218.110953 73.949243 C 211.60707 75.945608 206.182983 80.739815 204.241026 87.321124 Q 204.169877 87.557591 203.627886 89.648125 C 202.797114 92.841472 200.336185 95.534682 196.736868 94.450702 C 195.309697 94.019621 194.133641 92.912621 193.166848 91.85166 C 190.04465 88.428123 187.859948 84.062905 186.700633 79.572129 C 185.250443 73.968076 186.152365 68.671639 189.990241 64.185049 C 196.138377 56.996877 205.494509 54.544319 214.526284 57.151732 C 217.583611 58.03482 220.410749 59.662883 222.744027 61.747139 Q 224.836653 63.617947 226.427049 66.346731 Q 226.473087 66.426251 226.466809 66.346731 Q 226.466809 66.334176 226.447975 66.300694 C 225.098232 63.779079 223.216961 61.533691 220.994591 59.658698 C 217.90169 57.053378 214.471876 55.052828 210.6905 53.646583 C 207.718971 52.541676 204.870906 51.392824 202.351384 49.551313 C 199.160129 47.215942 196.833129 43.419918 195.839132 39.630172 Q 193.903452 32.24948 198.618139 26.645427 C 199.555636 25.530057 200.957695 24.326797 202.211178 23.678083 Q 203.406068 23.056573 203.920854 22.709197 Q 205.940238 21.989333 208.434649 22.052112 Q 211.548477 22.131632 213.894311 23.910364 Q 213.971738 23.97105 214.017776 23.885253 L 214.844363 22.366006 Q 214.210297 23.590192 214.074277 24.458632 Q 213.230948 29.897368 216.497538 33.856617 C 217.794966 35.428179 219.705534 36.786293 221.536582 37.853533 Q 223.489002 38.991921 226.680257 40.795765 C 229.388115 42.325475 231.798821 44.095837 233.56709 46.715805 Q 233.736593 46.96692 233.864243 47.303833 C 233.90191 47.398001 233.996078 47.458687 234.096524 47.450317 L 237.844418 47.157349 C 237.946957 47.151071 238.011828 47.044347 237.972068 46.950179 Q 236.323079 42.917688 232.966506 40.157514 Q 232.414053 39.701322 231.022456 38.686398 C 228.02163 36.499603 224.830375 35.139396 222.130888 32.816581 C 218.353697 29.56464 216.443129 23.943846 218.845464 19.302401 Q 219.117506 18.779245 219.349787 18.205865 Q 220.458879 17.20559 221.657954 16.127887 Q 223.170923 14.769773 225.583721 14.660956 Q 225.73439 14.709087 225.811817 14.631659 C 227.050652 14.558417 228.295764 14.575158 229.459265 15.05437 Z M 239.629428 48.806338 Q 236.036389 48.758208 232.28431 49.513646 C 231.116625 49.74802 229.540877 50.143527 228.672437 50.955466 C 228.538509 51.083116 228.525953 51.292378 228.645233 51.434677 C 229.29604 52.213134 231.250553 52.681882 232.250828 52.870219 Q 234.994261 53.391282 237.482394 53.577526 Q 242.525623 53.956292 247.935062 53.822363 C 251.816883 53.726103 255.631741 53.495914 259.067833 52.585621 C 259.750029 52.403563 260.875862 52.035261 261.355074 51.499548 C 261.505743 51.332138 261.486909 51.072653 261.315314 50.928261 C 260.137165 49.930079 258.184745 49.593166 256.5232 49.323217 Q 253.403094 48.816801 250.306007 48.75193 C 250.22858 48.749837 250.172079 48.676596 250.190913 48.601261 Q 250.820793 46.064998 250.02978 43.499438 Q 249.383159 41.394256 248.813965 40.370962 Q 246.346758 35.928317 245.110016 31.358021 Q 244.957254 30.788827 244.83379 31.364299 Q 244.316911 33.798023 243.410804 36.095727 C 242.795572 37.652641 241.904113 39.18235 241.129841 40.6723 C 240.137936 42.574497 239.198347 45.255152 239.568742 47.492169 Q 239.715226 48.371072 239.734059 48.695429 C 239.738245 48.756115 239.690114 48.808431 239.629428 48.806338 Z" style="fill:#f5ddb0;"/>
		<path d="M 276.112274 24.517226 Q 276.606134 28.882444 274.369116 32.492224 Q 273.052854 34.614147 271.048118 36.118746 C 265.021355 40.643003 259.360801 41.720706 256.043988 47.374982 C 256.008414 47.435668 255.943542 47.46915 255.874486 47.464965 L 252.168444 47.178275 Q 251.96546 47.161534 252.036609 46.971105 C 254.261071 41.082455 259.752122 38.014665 264.893705 34.930134 C 269.028734 32.450372 272.102802 28.796646 272.251378 23.780621 Q 272.337176 20.871871 270.598204 18.040547 Q 273.477657 19.19777 275.063868 21.920277 Q 275.938586 23.424875 276.112274 24.517226 Z" style="fill:#693d2c;"/>
		<path d="M 219.349787 18.205865 Q 219.117506 18.779245 218.845464 19.302401 C 216.443129 23.943846 218.353697 29.56464 222.130888 32.816581 C 224.830375 35.139396 228.02163 36.499603 231.022456 38.686398 Q 232.414053 39.701322 232.966506 40.157514 Q 236.323079 42.917688 237.972068 46.950179 C 238.011828 47.044347 237.946957 47.151071 237.844418 47.157349 L 234.096524 47.450317 C 233.996078 47.458687 233.90191 47.398001 233.864243 47.303833 Q 233.736593 46.96692 233.56709 46.715805 C 231.798821 44.095837 229.388115 42.325475 226.680257 40.795765 Q 223.489002 38.991921 221.536582 37.853533 C 219.705534 36.786293 217.794966 35.428179 216.497538 33.856617 Q 213.230948 29.897368 214.074277 24.458632 Q 214.210297 23.590192 214.844363 22.366006 C 215.806971 20.438697 217.443405 19.231252 219.349787 18.205865 Z" style="fill:#693d2c;"/>
		<path d="M 203.920854 22.709197 Q 203.406068 23.056573 202.211178 23.678083 C 200.957695 24.326797 199.555636 25.530057 198.618139 26.645427 Q 193.903452 32.24948 195.839132 39.630172 C 196.833129 43.419918 199.160129 47.215942 202.351384 49.551313 C 204.870906 51.392824 207.718971 52.541676 210.6905 53.646583 C 214.471876 55.052828 217.90169 57.053378 220.994591 59.658698 C 223.216961 61.533691 225.098232 63.779079 226.447975 66.300694 Q 226.466809 66.334176 226.466809 66.346731 Q 226.473087 66.426251 226.427049 66.346731 Q 224.836653 63.617947 222.744027 61.747139 C 220.410749 59.662883 217.583611 58.03482 214.526284 57.151732 C 205.494509 54.544319 196.138377 56.996877 189.990241 64.185049 C 186.152365 68.671639 185.250443 73.968076 186.700633 79.572129 C 187.859948 84.062905 190.04465 88.428123 193.166848 91.85166 C 194.133641 92.912621 195.309697 94.019621 196.736868 94.450702 C 200.336185 95.534682 202.797114 92.841472 203.627886 89.648125 Q 204.169877 87.557591 204.241026 87.321124 C 206.182983 80.739815 211.60707 75.945608 218.110953 73.949243 C 221.011333 73.059876 223.691987 72.607869 226.971132 71.770819 Q 229.99707 70.99864 232.761429 69.558913 C 232.822115 69.527523 232.838856 69.450096 232.799096 69.395688 Q 228.597103 63.774894 227.036003 56.971766 C 226.755592 55.745487 226.56307 54.293204 226.910446 53.069018 Q 226.93765 52.968572 227.033911 53.016702 Q 228.513398 53.776326 230.327704 54.219962 C 232.564722 54.770323 235.287229 55.123977 237.783732 55.312313 Q 245.327649 55.877322 252.902956 55.280924 Q 255.405737 55.084217 258.64303 54.481541 Q 260.930271 54.054645 262.939192 53.008332 C 262.991507 52.981128 263.054286 53.010424 263.068935 53.066925 Q 263.35981 54.247167 263.211233 55.488094 Q 262.985229 57.396569 262.378368 59.3176 C 261.221146 62.971325 259.421487 66.438807 256.996133 69.439633 Q 256.822445 69.655174 257.046356 69.814213 Q 257.506734 70.13857 258.151263 70.42526 Q 259.80653 71.161864 261.476446 71.653632 Q 263.014526 72.105639 268.225166 73.154045 Q 274.492581 74.413806 279.157045 78.144958 Q 283.520171 81.637551 285.426553 87.059546 C 285.755096 87.992857 285.991562 89.147987 286.282437 90.070835 C 286.788853 91.690528 287.768202 93.391833 289.247689 94.199587 C 292.449407 95.94693 295.57579 93.511113 297.59936 91.125519 Q 301.546053 86.477796 303.220154 80.538923 Q 303.847942 78.316553 304.015352 76.445746 Q 304.624306 69.705397 300.42022 64.513591 C 297.120149 60.437155 292.641928 57.651869 287.525457 56.618112 Q 281.023668 55.30185 274.659991 57.478181 Q 267.561803 59.901443 263.855762 66.258841 C 263.849484 66.269304 263.834836 66.27349 263.824373 66.269304 C 263.811817 66.263026 263.807632 66.248378 263.813909 66.237915 Q 264.69909 64.498942 265.898165 63.029919 Q 268.520226 59.817738 272.209526 57.360994 C 275.145481 55.406482 277.995637 54.169739 281.921404 52.694438 C 287.908408 50.444865 292.2527 46.372614 294.182101 40.214015 C 295.370713 36.422176 295.090301 32.356204 293.110677 28.918019 Q 290.737639 24.795545 285.935061 22.732216 Q 288.075818 22.734308 289.159798 22.876607 C 293.838911 23.485561 298.019978 26.582648 300.612742 30.479118 Q 302.429141 33.20581 303.136449 36.286156 Q 303.406398 37.838884 303.429417 39.370687 C 303.511029 44.725717 301.420495 50.195842 297.388005 53.818178 Q 297.249891 53.941643 297.423579 54.0107 Q 299.668967 54.900066 301.091953 55.714098 Q 308.409867 59.895165 311.389767 67.857608 Q 311.471379 68.075241 311.536251 67.85133 Q 314.938861 56.048918 309.74287 44.734088 Q 311.772717 46.751379 313.52006 49.534572 Q 317.431179 55.770598 318.362397 62.866694 Q 318.93787 67.254931 318.841609 69.399873 Q 318.701403 72.530442 318.642809 73.415623 Q 318.391694 77.161424 317.154952 81.545476 C 316.949875 82.269524 316.725964 83.112853 316.382773 83.910143 C 316.313716 84.069183 316.290698 84.242871 316.311624 84.414466 Q 316.552276 86.318756 316.629703 87.379718 C 316.684111 88.135156 317.03358 88.859204 317.420716 89.332138 Q 317.69485 89.666958 317.799481 89.24634 L 318.165691 87.775224 Q 318.249396 87.438311 318.425176 87.714538 Q 318.487955 87.814984 318.473307 88.064006 Q 318.395879 89.340508 318.255674 90.370081 Q 317.793203 93.760135 316.759446 97.022539 C 315.171142 102.036472 312.844142 106.897643 309.828668 111.231472 Q 304.174392 119.357139 296.008964 125.003045 Q 291.325667 128.240338 286.428921 130.531763 C 282.789844 132.235161 281.207819 132.802263 278.780372 134.568439 Q 276.478483 136.244633 275.00946 138.540244 C 274.266578 139.701651 273.56764 141.239732 272.431344 142.235822 Q 271.479199 143.07078 270.114807 142.800831 C 268.919917 142.564364 267.210242 141.901002 265.925369 141.666627 Q 262.033085 140.95932 258.199393 142.29023 C 254.353146 143.627418 250.339489 146.063235 247.759281 149.258675 C 247.110567 150.064337 246.700412 150.87209 246.131218 151.61288 Q 245.564116 152.349484 244.88192 152.138129 Q 244.47595 152.012572 244.10137 151.428729 Q 243.35221 150.258951 243.040409 149.838333 C 240.853614 146.894008 237.651896 144.644435 234.326713 143.169133 Q 232.137826 142.200247 230.377928 141.792185 Q 226.939743 140.996987 223.417853 141.888446 Q 222.710545 142.066319 221.444506 142.459733 Q 220.075929 142.882443 219.443955 142.859424 Q 217.928894 142.802923 216.983027 141.275306 Q 215.763026 139.304052 215.386353 138.68045 C 213.680863 135.844941 211.046246 133.88415 208.129125 132.492554 Q 202.774095 129.935365 202.215364 129.661231 C 195.249011 126.233509 188.686535 121.489525 183.657954 115.540189 Q 177.907417 108.737061 174.764293 100.72858 Q 172.878837 95.921818 172.112935 91.286651 C 171.970637 90.420304 171.983193 89.560234 171.799041 88.718999 Q 171.732077 88.411382 171.786486 87.584795 Q 171.786486 87.568054 171.794856 87.582702 L 171.838801 87.683149 C 171.838801 87.683149 171.840894 87.683149 171.840894 87.683149 L 171.920414 87.118139 Q 171.932969 87.03862 172.010397 87.057453 L 173.02532 87.310661 Q 173.132044 87.337865 173.165526 87.231141 L 173.466865 86.285274 Q 173.485698 86.228773 173.498254 86.287367 Q 173.506624 86.325034 173.51081 86.34596 C 173.51081 86.34596 173.51081 86.34596 173.512902 86.34596 C 173.512902 86.34596 173.512902 86.34596 173.512902 86.34596 Q 173.47942 86.145068 173.937705 86.119957 C 174.086282 86.111586 174.190913 85.973473 174.161616 85.829082 L 173.812148 84.100572 Q 174.048615 84.52119 174.082097 85.021328 C 174.086282 85.088292 174.109301 85.153163 174.149061 85.209664 Q 174.419009 85.586337 174.349953 86.063456 Q 174.393898 86.023696 174.370879 85.929528 Q 174.349953 85.847915 174.358323 85.772581 Q 174.383435 85.55704 174.406454 85.776766 C 174.462955 86.333405 174.136505 86.846098 174.18045 87.429941 Q 174.203469 87.718723 174.46714 88.382086 C 174.948444 89.589531 174.806145 90.629566 173.546384 91.259447 Q 173.450123 91.307577 173.404086 91.209224 Q 172.550294 89.426306 172.150603 87.614092 Q 172.142232 87.570147 172.102472 87.58898 L 172.033416 87.622462 C 171.987378 87.643389 171.966451 87.695704 171.9811 87.743835 Q 174.988204 97.290396 181.435585 104.800831 Q 182.739291 106.32217 184.350614 107.876992 C 191.358819 114.646638 199.967883 119.624995 209.242403 123.069458 Q 222.561969 128.014334 237.212445 128.819995 Q 244.938421 129.244798 253.061996 128.786513 C 265.632402 128.072927 277.947507 125.074194 289.180725 119.484789 C 295.833183 116.174255 302.010616 111.882278 307.114531 106.629786 Q 313.540987 100.017088 317.144489 91.228057 Q 317.282602 90.886959 316.966616 91.025073 Q 316.82641 91.085759 316.690389 90.868126 Q 316.610869 90.742568 316.589943 90.587714 Q 316.305346 88.620645 316.230011 87.093028 C 316.190251 86.255977 315.70267 85.820711 316.079342 84.832992 C 316.081435 84.826714 316.081435 84.818343 316.07725 84.812065 C 316.073064 84.80788 316.066787 84.80788 316.064694 84.814158 Q 316.058416 84.826714 316.052138 84.828806 C 316.035397 84.832992 316.018656 84.853918 316.0061 84.883215 Q 311.226542 96.675163 301.299123 104.401139 C 291.367519 112.129208 279.347474 117.120122 266.967497 119.499438 Q 260.440596 120.752921 253.430298 121.211206 Q 244.570119 121.788771 236.164039 121.23841 Q 227.764237 120.685957 220.668142 119.103931 Q 208.20446 116.327016 197.023558 109.902654 Q 192.942937 107.55682 189.228525 104.675274 C 183.057371 99.887345 178.02879 93.624114 174.956814 86.469425 Q 174.950536 86.454777 174.360416 84.956457 Q 174.010947 84.075461 173.573588 83.204928 Q 172.121306 78.30609 171.776023 74.73607 Q 171.340756 70.236924 171.591871 65.896817 Q 171.780208 62.603023 172.788854 58.740035 Q 174.335304 52.824181 177.913695 47.87512 Q 178.970471 46.412374 180.644572 44.677587 Q 177.254518 51.664866 177.338223 59.302952 Q 177.386353 63.697467 178.742375 68.079426 C 178.748653 68.102445 178.782135 68.102445 178.788413 68.079426 Q 179.604537 65.626868 181.278638 63.069679 Q 185.530855 56.574167 192.852954 53.964662 Q 192.9534 53.929087 192.875973 53.855845 C 192.568357 53.56497 192.191684 53.295022 191.913365 52.989498 Q 186.441147 46.992031 186.794801 38.837067 Q 186.82619 38.110926 187.014527 37.116928 Q 187.177752 36.263137 187.317958 35.40516 Q 188.763962 30.26567 192.758786 26.785633 Q 194.797004 25.011085 196.941946 24.012903 Q 198.071964 23.487654 199.427986 23.144463 C 200.73797 22.813828 202.430904 22.80755 203.920854 22.709197 Z M 228.253912 75.769827 C 223.851026 76.23439 219.801795 78.301905 216.734004 81.516179 C 214.011498 84.368429 212.18045 88.436494 212.460862 92.416669 C 213.061445 100.946214 221.701899 108.017198 229.940569 108.483853 C 234.065135 108.718227 239.359479 106.48121 239.179513 101.523778 Q 239.123013 99.991976 239.110457 98.748956 C 239.089531 96.65633 240.499961 94.984321 242.462844 94.323052 Q 243.429637 93.998694 244.771011 94.055195 C 247.840893 94.182846 249.759832 96.388474 249.835166 99.401855 Q 249.854 100.222165 249.799592 101.216162 Q 249.586144 105.062409 252.848548 106.991811 C 255.681964 108.668004 258.948553 108.835414 262.154457 108.09881 C 267.817103 106.801382 273.034021 103.122545 275.695841 97.895165 Q 277.717318 93.927545 277.072789 89.689977 C 275.890455 81.930519 268.735766 76.544099 261.281832 75.767735 Q 260.434318 75.677752 257.584161 75.48523 C 254.014141 75.244578 250.44412 74.417991 247.692317 72.076342 Q 245.220925 69.969067 244.331559 66.798739 Q 244.249947 66.505771 244.13276 66.788276 Q 242.377046 70.992362 238.296425 73.210545 Q 235.195153 74.89511 231.828118 75.365951 Q 231.039197 75.47686 228.253912 75.769827 Z" style="fill:#693d2c;"/>
		<path d="M 180.644572 44.677587 Q 181.307935 43.704516 182.130337 42.62472 C 183.308486 41.082455 184.890511 39.84362 186.338608 38.565026 Q 186.568797 38.362041 186.775967 37.464304 Q 187.014527 36.422176 187.317958 35.40516 Q 187.177752 36.263137 187.014527 37.116928 Q 186.82619 38.110926 186.794801 38.837067 Q 186.441147 46.992031 191.913365 52.989498 C 192.191684 53.295022 192.568357 53.56497 192.875973 53.855845 Q 192.9534 53.929087 192.852954 53.964662 Q 185.530855 56.574167 181.278638 63.069679 Q 179.604537 65.626868 178.788413 68.079426 C 178.782135 68.102445 178.748653 68.102445 178.742375 68.079426 Q 177.386353 63.697467 177.338223 59.302952 Q 177.254518 51.664866 180.644572 44.677587 Z" style="fill:#f5ddb0;"/>
		<path d="M 303.136449 36.286156 Q 303.563345 37.855625 303.82283 38.621526 Q 303.908628 38.876827 304.155558 39.000292 L 304.339709 39.008662 Q 305.206056 39.374872 305.459264 39.600876 Q 307.16894 41.132678 308.468461 43.018134 Q 308.790725 43.486882 309.100434 43.878204 Q 309.464551 44.338581 309.74287 44.734088 Q 314.938861 56.048918 311.536251 67.85133 Q 311.471379 68.075241 311.389767 67.857608 Q 308.409867 59.895165 301.091953 55.714098 Q 299.668967 54.900066 297.423579 54.0107 Q 297.249891 53.941643 297.388005 53.818178 C 301.420495 50.195842 303.511029 44.725717 303.429417 39.370687 Q 303.406398 37.838884 303.136449 36.286156 Z" style="fill:#f5ddb0;"/>
		<path d="M 304.339709 39.008662 L 304.155558 39.000292 Q 304.289486 38.901938 304.339709 39.008662 Z" style="fill:#693d2c;"/>
		<path d="M 173.812148 84.100572 L 173.573588 83.204928 Q 174.010947 84.075461 174.360416 84.956457 Q 174.950536 86.454777 174.956814 86.469425 C 178.02879 93.624114 183.057371 99.887345 189.228525 104.675274 Q 192.942937 107.55682 197.023558 109.902654 Q 208.20446 116.327016 220.668142 119.103931 Q 227.764237 120.685957 236.164039 121.23841 Q 244.570119 121.788771 253.430298 121.211206 Q 260.440596 120.752921 266.967497 119.499438 C 279.347474 117.120122 291.367519 112.129208 301.299123 104.401139 Q 311.226542 96.675163 316.0061 84.883215 C 316.018656 84.853918 316.035397 84.832992 316.052138 84.828806 Q 316.058416 84.826714 316.064694 84.814158 C 316.066787 84.80788 316.073064 84.80788 316.07725 84.812065 C 316.081435 84.818343 316.081435 84.826714 316.079342 84.832992 C 315.70267 85.820711 316.190251 86.255977 316.230011 87.093028 Q 316.305346 88.620645 316.589943 90.587714 Q 316.610869 90.742568 316.690389 90.868126 Q 316.82641 91.085759 316.966616 91.025073 Q 317.282602 90.886959 317.144489 91.228057 Q 313.540987 100.017088 307.114531 106.629786 C 302.010616 111.882278 295.833183 116.174255 289.180725 119.484789 C 277.947507 125.074194 265.632402 128.072927 253.061996 128.786513 Q 244.938421 129.244798 237.212445 128.819995 Q 222.561969 128.014334 209.242403 123.069458 C 199.967883 119.624995 191.358819 114.646638 184.350614 107.876992 Q 182.739291 106.32217 181.435585 104.800831 Q 174.988204 97.290396 171.9811 87.743835 C 171.966451 87.695704 171.987378 87.643389 172.033416 87.622462 L 172.102472 87.58898 Q 172.142232 87.570147 172.150603 87.614092 Q 172.550294 89.426306 173.404086 91.209224 Q 173.450123 91.307577 173.546384 91.259447 C 174.806145 90.629566 174.948444 89.589531 174.46714 88.382086 Q 174.203469 87.718723 174.18045 87.429941 C 174.136505 86.846098 174.462955 86.333405 174.406454 85.776766 Q 174.383435 85.55704 174.358323 85.772581 Q 174.349953 85.847915 174.370879 85.929528 Q 174.393898 86.023696 174.349953 86.063456 Q 174.419009 85.586337 174.149061 85.209664 C 174.109301 85.153163 174.086282 85.088292 174.082097 85.021328 Q 174.048615 84.52119 173.812148 84.100572 Z" style="fill:#f5ddb0;"/>
		<path d="M 239.734059 48.695429 Q 239.715226 48.371072 239.568742 47.492169 C 239.198347 45.255152 240.137936 42.574497 241.129841 40.6723 C 241.904113 39.18235 242.795572 37.652641 243.410804 36.095727 Q 244.316911 33.798023 244.83379 31.364299 Q 244.957254 30.788827 245.110016 31.358021 Q 246.346758 35.928317 248.813965 40.370962 Q 249.383159 41.394256 250.02978 43.499438 Q 250.820793 46.064998 250.190913 48.601261 C 250.172079 48.676596 250.22858 48.749837 250.306007 48.75193 Q 253.403094 48.816801 256.5232 49.323217 C 258.184745 49.593166 260.137165 49.930079 261.315314 50.928261 C 261.486909 51.072653 261.505743 51.332138 261.355074 51.499548 C 260.875862 52.035261 259.750029 52.403563 259.067833 52.585621 C 255.631741 53.495914 251.816883 53.726103 247.935062 53.822363 Q 242.525623 53.956292 237.482394 53.577526 Q 234.994261 53.391282 232.250828 52.870219 C 231.250553 52.681882 229.29604 52.213134 228.645233 51.434677 C 228.525953 51.292378 228.538509 51.083116 228.672437 50.955466 C 229.540877 50.143527 231.116625 49.74802 232.28431 49.513646 Q 236.036389 48.758208 239.629428 48.806338 C 239.690114 48.808431 239.738245 48.756115 239.734059 48.695429 Z" style="fill:#693d2c;"/>
		<path d="M 216.734004 81.516179 C 219.801795 78.301905 223.851026 76.23439 228.253912 75.769827 Q 231.039197 75.47686 231.828118 75.365951 Q 235.195153 74.89511 238.296425 73.210545 Q 242.377046 70.992362 244.13276 66.788276 Q 244.249947 66.505771 244.331559 66.798739 Q 245.220925 69.969067 247.692317 72.076342 C 250.44412 74.417991 254.014141 75.244578 257.584161 75.48523 Q 260.434318 75.677752 261.281832 75.767735 C 268.735766 76.544099 275.890455 81.930519 277.072789 89.689977 Q 277.717318 93.927545 275.695841 97.895165 C 273.034021 103.122545 267.817103 106.801382 262.154457 108.09881 C 258.948553 108.835414 255.681964 108.668004 252.848548 106.991811 Q 249.586144 105.062409 249.799592 101.216162 Q 249.854 100.222165 249.835166 99.401855 C 249.759832 96.388474 247.840893 94.182846 244.771011 94.055195 Q 243.429637 93.998694 242.462844 94.323052 C 240.499961 94.984321 239.089531 96.65633 239.110457 98.748956 Q 239.123013 99.991976 239.179513 101.523778 C 239.359479 106.48121 234.065135 108.718227 229.940569 108.483853 C 221.701899 108.017198 213.061445 100.946214 212.460862 92.416669 C 212.18045 88.436494 214.011498 84.368429 216.734004 81.516179 Z" style="fill:#f5ddb0;"/>
	</g>
	<g id="surface4">
	</g>
</svg>
