<?xml version="1.0" encoding="utf-8"?>
<svg xmlns="http://www.w3.org/2000/svg" width="490pt" height="280pt" viewBox="0 0 490 280" version="1.1" xmlns:xlink="http://www.w3.org/1999/xlink">
	<g id="surface2">
		<path vector-effect="non-scaling-stroke" d="M 274.617262 57.478475 L 274.294545 61.846677" style="fill:none;stroke-width:0.50;stroke:#e28387;"/>
		<path vector-effect="non-scaling-stroke" d="M 274.294545 61.846677 Q 273.842166 63.627382 273.605891 64.333324 Q 271.387213 70.980713 265.32763 74.519072" style="fill:none;stroke-width:0.50;stroke:#e05827;"/>
		<path vector-effect="non-scaling-stroke" d="M 265.32763 74.519072 Q 262.235888 75.003147 257.942603 75.184675 Q 255.484769 75.291287 253.989323 75.15298" style="fill:none;stroke-width:0.50;stroke:#e28387;"/>
		<path vector-effect="non-scaling-stroke" d="M 253.989323 75.15298 C 249.451118 73.611431 245.83208 71.309193 243.431875 67.08218 Q 243.374247 66.978449 243.325263 67.085061 Q 242.849832 68.131009 242.129482 69.090515 Q 238.902314 73.398207 234.421738 75.285524" style="fill:none;stroke-width:0.50;stroke:#e05827;"/>
		<path vector-effect="non-scaling-stroke" d="M 234.421738 75.285524 Q 233.747491 75.23654 232.154077 75.193319 Q 229.929636 75.129929 223.653948 74.573819 Q 220.916618 74.331781 217.775893 73.591261" style="fill:none;stroke-width:0.50;stroke:#e28387;"/>
		<path vector-effect="non-scaling-stroke" d="M 217.775893 73.591261 C 214.004141 70.951899 211.690377 66.641325 211.134267 62.146342" style="fill:none;stroke-width:0.50;stroke:#e05827;"/>
		<path vector-effect="non-scaling-stroke" d="M 211.134267 62.146342 Q 210.874941 59.81529 211.111216 57.452542" style="fill:none;stroke-width:0.50;stroke:#e28387;"/>
		<path vector-effect="non-scaling-stroke" d="M 211.134267 62.146342 C 209.163389 62.722622 205.97368 64.07688 204.893155 66.099622 C 202.879057 69.856967 211.20342 72.173613 213.387521 72.695146 C 214.848391 73.043795 216.222818 73.490412 217.775893 73.591261" style="fill:none;stroke-width:0.50;stroke:#fdd59f;"/>
		<path vector-effect="non-scaling-stroke" d="M 234.421738 75.285524 Q 241.613711 75.588071 250.234859 75.487222 Q 252.272009 75.464171 253.989323 75.15298" style="fill:none;stroke-width:0.50;stroke:#fdd59f;"/>
		<path vector-effect="non-scaling-stroke" d="M 265.32763 74.519072 Q 271.871288 74.158897 277.991381 72.141917 Q 279.798019 71.545468 281.313635 70.597487 C 283.921301 68.960852 284.171983 66.704716 281.500926 64.869265 Q 278.221893 62.613129 274.294545 61.846677" style="fill:none;stroke-width:0.50;stroke:#fdd59f;"/>
		<path vector-effect="non-scaling-stroke" d="M 313.812941 120.166204 Q 313.556496 120.108576 313.54497 119.794503 Q 313.478698 117.817863 313.398019 116.959206 Q 312.654618 108.865355 311.427142 98.43757 C 311.173579 96.308216 310.813404 93.965638 309.346771 92.207984 C 308.851171 91.614416 307.834037 90.960338 307.174196 90.796098 C 303.756856 89.943204 303.500412 93.530546 303.586854 95.858717 Q 303.762619 100.575568 303.967198 110.130289 C 304.027708 112.991519 302.160561 116.16394 298.993903 115.798002 C 295.977077 115.449353 294.962825 112.907958 294.579598 110.216731 C 294.032133 106.381588 293.548057 102.635769 292.432956 99.371143 C 291.467687 96.541609 289.686982 95.063451 286.603884 95.293963 C 281.918729 95.648375 278.838513 99.238599 278.221893 103.724938 Q 277.979856 105.494117 277.976974 107.090413 Q 277.956804 121.10554 277.904939 124.306775 Q 277.870362 126.407315 277.539001 127.179531 Q 275.985927 130.792806 272.395703 130.870603 Q 270.638049 130.908062 269.171417 130.0811 C 266.19205 128.404125 265.647465 125.499675 265.241188 122.350305 Q 264.46321 116.319536 263.630486 111.827434 C 262.91878 107.986528 261.403164 103.644259 258.199047 101.099983 C 253.672369 97.506878 246.849215 98.00536 242.956444 102.347629 Q 241.028787 104.497153 240.213351 107.179736 Q 239.046384 111.023523 238.766889 115.380199 Q 238.144506 125.165432 238.060946 126.68393 Q 237.867892 130.242458 235.070053 132.253675 C 232.669847 133.979634 229.059454 133.593526 227.010778 131.50163 C 224.944815 129.392445 224.979392 127.225633 224.878543 124.015754 Q 224.578877 114.16713 224.411756 111.461496 C 224.074632 105.874462 222.783765 98.477909 216.63774 96.414827 Q 212.404964 94.991416 209.002031 97.184161 C 204.921969 99.811997 203.896191 105.496999 203.412116 110.055373 Q 203.406353 110.115882 202.366168 119.915522 Q 202.109723 122.307084 201.674632 123.28676 C 199.046796 129.173459 191.071082 127.427331 190.84057 121.096896 Q 190.670567 116.47225 190.846332 101.621516 C 190.898198 97.218738 188.382736 92.524938 184.115383 90.810505 C 180.839232 89.496587 179.902777 92.398156 179.519551 94.899211 Q 177.710032 106.747526 176.606456 119.356531 Q 176.600693 119.422803 176.563235 119.45738 Q 176.514251 119.494838 176.447979 119.494838" style="fill:none;stroke-width:0.50;stroke:#fdd59f;"/>
		<path vector-effect="non-scaling-stroke" d="M 239.371983 48.946651 Q 241.233367 50.537183 242.613557 52.574333 Q 242.694236 52.695352 242.708643 52.83654 Q 242.748983 53.237055 243.016953 53.528076 C 243.045767 53.559771 243.094751 53.548246 243.112039 53.507906 Q 244.011036 51.248889 245.186647 49.473947" style="fill:none;stroke-width:0.50;stroke:#e28387;"/>
		<path d="M 274.617262 57.478475 L 274.294545 61.846677 Q 273.842166 63.627382 273.605891 64.333324 Q 271.387213 70.980713 265.32763 74.519072 Q 262.235888 75.003147 257.942603 75.184675 Q 255.484769 75.291287 253.989323 75.15298 C 249.451118 73.611431 245.83208 71.309193 243.431875 67.08218 Q 243.374247 66.978449 243.325263 67.085061 Q 242.849832 68.131009 242.129482 69.090515 Q 238.902314 73.398207 234.421738 75.285524 Q 233.747491 75.23654 232.154077 75.193319 Q 229.929636 75.129929 223.653948 74.573819 Q 220.916618 74.331781 217.775893 73.591261 C 214.004141 70.951899 211.690377 66.641325 211.134267 62.146342 Q 210.874941 59.81529 211.111216 57.452542 Q 211.189013 56.824397 211.301388 56.170319 Q 211.805633 53.216885 212.946667 50.940579 Q 215.516876 45.817451 220.608309 43.892676 Q 223.72022 42.717065 227.40553 43.549789 C 228.889451 43.886913 230.096757 44.826249 231.289657 45.393885 C 231.453897 45.471683 231.64695 45.399648 231.721867 45.235408 Q 231.840004 44.973201 231.874581 44.734045 Q 232.597812 39.930751 233.640879 36.605616 Q 234.378517 34.257276 234.603266 33.519637 Q 235.398533 30.920615 237.153305 26.451564 Q 238.351967 23.403043 239.755209 20.688765 Q 240.063519 20.095197 239.590969 19.625529 Q 239.000282 19.037723 236.602958 17.427021 Q 236.000745 17.023625 235.384126 17.107185 Q 234.493773 17.231086 234.456315 17.228204 Q 233.897323 17.170576 233.557318 16.859385 Q 231.744918 15.205462 229.54641 13.684083 Q 228.321815 12.836951 229.168947 11.623882 Q 229.725057 10.834379 231.21474 9.122827 C 231.56339 8.719431 232.171365 8.673329 232.580524 9.016215 Q 234.211396 10.38488 235.980575 11.678629 C 237.320426 12.658304 236.205324 14.415958 237.614329 15.40716 Q 239.380627 16.651924 240.80692 17.986012 C 240.985566 18.153133 241.273706 18.10415 241.391844 17.888045 Q 243.636454 13.733066 247.431257 10.479966 Q 252.427604 6.201088 258.683123 5.786166 Q 261.388757 5.60752 264.019475 6.794656 C 268.237844 8.702143 268.917854 12.966614 268.304116 17.127355 C 268.162927 18.081098 267.802752 19.230777 267.817159 20.299776 Q 267.831566 21.31691 268.298353 22.967952 Q 268.491407 23.645081 268.370388 24.299159 C 268.355981 24.379838 268.281065 24.434585 268.200385 24.423059 Q 267.687496 24.348143 267.350372 24.091698 Q 263.872523 21.44081 262.15809 17.231086 C 261.362824 15.271734 261.282145 13.053056 260.334165 11.113874 C 259.628222 9.673174 258.9655 8.569598 257.308695 8.684854 C 251.179958 9.117064 246.503447 13.661031 243.210007 18.74382 C 242.855595 19.288405 242.959325 19.775361 243.408823 20.227741 Q 245.670722 22.48964 245.970388 22.86134 Q 249.154334 26.785807 250.589271 30.384675 Q 253.147954 36.804433 254.248649 43.587247 Q 254.346616 44.192341 254.565603 44.7254 C 254.68374 45.016422 255.023745 45.148966 255.309004 45.010659 C 256.069693 44.644721 256.876485 43.90132 257.784126 43.518094 Q 260.236197 42.483671 262.696912 42.875542 Q 271.25755 44.241325 273.899794 52.536875 Q 274.444378 54.245545 274.617262 57.478475 Z M 239.371983 48.946651 Q 241.233367 50.537183 242.613557 52.574333 Q 242.694236 52.695352 242.708643 52.83654 Q 242.748983 53.237055 243.016953 53.528076 C 243.045767 53.559771 243.094751 53.548246 243.112039 53.507906 Q 244.011036 51.248889 245.186647 49.473947 Q 246.543786 47.969856 248.315847 47.206285 Q 250.099433 46.436952 251.617931 46.030674 C 251.828273 45.973046 251.978106 45.791518 251.998276 45.575413 Q 252.044378 44.999133 251.972343 44.529465 Q 251.058939 38.69175 248.799922 32.776236 Q 246.785824 27.503275 242.786441 22.553031 Q 242.299485 21.950818 241.852868 21.72895 C 241.752019 21.677085 241.628118 21.714543 241.567609 21.809629 Q 241.126755 22.535742 240.772343 23.362704 Q 239.539104 26.235459 238.39807 29.237878 C 238.092641 30.041788 237.876536 31.007057 237.548057 31.891647 C 236.925674 33.559977 236.617365 34.680841 235.980575 36.6546 Q 234.580215 40.982462 234.064445 45.872197 Q 233.97224 46.756787 234.730048 47.024757 Q 237.107203 47.866126 239.371983 48.946651 Z" style="fill:#c5060f;"/>
		<path d="M 211.111216 57.452542 Q 210.874941 59.81529 211.134267 62.146342 C 209.163389 62.722622 205.97368 64.07688 204.893155 66.099622 C 202.879057 69.856967 211.20342 72.173613 213.387521 72.695146 C 214.848391 73.043795 216.222818 73.490412 217.775893 73.591261 Q 220.916618 74.331781 223.653948 74.573819 Q 229.929636 75.129929 232.154077 75.193319 Q 233.747491 75.23654 234.421738 75.285524 Q 241.613711 75.588071 250.234859 75.487222 Q 252.272009 75.464171 253.989323 75.15298 Q 255.484769 75.291287 257.942603 75.184675 Q 262.235888 75.003147 265.32763 74.519072 Q 271.871288 74.158897 277.991381 72.141917 Q 279.798019 71.545468 281.313635 70.597487 C 283.921301 68.960852 284.171983 66.704716 281.500926 64.869265 Q 278.221893 62.613129 274.294545 61.846677 L 274.617262 57.478475 Q 282.483483 58.605102 289.401723 61.296329 C 294.351968 63.221104 299.057293 66.785395 302.647517 70.609013 C 309.05575 77.432167 313.830229 85.661444 316.432133 94.648529 Q 318.829457 102.932553 319.572858 111.271324 Q 319.872524 114.659849 319.67947 116.45208 C 319.480654 118.278887 318.244533 120.396716 316.221791 120.535023 Q 315.103808 120.612821 313.812941 120.166204 Q 313.556496 120.108576 313.54497 119.794503 Q 313.478698 117.817863 313.398019 116.959206 Q 312.654618 108.865355 311.427142 98.43757 C 311.173579 96.308216 310.813404 93.965638 309.346771 92.207984 C 308.851171 91.614416 307.834037 90.960338 307.174196 90.796098 C 303.756856 89.943204 303.500412 93.530546 303.586854 95.858717 Q 303.762619 100.575568 303.967198 110.130289 C 304.027708 112.991519 302.160561 116.16394 298.993903 115.798002 C 295.977077 115.449353 294.962825 112.907958 294.579598 110.216731 C 294.032133 106.381588 293.548057 102.635769 292.432956 99.371143 C 291.467687 96.541609 289.686982 95.063451 286.603884 95.293963 C 281.918729 95.648375 278.838513 99.238599 278.221893 103.724938 Q 277.979856 105.494117 277.976974 107.090413 Q 277.956804 121.10554 277.904939 124.306775 Q 277.870362 126.407315 277.539001 127.179531 Q 275.985927 130.792806 272.395703 130.870603 Q 270.638049 130.908062 269.171417 130.0811 C 266.19205 128.404125 265.647465 125.499675 265.241188 122.350305 Q 264.46321 116.319536 263.630486 111.827434 C 262.91878 107.986528 261.403164 103.644259 258.199047 101.099983 C 253.672369 97.506878 246.849215 98.00536 242.956444 102.347629 Q 241.028787 104.497153 240.213351 107.179736 Q 239.046384 111.023523 238.766889 115.380199 Q 238.144506 125.165432 238.060946 126.68393 Q 237.867892 130.242458 235.070053 132.253675 C 232.669847 133.979634 229.059454 133.593526 227.010778 131.50163 C 224.944815 129.392445 224.979392 127.225633 224.878543 124.015754 Q 224.578877 114.16713 224.411756 111.461496 C 224.074632 105.874462 222.783765 98.477909 216.63774 96.414827 Q 212.404964 94.991416 209.002031 97.184161 C 204.921969 99.811997 203.896191 105.496999 203.412116 110.055373 Q 203.406353 110.115882 202.366168 119.915522 Q 202.109723 122.307084 201.674632 123.28676 C 199.046796 129.173459 191.071082 127.427331 190.84057 121.096896 Q 190.670567 116.47225 190.846332 101.621516 C 190.898198 97.218738 188.382736 92.524938 184.115383 90.810505 C 180.839232 89.496587 179.902777 92.398156 179.519551 94.899211 Q 177.710032 106.747526 176.606456 119.356531 Q 176.600693 119.422803 176.563235 119.45738 Q 176.514251 119.494838 176.447979 119.494838 Q 176.419165 119.422803 176.324078 119.448735 C 175.027449 119.814673 173.379288 119.935692 172.22961 119.27297 C 169.662283 117.789049 169.930253 113.887634 170.100255 111.072507 Q 170.650603 101.996098 173.027757 92.985962 C 175.949497 81.90698 181.781449 72.193782 190.748365 65.036386 C 195.776407 61.025478 201.997349 59.043075 208.529482 57.853057 C 209.221017 57.729157 210.23527 57.65424 211.111216 57.452542 Z" style="fill:#ffffff;"/>
		<path d="M 274.294545 61.846677 Q 278.221893 62.613129 281.500926 64.869265 C 284.171983 66.704716 283.921301 68.960852 281.313635 70.597487 Q 279.798019 71.545468 277.991381 72.141917 Q 271.871288 74.158897 265.32763 74.519072 Q 271.387213 70.980713 273.605891 64.333324 Q 273.842166 63.627382 274.294545 61.846677 Z" style="fill:#fbaa3f;"/>
		<path d="M 211.134267 62.146342 C 211.690377 66.641325 214.004141 70.951899 217.775893 73.591261 C 216.222818 73.490412 214.848391 73.043795 213.387521 72.695146 C 211.20342 72.173613 202.879057 69.856967 204.893155 66.099622 C 205.97368 64.07688 209.163389 62.722622 211.134267 62.146342 Z" style="fill:#fbaa3f;"/>
		<path d="M 253.989323 75.15298 Q 252.272009 75.464171 250.234859 75.487222 Q 241.613711 75.588071 234.421738 75.285524 Q 238.902314 73.398207 242.129482 69.090515 Q 242.849832 68.131009 243.325263 67.085061 Q 243.374247 66.978449 243.431875 67.08218 C 245.83208 71.309193 249.451118 73.611431 253.989323 75.15298 Z" style="fill:#fbaa3f;"/>
		<path d="M 313.812941 120.166204 Q 314.645665 129.334817 314.804142 132.446729 C 315.126859 138.736824 306.661307 143.194349 301.826318 145.081666 Q 294.838924 147.816114 287.15135 149.472919 Q 269.142603 153.359927 250.8947 153.699932 Q 241.492693 153.872816 234.701234 153.570269 Q 224.691252 153.126534 214.836865 151.743462 Q 208.126086 150.804126 201.887856 149.337493 C 194.34147 147.55967 186.688473 145.098955 180.885334 140.958383 Q 178.669538 139.379376 177.21155 137.45172 C 175.811189 135.601862 175.56627 134.143873 175.667119 131.602479 Q 175.845766 127.176649 176.208823 122.739294 C 176.275095 121.906569 176.211704 120.575363 176.447979 119.494838 Q 176.514251 119.494838 176.563235 119.45738 Q 176.600693 119.422803 176.606456 119.356531 Q 177.710032 106.747526 179.519551 94.899211 C 179.902777 92.398156 180.839232 89.496587 184.115383 90.810505 C 188.382736 92.524938 190.898198 97.218738 190.846332 101.621516 Q 190.670567 116.47225 190.84057 121.096896 C 191.071082 127.427331 199.046796 129.173459 201.674632 123.28676 Q 202.109723 122.307084 202.366168 119.915522 Q 203.406353 110.115882 203.412116 110.055373 C 203.896191 105.496999 204.921969 99.811997 209.002031 97.184161 Q 212.404964 94.991416 216.63774 96.414827 C 222.783765 98.477909 224.074632 105.874462 224.411756 111.461496 Q 224.578877 114.16713 224.878543 124.015754 C 224.979392 127.225633 224.944815 129.392445 227.010778 131.50163 C 229.059454 133.593526 232.669847 133.979634 235.070053 132.253675 Q 237.867892 130.242458 238.060946 126.68393 Q 238.144506 125.165432 238.766889 115.380199 Q 239.046384 111.023523 240.213351 107.179736 Q 241.028787 104.497153 242.956444 102.347629 C 246.849215 98.00536 253.672369 97.506878 258.199047 101.099983 C 261.403164 103.644259 262.91878 107.986528 263.630486 111.827434 Q 264.46321 116.319536 265.241188 122.350305 C 265.647465 125.499675 266.19205 128.404125 269.171417 130.0811 Q 270.638049 130.908062 272.395703 130.870603 Q 275.985927 130.792806 277.539001 127.179531 Q 277.870362 126.407315 277.904939 124.306775 Q 277.956804 121.10554 277.976974 107.090413 Q 277.979856 105.494117 278.221893 103.724938 C 278.838513 99.238599 281.918729 95.648375 286.603884 95.293963 C 289.686982 95.063451 291.467687 96.541609 292.432956 99.371143 C 293.548057 102.635769 294.032133 106.381588 294.579598 110.216731 C 294.962825 112.907958 295.977077 115.449353 298.993903 115.798002 C 302.160561 116.16394 304.027708 112.991519 303.967198 110.130289 Q 303.762619 100.575568 303.586854 95.858717 C 303.500412 93.530546 303.756856 89.943204 307.174196 90.796098 C 307.834037 90.960338 308.851171 91.614416 309.346771 92.207984 C 310.813404 93.965638 311.173579 96.308216 311.427142 98.43757 Q 312.654618 108.865355 313.398019 116.959206 Q 313.478698 117.817863 313.54497 119.794503 Q 313.556496 120.108576 313.812941 120.166204 Z" style="fill:#fbaa3f;"/>
		<path d="M 245.186647 49.473947 Q 244.011036 51.248889 243.112039 53.507906 C 243.094751 53.548246 243.045767 53.559771 243.016953 53.528076 Q 242.748983 53.237055 242.708643 52.83654 Q 242.694236 52.695352 242.613557 52.574333 Q 241.233367 50.537183 239.371983 48.946651 Q 240.270979 49.39903 240.942345 49.468184 Q 242.795085 49.658356 245.186647 49.473947 Z" style="fill:#ffffff;"/>
	</g>
	<g id="surface4">
	</g>
</svg>
