<?xml version="1.0" encoding="utf-8"?>
<svg xmlns="http://www.w3.org/2000/svg" width="490pt" height="280pt" viewBox="0 0 490 280" version="1.1" xmlns:xlink="http://www.w3.org/1999/xlink">
	<g id="surface2">
		<path vector-effect="non-scaling-stroke" d="M 298.246823 104.099131 Q 296.672261 102.08087 295.241048 99.946565 Q 293.700617 97.652984 292.961119 96.836123 C 288.335274 91.727898 282.285043 89.229533 275.440705 89.3342 Q 262.457396 89.532158 254.60279 100.124045 Q 253.770001 101.245806 252.045264 104.474568" style="fill:none;stroke-width:0.50;stroke:#829756;"/>
		<path vector-effect="non-scaling-stroke" d="M 252.045264 104.474568 Q 251.835929 103.921651 251.701682 103.391488 Q 251.499173 102.581453 251.403608 102.297031 Q 250.006525 98.126262 248.247658 94.139799" style="fill:none;stroke-width:0.50;stroke:#f27e16;"/>
		<path vector-effect="non-scaling-stroke" d="M 248.247658 94.139799 Q 251.401332 89.30007 253.19433 84.030293" style="fill:none;stroke-width:0.50;stroke:#838c43;"/>
		<path vector-effect="non-scaling-stroke" d="M 253.19433 84.030293 Q 254.953198 79.784437 256.136395 75.447566 Q 256.605123 73.731931 257.073851 72.023121" style="fill:none;stroke-width:0.50;stroke:#82ad67;"/>
		<path vector-effect="non-scaling-stroke" d="M 257.073851 72.023121 Q 257.139837 71.979889 257.167141 71.870671" style="fill:none;stroke-width:0.50;stroke:#838c43;"/>
		<path vector-effect="non-scaling-stroke" d="M 248.247658 94.139799 Q 245.974555 88.560572 242.670705 83.582044 Q 239.596669 78.949373 236.028876 74.917403" style="fill:none;stroke-width:0.50;stroke:#7a4550;"/>
		<path vector-effect="non-scaling-stroke" d="M 252.045264 104.474568 Q 253.107866 109.259689 253.337679 110.517973 Q 254.445789 116.590958 254.131786 121.913068 Q 253.417317 134.034009 247.637856 145.324437 C 246.299934 147.938846 244.934707 150.532778 243.080273 152.521458" style="fill:none;stroke-width:0.50;stroke:#7a5063;"/>
		<path vector-effect="non-scaling-stroke" d="M 214.10788 147.554307 C 221.35041 142.411952 227.207234 136.514171 232.1175 129.22841 Q 234.254081 126.061083 235.72625 123.45805 Q 238.338385 118.843583 240.702503 113.412255 Q 241.353261 111.924157 241.580799 110.572582" style="fill:none;stroke-width:0.50;stroke:#ef5f17;"/>
		<path vector-effect="non-scaling-stroke" d="M 241.580799 110.572582 L 242.213354 109.343878 Q 242.30892 109.161848 242.12689 109.257414 Q 240.05402 110.338218 237.73996 111.134601 Q 232.720476 112.861613 227.51441 113.742184" style="fill:none;stroke-width:0.50;stroke:#f27e16;"/>
		<path vector-effect="non-scaling-stroke" d="M 262.562063 26.112811 Q 261.51994 29.828504 263.672448 32.777395 Q 265.679332 35.526052 266.268655 36.427102" style="fill:none;stroke-width:0.50;stroke:#054b63;"/>
		<path vector-effect="non-scaling-stroke" d="M 257.119358 71.761453 Q 257.0693 71.86157 257.073851 72.023121" style="fill:none;stroke-width:0.50;stroke:#0a74a0;"/>
		<path vector-effect="non-scaling-stroke" d="M 253.19433 84.030293 Q 253.04188 82.790212 253.135171 80.508007 C 253.355882 75.126738 251.308042 69.961629 247.444449 66.15037 Q 243.988149 62.737302 239.526132 60.584794 C 232.681794 57.280945 225.450642 55.553933 217.944168 54.66881 Q 215.975966 54.438997 212.298954 54.002124 Q 210.49913 53.790514 208.355724 52.878088" style="fill:none;stroke-width:0.50;stroke:#0a74a0;"/>
		<path vector-effect="non-scaling-stroke" d="M 298.943089 105.057065 Q 298.888479 105.762432 298.736029 106.069608 C 297.131887 109.273341 295.138656 112.479349 297.009017 116.158636" style="fill:none;stroke-width:0.50;stroke:#063552;"/>
		<path vector-effect="non-scaling-stroke" d="M 207.4615 52.093082 Q 207.195281 51.963385 207.634429 52.407084 Q 207.871068 52.645999 208.355724 52.878088" style="fill:none;stroke-width:0.50;stroke:#7d7170;"/>
		<path vector-effect="non-scaling-stroke" d="M 208.355724 52.878088 Q 208.703857 53.173887 209.001931 53.446932 Q 209.368267 53.788239 209.670892 54.006675 Q 215.400295 58.163792 221.159278 62.279951 C 226.501866 66.098036 231.548656 70.127731 236.028876 74.917403" style="fill:none;stroke-width:0.50;stroke:#7e514c;"/>
		<path vector-effect="non-scaling-stroke" d="M 236.028876 74.917403 Q 233.580569 76.37592 227.234538 80.032453 C 216.424215 86.260164 206.068968 93.425331 196.94015 102.467684 Q 194.553278 104.829527 193.397386 105.908057" style="fill:none;stroke-width:0.50;stroke:#ed431f;"/>
		<path vector-effect="non-scaling-stroke" d="M 241.580799 110.572582 Q 240.961896 111.239268 240.720706 111.669315 Q 239.214405 114.333783 237.542002 116.966396 C 231.500873 126.468376 222.249184 133.46744 211.639095 137.240017 Q 207.370485 138.755419 206.164534 139.007986 Q 204.237289 139.408453 202.316869 140.022805" style="fill:none;stroke-width:0.50;stroke:#f8a60a;"/>
		<path vector-effect="non-scaling-stroke" d="M 256.828269 31.80078 C 256.634703 29.871737 254.855357 28.470103 252.850179 28.669495 C 250.84614 28.87057 249.376245 30.595307 249.569493 32.525306 C 249.76306 34.454349 251.542406 35.855982 253.547583 35.65659 C 255.551622 35.455515 257.021517 33.730778 256.828269 31.80078" style="fill:none;stroke-width:0.50;stroke:#054b63;"/>
		<path vector-effect="non-scaling-stroke" d="M 291.017968 107.979447 C 290.913278 105.769258 288.999685 104.065 286.74499 104.171829 C 284.489885 104.278886 282.74467 106.156073 282.849314 108.364669 C 282.954005 110.574858 284.867598 112.279116 287.122293 112.172287 C 289.377398 112.065231 291.122613 110.188043 291.017968 107.979447" style="fill:none;stroke-width:0.50;stroke:#063552;"/>
		<path d="M 298.246823 104.099131 Q 296.672261 102.08087 295.241048 99.946565 Q 293.700617 97.652984 292.961119 96.836123 C 288.335274 91.727898 282.285043 89.229533 275.440705 89.3342 Q 262.457396 89.532158 254.60279 100.124045 Q 253.770001 101.245806 252.045264 104.474568 Q 251.835929 103.921651 251.701682 103.391488 Q 251.499173 102.581453 251.403608 102.297031 Q 250.006525 98.126262 248.247658 94.139799 Q 251.401332 89.30007 253.19433 84.030293 Q 254.953198 79.784437 256.136395 75.447566 Q 256.605123 73.731931 257.073851 72.023121 Q 257.139837 71.979889 257.167141 71.870671 C 257.813349 70.883157 258.734877 69.943426 259.397012 69.144768 C 260.680325 67.595235 262.223032 66.30282 263.747535 65.001304 Q 265.051327 63.884093 266.318713 62.923883 C 274.956049 56.37762 284.371565 50.482114 292.21707 43.248686 Q 300.63597 35.48737 306.531476 25.987666 C 307.503062 24.422205 308.294894 22.990992 309.250553 21.277632 Q 313.020855 14.512932 315.132406 6.970053 Q 315.653468 5.111069 315.821846 4.624138 C 315.851425 4.535398 315.97202 4.524021 316.017528 4.603659 Q 316.304226 5.097416 316.372487 5.643507 Q 316.693315 8.24654 317.523829 12.517425 Q 318.092673 15.434461 320.854983 28.26987 Q 321.580828 31.651082 322.238413 35.869634 Q 322.684387 38.73206 322.809533 40.101838 Q 322.961983 41.758313 323.150839 44.347694 Q 323.60364 50.568578 322.991563 57.18993 Q 322.773127 59.542671 322.399964 61.69973 Q 320.431762 73.06752 315.332639 83.543362 Q 312.076573 90.23525 307.184509 95.928247 Q 305.612223 97.759926 302.868116 100.48583 Q 300.761116 102.579178 298.246823 104.099131 Z" style="fill:#fac509;"/>
		<path d="M 207.4615 52.093082 Q 207.195281 51.963385 207.634429 52.407084 Q 207.871068 52.645999 208.355724 52.878088 Q 208.703857 53.173887 209.001931 53.446932 Q 209.368267 53.788239 209.670892 54.006675 Q 215.400295 58.163792 221.159278 62.279951 C 226.501866 66.098036 231.548656 70.127731 236.028876 74.917403 Q 233.580569 76.37592 227.234538 80.032453 C 216.424215 86.260164 206.068968 93.425331 196.94015 102.467684 Q 194.553278 104.829527 193.397386 105.908057 Q 185.438112 100.030754 179.915769 92.355903 Q 177.171663 88.540093 174.634616 83.279418 Q 171.546927 76.871953 169.731175 69.993484 Q 168.16344 64.066123 167.810756 61.137711 Q 167.364782 57.447047 167.276042 56.404924 Q 166.937011 52.50265 167.014373 48.484332 Q 167.039403 47.123656 167.100838 46.131591 Q 167.225984 44.099678 167.239636 43.778849 C 167.307897 42.258897 167.583218 40.89822 167.703813 39.341861 Q 167.869916 37.246238 168.329542 34.545364 C 168.882459 31.309776 169.512739 27.88078 170.133917 25.066137 Q 171.810871 17.464098 172.64821 13.655115 C 173.121489 11.49123 173.619797 8.653833 173.842784 7.07472 Q 173.961104 6.223729 174.382049 4.717428 Q 174.470788 4.401151 174.591384 4.706051 C 174.825747 5.295374 174.871255 6.048525 175.028256 6.62192 Q 177.42423 15.413982 181.538114 22.779382 Q 187.793129 33.976519 197.354269 43.237309 Q 202.259985 47.990575 207.4615 52.093082 Z" style="fill:#f14e1b;"/>
		<path d="M 262.562063 26.112811 Q 261.51994 29.828504 263.672448 32.777395 Q 265.679332 35.526052 266.268655 36.427102 Q 264.150277 38.595537 263.02624 40.850437 C 259.788377 47.348918 259.522158 53.785964 258.732601 61.965949 Q 258.341236 66.022949 257.119358 71.761453 Q 257.0693 71.86157 257.073851 72.023121 Q 256.605123 73.731931 256.136395 75.447566 Q 254.953198 79.784437 253.19433 84.030293 Q 253.04188 82.790212 253.135171 80.508007 C 253.355882 75.126738 251.308042 69.961629 247.444449 66.15037 Q 243.988149 62.737302 239.526132 60.584794 C 232.681794 57.280945 225.450642 55.553933 217.944168 54.66881 Q 215.975966 54.438997 212.298954 54.002124 Q 210.49913 53.790514 208.355724 52.878088 Q 207.871068 52.645999 207.634429 52.407084 Q 207.195281 51.963385 207.4615 52.093082 Q 214.597087 52.338823 220.57223 47.929139 Q 225.548483 44.256679 227.33693 38.513624 Q 228.615693 34.413392 229.104899 32.875236 Q 230.228936 29.332472 232.977593 26.390408 Q 237.762714 21.268531 244.782256 20.137668 Q 245.892641 19.957913 248.495674 20.019348 C 251.767668 20.094436 254.234178 21.193443 257.078401 22.818063 Q 258.377642 23.562112 262.562063 26.112811 Z M 256.828269 31.80078 C 256.634703 29.871737 254.855357 28.470103 252.850179 28.669495 C 250.84614 28.87057 249.376245 30.595307 249.569493 32.525306 C 249.76306 34.454349 251.542406 35.855982 253.547583 35.65659 C 255.551622 35.455515 257.021517 33.730778 256.828269 31.80078 Z" style="fill:#0994c4;"/>
		<path d="M 266.268655 36.427102 Q 265.679332 35.526052 263.672448 32.777395 Q 261.51994 29.828504 262.562063 26.112811 Q 264.450627 26.292566 266.264104 26.055927 C 267.269821 25.923955 268.059377 25.978564 268.867137 25.857969 C 270.186856 25.662286 271.408734 25.839766 272.88318 25.616779 Q 273.968535 25.450676 275.440705 25.475705 C 275.836621 25.482532 276.414567 25.323255 276.88557 25.305052 Q 279.509082 25.198109 282.50803 24.947818 C 283.01544 24.904585 283.511472 24.715729 283.939243 24.633815 C 284.112172 24.60196 284.248695 24.77944 284.171332 24.938716 Q 284.005229 25.282298 283.584284 25.459778 Q 282.983584 25.712345 282.421566 26.090058 Q 281.600154 26.640699 281.581951 26.652076 Q 275.169935 30.570278 267.879623 35.296239 Q 266.944442 35.901489 266.268655 36.427102 Z" style="fill:#010101;"/>
		<path d="M 253.19433 84.030293 Q 251.401332 89.30007 248.247658 94.139799 Q 245.974555 88.560572 242.670705 83.582044 Q 239.596669 78.949373 236.028876 74.917403 C 231.548656 70.127731 226.501866 66.098036 221.159278 62.279951 Q 215.400295 58.163792 209.670892 54.006675 Q 209.368267 53.788239 209.001931 53.446932 Q 208.703857 53.173887 208.355724 52.878088 Q 210.49913 53.790514 212.298954 54.002124 Q 215.975966 54.438997 217.944168 54.66881 C 225.450642 55.553933 232.681794 57.280945 239.526132 60.584794 Q 243.988149 62.737302 247.444449 66.15037 C 251.308042 69.961629 253.355882 75.126738 253.135171 80.508007 Q 253.04188 82.790212 253.19433 84.030293 Z" style="fill:#0b537c;"/>
		<path d="M 257.119358 71.761453 Q 257.105706 71.809236 257.167141 71.870671 Q 257.139837 71.979889 257.073851 72.023121 Q 257.0693 71.86157 257.119358 71.761453 Z" style="fill:#0b537c;"/>
		<path d="M 248.247658 94.139799 Q 250.006525 98.126262 251.403608 102.297031 Q 251.499173 102.581453 251.701682 103.391488 Q 251.835929 103.921651 252.045264 104.474568 Q 253.107866 109.259689 253.337679 110.517973 Q 254.445789 116.590958 254.131786 121.913068 Q 253.417317 134.034009 247.637856 145.324437 C 246.299934 147.938846 244.934707 150.532778 243.080273 152.521458 Q 232.474735 152.753547 222.952276 150.621518 Q 218.867972 149.706815 214.10788 147.554307 C 221.35041 142.411952 227.207234 136.514171 232.1175 129.22841 Q 234.254081 126.061083 235.72625 123.45805 Q 238.338385 118.843583 240.702503 113.412255 Q 241.353261 111.924157 241.580799 110.572582 L 242.213354 109.343878 Q 242.30892 109.161848 242.12689 109.257414 Q 240.05402 110.338218 237.73996 111.134601 Q 232.720476 112.861613 227.51441 113.742184 Q 225.710035 113.862779 223.928413 114.022056 Q 221.527889 114.233666 220.344692 114.245043 Q 215.996444 114.286 211.903039 113.605662 C 205.106483 112.479349 198.906077 110.065173 193.397386 105.908057 Q 194.553278 104.829527 196.94015 102.467684 C 206.068968 93.425331 216.424215 86.260164 227.234538 80.032453 Q 233.580569 76.37592 236.028876 74.917403 Q 239.596669 78.949373 242.670705 83.582044 Q 245.974555 88.560572 248.247658 94.139799 Z" style="fill:#e93723;"/>
		<path d="M 298.246823 104.099131 L 298.943089 105.057065 Q 298.888479 105.762432 298.736029 106.069608 C 297.131887 109.273341 295.138656 112.479349 297.009017 116.158636 Q 293.880372 117.157527 291.304643 119.021062 C 288.191926 121.273687 285.805054 124.204374 283.918765 127.437687 Q 282.326 130.165866 280.835627 132.666507 C 276.751323 139.51312 270.762527 145.636163 263.731608 149.110666 C 260.052321 150.928694 255.999872 151.961715 251.788147 152.293921 Q 247.451275 152.637503 243.080273 152.521458 C 244.934707 150.532778 246.299934 147.938846 247.637856 145.324437 Q 253.417317 134.034009 254.131786 121.913068 Q 254.445789 116.590958 253.337679 110.517973 Q 253.107866 109.259689 252.045264 104.474568 Q 253.770001 101.245806 254.60279 100.124045 Q 262.457396 89.532158 275.440705 89.3342 C 282.285043 89.229533 288.335274 91.727898 292.961119 96.836123 Q 293.700617 97.652984 295.241048 99.946565 Q 296.672261 102.08087 298.246823 104.099131 Z M 291.017968 107.979447 C 290.913278 105.769258 288.999685 104.065 286.74499 104.171829 C 284.489885 104.278886 282.74467 106.156073 282.849314 108.364669 C 282.954005 110.574858 284.867598 112.279116 287.122293 112.172287 C 289.377398 112.065231 291.122613 110.188043 291.017968 107.979447 Z" style="fill:#0a69a3;"/>
		<path d="M 297.009017 116.158636 C 295.138656 112.479349 297.131887 109.273341 298.736029 106.069608 Q 298.888479 105.762432 298.943089 105.057065 Q 300.879436 105.967216 302.868116 106.811382 Q 303.150263 106.929701 303.439236 107.036644 Q 303.787369 107.168616 304.78171 107.632793 C 305.867065 108.142478 306.756738 108.463306 307.914906 109.011673 C 308.397286 109.241486 309.009363 109.398487 309.418931 109.641953 Q 309.782991 109.858113 310.249444 110.033318 C 310.995768 110.313189 311.466771 110.61809 312.019688 110.841077 Q 312.492967 111.032209 312.502068 111.036759 Q 314.10621 111.780808 318.176862 113.648894 Q 319.478379 114.247318 320.804924 114.784308 Q 321.150782 114.925381 321.305507 115.257586 C 321.35329 115.362254 321.273652 115.480573 321.159883 115.473747 C 320.759417 115.455544 320.429487 115.366805 319.96531 115.36908 C 316.59775 115.382732 311.744367 115.387283 307.52354 115.512429 Q 303.923892 115.621647 299.844138 115.648951 Q 298.904407 115.653502 297.009017 116.158636 Z" style="fill:#010101;"/>
		<path d="M 241.580799 110.572582 Q 240.961896 111.239268 240.720706 111.669315 Q 239.214405 114.333783 237.542002 116.966396 C 231.500873 126.468376 222.249184 133.46744 211.639095 137.240017 Q 207.370485 138.755419 206.164534 139.007986 Q 204.237289 139.408453 202.316869 140.022805 Q 199.800301 137.777006 198.143825 135.735992 Q 190.000246 125.708399 186.184436 113.526023 Q 186.052465 113.111905 186.111624 112.78425 C 186.14348 112.609046 186.277727 112.470248 186.452931 112.433842 Q 186.757832 112.370131 187.237937 112.470248 C 188.553105 112.752395 189.834143 113.157412 191.042369 113.394051 Q 196.444118 114.458929 200.51932 114.993643 Q 204.310101 115.49195 209.570776 115.671705 Q 211.739211 115.746793 214.121532 115.601169 Q 220.233199 115.228006 222.485823 114.948135 Q 224.469953 114.702394 227.51441 113.742184 Q 232.720476 112.861613 237.73996 111.134601 Q 240.05402 110.338218 242.12689 109.257414 Q 242.30892 109.161848 242.213354 109.343878 L 241.580799 110.572582 Z" style="fill:#fac509;"/>
		<path d="M 241.580799 110.572582 Q 241.353261 111.924157 240.702503 113.412255 Q 238.338385 118.843583 235.72625 123.45805 Q 234.254081 126.061083 232.1175 129.22841 C 227.207234 136.514171 221.35041 142.411952 214.10788 147.554307 Q 207.714067 144.630446 202.316869 140.022805 Q 204.237289 139.408453 206.164534 139.007986 Q 207.370485 138.755419 211.639095 137.240017 C 222.249184 133.46744 231.500873 126.468376 237.542002 116.966396 Q 239.214405 114.333783 240.720706 111.669315 Q 240.961896 111.239268 241.580799 110.572582 Z" style="fill:#f5870b;"/>
		<path d="M 256.828269 31.80078 C 257.021517 33.730778 255.551622 35.455515 253.547583 35.65659 C 251.542406 35.855982 249.76306 34.454349 249.569493 32.525306 C 249.376245 30.595307 250.84614 28.87057 252.850179 28.669495 C 254.855357 28.470103 256.634703 29.871737 256.828269 31.80078 Z" style="fill:#010101;"/>
		<path d="M 291.017968 107.979447 C 291.122613 110.188043 289.377398 112.065231 287.122293 112.172287 C 284.867598 112.279116 282.954005 110.574858 282.849314 108.364669 C 282.74467 106.156073 284.489885 104.278886 286.74499 104.171829 C 288.999685 104.065 290.913278 105.769258 291.017968 107.979447 Z" style="fill:#010101;"/>
	</g>
	<g id="surface4">
	</g>
</svg>
