<?xml version="1.0" encoding="utf-8"?>
<svg xmlns="http://www.w3.org/2000/svg" width="490pt" height="280pt" viewBox="0 0 490 280" version="1.1" xmlns:xlink="http://www.w3.org/1999/xlink">
	<g id="surface2">
		<path vector-effect="non-scaling-stroke" d="M 278.301502 6.310759 Q 278.292079 6.458371 278.138186 6.461512 Q 271.655794 6.593421 265.163981 6.417542" style="fill:none;stroke-width:0.50;stroke:#152229;"/>
		<path vector-effect="non-scaling-stroke" d="M 296.665136 6.36101 Q 302.745518 6.681361 308.797634 6.430105" style="fill:none;stroke-width:0.50;stroke:#0e171c;"/>
		<path vector-effect="non-scaling-stroke" d="M 343.916868 12.802572 Q 344.240359 13.301942 344.805684 13.47468" style="fill:none;stroke-width:0.50;stroke:#0e171c;"/>
		<path vector-effect="non-scaling-stroke" d="M 345.411838 13.967769 L 347.4156 15.899296" style="fill:none;stroke-width:0.50;stroke:#213238;"/>
		<path vector-effect="non-scaling-stroke" d="M 352.66998 24.517358 Q 352.720231 25.20203 353.106536 25.801902" style="fill:none;stroke-width:0.50;stroke:#0e171c;"/>
		<path vector-effect="non-scaling-stroke" d="M 353.555656 27.256043 Q 353.430028 27.683177 353.731534 27.925011" style="fill:none;stroke-width:0.50;stroke:#0e171c;"/>
		<path vector-effect="non-scaling-stroke" d="M 353.894851 28.430662 Q 353.788067 28.713325 354.070729 29.058801" style="fill:none;stroke-width:0.50;stroke:#152229;"/>
		<path vector-effect="non-scaling-stroke" d="M 358.970211 56.4111 Q 358.87285 56.825671 359.076995 56.891626" style="fill:none;stroke-width:0.50;stroke:#152229;"/>
		<path vector-effect="non-scaling-stroke" d="M 359.299984 58.923654 Q 359.164934 59.498401 359.394205 59.875284" style="fill:none;stroke-width:0.50;stroke:#152229;"/>
		<path vector-effect="non-scaling-stroke" d="M 359.620335 61.819374 Q 359.406767 62.34701 359.701993 62.862084" style="fill:none;stroke-width:0.50;stroke:#152229;"/>
		<path vector-effect="non-scaling-stroke" d="M 359.91556 64.812454 Q 359.786791 65.343232 360.022343 65.892853" style="fill:none;stroke-width:0.50;stroke:#213238;"/>
		<path vector-effect="non-scaling-stroke" d="M 360.239051 67.874631 Q 360.078876 68.408548 360.32385 68.678648" style="fill:none;stroke-width:0.50;stroke:#213238;"/>
		<path vector-effect="non-scaling-stroke" d="M 360.562543 70.936807 Q 360.446337 71.549242 360.644201 72.098863" style="fill:none;stroke-width:0.50;stroke:#213238;"/>
		<path vector-effect="non-scaling-stroke" d="M 360.892315 74.746468 Q 360.64106 75.082522 360.961411 75.352621" style="fill:none;stroke-width:0.50;stroke:#0e171c;"/>
		<path vector-effect="non-scaling-stroke" d="M 361.168696 77.494574 Q 360.961411 78.031633 361.272339 78.571832" style="fill:none;stroke-width:0.50;stroke:#0e171c;"/>
		<path vector-effect="non-scaling-stroke" d="M 361.498469 80.792302 Q 361.250354 81.4173 361.576987 81.725088" style="fill:none;stroke-width:0.50;stroke:#152229;"/>
		<path vector-effect="non-scaling-stroke" d="M 361.793694 83.873323 Q 361.624097 84.564275 361.894197 85.157866" style="fill:none;stroke-width:0.50;stroke:#152229;"/>
		<path vector-effect="non-scaling-stroke" d="M 362.735902 94.941126 Q 362.563164 95.572405 362.848967 96.005821" style="fill:none;stroke-width:0.50;stroke:#0e171c;"/>
		<path vector-effect="non-scaling-stroke" d="M 363.049972 98.468125 Q 362.845827 99.240735 363.141052 99.915984" style="fill:none;stroke-width:0.50;stroke:#0e171c;"/>
		<path vector-effect="non-scaling-stroke" d="M 364.004743 112.868204 Q 363.81002 113.584282 364.124089 114.064808" style="fill:none;stroke-width:0.50;stroke:#152229;"/>
		<path vector-effect="non-scaling-stroke" d="M 364.31253 121.583628 L 364.246576 122.108124" style="fill:none;stroke-width:0.50;stroke:#213238;"/>
		<path vector-effect="non-scaling-stroke" d="M 364.246576 122.108124 L 364.281124 125.26138" style="fill:none;stroke-width:0.50;stroke:#152229;"/>
		<path vector-effect="non-scaling-stroke" d="M 363.386026 131.37631 Q 363.244695 131.370029 363.228991 131.542767 Q 363.219569 131.636987 363.304368 131.633847" style="fill:none;stroke-width:0.50;stroke:#152229;"/>
		<path vector-effect="non-scaling-stroke" d="M 363.254117 131.712364 L 362.644822 133.405198" style="fill:none;stroke-width:0.50;stroke:#152229;"/>
		<path vector-effect="non-scaling-stroke" d="M 361.77485 135.377553 Q 361.482766 135.518885 361.470203 136.030818" style="fill:none;stroke-width:0.50;stroke:#152229;"/>
		<path vector-effect="non-scaling-stroke" d="M 359.007899 139.476158 Q 356.489063 142.522631 353.420606 144.171495 Q 351.58016 145.160813 348.351527 146.401387" style="fill:none;stroke-width:0.50;stroke:#0e171c;"/>
		<path vector-effect="non-scaling-stroke" d="M 348.351527 146.401387 Q 344.485333 146.929024 341.501674 146.925883 Q 301.979189 146.872491 252.582363 146.853647 C 248.722451 146.853647 245.566054 146.941586 242.051619 146.988697 Q 241.279008 146.998119 239.645847 146.828521 Q 238.395851 146.696612 237.224373 146.709175" style="fill:none;stroke-width:0.50;stroke:#152229;"/>
		<path vector-effect="non-scaling-stroke" d="M 237.224373 146.709175 Q 236.382667 146.376262 233.17916 145.32727 Q 228.83244 143.901395 225.085593 140.076031 Q 224.941121 139.931559 224.730695 139.805931" style="fill:none;stroke-width:0.50;stroke:#0e171c;"/>
		<path vector-effect="non-scaling-stroke" d="M 219.18423 126.046553 L 219.250185 115.302241" style="fill:none;stroke-width:0.50;stroke:#213238;"/>
		<path vector-effect="non-scaling-stroke" d="M 219.749555 104.523382 L 219.969403 101.282186" style="fill:none;stroke-width:0.50;stroke:#152229;"/>
		<path vector-effect="non-scaling-stroke" d="M 219.978826 101.096885 Q 220.098172 100.672891 220.013373 100.198647" style="fill:none;stroke-width:0.50;stroke:#152229;"/>
		<path vector-effect="non-scaling-stroke" d="M 220.016514 99.834326 L 220.117016 99.17164" style="fill:none;stroke-width:0.50;stroke:#213238;"/>
		<path vector-effect="non-scaling-stroke" d="M 220.117016 99.17164 Q 220.355709 98.433577 220.264629 97.682951" style="fill:none;stroke-width:0.50;stroke:#0e171c;"/>
		<path vector-effect="non-scaling-stroke" d="M 220.264629 97.682951 Q 220.233222 97.466244 220.255207 97.397148 Q 220.427945 96.86009 220.019655 97.26838 L 218.122676 99.165359" style="fill:none;stroke-width:0.50;stroke:#213238;"/>
		<path vector-effect="non-scaling-stroke" d="M 217.912249 99.366363 L 214.947435 101.059197 C 214.809244 101.137714 214.721305 101.285327 214.718164 101.448643 Q 214.680476 103.986323 214.667913 106.539707 C 214.649069 110.355649 214.278467 114.378877 213.97696 118.2859" style="fill:none;stroke-width:0.50;stroke:#636e6d;"/>
		<path vector-effect="non-scaling-stroke" d="M 213.97696 118.2859 L 213.691157 122.293425" style="fill:none;stroke-width:0.50;stroke:#213238;"/>
		<path vector-effect="non-scaling-stroke" d="M 213.650328 123.015784 Q 213.232616 124.344297 213.443043 125.694796" style="fill:none;stroke-width:0.50;stroke:#152229;"/>
		<path vector-effect="non-scaling-stroke" d="M 212.981361 130.132595 Q 212.547945 132.026433 212.557367 133.976804" style="fill:none;stroke-width:0.50;stroke:#0e171c;"/>
		<path vector-effect="non-scaling-stroke" d="M 215.318037 139.953544 Q 215.622684 140.880048 215.475071 142.095496 Q 215.396554 142.736198 215.139017 143.034564 C 214.532863 143.738079 212.598196 143.848003 211.894681 143.854285 Q 199.137184 143.954787 186.279186 143.694109 Q 180.330712 143.574763 165.77988 143.621873 Q 164.881642 143.625014 163.904886 142.918358" style="fill:none;stroke-width:0.50;stroke:#0e171c;"/>
		<path vector-effect="non-scaling-stroke" d="M 163.904886 142.918358 L 162.736548 141.316604" style="fill:none;stroke-width:0.50;stroke:#152229;"/>
		<path vector-effect="non-scaling-stroke" d="M 155.098382 136.9479 Q 154.837704 136.505062 154.156174 136.63069" style="fill:none;stroke-width:0.50;stroke:#152229;"/>
		<path vector-effect="non-scaling-stroke" d="M 159.746608 131.479953 Q 159.931909 131.263245 159.746608 130.760734" style="fill:none;stroke-width:0.50;stroke:#0e171c;"/>
		<path vector-effect="non-scaling-stroke" d="M 176.034244 103.51836 Q 176.194419 103.65655 176.461378 103.552907 Q 176.634116 103.483812 176.530473 103.314215" style="fill:none;stroke-width:0.50;stroke:#152229;"/>
		<path vector-effect="non-scaling-stroke" d="M 189.247141 78.028492 Q 189.476411 77.551107 189.294251 76.831888" style="fill:none;stroke-width:0.50;stroke:#0e171c;"/>
		<path vector-effect="non-scaling-stroke" d="M 189.545507 74.661669 Q 189.664853 74.448102 189.598898 74.074359" style="fill:none;stroke-width:0.50;stroke:#0e171c;"/>
		<path vector-effect="non-scaling-stroke" d="M 189.87842 72.651625 Q 190.082565 72.196225 190.010329 71.72198" style="fill:none;stroke-width:0.50;stroke:#152229;"/>
		<path vector-effect="non-scaling-stroke" d="M 190.132816 71.477006 L 190.767236 69.027265" style="fill:none;stroke-width:0.50;stroke:#7d4c05;"/>
		<path vector-effect="non-scaling-stroke" d="M 190.767236 69.027265 L 191.841354 66.42363" style="fill:none;stroke-width:0.50;stroke:#213238;"/>
		<path vector-effect="non-scaling-stroke" d="M 193.684941 66.690589 Q 193.964462 67.14599 194.064964 67.029784" style="fill:none;stroke-width:0.50;stroke:#0e171c;"/>
		<path vector-effect="non-scaling-stroke" d="M 195.99335 69.272239 Q 196.122119 69.755906 196.499002 69.906659" style="fill:none;stroke-width:0.50;stroke:#0e171c;"/>
		<path vector-effect="non-scaling-stroke" d="M 196.935558 70.50025 Q 197.309301 71.341956 197.98455 71.973235" style="fill:none;stroke-width:0.50;stroke:#0e171c;"/>
		<path vector-effect="non-scaling-stroke" d="M 198.037942 72.017205 Q 198.056786 72.262179 198.264071 72.331274" style="fill:none;stroke-width:0.50;stroke:#0e171c;"/>
		<path vector-effect="non-scaling-stroke" d="M 198.264071 72.331274 Q 198.446232 72.924865 198.933039 73.220091" style="fill:none;stroke-width:0.50;stroke:#0e171c;"/>
		<path vector-effect="non-scaling-stroke" d="M 215.654091 72.504013 Q 216.348184 72.155396 216.608862 71.498991" style="fill:none;stroke-width:0.50;stroke:#0e171c;"/>
		<path vector-effect="non-scaling-stroke" d="M 222.551053 59.240864 Q 222.708088 58.955061 222.623289 58.534208" style="fill:none;stroke-width:0.50;stroke:#0e171c;"/>
		<path vector-effect="non-scaling-stroke" d="M 222.843138 56.41424 Q 222.968766 56.09389 222.921655 55.698162" style="fill:none;stroke-width:0.50;stroke:#0e171c;"/>
		<path vector-effect="non-scaling-stroke" d="M 224.083712 46.703216 Q 224.353811 46.304348 224.284716 45.500331" style="fill:none;stroke-width:0.50;stroke:#0e171c;"/>
		<path vector-effect="non-scaling-stroke" d="M 224.372656 45.26792 Q 224.61763 44.718298 224.466876 44.288023" style="fill:none;stroke-width:0.50;stroke:#152229;"/>
		<path vector-effect="non-scaling-stroke" d="M 224.680444 43.308127 Q 224.98195 42.786772 224.75582 42.472702" style="fill:none;stroke-width:0.50;stroke:#152229;"/>
		<path vector-effect="non-scaling-stroke" d="M 225.000794 41.266676 Q 225.264612 40.848964 225.095015 40.443815" style="fill:none;stroke-width:0.50;stroke:#0e171c;"/>
		<path vector-effect="non-scaling-stroke" d="M 225.289738 39.539295 Q 225.698028 38.989673 225.591245 38.361535" style="fill:none;stroke-width:0.50;stroke:#152229;"/>
		<path vector-effect="non-scaling-stroke" d="M 226.005816 36.156768 Q 225.961846 36.213301 225.990113 36.232145 Q 226.034082 36.266692 226.062349 36.216441 Q 226.134585 36.093954 226.02466 35.971467" style="fill:none;stroke-width:0.50;stroke:#152229;"/>
		<path vector-effect="non-scaling-stroke" d="M 226.213102 35.277374 Q 226.489483 34.900491 226.492624 34.391698 C 226.495764 34.291196 226.52089 34.193835 226.571141 34.105895 Q 226.731316 33.816951 226.806693 33.490319 Q 227.139606 31.992209 227.33747 31.323241 Q 227.748901 29.931914 228.040985 28.490336" style="fill:none;stroke-width:0.50;stroke:#152229;"/>
		<path vector-effect="non-scaling-stroke" d="M 243.241941 9.831476 L 245.518944 8.926956" style="fill:none;stroke-width:0.50;stroke:#0e171c;"/>
		<path vector-effect="non-scaling-stroke" d="M 386.523514 145.68845 Q 387.346376 147.368721 386.080676 148.339195" style="fill:none;stroke-width:0.50;stroke:#32515e;"/>
		<path vector-effect="non-scaling-stroke" d="M 171.979609 154.215432 L 169.793686 154.20601" style="fill:none;stroke-width:0.50;stroke:#1f3642;"/>
		<path vector-effect="non-scaling-stroke" d="M 364.303108 124.85623 L 364.246576 122.108124" style="fill:none;stroke-width:0.50;stroke:#32515e;"/>
		<path vector-effect="non-scaling-stroke" d="M 214.916028 106.476893 Q 214.853214 107.337443 214.922309 109.385175 Q 215.010249 111.866323 214.353844 115.93038" style="fill:none;stroke-width:0.50;stroke:#819da2;"/>
		<path vector-effect="non-scaling-stroke" d="M 214.143417 118.490045 Q 213.989523 118.64708 213.97696 118.2859" style="fill:none;stroke-width:0.50;stroke:#819da2;"/>
		<path vector-effect="non-scaling-stroke" d="M 237.224373 146.709175 Q 230.123265 147.051511 223.094393 146.988697 Q 219.196793 146.951008 216.816147 146.991837 C 197.287316 147.337314 177.444415 147.180279 158.257919 146.941586 C 153.082057 146.878772 147.230945 146.894476 141.706465 146.706034 C 140.396796 146.662065 139.319538 146.750004 138.119793 146.706034 Q 137.661252 146.68719 138.009869 146.395106 Q 138.141778 146.285181 138.528083 146.197242 C 141.68134 145.484305 145.503563 144.617473 149.036843 144.215464 Q 153.612834 143.690969 159.611558 143.128785 Q 160.462686 143.047127 161.753511 143.022001 Q 162.824487 143.000016 163.904886 142.918358" style="fill:none;stroke-width:0.50;stroke:#1f3642;"/>
		<path vector-effect="non-scaling-stroke" d="M 220.264629 97.682951 Q 220.007092 98.421014 220.117016 99.17164" style="fill:none;stroke-width:0.50;stroke:#2b4651;"/>
		<path vector-effect="non-scaling-stroke" d="M 190.767236 69.027265 Q 190.723267 68.898497 190.73897 68.744603" style="fill:none;stroke-width:0.50;stroke:#9a7b3a;"/>
		<path vector-effect="non-scaling-stroke" d="M 372.971422 141.008817 L 373.291773 141.002535" style="fill:none;stroke-width:0.50;stroke:#0e171c;"/>
		<path vector-effect="non-scaling-stroke" d="M 375.144782 141.363715 L 375.333224 141.765724 Q 375.4086 141.92904 375.248425 142.02012 Q 374.296795 142.547756 373.329461 143.370618 C 371.388513 145.022623 368.200709 145.430913 365.609637 145.603651 Q 358.731518 146.068474 351.570737 146.391965 Q 350.952021 146.420231 349.962702 146.373121 Q 349.099012 146.332292 348.351527 146.401387" style="fill:none;stroke-width:0.50;stroke:#1f3642;"/>
		<path vector-effect="non-scaling-stroke" d="M 230.701153 32.749116 Q 230.773389 33.235923 230.575525 33.678761" style="fill:none;stroke-width:0.50;stroke:#152229;"/>
		<path vector-effect="non-scaling-stroke" d="M 230.575525 33.678761 Q 229.529674 36.558777 229.184198 39.514169" style="fill:none;stroke-width:0.50;stroke:#213238;"/>
		<path vector-effect="non-scaling-stroke" d="M 229.184198 39.514169 Q 229.155932 39.831379 229.074274 40.101479 Q 228.932942 40.556879 228.910957 40.666804 Q 228.157191 44.598952 227.560459 49.017907 Q 225.952424 60.949402 224.985091 69.840705 C 224.492002 74.400991 224.137104 80.340043 223.961225 83.964403 Q 223.885848 85.497061 223.917255 85.786005 Q 223.936099 85.955602 224.102556 85.968165 C 225.980691 86.093793 228.496386 85.80799 229.787211 87.544793 C 229.850025 87.626451 229.859447 87.736375 229.815477 87.830596 Q 229.573644 88.351951 229.061711 88.235746 Q 226.436091 87.629592 223.98635 88.059867 Q 223.823034 88.088133 223.823034 88.251449 L 223.823034 92.359476 Q 223.823034 92.507089 223.964365 92.547918 Q 226.222524 93.172916 226.627673 93.248292 Q 227.620133 93.430453 228.132066 93.923541 Q 228.248271 94.033466 228.24513 94.196782 C 228.201161 95.68547 224.950543 95.013362 223.854441 94.828061 C 223.744517 94.809217 223.647155 94.894016 223.647155 95.00394 L 223.647155 96.052932 C 223.647155 96.169137 223.741376 96.263358 223.860723 96.266499 L 227.167873 96.282202" style="fill:none;stroke-width:0.50;stroke:#808181;"/>
		<path vector-effect="non-scaling-stroke" d="M 227.167873 96.282202 L 223.892129 96.354438 Q 223.71311 96.357579 223.772783 96.524036 Q 223.838738 96.709336 223.678562 96.797276 Q 223.53095 96.872652 223.527809 97.039109 L 223.508965 97.635841" style="fill:none;stroke-width:0.50;stroke:#0e171c;"/>
		<path vector-effect="non-scaling-stroke" d="M 223.508965 97.635841 L 223.44301 99.645885" style="fill:none;stroke-width:0.50;stroke:#152229;"/>
		<path vector-effect="non-scaling-stroke" d="M 223.44301 99.645885 Q 223.430448 99.705558 223.417885 99.765231" style="fill:none;stroke-width:0.50;stroke:#7d7d79;"/>
		<path vector-effect="non-scaling-stroke" d="M 223.417885 99.765231 Q 223.417885 101.61824 223.188614 105.710564 Q 222.956203 109.915952 222.726932 120.82358 Q 222.654696 124.12759 222.871404 126.48311 C 223.700547 135.487478 230.333692 142.309064 239.425999 143.040845 Q 241.586796 143.213583 243.760156 143.194739" style="fill:none;stroke-width:0.50;stroke:#808181;"/>
		<path vector-effect="non-scaling-stroke" d="M 243.760156 143.194739 L 329.108498 143.201021" style="fill:none;stroke-width:0.50;stroke:#7d7d79;"/>
		<path vector-effect="non-scaling-stroke" d="M 329.108498 143.201021 Q 336.014883 143.279538 342.911846 143.103659 Q 345.716485 143.031423 348.282431 142.261953 C 355.235927 140.179673 359.648601 133.989367 360.502869 126.922807 Q 360.703874 125.267661 360.59395 121.492548 Q 360.220207 109.036558 359.516692 99.382066" style="fill:none;stroke-width:0.50;stroke:#636e6d;"/>
		<path vector-effect="non-scaling-stroke" d="M 359.516692 99.382066 L 359.259155 96.235092" style="fill:none;stroke-width:0.50;stroke:#0e171c;"/>
		<path vector-effect="non-scaling-stroke" d="M 359.259155 96.235092 Q 357.42499 74.598855 354.852762 52.959478 Q 354.529271 50.239637 354.080151 47.375325 C 353.681283 44.828222 353.370355 42.252854 352.720231 39.759143" style="fill:none;stroke-width:0.50;stroke:#636e6d;"/>
		<path vector-effect="non-scaling-stroke" d="M 352.720231 39.759143 Q 352.767342 39.027362 352.607166 38.254751 Q 352.051264 35.544333 351.212698 33.03806" style="fill:none;stroke-width:0.50;stroke:#152229;"/>
		<path vector-effect="non-scaling-stroke" d="M 351.212698 33.03806 Q 350.603404 30.073245 349.428785 26.558809 Q 346.768617 18.594011 339.639243 14.448295 C 335.129208 11.825816 330.198319 10.836498 324.972205 10.308862" style="fill:none;stroke-width:0.50;stroke:#636e6d;"/>
		<path vector-effect="non-scaling-stroke" d="M 324.972205 10.308862 Q 308.929543 10.2115 292.42834 10.132983 Q 282.981135 10.085872 257.108103 10.312002 C 250.217421 10.371675 243.047218 12.764884 238.091204 17.554441 Q 234.309809 21.207068 232.491348 26.913707 Q 231.150272 31.125377 230.701153 32.749116" style="fill:none;stroke-width:0.50;stroke:#808181;"/>
		<path vector-effect="non-scaling-stroke" d="M 324.972205 10.308862 Q 326.702727 16.430073 330.063269 22.479048 Q 330.33965 22.978419 329.877968 23.138594" style="fill:none;stroke-width:0.50;stroke:#e0ebea;"/>
		<path vector-effect="non-scaling-stroke" d="M 329.877968 23.138594 Q 326.44205 22.196386 322.893066 22.199527 Q 290.663271 22.249778 258.430335 22.202667 Q 252.742539 22.193245 246.743814 24.558187 Q 245.292814 25.129794 241.056019 27.218355 Q 237.086182 29.178147 232.874513 31.477135 Q 231.398387 32.281152 230.701153 32.749116" style="fill:none;stroke-width:0.50;stroke:#92a0a6;"/>
		<path vector-effect="non-scaling-stroke" d="M 352.720231 39.759143 Q 351.567597 38.798091 349.780542 37.761662 Q 341.768633 33.119718 334.846545 29.705784 Q 333.426952 29.005409 332.032484 28.358426" style="fill:none;stroke-width:0.50;stroke:#758d92;"/>
		<path vector-effect="non-scaling-stroke" d="M 332.032484 28.358426 Q 331.143668 26.810065 330.254851 25.289969 Q 329.849702 24.595876 329.416286 24.322635 Q 328.825836 23.952034 328.185135 23.813843 C 324.391177 23.000403 320.019332 23.235955 316.561428 23.223393 Q 306.913218 23.185704 300.795148 23.223393 Q 297.732972 23.242237 294.51062 23.204549 C 287.371824 23.126031 277.971729 23.204549 268.838592 23.022388 Q 263.945392 22.925027 257.890135 23.151157 Q 254.237509 23.286207 249.479358 24.573891 C 247.651475 25.07012 246.159646 25.742229 244.353747 26.398634 C 242.161543 27.193229 239.064819 29.112193 237.359423 29.966461 Q 235.383927 30.95578 233.420993 31.963942 C 233.078658 32.136681 232.777151 32.460172 232.507051 32.601503 Q 231.115724 33.327003 230.575525 33.678761" style="fill:none;stroke-width:0.50;stroke:#32515e;"/>
		<path vector-effect="non-scaling-stroke" d="M 351.212698 33.03806 Q 344.705182 29.796864 338.254197 26.583935 Q 334.174437 24.555047 329.877968 23.138594" style="fill:none;stroke-width:0.50;stroke:#758d92;"/>
		<path vector-effect="non-scaling-stroke" d="M 359.259155 96.235092 L 343.725285 96.263358" style="fill:none;stroke-width:0.50;stroke:#6e8286;"/>
		<path vector-effect="non-scaling-stroke" d="M 332.032484 28.358426 L 331.671304 28.298753" style="fill:none;stroke-width:0.50;stroke:#819da2;"/>
		<path vector-effect="non-scaling-stroke" d="M 331.671304 28.298753 Q 327.858502 26.794361 323.750475 26.762954 Q 311.504912 26.665593 296.998049 26.766095 Q 293.634367 26.79122 290.719803 26.781798 Q 261.94477 26.690718 259.843647 26.687578 Q 256.866269 26.684437 254.435373 26.979662 Q 251.414026 27.343982 248.455492 28.644229" style="fill:none;stroke-width:0.50;stroke:#9bacae;"/>
		<path vector-effect="non-scaling-stroke" d="M 248.455492 28.644229 Q 247.095572 29.196992 244.586158 30.478394 Q 236.134552 34.787426 229.184198 39.514169" style="fill:none;stroke-width:0.50;stroke:#9eb0b6;"/>
		<path vector-effect="non-scaling-stroke" d="M 331.671304 28.298753 Q 331.891153 28.999128 332.23977 29.649251 Q 332.710874 30.528646 332.87733 30.958921 Q 334.623556 35.494082 335.631719 39.275477 Q 337.739124 47.164898 339.664369 57.246524 C 341.184464 65.208182 342.085843 73.358281 342.638605 81.464411 Q 343.144257 88.879588 343.725285 96.263358" style="fill:none;stroke-width:0.50;stroke:#dde8e3;"/>
		<path vector-effect="non-scaling-stroke" d="M 343.725285 96.263358 Q 338.637362 96.150293 336.102823 96.401548 Q 327.977849 97.196144 323.580878 103.958057 C 320.864178 108.13832 318.533784 112.258909 315.101006 116.222464" style="fill:none;stroke-width:0.50;stroke:#889192;"/>
		<path vector-effect="non-scaling-stroke" d="M 315.101006 116.222464 C 310.355418 121.439156 305.232947 126.696677 297.911991 127.428458 Q 296.146921 127.604337 294.162003 127.620041 Q 286.074718 127.682855 277.987432 127.620041 Q 271.787704 127.57293 266.79086 123.888897 Q 261.746907 120.173457 257.908979 115.176613" style="fill:none;stroke-width:0.50;stroke:#8f9c9f;"/>
		<path vector-effect="non-scaling-stroke" d="M 257.908979 115.176613 C 255.022682 111.432907 253.584245 108.86382 250.669681 104.133936 C 248.201096 100.120129 244.196712 96.885215 239.441702 96.329313 Q 238.191706 96.184841 235.98694 96.235092" style="fill:none;stroke-width:0.50;stroke:#889192;"/>
		<path vector-effect="non-scaling-stroke" d="M 235.98694 96.235092 Q 235.751388 93.832461 235.767091 92.456838 C 235.864453 84.875204 236.464325 77.211912 237.155278 69.602012 Q 237.642085 64.243989 238.367585 59.435587 Q 238.79472 56.624667 241.181647 46.696935 Q 242.909028 39.51731 245.236282 33.559415 Q 246.099972 31.342085 247.598083 29.884803 Q 247.836776 29.652392 248.455492 28.644229" style="fill:none;stroke-width:0.50;stroke:#fafbf7;"/>
		<path vector-effect="non-scaling-stroke" d="M 359.516692 99.382066 L 343.850913 99.564227" style="fill:none;stroke-width:0.50;stroke:#6e8286;"/>
		<path vector-effect="non-scaling-stroke" d="M 343.850913 99.564227 Q 339.827685 99.539101 336.875433 99.768372 Q 334.727199 99.934829 332.359116 100.798519" style="fill:none;stroke-width:0.50;stroke:#889192;"/>
		<path vector-effect="non-scaling-stroke" d="M 332.359116 100.798519 Q 333.159993 99.567367 334.830842 99.181062 Q 335.14177 99.108826 337.660606 98.870133 Q 337.751687 98.860711 342.469008 98.521516 Q 342.779937 98.499532 343.662471 98.339356 C 343.863476 98.301668 343.907446 98.034709 343.728426 97.937348 Q 342.999785 97.538479 341.957075 97.478806 C 337.227191 97.202425 331.953967 97.689233 328.30134 100.600656 Q 325.550093 102.792859 324.127359 105.073003 C 321.140559 109.86256 319.212174 112.711169 316.470348 115.741938 Q 315.948993 116.319826 315.101006 116.222464" style="fill:none;stroke-width:0.50;stroke:#1f3642;"/>
		<path vector-effect="non-scaling-stroke" d="M 235.98694 96.235092 L 227.167873 96.282202" style="fill:none;stroke-width:0.50;stroke:#8b959a;"/>
		<path vector-effect="non-scaling-stroke" d="M 257.908979 115.176613 L 257.714256 115.556637 C 257.648302 115.688547 257.469282 115.707391 257.371921 115.594326 C 255.50949 113.408403 253.725576 111.247606 252.287138 108.769599 Q 250.123201 105.047877 249.316042 104.06484 Q 248.000092 102.463087 247.654616 102.02653 Q 246.652734 100.745127 245.839295 100.120129 Q 243.640809 98.430436 241.021471 97.792876 Q 239.535923 97.431696 235.798498 97.400289 Q 230.91472 97.362601 226.027801 97.293505 Q 225.082452 97.280943 223.508965 97.635841" style="fill:none;stroke-width:0.50;stroke:#1f3642;"/>
		<path vector-effect="non-scaling-stroke" d="M 332.359116 100.798519 Q 329.300081 102.20555 327.613528 104.149639 Q 325.974086 106.040336 325.013034 107.601261 Q 322.224098 112.136422 320.170085 114.849981 C 316.379268 119.859387 311.712198 124.476207 306.395004 127.519538 C 302.761222 129.601818 298.942138 130.15144 294.711624 130.176565 Q 286.919564 130.226816 277.984292 130.176565 C 274.385057 130.15458 270.474894 129.529582 267.362467 127.56979 Q 260.179701 123.037769 254.963009 116.285278 C 252.601208 113.232524 250.701088 109.912811 248.468055 106.492596 Q 245.371331 101.756431 240.239439 100.104426 C 238.684795 99.605056 236.797239 99.551664 235.110686 99.551664 Q 229.2847 99.545383 223.44301 99.645885" style="fill:none;stroke-width:0.50;stroke:#8f9c9f;"/>
		<path vector-effect="non-scaling-stroke" d="M 329.108498 143.201021 L 331.37922 143.084815 Q 331.536254 143.075393 331.661882 142.981172 C 332.412508 142.425269 333.181978 142.670243 333.970292 142.412706 C 340.898661 140.157689 344.504177 134.309718 344.689478 127.199188 Q 344.840232 121.458 344.453926 112.934158 Q 344.15242 106.266466 343.850913 99.564227" style="fill:none;stroke-width:0.50;stroke:#dde8e3;"/>
		<path vector-effect="non-scaling-stroke" d="M 243.760156 143.194739 L 245.27397 143.1068 Q 245.402738 143.100518 245.346206 142.984313 Q 245.007011 142.309064 244.539048 142.048386 Q 241.523982 140.368115 239.724365 137.613727 Q 235.657167 131.395154 235.349379 123.920304 C 235.063576 117.032763 235.267721 110.613186 235.35252 101.765853 Q 235.361942 101.012086 235.236314 100.035331 Q 235.214329 99.875155 235.057294 99.85003 Q 234.243855 99.724402 233.945489 99.727543 Q 228.716234 99.765231 223.417885 99.765231" style="fill:none;stroke-width:0.50;stroke:#fafbf7;"/>
		<path vector-effect="non-scaling-stroke" d="M 217.120795 87.5762 C 218.41162 86.480098 221.021536 86.106356 222.780324 86.008994 Q 222.940499 85.999572 222.94364 85.842537 Q 223.188614 76.919827 222.30922 69.178018 C 222.296657 69.061813 222.158467 69.00528 222.070527 69.080657 Q 218.383353 72.142833 215.528463 75.70752 C 215.37771 75.895961 215.132736 75.977619 214.900324 75.917946 C 210.066797 74.671091 204.853246 75.179883 200.098236 76.232016 C 199.620851 76.338799 199.218842 76.235156 198.951883 75.851992 Q 196.304279 72.03919 194.781043 70.057412 Q 193.983306 69.014702 192.924893 68.022243 C 192.814968 67.9186 192.632808 67.959429 192.579416 68.10076 Q 192.139719 69.272239 191.897886 70.610174 Q 190.939975 75.961916 190.704423 81.216296 C 190.493996 85.886507 190.563091 89.649058 191.772258 93.78221 Q 191.970122 94.451178 192.394116 95.236351 Q 192.466352 95.371401 192.591979 95.280321 Q 195.864582 92.861987 199.683665 90.842521 Q 200.968208 90.164131 202.127124 89.953705 C 202.491445 89.88461 202.824358 90.170413 202.811796 90.541015 Q 202.789811 91.15345 202.036044 91.483223 C 197.218221 93.584347 192.937456 97.280943 188.169883 99.724402 C 183.810601 101.960576 179.363379 103.51836 175.396683 105.663453 C 166.276109 110.600623 161.128513 119.262656 161.153639 129.652069 Q 161.169342 136.172149 165.110912 141.571001 Q 165.296213 141.822256 165.607142 141.815975 C 172.946942 141.677784 180.880334 141.580423 188.625284 141.973009 Q 194.190592 142.255672 197.124 142.296501 Q 197.75842 142.305923 198.185554 142.233687 Q 198.559297 142.174014 198.424247 141.819115 Q 198.091333 140.958565 197.390959 140.336708 Q 195.299257 138.483699 191.549269 138.405182 Q 190.858317 138.392619 191.156682 137.767621 L 191.200652 137.6734 Q 191.420501 137.214859 191.929293 137.170889 Q 195.107675 136.894508 197.683043 138.85116 C 197.777264 138.920255 197.909173 138.876286 197.943721 138.766361 Q 199.033541 135.047781 198.769723 130.60684 C 198.251509 121.86315 191.863338 116.238168 183.047412 117.079874 Q 182.504072 117.133265 182.532338 116.586785 L 182.535479 116.492564 Q 182.566886 115.817315 183.336356 115.741938 Q 191.28231 114.950484 196.272872 120.452978 C 198.973868 123.430356 200.286678 127.987502 200.208161 131.954198 Q 200.192457 132.883843 200.095096 135.58798 Q 200.066829 136.395138 200.355773 137.032699 Q 200.858284 138.131941 201.144087 138.342368 Q 203.05991 139.736836 203.264055 142.054667 C 203.273477 142.142607 203.345713 142.208561 203.433653 142.208561 L 206.508392 142.208561 C 206.624597 142.208561 206.703115 142.092356 206.662286 141.985572 Q 205.000859 137.572898 204.130887 133.122535 Q 202.494585 124.758869 201.593206 118.577984 C 201.520971 118.075473 201.778507 117.626354 202.123984 117.664043 Q 202.158531 117.667183 202.174235 117.660902 Q 202.78667 117.403365 202.880891 118.028363 Q 203.562421 122.576087 205.161034 131.191009 Q 205.380883 132.37191 205.789173 133.848036 Q 206.103242 134.981826 206.191182 133.807207 Q 206.583768 128.496294 207.158515 124.429096 Q 207.255877 123.731862 207.604494 123.599953 Q 208.201225 123.373823 208.67547 123.756988 C 208.757128 123.822942 208.791676 123.926585 208.76655 124.023947 Q 208.383386 125.591153 208.242054 126.910244 Q 207.984518 129.300312 207.281002 136.608705 Q 207.073716 138.734955 207.293565 139.432188 Q 207.824342 141.125022 208.075598 142.02326 Q 208.119567 142.177154 208.276602 142.177154 L 209.71818 142.177154 Q 209.894059 142.177154 209.8972 142.001276 Q 209.928607 140.876907 210.03225 140.185955 C 211.517798 130.283349 212.463146 120.258255 213.16038 110.35879 Q 213.487012 105.707423 213.238898 100.616359 C 213.232616 100.506435 213.29543 100.402792 213.395932 100.352541 C 216.235119 99.008324 219.04604 97.136471 220.732592 94.435474 C 220.776562 94.360098 220.842516 94.297284 220.917893 94.253314 Q 221.081209 94.149671 221.153445 93.989496 Q 221.228821 93.816758 221.068646 93.722537 Q 219.372672 92.714374 216.191149 91.238249 Q 215.471931 90.905335 215.459368 90.214383 C 215.453086 89.972549 215.65095 89.774685 215.892783 89.780967 Q 217.045418 89.812374 218.091269 90.302322 Q 220.40596 91.37958 222.321783 92.095658 C 222.469395 92.15219 222.62643 92.042266 222.62643 91.885231 L 222.62643 88.025319 C 222.62643 87.934239 222.547913 87.865144 222.456833 87.874566 Q 220.506462 88.103837 219.074306 88.323685 Q 218.128957 88.468157 217.315518 88.317404 C 216.96376 88.251449 216.847554 87.805471 217.120795 87.5762" style="fill:none;stroke-width:0.50;stroke:#7d4c05;"/>
		<path vector-effect="non-scaling-stroke" d="M 198.992712 139.045883 L 199.88781 141.935321 Q 199.972609 142.20228 200.24899 142.20228 L 201.690568 142.20228 Q 202.123984 142.20228 202.048607 141.775146 Q 201.621473 139.400782 199.20628 138.816613 C 199.07123 138.782065 198.951883 138.910833 198.992712 139.045883" style="fill:none;stroke-width:0.50;stroke:#7d4c05;"/>
		<path vector-effect="non-scaling-stroke" d="M 211.184884 142.15517 L 213.810504 142.15517 C 214.052337 142.15517 214.24706 141.954165 214.234497 141.712332 Q 214.146558 139.922137 212.582493 139.152667 Q 212.083122 138.907693 211.580611 139.162089 C 211.486391 139.209199 211.414155 139.293998 211.379607 139.3945 Q 210.955613 140.625652 211.07496 142.054667 Q 211.084382 142.15517 211.184884 142.15517" style="fill:none;stroke-width:0.50;stroke:#7d4c05;"/>
		<path vector-effect="non-scaling-stroke" d="M 307.104801 112.629511 C 325.374214 99.466865 327.236645 70.883415 310.223509 55.839493 C 291.630604 39.397964 262.268262 47.102084 254.488764 70.597612 C 251.285257 80.280369 252.035883 91.20056 256.555341 100.252039 C 265.967999 119.089917 290.013147 124.947311 307.104801 112.629511" style="fill:none;stroke-width:0.50;stroke:#9bacae;"/>
		<path vector-effect="non-scaling-stroke" d="M 258.235612 95.204944 Q 259.645783 99.017746 262.177182 102.105048" style="fill:none;stroke-width:0.50;stroke:#213238;"/>
		<path vector-effect="non-scaling-stroke" d="M 262.177182 102.105048 Q 262.745647 102.993864 263.838609 104.149639 Q 267.290231 107.799125 271.662076 110.170348 Q 278.191577 113.706769 285.616176 114.052245 Q 293.351704 114.410284 300.333466 111.319842 Q 308.709695 107.610683 313.847869 100.120129" style="fill:none;stroke-width:0.50;stroke:#2b4651;"/>
		<path vector-effect="non-scaling-stroke" d="M 313.847869 100.120129 L 316.209671 95.59439" style="fill:none;stroke-width:0.50;stroke:#213238;"/>
		<path vector-effect="non-scaling-stroke" d="M 316.209671 95.59439 Q 318.24484 90.493904 318.60916 85.767161 Q 319.780639 70.660426 309.161955 59.686843 C 302.645016 52.953196 293.141278 49.872176 283.904499 50.858354 Q 274.102395 51.904205 266.734328 58.427425 Q 264.454184 60.450031 263.433459 61.71259 Q 255.28336 71.835045 255.851825 84.514024 Q 256.087377 89.758982 258.235612 95.204944" style="fill:none;stroke-width:0.50;stroke:#2b4651;"/>
		<path vector-effect="non-scaling-stroke" d="M 316.209671 95.59439 Q 314.956534 95.355698 313.791337 95.327431 Q 309.746124 95.239492 305.69777 95.252055 Q 289.249959 95.302306 272.802147 95.217507 C 269.363088 95.201804 264.049035 95.352557 259.661486 95.170397 Q 259.008222 95.145271 258.235612 95.204944" style="fill:none;stroke-width:0.50;stroke:#0e171c;"/>
		<path vector-effect="non-scaling-stroke" d="M 313.847869 100.120129 Q 312.952772 99.658448 312.776893 99.111967" style="fill:none;stroke-width:0.50;stroke:#0e171c;"/>
		<path vector-effect="non-scaling-stroke" d="M 312.776893 99.111967 Q 311.8127 98.785335 310.801397 98.788475 Q 306.190859 98.80732 299.397539 98.772772 C 299.171409 98.769631 298.917013 98.678551 298.716009 98.678551 Q 292.808364 98.691114 287.459763 98.804179 C 285.40575 98.848149 282.908899 98.728802 280.96481 98.766491 Q 272.839836 98.936088 264.667752 98.775913 C 263.892 98.760209 262.868134 98.826164 261.998162 98.914103 C 261.778314 98.936088 261.662108 99.184203 261.784595 99.366363 L 263.314113 101.70932" style="fill:none;stroke-width:0.50;stroke:#213238;"/>
		<path vector-effect="non-scaling-stroke" d="M 263.314113 101.70932 Q 262.84929 102.164721 262.177182 102.105048" style="fill:none;stroke-width:0.50;stroke:#0e171c;"/>
		<path vector-effect="non-scaling-stroke" d="M 312.776893 99.111967 Q 311.853529 100.826785 310.170117 102.648388 Q 304.026921 109.278391 295.481094 111.542831 Q 289.736766 113.062927 284.504371 112.591823 Q 271.746874 111.44547 263.314113 101.70932" style="fill:none;stroke-width:0.50;stroke:#2b4651;"/>
		<path vector-effect="non-scaling-stroke" d="M 215.644669 86.279094 Q 215.92105 86.483239 216.172305 86.451832 C 216.470671 86.417284 216.64655 86.100074 216.517781 85.829975 Q 216.279089 85.336886 215.886502 85.164148 Q 214.29103 84.463773 212.956235 85.481358 C 212.79606 85.603845 212.701839 85.792286 212.701839 85.993291 L 212.701839 86.087511 Q 212.701839 86.407862 212.993923 86.275953 C 213.901584 85.864522 214.890902 85.71691 215.644669 86.279094" style="fill:none;stroke-width:0.50;stroke:#7d4c05;"/>
		<path vector-effect="non-scaling-stroke" d="M 202.730137 86.718791 C 204.096339 86.140903 204.567443 86.03726 206.056132 86.502083 Q 206.329372 86.586882 206.398467 86.30736 Q 206.426734 86.197436 206.392186 86.122059 C 206.282262 85.886507 206.059272 85.67294 205.764047 85.515905 Q 204.583147 84.894048 203.113302 85.515905 C 202.83064 85.635252 202.613932 85.870804 202.522852 86.162888 L 202.431772 86.448691 Q 202.2873 86.907232 202.730137 86.718791" style="fill:none;stroke-width:0.50;stroke:#7d4c05;"/>
		<path vector-effect="non-scaling-stroke" d="M 209.777853 90.635235 C 211.131492 91.640257 213.081863 92.111361 214.190528 90.588125 Q 214.872058 89.652198 213.731986 89.862625 Q 213.631484 89.881469 213.088144 90.198679 C 212.277845 90.676064 211.159759 90.47506 210.556745 89.947424 C 210.198706 89.636495 210.142174 89.102577 210.424836 88.722553 C 211.012146 87.934239 211.6183 86.957483 210.911644 86.074949 C 210.44368 85.49078 208.706877 85.358871 208.22007 85.949321 C 207.761528 86.511505 207.657885 86.951202 208.050472 87.629592 C 208.436777 88.295419 209.093182 89.25333 208.483888 89.865766 C 207.196203 91.166013 206.074976 90.349432 204.821839 89.636495 C 204.64282 89.532852 204.426112 89.689887 204.466941 89.894032 Q 204.708774 91.071792 205.971333 91.448675 Q 207.689292 91.966889 209.30989 90.647798 Q 209.539161 90.459357 209.777853 90.635235" style="fill:none;stroke-width:0.50;stroke:#7d4c05;"/>
		<path vector-effect="non-scaling-stroke" d="M 197.343848 88.813633 Q 200.955646 88.84504 202.262174 88.816774 C 202.547977 88.810493 202.733278 88.508986 202.60765 88.251449 C 201.985793 86.957483 197.566838 87.105096 196.021616 87.293538 Q 194.900389 87.431728 193.904789 87.965646 Q 193.515343 88.176073 193.618986 88.606348 C 193.776021 89.269034 194.426144 89.322426 194.99775 89.190516 Q 196.700006 88.807352 197.343848 88.813633" style="fill:none;stroke-width:0.50;stroke:#7d4c05;"/>
		<path vector-effect="non-scaling-stroke" d="M 297.50056 102.75203 C 297.50056 102.111329 296.979205 101.589974 296.338504 101.589974 L 277.601127 101.589974 C 276.960426 101.589974 276.43907 102.111329 276.43907 102.75203 L 276.43907 105.402776 C 276.43907 106.043477 276.960426 106.564832 277.601127 106.564832 L 296.338504 106.564832 C 296.979205 106.564832 297.50056 106.043477 297.50056 105.402776 L 297.50056 102.75203" style="fill:none;stroke-width:0.50;stroke:#9eb0b6;"/>
		<path d="M 278.301502 6.310759 Q 278.292079 6.458371 278.138186 6.461512 Q 271.655794 6.593421 265.163981 6.417542 L 278.301502 6.310759 Z" style="fill:#26414e;"/>
		<path d="M 296.665136 6.36101 Q 302.745518 6.681361 308.797634 6.430105 Q 316.74987 6.386136 324.72409 6.565155 C 326.247327 6.599703 327.635513 6.86038 329.331488 7.080229 Q 333.153711 7.576458 337.443899 9.140524 Q 338.411232 9.495422 339.077059 9.900571 C 339.708339 10.286877 340.537482 10.478459 341.212731 10.958985 C 341.953934 11.489762 343.081443 12.029962 343.916868 12.802572 Q 344.240359 13.301942 344.805684 13.47468 L 345.411838 13.967769 L 347.4156 15.899296 Q 350.835815 19.671269 352.66998 24.517358 Q 352.720231 25.20203 353.106536 25.801902 L 353.555656 27.256043 Q 353.430028 27.683177 353.731534 27.925011 L 353.894851 28.430662 Q 353.788067 28.713325 354.070729 29.058801 Q 356.011678 35.820714 357.192579 43.3678 Q 358.326369 50.610239 358.970211 56.4111 Q 358.87285 56.825671 359.076995 56.891626 L 359.299984 58.923654 Q 359.164934 59.498401 359.394205 59.875284 L 359.620335 61.819374 Q 359.406767 62.34701 359.701993 62.862084 L 359.91556 64.812454 Q 359.786791 65.343232 360.022343 65.892853 L 360.239051 67.874631 Q 360.078876 68.408548 360.32385 68.678648 L 360.562543 70.936807 Q 360.446337 71.549242 360.644201 72.098863 L 360.892315 74.746468 Q 360.64106 75.082522 360.961411 75.352621 L 361.168696 77.494574 Q 360.961411 78.031633 361.272339 78.571832 L 361.498469 80.792302 Q 361.250354 81.4173 361.576987 81.725088 L 361.793694 83.873323 Q 361.624097 84.564275 361.894197 85.157866 L 362.735902 94.941126 Q 362.563164 95.572405 362.848967 96.005821 L 363.049972 98.468125 Q 362.845827 99.240735 363.141052 99.915984 L 364.004743 112.868204 Q 363.81002 113.584282 364.124089 114.064808 L 364.31253 121.583628 L 364.246576 122.108124 L 364.281124 125.26138 Q 364.168059 126.57733 364.095823 127.930969 Q 364.042431 128.961117 363.386026 131.37631 Q 363.244695 131.370029 363.228991 131.542767 Q 363.219569 131.636987 363.304368 131.633847 L 363.254117 131.712364 L 362.644822 133.405198 Q 362.384145 134.454189 361.77485 135.377553 Q 361.482766 135.518885 361.470203 136.030818 Q 360.452618 137.846138 359.007899 139.476158 Q 356.489063 142.522631 353.420606 144.171495 Q 351.58016 145.160813 348.351527 146.401387 Q 344.485333 146.929024 341.501674 146.925883 Q 301.979189 146.872491 252.582363 146.853647 C 248.722451 146.853647 245.566054 146.941586 242.051619 146.988697 Q 241.279008 146.998119 239.645847 146.828521 Q 238.395851 146.696612 237.224373 146.709175 Q 236.382667 146.376262 233.17916 145.32727 Q 228.83244 143.901395 225.085593 140.076031 Q 224.941121 139.931559 224.730695 139.805931 Q 224.75582 139.743117 224.699288 139.674022 Q 223.116378 137.827294 221.85696 135.751296 Q 221.398419 134.994389 220.983847 134.04904 Q 220.409101 132.745652 220.261488 132.265126 Q 219.426063 129.586115 219.18423 126.046553 L 219.250185 115.302241 L 219.749555 104.523382 L 219.969403 101.282186 Q 219.944278 101.206809 219.978826 101.096885 Q 220.098172 100.672891 220.013373 100.198647 L 220.016514 99.834326 L 220.117016 99.17164 Q 220.355709 98.433577 220.264629 97.682951 Q 220.233222 97.466244 220.255207 97.397148 Q 220.427945 96.86009 220.019655 97.26838 L 218.122676 99.165359 L 217.912249 99.366363 L 214.947435 101.059197 C 214.809244 101.137714 214.721305 101.285327 214.718164 101.448643 Q 214.680476 103.986323 214.667913 106.539707 C 214.649069 110.355649 214.278467 114.378877 213.97696 118.2859 L 213.691157 122.293425 Q 213.807363 122.748825 213.650328 123.015784 Q 213.232616 124.344297 213.443043 125.694796 L 212.981361 130.132595 Q 212.547945 132.026433 212.557367 133.976804 L 211.985761 137.368753 Q 211.957495 137.541491 212.123951 137.598024 Q 213.870177 138.188474 215.318037 139.953544 Q 215.622684 140.880048 215.475071 142.095496 Q 215.396554 142.736198 215.139017 143.034564 C 214.532863 143.738079 212.598196 143.848003 211.894681 143.854285 Q 199.137184 143.954787 186.279186 143.694109 Q 180.330712 143.574763 165.77988 143.621873 Q 164.881642 143.625014 163.904886 142.918358 L 162.736548 141.316604 Q 162.786799 141.304042 162.777377 141.087334 Q 162.774236 140.974269 162.723985 140.870626 Q 162.199489 139.793368 161.631024 138.738095 Q 161.555647 138.596764 161.561929 138.436589 Q 161.56821 138.288976 161.52424 138.144504 Q 161.473989 137.978047 161.29811 137.974907 Q 158.116588 137.9435 155.098382 136.9479 Q 154.837704 136.505062 154.156174 136.63069 Q 146.894891 133.854317 142.874803 127.305971 C 142.296915 126.363763 141.769279 125.129471 141.295034 124.152715 Q 140.977824 123.49631 140.795664 122.843046 Q 139.925692 119.696071 139.818908 118.135147 Q 139.740391 116.991934 139.831471 114.454254 Q 139.897426 112.620089 140.274309 110.81419 Q 140.955839 107.529025 141.210236 106.5083 Q 141.599682 104.931672 141.693902 104.086825 Q 142.143021 99.991361 139.322679 97.321772 C 137.406856 95.509592 134.272444 95.437356 132.029989 96.615116 C 130.971575 97.171018 130.120447 98.1729 129.127988 99.020887 C 126.310786 101.432939 123.097857 98.782194 122.117961 96.008962 Q 121.829017 95.195522 122.077131 93.907838 C 122.419467 92.127065 124.190818 90.556718 125.707773 89.583103 Q 126.078375 89.347551 127.425732 88.659739 Q 127.994198 88.367655 128.766808 88.147806 C 129.517434 87.934239 130.060774 87.698687 130.626099 87.595044 Q 136.028091 86.615148 140.836493 88.637754 Q 143.967764 89.956846 146.546274 93.019022 C 147.077051 93.650301 147.444512 94.4606 147.855943 95.063613 Q 148.355313 95.789113 148.606568 96.690492 C 148.832698 97.507073 149.234707 98.069257 149.413727 98.926666 Q 150.224026 102.792859 149.856564 106.561692 Q 149.61159 109.049121 148.766744 112.824234 C 148.61285 113.518327 148.738478 114.096215 148.559458 114.821715 Q 148.29564 115.892692 148.443252 117.412787 Q 148.719633 120.255115 149.630435 122.63262 Q 150.023021 123.665908 150.519251 124.378845 C 150.958948 125.013265 151.351534 125.80472 151.989095 126.555346 Q 154.994739 130.076063 159.48279 131.489375 Q 159.545604 131.508219 159.614699 131.498797 Q 159.686935 131.489375 159.746608 131.479953 Q 159.931909 131.263245 159.746608 130.760734 Q 159.671231 126.66527 160.673112 122.422193 Q 162.783658 113.464936 169.724591 107.6892 Q 170.676221 106.897746 173.229605 105.182927 C 174.039903 104.636447 175.142287 104.190468 176.034244 103.51836 Q 176.194419 103.65655 176.461378 103.552907 Q 176.634116 103.483812 176.530473 103.314215 C 177.444415 103.062959 178.399186 102.491353 179.043028 102.214972 Q 180.610234 101.536582 180.776691 101.454924 Q 181.6341 101.024649 183.279823 100.456184 C 184.187484 100.142114 185.019768 99.513976 185.789237 99.269002 C 186.725164 98.964354 187.24966 98.49011 188.166742 98.097523 Q 188.534203 97.940488 189.090106 97.582449 Q 190.2396 96.844386 191.266607 96.103183 C 191.379672 96.021525 191.420501 95.867631 191.357687 95.742003 C 191.166104 95.355698 190.808065 95.145271 190.651031 94.768388 C 189.036714 90.936742 188.907946 86.922936 189.008448 82.783502 Q 189.033574 81.668556 189.247141 78.028492 Q 189.476411 77.551107 189.294251 76.831888 L 189.545507 74.661669 Q 189.664853 74.448102 189.598898 74.074359 L 189.87842 72.651625 Q 190.082565 72.196225 190.010329 71.72198 Q 190.048018 71.54296 190.132816 71.477006 L 190.767236 69.027265 L 191.841354 66.42363 Q 192.698763 65.767225 193.684941 66.690589 Q 193.964462 67.14599 194.064964 67.029784 L 195.99335 69.272239 Q 196.122119 69.755906 196.499002 69.906659 L 196.935558 70.50025 Q 197.309301 71.341956 197.98455 71.973235 Q 197.953143 71.894718 198.037942 72.017205 Q 198.056786 72.262179 198.264071 72.331274 Q 198.446232 72.924865 198.933039 73.220091 Q 199.303641 74.055515 200.038563 74.598855 Q 200.170472 74.696217 200.330648 74.661669 Q 203.885913 73.917325 205.044828 73.829385 Q 208.794816 73.546723 212.340659 73.860792 C 213.194928 73.939309 213.813644 74.444961 214.589396 73.647225 Q 215.157861 73.059915 215.654091 72.504013 Q 216.348184 72.155396 216.608862 71.498991 Q 218.926693 69.225129 221.822413 67.186819 C 221.897789 67.133427 221.941759 67.051769 221.951181 66.960689 L 222.551053 59.240864 Q 222.708088 58.955061 222.623289 58.534208 L 222.843138 56.41424 Q 222.968766 56.09389 222.921655 55.698162 Q 223.273413 52.670534 223.596904 49.642905 Q 223.75708 48.141654 224.083712 46.703216 Q 224.353811 46.304348 224.284716 45.500331 L 224.372656 45.26792 Q 224.61763 44.718298 224.466876 44.288023 Q 224.476298 43.779231 224.680444 43.308127 Q 224.98195 42.786772 224.75582 42.472702 L 225.000794 41.266676 Q 225.264612 40.848964 225.095015 40.443815 L 225.289738 39.539295 Q 225.698028 38.989673 225.591245 38.361535 L 226.005816 36.156768 Q 225.961846 36.213301 225.990113 36.232145 Q 226.034082 36.266692 226.062349 36.216441 Q 226.134585 36.093954 226.02466 35.971467 L 226.213102 35.277374 Q 226.489483 34.900491 226.492624 34.391698 C 226.495764 34.291196 226.52089 34.193835 226.571141 34.105895 Q 226.731316 33.816951 226.806693 33.490319 Q 227.139606 31.992209 227.33747 31.323241 Q 227.748901 29.931914 228.040985 28.490336 Q 229.231308 23.603417 231.850646 19.347777 Q 232.32175 18.584589 232.827402 18.025545 C 233.355039 17.447658 233.609435 16.863489 234.1779 16.304445 Q 236.863193 13.666263 237.400252 13.314505 Q 239.005146 12.256091 240.603759 11.185115 C 241.461168 10.610368 242.324859 10.233485 243.241941 9.831476 L 245.518944 8.926956 Q 247.08615 8.232863 249.243806 7.71779 Q 251.43601 7.193294 253.414647 6.898069 Q 255.098059 6.643672 257.648302 6.562014 Q 261.413993 6.439527 265.163981 6.417542 Q 271.655794 6.593421 278.138186 6.461512 Q 278.292079 6.458371 278.301502 6.310759 L 296.665136 6.36101 Z M 230.701153 32.749116 Q 230.773389 33.235923 230.575525 33.678761 Q 229.529674 36.558777 229.184198 39.514169 Q 229.155932 39.831379 229.074274 40.101479 Q 228.932942 40.556879 228.910957 40.666804 Q 228.157191 44.598952 227.560459 49.017907 Q 225.952424 60.949402 224.985091 69.840705 C 224.492002 74.400991 224.137104 80.340043 223.961225 83.964403 Q 223.885848 85.497061 223.917255 85.786005 Q 223.936099 85.955602 224.102556 85.968165 C 225.980691 86.093793 228.496386 85.80799 229.787211 87.544793 C 229.850025 87.626451 229.859447 87.736375 229.815477 87.830596 Q 229.573644 88.351951 229.061711 88.235746 Q 226.436091 87.629592 223.98635 88.059867 Q 223.823034 88.088133 223.823034 88.251449 L 223.823034 92.359476 Q 223.823034 92.507089 223.964365 92.547918 Q 226.222524 93.172916 226.627673 93.248292 Q 227.620133 93.430453 228.132066 93.923541 Q 228.248271 94.033466 228.24513 94.196782 C 228.201161 95.68547 224.950543 95.013362 223.854441 94.828061 C 223.744517 94.809217 223.647155 94.894016 223.647155 95.00394 L 223.647155 96.052932 C 223.647155 96.169137 223.741376 96.263358 223.860723 96.266499 L 227.167873 96.282202 L 223.892129 96.354438 Q 223.71311 96.357579 223.772783 96.524036 Q 223.838738 96.709336 223.678562 96.797276 Q 223.53095 96.872652 223.527809 97.039109 L 223.508965 97.635841 L 223.44301 99.645885 Q 223.430448 99.705558 223.417885 99.765231 Q 223.417885 101.61824 223.188614 105.710564 Q 222.956203 109.915952 222.726932 120.82358 Q 222.654696 124.12759 222.871404 126.48311 C 223.700547 135.487478 230.333692 142.309064 239.425999 143.040845 Q 241.586796 143.213583 243.760156 143.194739 L 329.108498 143.201021 Q 336.014883 143.279538 342.911846 143.103659 Q 345.716485 143.031423 348.282431 142.261953 C 355.235927 140.179673 359.648601 133.989367 360.502869 126.922807 Q 360.703874 125.267661 360.59395 121.492548 Q 360.220207 109.036558 359.516692 99.382066 L 359.259155 96.235092 Q 357.42499 74.598855 354.852762 52.959478 Q 354.529271 50.239637 354.080151 47.375325 C 353.681283 44.828222 353.370355 42.252854 352.720231 39.759143 Q 352.767342 39.027362 352.607166 38.254751 Q 352.051264 35.544333 351.212698 33.03806 Q 350.603404 30.073245 349.428785 26.558809 Q 346.768617 18.594011 339.639243 14.448295 C 335.129208 11.825816 330.198319 10.836498 324.972205 10.308862 Q 308.929543 10.2115 292.42834 10.132983 Q 282.981135 10.085872 257.108103 10.312002 C 250.217421 10.371675 243.047218 12.764884 238.091204 17.554441 Q 234.309809 21.207068 232.491348 26.913707 Q 231.150272 31.125377 230.701153 32.749116 Z M 217.120795 87.5762 C 218.41162 86.480098 221.021536 86.106356 222.780324 86.008994 Q 222.940499 85.999572 222.94364 85.842537 Q 223.188614 76.919827 222.30922 69.178018 C 222.296657 69.061813 222.158467 69.00528 222.070527 69.080657 Q 218.383353 72.142833 215.528463 75.70752 C 215.37771 75.895961 215.132736 75.977619 214.900324 75.917946 C 210.066797 74.671091 204.853246 75.179883 200.098236 76.232016 C 199.620851 76.338799 199.218842 76.235156 198.951883 75.851992 Q 196.304279 72.03919 194.781043 70.057412 Q 193.983306 69.014702 192.924893 68.022243 C 192.814968 67.9186 192.632808 67.959429 192.579416 68.10076 Q 192.139719 69.272239 191.897886 70.610174 Q 190.939975 75.961916 190.704423 81.216296 C 190.493996 85.886507 190.563091 89.649058 191.772258 93.78221 Q 191.970122 94.451178 192.394116 95.236351 Q 192.466352 95.371401 192.591979 95.280321 Q 195.864582 92.861987 199.683665 90.842521 Q 200.968208 90.164131 202.127124 89.953705 C 202.491445 89.88461 202.824358 90.170413 202.811796 90.541015 Q 202.789811 91.15345 202.036044 91.483223 C 197.218221 93.584347 192.937456 97.280943 188.169883 99.724402 C 183.810601 101.960576 179.363379 103.51836 175.396683 105.663453 C 166.276109 110.600623 161.128513 119.262656 161.153639 129.652069 Q 161.169342 136.172149 165.110912 141.571001 Q 165.296213 141.822256 165.607142 141.815975 C 172.946942 141.677784 180.880334 141.580423 188.625284 141.973009 Q 194.190592 142.255672 197.124 142.296501 Q 197.75842 142.305923 198.185554 142.233687 Q 198.559297 142.174014 198.424247 141.819115 Q 198.091333 140.958565 197.390959 140.336708 Q 195.299257 138.483699 191.549269 138.405182 Q 190.858317 138.392619 191.156682 137.767621 L 191.200652 137.6734 Q 191.420501 137.214859 191.929293 137.170889 Q 195.107675 136.894508 197.683043 138.85116 C 197.777264 138.920255 197.909173 138.876286 197.943721 138.766361 Q 199.033541 135.047781 198.769723 130.60684 C 198.251509 121.86315 191.863338 116.238168 183.047412 117.079874 Q 182.504072 117.133265 182.532338 116.586785 L 182.535479 116.492564 Q 182.566886 115.817315 183.336356 115.741938 Q 191.28231 114.950484 196.272872 120.452978 C 198.973868 123.430356 200.286678 127.987502 200.208161 131.954198 Q 200.192457 132.883843 200.095096 135.58798 Q 200.066829 136.395138 200.355773 137.032699 Q 200.858284 138.131941 201.144087 138.342368 Q 203.05991 139.736836 203.264055 142.054667 C 203.273477 142.142607 203.345713 142.208561 203.433653 142.208561 L 206.508392 142.208561 C 206.624597 142.208561 206.703115 142.092356 206.662286 141.985572 Q 205.000859 137.572898 204.130887 133.122535 Q 202.494585 124.758869 201.593206 118.577984 C 201.520971 118.075473 201.778507 117.626354 202.123984 117.664043 Q 202.158531 117.667183 202.174235 117.660902 Q 202.78667 117.403365 202.880891 118.028363 Q 203.562421 122.576087 205.161034 131.191009 Q 205.380883 132.37191 205.789173 133.848036 Q 206.103242 134.981826 206.191182 133.807207 Q 206.583768 128.496294 207.158515 124.429096 Q 207.255877 123.731862 207.604494 123.599953 Q 208.201225 123.373823 208.67547 123.756988 C 208.757128 123.822942 208.791676 123.926585 208.76655 124.023947 Q 208.383386 125.591153 208.242054 126.910244 Q 207.984518 129.300312 207.281002 136.608705 Q 207.073716 138.734955 207.293565 139.432188 Q 207.824342 141.125022 208.075598 142.02326 Q 208.119567 142.177154 208.276602 142.177154 L 209.71818 142.177154 Q 209.894059 142.177154 209.8972 142.001276 Q 209.928607 140.876907 210.03225 140.185955 C 211.517798 130.283349 212.463146 120.258255 213.16038 110.35879 Q 213.487012 105.707423 213.238898 100.616359 C 213.232616 100.506435 213.29543 100.402792 213.395932 100.352541 C 216.235119 99.008324 219.04604 97.136471 220.732592 94.435474 C 220.776562 94.360098 220.842516 94.297284 220.917893 94.253314 Q 221.081209 94.149671 221.153445 93.989496 Q 221.228821 93.816758 221.068646 93.722537 Q 219.372672 92.714374 216.191149 91.238249 Q 215.471931 90.905335 215.459368 90.214383 C 215.453086 89.972549 215.65095 89.774685 215.892783 89.780967 Q 217.045418 89.812374 218.091269 90.302322 Q 220.40596 91.37958 222.321783 92.095658 C 222.469395 92.15219 222.62643 92.042266 222.62643 91.885231 L 222.62643 88.025319 C 222.62643 87.934239 222.547913 87.865144 222.456833 87.874566 Q 220.506462 88.103837 219.074306 88.323685 Q 218.128957 88.468157 217.315518 88.317404 C 216.96376 88.251449 216.847554 87.805471 217.120795 87.5762 Z M 198.992712 139.045883 L 199.88781 141.935321 Q 199.972609 142.20228 200.24899 142.20228 L 201.690568 142.20228 Q 202.123984 142.20228 202.048607 141.775146 Q 201.621473 139.400782 199.20628 138.816613 C 199.07123 138.782065 198.951883 138.910833 198.992712 139.045883 Z M 211.184884 142.15517 L 213.810504 142.15517 C 214.052337 142.15517 214.24706 141.954165 214.234497 141.712332 Q 214.146558 139.922137 212.582493 139.152667 Q 212.083122 138.907693 211.580611 139.162089 C 211.486391 139.209199 211.414155 139.293998 211.379607 139.3945 Q 210.955613 140.625652 211.07496 142.054667 Q 211.084382 142.15517 211.184884 142.15517 Z" style="fill:#030303;"/>
		<path d="M 308.797634 6.430105 Q 302.745518 6.681361 296.665136 6.36101 Q 302.739237 6.172568 308.797634 6.430105 Z" style="fill:#182b35;"/>
		<path d="M 245.518944 8.926956 L 243.241941 9.831476 Q 244.297214 9.193915 245.518944 8.926956 Z" style="fill:#182b35;"/>
		<path d="M 344.805684 13.47468 Q 344.240359 13.301942 343.916868 12.802572 Q 344.447645 13.016139 344.805684 13.47468 Z" style="fill:#182b35;"/>
		<path d="M 347.4156 15.899296 L 345.411838 13.967769 L 347.4156 15.899296 Z" style="fill:#3e616d;"/>
		<path d="M 352.66998 24.517358 Q 353.006034 25.092105 353.106536 25.801902 Q 352.720231 25.20203 352.66998 24.517358 Z" style="fill:#182b35;"/>
		<path d="M 353.555656 27.256043 Q 353.747238 27.554409 353.731534 27.925011 Q 353.430028 27.683177 353.555656 27.256043 Z" style="fill:#182b35;"/>
		<path d="M 353.894851 28.430662 Q 354.07387 28.64737 354.070729 29.058801 Q 353.788067 28.713325 353.894851 28.430662 Z" style="fill:#26414e;"/>
		<path d="M 228.040985 28.490336 Q 227.748901 29.931914 227.33747 31.323241 Q 227.139606 31.992209 226.806693 33.490319 Q 226.731316 33.816951 226.571141 34.105895 C 226.52089 34.193835 226.495764 34.291196 226.492624 34.391698 Q 226.489483 34.900491 226.213102 35.277374 L 228.040985 28.490336 Z" style="fill:#26414e;"/>
		<path d="M 226.005816 36.156768 Q 225.930439 36.191316 226.02466 35.971467 Q 226.134585 36.093954 226.062349 36.216441 Q 226.034082 36.266692 225.990113 36.232145 Q 225.961846 36.213301 226.005816 36.156768 Z" style="fill:#26414e;"/>
		<path d="M 225.591245 38.361535 Q 225.698028 38.989673 225.289738 39.539295 Q 225.214361 38.88289 225.591245 38.361535 Z" style="fill:#26414e;"/>
		<path d="M 225.000794 41.266676 Q 224.941121 40.842683 225.095015 40.443815 Q 225.264612 40.848964 225.000794 41.266676 Z" style="fill:#182b35;"/>
		<path d="M 224.680444 43.308127 Q 224.645896 42.899837 224.75582 42.472702 Q 224.98195 42.786772 224.680444 43.308127 Z" style="fill:#26414e;"/>
		<path d="M 224.372656 45.26792 Q 224.328686 44.765409 224.466876 44.288023 Q 224.61763 44.718298 224.372656 45.26792 Z" style="fill:#26414e;"/>
		<path d="M 224.083712 46.703216 L 224.284716 45.500331 Q 224.353811 46.304348 224.083712 46.703216 Z" style="fill:#182b35;"/>
		<path d="M 222.843138 56.41424 L 222.921655 55.698162 Q 222.968766 56.09389 222.843138 56.41424 Z" style="fill:#182b35;"/>
		<path d="M 358.970211 56.4111 Q 359.070713 56.618385 359.076995 56.891626 Q 358.87285 56.825671 358.970211 56.4111 Z" style="fill:#26414e;"/>
		<path d="M 222.623289 58.534208 Q 222.708088 58.955061 222.551053 59.240864 Q 222.485099 58.879685 222.623289 58.534208 Z" style="fill:#182b35;"/>
		<path d="M 359.299984 58.923654 L 359.394205 59.875284 Q 359.164934 59.498401 359.299984 58.923654 Z" style="fill:#26414e;"/>
		<path d="M 359.620335 61.819374 L 359.701993 62.862084 Q 359.406767 62.34701 359.620335 61.819374 Z" style="fill:#26414e;"/>
		<path d="M 359.91556 64.812454 L 360.022343 65.892853 Q 359.786791 65.343232 359.91556 64.812454 Z" style="fill:#3e616d;"/>
		<path d="M 191.841354 66.42363 L 190.767236 69.027265 Q 190.723267 68.898497 190.73897 68.744603 Q 190.968241 67.378401 191.841354 66.42363 Z" style="fill:#3e616d;"/>
		<path d="M 194.064964 67.029784 Q 193.964462 67.14599 193.684941 66.690589 Q 193.91107 66.781669 194.064964 67.029784 Z" style="fill:#182b35;"/>
		<path d="M 360.239051 67.874631 L 360.32385 68.678648 Q 360.078876 68.408548 360.239051 67.874631 Z" style="fill:#3e616d;"/>
		<path d="M 190.73897 68.744603 Q 190.723267 68.898497 190.767236 69.027265 L 190.132816 71.477006 L 190.73897 68.744603 Z" style="fill:#f69507;"/>
		<path d="M 196.499002 69.906659 Q 196.122119 69.755906 195.99335 69.272239 Q 196.35453 69.514072 196.499002 69.906659 Z" style="fill:#182b35;"/>
		<path d="M 197.98455 71.973235 Q 197.309301 71.341956 196.935558 70.50025 Q 197.598244 71.118967 197.98455 71.973235 Z" style="fill:#182b35;"/>
		<path d="M 360.562543 70.936807 L 360.644201 72.098863 Q 360.446337 71.549242 360.562543 70.936807 Z" style="fill:#3e616d;"/>
		<path d="M 216.608862 71.498991 Q 216.348184 72.155396 215.654091 72.504013 Q 216.002708 71.879015 216.608862 71.498991 Z" style="fill:#182b35;"/>
		<path d="M 190.010329 71.72198 Q 190.082565 72.196225 189.87842 72.651625 Q 189.796762 72.120848 190.010329 71.72198 Z" style="fill:#26414e;"/>
		<path d="M 198.264071 72.331274 Q 198.056786 72.262179 198.037942 72.017205 Q 198.245227 72.114567 198.264071 72.331274 Z" style="fill:#182b35;"/>
		<path d="M 198.933039 73.220091 Q 198.446232 72.924865 198.264071 72.331274 Q 198.697487 72.657907 198.933039 73.220091 Z" style="fill:#182b35;"/>
		<path d="M 189.545507 74.661669 L 189.598898 74.074359 Q 189.664853 74.448102 189.545507 74.661669 Z" style="fill:#182b35;"/>
		<path d="M 360.892315 74.746468 L 360.961411 75.352621 Q 360.64106 75.082522 360.892315 74.746468 Z" style="fill:#182b35;"/>
		<path d="M 189.247141 78.028492 L 189.294251 76.831888 Q 189.476411 77.551107 189.247141 78.028492 Z" style="fill:#182b35;"/>
		<path d="M 361.168696 77.494574 L 361.272339 78.571832 Q 360.961411 78.031633 361.168696 77.494574 Z" style="fill:#182b35;"/>
		<path d="M 361.498469 80.792302 L 361.576987 81.725088 Q 361.250354 81.4173 361.498469 80.792302 Z" style="fill:#26414e;"/>
		<path d="M 361.793694 83.873323 L 361.894197 85.157866 Q 361.624097 84.564275 361.793694 83.873323 Z" style="fill:#26414e;"/>
		<path d="M 362.735902 94.941126 Q 362.880374 95.431074 362.848967 96.005821 Q 362.563164 95.572405 362.735902 94.941126 Z" style="fill:#182b35;"/>
		<path d="M 220.264629 97.682951 Q 220.007092 98.421014 220.117016 99.17164 L 220.016514 99.834326 L 218.122676 99.165359 L 220.019655 97.26838 Q 220.427945 96.86009 220.255207 97.397148 Q 220.233222 97.466244 220.264629 97.682951 Z" style="fill:#3e616d;"/>
		<path d="M 220.264629 97.682951 Q 220.355709 98.433577 220.117016 99.17164 Q 220.007092 98.421014 220.264629 97.682951 Z" style="fill:#182b35;"/>
		<path d="M 363.049972 98.468125 Q 363.216428 99.190484 363.141052 99.915984 Q 362.845827 99.240735 363.049972 98.468125 Z" style="fill:#182b35;"/>
		<path d="M 217.912249 99.366363 Q 216.831851 100.434199 215.415398 101.012086 Q 214.862636 101.235076 214.903465 101.847511 Q 215.0605 104.174765 214.916028 106.476893 Q 214.853214 107.337443 214.922309 109.385175 Q 215.010249 111.866323 214.353844 115.93038 L 214.143417 118.490045 Q 213.989523 118.64708 213.97696 118.2859 C 214.278467 114.378877 214.649069 110.355649 214.667913 106.539707 Q 214.680476 103.986323 214.718164 101.448643 C 214.721305 101.285327 214.809244 101.137714 214.947435 101.059197 L 217.912249 99.366363 Z" style="fill:#c3d8d6;"/>
		<path d="M 220.013373 100.198647 Q 220.098172 100.672891 219.978826 101.096885 L 220.013373 100.198647 Z" style="fill:#26414e;"/>
		<path d="M 219.749555 104.523382 L 219.969403 101.282186 L 219.749555 104.523382 Z" style="fill:#26414e;"/>
		<path d="M 176.530473 103.314215 Q 176.634116 103.483812 176.461378 103.552907 Q 176.194419 103.65655 176.034244 103.51836 L 176.530473 103.314215 Z" style="fill:#26414e;"/>
		<path d="M 214.353844 115.93038 Q 215.010249 111.866323 214.922309 109.385175 Q 214.853214 107.337443 214.916028 106.476893 C 215.383991 107.755155 216.037255 109.124497 216.178587 110.377634 Q 216.392154 112.268331 215.811125 114.127622 Q 215.628965 114.70865 214.353844 115.93038 Z" style="fill:#3e616d;"/>
		<path d="M 364.004743 112.868204 L 364.124089 114.064808 Q 363.81002 113.584282 364.004743 112.868204 Z" style="fill:#26414e;"/>
		<path d="M 219.250185 115.302241 L 219.18423 126.046553 Q 218.703704 120.657123 219.250185 115.302241 Z" style="fill:#3e616d;"/>
		<path d="M 213.97696 118.2859 Q 213.989523 118.64708 214.143417 118.490045 L 213.691157 122.293425 L 213.97696 118.2859 Z" style="fill:#3e616d;"/>
		<path d="M 364.31253 121.583628 L 364.303108 124.85623 L 364.246576 122.108124 L 364.31253 121.583628 Z" style="fill:#3e616d;"/>
		<path d="M 364.246576 122.108124 L 364.303108 124.85623 Q 364.347078 125.060376 364.281124 125.26138 L 364.246576 122.108124 Z" style="fill:#26414e;"/>
		<path d="M 213.650328 123.015784 L 213.443043 125.694796 Q 213.232616 124.344297 213.650328 123.015784 Z" style="fill:#26414e;"/>
		<path d="M 212.981361 130.132595 Q 213.075581 132.073544 212.557367 133.976804 Q 212.547945 132.026433 212.981361 130.132595 Z" style="fill:#182b35;"/>
		<path d="M 159.746608 131.479953 L 159.746608 130.760734 Q 159.931909 131.263245 159.746608 131.479953 Z" style="fill:#182b35;"/>
		<path d="M 363.386026 131.37631 L 363.304368 131.633847 Q 363.219569 131.636987 363.228991 131.542767 Q 363.244695 131.370029 363.386026 131.37631 Z" style="fill:#26414e;"/>
		<path d="M 363.254117 131.712364 L 362.644822 133.405198 L 363.254117 131.712364 Z" style="fill:#26414e;"/>
		<path d="M 361.77485 135.377553 L 361.470203 136.030818 Q 361.482766 135.518885 361.77485 135.377553 Z" style="fill:#26414e;"/>
		<path d="M 155.098382 136.9479 Q 154.555042 136.935337 154.156174 136.63069 Q 154.837704 136.505062 155.098382 136.9479 Z" style="fill:#26414e;"/>
		<path d="M 359.007899 139.476158 Q 358.907397 139.774524 358.945085 139.922137 Q 358.985914 140.069749 359.259155 140.000654 Q 359.912419 139.827916 360.421211 139.89387 C 362.019824 140.098015 363.935647 140.154548 365.041171 140.25505 Q 369.011008 140.609948 372.971422 141.008817 L 373.291773 141.002535 L 375.144782 141.363715 L 375.333224 141.765724 Q 375.4086 141.92904 375.248425 142.02012 Q 374.296795 142.547756 373.329461 143.370618 C 371.388513 145.022623 368.200709 145.430913 365.609637 145.603651 Q 358.731518 146.068474 351.570737 146.391965 Q 350.952021 146.420231 349.962702 146.373121 Q 349.099012 146.332292 348.351527 146.401387 Q 351.58016 145.160813 353.420606 144.171495 Q 356.489063 142.522631 359.007899 139.476158 Z" style="fill:#182b35;"/>
		<path d="M 224.730695 139.805931 Q 224.941121 139.931559 225.085593 140.076031 Q 228.83244 143.901395 233.17916 145.32727 Q 236.382667 146.376262 237.224373 146.709175 Q 230.123265 147.051511 223.094393 146.988697 Q 219.196793 146.951008 216.816147 146.991837 C 197.287316 147.337314 177.444415 147.180279 158.257919 146.941586 C 153.082057 146.878772 147.230945 146.894476 141.706465 146.706034 C 140.396796 146.662065 139.319538 146.750004 138.119793 146.706034 Q 137.661252 146.68719 138.009869 146.395106 Q 138.141778 146.285181 138.528083 146.197242 C 141.68134 145.484305 145.503563 144.617473 149.036843 144.215464 Q 153.612834 143.690969 159.611558 143.128785 Q 160.462686 143.047127 161.753511 143.022001 Q 162.824487 143.000016 163.904886 142.918358 Q 164.881642 143.625014 165.77988 143.621873 Q 180.330712 143.574763 186.279186 143.694109 Q 199.137184 143.954787 211.894681 143.854285 C 212.598196 143.848003 214.532863 143.738079 215.139017 143.034564 Q 215.396554 142.736198 215.475071 142.095496 Q 215.622684 140.880048 215.318037 139.953544 Q 219.975685 139.623771 224.730695 139.805931 Z" style="fill:#182b35;"/>
		<path d="M 373.291773 141.002535 L 372.971422 141.008817 L 373.291773 141.002535 Z" style="fill:#030303;"/>
		<path d="M 162.736548 141.316604 L 163.904886 142.918358 Q 162.824487 143.000016 161.753511 143.022001 Q 160.462686 143.047127 159.611558 143.128785 Q 153.612834 143.690969 149.036843 144.215464 C 145.503563 144.617473 141.68134 145.484305 138.528083 146.197242 Q 138.141778 146.285181 138.009869 146.395106 Q 137.661252 146.68719 138.119793 146.706034 C 139.319538 146.750004 140.396796 146.662065 141.706465 146.706034 C 147.230945 146.894476 153.082057 146.878772 158.257919 146.941586 C 177.444415 147.180279 197.287316 147.337314 216.816147 146.991837 Q 219.196793 146.951008 223.094393 146.988697 Q 230.123265 147.051511 237.224373 146.709175 Q 238.395851 146.696612 239.645847 146.828521 Q 241.279008 146.998119 242.051619 146.988697 C 245.566054 146.941586 248.722451 146.853647 252.582363 146.853647 Q 301.979189 146.872491 341.501674 146.925883 Q 344.485333 146.929024 348.351527 146.401387 Q 349.099012 146.332292 349.962702 146.373121 Q 350.952021 146.420231 351.570737 146.391965 Q 358.731518 146.068474 365.609637 145.603651 C 368.200709 145.430913 371.388513 145.022623 373.329461 143.370618 Q 374.296795 142.547756 375.248425 142.02012 Q 375.4086 141.92904 375.333224 141.765724 L 375.144782 141.363715 Q 377.603945 141.596126 379.686225 142.651399 Q 380.832578 143.232427 381.699409 143.518231 Q 384.325029 144.378781 386.523514 145.68845 Q 387.346376 147.368721 386.080676 148.339195 Q 384.334451 149.375624 383.725156 149.579769 Q 381.014738 150.481148 378.206958 151.043332 C 376.281713 151.429637 373.219537 151.8976 370.700701 152.145715 Q 360.289302 153.160159 359.325109 153.222973 Q 354.824496 153.518198 341.815744 153.957895 Q 332.880471 154.256261 315.590954 154.262543 Q 264.246899 154.278246 223.568638 154.281387 Q 197.774123 154.281387 171.979609 154.215432 L 169.793686 154.20601 Q 161.329517 154.105508 152.859067 153.97988 C 149.60845 153.93277 145.333966 153.668952 142.36287 153.656389 C 138.173185 153.637545 135.054477 153.376867 130.211527 153.204129 Q 128.493568 153.144456 117.410061 151.957274 C 115.236701 151.724862 112.997387 151.291447 110.538224 150.902001 Q 109.451544 150.729263 108.440241 150.427756 C 106.332836 149.799617 104.778192 149.444719 103.104203 148.138191 Q 102.513752 147.679649 102.50119 147.136309 Q 102.485486 146.492467 102.677068 146.00566 C 102.714757 145.908298 102.790133 145.832922 102.887495 145.792093 Q 103.5439 145.515712 104.526937 144.96295 Q 105.374924 144.482423 109.124912 143.621873 Q 114.134318 142.47238 121.207159 142.02326 Q 128.861029 141.533312 134.768673 141.3857 C 142.664377 141.184695 150.566361 141.439092 158.484049 141.291479 Q 160.563188 141.253791 162.736548 141.316604 Z" style="fill:#26414e;"/>
		<path d="M 386.523514 145.68845 Q 387.811198 147.079777 386.080676 148.339195 Q 387.346376 147.368721 386.523514 145.68845 Z" style="fill:#3e616d;"/>
		<path d="M 171.979609 154.215432 L 169.793686 154.20601 L 171.979609 154.215432 Z" style="fill:#182b35;"/>
		<path d="M 324.972205 10.308862 Q 326.702727 16.430073 330.063269 22.479048 Q 330.33965 22.978419 329.877968 23.138594 Q 326.44205 22.196386 322.893066 22.199527 Q 290.663271 22.249778 258.430335 22.202667 Q 252.742539 22.193245 246.743814 24.558187 Q 245.292814 25.129794 241.056019 27.218355 Q 237.086182 29.178147 232.874513 31.477135 Q 231.398387 32.281152 230.701153 32.749116 Q 231.150272 31.125377 232.491348 26.913707 Q 234.309809 21.207068 238.091204 17.554441 C 243.047218 12.764884 250.217421 10.371675 257.108103 10.312002 Q 282.981135 10.085872 292.42834 10.132983 Q 308.929543 10.2115 324.972205 10.308862 Z" style="fill:#fdfefe;"/>
		<path d="M 351.212698 33.03806 Q 344.705182 29.796864 338.254197 26.583935 Q 334.174437 24.555047 329.877968 23.138594 Q 330.33965 22.978419 330.063269 22.479048 Q 326.702727 16.430073 324.972205 10.308862 C 330.198319 10.836498 335.129208 11.825816 339.639243 14.448295 Q 346.768617 18.594011 349.428785 26.558809 Q 350.603404 30.073245 351.212698 33.03806 Z" style="fill:#c3d8d6;"/>
		<path d="M 329.877968 23.138594 Q 334.174437 24.555047 338.254197 26.583935 Q 344.705182 29.796864 351.212698 33.03806 Q 352.051264 35.544333 352.607166 38.254751 Q 352.767342 39.027362 352.720231 39.759143 Q 351.567597 38.798091 349.780542 37.761662 Q 341.768633 33.119718 334.846545 29.705784 Q 333.426952 29.005409 332.032484 28.358426 Q 331.143668 26.810065 330.254851 25.289969 Q 329.849702 24.595876 329.416286 24.322635 Q 328.825836 23.952034 328.185135 23.813843 C 324.391177 23.000403 320.019332 23.235955 316.561428 23.223393 Q 306.913218 23.185704 300.795148 23.223393 Q 297.732972 23.242237 294.51062 23.204549 C 287.371824 23.126031 277.971729 23.204549 268.838592 23.022388 Q 263.945392 22.925027 257.890135 23.151157 Q 254.237509 23.286207 249.479358 24.573891 C 247.651475 25.07012 246.159646 25.742229 244.353747 26.398634 C 242.161543 27.193229 239.064819 29.112193 237.359423 29.966461 Q 235.383927 30.95578 233.420993 31.963942 C 233.078658 32.136681 232.777151 32.460172 232.507051 32.601503 Q 231.115724 33.327003 230.575525 33.678761 Q 230.773389 33.235923 230.701153 32.749116 Q 231.398387 32.281152 232.874513 31.477135 Q 237.086182 29.178147 241.056019 27.218355 Q 245.292814 25.129794 246.743814 24.558187 Q 252.742539 22.193245 258.430335 22.202667 Q 290.663271 22.249778 322.893066 22.199527 Q 326.44205 22.196386 329.877968 23.138594 Z" style="fill:#26414e;"/>
		<path d="M 332.032484 28.358426 L 331.671304 28.298753 Q 327.858502 26.794361 323.750475 26.762954 Q 311.504912 26.665593 296.998049 26.766095 Q 293.634367 26.79122 290.719803 26.781798 Q 261.94477 26.690718 259.843647 26.687578 Q 256.866269 26.684437 254.435373 26.979662 Q 251.414026 27.343982 248.455492 28.644229 Q 247.095572 29.196992 244.586158 30.478394 Q 236.134552 34.787426 229.184198 39.514169 Q 229.529674 36.558777 230.575525 33.678761 Q 231.115724 33.327003 232.507051 32.601503 C 232.777151 32.460172 233.078658 32.136681 233.420993 31.963942 Q 235.383927 30.95578 237.359423 29.966461 C 239.064819 29.112193 242.161543 27.193229 244.353747 26.398634 C 246.159646 25.742229 247.651475 25.07012 249.479358 24.573891 Q 254.237509 23.286207 257.890135 23.151157 Q 263.945392 22.925027 268.838592 23.022388 C 277.971729 23.204549 287.371824 23.126031 294.51062 23.204549 Q 297.732972 23.242237 300.795148 23.223393 Q 306.913218 23.185704 316.561428 23.223393 C 320.019332 23.235955 324.391177 23.000403 328.185135 23.813843 Q 328.825836 23.952034 329.416286 24.322635 Q 329.849702 24.595876 330.254851 25.289969 Q 331.143668 26.810065 332.032484 28.358426 Z" style="fill:#3e616d;"/>
		<path d="M 331.671304 28.298753 Q 331.891153 28.999128 332.23977 29.649251 Q 332.710874 30.528646 332.87733 30.958921 Q 334.623556 35.494082 335.631719 39.275477 Q 337.739124 47.164898 339.664369 57.246524 C 341.184464 65.208182 342.085843 73.358281 342.638605 81.464411 Q 343.144257 88.879588 343.725285 96.263358 Q 338.637362 96.150293 336.102823 96.401548 Q 327.977849 97.196144 323.580878 103.958057 C 320.864178 108.13832 318.533784 112.258909 315.101006 116.222464 C 310.355418 121.439156 305.232947 126.696677 297.911991 127.428458 Q 296.146921 127.604337 294.162003 127.620041 Q 286.074718 127.682855 277.987432 127.620041 Q 271.787704 127.57293 266.79086 123.888897 Q 261.746907 120.173457 257.908979 115.176613 C 255.022682 111.432907 253.584245 108.86382 250.669681 104.133936 C 248.201096 100.120129 244.196712 96.885215 239.441702 96.329313 Q 238.191706 96.184841 235.98694 96.235092 Q 235.751388 93.832461 235.767091 92.456838 C 235.864453 84.875204 236.464325 77.211912 237.155278 69.602012 Q 237.642085 64.243989 238.367585 59.435587 Q 238.79472 56.624667 241.181647 46.696935 Q 242.909028 39.51731 245.236282 33.559415 Q 246.099972 31.342085 247.598083 29.884803 Q 247.836776 29.652392 248.455492 28.644229 Q 251.414026 27.343982 254.435373 26.979662 Q 256.866269 26.684437 259.843647 26.687578 Q 261.94477 26.690718 290.719803 26.781798 Q 293.634367 26.79122 296.998049 26.766095 Q 311.504912 26.665593 323.750475 26.762954 Q 327.858502 26.794361 331.671304 28.298753 Z M 307.104801 112.629511 C 325.374214 99.466865 327.236645 70.883415 310.223509 55.839493 C 291.630604 39.397964 262.268262 47.102084 254.488764 70.597612 C 251.285257 80.280369 252.035883 91.20056 256.555341 100.252039 C 265.967999 119.089917 290.013147 124.947311 307.104801 112.629511 Z" style="fill:#f7f7ef;"/>
		<path d="M 332.032484 28.358426 Q 333.426952 29.005409 334.846545 29.705784 Q 341.768633 33.119718 349.780542 37.761662 Q 351.567597 38.798091 352.720231 39.759143 C 353.370355 42.252854 353.681283 44.828222 354.080151 47.375325 Q 354.529271 50.239637 354.852762 52.959478 Q 357.42499 74.598855 359.259155 96.235092 L 343.725285 96.263358 Q 343.144257 88.879588 342.638605 81.464411 C 342.085843 73.358281 341.184464 65.208182 339.664369 57.246524 Q 337.739124 47.164898 335.631719 39.275477 Q 334.623556 35.494082 332.87733 30.958921 Q 332.710874 30.528646 332.23977 29.649251 Q 331.891153 28.999128 331.671304 28.298753 L 332.032484 28.358426 Z" style="fill:#c3d8d6;"/>
		<path d="M 248.455492 28.644229 Q 247.836776 29.652392 247.598083 29.884803 Q 246.099972 31.342085 245.236282 33.559415 Q 242.909028 39.51731 241.181647 46.696935 Q 238.79472 56.624667 238.367585 59.435587 Q 237.642085 64.243989 237.155278 69.602012 C 236.464325 77.211912 235.864453 84.875204 235.767091 92.456838 Q 235.751388 93.832461 235.98694 96.235092 L 227.167873 96.282202 L 223.860723 96.266499 C 223.741376 96.263358 223.647155 96.169137 223.647155 96.052932 L 223.647155 95.00394 C 223.647155 94.894016 223.744517 94.809217 223.854441 94.828061 C 224.950543 95.013362 228.201161 95.68547 228.24513 94.196782 Q 228.248271 94.033466 228.132066 93.923541 Q 227.620133 93.430453 226.627673 93.248292 Q 226.222524 93.172916 223.964365 92.547918 Q 223.823034 92.507089 223.823034 92.359476 L 223.823034 88.251449 Q 223.823034 88.088133 223.98635 88.059867 Q 226.436091 87.629592 229.061711 88.235746 Q 229.573644 88.351951 229.815477 87.830596 C 229.859447 87.736375 229.850025 87.626451 229.787211 87.544793 C 228.496386 85.80799 225.980691 86.093793 224.102556 85.968165 Q 223.936099 85.955602 223.917255 85.786005 Q 223.885848 85.497061 223.961225 83.964403 C 224.137104 80.340043 224.492002 74.400991 224.985091 69.840705 Q 225.952424 60.949402 227.560459 49.017907 Q 228.157191 44.598952 228.910957 40.666804 Q 228.932942 40.556879 229.074274 40.101479 Q 229.155932 39.831379 229.184198 39.514169 Q 236.134552 34.787426 244.586158 30.478394 Q 247.095572 29.196992 248.455492 28.644229 Z" style="fill:#fdfefe;"/>
		<path d="M 217.120795 87.5762 C 216.847554 87.805471 216.96376 88.251449 217.315518 88.317404 Q 218.128957 88.468157 219.074306 88.323685 Q 220.506462 88.103837 222.456833 87.874566 C 222.547913 87.865144 222.62643 87.934239 222.62643 88.025319 L 222.62643 91.885231 C 222.62643 92.042266 222.469395 92.15219 222.321783 92.095658 Q 220.40596 91.37958 218.091269 90.302322 Q 217.045418 89.812374 215.892783 89.780967 C 215.65095 89.774685 215.453086 89.972549 215.459368 90.214383 Q 215.471931 90.905335 216.191149 91.238249 Q 219.372672 92.714374 221.068646 93.722537 Q 221.228821 93.816758 221.153445 93.989496 Q 221.081209 94.149671 220.917893 94.253314 C 220.842516 94.297284 220.776562 94.360098 220.732592 94.435474 C 219.04604 97.136471 216.235119 99.008324 213.395932 100.352541 C 213.29543 100.402792 213.232616 100.506435 213.238898 100.616359 Q 213.487012 105.707423 213.16038 110.35879 C 212.463146 120.258255 211.517798 130.283349 210.03225 140.185955 Q 209.928607 140.876907 209.8972 142.001276 Q 209.894059 142.177154 209.71818 142.177154 L 208.276602 142.177154 Q 208.119567 142.177154 208.075598 142.02326 Q 207.824342 141.125022 207.293565 139.432188 Q 207.073716 138.734955 207.281002 136.608705 Q 207.984518 129.300312 208.242054 126.910244 Q 208.383386 125.591153 208.76655 124.023947 C 208.791676 123.926585 208.757128 123.822942 208.67547 123.756988 Q 208.201225 123.373823 207.604494 123.599953 Q 207.255877 123.731862 207.158515 124.429096 Q 206.583768 128.496294 206.191182 133.807207 Q 206.103242 134.981826 205.789173 133.848036 Q 205.380883 132.37191 205.161034 131.191009 Q 203.562421 122.576087 202.880891 118.028363 Q 202.78667 117.403365 202.174235 117.660902 Q 202.158531 117.667183 202.123984 117.664043 C 201.778507 117.626354 201.520971 118.075473 201.593206 118.577984 Q 202.494585 124.758869 204.130887 133.122535 Q 205.000859 137.572898 206.662286 141.985572 C 206.703115 142.092356 206.624597 142.208561 206.508392 142.208561 L 203.433653 142.208561 C 203.345713 142.208561 203.273477 142.142607 203.264055 142.054667 Q 203.05991 139.736836 201.144087 138.342368 Q 200.858284 138.131941 200.355773 137.032699 Q 200.066829 136.395138 200.095096 135.58798 Q 200.192457 132.883843 200.208161 131.954198 C 200.286678 127.987502 198.973868 123.430356 196.272872 120.452978 Q 191.28231 114.950484 183.336356 115.741938 Q 182.566886 115.817315 182.535479 116.492564 L 182.532338 116.586785 Q 182.504072 117.133265 183.047412 117.079874 C 191.863338 116.238168 198.251509 121.86315 198.769723 130.60684 Q 199.033541 135.047781 197.943721 138.766361 C 197.909173 138.876286 197.777264 138.920255 197.683043 138.85116 Q 195.107675 136.894508 191.929293 137.170889 Q 191.420501 137.214859 191.200652 137.6734 L 191.156682 137.767621 Q 190.858317 138.392619 191.549269 138.405182 Q 195.299257 138.483699 197.390959 140.336708 Q 198.091333 140.958565 198.424247 141.819115 Q 198.559297 142.174014 198.185554 142.233687 Q 197.75842 142.305923 197.124 142.296501 Q 194.190592 142.255672 188.625284 141.973009 C 180.880334 141.580423 172.946942 141.677784 165.607142 141.815975 Q 165.296213 141.822256 165.110912 141.571001 Q 161.169342 136.172149 161.153639 129.652069 C 161.128513 119.262656 166.276109 110.600623 175.396683 105.663453 C 179.363379 103.51836 183.810601 101.960576 188.169883 99.724402 C 192.937456 97.280943 197.218221 93.584347 202.036044 91.483223 Q 202.789811 91.15345 202.811796 90.541015 C 202.824358 90.170413 202.491445 89.88461 202.127124 89.953705 Q 200.968208 90.164131 199.683665 90.842521 Q 195.864582 92.861987 192.591979 95.280321 Q 192.466352 95.371401 192.394116 95.236351 Q 191.970122 94.451178 191.772258 93.78221 C 190.563091 89.649058 190.493996 85.886507 190.704423 81.216296 Q 190.939975 75.961916 191.897886 70.610174 Q 192.139719 69.272239 192.579416 68.10076 C 192.632808 67.959429 192.814968 67.9186 192.924893 68.022243 Q 193.983306 69.014702 194.781043 70.057412 Q 196.304279 72.03919 198.951883 75.851992 C 199.218842 76.235156 199.620851 76.338799 200.098236 76.232016 C 204.853246 75.179883 210.066797 74.671091 214.900324 75.917946 C 215.132736 75.977619 215.37771 75.895961 215.528463 75.70752 Q 218.383353 72.142833 222.070527 69.080657 C 222.158467 69.00528 222.296657 69.061813 222.30922 69.178018 Q 223.188614 76.919827 222.94364 85.842537 Q 222.940499 85.999572 222.780324 86.008994 C 221.021536 86.106356 218.41162 86.480098 217.120795 87.5762 Z M 215.644669 86.279094 Q 215.92105 86.483239 216.172305 86.451832 C 216.470671 86.417284 216.64655 86.100074 216.517781 85.829975 Q 216.279089 85.336886 215.886502 85.164148 Q 214.29103 84.463773 212.956235 85.481358 C 212.79606 85.603845 212.701839 85.792286 212.701839 85.993291 L 212.701839 86.087511 Q 212.701839 86.407862 212.993923 86.275953 C 213.901584 85.864522 214.890902 85.71691 215.644669 86.279094 Z M 202.730137 86.718791 C 204.096339 86.140903 204.567443 86.03726 206.056132 86.502083 Q 206.329372 86.586882 206.398467 86.30736 Q 206.426734 86.197436 206.392186 86.122059 C 206.282262 85.886507 206.059272 85.67294 205.764047 85.515905 Q 204.583147 84.894048 203.113302 85.515905 C 202.83064 85.635252 202.613932 85.870804 202.522852 86.162888 L 202.431772 86.448691 Q 202.2873 86.907232 202.730137 86.718791 Z M 209.777853 90.635235 C 211.131492 91.640257 213.081863 92.111361 214.190528 90.588125 Q 214.872058 89.652198 213.731986 89.862625 Q 213.631484 89.881469 213.088144 90.198679 C 212.277845 90.676064 211.159759 90.47506 210.556745 89.947424 C 210.198706 89.636495 210.142174 89.102577 210.424836 88.722553 C 211.012146 87.934239 211.6183 86.957483 210.911644 86.074949 C 210.44368 85.49078 208.706877 85.358871 208.22007 85.949321 C 207.761528 86.511505 207.657885 86.951202 208.050472 87.629592 C 208.436777 88.295419 209.093182 89.25333 208.483888 89.865766 C 207.196203 91.166013 206.074976 90.349432 204.821839 89.636495 C 204.64282 89.532852 204.426112 89.689887 204.466941 89.894032 Q 204.708774 91.071792 205.971333 91.448675 Q 207.689292 91.966889 209.30989 90.647798 Q 209.539161 90.459357 209.777853 90.635235 Z M 197.343848 88.813633 Q 200.955646 88.84504 202.262174 88.816774 C 202.547977 88.810493 202.733278 88.508986 202.60765 88.251449 C 201.985793 86.957483 197.566838 87.105096 196.021616 87.293538 Q 194.900389 87.431728 193.904789 87.965646 Q 193.515343 88.176073 193.618986 88.606348 C 193.776021 89.269034 194.426144 89.322426 194.99775 89.190516 Q 196.700006 88.807352 197.343848 88.813633 Z" style="fill:#f69507;"/>
		<path d="M 235.98694 96.235092 Q 238.191706 96.184841 239.441702 96.329313 C 244.196712 96.885215 248.201096 100.120129 250.669681 104.133936 C 253.584245 108.86382 255.022682 111.432907 257.908979 115.176613 L 257.714256 115.556637 C 257.648302 115.688547 257.469282 115.707391 257.371921 115.594326 C 255.50949 113.408403 253.725576 111.247606 252.287138 108.769599 Q 250.123201 105.047877 249.316042 104.06484 Q 248.000092 102.463087 247.654616 102.02653 Q 246.652734 100.745127 245.839295 100.120129 Q 243.640809 98.430436 241.021471 97.792876 Q 239.535923 97.431696 235.798498 97.400289 Q 230.91472 97.362601 226.027801 97.293505 Q 225.082452 97.280943 223.508965 97.635841 L 223.527809 97.039109 Q 223.53095 96.872652 223.678562 96.797276 Q 223.838738 96.709336 223.772783 96.524036 Q 223.71311 96.357579 223.892129 96.354438 L 227.167873 96.282202 L 235.98694 96.235092 Z" style="fill:#182b35;"/>
		<path d="M 343.725285 96.263358 L 359.259155 96.235092 L 359.516692 99.382066 L 343.850913 99.564227 Q 339.827685 99.539101 336.875433 99.768372 Q 334.727199 99.934829 332.359116 100.798519 Q 333.159993 99.567367 334.830842 99.181062 Q 335.14177 99.108826 337.660606 98.870133 Q 337.751687 98.860711 342.469008 98.521516 Q 342.779937 98.499532 343.662471 98.339356 C 343.863476 98.301668 343.907446 98.034709 343.728426 97.937348 Q 342.999785 97.538479 341.957075 97.478806 C 337.227191 97.202425 331.953967 97.689233 328.30134 100.600656 Q 325.550093 102.792859 324.127359 105.073003 C 321.140559 109.86256 319.212174 112.711169 316.470348 115.741938 Q 315.948993 116.319826 315.101006 116.222464 C 318.533784 112.258909 320.864178 108.13832 323.580878 103.958057 Q 327.977849 97.196144 336.102823 96.401548 Q 338.637362 96.150293 343.725285 96.263358 Z" style="fill:#182b35;"/>
		<path d="M 257.908979 115.176613 Q 261.746907 120.173457 266.79086 123.888897 Q 271.787704 127.57293 277.987432 127.620041 Q 286.074718 127.682855 294.162003 127.620041 Q 296.146921 127.604337 297.911991 127.428458 C 305.232947 126.696677 310.355418 121.439156 315.101006 116.222464 Q 315.948993 116.319826 316.470348 115.741938 C 319.212174 112.711169 321.140559 109.86256 324.127359 105.073003 Q 325.550093 102.792859 328.30134 100.600656 C 331.953967 97.689233 337.227191 97.202425 341.957075 97.478806 Q 342.999785 97.538479 343.728426 97.937348 C 343.907446 98.034709 343.863476 98.301668 343.662471 98.339356 Q 342.779937 98.499532 342.469008 98.521516 Q 337.751687 98.860711 337.660606 98.870133 Q 335.14177 99.108826 334.830842 99.181062 Q 333.159993 99.567367 332.359116 100.798519 Q 329.300081 102.20555 327.613528 104.149639 Q 325.974086 106.040336 325.013034 107.601261 Q 322.224098 112.136422 320.170085 114.849981 C 316.379268 119.859387 311.712198 124.476207 306.395004 127.519538 C 302.761222 129.601818 298.942138 130.15144 294.711624 130.176565 Q 286.919564 130.226816 277.984292 130.176565 C 274.385057 130.15458 270.474894 129.529582 267.362467 127.56979 Q 260.179701 123.037769 254.963009 116.285278 C 252.601208 113.232524 250.701088 109.912811 248.468055 106.492596 Q 245.371331 101.756431 240.239439 100.104426 C 238.684795 99.605056 236.797239 99.551664 235.110686 99.551664 Q 229.2847 99.545383 223.44301 99.645885 L 223.508965 97.635841 Q 225.082452 97.280943 226.027801 97.293505 Q 230.91472 97.362601 235.798498 97.400289 Q 239.535923 97.431696 241.021471 97.792876 Q 243.640809 98.430436 245.839295 100.120129 Q 246.652734 100.745127 247.654616 102.02653 Q 248.000092 102.463087 249.316042 104.06484 Q 250.123201 105.047877 252.287138 108.769599 C 253.725576 111.247606 255.50949 113.408403 257.371921 115.594326 C 257.469282 115.707391 257.648302 115.688547 257.714256 115.556637 L 257.908979 115.176613 Z" style="fill:#26414e;"/>
		<path d="M 359.516692 99.382066 Q 360.220207 109.036558 360.59395 121.492548 Q 360.703874 125.267661 360.502869 126.922807 C 359.648601 133.989367 355.235927 140.179673 348.282431 142.261953 Q 345.716485 143.031423 342.911846 143.103659 Q 336.014883 143.279538 329.108498 143.201021 L 331.37922 143.084815 Q 331.536254 143.075393 331.661882 142.981172 C 332.412508 142.425269 333.181978 142.670243 333.970292 142.412706 C 340.898661 140.157689 344.504177 134.309718 344.689478 127.199188 Q 344.840232 121.458 344.453926 112.934158 Q 344.15242 106.266466 343.850913 99.564227 L 359.516692 99.382066 Z" style="fill:#c3d8d6;"/>
		<path d="M 332.359116 100.798519 Q 334.727199 99.934829 336.875433 99.768372 Q 339.827685 99.539101 343.850913 99.564227 Q 344.15242 106.266466 344.453926 112.934158 Q 344.840232 121.458 344.689478 127.199188 C 344.504177 134.309718 340.898661 140.157689 333.970292 142.412706 C 333.181978 142.670243 332.412508 142.425269 331.661882 142.981172 Q 331.536254 143.075393 331.37922 143.084815 L 329.108498 143.201021 L 243.760156 143.194739 L 245.27397 143.1068 Q 245.402738 143.100518 245.346206 142.984313 Q 245.007011 142.309064 244.539048 142.048386 Q 241.523982 140.368115 239.724365 137.613727 Q 235.657167 131.395154 235.349379 123.920304 C 235.063576 117.032763 235.267721 110.613186 235.35252 101.765853 Q 235.361942 101.012086 235.236314 100.035331 Q 235.214329 99.875155 235.057294 99.85003 Q 234.243855 99.724402 233.945489 99.727543 Q 228.716234 99.765231 223.417885 99.765231 Q 223.430448 99.705558 223.44301 99.645885 Q 229.2847 99.545383 235.110686 99.551664 C 236.797239 99.551664 238.684795 99.605056 240.239439 100.104426 Q 245.371331 101.756431 248.468055 106.492596 C 250.701088 109.912811 252.601208 113.232524 254.963009 116.285278 Q 260.179701 123.037769 267.362467 127.56979 C 270.474894 129.529582 274.385057 130.15458 277.984292 130.176565 Q 286.919564 130.226816 294.711624 130.176565 C 298.942138 130.15144 302.761222 129.601818 306.395004 127.519538 C 311.712198 124.476207 316.379268 119.859387 320.170085 114.849981 Q 322.224098 112.136422 325.013034 107.601261 Q 325.974086 106.040336 327.613528 104.149639 Q 329.300081 102.20555 332.359116 100.798519 Z" style="fill:#f7f7ef;"/>
		<path d="M 243.760156 143.194739 Q 241.586796 143.213583 239.425999 143.040845 C 230.333692 142.309064 223.700547 135.487478 222.871404 126.48311 Q 222.654696 124.12759 222.726932 120.82358 Q 222.956203 109.915952 223.188614 105.710564 Q 223.417885 101.61824 223.417885 99.765231 Q 228.716234 99.765231 233.945489 99.727543 Q 234.243855 99.724402 235.057294 99.85003 Q 235.214329 99.875155 235.236314 100.035331 Q 235.361942 101.012086 235.35252 101.765853 C 235.267721 110.613186 235.063576 117.032763 235.349379 123.920304 Q 235.657167 131.395154 239.724365 137.613727 Q 241.523982 140.368115 244.539048 142.048386 Q 245.007011 142.309064 245.346206 142.984313 Q 245.402738 143.100518 245.27397 143.1068 L 243.760156 143.194739 Z" style="fill:#fdfefe;"/>
		<path d="M 216.253963 112.937299 C 216.307355 110.908411 216.282229 109.350627 215.28663 107.469352 Q 215.270926 107.444226 215.277208 107.41596 L 215.299192 107.318599 C 215.308614 107.28091 215.355725 107.271488 215.37771 107.302895 C 216.640268 109.036558 216.725067 110.880145 216.345043 112.946721 Q 216.23826 113.527749 216.253963 112.937299 Z" style="fill:#3e616d;"/>
		<path d="M 215.865616 114.98613 C 215.899065 115.038423 215.641528 115.270834 215.290022 115.50915 C 214.938013 115.745079 214.623943 115.895832 214.588296 115.844482 C 214.554848 115.792189 214.812385 115.559778 215.163891 115.321462 C 215.5159 115.085533 215.82997 114.93478 215.865616 114.98613 Z" style="fill:#3e616d;"/>
		<path d="M 199.88781 141.935321 L 198.992712 139.045883 C 198.951883 138.910833 199.07123 138.782065 199.20628 138.816613 Q 201.621473 139.400782 202.048607 141.775146 Q 202.123984 142.20228 201.690568 142.20228 L 200.24899 142.20228 Q 199.972609 142.20228 199.88781 141.935321 Z" style="fill:#f69507;"/>
		<path d="M 211.184884 142.15517 Q 211.084382 142.15517 211.07496 142.054667 Q 210.955613 140.625652 211.379607 139.3945 C 211.414155 139.293998 211.486391 139.209199 211.580611 139.162089 Q 212.083122 138.907693 212.582493 139.152667 Q 214.146558 139.922137 214.234497 141.712332 C 214.24706 141.954165 214.052337 142.15517 213.810504 142.15517 L 211.184884 142.15517 Z" style="fill:#f69507;"/>
		<path d="M 310.223509 55.839493 C 327.236645 70.883415 325.374214 99.466865 307.104801 112.629511 C 290.013147 124.947311 265.967999 119.089917 256.555341 100.252039 C 252.035883 91.20056 251.285257 80.280369 254.488764 70.597612 C 262.268262 47.102084 291.630604 39.397964 310.223509 55.839493 Z M 258.235612 95.204944 Q 259.645783 99.017746 262.177182 102.105048 Q 262.745647 102.993864 263.838609 104.149639 Q 267.290231 107.799125 271.662076 110.170348 Q 278.191577 113.706769 285.616176 114.052245 Q 293.351704 114.410284 300.333466 111.319842 Q 308.709695 107.610683 313.847869 100.120129 L 316.209671 95.59439 Q 318.24484 90.493904 318.60916 85.767161 Q 319.780639 70.660426 309.161955 59.686843 C 302.645016 52.953196 293.141278 49.872176 283.904499 50.858354 Q 274.102395 51.904205 266.734328 58.427425 Q 264.454184 60.450031 263.433459 61.71259 Q 255.28336 71.835045 255.851825 84.514024 Q 256.087377 89.758982 258.235612 95.204944 Z" style="fill:#3e616d;"/>
		<path d="M 215.644669 86.279094 C 214.890902 85.71691 213.901584 85.864522 212.993923 86.275953 Q 212.701839 86.407862 212.701839 86.087511 L 212.701839 85.993291 C 212.701839 85.792286 212.79606 85.603845 212.956235 85.481358 Q 214.29103 84.463773 215.886502 85.164148 Q 216.279089 85.336886 216.517781 85.829975 C 216.64655 86.100074 216.470671 86.417284 216.172305 86.451832 Q 215.92105 86.483239 215.644669 86.279094 Z" style="fill:#030303;"/>
		<path d="M 206.056132 86.502083 C 204.567443 86.03726 204.096339 86.140903 202.730137 86.718791 Q 202.2873 86.907232 202.431772 86.448691 L 202.522852 86.162888 C 202.613932 85.870804 202.83064 85.635252 203.113302 85.515905 Q 204.583147 84.894048 205.764047 85.515905 C 206.059272 85.67294 206.282262 85.886507 206.392186 86.122059 Q 206.426734 86.197436 206.398467 86.30736 Q 206.329372 86.586882 206.056132 86.502083 Z" style="fill:#030303;"/>
		<path d="M 209.777853 90.635235 Q 209.539161 90.459357 209.30989 90.647798 Q 207.689292 91.966889 205.971333 91.448675 Q 204.708774 91.071792 204.466941 89.894032 C 204.426112 89.689887 204.64282 89.532852 204.821839 89.636495 C 206.074976 90.349432 207.196203 91.166013 208.483888 89.865766 C 209.093182 89.25333 208.436777 88.295419 208.050472 87.629592 C 207.657885 86.951202 207.761528 86.511505 208.22007 85.949321 C 208.706877 85.358871 210.44368 85.49078 210.911644 86.074949 C 211.6183 86.957483 211.012146 87.934239 210.424836 88.722553 C 210.142174 89.102577 210.198706 89.636495 210.556745 89.947424 C 211.159759 90.47506 212.277845 90.676064 213.088144 90.198679 Q 213.631484 89.881469 213.731986 89.862625 Q 214.872058 89.652198 214.190528 90.588125 C 213.081863 92.111361 211.131492 91.640257 209.777853 90.635235 Z" style="fill:#030303;"/>
		<path d="M 197.343848 88.813633 Q 196.700006 88.807352 194.99775 89.190516 C 194.426144 89.322426 193.776021 89.269034 193.618986 88.606348 Q 193.515343 88.176073 193.904789 87.965646 Q 194.900389 87.431728 196.021616 87.293538 C 197.566838 87.105096 201.985793 86.957483 202.60765 88.251449 C 202.733278 88.508986 202.547977 88.810493 202.262174 88.816774 Q 200.955646 88.84504 197.343848 88.813633 Z" style="fill:#030303;"/>
		<path d="M 316.209671 95.59439 Q 314.956534 95.355698 313.791337 95.327431 Q 309.746124 95.239492 305.69777 95.252055 Q 289.249959 95.302306 272.802147 95.217507 C 269.363088 95.201804 264.049035 95.352557 259.661486 95.170397 Q 259.008222 95.145271 258.235612 95.204944 Q 256.087377 89.758982 255.851825 84.514024 Q 255.28336 71.835045 263.433459 61.71259 Q 264.454184 60.450031 266.734328 58.427425 Q 274.102395 51.904205 283.904499 50.858354 C 293.141278 49.872176 302.645016 52.953196 309.161955 59.686843 Q 319.780639 70.660426 318.60916 85.767161 Q 318.24484 90.493904 316.209671 95.59439 Z" style="fill:#182b35;"/>
		<path d="M 316.209671 95.59439 L 313.847869 100.120129 Q 312.952772 99.658448 312.776893 99.111967 Q 311.8127 98.785335 310.801397 98.788475 Q 306.190859 98.80732 299.397539 98.772772 C 299.171409 98.769631 298.917013 98.678551 298.716009 98.678551 Q 292.808364 98.691114 287.459763 98.804179 C 285.40575 98.848149 282.908899 98.728802 280.96481 98.766491 Q 272.839836 98.936088 264.667752 98.775913 C 263.892 98.760209 262.868134 98.826164 261.998162 98.914103 C 261.778314 98.936088 261.662108 99.184203 261.784595 99.366363 L 263.314113 101.70932 Q 262.84929 102.164721 262.177182 102.105048 Q 259.645783 99.017746 258.235612 95.204944 Q 259.008222 95.145271 259.661486 95.170397 C 264.049035 95.352557 269.363088 95.201804 272.802147 95.217507 Q 289.249959 95.302306 305.69777 95.252055 Q 309.746124 95.239492 313.791337 95.327431 Q 314.956534 95.355698 316.209671 95.59439 Z" style="fill:#030303;"/>
		<path d="M 312.776893 99.111967 Q 311.853529 100.826785 310.170117 102.648388 Q 304.026921 109.278391 295.481094 111.542831 Q 289.736766 113.062927 284.504371 112.591823 Q 271.746874 111.44547 263.314113 101.70932 L 261.784595 99.366363 C 261.662108 99.184203 261.778314 98.936088 261.998162 98.914103 C 262.868134 98.826164 263.892 98.760209 264.667752 98.775913 Q 272.839836 98.936088 280.96481 98.766491 C 282.908899 98.728802 285.40575 98.848149 287.459763 98.804179 Q 292.808364 98.691114 298.716009 98.678551 C 298.917013 98.678551 299.171409 98.769631 299.397539 98.772772 Q 306.190859 98.80732 310.801397 98.788475 Q 311.8127 98.785335 312.776893 99.111967 Z M 297.50056 102.75203 C 297.50056 102.111329 296.979205 101.589974 296.338504 101.589974 L 277.601127 101.589974 C 276.960426 101.589974 276.43907 102.111329 276.43907 102.75203 L 276.43907 105.402776 C 276.43907 106.043477 276.960426 106.564832 277.601127 106.564832 L 296.338504 106.564832 C 296.979205 106.564832 297.50056 106.043477 297.50056 105.402776 L 297.50056 102.75203 Z" style="fill:#3e616d;"/>
		<path d="M 313.847869 100.120129 Q 308.709695 107.610683 300.333466 111.319842 Q 293.351704 114.410284 285.616176 114.052245 Q 278.191577 113.706769 271.662076 110.170348 Q 267.290231 107.799125 263.838609 104.149639 Q 262.745647 102.993864 262.177182 102.105048 Q 262.84929 102.164721 263.314113 101.70932 Q 271.746874 111.44547 284.504371 112.591823 Q 289.736766 113.062927 295.481094 111.542831 Q 304.026921 109.278391 310.170117 102.648388 Q 311.853529 100.826785 312.776893 99.111967 Q 312.952772 99.658448 313.847869 100.120129 Z" style="fill:#182b35;"/>
		<path d="M 297.50056 105.402776 C 297.50056 106.043477 296.979205 106.564832 296.338504 106.564832 L 277.601127 106.564832 C 276.960426 106.564832 276.43907 106.043477 276.43907 105.402776 L 276.43907 102.75203 C 276.43907 102.111329 276.960426 101.589974 277.601127 101.589974 L 296.338504 101.589974 C 296.979205 101.589974 297.50056 102.111329 297.50056 102.75203 L 297.50056 105.402776 Z" style="fill:#fdfefe;"/>
	</g>
	<g id="surface4">
	</g>
</svg>
