<?xml version="1.0" encoding="utf-8"?>
<svg xmlns="http://www.w3.org/2000/svg" width="490pt" height="280pt" viewBox="0 0 490 280" version="1.1" xmlns:xlink="http://www.w3.org/1999/xlink">
	<g id="surface2">
		<path vector-effect="non-scaling-stroke" d="M 197.664411 40.582749 Q 191.65132 44.470867 188.756696 51.043565 Q 187.474966 53.955054 187.286387 57.134847 Q 187.136136 59.638513 187.761669 62.044056 C 187.879723 62.494808 188.026907 62.776911 188.27988 63.344184 Q 188.500657 63.843997 188.640175 64.331545 C 189.87131 68.630552 191.237364 73.064478 192.520627 77.524468 Q 194.121256 83.083741 195.514907 87.85803 Q 196.109777 89.892546 196.462406 90.772586 Q 197.92045 94.406197 200.755281 97.283956 C 203.979536 100.55574 207.961177 102.748172 212.549953 103.358374 Q 213.843948 103.530089 215.809472 103.717136 C 221.557324 104.26601 226.294818 108.028408 228.499516 113.31631 C 228.750955 113.920378 228.67123 114.639435 228.832213 115.176044 Q 230.282592 120.01626 233.292203 130.562933 Q 234.423682 134.530776 235.478503 138.008004 Q 235.729943 138.835916 235.967584 139.088889 C 236.688174 139.855473 236.945746 140.901095 237.427161 141.733606 Q 237.865648 142.489459 237.982169 142.926412 Q 238.097156 143.3511 238.388459 144.145282 Q 238.707358 145.013056 239.394218 145.078982 Q 239.785176 145.117311 241.105235 144.967061 Q 246.037441 144.404387 251.064704 142.889616 C 252.444557 142.472594 253.968527 141.994245 255.379043 141.373311 Q 255.849726 141.166333 255.865058 140.657321 Q 255.888055 139.872338 255.737805 139.23454" style="fill:none;stroke-width:0.50;stroke:#33aebe;"/>
		<path vector-effect="non-scaling-stroke" d="M 255.737805 139.23454 Q 256.952075 138.914107 258.14948 138.544614 C 259.543131 138.115326 260.594885 136.861193 260.48603 135.39395 Q 260.467632 135.150176 260.036812 133.532683 Q 259.515534 131.574825 259.307023 130.789842 C 259.279426 130.685587 259.199701 130.605862 259.096979 130.576732 Q 258.916065 130.526137 258.853205 130.313027 Q 257.442689 125.528005 253.194276 109.820683 C 252.341834 106.673086 251.635043 103.430433 251.960075 100.157116 Q 252.186984 97.87116 253.068556 96.241401 Q 254.425411 93.731603 256.835554 91.841205 C 257.801451 91.083819 259.227298 90.093392 260.170198 89.29461 Q 265.611416 84.682836 266.968271 77.522935 Q 267.144586 76.587702 267.143052 75.161854" style="fill:none;stroke-width:0.50;stroke:#327393;"/>
		<path vector-effect="non-scaling-stroke" d="M 267.143052 75.161854 Q 270.463897 76.767082 274.103642 76.85294 C 276.197951 76.902001 278.115946 76.491112 279.931219 75.532881 Q 281.593175 74.655908 283.500438 73.29292 C 283.5403 73.26379 283.567897 73.222395 283.57403 73.174866 L 283.607759 72.958689" style="fill:none;stroke-width:0.50;stroke:#33aebe;"/>
		<path vector-effect="non-scaling-stroke" d="M 283.607759 72.958689 C 289.194629 71.414788 293.981184 67.794975 296.976997 62.839771 C 301.90767 54.683309 300.146059 44.122838 292.969292 37.9273 C 289.309617 34.765904 284.693243 33.054887 279.894423 33.143811 C 273.499573 33.261865 267.557008 36.154956 263.642826 41.309472 Q 263.282532 41.781688 262.474551 42.966828" style="fill:none;stroke-width:0.50;stroke:#327393;"/>
		<path vector-effect="non-scaling-stroke" d="M 262.474551 42.966828 Q 262.175583 42.920833 261.873549 43.222867 Q 260.873922 44.216361 259.926424 45.260449 Q 259.58146 45.640676 259.089313 46.379663" style="fill:none;stroke-width:0.50;stroke:#33aebe;"/>
		<path vector-effect="non-scaling-stroke" d="M 259.089313 46.379663 Q 258.129549 43.586228 257.257176 40.835722 Q 256.65464 38.937659 256.200822 37.96103 C 253.431918 31.995467 248.002965 27.578406 241.655643 26.080499 Q 236.232822 24.800303 230.756341 26.436195 Q 218.492518 30.10047 208.850415 32.942966 Q 206.998347 33.488774 205.966524 33.970189 Q 203.760293 34.998946 201.837698 36.544381 Q 199.539477 38.390317 197.664411 40.582749" style="fill:none;stroke-width:0.50;stroke:#327393;"/>
		<path vector-effect="non-scaling-stroke" d="M 259.089313 46.379663 L 259.978551 49.113304 Q 260.039878 49.304951 260.064409 49.104105 Q 260.157932 48.31299 260.42777 47.480479 Q 261.191288 45.136263 262.474551 42.966828" style="fill:none;stroke-width:0.50;stroke:#116388;"/>
		<path vector-effect="non-scaling-stroke" d="M 283.607759 72.958689 Q 279.606187 73.722208 276.026236 73.10434 C 272.28377 72.458876 268.924595 70.856714 265.939514 68.555427 Q 265.842925 68.481834 265.839858 68.602955 Q 265.836792 68.664282 265.872055 68.782336 Q 266.339672 70.389097 266.710699 71.959063 Q 267.130787 73.739073 267.143052 75.161854" style="fill:none;stroke-width:0.50;stroke:#116388;"/>
		<path vector-effect="non-scaling-stroke" d="M 255.737805 139.23454 Q 251.109166 140.504004 246.503525 141.862392 Q 245.125205 142.268682 243.83121 141.702943 Q 242.443692 141.095808 242.034336 139.627031 C 241.565186 137.943611 241.269284 136.717076 240.982581 135.879965 Q 240.84153 135.467542 241.230955 135.338756 C 241.301481 135.315759 241.33981 135.240633 241.319879 135.170108 Q 235.653284 115.697322 234.762513 112.660113 Q 234.118582 110.464614 233.341265 108.468428 C 232.409098 106.076683 230.900459 103.916448 228.754022 102.27289 C 226.668911 100.675327 224.188243 99.908743 221.430071 99.46719 C 217.753531 98.878453 215.743545 98.634679 213.075831 97.860428 C 208.160489 96.431514 204.115988 92.681382 202.010946 88.098738 Q 201.500401 86.988723 201.22903 85.973765 Q 200.267733 82.386149 196.126642 67.270631 Q 195.30333 64.265618 194.378829 61.490582 Q 193.679703 59.399338 193.48959 58.557628 C 192.312116 53.337186 193.437463 47.62153 196.132775 43.012823 Q 196.276892 42.767516 196.910091 41.804685 Q 197.290317 41.225147 197.664411 40.582749" style="fill:none;stroke-width:0.50;stroke:#116388;"/>
		<path vector-effect="non-scaling-stroke" d="M 217.768862 96.244468 Q 217.842454 96.310394 217.939044 96.325725 Q 220.376784 96.687553 223.472253 96.986522 Q 225.370317 97.168969 227.729864 97.90949 C 231.782031 99.178954 234.730316 102.082777 237.355102 105.360693 C 237.476223 105.510944 237.621874 105.51401 237.84725 105.452683 Q 241.893284 104.348801 248.239073 102.493666 Q 248.312665 102.472202 248.318797 102.395543 C 248.534974 99.562246 249.284694 96.870001 250.82553 94.496654 Q 252.562611 91.821274 255.267122 89.661038 Q 255.336114 89.605844 257.488684 87.930089 Q 260.844792 85.316035 262.675396 81.478512 Q 264.236163 78.205195 264.199367 74.505657 Q 264.196301 74.073304 263.952527 73.260724 Q 263.434315 71.525176 262.948301 69.949078 Q 262.565008 68.70721 255.383642 44.918553 Q 255.205795 44.331349 254.977352 43.754877" style="fill:none;stroke-width:0.50;stroke:#7d3a48;"/>
		<path vector-effect="non-scaling-stroke" d="M 254.977352 43.754877 C 254.615524 42.293767 254.339554 40.855654 253.720154 39.463536 C 251.737765 35.008145 248.016763 31.555447 243.523043 29.726376 C 239.872567 28.242268 235.864862 28.007693 232.082533 29.064047 Q 226.304017 30.680008 211.533462 35.123133 Q 204.77985 37.154582 200.862602 42.962228 C 198.309875 46.746091 197.182996 51.368597 197.650612 55.889914 Q 197.722671 56.593638 198.16729 58.142139 C 200.41645 65.985835 203.518052 77.213235 206.210298 86.639161 C 206.360548 87.161971 206.512332 88.167731 206.817433 88.730404 C 209.178514 93.076939 212.996106 95.384359 217.768862 96.244468" style="fill:none;stroke-width:0.50;stroke:#857338;"/>
		<path vector-effect="non-scaling-stroke" d="M 254.977352 43.754877 Q 254.90836 44.40954 254.868497 45.059604 Q 254.712114 47.699722 254.520468 50.428764 Q 254.426945 51.777953 254.282827 53.002955 C 254.063583 54.870356 253.916399 56.823614 253.602099 58.615889 C 253.09922 61.476783 252.708262 63.706012 251.964674 66.145284 Q 251.44033 67.867034 251.003377 69.069038 C 247.932439 77.512203 242.106395 84.736497 234.285697 89.378935 Q 229.232371 92.379347 223.599506 94.28661 Q 220.668086 95.280104 217.768862 96.244468" style="fill:none;stroke-width:0.50;stroke:#f18524;"/>
		<path vector-effect="non-scaling-stroke" d="M 271.782423 60.317707 C 271.325539 60.655004 270.488428 61.03523 269.832232 61.239142 C 269.750974 61.263673 269.721843 61.363329 269.775504 61.427722 C 271.040369 62.934827 272.752919 64.187427 274.543661 65.00154 Q 279.876025 67.422414 285.482826 65.619407 C 291.003769 63.84553 294.99001 58.775338 295.379435 52.981491 Q 295.650806 48.961521 293.872329 45.260449 C 290.781459 38.824204 282.82431 35.123133 276.026236 37.537875 C 273.031956 38.600361 270.517558 40.748332 268.834138 43.469708 Q 268.348124 44.256223 268.030757 45.31411 Q 267.328566 47.642995 268.719151 49.426071 Q 269.051848 49.852292 269.795436 50.425697 Q 269.869028 50.482425 270.954512 51.314936 Q 272.294502 52.342159 272.949165 53.660685 C 274.036182 55.846985 273.876733 58.773805 271.782423 60.317707" style="fill:none;stroke-width:0.50;stroke:#857338;"/>
		<path vector-effect="non-scaling-stroke" d="M 266.138826 51.92667 C 265.911917 54.534592 266.658571 57.124115 268.092084 59.275152 Q 268.121214 59.319614 268.171809 59.308881 C 269.551662 59.034444 270.684674 58.125275 270.810394 56.707093 C 271.03577 54.154366 268.481509 52.237904 266.241549 51.848479 Q 266.148025 51.831614 266.138826 51.92667" style="fill:none;stroke-width:0.50;stroke:#857338;"/>
		<path vector-effect="non-scaling-stroke" d="M 239.084518 108.312045 L 240.93352 113.040339 C 240.958051 113.101666 241.023977 113.133863 241.08837 113.116998 L 248.738886 111.088614 Q 248.79408 111.073283 248.786414 111.016555 Q 248.691358 110.289833 248.556439 109.474187 Q 248.099554 106.686885 248.249805 103.885784 Q 248.254404 103.815258 248.186945 103.83519 L 239.80664 106.141077 C 239.737648 106.159475 239.682454 106.193204 239.648724 106.2346 Q 239.62266 106.266796 239.717717 106.29746" style="fill:none;stroke-width:0.50;stroke:#116388;"/>
		<path vector-effect="non-scaling-stroke" d="M 239.444812 108.962108 Q 239.639525 109.207415 239.8741 109.323936 C 239.920095 109.346934 239.976822 109.322403 239.990621 109.271809 L 240.199132 108.44543 C 240.200665 108.437764 240.208331 108.433165 240.215997 108.434698 C 240.223663 108.436231 240.228262 108.443897 240.226729 108.451563 L 240.038149 109.314737 Q 240.021284 109.394462 239.940026 109.395995 L 239.745314 109.402128 Q 239.650257 109.403661 239.68552 109.491052 L 240.942719 112.572723 C 240.99638 112.704575 241.138965 112.776634 241.27695 112.738305 L 241.677107 112.627917 Q 241.747633 112.607985 241.793628 112.551258 Q 242.179987 112.06371 241.7415 111.675818 C 240.921255 110.950629 240.40151 109.871278 240.606955 108.779661 C 240.748007 108.031475 240.971849 107.39061 241.456331 106.8586 C 242.161589 106.082816 243.513844 105.881971 244.562532 105.894236 Q 245.180399 105.901902 245.74154 105.840575 C 246.29808 105.779249 246.689038 105.839042 246.95121 106.309725 C 247.044734 106.478374 247.291574 106.461509 247.365166 106.283661 C 247.543014 105.852841 247.708596 105.138384 248.039761 104.917607 Q 248.093422 104.880811 248.099554 104.817951 L 248.167014 104.11116 C 248.174679 104.023769 248.093422 103.95631 248.009097 103.979308 L 247.533815 104.109627 Q 247.42496 104.14029 247.532281 104.175553 Q 247.766856 104.253745 247.788321 104.502118 Q 247.812851 104.785755 247.733127 105.158315 Q 247.731594 105.164448 247.726994 105.162914 L 247.680999 105.153715 Q 247.650336 105.14605 247.651869 105.116919 Q 247.6718 104.624772 247.45409 104.246079 C 247.42036 104.187819 247.352901 104.161755 247.288508 104.180153 Q 245.844262 104.621706 244.689785 104.882344 C 243.527643 105.14605 242.566346 105.472615 241.290749 105.897303 Q 241.09297 105.963229 240.36778 106.076683" style="fill:none;stroke-width:0.50;stroke:#116388;"/>
		<path vector-effect="non-scaling-stroke" d="M 245.4855 114.325135 Q 244.030522 114.720693 241.59125 115.386089 Q 241.508459 115.409086 241.529923 115.491877 Q 243.812812 124.145086 245.997579 133.014471 C 246.199957 133.833184 246.48206 134.383592 247.414227 134.144417 Q 248.285068 133.923641 250.624684 133.288909 Q 252.964301 132.65571 253.829009 132.407336 C 254.75351 132.142098 254.718247 131.524231 254.480606 130.71625 Q 251.888016 121.957253 249.490139 113.334708 Q 249.465608 113.251917 249.382817 113.274914 Q 246.942011 113.931111 245.4855 114.325135" style="fill:none;stroke-width:0.50;stroke:#838a91;"/>
		<path vector-effect="non-scaling-stroke" d="M 247.774522 111.013489 L 247.987633 110.524408 C 248.002965 110.489145 247.987633 110.449283 247.95237 110.433951 L 247.204183 110.105853 Q 247.141323 110.078256 247.079996 110.107386 Q 246.474395 110.395622 246.23522 110.453882 C 245.250925 110.696123 244.429146 110.959828 243.630365 111.566963 Q 243.561373 111.619091 243.622699 111.681951 C 244.415348 112.476133 246.193825 111.496438 247.116793 111.280261 Q 247.325304 111.232732 247.654935 111.122344 Q 247.737726 111.094747 247.774522 111.013489" style="fill:none;stroke-width:0.50;stroke:#116388;"/>
		<path d="M 198.130494 19.762308 C 206.694779 12.429158 216.970081 7.378898 227.950641 4.847635 Q 230.445108 4.27423 234.095584 3.756018 Q 238.869874 3.079891 243.483181 3.067625 C 246.189225 3.061493 248.930532 3.067625 251.547652 3.271537 Q 253.595967 3.430986 256.24835 3.869473 Q 260.069008 4.499606 264.220831 5.661748 Q 273.28033 8.196077 281.461322 12.958102 C 288.523101 17.070062 294.832093 22.505148 300.031071 28.720617 Q 307.11738 37.191378 311.535975 47.492744 Q 312.069518 48.737678 312.662854 50.336774 Q 318.62535 66.40439 317.431011 83.577421 Q 316.984859 90.002935 315.69393 95.750787 Q 314.517989 100.985028 312.41908 106.314325 Q 309.225488 114.426324 304.061774 121.445174 Q 300.021872 126.938521 294.996142 131.651484 C 284.524595 141.4745 271.342404 147.815689 257.201981 150.18137 Q 252.366365 150.98935 246.521923 151.062942 Q 245.010218 151.08134 243.457117 151.000082 Q 230.287191 150.317822 218.81755 145.647788 C 203.721963 139.499778 190.518308 128.870314 182.052146 115.027327 Q 179.850515 111.427445 178.200824 107.707976 C 174.817119 100.080458 172.701345 91.905598 172.183134 83.628016 C 171.801375 77.562797 172.00222 71.450051 172.902191 65.427761 C 174.239114 56.480184 177.242593 47.451349 181.785375 39.526396 Q 185.418986 33.191339 189.957168 27.878907 Q 193.517187 23.713286 198.130494 19.762308 Z M 197.664411 40.582749 Q 191.65132 44.470867 188.756696 51.043565 Q 187.474966 53.955054 187.286387 57.134847 Q 187.136136 59.638513 187.761669 62.044056 C 187.879723 62.494808 188.026907 62.776911 188.27988 63.344184 Q 188.500657 63.843997 188.640175 64.331545 C 189.87131 68.630552 191.237364 73.064478 192.520627 77.524468 Q 194.121256 83.083741 195.514907 87.85803 Q 196.109777 89.892546 196.462406 90.772586 Q 197.92045 94.406197 200.755281 97.283956 C 203.979536 100.55574 207.961177 102.748172 212.549953 103.358374 Q 213.843948 103.530089 215.809472 103.717136 C 221.557324 104.26601 226.294818 108.028408 228.499516 113.31631 C 228.750955 113.920378 228.67123 114.639435 228.832213 115.176044 Q 230.282592 120.01626 233.292203 130.562933 Q 234.423682 134.530776 235.478503 138.008004 Q 235.729943 138.835916 235.967584 139.088889 C 236.688174 139.855473 236.945746 140.901095 237.427161 141.733606 Q 237.865648 142.489459 237.982169 142.926412 Q 238.097156 143.3511 238.388459 144.145282 Q 238.707358 145.013056 239.394218 145.078982 Q 239.785176 145.117311 241.105235 144.967061 Q 246.037441 144.404387 251.064704 142.889616 C 252.444557 142.472594 253.968527 141.994245 255.379043 141.373311 Q 255.849726 141.166333 255.865058 140.657321 Q 255.888055 139.872338 255.737805 139.23454 Q 256.952075 138.914107 258.14948 138.544614 C 259.543131 138.115326 260.594885 136.861193 260.48603 135.39395 Q 260.467632 135.150176 260.036812 133.532683 Q 259.515534 131.574825 259.307023 130.789842 C 259.279426 130.685587 259.199701 130.605862 259.096979 130.576732 Q 258.916065 130.526137 258.853205 130.313027 Q 257.442689 125.528005 253.194276 109.820683 C 252.341834 106.673086 251.635043 103.430433 251.960075 100.157116 Q 252.186984 97.87116 253.068556 96.241401 Q 254.425411 93.731603 256.835554 91.841205 C 257.801451 91.083819 259.227298 90.093392 260.170198 89.29461 Q 265.611416 84.682836 266.968271 77.522935 Q 267.144586 76.587702 267.143052 75.161854 Q 270.463897 76.767082 274.103642 76.85294 C 276.197951 76.902001 278.115946 76.491112 279.931219 75.532881 Q 281.593175 74.655908 283.500438 73.29292 C 283.5403 73.26379 283.567897 73.222395 283.57403 73.174866 L 283.607759 72.958689 C 289.194629 71.414788 293.981184 67.794975 296.976997 62.839771 C 301.90767 54.683309 300.146059 44.122838 292.969292 37.9273 C 289.309617 34.765904 284.693243 33.054887 279.894423 33.143811 C 273.499573 33.261865 267.557008 36.154956 263.642826 41.309472 Q 263.282532 41.781688 262.474551 42.966828 Q 262.175583 42.920833 261.873549 43.222867 Q 260.873922 44.216361 259.926424 45.260449 Q 259.58146 45.640676 259.089313 46.379663 Q 258.129549 43.586228 257.257176 40.835722 Q 256.65464 38.937659 256.200822 37.96103 C 253.431918 31.995467 248.002965 27.578406 241.655643 26.080499 Q 236.232822 24.800303 230.756341 26.436195 Q 218.492518 30.10047 208.850415 32.942966 Q 206.998347 33.488774 205.966524 33.970189 Q 203.760293 34.998946 201.837698 36.544381 Q 199.539477 38.390317 197.664411 40.582749 Z" style="fill:#54bec9;"/>
		<path d="M 259.089313 46.379663 L 259.978551 49.113304 Q 260.039878 49.304951 260.064409 49.104105 Q 260.157932 48.31299 260.42777 47.480479 Q 261.191288 45.136263 262.474551 42.966828 Q 263.282532 41.781688 263.642826 41.309472 C 267.557008 36.154956 273.499573 33.261865 279.894423 33.143811 C 284.693243 33.054887 289.309617 34.765904 292.969292 37.9273 C 300.146059 44.122838 301.90767 54.683309 296.976997 62.839771 C 293.981184 67.794975 289.194629 71.414788 283.607759 72.958689 Q 279.606187 73.722208 276.026236 73.10434 C 272.28377 72.458876 268.924595 70.856714 265.939514 68.555427 Q 265.842925 68.481834 265.839858 68.602955 Q 265.836792 68.664282 265.872055 68.782336 Q 266.339672 70.389097 266.710699 71.959063 Q 267.130787 73.739073 267.143052 75.161854 Q 267.144586 76.587702 266.968271 77.522935 Q 265.611416 84.682836 260.170198 89.29461 C 259.227298 90.093392 257.801451 91.083819 256.835554 91.841205 Q 254.425411 93.731603 253.068556 96.241401 Q 252.186984 97.87116 251.960075 100.157116 C 251.635043 103.430433 252.341834 106.673086 253.194276 109.820683 Q 257.442689 125.528005 258.853205 130.313027 Q 258.916065 130.526137 259.096979 130.576732 C 259.199701 130.605862 259.279426 130.685587 259.307023 130.789842 Q 259.515534 131.574825 260.036812 133.532683 Q 260.467632 135.150176 260.48603 135.39395 C 260.594885 136.861193 259.543131 138.115326 258.14948 138.544614 Q 256.952075 138.914107 255.737805 139.23454 Q 251.109166 140.504004 246.503525 141.862392 Q 245.125205 142.268682 243.83121 141.702943 Q 242.443692 141.095808 242.034336 139.627031 C 241.565186 137.943611 241.269284 136.717076 240.982581 135.879965 Q 240.84153 135.467542 241.230955 135.338756 C 241.301481 135.315759 241.33981 135.240633 241.319879 135.170108 Q 235.653284 115.697322 234.762513 112.660113 Q 234.118582 110.464614 233.341265 108.468428 C 232.409098 106.076683 230.900459 103.916448 228.754022 102.27289 C 226.668911 100.675327 224.188243 99.908743 221.430071 99.46719 C 217.753531 98.878453 215.743545 98.634679 213.075831 97.860428 C 208.160489 96.431514 204.115988 92.681382 202.010946 88.098738 Q 201.500401 86.988723 201.22903 85.973765 Q 200.267733 82.386149 196.126642 67.270631 Q 195.30333 64.265618 194.378829 61.490582 Q 193.679703 59.399338 193.48959 58.557628 C 192.312116 53.337186 193.437463 47.62153 196.132775 43.012823 Q 196.276892 42.767516 196.910091 41.804685 Q 197.290317 41.225147 197.664411 40.582749 Q 199.539477 38.390317 201.837698 36.544381 Q 203.760293 34.998946 205.966524 33.970189 Q 206.998347 33.488774 208.850415 32.942966 Q 218.492518 30.10047 230.756341 26.436195 Q 236.232822 24.800303 241.655643 26.080499 C 248.002965 27.578406 253.431918 31.995467 256.200822 37.96103 Q 256.65464 38.937659 257.257176 40.835722 Q 258.129549 43.586228 259.089313 46.379663 Z M 217.768862 96.244468 Q 217.842454 96.310394 217.939044 96.325725 Q 220.376784 96.687553 223.472253 96.986522 Q 225.370317 97.168969 227.729864 97.90949 C 231.782031 99.178954 234.730316 102.082777 237.355102 105.360693 C 237.476223 105.510944 237.621874 105.51401 237.84725 105.452683 Q 241.893284 104.348801 248.239073 102.493666 Q 248.312665 102.472202 248.318797 102.395543 C 248.534974 99.562246 249.284694 96.870001 250.82553 94.496654 Q 252.562611 91.821274 255.267122 89.661038 Q 255.336114 89.605844 257.488684 87.930089 Q 260.844792 85.316035 262.675396 81.478512 Q 264.236163 78.205195 264.199367 74.505657 Q 264.196301 74.073304 263.952527 73.260724 Q 263.434315 71.525176 262.948301 69.949078 Q 262.565008 68.70721 255.383642 44.918553 Q 255.205795 44.331349 254.977352 43.754877 C 254.615524 42.293767 254.339554 40.855654 253.720154 39.463536 C 251.737765 35.008145 248.016763 31.555447 243.523043 29.726376 C 239.872567 28.242268 235.864862 28.007693 232.082533 29.064047 Q 226.304017 30.680008 211.533462 35.123133 Q 204.77985 37.154582 200.862602 42.962228 C 198.309875 46.746091 197.182996 51.368597 197.650612 55.889914 Q 197.722671 56.593638 198.16729 58.142139 C 200.41645 65.985835 203.518052 77.213235 206.210298 86.639161 C 206.360548 87.161971 206.512332 88.167731 206.817433 88.730404 C 209.178514 93.076939 212.996106 95.384359 217.768862 96.244468 Z M 271.782423 60.317707 C 271.325539 60.655004 270.488428 61.03523 269.832232 61.239142 C 269.750974 61.263673 269.721843 61.363329 269.775504 61.427722 C 271.040369 62.934827 272.752919 64.187427 274.543661 65.00154 Q 279.876025 67.422414 285.482826 65.619407 C 291.003769 63.84553 294.99001 58.775338 295.379435 52.981491 Q 295.650806 48.961521 293.872329 45.260449 C 290.781459 38.824204 282.82431 35.123133 276.026236 37.537875 C 273.031956 38.600361 270.517558 40.748332 268.834138 43.469708 Q 268.348124 44.256223 268.030757 45.31411 Q 267.328566 47.642995 268.719151 49.426071 Q 269.051848 49.852292 269.795436 50.425697 Q 269.869028 50.482425 270.954512 51.314936 Q 272.294502 52.342159 272.949165 53.660685 C 274.036182 55.846985 273.876733 58.773805 271.782423 60.317707 Z M 266.138826 51.92667 C 265.911917 54.534592 266.658571 57.124115 268.092084 59.275152 Q 268.121214 59.319614 268.171809 59.308881 C 269.551662 59.034444 270.684674 58.125275 270.810394 56.707093 C 271.03577 54.154366 268.481509 52.237904 266.241549 51.848479 Q 266.148025 51.831614 266.138826 51.92667 Z M 239.717717 106.29746 L 238.383859 106.545833 C 238.288803 106.564231 238.244341 106.673086 238.299535 106.751278 Q 238.828478 107.51633 239.084518 108.312045 L 240.93352 113.040339 C 240.958051 113.101666 241.023977 113.133863 241.08837 113.116998 L 248.738886 111.088614 Q 248.79408 111.073283 248.786414 111.016555 Q 248.691358 110.289833 248.556439 109.474187 Q 248.099554 106.686885 248.249805 103.885784 Q 248.254404 103.815258 248.186945 103.83519 L 239.80664 106.141077 C 239.737648 106.159475 239.682454 106.193204 239.648724 106.2346 Q 239.62266 106.266796 239.717717 106.29746 Z M 245.4855 114.325135 Q 244.030522 114.720693 241.59125 115.386089 Q 241.508459 115.409086 241.529923 115.491877 Q 243.812812 124.145086 245.997579 133.014471 C 246.199957 133.833184 246.48206 134.383592 247.414227 134.144417 Q 248.285068 133.923641 250.624684 133.288909 Q 252.964301 132.65571 253.829009 132.407336 C 254.75351 132.142098 254.718247 131.524231 254.480606 130.71625 Q 251.888016 121.957253 249.490139 113.334708 Q 249.465608 113.251917 249.382817 113.274914 Q 246.942011 113.931111 245.4855 114.325135 Z" style="fill:#10285c;"/>
		<path d="M 197.664411 40.582749 Q 197.290317 41.225147 196.910091 41.804685 Q 196.276892 42.767516 196.132775 43.012823 C 193.437463 47.62153 192.312116 53.337186 193.48959 58.557628 Q 193.679703 59.399338 194.378829 61.490582 Q 195.30333 64.265618 196.126642 67.270631 Q 200.267733 82.386149 201.22903 85.973765 Q 201.500401 86.988723 202.010946 88.098738 C 204.115988 92.681382 208.160489 96.431514 213.075831 97.860428 C 215.743545 98.634679 217.753531 98.878453 221.430071 99.46719 C 224.188243 99.908743 226.668911 100.675327 228.754022 102.27289 C 230.900459 103.916448 232.409098 106.076683 233.341265 108.468428 Q 234.118582 110.464614 234.762513 112.660113 Q 235.653284 115.697322 241.319879 135.170108 C 241.33981 135.240633 241.301481 135.315759 241.230955 135.338756 Q 240.84153 135.467542 240.982581 135.879965 C 241.269284 136.717076 241.565186 137.943611 242.034336 139.627031 Q 242.443692 141.095808 243.83121 141.702943 Q 245.125205 142.268682 246.503525 141.862392 Q 251.109166 140.504004 255.737805 139.23454 Q 255.888055 139.872338 255.865058 140.657321 Q 255.849726 141.166333 255.379043 141.373311 C 253.968527 141.994245 252.444557 142.472594 251.064704 142.889616 Q 246.037441 144.404387 241.105235 144.967061 Q 239.785176 145.117311 239.394218 145.078982 Q 238.707358 145.013056 238.388459 144.145282 Q 238.097156 143.3511 237.982169 142.926412 Q 237.865648 142.489459 237.427161 141.733606 C 236.945746 140.901095 236.688174 139.855473 235.967584 139.088889 Q 235.729943 138.835916 235.478503 138.008004 Q 234.423682 134.530776 233.292203 130.562933 Q 230.282592 120.01626 228.832213 115.176044 C 228.67123 114.639435 228.750955 113.920378 228.499516 113.31631 C 226.294818 108.028408 221.557324 104.26601 215.809472 103.717136 Q 213.843948 103.530089 212.549953 103.358374 C 207.961177 102.748172 203.979536 100.55574 200.755281 97.283956 Q 197.92045 94.406197 196.462406 90.772586 Q 196.109777 89.892546 195.514907 87.85803 Q 194.121256 83.083741 192.520627 77.524468 C 191.237364 73.064478 189.87131 68.630552 188.640175 64.331545 Q 188.500657 63.843997 188.27988 63.344184 C 188.026907 62.776911 187.879723 62.494808 187.761669 62.044056 Q 187.136136 59.638513 187.286387 57.134847 Q 187.474966 53.955054 188.756696 51.043565 Q 191.65132 44.470867 197.664411 40.582749 Z" style="fill:#119eb3;"/>
		<path d="M 262.474551 42.966828 Q 261.191288 45.136263 260.42777 47.480479 Q 260.157932 48.31299 260.064409 49.104105 Q 260.039878 49.304951 259.978551 49.113304 L 259.089313 46.379663 Q 259.58146 45.640676 259.926424 45.260449 Q 260.873922 44.216361 261.873549 43.222867 Q 262.175583 42.920833 262.474551 42.966828 Z" style="fill:#119eb3;"/>
		<path d="M 283.607759 72.958689 L 283.57403 73.174866 C 283.567897 73.222395 283.5403 73.26379 283.500438 73.29292 Q 281.593175 74.655908 279.931219 75.532881 C 278.115946 76.491112 276.197951 76.902001 274.103642 76.85294 Q 270.463897 76.767082 267.143052 75.161854 Q 267.130787 73.739073 266.710699 71.959063 Q 266.339672 70.389097 265.872055 68.782336 Q 265.836792 68.664282 265.839858 68.602955 Q 265.842925 68.481834 265.939514 68.555427 C 268.924595 70.856714 272.28377 72.458876 276.026236 73.10434 Q 279.606187 73.722208 283.607759 72.958689 Z" style="fill:#119eb3;"/>
		<path d="M 254.977352 43.754877 Q 254.90836 44.40954 254.868497 45.059604 Q 254.712114 47.699722 254.520468 50.428764 Q 254.426945 51.777953 254.282827 53.002955 C 254.063583 54.870356 253.916399 56.823614 253.602099 58.615889 C 253.09922 61.476783 252.708262 63.706012 251.964674 66.145284 Q 251.44033 67.867034 251.003377 69.069038 C 247.932439 77.512203 242.106395 84.736497 234.285697 89.378935 Q 229.232371 92.379347 223.599506 94.28661 Q 220.668086 95.280104 217.768862 96.244468 C 212.996106 95.384359 209.178514 93.076939 206.817433 88.730404 C 206.512332 88.167731 206.360548 87.161971 206.210298 86.639161 C 203.518052 77.213235 200.41645 65.985835 198.16729 58.142139 Q 197.722671 56.593638 197.650612 55.889914 C 197.182996 51.368597 198.309875 46.746091 200.862602 42.962228 Q 204.77985 37.154582 211.533462 35.123133 Q 226.304017 30.680008 232.082533 29.064047 C 235.864862 28.007693 239.872567 28.242268 243.523043 29.726376 C 248.016763 31.555447 251.737765 35.008145 253.720154 39.463536 C 254.339554 40.855654 254.615524 42.293767 254.977352 43.754877 Z" style="fill:#f9be13;"/>
		<path d="M 271.782423 60.317707 C 273.876733 58.773805 274.036182 55.846985 272.949165 53.660685 Q 272.294502 52.342159 270.954512 51.314936 Q 269.869028 50.482425 269.795436 50.425697 Q 269.051848 49.852292 268.719151 49.426071 Q 267.328566 47.642995 268.030757 45.31411 Q 268.348124 44.256223 268.834138 43.469708 C 270.517558 40.748332 273.031956 38.600361 276.026236 37.537875 C 282.82431 35.123133 290.781459 38.824204 293.872329 45.260449 Q 295.650806 48.961521 295.379435 52.981491 C 294.99001 58.775338 291.003769 63.84553 285.482826 65.619407 Q 279.876025 67.422414 274.543661 65.00154 C 272.752919 64.187427 271.040369 62.934827 269.775504 61.427722 C 269.721843 61.363329 269.750974 61.263673 269.832232 61.239142 C 270.488428 61.03523 271.325539 60.655004 271.782423 60.317707 Z" style="fill:#f9be13;"/>
		<path d="M 217.768862 96.244468 Q 220.668086 95.280104 223.599506 94.28661 Q 229.232371 92.379347 234.285697 89.378935 C 242.106395 84.736497 247.932439 77.512203 251.003377 69.069038 Q 251.44033 67.867034 251.964674 66.145284 C 252.708262 63.706012 253.09922 61.476783 253.602099 58.615889 C 253.916399 56.823614 254.063583 54.870356 254.282827 53.002955 Q 254.426945 51.777953 254.520468 50.428764 Q 254.712114 47.699722 254.868497 45.059604 Q 254.90836 44.40954 254.977352 43.754877 Q 255.205795 44.331349 255.383642 44.918553 Q 262.565008 68.70721 262.948301 69.949078 Q 263.434315 71.525176 263.952527 73.260724 Q 264.196301 74.073304 264.199367 74.505657 Q 264.236163 78.205195 262.675396 81.478512 Q 260.844792 85.316035 257.488684 87.930089 Q 255.336114 89.605844 255.267122 89.661038 Q 252.562611 91.821274 250.82553 94.496654 C 249.284694 96.870001 248.534974 99.562246 248.318797 102.395543 Q 248.312665 102.472202 248.239073 102.493666 Q 241.893284 104.348801 237.84725 105.452683 C 237.621874 105.51401 237.476223 105.510944 237.355102 105.360693 C 234.730316 102.082777 231.782031 99.178954 227.729864 97.90949 Q 225.370317 97.168969 223.472253 96.986522 Q 220.376784 96.687553 217.939044 96.325725 Q 217.842454 96.310394 217.768862 96.244468 Z" style="fill:#e94c34;"/>
		<path d="M 268.092084 59.275152 C 266.658571 57.124115 265.911917 54.534592 266.138826 51.92667 Q 266.148025 51.831614 266.241549 51.848479 C 268.481509 52.237904 271.03577 54.154366 270.810394 56.707093 C 270.684674 58.125275 269.551662 59.034444 268.171809 59.308881 Q 268.121214 59.319614 268.092084 59.275152 Z" style="fill:#f9be13;"/>
		<path d="M 239.084518 108.312045 L 239.444812 108.962108 Q 239.639525 109.207415 239.8741 109.323936 C 239.920095 109.346934 239.976822 109.322403 239.990621 109.271809 L 240.199132 108.44543 C 240.200665 108.437764 240.208331 108.433165 240.215997 108.434698 C 240.223663 108.436231 240.228262 108.443897 240.226729 108.451563 L 240.038149 109.314737 Q 240.021284 109.394462 239.940026 109.395995 L 239.745314 109.402128 Q 239.650257 109.403661 239.68552 109.491052 L 240.942719 112.572723 C 240.99638 112.704575 241.138965 112.776634 241.27695 112.738305 L 241.677107 112.627917 Q 241.747633 112.607985 241.793628 112.551258 Q 242.179987 112.06371 241.7415 111.675818 C 240.921255 110.950629 240.40151 109.871278 240.606955 108.779661 C 240.748007 108.031475 240.971849 107.39061 241.456331 106.8586 C 242.161589 106.082816 243.513844 105.881971 244.562532 105.894236 Q 245.180399 105.901902 245.74154 105.840575 C 246.29808 105.779249 246.689038 105.839042 246.95121 106.309725 C 247.044734 106.478374 247.291574 106.461509 247.365166 106.283661 C 247.543014 105.852841 247.708596 105.138384 248.039761 104.917607 Q 248.093422 104.880811 248.099554 104.817951 L 248.167014 104.11116 C 248.174679 104.023769 248.093422 103.95631 248.009097 103.979308 L 247.533815 104.109627 Q 247.42496 104.14029 247.532281 104.175553 Q 247.766856 104.253745 247.788321 104.502118 Q 247.812851 104.785755 247.733127 105.158315 Q 247.731594 105.164448 247.726994 105.162914 L 247.680999 105.153715 Q 247.650336 105.14605 247.651869 105.116919 Q 247.6718 104.624772 247.45409 104.246079 C 247.42036 104.187819 247.352901 104.161755 247.288508 104.180153 Q 245.844262 104.621706 244.689785 104.882344 C 243.527643 105.14605 242.566346 105.472615 241.290749 105.897303 Q 241.09297 105.963229 240.36778 106.076683 L 239.717717 106.29746 Q 239.62266 106.266796 239.648724 106.2346 C 239.682454 106.193204 239.737648 106.159475 239.80664 106.141077 L 248.186945 103.83519 Q 248.254404 103.815258 248.249805 103.885784 Q 248.099554 106.686885 248.556439 109.474187 Q 248.691358 110.289833 248.786414 111.016555 Q 248.79408 111.073283 248.738886 111.088614 L 241.08837 113.116998 C 241.023977 113.133863 240.958051 113.101666 240.93352 113.040339 L 239.084518 108.312045 Z M 247.774522 111.013489 L 247.987633 110.524408 C 248.002965 110.489145 247.987633 110.449283 247.95237 110.433951 L 247.204183 110.105853 Q 247.141323 110.078256 247.079996 110.107386 Q 246.474395 110.395622 246.23522 110.453882 C 245.250925 110.696123 244.429146 110.959828 243.630365 111.566963 Q 243.561373 111.619091 243.622699 111.681951 C 244.415348 112.476133 246.193825 111.496438 247.116793 111.280261 Q 247.325304 111.232732 247.654935 111.122344 Q 247.737726 111.094747 247.774522 111.013489 Z" style="fill:#119eb3;"/>
		<path d="M 239.444812 108.962108 Q 239.90323 108.896182 240.035083 108.517489 Q 240.329451 107.66658 240.651417 106.820271 Q 240.804734 106.417047 240.36778 106.076683 Q 241.09297 105.963229 241.290749 105.897303 C 242.566346 105.472615 243.527643 105.14605 244.689785 104.882344 Q 245.844262 104.621706 247.288508 104.180153 C 247.352901 104.161755 247.42036 104.187819 247.45409 104.246079 Q 247.6718 104.624772 247.651869 105.116919 Q 247.650336 105.14605 247.680999 105.153715 L 247.726994 105.162914 Q 247.731594 105.164448 247.733127 105.158315 Q 247.812851 104.785755 247.788321 104.502118 Q 247.766856 104.253745 247.532281 104.175553 Q 247.42496 104.14029 247.533815 104.109627 L 248.009097 103.979308 C 248.093422 103.95631 248.174679 104.023769 248.167014 104.11116 L 248.099554 104.817951 Q 248.093422 104.880811 248.039761 104.917607 C 247.708596 105.138384 247.543014 105.852841 247.365166 106.283661 C 247.291574 106.461509 247.044734 106.478374 246.95121 106.309725 C 246.689038 105.839042 246.29808 105.779249 245.74154 105.840575 Q 245.180399 105.901902 244.562532 105.894236 C 243.513844 105.881971 242.161589 106.082816 241.456331 106.8586 C 240.971849 107.39061 240.748007 108.031475 240.606955 108.779661 C 240.40151 109.871278 240.921255 110.950629 241.7415 111.675818 Q 242.179987 112.06371 241.793628 112.551258 Q 241.747633 112.607985 241.677107 112.627917 L 241.27695 112.738305 C 241.138965 112.776634 240.99638 112.704575 240.942719 112.572723 L 239.68552 109.491052 Q 239.650257 109.403661 239.745314 109.402128 L 239.940026 109.395995 Q 240.021284 109.394462 240.038149 109.314737 L 240.226729 108.451563 C 240.228262 108.443897 240.223663 108.436231 240.215997 108.434698 C 240.208331 108.433165 240.200665 108.437764 240.199132 108.44543 L 239.990621 109.271809 C 239.976822 109.322403 239.920095 109.346934 239.8741 109.323936 Q 239.639525 109.207415 239.444812 108.962108 Z" style="fill:#10285c;"/>
		<path d="M 250.624684 133.288909 Q 248.285068 133.923641 247.414227 134.144417 C 246.48206 134.383592 246.199957 133.833184 245.997579 133.014471 Q 243.812812 124.145086 241.529923 115.491877 Q 241.508459 115.409086 241.59125 115.386089 Q 244.030522 114.720693 245.4855 114.325135 Q 246.942011 113.931111 249.382817 113.274914 Q 249.465608 113.251917 249.490139 113.334708 Q 251.888016 121.957253 254.480606 130.71625 C 254.718247 131.524231 254.75351 132.142098 253.829009 132.407336 Q 252.964301 132.65571 250.624684 133.288909 Z" style="fill:#f6ebc5;"/>
		<path d="M 247.654935 111.122344 Q 247.325304 111.232732 247.116793 111.280261 C 246.193825 111.496438 244.415348 112.476133 243.622699 111.681951 Q 243.561373 111.619091 243.630365 111.566963 C 244.429146 110.959828 245.250925 110.696123 246.23522 110.453882 Q 246.474395 110.395622 247.079996 110.107386 Q 247.141323 110.078256 247.204183 110.105853 L 247.95237 110.433951 C 247.987633 110.449283 248.002965 110.489145 247.987633 110.524408 L 247.774522 111.013489 Q 247.737726 111.094747 247.654935 111.122344 Z" style="fill:#10285c;"/>
	</g>
	<g id="surface4">
	</g>
</svg>
