<?xml version="1.0" encoding="utf-8"?>
<svg xmlns="http://www.w3.org/2000/svg" width="490pt" height="280pt" viewBox="0 0 490 280" version="1.1" xmlns:xlink="http://www.w3.org/1999/xlink">
	<g id="surface2">
		<path vector-effect="non-scaling-stroke" d="M 276.56506 15.574437 Q 277.939023 17.21623 279.296917 18.801779 Q 281.000311 20.79175 281.881469 24.230676 C 283.169727 29.268543 280.424478 34.276949 276.03208 36.671342 C 272.36282 38.674704 268.479296 38.599712 264.236882 38.714879 C 255.272639 38.953247 246.72621 41.899368 237.911952 45.836457 C 222.776924 52.601822 210.103247 63.371234 202.143364 77.959889 Q 198.147352 85.285018 196.235052 93.847517" style="fill:none;stroke-width:0.50;stroke:#939795;"/>
		<path vector-effect="non-scaling-stroke" d="M 217.996173 54.018638 Q 221.153879 53.324961 223.80271 51.484974 C 228.508469 48.220137 231.288536 43.13406 231.457268 37.405194 Q 231.64207 31.212983 228.229926 26.295639 C 223.05011 18.833918 212.776182 16.546657 205.223399 22.053225 Q 200.539067 25.468047 198.642836 31.030859 C 197.635799 33.974302 197.426892 37.557857 197.959872 40.54683 Q 199.183851 47.387188 204.875222 51.393912 Q 210.842456 55.593474 217.996173 54.018638" style="fill:none;stroke-width:0.50;stroke:#edb592;"/>
		<path d="M 276.56506 15.574437 Q 277.939023 17.21623 279.296917 18.801779 Q 281.000311 20.79175 281.881469 24.230676 C 283.169727 29.268543 280.424478 34.276949 276.03208 36.671342 C 272.36282 38.674704 268.479296 38.599712 264.236882 38.714879 C 255.272639 38.953247 246.72621 41.899368 237.911952 45.836457 C 222.776924 52.601822 210.103247 63.371234 202.143364 77.959889 Q 198.147352 85.285018 196.235052 93.847517 Q 196.213626 91.271 196.141312 88.740014 Q 196.058285 85.796571 196.060963 83.63519 Q 196.098459 59.33237 196.06632 39.721917 Q 196.060963 36.424939 196.154703 34.193922 Q 196.422532 27.811553 200.217672 22.59424 Q 203.57625 17.976865 208.485559 15.129841 C 209.688112 14.433485 211.811997 13.172009 213.402903 12.406018 C 219.442451 9.494715 226.065867 7.223523 232.721422 6.213807 Q 240.242065 5.072855 247.476132 5.450494 Q 252.942525 5.734393 259.099918 7.108357 Q 268.878362 9.288486 276.56506 15.574437 Z M 217.996173 54.018638 Q 221.153879 53.324961 223.80271 51.484974 C 228.508469 48.220137 231.288536 43.13406 231.457268 37.405194 Q 231.64207 31.212983 228.229926 26.295639 C 223.05011 18.833918 212.776182 16.546657 205.223399 22.053225 Q 200.539067 25.468047 198.642836 31.030859 C 197.635799 33.974302 197.426892 37.557857 197.959872 40.54683 Q 199.183851 47.387188 204.875222 51.393912 Q 210.842456 55.593474 217.996173 54.018638 Z" style="fill:#fbf6e7;"/>
		<path d="M 196.235052 93.847517 Q 198.147352 85.285018 202.143364 77.959889 C 210.103247 63.371234 222.776924 52.601822 237.911952 45.836457 C 246.72621 41.899368 255.272639 38.953247 264.236882 38.714879 C 268.479296 38.599712 272.36282 38.674704 276.03208 36.671342 C 280.424478 34.276949 283.169727 29.268543 281.881469 24.230676 Q 281.000311 20.79175 279.296917 18.801779 Q 277.939023 17.21623 276.56506 15.574437 Q 279.615634 17.502807 280.419122 18.145597 Q 282.186794 19.562414 284.42049 21.247059 Q 286.863092 23.092402 289.26552 26.242074 C 292.042908 29.881872 293.427585 34.325158 293.944495 38.878255 Q 294.11055 40.327211 294.107871 43.798277 Q 294.099836 55.11406 294.113228 73.061294 Q 294.115906 76.73591 293.941817 78.420556 Q 293.207965 85.558203 289.809213 92.237863 C 286.4426 98.855922 281.399376 104.523188 274.767926 107.999611 C 270.828158 110.064574 267.442798 111.157317 262.316547 113.010695 Q 261.713931 113.230315 257.259932 114.789081 Q 245.079061 119.0556 233.018712 125.234419 C 224.919558 129.383093 217.080197 134.134383 209.94255 139.774865 C 205.962608 142.91918 202.569212 146.27508 198.878526 150.158603 Q 197.614372 151.489714 196.765354 152.839573 C 196.674292 152.989557 196.529664 153.067228 196.443959 153.155611 Q 195.969901 153.635026 196.002041 152.970809 Q 196.036858 152.191426 196.036858 152.116434 Q 196.302009 130.738309 196.280583 107.758565 Q 196.272548 100.227208 196.152025 95.025965 Q 196.133277 94.238547 196.235052 93.847517 Z" style="fill:#2a3742;"/>
		<path d="M 217.996173 54.018638 Q 210.842456 55.593474 204.875222 51.393912 Q 199.183851 47.387188 197.959872 40.54683 C 197.426892 37.557857 197.635799 33.974302 198.642836 31.030859 Q 200.539067 25.468047 205.223399 22.053225 C 212.776182 16.546657 223.05011 18.833918 228.229926 26.295639 Q 231.64207 31.212983 231.457268 37.405194 C 231.288536 43.13406 228.508469 48.220137 223.80271 51.484974 Q 221.153879 53.324961 217.996173 54.018638 Z" style="fill:#de733d;"/>
	</g>
	<g id="surface4">
	</g>
</svg>
