<?xml version="1.0" encoding="utf-8"?>
<svg xmlns="http://www.w3.org/2000/svg" width="490pt" height="280pt" viewBox="0 0 490 280" version="1.1" xmlns:xlink="http://www.w3.org/1999/xlink">
	<g id="surface2">
		<path vector-effect="non-scaling-stroke" d="M 221.479655 37.509791 L 221.384549 37.19521 Q 221.326023 36.995244 221.13825 37.083034 C 220.182314 37.534177 220.196946 38.041408 220.194508 39.007098 Q 220.174999 48.510363 220.18963 56.355372 Q 220.18963 56.479741 220.070138 56.506566 Q 219.401959 56.665076 219.17273 56.679707 C 218.443585 56.718725 218.57527 57.189377 218.57527 57.723433 Q 218.580147 68.753268 218.577709 81.075566 C 218.577709 81.170672 218.655744 81.246269 218.75085 81.246269 L 240.078937 81.246269 Q 240.420342 81.246269 240.420342 80.904863 L 240.420342 57.221079 C 240.420342 57.035745 240.295973 56.872358 240.115516 56.823585 L 238.952299 56.506566 Q 238.842561 56.477303 238.842561 56.362688 Q 238.837684 53.102266 238.837684 34.561511 Q 238.837684 33.127608 237.401343 33.073959 Q 237.279412 33.069081 237.281851 32.947151 Q 237.367202 27.140819 237.303798 25.228949 Q 237.191622 21.814894 236.155213 18.571542 Q 235.767474 17.366869 235.121242 16.401179 C 235.045645 16.289003 234.889574 16.271933 234.792029 16.3646 Q 234.543291 16.601145 234.360395 16.930358 Q 233.399583 18.683719 232.309524 20.36636 Q 230.146477 23.704817 226.651948 25.675215 C 223.986547 27.17496 221.662551 28.213808 221.691814 31.625424 Q 221.706446 33.056888 221.655235 37.33665 Q 221.652797 37.478089 221.596708 37.536616 Q 221.513796 37.626844 221.479655 37.509791" style="fill:none;stroke-width:0.50;stroke:#7a7a7a;"/>
		<path vector-effect="non-scaling-stroke" d="M 269.249595 26.78966 Q 269.278858 26.331201 269.213016 26.043445 Q 269.171559 25.85811 268.988663 25.865426 Q 268.85454 25.870303 268.825276 25.99955 Q 268.786259 26.165375 268.78382 26.172691 Q 268.69603 26.358026 268.627749 26.131235 Q 268.452169 25.553284 268.205869 25.565477 Q 268.057114 25.572793 268.103448 25.714232 Q 268.179045 25.943462 268.132711 26.145866 Q 268.093693 26.319008 268.018096 26.158059 Q 267.898605 25.899567 267.944938 25.655706 Q 267.969324 25.531337 267.881534 25.445985 Q 267.671814 25.238703 267.515743 25.253335 Q 267.359672 25.265528 267.37918 25.419161 L 267.393812 25.533775 Q 267.41576 25.699601 267.335286 25.550845 L 267.159706 25.211879 Q 267.115811 25.131404 267.032898 25.099703 L 265.416099 24.499804 Q 265.047869 24.363242 265.191747 24.64856 Q 265.22101 24.707086 265.18687 24.909491 C 265.179554 24.94607 265.130782 24.948509 265.118589 24.914368 Q 265.082009 24.802192 265.062501 24.555892 Q 265.02836 24.126697 264.857657 24.13889 C 264.491866 24.165715 264.208987 24.497366 264.216303 24.897298 Q 264.218741 24.958263 264.15046 25.204563 Q 264.096811 25.404529 264.057793 25.202124 Q 263.972442 24.782683 263.699317 24.558331 Q 263.596896 24.475418 263.604212 24.341295 Q 263.618843 24.13889 263.704195 23.982819 Q 263.787107 23.834064 263.626159 23.775537 L 263.462772 23.719449 Q 263.270122 23.648729 263.216473 23.846257 L 263.036015 24.511997 Q 263.033577 24.519313 263.026261 24.519313 L 262.955541 24.519313 Q 262.899453 24.519313 262.909208 24.463225 Q 262.955541 24.185224 262.948225 23.863327 Q 262.945787 23.636536 262.85312 23.551185 Q 262.721435 23.431693 262.472696 23.487781 Q 262.338573 23.519483 262.319064 23.656045 Q 262.277607 23.948678 262.338573 24.231557 Q 262.348327 24.268136 262.309309 24.268136 L 262.306871 24.268136 Q 262.280046 24.265698 262.277607 24.258382 L 262.016676 23.375605 C 261.943518 23.129305 261.653323 23.026884 261.458234 23.180516 Q 261.441164 23.195148 261.424094 23.309763 Q 261.304602 24.158399 261.346058 25.014351 L 261.346058 25.01679 C 261.346058 25.01679 261.346058 25.01679 261.346058 25.01679 C 261.34362 25.01679 261.34362 25.01679 261.34362 25.01679 Q 261.197303 24.599787 261.16804 23.912099 Q 261.150969 23.473149 260.899793 23.221973 C 260.687634 23.012252 260.302333 23.065901 260.060911 22.926901 Q 259.534171 22.622074 259.790225 23.161007 Q 259.824365 23.229288 259.753646 23.475588 Q 259.699996 23.656045 259.624399 23.485342 Q 259.492714 23.187832 259.55368 22.968357 Q 259.590259 22.839111 259.458574 22.817163 L 259.004992 22.744005 Q 258.853798 22.719619 258.79771 22.863497 Q 258.612376 23.351219 258.741622 23.851134 Q 258.751377 23.887713 258.712359 23.887713 L 258.639201 23.887713 Q 258.597744 23.887713 258.585551 23.848695 Q 258.475814 23.399991 258.451428 22.939094 Q 258.444112 22.82204 258.351445 22.739128 Q 258.251462 22.651338 258.105145 22.690355 Q 258.058811 22.704987 258.051496 22.751321 Q 258.04418 22.797654 258.068566 22.839111 C 258.085636 22.865935 258.083198 22.902515 258.06125 22.924462 Q 258.000285 22.992743 257.919811 22.934217 Q 257.853968 22.887883 257.873477 22.809847 Q 257.929565 22.570864 257.680827 22.514776 C 257.53451 22.483074 257.390632 22.585495 257.373562 22.73425 Q 257.305281 23.343903 257.368685 23.909661 L 257.334544 23.953556 L 257.334544 23.955994 C 257.319913 23.973065 257.290649 23.953556 257.285772 23.921854 Q 257.137017 23.1732 256.766348 22.719619 Q 256.381048 22.253844 256.317644 22.853742 L 256.251801 23.502413 Q 256.239608 23.604834 256.205468 23.50729 L 256.020133 22.96348 Q 255.732377 22.119721 255.576306 22.99762 Q 255.495832 23.443886 255.751886 24.080363 Q 255.76164 24.10475 255.717745 24.146206 L 255.715307 24.148644 C 255.695798 24.165715 255.664096 24.151083 255.651903 24.119381 C 255.490955 23.704817 255.427551 23.390237 255.154426 23.087849 Q 254.808144 22.702549 254.717915 22.356266 Q 254.583792 21.834403 254.442352 22.353827 L 253.942437 24.194978 Q 253.891226 24.382751 253.881472 24.187662 Q 253.859524 23.775537 253.864402 23.378044 C 253.86684 23.192709 253.715646 23.041515 253.530312 23.041515 L 253.327907 23.041515 Q 253.132818 23.041515 253.149889 23.236604 Q 253.184029 23.607273 253.227924 24.014521 Q 253.230363 24.043784 253.176713 24.070609 C 253.149889 24.082802 253.118187 24.06817 253.110871 24.041346 Q 253.015765 23.741397 252.806045 23.673115 Q 252.667044 23.62922 252.703623 23.487781 Q 252.723132 23.407307 252.67436 23.346342 C 252.625587 23.287815 252.535359 23.287815 252.486587 23.346342 Q 252.150058 23.75359 252.067146 24.043784 C 252.057391 24.073048 252.028128 24.085241 252.001303 24.073048 Q 251.97204 24.058416 251.945215 24.029153 Q 251.891566 23.968187 251.891566 23.897468 Q 251.894004 23.634098 251.86718 23.458518 C 251.857425 23.395114 251.801337 23.34878 251.737933 23.34878 L 251.662336 23.34878 Q 251.506265 23.34878 251.51602 23.504851 Q 251.535529 23.834064 251.347756 24.10475 C 251.306299 24.168153 251.28679 24.24375 251.294106 24.316909 Q 251.311176 24.516875 251.294106 24.590033 Q 251.281913 24.636367 251.255088 24.658314 Q 251.220948 24.685139 251.196562 24.694893 C 251.118526 24.719279 251.040491 24.680262 251.042929 24.619296 L 251.072193 23.948678 Q 251.079508 23.763344 250.91856 23.670677 L 250.857595 23.634098 Q 250.686892 23.536553 250.686892 23.734081 L 250.686892 26.265358 Q 250.686892 26.770151 250.538137 26.289744 Q 250.328416 25.609372 249.962625 25.028983 Q 249.913853 24.953386 249.828501 24.980211 L 249.735834 25.007035 C 249.691939 25.021667 249.669992 25.070439 249.694378 25.109457 Q 250.00652 25.636197 249.972379 26.243411 Q 249.967502 26.377534 250.018713 26.499465 Q 250.294276 27.143258 250.411329 27.470032 Q 250.53326 27.811437 250.340609 27.477348 Q 250.126012 27.099363 249.696816 25.872742 Q 249.689501 25.855672 249.404183 25.570354 Q 249.37492 25.54353 249.331025 25.521582 C 249.243235 25.475249 249.157883 25.592302 249.192024 25.706917 Q 250.294276 29.330692 253.683944 39.765506 C 253.915612 40.484896 254.103385 41.340848 254.281404 42.006589 C 254.303351 42.09194 254.381387 42.152905 254.471616 42.152905 L 267.883973 42.152905 C 267.969324 42.152905 268.040044 42.089501 268.049798 42.00415 Q 268.179045 41.02139 268.564345 39.865489 Q 270.571322 33.866507 272.112523 29.506272 Q 272.3637 28.794197 272.410034 28.43816 C 272.41735 28.382072 272.395402 28.325984 272.356384 28.286966 L 271.788188 27.716332 Q 271.656503 27.587085 271.583345 27.755349 L 271.551643 27.830946 Q 271.417519 28.14065 271.417519 27.804122 L 271.417519 27.423698 Q 271.417519 27.292013 271.302905 27.223732 L 269.666597 26.27999 Q 269.576368 26.228779 269.505649 26.304376 Q 269.352016 26.467763 269.298367 26.794537 C 269.295928 26.80673 269.283735 26.816484 269.271542 26.814046 C 269.259349 26.814046 269.249595 26.801853 269.249595 26.78966" style="fill:none;stroke-width:0.50;stroke:#7a7a7a;"/>
		<path vector-effect="non-scaling-stroke" d="M 264.096128 24.629026 C 264.216303 24.629051 264.316286 24.470541 264.318724 24.272502 C 264.321163 24.075486 264.223619 23.912099 264.102371 23.912124 C 263.982196 23.912099 263.882213 24.070609 263.879775 24.268649 C 263.877336 24.465664 263.97488 24.629051 264.096128 24.629026" style="fill:none;stroke-width:0.50;stroke:#7a7a7a;"/>
		<path vector-effect="non-scaling-stroke" d="M 270.312829 44.9695 C 270.312829 44.86464 270.227477 44.779289 270.122617 44.779289 L 252.369533 44.779289 C 252.264673 44.779289 252.179322 44.86464 252.179322 44.9695 L 252.179322 73.086678 C 252.179322 73.191539 252.264673 73.27689 252.369533 73.27689 L 270.122617 73.27689 C 270.227477 73.27689 270.312829 73.191539 270.312829 73.086678 L 270.312829 44.9695" style="fill:none;stroke-width:0.50;stroke:#7a7a7a;"/>
		<path vector-effect="non-scaling-stroke" d="M 274.148763 76.273942 C 274.148763 76.171521 274.06585 76.088608 273.963429 76.088608 L 248.504336 76.088608 C 248.401914 76.088608 248.319001 76.171521 248.319001 76.273942 L 248.319001 125.036396 C 248.319001 125.138818 248.401914 125.221731 248.504336 125.221731 L 273.963429 125.221731 C 274.06585 125.221731 274.148763 125.138818 274.148763 125.036396 L 274.148763 76.273942" style="fill:none;stroke-width:0.50;stroke:#7a7a7a;"/>
		<path vector-effect="non-scaling-stroke" d="M 242.38257 84.09042 C 242.383424 83.987267 242.300511 83.904354 242.197577 83.904769 L 216.606824 83.860118 C 216.50489 83.860459 216.421977 83.943372 216.421172 84.045111 L 216.349672 125.013717 C 216.348819 125.11687 216.431732 125.199783 216.534665 125.199368 L 242.125419 125.244019 C 242.227353 125.243678 242.310265 125.160765 242.31107 125.059026 L 242.38257 84.09042" style="fill:none;stroke-width:0.50;stroke:#7a7a7a;"/>
		<path vector-effect="non-scaling-stroke" d="M 222.06736 39.816716 C 222.006395 39.809401 221.955184 39.855734 221.955184 39.916699 L 221.955184 56.296846 C 221.955184 56.340741 221.989325 56.374881 222.03322 56.374881 L 237.028235 56.374881 Q 237.116025 56.374881 237.116025 56.287091 L 237.116025 35.658886 C 237.116025 35.612552 237.064814 35.585727 237.028235 35.612552 Q 234.340887 37.500037 231.165816 38.673008 Q 226.715352 40.316632 222.06736 39.816716" style="fill:none;stroke-width:0.50;stroke:#7a7a7a;"/>
		<path vector-effect="non-scaling-stroke" d="M 260.199911 23.397552 L 260.253561 24.838771 C 260.253561 24.843648 260.255999 24.846087 260.260877 24.848526 C 260.265754 24.848526 260.270631 24.846087 260.270631 24.84121 Q 260.412071 24.22668 260.341351 23.31464 Q 260.341351 23.282938 260.312087 23.275622 Q 260.270631 23.263429 260.251122 23.265868 C 260.21942 23.270745 260.197473 23.326833 260.199911 23.397552" style="fill:none;stroke-width:0.50;stroke:#7a7a7a;"/>
		<path vector-effect="non-scaling-stroke" d="M 260.621791 23.497536 Q 260.580335 23.6658 260.677879 23.687747 C 260.719335 23.697502 260.76323 23.675554 260.777862 23.636536 Q 260.831512 23.509729 260.736406 23.448763 C 260.692511 23.421939 260.633984 23.446325 260.621791 23.497536" style="fill:none;stroke-width:0.50;stroke:#7a7a7a;"/>
		<path vector-effect="non-scaling-stroke" d="M 251.754565 24.841112 C 251.794021 24.84121 251.828162 24.719279 251.833015 24.565184 C 251.837916 24.412014 251.808653 24.285207 251.770074 24.285304 C 251.730617 24.285207 251.696477 24.407137 251.691624 24.561233 C 251.686722 24.714402 251.715986 24.84121 251.754565 24.841112" style="fill:none;stroke-width:0.50;stroke:#7a7a7a;"/>
		<path vector-effect="non-scaling-stroke" d="M 266.373912 25.700942 C 266.428122 25.672776 266.39642 25.504512 266.30407 25.320738 C 266.211086 25.13872 266.091594 25.011913 266.038506 25.039835 C 265.984295 25.068001 266.015997 25.236265 266.108347 25.420038 C 266.201332 25.602056 266.320824 25.728864 266.373912 25.700942" style="fill:none;stroke-width:0.50;stroke:#7a7a7a;"/>
		<path vector-effect="non-scaling-stroke" d="M 270.400009 27.371219 C 270.4689 27.379803 270.534742 27.294452 270.546155 27.183934 C 270.559128 27.072538 270.512795 26.977433 270.445123 26.968946 C 270.376233 26.960362 270.31039 27.045714 270.298978 27.156231 C 270.286004 27.267627 270.332338 27.362733 270.400009 27.371219" style="fill:none;stroke-width:0.50;stroke:#7a7a7a;"/>
		<path vector-effect="non-scaling-stroke" d="M 270.941137 27.508659 C 270.981008 27.511488 271.020026 27.450523 271.024708 27.373097 C 271.02978 27.294452 271.002956 27.228609 270.962353 27.226561 C 270.922481 27.223732 270.883464 27.284697 270.878782 27.362123 C 270.873709 27.440769 270.900534 27.506611 270.941137 27.508659" style="fill:none;stroke-width:0.50;stroke:#7a7a7a;"/>
		<path vector-effect="non-scaling-stroke" d="M 250.513751 28.696653 Q 250.508874 28.803952 250.594225 28.823461 C 250.63812 28.835654 250.674699 28.791759 250.660067 28.750302 Q 250.613734 28.625933 250.5674 28.621056 Q 250.518628 28.61374 250.513751 28.696653" style="fill:none;stroke-width:0.50;stroke:#7a7a7a;"/>
		<path d="M 299.922437 127.179935 Q 294.364843 133.652007 287.470892 138.743825 Q 274.243869 148.512899 258.305111 151.639197 Q 250.947823 153.080416 243.471044 152.843871 C 241.764017 152.790221 239.683882 152.73901 237.772011 152.497588 Q 233.004528 151.89769 231.760837 151.597741 C 229.770931 151.112457 227.895639 150.77349 226.095945 150.200417 Q 221.982009 148.890883 221.211408 148.61532 Q 213.110344 145.706058 206.009111 140.987347 Q 202.278037 138.50728 198.807894 135.695562 Q 191.006779 129.379561 185.178501 121.127304 Q 174.287666 105.715286 172.36848 86.808739 Q 171.939285 82.589943 172.010004 77.732231 C 172.190461 65.558688 175.665481 53.541216 181.59862 42.977156 Q 183.954318 38.785184 187.314723 34.322527 C 195.081697 24.007205 205.723793 15.562297 217.546177 10.641181 C 219.099571 9.99495 220.367649 9.438946 221.85764 8.907329 Q 229.161278 6.305332 236.408828 5.356713 Q 241.729876 4.65927 249.033514 4.976289 Q 251.567231 5.086027 253.876595 5.400608 C 265.950155 7.04667 277.694503 11.999487 287.461137 19.32995 Q 288.556073 20.151762 292.518815 23.439009 Q 294.781846 25.3143 298.495849 29.372148 Q 311.491204 43.562422 315.909966 62.151949 C 317.797451 70.089626 318.265664 78.073637 317.558467 86.186894 Q 317.326799 88.832786 316.953692 91.027535 Q 313.488426 111.387494 299.922437 127.179935 Z M 221.479655 37.509791 L 221.384549 37.19521 Q 221.326023 36.995244 221.13825 37.083034 C 220.182314 37.534177 220.196946 38.041408 220.194508 39.007098 Q 220.174999 48.510363 220.18963 56.355372 Q 220.18963 56.479741 220.070138 56.506566 Q 219.401959 56.665076 219.17273 56.679707 C 218.443585 56.718725 218.57527 57.189377 218.57527 57.723433 Q 218.580147 68.753268 218.577709 81.075566 C 218.577709 81.170672 218.655744 81.246269 218.75085 81.246269 L 240.078937 81.246269 Q 240.420342 81.246269 240.420342 80.904863 L 240.420342 57.221079 C 240.420342 57.035745 240.295973 56.872358 240.115516 56.823585 L 238.952299 56.506566 Q 238.842561 56.477303 238.842561 56.362688 Q 238.837684 53.102266 238.837684 34.561511 Q 238.837684 33.127608 237.401343 33.073959 Q 237.279412 33.069081 237.281851 32.947151 Q 237.367202 27.140819 237.303798 25.228949 Q 237.191622 21.814894 236.155213 18.571542 Q 235.767474 17.366869 235.121242 16.401179 C 235.045645 16.289003 234.889574 16.271933 234.792029 16.3646 Q 234.543291 16.601145 234.360395 16.930358 Q 233.399583 18.683719 232.309524 20.36636 Q 230.146477 23.704817 226.651948 25.675215 C 223.986547 27.17496 221.662551 28.213808 221.691814 31.625424 Q 221.706446 33.056888 221.655235 37.33665 Q 221.652797 37.478089 221.596708 37.536616 Q 221.513796 37.626844 221.479655 37.509791 Z M 269.249595 26.78966 Q 269.278858 26.331201 269.213016 26.043445 Q 269.171559 25.85811 268.988663 25.865426 Q 268.85454 25.870303 268.825276 25.99955 Q 268.786259 26.165375 268.78382 26.172691 Q 268.69603 26.358026 268.627749 26.131235 Q 268.452169 25.553284 268.205869 25.565477 Q 268.057114 25.572793 268.103448 25.714232 Q 268.179045 25.943462 268.132711 26.145866 Q 268.093693 26.319008 268.018096 26.158059 Q 267.898605 25.899567 267.944938 25.655706 Q 267.969324 25.531337 267.881534 25.445985 Q 267.671814 25.238703 267.515743 25.253335 Q 267.359672 25.265528 267.37918 25.419161 L 267.393812 25.533775 Q 267.41576 25.699601 267.335286 25.550845 L 267.159706 25.211879 Q 267.115811 25.131404 267.032898 25.099703 L 265.416099 24.499804 Q 265.047869 24.363242 265.191747 24.64856 Q 265.22101 24.707086 265.18687 24.909491 C 265.179554 24.94607 265.130782 24.948509 265.118589 24.914368 Q 265.082009 24.802192 265.062501 24.555892 Q 265.02836 24.126697 264.857657 24.13889 C 264.491866 24.165715 264.208987 24.497366 264.216303 24.897298 Q 264.218741 24.958263 264.15046 25.204563 Q 264.096811 25.404529 264.057793 25.202124 Q 263.972442 24.782683 263.699317 24.558331 Q 263.596896 24.475418 263.604212 24.341295 Q 263.618843 24.13889 263.704195 23.982819 Q 263.787107 23.834064 263.626159 23.775537 L 263.462772 23.719449 Q 263.270122 23.648729 263.216473 23.846257 L 263.036015 24.511997 Q 263.033577 24.519313 263.026261 24.519313 L 262.955541 24.519313 Q 262.899453 24.519313 262.909208 24.463225 Q 262.955541 24.185224 262.948225 23.863327 Q 262.945787 23.636536 262.85312 23.551185 Q 262.721435 23.431693 262.472696 23.487781 Q 262.338573 23.519483 262.319064 23.656045 Q 262.277607 23.948678 262.338573 24.231557 Q 262.348327 24.268136 262.309309 24.268136 L 262.306871 24.268136 Q 262.280046 24.265698 262.277607 24.258382 L 262.016676 23.375605 C 261.943518 23.129305 261.653323 23.026884 261.458234 23.180516 Q 261.441164 23.195148 261.424094 23.309763 Q 261.304602 24.158399 261.346058 25.014351 L 261.346058 25.01679 C 261.346058 25.01679 261.346058 25.01679 261.346058 25.01679 C 261.34362 25.01679 261.34362 25.01679 261.34362 25.01679 Q 261.197303 24.599787 261.16804 23.912099 Q 261.150969 23.473149 260.899793 23.221973 C 260.687634 23.012252 260.302333 23.065901 260.060911 22.926901 Q 259.534171 22.622074 259.790225 23.161007 Q 259.824365 23.229288 259.753646 23.475588 Q 259.699996 23.656045 259.624399 23.485342 Q 259.492714 23.187832 259.55368 22.968357 Q 259.590259 22.839111 259.458574 22.817163 L 259.004992 22.744005 Q 258.853798 22.719619 258.79771 22.863497 Q 258.612376 23.351219 258.741622 23.851134 Q 258.751377 23.887713 258.712359 23.887713 L 258.639201 23.887713 Q 258.597744 23.887713 258.585551 23.848695 Q 258.475814 23.399991 258.451428 22.939094 Q 258.444112 22.82204 258.351445 22.739128 Q 258.251462 22.651338 258.105145 22.690355 Q 258.058811 22.704987 258.051496 22.751321 Q 258.04418 22.797654 258.068566 22.839111 C 258.085636 22.865935 258.083198 22.902515 258.06125 22.924462 Q 258.000285 22.992743 257.919811 22.934217 Q 257.853968 22.887883 257.873477 22.809847 Q 257.929565 22.570864 257.680827 22.514776 C 257.53451 22.483074 257.390632 22.585495 257.373562 22.73425 Q 257.305281 23.343903 257.368685 23.909661 L 257.334544 23.953556 L 257.334544 23.955994 C 257.319913 23.973065 257.290649 23.953556 257.285772 23.921854 Q 257.137017 23.1732 256.766348 22.719619 Q 256.381048 22.253844 256.317644 22.853742 L 256.251801 23.502413 Q 256.239608 23.604834 256.205468 23.50729 L 256.020133 22.96348 Q 255.732377 22.119721 255.576306 22.99762 Q 255.495832 23.443886 255.751886 24.080363 Q 255.76164 24.10475 255.717745 24.146206 L 255.715307 24.148644 C 255.695798 24.165715 255.664096 24.151083 255.651903 24.119381 C 255.490955 23.704817 255.427551 23.390237 255.154426 23.087849 Q 254.808144 22.702549 254.717915 22.356266 Q 254.583792 21.834403 254.442352 22.353827 L 253.942437 24.194978 Q 253.891226 24.382751 253.881472 24.187662 Q 253.859524 23.775537 253.864402 23.378044 C 253.86684 23.192709 253.715646 23.041515 253.530312 23.041515 L 253.327907 23.041515 Q 253.132818 23.041515 253.149889 23.236604 Q 253.184029 23.607273 253.227924 24.014521 Q 253.230363 24.043784 253.176713 24.070609 C 253.149889 24.082802 253.118187 24.06817 253.110871 24.041346 Q 253.015765 23.741397 252.806045 23.673115 Q 252.667044 23.62922 252.703623 23.487781 Q 252.723132 23.407307 252.67436 23.346342 C 252.625587 23.287815 252.535359 23.287815 252.486587 23.346342 Q 252.150058 23.75359 252.067146 24.043784 C 252.057391 24.073048 252.028128 24.085241 252.001303 24.073048 Q 251.97204 24.058416 251.945215 24.029153 Q 251.891566 23.968187 251.891566 23.897468 Q 251.894004 23.634098 251.86718 23.458518 C 251.857425 23.395114 251.801337 23.34878 251.737933 23.34878 L 251.662336 23.34878 Q 251.506265 23.34878 251.51602 23.504851 Q 251.535529 23.834064 251.347756 24.10475 C 251.306299 24.168153 251.28679 24.24375 251.294106 24.316909 Q 251.311176 24.516875 251.294106 24.590033 Q 251.281913 24.636367 251.255088 24.658314 Q 251.220948 24.685139 251.196562 24.694893 C 251.118526 24.719279 251.040491 24.680262 251.042929 24.619296 L 251.072193 23.948678 Q 251.079508 23.763344 250.91856 23.670677 L 250.857595 23.634098 Q 250.686892 23.536553 250.686892 23.734081 L 250.686892 26.265358 Q 250.686892 26.770151 250.538137 26.289744 Q 250.328416 25.609372 249.962625 25.028983 Q 249.913853 24.953386 249.828501 24.980211 L 249.735834 25.007035 C 249.691939 25.021667 249.669992 25.070439 249.694378 25.109457 Q 250.00652 25.636197 249.972379 26.243411 Q 249.967502 26.377534 250.018713 26.499465 Q 250.294276 27.143258 250.411329 27.470032 Q 250.53326 27.811437 250.340609 27.477348 Q 250.126012 27.099363 249.696816 25.872742 Q 249.689501 25.855672 249.404183 25.570354 Q 249.37492 25.54353 249.331025 25.521582 C 249.243235 25.475249 249.157883 25.592302 249.192024 25.706917 Q 250.294276 29.330692 253.683944 39.765506 C 253.915612 40.484896 254.103385 41.340848 254.281404 42.006589 C 254.303351 42.09194 254.381387 42.152905 254.471616 42.152905 L 267.883973 42.152905 C 267.969324 42.152905 268.040044 42.089501 268.049798 42.00415 Q 268.179045 41.02139 268.564345 39.865489 Q 270.571322 33.866507 272.112523 29.506272 Q 272.3637 28.794197 272.410034 28.43816 C 272.41735 28.382072 272.395402 28.325984 272.356384 28.286966 L 271.788188 27.716332 Q 271.656503 27.587085 271.583345 27.755349 L 271.551643 27.830946 Q 271.417519 28.14065 271.417519 27.804122 L 271.417519 27.423698 Q 271.417519 27.292013 271.302905 27.223732 L 269.666597 26.27999 Q 269.576368 26.228779 269.505649 26.304376 Q 269.352016 26.467763 269.298367 26.794537 C 269.295928 26.80673 269.283735 26.816484 269.271542 26.814046 C 269.259349 26.814046 269.249595 26.801853 269.249595 26.78966 Z M 264.096128 24.629026 C 264.216303 24.629051 264.316286 24.470541 264.318724 24.272502 C 264.321163 24.075486 264.223619 23.912099 264.102371 23.912124 C 263.982196 23.912099 263.882213 24.070609 263.879775 24.268649 C 263.877336 24.465664 263.97488 24.629051 264.096128 24.629026 Z M 270.312829 44.9695 C 270.312829 44.86464 270.227477 44.779289 270.122617 44.779289 L 252.369533 44.779289 C 252.264673 44.779289 252.179322 44.86464 252.179322 44.9695 L 252.179322 73.086678 C 252.179322 73.191539 252.264673 73.27689 252.369533 73.27689 L 270.122617 73.27689 C 270.227477 73.27689 270.312829 73.191539 270.312829 73.086678 L 270.312829 44.9695 Z M 274.148763 76.273942 C 274.148763 76.171521 274.06585 76.088608 273.963429 76.088608 L 248.504336 76.088608 C 248.401914 76.088608 248.319001 76.171521 248.319001 76.273942 L 248.319001 125.036396 C 248.319001 125.138818 248.401914 125.221731 248.504336 125.221731 L 273.963429 125.221731 C 274.06585 125.221731 274.148763 125.138818 274.148763 125.036396 L 274.148763 76.273942 Z M 242.38257 84.09042 C 242.383424 83.987267 242.300511 83.904354 242.197577 83.904769 L 216.606824 83.860118 C 216.50489 83.860459 216.421977 83.943372 216.421172 84.045111 L 216.349672 125.013717 C 216.348819 125.11687 216.431732 125.199783 216.534665 125.199368 L 242.125419 125.244019 C 242.227353 125.243678 242.310265 125.160765 242.31107 125.059026 L 242.38257 84.09042 Z" style="fill:#f2f2f2;"/>
		<path fill-opacity="0.996" d="M 221.596708 37.536616 Q 221.652797 37.478089 221.655235 37.33665 Q 221.706446 33.056888 221.691814 31.625424 C 221.662551 28.213808 223.986547 27.17496 226.651948 25.675215 Q 230.146477 23.704817 232.309524 20.36636 Q 233.399583 18.683719 234.360395 16.930358 Q 234.543291 16.601145 234.792029 16.3646 C 234.889574 16.271933 235.045645 16.289003 235.121242 16.401179 Q 235.767474 17.366869 236.155213 18.571542 Q 237.191622 21.814894 237.303798 25.228949 Q 237.367202 27.140819 237.281851 32.947151 Q 237.279412 33.069081 237.401343 33.073959 Q 238.837684 33.127608 238.837684 34.561511 Q 238.837684 53.102266 238.842561 56.362688 Q 238.842561 56.477303 238.952299 56.506566 L 240.115516 56.823585 C 240.295973 56.872358 240.420342 57.035745 240.420342 57.221079 L 240.420342 80.904863 Q 240.420342 81.246269 240.078937 81.246269 L 218.75085 81.246269 C 218.655744 81.246269 218.577709 81.170672 218.577709 81.075566 Q 218.580147 68.753268 218.57527 57.723433 C 218.57527 57.189377 218.443585 56.718725 219.17273 56.679707 Q 219.401959 56.665076 220.070138 56.506566 Q 220.18963 56.479741 220.18963 56.355372 Q 220.174999 48.510363 220.194508 39.007098 C 220.196946 38.041408 220.182314 37.534177 221.13825 37.083034 Q 221.326023 36.995244 221.384549 37.19521 L 221.479655 37.509791 Q 221.513796 37.626844 221.596708 37.536616 Z M 222.06736 39.816716 C 222.006395 39.809401 221.955184 39.855734 221.955184 39.916699 L 221.955184 56.296846 C 221.955184 56.340741 221.989325 56.374881 222.03322 56.374881 L 237.028235 56.374881 Q 237.116025 56.374881 237.116025 56.287091 L 237.116025 35.658886 C 237.116025 35.612552 237.064814 35.585727 237.028235 35.612552 Q 234.340887 37.500037 231.165816 38.673008 Q 226.715352 40.316632 222.06736 39.816716 Z" style="fill:#020202;"/>
		<path fill-opacity="0.996" d="M 269.298367 26.794537 Q 269.352016 26.467763 269.505649 26.304376 Q 269.576368 26.228779 269.666597 26.27999 L 271.302905 27.223732 Q 271.417519 27.292013 271.417519 27.423698 L 271.417519 27.804122 Q 271.417519 28.14065 271.551643 27.830946 L 271.583345 27.755349 Q 271.656503 27.587085 271.788188 27.716332 L 272.356384 28.286966 C 272.395402 28.325984 272.41735 28.382072 272.410034 28.43816 Q 272.3637 28.794197 272.112523 29.506272 Q 270.571322 33.866507 268.564345 39.865489 Q 268.179045 41.02139 268.049798 42.00415 C 268.040044 42.089501 267.969324 42.152905 267.883973 42.152905 L 254.471616 42.152905 C 254.381387 42.152905 254.303351 42.09194 254.281404 42.006589 C 254.103385 41.340848 253.915612 40.484896 253.683944 39.765506 Q 250.294276 29.330692 249.192024 25.706917 C 249.157883 25.592302 249.243235 25.475249 249.331025 25.521582 Q 249.37492 25.54353 249.404183 25.570354 Q 249.689501 25.855672 249.696816 25.872742 Q 250.126012 27.099363 250.340609 27.477348 Q 250.53326 27.811437 250.411329 27.470032 Q 250.294276 27.143258 250.018713 26.499465 Q 249.967502 26.377534 249.972379 26.243411 Q 250.00652 25.636197 249.694378 25.109457 C 249.669992 25.070439 249.691939 25.021667 249.735834 25.007035 L 249.828501 24.980211 Q 249.913853 24.953386 249.962625 25.028983 Q 250.328416 25.609372 250.538137 26.289744 Q 250.686892 26.770151 250.686892 26.265358 L 250.686892 23.734081 Q 250.686892 23.536553 250.857595 23.634098 L 250.91856 23.670677 Q 251.079508 23.763344 251.072193 23.948678 L 251.042929 24.619296 C 251.040491 24.680262 251.118526 24.719279 251.196562 24.694893 Q 251.220948 24.685139 251.255088 24.658314 Q 251.281913 24.636367 251.294106 24.590033 Q 251.311176 24.516875 251.294106 24.316909 C 251.28679 24.24375 251.306299 24.168153 251.347756 24.10475 Q 251.535529 23.834064 251.51602 23.504851 Q 251.506265 23.34878 251.662336 23.34878 L 251.737933 23.34878 C 251.801337 23.34878 251.857425 23.395114 251.86718 23.458518 Q 251.894004 23.634098 251.891566 23.897468 Q 251.891566 23.968187 251.945215 24.029153 Q 251.97204 24.058416 252.001303 24.073048 C 252.028128 24.085241 252.057391 24.073048 252.067146 24.043784 Q 252.150058 23.75359 252.486587 23.346342 C 252.535359 23.287815 252.625587 23.287815 252.67436 23.346342 Q 252.723132 23.407307 252.703623 23.487781 Q 252.667044 23.62922 252.806045 23.673115 Q 253.015765 23.741397 253.110871 24.041346 C 253.118187 24.06817 253.149889 24.082802 253.176713 24.070609 Q 253.230363 24.043784 253.227924 24.014521 Q 253.184029 23.607273 253.149889 23.236604 Q 253.132818 23.041515 253.327907 23.041515 L 253.530312 23.041515 C 253.715646 23.041515 253.86684 23.192709 253.864402 23.378044 Q 253.859524 23.775537 253.881472 24.187662 Q 253.891226 24.382751 253.942437 24.194978 L 254.442352 22.353827 Q 254.583792 21.834403 254.717915 22.356266 Q 254.808144 22.702549 255.154426 23.087849 C 255.427551 23.390237 255.490955 23.704817 255.651903 24.119381 C 255.664096 24.151083 255.695798 24.165715 255.715307 24.148644 L 255.717745 24.146206 Q 255.76164 24.10475 255.751886 24.080363 Q 255.495832 23.443886 255.576306 22.99762 Q 255.732377 22.119721 256.020133 22.96348 L 256.205468 23.50729 Q 256.239608 23.604834 256.251801 23.502413 L 256.317644 22.853742 Q 256.381048 22.253844 256.766348 22.719619 Q 257.137017 23.1732 257.285772 23.921854 C 257.290649 23.953556 257.319913 23.973065 257.334544 23.955994 L 257.334544 23.953556 L 257.368685 23.909661 Q 257.305281 23.343903 257.373562 22.73425 C 257.390632 22.585495 257.53451 22.483074 257.680827 22.514776 Q 257.929565 22.570864 257.873477 22.809847 Q 257.853968 22.887883 257.919811 22.934217 Q 258.000285 22.992743 258.06125 22.924462 C 258.083198 22.902515 258.085636 22.865935 258.068566 22.839111 Q 258.04418 22.797654 258.051496 22.751321 Q 258.058811 22.704987 258.105145 22.690355 Q 258.251462 22.651338 258.351445 22.739128 Q 258.444112 22.82204 258.451428 22.939094 Q 258.475814 23.399991 258.585551 23.848695 Q 258.597744 23.887713 258.639201 23.887713 L 258.712359 23.887713 Q 258.751377 23.887713 258.741622 23.851134 Q 258.612376 23.351219 258.79771 22.863497 Q 258.853798 22.719619 259.004992 22.744005 L 259.458574 22.817163 Q 259.590259 22.839111 259.55368 22.968357 Q 259.492714 23.187832 259.624399 23.485342 Q 259.699996 23.656045 259.753646 23.475588 Q 259.824365 23.229288 259.790225 23.161007 Q 259.534171 22.622074 260.060911 22.926901 C 260.302333 23.065901 260.687634 23.012252 260.899793 23.221973 Q 261.150969 23.473149 261.16804 23.912099 Q 261.197303 24.599787 261.34362 25.01679 C 261.34362 25.01679 261.34362 25.01679 261.346058 25.01679 C 261.346058 25.01679 261.346058 25.01679 261.346058 25.01679 L 261.346058 25.014351 Q 261.304602 24.158399 261.424094 23.309763 Q 261.441164 23.195148 261.458234 23.180516 C 261.653323 23.026884 261.943518 23.129305 262.016676 23.375605 L 262.277607 24.258382 Q 262.280046 24.265698 262.306871 24.268136 L 262.309309 24.268136 Q 262.348327 24.268136 262.338573 24.231557 Q 262.277607 23.948678 262.319064 23.656045 Q 262.338573 23.519483 262.472696 23.487781 Q 262.721435 23.431693 262.85312 23.551185 Q 262.945787 23.636536 262.948225 23.863327 Q 262.955541 24.185224 262.909208 24.463225 Q 262.899453 24.519313 262.955541 24.519313 L 263.026261 24.519313 Q 263.033577 24.519313 263.036015 24.511997 L 263.216473 23.846257 Q 263.270122 23.648729 263.462772 23.719449 L 263.626159 23.775537 Q 263.787107 23.834064 263.704195 23.982819 Q 263.618843 24.13889 263.604212 24.341295 Q 263.596896 24.475418 263.699317 24.558331 Q 263.972442 24.782683 264.057793 25.202124 Q 264.096811 25.404529 264.15046 25.204563 Q 264.218741 24.958263 264.216303 24.897298 C 264.208987 24.497366 264.491866 24.165715 264.857657 24.13889 Q 265.02836 24.126697 265.062501 24.555892 Q 265.082009 24.802192 265.118589 24.914368 C 265.130782 24.948509 265.179554 24.94607 265.18687 24.909491 Q 265.22101 24.707086 265.191747 24.64856 Q 265.047869 24.363242 265.416099 24.499804 L 267.032898 25.099703 Q 267.115811 25.131404 267.159706 25.211879 L 267.335286 25.550845 Q 267.41576 25.699601 267.393812 25.533775 L 267.37918 25.419161 Q 267.359672 25.265528 267.515743 25.253335 Q 267.671814 25.238703 267.881534 25.445985 Q 267.969324 25.531337 267.944938 25.655706 Q 267.898605 25.899567 268.018096 26.158059 Q 268.093693 26.319008 268.132711 26.145866 Q 268.179045 25.943462 268.103448 25.714232 Q 268.057114 25.572793 268.205869 25.565477 Q 268.452169 25.553284 268.627749 26.131235 Q 268.69603 26.358026 268.78382 26.172691 Q 268.786259 26.165375 268.825276 25.99955 Q 268.85454 25.870303 268.988663 25.865426 Q 269.171559 25.85811 269.213016 26.043445 Q 269.278858 26.331201 269.249595 26.78966 C 269.249595 26.801853 269.259349 26.814046 269.271542 26.814046 C 269.283735 26.816484 269.295928 26.80673 269.298367 26.794537 Z M 260.199911 23.397552 L 260.253561 24.838771 C 260.253561 24.843648 260.255999 24.846087 260.260877 24.848526 C 260.265754 24.848526 260.270631 24.846087 260.270631 24.84121 Q 260.412071 24.22668 260.341351 23.31464 Q 260.341351 23.282938 260.312087 23.275622 Q 260.270631 23.263429 260.251122 23.265868 C 260.21942 23.270745 260.197473 23.326833 260.199911 23.397552 Z M 260.621791 23.497536 Q 260.580335 23.6658 260.677879 23.687747 C 260.719335 23.697502 260.76323 23.675554 260.777862 23.636536 Q 260.831512 23.509729 260.736406 23.448763 C 260.692511 23.421939 260.633984 23.446325 260.621791 23.497536 Z M 251.754565 24.841112 C 251.794021 24.84121 251.828162 24.719279 251.833015 24.565184 C 251.837916 24.412014 251.808653 24.285207 251.770074 24.285304 C 251.730617 24.285207 251.696477 24.407137 251.691624 24.561233 C 251.686722 24.714402 251.715986 24.84121 251.754565 24.841112 Z M 266.373912 25.700942 C 266.428122 25.672776 266.39642 25.504512 266.30407 25.320738 C 266.211086 25.13872 266.091594 25.011913 266.038506 25.039835 C 265.984295 25.068001 266.015997 25.236265 266.108347 25.420038 C 266.201332 25.602056 266.320824 25.728864 266.373912 25.700942 Z M 270.400009 27.371219 C 270.4689 27.379803 270.534742 27.294452 270.546155 27.183934 C 270.559128 27.072538 270.512795 26.977433 270.445123 26.968946 C 270.376233 26.960362 270.31039 27.045714 270.298978 27.156231 C 270.286004 27.267627 270.332338 27.362733 270.400009 27.371219 Z M 270.941137 27.508659 C 270.981008 27.511488 271.020026 27.450523 271.024708 27.373097 C 271.02978 27.294452 271.002956 27.228609 270.962353 27.226561 C 270.922481 27.223732 270.883464 27.284697 270.878782 27.362123 C 270.873709 27.440769 270.900534 27.506611 270.941137 27.508659 Z M 250.513751 28.696653 Q 250.508874 28.803952 250.594225 28.823461 C 250.63812 28.835654 250.674699 28.791759 250.660067 28.750302 Q 250.613734 28.625933 250.5674 28.621056 Q 250.518628 28.61374 250.513751 28.696653 Z" style="fill:#020202;"/>
		<path fill-opacity="0.996" d="M 264.096128 24.629026 C 263.97488 24.629051 263.877336 24.465664 263.879775 24.268649 C 263.882213 24.070609 263.982196 23.912099 264.102371 23.912124 C 264.223619 23.912099 264.321163 24.075486 264.318724 24.272502 C 264.316286 24.470541 264.216303 24.629051 264.096128 24.629026 Z" style="fill:#020202;"/>
		<path fill-opacity="0.996" d="M 270.312829 73.086678 C 270.312829 73.191539 270.227477 73.27689 270.122617 73.27689 L 252.369533 73.27689 C 252.264673 73.27689 252.179322 73.191539 252.179322 73.086678 L 252.179322 44.9695 C 252.179322 44.86464 252.264673 44.779289 252.369533 44.779289 L 270.122617 44.779289 C 270.227477 44.779289 270.312829 44.86464 270.312829 44.9695 L 270.312829 73.086678 Z" style="fill:#020202;"/>
		<path fill-opacity="0.996" d="M 274.148763 125.036396 C 274.148763 125.138818 274.06585 125.221731 273.963429 125.221731 L 248.504336 125.221731 C 248.401914 125.221731 248.319001 125.138818 248.319001 125.036396 L 248.319001 76.273942 C 248.319001 76.171521 248.401914 76.088608 248.504336 76.088608 L 273.963429 76.088608 C 274.06585 76.088608 274.148763 76.171521 274.148763 76.273942 L 274.148763 125.036396 Z" style="fill:#020202;"/>
		<path fill-opacity="0.996" d="M 242.31107 125.059026 C 242.310265 125.160765 242.227353 125.243678 242.125419 125.244019 L 216.534665 125.199368 C 216.431732 125.199783 216.348819 125.11687 216.349672 125.013717 L 216.421172 84.045111 C 216.421977 83.943372 216.50489 83.860459 216.606824 83.860118 L 242.197577 83.904769 C 242.300511 83.904354 242.383424 83.987267 242.38257 84.09042 L 242.31107 125.059026 Z" style="fill:#020202;"/>
		<path d="M 260.253561 24.838771 L 260.199911 23.397552 C 260.197473 23.326833 260.21942 23.270745 260.251122 23.265868 Q 260.270631 23.263429 260.312087 23.275622 Q 260.341351 23.282938 260.341351 23.31464 Q 260.412071 24.22668 260.270631 24.84121 C 260.270631 24.846087 260.265754 24.848526 260.260877 24.848526 C 260.255999 24.846087 260.253561 24.843648 260.253561 24.838771 Z" style="fill:#f2f2f2;"/>
		<path d="M 260.621791 23.497536 C 260.633984 23.446325 260.692511 23.421939 260.736406 23.448763 Q 260.831512 23.509729 260.777862 23.636536 C 260.76323 23.675554 260.719335 23.697502 260.677879 23.687747 Q 260.580335 23.6658 260.621791 23.497536 Z" style="fill:#f2f2f2;"/>
		<path d="M 251.754565 24.841112 C 251.715986 24.84121 251.686722 24.714402 251.691624 24.561233 C 251.696477 24.407137 251.730617 24.285207 251.770074 24.285304 C 251.808653 24.285207 251.837916 24.412014 251.833015 24.565184 C 251.828162 24.719279 251.794021 24.84121 251.754565 24.841112 Z" style="fill:#f2f2f2;"/>
		<path d="M 266.373912 25.700942 C 266.320824 25.728864 266.201332 25.602056 266.108347 25.420038 C 266.015997 25.236265 265.984295 25.068001 266.038506 25.039835 C 266.091594 25.011913 266.211086 25.13872 266.30407 25.320738 C 266.39642 25.504512 266.428122 25.672776 266.373912 25.700942 Z" style="fill:#f2f2f2;"/>
		<path d="M 270.400009 27.371219 C 270.332338 27.362733 270.286004 27.267627 270.298978 27.156231 C 270.31039 27.045714 270.376233 26.960362 270.445123 26.968946 C 270.512795 26.977433 270.559128 27.072538 270.546155 27.183934 C 270.534742 27.294452 270.4689 27.379803 270.400009 27.371219 Z" style="fill:#f2f2f2;"/>
		<path d="M 270.941137 27.508659 C 270.900534 27.506611 270.873709 27.440769 270.878782 27.362123 C 270.883464 27.284697 270.922481 27.223732 270.962353 27.226561 C 271.002956 27.228609 271.02978 27.294452 271.024708 27.373097 C 271.020026 27.450523 270.981008 27.511488 270.941137 27.508659 Z" style="fill:#f2f2f2;"/>
		<path d="M 250.5674 28.621056 Q 250.613734 28.625933 250.660067 28.750302 C 250.674699 28.791759 250.63812 28.835654 250.594225 28.823461 Q 250.508874 28.803952 250.513751 28.696653 Q 250.518628 28.61374 250.5674 28.621056 Z" style="fill:#f2f2f2;"/>
		<path d="M 222.06736 39.816716 Q 226.715352 40.316632 231.165816 38.673008 Q 234.340887 37.500037 237.028235 35.612552 C 237.064814 35.585727 237.116025 35.612552 237.116025 35.658886 L 237.116025 56.287091 Q 237.116025 56.374881 237.028235 56.374881 L 222.03322 56.374881 C 221.989325 56.374881 221.955184 56.340741 221.955184 56.296846 L 221.955184 39.916699 C 221.955184 39.855734 222.006395 39.809401 222.06736 39.816716 Z" style="fill:#f2f2f2;"/>
	</g>
	<g id="surface4">
	</g>
</svg>
