<?xml version="1.0" encoding="utf-8"?>
<svg xmlns="http://www.w3.org/2000/svg" width="490pt" height="280pt" viewBox="0 0 490 280" version="1.1" xmlns:xlink="http://www.w3.org/1999/xlink">
	<g id="surface2">
		<path vector-effect="non-scaling-stroke" d="M 284.793064 8.30366 L 205.42894 8.263621" style="fill:none;stroke-width:0.50;stroke:#58a5cb;"/>
		<path vector-effect="non-scaling-stroke" d="M 284.748576 145.550943 L 281.385293 145.570963" style="fill:none;stroke-width:0.50;stroke:#58a5cb;"/>
		<path vector-effect="non-scaling-stroke" d="M 247.992703 10.512482 L 247.641249 10.528053" style="fill:none;stroke-width:0.50;stroke:#177faa;"/>
		<path vector-effect="non-scaling-stroke" d="M 239.964868 10.525829 L 238.140866 10.554746" style="fill:none;stroke-width:0.50;stroke:#177faa;"/>
		<path vector-effect="non-scaling-stroke" d="M 229.968445 10.572541 L 228.071038 10.581438" style="fill:none;stroke-width:0.50;stroke:#177faa;"/>
		<path vector-effect="non-scaling-stroke" d="M 221.691478 10.57699 L 215.131743 10.574765" style="fill:none;stroke-width:0.50;stroke:#177faa;"/>
		<path vector-effect="non-scaling-stroke" d="M 212.050958 10.543624 Q 211.835192 10.481341 211.60608 10.530277" style="fill:none;stroke-width:0.50;stroke:#177faa;"/>
		<path vector-effect="non-scaling-stroke" d="M 208.545314 145.419704 L 208.394056 145.526475" style="fill:none;stroke-width:0.50;stroke:#177faa;"/>
		<path vector-effect="non-scaling-stroke" d="M 208.394056 145.526475 L 205.460081 145.519802" style="fill:none;stroke-width:0.50;stroke:#58a5cb;"/>
		<path vector-effect="non-scaling-stroke" d="M 208.547539 145.553168 Q 208.454114 145.499782 208.394056 145.526475" style="fill:none;stroke-width:0.50;stroke:#4f8eae;"/>
		<path vector-effect="non-scaling-stroke" d="M 314.93804 149.677192 L 175.286188 149.637153" style="fill:none;stroke-width:0.50;stroke:#4f8eae;"/>
		<path vector-effect="non-scaling-stroke" d="M 230.402202 55.458571 L 228.297926 55.471917 Q 228.186706 55.474141 228.113301 55.556444 C 227.804111 55.903449 227.60614 56.266025 227.276929 56.584114 Q 222.950485 60.768197 218.519493 65.214759" style="fill:none;stroke-width:0.50;stroke:#def2f9;"/>
		<path vector-effect="non-scaling-stroke" d="M 276.24917 145.515353 L 247.836996 145.533148" style="fill:none;stroke-width:0.50;stroke:#58a5cb;"/>
		<path vector-effect="non-scaling-stroke" d="M 251.94545 55.400736 L 251.956572 99.837439 C 251.956572 99.950883 252.049996 100.044308 252.16344 100.044308 L 271.159758 100.044308 C 271.257631 100.044308 271.337709 99.964229 271.337709 99.866356 L 271.337709 55.491937 Q 271.337709 55.445224 271.315466 55.418532 Q 271.306568 55.405185 271.302119 55.394063" style="fill:none;stroke-width:0.50;stroke:#73c0e0;"/>
		<path vector-effect="non-scaling-stroke" d="M 218.490576 72.739881 Q 219.876373 71.830104 220.999692 70.700113 Q 222.52785 69.163057 222.541196 69.151935 Q 224.34073 67.461396 227.094529 64.796573 Q 230.026279 61.960472 235.989878 56.397265 Q 236.534854 55.887879 236.51261 55.456346" style="fill:none;stroke-width:0.50;stroke:#def2f9;"/>
		<path vector-effect="non-scaling-stroke" d="M 218.501698 55.458571 L 218.519493 65.214759" style="fill:none;stroke-width:0.50;stroke:#73c0e0;"/>
		<path vector-effect="non-scaling-stroke" d="M 218.519493 65.214759 L 218.548411 68.606959" style="fill:none;stroke-width:0.50;stroke:#8cc9e1;"/>
		<path vector-effect="non-scaling-stroke" d="M 218.548411 68.606959 L 218.523942 71.95467" style="fill:none;stroke-width:0.50;stroke:#73c0e0;"/>
		<path vector-effect="non-scaling-stroke" d="M 218.523942 71.95467 L 218.490576 72.739881" style="fill:none;stroke-width:0.50;stroke:#8cc9e1;"/>
		<path vector-effect="non-scaling-stroke" d="M 218.490576 72.739881 L 218.47723 99.744014 C 218.47723 99.910844 218.610694 100.044308 218.775299 100.044308 L 237.994056 100.044308 Q 238.323266 100.044308 238.323266 99.715097 L 238.332164 55.400736" style="fill:none;stroke-width:0.50;stroke:#73c0e0;"/>
		<path vector-effect="non-scaling-stroke" d="M 242.547389 55.547546 L 242.558511 56.036913" style="fill:none;stroke-width:0.50;stroke:#177faa;"/>
		<path vector-effect="non-scaling-stroke" d="M 242.594101 145.486436 L 213.634726 145.526475" style="fill:none;stroke-width:0.50;stroke:#58a5cb;"/>
		<path vector-effect="non-scaling-stroke" d="M 213.603585 115.81748 Q 213.665868 115.586143 213.605809 115.332562" style="fill:none;stroke-width:0.50;stroke:#177faa;"/>
		<path vector-effect="non-scaling-stroke" d="M 213.614707 114.949966 L 213.612482 113.337281" style="fill:none;stroke-width:0.50;stroke:#177faa;"/>
		<path vector-effect="non-scaling-stroke" d="M 213.616931 113.21494 L 213.612482 111.722372" style="fill:none;stroke-width:0.50;stroke:#177faa;"/>
		<path vector-effect="non-scaling-stroke" d="M 213.614707 111.373142 L 213.614707 110.054077" style="fill:none;stroke-width:0.50;stroke:#177faa;"/>
		<path vector-effect="non-scaling-stroke" d="M 213.596911 109.497979 L 213.588014 108.694973" style="fill:none;stroke-width:0.50;stroke:#177faa;"/>
		<path vector-effect="non-scaling-stroke" d="M 213.603585 108.272338 L 213.605809 107.315849" style="fill:none;stroke-width:0.50;stroke:#177faa;"/>
		<path vector-effect="non-scaling-stroke" d="M 235.195769 55.500834 Q 234.748666 56.257128 234.457271 56.535177 C 229.634786 61.166364 224.805629 65.788653 220.03653 70.475449 Q 220.025408 70.488795 219.342519 71.22507 Q 218.971045 71.62546 218.523942 71.95467" style="fill:none;stroke-width:0.50;stroke:#def2f9;"/>
		<path vector-effect="non-scaling-stroke" d="M 218.548411 68.606959 Q 219.629466 67.77726 220.505877 66.836342 Q 221.902796 65.345998 221.913917 65.332652 Q 226.747524 60.516841 231.654535 55.516405" style="fill:none;stroke-width:0.50;stroke:#def2f9;"/>
		<path vector-effect="non-scaling-stroke" d="M 242.078042 16.109055 Q 240.1228 16.493875 238.16311 16.180236" style="fill:none;stroke-width:0.50;stroke:#58a5cb;"/>
		<path vector-effect="non-scaling-stroke" d="M 238.258759 49.597295 Q 238.285451 49.383753 238.212046 49.334816" style="fill:none;stroke-width:0.50;stroke:#58a5cb;"/>
		<path vector-effect="non-scaling-stroke" d="M 238.212046 49.334816 L 238.329939 43.807199" style="fill:none;stroke-width:0.50;stroke:#8cc9e1;"/>
		<path vector-effect="non-scaling-stroke" d="M 238.329939 43.807199 L 238.32549 26.734982" style="fill:none;stroke-width:0.50;stroke:#73c0e0;"/>
		<path vector-effect="non-scaling-stroke" d="M 238.32549 26.734982 L 238.32549 25.204599" style="fill:none;stroke-width:0.50;stroke:#8cc9e1;"/>
		<path vector-effect="non-scaling-stroke" d="M 238.32549 25.204599 L 238.307695 21.345277 Q 238.307695 21.227384 238.189802 21.229608 L 236.543751 21.234057" style="fill:none;stroke-width:0.50;stroke:#73c0e0;"/>
		<path vector-effect="non-scaling-stroke" d="M 236.543751 21.234057 L 233.734343 21.234057" style="fill:none;stroke-width:0.50;stroke:#8cc9e1;"/>
		<path vector-effect="non-scaling-stroke" d="M 233.734343 21.234057 L 218.58845 21.20514 C 218.530615 21.202916 218.481679 21.251852 218.481679 21.311911 L 218.506147 36.037394" style="fill:none;stroke-width:0.50;stroke:#73c0e0;"/>
		<path vector-effect="non-scaling-stroke" d="M 218.506147 36.037394 L 218.552859 39.015856" style="fill:none;stroke-width:0.50;stroke:#8cc9e1;"/>
		<path vector-effect="non-scaling-stroke" d="M 218.552859 39.015856 L 218.51282 43.65594" style="fill:none;stroke-width:0.50;stroke:#73c0e0;"/>
		<path vector-effect="non-scaling-stroke" d="M 218.51282 43.65594 L 218.470557 44.20759" style="fill:none;stroke-width:0.50;stroke:#8cc9e1;"/>
		<path vector-effect="non-scaling-stroke" d="M 218.470557 44.20759 L 218.483903 49.708514" style="fill:none;stroke-width:0.50;stroke:#73c0e0;"/>
		<path vector-effect="non-scaling-stroke" d="M 217.603044 49.637334 L 216.573149 49.639558" style="fill:none;stroke-width:0.50;stroke:#177faa;"/>
		<path vector-effect="non-scaling-stroke" d="M 214.497791 49.672924 L 214.293146 49.675148" style="fill:none;stroke-width:0.50;stroke:#177faa;"/>
		<path vector-effect="non-scaling-stroke" d="M 213.590238 44.438927 L 213.585789 42.425851" style="fill:none;stroke-width:0.50;stroke:#177faa;"/>
		<path vector-effect="non-scaling-stroke" d="M 213.588014 30.087142 L 213.590238 28.183062" style="fill:none;stroke-width:0.50;stroke:#177faa;"/>
		<path vector-effect="non-scaling-stroke" d="M 213.543526 17.964199 Q 213.65697 17.79737 213.525731 17.717292" style="fill:none;stroke-width:0.50;stroke:#177faa;"/>
		<path vector-effect="non-scaling-stroke" d="M 237.070933 16.169114 Q 237.413489 16.255865 237.653724 16.151319" style="fill:none;stroke-width:0.50;stroke:#177faa;"/>
		<path vector-effect="non-scaling-stroke" d="M 233.734343 21.234057 L 218.506147 36.037394" style="fill:none;stroke-width:0.50;stroke:#def2f9;"/>
		<path vector-effect="non-scaling-stroke" d="M 238.32549 26.734982 Q 238.096378 26.797265 237.842797 26.775021 Q 237.731577 26.763899 237.644826 26.832855 C 237.402367 27.026377 237.239986 27.337792 237.042015 27.526866 Q 228.335741 35.794935 222.247576 41.487157 Q 220.623769 43.006418 218.98884 44.456722 C 218.833133 44.594634 218.58845 44.532351 218.517269 44.338829 L 218.470557 44.20759" style="fill:none;stroke-width:0.50;stroke:#def2f9;"/>
		<path vector-effect="non-scaling-stroke" d="M 238.212046 49.334816 Q 238.223168 49.652904 237.284474 49.537236" style="fill:none;stroke-width:0.50;stroke:#c4d7e4;"/>
		<path vector-effect="non-scaling-stroke" d="M 238.329939 43.807199 Q 237.095401 45.017269 235.96096 46.078305 Q 234.846539 47.119321 232.619922 49.577275" style="fill:none;stroke-width:0.50;stroke:#def2f9;"/>
		<path vector-effect="non-scaling-stroke" d="M 238.32549 25.204599 Q 236.80623 26.436913 235.440452 27.709266 Q 228.509243 34.164455 222.478913 40.012384 Q 222.25425 40.230375 220.652687 41.707372 Q 219.736237 42.552641 218.88207 43.466867 Q 218.786421 43.569189 218.51282 43.65594" style="fill:none;stroke-width:0.50;stroke:#def2f9;"/>
		<path vector-effect="non-scaling-stroke" d="M 218.552859 39.015856 Q 227.25691 30.75446 235.56057 22.493064 Q 235.794131 22.261727 236.543751 21.234057" style="fill:none;stroke-width:0.50;stroke:#def2f9;"/>
		<path vector-effect="non-scaling-stroke" d="M 249.198324 16.09126 L 249.480822 16.115729" style="fill:none;stroke-width:0.50;stroke:#177faa;"/>
		<path vector-effect="non-scaling-stroke" d="M 271.35328 49.661802 L 271.311017 21.314135 Q 271.311017 21.198467 271.195348 21.198467 L 257.42413 21.209589" style="fill:none;stroke-width:0.50;stroke:#73c0e0;"/>
		<path vector-effect="non-scaling-stroke" d="M 257.42413 21.209589 L 252.078913 21.216262 C 252.029977 21.216262 251.992162 21.256301 251.989938 21.305238 L 251.965469 26.468054" style="fill:none;stroke-width:0.50;stroke:#8cc9e1;"/>
		<path vector-effect="non-scaling-stroke" d="M 251.965469 26.468054 L 251.969918 49.652904" style="fill:none;stroke-width:0.50;stroke:#73c0e0;"/>
		<path vector-effect="non-scaling-stroke" d="M 251.969918 49.652904 L 251.885391 49.672924" style="fill:none;stroke-width:0.50;stroke:#177faa;"/>
		<path vector-effect="non-scaling-stroke" d="M 250.799887 49.628436 L 249.202773 49.635109" style="fill:none;stroke-width:0.50;stroke:#177faa;"/>
		<path vector-effect="non-scaling-stroke" d="M 252.110055 49.679597 L 251.969918 49.652904" style="fill:none;stroke-width:0.50;stroke:#69a9c3;"/>
		<path vector-effect="non-scaling-stroke" d="M 257.42413 21.209589 Q 255.359893 23.516285 253.233373 25.484873 Q 252.784046 25.900834 252.399226 26.376854 Q 252.301353 26.499196 252.212377 26.510318 Q 252.105606 26.523664 251.965469 26.468054" style="fill:none;stroke-width:0.50;stroke:#def2f9;"/>
		<path vector-effect="non-scaling-stroke" d="M 274.41627 100.122161 C 274.41627 99.434824 273.860171 98.878725 273.172834 98.878725 C 272.485496 98.878725 271.929398 99.434824 271.929398 100.122161 C 271.929398 100.809499 272.485496 101.365597 273.172834 101.365597 C 273.860171 101.365597 274.41627 100.809499 274.41627 100.122161" style="fill:none;stroke-width:0.50;stroke:#73c0e0;"/>
		<path vector-effect="non-scaling-stroke" d="M 272.065086 107.84303 Q 272.601165 108.185587 272.783565 108.181138 C 273.815683 108.156669 275.061344 107.18461 274.260562 106.081311 C 273.490922 105.020275 271.99613 105.289427 271.818178 106.63296 C 271.802608 106.746404 271.726978 106.842053 271.620207 106.882092 L 267.013489 108.599324 Q 266.617547 108.746134 266.726542 109.122056 Q 266.726542 109.128729 266.728767 109.137627 Q 266.815518 109.5091 267.17587 109.388983 L 271.858217 107.818562 Q 271.967213 107.780747 272.065086 107.84303" style="fill:none;stroke-width:0.50;stroke:#73c0e0;"/>
		<path d="M 284.793064 8.30366 L 205.42894 8.263621 L 203.916352 8.281416 C 203.691689 8.28364 203.507064 8.10124 203.507064 7.876576 L 203.507064 4.682348 C 203.507064 4.548884 203.620508 4.442113 203.753972 4.448786 Q 205.515691 4.548884 207.27741 4.548884 Q 252.728436 4.54666 278.940685 4.502172 C 280.947088 4.499947 283.772067 4.539986 286.194432 4.451011 C 286.321222 4.446562 286.427993 4.54666 286.432442 4.67345 C 286.468032 5.738934 286.605944 7.03798 286.396851 8.005591 C 286.363485 8.163523 286.225573 8.276967 286.063192 8.279191 L 284.793064 8.30366 Z" style="fill:#90b3ce;"/>
		<path d="M 284.793064 8.30366 L 284.748576 145.550943 L 281.385293 145.570963 L 281.394191 10.643721 C 281.394191 10.57699 281.340806 10.523604 281.274074 10.523604 L 247.992703 10.512482 L 247.641249 10.528053 L 239.964868 10.525829 L 238.140866 10.554746 L 229.968445 10.572541 L 228.071038 10.581438 L 221.691478 10.57699 L 215.131743 10.574765 L 212.050958 10.543624 Q 211.835192 10.481341 211.60608 10.530277 L 208.603149 10.499136 C 208.54309 10.496911 208.491929 10.548072 208.491929 10.608131 L 208.545314 145.419704 L 208.394056 145.526475 L 205.460081 145.519802 Q 205.40892 139.60514 205.364432 133.730518 C 205.324393 128.578823 205.411145 123.424904 205.40892 118.27321 Q 205.377779 47.330638 205.308822 16.896491 Q 205.299925 12.66347 205.42894 8.263621 L 284.793064 8.30366 Z" style="fill:#2096c7;"/>
		<path d="M 212.050958 10.543624 L 211.60608 10.530277 Q 211.835192 10.481341 212.050958 10.543624 Z" style="fill:#0d688d;"/>
		<path d="M 239.964868 10.525829 L 238.140866 10.554746 L 239.964868 10.525829 Z" style="fill:#0d688d;"/>
		<path d="M 247.992703 10.512482 L 247.641249 10.528053 L 247.992703 10.512482 Z" style="fill:#0d688d;"/>
		<path d="M 221.691478 10.57699 L 215.131743 10.574765 L 221.691478 10.57699 Z" style="fill:#0d688d;"/>
		<path d="M 229.968445 10.572541 L 228.071038 10.581438 L 229.968445 10.572541 Z" style="fill:#0d688d;"/>
		<path d="M 218.501698 55.458571 L 218.519493 65.214759 L 218.548411 68.606959 L 218.523942 71.95467 L 218.490576 72.739881 L 218.47723 99.744014 C 218.47723 99.910844 218.610694 100.044308 218.775299 100.044308 L 237.994056 100.044308 Q 238.323266 100.044308 238.323266 99.715097 L 238.332164 55.400736 Q 239.560029 55.376268 242.251544 55.405185 Q 242.500676 55.409634 242.547389 55.547546 L 242.558511 56.036913 L 242.594101 145.486436 L 213.634726 145.526475 L 213.603585 115.81748 Q 213.665868 115.586143 213.605809 115.332562 L 213.614707 114.949966 L 213.612482 113.337281 L 213.616931 113.21494 L 213.612482 111.722372 Q 213.572443 111.555542 213.614707 111.373142 L 213.614707 110.054077 L 213.596911 109.497979 L 213.588014 108.694973 L 213.603585 108.272338 L 213.605809 107.315849 L 213.563546 55.578688 C 213.563546 55.469693 213.648072 55.380717 213.754843 55.376268 Q 216.114924 55.258375 218.501698 55.458571 Z" style="fill:#2096c7;"/>
		<path d="M 276.24917 145.515353 L 247.836996 145.533148 L 247.8192 55.676561 C 247.8192 55.507507 247.954888 55.371819 248.123942 55.374044 L 251.94545 55.400736 L 251.956572 99.837439 C 251.956572 99.950883 252.049996 100.044308 252.16344 100.044308 L 271.159758 100.044308 C 271.257631 100.044308 271.337709 99.964229 271.337709 99.866356 L 271.337709 55.491937 Q 271.337709 55.445224 271.315466 55.418532 Q 271.306568 55.405185 271.302119 55.394063 L 276.08234 55.325107 C 276.180213 55.322883 276.258067 55.402961 276.255843 55.49861 Q 276.164643 61.664628 276.175765 71.672173 Q 276.22915 120.34412 276.222477 139.889862 C 276.222477 141.433591 276.280311 143.637965 276.24917 145.515353 Z M 274.41627 100.122161 C 274.41627 99.434824 273.860171 98.878725 273.172834 98.878725 C 272.485496 98.878725 271.929398 99.434824 271.929398 100.122161 C 271.929398 100.809499 272.485496 101.365597 273.172834 101.365597 C 273.860171 101.365597 274.41627 100.809499 274.41627 100.122161 Z M 272.065086 107.84303 Q 272.601165 108.185587 272.783565 108.181138 C 273.815683 108.156669 275.061344 107.18461 274.260562 106.081311 C 273.490922 105.020275 271.99613 105.289427 271.818178 106.63296 C 271.802608 106.746404 271.726978 106.842053 271.620207 106.882092 L 267.013489 108.599324 Q 266.617547 108.746134 266.726542 109.122056 Q 266.726542 109.128729 266.728767 109.137627 Q 266.815518 109.5091 267.17587 109.388983 L 271.858217 107.818562 Q 271.967213 107.780747 272.065086 107.84303 Z" style="fill:#2096c7;"/>
		<path d="M 238.332164 55.400736 L 238.323266 99.715097 Q 238.323266 100.044308 237.994056 100.044308 L 218.775299 100.044308 C 218.610694 100.044308 218.47723 99.910844 218.47723 99.744014 L 218.490576 72.739881 Q 219.876373 71.830104 220.999692 70.700113 Q 222.52785 69.163057 222.541196 69.151935 Q 224.34073 67.461396 227.094529 64.796573 Q 230.026279 61.960472 235.989878 56.397265 Q 236.534854 55.887879 236.51261 55.456346 L 238.332164 55.400736 Z" style="fill:#c5e9f8;"/>
		<path d="M 271.302119 55.394063 Q 271.306568 55.405185 271.315466 55.418532 Q 271.337709 55.445224 271.337709 55.491937 L 271.337709 99.866356 C 271.337709 99.964229 271.257631 100.044308 271.159758 100.044308 L 252.16344 100.044308 C 252.049996 100.044308 251.956572 99.950883 251.956572 99.837439 L 251.94545 55.400736 L 271.302119 55.394063 Z" style="fill:#c5e9f8;"/>
		<path d="M 218.501698 55.458571 L 230.402202 55.458571 L 228.297926 55.471917 Q 228.186706 55.474141 228.113301 55.556444 C 227.804111 55.903449 227.60614 56.266025 227.276929 56.584114 Q 222.950485 60.768197 218.519493 65.214759 L 218.501698 55.458571 Z" style="fill:#c5e9f8;"/>
		<path d="M 235.195769 55.500834 Q 234.748666 56.257128 234.457271 56.535177 C 229.634786 61.166364 224.805629 65.788653 220.03653 70.475449 Q 220.025408 70.488795 219.342519 71.22507 Q 218.971045 71.62546 218.523942 71.95467 L 218.548411 68.606959 Q 219.629466 67.77726 220.505877 66.836342 Q 221.902796 65.345998 221.913917 65.332652 Q 226.747524 60.516841 231.654535 55.516405 L 235.195769 55.500834 Z" style="fill:#c5e9f8;"/>
		<path d="M 236.51261 55.456346 Q 236.534854 55.887879 235.989878 56.397265 Q 230.026279 61.960472 227.094529 64.796573 Q 224.34073 67.461396 222.541196 69.151935 Q 222.52785 69.163057 220.999692 70.700113 Q 219.876373 71.830104 218.490576 72.739881 L 218.523942 71.95467 Q 218.971045 71.62546 219.342519 71.22507 Q 220.025408 70.488795 220.03653 70.475449 C 224.805629 65.788653 229.634786 61.166364 234.457271 56.535177 Q 234.748666 56.257128 235.195769 55.500834 Q 235.762989 55.354024 236.51261 55.456346 Z" style="fill:#f7fbfa;"/>
		<path d="M 230.402202 55.458571 L 231.654535 55.516405 Q 226.747524 60.516841 221.913917 65.332652 Q 221.902796 65.345998 220.505877 66.836342 Q 219.629466 67.77726 218.548411 68.606959 L 218.519493 65.214759 Q 222.950485 60.768197 227.276929 56.584114 C 227.60614 56.266025 227.804111 55.903449 228.113301 55.556444 Q 228.186706 55.474141 228.297926 55.471917 L 230.402202 55.458571 Z" style="fill:#f7fbfa;"/>
		<path d="M 242.558511 56.036913 L 242.547389 55.547546 L 242.558511 56.036913 Z" style="fill:#0d688d;"/>
		<path d="M 213.605809 107.315849 L 213.603585 108.272338 L 213.605809 107.315849 Z" style="fill:#0d688d;"/>
		<path d="M 213.596911 109.497979 L 213.588014 108.694973 L 213.596911 109.497979 Z" style="fill:#0d688d;"/>
		<path d="M 213.614707 110.054077 L 213.614707 111.373142 L 213.614707 110.054077 Z" style="fill:#0d688d;"/>
		<path d="M 213.612482 111.722372 L 213.616931 113.21494 L 213.612482 111.722372 Z" style="fill:#0d688d;"/>
		<path d="M 213.612482 113.337281 L 213.614707 114.949966 L 213.612482 113.337281 Z" style="fill:#0d688d;"/>
		<path d="M 213.605809 115.332562 Q 213.665868 115.586143 213.603585 115.81748 Q 213.56577 115.575021 213.605809 115.332562 Z" style="fill:#0d688d;"/>
		<path d="M 208.545314 145.419704 L 208.547539 145.553168 Q 208.454114 145.499782 208.394056 145.526475 L 208.545314 145.419704 Z" style="fill:#0d688d;"/>
		<path d="M 242.594101 145.486436 C 242.705321 145.542046 242.885496 145.619899 243.021184 145.617675 Q 245.196641 145.608777 247.372097 145.682182 Q 247.681288 145.693304 247.836996 145.533148 L 276.24917 145.515353 L 281.385293 145.570963 L 284.748576 145.550943 Q 285.587172 145.679958 286.483603 145.646592 Q 288.109634 145.586533 288.118532 145.586533 Q 302.112189 145.622124 316.105847 145.57986 Q 316.415037 145.57986 316.630803 145.615451 C 316.739799 145.633246 316.819877 145.72667 316.819877 145.83789 L 316.819877 149.198948 C 316.819877 149.376899 316.688638 149.530383 316.510686 149.554851 Q 315.907876 149.641602 315.216089 149.557075 Q 315.033689 149.534831 314.93804 149.677192 L 175.286188 149.637153 Q 174.939182 149.697212 174.567709 149.690539 C 173.993815 149.683866 173.488878 149.730578 173.5 149.029894 Q 173.522244 147.450575 173.513346 146.109266 Q 173.511122 145.611002 174.009386 145.608777 L 205.460081 145.519802 L 208.394056 145.526475 Q 208.454114 145.499782 208.547539 145.553168 Q 208.774427 145.637694 208.890095 145.637694 Q 211.267972 145.639919 213.634726 145.526475 L 242.594101 145.486436 Z" style="fill:#90b3ce;"/>
		<path d="M 314.93804 149.677192 L 314.966957 152.28863 Q 314.966957 152.448786 314.806801 152.448786 L 175.488607 152.448786 Q 175.286188 152.448786 175.286188 152.246367 L 175.286188 149.637153 L 314.93804 149.677192 Z" style="fill:#0d688d;"/>
		<path d="M 242.078042 16.109055 Q 240.1228 16.493875 238.16311 16.180236 Q 240.116127 15.960021 242.078042 16.109055 Z" style="fill:#90b3ce;"/>
		<path d="M 238.258759 49.597295 Q 238.285451 49.383753 238.212046 49.334816 L 238.329939 43.807199 L 238.32549 26.734982 L 238.32549 25.204599 L 238.307695 21.345277 Q 238.307695 21.227384 238.189802 21.229608 L 236.543751 21.234057 L 233.734343 21.234057 L 218.58845 21.20514 C 218.530615 21.202916 218.481679 21.251852 218.481679 21.311911 L 218.506147 36.037394 L 218.552859 39.015856 L 218.51282 43.65594 L 218.470557 44.20759 L 218.483903 49.708514 L 217.603044 49.637334 L 216.573149 49.639558 L 214.497791 49.672924 L 214.293146 49.675148 L 213.926122 49.668475 C 213.710355 49.664026 213.539077 49.488299 213.541302 49.272533 L 213.590238 44.438927 L 213.585789 42.425851 L 213.588014 30.087142 L 213.590238 28.183062 L 213.543526 17.964199 Q 213.65697 17.79737 213.525731 17.717292 L 213.507936 16.3137 C 213.505711 16.23807 213.563546 16.173563 213.639175 16.16689 C 214.949342 16.053446 216.181656 16.140197 217.514068 16.151319 Q 226.778665 16.233621 236.58379 16.151319 Q 236.837371 16.149094 237.070933 16.169114 Q 237.413489 16.255865 237.653724 16.151319 Q 237.989607 16.100158 238.16311 16.180236 Q 240.1228 16.493875 242.078042 16.109055 Q 242.15812 16.004509 242.382783 16.022304 Q 242.498452 16.033426 242.551837 16.135748 Q 242.656384 16.347065 242.656384 16.674051 Q 242.654159 18.682678 242.654159 18.954054 Q 242.616345 40.125829 242.600774 44.287668 C 242.594101 46.149485 242.68975 47.766619 242.649711 49.508319 C 242.647486 49.608417 242.565184 49.68627 242.465086 49.684046 L 238.258759 49.597295 Z" style="fill:#2096c7;"/>
		<path d="M 249.198324 16.09126 L 249.480822 16.115729 L 275.95555 16.053446 Q 276.258067 16.051221 276.258067 16.355963 L 276.258067 49.577275 Q 276.258067 49.681822 276.153521 49.681822 L 271.35328 49.661802 L 271.311017 21.314135 Q 271.311017 21.198467 271.195348 21.198467 L 257.42413 21.209589 L 252.078913 21.216262 C 252.029977 21.216262 251.992162 21.256301 251.989938 21.305238 L 251.965469 26.468054 L 251.969918 49.652904 L 251.885391 49.672924 L 250.799887 49.628436 L 249.202773 49.635109 L 248.003825 49.637334 C 247.905952 49.637334 247.828098 49.557256 247.828098 49.459382 L 247.828098 16.46051 Q 247.828098 16.14687 248.139513 16.133524 L 249.198324 16.09126 Z" style="fill:#2096c7;"/>
		<path d="M 249.480822 16.115729 L 249.198324 16.09126 Q 249.356256 16.066792 249.480822 16.115729 Z" style="fill:#0d688d;"/>
		<path d="M 237.653724 16.151319 Q 237.413489 16.255865 237.070933 16.169114 Q 237.348982 16.11128 237.653724 16.151319 Z" style="fill:#0d688d;"/>
		<path d="M 213.543526 17.964199 Q 213.514609 17.904141 213.525731 17.717292 Q 213.65697 17.79737 213.543526 17.964199 Z" style="fill:#0d688d;"/>
		<path d="M 233.734343 21.234057 L 218.506147 36.037394 L 218.481679 21.311911 C 218.481679 21.251852 218.530615 21.202916 218.58845 21.20514 L 233.734343 21.234057 Z" style="fill:#c5e9f8;"/>
		<path d="M 238.32549 25.204599 Q 236.80623 26.436913 235.440452 27.709266 Q 228.509243 34.164455 222.478913 40.012384 Q 222.25425 40.230375 220.652687 41.707372 Q 219.736237 42.552641 218.88207 43.466867 Q 218.786421 43.569189 218.51282 43.65594 L 218.552859 39.015856 Q 227.25691 30.75446 235.56057 22.493064 Q 235.794131 22.261727 236.543751 21.234057 L 238.189802 21.229608 Q 238.307695 21.227384 238.307695 21.345277 L 238.32549 25.204599 Z" style="fill:#c5e9f8;"/>
		<path d="M 257.42413 21.209589 Q 255.359893 23.516285 253.233373 25.484873 Q 252.784046 25.900834 252.399226 26.376854 Q 252.301353 26.499196 252.212377 26.510318 Q 252.105606 26.523664 251.965469 26.468054 L 251.989938 21.305238 C 251.992162 21.256301 252.029977 21.216262 252.078913 21.216262 L 257.42413 21.209589 Z" style="fill:#f7fbfa;"/>
		<path d="M 271.35328 49.661802 L 252.110055 49.679597 L 251.969918 49.652904 L 251.965469 26.468054 Q 252.105606 26.523664 252.212377 26.510318 Q 252.301353 26.499196 252.399226 26.376854 Q 252.784046 25.900834 253.233373 25.484873 Q 255.359893 23.516285 257.42413 21.209589 L 271.195348 21.198467 Q 271.311017 21.198467 271.311017 21.314135 L 271.35328 49.661802 Z" style="fill:#c5e9f8;"/>
		<path d="M 236.543751 21.234057 Q 235.794131 22.261727 235.56057 22.493064 Q 227.25691 30.75446 218.552859 39.015856 L 218.506147 36.037394 L 233.734343 21.234057 L 236.543751 21.234057 Z" style="fill:#f7fbfa;"/>
		<path d="M 238.32549 25.204599 L 238.32549 26.734982 Q 238.096378 26.797265 237.842797 26.775021 Q 237.731577 26.763899 237.644826 26.832855 C 237.402367 27.026377 237.239986 27.337792 237.042015 27.526866 Q 228.335741 35.794935 222.247576 41.487157 Q 220.623769 43.006418 218.98884 44.456722 C 218.833133 44.594634 218.58845 44.532351 218.517269 44.338829 L 218.470557 44.20759 L 218.51282 43.65594 Q 218.786421 43.569189 218.88207 43.466867 Q 219.736237 42.552641 220.652687 41.707372 Q 222.25425 40.230375 222.478913 40.012384 Q 228.509243 34.164455 235.440452 27.709266 Q 236.80623 26.436913 238.32549 25.204599 Z" style="fill:#f7fbfa;"/>
		<path d="M 238.32549 26.734982 L 238.329939 43.807199 Q 237.095401 45.017269 235.96096 46.078305 Q 234.846539 47.119321 232.619922 49.577275 L 218.483903 49.708514 L 218.470557 44.20759 L 218.517269 44.338829 C 218.58845 44.532351 218.833133 44.594634 218.98884 44.456722 Q 220.623769 43.006418 222.247576 41.487157 Q 228.335741 35.794935 237.042015 27.526866 C 237.239986 27.337792 237.402367 27.026377 237.644826 26.832855 Q 237.731577 26.763899 237.842797 26.775021 Q 238.096378 26.797265 238.32549 26.734982 Z" style="fill:#c5e9f8;"/>
		<path d="M 213.588014 30.087142 L 213.590238 28.183062 L 213.588014 30.087142 Z" style="fill:#0d688d;"/>
		<path d="M 213.590238 44.438927 L 213.585789 42.425851 L 213.590238 44.438927 Z" style="fill:#0d688d;"/>
		<path d="M 238.329939 43.807199 L 238.212046 49.334816 Q 238.223168 49.652904 237.284474 49.537236 L 232.619922 49.577275 Q 234.846539 47.119321 235.96096 46.078305 Q 237.095401 45.017269 238.329939 43.807199 Z" style="fill:#f7fbfa;"/>
		<path d="M 238.212046 49.334816 Q 238.285451 49.383753 238.258759 49.597295 L 237.284474 49.537236 Q 238.223168 49.652904 238.212046 49.334816 Z" style="fill:#90b3ce;"/>
		<path d="M 217.603044 49.637334 L 216.573149 49.639558 L 217.603044 49.637334 Z" style="fill:#0d688d;"/>
		<path d="M 250.799887 49.628436 L 249.202773 49.635109 L 250.799887 49.628436 Z" style="fill:#0d688d;"/>
		<path d="M 214.497791 49.672924 L 214.293146 49.675148 L 214.497791 49.672924 Z" style="fill:#0d688d;"/>
		<path d="M 251.969918 49.652904 L 252.110055 49.679597 L 251.885391 49.672924 L 251.969918 49.652904 Z" style="fill:#0d688d;"/>
		<path d="M 274.41627 100.122161 C 274.41627 100.809499 273.860171 101.365597 273.172834 101.365597 C 272.485496 101.365597 271.929398 100.809499 271.929398 100.122161 C 271.929398 99.434824 272.485496 98.878725 273.172834 98.878725 C 273.860171 98.878725 274.41627 99.434824 274.41627 100.122161 Z" style="fill:#c5e9f8;"/>
		<path d="M 271.858217 107.818562 L 267.17587 109.388983 Q 266.815518 109.5091 266.728767 109.137627 Q 266.726542 109.128729 266.726542 109.122056 Q 266.617547 108.746134 267.013489 108.599324 L 271.620207 106.882092 C 271.726978 106.842053 271.802608 106.746404 271.818178 106.63296 C 271.99613 105.289427 273.490922 105.020275 274.260562 106.081311 C 275.061344 107.18461 273.815683 108.156669 272.783565 108.181138 Q 272.601165 108.185587 272.065086 107.84303 Q 271.967213 107.780747 271.858217 107.818562 Z" style="fill:#c5e9f8;"/>
	</g>
	<g id="surface4">
	</g>
</svg>
