<?xml version="1.0" encoding="utf-8"?>
<svg xmlns="http://www.w3.org/2000/svg" width="490pt" height="280pt" viewBox="0 0 490 280" version="1.1" xmlns:xlink="http://www.w3.org/1999/xlink">
	<g id="surface2">
		<path vector-effect="non-scaling-stroke" d="M 300.650911 51.05578 Q 305.25076 51.318799 309.922341 50.413176" style="fill:none;stroke-width:0.50;stroke:#e28f17;"/>
		<path vector-effect="non-scaling-stroke" d="M 264.751768 72.18101 Q 264.677047 71.63405 264.151008 71.699805 Q 264.001566 71.717738 263.861089 71.669916 Q 259.440572 70.205377 257.444017 69.780959 Q 248.928768 67.969713 244.14361 66.711405 Q 235.132211 64.335265 226.879981 60.990736 Q 222.014124 59.018091 217.148268 57.057402 Q 208.818328 53.694939 200.294112 52.783339 Q 197.526432 52.487442 191.372378 52.986581" style="fill:none;stroke-width:0.50;stroke:#e28f17;"/>
		<path vector-effect="non-scaling-stroke" d="M 229.070812 14.376546 Q 230.033223 13.99995 230.950802 13.5038 Q 232.708249 12.553344 232.765037 12.526445 C 235.006679 11.408613 236.381552 10.700254 238.234643 9.962007 Q 239.836669 9.322391 240.861847 8.871074 Q 241.779425 8.46459 243.527906 7.911652 Q 245.369041 7.328825 247.081655 6.45309" style="fill:none;stroke-width:0.50;stroke:#deaf79;"/>
		<path vector-effect="non-scaling-stroke" d="M 264.614281 72.249754 C 264.414028 72.112267 264.219752 72.124222 264.010532 72.264698 Q 263.373906 72.680149 262.689458 72.799703" style="fill:none;stroke-width:0.50;stroke:#b2af68;"/>
		<path vector-effect="non-scaling-stroke" d="M 220.866404 79.868347 Q 218.257133 79.168954 215.316099 78.054111 Q 203.638641 73.61865 194.217769 65.751982 Q 189.596998 61.896359 186.162803 57.538608" style="fill:none;stroke-width:0.50;stroke:#7b6b2b;"/>
		<path vector-effect="non-scaling-stroke" d="M 224.411186 82.486584 Q 227.223699 83.260698 230.290265 83.203909 Q 232.96828 83.153099 236.267976 83.203909 C 241.650905 83.287597 246.31053 85.233342 249.675981 89.576149 Q 251.32583 91.701225 252.859113 95.153353 C 253.077299 95.646515 252.906934 95.942411 252.617015 96.327974 C 249.723803 100.15072 245.079122 102.52686 240.255109 101.988866 C 235.147155 101.420983 229.492241 99.860801 225.298876 96.991499 C 221.601662 94.462928 218.651662 92.218297 214.760172 90.711914 C 209.159057 88.542005 203.862805 89.319108 198.324456 91.157254 C 198.178002 91.205075 198.097303 91.363485 198.148114 91.512927 Q 199.663463 95.915512 198.847506 100.72458 Q 198.820606 100.877012 198.970049 100.924833 Q 204.693707 102.798846 210.402421 104.116931" style="fill:none;stroke-width:0.50;stroke:#3e6d75;"/>
		<path vector-effect="non-scaling-stroke" d="M 223.535452 142.870431 Q 225.612706 145.811464 228.174155 148.319114" style="fill:none;stroke-width:0.50;stroke:#3e6d75;"/>
		<path vector-effect="non-scaling-stroke" d="M 228.957236 149.16496 Q 229.683527 150.231982 230.843203 151.021039" style="fill:none;stroke-width:0.50;stroke:#3e6d75;"/>
		<path vector-effect="non-scaling-stroke" d="M 231.1122 151.257159 L 230.367975 151.556045" style="fill:none;stroke-width:0.50;stroke:#3e6d75;"/>
		<path vector-effect="non-scaling-stroke" d="M 189.591529 83.026551 C 192.88175 81.589927 194.361234 77.707404 192.896964 74.354626 C 191.432155 71.003401 187.579521 69.449197 184.288283 70.887852 C 180.998061 72.324475 179.518578 76.206999 180.982848 79.559777 C 182.447656 82.911001 186.300291 84.465206 189.591529 83.026551" style="fill:none;stroke-width:0.50;stroke:#778b8d;"/>
		<path vector-effect="non-scaling-stroke" d="M 189.74943 76.963837 C 189.746441 75.325286 188.377545 74.001223 186.689649 74.004212 C 185.003127 74.007201 183.63722 75.337242 183.640209 76.974477 C 183.643198 78.613027 185.012094 79.93709 186.69999 79.934101 C 188.386512 79.931113 189.752419 78.601072 189.74943 76.963837" style="fill:none;stroke-width:0.50;stroke:#778b8d;"/>
		<path d="M 300.650911 51.05578 Q 305.25076 51.318799 309.922341 50.413176 Q 313.278825 50.126246 316.742909 50.413176 Q 318.031106 50.520775 318.972595 50.855527 Q 319.438857 51.019914 318.942707 51.02888 C 314.061906 51.088658 309.339514 51.886682 305.035562 54.068546 C 301.640222 55.790127 299.437436 57.511708 295.250049 60.488608 Q 289.353038 64.684961 282.986775 67.578173 Q 277.331861 70.148589 272.271729 71.122956 Q 269.590725 71.637039 265.038698 72.046512 Q 264.966966 72.055478 264.751768 72.18101 Q 264.677047 71.63405 264.151008 71.699805 Q 264.001566 71.717738 263.861089 71.669916 Q 259.440572 70.205377 257.444017 69.780959 Q 248.928768 67.969713 244.14361 66.711405 Q 235.132211 64.335265 226.879981 60.990736 Q 222.014124 59.018091 217.148268 57.057402 Q 208.818328 53.694939 200.294112 52.783339 Q 197.526432 52.487442 191.372378 52.986581 C 193.551254 50.296611 195.795884 47.570775 197.693808 44.913682 Q 200.120758 41.518342 202.634386 38.188757 Q 211.233323 26.780296 223.000447 18.279991 Q 225.962402 16.14296 229.070812 14.376546 Q 230.033223 13.99995 230.950802 13.5038 Q 232.708249 12.553344 232.765037 12.526445 C 235.006679 11.408613 236.381552 10.700254 238.234643 9.962007 Q 239.836669 9.322391 240.861847 8.871074 Q 241.779425 8.46459 243.527906 7.911652 Q 245.369041 7.328825 247.081655 6.45309 Q 248.710581 6.013728 250.476995 5.977862 Q 250.778869 5.971885 250.584594 6.202026 Q 250.444117 6.372391 250.139254 6.474012 Q 248.115799 7.152482 246.920257 7.75922 Q 241.065089 10.727154 238.928057 17.120315 Q 237.708604 20.781663 237.846092 24.15907 Q 238.016456 28.295646 239.779881 32.145292 Q 241.408807 35.70203 242.622283 37.848028 Q 245.942901 43.715151 247.622638 46.297522 C 249.556427 49.274422 251.499183 52.057047 253.967978 54.519864 Q 258.188242 58.722194 262.755213 61.639317 Q 264.288496 62.616673 267.585203 64.580351 Q 267.851211 64.73876 268.060431 64.508618 C 268.792701 63.704616 269.450249 62.724272 270.400705 61.926247 C 275.589358 57.565507 282.108052 55.027969 288.7463 53.255578 Q 294.864487 51.620674 300.650911 51.05578 Z" style="fill:#d57110;"/>
		<path d="M 247.081655 6.45309 Q 245.369041 7.328825 243.527906 7.911652 Q 241.779425 8.46459 240.861847 8.871074 Q 239.836669 9.322391 238.234643 9.962007 C 236.381552 10.700254 235.006679 11.408613 232.765037 12.526445 Q 232.708249 12.553344 230.950802 13.5038 Q 230.033223 13.99995 229.070812 14.376546 Q 237.61595 9.361247 247.081655 6.45309 Z" style="fill:#e6ece1;"/>
		<path d="M 309.922341 50.413176 Q 305.25076 51.318799 300.650911 51.05578 C 303.768287 50.747928 306.518034 50.416165 309.922341 50.413176 Z" style="fill:#efad1e;"/>
		<path d="M 264.751768 72.18101 Q 264.674058 72.252743 264.614281 72.249754 C 264.414028 72.112267 264.219752 72.124222 264.010532 72.264698 Q 263.373906 72.680149 262.689458 72.799703 L 263.251363 72.198944 Q 263.358962 72.085367 263.203541 72.058467 Q 262.294929 71.885114 262.010988 71.870169 Q 254.207086 71.460696 250.784847 71.759582 Q 243.489051 72.393219 241.071067 72.889369 Q 235.469952 74.040079 232.080589 75.110089 Q 226.670761 76.819714 220.866404 79.868347 Q 218.257133 79.168954 215.316099 78.054111 Q 203.638641 73.61865 194.217769 65.751982 Q 189.596998 61.896359 186.162803 57.538608 Q 188.775063 54.800816 191.372378 52.986581 Q 197.526432 52.487442 200.294112 52.783339 Q 208.818328 53.694939 217.148268 57.057402 Q 222.014124 59.018091 226.879981 60.990736 Q 235.132211 64.335265 244.14361 66.711405 Q 248.928768 67.969713 257.444017 69.780959 Q 259.440572 70.205377 263.861089 71.669916 Q 264.001566 71.717738 264.151008 71.699805 Q 264.677047 71.63405 264.751768 72.18101 Z" style="fill:#efad1e;"/>
		<path d="M 186.162803 57.538608 Q 189.596998 61.896359 194.217769 65.751982 Q 203.638641 73.61865 215.316099 78.054111 Q 218.257133 79.168954 220.866404 79.868347 Q 219.67385 80.672349 218.878815 80.992156 Q 217.961236 81.356797 218.932614 81.527161 L 224.411186 82.486584 Q 227.223699 83.260698 230.290265 83.203909 Q 232.96828 83.153099 236.267976 83.203909 C 241.650905 83.287597 246.31053 85.233342 249.675981 89.576149 Q 251.32583 91.701225 252.859113 95.153353 C 253.077299 95.646515 252.906934 95.942411 252.617015 96.327974 C 249.723803 100.15072 245.079122 102.52686 240.255109 101.988866 C 235.147155 101.420983 229.492241 99.860801 225.298876 96.991499 C 221.601662 94.462928 218.651662 92.218297 214.760172 90.711914 C 209.159057 88.542005 203.862805 89.319108 198.324456 91.157254 C 198.178002 91.205075 198.097303 91.363485 198.148114 91.512927 Q 199.663463 95.915512 198.847506 100.72458 Q 198.820606 100.877012 198.970049 100.924833 Q 204.693707 102.798846 210.402421 104.116931 Q 212.919037 108.211663 215.190567 112.064298 C 215.746494 113.008776 216.206778 114.090742 216.607285 114.939576 Q 216.924103 115.615058 217.061591 116.117186 Q 217.82076 118.902799 217.524863 120.836588 Q 215.638896 133.219416 223.475675 142.679144 Q 223.562351 142.783754 223.535452 142.870431 Q 225.612706 145.811464 228.174155 148.319114 L 228.957236 149.16496 Q 229.683527 150.231982 230.843203 151.021039 Q 230.944824 151.062883 231.1122 151.257159 L 230.367975 151.556045 Q 221.550852 144.750421 215.032158 135.721088 Q 211.529219 130.867187 208.591174 125.603813 Q 207.335855 123.359182 204.675774 118.179496 Q 201.887172 112.751734 199.693352 109.777823 Q 196.797151 105.850467 193.288235 102.544793 C 190.774607 100.183597 187.92025 97.637092 184.883573 95.051732 C 180.265791 91.121387 175.731698 87.185065 171.329114 83.203909 Q 170.656621 82.597172 170.569944 82.172754 Q 170.348769 81.093777 170.826986 79.913179 Q 172.372224 76.087444 174.485345 72.65325 Q 177.808952 67.243421 181.93955 62.138456 Q 182.80333 61.071435 184.007838 59.798182 Q 185.10176 58.638506 186.162803 57.538608 Z M 189.591529 83.026551 C 192.88175 81.589927 194.361234 77.707404 192.896964 74.354626 C 191.432155 71.003401 187.579521 69.449197 184.288283 70.887852 C 180.998061 72.324475 179.518578 76.206999 180.982848 79.559777 C 182.447656 82.911001 186.300291 84.465206 189.591529 83.026551 Z" style="fill:#072938;"/>
		<path d="M 264.614281 72.249754 Q 260.943967 83.368296 254.754047 93.252441 Q 254.74508 93.267386 253.964989 94.349351 Q 253.376185 95.16232 253.092243 96.15462 Q 252.9966 96.495349 253.28353 96.704569 Q 255.289052 98.148187 258.304807 99.337751 Q 261.517827 100.605026 264.414028 101.58537 Q 264.844423 101.731824 264.680036 102.120375 C 264.641181 102.210041 264.548526 102.260852 264.452883 102.245907 Q 261.541738 101.785624 257.085354 101.591348 C 254.529883 101.48076 251.176387 101.627214 249.140976 101.663081 Q 246.244775 101.71688 244.929679 101.920122 Q 243.426285 102.150264 242.120155 102.233952 Q 241.106933 102.296718 239.388341 102.861612 Q 235.487885 104.140842 231.070356 104.804368 Q 229.725371 105.00761 227.994824 105.070376 Q 225.122534 105.177975 224.916303 105.198897 Q 222.78226 105.42605 220.743861 105.207863 Q 220.35531 105.166019 216.544519 104.998643 Q 215.112857 104.935877 210.402421 104.116931 Q 204.693707 102.798846 198.970049 100.924833 Q 198.820606 100.877012 198.847506 100.72458 Q 199.663463 95.915512 198.148114 91.512927 C 198.097303 91.363485 198.178002 91.205075 198.324456 91.157254 C 203.862805 89.319108 209.159057 88.542005 214.760172 90.711914 C 218.651662 92.218297 221.601662 94.462928 225.298876 96.991499 C 229.492241 99.860801 235.147155 101.420983 240.255109 101.988866 C 245.079122 102.52686 249.723803 100.15072 252.617015 96.327974 C 252.906934 95.942411 253.077299 95.646515 252.859113 95.153353 Q 251.32583 91.701225 249.675981 89.576149 C 246.31053 85.233342 241.650905 83.287597 236.267976 83.203909 Q 232.96828 83.153099 230.290265 83.203909 Q 227.223699 83.260698 224.411186 82.486584 Q 224.988035 82.352086 225.529018 82.238509 Q 226.105867 82.115966 226.625928 81.92169 Q 230.194622 80.56475 232.110478 80.143321 Q 239.020712 78.619005 242.191887 78.260342 Q 246.516761 77.767181 251.986367 76.783848 Q 254.751058 76.287698 257.25273 75.486685 Q 260.280441 74.518295 262.689458 72.799703 Q 263.373906 72.680149 264.010532 72.264698 C 264.219752 72.124222 264.414028 72.112267 264.614281 72.249754 Z" style="fill:#75b0b1;"/>
		<path d="M 228.174155 148.319114 Q 225.612706 145.811464 223.535452 142.870431 L 228.174155 148.319114 Z" style="fill:#75b0b1;"/>
		<path d="M 228.957236 149.16496 L 230.843203 151.021039 Q 229.683527 150.231982 228.957236 149.16496 Z" style="fill:#75b0b1;"/>
		<path d="M 231.1122 151.257159 Q 232.582717 152.416835 233.912758 153.755842 Q 234.083123 153.929196 233.796192 153.977017 C 233.766304 153.980006 233.733427 153.974029 233.709516 153.956095 L 230.367975 151.556045 L 231.1122 151.257159 Z" style="fill:#75b0b1;"/>
		<path d="M 189.591529 83.026551 C 186.300291 84.465206 182.447656 82.911001 180.982848 79.559777 C 179.518578 76.206999 180.998061 72.324475 184.288283 70.887852 C 187.579521 69.449197 191.432155 71.003401 192.896964 74.354626 C 194.361234 77.707404 192.88175 81.589927 189.591529 83.026551 Z M 189.74943 76.963837 C 189.746441 75.325286 188.377545 74.001223 186.689649 74.004212 C 185.003127 74.007201 183.63722 75.337242 183.640209 76.974477 C 183.643198 78.613027 185.012094 79.93709 186.69999 79.934101 C 188.386512 79.931113 189.752419 78.601072 189.74943 76.963837 Z" style="fill:#e6ece1;"/>
		<path d="M 189.74943 76.963837 C 189.752419 78.601072 188.386512 79.931113 186.69999 79.934101 C 185.012094 79.93709 183.643198 78.613027 183.640209 76.974477 C 183.63722 75.337242 185.003127 74.007201 186.689649 74.004212 C 188.377545 74.001223 189.746441 75.325286 189.74943 76.963837 Z" style="fill:#072938;"/>
	</g>
	<g id="surface4">
	</g>
</svg>
