<?xml version="1.0" encoding="utf-8"?>
<svg xmlns="http://www.w3.org/2000/svg" width="490pt" height="280pt" viewBox="0 0 490 280" version="1.1" xmlns:xlink="http://www.w3.org/1999/xlink">
	<g id="surface2">
		<path vector-effect="non-scaling-stroke" d="M 314.569536 47.686576 Q 314.197215 47.870077 313.753089 47.880715 Q 298.418778 48.245058 285.031174 48.351435 Q 284.29185 48.356754 283.72805 48.976403 Q 282.07388 50.78216 277.278916 55.69148 Q 277.060842 55.917533 276.967762 55.970721 Q 276.427896 56.297832 276.584803 55.702118 Q 276.78692 54.946838 276.826812 54.212834 Q 276.981059 51.383193 276.736391 48.739713 C 276.592781 47.186602 275.390716 45.662745 273.680698 45.649448 Q 268.880415 45.617534 265.960353 45.582962 C 265.726323 45.580302 265.50559 45.473925 265.356661 45.293083 Q 262.29565 41.58051 260.707966 39.633802 C 259.835671 38.562049 258.878274 37.591355 257.974065 36.423862 C 256.982095 35.142013 255.841197 33.961224 254.878481 32.705969 C 254.250854 31.889522 253.490255 31.062438 252.931773 30.424173 C 251.985014 29.344442 251.003682 27.304654 249.203243 27.059985 Q 247.09431 26.775426 245.543858 26.786063 Q 243.059944 26.80468 240.302109 27.147747 Q 239.097384 27.296675 238.31551 28.299283 Q 237.150676 29.793886 232.432836 35.240413 Q 231.244067 36.612682 230.04998 38.195047 Q 229.760102 38.578006 229.318635 39.043407 C 227.733611 40.708214 226.13263 42.668219 224.135393 45.192025 C 223.829558 45.580302 223.388092 45.928688 222.933328 45.92337 Q 220.039861 45.888797 217.172988 45.867521 C 215.151816 45.854224 213.739655 45.918051 212.745026 47.673279 Q 212.250371 48.548234 212.279625 50.534833 Q 212.314197 52.808651 212.346111 53.494786 Q 212.383343 54.345805 211.78231 53.742113 Q 209.590934 51.5401 206.625662 49.000338 C 206.120369 48.56685 205.678903 48.393986 205.045957 48.380689 Q 194.775213 48.199847 184.504468 48.106767 Q 179.781309 48.064216 175.143251 47.699873" style="fill:none;stroke-width:0.50;stroke:#fbd690;"/>
		<path vector-effect="non-scaling-stroke" d="M 321.417586 88.915822 Q 321.095794 88.814764 320.800597 88.825402 Q 311.160139 89.187085 298.261871 89.317397 Q 297.690092 89.322716 297.277879 89.854604 Q 295.924226 91.601853 293.227557 94.78254 Q 292.432386 95.718661 291.807418 96.279803 C 290.653223 97.314323 289.416585 97.431339 287.863474 97.452614 Q 284.270575 97.500484 277.834738 97.551013 C 277.606027 97.553673 277.419866 97.734514 277.414547 97.960566 C 277.369337 99.59612 277.342742 101.460385 276.680543 103.186359 Q 275.51305 106.226096 274.848191 108.829684 Q 274.193969 111.401359 273.704633 112.523642 C 272.007912 116.427695 269.37773 120.012615 266.375226 122.842256 C 260.636161 128.254209 253.080702 131.623716 245.150262 131.714136 Q 241.325992 131.756687 238.307531 131.097147 C 227.605958 128.756843 218.590468 121.113622 215.04012 110.659376 C 214.513552 109.111584 214.103998 107.061159 213.401907 105.30859 Q 212.67854 103.505492 212.526952 102.872546 Q 211.891347 100.229066 211.92592 97.668028 C 211.928579 97.540375 211.824861 97.436657 211.697208 97.436657 Q 203.846551 97.463252 200.921171 97.460592 C 198.272372 97.457933 196.72458 95.529841 195.030519 93.537923 Q 193.628996 91.889073 191.748774 89.77482 Q 191.381772 89.362608 190.82063 89.35197 Q 184.172039 89.226977 177.523447 89.136556 Q 174.510305 89.096664 168.324456 88.859974" style="fill:none;stroke-width:0.50;stroke:#fbd690;"/>
		<path vector-effect="non-scaling-stroke" d="M 265.069442 46.25048 Q 264.51362 45.505838 264.250336 45.197343 Q 262.032366 42.593755 250.296272 28.934888 C 249.697898 28.240775 249.283026 28.004085 248.397434 27.998767 Q 244.575823 27.972172 240.751553 27.990788 C 239.432473 27.996107 238.884629 28.660966 237.993718 29.706125 Q 237.5097 30.272585 224.454526 45.593599 C 224.249749 45.835608 224.036994 46.314307 223.72584 46.532381 Q 223.616803 46.609504 223.481172 46.612164 Q 221.558399 46.62812 216.284736 46.585569 C 215.619877 46.58025 214.061447 46.660034 213.792844 47.324893 Q 213.497647 48.058897 213.505625 48.957787 Q 213.553495 53.510742 213.558814 53.906998 Q 213.561473 54.066565 213.721039 54.066565 L 275.531666 54.066565 Q 275.685913 54.066565 275.688573 53.912317 Q 275.741761 50.963002 275.590174 48.370051 C 275.499753 46.854172 274.247158 46.532381 272.930737 46.548337 Q 267.728879 46.617483 265.891208 46.601526 C 265.50293 46.598867 265.31411 46.577591 265.069442 46.25048" style="fill:none;stroke-width:0.50;stroke:#808f81;"/>
		<path vector-effect="non-scaling-stroke" d="M 201.588689 75.996279 Q 201.346681 76.078722 200.854685 76.115954 Q 195.854944 76.493594 189.352621 76.565399 Q 167.88033 76.79677 151.801376 76.546783 Q 151.652448 76.544123 151.766803 76.637203 Q 152.091255 76.897828 152.466235 77.094627 Q 153.208218 77.485564 153.306617 77.546731 Q 156.811755 79.706193 160.008397 81.426849 Q 163.699696 83.410789 167.619705 83.993205 Q 172.321589 84.692637 178.12448 84.809652 Q 186.187892 84.977197 199.421249 85.128785 C 202.165787 85.160698 204.902347 85.370793 207.716031 85.416004 Q 208.019207 85.421323 208.322383 85.578229 C 208.354296 85.594186 208.343658 85.639396 208.309086 85.642056 Q 200.243014 86.227132 194.224709 86.171284 Q 193.950787 86.168624 194.139607 86.368082 Q 196.916059 89.328035 199.679214 92.46617 Q 200.221739 93.085819 201.195093 93.0805 Q 206.535242 93.059225 212.058891 93.125711 Q 212.221117 93.12837 212.221117 92.966144 L 212.221117 60.217842 C 212.221117 60.074232 212.165269 59.938601 212.06421 59.840202 Q 207.463385 55.305862 205.120421 53.090551 Q 204.527367 52.52941 203.936972 52.521432 Q 165.978833 52.037414 133.110855 51.359258 Q 123.981009 51.170438 122.364072 51.157141 C 122.209824 51.154481 122.119404 51.327345 122.207165 51.454998 C 122.880002 52.417714 123.36136 52.747484 124.512897 53.704881 C 125.254879 54.32453 125.624541 54.885671 126.018138 55.723394 Q 128.27334 60.518358 129.709436 63.05812 Q 130.132286 63.808081 130.68279 64.361244 C 130.807783 64.486237 130.977987 64.558042 131.156169 64.560702 C 150.620586 64.653782 171.406743 65.41704 189.948335 66.073921 C 192.94552 66.180299 197.43199 66.430286 199.564858 66.59783 Q 199.684533 66.608468 199.804207 66.656338 C 199.907925 66.698889 199.88665 66.850477 199.774954 66.863774 Q 198.487786 67.036637 197.76176 67.060572 Q 191.655694 67.254711 184.459258 67.21216 C 168.367007 67.11642 154.859728 66.701548 134.709177 66.113813 Q 134.352812 66.103175 134.653328 66.294654 Q 138.18772 68.5339 141.184905 70.321041 C 141.863061 70.725276 142.352398 71.209293 142.868328 71.757137 C 145.453301 74.491038 148.610052 74.504335 152.128487 74.546886 Q 165.981492 74.725068 190.549368 75.251637 Q 196.256519 75.373971 201.559436 75.775546 Q 202.10728 75.818097 201.588689 75.996279" style="fill:none;stroke-width:0.50;stroke:#808f81;"/>
		<path vector-effect="non-scaling-stroke" d="M 280.903728 85.554295 Q 281.861125 85.389409 283.103082 85.357496 C 288.783639 85.208568 292.421748 85.05432 297.065124 85.011769 Q 305.426393 84.934646 312.957918 84.748485 C 317.744904 84.628811 322.904211 84.291062 327.217817 82.620936 C 331.015493 81.150267 334.012678 79.222176 338.209269 76.820705 Q 338.605525 76.594652 338.150761 76.599971 Q 329.403874 76.730284 309.963392 76.639863 C 302.0888 76.602631 295.328512 76.618587 288.613435 75.972344 Q 288.560246 75.967025 288.568224 75.913837 Q 288.576203 75.868626 288.597478 75.85001 Q 288.632051 75.812778 288.695877 75.80214 Q 290.262286 75.562791 293.272768 75.451095 Q 297.533185 75.291528 300.854822 75.222383 Q 312.346247 74.977715 340.687864 74.475081 Q 342.320758 74.445828 343.381873 74.118717 C 347.639631 72.807615 351.838882 70.339657 356.070045 67.323856 C 356.692354 66.87973 357.296046 66.640381 357.833252 66.196255 Q 357.987499 66.068602 357.788041 66.073921 Q 325.983839 66.924941 321.465456 67.044615 Q 312.064347 67.294602 291.480308 67.111101 Q 290.488338 67.103123 288.408658 66.893028 Q 288.376745 66.890368 288.392702 66.863774 L 288.453869 66.752077 Q 288.499079 66.669635 288.592159 66.664316 Q 290.993631 66.486134 294.897684 66.273379 Q 303.094067 65.829253 311.301089 65.637773 Q 314.846118 65.55799 316.611984 65.488845 Q 338.666692 64.656441 360.561834 64.52347 C 361.019257 64.52081 361.33307 64.456984 361.606992 64.071365 Q 362.37557 63.004931 363.202654 61.49969 Q 365.327544 57.638188 368.146547 51.44702 C 368.213033 51.306069 368.106656 51.143844 367.952408 51.146503 Q 358.891708 51.236924 354.309498 51.34862 Q 324.236589 52.079965 287.299673 52.518772 C 286.632155 52.524091 286.294406 52.67302 285.860918 53.103849 C 282.063242 56.885567 279.339979 59.51575 277.284235 61.83212 C 277.167219 61.962432 277.103393 62.132636 277.103393 62.308159 L 277.103393 93.024652 C 277.103393 93.093797 277.159241 93.149646 277.228387 93.149646 Q 281.690921 93.099116 288.318237 93.061884 Q 288.945864 93.059225 289.382012 92.458192 Q 291.948368 88.942417 293.953584 86.368082 C 294.001453 86.306915 293.961562 86.213835 293.881779 86.211175 L 280.914366 85.692585 Q 280.246847 85.665991 280.903728 85.554295" style="fill:none;stroke-width:0.50;stroke:#808f81;"/>
		<path vector-effect="non-scaling-stroke" d="M 215.154476 90.875827 Q 215.1332 91.264105 215.271491 90.899762 Q 219.026616 80.980063 227.651169 75.201108 C 237.754368 68.432841 251.963738 68.451457 262.01109 75.4245 Q 270.691491 81.448124 274.199288 91.274743 Q 274.372152 91.76142 274.33226 91.245489 C 273.444008 80.14766 273.420073 69.781176 273.462624 57.284483 C 273.465284 56.614305 272.920099 56.06912 272.249921 56.06912 Q 259.452712 56.07178 217.369786 56.082418 Q 215.758168 56.082418 215.771465 57.510535 Q 215.899118 70.733254 215.710298 76.924423 Q 215.460311 85.022407 215.154476 90.875827" style="fill:none;stroke-width:0.50;stroke:#808f81;"/>
		<path vector-effect="non-scaling-stroke" d="M 242.270092 73.552257 C 233.911482 74.280943 226.504951 78.674332 221.763176 85.602164 C 215.351274 94.97136 215.436376 107.595705 222.039757 116.82661 C 227.768184 124.839493 237.190568 128.95896 247.019846 128.102621 C 256.851783 127.246283 265.420488 121.563067 269.678246 112.680548 C 274.584906 102.444377 272.48927 89.995554 264.550852 81.876294 C 258.684135 75.871286 250.631361 72.826231 242.270092 73.552257" style="fill:none;stroke-width:0.50;stroke:#808f81;"/>
		<path vector-effect="non-scaling-stroke" d="M 255.862047 45.502195 C 255.859813 43.888901 254.548711 42.583117 252.936906 42.587239 L 236.315454 42.616254 C 234.703995 42.620349 233.398211 43.928792 233.400498 45.541395 L 233.406615 49.046532 C 233.408849 50.659826 234.719951 51.96561 236.331756 51.961488 L 252.953208 51.932473 C 254.564667 51.928378 255.870451 50.619935 255.868164 49.007332 L 255.862047 45.502195" style="fill:none;stroke-width:0.50;stroke:#808f81;"/>
		<path vector-effect="non-scaling-stroke" d="M 215.526797 49.433826 C 215.526797 49.356702 215.590623 49.292876 215.667747 49.292876 L 228.119229 49.359362 Q 228.648457 49.362021 228.597928 48.862047 Q 228.595269 48.84875 228.597928 48.822156 Q 228.616544 48.308884 228.052743 48.314203 L 215.673066 48.386008 C 215.439035 48.388667 215.234259 48.548234 215.175751 48.774286 Q 214.861938 49.984329 214.978953 51.271497 Q 214.997569 51.489571 215.212983 51.489571 L 215.356593 51.489571 Q 215.526797 51.489571 215.526797 51.316707 L 215.526797 49.433826" style="fill:none;stroke-width:0.50;stroke:#808f81;"/>
		<path vector-effect="non-scaling-stroke" d="M 273.547726 49.617327 L 273.547726 51.173098 Q 273.547726 51.412447 273.787076 51.412447 L 273.925366 51.412447 C 273.981214 51.412447 274.026425 51.372555 274.034403 51.316707 Q 274.106208 50.840668 274.108867 49.909865 Q 274.111527 48.425899 272.688728 48.412602 Q 266.213 48.359414 260.920721 48.393986 C 260.694669 48.396646 260.511168 48.580147 260.511168 48.806199 L 260.511168 49.061505 Q 260.511168 49.455101 260.904764 49.455101 L 273.382841 49.455101 Q 273.547726 49.455101 273.547726 49.617327" style="fill:none;stroke-width:0.50;stroke:#808f81;"/>
		<path vector-effect="non-scaling-stroke" d="M 254.761652 45.481079 C 254.764125 44.36228 253.857257 43.452753 252.738698 43.451051 L 236.415103 43.422568 C 235.297049 43.42084 234.387522 44.325048 234.385075 45.445495 L 234.379357 48.72724 C 234.376884 49.846039 235.283752 50.755566 236.402311 50.757268 L 252.725906 50.785751 C 253.84396 50.787479 254.753487 49.883271 254.755934 48.762824 L 254.761652 45.481079" style="fill:none;stroke-width:0.50;stroke:#808f81;"/>
		<path vector-effect="non-scaling-stroke" d="M 260.859554 68.938134 C 263.739724 70.283809 266.380544 72.102864 268.774037 74.344769 Q 268.813929 74.384661 268.851161 74.34211 Q 268.885734 74.302218 268.861799 74.275624 C 264.643932 69.791814 259.394204 66.007435 253.487596 64.217634 Q 243.594491 61.223109 233.946055 65.079292 C 228.813342 67.132377 224.329532 70.416781 220.446755 74.509654 Q 220.42282 74.533589 220.444095 74.557524 L 220.444095 74.560183 Q 220.46803 74.589437 220.499943 74.565502 C 221.289796 73.911281 222.063692 73.166639 222.840248 72.576244 Q 228.300071 68.432841 234.927387 66.664316 Q 248.336267 63.087374 260.859554 68.938134" style="fill:none;stroke-width:0.50;stroke:#808f81;"/>
		<path vector-effect="non-scaling-stroke" d="M 262.141402 89.176447 C 262.149381 89.171128 262.149381 89.157831 262.141402 89.147193 Q 261.269107 87.844069 260.415428 86.772317 C 259.617597 85.775028 258.47138 84.67668 257.678868 84.030437 Q 250.259039 77.982878 241.022816 79.498757 C 233.725322 80.698163 227.677763 85.806941 224.938543 92.591164 C 223.627441 95.838336 223.236504 99.439213 223.715202 102.715639 Q 224.707172 109.515819 229.53139 114.528857 Q 229.563304 114.56077 229.595217 114.528857 L 229.653724 114.473009 Q 229.712232 114.411842 229.659043 114.345356 Q 225.973064 109.824313 224.901311 104.327258 C 223.127467 95.20805 227.656487 86.365423 235.956589 82.256593 C 242.589224 78.974848 250.937196 79.565243 257.045922 83.844277 Q 259.755888 85.743115 262.061619 89.205701 Q 262.066938 89.216339 262.080235 89.20836 L 262.141402 89.176447" style="fill:none;stroke-width:0.50;stroke:#80754a;"/>
		<path vector-effect="non-scaling-stroke" d="M 249.051655 89.349311 C 250.96645 89.968959 252.227023 91.274743 253.362602 92.984761 C 253.70301 93.495372 253.955656 93.620366 254.540732 93.373038 C 255.346542 93.03263 256.01406 92.503402 255.73216 91.559302 C 255.248143 89.950343 252.445096 87.051557 250.804224 87.123362 Q 250.655296 87.128681 250.548918 87.235058 L 248.931981 88.851996 C 248.772414 89.011562 248.8389 89.280165 249.051655 89.349311" style="fill:none;stroke-width:0.50;stroke:#808f81;"/>
		<path vector-effect="non-scaling-stroke" d="M 228.999503 102.28481 C 228.994184 102.263535 229.007481 102.242259 229.028757 102.2396 Q 229.427672 102.178433 229.002162 102.244919 C 228.991525 102.247578 228.980887 102.258216 228.983546 102.268854 Q 229.446288 105.228807 229.943603 106.497358 Q 233.220029 114.813417 241.921706 117.273395 C 246.804431 118.650984 252.261595 117.350519 256.141713 114.342696 Q 260.838278 110.704587 262.29565 104.946907 Q 263.989711 98.266402 260.904764 92.014066 Q 260.896786 92.000769 260.886148 92.003428 L 260.875511 92.008747 Q 260.854235 92.016726 260.867532 92.04066 Q 263.683876 98.152046 261.404738 104.516078 Q 260.253202 107.733996 258.117675 110.193975 Q 253.402494 115.627204 246.171485 116.060692 C 241.413753 116.347911 237.546932 114.837351 234.031157 111.701876 C 231.318532 109.287107 229.749464 105.832499 228.999503 102.28481" style="fill:none;stroke-width:0.50;stroke:#808f81;"/>
		<path vector-effect="non-scaling-stroke" d="M 237.943188 109.515819 C 239.389922 110.446622 241.892452 110.834899 242.706239 108.901489 Q 243.158344 107.829736 242.37381 106.906911 C 241.982873 106.446829 240.900482 106.087805 240.368595 105.744738 C 239.839367 105.40433 239.062811 104.566607 238.480395 104.401722 Q 237.318221 104.069292 236.528368 104.925631 C 235.108229 106.468104 236.496455 108.582356 237.943188 109.515819" style="fill:none;stroke-width:0.50;stroke:#808f81;"/>
		<path d="M 314.569536 47.686576 Q 314.197215 47.870077 313.753089 47.880715 Q 298.418778 48.245058 285.031174 48.351435 Q 284.29185 48.356754 283.72805 48.976403 Q 282.07388 50.78216 277.278916 55.69148 Q 277.060842 55.917533 276.967762 55.970721 Q 276.427896 56.297832 276.584803 55.702118 Q 276.78692 54.946838 276.826812 54.212834 Q 276.981059 51.383193 276.736391 48.739713 C 276.592781 47.186602 275.390716 45.662745 273.680698 45.649448 Q 268.880415 45.617534 265.960353 45.582962 C 265.726323 45.580302 265.50559 45.473925 265.356661 45.293083 Q 262.29565 41.58051 260.707966 39.633802 C 259.835671 38.562049 258.878274 37.591355 257.974065 36.423862 C 256.982095 35.142013 255.841197 33.961224 254.878481 32.705969 C 254.250854 31.889522 253.490255 31.062438 252.931773 30.424173 C 251.985014 29.344442 251.003682 27.304654 249.203243 27.059985 Q 247.09431 26.775426 245.543858 26.786063 Q 243.059944 26.80468 240.302109 27.147747 Q 239.097384 27.296675 238.31551 28.299283 Q 237.150676 29.793886 232.432836 35.240413 Q 231.244067 36.612682 230.04998 38.195047 Q 229.760102 38.578006 229.318635 39.043407 C 227.733611 40.708214 226.13263 42.668219 224.135393 45.192025 C 223.829558 45.580302 223.388092 45.928688 222.933328 45.92337 Q 220.039861 45.888797 217.172988 45.867521 C 215.151816 45.854224 213.739655 45.918051 212.745026 47.673279 Q 212.250371 48.548234 212.279625 50.534833 Q 212.314197 52.808651 212.346111 53.494786 Q 212.383343 54.345805 211.78231 53.742113 Q 209.590934 51.5401 206.625662 49.000338 C 206.120369 48.56685 205.678903 48.393986 205.045957 48.380689 Q 194.775213 48.199847 184.504468 48.106767 Q 179.781309 48.064216 175.143251 47.699873 Q 175.632588 47.037674 176.026184 46.239843 Q 176.75487 44.766515 176.778805 44.721304 Q 178.50212 41.607104 180.446168 38.708318 C 181.775886 36.724378 183.26783 35.139354 184.642759 33.330937 Q 185.142733 32.674056 186.443198 31.272533 Q 192.546605 24.706384 199.075522 20.108218 Q 203.293388 17.140287 208.817038 14.153739 C 210.144097 13.435692 211.776991 12.78147 213.255638 12.007574 Q 213.787525 11.730993 215.064055 11.220381 Q 223.975827 7.672692 233.047166 6.21798 C 234.946003 5.912145 237.145357 5.768536 239.076108 5.550462 Q 240.307428 5.412171 241.496196 5.37228 Q 249.03038 5.122293 255.59121 6.042458 Q 256.936885 6.231278 261.564305 7.098254 Q 264.734353 7.693968 270.385656 9.518341 C 272.329704 10.145968 274.930633 11.246975 276.526295 11.954385 Q 284.967347 15.688234 291.214364 20.227893 Q 298.729932 25.687716 304.689729 32.815006 Q 308.904936 37.854639 309.872971 39.468917 Q 311.348959 41.928896 312.94728 44.306432 Q 313.577567 45.247873 314.569536 47.686576 Z" style="fill:#fbbc59;"/>
		<path d="M 314.569536 47.686576 Q 329.909167 47.354147 345.267414 47.133413 Q 346.613089 47.112138 350.583628 46.984485 Q 358.197595 46.734498 367.409883 46.683968 C 369.109263 46.67599 370.58791 47.096181 371.537329 48.492385 Q 372.648973 50.133258 372.42824 52.069328 C 372.106448 54.880352 370.792687 57.452027 369.369888 59.89605 Q 367.455094 63.175135 366.90459 64.004879 C 365.39669 66.265401 363.686672 67.818512 360.875647 69.733306 Q 355.588687 73.328864 352.894678 75.182492 Q 349.58102 77.461629 345.589206 78.442961 C 344.134494 78.801985 342.5016 79.025378 341.312831 79.908311 Q 341.124011 80.046601 338.092254 82.32042 C 335.020604 84.626151 331.64046 86.482438 327.973097 87.55951 Q 325.366849 88.328087 324.494554 88.431805 Q 322.15425 88.716365 321.417586 88.915822 Q 321.095794 88.814764 320.800597 88.825402 Q 311.160139 89.187085 298.261871 89.317397 Q 297.690092 89.322716 297.277879 89.854604 Q 295.924226 91.601853 293.227557 94.78254 Q 292.432386 95.718661 291.807418 96.279803 C 290.653223 97.314323 289.416585 97.431339 287.863474 97.452614 Q 284.270575 97.500484 277.834738 97.551013 C 277.606027 97.553673 277.419866 97.734514 277.414547 97.960566 C 277.369337 99.59612 277.342742 101.460385 276.680543 103.186359 Q 275.51305 106.226096 274.848191 108.829684 Q 274.193969 111.401359 273.704633 112.523642 C 272.007912 116.427695 269.37773 120.012615 266.375226 122.842256 C 260.636161 128.254209 253.080702 131.623716 245.150262 131.714136 Q 241.325992 131.756687 238.307531 131.097147 C 227.605958 128.756843 218.590468 121.113622 215.04012 110.659376 C 214.513552 109.111584 214.103998 107.061159 213.401907 105.30859 Q 212.67854 103.505492 212.526952 102.872546 Q 211.891347 100.229066 211.92592 97.668028 C 211.928579 97.540375 211.824861 97.436657 211.697208 97.436657 Q 203.846551 97.463252 200.921171 97.460592 C 198.272372 97.457933 196.72458 95.529841 195.030519 93.537923 Q 193.628996 91.889073 191.748774 89.77482 Q 191.381772 89.362608 190.82063 89.35197 Q 184.172039 89.226977 177.523447 89.136556 Q 174.510305 89.096664 168.324456 88.859974 Q 166.050638 88.671154 163.742246 88.102035 Q 157.641499 86.591475 152.910361 82.966663 Q 150.641862 81.230051 149.197787 79.996072 C 149.04354 79.8631 148.865358 79.762041 148.673878 79.692896 Q 147.240442 79.184944 146.009123 78.863152 C 143.581057 78.232865 140.940237 77.147815 139.198306 75.908518 Q 135.866032 73.5363 129.908893 69.329072 Q 127.464871 67.603097 125.512845 65.387786 Q 121.925265 61.313529 119.678041 57.037155 C 118.64086 55.066513 117.616977 52.268785 118.140886 50.165171 C 119.111581 46.274415 122.901278 46.689287 125.996862 46.734498 Q 133.557641 46.843535 141.155651 47.058949 C 147.939874 47.253088 154.732075 47.258407 161.500341 47.343509 C 162.561457 47.356806 163.683739 47.465843 164.689006 47.463183 Q 169.848313 47.444567 175.143251 47.699873 Q 179.781309 48.064216 184.504468 48.106767 Q 194.775213 48.199847 205.045957 48.380689 C 205.678903 48.393986 206.120369 48.56685 206.625662 49.000338 Q 209.590934 51.5401 211.78231 53.742113 Q 212.383343 54.345805 212.346111 53.494786 Q 212.314197 52.808651 212.279625 50.534833 Q 212.250371 48.548234 212.745026 47.673279 C 213.739655 45.918051 215.151816 45.854224 217.172988 45.867521 Q 220.039861 45.888797 222.933328 45.92337 C 223.388092 45.928688 223.829558 45.580302 224.135393 45.192025 C 226.13263 42.668219 227.733611 40.708214 229.318635 39.043407 Q 229.760102 38.578006 230.04998 38.195047 Q 231.244067 36.612682 232.432836 35.240413 Q 237.150676 29.793886 238.31551 28.299283 Q 239.097384 27.296675 240.302109 27.147747 Q 243.059944 26.80468 245.543858 26.786063 Q 247.09431 26.775426 249.203243 27.059985 C 251.003682 27.304654 251.985014 29.344442 252.931773 30.424173 C 253.490255 31.062438 254.250854 31.889522 254.878481 32.705969 C 255.841197 33.961224 256.982095 35.142013 257.974065 36.423862 C 258.878274 37.591355 259.835671 38.562049 260.707966 39.633802 Q 262.29565 41.58051 265.356661 45.293083 C 265.50559 45.473925 265.726323 45.580302 265.960353 45.582962 Q 268.880415 45.617534 273.680698 45.649448 C 275.390716 45.662745 276.592781 47.186602 276.736391 48.739713 Q 276.981059 51.383193 276.826812 54.212834 Q 276.78692 54.946838 276.584803 55.702118 Q 276.427896 56.297832 276.967762 55.970721 Q 277.060842 55.917533 277.278916 55.69148 Q 282.07388 50.78216 283.72805 48.976403 Q 284.29185 48.356754 285.031174 48.351435 Q 298.418778 48.245058 313.753089 47.880715 Q 314.197215 47.870077 314.569536 47.686576 Z M 265.069442 46.25048 Q 264.51362 45.505838 264.250336 45.197343 Q 262.032366 42.593755 250.296272 28.934888 C 249.697898 28.240775 249.283026 28.004085 248.397434 27.998767 Q 244.575823 27.972172 240.751553 27.990788 C 239.432473 27.996107 238.884629 28.660966 237.993718 29.706125 Q 237.5097 30.272585 224.454526 45.593599 C 224.249749 45.835608 224.036994 46.314307 223.72584 46.532381 Q 223.616803 46.609504 223.481172 46.612164 Q 221.558399 46.62812 216.284736 46.585569 C 215.619877 46.58025 214.061447 46.660034 213.792844 47.324893 Q 213.497647 48.058897 213.505625 48.957787 Q 213.553495 53.510742 213.558814 53.906998 Q 213.561473 54.066565 213.721039 54.066565 L 275.531666 54.066565 Q 275.685913 54.066565 275.688573 53.912317 Q 275.741761 50.963002 275.590174 48.370051 C 275.499753 46.854172 274.247158 46.532381 272.930737 46.548337 Q 267.728879 46.617483 265.891208 46.601526 C 265.50293 46.598867 265.31411 46.577591 265.069442 46.25048 Z M 201.588689 75.996279 Q 201.346681 76.078722 200.854685 76.115954 Q 195.854944 76.493594 189.352621 76.565399 Q 167.88033 76.79677 151.801376 76.546783 Q 151.652448 76.544123 151.766803 76.637203 Q 152.091255 76.897828 152.466235 77.094627 Q 153.208218 77.485564 153.306617 77.546731 Q 156.811755 79.706193 160.008397 81.426849 Q 163.699696 83.410789 167.619705 83.993205 Q 172.321589 84.692637 178.12448 84.809652 Q 186.187892 84.977197 199.421249 85.128785 C 202.165787 85.160698 204.902347 85.370793 207.716031 85.416004 Q 208.019207 85.421323 208.322383 85.578229 C 208.354296 85.594186 208.343658 85.639396 208.309086 85.642056 Q 200.243014 86.227132 194.224709 86.171284 Q 193.950787 86.168624 194.139607 86.368082 Q 196.916059 89.328035 199.679214 92.46617 Q 200.221739 93.085819 201.195093 93.0805 Q 206.535242 93.059225 212.058891 93.125711 Q 212.221117 93.12837 212.221117 92.966144 L 212.221117 60.217842 C 212.221117 60.074232 212.165269 59.938601 212.06421 59.840202 Q 207.463385 55.305862 205.120421 53.090551 Q 204.527367 52.52941 203.936972 52.521432 Q 165.978833 52.037414 133.110855 51.359258 Q 123.981009 51.170438 122.364072 51.157141 C 122.209824 51.154481 122.119404 51.327345 122.207165 51.454998 C 122.880002 52.417714 123.36136 52.747484 124.512897 53.704881 C 125.254879 54.32453 125.624541 54.885671 126.018138 55.723394 Q 128.27334 60.518358 129.709436 63.05812 Q 130.132286 63.808081 130.68279 64.361244 C 130.807783 64.486237 130.977987 64.558042 131.156169 64.560702 C 150.620586 64.653782 171.406743 65.41704 189.948335 66.073921 C 192.94552 66.180299 197.43199 66.430286 199.564858 66.59783 Q 199.684533 66.608468 199.804207 66.656338 C 199.907925 66.698889 199.88665 66.850477 199.774954 66.863774 Q 198.487786 67.036637 197.76176 67.060572 Q 191.655694 67.254711 184.459258 67.21216 C 168.367007 67.11642 154.859728 66.701548 134.709177 66.113813 Q 134.352812 66.103175 134.653328 66.294654 Q 138.18772 68.5339 141.184905 70.321041 C 141.863061 70.725276 142.352398 71.209293 142.868328 71.757137 C 145.453301 74.491038 148.610052 74.504335 152.128487 74.546886 Q 165.981492 74.725068 190.549368 75.251637 Q 196.256519 75.373971 201.559436 75.775546 Q 202.10728 75.818097 201.588689 75.996279 Z M 280.903728 85.554295 Q 281.861125 85.389409 283.103082 85.357496 C 288.783639 85.208568 292.421748 85.05432 297.065124 85.011769 Q 305.426393 84.934646 312.957918 84.748485 C 317.744904 84.628811 322.904211 84.291062 327.217817 82.620936 C 331.015493 81.150267 334.012678 79.222176 338.209269 76.820705 Q 338.605525 76.594652 338.150761 76.599971 Q 329.403874 76.730284 309.963392 76.639863 C 302.0888 76.602631 295.328512 76.618587 288.613435 75.972344 Q 288.560246 75.967025 288.568224 75.913837 Q 288.576203 75.868626 288.597478 75.85001 Q 288.632051 75.812778 288.695877 75.80214 Q 290.262286 75.562791 293.272768 75.451095 Q 297.533185 75.291528 300.854822 75.222383 Q 312.346247 74.977715 340.687864 74.475081 Q 342.320758 74.445828 343.381873 74.118717 C 347.639631 72.807615 351.838882 70.339657 356.070045 67.323856 C 356.692354 66.87973 357.296046 66.640381 357.833252 66.196255 Q 357.987499 66.068602 357.788041 66.073921 Q 325.983839 66.924941 321.465456 67.044615 Q 312.064347 67.294602 291.480308 67.111101 Q 290.488338 67.103123 288.408658 66.893028 Q 288.376745 66.890368 288.392702 66.863774 L 288.453869 66.752077 Q 288.499079 66.669635 288.592159 66.664316 Q 290.993631 66.486134 294.897684 66.273379 Q 303.094067 65.829253 311.301089 65.637773 Q 314.846118 65.55799 316.611984 65.488845 Q 338.666692 64.656441 360.561834 64.52347 C 361.019257 64.52081 361.33307 64.456984 361.606992 64.071365 Q 362.37557 63.004931 363.202654 61.49969 Q 365.327544 57.638188 368.146547 51.44702 C 368.213033 51.306069 368.106656 51.143844 367.952408 51.146503 Q 358.891708 51.236924 354.309498 51.34862 Q 324.236589 52.079965 287.299673 52.518772 C 286.632155 52.524091 286.294406 52.67302 285.860918 53.103849 C 282.063242 56.885567 279.339979 59.51575 277.284235 61.83212 C 277.167219 61.962432 277.103393 62.132636 277.103393 62.308159 L 277.103393 93.024652 C 277.103393 93.093797 277.159241 93.149646 277.228387 93.149646 Q 281.690921 93.099116 288.318237 93.061884 Q 288.945864 93.059225 289.382012 92.458192 Q 291.948368 88.942417 293.953584 86.368082 C 294.001453 86.306915 293.961562 86.213835 293.881779 86.211175 L 280.914366 85.692585 Q 280.246847 85.665991 280.903728 85.554295 Z M 215.154476 90.875827 Q 215.1332 91.264105 215.271491 90.899762 Q 219.026616 80.980063 227.651169 75.201108 C 237.754368 68.432841 251.963738 68.451457 262.01109 75.4245 Q 270.691491 81.448124 274.199288 91.274743 Q 274.372152 91.76142 274.33226 91.245489 C 273.444008 80.14766 273.420073 69.781176 273.462624 57.284483 C 273.465284 56.614305 272.920099 56.06912 272.249921 56.06912 Q 259.452712 56.07178 217.369786 56.082418 Q 215.758168 56.082418 215.771465 57.510535 Q 215.899118 70.733254 215.710298 76.924423 Q 215.460311 85.022407 215.154476 90.875827 Z M 242.270092 73.552257 C 233.911482 74.280943 226.504951 78.674332 221.763176 85.602164 C 215.351274 94.97136 215.436376 107.595705 222.039757 116.82661 C 227.768184 124.839493 237.190568 128.95896 247.019846 128.102621 C 256.851783 127.246283 265.420488 121.563067 269.678246 112.680548 C 274.584906 102.444377 272.48927 89.995554 264.550852 81.876294 C 258.684135 75.871286 250.631361 72.826231 242.270092 73.552257 Z" style="fill:#fbf0c7;"/>
		<path d="M 321.417586 88.915822 Q 321.037286 91.343888 320.630393 92.992739 Q 317.779477 104.595861 311.949991 114.316102 Q 311.604265 114.887881 310.128277 117.398389 Q 309.059184 119.214784 308.189548 120.408871 Q 304.426445 125.576157 300.57824 129.453615 Q 298.652808 131.395004 295.754022 134.131564 C 294.456217 135.357565 292.714286 136.671326 291.51488 137.604789 Q 289.004372 139.562134 285.605612 141.6099 Q 278.887875 145.654903 272.053123 148.319659 Q 269.266033 149.407368 264.521598 150.776978 Q 263.6626 151.024306 261.989815 151.362054 C 260.891467 151.582788 259.74525 151.936493 258.596373 152.104037 C 256.668282 152.385937 254.165752 152.888571 252.083413 153.048137 Q 245.182175 153.577365 238.222429 153.072072 Q 236.5656 152.952397 234.53645 152.641243 C 232.565807 152.340727 231.206835 152.181161 229.621811 151.824796 Q 223.659354 150.489759 217.912312 148.356891 C 215.617218 147.505871 213.143942 146.311784 211.261061 145.450127 C 208.545776 144.20817 206.000695 142.522087 203.383809 140.968976 Q 202.333332 140.346668 198.381409 137.45852 Q 196.229925 135.886792 194.275239 134.128905 C 187.860677 128.360587 182.193418 121.789119 177.738862 114.340037 Q 170.904109 102.915097 168.468065 90.016829 Q 168.374985 89.511536 168.324456 88.859974 Q 174.510305 89.096664 177.523447 89.136556 Q 184.172039 89.226977 190.82063 89.35197 Q 191.381772 89.362608 191.748774 89.77482 Q 193.628996 91.889073 195.030519 93.537923 C 196.72458 95.529841 198.272372 97.457933 200.921171 97.460592 Q 203.846551 97.463252 211.697208 97.436657 C 211.824861 97.436657 211.928579 97.540375 211.92592 97.668028 Q 211.891347 100.229066 212.526952 102.872546 Q 212.67854 103.505492 213.401907 105.30859 C 214.103998 107.061159 214.513552 109.111584 215.04012 110.659376 C 218.590468 121.113622 227.605958 128.756843 238.307531 131.097147 Q 241.325992 131.756687 245.150262 131.714136 C 253.080702 131.623716 260.636161 128.254209 266.375226 122.842256 C 269.37773 120.012615 272.007912 116.427695 273.704633 112.523642 Q 274.193969 111.401359 274.848191 108.829684 Q 275.51305 106.226096 276.680543 103.186359 C 277.342742 101.460385 277.369337 99.59612 277.414547 97.960566 C 277.419866 97.734514 277.606027 97.553673 277.834738 97.551013 Q 284.270575 97.500484 287.863474 97.452614 C 289.416585 97.431339 290.653223 97.314323 291.807418 96.279803 Q 292.432386 95.718661 293.227557 94.78254 Q 295.924226 91.601853 297.277879 89.854604 Q 297.690092 89.322716 298.261871 89.317397 Q 311.160139 89.187085 320.800597 88.825402 Q 321.095794 88.814764 321.417586 88.915822 Z" style="fill:#fbbc59;"/>
		<path d="M 265.069442 46.25048 C 265.31411 46.577591 265.50293 46.598867 265.891208 46.601526 Q 267.728879 46.617483 272.930737 46.548337 C 274.247158 46.532381 275.499753 46.854172 275.590174 48.370051 Q 275.741761 50.963002 275.688573 53.912317 Q 275.685913 54.066565 275.531666 54.066565 L 213.721039 54.066565 Q 213.561473 54.066565 213.558814 53.906998 Q 213.553495 53.510742 213.505625 48.957787 Q 213.497647 48.058897 213.792844 47.324893 C 214.061447 46.660034 215.619877 46.58025 216.284736 46.585569 Q 221.558399 46.62812 223.481172 46.612164 Q 223.616803 46.609504 223.72584 46.532381 C 224.036994 46.314307 224.249749 45.835608 224.454526 45.593599 Q 237.5097 30.272585 237.993718 29.706125 C 238.884629 28.660966 239.432473 27.996107 240.751553 27.990788 Q 244.575823 27.972172 248.397434 27.998767 C 249.283026 28.004085 249.697898 28.240775 250.296272 28.934888 Q 262.032366 42.593755 264.250336 45.197343 Q 264.51362 45.505838 265.069442 46.25048 Z M 255.862047 45.502195 C 255.859813 43.888901 254.548711 42.583117 252.936906 42.587239 L 236.315454 42.616254 C 234.703995 42.620349 233.398211 43.928792 233.400498 45.541395 L 233.406615 49.046532 C 233.408849 50.659826 234.719951 51.96561 236.331756 51.961488 L 252.953208 51.932473 C 254.564667 51.928378 255.870451 50.619935 255.868164 49.007332 L 255.862047 45.502195 Z M 215.526797 49.433826 C 215.526797 49.356702 215.590623 49.292876 215.667747 49.292876 L 228.119229 49.359362 Q 228.648457 49.362021 228.597928 48.862047 Q 228.595269 48.84875 228.597928 48.822156 Q 228.616544 48.308884 228.052743 48.314203 L 215.673066 48.386008 C 215.439035 48.388667 215.234259 48.548234 215.175751 48.774286 Q 214.861938 49.984329 214.978953 51.271497 Q 214.997569 51.489571 215.212983 51.489571 L 215.356593 51.489571 Q 215.526797 51.489571 215.526797 51.316707 L 215.526797 49.433826 Z M 273.547726 49.617327 L 273.547726 51.173098 Q 273.547726 51.412447 273.787076 51.412447 L 273.925366 51.412447 C 273.981214 51.412447 274.026425 51.372555 274.034403 51.316707 Q 274.106208 50.840668 274.108867 49.909865 Q 274.111527 48.425899 272.688728 48.412602 Q 266.213 48.359414 260.920721 48.393986 C 260.694669 48.396646 260.511168 48.580147 260.511168 48.806199 L 260.511168 49.061505 Q 260.511168 49.455101 260.904764 49.455101 L 273.382841 49.455101 Q 273.547726 49.455101 273.547726 49.617327 Z" style="fill:#052d3b;"/>
		<path d="M 201.588689 75.996279 Q 202.10728 75.818097 201.559436 75.775546 Q 196.256519 75.373971 190.549368 75.251637 Q 165.981492 74.725068 152.128487 74.546886 C 148.610052 74.504335 145.453301 74.491038 142.868328 71.757137 C 142.352398 71.209293 141.863061 70.725276 141.184905 70.321041 Q 138.18772 68.5339 134.653328 66.294654 Q 134.352812 66.103175 134.709177 66.113813 C 154.859728 66.701548 168.367007 67.11642 184.459258 67.21216 Q 191.655694 67.254711 197.76176 67.060572 Q 198.487786 67.036637 199.774954 66.863774 C 199.88665 66.850477 199.907925 66.698889 199.804207 66.656338 Q 199.684533 66.608468 199.564858 66.59783 C 197.43199 66.430286 192.94552 66.180299 189.948335 66.073921 C 171.406743 65.41704 150.620586 64.653782 131.156169 64.560702 C 130.977987 64.558042 130.807783 64.486237 130.68279 64.361244 Q 130.132286 63.808081 129.709436 63.05812 Q 128.27334 60.518358 126.018138 55.723394 C 125.624541 54.885671 125.254879 54.32453 124.512897 53.704881 C 123.36136 52.747484 122.880002 52.417714 122.207165 51.454998 C 122.119404 51.327345 122.209824 51.154481 122.364072 51.157141 Q 123.981009 51.170438 133.110855 51.359258 Q 165.978833 52.037414 203.936972 52.521432 Q 204.527367 52.52941 205.120421 53.090551 Q 207.463385 55.305862 212.06421 59.840202 C 212.165269 59.938601 212.221117 60.074232 212.221117 60.217842 L 212.221117 92.966144 Q 212.221117 93.12837 212.058891 93.125711 Q 206.535242 93.059225 201.195093 93.0805 Q 200.221739 93.085819 199.679214 92.46617 Q 196.916059 89.328035 194.139607 86.368082 Q 193.950787 86.168624 194.224709 86.171284 Q 200.243014 86.227132 208.309086 85.642056 C 208.343658 85.639396 208.354296 85.594186 208.322383 85.578229 Q 208.019207 85.421323 207.716031 85.416004 C 204.902347 85.370793 202.165787 85.160698 199.421249 85.128785 Q 186.187892 84.977197 178.12448 84.809652 Q 172.321589 84.692637 167.619705 83.993205 Q 163.699696 83.410789 160.008397 81.426849 Q 156.811755 79.706193 153.306617 77.546731 Q 153.208218 77.485564 152.466235 77.094627 Q 152.091255 76.897828 151.766803 76.637203 Q 151.652448 76.544123 151.801376 76.546783 Q 167.88033 76.79677 189.352621 76.565399 Q 195.854944 76.493594 200.854685 76.115954 Q 201.346681 76.078722 201.588689 75.996279 Z" style="fill:#052d3b;"/>
		<path d="M 280.903728 85.554295 Q 280.246847 85.665991 280.914366 85.692585 L 293.881779 86.211175 C 293.961562 86.213835 294.001453 86.306915 293.953584 86.368082 Q 291.948368 88.942417 289.382012 92.458192 Q 288.945864 93.059225 288.318237 93.061884 Q 281.690921 93.099116 277.228387 93.149646 C 277.159241 93.149646 277.103393 93.093797 277.103393 93.024652 L 277.103393 62.308159 C 277.103393 62.132636 277.167219 61.962432 277.284235 61.83212 C 279.339979 59.51575 282.063242 56.885567 285.860918 53.103849 C 286.294406 52.67302 286.632155 52.524091 287.299673 52.518772 Q 324.236589 52.079965 354.309498 51.34862 Q 358.891708 51.236924 367.952408 51.146503 C 368.106656 51.143844 368.213033 51.306069 368.146547 51.44702 Q 365.327544 57.638188 363.202654 61.49969 Q 362.37557 63.004931 361.606992 64.071365 C 361.33307 64.456984 361.019257 64.52081 360.561834 64.52347 Q 338.666692 64.656441 316.611984 65.488845 Q 314.846118 65.55799 311.301089 65.637773 Q 303.094067 65.829253 294.897684 66.273379 Q 290.993631 66.486134 288.592159 66.664316 Q 288.499079 66.669635 288.453869 66.752077 L 288.392702 66.863774 Q 288.376745 66.890368 288.408658 66.893028 Q 290.488338 67.103123 291.480308 67.111101 Q 312.064347 67.294602 321.465456 67.044615 Q 325.983839 66.924941 357.788041 66.073921 Q 357.987499 66.068602 357.833252 66.196255 C 357.296046 66.640381 356.692354 66.87973 356.070045 67.323856 C 351.838882 70.339657 347.639631 72.807615 343.381873 74.118717 Q 342.320758 74.445828 340.687864 74.475081 Q 312.346247 74.977715 300.854822 75.222383 Q 297.533185 75.291528 293.272768 75.451095 Q 290.262286 75.562791 288.695877 75.80214 Q 288.632051 75.812778 288.597478 75.85001 Q 288.576203 75.868626 288.568224 75.913837 Q 288.560246 75.967025 288.613435 75.972344 C 295.328512 76.618587 302.0888 76.602631 309.963392 76.639863 Q 329.403874 76.730284 338.150761 76.599971 Q 338.605525 76.594652 338.209269 76.820705 C 334.012678 79.222176 331.015493 81.150267 327.217817 82.620936 C 322.904211 84.291062 317.744904 84.628811 312.957918 84.748485 Q 305.426393 84.934646 297.065124 85.011769 C 292.421748 85.05432 288.783639 85.208568 283.103082 85.357496 Q 281.861125 85.389409 280.903728 85.554295 Z" style="fill:#052d3b;"/>
		<path d="M 215.154476 90.875827 Q 215.460311 85.022407 215.710298 76.924423 Q 215.899118 70.733254 215.771465 57.510535 Q 215.758168 56.082418 217.369786 56.082418 Q 259.452712 56.07178 272.249921 56.06912 C 272.920099 56.06912 273.465284 56.614305 273.462624 57.284483 C 273.420073 69.781176 273.444008 80.14766 274.33226 91.245489 Q 274.372152 91.76142 274.199288 91.274743 Q 270.691491 81.448124 262.01109 75.4245 C 251.963738 68.451457 237.754368 68.432841 227.651169 75.201108 Q 219.026616 80.980063 215.271491 90.899762 Q 215.1332 91.264105 215.154476 90.875827 Z M 260.859554 68.938134 C 263.739724 70.283809 266.380544 72.102864 268.774037 74.344769 Q 268.813929 74.384661 268.851161 74.34211 Q 268.885734 74.302218 268.861799 74.275624 C 264.643932 69.791814 259.394204 66.007435 253.487596 64.217634 Q 243.594491 61.223109 233.946055 65.079292 C 228.813342 67.132377 224.329532 70.416781 220.446755 74.509654 Q 220.42282 74.533589 220.444095 74.557524 L 220.444095 74.560183 Q 220.46803 74.589437 220.499943 74.565502 C 221.289796 73.911281 222.063692 73.166639 222.840248 72.576244 Q 228.300071 68.432841 234.927387 66.664316 Q 248.336267 63.087374 260.859554 68.938134 Z" style="fill:#052d3b;"/>
		<path d="M 247.019846 128.102621 C 237.190568 128.95896 227.768184 124.839493 222.039757 116.82661 C 215.436376 107.595705 215.351274 94.97136 221.763176 85.602164 C 226.504951 78.674332 233.911482 74.280943 242.270092 73.552257 C 250.631361 72.826231 258.684135 75.871286 264.550852 81.876294 C 272.48927 89.995554 274.584906 102.444377 269.678246 112.680548 C 265.420488 121.563067 256.851783 127.246283 247.019846 128.102621 Z M 262.141402 89.176447 C 262.149381 89.171128 262.149381 89.157831 262.141402 89.147193 Q 261.269107 87.844069 260.415428 86.772317 C 259.617597 85.775028 258.47138 84.67668 257.678868 84.030437 Q 250.259039 77.982878 241.022816 79.498757 C 233.725322 80.698163 227.677763 85.806941 224.938543 92.591164 C 223.627441 95.838336 223.236504 99.439213 223.715202 102.715639 Q 224.707172 109.515819 229.53139 114.528857 Q 229.563304 114.56077 229.595217 114.528857 L 229.653724 114.473009 Q 229.712232 114.411842 229.659043 114.345356 Q 225.973064 109.824313 224.901311 104.327258 C 223.127467 95.20805 227.656487 86.365423 235.956589 82.256593 C 242.589224 78.974848 250.937196 79.565243 257.045922 83.844277 Q 259.755888 85.743115 262.061619 89.205701 Q 262.066938 89.216339 262.080235 89.20836 L 262.141402 89.176447 Z M 249.051655 89.349311 C 250.96645 89.968959 252.227023 91.274743 253.362602 92.984761 C 253.70301 93.495372 253.955656 93.620366 254.540732 93.373038 C 255.346542 93.03263 256.01406 92.503402 255.73216 91.559302 C 255.248143 89.950343 252.445096 87.051557 250.804224 87.123362 Q 250.655296 87.128681 250.548918 87.235058 L 248.931981 88.851996 C 248.772414 89.011562 248.8389 89.280165 249.051655 89.349311 Z M 228.999503 102.28481 C 228.994184 102.263535 229.007481 102.242259 229.028757 102.2396 Q 229.427672 102.178433 229.002162 102.244919 C 228.991525 102.247578 228.980887 102.258216 228.983546 102.268854 Q 229.446288 105.228807 229.943603 106.497358 Q 233.220029 114.813417 241.921706 117.273395 C 246.804431 118.650984 252.261595 117.350519 256.141713 114.342696 Q 260.838278 110.704587 262.29565 104.946907 Q 263.989711 98.266402 260.904764 92.014066 Q 260.896786 92.000769 260.886148 92.003428 L 260.875511 92.008747 Q 260.854235 92.016726 260.867532 92.04066 Q 263.683876 98.152046 261.404738 104.516078 Q 260.253202 107.733996 258.117675 110.193975 Q 253.402494 115.627204 246.171485 116.060692 C 241.413753 116.347911 237.546932 114.837351 234.031157 111.701876 C 231.318532 109.287107 229.749464 105.832499 228.999503 102.28481 Z M 237.943188 109.515819 C 239.389922 110.446622 241.892452 110.834899 242.706239 108.901489 Q 243.158344 107.829736 242.37381 106.906911 C 241.982873 106.446829 240.900482 106.087805 240.368595 105.744738 C 239.839367 105.40433 239.062811 104.566607 238.480395 104.401722 Q 237.318221 104.069292 236.528368 104.925631 C 235.108229 106.468104 236.496455 108.582356 237.943188 109.515819 Z" style="fill:#052d3b;"/>
		<path d="M 255.868164 49.007332 C 255.870451 50.619935 254.564667 51.928378 252.953208 51.932473 L 236.331756 51.961488 C 234.719951 51.96561 233.408849 50.659826 233.406615 49.046532 L 233.400498 45.541395 C 233.398211 43.928792 234.703995 42.620349 236.315454 42.616254 L 252.936906 42.587239 C 254.548711 42.583117 255.859813 43.888901 255.862047 45.502195 L 255.868164 49.007332 Z M 254.761652 45.481079 C 254.764125 44.36228 253.857257 43.452753 252.738698 43.451051 L 236.415103 43.422568 C 235.297049 43.42084 234.387522 44.325048 234.385075 45.445495 L 234.379357 48.72724 C 234.376884 49.846039 235.283752 50.755566 236.402311 50.757268 L 252.725906 50.785751 C 253.84396 50.787479 254.753487 49.883271 254.755934 48.762824 L 254.761652 45.481079 Z" style="fill:#fbf0c7;"/>
		<path d="M 215.526797 49.433826 L 215.526797 51.316707 Q 215.526797 51.489571 215.356593 51.489571 L 215.212983 51.489571 Q 214.997569 51.489571 214.978953 51.271497 Q 214.861938 49.984329 215.175751 48.774286 C 215.234259 48.548234 215.439035 48.388667 215.673066 48.386008 L 228.052743 48.314203 Q 228.616544 48.308884 228.597928 48.822156 Q 228.595269 48.84875 228.597928 48.862047 Q 228.648457 49.362021 228.119229 49.359362 L 215.667747 49.292876 C 215.590623 49.292876 215.526797 49.356702 215.526797 49.433826 Z" style="fill:#fbf0c7;"/>
		<path d="M 273.382841 49.455101 L 260.904764 49.455101 Q 260.511168 49.455101 260.511168 49.061505 L 260.511168 48.806199 C 260.511168 48.580147 260.694669 48.396646 260.920721 48.393986 Q 266.213 48.359414 272.688728 48.412602 Q 274.111527 48.425899 274.108867 49.909865 Q 274.106208 50.840668 274.034403 51.316707 C 274.026425 51.372555 273.981214 51.412447 273.925366 51.412447 L 273.787076 51.412447 Q 273.547726 51.412447 273.547726 51.173098 L 273.547726 49.617327 Q 273.547726 49.455101 273.382841 49.455101 Z" style="fill:#fbf0c7;"/>
		<path d="M 268.774037 74.344769 C 266.380544 72.102864 263.739724 70.283809 260.859554 68.938134 Q 248.336267 63.087374 234.927387 66.664316 Q 228.300071 68.432841 222.840248 72.576244 C 222.063692 73.166639 221.289796 73.911281 220.499943 74.565502 Q 220.46803 74.589437 220.444095 74.560183 L 220.444095 74.557524 Q 220.42282 74.533589 220.446755 74.509654 C 224.329532 70.416781 228.813342 67.132377 233.946055 65.079292 Q 243.594491 61.223109 253.487596 64.217634 C 259.394204 66.007435 264.643932 69.791814 268.861799 74.275624 Q 268.885734 74.302218 268.851161 74.34211 Q 268.813929 74.384661 268.774037 74.344769 Z" style="fill:#fbf0c7;"/>
		<path d="M 262.141402 89.176447 L 262.080235 89.20836 Q 262.066938 89.216339 262.061619 89.205701 Q 259.755888 85.743115 257.045922 83.844277 C 250.937196 79.565243 242.589224 78.974848 235.956589 82.256593 C 227.656487 86.365423 223.127467 95.20805 224.901311 104.327258 Q 225.973064 109.824313 229.659043 114.345356 Q 229.712232 114.411842 229.653724 114.473009 L 229.595217 114.528857 Q 229.563304 114.56077 229.53139 114.528857 Q 224.707172 109.515819 223.715202 102.715639 C 223.236504 99.439213 223.627441 95.838336 224.938543 92.591164 C 227.677763 85.806941 233.725322 80.698163 241.022816 79.498757 Q 250.259039 77.982878 257.678868 84.030437 C 258.47138 84.67668 259.617597 85.775028 260.415428 86.772317 Q 261.269107 87.844069 262.141402 89.147193 C 262.149381 89.157831 262.149381 89.171128 262.141402 89.176447 Z" style="fill:#fbbc59;"/>
		<path d="M 253.362602 92.984761 C 252.227023 91.274743 250.96645 89.968959 249.051655 89.349311 C 248.8389 89.280165 248.772414 89.011562 248.931981 88.851996 L 250.548918 87.235058 Q 250.655296 87.128681 250.804224 87.123362 C 252.445096 87.051557 255.248143 89.950343 255.73216 91.559302 C 256.01406 92.503402 255.346542 93.03263 254.540732 93.373038 C 253.955656 93.620366 253.70301 93.495372 253.362602 92.984761 Z" style="fill:#fbf0c7;"/>
		<path d="M 228.999503 102.28481 C 229.749464 105.832499 231.318532 109.287107 234.031157 111.701876 C 237.546932 114.837351 241.413753 116.347911 246.171485 116.060692 Q 253.402494 115.627204 258.117675 110.193975 Q 260.253202 107.733996 261.404738 104.516078 Q 263.683876 98.152046 260.867532 92.04066 Q 260.854235 92.016726 260.875511 92.008747 L 260.886148 92.003428 Q 260.896786 92.000769 260.904764 92.014066 Q 263.989711 98.266402 262.29565 104.946907 Q 260.838278 110.704587 256.141713 114.342696 C 252.261595 117.350519 246.804431 118.650984 241.921706 117.273395 Q 233.220029 114.813417 229.943603 106.497358 Q 229.446288 105.228807 228.983546 102.268854 C 228.980887 102.258216 228.991525 102.247578 229.002162 102.244919 Q 229.427672 102.178433 229.028757 102.2396 C 229.007481 102.242259 228.994184 102.263535 228.999503 102.28481 Z" style="fill:#fbf0c7;"/>
		<path d="M 240.368595 105.744738 C 240.900482 106.087805 241.982873 106.446829 242.37381 106.906911 Q 243.158344 107.829736 242.706239 108.901489 C 241.892452 110.834899 239.389922 110.446622 237.943188 109.515819 C 236.496455 108.582356 235.108229 106.468104 236.528368 104.925631 Q 237.318221 104.069292 238.480395 104.401722 C 239.062811 104.566607 239.839367 105.40433 240.368595 105.744738 Z" style="fill:#fbf0c7;"/>
		<path d="M 254.755934 48.762824 C 254.753487 49.883271 253.84396 50.787479 252.725906 50.785751 L 236.402311 50.757268 C 235.283752 50.755566 234.376884 49.846039 234.379357 48.72724 L 234.385075 45.445495 C 234.387522 44.325048 235.297049 43.42084 236.415103 43.422568 L 252.738698 43.451051 C 253.857257 43.452753 254.764125 44.36228 254.761652 45.481079 L 254.755934 48.762824 Z" style="fill:#052d3b;"/>
	</g>
	<g id="surface4">
	</g>
</svg>
