<?xml version="1.0" encoding="utf-8"?>
<svg xmlns="http://www.w3.org/2000/svg" width="490pt" height="280pt" viewBox="0 0 490 280" version="1.1" xmlns:xlink="http://www.w3.org/1999/xlink">
	<g id="surface2">
		<path vector-effect="non-scaling-stroke" d="M 268.339614 113.297905 Q 268.058828 113.205065 267.592362 112.804267 C 267.125897 112.405733 266.358266 112.301571 265.667625 112.301571 Q 245.487316 112.319686 225.302478 112.312893 Q 224.084233 112.312893 223.049403 113.454149" style="fill:none;stroke-width:0.50;stroke:#95948c;"/>
		<path vector-effect="non-scaling-stroke" d="M 267.322899 118.189004 Q 266.740949 118.263729 266.115975 118.265993 Q 245.67979 118.37242 225.243604 118.284108 Q 224.668447 118.281844 224.034416 118.191268" style="fill:none;stroke-width:0.50;stroke:#95948c;"/>
		<path vector-effect="non-scaling-stroke" d="M 258.226815 147.07592 Q 257.554289 147.186876 257.284826 147.186876 Q 245.029908 147.214048 232.919911 147.150645" style="fill:none;stroke-width:0.50;stroke:#95948c;"/>
		<path vector-effect="non-scaling-stroke" d="M 264.549013 123.06878 C 264.549013 122.665717 264.222939 122.339644 263.819877 122.339644 L 228.214493 122.339644 C 227.811431 122.339644 227.485357 122.665717 227.485357 123.06878 L 227.485357 123.159356 C 227.485357 123.562418 227.811431 123.888492 228.214493 123.888492 L 263.819877 123.888492 C 264.222939 123.888492 264.549013 123.562418 264.549013 123.159356 L 264.549013 123.06878" style="fill:none;stroke-width:0.50;stroke:#95948c;"/>
		<path vector-effect="non-scaling-stroke" d="M 264.451643 129.112456 C 264.451643 128.720715 264.134628 128.4037 263.742887 128.4037 L 228.282425 128.4037 C 227.890685 128.4037 227.573669 128.720715 227.573669 129.112456 L 227.573669 129.207561 C 227.573669 129.599302 227.890685 129.916317 228.282425 129.916317 L 263.742887 129.916317 C 264.134628 129.916317 264.451643 129.599302 264.451643 129.207561 L 264.451643 129.112456" style="fill:none;stroke-width:0.50;stroke:#95948c;"/>
		<path vector-effect="non-scaling-stroke" d="M 264.462965 134.918371 C 264.462965 134.558332 264.173123 134.268489 263.813083 134.268489 L 228.212229 134.268489 C 227.85219 134.268489 227.562347 134.558332 227.562347 134.918371 L 227.562347 135.063292 C 227.562347 135.423332 227.85219 135.713174 228.212229 135.713174 L 263.813083 135.713174 C 264.173123 135.713174 264.462965 135.423332 264.462965 135.063292 L 264.462965 134.918371" style="fill:none;stroke-width:0.50;stroke:#95948c;"/>
		<path vector-effect="non-scaling-stroke" d="M 256.673439 140.66994 C 256.673439 140.282728 256.358687 139.967977 255.971476 139.967977 L 236.108182 139.967977 C 235.72097 139.967977 235.406219 140.282728 235.406219 140.66994 L 235.406219 140.769574 C 235.406219 141.156785 235.72097 141.471537 236.108182 141.471537 L 255.971476 141.471537 C 256.358687 141.471537 256.673439 141.156785 256.673439 140.769574 L 256.673439 140.66994" style="fill:none;stroke-width:0.50;stroke:#95948c;"/>
		<path d="M 268.339614 113.297905 Q 268.058828 113.205065 267.592362 112.804267 C 267.125897 112.405733 266.358266 112.301571 265.667625 112.301571 Q 245.487316 112.319686 225.302478 112.312893 Q 224.084233 112.312893 223.049403 113.454149 Q 221.661328 112.389882 221.591131 110.861414 C 221.464325 108.062619 221.251472 105.771049 220.689901 103.092267 C 219.088972 95.474834 216.607193 87.807585 212.553922 81.116291 Q 211.58476 79.517626 210.255558 77.735546 Q 208.421397 75.27641 207.794158 74.325363 C 203.88128 68.388114 201.227406 61.864385 200.396372 55.04402 Q 200.095208 52.573563 200.004632 49.315095 Q 199.970666 48.121758 200.185784 45.307112 Q 200.351085 43.142348 200.681687 41.333095 C 202.379984 32.05133 206.994826 23.256411 213.867272 16.755326 Q 222.424429 8.660106 233.957005 5.811494 Q 238.12576 4.781193 241.891453 4.611364 C 244.427578 4.495879 248.08458 4.459649 250.765626 4.783458 Q 255.550298 5.360879 259.195977 6.527044 Q 272.909167 10.91771 281.455003 22.599736 C 287.553025 30.934982 290.777526 41.265163 290.08915 51.507032 Q 289.690616 57.417109 287.937972 63.037343 Q 286.787658 66.72831 285.277305 69.554278 Q 283.132921 73.569055 281.115343 76.306711 Q 279.358171 78.688857 278.592805 80.002207 Q 275.483787 85.316748 273.305437 91.417034 Q 270.796485 98.443459 269.942807 104.548274 C 269.637113 106.728889 269.59409 108.705708 269.632584 110.949725 Q 269.662022 112.550654 268.339614 113.297905 Z" style="fill:#fcf6e2;"/>
		<path d="M 268.339614 113.297905 Q 268.443776 115.401531 268.267153 116.608454 Q 268.144875 117.45081 267.322899 118.189004 Q 266.740949 118.263729 266.115975 118.265993 Q 245.67979 118.37242 225.243604 118.284108 Q 224.668447 118.281844 224.034416 118.191268 Q 223.146772 117.353441 223.081105 115.985745 Q 223.001851 114.334999 223.049403 113.454149 Q 224.084233 112.312893 225.302478 112.312893 Q 245.487316 112.319686 265.667625 112.301571 C 266.358266 112.301571 267.125897 112.405733 267.592362 112.804267 Q 268.058828 113.205065 268.339614 113.297905 Z" style="fill:#2e3135;"/>
		<path d="M 267.322899 118.189004 Q 267.86409 119.038153 267.866355 119.688035 Q 267.893527 128.36747 267.868619 137.04464 C 267.866355 137.927755 267.538017 138.117964 266.838318 138.767846 Q 262.456709 142.830175 258.226815 147.07592 Q 257.554289 147.186876 257.284826 147.186876 Q 245.029908 147.214048 232.919911 147.150645 Q 227.297412 141.419456 224.67524 138.688592 C 224.014036 137.997951 224.043474 137.470347 224.038945 136.537415 Q 223.989128 127.405101 224.034416 118.191268 Q 224.668447 118.281844 225.243604 118.284108 Q 245.67979 118.37242 266.115975 118.265993 Q 266.740949 118.263729 267.322899 118.189004 Z M 264.549013 123.06878 C 264.549013 122.665717 264.222939 122.339644 263.819877 122.339644 L 228.214493 122.339644 C 227.811431 122.339644 227.485357 122.665717 227.485357 123.06878 L 227.485357 123.159356 C 227.485357 123.562418 227.811431 123.888492 228.214493 123.888492 L 263.819877 123.888492 C 264.222939 123.888492 264.549013 123.562418 264.549013 123.159356 L 264.549013 123.06878 Z M 264.451643 129.112456 C 264.451643 128.720715 264.134628 128.4037 263.742887 128.4037 L 228.282425 128.4037 C 227.890685 128.4037 227.573669 128.720715 227.573669 129.112456 L 227.573669 129.207561 C 227.573669 129.599302 227.890685 129.916317 228.282425 129.916317 L 263.742887 129.916317 C 264.134628 129.916317 264.451643 129.599302 264.451643 129.207561 L 264.451643 129.112456 Z M 264.462965 134.918371 C 264.462965 134.558332 264.173123 134.268489 263.813083 134.268489 L 228.212229 134.268489 C 227.85219 134.268489 227.562347 134.558332 227.562347 134.918371 L 227.562347 135.063292 C 227.562347 135.423332 227.85219 135.713174 228.212229 135.713174 L 263.813083 135.713174 C 264.173123 135.713174 264.462965 135.423332 264.462965 135.063292 L 264.462965 134.918371 Z M 256.673439 140.66994 C 256.673439 140.282728 256.358687 139.967977 255.971476 139.967977 L 236.108182 139.967977 C 235.72097 139.967977 235.406219 140.282728 235.406219 140.66994 L 235.406219 140.769574 C 235.406219 141.156785 235.72097 141.471537 236.108182 141.471537 L 255.971476 141.471537 C 256.358687 141.471537 256.673439 141.156785 256.673439 140.769574 L 256.673439 140.66994 Z" style="fill:#fcf6e2;"/>
		<path d="M 232.919911 147.150645 Q 245.029908 147.214048 257.284826 147.186876 Q 257.554289 147.186876 258.226815 147.07592 Q 258.75442 147.223106 258.763477 147.48804 Q 258.854053 149.806783 258.835938 150.368354 Q 258.786121 151.837948 257.706004 152.318 Q 257.219158 152.535382 255.713334 152.528589 Q 245.559777 152.485565 235.406219 152.517267 Q 233.821141 152.521796 233.334296 152.308942 Q 232.193039 151.80851 232.179453 150.234754 Q 232.179453 150.193995 232.220212 147.800527 Q 232.233799 146.992137 232.919911 147.150645 Z" style="fill:#2e3135;"/>
		<path d="M 264.549013 123.159356 C 264.549013 123.562418 264.222939 123.888492 263.819877 123.888492 L 228.214493 123.888492 C 227.811431 123.888492 227.485357 123.562418 227.485357 123.159356 L 227.485357 123.06878 C 227.485357 122.665717 227.811431 122.339644 228.214493 122.339644 L 263.819877 122.339644 C 264.222939 122.339644 264.549013 122.665717 264.549013 123.06878 L 264.549013 123.159356 Z" style="fill:#2e3135;"/>
		<path d="M 264.451643 129.207561 C 264.451643 129.599302 264.134628 129.916317 263.742887 129.916317 L 228.282425 129.916317 C 227.890685 129.916317 227.573669 129.599302 227.573669 129.207561 L 227.573669 129.112456 C 227.573669 128.720715 227.890685 128.4037 228.282425 128.4037 L 263.742887 128.4037 C 264.134628 128.4037 264.451643 128.720715 264.451643 129.112456 L 264.451643 129.207561 Z" style="fill:#2e3135;"/>
		<path d="M 264.462965 135.063292 C 264.462965 135.423332 264.173123 135.713174 263.813083 135.713174 L 228.212229 135.713174 C 227.85219 135.713174 227.562347 135.423332 227.562347 135.063292 L 227.562347 134.918371 C 227.562347 134.558332 227.85219 134.268489 228.212229 134.268489 L 263.813083 134.268489 C 264.173123 134.268489 264.462965 134.558332 264.462965 134.918371 L 264.462965 135.063292 Z" style="fill:#2e3135;"/>
		<path d="M 256.673439 140.769574 C 256.673439 141.156785 256.358687 141.471537 255.971476 141.471537 L 236.108182 141.471537 C 235.72097 141.471537 235.406219 141.156785 235.406219 140.769574 L 235.406219 140.66994 C 235.406219 140.282728 235.72097 139.967977 236.108182 139.967977 L 255.971476 139.967977 C 256.358687 139.967977 256.673439 140.282728 256.673439 140.66994 L 256.673439 140.769574 Z" style="fill:#2e3135;"/>
	</g>
	<g id="surface4">
	</g>
</svg>
