<?xml version="1.0" encoding="utf-8"?>
<svg xmlns="http://www.w3.org/2000/svg" width="490pt" height="280pt" viewBox="0 0 490 280" version="1.1" xmlns:xlink="http://www.w3.org/1999/xlink">
	<g id="surface2">
		<path vector-effect="non-scaling-stroke" d="M 244.605082 3.707726 L 244.456888 3.718841" style="fill:none;stroke-width:0.50;stroke:#d14b43;"/>
		<path vector-effect="non-scaling-stroke" d="M 245.948083 3.705874 L 246.070343 3.711431" style="fill:none;stroke-width:0.50;stroke:#d14b43;"/>
		<path vector-effect="non-scaling-stroke" d="M 295.127872 50.601634 Q 293.851558 51.190702 292.712322 51.846458 C 285.895431 55.780989 279.10077 60.141576 272.304256 64.309512 Q 267.09341 67.503076 261.184204 70.891145 Q 254.259873 74.860872 247.320723 78.806518" style="fill:none;stroke-width:0.50;stroke:#f8c283;"/>
		<path vector-effect="non-scaling-stroke" d="M 247.320723 78.806518 Q 247.046566 78.87691 246.874291 78.995465" style="fill:none;stroke-width:0.50;stroke:#c5ac72;"/>
		<path vector-effect="non-scaling-stroke" d="M 246.874291 78.995465 Q 246.368581 78.584228 245.51647 78.98435" style="fill:none;stroke-width:0.50;stroke:#d05d2a;"/>
		<path vector-effect="non-scaling-stroke" d="M 245.51647 78.98435 Q 245.218231 78.063699 245.35531 77.098591" style="fill:none;stroke-width:0.50;stroke:#ba9f68;"/>
		<path vector-effect="non-scaling-stroke" d="M 245.35531 77.098591 L 245.396063 70.968947" style="fill:none;stroke-width:0.50;stroke:#ab905c;"/>
		<path vector-effect="non-scaling-stroke" d="M 245.396063 70.968947 L 245.307147 69.438851" style="fill:none;stroke-width:0.50;stroke:#dbb97e;"/>
		<path vector-effect="non-scaling-stroke" d="M 245.368277 151.673149 L 245.47016 80.47184" style="fill:none;stroke-width:0.50;stroke:#c69b8b;"/>
		<path vector-effect="non-scaling-stroke" d="M 245.35531 77.098591 Q 240.396393 80.705244 234.596479 82.38909 C 231.336227 83.333823 228.489063 83.328265 224.925015 83.131909 C 224.865738 83.128204 224.808313 83.152286 224.76756 83.194891 C 220.184683 88.090827 216.461327 91.982752 212.610155 96.632316 C 212.33044 96.969456 212.035906 97.419593 211.859926 97.751175 Q 211.77101 97.921598 211.869188 98.017923" style="fill:none;stroke-width:0.50;stroke:#70a39f;"/>
		<path vector-effect="non-scaling-stroke" d="M 211.869188 98.017923 Q 211.791387 98.184641 211.628374 98.312457" style="fill:none;stroke-width:0.50;stroke:#866061;"/>
		<path vector-effect="non-scaling-stroke" d="M 316.037943 73.629016 Q 315.669312 75.790785 314.292967 76.99856 C 311.745895 79.232574 308.670885 78.945449 305.495844 78.945449 Q 283.316869 78.951007 261.137893 78.951007" style="fill:none;stroke-width:0.50;stroke:#bdd5c6;"/>
		<path vector-effect="non-scaling-stroke" d="M 261.137893 78.951007 Q 251.899895 78.934335 247.596733 78.965826 Q 247.300347 78.967678 247.320723 78.806518" style="fill:none;stroke-width:0.50;stroke:#c8e2d0;"/>
		<path vector-effect="non-scaling-stroke" d="M 246.874291 78.995465 L 245.47016 80.47184" style="fill:none;stroke-width:0.50;stroke:#a07d77;"/>
		<path vector-effect="non-scaling-stroke" d="M 245.47016 80.47184 Q 244.436512 81.72963 243.456584 82.94111 Q 240.090744 87.099784 235.574554 89.917309 Q 229.192981 93.900003 222.709526 97.714127 C 219.827167 99.409088 216.841072 101.129982 213.71049 102.484098" style="fill:none;stroke-width:0.50;stroke:#d14b43;"/>
		<path vector-effect="non-scaling-stroke" d="M 245.396063 70.968947 Q 239.270124 74.658959 233.123808 78.313776 Q 232.049407 78.951007 230.891647 78.952859 Q 221.357262 78.962121 186.711528 78.967678 Q 183.730991 78.967678 181.663695 78.817633 C 179.138852 78.636096 176.634386 77.457959 175.578509 75.077605 Q 174.568942 72.800986 175.754488 70.105721" style="fill:none;stroke-width:0.50;stroke:#91bcb5;"/>
		<path vector-effect="non-scaling-stroke" d="M 245.51647 78.98435 L 211.869188 98.017923" style="fill:none;stroke-width:0.50;stroke:#95706d;"/>
		<path vector-effect="non-scaling-stroke" d="M 278.239397 98.458798 Q 277.744802 98.473618 277.124242 97.769699 Q 270.659311 90.419313 264.155479 82.959635 Q 263.038472 81.677763 261.87886 80.436644 C 261.582473 80.118029 261.321282 79.719759 261.052682 79.360391 Q 260.961914 79.238131 260.985995 79.149215 Q 261.015634 79.041775 261.137893 78.951007" style="fill:none;stroke-width:0.50;stroke:#8abfb5;"/>
		<path d="M 244.605082 3.707726 L 244.456888 3.718841 Q 244.518018 3.698464 244.605082 3.707726 Z" style="fill:#ab2d2f;"/>
		<path d="M 245.948083 3.705874 L 246.070343 3.711431 Q 249.058289 3.855919 251.431234 4.49315 C 258.442628 6.375205 264.512995 11.606427 267.150835 18.328845 C 269.553419 24.449227 269.047709 31.26797 265.83562 37.054917 C 264.50929 39.444533 262.736528 41.76561 260.654413 43.519848 Q 255.721429 47.676669 249.71034 48.752923 Q 243.614039 49.845848 237.521443 47.850796 C 232.690343 46.268833 228.522407 42.875207 225.730816 38.679485 C 220.816357 31.292051 220.477365 21.907712 225.399234 14.409133 C 229.656085 7.921972 236.70638 4.143044 244.456888 3.718841 L 244.605082 3.707726 L 245.948083 3.705874 Z" style="fill:#f76956;"/>
		<path d="M 246.070343 3.711431 L 245.948083 3.705874 L 246.070343 3.711431 Z" style="fill:#ab2d2f;"/>
		<path d="M 295.127872 50.601634 Q 293.851558 51.190702 292.712322 51.846458 C 285.895431 55.780989 279.10077 60.141576 272.304256 64.309512 Q 267.09341 67.503076 261.184204 70.891145 Q 254.259873 74.860872 247.320723 78.806518 Q 247.046566 78.87691 246.874291 78.995465 Q 246.368581 78.584228 245.51647 78.98435 Q 245.218231 78.063699 245.35531 77.098591 L 245.396063 70.968947 L 245.307147 69.438851 Q 245.729498 68.957223 246.266699 68.475595 C 249.278727 65.782182 252.520455 62.80535 255.717724 59.935958 Q 263.101454 53.306161 269.41634 47.261728 C 271.322476 45.438951 273.395329 44.816539 276.007236 44.812834 Q 289.264976 44.79431 289.807734 44.792458 C 291.428598 44.786901 294.168321 45.025862 295.00376 46.439256 Q 295.237165 46.835673 295.255689 47.778552 Q 295.283475 49.241961 295.127872 50.601634 Z" style="fill:#f58c24;"/>
		<path d="M 245.307147 69.438851 L 245.396063 70.968947 Q 239.270124 74.658959 233.123808 78.313776 Q 232.049407 78.951007 230.891647 78.952859 Q 221.357262 78.962121 186.711528 78.967678 Q 183.730991 78.967678 181.663695 78.817633 C 179.138852 78.636096 176.634386 77.457959 175.578509 75.077605 Q 174.568942 72.800986 175.754488 70.105721 Q 176.169429 69.431441 176.858528 68.766424 Q 181.152428 64.62257 189.927322 56.221864 Q 194.315695 52.020585 196.847948 49.482775 C 198.668873 47.659998 200.287884 46.155836 202.533012 45.553801 Q 203.327699 45.340773 205.089346 45.338921 Q 210.820721 45.337068 216.400197 45.340773 C 218.582343 45.340773 219.836429 46.063215 221.440621 47.541443 C 223.28007 49.236404 224.900934 50.657207 226.562551 52.192859 Q 230.604522 55.929182 234.248224 59.237597 Q 238.501371 63.099884 242.452574 66.684309 Q 243.938212 68.032867 245.307147 69.438851 Z" style="fill:#c0e5d7;"/>
		<path d="M 295.127872 50.601634 C 295.007465 51.292585 295.105643 51.674183 295.642844 52.165073 C 302.1652 58.122442 307.603893 63.294388 313.542738 68.903503 Q 314.798676 70.089049 315.406269 71.294972 Q 315.950879 72.376783 316.037943 73.629016 Q 315.669312 75.790785 314.292967 76.99856 C 311.745895 79.232574 308.670885 78.945449 305.495844 78.945449 Q 283.316869 78.951007 261.137893 78.951007 Q 251.899895 78.934335 247.596733 78.965826 Q 247.300347 78.967678 247.320723 78.806518 Q 254.259873 74.860872 261.184204 70.891145 Q 267.09341 67.503076 272.304256 64.309512 C 279.10077 60.141576 285.895431 55.780989 292.712322 51.846458 Q 293.851558 51.190702 295.127872 50.601634 Z" style="fill:#fbf7e1;"/>
		<path d="M 245.396063 70.968947 L 245.35531 77.098591 Q 240.396393 80.705244 234.596479 82.38909 C 231.336227 83.333823 228.489063 83.328265 224.925015 83.131909 C 224.865738 83.128204 224.808313 83.152286 224.76756 83.194891 C 220.184683 88.090827 216.461327 91.982752 212.610155 96.632316 C 212.33044 96.969456 212.035906 97.419593 211.859926 97.751175 Q 211.77101 97.921598 211.869188 98.017923 Q 211.791387 98.184641 211.628374 98.312457 Q 211.170827 98.399521 210.235357 98.397668 Q 204.037174 98.386554 197.837138 98.364325 Q 195.560519 98.356915 194.695441 98.101282 C 193.196836 97.656702 192.541081 96.956489 191.161031 95.670912 C 188.032301 92.753357 184.818359 89.709838 181.604418 86.723744 Q 178.823941 84.141476 176.799251 82.137162 C 175.315466 80.670049 174.365176 79.067709 174.091019 76.931873 Q 173.859467 75.133177 174.216983 73.356711 Q 174.572647 71.582096 175.754488 70.105721 Q 174.568942 72.800986 175.578509 75.077605 C 176.634386 77.457959 179.138852 78.636096 181.663695 78.817633 Q 183.730991 78.967678 186.711528 78.967678 Q 221.357262 78.962121 230.891647 78.952859 Q 232.049407 78.951007 233.123808 78.313776 Q 239.270124 74.658959 245.396063 70.968947 Z" style="fill:#619393;"/>
		<path d="M 316.037943 73.629016 Q 316.341739 75.453645 316.25838 76.765156 C 316.119449 78.92322 315.015409 80.481102 313.464937 81.907462 Q 308.167028 86.777464 298.134343 95.798729 Q 297.715697 96.172917 296.563494 97.147288 C 295.34831 98.175379 293.758937 98.371735 292.238103 98.380997 Q 285.206333 98.419897 278.239397 98.458798 Q 277.744802 98.473618 277.124242 97.769699 Q 270.659311 90.419313 264.155479 82.959635 Q 263.038472 81.677763 261.87886 80.436644 C 261.582473 80.118029 261.321282 79.719759 261.052682 79.360391 Q 260.961914 79.238131 260.985995 79.149215 Q 261.015634 79.041775 261.137893 78.951007 Q 283.316869 78.951007 305.495844 78.945449 C 308.670885 78.945449 311.745895 79.232574 314.292967 76.99856 Q 315.669312 75.790785 316.037943 73.629016 Z" style="fill:#7fb2ab;"/>
		<path d="M 245.35531 77.098591 Q 245.218231 78.063699 245.51647 78.98435 L 211.869188 98.017923 Q 211.77101 97.921598 211.859926 97.751175 C 212.035906 97.419593 212.33044 96.969456 212.610155 96.632316 C 216.461327 91.982752 220.184683 88.090827 224.76756 83.194891 C 224.808313 83.152286 224.865738 83.128204 224.925015 83.131909 C 228.489063 83.328265 231.336227 83.333823 234.596479 82.38909 Q 240.396393 80.705244 245.35531 77.098591 Z" style="fill:#7fb2ab;"/>
		<path d="M 246.874291 78.995465 L 245.47016 80.47184 Q 244.436512 81.72963 243.456584 82.94111 Q 240.090744 87.099784 235.574554 89.917309 Q 229.192981 93.900003 222.709526 97.714127 C 219.827167 99.409088 216.841072 101.129982 213.71049 102.484098 L 211.628374 98.312457 Q 211.791387 98.184641 211.869188 98.017923 L 245.51647 78.98435 Q 246.368581 78.584228 246.874291 78.995465 Z" style="fill:#ab2d2f;"/>
		<path d="M 247.320723 78.806518 Q 247.300347 78.967678 247.596733 78.965826 Q 251.899895 78.934335 261.137893 78.951007 Q 261.015634 79.041775 260.985995 79.149215 Q 260.961914 79.238131 261.052682 79.360391 C 261.321282 79.719759 261.582473 80.118029 261.87886 80.436644 Q 263.038472 81.677763 264.155479 82.959635 Q 270.659311 90.419313 277.124242 97.769699 Q 277.744802 98.473618 278.239397 98.458798 Q 277.215011 100.444588 276.292508 102.169187 Q 258.859422 134.755035 258.811259 134.843951 Q 256.279006 139.463876 252.475997 146.617906 C 250.962573 149.466922 248.734117 151.348976 245.368277 151.673149 L 245.47016 80.47184 L 246.874291 78.995465 Q 247.046566 78.87691 247.320723 78.806518 Z" style="fill:#94ccbf;"/>
		<path d="M 245.47016 80.47184 L 245.368277 151.673149 Q 242.876778 151.902849 240.774286 150.467226 Q 238.973737 149.237222 237.752995 147.147697 Q 236.98239 145.825072 235.54862 143.142774 Q 230.92499 134.493844 224.906491 123.407135 Q 221.744417 117.58314 213.71049 102.484098 C 216.841072 101.129982 219.827167 99.409088 222.709526 97.714127 Q 229.192981 93.900003 235.574554 89.917309 Q 240.090744 87.099784 243.456584 82.94111 Q 244.436512 81.72963 245.47016 80.47184 Z" style="fill:#f76956;"/>
	</g>
	<g id="surface4">
	</g>
</svg>
