<?xml version="1.0" encoding="utf-8"?>
<svg xmlns="http://www.w3.org/2000/svg" width="490pt" height="280pt" viewBox="0 0 490 280" version="1.1" xmlns:xlink="http://www.w3.org/1999/xlink">
	<g id="surface2">
		<path vector-effect="non-scaling-stroke" d="M 272.750669 9.213558 Q 272.737113 9.254224 272.780039 9.317482 Q 272.807149 9.355889 272.859112 9.383 C 275.671856 10.73628 279.345367 12.146041 279.209813 15.982217 C 279.133 18.12171 278.263195 20.29961 277.339169 22.143144 Q 274.273391 28.243071 269.752667 33.852744 C 268.677273 35.185691 267.260734 36.597711 266.011379 37.860622 C 265.900676 37.971324 265.864529 38.138508 265.923269 38.285358 C 266.277968 39.182273 266.788555 40.506183 266.704963 41.45732 Q 266.671075 41.823315 266.695926 42.171237" style="fill:none;stroke-width:0.50;stroke:#d77c35;"/>
		<path vector-effect="non-scaling-stroke" d="M 266.695926 42.171237 Q 266.395448 42.975524 265.789974 43.348297" style="fill:none;stroke-width:0.50;stroke:#a6542b;"/>
		<path vector-effect="non-scaling-stroke" d="M 265.789974 43.348297 C 265.143834 41.80976 264.520286 40.01593 263.862849 38.743982 C 262.188758 35.501984 259.335348 32.732165 255.82676 31.527994 Q 255.040547 31.259146 254.123299 30.92252" style="fill:none;stroke-width:0.50;stroke:#d77c35;"/>
		<path vector-effect="non-scaling-stroke" d="M 254.123299 30.92252 Q 255.932944 30.371267 256.999301 29.078986 Q 258.056622 27.800261 258.447469 26.428907 C 258.73891 25.409993 258.716318 24.138046 257.618331 23.672644 C 256.373494 23.143983 254.699403 23.875975 253.705341 24.770631 Q 252.557651 25.807618 251.949917 27.061492 Q 251.818882 27.3326 251.827919 27.032122 C 251.888918 25.276699 251.355739 21.47667 248.753104 22.310327 C 247.298158 22.777988 245.944878 24.386561 245.178999 25.678842 C 245.151888 25.726286 245.081852 25.724027 245.054741 25.674323 Q 244.128456 23.914382 242.510845 22.784765 Q 240.857087 21.630298 239.661953 23.204983 C 238.615929 24.580855 238.5843 26.578016 238.765038 28.283737 Q 238.765038 28.292774 238.758261 28.295033 Q 238.73115 28.310847 238.690484 28.301811 C 238.663373 28.295033 238.64304 28.2747 238.634003 28.247589 C 238.048862 26.498943 237.106762 24.994295 235.550151 24.052195 C 233.889615 23.046836 231.811122 23.6252 231.881158 25.818914 C 231.930861 27.321304 232.75774 28.972803 233.67047 30.06853 Q 234.34598 30.881854 235.294858 31.164258" style="fill:none;stroke-width:0.50;stroke:#803d2d;"/>
		<path vector-effect="non-scaling-stroke" d="M 235.294858 31.164258 Q 233.469398 31.516698 232.143229 31.948211 C 229.165561 32.915163 226.632961 35.443244 225.347458 38.260506 Q 224.281101 40.594293 223.906068 43.628442" style="fill:none;stroke-width:0.50;stroke:#d77c35;"/>
		<path vector-effect="non-scaling-stroke" d="M 223.906068 43.628442 Q 223.092744 43.041042 222.656713 42.236755" style="fill:none;stroke-width:0.50;stroke:#a6542b;"/>
		<path vector-effect="non-scaling-stroke" d="M 222.656713 42.236755 Q 222.530196 40.28026 223.117596 38.42543 C 223.146966 38.330542 223.113077 38.226618 223.031745 38.165618 Q 220.020189 35.92446 217.539552 33.125271 C 214.525736 29.729645 211.773991 25.814396 210.007271 21.59415 C 208.588474 18.205302 207.766113 14.346533 208.936395 10.826649 Q 209.09906 10.334137 209.548647 9.821291 Q 209.928198 9.385259 210.328082 8.924376" style="fill:none;stroke-width:0.50;stroke:#d77c35;"/>
		<path vector-effect="non-scaling-stroke" d="M 265.789974 43.348297 Q 265.426238 44.206805 265.193537 44.608949 Q 260.817404 52.134451 257.638664 60.561387 Q 256.197274 64.388527 255.752205 65.588179 Q 254.995363 67.635043 254.389888 68.857288 C 253.542676 70.567527 252.381431 72.189656 251.150149 73.780155" style="fill:none;stroke-width:0.50;stroke:#bb8633;"/>
		<path vector-effect="non-scaling-stroke" d="M 251.150149 73.780155 Q 249.64776 75.549134 247.668672 76.744268" style="fill:none;stroke-width:0.50;stroke:#867a44;"/>
		<path vector-effect="non-scaling-stroke" d="M 242.99658 76.615492 Q 241.076233 75.562689 239.508326 73.667193" style="fill:none;stroke-width:0.50;stroke:#867a44;"/>
		<path vector-effect="non-scaling-stroke" d="M 239.508326 73.667193 Q 237.262649 70.447788 236.273105 67.926484 Q 233.87606 61.803965 232.947515 59.680287 Q 229.222041 51.162981 223.906068 43.628442" style="fill:none;stroke-width:0.50;stroke:#bb8633;"/>
		<path vector-effect="non-scaling-stroke" d="M 239.508326 73.667193 L 238.728891 73.868265" style="fill:none;stroke-width:0.50;stroke:#55523a;"/>
		<path vector-effect="non-scaling-stroke" d="M 285.009263 32.935496 Q 283.233506 33.301491 282.108408 33.644895 Q 279.320516 34.496625 275.764484 35.813758 C 272.109047 37.167038 268.959677 38.884054 266.695926 42.171237" style="fill:none;stroke-width:0.50;stroke:#bb8633;"/>
		<path vector-effect="non-scaling-stroke" d="M 222.656713 42.236755 C 220.040522 39.80808 216.672006 37.876437 213.481971 36.500564 C 209.114875 34.616365 204.408894 33.003273 199.630618 31.909804 Q 199.09518 31.787806 199.540249 32.110876 Q 200.134427 32.546908 200.934195 32.949051 Q 206.516758 35.764055 209.076468 37.155742 C 213.165678 39.381085 217.254888 42.324865 220.960029 45.474235 C 221.100102 45.593974 221.181434 45.770194 221.181434 45.953192 Q 221.181434 48.099462 221.292136 49.473076 C 221.730427 54.834234 223.786329 60.260909 226.693961 64.874262 Q 228.340941 67.490453 230.887096 69.810684 Q 234.339202 72.960054 238.728891 73.868265" style="fill:none;stroke-width:0.50;stroke:#bb8633;"/>
		<path vector-effect="non-scaling-stroke" d="M 238.728891 73.868265 Q 238.089528 74.164225 237.34624 74.317852 Q 235.373931 74.726773 233.43325 74.774217" style="fill:none;stroke-width:0.50;stroke:#867a44;"/>
		<path vector-effect="non-scaling-stroke" d="M 229.673888 74.70644 Q 229.527038 74.631886 229.319188 74.668033" style="fill:none;stroke-width:0.50;stroke:#d77c35;"/>
		<path vector-effect="non-scaling-stroke" d="M 251.687847 73.870524 Q 251.574885 73.917968 251.150149 73.780155" style="fill:none;stroke-width:0.50;stroke:#55523a;"/>
		<path vector-effect="non-scaling-stroke" d="M 254.123299 30.92252 Q 253.908672 31.006112 253.504269 30.886372 Q 253.158607 30.782448 252.907832 30.782448 Q 245.662474 30.773411 238.417117 30.920261 Q 236.930542 30.95189 235.294858 31.164258" style="fill:none;stroke-width:0.50;stroke:#956f35;"/>
		<path vector-effect="non-scaling-stroke" d="M 257.810366 74.790032 Q 255.652799 74.742588 254.048744 74.509887 Q 253.099867 74.369815 251.687847 73.870524" style="fill:none;stroke-width:0.50;stroke:#867a44;"/>
		<path vector-effect="non-scaling-stroke" d="M 251.687847 73.870524 Q 255.26873 73.475159 257.984327 71.491553 C 260.837737 69.408541 263.067599 66.598056 264.74395 63.588759 C 267.226846 59.135812 268.801531 54.334943 269.228525 49.231338 C 269.325672 48.07687 269.298562 46.549629 269.341487 45.424532 C 269.36182 44.891353 269.5403 44.758058 269.940184 44.389803 Q 273.412624 41.19299 276.487439 38.570021 Q 278.10279 37.191889 279.770103 36.322085" style="fill:none;stroke-width:0.50;stroke:#bb8633;"/>
		<path vector-effect="non-scaling-stroke" d="M 246.918607 103.981571 L 246.923126 104.826524" style="fill:none;stroke-width:0.50;stroke:#2f3b3c;"/>
		<path vector-effect="non-scaling-stroke" d="M 246.934422 128.629795 Q 246.835016 127.513734 246.82372 129.499599 Q 246.753683 142.343334 246.776276 147.912342 Q 246.785313 150.033761 246.859867 152.157439 Q 246.864386 152.277178 246.76498 152.338178 L 246.554871 152.473732" style="fill:none;stroke-width:0.50;stroke:#55523a;"/>
		<path vector-effect="non-scaling-stroke" d="M 243.166023 152.475991 Q 243.20217 152.473732 243.23154 152.466954 Q 243.306095 152.451139 243.301577 152.376585 L 243.186356 150.519496" style="fill:none;stroke-width:0.50;stroke:#55523a;"/>
		<path vector-effect="non-scaling-stroke" d="M 243.166023 152.475991 Q 243.227022 152.048996 243.136653 151.633297" style="fill:none;stroke-width:0.50;stroke:#55523a;"/>
		<path d="M 272.750669 9.213558 Q 272.737113 9.254224 272.780039 9.317482 Q 272.807149 9.355889 272.859112 9.383 C 275.671856 10.73628 279.345367 12.146041 279.209813 15.982217 C 279.133 18.12171 278.263195 20.29961 277.339169 22.143144 Q 274.273391 28.243071 269.752667 33.852744 C 268.677273 35.185691 267.260734 36.597711 266.011379 37.860622 C 265.900676 37.971324 265.864529 38.138508 265.923269 38.285358 C 266.277968 39.182273 266.788555 40.506183 266.704963 41.45732 Q 266.671075 41.823315 266.695926 42.171237 Q 266.395448 42.975524 265.789974 43.348297 C 265.143834 41.80976 264.520286 40.01593 263.862849 38.743982 C 262.188758 35.501984 259.335348 32.732165 255.82676 31.527994 Q 255.040547 31.259146 254.123299 30.92252 Q 255.932944 30.371267 256.999301 29.078986 Q 258.056622 27.800261 258.447469 26.428907 C 258.73891 25.409993 258.716318 24.138046 257.618331 23.672644 C 256.373494 23.143983 254.699403 23.875975 253.705341 24.770631 Q 252.557651 25.807618 251.949917 27.061492 Q 251.818882 27.3326 251.827919 27.032122 C 251.888918 25.276699 251.355739 21.47667 248.753104 22.310327 C 247.298158 22.777988 245.944878 24.386561 245.178999 25.678842 C 245.151888 25.726286 245.081852 25.724027 245.054741 25.674323 Q 244.128456 23.914382 242.510845 22.784765 Q 240.857087 21.630298 239.661953 23.204983 C 238.615929 24.580855 238.5843 26.578016 238.765038 28.283737 Q 238.765038 28.292774 238.758261 28.295033 Q 238.73115 28.310847 238.690484 28.301811 C 238.663373 28.295033 238.64304 28.2747 238.634003 28.247589 C 238.048862 26.498943 237.106762 24.994295 235.550151 24.052195 C 233.889615 23.046836 231.811122 23.6252 231.881158 25.818914 C 231.930861 27.321304 232.75774 28.972803 233.67047 30.06853 Q 234.34598 30.881854 235.294858 31.164258 Q 233.469398 31.516698 232.143229 31.948211 C 229.165561 32.915163 226.632961 35.443244 225.347458 38.260506 Q 224.281101 40.594293 223.906068 43.628442 Q 223.092744 43.041042 222.656713 42.236755 Q 222.530196 40.28026 223.117596 38.42543 C 223.146966 38.330542 223.113077 38.226618 223.031745 38.165618 Q 220.020189 35.92446 217.539552 33.125271 C 214.525736 29.729645 211.773991 25.814396 210.007271 21.59415 C 208.588474 18.205302 207.766113 14.346533 208.936395 10.826649 Q 209.09906 10.334137 209.548647 9.821291 Q 209.928198 9.385259 210.328082 8.924376 Q 212.363651 7.370024 214.975323 6.825549 Q 215.246431 6.769068 215.998755 6.760031 Q 216.540971 6.753254 216.703636 6.972399 C 216.997336 7.367765 216.922781 8.312124 216.9273 8.996671 C 216.9273 9.0893 217.017669 9.154818 217.105779 9.127707 Q 217.381405 9.044115 217.763216 8.861117 Q 220.395221 7.591429 223.205706 7.060509 Q 224.791687 6.760031 226.07719 6.967881 C 227.450803 7.189285 228.661752 7.451356 229.714554 8.212718 Q 231.237277 9.317482 232.145488 11.12035 C 232.206487 11.242348 232.380448 11.233311 232.43241 11.109053 C 234.305314 6.493442 238.164083 4.638612 243.014654 4.555021 Q 248.152148 4.466911 249.313393 4.591168 Q 251.773697 4.855499 253.375493 5.756932 C 255.106065 6.728402 256.545196 9.032819 257.173262 10.953166 C 257.222965 11.106794 257.426296 11.136164 257.518925 11.005129 Q 258.198954 10.042696 258.70954 9.437222 Q 260.008599 7.898684 262.019315 7.218656 Q 262.459866 7.069546 262.832639 7.033398 C 263.218968 6.994992 263.571408 6.827808 263.937404 6.821031 Q 265.175463 6.796179 266.551335 7.107953 Q 269.551596 7.785723 272.357562 9.152558 Q 272.527005 9.233891 272.750669 9.213558 Z" style="fill:#c24a2d;"/>
		<path d="M 285.009263 32.935496 Q 283.233506 33.301491 282.108408 33.644895 Q 279.320516 34.496625 275.764484 35.813758 C 272.109047 37.167038 268.959677 38.884054 266.695926 42.171237 Q 266.671075 41.823315 266.704963 41.45732 C 266.788555 40.506183 266.277968 39.182273 265.923269 38.285358 C 265.864529 38.138508 265.900676 37.971324 266.011379 37.860622 C 267.260734 36.597711 268.677273 35.185691 269.752667 33.852744 Q 274.273391 28.243071 277.339169 22.143144 C 278.263195 20.29961 279.133 18.12171 279.209813 15.982217 C 279.345367 12.146041 275.671856 10.73628 272.859112 9.383 Q 272.807149 9.355889 272.780039 9.317482 Q 272.737113 9.254224 272.750669 9.213558 L 272.893 6.850401 C 272.906556 6.642551 273.078257 6.482146 273.286107 6.484405 C 275.809669 6.520553 277.969495 7.478467 279.998285 8.888228 C 283.805092 11.529271 287.306902 15.216338 288.949363 19.495323 C 290.280051 22.965504 290.191941 27.104417 288.334852 30.409674 Q 287.799414 31.360811 286.986091 31.941434 Q 286.064324 32.596611 285.009263 32.935496 Z" style="fill:#ecae3d;"/>
		<path d="M 210.328082 8.924376 Q 209.928198 9.385259 209.548647 9.821291 Q 209.09906 10.334137 208.936395 10.826649 C 207.766113 14.346533 208.588474 18.205302 210.007271 21.59415 C 211.773991 25.814396 214.525736 29.729645 217.539552 33.125271 Q 220.020189 35.92446 223.031745 38.165618 C 223.113077 38.226618 223.146966 38.330542 223.117596 38.42543 Q 222.530196 40.28026 222.656713 42.236755 C 220.040522 39.80808 216.672006 37.876437 213.481971 36.500564 C 209.114875 34.616365 204.408894 33.003273 199.630618 31.909804 Q 199.09518 31.787806 199.540249 32.110876 Q 200.134427 32.546908 200.934195 32.949051 Q 206.516758 35.764055 209.076468 37.155742 C 213.165678 39.381085 217.254888 42.324865 220.960029 45.474235 C 221.100102 45.593974 221.181434 45.770194 221.181434 45.953192 Q 221.181434 48.099462 221.292136 49.473076 C 221.730427 54.834234 223.786329 60.260909 226.693961 64.874262 Q 228.340941 67.490453 230.887096 69.810684 Q 234.339202 72.960054 238.728891 73.868265 Q 238.089528 74.164225 237.34624 74.317852 Q 235.373931 74.726773 233.43325 74.774217 L 229.673888 74.70644 Q 229.527038 74.631886 229.319188 74.668033 Q 228.22572 74.620589 227.733207 74.555072 C 217.686402 73.256013 208.258626 68.714956 200.581755 62.190294 Q 195.988735 58.284081 192.633776 53.367992 C 189.468591 48.727529 187.132545 42.440086 188.302827 36.794264 C 188.770489 34.535032 190.257063 32.228356 192.595369 31.613845 C 194.44568 31.12811 196.779467 31.302071 198.693036 31.880434 Q 199.203623 32.034062 198.91896 31.584475 Q 197.249387 28.959247 197.746418 25.622361 C 198.141784 22.954208 199.370806 20.717568 200.945491 18.334078 Q 203.532312 14.41431 207.079306 11.303347 C 208.062072 10.44258 209.209762 9.697033 210.328082 8.924376 Z" style="fill:#ecae3d;"/>
		<path d="M 254.123299 30.92252 Q 253.908672 31.006112 253.504269 30.886372 Q 253.158607 30.782448 252.907832 30.782448 Q 245.662474 30.773411 238.417117 30.920261 Q 236.930542 30.95189 235.294858 31.164258 Q 234.34598 30.881854 233.67047 30.06853 C 232.75774 28.972803 231.930861 27.321304 231.881158 25.818914 C 231.811122 23.6252 233.889615 23.046836 235.550151 24.052195 C 237.106762 24.994295 238.048862 26.498943 238.634003 28.247589 C 238.64304 28.2747 238.663373 28.295033 238.690484 28.301811 Q 238.73115 28.310847 238.758261 28.295033 Q 238.765038 28.292774 238.765038 28.283737 C 238.5843 26.578016 238.615929 24.580855 239.661953 23.204983 Q 240.857087 21.630298 242.510845 22.784765 Q 244.128456 23.914382 245.054741 25.674323 C 245.081852 25.724027 245.151888 25.726286 245.178999 25.678842 C 245.944878 24.386561 247.298158 22.777988 248.753104 22.310327 C 251.355739 21.47667 251.888918 25.276699 251.827919 27.032122 Q 251.818882 27.3326 251.949917 27.061492 Q 252.557651 25.807618 253.705341 24.770631 C 254.699403 23.875975 256.373494 23.143983 257.618331 23.672644 C 258.716318 24.138046 258.73891 25.409993 258.447469 26.428907 Q 258.056622 27.800261 256.999301 29.078986 Q 255.932944 30.371267 254.123299 30.92252 Z" style="fill:#3e302d;"/>
		<path d="M 254.123299 30.92252 Q 255.040547 31.259146 255.82676 31.527994 C 259.335348 32.732165 262.188758 35.501984 263.862849 38.743982 C 264.520286 40.01593 265.143834 41.80976 265.789974 43.348297 Q 265.426238 44.206805 265.193537 44.608949 Q 260.817404 52.134451 257.638664 60.561387 Q 256.197274 64.388527 255.752205 65.588179 Q 254.995363 67.635043 254.389888 68.857288 C 253.542676 70.567527 252.381431 72.189656 251.150149 73.780155 Q 249.64776 75.549134 247.668672 76.744268 Q 246.667833 77.062819 246.378651 77.137374 Q 244.819781 77.541777 242.99658 76.615492 Q 241.076233 75.562689 239.508326 73.667193 Q 237.262649 70.447788 236.273105 67.926484 Q 233.87606 61.803965 232.947515 59.680287 Q 229.222041 51.162981 223.906068 43.628442 Q 224.281101 40.594293 225.347458 38.260506 C 226.632961 35.443244 229.165561 32.915163 232.143229 31.948211 Q 233.469398 31.516698 235.294858 31.164258 Q 236.930542 30.95189 238.417117 30.920261 Q 245.662474 30.773411 252.907832 30.782448 Q 253.158607 30.782448 253.504269 30.886372 Q 253.908672 31.006112 254.123299 30.92252 Z" style="fill:#ecae3d;"/>
		<path d="M 257.810366 74.790032 Q 255.652799 74.742588 254.048744 74.509887 Q 253.099867 74.369815 251.687847 73.870524 Q 255.26873 73.475159 257.984327 71.491553 C 260.837737 69.408541 263.067599 66.598056 264.74395 63.588759 C 267.226846 59.135812 268.801531 54.334943 269.228525 49.231338 C 269.325672 48.07687 269.298562 46.549629 269.341487 45.424532 C 269.36182 44.891353 269.5403 44.758058 269.940184 44.389803 Q 273.412624 41.19299 276.487439 38.570021 Q 278.10279 37.191889 279.770103 36.322085 Q 282.185222 35.389022 286.082398 33.708153 C 289.308581 32.316466 293.061166 31.121332 296.590087 31.462476 Q 297.577371 31.559623 298.655025 32.063432 C 300.069304 32.725387 301.280253 34.650253 301.725322 36.04194 C 302.674199 39.001534 302.459572 42.374568 301.549102 45.338681 C 299.131723 53.19855 293.174128 59.824878 286.57717 64.582821 C 280.624093 68.877621 274.436056 71.923066 267.493435 73.730452 Q 263.950959 74.652219 260.162227 74.85329 Q 259.016796 74.91203 257.810366 74.790032 Z" style="fill:#ecae3d;"/>
		<path d="M 222.656713 42.236755 Q 223.092744 43.041042 223.906068 43.628442 Q 229.222041 51.162981 232.947515 59.680287 Q 233.87606 61.803965 236.273105 67.926484 Q 237.262649 70.447788 239.508326 73.667193 L 238.728891 73.868265 Q 234.339202 72.960054 230.887096 69.810684 Q 228.340941 67.490453 226.693961 64.874262 C 223.786329 60.260909 221.730427 54.834234 221.292136 49.473076 Q 221.181434 48.099462 221.181434 45.953192 C 221.181434 45.770194 221.100102 45.593974 220.960029 45.474235 C 217.254888 42.324865 213.165678 39.381085 209.076468 37.155742 Q 206.516758 35.764055 200.934195 32.949051 Q 200.134427 32.546908 199.540249 32.110876 Q 199.09518 31.787806 199.630618 31.909804 C 204.408894 33.003273 209.114875 34.616365 213.481971 36.500564 C 216.672006 37.876437 220.040522 39.80808 222.656713 42.236755 Z" style="fill:#8a5e29;"/>
		<path d="M 285.009263 32.935496 Q 282.164889 34.30685 279.770103 36.322085 Q 278.10279 37.191889 276.487439 38.570021 Q 273.412624 41.19299 269.940184 44.389803 C 269.5403 44.758058 269.36182 44.891353 269.341487 45.424532 C 269.298562 46.549629 269.325672 48.07687 269.228525 49.231338 C 268.801531 54.334943 267.226846 59.135812 264.74395 63.588759 C 263.067599 66.598056 260.837737 69.408541 257.984327 71.491553 Q 255.26873 73.475159 251.687847 73.870524 Q 251.574885 73.917968 251.150149 73.780155 C 252.381431 72.189656 253.542676 70.567527 254.389888 68.857288 Q 254.995363 67.635043 255.752205 65.588179 Q 256.197274 64.388527 257.638664 60.561387 Q 260.817404 52.134451 265.193537 44.608949 Q 265.426238 44.206805 265.789974 43.348297 Q 266.395448 42.975524 266.695926 42.171237 C 268.959677 38.884054 272.109047 37.167038 275.764484 35.813758 Q 279.320516 34.496625 282.108408 33.644895 Q 283.233506 33.301491 285.009263 32.935496 Z" style="fill:#8a5e29;"/>
		<path d="M 239.508326 73.667193 Q 241.076233 75.562689 242.99658 76.615492 Q 243.080172 76.931784 243.125356 77.225484 Q 243.181837 77.609554 243.251873 77.833218 Q 243.744386 79.423717 244.44023 81.158807 Q 244.444748 81.170104 244.937261 82.191277 Q 245.569846 83.508409 245.361996 84.945281 Q 244.925965 87.934245 244.774596 88.896678 Q 243.715016 95.649523 242.336884 100.696648 Q 242.309774 100.798313 242.266848 100.89546 C 242.122257 101.22079 242.17196 101.532564 241.986703 101.860152 C 241.912149 101.991188 241.726892 102.000225 241.6433 101.875967 Q 238.166342 96.756547 237.551831 90.430697 Q 237.357537 88.429017 237.46598 85.946121 Q 237.470498 85.835418 237.391425 85.756345 Q 234.890455 83.293782 233.672729 80.139894 Q 233.442287 79.541197 233.381288 79.021574 C 233.322548 78.497432 233.159883 78.09077 233.144069 77.489814 Q 233.11018 76.132016 233.43325 74.774217 Q 235.373931 74.726773 237.34624 74.317852 Q 238.089528 74.164225 238.728891 73.868265 L 239.508326 73.667193 Z" style="fill:#20464b;"/>
		<path d="M 251.150149 73.780155 Q 251.574885 73.917968 251.687847 73.870524 Q 253.099867 74.369815 254.048744 74.509887 Q 255.652799 74.742588 257.810366 74.790032 Q 258.544616 78.12014 256.976709 81.136215 Q 256.059461 82.898416 254.609034 84.581544 Q 253.951597 85.345165 253.154088 85.867047 Q 253.043386 85.939343 253.047904 86.070378 Q 253.102126 87.701544 253.036608 89.719038 Q 253.023053 90.159589 252.91235 90.742471 C 252.828759 91.187539 252.8265 91.680052 252.740649 92.116084 Q 251.997361 95.934186 251.184038 98.227307 Q 250.61923 99.820066 249.7065 101.408306 Q 249.302097 102.113186 249.171062 101.311159 C 249.071656 100.707944 248.884139 100.206394 248.766659 99.614475 Q 247.962373 95.538821 247.060939 91.610016 Q 246.73561 90.191218 245.904212 85.59368 C 245.804806 85.044687 245.82288 84.140994 245.49981 83.395447 Q 245.454625 83.291523 245.49755 83.187598 Q 246.516464 80.749886 247.379491 78.257953 Q 247.487934 77.941661 247.668672 76.744268 Q 249.64776 75.549134 251.150149 73.780155 Z" style="fill:#20464b;"/>
		<path d="M 229.673888 74.70644 L 229.319188 74.668033 Q 229.527038 74.631886 229.673888 74.70644 Z" style="fill:#c24a2d;"/>
		<path d="M 246.918607 103.981571 L 246.923126 104.826524 L 246.929904 117.451114 Q 246.929904 117.803554 247.160345 117.536965 Q 248.520403 115.964539 250.250975 113.610419 Q 251.010077 112.57795 252.189396 110.598863 Q 253.036608 109.175546 254.078114 107.548899 C 256.260533 104.137458 258.935463 101.537082 262.227165 99.149074 Q 266.146933 96.3047 270.819025 93.785656 C 270.988467 93.695287 271.250538 93.444512 271.528424 93.349625 Q 271.749829 93.272811 271.842457 93.223108 Q 276.458069 90.769581 278.92515 89.913332 Q 279.492217 89.716779 281.441935 89.174563 Q 281.909596 89.045787 282.273332 89.025454 C 282.684513 89.005121 282.978213 88.835679 283.378097 88.815345 Q 283.906757 88.785975 284.803672 88.612015 C 284.89856 88.593941 284.988929 88.668495 284.984411 88.765642 C 284.961819 89.393709 284.921152 90.245439 284.742673 90.986468 Q 284.277271 92.94974 284.055867 93.530363 C 281.905077 99.167147 277.709683 104.160051 273.026295 107.908117 Q 270.190958 110.178645 267.708062 111.620035 Q 264.457027 113.506494 262.392089 114.437298 Q 259.046166 115.946465 257.376593 116.429941 Q 256.782415 116.601643 253.725674 117.523409 Q 249.476058 118.806653 247.219085 122.667681 C 247.042865 122.970418 246.936681 123.218934 246.936681 123.587189 Q 246.934422 126.124306 246.934422 128.629795 Q 246.835016 127.513734 246.82372 129.499599 Q 246.753683 142.343334 246.776276 147.912342 Q 246.785313 150.033761 246.859867 152.157439 Q 246.864386 152.277178 246.76498 152.338178 L 246.554871 152.473732 L 243.166023 152.475991 Q 243.20217 152.473732 243.23154 152.466954 Q 243.306095 152.451139 243.301577 152.376585 L 243.186356 150.519496 C 243.184096 142.365927 243.111801 134.20558 243.217985 126.05427 C 243.236059 124.64225 243.256392 123.135342 242.754842 121.895024 C 241.894075 119.762308 239.783952 118.296067 237.682866 117.602482 Q 235.929702 117.02186 234.300795 116.63779 Q 232.741925 116.271795 231.63942 115.894503 Q 227.852947 114.60674 224.346618 112.620875 Q 218.827314 109.496357 214.250109 105.099891 Q 210.587894 101.580007 208.043999 97.255837 Q 205.735063 93.331551 205.486548 88.849234 C 205.477511 88.711421 205.585954 88.593941 205.723767 88.591681 Q 206.645534 88.571348 207.881334 88.971232 Q 207.98074 89.002862 208.448401 89.059343 Q 209.840088 89.231044 211.927619 90.091812 Q 215.524316 91.576127 217.532774 92.753187 Q 219.186532 93.722398 219.920782 94.133578 Q 220.960029 94.71646 222.259088 95.545598 Q 224.500246 96.975692 224.674207 97.075098 Q 225.794786 97.721239 226.447704 98.254418 C 227.125474 98.80793 228.035944 99.237184 228.774713 99.797473 Q 229.127154 100.064063 231.323127 101.695228 Q 235.177378 104.557676 238.057899 109.069362 Q 239.011295 110.562715 240.075393 112.25488 Q 241.110121 113.897342 242.973988 116.111389 Q 243.339984 116.547421 243.315132 115.978094 Q 243.134393 111.676516 243.179578 105.610478 Q 243.184096 104.998226 243.403242 104.507972 Q 243.931902 103.321876 244.126196 102.682513 Q 244.944038 99.998545 245.578883 97.285207 Q 245.662474 96.935026 245.901953 97.140616 Q 245.922286 97.156431 245.962952 97.366539 Q 246.376392 99.447292 246.378651 99.463107 Q 246.828238 101.326973 247.849411 105.122484 Q 247.878781 105.233186 247.770338 105.267074 L 247.686746 105.294185 C 247.673191 105.298704 247.659636 105.289667 247.655117 105.276111 L 247.08805 103.464207 Q 247.02705 103.269913 246.9412 103.452911 Q 246.844053 103.658501 246.918607 103.981571 Z" style="fill:#20464b;"/>
		<path d="M 246.923126 104.826524 L 246.918607 103.981571 L 246.923126 104.826524 Z" style="fill:#3e302d;"/>
		<path d="M 246.934422 128.629795 L 246.972829 152.335918 Q 246.972829 152.453399 246.864386 152.498583 Q 246.746906 152.548286 246.554871 152.473732 L 246.76498 152.338178 Q 246.864386 152.277178 246.859867 152.157439 Q 246.785313 150.033761 246.776276 147.912342 Q 246.753683 142.343334 246.82372 129.499599 Q 246.835016 127.513734 246.934422 128.629795 Z" style="fill:#8a5e29;"/>
		<path d="M 243.166023 152.475991 Q 243.227022 152.048996 243.136653 151.633297 L 243.186356 150.519496 L 243.301577 152.376585 Q 243.306095 152.451139 243.23154 152.466954 Q 243.20217 152.473732 243.166023 152.475991 Z" style="fill:#8a5e29;"/>
		<path d="M 243.136653 151.633297 Q 243.227022 152.048996 243.166023 152.475991 Q 243.082431 152.073848 243.136653 151.633297 Z" style="fill:#20464b;"/>
	</g>
	<g id="surface4">
	</g>
</svg>
