<?xml version="1.0" encoding="utf-8"?>
<svg xmlns="http://www.w3.org/2000/svg" width="490pt" height="280pt" viewBox="0 0 490 280" version="1.1" xmlns:xlink="http://www.w3.org/1999/xlink">
	<g id="surface2">
		<path d="M 228.908928 83.470238 Q 229.008016 83.24796 228.764313 83.253316 C 221.322006 83.424711 212.762952 83.349726 196.732133 83.376506 C 193.716647 83.381862 192.401723 80.802898 193.256022 78.114134 Q 194.094252 75.478931 196.480396 67.819702 Q 201.351773 52.193269 208.001376 31.344634 Q 208.80747 28.819231 209.608207 26.232233 Q 213.676168 13.077642 215.462429 7.783133 Q 216.003395 6.184336 217.500426 5.648726 Q 218.298486 5.364852 220.207937 5.364852 Q 283.873266 5.346106 294.26143 5.36753 C 295.490656 5.370208 296.50296 6.205761 296.741306 7.437664 C 296.963584 8.599939 296.623472 9.363184 295.903076 10.380844 Q 293.795449 13.372228 291.184348 17.28754 Q 281.138975 32.351582 276.674663 38.995829 Q 271.768472 46.293521 265.981201 55.21679 C 265.555391 55.870234 264.743941 56.861114 264.253858 57.806466 C 264.189584 57.932334 264.280638 58.082305 264.422575 58.082305 Q 276.302413 57.951081 287.7859 57.988574 Q 292.866165 58.00732 294.48103 57.940369 C 295.528149 57.89752 296.510994 58.245667 296.896633 59.284751 Q 297.509907 60.931753 296.272647 62.150266 Q 267.363076 90.615281 253.509513 104.849127 Q 250.839495 107.591452 249.757562 108.670707 Q 232.561791 125.863801 213.046826 145.900986 Q 211.177546 147.821149 207.238131 152.079252 C 206.054432 153.35936 204.643099 154.039586 203.357634 152.363125 C 202.816667 151.661476 203.148746 150.456352 203.403161 149.789517 C 211.860449 127.545617 220.14902 105.349923 227.733263 86.333076 Q 228.611664 84.126361 228.908928 83.470238 Z" style="fill:#fac524;"/>
	</g>
	<g id="surface4">
	</g>
</svg>
