<?xml version="1.0" encoding="utf-8"?>
<svg xmlns="http://www.w3.org/2000/svg" width="490pt" height="280pt" viewBox="0 0 490 280" version="1.1" xmlns:xlink="http://www.w3.org/1999/xlink">
	<g id="surface2">
		<path vector-effect="non-scaling-stroke" d="M 316.954628 63.575772 Q 316.521535 63.596201 316.084356 63.453198 Q 313.238604 62.523682 310.398982 61.714696" style="fill:none;stroke-width:0.50;stroke:#efd8a0;"/>
		<path vector-effect="non-scaling-stroke" d="M 310.398982 61.714696 Q 307.865793 60.341871 305.214117 59.344939 C 295.073191 55.52677 283.692229 54.875087 273.285727 58.104902 C 270.337831 59.020118 267.465522 60.386815 265.097808 62.031344 Q 263.633053 63.046663 260.151961 66.070146 C 257.810805 68.104868 255.271488 69.733054 252.427779 70.403124 C 248.899701 71.234582 245.735259 71.161037 241.422709 71.248882" style="fill:none;stroke-width:0.50;stroke:#e3af81;"/>
		<path vector-effect="non-scaling-stroke" d="M 241.422709 71.248882 Q 240.44212 71.314254 240.098914 71.275439 C 234.654602 70.664614 228.775153 70.593113 223.508572 71.863793 Q 222.401323 72.131412 220.393159 72.997599 C 220.244027 73.060929 220.160269 73.163073 220.033609 73.250918" style="fill:none;stroke-width:0.50;stroke:#eaca81;"/>
		<path vector-effect="non-scaling-stroke" d="M 220.033609 73.250918 Q 219.772119 73.203931 219.696532 73.167159 Q 213.753753 70.335708 207.465726 68.386787 Q 205.537234 67.790262 203.584227 67.40007" style="fill:none;stroke-width:0.50;stroke:#91a9a5;"/>
		<path vector-effect="non-scaling-stroke" d="M 203.584227 67.40007 Q 200.519886 66.881174 197.081696 66.05176 Q 191.308477 64.656463 186.652722 61.109999 Q 184.372852 59.373539 182.43006 57.271401 Q 182.293186 57.124313 181.796763 56.47263 Q 181.480114 56.053836 181.089921 55.729016" style="fill:none;stroke-width:0.50;stroke:#aad2c0;"/>
		<path vector-effect="non-scaling-stroke" d="M 181.089921 55.729016 Q 179.445392 52.650375 178.125682 49.424645 Q 177.884621 48.832206 177.692589 49.443032 Q 177.549586 49.894511 177.138965 50.56458" style="fill:none;stroke-width:0.50;stroke:#7d8c87;"/>
		<path vector-effect="non-scaling-stroke" d="M 177.138965 50.56458 Q 177.122621 50.562537 177.106278 50.560495" style="fill:none;stroke-width:0.50;stroke:#91a9a5;"/>
		<path vector-effect="non-scaling-stroke" d="M 181.089921 55.729016 C 182.624135 59.588043 184.722187 63.230523 186.744652 66.838274 C 191.198161 74.785131 196.141964 81.122188 202.358491 89.179362 C 207.402396 95.716623 212.88348 101.620587 219.28591 106.842224 Q 228.276687 114.176213 239.328743 118.398875 Q 244.431892 120.347796 248.501337 121.638905 Q 263.038571 126.247674 278.041584 129.218041 Q 287.067089 131.003531 296.325485 131.767573" style="fill:none;stroke-width:0.50;stroke:#316d6d;"/>
		<path vector-effect="non-scaling-stroke" d="M 176.975533 50.879186 Q 177.116493 50.78317 177.138965 50.56458" style="fill:none;stroke-width:0.50;stroke:#184452;"/>
		<path vector-effect="non-scaling-stroke" d="M 317.152789 64.143697 Q 315.326442 67.624788 313.751371 69.874014 Q 310.593057 74.380638 305.826985 77.888287 Q 302.952633 80.002683 300.470517 81.369379 Q 294.826001 84.478663 291.361253 86.57263" style="fill:none;stroke-width:0.50;stroke:#76744d;"/>
		<path vector-effect="non-scaling-stroke" d="M 291.361253 86.57263 Q 291.265237 86.219209 290.995575 86.192651 Q 289.236643 86.027177 287.496097 85.730957 Q 282.080385 84.807569 276.781118 83.187554" style="fill:none;stroke-width:0.50;stroke:#e3b247;"/>
		<path vector-effect="non-scaling-stroke" d="M 203.584227 67.40007 Q 203.57197 67.430713 203.563798 67.459313 Q 203.531112 67.58393 203.647557 67.641131 Q 208.207296 69.876057 211.45754 72.823953 Q 215.388068 76.390846 217.939643 81.467438 Q 219.287953 84.147714 220.60562 86.061906 Q 221.915115 87.961797 224.197027 90.731962 Q 231.005993 98.993425 240.378791 103.624666 Q 256.523782 111.600124 274.26223 107.504121 Q 280.384783 106.092482 285.959841 103.265116 Q 289.802525 101.316195 293.363289 99.028154 Q 293.831111 98.727849 294.376564 98.272283" style="fill:none;stroke-width:0.50;stroke:#448a8b;"/>
		<path vector-effect="non-scaling-stroke" d="M 294.376564 98.272283 Q 297.408219 96.525609 300.582876 94.709476 Q 303.375512 93.111933 308.055782 90.881093 Q 312.993457 88.525636 318.282509 87.073139" style="fill:none;stroke-width:0.50;stroke:#316d6d;"/>
		<path vector-effect="non-scaling-stroke" d="M 310.398982 61.714696 Q 310.413282 61.765768 310.36221 61.804583 Q 310.329523 61.829098 310.278451 61.825012 Q 305.522594 61.612551 301.173272 63.124292 C 297.322417 64.462388 294.160017 66.946547 291.563499 69.904658 Q 289.044611 72.776967 287.040532 74.830075 Q 282.97313 79.001664 278.055884 82.333625 Q 277.500217 82.709517 276.781118 83.187554" style="fill:none;stroke-width:0.50;stroke:#dc9747;"/>
		<path vector-effect="non-scaling-stroke" d="M 276.781118 83.187554 Q 275.739242 82.785104 274.646294 82.435769 Q 272.946606 81.892359 272.499213 81.735057 Q 264.104961 78.795332 255.888442 75.389828 Q 253.157092 74.258065 252.090702 73.884215 Q 246.885408 72.053782 241.357337 71.465429 C 241.283793 71.457257 241.259278 71.363284 241.320565 71.320383 L 241.422709 71.248882" style="fill:none;stroke-width:0.50;stroke:#d78928;"/>
		<path vector-effect="non-scaling-stroke" d="M 220.033609 73.250918 Q 220.060167 73.344891 220.172526 73.404135 Q 226.924291 76.952642 233.289948 81.375507 Q 236.254188 83.434744 243.122397 88.253931 Q 249.375696 92.642068 255.116228 95.849411 C 259.385876 98.235511 263.919058 100.131317 268.697387 100.983204 Q 270.456319 101.297809 271.553353 101.201793" style="fill:none;stroke-width:0.50;stroke:#85834c;"/>
		<path vector-effect="non-scaling-stroke" d="M 294.376564 98.272283 Q 285.177413 99.933156 276.02729 100.946432 Q 274.693281 101.09352 271.553353 101.201793" style="fill:none;stroke-width:0.50;stroke:#184452;"/>
		<path vector-effect="non-scaling-stroke" d="M 271.553353 101.201793 Q 274.258144 99.171157 280.376612 94.417342 Q 285.210099 90.66046 291.361253 86.57263" style="fill:none;stroke-width:0.50;stroke:#71662e;"/>
		<path vector-effect="non-scaling-stroke" d="M 244.489093 9.733258 C 237.269506 9.861961 229.723056 13.933448 226.930419 20.891545 C 223.943708 28.325636 228.174542 35.588125 235.024365 38.775039 C 238.149993 40.22958 241.610656 40.897606 245.048846 40.836319 C 248.48908 40.772989 251.923184 39.982389 254.993654 38.41549 C 261.72499 34.983428 265.690247 27.573851 262.43796 20.252119 C 259.396091 13.400253 251.708681 9.602513 244.489093 9.733258" style="fill:none;stroke-width:0.50;stroke:#f1d078;"/>
		<path d="M 316.954628 63.575772 Q 316.521535 63.596201 316.084356 63.453198 Q 313.238604 62.523682 310.398982 61.714696 Q 307.865793 60.341871 305.214117 59.344939 C 295.073191 55.52677 283.692229 54.875087 273.285727 58.104902 C 270.337831 59.020118 267.465522 60.386815 265.097808 62.031344 Q 263.633053 63.046663 260.151961 66.070146 C 257.810805 68.104868 255.271488 69.733054 252.427779 70.403124 C 248.899701 71.234582 245.735259 71.161037 241.422709 71.248882 Q 240.44212 71.314254 240.098914 71.275439 C 234.654602 70.664614 228.775153 70.593113 223.508572 71.863793 Q 222.401323 72.131412 220.393159 72.997599 C 220.244027 73.060929 220.160269 73.163073 220.033609 73.250918 Q 219.772119 73.203931 219.696532 73.167159 Q 213.753753 70.335708 207.465726 68.386787 Q 205.537234 67.790262 203.584227 67.40007 Q 200.519886 66.881174 197.081696 66.05176 Q 191.308477 64.656463 186.652722 61.109999 Q 184.372852 59.373539 182.43006 57.271401 Q 182.293186 57.124313 181.796763 56.47263 Q 181.480114 56.053836 181.089921 55.729016 Q 179.445392 52.650375 178.125682 49.424645 Q 177.884621 48.832206 177.692589 49.443032 Q 177.549586 49.894511 177.138965 50.56458 Q 177.122621 50.562537 177.106278 50.560495 Q 178.409645 47.208105 179.533236 44.801576 Q 180.442324 42.852656 181.520972 41.161139 C 182.993899 38.844498 184.217592 36.828161 185.688476 34.828168 Q 190.873341 27.780184 197.433073 22.047823 Q 198.080671 21.479899 200.575044 19.465605 C 203.620999 17.008004 206.93253 14.99371 210.335992 13.038661 Q 211.945792 12.11323 213.678166 11.33693 C 215.492256 10.523858 218.918189 8.959002 221.17763 8.178616 C 224.239928 7.118354 227.36147 6.147979 230.550428 5.55554 C 232.307316 5.23072 233.279734 4.999873 234.626001 4.854828 C 236.595351 4.644409 239.054995 4.217445 241.253149 4.1439 Q 246.613703 3.968212 251.079469 4.323675 C 254.826137 4.623981 258.871067 5.271578 262.609563 6.307325 Q 270.16827 8.403334 276.162121 11.155113 C 281.628906 13.665829 286.605395 16.914031 291.38781 20.613712 C 294.490966 23.014112 297.024155 25.716861 299.712603 28.674971 C 302.059888 31.257189 304.029238 34.182613 306.327494 37.535003 Q 307.612474 39.408336 308.466404 41.018137 C 310.558327 44.973179 312.186514 48.262239 313.63084 52.088579 Q 315.12011 56.027279 315.457187 57.073241 Q 316.296817 59.675887 316.954628 63.575772 Z M 244.489093 9.733258 C 237.269506 9.861961 229.723056 13.933448 226.930419 20.891545 C 223.943708 28.325636 228.174542 35.588125 235.024365 38.775039 C 238.149993 40.22958 241.610656 40.897606 245.048846 40.836319 C 248.48908 40.772989 251.923184 39.982389 254.993654 38.41549 C 261.72499 34.983428 265.690247 27.573851 262.43796 20.252119 C 259.396091 13.400253 251.708681 9.602513 244.489093 9.733258 Z" style="fill:#f6f0da;"/>
		<path d="M 181.089921 55.729016 C 182.624135 59.588043 184.722187 63.230523 186.744652 66.838274 C 191.198161 74.785131 196.141964 81.122188 202.358491 89.179362 C 207.402396 95.716623 212.88348 101.620587 219.28591 106.842224 Q 228.276687 114.176213 239.328743 118.398875 Q 244.431892 120.347796 248.501337 121.638905 Q 263.038571 126.247674 278.041584 129.218041 Q 287.067089 131.003531 296.325485 131.767573 Q 294.292805 133.736923 292.221311 135.424353 Q 284.02522 142.094402 274.135571 146.292549 Q 264.589127 150.343608 254.186711 151.604074 C 252.550353 151.802234 250.307255 151.918679 248.746484 152.008567 C 247.079483 152.106625 245.253136 152.088239 243.763866 152.075982 C 241.953862 152.061682 240.237831 151.839006 238.532014 151.826749 Q 237.908932 151.822663 237.443152 151.70009 Q 237.430894 151.696004 236.30526 151.575473 Q 230.5872 150.962605 224.656678 149.252703 Q 214.021372 146.186319 204.816092 140.270098 Q 196.076592 134.654182 188.842704 126.537764 Q 187.56181 125.099567 186.248229 123.359021 Q 181.598602 117.199696 178.242127 110.082253 Q 177.60883 108.740072 177.134879 107.52455 C 176.644584 106.26817 176.229877 105.37134 175.776354 104.10066 Q 172.211504 94.110908 171.629279 84.131371 Q 170.942867 72.331616 173.900978 60.215211 Q 174.154296 59.171293 175.394333 55.120234 Q 175.437234 54.981317 175.700767 54.356192 C 175.845813 54.010942 175.896885 53.633007 176.035802 53.308187 Q 176.544482 52.104922 176.975533 50.879186 Q 177.116493 50.78317 177.138965 50.56458 Q 177.549586 49.894511 177.692589 49.443032 Q 177.884621 48.832206 178.125682 49.424645 Q 179.445392 52.650375 181.089921 55.729016 Z" style="fill:#042734;"/>
		<path d="M 177.138965 50.56458 Q 177.116493 50.78317 176.975533 50.879186 Q 176.993919 50.674897 177.106278 50.560495 Q 177.122621 50.562537 177.138965 50.56458 Z" style="fill:#2b6170;"/>
		<path d="M 203.584227 67.40007 Q 203.57197 67.430713 203.563798 67.459313 Q 203.531112 67.58393 203.647557 67.641131 Q 208.207296 69.876057 211.45754 72.823953 Q 215.388068 76.390846 217.939643 81.467438 Q 219.287953 84.147714 220.60562 86.061906 Q 221.915115 87.961797 224.197027 90.731962 Q 231.005993 98.993425 240.378791 103.624666 Q 256.523782 111.600124 274.26223 107.504121 Q 280.384783 106.092482 285.959841 103.265116 Q 289.802525 101.316195 293.363289 99.028154 Q 293.831111 98.727849 294.376564 98.272283 Q 297.408219 96.525609 300.582876 94.709476 Q 303.375512 93.111933 308.055782 90.881093 Q 312.993457 88.525636 318.282509 87.073139 Q 317.800386 91.763623 316.46842 96.909673 Q 313.191618 109.565401 305.931172 120.425426 Q 302.059888 126.214987 297.09157 131.099547 Q 296.666648 131.51834 296.325485 131.767573 Q 287.067089 131.003531 278.041584 129.218041 Q 263.038571 126.247674 248.501337 121.638905 Q 244.431892 120.347796 239.328743 118.398875 Q 228.276687 114.176213 219.28591 106.842224 C 212.88348 101.620587 207.402396 95.716623 202.358491 89.179362 C 196.141964 81.122188 191.198161 74.785131 186.744652 66.838274 C 184.722187 63.230523 182.624135 59.588043 181.089921 55.729016 Q 181.480114 56.053836 181.796763 56.47263 Q 182.293186 57.124313 182.43006 57.271401 Q 184.372852 59.373539 186.652722 61.109999 Q 191.308477 64.656463 197.081696 66.05176 Q 200.519886 66.881174 203.584227 67.40007 Z" style="fill:#5db3a5;"/>
		<path d="M 310.398982 61.714696 Q 310.413282 61.765768 310.36221 61.804583 Q 310.329523 61.829098 310.278451 61.825012 Q 305.522594 61.612551 301.173272 63.124292 C 297.322417 64.462388 294.160017 66.946547 291.563499 69.904658 Q 289.044611 72.776967 287.040532 74.830075 Q 282.97313 79.001664 278.055884 82.333625 Q 277.500217 82.709517 276.781118 83.187554 Q 275.739242 82.785104 274.646294 82.435769 Q 272.946606 81.892359 272.499213 81.735057 Q 264.104961 78.795332 255.888442 75.389828 Q 253.157092 74.258065 252.090702 73.884215 Q 246.885408 72.053782 241.357337 71.465429 C 241.283793 71.457257 241.259278 71.363284 241.320565 71.320383 L 241.422709 71.248882 C 245.735259 71.161037 248.899701 71.234582 252.427779 70.403124 C 255.271488 69.733054 257.810805 68.104868 260.151961 66.070146 Q 263.633053 63.046663 265.097808 62.031344 C 267.465522 60.386815 270.337831 59.020118 273.285727 58.104902 C 283.692229 54.875087 295.073191 55.52677 305.214117 59.344939 Q 307.865793 60.341871 310.398982 61.714696 Z" style="fill:#d06d28;"/>
		<path d="M 316.954628 63.575772 L 317.152789 64.143697 Q 315.326442 67.624788 313.751371 69.874014 Q 310.593057 74.380638 305.826985 77.888287 Q 302.952633 80.002683 300.470517 81.369379 Q 294.826001 84.478663 291.361253 86.57263 Q 291.265237 86.219209 290.995575 86.192651 Q 289.236643 86.027177 287.496097 85.730957 Q 282.080385 84.807569 276.781118 83.187554 Q 277.500217 82.709517 278.055884 82.333625 Q 282.97313 79.001664 287.040532 74.830075 Q 289.044611 72.776967 291.563499 69.904658 C 294.160017 66.946547 297.322417 64.462388 301.173272 63.124292 Q 305.522594 61.612551 310.278451 61.825012 Q 310.329523 61.829098 310.36221 61.804583 Q 310.413282 61.765768 310.398982 61.714696 Q 313.238604 62.523682 316.084356 63.453198 Q 316.521535 63.596201 316.954628 63.575772 Z" style="fill:#e7c065;"/>
		<path d="M 318.282509 87.073139 Q 312.993457 88.525636 308.055782 90.881093 Q 303.375512 93.111933 300.582876 94.709476 Q 297.408219 96.525609 294.376564 98.272283 Q 285.177413 99.933156 276.02729 100.946432 Q 274.693281 101.09352 271.553353 101.201793 Q 274.258144 99.171157 280.376612 94.417342 Q 285.210099 90.66046 291.361253 86.57263 Q 294.826001 84.478663 300.470517 81.369379 Q 302.952633 80.002683 305.826985 77.888287 Q 310.593057 74.380638 313.751371 69.874014 Q 315.326442 67.624788 317.152789 64.143697 Q 319.395887 74.940391 318.458198 85.765686 Q 318.398954 86.448013 318.282509 87.073139 Z" style="fill:#042734;"/>
		<path d="M 220.033609 73.250918 Q 220.060167 73.344891 220.172526 73.404135 Q 226.924291 76.952642 233.289948 81.375507 Q 236.254188 83.434744 243.122397 88.253931 Q 249.375696 92.642068 255.116228 95.849411 C 259.385876 98.235511 263.919058 100.131317 268.697387 100.983204 Q 270.456319 101.297809 271.553353 101.201793 Q 274.693281 101.09352 276.02729 100.946432 Q 285.177413 99.933156 294.376564 98.272283 Q 293.831111 98.727849 293.363289 99.028154 Q 289.802525 101.316195 285.959841 103.265116 Q 280.384783 106.092482 274.26223 107.504121 Q 256.523782 111.600124 240.378791 103.624666 Q 231.005993 98.993425 224.197027 90.731962 Q 221.915115 87.961797 220.60562 86.061906 Q 219.287953 84.147714 217.939643 81.467438 Q 215.388068 76.390846 211.45754 72.823953 Q 208.207296 69.876057 203.647557 67.641131 Q 203.531112 67.58393 203.563798 67.459313 Q 203.57197 67.430713 203.584227 67.40007 Q 205.537234 67.790262 207.465726 68.386787 Q 213.753753 70.335708 219.696532 73.167159 Q 219.772119 73.203931 220.033609 73.250918 Z" style="fill:#2b6170;"/>
		<path d="M 241.422709 71.248882 L 241.320565 71.320383 C 241.259278 71.363284 241.283793 71.457257 241.357337 71.465429 Q 246.885408 72.053782 252.090702 73.884215 Q 253.157092 74.258065 255.888442 75.389828 Q 264.104961 78.795332 272.499213 81.735057 Q 272.946606 81.892359 274.646294 82.435769 Q 275.739242 82.785104 276.781118 83.187554 Q 282.080385 84.807569 287.496097 85.730957 Q 289.236643 86.027177 290.995575 86.192651 Q 291.265237 86.219209 291.361253 86.57263 Q 285.210099 90.66046 280.376612 94.417342 Q 274.258144 99.171157 271.553353 101.201793 Q 270.456319 101.297809 268.697387 100.983204 C 263.919058 100.131317 259.385876 98.235511 255.116228 95.849411 Q 249.375696 92.642068 243.122397 88.253931 Q 236.254188 83.434744 233.289948 81.375507 Q 226.924291 76.952642 220.172526 73.404135 Q 220.060167 73.344891 220.033609 73.250918 C 220.160269 73.163073 220.244027 73.060929 220.393159 72.997599 Q 222.401323 72.131412 223.508572 71.863793 C 228.775153 70.593113 234.654602 70.664614 240.098914 71.275439 Q 240.44212 71.314254 241.422709 71.248882 Z" style="fill:#dea428;"/>
		<path d="M 245.048846 40.836319 C 241.610656 40.897606 238.149993 40.22958 235.024365 38.775039 C 228.174542 35.588125 223.943708 28.325636 226.930419 20.891545 C 229.723056 13.933448 237.269506 9.861961 244.489093 9.733258 C 251.708681 9.602513 259.396091 13.400253 262.43796 20.252119 C 265.690247 27.573851 261.72499 34.983428 254.993654 38.41549 C 251.923184 39.982389 248.48908 40.772989 245.048846 40.836319 Z" style="fill:#ecb016;"/>
	</g>
	<g id="surface4">
	</g>
</svg>
