<?xml version="1.0" encoding="utf-8"?>
<svg xmlns="http://www.w3.org/2000/svg" width="490pt" height="280pt" viewBox="0 0 490 280" version="1.1" xmlns:xlink="http://www.w3.org/1999/xlink">
	<g id="surface2">
		<path vector-effect="non-scaling-stroke" d="M 235.465178 16.986315 Q 234.744332 20.997687 234.43953 25.19372" style="fill:none;stroke-width:0.50;stroke:#60714b;"/>
		<path vector-effect="non-scaling-stroke" d="M 234.43953 25.19372 L 234.366111 25.823348 C 234.359436 25.878968 234.419507 25.919015 234.468453 25.887868 Q 235.338362 25.338334 236.219396 24.855546 Q 241.107352 22.187972 245.897415 19.346861 Q 247.855267 18.183274 248.985482 17.320039 Q 249.319207 17.066409 249.612885 16.661489" style="fill:none;stroke-width:0.50;stroke:#6c7d58;"/>
		<path vector-effect="non-scaling-stroke" d="M 269.776538 15.65809 Q 269.763189 15.65364 269.74984 15.649191 Q 269.723142 15.640291 269.703118 15.660315 C 267.240229 18.034211 265.17781 20.207871 263.567031 23.164673 Q 259.629079 30.388703 255.695576 37.047625 Q 255.490891 37.392474 255.379649 37.78627 C 255.377425 37.790719 255.384099 37.795169 255.388549 37.792944 Q 264.839635 31.596787 273.78346 25.876744 Q 275.816957 24.575217 277.191903 23.436103" style="fill:none;stroke-width:0.50;stroke:#6c7d58;"/>
		<path vector-effect="non-scaling-stroke" d="M 281.790631 30.199592 Q 276.195178 34.54024 270.993521 39.381474 Q 269.571853 40.705249 268.165759 42.182538 Q 268.08789 42.264856 268.199132 42.242608 Q 280.571423 39.908759 293.308586 36.713901 Q 296.935063 35.803944 300.258962 34.431223" style="fill:none;stroke-width:0.50;stroke:#7b8a67;"/>
		<path vector-effect="non-scaling-stroke" d="M 304.584035 44.990276 C 304.163542 44.503038 303.969982 43.893434 303.280284 43.601981 C 301.93871 43.036873 300.089874 42.796591 298.783898 43.635353 C 293.635637 46.943678 287.461728 51.549081 283.292392 54.641597 C 283.223423 54.692768 283.247896 54.80401 283.334664 54.819584 C 284.900946 55.119936 286.676362 55.569352 288.115828 55.818533 Q 300.456972 57.952147 312.947179 55.956473 C 314.771541 55.66502 316.811712 55.262325 318.382444 54.459161 Q 318.484786 54.405765 318.458088 54.292299 Q 318.048719 52.643698 316.825061 51.382218" style="fill:none;stroke-width:0.50;stroke:#6c7d58;"/>
		<path vector-effect="non-scaling-stroke" d="M 316.101991 59.258124 L 294.563392 63.756734 Q 294.187395 63.834603 294.567841 63.876875 Q 295.560116 63.981442 296.923938 64.324066 Q 303.122321 65.874774 312.301978 68.095157 Q 313.547884 68.397734 315.961826 68.927244 Q 317.830685 69.338838 319.6239 69.774905" style="fill:none;stroke-width:0.50;stroke:#6c7d58;"/>
		<path vector-effect="non-scaling-stroke" d="M 320.696269 84.683504 Q 320.004346 84.516642 319.635024 84.476595 Q 312.575632 83.680105 305.542938 82.690055 Q 305.316005 82.658907 305.169166 82.667807 Q 304.888837 82.68338 305.104646 82.863592 Q 311.881484 88.530239 318.133262 95.000051 Q 321.497209 98.481913 324.19148 101.345272 Q 324.378366 101.541057 324.836681 101.928178" style="fill:none;stroke-width:0.50;stroke:#6c7d58;"/>
		<path vector-effect="non-scaling-stroke" d="M 323.537379 114.093559 Q 323.510682 114.229274 323.621923 114.324942" style="fill:none;stroke-width:0.50;stroke:#1e2819;"/>
		<path vector-effect="non-scaling-stroke" d="M 258.805891 152.431865 Q 250.33818 152.336198 238.468701 152.37402 Q 236.906869 152.380694 236.012486 152.449664" style="fill:none;stroke-width:0.50;stroke:#60714b;"/>
		<path vector-effect="non-scaling-stroke" d="M 231.442681 147.788641 Q 231.689638 147.655151 232.546198 147.049997 Q 234.352762 145.772943 236.646564 145.999876" style="fill:none;stroke-width:0.50;stroke:#6c7d58;"/>
		<path vector-effect="non-scaling-stroke" d="M 236.646564 145.999876 Q 237.474201 146.055497 238.028184 146.180087 Q 241.425503 146.93653 245.134298 147.86206 C 247.405851 148.429393 248.932086 148.663 251.034552 148.291453 C 255.070398 147.579507 258.917132 145.363574 260.859411 141.714849 C 262.812813 138.048326 263.297827 133.605337 262.628152 129.549468 Q 262.39232 128.125575 261.702622 125.600391" style="fill:none;stroke-width:0.50;stroke:#929f86;"/>
		<path vector-effect="non-scaling-stroke" d="M 261.702622 125.600391 Q 260.323226 120.639015 257.079421 116.658791" style="fill:none;stroke-width:0.50;stroke:#1e2819;"/>
		<path vector-effect="non-scaling-stroke" d="M 257.079421 116.658791 Q 255.359626 114.418385 253.573086 112.200227 Q 253.559737 112.182429 253.557512 112.16018 Q 253.557512 112.129033 253.564186 112.097885 Q 253.575311 112.046714 253.617582 112.077862 Q 256.173914 113.908898 258.287505 116.095908" style="fill:none;stroke-width:0.50;stroke:#929f86;"/>
		<path vector-effect="non-scaling-stroke" d="M 258.287505 116.095908 Q 262.99525 120.567821 264.715045 122.619116 Q 266.566105 124.830599 267.473836 125.68271" style="fill:none;stroke-width:0.50;stroke:#1e2819;"/>
		<path vector-effect="non-scaling-stroke" d="M 267.473836 125.68271 Q 271.149259 130.248065 273.311796 133.814471 Q 276.221876 138.620108 276.228551 138.629007 C 277.950571 141.220937 280.415685 142.660403 282.938644 144.380198 Q 283.101057 144.489215 283.054335 144.300104 C 281.726111 138.964957 279.910648 133.643159 277.701389 129.05333 Q 274.929249 123.295465 270.697618 118.852475 Q 268.886605 116.950244 264.492562 113.308194" style="fill:none;stroke-width:0.50;stroke:#849271;"/>
		<path vector-effect="non-scaling-stroke" d="M 264.492562 113.308194 Q 263.72277 112.654093 262.92628 111.999992 Q 247.412526 99.256154 242.144124 94.966678 Q 240.913791 93.963279 239.042708 92.935407 C 237.131577 91.885286 235.180399 91.578259 233.193624 92.078846 Q 232.152403 92.341376 230.848651 92.984353 Q 230.779681 93.017725 230.815279 92.948756 L 230.86645 92.844188 Q 230.877574 92.82194 230.899822 92.810816 Q 235.187074 90.670528 238.715657 87.417823 Q 239.828073 86.392176 240.902667 85.264186" style="fill:none;stroke-width:0.50;stroke:#929f86;"/>
		<path vector-effect="non-scaling-stroke" d="M 240.902667 85.264186 L 240.878194 85.544514 Q 240.869295 85.664655 240.971637 85.724726 Q 246.039804 88.641481 249.61066 90.910809 Q 254.852364 94.239158 260.347699 95.654151 C 263.907431 96.570782 267.689645 97.282728 271.102538 98.252755 Q 276.720239 99.850185 282.175527 101.934852" style="fill:none;stroke-width:0.50;stroke:#6c7d58;"/>
		<path vector-effect="non-scaling-stroke" d="M 282.175527 101.934852 C 287.472852 103.972798 291.953664 105.556879 298.078626 107.968597 C 299.364579 108.473634 300.434723 109.034291 301.582737 109.537103 Q 301.916462 109.683942 301.665056 109.419187 C 298.699354 106.299973 295.684707 103.040594 292.443127 100.121614" style="fill:none;stroke-width:0.50;stroke:#60714b;"/>
		<path vector-effect="non-scaling-stroke" d="M 292.443127 100.121614 Q 286.396033 94.508363 279.058537 90.799568 C 271.218229 86.839367 262.338924 83.430924 253.602009 80.890166 Q 249.052227 79.566391 248.048828 79.263814 Q 246.126573 78.685357 244.199868 77.619663" style="fill:none;stroke-width:0.50;stroke:#6c7d58;"/>
		<path vector-effect="non-scaling-stroke" d="M 244.199868 77.619663 Q 244.231016 76.080079 243.866144 74.564968 C 242.480073 68.820452 236.361785 67.045036 231.264695 68.566821 Q 228.532601 69.383334 226.249923 71.16765 Q 224.276497 72.709458 223.90495 72.996462 Q 223.480007 73.323512 223.760336 72.867421 Q 225.558001 69.948442 226.512453 68.437781 C 228.2189 65.73906 230.486004 61.258248 227.424635 58.635171 C 226.332242 57.698516 224.663618 57.438211 223.244175 57.609523 C 219.679994 58.041141 217.55083 60.063513 215.790988 63.053687 C 215.733142 63.15158 215.588528 63.138231 215.548481 63.031439 Q 215.417216 62.662117 215.399417 62.299469 Q 215.254803 59.402738 216.129162 56.632822" style="fill:none;stroke-width:0.50;stroke:#929f86;"/>
		<path vector-effect="non-scaling-stroke" d="M 216.129162 56.632822 L 217.074716 54.543705" style="fill:none;stroke-width:0.50;stroke:#849271;"/>
		<path vector-effect="non-scaling-stroke" d="M 217.074716 54.543705 Q 218.396266 51.738191 218.547555 48.474363" style="fill:none;stroke-width:0.50;stroke:#60714b;"/>
		<path vector-effect="non-scaling-stroke" d="M 218.547555 48.474363 Q 219.097088 47.595554 220.438662 45.673299 C 223.91385 40.698575 226.741611 35.138719 228.521477 29.285186 C 228.552624 29.178394 228.452507 29.080502 228.34794 29.118324 C 225.549101 30.123948 222.948273 31.799246 220.53433 33.810495 C 216.267102 37.368001 212.729619 41.370474 209.410169 45.766742 Q 208.293304 47.244031 207.823864 48.133963 C 207.21871 49.277527 207.040723 50.788188 207.027374 52.196507 Q 207.025149 52.303299 206.925032 52.343346 Q 206.480066 52.516883 206.275381 52.930701" style="fill:none;stroke-width:0.50;stroke:#849271;"/>
		<path vector-effect="non-scaling-stroke" d="M 206.275381 52.930701 Q 205.409921 53.420164 202.470918 54.901903 Q 194.485996 58.926624 187.924966 65.498778 Q 187.206346 66.219623 184.601067 69.054059" style="fill:none;stroke-width:0.50;stroke:#929f86;"/>
		<path vector-effect="non-scaling-stroke" d="M 184.601067 69.054059 Q 185.326362 67.587895 186.076131 66.208499 C 188.26759 62.177103 190.563617 58.127909 193.128848 54.321221 Q 194.134473 52.826134 195.131197 51.368869" style="fill:none;stroke-width:0.50;stroke:#849271;"/>
		<path vector-effect="non-scaling-stroke" d="M 195.131197 51.368869 Q 197.304858 48.400943 199.371727 45.45749 Q 199.988006 44.580907 200.010254 43.441793 Q 200.070324 40.540612 199.798895 38.002078" style="fill:none;stroke-width:0.50;stroke:#7b8a67;"/>
		<path vector-effect="non-scaling-stroke" d="M 199.798895 38.002078 Q 199.438472 34.631458 198.86669 31.283085 Q 198.844442 31.154045 198.73765 31.136247 C 198.686479 31.127347 198.637533 31.147371 198.606385 31.187418 L 195.260238 35.666005" style="fill:none;stroke-width:0.50;stroke:#6c7d58;"/>
		<path vector-effect="non-scaling-stroke" d="M 195.260238 35.666005 Q 191.213268 41.724222 188.794876 48.621202" style="fill:none;stroke-width:0.50;stroke:#7b8a67;"/>
		<path vector-effect="non-scaling-stroke" d="M 188.794876 48.621202 Q 187.106228 53.244403 185.417581 57.880953 C 183.757856 62.441858 182.020262 66.66014 180.153628 70.989663 Q 180.075759 71.165425 180.069084 70.974089 L 179.946719 68.157452" style="fill:none;stroke-width:0.50;stroke:#849271;"/>
		<path vector-effect="non-scaling-stroke" d="M 179.946719 68.157452 L 179.472829 58.463859" style="fill:none;stroke-width:0.50;stroke:#7b8a67;"/>
		<path stroke-opacity="0.773" vector-effect="non-scaling-stroke" d="M 179.472829 58.463859 L 179.412759 58.092312" style="fill:none;stroke-width:0.50;stroke:#77856a;"/>
		<path vector-effect="non-scaling-stroke" d="M 179.412759 58.092312 Q 179.410534 57.961047 179.350464 57.854255" style="fill:none;stroke-width:0.50;stroke:#6c7d58;"/>
		<path stroke-opacity="0.773" vector-effect="non-scaling-stroke" d="M 179.350464 57.854255 Q 179.254796 56.806359 179.245896 55.742889 Q 179.239222 55.106587 179.070135 54.53258 Q 179.016739 54.352369 178.99449 54.539255 L 178.660766 57.144533" style="fill:none;stroke-width:0.50;stroke:#77856a;"/>
		<path vector-effect="non-scaling-stroke" d="M 178.660766 57.144533 L 176.756309 70.277717" style="fill:none;stroke-width:0.50;stroke:#7b8a67;"/>
		<path vector-effect="non-scaling-stroke" d="M 176.756309 70.277717 L 176.269071 73.459227" style="fill:none;stroke-width:0.50;stroke:#849271;"/>
		<path vector-effect="non-scaling-stroke" d="M 199.053576 24.953438 Q 199.227113 25.162572 199.701002 25.031307 Q 200.969157 24.679784 202.969281 24.196995 C 203.193989 24.141375 203.400898 24.025683 203.563311 23.861046 C 204.706874 22.695234 205.854888 21.602841 207.329951 20.768529" style="fill:none;stroke-width:0.50;stroke:#7b8a67;"/>
		<path vector-effect="non-scaling-stroke" d="M 216.442864 16.952942 L 217.764414 23.456126 Q 217.791112 23.587391 217.904578 23.520646 C 218.196031 23.344885 218.40739 23.146875 218.741115 22.94664 C 221.904826 21.051083 225.044064 19.191123 227.709413 16.568046 Q 227.996416 16.287717 228.385762 15.711486" style="fill:none;stroke-width:0.50;stroke:#6c7d58;"/>
		<path vector-effect="non-scaling-stroke" d="M 292.443127 100.121614 Q 287.250369 100.871383 282.175527 101.934852" style="fill:none;stroke-width:0.50;stroke:#93a274;"/>
		<path vector-effect="non-scaling-stroke" d="M 223.066189 146.616154 Q 218.919102 144.960879 214.585129 143.866262" style="fill:none;stroke-width:0.50;stroke:#6c7d58;"/>
		<path vector-effect="non-scaling-stroke" d="M 200.486368 114.972368 L 200.748898 114.94122" style="fill:none;stroke-width:0.50;stroke:#93a274;"/>
		<path vector-effect="non-scaling-stroke" d="M 184.601067 69.054059 Q 181.753282 71.525848 181.076933 72.342361 Q 180.251521 73.341311 179.817678 74.702908 Q 177.917672 80.689931 177.101158 83.82027 C 176.903148 84.576713 176.669541 85.135145 176.311343 86.109622 Q 175.775158 87.566887 177.34144 87.887263" style="fill:none;stroke-width:0.50;stroke:#dce4c8;"/>
		<path vector-effect="non-scaling-stroke" d="M 177.34144 87.887263 Q 175.503729 87.727075 173.830655 87.273209 Q 173.461333 87.173092 173.819531 87.037377 C 174.593773 86.745924 175.528202 86.632457 176.142256 85.967233 C 176.151155 85.958333 176.142256 85.942759 176.128907 85.947209 L 173.821756 86.841592 Q 173.628195 86.917236 173.775034 86.768172 C 174.231125 86.307632 174.992018 85.711377 175.263447 84.930461 Q 175.935346 82.994857 176.053262 81.108199 C 176.128907 79.855619 176.322467 78.867793 176.509353 77.584065 Q 176.638393 76.698582 176.400336 75.986636" style="fill:none;stroke-width:0.50;stroke:#c5cfa9;"/>
		<path vector-effect="non-scaling-stroke" d="M 176.756309 70.277717 C 177.372588 71.269992 178.749759 72.260042 179.755383 71.263318 Q 179.831027 71.185448 179.835477 71.076432 L 179.946719 68.157452" style="fill:none;stroke-width:0.50;stroke:#c5cfa9;"/>
		<path vector-effect="non-scaling-stroke" d="M 195.131197 51.368869 Q 192.283412 49.224131 188.794876 48.621202" style="fill:none;stroke-width:0.50;stroke:#c5cfa9;"/>
		<path vector-effect="non-scaling-stroke" d="M 269.776538 15.65809 Q 269.863306 15.700362 270.003471 15.673664" style="fill:none;stroke-width:0.50;stroke:#93a274;"/>
		<path vector-effect="non-scaling-stroke" d="M 234.43953 25.19372 Q 234.777705 24.799925 235.073607 24.101328 Q 235.845624 22.268066 236.586493 20.421455 Q 237.107104 19.128828 237.901369 17.284442 Q 238.553245 15.769332 239.198446 14.145204" style="fill:none;stroke-width:0.50;stroke:#93a274;"/>
		<path vector-effect="non-scaling-stroke" d="M 218.547555 48.474363 Q 216.000122 51.891705 213.04777 54.835158 Q 212.965451 54.915252 213.081142 54.906352 L 217.074716 54.543705" style="fill:none;stroke-width:0.50;stroke:#abb68d;"/>
		<path vector-effect="non-scaling-stroke" d="M 216.129162 56.632822 C 213.724119 57.142308 211.85526 57.65402 209.623753 56.868654 Q 208.477965 56.46596 207.708173 55.6005 Q 206.68475 54.448037 206.275381 52.930701" style="fill:none;stroke-width:0.50;stroke:#dce4c8;"/>
		<path stroke-opacity="0.773" vector-effect="non-scaling-stroke" d="M 179.350464 57.854255 Q 179.346014 57.998869 179.412759 58.092312" style="fill:none;stroke-width:0.50;stroke:#b9c4a0;"/>
		<path stroke-opacity="0.773" vector-effect="non-scaling-stroke" d="M 179.472829 58.463859 Q 179.139104 58.370416 179.208074 58.081188 Q 179.236997 57.969946 179.123531 57.943248 Q 179.036762 57.921 178.923296 57.967721 Q 178.689688 58.067839 178.774232 57.827557 Q 178.885474 57.518305 179.170252 57.19348 Q 179.248121 57.104486 179.130205 57.106711 Q 179.070135 57.106711 179.038987 57.155657 Q 178.99449 57.226852 178.874349 57.160107 Q 178.776457 57.106711 178.660766 57.144533" style="fill:none;stroke-width:0.50;stroke:#ccd5b3;"/>
		<path vector-effect="non-scaling-stroke" d="M 244.199868 77.619663 C 244.04858 78.304911 243.992959 79.068028 243.84612 79.657609 C 243.323285 81.748951 242.270939 83.600011 240.902667 85.264186" style="fill:none;stroke-width:0.50;stroke:#c5d0af;"/>
		<path vector-effect="non-scaling-stroke" d="M 264.492562 113.308194 Q 262.221008 115.490754 259.411045 116.99919" style="fill:none;stroke-width:0.50;stroke:#dce4c8;"/>
		<path vector-effect="non-scaling-stroke" d="M 259.411045 116.99919 Q 258.921582 116.429633 258.287505 116.095908" style="fill:none;stroke-width:0.50;stroke:#777a70;"/>
		<path vector-effect="non-scaling-stroke" d="M 257.079421 116.658791 Q 259.898283 120.857049 261.702622 125.600391" style="fill:none;stroke-width:0.50;stroke:#777a70;"/>
		<path vector-effect="non-scaling-stroke" d="M 236.646564 145.999876 Q 239.231818 143.098695 240.057231 139.492242 C 241.487798 133.22934 239.173973 126.715032 235.002413 121.96279 Q 229.925346 116.176002 222.345343 114.643093 C 219.07039 113.980093 215.463937 113.946721 211.990975 114.042388" style="fill:none;stroke-width:0.50;stroke:#c5d0af;"/>
		<path vector-effect="non-scaling-stroke" d="M 211.990975 114.042388 C 210.386871 113.888875 209.080894 113.579623 208.039673 112.269197" style="fill:none;stroke-width:0.50;stroke:#dce4c8;"/>
		<path vector-effect="non-scaling-stroke" d="M 208.039673 112.269197 L 207.661451 111.766385" style="fill:none;stroke-width:0.50;stroke:#d3dcbe;"/>
		<path vector-effect="non-scaling-stroke" d="M 207.661451 111.766385 Q 206.537911 110.613922 203.836965 108.206654 Q 202.975955 107.441312 203.060499 105.946224" style="fill:none;stroke-width:0.50;stroke:#dce4c8;"/>
		<path vector-effect="non-scaling-stroke" d="M 203.060499 105.946224 Q 202.593284 105.705943 201.834616 105.683694" style="fill:none;stroke-width:0.50;stroke:#929f86;"/>
		<path vector-effect="non-scaling-stroke" d="M 201.834616 105.683694 Q 199.416224 104.181933 198.001231 102.557805 Q 194.795248 98.882383 194.748526 98.824537 Q 191.304486 94.75087 187.099554 91.678376 Q 183.90692 89.346752 179.739809 88.316655 C 179.027863 88.140894 178.140155 88.058575 177.34144 87.887263" style="fill:none;stroke-width:0.50;stroke:#d3dcbe;"/>
		<path vector-effect="non-scaling-stroke" d="M 199.798895 38.002078 L 195.260238 35.666005" style="fill:none;stroke-width:0.50;stroke:#aebb90;"/>
		<path vector-effect="non-scaling-stroke" d="M 267.473836 125.68271 Q 263.836236 120.983864 259.411045 116.99919" style="fill:none;stroke-width:0.50;stroke:#696d5b;"/>
		<path vector-effect="non-scaling-stroke" d="M 211.990975 114.042388 L 210.444716 114.095784" style="fill:none;stroke-width:0.50;stroke:#b7c39a;"/>
		<path stroke-opacity="0.773" vector-effect="non-scaling-stroke" d="M 206.700324 113.802106 Q 206.94728 113.966744 206.731472 114.227049 Q 206.704774 114.258197 206.742596 114.278221 L 206.798217 114.304918 Q 206.889435 114.349415 206.789317 114.373888 Q 206.046223 114.5541 205.543411 114.518502 Q 204.984979 114.476231 204.324203 114.585247 Q 202.962606 114.807731 201.58766 114.863351" style="fill:none;stroke-width:0.50;stroke:#b9c4a0;"/>
		<path stroke-opacity="0.773" vector-effect="non-scaling-stroke" d="M 193.776275 108.486983 Q 194.1011 108.520355 194.408127 108.322345" style="fill:none;stroke-width:0.50;stroke:#aab48f;"/>
		<path stroke-opacity="0.773" vector-effect="non-scaling-stroke" d="M 194.984358 108.220003 Q 196.043378 108.188855 196.893264 107.783936" style="fill:none;stroke-width:0.50;stroke:#aab48f;"/>
		<path vector-effect="non-scaling-stroke" d="M 208.039673 112.269197 Q 207.94178 112.901049 208.215435 113.439459 Q 208.266606 113.535127 208.373398 113.526227 Q 208.602555 113.508429 208.80279 113.637469 Q 208.818364 113.648593 208.80279 113.657492 Q 208.778317 113.670841 208.782767 113.719788 C 208.784992 113.726462 208.789441 113.733137 208.798341 113.735361 L 210.444716 114.095784" style="fill:none;stroke-width:0.50;stroke:#c5cfa9;"/>
		<path vector-effect="non-scaling-stroke" d="M 210.444716 114.095784 C 209.290029 114.15808 207.759344 114.358314 206.700324 113.802106" style="fill:none;stroke-width:0.50;stroke:#aebb90;"/>
		<path stroke-opacity="0.773" vector-effect="non-scaling-stroke" d="M 206.700324 113.802106 C 205.336502 113.383838 203.363076 113.270372 203.17174 111.461583 C 203.073848 110.520479 203.10722 109.477033 202.78017 108.951973 Q 202.206163 108.021993 201.803469 107.00302 Q 201.685553 106.700443 201.078173 106.586976" style="fill:none;stroke-width:0.50;stroke:#ccd5b3;"/>
		<path vector-effect="non-scaling-stroke" d="M 201.834616 105.683694 C 201.429697 105.692594 200.991405 105.650322 200.619858 105.690369 C 195.146771 106.279949 189.958463 106.580302 184.678936 106.190956 C 179.991215 105.843882 175.721762 104.551255 171.732639 102.014946 Q 169.494458 100.591054 168.786961 100.17501 Q 166.41529 98.773366 163.536357 98.18601" style="fill:none;stroke-width:0.50;stroke:#7b8a67;"/>
		<path stroke-opacity="0.773" vector-effect="non-scaling-stroke" d="M 173.450209 86.628008 L 174.504779 85.682454 Q 174.589323 85.60681 174.604897 85.497793 Q 174.671642 85.032803 174.725038 84.881515 C 175.28792 83.330807 175.701739 82.447548 175.775158 80.972485 Q 175.792957 80.620961 175.975393 79.350582 Q 176.115558 78.353857 176.086635 77.366032" style="fill:none;stroke-width:0.50;stroke:#ccd5b3;"/>
		<path stroke-opacity="0.773" vector-effect="non-scaling-stroke" d="M 176.108883 76.889918 Q 176.135581 76.965562 176.173403 76.872119" style="fill:none;stroke-width:0.50;stroke:#ccd5b3;"/>
		<path vector-effect="non-scaling-stroke" d="M 203.060499 105.946224 Q 202.539888 106.20653 202.030402 106.262151" style="fill:none;stroke-width:0.50;stroke:#849271;"/>
		<path vector-effect="non-scaling-stroke" d="M 202.030402 106.262151 L 201.078173 106.586976" style="fill:none;stroke-width:0.50;stroke:#7b8a67;"/>
		<path stroke-opacity="0.773" vector-effect="non-scaling-stroke" d="M 201.078173 106.586976 L 196.893264 107.783936" style="fill:none;stroke-width:0.50;stroke:#77856a;"/>
		<path vector-effect="non-scaling-stroke" d="M 196.893264 107.783936 L 194.984358 108.220003" style="fill:none;stroke-width:0.50;stroke:#60714b;"/>
		<path stroke-opacity="0.773" vector-effect="non-scaling-stroke" d="M 194.984358 108.220003 L 194.408127 108.322345" style="fill:none;stroke-width:0.50;stroke:#77856a;"/>
		<path vector-effect="non-scaling-stroke" d="M 194.408127 108.322345 L 193.776275 108.486983" style="fill:none;stroke-width:0.50;stroke:#60714b;"/>
		<path stroke-opacity="0.773" vector-effect="non-scaling-stroke" d="M 193.776275 108.486983 L 191.300037 108.969771" style="fill:none;stroke-width:0.50;stroke:#77856a;"/>
		<path vector-effect="non-scaling-stroke" d="M 162.334948 108.925275 Q 164.201582 107.545879 164.363995 105.823859 Q 164.535307 104.001721 163.674297 102.397617 Q 162.895606 100.949252 161.623002 99.794564" style="fill:none;stroke-width:0.50;stroke:#1e2819;"/>
		<path vector-effect="non-scaling-stroke" d="M 207.661451 111.766385 Q 207.55466 112.680791 208.028549 113.459482 Q 208.099743 113.575174 207.968478 113.530677 C 207.403371 113.337117 206.938381 112.96557 206.386623 112.829855 C 204.802542 112.438284 203.914834 111.466033 203.77467 109.828556 C 203.714599 109.11216 203.113895 108.411338 202.657804 107.868479 Q 202.359677 107.516956 202.030402 106.262151" style="fill:none;stroke-width:0.50;stroke:#c5cfa9;"/>
		<path vector-effect="non-scaling-stroke" d="M 229.818554 47.655625 C 229.789631 47.691222 229.825228 47.742393 229.8675 47.724594 C 230.132255 47.615578 230.316916 47.475413 230.650641 47.373071 C 236.490825 45.557608 242.095177 42.358299 246.834069 38.580535 Q 251.735375 34.675954 255.372975 29.4387 Q 256.698975 27.529794 259.110693 23.883294 Q 259.397696 23.447227 260.149689 22.490549 C 260.187512 22.441603 260.160814 22.368183 260.100743 22.357059 C 258.02275 21.949915 255.379649 22.730831 253.459619 23.685284 C 248.191217 26.301686 243.937338 30.479921 239.999385 35.143169 C 238.192822 37.283458 236.025835 40.23581 234.110255 42.558534 Q 232.859899 44.073645 229.818554 47.655625" style="fill:none;stroke-width:0.50;stroke:#849271;"/>
		<path vector-effect="non-scaling-stroke" d="M 217.900129 26.697707 C 217.239353 26.65766 216.856682 26.642086 216.494035 26.090327 C 216.385018 25.923465 216.175884 25.85227 215.986773 25.919015 Q 215.450588 26.105901 215.005622 26.388455 Q 211.917555 28.339633 208.560284 30.179569 Q 207.434519 30.795847 207.125267 31.300884 Q 206.61578 32.130746 205.988378 32.953934 Q 205.921633 33.042928 205.921633 33.156394 Q 205.921633 33.570213 206.043999 34.110847 Q 206.49119 36.06425 207.098569 38.097746 C 207.116368 38.155592 207.185337 38.18229 207.236509 38.148917 C 208.942955 37.036501 210.880783 36.444696 212.427042 35.597035 Q 213.630676 34.93626 214.206907 34.324431 C 216.040169 32.373253 217.791112 29.62781 218.073665 26.902391 C 218.08479 26.797824 218.004696 26.704381 217.900129 26.697707" style="fill:none;stroke-width:0.50;stroke:#6c7d58;"/>
		<path vector-effect="non-scaling-stroke" d="M 292.516546 43.595306 C 292.547694 43.573058 292.541019 43.526336 292.505422 43.512987 Q 291.795701 43.250457 290.863496 43.039098 C 286.872147 42.135816 282.985366 41.935581 278.969544 42.738746 Q 274.404188 43.650927 270.254877 45.424118 Q 264.470313 47.895906 260.323226 52.356695 Q 260.243132 52.441238 260.354374 52.472386 Q 260.748169 52.588077 261.213159 52.650373 C 271.198205 53.987497 282.544849 52.572503 290.391832 45.711121 C 291.045932 45.141564 291.829073 44.122591 292.516546 43.595306" style="fill:none;stroke-width:0.50;stroke:#6c7d58;"/>
		<path vector-effect="non-scaling-stroke" d="M 259.847112 49.597903 Q 259.869361 49.575655 259.884934 49.555631 C 259.931656 49.488886 259.911632 49.397668 259.842663 49.355396 Q 258.202961 48.383145 256.169465 48.44544 C 254.055874 48.512185 252.502942 49.346497 250.367103 50.478936 Q 248.569439 51.431165 245.990858 52.921802 Q 240.428778 56.138909 236.117053 60.8956 C 236.09258 60.922298 236.110379 60.966795 236.145976 60.96902 Q 241.169647 61.278271 246.0932 60.717614 Q 248.211241 60.477332 249.795321 59.126859 Q 255.014777 54.672745 259.847112 49.597903" style="fill:none;stroke-width:0.50;stroke:#849271;"/>
		<path vector-effect="non-scaling-stroke" d="M 253.704351 60.581899 L 250.180217 63.578748" style="fill:none;stroke-width:0.50;stroke:#7b8a67;"/>
		<path vector-effect="non-scaling-stroke" d="M 250.180217 63.578748 C 248.480445 65.082734 246.903039 66.484378 244.90514 67.605694 Q 244.751627 67.690237 244.920714 67.743633 Q 248.342506 68.831576 252.006804 68.333214" style="fill:none;stroke-width:0.50;stroke:#60714b;"/>
		<path vector-effect="non-scaling-stroke" d="M 252.006804 68.333214 Q 254.531988 68.039536 256.952606 67.227472" style="fill:none;stroke-width:0.50;stroke:#7b8a67;"/>
		<path vector-effect="non-scaling-stroke" d="M 256.952606 67.227472 C 261.809414 65.574422 266.425941 62.817855 270.662021 59.745362 Q 272.021393 58.759761 273.543178 57.45156 Q 273.796809 57.235751 273.961447 56.819708 Q 274.001494 56.717366 273.961447 56.617248 C 273.698917 55.985396 272.619873 55.66502 272.06144 55.620523 C 269.384967 55.409164 267.120088 56.13446 264.58378 56.953198 C 263.05977 57.444886 260.970652 57.667369 259.597931 57.956597 Q 256.358576 58.637396 253.704351 60.581899" style="fill:none;stroke-width:0.50;stroke:#849271;"/>
		<path vector-effect="non-scaling-stroke" d="M 256.952606 67.227472 L 253.704351 60.581899" style="fill:none;stroke-width:0.50;stroke:#c5cfa9;"/>
		<path vector-effect="non-scaling-stroke" d="M 252.006804 68.333214 Q 251.33713 65.870325 250.180217 63.578748" style="fill:none;stroke-width:0.50;stroke:#a2ae83;"/>
		<path vector-effect="non-scaling-stroke" d="M 274.71789 68.039536 Q 272.33287 68.337663 270.150309 68.918345 Q 269.304873 69.143053 268.41494 69.683687 C 268.272551 69.770455 268.241404 69.964016 268.348195 70.090831 C 269.069041 70.956291 270.74434 71.601492 271.774437 71.908519 Q 274.370816 72.68276 276.208527 73.049858 Q 287.592993 75.336985 297.980734 76.173522 Q 298.465747 76.213569 298.935187 76.184646" style="fill:none;stroke-width:0.50;stroke:#60714b;"/>
		<path vector-effect="non-scaling-stroke" d="M 298.935187 76.184646 L 306.920109 76.945539" style="fill:none;stroke-width:0.50;stroke:#7b8a67;"/>
		<path vector-effect="non-scaling-stroke" d="M 306.920109 76.945539 Q 310.80689 77.633012 314.695897 77.252565 Q 315.839461 77.141324 316.905155 76.72528 Q 317.181034 76.618488 317.236655 76.551743 Q 317.508085 76.235817 317.156561 76.013334 Q 315.84391 75.174572 315.014048 74.120002" style="fill:none;stroke-width:0.50;stroke:#60714b;"/>
		<path vector-effect="non-scaling-stroke" d="M 315.014048 74.120002 Q 315.294377 72.778428 314.433367 71.995287 Q 312.838162 70.544697 310.740146 69.870573 Q 308.666602 69.203123 307.051374 68.898321 Q 300.770673 67.708036 294.369831 67.576771 Q 290.006936 67.487778 283.688413 67.547848 Q 278.704789 67.594569 274.71789 68.039536" style="fill:none;stroke-width:0.50;stroke:#7b8a67;"/>
		<path vector-effect="non-scaling-stroke" d="M 315.014048 74.120002 Q 312.931605 76.280314 309.721172 76.685233 Q 308.998102 76.774227 306.920109 76.945539" style="fill:none;stroke-width:0.50;stroke:#a2ae83;"/>
		<path vector-effect="non-scaling-stroke" d="M 298.935187 76.184646 C 298.492445 76.040032 298.074177 75.877619 297.618086 75.770827 Q 290.825674 74.184522 284.642865 71.810626 Q 278.021765 69.265418 274.71789 68.039536" style="fill:none;stroke-width:0.50;stroke:#a2ae83;"/>
		<path vector-effect="non-scaling-stroke" d="M 294.463274 93.442668 L 295.177445 94.192437" style="fill:none;stroke-width:0.50;stroke:#849271;"/>
		<path vector-effect="non-scaling-stroke" d="M 295.177445 94.192437 Q 293.542194 94.733071 292.745704 96.06797 Q 292.687858 96.165863 292.7991 96.192561 Q 293.971586 96.466215 295.144073 96.484014 Q 297.182019 96.512937 299.21774 96.486239" style="fill:none;stroke-width:0.50;stroke:#60714b;"/>
		<path vector-effect="non-scaling-stroke" d="M 299.21774 96.486239 Q 304.0523 96.935655 308.900209 97.149239 C 310.166139 97.204859 311.596706 97.129215 312.615679 96.971252 Q 313.183011 96.884483 313.59238 96.579681 C 313.679149 96.515161 313.714746 96.401695 313.681373 96.299353 C 313.158538 94.695249 311.427619 93.754145 310.054897 93.191262 C 302.20124 89.97193 294.543368 86.567937 287.016761 82.56324 Q 286.585144 82.334082 286.031161 82.104924" style="fill:none;stroke-width:0.50;stroke:#849271;"/>
		<path vector-effect="non-scaling-stroke" d="M 286.031161 82.104924 Q 279.238748 77.997884 272.537554 74.958764 C 269.2804 73.481475 266.488236 73.105478 262.378971 72.560395 Q 256.327428 71.759455 250.438297 71.140952 Q 250.082324 71.10313 250.391576 71.281116 Q 260.908357 77.305961 268.543981 81.806797 C 272.192705 83.958209 275.596698 86.138545 279.172003 88.276608 C 283.988765 91.153316 288.883395 92.637279 294.463274 93.442668" style="fill:none;stroke-width:0.50;stroke:#6c7d58;"/>
		<path vector-effect="non-scaling-stroke" d="M 286.031161 82.104924 Q 286.409382 82.770149 287.497325 83.753525 Q 288.066882 84.271911 289.177073 85.682454 Q 289.868996 86.559038 290.674385 87.747098 Q 292.569942 90.545937 294.463274 93.442668" style="fill:none;stroke-width:0.50;stroke:#b7c39a;"/>
		<path vector-effect="non-scaling-stroke" d="M 299.21774 96.486239 C 298.743851 96.279329 298.325583 96.06352 297.809422 95.876635 Q 296.278737 95.318202 295.177445 94.192437" style="fill:none;stroke-width:0.50;stroke:#abb68d;"/>
		<path vector-effect="non-scaling-stroke" d="M 268.234729 105.734865 C 273.042591 109.161107 277.645769 112.064513 282.809604 114.68314 Q 286.251419 116.425183 289.635389 117.112657 Q 293.19067 117.833502 296.218667 118.291818 Q 299.182143 118.743458 300.652757 118.774606 C 302.465995 118.812428 303.758623 118.45423 305.340478 118.289593 C 305.422797 118.280693 305.456169 118.178351 305.391649 118.124955 Q 303.360378 116.463006 300.962009 114.8767 Q 294.552267 110.638395 288.278241 107.419063 Q 285.203523 105.841657 282.022013 105.588026 Q 275.136158 105.038493 268.261427 105.645872 Q 268.125712 105.656996 268.234729 105.734865" style="fill:none;stroke-width:0.50;stroke:#849271;"/>
		<path vector-effect="non-scaling-stroke" d="M 289.139251 130.566216 Q 291.942539 135.445273 295.833771 139.492242 Q 296.737053 140.431121 297.239865 140.655829 C 299.462472 141.643655 300.610485 139.910511 300.824069 138.010504 C 301.160019 134.986957 300.034254 131.480622 298.661532 128.821948" style="fill:none;stroke-width:0.50;stroke:#7b8a67;"/>
		<path vector-effect="non-scaling-stroke" d="M 298.661532 128.821948 Q 298.127573 127.685058 297.537992 126.574867 Q 297.30661 126.134351 296.921714 125.894069 Q 294.72358 124.519122 291.840197 123.517948 Q 288.207046 122.258693 284.849775 121.250844 C 284.791929 121.233046 284.740758 121.290891 284.763006 121.346512 Q 286.658563 126.087629 289.139251 130.566216" style="fill:none;stroke-width:0.50;stroke:#849271;"/>
		<path vector-effect="non-scaling-stroke" d="M 298.661532 128.821948 L 289.139251 130.566216" style="fill:none;stroke-width:0.50;stroke:#c5cfa9;"/>
		<path vector-effect="non-scaling-stroke" d="M 179.704212 72.264247 C 179.713111 72.268942 179.755383 72.215546 179.797188 72.143239 C 179.839927 72.070932 179.8644 72.008636 179.8555 72.002206 C 179.846601 71.997512 179.804329 72.050908 179.762525 72.123215 C 179.719786 72.195522 179.695313 72.257817 179.704212 72.264247" style="fill:none;stroke-width:0.50;stroke:#dce4c8;"/>
		<path vector-effect="non-scaling-stroke" d="M 194.065592 88.487055 C 197.336006 88.743823 200.20159 86.245337 200.463608 82.904729 C 200.72665 79.564166 198.288234 76.647411 195.017642 76.390243 C 191.747228 76.133475 188.881644 78.631961 188.619626 81.972569 C 188.356584 85.313132 190.795 88.229887 194.065592 88.487055" style="fill:none;stroke-width:0.50;stroke:#777a70;"/>
		<path stroke-opacity="0.773" vector-effect="non-scaling-stroke" d="M 176.243708 77.675973 C 176.28242 77.679733 176.331366 77.488398 176.351145 77.247404 C 176.371413 77.007834 176.35584 76.809824 176.316683 76.806909 C 176.27797 76.803149 176.229024 76.994485 176.209245 77.235479 C 176.188977 77.475049 176.204551 77.673059 176.243708 77.675973" style="fill:none;stroke-width:0.50;stroke:#ccd5b3;"/>
		<path vector-effect="non-scaling-stroke" d="M 191.98751 80.678807 Q 192.654959 79.84672 192.38353 78.867793 Q 192.127674 77.942263 191.32451 78.242616 C 190.605889 78.509596 189.210919 80.009132 189.938439 80.927988 C 190.483523 81.617686 191.489147 81.29731 191.98751 80.678807" style="fill:none;stroke-width:0.50;stroke:#777a70;"/>
		<path d="M 235.465178 16.986315 Q 234.744332 20.997687 234.43953 25.19372 L 234.366111 25.823348 C 234.359436 25.878968 234.419507 25.919015 234.468453 25.887868 Q 235.338362 25.338334 236.219396 24.855546 Q 241.107352 22.187972 245.897415 19.346861 Q 247.855267 18.183274 248.985482 17.320039 Q 249.319207 17.066409 249.612885 16.661489 Q 250.627408 16.011838 251.572962 15.32659 C 254.289482 13.350939 257.217361 11.408661 259.239733 9.986993 C 259.909407 9.515329 260.425569 9.272822 260.948404 8.854553 C 261.611404 8.322819 262.401219 7.91345 263.177686 7.423986 Q 263.251105 7.377265 263.444666 7.368366 C 263.562582 7.361691 263.644901 7.484057 263.591505 7.588624 L 258.736921 17.462429 Q 258.701324 17.533623 258.779193 17.520274 Q 261.235407 17.088657 262.025223 16.921795 Q 262.826162 16.752707 263.422417 16.672613 Q 263.927454 16.605868 264.804038 16.425657 Q 265.075468 16.367811 267.602877 15.8561 Q 267.611776 15.853875 268.426065 15.751533 Q 268.862132 15.695912 269.380518 15.511251 Q 269.618575 15.428932 269.776538 15.65809 Q 269.763189 15.65364 269.74984 15.649191 Q 269.723142 15.640291 269.703118 15.660315 C 267.240229 18.034211 265.17781 20.207871 263.567031 23.164673 Q 259.629079 30.388703 255.695576 37.047625 Q 255.490891 37.392474 255.379649 37.78627 C 255.377425 37.790719 255.384099 37.795169 255.388549 37.792944 Q 264.839635 31.596787 273.78346 25.876744 Q 275.816957 24.575217 277.191903 23.436103 Q 277.799282 23.117952 278.306544 23.000036 Q 281.169903 22.334811 285.499426 21.456002 Q 285.517224 21.453777 286.571795 21.173449 C 287.065708 21.042183 287.590768 21.039959 288.042409 20.935392 Q 289.517473 20.597217 291.217244 20.201197 C 292.420878 19.918643 293.464325 19.782929 294.614563 19.462553 Q 294.756952 19.422506 294.728029 19.569345 C 294.594539 20.194522 294.062804 20.259043 293.615613 20.63059 Q 290.841248 22.926616 288.126952 25.093603 Q 284.956567 27.625462 281.790631 30.199592 Q 276.195178 34.54024 270.993521 39.381474 Q 269.571853 40.705249 268.165759 42.182538 Q 268.08789 42.264856 268.199132 42.242608 Q 280.571423 39.908759 293.308586 36.713901 Q 296.935063 35.803944 300.258962 34.431223 Q 301.729576 34.920686 303.12677 35.152068 Q 305.25371 35.501367 305.393874 35.532515 Q 307.175965 35.910736 307.643179 36.035327 Q 307.656528 36.039776 308.62433 36.202189 C 309.098219 36.282283 309.567659 36.509216 310.030424 36.587085 Q 310.668951 36.691652 311.416494 36.947508 C 311.761343 37.063199 312.037223 37.007578 312.359823 37.11437 Q 313.861585 37.610508 315.187585 37.884162 Q 316.675997 38.188964 315.303276 38.843065 C 314.611353 39.174565 313.510061 39.666253 312.586756 40.175739 Q 309.990377 41.608531 306.824441 43.512987 Q 305.694226 44.191561 304.584035 44.990276 C 304.163542 44.503038 303.969982 43.893434 303.280284 43.601981 C 301.93871 43.036873 300.089874 42.796591 298.783898 43.635353 C 293.635637 46.943678 287.461728 51.549081 283.292392 54.641597 C 283.223423 54.692768 283.247896 54.80401 283.334664 54.819584 C 284.900946 55.119936 286.676362 55.569352 288.115828 55.818533 Q 300.456972 57.952147 312.947179 55.956473 C 314.771541 55.66502 316.811712 55.262325 318.382444 54.459161 Q 318.484786 54.405765 318.458088 54.292299 Q 318.048719 52.643698 316.825061 51.382218 Q 321.125662 53.500258 325.016893 56.241251 Q 325.277198 56.425913 325.399564 56.632822 Q 325.493007 56.795235 325.312795 56.841956 L 316.101991 59.258124 L 294.563392 63.756734 Q 294.187395 63.834603 294.567841 63.876875 Q 295.560116 63.981442 296.923938 64.324066 Q 303.122321 65.874774 312.301978 68.095157 Q 313.547884 68.397734 315.961826 68.927244 Q 317.830685 69.338838 319.6239 69.774905 Q 320.048843 70.382284 320.48491 70.789428 Q 321.859856 72.075381 323.668645 73.723982 Q 329.720188 79.23934 334.915171 85.221914 Q 335.217748 85.571212 334.754983 85.580112 Q 333.059661 85.60681 331.077335 85.566763 Q 327.998168 85.504468 320.696269 84.683504 Q 320.004346 84.516642 319.635024 84.476595 Q 312.575632 83.680105 305.542938 82.690055 Q 305.316005 82.658907 305.169166 82.667807 Q 304.888837 82.68338 305.104646 82.863592 Q 311.881484 88.530239 318.133262 95.000051 Q 321.497209 98.481913 324.19148 101.345272 Q 324.378366 101.541057 324.836681 101.928178 L 328.271822 105.67257 Q 328.356366 105.763788 328.271822 105.857231 C 328.185054 105.952899 328.042664 105.986271 327.920299 105.93955 C 327.657768 105.841657 327.466433 105.754889 327.154956 105.719292 C 324.685393 105.430063 322.46946 104.787087 320.095564 104.072916 Q 319.844158 103.997272 319.49041 103.823735 Q 318.945326 103.55453 319.22343 104.095164 Q 321.664071 108.865204 323.537379 114.093559 Q 323.510682 114.229274 323.621923 114.324942 L 326.18493 121.973915 C 326.222752 122.089606 326.122634 122.203072 326.002493 122.178599 C 323.510682 121.664663 321.15236 120.618992 318.858558 119.408683 C 317.806212 118.852475 317.054219 118.25622 316.081967 117.72671 C 315.984075 117.673314 315.868383 117.755633 315.883957 117.86465 Q 316.012997 118.836901 316.144263 120.216297 Q 316.495786 123.958465 316.569205 126.105428 C 316.627051 127.771827 316.787239 129.462699 316.796138 131.267038 Q 316.798363 131.84327 316.451289 131.43835 C 316.155387 131.095726 315.657024 131.017857 315.3144 130.777575 Q 314.513461 130.214693 313.487813 129.611763 Q 313.138514 129.404854 312.985001 129.78975 Q 312.964978 129.838696 312.831488 130.070078 Q 308.942481 136.860266 302.677354 141.703725 Q 299.337881 144.28453 295.600163 146.184537 Q 290.233868 148.909956 284.420382 150.396144 C 282.887473 150.787715 280.791681 151.121439 279.674815 151.330574 C 279.069661 151.446265 278.600222 151.399543 278.061812 151.546382 C 277.514504 151.697671 276.70244 151.613127 276.204077 151.737718 Q 275.543302 151.902355 274.733463 151.868983 Q 274.497631 151.860084 273.26285 151.991349 Q 270.352769 152.302825 269.560729 152.3006 Q 264.174411 152.282802 258.805891 152.431865 Q 250.33818 152.336198 238.468701 152.37402 Q 236.906869 152.380694 236.012486 152.449664 L 230.094433 152.322849 C 229.963168 152.320624 229.858601 152.213832 229.856376 152.080342 Q 229.856376 150.462889 230.770782 148.92553 Q 231.06001 148.438292 231.442681 147.788641 Q 231.689638 147.655151 232.546198 147.049997 Q 234.352762 145.772943 236.646564 145.999876 Q 237.474201 146.055497 238.028184 146.180087 Q 241.425503 146.93653 245.134298 147.86206 C 247.405851 148.429393 248.932086 148.663 251.034552 148.291453 C 255.070398 147.579507 258.917132 145.363574 260.859411 141.714849 C 262.812813 138.048326 263.297827 133.605337 262.628152 129.549468 Q 262.39232 128.125575 261.702622 125.600391 Q 260.323226 120.639015 257.079421 116.658791 Q 255.359626 114.418385 253.573086 112.200227 Q 253.559737 112.182429 253.557512 112.16018 Q 253.557512 112.129033 253.564186 112.097885 Q 253.575311 112.046714 253.617582 112.077862 Q 256.173914 113.908898 258.287505 116.095908 Q 262.99525 120.567821 264.715045 122.619116 Q 266.566105 124.830599 267.473836 125.68271 Q 271.149259 130.248065 273.311796 133.814471 Q 276.221876 138.620108 276.228551 138.629007 C 277.950571 141.220937 280.415685 142.660403 282.938644 144.380198 Q 283.101057 144.489215 283.054335 144.300104 C 281.726111 138.964957 279.910648 133.643159 277.701389 129.05333 Q 274.929249 123.295465 270.697618 118.852475 Q 268.886605 116.950244 264.492562 113.308194 Q 263.72277 112.654093 262.92628 111.999992 Q 247.412526 99.256154 242.144124 94.966678 Q 240.913791 93.963279 239.042708 92.935407 C 237.131577 91.885286 235.180399 91.578259 233.193624 92.078846 Q 232.152403 92.341376 230.848651 92.984353 Q 230.779681 93.017725 230.815279 92.948756 L 230.86645 92.844188 Q 230.877574 92.82194 230.899822 92.810816 Q 235.187074 90.670528 238.715657 87.417823 Q 239.828073 86.392176 240.902667 85.264186 L 240.878194 85.544514 Q 240.869295 85.664655 240.971637 85.724726 Q 246.039804 88.641481 249.61066 90.910809 Q 254.852364 94.239158 260.347699 95.654151 C 263.907431 96.570782 267.689645 97.282728 271.102538 98.252755 Q 276.720239 99.850185 282.175527 101.934852 C 287.472852 103.972798 291.953664 105.556879 298.078626 107.968597 C 299.364579 108.473634 300.434723 109.034291 301.582737 109.537103 Q 301.916462 109.683942 301.665056 109.419187 C 298.699354 106.299973 295.684707 103.040594 292.443127 100.121614 Q 286.396033 94.508363 279.058537 90.799568 C 271.218229 86.839367 262.338924 83.430924 253.602009 80.890166 Q 249.052227 79.566391 248.048828 79.263814 Q 246.126573 78.685357 244.199868 77.619663 Q 244.231016 76.080079 243.866144 74.564968 C 242.480073 68.820452 236.361785 67.045036 231.264695 68.566821 Q 228.532601 69.383334 226.249923 71.16765 Q 224.276497 72.709458 223.90495 72.996462 Q 223.480007 73.323512 223.760336 72.867421 Q 225.558001 69.948442 226.512453 68.437781 C 228.2189 65.73906 230.486004 61.258248 227.424635 58.635171 C 226.332242 57.698516 224.663618 57.438211 223.244175 57.609523 C 219.679994 58.041141 217.55083 60.063513 215.790988 63.053687 C 215.733142 63.15158 215.588528 63.138231 215.548481 63.031439 Q 215.417216 62.662117 215.399417 62.299469 Q 215.254803 59.402738 216.129162 56.632822 L 217.074716 54.543705 Q 218.396266 51.738191 218.547555 48.474363 Q 219.097088 47.595554 220.438662 45.673299 C 223.91385 40.698575 226.741611 35.138719 228.521477 29.285186 C 228.552624 29.178394 228.452507 29.080502 228.34794 29.118324 C 225.549101 30.123948 222.948273 31.799246 220.53433 33.810495 C 216.267102 37.368001 212.729619 41.370474 209.410169 45.766742 Q 208.293304 47.244031 207.823864 48.133963 C 207.21871 49.277527 207.040723 50.788188 207.027374 52.196507 Q 207.025149 52.303299 206.925032 52.343346 Q 206.480066 52.516883 206.275381 52.930701 Q 205.409921 53.420164 202.470918 54.901903 Q 194.485996 58.926624 187.924966 65.498778 Q 187.206346 66.219623 184.601067 69.054059 Q 185.326362 67.587895 186.076131 66.208499 C 188.26759 62.177103 190.563617 58.127909 193.128848 54.321221 Q 194.134473 52.826134 195.131197 51.368869 Q 197.304858 48.400943 199.371727 45.45749 Q 199.988006 44.580907 200.010254 43.441793 Q 200.070324 40.540612 199.798895 38.002078 Q 199.438472 34.631458 198.86669 31.283085 Q 198.844442 31.154045 198.73765 31.136247 C 198.686479 31.127347 198.637533 31.147371 198.606385 31.187418 L 195.260238 35.666005 Q 191.213268 41.724222 188.794876 48.621202 Q 187.106228 53.244403 185.417581 57.880953 C 183.757856 62.441858 182.020262 66.66014 180.153628 70.989663 Q 180.075759 71.165425 180.069084 70.974089 L 179.946719 68.157452 L 179.472829 58.463859 L 179.412759 58.092312 Q 179.410534 57.961047 179.350464 57.854255 Q 179.254796 56.806359 179.245896 55.742889 Q 179.239222 55.106587 179.070135 54.53258 Q 179.016739 54.352369 178.99449 54.539255 L 178.660766 57.144533 L 176.756309 70.277717 L 176.269071 73.459227 Q 174.842954 69.605818 173.387914 65.934845 Q 171.539078 61.269372 169.966122 56.299097 Q 168.063891 50.287601 167.200656 44.218259 Q 167.129461 43.715447 167.525481 44.033598 C 167.974897 44.389571 168.635672 44.903507 169.114011 45.355148 Q 170.606874 46.772366 172.682642 48.812537 C 173.018592 49.141812 173.652669 49.56453 173.957471 50.03842 Q 174.424685 50.768165 174.23335 49.922728 Q 172.540253 42.460642 172.862853 34.40675 C 172.867303 34.331105 172.942947 34.266585 173.043065 34.253236 Q 173.092011 34.246562 173.152081 34.340005 Q 175.82188 38.478192 179.624118 43.014625 Q 179.953393 43.40842 180.823302 44.685474 Q 181.001289 44.945779 181.034661 44.632078 Q 181.068034 44.320601 181.041336 43.684299 Q 180.792155 37.267884 181.355037 30.219616 Q 181.557497 27.701106 182.022487 25.062455 Q 182.209373 24.003435 182.560896 25.06468 C 182.729983 25.583066 183.157151 26.117025 183.444155 26.71328 Q 184.505399 28.90919 185.017111 29.892565 Q 186.340886 32.433324 188.20307 36.349028 Q 188.256466 36.462494 188.316537 36.353478 Q 188.445577 36.11987 188.523446 35.668229 Q 189.709282 28.724529 191.413503 21.55612 Q 191.640436 20.601667 191.84957 19.529298 Q 191.916315 19.184449 192.743953 16.031862 Q 192.855194 15.611368 193.144422 15.922845 Q 193.197818 15.980691 193.24454 16.165352 Q 193.282362 16.312191 193.340208 16.398959 C 194.488221 18.056459 195.329207 19.584918 196.454972 21.28914 Q 197.456147 22.802026 198.684254 24.920066 Q 198.775472 25.080254 199.013529 25.202619 Q 199.106972 25.251566 199.086949 25.146999 L 199.053576 24.953438 Q 199.227113 25.162572 199.701002 25.031307 Q 200.969157 24.679784 202.969281 24.196995 C 203.193989 24.141375 203.400898 24.025683 203.563311 23.861046 C 204.706874 22.695234 205.854888 21.602841 207.329951 20.768529 Q 207.321052 21.042183 207.596931 20.973214 C 207.665901 20.955415 207.719297 20.904244 207.74377 20.839724 Q 208.744945 17.996388 210.001975 15.26207 Q 211.319075 12.396486 212.660649 9.715563 Q 212.700696 9.63547 213.492736 8.149282 Q 213.804213 7.566376 214.24473 6.545178 Q 214.324823 6.358292 214.462763 6.309346 Q 214.625176 6.249275 214.654099 6.420587 L 216.442864 16.952942 L 217.764414 23.456126 Q 217.791112 23.587391 217.904578 23.520646 C 218.196031 23.344885 218.40739 23.146875 218.741115 22.94664 C 221.904826 21.051083 225.044064 19.191123 227.709413 16.568046 Q 227.996416 16.287717 228.385762 15.711486 Q 233.015638 9.96697 238.054882 4.489433 C 238.103829 4.436037 238.190597 4.436037 238.237318 4.491658 Q 238.310738 4.571752 238.243993 4.736389 Q 238.168349 4.9255 237.88802 5.85548 Q 237.489775 7.183705 236.604292 10.478681 Q 236.361785 11.373063 236.23052 12.118382 C 236.09703 12.863701 235.881221 13.53115 235.792228 14.314291 Q 235.647614 15.595795 235.465178 16.986315 Z M 229.818554 47.655625 C 229.789631 47.691222 229.825228 47.742393 229.8675 47.724594 C 230.132255 47.615578 230.316916 47.475413 230.650641 47.373071 C 236.490825 45.557608 242.095177 42.358299 246.834069 38.580535 Q 251.735375 34.675954 255.372975 29.4387 Q 256.698975 27.529794 259.110693 23.883294 Q 259.397696 23.447227 260.149689 22.490549 C 260.187512 22.441603 260.160814 22.368183 260.100743 22.357059 C 258.02275 21.949915 255.379649 22.730831 253.459619 23.685284 C 248.191217 26.301686 243.937338 30.479921 239.999385 35.143169 C 238.192822 37.283458 236.025835 40.23581 234.110255 42.558534 Q 232.859899 44.073645 229.818554 47.655625 Z M 217.900129 26.697707 C 217.239353 26.65766 216.856682 26.642086 216.494035 26.090327 C 216.385018 25.923465 216.175884 25.85227 215.986773 25.919015 Q 215.450588 26.105901 215.005622 26.388455 Q 211.917555 28.339633 208.560284 30.179569 Q 207.434519 30.795847 207.125267 31.300884 Q 206.61578 32.130746 205.988378 32.953934 Q 205.921633 33.042928 205.921633 33.156394 Q 205.921633 33.570213 206.043999 34.110847 Q 206.49119 36.06425 207.098569 38.097746 C 207.116368 38.155592 207.185337 38.18229 207.236509 38.148917 C 208.942955 37.036501 210.880783 36.444696 212.427042 35.597035 Q 213.630676 34.93626 214.206907 34.324431 C 216.040169 32.373253 217.791112 29.62781 218.073665 26.902391 C 218.08479 26.797824 218.004696 26.704381 217.900129 26.697707 Z M 292.516546 43.595306 C 292.547694 43.573058 292.541019 43.526336 292.505422 43.512987 Q 291.795701 43.250457 290.863496 43.039098 C 286.872147 42.135816 282.985366 41.935581 278.969544 42.738746 Q 274.404188 43.650927 270.254877 45.424118 Q 264.470313 47.895906 260.323226 52.356695 Q 260.243132 52.441238 260.354374 52.472386 Q 260.748169 52.588077 261.213159 52.650373 C 271.198205 53.987497 282.544849 52.572503 290.391832 45.711121 C 291.045932 45.141564 291.829073 44.122591 292.516546 43.595306 Z M 259.847112 49.597903 Q 259.869361 49.575655 259.884934 49.555631 C 259.931656 49.488886 259.911632 49.397668 259.842663 49.355396 Q 258.202961 48.383145 256.169465 48.44544 C 254.055874 48.512185 252.502942 49.346497 250.367103 50.478936 Q 248.569439 51.431165 245.990858 52.921802 Q 240.428778 56.138909 236.117053 60.8956 C 236.09258 60.922298 236.110379 60.966795 236.145976 60.96902 Q 241.169647 61.278271 246.0932 60.717614 Q 248.211241 60.477332 249.795321 59.126859 Q 255.014777 54.672745 259.847112 49.597903 Z M 253.704351 60.581899 L 250.180217 63.578748 C 248.480445 65.082734 246.903039 66.484378 244.90514 67.605694 Q 244.751627 67.690237 244.920714 67.743633 Q 248.342506 68.831576 252.006804 68.333214 Q 254.531988 68.039536 256.952606 67.227472 C 261.809414 65.574422 266.425941 62.817855 270.662021 59.745362 Q 272.021393 58.759761 273.543178 57.45156 Q 273.796809 57.235751 273.961447 56.819708 Q 274.001494 56.717366 273.961447 56.617248 C 273.698917 55.985396 272.619873 55.66502 272.06144 55.620523 C 269.384967 55.409164 267.120088 56.13446 264.58378 56.953198 C 263.05977 57.444886 260.970652 57.667369 259.597931 57.956597 Q 256.358576 58.637396 253.704351 60.581899 Z M 274.71789 68.039536 Q 272.33287 68.337663 270.150309 68.918345 Q 269.304873 69.143053 268.41494 69.683687 C 268.272551 69.770455 268.241404 69.964016 268.348195 70.090831 C 269.069041 70.956291 270.74434 71.601492 271.774437 71.908519 Q 274.370816 72.68276 276.208527 73.049858 Q 287.592993 75.336985 297.980734 76.173522 Q 298.465747 76.213569 298.935187 76.184646 L 306.920109 76.945539 Q 310.80689 77.633012 314.695897 77.252565 Q 315.839461 77.141324 316.905155 76.72528 Q 317.181034 76.618488 317.236655 76.551743 Q 317.508085 76.235817 317.156561 76.013334 Q 315.84391 75.174572 315.014048 74.120002 Q 315.294377 72.778428 314.433367 71.995287 Q 312.838162 70.544697 310.740146 69.870573 Q 308.666602 69.203123 307.051374 68.898321 Q 300.770673 67.708036 294.369831 67.576771 Q 290.006936 67.487778 283.688413 67.547848 Q 278.704789 67.594569 274.71789 68.039536 Z M 294.463274 93.442668 L 295.177445 94.192437 Q 293.542194 94.733071 292.745704 96.06797 Q 292.687858 96.165863 292.7991 96.192561 Q 293.971586 96.466215 295.144073 96.484014 Q 297.182019 96.512937 299.21774 96.486239 Q 304.0523 96.935655 308.900209 97.149239 C 310.166139 97.204859 311.596706 97.129215 312.615679 96.971252 Q 313.183011 96.884483 313.59238 96.579681 C 313.679149 96.515161 313.714746 96.401695 313.681373 96.299353 C 313.158538 94.695249 311.427619 93.754145 310.054897 93.191262 C 302.20124 89.97193 294.543368 86.567937 287.016761 82.56324 Q 286.585144 82.334082 286.031161 82.104924 Q 279.238748 77.997884 272.537554 74.958764 C 269.2804 73.481475 266.488236 73.105478 262.378971 72.560395 Q 256.327428 71.759455 250.438297 71.140952 Q 250.082324 71.10313 250.391576 71.281116 Q 260.908357 77.305961 268.543981 81.806797 C 272.192705 83.958209 275.596698 86.138545 279.172003 88.276608 C 283.988765 91.153316 288.883395 92.637279 294.463274 93.442668 Z M 268.234729 105.734865 C 273.042591 109.161107 277.645769 112.064513 282.809604 114.68314 Q 286.251419 116.425183 289.635389 117.112657 Q 293.19067 117.833502 296.218667 118.291818 Q 299.182143 118.743458 300.652757 118.774606 C 302.465995 118.812428 303.758623 118.45423 305.340478 118.289593 C 305.422797 118.280693 305.456169 118.178351 305.391649 118.124955 Q 303.360378 116.463006 300.962009 114.8767 Q 294.552267 110.638395 288.278241 107.419063 Q 285.203523 105.841657 282.022013 105.588026 Q 275.136158 105.038493 268.261427 105.645872 Q 268.125712 105.656996 268.234729 105.734865 Z M 289.139251 130.566216 Q 291.942539 135.445273 295.833771 139.492242 Q 296.737053 140.431121 297.239865 140.655829 C 299.462472 141.643655 300.610485 139.910511 300.824069 138.010504 C 301.160019 134.986957 300.034254 131.480622 298.661532 128.821948 Q 298.127573 127.685058 297.537992 126.574867 Q 297.30661 126.134351 296.921714 125.894069 Q 294.72358 124.519122 291.840197 123.517948 Q 288.207046 122.258693 284.849775 121.250844 C 284.791929 121.233046 284.740758 121.290891 284.763006 121.346512 Q 286.658563 126.087629 289.139251 130.566216 Z" style="fill:#394c2f;"/>
		<path d="M 228.385762 15.711486 Q 227.996416 16.287717 227.709413 16.568046 C 225.044064 19.191123 221.904826 21.051083 218.741115 22.94664 C 218.40739 23.146875 218.196031 23.344885 217.904578 23.520646 Q 217.791112 23.587391 217.764414 23.456126 L 216.442864 16.952942 Q 217.875655 14.765932 219.33292 12.752459 Q 221.562202 9.668842 224.541252 7.114735 Q 224.743712 6.941198 224.983994 6.809933 Q 225.168655 6.709815 225.264323 6.896701 C 226.670417 9.648819 227.471356 12.690164 228.385762 15.711486 Z" style="fill:#9fae81;"/>
		<path d="M 249.612885 16.661489 Q 249.319207 17.066409 248.985482 17.320039 Q 247.855267 18.183274 245.897415 19.346861 Q 241.107352 22.187972 236.219396 24.855546 Q 235.338362 25.338334 234.468453 25.887868 C 234.419507 25.919015 234.359436 25.878968 234.366111 25.823348 L 234.43953 25.19372 Q 234.777705 24.799925 235.073607 24.101328 Q 235.845624 22.268066 236.586493 20.421455 Q 237.107104 19.128828 237.901369 17.284442 Q 238.553245 15.769332 239.198446 14.145204 Q 239.765778 13.584546 240.426553 12.890399 C 242.130775 11.101634 244.231016 9.628795 246.389103 8.43851 Q 246.816271 8.202678 247.330207 8.051389 C 247.485945 8.004668 247.652808 8.075862 247.726227 8.220476 Q 247.917563 8.598698 248.133371 9.286171 Q 249.15012 12.529976 249.357029 14.759258 Q 249.47272 16.005164 249.612885 16.661489 Z" style="fill:#9fae81;"/>
		<path d="M 207.329951 20.768529 C 205.854888 21.602841 204.706874 22.695234 203.563311 23.861046 C 203.400898 24.025683 203.193989 24.141375 202.969281 24.196995 Q 200.969157 24.679784 199.701002 25.031307 Q 199.227113 25.162572 199.053576 24.953438 C 198.061301 23.126851 198.030153 21.046633 198.443972 19.057633 Q 199.26716 15.099657 201.345153 11.68009 Q 201.596559 11.264047 201.921385 10.999292 C 202.008153 10.928097 202.137193 10.94812 202.197264 11.043788 Q 205.178539 15.71816 207.329951 20.768529 Z" style="fill:#bcc79f;"/>
		<path d="M 277.191903 23.436103 Q 275.816957 24.575217 273.78346 25.876744 Q 264.839635 31.596787 255.388549 37.792944 C 255.384099 37.795169 255.377425 37.790719 255.379649 37.78627 Q 255.490891 37.392474 255.695576 37.047625 Q 259.629079 30.388703 263.567031 23.164673 C 265.17781 20.207871 267.240229 18.034211 269.703118 15.660315 Q 269.723142 15.640291 269.74984 15.649191 Q 269.763189 15.65364 269.776538 15.65809 Q 269.863306 15.700362 270.003471 15.673664 Q 271.709917 14.868275 274.795759 13.880449 Q 278.021765 12.848127 280.793906 12.129506 C 280.925171 12.096134 281.040862 12.216275 281.005265 12.345315 Q 280.177628 15.270969 279.343316 17.865123 Q 278.640269 20.058808 277.191903 23.436103 Z" style="fill:#9fae81;"/>
		<path d="M 239.198446 14.145204 Q 238.553245 15.769332 237.901369 17.284442 Q 237.107104 19.128828 236.586493 20.421455 Q 235.845624 22.268066 235.073607 24.101328 Q 234.777705 24.799925 234.43953 25.19372 Q 234.744332 20.997687 235.465178 16.986315 L 239.198446 14.145204 Z" style="fill:#879567;"/>
		<path d="M 270.003471 15.673664 Q 269.863306 15.700362 269.776538 15.65809 L 270.003471 15.673664 Z" style="fill:#879567;"/>
		<path d="M 300.258962 34.431223 Q 296.935063 35.803944 293.308586 36.713901 Q 280.571423 39.908759 268.199132 42.242608 Q 268.08789 42.264856 268.165759 42.182538 Q 269.571853 40.705249 270.993521 39.381474 Q 276.195178 34.54024 281.790631 30.199592 Q 285.018862 29.202867 286.264768 28.911414 Q 290.427429 27.932488 294.803673 27.761176 Q 295.878267 27.71668 296.826046 27.830146 C 297.89174 27.956962 298.981908 27.832371 300.063176 28.090451 Q 300.356854 28.161646 300.877465 28.166096 C 301.527116 28.170545 302.178992 28.455324 302.739649 28.524294 Q 303.422673 28.606612 303.880988 28.764576 C 304.408273 28.947012 305.231461 29.062703 305.854414 29.440925 Q 305.952307 29.500995 305.934508 29.612237 Q 305.841065 30.201817 305.51179 30.517743 Q 303.783096 32.173018 301.651707 33.463421 Q 301.440348 33.592461 300.970908 33.966233 Q 300.666106 34.206515 300.258962 34.431223 Z" style="fill:#bcc79f;"/>
		<path d="M 218.547555 48.474363 Q 216.000122 51.891705 213.04777 54.835158 Q 212.965451 54.915252 213.081142 54.906352 L 217.074716 54.543705 L 216.129162 56.632822 C 213.724119 57.142308 211.85526 57.65402 209.623753 56.868654 Q 208.477965 56.46596 207.708173 55.6005 Q 206.68475 54.448037 206.275381 52.930701 Q 206.480066 52.516883 206.925032 52.343346 Q 207.025149 52.303299 207.027374 52.196507 C 207.040723 50.788188 207.21871 49.277527 207.823864 48.133963 Q 208.293304 47.244031 209.410169 45.766742 C 212.729619 41.370474 216.267102 37.368001 220.53433 33.810495 C 222.948273 31.799246 225.549101 30.123948 228.34794 29.118324 C 228.452507 29.080502 228.552624 29.178394 228.521477 29.285186 C 226.741611 35.138719 223.91385 40.698575 220.438662 45.673299 Q 219.097088 47.595554 218.547555 48.474363 Z" style="fill:#ced7b3;"/>
		<path d="M 199.798895 38.002078 L 195.260238 35.666005 L 198.606385 31.187418 C 198.637533 31.147371 198.686479 31.127347 198.73765 31.136247 Q 198.844442 31.154045 198.86669 31.283085 Q 199.438472 34.631458 199.798895 38.002078 Z" style="fill:#9fae81;"/>
		<path d="M 199.798895 38.002078 Q 200.070324 40.540612 200.010254 43.441793 Q 199.988006 44.580907 199.371727 45.45749 Q 197.304858 48.400943 195.131197 51.368869 Q 192.283412 49.224131 188.794876 48.621202 Q 191.213268 41.724222 195.260238 35.666005 L 199.798895 38.002078 Z" style="fill:#bcc79f;"/>
		<path d="M 304.584035 44.990276 C 304.773146 46.480913 306.423971 46.747893 307.56531 47.239581 C 311.574458 48.9705 313.810414 49.878232 316.825061 51.382218 Q 318.048719 52.643698 318.458088 54.292299 Q 318.484786 54.405765 318.382444 54.459161 C 316.811712 55.262325 314.771541 55.66502 312.947179 55.956473 Q 300.456972 57.952147 288.115828 55.818533 C 286.676362 55.569352 284.900946 55.119936 283.334664 54.819584 C 283.247896 54.80401 283.223423 54.692768 283.292392 54.641597 C 287.461728 51.549081 293.635637 46.943678 298.783898 43.635353 C 300.089874 42.796591 301.93871 43.036873 303.280284 43.601981 C 303.969982 43.893434 304.163542 44.503038 304.584035 44.990276 Z" style="fill:#9fae81;"/>
		<path d="M 195.131197 51.368869 Q 194.134473 52.826134 193.128848 54.321221 C 190.563617 58.127909 188.26759 62.177103 186.076131 66.208499 Q 185.326362 67.587895 184.601067 69.054059 Q 181.753282 71.525848 181.076933 72.342361 Q 180.251521 73.341311 179.817678 74.702908 Q 177.917672 80.689931 177.101158 83.82027 C 176.903148 84.576713 176.669541 85.135145 176.311343 86.109622 Q 175.775158 87.566887 177.34144 87.887263 Q 175.503729 87.727075 173.830655 87.273209 Q 173.461333 87.173092 173.819531 87.037377 C 174.593773 86.745924 175.528202 86.632457 176.142256 85.967233 C 176.151155 85.958333 176.142256 85.942759 176.128907 85.947209 L 173.821756 86.841592 Q 173.628195 86.917236 173.775034 86.768172 C 174.231125 86.307632 174.992018 85.711377 175.263447 84.930461 Q 175.935346 82.994857 176.053262 81.108199 C 176.128907 79.855619 176.322467 78.867793 176.509353 77.584065 Q 176.638393 76.698582 176.400336 75.986636 L 176.269071 73.459227 L 176.756309 70.277717 C 177.372588 71.269992 178.749759 72.260042 179.755383 71.263318 Q 179.831027 71.185448 179.835477 71.076432 L 179.946719 68.157452 L 180.069084 70.974089 Q 180.075759 71.165425 180.153628 70.989663 C 182.020262 66.66014 183.757856 62.441858 185.417581 57.880953 Q 187.106228 53.244403 188.794876 48.621202 Q 192.283412 49.224131 195.131197 51.368869 Z M 179.704212 72.264247 C 179.713111 72.268942 179.755383 72.215546 179.797188 72.143239 C 179.839927 72.070932 179.8644 72.008636 179.8555 72.002206 C 179.846601 71.997512 179.804329 72.050908 179.762525 72.123215 C 179.719786 72.195522 179.695313 72.257817 179.704212 72.264247 Z" style="fill:#ced7b3;"/>
		<path d="M 218.547555 48.474363 Q 218.396266 51.738191 217.074716 54.543705 L 213.081142 54.906352 Q 212.965451 54.915252 213.04777 54.835158 Q 216.000122 51.891705 218.547555 48.474363 Z" style="fill:#879567;"/>
		<path d="M 206.275381 52.930701 Q 206.68475 54.448037 207.708173 55.6005 Q 208.477965 56.46596 209.623753 56.868654 C 211.85526 57.65402 213.724119 57.142308 216.129162 56.632822 Q 215.254803 59.402738 215.399417 62.299469 Q 215.417216 62.662117 215.548481 63.031439 C 215.588528 63.138231 215.733142 63.15158 215.790988 63.053687 C 217.55083 60.063513 219.679994 58.041141 223.244175 57.609523 C 224.663618 57.438211 226.332242 57.698516 227.424635 58.635171 C 230.486004 61.258248 228.2189 65.73906 226.512453 68.437781 Q 225.558001 69.948442 223.760336 72.867421 Q 223.480007 73.323512 223.90495 72.996462 Q 224.276497 72.709458 226.249923 71.16765 Q 228.532601 69.383334 231.264695 68.566821 C 236.361785 67.045036 242.480073 68.820452 243.866144 74.564968 Q 244.231016 76.080079 244.199868 77.619663 C 244.04858 78.304911 243.992959 79.068028 243.84612 79.657609 C 243.323285 81.748951 242.270939 83.600011 240.902667 85.264186 Q 239.828073 86.392176 238.715657 87.417823 Q 235.187074 90.670528 230.899822 92.810816 Q 230.877574 92.82194 230.86645 92.844188 L 230.815279 92.948756 Q 230.779681 93.017725 230.848651 92.984353 Q 232.152403 92.341376 233.193624 92.078846 C 235.180399 91.578259 237.131577 91.885286 239.042708 92.935407 Q 240.913791 93.963279 242.144124 94.966678 Q 247.412526 99.256154 262.92628 111.999992 Q 263.72277 112.654093 264.492562 113.308194 Q 262.221008 115.490754 259.411045 116.99919 Q 258.921582 116.429633 258.287505 116.095908 Q 256.173914 113.908898 253.617582 112.077862 Q 253.575311 112.046714 253.564186 112.097885 Q 253.557512 112.129033 253.557512 112.16018 Q 253.559737 112.182429 253.573086 112.200227 Q 255.359626 114.418385 257.079421 116.658791 Q 259.898283 120.857049 261.702622 125.600391 Q 262.39232 128.125575 262.628152 129.549468 C 263.297827 133.605337 262.812813 138.048326 260.859411 141.714849 C 258.917132 145.363574 255.070398 147.579507 251.034552 148.291453 C 248.932086 148.663 247.405851 148.429393 245.134298 147.86206 Q 241.425503 146.93653 238.028184 146.180087 Q 237.474201 146.055497 236.646564 145.999876 Q 239.231818 143.098695 240.057231 139.492242 C 241.487798 133.22934 239.173973 126.715032 235.002413 121.96279 Q 229.925346 116.176002 222.345343 114.643093 C 219.07039 113.980093 215.463937 113.946721 211.990975 114.042388 C 210.386871 113.888875 209.080894 113.579623 208.039673 112.269197 L 207.661451 111.766385 Q 206.537911 110.613922 203.836965 108.206654 Q 202.975955 107.441312 203.060499 105.946224 Q 202.593284 105.705943 201.834616 105.683694 Q 199.416224 104.181933 198.001231 102.557805 Q 194.795248 98.882383 194.748526 98.824537 Q 191.304486 94.75087 187.099554 91.678376 Q 183.90692 89.346752 179.739809 88.316655 C 179.027863 88.140894 178.140155 88.058575 177.34144 87.887263 Q 175.775158 87.566887 176.311343 86.109622 C 176.669541 85.135145 176.903148 84.576713 177.101158 83.82027 Q 177.917672 80.689931 179.817678 74.702908 Q 180.251521 73.341311 181.076933 72.342361 Q 181.753282 71.525848 184.601067 69.054059 Q 187.206346 66.219623 187.924966 65.498778 Q 194.485996 58.926624 202.470918 54.901903 Q 205.409921 53.420164 206.275381 52.930701 Z M 194.065592 88.487055 C 197.336006 88.743823 200.20159 86.245337 200.463608 82.904729 C 200.72665 79.564166 198.288234 76.647411 195.017642 76.390243 C 191.747228 76.133475 188.881644 78.631961 188.619626 81.972569 C 188.356584 85.313132 190.795 88.229887 194.065592 88.487055 Z" style="fill:#eaf1dd;"/>
		<path fill-opacity="0.541" d="M 179.350464 57.854255 Q 179.346014 57.998869 179.412759 58.092312 L 179.472829 58.463859 Q 179.139104 58.370416 179.208074 58.081188 Q 179.236997 57.969946 179.123531 57.943248 Q 179.036762 57.921 178.923296 57.967721 Q 178.689688 58.067839 178.774232 57.827557 Q 178.885474 57.518305 179.170252 57.19348 Q 179.248121 57.104486 179.130205 57.106711 Q 179.070135 57.106711 179.038987 57.155657 Q 178.99449 57.226852 178.874349 57.160107 Q 178.776457 57.106711 178.660766 57.144533 L 178.99449 54.539255 Q 179.016739 54.352369 179.070135 54.53258 Q 179.239222 55.106587 179.245896 55.742889 Q 179.254796 56.806359 179.350464 57.854255 Z" style="fill:#eaeed8;"/>
		<path d="M 179.472829 58.463859 L 179.946719 68.157452 L 179.835477 71.076432 Q 179.831027 71.185448 179.755383 71.263318 C 178.749759 72.260042 177.372588 71.269992 176.756309 70.277717 L 178.660766 57.144533 Q 178.776457 57.106711 178.874349 57.160107 Q 178.99449 57.226852 179.038987 57.155657 Q 179.070135 57.106711 179.130205 57.106711 Q 179.248121 57.104486 179.170252 57.19348 Q 178.885474 57.518305 178.774232 57.827557 Q 178.689688 58.067839 178.923296 57.967721 Q 179.036762 57.921 179.123531 57.943248 Q 179.236997 57.969946 179.208074 58.081188 Q 179.139104 58.370416 179.472829 58.463859 Z" style="fill:#bcc79f;"/>
		<path d="M 179.350464 57.854255 Q 179.410534 57.961047 179.412759 58.092312 Q 179.346014 57.998869 179.350464 57.854255 Z" style="fill:#9fae81;"/>
		<path d="M 316.101991 59.258124 Q 320.560554 61.716563 324.643121 64.909197 Q 326.625446 66.459905 328.051564 67.854875 C 328.153906 67.954992 328.145007 68.124079 328.03154 68.213073 Q 327.844654 68.359912 327.504255 68.460029 Q 323.710916 69.57467 319.6239 69.774905 Q 317.830685 69.338838 315.961826 68.927244 Q 313.547884 68.397734 312.301978 68.095157 Q 303.122321 65.874774 296.923938 64.324066 Q 295.560116 63.981442 294.567841 63.876875 Q 294.187395 63.834603 294.563392 63.756734 L 316.101991 59.258124 Z" style="fill:#9fae81;"/>
		<path d="M 177.34144 87.887263 C 178.140155 88.058575 179.027863 88.140894 179.739809 88.316655 Q 183.90692 89.346752 187.099554 91.678376 Q 191.304486 94.75087 194.748526 98.824537 Q 194.795248 98.882383 198.001231 102.557805 Q 199.416224 104.181933 201.834616 105.683694 C 201.429697 105.692594 200.991405 105.650322 200.619858 105.690369 C 195.146771 106.279949 189.958463 106.580302 184.678936 106.190956 C 179.991215 105.843882 175.721762 104.551255 171.732639 102.014946 Q 169.494458 100.591054 168.786961 100.17501 Q 166.41529 98.773366 163.536357 98.18601 Q 166.468686 95.567383 167.202881 94.833188 Q 169.841531 92.183413 171.648095 89.328954 Q 172.860628 87.413373 173.127608 87.041826 Q 173.181004 86.970632 173.201028 86.852716 Q 173.209927 86.808219 173.192128 86.770397 C 173.167655 86.721451 173.221051 86.668055 173.269998 86.692528 Q 173.412387 86.759273 173.450209 86.628008 L 174.504779 85.682454 Q 174.589323 85.60681 174.604897 85.497793 Q 174.671642 85.032803 174.725038 84.881515 C 175.28792 83.330807 175.701739 82.447548 175.775158 80.972485 Q 175.792957 80.620961 175.975393 79.350582 Q 176.115558 78.353857 176.086635 77.366032 Q 176.037689 77.154673 176.108883 76.889918 Q 176.135581 76.965562 176.173403 76.872119 L 176.197877 75.86427 Q 176.200101 75.810874 176.224575 75.859821 Q 176.235699 75.882069 176.251272 75.913217 Q 176.253497 75.917666 176.257947 75.944364 Q 176.269071 76.042257 176.28687 76.137925 Q 176.326917 76.351508 176.371413 76.182421 Q 176.386987 76.115676 176.400336 75.986636 Q 176.638393 76.698582 176.509353 77.584065 C 176.322467 78.867793 176.128907 79.855619 176.053262 81.108199 Q 175.935346 82.994857 175.263447 84.930461 C 174.992018 85.711377 174.231125 86.307632 173.775034 86.768172 Q 173.628195 86.917236 173.821756 86.841592 L 176.128907 85.947209 C 176.142256 85.942759 176.151155 85.958333 176.142256 85.967233 C 175.528202 86.632457 174.593773 86.745924 173.819531 87.037377 Q 173.461333 87.173092 173.830655 87.273209 Q 175.503729 87.727075 177.34144 87.887263 Z M 176.243708 77.675973 C 176.28242 77.679733 176.331366 77.488398 176.351145 77.247404 C 176.371413 77.007834 176.35584 76.809824 176.316683 76.806909 C 176.27797 76.803149 176.229024 76.994485 176.209245 77.235479 C 176.188977 77.475049 176.204551 77.673059 176.243708 77.675973 Z" style="fill:#bcc79f;"/>
		<path fill-opacity="0.541" d="M 176.07996 76.073404 Q 176.117783 75.999985 176.140031 76.080079 Q 176.168954 76.173522 176.144481 76.231368 Q 176.062162 76.420478 176.039913 76.218019 Q 176.035464 76.162398 176.07996 76.073404 Z" style="fill:#eaeed8;"/>
		<path fill-opacity="0.541" d="M 176.173403 76.872119 Q 176.135581 76.965562 176.108883 76.889918 Q 176.140031 76.881018 176.173403 76.872119 Z" style="fill:#eaeed8;"/>
		<path fill-opacity="0.541" d="M 173.450209 86.628008 L 173.472457 86.267585 Q 173.474682 86.240887 173.461333 86.26536 Q 173.459108 86.272035 173.461333 86.280934 Q 173.470232 86.396625 173.385689 86.470045 Q 173.356766 86.496743 173.347867 86.450021 Q 173.345642 86.432222 173.343417 86.425548 Q 173.334518 86.405524 173.314494 86.421098 Q 173.294471 86.434447 173.283347 86.447796 Q 173.225501 86.510092 173.254424 86.416649 Q 173.452434 85.758098 173.652669 85.255286 Q 173.659343 85.239713 173.650444 85.221914 Q 173.643769 85.20634 173.645994 85.197441 Q 173.645994 85.213015 173.650444 85.226364 Q 173.668242 85.26641 173.666018 85.273085 Q 173.614846 85.511142 173.643769 85.649082 Q 173.674917 85.793696 173.781709 85.689129 Q 173.995293 85.47777 173.904075 84.93936 Q 173.90185 84.928236 173.912974 84.921562 Q 173.928548 84.914887 173.926323 84.914887 C 173.912974 84.917112 173.904075 84.926011 173.906299 84.937135 Q 173.955246 85.190766 173.90185 85.368753 Q 173.852904 85.531166 173.826206 85.362078 C 173.572575 83.740176 174.197752 82.905864 174.640494 81.546491 Q 174.664967 81.473072 174.593773 81.49977 L 174.484756 81.542042 Q 174.451383 81.555391 174.442484 81.590988 Q 174.355716 81.924713 174.179954 82.189468 Q 174.075387 82.35188 174.155481 82.176119 Q 174.197752 82.084901 174.346816 81.811246 Q 174.371289 81.768974 174.331242 81.742277 L 174.282296 81.711129 Q 174.280071 81.708904 174.277846 81.713354 L 174.146581 81.962535 Q 174.086511 82.076001 174.086511 81.946961 Q 174.086511 81.918038 174.086511 81.864642 Q 174.086511 81.784548 174.139907 81.720028 C 174.778434 80.945787 175.194477 79.982434 175.61942 79.326109 C 175.804081 79.04133 175.788507 78.798824 175.812981 78.485122 Q 175.81743 78.4473 175.808531 78.485122 Q 175.74846 78.71428 175.759585 78.974585 C 175.761809 78.987934 175.761809 78.999059 175.759585 78.999059 L 175.699514 78.996834 Q 175.630544 78.994609 175.648343 78.927864 L 176.086635 77.366032 Q 176.115558 78.353857 175.975393 79.350582 Q 175.792957 80.620961 175.775158 80.972485 C 175.701739 82.447548 175.28792 83.330807 174.725038 84.881515 Q 174.671642 85.032803 174.604897 85.497793 Q 174.589323 85.60681 174.504779 85.682454 L 173.450209 86.628008 Z M 174.923048 80.925763 Q 174.976444 80.818971 174.878551 80.885716 Q 174.756185 80.97026 174.56485 81.250589 C 174.540377 81.286186 174.553726 81.337357 174.593773 81.355156 L 174.662742 81.390753 C 174.678316 81.397428 174.696115 81.390753 174.702789 81.375179 L 174.923048 80.925763 Z" style="fill:#eaeed8;"/>
		<path d="M 292.443127 100.121614 Q 287.250369 100.871383 282.175527 101.934852 Q 276.720239 99.850185 271.102538 98.252755 C 267.689645 97.282728 263.907431 96.570782 260.347699 95.654151 Q 254.852364 94.239158 249.61066 90.910809 Q 246.039804 88.641481 240.971637 85.724726 Q 240.869295 85.664655 240.878194 85.544514 L 240.902667 85.264186 C 242.270939 83.600011 243.323285 81.748951 243.84612 79.657609 C 243.992959 79.068028 244.04858 78.304911 244.199868 77.619663 Q 246.126573 78.685357 248.048828 79.263814 Q 249.052227 79.566391 253.602009 80.890166 C 262.338924 83.430924 271.218229 86.839367 279.058537 90.799568 Q 286.396033 94.508363 292.443127 100.121614 Z" style="fill:#9fae81;"/>
		<path d="M 320.696269 84.683504 Q 321.986672 86.977306 323.141359 89.04195 C 325.773336 93.75192 328.007067 98.174886 329.29747 103.100664 Q 329.382013 103.42104 329.050513 103.427715 Q 328.741262 103.434389 328.280721 103.243054 Q 326.64547 102.571154 324.836681 101.928178 Q 324.378366 101.541057 324.19148 101.345272 Q 321.497209 98.481913 318.133262 95.000051 Q 311.881484 88.530239 305.104646 82.863592 Q 304.888837 82.68338 305.169166 82.667807 Q 305.316005 82.658907 305.542938 82.690055 Q 312.575632 83.680105 319.635024 84.476595 Q 320.004346 84.516642 320.696269 84.683504 Z" style="fill:#9fae81;"/>
		<path d="M 163.536357 98.18601 Q 166.41529 98.773366 168.786961 100.17501 Q 169.494458 100.591054 171.732639 102.014946 C 175.721762 104.551255 179.991215 105.843882 184.678936 106.190956 C 189.958463 106.580302 195.146771 106.279949 200.619858 105.690369 C 200.991405 105.650322 201.429697 105.692594 201.834616 105.683694 Q 202.593284 105.705943 203.060499 105.946224 Q 202.539888 106.20653 202.030402 106.262151 L 201.078173 106.586976 L 196.893264 107.783936 L 194.984358 108.220003 L 194.408127 108.322345 L 193.776275 108.486983 L 191.300037 108.969771 Q 188.349909 109.341318 185.415356 109.703966 C 184.578819 109.808533 183.657738 109.759587 182.787829 109.91755 C 181.964641 110.064389 181.090282 110.044365 180.364987 110.064389 C 179.341564 110.091087 178.200225 110.2446 177.01439 110.273523 Q 173.089786 110.364741 168.235203 109.942023 Q 165.160485 109.675043 162.334948 108.925275 Q 164.201582 107.545879 164.363995 105.823859 Q 164.535307 104.001721 163.674297 102.397617 Q 162.895606 100.949252 161.623002 99.794564 L 163.536357 98.18601 Z" style="fill:#394c2f;"/>
		<path d="M 161.623002 99.794564 Q 162.895606 100.949252 163.674297 102.397617 Q 164.535307 104.001721 164.363995 105.823859 Q 164.201582 107.545879 162.334948 108.925275 Q 160.639626 109.034291 159.958827 108.947523 Q 158.652851 108.778436 157.500388 108.375741 C 156.550385 108.044241 155.366774 107.19658 155.106469 106.144235 Q 154.62368 104.197506 156.330126 102.878181 Q 156.964203 102.388718 157.60718 102.037195 C 158.167838 101.730168 158.715146 101.398668 159.282478 101.10944 Q 159.829787 100.829111 160.446066 100.439765 Q 161.05567 100.052644 161.623002 99.794564 Z" style="fill:#030303;"/>
		<path d="M 282.175527 101.934852 Q 287.250369 100.871383 292.443127 100.121614 C 295.684707 103.040594 298.699354 106.299973 301.665056 109.419187 Q 301.916462 109.683942 301.582737 109.537103 C 300.434723 109.034291 299.364579 108.473634 298.078626 107.968597 C 291.953664 105.556879 287.472852 103.972798 282.175527 101.934852 Z" style="fill:#879567;"/>
		<path d="M 203.060499 105.946224 Q 202.975955 107.441312 203.836965 108.206654 Q 206.537911 110.613922 207.661451 111.766385 Q 207.55466 112.680791 208.028549 113.459482 Q 208.099743 113.575174 207.968478 113.530677 C 207.403371 113.337117 206.938381 112.96557 206.386623 112.829855 C 204.802542 112.438284 203.914834 111.466033 203.77467 109.828556 C 203.714599 109.11216 203.113895 108.411338 202.657804 107.868479 Q 202.359677 107.516956 202.030402 106.262151 Q 202.539888 106.20653 203.060499 105.946224 Z" style="fill:#ced7b3;"/>
		<path d="M 202.030402 106.262151 Q 202.359677 107.516956 202.657804 107.868479 C 203.113895 108.411338 203.714599 109.11216 203.77467 109.828556 C 203.914834 111.466033 204.802542 112.438284 206.386623 112.829855 C 206.938381 112.96557 207.403371 113.337117 207.968478 113.530677 Q 208.099743 113.575174 208.028549 113.459482 Q 207.55466 112.680791 207.661451 111.766385 L 208.039673 112.269197 Q 207.94178 112.901049 208.215435 113.439459 Q 208.266606 113.535127 208.373398 113.526227 Q 208.602555 113.508429 208.80279 113.637469 Q 208.818364 113.648593 208.80279 113.657492 Q 208.778317 113.670841 208.782767 113.719788 C 208.784992 113.726462 208.789441 113.733137 208.798341 113.735361 L 210.444716 114.095784 C 209.290029 114.15808 207.759344 114.358314 206.700324 113.802106 C 205.336502 113.383838 203.363076 113.270372 203.17174 111.461583 C 203.073848 110.520479 203.10722 109.477033 202.78017 108.951973 Q 202.206163 108.021993 201.803469 107.00302 Q 201.685553 106.700443 201.078173 106.586976 L 202.030402 106.262151 Z" style="fill:#bcc79f;"/>
		<path fill-opacity="0.541" d="M 201.078173 106.586976 Q 201.685553 106.700443 201.803469 107.00302 Q 202.206163 108.021993 202.78017 108.951973 C 203.10722 109.477033 203.073848 110.520479 203.17174 111.461583 C 203.363076 113.270372 205.336502 113.383838 206.700324 113.802106 Q 206.94728 113.966744 206.731472 114.227049 Q 206.704774 114.258197 206.742596 114.278221 L 206.798217 114.304918 Q 206.889435 114.349415 206.789317 114.373888 Q 206.046223 114.5541 205.543411 114.518502 Q 204.984979 114.476231 204.324203 114.585247 Q 202.962606 114.807731 201.58766 114.863351 Q 201.233912 114.146955 200.319506 114.069086 C 197.803221 113.853278 196.239164 113.766509 194.441499 113.112409 C 193.90754 112.918848 193.551567 112.513929 193.269013 111.995543 Q 192.721704 110.989919 192.207768 109.97762 Q 192.207768 109.617197 192.040906 109.243426 Q 192.011983 109.178905 191.960812 109.227852 L 191.84957 109.332419 Q 191.825097 109.354667 191.833996 109.385815 Q 191.960812 109.788509 192.156597 110.135583 C 192.156597 110.135583 192.156597 110.135583 192.158822 110.135583 C 192.158822 110.135583 192.158822 110.135583 192.158822 110.135583 C 192.032006 109.84858 191.98751 109.686167 191.996409 109.365791 Q 191.998634 109.370241 191.994184 109.376915 Q 191.98751 109.688392 192.207768 109.97762 Q 192.298986 110.282422 192.396879 110.605023 Q 192.387979 110.536053 192.339033 110.509355 Q 192.227791 110.44261 192.232241 110.573875 L 192.234466 110.638395 Q 192.238916 110.734063 192.192194 110.649519 L 191.300037 108.969771 L 193.776275 108.486983 Q 194.1011 108.520355 194.408127 108.322345 L 194.984358 108.220003 Q 196.043378 108.188855 196.893264 107.783936 L 201.078173 106.586976 Z" style="fill:#eaeed8;"/>
		<path d="M 196.893264 107.783936 Q 196.043378 108.188855 194.984358 108.220003 L 196.893264 107.783936 Z" style="fill:#879567;"/>
		<path d="M 194.408127 108.322345 Q 194.1011 108.520355 193.776275 108.486983 L 194.408127 108.322345 Z" style="fill:#879567;"/>
		<path d="M 211.990975 114.042388 L 210.444716 114.095784 L 208.798341 113.735361 C 208.789441 113.733137 208.784992 113.726462 208.782767 113.719788 Q 208.778317 113.670841 208.80279 113.657492 Q 208.818364 113.648593 208.80279 113.637469 Q 208.602555 113.508429 208.373398 113.526227 Q 208.266606 113.535127 208.215435 113.439459 Q 207.94178 112.901049 208.039673 112.269197 C 209.080894 113.579623 210.386871 113.888875 211.990975 114.042388 Z" style="fill:#ced7b3;"/>
		<path d="M 267.473836 125.68271 Q 263.836236 120.983864 259.411045 116.99919 Q 262.221008 115.490754 264.492562 113.308194 Q 268.886605 116.950244 270.697618 118.852475 Q 274.929249 123.295465 277.701389 129.05333 C 279.910648 133.643159 281.726111 138.964957 283.054335 144.300104 Q 283.101057 144.489215 282.938644 144.380198 C 280.415685 142.660403 277.950571 141.220937 276.228551 138.629007 Q 276.221876 138.620108 273.311796 133.814471 Q 271.149259 130.248065 267.473836 125.68271 Z" style="fill:#ced7b3;"/>
		<path d="M 210.444716 114.095784 L 211.990975 114.042388 C 215.463937 113.946721 219.07039 113.980093 222.345343 114.643093 Q 229.925346 116.176002 235.002413 121.96279 C 239.173973 126.715032 241.487798 133.22934 240.057231 139.492242 Q 239.231818 143.098695 236.646564 145.999876 Q 234.352762 145.772943 232.546198 147.049997 Q 231.689638 147.655151 231.442681 147.788641 Q 230.365863 147.744144 229.333541 147.701873 Q 228.132131 147.655151 227.233299 147.517211 Q 225.113034 147.194611 223.066189 146.616154 Q 218.919102 144.960879 214.585129 143.866262 Q 209.72832 142.264383 205.654653 139.009454 C 200.960257 135.256162 197.471721 130.468323 195.302509 124.879545 Q 193.782949 120.961616 192.872993 116.921321 Q 192.688332 116.107032 192.661634 115.27717 C 192.659409 115.188177 192.732828 115.114757 192.821822 115.119207 Q 196.657432 115.27717 200.486368 114.972368 L 200.748898 114.94122 L 201.58766 114.863351 Q 202.962606 114.807731 204.324203 114.585247 Q 204.984979 114.476231 205.543411 114.518502 Q 206.046223 114.5541 206.789317 114.373888 Q 206.889435 114.349415 206.798217 114.304918 L 206.742596 114.278221 Q 206.704774 114.258197 206.731472 114.227049 Q 206.94728 113.966744 206.700324 113.802106 C 207.759344 114.358314 209.290029 114.15808 210.444716 114.095784 Z" style="fill:#9fae81;"/>
		<path d="M 323.621923 114.324942 Q 323.510682 114.229274 323.537379 114.093559 L 323.621923 114.324942 Z" style="fill:#030303;"/>
		<path d="M 200.748898 114.94122 L 200.486368 114.972368 L 200.748898 114.94122 Z" style="fill:#879567;"/>
		<path d="M 258.287505 116.095908 Q 258.921582 116.429633 259.411045 116.99919 Q 263.836236 120.983864 267.473836 125.68271 Q 266.566105 124.830599 264.715045 122.619116 Q 262.99525 120.567821 258.287505 116.095908 Z" style="fill:#030303;"/>
		<path d="M 261.702622 125.600391 Q 259.898283 120.857049 257.079421 116.658791 Q 260.323226 120.639015 261.702622 125.600391 Z" style="fill:#030303;"/>
		<path d="M 223.066189 146.616154 Q 220.988195 148.175762 219.80681 148.885483 Q 218.329521 149.775416 216.104689 150.447315 Q 215.305974 150.687597 214.291451 150.769916 C 213.608428 150.825537 212.673998 150.945678 211.819663 150.950127 Q 203.783569 150.996849 197.34268 150.818862 C 195.707429 150.774366 194.345832 150.85446 192.755077 150.832211 Q 192.610463 150.829986 192.601563 150.683147 C 192.561516 149.831037 192.819597 149.259255 193.053204 148.582906 Q 193.204493 148.144614 193.404728 147.828688 Q 194.879791 145.474816 197.645258 144.845188 C 198.488469 144.653853 199.507442 144.716148 200.432972 144.905259 Q 203.040475 145.439218 206.335452 146.360299 C 206.873861 146.511587 207.327727 146.520487 207.801616 146.67845 Q 208.829488 147.018849 209.957478 146.994376 Q 211.05432 146.972128 212.019897 146.47154 Q 213.675173 145.61498 214.585129 143.866262 Q 218.919102 144.960879 223.066189 146.616154 Z" style="fill:#394c2f;"/>
		<path d="M 258.805891 152.431865 L 236.012486 152.449664 Q 236.906869 152.380694 238.468701 152.37402 Q 250.33818 152.336198 258.805891 152.431865 Z" style="fill:#879567;"/>
		<path d="M 229.818554 47.655625 Q 232.859899 44.073645 234.110255 42.558534 C 236.025835 40.23581 238.192822 37.283458 239.999385 35.143169 C 243.937338 30.479921 248.191217 26.301686 253.459619 23.685284 C 255.379649 22.730831 258.02275 21.949915 260.100743 22.357059 C 260.160814 22.368183 260.187512 22.441603 260.149689 22.490549 Q 259.397696 23.447227 259.110693 23.883294 Q 256.698975 27.529794 255.372975 29.4387 Q 251.735375 34.675954 246.834069 38.580535 C 242.095177 42.358299 236.490825 45.557608 230.650641 47.373071 C 230.316916 47.475413 230.132255 47.615578 229.8675 47.724594 C 229.825228 47.742393 229.789631 47.691222 229.818554 47.655625 Z" style="fill:#ced7b3;"/>
		<path d="M 216.494035 26.090327 C 216.856682 26.642086 217.239353 26.65766 217.900129 26.697707 C 218.004696 26.704381 218.08479 26.797824 218.073665 26.902391 C 217.791112 29.62781 216.040169 32.373253 214.206907 34.324431 Q 213.630676 34.93626 212.427042 35.597035 C 210.880783 36.444696 208.942955 37.036501 207.236509 38.148917 C 207.185337 38.18229 207.116368 38.155592 207.098569 38.097746 Q 206.49119 36.06425 206.043999 34.110847 Q 205.921633 33.570213 205.921633 33.156394 Q 205.921633 33.042928 205.988378 32.953934 Q 206.61578 32.130746 207.125267 31.300884 Q 207.434519 30.795847 208.560284 30.179569 Q 211.917555 28.339633 215.005622 26.388455 Q 215.450588 26.105901 215.986773 25.919015 C 216.175884 25.85227 216.385018 25.923465 216.494035 26.090327 Z" style="fill:#9fae81;"/>
		<path d="M 292.516546 43.595306 C 291.829073 44.122591 291.045932 45.141564 290.391832 45.711121 C 282.544849 52.572503 271.198205 53.987497 261.213159 52.650373 Q 260.748169 52.588077 260.354374 52.472386 Q 260.243132 52.441238 260.323226 52.356695 Q 264.470313 47.895906 270.254877 45.424118 Q 274.404188 43.650927 278.969544 42.738746 C 282.985366 41.935581 286.872147 42.135816 290.863496 43.039098 Q 291.795701 43.250457 292.505422 43.512987 C 292.541019 43.526336 292.547694 43.573058 292.516546 43.595306 Z" style="fill:#9fae81;"/>
		<path d="M 259.847112 49.597903 Q 255.014777 54.672745 249.795321 59.126859 Q 248.211241 60.477332 246.0932 60.717614 Q 241.169647 61.278271 236.145976 60.96902 C 236.110379 60.966795 236.09258 60.922298 236.117053 60.8956 Q 240.428778 56.138909 245.990858 52.921802 Q 248.569439 51.431165 250.367103 50.478936 C 252.502942 49.346497 254.055874 48.512185 256.169465 48.44544 Q 258.202961 48.383145 259.842663 49.355396 C 259.911632 49.397668 259.931656 49.488886 259.884934 49.555631 Q 259.869361 49.575655 259.847112 49.597903 Z" style="fill:#ced7b3;"/>
		<path d="M 256.952606 67.227472 L 253.704351 60.581899 Q 256.358576 58.637396 259.597931 57.956597 C 260.970652 57.667369 263.05977 57.444886 264.58378 56.953198 C 267.120088 56.13446 269.384967 55.409164 272.06144 55.620523 C 272.619873 55.66502 273.698917 55.985396 273.961447 56.617248 Q 274.001494 56.717366 273.961447 56.819708 Q 273.796809 57.235751 273.543178 57.45156 Q 272.021393 58.759761 270.662021 59.745362 C 266.425941 62.817855 261.809414 65.574422 256.952606 67.227472 Z" style="fill:#ced7b3;"/>
		<path d="M 253.704351 60.581899 L 256.952606 67.227472 Q 254.531988 68.039536 252.006804 68.333214 Q 251.33713 65.870325 250.180217 63.578748 L 253.704351 60.581899 Z" style="fill:#bcc79f;"/>
		<path d="M 250.180217 63.578748 Q 251.33713 65.870325 252.006804 68.333214 Q 248.342506 68.831576 244.920714 67.743633 Q 244.751627 67.690237 244.90514 67.605694 C 246.903039 66.484378 248.480445 65.082734 250.180217 63.578748 Z" style="fill:#879567;"/>
		<path d="M 315.014048 74.120002 Q 312.931605 76.280314 309.721172 76.685233 Q 308.998102 76.774227 306.920109 76.945539 L 298.935187 76.184646 C 298.492445 76.040032 298.074177 75.877619 297.618086 75.770827 Q 290.825674 74.184522 284.642865 71.810626 Q 278.021765 69.265418 274.71789 68.039536 Q 278.704789 67.594569 283.688413 67.547848 Q 290.006936 67.487778 294.369831 67.576771 Q 300.770673 67.708036 307.051374 68.898321 Q 308.666602 69.203123 310.740146 69.870573 Q 312.838162 70.544697 314.433367 71.995287 Q 315.294377 72.778428 315.014048 74.120002 Z" style="fill:#bcc79f;"/>
		<path d="M 274.71789 68.039536 Q 278.021765 69.265418 284.642865 71.810626 Q 290.825674 74.184522 297.618086 75.770827 C 298.074177 75.877619 298.492445 76.040032 298.935187 76.184646 Q 298.465747 76.213569 297.980734 76.173522 Q 287.592993 75.336985 276.208527 73.049858 Q 274.370816 72.68276 271.774437 71.908519 C 270.74434 71.601492 269.069041 70.956291 268.348195 70.090831 C 268.241404 69.964016 268.272551 69.770455 268.41494 69.683687 Q 269.304873 69.143053 270.150309 68.918345 Q 272.33287 68.337663 274.71789 68.039536 Z" style="fill:#879567;"/>
		<path d="M 286.031161 82.104924 Q 286.409382 82.770149 287.497325 83.753525 Q 288.066882 84.271911 289.177073 85.682454 Q 289.868996 86.559038 290.674385 87.747098 Q 292.569942 90.545937 294.463274 93.442668 C 288.883395 92.637279 283.988765 91.153316 279.172003 88.276608 C 275.596698 86.138545 272.192705 83.958209 268.543981 81.806797 Q 260.908357 77.305961 250.391576 71.281116 Q 250.082324 71.10313 250.438297 71.140952 Q 256.327428 71.759455 262.378971 72.560395 C 266.488236 73.105478 269.2804 73.481475 272.537554 74.958764 Q 279.238748 77.997884 286.031161 82.104924 Z" style="fill:#9fae81;"/>
		<path d="M 179.704212 72.264247 C 179.695313 72.257817 179.719786 72.195522 179.762525 72.123215 C 179.804329 72.050908 179.846601 71.997512 179.8555 72.002206 C 179.8644 72.008636 179.839927 72.070932 179.797188 72.143239 C 179.755383 72.215546 179.713111 72.268942 179.704212 72.264247 Z" style="fill:#eaf1dd;"/>
		<path d="M 315.014048 74.120002 Q 315.84391 75.174572 317.156561 76.013334 Q 317.508085 76.235817 317.236655 76.551743 Q 317.181034 76.618488 316.905155 76.72528 Q 315.839461 77.141324 314.695897 77.252565 Q 310.80689 77.633012 306.920109 76.945539 Q 308.998102 76.774227 309.721172 76.685233 Q 312.931605 76.280314 315.014048 74.120002 Z" style="fill:#879567;"/>
		<path d="M 194.065592 88.487055 C 190.795 88.229887 188.356584 85.313132 188.619626 81.972569 C 188.881644 78.631961 191.747228 76.133475 195.017642 76.390243 C 198.288234 76.647411 200.72665 79.564166 200.463608 82.904729 C 200.20159 86.245337 197.336006 88.743823 194.065592 88.487055 Z M 191.98751 80.678807 Q 192.654959 79.84672 192.38353 78.867793 Q 192.127674 77.942263 191.32451 78.242616 C 190.605889 78.509596 189.210919 80.009132 189.938439 80.927988 C 190.483523 81.617686 191.489147 81.29731 191.98751 80.678807 Z" style="fill:#030303;"/>
		<path fill-opacity="0.541" d="M 176.243708 77.675973 C 176.204551 77.673059 176.188977 77.475049 176.209245 77.235479 C 176.229024 76.994485 176.27797 76.803149 176.316683 76.806909 C 176.35584 76.809824 176.371413 77.007834 176.351145 77.247404 C 176.331366 77.488398 176.28242 77.679733 176.243708 77.675973 Z" style="fill:#eaeed8;"/>
		<path d="M 286.031161 82.104924 Q 286.585144 82.334082 287.016761 82.56324 C 294.543368 86.567937 302.20124 89.97193 310.054897 93.191262 C 311.427619 93.754145 313.158538 94.695249 313.681373 96.299353 C 313.714746 96.401695 313.679149 96.515161 313.59238 96.579681 Q 313.183011 96.884483 312.615679 96.971252 C 311.596706 97.129215 310.166139 97.204859 308.900209 97.149239 Q 304.0523 96.935655 299.21774 96.486239 C 298.743851 96.279329 298.325583 96.06352 297.809422 95.876635 Q 296.278737 95.318202 295.177445 94.192437 L 294.463274 93.442668 Q 292.569942 90.545937 290.674385 87.747098 Q 289.868996 86.559038 289.177073 85.682454 Q 288.066882 84.271911 287.497325 83.753525 Q 286.409382 82.770149 286.031161 82.104924 Z" style="fill:#ced7b3;"/>
		<path d="M 299.21774 96.486239 Q 297.182019 96.512937 295.144073 96.484014 Q 293.971586 96.466215 292.7991 96.192561 Q 292.687858 96.165863 292.745704 96.06797 Q 293.542194 94.733071 295.177445 94.192437 Q 296.278737 95.318202 297.809422 95.876635 C 298.325583 96.06352 298.743851 96.279329 299.21774 96.486239 Z" style="fill:#879567;"/>
		<path d="M 282.809604 114.68314 C 277.645769 112.064513 273.042591 109.161107 268.234729 105.734865 Q 268.125712 105.656996 268.261427 105.645872 Q 275.136158 105.038493 282.022013 105.588026 Q 285.203523 105.841657 288.278241 107.419063 Q 294.552267 110.638395 300.962009 114.8767 Q 303.360378 116.463006 305.391649 118.124955 C 305.456169 118.178351 305.422797 118.280693 305.340478 118.289593 C 303.758623 118.45423 302.465995 118.812428 300.652757 118.774606 Q 299.182143 118.743458 296.218667 118.291818 Q 293.19067 117.833502 289.635389 117.112657 Q 286.251419 116.425183 282.809604 114.68314 Z" style="fill:#ced7b3;"/>
		<path d="M 298.661532 128.821948 L 289.139251 130.566216 Q 286.658563 126.087629 284.763006 121.346512 C 284.740758 121.290891 284.791929 121.233046 284.849775 121.250844 Q 288.207046 122.258693 291.840197 123.517948 Q 294.72358 124.519122 296.921714 125.894069 Q 297.30661 126.134351 297.537992 126.574867 Q 298.127573 127.685058 298.661532 128.821948 Z" style="fill:#ced7b3;"/>
		<path d="M 298.661532 128.821948 C 300.034254 131.480622 301.160019 134.986957 300.824069 138.010504 C 300.610485 139.910511 299.462472 141.643655 297.239865 140.655829 Q 296.737053 140.431121 295.833771 139.492242 Q 291.942539 135.445273 289.139251 130.566216 L 298.661532 128.821948 Z" style="fill:#bcc79f;"/>
		<path d="M 191.98751 80.678807 C 191.489147 81.29731 190.483523 81.617686 189.938439 80.927988 C 189.210919 80.009132 190.605889 78.509596 191.32451 78.242616 Q 192.127674 77.942263 192.38353 78.867793 Q 192.654959 79.84672 191.98751 80.678807 Z" style="fill:#eaf1dd;"/>
	</g>
	<g id="surface4">
	</g>
</svg>
