<?xml version="1.0" encoding="utf-8"?>
<svg xmlns="http://www.w3.org/2000/svg" width="490pt" height="280pt" viewBox="0 0 490 280" version="1.1" xmlns:xlink="http://www.w3.org/1999/xlink">
	<g id="surface2">
		<path vector-effect="non-scaling-stroke" d="M 291.807158 107.196691 Q 291.737034 107.261279 291.768406 107.397837" style="fill:none;stroke-width:0.50;stroke:#5daadc;"/>
		<path vector-effect="non-scaling-stroke" d="M 291.604167 108.72097 Q 291.554342 108.77264 291.580177 108.861218" style="fill:none;stroke-width:0.50;stroke:#5283aa;"/>
		<path vector-effect="non-scaling-stroke" d="M 291.469455 109.68241 L 291.307062 110.060711" style="fill:none;stroke-width:0.50;stroke:#5283aa;"/>
		<path vector-effect="non-scaling-stroke" d="M 291.307062 110.060711 L 291.085617 111.786136" style="fill:none;stroke-width:0.50;stroke:#5daadc;"/>
		<path vector-effect="non-scaling-stroke" d="M 291.059782 111.871023 Q 291.032101 111.92823 291.022875 112.000199" style="fill:none;stroke-width:0.50;stroke:#5283aa;"/>
		<path vector-effect="non-scaling-stroke" d="M 290.82911 112.828772 Q 290.788512 112.889669 290.792203 112.974556" style="fill:none;stroke-width:0.50;stroke:#5283aa;"/>
		<path vector-effect="non-scaling-stroke" d="M 290.792203 112.974556 Q 290.740532 113.026227 290.755295 113.118496" style="fill:none;stroke-width:0.50;stroke:#5283aa;"/>
		<path vector-effect="non-scaling-stroke" d="M 290.687016 113.334404 Q 290.655645 113.402683 290.651954 113.482034" style="fill:none;stroke-width:0.50;stroke:#5283aa;"/>
		<path vector-effect="non-scaling-stroke" d="M 290.651954 113.482034 Q 290.583676 113.587221 290.572603 113.718242" style="fill:none;stroke-width:0.50;stroke:#5283aa;"/>
		<path vector-effect="non-scaling-stroke" d="M 290.450809 114.12607 L 290.395447 114.410257" style="fill:none;stroke-width:0.50;stroke:#5283aa;"/>
		<path vector-effect="non-scaling-stroke" d="M 290.325323 114.592949 Q 290.220137 114.818085 290.201683 115.056138" style="fill:none;stroke-width:0.50;stroke:#5283aa;"/>
		<path vector-effect="non-scaling-stroke" d="M 290.127868 115.229603 L 290.01161 115.659575" style="fill:none;stroke-width:0.50;stroke:#5283aa;"/>
		<path vector-effect="non-scaling-stroke" d="M 290.01161 115.659575 Q 289.959939 115.714937 289.954403 115.821968" style="fill:none;stroke-width:0.50;stroke:#5283aa;"/>
		<path vector-effect="non-scaling-stroke" d="M 289.954403 115.821968 Q 289.845526 116.019423 289.816 116.253786" style="fill:none;stroke-width:0.50;stroke:#5283aa;"/>
		<path vector-effect="non-scaling-stroke" d="M 288.629425 119.379849 L 288.5593 119.564386" style="fill:none;stroke-width:0.50;stroke:#5283aa;"/>
		<path vector-effect="non-scaling-stroke" d="M 288.177308 120.392959 Q 288.068431 120.514754 288.057359 120.682683" style="fill:none;stroke-width:0.50;stroke:#5283aa;"/>
		<path vector-effect="non-scaling-stroke" d="M 287.878358 121.03884 Q 287.754717 121.173552 287.736264 121.359935" style="fill:none;stroke-width:0.50;stroke:#5283aa;"/>
		<path vector-effect="non-scaling-stroke" d="M 287.549881 121.682876 Q 287.435468 121.82866 287.385643 122.009507" style="fill:none;stroke-width:0.50;stroke:#5283aa;"/>
		<path vector-effect="non-scaling-stroke" d="M 287.236167 122.332447 L 286.815422 123.118577" style="fill:none;stroke-width:0.50;stroke:#5283aa;"/>
		<path vector-effect="non-scaling-stroke" d="M 286.815422 123.118577 Q 286.682555 123.242217 286.638266 123.443362" style="fill:none;stroke-width:0.50;stroke:#5283aa;"/>
		<path vector-effect="non-scaling-stroke" d="M 286.638266 123.443362 Q 286.518317 123.567002 286.451884 123.757076" style="fill:none;stroke-width:0.50;stroke:#5283aa;"/>
		<path vector-effect="non-scaling-stroke" d="M 286.451884 123.757076 Q 286.359615 123.869644 286.319017 124.004356" style="fill:none;stroke-width:0.50;stroke:#5283aa;"/>
		<path vector-effect="non-scaling-stroke" d="M 286.319017 124.004356 Q 286.149242 124.181512 286.077273 124.419565" style="fill:none;stroke-width:0.50;stroke:#5283aa;"/>
		<path vector-effect="non-scaling-stroke" d="M 285.850292 124.818166 Q 285.710043 124.927043 285.669445 125.102353" style="fill:none;stroke-width:0.50;stroke:#5283aa;"/>
		<path vector-effect="non-scaling-stroke" d="M 285.669445 125.102353 L 285.558723 125.23153" style="fill:none;stroke-width:0.50;stroke:#5283aa;"/>
		<path vector-effect="non-scaling-stroke" d="M 283.335047 128.473851 Q 283.204026 128.46647 283.213252 128.606718" style="fill:none;stroke-width:0.50;stroke:#5daadc;"/>
		<path vector-effect="non-scaling-stroke" d="M 282.890312 129.020082 Q 282.820188 129.086516 282.810961 129.165867" style="fill:none;stroke-width:0.50;stroke:#5283aa;"/>
		<path vector-effect="non-scaling-stroke" d="M 273.301749 138.571737 Q 273.179955 138.614181 273.117212 138.715676" style="fill:none;stroke-width:0.50;stroke:#5283aa;"/>
		<path vector-effect="non-scaling-stroke" d="M 272.257268 139.367093 Q 272.187144 139.378165 272.142855 139.453826" style="fill:none;stroke-width:0.50;stroke:#5283aa;"/>
		<path vector-effect="non-scaling-stroke" d="M 271.775625 139.734323 Q 271.679666 139.749086 271.648295 139.833973" style="fill:none;stroke-width:0.50;stroke:#5283aa;"/>
		<path vector-effect="non-scaling-stroke" d="M 236.35552 151.577932 Q 236.687687 151.483818 236.970029 151.291899" style="fill:none;stroke-width:0.50;stroke:#5daadc;"/>
		<path vector-effect="non-scaling-stroke" d="M 236.970029 151.291899 Q 241.179327 148.691767 244.617258 145.07668" style="fill:none;stroke-width:0.50;stroke:#5283aa;"/>
		<path vector-effect="non-scaling-stroke" d="M 244.617258 145.07668 Q 245.982835 143.842125 247.483124 142.234804 Q 249.621912 139.946541 251.31412 137.72102" style="fill:none;stroke-width:0.50;stroke:#5daadc;"/>
		<path vector-effect="non-scaling-stroke" d="M 251.31412 137.72102 C 254.084026 134.264635 256.536528 130.348751 258.140158 126.218805" style="fill:none;stroke-width:0.50;stroke:#60baed;"/>
		<path vector-effect="non-scaling-stroke" d="M 258.140158 126.218805 Q 259.629375 122.489304 260.162688 118.543895 C 260.485628 116.154136 260.483783 113.579839 260.310318 111.112574 Q 260.290018 110.817314 260.127626 109.324407 Q 260.127626 109.309644 260.122089 109.328098 Q 260.118399 109.33917 260.116553 109.344706 Q 260.099945 109.39084 260.094409 109.341015 Q 259.592467 105.641041 258.05158 102.08316 Q 258.02759 102.024108 257.957466 101.913386 Q 257.902105 101.826653 257.868888 101.738075 Q 257.776619 101.479723 257.771083 101.466805 Q 256.501466 98.72458 254.683773 96.30714" style="fill:none;stroke-width:0.50;stroke:#5daadc;"/>
		<path vector-effect="non-scaling-stroke" d="M 254.683773 96.30714 Q 252.552366 93.39514 249.944853 90.892813 Q 248.152995 89.172925 246.936893 88.181959 Q 242.757122 84.771708 238.568123 81.372529 Q 237.283743 80.329893 233.727707 77.144778" style="fill:none;stroke-width:0.50;stroke:#5283aa;"/>
		<path vector-effect="non-scaling-stroke" d="M 233.727707 77.144778 L 231.194009 74.53911" style="fill:none;stroke-width:0.50;stroke:#5daadc;"/>
		<path vector-effect="non-scaling-stroke" d="M 231.194009 74.53911 Q 229.581152 72.738025 228.278318 70.700732" style="fill:none;stroke-width:0.50;stroke:#5283aa;"/>
		<path vector-effect="non-scaling-stroke" d="M 228.278318 70.700732 Q 227.311342 69.139546 226.600874 67.476864" style="fill:none;stroke-width:0.50;stroke:#5daadc;"/>
		<path vector-effect="non-scaling-stroke" d="M 226.600874 67.476864 Q 225.648661 65.10925 225.238988 62.632758" style="fill:none;stroke-width:0.50;stroke:#5283aa;"/>
		<path vector-effect="non-scaling-stroke" d="M 225.238988 62.632758 L 225.071059 60.949777 Q 225.047069 60.708033 224.936346 60.923942 C 224.617097 61.553214 224.342136 62.450066 224.161289 62.922482 Q 223.502491 64.640525 222.727434 66.504352 Q 222.629629 66.742405 222.629629 66.941706 Q 222.629629 66.954623 222.613021 66.947242 Q 222.603794 66.943551 222.601948 66.943551 Q 222.574268 66.932479 222.56135 66.96016 Q 221.921005 68.5398 221.031535 70.353802 C 220.972483 70.477442 220.989092 70.619536 220.911586 70.735794 Q 220.78241 70.929559 220.775028 70.942476 Q 217.444128 77.77036 216.074861 80.331738 Q 214.294075 83.662638 212.767951 86.665062 Q 211.815738 88.541807 211.092352 90.525584 C 209.630816 94.533736 209.267277 98.741188 210.044179 102.908042 Q 211.247363 109.353933 214.871677 114.788559 Q 216.971713 117.936767 219.053294 120.278546 C 224.456549 126.359053 227.763459 129.859727 231.56862 135.144878 C 233.310653 137.566008 234.790643 139.904097 235.894176 142.699838 Q 235.973527 142.900984 235.759464 142.950809 Q 235.737319 142.9545 235.563854 142.921283" style="fill:none;stroke-width:0.50;stroke:#5daadc;"/>
		<path vector-effect="non-scaling-stroke" d="M 235.563854 142.921283 Q 235.519565 142.88253 235.438369 142.867767" style="fill:none;stroke-width:0.50;stroke:#5283aa;"/>
		<path vector-effect="non-scaling-stroke" d="M 234.565507 142.542982 Q 234.235185 142.339991 233.849502 142.308619" style="fill:none;stroke-width:0.50;stroke:#5283aa;"/>
		<path vector-effect="non-scaling-stroke" d="M 233.454592 142.16468 Q 233.353096 142.083484 233.209157 142.103783" style="fill:none;stroke-width:0.50;stroke:#5283aa;"/>
		<path vector-effect="non-scaling-stroke" d="M 233.091053 142.061339 Q 232.971104 141.921091 232.744123 141.950617" style="fill:none;stroke-width:0.50;stroke:#5daadc;"/>
		<path vector-effect="non-scaling-stroke" d="M 232.572503 141.876802 Q 232.500534 141.756852 232.387966 141.812214" style="fill:none;stroke-width:0.50;stroke:#5daadc;"/>
		<path vector-effect="non-scaling-stroke" d="M 232.009664 141.671965 Q 231.952458 141.620295 231.869416 141.636903" style="fill:none;stroke-width:0.50;stroke:#5daadc;"/>
		<path vector-effect="non-scaling-stroke" d="M 291.292299 110.811778 Q 291.253546 110.876366 291.257237 110.981553" style="fill:none;stroke-width:0.50;stroke:#134e8b;"/>
		<path vector-effect="non-scaling-stroke" d="M 225.238988 62.632758 C 224.639241 63.180834 224.919738 63.673549 225.20208 64.44307 C 225.593299 65.518923 225.919931 66.677817 226.600874 67.476864" style="fill:none;stroke-width:0.50;stroke:#134e8b;"/>
		<path vector-effect="non-scaling-stroke" d="M 228.278318 70.700732 C 228.787642 72.285909 229.612524 73.823105 231.194009 74.53911" style="fill:none;stroke-width:0.50;stroke:#134e8b;"/>
		<path vector-effect="non-scaling-stroke" d="M 233.727707 77.144778 Q 233.474891 77.751906 234.737127 78.698583 Q 235.226151 79.065812 236.634171 80.400017 Q 237.623292 81.335622 238.555205 82.081153 Q 240.77519 83.856403 242.99702 85.626116 C 243.369786 85.921376 243.799758 86.436235 244.213122 86.773939 C 247.167565 89.183997 250.002059 91.675252 252.664934 94.386106 C 253.338495 95.072585 253.77954 95.74061 254.386668 96.425244 C 254.471555 96.519358 254.626566 96.486141 254.665319 96.364346 L 254.683773 96.30714" style="fill:none;stroke-width:0.50;stroke:#134e8b;"/>
		<path vector-effect="non-scaling-stroke" d="M 258.140158 126.218805 Q 258.869081 121.068366 259.025937 119.453664 Q 259.699499 112.515058 256.387053 106.196498 C 253.679889 101.031297 249.979915 96.08754 245.488275 92.293452 C 241.880569 89.244894 236.338911 84.839987 232.371358 80.556874 C 229.977908 77.977041 228.529289 75.657407 226.654389 72.437229 C 225.722476 70.839135 224.519292 69.731911 223.260747 71.927906 Q 222.710825 72.8875 222.273472 73.937518 Q 220.43917 78.34058 218.132453 83.304636 C 216.973558 85.79589 215.89586 88.370187 215.118957 90.604935 Q 212.302917 98.702435 213.616823 107.235444 C 214.478613 112.819545 218.571652 117.536321 222.302998 121.546318 Q 228.198967 127.877796 230.345137 130.324761 Q 233.465664 133.884488 235.080366 136.515991 C 236.719058 139.182556 237.857654 142.127773 239.145725 144.995483" style="fill:none;stroke-width:0.50;stroke:#2185ce;"/>
		<path vector-effect="non-scaling-stroke" d="M 239.145725 144.995483 Q 238.400194 147.156416 236.835317 151.074145 Q 236.75043 151.288208 236.970029 151.291899" style="fill:none;stroke-width:0.50;stroke:#134e8b;"/>
		<path vector-effect="non-scaling-stroke" d="M 239.440985 109.619667 Q 242.84939 112.000199 245.486429 115.146562 Q 246.667469 116.556427 247.43699 117.864797 Q 248.291398 119.318952 248.887453 120.885674 Q 251.448832 127.619443 249.704954 134.630019 Q 248.948351 137.67304 247.147266 141.312117 C 246.91844 141.773461 246.589963 142.173907 246.329765 142.701684 Q 246.119393 143.124274 245.672812 143.709258 Q 245.154262 144.388355 244.617258 145.07668" style="fill:none;stroke-width:0.50;stroke:#134e8b;"/>
		<path vector-effect="non-scaling-stroke" d="M 239.695646 143.247914 Q 240.324919 140.823093 240.402425 139.12904 C 240.609106 134.615256 238.72867 130.483464 235.680113 127.156255 Q 233.535788 124.814475 230.895058 122.553892 Q 230.883986 122.54282 230.837852 122.485613 Q 230.806481 122.44686 230.745583 122.433943 Q 230.658851 122.413644 230.590572 122.358282 Q 228.876219 120.96318 227.835429 119.518252 C 227.76715 119.424138 227.693335 119.333715 227.613984 119.248828 C 223.96568 115.355089 221.59991 110.361507 221.094278 104.993315" style="fill:none;stroke-width:0.50;stroke:#134e8b;"/>
		<path vector-effect="non-scaling-stroke" d="M 251.31412 137.72102 Q 251.578009 135.868264 251.847433 132.358363 Q 252.613263 122.415489 246.47555 114.845766 Q 244.644939 112.588873 242.319768 111.149482 Q 241.129502 110.413178 239.440985 109.619667" style="fill:none;stroke-width:0.50;stroke:#2185ce;"/>
		<path vector-effect="non-scaling-stroke" d="M 239.440985 109.619667 C 237.505188 108.272544 235.281512 106.833152 233.674191 105.454658 Q 230.223342 102.494678 227.894481 98.48099 Q 226.038034 95.277421 225.777837 91.446425 Q 225.763074 91.219444 225.633898 91.407672 Q 222.971023 95.275576 221.658962 99.76168 Q 220.937421 102.23079 221.094278 104.993315" style="fill:none;stroke-width:0.50;stroke:#165e9c;"/>
		<path vector-effect="non-scaling-stroke" d="M 221.094278 104.993315 Q 221.12934 107.305568 221.310187 108.486607 C 221.666344 110.811778 222.577959 112.924731 223.653811 115.18716 C 225.012007 118.045644 226.864762 120.488919 229.101355 122.588954 Q 230.083094 123.511641 233.373396 126.610024 Q 234.988098 128.128767 237.128731 131.205005 C 237.940696 132.371281 238.623484 133.718404 239.112508 134.914206 C 240.197588 137.567854 240.042577 140.441101 239.695646 143.247914" style="fill:none;stroke-width:0.50;stroke:#2185ce;"/>
		<path vector-effect="non-scaling-stroke" d="M 239.695646 143.247914 L 239.145725 144.995483" style="fill:none;stroke-width:0.50;stroke:#165e9c;"/>
		<path vector-effect="non-scaling-stroke" d="M 291.353196 110.354126 Q 291.388259 110.105 291.307062 110.060711" style="fill:none;stroke-width:0.50;stroke:#134e8b;"/>
		<path vector-effect="non-scaling-stroke" d="M 239.524027 55.827019 C 241.096285 60.396165 243.740706 64.548256 246.776346 68.286983 C 249.786151 71.994339 252.733213 75.251424 255.567707 78.763171 C 259.433765 83.55007 262.428807 88.634075 264.438419 94.411941 Q 266.086338 99.149016 266.593816 103.804894 Q 267.474059 111.882095 264.953278 119.857801" style="fill:none;stroke-width:0.50;stroke:#5283aa;"/>
		<path vector-effect="non-scaling-stroke" d="M 264.953278 119.857801 Q 264.073035 122.552047 262.851397 125.115271 Q 262.273795 126.327682 261.489511 127.442287 Q 261.347418 127.641588 261.528264 127.47735 C 264.178221 125.054374 266.78758 122.437634 268.979884 119.538551" style="fill:none;stroke-width:0.50;stroke:#5daadc;"/>
		<path vector-effect="non-scaling-stroke" d="M 268.979884 119.538551 Q 272.744447 114.834693 274.754059 109.250592" style="fill:none;stroke-width:0.50;stroke:#60baed;"/>
		<path vector-effect="non-scaling-stroke" d="M 274.754059 109.250592 C 276.195296 104.902891 276.398287 100.294993 275.604776 95.814425 C 275.22832 93.681173 274.420046 91.119794 273.89596 89.040058 C 273.711422 88.314826 273.408781 87.567449 273.085841 86.890197 Q 270.816031 82.101452 270.363914 81.084651 Q 269.417238 78.95878 268.178992 77.133706 C 266.726682 74.993072 264.934824 72.71219 263.4087 70.549412 C 260.247575 66.066999 257.175027 61.818948 254.419884 57.53399 Q 253.825674 56.607612 251.840052 52.951927" style="fill:none;stroke-width:0.50;stroke:#5daadc;"/>
		<path vector-effect="non-scaling-stroke" d="M 251.840052 52.951927 Q 250.013132 49.46417 248.608802 45.823248 Q 246.167372 39.502842 245.351717 32.772764" style="fill:none;stroke-width:0.50;stroke:#5283aa;"/>
		<path vector-effect="non-scaling-stroke" d="M 245.351717 32.772764 L 245.209623 30.846193 Q 245.176407 30.405149 245.039849 30.824049 C 244.178059 33.477696 243.022855 35.777032 241.579773 38.474969 C 239.599687 42.18048 238.178749 46.159106 238.427875 50.414538 Q 238.590267 53.177062 239.524027 55.827019" style="fill:none;stroke-width:0.50;stroke:#5daadc;"/>
		<path vector-effect="non-scaling-stroke" d="M 245.351717 32.772764 Q 244.696609 33.732358 244.929127 34.922624 Q 245.104437 35.825012 245.567626 37.581808 C 245.982835 39.159603 246.671159 40.571314 247.056843 42.193397 C 247.455443 43.867151 247.802374 45.223501 248.470399 46.690573 C 249.337725 48.591308 250.1054 50.691344 251.223697 52.558862 Q 251.46175 52.955617 251.840052 52.951927" style="fill:none;stroke-width:0.50;stroke:#134e8b;"/>
		<path vector-effect="non-scaling-stroke" d="M 274.754059 109.250592 C 274.730069 106.408716 275.141587 103.181157 275.089917 101.012843 C 274.929369 94.502364 273.091377 88.392331 269.679281 82.882045 C 267.415007 79.22636 265.121207 76.382638 262.410353 72.977924 C 257.90395 67.314471 253.434455 61.466482 249.907945 55.275252 C 248.05519 52.020013 246.962729 48.967765 245.597152 45.289934 Q 245.34249 44.603455 244.816559 43.797027 C 244.056265 42.632596 243.240609 43.141919 242.810637 44.186401 Q 242.465552 45.026046 242.345603 45.911825 C 241.642516 51.176677 243.8625 56.570705 246.852006 60.809529 Q 248.608802 63.298938 249.963306 64.93763 C 253.16503 68.807379 255.255839 71.366912 256.983109 73.450339 Q 260.651712 77.877391 263.148503 83.359997 Q 264.696771 86.759176 266.213669 91.177001 Q 269.243772 100.005269 269.090606 109.235829 Q 269.070307 110.498065 268.88577 114.40103 Q 268.78981 116.434632 268.979884 119.538551" style="fill:none;stroke-width:0.50;stroke:#2185ce;"/>
		<path vector-effect="non-scaling-stroke" d="M 264.953278 119.857801 Q 265.672974 118.630627 265.920254 117.558465 C 266.534764 114.893745 267.060695 111.391226 267.08653 108.396184 Q 267.145582 101.909695 265.532726 96.246243 Q 265.067691 94.609396 263.691042 91.040443 C 263.128203 89.584443 262.473096 88.388641 261.591007 86.559875 Q 260.677547 84.668367 259.852665 83.387678 Q 257.614226 79.918375 255.126662 76.875353 Q 251.725638 72.715881 246.709912 66.906644 C 245.065684 65.002218 243.399312 62.813605 242.205355 60.516114 C 241.73663 59.613726 241.291895 58.943856 240.634942 57.897529 C 240.212351 57.225813 239.876493 56.530107 239.524027 55.827019" style="fill:none;stroke-width:0.50;stroke:#134e8b;"/>
		<path d="M 291.807158 107.196691 Q 291.737034 107.261279 291.768406 107.397837 L 291.604167 108.72097 Q 291.554342 108.77264 291.580177 108.861218 L 291.469455 109.68241 L 291.307062 110.060711 L 291.085617 111.786136 Q 291.065318 111.817507 291.059782 111.871023 Q 291.032101 111.92823 291.022875 112.000199 L 290.82911 112.828772 Q 290.788512 112.889669 290.792203 112.974556 Q 290.740532 113.026227 290.755295 113.118496 L 290.687016 113.334404 Q 290.655645 113.402683 290.651954 113.482034 Q 290.583676 113.587221 290.572603 113.718242 L 290.450809 114.12607 L 290.395447 114.410257 Q 290.343777 114.487763 290.325323 114.592949 Q 290.220137 114.818085 290.201683 115.056138 Q 290.155549 115.094891 290.127868 115.229603 L 290.01161 115.659575 Q 289.959939 115.714937 289.954403 115.821968 Q 289.845526 116.019423 289.816 116.253786 L 288.629425 119.379849 L 288.5593 119.564386 L 288.177308 120.392959 Q 288.068431 120.514754 288.057359 120.682683 Q 287.930028 120.824777 287.878358 121.03884 Q 287.754717 121.173552 287.736264 121.359935 L 287.549881 121.682876 Q 287.435468 121.82866 287.385643 122.009507 L 287.236167 122.332447 L 286.815422 123.118577 Q 286.682555 123.242217 286.638266 123.443362 Q 286.518317 123.567002 286.451884 123.757076 Q 286.359615 123.869644 286.319017 124.004356 Q 286.149242 124.181512 286.077273 124.419565 Q 285.911189 124.596721 285.850292 124.818166 Q 285.710043 124.927043 285.669445 125.102353 L 285.558723 125.23153 L 283.335047 128.473851 Q 283.204026 128.46647 283.213252 128.606718 L 282.890312 129.020082 Q 282.820188 129.086516 282.810961 129.165867 Q 278.603509 134.419646 273.301749 138.571737 Q 273.179955 138.614181 273.117212 138.715676 L 272.257268 139.367093 Q 272.187144 139.378165 272.142855 139.453826 L 271.775625 139.734323 Q 271.679666 139.749086 271.648295 139.833973 Q 265.927636 144.008208 259.452219 146.850084 Q 257.748939 147.597461 256.017978 148.199052 Q 246.732057 151.433993 236.676615 151.6905 Q 236.423799 151.696036 236.35552 151.577932 Q 236.687687 151.483818 236.970029 151.291899 Q 241.179327 148.691767 244.617258 145.07668 Q 245.982835 143.842125 247.483124 142.234804 Q 249.621912 139.946541 251.31412 137.72102 C 254.084026 134.264635 256.536528 130.348751 258.140158 126.218805 Q 259.629375 122.489304 260.162688 118.543895 C 260.485628 116.154136 260.483783 113.579839 260.310318 111.112574 Q 260.290018 110.817314 260.127626 109.324407 Q 260.127626 109.309644 260.122089 109.328098 Q 260.118399 109.33917 260.116553 109.344706 Q 260.099945 109.39084 260.094409 109.341015 Q 259.592467 105.641041 258.05158 102.08316 Q 258.02759 102.024108 257.957466 101.913386 Q 257.902105 101.826653 257.868888 101.738075 Q 257.776619 101.479723 257.771083 101.466805 Q 256.501466 98.72458 254.683773 96.30714 Q 252.552366 93.39514 249.944853 90.892813 Q 248.152995 89.172925 246.936893 88.181959 Q 242.757122 84.771708 238.568123 81.372529 Q 237.283743 80.329893 233.727707 77.144778 L 231.194009 74.53911 Q 229.581152 72.738025 228.278318 70.700732 Q 227.311342 69.139546 226.600874 67.476864 Q 225.648661 65.10925 225.238988 62.632758 L 225.071059 60.949777 Q 225.047069 60.708033 224.936346 60.923942 C 224.617097 61.553214 224.342136 62.450066 224.161289 62.922482 Q 223.502491 64.640525 222.727434 66.504352 Q 222.629629 66.742405 222.629629 66.941706 Q 222.629629 66.954623 222.613021 66.947242 Q 222.603794 66.943551 222.601948 66.943551 Q 222.574268 66.932479 222.56135 66.96016 Q 221.921005 68.5398 221.031535 70.353802 C 220.972483 70.477442 220.989092 70.619536 220.911586 70.735794 Q 220.78241 70.929559 220.775028 70.942476 Q 217.444128 77.77036 216.074861 80.331738 Q 214.294075 83.662638 212.767951 86.665062 Q 211.815738 88.541807 211.092352 90.525584 C 209.630816 94.533736 209.267277 98.741188 210.044179 102.908042 Q 211.247363 109.353933 214.871677 114.788559 Q 216.971713 117.936767 219.053294 120.278546 C 224.456549 126.359053 227.763459 129.859727 231.56862 135.144878 C 233.310653 137.566008 234.790643 139.904097 235.894176 142.699838 Q 235.973527 142.900984 235.759464 142.950809 Q 235.737319 142.9545 235.563854 142.921283 Q 235.519565 142.88253 235.438369 142.867767 L 234.565507 142.542982 Q 234.235185 142.339991 233.849502 142.308619 L 233.454592 142.16468 Q 233.353096 142.083484 233.209157 142.103783 L 233.091053 142.061339 Q 232.971104 141.921091 232.744123 141.950617 Q 232.6537 141.928472 232.572503 141.876802 Q 232.500534 141.756852 232.387966 141.812214 L 232.009664 141.671965 Q 231.952458 141.620295 231.869416 141.636903 C 225.525021 139.40031 219.468504 136.619332 213.980362 132.7625 C 210.780484 130.51668 207.720854 127.523484 205.390147 124.211038 Q 200.24709 116.894131 198.741265 108.163667 C 197.028758 98.235556 198.438623 87.910689 201.376458 78.298137 Q 201.891318 76.61331 202.59625 74.81038 C 204.716585 69.377599 207.38315 64.177336 210.88567 59.311085 Q 215.115267 53.433569 220.931885 47.308773 Q 225.550856 42.444368 228.121462 39.598802 C 231.695951 35.638629 234.613487 31.165443 236.440407 26.098046 C 238.001593 21.763263 238.597649 17.101849 238.287626 12.525322 Q 237.996057 8.205302 236.215271 4.163933 Q 236.121157 3.948024 236.134075 3.763487 C 236.137766 3.704435 236.204199 3.671218 236.254024 3.702589 Q 238.931662 5.440932 241.48935 7.753185 C 242.742359 8.884399 244.107935 10.500947 245.16718 11.722584 Q 245.85735 12.516095 246.49954 13.383421 Q 250.437568 18.707324 252.888224 24.926234 Q 254.910754 30.056373 256.071494 35.44302 Q 256.457177 37.238568 257.28575 41.425722 Q 257.913177 44.597919 259.099752 47.604033 C 261.543027 53.793417 266.171225 58.582162 271.40286 62.79146 Q 274.492016 65.277179 276.804269 67.23143 C 280.913917 70.704423 284.564066 74.969082 287.083001 79.702466 Q 290.537541 86.192646 291.539579 93.57045 Q 292.464112 100.374344 291.807158 107.196691 Z M 239.524027 55.827019 C 241.096285 60.396165 243.740706 64.548256 246.776346 68.286983 C 249.786151 71.994339 252.733213 75.251424 255.567707 78.763171 C 259.433765 83.55007 262.428807 88.634075 264.438419 94.411941 Q 266.086338 99.149016 266.593816 103.804894 Q 267.474059 111.882095 264.953278 119.857801 Q 264.073035 122.552047 262.851397 125.115271 Q 262.273795 126.327682 261.489511 127.442287 Q 261.347418 127.641588 261.528264 127.47735 C 264.178221 125.054374 266.78758 122.437634 268.979884 119.538551 Q 272.744447 114.834693 274.754059 109.250592 C 276.195296 104.902891 276.398287 100.294993 275.604776 95.814425 C 275.22832 93.681173 274.420046 91.119794 273.89596 89.040058 C 273.711422 88.314826 273.408781 87.567449 273.085841 86.890197 Q 270.816031 82.101452 270.363914 81.084651 Q 269.417238 78.95878 268.178992 77.133706 C 266.726682 74.993072 264.934824 72.71219 263.4087 70.549412 C 260.247575 66.066999 257.175027 61.818948 254.419884 57.53399 Q 253.825674 56.607612 251.840052 52.951927 Q 250.013132 49.46417 248.608802 45.823248 Q 246.167372 39.502842 245.351717 32.772764 L 245.209623 30.846193 Q 245.176407 30.405149 245.039849 30.824049 C 244.178059 33.477696 243.022855 35.777032 241.579773 38.474969 C 239.599687 42.18048 238.178749 46.159106 238.427875 50.414538 Q 238.590267 53.177062 239.524027 55.827019 Z" style="fill:#9cdffb;"/>
		<path d="M 225.238988 62.632758 C 224.639241 63.180834 224.919738 63.673549 225.20208 64.44307 C 225.593299 65.518923 225.919931 66.677817 226.600874 67.476864 Q 227.311342 69.139546 228.278318 70.700732 C 228.787642 72.285909 229.612524 73.823105 231.194009 74.53911 L 233.727707 77.144778 Q 233.474891 77.751906 234.737127 78.698583 Q 235.226151 79.065812 236.634171 80.400017 Q 237.623292 81.335622 238.555205 82.081153 Q 240.77519 83.856403 242.99702 85.626116 C 243.369786 85.921376 243.799758 86.436235 244.213122 86.773939 C 247.167565 89.183997 250.002059 91.675252 252.664934 94.386106 C 253.338495 95.072585 253.77954 95.74061 254.386668 96.425244 C 254.471555 96.519358 254.626566 96.486141 254.665319 96.364346 L 254.683773 96.30714 Q 256.501466 98.72458 257.771083 101.466805 Q 257.776619 101.479723 257.868888 101.738075 Q 257.902105 101.826653 257.957466 101.913386 Q 258.02759 102.024108 258.05158 102.08316 Q 259.592467 105.641041 260.094409 109.341015 Q 260.099945 109.39084 260.116553 109.344706 Q 260.118399 109.33917 260.122089 109.328098 Q 260.127626 109.309644 260.127626 109.324407 Q 260.290018 110.817314 260.310318 111.112574 C 260.483783 113.579839 260.485628 116.154136 260.162688 118.543895 Q 259.629375 122.489304 258.140158 126.218805 Q 258.869081 121.068366 259.025937 119.453664 Q 259.699499 112.515058 256.387053 106.196498 C 253.679889 101.031297 249.979915 96.08754 245.488275 92.293452 C 241.880569 89.244894 236.338911 84.839987 232.371358 80.556874 C 229.977908 77.977041 228.529289 75.657407 226.654389 72.437229 C 225.722476 70.839135 224.519292 69.731911 223.260747 71.927906 Q 222.710825 72.8875 222.273472 73.937518 Q 220.43917 78.34058 218.132453 83.304636 C 216.973558 85.79589 215.89586 88.370187 215.118957 90.604935 Q 212.302917 98.702435 213.616823 107.235444 C 214.478613 112.819545 218.571652 117.536321 222.302998 121.546318 Q 228.198967 127.877796 230.345137 130.324761 Q 233.465664 133.884488 235.080366 136.515991 C 236.719058 139.182556 237.857654 142.127773 239.145725 144.995483 Q 238.400194 147.156416 236.835317 151.074145 Q 236.75043 151.288208 236.970029 151.291899 Q 236.687687 151.483818 236.35552 151.577932 Q 236.300158 150.745668 236.385046 149.917096 Q 236.552975 148.293167 236.55482 148.271022 C 236.637862 146.510535 236.362901 144.962267 236.058414 143.305121 Q 236.039961 143.212852 235.962455 143.164873 L 235.563854 142.921283 Q 235.737319 142.9545 235.759464 142.950809 Q 235.973527 142.900984 235.894176 142.699838 C 234.790643 139.904097 233.310653 137.566008 231.56862 135.144878 C 227.763459 129.859727 224.456549 126.359053 219.053294 120.278546 Q 216.971713 117.936767 214.871677 114.788559 Q 211.247363 109.353933 210.044179 102.908042 C 209.267277 98.741188 209.630816 94.533736 211.092352 90.525584 Q 211.815738 88.541807 212.767951 86.665062 Q 214.294075 83.662638 216.074861 80.331738 Q 217.444128 77.77036 220.775028 70.942476 Q 220.78241 70.929559 220.911586 70.735794 C 220.989092 70.619536 220.972483 70.477442 221.031535 70.353802 Q 221.921005 68.5398 222.56135 66.96016 Q 222.574268 66.932479 222.601948 66.943551 Q 222.603794 66.943551 222.613021 66.947242 Q 222.629629 66.954623 222.629629 66.941706 Q 222.629629 66.742405 222.727434 66.504352 Q 223.502491 64.640525 224.161289 62.922482 C 224.342136 62.450066 224.617097 61.553214 224.936346 60.923942 Q 225.047069 60.708033 225.071059 60.949777 L 225.238988 62.632758 Z" style="fill:#1d75bd;"/>
		<path d="M 225.238988 62.632758 Q 225.648661 65.10925 226.600874 67.476864 C 225.919931 66.677817 225.593299 65.518923 225.20208 64.44307 C 224.919738 63.673549 224.639241 63.180834 225.238988 62.632758 Z" style="fill:#082759;"/>
		<path d="M 258.140158 126.218805 C 256.536528 130.348751 254.084026 134.264635 251.31412 137.72102 Q 251.578009 135.868264 251.847433 132.358363 Q 252.613263 122.415489 246.47555 114.845766 Q 244.644939 112.588873 242.319768 111.149482 Q 241.129502 110.413178 239.440985 109.619667 C 237.505188 108.272544 235.281512 106.833152 233.674191 105.454658 Q 230.223342 102.494678 227.894481 98.48099 Q 226.038034 95.277421 225.777837 91.446425 Q 225.763074 91.219444 225.633898 91.407672 Q 222.971023 95.275576 221.658962 99.76168 Q 220.937421 102.23079 221.094278 104.993315 Q 221.12934 107.305568 221.310187 108.486607 C 221.666344 110.811778 222.577959 112.924731 223.653811 115.18716 C 225.012007 118.045644 226.864762 120.488919 229.101355 122.588954 Q 230.083094 123.511641 233.373396 126.610024 Q 234.988098 128.128767 237.128731 131.205005 C 237.940696 132.371281 238.623484 133.718404 239.112508 134.914206 C 240.197588 137.567854 240.042577 140.441101 239.695646 143.247914 L 239.145725 144.995483 C 237.857654 142.127773 236.719058 139.182556 235.080366 136.515991 Q 233.465664 133.884488 230.345137 130.324761 Q 228.198967 127.877796 222.302998 121.546318 C 218.571652 117.536321 214.478613 112.819545 213.616823 107.235444 Q 212.302917 98.702435 215.118957 90.604935 C 215.89586 88.370187 216.973558 85.79589 218.132453 83.304636 Q 220.43917 78.34058 222.273472 73.937518 Q 222.710825 72.8875 223.260747 71.927906 C 224.519292 69.731911 225.722476 70.839135 226.654389 72.437229 C 228.529289 75.657407 229.977908 77.977041 232.371358 80.556874 C 236.338911 84.839987 241.880569 89.244894 245.488275 92.293452 C 249.979915 96.08754 253.679889 101.031297 256.387053 106.196498 Q 259.699499 112.515058 259.025937 119.453664 Q 258.869081 121.068366 258.140158 126.218805 Z" style="fill:#2495de;"/>
		<path d="M 228.278318 70.700732 Q 229.581152 72.738025 231.194009 74.53911 C 229.612524 73.823105 228.787642 72.285909 228.278318 70.700732 Z" style="fill:#082759;"/>
		<path d="M 233.727707 77.144778 Q 237.283743 80.329893 238.568123 81.372529 Q 242.757122 84.771708 246.936893 88.181959 Q 248.152995 89.172925 249.944853 90.892813 Q 252.552366 93.39514 254.683773 96.30714 L 254.665319 96.364346 C 254.626566 96.486141 254.471555 96.519358 254.386668 96.425244 C 253.77954 95.74061 253.338495 95.072585 252.664934 94.386106 C 250.002059 91.675252 247.167565 89.183997 244.213122 86.773939 C 243.799758 86.436235 243.369786 85.921376 242.99702 85.626116 Q 240.77519 83.856403 238.555205 82.081153 Q 237.623292 81.335622 236.634171 80.400017 Q 235.226151 79.065812 234.737127 78.698583 Q 233.474891 77.751906 233.727707 77.144778 Z" style="fill:#082759;"/>
		<path d="M 239.440985 109.619667 Q 242.84939 112.000199 245.486429 115.146562 Q 246.667469 116.556427 247.43699 117.864797 Q 248.291398 119.318952 248.887453 120.885674 Q 251.448832 127.619443 249.704954 134.630019 Q 248.948351 137.67304 247.147266 141.312117 C 246.91844 141.773461 246.589963 142.173907 246.329765 142.701684 Q 246.119393 143.124274 245.672812 143.709258 Q 245.154262 144.388355 244.617258 145.07668 Q 241.179327 148.691767 236.970029 151.291899 Q 236.75043 151.288208 236.835317 151.074145 Q 238.400194 147.156416 239.145725 144.995483 L 239.695646 143.247914 Q 240.324919 140.823093 240.402425 139.12904 C 240.609106 134.615256 238.72867 130.483464 235.680113 127.156255 Q 233.535788 124.814475 230.895058 122.553892 Q 230.883986 122.54282 230.837852 122.485613 Q 230.806481 122.44686 230.745583 122.433943 Q 230.658851 122.413644 230.590572 122.358282 Q 228.876219 120.96318 227.835429 119.518252 C 227.76715 119.424138 227.693335 119.333715 227.613984 119.248828 C 223.96568 115.355089 221.59991 110.361507 221.094278 104.993315 Q 220.937421 102.23079 221.658962 99.76168 Q 222.971023 95.275576 225.633898 91.407672 Q 225.763074 91.219444 225.777837 91.446425 Q 226.038034 95.277421 227.894481 98.48099 Q 230.223342 102.494678 233.674191 105.454658 C 235.281512 106.833152 237.505188 108.272544 239.440985 109.619667 Z" style="fill:#082759;"/>
		<path d="M 239.695646 143.247914 C 240.042577 140.441101 240.197588 137.567854 239.112508 134.914206 C 238.623484 133.718404 237.940696 132.371281 237.128731 131.205005 Q 234.988098 128.128767 233.373396 126.610024 Q 230.083094 123.511641 229.101355 122.588954 C 226.864762 120.488919 225.012007 118.045644 223.653811 115.18716 C 222.577959 112.924731 221.666344 110.811778 221.310187 108.486607 Q 221.12934 107.305568 221.094278 104.993315 C 221.59991 110.361507 223.96568 115.355089 227.613984 119.248828 C 227.693335 119.333715 227.76715 119.424138 227.835429 119.518252 Q 228.876219 120.96318 230.590572 122.358282 Q 230.658851 122.413644 230.745583 122.433943 Q 230.806481 122.44686 230.837852 122.485613 Q 230.883986 122.54282 230.895058 122.553892 Q 233.535788 124.814475 235.680113 127.156255 C 238.72867 130.483464 240.609106 134.615256 240.402425 139.12904 Q 240.324919 140.823093 239.695646 143.247914 Z" style="fill:#1d75bd;"/>
		<path d="M 291.807158 107.196691 L 291.768406 107.397837 Q 291.737034 107.261279 291.807158 107.196691 Z" style="fill:#1d75bd;"/>
		<path d="M 291.604167 108.72097 Q 291.611549 108.804012 291.580177 108.861218 Q 291.554342 108.77264 291.604167 108.72097 Z" style="fill:#082759;"/>
		<path d="M 251.31412 137.72102 Q 249.621912 139.946541 247.483124 142.234804 Q 245.982835 143.842125 244.617258 145.07668 Q 245.154262 144.388355 245.672812 143.709258 Q 246.119393 143.124274 246.329765 142.701684 C 246.589963 142.173907 246.91844 141.773461 247.147266 141.312117 Q 248.948351 137.67304 249.704954 134.630019 Q 251.448832 127.619443 248.887453 120.885674 Q 248.291398 119.318952 247.43699 117.864797 Q 246.667469 116.556427 245.486429 115.146562 Q 242.84939 112.000199 239.440985 109.619667 Q 241.129502 110.413178 242.319768 111.149482 Q 244.644939 112.588873 246.47555 114.845766 Q 252.613263 122.415489 251.847433 132.358363 Q 251.578009 135.868264 251.31412 137.72102 Z" style="fill:#1d75bd;"/>
		<path d="M 291.469455 109.68241 L 291.353196 110.354126 Q 291.388259 110.105 291.307062 110.060711 L 291.469455 109.68241 Z" style="fill:#082759;"/>
		<path d="M 291.307062 110.060711 Q 291.388259 110.105 291.353196 110.354126 L 291.292299 110.811778 Q 291.253546 110.876366 291.257237 110.981553 L 291.085617 111.786136 L 291.307062 110.060711 Z" style="fill:#1d75bd;"/>
		<path d="M 291.292299 110.811778 Q 291.288608 110.905892 291.257237 110.981553 Q 291.253546 110.876366 291.292299 110.811778 Z" style="fill:#082759;"/>
		<path d="M 291.059782 111.871023 Q 291.0727 111.957755 291.022875 112.000199 Q 291.032101 111.92823 291.059782 111.871023 Z" style="fill:#082759;"/>
		<path d="M 290.82911 112.828772 Q 290.834646 112.919195 290.792203 112.974556 Q 290.788512 112.889669 290.82911 112.828772 Z" style="fill:#082759;"/>
		<path d="M 290.792203 112.974556 Q 290.799584 113.057598 290.755295 113.118496 Q 290.740532 113.026227 290.792203 112.974556 Z" style="fill:#082759;"/>
		<path d="M 290.687016 113.334404 Q 290.690707 113.419292 290.651954 113.482034 Q 290.655645 113.402683 290.687016 113.334404 Z" style="fill:#082759;"/>
		<path d="M 290.651954 113.482034 Q 290.661181 113.642582 290.572603 113.718242 Q 290.583676 113.587221 290.651954 113.482034 Z" style="fill:#082759;"/>
		<path d="M 290.450809 114.12607 Q 290.474799 114.306916 290.395447 114.410257 L 290.450809 114.12607 Z" style="fill:#082759;"/>
		<path d="M 290.325323 114.592949 Q 290.340086 114.871601 290.201683 115.056138 Q 290.220137 114.818085 290.325323 114.592949 Z" style="fill:#082759;"/>
		<path d="M 290.127868 115.229603 Q 290.161085 115.541472 290.01161 115.659575 L 290.127868 115.229603 Z" style="fill:#082759;"/>
		<path d="M 290.01161 115.659575 Q 290.070662 115.777679 289.954403 115.821968 Q 289.959939 115.714937 290.01161 115.659575 Z" style="fill:#082759;"/>
		<path d="M 289.954403 115.821968 Q 289.976548 116.167053 289.816 116.253786 Q 289.845526 116.019423 289.954403 115.821968 Z" style="fill:#082759;"/>
		<path d="M 288.5593 119.564386 L 288.629425 119.379849 Q 288.670023 119.486881 288.5593 119.564386 Z" style="fill:#082759;"/>
		<path d="M 288.057359 120.682683 Q 288.068431 120.514754 288.177308 120.392959 Q 288.240051 120.514754 288.057359 120.682683 Z" style="fill:#082759;"/>
		<path d="M 287.878358 121.03884 Q 287.91711 121.26213 287.736264 121.359935 Q 287.754717 121.173552 287.878358 121.03884 Z" style="fill:#082759;"/>
		<path d="M 287.549881 121.682876 Q 287.566489 121.94861 287.385643 122.009507 Q 287.435468 121.82866 287.549881 121.682876 Z" style="fill:#082759;"/>
		<path d="M 287.236167 122.332447 Q 287.182652 122.823317 286.815422 123.118577 L 287.236167 122.332447 Z" style="fill:#082759;"/>
		<path d="M 286.815422 123.118577 Q 286.820958 123.316032 286.638266 123.443362 Q 286.682555 123.242217 286.815422 123.118577 Z" style="fill:#082759;"/>
		<path d="M 286.638266 123.443362 Q 286.643802 123.646353 286.451884 123.757076 Q 286.518317 123.567002 286.638266 123.443362 Z" style="fill:#082759;"/>
		<path d="M 286.451884 123.757076 Q 286.437121 123.947149 286.319017 124.004356 Q 286.359615 123.869644 286.451884 123.757076 Z" style="fill:#082759;"/>
		<path d="M 286.319017 124.004356 Q 286.282109 124.329142 286.077273 124.419565 Q 286.149242 124.181512 286.319017 124.004356 Z" style="fill:#082759;"/>
		<path d="M 285.850292 124.818166 Q 285.894581 125.013775 285.669445 125.102353 Q 285.710043 124.927043 285.850292 124.818166 Z" style="fill:#082759;"/>
		<path d="M 285.669445 125.102353 Q 285.645455 125.225993 285.558723 125.23153 L 285.669445 125.102353 Z" style="fill:#082759;"/>
		<path d="M 283.335047 128.473851 Q 283.351655 128.540285 283.213252 128.606718 Q 283.204026 128.46647 283.335047 128.473851 Z" style="fill:#1d75bd;"/>
		<path d="M 282.890312 129.020082 Q 282.897693 129.103124 282.810961 129.165867 Q 282.820188 129.086516 282.890312 129.020082 Z" style="fill:#082759;"/>
		<path d="M 273.301749 138.571737 Q 273.259306 138.68246 273.117212 138.715676 Q 273.179955 138.614181 273.301749 138.571737 Z" style="fill:#082759;"/>
		<path d="M 272.257268 139.367093 Q 272.22036 139.455671 272.142855 139.453826 Q 272.187144 139.378165 272.257268 139.367093 Z" style="fill:#082759;"/>
		<path d="M 271.775625 139.734323 Q 271.740563 139.798911 271.648295 139.833973 Q 271.679666 139.749086 271.775625 139.734323 Z" style="fill:#082759;"/>
		<path d="M 232.009664 141.671965 L 231.869416 141.636903 Q 231.952458 141.620295 232.009664 141.671965 Z" style="fill:#1d75bd;"/>
		<path d="M 232.572503 141.876802 Q 232.465472 141.873111 232.387966 141.812214 Q 232.500534 141.756852 232.572503 141.876802 Z" style="fill:#1d75bd;"/>
		<path d="M 233.091053 142.061339 Q 232.895444 142.057648 232.744123 141.950617 Q 232.971104 141.921091 233.091053 142.061339 Z" style="fill:#1d75bd;"/>
		<path d="M 233.454592 142.16468 Q 233.316189 142.184979 233.209157 142.103783 Q 233.353096 142.083484 233.454592 142.16468 Z" style="fill:#082759;"/>
		<path d="M 234.565507 142.542982 Q 234.177979 142.502383 233.849502 142.308619 Q 234.235185 142.339991 234.565507 142.542982 Z" style="fill:#082759;"/>
		<path d="M 235.563854 142.921283 L 235.438369 142.867767 Q 235.519565 142.88253 235.563854 142.921283 Z" style="fill:#082759;"/>
		<path d="M 245.351717 32.772764 Q 244.696609 33.732358 244.929127 34.922624 Q 245.104437 35.825012 245.567626 37.581808 C 245.982835 39.159603 246.671159 40.571314 247.056843 42.193397 C 247.455443 43.867151 247.802374 45.223501 248.470399 46.690573 C 249.337725 48.591308 250.1054 50.691344 251.223697 52.558862 Q 251.46175 52.955617 251.840052 52.951927 Q 253.825674 56.607612 254.419884 57.53399 C 257.175027 61.818948 260.247575 66.066999 263.4087 70.549412 C 264.934824 72.71219 266.726682 74.993072 268.178992 77.133706 Q 269.417238 78.95878 270.363914 81.084651 Q 270.816031 82.101452 273.085841 86.890197 C 273.408781 87.567449 273.711422 88.314826 273.89596 89.040058 C 274.420046 91.119794 275.22832 93.681173 275.604776 95.814425 C 276.398287 100.294993 276.195296 104.902891 274.754059 109.250592 C 274.730069 106.408716 275.141587 103.181157 275.089917 101.012843 C 274.929369 94.502364 273.091377 88.392331 269.679281 82.882045 C 267.415007 79.22636 265.121207 76.382638 262.410353 72.977924 C 257.90395 67.314471 253.434455 61.466482 249.907945 55.275252 C 248.05519 52.020013 246.962729 48.967765 245.597152 45.289934 Q 245.34249 44.603455 244.816559 43.797027 C 244.056265 42.632596 243.240609 43.141919 242.810637 44.186401 Q 242.465552 45.026046 242.345603 45.911825 C 241.642516 51.176677 243.8625 56.570705 246.852006 60.809529 Q 248.608802 63.298938 249.963306 64.93763 C 253.16503 68.807379 255.255839 71.366912 256.983109 73.450339 Q 260.651712 77.877391 263.148503 83.359997 Q 264.696771 86.759176 266.213669 91.177001 Q 269.243772 100.005269 269.090606 109.235829 Q 269.070307 110.498065 268.88577 114.40103 Q 268.78981 116.434632 268.979884 119.538551 C 266.78758 122.437634 264.178221 125.054374 261.528264 127.47735 Q 261.347418 127.641588 261.489511 127.442287 Q 262.273795 126.327682 262.851397 125.115271 Q 264.073035 122.552047 264.953278 119.857801 Q 265.672974 118.630627 265.920254 117.558465 C 266.534764 114.893745 267.060695 111.391226 267.08653 108.396184 Q 267.145582 101.909695 265.532726 96.246243 Q 265.067691 94.609396 263.691042 91.040443 C 263.128203 89.584443 262.473096 88.388641 261.591007 86.559875 Q 260.677547 84.668367 259.852665 83.387678 Q 257.614226 79.918375 255.126662 76.875353 Q 251.725638 72.715881 246.709912 66.906644 C 245.065684 65.002218 243.399312 62.813605 242.205355 60.516114 C 241.73663 59.613726 241.291895 58.943856 240.634942 57.897529 C 240.212351 57.225813 239.876493 56.530107 239.524027 55.827019 Q 238.590267 53.177062 238.427875 50.414538 C 238.178749 46.159106 239.599687 42.18048 241.579773 38.474969 C 243.022855 35.777032 244.178059 33.477696 245.039849 30.824049 Q 245.176407 30.405149 245.209623 30.846193 L 245.351717 32.772764 Z" style="fill:#1d75bd;"/>
		<path d="M 245.351717 32.772764 Q 246.167372 39.502842 248.608802 45.823248 Q 250.013132 49.46417 251.840052 52.951927 Q 251.46175 52.955617 251.223697 52.558862 C 250.1054 50.691344 249.337725 48.591308 248.470399 46.690573 C 247.802374 45.223501 247.455443 43.867151 247.056843 42.193397 C 246.671159 40.571314 245.982835 39.159603 245.567626 37.581808 Q 245.104437 35.825012 244.929127 34.922624 Q 244.696609 33.732358 245.351717 32.772764 Z" style="fill:#082759;"/>
		<path d="M 274.754059 109.250592 Q 272.744447 114.834693 268.979884 119.538551 Q 268.78981 116.434632 268.88577 114.40103 Q 269.070307 110.498065 269.090606 109.235829 Q 269.243772 100.005269 266.213669 91.177001 Q 264.696771 86.759176 263.148503 83.359997 Q 260.651712 77.877391 256.983109 73.450339 C 255.255839 71.366912 253.16503 68.807379 249.963306 64.93763 Q 248.608802 63.298938 246.852006 60.809529 C 243.8625 56.570705 241.642516 51.176677 242.345603 45.911825 Q 242.465552 45.026046 242.810637 44.186401 C 243.240609 43.141919 244.056265 42.632596 244.816559 43.797027 Q 245.34249 44.603455 245.597152 45.289934 C 246.962729 48.967765 248.05519 52.020013 249.907945 55.275252 C 253.434455 61.466482 257.90395 67.314471 262.410353 72.977924 C 265.121207 76.382638 267.415007 79.22636 269.679281 82.882045 C 273.091377 88.392331 274.929369 94.502364 275.089917 101.012843 C 275.141587 103.181157 274.730069 106.408716 274.754059 109.250592 Z" style="fill:#2495de;"/>
		<path d="M 264.953278 119.857801 Q 267.474059 111.882095 266.593816 103.804894 Q 266.086338 99.149016 264.438419 94.411941 C 262.428807 88.634075 259.433765 83.55007 255.567707 78.763171 C 252.733213 75.251424 249.786151 71.994339 246.776346 68.286983 C 243.740706 64.548256 241.096285 60.396165 239.524027 55.827019 C 239.876493 56.530107 240.212351 57.225813 240.634942 57.897529 C 241.291895 58.943856 241.73663 59.613726 242.205355 60.516114 C 243.399312 62.813605 245.065684 65.002218 246.709912 66.906644 Q 251.725638 72.715881 255.126662 76.875353 Q 257.614226 79.918375 259.852665 83.387678 Q 260.677547 84.668367 261.591007 86.559875 C 262.473096 88.388641 263.128203 89.584443 263.691042 91.040443 Q 265.067691 94.609396 265.532726 96.246243 Q 267.145582 101.909695 267.08653 108.396184 C 267.060695 111.391226 266.534764 114.893745 265.920254 117.558465 Q 265.672974 118.630627 264.953278 119.857801 Z" style="fill:#082759;"/>
	</g>
	<g id="surface4">
	</g>
</svg>
