<?xml version="1.0" encoding="utf-8"?>
<svg xmlns="http://www.w3.org/2000/svg" width="490pt" height="280pt" viewBox="0 0 490 280" version="1.1" xmlns:xlink="http://www.w3.org/1999/xlink">
	<g id="surface2">
		<path vector-effect="non-scaling-stroke" d="M 246.288428 6.646389 Q 246.213809 7.386087 246.27545 8.171204 Q 248.28042 34.093062 251.894557 59.372551 Q 252.001618 60.12847 252.345513 59.44717 Q 257.974352 48.260866 265.614649 34.352605 Q 266.951295 31.922634 268.654546 28.619949 Q 272.443874 21.278126 276.252668 13.910349" style="fill:none;stroke-width:0.50;stroke:#efd2aa;"/>
		<path vector-effect="non-scaling-stroke" d="M 277.543894 14.341839 Q 276.99561 15.860166 276.60954 17.18708 Q 274.919266 22.99111 273.271168 28.911935 C 271.564672 35.046883 269.764093 40.588126 267.742902 47.073457 Q 264.7906 56.553265 263.333915 65.812462 C 263.314449 65.942234 263.453953 66.033074 263.564259 65.961699 Q 266.075338 64.294136 269.494817 62.548709 C 274.010865 60.245265 280.246386 57.471399 285.949844 54.811083 Q 288.970275 53.406306 292.934795 51.680345 Q 302.628726 47.462772 312.53678 45.224213" style="fill:none;stroke-width:0.50;stroke:#efd2aa;"/>
		<path vector-effect="non-scaling-stroke" d="M 313.503578 46.664677 C 313.065599 46.966396 312.634109 47.345977 312.202619 47.569833 Q 300.824902 53.477681 290.433449 60.615114 Q 283.974072 65.056543 278.186263 70.591298 Q 275.026327 73.614974 271.9183 76.804109 C 271.856658 76.86575 271.89559 76.972812 271.983185 76.982544 Q 297.882333 79.782365 323.823657 84.01616" style="fill:none;stroke-width:0.50;stroke:#efd2aa;"/>
		<path vector-effect="non-scaling-stroke" d="M 323.849611 85.638304 Q 302.333496 86.322848 281.060702 87.789266 Q 278.183019 87.987168 276.064499 88.204535 Q 275.665452 88.246711 275.980148 88.499765 Q 282.228646 93.473258 288.009966 99.085876 Q 290.070089 101.087601 296.763054 107.842208 Q 300.344748 111.456344 301.811166 112.526959 Q 309.016728 117.772972 311.034675 119.560575 Q 312.617888 120.962107 314.324383 122.499899" style="fill:none;stroke-width:0.50;stroke:#efd2aa;"/>
		<path vector-effect="non-scaling-stroke" d="M 313.675525 123.713263 Q 312.682773 123.265551 312.394032 123.077383 Q 308.273787 120.4268 304.559077 117.821637 Q 304.29629 117.636712 304.43255 117.928698 C 305.775685 120.816114 307.18695 123.972806 307.754701 127.174918 C 307.800121 127.431217 307.553555 127.638851 307.310233 127.551255 Q 305.499921 126.899153 303.598768 127.359842 Q 303.222431 127.450682 302.81365 127.414995 C 302.038266 127.350109 301.671661 127.337132 300.870322 127.59992 Q 299.686157 127.98599 299.449324 127.943814 Q 298.041303 127.684271 296.675458 127.924348 C 296.51 127.953547 296.389961 128.093051 296.386717 128.261754 Q 296.308854 135.15911 296.779276 141.835854 Q 296.811718 142.28681 296.55542 142.65017" style="fill:none;stroke-width:0.50;stroke:#efd2aa;"/>
		<path vector-effect="non-scaling-stroke" d="M 295.423163 142.144061 Q 293.414949 141.037759 292.616855 140.91772 Q 292.191853 140.852834 292.00044 140.710086 L 289.839744 139.905502 Q 289.693751 139.85035 289.544514 139.899014 Q 289.379056 139.950922 289.242795 139.821151 Q 289.145467 139.727067 289.275238 139.769242 L 289.463407 139.830884 C 289.521804 139.85035 289.567224 139.78222 289.528293 139.736799 Q 289.392033 139.571341 289.226574 139.581074 Q 288.626381 139.616761 288.022943 139.603784 Q 287.974279 139.600539 287.96779 139.551875 Q 287.958058 139.503211 287.961302 139.451302 Q 287.964546 139.360462 288.048898 139.389661 Q 288.301952 139.477256 288.493365 139.438325 Q 288.804817 139.373439 288.499854 139.331264 Q 288.214356 139.292332 287.958058 139.366951 C 287.925615 139.376684 287.889928 139.353974 287.889928 139.318286 L 287.889928 139.201492 C 287.889928 139.139851 287.932103 139.087942 287.993745 139.074965 Q 288.233822 139.016568 288.473899 139.042522 Q 288.470655 139.039278 288.473899 139.039278 Q 288.246799 139.0263 287.636873 139.084698 C 287.614163 139.087942 287.594697 139.104163 287.594697 139.126873 L 287.594697 139.474012 Q 287.594697 139.678402 287.419506 139.574585 Q 287.192406 139.438325 287.189161 139.159316 Q 287.185917 135.535447 287.176184 116.692625 Q 287.176184 116.601785 287.189161 116.533655 C 287.231337 116.329264 287.484392 116.244913 287.640117 116.387662 L 298.300846 126.013463 C 298.368976 126.07186 298.469549 126.065372 298.524702 125.993997 Q 298.690161 125.77663 299.15085 125.225101 C 300.046273 124.141509 302.414603 124.563266 303.520905 124.803344 C 303.621478 124.826054 303.68312 124.699526 303.605257 124.631396 Q 302.288076 123.489407 301.947426 123.1812 C 283.828079 106.797547 260.926653 85.161393 247.0995 72.138823 Q 246.317626 71.399125 245.636326 70.867062 Q 245.328119 70.623741 245.042621 70.889772 Q 214.108339 99.861261 189.980572 122.295509 Q 188.80614 123.388834 187.865297 123.920897 Q 186.820636 124.511358 188.017778 124.355632 Q 189.072172 124.222616 190.736491 124.592465 C 191.472944 124.754679 192.193176 125.455445 192.699285 125.922623 C 192.764171 125.984264 192.867988 125.984264 192.932874 125.922623 L 203.259441 116.374684 C 203.376236 116.264379 203.570893 116.34873 203.570893 116.510945 Q 203.596847 126.256785 203.557916 139.808174 Q 203.554671 140.765239 203.51574 141.028026 Q 203.486541 141.206462 203.272418 141.118866" style="fill:none;stroke-width:0.50;stroke:#a29c8e;"/>
		<path vector-effect="non-scaling-stroke" d="M 203.259441 140.956652 Q 203.366503 140.596536 203.110204 140.460276 Q 202.591118 140.174778 202.042833 140.083938 Q 201.968215 140.074205 202.042833 140.061228 Q 202.373751 140.012564 202.980432 140.200733 Q 203.093983 140.23642 203.029097 140.135847 L 202.646271 139.568097 Q 202.558675 139.435081 202.425659 139.519432 L 200.281185 140.856079" style="fill:none;stroke-width:0.50;stroke:#efd2aa;"/>
		<path vector-effect="non-scaling-stroke" d="M 194.068374 142.822117 Q 193.727724 142.24139 193.786121 141.508181 Q 194.418757 133.342309 194.441468 126.493618 Q 194.441468 126.285983 194.263032 126.3898 C 193.831541 126.63961 193.753679 127.762134 193.750434 128.248777 C 193.74719 128.4629 193.503868 128.589427 193.328677 128.466144 Q 190.804621 126.720718 188.027511 126.324915 C 185.373684 125.948577 183.741807 127.194384 181.684929 128.647824 Q 181.24695 128.956032 181.357256 128.433701 Q 181.620043 127.194384 182.194282 125.86747 Q 184.345244 120.871267 187.067202 117.156558 C 187.07369 117.146825 187.07369 117.130603 187.063958 117.124115 C 187.054225 117.114382 187.038003 117.114382 187.02827 117.120871 Q 182.31432 120.54035 177.39598 123.330437 Q 177.249988 123.411544 177.084529 123.382346 L 176.841207 123.333681" style="fill:none;stroke-width:0.50;stroke:#efd2aa;"/>
		<path vector-effect="non-scaling-stroke" d="M 176.477847 122.675091 Q 179.238736 119.680614 182.521955 117.192245 Q 185.448302 114.976397 186.973117 113.902537 C 189.876755 111.855392 192.842034 109.230763 194.639369 107.326366 C 200.644545 100.970807 207.817665 93.80742 214.880479 88.45759 C 214.958342 88.399193 214.932388 88.272665 214.835059 88.2532 Q 214.121316 88.107207 213.48868 88.048809 Q 195.220097 86.416933 170.751679 85.693457 Q 168.295754 85.622082 166.51464 85.810251" style="fill:none;stroke-width:0.50;stroke:#efd2aa;"/>
		<path vector-effect="non-scaling-stroke" d="M 166.56006 83.909098 Q 192.955584 79.723967 219.068855 77.209645 Q 219.461413 77.170713 219.188893 76.881972 C 215.74346 73.228904 212.495928 69.80618 208.923967 66.724107 Q 202.548942 61.221795 195.145478 56.62464 Q 186.343726 51.161259 177.084529 46.603035" style="fill:none;stroke-width:0.50;stroke:#efd2aa;"/>
		<path vector-effect="non-scaling-stroke" d="M 178.207052 44.857609 Q 186.39239 46.60628 192.712262 49.149801 Q 205.932734 54.470433 221.755125 62.733633 C 223.630323 63.716652 225.891591 65.050055 227.205528 65.958455 C 227.280147 66.010364 227.383964 65.955211 227.383964 65.861127 Q 227.383964 65.419903 227.263925 64.582877 Q 226.186822 57.004221 223.776316 48.789685 Q 223.228031 46.917731 222.309898 44.429363 C 221.167909 41.337557 219.704735 37.47361 218.624387 34.190391 C 216.496135 27.718037 214.792884 21.638242 212.726272 14.140694" style="fill:none;stroke-width:0.50;stroke:#efd2aa;"/>
		<path vector-effect="non-scaling-stroke" d="M 213.777422 13.712448 C 215.26655 16.91456 217.057396 20.155603 219.688514 25.158294 Q 221.375543 28.36365 222.816007 30.84553 Q 227.205528 38.417698 231.562606 46.220209 C 234.018532 50.616219 236.185716 54.901923 238.472939 59.434193 Q 238.891452 60.267975 239.047178 59.349841 C 240.192411 52.617945 241.003483 45.061999 241.376576 37.785062 C 242.025434 25.187493 242.63536 15.688219 243.670288 6.613946" style="fill:none;stroke-width:0.50;stroke:#efd2aa;"/>
		<path vector-effect="non-scaling-stroke" d="M 292.00044 140.710086 Q 291.770095 140.586803 291.802538 140.749017 C 291.809027 140.784704 291.84147 140.807414 291.877157 140.800926 Q 292.036127 140.768483 292.00044 140.710086" style="fill:none;stroke-width:0.50;stroke:#95764f;"/>
		<path vector-effect="non-scaling-stroke" d="M 202.133673 140.6452 Q 201.913062 140.551116 201.663252 140.664666" style="fill:none;stroke-width:0.50;stroke:#95764f;"/>
		<path vector-effect="non-scaling-stroke" d="M 193.854251 142.987576 L 193.5428 143.003797" style="fill:none;stroke-width:0.50;stroke:#95764f;"/>
		<path vector-effect="non-scaling-stroke" d="M 244.954571 109.263239 C 244.955025 109.165877 244.877163 109.088015 244.779672 109.087723 L 237.674682 109.075329 C 237.577515 109.075037 237.499653 109.1529 237.499198 109.250229 L 237.48713 116.15404 C 237.486675 116.251402 237.564538 116.329264 237.662029 116.329556 L 244.767019 116.34195 C 244.864185 116.342242 244.942048 116.264379 244.942502 116.16705 L 244.954571 109.263239" style="fill:none;stroke-width:0.50;stroke:#a29c8e;"/>
		<path vector-effect="non-scaling-stroke" d="M 253.629731 109.282769 C 253.63025 109.172366 253.542655 109.08477 253.432187 109.084511 L 246.288265 109.072053 C 246.178122 109.071793 246.090526 109.159389 246.090007 109.269597 L 246.078068 116.121533 C 246.077549 116.231936 246.165145 116.319532 246.275613 116.319791 L 253.419534 116.332249 C 253.529678 116.332509 253.617273 116.244913 253.617792 116.134705 L 253.629731 109.282769" style="fill:none;stroke-width:0.50;stroke:#a29c8e;"/>
		<path vector-effect="non-scaling-stroke" d="M 244.923004 117.555638 C 244.922583 117.425834 244.815521 117.318772 244.685782 117.319226 L 237.749495 117.331328 C 237.619691 117.331749 237.51263 117.438811 237.513084 117.56855 L 237.525185 124.504837 C 237.525607 124.634641 237.632668 124.741702 237.762407 124.741248 L 244.698694 124.729147 C 244.828498 124.728725 244.93556 124.621664 244.935106 124.491924 L 244.923004 117.555638" style="fill:none;stroke-width:0.50;stroke:#a29c8e;"/>
		<path vector-effect="non-scaling-stroke" d="M 253.658995 117.584934 C 253.659449 117.474498 253.571853 117.386902 253.46145 117.386708 L 246.272109 117.374152 C 246.1619 117.373925 246.074305 117.461521 246.07385 117.571697 L 246.061782 124.495007 C 246.061328 124.605442 246.148923 124.693038 246.259326 124.693233 L 253.448668 124.705788 C 253.558876 124.706015 253.646472 124.618419 253.646926 124.508243 L 253.658995 117.584934" style="fill:none;stroke-width:0.50;stroke:#a29c8e;"/>
		<path d="M 246.288428 6.646389 Q 246.213809 7.386087 246.27545 8.171204 Q 248.28042 34.093062 251.894557 59.372551 Q 252.001618 60.12847 252.345513 59.44717 Q 257.974352 48.260866 265.614649 34.352605 Q 266.951295 31.922634 268.654546 28.619949 Q 272.443874 21.278126 276.252668 13.910349 Q 276.742555 14.280198 277.543894 14.341839 Q 276.99561 15.860166 276.60954 17.18708 Q 274.919266 22.99111 273.271168 28.911935 C 271.564672 35.046883 269.764093 40.588126 267.742902 47.073457 Q 264.7906 56.553265 263.333915 65.812462 C 263.314449 65.942234 263.453953 66.033074 263.564259 65.961699 Q 266.075338 64.294136 269.494817 62.548709 C 274.010865 60.245265 280.246386 57.471399 285.949844 54.811083 Q 288.970275 53.406306 292.934795 51.680345 Q 302.628726 47.462772 312.53678 45.224213 L 313.503578 46.664677 C 313.065599 46.966396 312.634109 47.345977 312.202619 47.569833 Q 300.824902 53.477681 290.433449 60.615114 Q 283.974072 65.056543 278.186263 70.591298 Q 275.026327 73.614974 271.9183 76.804109 C 271.856658 76.86575 271.89559 76.972812 271.983185 76.982544 Q 297.882333 79.782365 323.823657 84.01616 Q 323.603045 84.87914 323.849611 85.638304 Q 302.333496 86.322848 281.060702 87.789266 Q 278.183019 87.987168 276.064499 88.204535 Q 275.665452 88.246711 275.980148 88.499765 Q 282.228646 93.473258 288.009966 99.085876 Q 290.070089 101.087601 296.763054 107.842208 Q 300.344748 111.456344 301.811166 112.526959 Q 309.016728 117.772972 311.034675 119.560575 Q 312.617888 120.962107 314.324383 122.499899 Q 313.931824 122.967077 313.675525 123.713263 Q 312.682773 123.265551 312.394032 123.077383 Q 308.273787 120.4268 304.559077 117.821637 Q 304.29629 117.636712 304.43255 117.928698 C 305.775685 120.816114 307.18695 123.972806 307.754701 127.174918 C 307.800121 127.431217 307.553555 127.638851 307.310233 127.551255 Q 305.499921 126.899153 303.598768 127.359842 Q 303.222431 127.450682 302.81365 127.414995 C 302.038266 127.350109 301.671661 127.337132 300.870322 127.59992 Q 299.686157 127.98599 299.449324 127.943814 Q 298.041303 127.684271 296.675458 127.924348 C 296.51 127.953547 296.389961 128.093051 296.386717 128.261754 Q 296.308854 135.15911 296.779276 141.835854 Q 296.811718 142.28681 296.55542 142.65017 Q 296.023357 142.299787 295.423163 142.144061 Q 293.414949 141.037759 292.616855 140.91772 Q 292.191853 140.852834 292.00044 140.710086 L 289.839744 139.905502 Q 289.693751 139.85035 289.544514 139.899014 Q 289.379056 139.950922 289.242795 139.821151 Q 289.145467 139.727067 289.275238 139.769242 L 289.463407 139.830884 C 289.521804 139.85035 289.567224 139.78222 289.528293 139.736799 Q 289.392033 139.571341 289.226574 139.581074 Q 288.626381 139.616761 288.022943 139.603784 Q 287.974279 139.600539 287.96779 139.551875 Q 287.958058 139.503211 287.961302 139.451302 Q 287.964546 139.360462 288.048898 139.389661 Q 288.301952 139.477256 288.493365 139.438325 Q 288.804817 139.373439 288.499854 139.331264 Q 288.214356 139.292332 287.958058 139.366951 C 287.925615 139.376684 287.889928 139.353974 287.889928 139.318286 L 287.889928 139.201492 C 287.889928 139.139851 287.932103 139.087942 287.993745 139.074965 Q 288.233822 139.016568 288.473899 139.042522 Q 288.470655 139.039278 288.473899 139.039278 Q 288.246799 139.0263 287.636873 139.084698 C 287.614163 139.087942 287.594697 139.104163 287.594697 139.126873 L 287.594697 139.474012 Q 287.594697 139.678402 287.419506 139.574585 Q 287.192406 139.438325 287.189161 139.159316 Q 287.185917 135.535447 287.176184 116.692625 Q 287.176184 116.601785 287.189161 116.533655 C 287.231337 116.329264 287.484392 116.244913 287.640117 116.387662 L 298.300846 126.013463 C 298.368976 126.07186 298.469549 126.065372 298.524702 125.993997 Q 298.690161 125.77663 299.15085 125.225101 C 300.046273 124.141509 302.414603 124.563266 303.520905 124.803344 C 303.621478 124.826054 303.68312 124.699526 303.605257 124.631396 Q 302.288076 123.489407 301.947426 123.1812 C 283.828079 106.797547 260.926653 85.161393 247.0995 72.138823 Q 246.317626 71.399125 245.636326 70.867062 Q 245.328119 70.623741 245.042621 70.889772 Q 214.108339 99.861261 189.980572 122.295509 Q 188.80614 123.388834 187.865297 123.920897 Q 186.820636 124.511358 188.017778 124.355632 Q 189.072172 124.222616 190.736491 124.592465 C 191.472944 124.754679 192.193176 125.455445 192.699285 125.922623 C 192.764171 125.984264 192.867988 125.984264 192.932874 125.922623 L 203.259441 116.374684 C 203.376236 116.264379 203.570893 116.34873 203.570893 116.510945 Q 203.596847 126.256785 203.557916 139.808174 Q 203.554671 140.765239 203.51574 141.028026 Q 203.486541 141.206462 203.272418 141.118866 Q 203.295128 141.057225 203.259441 140.956652 Q 203.366503 140.596536 203.110204 140.460276 Q 202.591118 140.174778 202.042833 140.083938 Q 201.968215 140.074205 202.042833 140.061228 Q 202.373751 140.012564 202.980432 140.200733 Q 203.093983 140.23642 203.029097 140.135847 L 202.646271 139.568097 Q 202.558675 139.435081 202.425659 139.519432 L 200.281185 140.856079 Q 197.111516 141.268103 194.068374 142.822117 Q 193.727724 142.24139 193.786121 141.508181 Q 194.418757 133.342309 194.441468 126.493618 Q 194.441468 126.285983 194.263032 126.3898 C 193.831541 126.63961 193.753679 127.762134 193.750434 128.248777 C 193.74719 128.4629 193.503868 128.589427 193.328677 128.466144 Q 190.804621 126.720718 188.027511 126.324915 C 185.373684 125.948577 183.741807 127.194384 181.684929 128.647824 Q 181.24695 128.956032 181.357256 128.433701 Q 181.620043 127.194384 182.194282 125.86747 Q 184.345244 120.871267 187.067202 117.156558 C 187.07369 117.146825 187.07369 117.130603 187.063958 117.124115 C 187.054225 117.114382 187.038003 117.114382 187.02827 117.120871 Q 182.31432 120.54035 177.39598 123.330437 Q 177.249988 123.411544 177.084529 123.382346 L 176.841207 123.333681 Q 176.815253 123.100093 176.477847 122.675091 Q 179.238736 119.680614 182.521955 117.192245 Q 185.448302 114.976397 186.973117 113.902537 C 189.876755 111.855392 192.842034 109.230763 194.639369 107.326366 C 200.644545 100.970807 207.817665 93.80742 214.880479 88.45759 C 214.958342 88.399193 214.932388 88.272665 214.835059 88.2532 Q 214.121316 88.107207 213.48868 88.048809 Q 195.220097 86.416933 170.751679 85.693457 Q 168.295754 85.622082 166.51464 85.810251 L 166.56006 83.909098 Q 192.955584 79.723967 219.068855 77.209645 Q 219.461413 77.170713 219.188893 76.881972 C 215.74346 73.228904 212.495928 69.80618 208.923967 66.724107 Q 202.548942 61.221795 195.145478 56.62464 Q 186.343726 51.161259 177.084529 46.603035 Q 177.431668 45.623261 178.207052 44.857609 Q 186.39239 46.60628 192.712262 49.149801 Q 205.932734 54.470433 221.755125 62.733633 C 223.630323 63.716652 225.891591 65.050055 227.205528 65.958455 C 227.280147 66.010364 227.383964 65.955211 227.383964 65.861127 Q 227.383964 65.419903 227.263925 64.582877 Q 226.186822 57.004221 223.776316 48.789685 Q 223.228031 46.917731 222.309898 44.429363 C 221.167909 41.337557 219.704735 37.47361 218.624387 34.190391 C 216.496135 27.718037 214.792884 21.638242 212.726272 14.140694 Q 213.297267 14.059586 213.777422 13.712448 C 215.26655 16.91456 217.057396 20.155603 219.688514 25.158294 Q 221.375543 28.36365 222.816007 30.84553 Q 227.205528 38.417698 231.562606 46.220209 C 234.018532 50.616219 236.185716 54.901923 238.472939 59.434193 Q 238.891452 60.267975 239.047178 59.349841 C 240.192411 52.617945 241.003483 45.061999 241.376576 37.785062 C 242.025434 25.187493 242.63536 15.688219 243.670288 6.613946 Q 244.964758 6.347915 246.288428 6.646389 Z" style="fill:#fcf8e9;"/>
		<path d="M 243.670288 6.613946 C 242.63536 15.688219 242.025434 25.187493 241.376576 37.785062 C 241.003483 45.061999 240.192411 52.617945 239.047178 59.349841 Q 238.891452 60.267975 238.472939 59.434193 C 236.185716 54.901923 234.018532 50.616219 231.562606 46.220209 Q 227.205528 38.417698 222.816007 30.84553 Q 221.375543 28.36365 219.688514 25.158294 C 217.057396 20.155603 215.26655 16.91456 213.777422 13.712448 Q 224.941015 8.505366 237.178468 7.113567 Q 239.284011 6.873489 243.670288 6.613946 Z" style="fill:#e1ab6b;"/>
		<path d="M 276.252668 13.910349 Q 272.443874 21.278126 268.654546 28.619949 Q 266.951295 31.922634 265.614649 34.352605 Q 257.974352 48.260866 252.345513 59.44717 Q 252.001618 60.12847 251.894557 59.372551 Q 248.28042 34.093062 246.27545 8.171204 Q 246.213809 7.386087 246.288428 6.646389 C 255.109646 6.844291 263.405289 8.774642 271.687955 11.947555 Q 274.33205 12.959773 276.252668 13.910349 Z" style="fill:#e1ab6b;"/>
		<path d="M 212.726272 14.140694 C 214.792884 21.638242 216.496135 27.718037 218.624387 34.190391 C 219.704735 37.47361 221.167909 41.337557 222.309898 44.429363 Q 223.228031 46.917731 223.776316 48.789685 Q 226.186822 57.004221 227.263925 64.582877 Q 227.383964 65.419903 227.383964 65.861127 C 227.383964 65.955211 227.280147 66.010364 227.205528 65.958455 C 225.891591 65.050055 223.630323 63.716652 221.755125 62.733633 Q 205.932734 54.470433 192.712262 49.149801 Q 186.39239 46.60628 178.207052 44.857609 Q 182.405161 38.398232 186.155557 34.122261 Q 196.362086 22.488246 210.198972 15.253484 Q 211.55184 14.54623 212.726272 14.140694 Z" style="fill:#e1ab6b;"/>
		<path d="M 312.53678 45.224213 Q 302.628726 47.462772 292.934795 51.680345 Q 288.970275 53.406306 285.949844 54.811083 C 280.246386 57.471399 274.010865 60.245265 269.494817 62.548709 Q 266.075338 64.294136 263.564259 65.961699 C 263.453953 66.033074 263.314449 65.942234 263.333915 65.812462 Q 264.7906 56.553265 267.742902 47.073457 C 269.764093 40.588126 271.564672 35.046883 273.271168 28.911935 Q 274.919266 22.99111 276.60954 17.18708 Q 276.99561 15.860166 277.543894 14.341839 Q 290.397762 20.28213 300.442076 30.128543 Q 302.408115 32.05565 304.675872 34.686767 C 307.673593 38.167888 309.89593 41.133166 312.53678 45.224213 Z" style="fill:#e1ab6b;"/>
		<path d="M 166.56006 83.909098 Q 167.131054 63.93402 177.084529 46.603035 Q 186.343726 51.161259 195.145478 56.62464 Q 202.548942 61.221795 208.923967 66.724107 C 212.495928 69.80618 215.74346 73.228904 219.188893 76.881972 Q 219.461413 77.170713 219.068855 77.209645 Q 192.955584 79.723967 166.56006 83.909098 Z" style="fill:#e1ab6b;"/>
		<path d="M 323.823657 84.01616 Q 297.882333 79.782365 271.983185 76.982544 C 271.89559 76.972812 271.856658 76.86575 271.9183 76.804109 Q 275.026327 73.614974 278.186263 70.591298 Q 283.974072 65.056543 290.433449 60.615114 Q 300.824902 53.477681 312.202619 47.569833 C 312.634109 47.345977 313.065599 46.966396 313.503578 46.664677 Q 315.190608 49.79217 316.695957 53.065656 Q 323.457052 67.759035 323.823657 84.01616 Z" style="fill:#e1ab6b;"/>
		<path d="M 292.00044 140.710086 Q 291.770095 140.586803 291.802538 140.749017 C 291.809027 140.784704 291.84147 140.807414 291.877157 140.800926 Q 292.036127 140.768483 292.00044 140.710086 Q 292.191853 140.852834 292.616855 140.91772 Q 293.414949 141.037759 295.423163 142.144061 L 293.109986 141.534135 Q 292.960749 141.491959 292.814756 141.540623 Q 292.574679 141.615242 292.3638 141.475738 Q 290.157685 139.999587 287.552522 140.278596 C 287.409773 140.294817 287.299467 140.414856 287.299467 140.560849 L 287.299467 154.060329 C 287.299467 154.297162 287.108054 154.488575 286.871221 154.488575 L 203.642267 154.488575 Q 203.434633 154.488575 203.395701 154.284185 Q 203.295128 153.719679 203.301617 153.2817 Q 203.37948 147.36412 203.405434 143.266584 C 203.411923 142.617727 203.249708 141.845586 203.272418 141.118866 Q 203.486541 141.206462 203.51574 141.028026 Q 203.554671 140.765239 203.557916 139.808174 Q 203.596847 126.256785 203.570893 116.510945 C 203.570893 116.34873 203.376236 116.264379 203.259441 116.374684 L 192.932874 125.922623 C 192.867988 125.984264 192.764171 125.984264 192.699285 125.922623 C 192.193176 125.455445 191.472944 124.754679 190.736491 124.592465 Q 189.072172 124.222616 188.017778 124.355632 Q 186.820636 124.511358 187.865297 123.920897 Q 188.80614 123.388834 189.980572 122.295509 Q 214.108339 99.861261 245.042621 70.889772 Q 245.328119 70.623741 245.636326 70.867062 Q 246.317626 71.399125 247.0995 72.138823 C 260.926653 85.161393 283.828079 106.797547 301.947426 123.1812 Q 302.288076 123.489407 303.605257 124.631396 C 303.68312 124.699526 303.621478 124.826054 303.520905 124.803344 C 302.414603 124.563266 300.046273 124.141509 299.15085 125.225101 Q 298.690161 125.77663 298.524702 125.993997 C 298.469549 126.065372 298.368976 126.07186 298.300846 126.013463 L 287.640117 116.387662 C 287.484392 116.244913 287.231337 116.329264 287.189161 116.533655 Q 287.176184 116.601785 287.176184 116.692625 Q 287.185917 135.535447 287.189161 139.159316 Q 287.192406 139.438325 287.419506 139.574585 Q 287.594697 139.678402 287.594697 139.474012 L 287.594697 139.126873 C 287.594697 139.104163 287.614163 139.087942 287.636873 139.084698 Q 288.246799 139.0263 288.473899 139.039278 Q 288.470655 139.039278 288.473899 139.042522 Q 288.233822 139.016568 287.993745 139.074965 C 287.932103 139.087942 287.889928 139.139851 287.889928 139.201492 L 287.889928 139.318286 C 287.889928 139.353974 287.925615 139.376684 287.958058 139.366951 Q 288.214356 139.292332 288.499854 139.331264 Q 288.804817 139.373439 288.493365 139.438325 Q 288.301952 139.477256 288.048898 139.389661 Q 287.964546 139.360462 287.961302 139.451302 Q 287.958058 139.503211 287.96779 139.551875 Q 287.974279 139.600539 288.022943 139.603784 Q 288.626381 139.616761 289.226574 139.581074 Q 289.392033 139.571341 289.528293 139.736799 C 289.567224 139.78222 289.521804 139.85035 289.463407 139.830884 L 289.275238 139.769242 Q 289.145467 139.727067 289.242795 139.821151 Q 289.379056 139.950922 289.544514 139.899014 Q 289.693751 139.85035 289.839744 139.905502 L 292.00044 140.710086 Z M 244.954571 109.263239 C 244.955025 109.165877 244.877163 109.088015 244.779672 109.087723 L 237.674682 109.075329 C 237.577515 109.075037 237.499653 109.1529 237.499198 109.250229 L 237.48713 116.15404 C 237.486675 116.251402 237.564538 116.329264 237.662029 116.329556 L 244.767019 116.34195 C 244.864185 116.342242 244.942048 116.264379 244.942502 116.16705 L 244.954571 109.263239 Z M 253.629731 109.282769 C 253.63025 109.172366 253.542655 109.08477 253.432187 109.084511 L 246.288265 109.072053 C 246.178122 109.071793 246.090526 109.159389 246.090007 109.269597 L 246.078068 116.121533 C 246.077549 116.231936 246.165145 116.319532 246.275613 116.319791 L 253.419534 116.332249 C 253.529678 116.332509 253.617273 116.244913 253.617792 116.134705 L 253.629731 109.282769 Z M 244.923004 117.555638 C 244.922583 117.425834 244.815521 117.318772 244.685782 117.319226 L 237.749495 117.331328 C 237.619691 117.331749 237.51263 117.438811 237.513084 117.56855 L 237.525185 124.504837 C 237.525607 124.634641 237.632668 124.741702 237.762407 124.741248 L 244.698694 124.729147 C 244.828498 124.728725 244.93556 124.621664 244.935106 124.491924 L 244.923004 117.555638 Z M 253.658995 117.584934 C 253.659449 117.474498 253.571853 117.386902 253.46145 117.386708 L 246.272109 117.374152 C 246.1619 117.373925 246.074305 117.461521 246.07385 117.571697 L 246.061782 124.495007 C 246.061328 124.605442 246.148923 124.693038 246.259326 124.693233 L 253.448668 124.705788 C 253.558876 124.706015 253.646472 124.618419 253.646926 124.508243 L 253.658995 117.584934 Z" style="fill:#484032;"/>
		<path d="M 323.849611 85.638304 Q 323.813924 105.389527 314.324383 122.499899 Q 312.617888 120.962107 311.034675 119.560575 Q 309.016728 117.772972 301.811166 112.526959 Q 300.344748 111.456344 296.763054 107.842208 Q 290.070089 101.087601 288.009966 99.085876 Q 282.228646 93.473258 275.980148 88.499765 Q 275.665452 88.246711 276.064499 88.204535 Q 278.183019 87.987168 281.060702 87.789266 Q 302.333496 86.322848 323.849611 85.638304 Z" style="fill:#e1ab6b;"/>
		<path d="M 176.477847 122.675091 Q 176.069067 122.412304 175.793302 121.945126 Q 173.746157 118.486716 171.848249 113.714369 Q 167.494415 102.748677 166.6509 90.653972 Q 166.452998 87.815221 166.51464 85.810251 Q 168.295754 85.622082 170.751679 85.693457 Q 195.220097 86.416933 213.48868 88.048809 Q 214.121316 88.107207 214.835059 88.2532 C 214.932388 88.272665 214.958342 88.399193 214.880479 88.45759 C 207.817665 93.80742 200.644545 100.970807 194.639369 107.326366 C 192.842034 109.230763 189.876755 111.855392 186.973117 113.902537 Q 185.448302 114.976397 182.521955 117.192245 Q 179.238736 119.680614 176.477847 122.675091 Z" style="fill:#e1ab6b;"/>
		<path d="M 194.068374 142.822117 Q 194.061886 142.867537 193.854251 142.987576 L 193.5428 143.003797 Q 192.958828 142.653414 191.641647 141.46276 Q 184.935705 135.40892 179.686448 128.047631 Q 177.924799 125.578728 176.867162 123.722996 Q 176.786054 123.583492 176.841207 123.333681 L 177.084529 123.382346 Q 177.249988 123.411544 177.39598 123.330437 Q 182.31432 120.54035 187.02827 117.120871 C 187.038003 117.114382 187.054225 117.114382 187.063958 117.124115 C 187.07369 117.130603 187.07369 117.146825 187.067202 117.156558 Q 184.345244 120.871267 182.194282 125.86747 Q 181.620043 127.194384 181.357256 128.433701 Q 181.24695 128.956032 181.684929 128.647824 C 183.741807 127.194384 185.373684 125.948577 188.027511 126.324915 Q 190.804621 126.720718 193.328677 128.466144 C 193.503868 128.589427 193.74719 128.4629 193.750434 128.248777 C 193.753679 127.762134 193.831541 126.63961 194.263032 126.3898 Q 194.441468 126.285983 194.441468 126.493618 Q 194.418757 133.342309 193.786121 141.508181 Q 193.727724 142.24139 194.068374 142.822117 Z" style="fill:#e1ab6b;"/>
		<path d="M 313.675525 123.713263 Q 307.767678 133.118453 299.566119 140.661421 C 298.92375 141.248638 298.164586 142.085664 297.269163 142.643681 Q 296.847406 142.906468 296.55542 142.65017 Q 296.811718 142.28681 296.779276 141.835854 Q 296.308854 135.15911 296.386717 128.261754 C 296.389961 128.093051 296.51 127.953547 296.675458 127.924348 Q 298.041303 127.684271 299.449324 127.943814 Q 299.686157 127.98599 300.870322 127.59992 C 301.671661 127.337132 302.038266 127.350109 302.81365 127.414995 Q 303.222431 127.450682 303.598768 127.359842 Q 305.499921 126.899153 307.310233 127.551255 C 307.553555 127.638851 307.800121 127.431217 307.754701 127.174918 C 307.18695 123.972806 305.775685 120.816114 304.43255 117.928698 Q 304.29629 117.636712 304.559077 117.821637 Q 308.273787 120.4268 312.394032 123.077383 Q 312.682773 123.265551 313.675525 123.713263 Z" style="fill:#e1ab6b;"/>
		<path d="M 203.259441 140.956652 Q 202.85715 140.528406 202.133673 140.6452 Q 201.913062 140.551116 201.663252 140.664666 L 200.281185 140.856079 L 202.425659 139.519432 Q 202.558675 139.435081 202.646271 139.568097 L 203.029097 140.135847 Q 203.093983 140.23642 202.980432 140.200733 Q 202.373751 140.012564 202.042833 140.061228 Q 201.968215 140.074205 202.042833 140.083938 Q 202.591118 140.174778 203.110204 140.460276 Q 203.366503 140.596536 203.259441 140.956652 Z" style="fill:#e1ab6b;"/>
		<path d="M 202.133673 140.6452 Q 201.916306 140.703597 201.663252 140.664666 Q 201.913062 140.551116 202.133673 140.6452 Z" style="fill:#484032;"/>
		<path d="M 292.00044 140.710086 Q 292.036127 140.768483 291.877157 140.800926 C 291.84147 140.807414 291.809027 140.784704 291.802538 140.749017 Q 291.770095 140.586803 292.00044 140.710086 Z" style="fill:#e1ab6b;"/>
		<path d="M 193.854251 142.987576 Q 193.743946 143.05895 193.5428 143.003797 L 193.854251 142.987576 Z" style="fill:#484032;"/>
		<path d="M 244.942502 116.16705 C 244.942048 116.264379 244.864185 116.342242 244.767019 116.34195 L 237.662029 116.329556 C 237.564538 116.329264 237.486675 116.251402 237.48713 116.15404 L 237.499198 109.250229 C 237.499653 109.1529 237.577515 109.075037 237.674682 109.075329 L 244.779672 109.087723 C 244.877163 109.088015 244.955025 109.165877 244.954571 109.263239 L 244.942502 116.16705 Z" style="fill:#fcf8e9;"/>
		<path d="M 253.617792 116.134705 C 253.617273 116.244913 253.529678 116.332509 253.419534 116.332249 L 246.275613 116.319791 C 246.165145 116.319532 246.077549 116.231936 246.078068 116.121533 L 246.090007 109.269597 C 246.090526 109.159389 246.178122 109.071793 246.288265 109.072053 L 253.432187 109.084511 C 253.542655 109.08477 253.63025 109.172366 253.629731 109.282769 L 253.617792 116.134705 Z" style="fill:#fcf8e9;"/>
		<path d="M 244.935106 124.491924 C 244.93556 124.621664 244.828498 124.728725 244.698694 124.729147 L 237.762407 124.741248 C 237.632668 124.741702 237.525607 124.634641 237.525185 124.504837 L 237.513084 117.56855 C 237.51263 117.438811 237.619691 117.331749 237.749495 117.331328 L 244.685782 117.319226 C 244.815521 117.318772 244.922583 117.425834 244.923004 117.555638 L 244.935106 124.491924 Z" style="fill:#fcf8e9;"/>
		<path d="M 253.646926 124.508243 C 253.646472 124.618419 253.558876 124.706015 253.448668 124.705788 L 246.259326 124.693233 C 246.148923 124.693038 246.061328 124.605442 246.061782 124.495007 L 246.07385 117.571697 C 246.074305 117.461521 246.1619 117.373925 246.272109 117.374152 L 253.46145 117.386708 C 253.571853 117.386902 253.659449 117.474498 253.658995 117.584934 L 253.646926 124.508243 Z" style="fill:#fcf8e9;"/>
	</g>
	<g id="surface4">
	</g>
</svg>
