<?xml version="1.0" encoding="utf-8"?>
<svg xmlns="http://www.w3.org/2000/svg" width="490pt" height="280pt" viewBox="0 0 490 280" version="1.1" xmlns:xlink="http://www.w3.org/1999/xlink">
	<g id="surface2">
		<path vector-effect="non-scaling-stroke" d="M 245.234943 23.159009 Q 245.106269 23.147311 245.185228 23.308154 Q 245.243716 23.428055 245.319751 23.381264" style="fill:none;stroke-width:0.50;stroke:#623214;"/>
		<path vector-effect="non-scaling-stroke" d="M 247.615413 28.130506 Q 247.521831 28.361534 247.732389 28.557469" style="fill:none;stroke-width:0.50;stroke:#623214;"/>
		<path vector-effect="non-scaling-stroke" d="M 247.790877 28.709539 Q 247.817197 29.159898 248.048225 29.396775" style="fill:none;stroke-width:0.50;stroke:#623214;"/>
		<path vector-effect="non-scaling-stroke" d="M 245.948499 40.357463 Q 245.582948 40.813671 245.416256 41.366384" style="fill:none;stroke-width:0.50;stroke:#81694b;"/>
		<path vector-effect="non-scaling-stroke" d="M 245.381164 41.454116 Q 245.27296 41.527227 245.249565 41.673447" style="fill:none;stroke-width:0.50;stroke:#623214;"/>
		<path vector-effect="non-scaling-stroke" d="M 244.48337 43.507052 L 244.354696 43.992504" style="fill:none;stroke-width:0.50;stroke:#81694b;"/>
		<path vector-effect="non-scaling-stroke" d="M 244.354696 43.992504 Q 244.275737 44.144573 244.304981 44.358055" style="fill:none;stroke-width:0.50;stroke:#623214;"/>
		<path vector-effect="non-scaling-stroke" d="M 244.214324 44.747002 Q 244.079801 45.059914 244.126592 45.384523" style="fill:none;stroke-width:0.50;stroke:#623214;"/>
		<path vector-effect="non-scaling-stroke" d="M 244.106121 47.139169 Q 244.135365 48.072056 244.474596 48.96985" style="fill:none;stroke-width:0.50;stroke:#623214;"/>
		<path vector-effect="non-scaling-stroke" d="M 244.603271 49.420209 Q 244.512614 49.651237 244.705625 49.598598" style="fill:none;stroke-width:0.50;stroke:#623214;"/>
		<path vector-effect="non-scaling-stroke" d="M 243.775663 51.771434 Q 243.851697 51.537481 243.559256 51.476069" style="fill:none;stroke-width:0.50;stroke:#623214;"/>
		<path vector-effect="non-scaling-stroke" d="M 242.325155 48.925983 Q 242.480149 48.765141 242.234499 48.516566" style="fill:none;stroke-width:0.50;stroke:#623214;"/>
		<path vector-effect="non-scaling-stroke" d="M 241.909889 44.012975 Q 242.1029 43.784871 241.982999 43.489506" style="fill:none;stroke-width:0.50;stroke:#623214;"/>
		<path vector-effect="non-scaling-stroke" d="M 242.167237 42.89585 L 242.503544 41.641279" style="fill:none;stroke-width:0.50;stroke:#623214;"/>
		<path vector-effect="non-scaling-stroke" d="M 245.813976 31.008125 Q 245.811052 30.794643 245.726244 30.601632" style="fill:none;stroke-width:0.50;stroke:#623214;"/>
		<path vector-effect="non-scaling-stroke" d="M 244.995141 28.434644 Q 244.255266 26.510383 243.105973 24.773283" style="fill:none;stroke-width:0.50;stroke:#623214;"/>
		<path vector-effect="non-scaling-stroke" d="M 243.105973 24.773283 Q 243.114746 24.521784 242.907113 24.343395" style="fill:none;stroke-width:0.50;stroke:#623214;"/>
		<path vector-effect="non-scaling-stroke" d="M 242.907113 24.343395 L 241.947906 22.214425" style="fill:none;stroke-width:0.50;stroke:#81694b;"/>
		<path vector-effect="non-scaling-stroke" d="M 241.08813 19.871973 Q 241.158316 19.690659 241.067659 19.670188" style="fill:none;stroke-width:0.50;stroke:#623214;"/>
		<path vector-effect="non-scaling-stroke" d="M 244.404411 43.992504 Q 244.381015 43.992504 244.354696 43.992504" style="fill:none;stroke-width:0.50;stroke:#d79155;"/>
		<path vector-effect="non-scaling-stroke" d="M 263.875131 7.142017 Q 263.614858 7.089378 263.266854 7.133244" style="fill:none;stroke-width:0.50;stroke:#623214;"/>
		<path vector-effect="non-scaling-stroke" d="M 263.144028 7.203429 Q 262.547449 7.127395 262.135107 7.267767" style="fill:none;stroke-width:0.50;stroke:#623214;"/>
		<path vector-effect="non-scaling-stroke" d="M 260.006137 7.776614 Q 259.61719 7.642091 259.438801 7.884817" style="fill:none;stroke-width:0.50;stroke:#623214;"/>
		<path vector-effect="non-scaling-stroke" d="M 254.756821 36.851096 Q 254.525793 37.161083 254.473153 37.555878" style="fill:none;stroke-width:0.50;stroke:#623214;"/>
		<path vector-effect="non-scaling-stroke" d="M 254.180712 38.105667 L 253.107454 40.038702" style="fill:none;stroke-width:0.50;stroke:#623214;"/>
		<path vector-effect="non-scaling-stroke" d="M 252.765298 40.576794 L 252.148248 41.524302" style="fill:none;stroke-width:0.50;stroke:#623214;"/>
		<path vector-effect="non-scaling-stroke" d="M 252.148248 41.524302 L 250.937542 43.960336" style="fill:none;stroke-width:0.50;stroke:#837f77;"/>
		<path vector-effect="non-scaling-stroke" d="M 250.937542 43.960336 Q 250.735758 44.527671 250.747455 45.159344" style="fill:none;stroke-width:0.50;stroke:#81694b;"/>
		<path vector-effect="non-scaling-stroke" d="M 250.229835 45.273396 Q 250.487183 45.097931 250.089463 44.992652" style="fill:none;stroke-width:0.50;stroke:#623214;"/>
		<path vector-effect="non-scaling-stroke" d="M 249.913999 44.30834 L 249.873057 42.272951" style="fill:none;stroke-width:0.50;stroke:#623214;"/>
		<path vector-effect="non-scaling-stroke" d="M 249.346663 21.945379 Q 249.460715 21.591525 249.16535 21.562281" style="fill:none;stroke-width:0.50;stroke:#623214;"/>
		<path vector-effect="non-scaling-stroke" d="M 248.042376 15.932793 L 248.562921 13.359312" style="fill:none;stroke-width:0.50;stroke:#623214;"/>
		<path vector-effect="non-scaling-stroke" d="M 249.539674 11.405806 Q 249.867208 11.224493 249.893528 10.926203" style="fill:none;stroke-width:0.50;stroke:#623214;"/>
		<path vector-effect="non-scaling-stroke" d="M 252.107306 8.770913 Q 252.964158 8.528187 253.601679 7.899439" style="fill:none;stroke-width:0.50;stroke:#623214;"/>
		<path vector-effect="non-scaling-stroke" d="M 252.168719 41.544773 Q 252.159945 41.533076 252.148248 41.524302" style="fill:none;stroke-width:0.50;stroke:#d8a781;"/>
		<path vector-effect="non-scaling-stroke" d="M 263.679195 23.018637 Q 262.98611 23.498241 262.500658 24.173779" style="fill:none;stroke-width:0.50;stroke:#623214;"/>
		<path vector-effect="non-scaling-stroke" d="M 262.026904 24.828847 Q 261.681823 25.185625 261.515132 25.641833" style="fill:none;stroke-width:0.50;stroke:#623214;"/>
		<path vector-effect="non-scaling-stroke" d="M 261.181749 26.545476 Q 260.988738 26.715091 261.053075 27.104038" style="fill:none;stroke-width:0.50;stroke:#623214;"/>
		<path vector-effect="non-scaling-stroke" d="M 262.702442 32.148645 Q 263.094313 32.830032 263.761079 33.309635" style="fill:none;stroke-width:0.50;stroke:#623214;"/>
		<path vector-effect="non-scaling-stroke" d="M 264.983482 34.695806 L 265.928066 35.956226" style="fill:none;stroke-width:0.50;stroke:#623214;"/>
		<path vector-effect="non-scaling-stroke" d="M 265.928066 35.956226 Q 265.919293 36.181406 266.088909 36.242818" style="fill:none;stroke-width:0.50;stroke:#623214;"/>
		<path vector-effect="non-scaling-stroke" d="M 266.30824 36.68148 L 266.746901 37.985767" style="fill:none;stroke-width:0.50;stroke:#623214;"/>
		<path vector-effect="non-scaling-stroke" d="M 266.738128 40.597264 Q 266.457385 41.047624 266.477855 41.585715" style="fill:none;stroke-width:0.50;stroke:#623214;"/>
		<path vector-effect="non-scaling-stroke" d="M 266.45446 41.690994 L 264.761227 44.869827" style="fill:none;stroke-width:0.50;stroke:#623214;"/>
		<path vector-effect="non-scaling-stroke" d="M 264.69689 45.016048 L 261.953794 47.724051" style="fill:none;stroke-width:0.50;stroke:#623214;"/>
		<path vector-effect="non-scaling-stroke" d="M 260.298578 48.858722 Q 259.693225 49.007867 259.263337 49.426057" style="fill:none;stroke-width:0.50;stroke:#623214;"/>
		<path vector-effect="non-scaling-stroke" d="M 254.376648 51.847469 Q 255.353401 49.741894 257.321529 48.051585" style="fill:none;stroke-width:0.50;stroke:#623214;"/>
		<path vector-effect="non-scaling-stroke" d="M 258.008765 47.513493 Q 258.643362 47.273692 259.070326 46.758996" style="fill:none;stroke-width:0.50;stroke:#623214;"/>
		<path vector-effect="non-scaling-stroke" d="M 261.37476 45.024821 Q 262.123409 44.665118 262.544524 43.916469" style="fill:none;stroke-width:0.50;stroke:#623214;"/>
		<path vector-effect="non-scaling-stroke" d="M 264.10031 42.050696 Q 264.357658 41.866458 264.386902 41.50968" style="fill:none;stroke-width:0.50;stroke:#623214;"/>
		<path vector-effect="non-scaling-stroke" d="M 264.486332 41.293274 L 264.52435 41.09149" style="fill:none;stroke-width:0.50;stroke:#623214;"/>
		<path vector-effect="non-scaling-stroke" d="M 264.609158 40.924798 Q 264.922069 40.603113 264.857732 40.114737" style="fill:none;stroke-width:0.50;stroke:#81694b;"/>
		<path vector-effect="non-scaling-stroke" d="M 264.848959 39.339768 Q 264.94254 39.132135 264.834337 39.015159" style="fill:none;stroke-width:0.50;stroke:#623214;"/>
		<path vector-effect="non-scaling-stroke" d="M 264.834337 39.015159 Q 264.828488 38.857241 264.761227 38.731491" style="fill:none;stroke-width:0.50;stroke:#81694b;"/>
		<path vector-effect="non-scaling-stroke" d="M 264.761227 38.731491 Q 264.772925 38.594044 264.673495 38.520933" style="fill:none;stroke-width:0.50;stroke:#623214;"/>
		<path vector-effect="non-scaling-stroke" d="M 264.673495 38.520933 Q 264.664721 38.146609 264.460013 37.871715" style="fill:none;stroke-width:0.50;stroke:#81694b;"/>
		<path vector-effect="non-scaling-stroke" d="M 258.637513 29.382153 Q 258.734018 29.051695 258.573176 29.00198" style="fill:none;stroke-width:0.50;stroke:#623214;"/>
		<path vector-effect="non-scaling-stroke" d="M 258.549781 27.478362 L 259.315976 24.901957" style="fill:none;stroke-width:0.50;stroke:#623214;"/>
		<path vector-effect="non-scaling-stroke" d="M 264.761227 38.731491 Q 264.761227 38.775357 264.761227 38.822148" style="fill:none;stroke-width:0.50;stroke:#d79155;"/>
		<path vector-effect="non-scaling-stroke" d="M 264.834337 39.015159 L 264.805093 39.170152" style="fill:none;stroke-width:0.50;stroke:#d79155;"/>
		<path vector-effect="non-scaling-stroke" d="M 240.895119 29.99043 Q 240.503248 30.680591 241.064735 30.668893" style="fill:none;stroke-width:0.50;stroke:#623214;"/>
		<path vector-effect="non-scaling-stroke" d="M 240.997473 33.874046 L 240.456457 35.529262" style="fill:none;stroke-width:0.50;stroke:#623214;"/>
		<path vector-effect="non-scaling-stroke" d="M 239.842331 36.760439 Q 239.590832 36.906659 239.655169 37.12599" style="fill:none;stroke-width:0.50;stroke:#623214;"/>
		<path vector-effect="non-scaling-stroke" d="M 238.774922 38.535556 Q 238.517574 38.599893 238.394749 39.099967" style="fill:none;stroke-width:0.50;stroke:#623214;"/>
		<path vector-effect="non-scaling-stroke" d="M 238.257301 39.313449 Q 238.128627 39.214019 238.105232 39.541552" style="fill:none;stroke-width:0.50;stroke:#623214;"/>
		<path vector-effect="non-scaling-stroke" d="M 234.008134 43.217536 Q 234.265482 42.799345 234.081244 42.515677" style="fill:none;stroke-width:0.50;stroke:#623214;"/>
		<path vector-effect="non-scaling-stroke" d="M 238.511725 34.491097 Q 239.038119 33.891593 239.219432 33.227752" style="fill:none;stroke-width:0.50;stroke:#623214;"/>
		<path vector-effect="non-scaling-stroke" d="M 239.336409 33.046438 Q 239.699035 32.479103 239.763372 31.92639" style="fill:none;stroke-width:0.50;stroke:#623214;"/>
		<path vector-effect="non-scaling-stroke" d="M 260.304426 131.841773 Q 260.219619 131.713099 260.079247 131.748192 Q 259.985666 131.768663 259.930102 131.847622" style="fill:none;stroke-width:0.50;stroke:#623214;"/>
		<path vector-effect="non-scaling-stroke" d="M 177.072801 142.975001 L 177.05233 141.834481" style="fill:none;stroke-width:0.50;stroke:#623214;"/>
		<path vector-effect="non-scaling-stroke" d="M 229.925658 124.67112 Q 230.571953 126.536894 231.390787 128.124848 C 232.156983 129.613373 233.619188 130.280138 235.242235 130.408812 C 241.611599 130.903037 247.711918 130.69248 254.250898 130.613521 Q 257.137291 130.581352 258.763263 128.159941 Q 260.275182 125.91107 261.012134 124.545371" style="fill:none;stroke-width:0.50;stroke:#623214;"/>
		<path vector-effect="non-scaling-stroke" d="M 261.012134 124.545371 L 262.193595 121.980663" style="fill:none;stroke-width:0.50;stroke:#795018;"/>
		<path vector-effect="non-scaling-stroke" d="M 262.193595 121.980663 Q 265.185266 115.625921 268.086281 109.256556 Q 269.349626 106.48714 270.595424 103.975072 Q 276.450093 92.175079 277.03205 91.002391 Q 277.692967 89.674709 278.175494 88.42891 C 278.880277 86.612852 278.415296 85.174042 277.251381 83.571466 Q 275.762856 81.512681 273.607566 79.731716" style="fill:none;stroke-width:0.50;stroke:#623214;"/>
		<path vector-effect="non-scaling-stroke" d="M 273.607566 79.731716 Q 268.992848 75.804233 263.067994 73.333107 Q 257.286436 70.923394 252.428991 70.089937 Q 246.410556 69.054696 241.68471 69.423171 C 231.735868 70.201064 221.415626 74.377121 214.370723 81.711541 Q 212.706733 83.439867 212.317787 84.29087 Q 211.18604 86.759072 212.563437 89.010868 C 215.634068 94.035004 219.818898 100.64417 222.676046 106.861465 C 224.158722 110.090013 226.109303 114.754447 227.670938 118.804754 Q 228.817307 121.775955 229.925658 124.67112" style="fill:none;stroke-width:0.50;stroke:#795018;"/>
		<path vector-effect="non-scaling-stroke" d="M 273.607566 79.731716 Q 273.911705 81.094491 274.154431 82.378306 C 274.742237 85.475256 274.391308 88.911438 273.513985 91.809528 Q 272.127815 96.386229 269.065958 103.668009 Q 265.071214 113.163568 262.278403 120.790429 Q 262.07077 121.35484 262.193595 121.980663" style="fill:none;stroke-width:0.50;stroke:#ce7822;"/>
		<path vector-effect="non-scaling-stroke" d="M 261.012134 124.545371 Q 259.213622 124.881678 258.277811 124.972334 Q 247.963417 125.957861 237.61978 125.384676 Q 233.820972 125.174119 229.925658 124.67112" style="fill:none;stroke-width:0.50;stroke:#ce7822;"/>
		<path vector-effect="non-scaling-stroke" d="M 302.275555 112.312565 Q 302.111788 111.835886 301.500587 110.753854 C 299.152286 106.607041 296.333155 102.585978 292.981781 99.442237 Q 287.565774 94.359613 280.25475 91.721796 Q 280.076361 91.657459 279.968158 91.812452 Q 279.702036 92.189701 279.465159 92.631287 Q 275.543526 99.954009 271.87924 107.411254 Q 269.785363 111.672119 262.834041 127.607228 Q 262.474338 128.431911 262.459716 128.844253 Q 262.453868 129.022642 262.573768 129.157165 Q 264.091537 130.824078 265.001029 131.353397 C 267.653468 132.900409 270.873243 134.03508 273.753787 134.754485 C 275.157504 135.105414 276.078693 135.184373 277.172422 134.318748 Q 277.608159 133.973668 277.789472 133.233792 Q 278.07314 132.075726 279.079137 130.631067 Q 281.436211 127.244601 282.404191 125.98418 Q 285.887163 121.45427 289.750308 117.977146 C 292.031348 115.924211 294.578509 113.953159 297.222175 112.868203 Q 299.40086 111.979182 302.181974 112.423692 Q 302.322346 112.447088 302.275555 112.312565" style="fill:none;stroke-width:0.50;stroke:#623214;"/>
		<path vector-effect="non-scaling-stroke" d="M 211.247453 130.622294 C 211.975631 132.03186 212.955308 133.885935 212.560513 135.444646 Q 212.496176 135.704918 212.762297 135.687372 C 216.061031 135.465117 218.967895 134.362614 222.11456 133.178228 Q 225.866577 131.762814 227.890269 128.309086 Q 227.95753 128.19211 227.937059 128.060511 Q 227.817159 127.317711 227.334631 126.0105 C 224.676342 118.787208 222.044374 111.832961 218.488291 104.831925 Q 215.221726 98.404072 210.232683 92.040556" style="fill:none;stroke-width:0.50;stroke:#623214;"/>
		<path vector-effect="non-scaling-stroke" d="M 210.232683 92.040556 Q 208.358136 92.531857 207.211767 92.982216 C 199.684337 95.927097 193.601565 101.998171 189.381641 108.782802 Q 188.255743 110.590087 187.533414 112.292094 C 187.489548 112.397373 187.591902 112.502651 187.697181 112.46171 C 192.832445 110.432169 199.900743 116.310233 203.152687 119.755187 Q 206.553775 123.363909 207.820045 125.370054 Q 209.551295 128.113151 211.247453 130.622294" style="fill:none;stroke-width:0.50;stroke:#795018;"/>
		<path vector-effect="non-scaling-stroke" d="M 210.232683 92.040556 Q 211.101232 94.535078 212.320711 96.70499 Q 213.999322 99.693737 214.01102 99.714207 Q 216.163386 103.878567 216.76289 105.162383 Q 220.886307 114.017496 224.667569 125.256002 Q 224.980481 126.185965 224.875202 126.487179 C 224.521349 127.519495 222.056071 128.089755 221.114411 128.393894 Q 216.353472 129.937982 211.247453 130.622294" style="fill:none;stroke-width:0.50;stroke:#ce7822;"/>
		<path vector-effect="non-scaling-stroke" d="M 190.434429 115.3598 Q 186.164791 119.336997 183.766775 123.337589 Q 181.959489 126.352656 181.471113 129.689407 Q 181.386305 130.256743 181.611485 130.926433 Q 181.655351 131.066804 181.798647 131.031711 Q 184.857579 130.324004 187.135695 131.046334 Q 189.989918 131.949976 193.370536 133.985365" style="fill:none;stroke-width:0.50;stroke:#795018;"/>
		<path vector-effect="non-scaling-stroke" d="M 193.370536 133.985365 Q 197.730831 137.368907 201.971225 140.375201 C 202.512241 140.761223 202.804682 140.641322 203.28721 140.293317 Q 206.738013 137.813418 209.150651 134.470817 C 209.656574 133.771883 208.805571 132.192702 208.4137 131.575652 Q 206.147282 128.025418 204.27566 125.545519 Q 200.146394 120.073948 194.186446 116.34825 Q 192.966968 115.587904 191.311752 115.102452 Q 191.036857 115.020568 190.835073 115.079056 Q 190.522161 115.172637 190.434429 115.3598" style="fill:none;stroke-width:0.50;stroke:#623214;"/>
		<path vector-effect="non-scaling-stroke" d="M 193.370536 133.985365 Q 196.458713 134.693072 199.198885 136.248858 Q 199.675564 136.51498 200.207806 136.485736 Q 200.354027 136.476962 200.468079 136.380457 Q 202.424509 134.760334 204.319526 132.795131 Q 204.842996 132.25119 204.530084 131.675082 Q 202.129143 127.235828 199.450384 123.597862 Q 197.526122 120.98344 195.593088 119.19955 Q 193.206769 116.997469 190.434429 115.3598" style="fill:none;stroke-width:0.50;stroke:#ce7822;"/>
		<path vector-effect="non-scaling-stroke" d="M 308.911041 131.280286 C 308.946134 131.28906 308.981227 131.265664 308.984151 131.227647 C 309.124523 129.051886 308.375874 127.191961 307.285069 125.191665 Q 305.082989 121.161829 301.787179 117.728572 C 301.158431 117.076428 300.348369 116.128919 299.333599 115.526491 C 298.637589 115.111225 296.988222 116.032414 296.514468 116.330704 C 290.367359 120.223093 285.088799 126.159645 281.450833 132.341847 Q 281.061887 133.005688 280.980003 133.69 Q 280.912742 134.242713 281.328008 134.836369 Q 284.331377 139.129402 289.171275 141.115076 C 289.805872 141.375349 290.414149 141.351953 290.946392 140.960083 C 294.449835 138.37198 297.985446 135.111263 301.579546 132.745416 C 303.825492 131.265664 306.375578 130.546259 308.911041 131.280286" style="fill:none;stroke-width:0.50;stroke:#623214;"/>
		<path vector-effect="non-scaling-stroke" d="M 200.169789 142.904815 Q 200.254597 142.793687 200.155167 142.691333 Q 199.96508 142.501247 199.736976 142.33748 C 195.976185 139.620703 191.267886 135.763406 186.325633 133.982441 Q 184.886823 133.46482 183.61763 134.587794 C 180.342291 137.474186 178.728017 141.711656 180.751708 145.843847 Q 182.50343 149.417476 186.506946 150.557995 C 192.572172 152.286322 196.99388 147.13936 200.169789 142.904815" style="fill:none;stroke-width:0.50;stroke:#623214;"/>
		<path vector-effect="non-scaling-stroke" d="M 296.315608 140.556514 C 295.06981 141.635621 292.654247 143.410738 291.578064 144.232497 C 291.522501 144.276363 291.513727 144.361171 291.563442 144.41381 C 293.917592 147.037006 296.2308 149.206918 299.585098 150.283101 Q 305.156099 152.07284 308.317386 147.542929 Q 310.849925 143.910812 309.639219 139.506651 C 309.159616 137.769552 306.679716 133.423879 304.445467 134.312899 Q 303.924922 134.517608 303.430697 134.874386 Q 300.187527 137.210989 296.315608 140.556514" style="fill:none;stroke-width:0.50;stroke:#623214;"/>
		<path vector-effect="non-scaling-stroke" d="M 234.888381 72.049291 C 233.744937 72.40022 232.990439 73.777617 234.467266 74.347877 Q 234.949794 74.53504 235.628257 74.517493 C 242.333929 74.356651 249.671273 76.000169 255.356325 79.66153 C 256.724949 80.541777 258.418182 81.968889 259.596719 81.693995 Q 261.678899 81.205618 261.69937 79.372013 C 261.716916 77.658309 259.093721 75.780838 257.853771 75.040962 Q 250.753304 70.821039 242.380719 71.095934 C 239.760448 71.183666 237.099235 71.370828 234.888381 72.049291" style="fill:none;stroke-width:0.50;stroke:#efc585;"/>
		<path vector-effect="non-scaling-stroke" d="M 225.117928 91.014088 C 227.963379 93.599267 230.434505 96.523676 232.203773 99.90137 Q 235.484961 106.171304 236.447092 112.885749 C 236.634254 114.178338 237.37413 115.769217 238.722283 116.026565 C 241.181711 116.497395 242.345626 113.985327 242.433358 112.008426 C 242.62637 107.765108 241.728576 103.293685 240.280993 99.266773 C 238.213435 93.514459 234.484813 87.873272 229.557182 84.241156 C 228.054036 83.132804 226.480703 82.100488 224.594459 82.141429 C 223.070842 82.176522 221.749008 82.966113 221.257707 84.366905 C 220.222466 87.31471 223.278475 89.344251 225.117928 91.014088" style="fill:none;stroke-width:0.50;stroke:#efc585;"/>
		<path vector-effect="non-scaling-stroke" d="M 267.483852 127.060363 C 270.788435 128.595678 273.859066 129.496396 277.371282 130.39419 C 277.570142 130.443905 277.77485 130.3474 277.859658 130.163162 C 281.637996 121.99821 287.478042 114.125699 295.09028 109.127882 Q 296.002696 108.528378 296.192783 108.1716 Q 296.587578 107.4288 295.990999 106.519309 Q 291.510803 99.667417 284.746643 95.959265 Q 284.334301 95.734086 283.92196 96.067469 Q 282.857474 96.927245 281.901192 98.067765 Q 279.573362 100.84303 277.754379 104.001392 Q 275.414852 108.063397 272.803354 114.032118 Q 270.235722 119.895559 267.366876 126.759149 Q 267.279144 126.966782 267.483852 127.060363" style="fill:none;stroke-width:0.50;stroke:#ce7822;"/>
		<path vector-effect="non-scaling-stroke" d="M 200.810235 99.000652 Q 196.236458 102.387118 193.548925 107.174377 Q 193.282804 107.651056 192.996212 108.56932 C 192.844142 109.051848 193.110264 109.26533 193.467042 109.622108 C 194.949717 111.107708 196.850584 111.926543 199.032193 111.751078 Q 202.515165 111.473259 204.910257 109.180522 C 207.308273 106.887785 208.817268 103.697254 208.121259 100.369275 C 207.627034 98.009277 205.495139 97.161198 203.26089 97.760702 Q 202.044335 98.088236 200.810235 99.000652" style="fill:none;stroke-width:0.50;stroke:#eeae59;"/>
		<path vector-effect="non-scaling-stroke" d="M 290.999031 137.415698 C 293.236205 134.30705 295.847703 131.613669 299.052856 129.110374 Q 299.8249 128.507946 303.038826 126.300017 Q 303.942469 125.680042 304.106236 124.574615 C 304.30802 123.214764 302.433473 121.039003 301.538604 120.132436 C 300.523834 119.10012 299.848295 118.427505 298.441654 119.053329 C 292.692264 121.609263 288.399231 126.800091 285.884239 132.529009 C 285.808204 132.698625 285.840372 132.89456 285.960273 133.034932 Q 288.083395 135.503134 290.665648 137.465413 C 290.770927 137.544372 290.920072 137.523901 290.999031 137.415698" style="fill:none;stroke-width:0.50;stroke:#ce7822;"/>
		<path vector-effect="non-scaling-stroke" d="M 193.086868 120.31375 C 187.992547 118.290058 186.275918 124.609708 185.869425 128.113151 C 185.854803 128.221354 185.922065 128.320784 186.027343 128.350028 Q 186.594679 128.507946 187.243898 128.554736 Q 189.767663 128.730201 195.598936 128.955381 Q 196.370981 128.984625 197.014351 128.686335 Q 197.145949 128.624922 197.143025 128.478702 C 197.034822 125.6391 195.964488 121.460118 193.086868 120.31375" style="fill:none;stroke-width:0.50;stroke:#eeae59;"/>
		<path vector-effect="non-scaling-stroke" d="M 191.384862 139.173268 Q 189.38749 137.558994 188.27329 137.137879 Q 186.401668 136.433096 184.880975 137.094013 Q 183.948088 137.500506 183.673193 137.965487 Q 181.476962 141.691185 183.93639 145.335 Q 184.848806 146.686077 186.816934 147.349918 Q 190.311604 148.525531 192.645283 145.966672 Q 194.066546 144.407962 194.932171 142.626996 C 194.981886 142.524642 194.961415 142.398892 194.879532 142.317009 Q 193.279879 140.705659 191.384862 139.173268" style="fill:none;stroke-width:0.50;stroke:#ce7822;"/>
		<path vector-effect="non-scaling-stroke" d="M 302.518281 137.763703 C 300.49459 138.719985 298.672682 140.190963 296.894641 141.942684 Q 295.88572 142.934059 296.716252 143.957603 Q 297.608197 145.054256 299.047007 146.05148 Q 300.556002 147.098419 301.895382 147.121814 C 305.202889 147.174453 307.074512 143.840626 306.741129 140.805089 C 306.507176 138.655648 304.743757 136.710915 302.518281 137.763703" style="fill:none;stroke-width:0.50;stroke:#ce7822;"/>
		<path vector-effect="non-scaling-stroke" d="M 185.445386 143.65054 C 186.659016 145.068878 188.823079 145.370092 190.165383 143.919585 C 191.288356 142.70888 190.411033 141.179413 189.533711 140.152945 C 188.653463 139.126478 187.281915 138.023975 185.910367 138.948089 C 184.269773 140.050591 184.23468 142.235125 185.445386 143.65054" style="fill:none;stroke-width:0.50;stroke:#efc585;"/>
		<path vector-effect="non-scaling-stroke" d="M 300.341409 144.377431 C 301.407005 145.305755 303.129483 145.071803 304.192126 143.855833 C 305.252604 142.638694 305.252604 140.89867 304.186306 139.969994 C 303.12071 139.04167 301.398232 139.275623 300.335589 140.491592 C 299.275111 141.708731 299.275111 143.448755 300.341409 144.377431" style="fill:none;stroke-width:0.50;stroke:#efc585;"/>
		<path d="M 245.234943 23.159009 Q 245.106269 23.147311 245.185228 23.308154 Q 245.243716 23.428055 245.319751 23.381264 L 247.615413 28.130506 Q 247.521831 28.361534 247.732389 28.557469 Q 247.776255 28.618882 247.790877 28.709539 Q 247.817197 29.159898 248.048225 29.396775 Q 248.855362 33.072758 247.875685 36.25744 Q 247.334669 38.012086 245.948499 40.357463 Q 245.582948 40.813671 245.416256 41.366384 Q 245.413332 41.407326 245.381164 41.454116 Q 245.27296 41.527227 245.249565 41.673447 L 244.48337 43.507052 L 244.354696 43.992504 Q 244.275737 44.144573 244.304981 44.358055 L 244.214324 44.747002 Q 244.079801 45.059914 244.126592 45.384523 L 244.106121 47.139169 Q 244.135365 48.072056 244.474596 48.96985 L 244.603271 49.420209 Q 244.512614 49.651237 244.705625 49.598598 Q 245.088723 50.753739 245.641436 51.850393 Q 246.945723 54.435571 249.457791 56.239932 Q 249.843813 56.514827 249.940318 56.742931 Q 250.171347 57.301493 249.621558 57.047069 C 247.545227 56.090787 246.083022 54.444345 244.299132 52.552251 Q 243.921883 52.154532 243.775663 51.771434 Q 243.851697 51.537481 243.559256 51.476069 L 242.325155 48.925983 Q 242.480149 48.765141 242.234499 48.516566 Q 241.544338 46.361276 241.909889 44.012975 Q 242.1029 43.784871 241.982999 43.489506 L 242.167237 42.89585 L 242.503544 41.641279 Q 243.234647 40.035778 243.483222 39.617587 Q 244.723171 37.535407 244.845997 37.064577 C 244.898636 36.865718 245.071176 36.769212 245.161833 36.55573 Q 246.299428 33.862349 245.813976 31.008125 Q 245.811052 30.794643 245.726244 30.601632 L 244.995141 28.434644 Q 244.255266 26.510383 243.105973 24.773283 Q 243.114746 24.521784 242.907113 24.343395 L 241.947906 22.214425 L 241.08813 19.871973 Q 241.158316 19.690659 241.067659 19.670188 Q 240.348254 16.979731 240.734276 14.21324 Q 240.783991 13.871084 240.921439 13.56987 C 241.050113 13.289126 240.971154 13.005458 241.108601 12.683773 C 241.749047 11.180627 242.430434 9.914357 243.547559 9.001941 Q 243.968674 8.656861 244.120743 8.431682 C 244.439504 7.957927 244.90156 7.741521 245.47182 7.329179 C 246.302353 6.726751 247.387309 6.329031 248.32312 5.861125 C 248.419625 5.814335 248.52198 5.907916 248.483962 6.007346 L 248.42255 6.171113 Q 248.402079 6.223752 248.352364 6.255921 Q 245.141362 8.2182 243.664535 11.674852 Q 243.366245 12.373786 243.135217 13.365161 Q 242.860322 14.540774 242.790136 15.108109 Q 242.737497 15.502904 242.880793 16.438715 Q 243.424733 20.000647 245.234943 23.159009 Z" style="fill:#0c0a0a;"/>
		<path d="M 263.875131 7.142017 Q 263.614858 7.089378 263.266854 7.133244 Q 263.366283 7.15079 263.144028 7.203429 Q 262.547449 7.127395 262.135107 7.267767 C 261.421551 7.510493 260.664129 7.413987 260.006137 7.776614 Q 259.61719 7.642091 259.438801 7.884817 Q 257.423883 8.566204 255.543487 9.569277 Q 254.087131 10.34717 252.642473 11.783055 Q 251.013577 13.403178 250.67727 15.760252 Q 250.516427 16.883226 250.987257 18.573535 Q 251.525348 20.506569 252.002027 21.302009 Q 252.835484 22.694028 252.893972 22.866568 Q 253.130849 23.559653 253.519796 24.080198 Q 253.888271 24.568575 254.154393 25.36109 C 254.341555 25.913803 254.727577 26.291052 254.914739 26.799899 Q 256.499769 31.154345 255.186709 35.619919 C 255.078506 35.979621 255.043413 36.4563 254.756821 36.851096 Q 254.525793 37.161083 254.473153 37.555878 L 254.180712 38.105667 L 253.107454 40.038702 Q 252.972931 40.34869 252.765298 40.576794 L 252.148248 41.524302 L 250.937542 43.960336 Q 250.735758 44.527671 250.747455 45.159344 Q 250.700665 45.34943 250.566142 45.384523 Q 250.416997 45.42254 250.229835 45.273396 Q 250.487183 45.097931 250.089463 44.992652 Q 249.925696 44.67974 249.913999 44.30834 L 249.873057 42.272951 Q 250.147951 40.889705 250.665572 39.535704 C 250.794246 39.202321 251.113007 38.918653 251.206588 38.632061 Q 251.525348 37.649459 251.934766 36.766288 Q 252.355881 35.856796 252.50795 35.479547 Q 252.642473 35.146165 252.70681 34.447231 C 252.750676 34.00272 252.914443 33.505571 252.940763 33.058136 Q 253.157169 29.113107 251.756377 26.519156 Q 250.522276 24.229343 249.346663 21.945379 Q 249.460715 21.591525 249.16535 21.562281 C 248.358213 19.614624 247.817197 17.965257 248.042376 15.932793 L 248.562921 13.359312 L 249.539674 11.405806 Q 249.867208 11.224493 249.893528 10.926203 Q 250.835188 9.683329 252.107306 8.770913 Q 252.964158 8.528187 253.601679 7.899439 C 254.201183 7.639167 254.753897 7.279464 255.370947 7.101075 Q 256.20148 6.864198 257.040785 6.641943 Q 257.947352 6.402141 258.40356 6.402141 C 259.044006 6.402141 259.532382 6.203281 260.251787 6.176962 Q 263.38383 6.051212 265.61223 6.38167 C 265.729207 6.399217 265.822788 6.492798 265.843259 6.609774 Q 265.887125 6.872971 265.577137 6.928535 Q 264.729058 7.083529 263.875131 7.142017 Z" style="fill:#0c0a0a;"/>
		<path d="M 263.875131 7.142017 L 263.266854 7.133244 Q 263.614858 7.089378 263.875131 7.142017 Z" style="fill:#b75a1e;"/>
		<path d="M 263.144028 7.203429 L 262.135107 7.267767 Q 262.547449 7.127395 263.144028 7.203429 Z" style="fill:#b75a1e;"/>
		<path d="M 260.006137 7.776614 L 259.438801 7.884817 Q 259.61719 7.642091 260.006137 7.776614 Z" style="fill:#b75a1e;"/>
		<path d="M 253.601679 7.899439 Q 252.964158 8.528187 252.107306 8.770913 Q 252.7536 8.197729 253.601679 7.899439 Z" style="fill:#b75a1e;"/>
		<path d="M 249.893528 10.926203 Q 249.867208 11.224493 249.539674 11.405806 Q 249.668348 11.142609 249.893528 10.926203 Z" style="fill:#b75a1e;"/>
		<path d="M 248.042376 15.932793 Q 247.878609 14.467663 248.562921 13.359312 L 248.042376 15.932793 Z" style="fill:#b75a1e;"/>
		<path d="M 241.08813 19.871973 Q 241.093979 19.760845 241.067659 19.670188 Q 241.158316 19.690659 241.08813 19.871973 Z" style="fill:#b75a1e;"/>
		<path d="M 263.679195 23.018637 Q 262.98611 23.498241 262.500658 24.173779 L 262.026904 24.828847 Q 261.681823 25.185625 261.515132 25.641833 Q 261.47419 26.109739 261.181749 26.545476 Q 260.988738 26.715091 261.053075 27.104038 Q 260.728466 28.624731 261.292877 30.019674 C 261.591167 30.75955 262.19652 31.464333 262.702442 32.148645 Q 263.094313 32.830032 263.761079 33.309635 L 264.983482 34.695806 L 265.928066 35.956226 Q 265.919293 36.181406 266.088909 36.242818 Q 266.264374 36.473847 266.30824 36.68148 L 266.746901 37.985767 Q 266.992552 39.25496 266.738128 40.597264 Q 266.457385 41.047624 266.477855 41.585715 Q 266.466158 41.638354 266.45446 41.690994 L 264.761227 44.869827 Q 264.752454 44.937088 264.69689 45.016048 L 261.953794 47.724051 L 260.298578 48.858722 Q 259.693225 49.007867 259.263337 49.426057 C 258.842222 49.815004 258.251491 50.069428 257.874242 50.341398 Q 256.333078 51.449749 255.654615 52.517159 Q 254.897193 53.704469 254.692484 54.684146 Q 254.388346 56.137578 254.084207 54.684146 Q 253.856103 53.602115 254.376648 51.847469 Q 255.353401 49.741894 257.321529 48.051585 Q 257.526237 47.7299 258.008765 47.513493 Q 258.643362 47.273692 259.070326 46.758996 L 261.37476 45.024821 Q 262.123409 44.665118 262.544524 43.916469 L 264.10031 42.050696 Q 264.357658 41.866458 264.386902 41.50968 L 264.486332 41.293274 L 264.52435 41.09149 Q 264.556518 40.986211 264.609158 40.924798 Q 264.922069 40.603113 264.857732 40.114737 L 264.848959 39.339768 Q 264.94254 39.132135 264.834337 39.015159 Q 264.828488 38.857241 264.761227 38.731491 Q 264.772925 38.594044 264.673495 38.520933 Q 264.664721 38.146609 264.460013 37.871715 C 263.790323 36.450451 262.845739 35.309932 261.196371 33.894517 Q 259.359842 32.31826 258.637513 29.382153 Q 258.734018 29.051695 258.573176 29.00198 L 258.549781 27.478362 L 259.315976 24.901957 Q 260.936099 22.161785 263.506655 21.185032 Q 265.056592 20.597226 268.548338 19.93631 Q 268.668238 19.912914 268.729651 20.018193 L 268.811534 20.158565 C 268.832005 20.196582 268.814459 20.240448 268.776442 20.25507 Q 265.799392 21.32248 265.091685 21.886891 Q 264.375205 22.460075 263.679195 23.018637 Z" style="fill:#0c0a0a;"/>
		<path d="M 249.346663 21.945379 L 249.16535 21.562281 Q 249.460715 21.591525 249.346663 21.945379 Z" style="fill:#b75a1e;"/>
		<path d="M 242.907113 24.343395 Q 242.22865 23.381264 241.947906 22.214425 L 242.907113 24.343395 Z" style="fill:#f6c78c;"/>
		<path d="M 263.679195 23.018637 L 262.500658 24.173779 Q 262.98611 23.498241 263.679195 23.018637 Z" style="fill:#b75a1e;"/>
		<path d="M 245.234943 23.159009 Q 245.316827 23.255515 245.319751 23.381264 Q 245.243716 23.428055 245.185228 23.308154 Q 245.106269 23.147311 245.234943 23.159009 Z" style="fill:#b75a1e;"/>
		<path d="M 243.105973 24.773283 Q 242.901264 24.606592 242.907113 24.343395 Q 243.114746 24.521784 243.105973 24.773283 Z" style="fill:#b75a1e;"/>
		<path d="M 244.995141 28.434644 L 243.105973 24.773283 Q 244.255266 26.510383 244.995141 28.434644 Z" style="fill:#b75a1e;"/>
		<path d="M 262.026904 24.828847 Q 261.866061 25.287979 261.515132 25.641833 Q 261.681823 25.185625 262.026904 24.828847 Z" style="fill:#b75a1e;"/>
		<path d="M 258.549781 27.478362 Q 258.538083 26.109739 259.315976 24.901957 L 258.549781 27.478362 Z" style="fill:#b75a1e;"/>
		<path d="M 261.181749 26.545476 Q 261.184674 26.858387 261.053075 27.104038 Q 260.988738 26.715091 261.181749 26.545476 Z" style="fill:#b75a1e;"/>
		<path d="M 247.615413 28.130506 Q 247.758709 28.30597 247.732389 28.557469 Q 247.521831 28.361534 247.615413 28.130506 Z" style="fill:#b75a1e;"/>
		<path d="M 248.048225 29.396775 Q 247.817197 29.159898 247.790877 28.709539 Q 248.021906 28.990282 248.048225 29.396775 Z" style="fill:#b75a1e;"/>
		<path d="M 258.637513 29.382153 L 258.573176 29.00198 Q 258.734018 29.051695 258.637513 29.382153 Z" style="fill:#b75a1e;"/>
		<path d="M 240.895119 29.99043 Q 240.503248 30.680591 241.064735 30.668893 L 240.997473 33.874046 L 240.456457 35.529262 L 239.842331 36.760439 Q 239.590832 36.906659 239.655169 37.12599 L 238.774922 38.535556 Q 238.517574 38.599893 238.394749 39.099967 Q 238.342109 39.222792 238.257301 39.313449 Q 238.128627 39.214019 238.105232 39.541552 Q 236.558219 42.047772 236.344737 44.890298 C 236.10786 48.063282 237.254229 51.157308 239.064438 53.786352 C 240.257598 55.520527 241.608675 57.175743 243.196629 58.450786 Q 244.094423 59.17604 242.915886 59.056139 Q 242.801834 59.044441 242.392417 58.737378 Q 241.623297 58.158345 241.012095 57.778172 Q 237.327339 55.494208 235.315345 51.686626 Q 234.130959 49.446528 233.943797 47.223977 Q 233.809274 45.6214 234.008134 43.217536 Q 234.265482 42.799345 234.081244 42.515677 Q 234.593016 40.696694 235.195444 39.512308 Q 236.444167 37.05288 238.511725 34.491097 Q 239.038119 33.891593 239.219432 33.227752 Q 239.172642 33.157566 239.336409 33.046438 Q 239.699035 32.479103 239.763372 31.92639 L 240.064587 30.078163 Q 240.087982 29.931942 240.207883 29.850059 Q 240.529568 29.627803 240.895119 29.99043 Z" style="fill:#0c0a0a;"/>
		<path d="M 240.895119 29.99043 L 241.064735 30.668893 Q 240.503248 30.680591 240.895119 29.99043 Z" style="fill:#b75a1e;"/>
		<path d="M 245.813976 31.008125 Q 245.676529 30.815114 245.726244 30.601632 Q 245.811052 30.794643 245.813976 31.008125 Z" style="fill:#b75a1e;"/>
		<path d="M 239.336409 33.046438 Q 239.438763 32.341656 239.763372 31.92639 Q 239.699035 32.479103 239.336409 33.046438 Z" style="fill:#b75a1e;"/>
		<path d="M 263.761079 33.309635 Q 263.094313 32.830032 262.702442 32.148645 L 263.761079 33.309635 Z" style="fill:#b75a1e;"/>
		<path d="M 239.219432 33.227752 Q 239.038119 33.891593 238.511725 34.491097 Q 238.754451 33.751221 239.219432 33.227752 Z" style="fill:#b75a1e;"/>
		<path d="M 240.997473 33.874046 L 240.456457 35.529262 L 240.997473 33.874046 Z" style="fill:#b75a1e;"/>
		<path d="M 265.928066 35.956226 L 264.983482 34.695806 Q 265.63855 35.192955 265.928066 35.956226 Z" style="fill:#b75a1e;"/>
		<path d="M 266.088909 36.242818 Q 265.919293 36.181406 265.928066 35.956226 Q 266.074287 36.064429 266.088909 36.242818 Z" style="fill:#b75a1e;"/>
		<path d="M 266.30824 36.68148 Q 266.72643 37.289757 266.746901 37.985767 L 266.30824 36.68148 Z" style="fill:#b75a1e;"/>
		<path d="M 239.842331 36.760439 Q 239.783843 36.973921 239.655169 37.12599 Q 239.590832 36.906659 239.842331 36.760439 Z" style="fill:#b75a1e;"/>
		<path d="M 254.756821 36.851096 Q 254.704182 37.242966 254.473153 37.555878 Q 254.525793 37.161083 254.756821 36.851096 Z" style="fill:#b75a1e;"/>
		<path d="M 264.673495 38.520933 L 264.460013 37.871715 Q 264.664721 38.146609 264.673495 38.520933 Z" style="fill:#f6c78c;"/>
		<path d="M 254.180712 38.105667 L 253.107454 40.038702 L 254.180712 38.105667 Z" style="fill:#b75a1e;"/>
		<path d="M 238.774922 38.535556 L 238.394749 39.099967 Q 238.517574 38.599893 238.774922 38.535556 Z" style="fill:#b75a1e;"/>
		<path d="M 264.761227 38.731491 Q 264.761227 38.775357 264.761227 38.822148 Q 264.679343 38.6847 264.673495 38.520933 Q 264.772925 38.594044 264.761227 38.731491 Z" style="fill:#b75a1e;"/>
		<path d="M 264.834337 39.015159 L 264.805093 39.170152 L 264.761227 38.822148 Q 264.761227 38.775357 264.761227 38.731491 Q 264.828488 38.857241 264.834337 39.015159 Z" style="fill:#f6c78c;"/>
		<path d="M 264.848959 39.339768 L 264.805093 39.170152 L 264.834337 39.015159 Q 264.94254 39.132135 264.848959 39.339768 Z" style="fill:#b75a1e;"/>
		<path d="M 238.257301 39.313449 L 238.105232 39.541552 Q 238.128627 39.214019 238.257301 39.313449 Z" style="fill:#b75a1e;"/>
		<path d="M 264.609158 40.924798 L 264.857732 40.114737 Q 264.922069 40.603113 264.609158 40.924798 Z" style="fill:#f6c78c;"/>
		<path d="M 245.948499 40.357463 Q 245.778883 40.913101 245.416256 41.366384 Q 245.582948 40.813671 245.948499 40.357463 Z" style="fill:#f6c78c;"/>
		<path d="M 252.765298 40.576794 Q 252.560589 41.129507 252.168719 41.544773 Q 252.159945 41.533076 252.148248 41.524302 L 252.765298 40.576794 Z" style="fill:#b75a1e;"/>
		<path d="M 266.738128 40.597264 Q 266.746901 41.129507 266.477855 41.585715 Q 266.457385 41.047624 266.738128 40.597264 Z" style="fill:#b75a1e;"/>
		<path d="M 264.52435 41.09149 L 264.486332 41.293274 L 264.52435 41.09149 Z" style="fill:#b75a1e;"/>
		<path d="M 245.381164 41.454116 Q 245.348995 41.597413 245.249565 41.673447 Q 245.27296 41.527227 245.381164 41.454116 Z" style="fill:#b75a1e;"/>
		<path d="M 252.168719 41.544773 L 250.937542 43.960336 L 252.148248 41.524302 Q 252.159945 41.533076 252.168719 41.544773 Z" style="fill:#f9f4e4;"/>
		<path d="M 264.386902 41.50968 Q 264.357658 41.866458 264.10031 42.050696 L 264.386902 41.50968 Z" style="fill:#b75a1e;"/>
		<path d="M 242.167237 42.89585 Q 242.123371 42.147202 242.503544 41.641279 L 242.167237 42.89585 Z" style="fill:#b75a1e;"/>
		<path d="M 266.45446 41.690994 Q 265.969008 43.474884 264.761227 44.869827 L 266.45446 41.690994 Z" style="fill:#b75a1e;"/>
		<path d="M 249.873057 42.272951 L 249.913999 44.30834 Q 249.70929 43.314041 249.873057 42.272951 Z" style="fill:#b75a1e;"/>
		<path d="M 234.008134 43.217536 L 234.081244 42.515677 Q 234.265482 42.799345 234.008134 43.217536 Z" style="fill:#b75a1e;"/>
		<path d="M 241.909889 44.012975 Q 241.866023 43.749778 241.982999 43.489506 Q 242.1029 43.784871 241.909889 44.012975 Z" style="fill:#b75a1e;"/>
		<path d="M 244.48337 43.507052 L 244.404411 43.992504 Q 244.381015 43.992504 244.354696 43.992504 L 244.48337 43.507052 Z" style="fill:#f6c78c;"/>
		<path d="M 250.937542 43.960336 L 250.747455 45.159344 Q 250.735758 44.527671 250.937542 43.960336 Z" style="fill:#f6c78c;"/>
		<path d="M 262.544524 43.916469 Q 262.123409 44.665118 261.37476 45.024821 L 262.544524 43.916469 Z" style="fill:#b75a1e;"/>
		<path d="M 244.354696 43.992504 Q 244.381015 43.992504 244.404411 43.992504 Q 244.395637 44.182591 244.304981 44.358055 Q 244.275737 44.144573 244.354696 43.992504 Z" style="fill:#b75a1e;"/>
		<path d="M 244.214324 44.747002 L 244.126592 45.384523 Q 244.079801 45.059914 244.214324 44.747002 Z" style="fill:#b75a1e;"/>
		<path d="M 250.229835 45.273396 Q 250.077766 45.211983 250.089463 44.992652 Q 250.487183 45.097931 250.229835 45.273396 Z" style="fill:#b75a1e;"/>
		<path d="M 264.69689 45.016048 Q 263.515428 46.551363 261.953794 47.724051 L 264.69689 45.016048 Z" style="fill:#b75a1e;"/>
		<path d="M 259.070326 46.758996 Q 258.643362 47.273692 258.008765 47.513493 Q 258.418182 46.975402 259.070326 46.758996 Z" style="fill:#b75a1e;"/>
		<path d="M 244.106121 47.139169 L 244.474596 48.96985 Q 244.135365 48.072056 244.106121 47.139169 Z" style="fill:#b75a1e;"/>
		<path d="M 257.321529 48.051585 Q 255.353401 49.741894 254.376648 51.847469 Q 254.593054 50.964297 255.204256 50.092823 Q 256.087428 48.835327 257.321529 48.051585 Z" style="fill:#b75a1e;"/>
		<path d="M 242.325155 48.925983 L 242.234499 48.516566 Q 242.480149 48.765141 242.325155 48.925983 Z" style="fill:#b75a1e;"/>
		<path d="M 260.298578 48.858722 Q 259.845294 49.273988 259.263337 49.426057 Q 259.693225 49.007867 260.298578 48.858722 Z" style="fill:#b75a1e;"/>
		<path d="M 244.705625 49.598598 Q 244.512614 49.651237 244.603271 49.420209 Q 244.641288 49.657086 244.705625 49.598598 Z" style="fill:#b75a1e;"/>
		<path d="M 243.775663 51.771434 L 243.559256 51.476069 Q 243.851697 51.537481 243.775663 51.771434 Z" style="fill:#b75a1e;"/>
		<path d="M 260.304426 131.841773 Q 260.219619 131.713099 260.079247 131.748192 Q 259.985666 131.768663 259.930102 131.847622 Q 258.152061 133.078798 256.982297 133.251338 C 255.865172 133.41803 254.800687 133.628587 253.701109 133.637361 Q 245.071176 133.71632 238.511725 133.651983 C 237.277624 133.640285 235.672123 133.309827 234.487737 133.36539 Q 234.122186 133.385861 233.677676 133.19285 Q 233.361839 133.055403 232.81205 133.075874 C 232.721394 133.078798 232.630737 133.052479 232.557627 132.999839 Q 232.241791 132.768811 231.893786 132.733718 Q 231.753414 132.719096 231.656909 132.616742 Q 231.265038 132.210249 230.694778 132.096197 Q 230.542708 132.064028 230.463749 131.93243 Q 230.28536 131.631215 230.007541 131.496693 C 229.916885 131.455751 229.811606 131.473297 229.738496 131.543483 Q 228.267518 132.996915 228.007245 133.207472 C 226.732203 134.236865 225.217358 135.187298 223.684968 135.816046 Q 219.043929 137.716912 214.768442 138.453863 Q 212.905593 138.772624 211.3849 138.629328 C 210.788321 138.573764 210.683042 138.439241 210.24438 138.84281 Q 207.241012 141.606377 203.796057 143.504319 C 203.673232 143.57158 203.573802 143.676859 203.509465 143.802609 Q 201.751894 147.23879 198.654945 149.701143 Q 198.111004 150.133956 196.157499 151.540597 Q 195.35621 152.122555 194.443795 152.488106 C 193.487513 152.871203 192.300202 153.45901 191.34392 153.517498 C 190.776585 153.555515 190.235569 153.83041 189.600972 153.845032 Q 183.883751 153.967857 180.079094 150.107636 Q 177.25119 147.235866 177.072801 142.975001 L 177.05233 141.834481 Q 177.157608 139.83126 177.754188 137.912848 Q 178.084646 136.854211 178.578872 136.049999 Q 179.40648 134.70477 179.663828 134.315824 C 179.774955 134.146208 179.772031 133.923953 179.660903 133.754337 C 179.283654 133.184077 178.923952 132.710323 178.745563 132.03186 Q 178.263035 130.192406 178.458971 128.26522 Q 178.491139 127.958157 179.05555 125.987105 Q 179.30705 125.118555 179.707694 124.419621 Q 180.003059 123.902001 180.210692 123.393153 Q 180.383232 122.966189 180.737086 122.381307 Q 182.240233 119.898484 183.658571 118.20525 Q 183.918844 117.889414 183.667345 117.231422 Q 182.983033 115.435834 183.24623 113.929763 Q 183.632252 111.71891 185.091532 109.168824 Q 187.387194 105.159458 190.460748 101.515644 Q 193.911552 97.418546 198.602305 94.017457 Q 199.108228 93.651906 199.751598 93.292204 Q 200.547038 92.850618 200.897967 92.549404 C 201.257669 92.239416 201.772365 92.128289 202.213951 91.841696 Q 202.594124 91.596046 202.728647 91.52586 Q 205.752487 89.926208 209.024902 88.832479 Q 209.165273 88.785688 209.159424 88.636543 C 209.136029 88.15694 208.905001 87.709505 208.85821 87.303013 C 208.633031 85.317338 208.916698 83.779099 210.068916 82.223313 C 210.46956 81.682297 211.194814 80.573946 211.884974 79.848692 Q 214.838628 76.740044 218.733942 74.131471 Q 218.751488 74.119773 219.795503 73.505647 C 220.345292 73.183962 220.740087 72.786243 221.284027 72.531819 Q 222.544448 71.946937 222.836889 71.742228 C 223.585538 71.221683 224.451163 70.990655 225.293393 70.54322 Q 226.220431 70.048995 226.550889 69.97296 C 227.179637 69.82674 227.676787 69.475811 228.273366 69.279875 Q 230.259041 68.636505 230.805905 68.443494 Q 232.885161 67.709467 235.508356 67.291277 C 235.86221 67.232788 236.169273 67.089492 236.461714 67.045626 Q 240.199109 66.495837 241.406891 66.422727 Q 250.528125 65.875862 259.242866 68.616034 Q 260.377537 68.972812 263.687969 70.215686 Q 264.562367 70.54322 265.091685 70.81519 C 266.124002 71.344509 266.860953 71.53752 267.738276 72.139948 C 268.214955 72.470406 268.890493 72.666342 269.449056 73.02312 Q 272.338373 74.862573 272.908632 75.280764 Q 276.68697 78.053104 279.447613 81.679373 C 280.637847 83.241007 281.360177 84.831886 281.371874 86.905293 C 281.377723 87.516494 281.050189 88.288539 281.02387 88.937758 Q 281.018021 89.086902 281.164241 89.119071 C 281.404043 89.17171 281.749123 89.157088 282.006471 89.250669 Q 290.168499 92.210172 295.824307 98.056067 Q 299.982818 102.352025 303.775777 108.513756 Q 304.088689 109.022604 304.384055 109.718613 C 304.603385 110.230385 305.05082 110.660273 305.293546 111.262702 Q 305.305244 111.291946 305.96616 113.017347 C 306.229357 113.710433 306.270299 114.415215 306.410671 115.146318 Q 306.521798 115.739973 306.223508 117.053033 Q 306.19134 117.19048 306.068515 117.26359 L 305.96616 117.322079 C 305.7673 117.436131 305.752678 117.716874 305.936916 117.854321 C 306.472083 118.246192 306.665094 118.845696 306.957535 119.231718 C 307.84948 120.407331 308.551338 121.313898 309.174238 122.524604 Q 309.343854 122.855062 310.054485 124.083314 Q 311.504992 126.592457 311.768189 129.636768 Q 312.031386 132.666457 310.668611 134.909479 Q 310.586728 135.04985 310.64814 135.196071 C 310.77389 135.508983 311.110197 135.675674 311.268115 135.985662 Q 312.145438 137.690592 312.317978 138.255004 Q 313.601794 142.4837 312.256566 146.428729 Q 311.522539 148.575246 309.817608 150.405926 Q 306.208886 154.27492 300.801653 153.733904 Q 300.362991 153.690038 299.05578 153.312789 C 296.093353 152.461786 293.414594 150.710065 291.165723 148.464118 Q 289.273629 146.572025 288.141883 144.299759 Q 287.940099 143.89619 287.33767 143.621295 C 284.079878 142.118149 281.310462 139.904371 278.86858 137.383529 C 278.78962 137.301646 278.678493 137.25778 278.564441 137.263629 C 278.184268 137.281175 277.944466 137.594087 277.584764 137.687668 Q 275.604938 138.202364 274.256785 137.906999 Q 270.379018 137.061844 268.788139 136.406777 Q 266.597756 135.508983 266.1357 135.392006 Q 266.050892 135.371536 265.957311 135.298425 Q 265.878351 135.239937 265.778922 135.198995 Q 263.31072 134.210545 261.237313 132.543631 Q 260.769408 132.169307 260.304426 131.841773 Z M 229.925658 124.67112 Q 230.571953 126.536894 231.390787 128.124848 C 232.156983 129.613373 233.619188 130.280138 235.242235 130.408812 C 241.611599 130.903037 247.711918 130.69248 254.250898 130.613521 Q 257.137291 130.581352 258.763263 128.159941 Q 260.275182 125.91107 261.012134 124.545371 L 262.193595 121.980663 Q 265.185266 115.625921 268.086281 109.256556 Q 269.349626 106.48714 270.595424 103.975072 Q 276.450093 92.175079 277.03205 91.002391 Q 277.692967 89.674709 278.175494 88.42891 C 278.880277 86.612852 278.415296 85.174042 277.251381 83.571466 Q 275.762856 81.512681 273.607566 79.731716 Q 268.992848 75.804233 263.067994 73.333107 Q 257.286436 70.923394 252.428991 70.089937 Q 246.410556 69.054696 241.68471 69.423171 C 231.735868 70.201064 221.415626 74.377121 214.370723 81.711541 Q 212.706733 83.439867 212.317787 84.29087 Q 211.18604 86.759072 212.563437 89.010868 C 215.634068 94.035004 219.818898 100.64417 222.676046 106.861465 C 224.158722 110.090013 226.109303 114.754447 227.670938 118.804754 Q 228.817307 121.775955 229.925658 124.67112 Z M 302.275555 112.312565 Q 302.111788 111.835886 301.500587 110.753854 C 299.152286 106.607041 296.333155 102.585978 292.981781 99.442237 Q 287.565774 94.359613 280.25475 91.721796 Q 280.076361 91.657459 279.968158 91.812452 Q 279.702036 92.189701 279.465159 92.631287 Q 275.543526 99.954009 271.87924 107.411254 Q 269.785363 111.672119 262.834041 127.607228 Q 262.474338 128.431911 262.459716 128.844253 Q 262.453868 129.022642 262.573768 129.157165 Q 264.091537 130.824078 265.001029 131.353397 C 267.653468 132.900409 270.873243 134.03508 273.753787 134.754485 C 275.157504 135.105414 276.078693 135.184373 277.172422 134.318748 Q 277.608159 133.973668 277.789472 133.233792 Q 278.07314 132.075726 279.079137 130.631067 Q 281.436211 127.244601 282.404191 125.98418 Q 285.887163 121.45427 289.750308 117.977146 C 292.031348 115.924211 294.578509 113.953159 297.222175 112.868203 Q 299.40086 111.979182 302.181974 112.423692 Q 302.322346 112.447088 302.275555 112.312565 Z M 211.247453 130.622294 C 211.975631 132.03186 212.955308 133.885935 212.560513 135.444646 Q 212.496176 135.704918 212.762297 135.687372 C 216.061031 135.465117 218.967895 134.362614 222.11456 133.178228 Q 225.866577 131.762814 227.890269 128.309086 Q 227.95753 128.19211 227.937059 128.060511 Q 227.817159 127.317711 227.334631 126.0105 C 224.676342 118.787208 222.044374 111.832961 218.488291 104.831925 Q 215.221726 98.404072 210.232683 92.040556 Q 208.358136 92.531857 207.211767 92.982216 C 199.684337 95.927097 193.601565 101.998171 189.381641 108.782802 Q 188.255743 110.590087 187.533414 112.292094 C 187.489548 112.397373 187.591902 112.502651 187.697181 112.46171 C 192.832445 110.432169 199.900743 116.310233 203.152687 119.755187 Q 206.553775 123.363909 207.820045 125.370054 Q 209.551295 128.113151 211.247453 130.622294 Z M 190.434429 115.3598 Q 186.164791 119.336997 183.766775 123.337589 Q 181.959489 126.352656 181.471113 129.689407 Q 181.386305 130.256743 181.611485 130.926433 Q 181.655351 131.066804 181.798647 131.031711 Q 184.857579 130.324004 187.135695 131.046334 Q 189.989918 131.949976 193.370536 133.985365 Q 197.730831 137.368907 201.971225 140.375201 C 202.512241 140.761223 202.804682 140.641322 203.28721 140.293317 Q 206.738013 137.813418 209.150651 134.470817 C 209.656574 133.771883 208.805571 132.192702 208.4137 131.575652 Q 206.147282 128.025418 204.27566 125.545519 Q 200.146394 120.073948 194.186446 116.34825 Q 192.966968 115.587904 191.311752 115.102452 Q 191.036857 115.020568 190.835073 115.079056 Q 190.522161 115.172637 190.434429 115.3598 Z M 308.911041 131.280286 C 308.946134 131.28906 308.981227 131.265664 308.984151 131.227647 C 309.124523 129.051886 308.375874 127.191961 307.285069 125.191665 Q 305.082989 121.161829 301.787179 117.728572 C 301.158431 117.076428 300.348369 116.128919 299.333599 115.526491 C 298.637589 115.111225 296.988222 116.032414 296.514468 116.330704 C 290.367359 120.223093 285.088799 126.159645 281.450833 132.341847 Q 281.061887 133.005688 280.980003 133.69 Q 280.912742 134.242713 281.328008 134.836369 Q 284.331377 139.129402 289.171275 141.115076 C 289.805872 141.375349 290.414149 141.351953 290.946392 140.960083 C 294.449835 138.37198 297.985446 135.111263 301.579546 132.745416 C 303.825492 131.265664 306.375578 130.546259 308.911041 131.280286 Z M 200.169789 142.904815 Q 200.254597 142.793687 200.155167 142.691333 Q 199.96508 142.501247 199.736976 142.33748 C 195.976185 139.620703 191.267886 135.763406 186.325633 133.982441 Q 184.886823 133.46482 183.61763 134.587794 C 180.342291 137.474186 178.728017 141.711656 180.751708 145.843847 Q 182.50343 149.417476 186.506946 150.557995 C 192.572172 152.286322 196.99388 147.13936 200.169789 142.904815 Z M 296.315608 140.556514 C 295.06981 141.635621 292.654247 143.410738 291.578064 144.232497 C 291.522501 144.276363 291.513727 144.361171 291.563442 144.41381 C 293.917592 147.037006 296.2308 149.206918 299.585098 150.283101 Q 305.156099 152.07284 308.317386 147.542929 Q 310.849925 143.910812 309.639219 139.506651 C 309.159616 137.769552 306.679716 133.423879 304.445467 134.312899 Q 303.924922 134.517608 303.430697 134.874386 Q 300.187527 137.210989 296.315608 140.556514 Z" style="fill:#0c0a0a;"/>
		<path d="M 260.304426 131.841773 L 259.930102 131.847622 Q 259.985666 131.768663 260.079247 131.748192 Q 260.219619 131.713099 260.304426 131.841773 Z" style="fill:#b75a1e;"/>
		<path d="M 177.072801 142.975001 Q 176.938278 142.433985 177.05233 141.834481 L 177.072801 142.975001 Z" style="fill:#b75a1e;"/>
		<path d="M 273.607566 79.731716 Q 273.911705 81.094491 274.154431 82.378306 C 274.742237 85.475256 274.391308 88.911438 273.513985 91.809528 Q 272.127815 96.386229 269.065958 103.668009 Q 265.071214 113.163568 262.278403 120.790429 Q 262.07077 121.35484 262.193595 121.980663 L 261.012134 124.545371 Q 259.213622 124.881678 258.277811 124.972334 Q 247.963417 125.957861 237.61978 125.384676 Q 233.820972 125.174119 229.925658 124.67112 Q 228.817307 121.775955 227.670938 118.804754 C 226.109303 114.754447 224.158722 110.090013 222.676046 106.861465 C 219.818898 100.64417 215.634068 94.035004 212.563437 89.010868 Q 211.18604 86.759072 212.317787 84.29087 Q 212.706733 83.439867 214.370723 81.711541 C 221.415626 74.377121 231.735868 70.201064 241.68471 69.423171 Q 246.410556 69.054696 252.428991 70.089937 Q 257.286436 70.923394 263.067994 73.333107 Q 268.992848 75.804233 273.607566 79.731716 Z M 234.888381 72.049291 C 233.744937 72.40022 232.990439 73.777617 234.467266 74.347877 Q 234.949794 74.53504 235.628257 74.517493 C 242.333929 74.356651 249.671273 76.000169 255.356325 79.66153 C 256.724949 80.541777 258.418182 81.968889 259.596719 81.693995 Q 261.678899 81.205618 261.69937 79.372013 C 261.716916 77.658309 259.093721 75.780838 257.853771 75.040962 Q 250.753304 70.821039 242.380719 71.095934 C 239.760448 71.183666 237.099235 71.370828 234.888381 72.049291 Z M 225.117928 91.014088 C 227.963379 93.599267 230.434505 96.523676 232.203773 99.90137 Q 235.484961 106.171304 236.447092 112.885749 C 236.634254 114.178338 237.37413 115.769217 238.722283 116.026565 C 241.181711 116.497395 242.345626 113.985327 242.433358 112.008426 C 242.62637 107.765108 241.728576 103.293685 240.280993 99.266773 C 238.213435 93.514459 234.484813 87.873272 229.557182 84.241156 C 228.054036 83.132804 226.480703 82.100488 224.594459 82.141429 C 223.070842 82.176522 221.749008 82.966113 221.257707 84.366905 C 220.222466 87.31471 223.278475 89.344251 225.117928 91.014088 Z" style="fill:#e59526;"/>
		<path d="M 262.193595 121.980663 Q 262.07077 121.35484 262.278403 120.790429 Q 265.071214 113.163568 269.065958 103.668009 Q 272.127815 96.386229 273.513985 91.809528 C 274.391308 88.911438 274.742237 85.475256 274.154431 82.378306 Q 273.911705 81.094491 273.607566 79.731716 Q 275.762856 81.512681 277.251381 83.571466 C 278.415296 85.174042 278.880277 86.612852 278.175494 88.42891 Q 277.692967 89.674709 277.03205 91.002391 Q 276.450093 92.175079 270.595424 103.975072 Q 269.349626 106.48714 268.086281 109.256556 Q 265.185266 115.625921 262.193595 121.980663 Z" style="fill:#b75a1e;"/>
		<path d="M 302.181974 112.423692 Q 299.40086 111.979182 297.222175 112.868203 C 294.578509 113.953159 292.031348 115.924211 289.750308 117.977146 Q 285.887163 121.45427 282.404191 125.98418 Q 281.436211 127.244601 279.079137 130.631067 Q 278.07314 132.075726 277.789472 133.233792 Q 277.608159 133.973668 277.172422 134.318748 C 276.078693 135.184373 275.157504 135.105414 273.753787 134.754485 C 270.873243 134.03508 267.653468 132.900409 265.001029 131.353397 Q 264.091537 130.824078 262.573768 129.157165 Q 262.453868 129.022642 262.459716 128.844253 Q 262.474338 128.431911 262.834041 127.607228 Q 269.785363 111.672119 271.87924 107.411254 Q 275.543526 99.954009 279.465159 92.631287 Q 279.702036 92.189701 279.968158 91.812452 Q 280.076361 91.657459 280.25475 91.721796 Q 287.565774 94.359613 292.981781 99.442237 C 296.333155 102.585978 299.152286 106.607041 301.500587 110.753854 Q 302.111788 111.835886 302.275555 112.312565 Q 302.322346 112.447088 302.181974 112.423692 Z M 267.483852 127.060363 C 270.788435 128.595678 273.859066 129.496396 277.371282 130.39419 C 277.570142 130.443905 277.77485 130.3474 277.859658 130.163162 C 281.637996 121.99821 287.478042 114.125699 295.09028 109.127882 Q 296.002696 108.528378 296.192783 108.1716 Q 296.587578 107.4288 295.990999 106.519309 Q 291.510803 99.667417 284.746643 95.959265 Q 284.334301 95.734086 283.92196 96.067469 Q 282.857474 96.927245 281.901192 98.067765 Q 279.573362 100.84303 277.754379 104.001392 Q 275.414852 108.063397 272.803354 114.032118 Q 270.235722 119.895559 267.366876 126.759149 Q 267.279144 126.966782 267.483852 127.060363 Z" style="fill:#b75a1e;"/>
		<path d="M 210.232683 92.040556 Q 211.101232 94.535078 212.320711 96.70499 Q 213.999322 99.693737 214.01102 99.714207 Q 216.163386 103.878567 216.76289 105.162383 Q 220.886307 114.017496 224.667569 125.256002 Q 224.980481 126.185965 224.875202 126.487179 C 224.521349 127.519495 222.056071 128.089755 221.114411 128.393894 Q 216.353472 129.937982 211.247453 130.622294 Q 209.551295 128.113151 207.820045 125.370054 Q 206.553775 123.363909 203.152687 119.755187 C 199.900743 116.310233 192.832445 110.432169 187.697181 112.46171 C 187.591902 112.502651 187.489548 112.397373 187.533414 112.292094 Q 188.255743 110.590087 189.381641 108.782802 C 193.601565 101.998171 199.684337 95.927097 207.211767 92.982216 Q 208.358136 92.531857 210.232683 92.040556 Z M 200.810235 99.000652 Q 196.236458 102.387118 193.548925 107.174377 Q 193.282804 107.651056 192.996212 108.56932 C 192.844142 109.051848 193.110264 109.26533 193.467042 109.622108 C 194.949717 111.107708 196.850584 111.926543 199.032193 111.751078 Q 202.515165 111.473259 204.910257 109.180522 C 207.308273 106.887785 208.817268 103.697254 208.121259 100.369275 C 207.627034 98.009277 205.495139 97.161198 203.26089 97.760702 Q 202.044335 98.088236 200.810235 99.000652 Z" style="fill:#e59526;"/>
		<path d="M 211.247453 130.622294 Q 216.353472 129.937982 221.114411 128.393894 C 222.056071 128.089755 224.521349 127.519495 224.875202 126.487179 Q 224.980481 126.185965 224.667569 125.256002 Q 220.886307 114.017496 216.76289 105.162383 Q 216.163386 103.878567 214.01102 99.714207 Q 213.999322 99.693737 212.320711 96.70499 Q 211.101232 94.535078 210.232683 92.040556 Q 215.221726 98.404072 218.488291 104.831925 C 222.044374 111.832961 224.676342 118.787208 227.334631 126.0105 Q 227.817159 127.317711 227.937059 128.060511 Q 227.95753 128.19211 227.890269 128.309086 Q 225.866577 131.762814 222.11456 133.178228 C 218.967895 134.362614 216.061031 135.465117 212.762297 135.687372 Q 212.496176 135.704918 212.560513 135.444646 C 212.955308 133.885935 211.975631 132.03186 211.247453 130.622294 Z" style="fill:#b75a1e;"/>
		<path d="M 193.370536 133.985365 Q 196.458713 134.693072 199.198885 136.248858 Q 199.675564 136.51498 200.207806 136.485736 Q 200.354027 136.476962 200.468079 136.380457 Q 202.424509 134.760334 204.319526 132.795131 Q 204.842996 132.25119 204.530084 131.675082 Q 202.129143 127.235828 199.450384 123.597862 Q 197.526122 120.98344 195.593088 119.19955 Q 193.206769 116.997469 190.434429 115.3598 Q 190.522161 115.172637 190.835073 115.079056 Q 191.036857 115.020568 191.311752 115.102452 Q 192.966968 115.587904 194.186446 116.34825 Q 200.146394 120.073948 204.27566 125.545519 Q 206.147282 128.025418 208.4137 131.575652 C 208.805571 132.192702 209.656574 133.771883 209.150651 134.470817 Q 206.738013 137.813418 203.28721 140.293317 C 202.804682 140.641322 202.512241 140.761223 201.971225 140.375201 Q 197.730831 137.368907 193.370536 133.985365 Z" style="fill:#b75a1e;"/>
		<path d="M 308.911041 131.280286 C 306.375578 130.546259 303.825492 131.265664 301.579546 132.745416 C 297.985446 135.111263 294.449835 138.37198 290.946392 140.960083 C 290.414149 141.351953 289.805872 141.375349 289.171275 141.115076 Q 284.331377 139.129402 281.328008 134.836369 Q 280.912742 134.242713 280.980003 133.69 Q 281.061887 133.005688 281.450833 132.341847 C 285.088799 126.159645 290.367359 120.223093 296.514468 116.330704 C 296.988222 116.032414 298.637589 115.111225 299.333599 115.526491 C 300.348369 116.128919 301.158431 117.076428 301.787179 117.728572 Q 305.082989 121.161829 307.285069 125.191665 C 308.375874 127.191961 309.124523 129.051886 308.984151 131.227647 C 308.981227 131.265664 308.946134 131.28906 308.911041 131.280286 Z M 290.999031 137.415698 C 293.236205 134.30705 295.847703 131.613669 299.052856 129.110374 Q 299.8249 128.507946 303.038826 126.300017 Q 303.942469 125.680042 304.106236 124.574615 C 304.30802 123.214764 302.433473 121.039003 301.538604 120.132436 C 300.523834 119.10012 299.848295 118.427505 298.441654 119.053329 C 292.692264 121.609263 288.399231 126.800091 285.884239 132.529009 C 285.808204 132.698625 285.840372 132.89456 285.960273 133.034932 Q 288.083395 135.503134 290.665648 137.465413 C 290.770927 137.544372 290.920072 137.523901 290.999031 137.415698 Z" style="fill:#b75a1e;"/>
		<path d="M 190.434429 115.3598 Q 193.206769 116.997469 195.593088 119.19955 Q 197.526122 120.98344 199.450384 123.597862 Q 202.129143 127.235828 204.530084 131.675082 Q 204.842996 132.25119 204.319526 132.795131 Q 202.424509 134.760334 200.468079 136.380457 Q 200.354027 136.476962 200.207806 136.485736 Q 199.675564 136.51498 199.198885 136.248858 Q 196.458713 134.693072 193.370536 133.985365 Q 189.989918 131.949976 187.135695 131.046334 Q 184.857579 130.324004 181.798647 131.031711 Q 181.655351 131.066804 181.611485 130.926433 Q 181.386305 130.256743 181.471113 129.689407 Q 181.959489 126.352656 183.766775 123.337589 Q 186.164791 119.336997 190.434429 115.3598 Z M 193.086868 120.31375 C 187.992547 118.290058 186.275918 124.609708 185.869425 128.113151 C 185.854803 128.221354 185.922065 128.320784 186.027343 128.350028 Q 186.594679 128.507946 187.243898 128.554736 Q 189.767663 128.730201 195.598936 128.955381 Q 196.370981 128.984625 197.014351 128.686335 Q 197.145949 128.624922 197.143025 128.478702 C 197.034822 125.6391 195.964488 121.460118 193.086868 120.31375 Z" style="fill:#e59526;"/>
		<path d="M 261.012134 124.545371 Q 260.275182 125.91107 258.763263 128.159941 Q 257.137291 130.581352 254.250898 130.613521 C 247.711918 130.69248 241.611599 130.903037 235.242235 130.408812 C 233.619188 130.280138 232.156983 129.613373 231.390787 128.124848 Q 230.571953 126.536894 229.925658 124.67112 Q 233.820972 125.174119 237.61978 125.384676 Q 247.963417 125.957861 258.277811 124.972334 Q 259.213622 124.881678 261.012134 124.545371 Z" style="fill:#b75a1e;"/>
		<path d="M 200.169789 142.904815 C 196.99388 147.13936 192.572172 152.286322 186.506946 150.557995 Q 182.50343 149.417476 180.751708 145.843847 C 178.728017 141.711656 180.342291 137.474186 183.61763 134.587794 Q 184.886823 133.46482 186.325633 133.982441 C 191.267886 135.763406 195.976185 139.620703 199.736976 142.33748 Q 199.96508 142.501247 200.155167 142.691333 Q 200.254597 142.793687 200.169789 142.904815 Z M 191.384862 139.173268 Q 189.38749 137.558994 188.27329 137.137879 Q 186.401668 136.433096 184.880975 137.094013 Q 183.948088 137.500506 183.673193 137.965487 Q 181.476962 141.691185 183.93639 145.335 Q 184.848806 146.686077 186.816934 147.349918 Q 190.311604 148.525531 192.645283 145.966672 Q 194.066546 144.407962 194.932171 142.626996 C 194.981886 142.524642 194.961415 142.398892 194.879532 142.317009 Q 193.279879 140.705659 191.384862 139.173268 Z" style="fill:#b75a1e;"/>
		<path d="M 291.578064 144.232497 C 292.654247 143.410738 295.06981 141.635621 296.315608 140.556514 Q 300.187527 137.210989 303.430697 134.874386 Q 303.924922 134.517608 304.445467 134.312899 C 306.679716 133.423879 309.159616 137.769552 309.639219 139.506651 Q 310.849925 143.910812 308.317386 147.542929 Q 305.156099 152.07284 299.585098 150.283101 C 296.2308 149.206918 293.917592 147.037006 291.563442 144.41381 C 291.513727 144.361171 291.522501 144.276363 291.578064 144.232497 Z M 302.518281 137.763703 C 300.49459 138.719985 298.672682 140.190963 296.894641 141.942684 Q 295.88572 142.934059 296.716252 143.957603 Q 297.608197 145.054256 299.047007 146.05148 Q 300.556002 147.098419 301.895382 147.121814 C 305.202889 147.174453 307.074512 143.840626 306.741129 140.805089 C 306.507176 138.655648 304.743757 136.710915 302.518281 137.763703 Z" style="fill:#b75a1e;"/>
		<path d="M 234.467266 74.347877 C 232.990439 73.777617 233.744937 72.40022 234.888381 72.049291 C 237.099235 71.370828 239.760448 71.183666 242.380719 71.095934 Q 250.753304 70.821039 257.853771 75.040962 C 259.093721 75.780838 261.716916 77.658309 261.69937 79.372013 Q 261.678899 81.205618 259.596719 81.693995 C 258.418182 81.968889 256.724949 80.541777 255.356325 79.66153 C 249.671273 76.000169 242.333929 74.356651 235.628257 74.517493 Q 234.949794 74.53504 234.467266 74.347877 Z" style="fill:#f9f4e4;"/>
		<path d="M 225.117928 91.014088 C 223.278475 89.344251 220.222466 87.31471 221.257707 84.366905 C 221.749008 82.966113 223.070842 82.176522 224.594459 82.141429 C 226.480703 82.100488 228.054036 83.132804 229.557182 84.241156 C 234.484813 87.873272 238.213435 93.514459 240.280993 99.266773 C 241.728576 103.293685 242.62637 107.765108 242.433358 112.008426 C 242.345626 113.985327 241.181711 116.497395 238.722283 116.026565 C 237.37413 115.769217 236.634254 114.178338 236.447092 112.885749 Q 235.484961 106.171304 232.203773 99.90137 C 230.434505 96.523676 227.963379 93.599267 225.117928 91.014088 Z" style="fill:#f9f4e4;"/>
		<path d="M 277.371282 130.39419 C 273.859066 129.496396 270.788435 128.595678 267.483852 127.060363 Q 267.279144 126.966782 267.366876 126.759149 Q 270.235722 119.895559 272.803354 114.032118 Q 275.414852 108.063397 277.754379 104.001392 Q 279.573362 100.84303 281.901192 98.067765 Q 282.857474 96.927245 283.92196 96.067469 Q 284.334301 95.734086 284.746643 95.959265 Q 291.510803 99.667417 295.990999 106.519309 Q 296.587578 107.4288 296.192783 108.1716 Q 296.002696 108.528378 295.09028 109.127882 C 287.478042 114.125699 281.637996 121.99821 277.859658 130.163162 C 277.77485 130.3474 277.570142 130.443905 277.371282 130.39419 Z" style="fill:#e59526;"/>
		<path d="M 200.810235 99.000652 Q 202.044335 98.088236 203.26089 97.760702 C 205.495139 97.161198 207.627034 98.009277 208.121259 100.369275 C 208.817268 103.697254 207.308273 106.887785 204.910257 109.180522 Q 202.515165 111.473259 199.032193 111.751078 C 196.850584 111.926543 194.949717 111.107708 193.467042 109.622108 C 193.110264 109.26533 192.844142 109.051848 192.996212 108.56932 Q 193.282804 107.651056 193.548925 107.174377 Q 196.236458 102.387118 200.810235 99.000652 Z" style="fill:#f6c78c;"/>
		<path d="M 299.052856 129.110374 C 295.847703 131.613669 293.236205 134.30705 290.999031 137.415698 C 290.920072 137.523901 290.770927 137.544372 290.665648 137.465413 Q 288.083395 135.503134 285.960273 133.034932 C 285.840372 132.89456 285.808204 132.698625 285.884239 132.529009 C 288.399231 126.800091 292.692264 121.609263 298.441654 119.053329 C 299.848295 118.427505 300.523834 119.10012 301.538604 120.132436 C 302.433473 121.039003 304.30802 123.214764 304.106236 124.574615 Q 303.942469 125.680042 303.038826 126.300017 Q 299.8249 128.507946 299.052856 129.110374 Z" style="fill:#e59526;"/>
		<path d="M 185.869425 128.113151 C 186.275918 124.609708 187.992547 118.290058 193.086868 120.31375 C 195.964488 121.460118 197.034822 125.6391 197.143025 128.478702 Q 197.145949 128.624922 197.014351 128.686335 Q 196.370981 128.984625 195.598936 128.955381 Q 189.767663 128.730201 187.243898 128.554736 Q 186.594679 128.507946 186.027343 128.350028 C 185.922065 128.320784 185.854803 128.221354 185.869425 128.113151 Z" style="fill:#f6c78c;"/>
		<path d="M 191.384862 139.173268 Q 193.279879 140.705659 194.879532 142.317009 C 194.961415 142.398892 194.981886 142.524642 194.932171 142.626996 Q 194.066546 144.407962 192.645283 145.966672 Q 190.311604 148.525531 186.816934 147.349918 Q 184.848806 146.686077 183.93639 145.335 Q 181.476962 141.691185 183.673193 137.965487 Q 183.948088 137.500506 184.880975 137.094013 Q 186.401668 136.433096 188.27329 137.137879 Q 189.38749 137.558994 191.384862 139.173268 Z M 185.445386 143.65054 C 186.659016 145.068878 188.823079 145.370092 190.165383 143.919585 C 191.288356 142.70888 190.411033 141.179413 189.533711 140.152945 C 188.653463 139.126478 187.281915 138.023975 185.910367 138.948089 C 184.269773 140.050591 184.23468 142.235125 185.445386 143.65054 Z" style="fill:#e59526;"/>
		<path d="M 296.894641 141.942684 C 298.672682 140.190963 300.49459 138.719985 302.518281 137.763703 C 304.743757 136.710915 306.507176 138.655648 306.741129 140.805089 C 307.074512 143.840626 305.202889 147.174453 301.895382 147.121814 Q 300.556002 147.098419 299.047007 146.05148 Q 297.608197 145.054256 296.716252 143.957603 Q 295.88572 142.934059 296.894641 141.942684 Z M 300.341409 144.377431 C 301.407005 145.305755 303.129483 145.071803 304.192126 143.855833 C 305.252604 142.638694 305.252604 140.89867 304.186306 139.969994 C 303.12071 139.04167 301.398232 139.275623 300.335589 140.491592 C 299.275111 141.708731 299.275111 143.448755 300.341409 144.377431 Z" style="fill:#e59526;"/>
		<path d="M 189.533711 140.152945 C 190.411033 141.179413 191.288356 142.70888 190.165383 143.919585 C 188.823079 145.370092 186.659016 145.068878 185.445386 143.65054 C 184.23468 142.235125 184.269773 140.050591 185.910367 138.948089 C 187.281915 138.023975 188.653463 139.126478 189.533711 140.152945 Z" style="fill:#f9f4e4;"/>
		<path d="M 300.341409 144.377431 C 299.275111 143.448755 299.275111 141.708731 300.335589 140.491592 C 301.398232 139.275623 303.12071 139.04167 304.186306 139.969994 C 305.252604 140.89867 305.252604 142.638694 304.192126 143.855833 C 303.129483 145.071803 301.407005 145.305755 300.341409 144.377431 Z" style="fill:#f9f4e4;"/>
	</g>
	<g id="surface4">
	</g>
</svg>
