<?xml version="1.0" encoding="utf-8"?>
<svg xmlns="http://www.w3.org/2000/svg" width="490pt" height="280pt" viewBox="0 0 490 280" version="1.1" xmlns:xlink="http://www.w3.org/1999/xlink">
	<g id="surface2">
		<path vector-effect="non-scaling-stroke" d="M 254.928059 129.88033 Q 254.10118 126.086413 253.67558 123.792228 Q 252.356221 116.688766 251.077395 110.189251 C 249.729663 103.328989 248.515691 96.495074 247.459798 91.110225 Q 247.435478 90.978492 247.569238 90.978492 L 252.137341 90.978492 C 252.295421 90.978492 252.445394 91.055505 252.536594 91.187238 Q 253.65734 92.79033 259.019896 100.339658 Q 259.295523 100.728778 259.295523 101.492831 Q 259.295523 103.890376 259.281336 113.494742 C 259.281336 113.675115 259.461709 113.798742 259.629923 113.733889 L 259.682616 113.713622 C 259.812322 113.662955 259.899469 113.539329 259.899469 113.399489 Q 259.899469 110.819544 259.911629 102.048137 Q 259.913656 100.359925 259.840696 97.996833 Q 259.723149 94.142116 259.769762 88.945747 C 259.775842 88.27492 259.607629 87.869587 259.279309 87.346708 C 257.937657 85.214656 255.927205 82.482711 253.80934 80.415513 Q 253.689767 80.299993 253.689767 80.13178 Q 253.683687 79.12858 253.677607 53.864172 C 253.677607 47.926043 253.21958 42.168287 250.704489 36.751011 Q 248.487317 31.980241 245.508119 27.874218 C 245.447319 27.789098 245.414893 27.687764 245.412866 27.584404 L 245.396653 21.944195 Q 245.394626 21.589529 245.062253 21.640195 Q 245.060226 21.640195 245.044013 21.640195 Q 244.685293 21.617902 244.683267 22.007022 L 244.654893 27.689791 Q 244.654893 27.789098 244.598147 27.870164 C 244.411694 28.139711 244.156334 28.40115 243.994201 28.636244 Q 241.598682 32.107921 239.602417 36.376078 Q 236.915059 42.119647 236.503646 48.394203 Q 236.323273 51.134254 236.327326 51.99356 Q 236.394206 63.636752 236.377993 80.079086 Q 236.377993 80.362819 236.16722 80.555353 Q 235.439647 81.216046 234.821514 81.959832 Q 232.342902 84.945109 230.64253 87.664894 Q 230.40541 88.045907 230.401357 88.587027 C 230.358797 96.908514 230.174371 105.288775 230.22909 113.429889 C 230.22909 113.545409 230.300024 113.650795 230.407437 113.695382 Q 230.64861 113.796715 230.810743 113.642689 C 230.857357 113.598102 230.883703 113.535275 230.883703 113.470422 Q 230.895863 104.492295 230.869517 101.211124 Q 230.865463 100.635551 231.011383 100.434912 Q 232.470582 98.402166 237.585885 91.114278 Q 237.685192 90.972412 237.857458 90.972412 L 242.632281 90.972412 C 242.707268 90.972412 242.761988 91.041318 242.745775 91.112252 Q 242.273562 93.27673 241.775002 95.913422 C 239.944923 105.582641 237.788552 117.412286 235.476127 128.840651 Q 235.366687 129.381771 235.239007 129.969504" style="fill:none;stroke-width:0.50;stroke:#8a8d86;"/>
		<path vector-effect="non-scaling-stroke" d="M 240.913669 10.785377 C 240.913669 10.682017 240.828549 10.596897 240.72519 10.596897 C 240.62183 10.596897 240.53671 10.682017 240.53671 10.785377 C 240.53671 10.888736 240.62183 10.973856 240.72519 10.973856 C 240.828549 10.973856 240.913669 10.888736 240.913669 10.785377" style="fill:none;stroke-width:0.50;stroke:#8a8d86;"/>
		<path vector-effect="non-scaling-stroke" d="M 218.664939 29.116563 L 221.783977 31.047975 Q 221.980563 31.169575 221.929896 30.942589 L 221.133417 27.446591 Q 221.11315 27.359445 221.188137 27.310805 L 225.142161 24.807873 C 225.178641 24.78558 225.172561 24.728833 225.132028 24.714646 Q 225.044881 24.684246 224.915174 24.674113 Q 223.472189 24.576833 220.604457 24.48766 C 220.531498 24.485633 220.464618 24.43902 220.438271 24.368087 L 218.796672 20.06345 Q 218.715605 19.85065 218.632512 20.061423 L 216.893633 24.412673 Q 216.863234 24.48766 216.78014 24.491713 L 212.558597 24.661953 Q 212.329583 24.672087 212.518063 24.801793 L 216.003927 27.207445 C 216.062701 27.247978 216.089047 27.320938 216.068781 27.389845 L 214.976408 31.062162 Q 214.952088 31.143228 215.025048 31.100669 L 218.466326 29.114537 Q 218.565632 29.055763 218.664939 29.116563" style="fill:none;stroke-width:0.50;stroke:#8a8d86;"/>
		<path vector-effect="non-scaling-stroke" d="M 269.467355 20.744409 C 269.467355 20.38569 269.177542 20.095876 268.818823 20.095876 C 268.460103 20.095876 268.17029 20.38569 268.17029 20.744409 C 268.17029 21.103129 268.460103 21.392942 268.818823 21.392942 C 269.177542 21.392942 269.467355 21.103129 269.467355 20.744409" style="fill:none;stroke-width:0.50;stroke:#8a8d86;"/>
		<path vector-effect="non-scaling-stroke" d="M 282.206973 29.55027 C 282.184679 29.491496 282.101586 29.491496 282.079293 29.55027 L 280.358654 33.854907 C 280.348521 33.879226 280.324201 33.89544 280.297854 33.897466 L 275.851351 34.075813 C 275.784471 34.07784 275.760151 34.16296 275.814871 34.201466 L 279.635135 36.836131 C 279.659455 36.852344 279.669588 36.884771 279.661481 36.913144 L 278.565055 40.601675 C 278.546815 40.662475 278.613695 40.713142 278.668415 40.680715 L 282.1482 38.47773 C 282.17252 38.463543 282.200893 38.463543 282.223186 38.479756 L 285.370597 40.650315 C 285.42329 40.686795 285.49017 40.640182 285.47801 40.579382 L 284.636944 36.892878 C 284.630864 36.864504 284.643024 36.836131 284.665318 36.819918 L 288.505848 34.209573 C 288.560568 34.171066 288.536248 34.085946 288.469368 34.08392 L 283.905318 33.88936 C 283.878972 33.887333 283.854652 33.87112 283.844518 33.844773 L 282.206973 29.55027" style="fill:none;stroke-width:0.50;stroke:#8a8d86;"/>
		<path vector-effect="non-scaling-stroke" d="M 199.575921 31.782398 C 199.703459 31.655975 199.689273 31.435068 199.541569 31.284791 C 199.395406 31.135122 199.172473 31.116882 199.044651 31.241765 C 198.917113 31.368188 198.9313 31.589095 199.079003 31.739372 C 199.225166 31.889041 199.448099 31.907281 199.575921 31.782398" style="fill:none;stroke-width:0.50;stroke:#8a8d86;"/>
		<path vector-effect="non-scaling-stroke" d="M 218.275819 55.305131 C 218.247446 55.398358 218.352832 55.473344 218.431872 55.418624 L 220.377471 54.097239 C 220.413951 54.072919 220.458538 54.072919 220.495018 54.097239 L 222.367656 55.390251 C 222.444669 55.442944 222.543976 55.378091 222.527763 55.286891 L 222.120403 53.010946 C 222.112296 52.970413 222.130536 52.929879 222.162963 52.905559 L 224.100455 51.59228 C 224.181522 51.535534 224.145042 51.407854 224.045735 51.401774 L 221.76371 51.304494 C 221.72115 51.304494 221.68467 51.278147 221.670483 51.239641 L 220.703764 48.704282 C 220.669311 48.617136 220.545684 48.615109 220.511231 48.702256 L 219.510058 51.205187 C 219.495872 51.243694 219.459392 51.270041 219.418858 51.270041 L 217.019287 51.365294 C 216.922007 51.369347 216.8835 51.492974 216.960513 51.551747 L 218.881792 53.031213 C 218.916245 53.057559 218.930432 53.100119 218.918272 53.142679 L 218.275819 55.305131" style="fill:none;stroke-width:0.50;stroke:#8a8d86;"/>
		<path vector-effect="non-scaling-stroke" d="M 304.601218 50.133203 C 304.593517 49.983108 304.467863 49.867588 304.317606 49.874236 L 304.236621 49.877904 C 304.08685 49.883802 303.97133 50.011481 303.977654 50.161515 L 303.985922 50.343733 C 303.993624 50.493828 304.119277 50.609348 304.269534 50.6027 L 304.350519 50.599032 C 304.50029 50.593134 304.61581 50.465454 304.609487 50.31542 L 304.601218 50.133203" style="fill:none;stroke-width:0.50;stroke:#8a8d86;"/>
		<path vector-effect="non-scaling-stroke" d="M 270.883994 53.537879 L 269.935515 51.049134 Q 269.888902 50.927534 269.840262 51.049134 L 268.883676 53.442626 C 268.841116 53.550039 268.739783 53.625026 268.626289 53.635159 L 266.512478 53.817559 Q 265.920691 53.868225 266.433438 54.168172 Q 267.42853 54.753878 268.162183 55.548331 Q 268.227036 55.619264 268.202716 55.702357 L 267.548103 57.903316 Q 267.48325 58.120169 267.669703 57.992489 L 269.645702 56.650837 C 269.722715 56.598143 269.826075 56.598143 269.903088 56.650837 L 271.793967 57.956009 Q 271.990554 58.089769 271.93786 57.858729 L 271.410927 55.550357 C 271.396741 55.491584 271.421061 55.430784 271.469701 55.394304 L 273.415299 54.016172 Q 273.697006 53.815532 273.350446 53.791212 L 271.003568 53.627052 Q 270.916421 53.620972 270.883994 53.537879" style="fill:none;stroke-width:0.50;stroke:#8a8d86;"/>
		<path vector-effect="non-scaling-stroke" d="M 301.499832 52.62134 C 301.606212 52.627906 301.701465 52.5286 301.709167 52.399298 C 301.717679 52.269186 301.636612 52.159747 301.530192 52.152126 C 301.423812 52.14556 301.328559 52.244867 301.320858 52.374168 C 301.312346 52.50428 301.393412 52.61372 301.499832 52.62134" style="fill:none;stroke-width:0.50;stroke:#8a8d86;"/>
		<path vector-effect="non-scaling-stroke" d="M 183.827051 53.82909 C 184.096111 53.793239 184.282564 53.521666 184.243895 53.222287 C 184.203524 52.921773 183.954244 52.708973 183.684211 52.744054 C 183.415151 52.779906 183.228698 53.051479 183.267367 53.350858 C 183.307738 53.651372 183.557018 53.864172 183.827051 53.82909" style="fill:none;stroke-width:0.50;stroke:#8a8d86;"/>
		<path vector-effect="non-scaling-stroke" d="M 291.262113 67.785335 C 291.243873 67.846135 291.310753 67.896802 291.365473 67.864375 L 294.77635 65.70395 C 294.80067 65.689763 294.829044 65.689763 294.851337 65.705977 L 297.931868 67.827895 C 297.984561 67.864375 298.053468 67.817762 298.039281 67.756962 L 297.196189 64.062351 C 297.190109 64.033978 297.202269 64.005605 297.224562 63.989391 L 300.718533 61.61414 C 300.773253 61.575633 300.748933 61.490513 300.682053 61.488486 L 296.549682 61.312167 C 296.523336 61.31014 296.499016 61.293927 296.488882 61.26758 L 294.912137 57.13521 C 294.889844 57.076436 294.80675 57.076436 294.784457 57.13521 L 293.130698 61.271633 C 293.120565 61.295953 293.096245 61.312167 293.069898 61.314193 L 288.793635 61.48646 C 288.726755 61.488486 288.702435 61.573606 288.757155 61.612113 L 292.318005 64.068431 C 292.342325 64.084645 292.352459 64.117071 292.344352 64.145445 L 291.262113 67.785335" style="fill:none;stroke-width:0.50;stroke:#8a8d86;"/>
		<path vector-effect="non-scaling-stroke" d="M 194.703676 64.599418 L 190.581439 64.765604 Q 190.368639 64.773711 190.542933 64.895311 L 193.864637 67.185442 Q 194.16661 67.394189 194.06933 67.746829 L 193.169491 71.04624 Q 193.078291 71.374559 193.366077 71.192159 L 196.497275 69.212108 Q 196.578342 69.161441 196.659408 69.212108 L 199.906126 71.309706 Q 200.094606 71.431306 200.043939 71.212426 L 199.2353 67.665762 Q 199.152206 67.294882 199.472419 67.092216 L 202.725217 65.033124 C 202.824524 64.970297 202.804257 64.820324 202.69279 64.783844 Q 202.559031 64.741284 202.469857 64.737231 Q 200.465485 64.672378 198.698233 64.627791 C 198.57866 64.625764 198.471247 64.550778 198.428687 64.437284 L 196.926928 60.499474 Q 196.750608 60.037394 196.566182 60.495421 L 195.015783 64.378511 C 194.963089 64.506191 194.841489 64.593338 194.703676 64.599418" style="fill:none;stroke-width:0.50;stroke:#8a8d86;"/>
		<path vector-effect="non-scaling-stroke" d="M 183.494191 71.425226 C 183.494191 71.074613 183.210458 70.79088 182.859845 70.79088 C 182.509232 70.79088 182.225499 71.074613 182.225499 71.425226 C 182.225499 71.775839 182.509232 72.059572 182.859845 72.059572 C 183.210458 72.059572 183.494191 71.775839 183.494191 71.425226" style="fill:none;stroke-width:0.50;stroke:#8a8d86;"/>
		<path vector-effect="non-scaling-stroke" d="M 213.537476 77.322822 C 213.464516 77.292422 213.407769 77.233648 213.377369 77.160688 L 212.747076 75.523143 C 212.65385 75.279943 212.31337 75.277916 212.21609 75.517063 L 211.555397 77.144475 C 211.524997 77.217435 211.466224 77.274182 211.393264 77.304582 L 209.755719 77.934875 C 209.512519 78.028101 209.510492 78.368581 209.749639 78.465861 L 211.377051 79.126554 C 211.450011 79.156954 211.506757 79.215727 211.537157 79.288687 L 212.16745 80.926232 C 212.260677 81.169432 212.601157 81.171459 212.698437 80.932312 L 213.359129 79.3049 C 213.389529 79.23194 213.448303 79.175194 213.521263 79.144794 L 215.158808 78.514501 C 215.402008 78.421274 215.404035 78.080794 215.164888 77.983515 L 213.537476 77.322822" style="fill:none;stroke-width:0.50;stroke:#8a8d86;"/>
		<path vector-effect="non-scaling-stroke" d="M 308.247594 78.814447 C 308.247594 78.445594 307.949674 78.147674 307.580821 78.147674 C 307.211968 78.147674 306.914048 78.445594 306.914048 78.814447 C 306.914048 79.1833 307.211968 79.48122 307.580821 79.48122 C 307.949674 79.48122 308.247594 79.1833 308.247594 78.814447" style="fill:none;stroke-width:0.50;stroke:#8a8d86;"/>
		<path vector-effect="non-scaling-stroke" d="M 286.011023 81.854445 C 285.984677 81.789592 285.893477 81.787565 285.86713 81.852418 L 284.744358 84.663403 C 284.734224 84.691776 284.705851 84.710016 284.675451 84.712043 L 282.034706 84.819456 C 281.961746 84.821483 281.933373 84.912683 281.99012 84.957269 L 284.199185 86.653588 C 284.225531 86.673855 284.235665 86.706282 284.227558 86.736682 L 283.534439 89.061267 C 283.514172 89.130173 283.593212 89.18692 283.651985 89.146386 L 285.850917 87.652734 C 285.877263 87.634494 285.913743 87.634494 285.938063 87.652734 L 287.978915 89.05924 C 288.035662 89.097746 288.112675 89.04708 288.096462 88.978173 L 287.555342 86.602922 C 287.547236 86.572522 287.561422 86.540095 287.585742 86.521855 L 289.867767 84.971456 C 289.928567 84.928896 289.902221 84.833643 289.827234 84.82959 L 287.152036 84.716096 C 287.121636 84.71407 287.093263 84.69583 287.083129 84.667456 L 286.011023 81.854445" style="fill:none;stroke-width:0.50;stroke:#8a8d86;"/>
		<path vector-effect="non-scaling-stroke" d="M 182.209285 102.218377 C 182.209285 101.869791 181.925552 101.586057 181.576966 101.586057 C 181.228379 101.586057 180.944646 101.869791 180.944646 102.218377 C 180.944646 102.566963 181.228379 102.850697 181.576966 102.850697 C 181.925552 102.850697 182.209285 102.566963 182.209285 102.218377" style="fill:none;stroke-width:0.50;stroke:#8a8d86;"/>
		<path vector-effect="non-scaling-stroke" d="M 308.721834 102.86083 C 308.738047 102.808137 308.703594 102.75139 308.648874 102.73923 Q 308.51106 102.710857 308.352981 102.798003 Q 308.251647 102.852723 308.273941 102.96419 Q 308.296234 103.09187 308.476607 103.15267 Q 308.6205 103.203336 308.665087 103.057416 L 308.721834 102.86083" style="fill:none;stroke-width:0.50;stroke:#8a8d86;"/>
		<path vector-effect="non-scaling-stroke" d="M 307.497404 104.288474 C 307.493674 104.230856 307.443008 104.188296 307.386241 104.193545 L 307.281179 104.201813 C 307.224128 104.206536 307.181568 104.255175 307.18625 104.312956 L 307.234586 104.927157 C 307.238315 104.984775 307.288981 105.027335 307.345748 105.022086 L 307.450811 105.013817 C 307.507861 105.009095 307.550421 104.960455 307.54574 104.902675 L 307.497404 104.288474" style="fill:none;stroke-width:0.50;stroke:#8a8d86;"/>
		<path vector-effect="non-scaling-stroke" d="M 306.936483 104.82481 C 306.903915 104.757788 306.808662 104.739548 306.72263 104.781967 C 306.638422 104.824668 306.595862 104.911815 306.628147 104.978553 C 306.660715 105.045575 306.755968 105.063815 306.842 105.021397 C 306.926208 104.978695 306.968768 104.891548 306.936483 104.82481" style="fill:none;stroke-width:0.50;stroke:#8a8d86;"/>
		<path vector-effect="non-scaling-stroke" d="M 208.468786 116.91778 C 208.44852 116.986686 208.523506 117.041406 208.58228 117.0029 L 210.596785 115.630847 C 210.623131 115.614634 210.655558 115.614634 210.681905 115.630847 L 212.540357 116.915753 C 212.595077 116.952233 212.668037 116.90562 212.655877 116.840766 L 212.250544 114.568875 C 212.24649 114.538475 212.25865 114.510101 212.28297 114.493888 L 214.267075 113.144129 C 214.325849 113.103596 214.299502 113.010369 214.226542 113.006316 L 211.837104 112.904983 C 211.80873 112.902956 211.782384 112.884716 211.770224 112.856343 L 210.795398 110.292611 C 210.771078 110.227758 210.679878 110.227758 210.655558 110.290584 L 209.636145 112.842156 C 209.623985 112.868503 209.599665 112.886743 209.569265 112.888769 L 207.112947 112.988076 C 207.039987 112.990102 207.013641 113.083329 207.072414 113.123862 L 209.121372 114.538475 C 209.147719 114.556715 209.159879 114.589141 209.149746 114.621568 L 208.468786 116.91778" style="fill:none;stroke-width:0.50;stroke:#8a8d86;"/>
		<path vector-effect="non-scaling-stroke" d="M 282.255613 112.783383 L 281.286867 110.239918 Q 281.173374 109.944025 281.070014 110.243971 L 280.218814 112.730689 C 280.198548 112.787436 280.147881 112.825943 280.087081 112.829996 L 277.685483 112.984022 Q 277.282176 113.010369 277.614549 113.239382 L 279.440575 114.497941 Q 279.633108 114.631701 279.576361 114.856661 L 279.069695 116.885353 Q 279.017002 117.10018 279.199402 116.976553 L 281.0538 115.715967 C 281.149054 115.651114 281.276733 115.655167 281.367933 115.726101 L 282.962919 116.950206 Q 283.171665 117.110313 283.125052 116.852926 L 282.733906 114.674261 C 282.723772 114.609408 282.750119 114.546581 282.802812 114.510101 L 284.770704 113.172502 C 284.815291 113.142102 284.803131 113.073196 284.750438 113.056982 Q 284.535611 112.996182 284.152571 112.975916 Q 283.226385 112.927276 282.385319 112.878636 Q 282.290066 112.872556 282.255613 112.783383" style="fill:none;stroke-width:0.50;stroke:#8a8d86;"/>
		<path vector-effect="non-scaling-stroke" d="M 199.263673 114.568875 Q 199.184633 114.603328 199.148153 114.639808 Q 199.067086 114.720875 199.121806 114.822208 Q 199.287993 115.128234 199.472419 115.049194 Q 199.654819 114.970154 199.543353 114.639808 Q 199.506873 114.528341 199.391353 114.534421 Q 199.340686 114.536448 199.263673 114.568875" style="fill:none;stroke-width:0.50;stroke:#8a8d86;"/>
		<path vector-effect="non-scaling-stroke" d="M 198.005114 116.37666 C 198.005114 116.281407 197.926074 116.202367 197.830821 116.202367 C 197.735567 116.202367 197.656527 116.281407 197.656527 116.37666 C 197.656527 116.471913 197.735567 116.550953 197.830821 116.550953 C 197.926074 116.550953 198.005114 116.471913 198.005114 116.37666" style="fill:none;stroke-width:0.50;stroke:#8a8d86;"/>
		<path vector-effect="non-scaling-stroke" d="M 249.60401 45.354205 C 249.60401 42.861407 247.581398 40.838795 245.0886 40.838795 C 242.595802 40.838795 240.57319 42.861407 240.57319 45.354205 C 240.57319 47.847003 242.595802 49.869615 245.0886 49.869615 C 247.581398 49.869615 249.60401 47.847003 249.60401 45.354205" style="fill:none;stroke-width:0.50;stroke:#8a8d86;"/>
		<path d="M 254.928059 129.88033 Q 254.10118 126.086413 253.67558 123.792228 Q 252.356221 116.688766 251.077395 110.189251 C 249.729663 103.328989 248.515691 96.495074 247.459798 91.110225 Q 247.435478 90.978492 247.569238 90.978492 L 252.137341 90.978492 C 252.295421 90.978492 252.445394 91.055505 252.536594 91.187238 Q 253.65734 92.79033 259.019896 100.339658 Q 259.295523 100.728778 259.295523 101.492831 Q 259.295523 103.890376 259.281336 113.494742 C 259.281336 113.675115 259.461709 113.798742 259.629923 113.733889 L 259.682616 113.713622 C 259.812322 113.662955 259.899469 113.539329 259.899469 113.399489 Q 259.899469 110.819544 259.911629 102.048137 Q 259.913656 100.359925 259.840696 97.996833 Q 259.723149 94.142116 259.769762 88.945747 C 259.775842 88.27492 259.607629 87.869587 259.279309 87.346708 C 257.937657 85.214656 255.927205 82.482711 253.80934 80.415513 Q 253.689767 80.299993 253.689767 80.13178 Q 253.683687 79.12858 253.677607 53.864172 C 253.677607 47.926043 253.21958 42.168287 250.704489 36.751011 Q 248.487317 31.980241 245.508119 27.874218 C 245.447319 27.789098 245.414893 27.687764 245.412866 27.584404 L 245.396653 21.944195 Q 245.394626 21.589529 245.062253 21.640195 Q 245.060226 21.640195 245.044013 21.640195 Q 244.685293 21.617902 244.683267 22.007022 L 244.654893 27.689791 Q 244.654893 27.789098 244.598147 27.870164 C 244.411694 28.139711 244.156334 28.40115 243.994201 28.636244 Q 241.598682 32.107921 239.602417 36.376078 Q 236.915059 42.119647 236.503646 48.394203 Q 236.323273 51.134254 236.327326 51.99356 Q 236.394206 63.636752 236.377993 80.079086 Q 236.377993 80.362819 236.16722 80.555353 Q 235.439647 81.216046 234.821514 81.959832 Q 232.342902 84.945109 230.64253 87.664894 Q 230.40541 88.045907 230.401357 88.587027 C 230.358797 96.908514 230.174371 105.288775 230.22909 113.429889 C 230.22909 113.545409 230.300024 113.650795 230.407437 113.695382 Q 230.64861 113.796715 230.810743 113.642689 C 230.857357 113.598102 230.883703 113.535275 230.883703 113.470422 Q 230.895863 104.492295 230.869517 101.211124 Q 230.865463 100.635551 231.011383 100.434912 Q 232.470582 98.402166 237.585885 91.114278 Q 237.685192 90.972412 237.857458 90.972412 L 242.632281 90.972412 C 242.707268 90.972412 242.761988 91.041318 242.745775 91.112252 Q 242.273562 93.27673 241.775002 95.913422 C 239.944923 105.582641 237.788552 117.412286 235.476127 128.840651 Q 235.366687 129.381771 235.239007 129.969504 Q 233.712928 129.335157 232.168609 128.919691 Q 230.421624 128.451531 228.976611 128.485985 C 223.453949 128.619744 218.668992 132.656862 217.635393 138.116698 C 217.611073 138.242351 217.477313 138.315311 217.359766 138.262618 C 216.080941 137.703258 215.310808 137.299952 214.317742 137.062832 Q 210.349532 136.114352 206.900147 137.599898 Q 202.925857 139.310403 200.939725 143.084054 Q 200.281059 144.33248 199.964899 146.014612 C 199.930446 146.197012 199.719673 146.282132 199.569699 146.174718 Q 189.4992 138.998297 182.195099 129.077771 Q 180.96694 127.409825 179.892807 125.7358 Q 172.582626 114.325675 169.589241 101.257738 Q 168.693455 97.352354 168.028709 92.028304 Q 167.783482 90.066492 167.676069 87.991187 Q 167.353829 81.716632 167.621349 77.083675 Q 168.932602 54.334358 182.377498 35.654585 Q 184.323097 32.951014 187.555628 29.473256 Q 197.946341 18.284038 211.383131 11.922336 Q 214.271129 10.554337 214.348142 10.519883 Q 217.720513 9.005965 221.698857 7.783885 Q 227.851812 5.893007 233.970314 4.922234 C 234.813407 4.788474 236.138846 4.666874 237.233245 4.492581 Q 238.019592 4.368955 238.538418 4.324368 Q 244.290094 3.844048 250.661929 4.214928 Q 252.293394 4.310181 254.498406 4.593914 Q 256.974991 4.910074 258.310563 5.169487 C 259.706936 5.439034 262.43888 5.943673 264.392586 6.428046 Q 281.961746 10.779297 295.672136 22.416408 C 301.492719 27.357418 306.605995 33.109094 310.701885 39.505249 Q 320.940598 55.493611 322.657183 74.487517 Q 323.32801 81.917272 322.624757 89.936786 Q 321.848544 98.821686 318.834893 107.919386 Q 311.893565 128.881184 295.078323 143.031361 C 294.036618 143.908907 292.982752 144.638506 291.760673 145.550506 Q 290.992566 146.124052 290.398754 146.448318 C 290.287287 146.511145 290.147447 146.452372 290.112994 146.328745 Q 289.981261 145.868692 289.703607 145.094506 Q 287.991075 140.331843 283.682385 138.090351 C 280.255294 136.308912 276.30127 136.416326 272.870126 138.187631 Q 272.69786 138.276804 272.574233 138.299097 C 272.452633 138.321391 272.337113 138.236271 272.322927 138.112644 C 272.262127 137.565445 272.243887 137.024325 272.07162 136.501445 C 271.216367 133.923527 269.177542 131.493556 266.828637 130.12961 C 263.172533 128.007692 259.214456 127.973238 255.434726 129.760757 C 255.274619 129.835744 255.112486 129.835744 254.928059 129.88033 Z M 240.913669 10.785377 C 240.913669 10.682017 240.828549 10.596897 240.72519 10.596897 C 240.62183 10.596897 240.53671 10.682017 240.53671 10.785377 C 240.53671 10.888736 240.62183 10.973856 240.72519 10.973856 C 240.828549 10.973856 240.913669 10.888736 240.913669 10.785377 Z M 218.664939 29.116563 L 221.783977 31.047975 Q 221.980563 31.169575 221.929896 30.942589 L 221.133417 27.446591 Q 221.11315 27.359445 221.188137 27.310805 L 225.142161 24.807873 C 225.178641 24.78558 225.172561 24.728833 225.132028 24.714646 Q 225.044881 24.684246 224.915174 24.674113 Q 223.472189 24.576833 220.604457 24.48766 C 220.531498 24.485633 220.464618 24.43902 220.438271 24.368087 L 218.796672 20.06345 Q 218.715605 19.85065 218.632512 20.061423 L 216.893633 24.412673 Q 216.863234 24.48766 216.78014 24.491713 L 212.558597 24.661953 Q 212.329583 24.672087 212.518063 24.801793 L 216.003927 27.207445 C 216.062701 27.247978 216.089047 27.320938 216.068781 27.389845 L 214.976408 31.062162 Q 214.952088 31.143228 215.025048 31.100669 L 218.466326 29.114537 Q 218.565632 29.055763 218.664939 29.116563 Z M 269.467355 20.744409 C 269.467355 20.38569 269.177542 20.095876 268.818823 20.095876 C 268.460103 20.095876 268.17029 20.38569 268.17029 20.744409 C 268.17029 21.103129 268.460103 21.392942 268.818823 21.392942 C 269.177542 21.392942 269.467355 21.103129 269.467355 20.744409 Z M 282.206973 29.55027 C 282.184679 29.491496 282.101586 29.491496 282.079293 29.55027 L 280.358654 33.854907 C 280.348521 33.879226 280.324201 33.89544 280.297854 33.897466 L 275.851351 34.075813 C 275.784471 34.07784 275.760151 34.16296 275.814871 34.201466 L 279.635135 36.836131 C 279.659455 36.852344 279.669588 36.884771 279.661481 36.913144 L 278.565055 40.601675 C 278.546815 40.662475 278.613695 40.713142 278.668415 40.680715 L 282.1482 38.47773 C 282.17252 38.463543 282.200893 38.463543 282.223186 38.479756 L 285.370597 40.650315 C 285.42329 40.686795 285.49017 40.640182 285.47801 40.579382 L 284.636944 36.892878 C 284.630864 36.864504 284.643024 36.836131 284.665318 36.819918 L 288.505848 34.209573 C 288.560568 34.171066 288.536248 34.085946 288.469368 34.08392 L 283.905318 33.88936 C 283.878972 33.887333 283.854652 33.87112 283.844518 33.844773 L 282.206973 29.55027 Z M 199.575921 31.782398 C 199.703459 31.655975 199.689273 31.435068 199.541569 31.284791 C 199.395406 31.135122 199.172473 31.116882 199.044651 31.241765 C 198.917113 31.368188 198.9313 31.589095 199.079003 31.739372 C 199.225166 31.889041 199.448099 31.907281 199.575921 31.782398 Z M 218.275819 55.305131 C 218.247446 55.398358 218.352832 55.473344 218.431872 55.418624 L 220.377471 54.097239 C 220.413951 54.072919 220.458538 54.072919 220.495018 54.097239 L 222.367656 55.390251 C 222.444669 55.442944 222.543976 55.378091 222.527763 55.286891 L 222.120403 53.010946 C 222.112296 52.970413 222.130536 52.929879 222.162963 52.905559 L 224.100455 51.59228 C 224.181522 51.535534 224.145042 51.407854 224.045735 51.401774 L 221.76371 51.304494 C 221.72115 51.304494 221.68467 51.278147 221.670483 51.239641 L 220.703764 48.704282 C 220.669311 48.617136 220.545684 48.615109 220.511231 48.702256 L 219.510058 51.205187 C 219.495872 51.243694 219.459392 51.270041 219.418858 51.270041 L 217.019287 51.365294 C 216.922007 51.369347 216.8835 51.492974 216.960513 51.551747 L 218.881792 53.031213 C 218.916245 53.057559 218.930432 53.100119 218.918272 53.142679 L 218.275819 55.305131 Z M 304.601218 50.133203 C 304.593517 49.983108 304.467863 49.867588 304.317606 49.874236 L 304.236621 49.877904 C 304.08685 49.883802 303.97133 50.011481 303.977654 50.161515 L 303.985922 50.343733 C 303.993624 50.493828 304.119277 50.609348 304.269534 50.6027 L 304.350519 50.599032 C 304.50029 50.593134 304.61581 50.465454 304.609487 50.31542 L 304.601218 50.133203 Z M 270.883994 53.537879 L 269.935515 51.049134 Q 269.888902 50.927534 269.840262 51.049134 L 268.883676 53.442626 C 268.841116 53.550039 268.739783 53.625026 268.626289 53.635159 L 266.512478 53.817559 Q 265.920691 53.868225 266.433438 54.168172 Q 267.42853 54.753878 268.162183 55.548331 Q 268.227036 55.619264 268.202716 55.702357 L 267.548103 57.903316 Q 267.48325 58.120169 267.669703 57.992489 L 269.645702 56.650837 C 269.722715 56.598143 269.826075 56.598143 269.903088 56.650837 L 271.793967 57.956009 Q 271.990554 58.089769 271.93786 57.858729 L 271.410927 55.550357 C 271.396741 55.491584 271.421061 55.430784 271.469701 55.394304 L 273.415299 54.016172 Q 273.697006 53.815532 273.350446 53.791212 L 271.003568 53.627052 Q 270.916421 53.620972 270.883994 53.537879 Z M 301.499832 52.62134 C 301.606212 52.627906 301.701465 52.5286 301.709167 52.399298 C 301.717679 52.269186 301.636612 52.159747 301.530192 52.152126 C 301.423812 52.14556 301.328559 52.244867 301.320858 52.374168 C 301.312346 52.50428 301.393412 52.61372 301.499832 52.62134 Z M 183.827051 53.82909 C 184.096111 53.793239 184.282564 53.521666 184.243895 53.222287 C 184.203524 52.921773 183.954244 52.708973 183.684211 52.744054 C 183.415151 52.779906 183.228698 53.051479 183.267367 53.350858 C 183.307738 53.651372 183.557018 53.864172 183.827051 53.82909 Z M 291.262113 67.785335 C 291.243873 67.846135 291.310753 67.896802 291.365473 67.864375 L 294.77635 65.70395 C 294.80067 65.689763 294.829044 65.689763 294.851337 65.705977 L 297.931868 67.827895 C 297.984561 67.864375 298.053468 67.817762 298.039281 67.756962 L 297.196189 64.062351 C 297.190109 64.033978 297.202269 64.005605 297.224562 63.989391 L 300.718533 61.61414 C 300.773253 61.575633 300.748933 61.490513 300.682053 61.488486 L 296.549682 61.312167 C 296.523336 61.31014 296.499016 61.293927 296.488882 61.26758 L 294.912137 57.13521 C 294.889844 57.076436 294.80675 57.076436 294.784457 57.13521 L 293.130698 61.271633 C 293.120565 61.295953 293.096245 61.312167 293.069898 61.314193 L 288.793635 61.48646 C 288.726755 61.488486 288.702435 61.573606 288.757155 61.612113 L 292.318005 64.068431 C 292.342325 64.084645 292.352459 64.117071 292.344352 64.145445 L 291.262113 67.785335 Z M 194.703676 64.599418 L 190.581439 64.765604 Q 190.368639 64.773711 190.542933 64.895311 L 193.864637 67.185442 Q 194.16661 67.394189 194.06933 67.746829 L 193.169491 71.04624 Q 193.078291 71.374559 193.366077 71.192159 L 196.497275 69.212108 Q 196.578342 69.161441 196.659408 69.212108 L 199.906126 71.309706 Q 200.094606 71.431306 200.043939 71.212426 L 199.2353 67.665762 Q 199.152206 67.294882 199.472419 67.092216 L 202.725217 65.033124 C 202.824524 64.970297 202.804257 64.820324 202.69279 64.783844 Q 202.559031 64.741284 202.469857 64.737231 Q 200.465485 64.672378 198.698233 64.627791 C 198.57866 64.625764 198.471247 64.550778 198.428687 64.437284 L 196.926928 60.499474 Q 196.750608 60.037394 196.566182 60.495421 L 195.015783 64.378511 C 194.963089 64.506191 194.841489 64.593338 194.703676 64.599418 Z M 183.494191 71.425226 C 183.494191 71.074613 183.210458 70.79088 182.859845 70.79088 C 182.509232 70.79088 182.225499 71.074613 182.225499 71.425226 C 182.225499 71.775839 182.509232 72.059572 182.859845 72.059572 C 183.210458 72.059572 183.494191 71.775839 183.494191 71.425226 Z M 213.537476 77.322822 C 213.464516 77.292422 213.407769 77.233648 213.377369 77.160688 L 212.747076 75.523143 C 212.65385 75.279943 212.31337 75.277916 212.21609 75.517063 L 211.555397 77.144475 C 211.524997 77.217435 211.466224 77.274182 211.393264 77.304582 L 209.755719 77.934875 C 209.512519 78.028101 209.510492 78.368581 209.749639 78.465861 L 211.377051 79.126554 C 211.450011 79.156954 211.506757 79.215727 211.537157 79.288687 L 212.16745 80.926232 C 212.260677 81.169432 212.601157 81.171459 212.698437 80.932312 L 213.359129 79.3049 C 213.389529 79.23194 213.448303 79.175194 213.521263 79.144794 L 215.158808 78.514501 C 215.402008 78.421274 215.404035 78.080794 215.164888 77.983515 L 213.537476 77.322822 Z M 308.247594 78.814447 C 308.247594 78.445594 307.949674 78.147674 307.580821 78.147674 C 307.211968 78.147674 306.914048 78.445594 306.914048 78.814447 C 306.914048 79.1833 307.211968 79.48122 307.580821 79.48122 C 307.949674 79.48122 308.247594 79.1833 308.247594 78.814447 Z M 286.011023 81.854445 C 285.984677 81.789592 285.893477 81.787565 285.86713 81.852418 L 284.744358 84.663403 C 284.734224 84.691776 284.705851 84.710016 284.675451 84.712043 L 282.034706 84.819456 C 281.961746 84.821483 281.933373 84.912683 281.99012 84.957269 L 284.199185 86.653588 C 284.225531 86.673855 284.235665 86.706282 284.227558 86.736682 L 283.534439 89.061267 C 283.514172 89.130173 283.593212 89.18692 283.651985 89.146386 L 285.850917 87.652734 C 285.877263 87.634494 285.913743 87.634494 285.938063 87.652734 L 287.978915 89.05924 C 288.035662 89.097746 288.112675 89.04708 288.096462 88.978173 L 287.555342 86.602922 C 287.547236 86.572522 287.561422 86.540095 287.585742 86.521855 L 289.867767 84.971456 C 289.928567 84.928896 289.902221 84.833643 289.827234 84.82959 L 287.152036 84.716096 C 287.121636 84.71407 287.093263 84.69583 287.083129 84.667456 L 286.011023 81.854445 Z M 182.209285 102.218377 C 182.209285 101.869791 181.925552 101.586057 181.576966 101.586057 C 181.228379 101.586057 180.944646 101.869791 180.944646 102.218377 C 180.944646 102.566963 181.228379 102.850697 181.576966 102.850697 C 181.925552 102.850697 182.209285 102.566963 182.209285 102.218377 Z M 308.721834 102.86083 C 308.738047 102.808137 308.703594 102.75139 308.648874 102.73923 Q 308.51106 102.710857 308.352981 102.798003 Q 308.251647 102.852723 308.273941 102.96419 Q 308.296234 103.09187 308.476607 103.15267 Q 308.6205 103.203336 308.665087 103.057416 L 308.721834 102.86083 Z M 307.497404 104.288474 C 307.493674 104.230856 307.443008 104.188296 307.386241 104.193545 L 307.281179 104.201813 C 307.224128 104.206536 307.181568 104.255175 307.18625 104.312956 L 307.234586 104.927157 C 307.238315 104.984775 307.288981 105.027335 307.345748 105.022086 L 307.450811 105.013817 C 307.507861 105.009095 307.550421 104.960455 307.54574 104.902675 L 307.497404 104.288474 Z M 306.936483 104.82481 C 306.903915 104.757788 306.808662 104.739548 306.72263 104.781967 C 306.638422 104.824668 306.595862 104.911815 306.628147 104.978553 C 306.660715 105.045575 306.755968 105.063815 306.842 105.021397 C 306.926208 104.978695 306.968768 104.891548 306.936483 104.82481 Z M 208.468786 116.91778 C 208.44852 116.986686 208.523506 117.041406 208.58228 117.0029 L 210.596785 115.630847 C 210.623131 115.614634 210.655558 115.614634 210.681905 115.630847 L 212.540357 116.915753 C 212.595077 116.952233 212.668037 116.90562 212.655877 116.840766 L 212.250544 114.568875 C 212.24649 114.538475 212.25865 114.510101 212.28297 114.493888 L 214.267075 113.144129 C 214.325849 113.103596 214.299502 113.010369 214.226542 113.006316 L 211.837104 112.904983 C 211.80873 112.902956 211.782384 112.884716 211.770224 112.856343 L 210.795398 110.292611 C 210.771078 110.227758 210.679878 110.227758 210.655558 110.290584 L 209.636145 112.842156 C 209.623985 112.868503 209.599665 112.886743 209.569265 112.888769 L 207.112947 112.988076 C 207.039987 112.990102 207.013641 113.083329 207.072414 113.123862 L 209.121372 114.538475 C 209.147719 114.556715 209.159879 114.589141 209.149746 114.621568 L 208.468786 116.91778 Z M 282.255613 112.783383 L 281.286867 110.239918 Q 281.173374 109.944025 281.070014 110.243971 L 280.218814 112.730689 C 280.198548 112.787436 280.147881 112.825943 280.087081 112.829996 L 277.685483 112.984022 Q 277.282176 113.010369 277.614549 113.239382 L 279.440575 114.497941 Q 279.633108 114.631701 279.576361 114.856661 L 279.069695 116.885353 Q 279.017002 117.10018 279.199402 116.976553 L 281.0538 115.715967 C 281.149054 115.651114 281.276733 115.655167 281.367933 115.726101 L 282.962919 116.950206 Q 283.171665 117.110313 283.125052 116.852926 L 282.733906 114.674261 C 282.723772 114.609408 282.750119 114.546581 282.802812 114.510101 L 284.770704 113.172502 C 284.815291 113.142102 284.803131 113.073196 284.750438 113.056982 Q 284.535611 112.996182 284.152571 112.975916 Q 283.226385 112.927276 282.385319 112.878636 Q 282.290066 112.872556 282.255613 112.783383 Z M 199.263673 114.568875 Q 199.184633 114.603328 199.148153 114.639808 Q 199.067086 114.720875 199.121806 114.822208 Q 199.287993 115.128234 199.472419 115.049194 Q 199.654819 114.970154 199.543353 114.639808 Q 199.506873 114.528341 199.391353 114.534421 Q 199.340686 114.536448 199.263673 114.568875 Z M 198.005114 116.37666 C 198.005114 116.281407 197.926074 116.202367 197.830821 116.202367 C 197.735567 116.202367 197.656527 116.281407 197.656527 116.37666 C 197.656527 116.471913 197.735567 116.550953 197.830821 116.550953 C 197.926074 116.550953 198.005114 116.471913 198.005114 116.37666 Z" style="fill:#172933;"/>
		<path d="M 254.928059 129.88033 Q 255.073979 130.605876 255.248272 131.325343 C 255.675899 133.082461 255.894779 134.914567 256.131898 136.708165 Q 256.533178 139.758296 256.537231 140.656109 C 256.559525 145.643732 253.647207 149.932156 248.89873 151.456208 C 245.25884 152.625594 241.300762 152.112847 238.232391 149.875409 C 235.60786 147.96021 233.994634 145.019519 233.743328 141.772802 Q 233.660235 140.700696 233.860875 138.540271 Q 234.075701 136.213659 234.260128 135.321926 C 234.545887 133.935687 234.705994 132.523102 235.0181 131.149023 Q 235.153887 130.547103 235.239007 129.969504 Q 235.366687 129.381771 235.476127 128.840651 C 237.788552 117.412286 239.944923 105.582641 241.775002 95.913422 Q 242.273562 93.27673 242.745775 91.112252 C 242.761988 91.041318 242.707268 90.972412 242.632281 90.972412 L 237.857458 90.972412 Q 237.685192 90.972412 237.585885 91.114278 Q 232.470582 98.402166 231.011383 100.434912 Q 230.865463 100.635551 230.869517 101.211124 Q 230.895863 104.492295 230.883703 113.470422 C 230.883703 113.535275 230.857357 113.598102 230.810743 113.642689 Q 230.64861 113.796715 230.407437 113.695382 C 230.300024 113.650795 230.22909 113.545409 230.22909 113.429889 C 230.174371 105.288775 230.358797 96.908514 230.401357 88.587027 Q 230.40541 88.045907 230.64253 87.664894 Q 232.342902 84.945109 234.821514 81.959832 Q 235.439647 81.216046 236.16722 80.555353 Q 236.377993 80.362819 236.377993 80.079086 Q 236.394206 63.636752 236.327326 51.99356 Q 236.323273 51.134254 236.503646 48.394203 Q 236.915059 42.119647 239.602417 36.376078 Q 241.598682 32.107921 243.994201 28.636244 C 244.156334 28.40115 244.411694 28.139711 244.598147 27.870164 Q 244.654893 27.789098 244.654893 27.689791 L 244.683267 22.007022 Q 244.685293 21.617902 245.044013 21.640195 Q 245.060226 21.640195 245.062253 21.640195 Q 245.394626 21.589529 245.396653 21.944195 L 245.412866 27.584404 C 245.414893 27.687764 245.447319 27.789098 245.508119 27.874218 Q 248.487317 31.980241 250.704489 36.751011 C 253.21958 42.168287 253.677607 47.926043 253.677607 53.864172 Q 253.683687 79.12858 253.689767 80.13178 Q 253.689767 80.299993 253.80934 80.415513 C 255.927205 82.482711 257.937657 85.214656 259.279309 87.346708 C 259.607629 87.869587 259.775842 88.27492 259.769762 88.945747 Q 259.723149 94.142116 259.840696 97.996833 Q 259.913656 100.359925 259.911629 102.048137 Q 259.899469 110.819544 259.899469 113.399489 C 259.899469 113.539329 259.812322 113.662955 259.682616 113.713622 L 259.629923 113.733889 C 259.461709 113.798742 259.281336 113.675115 259.281336 113.494742 Q 259.295523 103.890376 259.295523 101.492831 Q 259.295523 100.728778 259.019896 100.339658 Q 253.65734 92.79033 252.536594 91.187238 C 252.445394 91.055505 252.295421 90.978492 252.137341 90.978492 L 247.569238 90.978492 Q 247.435478 90.978492 247.459798 91.110225 C 248.515691 96.495074 249.729663 103.328989 251.077395 110.189251 Q 252.356221 116.688766 253.67558 123.792228 Q 254.10118 126.086413 254.928059 129.88033 Z M 249.60401 45.354205 C 249.60401 42.861407 247.581398 40.838795 245.0886 40.838795 C 242.595802 40.838795 240.57319 42.861407 240.57319 45.354205 C 240.57319 47.847003 242.595802 49.869615 245.0886 49.869615 C 247.581398 49.869615 249.60401 47.847003 249.60401 45.354205 Z" style="fill:#fcf0d8;"/>
		<path d="M 240.913669 10.785377 C 240.913669 10.888736 240.828549 10.973856 240.72519 10.973856 C 240.62183 10.973856 240.53671 10.888736 240.53671 10.785377 C 240.53671 10.682017 240.62183 10.596897 240.72519 10.596897 C 240.828549 10.596897 240.913669 10.682017 240.913669 10.785377 Z" style="fill:#fcf0d8;"/>
		<path d="M 218.466326 29.114537 L 215.025048 31.100669 Q 214.952088 31.143228 214.976408 31.062162 L 216.068781 27.389845 C 216.089047 27.320938 216.062701 27.247978 216.003927 27.207445 L 212.518063 24.801793 Q 212.329583 24.672087 212.558597 24.661953 L 216.78014 24.491713 Q 216.863234 24.48766 216.893633 24.412673 L 218.632512 20.061423 Q 218.715605 19.85065 218.796672 20.06345 L 220.438271 24.368087 C 220.464618 24.43902 220.531498 24.485633 220.604457 24.48766 Q 223.472189 24.576833 224.915174 24.674113 Q 225.044881 24.684246 225.132028 24.714646 C 225.172561 24.728833 225.178641 24.78558 225.142161 24.807873 L 221.188137 27.310805 Q 221.11315 27.359445 221.133417 27.446591 L 221.929896 30.942589 Q 221.980563 31.169575 221.783977 31.047975 L 218.664939 29.116563 Q 218.565632 29.055763 218.466326 29.114537 Z" style="fill:#fcf0d8;"/>
		<path d="M 269.467355 20.744409 C 269.467355 21.103129 269.177542 21.392942 268.818823 21.392942 C 268.460103 21.392942 268.17029 21.103129 268.17029 20.744409 C 268.17029 20.38569 268.460103 20.095876 268.818823 20.095876 C 269.177542 20.095876 269.467355 20.38569 269.467355 20.744409 Z" style="fill:#fcf0d8;"/>
		<path d="M 282.206973 29.55027 L 283.844518 33.844773 C 283.854652 33.87112 283.878972 33.887333 283.905318 33.88936 L 288.469368 34.08392 C 288.536248 34.085946 288.560568 34.171066 288.505848 34.209573 L 284.665318 36.819918 C 284.643024 36.836131 284.630864 36.864504 284.636944 36.892878 L 285.47801 40.579382 C 285.49017 40.640182 285.42329 40.686795 285.370597 40.650315 L 282.223186 38.479756 C 282.200893 38.463543 282.17252 38.463543 282.1482 38.47773 L 278.668415 40.680715 C 278.613695 40.713142 278.546815 40.662475 278.565055 40.601675 L 279.661481 36.913144 C 279.669588 36.884771 279.659455 36.852344 279.635135 36.836131 L 275.814871 34.201466 C 275.760151 34.16296 275.784471 34.07784 275.851351 34.075813 L 280.297854 33.897466 C 280.324201 33.89544 280.348521 33.879226 280.358654 33.854907 L 282.079293 29.55027 C 282.101586 29.491496 282.184679 29.491496 282.206973 29.55027 Z" style="fill:#fcf0d8;"/>
		<path d="M 199.575921 31.782398 C 199.448099 31.907281 199.225166 31.889041 199.079003 31.739372 C 198.9313 31.589095 198.917113 31.368188 199.044651 31.241765 C 199.172473 31.116882 199.395406 31.135122 199.541569 31.284791 C 199.689273 31.435068 199.703459 31.655975 199.575921 31.782398 Z" style="fill:#fcf0d8;"/>
		<path d="M 249.60401 45.354205 C 249.60401 47.847003 247.581398 49.869615 245.0886 49.869615 C 242.595802 49.869615 240.57319 47.847003 240.57319 45.354205 C 240.57319 42.861407 242.595802 40.838795 245.0886 40.838795 C 247.581398 40.838795 249.60401 42.861407 249.60401 45.354205 Z" style="fill:#172933;"/>
		<path d="M 218.275819 55.305131 L 218.918272 53.142679 C 218.930432 53.100119 218.916245 53.057559 218.881792 53.031213 L 216.960513 51.551747 C 216.8835 51.492974 216.922007 51.369347 217.019287 51.365294 L 219.418858 51.270041 C 219.459392 51.270041 219.495872 51.243694 219.510058 51.205187 L 220.511231 48.702256 C 220.545684 48.615109 220.669311 48.617136 220.703764 48.704282 L 221.670483 51.239641 C 221.68467 51.278147 221.72115 51.304494 221.76371 51.304494 L 224.045735 51.401774 C 224.145042 51.407854 224.181522 51.535534 224.100455 51.59228 L 222.162963 52.905559 C 222.130536 52.929879 222.112296 52.970413 222.120403 53.010946 L 222.527763 55.286891 C 222.543976 55.378091 222.444669 55.442944 222.367656 55.390251 L 220.495018 54.097239 C 220.458538 54.072919 220.413951 54.072919 220.377471 54.097239 L 218.431872 55.418624 C 218.352832 55.473344 218.247446 55.398358 218.275819 55.305131 Z" style="fill:#fcf0d8;"/>
		<path d="M 304.609487 50.31542 C 304.61581 50.465454 304.50029 50.593134 304.350519 50.599032 L 304.269534 50.6027 C 304.119277 50.609348 303.993624 50.493828 303.985922 50.343733 L 303.977654 50.161515 C 303.97133 50.011481 304.08685 49.883802 304.236621 49.877904 L 304.317606 49.874236 C 304.467863 49.867588 304.593517 49.983108 304.601218 50.133203 L 304.609487 50.31542 Z" style="fill:#fcf0d8;"/>
		<path d="M 271.003568 53.627052 L 273.350446 53.791212 Q 273.697006 53.815532 273.415299 54.016172 L 271.469701 55.394304 C 271.421061 55.430784 271.396741 55.491584 271.410927 55.550357 L 271.93786 57.858729 Q 271.990554 58.089769 271.793967 57.956009 L 269.903088 56.650837 C 269.826075 56.598143 269.722715 56.598143 269.645702 56.650837 L 267.669703 57.992489 Q 267.48325 58.120169 267.548103 57.903316 L 268.202716 55.702357 Q 268.227036 55.619264 268.162183 55.548331 Q 267.42853 54.753878 266.433438 54.168172 Q 265.920691 53.868225 266.512478 53.817559 L 268.626289 53.635159 C 268.739783 53.625026 268.841116 53.550039 268.883676 53.442626 L 269.840262 51.049134 Q 269.888902 50.927534 269.935515 51.049134 L 270.883994 53.537879 Q 270.916421 53.620972 271.003568 53.627052 Z" style="fill:#fcf0d8;"/>
		<path d="M 301.499832 52.62134 C 301.393412 52.61372 301.312346 52.50428 301.320858 52.374168 C 301.328559 52.244867 301.423812 52.14556 301.530192 52.152126 C 301.636612 52.159747 301.717679 52.269186 301.709167 52.399298 C 301.701465 52.5286 301.606212 52.627906 301.499832 52.62134 Z" style="fill:#fcf0d8;"/>
		<path d="M 183.827051 53.82909 C 183.557018 53.864172 183.307738 53.651372 183.267367 53.350858 C 183.228698 53.051479 183.415151 52.779906 183.684211 52.744054 C 183.954244 52.708973 184.203524 52.921773 184.243895 53.222287 C 184.282564 53.521666 184.096111 53.793239 183.827051 53.82909 Z" style="fill:#fcf0d8;"/>
		<path d="M 291.262113 67.785335 L 292.344352 64.145445 C 292.352459 64.117071 292.342325 64.084645 292.318005 64.068431 L 288.757155 61.612113 C 288.702435 61.573606 288.726755 61.488486 288.793635 61.48646 L 293.069898 61.314193 C 293.096245 61.312167 293.120565 61.295953 293.130698 61.271633 L 294.784457 57.13521 C 294.80675 57.076436 294.889844 57.076436 294.912137 57.13521 L 296.488882 61.26758 C 296.499016 61.293927 296.523336 61.31014 296.549682 61.312167 L 300.682053 61.488486 C 300.748933 61.490513 300.773253 61.575633 300.718533 61.61414 L 297.224562 63.989391 C 297.202269 64.005605 297.190109 64.033978 297.196189 64.062351 L 298.039281 67.756962 C 298.053468 67.817762 297.984561 67.864375 297.931868 67.827895 L 294.851337 65.705977 C 294.829044 65.689763 294.80067 65.689763 294.77635 65.70395 L 291.365473 67.864375 C 291.310753 67.896802 291.243873 67.846135 291.262113 67.785335 Z" style="fill:#fcf0d8;"/>
		<path d="M 194.703676 64.599418 C 194.841489 64.593338 194.963089 64.506191 195.015783 64.378511 L 196.566182 60.495421 Q 196.750608 60.037394 196.926928 60.499474 L 198.428687 64.437284 C 198.471247 64.550778 198.57866 64.625764 198.698233 64.627791 Q 200.465485 64.672378 202.469857 64.737231 Q 202.559031 64.741284 202.69279 64.783844 C 202.804257 64.820324 202.824524 64.970297 202.725217 65.033124 L 199.472419 67.092216 Q 199.152206 67.294882 199.2353 67.665762 L 200.043939 71.212426 Q 200.094606 71.431306 199.906126 71.309706 L 196.659408 69.212108 Q 196.578342 69.161441 196.497275 69.212108 L 193.366077 71.192159 Q 193.078291 71.374559 193.169491 71.04624 L 194.06933 67.746829 Q 194.16661 67.394189 193.864637 67.185442 L 190.542933 64.895311 Q 190.368639 64.773711 190.581439 64.765604 L 194.703676 64.599418 Z" style="fill:#fcf0d8;"/>
		<path d="M 183.494191 71.425226 C 183.494191 71.775839 183.210458 72.059572 182.859845 72.059572 C 182.509232 72.059572 182.225499 71.775839 182.225499 71.425226 C 182.225499 71.074613 182.509232 70.79088 182.859845 70.79088 C 183.210458 70.79088 183.494191 71.074613 183.494191 71.425226 Z" style="fill:#fcf0d8;"/>
		<path d="M 213.537476 77.322822 L 215.164888 77.983515 C 215.404035 78.080794 215.402008 78.421274 215.158808 78.514501 L 213.521263 79.144794 C 213.448303 79.175194 213.389529 79.23194 213.359129 79.3049 L 212.698437 80.932312 C 212.601157 81.171459 212.260677 81.169432 212.16745 80.926232 L 211.537157 79.288687 C 211.506757 79.215727 211.450011 79.156954 211.377051 79.126554 L 209.749639 78.465861 C 209.510492 78.368581 209.512519 78.028101 209.755719 77.934875 L 211.393264 77.304582 C 211.466224 77.274182 211.524997 77.217435 211.555397 77.144475 L 212.21609 75.517063 C 212.31337 75.277916 212.65385 75.279943 212.747076 75.523143 L 213.377369 77.160688 C 213.407769 77.233648 213.464516 77.292422 213.537476 77.322822 Z" style="fill:#fcf0d8;"/>
		<path d="M 308.247594 78.814447 C 308.247594 79.1833 307.949674 79.48122 307.580821 79.48122 C 307.211968 79.48122 306.914048 79.1833 306.914048 78.814447 C 306.914048 78.445594 307.211968 78.147674 307.580821 78.147674 C 307.949674 78.147674 308.247594 78.445594 308.247594 78.814447 Z" style="fill:#fcf0d8;"/>
		<path d="M 286.011023 81.854445 L 287.083129 84.667456 C 287.093263 84.69583 287.121636 84.71407 287.152036 84.716096 L 289.827234 84.82959 C 289.902221 84.833643 289.928567 84.928896 289.867767 84.971456 L 287.585742 86.521855 C 287.561422 86.540095 287.547236 86.572522 287.555342 86.602922 L 288.096462 88.978173 C 288.112675 89.04708 288.035662 89.097746 287.978915 89.05924 L 285.938063 87.652734 C 285.913743 87.634494 285.877263 87.634494 285.850917 87.652734 L 283.651985 89.146386 C 283.593212 89.18692 283.514172 89.130173 283.534439 89.061267 L 284.227558 86.736682 C 284.235665 86.706282 284.225531 86.673855 284.199185 86.653588 L 281.99012 84.957269 C 281.933373 84.912683 281.961746 84.821483 282.034706 84.819456 L 284.675451 84.712043 C 284.705851 84.710016 284.734224 84.691776 284.744358 84.663403 L 285.86713 81.852418 C 285.893477 81.787565 285.984677 81.789592 286.011023 81.854445 Z" style="fill:#fcf0d8;"/>
		<path d="M 182.209285 102.218377 C 182.209285 102.566963 181.925552 102.850697 181.576966 102.850697 C 181.228379 102.850697 180.944646 102.566963 180.944646 102.218377 C 180.944646 101.869791 181.228379 101.586057 181.576966 101.586057 C 181.925552 101.586057 182.209285 101.869791 182.209285 102.218377 Z" style="fill:#fcf0d8;"/>
		<path d="M 308.721834 102.86083 L 308.665087 103.057416 Q 308.6205 103.203336 308.476607 103.15267 Q 308.296234 103.09187 308.273941 102.96419 Q 308.251647 102.852723 308.352981 102.798003 Q 308.51106 102.710857 308.648874 102.73923 C 308.703594 102.75139 308.738047 102.808137 308.721834 102.86083 Z" style="fill:#fcf0d8;"/>
		<path d="M 307.54574 104.902675 C 307.550421 104.960455 307.507861 105.009095 307.450811 105.013817 L 307.345748 105.022086 C 307.288981 105.027335 307.238315 104.984775 307.234586 104.927157 L 307.18625 104.312956 C 307.181568 104.255175 307.224128 104.206536 307.281179 104.201813 L 307.386241 104.193545 C 307.443008 104.188296 307.493674 104.230856 307.497404 104.288474 L 307.54574 104.902675 Z" style="fill:#fcf0d8;"/>
		<path d="M 306.936483 104.82481 C 306.968768 104.891548 306.926208 104.978695 306.842 105.021397 C 306.755968 105.063815 306.660715 105.045575 306.628147 104.978553 C 306.595862 104.911815 306.638422 104.824668 306.72263 104.781967 C 306.808662 104.739548 306.903915 104.757788 306.936483 104.82481 Z" style="fill:#fcf0d8;"/>
		<path d="M 208.468786 116.91778 L 209.149746 114.621568 C 209.159879 114.589141 209.147719 114.556715 209.121372 114.538475 L 207.072414 113.123862 C 207.013641 113.083329 207.039987 112.990102 207.112947 112.988076 L 209.569265 112.888769 C 209.599665 112.886743 209.623985 112.868503 209.636145 112.842156 L 210.655558 110.290584 C 210.679878 110.227758 210.771078 110.227758 210.795398 110.292611 L 211.770224 112.856343 C 211.782384 112.884716 211.80873 112.902956 211.837104 112.904983 L 214.226542 113.006316 C 214.299502 113.010369 214.325849 113.103596 214.267075 113.144129 L 212.28297 114.493888 C 212.25865 114.510101 212.24649 114.538475 212.250544 114.568875 L 212.655877 116.840766 C 212.668037 116.90562 212.595077 116.952233 212.540357 116.915753 L 210.681905 115.630847 C 210.655558 115.614634 210.623131 115.614634 210.596785 115.630847 L 208.58228 117.0029 C 208.523506 117.041406 208.44852 116.986686 208.468786 116.91778 Z" style="fill:#fcf0d8;"/>
		<path d="M 282.385319 112.878636 Q 283.226385 112.927276 284.152571 112.975916 Q 284.535611 112.996182 284.750438 113.056982 C 284.803131 113.073196 284.815291 113.142102 284.770704 113.172502 L 282.802812 114.510101 C 282.750119 114.546581 282.723772 114.609408 282.733906 114.674261 L 283.125052 116.852926 Q 283.171665 117.110313 282.962919 116.950206 L 281.367933 115.726101 C 281.276733 115.655167 281.149054 115.651114 281.0538 115.715967 L 279.199402 116.976553 Q 279.017002 117.10018 279.069695 116.885353 L 279.576361 114.856661 Q 279.633108 114.631701 279.440575 114.497941 L 277.614549 113.239382 Q 277.282176 113.010369 277.685483 112.984022 L 280.087081 112.829996 C 280.147881 112.825943 280.198548 112.787436 280.218814 112.730689 L 281.070014 110.243971 Q 281.173374 109.944025 281.286867 110.239918 L 282.255613 112.783383 Q 282.290066 112.872556 282.385319 112.878636 Z" style="fill:#fcf0d8;"/>
		<path d="M 199.472419 115.049194 Q 199.287993 115.128234 199.121806 114.822208 Q 199.067086 114.720875 199.148153 114.639808 Q 199.184633 114.603328 199.263673 114.568875 Q 199.340686 114.536448 199.391353 114.534421 Q 199.506873 114.528341 199.543353 114.639808 Q 199.654819 114.970154 199.472419 115.049194 Z" style="fill:#fcf0d8;"/>
		<path d="M 198.005114 116.37666 C 198.005114 116.471913 197.926074 116.550953 197.830821 116.550953 C 197.735567 116.550953 197.656527 116.471913 197.656527 116.37666 C 197.656527 116.281407 197.735567 116.202367 197.830821 116.202367 C 197.926074 116.202367 198.005114 116.281407 198.005114 116.37666 Z" style="fill:#fcf0d8;"/>
	</g>
	<g id="surface4">
	</g>
</svg>
