<?xml version="1.0" encoding="utf-8"?>
<svg xmlns="http://www.w3.org/2000/svg" width="490pt" height="280pt" viewBox="0 0 490 280" version="1.1" xmlns:xlink="http://www.w3.org/1999/xlink">
	<g id="surface2">
		<path vector-effect="non-scaling-stroke" d="M 275.006689 42.881805 Q 274.875163 43.017644 274.974347 43.32382 Q 275.177027 43.957733 276.011464 46.478293 Q 276.453478 47.815117 276.42976 48.51156 Q 276.390949 49.669422 275.789378 50.555607 Q 275.235243 51.370638 274.305935 51.167959 C 273.070451 50.900594 272.710371 49.281312 272.473192 48.229102 Q 271.871621 45.566234 271.524478 43.25051 C 271.515854 43.181513 271.479199 43.118984 271.423138 43.07586 L 271.326111 42.998238" style="fill:none;stroke-width:0.50;stroke:#137561;"/>
		<path vector-effect="non-scaling-stroke" d="M 270.871159 42.914148 L 265.454865 42.96374" style="fill:none;stroke-width:0.50;stroke:#137561;"/>
		<path vector-effect="non-scaling-stroke" d="M 240.229856 43.502782 Q 240.053051 43.645089 240.037957 43.780927 Q 239.626129 47.237264 238.698977 50.348615 C 238.537265 50.898438 237.940006 51.737187 237.219846 51.782467 C 234.893341 51.92693 234.602258 48.856547 234.873935 47.163955 Q 235.08524 45.848692 235.518629 43.849925 C 235.544503 43.722711 235.492755 43.571779 235.542347 43.42516" style="fill:none;stroke-width:0.50;stroke:#137561;"/>
		<path vector-effect="non-scaling-stroke" d="M 223.222004 43.504938 L 219.185657 43.520031" style="fill:none;stroke-width:0.50;stroke:#137561;"/>
		<path vector-effect="non-scaling-stroke" d="M 199.376942 152.305173 Q 199.185043 151.567764 199.189355 150.366778 Q 199.288539 118.429618 199.318726 86.490302 Q 199.325194 79.672499 199.366161 72.85254 Q 199.454564 58.231565 199.504156 43.597653" style="fill:none;stroke-width:0.50;stroke:#137561;"/>
		<path d="M 275.006689 42.881805 Q 274.875163 43.017644 274.974347 43.32382 Q 275.177027 43.957733 276.011464 46.478293 Q 276.453478 47.815117 276.42976 48.51156 Q 276.390949 49.669422 275.789378 50.555607 Q 275.235243 51.370638 274.305935 51.167959 C 273.070451 50.900594 272.710371 49.281312 272.473192 48.229102 Q 271.871621 45.566234 271.524478 43.25051 C 271.515854 43.181513 271.479199 43.118984 271.423138 43.07586 L 271.326111 42.998238 C 271.367078 42.899055 271.408045 42.806339 271.395108 42.696375 C 271.254957 41.305646 271.27005 40.238343 271.073839 39.033045 C 270.916439 38.077863 271.009154 36.894127 270.88194 35.910914 C 270.726696 34.696992 270.806474 33.42054 270.692197 32.206618 C 270.582233 31.020725 270.590858 29.739961 270.457175 28.437636 C 270.357991 27.486766 270.414052 26.732107 270.237246 25.845922 Q 270.222153 25.774769 270.135906 24.769994 Q 269.984974 23.029967 269.16563 20.630152 Q 268.555435 18.840532 267.992675 17.544675 Q 266.222461 13.467362 262.794154 10.696686 C 261.84544 9.92909 260.364153 9.004094 259.314099 8.700074 Q 257.722847 8.236498 257.058747 8.25806 Q 255.644301 8.301183 254.283759 8.525425 Q 253.77706 8.607359 254.203981 8.89413 Q 260.547427 13.135312 262.783373 20.198918 Q 263.039957 21.01395 263.514314 23.487074 Q 263.911049 25.559152 264.361688 26.721326 Q 265.523863 29.707619 265.61011 29.918923 Q 267.367386 34.15795 269.088008 38.381883 Q 269.622738 39.699301 270.459331 41.986995 Q 270.614575 42.409604 270.871159 42.914148 L 265.454865 42.96374 Q 265.392337 42.508788 265.262966 42.109897 Q 264.199976 38.828209 261.927375 32.635695 Q 260.484898 28.702845 260.049352 26.89382 Q 259.508154 24.657874 258.962644 22.344305 Q 258.292075 19.508944 257.768127 18.208775 Q 256.310557 14.590725 253.626128 11.710085 Q 252.787379 10.808807 251.924911 9.842843 C 251.761043 9.657413 251.489366 9.607821 251.269436 9.722098 Q 246.172255 12.352623 242.672795 16.917231 Q 241.659396 18.241118 241.303628 19.593035 Q 241.068606 20.492157 241.068606 22.529736 Q 241.072918 29.041363 240.842208 35.195066 Q 240.786148 36.70654 240.7344 37.204615 C 240.63306 38.19214 240.654622 39.212007 240.492909 40.225406 C 240.376476 40.947723 240.378632 41.573011 240.264355 42.362169 Q 240.180265 42.937866 240.229856 43.502782 Q 240.053051 43.645089 240.037957 43.780927 Q 239.626129 47.237264 238.698977 50.348615 C 238.537265 50.898438 237.940006 51.737187 237.219846 51.782467 C 234.893341 51.92693 234.602258 48.856547 234.873935 47.163955 Q 235.08524 45.848692 235.518629 43.849925 C 235.544503 43.722711 235.492755 43.571779 235.542347 43.42516 Q 236.016704 40.208157 236.061984 39.378032 Q 236.096482 38.744119 236.152543 38.297792 Q 236.260351 37.420232 236.273288 37.219708 Q 236.309943 36.635387 236.65493 32.907372 Q 236.782144 31.536049 236.978355 29.302259 Q 237.42037 24.319355 238.806786 20.037206 Q 239.602412 17.58133 240.499377 16.350158 Q 241.17857 15.416538 241.566681 15.000397 Q 244.731935 11.61737 248.289612 9.558229 Q 248.293925 9.558229 249.908894 8.546987 C 249.997297 8.490926 249.992985 8.361556 249.90027 8.311964 C 248.153774 7.389124 246.637988 6.746586 244.552973 6.298103 Q 243.017782 5.970366 241.84267 6.203232 C 239.410513 6.684057 237.696359 8.449959 236.271132 10.53713 Q 236.061984 10.845462 235.083084 12.533741 C 233.657856 14.991773 232.476276 17.538207 230.48829 21.602584 Q 228.668484 25.326286 227.417906 28.765374 Q 226.109112 32.361862 224.819724 37.284393 Q 224.763664 37.497854 224.74857 37.560383 Q 223.920602 40.721325 223.187505 43.282852 C 223.174568 43.330288 223.17888 43.37988 223.19613 43.42516 Q 223.209067 43.459658 223.222004 43.504938 L 219.185657 43.520031 Q 219.3754 42.985301 219.537113 42.452728 Q 219.744105 41.771379 219.884256 41.381112 Q 222.396191 34.392972 225.238021 27.67004 C 225.294081 27.534202 225.287612 27.361708 225.376015 27.212933 C 225.639068 26.766606 225.826654 26.177972 225.988367 25.817892 Q 226.525253 24.623375 227.023328 23.415921 C 227.120355 23.180899 227.344597 22.87041 227.448093 22.562078 Q 227.536496 22.29687 227.579619 22.201998 Q 230.740561 15.37557 231.361538 14.284549 Q 232.053668 13.072783 232.646614 12.068009 Q 233.077847 11.339224 234.29177 10.041211 Q 235.009774 9.271459 237.452712 7.061387 Q 239.033183 5.634004 240.865926 4.825441 Q 241.340283 4.616292 241.676645 4.568857 C 242.07338 4.512796 242.338589 4.355396 242.787072 4.331678 Q 244.956177 4.20662 247.185654 4.890126 Q 248.164555 5.191989 249.527253 5.840996 Q 250.34444 6.229106 252.08878 7.272691 C 252.248337 7.367563 252.442392 7.384812 252.614885 7.315815 C 255.603334 6.123454 258.436539 6.149328 261.418519 7.399905 C 264.626897 8.74751 267.602409 11.214166 268.902578 14.485073 C 269.398497 15.729182 269.87501 17.499396 270.166092 18.963434 Q 270.713759 21.727641 271.533103 25.220633 Q 271.880246 26.706233 272.117424 27.969748 Q 272.512003 30.091417 272.632749 30.718862 Q 272.637061 30.733955 272.805242 31.674044 Q 273.242944 34.11267 273.641835 36.516797 Q 274.208907 39.932167 274.752262 42.554068 Q 274.782448 42.698531 275.006689 42.881805 Z" style="fill:#044334;"/>
		<path d="M 199.376942 152.305173 Q 199.185043 151.567764 199.189355 150.366778 Q 199.288539 118.429618 199.318726 86.490302 Q 199.325194 79.672499 199.366161 72.85254 Q 199.454564 58.231565 199.504156 43.597653 L 219.185657 43.520031 L 223.222004 43.504938 Q 223.239253 43.463971 223.329812 43.489845 Q 223.394497 43.507094 223.435464 43.507094 Q 228.329965 43.418691 233.224467 43.451034 Q 234.151619 43.457502 235.236171 43.573935 Q 235.341824 43.584716 235.404353 43.543749 Q 235.471194 43.500625 235.542347 43.42516 C 235.492755 43.571779 235.544503 43.722711 235.518629 43.849925 Q 235.08524 45.848692 234.873935 47.163955 C 234.602258 48.856547 234.893341 51.92693 237.219846 51.782467 C 237.940006 51.737187 238.537265 50.898438 238.698977 50.348615 Q 239.626129 47.237264 240.037957 43.780927 Q 240.053051 43.645089 240.229856 43.502782 Q 240.714994 43.362631 240.932767 43.358318 Q 253.192738 43.136233 265.454865 42.96374 L 270.871159 42.914148 L 271.326111 42.998238 L 271.423138 43.07586 C 271.479199 43.118984 271.515854 43.181513 271.524478 43.25051 Q 271.871621 45.566234 272.473192 48.229102 C 272.710371 49.281312 273.070451 50.900594 274.305935 51.167959 Q 275.235243 51.370638 275.789378 50.555607 Q 276.390949 49.669422 276.42976 48.51156 Q 276.453478 47.815117 276.011464 46.478293 Q 275.177027 43.957733 274.974347 43.32382 Q 274.875163 43.017644 275.006689 42.881805 Q 275.578074 42.730873 275.75488 42.728717 Q 283.976348 42.644627 303.10587 42.523881 Q 305.203822 42.510944 306.23447 42.478602 C 306.314248 42.476446 306.38109 42.534662 306.387558 42.612284 Q 306.540646 44.132383 306.691578 46.193679 Q 307.773974 61.038896 308.49629 71.729176 Q 309.128047 81.091258 309.617498 87.352769 Q 310.087542 93.368478 310.51662 99.047824 Q 311.926754 117.71377 312.053967 119.481828 Q 312.567135 126.644618 313.679718 141.79601 C 313.783214 143.227706 313.957864 144.622747 313.977269 146.300245 C 313.979425 146.429615 313.880242 146.537424 313.750872 146.550361 C 310.458403 146.845756 306.974036 146.886723 305.08092 147.013937 Q 303.873466 147.093715 303.032561 147.104496 C 302.116189 147.115277 301.171788 147.236022 300.29854 147.28777 Q 294.554508 147.61982 291.816175 147.684505 Q 291.462563 147.690974 289.420672 147.852686 Q 288.236936 147.947558 287.012233 147.977744 C 285.787529 148.010086 284.291149 148.135144 283.288531 148.189048 Q 248.554821 150.00023 242.657702 150.306405 C 241.75858 150.353841 240.771055 150.304249 239.927993 150.401277 C 238.200902 150.6018 236.659242 150.478899 234.904122 150.692359 C 233.951095 150.808792 232.80617 150.759201 231.874706 150.836823 C 229.979434 150.994223 227.972042 150.912289 226.182422 151.127905 C 225.076308 151.261588 223.894728 151.162404 222.478126 151.29393 Q 220.981745 151.431925 219.478896 151.4233 C 218.741487 151.418988 217.913518 151.520328 217.124361 151.559139 Q 208.344445 151.979592 203.900582 152.238332 Q 202.227396 152.335359 199.376942 152.305173 Z" style="fill:#21a68e;"/>
		<path d="M 199.504156 43.597653 Q 199.454564 58.231565 199.366161 72.85254 Q 199.325194 79.672499 199.318726 86.490302 Q 199.288539 118.429618 199.189355 150.366778 Q 199.185043 151.567764 199.376942 152.305173 L 176.700524 146.936315 C 176.581934 146.908285 176.497844 146.802632 176.5 146.679731 Q 176.543123 144.659401 176.644463 143.90043 C 176.80402 142.699445 176.752272 141.491991 176.929077 140.273756 C 177.036886 139.529878 176.976513 138.835592 177.077853 137.921377 Q 177.332281 135.579778 177.444402 133.225243 C 177.476744 132.526644 177.60827 131.817265 177.62552 131.148853 C 177.660018 129.915525 177.81095 129.132836 177.847605 127.908133 C 177.873479 127.09957 178.011474 126.256508 178.050285 125.635532 C 178.132219 124.270677 178.268058 123.259434 178.3004 121.948484 C 178.319806 121.14639 178.466425 120.230018 178.505236 119.378332 Q 178.582858 117.754738 179.059371 111.82312 Q 179.136993 110.859313 179.227552 109.634609 Q 179.419451 107.021334 179.501386 105.783693 Q 179.579008 104.61505 179.766594 102.674499 Q 179.98868 100.360931 179.999461 99.560992 C 180.01671 98.426848 180.189203 97.344452 180.249576 96.01194 Q 180.294856 95.035196 180.383258 94.437937 C 180.47813 93.80618 180.417757 93.092488 180.504004 92.324893 Q 180.769213 89.950952 180.833898 88.605503 C 180.915832 86.932317 181.101262 84.903363 181.239257 82.980061 Q 181.35569 81.349998 181.413907 80.733334 Q 181.65971 78.186899 181.806329 75.765523 Q 182.090944 71.123293 182.166409 69.995617 Q 182.272062 68.372023 182.535114 64.926466 Q 182.53727 64.894124 182.627829 63.637078 Q 183.000846 58.378184 183.140997 56.521724 Q 183.347989 53.807108 183.352302 53.733799 Q 183.442861 52.649246 183.440705 52.297791 C 183.440705 51.230488 183.645541 50.048907 183.66279 49.134692 C 183.675727 48.474905 183.705913 47.642624 183.79216 46.84053 Q 183.915062 45.68698 183.919374 44.037511 C 183.919374 43.888736 184.037963 43.770146 184.186739 43.76799 L 199.504156 43.597653 Z" style="fill:#044334;"/>
	</g>
	<g id="surface4">
	</g>
</svg>
