<?xml version="1.0" encoding="utf-8"?>
<svg xmlns="http://www.w3.org/2000/svg" width="490pt" height="280pt" viewBox="0 0 490 280" version="1.1" xmlns:xlink="http://www.w3.org/1999/xlink">
	<g id="surface2">
		<path vector-effect="non-scaling-stroke" d="M 270.875789 31.995516 Q 270.652576 32.051745 270.787186 31.866019 Q 271.029142 31.532051 271.206349 31.037915 C 271.80272 29.385117 272.082162 27.855001 271.894731 26.134046 C 271.262578 20.333917 267.389578 15.164237 262.615206 11.919981 C 257.344995 8.341758 251.15978 6.290243 244.715571 6.068734 C 240.379106 5.920494 236.230071 6.368624 232.110003 7.789689 C 223.975509 10.597742 218.298062 17.200416 215.958585 25.515525 Q 214.707911 29.962745 216.074452 34.401445 Q 216.515766 35.832734 217.141103 37.26232 C 217.173477 37.335588 217.108729 37.417376 217.028645 37.402041 Q 216.943449 37.386705 216.849733 37.264024 Q 214.15925 33.685801 210.061333 32.121606 C 204.145338 29.863918 197.523921 32.051745 193.630474 36.747737 C 190.113592 40.988783 189.195181 47.547155 191.459685 52.565187 Q 194.640896 59.60747 201.998404 62.228093 C 209.001498 64.720922 217.00479 62.429155 221.658184 56.671624 C 221.736564 56.572797 221.889916 56.584724 221.954665 56.693775 Q 222.677125 57.91037 223.401289 58.966798 C 228.28812 66.113021 236.906525 69.546411 245.269344 69.819037 C 251.515899 70.023507 257.137117 67.61417 261.39861 63.003374 C 261.478694 62.916475 261.606488 62.896028 261.710427 62.952257 Q 263.349594 63.846813 263.688673 64.02402 Q 267.784886 66.159026 272.571186 67.068917 Q 277.164942 67.941322 281.564453 66.757101 C 281.697358 66.721319 281.838783 66.728134 281.966577 66.777548 C 284.375914 67.706182 286.88067 68.089563 289.443359 67.731741 C 293.401555 67.181376 297.335897 65.102599 299.525428 61.742477 C 303.074685 56.295058 301.150964 48.881321 294.788543 46.707124 Q 292.065685 45.776787 289.167325 46.558884 C 289.092352 46.579331 289.027604 46.500951 289.063386 46.43109 C 289.598415 45.359327 289.33942 43.844546 289.06509 42.767671 C 287.971176 38.480619 284.684322 35.0779 280.797691 33.108173 C 277.682933 31.528643 274.310883 31.128223 270.875789 31.995516" style="fill:none;stroke-width:0.50;stroke:#817b5d;"/>
		<path vector-effect="non-scaling-stroke" d="M 243.573948 149.38679 C 254.901579 149.446427 261.996685 139.65232 263.480795 129.399859 C 264.254373 124.041044 263.589846 118.426641 262.105735 113.212659 Q 261.081682 109.620805 258.958603 103.241344 Q 257.036586 97.475294 255.794431 92.085808 Q 254.047918 84.506791 253.916716 76.895399 Q 253.915012 76.805092 253.824705 76.822131 C 251.079696 77.387831 248.198375 78.079621 245.591384 79.112194 Q 242.67428 80.267449 240.559721 82.520025 Q 240.327988 82.768797 240.334804 82.974971 C 240.617654 91.707539 239.588489 100.377062 237.305242 108.833596 Q 235.570656 115.25395 232.93981 121.555031 C 231.133659 125.879569 228.417617 131.752966 226.66088 136.687506 C 226.618282 136.805076 226.618282 136.93287 226.66088 137.05044 Q 228.291528 141.616934 232.012879 144.878229 C 235.086743 147.57212 239.363572 149.362935 243.573948 149.38679" style="fill:none;stroke-width:0.50;stroke:#817b5d;"/>
		<path d="M 255.603593 74.186173 C 255.646191 74.653046 255.601889 75.099472 255.653006 75.617463 Q 255.78932 76.970372 256.159069 80.766696 C 256.54245 84.69763 257.218905 88.548479 258.120276 92.48282 Q 259.870198 100.124883 262.874201 109.3141 C 264.18792 113.330229 265.407924 117.550829 265.968512 121.790171 C 266.218988 123.693445 266.259882 125.383729 266.225803 127.341528 Q 266.123568 133.029199 263.797723 138.200583 Q 263.029257 139.911315 262.196043 141.204587 C 259.831008 144.876525 256.254489 148.124189 252.144644 149.811065 Q 247.392423 151.762049 242.58738 151.329254 C 239.060275 151.010622 235.052665 149.610003 232.07422 147.362538 C 228.155214 144.402837 225.330122 140.398635 223.890313 135.706051 Q 223.004277 132.81621 222.767433 130.043939 C 222.643047 128.576867 222.508438 126.26295 222.634527 124.586297 C 222.97531 120.064104 224.041962 115.731047 225.359089 111.491704 C 227.463424 104.722047 228.300047 102.302487 229.552425 97.679763 Q 231.559638 90.277954 232.046958 83.859303 Q 232.387741 79.381412 232.285506 74.148687 C 232.283802 74.051564 232.190087 73.983407 232.098075 74.01067 C 227.102194 75.445367 222.225588 77.016377 217.314902 78.434035 Q 214.022937 79.383116 211.528405 79.418899 Q 207.290766 79.481943 206.021349 79.415491 Q 205.167687 79.369485 202.879328 79.008255 Q 202.039298 78.877053 199.551581 78.130738 Q 198.007833 77.667273 196.341404 77.002746 Q 191.846474 75.203411 187.438444 72.867343 Q 185.311957 71.73935 183.693237 70.659068 Q 179.552722 67.893613 177.61537 63.402091 Q 177.066709 62.13097 176.702071 60.225992 Q 176.025617 56.702294 177.613666 53.529603 C 178.840485 51.075964 181.24471 49.406127 183.999942 49.199953 C 184.122624 49.18973 184.219747 49.09431 184.231675 48.971628 Q 184.638911 44.553375 186.842074 40.596883 C 188.200094 38.155171 189.633088 36.105361 191.476724 34.14245 C 193.949106 31.508196 196.550985 29.223245 199.493648 27.268854 C 203.073575 24.891891 207.355515 23.925771 211.647679 24.6346 Q 212.581425 24.789656 213.174387 24.897003 C 213.337963 24.92597 213.498131 24.825439 213.540729 24.663567 C 215.256572 17.970586 219.083567 12.34596 224.83769 8.435473 C 228.829965 5.721136 233.723611 4.044483 238.458793 3.606576 Q 241.454277 3.330542 245.373283 3.437889 Q 249.493351 3.550347 254.001912 4.869178 Q 261.540035 7.074045 267.493517 12.165345 Q 267.730361 12.366407 267.844523 12.437971 C 267.880306 12.460122 267.924607 12.46353 267.962093 12.446491 C 271.640848 10.773246 276.209046 11.674617 279.553832 13.736355 C 280.685232 14.434961 281.879677 15.235801 282.886691 16.097982 C 286.311562 19.033829 288.974782 22.692136 290.84909 26.800277 C 292.094652 29.528246 292.94661 32.460685 293.06418 35.434018 Q 293.077811 35.776505 293.219236 35.994606 Q 293.266946 36.067875 293.353846 36.067875 C 304.040805 35.91793 312.933541 44.41195 313.28966 55.109133 C 313.441308 59.718225 312.274126 64.1024 309.590459 67.793082 C 308.079085 69.870155 306.070169 71.43435 303.838039 72.702063 Q 300.581856 74.550811 296.676481 76.215537 C 293.616249 77.520736 290.521938 78.660656 287.40718 79.279178 Q 286.838072 79.391636 285.106894 79.611441 Q 283.868147 79.769905 282.876468 79.781833 C 281.279899 79.800576 279.27439 79.827838 277.556843 79.608033 C 275.1884 79.30644 273.194819 78.895796 270.495816 78.123923 Q 269.597853 77.866631 267.236225 77.135652 C 263.364929 75.936095 259.766259 75.038131 255.845549 73.981704 C 255.716051 73.947625 255.591665 74.051564 255.603593 74.186173 Z M 270.875789 31.995516 Q 270.652576 32.051745 270.787186 31.866019 Q 271.029142 31.532051 271.206349 31.037915 C 271.80272 29.385117 272.082162 27.855001 271.894731 26.134046 C 271.262578 20.333917 267.389578 15.164237 262.615206 11.919981 C 257.344995 8.341758 251.15978 6.290243 244.715571 6.068734 C 240.379106 5.920494 236.230071 6.368624 232.110003 7.789689 C 223.975509 10.597742 218.298062 17.200416 215.958585 25.515525 Q 214.707911 29.962745 216.074452 34.401445 Q 216.515766 35.832734 217.141103 37.26232 C 217.173477 37.335588 217.108729 37.417376 217.028645 37.402041 Q 216.943449 37.386705 216.849733 37.264024 Q 214.15925 33.685801 210.061333 32.121606 C 204.145338 29.863918 197.523921 32.051745 193.630474 36.747737 C 190.113592 40.988783 189.195181 47.547155 191.459685 52.565187 Q 194.640896 59.60747 201.998404 62.228093 C 209.001498 64.720922 217.00479 62.429155 221.658184 56.671624 C 221.736564 56.572797 221.889916 56.584724 221.954665 56.693775 Q 222.677125 57.91037 223.401289 58.966798 C 228.28812 66.113021 236.906525 69.546411 245.269344 69.819037 C 251.515899 70.023507 257.137117 67.61417 261.39861 63.003374 C 261.478694 62.916475 261.606488 62.896028 261.710427 62.952257 Q 263.349594 63.846813 263.688673 64.02402 Q 267.784886 66.159026 272.571186 67.068917 Q 277.164942 67.941322 281.564453 66.757101 C 281.697358 66.721319 281.838783 66.728134 281.966577 66.777548 C 284.375914 67.706182 286.88067 68.089563 289.443359 67.731741 C 293.401555 67.181376 297.335897 65.102599 299.525428 61.742477 C 303.074685 56.295058 301.150964 48.881321 294.788543 46.707124 Q 292.065685 45.776787 289.167325 46.558884 C 289.092352 46.579331 289.027604 46.500951 289.063386 46.43109 C 289.598415 45.359327 289.33942 43.844546 289.06509 42.767671 C 287.971176 38.480619 284.684322 35.0779 280.797691 33.108173 C 277.682933 31.528643 274.310883 31.128223 270.875789 31.995516 Z M 243.573948 149.38679 C 254.901579 149.446427 261.996685 139.65232 263.480795 129.399859 C 264.254373 124.041044 263.589846 118.426641 262.105735 113.212659 Q 261.081682 109.620805 258.958603 103.241344 Q 257.036586 97.475294 255.794431 92.085808 Q 254.047918 84.506791 253.916716 76.895399 Q 253.915012 76.805092 253.824705 76.822131 C 251.079696 77.387831 248.198375 78.079621 245.591384 79.112194 Q 242.67428 80.267449 240.559721 82.520025 Q 240.327988 82.768797 240.334804 82.974971 C 240.617654 91.707539 239.588489 100.377062 237.305242 108.833596 Q 235.570656 115.25395 232.93981 121.555031 C 231.133659 125.879569 228.417617 131.752966 226.66088 136.687506 C 226.618282 136.805076 226.618282 136.93287 226.66088 137.05044 Q 228.291528 141.616934 232.012879 144.878229 C 235.086743 147.57212 239.363572 149.362935 243.573948 149.38679 Z" style="fill:#041f2f;"/>
		<path d="M 270.875789 31.995516 C 274.310883 31.128223 277.682933 31.528643 280.797691 33.108173 C 284.684322 35.0779 287.971176 38.480619 289.06509 42.767671 C 289.33942 43.844546 289.598415 45.359327 289.063386 46.43109 C 289.027604 46.500951 289.092352 46.579331 289.167325 46.558884 Q 292.065685 45.776787 294.788543 46.707124 C 301.150964 48.881321 303.074685 56.295058 299.525428 61.742477 C 297.335897 65.102599 293.401555 67.181376 289.443359 67.731741 C 286.88067 68.089563 284.375914 67.706182 281.966577 66.777548 C 281.838783 66.728134 281.697358 66.721319 281.564453 66.757101 Q 277.164942 67.941322 272.571186 67.068917 Q 267.784886 66.159026 263.688673 64.02402 Q 263.349594 63.846813 261.710427 62.952257 C 261.606488 62.896028 261.478694 62.916475 261.39861 63.003374 C 257.137117 67.61417 251.515899 70.023507 245.269344 69.819037 C 236.906525 69.546411 228.28812 66.113021 223.401289 58.966798 Q 222.677125 57.91037 221.954665 56.693775 C 221.889916 56.584724 221.736564 56.572797 221.658184 56.671624 C 217.00479 62.429155 209.001498 64.720922 201.998404 62.228093 Q 194.640896 59.60747 191.459685 52.565187 C 189.195181 47.547155 190.113592 40.988783 193.630474 36.747737 C 197.523921 32.051745 204.145338 29.863918 210.061333 32.121606 Q 214.15925 33.685801 216.849733 37.264024 Q 216.943449 37.386705 217.028645 37.402041 C 217.108729 37.417376 217.173477 37.335588 217.141103 37.26232 Q 216.515766 35.832734 216.074452 34.401445 Q 214.707911 29.962745 215.958585 25.515525 C 218.298062 17.200416 223.975509 10.597742 232.110003 7.789689 C 236.230071 6.368624 240.379106 5.920494 244.715571 6.068734 C 251.15978 6.290243 257.344995 8.341758 262.615206 11.919981 C 267.389578 15.164237 271.262578 20.333917 271.894731 26.134046 C 272.082162 27.855001 271.80272 29.385117 271.206349 31.037915 Q 271.029142 31.532051 270.787186 31.866019 Q 270.652576 32.051745 270.875789 31.995516 Z" style="fill:#fdd68b;"/>
		<path d="M 263.480795 129.399859 C 261.996685 139.65232 254.901579 149.446427 243.573948 149.38679 C 239.363572 149.362935 235.086743 147.57212 232.012879 144.878229 Q 228.291528 141.616934 226.66088 137.05044 C 226.618282 136.93287 226.618282 136.805076 226.66088 136.687506 C 228.417617 131.752966 231.133659 125.879569 232.93981 121.555031 Q 235.570656 115.25395 237.305242 108.833596 C 239.588489 100.377062 240.617654 91.707539 240.334804 82.974971 Q 240.327988 82.768797 240.559721 82.520025 Q 242.67428 80.267449 245.591384 79.112194 C 248.198375 78.079621 251.079696 77.387831 253.824705 76.822131 Q 253.915012 76.805092 253.916716 76.895399 Q 254.047918 84.506791 255.794431 92.085808 Q 257.036586 97.475294 258.958603 103.241344 Q 261.081682 109.620805 262.105735 113.212659 C 263.589846 118.426641 264.254373 124.041044 263.480795 129.399859 Z" style="fill:#fdd68b;"/>
	</g>
	<g id="surface4">
	</g>
</svg>
