<?xml version="1.0" encoding="utf-8"?>
<svg xmlns="http://www.w3.org/2000/svg" width="490pt" height="280pt" viewBox="0 0 490 280" version="1.1" xmlns:xlink="http://www.w3.org/1999/xlink">
	<g id="surface2">
		<path vector-effect="non-scaling-stroke" d="M 220.869111 27.962729 L 226.54759 42.252031 C 226.566733 42.300758 226.61372 42.332083 226.665928 42.330343 Q 231.554328 42.163277 237.330262 41.907459 Q 238.557147 41.85351 239.76489 41.662081" style="fill:none;stroke-width:0.50;stroke:#11485a;"/>
		<path vector-effect="non-scaling-stroke" d="M 239.76489 41.662081 Q 239.752708 41.670783 239.754448 41.703848 Q 239.754448 41.731692 239.728345 41.740393 Q 238.437069 42.163277 237.542574 42.386031 Q 232.673317 43.602475 227.576086 44.75975 C 227.499514 44.777153 227.462969 44.864166 227.504735 44.930296 L 230.122091 49.134772" style="fill:none;stroke-width:0.50;stroke:#46303f;"/>
		<path vector-effect="non-scaling-stroke" d="M 230.122091 49.134772 Q 232.273057 52.477818 234.430983 55.808682 Q 240.02941 64.445609 242.436194 68.042733 Q 243.673521 69.889152 244.771628 71.450168 C 244.815134 71.509337 244.902147 71.509337 244.945654 71.450168 C 248.588025 66.316392 251.215823 62.529579 255.378532 56.816294 C 255.606507 56.504787 256.034612 56.017513 256.330456 55.552863" style="fill:none;stroke-width:0.50;stroke:#332c3c;"/>
		<path vector-effect="non-scaling-stroke" d="M 256.330456 55.552863 L 263.905822 45.008608 C 263.933667 44.968582 263.911043 44.914634 263.862316 44.907673 L 253.418996 43.529384" style="fill:none;stroke-width:0.50;stroke:#573442;"/>
		<path vector-effect="non-scaling-stroke" d="M 253.418996 43.529384 Q 250.028963 43.089097 246.63545 42.70798 C 245.490356 42.5792 244.411393 42.356447 243.292404 42.205044 Q 243.20017 42.191122 243.174066 42.102368 L 243.123598 41.937043" style="fill:none;stroke-width:0.50;stroke:#46303f;"/>
		<path vector-effect="non-scaling-stroke" d="M 258.662409 35.477186 Q 259.26106 35.301419 259.623035 34.814145" style="fill:none;stroke-width:0.50;stroke:#332c3c;"/>
		<path vector-effect="non-scaling-stroke" d="M 304.760244 4.155927 Q 304.252087 5.248812 303.796138 6.310373 Q 303.249695 7.580765 302.905123 8.156792 C 301.612107 10.314719 300.117221 12.36997 298.507478 14.339948 Q 293.03435 21.03126 286.195115 27.344935 Q 280.629753 32.482193 271.112253 40.802391 Q 270.955629 40.938132 269.867965 41.944004 Q 269.753107 42.05016 269.864484 42.159797 Q 277.083096 49.204383 282.761575 54.47738 Q 282.953004 54.656628 283.52207 55.149122 C 283.560356 55.182187 283.617785 55.175226 283.647369 55.1352 Q 287.319325 49.956176 291.267982 44.834581" style="fill:none;stroke-width:0.50;stroke:#1f6b77;"/>
		<path vector-effect="non-scaling-stroke" d="M 291.267982 44.834581 Q 291.360216 46.722767 291.440268 47.384067 Q 291.951906 51.639011 292.656712 55.886994 C 292.675855 56.005332 292.621907 56.123669 292.520972 56.186319 Q 292.282556 56.334241 292.092867 56.642268" style="fill:none;stroke-width:0.50;stroke:#11485a;"/>
		<path vector-effect="non-scaling-stroke" d="M 297.86532 82.345957 Q 298.340412 83.585024 299.001712 84.596117 C 299.109609 84.759702 299.069583 84.978975 298.911219 85.092092 Q 298.530101 85.368794 298.451789 85.711626" style="fill:none;stroke-width:0.50;stroke:#332c3c;"/>
		<path vector-effect="non-scaling-stroke" d="M 190.628556 37.88571 Q 190.92266 38.221581 191.004453 38.400828 Q 191.221986 38.8794 191.456921 39.157843 Q 195.802359 44.258554 200.168679 49.341863 Q 200.466264 49.688176 200.838681 50.050151" style="fill:none;stroke-width:0.50;stroke:#682e25;"/>
		<path vector-effect="non-scaling-stroke" d="M 200.838681 50.050151 Q 202.606788 52.402987 204.178246 54.917667 Q 204.223493 54.992498 204.286142 54.929849 Q 210.516285 48.703187 216.878687 42.605304 Q 217.089259 42.405174 217.256325 42.290317 C 217.303312 42.257252 217.308533 42.189381 217.268506 42.149355 Q 203.819752 28.702341 192.765599 14.207688 C 190.550244 11.301448 189.006631 8.882482 186.429301 5.130474 Q 185.902001 4.363018 185.5 3.536393" style="fill:none;stroke-width:0.50;stroke:#804726;"/>
		<path vector-effect="non-scaling-stroke" d="M 256.330456 55.552863 L 249.160572 53.690781" style="fill:none;stroke-width:0.50;stroke:#833439;"/>
		<path vector-effect="non-scaling-stroke" d="M 304.347801 6.665387 L 304.300814 6.872478" style="fill:none;stroke-width:0.50;stroke:#4a6b6e;"/>
		<path vector-effect="non-scaling-stroke" d="M 303.696943 9.99451 Q 303.41502 10.65407 303.387176 11.374539 Q 303.383695 11.461552 303.329747 11.527682 Q 303.260137 11.612955 303.237513 11.720852 Q 303.194007 11.927943 303.187046 11.943605 C 302.837253 12.904231 302.525746 14.085869 302.175953 15.043014 Q 299.544675 22.261626 298.85553 24.148072 Q 295.068717 34.532223 291.267982 44.834581" style="fill:none;stroke-width:0.50;stroke:#28868b;"/>
		<path vector-effect="non-scaling-stroke" d="M 200.838681 50.050151 Q 200.727304 49.273993 200.407095 48.543083 Q 200.017276 47.659029 200.012056 47.641626 Q 197.138881 40.278572 193.291159 30.165902 Q 189.998581 21.506352 187.242004 12.657113 C 186.916574 11.616436 186.6886 10.533992 186.472807 9.481133 Q 186.432781 9.291444 186.234391 9.220093" style="fill:none;stroke-width:0.50;stroke:#e14906;"/>
		<path vector-effect="non-scaling-stroke" d="M 303.651696 10.714979 L 303.634293 10.875084" style="fill:none;stroke-width:0.50;stroke:#11485a;"/>
		<path vector-effect="non-scaling-stroke" d="M 301.968861 21.318404 Q 301.878368 21.365391 301.937537 21.502871" style="fill:none;stroke-width:0.50;stroke:#11485a;"/>
		<path vector-effect="non-scaling-stroke" d="M 301.56338 23.579006 Q 301.514653 23.641655 301.547718 23.723447" style="fill:none;stroke-width:0.50;stroke:#11485a;"/>
		<path vector-effect="non-scaling-stroke" d="M 301.387613 24.617943 Q 301.286678 24.878982 301.324964 25.122619" style="fill:none;stroke-width:0.50;stroke:#11485a;"/>
		<path vector-effect="non-scaling-stroke" d="M 301.161379 26.057141 Q 301.03782 26.128491 301.121353 26.25031" style="fill:none;stroke-width:0.50;stroke:#11485a;"/>
		<path vector-effect="non-scaling-stroke" d="M 253.418996 43.529384 C 251.92933 44.443022 250.892134 45.464557 250.366574 47.196119 C 249.729638 49.291396 249.451196 51.515452 249.160572 53.690781" style="fill:none;stroke-width:0.50;stroke:#96373b;"/>
		<path vector-effect="non-scaling-stroke" d="M 249.160572 53.690781 Q 243.348092 52.220259 237.530392 50.796724 Q 233.983735 49.930072 231.76838 49.4515 Q 231.378561 49.367967 231.023548 49.192201 Q 230.764248 49.065162 230.57804 49.072123 Q 230.353546 49.080824 230.122091 49.134772" style="fill:none;stroke-width:0.50;stroke:#723036;"/>
		<path vector-effect="non-scaling-stroke" d="M 239.785773 41.550705 Q 239.754448 41.482834 239.76489 41.662081" style="fill:none;stroke-width:0.50;stroke:#504b53;"/>
		<path vector-effect="non-scaling-stroke" d="M 245.328512 77.139089 Q 244.976979 76.342048 244.287834 75.308332 Q 237.004832 64.39166 230.960898 56.329021 Q 227.565644 51.800855 224.972652 48.469992 C 224.929145 48.414303 224.845613 48.410823 224.796885 48.46303 Q 217.016168 56.953775 215.730114 58.337284 Q 213.598291 60.630951 213.59133 60.637912 Q 213.046628 61.206979 212.179977 61.749941 Q 203.762323 67.022938 201.717514 68.293331 Q 201.607877 68.361201 201.273747 68.514344 C 201.23198 68.533487 201.216318 68.583955 201.238941 68.623981 Q 201.273747 68.68663 201.346838 68.702293 Q 202.596347 68.966813 215.721412 72.269832 C 219.630044 73.254821 223.563039 74.145836 227.499514 75.042072 Q 228.66027 75.304852 229.401622 75.536307 Q 229.934143 75.701632 230.170819 75.924385 Q 230.859963 76.573503 231.797965 77.645506 Q 235.976337 82.413827 239.166239 86.306796 C 239.23411 86.390329 239.253253 86.503446 239.218447 86.604381 Q 239.047902 87.084694 238.877356 87.450149 Q 238.129043 89.068594 237.459041 90.746208 C 237.31634 91.102962 237.173638 91.68595 237.124911 91.999197 Q 235.7327 101.092073 234.328308 110.19365 Q 234.286541 110.465131 234.225632 110.197131 C 233.767943 108.162763 232.749889 106.180603 231.70051 104.386391 Q 229.448609 100.533449 226.758162 96.97287 Q 226.002888 95.975699 224.869977 94.865411" style="fill:none;stroke-width:0.50;stroke:#803828;"/>
		<path vector-effect="non-scaling-stroke" d="M 222.576309 92.956342 Q 222.478855 92.644835 222.078594 92.462107" style="fill:none;stroke-width:0.50;stroke:#682e25;"/>
		<path vector-effect="non-scaling-stroke" d="M 222.078594 92.462107 C 217.787105 88.917191 213.286784 85.575885 208.894359 82.379022 C 208.466255 82.067515 208.206955 81.977021 207.70576 82.077956 Q 198.583299 83.931337 197.081452 84.289831 Q 194.35968 84.940689 192.055572 85.422742 Q 191.756247 85.485392 192.039909 85.598509 Q 193.284198 86.101445 195.624852 87.129941 Q 196.035554 87.309188 196.399269 87.227395" style="fill:none;stroke-width:0.50;stroke:#804726;"/>
		<path vector-effect="non-scaling-stroke" d="M 287.213169 90.251973 Q 287.456806 90.377272 287.500312 90.121453" style="fill:none;stroke-width:0.50;stroke:#332c3c;"/>
		<path stroke-opacity="0.996" vector-effect="non-scaling-stroke" d="M 287.62039 90.083167 L 297.301475 85.847367 Q 297.694775 85.67508 297.26667 85.650717 Q 296.744591 85.619392 296.225992 85.501054 Q 295.166172 85.257417 283.480304 82.6331 Q 282.502276 82.413827 281.957574 82.128424" style="fill:none;stroke-width:0.50;stroke:#806c47;"/>
		<path vector-effect="non-scaling-stroke" d="M 281.957574 82.128424 Q 277.659123 77.523687 273.757453 72.906769 C 273.733089 72.877184 273.686102 72.884145 273.67044 72.918951 Q 273.056127 74.257213 272.377424 75.525865 C 270.642382 78.771456 267.508168 80.818006 263.909303 81.449721 Q 263.839692 81.461903 261.206674 81.914372 Q 259.250618 82.250242 257.87755 83.560661 C 256.048534 85.307885 254.986973 87.71815 254.578011 90.140596 Q 254.23692 92.157561 253.866244 94.296345" style="fill:none;stroke-width:0.50;stroke:#804726;"/>
		<path vector-effect="non-scaling-stroke" d="M 250.970445 86.971577 Q 255.220168 81.31224 259.840567 75.731216 C 260.117269 75.398826 260.362646 75.09776 260.771608 75.003786 Q 274.824234 71.780818 288.6106 68.460396 Q 288.991718 68.368162 288.640185 68.195876 Q 281.783547 64.833687 276.362627 62.07363 Q 275.38808 61.577655 273.983687 60.75451 Q 273.654777 60.563081 273.545141 60.416899 Q 268.329572 53.535898 264.490551 48.311628 Q 264.427901 48.226355 264.368733 48.315108 Q 255.632611 61.756902 245.91324 76.557841 Q 245.746175 76.81366 245.667863 77.109505" style="fill:none;stroke-width:0.50;stroke:#1f6b77;"/>
		<path vector-effect="non-scaling-stroke" d="M 245.224096 113.152098 Q 244.246068 113.226929 243.104455 113.23563 Q 242.082921 113.244332 241.195386 113.862125 Q 238.501459 115.738129 237.271093 116.688313 C 236.891715 116.980677 236.762936 117.172106 236.797741 117.647198 Q 236.841248 118.218004 236.823845 119.820787" style="fill:none;stroke-width:0.50;stroke:#803828;"/>
		<path stroke-opacity="0.996" vector-effect="non-scaling-stroke" d="M 293.880117 87.229136 L 294.351729 87.042927 Q 294.416119 87.016823 294.416119 86.948953 L 294.416119 86.769706 C 294.416119 86.701836 294.36043 86.646147 294.29256 86.644407 Q 293.56339 86.633966 292.90209 86.879343" style="fill:none;stroke-width:0.50;stroke:#d17344;"/>
		<path vector-effect="non-scaling-stroke" d="M 222.078594 92.462107 Q 222.11688 92.500393 222.11688 92.550861 Q 222.11862 92.575224 222.097737 92.587406 Q 222.076854 92.599588 222.054231 92.587406" style="fill:none;stroke-width:0.50;stroke:#e14906;"/>
		<path stroke-opacity="0.996" vector-effect="non-scaling-stroke" d="M 281.957574 82.128424 Q 276.862083 85.454067 271.192305 89.481036 Q 270.109861 90.250233 269.305859 91.038572" style="fill:none;stroke-width:0.50;stroke:#fa8728;"/>
		<path d="M 220.869111 27.962729 L 226.54759 42.252031 C 226.566733 42.300758 226.61372 42.332083 226.665928 42.330343 Q 231.554328 42.163277 237.330262 41.907459 Q 238.557147 41.85351 239.76489 41.662081 Q 239.752708 41.670783 239.754448 41.703848 Q 239.754448 41.731692 239.728345 41.740393 Q 238.437069 42.163277 237.542574 42.386031 Q 232.673317 43.602475 227.576086 44.75975 C 227.499514 44.777153 227.462969 44.864166 227.504735 44.930296 L 230.122091 49.134772 Q 232.273057 52.477818 234.430983 55.808682 Q 240.02941 64.445609 242.436194 68.042733 Q 243.673521 69.889152 244.771628 71.450168 C 244.815134 71.509337 244.902147 71.509337 244.945654 71.450168 C 248.588025 66.316392 251.215823 62.529579 255.378532 56.816294 C 255.606507 56.504787 256.034612 56.017513 256.330456 55.552863 L 263.905822 45.008608 C 263.933667 44.968582 263.911043 44.914634 263.862316 44.907673 L 253.418996 43.529384 Q 250.028963 43.089097 246.63545 42.70798 C 245.490356 42.5792 244.411393 42.356447 243.292404 42.205044 Q 243.20017 42.191122 243.174066 42.102368 L 243.123598 41.937043 Q 245.683526 42.093667 248.274778 41.823926 Q 248.95174 41.754315 249.633923 41.743874 Q 249.856677 41.740393 250.216911 41.482834 Q 254.445751 38.458257 258.662409 35.477186 Q 259.26106 35.301419 259.623035 34.814145 Q 273.259738 24.950333 281.458118 19.256192 Q 283.891006 17.566396 299.201843 7.154401 C 300.181611 6.48962 301.599925 5.605566 302.731097 4.820708 Q 303.736969 4.122862 304.772425 3.491146 C 304.808971 3.468523 304.857698 3.492887 304.862919 3.536393 Q 304.915127 4.006264 304.760244 4.155927 Q 304.252087 5.248812 303.796138 6.310373 Q 303.249695 7.580765 302.905123 8.156792 C 301.612107 10.314719 300.117221 12.36997 298.507478 14.339948 Q 293.03435 21.03126 286.195115 27.344935 Q 280.629753 32.482193 271.112253 40.802391 Q 270.955629 40.938132 269.867965 41.944004 Q 269.753107 42.05016 269.864484 42.159797 Q 277.083096 49.204383 282.761575 54.47738 Q 282.953004 54.656628 283.52207 55.149122 C 283.560356 55.182187 283.617785 55.175226 283.647369 55.1352 Q 287.319325 49.956176 291.267982 44.834581 Q 291.360216 46.722767 291.440268 47.384067 Q 291.951906 51.639011 292.656712 55.886994 C 292.675855 56.005332 292.621907 56.123669 292.520972 56.186319 Q 292.282556 56.334241 292.092867 56.642268 L 286.515323 60.8189 Q 286.22644 61.034692 286.398726 61.35142 L 297.86532 82.345957 Q 298.340412 83.585024 299.001712 84.596117 C 299.109609 84.759702 299.069583 84.978975 298.911219 85.092092 Q 298.530101 85.368794 298.451789 85.711626 C 297.787009 86.421653 297.111786 87.38924 296.636695 87.968748 Q 290.690215 95.243048 284.24428 103.039428 Q 283.081784 104.44556 282.041106 105.731615 Q 268.467053 122.48861 255.973702 138.260616 Q 250.07595 145.707203 247.918024 148.214923 Q 246.802515 149.511419 245.18233 151.404825 C 245.097057 151.50576 244.940433 151.50576 244.85342 151.404825 Q 242.704195 148.895365 240.713334 146.61214 Q 238.793823 144.412447 234.799919 139.466619 C 229.457311 132.850138 225.237172 127.665894 221.394671 122.789676 Q 210.091661 108.444685 208.015527 105.881278 C 205.088404 102.26327 202.366632 98.951549 199.771899 95.803413 Q 196.028593 91.257845 190.637257 84.900663 C 190.52066 84.763183 190.503257 84.566533 190.595491 84.411649 L 204.011181 61.673369 C 204.045986 61.6142 204.030324 61.537629 203.974635 61.495862 Q 197.694025 56.865022 194.326615 54.378185 C 194.070797 54.190237 193.924615 53.984886 193.853264 53.649015 Q 192.191312 45.789986 190.628556 37.88571 Q 190.92266 38.221581 191.004453 38.400828 Q 191.221986 38.8794 191.456921 39.157843 Q 195.802359 44.258554 200.168679 49.341863 Q 200.466264 49.688176 200.838681 50.050151 Q 202.606788 52.402987 204.178246 54.917667 Q 204.223493 54.992498 204.286142 54.929849 Q 210.516285 48.703187 216.878687 42.605304 Q 217.089259 42.405174 217.256325 42.290317 C 217.303312 42.257252 217.308533 42.189381 217.268506 42.149355 Q 203.819752 28.702341 192.765599 14.207688 C 190.550244 11.301448 189.006631 8.882482 186.429301 5.130474 Q 185.902001 4.363018 185.5 3.536393 Q 185.555688 3.409354 185.8933 3.571199 Q 186.02904 3.637329 186.220469 3.774809 C 188.021642 5.073046 190.357075 6.627101 191.71448 7.559882 Q 196.749062 11.019525 208.290488 19.082165 Q 214.51715 23.432823 220.869111 27.962729 Z M 245.667863 77.109505 Q 245.504278 77.092102 245.328512 77.139089 Q 244.976979 76.342048 244.287834 75.308332 Q 237.004832 64.39166 230.960898 56.329021 Q 227.565644 51.800855 224.972652 48.469992 C 224.929145 48.414303 224.845613 48.410823 224.796885 48.46303 Q 217.016168 56.953775 215.730114 58.337284 Q 213.598291 60.630951 213.59133 60.637912 Q 213.046628 61.206979 212.179977 61.749941 Q 203.762323 67.022938 201.717514 68.293331 Q 201.607877 68.361201 201.273747 68.514344 C 201.23198 68.533487 201.216318 68.583955 201.238941 68.623981 Q 201.273747 68.68663 201.346838 68.702293 Q 202.596347 68.966813 215.721412 72.269832 C 219.630044 73.254821 223.563039 74.145836 227.499514 75.042072 Q 228.66027 75.304852 229.401622 75.536307 Q 229.934143 75.701632 230.170819 75.924385 Q 230.859963 76.573503 231.797965 77.645506 Q 235.976337 82.413827 239.166239 86.306796 C 239.23411 86.390329 239.253253 86.503446 239.218447 86.604381 Q 239.047902 87.084694 238.877356 87.450149 Q 238.129043 89.068594 237.459041 90.746208 C 237.31634 91.102962 237.173638 91.68595 237.124911 91.999197 Q 235.7327 101.092073 234.328308 110.19365 Q 234.286541 110.465131 234.225632 110.197131 C 233.767943 108.162763 232.749889 106.180603 231.70051 104.386391 Q 229.448609 100.533449 226.758162 96.97287 Q 226.002888 95.975699 224.869977 94.865411 L 222.576309 92.956342 Q 222.478855 92.644835 222.078594 92.462107 C 217.787105 88.917191 213.286784 85.575885 208.894359 82.379022 C 208.466255 82.067515 208.206955 81.977021 207.70576 82.077956 Q 198.583299 83.931337 197.081452 84.289831 Q 194.35968 84.940689 192.055572 85.422742 Q 191.756247 85.485392 192.039909 85.598509 Q 193.284198 86.101445 195.624852 87.129941 Q 196.035554 87.309188 196.399269 87.227395 Q 196.322697 87.361396 196.423633 87.408383 Q 202.575463 90.311142 204.978767 91.524105 Q 207.935474 93.015511 210.02205 94.240656 Q 217.614819 98.702692 223.813637 105.279147 C 226.291772 107.906944 228.425334 110.767937 229.887156 114.001346 Q 232.060744 118.809694 233.01963 123.720717 C 233.071837 123.992198 233.195396 124.185367 233.383345 124.368095 Q 236.975248 127.83818 240.932607 131.760733 Q 241.205828 132.030474 241.602608 132.326319 C 241.759232 132.442916 241.950661 132.449877 242.149051 132.449877 Q 246.057682 132.453358 248.036362 132.458579 C 248.485349 132.460319 248.62109 132.366345 248.929117 132.082682 Q 250.178626 130.927147 250.5406 130.561692 Q 253.666113 127.404854 256.889081 124.347211 C 257.08399 124.164484 257.221471 123.93825 257.254536 123.696353 Q 257.630433 120.889308 257.914096 119.18559 Q 258.281292 116.971976 258.820773 115.48057 C 260.089425 111.97742 262.356988 108.613491 264.875149 105.82907 Q 268.12074 102.242387 271.738748 99.299602 C 275.031326 96.619596 278.741567 94.414683 282.671082 92.429042 Q 285.361529 91.071637 287.213169 90.251973 Q 287.456806 90.377272 287.500312 90.121453 Q 287.55252 90.084908 287.62039 90.083167 L 297.301475 85.847367 Q 297.694775 85.67508 297.26667 85.650717 Q 296.744591 85.619392 296.225992 85.501054 Q 295.166172 85.257417 283.480304 82.6331 Q 282.502276 82.413827 281.957574 82.128424 Q 277.659123 77.523687 273.757453 72.906769 C 273.733089 72.877184 273.686102 72.884145 273.67044 72.918951 Q 273.056127 74.257213 272.377424 75.525865 C 270.642382 78.771456 267.508168 80.818006 263.909303 81.449721 Q 263.839692 81.461903 261.206674 81.914372 Q 259.250618 82.250242 257.87755 83.560661 C 256.048534 85.307885 254.986973 87.71815 254.578011 90.140596 Q 254.23692 92.157561 253.866244 94.296345 Q 253.500788 92.994628 253.271073 91.75382 C 253.177099 91.245663 252.992631 90.707922 252.778579 90.309402 Q 251.976318 88.812775 250.970445 86.971577 Q 255.220168 81.31224 259.840567 75.731216 C 260.117269 75.398826 260.362646 75.09776 260.771608 75.003786 Q 274.824234 71.780818 288.6106 68.460396 Q 288.991718 68.368162 288.640185 68.195876 Q 281.783547 64.833687 276.362627 62.07363 Q 275.38808 61.577655 273.983687 60.75451 Q 273.654777 60.563081 273.545141 60.416899 Q 268.329572 53.535898 264.490551 48.311628 Q 264.427901 48.226355 264.368733 48.315108 Q 255.632611 61.756902 245.91324 76.557841 Q 245.746175 76.81366 245.667863 77.109505 Z" style="fill:#072c45;"/>
		<path d="M 200.838681 50.050151 Q 200.727304 49.273993 200.407095 48.543083 Q 200.017276 47.659029 200.012056 47.641626 Q 197.138881 40.278572 193.291159 30.165902 Q 189.998581 21.506352 187.242004 12.657113 C 186.916574 11.616436 186.6886 10.533992 186.472807 9.481133 Q 186.432781 9.291444 186.234391 9.220093 L 185.5 3.536393 Q 185.902001 4.363018 186.429301 5.130474 C 189.006631 8.882482 190.550244 11.301448 192.765599 14.207688 Q 203.819752 28.702341 217.268506 42.149355 C 217.308533 42.189381 217.303312 42.257252 217.256325 42.290317 Q 217.089259 42.405174 216.878687 42.605304 Q 210.516285 48.703187 204.286142 54.929849 Q 204.223493 54.992498 204.178246 54.917667 Q 202.606788 52.402987 200.838681 50.050151 Z" style="fill:#f96206;"/>
		<path d="M 304.760244 4.155927 L 304.347801 6.665387 L 304.300814 6.872478 L 303.696943 9.99451 Q 303.41502 10.65407 303.387176 11.374539 Q 303.383695 11.461552 303.329747 11.527682 Q 303.260137 11.612955 303.237513 11.720852 Q 303.194007 11.927943 303.187046 11.943605 C 302.837253 12.904231 302.525746 14.085869 302.175953 15.043014 Q 299.544675 22.261626 298.85553 24.148072 Q 295.068717 34.532223 291.267982 44.834581 Q 287.319325 49.956176 283.647369 55.1352 C 283.617785 55.175226 283.560356 55.182187 283.52207 55.149122 Q 282.953004 54.656628 282.761575 54.47738 Q 277.083096 49.204383 269.864484 42.159797 Q 269.753107 42.05016 269.867965 41.944004 Q 270.955629 40.938132 271.112253 40.802391 Q 280.629753 32.482193 286.195115 27.344935 Q 293.03435 21.03126 298.507478 14.339948 C 300.117221 12.36997 301.612107 10.314719 302.905123 8.156792 Q 303.249695 7.580765 303.796138 6.310373 Q 304.252087 5.248812 304.760244 4.155927 Z" style="fill:#36a9a8;"/>
		<path d="M 304.347801 6.665387 Q 304.368684 6.825491 304.300814 6.872478 L 304.347801 6.665387 Z" style="fill:#5e2c33;"/>
		<path d="M 200.838681 50.050151 Q 200.466264 49.688176 200.168679 49.341863 Q 195.802359 44.258554 191.456921 39.157843 Q 191.221986 38.8794 191.004453 38.400828 Q 190.92266 38.221581 190.628556 37.88571 Q 189.293774 30.630552 188.364473 24.459579 Q 187.367303 17.843098 186.234391 9.220093 Q 186.432781 9.291444 186.472807 9.481133 C 186.6886 10.533992 186.916574 11.616436 187.242004 12.657113 Q 189.998581 21.506352 193.291159 30.165902 Q 197.138881 40.278572 200.012056 47.641626 Q 200.017276 47.659029 200.407095 48.543083 Q 200.727304 49.273993 200.838681 50.050151 Z" style="fill:#c93005;"/>
		<path d="M 303.696943 9.99451 L 303.651696 10.714979 L 303.634293 10.875084 L 301.968861 21.318404 Q 301.878368 21.365391 301.937537 21.502871 L 301.56338 23.579006 Q 301.514653 23.641655 301.547718 23.723447 L 301.387613 24.617943 Q 301.286678 24.878982 301.324964 25.122619 L 301.161379 26.057141 Q 301.03782 26.128491 301.121353 26.25031 Q 299.509869 35.694719 297.308436 45.02253 Q 296.036304 50.415606 294.882509 54.259847 Q 294.795496 54.552212 294.42656 54.846316 Q 293.319753 55.73037 292.092867 56.642268 Q 292.282556 56.334241 292.520972 56.186319 C 292.621907 56.123669 292.675855 56.005332 292.656712 55.886994 Q 291.951906 51.639011 291.440268 47.384067 Q 291.360216 46.722767 291.267982 44.834581 Q 295.068717 34.532223 298.85553 24.148072 Q 299.544675 22.261626 302.175953 15.043014 C 302.525746 14.085869 302.837253 12.904231 303.187046 11.943605 Q 303.194007 11.927943 303.237513 11.720852 Q 303.260137 11.612955 303.329747 11.527682 Q 303.383695 11.461552 303.387176 11.374539 Q 303.41502 10.65407 303.696943 9.99451 Z" style="fill:#1a636e;"/>
		<path d="M 303.651696 10.714979 L 303.634293 10.875084 L 303.651696 10.714979 Z" style="fill:#072c45;"/>
		<path d="M 301.968861 21.318404 L 301.937537 21.502871 Q 301.878368 21.365391 301.968861 21.318404 Z" style="fill:#072c45;"/>
		<path d="M 301.56338 23.579006 L 301.547718 23.723447 Q 301.514653 23.641655 301.56338 23.579006 Z" style="fill:#072c45;"/>
		<path d="M 301.387613 24.617943 Q 301.441561 24.898125 301.324964 25.122619 Q 301.286678 24.878982 301.387613 24.617943 Z" style="fill:#072c45;"/>
		<path d="M 301.161379 26.057141 L 301.121353 26.25031 Q 301.03782 26.128491 301.161379 26.057141 Z" style="fill:#072c45;"/>
		<path d="M 239.785773 41.550705 Q 239.754448 41.482834 239.76489 41.662081 Q 238.557147 41.85351 237.330262 41.907459 Q 231.554328 42.163277 226.665928 42.330343 C 226.61372 42.332083 226.566733 42.300758 226.54759 42.252031 L 220.869111 27.962729 L 239.785773 41.550705 Z" style="fill:#1a636e;"/>
		<path d="M 259.623035 34.814145 Q 259.26106 35.301419 258.662409 35.477186 L 259.623035 34.814145 Z" style="fill:#5e2c33;"/>
		<path d="M 243.123598 41.937043 L 243.174066 42.102368 Q 243.20017 42.191122 243.292404 42.205044 C 244.411393 42.356447 245.490356 42.5792 246.63545 42.70798 Q 250.028963 43.089097 253.418996 43.529384 C 251.92933 44.443022 250.892134 45.464557 250.366574 47.196119 C 249.729638 49.291396 249.451196 51.515452 249.160572 53.690781 Q 243.348092 52.220259 237.530392 50.796724 Q 233.983735 49.930072 231.76838 49.4515 Q 231.378561 49.367967 231.023548 49.192201 Q 230.764248 49.065162 230.57804 49.072123 Q 230.353546 49.080824 230.122091 49.134772 L 227.504735 44.930296 C 227.462969 44.864166 227.499514 44.777153 227.576086 44.75975 Q 232.673317 43.602475 237.542574 42.386031 Q 238.437069 42.163277 239.728345 41.740393 Q 239.754448 41.731692 239.754448 41.703848 Q 239.752708 41.670783 239.76489 41.662081 Q 239.754448 41.482834 239.785773 41.550705 L 243.123598 41.937043 Z" style="fill:#853338;"/>
		<path d="M 253.418996 43.529384 L 263.862316 44.907673 C 263.911043 44.914634 263.933667 44.968582 263.905822 45.008608 L 256.330456 55.552863 L 249.160572 53.690781 C 249.451196 51.515452 249.729638 49.291396 250.366574 47.196119 C 250.892134 45.464557 251.92933 44.443022 253.418996 43.529384 Z" style="fill:#a73b3e;"/>
		<path d="M 249.160572 53.690781 L 256.330456 55.552863 C 256.034612 56.017513 255.606507 56.504787 255.378532 56.816294 C 251.215823 62.529579 248.588025 66.316392 244.945654 71.450168 C 244.902147 71.509337 244.815134 71.509337 244.771628 71.450168 Q 243.673521 69.889152 242.436194 68.042733 Q 240.02941 64.445609 234.430983 55.808682 Q 232.273057 52.477818 230.122091 49.134772 Q 230.353546 49.080824 230.57804 49.072123 Q 230.764248 49.065162 231.023548 49.192201 Q 231.378561 49.367967 231.76838 49.4515 Q 233.983735 49.930072 237.530392 50.796724 Q 243.348092 52.220259 249.160572 53.690781 Z" style="fill:#5e2c33;"/>
		<path d="M 297.86532 82.345957 L 299.147894 84.617 C 299.220986 84.74578 299.201843 84.905884 299.100907 85.01378 L 298.451789 85.711626 Q 298.530101 85.368794 298.911219 85.092092 C 299.069583 84.978975 299.109609 84.759702 299.001712 84.596117 Q 298.340412 83.585024 297.86532 82.345957 Z" style="fill:#5e2c33;"/>
		<path d="M 250.970445 86.971577 Q 248.612389 82.584373 246.139475 77.80735 Q 245.982851 77.504544 245.667863 77.109505 Q 245.746175 76.81366 245.91324 76.557841 Q 255.632611 61.756902 264.368733 48.315108 Q 264.427901 48.226355 264.490551 48.311628 Q 268.329572 53.535898 273.545141 60.416899 Q 273.654777 60.563081 273.983687 60.75451 Q 275.38808 61.577655 276.362627 62.07363 Q 281.783547 64.833687 288.640185 68.195876 Q 288.991718 68.368162 288.6106 68.460396 Q 274.824234 71.780818 260.771608 75.003786 C 260.362646 75.09776 260.117269 75.398826 259.840567 75.731216 Q 255.220168 81.31224 250.970445 86.971577 Z" style="fill:#36a9a8;"/>
		<path d="M 245.328512 77.139089 Q 245.201473 77.635064 245.211914 78.143221 C 245.2502 80.019225 245.304148 81.900449 245.297187 83.769492 Q 245.264122 94.094474 245.257161 104.421197 Q 245.25368 108.757933 245.224096 113.152098 Q 244.246068 113.226929 243.104455 113.23563 Q 242.082921 113.244332 241.195386 113.862125 Q 238.501459 115.738129 237.271093 116.688313 C 236.891715 116.980677 236.762936 117.172106 236.797741 117.647198 Q 236.841248 118.218004 236.823845 119.820787 Q 235.368985 117.410522 234.446645 114.993296 Q 232.807317 110.694846 232.36181 109.520168 C 232.071186 108.749232 231.839731 108.007879 231.524743 107.310034 Q 229.039647 101.810802 226.14559 96.757077 Q 225.578264 95.766867 224.869977 94.865411 Q 226.002888 95.975699 226.758162 96.97287 Q 229.448609 100.533449 231.70051 104.386391 C 232.749889 106.180603 233.767943 108.162763 234.225632 110.197131 Q 234.286541 110.465131 234.328308 110.19365 Q 235.7327 101.092073 237.124911 91.999197 C 237.173638 91.68595 237.31634 91.102962 237.459041 90.746208 Q 238.129043 89.068594 238.877356 87.450149 Q 239.047902 87.084694 239.218447 86.604381 C 239.253253 86.503446 239.23411 86.390329 239.166239 86.306796 Q 235.976337 82.413827 231.797965 77.645506 Q 230.859963 76.573503 230.170819 75.924385 Q 229.934143 75.701632 229.401622 75.536307 Q 228.66027 75.304852 227.499514 75.042072 C 223.563039 74.145836 219.630044 73.254821 215.721412 72.269832 Q 202.596347 68.966813 201.346838 68.702293 Q 201.273747 68.68663 201.238941 68.623981 C 201.216318 68.583955 201.23198 68.533487 201.273747 68.514344 Q 201.607877 68.361201 201.717514 68.293331 Q 203.762323 67.022938 212.179977 61.749941 Q 213.046628 61.206979 213.59133 60.637912 Q 213.598291 60.630951 215.730114 58.337284 Q 217.016168 56.953775 224.796885 48.46303 C 224.845613 48.410823 224.929145 48.414303 224.972652 48.469992 Q 227.565644 51.800855 230.960898 56.329021 Q 237.004832 64.39166 244.287834 75.308332 Q 244.976979 76.342048 245.328512 77.139089 Z" style="fill:#f9430b;"/>
		<path d="M 281.957574 82.128424 Q 276.862083 85.454067 271.192305 89.481036 Q 270.109861 90.250233 269.305859 91.038572 Q 268.38178 91.598937 267.485544 92.298523 Q 265.440735 93.894344 263.702212 95.866062 C 262.835561 96.851051 262.120312 97.649832 261.690467 98.676588 Q 259.398541 104.163638 257.512095 109.79513 C 257.329367 110.343313 257.244095 110.780119 257.111835 111.349185 Q 257.007419 111.798173 256.930847 111.342224 C 256.518405 108.886712 256.210378 106.864526 255.686559 104.280235 Q 254.872116 100.255006 254.184712 96.469934 Q 253.97588 95.32136 253.866244 94.296345 Q 254.23692 92.157561 254.578011 90.140596 C 254.986973 87.71815 256.048534 85.307885 257.87755 83.560661 Q 259.250618 82.250242 261.206674 81.914372 Q 263.839692 81.461903 263.909303 81.449721 C 267.508168 80.818006 270.642382 78.771456 272.377424 75.525865 Q 273.056127 74.257213 273.67044 72.918951 C 273.686102 72.884145 273.733089 72.877184 273.757453 72.906769 Q 277.659123 77.523687 281.957574 82.128424 Z" style="fill:#f96206;"/>
		<path d="M 222.078594 92.462107 Q 222.11688 92.500393 222.11688 92.550861 Q 222.11862 92.575224 222.097737 92.587406 Q 222.076854 92.599588 222.054231 92.587406 Q 221.448619 92.199328 220.613293 92.025301 Q 213.472992 90.537376 210.594597 90.043141 Q 206.579809 89.353997 202.592866 88.530853 Q 201.945488 88.398593 201.513903 88.295917 Q 198.948755 87.693786 196.399269 87.227395 Q 196.035554 87.309188 195.624852 87.129941 Q 193.284198 86.101445 192.039909 85.598509 Q 191.756247 85.485392 192.055572 85.422742 Q 194.35968 84.940689 197.081452 84.289831 Q 198.583299 83.931337 207.70576 82.077956 C 208.206955 81.977021 208.466255 82.067515 208.894359 82.379022 C 213.286784 85.575885 217.787105 88.917191 222.078594 92.462107 Z" style="fill:#f96206;"/>
		<path fill-opacity="0.988" d="M 287.62039 90.083167 L 293.880117 87.229136 L 294.351729 87.042927 Q 294.416119 87.016823 294.416119 86.948953 L 294.416119 86.769706 C 294.416119 86.701836 294.36043 86.646147 294.29256 86.644407 Q 293.56339 86.633966 292.90209 86.879343 C 292.484426 87.035966 292.002373 87.154304 291.628217 87.284824 Q 288.118106 88.518671 284.484436 89.331374 C 283.31846 89.592413 282.347393 89.759478 281.160533 89.799504 Q 275.445508 89.990933 274.735481 90.03444 Q 272.245164 90.189323 269.305859 91.038572 Q 270.109861 90.250233 271.192305 89.481036 Q 276.862083 85.454067 281.957574 82.128424 Q 282.502276 82.413827 283.480304 82.6331 Q 295.166172 85.257417 296.225992 85.501054 Q 296.744591 85.619392 297.26667 85.650717 Q 297.694775 85.67508 297.301475 85.847367 L 287.62039 90.083167 Z" style="fill:#fbac4a;"/>
		<path d="M 293.880117 87.229136 L 293.587753 86.947213 Q 293.469415 86.832356 293.627779 86.877602 Q 293.808767 86.92981 293.993235 86.889784 Q 294.021079 86.882823 294.022819 86.86194 L 294.022819 86.8602 Q 294.024559 86.830615 293.989754 86.832356 L 292.90209 86.879343 Q 293.56339 86.633966 294.29256 86.644407 C 294.36043 86.646147 294.416119 86.701836 294.416119 86.769706 L 294.416119 86.948953 Q 294.416119 87.016823 294.351729 87.042927 L 293.880117 87.229136 Z" style="fill:#a73b3e;"/>
		<path d="M 287.500312 90.121453 Q 287.456806 90.377272 287.213169 90.251973 Q 287.340208 90.161479 287.500312 90.121453 Z" style="fill:#5e2c33;"/>
		<path d="M 222.576309 92.956342 L 222.054231 92.587406 Q 222.076854 92.599588 222.097737 92.587406 Q 222.11862 92.575224 222.11688 92.550861 Q 222.11688 92.500393 222.078594 92.462107 Q 222.478855 92.644835 222.576309 92.956342 Z" style="fill:#c93005;"/>
		<path d="M 236.823845 119.820787 Q 236.841248 118.218004 236.797741 117.647198 C 236.762936 117.172106 236.891715 116.980677 237.271093 116.688313 Q 238.501459 115.738129 241.195386 113.862125 Q 242.082921 113.244332 243.104455 113.23563 Q 244.246068 113.226929 245.224096 113.152098 Q 245.838409 113.152098 246.390072 113.185163 C 247.3681 113.246072 248.005037 113.263475 248.6907 113.721164 Q 250.886913 115.184725 252.613254 116.535169 Q 252.891696 116.752702 253.11445 117.008521 Q 253.163177 117.06421 253.166658 117.139041 Q 253.286736 120.160138 253.191021 122.105752 C 253.168398 122.549519 252.52102 123.050715 252.232136 123.34482 C 251.685694 123.898223 251.429875 124.759654 250.874731 125.269551 Q 249.452936 126.578229 247.784023 127.18036 Q 247.145347 127.411815 246.155137 127.434439 Q 244.047678 127.483166 243.243676 127.387451 C 242.103804 127.251711 240.922165 126.574748 239.881488 125.819474 Q 239.23585 125.349603 239.094889 125.111187 Q 238.755537 124.53516 238.343095 123.887782 Q 238.083796 123.48056 237.220625 122.697442 Q 236.874313 122.382454 236.848209 121.82383 Q 236.802962 120.866685 236.823845 119.820787 Z" style="fill:#072c45;"/>
	</g>
	<g id="surface4">
	</g>
</svg>
