<?xml version="1.0" encoding="utf-8"?>
<svg xmlns="http://www.w3.org/2000/svg" width="490pt" height="280pt" viewBox="0 0 490 280" version="1.1" xmlns:xlink="http://www.w3.org/1999/xlink">
	<g id="surface2">
		<path vector-effect="non-scaling-stroke" d="M 253.484412 11.552188 Q 253.462454 11.545431 253.442185 11.570768" style="fill:none;stroke-width:0.50;stroke:#a5aea2;"/>
		<path vector-effect="non-scaling-stroke" d="M 253.442185 11.570768 Q 253.405025 11.587658 253.362798 11.570768 C 251.633188 10.879937 249.962696 10.322543 248.400304 9.651981 Q 246.946012 9.027024 245.442738 8.393622 Q 243.550977 7.59638 235.975487 3.738539 Q 235.838672 3.669287 235.342085 3.518959 Q 235.252564 3.491934 235.166421 3.529094 L 234.951909 3.621993" style="fill:none;stroke-width:0.50;stroke:#8c9083;"/>
		<path vector-effect="non-scaling-stroke" d="M 234.951909 3.621993 Q 234.776246 3.670976 234.647876 3.738539 Q 226.384934 8.0879 217.65243 11.390037 Q 217.500413 11.447465 216.961599 11.596104" style="fill:none;stroke-width:0.50;stroke:#969c91;"/>
		<path vector-effect="non-scaling-stroke" d="M 216.961599 11.596104 Q 216.934574 11.577524 216.90586 11.558944" style="fill:none;stroke-width:0.50;stroke:#a5aea2;"/>
		<path vector-effect="non-scaling-stroke" d="M 253.442185 11.570768 Q 253.570554 11.661977 253.727638 11.716028 Q 255.739323 12.425438 257.767899 13.084176 Q 258.055041 13.177075 258.210436 13.136538" style="fill:none;stroke-width:0.50;stroke:#385056;"/>
		<path vector-effect="non-scaling-stroke" d="M 258.232394 13.15005 Q 258.409747 13.337537 258.761074 13.317268" style="fill:none;stroke-width:0.50;stroke:#385056;"/>
		<path vector-effect="non-scaling-stroke" d="M 258.761074 13.317268 Q 258.95025 13.479419 259.152939 13.420302" style="fill:none;stroke-width:0.50;stroke:#385056;"/>
		<path vector-effect="non-scaling-stroke" d="M 259.462039 13.518268 Q 259.636013 13.677041 259.784652 13.590898" style="fill:none;stroke-width:0.50;stroke:#293f46;"/>
		<path vector-effect="non-scaling-stroke" d="M 259.934979 13.634814 Q 260.801473 13.932091 261.669656 14.192208 Q 261.95511 14.278351 263.134082 14.548602 Q 263.846871 14.710753 264.556281 14.889795 Q 264.99544 14.999585 266.654109 15.276592 Q 266.665933 15.278281 267.569586 15.48097 Q 268.135426 15.607651 268.853281 15.697171 Q 271.045697 15.970801 273.241491 16.225851 Q 273.998196 16.313683 274.945765 16.33733 Q 275.802125 16.357599 276.655107 16.416716" style="fill:none;stroke-width:0.50;stroke:#4b6565;"/>
		<path vector-effect="non-scaling-stroke" d="M 276.655107 16.416716 L 278.273238 16.499481" style="fill:none;stroke-width:0.50;stroke:#385056;"/>
		<path vector-effect="non-scaling-stroke" d="M 278.273238 16.499481 L 279.359312 16.485968" style="fill:none;stroke-width:0.50;stroke:#293f46;"/>
		<path vector-effect="non-scaling-stroke" d="M 290.718324 17.012959 Q 290.635559 17.284899 290.635559 17.877764 Q 290.616979 37.597684 290.618668 57.317604 C 290.620357 61.996335 290.654139 66.717292 290.43287 70.956864 Q 290.135594 76.657483 288.890747 82.548968 Q 287.784405 87.786782 285.575098 92.582058 Q 283.38606 97.33173 280.237629 102.062821 Q 277.182097 106.655409 273.974549 110.329142 Q 266.503782 118.889361 257.507782 126.035826 C 250.525157 131.581051 243.302683 136.616176 235.521127 140.762848" style="fill:none;stroke-width:0.50;stroke:#586d6f;"/>
		<path vector-effect="non-scaling-stroke" d="M 235.521127 140.762848 Q 235.453564 140.734134 235.396135 140.666571 Q 235.338707 140.602386 235.338707 140.516244 L 235.360665 127.088118" style="fill:none;stroke-width:0.50;stroke:#293f46;"/>
		<path vector-effect="non-scaling-stroke" d="M 235.360665 127.088118 Q 235.424849 127.018866 235.421471 127.052648" style="fill:none;stroke-width:0.50;stroke:#877a51;"/>
		<path vector-effect="non-scaling-stroke" d="M 235.421471 127.052648 Q 236.026159 126.817867 236.617335 126.542548 Q 241.530846 124.247098 245.974796 121.341894 Q 251.962557 117.428313 256.440288 113.607631 C 268.45466 103.353273 276.585855 88.785023 279.30695 73.188129 Q 279.839008 70.132597 279.987647 66.712225 C 279.991025 66.626082 279.903193 66.565276 279.823807 66.600746 Q 277.052039 67.830391 274.439044 68.674927 Q 274.182305 68.757692 273.814087 68.81512 Q 273.456004 68.872549 273.185752 68.945179" style="fill:none;stroke-width:0.50;stroke:#385056;"/>
		<path vector-effect="non-scaling-stroke" d="M 273.185752 68.945179 L 235.325194 68.980649" style="fill:none;stroke-width:0.50;stroke:#4b6565;"/>
		<path vector-effect="non-scaling-stroke" d="M 235.325194 68.980649 L 235.323505 63.49792" style="fill:none;stroke-width:0.50;stroke:#625d4e;"/>
		<path vector-effect="non-scaling-stroke" d="M 235.323505 63.49792 Q 235.357287 63.376307 235.33195 63.40671" style="fill:none;stroke-width:0.50;stroke:#8c9083;"/>
		<path vector-effect="non-scaling-stroke" d="M 235.33195 63.40671 Q 235.534639 63.484408 235.745773 63.484408 Q 257.950319 63.452315 279.877857 63.48103 C 279.923462 63.48103 279.960621 63.44387 279.960621 63.398265 L 279.960621 30.925848 C 279.960621 30.861663 279.90826 30.809302 279.844075 30.810991 C 273.893473 30.865042 267.961451 30.66742 262.120639 29.919161 Q 257.759454 29.358389 252.553733 27.97335 Q 245.260318 26.032605 238.656045 22.495688 C 237.644291 21.955185 236.49741 21.230573 235.414715 20.605616" style="fill:none;stroke-width:0.50;stroke:#4b6565;"/>
		<path vector-effect="non-scaling-stroke" d="M 235.414715 20.605616 Q 235.16811 20.560011 235.313371 20.560011" style="fill:none;stroke-width:0.50;stroke:#8c9083;"/>
		<path vector-effect="non-scaling-stroke" d="M 235.313371 20.560011 Q 235.304925 13.177075 235.306614 5.758669 Q 235.308303 5.067839 235.325194 4.377008 Q 235.33364 4.088177 235.29648 3.942917 Q 235.206959 3.59159 234.951909 3.621993" style="fill:none;stroke-width:0.50;stroke:#293f46;"/>
		<path vector-effect="non-scaling-stroke" d="M 235.313371 20.560011 C 228.79524 24.826608 221.356565 27.562905 213.808101 29.078003 Q 207.337264 30.3769 199.685766 30.637017 Q 194.90907 30.799168 190.444851 30.83126 Q 190.292835 30.832949 190.292835 30.984966 L 190.291146 63.504677" style="fill:none;stroke-width:0.50;stroke:#969c91;"/>
		<path vector-effect="non-scaling-stroke" d="M 190.291146 63.504677 L 190.267499 66.482511" style="fill:none;stroke-width:0.50;stroke:#6c6a5d;"/>
		<path vector-effect="non-scaling-stroke" d="M 190.267499 66.482511 C 190.669498 79.687679 195.074599 92.413151 203.170323 102.856686 C 205.423545 105.763579 208.144641 108.521834 210.808308 110.888225 C 214.005722 113.732623 217.426094 116.293256 220.973146 118.733966 Q 227.840914 123.46168 235.360665 127.088118" style="fill:none;stroke-width:0.50;stroke:#91865f;"/>
		<path vector-effect="non-scaling-stroke" d="M 235.521127 140.762848 Q 235.141085 141.127688 234.261079 140.626034" style="fill:none;stroke-width:0.50;stroke:#627a7d;"/>
		<path vector-effect="non-scaling-stroke" d="M 200.295522 15.842432 Q 200.749882 15.933642 201.086007 15.722507" style="fill:none;stroke-width:0.50;stroke:#425d65;"/>
		<path vector-effect="non-scaling-stroke" d="M 206.705551 14.660081 Q 211.914651 13.472663 216.961599 11.596104" style="fill:none;stroke-width:0.50;stroke:#425d65;"/>
		<path vector-effect="non-scaling-stroke" d="M 235.35053 76.976718 Q 243.684413 76.576408 251.861213 75.051176 Q 257.577034 73.985371 263.154351 72.297988 C 263.169553 72.29292 263.181376 72.286164 263.1932 72.277719 Q 263.308057 72.193265 263.226981 72.154416" style="fill:none;stroke-width:0.50;stroke:#385056;"/>
		<path vector-effect="non-scaling-stroke" d="M 263.226981 72.154416 C 263.779308 72.048005 264.331635 71.973686 264.862003 71.818291 Q 267.770586 70.966999 272.143594 69.468791 Q 272.822601 69.235699 273.185752 68.945179" style="fill:none;stroke-width:0.50;stroke:#648384;"/>
		<path vector-effect="non-scaling-stroke" d="M 235.325194 68.980649 Q 235.303236 69.002607 235.311682 69.049901" style="fill:none;stroke-width:0.50;stroke:#8e907c;"/>
		<path vector-effect="non-scaling-stroke" d="M 235.311682 69.049901 Q 235.24243 68.948557 235.085346 68.963759 Q 234.894481 68.984028 234.884346 68.984028 Q 216.904171 68.985717 198.923995 69.000918 Q 198.356466 69.000918 197.790627 69.024565" style="fill:none;stroke-width:0.50;stroke:#cfbb9a;"/>
		<path vector-effect="non-scaling-stroke" d="M 197.790627 69.024565 Q 197.393695 69.012742 197.245057 68.96207 Q 193.755433 67.791542 190.267499 66.482511" style="fill:none;stroke-width:0.50;stroke:#c9a568;"/>
		<path vector-effect="non-scaling-stroke" d="M 197.790627 69.024565 Q 197.800762 69.046523 197.805829 69.075237 Q 197.812585 69.124221 197.85819 69.137733 L 207.279836 72.151038" style="fill:none;stroke-width:0.50;stroke:#f4d79c;"/>
		<path vector-effect="non-scaling-stroke" d="M 207.279836 72.151038 Q 209.575285 72.958415 212.353809 73.650935 Q 220.772146 75.748763 229.03171 76.578097 Q 232.572006 76.934491 235.330261 77.007121" style="fill:none;stroke-width:0.50;stroke:#c9a568;"/>
		<path vector-effect="non-scaling-stroke" d="M 235.330261 77.007121 Q 235.340396 76.99192 235.35053 76.976718" style="fill:none;stroke-width:0.50;stroke:#877a51;"/>
		<path vector-effect="non-scaling-stroke" d="M 235.35053 76.976718 L 235.421471 127.052648" style="fill:none;stroke-width:0.50;stroke:#a09870;"/>
		<path vector-effect="non-scaling-stroke" d="M 235.414715 20.605616 L 235.33195 63.40671" style="fill:none;stroke-width:0.50;stroke:#b8c2b1;"/>
		<path vector-effect="non-scaling-stroke" d="M 235.323505 63.49792 L 190.291146 63.504677" style="fill:none;stroke-width:0.50;stroke:#cfbb9a;"/>
		<path vector-effect="non-scaling-stroke" d="M 278.769825 16.462321 L 278.273238 16.499481" style="fill:none;stroke-width:0.50;stroke:#425d65;"/>
		<path vector-effect="non-scaling-stroke" d="M 263.226981 72.154416 L 235.330261 72.16624" style="fill:none;stroke-width:0.50;stroke:#4b6565;"/>
		<path vector-effect="non-scaling-stroke" d="M 235.330261 72.16624 L 235.311682 69.049901" style="fill:none;stroke-width:0.50;stroke:#b8c2b1;"/>
		<path vector-effect="non-scaling-stroke" d="M 276.800367 16.335641 Q 276.759829 16.418405 276.655107 16.416716" style="fill:none;stroke-width:0.50;stroke:#648384;"/>
		<path vector-effect="non-scaling-stroke" d="M 235.330261 72.16624 L 207.279836 72.151038" style="fill:none;stroke-width:0.50;stroke:#cfbb9a;"/>
		<path vector-effect="non-scaling-stroke" d="M 235.330261 72.16624 L 235.330261 77.007121" style="fill:none;stroke-width:0.50;stroke:#625d4e;"/>
		<path vector-effect="non-scaling-stroke" d="M 214.848569 47.718606 Q 214.635746 48.063177 214.583385 48.304714 Q 214.088487 50.571449 213.588521 52.576378 Q 213.531093 52.806092 213.73716 52.687857 C 215.818097 51.493683 216.546087 51.039322 218.020647 50.365382 C 218.14395 50.309643 218.287521 50.316399 218.405756 50.383962 L 222.525403 52.762176 C 222.596345 52.804403 222.682487 52.735151 222.657151 52.655765 Q 221.925783 50.29782 221.538985 47.78448 C 221.525473 47.691581 221.560943 47.596993 221.633573 47.537875 Q 222.199413 47.075069 222.849705 46.659558 Q 223.163873 46.456869 224.285417 45.431602 C 224.668836 45.078586 225.146844 44.774553 225.515062 44.497545 Q 225.683969 44.369175 225.474524 44.345528 Q 223.043949 44.071899 220.481626 44.100613 C 220.332988 44.102302 220.197862 44.01447 220.137055 43.879344 L 218.209824 39.557008 C 218.170975 39.470865 218.049362 39.472555 218.013891 39.560386 L 216.257256 43.943529 C 216.220096 44.036428 216.130575 44.098924 216.03092 44.100613 Q 213.823302 44.139462 211.573458 44.372554 C 211.431576 44.387755 211.26098 44.353974 211.146123 44.345528 Q 210.671493 44.308369 211.071804 44.617469 L 214.808032 47.497338 Q 214.927956 47.590237 214.848569 47.718606" style="fill:none;stroke-width:0.50;stroke:#cfbb9a;"/>
		<path vector-effect="non-scaling-stroke" d="M 248.021951 52.834806 Q 247.994926 52.784134 247.984792 52.878722" style="fill:none;stroke-width:0.50;stroke:#7b775d;"/>
		<path vector-effect="non-scaling-stroke" d="M 247.984792 52.878722 Q 247.832775 53.047629 248.028708 53.091545 C 248.074313 53.10168 248.121607 53.091545 248.160455 53.066209 L 251.724398 50.645768 Q 251.807163 50.58834 251.898373 50.633945 L 255.090719 52.247009 Q 255.138013 52.270656 255.188686 52.268967 Q 255.237669 52.267278 255.295097 52.29937 Q 255.78155 52.564555 256.301784 52.61016 Q 256.394683 52.616916 256.440288 52.697991 Q 256.482515 52.770622 256.550078 52.822983 Q 256.609195 52.868588 256.675069 52.858453 Q 256.769657 52.844941 256.789926 52.753731 Q 256.798372 52.71826 256.778103 52.681101 C 256.74601 52.620294 256.712229 52.584824 256.697027 52.51895 Q 256.279826 50.758936 255.90823 49.38741 C 255.768037 48.873932 255.707231 48.390857 255.587307 47.98379 Q 255.561971 47.901026 255.626155 47.841908 C 256.465624 47.076759 257.230774 46.529499 258.104025 45.811643 Q 259.244148 44.874208 259.264417 44.862385 Q 259.602232 44.661385 259.271174 44.457007 C 259.242459 44.440116 259.210367 44.429982 259.178275 44.428293 L 254.714056 44.318503 Q 254.626224 44.316814 254.558662 44.369175 Q 254.475897 44.43336 254.396511 44.460385 Q 254.301923 44.492478 254.266452 44.399579 Q 253.531706 42.474036 252.74122 40.109335 Q 252.72264 40.051906 252.560489 40.197167" style="fill:none;stroke-width:0.50;stroke:#b3ac7f;"/>
		<path vector-effect="non-scaling-stroke" d="M 252.560489 40.197167 Q 252.707438 40.001234 252.388204 39.9911" style="fill:none;stroke-width:0.50;stroke:#7b775d;"/>
		<path vector-effect="non-scaling-stroke" d="M 252.388204 39.9911 Q 252.435498 39.903268 252.476035 39.805302 Q 252.499682 39.747873 252.491237 39.697201 Q 252.460834 39.519849 252.253078 39.678621 C 252.214229 39.707336 252.185515 39.746184 252.170313 39.791789 C 252.040255 40.15494 251.839255 40.408301 251.759869 40.735981 C 251.685549 41.04677 251.455836 41.325467 251.347735 41.626122 Q 250.917021 42.818607 250.259972 43.919882 Q 250.058973 44.257697 249.763385 44.245873 Q 247.849666 44.166487 245.94946 44.348907 C 245.716368 44.370865 245.523813 44.441806 245.32957 44.472209 Q 244.650563 44.581999 245.290721 44.972174 C 245.562662 45.139392 245.768729 45.441736 246.084585 45.691719 Q 247.329432 46.683205 248.579345 47.625707 C 248.773589 47.772656 248.854664 47.938185 248.706026 48.142563 C 248.672244 48.186479 248.653664 48.23884 248.651975 48.29458 C 248.601303 49.314779 248.29727 50.399164 248.141876 51.475103 Q 248.065867 51.99027 247.922296 52.706437 Q 247.910473 52.760487 248.021951 52.834806" style="fill:none;stroke-width:0.50;stroke:#b3ac7f;"/>
		<path vector-effect="non-scaling-stroke" d="M 252.388204 39.9911 Q 252.062213 40.786653 251.911885 41.609231 Q 251.62981 43.146287 251.291996 44.700234 C 251.276794 44.774553 251.21092 44.828603 251.133223 44.830292 L 245.812645 44.94346 Q 245.761973 44.945149 245.775485 44.992443 Q 245.792376 45.05325 245.892031 45.12588 Q 247.410507 46.2356 248.918849 47.541253 C 249.06242 47.666245 249.239773 47.764211 249.398545 47.87569 Q 249.472865 47.926362 249.457663 48.014194 Q 249.19079 49.579964 248.756698 50.779205 Q 248.628328 51.130532 248.418883 51.816296 Q 248.258422 52.338219 248.021951 52.834806" style="fill:none;stroke-width:0.50;stroke:#b68c49;"/>
		<path vector-effect="non-scaling-stroke" d="M 252.560489 40.197167 L 254.068831 44.592133 C 254.08741 44.647872 254.139772 44.685032 254.198889 44.685032 L 258.984031 44.685032 Q 259.134359 44.685032 259.016124 44.77962 L 255.357593 47.69327 C 255.305232 47.733808 255.281585 47.80306 255.298475 47.867244 L 256.372725 52.28248 Q 256.43691 52.544286 256.208885 52.400715 Q 254.459006 51.290994 252.420296 50.488685 Q 252.101061 50.363693 251.940599 50.331601 Q 251.857835 50.31471 251.788583 50.363693 Q 250.165384 51.508884 248.33443 52.719949 Q 248.123296 52.858453 247.984792 52.878722" style="fill:none;stroke-width:0.50;stroke:#b68c49;"/>
		<path d="M 253.484412 11.552188 Q 253.462454 11.545431 253.442185 11.570768 Q 253.405025 11.587658 253.362798 11.570768 C 251.633188 10.879937 249.962696 10.322543 248.400304 9.651981 Q 246.946012 9.027024 245.442738 8.393622 Q 243.550977 7.59638 235.975487 3.738539 Q 235.838672 3.669287 235.342085 3.518959 Q 235.252564 3.491934 235.166421 3.529094 L 234.951909 3.621993 Q 234.776246 3.670976 234.647876 3.738539 Q 226.384934 8.0879 217.65243 11.390037 Q 217.500413 11.447465 216.961599 11.596104 Q 216.934574 11.577524 216.90586 11.558944 Q 219.142191 10.785349 221.322784 9.876628 Q 227.864561 7.143709 234.394515 3.723337 Q 234.69517 3.564564 235.239051 3.388901 C 235.291413 3.37201 235.348841 3.375388 235.399513 3.395657 Q 236.186621 3.723337 236.688276 3.980076 Q 241.931156 6.6505 243.552666 7.419028 Q 246.821021 8.967907 250.243082 10.293829 Q 251.864591 10.920475 253.484412 11.552188 Z" style="fill:#f9edce;"/>
		<path d="M 253.442185 11.570768 Q 253.570554 11.661977 253.727638 11.716028 Q 255.739323 12.425438 257.767899 13.084176 Q 258.055041 13.177075 258.210436 13.136538 Q 258.29489 13.13147 258.232394 13.15005 Q 258.409747 13.337537 258.761074 13.317268 Q 258.95025 13.479419 259.152939 13.420302 Q 259.315089 13.438882 259.462039 13.518268 Q 259.636013 13.677041 259.784652 13.590898 Q 259.86066 13.58752 259.934979 13.634814 Q 260.801473 13.932091 261.669656 14.192208 Q 261.95511 14.278351 263.134082 14.548602 Q 263.846871 14.710753 264.556281 14.889795 Q 264.99544 14.999585 266.654109 15.276592 Q 266.665933 15.278281 267.569586 15.48097 Q 268.135426 15.607651 268.853281 15.697171 Q 271.045697 15.970801 273.241491 16.225851 Q 273.998196 16.313683 274.945765 16.33733 Q 275.802125 16.357599 276.655107 16.416716 L 278.273238 16.499481 L 279.359312 16.485968 C 282.980683 16.550153 286.600365 16.487657 290.225114 16.541708 Q 290.480164 16.545086 290.583198 16.614338 Q 290.767307 16.73764 290.718324 17.012959 Q 290.635559 17.284899 290.635559 17.877764 Q 290.616979 37.597684 290.618668 57.317604 C 290.620357 61.996335 290.654139 66.717292 290.43287 70.956864 Q 290.135594 76.657483 288.890747 82.548968 Q 287.784405 87.786782 285.575098 92.582058 Q 283.38606 97.33173 280.237629 102.062821 Q 277.182097 106.655409 273.974549 110.329142 Q 266.503782 118.889361 257.507782 126.035826 C 250.525157 131.581051 243.302683 136.616176 235.521127 140.762848 Q 235.453564 140.734134 235.396135 140.666571 Q 235.338707 140.602386 235.338707 140.516244 L 235.360665 127.088118 Q 235.424849 127.018866 235.421471 127.052648 Q 236.026159 126.817867 236.617335 126.542548 Q 241.530846 124.247098 245.974796 121.341894 Q 251.962557 117.428313 256.440288 113.607631 C 268.45466 103.353273 276.585855 88.785023 279.30695 73.188129 Q 279.839008 70.132597 279.987647 66.712225 C 279.991025 66.626082 279.903193 66.565276 279.823807 66.600746 Q 277.052039 67.830391 274.439044 68.674927 Q 274.182305 68.757692 273.814087 68.81512 Q 273.456004 68.872549 273.185752 68.945179 L 235.325194 68.980649 L 235.323505 63.49792 Q 235.357287 63.376307 235.33195 63.40671 Q 235.534639 63.484408 235.745773 63.484408 Q 257.950319 63.452315 279.877857 63.48103 C 279.923462 63.48103 279.960621 63.44387 279.960621 63.398265 L 279.960621 30.925848 C 279.960621 30.861663 279.90826 30.809302 279.844075 30.810991 C 273.893473 30.865042 267.961451 30.66742 262.120639 29.919161 Q 257.759454 29.358389 252.553733 27.97335 Q 245.260318 26.032605 238.656045 22.495688 C 237.644291 21.955185 236.49741 21.230573 235.414715 20.605616 Q 235.16811 20.560011 235.313371 20.560011 Q 235.304925 13.177075 235.306614 5.758669 Q 235.308303 5.067839 235.325194 4.377008 Q 235.33364 4.088177 235.29648 3.942917 Q 235.206959 3.59159 234.951909 3.621993 L 235.166421 3.529094 Q 235.252564 3.491934 235.342085 3.518959 Q 235.838672 3.669287 235.975487 3.738539 Q 243.550977 7.59638 245.442738 8.393622 Q 246.946012 9.027024 248.400304 9.651981 C 249.962696 10.322543 251.633188 10.879937 253.362798 11.570768 Q 253.405025 11.587658 253.442185 11.570768 Z" style="fill:#1f3237;"/>
		<path d="M 234.951909 3.621993 Q 235.206959 3.59159 235.29648 3.942917 Q 235.33364 4.088177 235.325194 4.377008 Q 235.308303 5.067839 235.306614 5.758669 Q 235.304925 13.177075 235.313371 20.560011 C 228.79524 24.826608 221.356565 27.562905 213.808101 29.078003 Q 207.337264 30.3769 199.685766 30.637017 Q 194.90907 30.799168 190.444851 30.83126 Q 190.292835 30.832949 190.292835 30.984966 L 190.291146 63.504677 L 190.267499 66.482511 C 190.669498 79.687679 195.074599 92.413151 203.170323 102.856686 C 205.423545 105.763579 208.144641 108.521834 210.808308 110.888225 C 214.005722 113.732623 217.426094 116.293256 220.973146 118.733966 Q 227.840914 123.46168 235.360665 127.088118 L 235.338707 140.516244 Q 235.338707 140.602386 235.396135 140.666571 Q 235.453564 140.734134 235.521127 140.762848 Q 235.141085 141.127688 234.261079 140.626034 Q 232.136225 139.232549 229.972524 137.825551 Q 219.657359 131.1098 210.318477 123.546133 C 204.334094 118.698496 198.729751 113.401565 193.833131 107.336106 Q 193.182838 106.530418 191.828202 104.731556 C 190.10197 102.437796 188.679771 100.231867 187.311622 97.921216 C 185.152988 94.27282 183.38284 90.367684 182.224136 86.280129 C 181.035029 82.084473 180.239476 77.549314 179.872947 72.963482 C 179.766536 71.651073 179.621275 70.264344 179.592561 68.933355 Q 179.518242 65.511295 179.516553 62.626359 Q 179.492906 30.876865 179.50304 18.384486 Q 179.50304 17.658184 179.536822 16.7748 C 179.541889 16.641363 179.651679 16.53664 179.785115 16.53664 Q 185.446886 16.558598 189.257433 16.524817 Q 190.787733 16.511304 192.633889 16.396447 C 195.295867 16.230918 197.34809 16.166734 200.26174 15.800205 Q 200.270186 15.798516 200.275253 15.805272 Q 200.285387 15.823852 200.295522 15.842432 Q 200.749882 15.933642 201.086007 15.722507 L 206.705551 14.660081 Q 211.914651 13.472663 216.961599 11.596104 Q 217.500413 11.447465 217.65243 11.390037 Q 226.384934 8.0879 234.647876 3.738539 Q 234.776246 3.670976 234.951909 3.621993 Z" style="fill:#334b54;"/>
		<path d="M 258.210436 13.136538 Q 258.055041 13.177075 257.767899 13.084176 Q 255.739323 12.425438 253.727638 11.716028 Q 253.570554 11.661977 253.442185 11.570768 Q 253.462454 11.545431 253.484412 11.552188 L 258.210436 13.136538 Z" style="fill:#516e75;"/>
		<path d="M 216.90586 11.558944 Q 216.934574 11.577524 216.961599 11.596104 Q 211.914651 13.472663 206.705551 14.660081 Q 211.877491 13.324025 216.90586 11.558944 Z" style="fill:#516e75;"/>
		<path d="M 258.761074 13.317268 Q 258.409747 13.337537 258.232394 13.15005 Q 258.527982 13.192277 258.761074 13.317268 Z" style="fill:#516e75;"/>
		<path d="M 259.152939 13.420302 Q 258.95025 13.479419 258.761074 13.317268 L 259.152939 13.420302 Z" style="fill:#516e75;"/>
		<path d="M 259.462039 13.518268 L 259.784652 13.590898 Q 259.636013 13.677041 259.462039 13.518268 Z" style="fill:#334b54;"/>
		<path d="M 276.800367 16.335641 Q 276.759829 16.418405 276.655107 16.416716 Q 275.802125 16.357599 274.945765 16.33733 Q 273.998196 16.313683 273.241491 16.225851 Q 271.045697 15.970801 268.853281 15.697171 Q 268.135426 15.607651 267.569586 15.48097 Q 266.665933 15.278281 266.654109 15.276592 Q 264.99544 14.999585 264.556281 14.889795 Q 263.846871 14.710753 263.134082 14.548602 Q 261.95511 14.278351 261.669656 14.192208 Q 260.801473 13.932091 259.934979 13.634814 Q 261.750732 14.146603 263.57493 14.587451 Q 264.863692 14.899929 265.900783 15.055324 C 266.94294 15.210719 267.929359 15.49955 269.000231 15.627919 Q 271.158865 15.882969 273.256693 16.126196 C 274.376548 16.254565 275.614638 16.273145 276.800367 16.335641 Z" style="fill:#779793;"/>
		<path d="M 201.086007 15.722507 Q 200.749882 15.933642 200.295522 15.842432 Q 200.684008 15.707306 201.086007 15.722507 Z" style="fill:#516e75;"/>
		<path d="M 278.769825 16.462321 L 278.273238 16.499481 L 276.655107 16.416716 Q 276.759829 16.418405 276.800367 16.335641 L 278.769825 16.462321 Z" style="fill:#516e75;"/>
		<path d="M 279.359312 16.485968 L 278.273238 16.499481 L 278.769825 16.462321 L 279.359312 16.485968 Z" style="fill:#334b54;"/>
		<path d="M 290.718324 17.012959 Q 291.226734 17.511235 291.846624 17.813579 Q 293.057689 18.406444 294.62177 19.281383 Q 300.202465 22.4011 308.22387 27.33488 Q 309.083608 27.865249 309.806531 28.48176 C 310.201774 28.819575 310.129144 29.282381 310.176438 29.767145 Q 310.20853 30.096514 310.20853 30.398858 Q 310.20853 31.380209 310.198396 36.204199 Q 310.17306 49.188099 310.191639 92.749276 Q 310.191639 93.490779 310.127455 94.230593 Q 310.091984 94.63597 309.654514 95.669682 C 307.337107 101.149033 304.470751 106.4713 301.117942 111.597635 Q 290.407534 127.978259 274.418775 139.480842 Q 266.317984 145.308142 256.545011 150.030789 Q 255.075518 150.740199 253.673588 151.250299 C 252.802026 151.566155 251.805474 151.260433 250.889996 150.755401 C 247.467936 148.865329 245.322814 147.510693 240.211681 144.424757 C 238.238844 143.233961 236.237293 141.913107 234.261079 140.626034 Q 235.141085 141.127688 235.521127 140.762848 C 243.302683 136.616176 250.525157 131.581051 257.507782 126.035826 Q 266.503782 118.889361 273.974549 110.329142 Q 277.182097 106.655409 280.237629 102.062821 Q 283.38606 97.33173 285.575098 92.582058 Q 287.784405 87.786782 288.890747 82.548968 Q 290.135594 76.657483 290.43287 70.956864 C 290.654139 66.717292 290.620357 61.996335 290.618668 57.317604 Q 290.616979 37.597684 290.635559 17.877764 Q 290.635559 17.284899 290.718324 17.012959 Z" style="fill:#91a8a6;"/>
		<path d="M 235.414715 20.605616 L 235.33195 63.40671 Q 235.357287 63.376307 235.323505 63.49792 L 190.291146 63.504677 L 190.292835 30.984966 Q 190.292835 30.832949 190.444851 30.83126 Q 194.90907 30.799168 199.685766 30.637017 Q 207.337264 30.3769 213.808101 29.078003 C 221.356565 27.562905 228.79524 24.826608 235.313371 20.560011 Q 235.16811 20.560011 235.414715 20.605616 Z M 214.848569 47.718606 Q 214.635746 48.063177 214.583385 48.304714 Q 214.088487 50.571449 213.588521 52.576378 Q 213.531093 52.806092 213.73716 52.687857 C 215.818097 51.493683 216.546087 51.039322 218.020647 50.365382 C 218.14395 50.309643 218.287521 50.316399 218.405756 50.383962 L 222.525403 52.762176 C 222.596345 52.804403 222.682487 52.735151 222.657151 52.655765 Q 221.925783 50.29782 221.538985 47.78448 C 221.525473 47.691581 221.560943 47.596993 221.633573 47.537875 Q 222.199413 47.075069 222.849705 46.659558 Q 223.163873 46.456869 224.285417 45.431602 C 224.668836 45.078586 225.146844 44.774553 225.515062 44.497545 Q 225.683969 44.369175 225.474524 44.345528 Q 223.043949 44.071899 220.481626 44.100613 C 220.332988 44.102302 220.197862 44.01447 220.137055 43.879344 L 218.209824 39.557008 C 218.170975 39.470865 218.049362 39.472555 218.013891 39.560386 L 216.257256 43.943529 C 216.220096 44.036428 216.130575 44.098924 216.03092 44.100613 Q 213.823302 44.139462 211.573458 44.372554 C 211.431576 44.387755 211.26098 44.353974 211.146123 44.345528 Q 210.671493 44.308369 211.071804 44.617469 L 214.808032 47.497338 Q 214.927956 47.590237 214.848569 47.718606 Z" style="fill:#f9edce;"/>
		<path d="M 235.33195 63.40671 L 235.414715 20.605616 C 236.49741 21.230573 237.644291 21.955185 238.656045 22.495688 Q 245.260318 26.032605 252.553733 27.97335 Q 257.759454 29.358389 262.120639 29.919161 C 267.961451 30.66742 273.893473 30.865042 279.844075 30.810991 C 279.90826 30.809302 279.960621 30.861663 279.960621 30.925848 L 279.960621 63.398265 C 279.960621 63.44387 279.923462 63.48103 279.877857 63.48103 Q 257.950319 63.452315 235.745773 63.484408 Q 235.534639 63.484408 235.33195 63.40671 Z M 248.021951 52.834806 Q 247.994926 52.784134 247.984792 52.878722 Q 247.832775 53.047629 248.028708 53.091545 C 248.074313 53.10168 248.121607 53.091545 248.160455 53.066209 L 251.724398 50.645768 Q 251.807163 50.58834 251.898373 50.633945 L 255.090719 52.247009 Q 255.138013 52.270656 255.188686 52.268967 Q 255.237669 52.267278 255.295097 52.29937 Q 255.78155 52.564555 256.301784 52.61016 Q 256.394683 52.616916 256.440288 52.697991 Q 256.482515 52.770622 256.550078 52.822983 Q 256.609195 52.868588 256.675069 52.858453 Q 256.769657 52.844941 256.789926 52.753731 Q 256.798372 52.71826 256.778103 52.681101 C 256.74601 52.620294 256.712229 52.584824 256.697027 52.51895 Q 256.279826 50.758936 255.90823 49.38741 C 255.768037 48.873932 255.707231 48.390857 255.587307 47.98379 Q 255.561971 47.901026 255.626155 47.841908 C 256.465624 47.076759 257.230774 46.529499 258.104025 45.811643 Q 259.244148 44.874208 259.264417 44.862385 Q 259.602232 44.661385 259.271174 44.457007 C 259.242459 44.440116 259.210367 44.429982 259.178275 44.428293 L 254.714056 44.318503 Q 254.626224 44.316814 254.558662 44.369175 Q 254.475897 44.43336 254.396511 44.460385 Q 254.301923 44.492478 254.266452 44.399579 Q 253.531706 42.474036 252.74122 40.109335 Q 252.72264 40.051906 252.560489 40.197167 Q 252.707438 40.001234 252.388204 39.9911 Q 252.435498 39.903268 252.476035 39.805302 Q 252.499682 39.747873 252.491237 39.697201 Q 252.460834 39.519849 252.253078 39.678621 C 252.214229 39.707336 252.185515 39.746184 252.170313 39.791789 C 252.040255 40.15494 251.839255 40.408301 251.759869 40.735981 C 251.685549 41.04677 251.455836 41.325467 251.347735 41.626122 Q 250.917021 42.818607 250.259972 43.919882 Q 250.058973 44.257697 249.763385 44.245873 Q 247.849666 44.166487 245.94946 44.348907 C 245.716368 44.370865 245.523813 44.441806 245.32957 44.472209 Q 244.650563 44.581999 245.290721 44.972174 C 245.562662 45.139392 245.768729 45.441736 246.084585 45.691719 Q 247.329432 46.683205 248.579345 47.625707 C 248.773589 47.772656 248.854664 47.938185 248.706026 48.142563 C 248.672244 48.186479 248.653664 48.23884 248.651975 48.29458 C 248.601303 49.314779 248.29727 50.399164 248.141876 51.475103 Q 248.065867 51.99027 247.922296 52.706437 Q 247.910473 52.760487 248.021951 52.834806 Z" style="fill:#779793;"/>
		<path d="M 235.323505 63.49792 L 235.325194 68.980649 Q 235.303236 69.002607 235.311682 69.049901 Q 235.24243 68.948557 235.085346 68.963759 Q 234.894481 68.984028 234.884346 68.984028 Q 216.904171 68.985717 198.923995 69.000918 Q 198.356466 69.000918 197.790627 69.024565 Q 197.393695 69.012742 197.245057 68.96207 Q 193.755433 67.791542 190.267499 66.482511 L 190.291146 63.504677 L 235.323505 63.49792 Z" style="fill:#a48865;"/>
		<path d="M 197.790627 69.024565 Q 197.800762 69.046523 197.805829 69.075237 Q 197.812585 69.124221 197.85819 69.137733 L 207.279836 72.151038 Q 209.575285 72.958415 212.353809 73.650935 Q 220.772146 75.748763 229.03171 76.578097 Q 232.572006 76.934491 235.330261 77.007121 Q 235.340396 76.99192 235.35053 76.976718 L 235.421471 127.052648 Q 235.424849 127.018866 235.360665 127.088118 Q 227.840914 123.46168 220.973146 118.733966 C 217.426094 116.293256 214.005722 113.732623 210.808308 110.888225 C 208.144641 108.521834 205.423545 105.763579 203.170323 102.856686 C 195.074599 92.413151 190.669498 79.687679 190.267499 66.482511 Q 193.755433 67.791542 197.245057 68.96207 Q 197.393695 69.012742 197.790627 69.024565 Z" style="fill:#eec16a;"/>
		<path d="M 235.421471 127.052648 L 235.35053 76.976718 Q 243.684413 76.576408 251.861213 75.051176 Q 257.577034 73.985371 263.154351 72.297988 C 263.169553 72.29292 263.181376 72.286164 263.1932 72.277719 Q 263.308057 72.193265 263.226981 72.154416 C 263.779308 72.048005 264.331635 71.973686 264.862003 71.818291 Q 267.770586 70.966999 272.143594 69.468791 Q 272.822601 69.235699 273.185752 68.945179 Q 273.456004 68.872549 273.814087 68.81512 Q 274.182305 68.757692 274.439044 68.674927 Q 277.052039 67.830391 279.823807 66.600746 C 279.903193 66.565276 279.991025 66.626082 279.987647 66.712225 Q 279.839008 70.132597 279.30695 73.188129 C 276.585855 88.785023 268.45466 103.353273 256.440288 113.607631 Q 251.962557 117.428313 245.974796 121.341894 Q 241.530846 124.247098 236.617335 126.542548 Q 236.026159 126.817867 235.421471 127.052648 Z" style="fill:#516e75;"/>
		<path d="M 273.185752 68.945179 Q 272.822601 69.235699 272.143594 69.468791 Q 267.770586 70.966999 264.862003 71.818291 C 264.331635 71.973686 263.779308 72.048005 263.226981 72.154416 L 235.330261 72.16624 L 235.311682 69.049901 Q 235.303236 69.002607 235.325194 68.980649 L 273.185752 68.945179 Z" style="fill:#779793;"/>
		<path d="M 235.311682 69.049901 L 235.330261 72.16624 L 207.279836 72.151038 L 197.85819 69.137733 Q 197.812585 69.124221 197.805829 69.075237 Q 197.800762 69.046523 197.790627 69.024565 Q 198.356466 69.000918 198.923995 69.000918 Q 216.904171 68.985717 234.884346 68.984028 Q 234.894481 68.984028 235.085346 68.963759 Q 235.24243 68.948557 235.311682 69.049901 Z" style="fill:#f9edce;"/>
		<path d="M 235.330261 72.16624 L 235.330261 77.007121 Q 232.572006 76.934491 229.03171 76.578097 Q 220.772146 75.748763 212.353809 73.650935 Q 209.575285 72.958415 207.279836 72.151038 L 235.330261 72.16624 Z" style="fill:#a48865;"/>
		<path d="M 263.226981 72.154416 Q 263.308057 72.193265 263.1932 72.277719 C 263.181376 72.286164 263.169553 72.29292 263.154351 72.297988 Q 257.577034 73.985371 251.861213 75.051176 Q 243.684413 76.576408 235.35053 76.976718 Q 235.340396 76.99192 235.330261 77.007121 L 235.330261 72.16624 L 263.226981 72.154416 Z" style="fill:#1f3237;"/>
		<path d="M 214.848569 47.718606 Q 214.927956 47.590237 214.808032 47.497338 L 211.071804 44.617469 Q 210.671493 44.308369 211.146123 44.345528 C 211.26098 44.353974 211.431576 44.387755 211.573458 44.372554 Q 213.823302 44.139462 216.03092 44.100613 C 216.130575 44.098924 216.220096 44.036428 216.257256 43.943529 L 218.013891 39.560386 C 218.049362 39.472555 218.170975 39.470865 218.209824 39.557008 L 220.137055 43.879344 C 220.197862 44.01447 220.332988 44.102302 220.481626 44.100613 Q 223.043949 44.071899 225.474524 44.345528 Q 225.683969 44.369175 225.515062 44.497545 C 225.146844 44.774553 224.668836 45.078586 224.285417 45.431602 Q 223.163873 46.456869 222.849705 46.659558 Q 222.199413 47.075069 221.633573 47.537875 C 221.560943 47.596993 221.525473 47.691581 221.538985 47.78448 Q 221.925783 50.29782 222.657151 52.655765 C 222.682487 52.735151 222.596345 52.804403 222.525403 52.762176 L 218.405756 50.383962 C 218.287521 50.316399 218.14395 50.309643 218.020647 50.365382 C 216.546087 51.039322 215.818097 51.493683 213.73716 52.687857 Q 213.531093 52.806092 213.588521 52.576378 Q 214.088487 50.571449 214.583385 48.304714 Q 214.635746 48.063177 214.848569 47.718606 Z" style="fill:#a48865;"/>
		<path d="M 252.388204 39.9911 Q 252.062213 40.786653 251.911885 41.609231 Q 251.62981 43.146287 251.291996 44.700234 C 251.276794 44.774553 251.21092 44.828603 251.133223 44.830292 L 245.812645 44.94346 Q 245.761973 44.945149 245.775485 44.992443 Q 245.792376 45.05325 245.892031 45.12588 Q 247.410507 46.2356 248.918849 47.541253 C 249.06242 47.666245 249.239773 47.764211 249.398545 47.87569 Q 249.472865 47.926362 249.457663 48.014194 Q 249.19079 49.579964 248.756698 50.779205 Q 248.628328 51.130532 248.418883 51.816296 Q 248.258422 52.338219 248.021951 52.834806 Q 247.910473 52.760487 247.922296 52.706437 Q 248.065867 51.99027 248.141876 51.475103 C 248.29727 50.399164 248.601303 49.314779 248.651975 48.29458 C 248.653664 48.23884 248.672244 48.186479 248.706026 48.142563 C 248.854664 47.938185 248.773589 47.772656 248.579345 47.625707 Q 247.329432 46.683205 246.084585 45.691719 C 245.768729 45.441736 245.562662 45.139392 245.290721 44.972174 Q 244.650563 44.581999 245.32957 44.472209 C 245.523813 44.441806 245.716368 44.370865 245.94946 44.348907 Q 247.849666 44.166487 249.763385 44.245873 Q 250.058973 44.257697 250.259972 43.919882 Q 250.917021 42.818607 251.347735 41.626122 C 251.455836 41.325467 251.685549 41.04677 251.759869 40.735981 C 251.839255 40.408301 252.040255 40.15494 252.170313 39.791789 C 252.185515 39.746184 252.214229 39.707336 252.253078 39.678621 Q 252.460834 39.519849 252.491237 39.697201 Q 252.499682 39.747873 252.476035 39.805302 Q 252.435498 39.903268 252.388204 39.9911 Z" style="fill:#eec16a;"/>
		<path d="M 252.388204 39.9911 Q 252.707438 40.001234 252.560489 40.197167 L 254.068831 44.592133 C 254.08741 44.647872 254.139772 44.685032 254.198889 44.685032 L 258.984031 44.685032 Q 259.134359 44.685032 259.016124 44.77962 L 255.357593 47.69327 C 255.305232 47.733808 255.281585 47.80306 255.298475 47.867244 L 256.372725 52.28248 Q 256.43691 52.544286 256.208885 52.400715 Q 254.459006 51.290994 252.420296 50.488685 Q 252.101061 50.363693 251.940599 50.331601 Q 251.857835 50.31471 251.788583 50.363693 Q 250.165384 51.508884 248.33443 52.719949 Q 248.123296 52.858453 247.984792 52.878722 Q 247.994926 52.784134 248.021951 52.834806 Q 248.258422 52.338219 248.418883 51.816296 Q 248.628328 51.130532 248.756698 50.779205 Q 249.19079 49.579964 249.457663 48.014194 Q 249.472865 47.926362 249.398545 47.87569 C 249.239773 47.764211 249.06242 47.666245 248.918849 47.541253 Q 247.410507 46.2356 245.892031 45.12588 Q 245.792376 45.05325 245.775485 44.992443 Q 245.761973 44.945149 245.812645 44.94346 L 251.133223 44.830292 C 251.21092 44.828603 251.276794 44.774553 251.291996 44.700234 Q 251.62981 43.146287 251.911885 41.609231 Q 252.062213 40.786653 252.388204 39.9911 Z" style="fill:#7e5627;"/>
		<path d="M 247.984792 52.878722 Q 248.123296 52.858453 248.33443 52.719949 Q 250.165384 51.508884 251.788583 50.363693 Q 251.857835 50.31471 251.940599 50.331601 Q 252.101061 50.363693 252.420296 50.488685 Q 254.459006 51.290994 256.208885 52.400715 Q 256.43691 52.544286 256.372725 52.28248 L 255.298475 47.867244 C 255.281585 47.80306 255.305232 47.733808 255.357593 47.69327 L 259.016124 44.77962 Q 259.134359 44.685032 258.984031 44.685032 L 254.198889 44.685032 C 254.139772 44.685032 254.08741 44.647872 254.068831 44.592133 L 252.560489 40.197167 Q 252.72264 40.051906 252.74122 40.109335 Q 253.531706 42.474036 254.266452 44.399579 Q 254.301923 44.492478 254.396511 44.460385 Q 254.475897 44.43336 254.558662 44.369175 Q 254.626224 44.316814 254.714056 44.318503 L 259.178275 44.428293 C 259.210367 44.429982 259.242459 44.440116 259.271174 44.457007 Q 259.602232 44.661385 259.264417 44.862385 Q 259.244148 44.874208 258.104025 45.811643 C 257.230774 46.529499 256.465624 47.076759 255.626155 47.841908 Q 255.561971 47.901026 255.587307 47.98379 C 255.707231 48.390857 255.768037 48.873932 255.90823 49.38741 Q 256.279826 50.758936 256.697027 52.51895 C 256.712229 52.584824 256.74601 52.620294 256.778103 52.681101 Q 256.798372 52.71826 256.789926 52.753731 Q 256.769657 52.844941 256.675069 52.858453 Q 256.609195 52.868588 256.550078 52.822983 Q 256.482515 52.770622 256.440288 52.697991 Q 256.394683 52.616916 256.301784 52.61016 Q 255.78155 52.564555 255.295097 52.29937 Q 255.237669 52.267278 255.188686 52.268967 Q 255.138013 52.270656 255.090719 52.247009 L 251.898373 50.633945 Q 251.807163 50.58834 251.724398 50.645768 L 248.160455 53.066209 C 248.121607 53.091545 248.074313 53.10168 248.028708 53.091545 Q 247.832775 53.047629 247.984792 52.878722 Z" style="fill:#eec16a;"/>
	</g>
	<g id="surface4">
	</g>
</svg>
