<?xml version="1.0" encoding="utf-8"?>
<svg xmlns="http://www.w3.org/2000/svg" width="490pt" height="280pt" viewBox="0 0 490 280" version="1.1" xmlns:xlink="http://www.w3.org/1999/xlink">
	<g id="surface2">
		<path vector-effect="non-scaling-stroke" d="M 245.940436 31.513196 L 245.344119 31.585606" style="fill:none;stroke-width:0.50;stroke:#496e73;"/>
		<path vector-effect="non-scaling-stroke" d="M 285.740301 82.442883 L 269.414008 99.4592" style="fill:none;stroke-width:0.50;stroke:#496e73;"/>
		<path vector-effect="non-scaling-stroke" d="M 225.337701 108.714883 L 204.752005 84.525731" style="fill:none;stroke-width:0.50;stroke:#7d6745;"/>
		<path d="M 245.987289 8.601865 L 270.632197 41.833731 C 270.75998 42.008366 270.568306 42.238374 270.376633 42.140408 L 245.902101 29.634799 C 245.842469 29.604984 245.774319 29.604984 245.714687 29.634799 L 221.227377 42.102073 C 221.031445 42.200039 220.839771 41.970032 220.967553 41.799656 L 245.659315 8.601865 C 245.744503 8.491121 245.906361 8.491121 245.987289 8.601865 Z" style="fill:#1d3c43;"/>
		<path d="M 245.940436 31.513196 L 245.344119 31.585606 Q 245.365416 31.219297 245.599683 31.168185 Q 245.744503 31.12985 245.83821 31.240594 Q 245.923398 31.338561 245.940436 31.513196 Z" style="fill:#1d3c43;"/>
		<path d="M 245.940436 31.513196 L 285.740301 82.442883 L 269.414008 99.4592 L 270.25737 98.321939 C 270.334039 98.219713 270.338299 98.079153 270.265889 97.972668 Q 269.086034 96.230572 267.816732 94.611999 Q 255.04704 78.302743 249.69723 71.560107 Q 245.816913 66.674572 245.062999 65.767319 C 240.999528 60.881783 237.562189 56.256071 233.221857 51.268309 Q 232.446646 50.378094 231.961074 49.594364 Q 231.833292 49.394172 231.978111 49.202499 L 245.344119 31.585606 L 245.940436 31.513196 Z" style="fill:#75a0a3;"/>
		<path d="M 225.337701 108.714883 L 204.752005 84.525731 L 228.851709 55.740683 C 228.945416 55.629938 229.115792 55.634198 229.20524 55.749202 L 248.26607 80.296144 C 248.547191 80.653934 248.534412 81.160803 248.240514 81.510074 L 225.337701 108.714883 Z" style="fill:#dc9247;"/>
		<path d="M 285.740301 82.442883 C 294.859684 92.801752 304.106849 102.985986 313.366792 113.153182 Q 323.908815 124.7345 324.52217 125.411745 Q 327.865801 129.091869 330.37459 131.715662 C 333.931192 135.434121 337.313158 139.318697 341.240328 143.424762 C 345.79363 148.186775 349.167078 151.947828 352.821646 155.385167 Q 353.089988 155.636471 353.183695 156.245566 Q 353.21777 156.471315 352.987763 156.471315 C 352.583119 156.467055 351.948468 156.29242 351.416043 156.296679 Q 350.93899 156.296679 345.51251 156.283901 Q 279.095632 156.117784 215.387735 156.241307 Q 211.047403 156.249826 207.950817 156.424461 Q 207.537654 156.450017 207.490801 156.369089 Q 207.328944 156.109265 207.414132 155.794069 Q 207.448207 155.666287 207.750625 155.440539 Q 208.078599 155.202012 208.151009 155.129602 Q 212.887465 150.533706 218.105234 144.958147 Q 220.63532 142.261945 231.616062 130.467657 Q 243.584986 117.608518 250.898381 109.703065 Q 253.321982 107.087791 262.104872 97.065415 Q 262.603222 96.494655 263.557328 96.24335 Q 263.778817 96.187978 263.795855 96.447801 C 263.817152 96.737441 263.553069 97.550987 263.54881 98.053597 Q 263.54455 101.746499 263.293245 105.426624 Q 263.280467 105.618297 263.357136 105.729042 C 263.442324 105.856824 263.625479 105.869602 263.727704 105.754598 L 269.414008 99.4592 L 285.740301 82.442883 Z" style="fill:#1d3c43;"/>
		<path d="M 204.752005 84.525731 L 225.337701 108.714883 L 185.635802 155.998521 Q 185.43987 156.232788 185.133192 156.232788 Q 165.020289 156.21575 144.894608 156.224269 Q 142.151553 156.224269 137.257498 156.518168 Q 137.014712 156.530946 137.001934 156.28816 C 136.972118 155.619434 137.168051 155.265903 137.828258 154.93367 Q 138.641804 154.520508 139.093301 153.745296 C 139.510722 153.025457 139.983516 152.897675 140.507423 152.352471 Q 154.359003 138.023838 168.031688 123.529088 Q 186.406754 104.055096 204.752005 84.525731 Z" style="fill:#1d3c43;"/>
	</g>
	<g id="surface4">
	</g>
</svg>
