<?xml version="1.0" encoding="utf-8"?>
<svg xmlns="http://www.w3.org/2000/svg" width="490pt" height="280pt" viewBox="0 0 490 280" version="1.1" xmlns:xlink="http://www.w3.org/1999/xlink">
	<g id="surface2">
		<path vector-effect="non-scaling-stroke" d="M 291.661119 86.353261 Q 291.657974 88.702337 291.57464 90.240085 Q 291.529042 91.057702 291.003881 91.601731" style="fill:none;stroke-width:0.50;stroke:#306e78;"/>
		<path vector-effect="non-scaling-stroke" d="M 236.184259 130.007699 Q 236.0569 129.386625 235.655953 128.951087" style="fill:none;stroke-width:0.50;stroke:#427e85;"/>
		<path vector-effect="non-scaling-stroke" d="M 235.655953 128.951087 Q 235.659098 128.910206 235.580481 128.867753" style="fill:none;stroke-width:0.50;stroke:#306e78;"/>
		<path vector-effect="non-scaling-stroke" d="M 235.655953 128.951087 Q 235.630796 128.944797 235.56004 128.96681" style="fill:none;stroke-width:0.50;stroke:#6cb0aa;"/>
		<path vector-effect="non-scaling-stroke" d="M 282.087143 139.157143 C 280.723924 138.999909 279.258504 138.921292 278.003777 138.707454 Q 274.322929 138.083235 270.84177 136.993604 Q 267.371616 135.90869 265.253674 135.355226 Q 260.506781 134.11465 255.47215 133.974712 Q 252.382502 133.889806 249.311723 133.960561" style="fill:none;stroke-width:0.50;stroke:#106570;"/>
		<path vector-effect="non-scaling-stroke" d="M 249.311723 133.960561 L 249.734682 133.537601" style="fill:none;stroke-width:0.50;stroke:#4ca7a3;"/>
		<path vector-effect="non-scaling-stroke" d="M 249.734682 133.537601 L 259.02092 128.333157" style="fill:none;stroke-width:0.50;stroke:#63b7b1;"/>
		<path vector-effect="non-scaling-stroke" d="M 259.02092 128.333157 C 259.830675 127.966802 260.646719 127.52183 261.4266 127.197928 Q 263.230073 126.449494 263.917186 126.202637 C 264.547694 125.97622 265.359021 125.925905 265.932925 125.796973 Q 268.934522 125.12244 271.832344 124.712059 Q 273.574496 124.465202 274.09494 124.334698 Q 274.690857 124.185325 275.066646 124.13501" style="fill:none;stroke-width:0.50;stroke:#3a9796;"/>
		<path vector-effect="non-scaling-stroke" d="M 301.79642 104.414727 Q 301.433209 104.101831 301.159622 104.01378 Q 300.508674 103.804659 301.073144 104.189882 Q 301.180063 104.26221 301.452078 104.683597" style="fill:none;stroke-width:0.50;stroke:#63b7b1;"/>
		<path vector-effect="non-scaling-stroke" d="M 259.02092 128.333157 Q 259.022493 128.252968 258.995763 128.199508" style="fill:none;stroke-width:0.50;stroke:#83c0b8;"/>
		<path vector-effect="non-scaling-stroke" d="M 249.734682 133.537601 Q 247.03183 133.179108 244.51137 132.499857 Q 242.20632 131.878783 239.723596 131.208966" style="fill:none;stroke-width:0.50;stroke:#95d0c5;"/>
		<path vector-effect="non-scaling-stroke" d="M 249.311723 133.960561 L 243.959479 137.036057" style="fill:none;stroke-width:0.50;stroke:#427e85;"/>
		<path vector-effect="non-scaling-stroke" d="M 230.992394 135.675983 Q 232.1119 136.048628 233.374488 135.951143 Q 234.517579 135.861519 234.80689 135.867809 Q 236.270738 135.899256 237.500308 136.039194 Q 240.410708 136.374102 243.959479 137.036057" style="fill:none;stroke-width:0.50;stroke:#6cb0aa;"/>
		<path vector-effect="non-scaling-stroke" d="M 243.959479 137.036057 C 239.487745 139.738909 234.968841 142.441761 230.019116 144.169762 Q 219.353936 147.89149 208.055103 146.948086 C 202.441851 146.479529 196.943379 144.721653 192.171328 141.941757 Q 190.256219 140.825396 189.427596 140.399292" style="fill:none;stroke-width:0.50;stroke:#306e78;"/>
		<path vector-effect="non-scaling-stroke" d="M 187.465316 105.998073 Q 187.625694 105.933607 187.598965 105.762222 C 187.587958 105.696184 187.506197 105.672598 187.463743 105.722913 Q 187.416573 105.776373 187.424435 105.880147" style="fill:none;stroke-width:0.50;stroke:#427e85;"/>
		<path vector-effect="non-scaling-stroke" d="M 194.180778 119.243462 Q 195.136761 118.47616 195.918214 118.219869 Q 196.795579 117.932131 197.976406 118.252888 C 199.772018 118.740313 201.051903 119.982462 201.949708 121.590965 Q 201.96386 121.616122 202.050338 121.669582" style="fill:none;stroke-width:0.50;stroke:#306e78;"/>
		<path vector-effect="non-scaling-stroke" d="M 206.801949 131.048588 Q 205.330239 131.427522 203.478023 130.793869 Q 202.201283 130.356758 200.963852 129.713672 C 200.90253 129.682225 200.83492 129.745118 200.863222 129.808012 C 201.822349 131.949538 203.278335 133.297034 205.540932 134.130374 Q 207.217046 134.746731 208.968633 135.072205 Q 212.11174 135.658688 213.89949 135.847368 Q 214.509557 135.913407 215.2234 136.062779 Q 215.519 136.1241 217.294171 136.375675 Q 217.371216 136.386681 217.412096 136.452719 Q 217.520588 136.630394 217.732854 136.7153 Q 217.830339 136.753036 217.729709 136.78291 L 217.651092 136.804923" style="fill:none;stroke-width:0.50;stroke:#427e85;"/>
		<path vector-effect="non-scaling-stroke" d="M 220.218723 136.698004 Q 220.368095 136.745174 220.558348 136.726306" style="fill:none;stroke-width:0.50;stroke:#6cb0aa;"/>
		<path vector-effect="non-scaling-stroke" d="M 206.654149 121.281214 Q 206.919874 122.001346 207.484344 122.781226 Q 208.253218 123.8457 209.270522 124.524951 C 210.051975 125.04854 210.649464 124.793821 211.575572 124.537529 Q 211.828718 124.468346 212.020544 124.606712 Q 212.185639 124.72621 212.275263 124.713631" style="fill:none;stroke-width:0.50;stroke:#83c0b8;"/>
		<path vector-effect="non-scaling-stroke" d="M 235.003432 129.062723 Q 234.739279 128.949514 234.819469 129.09417" style="fill:none;stroke-width:0.50;stroke:#6cb0aa;"/>
		<path vector-effect="non-scaling-stroke" d="M 234.394937 129.254548 L 232.736119 130.054869" style="fill:none;stroke-width:0.50;stroke:#306e78;"/>
		<path vector-effect="non-scaling-stroke" d="M 203.536199 119.300066 Q 203.622678 119.373966 203.47645 119.55164 C 203.416701 119.623968 203.311355 119.639691 203.23431 119.586232 Q 201.416685 118.339367 200.312903 117.614518 Q 199.556608 117.119231 198.734274 116.771744 C 198.345906 116.608221 197.83804 116.647529 197.397785 116.611365" style="fill:none;stroke-width:0.50;stroke:#6cb0aa;"/>
		<path vector-effect="non-scaling-stroke" d="M 208.006361 118.782766 C 207.685603 117.738733 207.08497 117.01074 205.904143 117.127093 C 204.712309 117.246591 204.050354 118.237165 203.536199 119.300066" style="fill:none;stroke-width:0.50;stroke:#83c0b8;"/>
		<path vector-effect="non-scaling-stroke" d="M 203.536199 119.300066 Q 203.430852 119.076794 203.361669 118.82522 Q 203.28148 118.52962 203.190284 118.388109 Q 202.581789 117.44785 201.59436 117.026463 Q 200.246865 116.454131 198.707544 116.490295 Q 198.051879 116.506019 197.397785 116.611365" style="fill:none;stroke-width:0.50;stroke:#95d0c5;"/>
		<path vector-effect="non-scaling-stroke" d="M 197.397785 116.611365 Q 196.872624 116.630233 196.386771 116.812625 Q 196.209096 116.878663 195.913497 117.139671 Q 195.663495 117.358227 195.385191 117.419548" style="fill:none;stroke-width:0.50;stroke:#83c0b8;"/>
		<path d="M 291.661119 86.353261 Q 291.657974 88.702337 291.57464 90.240085 Q 291.529042 91.057702 291.003881 91.601731 C 290.505449 91.870601 289.988149 91.719657 289.574624 91.411478 Q 288.857637 90.878455 287.431525 89.74637 Q 287.135925 89.512092 286.472398 89.122152 C 286.37963 89.06712 286.260132 89.125296 286.244409 89.232215 Q 285.505409 94.244834 283.703508 99.024747 C 282.05884 103.387989 279.341838 107.095566 275.374825 109.708794 Q 274.332364 110.395907 273.387387 110.941509 Q 272.52889 111.436796 267.660926 114.139647 Q 264.810275 115.722993 261.484776 118.18685 Q 261.035087 118.520186 258.552363 120.68058 Q 258.487897 120.737185 258.237895 120.778065 Q 254.920258 121.320523 252.248853 122.436884 C 249.442227 123.609849 246.714218 125.090993 244.156021 126.485658 C 242.094684 127.609881 240.163851 128.386617 237.802197 129.449518 Q 237.45471 129.60518 236.986153 129.886629 Q 236.335204 130.276569 236.184259 130.007699 Q 236.0569 129.386625 235.655953 128.951087 Q 235.659098 128.910206 235.580481 128.867753 Q 234.891796 127.655479 233.843046 126.295405 Q 231.280132 122.969907 228.232938 120.388125 Q 223.844538 116.669542 220.762752 114.689966 Q 219.798908 114.068892 216.462403 111.955668 C 213.97339 110.380183 211.559848 108.606584 209.662034 106.402164 C 207.724912 104.150574 206.169868 101.450867 205.108539 98.598642 Q 203.836516 95.180376 203.045629 91.032544 Q 202.863238 90.073417 202.819212 89.280958 C 202.814495 89.191334 202.720155 89.133158 202.638393 89.170894 C 202.053483 89.433475 201.58807 89.903604 201.143098 90.232223 Q 199.849063 91.181916 199.655665 91.315565 Q 199.14151 91.667769 198.737419 91.689782 C 197.738983 91.744814 197.419798 90.924053 197.342753 90.027819 C 197.187092 88.172458 197.338036 86.258921 197.375772 84.464882 Q 197.388351 83.873682 197.466968 83.287199 C 197.540868 82.744742 197.522 82.32021 197.583321 81.713287 Q 197.932381 78.309172 198.235842 76.405069 Q 198.742136 73.214791 199.294027 71.084271 Q 199.69969 69.52451 200.018875 68.592113 Q 200.209129 68.040222 200.635233 67.537073 C 201.66826 66.31851 203.196574 66.788639 204.28935 67.582671 Q 206.231189 68.994632 207.680886 70.274516 Q 209.427756 71.818554 210.073987 72.422332 C 212.806714 74.982101 215.380634 77.675519 217.468701 80.645669 C 218.190405 81.670834 218.809906 82.647257 219.202991 83.71802 Q 219.377521 84.194439 219.33664 84.636267 Q 219.212425 85.942881 217.792603 86.246342 Q 217.451405 86.320242 216.119633 86.252632 C 214.492262 86.17087 212.974954 86.133134 211.328714 86.071813 C 211.243808 86.068668 211.180914 86.152002 211.209217 86.232191 Q 212.858601 91.040406 215.825606 95.123772 Q 216.896369 96.598626 218.924687 98.453987 Q 219.33664 98.829776 219.967148 99.273176 Q 220.822501 99.87381 221.061497 100.018465 Q 222.572515 100.935139 224.170012 101.427281 Q 224.519072 101.534201 224.795803 101.548352 C 225.092976 101.564075 225.336688 101.664705 225.629143 101.685145 Q 229.795843 101.960305 232.841465 99.126949 C 234.407516 97.66939 235.522304 95.663084 236.25187 93.600175 C 237.244016 90.795121 237.443703 87.875286 237.558484 84.460164 Q 237.605654 83.035625 237.605654 81.317058 C 237.608799 74.975812 237.567918 64.472583 237.720435 56.198932 C 237.79748 52.07154 237.772322 47.659555 237.783329 40.371761 C 237.783329 40.332453 237.761316 40.296289 237.725152 40.280565 Q 234.695254 38.849736 231.692085 37.563563 Q 230.957802 37.249095 228.43577 36.461352 Q 228.262812 36.406321 226.880726 36.088708 C 226.092984 35.907889 225.111844 35.676755 224.58511 35.11543 C 224.454606 34.975492 224.23605 34.966057 224.092968 35.091845 Q 223.602398 35.522666 223.081953 35.859146 C 222.67 36.126444 222.162134 36.145312 221.666847 36.148457 Q 216.989137 36.17047 212.476522 36.161036 Q 211.503244 36.159463 211.360161 36.134306 C 210.6133 36.000657 210.091283 35.429898 209.5787 34.865428 C 209.379013 34.6453 209.01423 34.612281 208.702907 34.668885 Q 208.129003 34.775804 206.437166 35.175179 C 204.251614 35.689334 202.572355 34.478632 202.160402 32.370125 Q 201.965432 31.368544 202.37424 30.280485 Q 202.924559 28.816637 204.470169 28.201852 C 205.100677 27.95185 205.567662 27.959712 206.267353 28.109084 Q 207.151008 28.299337 208.025229 28.508459 C 208.448188 28.609088 209.308258 28.73802 209.586562 28.434559 Q 209.896313 28.094933 210.496947 27.613797 C 210.935629 27.263166 211.580289 27.278889 212.036267 27.278889 Q 217.229705 27.289895 218.743868 27.300902 C 219.636957 27.305619 221.383826 27.247442 222.651132 27.330776 C 223.122834 27.360651 223.849255 28.093361 224.179446 28.447137 C 224.26278 28.536761 224.396429 28.558773 224.503348 28.499025 C 225.000208 28.228582 225.55996 27.797761 226.069398 27.786755 Q 231.847747 27.649961 237.292759 27.782038 C 237.446848 27.786755 237.582069 27.679836 237.613516 27.527319 C 237.682699 27.186121 237.574208 26.978572 237.266029 26.771023 Q 236.416966 26.197119 236.192121 26.028879 C 233.412225 23.947101 231.317868 20.887328 230.893336 17.443905 Q 230.805285 16.726918 230.841449 15.43131 C 230.915349 12.747326 232.044289 10.118374 233.750278 8.104207 Q 236.000296 5.445381 239.220447 4.179647 Q 243.635577 2.442212 248.247249 3.621467 Q 248.821153 3.767694 250.101037 4.272416 Q 251.00985 4.630909 252.396653 5.580602 Q 255.459571 7.678103 256.998891 10.965865 C 257.13883 11.263038 257.274051 11.712727 257.434429 12.064931 Q 257.54921 12.31965 257.60267 12.505186 Q 258.104246 14.226898 258.108963 16.140435 C 258.11997 20.620031 255.43913 24.388929 251.783441 26.720708 Q 251.333752 27.006874 251.289726 27.513168 Q 251.281864 27.594929 251.344758 27.646817 Q 251.539728 27.813485 251.821177 27.807195 Q 256.687568 27.70971 261.920314 27.715999 Q 263.157746 27.717572 264.156181 28.410974 C 264.270962 28.489591 264.425051 28.46915 264.514675 28.363803 Q 264.97537 27.822919 265.621602 27.480148 C 265.970661 27.296185 266.377897 27.326059 266.832303 27.321342 Q 271.64838 27.283606 276.462884 27.277317 C 277.074524 27.275744 277.596541 27.253732 278.060381 27.66254 Q 278.629568 28.162544 278.819821 28.377954 C 279.04781 28.63739 279.59184 28.687705 279.855993 28.624812 Q 281.217639 28.307199 281.731794 28.192418 Q 282.997527 27.912542 283.629608 28.011599 C 285.046286 28.233299 286.076168 29.187709 286.470826 30.572941 Q 287.084038 32.725474 285.458239 34.484922 Q 285.112324 34.859138 284.544709 35.06197 Q 283.200359 35.539961 281.86387 35.159455 Q 280.700339 34.827692 279.643727 34.664168 Q 279.241208 34.601275 278.967621 34.838698 C 278.659442 35.104423 278.208181 35.840278 277.554087 36.071412 Q 277.297796 36.162608 276.782069 36.162608 Q 269.841762 36.162608 266.79614 36.156319 C 265.907768 36.153174 265.214366 35.744366 264.609015 35.124864 C 264.508385 35.021089 264.344862 35.013228 264.233226 35.105996 Q 263.464352 35.739649 262.448621 35.972355 Q 259.772499 36.582423 257.108955 37.555701 Q 254.863654 38.376462 251.634069 40.019557 Q 251.553879 40.060438 251.29916 40.132766 Q 251.126203 40.18308 251.072743 40.297861 Q 251.017711 40.414214 251.017711 40.604467 Q 250.994126 53.461489 251.050731 67.008767 Q 251.096328 78.103195 251.102618 81.238441 Q 251.113624 86.266783 251.362054 88.922464 C 251.788158 93.485394 253.35578 98.104928 257.453298 100.483878 Q 259.063373 101.41942 261.209617 101.694579 Q 261.451757 101.726026 262.704912 101.704013 Q 263.615297 101.686718 264.186056 101.54049 Q 265.662483 101.158411 266.571295 100.70715 C 268.835464 99.579782 270.857493 97.854926 272.443984 95.856482 C 274.705008 93.007403 276.382694 89.776245 277.733334 86.353261 C 277.778932 86.238481 277.712894 86.109549 277.591824 86.081247 Q 277.522641 86.065523 277.406288 86.07024 Q 276.003761 86.128417 271.86379 86.317098 C 271.13108 86.350117 270.29774 85.924013 269.995851 85.213315 C 269.624779 84.340667 269.926668 83.529339 270.379502 82.702289 Q 271.165672 81.266743 272.245869 79.853209 Q 274.079217 77.452247 276.129548 75.36418 Q 280.488073 70.925465 284.799428 67.722609 C 285.319873 67.335814 286.098181 66.798073 286.852904 66.787067 C 288.370212 66.768199 288.904807 67.799654 289.280596 69.090545 Q 289.68626 70.489927 289.951985 71.796541 Q 290.95671 76.744694 291.345078 81.200704 Q 291.50074 82.979021 291.661119 86.353261 Z M 249.305874 16.755707 C 249.601033 14.167149 247.693785 11.82279 245.047098 11.521357 C 242.399718 11.219012 240.014479 13.074373 239.720011 15.663529 C 239.424851 18.252087 241.332099 20.596446 243.978787 20.897879 C 246.626167 21.200224 249.011406 19.344863 249.305874 16.755707 Z" style="fill:#063b52;"/>
		<path d="M 291.661119 86.353261 Q 291.797912 88.908313 291.701999 90.221217 Q 291.632817 91.158331 291.003881 91.601731 Q 291.529042 91.057702 291.57464 90.240085 Q 291.657974 88.702337 291.661119 86.353261 Z" style="fill:#5aa09d;"/>
		<path d="M 282.087143 139.157143 C 280.723924 138.999909 279.258504 138.921292 278.003777 138.707454 Q 274.322929 138.083235 270.84177 136.993604 Q 267.371616 135.90869 265.253674 135.355226 Q 260.506781 134.11465 255.47215 133.974712 Q 252.382502 133.889806 249.311723 133.960561 L 249.734682 133.537601 L 259.02092 128.333157 C 259.830675 127.966802 260.646719 127.52183 261.4266 127.197928 Q 263.230073 126.449494 263.917186 126.202637 C 264.547694 125.97622 265.359021 125.925905 265.932925 125.796973 Q 268.934522 125.12244 271.832344 124.712059 Q 273.574496 124.465202 274.09494 124.334698 Q 274.690857 124.185325 275.066646 124.13501 Q 275.541493 124.150734 275.96288 124.339415 C 278.289942 125.381876 280.602854 126.388173 282.980232 126.778113 C 285.689373 127.221513 288.302601 126.935347 290.967717 126.007667 Q 292.448861 125.493512 293.827803 124.710487 C 298.75866 121.916439 302.510262 117.399107 303.768134 111.817302 C 304.331031 109.315709 304.132917 106.941477 302.419066 104.928882 Q 302.200511 104.671018 301.79642 104.414727 Q 301.433209 104.101831 301.159622 104.01378 Q 300.508674 103.804659 301.073144 104.189882 Q 301.180063 104.26221 301.452078 104.683597 Q 301.724092 105.674171 301.230378 106.516945 C 300.670625 107.477644 299.16904 107.483934 298.425324 106.724494 Q 297.988213 106.277949 297.948905 105.449326 Q 297.892301 104.218184 298.934762 103.582959 C 299.680051 103.128553 301.032263 103.141132 301.790131 103.392706 Q 303.129764 103.836106 304.244553 105.215048 C 305.639218 106.943049 306.35306 109.210363 306.658094 111.435223 Q 307.615649 118.395971 304.46468 124.307968 Q 302.128184 128.688506 298.224064 131.850481 Q 292.936286 136.131962 286.356045 138.102103 Q 284.244393 138.735756 282.087143 139.157143 Z" style="fill:#1a8e8e;"/>
		<path d="M 301.79642 104.414727 L 301.458367 104.367557 Q 301.381322 104.35655 301.397046 104.433595 L 301.452078 104.683597 Q 301.180063 104.26221 301.073144 104.189882 Q 300.508674 103.804659 301.159622 104.01378 Q 301.433209 104.101831 301.79642 104.414727 Z" style="fill:#ace0d3;"/>
		<path d="M 187.465316 105.998073 Q 187.625694 105.933607 187.598965 105.762222 C 187.587958 105.696184 187.506197 105.672598 187.463743 105.722913 Q 187.416573 105.776373 187.424435 105.880147 Q 187.381982 105.851845 187.333239 105.908449 Q 186.918142 106.399019 186.66814 106.897451 C 186.054927 108.119159 186.004612 109.633322 186.231029 111.02956 Q 186.449584 112.364476 186.537635 112.718252 C 187.749909 117.565775 190.822261 122.002918 195.12261 124.708914 Q 195.765697 125.113006 196.781428 125.424329 C 198.721695 126.018673 200.231141 124.85357 200.139946 122.870849 Q 200.037743 120.663285 198.006281 119.807932 C 196.611615 119.221449 195.257831 119.634974 194.034551 120.314225 C 193.968512 120.350389 193.886751 120.328376 193.847442 120.26391 Q 193.765681 120.128689 193.82543 119.929002 Q 193.955934 119.488747 194.180778 119.243462 Q 195.136761 118.47616 195.918214 118.219869 Q 196.795579 117.932131 197.976406 118.252888 C 199.772018 118.740313 201.051903 119.982462 201.949708 121.590965 Q 201.96386 121.616122 202.050338 121.669582 C 202.160402 122.141284 202.386819 122.62242 202.493738 123.037517 C 203.095944 125.381876 204.066078 127.528119 205.481183 129.488827 Q 205.669864 129.749835 206.146283 130.26399 Q 206.46704 130.609905 206.801949 131.048588 Q 205.330239 131.427522 203.478023 130.793869 Q 202.201283 130.356758 200.963852 129.713672 C 200.90253 129.682225 200.83492 129.745118 200.863222 129.808012 C 201.822349 131.949538 203.278335 133.297034 205.540932 134.130374 Q 207.217046 134.746731 208.968633 135.072205 Q 212.11174 135.658688 213.89949 135.847368 Q 214.509557 135.913407 215.2234 136.062779 Q 215.519 136.1241 217.294171 136.375675 Q 217.371216 136.386681 217.412096 136.452719 Q 217.520588 136.630394 217.732854 136.7153 Q 217.830339 136.753036 217.729709 136.78291 L 217.651092 136.804923 C 213.797288 137.386689 210.088138 137.606816 206.267353 137.235744 C 202.845942 136.902408 199.529878 135.877243 196.580169 134.138235 Q 190.015651 130.268707 186.226312 123.790668 C 184.830075 121.405429 183.874092 118.685281 183.699562 115.911674 Q 183.506165 112.862908 184.251454 110.032696 C 184.385102 109.529548 184.559632 109.123884 184.789194 108.543691 C 185.440142 106.900596 186.531346 105.380143 188.297083 104.976052 C 189.103694 104.790516 190.21691 105.090833 190.639869 105.872286 C 191.237359 106.97764 190.646159 108.432055 189.24206 108.359727 C 187.913433 108.292116 187.330095 107.215064 187.465316 105.998073 Z" style="fill:#063b52;"/>
		<path d="M 187.465316 105.998073 Q 187.455882 105.92889 187.424435 105.880147 Q 187.416573 105.776373 187.463743 105.722913 C 187.506197 105.672598 187.587958 105.696184 187.598965 105.762222 Q 187.625694 105.933607 187.465316 105.998073 Z" style="fill:#7ec0b7;"/>
		<path d="M 208.006361 118.782766 C 207.685603 117.738733 207.08497 117.01074 205.904143 117.127093 C 204.712309 117.246591 204.050354 118.237165 203.536199 119.300066 Q 203.430852 119.076794 203.361669 118.82522 Q 203.28148 118.52962 203.190284 118.388109 Q 202.581789 117.44785 201.59436 117.026463 Q 200.246865 116.454131 198.707544 116.490295 Q 198.051879 116.506019 197.397785 116.611365 Q 196.872624 116.630233 196.386771 116.812625 Q 196.209096 116.878663 195.913497 117.139671 Q 195.663495 117.358227 195.385191 117.419548 Q 196.44023 116.240293 197.413509 115.556325 C 199.35692 114.189962 201.842789 113.329893 204.204444 114.222981 C 205.860117 114.848773 207.369563 115.984002 208.165167 117.551624 Q 208.377433 117.969867 208.399446 118.496601 Q 208.407307 118.701005 208.231205 118.803207 Q 208.083405 118.889685 208.006361 118.782766 Z" style="fill:#ace0d3;"/>
		<path d="M 203.536199 119.300066 Q 203.622678 119.373966 203.47645 119.55164 C 203.416701 119.623968 203.311355 119.639691 203.23431 119.586232 Q 201.416685 118.339367 200.312903 117.614518 Q 199.556608 117.119231 198.734274 116.771744 C 198.345906 116.608221 197.83804 116.647529 197.397785 116.611365 Q 198.051879 116.506019 198.707544 116.490295 Q 200.246865 116.454131 201.59436 117.026463 Q 202.581789 117.44785 203.190284 118.388109 Q 203.28148 118.52962 203.361669 118.82522 Q 203.430852 119.076794 203.536199 119.300066 Z" style="fill:#7ec0b7;"/>
		<path d="M 197.397785 116.611365 C 197.83804 116.647529 198.345906 116.608221 198.734274 116.771744 Q 199.556608 117.119231 200.312903 117.614518 Q 201.416685 118.339367 203.23431 119.586232 C 203.311355 119.639691 203.416701 119.623968 203.47645 119.55164 Q 203.622678 119.373966 203.536199 119.300066 C 204.050354 118.237165 204.712309 117.246591 205.904143 117.127093 C 207.08497 117.01074 207.685603 117.738733 208.006361 118.782766 C 207.787806 118.628677 207.487489 118.296913 207.276795 118.251316 C 206.383706 118.053201 206.099113 119.111385 206.235906 119.796925 Q 206.386851 120.556365 206.654149 121.281214 Q 206.919874 122.001346 207.484344 122.781226 Q 208.253218 123.8457 209.270522 124.524951 C 210.051975 125.04854 210.649464 124.793821 211.575572 124.537529 Q 211.828718 124.468346 212.020544 124.606712 Q 212.185639 124.72621 212.275263 124.713631 C 214.525281 127.120883 217.861786 128.822155 220.960867 129.797006 C 223.453025 130.581603 226.001788 130.595754 228.536399 130.342607 C 230.236098 130.172795 231.794287 129.646061 233.82575 129.054861 Q 234.354056 128.900772 235.116641 128.837878 C 235.195258 128.831589 235.248717 128.916495 235.209409 128.984106 Q 235.155949 129.076874 235.003432 129.062723 Q 234.739279 128.949514 234.819469 129.09417 L 234.394937 129.254548 L 232.736119 130.054869 C 226.10399 132.815898 218.669968 135.078494 211.577144 132.352057 C 209.872728 131.696392 208.45605 130.726258 207.191889 129.303291 C 205.786217 127.719945 204.778347 125.966786 203.779912 124.150734 C 203.30821 123.293809 202.710721 122.430594 202.154113 121.705746 Q 202.124238 121.666437 202.050338 121.669582 Q 201.96386 121.616122 201.949708 121.590965 C 201.051903 119.982462 199.772018 118.740313 197.976406 118.252888 Q 196.795579 117.932131 195.918214 118.219869 Q 195.136761 118.47616 194.180778 119.243462 Q 194.69965 118.169554 195.385191 117.419548 Q 195.663495 117.358227 195.913497 117.139671 Q 196.209096 116.878663 196.386771 116.812625 Q 196.872624 116.630233 197.397785 116.611365 Z" style="fill:#5aa09d;"/>
		<path d="M 206.654149 121.281214 Q 206.845974 121.532788 207.029938 121.778073 Q 207.220191 122.03122 207.482772 122.188454 C 208.570831 122.845692 209.671468 123.229343 210.789402 123.716768 Q 211.629031 124.081551 212.275263 124.713631 Q 212.185639 124.72621 212.020544 124.606712 Q 211.828718 124.468346 211.575572 124.537529 C 210.649464 124.793821 210.051975 125.04854 209.270522 124.524951 Q 208.253218 123.8457 207.484344 122.781226 Q 206.919874 122.001346 206.654149 121.281214 Z" style="fill:#ace0d3;"/>
		<path d="M 275.066646 124.13501 Q 274.690857 124.185325 274.09494 124.334698 Q 273.574496 124.465202 271.832344 124.712059 Q 268.934522 125.12244 265.932925 125.796973 C 265.359021 125.925905 264.547694 125.97622 263.917186 126.202637 Q 263.230073 126.449494 261.4266 127.197928 C 260.646719 127.52183 259.830675 127.966802 259.02092 128.333157 Q 259.022493 128.252968 258.995763 128.199508 Q 262.40774 126.597294 265.8889 125.183761 Q 268.7254 124.031236 271.709701 123.646013 C 272.197126 123.583119 272.682979 123.590981 273.19399 123.705762 Q 274.090223 123.907021 275.066646 124.13501 Z" style="fill:#5aa09d;"/>
		<path d="M 230.992394 135.675983 Q 232.1119 136.048628 233.374488 135.951143 Q 234.517579 135.861519 234.80689 135.867809 Q 236.270738 135.899256 237.500308 136.039194 Q 240.410708 136.374102 243.959479 137.036057 C 239.487745 139.738909 234.968841 142.441761 230.019116 144.169762 Q 219.353936 147.89149 208.055103 146.948086 C 202.441851 146.479529 196.943379 144.721653 192.171328 141.941757 Q 190.256219 140.825396 189.427596 140.399292 Q 185.941719 136.128817 184.389819 130.658648 Q 183.81906 128.649198 183.515599 126.911762 Q 183.47629 126.683773 183.536039 126.455784 C 183.564341 126.34572 183.712141 126.328424 183.767173 126.427482 Q 186.297067 131.009279 190.315968 134.339495 Q 197.900934 140.622564 207.814535 141.592697 C 212.246961 142.028236 216.841337 141.427602 221.069358 140.064383 Q 224.530078 138.948022 227.212489 137.567508 Q 229.987669 136.139824 230.992394 135.675983 Z" style="fill:#5aa09d;"/>
		<path d="M 306.441111 126.427482 C 306.470986 126.386601 306.533879 126.39918 306.546458 126.447922 Q 306.577905 126.570565 306.552747 126.694779 C 305.384499 132.639796 302.132901 137.93858 297.579405 141.940184 C 294.29636 144.828572 290.148528 146.858463 285.977111 148.132058 C 280.940907 149.671378 275.772627 150.322327 270.503717 150.308176 C 262.168744 150.284591 253.97371 150.328616 245.961067 150.301887 C 243.696898 150.295597 241.162287 150.389938 239.096232 150.331761 Q 239.001892 150.328616 239.07422 150.268868 C 239.704728 149.746851 240.549074 149.633642 241.185872 149.298734 C 242.360409 148.679232 243.564822 148.001554 244.67961 147.515701 Q 248.942223 145.661912 253.316472 144.924485 Q 257.668708 144.18863 262.469061 144.180768 Q 265.483236 144.174479 273.063485 144.133598 C 276.687728 144.113158 280.335556 143.666613 283.775835 142.872582 Q 291.758604 141.028228 298.257083 136.0502 Q 299.103002 135.402396 301.030691 133.55647 Q 303.469389 131.221545 305.236699 128.490391 C 305.653369 127.848877 306.008718 127.006103 306.441111 126.427482 Z" style="fill:#5aa09d;"/>
		<path d="M 258.995763 128.199508 Q 259.022493 128.252968 259.02092 128.333157 L 249.734682 133.537601 Q 247.03183 133.179108 244.51137 132.499857 Q 242.20632 131.878783 239.723596 131.208966 Q 241.05694 130.718397 241.674869 130.53286 Q 249.324302 128.2341 256.887255 128.559574 Q 258.159278 128.614606 258.995763 128.199508 Z" style="fill:#ace0d3;"/>
		<path d="M 235.655953 128.951087 Q 235.630796 128.944797 235.56004 128.96681 Q 235.583626 128.957376 235.580481 128.867753 Q 235.659098 128.910206 235.655953 128.951087 Z" style="fill:#5aa09d;"/>
		<path d="M 235.655953 128.951087 Q 236.0569 129.386625 236.184259 130.007699 L 235.56004 128.96681 Q 235.630796 128.944797 235.655953 128.951087 Z" style="fill:#7ec0b7;"/>
		<path d="M 235.003432 129.062723 Q 234.924815 129.117755 234.819469 129.09417 Q 234.739279 128.949514 235.003432 129.062723 Z" style="fill:#7ec0b7;"/>
		<path d="M 234.394937 129.254548 Q 234.284873 129.608325 234.083614 129.889774 Q 234.038016 129.954239 233.959399 129.960529 L 232.736119 130.054869 L 234.394937 129.254548 Z" style="fill:#063b52;"/>
		<path d="M 206.801949 131.048588 Q 209.154169 133.366216 212.108595 134.742014 Q 213.165207 135.234156 214.690377 135.773468 Q 215.165223 135.941709 217.174673 136.186994 Q 217.484424 136.22473 217.960843 136.377247 C 218.702987 136.61467 219.465572 136.624104 220.218723 136.698004 Q 220.368095 136.745174 220.558348 136.726306 Q 221.586658 136.685425 222.42786 136.913415 Q 222.756479 137.003038 222.416853 137.017189 Q 220.081929 137.116247 217.651092 136.804923 L 217.729709 136.78291 Q 217.830339 136.753036 217.732854 136.7153 Q 217.520588 136.630394 217.412096 136.452719 Q 217.371216 136.386681 217.294171 136.375675 Q 215.519 136.1241 215.2234 136.062779 Q 214.509557 135.913407 213.89949 135.847368 Q 212.11174 135.658688 208.968633 135.072205 Q 207.217046 134.746731 205.540932 134.130374 C 203.278335 133.297034 201.822349 131.949538 200.863222 129.808012 C 200.83492 129.745118 200.90253 129.682225 200.963852 129.713672 Q 202.201283 130.356758 203.478023 130.793869 Q 205.330239 131.427522 206.801949 131.048588 Z" style="fill:#7ec0b7;"/>
		<path d="M 239.723596 131.208966 Q 242.20632 131.878783 244.51137 132.499857 Q 247.03183 133.179108 249.734682 133.537601 L 249.311723 133.960561 L 243.959479 137.036057 Q 240.410708 136.374102 237.500308 136.039194 Q 236.270738 135.899256 234.80689 135.867809 Q 234.517579 135.861519 233.374488 135.951143 Q 232.1119 136.048628 230.992394 135.675983 Q 234.442107 133.642948 237.755027 131.9574 Q 238.847803 131.400792 239.723596 131.208966 Z" style="fill:#7ec0b7;"/>
		<path d="M 282.087143 139.157143 Q 279.983352 139.487335 277.881134 139.787652 Q 275.824514 140.083251 270.220695 140.293945 Q 264.046118 140.526651 261.300813 140.6603 Q 258.030346 140.817534 254.36994 141.290808 Q 253.637229 141.385149 252.789738 141.565968 Q 252.711121 141.581691 251.222116 141.902448 Q 247.005101 142.809688 243.497211 144.468507 Q 242.352548 145.009391 239.217302 146.470095 Q 236.788038 147.60218 234.04745 148.575458 Q 227.682619 150.83491 221.118101 151.083339 Q 216.355484 151.264159 212.080293 150.911954 Q 207.901014 150.567612 203.298776 149.220117 Q 202.432417 148.965398 200.305041 148.116335 C 198.026721 147.207522 195.856892 145.979525 193.891468 144.565992 Q 191.432329 142.79711 189.427596 140.399292 Q 190.256219 140.825396 192.171328 141.941757 C 196.943379 144.721653 202.441851 146.479529 208.055103 146.948086 Q 219.353936 147.89149 230.019116 144.169762 C 234.968841 142.441761 239.487745 139.738909 243.959479 137.036057 L 249.311723 133.960561 Q 252.382502 133.889806 255.47215 133.974712 Q 260.506781 134.11465 265.253674 135.355226 Q 267.371616 135.90869 270.84177 136.993604 Q 274.322929 138.083235 278.003777 138.707454 C 279.258504 138.921292 280.723924 138.999909 282.087143 139.157143 Z" style="fill:#063b52;"/>
		<path d="M 220.558348 136.726306 Q 220.368095 136.745174 220.218723 136.698004 L 220.558348 136.726306 Z" style="fill:#5aa09d;"/>
	</g>
	<g id="surface4">
	</g>
</svg>
