<?xml version="1.0" encoding="utf-8"?>
<svg xmlns="http://www.w3.org/2000/svg" width="490pt" height="280pt" viewBox="0 0 490 280" version="1.1" xmlns:xlink="http://www.w3.org/1999/xlink">
	<g id="surface2">
		<path vector-effect="non-scaling-stroke" d="M 308.380065 29.863348 Q 308.092059 28.217167 308.00111 26.5437 Q 307.885908 24.427614 307.588807 23.712147 Q 306.994605 22.287275 305.666746 21.435383 C 305.211999 21.147377 304.184273 20.534986 303.374824 20.39553 Q 302.344066 20.216663 300.825213 19.825581 Q 300.130967 19.643683 298.254381 19.34355 Q 295.198485 18.852424 292.191096 17.979311 C 290.547946 17.503343 289.047284 17.333572 287.495083 16.690863 C 285.851933 16.011776 284.011726 15.948111 282.101791 15.460017 C 280.704204 15.102283 279.734079 14.953732 278.621466 14.656632 Q 276.502348 14.092746 275.310913 13.886594 Q 274.25287 13.701664 273.45858 13.428816 Q 272.194385 12.995292 271.636563 12.895247 Q 270.663406 12.725475 267.783346 11.928154 Q 265.40957 11.270287 263.945287 10.933775 Q 256.93613 9.330036 249.966385 7.565621 C 249.326708 7.404944 248.547576 7.386754 248.032197 7.238203 Q 247.140894 6.980514 245.055125 6.519704 Q 244.321467 6.359027 243.527177 6.5864 Q 242.696507 6.822868 241.104895 7.074495 Q 239.955903 7.256393 238.694739 7.608064 Q 236.093591 8.335658 235.402376 8.532714 C 235.117402 8.614569 234.826364 8.502398 234.544421 8.65398 Q 234.162434 8.8571 234.15334 8.860132 Q 233.219594 9.142074 232.925524 9.154201 C 232.091823 9.190581 231.482463 9.572568 230.563875 9.699897 Q 230.069718 9.766593 229.405788 9.933333 Q 227.974853 10.29713 225.695058 10.760971 C 224.973527 10.909522 224.427832 11.197528 223.785123 11.258161 Q 223.184858 11.318794 222.351157 11.573451 Q 221.860031 11.725034 220.347241 12.113084 Q 218.643458 12.546609 214.36278 13.607683 C 213.871654 13.728949 213.541205 13.944196 213.013699 13.97148 Q 212.449814 14.001797 211.749504 14.226138 Q 210.870328 14.508081 210.521689 14.574777 Q 207.756832 15.108346 206.301643 15.553998 Q 203.906646 16.281592 202.121009 16.651452 Q 202.087661 16.660547 196.912648 17.858046 Q 196.627673 17.924742 196.003155 17.964153 Q 195.542345 17.99447 195.093662 18.121798 Q 193.562683 18.555323 192.025641 18.952468 Q 191.640622 19.052513 188.918207 19.61943 Q 187.171981 19.983227 185.886565 20.568334 Q 183.812922 21.511174 182.724562 23.706083 Q 182.576012 24.003184 182.38805 24.942993 Q 182.260721 25.567512 182 26.19203" style="fill:none;stroke-width:0.50;stroke:#ce9331;"/>
		<path vector-effect="non-scaling-stroke" d="M 307.597902 66.224864 Q 307.555459 66.330972 307.588807 66.431016" style="fill:none;stroke-width:0.50;stroke:#ce9331;"/>
		<path vector-effect="non-scaling-stroke" d="M 185.850186 84.84521 Q 185.89566 84.736071 185.783489 84.614805" style="fill:none;stroke-width:0.50;stroke:#ce9331;"/>
		<path vector-effect="non-scaling-stroke" d="M 182.733657 67.370825 Q 182.845828 67.152547 182.721531 67.031281" style="fill:none;stroke-width:0.50;stroke:#ce9331;"/>
		<path vector-effect="non-scaling-stroke" d="M 222.878662 96.468526 Q 222.848346 96.647393 222.893821 96.768659" style="fill:none;stroke-width:0.50;stroke:#ce9331;"/>
		<path vector-effect="non-scaling-stroke" d="M 226.546949 31.145733 L 234.33827 29.023584 Q 234.45044 28.990236 234.501978 28.88716 Q 234.550485 28.787115 234.696003 28.799242 Q 234.793016 28.808337 234.883965 28.784084 L 243.451386 26.276916 C 243.775772 26.182935 244.103189 26.425466 244.103189 26.76501 L 244.182012 113.648842" style="fill:none;stroke-width:0.50;stroke:#ce9331;"/>
		<path vector-effect="non-scaling-stroke" d="M 244.182012 113.648842 L 244.194138 142.937537 C 244.194138 143.070929 244.279024 143.186131 244.406353 143.228574 C 245.734212 143.668162 246.586104 144.050149 247.874552 143.180068 Q 249.290329 142.219037 250.599998 141.239817" style="fill:none;stroke-width:0.50;stroke:#e29f32;"/>
		<path vector-effect="non-scaling-stroke" d="M 250.599998 141.239817 Q 255.129271 138.602288 259.270495 135.464539 Q 263.760357 132.056973 268.053162 128.212851 C 268.698902 127.633807 269.484097 126.897118 270.372368 126.036132 Q 273.986086 122.540648 277.138993 118.936026 Q 280.889135 114.652316 284.936377 108.458671 Q 287.837658 104.014283 290.939028 97.077886" style="fill:none;stroke-width:0.50;stroke:#ce9331;"/>
		<path vector-effect="non-scaling-stroke" d="M 299.724727 60.846731 Q 299.867214 60.558725 299.764139 60.140358" style="fill:none;stroke-width:0.50;stroke:#ce9331;"/>
		<path vector-effect="non-scaling-stroke" d="M 297.050819 27.450161 Q 296.896205 27.362244 296.723401 27.422877" style="fill:none;stroke-width:0.50;stroke:#ce9331;"/>
		<path vector-effect="non-scaling-stroke" d="M 296.162548 27.328896 Q 295.365226 26.661934 294.110126 26.661934 Q 294.028272 26.661934 293.964607 26.613428 Q 293.891848 26.56189 293.870626 26.555827 Q 291.672686 26.031353 287.06459 24.891455 Q 286.858438 24.839917 286.373375 24.78838 C 285.7913 24.724715 285.275921 24.439741 284.693846 24.34576 C 283.647929 24.172956 282.589886 23.812191 281.50759 23.678798 Q 280.995242 23.615134 280.613255 23.502963 Q 278.327397 22.823875 276.217374 22.335781 Q 276.187058 22.329718 275.113856 22.065965 Q 274.416579 21.896193 271.730544 21.326244 Q 271.254576 21.223168 270.123773 20.916973 Q 268.908085 20.589555 268.504877 20.565302 C 268.08651 20.541049 267.82882 20.280328 267.40439 20.195442 Q 266.328157 19.986258 265.882506 19.816486 C 265.006362 19.489069 264.175692 19.404183 263.254072 19.091924 Q 262.711408 18.910025 262.114175 18.828171 C 261.207714 18.706905 260.64686 18.455279 259.83438 18.297634 Q 258.7824 18.094514 258.767242 18.08845 Q 258.239736 17.948995 255.732568 17.363888 Q 255.344518 17.272939 254.962531 17.160768 Q 254.153083 16.921268 251.991522 16.469554 Q 250.609093 16.184579 249.044766 15.757118 Q 247.02266 15.20839 244.927796 15.090156 Q 243.396816 15.00527 241.411091 15.387257 Q 238.888765 15.87232 237.930766 16.05725 Q 237.75493 16.090598 237.633665 16.178516 Q 237.509367 16.266433 237.360817 16.281592 Q 237.024305 16.311908 235.720699 16.660547 Q 234.747541 16.918237 230.948894 17.803476 Q 228.335618 18.412836 226.177089 18.964595 Q 223.76087 19.58305 220.789861 20.201505 Q 220.574614 20.243948 220.353305 20.386435 Q 220.222944 20.471321 220.071362 20.480416 C 219.231597 20.531954 218.158396 20.941226 217.458086 21.095839 Q 214.826621 21.671851 212.243662 22.42673 C 211.840453 22.544964 211.218967 22.51768 210.924898 22.638945 Q 210.04269 23.002742 209.111976 23.172514 C 208.263116 23.327128 207.632534 23.606039 206.862497 23.733368 Q 205.713505 23.924362 203.197242 24.545848 Q 202.630325 24.682272 200.771928 25.094575 Q 199.553208 25.364392 198.361773 25.740315 Q 198.328425 25.74941 196.800477 26.128365 Q 195.954649 26.337549 195.23615 26.813516" style="fill:none;stroke-width:0.50;stroke:#ce9331;"/>
		<path vector-effect="non-scaling-stroke" d="M 262.144491 106.063673 C 262.778105 108.137317 261.141018 109.922954 259.713114 111.814698 Q 258.22761 113.788298 256.614776 114.418879 Q 255.135335 115.000954 254.007564 114.706885 Q 252.452331 114.303677 247.813919 112.46347 Q 247.025692 112.151211 246.625515 112.505913 Q 245.521998 113.476038 244.488208 113.900468 Q 244.330562 113.964133 244.236581 113.818614 Q 244.191107 113.748886 244.182012 113.648842" style="fill:none;stroke-width:0.50;stroke:#b6832f;"/>
		<path vector-effect="non-scaling-stroke" d="M 250.599998 141.239817 Q 255.480942 137.735239 260.161797 134.079078 Q 263.957413 131.117164 266.473676 128.431129 Q 268.168364 126.621239 272.057961 122.040427" style="fill:none;stroke-width:0.50;stroke:#b6832f;"/>
		<path vector-effect="non-scaling-stroke" d="M 272.057961 122.040427 Q 274.380199 118.805665 276.944968 116.392478 C 277.048044 116.292434 277.108677 116.159042 277.108677 116.016554 L 277.108677 56.159812 C 277.108677 55.889996 276.844924 55.699003 276.590266 55.783889 Q 272.606688 57.075368 268.820167 58.369879 Q 268.798946 58.378974 267.959181 58.624537 Q 267.334663 58.809467 266.452455 59.206613 Q 264.979077 59.873574 262.505257 60.204023" style="fill:none;stroke-width:0.50;stroke:#ce9331;"/>
		<path vector-effect="non-scaling-stroke" d="M 272.057961 122.040427 Q 266.643448 114.676569 263.551173 110.311004 Q 263.223756 109.847163 262.753851 109.043778 Q 262.441592 108.510209 262.405213 107.825057 Q 262.350643 106.697287 262.15965 105.605895" style="fill:none;stroke-width:0.50;stroke:#e29f32;"/>
		<path vector-effect="non-scaling-stroke" d="M 262.14146 98.06317 L 262.153586 96.847481" style="fill:none;stroke-width:0.50;stroke:#ce9331;"/>
		<path d="M 308.380065 29.863348 Q 308.092059 28.217167 308.00111 26.5437 Q 307.885908 24.427614 307.588807 23.712147 Q 306.994605 22.287275 305.666746 21.435383 C 305.211999 21.147377 304.184273 20.534986 303.374824 20.39553 Q 302.344066 20.216663 300.825213 19.825581 Q 300.130967 19.643683 298.254381 19.34355 Q 295.198485 18.852424 292.191096 17.979311 C 290.547946 17.503343 289.047284 17.333572 287.495083 16.690863 C 285.851933 16.011776 284.011726 15.948111 282.101791 15.460017 C 280.704204 15.102283 279.734079 14.953732 278.621466 14.656632 Q 276.502348 14.092746 275.310913 13.886594 Q 274.25287 13.701664 273.45858 13.428816 Q 272.194385 12.995292 271.636563 12.895247 Q 270.663406 12.725475 267.783346 11.928154 Q 265.40957 11.270287 263.945287 10.933775 Q 256.93613 9.330036 249.966385 7.565621 C 249.326708 7.404944 248.547576 7.386754 248.032197 7.238203 Q 247.140894 6.980514 245.055125 6.519704 Q 244.321467 6.359027 243.527177 6.5864 Q 242.696507 6.822868 241.104895 7.074495 Q 239.955903 7.256393 238.694739 7.608064 Q 236.093591 8.335658 235.402376 8.532714 C 235.117402 8.614569 234.826364 8.502398 234.544421 8.65398 Q 234.162434 8.8571 234.15334 8.860132 Q 233.219594 9.142074 232.925524 9.154201 C 232.091823 9.190581 231.482463 9.572568 230.563875 9.699897 Q 230.069718 9.766593 229.405788 9.933333 Q 227.974853 10.29713 225.695058 10.760971 C 224.973527 10.909522 224.427832 11.197528 223.785123 11.258161 Q 223.184858 11.318794 222.351157 11.573451 Q 221.860031 11.725034 220.347241 12.113084 Q 218.643458 12.546609 214.36278 13.607683 C 213.871654 13.728949 213.541205 13.944196 213.013699 13.97148 Q 212.449814 14.001797 211.749504 14.226138 Q 210.870328 14.508081 210.521689 14.574777 Q 207.756832 15.108346 206.301643 15.553998 Q 203.906646 16.281592 202.121009 16.651452 Q 202.087661 16.660547 196.912648 17.858046 Q 196.627673 17.924742 196.003155 17.964153 Q 195.542345 17.99447 195.093662 18.121798 Q 193.562683 18.555323 192.025641 18.952468 Q 191.640622 19.052513 188.918207 19.61943 Q 187.171981 19.983227 185.886565 20.568334 Q 183.812922 21.511174 182.724562 23.706083 Q 182.576012 24.003184 182.38805 24.942993 Q 182.260721 25.567512 182 26.19203 C 181.842355 23.4969 183.60677 20.980637 186.035116 20.092366 Q 186.55959 19.898341 188.663549 19.407215 Q 205.865087 15.390289 216.639543 12.695159 C 220.826241 11.649243 224.615793 10.797351 228.941947 9.730213 Q 237.818595 7.535304 243.95767 6.165002 C 244.645853 6.010388 245.167295 6.03161 245.900953 6.219571 Q 254.310728 8.353848 263.15706 10.454776 Q 265.834 11.09142 269.056635 11.876616 Q 290.078042 17.003123 302.950394 19.913499 Q 307.046143 20.83815 308.125408 24.388203 C 308.59228 25.919182 308.434635 28.111059 308.380065 29.863348 Z" style="fill:#a1772e;"/>
		<path d="M 308.380065 29.863348 Q 308.555901 46.300912 308.286085 57.357311 Q 308.20423 60.676959 307.597902 66.224864 Q 307.555459 66.330972 307.588807 66.431016 Q 306.048733 85.272672 297.745065 102.210456 Q 293.267329 111.353889 287.237393 119.560544 Q 284.123897 123.801811 278.454726 129.792336 Q 275.456432 132.960402 268.968718 138.326409 Q 266.843537 140.084761 264.160533 142.018949 Q 254.926151 148.688562 245.136979 154.009094 C 245.003587 154.081853 244.839878 154.081853 244.703454 154.006062 Q 235.250794 148.764353 226.283197 142.303923 Q 218.634363 136.79543 212.404339 130.616943 Q 192.980608 111.356921 185.850186 84.84521 Q 185.89566 84.736071 185.783489 84.614805 Q 183.579486 76.108017 182.733657 67.370825 Q 182.845828 67.152547 182.721531 67.031281 C 182.381987 63.032545 182.069728 59.015619 182.057601 54.998693 Q 182.009095 40.586267 182 26.19203 Q 182.260721 25.567512 182.38805 24.942993 Q 182.576012 24.003184 182.724562 23.706083 Q 183.812922 21.511174 185.886565 20.568334 Q 187.171981 19.983227 188.918207 19.61943 Q 191.640622 19.052513 192.025641 18.952468 Q 193.562683 18.555323 195.093662 18.121798 Q 195.542345 17.99447 196.003155 17.964153 Q 196.627673 17.924742 196.912648 17.858046 Q 202.087661 16.660547 202.121009 16.651452 Q 203.906646 16.281592 206.301643 15.553998 Q 207.756832 15.108346 210.521689 14.574777 Q 210.870328 14.508081 211.749504 14.226138 Q 212.449814 14.001797 213.013699 13.97148 C 213.541205 13.944196 213.871654 13.728949 214.36278 13.607683 Q 218.643458 12.546609 220.347241 12.113084 Q 221.860031 11.725034 222.351157 11.573451 Q 223.184858 11.318794 223.785123 11.258161 C 224.427832 11.197528 224.973527 10.909522 225.695058 10.760971 Q 227.974853 10.29713 229.405788 9.933333 Q 230.069718 9.766593 230.563875 9.699897 C 231.482463 9.572568 232.091823 9.190581 232.925524 9.154201 Q 233.219594 9.142074 234.15334 8.860132 Q 234.162434 8.8571 234.544421 8.65398 C 234.826364 8.502398 235.117402 8.614569 235.402376 8.532714 Q 236.093591 8.335658 238.694739 7.608064 Q 239.955903 7.256393 241.104895 7.074495 Q 242.696507 6.822868 243.527177 6.5864 Q 244.321467 6.359027 245.055125 6.519704 Q 247.140894 6.980514 248.032197 7.238203 C 248.547576 7.386754 249.326708 7.404944 249.966385 7.565621 Q 256.93613 9.330036 263.945287 10.933775 Q 265.40957 11.270287 267.783346 11.928154 Q 270.663406 12.725475 271.636563 12.895247 Q 272.194385 12.995292 273.45858 13.428816 Q 274.25287 13.701664 275.310913 13.886594 Q 276.502348 14.092746 278.621466 14.656632 C 279.734079 14.953732 280.704204 15.102283 282.101791 15.460017 C 284.011726 15.948111 285.851933 16.011776 287.495083 16.690863 C 289.047284 17.333572 290.547946 17.503343 292.191096 17.979311 Q 295.198485 18.852424 298.254381 19.34355 Q 300.130967 19.643683 300.825213 19.825581 Q 302.344066 20.216663 303.374824 20.39553 C 304.184273 20.534986 305.211999 21.147377 305.666746 21.435383 Q 306.994605 22.287275 307.588807 23.712147 Q 307.885908 24.427614 308.00111 26.5437 Q 308.092059 28.217167 308.380065 29.863348 Z M 195.23615 26.813516 L 190.567421 27.938256 Q 190.415839 27.974635 190.41887 28.129249 Q 190.452218 38.74606 190.440092 49.365902 C 190.43706 52.537 190.564389 57.105685 190.615927 60.986187 C 190.634117 62.383774 190.834205 63.699506 190.937281 65.063745 Q 191.022167 66.182421 191.325331 68.101451 Q 191.440534 68.826013 192.174191 73.28859 Q 193.450512 81.082942 195.602978 87.879884 C 196.227497 89.856515 196.933869 91.323829 197.773634 93.315618 Q 198.046482 93.961358 198.046482 93.261049 L 198.046482 67.285939 C 198.046482 67.007028 198.207159 66.75237 198.458785 66.631104 L 211.009784 60.573883 C 211.212904 60.476871 211.44634 60.479902 211.643397 60.58601 Q 217.482339 63.708601 222.096499 65.818624 Q 222.766492 66.12482 222.757397 66.749338 Q 222.724049 69.562702 222.836219 95.007275 Q 222.839251 95.740932 222.878662 96.468526 Q 222.848346 96.647393 222.893821 96.768659 L 226.410526 99.09696 C 226.465095 99.133339 226.540886 99.093928 226.540886 99.027232 L 226.546949 31.145733 L 234.33827 29.023584 Q 234.45044 28.990236 234.501978 28.88716 Q 234.550485 28.787115 234.696003 28.799242 Q 234.793016 28.808337 234.883965 28.784084 L 243.451386 26.276916 C 243.775772 26.182935 244.103189 26.425466 244.103189 26.76501 L 244.182012 113.648842 L 244.194138 142.937537 C 244.194138 143.070929 244.279024 143.186131 244.406353 143.228574 C 245.734212 143.668162 246.586104 144.050149 247.874552 143.180068 Q 249.290329 142.219037 250.599998 141.239817 Q 255.129271 138.602288 259.270495 135.464539 Q 263.760357 132.056973 268.053162 128.212851 C 268.698902 127.633807 269.484097 126.897118 270.372368 126.036132 Q 273.986086 122.540648 277.138993 118.936026 Q 280.889135 114.652316 284.936377 108.458671 Q 287.837658 104.014283 290.939028 97.077886 Q 291.51504 95.743964 292.057704 94.479769 Q 292.679191 93.039739 293.112716 91.848303 Q 298.563608 76.83258 299.724727 60.846731 Q 299.867214 60.558725 299.764139 60.140358 C 300.197663 49.344681 300.091556 39.009813 300.170379 28.438477 Q 300.170379 28.286895 300.02486 28.247483 L 297.050819 27.450161 Q 296.896205 27.362244 296.723401 27.422877 L 296.162548 27.328896 Q 295.365226 26.661934 294.110126 26.661934 Q 294.028272 26.661934 293.964607 26.613428 Q 293.891848 26.56189 293.870626 26.555827 Q 291.672686 26.031353 287.06459 24.891455 Q 286.858438 24.839917 286.373375 24.78838 C 285.7913 24.724715 285.275921 24.439741 284.693846 24.34576 C 283.647929 24.172956 282.589886 23.812191 281.50759 23.678798 Q 280.995242 23.615134 280.613255 23.502963 Q 278.327397 22.823875 276.217374 22.335781 Q 276.187058 22.329718 275.113856 22.065965 Q 274.416579 21.896193 271.730544 21.326244 Q 271.254576 21.223168 270.123773 20.916973 Q 268.908085 20.589555 268.504877 20.565302 C 268.08651 20.541049 267.82882 20.280328 267.40439 20.195442 Q 266.328157 19.986258 265.882506 19.816486 C 265.006362 19.489069 264.175692 19.404183 263.254072 19.091924 Q 262.711408 18.910025 262.114175 18.828171 C 261.207714 18.706905 260.64686 18.455279 259.83438 18.297634 Q 258.7824 18.094514 258.767242 18.08845 Q 258.239736 17.948995 255.732568 17.363888 Q 255.344518 17.272939 254.962531 17.160768 Q 254.153083 16.921268 251.991522 16.469554 Q 250.609093 16.184579 249.044766 15.757118 Q 247.02266 15.20839 244.927796 15.090156 Q 243.396816 15.00527 241.411091 15.387257 Q 238.888765 15.87232 237.930766 16.05725 Q 237.75493 16.090598 237.633665 16.178516 Q 237.509367 16.266433 237.360817 16.281592 Q 237.024305 16.311908 235.720699 16.660547 Q 234.747541 16.918237 230.948894 17.803476 Q 228.335618 18.412836 226.177089 18.964595 Q 223.76087 19.58305 220.789861 20.201505 Q 220.574614 20.243948 220.353305 20.386435 Q 220.222944 20.471321 220.071362 20.480416 C 219.231597 20.531954 218.158396 20.941226 217.458086 21.095839 Q 214.826621 21.671851 212.243662 22.42673 C 211.840453 22.544964 211.218967 22.51768 210.924898 22.638945 Q 210.04269 23.002742 209.111976 23.172514 C 208.263116 23.327128 207.632534 23.606039 206.862497 23.733368 Q 205.713505 23.924362 203.197242 24.545848 Q 202.630325 24.682272 200.771928 25.094575 Q 199.553208 25.364392 198.361773 25.740315 Q 198.328425 25.74941 196.800477 26.128365 Q 195.954649 26.337549 195.23615 26.813516 Z" style="fill:#faaf34;"/>
		<path d="M 307.597902 66.224864 Q 307.622155 66.318845 307.588807 66.431016 Q 307.555459 66.330972 307.597902 66.224864 Z" style="fill:#a1772e;"/>
		<path d="M 182.733657 67.370825 Q 182.648771 67.15861 182.721531 67.031281 Q 182.845828 67.152547 182.733657 67.370825 Z" style="fill:#a1772e;"/>
		<path d="M 185.850186 84.84521 Q 185.762268 84.745166 185.783489 84.614805 Q 185.89566 84.736071 185.850186 84.84521 Z" style="fill:#a1772e;"/>
		<path d="M 296.162548 27.328896 Q 283.866207 24.500374 271.679006 21.544522 C 271.251544 21.441447 270.769513 21.408099 270.372368 21.305023 C 265.973455 20.165125 261.859517 19.243506 257.202915 18.085419 Q 253.910551 17.269907 250.145252 16.451364 C 248.174684 16.023902 246.243528 15.308435 244.209297 15.417574 Q 242.581305 15.505491 239.964998 16.060282 Q 235.984451 16.909142 222.314777 20.243948 Q 212.198187 22.711705 202.290781 25.091544 Q 198.774076 25.93434 195.23615 26.813516 Q 195.954649 26.337549 196.800477 26.128365 Q 198.328425 25.74941 198.361773 25.740315 Q 199.553208 25.364392 200.771928 25.094575 Q 202.630325 24.682272 203.197242 24.545848 Q 205.713505 23.924362 206.862497 23.733368 C 207.632534 23.606039 208.263116 23.327128 209.111976 23.172514 Q 210.04269 23.002742 210.924898 22.638945 C 211.218967 22.51768 211.840453 22.544964 212.243662 22.42673 Q 214.826621 21.671851 217.458086 21.095839 C 218.158396 20.941226 219.231597 20.531954 220.071362 20.480416 Q 220.222944 20.471321 220.353305 20.386435 Q 220.574614 20.243948 220.789861 20.201505 Q 223.76087 19.58305 226.177089 18.964595 Q 228.335618 18.412836 230.948894 17.803476 Q 234.747541 16.918237 235.720699 16.660547 Q 237.024305 16.311908 237.360817 16.281592 Q 237.509367 16.266433 237.633665 16.178516 Q 237.75493 16.090598 237.930766 16.05725 Q 238.888765 15.87232 241.411091 15.387257 Q 243.396816 15.00527 244.927796 15.090156 Q 247.02266 15.20839 249.044766 15.757118 Q 250.609093 16.184579 251.991522 16.469554 Q 254.153083 16.921268 254.962531 17.160768 Q 255.344518 17.272939 255.732568 17.363888 Q 258.239736 17.948995 258.767242 18.08845 Q 258.7824 18.094514 259.83438 18.297634 C 260.64686 18.455279 261.207714 18.706905 262.114175 18.828171 Q 262.711408 18.910025 263.254072 19.091924 C 264.175692 19.404183 265.006362 19.489069 265.882506 19.816486 Q 266.328157 19.986258 267.40439 20.195442 C 267.82882 20.280328 268.08651 20.541049 268.504877 20.565302 Q 268.908085 20.589555 270.123773 20.916973 Q 271.254576 21.223168 271.730544 21.326244 Q 274.416579 21.896193 275.113856 22.065965 Q 276.187058 22.329718 276.217374 22.335781 Q 278.327397 22.823875 280.613255 23.502963 Q 280.995242 23.615134 281.50759 23.678798 C 282.589886 23.812191 283.647929 24.172956 284.693846 24.34576 C 285.275921 24.439741 285.7913 24.724715 286.373375 24.78838 Q 286.858438 24.839917 287.06459 24.891455 Q 291.672686 26.031353 293.870626 26.555827 Q 293.891848 26.56189 293.964607 26.613428 Q 294.028272 26.661934 294.110126 26.661934 Q 295.365226 26.661934 296.162548 27.328896 Z" style="fill:#a1772e;"/>
		<path d="M 262.144491 106.063673 C 262.778105 108.137317 261.141018 109.922954 259.713114 111.814698 Q 258.22761 113.788298 256.614776 114.418879 Q 255.135335 115.000954 254.007564 114.706885 Q 252.452331 114.303677 247.813919 112.46347 Q 247.025692 112.151211 246.625515 112.505913 Q 245.521998 113.476038 244.488208 113.900468 Q 244.330562 113.964133 244.236581 113.818614 Q 244.191107 113.748886 244.182012 113.648842 L 244.103189 26.76501 C 244.103189 26.425466 243.775772 26.182935 243.451386 26.276916 L 234.883965 28.784084 Q 234.793016 28.808337 234.696003 28.799242 Q 234.550485 28.787115 234.501978 28.88716 Q 234.45044 28.990236 234.33827 29.023584 L 226.546949 31.145733 Q 226.52876 30.71524 227.010791 30.590943 Q 233.898682 28.808337 243.287677 26.125334 C 243.887942 25.95253 243.991018 25.879771 244.530651 26.0071 Q 245.094536 26.140492 247.756318 27.010573 Q 251.809623 28.332369 257.681914 30.072532 C 258.0063 30.169544 258.22761 30.466645 258.22761 30.803158 L 258.22761 107.158096 C 258.22761 107.291488 258.336749 107.400628 258.470141 107.400628 Q 260.086006 107.385469 261.689745 107.803836 Q 262.032321 107.894785 262.053542 107.540083 L 262.144491 106.063673 Z" style="fill:#a1772e;"/>
		<path d="M 297.050819 27.450161 Q 296.874984 27.486541 296.723401 27.422877 Q 296.896205 27.362244 297.050819 27.450161 Z" style="fill:#a1772e;"/>
		<path d="M 290.939028 97.077886 Q 287.837658 104.014283 284.936377 108.458671 Q 280.889135 114.652316 277.138993 118.936026 Q 273.986086 122.540648 270.372368 126.036132 C 269.484097 126.897118 268.698902 127.633807 268.053162 128.212851 Q 263.760357 132.056973 259.270495 135.464539 Q 255.129271 138.602288 250.599998 141.239817 Q 255.480942 137.735239 260.161797 134.079078 Q 263.957413 131.117164 266.473676 128.431129 Q 268.168364 126.621239 272.057961 122.040427 Q 274.380199 118.805665 276.944968 116.392478 C 277.048044 116.292434 277.108677 116.159042 277.108677 116.016554 L 277.108677 56.159812 C 277.108677 55.889996 276.844924 55.699003 276.590266 55.783889 Q 272.606688 57.075368 268.820167 58.369879 Q 268.798946 58.378974 267.959181 58.624537 Q 267.334663 58.809467 266.452455 59.206613 Q 264.979077 59.873574 262.505257 60.204023 L 276.863114 55.492851 C 277.093519 55.41706 277.345145 55.432218 277.566455 55.538326 L 290.511567 61.728939 C 290.708623 61.82292 290.835952 62.023008 290.835952 62.241286 L 290.939028 97.077886 Z" style="fill:#a1772e;"/>
		<path d="M 272.057961 122.040427 Q 266.643448 114.676569 263.551173 110.311004 Q 263.223756 109.847163 262.753851 109.043778 Q 262.441592 108.510209 262.405213 107.825057 Q 262.350643 106.697287 262.15965 105.605895 L 262.14146 98.06317 L 262.153586 96.847481 Q 262.162681 78.803147 262.25363 60.758813 Q 262.25363 60.388953 262.505257 60.204023 Q 264.979077 59.873574 266.452455 59.206613 Q 267.334663 58.809467 267.959181 58.624537 Q 268.798946 58.378974 268.820167 58.369879 Q 272.606688 57.075368 276.590266 55.783889 C 276.844924 55.699003 277.108677 55.889996 277.108677 56.159812 L 277.108677 116.016554 C 277.108677 116.159042 277.048044 116.292434 276.944968 116.392478 Q 274.380199 118.805665 272.057961 122.040427 Z" style="fill:#faaf34;"/>
		<path d="M 299.764139 60.140358 Q 299.867214 60.558725 299.724727 60.846731 Q 299.645904 60.485966 299.764139 60.140358 Z" style="fill:#a1772e;"/>
		<path d="M 222.878662 96.468526 L 222.893821 96.768659 Q 222.848346 96.647393 222.878662 96.468526 Z" style="fill:#a1772e;"/>
		<path d="M 262.153586 96.847481 L 262.14146 98.06317 L 262.153586 96.847481 Z" style="fill:#a1772e;"/>
		<path d="M 262.15965 105.605895 Q 262.350643 106.697287 262.405213 107.825057 Q 262.441592 108.510209 262.753851 109.043778 Q 263.223756 109.847163 263.551173 110.311004 Q 266.643448 114.676569 272.057961 122.040427 Q 268.168364 126.621239 266.473676 128.431129 Q 263.957413 131.117164 260.161797 134.079078 Q 255.480942 137.735239 250.599998 141.239817 Q 249.290329 142.219037 247.874552 143.180068 C 246.586104 144.050149 245.734212 143.668162 244.406353 143.228574 C 244.279024 143.186131 244.194138 143.070929 244.194138 142.937537 L 244.182012 113.648842 Q 244.191107 113.748886 244.236581 113.818614 Q 244.330562 113.964133 244.488208 113.900468 Q 245.521998 113.476038 246.625515 112.505913 Q 247.025692 112.151211 247.813919 112.46347 Q 252.452331 114.303677 254.007564 114.706885 Q 255.135335 115.000954 256.614776 114.418879 Q 258.22761 113.788298 259.713114 111.814698 C 261.141018 109.922954 262.778105 108.137317 262.144491 106.063673 Q 262.102048 105.851458 262.15965 105.605895 Z" style="fill:#ca8e30;"/>
	</g>
	<g id="surface4">
	</g>
</svg>
