<?xml version="1.0" encoding="utf-8"?>
<svg xmlns="http://www.w3.org/2000/svg" width="490pt" height="280pt" viewBox="0 0 490 280" version="1.1" xmlns:xlink="http://www.w3.org/1999/xlink">
	<g id="surface2">
		<path stroke-opacity="0.663" vector-effect="non-scaling-stroke" d="M 250.689695 28.958858 L 251.956841 29.714921" style="fill:none;stroke-width:0.50;stroke:#3e4752;"/>
		<path vector-effect="non-scaling-stroke" d="M 251.956841 29.714921 Q 241.099518 29.567088 230.29077 29.70225 C 229.617071 29.710697 228.894799 29.784614 228.191533 29.814181" style="fill:none;stroke-width:0.50;stroke:#83898c;"/>
		<path vector-effect="non-scaling-stroke" d="M 228.191533 29.814181 Q 227.775487 29.805733 228.375269 29.543857 Q 228.45341 29.510066 228.556893 29.252413" style="fill:none;stroke-width:0.50;stroke:#7a6968;"/>
		<path stroke-opacity="0.663" vector-effect="non-scaling-stroke" d="M 252.161696 29.660012 Q 251.986407 29.757159 251.956841 29.714921" style="fill:none;stroke-width:0.50;stroke:#efe5d8;"/>
		<path vector-effect="non-scaling-stroke" d="M 228.191533 29.814181 Q 227.144026 29.913441 226.404858 30.386508 Q 225.878993 30.722302 225.494626 30.800442 Q 225.281323 30.844792 224.856829 31.132012" style="fill:none;stroke-width:0.50;stroke:#efd2c0;"/>
		<path vector-effect="non-scaling-stroke" d="M 224.856829 31.132012 L 224.542155 31.311524" style="fill:none;stroke-width:0.50;stroke:#caa68f;"/>
		<path vector-effect="non-scaling-stroke" d="M 224.542155 31.311524 Q 224.455567 31.364322 224.453455 31.442462 Q 224.451343 31.560729 224.567498 31.55017 Q 227.057438 31.322084 229.555826 31.324196 Q 243.50287 31.334755 251.409856 31.313636 Q 253.099383 31.309412 254.742448 31.717011" style="fill:none;stroke-width:0.50;stroke:#efd2c0;"/>
		<path vector-effect="non-scaling-stroke" d="M 254.742448 31.717011 L 256.73609 32.880672" style="fill:none;stroke-width:0.50;stroke:#edcab4;"/>
		<path vector-effect="non-scaling-stroke" d="M 256.73609 32.880672 C 257.071883 33.24392 258.037026 33.957746 257.249284 34.407582 Q 257.160583 34.458268 257.204934 34.551192 Q 257.221829 34.587094 257.255619 34.606102 Q 257.325312 34.64834 257.399229 34.612437 L 257.568182 34.530073" style="fill:none;stroke-width:0.50;stroke:#e5b79e;"/>
		<path vector-effect="non-scaling-stroke" d="M 257.568182 34.530073 L 258.757186 35.554348" style="fill:none;stroke-width:0.50;stroke:#edcab4;"/>
		<path vector-effect="non-scaling-stroke" d="M 258.757186 35.554348 Q 258.332693 34.124586 257.373886 33.039065 Q 256.974735 32.589229 256.40452 32.373814" style="fill:none;stroke-width:0.50;stroke:#e5b79e;"/>
		<path vector-effect="non-scaling-stroke" d="M 256.40452 32.373814 L 256.22712 32.145728" style="fill:none;stroke-width:0.50;stroke:#edcab4;"/>
		<path vector-effect="non-scaling-stroke" d="M 256.22712 32.145728 L 255.496399 31.159467 Q 255.490064 31.151019 255.496399 31.142571 Q 255.498511 31.138348 255.500623 31.1299 Q 255.504847 31.100333 255.534414 31.127788 Q 256.419304 31.993671 257.171143 32.639915 Q 258.083488 33.421321 258.417169 33.991536 Q 258.886013 34.787726 259.09298 35.740196" style="fill:none;stroke-width:0.50;stroke:#caa68f;"/>
		<path vector-effect="non-scaling-stroke" d="M 259.09298 35.740196 Q 258.710724 34.551192 258.041249 33.501573 Q 258.02013 33.465671 257.973668 33.484678 L 257.971556 33.48679 C 257.950437 33.495238 257.94199 33.526916 257.954661 33.554371 L 259.078196 36.07599" style="fill:none;stroke-width:0.50;stroke:#e5b79e;"/>
		<path vector-effect="non-scaling-stroke" d="M 259.078196 36.07599 L 257.756142 35.045379 Q 257.716015 35.0137 257.716015 35.064386 L 257.716015 35.136191 Q 257.716015 35.182653 257.669553 35.182653 Q 257.213381 35.1911 257.204934 34.903881 Q 257.20071 34.732816 257.128905 34.886985 L 257.065548 35.026371 Q 257.031757 35.098176 257.031757 35.020036 L 257.031757 34.931335 Q 257.031757 34.796173 256.900819 34.823628 Q 256.797335 34.846859 256.704411 34.908104" style="fill:none;stroke-width:0.50;stroke:#edcab4;"/>
		<path vector-effect="non-scaling-stroke" d="M 256.704411 34.908104 Q 255.16483 35.260793 253.604129 35.499439 Q 250.622114 35.955611 248.106831 37.239652 C 241.042497 40.842568 239.840821 50.177204 240.216741 57.123271 Q 240.54831 63.224575 240.664465 69.213948 Q 240.715151 71.879177 240.598996 75.150523 Q 240.586325 75.528555 240.615891 77.108262 Q 240.634899 78.088188 240.508184 79.066002" style="fill:none;stroke-width:0.50;stroke:#efd2c0;"/>
		<path vector-effect="non-scaling-stroke" d="M 240.508184 79.066002 Q 240.389917 78.276148 240.381469 77.490518 Q 240.366686 76.151568 240.366686 76.147344 Q 239.923185 65.437855 239.899954 64.77894 Q 239.756345 60.557235 239.422663 54.747374 C 239.135443 49.767493 238.206204 44.709472 233.363597 42.187853 Q 232.61387 41.79715 230.527304 41.193144 C 227.838844 40.411738 225.612893 39.621884 224.00573 37.594452 C 222.994126 36.320971 222.197936 34.116139 223.228548 32.633579 Q 223.528439 32.20275 224.09443 31.691668 Q 224.102878 31.68322 224.098654 31.678996 L 224.066975 31.63887 Q 224.05008 31.617751 224.028961 31.632534 Q 221.731204 33.049625 220.911784 35.469872 C 220.474619 36.76236 220.493626 38.496237 220.546424 39.91544 Q 220.696369 44.054781 221.674183 48.658741 Q 222.795606 53.944849 224.428112 58.842365 Q 226.020491 63.621614 229.281278 73.025943 C 229.872612 74.730253 230.43438 76.073427 231.448096 77.484182 C 232.358329 78.749215 233.602243 79.860079 234.909514 81.142008 C 237.302307 83.49045 238.531438 86.396437 239.236815 89.631881 Q 239.855604 92.457614 240.140712 95.448077" style="fill:none;stroke-width:0.50;stroke:#7f6f6c;"/>
		<path vector-effect="non-scaling-stroke" d="M 240.140712 95.448077 Q 240.062571 95.807101 240.204069 96.343526" style="fill:none;stroke-width:0.50;stroke:#caa68f;"/>
		<path stroke-opacity="0.663" vector-effect="non-scaling-stroke" d="M 240.204069 96.343526 L 239.775352 100.26534" style="fill:none;stroke-width:0.50;stroke:#e2b5a2;"/>
		<path vector-effect="non-scaling-stroke" d="M 239.775352 100.26534 L 239.771128 100.567343" style="fill:none;stroke-width:0.50;stroke:#caa68f;"/>
		<path stroke-opacity="0.663" vector-effect="non-scaling-stroke" d="M 239.771128 100.567343 L 239.750009 100.901025" style="fill:none;stroke-width:0.50;stroke:#e2b5a2;"/>
		<path vector-effect="non-scaling-stroke" d="M 239.750009 100.901025 Q 239.692987 101.097432 239.716218 101.361421" style="fill:none;stroke-width:0.50;stroke:#caa68f;"/>
		<path stroke-opacity="0.663" vector-effect="non-scaling-stroke" d="M 239.716218 101.361421 L 239.572608 103.475442" style="fill:none;stroke-width:0.50;stroke:#e2b5a2;"/>
		<path vector-effect="non-scaling-stroke" d="M 239.572608 103.475442 C 239.428999 102.63279 239.431111 101.764796 239.171346 100.981277 Q 238.89891 100.163969 238.751076 99.614873 C 237.724688 95.817661 235.583213 92.611784 232.292859 90.544225 C 230.231637 89.247513 228.368933 88.575926 225.536864 87.38481 Q 224.022625 86.749125 222.261294 85.697395 C 216.937172 82.518972 212.018537 78.13465 208.502209 73.066069 Q 207.061887 70.990063 206.15799 68.578264 Q 206.008045 68.177001 205.706042 66.985884 Q 205.505411 66.191807 205.207631 65.397729" style="fill:none;stroke-width:0.50;stroke:#edcab4;"/>
		<path vector-effect="non-scaling-stroke" d="M 254.045518 30.25557 L 254.256709 30.416075" style="fill:none;stroke-width:0.50;stroke:#d3c6b3;"/>
		<path stroke-opacity="0.663" vector-effect="non-scaling-stroke" d="M 254.256709 30.416075 Q 254.256709 30.435082 254.256709 30.454089" style="fill:none;stroke-width:0.50;stroke:#efe5d8;"/>
		<path vector-effect="non-scaling-stroke" d="M 254.256709 30.454089 L 253.479527 30.407627" style="fill:none;stroke-width:0.50;stroke:#d3c6b3;"/>
		<path vector-effect="non-scaling-stroke" d="M 253.479527 30.407627 Q 253.46052 30.39918 253.443624 30.392844 Q 253.441512 30.390732 253.443624 30.392844 Q 253.46052 30.39918 253.479527 30.407627" style="fill:none;stroke-width:0.50;stroke:#eed6c2;"/>
		<path vector-effect="non-scaling-stroke" d="M 253.479527 30.407627 L 253.319022 30.466761" style="fill:none;stroke-width:0.50;stroke:#d3c6b3;"/>
		<path vector-effect="non-scaling-stroke" d="M 253.319022 30.466761 L 252.890304 30.187989 Q 252.848066 30.160534 252.822723 30.204884 L 252.788933 30.261905 Q 252.76359 30.304144 252.805828 30.329487 L 253.27256 30.599811 Q 253.369707 30.65472 253.257776 30.65472 L 253.18386 30.65472 C 253.11839 30.65472 253.078264 30.726525 253.112055 30.781435 Q 253.223986 30.965171 253.49431 31.077102 Q 254.153226 31.349538 254.742448 31.717011" style="fill:none;stroke-width:0.50;stroke:#f6ead8;"/>
		<path vector-effect="non-scaling-stroke" d="M 224.542155 31.311524 Q 225.234861 31.284069 224.856829 31.132012" style="fill:none;stroke-width:0.50;stroke:#d3c6b3;"/>
		<path stroke-opacity="0.663" vector-effect="non-scaling-stroke" d="M 239.572608 103.475442 L 239.557825 104.947442" style="fill:none;stroke-width:0.50;stroke:#ecd9c5;"/>
		<path vector-effect="non-scaling-stroke" d="M 240.795404 123.221787 Q 240.888328 126.917627 240.767949 128.188996 Q 240.525079 130.73807 240.284322 133.285032 Q 240.273762 133.396963 240.170279 133.437089 L 240.018221 133.496223" style="fill:none;stroke-width:0.50;stroke:#e9c0a0;"/>
		<path vector-effect="non-scaling-stroke" d="M 240.018221 133.496223 L 239.498692 133.532125" style="fill:none;stroke-width:0.50;stroke:#d1bea7;"/>
		<path vector-effect="non-scaling-stroke" d="M 239.257934 133.407522 Q 239.198801 132.928119 239.190353 132.412813 Q 239.135443 128.567028 239.059415 125.97994 C 238.85456 119.164811 236.508229 112.839644 232.632877 107.266318 Q 229.163011 102.273766 224.882172 98.121753 Q 221.175773 94.529397 217.378561 90.886354" style="fill:none;stroke-width:0.50;stroke:#868784;"/>
		<path vector-effect="non-scaling-stroke" d="M 242.588414 93.112306 Q 242.655995 92.801855 242.516609 92.567434 Q 242.45114 92.459726 242.461699 92.584329 Q 242.487042 92.877884 242.588414 93.112306" style="fill:none;stroke-width:0.50;stroke:#c8ab91;"/>
		<path stroke-opacity="0.663" vector-effect="non-scaling-stroke" d="M 241.899932 98.799676 Q 242.096339 97.285437 241.553579 96.003509 C 241.251576 95.287572 241.673958 94.810281 242.102675 94.259072 C 242.187151 94.151365 242.159697 93.995084 242.043542 93.923279 L 240.812299 93.15032 Q 240.801739 93.143985 240.789068 93.148208 L 240.734158 93.169328 Q 240.689808 93.186223 240.729934 93.213678 C 242.520833 94.385787 240.765837 94.835623 241.323381 95.925368 Q 241.834463 96.922189 241.830239 98.014046 Q 241.828127 98.144984 241.6993 98.132313 Q 241.572586 98.119641 241.526124 98.049948 C 241.42264 97.897891 241.363507 97.758505 241.365619 97.671917 C 241.403633 96.645529 241.21145 96.343526 240.573653 95.515658 Q 240.51452 95.439629 240.491289 95.532553 Q 240.45961 95.652932 240.368798 95.731073 Q 240.288545 95.798654 240.273762 95.900025 L 240.204069 96.343526" style="fill:none;stroke-width:0.50;stroke:#b7a38e;"/>
		<path vector-effect="non-scaling-stroke" d="M 259.422438 38.116094 L 259.354857 38.572266" style="fill:none;stroke-width:0.50;stroke:#d3c6b3;"/>
		<path vector-effect="non-scaling-stroke" d="M 259.354857 38.572266 L 259.111987 38.865821 Q 259.044406 38.950298 258.940922 38.977752 C 257.925094 39.264972 256.826902 39.469827 255.884991 39.856306 C 251.067727 41.837277 247.794269 46.633421 246.571474 51.606966 C 245.646458 55.357716 245.530303 59.254187 245.942125 62.933132 Q 246.404633 67.053466 246.715083 70.062935 C 247.511273 77.824199 246.372954 85.712178 243.83444 93.074292" style="fill:none;stroke-width:0.50;stroke:#efd2c0;"/>
		<path vector-effect="non-scaling-stroke" d="M 243.83444 93.074292 Q 244.119548 91.92119 244.117436 90.75964 C 244.117436 89.152477 242.48493 87.792408 241.192442 87.224305 Q 240.831306 87.0638 240.60322 86.324632" style="fill:none;stroke-width:0.50;stroke:#f6ead8;"/>
		<path stroke-opacity="0.663" vector-effect="non-scaling-stroke" d="M 256.467877 31.087662 Q 256.353834 31.022193 256.332715 31.017969 Q 255.986362 30.94194 256.279918 31.140459 Q 256.586144 31.347427 256.911378 31.634646 Q 257.052876 31.759249 256.905043 31.695891 Q 256.839573 31.668437 256.801559 31.668437 Q 256.527011 31.659989 256.771992 31.822606 L 257.093002 32.035909 Q 257.194374 32.10349 257.073995 32.105602 L 256.983183 32.107714 Q 256.856469 32.107714 256.966288 32.173183 Q 257.171143 32.297785 257.414012 32.306233 Q 257.523832 32.310457 257.614644 32.371702 Q 258.638919 33.062296 259.073973 34.247077 Q 259.078196 34.26186 259.065525 34.266084 L 259.010615 34.287203 Q 258.934587 34.318882 258.91558 34.238629 Q 258.845887 33.966193 258.837439 33.947186 Q 258.605129 33.433992 258.780417 33.970417 Q 258.951482 34.487835 259.211247 35.131967 Q 259.411878 35.626153 259.373864 36.798263" style="fill:none;stroke-width:0.50;stroke:#b7a38e;"/>
		<path vector-effect="non-scaling-stroke" d="M 259.373864 36.798263 L 259.09298 35.740196" style="fill:none;stroke-width:0.50;stroke:#c8ab91;"/>
		<path stroke-opacity="0.663" vector-effect="non-scaling-stroke" d="M 254.256709 30.454089 Q 254.2905 30.451977 254.320066 30.441418 C 254.330626 30.437194 254.336962 30.426634 254.332738 30.416075 C 254.330626 30.405515 254.320066 30.39918 254.309507 30.401291 Q 254.286276 30.405515 254.256709 30.416075" style="fill:none;stroke-width:0.50;stroke:#b7a38e;"/>
		<path vector-effect="non-scaling-stroke" d="M 259.411878 37.607124 Q 259.266156 36.859508 259.120435 36.743353" style="fill:none;stroke-width:0.50;stroke:#eed6c2;"/>
		<path vector-effect="non-scaling-stroke" d="M 259.120435 36.743353 L 259.078196 36.07599" style="fill:none;stroke-width:0.50;stroke:#eccfb5;"/>
		<path vector-effect="non-scaling-stroke" d="M 258.757186 35.554348 Q 257.992675 34.671571 257.597749 33.645183 Q 257.536503 33.484678 257.523832 33.643071 Q 257.519608 33.702205 257.56607 33.767674 C 257.606196 33.822583 257.625203 33.888053 257.618868 33.955634 L 257.568182 34.530073" style="fill:none;stroke-width:0.50;stroke:#eccfb5;"/>
		<path vector-effect="non-scaling-stroke" d="M 259.120435 36.743353 Q 257.747694 36.02108 256.704411 34.908104" style="fill:none;stroke-width:0.50;stroke:#f6ead8;"/>
		<path stroke-opacity="0.663" vector-effect="non-scaling-stroke" d="M 240.588437 102.383585 Q 240.546198 102.463837 240.529303 102.573657" style="fill:none;stroke-width:0.50;stroke:#b7a38e;"/>
		<path stroke-opacity="0.663" vector-effect="non-scaling-stroke" d="M 240.041452 104.01609 L 240.024557 104.1597" style="fill:none;stroke-width:0.50;stroke:#b7a38e;"/>
		<path stroke-opacity="0.663" vector-effect="non-scaling-stroke" d="M 239.716218 101.361421 L 239.750009 100.901025" style="fill:none;stroke-width:0.50;stroke:#b7a38e;"/>
		<path stroke-opacity="0.663" vector-effect="non-scaling-stroke" d="M 239.771128 100.567343 L 239.775352 100.26534" style="fill:none;stroke-width:0.50;stroke:#b7a38e;"/>
		<path vector-effect="non-scaling-stroke" d="M 253.319022 30.466761 C 254.514362 30.901814 255.454161 31.22916 256.22712 32.145728" style="fill:none;stroke-width:0.50;stroke:#d1bea7;"/>
		<path vector-effect="non-scaling-stroke" d="M 256.40452 32.373814 L 256.73609 32.880672" style="fill:none;stroke-width:0.50;stroke:#eccfb5;"/>
		<path vector-effect="non-scaling-stroke" d="M 240.508184 79.066002 L 240.60322 86.324632" style="fill:none;stroke-width:0.50;stroke:#888f90;"/>
		<path vector-effect="non-scaling-stroke" d="M 240.60322 86.324632 L 240.457498 91.334079" style="fill:none;stroke-width:0.50;stroke:#868784;"/>
		<path vector-effect="non-scaling-stroke" d="M 240.457498 91.334079 L 240.140712 95.448077" style="fill:none;stroke-width:0.50;stroke:#63635f;"/>
		<path vector-effect="non-scaling-stroke" d="M 259.28094 59.805395 Q 259.209135 59.900431 259.257709 60.090503" style="fill:none;stroke-width:0.50;stroke:#caa68f;"/>
		<path vector-effect="non-scaling-stroke" d="M 259.234478 60.749418 C 259.057077 61.112667 258.953594 61.535048 258.803648 61.853947 Q 255.504847 68.861259 254.436221 76.134673 Q 254.258821 77.338461 254.020175 79.587643 Q 253.956818 80.191649 254.351745 79.731253 Q 254.729777 79.291976 255.240859 78.744992 Q 255.982138 77.950914 258.788865 75.395505 C 258.924027 75.270902 259.120435 75.273014 259.156337 75.397616 L 259.202799 75.560233" style="fill:none;stroke-width:0.50;stroke:#caa68f;"/>
		<path stroke-opacity="0.663" vector-effect="non-scaling-stroke" d="M 259.266156 95.82822 L 259.28094 99.908428" style="fill:none;stroke-width:0.50;stroke:#e2b5a2;"/>
		<path vector-effect="non-scaling-stroke" d="M 259.28094 99.908428 L 259.304171 103.629611" style="fill:none;stroke-width:0.50;stroke:#caa68f;"/>
		<path vector-effect="non-scaling-stroke" d="M 259.304171 103.629611 Q 257.59986 104.468039 255.935676 105.32125 C 254.638965 105.984389 252.098338 107.196625 250.271538 108.195557 C 245.359238 110.884017 241.965401 115.631588 241.243128 121.175348 C 241.150204 121.895509 240.96858 122.537529 240.795404 123.221787" style="fill:none;stroke-width:0.50;stroke:#e2a888;"/>
		<path vector-effect="non-scaling-stroke" d="M 240.795404 123.221787 Q 239.678204 114.121573 239.557825 104.947442" style="fill:none;stroke-width:0.50;stroke:#edcab4;"/>
		<path stroke-opacity="0.663" vector-effect="non-scaling-stroke" d="M 239.557825 104.947442 L 239.595839 105.105835 Q 239.676092 105.439517 239.766904 105.107947 L 240.024557 104.1597" style="fill:none;stroke-width:0.50;stroke:#e2b5a2;"/>
		<path vector-effect="non-scaling-stroke" d="M 240.024557 104.1597 L 240.041452 104.01609" style="fill:none;stroke-width:0.50;stroke:#caa68f;"/>
		<path stroke-opacity="0.663" vector-effect="non-scaling-stroke" d="M 240.041452 104.01609 L 240.529303 102.573657" style="fill:none;stroke-width:0.50;stroke:#e2b5a2;"/>
		<path vector-effect="non-scaling-stroke" d="M 240.529303 102.573657 L 240.588437 102.383585" style="fill:none;stroke-width:0.50;stroke:#caa68f;"/>
		<path stroke-opacity="0.663" vector-effect="non-scaling-stroke" d="M 240.588437 102.383585 L 241.899932 98.799676" style="fill:none;stroke-width:0.50;stroke:#e2b5a2;"/>
		<path vector-effect="non-scaling-stroke" d="M 241.899932 98.799676 Q 242.767926 96.360421 242.413126 93.821907 Q 242.404678 93.764886 242.430021 93.815572 Q 243.000236 94.994017 242.658107 96.288617 Q 242.658107 96.290728 242.660219 96.290728 L 242.721464 96.305512 Q 242.759479 96.316071 242.770038 96.278057 L 243.145958 94.962338" style="fill:none;stroke-width:0.50;stroke:#caa68f;"/>
		<path vector-effect="non-scaling-stroke" d="M 243.145958 94.962338 L 243.83444 93.074292" style="fill:none;stroke-width:0.50;stroke:#edcab4;"/>
		<path stroke-opacity="0.663" vector-effect="non-scaling-stroke" d="M 259.4689 110.334921 C 259.422438 111.226146 259.342185 112.1934 259.356968 113.02338 Q 259.405542 115.781533 259.12677 117.348569 Q 258.725508 119.604088 257.726575 121.817368 C 257.204934 122.974694 256.393961 124.102453 255.699143 125.236548" style="fill:none;stroke-width:0.50;stroke:#dba684;"/>
		<path vector-effect="non-scaling-stroke" d="M 245.53875 132.302994 Q 244.86294 132.357904 244.256822 132.569095 Q 243.496535 132.835195 243.205091 132.894329 C 242.301194 133.073841 241.403633 133.12875 240.69192 133.257577 C 240.624339 133.270248 240.560982 133.299815 240.508184 133.342053 Q 240.284322 133.521565 240.018221 133.496223" style="fill:none;stroke-width:0.50;stroke:#c59c7b;"/>
		<path stroke-opacity="0.663" vector-effect="non-scaling-stroke" d="M 245.179726 132.457164 L 244.514475 132.909112 Q 244.465901 132.942903 244.465901 133.002036 L 244.465901 133.318822 Q 244.465901 133.377956 244.518698 133.352613 Q 244.869275 133.177324 245.038228 132.80774 Q 245.09525 132.678914 245.116369 132.8183 Q 245.124816 132.871098 245.103697 132.907 Q 245.050899 132.997812 245.105809 133.086512 L 245.344455 133.464544" style="fill:none;stroke-width:0.50;stroke:#b7a38e;"/>
		<path vector-effect="non-scaling-stroke" d="M 242.166032 134.070662 L 240.546198 134.125571" style="fill:none;stroke-width:0.50;stroke:#d1bea7;"/>
		<path vector-effect="non-scaling-stroke" d="M 243.145958 94.962338 C 242.736248 93.775445 242.028758 92.14294 240.696144 91.66776 C 240.662353 91.655089 240.649682 91.617075 240.666577 91.585396 L 240.706703 91.513591 Q 240.723599 91.486136 240.753165 91.498808 C 242.153361 92.00989 242.6391 93.317161 243.110055 94.461816 Q 243.110055 94.463927 243.114279 94.466039 L 243.171301 94.482935 Q 243.22621 94.49983 243.202979 94.447032 L 242.588414 93.112306 Q 242.793269 93.336168 242.922096 93.378406 Q 243.095272 93.43754 243.055146 93.336168 L 242.047765 90.79343 Q 241.984408 90.632925 241.826015 90.700506 Q 241.65495 90.772311 241.642279 90.964495 Q 241.631719 91.084874 241.513452 91.061643 Q 240.903111 90.9476 240.457498 91.334079" style="fill:none;stroke-width:0.50;stroke:#d1bea7;"/>
		<path vector-effect="non-scaling-stroke" d="M 259.430885 38.79824 Q 259.380199 38.707428 259.354857 38.572266" style="fill:none;stroke-width:0.50;stroke:#caa68f;"/>
		<path stroke-opacity="0.663" vector-effect="non-scaling-stroke" d="M 259.462564 37.294561 L 259.373864 36.798263" style="fill:none;stroke-width:0.50;stroke:#e0bca4;"/>
		<path stroke-opacity="0.663" vector-effect="non-scaling-stroke" d="M 260.636785 98.242132 L 260.339006 99.861966 C 260.334782 99.883085 260.305215 99.889421 260.292544 99.870414 Q 260.275649 99.845071 260.239746 99.849294 Q 260.18906 99.853518 260.15527 99.89998 Q 260.146822 99.914764 260.121479 100.001352 Q 260.089801 100.106947 260.047563 100.005576 Q 260.026443 99.95489 260.028555 99.897868 Q 260.037003 99.54518 260.212291 99.245289 Q 260.227075 99.222058 260.208068 99.205162 L 260.205956 99.205162 Q 260.182725 99.186155 260.161606 99.211498 Q 259.796245 99.652887 259.28094 99.908428" style="fill:none;stroke-width:0.50;stroke:#b7a38e;"/>
		<path vector-effect="non-scaling-stroke" d="M 260.679023 102.170282 L 260.638897 105.158633" style="fill:none;stroke-width:0.50;stroke:#c59c7b;"/>
		<path vector-effect="non-scaling-stroke" d="M 260.638897 105.158633 L 260.573428 104.636991 Q 260.554421 104.489158 260.539637 104.636991 Q 260.374908 106.250489 260.163718 107.912562 Q 260.094025 108.451098 260.14471 108.812235 Q 260.292544 109.866077 260.391804 110.924143" style="fill:none;stroke-width:0.50;stroke:#d1bea7;"/>
		<path stroke-opacity="0.663" vector-effect="non-scaling-stroke" d="M 260.391804 110.924143 Q 259.941967 109.162811 259.792022 107.386696 Q 259.781462 107.255758 259.658971 107.304332 L 259.585055 107.333899 Q 259.496354 107.367689 259.511138 107.462725 Q 259.715993 108.892487 259.4689 110.334921" style="fill:none;stroke-width:0.50;stroke:#b7a38e;"/>
		<path vector-effect="non-scaling-stroke" d="M 259.4689 110.334921 L 259.304171 103.629611" style="fill:none;stroke-width:0.50;stroke:#c59c7b;"/>
		<path vector-effect="non-scaling-stroke" d="M 239.697211 134.104452 Q 240.018221 133.965066 240.546198 134.125571" style="fill:none;stroke-width:0.50;stroke:#c59c7b;"/>
		<path vector-effect="non-scaling-stroke" d="M 240.546198 134.125571 Q 240.212517 134.064326 239.910514 134.1129 C 239.86194 134.121348 239.819702 134.153026 239.802807 134.199488 L 239.764792 134.296636 Q 239.745785 134.343098 239.794359 134.326203 Q 239.819702 134.315643 239.845045 134.309307 Q 239.885171 134.298748 239.937969 134.311419 Q 241.084735 134.562736 242.166032 134.070662" style="fill:none;stroke-width:0.50;stroke:#e9c0a0;"/>
		<path vector-effect="non-scaling-stroke" d="M 242.166032 134.070662 L 245.344455 133.464544" style="fill:none;stroke-width:0.50;stroke:#c59c7b;"/>
		<path stroke-opacity="0.663" vector-effect="non-scaling-stroke" d="M 245.344455 133.464544 Q 245.610555 133.325158 245.612667 133.268136" style="fill:none;stroke-width:0.50;stroke:#dba684;"/>
		<path stroke-opacity="0.663" vector-effect="non-scaling-stroke" d="M 256.801559 126.028514 Q 257.479482 125.213317 257.87652 124.514275 C 258.655815 123.149982 259.671643 121.230257 259.963086 119.490045 Q 260.104584 118.641057 260.28832 117.798406 Q 260.442489 117.080357 260.459385 116.081424 Q 260.493175 114.115237 260.552309 112.168057" style="fill:none;stroke-width:0.50;stroke:#dba684;"/>
		<path vector-effect="non-scaling-stroke" d="M 260.552309 112.168057 L 260.638897 105.158633" style="fill:none;stroke-width:0.50;stroke:#e9c0a0;"/>
		<path vector-effect="non-scaling-stroke" d="M 262.151024 101.992882 L 260.845864 102.767952 C 260.776171 102.808078 260.687471 102.759505 260.687471 102.679252 L 260.679023 102.170282" style="fill:none;stroke-width:0.50;stroke:#e0ad8a;"/>
		<path vector-effect="non-scaling-stroke" d="M 260.679023 102.170282 L 260.636785 98.242132" style="fill:none;stroke-width:0.50;stroke:#c8ab91;"/>
		<path stroke-opacity="0.663" vector-effect="non-scaling-stroke" d="M 260.636785 98.242132 L 260.679023 95.722625" style="fill:none;stroke-width:0.50;stroke:#e0bca4;"/>
		<path vector-effect="non-scaling-stroke" d="M 260.719149 76.861169 Q 260.740269 76.793588 260.729709 76.719671" style="fill:none;stroke-width:0.50;stroke:#7e746e;"/>
		<path stroke-opacity="0.663" vector-effect="non-scaling-stroke" d="M 260.552309 112.168057 L 260.391804 110.924143" style="fill:none;stroke-width:0.50;stroke:#ecd9c5;"/>
		<path vector-effect="non-scaling-stroke" d="M 283.466517 60.134853 Q 282.393668 61.473803 280.938563 62.629017 C 277.405339 65.43152 273.342027 67.36814 269.175232 69.281529 Q 265.92078 70.77676 263.312573 72.288887 Q 262.330536 72.859102 260.685359 74.043883" style="fill:none;stroke-width:0.50;stroke:#c8ab91;"/>
		<path vector-effect="non-scaling-stroke" d="M 260.723373 72.69015 L 260.738157 72.390259" style="fill:none;stroke-width:0.50;stroke:#5d5d5b;"/>
		<path vector-effect="non-scaling-stroke" d="M 260.767723 68.149546 L 260.778283 67.418826" style="fill:none;stroke-width:0.50;stroke:#63635f;"/>
		<path vector-effect="non-scaling-stroke" d="M 260.782507 67.300559 L 260.7635 65.953161" style="fill:none;stroke-width:0.50;stroke:#63635f;"/>
		<path vector-effect="non-scaling-stroke" d="M 274.216357 21.267287 Q 272.704231 20.743533 272.355766 18.397203" style="fill:none;stroke-width:0.50;stroke:#755f54;"/>
		<path vector-effect="non-scaling-stroke" d="M 260.953571 50.935379 Q 260.877543 51.049422 260.932452 51.197256" style="fill:none;stroke-width:0.50;stroke:#c59c7b;"/>
		<path vector-effect="non-scaling-stroke" d="M 260.474168 51.429566 L 260.463609 50.67139" style="fill:none;stroke-width:0.50;stroke:#c59c7b;"/>
		<path vector-effect="non-scaling-stroke" d="M 272.676776 23.180676 Q 272.826722 23.106759 272.784483 22.901904" style="fill:none;stroke-width:0.50;stroke:#c59c7b;"/>
		<path vector-effect="non-scaling-stroke" d="M 272.862624 22.707608 Q 272.896415 22.629468 272.896415 22.536544" style="fill:none;stroke-width:0.50;stroke:#c59c7b;"/>
		<path vector-effect="non-scaling-stroke" d="M 265.133038 36.133011 L 264.535368 33.668414" style="fill:none;stroke-width:0.50;stroke:#5d5d5b;"/>
		<path vector-effect="non-scaling-stroke" d="M 209.999552 98.38363 L 208.438852 98.727871" style="fill:none;stroke-width:0.50;stroke:#e2a888;"/>
		<path vector-effect="non-scaling-stroke" d="M 204.257273 97.169282 Q 204.196027 96.825041 204.413554 96.651865 Q 204.645864 96.468129 207.786272 94.265408 Q 208.073491 94.064777 208.136849 94.005643 Q 208.242444 93.906384 208.126289 93.859922 Q 208.052372 93.830355 207.921434 93.887376 Q 205.727161 94.827176 203.408285 95.904249" style="fill:none;stroke-width:0.50;stroke:#e2a888;"/>
		<path vector-effect="non-scaling-stroke" d="M 248.032914 27.962037 Q 248.032914 27.928246 247.999124 27.928246 L 232.882082 27.928246 Q 232.833508 27.928246 232.833508 27.97682 L 232.833508 28.038066 Q 232.833508 28.052849 232.848291 28.052849 Q 235.268539 28.255592 236.06684 28.268264 Q 242.026646 28.3633 247.986452 28.092975 Q 248.032914 28.090863 248.032914 28.044401 L 248.032914 27.962037" style="fill:none;stroke-width:0.50;stroke:#5d5d5b;"/>
		<path stroke-opacity="0.663" vector-effect="non-scaling-stroke" d="M 256.727642 31.510043 Q 256.719195 31.49526 256.512228 31.423455 Q 256.379177 31.374881 256.455206 31.49526 Q 256.531235 31.615639 256.695964 31.590296 C 256.729754 31.586072 256.744537 31.545946 256.727642 31.510043" style="fill:none;stroke-width:0.50;stroke:#b7a38e;"/>
		<path stroke-opacity="0.663" vector-effect="non-scaling-stroke" d="M 257.802604 32.525872 C 257.802604 32.521648 257.800492 32.519536 257.796268 32.519536 C 257.792044 32.519536 257.789932 32.521648 257.789932 32.525872 C 257.789932 32.530095 257.792044 32.532207 257.796268 32.532207 C 257.800492 32.532207 257.802604 32.530095 257.802604 32.525872" style="fill:none;stroke-width:0.50;stroke:#b7a38e;"/>
		<path vector-effect="non-scaling-stroke" d="M 241.505005 91.452346 L 240.816523 91.186245 Q 240.738382 91.154567 240.706703 91.234819 L 240.670801 91.327743 Q 240.630675 91.433339 240.740494 91.458682 Q 241.496557 91.625522 242.144913 92.050016 Q 242.444804 92.246423 242.277963 91.927525 Q 242.090004 91.562165 241.794336 91.272834 Q 241.692965 91.171462 241.671846 91.315072 Q 241.66551 91.350974 241.652838 91.384765 Q 241.614824 91.494584 241.505005 91.452346" style="fill:none;stroke-width:0.50;stroke:#c8ab91;"/>
		<path vector-effect="non-scaling-stroke" d="M 223.262359 106.584572 C 224.464014 105.697169 224.706884 103.984412 223.803135 102.759146 C 222.89909 101.532486 221.190556 101.257938 219.988859 102.144538 C 218.787204 103.031941 218.544334 104.744699 219.448083 105.969965 C 220.352128 107.196625 222.060662 107.471173 223.262359 106.584572" style="fill:none;stroke-width:0.50;stroke:#7e746e;"/>
		<path stroke-opacity="0.663" vector-effect="non-scaling-stroke" d="M 241.513452 98.115417 Q 241.321269 97.705707 241.312821 97.646574 Q 241.15654 96.594843 240.499736 95.788094 C 240.474393 95.756416 240.42582 95.760639 240.4047 95.796542 L 240.36035 95.872571 C 240.335007 95.916921 240.339231 95.97183 240.373022 96.011957 C 241.015042 96.765908 241.059392 97.595888 241.53246 98.252692 Q 241.555691 98.28437 241.593705 98.292818 Q 241.627496 98.301265 241.652838 98.297042 Q 241.790113 98.282258 241.652838 98.216789 Q 241.619048 98.202006 241.595817 98.191446 Q 241.538795 98.172439 241.513452 98.115417" style="fill:none;stroke-width:0.50;stroke:#b7a38e;"/>
		<path stroke-opacity="0.663" vector-effect="non-scaling-stroke" d="M 260.351572 100.386057 C 260.349565 100.3646 260.317887 100.349817 260.279872 100.351992 C 260.241858 100.354041 260.210179 100.373048 260.212397 100.393829 C 260.214403 100.415286 260.246082 100.430069 260.284096 100.427894 C 260.322111 100.425846 260.353789 100.406838 260.351572 100.386057" style="fill:none;stroke-width:0.50;stroke:#b7a38e;"/>
		<path d="M 250.689695 28.958858 L 251.956841 29.714921 Q 241.099518 29.567088 230.29077 29.70225 C 229.617071 29.710697 228.894799 29.784614 228.191533 29.814181 Q 227.775487 29.805733 228.375269 29.543857 Q 228.45341 29.510066 228.556893 29.252413 Q 230.438604 29.571311 230.795516 28.242921 C 230.839866 28.073968 230.994036 27.957813 231.169324 27.957813 L 232.653996 27.957813 C 232.755367 27.957813 232.837732 27.875449 232.83562 27.774077 Q 232.778598 18.1839 232.816613 7.123835 Q 232.818725 6.699341 233.038363 6.486038 Q 233.695167 5.848242 234.497692 5.461763 Q 236.189331 4.646566 238.354037 4.361458 Q 242.271628 3.844041 245.775284 5.271691 C 246.569362 5.594813 247.285299 6.108007 247.796381 6.680334 C 247.857626 6.752139 247.891417 6.840839 247.891417 6.933763 L 247.891417 27.881784 Q 247.891417 27.964149 247.973781 27.964149 L 249.551377 27.964149 C 249.602063 27.964149 249.652748 27.983156 249.690763 28.019059 L 250.689695 28.958858 Z M 248.032914 27.962037 Q 248.032914 27.928246 247.999124 27.928246 L 232.882082 27.928246 Q 232.833508 27.928246 232.833508 27.97682 L 232.833508 28.038066 Q 232.833508 28.052849 232.848291 28.052849 Q 235.268539 28.255592 236.06684 28.268264 Q 242.026646 28.3633 247.986452 28.092975 Q 248.032914 28.090863 248.032914 28.044401 L 248.032914 27.962037 Z" style="fill:#0d2033;"/>
		<path d="M 277.185701 15.879808 Q 277.42857 14.080462 277.614418 13.208243 C 278.190969 10.521896 281.204663 10.51556 281.996629 13.140662 Q 282.37466 14.395136 282.24161 15.979067 Q 282.218379 16.23672 282.091665 16.528164 C 281.988181 16.764698 282.036755 17.001231 281.912152 17.280003 Q 281.282804 18.701318 280.157156 19.706586 Q 278.82243 20.895591 277.075882 21.27151 Q 276.995629 21.290518 276.435973 21.18281 Q 276.328266 21.163803 276.324042 21.053984 Q 276.286028 20.276802 276.385288 19.778391 C 276.531009 19.062454 276.621821 18.485903 276.792886 17.886121 Q 276.959727 17.292675 276.970286 17.035022 C 276.987182 16.648543 277.128679 16.29163 277.185701 15.879808 Z" style="fill:#0d2033;"/>
		<path d="M 274.216357 21.267287 Q 272.704231 20.743533 272.355766 18.397203 Q 272.108673 16.794264 272.617643 15.254683 Q 272.837281 14.58732 273.14562 14.22196 C 273.825654 13.41521 274.980868 13.064634 275.610217 14.194505 C 276.117075 15.104737 275.954458 16.412009 275.692582 17.366591 Q 275.151933 19.337002 274.216357 21.267287 Z" style="fill:#0d2033;"/>
		<path d="M 274.216357 21.267287 Q 272.983003 24.806846 271.715858 28.287271 Q 271.534234 28.785681 271.128747 29.721257 Q 270.820408 30.426634 270.558532 31.153131 Q 269.800357 33.256592 268.662038 35.140414 C 267.846841 36.494148 266.575472 38.373746 265.726485 39.86053 Q 263.392826 43.955521 261.753985 48.244807 Q 261.287253 49.465491 260.953571 50.935379 Q 260.877543 51.049422 260.932452 51.197256 Q 260.907109 51.450685 260.793066 51.592183 Q 260.702254 51.702002 260.596659 51.663987 Q 260.484728 51.625973 260.474168 51.429566 L 260.463609 50.67139 C 260.586099 49.045221 260.691695 47.381037 261.299924 45.837232 Q 263.038025 41.44235 265.614554 37.951365 Q 267.656769 35.180541 268.579673 33.742331 Q 269.711656 31.976775 270.632449 28.988425 Q 271.037935 27.674817 271.42019 26.633646 C 271.986182 25.098289 272.212156 24.299987 272.676776 23.180676 Q 272.826722 23.106759 272.784483 22.901904 Q 272.803491 22.787861 272.862624 22.707608 Q 272.896415 22.629468 272.896415 22.536544 Q 273.054808 21.949433 273.299789 21.391889 C 273.458182 21.030753 273.342027 20.980067 273.143508 20.71819 Q 272.450802 19.803734 272.355766 18.397203 Q 272.704231 20.743533 274.216357 21.267287 Z" style="fill:#dd9e74;"/>
		<path d="M 228.556893 29.252413 Q 228.45341 29.510066 228.375269 29.543857 Q 227.775487 29.805733 228.191533 29.814181 Q 227.144026 29.913441 226.404858 30.386508 Q 225.878993 30.722302 225.494626 30.800442 Q 225.281323 30.844792 224.856829 31.132012 L 224.542155 31.311524 Q 224.455567 31.364322 224.453455 31.442462 Q 224.451343 31.560729 224.567498 31.55017 Q 227.057438 31.322084 229.555826 31.324196 Q 243.50287 31.334755 251.409856 31.313636 Q 253.099383 31.309412 254.742448 31.717011 L 256.73609 32.880672 C 257.071883 33.24392 258.037026 33.957746 257.249284 34.407582 Q 257.160583 34.458268 257.204934 34.551192 Q 257.221829 34.587094 257.255619 34.606102 Q 257.325312 34.64834 257.399229 34.612437 L 257.568182 34.530073 L 258.757186 35.554348 Q 258.332693 34.124586 257.373886 33.039065 Q 256.974735 32.589229 256.40452 32.373814 L 256.22712 32.145728 L 255.496399 31.159467 Q 255.490064 31.151019 255.496399 31.142571 Q 255.498511 31.138348 255.500623 31.1299 Q 255.504847 31.100333 255.534414 31.127788 Q 256.419304 31.993671 257.171143 32.639915 Q 258.083488 33.421321 258.417169 33.991536 Q 258.886013 34.787726 259.09298 35.740196 Q 258.710724 34.551192 258.041249 33.501573 Q 258.02013 33.465671 257.973668 33.484678 L 257.971556 33.48679 C 257.950437 33.495238 257.94199 33.526916 257.954661 33.554371 L 259.078196 36.07599 L 257.756142 35.045379 Q 257.716015 35.0137 257.716015 35.064386 L 257.716015 35.136191 Q 257.716015 35.182653 257.669553 35.182653 Q 257.213381 35.1911 257.204934 34.903881 Q 257.20071 34.732816 257.128905 34.886985 L 257.065548 35.026371 Q 257.031757 35.098176 257.031757 35.020036 L 257.031757 34.931335 Q 257.031757 34.796173 256.900819 34.823628 Q 256.797335 34.846859 256.704411 34.908104 Q 255.16483 35.260793 253.604129 35.499439 Q 250.622114 35.955611 248.106831 37.239652 C 241.042497 40.842568 239.840821 50.177204 240.216741 57.123271 Q 240.54831 63.224575 240.664465 69.213948 Q 240.715151 71.879177 240.598996 75.150523 Q 240.586325 75.528555 240.615891 77.108262 Q 240.634899 78.088188 240.508184 79.066002 Q 240.389917 78.276148 240.381469 77.490518 Q 240.366686 76.151568 240.366686 76.147344 Q 239.923185 65.437855 239.899954 64.77894 Q 239.756345 60.557235 239.422663 54.747374 C 239.135443 49.767493 238.206204 44.709472 233.363597 42.187853 Q 232.61387 41.79715 230.527304 41.193144 C 227.838844 40.411738 225.612893 39.621884 224.00573 37.594452 C 222.994126 36.320971 222.197936 34.116139 223.228548 32.633579 Q 223.528439 32.20275 224.09443 31.691668 Q 224.102878 31.68322 224.098654 31.678996 L 224.066975 31.63887 Q 224.05008 31.617751 224.028961 31.632534 Q 221.731204 33.049625 220.911784 35.469872 C 220.474619 36.76236 220.493626 38.496237 220.546424 39.91544 Q 220.696369 44.054781 221.674183 48.658741 Q 222.795606 53.944849 224.428112 58.842365 Q 226.020491 63.621614 229.281278 73.025943 C 229.872612 74.730253 230.43438 76.073427 231.448096 77.484182 C 232.358329 78.749215 233.602243 79.860079 234.909514 81.142008 C 237.302307 83.49045 238.531438 86.396437 239.236815 89.631881 Q 239.855604 92.457614 240.140712 95.448077 Q 240.062571 95.807101 240.204069 96.343526 L 239.775352 100.26534 L 239.771128 100.567343 L 239.750009 100.901025 Q 239.692987 101.097432 239.716218 101.361421 L 239.572608 103.475442 C 239.428999 102.63279 239.431111 101.764796 239.171346 100.981277 Q 238.89891 100.163969 238.751076 99.614873 C 237.724688 95.817661 235.583213 92.611784 232.292859 90.544225 C 230.231637 89.247513 228.368933 88.575926 225.536864 87.38481 Q 224.022625 86.749125 222.261294 85.697395 C 216.937172 82.518972 212.018537 78.13465 208.502209 73.066069 Q 207.061887 70.990063 206.15799 68.578264 Q 206.008045 68.177001 205.706042 66.985884 Q 205.505411 66.191807 205.207631 65.397729 Q 205.230862 64.453706 205.273101 63.435766 C 205.444165 59.325992 207.304757 56.162353 211.01538 54.267971 Q 212.609871 53.452774 214.172684 53.2268 C 214.907628 53.119092 215.65102 53.199345 216.379628 53.129652 C 217.885419 52.981818 218.293017 51.328194 218.170527 50.035706 C 217.999462 48.219464 217.855852 46.926976 217.62143 45.129742 Q 217.053327 40.808777 217.082894 36.591296 C 217.108237 32.927134 217.735473 29.324218 219.38065 26.042312 Q 220.335233 24.141594 221.959291 22.973709 C 223.435515 21.909307 225.116594 22.107826 226.333053 23.431993 Q 226.81668 23.957858 227.399567 25.159534 Q 228.501983 27.427724 228.556893 29.252413 Z" style="fill:#e6b29c;"/>
		<path d="M 272.896415 22.536544 Q 272.896415 22.629468 272.862624 22.707608 Q 272.860512 22.610461 272.896415 22.536544 Z" style="fill:#ad9a82;"/>
		<path d="M 272.784483 22.901904 Q 272.826722 23.106759 272.676776 23.180676 Q 272.683112 23.003276 272.784483 22.901904 Z" style="fill:#ad9a82;"/>
		<path d="M 265.133038 36.133011 L 264.535368 33.668414 C 264.317842 31.256614 265.154158 28.830031 266.571248 26.872292 Q 267.397005 25.72975 268.784528 25.239787 C 269.669418 24.927224 270.338893 25.820562 270.406474 26.623087 Q 270.59021 28.808912 269.470899 30.673728 Q 269.219582 31.089774 268.125613 32.606124 Q 266.615598 34.703249 265.941899 35.75498 Q 265.623001 36.251278 265.133038 36.133011 Z" style="fill:#0d2033;"/>
		<path d="M 271.418079 33.978865 C 271.620822 32.709608 272.167806 31.313636 272.71479 29.957791 C 273.082263 29.047558 273.641918 27.970485 274.602837 27.657922 C 275.439153 27.385486 276.209999 28.02117 276.693626 28.709653 Q 276.961839 29.091908 277.012524 29.641004 Q 277.111784 30.762428 276.978734 31.36221 Q 276.397959 33.936626 274.448667 36.086549 C 273.382154 37.262883 272.425459 37.697936 270.934451 37.862665 C 270.735932 37.883784 270.604994 37.662033 270.721149 37.499416 Q 271.166761 36.874291 271.175209 36.350538 Q 271.185769 35.417074 271.418079 33.978865 Z" style="fill:#0d2033;"/>
		<path fill-opacity="0.322" d="M 252.161696 29.660012 Q 251.986407 29.757159 251.956841 29.714921 L 250.689695 28.958858 Q 251.528123 29.134146 252.161696 29.660012 Z" style="fill:#d5bfb4;"/>
		<path d="M 251.956841 29.714921 Q 251.986407 29.757159 252.161696 29.660012 L 254.045518 30.25557 L 254.256709 30.416075 Q 254.256709 30.435082 254.256709 30.454089 L 253.479527 30.407627 Q 253.46052 30.39918 253.443624 30.392844 Q 253.441512 30.390732 253.443624 30.392844 Q 253.46052 30.39918 253.479527 30.407627 L 253.319022 30.466761 L 252.890304 30.187989 Q 252.848066 30.160534 252.822723 30.204884 L 252.788933 30.261905 Q 252.76359 30.304144 252.805828 30.329487 L 253.27256 30.599811 Q 253.369707 30.65472 253.257776 30.65472 L 253.18386 30.65472 C 253.11839 30.65472 253.078264 30.726525 253.112055 30.781435 Q 253.223986 30.965171 253.49431 31.077102 Q 254.153226 31.349538 254.742448 31.717011 Q 253.099383 31.309412 251.409856 31.313636 Q 243.50287 31.334755 229.555826 31.324196 Q 227.057438 31.322084 224.567498 31.55017 Q 224.451343 31.560729 224.453455 31.442462 Q 224.455567 31.364322 224.542155 31.311524 Q 225.234861 31.284069 224.856829 31.132012 Q 225.281323 30.844792 225.494626 30.800442 Q 225.878993 30.722302 226.404858 30.386508 Q 227.144026 29.913441 228.191533 29.814181 C 228.894799 29.784614 229.617071 29.710697 230.29077 29.70225 Q 241.099518 29.567088 251.956841 29.714921 Z" style="fill:#f8f1e4;"/>
		<path d="M 253.319022 30.466761 C 254.514362 30.901814 255.454161 31.22916 256.22712 32.145728 L 256.40452 32.373814 L 256.73609 32.880672 L 254.742448 31.717011 Q 254.153226 31.349538 253.49431 31.077102 Q 253.223986 30.965171 253.112055 30.781435 C 253.078264 30.726525 253.11839 30.65472 253.18386 30.65472 L 253.257776 30.65472 Q 253.369707 30.65472 253.27256 30.599811 L 252.805828 30.329487 Q 252.76359 30.304144 252.788933 30.261905 L 252.822723 30.204884 Q 252.848066 30.160534 252.890304 30.187989 L 253.319022 30.466761 Z" style="fill:#f4e2cb;"/>
		<path d="M 256.467877 31.087662 Q 256.353834 31.022193 256.332715 31.017969 Q 255.986362 30.94194 256.279918 31.140459 Q 256.586144 31.347427 256.911378 31.634646 Q 257.052876 31.759249 256.905043 31.695891 Q 256.839573 31.668437 256.801559 31.668437 Q 256.527011 31.659989 256.771992 31.822606 L 257.093002 32.035909 Q 257.194374 32.10349 257.073995 32.105602 L 256.983183 32.107714 Q 256.856469 32.107714 256.966288 32.173183 Q 257.171143 32.297785 257.414012 32.306233 Q 257.523832 32.310457 257.614644 32.371702 Q 258.638919 33.062296 259.073973 34.247077 Q 259.078196 34.26186 259.065525 34.266084 L 259.010615 34.287203 Q 258.934587 34.318882 258.91558 34.238629 Q 258.845887 33.966193 258.837439 33.947186 Q 258.605129 33.433992 258.780417 33.970417 Q 258.951482 34.487835 259.211247 35.131967 Q 259.411878 35.626153 259.373864 36.798263 L 259.09298 35.740196 Q 258.886013 34.787726 258.417169 33.991536 Q 258.083488 33.421321 257.171143 32.639915 Q 256.419304 31.993671 255.534414 31.127788 Q 255.504847 31.100333 255.500623 31.1299 Q 255.498511 31.138348 255.496399 31.142571 Q 255.490064 31.151019 255.496399 31.159467 L 256.22712 32.145728 C 255.454161 31.22916 254.514362 30.901814 253.319022 30.466761 L 253.479527 30.407627 L 254.256709 30.454089 Q 254.2905 30.451977 254.320066 30.441418 C 254.330626 30.437194 254.336962 30.426634 254.332738 30.416075 C 254.330626 30.405515 254.320066 30.39918 254.309507 30.401291 Q 254.286276 30.405515 254.256709 30.416075 L 254.045518 30.25557 Q 254.320066 30.175317 254.480571 30.340046 Q 254.552376 30.416075 254.657972 30.430858 Q 255.071906 30.485768 255.382356 30.667392 C 255.842752 30.935604 256.31582 30.878583 256.78044 31.178474 Q 256.795223 31.186921 256.801559 31.199593 Q 256.82479 31.239719 256.786776 31.212264 Q 256.634718 31.102445 256.467877 31.087662 Z M 256.727642 31.510043 Q 256.719195 31.49526 256.512228 31.423455 Q 256.379177 31.374881 256.455206 31.49526 Q 256.531235 31.615639 256.695964 31.590296 C 256.729754 31.586072 256.744537 31.545946 256.727642 31.510043 Z M 257.802604 32.525872 C 257.802604 32.521648 257.800492 32.519536 257.796268 32.519536 C 257.792044 32.519536 257.789932 32.521648 257.789932 32.525872 C 257.789932 32.530095 257.792044 32.532207 257.796268 32.532207 C 257.800492 32.532207 257.802604 32.530095 257.802604 32.525872 Z" style="fill:#ad9a82;"/>
		<path d="M 253.479527 30.407627 Q 253.46052 30.39918 253.443624 30.392844 Q 253.441512 30.390732 253.443624 30.392844 Q 253.46052 30.39918 253.479527 30.407627 Z" style="fill:#e3bb9f;"/>
		<path fill-opacity="0.322" d="M 254.256709 30.454089 Q 254.256709 30.435082 254.256709 30.416075 Q 254.286276 30.405515 254.309507 30.401291 C 254.320066 30.39918 254.330626 30.405515 254.332738 30.416075 C 254.336962 30.426634 254.330626 30.437194 254.320066 30.441418 Q 254.2905 30.451977 254.256709 30.454089 Z" style="fill:#d5bfb4;"/>
		<path fill-opacity="0.322" d="M 256.467877 31.087662 Q 256.655837 31.345315 256.993743 31.40656 Q 257.084555 31.423455 257.054988 31.484701 Q 257.04654 31.499484 257.048652 31.516379 Q 257.050764 31.53961 257.078219 31.55017 Q 257.612532 31.719122 257.745582 31.881739 Q 258.845887 33.216466 258.902908 33.277711 C 259.141554 33.5417 259.09298 33.847926 259.348521 34.046446 Q 259.430885 34.109803 259.430885 34.213287 L 259.430885 35.131967 Q 259.430885 35.248122 259.506914 35.336822 Q 259.629405 35.484655 259.608286 35.790882 Q 259.530145 36.973551 259.462564 37.294561 L 259.373864 36.798263 Q 259.411878 35.626153 259.211247 35.131967 Q 258.951482 34.487835 258.780417 33.970417 Q 258.605129 33.433992 258.837439 33.947186 Q 258.845887 33.966193 258.91558 34.238629 Q 258.934587 34.318882 259.010615 34.287203 L 259.065525 34.266084 Q 259.078196 34.26186 259.073973 34.247077 Q 258.638919 33.062296 257.614644 32.371702 Q 257.523832 32.310457 257.414012 32.306233 Q 257.171143 32.297785 256.966288 32.173183 Q 256.856469 32.107714 256.983183 32.107714 L 257.073995 32.105602 Q 257.194374 32.10349 257.093002 32.035909 L 256.771992 31.822606 Q 256.527011 31.659989 256.801559 31.668437 Q 256.839573 31.668437 256.905043 31.695891 Q 257.052876 31.759249 256.911378 31.634646 Q 256.586144 31.347427 256.279918 31.140459 Q 255.986362 30.94194 256.332715 31.017969 Q 256.353834 31.022193 256.467877 31.087662 Z" style="fill:#d5bfb4;"/>
		<path d="M 224.542155 31.311524 L 224.856829 31.132012 Q 225.234861 31.284069 224.542155 31.311524 Z" style="fill:#ad9a82;"/>
		<path d="M 240.508184 79.066002 L 240.60322 86.324632 L 240.457498 91.334079 L 240.140712 95.448077 Q 239.855604 92.457614 239.236815 89.631881 C 238.531438 86.396437 237.302307 83.49045 234.909514 81.142008 C 233.602243 79.860079 232.358329 78.749215 231.448096 77.484182 C 230.43438 76.073427 229.872612 74.730253 229.281278 73.025943 Q 226.020491 63.621614 224.428112 58.842365 Q 222.795606 53.944849 221.674183 48.658741 Q 220.696369 44.054781 220.546424 39.91544 C 220.493626 38.496237 220.474619 36.76236 220.911784 35.469872 Q 221.731204 33.049625 224.028961 31.632534 Q 224.05008 31.617751 224.066975 31.63887 L 224.098654 31.678996 Q 224.102878 31.68322 224.09443 31.691668 Q 223.528439 32.20275 223.228548 32.633579 C 222.197936 34.116139 222.994126 36.320971 224.00573 37.594452 C 225.612893 39.621884 227.838844 40.411738 230.527304 41.193144 Q 232.61387 41.79715 233.363597 42.187853 C 238.206204 44.709472 239.135443 49.767493 239.422663 54.747374 Q 239.756345 60.557235 239.899954 64.77894 Q 239.923185 65.437855 240.366686 76.147344 Q 240.366686 76.151568 240.381469 77.490518 Q 240.389917 78.276148 240.508184 79.066002 Z" style="fill:#182c3c;"/>
		<path d="M 258.757186 35.554348 Q 257.992675 34.671571 257.597749 33.645183 Q 257.536503 33.484678 257.523832 33.643071 Q 257.519608 33.702205 257.56607 33.767674 C 257.606196 33.822583 257.625203 33.888053 257.618868 33.955634 L 257.568182 34.530073 L 257.399229 34.612437 Q 257.325312 34.64834 257.255619 34.606102 Q 257.221829 34.587094 257.204934 34.551192 Q 257.160583 34.458268 257.249284 34.407582 C 258.037026 33.957746 257.071883 33.24392 256.73609 32.880672 L 256.40452 32.373814 Q 256.974735 32.589229 257.373886 33.039065 Q 258.332693 34.124586 258.757186 35.554348 Z" style="fill:#e3bb9f;"/>
		<path d="M 258.757186 35.554348 L 257.568182 34.530073 L 257.618868 33.955634 C 257.625203 33.888053 257.606196 33.822583 257.56607 33.767674 Q 257.519608 33.702205 257.523832 33.643071 Q 257.536503 33.484678 257.597749 33.645183 Q 257.992675 34.671571 258.757186 35.554348 Z" style="fill:#f4e2cb;"/>
		<path d="M 259.09298 35.740196 L 259.373864 36.798263 L 259.462564 37.294561 Q 259.473123 37.427611 259.411878 37.607124 Q 259.266156 36.859508 259.120435 36.743353 L 259.078196 36.07599 L 257.954661 33.554371 C 257.94199 33.526916 257.950437 33.495238 257.971556 33.48679 L 257.973668 33.484678 Q 258.02013 33.465671 258.041249 33.501573 Q 258.710724 34.551192 259.09298 35.740196 Z" style="fill:#e3bb9f;"/>
		<path d="M 265.133038 36.133011 Q 264.474123 34.979909 264.535368 33.668414 L 265.133038 36.133011 Z" style="fill:#ad9a82;"/>
		<path d="M 259.078196 36.07599 L 259.120435 36.743353 Q 257.747694 36.02108 256.704411 34.908104 Q 256.797335 34.846859 256.900819 34.823628 Q 257.031757 34.796173 257.031757 34.931335 L 257.031757 35.020036 Q 257.031757 35.098176 257.065548 35.026371 L 257.128905 34.886985 Q 257.20071 34.732816 257.204934 34.903881 Q 257.213381 35.1911 257.669553 35.182653 Q 257.716015 35.182653 257.716015 35.136191 L 257.716015 35.064386 Q 257.716015 35.0137 257.756142 35.045379 L 259.078196 36.07599 Z" style="fill:#f4e2cb;"/>
		<path d="M 256.704411 34.908104 Q 257.747694 36.02108 259.120435 36.743353 Q 259.266156 36.859508 259.411878 37.607124 Q 259.4689 37.814091 259.422438 38.116094 L 259.354857 38.572266 L 259.111987 38.865821 Q 259.044406 38.950298 258.940922 38.977752 C 257.925094 39.264972 256.826902 39.469827 255.884991 39.856306 C 251.067727 41.837277 247.794269 46.633421 246.571474 51.606966 C 245.646458 55.357716 245.530303 59.254187 245.942125 62.933132 Q 246.404633 67.053466 246.715083 70.062935 C 247.511273 77.824199 246.372954 85.712178 243.83444 93.074292 Q 244.119548 91.92119 244.117436 90.75964 C 244.117436 89.152477 242.48493 87.792408 241.192442 87.224305 Q 240.831306 87.0638 240.60322 86.324632 L 240.508184 79.066002 Q 240.634899 78.088188 240.615891 77.108262 Q 240.586325 75.528555 240.598996 75.150523 Q 240.715151 71.879177 240.664465 69.213948 Q 240.54831 63.224575 240.216741 57.123271 C 239.840821 50.177204 241.042497 40.842568 248.106831 37.239652 Q 250.622114 35.955611 253.604129 35.499439 Q 255.16483 35.260793 256.704411 34.908104 Z" style="fill:#f8f1e4;"/>
		<path d="M 283.466517 60.134853 Q 282.393668 61.473803 280.938563 62.629017 C 277.405339 65.43152 273.342027 67.36814 269.175232 69.281529 Q 265.92078 70.77676 263.312573 72.288887 Q 262.330536 72.859102 260.685359 74.043883 L 260.723373 72.69015 L 260.738157 72.390259 L 260.767723 68.149546 L 260.778283 67.418826 L 260.782507 67.300559 L 260.7635 65.953161 Q 260.714926 61.378767 260.736045 56.802261 C 260.74238 55.533004 260.695918 54.6101 261.458317 53.54781 Q 263.544883 50.639712 266.596591 47.017788 Q 268.678933 44.544743 271.040047 42.166734 Q 272.845729 40.348381 274.771789 37.626131 Q 275.787617 36.192145 277.798154 35.488879 Q 278.685156 35.178429 279.479234 35.32415 Q 280.58165 35.524782 281.126522 35.881694 C 283.703051 37.566997 284.995539 41.089661 285.618552 43.951297 Q 286.982845 50.225778 284.970196 56.158129 Q 284.623843 57.176069 283.466517 60.134853 Z" style="fill:#ad9a82;"/>
		<path d="M 259.422438 38.116094 L 259.430885 38.79824 Q 259.380199 38.707428 259.354857 38.572266 L 259.422438 38.116094 Z" style="fill:#ad9a82;"/>
		<path d="M 259.354857 38.572266 Q 259.380199 38.707428 259.430885 38.79824 L 259.28094 59.805395 Q 259.209135 59.900431 259.257709 60.090503 L 259.234478 60.749418 C 259.057077 61.112667 258.953594 61.535048 258.803648 61.853947 Q 255.504847 68.861259 254.436221 76.134673 Q 254.258821 77.338461 254.020175 79.587643 Q 253.956818 80.191649 254.351745 79.731253 Q 254.729777 79.291976 255.240859 78.744992 Q 255.982138 77.950914 258.788865 75.395505 C 258.924027 75.270902 259.120435 75.273014 259.156337 75.397616 L 259.202799 75.560233 L 259.266156 95.82822 L 259.28094 99.908428 L 259.304171 103.629611 Q 257.59986 104.468039 255.935676 105.32125 C 254.638965 105.984389 252.098338 107.196625 250.271538 108.195557 C 245.359238 110.884017 241.965401 115.631588 241.243128 121.175348 C 241.150204 121.895509 240.96858 122.537529 240.795404 123.221787 Q 239.678204 114.121573 239.557825 104.947442 L 239.595839 105.105835 Q 239.676092 105.439517 239.766904 105.107947 L 240.024557 104.1597 L 240.041452 104.01609 L 240.529303 102.573657 L 240.588437 102.383585 L 241.899932 98.799676 Q 242.767926 96.360421 242.413126 93.821907 Q 242.404678 93.764886 242.430021 93.815572 Q 243.000236 94.994017 242.658107 96.288617 Q 242.658107 96.290728 242.660219 96.290728 L 242.721464 96.305512 Q 242.759479 96.316071 242.770038 96.278057 L 243.145958 94.962338 L 243.83444 93.074292 C 246.372954 85.712178 247.511273 77.824199 246.715083 70.062935 Q 246.404633 67.053466 245.942125 62.933132 C 245.530303 59.254187 245.646458 55.357716 246.571474 51.606966 C 247.794269 46.633421 251.067727 41.837277 255.884991 39.856306 C 256.826902 39.469827 257.925094 39.264972 258.940922 38.977752 Q 259.044406 38.950298 259.111987 38.865821 L 259.354857 38.572266 Z" style="fill:#e6b29c;"/>
		<path d="M 260.463609 50.67139 L 260.474168 51.429566 L 260.463609 50.67139 Z" style="fill:#ad9a82;"/>
		<path d="M 262.151024 101.992882 L 260.845864 102.767952 C 260.776171 102.808078 260.687471 102.759505 260.687471 102.679252 L 260.679023 102.170282 L 260.636785 98.242132 L 260.679023 95.722625 L 260.719149 76.861169 Q 260.740269 76.793588 260.729709 76.719671 L 260.685359 74.043883 Q 262.330536 72.859102 263.312573 72.288887 Q 265.92078 70.77676 269.175232 69.281529 C 273.342027 67.36814 277.405339 65.43152 280.938563 62.629017 Q 282.393668 61.473803 283.466517 60.134853 Q 284.590053 59.306985 285.15182 58.707203 Q 287.223603 56.489699 289.5108 54.09057 Q 290.896212 52.635465 292.275288 51.469692 C 293.111604 50.764314 294.843369 50.284911 294.976419 51.953319 C 295.122141 53.748441 295.092574 55.615368 294.946852 57.279552 Q 294.423099 63.264701 292.680775 68.525466 C 291.20455 72.981593 289.069411 77.152613 286.494994 81.184246 Q 281.31237 89.308759 273.948145 94.755371 Q 268.676821 98.653954 262.151024 101.992882 Z" style="fill:#e3bb9f;"/>
		<path d="M 260.953571 50.935379 Q 260.978914 51.085324 260.932452 51.197256 Q 260.877543 51.049422 260.953571 50.935379 Z" style="fill:#ad9a82;"/>
		<path d="M 259.28094 59.805395 L 259.257709 60.090503 Q 259.209135 59.900431 259.28094 59.805395 Z" style="fill:#ad9a82;"/>
		<path d="M 259.234478 60.749418 L 259.202799 75.560233 L 259.156337 75.397616 C 259.120435 75.273014 258.924027 75.270902 258.788865 75.395505 Q 255.982138 77.950914 255.240859 78.744992 Q 254.729777 79.291976 254.351745 79.731253 Q 253.956818 80.191649 254.020175 79.587643 Q 254.258821 77.338461 254.436221 76.134673 Q 255.504847 68.861259 258.803648 61.853947 C 258.953594 61.535048 259.057077 61.112667 259.234478 60.749418 Z" style="fill:#ad9a82;"/>
		<path d="M 205.207631 65.397729 Q 205.505411 66.191807 205.706042 66.985884 Q 206.008045 68.177001 206.15799 68.578264 Q 207.061887 70.990063 208.502209 73.066069 C 212.018537 78.13465 216.937172 82.518972 222.261294 85.697395 Q 224.022625 86.749125 225.536864 87.38481 C 228.368933 88.575926 230.231637 89.247513 232.292859 90.544225 C 235.583213 92.611784 237.724688 95.817661 238.751076 99.614873 Q 238.89891 100.163969 239.171346 100.981277 C 239.431111 101.764796 239.428999 102.63279 239.572608 103.475442 L 239.557825 104.947442 Q 239.678204 114.121573 240.795404 123.221787 Q 240.888328 126.917627 240.767949 128.188996 Q 240.525079 130.73807 240.284322 133.285032 Q 240.273762 133.396963 240.170279 133.437089 L 240.018221 133.496223 L 239.498692 133.532125 Q 239.355082 133.51523 239.257934 133.407522 Q 239.198801 132.928119 239.190353 132.412813 Q 239.135443 128.567028 239.059415 125.97994 C 238.85456 119.164811 236.508229 112.839644 232.632877 107.266318 Q 229.163011 102.273766 224.882172 98.121753 Q 221.175773 94.529397 217.378561 90.886354 Q 217.281413 90.778647 217.057551 90.529442 Q 214.529596 87.718491 212.709131 85.391168 Q 207.45259 78.673187 204.903517 70.647934 Q 204.339637 68.869707 204.565611 67.017563 C 204.639528 66.424117 204.914076 65.925706 205.207631 65.397729 Z" style="fill:#f4e2cb;"/>
		<path d="M 260.782507 67.300559 L 260.7635 65.953161 L 260.782507 67.300559 Z" style="fill:#182c3c;"/>
		<path d="M 260.767723 68.149546 L 260.778283 67.418826 L 260.767723 68.149546 Z" style="fill:#182c3c;"/>
		<path d="M 260.738157 72.390259 L 260.723373 72.69015 L 260.738157 72.390259 Z" style="fill:#0d2033;"/>
		<path d="M 260.729709 76.719671 Q 260.740269 76.793588 260.719149 76.861169 L 260.729709 76.719671 Z" style="fill:#182c3c;"/>
		<path d="M 243.83444 93.074292 L 243.145958 94.962338 C 242.736248 93.775445 242.028758 92.14294 240.696144 91.66776 C 240.662353 91.655089 240.649682 91.617075 240.666577 91.585396 L 240.706703 91.513591 Q 240.723599 91.486136 240.753165 91.498808 C 242.153361 92.00989 242.6391 93.317161 243.110055 94.461816 Q 243.110055 94.463927 243.114279 94.466039 L 243.171301 94.482935 Q 243.22621 94.49983 243.202979 94.447032 L 242.588414 93.112306 Q 242.793269 93.336168 242.922096 93.378406 Q 243.095272 93.43754 243.055146 93.336168 L 242.047765 90.79343 Q 241.984408 90.632925 241.826015 90.700506 Q 241.65495 90.772311 241.642279 90.964495 Q 241.631719 91.084874 241.513452 91.061643 Q 240.903111 90.9476 240.457498 91.334079 L 240.60322 86.324632 Q 240.831306 87.0638 241.192442 87.224305 C 242.48493 87.792408 244.117436 89.152477 244.117436 90.75964 Q 244.119548 91.92119 243.83444 93.074292 Z" style="fill:#f4e2cb;"/>
		<path d="M 209.999552 98.38363 L 208.438852 98.727871 Q 207.849629 98.518792 207.591976 98.514568 Q 205.600446 98.493449 204.257273 97.169282 Q 204.196027 96.825041 204.413554 96.651865 Q 204.645864 96.468129 207.786272 94.265408 Q 208.073491 94.064777 208.136849 94.005643 Q 208.242444 93.906384 208.126289 93.859922 Q 208.052372 93.830355 207.921434 93.887376 Q 205.727161 94.827176 203.408285 95.904249 Q 203.410397 95.604358 203.296354 95.348817 Q 203.089387 94.888421 203.076716 94.841959 Q 202.231952 91.794475 204.434673 89.612873 C 207.644774 86.434451 212.261406 88.191559 212.897091 92.558986 Q 213.213877 94.740588 211.959403 96.808146 Q 211.477888 97.602224 209.999552 98.38363 Z" style="fill:#e6b29c;"/>
		<path d="M 200.468508 90.721625 Q 200.823309 92.970808 198.696617 93.992972 C 197.746258 94.451256 196.392525 94.548404 195.655469 93.728983 C 194.635417 92.597 195.317563 91.3024 195.805414 90.147186 Q 196.012381 89.655112 196.392525 89.22217 Q 197.378786 88.096523 199.061977 88.419645 Q 199.744124 88.552695 200.07147 89.101792 C 200.394592 89.646664 200.388256 90.204208 200.468508 90.721625 Z" style="fill:#e6b29c;"/>
		<path d="M 242.588414 93.112306 Q 242.655995 92.801855 242.516609 92.567434 Q 242.45114 92.459726 242.461699 92.584329 Q 242.487042 92.877884 242.588414 93.112306 L 243.202979 94.447032 Q 243.22621 94.49983 243.171301 94.482935 L 243.114279 94.466039 Q 243.110055 94.463927 243.110055 94.461816 C 242.6391 93.317161 242.153361 92.00989 240.753165 91.498808 Q 240.723599 91.486136 240.706703 91.513591 L 240.666577 91.585396 C 240.649682 91.617075 240.662353 91.655089 240.696144 91.66776 C 242.028758 92.14294 242.736248 93.775445 243.145958 94.962338 L 242.770038 96.278057 Q 242.759479 96.316071 242.721464 96.305512 L 242.660219 96.290728 Q 242.658107 96.290728 242.658107 96.288617 Q 243.000236 94.994017 242.430021 93.815572 Q 242.404678 93.764886 242.413126 93.821907 Q 242.767926 96.360421 241.899932 98.799676 Q 242.096339 97.285437 241.553579 96.003509 C 241.251576 95.287572 241.673958 94.810281 242.102675 94.259072 C 242.187151 94.151365 242.159697 93.995084 242.043542 93.923279 L 240.812299 93.15032 Q 240.801739 93.143985 240.789068 93.148208 L 240.734158 93.169328 Q 240.689808 93.186223 240.729934 93.213678 C 242.520833 94.385787 240.765837 94.835623 241.323381 95.925368 Q 241.834463 96.922189 241.830239 98.014046 Q 241.828127 98.144984 241.6993 98.132313 Q 241.572586 98.119641 241.526124 98.049948 C 241.42264 97.897891 241.363507 97.758505 241.365619 97.671917 C 241.403633 96.645529 241.21145 96.343526 240.573653 95.515658 Q 240.51452 95.439629 240.491289 95.532553 Q 240.45961 95.652932 240.368798 95.731073 Q 240.288545 95.798654 240.273762 95.900025 L 240.204069 96.343526 Q 240.062571 95.807101 240.140712 95.448077 L 240.457498 91.334079 Q 240.903111 90.9476 241.513452 91.061643 Q 241.631719 91.084874 241.642279 90.964495 Q 241.65495 90.772311 241.826015 90.700506 Q 241.984408 90.632925 242.047765 90.79343 L 243.055146 93.336168 Q 243.095272 93.43754 242.922096 93.378406 Q 242.793269 93.336168 242.588414 93.112306 Z M 241.505005 91.452346 L 240.816523 91.186245 Q 240.738382 91.154567 240.706703 91.234819 L 240.670801 91.327743 Q 240.630675 91.433339 240.740494 91.458682 Q 241.496557 91.625522 242.144913 92.050016 Q 242.444804 92.246423 242.277963 91.927525 Q 242.090004 91.562165 241.794336 91.272834 Q 241.692965 91.171462 241.671846 91.315072 Q 241.66551 91.350974 241.652838 91.384765 Q 241.614824 91.494584 241.505005 91.452346 Z" style="fill:#ad9a82;"/>
		<path d="M 239.257934 133.407522 Q 236.242129 133.263913 234.565273 132.896441 Q 233.325583 132.626116 231.215786 131.853158 Q 229.329852 131.160452 228.03314 130.421284 Q 221.28348 126.575498 218.491537 119.164811 Q 217.944552 117.713929 217.625654 115.986388 Q 217.387008 114.691788 217.380673 112.717154 C 217.370113 108.86292 217.408128 102.332899 217.334211 96.193581 Q 217.304644 93.583262 217.378561 90.886354 Q 221.175773 94.529397 224.882172 98.121753 Q 229.163011 102.273766 232.632877 107.266318 C 236.508229 112.839644 238.85456 119.164811 239.059415 125.97994 Q 239.135443 128.567028 239.190353 132.412813 Q 239.198801 132.928119 239.257934 133.407522 Z M 223.262359 106.584572 C 224.464014 105.697169 224.706884 103.984412 223.803135 102.759146 C 222.89909 101.532486 221.190556 101.257938 219.988859 102.144538 C 218.787204 103.031941 218.544334 104.744699 219.448083 105.969965 C 220.352128 107.196625 222.060662 107.471173 223.262359 106.584572 Z" style="fill:#182c3c;"/>
		<path d="M 242.588414 93.112306 Q 242.487042 92.877884 242.461699 92.584329 Q 242.45114 92.459726 242.516609 92.567434 Q 242.655995 92.801855 242.588414 93.112306 Z" style="fill:#e3bb9f;"/>
		<path fill-opacity="0.322" d="M 241.899932 98.799676 L 240.588437 102.383585 Q 240.546198 102.463837 240.529303 102.573657 L 240.041452 104.01609 L 240.024557 104.1597 L 239.766904 105.107947 Q 239.676092 105.439517 239.595839 105.105835 L 239.557825 104.947442 L 239.572608 103.475442 L 239.716218 101.361421 L 239.750009 100.901025 L 239.771128 100.567343 L 239.775352 100.26534 L 240.204069 96.343526 L 240.273762 95.900025 Q 240.288545 95.798654 240.368798 95.731073 Q 240.45961 95.652932 240.491289 95.532553 Q 240.51452 95.439629 240.573653 95.515658 C 241.21145 96.343526 241.403633 96.645529 241.365619 97.671917 C 241.363507 97.758505 241.42264 97.897891 241.526124 98.049948 Q 241.572586 98.119641 241.6993 98.132313 Q 241.828127 98.144984 241.830239 98.014046 Q 241.834463 96.922189 241.323381 95.925368 C 240.765837 94.835623 242.520833 94.385787 240.729934 93.213678 Q 240.689808 93.186223 240.734158 93.169328 L 240.789068 93.148208 Q 240.801739 93.143985 240.812299 93.15032 L 242.043542 93.923279 C 242.159697 93.995084 242.187151 94.151365 242.102675 94.259072 C 241.673958 94.810281 241.251576 95.287572 241.553579 96.003509 Q 242.096339 97.285437 241.899932 98.799676 Z M 241.513452 98.115417 Q 241.321269 97.705707 241.312821 97.646574 Q 241.15654 96.594843 240.499736 95.788094 C 240.474393 95.756416 240.42582 95.760639 240.4047 95.796542 L 240.36035 95.872571 C 240.335007 95.916921 240.339231 95.97183 240.373022 96.011957 C 241.015042 96.765908 241.059392 97.595888 241.53246 98.252692 Q 241.555691 98.28437 241.593705 98.292818 Q 241.627496 98.301265 241.652838 98.297042 Q 241.790113 98.282258 241.652838 98.216789 Q 241.619048 98.202006 241.595817 98.191446 Q 241.538795 98.172439 241.513452 98.115417 Z" style="fill:#d5bfb4;"/>
		<path d="M 204.257273 97.169282 Q 204.136894 97.046792 203.948934 97.194625 Q 201.064067 99.467039 199.184468 102.459614 C 198.462195 103.610604 197.720915 104.81228 197.304869 105.887241 Q 195.872995 109.589417 195.763176 113.35495 Q 195.754728 113.595708 195.780071 113.783668 Q 195.818086 114.064551 195.875107 113.785779 C 196.257363 111.977986 196.905719 109.842846 197.84763 108.111081 Q 198.711401 106.51659 199.002844 106.083649 Q 202.527619 100.850339 208.438852 98.727871 L 209.999552 98.38363 Q 212.094565 97.693036 214.092431 98.366735 Q 215.008999 98.677185 215.08714 99.564187 C 215.156833 100.379384 214.195915 100.487091 213.61514 100.455412 C 212.557073 100.396279 211.144207 100.292795 209.868614 100.529329 Q 208.99006 100.694058 206.628946 101.027739 Q 206.136871 101.097432 205.332234 101.597955 C 200.939464 104.326541 197.75893 109.122685 197.385122 114.364442 C 197.300646 115.52388 197.311205 117.29366 197.619544 118.607267 Q 198.160192 120.917695 198.664939 121.85327 Q 201.059843 126.29039 205.798966 127.164721 Q 209.207586 127.794069 212.096677 125.772973 C 214.088207 124.381225 214.861166 122.286212 214.189579 119.961 Q 213.940374 119.099342 213.431404 118.476328 Q 211.087185 115.618916 207.490605 114.596752 C 206.723982 114.379226 206.612051 113.346502 207.545514 113.426755 C 209.116774 113.557693 210.732384 114.501716 212.069223 115.357039 C 214.607737 116.978985 216.335278 119.699124 215.948799 122.706481 C 215.346905 127.390695 210.426158 129.781375 206.166438 129.261846 Q 201.592044 128.700078 198.574126 125.342143 Q 197.298534 123.920829 196.314384 121.789913 Q 193.73152 116.195467 194.825489 110.02447 Q 195.176065 108.047724 196.010269 105.980165 Q 198.43474 99.963338 203.408285 95.904249 Q 205.727161 94.827176 207.921434 93.887376 Q 208.052372 93.830355 208.126289 93.859922 Q 208.242444 93.906384 208.136849 94.005643 Q 208.073491 94.064777 207.786272 94.265408 Q 204.645864 96.468129 204.413554 96.651865 Q 204.196027 96.825041 204.257273 97.169282 Z" style="fill:#dd9e74;"/>
		<path fill-opacity="0.322" d="M 260.679023 95.722625 L 260.636785 98.242132 L 260.339006 99.861966 C 260.334782 99.883085 260.305215 99.889421 260.292544 99.870414 Q 260.275649 99.845071 260.239746 99.849294 Q 260.18906 99.853518 260.15527 99.89998 Q 260.146822 99.914764 260.121479 100.001352 Q 260.089801 100.106947 260.047563 100.005576 Q 260.026443 99.95489 260.028555 99.897868 Q 260.037003 99.54518 260.212291 99.245289 Q 260.227075 99.222058 260.208068 99.205162 L 260.205956 99.205162 Q 260.182725 99.186155 260.161606 99.211498 Q 259.796245 99.652887 259.28094 99.908428 L 259.266156 95.82822 L 259.684314 96.362533 Q 259.758231 96.457569 259.853267 96.383652 L 260.679023 95.722625 Z M 260.14471 96.577948 C 260.14471 96.561053 260.129927 96.546269 260.113032 96.546269 C 260.096136 96.546269 260.081353 96.561053 260.081353 96.577948 C 260.081353 96.594843 260.096136 96.609627 260.113032 96.609627 C 260.129927 96.609627 260.14471 96.594843 260.14471 96.577948 Z" style="fill:#d5bfb4;"/>
		<path d="M 260.636785 98.242132 L 260.679023 102.170282 L 260.638897 105.158633 L 260.573428 104.636991 Q 260.554421 104.489158 260.539637 104.636991 Q 260.374908 106.250489 260.163718 107.912562 Q 260.094025 108.451098 260.14471 108.812235 Q 260.292544 109.866077 260.391804 110.924143 Q 259.941967 109.162811 259.792022 107.386696 Q 259.781462 107.255758 259.658971 107.304332 L 259.585055 107.333899 Q 259.496354 107.367689 259.511138 107.462725 Q 259.715993 108.892487 259.4689 110.334921 L 259.304171 103.629611 L 259.28094 99.908428 Q 259.796245 99.652887 260.161606 99.211498 Q 260.182725 99.186155 260.205956 99.205162 L 260.208068 99.205162 Q 260.227075 99.222058 260.212291 99.245289 Q 260.037003 99.54518 260.028555 99.897868 Q 260.026443 99.95489 260.047563 100.005576 Q 260.089801 100.106947 260.121479 100.001352 Q 260.146822 99.914764 260.15527 99.89998 Q 260.18906 99.853518 260.239746 99.849294 Q 260.275649 99.845071 260.292544 99.870414 C 260.305215 99.889421 260.334782 99.883085 260.339006 99.861966 L 260.636785 98.242132 Z M 260.351572 100.386057 C 260.349565 100.3646 260.317887 100.349817 260.279872 100.351992 C 260.241858 100.354041 260.210179 100.373048 260.212397 100.393829 C 260.214403 100.415286 260.246082 100.430069 260.284096 100.427894 C 260.322111 100.425846 260.353789 100.406838 260.351572 100.386057 Z" style="fill:#ad9a82;"/>
		<path d="M 239.775352 100.26534 L 239.771128 100.567343 L 239.775352 100.26534 Z" style="fill:#ad9a82;"/>
		<path d="M 239.750009 100.901025 L 239.716218 101.361421 Q 239.692987 101.097432 239.750009 100.901025 Z" style="fill:#ad9a82;"/>
		<path d="M 262.151024 101.992882 Q 262.708567 104.985456 262.704344 106.700326 Q 262.68956 111.148006 262.676889 112.721377 Q 262.626203 119.099342 260.843752 125.521656 C 259.585055 130.053812 257.532279 133.954507 254.252485 137.390582 C 252.710792 139.008304 251.008594 140.152959 248.810097 141.688316 C 247.067772 142.902664 245.490176 144.454916 244.07731 146.108541 Q 242.03087 148.505557 241.177659 151.57416 C 241.05728 152.011325 240.634899 152.342895 240.153383 152.184502 C 239.200913 151.871939 239.327627 149.403118 239.367753 148.571026 Q 239.633854 143.191995 239.583168 137.76439 C 239.572608 136.64719 239.724666 135.342031 239.697211 134.104452 Q 240.018221 133.965066 240.546198 134.125571 Q 240.212517 134.064326 239.910514 134.1129 C 239.86194 134.121348 239.819702 134.153026 239.802807 134.199488 L 239.764792 134.296636 Q 239.745785 134.343098 239.794359 134.326203 Q 239.819702 134.315643 239.845045 134.309307 Q 239.885171 134.298748 239.937969 134.311419 Q 241.084735 134.562736 242.166032 134.070662 L 245.344455 133.464544 Q 245.610555 133.325158 245.612667 133.268136 Q 245.997034 133.168877 247.112122 132.803517 Q 253.023354 130.864784 256.801559 126.028514 Q 257.479482 125.213317 257.87652 124.514275 C 258.655815 123.149982 259.671643 121.230257 259.963086 119.490045 Q 260.104584 118.641057 260.28832 117.798406 Q 260.442489 117.080357 260.459385 116.081424 Q 260.493175 114.115237 260.552309 112.168057 L 260.638897 105.158633 L 260.679023 102.170282 L 260.687471 102.679252 C 260.687471 102.759505 260.776171 102.808078 260.845864 102.767952 L 262.151024 101.992882 Z" style="fill:#dd9e74;"/>
		<path d="M 240.588437 102.383585 L 240.529303 102.573657 Q 240.546198 102.463837 240.588437 102.383585 Z" style="fill:#ad9a82;"/>
		<path d="M 210.703515 105.591574 C 210.079805 106.028739 209.165348 105.800653 208.662904 105.081654 C 208.16008 104.362443 208.257227 103.426868 208.881656 102.989703 C 209.505365 102.552538 210.419822 102.780624 210.922266 103.499623 C 211.42509 104.218833 211.327943 105.154409 210.703515 105.591574 Z" style="fill:#e6b29c;"/>
		<path d="M 259.304171 103.629611 L 259.4689 110.334921 C 259.422438 111.226146 259.342185 112.1934 259.356968 113.02338 Q 259.405542 115.781533 259.12677 117.348569 Q 258.725508 119.604088 257.726575 121.817368 C 257.204934 122.974694 256.393961 124.102453 255.699143 125.236548 Q 253.308462 128.191108 249.874499 130.241771 Q 247.621092 131.584945 245.53875 132.302994 Q 244.86294 132.357904 244.256822 132.569095 Q 243.496535 132.835195 243.205091 132.894329 C 242.301194 133.073841 241.403633 133.12875 240.69192 133.257577 C 240.624339 133.270248 240.560982 133.299815 240.508184 133.342053 Q 240.284322 133.521565 240.018221 133.496223 L 240.170279 133.437089 Q 240.273762 133.396963 240.284322 133.285032 Q 240.525079 130.73807 240.767949 128.188996 Q 240.888328 126.917627 240.795404 123.221787 C 240.96858 122.537529 241.150204 121.895509 241.243128 121.175348 C 241.965401 115.631588 245.359238 110.884017 250.271538 108.195557 C 252.098338 107.196625 254.638965 105.984389 255.935676 105.32125 Q 257.59986 104.468039 259.304171 103.629611 Z" style="fill:#dd9e74;"/>
		<path d="M 240.041452 104.01609 L 240.024557 104.1597 L 240.041452 104.01609 Z" style="fill:#ad9a82;"/>
		<path d="M 260.638897 105.158633 L 260.552309 112.168057 L 260.391804 110.924143 Q 260.292544 109.866077 260.14471 108.812235 Q 260.094025 108.451098 260.163718 107.912562 Q 260.374908 106.250489 260.539637 104.636991 Q 260.554421 104.489158 260.573428 104.636991 L 260.638897 105.158633 Z" style="fill:#f4e2cb;"/>
		<path fill-opacity="0.322" d="M 260.391804 110.924143 L 260.552309 112.168057 Q 260.493175 114.115237 260.459385 116.081424 Q 260.442489 117.080357 260.28832 117.798406 Q 260.104584 118.641057 259.963086 119.490045 C 259.671643 121.230257 258.655815 123.149982 257.87652 124.514275 Q 257.479482 125.213317 256.801559 126.028514 Q 256.362282 125.378046 255.699143 125.236548 C 256.393961 124.102453 257.204934 122.974694 257.726575 121.817368 Q 258.725508 119.604088 259.12677 117.348569 Q 259.405542 115.781533 259.356968 113.02338 C 259.342185 112.1934 259.422438 111.226146 259.4689 110.334921 Q 259.715993 108.892487 259.511138 107.462725 Q 259.496354 107.367689 259.585055 107.333899 L 259.658971 107.304332 Q 259.781462 107.255758 259.792022 107.386696 Q 259.941967 109.162811 260.391804 110.924143 Z" style="fill:#d5bfb4;"/>
		<path d="M 222.892754 133.633497 C 222.892754 136.307173 220.723824 138.476103 218.050148 138.476103 C 215.376471 138.476103 213.207541 136.307173 213.207541 133.633497 C 213.207541 130.95982 215.376471 128.79089 218.050148 128.79089 C 220.723824 128.79089 222.892754 130.95982 222.892754 133.633497 Z" style="fill:#e6b29c;"/>
		<path d="M 245.53875 132.302994 Q 244.793247 132.400142 245.179726 132.457164 L 244.514475 132.909112 Q 244.465901 132.942903 244.465901 133.002036 L 244.465901 133.318822 Q 244.465901 133.377956 244.518698 133.352613 Q 244.869275 133.177324 245.038228 132.80774 Q 245.09525 132.678914 245.116369 132.8183 Q 245.124816 132.871098 245.103697 132.907 Q 245.050899 132.997812 245.105809 133.086512 L 245.344455 133.464544 L 242.166032 134.070662 L 240.546198 134.125571 Q 240.018221 133.965066 239.697211 134.104452 L 239.498692 133.532125 L 240.018221 133.496223 Q 240.284322 133.521565 240.508184 133.342053 C 240.560982 133.299815 240.624339 133.270248 240.69192 133.257577 C 241.403633 133.12875 242.301194 133.073841 243.205091 132.894329 Q 243.496535 132.835195 244.256822 132.569095 Q 244.86294 132.357904 245.53875 132.302994 Z" style="fill:#ad9a82;"/>
		<path fill-opacity="0.322" d="M 245.612667 133.268136 Q 245.610555 133.325158 245.344455 133.464544 L 245.105809 133.086512 Q 245.050899 132.997812 245.103697 132.907 Q 245.124816 132.871098 245.116369 132.8183 Q 245.09525 132.678914 245.038228 132.80774 Q 244.869275 133.177324 244.518698 133.352613 Q 244.465901 133.377956 244.465901 133.318822 L 244.465901 133.002036 Q 244.465901 132.942903 244.514475 132.909112 L 245.179726 132.457164 Q 245.424707 132.482506 245.701367 132.402254 Q 245.857649 132.355792 245.798515 132.507849 L 245.73727 132.664131 C 245.724598 132.697921 245.762613 132.7296 245.794291 132.710593 Q 245.834418 132.689473 245.851313 132.657795 C 245.855537 132.651459 245.861872 132.651459 245.866096 132.655683 C 245.872432 132.662019 245.874544 132.672578 245.87032 132.678914 Q 245.743605 132.957686 245.612667 133.268136 Z" style="fill:#d5bfb4;"/>
		<path d="M 242.166032 134.070662 Q 241.084735 134.562736 239.937969 134.311419 Q 239.885171 134.298748 239.845045 134.309307 Q 239.819702 134.315643 239.794359 134.326203 Q 239.745785 134.343098 239.764792 134.296636 L 239.802807 134.199488 C 239.819702 134.153026 239.86194 134.121348 239.910514 134.1129 Q 240.212517 134.064326 240.546198 134.125571 L 242.166032 134.070662 Z" style="fill:#f4e2cb;"/>
		<path d="M 234.408971 140.124025 C 234.400544 142.52252 232.417462 144.45914 229.979939 144.450671 C 227.543177 144.442245 225.572766 142.490841 225.581235 140.093192 C 225.589662 137.694697 227.572744 135.758077 230.010266 135.766545 C 232.447029 135.774972 234.41744 137.726376 234.408971 140.124025 Z" style="fill:#e6b29c;"/>
		<path d="M 248.032914 27.962037 L 248.032914 28.044401 Q 248.032914 28.090863 247.986452 28.092975 Q 242.026646 28.3633 236.06684 28.268264 Q 235.268539 28.255592 232.848291 28.052849 Q 232.833508 28.052849 232.833508 28.038066 L 232.833508 27.97682 Q 232.833508 27.928246 232.882082 27.928246 L 247.999124 27.928246 Q 248.032914 27.928246 248.032914 27.962037 Z" style="fill:#ad9a82;"/>
		<path fill-opacity="0.322" d="M 256.727642 31.510043 C 256.744537 31.545946 256.729754 31.586072 256.695964 31.590296 Q 256.531235 31.615639 256.455206 31.49526 Q 256.379177 31.374881 256.512228 31.423455 Q 256.719195 31.49526 256.727642 31.510043 Z" style="fill:#d5bfb4;"/>
		<path fill-opacity="0.322" d="M 257.802604 32.525872 C 257.802604 32.530095 257.800492 32.532207 257.796268 32.532207 C 257.792044 32.532207 257.789932 32.530095 257.789932 32.525872 C 257.789932 32.521648 257.792044 32.519536 257.796268 32.519536 C 257.800492 32.519536 257.802604 32.521648 257.802604 32.525872 Z" style="fill:#d5bfb4;"/>
		<path d="M 241.652838 91.384765 Q 241.66551 91.350974 241.671846 91.315072 Q 241.692965 91.171462 241.794336 91.272834 Q 242.090004 91.562165 242.277963 91.927525 Q 242.444804 92.246423 242.144913 92.050016 Q 241.496557 91.625522 240.740494 91.458682 Q 240.630675 91.433339 240.670801 91.327743 L 240.706703 91.234819 Q 240.738382 91.154567 240.816523 91.186245 L 241.505005 91.452346 Q 241.614824 91.494584 241.652838 91.384765 Z" style="fill:#e3bb9f;"/>
		<path d="M 241.595817 98.191446 Q 241.619048 98.202006 241.652838 98.216789 Q 241.790113 98.282258 241.652838 98.297042 Q 241.627496 98.301265 241.593705 98.292818 Q 241.555691 98.28437 241.53246 98.252692 C 241.059392 97.595888 241.015042 96.765908 240.373022 96.011957 C 240.339231 95.97183 240.335007 95.916921 240.36035 95.872571 L 240.4047 95.796542 C 240.42582 95.760639 240.474393 95.756416 240.499736 95.788094 Q 241.15654 96.594843 241.312821 97.646574 Q 241.321269 97.705707 241.513452 98.115417 Q 241.538795 98.172439 241.595817 98.191446 Z" style="fill:#ad9a82;"/>
		<path fill-opacity="0.322" d="M 260.351572 100.386057 C 260.353789 100.406838 260.322111 100.425846 260.284096 100.427894 C 260.246082 100.430069 260.214403 100.415286 260.212397 100.393829 C 260.210179 100.373048 260.241858 100.354041 260.279872 100.351992 C 260.317887 100.349817 260.349565 100.3646 260.351572 100.386057 Z" style="fill:#d5bfb4;"/>
		<path d="M 223.262359 106.584572 C 222.060662 107.471173 220.352128 107.196625 219.448083 105.969965 C 218.544334 104.744699 218.787204 103.031941 219.988859 102.144538 C 221.190556 101.257938 222.89909 101.532486 223.803135 102.759146 C 224.706884 103.984412 224.464014 105.697169 223.262359 106.584572 Z" style="fill:#e3bb9f;"/>
	</g>
	<g id="surface4">
	</g>
</svg>
