<?xml version="1.0" encoding="utf-8"?>
<svg xmlns="http://www.w3.org/2000/svg" width="490pt" height="280pt" viewBox="0 0 490 280" version="1.1" xmlns:xlink="http://www.w3.org/1999/xlink">
	<g id="surface2">
		<path d="M 244.994776 32.490954 Q 246.176051 29.182015 247.989012 25.977976 Q 250.559084 21.435311 254.449539 17.604148 Q 254.691268 17.3647 254.962642 17.202788 C 255.042458 17.152618 255.147358 17.189105 255.183846 17.275762 Q 255.336636 17.638354 255.375404 18.124091 C 255.560121 20.470679 254.898789 22.68272 254.132556 24.981418 Q 253.49859 26.885597 251.348121 31.521761 Q 246.096235 42.848778 244.661829 45.966159 C 240.972054 53.986517 238.103242 62.337541 236.370097 70.912049 Q 236.151173 71.995265 235.455635 75.929049 Q 235.120408 77.824106 234.753255 82.255029 Q 234.611867 83.974492 234.746414 90.156804 C 234.785181 91.901351 235.020068 93.066664 235.118128 94.569483 Q 235.188822 95.645857 235.528609 97.436014 Q 235.535451 97.472501 236.105564 100.279741 Q 237.391741 106.619404 239.975495 111.732183 Q 241.699519 115.141462 243.284435 117.659084 Q 245.425781 121.061521 246.534082 123.015871 Q 248.862426 127.118408 250.18509 131.389699 Q 250.613815 132.778496 250.878348 134.694078 Q 251.270586 137.533243 250.549962 140.107876 C 250.175968 141.441942 249.466747 142.969847 248.766647 144.299352 C 247.42574 146.8489 246.009578 149.336875 244.908118 152.032372 Q 244.782693 152.337953 244.652707 152.52267 C 244.609379 152.581962 244.520441 152.57056 244.490795 152.504426 Q 243.035865 149.250218 240.940128 145.989168 Q 230.032714 129.027149 216.315781 114.835881 Q 212.662493 111.057168 204.582843 103.171357 Q 202.826894 101.458736 201.438097 100.147474 Q 190.897837 90.200132 183.566176 82.026984 Q 178.779502 76.690721 174.747659 70.298607 Q 168.271168 60.029721 166.430842 47.487222 C 165.714779 42.613891 165.849326 37.669866 167.149185 32.915118 Q 169.265446 25.175256 174.036157 18.675961 C 176.25732 15.649798 179.01895 13.061482 181.988101 10.938379 Q 184.927607 8.835801 188.432666 7.465247 Q 196.209015 4.420841 204.503028 4.591875 C 206.051456 4.623801 208.38208 4.785714 210.046812 5.041124 Q 217.973672 6.263448 224.986069 10.128818 Q 225.930177 10.648762 228.117133 12.14702 C 231.952857 14.769543 235.311966 18.053397 238.13973 21.711246 C 240.620864 24.919845 242.586616 28.039507 244.582013 31.961888 Q 244.771291 32.335883 244.846546 32.497795 Q 244.928642 32.675671 244.994776 32.490954 Z" style="fill:#eab8b2;"/>
		<path d="M 293.274275 5.175671 Q 300.231942 6.315898 305.903432 9.617996 C 306.829296 10.156184 307.559041 10.733139 308.594368 11.481128 C 316.466496 17.1663 321.688737 26.691758 323.405919 36.110035 Q 323.588355 37.120276 323.670452 38.458903 C 323.743426 39.667544 323.877973 40.609371 323.850608 41.596808 Q 323.76395 44.862419 323.451528 46.990083 C 322.801599 51.409603 321.743468 56.025243 320.035407 60.209877 Q 316.68542 68.421793 311.203208 75.618907 C 304.272907 84.71792 296.042747 92.558122 287.548054 100.589883 C 278.485529 109.15755 271.151587 116.108375 264.111825 124.532373 Q 261.596483 127.542573 258.96712 131.252872 C 258.903267 131.34181 258.773281 131.346371 258.704867 131.261994 Q 257.781283 130.130889 256.828053 128.623508 Q 255.049299 125.818549 254.563562 125.01811 C 253.642259 123.503888 252.762003 121.832315 252.014014 120.327215 Q 247.371009 110.993315 246.125881 100.845293 Q 245.934323 99.283182 245.913799 98.083663 C 245.893275 96.854498 245.774691 95.794087 245.806617 94.387047 C 245.865909 91.780487 245.843105 89.919636 246.093955 87.835301 Q 247.202255 78.615424 250.73696 69.876723 C 252.707272 65.003392 255.047018 60.17339 257.767601 55.601078 Q 262.745832 47.231811 265.518865 41.795208 Q 268.25541 36.427018 269.769632 29.747567 Q 269.883655 29.250428 270.177833 27.056631 Q 270.380794 25.542409 270.348867 24.34061 Q 270.269051 21.360056 269.849448 19.417109 Q 268.741147 14.299769 265.060494 10.416155 Q 264.74123 10.078648 265.14487 9.848322 Q 266.39684 9.127699 267.942988 8.470928 Q 270.704618 7.301055 273.701135 6.356947 Q 278.220996 4.938504 282.925573 4.730983 C 283.2608 4.7173 283.643916 4.587314 283.91301 4.578192 Q 284.727132 4.550827 287.071439 4.56679 Q 287.901525 4.571351 288.576539 4.687654 C 289.545732 4.856408 290.462475 4.689934 291.404303 4.911139 Q 291.848991 5.013759 292.740649 5.027442 C 292.900281 5.032003 293.128326 5.152867 293.274275 5.175671 Z" style="fill:#b6dada;"/>
	</g>
	<g id="surface4">
	</g>
</svg>
