<?xml version="1.0" encoding="utf-8"?>
<svg xmlns="http://www.w3.org/2000/svg" width="490pt" height="280pt" viewBox="0 0 490 280" version="1.1" xmlns:xlink="http://www.w3.org/1999/xlink">
	<g id="surface2">
		<path vector-effect="non-scaling-stroke" d="M 252.84533 12.235032 L 252.924281 12.275574 C 252.969091 12.30118 252.977626 12.36306 252.939218 12.397201 C 251.336727 13.848191 249.399229 16.276466 249.241327 18.506296" style="fill:none;stroke-width:0.50;stroke:#5a8f28;"/>
		<path vector-effect="non-scaling-stroke" d="M 249.241327 18.506296 L 249.196517 18.762353 C 249.173045 18.89465 249.006608 18.943727 248.916988 18.843438 Q 247.256884 17.001961 245.575443 15.126343 C 244.465862 13.888734 243.281598 12.309715 243.06395 10.624006" style="fill:none;stroke-width:0.50;stroke:#74a42c;"/>
		<path vector-effect="non-scaling-stroke" d="M 230.256829 25.507323 Q 230.715598 25.131773 231.330135 25.129639 Q 231.438959 25.129639 231.53498 25.082695 Q 231.974545 24.862913 232.326624 24.852244 C 232.535737 24.845843 232.689371 24.651666 232.646695 24.44682 Q 232.561343 24.034995 231.665143 24.118214 Q 231.492304 24.13315 231.596861 23.996587 L 231.643805 23.932572 Q 231.701418 23.860023 231.791038 23.842952 Q 232.808864 23.644508 233.598374 23.119591 C 233.73067 23.032105 233.713599 22.833661 233.5685 22.769646 Q 233.261232 22.630949 232.983837 22.558399 Q 232.399173 22.404765 232.983837 22.253265 Q 234.432693 21.875581 235.542274 21.064733 Q 237.149032 19.889004 238.288486 19.206186 C 238.444254 19.112298 238.457057 18.892516 238.314091 18.781558 L 237.915069 18.478557 C 237.848921 18.429479 237.868125 18.324923 237.947076 18.299317 Q 240.701823 17.420188 243.407493 18.440148 C 243.759572 18.574578 244.220474 18.689804 244.640835 18.723945 C 244.777398 18.736748 244.881955 18.602318 244.835011 18.472155 Q 244.346369 17.10225 242.865506 16.176177" style="fill:none;stroke-width:0.50;stroke:#4b8126;"/>
		<path vector-effect="non-scaling-stroke" d="M 258.679163 10.235653 Q 257.910992 10.848056 256.803545 11.917094 Q 255.262935 13.406493 255.563802 15.369597 Q 255.563802 15.375999 255.740909 15.975599 Q 255.890275 16.483445 255.61288 17.023299 Q 254.957801 18.295049 254.242975 19.517722 Q 254.153355 19.669222 254.317658 19.733236 Q 255.160513 20.068244 256.227417 19.8698" style="fill:none;stroke-width:0.50;stroke:#447924;"/>
		<path vector-effect="non-scaling-stroke" d="M 256.227417 19.8698 Q 254.829772 22.321547 254.535307 24.647398 Q 254.221637 27.109814 253.833283 29.557293" style="fill:none;stroke-width:0.50;stroke:#5a8f28;"/>
		<path vector-effect="non-scaling-stroke" d="M 251.754954 31.396636 Q 251.633326 31.159783 251.597052 30.944268 Q 251.565045 30.750092 251.693073 30.500436 Q 253.327571 27.325328 252.185983 23.870692 Q 251.908588 23.027837 251.417812 21.401875 Q 250.931303 19.786582 251.257776 16.931545 Q 251.274847 16.78858 251.174558 16.741636 C 251.138283 16.724566 251.093473 16.735235 251.067867 16.769376 L 249.469644 18.864776 Q 249.401362 18.954396 249.328813 18.869044 Q 249.237059 18.764487 249.241327 18.506296" style="fill:none;stroke-width:0.50;stroke:#4b8126;"/>
		<path vector-effect="non-scaling-stroke" d="M 228.667141 24.952533 L 228.643669 22.959555" style="fill:none;stroke-width:0.50;stroke:#4b8126;"/>
		<path vector-effect="non-scaling-stroke" d="M 256.841954 19.163509 L 256.227417 19.8698" style="fill:none;stroke-width:0.50;stroke:#6d9c2a;"/>
		<path vector-effect="non-scaling-stroke" d="M 259.972252 19.050418 Q 260.258182 19.212587 260.680676 19.097361" style="fill:none;stroke-width:0.50;stroke:#669728;"/>
		<path vector-effect="non-scaling-stroke" d="M 261.653693 19.086692 L 261.850004 19.082425" style="fill:none;stroke-width:0.50;stroke:#5a8f28;"/>
		<path vector-effect="non-scaling-stroke" d="M 246.825855 39.515779 Q 244.568285 39.910533 242.216828 39.622469" style="fill:none;stroke-width:0.50;stroke:#7f3a1a;"/>
		<path vector-effect="non-scaling-stroke" d="M 260.360605 38.276036 Q 258.657825 38.532093 257.138553 39.394152" style="fill:none;stroke-width:0.50;stroke:#dc251c;"/>
		<path vector-effect="non-scaling-stroke" d="M 257.138553 39.394152 L 252.02168 40.580549" style="fill:none;stroke-width:0.50;stroke:#e33d1f;"/>
		<path vector-effect="non-scaling-stroke" d="M 252.02168 40.580549 Q 249.966822 41.549299 247.694315 42.02087 Q 246.791714 42.206512 245.886979 42.159568 C 244.760328 42.104089 243.418162 41.513024 242.449413 41.312446 Q 240.016871 40.806733 237.52885 41.468214 C 229.644426 43.557213 228.073942 51.725433 229.200593 58.649643 Q 229.731912 61.910103 231.727023 64.600836 Q 232.0727 65.06814 233.182281 66.331355" style="fill:none;stroke-width:0.50;stroke:#dc251c;"/>
		<path vector-effect="non-scaling-stroke" d="M 227.1372 39.035672 Q 227.691991 39.031404 228.180633 38.732671" style="fill:none;stroke-width:0.50;stroke:#92471c;"/>
		<path vector-effect="non-scaling-stroke" d="M 270.483394 58.837418 Q 270.677571 55.235549 269.956344 51.815053 C 268.993996 47.248702 266.429157 42.477506 262.007905 40.443986 Q 259.763138 39.411222 257.138553 39.394152" style="fill:none;stroke-width:0.50;stroke:#f25a29;"/>
		<path vector-effect="non-scaling-stroke" d="M 260.629465 73.076325 Q 260.439556 73.509488 260.631599 73.912778" style="fill:none;stroke-width:0.50;stroke:#a16426;"/>
		<path vector-effect="non-scaling-stroke" d="M 262.029243 64.846224 Q 263.535713 59.070004 262.991591 53.259642 C 262.573365 48.795714 260.567584 44.105602 256.349044 41.969659 Q 254.718814 41.146009 252.77278 40.781127 Q 252.640484 40.755522 252.388695 40.753388 Q 252.06649 40.751254 252.02168 40.580549" style="fill:none;stroke-width:0.50;stroke:#f25a29;"/>
		<path vector-effect="non-scaling-stroke" d="M 295.788234 33.699016 Q 294.286033 35.216154 292.886254 36.746095 Q 289.11368 40.872881 289.6514 46.418651 Q 289.745287 47.393801 290.041887 50.511296 Q 290.157112 51.727567 290.022682 52.958775 Q 289.971471 53.421811 290.244599 53.044127 Q 291.031974 51.951617 291.386186 51.411763 Q 291.733997 50.884713 293.577608 49.444392 Q 294.177208 48.974954 294.113194 48.339079 Q 293.754714 44.835364 295.350803 41.664524 Q 296.074165 40.228471 296.8338 38.907643 C 297.205083 38.261099 297.422732 37.631625 297.772676 37.049096 Q 297.919909 36.801574 297.924177 36.449495 Q 297.951916 34.360496 297.298971 32.433667" style="fill:none;stroke-width:0.50;stroke:#5a8f28;"/>
		<path vector-effect="non-scaling-stroke" d="M 287.092963 58.009501 Q 287.050287 58.028705 287.003343 58.02017 Q 286.898786 58.005233 286.875314 57.90281 Q 286.514701 56.387806 286.002586 54.934682 C 285.3155 52.990782 283.501762 52.623767 281.803251 53.517833 C 279.460328 54.749041 278.323008 56.622525 277.132343 58.912102 C 277.027786 59.11268 276.812272 59.230039 276.586088 59.210835 Q 276.276686 59.185229 276.103847 59.373004 Q 276.007826 59.477561 275.903269 59.804034 Q 275.736832 60.328951 275.423162 60.593543" style="fill:none;stroke-width:0.50;stroke:#5a8f28;"/>
		<path vector-effect="non-scaling-stroke" d="M 279.833745 129.227506 Q 279.140257 129.18483 278.775376 129.003456 Q 276.278819 127.770115 269.973414 124.353887 C 269.134827 123.899386 268.200219 123.412877 267.506731 122.747129" style="fill:none;stroke-width:0.50;stroke:#447924;"/>
		<path vector-effect="non-scaling-stroke" d="M 267.506731 122.747129 Q 267.496062 122.640438 267.440583 122.540149" style="fill:none;stroke-width:0.50;stroke:#4b8126;"/>
		<path vector-effect="non-scaling-stroke" d="M 267.440583 122.540149 Q 267.594217 121.550062 267.747851 120.56851 Q 268.225825 117.544903 267.692372 114.531965 C 267.00742 110.667637 264.916287 107.304754 262.543491 103.316665 Q 261.679299 101.863541 261.037022 100.290924 C 259.852758 97.391078 259.632976 93.539553 261.039156 90.690918 Q 262.889168 86.946083 267.14185 87.057041 Q 268.174613 87.082647 269.043073 87.323767 Q 269.341807 87.406986 269.064411 87.547817 Q 265.754874 89.212188 265.532958 92.907945 C 265.249161 97.670607 268.99613 100.995081 271.603644 104.539337 C 275.194844 109.417225 276.820807 115.285199 276.748257 121.366554" style="fill:none;stroke-width:0.50;stroke:#6c9c35;"/>
		<path vector-effect="non-scaling-stroke" d="M 276.748257 121.366554 Q 276.703447 124.110633 276.255347 126.993409 C 276.242545 127.080895 276.321495 127.155578 276.408982 127.136374 C 283.320389 125.559489 289.442286 121.686626 292.813704 115.265995 C 294.977387 111.14561 295.96534 106.370145 295.376409 101.703505 Q 294.612505 95.660559 291.778807 90.486072 Q 291.055446 89.167378 288.375382 84.396181 Q 287.489851 82.817163 286.625659 79.977063" style="fill:none;stroke-width:0.50;stroke:#4b8126;"/>
		<path vector-effect="non-scaling-stroke" d="M 286.625659 79.977063 C 285.774269 77.040942 285.469134 73.345185 285.125591 70.970256 C 284.703097 68.068276 283.343861 64.837689 280.71074 63.378164 Q 279.955372 62.957803 279.729188 62.962071 C 279.172264 62.970606 278.651615 63.557404 278.250459 63.932954" style="fill:none;stroke-width:0.50;stroke:#5a8f28;"/>
		<path vector-effect="non-scaling-stroke" d="M 278.250459 63.932954 Q 277.027786 64.634977 276.024896 63.781454 Q 275.083886 62.981275 275.237521 61.71806" style="fill:none;stroke-width:0.50;stroke:#6c9c35;"/>
		<path vector-effect="non-scaling-stroke" d="M 278.250459 63.932954 Q 279.539279 64.70966 280.068464 65.91953 C 281.487447 69.156518 280.54217 73.142473 280.88998 76.723005 Q 281.118298 79.080863 281.74137 81.378976" style="fill:none;stroke-width:0.50;stroke:#95bf3b;"/>
		<path vector-effect="non-scaling-stroke" d="M 281.74137 81.378976 Q 282.524478 84.146526 283.503896 85.804495 Q 284.888738 88.149551 285.936438 89.944085 C 288.287896 93.968448 289.796499 98.308615 289.777294 103.045671 C 289.751689 109.511112 286.787828 115.069684 281.65175 118.921209 Q 279.392047 120.61332 276.748257 121.366554" style="fill:none;stroke-width:0.50;stroke:#86b139;"/>
		<path vector-effect="non-scaling-stroke" d="M 267.440583 122.540149 Q 267.282681 122.768467 266.981814 122.604164 Q 263.43329 120.679468 260.719085 117.389135 C 257.674139 113.704047 256.306368 108.93285 256.304234 104.153118 C 256.299967 100.162895 256.758735 96.104391 258.91815 92.728705 Q 259.283031 92.158978 259.716195 91.508166 Q 259.78661 91.401476 259.660716 91.399342 L 255.804923 91.339596" style="fill:none;stroke-width:0.50;stroke:#86b139;"/>
		<path vector-effect="non-scaling-stroke" d="M 267.506731 122.747129 Q 266.448362 123.722279 265.52869 124.170379 Q 263.591192 125.119924 262.400526 126.491963" style="fill:none;stroke-width:0.50;stroke:#5e8e28;"/>
		<path vector-effect="non-scaling-stroke" d="M 286.625659 79.977063 L 281.74137 81.378976" style="fill:none;stroke-width:0.50;stroke:#74a42c;"/>
		<path vector-effect="non-scaling-stroke" d="M 253.929305 88.273312 Q 253.841819 88.354397 253.96558 88.469623" style="fill:none;stroke-width:0.50;stroke:#a4931e;"/>
		<path vector-effect="non-scaling-stroke" d="M 253.954911 88.60832 Q 253.895164 88.834504 254.006122 88.843039" style="fill:none;stroke-width:0.50;stroke:#a4931e;"/>
		<path vector-effect="non-scaling-stroke" d="M 254.176827 89.833126 Q 254.093608 90.119057 254.23444 90.123324" style="fill:none;stroke-width:0.50;stroke:#a4931e;"/>
		<path vector-effect="non-scaling-stroke" d="M 254.400877 91.828238 Q 254.388074 91.954133 254.426482 92.039485" style="fill:none;stroke-width:0.50;stroke:#a4931e;"/>
		<path vector-effect="non-scaling-stroke" d="M 254.595053 93.43713 Q 254.332595 95.995567 253.984784 98.598813 Q 253.737262 100.448826 253.677515 102.179345 C 253.553755 105.742806 254.25151 109.632739 256.261558 112.611537 Q 257.183363 113.979308 260.311527 118.475243 C 261.860673 120.70294 262.953183 123.737216 262.400526 126.491963" style="fill:none;stroke-width:0.50;stroke:#ab9b20;"/>
		<path vector-effect="non-scaling-stroke" d="M 262.400526 126.491963 C 261.572608 130.857736 257.552512 133.34149 253.814079 134.95465 Q 249.365088 136.872944 244.064706 137.020177 Q 236.289107 137.235691 229.917553 133.230532 Q 227.280165 131.574696 225.741689 129.428084 Q 224.267227 127.373226 224.134931 124.752909" style="fill:none;stroke-width:0.50;stroke:#a4931e;"/>
		<path vector-effect="non-scaling-stroke" d="M 206.255746 129.058936 C 213.771021 134.096858 221.996855 137.788348 230.617443 141.057343 C 237.27706 143.579505 244.054037 144.633607 250.986782 142.871081 Q 252.674625 142.442185 255.038885 141.539584 C 259.807948 139.715177 265.426267 137.165276 269.179637 135.613996 C 271.336918 134.724198 274.249567 133.67223 276.398313 132.718418 Q 279.167997 131.489344 282.080646 129.470761" style="fill:none;stroke-width:0.50;stroke:#518125;"/>
		<path vector-effect="non-scaling-stroke" d="M 258.105169 82.637923 Q 257.910992 82.610183 257.853379 82.659261" style="fill:none;stroke-width:0.50;stroke:#3e7423;"/>
		<path vector-effect="non-scaling-stroke" d="M 253.11419 85.670065 Q 252.269202 84.142258 251.065733 82.836367 Q 250.982515 82.748881 249.320278 81.248813 Q 247.871421 79.942922 246.898405 78.284953" style="fill:none;stroke-width:0.50;stroke:#91861c;"/>
		<path vector-effect="non-scaling-stroke" d="M 245.829366 78.146255 L 242.543301 78.276417" style="fill:none;stroke-width:0.50;stroke:#91861c;"/>
		<path vector-effect="non-scaling-stroke" d="M 235.54014 68.482235 Q 236.534495 67.21902 237.906534 66.677032" style="fill:none;stroke-width:0.50;stroke:#447924;"/>
		<path vector-effect="non-scaling-stroke" d="M 244.293024 64.856893 Q 244.96304 63.454981 245.961662 62.868183" style="fill:none;stroke-width:0.50;stroke:#447924;"/>
		<path vector-effect="non-scaling-stroke" d="M 207.164749 40.13245 Q 207.632053 40.734184 208.075885 41.31458 C 208.564528 41.956856 208.972085 42.742098 208.978487 43.550811 C 208.995557 45.844656 207.474151 47.660527 205.67535 49.026165 Q 203.733584 50.504895 201.99453 51.864131" style="fill:none;stroke-width:0.50;stroke:#588927;"/>
		<path vector-effect="non-scaling-stroke" d="M 201.99453 51.864131 Q 199.63027 49.019764 198.01711 46.678975 Q 192.535355 38.730537 191.88241 28.949157 Q 191.85467 28.543733 191.878142 28.046556 Q 191.89948 27.609125 191.912283 27.139687" style="fill:none;stroke-width:0.50;stroke:#74a42c;"/>
		<path vector-effect="non-scaling-stroke" d="M 201.99453 51.864131 C 199.807376 53.844306 198.646584 56.261911 199.203508 59.050799 Q 199.547051 60.770649 200.686505 62.430753" style="fill:none;stroke-width:0.50;stroke:#669728;"/>
		<path vector-effect="non-scaling-stroke" d="M 213.395471 59.652533 Q 213.301583 60.081429 213.410408 60.307613" style="fill:none;stroke-width:0.50;stroke:#3e7423;"/>
		<path vector-effect="non-scaling-stroke" d="M 303.947919 76.289841 C 301.963477 75.988974 299.861675 75.882284 298.015931 75.148254 Q 297.478211 74.934873 295.690079 73.861567 Q 294.42473 73.101931 293.065494 72.521535" style="fill:none;stroke-width:0.50;stroke:#74a42c;"/>
		<path vector-effect="non-scaling-stroke" d="M 292.860648 71.853653 C 293.955292 70.867833 295.256916 70.458142 296.701504 70.22769 C 296.870075 70.199951 296.925554 69.984436 296.78899 69.879879 L 296.411306 69.591815 C 296.272609 69.485125 296.259806 69.282413 296.383567 69.16292 Q 296.895681 68.663608 297.836691 67.985057 C 298.705151 67.357717 299.321822 66.871209 300.262831 67.483612 C 300.523156 67.654317 300.612776 67.592436 300.909375 67.507084 Q 301.013932 67.477211 300.94565 67.391858 Q 300.881636 67.315041 300.828291 67.287302 Q 300.713065 67.225421 300.757875 67.103794 Q 300.958453 66.56394 301.434292 66.482856 C 302.206731 66.348426 302.921557 66.254538 303.661989 65.940868 C 304.605132 65.539712 304.944408 65.328465 305.778727 65.189767 Q 306.352722 65.093746 308.428918 64.820619 Q 309.293111 64.705393 310.142367 63.862538 Q 310.219184 63.785721 310.118895 63.743045 C 308.388376 62.998346 306.779484 63.239466 304.946542 63.472051 C 304.344808 63.548868 303.433671 63.501925 302.669768 63.819862 C 299.605618 65.09588 297.132534 66.717575 294.461005 68.633735 Q 294.27323 68.770299 294.147335 68.571855 C 293.06336 66.845603 291.866293 65.450092 291.328574 63.346157" style="fill:none;stroke-width:0.50;stroke:#74a42c;"/>
		<path vector-effect="non-scaling-stroke" d="M 188.489653 59.183095 Q 188.677429 59.507434 189.159669 59.831773 Q 189.247156 59.89152 189.255691 59.99821 C 189.422128 62.153357 189.620572 64.368251 190.004658 66.352693 C 190.109214 66.896815 190.384476 67.041914 190.894456 66.990702 Q 191.188922 66.960829 191.244401 67.253161 C 191.52393 68.736158 192.432932 70.295972 193.26085 71.531448 C 193.348336 71.66161 193.508372 71.721357 193.657739 71.680814 L 196.81791 70.825157 C 196.999283 70.776079 197.0761 70.562698 196.96941 70.40693 C 196.482902 69.700639 196.054006 68.928201 196.036936 68.017064" style="fill:none;stroke-width:0.50;stroke:#74a42c;"/>
		<path vector-effect="non-scaling-stroke" d="M 196.036936 68.017064 Q 196.681346 68.349938 197.364165 68.322199 Q 200.197863 68.211241 203.101977 68.424622 C 203.244942 68.435291 203.326027 68.593193 203.253477 68.716954 Q 202.903533 69.308019 202.329538 69.845738 C 200.116778 71.911266 197.669299 73.624714 194.588079 74.343808 Q 191.45138 75.07357 187.753489 74.994619 C 187.544376 74.990352 187.437686 74.74283 187.578517 74.589196 Q 188.963359 73.069924 189.422128 72.527936 Q 189.814749 72.067034 189.492544 71.377813 C 189.46267 71.313799 189.4456 71.245517 189.443466 71.175101 C 189.434931 70.925446 189.539487 70.671523 189.22155 70.445339" style="fill:none;stroke-width:0.50;stroke:#a86c28;"/>
		<path vector-effect="non-scaling-stroke" d="M 212.678511 66.527666 L 211.592402 66.672765 Q 211.571064 66.677032 211.547592 66.715441 Q 211.53479 66.736779 211.55186 66.777321 Q 211.571064 66.830667 211.626543 66.845603 C 214.782447 67.682056 217.449708 69.911887 217.923413 73.285438 Q 218.352309 76.338919 217.590539 79.441477 Q 216.310254 84.65864 213.732613 89.540795" style="fill:none;stroke-width:0.50;stroke:#dc251c;"/>
		<path vector-effect="non-scaling-stroke" d="M 204.975461 91.691674 Q 205.050144 91.378004 205.024539 91.175292 Q 204.653256 88.175157 205.402223 85.232634 C 205.61347 84.402583 205.037341 84.067575 204.401466 83.751771" style="fill:none;stroke-width:0.50;stroke:#8e5724;"/>
		<path vector-effect="non-scaling-stroke" d="M 204.401466 83.751771 L 204.380128 83.664285 C 204.350255 83.534123 204.446276 83.408228 204.580706 83.40396 Q 205.481174 83.374087 206.198134 82.994269 C 209.260149 81.374708 212.034101 78.579418 213.184224 75.240007 C 213.239703 75.077838 213.105273 74.913535 212.934568 74.934873 C 212.812941 74.951943 212.6273 74.979683 212.507806 75.054366 C 211.780178 75.502466 211.076021 75.856678 210.502026 76.272771 C 209.56315 76.949188 208.590133 77.589331 207.561637 78.120649 Q 205.508913 79.181152 204.732207 79.548168 Q 201.802487 80.926608 198.424668 81.50487 Q 193.041068 82.430943 188.169582 81.598758 C 186.579894 81.327764 185.022214 80.877531 183.441062 80.841256 C 183.240484 80.836988 183.125258 81.065306 183.246885 81.223208 Q 183.842218 81.991379 184.608255 82.612317 C 187.51877 84.97231 191.338288 86.002939 195.076722 86.032813 C 195.855562 86.039214 196.764564 85.981601 197.323622 86.291004 C 197.936025 86.626012 198.096061 87.340838 198.305174 88.023657 Q 198.424668 88.416277 198.684992 88.604053 C 198.834359 88.712877 199.04774 88.657398 199.124557 88.488827 Q 199.694284 87.253352 200.545674 86.538526" style="fill:none;stroke-width:0.50;stroke:#a86c28;"/>
		<path vector-effect="non-scaling-stroke" d="M 200.545674 86.538526 Q 200.682238 87.855086 200.731315 89.152441 Q 200.750519 89.664556 200.539272 90.178804" style="fill:none;stroke-width:0.50;stroke:#8e5724;"/>
		<path vector-effect="non-scaling-stroke" d="M 191.816262 99.917507 Q 190.973407 99.742535 190.218039 99.642246 Q 186.844487 99.19628 183.912633 97.67274 C 179.645016 95.453579 176.757972 91.384406 175.703871 86.70923 Q 175.499025 85.798094 175.592912 84.711985 Q 175.595046 84.697048 175.58011 84.701316 Q 175.577976 84.701316 175.575842 84.701316 Q 175.573708 84.701316 175.573708 84.70345 Q 175.573708 84.711985 175.571574 84.72052 Q 175.563039 84.741858 175.565173 84.750394 Q 175.607849 85.046993 175.385933 85.125944 Q 175.285644 85.162219 175.242968 85.25824 Q 175.161883 85.439614 175.206693 85.687136" style="fill:none;stroke-width:0.50;stroke:#dc251c;"/>
		<path vector-effect="non-scaling-stroke" d="M 200.080503 66.414574 L 200.289617 66.395369" style="fill:none;stroke-width:0.50;stroke:#9f2a42;"/>
		<path vector-effect="non-scaling-stroke" d="M 195.834224 67.379055 L 196.036936 68.017064" style="fill:none;stroke-width:0.50;stroke:#b77a2a;"/>
		<path vector-effect="non-scaling-stroke" d="M 204.401466 83.751771 L 200.29175 83.480777 C 200.234138 83.47651 200.189328 83.531989 200.204264 83.587468 Q 200.60542 85.021387 200.545674 86.538526" style="fill:none;stroke-width:0.50;stroke:#4b8126;"/>
		<path vector-effect="non-scaling-stroke" d="M 202.052143 66.273742 Q 201.934783 66.335623 201.789684 66.303616" style="fill:none;stroke-width:0.50;stroke:#a16426;"/>
		<path vector-effect="non-scaling-stroke" d="M 228.504972 92.611346 Q 228.479366 92.91648 228.530578 93.057312" style="fill:none;stroke-width:0.50;stroke:#588927;"/>
		<path vector-effect="non-scaling-stroke" d="M 228.398281 96.663449 L 228.381211 97.307859" style="fill:none;stroke-width:0.50;stroke:#588927;"/>
		<path vector-effect="non-scaling-stroke" d="M 193.487034 103.483102 Q 193.706816 104.57988 194.575276 104.520133 C 194.696904 104.511598 194.78439 104.637493 194.733178 104.748451 Q 194.374698 105.523023 194.282945 106.314666 C 193.758028 110.866081 196.536247 115.741834 201.599775 115.628742 C 205.816182 115.534855 209.168396 112.50698 210.525498 108.668258 C 211.566797 105.719334 211.449437 102.158007 209.285755 99.902571 Q 207.324785 97.856248 204.226494 98.204059" style="fill:none;stroke-width:0.50;stroke:#722d75;"/>
		<path vector-effect="non-scaling-stroke" d="M 204.226494 98.204059 L 204.74501 96.202546" style="fill:none;stroke-width:0.50;stroke:#6b6146;"/>
		<path vector-effect="non-scaling-stroke" d="M 204.226494 98.204059 Q 203.317492 98.786589 202.265524 99.394724 Q 201.783283 99.674253 201.392796 99.426731 Q 200.189328 98.664962 199.55772 98.3897" style="fill:none;stroke-width:0.50;stroke:#897d5c;"/>
		<path vector-effect="non-scaling-stroke" d="M 236.297642 83.487179 C 234.829581 85.311585 234.259854 88.243439 234.225713 90.586361 Q 234.193706 92.790586 234.251319 96.268694 C 234.321735 100.487234 234.042206 104.831669 232.883548 108.84323 Q 232.467455 110.283551 231.315198 113.710448 Q 230.299505 116.727654 230.177878 120.035058 Q 230.17361 120.137481 230.265364 120.186558 Q 230.384857 120.248439 230.472344 120.376467" style="fill:none;stroke-width:0.50;stroke:#f5ac18;"/>
		<path vector-effect="non-scaling-stroke" d="M 230.472344 120.376467 Q 229.518531 121.959753 229.277411 122.397184 Q 227.828554 125.028171 229.99437 127.153444 C 231.784636 128.911703 234.650341 129.891121 237.061545 130.360559 Q 241.320628 131.192744 245.690669 130.992166" style="fill:none;stroke-width:0.50;stroke:#f6bd12;"/>
		<path vector-effect="non-scaling-stroke" d="M 245.690669 130.992166 Q 246.702094 131.696323 247.918365 132.048402 C 251.405009 133.05556 255.228794 132.66934 257.981408 130.34989 C 260.021329 128.632174 260.520641 126.423682 260.256048 123.820435 C 259.931709 120.638926 258.222528 117.822298 256.165537 115.445235 Q 253.632705 112.519783 251.75282 109.191041 C 250.431992 106.848119 249.358686 104.705775 249.083425 102.288169 Q 248.908453 100.75396 249.143172 98.682032 Q 249.478179 95.716038 249.616877 94.853979 C 250.150329 91.550843 250.056442 87.285359 248.121077 84.408984" style="fill:none;stroke-width:0.50;stroke:#f5ac18;"/>
		<path vector-effect="non-scaling-stroke" d="M 248.121077 84.408984 C 247.384913 81.916695 245.515696 80.478508 242.935921 80.196845 Q 239.42794 79.814894 236.8567 82.60805 Q 236.536629 82.953727 236.297642 83.487179" style="fill:none;stroke-width:0.50;stroke:#f6bd12;"/>
		<path vector-effect="non-scaling-stroke" d="M 248.121077 84.408984 Q 247.7754 86.207785 247.261152 87.513676 Q 246.012874 90.68665 245.268175 93.366714 Q 244.275953 96.930175 244.261017 101.912619 Q 244.24608 106.628336 245.479422 110.317692 C 246.755439 114.139344 248.831635 117.700671 251.291917 120.914187 C 251.437016 121.104096 251.565045 121.238526 251.827503 121.276934 Q 253.96558 121.577802 255.969226 122.077113 C 256.035374 122.094183 256.088719 122.141127 256.112191 122.203008 Q 256.564559 123.370201 256.645644 124.001808 C 256.871827 125.762201 256.169804 127.123571 254.763624 128.132862 C 253.003232 129.393944 250.799007 130.123706 248.652395 130.526996 Q 247.173666 130.804391 245.690669 130.992166" style="fill:none;stroke-width:0.50;stroke:#f9c915;"/>
		<path vector-effect="non-scaling-stroke" d="M 230.472344 120.376467 C 235.166723 114.354858 238.348232 106.984682 238.836875 99.33071 C 239.08653 95.42584 239.045988 91.91359 238.08364 88.27758 C 237.682484 86.758308 236.892975 85.085402 236.297642 83.487179" style="fill:none;stroke-width:0.50;stroke:#f9c915;"/>
		<path d="M 252.84533 12.235032 L 252.924281 12.275574 C 252.969091 12.30118 252.977626 12.36306 252.939218 12.397201 C 251.336727 13.848191 249.399229 16.276466 249.241327 18.506296 L 249.196517 18.762353 C 249.173045 18.89465 249.006608 18.943727 248.916988 18.843438 Q 247.256884 17.001961 245.575443 15.126343 C 244.465862 13.888734 243.281598 12.309715 243.06395 10.624006 Q 243.497113 9.275439 243.928143 8.643832 Q 246.488713 4.901131 251.020923 4.269523 C 251.153219 4.250319 251.264178 4.363411 251.244973 4.495707 C 251.153219 5.105976 250.956909 5.88695 251.0636 6.629516 C 251.242839 7.9034 251.577847 8.852945 251.88725 9.89211 Q 252.049419 10.442632 252.348152 11.067838 Q 252.623414 11.641833 252.84533 12.235032 Z" style="fill:#82b12d;"/>
		<path d="M 258.679163 10.235653 Q 257.910992 10.848056 256.803545 11.917094 Q 255.262935 13.406493 255.563802 15.369597 Q 255.563802 15.375999 255.740909 15.975599 Q 255.890275 16.483445 255.61288 17.023299 Q 254.957801 18.295049 254.242975 19.517722 Q 254.153355 19.669222 254.317658 19.733236 Q 255.160513 20.068244 256.227417 19.8698 Q 254.829772 22.321547 254.535307 24.647398 Q 254.221637 27.109814 253.833283 29.557293 L 251.754954 31.396636 Q 251.633326 31.159783 251.597052 30.944268 Q 251.565045 30.750092 251.693073 30.500436 Q 253.327571 27.325328 252.185983 23.870692 Q 251.908588 23.027837 251.417812 21.401875 Q 250.931303 19.786582 251.257776 16.931545 Q 251.274847 16.78858 251.174558 16.741636 C 251.138283 16.724566 251.093473 16.735235 251.067867 16.769376 L 249.469644 18.864776 Q 249.401362 18.954396 249.328813 18.869044 Q 249.237059 18.764487 249.241327 18.506296 C 249.399229 16.276466 251.336727 13.848191 252.939218 12.397201 C 252.977626 12.36306 252.969091 12.30118 252.924281 12.275574 L 252.84533 12.235032 Q 252.920013 12.269173 253.001098 12.224363 Q 254.349665 11.458325 254.863913 11.142522 Q 255.563802 10.71576 256.338375 10.47464 C 256.827017 10.323139 257.721083 9.915582 258.529797 9.885708 Q 258.642889 9.881441 258.681297 9.988131 Q 258.717572 10.08842 258.679163 10.235653 Z" style="fill:#316c22;"/>
		<path d="M 258.679163 10.235653 Q 258.802924 13.084288 258.376163 15.476288 Q 258.056091 17.283624 256.841954 19.163509 L 256.227417 19.8698 Q 255.160513 20.068244 254.317658 19.733236 Q 254.153355 19.669222 254.242975 19.517722 Q 254.957801 18.295049 255.61288 17.023299 Q 255.890275 16.483445 255.740909 15.975599 Q 255.563802 15.375999 255.563802 15.369597 Q 255.262935 13.406493 256.803545 11.917094 Q 257.910992 10.848056 258.679163 10.235653 Z" style="fill:#578626;"/>
		<path d="M 243.06395 10.624006 C 243.281598 12.309715 244.465862 13.888734 245.575443 15.126343 Q 247.256884 17.001961 248.916988 18.843438 C 249.006608 18.943727 249.173045 18.89465 249.196517 18.762353 L 249.241327 18.506296 Q 249.237059 18.764487 249.328813 18.869044 Q 249.401362 18.954396 249.469644 18.864776 L 251.067867 16.769376 C 251.093473 16.735235 251.138283 16.724566 251.174558 16.741636 Q 251.274847 16.78858 251.257776 16.931545 Q 250.931303 19.786582 251.417812 21.401875 Q 251.908588 23.027837 252.185983 23.870692 Q 253.327571 27.325328 251.693073 30.500436 Q 251.565045 30.750092 251.597052 30.944268 Q 251.633326 31.159783 251.754954 31.396636 L 251.569312 31.48839 C 251.469023 31.537467 251.351664 31.46065 251.360199 31.349692 C 251.742151 26.503812 249.815321 20.921768 243.672085 22.366357 Q 241.721784 22.825126 237.091419 24.062735 C 234.932004 24.638863 232.535737 24.993075 230.256829 25.507323 Q 230.715598 25.131773 231.330135 25.129639 Q 231.438959 25.129639 231.53498 25.082695 Q 231.974545 24.862913 232.326624 24.852244 C 232.535737 24.845843 232.689371 24.651666 232.646695 24.44682 Q 232.561343 24.034995 231.665143 24.118214 Q 231.492304 24.13315 231.596861 23.996587 L 231.643805 23.932572 Q 231.701418 23.860023 231.791038 23.842952 Q 232.808864 23.644508 233.598374 23.119591 C 233.73067 23.032105 233.713599 22.833661 233.5685 22.769646 Q 233.261232 22.630949 232.983837 22.558399 Q 232.399173 22.404765 232.983837 22.253265 Q 234.432693 21.875581 235.542274 21.064733 Q 237.149032 19.889004 238.288486 19.206186 C 238.444254 19.112298 238.457057 18.892516 238.314091 18.781558 L 237.915069 18.478557 C 237.848921 18.429479 237.868125 18.324923 237.947076 18.299317 Q 240.701823 17.420188 243.407493 18.440148 C 243.759572 18.574578 244.220474 18.689804 244.640835 18.723945 C 244.777398 18.736748 244.881955 18.602318 244.835011 18.472155 Q 244.346369 17.10225 242.865506 16.176177 Q 243.317873 16.248726 243.437366 16.363952 Q 243.808649 16.720298 243.620874 16.240191 Q 243.309338 15.446414 243.029809 14.475531 Q 242.477152 12.559371 243.06395 10.624006 Z" style="fill:#65962a;"/>
		<path d="M 242.865506 16.176177 Q 244.346369 17.10225 244.835011 18.472155 C 244.881955 18.602318 244.777398 18.736748 244.640835 18.723945 C 244.220474 18.689804 243.759572 18.574578 243.407493 18.440148 Q 240.701823 17.420188 237.947076 18.299317 C 237.868125 18.324923 237.848921 18.429479 237.915069 18.478557 L 238.314091 18.781558 C 238.457057 18.892516 238.444254 19.112298 238.288486 19.206186 Q 237.149032 19.889004 235.542274 21.064733 Q 234.432693 21.875581 232.983837 22.253265 Q 232.399173 22.404765 232.983837 22.558399 Q 233.261232 22.630949 233.5685 22.769646 C 233.713599 22.833661 233.73067 23.032105 233.598374 23.119591 Q 232.808864 23.644508 231.791038 23.842952 Q 231.701418 23.860023 231.643805 23.932572 L 231.596861 23.996587 Q 231.492304 24.13315 231.665143 24.118214 Q 232.561343 24.034995 232.646695 24.44682 C 232.689371 24.651666 232.535737 24.845843 232.326624 24.852244 Q 231.974545 24.862913 231.53498 25.082695 Q 231.438959 25.129639 231.330135 25.129639 Q 230.715598 25.131773 230.256829 25.507323 L 229.066164 25.895677 C 228.944536 25.934085 228.816508 25.857268 228.79517 25.731373 L 228.667141 24.952533 L 228.643669 22.959555 C 228.748226 22.406899 228.786635 21.824369 228.938135 21.316523 Q 229.401172 19.754575 230.376322 18.610853 Q 232.094038 16.596537 234.727159 15.689669 C 236.688129 15.015385 238.668304 14.793469 240.62714 15.326921 Q 241.753791 15.63419 242.865506 16.176177 Z" style="fill:#316c22;"/>
		<path d="M 259.972252 19.050418 Q 260.258182 19.212587 260.680676 19.097361 L 261.653693 19.086692 L 261.850004 19.082425 L 262.103927 19.065354 Q 262.35785 19.050418 262.321575 19.300073 Q 261.602482 24.359334 257.607991 27.391477 Q 255.845465 28.729375 253.833283 29.557293 Q 254.221637 27.109814 254.535307 24.647398 Q 254.829772 22.321547 256.227417 19.8698 L 256.841954 19.163509 L 259.972252 19.050418 Z" style="fill:#82b12d;"/>
		<path d="M 260.680676 19.097361 Q 260.258182 19.212587 259.972252 19.050418 L 260.680676 19.097361 Z" style="fill:#4a7c23;"/>
		<path d="M 261.850004 19.082425 L 261.653693 19.086692 L 261.850004 19.082425 Z" style="fill:#316c22;"/>
		<path d="M 228.643669 22.959555 L 228.667141 24.952533 L 228.643669 22.959555 Z" style="fill:#65962a;"/>
		<path d="M 246.825855 39.515779 Q 244.568285 39.910533 242.216828 39.622469 Q 241.777263 36.818644 241.096578 34.533335 C 240.471372 32.435801 239.466348 30.451359 238.113513 28.62055 Q 237.63554 27.971873 237.176771 27.216504 Q 237.0082 26.939109 237.296264 26.789742 Q 237.388018 26.740665 237.63554 26.689453 Q 241.728186 25.827395 243.407493 25.53933 C 244.365573 25.375027 245.863507 25.317414 246.740503 25.912747 Q 247.907696 26.70439 248.185091 28.18312 Q 248.287514 28.725107 248.229901 30.201703 Q 248.19576 31.127776 247.99945 32.201082 Q 247.495871 34.94516 247.022165 37.480125 C 246.930412 37.966633 246.902672 38.719868 246.708496 39.330137 Q 246.676488 39.428293 246.825855 39.515779 Z" style="fill:#316c22;"/>
		<path d="M 295.788234 33.699016 Q 294.286033 35.216154 292.886254 36.746095 Q 289.11368 40.872881 289.6514 46.418651 Q 289.745287 47.393801 290.041887 50.511296 Q 290.157112 51.727567 290.022682 52.958775 Q 289.971471 53.421811 290.244599 53.044127 Q 291.031974 51.951617 291.386186 51.411763 Q 291.733997 50.884713 293.577608 49.444392 Q 294.177208 48.974954 294.113194 48.339079 Q 293.754714 44.835364 295.350803 41.664524 Q 296.074165 40.228471 296.8338 38.907643 C 297.205083 38.261099 297.422732 37.631625 297.772676 37.049096 Q 297.919909 36.801574 297.924177 36.449495 Q 297.951916 34.360496 297.298971 32.433667 Q 299.565076 30.59219 302.748719 30.242245 Q 304.297864 30.071541 307.204112 29.689589 Q 311.860083 29.075052 316.336814 26.860158 Q 316.490448 26.785475 316.592871 26.808947 C 316.686758 26.832419 316.740104 26.932708 316.705963 27.024461 Q 314.887958 31.701771 313.242791 36.6202 Q 312.820297 37.885549 311.71285 40.535739 Q 310.48591 43.473994 308.347833 46.179664 C 306.817892 48.112895 304.718224 49.768731 302.266478 50.39607 Q 302.119245 50.434479 301.929336 50.590247 C 300.469811 51.791581 298.7777 52.378379 296.897815 52.476534 Q 295.579121 52.54695 294.179342 51.960152 C 294.055581 51.906807 293.921151 52.004962 293.93182 52.139392 L 294.002236 52.948106 C 294.008637 53.020655 293.972363 53.091071 293.910482 53.12948 Q 290.361958 55.26969 287.252998 57.787584 Q 287.161245 57.862268 287.092963 58.009501 Q 287.050287 58.028705 287.003343 58.02017 Q 286.898786 58.005233 286.875314 57.90281 Q 286.514701 56.387806 286.002586 54.934682 C 285.3155 52.990782 283.501762 52.623767 281.803251 53.517833 C 279.460328 54.749041 278.323008 56.622525 277.132343 58.912102 C 277.027786 59.11268 276.812272 59.230039 276.586088 59.210835 Q 276.276686 59.185229 276.103847 59.373004 Q 276.007826 59.477561 275.903269 59.804034 Q 275.736832 60.328951 275.423162 60.593543 Q 275.969417 58.615502 276.963772 56.842307 C 277.966662 55.058443 279.317363 53.385537 281.297538 52.532013 Q 282.556485 51.987892 283.525234 52.056174 Q 284.747907 52.141526 285.050908 52.162864 Q 285.616367 52.199139 285.213077 51.80225 Q 283.559375 50.174154 282.56502 49.094447 Q 282.170266 48.665551 281.628278 47.423675 Q 279.73559 43.092042 281.079889 38.423269 Q 281.429834 37.211265 282.255618 36.302263 C 282.776267 35.728268 283.160353 35.386859 283.467622 34.712575 Q 284.028813 33.481367 284.065088 33.408818 Q 285.688917 30.193168 288.706122 28.560804 Q 291.341376 27.135419 294.725597 26.478206 C 294.906971 26.444065 295.077676 26.574228 295.090479 26.757735 C 295.126753 27.25918 295.137422 28.038021 295.252648 28.667494 C 295.408416 29.514616 295.760495 30.773564 295.749826 31.755116 Q 295.739157 32.602238 295.570586 33.51124 Q 295.536445 33.696882 295.788234 33.699016 Z" style="fill:#82b12d;"/>
		<path d="M 207.164749 40.13245 Q 207.632053 40.734184 208.075885 41.31458 C 208.564528 41.956856 208.972085 42.742098 208.978487 43.550811 C 208.995557 45.844656 207.474151 47.660527 205.67535 49.026165 Q 203.733584 50.504895 201.99453 51.864131 Q 199.63027 49.019764 198.01711 46.678975 Q 192.535355 38.730537 191.88241 28.949157 Q 191.85467 28.543733 191.878142 28.046556 Q 191.89948 27.609125 191.912283 27.139687 Q 191.984832 27.00099 192.157671 26.840954 C 192.281432 26.725728 192.484144 26.774806 192.539623 26.934841 Q 192.872497 27.895055 193.19897 28.509592 Q 194.93589 31.784989 197.05903 34.040425 C 199.619601 36.761031 202.828849 38.244029 206.287754 39.677948 Q 206.520339 39.77397 207.164749 40.13245 Z" style="fill:#65962a;"/>
		<path d="M 201.99453 51.864131 C 199.807376 53.844306 198.646584 56.261911 199.203508 59.050799 Q 199.547051 60.770649 200.686505 62.430753 Q 199.278191 62.605725 198.002174 62.742289 Q 197.773856 62.765761 197.323622 62.385943 Q 194.203994 59.744287 191.803459 56.797497 Q 189.793411 54.330814 187.998877 50.64786 C 185.909878 46.358904 184.61679 41.190819 185.551399 36.475101 Q 186.276894 32.815619 188.694499 29.888033 Q 189.070049 29.433532 189.725129 28.951291 Q 190.096412 28.678163 190.843245 28.106303 Q 191.366028 27.703013 191.912283 27.139687 Q 191.89948 27.609125 191.878142 28.046556 Q 191.85467 28.543733 191.88241 28.949157 Q 192.535355 38.730537 198.01711 46.678975 Q 199.63027 49.019764 201.99453 51.864131 Z" style="fill:#82b12d;"/>
		<path d="M 297.298971 32.433667 Q 297.951916 34.360496 297.924177 36.449495 Q 297.919909 36.801574 297.772676 37.049096 C 297.422732 37.631625 297.205083 38.261099 296.8338 38.907643 Q 296.074165 40.228471 295.350803 41.664524 Q 293.754714 44.835364 294.113194 48.339079 Q 294.177208 48.974954 293.577608 49.444392 Q 291.733997 50.884713 291.386186 51.411763 Q 291.031974 51.951617 290.244599 53.044127 Q 289.971471 53.421811 290.022682 52.958775 Q 290.157112 51.727567 290.041887 50.511296 Q 289.745287 47.393801 289.6514 46.418651 Q 289.11368 40.872881 292.886254 36.746095 Q 294.286033 35.216154 295.788234 33.699016 L 297.298971 32.433667 Z" style="fill:#316c22;"/>
		<path d="M 260.360605 38.276036 Q 258.657825 38.532093 257.138553 39.394152 L 252.02168 40.580549 Q 249.966822 41.549299 247.694315 42.02087 Q 246.791714 42.206512 245.886979 42.159568 C 244.760328 42.104089 243.418162 41.513024 242.449413 41.312446 Q 240.016871 40.806733 237.52885 41.468214 C 229.644426 43.557213 228.073942 51.725433 229.200593 58.649643 Q 229.731912 61.910103 231.727023 64.600836 Q 232.0727 65.06814 233.182281 66.331355 Q 232.640293 67.265964 232.563476 68.367009 C 232.550673 68.537714 232.452518 68.68708 232.303152 68.766031 Q 230.640915 69.636625 229.330756 71.236982 C 229.24327 71.345806 229.072565 71.337271 228.995748 71.219911 C 228.402549 70.306641 227.598103 69.024222 226.736044 68.187769 Q 225.028997 66.531933 223.940755 65.866185 Q 221.113458 64.142067 217.904209 63.403769 C 217.712166 63.358959 217.5628 63.207459 217.524391 63.013282 Q 216.410543 57.433372 217.323813 51.866265 C 217.827392 48.787178 219.169558 45.458437 221.247888 43.0515 Q 223.656958 40.262612 227.1372 39.035672 Q 227.691991 39.031404 228.180633 38.732671 Q 230.606774 38.113866 233.158809 38.346451 Q 234.816779 38.500086 236.466213 38.762544 Q 238.911558 39.153031 241.369706 39.473103 Q 241.694045 39.513645 242.216828 39.622469 Q 244.568285 39.910533 246.825855 39.515779 Q 251.176691 38.777481 255.565936 38.335782 Q 256.639242 38.226958 260.360605 38.276036 Z" style="fill:#cd0812;"/>
		<path d="M 260.360605 38.276036 Q 262.338646 38.408332 263.461029 38.852164 Q 266.742827 40.153788 268.842495 43.106979 Q 270.786395 45.840388 271.682595 48.893869 Q 272.642809 52.167132 272.790042 55.820213 C 272.809246 56.287517 272.427294 56.705743 272.015469 57.43764 Q 271.522559 58.312501 270.483394 58.837418 Q 270.677571 55.235549 269.956344 51.815053 C 268.993996 47.248702 266.429157 42.477506 262.007905 40.443986 Q 259.763138 39.411222 257.138553 39.394152 Q 258.657825 38.532093 260.360605 38.276036 Z" style="fill:#eb4226;"/>
		<path d="M 228.180633 38.732671 Q 227.691991 39.031404 227.1372 39.035672 Q 227.619441 38.794551 228.180633 38.732671 Z" style="fill:#578626;"/>
		<path d="M 270.483394 58.837418 Q 269.826181 59.119081 269.002531 59.490364 Q 264.948294 61.319038 262.029243 64.846224 Q 263.535713 59.070004 262.991591 53.259642 C 262.573365 48.795714 260.567584 44.105602 256.349044 41.969659 Q 254.718814 41.146009 252.77278 40.781127 Q 252.640484 40.755522 252.388695 40.753388 Q 252.06649 40.751254 252.02168 40.580549 L 257.138553 39.394152 Q 259.763138 39.411222 262.007905 40.443986 C 266.429157 42.477506 268.993996 47.248702 269.956344 51.815053 Q 270.677571 55.235549 270.483394 58.837418 Z" style="fill:#f9722b;"/>
		<path d="M 213.395471 59.652533 Q 213.301583 60.081429 213.410408 60.307613 L 213.694204 62.3454 Q 213.734747 62.631331 213.446682 62.603591 Q 208.98062 62.164026 204.354523 62.294189 Q 202.446897 62.347534 200.686505 62.430753 Q 199.547051 60.770649 199.203508 59.050799 C 198.646584 56.261911 199.807376 53.844306 201.99453 51.864131 Q 203.733584 50.504895 205.67535 49.026165 C 207.474151 47.660527 208.995557 45.844656 208.978487 43.550811 C 208.972085 42.742098 208.564528 41.956856 208.075885 41.31458 Q 207.632053 40.734184 207.164749 40.13245 C 210.36973 41.568503 212.755328 44.218694 214.165776 47.378865 C 214.377023 47.854704 214.285269 48.176909 214.170044 48.648481 Q 212.834279 54.100363 213.395471 59.652533 Z" style="fill:#4a7c23;"/>
		<path d="M 252.02168 40.580549 Q 252.06649 40.751254 252.388695 40.753388 Q 252.640484 40.755522 252.77278 40.781127 Q 254.718814 41.146009 256.349044 41.969659 C 260.567584 44.105602 262.573365 48.795714 262.991591 53.259642 Q 263.535713 59.070004 262.029243 64.846224 Q 261.009283 66.610884 260.768162 68.719087 Q 260.518507 70.901974 260.629465 73.076325 Q 260.439556 73.509488 260.631599 73.912778 L 260.72762 76.575772 C 260.729754 76.644054 260.699881 76.708068 260.648669 76.752878 Q 260.467295 76.906512 260.27952 76.767815 Q 260.198435 76.705934 260.138689 76.567237 C 259.287299 74.610534 258.026218 72.628225 256.210347 71.345806 Q 256.112191 71.27539 256.10579 71.155897 Q 256.037508 70.035647 255.977761 69.649428 Q 255.674761 67.699127 254.26858 66.764518 Q 252.924281 65.868319 251.300452 65.699748 Q 250.90143 65.659205 250.912099 65.260183 C 250.96331 63.19679 250.888627 61.065115 248.803896 60.008879 Q 248.334458 59.769893 246.975222 59.705879 C 244.248214 59.579984 242.498491 61.167538 242.007715 63.798524 C 241.999179 63.847602 241.947968 63.877475 241.89889 63.864672 Q 236.72227 62.385943 233.182281 66.331355 Q 232.0727 65.06814 231.727023 64.600836 Q 229.731912 61.910103 229.200593 58.649643 C 228.073942 51.725433 229.644426 43.557213 237.52885 41.468214 Q 240.016871 40.806733 242.449413 41.312446 C 243.418162 41.513024 244.760328 42.104089 245.886979 42.159568 Q 246.791714 42.206512 247.694315 42.02087 Q 249.966822 41.549299 252.02168 40.580549 Z" style="fill:#eb4226;"/>
		<path d="M 287.092963 58.009501 L 287.016146 58.694453 Q 287.003343 58.81608 286.879582 58.826749 L 285.364578 58.956912 Q 285.07438 58.982517 284.980492 58.707256 L 284.141905 56.257643 C 284.097095 56.131749 283.951996 56.072002 283.834637 56.133882 C 282.402851 56.865779 280.870776 58.135395 280.260507 59.648266 Q 280.217831 59.754956 280.31812 59.808301 C 280.719276 60.017415 281.314608 60.130507 281.756307 60.375895 Q 283.561509 61.378785 284.871668 62.548112 C 286.589384 64.078053 287.937951 66.365496 288.610101 68.475833 Q 289.047532 69.85214 289.397476 71.781103 C 289.647132 73.163811 289.873316 75.10131 290.253134 76.74861 Q 290.539064 77.999022 290.667093 78.376706 Q 291.682786 81.389645 293.345023 84.182801 Q 294.115328 85.480156 296.582011 89.195118 C 297.343781 90.343107 297.887902 91.348131 298.58139 92.660423 C 298.982546 93.420059 299.242871 94.162625 299.626956 95.122839 Q 300.689593 97.779431 301.133425 100.61953 C 301.436426 102.56343 301.481236 105.094128 301.30413 106.860922 Q 301.101418 108.892308 300.49755 111.228828 C 298.884391 117.474487 294.546357 122.715122 288.868292 125.815546 Q 287.880338 126.353266 286.809166 126.897387 Q 283.542305 128.559624 279.833745 129.227506 Q 279.140257 129.18483 278.775376 129.003456 Q 276.278819 127.770115 269.973414 124.353887 C 269.134827 123.899386 268.200219 123.412877 267.506731 122.747129 Q 267.496062 122.640438 267.440583 122.540149 Q 267.594217 121.550062 267.747851 120.56851 Q 268.225825 117.544903 267.692372 114.531965 C 267.00742 110.667637 264.916287 107.304754 262.543491 103.316665 Q 261.679299 101.863541 261.037022 100.290924 C 259.852758 97.391078 259.632976 93.539553 261.039156 90.690918 Q 262.889168 86.946083 267.14185 87.057041 Q 268.174613 87.082647 269.043073 87.323767 Q 269.341807 87.406986 269.064411 87.547817 Q 265.754874 89.212188 265.532958 92.907945 C 265.249161 97.670607 268.99613 100.995081 271.603644 104.539337 C 275.194844 109.417225 276.820807 115.285199 276.748257 121.366554 Q 276.703447 124.110633 276.255347 126.993409 C 276.242545 127.080895 276.321495 127.155578 276.408982 127.136374 C 283.320389 125.559489 289.442286 121.686626 292.813704 115.265995 C 294.977387 111.14561 295.96534 106.370145 295.376409 101.703505 Q 294.612505 95.660559 291.778807 90.486072 Q 291.055446 89.167378 288.375382 84.396181 Q 287.489851 82.817163 286.625659 79.977063 C 285.774269 77.040942 285.469134 73.345185 285.125591 70.970256 C 284.703097 68.068276 283.343861 64.837689 280.71074 63.378164 Q 279.955372 62.957803 279.729188 62.962071 C 279.172264 62.970606 278.651615 63.557404 278.250459 63.932954 Q 277.027786 64.634977 276.024896 63.781454 Q 275.083886 62.981275 275.237521 61.71806 L 275.423162 60.593543 Q 275.736832 60.328951 275.903269 59.804034 Q 276.007826 59.477561 276.103847 59.373004 Q 276.276686 59.185229 276.586088 59.210835 C 276.812272 59.230039 277.027786 59.11268 277.132343 58.912102 C 278.323008 56.622525 279.460328 54.749041 281.803251 53.517833 C 283.501762 52.623767 285.3155 52.990782 286.002586 54.934682 Q 286.514701 56.387806 286.875314 57.90281 Q 286.898786 58.005233 287.003343 58.02017 Q 287.050287 58.028705 287.092963 58.009501 Z" style="fill:#316c22;"/>
		<path d="M 303.947919 76.289841 C 301.963477 75.988974 299.861675 75.882284 298.015931 75.148254 Q 297.478211 74.934873 295.690079 73.861567 Q 294.42473 73.101931 293.065494 72.521535 L 292.860648 71.853653 C 293.955292 70.867833 295.256916 70.458142 296.701504 70.22769 C 296.870075 70.199951 296.925554 69.984436 296.78899 69.879879 L 296.411306 69.591815 C 296.272609 69.485125 296.259806 69.282413 296.383567 69.16292 Q 296.895681 68.663608 297.836691 67.985057 C 298.705151 67.357717 299.321822 66.871209 300.262831 67.483612 C 300.523156 67.654317 300.612776 67.592436 300.909375 67.507084 Q 301.013932 67.477211 300.94565 67.391858 Q 300.881636 67.315041 300.828291 67.287302 Q 300.713065 67.225421 300.757875 67.103794 Q 300.958453 66.56394 301.434292 66.482856 C 302.206731 66.348426 302.921557 66.254538 303.661989 65.940868 C 304.605132 65.539712 304.944408 65.328465 305.778727 65.189767 Q 306.352722 65.093746 308.428918 64.820619 Q 309.293111 64.705393 310.142367 63.862538 Q 310.219184 63.785721 310.118895 63.743045 C 308.388376 62.998346 306.779484 63.239466 304.946542 63.472051 C 304.344808 63.548868 303.433671 63.501925 302.669768 63.819862 C 299.605618 65.09588 297.132534 66.717575 294.461005 68.633735 Q 294.27323 68.770299 294.147335 68.571855 C 293.06336 66.845603 291.866293 65.450092 291.328574 63.346157 Q 292.442422 60.870938 294.798147 59.304723 C 296.078432 58.453333 297.211485 57.99243 298.905729 57.273336 Q 301.963477 55.978114 304.976415 55.423324 Q 307.336408 54.988027 310.007937 55.222746 C 313.052882 55.491606 315.643326 56.727081 318.602919 58.084184 Q 318.835504 58.190874 318.797096 58.444798 C 318.756553 58.730728 318.647729 59.12975 318.47489 59.432751 Q 317.450662 61.229418 317.047372 61.76287 C 314.602027 64.991323 312.284711 67.300104 309.030652 70.603241 Q 307.865592 71.787505 306.901111 73.240628 Q 306.081728 74.476104 305.627227 74.945542 Q 304.859056 75.739319 303.947919 76.289841 Z" style="fill:#82b12d;"/>
		<path d="M 188.489653 59.183095 Q 188.677429 59.507434 189.159669 59.831773 Q 189.247156 59.89152 189.255691 59.99821 C 189.422128 62.153357 189.620572 64.368251 190.004658 66.352693 C 190.109214 66.896815 190.384476 67.041914 190.894456 66.990702 Q 191.188922 66.960829 191.244401 67.253161 C 191.52393 68.736158 192.432932 70.295972 193.26085 71.531448 C 193.348336 71.66161 193.508372 71.721357 193.657739 71.680814 L 196.81791 70.825157 C 196.999283 70.776079 197.0761 70.562698 196.96941 70.40693 C 196.482902 69.700639 196.054006 68.928201 196.036936 68.017064 Q 196.681346 68.349938 197.364165 68.322199 Q 200.197863 68.211241 203.101977 68.424622 C 203.244942 68.435291 203.326027 68.593193 203.253477 68.716954 Q 202.903533 69.308019 202.329538 69.845738 C 200.116778 71.911266 197.669299 73.624714 194.588079 74.343808 Q 191.45138 75.07357 187.753489 74.994619 C 187.544376 74.990352 187.437686 74.74283 187.578517 74.589196 Q 188.963359 73.069924 189.422128 72.527936 Q 189.814749 72.067034 189.492544 71.377813 C 189.46267 71.313799 189.4456 71.245517 189.443466 71.175101 C 189.434931 70.925446 189.539487 70.671523 189.22155 70.445339 Q 189.383719 70.556297 189.481875 70.424001 Q 189.543755 70.338648 189.496811 70.244761 C 188.671027 68.582524 186.974649 68.102417 185.235595 68.01493 Q 181.731881 67.842092 179.124366 65.635734 Q 178.379667 65.00626 176.939346 63.516861 Q 176.149837 62.699612 174.703114 61.805547 Q 173.422829 61.016037 171.566415 60.892276 Q 171.44052 60.883741 171.446922 60.757846 Q 171.459725 60.476184 171.730718 60.316148 C 172.379396 59.934196 173.258526 59.47116 174.092845 59.215103 C 174.464128 59.102011 174.833276 58.920637 175.172552 58.81608 Q 177.291424 58.161001 179.713297 57.817458 Q 180.643638 57.685162 181.522767 57.697964 C 182.226924 57.708633 183.127392 57.670225 183.931838 57.783317 Q 186.347309 58.12686 188.489653 59.183095 Z" style="fill:#65962a;"/>
		<path d="M 188.489653 59.183095 Q 191.750113 61.060847 193.783633 63.926553 Q 194.720375 65.24738 195.834224 67.379055 L 196.036936 68.017064 C 196.054006 68.928201 196.482902 69.700639 196.96941 70.40693 C 197.0761 70.562698 196.999283 70.776079 196.81791 70.825157 L 193.657739 71.680814 C 193.508372 71.721357 193.348336 71.66161 193.26085 71.531448 C 192.432932 70.295972 191.52393 68.736158 191.244401 67.253161 Q 191.188922 66.960829 190.894456 66.990702 C 190.384476 67.041914 190.109214 66.896815 190.004658 66.352693 C 189.620572 64.368251 189.422128 62.153357 189.255691 59.99821 Q 189.247156 59.89152 189.159669 59.831773 Q 188.677429 59.507434 188.489653 59.183095 Z" style="fill:#82b12d;"/>
		<path d="M 213.410408 60.307613 Q 213.301583 60.081429 213.395471 59.652533 L 213.410408 60.307613 Z" style="fill:#316c22;"/>
		<path d="M 275.237521 61.71806 Q 275.083886 62.981275 276.024896 63.781454 Q 277.027786 64.634977 278.250459 63.932954 Q 279.539279 64.70966 280.068464 65.91953 C 281.487447 69.156518 280.54217 73.142473 280.88998 76.723005 Q 281.118298 79.080863 281.74137 81.378976 Q 282.524478 84.146526 283.503896 85.804495 Q 284.888738 88.149551 285.936438 89.944085 C 288.287896 93.968448 289.796499 98.308615 289.777294 103.045671 C 289.751689 109.511112 286.787828 115.069684 281.65175 118.921209 Q 279.392047 120.61332 276.748257 121.366554 C 276.820807 115.285199 275.194844 109.417225 271.603644 104.539337 C 268.99613 100.995081 265.249161 97.670607 265.532958 92.907945 Q 265.754874 89.212188 269.064411 87.547817 Q 269.341807 87.406986 269.043073 87.323767 Q 268.174613 87.082647 267.14185 87.057041 Q 262.889168 86.946083 261.039156 90.690918 C 259.632976 93.539553 259.852758 97.391078 261.037022 100.290924 Q 261.679299 101.863541 262.543491 103.316665 C 264.916287 107.304754 267.00742 110.667637 267.692372 114.531965 Q 268.225825 117.544903 267.747851 120.56851 Q 267.594217 121.550062 267.440583 122.540149 Q 267.282681 122.768467 266.981814 122.604164 Q 263.43329 120.679468 260.719085 117.389135 C 257.674139 113.704047 256.306368 108.93285 256.304234 104.153118 C 256.299967 100.162895 256.758735 96.104391 258.91815 92.728705 Q 259.283031 92.158978 259.716195 91.508166 Q 259.78661 91.401476 259.660716 91.399342 L 255.804923 91.339596 Q 256.995588 89.438372 258.211859 88.064199 Q 260.418218 85.57191 261.995103 83.363418 Q 263.510107 81.240278 263.909129 78.176128 Q 264.01582 77.363147 263.830178 74.668147 Q 263.668009 72.340161 263.847249 70.552029 C 264.284679 66.194791 268.509621 62.947134 272.46997 61.989054 Q 273.620093 61.709525 275.237521 61.71806 Z" style="fill:#a7cc48;"/>
		<path d="M 245.829366 78.146255 L 242.543301 78.276417 Q 242.711871 77.523183 242.865506 76.769948 Q 243.027675 75.980439 243.089556 75.25281 Q 243.279465 73.010177 243.298669 71.089749 Q 243.298669 70.940382 243.149302 70.942516 Q 242.312849 70.955319 241.864749 70.921178 Q 241.531875 70.897706 241.160592 70.722734 Q 240.7445 70.528557 240.437231 70.464543 Q 238.132718 69.992971 236.028782 69.203462 C 235.868746 69.141582 235.69164 69.109574 235.516668 69.122377 Q 235.399308 69.130913 235.37797 69.013553 Q 235.281949 68.471566 235.54014 68.482235 Q 236.534495 67.21902 237.906534 66.677032 C 238.751522 66.374031 239.38313 66.561807 240.245188 66.81573 C 241.952235 67.321443 242.765217 68.966609 243.134366 70.592572 Q 243.21545 70.953185 243.283732 70.590438 Q 243.475775 69.585414 243.488578 69.039159 C 243.51205 68.057607 243.70836 67.374788 243.864128 66.29508 Q 243.987889 65.430888 244.293024 64.856893 Q 244.96304 63.454981 245.961662 62.868183 C 246.851461 62.669739 248.116809 62.795634 248.219232 63.967095 Q 248.362197 65.610128 247.643104 67.255294 Q 246.746904 69.310152 246.25186 70.481614 C 246.044881 70.965988 245.833634 71.644539 245.750415 72.229203 C 245.637323 73.04005 245.381266 73.889306 245.306583 74.546519 Q 245.106005 76.338919 245.261773 77.40369 Q 245.317252 77.783508 245.829366 78.146255 Z" style="fill:#316c22;"/>
		<path d="M 245.961662 62.868183 Q 244.96304 63.454981 244.293024 64.856893 Q 244.431721 63.839066 245.138012 63.201058 Q 245.530633 62.844711 245.961662 62.868183 Z" style="fill:#578626;"/>
		<path d="M 286.625659 79.977063 L 281.74137 81.378976 Q 281.118298 79.080863 280.88998 76.723005 C 280.54217 73.142473 281.487447 69.156518 280.068464 65.91953 Q 279.539279 64.70966 278.250459 63.932954 C 278.651615 63.557404 279.172264 62.970606 279.729188 62.962071 Q 279.955372 62.957803 280.71074 63.378164 C 283.343861 64.837689 284.703097 68.068276 285.125591 70.970256 C 285.469134 73.345185 285.774269 77.040942 286.625659 79.977063 Z" style="fill:#82b12d;"/>
		<path d="M 292.860648 71.853653 Q 292.668605 70.959587 292.386943 70.024978 Q 291.738265 67.876233 291.177073 65.704015 Q 290.848466 64.434399 291.328574 63.346157 C 291.866293 65.450092 293.06336 66.845603 294.147335 68.571855 Q 294.27323 68.770299 294.461005 68.633735 C 297.132534 66.717575 299.605618 65.09588 302.669768 63.819862 C 303.433671 63.501925 304.344808 63.548868 304.946542 63.472051 C 306.779484 63.239466 308.388376 62.998346 310.118895 63.743045 Q 310.219184 63.785721 310.142367 63.862538 Q 309.293111 64.705393 308.428918 64.820619 Q 306.352722 65.093746 305.778727 65.189767 C 304.944408 65.328465 304.605132 65.539712 303.661989 65.940868 C 302.921557 66.254538 302.206731 66.348426 301.434292 66.482856 Q 300.958453 66.56394 300.757875 67.103794 Q 300.713065 67.225421 300.828291 67.287302 Q 300.881636 67.315041 300.94565 67.391858 Q 301.013932 67.477211 300.909375 67.507084 C 300.612776 67.592436 300.523156 67.654317 300.262831 67.483612 C 299.321822 66.871209 298.705151 67.357717 297.836691 67.985057 Q 296.895681 68.663608 296.383567 69.16292 C 296.259806 69.282413 296.272609 69.485125 296.411306 69.591815 L 296.78899 69.879879 C 296.925554 69.984436 296.870075 70.199951 296.701504 70.22769 C 295.256916 70.458142 293.955292 70.867833 292.860648 71.853653 Z" style="fill:#65962a;"/>
		<path d="M 202.052143 66.273742 Q 201.934783 66.335623 201.789684 66.303616 L 202.052143 66.273742 Z" style="fill:#578626;"/>
		<path d="M 212.678511 66.527666 L 211.592402 66.672765 Q 211.571064 66.677032 211.547592 66.715441 Q 211.53479 66.736779 211.55186 66.777321 Q 211.571064 66.830667 211.626543 66.845603 C 214.782447 67.682056 217.449708 69.911887 217.923413 73.285438 Q 218.352309 76.338919 217.590539 79.441477 Q 216.310254 84.65864 213.732613 89.540795 Q 212.584624 89.491717 211.182711 89.572802 Q 207.898779 89.758443 205.248589 91.655399 C 205.158969 91.719414 205.073616 91.715146 204.975461 91.691674 Q 205.050144 91.378004 205.024539 91.175292 Q 204.653256 88.175157 205.402223 85.232634 C 205.61347 84.402583 205.037341 84.067575 204.401466 83.751771 L 204.380128 83.664285 C 204.350255 83.534123 204.446276 83.408228 204.580706 83.40396 Q 205.481174 83.374087 206.198134 82.994269 C 209.260149 81.374708 212.034101 78.579418 213.184224 75.240007 C 213.239703 75.077838 213.105273 74.913535 212.934568 74.934873 C 212.812941 74.951943 212.6273 74.979683 212.507806 75.054366 C 211.780178 75.502466 211.076021 75.856678 210.502026 76.272771 C 209.56315 76.949188 208.590133 77.589331 207.561637 78.120649 Q 205.508913 79.181152 204.732207 79.548168 Q 201.802487 80.926608 198.424668 81.50487 Q 193.041068 82.430943 188.169582 81.598758 C 186.579894 81.327764 185.022214 80.877531 183.441062 80.841256 C 183.240484 80.836988 183.125258 81.065306 183.246885 81.223208 Q 183.842218 81.991379 184.608255 82.612317 C 187.51877 84.97231 191.338288 86.002939 195.076722 86.032813 C 195.855562 86.039214 196.764564 85.981601 197.323622 86.291004 C 197.936025 86.626012 198.096061 87.340838 198.305174 88.023657 Q 198.424668 88.416277 198.684992 88.604053 C 198.834359 88.712877 199.04774 88.657398 199.124557 88.488827 Q 199.694284 87.253352 200.545674 86.538526 Q 200.682238 87.855086 200.731315 89.152441 Q 200.750519 89.664556 200.539272 90.178804 C 198.77888 90.9107 197.784525 92.577205 197.556207 94.44002 C 197.530602 94.638464 197.41751 94.81557 197.246805 94.922261 C 196.741092 95.233797 195.757407 95.77365 195.123665 96.281497 Q 193.162695 97.854114 191.816262 99.917507 Q 190.973407 99.742535 190.218039 99.642246 Q 186.844487 99.19628 183.912633 97.67274 C 179.645016 95.453579 176.757972 91.384406 175.703871 86.70923 Q 175.499025 85.798094 175.592912 84.711985 Q 175.595046 84.697048 175.58011 84.701316 Q 175.577976 84.701316 175.575842 84.701316 Q 175.573708 84.701316 175.573708 84.70345 Q 175.573708 84.711985 175.571574 84.72052 Q 175.563039 84.741858 175.565173 84.750394 Q 175.607849 85.046993 175.385933 85.125944 Q 175.285644 85.162219 175.242968 85.25824 Q 175.161883 85.439614 175.206693 85.687136 C 175.219496 82.940924 176.111428 80.269395 177.976377 78.246544 C 180.150728 75.886551 182.463777 74.390751 185.758378 72.214266 Q 187.510235 71.055608 189.22155 70.445339 C 189.539487 70.671523 189.434931 70.925446 189.443466 71.175101 C 189.4456 71.245517 189.46267 71.313799 189.492544 71.377813 Q 189.814749 72.067034 189.422128 72.527936 Q 188.963359 73.069924 187.578517 74.589196 C 187.437686 74.74283 187.544376 74.990352 187.753489 74.994619 Q 191.45138 75.07357 194.588079 74.343808 C 197.669299 73.624714 200.116778 71.911266 202.329538 69.845738 Q 202.903533 69.308019 203.253477 68.716954 C 203.326027 68.593193 203.244942 68.435291 203.101977 68.424622 Q 200.197863 68.211241 197.364165 68.322199 Q 196.681346 68.349938 196.036936 68.017064 L 195.834224 67.379055 C 197.112375 66.689835 198.667922 66.47432 200.080503 66.414574 L 200.289617 66.395369 L 201.789684 66.303616 Q 201.934783 66.335623 202.052143 66.273742 L 212.678511 66.527666 Z" style="fill:#eb4226;"/>
		<path d="M 200.289617 66.395369 L 200.080503 66.414574 Q 200.180792 66.3847 200.289617 66.395369 Z" style="fill:#53115e;"/>
		<path d="M 213.732613 89.540795 Q 216.310254 84.65864 217.590539 79.441477 Q 218.352309 76.338919 217.923413 73.285438 C 217.449708 69.911887 214.782447 67.682056 211.626543 66.845603 Q 211.571064 66.830667 211.55186 66.777321 Q 211.53479 66.736779 211.547592 66.715441 Q 211.571064 66.677032 211.592402 66.672765 L 212.678511 66.527666 Q 218.85162 66.941625 223.458514 71.06201 Q 226.266606 73.575636 226.774453 77.337542 Q 226.874742 78.084375 227.043313 80.297134 Q 227.073186 80.698291 226.887545 83.216185 Q 226.757382 84.974444 226.511994 86.113898 C 225.957204 88.689405 225.075941 91.198764 223.541732 93.34751 Q 223.368894 93.590764 223.127773 93.413658 Q 222.15689 92.707367 221.572227 92.29981 C 219.274114 90.697319 216.589783 89.813922 213.732613 89.540795 Z" style="fill:#cd0812;"/>
		<path d="M 237.906534 66.677032 Q 236.534495 67.21902 235.54014 68.482235 Q 236.31898 66.92242 237.906534 66.677032 Z" style="fill:#578626;"/>
		<path d="M 253.084317 71.593328 C 251.812566 71.808843 250.517344 72.312422 249.094094 72.476725 C 248.334458 72.564211 247.246215 72.909888 246.164374 72.890684 C 246.098226 72.88855 246.040613 72.845874 246.021409 72.783993 Q 245.918986 72.442584 246.021409 72.079836 C 246.512185 70.349317 248.13388 68.881257 249.983892 68.783102 C 251.6632 68.693482 253.11419 69.736914 253.173937 71.480236 C 253.17607 71.535715 253.137662 71.582659 253.084317 71.593328 Z" style="fill:#316c22;"/>
		<path d="M 231.095416 77.459169 Q 231.155162 77.361013 231.039937 77.352478 Q 229.88768 77.264992 229.038424 77.499711 Q 228.754627 77.578662 228.850649 77.299133 Q 229.751116 74.676682 231.735558 72.743451 Q 233.583437 70.942516 236.099198 70.598973 Q 239.129206 70.18288 241.452924 71.117489 Q 241.555347 71.158031 241.595889 71.260454 Q 241.70258 71.531448 241.615094 71.949674 C 241.081641 74.459033 239.807758 76.309046 237.804111 78.077973 C 235.941296 79.72314 233.566367 81.385377 231.037803 82.230365 Q 230.220554 82.503493 229.69137 82.430943 C 229.569742 82.413873 229.486524 82.302915 229.503594 82.181288 Q 229.902617 79.479886 231.095416 77.459169 Z" style="fill:#316c22;"/>
		<path d="M 303.947919 76.289841 C 301.946407 77.561591 299.428512 77.962748 297.123998 77.71736 Q 295.335867 77.527451 293.991567 76.155411 Q 293.769651 75.927094 293.677897 75.592086 C 293.400502 74.576393 293.308748 73.53296 293.065494 72.521535 Q 294.42473 73.101931 295.690079 73.861567 Q 297.478211 74.934873 298.015931 75.148254 C 299.861675 75.882284 301.963477 75.988974 303.947919 76.289841 Z" style="fill:#65962a;"/>
		<path d="M 258.105169 82.637923 Q 257.910992 82.610183 257.853379 82.659261 Q 256.513347 81.961505 255.004745 81.970041 C 254.919392 81.970041 254.861779 82.059661 254.89592 82.138612 Q 254.987674 82.351992 255.006878 82.556838 Q 255.166914 84.231878 254.765758 85.738347 C 254.71668 85.928256 254.522504 86.041348 254.334729 85.990137 L 253.11419 85.670065 Q 252.269202 84.142258 251.065733 82.836367 Q 250.982515 82.748881 249.320278 81.248813 Q 247.871421 79.942922 246.898405 78.284953 C 246.591136 77.309802 245.703472 73.84663 246.697826 73.402798 C 247.316631 73.125403 248.225634 72.926959 249.008742 72.901353 Q 249.962554 72.869346 250.365844 72.816 Q 251.010254 72.730648 251.575714 72.93336 C 252.113433 73.125403 252.75571 73.183016 253.346775 73.468946 Q 255.90948 74.700154 257.051067 77.154034 Q 258.211859 79.646323 258.105169 82.637923 Z" style="fill:#316c22;"/>
		<path d="M 260.629465 73.076325 L 260.631599 73.912778 Q 260.439556 73.509488 260.629465 73.076325 Z" style="fill:#578626;"/>
		<path d="M 204.401466 83.751771 L 200.29175 83.480777 C 200.234138 83.47651 200.189328 83.531989 200.204264 83.587468 Q 200.60542 85.021387 200.545674 86.538526 Q 199.694284 87.253352 199.124557 88.488827 C 199.04774 88.657398 198.834359 88.712877 198.684992 88.604053 Q 198.424668 88.416277 198.305174 88.023657 C 198.096061 87.340838 197.936025 86.626012 197.323622 86.291004 C 196.764564 85.981601 195.855562 86.039214 195.076722 86.032813 C 191.338288 86.002939 187.51877 84.97231 184.608255 82.612317 Q 183.842218 81.991379 183.246885 81.223208 C 183.125258 81.065306 183.240484 80.836988 183.441062 80.841256 C 185.022214 80.877531 186.579894 81.327764 188.169582 81.598758 Q 193.041068 82.430943 198.424668 81.50487 Q 201.802487 80.926608 204.732207 79.548168 Q 205.508913 79.181152 207.561637 78.120649 C 208.590133 77.589331 209.56315 76.949188 210.502026 76.272771 C 211.076021 75.856678 211.780178 75.502466 212.507806 75.054366 C 212.6273 74.979683 212.812941 74.951943 212.934568 74.934873 C 213.105273 74.913535 213.239703 75.077838 213.184224 75.240007 C 212.034101 78.579418 209.260149 81.374708 206.198134 82.994269 Q 205.481174 83.374087 204.580706 83.40396 C 204.446276 83.408228 204.350255 83.534123 204.380128 83.664285 L 204.401466 83.751771 Z" style="fill:#65962a;"/>
		<path d="M 245.829366 78.146255 L 246.898405 78.284953 Q 247.871421 79.942922 249.320278 81.248813 Q 250.982515 82.748881 251.065733 82.836367 Q 252.269202 84.142258 253.11419 85.670065 L 253.929305 88.273312 Q 253.841819 88.354397 253.96558 88.469623 L 253.954911 88.60832 Q 253.895164 88.834504 254.006122 88.843039 L 254.176827 89.833126 Q 254.093608 90.119057 254.23444 90.123324 L 254.400877 91.828238 Q 254.388074 91.954133 254.426482 92.039485 Q 254.373137 92.769248 254.595053 93.43713 Q 254.332595 95.995567 253.984784 98.598813 Q 253.737262 100.448826 253.677515 102.179345 C 253.553755 105.742806 254.25151 109.632739 256.261558 112.611537 Q 257.183363 113.979308 260.311527 118.475243 C 261.860673 120.70294 262.953183 123.737216 262.400526 126.491963 C 261.572608 130.857736 257.552512 133.34149 253.814079 134.95465 Q 249.365088 136.872944 244.064706 137.020177 Q 236.289107 137.235691 229.917553 133.230532 Q 227.280165 131.574696 225.741689 129.428084 Q 224.267227 127.373226 224.134931 124.752909 C 224.147734 124.18745 224.12853 123.555842 224.250157 123.056531 C 225.043934 119.832346 226.640023 117.634523 228.652205 114.627986 C 231.093282 110.977039 232.631758 106.80971 232.74485 102.38419 C 232.8174 99.503548 232.392772 96.610104 232.382103 93.748666 C 232.367166 89.374358 233.694395 84.690647 236.666791 81.545413 Q 237.526716 80.634276 238.205267 80.139233 C 239.011847 79.552435 239.969927 78.814137 240.989888 78.583686 Q 241.715383 78.417249 242.543301 78.276417 L 245.829366 78.146255 Z M 236.297642 83.487179 C 234.829581 85.311585 234.259854 88.243439 234.225713 90.586361 Q 234.193706 92.790586 234.251319 96.268694 C 234.321735 100.487234 234.042206 104.831669 232.883548 108.84323 Q 232.467455 110.283551 231.315198 113.710448 Q 230.299505 116.727654 230.177878 120.035058 Q 230.17361 120.137481 230.265364 120.186558 Q 230.384857 120.248439 230.472344 120.376467 Q 229.518531 121.959753 229.277411 122.397184 Q 227.828554 125.028171 229.99437 127.153444 C 231.784636 128.911703 234.650341 129.891121 237.061545 130.360559 Q 241.320628 131.192744 245.690669 130.992166 Q 246.702094 131.696323 247.918365 132.048402 C 251.405009 133.05556 255.228794 132.66934 257.981408 130.34989 C 260.021329 128.632174 260.520641 126.423682 260.256048 123.820435 C 259.931709 120.638926 258.222528 117.822298 256.165537 115.445235 Q 253.632705 112.519783 251.75282 109.191041 C 250.431992 106.848119 249.358686 104.705775 249.083425 102.288169 Q 248.908453 100.75396 249.143172 98.682032 Q 249.478179 95.716038 249.616877 94.853979 C 250.150329 91.550843 250.056442 87.285359 248.121077 84.408984 C 247.384913 81.916695 245.515696 80.478508 242.935921 80.196845 Q 239.42794 79.814894 236.8567 82.60805 Q 236.536629 82.953727 236.297642 83.487179 Z" style="fill:#f19f15;"/>
		<path d="M 286.625659 79.977063 Q 287.489851 82.817163 288.375382 84.396181 Q 291.055446 89.167378 291.778807 90.486072 Q 294.612505 95.660559 295.376409 101.703505 C 295.96534 106.370145 294.977387 111.14561 292.813704 115.265995 C 289.442286 121.686626 283.320389 125.559489 276.408982 127.136374 C 276.321495 127.155578 276.242545 127.080895 276.255347 126.993409 Q 276.703447 124.110633 276.748257 121.366554 Q 279.392047 120.61332 281.65175 118.921209 C 286.787828 115.069684 289.751689 109.511112 289.777294 103.045671 C 289.796499 98.308615 288.287896 93.968448 285.936438 89.944085 Q 284.888738 88.149551 283.503896 85.804495 Q 282.524478 84.146526 281.74137 81.378976 L 286.625659 79.977063 Z" style="fill:#65962a;"/>
		<path d="M 258.105169 82.637923 Q 257.957936 82.742479 257.853379 82.659261 Q 257.910992 82.610183 258.105169 82.637923 Z" style="fill:#4a7c23;"/>
		<path d="M 204.401466 83.751771 C 205.037341 84.067575 205.61347 84.402583 205.402223 85.232634 Q 204.653256 88.175157 205.024539 91.175292 Q 205.050144 91.378004 204.975461 91.691674 C 203.742119 90.294029 202.267658 90.298297 200.539272 90.178804 Q 200.750519 89.664556 200.731315 89.152441 Q 200.682238 87.855086 200.545674 86.538526 Q 200.60542 85.021387 200.204264 83.587468 C 200.189328 83.531989 200.234138 83.47651 200.29175 83.480777 L 204.401466 83.751771 Z" style="fill:#316c22;"/>
		<path d="M 191.816262 99.917507 Q 190.802702 101.458117 190.258581 103.05634 Q 190.203102 103.212108 190.040933 103.184369 Q 183.07618 101.995837 178.742414 96.844823 Q 177.297826 95.127106 176.472042 93.249355 Q 174.910094 89.690161 175.206693 85.687136 Q 175.161883 85.439614 175.242968 85.25824 Q 175.285644 85.162219 175.385933 85.125944 Q 175.607849 85.046993 175.565173 84.750394 Q 175.563039 84.741858 175.571574 84.72052 Q 175.573708 84.711985 175.573708 84.70345 Q 175.573708 84.701316 175.575842 84.701316 Q 175.577976 84.701316 175.58011 84.701316 Q 175.595046 84.697048 175.592912 84.711985 Q 175.499025 85.798094 175.703871 86.70923 C 176.757972 91.384406 179.645016 95.453579 183.912633 97.67274 Q 186.844487 99.19628 190.218039 99.642246 Q 190.973407 99.742535 191.816262 99.917507 Z" style="fill:#cd0812;"/>
		<path d="M 253.96558 88.469623 Q 253.841819 88.354397 253.929305 88.273312 Q 253.927171 88.360798 253.96558 88.469623 Z" style="fill:#578626;"/>
		<path d="M 254.006122 88.843039 Q 253.895164 88.834504 253.954911 88.60832 Q 254.021059 88.704342 254.006122 88.843039 Z" style="fill:#578626;"/>
		<path d="M 254.23444 90.123324 Q 254.093608 90.119057 254.176827 89.833126 Q 254.23444 89.967556 254.23444 90.123324 Z" style="fill:#578626;"/>
		<path d="M 255.804923 91.339596 L 259.660716 91.399342 Q 259.78661 91.401476 259.716195 91.508166 Q 259.283031 92.158978 258.91815 92.728705 C 256.758735 96.104391 256.299967 100.162895 256.304234 104.153118 C 256.306368 108.93285 257.674139 113.704047 260.719085 117.389135 Q 263.43329 120.679468 266.981814 122.604164 Q 267.282681 122.768467 267.440583 122.540149 Q 267.496062 122.640438 267.506731 122.747129 Q 266.448362 123.722279 265.52869 124.170379 Q 263.591192 125.119924 262.400526 126.491963 C 262.953183 123.737216 261.860673 120.70294 260.311527 118.475243 Q 257.183363 113.979308 256.261558 112.611537 C 254.25151 109.632739 253.553755 105.742806 253.677515 102.179345 Q 253.737262 100.448826 253.984784 98.598813 Q 254.332595 95.995567 254.595053 93.43713 L 255.804923 91.339596 Z" style="fill:#65962a;"/>
		<path d="M 254.426482 92.039485 Q 254.388074 91.954133 254.400877 91.828238 L 254.426482 92.039485 Z" style="fill:#578626;"/>
		<path d="M 228.504972 92.611346 Q 228.479366 92.91648 228.530578 93.057312 L 228.398281 96.663449 L 228.381211 97.307859 L 228.355605 100.111684 C 228.355605 100.224776 228.240379 100.303727 228.133689 100.265318 Q 227.909639 100.1821 227.800815 99.902571 Q 227.18201 98.308615 226.155648 96.735998 C 226.02762 96.539688 225.976408 96.149201 226.151381 95.888876 Q 226.718974 95.043888 227.945914 93.070115 Q 228.080344 92.8546 228.504972 92.611346 Z" style="fill:#65962a;"/>
		<path d="M 228.530578 93.057312 Q 228.479366 92.91648 228.504972 92.611346 Q 228.611662 92.8546 228.530578 93.057312 Z" style="fill:#4a7c23;"/>
		<path d="M 193.487034 103.483102 Q 193.706816 104.57988 194.575276 104.520133 C 194.696904 104.511598 194.78439 104.637493 194.733178 104.748451 Q 194.374698 105.523023 194.282945 106.314666 C 193.758028 110.866081 196.536247 115.741834 201.599775 115.628742 C 205.816182 115.534855 209.168396 112.50698 210.525498 108.668258 C 211.566797 105.719334 211.449437 102.158007 209.285755 99.902571 Q 207.324785 97.856248 204.226494 98.204059 L 204.74501 96.202546 Q 206.082908 94.307724 208.4429 93.507545 C 210.536167 92.796987 212.665708 92.718036 214.846461 93.242953 C 219.540841 94.36747 223.50119 97.557515 225.413083 102.021443 C 226.67203 104.963965 226.812861 107.842474 226.142845 110.936497 Q 225.920929 111.954323 225.598724 112.82065 Q 223.910881 117.359261 220.573604 120.570644 Q 217.748441 123.29125 213.849972 124.735839 Q 210.512695 125.971314 206.936431 125.775004 C 198.855697 125.326904 191.306281 118.434701 191.739444 110.033895 Q 191.807726 108.710934 192.15127 106.822513 Q 192.40946 105.397129 193.487034 103.483102 Z" style="fill:#53115e;"/>
		<path d="M 204.74501 96.202546 L 204.226494 98.204059 Q 203.317492 98.786589 202.265524 99.394724 Q 201.783283 99.674253 201.392796 99.426731 Q 200.189328 98.664962 199.55772 98.3897 C 198.8685 96.441533 199.847918 94.896655 201.091929 93.400855 C 201.813156 92.532395 202.3082 93.099988 202.978216 93.682518 Q 204.211557 94.751556 204.74501 96.202546 Z" style="fill:#82b12d;"/>
		<path d="M 228.398281 96.663449 L 228.381211 97.307859 L 228.398281 96.663449 Z" style="fill:#4a7c23;"/>
		<path d="M 204.226494 98.204059 Q 207.324785 97.856248 209.285755 99.902571 C 211.449437 102.158007 211.566797 105.719334 210.525498 108.668258 C 209.168396 112.50698 205.816182 115.534855 201.599775 115.628742 C 196.536247 115.741834 193.758028 110.866081 194.282945 106.314666 Q 194.374698 105.523023 194.733178 104.748451 C 194.78439 104.637493 194.696904 104.511598 194.575276 104.520133 Q 193.706816 104.57988 193.487034 103.483102 Q 193.75376 102.924044 194.120775 102.392726 Q 195.029778 101.076166 196.135091 99.93031 Q 197.534869 98.475053 199.55772 98.3897 Q 200.189328 98.664962 201.392796 99.426731 Q 201.783283 99.674253 202.265524 99.394724 Q 203.317492 98.786589 204.226494 98.204059 Z" style="fill:#90488b;"/>
		<path d="M 206.255746 129.058936 C 213.771021 134.096858 221.996855 137.788348 230.617443 141.057343 C 237.27706 143.579505 244.054037 144.633607 250.986782 142.871081 Q 252.674625 142.442185 255.038885 141.539584 C 259.807948 139.715177 265.426267 137.165276 269.179637 135.613996 C 271.336918 134.724198 274.249567 133.67223 276.398313 132.718418 Q 279.167997 131.489344 282.080646 129.470761 Q 283.634059 129.379007 284.779914 129.142154 Q 290.259535 128.015503 295.527909 126.235906 Q 296.462518 125.920103 299.58428 124.767846 C 300.075056 124.586472 300.527424 124.296274 301.026735 124.129837 Q 301.378813 124.012477 301.615666 123.907921 C 304.927338 122.437727 306.527694 121.739971 309.120272 120.235636 Q 312.058527 118.530722 314.64257 116.172864 Q 316.319743 114.640789 317.676846 112.50698 Q 317.693916 112.47924 317.728057 112.496311 L 317.728057 112.498445 Q 317.757931 112.513381 317.745128 112.543255 Q 317.030302 114.222562 316.055151 115.72263 C 315.391536 116.744724 314.527344 117.965263 313.650348 119.017231 Q 312.182288 120.779757 311.576286 121.428435 Q 302.866078 130.744645 292.39121 137.801151 C 286.879582 141.513978 280.840903 144.57386 274.729674 146.882641 Q 266.6212 149.948925 257.889654 151.261217 Q 257.866182 151.263351 257.302857 151.374309 C 256.92944 151.446859 256.528284 151.423387 256.189008 151.483133 Q 255.369626 151.630366 253.53455 151.796803 Q 251.688806 151.96324 249.840927 152.108339 Q 248.099739 152.247037 246.138769 152.257706 Q 242.009848 152.283312 240.733831 152.242769 Q 237.422159 152.140346 232.612554 151.521542 Q 209.586622 148.561949 190.89659 134.365718 Q 186.460401 130.996434 181.655064 126.395942 Q 177.400249 122.326768 174.001091 118.020742 Q 172.921384 116.652971 171.666704 114.472218 C 171.42345 114.049724 171.229273 113.503469 171.124717 113.132186 Q 170.753434 111.792154 171.487464 112.997756 C 171.705113 113.351968 172.055057 113.908892 172.447678 114.295112 Q 174.673241 116.475864 176.058083 117.48729 C 181.505697 121.468977 187.762025 124.332549 194.176254 126.430083 C 198.170744 127.738108 202.160967 128.711125 206.255746 129.058936 Z" style="fill:#4a7c23;"/>
		<path d="M 279.833745 129.227506 Q 280.87291 129.607324 282.080646 129.470761 Q 279.167997 131.489344 276.398313 132.718418 C 274.249567 133.67223 271.336918 134.724198 269.179637 135.613996 C 265.426267 137.165276 259.807948 139.715177 255.038885 141.539584 Q 252.674625 142.442185 250.986782 142.871081 C 244.054037 144.633607 237.27706 143.579505 230.617443 141.057343 C 221.996855 137.788348 213.771021 134.096858 206.255746 129.058936 C 206.77853 129.058936 207.326918 129.18483 207.787821 129.189098 Q 212.298693 129.227506 216.402008 127.381762 Q 218.926304 126.248709 219.449087 126.026793 Q 221.695988 125.081516 224.134931 124.752909 Q 224.267227 127.373226 225.741689 129.428084 Q 227.280165 131.574696 229.917553 133.230532 Q 236.289107 137.235691 244.064706 137.020177 Q 249.365088 136.872944 253.814079 134.95465 C 257.552512 133.34149 261.572608 130.857736 262.400526 126.491963 Q 263.591192 125.119924 265.52869 124.170379 Q 266.448362 123.722279 267.506731 122.747129 C 268.200219 123.412877 269.134827 123.899386 269.973414 124.353887 Q 276.278819 127.770115 278.775376 129.003456 Q 279.140257 129.18483 279.833745 129.227506 Z" style="fill:#578626;"/>
		<path d="M 248.121077 84.408984 Q 247.7754 86.207785 247.261152 87.513676 Q 246.012874 90.68665 245.268175 93.366714 Q 244.275953 96.930175 244.261017 101.912619 Q 244.24608 106.628336 245.479422 110.317692 C 246.755439 114.139344 248.831635 117.700671 251.291917 120.914187 C 251.437016 121.104096 251.565045 121.238526 251.827503 121.276934 Q 253.96558 121.577802 255.969226 122.077113 C 256.035374 122.094183 256.088719 122.141127 256.112191 122.203008 Q 256.564559 123.370201 256.645644 124.001808 C 256.871827 125.762201 256.169804 127.123571 254.763624 128.132862 C 253.003232 129.393944 250.799007 130.123706 248.652395 130.526996 Q 247.173666 130.804391 245.690669 130.992166 Q 241.320628 131.192744 237.061545 130.360559 C 234.650341 129.891121 231.784636 128.911703 229.99437 127.153444 Q 227.828554 125.028171 229.277411 122.397184 Q 229.518531 121.959753 230.472344 120.376467 C 235.166723 114.354858 238.348232 106.984682 238.836875 99.33071 C 239.08653 95.42584 239.045988 91.91359 238.08364 88.27758 C 237.682484 86.758308 236.892975 85.085402 236.297642 83.487179 Q 236.536629 82.953727 236.8567 82.60805 Q 239.42794 79.814894 242.935921 80.196845 C 245.515696 80.478508 247.384913 81.916695 248.121077 84.408984 Z" style="fill:#fada0f;"/>
		<path d="M 236.297642 83.487179 C 236.892975 85.085402 237.682484 86.758308 238.08364 88.27758 C 239.045988 91.91359 239.08653 95.42584 238.836875 99.33071 C 238.348232 106.984682 235.166723 114.354858 230.472344 120.376467 Q 230.384857 120.248439 230.265364 120.186558 Q 230.17361 120.137481 230.177878 120.035058 Q 230.299505 116.727654 231.315198 113.710448 Q 232.467455 110.283551 232.883548 108.84323 C 234.042206 104.831669 234.321735 100.487234 234.251319 96.268694 Q 234.193706 92.790586 234.225713 90.586361 C 234.259854 88.243439 234.829581 85.311585 236.297642 83.487179 Z" style="fill:#f8b81a;"/>
		<path d="M 245.690669 130.992166 Q 247.173666 130.804391 248.652395 130.526996 C 250.799007 130.123706 253.003232 129.393944 254.763624 128.132862 C 256.169804 127.123571 256.871827 125.762201 256.645644 124.001808 Q 256.564559 123.370201 256.112191 122.203008 C 256.088719 122.141127 256.035374 122.094183 255.969226 122.077113 Q 253.96558 121.577802 251.827503 121.276934 C 251.565045 121.238526 251.437016 121.104096 251.291917 120.914187 C 248.831635 117.700671 246.755439 114.139344 245.479422 110.317692 Q 244.24608 106.628336 244.261017 101.912619 Q 244.275953 96.930175 245.268175 93.366714 Q 246.012874 90.68665 247.261152 87.513676 Q 247.7754 86.207785 248.121077 84.408984 C 250.056442 87.285359 250.150329 91.550843 249.616877 94.853979 Q 249.478179 95.716038 249.143172 98.682032 Q 248.908453 100.75396 249.083425 102.288169 C 249.358686 104.705775 250.431992 106.848119 251.75282 109.191041 Q 253.632705 112.519783 256.165537 115.445235 C 258.222528 117.822298 259.931709 120.638926 260.256048 123.820435 C 260.520641 126.423682 260.021329 128.632174 257.981408 130.34989 C 255.228794 132.66934 251.405009 133.05556 247.918365 132.048402 Q 246.702094 131.696323 245.690669 130.992166 Z" style="fill:#f8b81a;"/>
	</g>
	<g id="surface4">
	</g>
</svg>
