<?xml version="1.0" encoding="utf-8"?>
<svg xmlns="http://www.w3.org/2000/svg" width="490pt" height="280pt" viewBox="0 0 490 280" version="1.1" xmlns:xlink="http://www.w3.org/1999/xlink">
	<g id="surface2">
		<path vector-effect="non-scaling-stroke" d="M 333.704028 42.516761 Q 334.056149 43.087439 333.997867 43.675117 C 333.937156 44.282222 333.461186 44.707195 332.858938 44.716909 Q 327.057445 44.801903 317.737173 44.758192" style="fill:none;stroke-width:0.50;stroke:#71432d;"/>
		<path vector-effect="non-scaling-stroke" d="M 201.326048 83.629896 L 227.85167 83.60804" style="fill:none;stroke-width:0.50;stroke:#71432d;"/>
		<path vector-effect="non-scaling-stroke" d="M 238.794126 78.41608 L 238.86455 78.386939 Q 238.927689 78.362655 238.92526 78.294659 L 238.828124 74.955583 C 238.825695 74.885159 238.874264 74.824448 238.942259 74.809878 Q 239.389089 74.707884 240.003479 74.761309 Q 240.003479 74.758881 240.003479 74.756453 C 240.003479 74.751596 239.998622 74.749167 239.993765 74.749167 Q 239.763065 74.773451 239.544507 74.705456" style="fill:none;stroke-width:0.50;stroke:#71432d;"/>
		<path vector-effect="non-scaling-stroke" d="M 240.622725 74.941012 Q 240.428452 75.472836 240.622725 76.259644" style="fill:none;stroke-width:0.50;stroke:#71432d;"/>
		<path vector-effect="non-scaling-stroke" d="M 240.639724 79.346165 Q 240.552301 79.482156 240.642153 79.591435 Q 240.749003 79.727426 240.778144 79.603577" style="fill:none;stroke-width:0.50;stroke:#71432d;"/>
		<path vector-effect="non-scaling-stroke" d="M 242.198769 63.420592 L 242.147773 61.829978" style="fill:none;stroke-width:0.50;stroke:#71432d;"/>
		<path vector-effect="non-scaling-stroke" d="M 245.185725 79.805136 Q 245.545131 79.863418 245.355714 79.193174" style="fill:none;stroke-width:0.50;stroke:#71432d;"/>
		<path vector-effect="non-scaling-stroke" d="M 313.17903 83.430765 Q 315.930429 83.833883 318.766823 83.40891" style="fill:none;stroke-width:0.50;stroke:#71432d;"/>
		<path vector-effect="non-scaling-stroke" d="M 337.71092 83.676036 L 337.611354 90.322619 C 337.608926 90.419756 337.531217 90.499893 337.43408 90.502322 L 331.265895 90.638313" style="fill:none;stroke-width:0.50;stroke:#71432d;"/>
		<path vector-effect="non-scaling-stroke" d="M 323.373534 152.815555 L 319.463779 152.82284" style="fill:none;stroke-width:0.50;stroke:#71432d;"/>
		<path vector-effect="non-scaling-stroke" d="M 160.29548 97.92357 L 160.324621 98.018279 Q 160.365904 98.163984 160.365904 98.010994 L 160.341619 91.02686" style="fill:none;stroke-width:0.50;stroke:#71432d;"/>
		<path vector-effect="non-scaling-stroke" d="M 170.545836 77.274723 L 170.589548 69.343506" style="fill:none;stroke-width:0.50;stroke:#71432d;"/>
		<path vector-effect="non-scaling-stroke" d="M 328.060382 67.891312 L 327.506703 68.619838" style="fill:none;stroke-width:0.50;stroke:#71432d;"/>
		<path vector-effect="non-scaling-stroke" d="M 321.739207 73.568956 L 310.148363 73.59324" style="fill:none;stroke-width:0.50;stroke:#71432d;"/>
		<path vector-effect="non-scaling-stroke" d="M 321.979621 135.333366 C 321.979621 135.153663 322.079186 134.986102 322.237033 134.903536 C 324.332759 133.793748 326.365346 133.400345 327.115727 130.87236 Q 327.346427 130.095266 327.351284 126.865469 Q 327.375568 111.005464 327.34157 90.87387 C 327.34157 90.750021 327.239577 90.648027 327.113299 90.648027 L 290.563164 90.648027 C 290.485454 90.648027 290.422315 90.711166 290.422315 90.788875 L 290.422315 136.768562 Q 290.422315 136.904553 290.555878 136.904553 L 321.685782 136.904553 Q 321.979621 136.904553 321.979621 136.613143 L 321.979621 135.333366" style="fill:none;stroke-width:0.50;stroke:#71432d;"/>
		<path d="M 333.704028 42.516761 Q 334.056149 43.087439 333.997867 43.675117 C 333.937156 44.282222 333.461186 44.707195 332.858938 44.716909 Q 327.057445 44.801903 317.737173 44.758192 Q 294.035803 44.750907 270.332004 44.79219 C 269.727328 44.79219 269.059513 44.461925 269.042514 43.764968 C 269.0328 43.276856 268.964804 42.796029 269.256215 42.519189 C 269.44806 42.341915 269.700615 42.310345 269.89246 42.16464 Q 270.380573 41.795521 270.970678 41.448257 Q 271.718632 41.008713 272.065895 40.773156 Q 273.187825 40.017918 274.198047 39.408385 Q 274.256329 39.374387 275.03828 38.823136 C 275.434113 38.546296 275.876085 38.410304 276.242776 38.145607 Q 277.626975 37.147526 279.12531 36.285438 Q 279.630421 35.994027 280.628501 35.321355 Q 281.165182 34.957092 282.051555 34.425269 C 282.833506 33.956584 283.80973 33.215916 284.691246 32.722947 C 285.244926 32.414538 285.747608 32.001706 286.342571 31.671441 Q 287.760768 30.882205 288.28045 30.5058 Q 289.239675 29.806416 289.80064 29.587858 C 290.254754 29.413012 290.407745 29.070605 290.886143 28.946755 C 291.026992 28.910329 291.124128 28.781623 291.124128 28.635918 L 291.124128 5.223529 Q 291.124128 4.856838 291.493248 4.856838 L 308.795734 4.856838 C 308.985151 4.856838 309.140569 5.009829 309.140569 5.199245 L 309.140569 28.529067 C 309.140569 28.638346 309.198851 28.737911 309.29356 28.791336 L 333.704028 42.516761 Z" style="fill:#11212a;"/>
		<path d="M 201.326048 83.629896 L 227.85167 83.60804 L 239.221528 83.557043 C 239.282238 83.557043 239.333235 83.508475 239.333235 83.447764 L 239.333235 80.402527 Q 239.333235 80.254393 239.185101 80.254393 L 234.692526 80.254393 Q 234.568677 80.254393 234.568677 80.130544 L 234.568677 78.527787 C 234.568677 78.479219 234.60996 78.437936 234.658528 78.440364 L 238.624137 78.56907 Q 238.696989 78.571499 238.735844 78.50836 Q 238.762556 78.46222 238.794126 78.41608 L 238.86455 78.386939 Q 238.927689 78.362655 238.92526 78.294659 L 238.828124 74.955583 C 238.825695 74.885159 238.874264 74.824448 238.942259 74.809878 Q 239.389089 74.707884 240.003479 74.761309 Q 240.003479 74.758881 240.003479 74.756453 C 240.003479 74.751596 239.998622 74.749167 239.993765 74.749167 Q 239.763065 74.773451 239.544507 74.705456 Q 240.972418 74.533038 240.622725 74.941012 Q 240.428452 75.472836 240.622725 76.259644 L 240.639724 79.346165 Q 240.552301 79.482156 240.642153 79.591435 Q 240.749003 79.727426 240.778144 79.603577 Q 241.241972 79.795422 242.104061 79.693429 Q 242.315333 79.669144 242.315333 79.455443 L 242.198769 63.420592 L 242.147773 61.829978 Q 241.679088 59.403987 239.46437 58.350053 Q 238.985971 58.121782 238.774698 58.116925 C 238.422578 58.10964 238.208877 57.915366 237.825187 57.932365 Q 235.576471 58.03193 234.119419 59.763393 Q 233.820724 60.120371 233.541455 60.878038 Q 232.968349 62.434654 232.744934 64.078694 C 232.655082 64.76108 232.419526 65.557601 232.395242 66.317696 C 232.392813 66.405119 232.324817 66.477972 232.237394 66.490114 Q 231.0159 66.645533 229.784691 66.366265 Q 229.66327 66.339552 229.643843 66.218131 Q 229.566133 65.781016 229.619559 65.407039 Q 229.949824 63.083042 229.983821 62.68721 Q 230.008106 62.386086 230.141669 62.014538 C 230.243662 61.732841 230.180523 61.441431 230.267947 61.084453 Q 230.751202 59.129576 231.761424 57.820658 Q 233.723587 55.275675 236.880532 54.916269 Q 238.303585 54.753565 240.156469 55.185823 Q 240.503733 55.26839 240.761145 55.472377 C 241.008844 55.669079 241.30754 55.749217 241.562524 55.916777 Q 243.19685 56.985282 244.207072 58.63175 C 244.576192 59.233998 244.649044 59.746394 244.9016 60.363213 Q 245.030306 60.681336 245.032734 61.077168 Q 245.064304 73.112413 245.00845 79.579293 Q 245.00845 79.717713 245.185725 79.805136 Q 245.545131 79.863418 245.355714 79.193174 C 245.304717 78.792485 245.496562 78.527787 245.923964 78.515645 Q 247.711281 78.467077 249.399032 78.333514 Q 249.637017 78.314086 249.637017 78.5545 L 249.637017 80.040692 Q 249.637017 80.25925 249.418459 80.25925 L 246.096382 80.25925 Q 245.996817 80.25925 245.996817 80.358815 L 245.996817 83.411338 C 245.996817 83.513332 246.081811 83.598326 246.183805 83.595898 Q 246.856477 83.581327 249.933284 83.566757 Q 264.40909 83.496333 292.746312 83.535187 Q 301.549331 83.54733 310.35235 83.452621 Q 310.587907 83.450193 312.890048 83.537616 Q 313.018755 83.542473 313.17903 83.430765 Q 315.930429 83.833883 318.766823 83.40891 L 337.71092 83.676036 L 337.611354 90.322619 C 337.608926 90.419756 337.531217 90.499893 337.43408 90.502322 L 331.265895 90.638313 L 331.127476 90.679596 Q 331.001198 90.718451 331.001198 90.849586 Q 331.015768 129.065617 331.020625 129.857281 Q 331.037624 132.297842 330.044401 134.070588 Q 328.356649 137.079399 325.151136 138.203757 C 324.796587 138.327607 324.548888 138.315465 324.291476 138.436886 Q 324.184625 138.487883 324.184625 138.604447 L 324.184625 152.681992 Q 324.184625 152.805841 324.060776 152.825269 Q 323.730511 152.878694 323.373534 152.815555 L 319.463779 152.82284 L 317.856165 152.810698 Q 317.659463 152.810698 317.661892 152.611568 Q 317.703175 150.239002 317.66432 147.698876 Q 317.661892 147.516745 317.80274 146.535663 C 317.819739 146.423956 317.732316 146.321962 317.61818 146.321962 L 175.439101 146.321962 Q 175.337107 146.321962 175.337107 146.426384 L 175.337107 152.696562 C 175.337107 152.783986 175.264255 152.856838 175.176832 152.856838 L 169.210206 152.856838 Q 168.991648 152.856838 168.991648 152.63828 L 168.991648 138.696727 Q 168.991648 138.538879 168.833801 138.546165 C 168.505964 138.558307 168.059135 138.558307 167.772582 138.473312 C 165.247026 137.705932 163.396571 136.598572 161.888522 134.434851 Q 161.694249 134.158011 161.206137 133.220642 Q 160.844302 132.533399 160.698597 131.904438 Q 160.293051 130.155977 160.293051 129.182181 Q 160.314907 113.552876 160.29548 97.92357 L 160.324621 98.018279 Q 160.365904 98.163984 160.365904 98.010994 L 160.341619 91.02686 Q 160.385331 90.844729 160.348905 90.733022 Q 160.305193 90.599459 160.164345 90.599459 L 152.446829 90.599459 C 152.213701 90.599459 152.026713 90.41247 152.026713 90.179342 L 152.026713 83.887308 C 152.026713 83.690606 152.186988 83.530331 152.38369 83.530331 L 178.047223 83.530331 C 178.134646 83.530331 178.180786 83.425909 178.120075 83.36277 Q 178.027796 83.268061 177.874805 83.246206 Q 174.807712 82.79452 172.743556 81.366609 Q 170.606547 79.887702 170.545836 77.274723 L 170.589548 69.343506 Q 167.928001 69.314365 165.36359 69.389646 C 165.077037 69.39936 164.715202 69.243941 164.593781 68.92339 Q 164.278087 68.092871 164.399508 67.12636 Q 164.414078 67.004939 164.499073 66.915087 Q 164.78077 66.621249 165.550578 66.623677 Q 168.25098 66.633391 170.951382 66.647961 C 171.026663 66.65039 171.097088 66.611535 171.135942 66.545968 Q 171.349643 66.186562 171.444351 66.111281 Q 173.374945 64.571663 175.089408 63.874707 Q 176.952006 63.119468 178.105505 62.726064 C 178.207499 62.692067 178.253639 62.570646 178.197785 62.478366 Q 177.918517 61.999967 177.9598 61.397719 C 177.988941 60.99703 178.175929 60.919321 178.525621 60.790614 Q 178.664041 60.739618 178.66647 60.887751 Q 178.673755 61.18159 178.81946 61.42686 C 178.863172 61.499713 178.94331 61.545853 179.028304 61.545853 L 181.485864 61.545853 C 181.667996 61.545853 181.8307 61.422003 181.87684 61.244729 L 181.971548 60.875609 Q 182.007974 60.732332 182.151251 60.773616 C 182.938059 61.001887 182.595652 62.004824 182.379523 62.524506 C 182.343096 62.614357 182.389236 62.716351 182.481516 62.745492 Q 184.909935 63.520158 186.927951 64.566806 C 187.100369 64.656658 187.31407 64.603232 187.425777 64.442957 Q 188.064452 63.512872 188.567134 62.41037 Q 188.761408 61.98054 189.001821 60.591484 Q 189.15724 59.702683 189.15724 58.733744 Q 189.154812 51.02837 189.147526 40.202478 C 189.147526 40.081057 189.05039 39.98392 188.928969 39.98392 L 182.085684 39.98392 C 181.942407 39.98392 181.828271 40.095627 181.828271 40.231619 L 181.828271 59.899385 C 181.828271 60.049947 181.70685 60.171368 181.556288 60.171368 L 178.974879 60.171368 Q 178.831602 60.171368 178.834031 60.028091 C 178.841316 59.680827 178.940881 59.294708 178.940881 58.976585 Q 178.950595 50.807384 178.945738 40.095627 Q 178.945738 40.005776 178.855886 40.005776 L 152.259841 40.005776 C 152.116564 40.005776 152 39.889212 152 39.745935 L 152 36.25144 C 152 36.06688 152.148134 35.918746 152.332693 35.918746 L 230.843482 35.918746 Q 231.195603 35.918746 231.195603 36.270867 L 231.195603 39.818787 Q 231.195603 39.966921 231.045041 39.966921 L 225.751087 39.966921 C 225.532529 39.966921 225.357683 40.144196 225.36254 40.362753 C 225.401395 42.62604 225.156124 44.554205 225.202264 46.686357 Q 225.226549 47.801001 225.207121 54.874986 Q 225.204693 55.885208 225.11727 56.448601 C 225.027418 57.041135 224.544163 57.339831 224.009911 57.3714 C 222.776274 57.446681 222.61357 56.380605 222.620855 55.418952 Q 222.666995 48.52467 222.652424 45.646993 Q 222.645139 44.350217 222.497005 42.873739 Q 222.3513 41.421544 222.446009 40.098056 C 222.450866 40.032488 222.39744 39.976635 222.329445 39.976635 L 214.602215 39.976635 Q 214.189384 39.976635 214.186955 40.389466 Q 214.140815 45.765986 214.101961 55.426237 C 214.099532 56.079481 213.788695 57.184412 213.0286 57.337403 C 212.380212 57.466109 211.90667 57.21841 211.70754 56.58945 C 211.624973 56.329609 211.479268 56.137764 211.481697 55.749217 Q 211.488982 52.143014 211.484125 46.278382 Q 211.481697 44.318648 211.360276 43.196718 Q 211.204857 41.788235 211.270424 40.12234 C 211.272853 40.056772 211.219427 40.000919 211.151432 40.000919 L 192.190336 40.000919 C 192.132053 40.000919 192.083485 40.049487 192.083485 40.107769 Q 192.085914 43.354566 192.085914 59.105292 C 192.085914 59.848388 192.270473 60.576914 192.401608 61.307868 Q 192.549742 62.135959 193.261268 63.226319 Q 194.929592 65.790729 195.165149 66.157421 Q 195.446846 66.599393 195.534269 66.798523 C 195.582837 66.905374 195.709115 66.951514 195.813537 66.900517 C 196.14623 66.74267 196.296792 66.630962 196.593059 66.628534 Q 198.436229 66.609107 201.33819 66.592108 C 202.712675 66.584822 202.156567 67.92531 201.969579 68.840824 C 201.911297 69.129806 201.658741 69.336221 201.362474 69.336221 L 196.134088 69.336221 Q 195.995668 69.336221 195.990811 69.474641 Q 195.983526 69.649487 195.966527 71.849635 C 195.96167 72.556305 195.730971 73.386824 195.599836 73.833653 Q 194.895594 76.208647 192.79744 77.308721 Q 191.898925 77.779834 190.327738 77.84783 Q 190.203889 77.852687 190.145607 77.961966 Q 190.050898 78.136812 189.888194 78.666207 C 189.147526 81.087341 187.736615 81.713873 185.650603 82.675527 C 184.873509 83.032505 184.166839 82.872229 183.431028 83.360341 Q 183.229469 83.493904 183.469883 83.491476 Q 189.145098 83.467192 198.052539 83.54733 Q 198.071967 83.54733 199.456165 83.513332 Q 200.38625 83.489048 201.326048 83.629896 Z M 238.40315 90.754877 C 238.40315 90.720879 238.374009 90.691738 238.340011 90.691738 L 209.164985 90.691738 C 209.130987 90.691738 209.101846 90.720879 209.101846 90.754877 L 209.101846 136.773419 C 209.101846 136.807417 209.130987 136.836558 209.164985 136.836558 L 238.340011 136.836558 C 238.374009 136.836558 238.40315 136.807417 238.40315 136.773419 L 238.40315 90.754877 Z M 321.979621 135.333366 C 321.979621 135.153663 322.079186 134.986102 322.237033 134.903536 C 324.332759 133.793748 326.365346 133.400345 327.115727 130.87236 Q 327.346427 130.095266 327.351284 126.865469 Q 327.375568 111.005464 327.34157 90.87387 C 327.34157 90.750021 327.239577 90.648027 327.113299 90.648027 L 290.563164 90.648027 C 290.485454 90.648027 290.422315 90.711166 290.422315 90.788875 L 290.422315 136.768562 Q 290.422315 136.904553 290.555878 136.904553 L 321.685782 136.904553 Q 321.979621 136.904553 321.979621 136.613143 L 321.979621 135.333366 Z M 205.420363 90.759734 C 205.420363 90.725736 205.391222 90.696595 205.357224 90.696595 L 164.462647 90.696595 C 164.428649 90.696595 164.399508 90.725736 164.399508 90.759734 L 164.399508 96.69479 C 164.399508 96.728788 164.428649 96.757929 164.462647 96.757929 L 205.357224 96.757929 C 205.391222 96.757929 205.420363 96.728788 205.420363 96.69479 L 205.420363 90.759734 Z M 286.514989 90.776733 C 286.514989 90.740307 286.485848 90.711166 286.449422 90.711166 L 242.150201 90.711166 C 242.113775 90.711166 242.084634 90.740307 242.084634 90.776733 L 242.084634 96.682648 C 242.084634 96.719075 242.113775 96.748216 242.150201 96.748216 L 286.449422 96.748216 C 286.485848 96.748216 286.514989 96.719075 286.514989 96.682648 L 286.514989 90.776733 Z M 169.229633 134.850111 Q 169.46519 135.785052 169.317056 136.651998 C 169.302486 136.749134 169.375338 136.836558 169.472475 136.836558 L 205.30137 136.836558 Q 205.422791 136.836558 205.422791 136.715137 L 205.422791 101.017376 Q 205.422791 100.908097 205.311084 100.908097 L 164.520929 100.908097 Q 164.406793 100.908097 164.404365 101.022233 Q 164.399508 116.75596 164.399508 129.298745 Q 164.399508 129.922848 164.588924 130.614948 Q 164.843908 131.545032 165.045467 131.877726 Q 166.257248 133.859316 169.100927 134.711691 Q 169.205349 134.74326 169.229633 134.850111 Z M 286.548987 100.98095 C 286.548987 100.946952 286.519846 100.917811 286.485848 100.917811 L 242.172057 100.917811 C 242.138059 100.917811 242.108918 100.946952 242.108918 100.98095 L 242.108918 136.775847 C 242.108918 136.809845 242.138059 136.838986 242.172057 136.838986 L 286.485848 136.838986 C 286.519846 136.838986 286.548987 136.809845 286.548987 136.775847 L 286.548987 100.98095 Z" style="fill:#11212a;"/>
		<path d="M 333.704028 42.516761 Q 334.621971 43.51727 333.67003 44.585774 Q 333.458758 44.826188 332.924506 44.821331 Q 325.330839 44.758192 317.737173 44.758192 Q 327.057445 44.801903 332.858938 44.716909 C 333.461186 44.707195 333.937156 44.282222 333.997867 43.675117 Q 334.056149 43.087439 333.704028 42.516761 Z" style="fill:#d16430;"/>
		<path d="M 335.758471 51.008942 C 335.758471 51.084223 335.695332 51.147362 335.620051 51.147362 L 268.197424 51.147362 C 268.122143 51.147362 268.059004 51.084223 268.059004 51.008942 L 268.059004 48.269686 C 268.059004 48.194405 268.122143 48.131266 268.197424 48.131266 L 335.620051 48.131266 C 335.695332 48.131266 335.758471 48.194405 335.758471 48.269686 L 335.758471 51.008942 Z" style="fill:#11212a;"/>
		<path d="M 242.198769 63.420592 L 242.147773 61.829978 L 242.198769 63.420592 Z" style="fill:#d16430;"/>
		<path d="M 328.060382 67.891312 L 327.506703 68.619838 L 325.02243 69.688342 C 324.847584 69.766051 324.687308 69.872902 324.551317 70.008893 C 323.468242 71.091968 322.292887 72.053622 321.739207 73.568956 L 310.148363 73.59324 Q 309.368841 72.082763 309.361556 70.387727 Q 309.359127 70.283305 309.463549 70.283305 L 313.854131 70.283305 Q 313.960981 70.283305 313.960981 70.176454 L 313.960981 68.750972 C 313.960981 68.653835 314.041119 68.573698 314.140684 68.573698 L 317.295201 68.573698 C 317.380195 68.573698 317.448191 68.641693 317.448191 68.726688 L 317.448191 70.147313 C 317.448191 70.222594 317.51133 70.285733 317.586611 70.285733 Q 319.332644 70.288161 321.085963 70.276019 C 321.552219 70.273591 321.870342 70.10603 322.207892 69.761195 Q 323.443958 68.500845 324.840299 67.850029 Q 325.250701 67.655755 326.729609 67.063221 Q 327.300287 66.832521 327.868537 66.805809 C 327.98753 66.798523 328.087095 66.89566 328.084667 67.014653 L 328.060382 67.891312 Z" style="fill:#11212a;"/>
		<path d="M 328.060382 67.891312 Q 328.162376 68.367282 327.506703 68.619838 L 328.060382 67.891312 Z" style="fill:#d16430;"/>
		<path d="M 170.545836 77.274723 Q 170.426844 73.556814 170.472984 69.868045 Q 170.475412 69.688342 170.589548 69.343506 L 170.545836 77.274723 Z" style="fill:#d16430;"/>
		<path d="M 321.739207 73.568956 L 326.853458 73.683091 C 326.931167 73.68552 327.00402 73.717089 327.057445 73.772943 Q 327.409566 74.134777 327.861252 73.828796 Q 327.960817 73.760801 328.07981 73.73166 C 328.512068 73.619952 330.53737 73.525244 331.15176 73.942932 Q 331.261039 74.015785 331.256182 74.146919 Q 331.236754 75.013865 330.836065 75.548117 C 330.702502 75.725392 330.496087 75.837099 330.272672 75.846813 C 329.177455 75.895381 328.643203 75.968234 327.700976 76.390779 C 326.875314 76.759898 326.511051 77.665699 325.979227 78.702634 Q 325.43769 79.754139 323.9005 81.11891 C 323.312823 81.641021 322.421593 82.022282 321.833916 82.386545 Q 321.287522 82.726524 320.330724 82.969366 Q 319.541488 83.170925 318.766823 83.40891 Q 315.930429 83.833883 313.17903 83.430765 Q 310.636476 82.969366 308.654886 81.56574 Q 306.66601 80.157257 305.762638 77.791976 Q 305.459086 76.995455 304.405152 76.242645 C 303.776192 75.793387 302.877677 75.948806 302.12001 75.846813 C 301.325917 75.739962 301.058791 74.802593 301.333202 74.108065 Q 301.379342 73.991501 301.491049 73.935647 C 302.217147 73.571384 304.123456 73.551957 304.63828 73.751087 Q 304.86898 73.840939 305.111822 73.763229 Q 305.211387 73.734088 305.604791 73.734088 Q 307.916646 73.738945 310.148363 73.59324 L 321.739207 73.568956 Z" style="fill:#d16430;"/>
		<path d="M 239.544507 74.705456 Q 239.763065 74.773451 239.993765 74.749167 C 239.998622 74.749167 240.003479 74.751596 240.003479 74.756453 Q 240.003479 74.758881 240.003479 74.761309 Q 239.389089 74.707884 238.942259 74.809878 C 238.874264 74.824448 238.825695 74.885159 238.828124 74.955583 L 238.92526 78.294659 Q 238.927689 78.362655 238.86455 78.386939 L 238.794126 78.41608 L 238.689704 74.936156 C 238.684847 74.802593 238.794126 74.693314 238.927689 74.695742 L 239.544507 74.705456 Z" style="fill:#d16430;"/>
		<path d="M 240.622725 74.941012 L 240.622725 76.259644 Q 240.428452 75.472836 240.622725 74.941012 Z" style="fill:#d16430;"/>
		<path d="M 245.185725 79.805136 L 245.355714 79.193174 Q 245.545131 79.863418 245.185725 79.805136 Z" style="fill:#d16430;"/>
		<path d="M 240.639724 79.346165 Q 240.61544 79.450587 240.778144 79.603577 Q 240.749003 79.727426 240.642153 79.591435 Q 240.552301 79.482156 240.639724 79.346165 Z" style="fill:#d16430;"/>
		<path d="M 227.85167 83.60804 L 201.326048 83.629896 Q 201.328476 82.177701 202.639823 82.170416 Q 214.480794 82.121848 226.316909 82.160702 Q 227.812815 82.165559 227.85167 83.60804 Z" style="fill:#d16430;"/>
		<path d="M 337.71092 83.676036 L 337.77163 90.512035 Q 337.77163 90.638313 337.647781 90.638313 L 331.265895 90.638313 L 337.43408 90.502322 C 337.531217 90.499893 337.608926 90.419756 337.611354 90.322619 L 337.71092 83.676036 Z" style="fill:#d16430;"/>
		<path d="M 160.29548 97.92357 L 160.341619 91.02686 L 160.365904 98.010994 Q 160.365904 98.163984 160.324621 98.018279 L 160.29548 97.92357 Z" style="fill:#d16430;"/>
		<path d="M 323.373534 152.815555 L 319.463779 152.82284 L 323.373534 152.815555 Z" style="fill:#d16430;"/>
		<path d="M 321.979621 135.333366 L 321.979621 136.613143 Q 321.979621 136.904553 321.685782 136.904553 L 290.555878 136.904553 Q 290.422315 136.904553 290.422315 136.768562 L 290.422315 90.788875 C 290.422315 90.711166 290.485454 90.648027 290.563164 90.648027 L 327.113299 90.648027 C 327.239577 90.648027 327.34157 90.750021 327.34157 90.87387 Q 327.375568 111.005464 327.351284 126.865469 Q 327.346427 130.095266 327.115727 130.87236 C 326.365346 133.400345 324.332759 133.793748 322.237033 134.903536 C 322.079186 134.986102 321.979621 135.153663 321.979621 135.333366 Z" style="fill:#d16430;"/>
		<path d="M 261.028269 92.436096 C 261.509558 93.549988 260.977734 94.85162 259.841161 95.340194 C 258.704734 95.830273 257.395816 95.322734 256.91545 94.207336 C 256.434162 93.093445 256.965986 91.791812 258.102559 91.303239 C 259.238986 90.813159 260.547904 91.320699 261.028269 92.436096 Z" style="fill:#11212a;"/>
		<path d="M 272.303881 93.350857 C 272.303881 94.579637 271.308229 95.575289 270.079449 95.575289 C 268.850669 95.575289 267.855017 94.579637 267.855017 93.350857 C 267.855017 92.122077 268.850669 91.126425 270.079449 91.126425 C 271.308229 91.126425 272.303881 92.122077 272.303881 93.350857 Z" style="fill:#11212a;"/>
		<path d="M 279.880548 102.098023 C 280.468225 101.833325 282.48867 101.775043 282.102551 103.00868 C 281.939847 103.525933 281.595012 103.810058 281.01462 103.865912 Q 280.048109 103.958192 279.681418 103.96062 Q 271.560784 104.028616 264.207531 104.014045 Q 263.418295 104.014045 263.447436 103.275806 Q 263.447436 103.251522 263.447436 103.246665 Q 263.350299 102.505997 264.166248 102.508426 Q 272.082894 102.552137 276.828025 102.54728 Q 277.704685 102.54728 278.901895 102.421003 Q 279.237017 102.384576 279.880548 102.098023 Z" style="fill:#11212a;"/>
		<path d="M 279.776126 125.571122 C 279.776126 126.574059 278.965034 127.385151 277.962097 127.385151 L 251.166921 127.385151 C 250.163984 127.385151 249.352892 126.574059 249.352892 125.571122 L 249.352892 107.323981 C 249.352892 106.321044 250.163984 105.509952 251.166921 105.509952 L 277.962097 105.509952 C 278.965034 105.509952 279.776126 106.321044 279.776126 107.323981 L 279.776126 125.571122 Z" style="fill:#11212a;"/>
	</g>
	<g id="surface4">
	</g>
</svg>
