<?xml version="1.0" encoding="utf-8"?>
<svg xmlns="http://www.w3.org/2000/svg" width="490pt" height="280pt" viewBox="0 0 490 280" version="1.1" xmlns:xlink="http://www.w3.org/1999/xlink">
	<g id="surface2">
		<path stroke-linecap="butt" vector-effect="non-scaling-stroke" d="M 260.701841 109.64534 C 260.701841 101.983644 254.491177 95.77298 246.829482 95.77298 C 239.167786 95.77298 232.957122 101.983644 232.957122 109.64534 C 232.957122 117.307035 239.167786 123.517699 246.829482 123.517699 C 254.491177 123.517699 260.701841 117.307035 260.701841 109.64534" style="fill:none;stroke-width:0.50;stroke:#8c5a45;"/>
		<path d="M 193.147578 39.927038 Q 193.172595 40.321068 193.57288 40.321068 L 204.236709 40.321068 C 204.799609 40.321068 205.318728 40.020855 205.600178 39.539263 Q 210.578717 30.889365 215.782415 22.08936 Q 218.9972 16.635484 219.929112 15.691063 C 222.706086 12.895326 225.770764 12.520059 229.998769 12.520059 Q 252.452228 12.488787 265.5678 12.545077 Q 269.970929 12.56384 271.891044 13.301865 Q 275.356006 14.621553 277.00718 17.554888 Q 279.121182 21.326318 283.786999 29.269464 C 284.856509 31.095762 286.182451 33.741392 287.533411 35.836631 C 288.265181 36.962431 288.61543 37.881835 289.203348 39.295339 C 289.397236 39.751914 289.847556 40.045873 290.341657 40.045873 L 307.528873 40.045873 Q 308.210607 40.045873 308.210607 39.370393 L 308.210607 32.134 C 308.210607 30.326465 309.674148 28.862925 311.475428 28.862925 L 332.584181 28.862925 C 333.972668 28.862925 335.098468 29.988725 335.098468 31.377212 L 335.098468 39.526754 C 335.098468 39.739405 335.248574 39.920784 335.454971 39.958311 Q 340.352202 40.921495 343.385608 43.96741 Q 345.230669 45.818726 346.306434 48.789587 Q 347.532305 52.154479 347.544814 54.368553 Q 347.619867 66.777372 347.551068 90.337867 C 347.551068 90.725643 347.870045 91.04462 348.257821 91.04462 L 353.880567 91.04462 C 354.099472 91.04462 354.29336 91.182217 354.362159 91.38236 L 354.493502 91.751372 Q 354.712408 92.389325 354.043182 92.389325 L 306.059078 92.389325 C 305.677557 92.389325 305.333563 92.145402 305.195965 91.782644 Q 303.563555 87.454568 302.475281 84.959044 C 299.698307 78.617037 295.83306 72.568988 291.198516 67.678012 Q 273.898721 49.408777 247.836447 47.795131 Q 245.034456 47.620006 239.055206 48.420575 Q 234.132958 49.077292 230.449089 50.165565 Q 211.94844 55.650714 199.55213 70.486258 C 194.235851 76.853283 190.439403 84.258547 187.887589 92.082858 C 187.812536 92.308018 187.599885 92.464379 187.362216 92.464379 L 135.825587 92.464379 C 135.544137 92.464379 135.318977 92.239219 135.318977 91.957769 L 135.318977 91.60752 Q 135.318977 91.082146 135.850605 91.082146 L 140.259988 91.082146 C 140.722817 91.082146 141.098084 90.70688 141.098084 90.244051 Q 141.123102 72.281284 141.141865 54.199683 Q 141.141865 53.086391 141.892399 50.240619 Q 142.461553 48.089089 143.487282 46.575514 Q 146.308037 42.410053 150.973853 40.946513 Q 153.538176 40.13969 158.366608 40.214743 Q 160.937185 40.258524 165.846924 40.208488 C 166.047066 40.208488 166.209682 40.045873 166.209682 39.845731 Q 166.153392 36.537129 166.109611 32.534284 C 166.084593 30.401518 167.066541 28.806635 169.324396 28.831652 Q 179.369035 28.931724 189.782686 28.825398 Q 191.483895 28.806635 192.215665 29.350771 Q 193.228886 30.088796 193.185104 32.008911 Q 193.053761 38.000669 193.147578 39.927038 Z M 171.170833 59.503264 C 171.169457 58.784191 170.581539 58.202527 169.865405 58.206906 L 158.007039 58.24831 C 157.290843 58.252563 156.70918 58.834226 156.710681 59.553738 L 156.74533 69.485734 C 156.746706 70.204808 157.334624 70.786471 158.050758 70.782093 L 169.909124 70.740689 C 170.62532 70.736436 171.206984 70.154772 171.205483 69.435261 L 171.170833 59.503264 Z" style="fill:#2d2d2c;"/>
		<path d="M 225.805039 149.726264 C 204.117875 138.534623 195.749427 111.61549 207.106999 89.6101 C 218.465572 67.602959 245.253361 58.834226 266.940775 70.027244 C 288.627939 81.218886 296.996387 108.138019 285.638815 130.143409 C 274.280242 152.15055 247.492453 160.919282 225.805039 149.726264 Z M 260.701841 109.64534 C 260.701841 101.983644 254.491177 95.77298 246.829482 95.77298 C 239.167786 95.77298 232.957122 101.983644 232.957122 109.64534 C 232.957122 117.307035 239.167786 123.517699 246.829482 123.517699 C 254.491177 123.517699 260.701841 117.307035 260.701841 109.64534 Z" style="fill:#2d2d2c;"/>
		<path d="M 347.845027 101.370709 C 347.719938 101.370709 347.619867 101.47078 347.619867 101.589614 Q 347.476015 133.443504 347.551068 143.644504 Q 347.58234 147.134485 346.081274 151.224892 Q 344.26123 156.178413 338.819863 158.936623 Q 337.644027 159.530795 336.524481 159.64963 C 335.417444 159.774719 334.654402 160.281329 333.32846 160.318855 Q 327.793276 160.462708 326.148356 160.456453 Q 303.663626 160.362637 286.75786 160.450199 C 285.544498 160.456453 283.66191 160.175003 282.023245 160.487726 C 281.641724 160.562779 281.247694 160.43769 281.047552 160.131222 C 280.853664 159.831009 280.94748 159.430724 281.253948 159.2556 C 282.092044 158.774008 283.655655 157.948421 284.737674 157.054035 Q 298.090915 146.033702 303.901295 129.672074 Q 304.90826 126.826301 305.952753 122.504479 Q 307.17237 117.475905 307.422547 115.180524 Q 307.547636 113.998434 307.51011 106.924656 C 307.497601 104.816908 306.972227 102.552799 306.903428 100.188619 C 306.890919 99.919677 307.109825 99.694517 307.378766 99.694517 L 353.999401 99.55692 C 354.506011 99.55692 354.900041 99.994731 354.850006 100.507595 Q 354.843751 100.551376 354.818734 100.607666 Q 354.393431 101.483289 353.655407 101.47078 L 347.845027 101.370709 Z" style="fill:#2d2d2c;"/>
		<path d="M 140.553947 101.401981 L 135.525373 101.401981 Q 135 101.401981 135 100.882862 L 135 100.238654 Q 135 99.638227 135.600427 99.638227 L 185.704788 99.638227 C 185.979983 99.638227 186.18638 99.888405 186.142599 100.157346 C 185.260722 105.173411 184.822911 109.739157 185.360793 115.193033 Q 185.998747 121.64762 186.611682 123.617771 C 187.862571 127.651888 188.231584 130.141157 189.801449 133.105764 Q 190.164207 133.781244 191.37757 136.87094 Q 192.50337 139.716713 196.180984 145.201861 Q 202.003872 153.883031 210.578717 159.787228 C 210.791368 159.93108 210.735078 160.256311 210.4849 160.32511 C 209.509207 160.587797 208.302099 160.375145 207.55782 160.3814 Q 182.177281 160.43769 157.315861 160.450199 C 150.27961 160.450199 144.319123 157.141597 142.136322 150.224181 Q 141.310735 147.616077 141.223173 144.263694 Q 141.09183 139.472789 141.104339 101.946118 Q 141.104339 101.401981 140.553947 101.401981 Z" style="fill:#2d2d2c;"/>
		<path d="M 260.701841 109.64534 C 260.701841 117.307035 254.491177 123.517699 246.829482 123.517699 C 239.167786 123.517699 232.957122 117.307035 232.957122 109.64534 C 232.957122 101.983644 239.167786 95.77298 246.829482 95.77298 C 254.491177 95.77298 260.701841 101.983644 260.701841 109.64534 Z" style="fill:#ea875d;"/>
	</g>
	<g id="surface4">
	</g>
</svg>
