<?xml version="1.0" encoding="utf-8"?>
<svg xmlns="http://www.w3.org/2000/svg" width="490pt" height="280pt" viewBox="0 0 490 280" version="1.1" xmlns:xlink="http://www.w3.org/1999/xlink">
	<g id="surface2">
		<path vector-effect="non-scaling-stroke" d="M 246.171778 83.605799 C 245.635639 84.095436 245.044793 83.988755 244.185877 83.996961" style="fill:none;stroke-width:0.50;stroke:#7f604a;"/>
		<path vector-effect="non-scaling-stroke" d="M 243.496556 115.861639 Q 243.447319 116.79441 243.729065 117.664267 Q 243.953368 118.353588 243.947897 118.681836 Q 243.936956 119.250799 243.731801 119.73223" style="fill:none;stroke-width:0.50;stroke:#6f7263;"/>
		<path vector-effect="non-scaling-stroke" d="M 243.409023 120.385991 Q 243.184721 120.831861 242.446162 120.51729" style="fill:none;stroke-width:0.50;stroke:#6f7263;"/>
		<path vector-effect="non-scaling-stroke" d="M 242.396925 120.331283 Q 242.421544 120.137069 242.279303 120.137069" style="fill:none;stroke-width:0.50;stroke:#6f7263;"/>
		<path vector-effect="non-scaling-stroke" d="M 248.026379 119.513398 Q 247.741897 119.672051 247.534007 120.008505 C 247.487505 120.085097 247.416385 120.14254 247.331587 120.169894 Q 247.052576 120.265633 246.787243 120.21366 C 246.549263 120.169894 246.376933 119.956533 246.385139 119.713082 L 246.431641 118.003457" style="fill:none;stroke-width:0.50;stroke:#6f7263;"/>
		<path vector-effect="non-scaling-stroke" d="M 246.639531 117.100775 Q 246.666885 117.015977 246.666885 116.917503" style="fill:none;stroke-width:0.50;stroke:#6f7263;"/>
		<path vector-effect="non-scaling-stroke" d="M 246.702445 116.82997 Q 246.858363 116.545489 246.738005 116.222711" style="fill:none;stroke-width:0.50;stroke:#6f7263;"/>
		<path d="M 246.171778 83.605799 C 245.635639 84.095436 245.044793 83.988755 244.185877 83.996961 Q 243.967045 82.530787 243.947897 82.098593 C 243.540323 73.29334 242.271097 64.362258 239.497401 56.183411 Q 237.027335 48.899041 234.343907 43.570481 Q 232.595986 40.096523 229.573369 34.735138 C 229.182207 34.037611 229.294358 33.457706 229.327183 32.69453 C 229.565163 27.095165 231.871105 21.350825 235.134438 16.853827 C 238.099611 12.767139 241.067521 9.8047 244.864256 5.614067 C 245.036586 5.425324 245.334745 5.422589 245.507075 5.608596 Q 250.387029 10.838682 254.506542 16.118004 Q 255.452991 17.332522 257.241942 20.426259 Q 259.71748 24.712632 260.784286 29.360077 Q 261.159036 31.001317 261.235627 32.32525 C 261.243833 32.464756 261.208273 32.601526 261.134417 32.719148 C 260.032051 34.44245 258.59323 36.483059 257.622163 38.20089 Q 254.594075 43.567745 252.383872 49.826341 Q 248.516016 60.778884 247.200288 71.367618 Q 246.568411 76.447256 246.171778 83.605799 Z" style="fill:#ac6a4a;"/>
		<path d="M 223.525399 19.353983 C 224.034183 16.654142 225.544124 14.071925 227.251014 11.645625 C 227.338547 11.519796 227.521819 11.517061 227.617558 11.637418 Q 229.504984 14.077395 230.566319 16.851091 C 231.001248 17.991753 230.09583 19.936623 229.474894 21.408268 C 228.304143 24.187435 227.434286 26.939247 226.947385 29.852449 Q 226.84891 30.443295 226.534339 29.931775 Q 224.923188 27.327674 223.984946 24.553978 Q 223.060381 21.824049 223.525399 19.353983 Z" style="fill:#cf978c;"/>
		<path d="M 263.415741 27.554712 Q 262.45288 24.403531 260.863612 21.621629 Q 259.939047 20.002272 259.484971 19.176181 C 258.83121 17.980812 259.173135 16.73894 259.794071 15.592807 Q 260.776079 13.784708 262.228577 11.826161 C 262.337993 11.678449 262.565031 11.68392 262.666241 11.837103 C 264.490753 14.567032 266.802166 18.938202 266.085491 22.321892 C 265.885807 23.257399 265.721683 24.469181 265.508322 25.226887 Q 264.991331 27.040457 264.025735 29.07833 Q 263.678339 29.814153 263.61816 29.001739 C 263.585336 28.542192 263.585336 28.109999 263.415741 27.554712 Z" style="fill:#cf978c;"/>
		<path d="M 268.19175 22.904532 Q 272.751662 27.571125 274.852449 33.772277 Q 277.038034 40.230557 276.687903 47.019821 Q 276.594899 48.806037 276.028671 51.308928 Q 275.503474 53.642225 274.838772 55.474943 C 270.992799 66.074619 263.37471 75.325742 253.297495 80.706275 Q 251.765671 81.524159 250.04784 81.90438 C 249.902864 81.937205 249.757887 81.857878 249.705915 81.721108 Q 249.377667 80.870399 249.194395 79.836417 Q 248.682875 76.980659 248.825116 74.239788 Q 248.877088 73.276928 249.235426 70.626325 Q 249.495289 68.719751 249.831743 67.051157 Q 250.676982 62.833169 251.541368 59.526071 Q 252.567143 55.600771 254.257621 50.953326 Q 256.579976 44.560696 259.999226 39.319669 Q 263.590806 33.813308 264.838149 31.860232 C 266.553245 29.176805 267.773233 26.345666 267.759556 23.082333 Q 267.759556 22.458662 268.19175 22.904532 Z" style="fill:#ac6a4a;"/>
		<path d="M 214.019883 38.430664 C 215.001892 33.162283 218.019038 27.601214 222.190524 24.149139 C 222.264379 24.08896 222.376531 24.127256 222.395679 24.222995 Q 223.041233 27.584802 224.854803 30.481591 Q 226.728553 33.474119 228.161902 35.665174 Q 230.153274 38.704204 231.050485 40.260647 Q 235.788198 48.480524 238.436066 56.514395 Q 239.240273 58.959843 240.20587 62.726489 C 241.439535 67.546264 242.024911 72.360568 242.19177 77.29523 C 242.241007 78.750463 242.385984 80.859457 242.273832 82.801591 C 242.268361 82.867241 242.202712 82.913743 242.139798 82.891859 Q 241.682986 82.741412 240.679094 82.347515 C 231.819132 78.868086 224.35149 72.188238 219.419563 64.044952 Q 215.352023 57.335015 214.066385 49.716925 Q 213.86123 48.510614 213.776432 47.446543 Q 213.72446 46.784576 213.593161 45.167955 Q 213.344239 42.052334 214.019883 38.430664 Z" style="fill:#cf978c;"/>
		<path d="M 243.496556 115.861639 Q 243.447319 116.79441 243.729065 117.664267 Q 243.953368 118.353588 243.947897 118.681836 Q 243.936956 119.250799 243.731801 119.73223 L 243.409023 120.385991 Q 243.184721 120.831861 242.446162 120.51729 Q 242.399661 120.459846 242.396925 120.331283 Q 242.421544 120.137069 242.279303 120.137069 Q 241.029225 116.140649 239.754529 112.14423 Q 237.979254 106.57769 234.196195 99.446502 Q 227.415138 86.658506 215.754127 78.129528 Q 210.581485 74.346469 207.988326 72.16909 Q 204.815261 69.504811 200.777811 65.22938 Q 199.158454 63.514284 197.309323 60.940272 Q 194.136259 56.528072 191.912378 51.555114 Q 190.273874 47.886942 189.338367 44.995624 C 188.897967 43.63066 188.698283 42.580266 188.318062 40.79952 C 188.282502 40.638132 188.380977 40.476743 188.542365 40.435712 Q 188.670929 40.400152 188.947204 40.482214 C 189.992127 40.79405 191.838523 41.992155 193.020215 42.930397 Q 199.883335 48.387521 206.03525 55.403822 Q 210.565073 60.570993 211.705734 61.971518 Q 217.233978 68.766253 219.373061 71.739633 Q 222.228819 75.705963 225.448385 79.997806 Q 226.553487 81.472187 230.243542 86.888279 Q 236.24501 95.701739 240.216811 105.521826 Q 240.941692 107.313513 241.639219 109.556541 Q 241.926436 110.483842 242.872885 113.640494 Q 243.203868 114.751066 243.496556 115.861639 Z" style="fill:#8c8f7c;"/>
		<path d="M 248.026379 119.513398 Q 247.741897 119.672051 247.534007 120.008505 C 247.487505 120.085097 247.416385 120.14254 247.331587 120.169894 Q 247.052576 120.265633 246.787243 120.21366 C 246.549263 120.169894 246.376933 119.956533 246.385139 119.713082 L 246.431641 118.003457 L 246.639531 117.100775 Q 246.666885 117.015977 246.666885 116.917503 Q 246.683297 116.873737 246.702445 116.82997 Q 246.858363 116.545489 246.738005 116.222711 C 246.978721 115.194201 247.413649 114.113718 247.668042 113.211036 Q 249.366725 107.19042 251.779348 102.017778 Q 252.162304 101.197158 252.258043 100.97559 Q 255.452991 93.683013 260.724107 86.136044 Q 262.469292 83.641359 264.184388 81.122055 Q 266.21132 78.148675 272.921257 69.209387 Q 277.390901 63.257156 282.837082 57.034121 C 288.042549 51.090096 292.870531 46.182788 298.669579 41.896416 Q 300.075575 40.859699 301.995826 40.45486 C 302.053269 40.443918 302.102506 40.49042 302.097036 40.547864 Q 301.998561 41.338394 301.623811 42.654122 C 298.294829 54.367106 291.702515 64.351317 282.415831 71.99676 Q 280.588583 73.50123 280.172803 73.856832 C 278.851604 74.994759 277.286955 76.042417 275.601949 77.349939 C 273.802055 78.744993 271.761447 80.175607 269.947877 81.830524 Q 264.26645 87.019578 259.82416 93.42315 Q 258.49202 95.343401 256.946519 98.073331 Q 252.703913 105.576534 249.922011 113.842913 Q 249.604705 114.783891 249.322959 115.678367 Q 248.789556 117.366109 248.737583 117.505614 Q 248.362833 118.534125 248.026379 119.513398 Z" style="fill:#8c8f7c;"/>
		<path d="M 244.916229 131.847318 Q 245.014703 132.030589 245.080353 131.833641 Q 246.855628 126.543377 249.290134 121.012397 Q 252.222483 114.348962 255.597967 109.397888 C 259.583445 103.552337 264.085914 97.99674 269.171023 93.018311 Q 274.926305 87.386122 281.649919 82.99854 Q 284.661594 81.031787 288.08358 79.281131 Q 290.838128 77.869665 293.048332 76.997072 Q 298.806349 74.723954 305.540904 72.78182 Q 305.713235 72.732583 305.617496 72.88303 Q 304.917233 74.007279 304.463157 74.557095 Q 301.311976 78.372978 297.944698 81.852407 Q 296.308929 83.542885 294.350382 85.307218 Q 288.9042 90.217261 283.923036 92.985486 Q 280.12083 95.097215 277.672647 96.6646 Q 272.836459 99.761073 268.736094 103.659018 Q 265.174603 107.042708 262.045305 110.576845 Q 254.25215 119.373892 248.997446 129.683616 C 248.072881 131.494451 247.227642 133.515912 246.428905 135.649524 C 246.103393 136.516646 246.103393 137.236056 246.097922 138.152415 Q 246.062362 145.603645 246.108863 152.537885 Q 246.114334 153.251825 245.422278 153.424155 Q 245.222594 153.473392 245.176092 153.470657 Q 244.163994 153.361241 244.166729 152.428469 Q 244.188612 145.931893 244.183142 137.558833 Q 244.183142 136.839423 244.051842 136.415436 Q 243.288666 133.964517 242.186299 131.612073 Q 237.259844 121.113607 229.652695 112.204408 Q 228.427236 110.768323 225.639863 107.803149 Q 219.723193 101.503523 213.174644 97.187061 Q 211.992952 96.410207 211.396634 96.002633 Q 210.359918 95.288693 209.539297 94.812734 Q 207.296269 93.505212 205.034093 92.233251 Q 203.770338 91.522047 200.835254 89.366552 Q 198.770027 87.85114 196.855247 86.168869 Q 190.230107 80.350673 184.647155 73.112804 Q 184.26967 72.623167 184.860516 72.800968 Q 189.847151 74.294496 193.135102 75.465248 Q 195.958035 76.471875 198.225682 77.46209 Q 202.317841 79.245571 206.691746 81.890703 Q 207.621782 82.45146 207.947295 82.642938 Q 208.860918 83.184547 209.161812 83.400644 C 210.428303 84.314268 211.847975 85.236097 213.037874 86.185281 Q 217.023353 89.35561 220.655964 92.681857 Q 221.744653 93.677543 224.233868 96.284379 Q 225.962641 98.092479 230.673 103.935293 Q 233.143066 107.001677 236.835857 112.956643 Q 237.194194 113.533813 237.503294 114.190309 C 237.741274 114.699093 238.170732 115.287205 238.427859 115.834285 C 238.922967 116.89562 239.52202 117.995251 240.022598 119.146854 Q 240.183986 119.513398 240.359052 119.718553 Q 240.591561 119.986622 240.640798 120.290252 C 240.717389 120.774417 241.250793 121.608714 241.439535 122.142118 Q 242.208183 124.314025 243.247635 126.745796 C 243.767361 127.963049 244.213231 129.552317 244.557891 130.435851 C 244.743899 130.911811 244.68372 131.41786 244.916229 131.847318 Z" style="fill:#515549;"/>
		<path d="M 246.171778 83.605799 Q 246.040478 90.537303 246.108863 97.482484 C 246.179984 104.438607 246.073303 111.635445 246.11707 117.801037 Q 246.119805 117.956955 246.22375 118.203141 Q 246.292135 118.359059 246.355049 118.200406 L 246.431641 118.003457 L 246.385139 119.713082 C 246.376933 119.956533 246.549263 120.169894 246.787243 120.21366 Q 247.052576 120.265633 247.331587 120.169894 C 247.416385 120.14254 247.487505 120.085097 247.534007 120.008505 Q 247.741897 119.672051 248.026379 119.513398 C 247.6571 120.577469 247.082666 121.597773 246.880246 122.618077 C 246.565675 124.190932 246.305812 125.345271 245.731378 126.680147 C 245.342951 127.588299 245.222594 128.44448 245.118648 129.377251 Q 245.110442 129.456578 245.02838 129.453842 Q 244.990085 129.453842 244.954524 129.440165 Q 244.935377 129.431959 244.932641 129.410076 C 244.875198 128.723491 244.880669 128.269414 244.724751 127.722334 Q 243.679828 124.106135 242.446162 120.51729 Q 243.184721 120.831861 243.409023 120.385991 Q 243.146425 121.5458 243.491085 122.355479 Q 243.802921 123.091301 243.838481 122.292565 Q 243.887718 121.244906 243.731801 119.73223 Q 243.936956 119.250799 243.947897 118.681836 Q 243.953368 118.353588 243.729065 117.664267 Q 243.447319 116.79441 243.496556 115.861639 L 243.895925 117.806508 Q 243.909602 117.874893 243.96978 117.839333 L 244.095609 117.768213 C 244.133904 117.746329 244.155788 117.705298 244.155788 117.661532 L 244.185877 83.996961 C 245.044793 83.988755 245.635639 84.095436 246.171778 83.605799 Z" style="fill:#515549;"/>
		<path d="M 246.738005 116.222711 Q 246.858363 116.545489 246.702445 116.82997 L 246.738005 116.222711 Z" style="fill:#515549;"/>
		<path d="M 246.666885 116.917503 Q 246.666885 117.015977 246.639531 117.100775 L 246.666885 116.917503 Z" style="fill:#515549;"/>
		<path d="M 242.396925 120.331283 L 242.279303 120.137069 Q 242.421544 120.137069 242.396925 120.331283 Z" style="fill:#515549;"/>
	</g>
	<g id="surface4">
	</g>
</svg>
