<?xml version="1.0" encoding="utf-8"?>
<svg xmlns="http://www.w3.org/2000/svg" width="490pt" height="280pt" viewBox="0 0 490 280" version="1.1" xmlns:xlink="http://www.w3.org/1999/xlink">
	<g id="surface2">
		<path vector-effect="non-scaling-stroke" d="M 282.487724 64.835758 Q 273.835554 56.032459 265.128428 47.455854 Q 263.665218 46.016688 260.343802 42.939139" style="fill:none;stroke-width:0.50;stroke:#b3ab79;"/>
		<path vector-effect="non-scaling-stroke" d="M 262.631355 85.60234 L 241.088516 64.097284" style="fill:none;stroke-width:0.50;stroke:#846f41;"/>
		<path vector-effect="non-scaling-stroke" d="M 238.694486 110.239901 Q 228.338673 100.014609 218.079034 89.696578 Q 217.811122 89.425232 217.526037 89.346233" style="fill:none;stroke-width:0.50;stroke:#677b76;"/>
		<path d="M 180.746586 27.341877 Q 179.692114 23.927722 178.706337 20.09796 Q 178.671989 19.964005 178.400643 19.335443 C 178.235774 18.957619 178.270122 18.57636 178.173948 18.229449 Q 176.504653 12.232351 175.010531 7.196988 C 174.95214 7.001206 175.134182 6.819164 175.329964 6.880989 Q 175.948221 7.076771 176.573348 7.093945 C 177.56256 7.124858 178.562077 7.784332 179.523811 7.767158 C 180.207329 7.753419 180.725978 8.086591 181.447278 8.134678 Q 181.941884 8.169026 182.230404 8.237721 Q 184.679391 8.831935 188.467935 9.508584 Q 189.917406 9.769626 191.789352 10.29171 Q 192.644608 10.528708 193.146084 10.532143 C 193.77808 10.535578 194.272686 10.762272 194.973378 10.87562 Q 196.996454 11.208792 199.01266 11.727441 Q 199.823264 11.933527 200.276653 11.902614 Q 200.778129 11.871701 201.12504 12.088091 Q 201.300213 12.198004 201.939079 12.290742 Q 203.319854 12.489959 204.631934 12.823131 Q 205.178061 12.963956 206.256577 13.987516 Q 207.29731 14.976728 217.234082 25.140194 Q 217.519167 25.432148 235.620372 43.736005 Q 235.64785 43.766917 236.623323 44.591261 Q 237.231277 45.10304 237.561014 45.748776 Q 237.640013 45.90334 237.564449 46.05447 C 237.186625 46.830727 236.300456 47.380289 235.857371 47.837112 Q 221.970621 62.111991 221.699275 62.393641 Q 221.273364 62.833291 221.156582 62.932899 C 220.782193 63.259202 220.627629 63.71946 220.263544 63.966763 Q 220.050588 64.111023 219.817024 64.361761 Q 218.024078 66.305837 215.643786 68.771998 Q 215.630047 68.785737 215.286571 69.280343 Q 215.08392 69.568863 214.86066 69.634123 Q 214.692357 69.68221 214.575575 69.558558 Q 213.387147 68.311739 211.923937 66.824487 Q 197.724624 52.422522 189.230453 43.746309 Q 185.706385 40.150111 184.590087 38.947944 Q 183.545919 37.824776 183.054748 35.908178 Q 182.553272 33.946928 181.543452 30.110297 Q 181.49193 29.91108 181.13128 28.952781 Q 180.997324 28.595566 180.921759 28.155916 Q 180.825586 27.602919 180.746586 27.341877 Z" style="fill:#2b3130;"/>
		<path d="M 282.487724 64.835758 Q 273.835554 56.032459 265.128428 47.455854 Q 263.665218 46.016688 260.343802 42.939139 Q 272.609343 29.553865 285.060362 16.268199 C 285.524055 15.773593 285.898444 15.560637 286.588832 15.354552 Q 288.381779 14.811859 294.196834 13.290259 Q 305.480033 10.343231 314.753895 7.825549 C 314.922198 7.780897 315.073328 7.935462 315.025241 8.103765 L 305.974639 39.497506 C 305.885335 39.81007 305.720466 40.095155 305.500641 40.332154 L 282.487724 64.835758 Z" style="fill:#89a8a0;"/>
		<path d="M 260.343802 42.939139 Q 263.665218 46.016688 265.128428 47.455854 Q 273.835554 56.032459 282.487724 64.835758 L 262.631355 85.60234 L 241.088516 64.097284 L 260.343802 42.939139 Z" style="fill:#dcad52;"/>
		<path d="M 241.088516 64.097284 L 262.631355 85.60234 Q 259.512589 88.779497 256.397258 92.025348 Q 253.549839 94.986115 248.109173 100.739344 Q 243.832893 105.259493 239.518829 109.748729 Q 239.3677 109.906728 239.127266 110.03038 Q 238.876528 110.160901 238.694486 110.239901 Q 228.338673 100.014609 218.079034 89.696578 Q 217.811122 89.425232 217.526037 89.346233 Q 217.491689 89.033669 217.598167 88.920322 Q 228.352412 77.53408 239.168483 66.206229 Q 240.133652 65.199843 241.088516 64.097284 Z" style="fill:#2b3130;"/>
		<path d="M 238.694486 110.239901 C 238.509009 110.67955 238.357879 111.036766 238.021272 111.390546 Q 214.816008 135.660587 205.524972 145.308839 Q 205.037236 145.817184 204.357153 146.002661 Q 194.574945 148.692081 176.277959 153.359925 Q 175.803961 153.480142 175.632223 153.531663 Q 175.45705 153.586619 175.45705 153.404577 Q 175.453616 152.618016 175.597876 152.212714 Q 176.171481 150.591505 178.455599 142.873591 Q 181.278975 133.324948 183.731396 124.758647 Q 183.848178 124.353345 184.136698 124.044216 Q 200.451826 106.746746 216.430347 90.25301 C 216.760085 89.909534 217.220343 89.751535 217.526037 89.346233 Q 217.811122 89.425232 218.079034 89.696578 Q 228.338673 100.014609 238.694486 110.239901 Z" style="fill:#a2c4bb;"/>
		<path d="M 313.30099 148.386387 Q 313.318163 148.461952 313.345642 148.510038 Q 313.369685 148.55469 313.383424 148.602777 L 315.155762 154.290746 C 315.258805 154.613614 314.977154 154.926177 314.643982 154.860917 Q 307.252371 153.377099 299.610021 151.992889 Q 298.775374 151.841759 298.771939 151.841759 C 298.150247 151.563543 297.432381 151.639108 296.762602 151.46737 Q 295.859259 151.233806 295.605087 151.189154 Q 288.87295 150.01103 286.375877 149.537033 Q 284.692842 149.2176 284.105498 148.606212 Q 283.676152 148.152823 282.889591 147.352523 Q 270.521007 134.743505 257.012081 121.217406 Q 255.837392 120.039282 254.11314 118.445551 C 253.83149 118.184509 253.821186 117.744859 254.085662 117.470078 L 275.783065 94.907115 C 276.233019 94.436552 276.981798 94.422813 277.45236 94.876202 Q 278.177095 95.576894 279.355219 96.772192 Q 288.017694 105.551448 301.51288 119.441633 Q 304.999166 123.027526 306.081116 124.233128 C 306.613505 124.820473 306.771504 125.558947 306.987894 126.345508 Q 308.72245 132.668908 312.19843 144.48793 Q 312.823557 146.614049 313.30099 148.386387 Z" style="fill:#b75134;"/>
	</g>
	<g id="surface4">
	</g>
</svg>
