<?xml version="1.0" encoding="utf-8"?>
<svg xmlns="http://www.w3.org/2000/svg" width="490pt" height="280pt" viewBox="0 0 490 280" version="1.1" xmlns:xlink="http://www.w3.org/1999/xlink">
	<g id="surface2">
		<path d="M 310.729654 42.598992 Q 307.518635 43.275588 304.979391 43.598618 Q 303.460665 43.791472 298.099324 44.419855 Q 296.092036 44.656101 294.926876 44.903597 Q 291.230508 45.689477 287.770386 47.254809 Q 283.527598 49.173706 279.198026 51.621345 Q 275.138449 53.916307 270.969589 56.410552 Q 270.2946 53.966128 269.889607 52.836325 C 266.99519 44.778242 260.528152 38.48638 252.29168 36.085348 C 240.426338 32.623619 227.849043 37.867641 221.711465 48.535681 C 218.105095 54.805043 217.351357 62.180101 219.331325 69.129273 Q 219.665605 70.304075 220.099527 71.639589 Q 219.291147 71.302095 218.182237 70.750854 Q 216.118699 69.722299 214.807292 68.970168 C 214.612831 68.859277 214.368549 68.610174 214.141945 68.51214 C 213.769094 68.349821 213.450885 68.020362 213.069999 67.822687 Q 212.682684 67.623405 212.518758 67.510906 Q 209.015243 65.113088 208.356326 64.626132 Q 206.628675 63.351689 202.022679 59.791925 C 199.888428 58.143024 197.276864 56.298054 195.431894 55.089502 Q 190.231264 51.685629 183.916903 49.5337 Q 180.310534 48.305863 178.335387 47.725694 C 178.097534 47.654981 177.878966 47.516769 177.639506 47.420342 Q 183.818869 33.665031 194.504588 23.413234 Q 197.011689 21.008987 200.614845 18.199747 Q 201.937502 17.167979 203.20391 16.2921 C 212.629649 9.773635 223.545185 5.641738 234.915535 3.973551 Q 244.857158 2.514289 254.925744 3.859446 C 265.045757 5.211031 275.013094 8.605261 283.741345 13.936067 Q 291.298007 18.551706 297.734509 24.976958 C 299.741798 26.979425 301.244452 28.755289 303.123171 31.048645 Q 307.518635 36.4132 310.729654 42.598992 Z" style="fill:#ce9741;"/>
		<path d="M 270.969589 56.410552 Q 267.813212 58.250701 265.516642 59.512287 Q 259.477098 62.827769 252.237038 65.238444 Q 248.977805 66.323247 247.846395 66.610921 Q 245.94839 67.093056 245.355364 67.318052 C 245.140011 67.400015 244.876444 67.383944 244.667518 67.469121 Q 244.275382 67.63144 243.092544 68.026791 Q 240.65937 68.843206 238.526726 70.01158 L 236.210871 71.406557 Q 232.708964 73.515094 228.776349 74.840965 Q 226.881559 74.4424 224.584989 73.544022 Q 221.807892 72.457611 220.099527 71.639589 Q 219.665605 70.304075 219.331325 69.129273 C 217.351357 62.180101 218.105095 54.805043 221.711465 48.535681 C 227.849043 37.867641 240.426338 32.623619 252.29168 36.085348 C 260.528152 38.48638 266.99519 44.778242 269.889607 52.836325 Q 270.2946 53.966128 270.969589 56.410552 Z" style="fill:#f5d48f;"/>
		<path d="M 310.729654 42.598992 L 312.627659 46.454465 Q 312.209808 46.615176 311.819279 46.711603 C 306.35669 48.058367 301.143203 50.154047 296.050251 52.52133 C 288.946795 55.822347 283.722059 58.477304 274.421675 63.15562 Q 270.982446 64.886485 266.294487 67.068949 Q 264.454338 66.506459 262.689724 66.913059 Q 262.709009 66.726634 262.636689 66.728241 Q 260.682435 66.779668 258.800502 67.070557 Q 258.263725 66.998236 257.537308 67.146091 Q 253.892368 67.883758 252.547211 68.193931 Q 251.888293 68.086254 251.348302 68.174646 Q 248.511741 68.640709 244.778409 69.481231 C 242.600766 69.971402 240.452052 70.861745 238.698687 72.216544 C 238.333872 72.497789 238.054234 72.822427 237.613884 73.270812 C 237.126927 73.767411 236.577293 74.064728 235.987482 74.294546 Q 234.986248 74.685075 233.941622 74.955071 Q 231.386307 75.615596 228.776349 74.840965 Q 232.708964 73.515094 236.210871 71.406557 L 238.526726 70.01158 Q 240.65937 68.843206 243.092544 68.026791 Q 244.275382 67.63144 244.667518 67.469121 C 244.876444 67.383944 245.140011 67.400015 245.355364 67.318052 Q 245.94839 67.093056 247.846395 66.610921 Q 248.977805 66.323247 252.237038 65.238444 Q 259.477098 62.827769 265.516642 59.512287 Q 267.813212 58.250701 270.969589 56.410552 Q 275.138449 53.916307 279.198026 51.621345 Q 283.527598 49.173706 287.770386 47.254809 Q 291.230508 45.689477 294.926876 44.903597 Q 296.092036 44.656101 298.099324 44.419855 Q 303.460665 43.791472 304.979391 43.598618 Q 307.518635 43.275588 310.729654 42.598992 Z" style="fill:#b1c1b3;"/>
		<path d="M 315.261723 52.940787 Q 311.174825 53.853629 307.896307 55.283963 Q 299.412339 58.983546 298.407891 59.412646 Q 292.345847 62.011353 286.071664 64.033106 C 283.73813 64.785237 280.584968 65.559867 278.730355 66.177 Q 273.732222 67.84358 268.306597 70.252647 Q 263.202394 72.521896 257.066423 74.408651 Q 255.202168 74.982392 252.177574 75.363278 Q 252.145432 75.366492 252.130968 75.379349 Q 252.122932 75.385778 252.087576 75.411492 Q 252.023291 75.456491 252.098826 75.482205 L 252.219359 75.522383 Q 251.859365 75.548097 251.10402 75.392206 Q 249.53226 75.065962 248.521384 74.554899 Q 249.032447 74.635254 249.522618 74.744538 Q 249.996717 74.852215 250.371175 74.792752 Q 250.95938 74.699539 251.19884 74.564541 Q 256.679108 71.490127 258.9355 70.366753 Q 261.43778 69.11963 266.294487 67.068949 Q 270.982446 64.886485 274.421675 63.15562 C 283.722059 58.477304 288.946795 55.822347 296.050251 52.52133 C 301.143203 50.154047 306.35669 48.058367 311.819279 46.711603 Q 312.209808 46.615176 312.627659 46.454465 Q 314.10942 49.681555 315.261723 52.940787 Z" style="fill:#98a899;"/>
		<path d="M 177.639506 47.420342 C 177.878966 47.516769 178.097534 47.654981 178.335387 47.725694 Q 180.310534 48.305863 183.916903 49.5337 Q 190.231264 51.685629 195.431894 55.089502 C 197.276864 56.298054 199.888428 58.143024 202.022679 59.791925 Q 206.628675 63.351689 208.356326 64.626132 Q 209.015243 65.113088 212.518758 67.510906 Q 212.682684 67.623405 213.069999 67.822687 C 213.450885 68.020362 213.769094 68.349821 214.141945 68.51214 C 214.368549 68.610174 214.612831 68.859277 214.807292 68.970168 Q 216.118699 69.722299 218.182237 70.750854 Q 219.291147 71.302095 220.099527 71.639589 Q 221.807892 72.457611 224.584989 73.544022 Q 226.881559 74.4424 228.776349 74.840965 Q 231.386307 75.615596 233.941622 74.955071 Q 234.986248 74.685075 235.987482 74.294546 C 236.577293 74.064728 237.126927 73.767411 237.613884 73.270812 C 238.054234 72.822427 238.333872 72.497789 238.698687 72.216544 C 240.452052 70.861745 242.600766 69.971402 244.778409 69.481231 Q 248.511741 68.640709 251.348302 68.174646 Q 251.888293 68.086254 252.547211 68.193931 Q 248.828343 69.015168 245.212331 70.183541 C 243.418789 70.765318 241.585069 72.316185 241.810065 74.317045 C 241.843815 74.615969 242.036668 74.783109 242.232737 74.990427 Q 242.152381 74.967928 242.150774 74.967928 C 242.092918 74.996856 242.062382 75.064355 242.081668 75.127032 C 242.444876 76.380583 242.75505 77.079679 242.536482 78.055199 Q 242.321128 79.014647 241.33918 79.247679 Q 239.447604 79.696065 237.734417 80.295519 Q 237.263532 80.459445 236.858539 80.462659 Q 230.57632 80.507659 224.376064 79.919454 C 221.597359 79.655887 218.511696 79.173752 215.938702 78.83465 Q 207.798656 77.765918 200.029854 77.351282 Q 197.805605 77.232355 196.825264 77.105393 Q 194.245842 76.77272 191.891416 76.072017 Q 188.023086 74.919714 182.960669 73.22742 Q 177.554329 71.421021 171.231932 71.486913 Q 171.770316 64.745059 173.782426 57.856957 Q 175.407221 52.304369 177.639506 47.420342 Z" style="fill:#98a899;"/>
		<path d="M 315.261723 52.940787 Q 319.838791 66.47753 319.183087 80.669977 Q 319.146124 81.481571 319.051304 82.412092 C 318.988626 83.02601 318.972555 83.930817 318.872914 84.753661 Q 317.762396 93.959225 315.072083 101.358389 Q 311.414286 111.410904 305.315278 120.245224 Q 303.653519 122.652685 301.850335 124.741936 Q 297.861471 118.748998 293.732789 112.802667 C 289.923922 107.315971 285.920595 101.980344 281.740484 96.789357 Q 276.703781 90.531245 271.032266 85.041335 Q 267.92571 82.034419 264.157022 79.948382 Q 260.605294 77.982878 257.260884 76.751827 Q 254.965922 75.906484 252.219359 75.522383 L 252.098826 75.482205 Q 252.023291 75.456491 252.087576 75.411492 Q 252.122932 75.385778 252.130968 75.379349 Q 252.145432 75.366492 252.177574 75.363278 Q 255.202168 74.982392 257.066423 74.408651 Q 263.202394 72.521896 268.306597 70.252647 Q 273.732222 67.84358 278.730355 66.177 C 280.584968 65.559867 283.73813 64.785237 286.071664 64.033106 Q 292.345847 62.011353 298.407891 59.412646 Q 299.412339 58.983546 307.896307 55.283963 Q 311.174825 53.853629 315.261723 52.940787 Z" style="fill:#526874;"/>
		<path d="M 262.689724 66.913059 Q 256.116617 68.107147 249.742793 70.104793 C 248.424957 70.517822 246.462668 71.429057 246.549452 73.029745 C 246.755163 73.854196 247.983 74.625612 248.712631 74.92775 Q 249.22048 75.139889 250.88706 75.532025 Q 251.796688 75.745772 252.682209 75.901662 C 253.595051 76.062374 254.536822 76.338798 255.198954 76.567009 Q 258.916214 77.844666 262.442228 80.186235 Q 265.18879 82.008705 267.062688 83.970995 Q 268.896408 85.888285 270.881197 88.72806 Q 272.642597 91.248019 273.360978 92.440499 Q 277.748407 99.731987 281.57013 107.425255 C 284.417941 113.161054 287.158075 118.985244 289.705354 124.888184 Q 291.532646 129.119722 293.456365 133.35126 Q 290.812658 135.456583 289.409645 136.478709 Q 282.815645 141.280773 275.713797 144.480542 Q 274.680421 144.946606 270.781556 146.587472 Q 269.868714 131.543254 269.201761 123.607312 Q 268.409452 114.188001 267.072331 103.677459 Q 266.758943 101.21857 266.112882 97.237742 C 265.402537 92.85835 264.54273 88.96752 262.995076 85.092762 C 261.833131 82.183881 260.005839 79.633387 257.170886 78.087341 Q 255.441628 77.143963 254.824495 76.896468 Q 253.643265 76.422368 251.425444 75.946662 L 249.999931 75.605953 Q 249.979039 75.601132 249.962968 75.615596 Q 249.946896 75.633274 249.942075 75.652559 Q 249.932432 75.699166 249.977432 75.710415 L 251.346695 76.076838 Q 251.692225 76.054338 251.947757 76.155587 Q 252.441141 76.351655 252.45882 76.354869 Q 254.462894 76.832183 256.314292 77.796453 C 260.465475 79.956418 262.021164 83.935638 262.692938 88.32146 C 263.369534 92.742637 263.584888 97.247385 263.657208 101.697491 Q 263.837205 112.966593 263.181502 124.974968 Q 262.689724 133.97 262.562762 135.782827 Q 262.07902 142.667715 261.585635 149.546174 Q 257.122672 150.47348 253.707549 150.83026 Q 249.254229 151.296324 243.548965 151.196683 C 241.532034 151.161326 239.204929 150.95883 237.204069 150.809368 Q 236.818361 150.778832 236.432653 150.677584 Q 236.879431 149.276178 237.355138 147.858702 Q 243.258077 130.262382 251.457586 105.888851 C 253.720406 99.163068 255.171633 94.892959 256.7225 89.333943 C 257.403918 86.891126 258.062835 84.01278 257.898909 81.486393 Q 257.760697 79.352142 255.951084 78.223946 C 254.061115 77.045929 252.135789 76.528438 249.975825 76.010946 Q 249.932432 76.001304 249.932432 76.035053 L 249.932432 76.03666 C 249.93404 76.057553 249.943682 76.073624 249.956539 76.076838 Q 251.285625 76.444868 252.979526 76.999323 C 255.497877 77.825381 257.432846 79.194644 256.714465 82.241737 C 256.185723 84.483665 255.431985 86.389705 254.480572 88.575384 Q 252.884706 92.242824 250.98188 96.122404 Q 246.237671 105.797246 243.012188 112.233748 C 240.643298 116.955456 237.964235 122.48233 233.948051 130.652911 Q 233.400024 131.771464 232.496824 133.520007 Q 228.757064 140.761675 225.221407 148.016199 C 225.144266 148.172089 225.022125 148.286195 224.940162 148.446906 Q 212.592685 144.79393 202.003394 137.476728 Q 200.521632 136.452995 199.158797 135.389084 Q 200.097353 134.354101 201.003767 133.370545 Q 207.665265 126.135306 214.503547 119.068815 Q 226.29014 106.890085 235.293207 97.993087 Q 241.973991 91.391052 244.124313 89.427156 Q 247.298368 86.524703 250.985094 83.029225 Q 252.200074 81.875315 253.140237 80.687656 Q 253.625586 80.07213 253.660943 79.294285 C 253.717192 78.032699 251.595798 77.071643 250.6026 76.718078 Q 249.13691 76.194158 245.432506 75.016141 Q 244.752696 74.800787 244.474664 74.204547 C 244.169312 73.547236 244.116277 72.695465 244.465022 72.051011 Q 244.481093 72.022083 244.810552 71.437092 Q 244.812159 71.435485 244.815373 71.437092 Q 244.913407 71.51102 244.812159 71.433878 Q 244.808945 71.430664 244.80573 71.433878 Q 244.217526 72.04619 244.116277 72.897961 C 244.068064 73.301348 244.223954 74.120977 244.415201 74.429544 Q 244.693232 74.874715 244.976085 74.98882 Q 245.737858 75.295779 248.809058 76.2488 C 250.249034 76.695578 253.820048 78.090555 251.57812 80.168557 Q 250.825989 80.866046 249.840827 81.603712 C 244.301096 85.756501 238.644045 89.759829 233.298775 94.160114 Q 224.53999 101.368032 217.441356 107.582752 C 214.185338 110.43217 212.761432 111.640722 210.460041 113.72033 Q 201.551794 121.773592 192.637118 129.83971 Q 192.232125 129.529537 192.056949 129.341504 Q 189.972519 127.091541 189.451813 126.524229 Q 186.030262 122.803754 183.145487 118.660607 C 182.361214 117.534018 181.4998 116.110113 180.667313 114.840491 C 192.037664 107.788463 203.678009 101.208928 215.459781 94.878495 Q 217.103861 93.996188 218.301163 93.375841 Q 230.957207 86.815591 243.761105 80.547836 Q 245.328043 79.781242 246.583201 79.030718 C 247.211584 78.654653 248.323709 77.857523 247.624613 76.980038 C 247.344975 76.629686 246.510881 76.227907 246.152494 76.102552 Q 244.215919 75.41792 243.05558 74.919714 C 241.416321 74.215797 242.2922 72.682608 243.053973 71.766551 Q 243.732177 70.95335 244.699661 70.59657 Q 246.491596 69.93926 248.619418 69.365519 Q 253.627194 68.013934 258.800502 67.070557 Q 260.682435 66.779668 262.636689 66.728241 Q 262.709009 66.726634 262.689724 66.913059 Z M 246.486774 70.582106 Q 245.638217 71.467628 245.191438 72.611895 C 244.974478 73.163136 245.226795 73.605093 245.54179 74.085621 Q 245.70893 74.341152 246.158923 74.583827 Q 247.0798 75.082033 248.471563 75.705594 Q 248.919949 75.906484 249.426191 75.988447 Q 249.434226 75.990054 249.437441 75.983625 L 249.458333 75.946662 C 249.469583 75.927376 249.45994 75.904877 249.439048 75.898448 C 248.378351 75.583453 247.941215 75.33435 246.610522 74.669004 Q 245.78125 74.254368 245.533754 73.887945 Q 245.072512 73.203314 245.395542 72.386898 Q 245.752322 71.485306 246.56713 70.614249 Q 246.60088 70.577285 246.551059 70.575678 L 246.507667 70.574071 Q 246.49481 70.572464 246.486774 70.582106 Z M 249.865785 75.596776 C 249.872969 75.573811 249.858505 75.549704 249.835941 75.543147 L 248.271751 75.09759 C 248.248174 75.091676 248.224067 75.104532 248.218137 75.127434 L 248.211966 75.149066 C 248.204782 75.172031 248.219246 75.196138 248.24181 75.202695 L 249.806001 75.648252 C 249.829577 75.654166 249.853684 75.641309 249.859614 75.618408 L 249.865785 75.596776 Z" style="fill:#526874;"/>
		<path d="M 266.294487 67.068949 Q 261.43778 69.11963 258.9355 70.366753 Q 256.679108 71.490127 251.19884 74.564541 Q 250.95938 74.699539 250.371175 74.792752 Q 249.996717 74.852215 249.522618 74.744538 Q 249.032447 74.635254 248.521384 74.554899 Q 247.349796 74.042228 246.6732 72.952603 Q 246.633022 72.888319 246.549452 73.029745 C 246.462668 71.429057 248.424957 70.517822 249.742793 70.104793 Q 256.116617 68.107147 262.689724 66.913059 Q 264.454338 66.506459 266.294487 67.068949 Z" style="fill:#f5d48f;"/>
		<path d="M 258.800502 67.070557 Q 253.627194 68.013934 248.619418 69.365519 Q 246.491596 69.93926 244.699661 70.59657 Q 243.732177 70.95335 243.053973 71.766551 C 242.2922 72.682608 241.416321 74.215797 243.05558 74.919714 Q 244.215919 75.41792 246.152494 76.102552 C 246.510881 76.227907 247.344975 76.629686 247.624613 76.980038 C 248.323709 77.857523 247.211584 78.654653 246.583201 79.030718 Q 245.328043 79.781242 243.761105 80.547836 Q 230.957207 86.815591 218.301163 93.375841 Q 217.103861 93.996188 215.459781 94.878495 C 203.678009 101.208928 192.037664 107.788463 180.667313 114.840491 Q 179.886255 113.940505 179.444298 112.791417 Q 178.32253 109.876108 176.966124 107.007404 Q 198.459702 96.035619 220.92237 87.254334 Q 231.559875 83.096723 235.103567 81.849601 Q 239.426711 80.327661 243.700034 78.67876 C 244.162884 78.498763 246.322849 77.645384 245.949997 76.85629 C 245.601253 76.123444 244.140384 75.700773 243.232363 75.437206 C 242.88844 75.335957 242.54291 75.163996 242.232737 74.990427 C 242.036668 74.783109 241.843815 74.615969 241.810065 74.317045 C 241.585069 72.316185 243.418789 70.765318 245.212331 70.183541 Q 248.828343 69.015168 252.547211 68.193931 Q 253.892368 67.883758 257.537308 67.146091 Q 258.263725 66.998236 258.800502 67.070557 Z" style="fill:#f3ecd1;"/>
		<path d="M 246.486774 70.582106 Q 246.49481 70.572464 246.507667 70.574071 L 246.551059 70.575678 Q 246.60088 70.577285 246.56713 70.614249 Q 245.752322 71.485306 245.395542 72.386898 Q 245.072512 73.203314 245.533754 73.887945 Q 245.78125 74.254368 246.610522 74.669004 C 247.941215 75.33435 248.378351 75.583453 249.439048 75.898448 C 249.45994 75.904877 249.469583 75.927376 249.458333 75.946662 L 249.437441 75.983625 Q 249.434226 75.990054 249.426191 75.988447 Q 248.919949 75.906484 248.471563 75.705594 Q 247.0798 75.082033 246.158923 74.583827 Q 245.70893 74.341152 245.54179 74.085621 C 245.226795 73.605093 244.974478 73.163136 245.191438 72.611895 Q 245.638217 71.467628 246.486774 70.582106 Z" style="fill:#f3ecd1;"/>
		<path d="M 199.158797 135.389084 L 198.686305 134.74463 Q 198.64452 134.686774 198.581842 134.657846 C 196.696695 133.781967 195.15547 132.268063 193.713886 130.770231 C 193.395677 130.439165 192.992291 130.161133 192.637118 129.83971 Q 201.551794 121.773592 210.460041 113.72033 C 212.761432 111.640722 214.185338 110.43217 217.441356 107.582752 Q 224.53999 101.368032 233.298775 94.160114 C 238.644045 89.759829 244.301096 85.756501 249.840827 81.603712 Q 250.825989 80.866046 251.57812 80.168557 C 253.820048 78.090555 250.249034 76.695578 248.809058 76.2488 Q 245.737858 75.295779 244.976085 74.98882 Q 244.693232 74.874715 244.415201 74.429544 C 244.223954 74.120977 244.068064 73.301348 244.116277 72.897961 Q 244.217526 72.04619 244.80573 71.433878 Q 244.808945 71.430664 244.812159 71.433878 Q 244.913407 71.51102 244.815373 71.437092 Q 244.812159 71.435485 244.810552 71.437092 Q 244.481093 72.022083 244.465022 72.051011 C 244.116277 72.695465 244.169312 73.547236 244.474664 74.204547 Q 244.752696 74.800787 245.432506 75.016141 Q 249.13691 76.194158 250.6026 76.718078 C 251.595798 77.071643 253.717192 78.032699 253.660943 79.294285 Q 253.625586 80.07213 253.140237 80.687656 Q 252.200074 81.875315 250.985094 83.029225 Q 247.298368 86.524703 244.124313 89.427156 Q 241.973991 91.391052 235.293207 97.993087 Q 226.29014 106.890085 214.503547 119.068815 Q 207.665265 126.135306 201.003767 133.370545 Q 200.097353 134.354101 199.158797 135.389084 Z" style="fill:#f3ecd1;"/>
		<path d="M 242.232737 74.990427 C 242.54291 75.163996 242.88844 75.335957 243.232363 75.437206 C 244.140384 75.700773 245.601253 76.123444 245.949997 76.85629 C 246.322849 77.645384 244.162884 78.498763 243.700034 78.67876 Q 239.426711 80.327661 235.103567 81.849601 Q 231.559875 83.096723 220.92237 87.254334 Q 198.459702 96.035619 176.966124 107.007404 Q 176.850412 106.899728 176.792555 106.755087 C 174.804552 101.750526 173.142794 96.562754 172.244415 91.447301 Q 171.284967 85.981498 171.080863 81.439786 Q 170.924973 77.973236 171.069613 73.225813 Q 171.085684 72.697072 171.231932 71.486913 Q 177.554329 71.421021 182.960669 73.22742 Q 188.023086 74.919714 191.891416 76.072017 Q 194.245842 76.77272 196.825264 77.105393 Q 197.805605 77.232355 200.029854 77.351282 Q 207.798656 77.765918 215.938702 78.83465 C 218.511696 79.173752 221.597359 79.655887 224.376064 79.919454 Q 230.57632 80.507659 236.858539 80.462659 Q 237.263532 80.459445 237.734417 80.295519 Q 239.447604 79.696065 241.33918 79.247679 Q 242.321128 79.014647 242.536482 78.055199 C 242.75505 77.079679 242.444876 76.380583 242.081668 75.127032 C 242.062382 75.064355 242.092918 74.996856 242.150774 74.967928 Q 242.152381 74.967928 242.232737 74.990427 Z" style="fill:#526874;"/>
		<path d="M 248.521384 74.554899 Q 249.53226 75.065962 251.10402 75.392206 Q 251.859365 75.548097 252.219359 75.522383 Q 254.965922 75.906484 257.260884 76.751827 Q 260.605294 77.982878 264.157022 79.948382 Q 267.92571 82.034419 271.032266 85.041335 Q 276.703781 90.531245 281.740484 96.789357 C 285.920595 101.980344 289.923922 107.315971 293.732789 112.802667 Q 297.861471 118.748998 301.850335 124.741936 Q 301.480698 125.217643 301.186595 125.690135 Q 300.807316 126.296018 300.511606 126.619048 C 298.603959 128.698657 296.802381 130.278453 294.489741 132.19735 Q 294.247066 132.399847 293.456365 133.35126 Q 291.532646 129.119722 289.705354 124.888184 C 287.158075 118.985244 284.417941 113.161054 281.57013 107.425255 Q 277.748407 99.731987 273.360978 92.440499 Q 272.642597 91.248019 270.881197 88.72806 Q 268.896408 85.888285 267.062688 83.970995 Q 265.18879 82.008705 262.442228 80.186235 Q 258.916214 77.844666 255.198954 76.567009 C 254.536822 76.338798 253.595051 76.062374 252.682209 75.901662 Q 251.796688 75.745772 250.88706 75.532025 Q 249.22048 75.139889 248.712631 74.92775 C 247.983 74.625612 246.755163 73.854196 246.549452 73.029745 Q 246.633022 72.888319 246.6732 72.952603 Q 247.349796 74.042228 248.521384 74.554899 Z" style="fill:#f3ecd1;"/>
		<path d="M 249.859614 75.618408 C 249.853684 75.641309 249.829577 75.654166 249.806001 75.648252 L 248.24181 75.202695 C 248.219246 75.196138 248.204782 75.172031 248.211966 75.149066 L 248.218137 75.127434 C 248.224067 75.104532 248.248174 75.091676 248.271751 75.09759 L 249.835941 75.543147 C 249.858505 75.549704 249.872969 75.573811 249.865785 75.596776 L 249.859614 75.618408 Z" style="fill:#b1c1b3;"/>
		<path d="M 251.425444 75.946662 Q 251.329017 76.007732 251.346695 76.076838 L 249.977432 75.710415 Q 249.932432 75.699166 249.942075 75.652559 Q 249.946896 75.633274 249.962968 75.615596 Q 249.979039 75.601132 249.999931 75.605953 L 251.425444 75.946662 Z" style="fill:#b1c1b3;"/>
		<path d="M 251.425444 75.946662 Q 253.643265 76.422368 254.824495 76.896468 Q 255.441628 77.143963 257.170886 78.087341 C 260.005839 79.633387 261.833131 82.183881 262.995076 85.092762 C 264.54273 88.96752 265.402537 92.85835 266.112882 97.237742 Q 266.758943 101.21857 267.072331 103.677459 Q 268.409452 114.188001 269.201761 123.607312 Q 269.868714 131.543254 270.781556 146.587472 Q 269.772287 147.376567 268.497844 147.800845 C 266.86662 148.342444 265.31736 148.929041 263.506139 149.089753 C 262.803829 149.15243 262.239731 149.350106 261.585635 149.546174 Q 262.07902 142.667715 262.562762 135.782827 Q 262.689724 133.97 263.181502 124.974968 Q 263.837205 112.966593 263.657208 101.697491 C 263.584888 97.247385 263.369534 92.742637 262.692938 88.32146 C 262.021164 83.935638 260.465475 79.956418 256.314292 77.796453 Q 254.462894 76.832183 252.45882 76.354869 Q 252.441141 76.351655 251.947757 76.155587 Q 251.692225 76.054338 251.346695 76.076838 Q 251.329017 76.007732 251.425444 75.946662 Z" style="fill:#f3ecd1;"/>
		<path d="M 236.432653 150.677584 Q 233.571985 150.208306 230.685604 149.86599 Q 229.71812 149.751885 228.143145 149.279393 Q 226.566564 148.805293 224.940162 148.446906 C 225.022125 148.286195 225.144266 148.172089 225.221407 148.016199 Q 228.757064 140.761675 232.496824 133.520007 Q 233.400024 131.771464 233.948051 130.652911 C 237.964235 122.48233 240.643298 116.955456 243.012188 112.233748 Q 246.237671 105.797246 250.98188 96.122404 Q 252.884706 92.242824 254.480572 88.575384 C 255.431985 86.389705 256.185723 84.483665 256.714465 82.241737 C 257.432846 79.194644 255.497877 77.825381 252.979526 76.999323 Q 251.285625 76.444868 249.956539 76.076838 C 249.943682 76.073624 249.93404 76.057553 249.932432 76.03666 L 249.932432 76.035053 Q 249.932432 76.001304 249.975825 76.010946 C 252.135789 76.528438 254.061115 77.045929 255.951084 78.223946 Q 257.760697 79.352142 257.898909 81.486393 C 258.062835 84.01278 257.403918 86.891126 256.7225 89.333943 C 255.171633 94.892959 253.720406 99.163068 251.457586 105.888851 Q 243.258077 130.262382 237.355138 147.858702 Q 236.879431 149.276178 236.432653 150.677584 Z" style="fill:#f3ecd1;"/>
	</g>
	<g id="surface4">
	</g>
</svg>
