<?xml version="1.0" encoding="utf-8"?>
<svg xmlns="http://www.w3.org/2000/svg" width="490pt" height="280pt" viewBox="0 0 490 280" version="1.1" xmlns:xlink="http://www.w3.org/1999/xlink">
	<g id="surface2">
		<path fill-opacity="0.996" d="M 255.796854 97.148089 Q 255.782678 104.751255 255.560584 113.64918 Q 255.423547 118.922725 254.747816 123.043272 Q 253.523937 130.466873 250.877714 137.526618 C 250.811559 137.706183 250.906067 137.909375 251.090357 137.970805 Q 255.021889 139.289191 258.95342 140.985609 Q 268.111242 144.936042 270.610978 146.022884 Q 275.482863 148.144588 283.492414 151.419289 C 284.002757 151.627206 284.28628 152.175353 284.168145 152.714048 L 283.241967 156.896025 Q 283.189988 157.108668 282.97262 157.089767 L 246.742991 153.285821 Q 246.464192 153.257469 246.416938 153.531542 C 246.180668 154.812125 246.015279 156.18249 244.36139 155.861163 Q 244.12512 155.813909 244.006985 155.610717 L 242.910693 153.711107 C 242.853988 153.607148 242.740578 153.550443 242.622443 153.559894 Q 224.032726 155.421701 220.502854 155.747754 Q 219.732614 155.818635 218.962374 155.908417 Q 216.869023 156.144687 209.053214 157.051964 C 208.580674 157.108668 207.559988 157.510327 206.988215 157.444172 Q 206.723592 157.415819 206.728318 157.146472 Q 206.75667 155.70995 205.882471 153.243293 Q 205.594222 152.425799 206.142368 151.712263 Q 206.288856 151.523248 206.529851 151.480719 C 208.29715 151.168843 210.036097 150.171784 211.184368 149.732322 Q 215.007216 148.272173 218.707203 146.523776 Q 219.288427 146.249703 221.216389 145.451111 C 222.369386 144.973845 223.531834 144.274487 224.528893 143.868102 Q 227.538972 142.644224 231.527208 140.924179 Q 234.972024 139.430953 236.989769 138.670164 C 237.259116 138.566205 237.381977 138.589832 237.632423 138.575656 C 238.081336 138.542578 238.298704 138.008608 238.001004 137.673105 C 237.429231 137.021 237.29692 135.849101 237.046473 135.239525 C 236.531405 134.006196 236.195902 132.588576 235.728087 131.166232 Q 235.591051 130.745671 235.435113 129.999058 Q 234.201784 123.978901 233.960788 121.880824 Q 233.582756 118.582496 233.559129 113.658631 Q 233.516601 104.689825 233.63001 96.831487 C 233.63001 96.713352 233.526052 96.62357 233.412642 96.637746 C 232.160412 96.774783 229.698479 96.774783 228.833731 95.659589 C 228.082393 94.690882 228.446248 93.377221 228.417896 92.124991 Q 228.417896 92.021032 228.318663 92.00213 L 220.228781 90.201753 C 219.8602 90.116696 219.496344 90.348241 219.416012 90.716822 L 218.636322 94.218342 Q 218.570166 94.516042 218.291367 94.634177 Q 217.379366 95.031111 216.363405 94.558571 Q 216.136586 94.454612 216.07043 94.208891 Q 215.4136 91.713881 215.957021 89.214145 C 215.985373 89.086559 215.881414 88.963699 215.749103 88.97315 Q 214.151919 89.081834 212.677594 88.472258 C 212.540558 88.415553 212.389345 88.514786 212.389345 88.661274 Q 212.356267 90.981444 210.90557 93.240185 Q 210.773259 93.443377 210.532263 93.448102 Q 208.746063 93.495356 208.53342 92.148618 Q 208.434187 91.543767 208.70826 87.876858 Q 208.727161 87.631137 208.486166 87.579157 Q 205.0319 86.851446 203.033056 86.553746 C 201.818629 86.374181 200.571124 85.722076 199.229111 85.670097 C 199.002292 85.660646 198.851079 85.589765 198.666788 85.476355 Q 198.57228 85.414925 198.463596 85.396023 L 195.269227 84.729742 C 195.141641 84.70139 195.014055 84.786447 194.995154 84.918758 Q 194.768335 86.515943 193.988644 88.609294 Q 193.667317 89.483493 193.194777 89.648882 C 192.504869 89.889877 191.748805 89.663058 191.488908 88.85029 Q 190.709217 86.402533 191.44638 84.05401 Q 191.555064 83.699605 191.186483 83.666528 C 189.622376 83.534216 188.507182 83.090029 187.188796 83.004972 C 185.681394 82.905738 183.663649 82.040991 181.641178 81.771643 C 179.968387 81.549549 178.16801 80.944698 176.783469 80.831289 Q 175.895094 80.755682 174.586158 80.297319 C 173.702509 79.990168 172.488082 79.966541 171.552453 79.72082 C 169.723724 79.24828 167.521688 78.988383 165.565373 78.473315 Q 163.33026 77.88264 161.288887 77.561313 C 158.118145 77.060421 155.178947 76.276005 152.23975 75.732584 Q 148.185358 74.985971 147.519077 74.820582 C 144.442842 74.050342 141.33353 73.620331 138.262021 72.859542 C 137.17518 72.594919 134.321039 72.212162 133.531898 71.323787 Q 132.85144 70.562998 132.520663 69.443079 Q 131.334588 65.440666 130.668306 61.698151 Q 130.365881 59.987557 130.606876 58.465978 C 130.673032 58.035967 131.060514 57.728816 131.495251 57.761894 Q 132.445056 57.832775 132.856166 58.66917 Q 134.20763 61.400451 135.497663 63.626113 C 135.700856 63.980518 136.074162 64.202612 136.480546 64.216788 C 138.347079 64.292394 139.816678 64.344374 141.905304 64.580644 C 147.91601 65.25165 153.992872 65.346158 160.022481 65.832874 C 164.388749 66.182554 167.625647 66.1353 171.481572 66.626741 Q 172.393574 66.744876 175.488709 66.787405 Q 177.506455 66.811032 179.495847 66.952794 Q 185.979094 67.406432 192.467066 67.68523 Q 194.678552 67.779738 195.864627 67.935677 Q 197.570496 68.162496 199.257463 68.143594 Q 200.845197 68.129418 203.893079 68.512175 C 206.043135 68.776798 209.076841 68.375139 211.576576 68.956363 C 211.741965 68.994166 211.883727 68.833502 211.822297 68.677564 C 210.612595 65.634408 210.78271 62.189592 210.938648 58.933793 Q 210.971725 58.196631 211.231622 57.738267 C 211.515146 57.2421 211.434815 56.660876 211.741965 56.126906 Q 212.880786 54.142239 215.106449 53.409802 Q 215.522284 53.272766 218.480383 53.433429 Q 220.488678 53.546839 221.471561 54.38796 Q 223.371171 56.008771 223.607441 58.428175 Q 224.009099 62.577075 223.508207 68.27118 Q 223.475129 68.649212 223.805907 68.45547 L 224.117784 68.275905 Q 224.358779 68.138869 224.632852 68.138869 L 231.489405 68.138869 Q 231.72095 68.138869 231.744576 67.91205 L 231.881613 66.579487 C 231.895789 66.437725 231.995023 66.324316 232.132059 66.286513 Q 232.73691 66.125849 233.469347 66.239259 C 233.705617 66.277062 233.904084 66.064419 233.852104 65.828149 Q 233.606383 64.727131 233.606383 64.372726 Q 233.511875 45.508936 233.686715 34.957122 Q 233.80485 28.024962 235.335879 21.215663 C 235.52017 20.379268 235.364232 19.297152 235.695009 18.526912 C 236.35184 17.005333 236.791302 15.379796 237.708029 13.834591 C 238.709814 12.142899 239.79193 11.292327 240.940202 10.073174 C 241.219 9.780199 241.606483 9.619536 242.012867 9.628987 Q 243.392683 9.662064 244.800852 9.468323 C 245.42933 9.378541 246.341332 9.60536 246.955634 10.058998 Q 249.833401 12.194878 251.41641 14.666261 Q 252.18665 15.871238 253.226237 18.318994 Q 253.996477 20.133547 254.426488 22.179645 Q 255.839383 28.851907 255.815756 32.712558 Q 255.740149 47.186453 255.792129 64.079752 C 255.792129 64.731857 255.659817 65.322531 255.499154 65.951009 C 255.466076 66.078595 255.565309 66.206181 255.697621 66.206181 L 257.431842 66.206181 Q 257.701189 66.206181 257.701189 66.470803 L 257.701189 67.855345 C 257.701189 68.011283 257.828775 68.134143 257.984713 68.129418 Q 262.606153 68.016008 266.580213 68.809875 Q 266.844835 68.861855 266.807032 68.597232 C 266.721975 67.968754 266.320316 67.415883 266.287238 66.721249 Q 266.017891 61.291767 266.329767 58.711699 Q 266.688897 55.696895 269.424903 54.043006 Q 270.63933 53.305843 271.896286 53.38145 C 273.261926 53.461782 274.769328 53.135729 275.974305 53.953223 C 277.528961 54.997536 278.686683 55.871735 278.984384 57.880029 Q 279.641214 62.274649 278.908777 67.155986 C 278.847347 67.585997 278.384258 68.242827 278.535471 68.894932 Q 278.58745 69.131202 278.828445 69.126477 Q 281.063559 69.079223 282.712723 68.913834 C 285.670822 68.616134 287.683842 68.757896 290.093795 68.45547 C 292.546277 68.143594 295.485474 68.162496 297.782018 68.086889 C 301.042543 67.97348 304.62912 67.637977 308.125915 67.633251 Q 310.49334 67.633251 312.922194 67.321375 Q 313.607377 67.231592 316.135465 67.217416 C 318.880922 67.20324 321.479891 66.763778 324.26315 66.7307 Q 326.692005 66.697622 329.376031 66.409373 C 331.658399 66.168378 334.039999 66.286513 336.213683 66.017165 C 338.491325 65.738366 341.123371 65.851776 343.646734 65.48792 Q 343.925533 65.450117 346.387465 65.270552 Q 350.205587 64.991753 354.118217 64.415255 C 354.444269 64.363275 354.723068 64.160083 354.869555 63.862383 Q 355.394074 62.770816 357.397643 59.31655 Q 358.00722 58.258061 359.02318 58.177729 C 359.448466 58.144651 359.807596 58.499056 359.774519 58.924342 Q 359.283077 65.483195 356.575424 71.106419 C 356.301351 71.678192 355.6965 72.292494 355.020768 72.401178 C 353.844144 72.585469 352.695872 73.062734 351.316056 73.341532 Q 333.038215 77.069872 321.494067 79.48455 Q 318.965979 80.01852 318.483988 80.127204 Q 318.110682 80.216987 312.374048 81.369984 Q 309.146601 82.017364 306.29246 82.697821 Q 303.409967 83.387729 298.226206 84.276104 C 297.782018 84.35171 297.455966 84.739193 297.460691 85.188106 C 297.470142 86.657705 297.942682 90.46165 295.55163 90.300987 Q 295.310635 90.286811 295.1925 90.078893 Q 293.831585 87.768173 293.926093 85.339319 C 293.930818 85.192831 293.793782 85.084147 293.65202 85.12195 Q 287.329437 86.804192 282.103146 87.560256 Q 281.895229 87.593334 281.876327 87.796526 L 281.337632 92.909407 Q 281.271476 93.552061 280.638273 93.693823 Q 280.18936 93.793056 279.29626 93.599315 Q 279.055265 93.547336 278.94658 93.329967 Q 277.86919 91.246067 277.977874 89.379534 Q 278.025128 88.566766 277.22181 88.717978 L 274.372395 89.251948 Q 273.673036 89.38426 273.701388 90.093069 C 273.753368 91.567394 274.14085 96.099051 271.475726 95.02166 Q 271.253632 94.931877 271.135497 94.72396 Q 270.143163 92.961386 270.067557 90.93419 C 270.058106 90.655392 269.798209 90.447474 269.524136 90.499454 L 261.679975 91.969052 C 261.254689 92.044659 260.990067 92.479395 261.122378 92.895231 C 262.190318 96.269165 258.561212 97.086659 256.075652 96.892918 Q 255.796854 96.874016 255.796854 97.148089 Z" style="fill:#051115;"/>
	</g>
	<g id="surface4">
	</g>
</svg>
