<?xml version="1.0" encoding="utf-8"?>
<svg xmlns="http://www.w3.org/2000/svg" width="490pt" height="280pt" viewBox="0 0 490 280" version="1.1" xmlns:xlink="http://www.w3.org/1999/xlink">
	<g id="surface2">
		<path d="M 249.920727 129.569686 Q 249.849138 129.677069 249.947102 129.761845 Q 252.752247 132.158181 255.502759 134.77682 Q 256.099959 135.347645 257.722008 136.700294 C 257.851998 136.809561 258.049808 137.095916 258.10821 137.29561 Q 258.44543 138.463636 257.735195 139.407476 C 257.258565 140.042354 255.87389 140.95982 255.090182 140.355084 Q 254.440232 139.853963 253.848684 139.288789 Q 251.68972 137.229673 249.913191 135.713124 C 249.649443 135.487054 249.479891 135.240262 249.250054 135.033032 C 249.176581 134.967095 249.059779 135.008541 249.044708 135.106504 C 248.926021 135.892096 248.961815 136.651312 248.8582 137.491537 Q 248.353312 141.607886 247.74104 146.470263 Q 247.543229 148.056517 247.541346 148.073473 Q 247.450918 149.109624 247.168331 150.74486 C 247.126885 150.989769 247.064716 151.245981 246.851834 151.387274 C 246.085081 151.899698 244.267106 151.839413 243.387319 151.537987 C 242.81461 151.34206 242.741137 150.690227 242.658245 150.121285 Q 241.460077 141.962061 240.70086 135.063174 C 240.689557 134.967095 240.574638 134.923765 240.504933 134.991586 C 240.284515 135.2007 240.156409 135.392859 239.92092 135.603857 Q 237.515164 137.774124 235.11506 140.104524 C 234.815518 140.39653 234.468878 140.60376 234.018623 140.532172 Q 232.952329 140.36262 232.134711 139.499788 Q 231.691991 139.034461 231.618519 138.644491 Q 231.482877 137.913534 231.635474 137.135478 C 231.646777 137.075193 231.678804 137.020559 231.724018 136.980997 L 239.789046 129.654462 C 239.806002 129.639391 239.806002 129.613016 239.789046 129.597945 C 239.250248 129.134502 238.758546 128.917852 238.762314 128.139796 Q 238.771734 126.30675 238.781153 119.929707 C 238.781153 119.899564 238.76043 119.875073 238.730288 119.869421 L 235.697189 119.245846 Q 235.569083 119.219472 235.506914 119.33439 C 234.365263 121.436836 233.178398 123.25858 231.887918 125.630425 Q 231.516787 126.308634 231.034506 126.741934 C 230.710473 127.030172 229.56317 126.647738 229.252325 126.504561 Q 226.407617 125.199009 225.898961 124.918306 C 225.01729 124.434141 225.497688 122.981645 225.727525 122.248803 Q 226.786284 118.895439 227.609553 116.465192 C 227.650999 116.342738 227.596366 116.20898 227.483331 116.148695 C 225.887658 115.312238 223.756953 114.249711 222.061432 113.059078 C 221.912603 112.955463 221.712908 112.966767 221.577266 113.083569 L 220.224617 114.255363 C 220.1681 114.306228 220.128538 114.374049 220.11535 114.447522 Q 219.70089 116.753431 219.033985 119.034848 Q 218.468811 120.965858 217.172679 125.364794 Q 217.018198 125.886637 216.46998 126.227625 Q 216.106385 126.451811 215.467739 126.472534 Q 214.143348 126.517748 213.146759 125.762299 C 212.432756 125.221616 212.474202 124.321106 212.705923 123.539283 Q 213.084589 122.267642 213.474559 121.086429 C 213.664834 120.513719 213.800476 119.714941 214.056688 119.121508 C 214.220589 118.739074 214.275222 118.341569 214.410864 117.906385 Q 214.578532 117.375122 214.126393 117.701038 Q 212.293346 119.025429 210.58087 120.800074 C 210.049607 121.350177 209.544718 121.406694 208.877813 121.124107 Q 208.568852 120.994117 208.493495 120.982814 Q 208.3993 120.967742 208.323943 121.018608 Q 208.077151 121.186276 207.775725 121.433069 Q 200.895677 127.060315 199.222763 128.561793 Q 196.641803 130.880889 196.06721 131.389545 Q 195.837372 131.593008 195.607535 131.389545 Q 194.722096 130.603954 193.959112 129.820246 Q 193.721739 129.575338 193.48625 129.070449 Q 193.446688 128.983789 193.488134 128.899013 Q 193.667105 128.54107 193.928969 128.258483 C 197.851275 124.051707 200.844811 120.479809 205.268237 115.251952 C 205.503726 114.975017 205.196649 114.426799 205.565895 114.029293 Q 206.976946 112.514628 207.941509 111.486012 C 207.998026 111.425727 207.964116 111.323995 207.881224 111.312692 Q 207.387639 111.239219 207.122007 111.241103 Q 203.817625 111.256174 199.362172 111.250523 C 198.484269 111.250523 197.930399 110.911418 197.570572 110.131479 Q 197.093942 109.102863 197.416091 107.961212 C 197.59883 107.309378 197.968077 107.186924 198.365583 106.857239 C 198.60484 106.659428 198.93264 106.659428 199.220879 106.659428 Q 204.395986 106.636821 210.042071 106.651893 C 210.168293 106.651893 210.288864 106.601027 210.377408 106.512483 L 213.163714 103.682847 C 213.214579 103.630097 213.220231 103.549089 213.175017 103.492572 Q 210.936929 100.664819 209.292274 97.422606 C 209.209382 97.258706 209.024758 97.172046 208.845787 97.213492 Q 205.021445 98.070672 201.862124 98.705551 C 201.26304 98.826121 200.074291 99.136967 199.57317 98.72439 Q 199.315074 98.511508 199.151174 97.899236 Q 199.119148 97.78055 198.29211 94.685282 Q 198.260084 94.566595 198.309065 93.98635 Q 198.316601 93.892155 198.393841 93.833753 Q 199.032488 93.362775 199.209575 93.277999 Q 202.903927 91.514657 206.053829 90.086652 C 206.115998 90.058393 206.148024 89.990572 206.131069 89.924635 Q 205.531985 87.701619 205.232443 85.425853 C 205.226791 85.374987 205.181577 85.337309 205.130712 85.337309 Q 201.08972 85.367451 196.994094 85.356148 C 196.425153 85.354264 195.995621 85.278908 195.620722 84.904009 C 195.485081 84.768367 195.264663 84.7646 195.12337 84.89459 Q 192.005495 87.778859 189.006306 90.638638 C 187.90045 91.693629 187.24108 92.45473 185.801771 91.733191 C 185.178197 91.420462 184.456658 90.655593 184.287106 89.926519 Q 184.053501 88.918626 184.889958 88.14057 Q 188.113332 85.147034 190.215778 83.229211 C 190.245921 83.200952 190.260992 83.163274 190.259108 83.121828 Q 190.251572 82.95416 190.00478 82.946624 Q 188.755746 82.916482 187.923057 82.854312 Q 181.922796 82.409709 176.419888 81.891633 Q 175.323451 81.788018 174.718715 81.778599 C 174.434245 81.772947 174.155426 81.673099 173.929356 81.659912 Q 172.028489 81.550645 170.129505 81.441378 C 169.524769 81.405584 169.078282 81.482824 168.731642 80.925186 Q 168.52818 80.603037 168.511224 79.794839 C 168.496153 79.077068 168.439636 78.538269 168.842793 78.054104 C 169.242182 77.577474 170.698447 77.664134 171.210871 77.622688 Q 176.529155 77.189388 181.802226 76.735365 C 184.744897 76.482921 187.642354 76.32844 190.786603 76.128746 C 190.875147 76.123094 190.912826 76.013827 190.846889 75.953542 Q 188.16043 73.49692 184.987921 70.735105 Q 184.20233 70.051244 184.451006 69.000021 Q 184.637514 68.212546 185.119795 67.786782 C 186.065519 66.95786 187.192099 66.466159 188.288536 67.43449 Q 191.619293 70.377161 194.827595 73.355627 Q 195.134673 73.640097 195.41726 73.739945 C 195.470009 73.758784 195.526527 73.751248 195.573625 73.721106 Q 196.362984 73.191726 196.643687 73.187958 Q 201.008712 73.138977 205.098685 73.197378 C 205.162738 73.199262 205.219256 73.157816 205.238095 73.095647 Q 205.343594 72.741471 205.373736 72.381644 Q 205.50561 70.791622 205.997311 69.391875 C 206.055713 69.227975 205.976588 69.047119 205.816456 68.979298 Q 202.182389 67.425071 198.670776 65.723898 C 197.706213 65.256688 198.538903 63.596961 198.663241 62.862235 Q 198.746133 62.385605 199.092773 61.191205 C 199.543028 59.648281 200.895677 60.356632 201.98081 60.546907 Q 205.320987 61.136571 208.583923 61.81478 C 208.732752 61.846806 208.885349 61.77145 208.951286 61.633924 Q 210.335961 58.762842 212.26132 56.072615 Q 212.496809 55.744814 212.915037 55.31905 C 213.03184 55.200364 213.029956 55.010089 212.91127 54.893286 Q 212.255668 54.243336 210.912439 53.005606 C 210.607245 52.724903 210.439577 52.598681 209.981786 52.604333 Q 206.366558 52.65143 202.941606 52.451736 Q 202.41411 52.421593 198.883659 52.391451 Q 198.693383 52.389567 198.241244 52.103212 C 197.397252 51.566297 197.154227 50.309727 197.34827 49.39603 C 197.525358 48.546385 197.924747 48.391905 198.484269 47.968024 C 198.625563 47.858757 198.746133 47.864409 198.940176 47.864409 Q 204.65785 47.862525 208.169462 47.887016 Q 208.320175 47.8889 208.418139 47.830499 C 208.480308 47.792821 208.493495 47.708045 208.444513 47.655295 Q 206.863911 45.929631 205.142015 44.111656 C 204.695528 43.638794 204.823634 43.152745 204.998838 42.60641 C 205.019561 42.546125 205.00449 42.480188 204.963044 42.43309 L 193.474946 29.168464 C 193.358144 29.034706 193.365679 28.833127 193.490018 28.706905 L 195.390885 26.777779 C 195.513339 26.653441 195.705498 26.632718 195.852444 26.726913 Q 196.338493 27.037759 196.585286 27.258176 Q 201.963855 32.050849 208.256122 37.478401 C 208.378577 37.5839 208.55378 37.600855 208.69319 37.521731 C 209.678476 36.973512 210.047723 37.525498 210.816359 38.25834 Q 212.496809 39.854014 213.787289 40.914657 Q 214.132045 41.197244 214.514479 41.410126 C 214.595487 41.45534 214.689683 41.381867 214.667076 41.293323 Q 213.994519 38.601212 213.244722 36.031556 Q 212.843449 34.658184 212.583469 33.6258 C 212.389426 32.859048 212.530719 32.210982 213.256026 31.813476 Q 214.7462 30.995858 216.159134 31.385828 C 216.984288 31.613782 217.102974 32.256196 217.362954 33.145402 Q 218.299259 36.355589 219.425838 40.496428 Q 219.851602 42.063843 219.934495 42.691186 C 220.023039 43.365627 220.537347 43.68966 220.889638 44.028764 C 221.053539 44.187012 221.309751 44.205852 221.494374 44.072094 Q 224.195904 42.110941 227.215816 40.699891 Q 227.596366 40.522803 227.445653 40.200654 Q 227.272333 39.837059 227.264797 39.810684 Q 225.964898 35.509712 225.565509 34.070403 C 225.36393 33.346981 224.994683 32.197794 225.422331 31.57422 Q 225.573044 31.351918 226.174012 31.095706 Q 227.769686 30.415613 229.463323 29.699727 C 230.851766 29.111946 231.305789 30.325186 231.84082 31.267142 Q 233.611698 34.381249 235.380692 37.506659 C 235.448512 37.623462 235.580386 37.687515 235.71226 37.666792 L 238.494799 37.231608 C 238.654931 37.207117 238.771734 37.069592 238.771734 36.907575 L 238.771734 27.576558 Q 238.771734 27.491782 238.835787 27.435264 L 239.606307 26.768359 C 239.745716 26.647789 239.764556 26.440558 239.651521 26.295497 Q 239.174891 25.686994 239.037365 25.549468 Q 235.471119 21.990758 232.106452 19.01606 Q 231.665617 18.62609 231.605331 18.307709 C 231.484761 17.665295 231.447083 16.593349 232.029212 16.075273 C 232.829874 15.365038 233.937615 14.63408 234.945508 15.538358 Q 237.554726 17.876293 240.197855 20.461021 Q 240.431461 20.688974 240.521888 20.811429 Q 240.798823 21.190095 240.842153 20.721001 Q 241.075759 18.140041 241.35081 16.173236 Q 242.266391 9.639829 242.824029 4.596595 C 242.948367 3.473784 245.685692 3.767674 246.384623 3.914619 Q 247.200357 4.086055 247.23992 4.875414 Q 247.258759 5.242777 247.260643 5.2635 Q 247.774951 9.664319 248.703719 17.382708 Q 248.882691 18.872883 249.167162 20.883017 C 249.176581 20.948954 249.255706 20.975329 249.304687 20.930115 Q 252.676891 17.69167 255.044968 15.395181 Q 255.338859 15.11071 255.939827 15.210557 C 256.881783 15.365038 258.208057 16.016872 258.336163 17.09447 Q 258.426591 17.859338 258.273994 18.607251 Q 258.255155 18.699563 258.189218 18.7655 C 257.584482 19.368352 256.930764 19.850633 256.196039 20.540145 Q 253.76014 22.827215 250.37475 26.033633 Q 250.118538 26.278542 249.994199 26.434907 C 249.896236 26.561129 249.915075 26.741984 250.039413 26.841832 L 250.792978 27.455987 Q 250.862683 27.512505 250.862683 27.601048 L 250.862683 37.003655 Q 250.862683 37.209001 251.064262 37.242912 L 253.978674 37.723309 Q 254.080405 37.740265 254.142574 37.657372 C 254.432697 37.269286 254.675721 36.698461 254.856577 36.381964 Q 256.327913 33.797236 257.927354 31.029769 C 258.147772 30.651102 258.728017 29.744941 259.176388 29.6677 Q 259.579545 29.597996 260.410351 29.92768 Q 262.358316 30.6982 263.818348 31.274677 Q 264.006739 31.350034 264.249764 31.611898 C 264.619011 32.009403 264.451342 33.23583 264.342076 33.599425 Q 263.068551 37.815621 262.188764 40.541642 C 262.166157 40.611347 262.203835 40.686703 262.27354 40.713078 Q 263.049712 40.995665 263.577207 41.2726 Q 266.177006 42.630901 268.362344 44.249182 C 268.524361 44.367868 268.748546 44.358448 268.897375 44.222807 C 269.464433 43.710383 269.965554 43.388234 270.069169 42.70249 Q 270.22365 41.677641 270.496817 40.639606 Q 271.131695 38.216894 272.604915 32.828905 Q 272.84794 31.935931 273.128642 31.717397 C 274.191169 30.882824 275.89611 31.350034 276.904003 32.094179 C 277.476712 32.516176 277.429614 33.456248 277.267598 34.038377 Q 276.108992 38.1811 275.434551 40.846836 Q 275.308329 41.346073 275.739745 41.063486 Q 275.975234 40.910889 276.336945 40.598159 Q 277.834655 39.305796 279.390767 37.811853 C 279.969128 37.257983 280.426919 37.491588 281.103243 37.593319 Q 281.199323 37.606507 281.280331 37.557525 C 281.717399 37.291893 282.141279 36.826567 282.418214 36.592962 Q 289.013791 31.031653 293.476779 27.028339 Q 294.092819 26.476353 294.633501 27.013268 Q 295.223166 27.599165 296.432638 28.787913 C 296.594654 28.94993 296.598422 29.20991 296.442057 29.375694 C 292.457583 33.590006 289.921837 36.811496 284.799479 42.849435 Q 284.73731 42.924791 284.744846 43.022755 C 284.799479 43.710383 285.09337 43.962827 284.516892 44.554375 Q 283.567401 45.526474 281.672185 47.581822 Q 281.540311 47.721232 281.540311 47.853106 C 281.538427 47.919043 281.59306 47.973676 281.658997 47.973676 Q 286.80773 47.924694 290.551063 47.962373 C 292.448163 47.981212 293.099997 49.910338 292.433092 51.425003 Q 292.035586 52.329281 291.185942 52.56477 Q 290.918426 52.638243 289.610991 52.666502 Q 285.221476 52.762581 279.224983 52.798376 C 279.059198 52.798376 278.899066 52.860545 278.776612 52.971695 L 276.822995 54.748225 Q 276.677933 54.880099 276.79662 55.034579 C 278.330124 57.050366 279.614953 59.288453 280.750952 61.650879 C 280.803701 61.76203 280.928039 61.820432 281.04861 61.792173 Q 283.31684 61.259026 288.2282 60.247365 C 289.160736 60.055206 289.773008 59.789574 290.328762 60.473434 Q 290.526573 60.718343 290.699893 61.313659 Q 291.342307 63.514069 291.583447 64.60297 C 291.662572 64.955262 291.500555 65.318857 291.187826 65.497828 Q 290.292968 66.004601 289.955747 66.172269 Q 286.71165 67.78113 284.027075 68.973647 C 283.865059 69.047119 283.774631 69.222323 283.810425 69.395643 L 284.580945 73.137093 C 284.590365 73.180423 284.626159 73.210565 284.669489 73.208681 Q 288.105745 73.131441 292.380342 73.178539 C 293.058551 73.184191 293.435333 73.478081 293.859214 73.84356 Q 293.93457 73.909497 294.032533 73.903845 Q 294.296281 73.894426 294.526118 73.672124 Q 297.127801 71.164637 300.97475 67.543757 C 301.310087 67.22726 301.652959 66.988003 302.10133 66.901343 Q 303.308918 66.667738 304.324346 67.758523 C 305.128777 68.621355 305.498024 69.810104 304.525925 70.669168 Q 302.841707 72.159342 298.717823 75.919631 C 298.6971 75.93847 298.685797 75.966729 298.687681 75.994988 Q 298.6971 76.096719 298.832742 76.108023 Q 302.007134 76.369886 305.185294 76.550742 Q 306.865744 76.644938 313.267278 77.161129 C 314.092432 77.22895 315.36784 77.270396 316.490652 77.370244 Q 317.180164 77.430529 317.783016 77.458788 Q 319.872275 77.560519 320.394118 77.666018 Q 321.021461 77.790356 321.125076 78.591019 C 321.202317 79.193871 321.275789 80.58985 320.778436 81.055176 Q 320.629607 81.194586 320.277316 81.234148 Q 317.837649 81.516735 316.213717 81.614698 Q 315.505366 81.658028 314.896862 81.748456 C 314.361831 81.82758 313.830568 81.804973 313.135404 81.872794 Q 305.507443 82.615056 298.909982 83.037052 C 298.825206 83.042704 298.787528 83.148203 298.851581 83.20472 Q 300.991705 85.130079 302.233204 86.158695 Q 303.585853 87.279622 304.810396 88.470255 Q 304.915895 88.57387 304.991251 88.967608 Q 305.275722 90.465318 303.97959 91.456256 Q 303.060241 92.157071 301.988295 91.900859 Q 301.598325 91.806664 301.180097 91.407274 Q 300.906929 91.143527 294.667412 85.297747 Q 294.441342 85.084865 294.143684 84.887054 C 294.023114 84.806046 293.864865 84.815465 293.753714 84.909661 C 293.132023 85.433388 292.674233 85.363684 291.713437 85.363684 Q 287.627232 85.363684 284.724123 85.333541 C 284.654418 85.331657 284.592249 85.382523 284.577178 85.452228 L 283.693623 89.755083 C 283.6729 89.854931 283.725649 89.952894 283.819845 89.99434 Q 288.166031 91.880136 290.818579 93.39857 Q 291.197245 93.61522 291.291441 93.684924 C 291.519394 93.850709 291.583447 94.148367 291.509975 94.378204 Q 291.087979 95.691291 290.622652 97.688238 Q 290.485127 98.285438 290.074434 98.809166 C 290.036755 98.858148 289.982122 98.892058 289.921837 98.903361 Q 289.315217 99.025816 288.776418 98.916549 Q 284.128806 97.991548 280.583283 97.270009 Q 280.447642 97.243635 280.385473 97.366089 Q 278.780379 100.563088 276.702424 103.242011 Q 276.606345 103.36635 276.719379 103.4775 L 279.660166 106.373074 C 279.739291 106.450314 279.84479 106.495528 279.954057 106.497412 Q 286.779471 106.642473 290.584974 106.661312 Q 291.404476 106.66508 291.801981 106.930712 C 292.926677 107.684277 292.9474 109.394869 292.25412 110.357548 C 291.726625 111.084738 291.0503 111.018801 290.049943 111.018801 Q 286.363126 111.016918 282.141279 110.966052 C 282.037664 110.964168 281.975495 111.080971 282.032012 111.167631 C 282.154466 111.356022 282.293876 111.589627 282.450241 111.757295 Q 283.917808 113.319058 284.503705 113.972776 Q 284.669489 114.157399 284.686444 114.438102 C 284.709051 114.829956 284.695864 115.12573 284.969031 115.440344 Q 285.191333 115.696556 286.762516 117.555977 Q 289.409413 120.681388 291.875454 123.462042 Q 294.467717 126.38399 296.521182 128.542954 C 296.658707 128.688015 296.681314 128.906549 296.577699 129.077985 Q 296.394959 129.379411 296.069043 129.705328 Q 295.04231 130.73206 294.450762 131.29535 C 294.343379 131.397081 294.175711 131.397081 294.068328 131.29535 Q 288.60875 126.146617 282.504874 121.229606 Q 281.930281 120.766164 281.841737 120.713414 C 281.675953 120.615451 281.506401 120.59096 281.414089 120.655013 C 280.766023 121.095848 280.101002 121.40481 279.434097 120.758628 Q 277.804513 119.17991 276.039287 117.785814 Q 275.773655 117.574816 275.515559 117.505112 C 275.442087 117.484388 275.37615 117.554093 275.396873 117.627566 Q 276.222026 120.453434 277.049064 122.979761 C 277.248759 123.590148 277.631193 124.737451 277.205429 125.247991 Q 276.649675 125.918664 275.839592 126.144733 Q 274.643308 126.48007 273.810619 126.314285 Q 273.038215 126.161689 272.810261 125.361026 Q 271.0375 119.13658 270.760565 118.134338 Q 270.007 115.402665 269.95425 114.586931 Q 269.946715 114.490852 269.871358 114.428683 L 268.294524 113.140087 C 268.128739 113.006329 267.89325 113.000677 267.721814 113.126899 Q 265.252005 114.944875 262.209487 116.259845 C 262.081381 116.314479 262.009792 116.450121 262.036167 116.585762 C 262.145434 117.137749 262.416717 117.804654 262.537288 118.175784 Q 263.170282 120.121866 264.025578 122.817744 Q 264.187595 123.324517 264.234692 124.015912 Q 264.262951 124.4624 263.982248 124.748754 Q 263.622421 125.116117 263.311575 125.253643 Q 261.365494 126.12401 260.391511 126.525284 C 258.692222 127.224215 258.311672 126.536587 257.497822 125.206545 Q 255.811721 122.450381 254.151994 119.426702 C 254.084173 119.304248 253.946647 119.240195 253.809122 119.268453 L 250.936156 119.861886 C 250.872103 119.875073 250.826889 119.929707 250.828773 119.99376 Q 250.88529 125.067136 250.872103 128.369634 C 250.870219 129.077985 250.261715 129.068565 249.920727 129.569686 Z M 245.037626 21.408629 C 244.214356 21.391674 243.634111 22.361888 243.472095 23.047632 Q 243.381667 23.439486 243.345873 25.557004 Q 243.332685 26.391577 243.890324 26.61953 C 244.666495 26.93226 246.311151 26.958634 246.333758 25.751047 Q 246.380856 23.23414 246.377088 22.923294 Q 246.356365 21.435003 245.037626 21.408629 Z M 246.395927 32.791227 C 246.395927 31.992448 245.749745 31.346266 244.950966 31.346266 L 244.70229 31.346266 C 243.903511 31.346266 243.257329 31.992448 243.257329 32.791227 L 243.257329 65.107859 C 243.257329 65.906637 243.903511 66.552819 244.70229 66.552819 L 244.950966 66.552819 C 245.749745 66.552819 246.395927 65.906637 246.395927 65.107859 L 246.395927 32.791227 Z M 251.030351 42.455697 Q 250.830656 42.418019 250.830656 42.621481 Q 250.877754 51.419352 250.870219 61.454953 C 250.870219 61.81478 250.981369 61.965493 251.331777 61.997519 C 251.853621 62.046501 252.013753 61.995635 252.347206 61.615085 Q 252.554436 61.377712 253.16294 60.754137 Q 256.529491 57.304694 265.178533 48.425815 C 265.259541 48.342923 265.244469 48.205397 265.146506 48.141344 Q 258.724249 43.923265 251.030351 42.455697 Z M 238.573923 42.531053 Q 230.923355 44.019344 224.546312 48.243076 C 224.448349 48.307129 224.435161 48.444654 224.516169 48.525662 Q 233.157675 57.331069 236.522342 60.750369 Q 237.130846 61.368293 237.338077 61.603782 C 237.671529 61.982448 237.829778 62.03143 238.349737 61.980564 C 238.698261 61.948538 238.807528 61.797825 238.807528 61.439881 Q 238.76043 51.451378 238.773618 42.694954 Q 238.773618 42.491491 238.573923 42.531053 Z M 234.598868 69.531285 C 235.422138 70.358322 236.000499 71.030879 237.123311 70.469473 C 237.963535 70.051244 238.381764 68.798443 237.688484 68.095743 Q 228.329208 58.59329 214.947779 45.496331 Q 213.506586 44.085281 213.252258 43.885586 Q 212.363051 43.181003 211.400372 43.663285 C 210.761726 43.98355 210.217275 44.827543 210.620432 45.539661 Q 210.778681 45.820364 211.10083 46.138746 Q 222.777318 57.628727 234.598868 69.531285 Z M 267.290398 57.267016 Q 275.432667 49.120979 277.683942 47.033604 Q 278.305634 46.457127 278.914137 45.858043 Q 279.319178 45.460537 279.266429 45.10071 Q 279.019636 43.408957 277.303392 43.495617 Q 276.904003 43.51634 276.512149 43.883703 Q 274.404051 45.859927 270.736074 49.503413 Q 262.780312 57.406425 258.613098 61.58871 Q 254.189672 66.025324 252.254894 67.899817 Q 251.567266 68.564838 251.778264 69.373036 C 252.068387 70.49208 253.432339 71.121307 254.295171 70.267894 Q 254.387483 70.175583 267.290398 57.267016 Z M 279.304107 73.084343 C 279.317294 72.472072 279.123251 71.716623 278.991378 71.177824 Q 277.258178 64.075475 272.782003 58.391711 C 272.69911 58.288096 272.546514 58.278676 272.452318 58.372872 Q 265.964124 64.859182 259.428832 71.30593 Q 259.116103 71.614892 259.202763 71.914434 C 259.276235 72.164994 259.722723 72.767846 259.914882 73.039129 C 259.950676 73.089995 260.005309 73.127673 260.065595 73.144628 Q 260.336878 73.216217 260.545992 73.214333 Q 269.027365 73.182307 279.198608 73.189842 C 279.257009 73.189842 279.302223 73.142745 279.304107 73.084343 Z M 210.435809 73.095647 C 210.437693 73.154048 210.484791 73.201146 210.541308 73.201146 Q 220.650381 73.169119 229.080889 73.178539 Q 229.290003 73.180423 229.559403 73.108834 C 229.619688 73.091879 229.672437 73.054201 229.708232 73.003335 C 229.898507 72.733936 230.341226 72.132968 230.412815 71.884291 Q 230.499475 71.586633 230.186745 71.279555 Q 223.675944 64.887441 217.210357 58.457648 C 217.118046 58.363453 216.963565 58.372872 216.882557 58.476487 Q 212.447827 64.137644 210.742886 71.200431 C 210.612897 71.735462 210.420737 72.487143 210.435809 73.095647 Z M 245.168087 83.984679 C 247.675103 83.796269 249.549596 81.554413 249.35593 78.976938 C 249.16151 76.400029 246.972404 74.463367 244.46633 74.651739 C 241.959313 74.84015 240.084821 77.082005 240.278487 79.65948 C 240.472907 82.236389 242.662013 84.173051 245.168087 83.984679 Z M 232.549171 79.225897 C 232.549171 78.380021 231.863427 77.694277 231.017551 77.694277 L 199.608965 77.694277 C 198.763088 77.694277 198.077344 78.380021 198.077344 79.225897 L 198.077344 79.263576 C 198.077344 80.109452 198.763088 80.795196 199.608965 80.795196 L 231.017551 80.795196 C 231.863427 80.795196 232.549171 80.109452 232.549171 79.263576 L 232.549171 79.225897 Z M 291.523275 79.201425 C 291.525046 78.387556 290.865677 77.726303 290.052618 77.725625 L 258.440626 77.670464 C 257.627812 77.669786 256.966559 78.327271 256.964826 79.141102 L 256.964562 79.291815 C 256.962791 80.105684 257.62216 80.766938 258.435219 80.767616 L 290.047211 80.822777 C 290.860025 80.823455 291.521278 80.16597 291.523012 79.352138 L 291.523275 79.201425 Z M 295.500101 79.41994 C 295.453003 80.608689 296.553208 80.955329 297.519655 80.942141 C 298.514361 80.92707 299.804841 80.815919 299.853822 79.591376 C 299.90092 78.364949 298.623628 78.153951 297.630806 78.06164 C 296.670011 77.973096 295.545315 78.233076 295.500101 79.41994 Z M 194.072147 79.909758 C 194.102289 78.932007 193.358144 78.25945 192.406768 78.248147 C 191.491187 78.236843 189.324687 78.34611 189.609158 79.821214 C 189.742916 80.506958 190.078252 80.761286 190.801675 80.881856 Q 192.063896 81.090971 193.17352 80.872437 Q 194.04954 80.699117 194.072147 79.909758 Z M 216.665907 99.589105 Q 216.805316 99.769961 216.920235 99.881112 Q 217.069064 100.026173 217.214125 99.879228 C 217.653077 99.436509 218.06377 98.922201 218.442436 98.537882 Q 225.955478 90.932528 230.228191 86.786037 C 230.288477 86.727636 230.3092 86.639092 230.280941 86.561852 C 230.022845 85.832778 229.932417 85.293979 228.988577 85.299631 Q 220.740809 85.337309 211.90526 85.320354 C 211.53413 85.320354 211.046196 85.354264 210.539424 85.293979 C 210.445228 85.282675 210.369872 85.371219 210.394363 85.461647 C 210.520585 85.942045 210.513049 86.352738 210.635503 86.870814 Q 212.287695 93.852593 216.665907 99.589105 Z M 275.396873 96.032279 Q 277.849727 92.134464 279.079921 87.102535 Q 279.307875 86.17565 279.32483 85.455995 C 279.326714 85.390058 279.272081 85.335425 279.206144 85.335425 Q 271.303131 85.341077 260.589322 85.329773 C 260.188049 85.329773 260.003425 85.316586 259.799963 85.646271 Q 259.502305 86.126668 259.334637 86.552432 C 259.30261 86.631557 259.313914 86.720101 259.362895 86.787921 Q 259.620991 87.149633 259.99589 87.516995 Q 264.858267 92.296481 272.529558 99.907487 C 272.555933 99.933861 272.595495 99.933861 272.623754 99.911254 Q 272.895037 99.683301 273.104152 99.393179 Q 274.439845 97.550712 275.396873 96.032279 Z M 237.265301 88.061634 C 236.705082 87.501924 235.797036 87.501924 235.237797 88.061634 L 210.859877 112.439554 C 210.300167 112.998793 210.300167 113.906839 210.859877 114.467058 L 210.998402 114.605582 C 211.558621 115.165292 212.466666 115.165292 213.025906 114.605582 L 237.403825 90.227663 C 237.963535 89.668423 237.963535 88.760378 237.403825 88.200159 L 237.265301 88.061634 Z M 278.853777 114.47335 C 279.45482 113.869161 279.452936 112.893294 278.849971 112.291328 L 254.56832 88.094283 C 253.965487 87.492505 252.987736 87.494388 252.386297 88.098088 L 252.317139 88.167492 C 251.716095 88.771681 251.717979 89.747548 252.320944 90.349514 L 276.602596 114.546559 C 277.205429 115.148337 278.183179 115.146453 278.784618 114.542754 L 278.853777 114.47335 Z M 246.403463 93.025555 C 246.403463 92.262571 245.783655 91.642763 245.020671 91.642763 L 244.662728 91.642763 C 243.899743 91.642763 243.279936 92.262571 243.279936 93.025555 L 243.279936 125.104814 C 243.279936 125.867798 243.899743 126.487605 244.662728 126.487605 L 245.020671 126.487605 C 245.783655 126.487605 246.403463 125.867798 246.403463 125.104814 L 246.403463 93.025555 Z M 237.488789 96.171689 L 225.220753 108.630001 Q 225.073807 108.77883 225.249011 108.891864 Q 227.379716 110.274656 228.877426 111.097926 Q 231.11363 112.32812 234.207014 113.401951 Q 236.098462 114.059436 238.656815 114.496504 C 238.718984 114.505923 238.773618 114.460709 238.773618 114.39854 L 238.773618 96.222554 Q 238.773618 96.096332 238.647396 96.096332 L 237.667761 96.096332 Q 237.562262 96.096332 237.488789 96.171689 Z M 262.927257 110.031631 C 263.373745 109.741509 264.076444 109.351539 264.526699 109.003015 Q 264.683064 108.880561 264.54177 108.741151 Q 258.032853 102.277448 252.548784 96.685997 C 251.981727 96.109519 251.616248 96.149082 250.941807 96.149082 C 250.890942 96.149082 250.851379 96.188644 250.851379 96.239509 L 250.851379 114.379701 C 250.851379 114.511575 250.970066 114.609538 251.100056 114.586931 C 255.244663 113.812643 259.393038 112.333772 262.927257 110.031631 Z M 246.355913 132.957167 C 246.365784 132.197744 245.759165 131.574169 245.000004 131.562827 L 244.766418 131.559568 C 244.007126 131.549678 243.383551 132.156298 243.372097 132.915495 L 243.346325 134.761541 C 243.336453 135.520965 243.943073 136.14454 244.702233 136.155881 L 244.935819 136.15914 C 245.695112 136.169031 246.318686 135.562411 246.330141 134.803213 L 246.355913 132.957167 Z" style="fill:#087297;"/>
	</g>
	<g id="surface4">
	</g>
</svg>
