<?xml version="1.0" encoding="utf-8"?>
<svg xmlns="http://www.w3.org/2000/svg" width="490pt" height="280pt" viewBox="0 0 490 280" version="1.1" xmlns:xlink="http://www.w3.org/1999/xlink">
	<g id="surface2">
		<path vector-effect="non-scaling-stroke" d="M 273.129612 126.549497 Q 272.539593 126.698697 273.451748 126.647833" style="fill:none;stroke-width:0.50;stroke:#b0c5c1;"/>
		<path vector-effect="non-scaling-stroke" d="M 273.451748 126.647833 Q 273.573821 126.70887 273.665376 126.827551 Q 273.770494 126.956406 273.926476 127.003879 Q 275.628713 127.509125 277.568315 128.519616 Q 278.544897 129.028253 280.19288 129.38769 Q 281.813736 129.747126 282.851355 130.092999 Q 286.869585 131.442582 289.494151 132.25301 Q 295.679173 134.165484 301.670914 134.901312 C 303.203606 135.091203 305.007571 135.08103 306.431754 134.772457 C 308.913901 134.236693 311.81313 133.097347 313.813768 132.558192 Q 325.119067 129.496199 336.651557 132.273355" style="fill:none;stroke-width:0.50;stroke:#d1dcd6;"/>
		<path vector-effect="non-scaling-stroke" d="M 336.651557 132.273355 Q 330.52418 131.222173 326.444914 131.140791 Q 322.33852 131.056018 316.668916 132.147892 C 313.762904 132.707392 310.778902 133.843347 308.208591 134.602912 Q 305.434826 135.420121 303.474879 135.34213 Q 300.548522 135.226839 297.171174 134.514748 Q 291.362543 133.290629 286.744121 131.795237 Q 285.69633 131.456146 284.645147 131.147573" style="fill:none;stroke-width:0.50;stroke:#dce5e2;"/>
		<path vector-effect="non-scaling-stroke" d="M 284.645147 131.147573 C 282.536 130.39479 280.064026 129.994663 278.243106 129.408035 Q 276.171259 128.740026 272.020783 127.254806 Q 271.447719 127.051352 270.850919 127.183597 C 267.087007 128.017761 263.987714 128.723071 260.634103 129.184235 C 246.059965 131.188264 230.631317 131.245909 216.538689 126.966579 Q 215.979188 126.797033 215.114506 127.224288 Q 214.466842 127.543034 209.875548 129.441944 C 207.647719 130.360881 205.508054 130.693191 203.534543 131.195046 Q 202.985215 131.334073 203.531152 131.496837 Q 213.992114 134.59613 224.887113 133.968811 Q 228.254288 133.772138 236.236494 132.988838 Q 243.089526 132.314046 252.601033 133.056656 Q 257.480555 133.436438 262.360076 133.867084 Q 268.206008 134.385893 275.323531 133.504256 Q 280.050462 132.92102 284.573938 131.456146" style="fill:none;stroke-width:0.50;stroke:#d1dcd6;"/>
		<path vector-effect="non-scaling-stroke" d="M 284.573938 131.456146 Q 284.624802 131.483273 284.65532 131.5104 Q 284.750265 131.591782 284.651929 131.666382 Q 284.302665 131.930873 283.848283 132.049555 Q 281.250845 132.734519 278.416043 133.40592 Q 275.977977 133.982375 272.882075 134.206175 Q 266.551243 134.663948 259.945747 134.148529 Q 257.778955 133.978984 253.753943 133.636502 Q 250.563095 133.365229 247.558748 133.314365 Q 238.952614 133.171947 229.885317 133.978984 Q 225.02614 134.40963 223.120448 134.450321 Q 218.078163 134.562221 214.463451 134.18583 Q 210.340103 133.758575 203.938062 132.022428 C 203.368388 131.866446 202.958088 131.429018 202.218869 131.476491 Q 198.966985 131.683337 197.396993 131.961392 Q 191.093289 133.080392 186.712231 133.81622 C 183.935074 134.284166 181.435973 134.552048 178.953825 134.423193 Q 176.997269 134.324857 175.403541 133.70432 Q 171.988893 132.375083 168.5166 131.493446 Q 165.359661 130.693191 160.480139 130.537209 Q 158.391338 130.472781 153.023525 131.188264 Q 152.976052 131.195046 152.206315 131.401891 Q 151.728197 131.527355 151.273815 131.351027" style="fill:none;stroke-width:0.50;stroke:#dce5e2;"/>
		<path vector-effect="non-scaling-stroke" d="M 151.273815 131.351027 C 157.865747 130.015008 164.420379 129.913281 170.819029 131.829146 Q 172.707766 132.392037 175.840969 133.487302 C 178.763934 134.507966 182.107373 134.236693 185.359257 133.738229 Q 189.547033 133.097347 194.986055 132.093637 C 197.641139 131.601955 200.689568 131.364591 203.073379 130.825436 Q 205.38259 130.306627 207.295064 129.513153 Q 208.651429 128.950262 210.848739 128.200871 Q 212.659486 127.580334 214.368505 126.780079" style="fill:none;stroke-width:0.50;stroke:#d1dcd6;"/>
		<path vector-effect="non-scaling-stroke" d="M 214.368505 126.780079 L 215.073815 126.715651 Q 215.355261 126.688524 215.077206 126.63766 L 214.063323 126.447769" style="fill:none;stroke-width:0.50;stroke:#b0c5c1;"/>
		<path vector-effect="non-scaling-stroke" d="M 330.232562 138.475333 L 330.239344 138.322742 Q 330.242735 138.254923 330.174916 138.237969 Q 330.15118 138.231187 330.090144 138.244751 Q 324.888485 139.373924 319.7343 140.682816 C 312.559131 142.507126 306.401236 141.520371 297.371238 140.248779 Q 293.62089 139.719797 287.479949 139.485824 C 281.38309 139.255242 274.519885 140.086016 269.233454 141.489853 Q 266.863207 142.120563 254.974671 145.358883 Q 250.190095 146.660993 246.046401 147.037384 Q 240.183515 147.573148 234.083265 146.101493 Q 227.437079 144.500982 224.080076 143.2633 Q 219.153082 141.449162 217.552571 140.947307 Q 206.450727 137.447886 194.897891 137.997214 C 191.228925 138.170151 185.973012 138.95006 182.585492 139.299324 Q 177.590679 139.811352 172.446666 139.180642 Q 171.27002 139.034833 166.339634 137.98026 Q 162.318013 137.118968 158.10311 136.725622" style="fill:none;stroke-width:0.50;stroke:#8eaca5;"/>
		<path vector-effect="non-scaling-stroke" d="M 284.645147 131.147573 Q 284.628193 131.340855 284.573938 131.456146" style="fill:none;stroke-width:0.50;stroke:#aec3b9;"/>
		<path vector-effect="non-scaling-stroke" d="M 349.872721 132.032601 L 342.992562 134.44693 C 342.646689 134.569003 342.263516 134.477448 342.012588 134.212957 Q 341.815916 134.009502 341.31067 133.751793 Q 339.07945 132.609056 336.651557 132.273355" style="fill:none;stroke-width:0.50;stroke:#aec3b9;"/>
		<path vector-effect="non-scaling-stroke" d="M 273.451748 126.647833 Q 273.461921 126.607142 273.472094 126.566451" style="fill:none;stroke-width:0.50;stroke:#83a399;"/>
		<path vector-effect="non-scaling-stroke" d="M 198.675367 129.570799 Q 198.512603 129.580972 198.49904 129.655572 C 198.488867 129.703044 198.526167 129.747126 198.57364 129.743735 Q 201.316887 129.679308 203.849898 129.207971 Q 206.925455 128.634907 207.284891 128.556916 Q 209.007474 128.187307 210.618157 127.471825" style="fill:none;stroke-width:0.50;stroke:#d1dcd6;"/>
		<path vector-effect="non-scaling-stroke" d="M 213.327496 126.566451 L 214.368505 126.780079" style="fill:none;stroke-width:0.50;stroke:#83a399;"/>
		<path vector-effect="non-scaling-stroke" d="M 151.273815 131.351027 Q 148.069403 131.88001 144.990455 133.375402" style="fill:none;stroke-width:0.50;stroke:#aec3b9;"/>
		<path vector-effect="non-scaling-stroke" d="M 350.157558 130.269327 Q 347.319365 129.682699 345.606955 129.143544 C 344.369272 128.75698 342.877271 128.000807 341.595506 127.621025 Q 338.926859 126.830942 337.078812 126.512197 Q 334.433901 126.054424 332.484127 125.691596 Q 328.604924 124.969332 326.366923 125.07445 Q 325.783686 125.104968 325.498849 125.108359 Q 325.468331 125.11175 320.558291 125.057496 Q 318.116835 125.033759 316.584143 125.325378 C 314.312232 125.759414 312.206476 125.793323 309.965084 126.41386 C 307.1981 127.180206 304.838025 128.072016 302.66106 128.665426 C 298.280002 129.869199 293.451344 129.970926 288.887177 129.502981 Q 282.5733 128.851926 276.490005 127.102215 C 276.412014 127.078479 276.364541 126.993706 276.391668 126.915715 Q 276.456096 126.725824 276.598514 126.800424" style="fill:none;stroke-width:0.50;stroke:#d1dcd6;"/>
		<path vector-effect="non-scaling-stroke" d="M 192.463217 129.736954 Q 189.102824 129.940408 185.850939 129.05538 Q 184.223302 128.614562 180.269499 127.312452 Q 175.742632 125.823842 169.805146 125.118532 C 167.943536 124.901514 166.105662 125.091405 163.911742 125.054105 Q 160.130875 124.996459 156.207591 125.600042" style="fill:none;stroke-width:0.50;stroke:#d1dcd6;"/>
		<path vector-effect="non-scaling-stroke" d="M 235.249739 88.900206 Q 238.094714 93.8645 241.702643 98.320158 Q 243.516781 100.561551 245.388564 102.711389 C 245.463164 102.796161 245.598801 102.769034 245.636101 102.663916 Q 246.097265 101.249906 246.846656 99.896932 Q 250.814023 92.711591 256.107236 86.42145" style="fill:none;stroke-width:0.50;stroke:#e9c9b4;"/>
		<path vector-effect="non-scaling-stroke" d="M 256.107236 86.42145 Q 260.552721 81.88441 262.936531 77.805143 C 268.022899 69.093892 269.243627 58.378611 268.904536 48.148231 Q 268.901145 48.005813 268.812981 47.944776 C 268.755336 47.904085 268.677345 47.917649 268.633263 47.975295 Q 267.636335 49.29775 265.991743 50.694806 Q 263.736787 52.60728 260.396739 55.191154 Q 260.213629 55.333573 260.267884 55.109772 Q 260.335702 54.835109 260.257711 54.594354 Q 259.565965 52.461471 258.69111 50.894869 C 256.442936 46.859685 253.787852 43.075427 250.949659 39.152143 C 250.193486 38.104351 249.474613 36.795459 248.715048 35.635768 C 248.596367 35.452658 248.325094 35.456049 248.209803 35.642549 Q 247.324775 37.053169 246.310892 38.47396 Q 240.817615 46.147593 239.349351 48.29404 Q 237.196122 51.437415 235.680385 54.455327 Q 235.602394 54.604527 235.605784 54.774072 L 235.612566 55.119945 Q 235.615957 55.340354 235.446412 55.194545 Q 231.373927 51.64087 228.105088 47.507349 Q 227.969452 47.334412 227.793124 47.317458 C 227.681224 47.307285 227.576106 47.388667 227.562542 47.500567 Q 227.264142 49.786041 227.060687 51.946052 C 226.813151 54.563836 227.230233 57.564792 227.511679 60.406376 C 227.62697 61.576241 228.088134 63.512451 228.016924 65.150262 Q 228.013534 65.207907 227.959279 65.204516 Q 227.908415 65.201125 227.901633 65.150262 C 227.749042 63.190315 227.277706 61.169331 227.192933 59.277203 C 226.938615 53.672026 226.429978 49.175677 223.249303 45.082847 Q 220.929919 42.098845 217.403371 38.982597 Q 217.159226 38.765579 216.891344 38.640115 C 216.745534 38.572297 216.582771 38.687588 216.599725 38.846961 Q 217.06428 43.095773 216.470871 47.280158 Q 216.328452 48.287258 214.616042 55.679446 C 213.602159 60.060503 213.500432 64.339834 214.710988 68.581864 Q 214.843233 69.053201 215.206061 69.751728 Q 215.626534 70.572329 215.928325 70.745266 Q 223.483276 75.048332 229.447889 81.491064 Q 231.299327 83.491702 235.249739 88.900206" style="fill:none;stroke-width:0.50;stroke:#f3ddcc;"/>
		<path vector-effect="non-scaling-stroke" d="M 256.107236 86.42145 C 255.15778 79.415826 251.593932 72.817113 247.050111 67.059345 Q 246.938211 66.916926 246.799183 67.028827 Q 246.297329 67.432345 245.812428 68.059664 Q 242.570717 72.277958 240.20386 76.286015 Q 236.711222 82.206547 235.249739 88.900206" style="fill:none;stroke-width:0.50;stroke:#dea782;"/>
		<path vector-effect="non-scaling-stroke" d="M 266.120597 76.19446 C 265.740815 77.04897 265.320342 77.527089 264.957515 78.062853 Q 264.933778 78.096762 264.926997 78.140844 Q 264.899869 78.262916 265.049069 78.215444 Q 265.096542 78.20188 265.133842 78.167971 C 269.674273 74.400668 275.001395 71.189475 280.49128 69.727992 C 280.745599 69.660174 280.938881 69.456719 280.996526 69.202401 Q 282.271509 63.353078 280.976181 57.239265 C 279.914825 52.220716 278.843297 46.412084 280.355644 41.417272 Q 280.545535 40.793344 279.982644 41.125653 C 276.80536 43.017782 269.708182 47.88374 270.108309 52.149507 Q 271.281565 64.658579 266.120597 76.19446" style="fill:none;stroke-width:0.50;stroke:#f3ddcc;"/>
		<path vector-effect="non-scaling-stroke" d="M 219.153082 91.392526 Q 216.186034 87.492978 214.636388 83.423884 Q 212.788341 78.57488 210.499475 69.951792 Q 210.312975 69.246483 209.84842 69.073546 C 205.335117 67.381481 201.086305 67.5239 195.576074 67.517118 Q 194.287527 67.513727 191.815553 67.106817 Q 191.249271 67.015263 191.598535 67.469645 Q 193.897573 70.470602 195.867692 73.895422 Q 198.041266 77.67968 199.13314 79.164899 C 203.866852 85.621194 211.235303 90.968662 219.309064 92.094445 C 219.441309 92.111399 219.549818 91.996108 219.529473 91.863863 C 219.512518 91.758744 219.275154 91.551899 219.153082 91.392526" style="fill:none;stroke-width:0.50;stroke:#f3ddcc;"/>
		<path vector-effect="non-scaling-stroke" d="M 280.138626 70.518075 Q 274.689431 73.06804 270.915346 75.706169 Q 262.794113 81.368991 255.907172 89.683507 Q 251.65836 94.810565 247.830021 100.432696 Q 246.517738 102.358734 246.165083 103.155598 Q 246.097265 103.308189 246.178647 103.453998 L 246.894129 104.695072 C 246.97212 104.827317 247.114538 104.901917 247.263738 104.891745 Q 259.80672 104.047408 268.409463 94.98011 Q 269.8506 93.460982 271.318865 91.538335" style="fill:none;stroke-width:0.50;stroke:#e9c9b4;"/>
		<path vector-effect="non-scaling-stroke" d="M 271.318865 91.538335 Q 275.415086 91.304362 279.467225 88.91716 Q 285.597993 85.30584 289.073678 81.402901 C 292.837589 77.174434 296.201374 71.942257 301.392859 69.260046 Q 302.084605 68.90061 301.318259 68.744628 C 298.466503 68.161391 295.682564 67.744309 292.752817 67.856209 Q 286.493194 68.093573 280.467544 70.348529 Q 280.277653 70.416347 280.138626 70.518075" style="fill:none;stroke-width:0.50;stroke:#f3ddcc;"/>
		<path vector-effect="non-scaling-stroke" d="M 271.318865 91.538335 Q 275.547331 85.126121 278.121033 78.08998 Q 279.44688 74.465096 280.45398 70.735093 Q 280.501453 70.551984 280.321735 70.507902 Q 280.240353 70.484165 280.138626 70.518075" style="fill:none;stroke-width:0.50;stroke:#dea782;"/>
		<path vector-effect="non-scaling-stroke" d="M 211.988086 69.558447 Q 212.194931 71.308157 212.801904 73.318967 Q 213.78866 76.604761 213.802223 76.648843 C 216.620071 86.865659 222.86613 96.065202 232.211482 101.287206 Q 238.515187 104.806972 245.839555 104.810363 Q 246.134565 104.810363 245.998928 104.545872 C 245.74461 104.05419 245.456382 103.545553 245.032519 103.12508 Q 238.979741 97.150294 233.978147 89.805579 C 230.526199 84.736167 226.233305 79.754918 221.360565 75.719733 Q 218.21719 73.118904 216.80318 72.322039 Q 215.107724 71.369193 212.110158 69.480456 Q 211.96774 69.388901 211.988086 69.558447" style="fill:none;stroke-width:0.50;stroke:#e9c9b4;"/>
		<path vector-effect="non-scaling-stroke" d="M 247.78933 111.34804 C 247.75542 111.361604 247.735075 111.398904 247.741857 111.432813 Q 247.772375 111.612531 247.962266 111.778686 C 249.349149 112.985851 250.834368 114.165888 252.526433 114.203188 Q 259.50832 114.345606 267.042925 111.761732 C 272.15642 110.00863 276.754496 107.570565 280.175926 105.319 Q 287.625758 100.422523 295.384164 96.038075 C 297.411929 94.895338 299.663494 93.406727 301.379296 92.45049 C 301.542059 92.358936 301.521714 92.118181 301.345386 92.057145 Q 299.744876 91.504426 297.537393 91.29758 Q 292.210271 90.795725 287.134076 92.185999 Q 272.661666 96.156757 259.820284 103.68458 Q 257.75861 104.891745 254.401607 107.153483 C 251.322659 109.22533 249.393231 110.768194 247.78933 111.34804" style="fill:none;stroke-width:0.50;stroke:#d1dcd6;"/>
		<path vector-effect="non-scaling-stroke" d="M 189.872561 91.948635 Q 189.285933 92.457272 189.119778 93.098154 C 188.27205 96.353429 189.150296 99.47985 190.462579 102.507934 C 194.253618 111.27344 201.727187 120.269529 211.092885 122.98904 C 215.473943 124.260631 219.943164 124.338622 224.714177 123.938495 C 230.376999 123.463767 236.060167 122.026021 241.173661 119.520137 Q 242.95389 118.648673 245.67001 117.258399 Q 246.053183 117.061726 246.497392 117.017644 Q 246.666938 116.997299 246.816138 117.082072 Q 251.336223 119.621864 256.470063 120.835811 C 263.323095 122.460057 270.684764 122.941567 277.517451 121.61572 C 282.607209 120.628965 287.106949 117.777209 290.874252 114.311697 Q 297.611993 108.113111 301.660741 99.161104 Q 303.098488 95.980429 302.576287 92.7455 Q 302.508469 92.331808 301.999832 92.328418 Q 301.823505 92.328418 301.718387 92.470836 C 301.457286 92.840445 300.887613 93.013382 300.599386 93.206664 Q 298.198621 94.797001 293.193635 97.821694 C 288.659986 100.561551 285.17752 102.941971 280.908363 105.858155 C 273.743367 110.747849 266.249452 114.742343 257.466991 115.627371 C 256.395463 115.73588 255.089962 115.695189 253.903143 115.779962 Q 253.387725 115.817262 253.845498 116.061407 L 259.338774 118.980982 Q 260.569675 119.635428 259.237047 119.225128 Q 252.66546 117.200754 247.724902 112.636587 C 247.192529 112.141514 246.280374 111.029295 245.971801 110.26634 Q 245.883637 110.052712 245.686964 110.171394 Q 245.364828 110.368067 242.014607 113.084187 Q 240.068224 114.660961 238.247305 115.668062 Q 232.787937 118.685973 226.826714 120.354301 Q 222.64233 121.527557 216.694671 121.744575 Q 216.674325 121.747966 216.657371 121.72423 Q 216.647198 121.710666 216.633634 121.707275 Q 216.559034 121.683539 216.650589 121.673366 Q 221.984493 121.066393 225.310977 120.130501 Q 230.054862 118.794482 234.727538 116.36998 Q 235.059848 116.200435 234.686847 116.190262 Q 224.286922 115.986807 215.419688 110.551176 Q 211.160703 107.943565 208.39711 105.539409 Q 204.477217 102.134934 200.981187 99.551059 Q 198.126039 97.438521 191.157716 93.0812 Q 190.76437 92.830272 190.482925 92.440318" style="fill:none;stroke-width:0.50;stroke:#b0c5c1;"/>
		<path vector-effect="non-scaling-stroke" d="M 190.482925 92.440318 Q 191.123807 92.660727 192.032571 93.227009 Q 195.765965 95.549783 199.495967 97.882731 C 202.537615 99.781641 206.952582 103.430262 211.170876 106.573637 C 218.824163 112.280541 227.576106 115.122125 236.751913 114.796597 C 238.718641 114.725388 240.139433 113.46736 241.400852 112.422959 C 241.482234 112.355141 241.485625 112.233068 241.411025 112.161859 C 234.544429 105.593663 226.121405 100.531033 217.647517 96.485675 Q 207.064482 91.429826 195.386183 91.178898 Q 192.486953 91.117862 189.872561 91.948635" style="fill:none;stroke-width:0.50;stroke:#d1dcd6;"/>
		<path vector-effect="non-scaling-stroke" d="M 190.482925 92.440318 Q 190.147224 92.426754 189.872561 91.948635" style="fill:none;stroke-width:0.50;stroke:#83a399;"/>
		<path vector-effect="non-scaling-stroke" d="M 230.12268 144.619664 Q 230.248144 144.646792 230.200671 144.52811 Q 230.058253 144.175455 229.688644 144.219537 Q 228.77988 144.328046 229.685253 144.524719 L 230.12268 144.619664" style="fill:none;stroke-width:0.50;stroke:#aec3b9;"/>
		<path d="M 273.129612 126.549497 Q 272.539593 126.698697 273.451748 126.647833 Q 273.573821 126.70887 273.665376 126.827551 Q 273.770494 126.956406 273.926476 127.003879 Q 275.628713 127.509125 277.568315 128.519616 Q 278.544897 129.028253 280.19288 129.38769 Q 281.813736 129.747126 282.851355 130.092999 Q 286.869585 131.442582 289.494151 132.25301 Q 295.679173 134.165484 301.670914 134.901312 C 303.203606 135.091203 305.007571 135.08103 306.431754 134.772457 C 308.913901 134.236693 311.81313 133.097347 313.813768 132.558192 Q 325.119067 129.496199 336.651557 132.273355 Q 330.52418 131.222173 326.444914 131.140791 Q 322.33852 131.056018 316.668916 132.147892 C 313.762904 132.707392 310.778902 133.843347 308.208591 134.602912 Q 305.434826 135.420121 303.474879 135.34213 Q 300.548522 135.226839 297.171174 134.514748 Q 291.362543 133.290629 286.744121 131.795237 Q 285.69633 131.456146 284.645147 131.147573 C 282.536 130.39479 280.064026 129.994663 278.243106 129.408035 Q 276.171259 128.740026 272.020783 127.254806 Q 271.447719 127.051352 270.850919 127.183597 C 267.087007 128.017761 263.987714 128.723071 260.634103 129.184235 C 246.059965 131.188264 230.631317 131.245909 216.538689 126.966579 Q 215.979188 126.797033 215.114506 127.224288 Q 214.466842 127.543034 209.875548 129.441944 C 207.647719 130.360881 205.508054 130.693191 203.534543 131.195046 Q 202.985215 131.334073 203.531152 131.496837 Q 213.992114 134.59613 224.887113 133.968811 Q 228.254288 133.772138 236.236494 132.988838 Q 243.089526 132.314046 252.601033 133.056656 Q 257.480555 133.436438 262.360076 133.867084 Q 268.206008 134.385893 275.323531 133.504256 Q 280.050462 132.92102 284.573938 131.456146 Q 284.624802 131.483273 284.65532 131.5104 Q 284.750265 131.591782 284.651929 131.666382 Q 284.302665 131.930873 283.848283 132.049555 Q 281.250845 132.734519 278.416043 133.40592 Q 275.977977 133.982375 272.882075 134.206175 Q 266.551243 134.663948 259.945747 134.148529 Q 257.778955 133.978984 253.753943 133.636502 Q 250.563095 133.365229 247.558748 133.314365 Q 238.952614 133.171947 229.885317 133.978984 Q 225.02614 134.40963 223.120448 134.450321 Q 218.078163 134.562221 214.463451 134.18583 Q 210.340103 133.758575 203.938062 132.022428 C 203.368388 131.866446 202.958088 131.429018 202.218869 131.476491 Q 198.966985 131.683337 197.396993 131.961392 Q 191.093289 133.080392 186.712231 133.81622 C 183.935074 134.284166 181.435973 134.552048 178.953825 134.423193 Q 176.997269 134.324857 175.403541 133.70432 Q 171.988893 132.375083 168.5166 131.493446 Q 165.359661 130.693191 160.480139 130.537209 Q 158.391338 130.472781 153.023525 131.188264 Q 152.976052 131.195046 152.206315 131.401891 Q 151.728197 131.527355 151.273815 131.351027 C 157.865747 130.015008 164.420379 129.913281 170.819029 131.829146 Q 172.707766 132.392037 175.840969 133.487302 C 178.763934 134.507966 182.107373 134.236693 185.359257 133.738229 Q 189.547033 133.097347 194.986055 132.093637 C 197.641139 131.601955 200.689568 131.364591 203.073379 130.825436 Q 205.38259 130.306627 207.295064 129.513153 Q 208.651429 128.950262 210.848739 128.200871 Q 212.659486 127.580334 214.368505 126.780079 L 215.073815 126.715651 Q 215.355261 126.688524 215.077206 126.63766 L 214.063323 126.447769 Q 212.493331 125.603432 210.835176 125.023587 Q 208.237737 124.121604 207.549382 123.799467 Q 201.354187 120.900238 196.562829 116.400499 Q 184.494575 105.06129 180.296626 89.113833 C 177.600852 78.880062 177.254979 67.391654 179.740517 56.801837 Q 183.684147 39.993089 195.352274 27.27378 Q 197.973448 24.415241 199.845231 22.950367 C 202.052715 21.224393 204.08048 19.478074 206.213363 18.172573 C 207.596855 17.328236 209.082074 16.331308 210.302803 15.639562 Q 224.483595 7.63362 240.407315 6.846929 Q 243.743972 6.684165 248.837121 6.92831 Q 251.356569 7.050383 252.835006 7.308093 C 254.56098 7.606493 256.219136 7.715002 258.141783 8.091393 Q 263.034868 9.040848 268.338254 10.861768 Q 274.411376 12.947178 280.993135 17.033227 Q 293.468299 24.78146 300.975777 37.110814 C 306.353763 45.944139 309.76502 56.58821 310.117675 67.22889 Q 310.39912 75.753642 309.398801 81.989528 Q 308.110255 90.056507 305.000789 97.333403 C 301.653959 105.17319 296.340401 111.890586 289.792551 117.316045 C 288.236122 118.604591 286.866194 119.448928 284.885902 120.771383 Q 281.413608 123.090767 276.737541 124.908296 C 275.584631 125.355896 274.357121 126.044251 273.129612 126.549497 Z M 235.249739 88.900206 Q 238.094714 93.8645 241.702643 98.320158 Q 243.516781 100.561551 245.388564 102.711389 C 245.463164 102.796161 245.598801 102.769034 245.636101 102.663916 Q 246.097265 101.249906 246.846656 99.896932 Q 250.814023 92.711591 256.107236 86.42145 Q 260.552721 81.88441 262.936531 77.805143 C 268.022899 69.093892 269.243627 58.378611 268.904536 48.148231 Q 268.901145 48.005813 268.812981 47.944776 C 268.755336 47.904085 268.677345 47.917649 268.633263 47.975295 Q 267.636335 49.29775 265.991743 50.694806 Q 263.736787 52.60728 260.396739 55.191154 Q 260.213629 55.333573 260.267884 55.109772 Q 260.335702 54.835109 260.257711 54.594354 Q 259.565965 52.461471 258.69111 50.894869 C 256.442936 46.859685 253.787852 43.075427 250.949659 39.152143 C 250.193486 38.104351 249.474613 36.795459 248.715048 35.635768 C 248.596367 35.452658 248.325094 35.456049 248.209803 35.642549 Q 247.324775 37.053169 246.310892 38.47396 Q 240.817615 46.147593 239.349351 48.29404 Q 237.196122 51.437415 235.680385 54.455327 Q 235.602394 54.604527 235.605784 54.774072 L 235.612566 55.119945 Q 235.615957 55.340354 235.446412 55.194545 Q 231.373927 51.64087 228.105088 47.507349 Q 227.969452 47.334412 227.793124 47.317458 C 227.681224 47.307285 227.576106 47.388667 227.562542 47.500567 Q 227.264142 49.786041 227.060687 51.946052 C 226.813151 54.563836 227.230233 57.564792 227.511679 60.406376 C 227.62697 61.576241 228.088134 63.512451 228.016924 65.150262 Q 228.013534 65.207907 227.959279 65.204516 Q 227.908415 65.201125 227.901633 65.150262 C 227.749042 63.190315 227.277706 61.169331 227.192933 59.277203 C 226.938615 53.672026 226.429978 49.175677 223.249303 45.082847 Q 220.929919 42.098845 217.403371 38.982597 Q 217.159226 38.765579 216.891344 38.640115 C 216.745534 38.572297 216.582771 38.687588 216.599725 38.846961 Q 217.06428 43.095773 216.470871 47.280158 Q 216.328452 48.287258 214.616042 55.679446 C 213.602159 60.060503 213.500432 64.339834 214.710988 68.581864 Q 214.843233 69.053201 215.206061 69.751728 Q 215.626534 70.572329 215.928325 70.745266 Q 223.483276 75.048332 229.447889 81.491064 Q 231.299327 83.491702 235.249739 88.900206 Z M 266.120597 76.19446 C 265.740815 77.04897 265.320342 77.527089 264.957515 78.062853 Q 264.933778 78.096762 264.926997 78.140844 Q 264.899869 78.262916 265.049069 78.215444 Q 265.096542 78.20188 265.133842 78.167971 C 269.674273 74.400668 275.001395 71.189475 280.49128 69.727992 C 280.745599 69.660174 280.938881 69.456719 280.996526 69.202401 Q 282.271509 63.353078 280.976181 57.239265 C 279.914825 52.220716 278.843297 46.412084 280.355644 41.417272 Q 280.545535 40.793344 279.982644 41.125653 C 276.80536 43.017782 269.708182 47.88374 270.108309 52.149507 Q 271.281565 64.658579 266.120597 76.19446 Z M 219.153082 91.392526 Q 216.186034 87.492978 214.636388 83.423884 Q 212.788341 78.57488 210.499475 69.951792 Q 210.312975 69.246483 209.84842 69.073546 C 205.335117 67.381481 201.086305 67.5239 195.576074 67.517118 Q 194.287527 67.513727 191.815553 67.106817 Q 191.249271 67.015263 191.598535 67.469645 Q 193.897573 70.470602 195.867692 73.895422 Q 198.041266 77.67968 199.13314 79.164899 C 203.866852 85.621194 211.235303 90.968662 219.309064 92.094445 C 219.441309 92.111399 219.549818 91.996108 219.529473 91.863863 C 219.512518 91.758744 219.275154 91.551899 219.153082 91.392526 Z M 280.138626 70.518075 Q 274.689431 73.06804 270.915346 75.706169 Q 262.794113 81.368991 255.907172 89.683507 Q 251.65836 94.810565 247.830021 100.432696 Q 246.517738 102.358734 246.165083 103.155598 Q 246.097265 103.308189 246.178647 103.453998 L 246.894129 104.695072 C 246.97212 104.827317 247.114538 104.901917 247.263738 104.891745 Q 259.80672 104.047408 268.409463 94.98011 Q 269.8506 93.460982 271.318865 91.538335 Q 275.415086 91.304362 279.467225 88.91716 Q 285.597993 85.30584 289.073678 81.402901 C 292.837589 77.174434 296.201374 71.942257 301.392859 69.260046 Q 302.084605 68.90061 301.318259 68.744628 C 298.466503 68.161391 295.682564 67.744309 292.752817 67.856209 Q 286.493194 68.093573 280.467544 70.348529 Q 280.277653 70.416347 280.138626 70.518075 Z M 211.988086 69.558447 Q 212.194931 71.308157 212.801904 73.318967 Q 213.78866 76.604761 213.802223 76.648843 C 216.620071 86.865659 222.86613 96.065202 232.211482 101.287206 Q 238.515187 104.806972 245.839555 104.810363 Q 246.134565 104.810363 245.998928 104.545872 C 245.74461 104.05419 245.456382 103.545553 245.032519 103.12508 Q 238.979741 97.150294 233.978147 89.805579 C 230.526199 84.736167 226.233305 79.754918 221.360565 75.719733 Q 218.21719 73.118904 216.80318 72.322039 Q 215.107724 71.369193 212.110158 69.480456 Q 211.96774 69.388901 211.988086 69.558447 Z M 247.78933 111.34804 C 247.75542 111.361604 247.735075 111.398904 247.741857 111.432813 Q 247.772375 111.612531 247.962266 111.778686 C 249.349149 112.985851 250.834368 114.165888 252.526433 114.203188 Q 259.50832 114.345606 267.042925 111.761732 C 272.15642 110.00863 276.754496 107.570565 280.175926 105.319 Q 287.625758 100.422523 295.384164 96.038075 C 297.411929 94.895338 299.663494 93.406727 301.379296 92.45049 C 301.542059 92.358936 301.521714 92.118181 301.345386 92.057145 Q 299.744876 91.504426 297.537393 91.29758 Q 292.210271 90.795725 287.134076 92.185999 Q 272.661666 96.156757 259.820284 103.68458 Q 257.75861 104.891745 254.401607 107.153483 C 251.322659 109.22533 249.393231 110.768194 247.78933 111.34804 Z M 189.872561 91.948635 Q 189.285933 92.457272 189.119778 93.098154 C 188.27205 96.353429 189.150296 99.47985 190.462579 102.507934 C 194.253618 111.27344 201.727187 120.269529 211.092885 122.98904 C 215.473943 124.260631 219.943164 124.338622 224.714177 123.938495 C 230.376999 123.463767 236.060167 122.026021 241.173661 119.520137 Q 242.95389 118.648673 245.67001 117.258399 Q 246.053183 117.061726 246.497392 117.017644 Q 246.666938 116.997299 246.816138 117.082072 Q 251.336223 119.621864 256.470063 120.835811 C 263.323095 122.460057 270.684764 122.941567 277.517451 121.61572 C 282.607209 120.628965 287.106949 117.777209 290.874252 114.311697 Q 297.611993 108.113111 301.660741 99.161104 Q 303.098488 95.980429 302.576287 92.7455 Q 302.508469 92.331808 301.999832 92.328418 Q 301.823505 92.328418 301.718387 92.470836 C 301.457286 92.840445 300.887613 93.013382 300.599386 93.206664 Q 298.198621 94.797001 293.193635 97.821694 C 288.659986 100.561551 285.17752 102.941971 280.908363 105.858155 C 273.743367 110.747849 266.249452 114.742343 257.466991 115.627371 C 256.395463 115.73588 255.089962 115.695189 253.903143 115.779962 Q 253.387725 115.817262 253.845498 116.061407 L 259.338774 118.980982 Q 260.569675 119.635428 259.237047 119.225128 Q 252.66546 117.200754 247.724902 112.636587 C 247.192529 112.141514 246.280374 111.029295 245.971801 110.26634 Q 245.883637 110.052712 245.686964 110.171394 Q 245.364828 110.368067 242.014607 113.084187 Q 240.068224 114.660961 238.247305 115.668062 Q 232.787937 118.685973 226.826714 120.354301 Q 222.64233 121.527557 216.694671 121.744575 Q 216.674325 121.747966 216.657371 121.72423 Q 216.647198 121.710666 216.633634 121.707275 Q 216.559034 121.683539 216.650589 121.673366 Q 221.984493 121.066393 225.310977 120.130501 Q 230.054862 118.794482 234.727538 116.36998 Q 235.059848 116.200435 234.686847 116.190262 Q 224.286922 115.986807 215.419688 110.551176 Q 211.160703 107.943565 208.39711 105.539409 Q 204.477217 102.134934 200.981187 99.551059 Q 198.126039 97.438521 191.157716 93.0812 Q 190.76437 92.830272 190.482925 92.440318 Q 191.123807 92.660727 192.032571 93.227009 Q 195.765965 95.549783 199.495967 97.882731 C 202.537615 99.781641 206.952582 103.430262 211.170876 106.573637 C 218.824163 112.280541 227.576106 115.122125 236.751913 114.796597 C 238.718641 114.725388 240.139433 113.46736 241.400852 112.422959 C 241.482234 112.355141 241.485625 112.233068 241.411025 112.161859 C 234.544429 105.593663 226.121405 100.531033 217.647517 96.485675 Q 207.064482 91.429826 195.386183 91.178898 Q 192.486953 91.117862 189.872561 91.948635 Z" style="fill:#fefefe;"/>
		<path d="M 192.463217 129.736954 Q 189.102824 129.940408 185.850939 129.05538 Q 184.223302 128.614562 180.269499 127.312452 Q 175.742632 125.823842 169.805146 125.118532 C 167.943536 124.901514 166.105662 125.091405 163.911742 125.054105 Q 160.130875 124.996459 156.207591 125.600042 Q 159.052566 124.779441 161.941622 124.684495 C 166.24808 124.545468 170.832592 124.559032 175.071232 125.44406 Q 178.801234 126.223969 182.293873 127.41757 Q 184.955739 128.326334 186.712231 128.695944 Q 189.550424 129.292744 192.463217 129.736954 Z" style="fill:#fefefe;"/>
		<path d="M 350.157558 130.269327 Q 347.319365 129.682699 345.606955 129.143544 C 344.369272 128.75698 342.877271 128.000807 341.595506 127.621025 Q 338.926859 126.830942 337.078812 126.512197 Q 334.433901 126.054424 332.484127 125.691596 Q 328.604924 124.969332 326.366923 125.07445 Q 325.783686 125.104968 325.498849 125.108359 Q 325.468331 125.11175 320.558291 125.057496 Q 318.116835 125.033759 316.584143 125.325378 C 314.312232 125.759414 312.206476 125.793323 309.965084 126.41386 C 307.1981 127.180206 304.838025 128.072016 302.66106 128.665426 C 298.280002 129.869199 293.451344 129.970926 288.887177 129.502981 Q 282.5733 128.851926 276.490005 127.102215 C 276.412014 127.078479 276.364541 126.993706 276.391668 126.915715 Q 276.456096 126.725824 276.598514 126.800424 Q 286.859412 129.736954 297.534002 128.902789 Q 301.413205 128.600998 304.543016 127.536252 Q 308.564637 126.169715 310.317738 125.864533 C 314.179987 125.193132 318.09988 124.630241 322.240183 124.647195 C 326.048177 124.66415 328.764297 124.616677 331.989054 125.206696 Q 334.077855 125.589869 335.376575 125.796714 Q 339.123532 126.390124 342.867098 127.634588 C 343.457117 127.831261 343.999663 128.173743 344.677845 128.360243 Q 347.431265 129.123199 350.157558 130.269327 Z" style="fill:#fefefe;"/>
		<path d="M 192.463217 129.736954 Q 195.552337 129.896326 198.675367 129.570799 Q 198.512603 129.580972 198.49904 129.655572 C 198.488867 129.703044 198.526167 129.747126 198.57364 129.743735 Q 201.316887 129.679308 203.849898 129.207971 Q 206.925455 128.634907 207.284891 128.556916 Q 209.007474 128.187307 210.618157 127.471825 L 213.327496 126.566451 L 214.368505 126.780079 Q 212.659486 127.580334 210.848739 128.200871 Q 208.651429 128.950262 207.295064 129.513153 Q 205.38259 130.306627 203.073379 130.825436 C 200.689568 131.364591 197.641139 131.601955 194.986055 132.093637 Q 189.547033 133.097347 185.359257 133.738229 C 182.107373 134.236693 178.763934 134.507966 175.840969 133.487302 Q 172.707766 132.392037 170.819029 131.829146 C 164.420379 129.913281 157.865747 130.015008 151.273815 131.351027 Q 148.069403 131.88001 144.990455 133.375402 Q 142.742281 132.632792 140.528016 131.591782 Q 140.032943 131.3612 139.632815 130.852563 C 139.415797 130.5779 139.470051 130.174381 139.754888 129.964145 Q 140.463589 129.445335 141.531726 129.099462 Q 142.498135 128.784107 149.934404 126.735997 Q 153.701707 125.698378 156.207591 125.600042 Q 160.130875 124.996459 163.911742 125.054105 C 166.105662 125.091405 167.943536 124.901514 169.805146 125.118532 Q 175.742632 125.823842 180.269499 127.312452 Q 184.223302 128.614562 185.850939 129.05538 Q 189.102824 129.940408 192.463217 129.736954 Z" style="fill:#a3b9ad;"/>
		<path d="M 350.157558 130.269327 Q 350.442395 130.350709 350.771313 130.720318 Q 351.015459 130.998373 350.812004 131.310337 Q 350.299976 132.080073 349.872721 132.032601 L 342.992562 134.44693 C 342.646689 134.569003 342.263516 134.477448 342.012588 134.212957 Q 341.815916 134.009502 341.31067 133.751793 Q 339.07945 132.609056 336.651557 132.273355 Q 325.119067 129.496199 313.813768 132.558192 C 311.81313 133.097347 308.913901 134.236693 306.431754 134.772457 C 305.007571 135.08103 303.203606 135.091203 301.670914 134.901312 Q 295.679173 134.165484 289.494151 132.25301 Q 286.869585 131.442582 282.851355 130.092999 Q 281.813736 129.747126 280.19288 129.38769 Q 278.544897 129.028253 277.568315 128.519616 Q 275.628713 127.509125 273.926476 127.003879 Q 273.770494 126.956406 273.665376 126.827551 Q 273.573821 126.70887 273.451748 126.647833 Q 273.461921 126.607142 273.472094 126.566451 Q 274.913231 126.11546 276.598514 126.800424 Q 276.456096 126.725824 276.391668 126.915715 C 276.364541 126.993706 276.412014 127.078479 276.490005 127.102215 Q 282.5733 128.851926 288.887177 129.502981 C 293.451344 129.970926 298.280002 129.869199 302.66106 128.665426 C 304.838025 128.072016 307.1981 127.180206 309.965084 126.41386 C 312.206476 125.793323 314.312232 125.759414 316.584143 125.325378 Q 318.116835 125.033759 320.558291 125.057496 Q 325.468331 125.11175 325.498849 125.108359 Q 325.783686 125.104968 326.366923 125.07445 Q 328.604924 124.969332 332.484127 125.691596 Q 334.433901 126.054424 337.078812 126.512197 Q 338.926859 126.830942 341.595506 127.621025 C 342.877271 128.000807 344.369272 128.75698 345.606955 129.143544 Q 347.319365 129.682699 350.157558 130.269327 Z" style="fill:#a3b9ad;"/>
		<path d="M 214.368505 126.780079 L 213.327496 126.566451 Q 214.232869 126.67496 214.063323 126.447769 L 215.077206 126.63766 Q 215.355261 126.688524 215.073815 126.715651 L 214.368505 126.780079 Z" style="fill:#628c84;"/>
		<path d="M 273.129612 126.549497 Q 273.244903 126.688524 273.472094 126.566451 Q 273.461921 126.607142 273.451748 126.647833 Q 272.539593 126.698697 273.129612 126.549497 Z" style="fill:#628c84;"/>
		<path d="M 284.645147 131.147573 Q 284.628193 131.340855 284.573938 131.456146 Q 280.050462 132.92102 275.323531 133.504256 Q 268.206008 134.385893 262.360076 133.867084 Q 257.480555 133.436438 252.601033 133.056656 Q 243.089526 132.314046 236.236494 132.988838 Q 228.254288 133.772138 224.887113 133.968811 Q 213.992114 134.59613 203.531152 131.496837 Q 202.985215 131.334073 203.534543 131.195046 C 205.508054 130.693191 207.647719 130.360881 209.875548 129.441944 Q 214.466842 127.543034 215.114506 127.224288 Q 215.979188 126.797033 216.538689 126.966579 C 230.631317 131.245909 246.059965 131.188264 260.634103 129.184235 C 263.987714 128.723071 267.087007 128.017761 270.850919 127.183597 Q 271.447719 127.051352 272.020783 127.254806 Q 276.171259 128.740026 278.243106 129.408035 C 280.064026 129.994663 282.536 130.39479 284.645147 131.147573 Z" style="fill:#a3b9ad;"/>
		<path d="M 210.618157 127.471825 Q 209.007474 128.187307 207.284891 128.556916 Q 206.925455 128.634907 203.849898 129.207971 Q 201.316887 129.679308 198.57364 129.743735 C 198.526167 129.747126 198.488867 129.703044 198.49904 129.655572 Q 198.512603 129.580972 198.675367 129.570799 C 200.50985 129.384299 202.229042 129.211362 204.087262 128.784107 Q 207.288282 128.04828 210.618157 127.471825 Z" style="fill:#fefefe;"/>
		<path d="M 284.573938 131.456146 Q 284.628193 131.340855 284.645147 131.147573 Q 285.69633 131.456146 286.744121 131.795237 Q 291.362543 133.290629 297.171174 134.514748 Q 300.548522 135.226839 303.474879 135.34213 Q 305.434826 135.420121 308.208591 134.602912 C 310.778902 133.843347 313.762904 132.707392 316.668916 132.147892 Q 322.33852 131.056018 326.444914 131.140791 Q 330.52418 131.222173 336.651557 132.273355 Q 339.07945 132.609056 341.31067 133.751793 Q 341.815916 134.009502 342.012588 134.212957 C 342.263516 134.477448 342.646689 134.569003 342.992562 134.44693 L 349.872721 132.032601 Q 346.824292 133.70432 343.57919 134.562221 Q 339.248996 135.708349 334.878111 136.71884 C 333.213173 137.102013 331.795772 137.820887 330.232562 138.475333 L 330.239344 138.322742 Q 330.242735 138.254923 330.174916 138.237969 Q 330.15118 138.231187 330.090144 138.244751 Q 324.888485 139.373924 319.7343 140.682816 C 312.559131 142.507126 306.401236 141.520371 297.371238 140.248779 Q 293.62089 139.719797 287.479949 139.485824 C 281.38309 139.255242 274.519885 140.086016 269.233454 141.489853 Q 266.863207 142.120563 254.974671 145.358883 Q 250.190095 146.660993 246.046401 147.037384 Q 240.183515 147.573148 234.083265 146.101493 Q 227.437079 144.500982 224.080076 143.2633 Q 219.153082 141.449162 217.552571 140.947307 Q 206.450727 137.447886 194.897891 137.997214 C 191.228925 138.170151 185.973012 138.95006 182.585492 139.299324 Q 177.590679 139.811352 172.446666 139.180642 Q 171.27002 139.034833 166.339634 137.98026 Q 162.318013 137.118968 158.10311 136.725622 Q 155.583663 135.962667 154.86479 135.894849 Q 151.796015 135.606621 150.632932 135.223448 Q 147.83543 134.304511 144.990455 133.375402 Q 148.069403 131.88001 151.273815 131.351027 Q 151.728197 131.527355 152.206315 131.401891 Q 152.976052 131.195046 153.023525 131.188264 Q 158.391338 130.472781 160.480139 130.537209 Q 165.359661 130.693191 168.5166 131.493446 Q 171.988893 132.375083 175.403541 133.70432 Q 176.997269 134.324857 178.953825 134.423193 C 181.435973 134.552048 183.935074 134.284166 186.712231 133.81622 Q 191.093289 133.080392 197.396993 131.961392 Q 198.966985 131.683337 202.218869 131.476491 C 202.958088 131.429018 203.368388 131.866446 203.938062 132.022428 Q 210.340103 133.758575 214.463451 134.18583 Q 218.078163 134.562221 223.120448 134.450321 Q 225.02614 134.40963 229.885317 133.978984 Q 238.952614 133.171947 247.558748 133.314365 Q 250.563095 133.365229 253.753943 133.636502 Q 257.778955 133.978984 259.945747 134.148529 Q 266.551243 134.663948 272.882075 134.206175 Q 275.977977 133.982375 278.416043 133.40592 Q 281.250845 132.734519 283.848283 132.049555 Q 284.302665 131.930873 284.651929 131.666382 Q 284.750265 131.591782 284.65532 131.5104 Q 284.624802 131.483273 284.573938 131.456146 Z M 230.12268 144.619664 Q 230.248144 144.646792 230.200671 144.52811 Q 230.058253 144.175455 229.688644 144.219537 Q 228.77988 144.328046 229.685253 144.524719 L 230.12268 144.619664 Z" style="fill:#b9ccc5;"/>
		<path d="M 330.232562 138.475333 Q 325.407295 140.150443 320.612546 141.934062 C 316.533279 143.453191 312.382803 144.297528 307.594836 145.053701 Q 296.642192 146.779675 292.895235 147.61723 Q 282.295245 149.990868 267.35828 152.927398 Q 265.211833 153.347871 262.519449 153.592016 Q 245.771737 155.111145 235.490493 154.690672 Q 233.272837 154.599117 226.948787 154.100653 Q 209.448293 152.71377 192.795526 146.498229 Q 187.23104 144.422991 181.931046 143.548136 C 179.67609 143.171745 177.885688 142.673281 175.657859 142.205335 Q 175.030541 142.07309 173.165539 141.513589 Q 171.032656 140.876098 168.113081 140.109752 Q 163.572651 138.916151 158.10311 136.725622 Q 162.318013 137.118968 166.339634 137.98026 Q 171.27002 139.034833 172.446666 139.180642 Q 177.590679 139.811352 182.585492 139.299324 C 185.973012 138.95006 191.228925 138.170151 194.897891 137.997214 Q 206.450727 137.447886 217.552571 140.947307 Q 219.153082 141.449162 224.080076 143.2633 Q 227.437079 144.500982 234.083265 146.101493 Q 240.183515 147.573148 246.046401 147.037384 Q 250.190095 146.660993 254.974671 145.358883 Q 266.863207 142.120563 269.233454 141.489853 C 274.519885 140.086016 281.38309 139.255242 287.479949 139.485824 Q 293.62089 139.719797 297.371238 140.248779 C 306.401236 141.520371 312.559131 142.507126 319.7343 140.682816 Q 324.888485 139.373924 330.090144 138.244751 Q 330.15118 138.231187 330.174916 138.237969 Q 330.242735 138.254923 330.239344 138.322742 L 330.232562 138.475333 Z" style="fill:#628c84;"/>
		<path d="M 256.107236 86.42145 C 255.15778 79.415826 251.593932 72.817113 247.050111 67.059345 Q 246.938211 66.916926 246.799183 67.028827 Q 246.297329 67.432345 245.812428 68.059664 Q 242.570717 72.277958 240.20386 76.286015 Q 236.711222 82.206547 235.249739 88.900206 Q 231.299327 83.491702 229.447889 81.491064 Q 223.483276 75.048332 215.928325 70.745266 Q 215.626534 70.572329 215.206061 69.751728 Q 214.843233 69.053201 214.710988 68.581864 C 213.500432 64.339834 213.602159 60.060503 214.616042 55.679446 Q 216.328452 48.287258 216.470871 47.280158 Q 217.06428 43.095773 216.599725 38.846961 C 216.582771 38.687588 216.745534 38.572297 216.891344 38.640115 Q 217.159226 38.765579 217.403371 38.982597 Q 220.929919 42.098845 223.249303 45.082847 C 226.429978 49.175677 226.938615 53.672026 227.192933 59.277203 C 227.277706 61.169331 227.749042 63.190315 227.901633 65.150262 Q 227.908415 65.201125 227.959279 65.204516 Q 228.013534 65.207907 228.016924 65.150262 C 228.088134 63.512451 227.62697 61.576241 227.511679 60.406376 C 227.230233 57.564792 226.813151 54.563836 227.060687 51.946052 Q 227.264142 49.786041 227.562542 47.500567 C 227.576106 47.388667 227.681224 47.307285 227.793124 47.317458 Q 227.969452 47.334412 228.105088 47.507349 Q 231.373927 51.64087 235.446412 55.194545 Q 235.615957 55.340354 235.612566 55.119945 L 235.605784 54.774072 Q 235.602394 54.604527 235.680385 54.455327 Q 237.196122 51.437415 239.349351 48.29404 Q 240.817615 46.147593 246.310892 38.47396 Q 247.324775 37.053169 248.209803 35.642549 C 248.325094 35.456049 248.596367 35.452658 248.715048 35.635768 C 249.474613 36.795459 250.193486 38.104351 250.949659 39.152143 C 253.787852 43.075427 256.442936 46.859685 258.69111 50.894869 Q 259.565965 52.461471 260.257711 54.594354 Q 260.335702 54.835109 260.267884 55.109772 Q 260.213629 55.333573 260.396739 55.191154 Q 263.736787 52.60728 265.991743 50.694806 Q 267.636335 49.29775 268.633263 47.975295 C 268.677345 47.917649 268.755336 47.904085 268.812981 47.944776 Q 268.901145 48.005813 268.904536 48.148231 C 269.243627 58.378611 268.022899 69.093892 262.936531 77.805143 Q 260.552721 81.88441 256.107236 86.42145 Z" style="fill:#e8bb9a;"/>
		<path d="M 264.957515 78.062853 C 265.320342 77.527089 265.740815 77.04897 266.120597 76.19446 Q 271.281565 64.658579 270.108309 52.149507 C 269.708182 47.88374 276.80536 43.017782 279.982644 41.125653 Q 280.545535 40.793344 280.355644 41.417272 C 278.843297 46.412084 279.914825 52.220716 280.976181 57.239265 Q 282.271509 63.353078 280.996526 69.202401 C 280.938881 69.456719 280.745599 69.660174 280.49128 69.727992 C 275.001395 71.189475 269.674273 74.400668 265.133842 78.167971 Q 265.096542 78.20188 265.049069 78.215444 Q 264.899869 78.262916 264.926997 78.140844 Q 264.933778 78.096762 264.957515 78.062853 Z" style="fill:#e8bb9a;"/>
		<path d="M 256.107236 86.42145 Q 250.814023 92.711591 246.846656 99.896932 Q 246.097265 101.249906 245.636101 102.663916 C 245.598801 102.769034 245.463164 102.796161 245.388564 102.711389 Q 243.516781 100.561551 241.702643 98.320158 Q 238.094714 93.8645 235.249739 88.900206 Q 236.711222 82.206547 240.20386 76.286015 Q 242.570717 72.277958 245.812428 68.059664 Q 246.297329 67.432345 246.799183 67.028827 Q 246.938211 66.916926 247.050111 67.059345 C 251.593932 72.817113 255.15778 79.415826 256.107236 86.42145 Z" style="fill:#d3936a;"/>
		<path d="M 219.153082 91.392526 C 219.275154 91.551899 219.512518 91.758744 219.529473 91.863863 C 219.549818 91.996108 219.441309 92.111399 219.309064 92.094445 C 211.235303 90.968662 203.866852 85.621194 199.13314 79.164899 Q 198.041266 77.67968 195.867692 73.895422 Q 193.897573 70.470602 191.598535 67.469645 Q 191.249271 67.015263 191.815553 67.106817 Q 194.287527 67.513727 195.576074 67.517118 C 201.086305 67.5239 205.335117 67.381481 209.84842 69.073546 Q 210.312975 69.246483 210.499475 69.951792 Q 212.788341 78.57488 214.636388 83.423884 Q 216.186034 87.492978 219.153082 91.392526 Z" style="fill:#e8bb9a;"/>
		<path d="M 271.318865 91.538335 Q 275.547331 85.126121 278.121033 78.08998 Q 279.44688 74.465096 280.45398 70.735093 Q 280.501453 70.551984 280.321735 70.507902 Q 280.240353 70.484165 280.138626 70.518075 Q 280.277653 70.416347 280.467544 70.348529 Q 286.493194 68.093573 292.752817 67.856209 C 295.682564 67.744309 298.466503 68.161391 301.318259 68.744628 Q 302.084605 68.90061 301.392859 69.260046 C 296.201374 71.942257 292.837589 77.174434 289.073678 81.402901 Q 285.597993 85.30584 279.467225 88.91716 Q 275.415086 91.304362 271.318865 91.538335 Z" style="fill:#e8bb9a;"/>
		<path d="M 212.110158 69.480456 Q 215.107724 71.369193 216.80318 72.322039 Q 218.21719 73.118904 221.360565 75.719733 C 226.233305 79.754918 230.526199 84.736167 233.978147 89.805579 Q 238.979741 97.150294 245.032519 103.12508 C 245.456382 103.545553 245.74461 104.05419 245.998928 104.545872 Q 246.134565 104.810363 245.839555 104.810363 Q 238.515187 104.806972 232.211482 101.287206 C 222.86613 96.065202 216.620071 86.865659 213.802223 76.648843 Q 213.78866 76.604761 212.801904 73.318967 Q 212.194931 71.308157 211.988086 69.558447 Q 211.96774 69.388901 212.110158 69.480456 Z" style="fill:#d3936a;"/>
		<path d="M 280.138626 70.518075 Q 280.240353 70.484165 280.321735 70.507902 Q 280.501453 70.551984 280.45398 70.735093 Q 279.44688 74.465096 278.121033 78.08998 Q 275.547331 85.126121 271.318865 91.538335 Q 269.8506 93.460982 268.409463 94.98011 Q 259.80672 104.047408 247.263738 104.891745 C 247.114538 104.901917 246.97212 104.827317 246.894129 104.695072 L 246.178647 103.453998 Q 246.097265 103.308189 246.165083 103.155598 Q 246.517738 102.358734 247.830021 100.432696 Q 251.65836 94.810565 255.907172 89.683507 Q 262.794113 81.368991 270.915346 75.706169 Q 274.689431 73.06804 280.138626 70.518075 Z" style="fill:#d3936a;"/>
		<path d="M 247.78933 111.34804 C 249.393231 110.768194 251.322659 109.22533 254.401607 107.153483 Q 257.75861 104.891745 259.820284 103.68458 Q 272.661666 96.156757 287.134076 92.185999 Q 292.210271 90.795725 297.537393 91.29758 Q 299.744876 91.504426 301.345386 92.057145 C 301.521714 92.118181 301.542059 92.358936 301.379296 92.45049 C 299.663494 93.406727 297.411929 94.895338 295.384164 96.038075 Q 287.625758 100.422523 280.175926 105.319 C 276.754496 107.570565 272.15642 110.00863 267.042925 111.761732 Q 259.50832 114.345606 252.526433 114.203188 C 250.834368 114.165888 249.349149 112.985851 247.962266 111.778686 Q 247.772375 111.612531 247.741857 111.432813 C 247.735075 111.398904 247.75542 111.361604 247.78933 111.34804 Z" style="fill:#a3b9ad;"/>
		<path d="M 190.482925 92.440318 Q 190.147224 92.426754 189.872561 91.948635 Q 192.486953 91.117862 195.386183 91.178898 Q 207.064482 91.429826 217.647517 96.485675 C 226.121405 100.531033 234.544429 105.593663 241.411025 112.161859 C 241.485625 112.233068 241.482234 112.355141 241.400852 112.422959 C 240.139433 113.46736 238.718641 114.725388 236.751913 114.796597 C 227.576106 115.122125 218.824163 112.280541 211.170876 106.573637 C 206.952582 103.430262 202.537615 99.781641 199.495967 97.882731 Q 195.765965 95.549783 192.032571 93.227009 Q 191.123807 92.660727 190.482925 92.440318 Z" style="fill:#a3b9ad;"/>
		<path d="M 189.872561 91.948635 Q 190.147224 92.426754 190.482925 92.440318 Q 190.76437 92.830272 191.157716 93.0812 Q 198.126039 97.438521 200.981187 99.551059 Q 204.477217 102.134934 208.39711 105.539409 Q 211.160703 107.943565 215.419688 110.551176 Q 224.286922 115.986807 234.686847 116.190262 Q 235.059848 116.200435 234.727538 116.36998 Q 230.054862 118.794482 225.310977 120.130501 Q 221.984493 121.066393 216.650589 121.673366 Q 216.559034 121.683539 216.633634 121.707275 Q 216.647198 121.710666 216.657371 121.72423 Q 216.674325 121.747966 216.694671 121.744575 Q 222.64233 121.527557 226.826714 120.354301 Q 232.787937 118.685973 238.247305 115.668062 Q 240.068224 114.660961 242.014607 113.084187 Q 245.364828 110.368067 245.686964 110.171394 Q 245.883637 110.052712 245.971801 110.26634 C 246.280374 111.029295 247.192529 112.141514 247.724902 112.636587 Q 252.66546 117.200754 259.237047 119.225128 Q 260.569675 119.635428 259.338774 118.980982 L 253.845498 116.061407 Q 253.387725 115.817262 253.903143 115.779962 C 255.089962 115.695189 256.395463 115.73588 257.466991 115.627371 C 266.249452 114.742343 273.743367 110.747849 280.908363 105.858155 C 285.17752 102.941971 288.659986 100.561551 293.193635 97.821694 Q 298.198621 94.797001 300.599386 93.206664 C 300.887613 93.013382 301.457286 92.840445 301.718387 92.470836 Q 301.823505 92.328418 301.999832 92.328418 Q 302.508469 92.331808 302.576287 92.7455 Q 303.098488 95.980429 301.660741 99.161104 Q 297.611993 108.113111 290.874252 114.311697 C 287.106949 117.777209 282.607209 120.628965 277.517451 121.61572 C 270.684764 122.941567 263.323095 122.460057 256.470063 120.835811 Q 251.336223 119.621864 246.816138 117.082072 Q 246.666938 116.997299 246.497392 117.017644 Q 246.053183 117.061726 245.67001 117.258399 Q 242.95389 118.648673 241.173661 119.520137 C 236.060167 122.026021 230.376999 123.463767 224.714177 123.938495 C 219.943164 124.338622 215.473943 124.260631 211.092885 122.98904 C 201.727187 120.269529 194.253618 111.27344 190.462579 102.507934 C 189.150296 99.47985 188.27205 96.353429 189.119778 93.098154 Q 189.285933 92.457272 189.872561 91.948635 Z" style="fill:#628c84;"/>
		<path d="M 230.12268 144.619664 L 229.685253 144.524719 Q 228.77988 144.328046 229.688644 144.219537 Q 230.058253 144.175455 230.200671 144.52811 Q 230.248144 144.646792 230.12268 144.619664 Z" style="fill:#a3b9ad;"/>
	</g>
	<g id="surface4">
	</g>
</svg>
