<?xml version="1.0" encoding="utf-8"?>
<svg xmlns="http://www.w3.org/2000/svg" width="490pt" height="280pt" viewBox="0 0 490 280" version="1.1" xmlns:xlink="http://www.w3.org/1999/xlink">
	<g id="surface2">
		<path vector-effect="non-scaling-stroke" d="M 265.240126 7.609963 Q 267.181352 9.111323 268.099254 10.674483 Q 269.160749 12.481205 267.941121 14.118888 Q 266.825097 15.620248 264.951123 16.663567 Q 262.477332 18.041328 259.514599 18.766562 C 251.257116 20.793217 242.432533 20.825934 234.125975 19.144628" style="fill:none;stroke-width:0.50;stroke:#c8d7bf;"/>
		<path vector-effect="non-scaling-stroke" d="M 234.125975 19.144628 Q 233.978747 16.756266 235.296527 14.682352" style="fill:none;stroke-width:0.50;stroke:#81b2a3;"/>
		<path vector-effect="non-scaling-stroke" d="M 235.296527 14.682352 L 236.543419 12.83746" style="fill:none;stroke-width:0.50;stroke:#89a79d;"/>
		<path vector-effect="non-scaling-stroke" d="M 236.543419 12.83746 Q 237.779406 11.288841 238.975405 10.140101 Q 241.750923 7.479094 245.129893 4.749017 Q 245.244403 4.656318 245.44616 4.750835" style="fill:none;stroke-width:0.50;stroke:#81b2a3;"/>
		<path vector-effect="non-scaling-stroke" d="M 245.44616 4.750835 C 250.986289 6.130414 256.464619 8.509689 260.946889 11.966817 Q 263.148036 13.662663 265.140156 15.909251 Q 265.231038 16.011038 265.303743 16.031032 C 265.414618 16.061932 265.509135 15.945604 265.458241 15.843817 C 265.047457 15.018614 264.61668 14.071629 264.115014 13.382749 C 262.615471 11.321559 260.679698 10.071031 258.338593 8.758704 Q 254.112609 6.392152 249.737579 4.903515 Q 248.487051 4.47819 245.909655 4.078312" style="fill:none;stroke-width:0.50;stroke:#89a79d;"/>
		<path vector-effect="non-scaling-stroke" d="M 245.909655 4.078312 L 243.733955 3.996519 Q 243.641256 3.992884 243.583092 3.920179 L 243.503116 3.822027" style="fill:none;stroke-width:0.50;stroke:#81b2a3;"/>
		<path vector-effect="non-scaling-stroke" d="M 245.909655 4.078312 Q 245.569759 4.336415 245.44616 4.750835" style="fill:none;stroke-width:0.50;stroke:#6a9590;"/>
		<path vector-effect="non-scaling-stroke" d="M 236.543419 12.83746 Q 236.025396 12.853819 234.920278 13.141004 Q 234.640363 13.213709 234.584017 13.291867 C 234.480412 13.43546 234.507676 13.666299 234.45133 13.837156 Q 234.422248 13.924402 234.338637 13.964389 Q 231.257758 15.423945 228.393177 17.436058" style="fill:none;stroke-width:0.50;stroke:#6a9590;"/>
		<path vector-effect="non-scaling-stroke" d="M 228.393177 17.436058 Q 226.55919 16.718095 225.01966 15.309434 C 223.612816 14.018918 222.918482 11.954093 224.13084 10.243706 Q 225.210511 8.722351 227.024503 7.52817" style="fill:none;stroke-width:0.50;stroke:#a9c5b2;"/>
		<path vector-effect="non-scaling-stroke" d="M 235.296527 14.682352 C 233.53161 15.294893 231.866663 16.330941 230.305321 17.328818 Q 229.918166 17.576016 229.57827 17.906824" style="fill:none;stroke-width:0.50;stroke:#6a9590;"/>
		<path vector-effect="non-scaling-stroke" d="M 228.393177 17.436058 L 229.57827 17.906824" style="fill:none;stroke-width:0.50;stroke:#b0b9ac;"/>
		<path vector-effect="non-scaling-stroke" d="M 229.57827 17.906824 L 234.125975 19.144628" style="fill:none;stroke-width:0.50;stroke:#a9c5b2;"/>
		<path vector-effect="non-scaling-stroke" d="M 269.124396 9.638435 Q 270.314942 11.288841 270.151356 13.01377 C 269.8569 16.134637 266.445213 18.004976 263.991416 19.179163" style="fill:none;stroke-width:0.50;stroke:#c8d7bf;"/>
		<path vector-effect="non-scaling-stroke" d="M 263.991416 19.179163 L 262.766335 19.640841" style="fill:none;stroke-width:0.50;stroke:#b0b9ac;"/>
		<path vector-effect="non-scaling-stroke" d="M 262.766335 19.640841 Q 260.328896 20.389703 259.650921 20.551472 Q 248.859665 23.114327 237.857564 21.643867 Q 236.470714 21.458469 234.48223 21.087672" style="fill:none;stroke-width:0.50;stroke:#c8d7bf;"/>
		<path vector-effect="non-scaling-stroke" d="M 234.48223 21.087672 Q 231.27957 20.478767 228.129621 19.279133" style="fill:none;stroke-width:0.50;stroke:#a9c5b2;"/>
		<path vector-effect="non-scaling-stroke" d="M 228.129621 19.279133 L 227.053585 18.815638" style="fill:none;stroke-width:0.50;stroke:#b0b9ac;"/>
		<path vector-effect="non-scaling-stroke" d="M 227.053585 18.815638 Q 225.159617 17.995888 223.569193 16.350935 Q 222.449534 15.193106 222.060562 13.948031 Q 221.231724 11.301565 223.298366 9.025895" style="fill:none;stroke-width:0.50;stroke:#a9c5b2;"/>
		<path vector-effect="non-scaling-stroke" d="M 290.372464 34.063717 Q 289.476374 34.240027 288.593007 34.449054 C 287.108005 34.798038 284.561509 35.283345 284.350664 37.215483 Q 284.310676 37.582644 284.645119 38.427841 Q 285.143149 39.691092 285.18132 41.203358 Q 285.284924 45.318468 284.15436 49.275443 Q 284.052573 49.633516 283.865357 49.808008" style="fill:none;stroke-width:0.50;stroke:#81b2a3;"/>
		<path vector-effect="non-scaling-stroke" d="M 283.865357 49.808008 Q 283.778111 49.726215 283.772658 49.695315 C 283.536366 48.424793 283.240093 47.566873 282.72934 46.001896 C 279.781148 36.937386 274.940805 28.612651 267.833881 22.232778 Q 266.092593 20.6678 265.58184 20.324269 Q 264.809348 19.806245 263.991416 19.179163" style="fill:none;stroke-width:0.50;stroke:#89a79d;"/>
		<path vector-effect="non-scaling-stroke" d="M 282.903832 50.18971 Q 277.812657 51.454779 272.341597 52.083678 Q 269.540633 52.405398 267.748452 52.556261" style="fill:none;stroke-width:0.50;stroke:#c8d7bf;"/>
		<path vector-effect="non-scaling-stroke" d="M 267.748452 52.556261 Q 267.595771 50.236968 267.130459 47.959481 Q 267.1141 47.884958 267.032307 47.824976" style="fill:none;stroke-width:0.50;stroke:#5b7772;"/>
		<path vector-effect="non-scaling-stroke" d="M 267.032307 47.824976 L 266.347061 44.845884" style="fill:none;stroke-width:0.50;stroke:#c8d7bf;"/>
		<path vector-effect="non-scaling-stroke" d="M 266.347061 44.845884 Q 265.950818 42.462974 265.029281 40.156405 Q 264.994746 40.069159 264.903865 40.049165 L 264.803895 40.027353" style="fill:none;stroke-width:0.50;stroke:#5b7772;"/>
		<path vector-effect="non-scaling-stroke" d="M 264.803895 40.027353 Q 264.965664 40.043712 264.911135 39.921931 Q 264.511257 39.024023 263.653337 37.479039 Q 263.600626 37.384523 263.44431 37.284553" style="fill:none;stroke-width:0.50;stroke:#c8d7bf;"/>
		<path vector-effect="non-scaling-stroke" d="M 263.44431 37.284553 Q 263.455215 37.166407 263.397051 37.048261 Q 262.393721 34.999795 260.899631 33.260325" style="fill:none;stroke-width:0.50;stroke:#5b7772;"/>
		<path vector-effect="non-scaling-stroke" d="M 260.899631 33.260325 L 260.910537 33.209432 Q 260.921442 33.151268 260.886907 33.105827 Q 259.901753 31.749877 258.64032 30.791987" style="fill:none;stroke-width:0.50;stroke:#c8d7bf;"/>
		<path vector-effect="non-scaling-stroke" d="M 258.64032 30.791987 Q 256.72454 28.921648 254.552475 27.807442 Q 250.686381 25.82441 246.067789 25.486332" style="fill:none;stroke-width:0.50;stroke:#5b7772;"/>
		<path vector-effect="non-scaling-stroke" d="M 246.067789 25.486332 Q 245.469789 25.259128 244.48827 25.362733 Q 244.271972 25.386362 244.175638 25.526319" style="fill:none;stroke-width:0.50;stroke:#c8d7bf;"/>
		<path vector-effect="non-scaling-stroke" d="M 244.175638 25.526319 Q 244.146556 25.519049 244.126562 25.484514" style="fill:none;stroke-width:0.50;stroke:#5b7772;"/>
		<path vector-effect="non-scaling-stroke" d="M 283.865357 49.808008 Q 283.814464 49.731668 283.852634 49.924336" style="fill:none;stroke-width:0.50;stroke:#6a9590;"/>
		<path vector-effect="non-scaling-stroke" d="M 283.852634 49.924336 L 282.903832 50.18971" style="fill:none;stroke-width:0.50;stroke:#b0b9ac;"/>
		<path vector-effect="non-scaling-stroke" d="M 282.903832 50.18971 Q 282.763875 49.757115 282.398532 48.359359 Q 281.755091 45.896473 280.173755 41.957674 Q 277.207387 34.581741 272.501549 28.623557 Q 270.304037 25.840769 266.97596 22.825325 C 265.86539 21.820176 264.867512 21.118572 263.731495 20.229752 Q 263.533373 20.075254 263.246188 19.91712 Q 263.017167 19.791704 262.766335 19.640841" style="fill:none;stroke-width:0.50;stroke:#89a79d;"/>
		<path vector-effect="non-scaling-stroke" d="M 234.48223 21.087672 C 235.003889 22.389094 236.058113 23.168856 237.250477 24.11584 Q 238.015698 24.722928 238.491916 24.799268 Q 239.060834 24.891967 239.882402 24.533895 Q 240.276827 24.363038 241.476461 24.486636 Q 242.06719 24.548436 243.919353 25.037378 Q 244.09021 25.082818 244.148374 25.1737 Q 244.241073 25.317292 244.126562 25.484514" style="fill:none;stroke-width:0.50;stroke:#81b2a3;"/>
		<path vector-effect="non-scaling-stroke" d="M 244.126562 25.484514 Q 242.021749 25.582666 240.229568 25.942556 Q 235.032971 26.982239 231.010561 30.613859" style="fill:none;stroke-width:0.50;stroke:#3c6564;"/>
		<path vector-effect="non-scaling-stroke" d="M 231.010561 30.613859 Q 230.379844 31.135519 229.787297 31.806223 Q 229.245644 32.418764 228.860307 33.107645" style="fill:none;stroke-width:0.50;stroke:#a9c5b2;"/>
		<path vector-effect="non-scaling-stroke" d="M 228.860307 33.107645 Q 227.358947 35.054324 226.419233 37.059167 Q 226.373792 37.153684 226.453768 37.197307" style="fill:none;stroke-width:0.50;stroke:#3c6564;"/>
		<path vector-effect="non-scaling-stroke" d="M 226.453768 37.197307 Q 226.393786 37.23366 226.341075 37.268194 Q 226.282911 37.302729 226.250194 37.360893 Q 225.570401 38.549622 225.076006 39.892849" style="fill:none;stroke-width:0.50;stroke:#a9c5b2;"/>
		<path vector-effect="non-scaling-stroke" d="M 225.076006 39.892849 Q 224.270797 42.166701 223.756408 44.585964 Q 223.743685 44.64231 223.760044 44.68048 Q 223.780038 44.725921 223.820025 44.764091" style="fill:none;stroke-width:0.50;stroke:#3c6564;"/>
		<path vector-effect="non-scaling-stroke" d="M 223.820025 44.764091 Q 223.720056 44.769544 223.698244 44.847702 Q 223.336536 46.118224 223.085704 47.743183" style="fill:none;stroke-width:0.50;stroke:#a9c5b2;"/>
		<path vector-effect="non-scaling-stroke" d="M 223.085704 47.743183 L 222.49134 52.532632" style="fill:none;stroke-width:0.50;stroke:#3c6564;"/>
		<path vector-effect="non-scaling-stroke" d="M 222.49134 52.532632 Q 222.238689 52.458109 221.428027 52.385404 Q 215.079054 51.820122 208.213874 50.316944" style="fill:none;stroke-width:0.50;stroke:#a9c5b2;"/>
		<path vector-effect="non-scaling-stroke" d="M 227.053585 18.815638 Q 224.078129 21.073131 222.931205 22.221872 Q 220.911821 24.244892 219.37229 25.935286 Q 215.867904 29.783204 213.052399 34.801674 C 210.229623 39.832867 208.192062 45.062182 206.98334 50.022488" style="fill:none;stroke-width:0.50;stroke:#6a9590;"/>
		<path vector-effect="non-scaling-stroke" d="M 206.98334 50.022488 Q 202.948206 49.133668 200.092713 48.186684 Q 197.631645 47.370569 196.92277 47.157907" style="fill:none;stroke-width:0.50;stroke:#a9c5b2;"/>
		<path vector-effect="non-scaling-stroke" d="M 228.129621 19.279133 Q 226.506479 20.297004 225.036018 21.58025 Q 224.139928 22.360012 222.384099 24.066764 Q 216.733095 29.557818 212.961517 36.835599 Q 209.737046 43.057339 208.115722 49.435394 Q 208.033929 49.753479 208.213874 50.316944" style="fill:none;stroke-width:0.50;stroke:#6a9590;"/>
		<path vector-effect="non-scaling-stroke" d="M 208.213874 50.316944 L 206.98334 50.022488" style="fill:none;stroke-width:0.50;stroke:#b0b9ac;"/>
		<path vector-effect="non-scaling-stroke" d="M 293.34065 47.148819 C 290.190702 48.232125 287.086193 49.211826 283.852634 49.924336" style="fill:none;stroke-width:0.50;stroke:#a9c5b2;"/>
		<path vector-effect="non-scaling-stroke" d="M 267.813887 53.781342 L 267.746634 53.899488" style="fill:none;stroke-width:0.50;stroke:#5b7772;"/>
		<path vector-effect="non-scaling-stroke" d="M 293.526048 48.455693 Q 289.370951 49.955236 285.237666 51.031272" style="fill:none;stroke-width:0.50;stroke:#a9c5b2;"/>
		<path vector-effect="non-scaling-stroke" d="M 285.237666 51.031272 L 283.928974 51.363897" style="fill:none;stroke-width:0.50;stroke:#c8d7bf;"/>
		<path vector-effect="non-scaling-stroke" d="M 283.928974 51.363897 L 282.992896 51.572925" style="fill:none;stroke-width:0.50;stroke:#b0b9ac;"/>
		<path vector-effect="non-scaling-stroke" d="M 282.992896 51.572925 Q 279.430345 52.369046 278.437921 52.561714 Q 274.659073 53.294218 269.049874 53.824965 Q 268.517309 53.875859 267.981108 53.883129 Q 267.906586 53.883129 267.85751 53.828601 L 267.813887 53.781342" style="fill:none;stroke-width:0.50;stroke:#c8d7bf;"/>
		<path vector-effect="non-scaling-stroke" d="M 267.813887 53.781342 L 267.748452 52.556261" style="fill:none;stroke-width:0.50;stroke:#838981;"/>
		<path vector-effect="non-scaling-stroke" d="M 246.067789 25.486332 L 246.040524 33.251237 Q 246.038707 33.353024 246.140494 33.349389 Q 250.844514 33.183985 255.394036 31.822582 Q 256.93175 31.362722 258.64032 30.791987" style="fill:none;stroke-width:0.50;stroke:#838981;"/>
		<path vector-effect="non-scaling-stroke" d="M 260.899631 33.260325 C 260.78512 33.260325 260.659704 33.238514 260.552464 33.271231 Q 257.969615 34.060082 256.286492 34.523577 Q 251.440696 35.861351 246.12777 35.975861 Q 246.040524 35.977679 246.040524 36.064925 L 246.040524 40.745316 C 246.040524 40.812569 246.095053 40.86528 246.162305 40.861644 C 252.064143 40.556283 257.831475 39.103998 263.44431 37.284553" style="fill:none;stroke-width:0.50;stroke:#838981;"/>
		<path vector-effect="non-scaling-stroke" d="M 264.803895 40.027353 Q 258.304058 41.919504 252.405857 42.897388 Q 249.913889 43.309989 246.140494 43.497205 Q 246.042342 43.502658 246.042342 43.600809 L 246.042342 48.155784 C 246.042342 48.219401 246.096871 48.272113 246.160488 48.268477 C 252.987497 47.946757 259.676367 46.401774 266.347061 44.845884" style="fill:none;stroke-width:0.50;stroke:#838981;"/>
		<path vector-effect="non-scaling-stroke" d="M 267.032307 47.824976 Q 260.268914 49.402677 253.394646 50.37329 Q 249.621251 50.905855 246.124135 51.005825 Q 246.038707 51.007642 246.038707 51.091253 L 246.038707 54.539293 Q 246.038707 54.664709 246.164123 54.659256 L 267.746634 53.899488" style="fill:none;stroke-width:0.50;stroke:#838981;"/>
		<path vector-effect="non-scaling-stroke" d="M 267.746634 53.899488 Q 267.86478 53.984917 267.873868 54.139415 Q 267.955662 55.557165 267.92658 56.94765" style="fill:none;stroke-width:0.50;stroke:#c8d7bf;"/>
		<path vector-effect="non-scaling-stroke" d="M 267.92658 56.94765 L 246.105959 57.30027 C 246.060518 57.302087 246.024166 57.33844 246.024166 57.382063 L 246.024166 61.00096 Q 246.024166 61.113653 246.138676 61.117288 Q 250.199256 61.200899 254.485223 61.684388 Q 259.96537 62.302381 266.934155 63.285718 Q 267.046848 63.302076 267.155905 63.334794" style="fill:none;stroke-width:0.50;stroke:#838981;"/>
		<path vector-effect="non-scaling-stroke" d="M 267.155905 63.334794 Q 267.250422 63.372964 267.228611 63.547456 Q 267.019583 65.177868 266.766933 66.350238" style="fill:none;stroke-width:0.50;stroke:#c8d7bf;"/>
		<path vector-effect="non-scaling-stroke" d="M 266.766933 66.350238 Q 266.686958 66.301162 266.650605 66.295709 Q 259.251043 65.148786 254.948718 64.528975 Q 250.361025 63.867359 246.178664 63.696501 C 246.105959 63.692866 246.04416 63.752848 246.04416 63.825553 L 246.04416 67.986103 C 246.04416 68.020638 246.071424 68.04972 246.105959 68.051538 Q 250.588229 68.313276 255.077769 69.311154 Q 258.551256 70.083645 265.432794 71.99579" style="fill:none;stroke-width:0.50;stroke:#838981;"/>
		<path vector-effect="non-scaling-stroke" d="M 265.432794 71.99579 L 265.492776 72.108483 C 265.509135 72.139382 265.514588 72.175735 265.505499 72.21027 L 264.883871 74.607721 C 264.867512 74.665885 264.820254 74.711325 264.758455 74.722231 L 264.665755 74.736772" style="fill:none;stroke-width:0.50;stroke:#c8d7bf;"/>
		<path vector-effect="non-scaling-stroke" d="M 264.665755 74.736772 Q 260.986877 73.669825 257.306181 72.635595 C 253.609126 71.597729 249.921159 70.943383 246.080512 70.687098 Q 246.018713 70.683462 246.018713 70.745262 L 246.018713 74.936711 Q 246.018713 75.040316 246.124135 75.040316 Q 249.274084 75.063945 252.854811 75.992753 Q 257.891457 77.29781 262.302839 79.807954 Q 262.368274 79.844306 262.426438 79.824312" style="fill:none;stroke-width:0.50;stroke:#838981;"/>
		<path vector-effect="non-scaling-stroke" d="M 262.426438 79.824312 Q 262.431891 80.026069 262.391903 80.087868 Q 261.675758 81.176627 260.868731 82.030912" style="fill:none;stroke-width:0.50;stroke:#c8d7bf;"/>
		<path vector-effect="non-scaling-stroke" d="M 260.868731 82.030912 Q 260.158039 81.532882 258.865705 80.940336 C 254.819666 79.084538 250.490077 77.846733 246.167758 77.675876 Q 246.022348 77.670423 246.022348 77.815834 L 246.022348 88.083613 Q 246.022348 88.167223 246.105959 88.167223 C 248.54158 88.138141 251.008101 87.821874 253.300129 87.091188 C 254.51794 86.702216 255.419483 86.229632 256.47189 85.766137" style="fill:none;stroke-width:0.50;stroke:#838981;"/>
		<path vector-effect="non-scaling-stroke" d="M 256.47189 85.766137 L 258.18773 85.875195 Q 258.400393 85.889736 258.384034 86.100581 Q 258.316782 86.954866 257.709694 87.316574" style="fill:none;stroke-width:0.50;stroke:#c8d7bf;"/>
		<path vector-effect="non-scaling-stroke" d="M 257.709694 87.316574 Q 256.991731 87.314756 256.299215 87.423814 Q 255.726662 87.512878 254.974164 87.872768 C 250.797256 89.870341 245.707898 90.257495 241.065677 89.550438" style="fill:none;stroke-width:0.50;stroke:#838981;"/>
		<path vector-effect="non-scaling-stroke" d="M 241.065677 89.550438 L 237.981163 88.899727" style="fill:none;stroke-width:0.50;stroke:#b0b9ac;"/>
		<path vector-effect="non-scaling-stroke" d="M 237.981163 88.899727 Q 236.294404 88.381704 234.709433 87.554683 C 234.465871 87.427449 234.135063 87.367467 233.902406 87.363832 Q 233.09538 87.352926 232.335611 87.29658" style="fill:none;stroke-width:0.50;stroke:#838981;"/>
		<path vector-effect="non-scaling-stroke" d="M 232.335611 87.29658 Q 231.89211 86.72948 232.026615 85.998794 Q 232.044791 85.906095 232.13749 85.900642 L 233.967841 85.798855" style="fill:none;stroke-width:0.50;stroke:#a9c5b2;"/>
		<path vector-effect="non-scaling-stroke" d="M 233.967841 85.798855 Q 236.479802 87.136629 239.033569 87.634659 Q 241.532808 88.121783 244.081122 88.201758 C 244.137468 88.203576 244.182909 88.159953 244.182909 88.103607 L 244.182909 77.73404 Q 244.182909 77.632253 244.081122 77.635888 Q 238.651868 77.814016 233.591592 79.782507 Q 231.464968 80.609527 229.247462 81.740092" style="fill:none;stroke-width:0.50;stroke:#838981;"/>
		<path vector-effect="non-scaling-stroke" d="M 229.247462 81.740092 Q 228.469517 80.82219 227.737013 79.815224 Q 227.700661 79.764331 227.727925 79.626191" style="fill:none;stroke-width:0.50;stroke:#a9c5b2;"/>
		<path vector-effect="non-scaling-stroke" d="M 227.727925 79.626191 Q 228.703991 79.010015 230.458002 78.1939 Q 236.97238 75.163915 244.141103 74.987605 C 244.168368 74.987605 244.191997 74.963976 244.191997 74.936711 L 244.191997 70.787067 C 244.191997 70.727086 244.144739 70.679827 244.084757 70.679827 Q 242.903299 70.688915 241.512814 70.841596 Q 237.203218 71.315997 232.92634 72.526537 Q 229.307443 73.551679 225.530413 74.645891" style="fill:none;stroke-width:0.50;stroke:#838981;"/>
		<path vector-effect="non-scaling-stroke" d="M 225.530413 74.645891 L 224.623417 72.057589 Q 224.596152 71.979431 224.627052 71.903091 L 224.66704 71.806756" style="fill:none;stroke-width:0.50;stroke:#a9c5b2;"/>
		<path vector-effect="non-scaling-stroke" d="M 224.66704 71.806756 Q 229.116593 70.545323 233.613404 69.476558 Q 238.724573 68.260565 244.092027 68.047902 Q 244.186544 68.044267 244.186544 67.94975 L 244.186544 63.792836 Q 244.186544 63.696501 244.092027 63.696501 C 240.494942 63.683778 237.046902 64.098197 233.384382 64.565328 Q 229.979966 64.999741 223.391065 66.141211" style="fill:none;stroke-width:0.50;stroke:#838981;"/>
		<path vector-effect="non-scaling-stroke" d="M 223.391065 66.141211 L 222.902123 63.073055" style="fill:none;stroke-width:0.50;stroke:#a9c5b2;"/>
		<path vector-effect="non-scaling-stroke" d="M 222.902123 63.073055 Q 224.968766 62.75497 228.447706 62.313287 C 234.065993 61.598959 238.939053 61.119105 244.130198 61.106382 C 244.168368 61.106382 244.199267 61.075482 244.199267 61.035495 L 244.199267 57.40751 Q 244.199267 57.260282 244.05204 57.256646 L 222.355017 56.751346" style="fill:none;stroke-width:0.50;stroke:#838981;"/>
		<path vector-effect="non-scaling-stroke" d="M 222.355017 56.751346 L 222.3532 54.053986 C 222.3532 53.935841 222.264136 53.837689 222.14599 53.826783 Q 214.940914 53.179708 207.584975 51.567472" style="fill:none;stroke-width:0.50;stroke:#a9c5b2;"/>
		<path vector-effect="non-scaling-stroke" d="M 207.584975 51.567472 L 206.619814 51.313004" style="fill:none;stroke-width:0.50;stroke:#b0b9ac;"/>
		<path vector-effect="non-scaling-stroke" d="M 206.619814 51.313004 Q 202.123003 50.313309 197.926101 48.851936 Q 197.339007 48.646544 196.761002 48.402982" style="fill:none;stroke-width:0.50;stroke:#a9c5b2;"/>
		<path vector-effect="non-scaling-stroke" d="M 222.49134 52.532632 L 222.471346 53.630479 Q 222.471346 53.699549 222.538598 53.701367 L 244.112021 54.604728 Q 244.20472 54.608363 244.20472 54.515664 L 244.20472 51.053083 C 244.20472 51.00946 244.170185 50.973107 244.126562 50.97129 Q 238.960864 50.682287 234.204133 49.858902 Q 228.676727 48.904647 223.085704 47.743183" style="fill:none;stroke-width:0.50;stroke:#838981;"/>
		<path vector-effect="non-scaling-stroke" d="M 223.820025 44.764091 C 229.252915 46.030978 233.228066 46.937974 237.866652 47.621402 Q 240.558559 48.019462 244.095663 48.226672 Q 244.19745 48.233942 244.19745 48.132155 L 244.19745 43.604445 C 244.19745 43.559004 244.161097 43.520834 244.115656 43.517199 Q 241.296516 43.35543 238.268348 42.850129 Q 231.632189 41.741376 225.076006 39.892849" style="fill:none;stroke-width:0.50;stroke:#838981;"/>
		<path vector-effect="non-scaling-stroke" d="M 226.453768 37.197307 Q 229.267456 38.037051 232.102955 38.80409 Q 238.010245 40.403602 244.068398 40.897997 C 244.139286 40.90345 244.201085 40.847103 244.201085 40.776216 L 244.201085 36.097642 Q 244.201085 35.986767 244.09021 35.981314 Q 238.915424 35.694129 235.092952 34.78168 Q 233.760631 34.463595 228.860307 33.107645" style="fill:none;stroke-width:0.50;stroke:#838981;"/>
		<path vector-effect="non-scaling-stroke" d="M 231.010561 30.613859 Q 237.330452 32.982228 244.030228 33.309401 Q 244.182909 33.316672 244.182909 33.163991 L 244.175638 25.526319" style="fill:none;stroke-width:0.50;stroke:#838981;"/>
		<path vector-effect="non-scaling-stroke" d="M 283.554543 55.986125 Q 282.885656 57.741953 282.66754 58.241801 Q 281.317043 61.342674 278.586966 65.021552 C 275.715114 68.891282 271.681798 71.186945 267.015948 72.295698 Q 266.559724 72.402938 266.503377 72.764646 Q 266.163481 74.945799 265.994441 75.809173" style="fill:none;stroke-width:0.50;stroke:#81b2a3;"/>
		<path vector-effect="non-scaling-stroke" d="M 265.994441 75.809173 L 264.518528 75.269337" style="fill:none;stroke-width:0.50;stroke:#c8d7bf;"/>
		<path vector-effect="non-scaling-stroke" d="M 264.518528 75.269337 L 264.665755 74.736772" style="fill:none;stroke-width:0.50;stroke:#5b7772;"/>
		<path vector-effect="non-scaling-stroke" d="M 265.432794 71.99579 Q 265.498229 71.935808 265.572752 71.68134 Q 266.40159 68.789494 266.766933 66.350238" style="fill:none;stroke-width:0.50;stroke:#5b7772;"/>
		<path vector-effect="non-scaling-stroke" d="M 267.155905 63.334794 Q 267.19044 63.332976 267.223158 63.32207 Q 267.29768 63.294806 267.312221 63.216648 Q 267.859327 60.103051 267.92658 56.94765" style="fill:none;stroke-width:0.50;stroke:#5b7772;"/>
		<path vector-effect="non-scaling-stroke" d="M 279.261306 89.168736 L 277.301903 85.924271" style="fill:none;stroke-width:0.50;stroke:#a9c5b2;"/>
		<path vector-effect="non-scaling-stroke" d="M 277.301903 85.924271 Q 278.67603 84.34657 279.430345 83.081501 Q 282.153152 78.51562 283.552725 72.761011 Q 284.007132 70.89249 284.388834 69.005792 Q 284.681472 67.562596 284.761448 65.926731 Q 285.063174 59.764973 284.403375 54.079433" style="fill:none;stroke-width:0.50;stroke:#6a9590;"/>
		<path vector-effect="non-scaling-stroke" d="M 284.403375 54.079433 Q 284.970475 52.578073 285.237666 51.031272" style="fill:none;stroke-width:0.50;stroke:#81b2a3;"/>
		<path vector-effect="non-scaling-stroke" d="M 277.301903 85.924271 L 277.00563 85.477134" style="fill:none;stroke-width:0.50;stroke:#b0b9ac;"/>
		<path vector-effect="non-scaling-stroke" d="M 277.00563 85.477134 Q 277.88718 84.177531 278.497902 82.737969" style="fill:none;stroke-width:0.50;stroke:#89a79d;"/>
		<path vector-effect="non-scaling-stroke" d="M 278.497902 82.737969 Q 278.99775 82.183593 279.226771 81.743727 Q 282.249486 75.954583 283.281899 69.583798 C 283.903527 65.750421 284.101649 62.006108 283.841728 57.992786 Q 283.76357 56.800422 283.554543 55.986125" style="fill:none;stroke-width:0.50;stroke:#6a9590;"/>
		<path vector-effect="non-scaling-stroke" d="M 283.554543 55.986125 Q 283.616342 55.38449 283.572719 54.959165 Q 283.420038 53.457805 282.992896 51.572925" style="fill:none;stroke-width:0.50;stroke:#89a79d;"/>
		<path vector-effect="non-scaling-stroke" d="M 284.403375 54.079433 L 283.928974 51.363897" style="fill:none;stroke-width:0.50;stroke:#89a79d;"/>
		<path vector-effect="non-scaling-stroke" d="M 237.981163 88.899727 L 237.973892 97.015435" style="fill:none;stroke-width:0.50;stroke:#44595f;"/>
		<path vector-effect="non-scaling-stroke" d="M 237.973892 97.015435 Q 235.136576 98.265963 235.780016 101.3941 Q 236.165353 103.266257 237.97571 103.766105" style="fill:none;stroke-width:0.50;stroke:#838981;"/>
		<path vector-effect="non-scaling-stroke" d="M 237.97571 103.766105 Q 237.962987 118.852415 237.959351 133.958719 Q 237.959351 133.969624 237.930269 135.1838 Q 237.90664 136.178042 238.037509 137.126844" style="fill:none;stroke-width:0.50;stroke:#44595f;"/>
		<path vector-effect="non-scaling-stroke" d="M 206.619814 51.313004 Q 205.723724 56.649559 205.718271 60.232103 Q 205.714636 63.563815 205.870952 66.001253 Q 206.216301 71.412331 208.083005 76.785239 Q 208.611934 78.306593 209.378973 79.827948 C 210.32414 81.700104 211.471063 83.717671 212.812472 85.308095 Q 212.954247 85.473499 213.008776 85.262654 L 213.096022 84.922758 Q 213.145098 84.733725 213.034222 84.573773 Q 208.853679 78.526526 207.417753 71.21421 Q 205.500156 61.439008 207.584975 51.567472" style="fill:none;stroke-width:0.50;stroke:#6a9590;"/>
		<path vector-effect="non-scaling-stroke" d="M 222.355017 56.751346 Q 222.464075 59.875848 222.902123 63.073055" style="fill:none;stroke-width:0.50;stroke:#3c6564;"/>
		<path vector-effect="non-scaling-stroke" d="M 223.391065 66.141211 Q 223.438324 66.528365 223.503758 66.906432 Q 223.92363 69.354777 224.585247 71.748592 Q 224.594335 71.779492 224.610693 71.794033 Q 224.639775 71.817662 224.66704 71.806756" style="fill:none;stroke-width:0.50;stroke:#3c6564;"/>
		<path vector-effect="non-scaling-stroke" d="M 225.530413 74.645891 L 225.666735 75.138468" style="fill:none;stroke-width:0.50;stroke:#3c6564;"/>
		<path vector-effect="non-scaling-stroke" d="M 225.666735 75.138468 Q 225.554042 75.122109 225.537684 75.358401 Q 225.532231 75.447465 225.452255 75.487453 Q 219.432272 78.544702 215.071783 83.570443 Q 212.939706 86.027876 211.080273 89.00515" style="fill:none;stroke-width:0.50;stroke:#a9c5b2;"/>
		<path vector-effect="non-scaling-stroke" d="M 275.893242 86.060593 Q 275.282519 86.716757 274.717237 87.323844 C 271.452777 90.819142 267.548513 93.999991 263.22983 96.099351 Q 261.008689 97.179022 257.704241 98.553148" style="fill:none;stroke-width:0.50;stroke:#89a79d;"/>
		<path vector-effect="non-scaling-stroke" d="M 257.704241 98.553148 L 257.709694 87.316574" style="fill:none;stroke-width:0.50;stroke:#5b7772;"/>
		<path vector-effect="non-scaling-stroke" d="M 256.47189 85.766137 Q 258.860253 84.252053 260.868731 82.030912" style="fill:none;stroke-width:0.50;stroke:#5b7772;"/>
		<path vector-effect="non-scaling-stroke" d="M 264.518528 75.269337 L 264.236795 76.027288" style="fill:none;stroke-width:0.50;stroke:#838981;"/>
		<path vector-effect="non-scaling-stroke" d="M 264.236795 76.027288 Q 263.477027 77.986691 262.426438 79.824312" style="fill:none;stroke-width:0.50;stroke:#5b7772;"/>
		<path vector-effect="non-scaling-stroke" d="M 257.678795 99.360175 L 257.65153 101.497705" style="fill:none;stroke-width:0.50;stroke:#3c6564;"/>
		<path vector-effect="non-scaling-stroke" d="M 244.686392 137.13775 L 244.682756 103.758834" style="fill:none;stroke-width:0.50;stroke:#44595f;"/>
		<path vector-effect="non-scaling-stroke" d="M 244.682756 103.758834 Q 248.205319 103.755199 251.6679 103.713393 Q 252.794829 103.698852 253.509157 102.871832 C 254.717879 101.472258 254.692432 99.307464 253.52188 97.915161 Q 252.622154 96.844578 250.986289 96.811861 Q 246.182299 96.72098 241.122024 96.806408" style="fill:none;stroke-width:0.50;stroke:#838981;"/>
		<path vector-effect="non-scaling-stroke" d="M 241.122024 96.806408 L 241.065677 89.550438" style="fill:none;stroke-width:0.50;stroke:#44595f;"/>
		<path vector-effect="non-scaling-stroke" d="M 241.122024 96.806408 Q 240.429507 96.833672 239.484341 96.848213 Q 238.740931 96.860937 237.973892 97.015435" style="fill:none;stroke-width:0.50;stroke:#b0b9ac;"/>
		<path vector-effect="non-scaling-stroke" d="M 227.727925 79.626191 Q 227.689755 79.626191 227.658855 79.61165 Q 227.631591 79.598926 227.613414 79.562574 Q 226.866369 77.981238 226.12296 76.399902" style="fill:none;stroke-width:0.50;stroke:#3c6564;"/>
		<path vector-effect="non-scaling-stroke" d="M 226.12296 76.399902 L 225.666735 75.138468" style="fill:none;stroke-width:0.50;stroke:#838981;"/>
		<path vector-effect="non-scaling-stroke" d="M 229.247462 81.740092 Q 231.170512 84.199342 233.967841 85.798855" style="fill:none;stroke-width:0.50;stroke:#3c6564;"/>
		<path vector-effect="non-scaling-stroke" d="M 232.335611 87.29658 L 232.346517 98.791258" style="fill:none;stroke-width:0.50;stroke:#3c6564;"/>
		<path vector-effect="non-scaling-stroke" d="M 232.346517 98.791258 C 231.508591 98.469537 230.607047 98.196893 229.845461 97.849726 Q 227.251707 96.666451 224.623417 94.861546 Q 218.957871 90.971823 214.671905 85.886101" style="fill:none;stroke-width:0.50;stroke:#6a9590;"/>
		<path vector-effect="non-scaling-stroke" d="M 272.272527 80.29326 Q 272.895974 80.958512 273.621207 81.627399 Q 274.828112 82.739787 276.723898 85.20449 Q 276.865673 85.389888 277.00563 85.477134" style="fill:none;stroke-width:0.50;stroke:#c8d7bf;"/>
		<path vector-effect="non-scaling-stroke" d="M 278.53062 89.913964 L 276.478518 86.814908" style="fill:none;stroke-width:0.50;stroke:#c8d7bf;"/>
		<path vector-effect="non-scaling-stroke" d="M 276.478518 86.814908 L 275.893242 86.060593" style="fill:none;stroke-width:0.50;stroke:#b0b9ac;"/>
		<path vector-effect="non-scaling-stroke" d="M 275.893242 86.060593 Q 275.169826 85.013639 274.848106 84.626485 Q 271.423695 80.498652 266.875991 77.652247 Q 265.572752 76.836132 264.236795 76.027288" style="fill:none;stroke-width:0.50;stroke:#c8d7bf;"/>
		<path vector-effect="non-scaling-stroke" d="M 278.497902 82.737969 C 278.00169 80.467752 277.272821 78.530161 274.65362 78.133918 C 273.688459 77.988508 272.988673 78.770088 272.541536 79.518951 Q 272.465196 79.646185 272.437932 79.904288 Q 272.401579 80.235096 272.272527 80.29326" style="fill:none;stroke-width:0.50;stroke:#81b2a3;"/>
		<path vector-effect="non-scaling-stroke" d="M 272.272527 80.29326 Q 269.293436 77.728587 265.994441 75.809173" style="fill:none;stroke-width:0.50;stroke:#a9c5b2;"/>
		<path vector-effect="non-scaling-stroke" d="M 232.322888 99.832758 L 232.337429 101.60131" style="fill:none;stroke-width:0.50;stroke:#3c6564;"/>
		<path vector-effect="non-scaling-stroke" d="M 232.346517 98.791258 L 232.322888 99.832758" style="fill:none;stroke-width:0.50;stroke:#44595f;"/>
		<path vector-effect="non-scaling-stroke" d="M 232.322888 99.832758 Q 228.662186 98.674929 225.672188 96.768238 Q 219.948478 93.112989 215.209923 87.872768 Q 214.771875 87.389279 214.0321 86.762197" style="fill:none;stroke-width:0.50;stroke:#6a9590;"/>
		<path vector-effect="non-scaling-stroke" d="M 244.682756 103.758834 L 237.97571 103.766105" style="fill:none;stroke-width:0.50;stroke:#b0b9ac;"/>
		<path vector-effect="non-scaling-stroke" d="M 226.12296 76.399902 Q 219.377743 79.922464 214.671905 85.886101" style="fill:none;stroke-width:0.50;stroke:#a9c5b2;"/>
		<path vector-effect="non-scaling-stroke" d="M 214.671905 85.886101 L 214.0321 86.762197" style="fill:none;stroke-width:0.50;stroke:#b0b9ac;"/>
		<path vector-effect="non-scaling-stroke" d="M 214.0321 86.762197 Q 212.945159 88.272646 212.125409 89.926687" style="fill:none;stroke-width:0.50;stroke:#a9c5b2;"/>
		<path vector-effect="non-scaling-stroke" d="M 276.478518 86.814908 Q 272.877798 90.875489 268.544573 93.912745 Q 267.159541 94.883358 265.732703 95.844883" style="fill:none;stroke-width:0.50;stroke:#89a79d;"/>
		<path vector-effect="non-scaling-stroke" d="M 265.732703 95.844883 Q 265.37463 95.963029 265.002017 96.139339 Q 262.255581 97.453484 259.525504 98.805799 Q 258.920234 99.105707 257.678795 99.360175" style="fill:none;stroke-width:0.50;stroke:#6a9590;"/>
		<path vector-effect="non-scaling-stroke" d="M 257.678795 99.360175 L 257.704241 98.553148" style="fill:none;stroke-width:0.50;stroke:#44595f;"/>
		<path vector-effect="non-scaling-stroke" d="M 266.448848 98.442273 Q 266.736033 97.017253 265.732703 95.844883" style="fill:none;stroke-width:0.50;stroke:#81b2a3;"/>
		<path vector-effect="non-scaling-stroke" d="M 243.581274 138.468253 Q 243.486757 138.530052 243.486757 138.588216 Q 243.457675 142.826924 243.521292 147.061997 C 243.52311 147.145608 243.590362 147.21286 243.675791 147.21286 L 245.876938 147.21286 C 245.958731 147.21286 246.025983 147.145608 246.027801 147.063814 Q 246.055065 142.863277 245.993266 138.611846 Q 245.991448 138.426448 245.707898 138.444624" style="fill:none;stroke-width:0.50;stroke:#44595f;"/>
		<path d="M 265.240126 7.609963 Q 267.181352 9.111323 268.099254 10.674483 Q 269.160749 12.481205 267.941121 14.118888 Q 266.825097 15.620248 264.951123 16.663567 Q 262.477332 18.041328 259.514599 18.766562 C 251.257116 20.793217 242.432533 20.825934 234.125975 19.144628 Q 233.978747 16.756266 235.296527 14.682352 L 236.543419 12.83746 Q 237.779406 11.288841 238.975405 10.140101 Q 241.750923 7.479094 245.129893 4.749017 Q 245.244403 4.656318 245.44616 4.750835 C 250.986289 6.130414 256.464619 8.509689 260.946889 11.966817 Q 263.148036 13.662663 265.140156 15.909251 Q 265.231038 16.011038 265.303743 16.031032 C 265.414618 16.061932 265.509135 15.945604 265.458241 15.843817 C 265.047457 15.018614 264.61668 14.071629 264.115014 13.382749 C 262.615471 11.321559 260.679698 10.071031 258.338593 8.758704 Q 254.112609 6.392152 249.737579 4.903515 Q 248.487051 4.47819 245.909655 4.078312 L 243.733955 3.996519 Q 243.641256 3.992884 243.583092 3.920179 L 243.503116 3.822027 Q 246.740311 3.574829 247.941763 3.654805 Q 252.098677 3.931084 254.221667 4.274616 Q 254.966894 4.39458 257.893275 5.041655 Q 261.875697 5.921387 265.240126 7.609963 Z" style="fill:#a0c4b0;"/>
		<path d="M 243.503116 3.822027 L 243.583092 3.920179 Q 243.641256 3.992884 243.733955 3.996519 L 245.909655 4.078312 Q 245.569759 4.336415 245.44616 4.750835 Q 245.244403 4.656318 245.129893 4.749017 Q 241.750923 7.479094 238.975405 10.140101 Q 237.779406 11.288841 236.543419 12.83746 Q 236.025396 12.853819 234.920278 13.141004 Q 234.640363 13.213709 234.584017 13.291867 C 234.480412 13.43546 234.507676 13.666299 234.45133 13.837156 Q 234.422248 13.924402 234.338637 13.964389 Q 231.257758 15.423945 228.393177 17.436058 Q 226.55919 16.718095 225.01966 15.309434 C 223.612816 14.018918 222.918482 11.954093 224.13084 10.243706 Q 225.210511 8.722351 227.024503 7.52817 Q 228.609474 6.555739 230.49799 5.970463 Q 236.83424 4.009242 243.503116 3.822027 Z" style="fill:#62a095;"/>
		<path d="M 245.909655 4.078312 Q 248.487051 4.47819 249.737579 4.903515 Q 254.112609 6.392152 258.338593 8.758704 C 260.679698 10.071031 262.615471 11.321559 264.115014 13.382749 C 264.61668 14.071629 265.047457 15.018614 265.458241 15.843817 C 265.509135 15.945604 265.414618 16.061932 265.303743 16.031032 Q 265.231038 16.011038 265.140156 15.909251 Q 263.148036 13.662663 260.946889 11.966817 C 256.464619 8.509689 250.986289 6.130414 245.44616 4.750835 Q 245.569759 4.336415 245.909655 4.078312 Z" style="fill:#71898a;"/>
		<path d="M 227.024503 7.52817 Q 225.210511 8.722351 224.13084 10.243706 C 222.918482 11.954093 223.612816 14.018918 225.01966 15.309434 Q 226.55919 16.718095 228.393177 17.436058 L 229.57827 17.906824 L 234.125975 19.144628 C 242.432533 20.825934 251.257116 20.793217 259.514599 18.766562 Q 262.477332 18.041328 264.951123 16.663567 Q 266.825097 15.620248 267.941121 14.118888 Q 269.160749 12.481205 268.099254 10.674483 Q 267.181352 9.111323 265.240126 7.609963 Q 267.355845 8.502418 269.124396 9.638435 Q 270.314942 11.288841 270.151356 13.01377 C 269.8569 16.134637 266.445213 18.004976 263.991416 19.179163 L 262.766335 19.640841 Q 260.328896 20.389703 259.650921 20.551472 Q 248.859665 23.114327 237.857564 21.643867 Q 236.470714 21.458469 234.48223 21.087672 Q 231.27957 20.478767 228.129621 19.279133 L 227.053585 18.815638 Q 225.159617 17.995888 223.569193 16.350935 Q 222.449534 15.193106 222.060562 13.948031 Q 221.231724 11.301565 223.298366 9.025895 Q 223.549199 8.849585 224.036323 8.655099 Q 225.477702 8.084364 227.024503 7.52817 Z" style="fill:#efe9ce;"/>
		<path d="M 223.298366 9.025895 Q 221.231724 11.301565 222.060562 13.948031 Q 222.449534 15.193106 223.569193 16.350935 Q 225.159617 17.995888 227.053585 18.815638 Q 224.078129 21.073131 222.931205 22.221872 Q 220.911821 24.244892 219.37229 25.935286 Q 215.867904 29.783204 213.052399 34.801674 C 210.229623 39.832867 208.192062 45.062182 206.98334 50.022488 Q 202.948206 49.133668 200.092713 48.186684 Q 197.631645 47.370569 196.92277 47.157907 Q 197.849761 38.678674 201.465022 31.34091 Q 207.068768 19.968014 217.332912 12.533916 Q 220.072077 10.550885 223.298366 9.025895 Z" style="fill:#62a095;"/>
		<path d="M 290.372464 34.063717 Q 289.476374 34.240027 288.593007 34.449054 C 287.108005 34.798038 284.561509 35.283345 284.350664 37.215483 Q 284.310676 37.582644 284.645119 38.427841 Q 285.143149 39.691092 285.18132 41.203358 Q 285.284924 45.318468 284.15436 49.275443 Q 284.052573 49.633516 283.865357 49.808008 Q 283.778111 49.726215 283.772658 49.695315 C 283.536366 48.424793 283.240093 47.566873 282.72934 46.001896 C 279.781148 36.937386 274.940805 28.612651 267.833881 22.232778 Q 266.092593 20.6678 265.58184 20.324269 Q 264.809348 19.806245 263.991416 19.179163 C 266.445213 18.004976 269.8569 16.134637 270.151356 13.01377 Q 270.314942 11.288841 269.124396 9.638435 Q 269.78056 9.892903 270.607581 10.436374 Q 275.008057 13.32822 278.407021 16.541786 C 283.507284 21.362134 287.658746 27.600233 290.372464 34.063717 Z" style="fill:#a0c4b0;"/>
		<path d="M 236.543419 12.83746 L 235.296527 14.682352 C 233.53161 15.294893 231.866663 16.330941 230.305321 17.328818 Q 229.918166 17.576016 229.57827 17.906824 L 228.393177 17.436058 Q 231.257758 15.423945 234.338637 13.964389 Q 234.422248 13.924402 234.45133 13.837156 C 234.507676 13.666299 234.480412 13.43546 234.584017 13.291867 Q 234.640363 13.213709 234.920278 13.141004 Q 236.025396 12.853819 236.543419 12.83746 Z" style="fill:#71898a;"/>
		<path d="M 235.296527 14.682352 Q 233.978747 16.756266 234.125975 19.144628 L 229.57827 17.906824 Q 229.918166 17.576016 230.305321 17.328818 C 231.866663 16.330941 233.53161 15.294893 235.296527 14.682352 Z" style="fill:#62a095;"/>
		<path d="M 227.053585 18.815638 L 228.129621 19.279133 Q 226.506479 20.297004 225.036018 21.58025 Q 224.139928 22.360012 222.384099 24.066764 Q 216.733095 29.557818 212.961517 36.835599 Q 209.737046 43.057339 208.115722 49.435394 Q 208.033929 49.753479 208.213874 50.316944 L 206.98334 50.022488 C 208.192062 45.062182 210.229623 39.832867 213.052399 34.801674 Q 215.867904 29.783204 219.37229 25.935286 Q 220.911821 24.244892 222.931205 22.221872 Q 224.078129 21.073131 227.053585 18.815638 Z" style="fill:#71898a;"/>
		<path d="M 263.991416 19.179163 Q 264.809348 19.806245 265.58184 20.324269 Q 266.092593 20.6678 267.833881 22.232778 C 274.940805 28.612651 279.781148 36.937386 282.72934 46.001896 C 283.240093 47.566873 283.536366 48.424793 283.772658 49.695315 Q 283.778111 49.726215 283.865357 49.808008 Q 283.814464 49.731668 283.852634 49.924336 L 282.903832 50.18971 Q 282.763875 49.757115 282.398532 48.359359 Q 281.755091 45.896473 280.173755 41.957674 Q 277.207387 34.581741 272.501549 28.623557 Q 270.304037 25.840769 266.97596 22.825325 C 265.86539 21.820176 264.867512 21.118572 263.731495 20.229752 Q 263.533373 20.075254 263.246188 19.91712 Q 263.017167 19.791704 262.766335 19.640841 L 263.991416 19.179163 Z" style="fill:#71898a;"/>
		<path d="M 234.48223 21.087672 C 235.003889 22.389094 236.058113 23.168856 237.250477 24.11584 Q 238.015698 24.722928 238.491916 24.799268 Q 239.060834 24.891967 239.882402 24.533895 Q 240.276827 24.363038 241.476461 24.486636 Q 242.06719 24.548436 243.919353 25.037378 Q 244.09021 25.082818 244.148374 25.1737 Q 244.241073 25.317292 244.126562 25.484514 Q 242.021749 25.582666 240.229568 25.942556 Q 235.032971 26.982239 231.010561 30.613859 Q 230.379844 31.135519 229.787297 31.806223 Q 229.245644 32.418764 228.860307 33.107645 Q 227.358947 35.054324 226.419233 37.059167 Q 226.373792 37.153684 226.453768 37.197307 Q 226.393786 37.23366 226.341075 37.268194 Q 226.282911 37.302729 226.250194 37.360893 Q 225.570401 38.549622 225.076006 39.892849 Q 224.270797 42.166701 223.756408 44.585964 Q 223.743685 44.64231 223.760044 44.68048 Q 223.780038 44.725921 223.820025 44.764091 Q 223.720056 44.769544 223.698244 44.847702 Q 223.336536 46.118224 223.085704 47.743183 L 222.49134 52.532632 Q 222.238689 52.458109 221.428027 52.385404 Q 215.079054 51.820122 208.213874 50.316944 Q 208.033929 49.753479 208.115722 49.435394 Q 209.737046 43.057339 212.961517 36.835599 Q 216.733095 29.557818 222.384099 24.066764 Q 224.139928 22.360012 225.036018 21.58025 Q 226.506479 20.297004 228.129621 19.279133 Q 231.27957 20.478767 234.48223 21.087672 Z" style="fill:#62a095;"/>
		<path d="M 262.766335 19.640841 Q 263.017167 19.791704 263.246188 19.91712 Q 263.533373 20.075254 263.731495 20.229752 C 264.867512 21.118572 265.86539 21.820176 266.97596 22.825325 Q 270.304037 25.840769 272.501549 28.623557 Q 277.207387 34.581741 280.173755 41.957674 Q 281.755091 45.896473 282.398532 48.359359 Q 282.763875 49.757115 282.903832 50.18971 Q 277.812657 51.454779 272.341597 52.083678 Q 269.540633 52.405398 267.748452 52.556261 Q 267.595771 50.236968 267.130459 47.959481 Q 267.1141 47.884958 267.032307 47.824976 L 266.347061 44.845884 Q 265.950818 42.462974 265.029281 40.156405 Q 264.994746 40.069159 264.903865 40.049165 L 264.803895 40.027353 Q 264.965664 40.043712 264.911135 39.921931 Q 264.511257 39.024023 263.653337 37.479039 Q 263.600626 37.384523 263.44431 37.284553 Q 263.455215 37.166407 263.397051 37.048261 Q 262.393721 34.999795 260.899631 33.260325 L 260.910537 33.209432 Q 260.921442 33.151268 260.886907 33.105827 Q 259.901753 31.749877 258.64032 30.791987 Q 256.72454 28.921648 254.552475 27.807442 Q 250.686381 25.82441 246.067789 25.486332 Q 245.469789 25.259128 244.48827 25.362733 Q 244.271972 25.386362 244.175638 25.526319 Q 244.146556 25.519049 244.126562 25.484514 Q 244.241073 25.317292 244.148374 25.1737 Q 244.09021 25.082818 243.919353 25.037378 Q 242.06719 24.548436 241.476461 24.486636 Q 240.276827 24.363038 239.882402 24.533895 Q 239.060834 24.891967 238.491916 24.799268 Q 238.015698 24.722928 237.250477 24.11584 C 236.058113 23.168856 235.003889 22.389094 234.48223 21.087672 Q 236.470714 21.458469 237.857564 21.643867 Q 248.859665 23.114327 259.650921 20.551472 Q 260.328896 20.389703 262.766335 19.640841 Z" style="fill:#a0c4b0;"/>
		<path d="M 246.067789 25.486332 L 246.040524 33.251237 Q 246.038707 33.353024 246.140494 33.349389 Q 250.844514 33.183985 255.394036 31.822582 Q 256.93175 31.362722 258.64032 30.791987 Q 259.901753 31.749877 260.886907 33.105827 Q 260.921442 33.151268 260.910537 33.209432 L 260.899631 33.260325 C 260.78512 33.260325 260.659704 33.238514 260.552464 33.271231 Q 257.969615 34.060082 256.286492 34.523577 Q 251.440696 35.861351 246.12777 35.975861 Q 246.040524 35.977679 246.040524 36.064925 L 246.040524 40.745316 C 246.040524 40.812569 246.095053 40.86528 246.162305 40.861644 C 252.064143 40.556283 257.831475 39.103998 263.44431 37.284553 Q 263.600626 37.384523 263.653337 37.479039 Q 264.511257 39.024023 264.911135 39.921931 Q 264.965664 40.043712 264.803895 40.027353 Q 258.304058 41.919504 252.405857 42.897388 Q 249.913889 43.309989 246.140494 43.497205 Q 246.042342 43.502658 246.042342 43.600809 L 246.042342 48.155784 C 246.042342 48.219401 246.096871 48.272113 246.160488 48.268477 C 252.987497 47.946757 259.676367 46.401774 266.347061 44.845884 L 267.032307 47.824976 Q 260.268914 49.402677 253.394646 50.37329 Q 249.621251 50.905855 246.124135 51.005825 Q 246.038707 51.007642 246.038707 51.091253 L 246.038707 54.539293 Q 246.038707 54.664709 246.164123 54.659256 L 267.746634 53.899488 Q 267.86478 53.984917 267.873868 54.139415 Q 267.955662 55.557165 267.92658 56.94765 L 246.105959 57.30027 C 246.060518 57.302087 246.024166 57.33844 246.024166 57.382063 L 246.024166 61.00096 Q 246.024166 61.113653 246.138676 61.117288 Q 250.199256 61.200899 254.485223 61.684388 Q 259.96537 62.302381 266.934155 63.285718 Q 267.046848 63.302076 267.155905 63.334794 Q 267.250422 63.372964 267.228611 63.547456 Q 267.019583 65.177868 266.766933 66.350238 Q 266.686958 66.301162 266.650605 66.295709 Q 259.251043 65.148786 254.948718 64.528975 Q 250.361025 63.867359 246.178664 63.696501 C 246.105959 63.692866 246.04416 63.752848 246.04416 63.825553 L 246.04416 67.986103 C 246.04416 68.020638 246.071424 68.04972 246.105959 68.051538 Q 250.588229 68.313276 255.077769 69.311154 Q 258.551256 70.083645 265.432794 71.99579 L 265.492776 72.108483 C 265.509135 72.139382 265.514588 72.175735 265.505499 72.21027 L 264.883871 74.607721 C 264.867512 74.665885 264.820254 74.711325 264.758455 74.722231 L 264.665755 74.736772 Q 260.986877 73.669825 257.306181 72.635595 C 253.609126 71.597729 249.921159 70.943383 246.080512 70.687098 Q 246.018713 70.683462 246.018713 70.745262 L 246.018713 74.936711 Q 246.018713 75.040316 246.124135 75.040316 Q 249.274084 75.063945 252.854811 75.992753 Q 257.891457 77.29781 262.302839 79.807954 Q 262.368274 79.844306 262.426438 79.824312 Q 262.431891 80.026069 262.391903 80.087868 Q 261.675758 81.176627 260.868731 82.030912 Q 260.158039 81.532882 258.865705 80.940336 C 254.819666 79.084538 250.490077 77.846733 246.167758 77.675876 Q 246.022348 77.670423 246.022348 77.815834 L 246.022348 88.083613 Q 246.022348 88.167223 246.105959 88.167223 C 248.54158 88.138141 251.008101 87.821874 253.300129 87.091188 C 254.51794 86.702216 255.419483 86.229632 256.47189 85.766137 L 258.18773 85.875195 Q 258.400393 85.889736 258.384034 86.100581 Q 258.316782 86.954866 257.709694 87.316574 Q 256.991731 87.314756 256.299215 87.423814 Q 255.726662 87.512878 254.974164 87.872768 C 250.797256 89.870341 245.707898 90.257495 241.065677 89.550438 L 237.981163 88.899727 Q 236.294404 88.381704 234.709433 87.554683 C 234.465871 87.427449 234.135063 87.367467 233.902406 87.363832 Q 233.09538 87.352926 232.335611 87.29658 Q 231.89211 86.72948 232.026615 85.998794 Q 232.044791 85.906095 232.13749 85.900642 L 233.967841 85.798855 Q 236.479802 87.136629 239.033569 87.634659 Q 241.532808 88.121783 244.081122 88.201758 C 244.137468 88.203576 244.182909 88.159953 244.182909 88.103607 L 244.182909 77.73404 Q 244.182909 77.632253 244.081122 77.635888 Q 238.651868 77.814016 233.591592 79.782507 Q 231.464968 80.609527 229.247462 81.740092 Q 228.469517 80.82219 227.737013 79.815224 Q 227.700661 79.764331 227.727925 79.626191 Q 228.703991 79.010015 230.458002 78.1939 Q 236.97238 75.163915 244.141103 74.987605 C 244.168368 74.987605 244.191997 74.963976 244.191997 74.936711 L 244.191997 70.787067 C 244.191997 70.727086 244.144739 70.679827 244.084757 70.679827 Q 242.903299 70.688915 241.512814 70.841596 Q 237.203218 71.315997 232.92634 72.526537 Q 229.307443 73.551679 225.530413 74.645891 L 224.623417 72.057589 Q 224.596152 71.979431 224.627052 71.903091 L 224.66704 71.806756 Q 229.116593 70.545323 233.613404 69.476558 Q 238.724573 68.260565 244.092027 68.047902 Q 244.186544 68.044267 244.186544 67.94975 L 244.186544 63.792836 Q 244.186544 63.696501 244.092027 63.696501 C 240.494942 63.683778 237.046902 64.098197 233.384382 64.565328 Q 229.979966 64.999741 223.391065 66.141211 L 222.902123 63.073055 Q 224.968766 62.75497 228.447706 62.313287 C 234.065993 61.598959 238.939053 61.119105 244.130198 61.106382 C 244.168368 61.106382 244.199267 61.075482 244.199267 61.035495 L 244.199267 57.40751 Q 244.199267 57.260282 244.05204 57.256646 L 222.355017 56.751346 L 222.3532 54.053986 C 222.3532 53.935841 222.264136 53.837689 222.14599 53.826783 Q 214.940914 53.179708 207.584975 51.567472 L 206.619814 51.313004 Q 202.123003 50.313309 197.926101 48.851936 Q 197.339007 48.646544 196.761002 48.402982 Q 196.715561 47.779536 196.92277 47.157907 Q 197.631645 47.370569 200.092713 48.186684 Q 202.948206 49.133668 206.98334 50.022488 L 208.213874 50.316944 Q 215.079054 51.820122 221.428027 52.385404 Q 222.238689 52.458109 222.49134 52.532632 L 222.471346 53.630479 Q 222.471346 53.699549 222.538598 53.701367 L 244.112021 54.604728 Q 244.20472 54.608363 244.20472 54.515664 L 244.20472 51.053083 C 244.20472 51.00946 244.170185 50.973107 244.126562 50.97129 Q 238.960864 50.682287 234.204133 49.858902 Q 228.676727 48.904647 223.085704 47.743183 Q 223.336536 46.118224 223.698244 44.847702 Q 223.720056 44.769544 223.820025 44.764091 C 229.252915 46.030978 233.228066 46.937974 237.866652 47.621402 Q 240.558559 48.019462 244.095663 48.226672 Q 244.19745 48.233942 244.19745 48.132155 L 244.19745 43.604445 C 244.19745 43.559004 244.161097 43.520834 244.115656 43.517199 Q 241.296516 43.35543 238.268348 42.850129 Q 231.632189 41.741376 225.076006 39.892849 Q 225.570401 38.549622 226.250194 37.360893 Q 226.282911 37.302729 226.341075 37.268194 Q 226.393786 37.23366 226.453768 37.197307 Q 229.267456 38.037051 232.102955 38.80409 Q 238.010245 40.403602 244.068398 40.897997 C 244.139286 40.90345 244.201085 40.847103 244.201085 40.776216 L 244.201085 36.097642 Q 244.201085 35.986767 244.09021 35.981314 Q 238.915424 35.694129 235.092952 34.78168 Q 233.760631 34.463595 228.860307 33.107645 Q 229.245644 32.418764 229.787297 31.806223 Q 230.379844 31.135519 231.010561 30.613859 Q 237.330452 32.982228 244.030228 33.309401 Q 244.182909 33.316672 244.182909 33.163991 L 244.175638 25.526319 Q 244.271972 25.386362 244.48827 25.362733 Q 245.469789 25.259128 246.067789 25.486332 Z" style="fill:#efe9ce;"/>
		<path d="M 244.126562 25.484514 Q 244.146556 25.519049 244.175638 25.526319 L 244.182909 33.163991 Q 244.182909 33.316672 244.030228 33.309401 Q 237.330452 32.982228 231.010561 30.613859 Q 235.032971 26.982239 240.229568 25.942556 Q 242.021749 25.582666 244.126562 25.484514 Z" style="fill:#162933;"/>
		<path d="M 258.64032 30.791987 Q 256.93175 31.362722 255.394036 31.822582 Q 250.844514 33.183985 246.140494 33.349389 Q 246.038707 33.353024 246.040524 33.251237 L 246.067789 25.486332 Q 250.686381 25.82441 254.552475 27.807442 Q 256.72454 28.921648 258.64032 30.791987 Z" style="fill:#162933;"/>
		<path d="M 228.860307 33.107645 Q 233.760631 34.463595 235.092952 34.78168 Q 238.915424 35.694129 244.09021 35.981314 Q 244.201085 35.986767 244.201085 36.097642 L 244.201085 40.776216 C 244.201085 40.847103 244.139286 40.90345 244.068398 40.897997 Q 238.010245 40.403602 232.102955 38.80409 Q 229.267456 38.037051 226.453768 37.197307 Q 226.373792 37.153684 226.419233 37.059167 Q 227.358947 35.054324 228.860307 33.107645 Z" style="fill:#162933;"/>
		<path d="M 260.899631 33.260325 Q 262.393721 34.999795 263.397051 37.048261 Q 263.455215 37.166407 263.44431 37.284553 C 257.831475 39.103998 252.064143 40.556283 246.162305 40.861644 C 246.095053 40.86528 246.040524 40.812569 246.040524 40.745316 L 246.040524 36.064925 Q 246.040524 35.977679 246.12777 35.975861 Q 251.440696 35.861351 256.286492 34.523577 Q 257.969615 34.060082 260.552464 33.271231 C 260.659704 33.238514 260.78512 33.260325 260.899631 33.260325 Z" style="fill:#162933;"/>
		<path d="M 290.372464 34.063717 Q 292.824444 40.401785 293.34065 47.148819 C 290.190702 48.232125 287.086193 49.211826 283.852634 49.924336 Q 283.814464 49.731668 283.865357 49.808008 Q 284.052573 49.633516 284.15436 49.275443 Q 285.284924 45.318468 285.18132 41.203358 Q 285.143149 39.691092 284.645119 38.427841 Q 284.310676 37.582644 284.350664 37.215483 C 284.561509 35.283345 287.108005 34.798038 288.593007 34.449054 Q 289.476374 34.240027 290.372464 34.063717 Z" style="fill:#62a095;"/>
		<path d="M 225.076006 39.892849 Q 231.632189 41.741376 238.268348 42.850129 Q 241.296516 43.35543 244.115656 43.517199 C 244.161097 43.520834 244.19745 43.559004 244.19745 43.604445 L 244.19745 48.132155 Q 244.19745 48.233942 244.095663 48.226672 Q 240.558559 48.019462 237.866652 47.621402 C 233.228066 46.937974 229.252915 46.030978 223.820025 44.764091 Q 223.780038 44.725921 223.760044 44.68048 Q 223.743685 44.64231 223.756408 44.585964 Q 224.270797 42.166701 225.076006 39.892849 Z" style="fill:#162933;"/>
		<path d="M 264.803895 40.027353 L 264.903865 40.049165 Q 264.994746 40.069159 265.029281 40.156405 Q 265.950818 42.462974 266.347061 44.845884 C 259.676367 46.401774 252.987497 47.946757 246.160488 48.268477 C 246.096871 48.272113 246.042342 48.219401 246.042342 48.155784 L 246.042342 43.600809 Q 246.042342 43.502658 246.140494 43.497205 Q 249.913889 43.309989 252.405857 42.897388 Q 258.304058 41.919504 264.803895 40.027353 Z" style="fill:#162933;"/>
		<path d="M 293.34065 47.148819 Q 293.262492 47.804982 293.526048 48.455693 Q 289.370951 49.955236 285.237666 51.031272 L 283.928974 51.363897 L 282.992896 51.572925 Q 279.430345 52.369046 278.437921 52.561714 Q 274.659073 53.294218 269.049874 53.824965 Q 268.517309 53.875859 267.981108 53.883129 Q 267.906586 53.883129 267.85751 53.828601 L 267.813887 53.781342 L 267.748452 52.556261 Q 269.540633 52.405398 272.341597 52.083678 Q 277.812657 51.454779 282.903832 50.18971 L 283.852634 49.924336 C 287.086193 49.211826 290.190702 48.232125 293.34065 47.148819 Z" style="fill:#efe9ce;"/>
		<path d="M 223.085704 47.743183 Q 228.676727 48.904647 234.204133 49.858902 Q 238.960864 50.682287 244.126562 50.97129 C 244.170185 50.973107 244.20472 51.00946 244.20472 51.053083 L 244.20472 54.515664 Q 244.20472 54.608363 244.112021 54.604728 L 222.538598 53.701367 Q 222.471346 53.699549 222.471346 53.630479 L 222.49134 52.532632 L 223.085704 47.743183 Z" style="fill:#162933;"/>
		<path d="M 267.032307 47.824976 Q 267.1141 47.884958 267.130459 47.959481 Q 267.595771 50.236968 267.748452 52.556261 L 267.813887 53.781342 L 267.746634 53.899488 L 246.164123 54.659256 Q 246.038707 54.664709 246.038707 54.539293 L 246.038707 51.091253 Q 246.038707 51.007642 246.124135 51.005825 Q 249.621251 50.905855 253.394646 50.37329 Q 260.268914 49.402677 267.032307 47.824976 Z" style="fill:#162933;"/>
		<path d="M 196.761002 48.402982 Q 197.339007 48.646544 197.926101 48.851936 Q 202.123003 50.313309 206.619814 51.313004 Q 205.723724 56.649559 205.718271 60.232103 Q 205.714636 63.563815 205.870952 66.001253 Q 206.216301 71.412331 208.083005 76.785239 Q 208.611934 78.306593 209.378973 79.827948 C 210.32414 81.700104 211.471063 83.717671 212.812472 85.308095 Q 212.954247 85.473499 213.008776 85.262654 L 213.096022 84.922758 Q 213.145098 84.733725 213.034222 84.573773 Q 208.853679 78.526526 207.417753 71.21421 Q 205.500156 61.439008 207.584975 51.567472 Q 214.940914 53.179708 222.14599 53.826783 C 222.264136 53.837689 222.3532 53.935841 222.3532 54.053986 L 222.355017 56.751346 Q 222.464075 59.875848 222.902123 63.073055 L 223.391065 66.141211 Q 223.438324 66.528365 223.503758 66.906432 Q 223.92363 69.354777 224.585247 71.748592 Q 224.594335 71.779492 224.610693 71.794033 Q 224.639775 71.817662 224.66704 71.806756 L 224.627052 71.903091 Q 224.596152 71.979431 224.623417 72.057589 L 225.530413 74.645891 L 225.666735 75.138468 Q 225.554042 75.122109 225.537684 75.358401 Q 225.532231 75.447465 225.452255 75.487453 Q 219.432272 78.544702 215.071783 83.570443 Q 212.939706 86.027876 211.080273 89.00515 Q 210.887604 88.848834 210.50772 88.441685 Q 198.814921 75.936407 196.755549 59.08518 Q 196.553792 57.427503 196.519257 55.459013 Q 196.468363 52.401763 196.551974 50.05157 Q 196.577421 49.33179 196.761002 48.402982 Z" style="fill:#62a095;"/>
		<path d="M 293.526048 48.455693 Q 293.642377 50.578682 293.646012 54.59564 Q 293.647829 57.247558 293.444255 59.097903 C 292.704481 65.81222 290.652379 72.490184 287.286132 78.372028 Q 284.157995 83.837634 279.995628 88.465314 Q 279.644826 88.856104 279.261306 89.168736 L 277.301903 85.924271 Q 278.67603 84.34657 279.430345 83.081501 Q 282.153152 78.51562 283.552725 72.761011 Q 284.007132 70.89249 284.388834 69.005792 Q 284.681472 67.562596 284.761448 65.926731 Q 285.063174 59.764973 284.403375 54.079433 Q 284.970475 52.578073 285.237666 51.031272 Q 289.370951 49.955236 293.526048 48.455693 Z" style="fill:#62a095;"/>
		<path d="M 285.237666 51.031272 Q 284.970475 52.578073 284.403375 54.079433 L 283.928974 51.363897 L 285.237666 51.031272 Z" style="fill:#a0c4b0;"/>
		<path d="M 207.584975 51.567472 Q 205.500156 61.439008 207.417753 71.21421 Q 208.853679 78.526526 213.034222 84.573773 Q 213.145098 84.733725 213.096022 84.922758 L 213.008776 85.262654 Q 212.954247 85.473499 212.812472 85.308095 C 211.471063 83.717671 210.32414 81.700104 209.378973 79.827948 Q 208.611934 78.306593 208.083005 76.785239 Q 206.216301 71.412331 205.870952 66.001253 Q 205.714636 63.563815 205.718271 60.232103 Q 205.723724 56.649559 206.619814 51.313004 L 207.584975 51.567472 Z" style="fill:#71898a;"/>
		<path d="M 283.928974 51.363897 L 284.403375 54.079433 Q 285.063174 59.764973 284.761448 65.926731 Q 284.681472 67.562596 284.388834 69.005792 Q 284.007132 70.89249 283.552725 72.761011 Q 282.153152 78.51562 279.430345 83.081501 Q 278.67603 84.34657 277.301903 85.924271 L 277.00563 85.477134 Q 277.88718 84.177531 278.497902 82.737969 Q 278.99775 82.183593 279.226771 81.743727 Q 282.249486 75.954583 283.281899 69.583798 C 283.903527 65.750421 284.101649 62.006108 283.841728 57.992786 Q 283.76357 56.800422 283.554543 55.986125 Q 283.616342 55.38449 283.572719 54.959165 Q 283.420038 53.457805 282.992896 51.572925 L 283.928974 51.363897 Z" style="fill:#71898a;"/>
		<path d="M 282.992896 51.572925 Q 283.420038 53.457805 283.572719 54.959165 Q 283.616342 55.38449 283.554543 55.986125 Q 282.885656 57.741953 282.66754 58.241801 Q 281.317043 61.342674 278.586966 65.021552 C 275.715114 68.891282 271.681798 71.186945 267.015948 72.295698 Q 266.559724 72.402938 266.503377 72.764646 Q 266.163481 74.945799 265.994441 75.809173 L 264.518528 75.269337 L 264.665755 74.736772 L 264.758455 74.722231 C 264.820254 74.711325 264.867512 74.665885 264.883871 74.607721 L 265.505499 72.21027 C 265.514588 72.175735 265.509135 72.139382 265.492776 72.108483 L 265.432794 71.99579 Q 265.498229 71.935808 265.572752 71.68134 Q 266.40159 68.789494 266.766933 66.350238 Q 267.019583 65.177868 267.228611 63.547456 Q 267.250422 63.372964 267.155905 63.334794 Q 267.19044 63.332976 267.223158 63.32207 Q 267.29768 63.294806 267.312221 63.216648 Q 267.859327 60.103051 267.92658 56.94765 Q 267.955662 55.557165 267.873868 54.139415 Q 267.86478 53.984917 267.746634 53.899488 L 267.813887 53.781342 L 267.85751 53.828601 Q 267.906586 53.883129 267.981108 53.883129 Q 268.517309 53.875859 269.049874 53.824965 Q 274.659073 53.294218 278.437921 52.561714 Q 279.430345 52.369046 282.992896 51.572925 Z" style="fill:#a0c4b0;"/>
		<path d="M 283.554543 55.986125 Q 283.76357 56.800422 283.841728 57.992786 C 284.101649 62.006108 283.903527 65.750421 283.281899 69.583798 Q 282.249486 75.954583 279.226771 81.743727 Q 278.99775 82.183593 278.497902 82.737969 C 278.00169 80.467752 277.272821 78.530161 274.65362 78.133918 C 273.688459 77.988508 272.988673 78.770088 272.541536 79.518951 Q 272.465196 79.646185 272.437932 79.904288 Q 272.401579 80.235096 272.272527 80.29326 Q 269.293436 77.728587 265.994441 75.809173 Q 266.163481 74.945799 266.503377 72.764646 Q 266.559724 72.402938 267.015948 72.295698 C 271.681798 71.186945 275.715114 68.891282 278.586966 65.021552 Q 281.317043 61.342674 282.66754 58.241801 Q 282.885656 57.741953 283.554543 55.986125 Z" style="fill:#62a095;"/>
		<path d="M 222.902123 63.073055 Q 222.464075 59.875848 222.355017 56.751346 L 244.05204 57.256646 Q 244.199267 57.260282 244.199267 57.40751 L 244.199267 61.035495 C 244.199267 61.075482 244.168368 61.106382 244.130198 61.106382 C 238.939053 61.119105 234.065993 61.598959 228.447706 62.313287 Q 224.968766 62.75497 222.902123 63.073055 Z" style="fill:#162933;"/>
		<path d="M 267.92658 56.94765 Q 267.859327 60.103051 267.312221 63.216648 Q 267.29768 63.294806 267.223158 63.32207 Q 267.19044 63.332976 267.155905 63.334794 Q 267.046848 63.302076 266.934155 63.285718 Q 259.96537 62.302381 254.485223 61.684388 Q 250.199256 61.200899 246.138676 61.117288 Q 246.024166 61.113653 246.024166 61.00096 L 246.024166 57.382063 C 246.024166 57.33844 246.060518 57.302087 246.105959 57.30027 L 267.92658 56.94765 Z" style="fill:#162933;"/>
		<path d="M 224.66704 71.806756 Q 224.639775 71.817662 224.610693 71.794033 Q 224.594335 71.779492 224.585247 71.748592 Q 223.92363 69.354777 223.503758 66.906432 Q 223.438324 66.528365 223.391065 66.141211 Q 229.979966 64.999741 233.384382 64.565328 C 237.046902 64.098197 240.494942 63.683778 244.092027 63.696501 Q 244.186544 63.696501 244.186544 63.792836 L 244.186544 67.94975 Q 244.186544 68.044267 244.092027 68.047902 Q 238.724573 68.260565 233.613404 69.476558 Q 229.116593 70.545323 224.66704 71.806756 Z" style="fill:#162933;"/>
		<path d="M 266.766933 66.350238 Q 266.40159 68.789494 265.572752 71.68134 Q 265.498229 71.935808 265.432794 71.99579 Q 258.551256 70.083645 255.077769 69.311154 Q 250.588229 68.313276 246.105959 68.051538 C 246.071424 68.04972 246.04416 68.020638 246.04416 67.986103 L 246.04416 63.825553 C 246.04416 63.752848 246.105959 63.692866 246.178664 63.696501 Q 250.361025 63.867359 254.948718 64.528975 Q 259.251043 65.148786 266.650605 66.295709 Q 266.686958 66.301162 266.766933 66.350238 Z" style="fill:#162933;"/>
		<path d="M 227.727925 79.626191 Q 227.689755 79.626191 227.658855 79.61165 Q 227.631591 79.598926 227.613414 79.562574 Q 226.866369 77.981238 226.12296 76.399902 L 225.666735 75.138468 L 225.530413 74.645891 Q 229.307443 73.551679 232.92634 72.526537 Q 237.203218 71.315997 241.512814 70.841596 Q 242.903299 70.688915 244.084757 70.679827 C 244.144739 70.679827 244.191997 70.727086 244.191997 70.787067 L 244.191997 74.936711 C 244.191997 74.963976 244.168368 74.987605 244.141103 74.987605 Q 236.97238 75.163915 230.458002 78.1939 Q 228.703991 79.010015 227.727925 79.626191 Z" style="fill:#162933;"/>
		<path d="M 264.665755 74.736772 L 264.518528 75.269337 L 264.236795 76.027288 Q 263.477027 77.986691 262.426438 79.824312 Q 262.368274 79.844306 262.302839 79.807954 Q 257.891457 77.29781 252.854811 75.992753 Q 249.274084 75.063945 246.124135 75.040316 Q 246.018713 75.040316 246.018713 74.936711 L 246.018713 70.745262 Q 246.018713 70.683462 246.080512 70.687098 C 249.921159 70.943383 253.609126 71.597729 257.306181 72.635595 Q 260.986877 73.669825 264.665755 74.736772 Z" style="fill:#162933;"/>
		<path d="M 225.666735 75.138468 L 226.12296 76.399902 Q 219.377743 79.922464 214.671905 85.886101 L 214.0321 86.762197 Q 212.945159 88.272646 212.125409 89.926687 Q 211.492874 89.524991 211.080273 89.00515 Q 212.939706 86.027876 215.071783 83.570443 Q 219.432272 78.544702 225.452255 75.487453 Q 225.532231 75.447465 225.537684 75.358401 Q 225.554042 75.122109 225.666735 75.138468 Z" style="fill:#efe9ce;"/>
		<path d="M 265.994441 75.809173 Q 269.293436 77.728587 272.272527 80.29326 Q 272.895974 80.958512 273.621207 81.627399 Q 274.828112 82.739787 276.723898 85.20449 Q 276.865673 85.389888 277.00563 85.477134 L 277.301903 85.924271 L 279.261306 89.168736 L 278.53062 89.913964 L 276.478518 86.814908 L 275.893242 86.060593 Q 275.169826 85.013639 274.848106 84.626485 Q 271.423695 80.498652 266.875991 77.652247 Q 265.572752 76.836132 264.236795 76.027288 L 264.518528 75.269337 L 265.994441 75.809173 Z" style="fill:#efe9ce;"/>
		<path d="M 264.236795 76.027288 Q 265.572752 76.836132 266.875991 77.652247 Q 271.423695 80.498652 274.848106 84.626485 Q 275.169826 85.013639 275.893242 86.060593 Q 275.282519 86.716757 274.717237 87.323844 C 271.452777 90.819142 267.548513 93.999991 263.22983 96.099351 Q 261.008689 97.179022 257.704241 98.553148 L 257.709694 87.316574 Q 258.316782 86.954866 258.384034 86.100581 Q 258.400393 85.889736 258.18773 85.875195 L 256.47189 85.766137 Q 258.860253 84.252053 260.868731 82.030912 Q 261.675758 81.176627 262.391903 80.087868 Q 262.431891 80.026069 262.426438 79.824312 Q 263.477027 77.986691 264.236795 76.027288 Z" style="fill:#a0c4b0;"/>
		<path d="M 226.12296 76.399902 Q 226.866369 77.981238 227.613414 79.562574 Q 227.631591 79.598926 227.658855 79.61165 Q 227.689755 79.626191 227.727925 79.626191 Q 227.700661 79.764331 227.737013 79.815224 Q 228.469517 80.82219 229.247462 81.740092 Q 231.170512 84.199342 233.967841 85.798855 L 232.13749 85.900642 Q 232.044791 85.906095 232.026615 85.998794 Q 231.89211 86.72948 232.335611 87.29658 L 232.346517 98.791258 C 231.508591 98.469537 230.607047 98.196893 229.845461 97.849726 Q 227.251707 96.666451 224.623417 94.861546 Q 218.957871 90.971823 214.671905 85.886101 Q 219.377743 79.922464 226.12296 76.399902 Z" style="fill:#62a095;"/>
		<path d="M 233.967841 85.798855 Q 231.170512 84.199342 229.247462 81.740092 Q 231.464968 80.609527 233.591592 79.782507 Q 238.651868 77.814016 244.081122 77.635888 Q 244.182909 77.632253 244.182909 77.73404 L 244.182909 88.103607 C 244.182909 88.159953 244.137468 88.203576 244.081122 88.201758 Q 241.532808 88.121783 239.033569 87.634659 Q 236.479802 87.136629 233.967841 85.798855 Z" style="fill:#162933;"/>
		<path d="M 260.868731 82.030912 Q 258.860253 84.252053 256.47189 85.766137 C 255.419483 86.229632 254.51794 86.702216 253.300129 87.091188 C 251.008101 87.821874 248.54158 88.138141 246.105959 88.167223 Q 246.022348 88.167223 246.022348 88.083613 L 246.022348 77.815834 Q 246.022348 77.670423 246.167758 77.675876 C 250.490077 77.846733 254.819666 79.084538 258.865705 80.940336 Q 260.158039 81.532882 260.868731 82.030912 Z" style="fill:#162933;"/>
		<path d="M 278.497902 82.737969 Q 277.88718 84.177531 277.00563 85.477134 Q 276.865673 85.389888 276.723898 85.20449 Q 274.828112 82.739787 273.621207 81.627399 Q 272.895974 80.958512 272.272527 80.29326 Q 272.401579 80.235096 272.437932 79.904288 Q 272.465196 79.646185 272.541536 79.518951 C 272.988673 78.770088 273.688459 77.988508 274.65362 78.133918 C 277.272821 78.530161 278.00169 80.467752 278.497902 82.737969 Z" style="fill:#a0c4b0;"/>
		<path d="M 232.346517 98.791258 L 232.322888 99.832758 Q 228.662186 98.674929 225.672188 96.768238 Q 219.948478 93.112989 215.209923 87.872768 Q 214.771875 87.389279 214.0321 86.762197 L 214.671905 85.886101 Q 218.957871 90.971823 224.623417 94.861546 Q 227.251707 96.666451 229.845461 97.849726 C 230.607047 98.196893 231.508591 98.469537 232.346517 98.791258 Z" style="fill:#71898a;"/>
		<path d="M 275.893242 86.060593 L 276.478518 86.814908 Q 272.877798 90.875489 268.544573 93.912745 Q 267.159541 94.883358 265.732703 95.844883 Q 265.37463 95.963029 265.002017 96.139339 Q 262.255581 97.453484 259.525504 98.805799 Q 258.920234 99.105707 257.678795 99.360175 L 257.704241 98.553148 Q 261.008689 97.179022 263.22983 96.099351 C 267.548513 93.999991 271.452777 90.819142 274.717237 87.323844 Q 275.282519 86.716757 275.893242 86.060593 Z" style="fill:#71898a;"/>
		<path d="M 214.0321 86.762197 Q 214.771875 87.389279 215.209923 87.872768 Q 219.948478 93.112989 225.672188 96.768238 Q 228.662186 98.674929 232.322888 99.832758 L 232.337429 101.60131 Q 231.063272 101.395918 229.93816 101.00331 Q 226.468309 99.79277 223.222026 98.064206 Q 217.062086 94.783388 212.125409 89.926687 Q 212.945159 88.272646 214.0321 86.762197 Z" style="fill:#62a095;"/>
		<path d="M 278.53062 89.913964 Q 275.584245 92.687664 272.514272 94.934251 Q 269.800554 96.920919 266.448848 98.442273 Q 266.736033 97.017253 265.732703 95.844883 Q 267.159541 94.883358 268.544573 93.912745 Q 272.877798 90.875489 276.478518 86.814908 L 278.53062 89.913964 Z" style="fill:#a0c4b0;"/>
		<path d="M 237.981163 88.899727 L 237.973892 97.015435 Q 235.136576 98.265963 235.780016 101.3941 Q 236.165353 103.266257 237.97571 103.766105 Q 237.962987 118.852415 237.959351 133.958719 Q 237.959351 133.969624 237.930269 135.1838 Q 237.90664 136.178042 238.037509 137.126844 Q 235.69277 137.117756 234.902102 137.141385 C 233.813343 137.174102 232.808194 136.630631 232.457392 135.609125 Q 232.350152 135.296493 232.350152 134.34042 Q 232.339246 117.954507 232.337429 101.60131 L 232.322888 99.832758 L 232.346517 98.791258 L 232.335611 87.29658 Q 233.09538 87.352926 233.902406 87.363832 C 234.135063 87.367467 234.465871 87.427449 234.709433 87.554683 Q 236.294404 88.381704 237.981163 88.899727 Z" style="fill:#162933;"/>
		<path d="M 257.709694 87.316574 L 257.704241 98.553148 L 257.678795 99.360175 L 257.65153 101.497705 Q 257.633354 118.04357 257.633354 134.6167 C 257.633354 135.009307 257.666071 135.340116 257.498849 135.670924 Q 256.76271 137.125026 255.12321 137.123208 Q 250.046576 137.119573 244.686392 137.13775 L 244.682756 103.758834 Q 248.205319 103.755199 251.6679 103.713393 Q 252.794829 103.698852 253.509157 102.871832 C 254.717879 101.472258 254.692432 99.307464 253.52188 97.915161 Q 252.622154 96.844578 250.986289 96.811861 Q 246.182299 96.72098 241.122024 96.806408 L 241.065677 89.550438 C 245.707898 90.257495 250.797256 89.870341 254.974164 87.872768 Q 255.726662 87.512878 256.299215 87.423814 Q 256.991731 87.314756 257.709694 87.316574 Z" style="fill:#162933;"/>
		<path d="M 241.065677 89.550438 L 241.122024 96.806408 Q 240.429507 96.833672 239.484341 96.848213 Q 238.740931 96.860937 237.973892 97.015435 L 237.981163 88.899727 L 241.065677 89.550438 Z" style="fill:#71898a;"/>
		<path d="M 265.732703 95.844883 Q 266.736033 97.017253 266.448848 98.442273 Q 263.218924 99.934545 259.507328 101.106915 Q 258.547621 101.410459 257.65153 101.497705 L 257.678795 99.360175 Q 258.920234 99.105707 259.525504 98.805799 Q 262.255581 97.453484 265.002017 96.139339 Q 265.37463 95.963029 265.732703 95.844883 Z" style="fill:#62a095;"/>
		<path d="M 244.682756 103.758834 L 237.97571 103.766105 Q 236.165353 103.266257 235.780016 101.3941 Q 235.136576 98.265963 237.973892 97.015435 Q 238.740931 96.860937 239.484341 96.848213 Q 240.429507 96.833672 241.122024 96.806408 Q 246.182299 96.72098 250.986289 96.811861 Q 252.622154 96.844578 253.52188 97.915161 C 254.692432 99.307464 254.717879 101.472258 253.509157 102.871832 Q 252.794829 103.698852 251.6679 103.713393 Q 248.205319 103.755199 244.682756 103.758834 Z" style="fill:#efe9ce;"/>
		<path d="M 244.682756 103.758834 L 244.686392 137.13775 L 238.037509 137.126844 Q 237.90664 136.178042 237.930269 135.1838 Q 237.959351 133.969624 237.959351 133.958719 Q 237.962987 118.852415 237.97571 103.766105 L 244.682756 103.758834 Z" style="fill:#71898a;"/>
		<path d="M 243.581274 138.468253 Q 243.486757 138.530052 243.486757 138.588216 Q 243.457675 142.826924 243.521292 147.061997 C 243.52311 147.145608 243.590362 147.21286 243.675791 147.21286 L 245.876938 147.21286 C 245.958731 147.21286 246.025983 147.145608 246.027801 147.063814 Q 246.055065 142.863277 245.993266 138.611846 Q 245.991448 138.426448 245.707898 138.444624 L 252.294981 138.420995 C 252.329516 138.420995 252.358598 138.450077 252.358598 138.484612 L 252.358598 147.154696 C 252.358598 147.169237 252.371322 147.18196 252.385863 147.18196 Q 258.105937 147.169237 263.836917 147.185596 C 264.909318 147.189231 265.72725 147.403711 266.247092 148.403406 Q 266.352514 148.605163 266.677869 148.605163 Q 269.435211 148.610616 288.81294 148.596075 Q 288.907456 148.596075 288.907456 148.690591 L 288.907456 151.20437 C 288.907456 151.286164 288.832934 151.347963 288.75114 151.33524 Q 288.362168 151.271623 287.929573 151.264352 Q 285.624821 151.224364 269.38977 151.264352 Q 267.035942 151.269805 266.11077 151.287981 C 265.909013 151.291617 265.869025 151.346145 265.749062 151.460656 C 265.705439 151.502461 265.649092 151.526091 265.590928 151.531543 Q 264.963846 151.575166 264.814801 151.575166 Q 244.682756 151.662413 227.947858 151.589708 Q 227.735195 151.589708 225.812145 151.633331 C 224.961496 151.653324 224.059952 151.55699 223.645533 150.760869 C 222.971193 149.470354 223.325631 148.061692 224.617964 147.403711 Q 225.037836 147.189231 226.05389 147.187413 Q 232.524645 147.171055 237.741236 147.17469 Q 237.797583 147.17469 237.797583 147.118343 L 237.797583 138.471888 C 237.797583 138.437353 237.824847 138.410089 237.857564 138.411907 L 243.581274 138.468253 Z" style="fill:#162933;"/>
		<path d="M 245.707898 138.444624 Q 245.991448 138.426448 245.993266 138.611846 Q 246.055065 142.863277 246.027801 147.063814 C 246.025983 147.145608 245.958731 147.21286 245.876938 147.21286 L 243.675791 147.21286 C 243.590362 147.21286 243.52311 147.145608 243.521292 147.061997 Q 243.457675 142.826924 243.486757 138.588216 Q 243.486757 138.530052 243.581274 138.468253 L 245.707898 138.444624 Z" style="fill:#71898a;"/>
	</g>
	<g id="surface4">
	</g>
</svg>
