<?xml version="1.0" encoding="utf-8"?>
<svg xmlns="http://www.w3.org/2000/svg" width="490pt" height="280pt" viewBox="0 0 490 280" version="1.1" xmlns:xlink="http://www.w3.org/1999/xlink">
	<g id="surface2">
		<path vector-effect="non-scaling-stroke" d="M 319.92548 68.128651 L 319.966141 68.325854" style="fill:none;stroke-width:0.50;stroke:#828181;"/>
		<path vector-effect="non-scaling-stroke" d="M 319.984438 68.415307 L 320.000702 68.673501" style="fill:none;stroke-width:0.50;stroke:#828181;"/>
		<path vector-effect="non-scaling-stroke" d="M 320.395108 72.038153 L 320.409339 72.194696" style="fill:none;stroke-width:0.50;stroke:#828181;"/>
		<path vector-effect="non-scaling-stroke" d="M 320.500825 73.465335 L 320.519123 73.804849" style="fill:none;stroke-width:0.50;stroke:#828181;"/>
		<path vector-effect="non-scaling-stroke" d="M 320.553684 74.126067 L 320.567915 74.618058" style="fill:none;stroke-width:0.50;stroke:#828181;"/>
		<path vector-effect="non-scaling-stroke" d="M 320.602477 75.295055 L 320.612642 75.854136" style="fill:none;stroke-width:0.50;stroke:#828181;"/>
		<path vector-effect="non-scaling-stroke" d="M 320.612642 81.444947 L 320.606543 81.888146" style="fill:none;stroke-width:0.50;stroke:#828181;"/>
		<path vector-effect="non-scaling-stroke" d="M 319.795367 89.320876 L 319.768937 89.609565" style="fill:none;stroke-width:0.50;stroke:#828181;"/>
		<path vector-effect="non-scaling-stroke" d="M 319.768937 89.609565 L 319.701848 89.816933" style="fill:none;stroke-width:0.50;stroke:#828181;"/>
		<path vector-effect="non-scaling-stroke" d="M 318.16285 96.891851 Q 318.175048 96.960974 318.144552 97.040262" style="fill:none;stroke-width:0.50;stroke:#828181;"/>
		<path vector-effect="non-scaling-stroke" d="M 318.144552 97.040262 L 318.09576 97.192738" style="fill:none;stroke-width:0.50;stroke:#828181;"/>
		<path vector-effect="non-scaling-stroke" d="M 315.767949 104.420133 Q 315.717124 104.452661 315.698827 104.554312" style="fill:none;stroke-width:0.50;stroke:#828181;"/>
		<path vector-effect="non-scaling-stroke" d="M 297.47888 131.658566 Q 297.413824 131.687029 297.367064 131.748019" style="fill:none;stroke-width:0.50;stroke:#828181;"/>
		<path vector-effect="non-scaling-stroke" d="M 296.267199 132.758431 Q 296.102524 132.860083 295.980543 133.018658" style="fill:none;stroke-width:0.50;stroke:#828181;"/>
		<path vector-effect="non-scaling-stroke" d="M 293.398604 135.254983 Q 293.209533 135.318007 293.170906 135.450153" style="fill:none;stroke-width:0.50;stroke:#828181;"/>
		<path vector-effect="non-scaling-stroke" d="M 290.090877 137.737303 Q 289.899773 137.806426 289.794056 137.960936" style="fill:none;stroke-width:0.50;stroke:#828181;"/>
		<path vector-effect="non-scaling-stroke" d="M 283.229427 142.116433 Q 283.068818 142.142863 282.954969 142.260778" style="fill:none;stroke-width:0.50;stroke:#828181;"/>
		<path vector-effect="non-scaling-stroke" d="M 264.226767 149.711805 L 263.801865 149.831753" style="fill:none;stroke-width:0.50;stroke:#828181;"/>
		<path vector-effect="non-scaling-stroke" d="M 255.438011 151.37685 Q 255.214379 151.372784 255.011076 151.466303" style="fill:none;stroke-width:0.50;stroke:#828181;"/>
		<path vector-effect="non-scaling-stroke" d="M 253.689612 151.630978 L 253.384659 151.665539" style="fill:none;stroke-width:0.50;stroke:#828181;"/>
		<path vector-effect="non-scaling-stroke" d="M 251.829397 151.781422 L 251.04465 151.870875" style="fill:none;stroke-width:0.50;stroke:#828181;"/>
		<path vector-effect="non-scaling-stroke" d="M 248.611122 151.98879 L 245.657141 152.05588" style="fill:none;stroke-width:0.50;stroke:#828181;"/>
		<path vector-effect="non-scaling-stroke" d="M 245.209876 152.061979 L 245.049267 152.066045" style="fill:none;stroke-width:0.50;stroke:#828181;"/>
		<path vector-effect="non-scaling-stroke" d="M 244.992342 152.066045 L 241.965172 152.013186" style="fill:none;stroke-width:0.50;stroke:#828181;"/>
		<path vector-effect="non-scaling-stroke" d="M 239.305979 151.874941 L 239.015257 151.844445" style="fill:none;stroke-width:0.50;stroke:#828181;"/>
		<path vector-effect="non-scaling-stroke" d="M 235.138283 151.456138 L 234.493815 151.374817" style="fill:none;stroke-width:0.50;stroke:#828181;"/>
		<path vector-effect="non-scaling-stroke" d="M 230.063859 150.622599 Q 230.004902 150.651061 229.919515 150.6165" style="fill:none;stroke-width:0.50;stroke:#828181;"/>
		<path vector-effect="non-scaling-stroke" d="M 226.400353 149.819555 Q 226.245843 149.825654 226.26414 149.774829" style="fill:none;stroke-width:0.50;stroke:#828181;"/>
		<path vector-effect="non-scaling-stroke" d="M 173.145333 102.868937 Q 173.108738 102.807946 173.110771 102.73679" style="fill:none;stroke-width:0.50;stroke:#828181;"/>
		<path vector-effect="non-scaling-stroke" d="M 169.211434 85.342251 L 169.201269 85.187742" style="fill:none;stroke-width:0.50;stroke:#828181;"/>
		<path vector-effect="non-scaling-stroke" d="M 169.004066 82.904657 L 169 82.394369" style="fill:none;stroke-width:0.50;stroke:#828181;"/>
		<path vector-effect="non-scaling-stroke" d="M 169.004066 74.211454 L 169.006099 73.871939" style="fill:none;stroke-width:0.50;stroke:#828181;"/>
		<path vector-effect="non-scaling-stroke" d="M 243.197184 31.221163 C 238.47244 32.400316 234.627994 35.525072 232.814538 40.066844 Q 232.251391 41.477761 232.245292 41.489959 C 231.905777 42.152724 231.958636 42.845985 232.361175 43.441661 C 232.527882 43.689689 232.987345 43.964147 233.068666 44.281299 Q 234.43689 49.711502 234.959377 54.515533 C 235.642473 60.799605 235.805114 66.37212 236.057209 73.662538 C 236.099903 74.927078 236.230016 76.197717 236.498375 77.340275 Q 238.452109 85.647205 239.663791 91.60396 Q 241.45895 100.413046 242.652334 109.010697 Q 242.823108 110.228478 243.237844 110.628983 Q 243.313066 110.702172 243.294769 110.805856 Q 243.223613 111.188064 243.223613 111.423895 Q 243.213448 123.835496 243.178886 133.22806 C 243.170754 135.423724 241.859455 137.186354 239.629229 137.493341 C 236.744371 137.887747 233.410214 137.477076 233.288233 133.750546 C 233.235374 132.107864 233.0646 129.314492 235.233835 128.972944 C 236.604092 128.757443 237.370542 130.074842 237.366476 131.245863 C 237.364443 131.920826 237.417301 132.72387 237.110315 133.37647 Q 236.976135 133.65906 237.27499 133.565541 Q 238.549695 133.16097 239.938249 133.687523 C 239.989074 133.70582 240.043966 133.675325 240.054131 133.622466 C 240.36925 132.034675 240.387547 130.391993 239.73698 128.828599 C 238.927837 126.880964 237.171305 125.724174 235.04883 125.844122 C 233.707035 125.921377 232.412 126.547548 231.578461 127.582357 C 230.226501 129.261633 230.181775 131.347514 230.21227 133.541145 C 230.267161 137.613289 232.623434 140.325341 236.722007 140.662822 C 240.727061 140.994205 244.644696 139.823184 245.827915 135.55587 Q 246.195892 134.228307 246.197925 133.284984 Q 246.20809 125.364329 246.191826 112.440406 Q 246.189793 111.198229 246.090174 110.864814 Q 246.059679 110.767229 246.141 110.706238 Q 246.710246 110.273204 246.787501 109.547415 Q 247.334384 104.407935 248.27364 99.138341 Q 249.613402 91.620224 251.229655 84.451787 C 252.093689 80.61954 252.774752 77.976611 253.140696 75.461763 Q 253.222017 74.900648 253.252512 74.142331 C 253.480211 68.189642 253.703843 62.139367 254.240561 56.357452 Q 254.781345 50.555206 256.094677 44.746861 C 256.173965 44.391082 256.243088 43.974312 256.505348 43.77101 C 257.359217 43.108245 257.56252 42.22388 257.090858 41.245996 C 256.792004 40.627958 256.489084 39.739527 256.196329 39.166215 Q 253.032946 33.012256 246.20809 31.208965 Q 246.092207 31.17847 246.090174 31.056488 Q 246.061712 29.58458 246.057646 28.1513 Q 246.05358 25.788928 246.157264 25.250177 Q 246.482548 23.568867 247.848739 22.438507 C 249.963082 20.688075 252.593813 21.527713 254.136877 23.499744 Q 255.401417 25.11803 256.00929 27.069732 Q 256.206494 27.699969 256.521612 28.873022 C 256.535843 28.925881 256.590735 28.956376 256.643593 28.940112 L 259.136079 28.177729 C 259.241796 28.1452 259.302787 28.03745 259.27839 27.9297 Q 258.863654 26.138607 258.066709 24.420704 Q 257.684501 23.599363 257.540156 23.237485 Q 257.503562 23.139899 257.584883 23.076876 Q 261.431361 20.137125 262.685736 15.459141 Q 262.750793 15.213145 262.514962 15.113527 L 260.382322 14.218997 C 260.274571 14.174271 260.15259 14.231196 260.115996 14.340979 C 259.260093 16.892422 258.050445 19.012864 255.883243 20.696207 Q 255.81412 20.749065 255.749064 20.694174 Q 253.89698 19.157209 252.183142 18.736373 C 247.527521 17.591781 243.386255 21.084514 243.321198 25.784862 Q 243.290703 27.793488 243.300868 31.089017 Q 243.300868 31.194734 243.197184 31.221163" style="fill:none;stroke-width:0.50;stroke:#828181;"/>
		<path vector-effect="non-scaling-stroke" d="M 245.982424 80.627672 Q 245.958028 80.499592 246.002754 80.418271" style="fill:none;stroke-width:0.50;stroke:#828181;"/>
		<path vector-effect="non-scaling-stroke" d="M 246.197925 79.763638 Q 246.954209 76.866581 247.362846 74.333435 Q 248.302103 68.539322 248.822556 62.999336 Q 249.308449 57.843591 249.731317 52.75087 Q 249.830936 51.535123 250.070832 49.355723 Q 250.359521 46.741256 250.436776 45.972773 Q 250.469305 45.665787 250.475404 44.7123 C 250.475404 44.649276 250.424578 44.59845 250.361554 44.59845 L 246.260948 44.59845 C 246.22842 44.59845 246.204024 44.622847 246.201991 44.655375 Q 246.18166 45.34457 246.187759 45.503145 Q 246.657388 56.164314 246.368698 66.046836 Q 246.145066 73.751991 245.659174 81.670613 Q 245.628678 82.158538 245.728296 81.670613 Q 245.752693 81.550665 245.819782 81.27214" style="fill:none;stroke-width:0.50;stroke:#828181;"/>
		<path d="M 319.92548 68.128651 L 319.966141 68.325854 L 319.984438 68.415307 L 320.000702 68.673501 L 320.395108 72.038153 L 320.409339 72.194696 L 320.500825 73.465335 L 320.519123 73.804849 L 320.553684 74.126067 L 320.567915 74.618058 L 320.602477 75.295055 L 320.612642 75.854136 L 320.612642 81.444947 L 320.606543 81.888146 Q 320.472363 82.924988 320.433736 83.969961 Q 320.399174 84.882788 320.34225 85.193841 C 320.230433 85.791549 320.256863 86.415687 320.112518 87.033726 C 320.000702 87.519618 320.010867 88.040072 319.92548 88.485304 Q 319.844159 88.902073 319.795367 89.320876 L 319.768937 89.609565 L 319.701848 89.816933 L 318.16285 96.891851 Q 318.175048 96.960974 318.144552 97.040262 L 318.09576 97.192738 L 315.767949 104.420133 Q 315.717124 104.452661 315.698827 104.554312 C 315.341015 105.314663 315.040127 106.223424 314.757537 106.873991 Q 308.61781 120.991298 297.47888 131.658566 Q 297.413824 131.687029 297.367064 131.748019 L 296.267199 132.758431 Q 296.102524 132.860083 295.980543 133.018658 L 293.398604 135.254983 Q 293.209533 135.318007 293.170906 135.450153 L 290.090877 137.737303 Q 289.899773 137.806426 289.794056 137.960936 Q 286.592046 140.160666 283.229427 142.116433 Q 283.068818 142.142863 282.954969 142.260778 Q 279.285363 144.301932 275.416522 145.938515 C 275.140031 146.056431 274.548421 146.194676 274.162147 146.402044 Q 273.842962 146.572818 273.678288 146.633809 Q 269.821644 148.065057 269.297125 148.223632 Q 267.796754 148.676996 267.294598 148.82744 Q 265.7556 149.286903 264.226767 149.711805 L 263.801865 149.831753 Q 262.616613 150.102145 261.427295 150.376603 Q 259.835439 150.74458 257.525925 151.067831 Q 257.460868 151.077996 256.690353 151.218274 C 256.253253 151.297562 255.869012 151.238605 255.438011 151.37685 Q 255.214379 151.372784 255.011076 151.466303 Q 254.291387 151.413445 253.689612 151.630978 L 253.384659 151.665539 L 251.829397 151.781422 L 251.04465 151.870875 L 248.611122 151.98879 L 245.657141 152.05588 L 245.209876 152.061979 L 245.049267 152.066045 Q 245.020805 152.066045 244.992342 152.066045 L 241.965172 152.013186 L 239.305979 151.874941 L 239.015257 151.844445 L 235.138283 151.456138 L 234.493815 151.374817 L 230.063859 150.622599 Q 230.004902 150.651061 229.919515 150.6165 L 226.400353 149.819555 Q 226.245843 149.825654 226.26414 149.774829 Q 225.798578 149.642682 225.326917 149.498337 C 224.308373 149.191351 223.295928 149.026676 222.305846 148.63227 C 221.779293 148.422869 221.130759 148.388307 220.602173 148.168741 Q 219.681214 147.788566 219.083506 147.634056 Q 218.361783 147.447018 217.839296 147.196956 C 217.211092 146.898102 216.34909 146.723262 215.653797 146.395945 Q 214.897513 146.042199 214.710474 145.981209 C 214.023313 145.75351 213.559784 145.422128 212.838061 145.163934 Q 212.480249 145.037886 212.063479 144.834584 Q 207.324504 142.535236 206.23887 141.87857 Q 205.183732 141.242234 204.768995 140.996238 Q 200.556573 138.503753 196.386844 135.236686 Q 195.709848 134.7081 193.843533 133.075583 Q 192.326898 131.750052 191.371378 130.831126 Q 179.067527 118.990804 173.145333 102.868937 Q 173.108738 102.807946 173.110771 102.73679 Q 170.486139 95.281697 169.459463 87.452528 C 169.386274 86.907678 169.380175 86.045677 169.211434 85.342251 L 169.201269 85.187742 L 169.004066 82.904657 L 169 82.394369 L 169.004066 74.211454 L 169.006099 73.871939 Q 169.111816 73.221372 169.197203 72.084912 Q 169.605841 66.54696 170.595923 62.27558 Q 170.996428 60.543445 171.134673 59.994529 Q 173.745074 49.58952 179.39281 40.268113 Q 181.456328 36.8628 184.717296 32.625982 Q 185.483745 31.627768 186.138378 30.899946 C 186.762516 30.204652 187.325663 29.466665 188.083981 28.645324 Q 191.694628 24.733789 195.858258 21.41183 Q 204.285136 14.690659 213.813912 10.602251 Q 221.256806 7.408373 228.81965 5.74536 Q 231.983032 5.050067 234.993938 4.690222 Q 235.585548 4.619066 237.211966 4.423896 Q 238.437878 4.275485 239.157568 4.283617 C 240.125287 4.295815 240.806349 4.104711 241.757804 4.09048 Q 244.961847 4.039655 248.092701 4.094546 C 248.716839 4.104711 249.440595 4.320212 249.987478 4.291749 Q 251.130037 4.236858 251.990005 4.41983 C 252.378313 4.503184 252.667002 4.484886 253.169158 4.495052 Q 253.415154 4.501151 254.010829 4.637363 C 254.384906 4.72275 254.785411 4.684123 255.151355 4.739014 C 256.653759 4.96468 257.816647 5.20051 258.80063 5.289963 C 259.111683 5.318426 259.298721 5.466836 259.536584 5.487166 Q 260.006212 5.531893 260.713704 5.698601 Q 262.191711 6.048281 263.923846 6.416258 C 264.173908 6.469116 264.438201 6.59923 264.680131 6.658187 C 268.435123 7.560849 272.173851 8.937205 275.84549 10.47417 Q 277.793125 11.287379 279.537458 12.169711 Q 284.821283 14.845168 289.604985 18.185424 Q 290.33484 18.69368 292.630122 20.47664 C 296.356652 23.371664 299.827021 26.709887 302.7993 30.100968 Q 305.590639 33.288747 308.259998 37.269405 Q 312.988808 44.323992 315.971252 52.460148 Q 315.975318 52.46828 316.203016 53.214399 C 316.304667 53.543749 316.534399 53.94832 316.640116 54.304099 Q 316.953201 55.363304 317.164636 55.983375 C 317.563108 57.154396 317.729816 58.028596 318.061199 58.953621 Q 318.2706 59.533033 318.384449 60.142939 Q 318.51253 60.809771 318.847978 62.18816 C 319.329805 64.154092 319.632725 66.140355 319.92548 68.128651 Z M 243.197184 31.221163 C 238.47244 32.400316 234.627994 35.525072 232.814538 40.066844 Q 232.251391 41.477761 232.245292 41.489959 C 231.905777 42.152724 231.958636 42.845985 232.361175 43.441661 C 232.527882 43.689689 232.987345 43.964147 233.068666 44.281299 Q 234.43689 49.711502 234.959377 54.515533 C 235.642473 60.799605 235.805114 66.37212 236.057209 73.662538 C 236.099903 74.927078 236.230016 76.197717 236.498375 77.340275 Q 238.452109 85.647205 239.663791 91.60396 Q 241.45895 100.413046 242.652334 109.010697 Q 242.823108 110.228478 243.237844 110.628983 Q 243.313066 110.702172 243.294769 110.805856 Q 243.223613 111.188064 243.223613 111.423895 Q 243.213448 123.835496 243.178886 133.22806 C 243.170754 135.423724 241.859455 137.186354 239.629229 137.493341 C 236.744371 137.887747 233.410214 137.477076 233.288233 133.750546 C 233.235374 132.107864 233.0646 129.314492 235.233835 128.972944 C 236.604092 128.757443 237.370542 130.074842 237.366476 131.245863 C 237.364443 131.920826 237.417301 132.72387 237.110315 133.37647 Q 236.976135 133.65906 237.27499 133.565541 Q 238.549695 133.16097 239.938249 133.687523 C 239.989074 133.70582 240.043966 133.675325 240.054131 133.622466 C 240.36925 132.034675 240.387547 130.391993 239.73698 128.828599 C 238.927837 126.880964 237.171305 125.724174 235.04883 125.844122 C 233.707035 125.921377 232.412 126.547548 231.578461 127.582357 C 230.226501 129.261633 230.181775 131.347514 230.21227 133.541145 C 230.267161 137.613289 232.623434 140.325341 236.722007 140.662822 C 240.727061 140.994205 244.644696 139.823184 245.827915 135.55587 Q 246.195892 134.228307 246.197925 133.284984 Q 246.20809 125.364329 246.191826 112.440406 Q 246.189793 111.198229 246.090174 110.864814 Q 246.059679 110.767229 246.141 110.706238 Q 246.710246 110.273204 246.787501 109.547415 Q 247.334384 104.407935 248.27364 99.138341 Q 249.613402 91.620224 251.229655 84.451787 C 252.093689 80.61954 252.774752 77.976611 253.140696 75.461763 Q 253.222017 74.900648 253.252512 74.142331 C 253.480211 68.189642 253.703843 62.139367 254.240561 56.357452 Q 254.781345 50.555206 256.094677 44.746861 C 256.173965 44.391082 256.243088 43.974312 256.505348 43.77101 C 257.359217 43.108245 257.56252 42.22388 257.090858 41.245996 C 256.792004 40.627958 256.489084 39.739527 256.196329 39.166215 Q 253.032946 33.012256 246.20809 31.208965 Q 246.092207 31.17847 246.090174 31.056488 Q 246.061712 29.58458 246.057646 28.1513 Q 246.05358 25.788928 246.157264 25.250177 Q 246.482548 23.568867 247.848739 22.438507 C 249.963082 20.688075 252.593813 21.527713 254.136877 23.499744 Q 255.401417 25.11803 256.00929 27.069732 Q 256.206494 27.699969 256.521612 28.873022 C 256.535843 28.925881 256.590735 28.956376 256.643593 28.940112 L 259.136079 28.177729 C 259.241796 28.1452 259.302787 28.03745 259.27839 27.9297 Q 258.863654 26.138607 258.066709 24.420704 Q 257.684501 23.599363 257.540156 23.237485 Q 257.503562 23.139899 257.584883 23.076876 Q 261.431361 20.137125 262.685736 15.459141 Q 262.750793 15.213145 262.514962 15.113527 L 260.382322 14.218997 C 260.274571 14.174271 260.15259 14.231196 260.115996 14.340979 C 259.260093 16.892422 258.050445 19.012864 255.883243 20.696207 Q 255.81412 20.749065 255.749064 20.694174 Q 253.89698 19.157209 252.183142 18.736373 C 247.527521 17.591781 243.386255 21.084514 243.321198 25.784862 Q 243.290703 27.793488 243.300868 31.089017 Q 243.300868 31.194734 243.197184 31.221163 Z" style="fill:#ffffff;"/>
		<path d="M 319.966141 68.325854 L 319.92548 68.128651 Q 319.978339 68.20184 319.966141 68.325854 Z" style="fill:#040303;"/>
		<path d="M 320.000702 68.673501 L 319.984438 68.415307 Q 320.029164 68.512892 320.000702 68.673501 Z" style="fill:#040303;"/>
		<path d="M 320.409339 72.194696 L 320.395108 72.038153 Q 320.415438 72.109309 320.409339 72.194696 Z" style="fill:#040303;"/>
		<path d="M 320.519123 73.804849 L 320.500825 73.465335 L 320.519123 73.804849 Z" style="fill:#040303;"/>
		<path d="M 169.006099 73.871939 L 169.004066 74.211454 L 169.006099 73.871939 Z" style="fill:#040303;"/>
		<path d="M 320.567915 74.618058 L 320.553684 74.126067 L 320.567915 74.618058 Z" style="fill:#040303;"/>
		<path d="M 320.612642 75.854136 L 320.602477 75.295055 L 320.612642 75.854136 Z" style="fill:#040303;"/>
		<path d="M 320.612642 81.444947 L 320.606543 81.888146 L 320.612642 81.444947 Z" style="fill:#040303;"/>
		<path d="M 169.004066 82.904657 L 169 82.394369 L 169.004066 82.904657 Z" style="fill:#040303;"/>
		<path d="M 169.211434 85.342251 Q 169.189071 85.269062 169.201269 85.187742 L 169.211434 85.342251 Z" style="fill:#040303;"/>
		<path d="M 319.795367 89.320876 Q 319.819763 89.487584 319.768937 89.609565 L 319.795367 89.320876 Z" style="fill:#040303;"/>
		<path d="M 319.768937 89.609565 Q 319.783168 89.792537 319.701848 89.816933 L 319.768937 89.609565 Z" style="fill:#040303;"/>
		<path d="M 318.16285 96.891851 Q 318.189279 96.967073 318.144552 97.040262 Q 318.175048 96.960974 318.16285 96.891851 Z" style="fill:#040303;"/>
		<path d="M 318.144552 97.040262 Q 318.144552 97.150045 318.09576 97.192738 L 318.144552 97.040262 Z" style="fill:#040303;"/>
		<path d="M 173.145333 102.868937 Q 173.082309 102.842508 173.110771 102.73679 Q 173.108738 102.807946 173.145333 102.868937 Z" style="fill:#040303;"/>
		<path d="M 315.767949 104.420133 L 315.698827 104.554312 Q 315.717124 104.452661 315.767949 104.420133 Z" style="fill:#040303;"/>
		<path d="M 297.47888 131.658566 Q 297.462616 131.72159 297.367064 131.748019 Q 297.413824 131.687029 297.47888 131.658566 Z" style="fill:#040303;"/>
		<path d="M 296.267199 132.758431 Q 296.179779 132.955635 295.980543 133.018658 Q 296.102524 132.860083 296.267199 132.758431 Z" style="fill:#040303;"/>
		<path d="M 293.398604 135.254983 Q 293.313218 135.393228 293.170906 135.450153 Q 293.209533 135.318007 293.398604 135.254983 Z" style="fill:#040303;"/>
		<path d="M 290.090877 137.737303 Q 289.993292 137.906044 289.794056 137.960936 Q 289.899773 137.806426 290.090877 137.737303 Z" style="fill:#040303;"/>
		<path d="M 283.229427 142.116433 Q 283.12371 142.250613 282.954969 142.260778 Q 283.068818 142.142863 283.229427 142.116433 Z" style="fill:#040303;"/>
		<path d="M 264.226767 149.711805 Q 264.194238 149.868348 263.801865 149.831753 L 264.226767 149.711805 Z" style="fill:#040303;"/>
		<path d="M 226.400353 149.819555 Q 226.247876 149.835819 226.26414 149.774829 Q 226.245843 149.825654 226.400353 149.819555 Z" style="fill:#040303;"/>
		<path d="M 230.063859 150.622599 Q 229.994736 150.65716 229.919515 150.6165 Q 230.004902 150.651061 230.063859 150.622599 Z" style="fill:#040303;"/>
		<path d="M 235.138283 151.456138 Q 234.792669 151.480534 234.493815 151.374817 L 235.138283 151.456138 Z" style="fill:#040303;"/>
		<path d="M 255.438011 151.37685 Q 255.348558 151.51103 255.011076 151.466303 Q 255.214379 151.372784 255.438011 151.37685 Z" style="fill:#040303;"/>
		<path d="M 253.689612 151.630978 Q 253.555432 151.671638 253.384659 151.665539 L 253.689612 151.630978 Z" style="fill:#040303;"/>
		<path d="M 251.829397 151.781422 Q 251.498014 151.909502 251.04465 151.870875 L 251.829397 151.781422 Z" style="fill:#040303;"/>
		<path d="M 239.305979 151.874941 L 239.015257 151.844445 L 239.305979 151.874941 Z" style="fill:#040303;"/>
		<path d="M 244.992342 152.066045 L 241.965172 152.013186 L 244.992342 152.066045 Z" style="fill:#040303;"/>
		<path d="M 248.611122 151.98879 L 245.657141 152.05588 L 248.611122 151.98879 Z" style="fill:#040303;"/>
		<path d="M 245.209876 152.061979 L 245.049267 152.066045 L 245.209876 152.061979 Z" style="fill:#040303;"/>
		<path d="M 243.300868 31.089017 Q 243.290703 27.793488 243.321198 25.784862 C 243.386255 21.084514 247.527521 17.591781 252.183142 18.736373 Q 253.89698 19.157209 255.749064 20.694174 Q 255.81412 20.749065 255.883243 20.696207 C 258.050445 19.012864 259.260093 16.892422 260.115996 14.340979 C 260.15259 14.231196 260.274571 14.174271 260.382322 14.218997 L 262.514962 15.113527 Q 262.750793 15.213145 262.685736 15.459141 Q 261.431361 20.137125 257.584883 23.076876 Q 257.503562 23.139899 257.540156 23.237485 Q 257.684501 23.599363 258.066709 24.420704 Q 258.863654 26.138607 259.27839 27.9297 C 259.302787 28.03745 259.241796 28.1452 259.136079 28.177729 L 256.643593 28.940112 C 256.590735 28.956376 256.535843 28.925881 256.521612 28.873022 Q 256.206494 27.699969 256.00929 27.069732 Q 255.401417 25.11803 254.136877 23.499744 C 252.593813 21.527713 249.963082 20.688075 247.848739 22.438507 Q 246.482548 23.568867 246.157264 25.250177 Q 246.05358 25.788928 246.057646 28.1513 Q 246.061712 29.58458 246.090174 31.056488 Q 246.092207 31.17847 246.20809 31.208965 Q 253.032946 33.012256 256.196329 39.166215 C 256.489084 39.739527 256.792004 40.627958 257.090858 41.245996 C 257.56252 42.22388 257.359217 43.108245 256.505348 43.77101 C 256.243088 43.974312 256.173965 44.391082 256.094677 44.746861 Q 254.781345 50.555206 254.240561 56.357452 C 253.703843 62.139367 253.480211 68.189642 253.252512 74.142331 Q 253.222017 74.900648 253.140696 75.461763 C 252.774752 77.976611 252.093689 80.61954 251.229655 84.451787 Q 249.613402 91.620224 248.27364 99.138341 Q 247.334384 104.407935 246.787501 109.547415 Q 246.710246 110.273204 246.141 110.706238 Q 246.059679 110.767229 246.090174 110.864814 Q 246.189793 111.198229 246.191826 112.440406 Q 246.20809 125.364329 246.197925 133.284984 Q 246.195892 134.228307 245.827915 135.55587 C 244.644696 139.823184 240.727061 140.994205 236.722007 140.662822 C 232.623434 140.325341 230.267161 137.613289 230.21227 133.541145 C 230.181775 131.347514 230.226501 129.261633 231.578461 127.582357 C 232.412 126.547548 233.707035 125.921377 235.04883 125.844122 C 237.171305 125.724174 238.927837 126.880964 239.73698 128.828599 C 240.387547 130.391993 240.36925 132.034675 240.054131 133.622466 C 240.043966 133.675325 239.989074 133.70582 239.938249 133.687523 Q 238.549695 133.16097 237.27499 133.565541 Q 236.976135 133.65906 237.110315 133.37647 C 237.417301 132.72387 237.364443 131.920826 237.366476 131.245863 C 237.370542 130.074842 236.604092 128.757443 235.233835 128.972944 C 233.0646 129.314492 233.235374 132.107864 233.288233 133.750546 C 233.410214 137.477076 236.744371 137.887747 239.629229 137.493341 C 241.859455 137.186354 243.170754 135.423724 243.178886 133.22806 Q 243.213448 123.835496 243.223613 111.423895 Q 243.223613 111.188064 243.294769 110.805856 Q 243.313066 110.702172 243.237844 110.628983 Q 242.823108 110.228478 242.652334 109.010697 Q 241.45895 100.413046 239.663791 91.60396 Q 238.452109 85.647205 236.498375 77.340275 C 236.230016 76.197717 236.099903 74.927078 236.057209 73.662538 C 235.805114 66.37212 235.642473 60.799605 234.959377 54.515533 Q 234.43689 49.711502 233.068666 44.281299 C 232.987345 43.964147 232.527882 43.689689 232.361175 43.441661 C 231.958636 42.845985 231.905777 42.152724 232.245292 41.489959 Q 232.251391 41.477761 232.814538 40.066844 C 234.627994 35.525072 238.47244 32.400316 243.197184 31.221163 Q 243.300868 31.194734 243.300868 31.089017 Z M 245.819782 81.27214 Q 246.000721 80.918395 245.982424 80.627672 Q 245.958028 80.499592 246.002754 80.418271 L 246.197925 79.763638 Q 246.954209 76.866581 247.362846 74.333435 Q 248.302103 68.539322 248.822556 62.999336 Q 249.308449 57.843591 249.731317 52.75087 Q 249.830936 51.535123 250.070832 49.355723 Q 250.359521 46.741256 250.436776 45.972773 Q 250.469305 45.665787 250.475404 44.7123 C 250.475404 44.649276 250.424578 44.59845 250.361554 44.59845 L 246.260948 44.59845 C 246.22842 44.59845 246.204024 44.622847 246.201991 44.655375 Q 246.18166 45.34457 246.187759 45.503145 Q 246.657388 56.164314 246.368698 66.046836 Q 246.145066 73.751991 245.659174 81.670613 Q 245.628678 82.158538 245.728296 81.670613 Q 245.752693 81.550665 245.819782 81.27214 Z" style="fill:#040303;"/>
		<path d="M 246.197925 79.763638 Q 246.004787 78.659707 245.923467 80.385743 Q 245.921434 80.412172 245.947863 80.414205 Q 245.976325 80.416238 246.002754 80.418271 Q 245.958028 80.499592 245.982424 80.627672 Q 245.892971 80.475196 245.884839 80.526021 Q 245.819782 80.891965 245.819782 81.27214 Q 245.752693 81.550665 245.728296 81.670613 Q 245.628678 82.158538 245.659174 81.670613 Q 246.145066 73.751991 246.368698 66.046836 Q 246.657388 56.164314 246.187759 45.503145 Q 246.18166 45.34457 246.201991 44.655375 C 246.204024 44.622847 246.22842 44.59845 246.260948 44.59845 L 250.361554 44.59845 C 250.424578 44.59845 250.475404 44.649276 250.475404 44.7123 Q 250.469305 45.665787 250.436776 45.972773 Q 250.359521 46.741256 250.070832 49.355723 Q 249.830936 51.535123 249.731317 52.75087 Q 249.308449 57.843591 248.822556 62.999336 Q 248.302103 68.539322 247.362846 74.333435 Q 246.954209 76.866581 246.197925 79.763638 Z" style="fill:#ffffff;"/>
	</g>
	<g id="surface4">
	</g>
</svg>
