<?xml version="1.0" encoding="utf-8"?>
<svg xmlns="http://www.w3.org/2000/svg" width="490pt" height="280pt" viewBox="0 0 490 280" version="1.1" xmlns:xlink="http://www.w3.org/1999/xlink">
	<g id="surface2">
		<path vector-effect="non-scaling-stroke" d="M 240.886955 5.101829 Q 241.159638 5.424286 241.637914 5.491375" style="fill:none;stroke-width:0.50;stroke:#3f545d;"/>
		<path vector-effect="non-scaling-stroke" d="M 241.637914 5.491375 Q 241.856493 5.770549 242.248203 5.796519" style="fill:none;stroke-width:0.50;stroke:#3f545d;"/>
		<path d="M 240.886955 5.101829 Q 241.159638 5.424286 241.637914 5.491375 Q 241.856493 5.770549 242.248203 5.796519 Q 242.843343 6.07353 244.832192 7.278959 Q 248.273183 9.365195 250.543371 12.055227 Q 253.270194 15.28846 255.02748 19.170936 Q 255.217925 19.595109 255.557695 19.84615 Q 256.412533 20.475916 257.31931 21.133816 C 261.926775 24.483913 265.988875 29.151974 267.445345 34.880466 Q 267.930113 36.782749 268.018843 37.804226 Q 268.170333 39.52905 268.107573 40.769105 Q 268.085932 41.206262 268.430031 41.318798 Q 271.249912 42.240724 273.392416 43.658239 C 275.45701 45.02165 277.103925 46.739981 278.402412 48.728831 Q 279.014865 49.665906 279.912985 50.055452 Q 283.607181 51.659083 285.955278 53.089583 Q 287.29272 53.905466 289.019708 55.394398 Q 292.707411 58.573527 294.590217 62.702716 Q 295.884376 65.542074 296.193849 68.524266 C 296.347503 70.004542 296.323698 72.289879 296.033702 73.988733 Q 295.600873 76.522947 294.730887 78.92082 Q 294.581561 79.332007 294.559919 79.745359 Q 294.555591 79.860059 294.618351 79.953117 Q 295.566247 81.372796 295.97527 82.260096 Q 297.148237 84.809459 297.308384 86.64249 Q 297.351667 87.12293 297.30622 90.174375 C 297.301891 90.555264 297.159058 90.921005 297.124431 91.334356 Q 297.096298 91.656814 297.068164 91.799648 Q 296.1787 96.346516 293.347998 100.257127 Q 293.090465 100.612047 293.529786 100.601226 C 295.159388 100.555779 296.715408 100.819805 298.212996 100.821969 Q 298.98776 100.824133 300.881387 100.992936 Q 302.045697 101.094651 305.281094 101.276439 Q 305.789669 101.304573 306.43242 101.382482 C 307.298078 101.488525 308.152915 101.421437 308.988275 101.585912 C 309.568266 101.700612 310.133108 101.657329 310.871081 101.754715 Q 313.639023 102.116127 316.417785 102.377989 C 316.6342 102.39963 316.92636 102.503509 317.205534 102.516494 C 317.962985 102.551121 318.668496 102.728581 319.224682 102.799997 Q 326.416136 103.715431 333.112001 105.617714 C 334.235192 105.938008 335.756586 106.505014 336.524858 106.797173 C 340.744941 108.405133 344.6707 111.002107 346.692012 115.029582 C 346.884621 115.416964 346.964694 115.838972 347.127005 116.237175 Q 347.304465 116.670004 347.323942 117.081191 C 347.362897 117.9317 347.395359 118.79303 346.932232 119.550481 C 346.122842 120.877102 344.69667 121.721118 343.235872 122.227528 Q 341.677688 122.7664 339.727793 123.039083 Q 337.487903 123.355048 337.156788 123.400495 Q 335.57047 123.621238 334.598769 123.844145 Q 332.969168 124.220706 329.976155 125.369867 Q 325.675998 127.02111 315.534814 130.485906 C 314.12812 130.966346 312.978959 131.299625 311.412118 131.782229 Q 306.045038 133.429144 299.818792 134.651886 Q 298.013895 135.006805 295.767512 135.298965 C 294.332684 135.487246 292.159882 135.79239 290.316031 135.920075 Q 282.983907 136.419992 276.541247 136.697003 Q 272.968243 136.852821 267.105574 136.926402 Q 263.573689 136.971849 244.345259 137.138488 Q 241.750449 137.16013 240.016969 137.140653 Q 230.215556 137.041102 219.241176 136.926402 C 216.726439 136.900432 214.11648 136.757599 211.629877 136.731629 Q 210.541312 136.718644 208.346869 136.582303 Q 200.770197 136.104027 197.422264 135.779405 Q 196.420265 135.682019 192.572415 135.099864 Q 192.550774 135.095535 191.908022 135.04576 C 191.522805 135.017626 191.265271 134.844495 190.903859 134.84233 Q 190.791324 134.84233 189.709251 134.630244 Q 181.948626 133.106686 174.614339 130.622247 Q 171.2426 129.481743 167.022517 127.979826 Q 165.674255 127.499386 159.692558 125.270316 Q 158.238252 124.727116 157.489458 124.456598 Q 156.355446 124.04541 155.232255 123.826832 Q 153.340792 123.458927 151.07926 123.216543 Q 149.146678 123.010949 148.380571 122.837817 Q 146.893803 122.500211 145.751135 122.021935 C 144.376902 121.446272 143.022148 120.305767 142.57417 118.795194 C 142.439993 118.33856 142.478947 116.879926 142.749465 116.237175 Q 142.894463 115.890911 142.987521 115.512186 Q 143.043789 115.276294 143.273188 114.808839 Q 144.149667 113.014762 145.456811 111.653515 C 147.324468 109.705785 150.00368 108.054542 152.505432 107.028737 Q 156.327312 105.457568 160.595006 104.552955 C 160.856868 104.498851 161.257235 104.314899 161.60999 104.271616 Q 161.947597 104.230497 162.029834 104.213184 Q 162.369605 104.143931 165.39508 103.546627 Q 166.873191 103.254468 168.364287 103.070515 Q 169.770982 102.89522 170.331495 102.793505 Q 171.681922 102.542464 172.300867 102.531643 Q 172.63631 102.527315 173.121078 102.408287 C 173.778979 102.245976 174.503967 102.334706 175.155375 102.172395 C 175.633651 102.051203 176.176851 102.126948 176.782812 102.03389 Q 178.620171 101.752551 186.144904 101.213679 Q 190.598715 100.89555 191.356165 100.871744 Q 191.397284 100.86958 194.747381 100.655329 Q 196.78817 100.527645 198.971792 100.581749 C 199.105969 100.586077 199.188207 100.434587 199.112462 100.324215 C 195.643337 95.145416 192.806143 89.109615 191.817128 83.145231 Q 191.503327 81.258096 191.488178 78.479334 C 191.48385 77.58987 191.654817 76.650631 191.702429 75.715721 Q 191.734891 75.062149 192.347344 72.796289 Q 192.641668 71.712052 193.431581 70.281552 C 194.730068 67.929127 196.898541 66.130722 199.346189 65.076783 Q 200.001925 64.795444 201.112132 64.390749 C 201.655332 64.193812 202.334874 64.105082 202.802329 63.964413 Q 202.906208 63.93195 202.914865 63.825907 Q 203.258964 59.506274 205.462064 55.764467 Q 206.808162 53.483458 208.747236 51.912288 Q 210.39415 50.579175 212.248823 49.520908 Q 212.718442 49.254718 213.863275 48.767785 Q 213.969318 48.722338 213.967154 48.607639 C 213.947677 47.692205 213.887081 46.677221 214.09051 45.874323 C 214.233344 45.311646 214.190061 44.81822 214.378342 44.203603 Q 214.726769 43.065263 214.746246 43.002503 Q 214.971317 42.242888 215.161762 41.820879 Q 217.057553 37.59214 220.766898 34.715991 Q 221.381515 34.239879 222.649704 33.354744 Q 223.820507 32.538861 226.52136 31.33776 Q 227.581791 30.868141 231.972842 29.076229 Q 233.039765 28.639071 235.151971 27.669534 Q 238.203416 26.269332 240.681362 24.386526 Q 243.442811 22.289469 244.975026 19.499886 Q 246.039785 17.565141 246.197768 15.760243 C 246.383884 13.665351 245.57233 11.802022 244.189441 10.243838 Q 242.429991 8.261481 240.406515 6.266139 Q 239.670706 5.54115 239.118849 4.844295 Q 238.523709 4.093337 239.419665 4.435272 Q 239.999656 4.658179 240.886955 5.101829 Z M 228.789384 49.544713 Q 231.245689 48.847859 235.606441 47.237735 Q 240.514723 45.422017 244.260858 42.576166 Q 244.682866 42.255873 245.751954 41.310141 Q 248.7731 38.64175 250.417851 35.101209 Q 251.30515 33.194597 251.908947 30.415834 Q 252.006333 29.976513 252.062601 29.422492 C 252.155659 28.520043 252.309314 27.725802 252.274687 26.92074 Q 252.188121 24.808534 251.991184 23.808699 Q 251.406865 20.822179 250.298823 17.967672 Q 250.212257 17.744765 250.067259 17.943866 Q 250.013156 18.019611 249.993678 18.277144 Q 249.643087 22.74394 247.141335 26.204408 Q 244.901445 29.3013 241.960371 31.398356 Q 238.781242 33.664216 235.338087 35.276504 Q 230.585625 37.505574 229.278481 38.362575 Q 227.960517 39.226069 227.380526 39.648078 Q 224.627733 41.658569 223.015445 44.588821 C 222.829328 44.926428 222.703808 45.337615 222.528512 45.638431 Q 222.338067 45.960889 222.186577 46.428344 C 221.630392 48.125034 221.2798 50.016497 221.485394 51.769455 C 221.491887 51.821394 221.541662 51.853856 221.591437 51.838707 Q 223.171263 51.347446 225.038921 50.741486 Q 225.828834 50.486117 226.110172 50.408207 C 227.02777 50.159331 228.287302 49.687547 228.789384 49.544713 Z M 257.877659 27.773413 C 257.715348 27.535357 257.682886 27.297301 257.585499 27.091708 Q 257.527068 26.966187 257.427517 26.922904 Q 257.301996 26.868801 257.295504 27.005142 Q 257.200282 29.493909 256.754468 31.543354 C 255.802244 35.906271 252.984527 39.509572 249.532715 42.335946 Q 246.702014 44.653745 243.717657 46.296332 C 243.481766 46.428344 243.226396 46.646923 243.029459 46.752966 Q 238.869972 49.025319 234.641233 50.92111 C 232.529027 51.869005 230.380031 52.756305 228.289467 53.749647 Q 227.664029 54.0483 227.192245 54.206282 Q 227.025606 54.26255 226.644716 54.431353 Q 221.816508 56.558708 219.314757 57.829061 C 216.698305 59.153518 213.906558 60.564541 211.363687 62.380258 Q 209.686475 63.577031 209.247153 64.144037 C 209.011262 64.447017 209.112976 64.830071 209.474389 65.011859 Q 209.894233 65.221781 210.182064 65.295362 C 211.134288 65.542074 212.093004 65.741176 213.118809 65.754161 C 214.203046 65.76931 215.291611 65.914307 216.326072 65.931621 Q 219.541992 65.981396 222.61075 65.951098 C 223.995803 65.938113 224.896087 65.788787 226.227036 65.762817 Q 227.39351 65.741176 228.925725 65.550731 Q 229.453777 65.485807 231.620086 65.200139 Q 237.484919 64.42754 243.161472 62.098919 Q 248.160647 60.049474 252.092899 57.166833 Q 254.536219 55.37492 256.741483 53.111225 Q 259.158833 50.631114 260.738659 47.648922 Q 262.255725 44.783594 262.467811 41.636927 C 262.679897 38.481603 261.73633 35.005986 260.344785 32.125509 Q 259.135027 29.619429 257.877659 27.773413 Z M 213.711785 93.632678 Q 213.975811 93.377309 214.047227 93.35134 C 214.635875 93.143582 215.198553 92.816796 215.743917 92.626351 Q 217.78687 91.910019 220.881598 91.053017 Q 225.833162 89.680949 231.018454 88.466864 Q 234.450788 87.661802 238.640573 86.623012 Q 244.531376 85.162214 250.132184 83.080307 Q 251.106049 82.718894 252.021482 82.322856 Q 253.252881 81.788312 253.884811 81.51563 Q 258.933762 79.340664 263.40705 76.219967 C 265.082098 75.051328 266.923786 73.5018 268.373763 72.045331 Q 269.522924 70.889677 270.914469 69.119406 Q 273.45734 65.886173 274.437698 61.882505 Q 275.106419 59.151354 274.416056 56.363935 C 273.621815 53.152343 271.531251 50.92111 268.492791 49.85635 Q 267.138036 49.382403 265.627463 49.012334 C 265.488958 48.979872 265.348288 49.051288 265.296349 49.183301 C 263.915624 52.671903 261.448499 55.885659 258.628617 58.404724 Q 258.120043 58.859194 256.940584 59.822239 Q 256.183133 60.43902 255.161657 61.116398 C 254.419355 61.609823 253.365416 62.332647 252.456475 62.852042 Q 247.90095 65.453344 243.470945 66.810263 Q 239.352577 68.069796 237.790064 68.40091 Q 235.305625 68.926797 233.634905 69.197316 Q 229.819517 69.818425 225.118994 70.203643 Q 218.005449 70.790126 215.220194 71.090943 Q 212.681652 71.365789 209.967814 71.947944 C 206.847116 72.618829 203.776194 73.912988 201.447574 76.100939 Q 199.266116 78.154712 198.238147 81.22347 C 197.487189 83.465525 197.614873 86.560252 198.207849 88.810963 Q 198.738065 90.817126 199.110298 91.80614 Q 200.597065 95.755705 202.862925 99.352514 C 202.932178 99.462886 203.062027 99.516989 203.189711 99.493184 Q 204.276112 99.283261 205.392811 99.138264 Q 205.780193 99.088488 206.959652 98.893715 Q 208.160753 98.696778 215.992794 98.263949 Q 217.726274 98.168727 225.958682 98.240143 Q 228.133648 98.259621 230.284808 98.348351 Q 236.53486 98.60372 242.828194 98.391634 Q 244.834356 98.324545 248.788249 97.973954 Q 251.761785 97.709928 254.412863 97.225159 Q 258.150341 96.543454 261.175816 95.760033 Q 263.751149 95.091312 266.378421 94.169386 Q 266.38275 94.167222 266.832892 94.007076 Q 268.631296 93.364324 271.438193 92.0983 Q 273.258239 91.278089 274.286208 90.715411 Q 274.846721 90.405938 275.506785 90.044526 Q 277.68608 88.854246 280.655287 86.597043 Q 283.280395 84.603865 285.788639 81.545928 C 286.950785 80.128413 287.939799 78.535602 288.647475 76.856225 Q 288.946127 76.146386 289.050006 75.91915 Q 289.257764 75.46468 289.404926 74.969091 Q 289.677608 74.06015 289.935141 72.740021 C 290.391776 70.40058 290.071482 68.145541 289.175526 65.948934 C 287.879203 62.769804 285.039845 60.203128 281.893178 58.911134 C 281.815269 58.878671 281.730867 58.937103 281.733031 59.021505 Q 281.741688 59.350455 281.715718 59.71836 Q 281.529601 62.189814 280.806777 64.741341 C 280.577378 65.546403 280.309024 66.076618 279.912985 67.002872 Q 278.491142 70.329163 275.794617 73.512621 C 272.38176 77.542259 268.075111 80.714896 263.346454 83.084635 C 261.93976 83.790146 260.264711 84.599537 258.539887 85.246616 Q 258.161162 85.387285 257.611469 85.62967 Q 256.31731 86.203168 251.428507 87.599042 Q 248.134678 88.538281 244.005489 89.360656 Q 239.328771 90.291238 234.836006 91.0963 Q 226.203231 92.6415 217.405981 94.545948 C 216.343385 94.777511 213.445595 95.610707 213.488878 93.996255 Q 213.493206 93.844765 213.711785 93.632678 Z M 274.467996 111.911048 Q 278.378606 110.900393 281.529601 109.056541 Q 283.637479 107.825142 285.076635 106.171735 Q 288.019873 102.795669 288.112931 98.279098 Q 288.147557 96.500171 287.44421 94.617365 C 286.892353 93.137089 285.86222 91.912183 284.563733 91.053017 Q 284.111427 90.754365 283.860386 90.938318 Q 281.057818 93.009405 278.017194 94.6152 Q 275.833571 95.766526 273.604502 96.822628 Q 273.30585 96.965462 272.429371 97.318218 C 271.061631 97.870075 269.828069 98.385141 267.785116 99.088488 Q 265.872011 99.748553 264.257559 100.174889 Q 258.542052 101.689791 253.480116 102.202693 Q 247.113201 102.845444 243.531541 102.953652 C 240.928074 103.031561 236.807542 103.016412 233.580801 102.89522 Q 230.581296 102.782684 225.627568 102.62903 Q 220.727943 102.475376 214.042899 102.867086 C 210.424448 103.079172 207.221514 103.559612 203.17889 104.269452 C 202.951655 104.310571 202.84994 104.574596 202.99061 104.756385 C 205.243485 107.662831 208.398808 109.478549 211.904724 110.647188 Q 214.480056 111.506353 217.256655 112.038733 Q 218.35604 112.250819 219.325577 112.404474 Q 219.39483 112.415294 224.142964 113.066702 Q 226.133978 113.341548 235.123837 114.042731 Q 236.865974 114.179073 237.774915 114.192057 C 240.036446 114.220191 242.183278 114.43877 244.38205 114.436606 C 246.442316 114.436606 250.324793 114.505858 253.302656 114.334891 Q 254.25488 114.280787 256.384399 114.233176 C 258.561529 114.183401 260.781942 113.934524 262.987206 113.774377 Q 263.14086 113.763557 264.294349 113.638036 Q 264.81158 113.579604 265.603657 113.523337 Q 266.990874 113.42595 272.476982 112.395817 Q 272.879513 112.320072 274.467996 111.911048 Z M 341.86164 119.823163 C 342.666702 119.459587 344.25302 118.316918 344.285483 117.230517 C 344.287647 117.14828 344.21623 117.083355 344.133992 117.092012 C 342.21656 117.286785 340.288306 117.60275 338.347068 117.734763 Q 335.566142 117.923044 330.556146 118.221696 C 327.978649 118.37535 324.955338 118.379678 322.074861 118.498706 C 318.346039 118.650196 315.257804 118.5896 311.541966 118.67833 Q 307.029724 118.784373 301.045862 118.786538 Q 265.501942 118.79303 184.720896 118.784373 Q 182.740704 118.784373 180.396934 118.721613 Q 174.63598 118.565795 168.97674 118.541989 C 167.275722 118.533333 165.187322 118.407812 163.133549 118.364529 Q 159.599499 118.288784 150.893144 117.713122 C 148.951905 117.585437 147.796252 117.377679 145.681882 117.024923 C 145.523899 116.998954 145.389722 117.137459 145.422185 117.293277 C 145.80091 119.108995 147.677224 120.294947 149.367421 120.468078 C 149.919278 120.52651 150.655088 120.699642 151.113886 120.751581 Q 153.808247 121.050233 156.515593 121.177918 C 157.749155 121.23635 159.439353 121.38784 160.913136 121.392168 C 162.103415 121.396497 163.090266 121.580449 164.2048 121.589106 Q 167.377437 121.610747 169.355466 121.684328 Q 172.287883 121.792535 173.681592 121.812012 Q 187.5213 122.002457 190.455881 122.00895 Q 245.561509 122.149619 300.664973 122.002457 Q 303.218664 121.995965 317.79851 121.74276 C 319.44326 121.714626 321.572779 121.608583 323.496704 121.59127 C 325.098172 121.576121 326.775384 121.454929 328.257824 121.400825 Q 328.948186 121.377019 331.666352 121.225529 Q 336.182923 120.976652 339.033102 120.619568 Q 340.502557 120.435616 341.86164 119.823163 Z" style="fill:#223642;"/>
		<path d="M 241.637914 5.491375 Q 241.159638 5.424286 240.886955 5.101829 Q 241.358739 5.2122 241.637914 5.491375 Z" style="fill:#5b7278;"/>
		<path d="M 242.248203 5.796519 Q 241.856493 5.770549 241.637914 5.491375 Q 241.988505 5.56712 242.248203 5.796519 Z" style="fill:#5b7278;"/>
		<path d="M 149.555702 146.431328 C 152.797591 145.93141 156.175822 145.702011 159.564873 145.47694 C 162.744002 145.262689 167.20647 144.862322 170.868203 144.758444 Q 172.062811 144.723817 173.25742 144.596133 C 174.149047 144.50091 175.311193 144.529044 176.430056 144.425165 Q 177.553248 144.32345 179.25643 144.288824 C 179.836421 144.275839 180.658796 144.120021 181.277741 144.113528 Q 183.004729 144.089723 184.303216 143.990172 C 185.712075 143.881965 186.683776 143.89495 188.579567 143.864652 Q 189.083813 143.855995 190.377972 143.736967 C 191.183034 143.661222 192.124437 143.695848 192.790994 143.66555 Q 202.854269 143.219736 204.362678 143.152648 C 207.983293 142.992501 210.92653 143.035784 214.317745 142.85616 Q 215.213702 142.808549 218.643872 142.752281 Q 222.760076 142.687357 233.143644 142.533702 C 234.831677 142.507733 236.608441 142.397361 238.194759 142.393033 C 241.979849 142.382212 246.996337 142.334601 251.430671 142.421167 Q 260.351277 142.594298 271.935946 142.782579 Q 274.251581 142.819369 276.2664 142.921084 C 279.060312 143.061754 282.027355 142.986009 285.085292 143.163469 C 286.736535 143.260855 289.259928 143.219736 291.322358 143.353913 Q 294.036196 143.531373 298.258443 143.659058 C 299.950805 143.708833 301.424588 143.877636 303.281424 143.884129 Q 304.357004 143.886293 306.170558 144.026962 C 307.2786 144.111364 308.763204 144.100543 310.029229 144.202258 Q 312.36867 144.390539 314.777363 144.498746 Q 316.078015 144.559342 317.069193 144.639416 C 318.646855 144.771428 319.873925 144.700012 321.401812 144.894785 C 322.193889 144.996499 323.230514 144.959709 324.122142 145.037618 Q 326.749414 145.264853 329.383179 145.407687 C 330.214211 145.45097 331.218374 145.637086 332.0256 145.598132 Q 332.614248 145.569998 333.462593 145.71716 C 334.053404 145.818875 334.834661 145.829695 335.39301 145.896784 Q 335.535844 145.911933 338.940044 146.301479 Q 340.97434 146.533043 343.190425 147.18445 Q 343.562658 147.294822 343.967353 147.550191 C 344.718312 148.024139 344.051755 148.673382 343.471764 148.81838 C 341.915744 149.205762 340.58263 149.452474 339.08937 149.608293 Q 335.793377 149.950228 327.294779 150.458802 Q 324.676163 150.61462 324.656686 150.61462 C 322.927534 150.605964 321.440766 150.850512 319.59475 150.831035 C 318.573274 150.822378 317.586424 150.978197 316.57144 151.010659 Q 310.834291 151.192447 305.10147 151.458637 C 303.662314 151.523561 301.677793 151.462965 300.126101 151.569008 Q 297.806137 151.726991 295.479681 151.694529 C 293.122927 151.662067 290.380955 151.908779 288.210318 151.9196 Q 283.654792 151.939077 279.019193 152.079747 C 276.069463 152.168477 273.115405 152.15982 270.098587 152.224744 Q 267.486464 152.283176 265.770296 152.287504 Q 241.363067 152.36325 219.998627 152.298325 Q 217.903734 152.291833 215.668172 152.242057 Q 205.373334 152.012658 198.805153 151.913107 C 196.043704 151.871989 192.602713 151.666395 189.536119 151.672887 C 188.893368 151.672887 187.993084 151.506248 187.226976 151.50192 Q 181.665123 151.462965 175.739694 151.123194 C 174.674935 151.060434 172.692578 151.062598 171.229616 150.919765 C 169.996053 150.798573 168.738684 150.848348 167.531091 150.746633 Q 166.117905 150.627605 165.009862 150.599471 Q 162.958253 150.549696 162.488633 150.536711 Q 162.209459 150.528054 161.841554 150.506413 Q 153.503103 149.98269 149.252722 149.461131 C 148.462809 149.365909 146.612464 149.125688 145.530392 148.506743 C 145.240396 148.340104 145.171144 147.950558 145.389722 147.697353 C 145.513079 147.554519 145.668897 147.435491 145.850685 147.36191 Q 147.307155 146.777591 149.555702 146.431328 Z" style="fill:#5b7278;"/>
	</g>
	<g id="surface4">
	</g>
</svg>
