<?xml version="1.0" encoding="utf-8"?>
<svg xmlns="http://www.w3.org/2000/svg" width="490pt" height="280pt" viewBox="0 0 490 280" version="1.1" xmlns:xlink="http://www.w3.org/1999/xlink">
	<g id="surface2">
		<path vector-effect="non-scaling-stroke" d="M 245.272832 144.999042 C 245.0674 145.190546 244.73662 145.134835 244.60779 144.887621 Q 244.371021 144.438456 244.165589 143.836088 Q 235.338985 117.91686 226.275612 92.269219 Q 225.307645 89.539414 223.869622 85.740666 Q 217.382851 68.620187 211.080621 51.224638 C 211.014465 51.040098 210.84037 50.918231 210.641902 50.914749 Q 202.758891 50.855557 193.723373 50.914749 Q 192.375879 50.925195 191.860559 51.433552 Q 186.97546 56.245531 167.696205 75.145259 Q 167.260969 75.57005 167.703169 75.987877 C 173.664174 81.652921 181.57504 89.480221 194.882844 102.680086 Q 204.162095 111.886217 244.224782 152.474671 Q 244.517261 152.76715 244.785367 152.976064 C 244.910715 153.073557 245.091774 153.059629 245.203194 152.944727 Q 256.759605 140.956561 263.63983 134.097227 Q 278.322982 119.462822 301.857112 95.886909 Q 311.31394 86.419635 322.299319 75.761554 C 322.368957 75.691916 322.372439 75.580495 322.302801 75.510858 Q 310.502658 63.512246 299.186499 52.499012 C 297.93998 51.28383 297.650983 50.886894 295.990119 50.886894 Q 287.288862 50.89734 278.622425 50.907786 C 278.497077 50.907786 278.385656 50.987869 278.347355 51.106254 Q 277.696241 53.10138 276.341784 56.806116 Q 269.405848 75.796373 264.597351 88.258076 Q 263.444844 91.249024 262.233144 94.807521 Q 256.91629 110.427303 255.224089 115.587472 Q 247.981747 137.673134 245.906537 144.003219 Q 245.715033 144.588178 245.272832 144.999042" style="fill:none;stroke-width:0.50;stroke:#d3c1a8;"/>
		<path vector-effect="non-scaling-stroke" d="M 226.084107 87.492059 C 226.157227 87.687045 226.428815 87.700973 226.519344 87.509469 L 243.702497 51.235084 C 243.775617 51.078398 243.660715 50.89734 243.490102 50.89734 L 212.797195 50.89734 C 212.630064 50.89734 212.518643 51.060989 212.574354 51.217674 L 226.084107 87.492059" style="fill:none;stroke-width:0.50;stroke:#d3c1a8;"/>
		<path vector-effect="non-scaling-stroke" d="M 246.703891 51.893162 Q 246.606398 52.279652 246.73871 52.56865 Q 254.820189 70.563084 263.190665 87.411976 C 263.215038 87.45724 263.281195 87.45724 263.298604 87.408494 Q 269.914205 70.583976 276.773539 51.155 Q 276.853622 50.932159 276.616853 50.928677 Q 262.602225 50.84163 248.632861 50.907786 Q 248.023529 50.907786 247.177429 51.088844" style="fill:none;stroke-width:0.50;stroke:#d3c1a8;"/>
		<path vector-effect="non-scaling-stroke" d="M 227.069484 89.354873 C 227.024219 89.424511 227.013773 89.508077 227.041628 89.581196 L 244.872414 141.172439 Q 245.130074 141.921046 245.321579 141.151547 Q 245.547902 140.228845 245.791635 139.504611 Q 249.210856 129.428006 252.946929 117.829813 Q 255.269353 110.625771 262.31671 90.019915 Q 262.487322 89.522004 262.341083 89.226043 Q 253.709464 71.6947 245.182303 52.871574 Q 244.900269 52.244833 244.68091 52.895948 C 244.444141 53.592327 244.022832 54.14943 243.622414 54.971157 C 238.364752 65.792888 233.176728 77.001109 228.622409 86.544984 Q 227.943439 87.962115 227.069484 89.354873" style="fill:none;stroke-width:0.50;stroke:#d3c1a8;"/>
		<path fill-opacity="0.996" d="M 243.295116 43.205833 C 243.382163 43.160569 243.403054 43.049148 243.34038 42.972546 Q 236.428818 34.598588 229.886337 27.746218 Q 229.865446 27.725327 228.876587 26.788697 C 228.413495 26.349978 228.05486 25.82073 227.640514 25.420312 Q 225.123104 22.95513 223.420457 21.269893 C 222.313215 20.169614 220.589677 18.658472 219.242183 17.300532 C 217.501235 15.549139 215.878672 14.076297 213.563212 11.844402 Q 212.664883 10.977411 212.212237 9.964179 C 212.097334 9.706519 212.34803 9.441895 212.609173 9.535906 C 214.277 10.145238 215.916973 10.716268 217.741486 10.329778 Q 219.026306 10.054708 221.390512 9.765711 C 224.597338 9.375739 227.44901 8.80819 230.453886 8.473928 C 233.389124 8.14663 237.379376 7.366685 240.283276 7.140362 Q 246.470604 6.656378 252.382862 7.498997 Q 257.487321 8.226713 259.949021 8.564457 Q 260.586208 8.654986 263.068799 9.104151 C 264.482448 9.361811 265.944844 9.445377 267.261001 9.664736 Q 269.384957 10.019889 272.755432 10.336742 C 274.395404 10.489945 275.199722 10.145238 276.877996 9.6717 C 277.226185 9.574207 277.525628 9.92936 277.372425 10.253176 Q 277.111283 10.806798 276.669082 11.248998 Q 275.26936 12.655684 272.229665 15.413345 Q 263.204593 23.602763 255.910022 32.182153 Q 250.356399 38.71767 249.360577 39.92937 Q 249.353613 39.936334 248.406538 41.189816 Q 247.783279 42.015025 246.916287 42.770596 C 246.686482 42.969064 246.829239 43.348591 247.135646 43.348591 L 257.19136 43.348591 Q 257.612669 43.348591 257.612669 43.773382 L 257.612669 49.15291 C 257.612669 49.320041 257.748463 49.455835 257.915594 49.452353 Q 265.23802 49.330487 271.233843 49.407089 Q 273.545822 49.434944 275.822981 49.379234 C 278.047912 49.327005 279.910726 49.421016 281.930226 49.403607 Q 287.048612 49.365306 295.49569 49.438426 Q 297.445551 49.455835 297.529116 49.469763 Q 298.556276 49.654303 299.72271 50.838148 C 308.329956 59.577705 316.341797 67.331886 324.019376 75.197487 C 324.217844 75.402919 324.217844 75.730217 324.015894 75.932167 Q 319.371045 80.643171 313.183718 86.757379 C 290.03956 109.626467 267.29582 132.279678 245.575757 154.713529 C 245.251941 155.047791 244.712247 155.047791 244.388431 154.710047 C 238.141911 148.181494 231.529791 141.687759 225.036057 135.096531 Q 203.831315 113.564491 179.064594 88.99972 C 174.726152 84.696097 170.269326 80.430776 165.596623 75.716289 C 165.467792 75.583977 165.467792 75.375064 165.596623 75.246233 Q 176.390498 64.38272 189.374485 51.823524 C 190.582703 50.653607 191.467104 49.487172 192.915573 49.473245 Q 201.199002 49.386197 210.168364 49.441908 C 217.536054 49.487172 225.453884 49.361824 232.111268 49.434944 C 232.37241 49.438426 232.588288 49.22603 232.588288 48.961406 L 232.588288 44.111126 C 232.588288 43.735081 232.887731 43.428674 233.263775 43.421711 C 235.415587 43.379928 237.187871 43.49483 238.911409 43.379928 Q 239.823666 43.317254 241.578541 43.477421 Q 242.609182 43.56795 243.295116 43.205833 Z M 234.144695 12.251784 C 234.057647 12.453734 234.151659 12.683539 234.353609 12.767105 L 243.988013 16.687719 C 244.151662 16.753875 244.329239 16.63549 244.329239 16.457914 L 244.329239 9.180753 Q 244.329239 8.912647 244.061133 8.912647 Q 241.477566 8.91961 238.681604 9.25039 Q 236.843164 9.466268 236.575058 9.549833 C 235.398177 9.925878 234.635642 11.113204 234.144695 12.251784 Z M 245.638431 16.457914 C 245.638431 16.677273 245.864754 16.823513 246.063222 16.729502 L 255.067404 12.51989 C 255.269353 12.425879 255.352919 12.185628 255.255426 11.98716 C 254.367543 10.18702 253.667682 9.306101 251.522834 9.13897 Q 248.876594 8.930056 245.878682 9.006658 Q 245.638431 9.01014 245.638431 9.25039 L 245.638431 16.457914 Z M 257.316708 16.705128 C 257.30278 16.792176 257.386346 16.858332 257.469911 16.830476 L 270.34596 12.035907 C 270.457381 11.994124 270.439971 11.830475 270.321587 11.813065 L 256.059744 9.852758 C 255.969214 9.842313 255.903058 9.932842 255.941359 10.016407 L 257.699716 13.776854 C 257.710162 13.797746 257.713644 13.818637 257.710162 13.84301 L 257.316708 16.705128 Z M 219.266556 12.074208 C 219.799286 12.321422 220.293715 12.359723 220.951794 12.641756 Q 224.336196 14.093707 227.849428 15.204431 C 229.405835 15.698861 230.391212 16.276855 231.937173 17.035908 C 232.062521 17.098582 232.205279 16.98368 232.173942 16.847886 C 231.561129 14.187718 232.358483 12.26223 233.751241 10.082563 Q 233.876589 9.891059 233.650266 9.925878 L 219.287448 11.945377 Q 219.061125 11.976714 219.266556 12.074208 Z M 246.686482 40.817253 Q 246.658626 40.883409 246.717819 40.845108 Q 247.059044 40.618785 247.341078 40.246222 Q 247.407234 40.159175 249.454588 37.300539 Q 250.589686 35.716276 251.672556 34.445385 Q 256.71434 28.526163 258.006123 27.053321 Q 261.279105 23.331175 266.871029 18.115296 Q 268.511001 16.583262 269.719219 15.66056 Q 270.903063 14.758749 272.539554 13.157077 Q 272.692757 13.003874 272.47688 13.007355 Q 271.989415 13.010837 271.299999 13.265016 Q 263.611975 16.12017 257.800691 18.567942 C 256.749159 19.010143 256.23732 19.967664 255.767264 20.977414 C 253.368239 26.175883 251.832723 29.431455 249.820187 33.627139 Q 248.204588 36.994132 246.686482 40.817253 Z M 241.874502 38.254578 Q 241.578541 37.499007 238.423944 31.022682 C 237.82854 29.804018 236.985921 27.861121 236.212941 26.318641 Q 235.405141 24.710005 234.677425 23.10137 Q 233.490099 20.482985 233.204583 19.859725 Q 232.835502 19.058889 232.469903 18.884795 Q 228.949707 17.230894 224.952491 15.949557 C 222.330624 15.106938 220.272824 14.288693 217.988701 13.251088 Q 217.727559 13.129222 217.689258 13.129222 Q 217.135636 13.097885 217.5465 13.484375 Q 220.481738 16.252482 224.910709 20.462093 Q 228.037451 23.435632 232.497758 27.885494 Q 234.590377 29.974631 236.815309 32.714883 Q 238.695532 35.026861 241.811828 38.292879 C 241.839683 38.324216 241.88843 38.292879 241.874502 38.254578 Z M 246.139824 37.875052 Q 246.909323 36.499703 246.999852 36.262934 C 247.637039 34.595106 248.13495 33.111819 248.970605 31.524075 Q 249.903753 29.744826 250.655842 27.868084 Q 250.833419 27.429366 254.670467 19.323513 C 255.568796 17.432844 255.822975 16.012231 256.087599 14.145935 C 256.098045 14.06237 256.038852 13.982286 255.955287 13.97184 Q 255.66629 13.940503 255.509604 14.020587 Q 251.84665 15.928666 245.916983 18.679363 C 245.816008 18.724628 245.749852 18.829084 245.749852 18.940505 L 245.749852 38.094411 C 245.749852 38.209313 245.8752 38.275469 245.969211 38.216277 Q 246.052777 38.160567 246.080632 38.052628 Q 246.111969 37.923798 246.139824 37.875052 Z M 243.040937 18.146633 Q 242.306257 17.725324 241.529795 17.398025 Q 236.665587 15.340225 235.067397 14.800532 Q 234.256115 14.525462 233.747759 14.368777 Q 233.329931 14.239946 233.396087 14.671701 C 233.974082 18.557497 236.209459 22.0185 237.804167 25.650117 Q 238.855699 28.042179 243.674642 38.191904 Q 244.071578 39.024077 244.134252 38.104857 C 244.506815 32.554716 244.172553 26.210702 244.252637 20.987859 Q 244.283974 19.010143 244.235227 18.794265 Q 244.182999 18.58187 244.061133 18.533123 C 243.719907 18.397329 243.43091 18.365992 243.040937 18.146633 Z M 247.822694 45.311266 C 247.825061 45.072129 247.633557 44.873661 247.393585 44.870005 L 246.453543 44.856878 C 246.212944 44.85277 246.014476 45.044274 246.012282 45.285987 L 245.961133 48.948593 C 245.958766 49.187729 246.15027 49.386197 246.390242 49.389853 L 247.330284 49.40298 C 247.570883 49.407089 247.769351 49.215584 247.771545 48.973871 L 247.822694 45.311266 Z M 244.175826 45.272164 C 244.176035 45.072129 244.015868 44.90848 243.814371 44.90942 L 242.734983 44.90754 C 242.536062 44.90848 242.372413 45.068647 242.372204 45.26903 L 242.365659 49.036441 C 242.36545 49.236476 242.525617 49.400125 242.727114 49.399185 L 243.806502 49.401065 C 244.005422 49.400125 244.169071 49.239958 244.16928 49.039575 L 244.175826 45.272164 Z M 250.116148 45.05472 C 249.93509 45.030346 249.774923 45.173104 249.774923 45.354163 L 249.774923 49.104164 C 249.774923 49.267813 249.910717 49.403607 250.074366 49.403607 L 251.547207 49.403607 C 251.710857 49.403607 251.84665 49.267813 251.84665 49.104164 L 251.84665 45.556112 C 251.84665 45.406391 251.73523 45.281043 251.58899 45.260151 L 250.116148 45.05472 Z M 236.341423 45.488111 C 236.341771 45.336753 236.219904 45.211405 236.066805 45.212589 L 234.729793 45.210256 C 234.57645 45.211405 234.454584 45.333271 234.454235 45.484838 L 234.447968 49.064226 C 234.44762 49.215584 234.569486 49.340933 234.722585 49.339749 L 236.059598 49.342082 C 236.212941 49.340933 236.334807 49.219066 236.335155 49.067499 L 236.341423 45.488111 Z M 240.443826 45.519796 C 240.446925 45.340235 240.304168 45.193995 240.12398 45.192046 L 238.759181 45.175367 C 238.580629 45.173104 238.43439 45.315862 238.43143 45.495214 L 238.388742 48.990758 C 238.385643 49.17032 238.528401 49.316559 238.708589 49.318509 L 240.073388 49.335188 C 240.251939 49.337451 240.398179 49.194693 240.401138 49.015341 L 240.443826 45.519796 Z M 256.013017 45.589121 C 256.014479 45.413355 255.871721 45.270597 255.697836 45.270632 L 254.367752 45.263668 C 254.193448 45.263633 254.05069 45.402909 254.049263 45.578849 L 254.031261 49.011963 C 254.029799 49.187729 254.172556 49.330487 254.346442 49.330452 L 255.676526 49.337416 C 255.85083 49.337451 255.993588 49.198175 255.995015 49.022235 L 256.013017 45.589121 Z M 245.272832 144.999042 C 245.0674 145.190546 244.73662 145.134835 244.60779 144.887621 Q 244.371021 144.438456 244.165589 143.836088 Q 235.338985 117.91686 226.275612 92.269219 Q 225.307645 89.539414 223.869622 85.740666 Q 217.382851 68.620187 211.080621 51.224638 C 211.014465 51.040098 210.84037 50.918231 210.641902 50.914749 Q 202.758891 50.855557 193.723373 50.914749 Q 192.375879 50.925195 191.860559 51.433552 Q 186.97546 56.245531 167.696205 75.145259 Q 167.260969 75.57005 167.703169 75.987877 C 173.664174 81.652921 181.57504 89.480221 194.882844 102.680086 Q 204.162095 111.886217 244.224782 152.474671 Q 244.517261 152.76715 244.785367 152.976064 C 244.910715 153.073557 245.091774 153.059629 245.203194 152.944727 Q 256.759605 140.956561 263.63983 134.097227 Q 278.322982 119.462822 301.857112 95.886909 Q 311.31394 86.419635 322.299319 75.761554 C 322.368957 75.691916 322.372439 75.580495 322.302801 75.510858 Q 310.502658 63.512246 299.186499 52.499012 C 297.93998 51.28383 297.650983 50.886894 295.990119 50.886894 Q 287.288862 50.89734 278.622425 50.907786 C 278.497077 50.907786 278.385656 50.987869 278.347355 51.106254 Q 277.696241 53.10138 276.341784 56.806116 Q 269.405848 75.796373 264.597351 88.258076 Q 263.444844 91.249024 262.233144 94.807521 Q 256.91629 110.427303 255.224089 115.587472 Q 247.981747 137.673134 245.906537 144.003219 Q 245.715033 144.588178 245.272832 144.999042 Z M 226.084107 87.492059 C 226.157227 87.687045 226.428815 87.700973 226.519344 87.509469 L 243.702497 51.235084 C 243.775617 51.078398 243.660715 50.89734 243.490102 50.89734 L 212.797195 50.89734 C 212.630064 50.89734 212.518643 51.060989 212.574354 51.217674 L 226.084107 87.492059 Z M 247.177429 51.088844 Q 246.843167 50.775474 246.512387 50.921713 Q 246.345256 50.994833 246.331328 51.175891 Q 246.303473 51.576309 246.703891 51.893162 Q 246.606398 52.279652 246.73871 52.56865 Q 254.820189 70.563084 263.190665 87.411976 C 263.215038 87.45724 263.281195 87.45724 263.298604 87.408494 Q 269.914205 70.583976 276.773539 51.155 Q 276.853622 50.932159 276.616853 50.928677 Q 262.602225 50.84163 248.632861 50.907786 Q 248.023529 50.907786 247.177429 51.088844 Z M 227.069484 89.354873 C 227.024219 89.424511 227.013773 89.508077 227.041628 89.581196 L 244.872414 141.172439 Q 245.130074 141.921046 245.321579 141.151547 Q 245.547902 140.228845 245.791635 139.504611 Q 249.210856 129.428006 252.946929 117.829813 Q 255.269353 110.625771 262.31671 90.019915 Q 262.487322 89.522004 262.341083 89.226043 Q 253.709464 71.6947 245.182303 52.871574 Q 244.900269 52.244833 244.68091 52.895948 C 244.444141 53.592327 244.022832 54.14943 243.622414 54.971157 C 238.364752 65.792888 233.176728 77.001109 228.622409 86.544984 Q 227.943439 87.962115 227.069484 89.354873 Z" style="fill:#a88351;"/>
		<path d="M 245.272832 144.999042 Q 245.715033 144.588178 245.906537 144.003219 Q 247.981747 137.673134 255.224089 115.587472 Q 256.91629 110.427303 262.233144 94.807521 Q 263.444844 91.249024 264.597351 88.258076 Q 269.405848 75.796373 276.341784 56.806116 Q 277.696241 53.10138 278.347355 51.106254 C 278.385656 50.987869 278.497077 50.907786 278.622425 50.907786 Q 287.288862 50.89734 295.990119 50.886894 C 297.650983 50.886894 297.93998 51.28383 299.186499 52.499012 Q 310.502658 63.512246 322.302801 75.510858 C 322.372439 75.580495 322.368957 75.691916 322.299319 75.761554 Q 311.31394 86.419635 301.857112 95.886909 Q 278.322982 119.462822 263.63983 134.097227 Q 256.759605 140.956561 245.203194 152.944727 C 245.091774 153.059629 244.910715 153.073557 244.785367 152.976064 Q 244.517261 152.76715 244.224782 152.474671 Q 204.162095 111.886217 194.882844 102.680086 C 181.57504 89.480221 173.664174 81.652921 167.703169 75.987877 Q 167.260969 75.57005 167.696205 75.145259 Q 186.97546 56.245531 191.860559 51.433552 Q 192.375879 50.925195 193.723373 50.914749 Q 202.758891 50.855557 210.641902 50.914749 C 210.84037 50.918231 211.014465 51.040098 211.080621 51.224638 Q 217.382851 68.620187 223.869622 85.740666 Q 225.307645 89.539414 226.275612 92.269219 Q 235.338985 117.91686 244.165589 143.836088 Q 244.371021 144.438456 244.60779 144.887621 C 244.73662 145.134835 245.0674 145.190546 245.272832 144.999042 Z" style="fill:#fefefe;"/>
		<path d="M 226.084107 87.492059 L 212.574354 51.217674 C 212.518643 51.060989 212.630064 50.89734 212.797195 50.89734 L 243.490102 50.89734 C 243.660715 50.89734 243.775617 51.078398 243.702497 51.235084 L 226.519344 87.509469 C 226.428815 87.700973 226.157227 87.687045 226.084107 87.492059 Z" style="fill:#fefefe;"/>
		<path d="M 246.703891 51.893162 L 247.177429 51.088844 Q 248.023529 50.907786 248.632861 50.907786 Q 262.602225 50.84163 276.616853 50.928677 Q 276.853622 50.932159 276.773539 51.155 Q 269.914205 70.583976 263.298604 87.408494 C 263.281195 87.45724 263.215038 87.45724 263.190665 87.411976 Q 254.820189 70.563084 246.73871 52.56865 Q 246.606398 52.279652 246.703891 51.893162 Z" style="fill:#fefefe;"/>
		<path d="M 227.069484 89.354873 Q 227.943439 87.962115 228.622409 86.544984 C 233.176728 77.001109 238.364752 65.792888 243.622414 54.971157 C 244.022832 54.14943 244.444141 53.592327 244.68091 52.895948 Q 244.900269 52.244833 245.182303 52.871574 Q 253.709464 71.6947 262.341083 89.226043 Q 262.487322 89.522004 262.31671 90.019915 Q 255.269353 110.625771 252.946929 117.829813 Q 249.210856 129.428006 245.791635 139.504611 Q 245.547902 140.228845 245.321579 141.151547 Q 245.130074 141.921046 244.872414 141.172439 L 227.041628 89.581196 C 227.013773 89.508077 227.024219 89.424511 227.069484 89.354873 Z" style="fill:#fefefe;"/>
	</g>
	<g id="surface4">
	</g>
</svg>
