<?xml version="1.0" encoding="utf-8"?>
<svg xmlns="http://www.w3.org/2000/svg" width="490pt" height="280pt" viewBox="0 0 490 280" version="1.1" xmlns:xlink="http://www.w3.org/1999/xlink">
	<g id="surface2">
		<path d="M 239.432381 11.676409 C 240.506799 13.529324 240.242747 15.851159 238.949804 17.731391 Q 227.358838 34.639814 216.355161 49.772716 C 214.975718 51.671157 213.869431 52.809312 211.524833 52.422339 C 207.941923 51.844157 206.19827 48.019958 207.859976 44.773941 C 209.093735 42.379264 211.078677 39.925403 212.335199 37.803883 C 213.291249 36.196809 215.030349 33.911395 216.068346 32.354399 Q 222.801668 22.256693 229.075175 13.023984 Q 230.664039 10.683938 231.574563 10.073887 C 234.128581 8.362103 237.82986 8.922075 239.432381 11.676409 Z" style="fill:#fadab7;"/>
		<path d="M 253.167629 17.940811 C 251.851923 16.069685 251.560555 13.743297 252.616763 11.872171 C 254.191968 9.090522 257.897799 8.489576 260.479134 10.178597 Q 261.398763 10.779543 263.019495 13.110483 Q 269.41137 22.302219 276.276718 32.354399 C 277.332925 33.902289 279.103894 36.174046 280.078154 37.776567 C 281.361992 39.893535 283.383355 42.329185 284.64443 44.71931 C 286.347109 47.956221 284.639877 51.812288 281.052414 52.431444 C 278.707816 52.84118 277.583319 51.712131 276.181113 49.827347 Q 264.97712 34.767287 253.167629 17.940811 Z" style="fill:#fadab7;"/>
		<path d="M 312.724977 71.739097 C 312.615714 73.300645 312.283373 75.60427 311.609586 79.619679 Q 311.300008 81.436173 311.086035 83.348273 Q 310.949456 84.582032 310.699062 85.84766 Q 310.475984 86.976709 310.284774 88.328837 Q 308.741436 99.318857 308.058544 103.092977 Q 307.630598 105.464891 307.521335 106.275257 Q 306.897626 110.964453 304.266213 127.822797 Q 303.587873 132.184205 301.944378 144.621957 Q 301.643905 146.889161 299.645306 149.748205 Q 297.050314 153.454036 293.663166 155.370688 C 290.385281 157.223604 287.881341 157.046052 283.255881 157.055157 Q 236.78731 157.155315 202.369519 157.055157 C 200.489287 157.050604 198.622714 156.818421 196.920035 156.058134 Q 190.63287 153.244616 188.010562 146.902819 Q 187.081828 144.658378 186.690302 140.788653 Q 186.32154 137.20119 185.843515 133.836806 Q 185.43378 130.986867 184.341152 122.259498 Q 184.231889 121.403606 183.703785 117.852564 C 183.421523 115.926807 183.230313 113.74155 182.970814 111.961476 Q 180.007059 91.488354 177.357436 71.907544 Q 177.33012 71.684466 177.102489 71.67536 Q 172.39053 71.511466 170.387378 71.561545 Q 166.312785 71.661703 165.588918 68.629659 Q 165.475103 68.137976 165.506971 63.817542 Q 165.561603 56.419538 165.506971 50.760634 C 165.488761 48.821218 166.080601 47.004724 167.46915 45.648044 C 169.353933 43.804233 171.279691 43.480998 174.093209 43.48555 Q 190.277765 43.499208 203.321016 43.417261 C 203.534989 43.412708 203.69433 43.603918 203.662462 43.817891 Q 203.507673 44.796704 203.18899 45.775517 C 202.733728 47.186829 202.856649 48.042721 202.902175 49.44948 Q 202.924938 50.282609 203.270937 51.08387 Q 206.002508 57.471193 213.163776 57.093325 Q 216.915133 56.897563 219.145916 53.870072 Q 221.34483 50.888107 226.002158 44.345995 C 226.553025 43.57205 227.258681 43.394498 228.260257 43.403603 Q 247.208253 43.562945 265.072725 43.367182 Q 265.787486 43.36263 266.192669 43.945365 Q 268.764898 47.646643 272.279519 52.663628 C 273.900251 54.971805 275.86243 56.911221 279.035604 57.184378 Q 286.579292 57.830849 289.383705 50.815265 Q 289.752467 49.891084 289.761572 47.878827 C 289.766125 46.663278 289.033153 45.347571 288.568786 44.054627 C 288.464076 43.758707 288.682602 43.444577 288.996732 43.444577 Q 300.715171 43.508313 315.206154 43.48555 Q 319.071327 43.476445 320.478085 44.100154 C 323.674023 45.52057 325.048914 48.643666 324.825836 52.126419 Q 324.821283 52.14463 324.79852 64.541408 C 324.793967 67.01348 325.504176 69.617577 322.827236 71.047099 Q 322.003212 71.488703 319.945429 71.561545 Q 316.125783 71.693571 312.966266 71.525124 C 312.843345 71.516019 312.734082 71.611624 312.724977 71.739097 Z M 232.198271 137.815794 C 232.025272 136.290667 232.070798 133.363333 231.834062 131.055156 C 231.592773 128.760637 231.583668 126.202065 231.415221 124.003151 Q 230.764197 115.439677 230.686802 111.934161 C 230.609408 108.237435 230.249751 105.018734 230.222435 100.757484 C 230.208777 98.8727 229.844568 97.197337 229.808147 95.171422 C 229.748963 92.02101 229.398411 89.371386 229.307359 85.524424 Q 229.248175 82.947642 228.751939 81.927856 C 226.949103 78.21292 222.496642 76.660477 218.982021 79.191733 Q 216.751239 80.798807 217.056264 83.525825 Q 220.534464 114.938889 221.376698 122.569076 Q 222.296327 130.863946 223.143114 139.23621 C 223.398061 141.794782 225.091635 144.143933 227.896047 144.075643 Q 230.363566 144.016459 231.802193 141.753808 C 232.626217 140.456312 232.371271 139.336368 232.198271 137.815794 Z M 193.878886 104.263 C 195.654407 115.931359 197.730401 129.798634 199.205449 139.313605 Q 199.578764 141.703729 200.220683 142.627911 Q 201.399811 144.316932 203.721646 144.180354 C 207.300004 143.970933 208.21508 141.116442 207.882739 137.96603 Q 206.808321 127.859218 205.875034 121.298896 C 205.342378 117.538433 204.969063 113.796182 204.559328 110.814217 Q 202.861201 98.572227 200.461972 83.330062 C 200.288972 82.237434 200.061341 81.09928 199.51958 80.284361 C 196.605904 75.904742 190.637422 78.900365 191.160973 83.644193 Q 191.456893 86.357553 192.608706 95.230606 Q 193.200546 99.815092 193.878886 104.263 Z M 268.682951 90.596041 Q 268.824082 89.457886 269.038055 85.538082 Q 269.038055 85.515319 269.110897 84.240586 C 269.242923 81.959724 267.699586 80.102256 265.769276 79.000523 C 262.45497 77.097528 256.75054 78.545261 256.19512 82.852037 Q 255.912858 84.991768 255.849121 86.712657 C 255.598727 93.441427 255.107045 102.191558 254.811124 109.698825 Q 254.45602 118.708456 254.191968 124.121519 C 254.014416 127.745403 253.900601 133.695674 253.527286 138.393976 Q 253.249577 141.904045 255.780832 143.379093 C 257.884142 144.599194 261.048211 144.057433 262.54147 142.086149 Q 263.23802 141.16652 263.492967 138.931185 Q 264.804121 127.349325 265.496119 120.415688 C 266.174459 113.563998 266.820931 108.569776 267.28985 103.079319 Q 267.581218 99.710382 267.754217 98.230781 Q 268.209479 94.383819 268.682951 90.596041 Z M 283.970642 102.05498 C 283.556354 105.692522 282.928093 109.452984 282.258858 113.554893 C 282.013017 115.052704 281.880991 116.964804 281.621491 118.239537 Q 281.28915 119.89669 281.088835 121.731395 C 280.879415 123.638941 280.442363 125.519173 280.21018 127.331115 C 279.764023 130.841183 279.199499 134.196462 278.671395 137.606373 Q 278.361817 139.586762 278.657737 140.529154 C 279.522735 143.283488 282.472831 144.5218 285.186191 143.94817 Q 288.304735 143.292593 288.910233 140.051129 Q 291.254831 127.422167 298.548125 85.506214 Q 299.007939 82.85659 297.760522 81.021885 C 295.429582 77.598316 290.098466 76.865345 287.494369 80.598492 Q 286.993581 81.317805 286.656687 83.748903 Q 285.240823 94.046925 284.207378 100.375064 Q 284.048037 101.367535 283.970642 102.05498 Z" style="fill:#fadab7;"/>
	</g>
	<g id="surface4">
	</g>
</svg>
