<?xml version="1.0" encoding="utf-8"?>
<svg xmlns="http://www.w3.org/2000/svg" width="490pt" height="280pt" viewBox="0 0 490 280" version="1.1" xmlns:xlink="http://www.w3.org/1999/xlink">
	<g id="surface2">
		<path vector-effect="non-scaling-stroke" d="M 287.433569 19.372359 Q 286.886832 19.667892 286.183463 19.656071 Q 280.787027 19.555589 273.416429 19.644249" style="fill:none;stroke-width:0.50;stroke:#538288;"/>
		<path vector-effect="non-scaling-stroke" d="M 273.416429 19.644249 L 215.252541 19.608785" style="fill:none;stroke-width:0.50;stroke:#365464;"/>
		<path vector-effect="non-scaling-stroke" d="M 215.252541 19.608785 L 204.311902 19.599919" style="fill:none;stroke-width:0.50;stroke:#538288;"/>
		<path vector-effect="non-scaling-stroke" d="M 204.311902 19.599919 Q 203.457811 19.653115 203.564203 19.363493" style="fill:none;stroke-width:0.50;stroke:#365464;"/>
		<path vector-effect="non-scaling-stroke" d="M 204.311902 19.599919 L 198.832716 19.69449" style="fill:none;stroke-width:0.50;stroke:#57898f;"/>
		<path vector-effect="non-scaling-stroke" d="M 201.944681 19.493527 Q 202.192929 19.555589 202.402757 19.440331" style="fill:none;stroke-width:0.50;stroke:#365464;"/>
		<path vector-effect="non-scaling-stroke" d="M 287.820717 19.434421 Q 288.045322 19.534902 288.240374 19.458063" style="fill:none;stroke-width:0.50;stroke:#57898f;"/>
		<path vector-effect="non-scaling-stroke" d="M 288.707317 19.51717 L 288.905324 19.528991" style="fill:none;stroke-width:0.50;stroke:#538288;"/>
		<path vector-effect="non-scaling-stroke" d="M 289.008761 19.579232 Q 289.720996 19.762462 290.424365 19.594009" style="fill:none;stroke-width:0.50;stroke:#57898f;"/>
		<path vector-effect="non-scaling-stroke" d="M 291.662649 19.735865 L 292.451722 19.777239" style="fill:none;stroke-width:0.50;stroke:#57898f;"/>
		<path vector-effect="non-scaling-stroke" d="M 292.844781 19.854078 Q 292.962995 19.927961 293.122583 19.898408" style="fill:none;stroke-width:0.50;stroke:#57898f;"/>
		<path vector-effect="non-scaling-stroke" d="M 326.086355 148.458304 C 324.608689 144.226268 324.360442 139.825779 323.529993 135.451888 C 321.399199 124.25709 317.737543 113.384424 313.100627 103.02303 C 308.63512 93.045829 303.56377 83.506018 297.579223 74.604558 Q 294.428839 69.917401 290.835156 66.722687 Q 287.643397 63.885569 284.029026 63.001925 Q 282.471566 62.620687 279.65809 62.413813" style="fill:none;stroke-width:0.50;stroke:#57898f;"/>
		<path vector-effect="non-scaling-stroke" d="M 279.65809 62.413813 C 275.609285 60.652436 270.812782 60.418964 266.713736 62.316288 Q 260.885821 65.01155 258.55702 70.608949 C 255.643063 77.618996 258.15805 85.778668 264.674557 89.688572 Q 265.599576 90.241219 266.639853 90.826375" style="fill:none;stroke-width:0.50;stroke:#b4d3c1;"/>
		<path vector-effect="non-scaling-stroke" d="M 266.639853 90.826375 L 251.815908 90.891392" style="fill:none;stroke-width:0.50;stroke:#538288;"/>
		<path vector-effect="non-scaling-stroke" d="M 251.815908 90.891392 L 231.790578 90.909124" style="fill:none;stroke-width:0.50;stroke:#57898f;"/>
		<path vector-effect="non-scaling-stroke" d="M 231.790578 90.909124 L 222.052759 90.82342" style="fill:none;stroke-width:0.50;stroke:#538288;"/>
		<path vector-effect="non-scaling-stroke" d="M 222.052759 90.82342 C 225.073109 89.144791 227.322116 87.466163 229.077584 84.496054 Q 231.784668 79.912334 231.187691 74.858716 C 230.599579 69.867161 227.830433 65.443029 223.424033 62.957595 Q 220.885403 61.524259 217.838456 61.172574 Q 212.926694 60.60515 208.366617 62.644329" style="fill:none;stroke-width:0.50;stroke:#b4d3c1;"/>
		<path vector-effect="non-scaling-stroke" d="M 208.366617 62.644329 Q 202.234303 62.868935 197.783573 66.953203 Q 194.053944 70.378433 191.16363 74.589781 Q 180.237767 90.519021 173.204077 108.392868 C 170.284209 115.810752 168.02338 123.692622 166.51025 131.273048 Q 165.464063 136.501031 165.30152 138.36289 C 165.062138 141.037465 164.849354 143.623381 164.213957 146.1561 Q 163.92729 147.302769 163.732238 148.461259" style="fill:none;stroke-width:0.50;stroke:#57898f;"/>
		<path vector-effect="non-scaling-stroke" d="M 196.545289 19.927961 L 196.846733 19.865899" style="fill:none;stroke-width:0.50;stroke:#57898f;"/>
		<path vector-effect="non-scaling-stroke" d="M 197.360961 19.759507 L 198.102749 19.724043" style="fill:none;stroke-width:0.50;stroke:#57898f;"/>
		<path vector-effect="non-scaling-stroke" d="M 215.252541 19.608785 Q 211.904149 21.863704 209.77631 25.031819 C 209.270949 25.782474 208.721257 26.946875 208.715346 27.768457 Q 208.620776 40.854667 208.679882 51.69778 C 208.694659 54.144795 210.97322 56.645005 212.849856 58.326589 C 213.502984 58.911745 214.179755 58.938343 215.110685 58.938343 Q 266.607344 58.938343 272.766256 58.926522 C 273.759248 58.926522 274.923648 59.015182 275.706811 58.362053 C 277.459323 56.896209 279.859053 54.260053 279.870874 51.821904 Q 279.897472 45.914195 279.870874 28.350657 Q 279.867919 26.828661 279.510324 26.175533 Q 277.38544 22.298137 273.416429 19.644249" style="fill:none;stroke-width:0.50;stroke:#57898f;"/>
		<path vector-effect="non-scaling-stroke" d="M 196.545289 19.927961 Q 195.850786 20.096415 195.135596 20.18212 Q 183.872826 21.514974 172.793286 23.935391 Q 169.146406 24.730376 164.982344 26.41787" style="fill:none;stroke-width:0.50;stroke:#57898f;"/>
		<path vector-effect="non-scaling-stroke" d="M 209.891568 90.926856 L 210.003871 91.603627 Q 210.027514 91.754349 209.888613 91.813456 Q 203.581935 94.612155 198.288935 99.308178 Q 191.577376 105.269082 186.621284 112.610127 Q 185.734685 113.922294 185.383 114.776385" style="fill:none;stroke-width:0.50;stroke:#365464;"/>
		<path vector-effect="non-scaling-stroke" d="M 231.790578 90.909124 L 235.63842 91.080534 C 235.845294 91.092355 236.019658 91.237166 236.063988 91.438129 Q 236.359521 92.747341 236.501377 94.168856 C 236.714161 96.34398 237.559386 96.78728 239.645851 96.805012 Q 246.768201 96.872984 250.692882 96.810922 C 251.830684 96.79319 253.110343 96.373533 253.323127 95.076142 Q 253.565464 93.58961 253.541822 91.071668 Q 253.538866 90.920946 253.388144 90.91799 L 251.815908 90.891392" style="fill:none;stroke-width:0.50;stroke:#365464;"/>
		<path vector-effect="non-scaling-stroke" d="M 304.024802 115.092606 Q 299.408574 108.345583 295.002174 103.906674 Q 290.415499 99.284535 285.270266 95.489889 Q 282.099194 93.149266 278.815821 91.680466 Q 278.659188 91.612493 278.706473 91.446995 Q 278.727161 91.367201 278.80991 91.311049 Q 278.931079 91.231256 278.880838 91.09531 L 278.818776 90.926856" style="fill:none;stroke-width:0.50;stroke:#365464;"/>
		<path vector-effect="non-scaling-stroke" d="M 324.753501 26.456289 Q 322.052327 25.418968 321.118442 25.173675 C 312.018975 22.773946 302.677171 21.237173 293.356054 19.987068" style="fill:none;stroke-width:0.50;stroke:#57898f;"/>
		<path vector-effect="non-scaling-stroke" d="M 279.65809 62.413813 Q 286.080027 65.717875 287.989171 72.225516 C 289.280651 76.62896 288.627523 81.138797 286.124357 84.912756 C 285.716521 85.53042 285.122499 86.414064 284.469371 87.076059 Q 282.054864 89.523074 278.818776 90.926856" style="fill:none;stroke-width:0.50;stroke:#97a59d;"/>
		<path vector-effect="non-scaling-stroke" d="M 278.818776 90.926856 Q 272.795809 93.202462 266.639853 90.826375" style="fill:none;stroke-width:0.50;stroke:#939e96;"/>
		<path vector-effect="non-scaling-stroke" d="M 222.052759 90.82342 Q 215.997284 93.18473 209.891568 90.926856" style="fill:none;stroke-width:0.50;stroke:#939e96;"/>
		<path vector-effect="non-scaling-stroke" d="M 209.891568 90.926856 C 201.194026 87.262245 197.423023 77.616041 201.912172 69.169702 Q 203.974994 65.289351 208.366617 62.644329" style="fill:none;stroke-width:0.50;stroke:#97a59d;"/>
		<path vector-effect="non-scaling-stroke" d="M 288.578523 26.020526 C 288.574327 24.579654 287.40106 23.418208 285.962848 23.423025 L 285.324496 23.425271 C 283.884215 23.430029 282.722769 24.600341 282.726996 26.040947 L 282.748126 32.093437 C 282.752323 33.534309 283.92559 34.695755 285.363802 34.690938 L 286.002154 34.688692 C 287.442435 34.683934 288.60388 33.513622 288.599654 32.073016 L 288.578523 26.020526" style="fill:none;stroke-width:0.50;stroke:#b4d3c1;"/>
		<path vector-effect="non-scaling-stroke" d="M 204.868686 26.19226 C 204.873415 24.674224 203.646952 23.438895 202.129832 23.434226 L 201.438285 23.431803 C 199.920278 23.427074 198.68495 24.653537 198.680251 26.170657 L 198.660125 31.939435 C 198.655396 33.457471 199.881859 34.6928 201.398979 34.697469 L 202.090526 34.699892 C 203.608533 34.704621 204.843861 33.478158 204.84856 31.961039 L 204.868686 26.19226" style="fill:none;stroke-width:0.50;stroke:#b4d3c1;"/>
		<path vector-effect="non-scaling-stroke" d="M 177.078517 37.840228 L 173.653288 40.269511" style="fill:none;stroke-width:0.50;stroke:#57898f;"/>
		<path vector-effect="non-scaling-stroke" d="M 173.653288 40.269511 Q 173.475968 39.702087 172.624832 39.610472 C 170.053693 39.332671 165.768462 39.23219 165.585231 42.828829 Q 165.543857 43.629723 165.552723 48.446915 Q 165.555678 50.503826 165.892586 51.219016 Q 166.628464 52.794208 168.212522 53.16658 Q 170.366959 53.671942 173.425727 53.145892" style="fill:none;stroke-width:0.50;stroke:#b4d3c1;"/>
		<path vector-effect="non-scaling-stroke" d="M 173.425727 53.145892 Q 175.355559 54.10342 177.161267 55.790915" style="fill:none;stroke-width:0.50;stroke:#57898f;"/>
		<path vector-effect="non-scaling-stroke" d="M 177.161267 55.790915 Q 176.957349 60.123431 177.093294 61.305564 Q 177.341542 63.49842 178.981751 64.290449 Q 179.835842 64.704196 182.141001 64.698285 Q 184.895371 64.69533 185.578052 64.70124 Q 187.546303 64.724883 188.429948 64.302271 Q 190.353869 63.380207 190.407065 60.744051 Q 190.457305 58.314768 190.424797 55.947547" style="fill:none;stroke-width:0.50;stroke:#b4d3c1;"/>
		<path vector-effect="non-scaling-stroke" d="M 190.424797 55.947547 Q 191.884731 54.218678 193.912088 53.119294" style="fill:none;stroke-width:0.50;stroke:#57898f;"/>
		<path vector-effect="non-scaling-stroke" d="M 193.912088 53.119294 Q 195.70302 53.450292 197.641717 53.3439 Q 199.737048 53.231597 200.656156 52.551871 Q 202.045162 51.529326 202.074715 49.428085 Q 202.130867 45.577287 202.042207 43.189379 Q 201.93877 40.331573 199.293748 39.716864 Q 196.489138 39.069646 193.681572 40.044906" style="fill:none;stroke-width:0.50;stroke:#b4d3c1;"/>
		<path vector-effect="non-scaling-stroke" d="M 193.681572 40.044906 Q 191.807892 39.116932 190.191325 37.668819" style="fill:none;stroke-width:0.50;stroke:#57898f;"/>
		<path vector-effect="non-scaling-stroke" d="M 190.191325 37.668819 Q 190.294762 36.324143 190.288851 34.908539 Q 190.279985 32.760013 190.179504 32.151214 Q 189.65641 28.962411 185.793791 29.080624 Q 181.783406 29.201793 181.012064 29.184061 Q 178.621201 29.13382 177.577969 30.833136 Q 177.14649 31.530594 177.099205 33.061456 Q 177.028277 35.381392 177.078517 37.840228" style="fill:none;stroke-width:0.50;stroke:#b4d3c1;"/>
		<path vector-effect="non-scaling-stroke" d="M 190.191325 37.668819 Q 189.824864 38.579061 189.050567 39.382911 Q 186.706989 41.803328 184.372277 44.232611 Q 183.787121 44.84141 183.133993 44.217835 Q 179.327525 40.576866 177.078517 37.840228" style="fill:none;stroke-width:0.50;stroke:#97a59d;"/>
		<path vector-effect="non-scaling-stroke" d="M 193.681572 40.044906 L 186.316885 46.422512 C 186.248913 46.481619 186.248913 46.588011 186.319841 46.647117 L 193.912088 53.119294" style="fill:none;stroke-width:0.50;stroke:#97a59d;"/>
		<path vector-effect="non-scaling-stroke" d="M 190.424797 55.947547 Q 189.647544 54.8127 189.260396 54.419641 Q 186.662659 51.789395 183.840317 49.020249 C 183.772344 48.955232 183.665952 48.952276 183.595024 49.017294 Q 181.322374 51.153999 178.999483 53.56555 Q 177.693227 54.919092 177.161267 55.790915" style="fill:none;stroke-width:0.50;stroke:#97a59d;"/>
		<path vector-effect="non-scaling-stroke" d="M 173.425727 53.145892 L 181.283955 46.809661 Q 181.487873 46.644162 181.283955 46.481619 L 173.653288 40.269511" style="fill:none;stroke-width:0.50;stroke:#97a59d;"/>
		<path vector-effect="non-scaling-stroke" d="M 304.55889 42.638594 C 308.123848 42.961818 311.286053 40.228136 311.622872 36.527351 C 311.959869 32.827985 309.341444 29.565299 305.778142 29.241306 C 302.213184 28.918081 299.050979 31.651763 298.714159 35.352548 C 298.377163 39.051914 300.995587 42.314601 304.55889 42.638594" style="fill:none;stroke-width:0.50;stroke:#b4d3c1;"/>
		<path vector-effect="non-scaling-stroke" d="M 292.646863 56.225082 C 296.275922 56.257857 299.24603 53.25524 299.278303 49.520912 C 299.311048 45.787116 296.394135 42.734258 292.764899 42.702015 C 289.13584 42.669241 286.165731 45.671858 286.133459 49.406186 C 286.100714 53.139982 289.017627 56.19284 292.646863 56.225082" style="fill:none;stroke-width:0.50;stroke:#b4d3c1;"/>
		<path vector-effect="non-scaling-stroke" d="M 317.494141 56.262172 C 321.147996 56.491328 324.301335 53.642388 324.536491 49.89751 C 324.771233 46.153577 322.002087 42.92931 318.347405 42.70039 C 314.693551 42.471233 311.540211 45.320173 311.305056 49.065052 C 311.070314 52.808985 313.83946 56.033252 317.494141 56.262172" style="fill:none;stroke-width:0.50;stroke:#b4d3c1;"/>
		<path vector-effect="non-scaling-stroke" d="M 302.263631 68.249944 C 305.396076 69.893759 309.282338 68.65843 310.945155 65.49123 C 312.607086 62.322198 311.419043 58.424115 308.286184 56.778646 C 305.153739 55.134831 301.267478 56.37016 299.60466 59.537359 C 297.942729 62.706391 299.130773 66.604474 302.263631 68.249944" style="fill:none;stroke-width:0.50;stroke:#b4d3c1;"/>
		<path vector-effect="non-scaling-stroke" d="M 249.416178 70.068123 C 249.416178 69.952865 249.321607 69.858295 249.20635 69.858295 L 239.625163 69.858295 C 239.509905 69.858295 239.415335 69.952865 239.415335 70.068123 L 239.415335 83.556258 C 239.415335 83.671516 239.509905 83.766087 239.625163 83.766087 L 249.20635 83.766087 C 249.321607 83.766087 249.416178 83.671516 249.416178 83.556258 L 249.416178 70.068123" style="fill:none;stroke-width:0.50;stroke:#57898f;"/>
		<path vector-effect="non-scaling-stroke" d="M 282.131703 76.714665 C 282.131703 71.746752 278.103586 67.718634 273.135673 67.718634 C 268.167759 67.718634 264.139642 71.746752 264.139642 76.714665 C 264.139642 81.682578 268.167759 85.710695 273.135673 85.710695 C 278.103586 85.710695 282.131703 81.682578 282.131703 76.714665" style="fill:none;stroke-width:0.50;stroke:#97a59d;"/>
		<path vector-effect="non-scaling-stroke" d="M 223.81133 80.864483 C 226.089743 76.448685 224.316544 71.002008 219.851421 68.696997 C 215.38553 66.39169 209.918166 68.102828 207.639458 72.517562 C 205.361044 76.933359 207.134244 82.380036 211.599366 84.685047 C 216.065257 86.990354 221.532621 85.279217 223.81133 80.864483" style="fill:none;stroke-width:0.50;stroke:#97a59d;"/>
		<path vector-effect="non-scaling-stroke" d="M 242.40022 73.398782 L 242.40022 79.155769 C 242.40022 79.47199 242.654379 79.726148 242.970599 79.726148 L 243.812869 79.726148 C 245.78112 79.726148 247.376999 78.207108 247.376999 76.333427 L 247.376999 76.221124 C 247.376999 74.347444 245.78112 72.828403 243.812869 72.828403 L 242.970599 72.828403 C 242.654379 72.828403 242.40022 73.082562 242.40022 73.398782" style="fill:none;stroke-width:0.50;stroke:#97a59d;"/>
		<path d="M 287.433569 19.372359 Q 286.886832 19.667892 286.183463 19.656071 Q 280.787027 19.555589 273.416429 19.644249 L 215.252541 19.608785 L 204.311902 19.599919 Q 203.457811 19.653115 203.564203 19.363493 Q 207.021941 17.120396 210.550607 15.039842 Q 211.357413 14.564034 212.229236 14.159153 C 213.003533 13.801558 213.677349 13.381901 214.48711 12.991797 Q 225.108573 7.887939 236.634367 6.401407 C 239.229149 6.067454 241.504754 6.102918 243.948814 5.931509 Q 244.950672 5.863536 247.882361 6.017214 Q 249.853567 6.12065 251.824774 6.123605 C 251.951853 6.123605 252.14395 6.215221 252.297627 6.232953 Q 257.342378 6.832885 259.585475 7.282096 Q 261.7606 7.716529 265.309953 8.709521 Q 273.431206 10.979216 280.600841 15.019155 Q 283.369987 16.57957 287.433569 19.372359 Z" style="fill:#324d5d;"/>
		<path d="M 196.545289 19.927961 Q 195.850786 20.096415 195.135596 20.18212 Q 183.872826 21.514974 172.793286 23.935391 Q 169.146406 24.730376 164.982344 26.41787 Q 166.170387 23.586662 167.370252 21.692294 Q 168.286405 20.244182 169.755205 18.976344 C 173.133149 16.065342 177.199686 14.522659 181.573577 13.890218 Q 184.457981 13.476471 187.265547 14.079359 Q 189.174691 14.493106 192.709268 15.282179 C 193.256005 15.403348 193.687483 15.757988 194.053944 16.242662 Q 195.318826 17.912425 196.234979 19.664937 Q 196.308863 19.806792 196.545289 19.927961 Z" style="fill:#395b6b;"/>
		<path d="M 324.753501 26.456289 Q 322.052327 25.418968 321.118442 25.173675 C 312.018975 22.773946 302.677171 21.237173 293.356054 19.987068 L 293.489044 19.942738 Q 293.6309 19.892497 293.687051 19.750641 Q 294.558874 17.593249 296.083825 15.86438 Q 296.57441 15.308777 297.354618 15.137368 Q 301.710777 14.17393 302.949061 13.937503 Q 305.582262 13.429186 308.803574 14.023208 Q 314.321179 15.036887 318.78373 18.080879 C 319.906756 18.84631 321.05047 19.978202 321.940025 21.319922 Q 323.252192 23.30295 323.379271 23.592573 Q 324.005802 25.025909 324.753501 26.456289 Z" style="fill:#395b6b;"/>
		<path d="M 203.564203 19.363493 Q 203.457811 19.653115 204.311902 19.599919 L 198.832716 19.69449 L 201.944681 19.493527 Q 202.192929 19.555589 202.402757 19.440331 L 203.564203 19.363493 Z" style="fill:#395b6b;"/>
		<path d="M 202.402757 19.440331 Q 202.192929 19.555589 201.944681 19.493527 Q 202.130867 19.396001 202.402757 19.440331 Z" style="fill:#324d5d;"/>
		<path d="M 287.433569 19.372359 Q 287.607933 19.434421 287.820717 19.434421 Q 288.045322 19.534902 288.240374 19.458063 L 288.707317 19.51717 L 288.905324 19.528991 Q 288.95852 19.552634 289.008761 19.579232 Q 289.720996 19.762462 290.424365 19.594009 L 291.662649 19.735865 L 292.451722 19.777239 L 292.844781 19.854078 Q 292.962995 19.927961 293.122583 19.898408 Q 293.270349 19.92205 293.356054 19.987068 C 302.677171 21.237173 312.018975 22.773946 321.118442 25.173675 Q 322.052327 25.418968 324.753501 26.456289 Q 325.563262 27.987151 326.26072 29.645093 Q 328.79935 35.67397 330.705539 40.683258 Q 333.421489 47.814474 334.819361 51.594343 Q 335.351321 53.027679 336.758059 57.132635 Q 342.698276 74.468613 347.698698 92.239024 C 349.460076 98.492506 351.14166 105.328189 352.246954 112.27913 Q 353.316784 118.996599 353.030117 125.646096 Q 352.78778 131.267138 351.061866 134.990856 Q 349.619664 138.111687 346.587493 140.999046 C 341.140816 146.188609 333.492417 148.490812 326.086355 148.458304 C 324.608689 144.226268 324.360442 139.825779 323.529993 135.451888 C 321.399199 124.25709 317.737543 113.384424 313.100627 103.02303 C 308.63512 93.045829 303.56377 83.506018 297.579223 74.604558 Q 294.428839 69.917401 290.835156 66.722687 Q 287.643397 63.885569 284.029026 63.001925 Q 282.471566 62.620687 279.65809 62.413813 C 275.609285 60.652436 270.812782 60.418964 266.713736 62.316288 Q 260.885821 65.01155 258.55702 70.608949 C 255.643063 77.618996 258.15805 85.778668 264.674557 89.688572 Q 265.599576 90.241219 266.639853 90.826375 L 251.815908 90.891392 L 231.790578 90.909124 L 222.052759 90.82342 C 225.073109 89.144791 227.322116 87.466163 229.077584 84.496054 Q 231.784668 79.912334 231.187691 74.858716 C 230.599579 69.867161 227.830433 65.443029 223.424033 62.957595 Q 220.885403 61.524259 217.838456 61.172574 Q 212.926694 60.60515 208.366617 62.644329 Q 202.234303 62.868935 197.783573 66.953203 Q 194.053944 70.378433 191.16363 74.589781 Q 180.237767 90.519021 173.204077 108.392868 C 170.284209 115.810752 168.02338 123.692622 166.51025 131.273048 Q 165.464063 136.501031 165.30152 138.36289 C 165.062138 141.037465 164.849354 143.623381 164.213957 146.1561 Q 163.92729 147.302769 163.732238 148.461259 Q 155.711467 148.69473 148.47977 144.903039 Q 144.416189 142.76929 141.481544 139.598219 C 139.436454 137.384675 137.929235 134.730787 137.237687 131.63951 Q 136.614112 128.855587 136.531363 125.953451 Q 136.345177 119.608353 137.264285 113.546967 Q 138.174527 107.529911 139.767451 101.004538 Q 142.02828 91.733662 145.379627 80.745738 Q 147.953721 72.302354 150.063828 65.779937 Q 154.094901 53.314346 156.521228 46.818527 Q 159.801647 38.023459 163.380554 29.671691 Q 164.154851 27.860072 164.982344 26.41787 Q 169.146406 24.730376 172.793286 23.935391 Q 183.872826 21.514974 195.135596 20.18212 Q 195.850786 20.096415 196.545289 19.927961 L 196.846733 19.865899 Q 197.077249 19.762462 197.360961 19.759507 L 198.102749 19.724043 L 198.832716 19.69449 L 204.311902 19.599919 L 215.252541 19.608785 Q 211.904149 21.863704 209.77631 25.031819 C 209.270949 25.782474 208.721257 26.946875 208.715346 27.768457 Q 208.620776 40.854667 208.679882 51.69778 C 208.694659 54.144795 210.97322 56.645005 212.849856 58.326589 C 213.502984 58.911745 214.179755 58.938343 215.110685 58.938343 Q 266.607344 58.938343 272.766256 58.926522 C 273.759248 58.926522 274.923648 59.015182 275.706811 58.362053 C 277.459323 56.896209 279.859053 54.260053 279.870874 51.821904 Q 279.897472 45.914195 279.870874 28.350657 Q 279.867919 26.828661 279.510324 26.175533 Q 277.38544 22.298137 273.416429 19.644249 Q 280.787027 19.555589 286.183463 19.656071 Q 286.886832 19.667892 287.433569 19.372359 Z M 288.578523 26.020526 C 288.574327 24.579654 287.40106 23.418208 285.962848 23.423025 L 285.324496 23.425271 C 283.884215 23.430029 282.722769 24.600341 282.726996 26.040947 L 282.748126 32.093437 C 282.752323 33.534309 283.92559 34.695755 285.363802 34.690938 L 286.002154 34.688692 C 287.442435 34.683934 288.60388 33.513622 288.599654 32.073016 L 288.578523 26.020526 Z M 204.868686 26.19226 C 204.873415 24.674224 203.646952 23.438895 202.129832 23.434226 L 201.438285 23.431803 C 199.920278 23.427074 198.68495 24.653537 198.680251 26.170657 L 198.660125 31.939435 C 198.655396 33.457471 199.881859 34.6928 201.398979 34.697469 L 202.090526 34.699892 C 203.608533 34.704621 204.843861 33.478158 204.84856 31.961039 L 204.868686 26.19226 Z M 177.078517 37.840228 L 173.653288 40.269511 Q 173.475968 39.702087 172.624832 39.610472 C 170.053693 39.332671 165.768462 39.23219 165.585231 42.828829 Q 165.543857 43.629723 165.552723 48.446915 Q 165.555678 50.503826 165.892586 51.219016 Q 166.628464 52.794208 168.212522 53.16658 Q 170.366959 53.671942 173.425727 53.145892 Q 175.355559 54.10342 177.161267 55.790915 Q 176.957349 60.123431 177.093294 61.305564 Q 177.341542 63.49842 178.981751 64.290449 Q 179.835842 64.704196 182.141001 64.698285 Q 184.895371 64.69533 185.578052 64.70124 Q 187.546303 64.724883 188.429948 64.302271 Q 190.353869 63.380207 190.407065 60.744051 Q 190.457305 58.314768 190.424797 55.947547 Q 191.884731 54.218678 193.912088 53.119294 Q 195.70302 53.450292 197.641717 53.3439 Q 199.737048 53.231597 200.656156 52.551871 Q 202.045162 51.529326 202.074715 49.428085 Q 202.130867 45.577287 202.042207 43.189379 Q 201.93877 40.331573 199.293748 39.716864 Q 196.489138 39.069646 193.681572 40.044906 Q 191.807892 39.116932 190.191325 37.668819 Q 190.294762 36.324143 190.288851 34.908539 Q 190.279985 32.760013 190.179504 32.151214 Q 189.65641 28.962411 185.793791 29.080624 Q 181.783406 29.201793 181.012064 29.184061 Q 178.621201 29.13382 177.577969 30.833136 Q 177.14649 31.530594 177.099205 33.061456 Q 177.028277 35.381392 177.078517 37.840228 Z M 304.55889 42.638594 C 308.123848 42.961818 311.286053 40.228136 311.622872 36.527351 C 311.959869 32.827985 309.341444 29.565299 305.778142 29.241306 C 302.213184 28.918081 299.050979 31.651763 298.714159 35.352548 C 298.377163 39.051914 300.995587 42.314601 304.55889 42.638594 Z M 292.646863 56.225082 C 296.275922 56.257857 299.24603 53.25524 299.278303 49.520912 C 299.311048 45.787116 296.394135 42.734258 292.764899 42.702015 C 289.13584 42.669241 286.165731 45.671858 286.133459 49.406186 C 286.100714 53.139982 289.017627 56.19284 292.646863 56.225082 Z M 317.494141 56.262172 C 321.147996 56.491328 324.301335 53.642388 324.536491 49.89751 C 324.771233 46.153577 322.002087 42.92931 318.347405 42.70039 C 314.693551 42.471233 311.540211 45.320173 311.305056 49.065052 C 311.070314 52.808985 313.83946 56.033252 317.494141 56.262172 Z M 302.263631 68.249944 C 305.396076 69.893759 309.282338 68.65843 310.945155 65.49123 C 312.607086 62.322198 311.419043 58.424115 308.286184 56.778646 C 305.153739 55.134831 301.267478 56.37016 299.60466 59.537359 C 297.942729 62.706391 299.130773 66.604474 302.263631 68.249944 Z M 249.416178 70.068123 C 249.416178 69.952865 249.321607 69.858295 249.20635 69.858295 L 239.625163 69.858295 C 239.509905 69.858295 239.415335 69.952865 239.415335 70.068123 L 239.415335 83.556258 C 239.415335 83.671516 239.509905 83.766087 239.625163 83.766087 L 249.20635 83.766087 C 249.321607 83.766087 249.416178 83.671516 249.416178 83.556258 L 249.416178 70.068123 Z" style="fill:#74b7b3;"/>
		<path d="M 288.240374 19.458063 Q 288.045322 19.534902 287.820717 19.434421 L 288.240374 19.458063 Z" style="fill:#395b6b;"/>
		<path d="M 273.416429 19.644249 Q 277.38544 22.298137 279.510324 26.175533 Q 279.867919 26.828661 279.870874 28.350657 Q 279.897472 45.914195 279.870874 51.821904 C 279.859053 54.260053 277.459323 56.896209 275.706811 58.362053 C 274.923648 59.015182 273.759248 58.926522 272.766256 58.926522 Q 266.607344 58.938343 215.110685 58.938343 C 214.179755 58.938343 213.502984 58.911745 212.849856 58.326589 C 210.97322 56.645005 208.694659 54.144795 208.679882 51.69778 Q 208.620776 40.854667 208.715346 27.768457 C 208.721257 26.946875 209.270949 25.782474 209.77631 25.031819 Q 211.904149 21.863704 215.252541 19.608785 L 273.416429 19.644249 Z" style="fill:#395b6b;"/>
		<path d="M 288.905324 19.528991 L 288.707317 19.51717 L 288.905324 19.528991 Z" style="fill:#324d5d;"/>
		<path d="M 290.424365 19.594009 Q 289.720996 19.762462 289.008761 19.579232 L 290.424365 19.594009 Z" style="fill:#395b6b;"/>
		<path d="M 198.102749 19.724043 L 197.360961 19.759507 L 198.102749 19.724043 Z" style="fill:#395b6b;"/>
		<path d="M 292.451722 19.777239 L 291.662649 19.735865 L 292.451722 19.777239 Z" style="fill:#395b6b;"/>
		<path d="M 196.846733 19.865899 L 196.545289 19.927961 Q 196.663502 19.842256 196.846733 19.865899 Z" style="fill:#395b6b;"/>
		<path d="M 293.122583 19.898408 Q 292.962995 19.927961 292.844781 19.854078 L 293.122583 19.898408 Z" style="fill:#395b6b;"/>
		<path d="M 279.65809 62.413813 Q 286.080027 65.717875 287.989171 72.225516 C 289.280651 76.62896 288.627523 81.138797 286.124357 84.912756 C 285.716521 85.53042 285.122499 86.414064 284.469371 87.076059 Q 282.054864 89.523074 278.818776 90.926856 Q 272.795809 93.202462 266.639853 90.826375 Q 265.599576 90.241219 264.674557 89.688572 C 258.15805 85.778668 255.643063 77.618996 258.55702 70.608949 Q 260.885821 65.01155 266.713736 62.316288 C 270.812782 60.418964 275.609285 60.652436 279.65809 62.413813 Z M 282.131703 76.714665 C 282.131703 71.746752 278.103586 67.718634 273.135673 67.718634 C 268.167759 67.718634 264.139642 71.746752 264.139642 76.714665 C 264.139642 81.682578 268.167759 85.710695 273.135673 85.710695 C 278.103586 85.710695 282.131703 81.682578 282.131703 76.714665 Z" style="fill:#f4eece;"/>
		<path d="M 222.052759 90.82342 Q 215.997284 93.18473 209.891568 90.926856 C 201.194026 87.262245 197.423023 77.616041 201.912172 69.169702 Q 203.974994 65.289351 208.366617 62.644329 Q 212.926694 60.60515 217.838456 61.172574 Q 220.885403 61.524259 223.424033 62.957595 C 227.830433 65.443029 230.599579 69.867161 231.187691 74.858716 Q 231.784668 79.912334 229.077584 84.496054 C 227.322116 87.466163 225.073109 89.144791 222.052759 90.82342 Z M 223.81133 80.864483 C 226.089743 76.448685 224.316544 71.002008 219.851421 68.696997 C 215.38553 66.39169 209.918166 68.102828 207.639458 72.517562 C 205.361044 76.933359 207.134244 82.380036 211.599366 84.685047 C 216.065257 86.990354 221.532621 85.279217 223.81133 80.864483 Z" style="fill:#f4eece;"/>
		<path d="M 326.086355 148.458304 C 323.793018 148.210056 322.353771 147.896791 321.2337 145.597542 C 318.807373 140.629629 316.564276 135.759242 313.836504 130.746999 Q 309.459658 122.705541 304.024802 115.092606 Q 299.408574 108.345583 295.002174 103.906674 Q 290.415499 99.284535 285.270266 95.489889 Q 282.099194 93.149266 278.815821 91.680466 Q 278.659188 91.612493 278.706473 91.446995 Q 278.727161 91.367201 278.80991 91.311049 Q 278.931079 91.231256 278.880838 91.09531 L 278.818776 90.926856 Q 282.054864 89.523074 284.469371 87.076059 C 285.122499 86.414064 285.716521 85.53042 286.124357 84.912756 C 288.627523 81.138797 289.280651 76.62896 287.989171 72.225516 Q 286.080027 65.717875 279.65809 62.413813 Q 282.471566 62.620687 284.029026 63.001925 Q 287.643397 63.885569 290.835156 66.722687 Q 294.428839 69.917401 297.579223 74.604558 C 303.56377 83.506018 308.63512 93.045829 313.100627 103.02303 C 317.737543 113.384424 321.399199 124.25709 323.529993 135.451888 C 324.360442 139.825779 324.608689 144.226268 326.086355 148.458304 Z" style="fill:#395b6b;"/>
		<path d="M 208.366617 62.644329 Q 203.974994 65.289351 201.912172 69.169702 C 197.423023 77.616041 201.194026 87.262245 209.891568 90.926856 L 210.003871 91.603627 Q 210.027514 91.754349 209.888613 91.813456 Q 203.581935 94.612155 198.288935 99.308178 Q 191.577376 105.269082 186.621284 112.610127 Q 185.734685 113.922294 185.383 114.776385 C 184.895371 115.391094 184.348634 115.958518 183.955575 116.576182 C 182.200108 119.336463 180.344159 121.972619 178.890136 124.511249 Q 175.497415 130.439645 173.883804 133.77917 Q 170.949159 139.8376 168.19479 145.981736 Q 167.30819 147.961808 165.239458 148.195279 Q 164.243511 148.310537 163.732238 148.461259 Q 163.92729 147.302769 164.213957 146.1561 C 164.849354 143.623381 165.062138 141.037465 165.30152 138.36289 Q 165.464063 136.501031 166.51025 131.273048 C 168.02338 123.692622 170.284209 115.810752 173.204077 108.392868 Q 180.237767 90.519021 191.16363 74.589781 Q 194.053944 70.378433 197.783573 66.953203 Q 202.234303 62.868935 208.366617 62.644329 Z" style="fill:#395b6b;"/>
		<path d="M 222.052759 90.82342 L 231.790578 90.909124 L 235.63842 91.080534 C 235.845294 91.092355 236.019658 91.237166 236.063988 91.438129 Q 236.359521 92.747341 236.501377 94.168856 C 236.714161 96.34398 237.559386 96.78728 239.645851 96.805012 Q 246.768201 96.872984 250.692882 96.810922 C 251.830684 96.79319 253.110343 96.373533 253.323127 95.076142 Q 253.565464 93.58961 253.541822 91.071668 Q 253.538866 90.920946 253.388144 90.91799 L 251.815908 90.891392 L 266.639853 90.826375 Q 272.795809 93.202462 278.818776 90.926856 L 278.880838 91.09531 Q 278.931079 91.231256 278.80991 91.311049 Q 278.727161 91.367201 278.706473 91.446995 Q 278.659188 91.612493 278.815821 91.680466 Q 282.099194 93.149266 285.270266 95.489889 Q 290.415499 99.284535 295.002174 103.906674 Q 299.408574 108.345583 304.024802 115.092606 Q 302.952017 117.731717 302.544181 118.529657 Q 292.301 138.63478 272.036289 148.198235 Q 266.846726 150.648205 260.60802 152.226352 Q 259.473173 152.513019 254.183129 153.435083 Q 253.03646 153.63309 252.276939 153.627179 C 251.393295 153.618313 250.589445 153.893159 249.711711 153.896115 Q 244.590121 153.919757 240.943241 153.904981 Q 239.755198 153.902025 239.238015 153.769035 C 238.333683 153.535564 237.532788 153.639001 236.575261 153.41144 C 236.134916 153.305048 235.68275 153.337557 235.251272 153.254808 Q 233.436698 152.900168 229.724801 152.134737 C 228.867755 151.957417 228.238269 151.679616 227.348714 151.425457 Q 220.734681 149.537 213.919686 145.89012 C 204.648809 140.931073 196.710788 133.853053 190.918337 125.084583 Q 188.811185 121.89578 186.603552 117.737628 Q 186.177985 116.936733 185.383 114.776385 Q 185.734685 113.922294 186.621284 112.610127 Q 191.577376 105.269082 198.288935 99.308178 Q 203.581935 94.612155 209.888613 91.813456 Q 210.027514 91.754349 210.003871 91.603627 L 209.891568 90.926856 Q 215.997284 93.18473 222.052759 90.82342 Z" style="fill:#324d5d;"/>
		<path d="M 251.815908 90.891392 L 253.388144 90.91799 Q 253.538866 90.920946 253.541822 91.071668 Q 253.565464 93.58961 253.323127 95.076142 C 253.110343 96.373533 251.830684 96.79319 250.692882 96.810922 Q 246.768201 96.872984 239.645851 96.805012 C 237.559386 96.78728 236.714161 96.34398 236.501377 94.168856 Q 236.359521 92.747341 236.063988 91.438129 C 236.019658 91.237166 235.845294 91.092355 235.63842 91.080534 L 231.790578 90.909124 L 251.815908 90.891392 Z" style="fill:#395b6b;"/>
		<path d="M 288.599654 32.073016 C 288.60388 33.513622 287.442435 34.683934 286.002154 34.688692 L 285.363802 34.690938 C 283.92559 34.695755 282.752323 33.534309 282.748126 32.093437 L 282.726996 26.040947 C 282.722769 24.600341 283.884215 23.430029 285.324496 23.425271 L 285.962848 23.423025 C 287.40106 23.418208 288.574327 24.579654 288.578523 26.020526 L 288.599654 32.073016 Z" style="fill:#f4eece;"/>
		<path d="M 204.84856 31.961039 C 204.843861 33.478158 203.608533 34.704621 202.090526 34.699892 L 201.398979 34.697469 C 199.881859 34.6928 198.655396 33.457471 198.660125 31.939435 L 198.680251 26.170657 C 198.68495 24.653537 199.920278 23.427074 201.438285 23.431803 L 202.129832 23.434226 C 203.646952 23.438895 204.873415 24.674224 204.868686 26.19226 L 204.84856 31.961039 Z" style="fill:#f4eece;"/>
		<path d="M 190.191325 37.668819 Q 189.824864 38.579061 189.050567 39.382911 Q 186.706989 41.803328 184.372277 44.232611 Q 183.787121 44.84141 183.133993 44.217835 Q 179.327525 40.576866 177.078517 37.840228 Q 177.028277 35.381392 177.099205 33.061456 Q 177.14649 31.530594 177.577969 30.833136 Q 178.621201 29.13382 181.012064 29.184061 Q 181.783406 29.201793 185.793791 29.080624 Q 189.65641 28.962411 190.179504 32.151214 Q 190.279985 32.760013 190.288851 34.908539 Q 190.294762 36.324143 190.191325 37.668819 Z" style="fill:#f4eece;"/>
		<path d="M 304.55889 42.638594 C 300.995587 42.314601 298.377163 39.051914 298.714159 35.352548 C 299.050979 31.651763 302.213184 28.918081 305.778142 29.241306 C 309.341444 29.565299 311.959869 32.827985 311.622872 36.527351 C 311.286053 40.228136 308.123848 42.961818 304.55889 42.638594 Z" style="fill:#f4eece;"/>
		<path d="M 177.078517 37.840228 Q 179.327525 40.576866 183.133993 44.217835 Q 183.787121 44.84141 184.372277 44.232611 Q 186.706989 41.803328 189.050567 39.382911 Q 189.824864 38.579061 190.191325 37.668819 Q 191.807892 39.116932 193.681572 40.044906 L 186.316885 46.422512 C 186.248913 46.481619 186.248913 46.588011 186.319841 46.647117 L 193.912088 53.119294 Q 191.884731 54.218678 190.424797 55.947547 Q 189.647544 54.8127 189.260396 54.419641 Q 186.662659 51.789395 183.840317 49.020249 C 183.772344 48.955232 183.665952 48.952276 183.595024 49.017294 Q 181.322374 51.153999 178.999483 53.56555 Q 177.693227 54.919092 177.161267 55.790915 Q 175.355559 54.10342 173.425727 53.145892 L 181.283955 46.809661 Q 181.487873 46.644162 181.283955 46.481619 L 173.653288 40.269511 L 177.078517 37.840228 Z" style="fill:#395b6b;"/>
		<path d="M 173.653288 40.269511 L 181.283955 46.481619 Q 181.487873 46.644162 181.283955 46.809661 L 173.425727 53.145892 Q 170.366959 53.671942 168.212522 53.16658 Q 166.628464 52.794208 165.892586 51.219016 Q 165.555678 50.503826 165.552723 48.446915 Q 165.543857 43.629723 165.585231 42.828829 C 165.768462 39.23219 170.053693 39.332671 172.624832 39.610472 Q 173.475968 39.702087 173.653288 40.269511 Z" style="fill:#f4eece;"/>
		<path d="M 193.912088 53.119294 L 186.319841 46.647117 C 186.248913 46.588011 186.248913 46.481619 186.316885 46.422512 L 193.681572 40.044906 Q 196.489138 39.069646 199.293748 39.716864 Q 201.93877 40.331573 202.042207 43.189379 Q 202.130867 45.577287 202.074715 49.428085 Q 202.045162 51.529326 200.656156 52.551871 Q 199.737048 53.231597 197.641717 53.3439 Q 195.70302 53.450292 193.912088 53.119294 Z" style="fill:#f4eece;"/>
		<path d="M 292.646863 56.225082 C 289.017627 56.19284 286.100714 53.139982 286.133459 49.406186 C 286.165731 45.671858 289.13584 42.669241 292.764899 42.702015 C 296.394135 42.734258 299.311048 45.787116 299.278303 49.520912 C 299.24603 53.25524 296.275922 56.257857 292.646863 56.225082 Z" style="fill:#f4eece;"/>
		<path d="M 317.494141 56.262172 C 313.83946 56.033252 311.070314 52.808985 311.305056 49.065052 C 311.540211 45.320173 314.693551 42.471233 318.347405 42.70039 C 322.002087 42.92931 324.771233 46.153577 324.536491 49.89751 C 324.301335 53.642388 321.147996 56.491328 317.494141 56.262172 Z" style="fill:#f4eece;"/>
		<path d="M 190.424797 55.947547 Q 190.457305 58.314768 190.407065 60.744051 Q 190.353869 63.380207 188.429948 64.302271 Q 187.546303 64.724883 185.578052 64.70124 Q 184.895371 64.69533 182.141001 64.698285 Q 179.835842 64.704196 178.981751 64.290449 Q 177.341542 63.49842 177.093294 61.305564 Q 176.957349 60.123431 177.161267 55.790915 Q 177.693227 54.919092 178.999483 53.56555 Q 181.322374 51.153999 183.595024 49.017294 C 183.665952 48.952276 183.772344 48.955232 183.840317 49.020249 Q 186.662659 51.789395 189.260396 54.419641 Q 189.647544 54.8127 190.424797 55.947547 Z" style="fill:#f4eece;"/>
		<path d="M 302.263631 68.249944 C 299.130773 66.604474 297.942729 62.706391 299.60466 59.537359 C 301.267478 56.37016 305.153739 55.134831 308.286184 56.778646 C 311.419043 58.424115 312.607086 62.322198 310.945155 65.49123 C 309.282338 68.65843 305.396076 69.893759 302.263631 68.249944 Z" style="fill:#f4eece;"/>
		<path d="M 223.81133 80.864483 C 221.532621 85.279217 216.065257 86.990354 211.599366 84.685047 C 207.134244 82.380036 205.361044 76.933359 207.639458 72.517562 C 209.918166 68.102828 215.38553 66.39169 219.851421 68.696997 C 224.316544 71.002008 226.089743 76.448685 223.81133 80.864483 Z" style="fill:#395b6b;"/>
		<path d="M 282.131703 76.714665 C 282.131703 81.682578 278.103586 85.710695 273.135673 85.710695 C 268.167759 85.710695 264.139642 81.682578 264.139642 76.714665 C 264.139642 71.746752 268.167759 67.718634 273.135673 67.718634 C 278.103586 67.718634 282.131703 71.746752 282.131703 76.714665 Z" style="fill:#395b6b;"/>
		<path d="M 249.416178 83.556258 C 249.416178 83.671516 249.321607 83.766087 249.20635 83.766087 L 239.625163 83.766087 C 239.509905 83.766087 239.415335 83.671516 239.415335 83.556258 L 239.415335 70.068123 C 239.415335 69.952865 239.509905 69.858295 239.625163 69.858295 L 249.20635 69.858295 C 249.321607 69.858295 249.416178 69.952865 249.416178 70.068123 L 249.416178 83.556258 Z M 242.40022 73.398782 L 242.40022 79.155769 C 242.40022 79.47199 242.654379 79.726148 242.970599 79.726148 L 243.812869 79.726148 C 245.78112 79.726148 247.376999 78.207108 247.376999 76.333427 L 247.376999 76.221124 C 247.376999 74.347444 245.78112 72.828403 243.812869 72.828403 L 242.970599 72.828403 C 242.654379 72.828403 242.40022 73.082562 242.40022 73.398782 Z" style="fill:#395b6b;"/>
		<path d="M 242.40022 73.398782 C 242.40022 73.082562 242.654379 72.828403 242.970599 72.828403 L 243.812869 72.828403 C 245.78112 72.828403 247.376999 74.347444 247.376999 76.221124 L 247.376999 76.333427 C 247.376999 78.207108 245.78112 79.726148 243.812869 79.726148 L 242.970599 79.726148 C 242.654379 79.726148 242.40022 79.47199 242.40022 79.155769 L 242.40022 73.398782 Z" style="fill:#f4eece;"/>
	</g>
	<g id="surface4">
	</g>
</svg>
