<?xml version="1.0" encoding="utf-8"?>
<svg xmlns="http://www.w3.org/2000/svg" width="490pt" height="280pt" viewBox="0 0 490 280" version="1.1" xmlns:xlink="http://www.w3.org/1999/xlink">
	<g id="surface2">
		<path vector-effect="non-scaling-stroke" d="M 271.173926 63.166005 L 262.935903 64.958817 Q 262.86107 64.974739 262.838779 64.901498 Q 262.603134 64.146797 262.009245 63.481259 C 261.206778 62.583261 260.178219 62.576892 259.106671 62.572115 Q 254.29187 62.549825 251.300133 62.615105 Q 250.277943 62.638988 249.857604 62.80776 C 248.575886 63.325224 248.38323 64.447722 248.381638 65.684859 Q 248.373677 71.693807 248.370492 75.292171 Q 248.370492 76.672605 248.545634 77.110459 Q 248.940499 78.088067 250.233362 78.24251 Q 252.76973 78.545027 258.267584 78.98925 C 259.855003 79.118218 261.636671 79.32998 262.504418 77.723454 Q 262.630201 77.492586 263.074424 76.046872 Q 263.25275 75.470497 263.233644 74.906859 Q 263.182693 73.379943 263.182693 71.55051 Q 263.184286 71.381737 263.349874 71.351485 Q 267.115418 70.662064 271.17711 69.794317 Q 271.750301 69.670126 272.487488 69.705154 C 272.595757 69.709931 272.646707 69.842083 272.570282 69.918508 Q 272.364889 70.130271 272.167456 70.22421 C 271.35066 70.619075 270.939873 70.765557 270.522718 71.117432 Q 270.451069 71.179528 270.543416 71.198634 Q 271.936588 71.490006 274.644914 72.598175 Q 275.194221 72.822674 275.412352 73.410195" style="fill:none;stroke-width:0.50;stroke:#806a52;"/>
		<path vector-effect="non-scaling-stroke" d="M 276.218003 81.418941 Q 272.067148 79.903171 270.546601 79.431881 Q 267.57397 78.511591 263.525016 77.264902 Q 263.43426 77.237834 263.400824 77.326997 L 262.743247 79.151654 C 262.719364 79.215342 262.7528 79.286991 262.816488 79.310874 Q 263.099899 79.417551 263.195431 79.439842 Q 268.506997 80.745442 276.079482 82.503227 C 276.624013 82.630603 277.74492 82.899684 277.89777 83.471282 C 277.974196 83.754693 278.066543 84.08587 278.334032 84.175033 Q 278.505989 84.23076 278.584007 84.11453" style="fill:none;stroke-width:0.50;stroke:#806a52;"/>
		<path vector-effect="non-scaling-stroke" d="M 263.781359 105.356019 C 260.230762 100.272136 254.930341 96.711986 248.937314 95.223282 Q 247.28143 94.812496 245.815018 94.599141 Q 240.406327 93.814189 235.040626 95.471665 Q 231.292596 96.629191 228.767373 98.380607 C 227.939431 98.95539 226.90928 99.429865 226.199161 99.76741 Q 225.555913 100.07152 224.243944 101.122369 Q 222.186826 102.7687 220.379684 104.731878" style="fill:none;stroke-width:0.50;stroke:#806a52;"/>
		<path vector-effect="non-scaling-stroke" d="M 211.404474 81.25813 Q 213.071503 81.035222 214.813366 80.793208 C 220.968796 79.933422 227.19906 79.614983 233.507341 79.732806 Q 240.637196 79.868142 247.606238 80.465216 C 252.285703 80.866449 256.957206 81.102094 261.601643 81.110055 Q 262.015614 81.110055 261.609604 81.030446 C 259.926652 80.699269 258.200712 80.396751 256.407899 80.197727 C 254.737685 80.013032 252.45766 79.820376 250.384621 79.52582 C 249.155445 79.350679 247.644451 78.806148 246.584048 78.67718 Q 244.270587 78.396953 239.756711 78.221812 Q 234.57252 78.019603 232.711243 78.010049 Q 228.259463 77.987759 223.828381 78.379439 C 221.487852 78.586424 219.269923 78.922378 216.582296 79.299728 Q 215.550553 79.444618 216.540899 79.122995 C 221.643887 77.467111 227.399677 75.79212 235.60904 73.402234 Q 240.855326 71.875318 246.146194 70.518766 Q 246.451896 70.440749 246.676396 70.35477 Q 246.781481 70.314965 246.779888 70.201919 C 246.738491 68.038125 246.834023 65.957124 247.534589 63.992354 Q 247.73043 63.439862 247.160423 63.578383 L 246.92637 63.63411 Q 246.33885 63.775816 246.014042 64.286911 Q 245.65739 64.848956 245.576188 65.516086 C 245.571412 65.56226 245.531607 65.595696 245.485433 65.595696 C 240.360153 65.524047 235.491218 65.503349 230.558594 65.777206 Q 229.682886 65.824972 227.383755 66.027181 Q 225.092584 66.227798 222.812559 66.305815" style="fill:none;stroke-width:0.50;stroke:#806a52;"/>
		<path vector-effect="non-scaling-stroke" d="M 278.421603 83.659161 Q 278.42638 83.73081 278.485291 83.786537" style="fill:none;stroke-width:0.50;stroke:#806a52;"/>
		<path vector-effect="non-scaling-stroke" d="M 214.897752 78.08329 Q 216.87526 77.373171 218.876651 76.678973 Q 220.416304 76.145588 221.908192 75.706142 Q 232.633225 72.547224 243.097139 69.692417 Q 243.735609 69.518867 244.302431 69.407414 C 244.353381 69.39786 244.391594 69.353279 244.393186 69.300736 Q 244.410701 68.507823 244.436176 68.144802 C 244.463243 67.75949 244.622463 67.493594 244.840593 67.187892 C 244.891544 67.116243 244.840593 67.015935 244.751431 67.015935 C 239.446233 67.011158 234.449921 67.36781 228.183037 67.917118 Q 225.078255 68.189383 222.839627 68.58584 Q 220.741112 68.956822 218.655335 69.994934" style="fill:none;stroke-width:0.50;stroke:#806a52;"/>
		<path vector-effect="non-scaling-stroke" d="M 263.97083 108.511751 Q 263.786136 108.752173 263.604625 108.842928 Q 262.125475 109.581707 260.589006 110.191518 Q 255.817194 112.08464 251.113846 113.487365 Q 247.738391 114.49204 247.386515 114.597125 C 247.2671 114.632154 247.212966 114.770675 247.276654 114.878944 L 252.74744 124.029295 C 252.774507 124.073877 252.817496 124.105721 252.868447 124.118458 Q 260.659062 126.094374 268.417834 128.095764 Q 269.064266 128.262945 269.758464 128.227917" style="fill:none;stroke-width:0.50;stroke:#806a52;"/>
		<path vector-effect="non-scaling-stroke" d="M 269.384297 130.625764 Q 266.070937 129.490528 264.688911 129.21667 Q 258.702253 128.028892 253.691612 126.952568 C 253.569013 126.9255 253.452783 127.024216 253.460744 127.15 Q 253.492587 127.677017 253.721864 128.154676 C 255.591102 132.053964 257.920485 136.118841 258.503229 140.659784 Q 258.565324 141.140628 258.474569 141.654907 Q 258.46024 141.736109 258.391775 141.78069 C 257.836099 142.153264 256.817093 142.037034 256.629214 141.325322 Q 255.19783 135.889565 253.23306 130.695821 Q 253.064287 130.250006 252.108969 127.29489 C 251.943381 126.785387 251.343123 125.973367 251.048566 125.412914 Q 249.6952 122.835148 247.703362 119.66827 Q 244.71481 114.918749 242.772331 112.240675 Q 241.054351 109.871487 238.745667 107.390845 Q 235.54376 103.950109 231.790954 102.201878 Q 230.507644 101.603212 229.407436 101.313433 C 228.163931 100.98544 227.230904 101.381897 226.16254 102.146151 Q 224.635624 103.238398 222.962226 104.897466 Q 222.888985 104.969115 222.970187 105.034395 Q 225.087808 106.707793 227.740407 109.419303 C 231.633326 113.398202 235.056548 116.843714 238.377869 120.340177 Q 241.008177 123.109006 243.33756 125.3954 C 245.014143 127.040138 246.977321 128.618005 248.615691 130.372605 Q 252.936911 134.997935 254.949447 141.035543 C 254.968553 141.096046 254.90805 141.150181 254.850731 141.124706 C 253.506917 140.52604 252.339837 139.159936 251.61698 138.007186 Q 249.328995 134.35628 246.359549 131.343845 Q 245.558674 130.530232 244.009467 129.197564 Q 241.641871 127.157961 240.278951 125.822108 Q 239.145308 124.707571 235.569235 121.04552 Q 233.083817 118.50119 230.861111 116.240272 Q 227.738814 113.062248 224.969985 109.24257 Q 224.721603 108.900247 222.384259 105.598032 Q 222.258475 105.419707 222.054674 105.500909 Q 220.718822 106.026333 219.892472 107.381292" style="fill:none;stroke-width:0.50;stroke:#806a52;"/>
		<path vector-effect="non-scaling-stroke" d="M 273.157802 67.474487 L 263.259119 69.770434 C 263.190654 69.786356 263.126967 69.736998 263.123782 69.666942 L 263.002775 66.436375 C 263.001183 66.387017 263.034619 66.344028 263.082385 66.332883 Q 266.749213 65.484242 271.616557 64.30124 Q 271.724826 64.275765 271.72801 64.18501" style="fill:none;stroke-width:0.50;stroke:#806a52;"/>
		<path vector-effect="non-scaling-stroke" d="M 269.404996 122.460982 Q 265.561434 120.996162 263.002775 120.488251 C 258.047861 119.501089 254.384217 118.859434 250.317748 117.408944 C 250.285904 117.397798 250.255653 117.42805 250.266798 117.459894 C 250.516773 118.182751 250.889347 119.06642 251.4498 119.577515 C 252.417855 120.457999 253.7553 120.881524 255.049755 121.177672 Q 256.825054 121.58209 258.396552 121.731756 Q 263.126967 122.187124 265.515261 122.448245 Q 267.389276 122.653638 269.054713 123.288924 C 269.696368 123.534122 269.61835 123.946501 269.732988 124.510139" style="fill:none;stroke-width:0.50;stroke:#806a52;"/>
		<path vector-effect="non-scaling-stroke" d="M 268.116909 132.03645 L 267.577155 133.338866" style="fill:none;stroke-width:0.50;stroke:#806a52;"/>
		<path vector-effect="non-scaling-stroke" d="M 267.63925 133.373895 Q 266.752397 133.314983 266.066161 133.287916 Q 264.860868 133.238558 261.467898 132.566651 Q 259.259522 132.130389 257.172153 131.655915 C 257.135532 131.647954 257.106873 131.686167 257.122795 131.719603 Q 257.383915 132.241843 257.885457 133.259257 C 258.09085 133.678004 258.30102 133.920018 258.718175 134.08083 Q 259.694192 134.461365 260.862864 134.73363 Q 263.166771 135.271793 265.548697 135.647551 Q 265.934008 135.708054 266.432366 135.716015 Q 266.871812 135.725568 267.320811 135.75582" style="fill:none;stroke-width:0.50;stroke:#806a52;"/>
		<path vector-effect="non-scaling-stroke" d="M 261.703543 142.716902 Q 261.295941 142.914334 260.988647 143.220036" style="fill:none;stroke-width:0.50;stroke:#806a52;"/>
		<path vector-effect="non-scaling-stroke" d="M 259.447401 144.065492 Q 258.203896 144.12918 257.207181 144.001804 C 252.360536 143.385624 247.537774 141.56256 243.893237 138.203026 Q 241.178542 135.700093 238.860305 132.897828 C 238.793432 132.818218 238.67561 132.808665 238.597592 132.877129 C 238.455887 133.001321 237.748952 133.547444 237.677303 133.848369 Q 237.658197 133.924795 237.691633 133.998036 Q 237.839707 134.330805 238.137448 134.751144 C 241.331393 139.274574 245.353281 143.253472 250.841581 144.748544 Q 253.930441 145.589224 257.181706 146.001603" style="fill:none;stroke-width:0.50;stroke:#806a52;"/>
		<path vector-effect="non-scaling-stroke" d="M 224.476404 142.173963 C 224.743893 141.849155 224.95884 141.535492 225.274095 141.239344 Q 226.990482 139.631226 227.972867 138.879709 C 229.724283 137.540672 232.082326 136.184121 233.86877 135.00908 Q 236.68218 133.157356 239.955736 131.163926 Q 240.156352 131.042919 240.321941 131.2101 Q 244.608133 135.556796 246.681172 137.599583 C 248.3689 139.263428 249.577377 140.277657 251.570807 140.930458 Q 251.769831 140.995738 251.63131 140.83811 C 251.016722 140.132767 250.714205 139.790445 250.260429 139.190187 Q 247.953337 136.149093 247.039416 135.206512 Q 243.31527 131.366135 239.379361 127.165922 Q 238.167699 125.873059 233.856032 121.268427 C 231.74478 119.01547 229.944006 116.97109 227.909179 114.87576 C 226.356788 113.277195 224.310816 110.858649 223.271112 109.672462 C 222.809375 109.147038 222.105624 108.540411 221.374806 108.54678 Q 220.957651 108.549964 220.766587 108.889102 C 220.610552 109.169328 220.772956 109.50369 220.948098 109.76481 Q 222.650155 112.3171 224.61811 114.514331 Q 224.718418 114.625785 226.789866 116.842122 Q 231.235277 121.602788 235.601079 126.038647 C 235.631331 126.068899 235.624962 126.118257 235.589934 126.140547 C 233.62994 127.36017 232.03456 128.055959 229.046007 129.528741 C 226.385448 130.839118 223.67553 132.405839 221.76171 134.698602 Q 220.871672 135.763781 220.540496 137.021616 C 220.29689 137.938721 220.747481 138.535795 221.462377 139.0039 C 221.483076 139.01823 221.511735 139.0039 221.513327 138.978425 C 221.642295 137.464247 223.350722 135.857721 224.460483 134.931063 Q 226.035165 133.615909 227.447443 132.62397 Q 230.587253 130.417186 235.185516 127.583077 Q 235.636107 127.306035 236.180639 126.88888 C 236.237958 126.84589 236.31916 126.852259 236.368518 126.904802 L 239.083212 129.823297 C 239.108687 129.848772 239.09595 129.893354 239.060921 129.902907 Q 238.707454 130.0064 238.338064 130.181541 Q 233.938826 132.264134 230.205126 134.626953 C 227.710155 136.204819 224.447745 138.825574 224.39361 142.0848" style="fill:none;stroke-width:0.50;stroke:#806a52;"/>
		<path vector-effect="non-scaling-stroke" d="M 244.321538 75.363819 C 244.450505 76.24908 244.971154 77.23465 245.880298 77.572195 C 245.926471 77.58971 245.979014 77.581749 246.017226 77.549905 L 246.238542 77.371579 C 246.303822 77.319036 246.399354 77.333366 246.445527 77.403423 Q 247.11425 78.408098 248.206496 78.957406 Q 248.214457 78.960591 248.217642 78.95263 L 248.236748 78.901679 Q 248.244709 78.877796 248.22401 78.861874 C 247.388107 78.24251 246.822878 77.475072 246.822878 76.389194 Q 246.822878 74.593196 246.797403 73.381535 C 246.79581 73.332177 246.754413 73.295557 246.705055 73.300333 Q 244.913835 73.510503 243.242029 73.980201 Q 241.417372 74.49448 237.908171 75.411585 C 237.346126 75.55966 236.806372 75.773014 236.295277 75.90835 Q 235.916334 76.008659 236.308014 76.035726 Q 238.373093 76.172655 240.634011 75.795305 Q 242.831242 75.429099 244.076339 75.19027 Q 244.289694 75.148873 244.321538 75.363819" style="fill:none;stroke-width:0.50;stroke:#806a52;"/>
		<path vector-effect="non-scaling-stroke" d="M 254.863468 71.52185 Q 257.640259 70.993241 258.299428 70.843574 Q 259.269075 70.625444 260.275343 70.135047 C 260.318332 70.114349 260.3454 70.068175 260.342215 70.020409 Q 260.232354 68.246703 260.095425 67.156048 Q 259.988748 66.309 259.767433 65.882291 C 259.20698 64.799598 258.3663 65.012952 257.188075 65.186501 Q 255.591102 65.422147 252.492688 65.974639 C 251.207786 66.202323 251.236446 67.393285 251.277843 68.464833 Q 251.367006 70.736897 251.494381 72.090264 Q 251.516672 72.324317 251.742764 72.266998 Q 254.099214 71.66674 254.863468 71.52185" style="fill:none;stroke-width:0.50;stroke:#806a52;"/>
		<path vector-effect="non-scaling-stroke" d="M 258.538257 76.451289 C 259.007955 76.522938 259.455362 76.516569 259.823159 76.145588 Q 260.464815 75.497564 260.507804 74.515179 Q 260.573084 72.951642 260.353361 71.192265 C 260.3454 71.133354 260.286489 71.096734 260.230762 71.11584 C 258.172052 71.817999 255.543336 72.345015 253.906558 72.787646 Q 252.954425 73.045582 252.118522 73.430893 Q 251.38452 73.768439 251.819189 74.491296 Q 252.296848 75.285802 253.25535 75.476865 Q 256.834607 76.193354 258.538257 76.451289" style="fill:none;stroke-width:0.50;stroke:#806a52;"/>
		<path vector-effect="non-scaling-stroke" d="M 243.826365 107.680625 Q 245.561858 107.073998 247.340341 106.545389 Q 254.053041 104.550367 259.151253 103.114206 C 259.189465 103.103061 259.205387 103.05848 259.183097 103.028228 C 257.977804 101.337316 256.876004 99.947328 255.008358 98.920362 C 252.954425 97.789902 250.535879 96.955592 248.115741 96.500224 Q 238.95106 94.77906 230.365938 98.590777 C 230.108002 98.705415 229.740205 98.934692 229.510929 99.084358 Q 229.046007 99.388467 229.595315 99.482407 C 231.435894 99.797662 233.230299 100.482306 234.897328 101.561815 C 238.280745 103.752677 241.063904 106.421198 243.466528 109.611959 Q 244.633608 111.161166 245.850046 112.923727 Q 245.915326 113.017667 246.02678 112.985823 Q 249.701568 111.923828 255.632499 110.095987 Q 259.57 108.881141 262.025167 107.881242 C 262.604726 107.644005 263.325991 107.252324 263.214537 106.609077 Q 263.190654 106.470556 262.942272 105.870298 C 262.381819 104.518523 261.370774 104.26218 260.026961 104.542406 Q 258.810523 104.797158 257.487408 105.303476 Q 251.534186 107.588278 245.13515 109.33014 C 245.088976 109.341286 245.04121 109.326956 245.012551 109.290335 L 243.796113 107.782526 C 243.767453 107.747497 243.783375 107.694955 243.826365 107.680625" style="fill:none;stroke-width:0.50;stroke:#806a52;"/>
		<path vector-effect="non-scaling-stroke" d="M 253.721864 103.647592 C 254.715394 103.238398 255.226489 103.020267 255.69141 102.875377 C 255.743953 102.859455 255.751914 102.787806 255.704148 102.760739 Q 255.043387 102.389757 254.409692 101.896176 Q 253.858793 101.469468 252.309586 100.780047 Q 249.480253 99.522212 246.061808 98.988826 C 242.243722 98.391753 238.11038 98.450664 234.473804 99.485591 Q 234.137851 99.581123 233.758908 99.792885 C 233.706366 99.823137 233.690444 99.891601 233.725472 99.942552 Q 234.01366 100.353338 234.50724 100.324679 Q 236.675812 100.192526 237.334981 100.155906 Q 240.863287 99.958474 244.697296 100.671778 C 247.759089 101.241784 250.314564 102.292633 253.053141 103.665106 Q 253.333368 103.806812 253.721864 103.647592" style="fill:none;stroke-width:0.50;stroke:#806a52;"/>
		<path vector-effect="non-scaling-stroke" d="M 225.229513 103.59505 C 225.173786 103.63167 225.172194 103.71128 225.224737 103.751085 Q 225.637115 104.048826 226.208714 104.286063 C 227.6194 104.867214 228.655919 105.308253 229.725875 106.01678 Q 231.329217 107.080367 232.733534 108.463986 Q 236.769751 112.444476 240.613313 116.810278 Q 241.689637 118.031492 242.624256 119.204941 Q 246.176446 123.661498 248.688932 127.484361 C 249.462739 128.662586 250.110763 129.603574 251.414771 130.041428 C 251.454576 130.054166 251.492789 130.015953 251.478459 129.976148 C 250.305011 126.861812 248.902286 124.728269 246.762374 121.129906 Q 244.655899 117.585677 242.178442 114.568466 C 241.441255 113.672059 240.598983 112.949202 239.764672 112.176987 C 238.404937 110.919152 236.71084 108.954382 235.924295 108.145546 Q 234.446737 106.629776 233.161835 105.618731 C 231.27349 104.134804 227.608254 102.03629 225.229513 103.59505" style="fill:none;stroke-width:0.50;stroke:#806a52;"/>
		<path vector-effect="non-scaling-stroke" d="M 218.230219 120.536017 C 218.249325 120.575822 218.301868 120.585375 218.335304 120.555123 L 219.677525 119.306842 C 219.709369 119.278182 219.718922 119.230416 219.701408 119.190611 C 218.962629 117.576124 218.113989 115.784904 218.117173 113.950694 Q 218.118765 113.831279 218.069407 113.939548 C 217.516915 115.168724 216.569558 117.49333 217.244649 118.676332 Q 217.819432 119.6826 218.230219 120.536017" style="fill:none;stroke-width:0.50;stroke:#806a52;"/>
		<path vector-effect="non-scaling-stroke" d="M 217.741415 127.492322 C 220.308035 123.884406 223.384158 120.649063 227.353503 118.626974 C 227.393308 118.606275 227.396492 118.552141 227.359872 118.526665 C 226.455504 117.888195 225.44446 117.178075 224.309224 117.870681 Q 220.113787 120.432524 218.270024 124.635922 Q 217.601301 126.162838 217.478702 127.622882 C 217.473926 127.673832 217.532837 127.704084 217.572642 127.67224 Q 217.67295 127.589446 217.741415 127.492322" style="fill:none;stroke-width:0.50;stroke:#806a52;"/>
		<path vector-effect="non-scaling-stroke" d="M 232.160343 123.629654 C 231.316479 123.0899 230.813345 122.51034 229.778418 122.817634 Q 228.85176 123.091492 228.014264 123.559597 Q 225.116467 125.177269 222.607166 127.387237 C 220.893963 128.896639 219.303359 130.83275 218.666481 133.04431 Q 218.489747 133.657306 218.504077 134.195468 Q 218.512038 134.469326 218.637821 134.22572 C 220.150407 131.353398 222.465461 129.312202 225.286832 127.794839 Q 227.359872 126.67871 229.477493 125.4973 Q 230.897732 124.704387 232.16512 123.784097 C 232.217662 123.745884 232.21607 123.666275 232.160343 123.629654" style="fill:none;stroke-width:0.50;stroke:#806a52;"/>
		<path vector-effect="non-scaling-stroke" d="M 233.416586 136.071075 Q 233.314685 135.763781 233.094962 136.002611 L 232.521772 136.63312 Q 232.302049 136.873542 232.450123 137.163322 Q 232.763786 137.774725 233.313093 138.460961 Q 238.180437 144.546335 245.861191 145.791433 Q 245.894627 145.796209 245.908957 145.765957 L 245.908957 145.764365 Q 245.923287 145.732521 245.88189 145.718192 C 240.974741 144.057531 237.092967 140.546738 233.784383 136.709546 Q 233.529632 136.413397 233.416586 136.071075" style="fill:none;stroke-width:0.50;stroke:#806a52;"/>
		<path vector-effect="non-scaling-stroke" d="M 264.79718 136.9229 C 264.824248 136.876726 264.79718 136.819407 264.744638 136.811446 L 262.983669 136.540773 C 262.924758 136.532812 262.867439 136.561471 262.840371 136.614014 C 262.45506 137.371899 262.141397 137.935537 261.611196 138.577192 Q 261.558653 138.639287 260.205287 140.307909 Q 259.850227 140.745763 259.866149 141.342837 C 259.869333 141.476581 260.00467 141.565744 260.128861 141.517978 Q 260.609704 141.333283 260.861271 141.15655 Q 263.197023 139.521364 264.79718 136.9229" style="fill:none;stroke-width:0.50;stroke:#806a52;"/>
		<path vector-effect="non-scaling-stroke" d="M 231.268713 143.27417 Q 229.956744 142.003598 228.843799 140.610426 Q 228.458487 140.126399 228.160746 139.567538 C 228.117757 139.487928 228.01108 139.470414 227.9458 139.532509 L 226.886989 140.518079 Q 226.716624 140.675706 226.851961 140.865178 Q 228.412313 143.024196 230.471023 144.79631 C 234.765176 148.49339 240.737504 149.73371 246.305414 149.072949 Q 246.332481 149.069765 246.330889 149.042697 L 246.329297 148.988563 Q 246.329297 148.967864 246.308598 148.967864 Q 245.264118 148.966272 243.936226 148.877109 Q 236.55162 148.386712 231.268713 143.27417" style="fill:none;stroke-width:0.50;stroke:#806a52;"/>
		<path vector-effect="non-scaling-stroke" d="M 264.365695 117.566571 L 265.583725 118.007609 Q 265.631491 118.023531 265.628307 117.974173 Q 265.462718 115.249926 264.614078 112.55593 Q 264.380025 111.812374 263.954909 111.242368 C 263.913511 111.185049 263.837086 111.165942 263.773398 111.197786 Q 263.134927 111.514633 263.321214 112.253412 Q 264.048848 115.135288 264.206476 117.357993 C 264.212844 117.453525 264.276532 117.534727 264.365695 117.566571" style="fill:none;stroke-width:0.50;stroke:#806a52;"/>
		<path vector-effect="non-scaling-stroke" d="M 261.584128 113.025628 C 261.580944 113.003337 261.566614 112.984231 261.545916 112.973085 Q 261.533178 112.966716 261.504519 112.973085 Q 261.493373 112.974677 261.487004 112.984231 Q 260.840573 113.882229 260.622442 114.452235 Q 260.009446 116.055577 259.302511 117.627075 C 259.296143 117.641404 259.305696 117.655734 259.320025 117.658918 L 260.667023 117.864312 Q 260.717974 117.872273 260.73708 117.826099 Q 261.241806 116.674941 261.57776 115.493532 C 261.797483 114.724501 261.689213 113.820134 261.584128 113.025628" style="fill:none;stroke-width:0.50;stroke:#806a52;"/>
		<path d="M 271.173926 63.166005 L 262.935903 64.958817 Q 262.86107 64.974739 262.838779 64.901498 Q 262.603134 64.146797 262.009245 63.481259 C 261.206778 62.583261 260.178219 62.576892 259.106671 62.572115 Q 254.29187 62.549825 251.300133 62.615105 Q 250.277943 62.638988 249.857604 62.80776 C 248.575886 63.325224 248.38323 64.447722 248.381638 65.684859 Q 248.373677 71.693807 248.370492 75.292171 Q 248.370492 76.672605 248.545634 77.110459 Q 248.940499 78.088067 250.233362 78.24251 Q 252.76973 78.545027 258.267584 78.98925 C 259.855003 79.118218 261.636671 79.32998 262.504418 77.723454 Q 262.630201 77.492586 263.074424 76.046872 Q 263.25275 75.470497 263.233644 74.906859 Q 263.182693 73.379943 263.182693 71.55051 Q 263.184286 71.381737 263.349874 71.351485 Q 267.115418 70.662064 271.17711 69.794317 Q 271.750301 69.670126 272.487488 69.705154 C 272.595757 69.709931 272.646707 69.842083 272.570282 69.918508 Q 272.364889 70.130271 272.167456 70.22421 C 271.35066 70.619075 270.939873 70.765557 270.522718 71.117432 Q 270.451069 71.179528 270.543416 71.198634 Q 271.936588 71.490006 274.644914 72.598175 Q 275.194221 72.822674 275.412352 73.410195 Q 275.719646 75.035827 275.813586 76.725147 C 275.8311 77.016519 275.934593 77.344511 275.940961 77.583341 C 275.953699 78.234549 276.069929 79.049754 276.098589 79.541742 Q 276.151131 80.454071 276.218003 81.418941 Q 272.067148 79.903171 270.546601 79.431881 Q 267.57397 78.511591 263.525016 77.264902 Q 263.43426 77.237834 263.400824 77.326997 L 262.743247 79.151654 C 262.719364 79.215342 262.7528 79.286991 262.816488 79.310874 Q 263.099899 79.417551 263.195431 79.439842 Q 268.506997 80.745442 276.079482 82.503227 C 276.624013 82.630603 277.74492 82.899684 277.89777 83.471282 C 277.974196 83.754693 278.066543 84.08587 278.334032 84.175033 Q 278.505989 84.23076 278.584007 84.11453 C 278.986833 84.362912 279.450162 84.428192 279.827512 84.528501 C 280.118884 84.603334 280.351345 84.620848 280.614057 84.719564 Q 280.779645 84.780068 282.110721 85.101691 Q 282.454636 85.184485 285.296706 86.125473 Q 285.506876 86.193938 286.454233 86.48531 C 286.933484 86.631792 287.395221 86.832408 287.877656 86.991628 Q 290.199078 87.755882 291.727586 88.214435 Q 294.440689 89.029639 299.702897 90.140992 C 299.90829 90.183981 300.231506 90.195127 300.51014 90.26996 Q 301.005313 90.405297 303.028995 90.730105 Q 307.256276 91.40838 310.661983 91.871709 Q 310.677905 91.873301 311.432606 91.940174 C 311.813141 91.97361 312.141133 92.102578 312.521668 92.093025 Q 312.935639 92.083471 313.209497 92.18378 C 313.570926 92.315932 313.897326 92.212439 314.293783 92.330262 C 314.586747 92.417833 314.902002 92.417833 315.163122 92.479928 C 315.890755 92.653478 316.518081 92.693283 316.812637 93.194824 C 317.248899 93.936788 317.763178 94.487688 317.100825 95.158002 Q 316.610428 95.653175 315.968773 96.073515 Q 314.004003 97.360009 311.961215 98.310551 Q 308.929674 99.722829 305.7007 100.762533 Q 300.747378 102.357913 295.649166 103.419908 C 293.077769 103.956478 290.742017 104.400701 288.646687 104.722325 Q 287.493937 104.897466 284.257002 105.314622 C 283.887612 105.362387 283.486379 105.328951 283.043748 105.426075 C 282.574051 105.529568 282.125051 105.467472 281.695158 105.564596 C 281.152219 105.685603 280.555146 105.634653 280.020168 105.727 C 279.338708 105.844823 278.695461 105.76999 278.031515 105.878259 Q 277.37553 105.986528 276.007834 105.978567 Q 275.550873 105.976975 275.235618 106.023149 C 274.259602 106.171223 273.289955 106.128234 272.309162 106.185553 C 270.269559 106.304968 268.592976 106.333627 265.430874 106.42279 Q 265.177715 106.429159 264.92774 106.395723 Q 264.682542 106.362287 264.491479 106.183961 Q 264.082284 105.805018 263.781359 105.356019 C 260.230762 100.272136 254.930341 96.711986 248.937314 95.223282 Q 247.28143 94.812496 245.815018 94.599141 Q 240.406327 93.814189 235.040626 95.471665 Q 231.292596 96.629191 228.767373 98.380607 C 227.939431 98.95539 226.90928 99.429865 226.199161 99.76741 Q 225.555913 100.07152 224.243944 101.122369 Q 222.186826 102.7687 220.379684 104.731878 Q 218.195191 104.757353 217.386355 104.65386 Q 216.17947 104.501009 215.790974 104.547183 Q 215.712957 104.556736 215.652453 104.606094 C 215.227337 104.942048 214.826103 105.413338 214.558615 105.684011 Q 211.869395 108.398706 210.044738 111.774161 Q 209.391938 112.981046 208.721623 114.670366 Q 207.828401 116.921732 207.306161 118.423173 C 205.842933 122.634532 204.175903 126.793348 200.368962 129.337677 Q 198.921656 130.305733 197.520523 130.660792 C 195.539831 131.160742 193.586207 131.105015 191.637358 130.394896 C 188.126566 129.116362 185.88953 126.35231 183.792608 123.408339 Q 182.705138 121.883015 181.697278 119.891178 Q 181.165484 118.84192 181.417051 117.719422 C 181.507806 117.310228 181.471186 116.948799 181.671803 116.627175 Q 182.1415 115.872474 183.170059 116.22435 Q 183.314949 116.273708 183.701853 116.74659 C 183.735289 116.789579 183.755987 116.84053 183.760764 116.896257 Q 183.800569 117.450341 183.781463 117.877049 Q 183.768725 118.157276 183.985264 118.536219 Q 185.564722 121.279573 186.946749 123.151995 C 188.784143 125.639006 191.385791 127.939729 194.611581 128.210403 Q 195.882153 128.31708 197.23552 127.895148 Q 198.595256 127.470031 199.856275 126.377785 Q 201.190535 125.220258 201.894286 124.067508 Q 202.892593 122.432323 203.212625 121.722203 Q 203.65844 120.728673 203.76034 120.461184 Q 203.8909 120.114085 204.269843 119.217679 C 204.468867 118.747981 204.661523 118.08085 204.887615 117.584085 Q 205.018175 117.295898 205.112115 116.967905 C 205.320692 116.241864 205.640724 115.554035 205.881145 114.837547 C 206.089723 114.219775 206.255311 113.861531 206.567382 113.094092 Q 207.826809 109.984533 210.022448 107.073998 Q 211.06056 105.698341 212.426664 104.450059 Q 212.808791 104.099776 212.291327 104.088631 Q 211.393329 104.067932 210.525582 103.926227 Q 209.347356 103.736755 209.149924 103.708096 Q 208.092706 103.558429 207.779043 103.480412 C 207.490856 103.408763 207.194707 103.472451 206.92881 103.388064 Q 206.725009 103.322784 206.594449 103.303678 Q 205.280887 103.103061 204.193417 102.886522 Q 204.171127 102.881746 203.370252 102.760739 C 203.004047 102.705012 202.60759 102.564899 202.289151 102.501211 C 201.582216 102.359505 200.35304 102.122268 199.404091 101.865925 Q 198.43126 101.603212 197.942455 101.52201 Q 197.453651 101.4424 196.983953 101.267259 C 196.600234 101.123961 196.085955 101.026837 195.703827 100.918568 Q 193.583022 100.31831 193.25503 100.243477 C 192.850612 100.151129 192.462116 99.972803 192.135716 99.885233 Q 188.645622 98.939468 185.266982 97.680041 Q 185.257428 97.676857 184.872117 97.520821 Q 184.544125 97.387077 183.932721 97.188052 Q 183.383414 97.009726 181.660657 96.24388 Q 179.780274 95.409569 178.641853 94.774283 Q 175.154944 92.834988 172.922685 89.809815 Q 172.602653 89.376738 172.516675 88.809916 Q 172.440249 88.321112 172.714107 87.814793 Q 173.199727 86.916795 174.163005 86.545813 Q 175.062596 86.197122 176.352275 85.931225 Q 178.681658 85.44879 180.208574 85.268872 Q 180.8359 85.194039 180.902772 85.182893 Q 181.413867 85.090546 181.593785 85.09373 C 182.007756 85.096915 182.316642 84.945656 182.732205 84.94884 C 183.279921 84.953617 183.869033 84.786436 184.305295 84.76733 Q 184.674685 84.751408 184.880078 84.700458 C 185.324301 84.590596 185.862463 84.655876 186.249367 84.563529 C 186.78116 84.436153 187.228567 84.469589 187.776283 84.39794 Q 188.548498 84.294448 188.809618 84.304001 Q 189.241103 84.321515 189.505408 84.238721 C 189.989435 84.08587 190.607208 84.160703 191.121487 84.081093 Q 191.626213 84.003076 192.075212 83.99193 C 192.586307 83.980785 192.915892 84.009445 193.355338 83.915505 Q 193.909422 83.79609 194.907729 83.823158 C 195.082871 83.827934 195.340807 83.692598 195.573267 83.689413 Q 196.077994 83.686229 197.168648 83.547708 Q 198.899365 83.326392 199.950215 83.175134 Q 204.987923 82.444316 210.188036 81.484221 Q 210.715053 81.385505 211.404474 81.25813 Q 213.071503 81.035222 214.813366 80.793208 C 220.968796 79.933422 227.19906 79.614983 233.507341 79.732806 Q 240.637196 79.868142 247.606238 80.465216 C 252.285703 80.866449 256.957206 81.102094 261.601643 81.110055 Q 262.015614 81.110055 261.609604 81.030446 C 259.926652 80.699269 258.200712 80.396751 256.407899 80.197727 C 254.737685 80.013032 252.45766 79.820376 250.384621 79.52582 C 249.155445 79.350679 247.644451 78.806148 246.584048 78.67718 Q 244.270587 78.396953 239.756711 78.221812 Q 234.57252 78.019603 232.711243 78.010049 Q 228.259463 77.987759 223.828381 78.379439 C 221.487852 78.586424 219.269923 78.922378 216.582296 79.299728 Q 215.550553 79.444618 216.540899 79.122995 C 221.643887 77.467111 227.399677 75.79212 235.60904 73.402234 Q 240.855326 71.875318 246.146194 70.518766 Q 246.451896 70.440749 246.676396 70.35477 Q 246.781481 70.314965 246.779888 70.201919 C 246.738491 68.038125 246.834023 65.957124 247.534589 63.992354 Q 247.73043 63.439862 247.160423 63.578383 L 246.92637 63.63411 Q 246.33885 63.775816 246.014042 64.286911 Q 245.65739 64.848956 245.576188 65.516086 C 245.571412 65.56226 245.531607 65.595696 245.485433 65.595696 C 240.360153 65.524047 235.491218 65.503349 230.558594 65.777206 Q 229.682886 65.824972 227.383755 66.027181 Q 225.092584 66.227798 222.812559 66.305815 Q 223.640501 65.699189 223.841118 65.012952 Q 224.180256 63.852241 224.196178 62.595998 C 224.207323 61.642273 224.364951 60.905086 224.347437 60.021417 C 224.341068 59.696609 224.485958 59.472109 224.506656 59.166408 Q 224.516209 59.031071 224.61811 58.835231 Q 224.960432 58.177654 225.570243 57.585357 Q 226.788273 56.403947 228.081137 55.220946 Q 228.611338 54.733734 230.486945 53.133576 Q 232.052074 51.797724 233.437285 50.485754 Q 234.222237 49.740606 234.857524 48.917441 Q 235.336775 48.296484 235.148895 47.474911 Q 235.054956 47.068901 234.74607 46.876246 C 233.696812 46.223445 232.762193 45.720311 232.125315 44.814351 Q 230.819714 42.962627 230.394598 40.894364 Q 230.388229 40.862521 230.338871 40.78928 Q 230.284736 40.70967 230.278367 40.668273 Q 229.942414 38.569758 230.131885 36.746693 Q 230.248116 35.630564 230.72259 34.165743 C 230.934352 33.514535 231.270306 32.904724 231.523465 32.286952 Q 231.542571 32.239186 232.303641 30.850791 Q 233.053565 29.47991 233.101331 29.019765 Q 233.149097 28.542107 233.276473 27.940256 C 233.298763 27.838356 233.215969 27.742824 233.112477 27.749193 Q 232.809959 27.766707 232.563169 27.957771 C 231.735227 28.594649 231.041029 29.209237 230.085712 29.869998 Q 229.472716 30.295115 228.899525 30.403384 Q 228.138456 30.548274 227.53979 30.471848 Q 225.797927 30.252125 224.169111 29.47991 Q 220.820722 27.894083 218.730168 24.903938 Q 218.429243 24.472453 218.367148 24.169936 C 218.273208 23.719344 218.150609 23.510767 218.136279 23.095204 Q 218.126726 22.854782 217.905411 21.061969 C 217.81784 20.362995 217.736638 19.457035 217.54239 18.643423 C 217.432529 18.184871 217.015373 17.006645 216.419892 16.971617 C 215.646085 16.925443 215.399294 17.355336 215.197085 18.035204 Q 214.681214 19.780251 214.45353 20.447381 Q 213.501396 23.235317 211.393329 25.278104 C 210.613152 26.03599 209.446073 26.75407 208.64679 27.526285 Q 207.683511 28.454536 207.411246 29.040464 C 207.148534 29.605694 206.903335 30.105643 206.611963 30.767997 Q 205.723518 32.788494 204.207747 34.412534 C 203.85428 34.791477 203.34 35.181565 202.945136 35.434724 C 201.200089 36.552446 199.066546 36.273811 197.114513 36.01906 Q 196.374142 35.923528 195.549384 35.906014 Q 194.055904 35.87417 193.594168 35.907606 Q 190.629498 36.122553 189.471972 38.76719 C 189.182192 39.42636 189.011827 40.41989 188.739561 41.139563 Q 188.408385 42.018455 187.604326 42.618713 Q 186.094924 43.749172 184.626919 43.830374 Q 182.439241 43.951381 181.811916 44.048505 Q 181.448895 44.104232 180.743552 44.427448 Q 180.359833 44.602589 179.856699 45.105723 Q 179.646529 45.317485 178.90775 45.978247 C 178.691211 46.172495 178.508109 46.443168 178.234251 46.608757 Q 177.9795 46.761607 178.032042 46.468643 Q 178.239028 45.30634 178.993729 44.000739 Q 179.383817 43.325648 179.783458 43.0295 Q 180.410783 42.561394 180.902772 42.408543 Q 181.982281 42.07259 182.402621 41.965913 C 183.064974 41.800324 183.787831 41.615629 184.284597 41.225541 Q 184.935805 40.712854 185.227177 39.98522 Q 185.472375 39.369041 185.550392 39.165239 Q 185.641148 38.923226 185.671399 38.706687 C 185.700059 38.507662 185.83858 38.334113 185.911821 38.112798 Q 186.492973 36.369343 187.290663 35.343969 Q 188.87649 33.305958 191.34121 32.226449 Q 191.697862 32.070413 191.966943 32.008318 Q 192.122978 31.973289 192.352255 31.841137 C 192.524212 31.744013 192.751896 31.780634 192.923853 31.72013 Q 193.243884 31.608676 193.782047 31.436719 Q 195.055804 31.033894 196.149642 30.233019 Q 196.348667 30.086537 196.601826 29.588179 C 196.853393 29.091414 196.740347 28.683812 196.675067 28.164756 Q 196.640039 27.892491 196.640039 27.488073 Q 196.638447 24.894385 196.655961 23.480515 C 196.66233 22.935984 196.79289 22.44718 196.79289 21.877173 Q 196.79289 20.571573 197.124066 19.426784 Q 197.175017 19.253234 197.625608 17.85847 Q 197.760945 17.442907 197.963154 17.04645 C 198.146256 16.688206 198.222682 16.341107 198.443997 15.963757 Q 199.322889 14.467092 199.499623 14.237816 Q 200.962851 12.352656 203.09321 11.314544 C 203.534248 11.099598 204.139283 10.9563 204.497527 10.830516 Q 204.720434 10.752499 204.973594 10.744538 C 205.209239 10.738169 205.397118 10.636268 205.616841 10.613978 Q 206.81258 10.491379 208.350642 10.110844 Q 209.570264 9.808326 210.119572 9.531284 Q 210.659326 9.259019 211.124247 9.09343 Q 211.146538 9.085469 211.479307 8.919881 Q 212.819936 8.247974 213.741818 7.619057 C 215.470943 6.440832 216.899143 5.20688 218.612346 3.697478 Q 218.757236 3.570102 219.220565 3.386999 C 220.011886 3.074929 220.971981 3.154539 221.768079 3.399737 Q 222.330124 3.571694 223.170804 4.108264 Q 224.167518 4.746735 224.490734 4.976011 C 225.059148 5.382021 225.680105 5.689315 226.165725 6.049151 Q 227.797726 7.25922 230.292697 8.318031 Q 230.451917 8.386495 230.561778 8.4263 Q 232.364144 9.099799 232.696913 9.233544 C 233.978631 9.749415 235.437083 10.263695 236.736315 10.833701 C 237.198052 11.037502 237.897026 11.257225 238.438373 11.497647 Q 238.978127 11.73966 239.111872 11.795387 Q 243.023898 13.408282 246.934331 15.03073 Q 247.068076 15.086457 247.722469 15.390566 C 248.077528 15.556155 248.491499 15.693084 248.797201 15.826828 Q 250.865464 16.737564 251.911537 17.406287 Q 252.046873 17.492265 252.403525 17.946041 C 253.245797 19.015997 254.113544 20.383693 254.952631 21.654266 Q 258.106772 26.430854 260.754594 30.852383 Q 261.082587 31.401691 261.620749 32.361785 C 262.125475 33.262968 262.6509 34.074988 263.144481 34.985725 Q 263.149257 34.995278 263.646022 35.821627 C 263.881668 36.216492 264.032926 36.659123 264.238319 37.090608 Q 264.561535 37.77366 264.625223 38.217883 Q 264.647514 38.373918 264.711202 38.603194 Q 264.813102 38.964623 264.816287 38.980545 Q 264.986652 39.924717 265.164978 40.76062 Q 265.289169 41.344956 265.340119 41.805101 Q 265.346488 41.859235 265.381516 42.083735 Q 266.1601 47.017951 268.50859 50.987296 Q 269.234631 52.214879 269.944751 53.531626 C 270.217016 54.039536 270.363498 54.429624 270.591182 54.864294 Q 271.6484 56.873645 271.457337 59.203028 Q 271.288564 61.242632 271.173926 63.166005 Z M 244.321538 75.363819 C 244.450505 76.24908 244.971154 77.23465 245.880298 77.572195 C 245.926471 77.58971 245.979014 77.581749 246.017226 77.549905 L 246.238542 77.371579 C 246.303822 77.319036 246.399354 77.333366 246.445527 77.403423 Q 247.11425 78.408098 248.206496 78.957406 Q 248.214457 78.960591 248.217642 78.95263 L 248.236748 78.901679 Q 248.244709 78.877796 248.22401 78.861874 C 247.388107 78.24251 246.822878 77.475072 246.822878 76.389194 Q 246.822878 74.593196 246.797403 73.381535 C 246.79581 73.332177 246.754413 73.295557 246.705055 73.300333 Q 244.913835 73.510503 243.242029 73.980201 Q 241.417372 74.49448 237.908171 75.411585 C 237.346126 75.55966 236.806372 75.773014 236.295277 75.90835 Q 235.916334 76.008659 236.308014 76.035726 Q 238.373093 76.172655 240.634011 75.795305 Q 242.831242 75.429099 244.076339 75.19027 Q 244.289694 75.148873 244.321538 75.363819 Z" style="fill:#082f3b;"/>
		<path d="M 273.157802 67.474487 L 263.259119 69.770434 C 263.190654 69.786356 263.126967 69.736998 263.123782 69.666942 L 263.002775 66.436375 C 263.001183 66.387017 263.034619 66.344028 263.082385 66.332883 Q 266.749213 65.484242 271.616557 64.30124 Q 271.724826 64.275765 271.72801 64.18501 Q 271.841056 64.216854 272.075109 64.161127 Q 274.152925 63.669139 274.350357 63.627741 Q 282.707795 61.85085 291.065233 60.07396 C 291.558814 59.968875 291.676636 59.605854 291.944125 59.355879 Q 293.386655 58.007289 294.539405 57.136358 Q 295.345056 56.528139 296.308335 56.16671 Q 296.881525 55.951764 297.787485 55.939026 C 298.427548 55.929473 299.694936 55.910367 300.581789 56.080732 C 301.033973 56.168302 301.568951 56.088693 302.009989 56.173079 C 302.763098 56.317969 303.439781 56.236767 304.215181 56.388025 C 304.538397 56.451713 305.059045 56.395986 305.525558 56.486742 C 305.96182 56.571128 306.385344 56.579089 307.32474 56.620486 Q 307.528541 56.630039 308.711543 56.728755 C 309.259258 56.774929 309.940718 56.757415 310.564859 56.844986 C 311.287716 56.946886 312.153871 56.89912 312.899019 56.948478 Q 313.789056 57.010574 314.132971 57.024904 Q 314.343141 57.034457 314.300151 57.241443 C 314.290598 57.289208 314.25557 57.329013 314.209396 57.346528 Q 309.873846 58.916433 305.43958 61.18372 Q 302.879328 62.492506 300.161449 63.904784 Q 298.244445 64.899906 296.125232 64.368113 Q 294.491639 63.958918 293.773558 63.731234 Q 292.921733 63.462153 292.345358 63.325224 C 292.122451 63.271089 291.877253 63.078434 291.582696 63.146898 Q 282.384579 65.336168 273.157802 67.474487 Z" style="fill:#082f3b;"/>
		<path d="M 271.173926 63.166005 Q 271.521025 63.575199 271.599042 63.979617 Q 271.621333 64.097439 271.72801 64.18501 Q 271.724826 64.275765 271.616557 64.30124 Q 266.749213 65.484242 263.082385 66.332883 C 263.034619 66.344028 263.001183 66.387017 263.002775 66.436375 L 263.123782 69.666942 C 263.126967 69.736998 263.190654 69.786356 263.259119 69.770434 L 273.157802 67.474487 C 274.539829 68.659081 275.491962 70.650919 274.915587 72.448508 Q 274.890112 72.52971 274.941062 72.596582 C 275.122572 72.829043 275.44738 73.016922 275.412352 73.410195 Q 275.194221 72.822674 274.644914 72.598175 Q 271.936588 71.490006 270.543416 71.198634 Q 270.451069 71.179528 270.522718 71.117432 C 270.939873 70.765557 271.35066 70.619075 272.167456 70.22421 Q 272.364889 70.130271 272.570282 69.918508 C 272.646707 69.842083 272.595757 69.709931 272.487488 69.705154 Q 271.750301 69.670126 271.17711 69.794317 Q 267.115418 70.662064 263.349874 71.351485 Q 263.184286 71.381737 263.182693 71.55051 Q 263.182693 73.379943 263.233644 74.906859 Q 263.25275 75.470497 263.074424 76.046872 Q 262.630201 77.492586 262.504418 77.723454 C 261.636671 79.32998 259.855003 79.118218 258.267584 78.98925 Q 252.76973 78.545027 250.233362 78.24251 Q 248.940499 78.088067 248.545634 77.110459 Q 248.370492 76.672605 248.370492 75.292171 Q 248.373677 71.693807 248.381638 65.684859 C 248.38323 64.447722 248.575886 63.325224 249.857604 62.80776 Q 250.277943 62.638988 251.300133 62.615105 Q 254.29187 62.549825 259.106671 62.572115 C 260.178219 62.576892 261.206778 62.583261 262.009245 63.481259 Q 262.603134 64.146797 262.838779 64.901498 Q 262.86107 64.974739 262.935903 64.958817 L 271.173926 63.166005 Z M 254.863468 71.52185 Q 257.640259 70.993241 258.299428 70.843574 Q 259.269075 70.625444 260.275343 70.135047 C 260.318332 70.114349 260.3454 70.068175 260.342215 70.020409 Q 260.232354 68.246703 260.095425 67.156048 Q 259.988748 66.309 259.767433 65.882291 C 259.20698 64.799598 258.3663 65.012952 257.188075 65.186501 Q 255.591102 65.422147 252.492688 65.974639 C 251.207786 66.202323 251.236446 67.393285 251.277843 68.464833 Q 251.367006 70.736897 251.494381 72.090264 Q 251.516672 72.324317 251.742764 72.266998 Q 254.099214 71.66674 254.863468 71.52185 Z M 258.538257 76.451289 C 259.007955 76.522938 259.455362 76.516569 259.823159 76.145588 Q 260.464815 75.497564 260.507804 74.515179 Q 260.573084 72.951642 260.353361 71.192265 C 260.3454 71.133354 260.286489 71.096734 260.230762 71.11584 C 258.172052 71.817999 255.543336 72.345015 253.906558 72.787646 Q 252.954425 73.045582 252.118522 73.430893 Q 251.38452 73.768439 251.819189 74.491296 Q 252.296848 75.285802 253.25535 75.476865 Q 256.834607 76.193354 258.538257 76.451289 Z" style="fill:#f7a469;"/>
		<path d="M 211.404474 81.25813 Q 212.732366 79.177129 214.897752 78.08329 Q 216.87526 77.373171 218.876651 76.678973 Q 220.416304 76.145588 221.908192 75.706142 Q 232.633225 72.547224 243.097139 69.692417 Q 243.735609 69.518867 244.302431 69.407414 C 244.353381 69.39786 244.391594 69.353279 244.393186 69.300736 Q 244.410701 68.507823 244.436176 68.144802 C 244.463243 67.75949 244.622463 67.493594 244.840593 67.187892 C 244.891544 67.116243 244.840593 67.015935 244.751431 67.015935 C 239.446233 67.011158 234.449921 67.36781 228.183037 67.917118 Q 225.078255 68.189383 222.839627 68.58584 Q 220.741112 68.956822 218.655335 69.994934 C 218.886204 69.743367 219.314504 69.725853 219.199866 69.251378 C 219.188721 69.200428 219.188721 69.149478 219.199866 69.098527 C 219.464171 67.995136 220.110603 66.640177 221.128016 66.11316 Q 222.019646 65.651423 222.812559 66.305815 Q 225.092584 66.227798 227.383755 66.027181 Q 229.682886 65.824972 230.558594 65.777206 C 235.491218 65.503349 240.360153 65.524047 245.485433 65.595696 C 245.531607 65.595696 245.571412 65.56226 245.576188 65.516086 Q 245.65739 64.848956 246.014042 64.286911 Q 246.33885 63.775816 246.92637 63.63411 L 247.160423 63.578383 Q 247.73043 63.439862 247.534589 63.992354 C 246.834023 65.957124 246.738491 68.038125 246.779888 70.201919 Q 246.781481 70.314965 246.676396 70.35477 Q 246.451896 70.440749 246.146194 70.518766 Q 240.855326 71.875318 235.60904 73.402234 C 227.399677 75.79212 221.643887 77.467111 216.540899 79.122995 Q 215.550553 79.444618 216.582296 79.299728 C 219.269923 78.922378 221.487852 78.586424 223.828381 78.379439 Q 228.259463 77.987759 232.711243 78.010049 Q 234.57252 78.019603 239.756711 78.221812 Q 244.270587 78.396953 246.584048 78.67718 C 247.644451 78.806148 249.155445 79.350679 250.384621 79.52582 C 252.45766 79.820376 254.737685 80.013032 256.407899 80.197727 C 258.200712 80.396751 259.926652 80.699269 261.609604 81.030446 Q 262.015614 81.110055 261.601643 81.110055 C 256.957206 81.102094 252.285703 80.866449 247.606238 80.465216 Q 240.637196 79.868142 233.507341 79.732806 C 227.19906 79.614983 220.968796 79.933422 214.813366 80.793208 Q 213.071503 81.035222 211.404474 81.25813 Z" style="fill:#f7a469;"/>
		<path d="M 214.897752 78.08329 Q 215.83874 75.363819 216.752661 72.607728 Q 216.865707 72.270182 216.999451 71.969257 Q 217.141157 71.655595 217.286047 71.341932 Q 217.723901 70.405721 218.655335 69.994934 Q 220.741112 68.956822 222.839627 68.58584 Q 225.078255 68.189383 228.183037 67.917118 C 234.449921 67.36781 239.446233 67.011158 244.751431 67.015935 C 244.840593 67.015935 244.891544 67.116243 244.840593 67.187892 C 244.622463 67.493594 244.463243 67.75949 244.436176 68.144802 Q 244.410701 68.507823 244.393186 69.300736 C 244.391594 69.353279 244.353381 69.39786 244.302431 69.407414 Q 243.735609 69.518867 243.097139 69.692417 Q 232.633225 72.547224 221.908192 75.706142 Q 220.416304 76.145588 218.876651 76.678973 Q 216.87526 77.373171 214.897752 78.08329 Z" style="fill:#082f3b;"/>
		<path d="M 276.218003 81.418941 Q 276.819854 81.560647 277.014102 81.641849 Q 277.749696 81.950735 277.878664 82.689514 C 277.961458 83.168765 278.106348 83.350275 278.421603 83.659161 Q 278.42638 83.73081 278.485291 83.786537 L 278.584007 84.11453 Q 278.505989 84.23076 278.334032 84.175033 C 278.066543 84.08587 277.974196 83.754693 277.89777 83.471282 C 277.74492 82.899684 276.624013 82.630603 276.079482 82.503227 Q 268.506997 80.745442 263.195431 79.439842 Q 263.099899 79.417551 262.816488 79.310874 C 262.7528 79.286991 262.719364 79.215342 262.743247 79.151654 L 263.400824 77.326997 Q 263.43426 77.237834 263.525016 77.264902 Q 267.57397 78.511591 270.546601 79.431881 Q 272.067148 79.903171 276.218003 81.418941 Z" style="fill:#f7a469;"/>
		<path d="M 278.485291 83.786537 Q 278.42638 83.73081 278.421603 83.659161 Q 278.496436 83.719665 278.485291 83.786537 Z" style="fill:#082f3b;"/>
		<path d="M 263.781359 105.356019 Q 263.754292 106.362287 263.792505 106.640921 Q 263.978791 108.011802 263.97083 108.511751 Q 263.786136 108.752173 263.604625 108.842928 Q 262.125475 109.581707 260.589006 110.191518 Q 255.817194 112.08464 251.113846 113.487365 Q 247.738391 114.49204 247.386515 114.597125 C 247.2671 114.632154 247.212966 114.770675 247.276654 114.878944 L 252.74744 124.029295 C 252.774507 124.073877 252.817496 124.105721 252.868447 124.118458 Q 260.659062 126.094374 268.417834 128.095764 Q 269.064266 128.262945 269.758464 128.227917 Q 270.258413 129.522372 269.384297 130.625764 Q 266.070937 129.490528 264.688911 129.21667 Q 258.702253 128.028892 253.691612 126.952568 C 253.569013 126.9255 253.452783 127.024216 253.460744 127.15 Q 253.492587 127.677017 253.721864 128.154676 C 255.591102 132.053964 257.920485 136.118841 258.503229 140.659784 Q 258.565324 141.140628 258.474569 141.654907 Q 258.46024 141.736109 258.391775 141.78069 C 257.836099 142.153264 256.817093 142.037034 256.629214 141.325322 Q 255.19783 135.889565 253.23306 130.695821 Q 253.064287 130.250006 252.108969 127.29489 C 251.943381 126.785387 251.343123 125.973367 251.048566 125.412914 Q 249.6952 122.835148 247.703362 119.66827 Q 244.71481 114.918749 242.772331 112.240675 Q 241.054351 109.871487 238.745667 107.390845 Q 235.54376 103.950109 231.790954 102.201878 Q 230.507644 101.603212 229.407436 101.313433 C 228.163931 100.98544 227.230904 101.381897 226.16254 102.146151 Q 224.635624 103.238398 222.962226 104.897466 Q 222.888985 104.969115 222.970187 105.034395 Q 225.087808 106.707793 227.740407 109.419303 C 231.633326 113.398202 235.056548 116.843714 238.377869 120.340177 Q 241.008177 123.109006 243.33756 125.3954 C 245.014143 127.040138 246.977321 128.618005 248.615691 130.372605 Q 252.936911 134.997935 254.949447 141.035543 C 254.968553 141.096046 254.90805 141.150181 254.850731 141.124706 C 253.506917 140.52604 252.339837 139.159936 251.61698 138.007186 Q 249.328995 134.35628 246.359549 131.343845 Q 245.558674 130.530232 244.009467 129.197564 Q 241.641871 127.157961 240.278951 125.822108 Q 239.145308 124.707571 235.569235 121.04552 Q 233.083817 118.50119 230.861111 116.240272 Q 227.738814 113.062248 224.969985 109.24257 Q 224.721603 108.900247 222.384259 105.598032 Q 222.258475 105.419707 222.054674 105.500909 Q 220.718822 106.026333 219.892472 107.381292 Q 219.843114 107.01031 219.925908 106.703017 Q 220.187028 105.722224 220.379684 104.731878 Q 222.186826 102.7687 224.243944 101.122369 Q 225.555913 100.07152 226.199161 99.76741 C 226.90928 99.429865 227.939431 98.95539 228.767373 98.380607 Q 231.292596 96.629191 235.040626 95.471665 Q 240.406327 93.814189 245.815018 94.599141 Q 247.28143 94.812496 248.937314 95.223282 C 254.930341 96.711986 260.230762 100.272136 263.781359 105.356019 Z M 243.826365 107.680625 Q 245.561858 107.073998 247.340341 106.545389 Q 254.053041 104.550367 259.151253 103.114206 C 259.189465 103.103061 259.205387 103.05848 259.183097 103.028228 C 257.977804 101.337316 256.876004 99.947328 255.008358 98.920362 C 252.954425 97.789902 250.535879 96.955592 248.115741 96.500224 Q 238.95106 94.77906 230.365938 98.590777 C 230.108002 98.705415 229.740205 98.934692 229.510929 99.084358 Q 229.046007 99.388467 229.595315 99.482407 C 231.435894 99.797662 233.230299 100.482306 234.897328 101.561815 C 238.280745 103.752677 241.063904 106.421198 243.466528 109.611959 Q 244.633608 111.161166 245.850046 112.923727 Q 245.915326 113.017667 246.02678 112.985823 Q 249.701568 111.923828 255.632499 110.095987 Q 259.57 108.881141 262.025167 107.881242 C 262.604726 107.644005 263.325991 107.252324 263.214537 106.609077 Q 263.190654 106.470556 262.942272 105.870298 C 262.381819 104.518523 261.370774 104.26218 260.026961 104.542406 Q 258.810523 104.797158 257.487408 105.303476 Q 251.534186 107.588278 245.13515 109.33014 C 245.088976 109.341286 245.04121 109.326956 245.012551 109.290335 L 243.796113 107.782526 C 243.767453 107.747497 243.783375 107.694955 243.826365 107.680625 Z" style="fill:#f7a469;"/>
		<path d="M 269.384297 130.625764 Q 268.920968 131.077948 268.473561 131.39161 C 268.212441 131.576305 268.159899 131.740301 268.116909 132.03645 L 267.577155 133.338866 Q 267.608999 133.356381 267.63925 133.373895 Q 266.752397 133.314983 266.066161 133.287916 Q 264.860868 133.238558 261.467898 132.566651 Q 259.259522 132.130389 257.172153 131.655915 C 257.135532 131.647954 257.106873 131.686167 257.122795 131.719603 Q 257.383915 132.241843 257.885457 133.259257 C 258.09085 133.678004 258.30102 133.920018 258.718175 134.08083 Q 259.694192 134.461365 260.862864 134.73363 Q 263.166771 135.271793 265.548697 135.647551 Q 265.934008 135.708054 266.432366 135.716015 Q 266.871812 135.725568 267.320811 135.75582 Q 267.105865 136.061522 266.736475 136.765273 Q 264.90545 140.248998 261.703543 142.716902 Q 261.295941 142.914334 260.988647 143.220036 Q 260.307187 143.75979 259.447401 144.065492 Q 258.203896 144.12918 257.207181 144.001804 C 252.360536 143.385624 247.537774 141.56256 243.893237 138.203026 Q 241.178542 135.700093 238.860305 132.897828 C 238.793432 132.818218 238.67561 132.808665 238.597592 132.877129 C 238.455887 133.001321 237.748952 133.547444 237.677303 133.848369 Q 237.658197 133.924795 237.691633 133.998036 Q 237.839707 134.330805 238.137448 134.751144 C 241.331393 139.274574 245.353281 143.253472 250.841581 144.748544 Q 253.930441 145.589224 257.181706 146.001603 C 256.441335 146.735605 255.75669 147.214856 254.92238 147.789639 C 252.908251 149.178034 250.475376 150.083993 248.058422 150.603049 Q 246.343627 150.972439 244.722771 151.112552 Q 242.660877 151.29247 240.03853 151.021797 Q 239.736013 150.989953 239.398467 150.913528 C 239.137347 150.854616 238.809354 150.873723 238.546642 150.802074 C 237.990966 150.652408 237.175761 150.590312 236.605755 150.370589 C 236.046894 150.15405 235.44982 150.053742 234.841602 149.816505 Q 233.948379 149.466221 233.749355 149.389796 Q 233.147505 149.158928 232.677807 148.926467 Q 230.822898 148.010954 229.450425 147.03653 Q 227.347134 145.541458 225.45879 143.482748 C 225.092584 143.081515 224.646769 142.807657 224.476404 142.173963 C 224.743893 141.849155 224.95884 141.535492 225.274095 141.239344 Q 226.990482 139.631226 227.972867 138.879709 C 229.724283 137.540672 232.082326 136.184121 233.86877 135.00908 Q 236.68218 133.157356 239.955736 131.163926 Q 240.156352 131.042919 240.321941 131.2101 Q 244.608133 135.556796 246.681172 137.599583 C 248.3689 139.263428 249.577377 140.277657 251.570807 140.930458 Q 251.769831 140.995738 251.63131 140.83811 C 251.016722 140.132767 250.714205 139.790445 250.260429 139.190187 Q 247.953337 136.149093 247.039416 135.206512 Q 243.31527 131.366135 239.379361 127.165922 Q 238.167699 125.873059 233.856032 121.268427 C 231.74478 119.01547 229.944006 116.97109 227.909179 114.87576 C 226.356788 113.277195 224.310816 110.858649 223.271112 109.672462 C 222.809375 109.147038 222.105624 108.540411 221.374806 108.54678 Q 220.957651 108.549964 220.766587 108.889102 C 220.610552 109.169328 220.772956 109.50369 220.948098 109.76481 Q 222.650155 112.3171 224.61811 114.514331 Q 224.718418 114.625785 226.789866 116.842122 Q 231.235277 121.602788 235.601079 126.038647 C 235.631331 126.068899 235.624962 126.118257 235.589934 126.140547 C 233.62994 127.36017 232.03456 128.055959 229.046007 129.528741 C 226.385448 130.839118 223.67553 132.405839 221.76171 134.698602 Q 220.871672 135.763781 220.540496 137.021616 C 220.29689 137.938721 220.747481 138.535795 221.462377 139.0039 C 221.483076 139.01823 221.511735 139.0039 221.513327 138.978425 C 221.642295 137.464247 223.350722 135.857721 224.460483 134.931063 Q 226.035165 133.615909 227.447443 132.62397 Q 230.587253 130.417186 235.185516 127.583077 Q 235.636107 127.306035 236.180639 126.88888 C 236.237958 126.84589 236.31916 126.852259 236.368518 126.904802 L 239.083212 129.823297 C 239.108687 129.848772 239.09595 129.893354 239.060921 129.902907 Q 238.707454 130.0064 238.338064 130.181541 Q 233.938826 132.264134 230.205126 134.626953 C 227.710155 136.204819 224.447745 138.825574 224.39361 142.0848 C 223.9876 142.240835 223.670753 142.320445 223.247229 142.119828 C 222.873063 141.941502 222.677223 141.865077 222.417695 141.691527 Q 219.79694 139.951257 218.316197 137.207903 C 217.902226 136.440465 217.418199 135.481962 217.171408 134.579187 Q 216.754253 133.061824 216.722409 131.773738 C 216.708079 131.200547 216.731962 131.019037 216.442183 130.603473 Q 215.808489 129.691145 215.517117 128.423757 Q 215.230521 127.177067 215.227337 127.16433 C 215.125436 126.732844 215.150912 126.404852 215.042642 126.049792 C 214.907305 125.603977 214.942334 124.970283 214.877054 124.688465 Q 214.781522 124.272901 214.783114 123.776136 C 214.784706 123.314399 214.655738 122.723695 214.636632 122.24922 Q 214.557022 120.314702 214.641409 117.856351 Q 214.655738 117.451933 214.730572 117.174891 C 214.811774 116.875558 214.783114 116.611253 214.877054 116.259378 Q 215.238482 114.917157 215.528262 114.060555 Q 215.533039 114.047818 215.585581 113.821726 C 215.626978 113.641808 215.749577 113.528762 215.808489 113.380687 Q 216.610955 111.352229 217.854461 109.774363 Q 218.453126 109.013293 219.49283 108.193312 Q 219.685486 108.040461 219.769873 107.833476 Q 219.86222 107.6042 219.892472 107.381292 Q 220.718822 106.026333 222.054674 105.500909 Q 222.258475 105.419707 222.384259 105.598032 Q 224.721603 108.900247 224.969985 109.24257 Q 227.738814 113.062248 230.861111 116.240272 Q 233.083817 118.50119 235.569235 121.04552 Q 239.145308 124.707571 240.278951 125.822108 Q 241.641871 127.157961 244.009467 129.197564 Q 245.558674 130.530232 246.359549 131.343845 Q 249.328995 134.35628 251.61698 138.007186 C 252.339837 139.159936 253.506917 140.52604 254.850731 141.124706 C 254.90805 141.150181 254.968553 141.096046 254.949447 141.035543 Q 252.936911 134.997935 248.615691 130.372605 C 246.977321 128.618005 245.014143 127.040138 243.33756 125.3954 Q 241.008177 123.109006 238.377869 120.340177 C 235.056548 116.843714 231.633326 113.398202 227.740407 109.419303 Q 225.087808 106.707793 222.970187 105.034395 Q 222.888985 104.969115 222.962226 104.897466 Q 224.635624 103.238398 226.16254 102.146151 C 227.230904 101.381897 228.163931 100.98544 229.407436 101.313433 Q 230.507644 101.603212 231.790954 102.201878 Q 235.54376 103.950109 238.745667 107.390845 Q 241.054351 109.871487 242.772331 112.240675 Q 244.71481 114.918749 247.703362 119.66827 Q 249.6952 122.835148 251.048566 125.412914 C 251.343123 125.973367 251.943381 126.785387 252.108969 127.29489 Q 253.064287 130.250006 253.23306 130.695821 Q 255.19783 135.889565 256.629214 141.325322 C 256.817093 142.037034 257.836099 142.153264 258.391775 141.78069 Q 258.46024 141.736109 258.474569 141.654907 Q 258.565324 141.140628 258.503229 140.659784 C 257.920485 136.118841 255.591102 132.053964 253.721864 128.154676 Q 253.492587 127.677017 253.460744 127.15 C 253.452783 127.024216 253.569013 126.9255 253.691612 126.952568 Q 258.702253 128.028892 264.688911 129.21667 Q 266.070937 129.490528 269.384297 130.625764 Z M 225.229513 103.59505 C 225.173786 103.63167 225.172194 103.71128 225.224737 103.751085 Q 225.637115 104.048826 226.208714 104.286063 C 227.6194 104.867214 228.655919 105.308253 229.725875 106.01678 Q 231.329217 107.080367 232.733534 108.463986 Q 236.769751 112.444476 240.613313 116.810278 Q 241.689637 118.031492 242.624256 119.204941 Q 246.176446 123.661498 248.688932 127.484361 C 249.462739 128.662586 250.110763 129.603574 251.414771 130.041428 C 251.454576 130.054166 251.492789 130.015953 251.478459 129.976148 C 250.305011 126.861812 248.902286 124.728269 246.762374 121.129906 Q 244.655899 117.585677 242.178442 114.568466 C 241.441255 113.672059 240.598983 112.949202 239.764672 112.176987 C 238.404937 110.919152 236.71084 108.954382 235.924295 108.145546 Q 234.446737 106.629776 233.161835 105.618731 C 231.27349 104.134804 227.608254 102.03629 225.229513 103.59505 Z M 218.230219 120.536017 C 218.249325 120.575822 218.301868 120.585375 218.335304 120.555123 L 219.677525 119.306842 C 219.709369 119.278182 219.718922 119.230416 219.701408 119.190611 C 218.962629 117.576124 218.113989 115.784904 218.117173 113.950694 Q 218.118765 113.831279 218.069407 113.939548 C 217.516915 115.168724 216.569558 117.49333 217.244649 118.676332 Q 217.819432 119.6826 218.230219 120.536017 Z M 217.741415 127.492322 C 220.308035 123.884406 223.384158 120.649063 227.353503 118.626974 C 227.393308 118.606275 227.396492 118.552141 227.359872 118.526665 C 226.455504 117.888195 225.44446 117.178075 224.309224 117.870681 Q 220.113787 120.432524 218.270024 124.635922 Q 217.601301 126.162838 217.478702 127.622882 C 217.473926 127.673832 217.532837 127.704084 217.572642 127.67224 Q 217.67295 127.589446 217.741415 127.492322 Z M 232.160343 123.629654 C 231.316479 123.0899 230.813345 122.51034 229.778418 122.817634 Q 228.85176 123.091492 228.014264 123.559597 Q 225.116467 125.177269 222.607166 127.387237 C 220.893963 128.896639 219.303359 130.83275 218.666481 133.04431 Q 218.489747 133.657306 218.504077 134.195468 Q 218.512038 134.469326 218.637821 134.22572 C 220.150407 131.353398 222.465461 129.312202 225.286832 127.794839 Q 227.359872 126.67871 229.477493 125.4973 Q 230.897732 124.704387 232.16512 123.784097 C 232.217662 123.745884 232.21607 123.666275 232.160343 123.629654 Z M 233.416586 136.071075 Q 233.314685 135.763781 233.094962 136.002611 L 232.521772 136.63312 Q 232.302049 136.873542 232.450123 137.163322 Q 232.763786 137.774725 233.313093 138.460961 Q 238.180437 144.546335 245.861191 145.791433 Q 245.894627 145.796209 245.908957 145.765957 L 245.908957 145.764365 Q 245.923287 145.732521 245.88189 145.718192 C 240.974741 144.057531 237.092967 140.546738 233.784383 136.709546 Q 233.529632 136.413397 233.416586 136.071075 Z M 264.79718 136.9229 C 264.824248 136.876726 264.79718 136.819407 264.744638 136.811446 L 262.983669 136.540773 C 262.924758 136.532812 262.867439 136.561471 262.840371 136.614014 C 262.45506 137.371899 262.141397 137.935537 261.611196 138.577192 Q 261.558653 138.639287 260.205287 140.307909 Q 259.850227 140.745763 259.866149 141.342837 C 259.869333 141.476581 260.00467 141.565744 260.128861 141.517978 Q 260.609704 141.333283 260.861271 141.15655 Q 263.197023 139.521364 264.79718 136.9229 Z M 231.268713 143.27417 Q 229.956744 142.003598 228.843799 140.610426 Q 228.458487 140.126399 228.160746 139.567538 C 228.117757 139.487928 228.01108 139.470414 227.9458 139.532509 L 226.886989 140.518079 Q 226.716624 140.675706 226.851961 140.865178 Q 228.412313 143.024196 230.471023 144.79631 C 234.765176 148.49339 240.737504 149.73371 246.305414 149.072949 Q 246.332481 149.069765 246.330889 149.042697 L 246.329297 148.988563 Q 246.329297 148.967864 246.308598 148.967864 Q 245.264118 148.966272 243.936226 148.877109 Q 236.55162 148.386712 231.268713 143.27417 Z" style="fill:#082f3b;"/>
		<path d="M 224.476404 142.173963 Q 224.444561 142.116644 224.39361 142.0848 C 224.447745 138.825574 227.710155 136.204819 230.205126 134.626953 Q 233.938826 132.264134 238.338064 130.181541 Q 238.707454 130.0064 239.060921 129.902907 C 239.09595 129.893354 239.108687 129.848772 239.083212 129.823297 L 236.368518 126.904802 C 236.31916 126.852259 236.237958 126.84589 236.180639 126.88888 Q 235.636107 127.306035 235.185516 127.583077 Q 230.587253 130.417186 227.447443 132.62397 Q 226.035165 133.615909 224.460483 134.931063 C 223.350722 135.857721 221.642295 137.464247 221.513327 138.978425 C 221.511735 139.0039 221.483076 139.01823 221.462377 139.0039 C 220.747481 138.535795 220.29689 137.938721 220.540496 137.021616 Q 220.871672 135.763781 221.76171 134.698602 C 223.67553 132.405839 226.385448 130.839118 229.046007 129.528741 C 232.03456 128.055959 233.62994 127.36017 235.589934 126.140547 C 235.624962 126.118257 235.631331 126.068899 235.601079 126.038647 Q 231.235277 121.602788 226.789866 116.842122 Q 224.718418 114.625785 224.61811 114.514331 Q 222.650155 112.3171 220.948098 109.76481 C 220.772956 109.50369 220.610552 109.169328 220.766587 108.889102 Q 220.957651 108.549964 221.374806 108.54678 C 222.105624 108.540411 222.809375 109.147038 223.271112 109.672462 C 224.310816 110.858649 226.356788 113.277195 227.909179 114.87576 C 229.944006 116.97109 231.74478 119.01547 233.856032 121.268427 Q 238.167699 125.873059 239.379361 127.165922 Q 243.31527 131.366135 247.039416 135.206512 Q 247.953337 136.149093 250.260429 139.190187 C 250.714205 139.790445 251.016722 140.132767 251.63131 140.83811 Q 251.769831 140.995738 251.570807 140.930458 C 249.577377 140.277657 248.3689 139.263428 246.681172 137.599583 Q 244.608133 135.556796 240.321941 131.2101 Q 240.156352 131.042919 239.955736 131.163926 Q 236.68218 133.157356 233.86877 135.00908 C 232.082326 136.184121 229.724283 137.540672 227.972867 138.879709 Q 226.990482 139.631226 225.274095 141.239344 C 224.95884 141.535492 224.743893 141.849155 224.476404 142.173963 Z" style="fill:#f7a469;"/>
		<path d="M 263.97083 108.511751 Q 264.464411 109.010109 264.854499 109.581707 Q 264.997797 109.791877 265.21752 110.285458 Q 265.351265 110.583199 265.569395 111.000354 Q 265.803448 111.449353 266.220604 112.576628 Q 266.589993 113.574935 267.077205 115.776943 Q 267.516651 117.759227 267.569194 119.73355 C 267.572378 119.811568 267.626513 119.87844 267.702938 119.897546 C 268.416242 120.07428 269.010131 120.534425 269.174128 121.297087 Q 269.283989 121.809774 269.404996 122.460982 Q 265.561434 120.996162 263.002775 120.488251 C 258.047861 119.501089 254.384217 118.859434 250.317748 117.408944 C 250.285904 117.397798 250.255653 117.42805 250.266798 117.459894 C 250.516773 118.182751 250.889347 119.06642 251.4498 119.577515 C 252.417855 120.457999 253.7553 120.881524 255.049755 121.177672 Q 256.825054 121.58209 258.396552 121.731756 Q 263.126967 122.187124 265.515261 122.448245 Q 267.389276 122.653638 269.054713 123.288924 C 269.696368 123.534122 269.61835 123.946501 269.732988 124.510139 Q 269.861956 126.360271 269.758464 128.227917 Q 269.064266 128.262945 268.417834 128.095764 Q 260.659062 126.094374 252.868447 124.118458 C 252.817496 124.105721 252.774507 124.073877 252.74744 124.029295 L 247.276654 114.878944 C 247.212966 114.770675 247.2671 114.632154 247.386515 114.597125 Q 247.738391 114.49204 251.113846 113.487365 Q 255.817194 112.08464 260.589006 110.191518 Q 262.125475 109.581707 263.604625 108.842928 Q 263.786136 108.752173 263.97083 108.511751 Z M 264.365695 117.566571 L 265.583725 118.007609 Q 265.631491 118.023531 265.628307 117.974173 Q 265.462718 115.249926 264.614078 112.55593 Q 264.380025 111.812374 263.954909 111.242368 C 263.913511 111.185049 263.837086 111.165942 263.773398 111.197786 Q 263.134927 111.514633 263.321214 112.253412 Q 264.048848 115.135288 264.206476 117.357993 C 264.212844 117.453525 264.276532 117.534727 264.365695 117.566571 Z M 261.584128 113.025628 C 261.580944 113.003337 261.566614 112.984231 261.545916 112.973085 Q 261.533178 112.966716 261.504519 112.973085 Q 261.493373 112.974677 261.487004 112.984231 Q 260.840573 113.882229 260.622442 114.452235 Q 260.009446 116.055577 259.302511 117.627075 C 259.296143 117.641404 259.305696 117.655734 259.320025 117.658918 L 260.667023 117.864312 Q 260.717974 117.872273 260.73708 117.826099 Q 261.241806 116.674941 261.57776 115.493532 C 261.797483 114.724501 261.689213 113.820134 261.584128 113.025628 Z" style="fill:#082f3b;"/>
		<path d="M 269.404996 122.460982 Q 269.500528 122.744393 269.548294 123.105822 C 269.607205 123.545268 269.761648 124.008597 269.732988 124.510139 C 269.61835 123.946501 269.696368 123.534122 269.054713 123.288924 Q 267.389276 122.653638 265.515261 122.448245 Q 263.126967 122.187124 258.396552 121.731756 Q 256.825054 121.58209 255.049755 121.177672 C 253.7553 120.881524 252.417855 120.457999 251.4498 119.577515 C 250.889347 119.06642 250.516773 118.182751 250.266798 117.459894 C 250.255653 117.42805 250.285904 117.397798 250.317748 117.408944 C 254.384217 118.859434 258.047861 119.501089 263.002775 120.488251 Q 265.561434 120.996162 269.404996 122.460982 Z" style="fill:#f7a469;"/>
		<path d="M 267.63925 133.373895 Q 268.307973 134.475694 267.320811 135.75582 Q 266.871812 135.725568 266.432366 135.716015 Q 265.934008 135.708054 265.548697 135.647551 Q 263.166771 135.271793 260.862864 134.73363 Q 259.694192 134.461365 258.718175 134.08083 C 258.30102 133.920018 258.09085 133.678004 257.885457 133.259257 Q 257.383915 132.241843 257.122795 131.719603 C 257.106873 131.686167 257.135532 131.647954 257.172153 131.655915 Q 259.259522 132.130389 261.467898 132.566651 Q 264.860868 133.238558 266.066161 133.287916 Q 266.752397 133.314983 267.63925 133.373895 Z" style="fill:#f7a469;"/>
		<path d="M 268.116909 132.03645 Q 268.013417 132.791151 267.577155 133.338866 L 268.116909 132.03645 Z" style="fill:#f7a469;"/>
		<path d="M 259.447401 144.065492 Q 259.046168 144.178538 258.565324 144.153063 C 258.479346 144.148286 258.409289 144.219935 258.415658 144.305914 C 258.44591 144.775611 258.210265 144.971452 257.920485 145.380646 Q 257.578163 145.864674 257.181706 146.001603 Q 253.930441 145.589224 250.841581 144.748544 C 245.353281 143.253472 241.331393 139.274574 238.137448 134.751144 Q 237.839707 134.330805 237.691633 133.998036 Q 237.658197 133.924795 237.677303 133.848369 C 237.748952 133.547444 238.455887 133.001321 238.597592 132.877129 C 238.67561 132.808665 238.793432 132.818218 238.860305 132.897828 Q 241.178542 135.700093 243.893237 138.203026 C 247.537774 141.56256 252.360536 143.385624 257.207181 144.001804 Q 258.203896 144.12918 259.447401 144.065492 Z" style="fill:#f7a469;"/>
		<path d="M 261.703543 142.716902 Q 261.383512 143.030564 260.988647 143.220036 Q 261.295941 142.914334 261.703543 142.716902 Z" style="fill:#f7a469;"/>
		<path d="M 254.863468 71.52185 Q 254.099214 71.66674 251.742764 72.266998 Q 251.516672 72.324317 251.494381 72.090264 Q 251.367006 70.736897 251.277843 68.464833 C 251.236446 67.393285 251.207786 66.202323 252.492688 65.974639 Q 255.591102 65.422147 257.188075 65.186501 C 258.3663 65.012952 259.20698 64.799598 259.767433 65.882291 Q 259.988748 66.309 260.095425 67.156048 Q 260.232354 68.246703 260.342215 70.020409 C 260.3454 70.068175 260.318332 70.114349 260.275343 70.135047 Q 259.269075 70.625444 258.299428 70.843574 Q 257.640259 70.993241 254.863468 71.52185 Z" style="fill:#082f3b;"/>
		<path d="M 259.823159 76.145588 C 259.455362 76.516569 259.007955 76.522938 258.538257 76.451289 Q 256.834607 76.193354 253.25535 75.476865 Q 252.296848 75.285802 251.819189 74.491296 Q 251.38452 73.768439 252.118522 73.430893 Q 252.954425 73.045582 253.906558 72.787646 C 255.543336 72.345015 258.172052 71.817999 260.230762 71.11584 C 260.286489 71.096734 260.3454 71.133354 260.353361 71.192265 Q 260.573084 72.951642 260.507804 74.515179 Q 260.464815 75.497564 259.823159 76.145588 Z" style="fill:#082f3b;"/>
		<path d="M 244.321538 75.363819 Q 244.289694 75.148873 244.076339 75.19027 Q 242.831242 75.429099 240.634011 75.795305 Q 238.373093 76.172655 236.308014 76.035726 Q 235.916334 76.008659 236.295277 75.90835 C 236.806372 75.773014 237.346126 75.55966 237.908171 75.411585 Q 241.417372 74.49448 243.242029 73.980201 Q 244.913835 73.510503 246.705055 73.300333 C 246.754413 73.295557 246.79581 73.332177 246.797403 73.381535 Q 246.822878 74.593196 246.822878 76.389194 C 246.822878 77.475072 247.388107 78.24251 248.22401 78.861874 Q 248.244709 78.877796 248.236748 78.901679 L 248.217642 78.95263 Q 248.214457 78.960591 248.206496 78.957406 Q 247.11425 78.408098 246.445527 77.403423 C 246.399354 77.333366 246.303822 77.319036 246.238542 77.371579 L 246.017226 77.549905 C 245.979014 77.581749 245.926471 77.58971 245.880298 77.572195 C 244.971154 77.23465 244.450505 76.24908 244.321538 75.363819 Z" style="fill:#f7a469;"/>
		<path d="M 243.826365 107.680625 C 243.783375 107.694955 243.767453 107.747497 243.796113 107.782526 L 245.012551 109.290335 C 245.04121 109.326956 245.088976 109.341286 245.13515 109.33014 Q 251.534186 107.588278 257.487408 105.303476 Q 258.810523 104.797158 260.026961 104.542406 C 261.370774 104.26218 262.381819 104.518523 262.942272 105.870298 Q 263.190654 106.470556 263.214537 106.609077 C 263.325991 107.252324 262.604726 107.644005 262.025167 107.881242 Q 259.57 108.881141 255.632499 110.095987 Q 249.701568 111.923828 246.02678 112.985823 Q 245.915326 113.017667 245.850046 112.923727 Q 244.633608 111.161166 243.466528 109.611959 C 241.063904 106.421198 238.280745 103.752677 234.897328 101.561815 C 233.230299 100.482306 231.435894 99.797662 229.595315 99.482407 Q 229.046007 99.388467 229.510929 99.084358 C 229.740205 98.934692 230.108002 98.705415 230.365938 98.590777 Q 238.95106 94.77906 248.115741 96.500224 C 250.535879 96.955592 252.954425 97.789902 255.008358 98.920362 C 256.876004 99.947328 257.977804 101.337316 259.183097 103.028228 C 259.205387 103.05848 259.189465 103.103061 259.151253 103.114206 Q 254.053041 104.550367 247.340341 106.545389 Q 245.561858 107.073998 243.826365 107.680625 Z M 253.721864 103.647592 C 254.715394 103.238398 255.226489 103.020267 255.69141 102.875377 C 255.743953 102.859455 255.751914 102.787806 255.704148 102.760739 Q 255.043387 102.389757 254.409692 101.896176 Q 253.858793 101.469468 252.309586 100.780047 Q 249.480253 99.522212 246.061808 98.988826 C 242.243722 98.391753 238.11038 98.450664 234.473804 99.485591 Q 234.137851 99.581123 233.758908 99.792885 C 233.706366 99.823137 233.690444 99.891601 233.725472 99.942552 Q 234.01366 100.353338 234.50724 100.324679 Q 236.675812 100.192526 237.334981 100.155906 Q 240.863287 99.958474 244.697296 100.671778 C 247.759089 101.241784 250.314564 102.292633 253.053141 103.665106 Q 253.333368 103.806812 253.721864 103.647592 Z" style="fill:#082f3b;"/>
		<path d="M 225.229513 103.59505 C 227.608254 102.03629 231.27349 104.134804 233.161835 105.618731 Q 234.446737 106.629776 235.924295 108.145546 C 236.71084 108.954382 238.404937 110.919152 239.764672 112.176987 C 240.598983 112.949202 241.441255 113.672059 242.178442 114.568466 Q 244.655899 117.585677 246.762374 121.129906 C 248.902286 124.728269 250.305011 126.861812 251.478459 129.976148 C 251.492789 130.015953 251.454576 130.054166 251.414771 130.041428 C 250.110763 129.603574 249.462739 128.662586 248.688932 127.484361 Q 246.176446 123.661498 242.624256 119.204941 Q 241.689637 118.031492 240.613313 116.810278 Q 236.769751 112.444476 232.733534 108.463986 Q 231.329217 107.080367 229.725875 106.01678 C 228.655919 105.308253 227.6194 104.867214 226.208714 104.286063 Q 225.637115 104.048826 225.224737 103.751085 C 225.172194 103.71128 225.173786 103.63167 225.229513 103.59505 Z" style="fill:#f7a469;"/>
		<path d="M 265.583725 118.007609 L 264.365695 117.566571 C 264.276532 117.534727 264.212844 117.453525 264.206476 117.357993 Q 264.048848 115.135288 263.321214 112.253412 Q 263.134927 111.514633 263.773398 111.197786 C 263.837086 111.165942 263.913511 111.185049 263.954909 111.242368 Q 264.380025 111.812374 264.614078 112.55593 Q 265.462718 115.249926 265.628307 117.974173 Q 265.631491 118.023531 265.583725 118.007609 Z" style="fill:#f7a469;"/>
		<path d="M 261.584128 113.025628 C 261.689213 113.820134 261.797483 114.724501 261.57776 115.493532 Q 261.241806 116.674941 260.73708 117.826099 Q 260.717974 117.872273 260.667023 117.864312 L 259.320025 117.658918 C 259.305696 117.655734 259.296143 117.641404 259.302511 117.627075 Q 260.009446 116.055577 260.622442 114.452235 Q 260.840573 113.882229 261.487004 112.984231 Q 261.493373 112.974677 261.504519 112.973085 Q 261.533178 112.966716 261.545916 112.973085 C 261.566614 112.984231 261.580944 113.003337 261.584128 113.025628 Z" style="fill:#f7a469;"/>
		<path d="M 218.230219 120.536017 Q 217.819432 119.6826 217.244649 118.676332 C 216.569558 117.49333 217.516915 115.168724 218.069407 113.939548 Q 218.118765 113.831279 218.117173 113.950694 C 218.113989 115.784904 218.962629 117.576124 219.701408 119.190611 C 219.718922 119.230416 219.709369 119.278182 219.677525 119.306842 L 218.335304 120.555123 C 218.301868 120.585375 218.249325 120.575822 218.230219 120.536017 Z" style="fill:#f7a469;"/>
		<path d="M 217.741415 127.492322 Q 217.67295 127.589446 217.572642 127.67224 C 217.532837 127.704084 217.473926 127.673832 217.478702 127.622882 Q 217.601301 126.162838 218.270024 124.635922 Q 220.113787 120.432524 224.309224 117.870681 C 225.44446 117.178075 226.455504 117.888195 227.359872 118.526665 C 227.396492 118.552141 227.393308 118.606275 227.353503 118.626974 C 223.384158 120.649063 220.308035 123.884406 217.741415 127.492322 Z" style="fill:#f7a469;"/>
		<path d="M 229.778418 122.817634 C 230.813345 122.51034 231.316479 123.0899 232.160343 123.629654 C 232.21607 123.666275 232.217662 123.745884 232.16512 123.784097 Q 230.897732 124.704387 229.477493 125.4973 Q 227.359872 126.67871 225.286832 127.794839 C 222.465461 129.312202 220.150407 131.353398 218.637821 134.22572 Q 218.512038 134.469326 218.504077 134.195468 Q 218.489747 133.657306 218.666481 133.04431 C 219.303359 130.83275 220.893963 128.896639 222.607166 127.387237 Q 225.116467 125.177269 228.014264 123.559597 Q 228.85176 123.091492 229.778418 122.817634 Z" style="fill:#f7a469;"/>
		<path d="M 233.416586 136.071075 Q 233.529632 136.413397 233.784383 136.709546 C 237.092967 140.546738 240.974741 144.057531 245.88189 145.718192 Q 245.923287 145.732521 245.908957 145.764365 L 245.908957 145.765957 Q 245.894627 145.796209 245.861191 145.791433 Q 238.180437 144.546335 233.313093 138.460961 Q 232.763786 137.774725 232.450123 137.163322 Q 232.302049 136.873542 232.521772 136.63312 L 233.094962 136.002611 Q 233.314685 135.763781 233.416586 136.071075 Z" style="fill:#f7a469;"/>
		<path d="M 264.79718 136.9229 Q 263.197023 139.521364 260.861271 141.15655 Q 260.609704 141.333283 260.128861 141.517978 C 260.00467 141.565744 259.869333 141.476581 259.866149 141.342837 Q 259.850227 140.745763 260.205287 140.307909 Q 261.558653 138.639287 261.611196 138.577192 C 262.141397 137.935537 262.45506 137.371899 262.840371 136.614014 C 262.867439 136.561471 262.924758 136.532812 262.983669 136.540773 L 264.744638 136.811446 C 264.79718 136.819407 264.824248 136.876726 264.79718 136.9229 Z" style="fill:#f7a469;"/>
		<path d="M 231.268713 143.27417 Q 236.55162 148.386712 243.936226 148.877109 Q 245.264118 148.966272 246.308598 148.967864 Q 246.329297 148.967864 246.329297 148.988563 L 246.330889 149.042697 Q 246.332481 149.069765 246.305414 149.072949 C 240.737504 149.73371 234.765176 148.49339 230.471023 144.79631 Q 228.412313 143.024196 226.851961 140.865178 Q 226.716624 140.675706 226.886989 140.518079 L 227.9458 139.532509 C 228.01108 139.470414 228.117757 139.487928 228.160746 139.567538 Q 228.458487 140.126399 228.843799 140.610426 Q 229.956744 142.003598 231.268713 143.27417 Z" style="fill:#f7a469;"/>
		<path d="M 255.69141 102.875377 C 255.226489 103.020267 254.715394 103.238398 253.721864 103.647592 Q 253.333368 103.806812 253.053141 103.665106 C 250.314564 102.292633 247.759089 101.241784 244.697296 100.671778 Q 240.863287 99.958474 237.334981 100.155906 Q 236.675812 100.192526 234.50724 100.324679 Q 234.01366 100.353338 233.725472 99.942552 C 233.690444 99.891601 233.706366 99.823137 233.758908 99.792885 Q 234.137851 99.581123 234.473804 99.485591 C 238.11038 98.450664 242.243722 98.391753 246.061808 98.988826 Q 249.480253 99.522212 252.309586 100.780047 Q 253.858793 101.469468 254.409692 101.896176 Q 255.043387 102.389757 255.704148 102.760739 C 255.751914 102.787806 255.743953 102.859455 255.69141 102.875377 Z" style="fill:#f7a469;"/>
	</g>
	<g id="surface4">
	</g>
</svg>
