<?xml version="1.0" encoding="utf-8"?>
<svg xmlns="http://www.w3.org/2000/svg" width="490pt" height="280pt" viewBox="0 0 490 280" version="1.1" xmlns:xlink="http://www.w3.org/1999/xlink">
	<g id="surface2">
		<path vector-effect="non-scaling-stroke" d="M 222.379485 125.87973 C 224.454339 128.832535 228.306918 128.970187 231.573636 128.985295 Q 233.925472 128.995367 238.236332 129.003761 Q 240.702319 129.008797 241.701136 126.970875 C 242.043587 126.272542 242.053659 125.513777 242.055338 124.699616 Q 242.067089 82.613335 242.053659 48.673707 Q 242.053659 46.42427 241.964689 46.038173 Q 241.623916 44.567646 240.108065 43.896173 C 239.384552 43.575544 238.645931 43.610796 237.742799 43.610796 Q 231.827118 43.612475 225.909757 43.620868 Q 224.763216 43.622547 224.335152 43.778665 C 223.220506 44.186585 222.310659 45.170294 221.884274 46.293333 Q 221.701297 46.776794 221.701297 48.180174 Q 221.708012 78.963876 221.701297 123.77634 Q 221.701297 124.912808 222.379485 125.87973" style="fill:none;stroke-width:0.50;stroke:#316170;"/>
		<path vector-effect="non-scaling-stroke" d="M 248.044882 52.937563 Q 248.068383 88.844609 248.051596 124.751655 C 248.049918 126.012346 248.024737 126.759361 248.699568 127.630597 Q 249.742031 128.980259 251.509685 128.990331 Q 254.291264 129.007118 258.345285 129.002082 C 261.788266 128.998725 265.577055 128.911433 267.757665 125.762222 Q 268.377099 124.869163 268.377099 123.986175 Q 268.383814 80.182601 268.380457 48.062666 C 268.380457 46.803653 268.244483 46.165753 267.564616 45.25087 Q 266.32239 43.58058 264.314685 43.597367 Q 264.094777 43.600724 251.385462 43.617511 Q 249.550661 43.61919 248.640814 44.816091 C 248.091885 45.536247 248.065026 46.023065 248.05999 47.016846 Q 248.041524 49.978044 248.044882 52.937563" style="fill:none;stroke-width:0.50;stroke:#316170;"/>
		<path d="M 218.684703 125.214972 C 218.703168 125.225044 218.724991 125.211614 218.724991 125.19147 L 218.724991 43.536934 Q 218.724991 43.449643 218.637699 43.449643 Q 215.842691 43.493288 212.75727 43.474823 Q 212.738805 43.474823 212.376209 43.407676 Q 212.142872 43.362351 212.045508 43.599046 C 211.713129 44.419922 211.033262 45.121612 210.291284 45.551355 C 208.760324 46.441057 206.63511 46.242972 205.300557 45.093074 Q 204.632441 44.517286 204.159052 43.588973 C 203.62523 42.541475 203.650411 41.040731 203.895499 39.904263 C 203.949216 39.655817 204.113727 39.373798 204.296704 39.038062 Q 204.966499 37.809265 206.280908 37.159615 Q 208.233217 36.192693 210.188884 37.258657 C 211.026547 37.715259 211.867568 38.549565 212.047187 39.484592 Q 212.063974 39.580277 212.121049 39.649103 Q 212.174767 39.712893 212.257022 39.712893 L 218.667916 39.712893 Q 218.730027 39.712893 218.733384 39.650781 C 218.755207 39.252933 218.691417 38.866836 218.827391 38.468988 C 218.975115 38.030851 219.043941 37.423168 219.280635 36.974959 Q 220.114941 35.396997 221.649258 34.445183 Q 221.818805 34.339426 222.079001 34.238705 C 222.275407 34.163164 222.414738 33.983545 222.64136 33.953329 Q 222.755511 33.93822 223.307798 33.777067 C 223.851691 33.619271 224.318365 33.624307 224.858901 33.624307 Q 225.563949 33.625985 241.989869 33.647808 C 242.018407 33.647808 242.04023 33.624307 242.04023 33.595769 L 242.04023 31.844902 Q 242.04023 31.762646 241.959653 31.750896 Q 240.814791 31.594778 239.805902 31.23554 Q 235.226452 29.608895 232.520414 25.549838 Q 231.407447 23.879547 230.754439 21.709009 Q 230.611751 21.233942 230.450597 20.179728 Q 230.321338 19.340386 230.291122 18.626946 Q 230.182008 16.110599 230.808157 13.768835 Q 230.873625 13.528783 230.997848 13.261873 C 231.120392 12.999998 231.138857 12.828772 231.244614 12.583684 Q 232.909869 8.717676 236.183302 6.300371 Q 236.535826 6.040175 237.578288 5.375416 Q 238.019782 5.095076 238.409237 4.92385 Q 238.842337 4.734159 238.981668 4.653582 Q 239.230113 4.505858 239.55242 4.391707 Q 239.883121 4.2742 240.834935 3.95525 Q 241.585306 3.703447 242.142629 3.607762 Q 244.121798 3.265311 246.178185 3.391212 Q 246.743902 3.426464 247.371729 3.552366 Q 247.927374 3.666516 248.162389 3.706805 Q 248.662637 3.794096 248.946335 3.87803 Q 251.946143 4.761018 254.420523 6.768724 Q 257.289393 9.098737 258.719632 12.545075 Q 259.381033 14.143181 259.636193 15.895727 Q 259.787275 16.928118 259.684875 19.538471 Q 259.676481 19.728162 259.587511 20.117617 C 259.528757 20.372777 259.533793 20.654796 259.475039 20.896526 Q 258.202597 26.160879 253.873272 29.315125 C 253.50564 29.583715 252.886206 29.899307 252.505144 30.188041 C 252.107296 30.488525 251.596976 30.607712 251.205843 30.820905 Q 250.843247 31.018989 250.467222 31.118032 C 250.126449 31.208681 249.396222 31.539381 248.828827 31.621637 Q 248.476303 31.673676 248.179176 31.697178 C 248.071741 31.705571 247.994521 31.804613 248.012987 31.912049 Q 248.150639 32.721175 247.992842 33.557159 C 247.979413 33.631021 248.039846 33.69649 248.113708 33.686418 Q 248.471267 33.637736 248.822112 33.637736 Q 251.26124 33.636057 265.778497 33.637736 Q 266.691701 33.637736 267.660301 34.080909 Q 268.429139 34.435111 269.224835 35.094834 Q 271.28458 36.800376 271.30976 39.635673 C 271.30976 39.680998 271.346691 39.71625 271.392015 39.71625 L 277.656863 39.71625 C 277.77605 39.71625 277.881807 39.640709 277.920417 39.529916 C 278.071498 39.096816 278.261189 38.608319 278.556638 38.274261 Q 279.639389 37.048821 281.163634 36.791983 C 283.06894 36.471354 284.839951 37.444991 285.783371 39.10353 Q 285.882414 39.276435 286.075462 39.842151 Q 286.21815 40.261822 286.265154 40.612667 Q 286.380983 41.499012 286.250045 42.444111 Q 286.216472 42.675769 286.031817 43.043401 C 285.902558 43.301919 285.890807 43.578901 285.719581 43.842455 C 284.977603 44.987317 283.789095 45.935773 282.407538 46.068389 Q 279.936516 46.306762 278.460953 44.386348 Q 278.202435 44.050611 278.125216 43.77195 C 278.078213 43.604082 277.925453 43.488252 277.75087 43.488252 L 271.442376 43.488252 C 271.376907 43.488252 271.324868 43.540292 271.324868 43.60576 L 271.324868 125.03871 C 271.324868 125.082356 271.350048 125.120965 271.388658 125.141109 Q 271.504487 125.196506 271.643818 125.107536 Q 272.103777 124.817124 273.369505 124.135578 Q 276.75541 122.315885 278.533136 120.917541 Q 279.585671 120.08995 279.894549 119.841505 Q 283.512112 116.939061 286.721756 113.036121 Q 287.153177 112.512372 288.447442 110.691 Q 288.821789 110.165572 290.154664 107.709657 C 290.265457 107.506537 290.299031 107.207731 290.502151 106.987823 C 290.643161 106.836742 290.586086 106.589975 290.391358 106.517792 Q 288.262787 105.718738 285.968027 105.686843 Q 282.880927 105.644876 280.012057 105.962147 Q 279.924765 105.97222 279.933158 105.884928 C 279.975126 105.408182 280.431728 105.300746 280.74732 105.043907 Q 281.057877 104.788747 281.06627 104.782033 C 282.060051 104.082022 283.377818 103.116778 284.76441 102.269043 Q 285.074967 102.079352 285.534926 101.77551 Q 288.017699 100.14383 288.022735 100.140472 C 288.294682 99.957496 288.615311 99.823201 288.892294 99.610008 Q 289.073592 99.468999 290.636446 98.439965 Q 291.391854 97.941396 293.083967 96.645453 Q 296.035093 94.384266 298.485971 91.646332 Q 299.68623 90.303385 300.409743 89.128307 Q 300.945243 88.255391 301.141649 87.948192 C 301.2558 87.770251 301.521032 87.792074 301.606645 87.985123 Q 301.744297 88.297358 301.819837 88.649882 Q 302.330157 91.01179 302.098499 93.440845 C 301.99442 94.548777 302.051496 95.708747 301.950775 96.616915 Q 301.811444 97.877606 301.819837 98.685053 C 301.828231 99.604972 301.662041 100.454386 301.668756 101.448167 C 301.675471 102.520846 301.556284 103.524699 301.479065 104.832393 Q 301.421989 105.787564 301.366593 106.400284 C 301.287695 107.291665 301.366593 108.554035 301.227262 109.578032 Q 301.138292 110.236076 301.1534 111.082133 C 301.165151 111.689816 301.003997 112.237067 301.010712 112.915256 Q 301.020784 114.128944 300.968745 115.339275 Q 300.953637 115.659904 300.879774 115.77909 Q 300.661546 116.126578 300.631329 115.716979 C 300.577611 114.94982 300.354346 114.417678 299.934675 113.517903 Q 299.593903 112.792712 299.202769 112.262248 Q 298.088123 110.751432 296.449728 109.522636 C 296.406082 109.489062 296.343971 109.500813 296.317112 109.547816 C 296.087132 109.935592 295.972982 110.382122 295.788327 110.76654 Q 295.340118 111.699889 294.948985 112.406614 Q 291.955892 117.801904 287.440232 122.39814 Q 284.160084 125.737042 280.665065 128.167776 Q 280.307505 128.414543 279.21636 129.181701 Q 278.449202 129.720559 277.735761 130.148623 Q 271.957732 133.606712 265.526694 135.846076 Q 265.509908 135.852791 264.514448 136.212029 Q 263.96384 136.410114 263.089246 136.693811 C 261.026143 137.365285 258.739776 138.332207 256.812647 139.451889 Q 252.251663 142.105888 248.70964 146.240486 Q 247.069566 148.157543 246.035497 149.777472 Q 245.607433 150.445589 245.244837 151.147278 Q 245.021572 151.582057 244.870491 151.117062 Q 244.79495 150.883725 244.657298 150.709142 C 244.321561 150.281078 243.967359 149.557565 243.55776 149.008635 Q 242.303783 147.324915 241.192494 146.042401 Q 240.07617 144.754851 238.365591 143.181924 C 235.580655 140.620252 232.240074 138.706553 228.671192 137.303173 C 228.38078 137.189023 227.962788 137.113482 227.648874 136.969115 C 226.829676 136.594769 226.087698 136.473904 225.228212 136.097878 C 224.729643 135.87965 224.121959 135.743676 223.532741 135.520411 Q 222.124326 134.984911 219.940358 134.064992 Q 213.915562 131.525144 208.65121 127.645706 Q 201.775321 122.579438 197.093472 115.790841 Q 196.433749 114.833991 195.332533 112.927006 Q 194.719813 111.867757 194.3035 110.915943 C 194.169205 110.608744 193.878793 110.126962 193.769678 109.672039 C 193.736104 109.536065 193.574951 109.47899 193.464158 109.564603 Q 192.45359 110.351905 191.464845 111.411155 Q 190.224298 112.738994 189.492392 114.508326 C 189.306058 114.959892 189.359776 115.379563 189.200301 115.810985 Q 189.170085 115.893241 189.082793 115.891562 Q 188.923318 115.886526 188.914925 115.752231 C 188.841063 114.684588 188.866243 113.27953 188.753771 112.134668 C 188.648014 111.056953 188.696696 109.96413 188.595975 108.919988 Q 188.528827 108.228371 188.503647 106.987823 C 188.478467 105.774135 188.330743 104.209602 188.329064 102.809579 C 188.327385 101.85273 188.177982 100.83209 188.184697 99.997784 Q 188.188055 99.551254 188.04033 97.041622 Q 187.988291 96.145205 188.003399 90.247989 C 188.005078 89.737669 188.16791 89.365001 188.169589 88.893291 Q 188.169589 88.821108 188.273667 88.463548 C 188.367674 88.132847 188.453287 87.642672 188.884708 87.855864 C 188.951856 87.889438 189.003895 87.948192 189.027396 88.018697 Q 189.158334 88.414866 189.312773 88.659954 C 190.863876 91.142727 193.029379 93.403914 195.307352 95.334401 Q 195.317425 95.344473 196.918889 96.679026 C 197.664224 97.298461 198.406203 97.734918 199.128037 98.295599 C 199.727327 98.760594 200.566669 99.252448 201.103847 99.630152 Q 201.808895 100.125364 202.119451 100.301626 C 202.866465 100.722975 203.428824 101.171184 204.271524 101.669753 Q 205.876345 102.621567 207.689324 103.927583 Q 207.8723 104.060199 209.037307 104.813928 C 209.398224 105.047265 209.792715 105.388038 210.093199 105.683486 Q 210.271139 105.859748 210.036124 105.945361 Q 209.921973 105.989006 209.72221 105.928574 Q 209.599666 105.891643 209.440191 105.881571 C 206.819766 105.715381 204.667693 105.569335 202.367896 105.777492 C 201.614167 105.846318 200.957802 106.076298 200.187286 106.23913 Q 199.911982 106.297884 199.55778 106.445608 C 199.374803 106.522828 199.321085 106.756165 199.452023 106.905568 C 199.594711 107.066721 199.638357 107.358812 199.717255 107.521645 Q 200.784898 109.742543 201.897865 111.280218 Q 207.140394 118.523738 214.840517 123.071292 Q 216.715606 124.177545 218.684703 125.214972 Z M 252.191566 17.492995 C 252.008254 13.592573 248.615634 10.582693 244.614642 10.771847 C 240.613349 10.960397 237.519534 14.275798 237.703854 18.176219 C 237.887166 22.076641 241.279786 25.086521 245.280778 24.897367 C 249.282072 24.708817 252.375886 21.393417 252.191566 17.492995 Z M 222.379485 125.87973 C 224.454339 128.832535 228.306918 128.970187 231.573636 128.985295 Q 233.925472 128.995367 238.236332 129.003761 Q 240.702319 129.008797 241.701136 126.970875 C 242.043587 126.272542 242.053659 125.513777 242.055338 124.699616 Q 242.067089 82.613335 242.053659 48.673707 Q 242.053659 46.42427 241.964689 46.038173 Q 241.623916 44.567646 240.108065 43.896173 C 239.384552 43.575544 238.645931 43.610796 237.742799 43.610796 Q 231.827118 43.612475 225.909757 43.620868 Q 224.763216 43.622547 224.335152 43.778665 C 223.220506 44.186585 222.310659 45.170294 221.884274 46.293333 Q 221.701297 46.776794 221.701297 48.180174 Q 221.708012 78.963876 221.701297 123.77634 Q 221.701297 124.912808 222.379485 125.87973 Z M 248.044882 52.937563 Q 248.068383 88.844609 248.051596 124.751655 C 248.049918 126.012346 248.024737 126.759361 248.699568 127.630597 Q 249.742031 128.980259 251.509685 128.990331 Q 254.291264 129.007118 258.345285 129.002082 C 261.788266 128.998725 265.577055 128.911433 267.757665 125.762222 Q 268.377099 124.869163 268.377099 123.986175 Q 268.383814 80.182601 268.380457 48.062666 C 268.380457 46.803653 268.244483 46.165753 267.564616 45.25087 Q 266.32239 43.58058 264.314685 43.597367 Q 264.094777 43.600724 251.385462 43.617511 Q 249.550661 43.61919 248.640814 44.816091 C 248.091885 45.536247 248.065026 46.023065 248.05999 47.016846 Q 248.041524 49.978044 248.044882 52.937563 Z" style="fill:#041a2c;"/>
		<path d="M 231.573636 128.985295 C 228.306918 128.970187 224.454339 128.832535 222.379485 125.87973 Q 221.701297 124.912808 221.701297 123.77634 Q 221.708012 78.963876 221.701297 48.180174 Q 221.701297 46.776794 221.884274 46.293333 C 222.310659 45.170294 223.220506 44.186585 224.335152 43.778665 Q 224.763216 43.622547 225.909757 43.620868 Q 231.827118 43.612475 237.742799 43.610796 C 238.645931 43.610796 239.384552 43.575544 240.108065 43.896173 Q 241.623916 44.567646 241.964689 46.038173 Q 242.053659 46.42427 242.053659 48.673707 Q 242.067089 82.613335 242.055338 124.699616 C 242.053659 125.513777 242.043587 126.272542 241.701136 126.970875 Q 240.702319 129.008797 238.236332 129.003761 Q 233.925472 128.995367 231.573636 128.985295 Z" style="fill:#5da8b4;"/>
		<path d="M 248.044882 52.937563 Q 248.041524 49.978044 248.05999 47.016846 C 248.065026 46.023065 248.091885 45.536247 248.640814 44.816091 Q 249.550661 43.61919 251.385462 43.617511 Q 264.094777 43.600724 264.314685 43.597367 Q 266.32239 43.58058 267.564616 45.25087 C 268.244483 46.165753 268.380457 46.803653 268.380457 48.062666 Q 268.383814 80.182601 268.377099 123.986175 Q 268.377099 124.869163 267.757665 125.762222 C 265.577055 128.911433 261.788266 128.998725 258.345285 129.002082 Q 254.291264 129.007118 251.509685 128.990331 Q 249.742031 128.980259 248.699568 127.630597 C 248.024737 126.759361 248.049918 126.012346 248.051596 124.751655 Q 248.068383 88.844609 248.044882 52.937563 Z" style="fill:#5da8b4;"/>
	</g>
	<g id="surface4">
	</g>
</svg>
