<?xml version="1.0" encoding="utf-8"?>
<svg xmlns="http://www.w3.org/2000/svg" width="490pt" height="280pt" viewBox="0 0 490 280" version="1.1" xmlns:xlink="http://www.w3.org/1999/xlink">
	<g id="surface2">
		<path vector-effect="non-scaling-stroke" d="M 249.405698 3.356593 Q 250.160848 3.863908 250.455257 4.449399 Q 250.822852 5.176272 250.990848 5.440741" style="fill:none;stroke-width:0.50;stroke:#a74b2a;"/>
		<path vector-effect="non-scaling-stroke" d="M 267.515998 9.660601 Q 267.354655 9.697194 267.354655 9.931723 C 267.367962 12.912404 267.306419 14.866813 267.352992 16.508517 Q 267.367962 17.047434 267.264836 17.579699 C 267.140086 18.221743 266.572892 18.128597 265.972431 18.133587 Q 263.326078 18.151883 261.534676 18.106973 C 261.150447 18.096993 260.837742 18.126933 260.520046 17.880761 C 259.982792 17.464929 259.57694 16.691482 259.337421 15.974589 C 259.089585 15.232745 258.898303 14.637274 258.211349 14.234749 C 257.14682 13.614328 256.210367 13.486252 254.879706 13.486252 Q 253.053373 13.487915 251.210407 13.446332 C 251.148864 13.444669 251.093974 13.482925 251.072351 13.539479 C 250.817862 14.226432 250.505157 14.903406 249.85147 15.261022 Q 249.520468 15.440661 248.771971 15.502204 Q 248.223073 15.548777 247.657542 15.587034" style="fill:none;stroke-width:0.50;stroke:#4a646d;"/>
		<path vector-effect="non-scaling-stroke" d="M 247.657542 15.587034 Q 247.504516 15.542124 247.208444 15.60533" style="fill:none;stroke-width:0.50;stroke:#3c4349;"/>
		<path vector-effect="non-scaling-stroke" d="M 247.208444 15.60533 Q 247.210107 15.527154 247.131931 15.527154 Q 244.507201 15.517174 241.892452 15.515511" style="fill:none;stroke-width:0.50;stroke:#a74b2a;"/>
		<path vector-effect="non-scaling-stroke" d="M 241.892452 15.515511 L 239.186219 15.399078" style="fill:none;stroke-width:0.50;stroke:#3c4349;"/>
		<path vector-effect="non-scaling-stroke" d="M 239.186219 15.399078 C 237.577782 14.612324 236.842592 12.687855 236.393494 11.109358 C 236.358564 10.987936 236.242131 10.906433 236.115718 10.916413 Q 235.392171 10.976292 233.99165 11.031182 Q 230.83632 11.154268 227.918845 12.468296 Q 226.025979 13.321583 224.088204 14.401082 C 222.463134 15.304268 220.95616 16.064408 219.530689 16.837855 Q 219.169747 17.034128 219.392633 16.688156 C 220.922893 14.312925 222.686019 12.130641 224.859987 10.029859 Q 225.676681 9.241443 226.979065 8.371523" style="fill:none;stroke-width:0.50;stroke:#4a646d;"/>
		<path vector-effect="non-scaling-stroke" d="M 226.979065 8.371523 Q 227.479727 8.231803 227.785779 7.879178" style="fill:none;stroke-width:0.50;stroke:#a74b2a;"/>
		<path vector-effect="non-scaling-stroke" d="M 237.201871 5.257775 Q 238.030207 4.288056 239.068123 3.534569" style="fill:none;stroke-width:0.50;stroke:#a74b2a;"/>
		<path vector-effect="non-scaling-stroke" d="M 248.422672 25.56034 L 244.888103 22.611262 C 244.844856 22.576332 244.783313 22.577995 244.74173 22.614589 L 241.074095 25.912965" style="fill:none;stroke-width:0.50;stroke:#f0b097;"/>
		<path vector-effect="non-scaling-stroke" d="M 226.979065 8.371523 Q 226.972412 8.348236 226.964095 8.326613" style="fill:none;stroke-width:0.50;stroke:#887c74;"/>
		<path vector-effect="non-scaling-stroke" d="M 241.892452 15.515511 L 241.890788 17.180501 Q 241.889125 17.27531 241.795979 17.276973 C 241.42173 17.281963 240.458664 17.2304 240.277362 17.632925 Q 239.93638 18.386412 240.267382 19.239699 C 240.285678 19.287935 240.323935 19.324529 240.372171 19.342825 Q 241.019205 19.572364 241.757722 19.512484 C 241.815939 19.507494 241.867502 19.554068 241.867502 19.613947 L 241.867502 21.280601 C 241.867502 21.36044 241.805959 21.4303 241.721129 21.446933 L 240.147622 21.747995 C 240.014556 21.774609 239.918083 21.891041 239.918083 22.025771 L 239.918083 23.278256 Q 239.918083 23.374729 240.014556 23.374729 L 240.819606 23.374729 C 240.902772 23.374729 240.972632 23.441262 240.975959 23.524428 L 241.074095 25.912965" style="fill:none;stroke-width:0.50;stroke:#7a5b50;"/>
		<path vector-effect="non-scaling-stroke" d="M 241.074095 25.912965 L 220.551971 44.227854" style="fill:none;stroke-width:0.50;stroke:#86a8b5;"/>
		<path vector-effect="non-scaling-stroke" d="M 220.551971 44.227854 L 220.527021 28.09026 C 220.527021 28.03537 220.483775 27.992123 220.428885 27.992123 L 213.672453 27.992123 Q 213.595939 27.992123 213.595939 28.0703 Q 213.594276 38.184989 213.612573 48.853566 Q 213.614236 49.801662 213.782232 50.249097" style="fill:none;stroke-width:0.50;stroke:#838340;"/>
		<path vector-effect="non-scaling-stroke" d="M 213.782232 50.249097 L 202.573074 60.332183 C 202.519848 60.380419 202.516521 60.463585 202.566421 60.515149 L 208.933635 67.111902 C 209.000168 67.181762 209.091651 67.220018 209.188124 67.220018 L 213.070328 67.220018 C 213.108585 67.220018 213.140188 67.188415 213.140188 67.150158 Q 213.163475 65.114247 213.146841 62.256652 Q 213.145178 61.787593 213.368064 61.579678 Q 216.077623 59.066391 225.75153 50.428736 Q 237.208524 40.197614 244.788303 33.411242 Q 244.853173 33.353025 244.926359 33.402925 L 245.132612 33.540981" style="fill:none;stroke-width:0.50;stroke:#86a8b5;"/>
		<path vector-effect="non-scaling-stroke" d="M 245.132612 33.540981 Q 244.928023 33.732264 244.929686 33.883626 Q 244.991229 40.47539 244.90141 47.05551" style="fill:none;stroke-width:0.50;stroke:#7a5b50;"/>
		<path vector-effect="non-scaling-stroke" d="M 244.90141 47.05551 Q 236.315318 54.776672 227.834015 62.554387 C 223.552613 66.481501 219.005078 70.541681 213.600929 75.450158 Q 213.442913 75.594868 213.319827 75.782823 Q 213.226681 75.927533 213.225018 76.198655 Q 213.208384 78.447473 213.256621 86.54122 Q 213.311511 95.267031 217.373354 102.944947 Q 218.41127 104.904346 219.232953 106.171801 Q 222.268524 110.855728 225.892913 114.842722 Q 228.948444 118.202642 232.639366 121.85198 Q 238.497602 127.64202 243.755378 132.66693 Q 243.777001 132.685227 244.808263 133.608373 Q 244.838203 133.636649 244.879786 133.63166 Q 245.021169 133.615026 245.054436 133.470317" style="fill:none;stroke-width:0.50;stroke:#838340;"/>
		<path vector-effect="non-scaling-stroke" d="M 245.054436 133.470317 Q 245.139265 133.45701 245.170868 133.428734 C 248.346159 130.423102 251.413333 127.306028 254.488824 124.198934 Q 254.907982 123.776449 255.094275 123.538594" style="fill:none;stroke-width:0.50;stroke:#3f8ba9;"/>
		<path vector-effect="non-scaling-stroke" d="M 255.094275 123.538594 C 259.227642 119.48673 263.515698 115.022361 267.198303 110.473163 C 269.769806 107.297873 271.938784 103.77162 273.54223 100.060739 Q 275.486659 95.554787 276.013934 91.50625 C 276.636018 86.724186 276.602751 82.502663 276.546198 77.3713" style="fill:none;stroke-width:0.50;stroke:#7a5b50;"/>
		<path vector-effect="non-scaling-stroke" d="M 276.546198 77.3713 L 276.552852 77.013685" style="fill:none;stroke-width:0.50;stroke:#838340;"/>
		<path vector-effect="non-scaling-stroke" d="M 276.552852 77.013685 L 276.559505 67.206712" style="fill:none;stroke-width:0.50;stroke:#7a5b50;"/>
		<path vector-effect="non-scaling-stroke" d="M 276.559505 67.206712 L 280.591409 67.200058 C 280.717821 67.198395 280.839244 67.148495 280.925737 67.058675 L 287.411048 60.433646 Q 287.464274 60.380419 287.407721 60.328856 Q 279.563473 53.128315 270.724555 45.348937 Q 270.569866 45.214207 270.569866 45.007955 Q 270.571529 32.117173 270.571529 28.728977 Q 270.571529 27.612885 269.804735 27.236973 Q 269.435477 27.055671 268.341008 27.057334 Q 264.270848 27.067314 262.434535 27.049017 Q 261.499746 27.039037 261.142131 27.25527 Q 260.453513 27.672765 260.46183 28.570961 Q 260.50175 33.126813 260.475137 36.027654 Q 260.473473 36.124127 260.40195 36.060921 L 248.422672 25.56034" style="fill:none;stroke-width:0.50;stroke:#86a8b5;"/>
		<path vector-effect="non-scaling-stroke" d="M 248.422672 25.56034 Q 248.715417 24.552364 248.584015 23.542725 C 248.570708 23.434609 248.660528 23.343126 248.768644 23.354769 Q 249.054736 23.386372 249.287602 23.329819 Q 249.367441 23.309859 249.367441 23.228356 L 249.367441 22.069017 C 249.367441 21.914328 249.257662 21.779599 249.104636 21.751322 L 247.368123 21.418657 C 247.318223 21.408677 247.28163 21.36543 247.28163 21.313867 L 247.28163 19.605631 Q 247.28163 19.514148 247.373113 19.522464 Q 248.070047 19.585671 248.535778 19.372765 C 248.585678 19.349478 248.620608 19.306232 248.632251 19.253005 Q 248.763654 18.654208 248.683814 17.988877 C 248.603975 17.31523 247.749025 17.35016 247.253353 17.308577 Q 247.168524 17.30026 247.17185 17.217094 L 247.208444 15.60533" style="fill:none;stroke-width:0.50;stroke:#7a5b50;"/>
		<path vector-effect="non-scaling-stroke" d="M 239.186219 15.399078 Q 238.97664 15.497214 238.743774 15.54046 Q 238.404456 15.603667 238.29135 15.638597 Q 221.852693 20.756653 207.072373 29.502424 Q 204.44099 31.060961 200.502232 33.412905 Q 200.20616 33.590881 199.873495 33.574248 C 199.825259 33.572584 199.777022 33.589217 199.743756 33.622484 L 198.973635 34.365991 Q 198.913756 34.422544 198.910429 34.50571 Q 198.900449 34.795129 198.818946 34.929859 C 194.758766 41.576512 191.460389 48.477654 189.070189 55.907734 C 186.518646 63.833485 184.713936 72.080258 184.020329 80.385248 C 183.923856 81.53627 184.013676 82.439457 184.168365 83.503986 C 185.166361 90.355228 186.3756 97.085047 188.411511 103.696771 Q 190.625399 110.877352 194.5259 117.993063 Q 195.267744 119.345347 196.418766 121.382922 Q 196.654958 121.798754 197.207182 122.903203 Q 197.308645 123.106129 197.350229 123.167672 C 197.544838 123.455427 198.196862 123.663343 198.492934 123.846309 Q 202.464958 126.288073 205.144577 127.810016 Q 223.289807 138.109335 243.993233 142.046429 C 244.365818 142.116289 244.653574 142.084685 245.097682 142.066389 Q 245.490227 142.049755 245.914375 141.956609 Q 255.761269 139.770998 265.318744 136.638954 C 273.118082 134.082421 280.626338 130.443062 287.893412 126.164986 Q 291.820526 123.852962 293.081328 123.096149 Q 293.415657 122.89655 293.606939 122.660357 Q 293.819845 122.395888 293.992831 122.084846 Q 295.019104 120.2319 295.82748 118.67669 Q 301.54267 107.677111 304.114173 95.569757 Q 304.827741 92.20651 305.040646 90.922422 Q 305.261869 89.585108 306.188342 83.14138 C 306.261528 82.627412 306.461127 81.797412 306.414554 81.142062 Q 306.358001 80.346992 306.036979 78.282803 Q 305.073913 72.060299 303.738262 64.721702 Q 303.097881 61.202102 302.38265 58.226411 C 300.701027 51.228796 298.151148 44.256131 294.584975 37.95046 Q 293.339144 35.751542 292.996498 35.129458 C 292.788583 34.753546 292.113272 34.57058 291.82219 34.400921 Q 285.253713 30.556973 282.67722 29.078276 C 275.320327 24.858416 267.540948 21.277274 259.423914 18.775631 Q 255.288884 17.499859 249.517141 15.944649 C 248.905037 15.77998 248.289606 15.711783 247.657542 15.587034" style="fill:none;stroke-width:0.50;stroke:#1e7493;"/>
		<path vector-effect="non-scaling-stroke" d="M 310.839003 59.530459 Q 310.566217 60.801241 310.331688 62.067032 C 309.197299 68.211361 307.921528 75.308775 307.143091 81.58617 Q 307.028322 82.509316 307.321067 83.445769 Q 308.433833 87.001961 309.727901 90.564807 C 311.45277 95.318594 312.633732 99.837853 313.714895 104.71639 Q 313.829664 105.237011 313.994333 106.532742 Q 314.193933 108.107913 314.789404 109.559997" style="fill:none;stroke-width:0.50;stroke:#4caccd;"/>
		<path vector-effect="non-scaling-stroke" d="M 274.458723 151.139835 Q 274.513613 151.018413 274.39219 150.955206 C 268.620447 147.941258 261.897281 145.719054 255.380367 144.380076 Q 250.084335 143.29226 245.588363 142.535447 C 244.966279 142.430657 244.252712 142.437311 243.592372 142.57703 Q 241.333574 143.052741 241.143955 143.084345 Q 236.460027 143.847812 234.302692 144.30689 Q 228.569206 145.527771 222.787482 148.099274 Q 219.517382 149.554685 217.215338 150.575968 C 216.82113 150.75228 216.530048 150.80218 216.075959 150.88701 Q 215.964517 150.90697 215.909627 150.971839 C 215.879687 151.006769 215.899647 151.061659 215.94622 151.068312 Q 216.06099 151.086609 216.064316 151.138172" style="fill:none;stroke-width:0.50;stroke:#4caccd;"/>
		<path vector-effect="non-scaling-stroke" d="M 175.435901 110.152141 Q 175.430911 109.558334 175.647143 108.989476 Q 175.733636 108.759937 175.770229 108.548694 Q 175.793516 108.413965 175.878345 108.104586 Q 175.978145 107.727011 176.008085 107.430939 Q 176.129508 106.208394 176.299167 105.636209 C 177.017724 103.194446 177.801151 100.335188 178.709327 97.772001 Q 179.905259 94.395448 180.968125 91.308314 Q 181.708305 89.155969 182.664718 85.453404 Q 183.268505 83.118094 183.306762 82.845308 Q 183.493055 81.54126 183.263516 80.130759 C 182.272173 74.034667 181.239247 68.094928 179.472794 62.230038 Q 179.416241 62.042082 179.391291 61.664507 Q 179.368005 61.330179 179.224959 61.098976" style="fill:none;stroke-width:0.50;stroke:#4caccd;"/>
		<path vector-effect="non-scaling-stroke" d="M 276.559505 67.206712 Q 276.622711 64.568676 276.602751 61.952263 C 276.599425 61.534768 276.627701 61.353465 276.356579 61.09066 C 274.50696 59.30092 271.853954 57.003866 268.317722 53.866832 Q 258.114876 44.811682 247.853814 35.824728 Q 246.273654 34.440841 245.132612 33.540981" style="fill:none;stroke-width:0.50;stroke:#f0b097;"/>
		<path vector-effect="non-scaling-stroke" d="M 213.782232 50.249097 L 220.551971 44.227854" style="fill:none;stroke-width:0.50;stroke:#f9d887;"/>
		<path vector-effect="non-scaling-stroke" d="M 276.552852 77.013685 L 276.336619 77.003705 Q 276.275076 77.002042 276.230166 76.960459 Q 272.233192 73.359357 268.271148 69.721661 Q 258.70203 60.934307 249.513814 51.83591 Q 246.717762 49.068135 244.90141 47.05551" style="fill:none;stroke-width:0.50;stroke:#ed8b22;"/>
		<path vector-effect="non-scaling-stroke" d="M 255.094275 123.538594 Q 255.854415 117.299456 256.538042 109.752943 Q 256.928924 105.444927 256.977161 101.680819 Q 256.978824 101.549416 256.902311 101.517813 Q 256.825798 101.487873 256.686079 101.489536" style="fill:none;stroke-width:0.50;stroke:#a9938a;"/>
		<path vector-effect="non-scaling-stroke" d="M 276.546198 77.3713 Q 276.537882 77.524326 276.413132 77.549276 Q 276.334956 77.564246 276.280066 77.624126 Q 276.068823 77.860318 276.015597 77.945148 C 273.487341 81.878916 271.313373 85.150679 268.685317 88.372543 Q 263.247902 95.035829 257.381349 100.810899 Q 257.043694 101.143564 256.686079 101.489536" style="fill:none;stroke-width:0.50;stroke:#ed8b22;"/>
		<path vector-effect="non-scaling-stroke" d="M 256.686079 101.489536 Q 255.661469 102.419336 254.60692 103.357452 Q 250.267301 107.21138 245.456961 110.438233 C 244.921369 110.797512 244.89642 111.038694 244.894756 111.650798 Q 244.873133 122.919836 244.954636 128.817992 Q 244.991229 131.432742 244.987903 133.207511 Q 244.987903 133.287351 245.024496 133.358874 Q 245.047782 133.405447 245.054436 133.470317" style="fill:none;stroke-width:0.50;stroke:#b2bb7b;"/>
		<path vector-effect="non-scaling-stroke" d="M 238.342913 4.366232 C 236.368544 6.417114 236.104075 9.502585 237.097081 12.120661 Q 237.665939 13.617655 238.507582 14.510861 C 239.166259 15.209458 239.838243 15.211122 240.852873 15.192825 Q 241.769366 15.177855 242.685859 15.202805 C 244.349185 15.247715 245.847842 15.227755 247.429666 15.201142 C 248.810227 15.177855 249.904696 15.295951 250.473554 14.083386 Q 250.739686 13.519519 250.743013 11.934368 Q 250.751329 8.30998 250.809546 6.907795 C 250.854455 5.863226 250.653193 4.421122 249.66185 3.825651 Q 249.305898 3.611082 248.522472 3.596112 Q 247.095337 3.567836 246.185498 3.611082 Q 245.019506 3.664309 244.602011 3.669298 Q 243.547462 3.682605 243.016861 3.685932 Q 242.635959 3.687595 241.474957 3.589459 Q 240.415418 3.501303 239.638644 3.700902 Q 238.767061 3.925451 238.342913 4.366232" style="fill:none;stroke-width:0.50;stroke:#a74b2a;"/>
		<path vector-effect="non-scaling-stroke" d="M 260.012732 4.652325 L 259.799826 4.97501" style="fill:none;stroke-width:0.50;stroke:#b39890;"/>
		<path vector-effect="non-scaling-stroke" d="M 259.799826 4.97501 C 259.618523 5.016593 259.465497 5.089779 259.345738 5.247795 C 258.637161 6.180922 257.338103 6.408797 256.240307 6.423767 Q 254.492151 6.448717 251.47654 6.405471 C 251.328504 6.403807 251.207081 6.523567 251.207081 6.671603 L 251.207081 13.078737 C 251.207081 13.107014 251.232031 13.1303 251.260307 13.128637 Q 253.590628 12.965631 255.852752 13.077074 Q 256.879024 13.128637 257.728984 13.474609 Q 259.041349 14.0102 259.673413 15.322565" style="fill:none;stroke-width:0.50;stroke:#a74b2a;"/>
		<path vector-effect="non-scaling-stroke" d="M 259.673413 15.322565 Q 259.791509 16.235731 260.204014 16.886092" style="fill:none;stroke-width:0.50;stroke:#b39890;"/>
		<path vector-effect="non-scaling-stroke" d="M 260.204014 16.886092 Q 260.50674 17.664529 261.438203 17.694468 Q 264.104515 17.777635 266.724255 17.681162 C 266.825718 17.677835 266.907221 17.599659 266.917201 17.498196 Q 266.958784 17.010841 266.963774 16.641583 Q 267.025317 11.842885 267.08686 9.670581 C 267.143413 7.679579 267.07189 6.022906 266.97209 3.925451 C 266.968764 3.830641 266.890587 3.755791 266.794114 3.755791 L 260.854375 3.755791 Q 260.772872 3.755791 260.703012 3.799038 Q 260.120848 4.158317 260.012732 4.652325" style="fill:none;stroke-width:0.50;stroke:#a74b2a;"/>
		<path vector-effect="non-scaling-stroke" d="M 260.204014 16.886092 Q 260.134155 16.358817 260.039345 15.851503 Q 259.932892 15.277655 259.912932 14.81525 Q 259.714996 10.259399 259.947862 5.703547 Q 259.951189 5.623707 260.024375 5.182926 Q 260.069285 4.90515 260.012732 4.652325" style="fill:none;stroke-width:0.50;stroke:#f0b097;"/>
		<path vector-effect="non-scaling-stroke" d="M 259.673413 15.322565 Q 259.385658 10.172906 259.799826 4.97501" style="fill:none;stroke-width:0.50;stroke:#f0b097;"/>
		<path vector-effect="non-scaling-stroke" d="M 236.240468 10.463988 C 236.100748 9.233126 236.195558 8.090421 236.458364 6.914449 C 236.47666 6.831282 236.411791 6.751443 236.326961 6.754769 Q 233.805358 6.811322 233.243153 6.857896 C 230.897863 7.047515 228.645719 7.681242 226.707943 9.091743 Q 224.562252 10.65527 222.804116 12.761042 C 221.839386 13.91539 221.355358 14.467615 220.700007 15.445651 Q 220.492092 15.75503 220.828084 15.59535 C 222.288484 14.90008 224.359326 13.689178 225.937823 12.948998 Q 227.705939 12.120661 228.407863 11.831242 Q 231.032592 10.75507 234.299366 10.60537 Q 235.808003 10.537174 236.155638 10.552144 C 236.205538 10.555471 236.245458 10.512224 236.240468 10.463988" style="fill:none;stroke-width:0.50;stroke:#a74b2a;"/>
		<path vector-effect="non-scaling-stroke" d="M 235.447061 77.053605 Q 233.529246 79.927833 232.614416 82.246511 Q 231.250488 85.702903 231.889206 89.706531 C 232.592793 94.132643 235.596761 97.97659 239.783354 99.538454 Q 241.443354 100.157212 243.441009 100.338514 Q 248.332852 100.785949 252.363093 98.252703 Q 252.790568 97.983244 254.059686 96.920378" style="fill:none;stroke-width:0.50;stroke:#91a465;"/>
		<path vector-effect="non-scaling-stroke" d="M 254.059686 96.920378 Q 257.08694 93.607031 257.680748 89.094426 Q 258.181409 85.285408 256.725998 81.722563 Q 255.866059 79.618455 255.307181 78.695308 Q 253.366079 75.491741 252.705738 74.355689 Q 250.175818 70.01108 248.149886 64.739998 Q 246.468263 60.362123 244.972933 55.456972 C 244.951309 55.387113 244.863153 55.363826 244.81159 55.415389 C 244.630287 55.596692 244.658564 55.869477 244.603674 56.044127 C 244.226099 57.240058 243.903414 58.364467 243.504215 59.475569 Q 241.56145 64.878054 241.272031 65.613245 C 239.703514 69.606892 237.677582 73.39595 235.447061 77.053605" style="fill:none;stroke-width:0.50;stroke:#b2bb7b;"/>
		<path vector-effect="non-scaling-stroke" d="M 254.059686 96.920378 Q 254.061349 96.665889 253.895017 96.522843 Q 245.269005 89.145989 237.644316 80.343665 Q 236.965678 79.558575 235.72151 77.855328 C 235.515258 77.572563 235.481991 77.372964 235.447061 77.053605" style="fill:none;stroke-width:0.50;stroke:#4caccd;"/>
		<path fill-opacity="0.996" d="M 249.405698 3.356593 Q 250.160848 3.863908 250.455257 4.449399 Q 250.822852 5.176272 250.990848 5.440741 Q 251.110608 5.6603 251.105618 5.976332 C 251.103954 6.077795 251.188784 6.159298 251.290247 6.154308 Q 252.551049 6.087775 252.704075 6.091102 Q 255.114235 6.145992 257.04203 5.992966 Q 258.563974 5.871543 259.455517 4.540882 C 259.828103 3.985331 260.287181 3.353266 260.980788 3.358256 Q 262.913573 3.373226 266.471429 3.326653 C 267.289786 3.31501 267.406219 3.790721 267.406219 4.519258 Q 267.406219 6.974328 267.419525 9.432725 Q 267.419525 9.537515 267.515998 9.660601 Q 267.354655 9.697194 267.354655 9.931723 C 267.367962 12.912404 267.306419 14.866813 267.352992 16.508517 Q 267.367962 17.047434 267.264836 17.579699 C 267.140086 18.221743 266.572892 18.128597 265.972431 18.133587 Q 263.326078 18.151883 261.534676 18.106973 C 261.150447 18.096993 260.837742 18.126933 260.520046 17.880761 C 259.982792 17.464929 259.57694 16.691482 259.337421 15.974589 C 259.089585 15.232745 258.898303 14.637274 258.211349 14.234749 C 257.14682 13.614328 256.210367 13.486252 254.879706 13.486252 Q 253.053373 13.487915 251.210407 13.446332 C 251.148864 13.444669 251.093974 13.482925 251.072351 13.539479 C 250.817862 14.226432 250.505157 14.903406 249.85147 15.261022 Q 249.520468 15.440661 248.771971 15.502204 Q 248.223073 15.548777 247.657542 15.587034 Q 247.504516 15.542124 247.208444 15.60533 Q 247.210107 15.527154 247.131931 15.527154 Q 244.507201 15.517174 241.892452 15.515511 L 239.186219 15.399078 C 237.577782 14.612324 236.842592 12.687855 236.393494 11.109358 C 236.358564 10.987936 236.242131 10.906433 236.115718 10.916413 Q 235.392171 10.976292 233.99165 11.031182 Q 230.83632 11.154268 227.918845 12.468296 Q 226.025979 13.321583 224.088204 14.401082 C 222.463134 15.304268 220.95616 16.064408 219.530689 16.837855 Q 219.169747 17.034128 219.392633 16.688156 C 220.922893 14.312925 222.686019 12.130641 224.859987 10.029859 Q 225.676681 9.241443 226.979065 8.371523 Q 227.479727 8.231803 227.785779 7.879178 Q 228.547582 7.44505 228.758825 7.358557 C 230.024616 6.837936 231.453414 6.54519 232.900508 6.447054 Q 234.688584 6.325631 236.388504 6.332284 C 236.514917 6.333948 236.63135 6.265751 236.694556 6.155972 L 237.201871 5.257775 Q 238.030207 4.288056 239.068123 3.534569 Q 239.387482 3.338296 239.89646 3.336633 Q 245.834536 3.32 249.405698 3.356593 Z M 238.342913 4.366232 C 236.368544 6.417114 236.104075 9.502585 237.097081 12.120661 Q 237.665939 13.617655 238.507582 14.510861 C 239.166259 15.209458 239.838243 15.211122 240.852873 15.192825 Q 241.769366 15.177855 242.685859 15.202805 C 244.349185 15.247715 245.847842 15.227755 247.429666 15.201142 C 248.810227 15.177855 249.904696 15.295951 250.473554 14.083386 Q 250.739686 13.519519 250.743013 11.934368 Q 250.751329 8.30998 250.809546 6.907795 C 250.854455 5.863226 250.653193 4.421122 249.66185 3.825651 Q 249.305898 3.611082 248.522472 3.596112 Q 247.095337 3.567836 246.185498 3.611082 Q 245.019506 3.664309 244.602011 3.669298 Q 243.547462 3.682605 243.016861 3.685932 Q 242.635959 3.687595 241.474957 3.589459 Q 240.415418 3.501303 239.638644 3.700902 Q 238.767061 3.925451 238.342913 4.366232 Z M 260.012732 4.652325 L 259.799826 4.97501 C 259.618523 5.016593 259.465497 5.089779 259.345738 5.247795 C 258.637161 6.180922 257.338103 6.408797 256.240307 6.423767 Q 254.492151 6.448717 251.47654 6.405471 C 251.328504 6.403807 251.207081 6.523567 251.207081 6.671603 L 251.207081 13.078737 C 251.207081 13.107014 251.232031 13.1303 251.260307 13.128637 Q 253.590628 12.965631 255.852752 13.077074 Q 256.879024 13.128637 257.728984 13.474609 Q 259.041349 14.0102 259.673413 15.322565 Q 259.791509 16.235731 260.204014 16.886092 Q 260.50674 17.664529 261.438203 17.694468 Q 264.104515 17.777635 266.724255 17.681162 C 266.825718 17.677835 266.907221 17.599659 266.917201 17.498196 Q 266.958784 17.010841 266.963774 16.641583 Q 267.025317 11.842885 267.08686 9.670581 C 267.143413 7.679579 267.07189 6.022906 266.97209 3.925451 C 266.968764 3.830641 266.890587 3.755791 266.794114 3.755791 L 260.854375 3.755791 Q 260.772872 3.755791 260.703012 3.799038 Q 260.120848 4.158317 260.012732 4.652325 Z M 236.240468 10.463988 C 236.100748 9.233126 236.195558 8.090421 236.458364 6.914449 C 236.47666 6.831282 236.411791 6.751443 236.326961 6.754769 Q 233.805358 6.811322 233.243153 6.857896 C 230.897863 7.047515 228.645719 7.681242 226.707943 9.091743 Q 224.562252 10.65527 222.804116 12.761042 C 221.839386 13.91539 221.355358 14.467615 220.700007 15.445651 Q 220.492092 15.75503 220.828084 15.59535 C 222.288484 14.90008 224.359326 13.689178 225.937823 12.948998 Q 227.705939 12.120661 228.407863 11.831242 Q 231.032592 10.75507 234.299366 10.60537 Q 235.808003 10.537174 236.155638 10.552144 C 236.205538 10.555471 236.245458 10.512224 236.240468 10.463988 Z" style="fill:#693323;"/>
		<path d="M 250.990848 5.440741 Q 250.822852 5.176272 250.455257 4.449399 Q 250.160848 3.863908 249.405698 3.356593 Q 250.772952 3.962044 250.990848 5.440741 Z" style="fill:#e46331;"/>
		<path d="M 239.068123 3.534569 Q 238.030207 4.288056 237.201871 5.257775 Q 237.863875 3.945411 239.068123 3.534569 Z" style="fill:#e46331;"/>
		<path d="M 227.785779 7.879178 Q 227.479727 8.231803 226.979065 8.371523 Q 226.972412 8.348236 226.964095 8.326613 Q 227.323374 8.033868 227.785779 7.879178 Z" style="fill:#e46331;"/>
		<path d="M 226.964095 8.326613 Q 226.972412 8.348236 226.979065 8.371523 Q 225.676681 9.241443 224.859987 10.029859 C 222.686019 12.130641 220.922893 14.312925 219.392633 16.688156 Q 219.169747 17.034128 219.530689 16.837855 C 220.95616 16.064408 222.463134 15.304268 224.088204 14.401082 Q 226.025979 13.321583 227.918845 12.468296 Q 230.83632 11.154268 233.99165 11.031182 Q 235.392171 10.976292 236.115718 10.916413 C 236.242131 10.906433 236.358564 10.987936 236.393494 11.109358 C 236.842592 12.687855 237.577782 14.612324 239.186219 15.399078 Q 238.97664 15.497214 238.743774 15.54046 Q 238.404456 15.603667 238.29135 15.638597 Q 221.852693 20.756653 207.072373 29.502424 Q 204.44099 31.060961 200.502232 33.412905 Q 200.20616 33.590881 199.873495 33.574248 C 199.825259 33.572584 199.777022 33.589217 199.743756 33.622484 L 198.973635 34.365991 Q 198.913756 34.422544 198.910429 34.50571 Q 198.900449 34.795129 198.818946 34.929859 C 194.758766 41.576512 191.460389 48.477654 189.070189 55.907734 C 186.518646 63.833485 184.713936 72.080258 184.020329 80.385248 C 183.923856 81.53627 184.013676 82.439457 184.168365 83.503986 C 185.166361 90.355228 186.3756 97.085047 188.411511 103.696771 Q 190.625399 110.877352 194.5259 117.993063 Q 195.267744 119.345347 196.418766 121.382922 Q 196.654958 121.798754 197.207182 122.903203 Q 197.308645 123.106129 197.350229 123.167672 C 197.544838 123.455427 198.196862 123.663343 198.492934 123.846309 Q 202.464958 126.288073 205.144577 127.810016 Q 223.289807 138.109335 243.993233 142.046429 C 244.365818 142.116289 244.653574 142.084685 245.097682 142.066389 Q 245.490227 142.049755 245.914375 141.956609 Q 255.761269 139.770998 265.318744 136.638954 C 273.118082 134.082421 280.626338 130.443062 287.893412 126.164986 Q 291.820526 123.852962 293.081328 123.096149 Q 293.415657 122.89655 293.606939 122.660357 Q 293.819845 122.395888 293.992831 122.084846 Q 295.019104 120.2319 295.82748 118.67669 Q 301.54267 107.677111 304.114173 95.569757 Q 304.827741 92.20651 305.040646 90.922422 Q 305.261869 89.585108 306.188342 83.14138 C 306.261528 82.627412 306.461127 81.797412 306.414554 81.142062 Q 306.358001 80.346992 306.036979 78.282803 Q 305.073913 72.060299 303.738262 64.721702 Q 303.097881 61.202102 302.38265 58.226411 C 300.701027 51.228796 298.151148 44.256131 294.584975 37.95046 Q 293.339144 35.751542 292.996498 35.129458 C 292.788583 34.753546 292.113272 34.57058 291.82219 34.400921 Q 285.253713 30.556973 282.67722 29.078276 C 275.320327 24.858416 267.540948 21.277274 259.423914 18.775631 Q 255.288884 17.499859 249.517141 15.944649 C 248.905037 15.77998 248.289606 15.711783 247.657542 15.587034 Q 248.223073 15.548777 248.771971 15.502204 Q 249.520468 15.440661 249.85147 15.261022 C 250.505157 14.903406 250.817862 14.226432 251.072351 13.539479 C 251.093974 13.482925 251.148864 13.444669 251.210407 13.446332 Q 253.053373 13.487915 254.879706 13.486252 C 256.210367 13.486252 257.14682 13.614328 258.211349 14.234749 C 258.898303 14.637274 259.089585 15.232745 259.337421 15.974589 C 259.57694 16.691482 259.982792 17.464929 260.520046 17.880761 C 260.837742 18.126933 261.150447 18.096993 261.534676 18.106973 Q 263.326078 18.151883 265.972431 18.133587 C 266.572892 18.128597 267.140086 18.221743 267.264836 17.579699 Q 267.367962 17.047434 267.352992 16.508517 C 267.306419 14.866813 267.367962 12.912404 267.354655 9.931723 Q 267.354655 9.697194 267.515998 9.660601 Q 272.050226 9.625671 276.592771 9.627334 C 277.273072 9.627334 277.317982 9.816954 277.640667 10.324268 C 282.555797 18.068717 287.843513 26.679759 292.630567 34.314428 C 292.948262 34.821742 293.606939 35.144428 294.20241 35.452143 Q 304.456819 40.756492 307.234574 42.14537 Q 311.243191 44.149678 314.398522 45.776412 Q 314.694594 45.929438 314.584814 46.243806 Q 313.285756 49.959678 312.177981 53.763706 Q 311.481047 56.152243 310.839003 59.530459 Q 310.566217 60.801241 310.331688 62.067032 C 309.197299 68.211361 307.921528 75.308775 307.143091 81.58617 Q 307.028322 82.509316 307.321067 83.445769 Q 308.433833 87.001961 309.727901 90.564807 C 311.45277 95.318594 312.633732 99.837853 313.714895 104.71639 Q 313.829664 105.237011 313.994333 106.532742 Q 314.193933 108.107913 314.789404 109.559997 Q 314.89253 109.664786 314.86758 109.866049 Q 314.855937 109.949215 314.789404 110.000778 Q 314.456738 110.255267 314.312029 110.338434 Q 306.186678 114.949175 299.415276 119.059255 Q 297.084955 120.474746 294.189104 122.357632 Q 293.957901 122.507331 293.764955 122.76182 Q 293.242671 123.452101 292.389384 124.799395 Q 289.225737 129.801018 285.506539 135.363183 Q 284.763032 136.474285 283.675216 138.137611 Q 279.049505 145.210076 275.22718 151.113222 Q 275.18227 151.184745 275.100767 151.211358 Q 274.827982 151.301178 274.458723 151.139835 Q 274.513613 151.018413 274.39219 150.955206 C 268.620447 147.941258 261.897281 145.719054 255.380367 144.380076 Q 250.084335 143.29226 245.588363 142.535447 C 244.966279 142.430657 244.252712 142.437311 243.592372 142.57703 Q 241.333574 143.052741 241.143955 143.084345 Q 236.460027 143.847812 234.302692 144.30689 Q 228.569206 145.527771 222.787482 148.099274 Q 219.517382 149.554685 217.215338 150.575968 C 216.82113 150.75228 216.530048 150.80218 216.075959 150.88701 Q 215.964517 150.90697 215.909627 150.971839 C 215.879687 151.006769 215.899647 151.061659 215.94622 151.068312 Q 216.06099 151.086609 216.064316 151.138172 Q 215.533715 151.109895 215.104577 151.309495 Q 215.003114 151.356068 214.924937 151.276228 Q 214.675438 151.013423 214.495799 150.728994 Q 206.079367 137.335888 197.892473 124.175648 Q 197.245439 123.136069 196.308986 122.508995 Q 195.103074 121.698954 193.893836 120.972081 C 187.934137 117.387612 184.481071 115.4515 175.851732 110.48647 Q 175.717003 110.408293 175.435901 110.152141 Q 175.430911 109.558334 175.647143 108.989476 Q 175.733636 108.759937 175.770229 108.548694 Q 175.793516 108.413965 175.878345 108.104586 Q 175.978145 107.727011 176.008085 107.430939 Q 176.129508 106.208394 176.299167 105.636209 C 177.017724 103.194446 177.801151 100.335188 178.709327 97.772001 Q 179.905259 94.395448 180.968125 91.308314 Q 181.708305 89.155969 182.664718 85.453404 Q 183.268505 83.118094 183.306762 82.845308 Q 183.493055 81.54126 183.263516 80.130759 C 182.272173 74.034667 181.239247 68.094928 179.472794 62.230038 Q 179.416241 62.042082 179.391291 61.664507 Q 179.368005 61.330179 179.224959 61.098976 Q 178.614518 57.466271 177.616522 53.881802 Q 177.318786 52.807293 175.697043 47.396492 Q 175.482474 46.682925 175.44089 46.514929 Q 175.420931 46.435089 175.47582 46.373546 Q 175.638826 46.18559 175.943215 46.027574 Q 192.809347 37.258516 198.270048 34.462464 Q 199.309627 33.928536 199.858525 33.06028 Q 201.232433 30.882985 203.095359 27.887334 Q 206.809567 21.919318 214.156481 9.841904 C 214.204717 9.763727 214.287883 9.717154 214.379366 9.717154 Q 216.155799 9.715491 224.823394 9.695531 C 224.97642 9.695531 225.197643 9.589078 225.330709 9.472645 Q 226.089186 8.812304 226.964095 8.326613 Z" style="fill:#2b94b7;"/>
		<path d="M 241.892452 15.515511 L 241.890788 17.180501 Q 241.889125 17.27531 241.795979 17.276973 C 241.42173 17.281963 240.458664 17.2304 240.277362 17.632925 Q 239.93638 18.386412 240.267382 19.239699 C 240.285678 19.287935 240.323935 19.324529 240.372171 19.342825 Q 241.019205 19.572364 241.757722 19.512484 C 241.815939 19.507494 241.867502 19.554068 241.867502 19.613947 L 241.867502 21.280601 C 241.867502 21.36044 241.805959 21.4303 241.721129 21.446933 L 240.147622 21.747995 C 240.014556 21.774609 239.918083 21.891041 239.918083 22.025771 L 239.918083 23.278256 Q 239.918083 23.374729 240.014556 23.374729 L 240.819606 23.374729 C 240.902772 23.374729 240.972632 23.441262 240.975959 23.524428 L 241.074095 25.912965 L 220.551971 44.227854 L 220.527021 28.09026 C 220.527021 28.03537 220.483775 27.992123 220.428885 27.992123 L 213.672453 27.992123 Q 213.595939 27.992123 213.595939 28.0703 Q 213.594276 38.184989 213.612573 48.853566 Q 213.614236 49.801662 213.782232 50.249097 L 202.573074 60.332183 C 202.519848 60.380419 202.516521 60.463585 202.566421 60.515149 L 208.933635 67.111902 C 209.000168 67.181762 209.091651 67.220018 209.188124 67.220018 L 213.070328 67.220018 C 213.108585 67.220018 213.140188 67.188415 213.140188 67.150158 Q 213.163475 65.114247 213.146841 62.256652 Q 213.145178 61.787593 213.368064 61.579678 Q 216.077623 59.066391 225.75153 50.428736 Q 237.208524 40.197614 244.788303 33.411242 Q 244.853173 33.353025 244.926359 33.402925 L 245.132612 33.540981 Q 244.928023 33.732264 244.929686 33.883626 Q 244.991229 40.47539 244.90141 47.05551 Q 236.315318 54.776672 227.834015 62.554387 C 223.552613 66.481501 219.005078 70.541681 213.600929 75.450158 Q 213.442913 75.594868 213.319827 75.782823 Q 213.226681 75.927533 213.225018 76.198655 Q 213.208384 78.447473 213.256621 86.54122 Q 213.311511 95.267031 217.373354 102.944947 Q 218.41127 104.904346 219.232953 106.171801 Q 222.268524 110.855728 225.892913 114.842722 Q 228.948444 118.202642 232.639366 121.85198 Q 238.497602 127.64202 243.755378 132.66693 Q 243.777001 132.685227 244.808263 133.608373 Q 244.838203 133.636649 244.879786 133.63166 Q 245.021169 133.615026 245.054436 133.470317 Q 245.139265 133.45701 245.170868 133.428734 C 248.346159 130.423102 251.413333 127.306028 254.488824 124.198934 Q 254.907982 123.776449 255.094275 123.538594 C 259.227642 119.48673 263.515698 115.022361 267.198303 110.473163 C 269.769806 107.297873 271.938784 103.77162 273.54223 100.060739 Q 275.486659 95.554787 276.013934 91.50625 C 276.636018 86.724186 276.602751 82.502663 276.546198 77.3713 L 276.552852 77.013685 L 276.559505 67.206712 L 280.591409 67.200058 C 280.717821 67.198395 280.839244 67.148495 280.925737 67.058675 L 287.411048 60.433646 Q 287.464274 60.380419 287.407721 60.328856 Q 279.563473 53.128315 270.724555 45.348937 Q 270.569866 45.214207 270.569866 45.007955 Q 270.571529 32.117173 270.571529 28.728977 Q 270.571529 27.612885 269.804735 27.236973 Q 269.435477 27.055671 268.341008 27.057334 Q 264.270848 27.067314 262.434535 27.049017 Q 261.499746 27.039037 261.142131 27.25527 Q 260.453513 27.672765 260.46183 28.570961 Q 260.50175 33.126813 260.475137 36.027654 Q 260.473473 36.124127 260.40195 36.060921 L 248.422672 25.56034 Q 248.715417 24.552364 248.584015 23.542725 C 248.570708 23.434609 248.660528 23.343126 248.768644 23.354769 Q 249.054736 23.386372 249.287602 23.329819 Q 249.367441 23.309859 249.367441 23.228356 L 249.367441 22.069017 C 249.367441 21.914328 249.257662 21.779599 249.104636 21.751322 L 247.368123 21.418657 C 247.318223 21.408677 247.28163 21.36543 247.28163 21.313867 L 247.28163 19.605631 Q 247.28163 19.514148 247.373113 19.522464 Q 248.070047 19.585671 248.535778 19.372765 C 248.585678 19.349478 248.620608 19.306232 248.632251 19.253005 Q 248.763654 18.654208 248.683814 17.988877 C 248.603975 17.31523 247.749025 17.35016 247.253353 17.308577 Q 247.168524 17.30026 247.17185 17.217094 L 247.208444 15.60533 Q 247.504516 15.542124 247.657542 15.587034 C 248.289606 15.711783 248.905037 15.77998 249.517141 15.944649 Q 255.288884 17.499859 259.423914 18.775631 C 267.540948 21.277274 275.320327 24.858416 282.67722 29.078276 Q 285.253713 30.556973 291.82219 34.400921 C 292.113272 34.57058 292.788583 34.753546 292.996498 35.129458 Q 293.339144 35.751542 294.584975 37.95046 C 298.151148 44.256131 300.701027 51.228796 302.38265 58.226411 Q 303.097881 61.202102 303.738262 64.721702 Q 305.073913 72.060299 306.036979 78.282803 Q 306.358001 80.346992 306.414554 81.142062 C 306.461127 81.797412 306.261528 82.627412 306.188342 83.14138 Q 305.261869 89.585108 305.040646 90.922422 Q 304.827741 92.20651 304.114173 95.569757 Q 301.54267 107.677111 295.82748 118.67669 Q 295.019104 120.2319 293.992831 122.084846 Q 293.819845 122.395888 293.606939 122.660357 Q 293.415657 122.89655 293.081328 123.096149 Q 291.820526 123.852962 287.893412 126.164986 C 280.626338 130.443062 273.118082 134.082421 265.318744 136.638954 Q 255.761269 139.770998 245.914375 141.956609 Q 245.490227 142.049755 245.097682 142.066389 C 244.653574 142.084685 244.365818 142.116289 243.993233 142.046429 Q 223.289807 138.109335 205.144577 127.810016 Q 202.464958 126.288073 198.492934 123.846309 C 198.196862 123.663343 197.544838 123.455427 197.350229 123.167672 Q 197.308645 123.106129 197.207182 122.903203 Q 196.654958 121.798754 196.418766 121.382922 Q 195.267744 119.345347 194.5259 117.993063 Q 190.625399 110.877352 188.411511 103.696771 C 186.3756 97.085047 185.166361 90.355228 184.168365 83.503986 C 184.013676 82.439457 183.923856 81.53627 184.020329 80.385248 C 184.713936 72.080258 186.518646 63.833485 189.070189 55.907734 C 191.460389 48.477654 194.758766 41.576512 198.818946 34.929859 Q 198.900449 34.795129 198.910429 34.50571 Q 198.913756 34.422544 198.973635 34.365991 L 199.743756 33.622484 C 199.777022 33.589217 199.825259 33.572584 199.873495 33.574248 Q 200.20616 33.590881 200.502232 33.412905 Q 204.44099 31.060961 207.072373 29.502424 Q 221.852693 20.756653 238.29135 15.638597 Q 238.404456 15.603667 238.743774 15.54046 Q 238.97664 15.497214 239.186219 15.399078 L 241.892452 15.515511 Z" style="fill:#10536e;"/>
		<path d="M 247.208444 15.60533 L 247.17185 17.217094 Q 247.168524 17.30026 247.253353 17.308577 C 247.749025 17.35016 248.603975 17.31523 248.683814 17.988877 Q 248.763654 18.654208 248.632251 19.253005 C 248.620608 19.306232 248.585678 19.349478 248.535778 19.372765 Q 248.070047 19.585671 247.373113 19.522464 Q 247.28163 19.514148 247.28163 19.605631 L 247.28163 21.313867 C 247.28163 21.36543 247.318223 21.408677 247.368123 21.418657 L 249.104636 21.751322 C 249.257662 21.779599 249.367441 21.914328 249.367441 22.069017 L 249.367441 23.228356 Q 249.367441 23.309859 249.287602 23.329819 Q 249.054736 23.386372 248.768644 23.354769 C 248.660528 23.343126 248.570708 23.434609 248.584015 23.542725 Q 248.715417 24.552364 248.422672 25.56034 L 244.888103 22.611262 C 244.844856 22.576332 244.783313 22.577995 244.74173 22.614589 L 241.074095 25.912965 L 240.975959 23.524428 C 240.972632 23.441262 240.902772 23.374729 240.819606 23.374729 L 240.014556 23.374729 Q 239.918083 23.374729 239.918083 23.278256 L 239.918083 22.025771 C 239.918083 21.891041 240.014556 21.774609 240.147622 21.747995 L 241.721129 21.446933 C 241.805959 21.4303 241.867502 21.36044 241.867502 21.280601 L 241.867502 19.613947 C 241.867502 19.554068 241.815939 19.507494 241.757722 19.512484 Q 241.019205 19.572364 240.372171 19.342825 C 240.323935 19.324529 240.285678 19.287935 240.267382 19.239699 Q 239.93638 18.386412 240.277362 17.632925 C 240.458664 17.2304 241.42173 17.281963 241.795979 17.276973 Q 241.889125 17.27531 241.890788 17.180501 L 241.892452 15.515511 Q 244.507201 15.517174 247.131931 15.527154 Q 247.210107 15.527154 247.208444 15.60533 Z" style="fill:#e46331;"/>
		<path d="M 248.422672 25.56034 L 260.40195 36.060921 Q 260.473473 36.124127 260.475137 36.027654 Q 260.50175 33.126813 260.46183 28.570961 Q 260.453513 27.672765 261.142131 27.25527 Q 261.499746 27.039037 262.434535 27.049017 Q 264.270848 27.067314 268.341008 27.057334 Q 269.435477 27.055671 269.804735 27.236973 Q 270.571529 27.612885 270.571529 28.728977 Q 270.571529 32.117173 270.569866 45.007955 Q 270.569866 45.214207 270.724555 45.348937 Q 279.563473 53.128315 287.407721 60.328856 Q 287.464274 60.380419 287.411048 60.433646 L 280.925737 67.058675 C 280.839244 67.148495 280.717821 67.198395 280.591409 67.200058 L 276.559505 67.206712 Q 276.622711 64.568676 276.602751 61.952263 C 276.599425 61.534768 276.627701 61.353465 276.356579 61.09066 C 274.50696 59.30092 271.853954 57.003866 268.317722 53.866832 Q 258.114876 44.811682 247.853814 35.824728 Q 246.273654 34.440841 245.132612 33.540981 L 244.926359 33.402925 Q 244.853173 33.353025 244.788303 33.411242 Q 237.208524 40.197614 225.75153 50.428736 Q 216.077623 59.066391 213.368064 61.579678 Q 213.145178 61.787593 213.146841 62.256652 Q 213.163475 65.114247 213.140188 67.150158 C 213.140188 67.188415 213.108585 67.220018 213.070328 67.220018 L 209.188124 67.220018 C 209.091651 67.220018 209.000168 67.181762 208.933635 67.111902 L 202.566421 60.515149 C 202.516521 60.463585 202.519848 60.380419 202.573074 60.332183 L 213.782232 50.249097 L 220.551971 44.227854 L 241.074095 25.912965 L 244.74173 22.614589 C 244.783313 22.577995 244.844856 22.576332 244.888103 22.611262 L 248.422672 25.56034 Z" style="fill:#fcfcfc;"/>
		<path d="M 220.551971 44.227854 L 213.782232 50.249097 Q 213.614236 49.801662 213.612573 48.853566 Q 213.594276 38.184989 213.595939 28.0703 Q 213.595939 27.992123 213.672453 27.992123 L 220.428885 27.992123 C 220.483775 27.992123 220.527021 28.03537 220.527021 28.09026 L 220.551971 44.227854 Z" style="fill:#f6b312;"/>
		<path d="M 276.559505 67.206712 L 276.552852 77.013685 L 276.336619 77.003705 Q 276.275076 77.002042 276.230166 76.960459 Q 272.233192 73.359357 268.271148 69.721661 Q 258.70203 60.934307 249.513814 51.83591 Q 246.717762 49.068135 244.90141 47.05551 Q 244.991229 40.47539 244.929686 33.883626 Q 244.928023 33.732264 245.132612 33.540981 Q 246.273654 34.440841 247.853814 35.824728 Q 258.114876 44.811682 268.317722 53.866832 C 271.853954 57.003866 274.50696 59.30092 276.356579 61.09066 C 276.627701 61.353465 276.599425 61.534768 276.602751 61.952263 Q 276.622711 64.568676 276.559505 67.206712 Z" style="fill:#e46331;"/>
		<path d="M 244.90141 47.05551 Q 246.717762 49.068135 249.513814 51.83591 Q 258.70203 60.934307 268.271148 69.721661 Q 272.233192 73.359357 276.230166 76.960459 Q 276.275076 77.002042 276.336619 77.003705 L 276.552852 77.013685 L 276.546198 77.3713 Q 276.537882 77.524326 276.413132 77.549276 Q 276.334956 77.564246 276.280066 77.624126 Q 276.068823 77.860318 276.015597 77.945148 C 273.487341 81.878916 271.313373 85.150679 268.685317 88.372543 Q 263.247902 95.035829 257.381349 100.810899 Q 257.043694 101.143564 256.686079 101.489536 Q 255.661469 102.419336 254.60692 103.357452 Q 250.267301 107.21138 245.456961 110.438233 C 244.921369 110.797512 244.89642 111.038694 244.894756 111.650798 Q 244.873133 122.919836 244.954636 128.817992 Q 244.991229 131.432742 244.987903 133.207511 Q 244.987903 133.287351 245.024496 133.358874 Q 245.047782 133.405447 245.054436 133.470317 Q 245.021169 133.615026 244.879786 133.63166 Q 244.838203 133.636649 244.808263 133.608373 Q 243.777001 132.685227 243.755378 132.66693 Q 238.497602 127.64202 232.639366 121.85198 Q 228.948444 118.202642 225.892913 114.842722 Q 222.268524 110.855728 219.232953 106.171801 Q 218.41127 104.904346 217.373354 102.944947 Q 213.311511 95.267031 213.256621 86.54122 Q 213.208384 78.447473 213.225018 76.198655 Q 213.226681 75.927533 213.319827 75.782823 Q 213.442913 75.594868 213.600929 75.450158 C 219.005078 70.541681 223.552613 66.481501 227.834015 62.554387 Q 236.315318 54.776672 244.90141 47.05551 Z M 235.447061 77.053605 Q 233.529246 79.927833 232.614416 82.246511 Q 231.250488 85.702903 231.889206 89.706531 C 232.592793 94.132643 235.596761 97.97659 239.783354 99.538454 Q 241.443354 100.157212 243.441009 100.338514 Q 248.332852 100.785949 252.363093 98.252703 Q 252.790568 97.983244 254.059686 96.920378 Q 257.08694 93.607031 257.680748 89.094426 Q 258.181409 85.285408 256.725998 81.722563 Q 255.866059 79.618455 255.307181 78.695308 Q 253.366079 75.491741 252.705738 74.355689 Q 250.175818 70.01108 248.149886 64.739998 Q 246.468263 60.362123 244.972933 55.456972 C 244.951309 55.387113 244.863153 55.363826 244.81159 55.415389 C 244.630287 55.596692 244.658564 55.869477 244.603674 56.044127 C 244.226099 57.240058 243.903414 58.364467 243.504215 59.475569 Q 241.56145 64.878054 241.272031 65.613245 C 239.703514 69.606892 237.677582 73.39595 235.447061 77.053605 Z" style="fill:#f6b312;"/>
		<path d="M 310.839003 59.530459 Q 310.834013 59.844828 310.820706 60.14589 C 310.79243 60.799577 310.972069 61.642884 311.120105 62.168495 C 312.896538 68.419277 315.359925 74.843044 317.906478 80.982382 C 318.141007 81.549577 318.463692 82.244847 318.25245 82.920158 Q 317.051528 86.762442 316.051868 90.494947 Q 314.89253 94.82625 314.524935 99.042783 Q 314.430125 100.128935 314.215556 103.909676 Q 314.04756 106.872061 314.789404 109.559997 Q 314.193933 108.107913 313.994333 106.532742 Q 313.829664 105.237011 313.714895 104.71639 C 312.633732 99.837853 311.45277 95.318594 309.727901 90.564807 Q 308.433833 87.001961 307.321067 83.445769 Q 307.028322 82.509316 307.143091 81.58617 C 307.921528 75.308775 309.197299 68.211361 310.331688 62.067032 Q 310.566217 60.801241 310.839003 59.530459 Z" style="fill:#6dc3e3;"/>
		<path d="M 175.435901 110.152141 Q 175.158125 110.083945 175.251271 109.839436 Q 175.891652 108.147833 175.941552 106.665809 Q 176.029708 104.039416 175.781872 101.220077 C 175.479147 97.788634 175.013416 94.418735 174.133516 91.002262 Q 173.365059 88.019917 172.032734 83.088154 C 171.916301 82.657352 172.134197 82.130078 172.312173 81.664346 Q 174.496121 75.979096 175.758586 72.665749 Q 177.27554 68.683746 179.158425 62.582664 Q 179.296482 62.135229 179.224959 61.098976 Q 179.368005 61.330179 179.391291 61.664507 Q 179.416241 62.042082 179.472794 62.230038 C 181.239247 68.094928 182.272173 74.034667 183.263516 80.130759 Q 183.493055 81.54126 183.306762 82.845308 Q 183.268505 83.118094 182.664718 85.453404 Q 181.708305 89.155969 180.968125 91.308314 Q 179.905259 94.395448 178.709327 97.772001 C 177.801151 100.335188 177.017724 103.194446 176.299167 105.636209 Q 176.129508 106.208394 176.008085 107.430939 Q 175.978145 107.727011 175.878345 108.104586 Q 175.793516 108.413965 175.770229 108.548694 Q 175.733636 108.759937 175.647143 108.989476 Q 175.430911 109.558334 175.435901 110.152141 Z" style="fill:#6dc3e3;"/>
		<path d="M 255.094275 123.538594 Q 255.854415 117.299456 256.538042 109.752943 Q 256.928924 105.444927 256.977161 101.680819 Q 256.978824 101.549416 256.902311 101.517813 Q 256.825798 101.487873 256.686079 101.489536 Q 257.043694 101.143564 257.381349 100.810899 Q 263.247902 95.035829 268.685317 88.372543 C 271.313373 85.150679 273.487341 81.878916 276.015597 77.945148 Q 276.068823 77.860318 276.280066 77.624126 Q 276.334956 77.564246 276.413132 77.549276 Q 276.537882 77.524326 276.546198 77.3713 C 276.602751 82.502663 276.636018 86.724186 276.013934 91.50625 Q 275.486659 95.554787 273.54223 100.060739 C 271.938784 103.77162 269.769806 107.297873 267.198303 110.473163 C 263.515698 115.022361 259.227642 119.48673 255.094275 123.538594 Z" style="fill:#e46331;"/>
		<path d="M 255.094275 123.538594 Q 254.907982 123.776449 254.488824 124.198934 C 251.413333 127.306028 248.346159 130.423102 245.170868 133.428734 Q 245.139265 133.45701 245.054436 133.470317 Q 245.047782 133.405447 245.024496 133.358874 Q 244.987903 133.287351 244.987903 133.207511 Q 244.991229 131.432742 244.954636 128.817992 Q 244.873133 122.919836 244.894756 111.650798 C 244.89642 111.038694 244.921369 110.797512 245.456961 110.438233 Q 250.267301 107.21138 254.60692 103.357452 Q 255.661469 102.419336 256.686079 101.489536 Q 256.825798 101.487873 256.902311 101.517813 Q 256.978824 101.549416 256.977161 101.680819 Q 256.928924 105.444927 256.538042 109.752943 Q 255.854415 117.299456 255.094275 123.538594 Z" style="fill:#6dc3e3;"/>
		<path d="M 274.458723 151.139835 L 216.064316 151.138172 Q 216.06099 151.086609 215.94622 151.068312 C 215.899647 151.061659 215.879687 151.006769 215.909627 150.971839 Q 215.964517 150.90697 216.075959 150.88701 C 216.530048 150.80218 216.82113 150.75228 217.215338 150.575968 Q 219.517382 149.554685 222.787482 148.099274 Q 228.569206 145.527771 234.302692 144.30689 Q 236.460027 143.847812 241.143955 143.084345 Q 241.333574 143.052741 243.592372 142.57703 C 244.252712 142.437311 244.966279 142.430657 245.588363 142.535447 Q 250.084335 143.29226 255.380367 144.380076 C 261.897281 145.719054 268.620447 147.941258 274.39219 150.955206 Q 274.513613 151.018413 274.458723 151.139835 Z" style="fill:#6dc3e3;"/>
		<path d="M 238.342913 4.366232 Q 238.767061 3.925451 239.638644 3.700902 Q 240.415418 3.501303 241.474957 3.589459 Q 242.635959 3.687595 243.016861 3.685932 Q 243.547462 3.682605 244.602011 3.669298 Q 245.019506 3.664309 246.185498 3.611082 Q 247.095337 3.567836 248.522472 3.596112 Q 249.305898 3.611082 249.66185 3.825651 C 250.653193 4.421122 250.854455 5.863226 250.809546 6.907795 Q 250.751329 8.30998 250.743013 11.934368 Q 250.739686 13.519519 250.473554 14.083386 C 249.904696 15.295951 248.810227 15.177855 247.429666 15.201142 C 245.847842 15.227755 244.349185 15.247715 242.685859 15.202805 Q 241.769366 15.177855 240.852873 15.192825 C 239.838243 15.211122 239.166259 15.209458 238.507582 14.510861 Q 237.665939 13.617655 237.097081 12.120661 C 236.104075 9.502585 236.368544 6.417114 238.342913 4.366232 Z" style="fill:#e46331;"/>
		<path d="M 260.204014 16.886092 Q 260.134155 16.358817 260.039345 15.851503 Q 259.932892 15.277655 259.912932 14.81525 Q 259.714996 10.259399 259.947862 5.703547 Q 259.951189 5.623707 260.024375 5.182926 Q 260.069285 4.90515 260.012732 4.652325 Q 260.120848 4.158317 260.703012 3.799038 Q 260.772872 3.755791 260.854375 3.755791 L 266.794114 3.755791 C 266.890587 3.755791 266.968764 3.830641 266.97209 3.925451 C 267.07189 6.022906 267.143413 7.679579 267.08686 9.670581 Q 267.025317 11.842885 266.963774 16.641583 Q 266.958784 17.010841 266.917201 17.498196 C 266.907221 17.599659 266.825718 17.677835 266.724255 17.681162 Q 264.104515 17.777635 261.438203 17.694468 Q 260.50674 17.664529 260.204014 16.886092 Z" style="fill:#e46331;"/>
		<path d="M 260.204014 16.886092 Q 259.791509 16.235731 259.673413 15.322565 Q 259.385658 10.172906 259.799826 4.97501 L 260.012732 4.652325 Q 260.069285 4.90515 260.024375 5.182926 Q 259.951189 5.623707 259.947862 5.703547 Q 259.714996 10.259399 259.912932 14.81525 Q 259.932892 15.277655 260.039345 15.851503 Q 260.134155 16.358817 260.204014 16.886092 Z" style="fill:#fcfcfc;"/>
		<path d="M 259.799826 4.97501 Q 259.385658 10.172906 259.673413 15.322565 Q 259.041349 14.0102 257.728984 13.474609 Q 256.879024 13.128637 255.852752 13.077074 Q 253.590628 12.965631 251.260307 13.128637 C 251.232031 13.1303 251.207081 13.107014 251.207081 13.078737 L 251.207081 6.671603 C 251.207081 6.523567 251.328504 6.403807 251.47654 6.405471 Q 254.492151 6.448717 256.240307 6.423767 C 257.338103 6.408797 258.637161 6.180922 259.345738 5.247795 C 259.465497 5.089779 259.618523 5.016593 259.799826 4.97501 Z" style="fill:#e46331;"/>
		<path d="M 236.458364 6.914449 C 236.195558 8.090421 236.100748 9.233126 236.240468 10.463988 C 236.245458 10.512224 236.205538 10.555471 236.155638 10.552144 Q 235.808003 10.537174 234.299366 10.60537 Q 231.032592 10.75507 228.407863 11.831242 Q 227.705939 12.120661 225.937823 12.948998 C 224.359326 13.689178 222.288484 14.90008 220.828084 15.59535 Q 220.492092 15.75503 220.700007 15.445651 C 221.355358 14.467615 221.839386 13.91539 222.804116 12.761042 Q 224.562252 10.65527 226.707943 9.091743 C 228.645719 7.681242 230.897863 7.047515 233.243153 6.857896 Q 233.805358 6.811322 236.326961 6.754769 C 236.411791 6.751443 236.47666 6.831282 236.458364 6.914449 Z" style="fill:#e46331;"/>
		<path d="M 254.059686 96.920378 Q 254.061349 96.665889 253.895017 96.522843 Q 245.269005 89.145989 237.644316 80.343665 Q 236.965678 79.558575 235.72151 77.855328 C 235.515258 77.572563 235.481991 77.372964 235.447061 77.053605 C 237.677582 73.39595 239.703514 69.606892 241.272031 65.613245 Q 241.56145 64.878054 243.504215 59.475569 C 243.903414 58.364467 244.226099 57.240058 244.603674 56.044127 C 244.658564 55.869477 244.630287 55.596692 244.81159 55.415389 C 244.863153 55.363826 244.951309 55.387113 244.972933 55.456972 Q 246.468263 60.362123 248.149886 64.739998 Q 250.175818 70.01108 252.705738 74.355689 Q 253.366079 75.491741 255.307181 78.695308 Q 255.866059 79.618455 256.725998 81.722563 Q 258.181409 85.285408 257.680748 89.094426 Q 257.08694 93.607031 254.059686 96.920378 Z" style="fill:#6dc3e3;"/>
		<path d="M 235.447061 77.053605 C 235.481991 77.372964 235.515258 77.572563 235.72151 77.855328 Q 236.965678 79.558575 237.644316 80.343665 Q 245.269005 89.145989 253.895017 96.522843 Q 254.061349 96.665889 254.059686 96.920378 Q 252.790568 97.983244 252.363093 98.252703 Q 248.332852 100.785949 243.441009 100.338514 Q 241.443354 100.157212 239.783354 99.538454 C 235.596761 97.97659 232.592793 94.132643 231.889206 89.706531 Q 231.250488 85.702903 232.614416 82.246511 Q 233.529246 79.927833 235.447061 77.053605 Z" style="fill:#2b94b7;"/>
	</g>
	<g id="surface4">
	</g>
</svg>
