<?xml version="1.0" encoding="utf-8"?>
<svg xmlns="http://www.w3.org/2000/svg" width="490pt" height="280pt" viewBox="0 0 490 280" version="1.1" xmlns:xlink="http://www.w3.org/1999/xlink">
	<g id="surface2">
		<path vector-effect="non-scaling-stroke" d="M 253.124617 92.167837 Q 252.909227 92.293683 252.76886 92.296103 Q 244.666314 92.354186 236.699294 92.250121" style="fill:none;stroke-width:0.50;stroke:#91843a;"/>
		<path vector-effect="non-scaling-stroke" d="M 255.024408 117.550007 Q 255.176875 117.595989 255.135733 117.368498 C 255.126053 117.315256 255.089751 117.269274 255.041349 117.247493 Q 254.061202 116.787671 252.998771 116.531138 Q 244.833302 114.544224 236.662992 116.458535" style="fill:none;stroke-width:0.50;stroke:#91843a;"/>
		<path vector-effect="non-scaling-stroke" d="M 255.203497 118.113894 Q 255.06797 118.292982 254.816278 118.167136" style="fill:none;stroke-width:0.50;stroke:#91843a;"/>
		<path vector-effect="non-scaling-stroke" d="M 254.695272 118.077592 Q 254.622669 118.02919 254.523444 118.019509" style="fill:none;stroke-width:0.50;stroke:#91843a;"/>
		<path vector-effect="non-scaling-stroke" d="M 254.351616 117.944486 L 253.303706 117.641971" style="fill:none;stroke-width:0.50;stroke:#91843a;"/>
		<path vector-effect="non-scaling-stroke" d="M 253.018132 117.566948 C 249.731616 116.848174 245.917514 116.799771 242.725382 116.855434 Q 239.535669 116.913517 236.360478 117.547587" style="fill:none;stroke-width:0.50;stroke:#91843a;"/>
		<path vector-effect="non-scaling-stroke" d="M 250.581076 83.445741 Q 251.166744 83.089984 251.604785 82.59386 Q 254.141066 79.728443 254.368557 76.078909 Q 254.63719 71.790465 253.494895 67.632707 Q 252.214654 62.978825 250.198698 59.292989 Q 249.748556 58.46773 248.899096 57.586808" style="fill:none;stroke-width:0.50;stroke:#f59a22;"/>
		<path vector-effect="non-scaling-stroke" d="M 248.899096 57.586808 Q 247.756801 55.585372 246.324093 53.772706 C 246.234549 53.66138 246.05546 53.709783 246.036099 53.850149 C 245.924774 54.624586 245.869111 55.447426 245.62226 56.17346 C 244.518687 59.426095 242.526932 61.572738 240.068095 64.416373 C 236.479064 68.566871 233.531363 73.840303 235.160101 79.546935 C 236.324176 83.622409 240.048734 85.919099 244.237954 85.798093 Q 247.902008 85.691608 250.581076 83.445741" style="fill:none;stroke-width:0.50;stroke:#ef882b;"/>
		<path vector-effect="non-scaling-stroke" d="M 248.899096 57.586808 Q 249.475083 59.52048 249.315356 60.689395 Q 249.090285 62.322973 248.039955 64.595462 Q 246.999305 66.846169 245.397189 69.936656 C 245.327006 70.069763 245.42139 70.231911 245.573857 70.234331 Q 245.738425 70.236751 245.910253 70.123005 Q 247.08885 69.324367 247.657577 68.992811 C 247.776162 68.922628 247.92621 69.012172 247.923789 69.150119 Q 247.902008 69.837432 247.839085 70.149627 Q 247.113051 73.738658 247.669677 77.192162 Q 248.274706 80.960282 250.581076 83.445741" style="fill:none;stroke-width:0.50;stroke:#ea6728;"/>
		<path d="M 253.124617 92.167837 Q 252.909227 92.293683 252.76886 92.296103 Q 244.666314 92.354186 236.699294 92.250121 Q 235.740928 91.565228 233.971824 91.132027 Q 232.616559 90.800471 230.423935 89.51781 Q 226.813123 87.40989 224.213919 84.462189 C 220.334474 80.064839 217.258507 74.602639 217.028596 68.770161 C 216.936632 66.475891 217.052797 63.837966 217.577962 61.446892 C 217.873216 60.096467 218.124908 58.576635 218.562949 57.335116 C 218.925967 56.304146 219.100215 55.386923 219.429351 54.430977 C 220.160225 52.313376 221.225076 48.927635 222.212483 46.338111 Q 223.696014 42.448986 225.615166 37.328021 Q 226.452525 35.094255 227.207602 32.761264 Q 229.213877 26.575449 229.284061 26.343118 Q 230.060918 23.780215 230.757911 21.074526 Q 230.847455 20.721189 231.130609 20.5179 C 231.210472 20.459817 231.324218 20.496119 231.358099 20.588083 C 231.539608 21.091467 231.631572 21.665034 231.614632 22.228921 Q 231.491206 26.125307 231.275816 32.640258 C 231.191111 35.253983 230.779692 38.588902 230.815994 41.362354 Q 230.825674 42.12953 231.16207 41.439798 C 232.454412 38.780091 233.301452 36.66975 234.739001 33.499399 Q 238.70799 24.757942 241.590347 15.597805 C 242.120353 13.915825 242.386565 12.594442 242.822186 11.306941 C 243.369132 9.687883 243.659546 7.858276 244.102427 5.820539 Q 244.254894 5.118705 244.598551 4.881534 Q 244.709876 4.80409 244.823622 4.871854 Q 245.097095 5.031581 245.227781 5.532545 Q 247.062228 12.529099 249.516225 19.808806 Q 250.222899 21.902206 251.178845 24.348942 Q 253.974078 31.500384 256.941139 38.325109 C 257.292056 39.131007 257.986629 40.249101 258.313345 41.340573 Q 258.344806 41.442218 258.431931 41.381715 Q 258.490013 41.340573 258.490013 41.297011 C 258.444031 40.263621 258.485173 39.38996 258.436771 38.308168 Q 258.059233 30.200782 258.318185 21.517407 Q 258.332706 21.004343 258.504534 20.752651 C 258.62312 20.580823 258.886912 20.612284 258.961936 20.805894 Q 259.407237 21.948188 259.658929 22.957376 C 260.675378 27.01591 261.76685 30.273385 263.170517 34.559409 Q 263.727143 36.25833 264.796834 39.150368 C 266.728086 44.363297 269.595923 51.901956 271.294844 57.681192 Q 272.231429 60.866064 272.555724 64.530119 Q 273.51409 75.413378 266.1763 83.680492 Q 262.684073 87.613179 258.509374 89.905029 Q 257.778499 90.304348 255.823046 91.059424 Q 254.494403 91.572488 253.124617 92.167837 Z M 250.581076 83.445741 Q 251.166744 83.089984 251.604785 82.59386 Q 254.141066 79.728443 254.368557 76.078909 Q 254.63719 71.790465 253.494895 67.632707 Q 252.214654 62.978825 250.198698 59.292989 Q 249.748556 58.46773 248.899096 57.586808 Q 247.756801 55.585372 246.324093 53.772706 C 246.234549 53.66138 246.05546 53.709783 246.036099 53.850149 C 245.924774 54.624586 245.869111 55.447426 245.62226 56.17346 C 244.518687 59.426095 242.526932 61.572738 240.068095 64.416373 C 236.479064 68.566871 233.531363 73.840303 235.160101 79.546935 C 236.324176 83.622409 240.048734 85.919099 244.237954 85.798093 Q 247.902008 85.691608 250.581076 83.445741 Z" style="fill:#f9bb24;"/>
		<path d="M 253.124617 92.167837 Q 257.098447 92.368706 260.93675 92.550215 Q 262.526766 92.625238 264.477379 92.847889 C 264.598385 92.85999 264.697609 92.947114 264.724231 93.065699 Q 264.845236 93.561823 264.678248 93.987763 Q 262.444482 99.670194 262.270234 100.132436 Q 257.258175 113.484213 256.019075 116.966759 Q 255.757703 117.700054 255.024408 117.550007 Q 255.176875 117.595989 255.135733 117.368498 C 255.126053 117.315256 255.089751 117.269274 255.041349 117.247493 Q 254.061202 116.787671 252.998771 116.531138 Q 244.833302 114.544224 236.662992 116.458535 Q 236.331437 116.715067 235.888555 116.78041 Q 235.832893 116.790091 235.796591 116.855434 C 235.76997 116.903836 235.721568 116.935298 235.665905 116.940138 Q 234.92777 117.017582 234.221096 117.383019 Q 233.68383 117.661332 233.429718 117.114386 Q 233.26031 116.751369 232.771447 115.570353 C 230.373112 109.769336 227.490755 101.928162 224.337345 94.162012 Q 224.196978 93.818355 224.272002 93.409356 Q 224.296203 93.28835 224.390587 93.210906 Q 224.65196 92.997936 225.005296 92.956794 Q 226.878466 92.748664 228.756475 92.644599 Q 232.63108 92.429209 236.699294 92.250121 Q 244.666314 92.354186 252.76886 92.296103 Q 252.909227 92.293683 253.124617 92.167837 Z" style="fill:#294c50;"/>
		<path d="M 255.024408 117.550007 Q 254.944544 117.625031 254.835639 117.61777 Q 254.714633 117.60809 254.661391 117.499185 Q 254.586367 117.341877 254.373397 117.366078 Q 254.182208 117.387859 254.354036 117.474983 Q 254.840479 117.724255 255.203497 118.113894 Q 255.06797 118.292982 254.816278 118.167136 L 254.695272 118.077592 Q 254.622669 118.02919 254.523444 118.019509 L 254.351616 117.944486 L 253.303706 117.641971 L 253.018132 117.566948 C 249.731616 116.848174 245.917514 116.799771 242.725382 116.855434 Q 239.535669 116.913517 236.360478 117.547587 Q 236.442762 117.298315 236.977607 117.317676 Q 237.280122 117.327356 237.430169 116.993381 C 237.45679 116.932878 237.408388 116.867535 237.343045 116.874795 Q 237.122814 116.903836 237.052631 116.724748 Q 237.009069 116.615843 236.892903 116.603742 Q 236.675093 116.581961 236.662992 116.458535 Q 244.833302 114.544224 252.998771 116.531138 Q 254.061202 116.787671 255.041349 117.247493 C 255.089751 117.269274 255.126053 117.315256 255.135733 117.368498 Q 255.176875 117.595989 255.024408 117.550007 Z" style="fill:#f9bb24;"/>
		<path d="M 253.018132 117.566948 Q 253.093156 117.656492 253.303706 117.641971 L 254.351616 117.944486 Q 254.419379 118.055811 254.523444 118.019509 Q 254.622669 118.02919 254.695272 118.077592 Q 254.542805 118.089693 254.816278 118.167136 Q 255.06797 118.292982 255.203497 118.113894 C 256.154602 118.767325 257.187991 119.442537 256.967761 120.606613 C 256.800773 121.492375 255.927111 121.857812 255.133313 121.874753 C 254.983266 121.877173 254.855 121.978818 254.816278 122.121605 C 254.322575 123.987514 253.700605 125.567849 252.442145 129.260946 Q 251.643507 131.603617 250.847289 133.832544 Q 247.575293 142.999941 247.221956 144.159176 Q 245.866691 148.604928 245.181799 152.184279 Q 245.089834 152.663462 245.080154 152.682822 Q 245.022071 152.813509 244.908326 152.828029 Q 244.675995 152.854651 244.57677 152.823189 Q 244.453344 152.782047 244.424303 152.658621 Q 243.219085 147.690124 242.732642 146.313079 C 241.675051 143.316976 240.692485 140.354755 239.630054 137.469977 Q 236.653312 129.394052 234.458267 122.985586 C 234.349362 122.666131 234.385664 122.307954 234.274338 122.061102 C 234.240457 121.986079 234.172694 121.932836 234.09283 121.915895 Q 233.015878 121.695665 232.430211 120.611453 C 232.00669 119.827336 232.974737 118.893171 233.633008 118.534994 Q 234.51877 118.055811 236.360478 117.547587 Q 239.535669 116.913517 242.725382 116.855434 C 245.917514 116.799771 249.731616 116.848174 253.018132 117.566948 Z" style="fill:#294c50;"/>
		<path d="M 248.899096 57.586808 Q 249.475083 59.52048 249.315356 60.689395 Q 249.090285 62.322973 248.039955 64.595462 Q 246.999305 66.846169 245.397189 69.936656 C 245.327006 70.069763 245.42139 70.231911 245.573857 70.234331 Q 245.738425 70.236751 245.910253 70.123005 Q 247.08885 69.324367 247.657577 68.992811 C 247.776162 68.922628 247.92621 69.012172 247.923789 69.150119 Q 247.902008 69.837432 247.839085 70.149627 Q 247.113051 73.738658 247.669677 77.192162 Q 248.274706 80.960282 250.581076 83.445741 Q 247.902008 85.691608 244.237954 85.798093 C 240.048734 85.919099 236.324176 83.622409 235.160101 79.546935 C 233.531363 73.840303 236.479064 68.566871 240.068095 64.416373 C 242.526932 61.572738 244.518687 59.426095 245.62226 56.17346 C 245.869111 55.447426 245.924774 54.624586 246.036099 53.850149 C 246.05546 53.709783 246.234549 53.66138 246.324093 53.772706 Q 247.756801 55.585372 248.899096 57.586808 Z" style="fill:#e45431;"/>
		<path d="M 250.581076 83.445741 Q 248.274706 80.960282 247.669677 77.192162 Q 247.113051 73.738658 247.839085 70.149627 Q 247.902008 69.837432 247.923789 69.150119 C 247.92621 69.012172 247.776162 68.922628 247.657577 68.992811 Q 247.08885 69.324367 245.910253 70.123005 Q 245.738425 70.236751 245.573857 70.234331 C 245.42139 70.231911 245.327006 70.069763 245.397189 69.936656 Q 246.999305 66.846169 248.039955 64.595462 Q 249.090285 62.322973 249.315356 60.689395 Q 249.475083 59.52048 248.899096 57.586808 Q 249.748556 58.46773 250.198698 59.292989 Q 252.214654 62.978825 253.494895 67.632707 Q 254.63719 71.790465 254.368557 76.078909 Q 254.141066 79.728443 251.604785 82.59386 Q 251.166744 83.089984 250.581076 83.445741 Z" style="fill:#f0791f;"/>
	</g>
	<g id="surface4">
	</g>
</svg>
