<?xml version="1.0" encoding="utf-8"?>
<svg xmlns="http://www.w3.org/2000/svg" width="490pt" height="280pt" viewBox="0 0 490 280" version="1.1" xmlns:xlink="http://www.w3.org/1999/xlink">
	<g id="surface2">
		<path d="M 260.844431 81.925146 Q 263.262875 80.791731 264.028346 80.268475 C 267.585753 77.83154 269.967218 74.324056 271.618343 70.383914 C 273.72986 65.349185 274.759733 59.672866 274.020147 54.29423 Q 273.422932 49.947316 272.117563 46.484207 Q 270.721596 42.775185 268.587891 39.347206 Q 265.409522 34.242217 261.537792 30.211476 Q 257.529238 26.042062 252.418702 22.292364 Q 251.218725 21.412257 249.351271 20.123529 Q 242.883596 15.658281 235.55985 12.777595 Q 235.284354 12.668507 235.406386 12.938455 Q 235.474797 13.093768 235.61347 13.286061 C 237.93207 16.514351 239.287361 18.167325 240.601974 20.877906 Q 242.031223 23.825155 242.349245 27.088576 Q 242.360339 27.190269 242.260495 27.208758 Q 242.182838 27.22355 242.099635 27.206909 Q 242.016432 27.192118 241.925832 27.04605 Q 241.642941 26.591205 241.565284 26.511699 Q 241.114137 26.042062 239.707076 24.764428 Q 239.697831 24.755183 239.690435 24.768126 L 239.662701 24.812501 Q 239.644211 24.842085 239.666399 24.869819 Q 240.71661 26.173339 241.09195 27.025711 Q 241.589321 28.149881 242.14401 29.266655 Q 242.240156 29.906397 242.118125 30.679264 Q 240.724006 39.454446 235.478495 46.584051 Q 230.700773 53.079461 228.726079 56.058142 Q 226.407479 59.55823 224.841406 62.988058 Q 222.12158 68.938024 221.85533 75.442679 C 221.646397 80.553215 222.918484 85.419688 225.706721 89.725925 Q 225.72706 89.755508 226.544302 90.898168 Q 226.962168 91.48244 227.311622 92.120333 Q 224.939401 90.082775 223.038666 87.710554 Q 221.866423 86.249873 220.993712 84.691196 Q 219.74936 82.474288 219.074488 80.421939 Q 218.318262 78.131072 218.238756 76.302447 Q 218.14261 74.08369 218.183287 72.543504 C 218.185136 72.488035 218.116725 72.458451 218.076047 72.499128 Q 218.059407 72.515769 218.042766 72.554597 Q 217.427061 73.950565 217.031383 75.385361 Q 216.694871 75.647914 216.478543 76.211848 Q 214.882887 80.386808 214.781194 80.656757 C 212.95072 85.534324 211.604674 91.007257 211.817305 96.110397 Q 212.113139 103.199324 216.130937 109.128952 Q 218.371882 112.43305 221.931137 115.689075 Q 220.897566 115.191704 219.777094 114.309748 Q 216.506277 111.739689 214.476115 109.59489 Q 211.578788 106.534855 209.311959 103.347242 Q 208.794249 102.620599 207.707058 100.825255 Q 204.208818 95.047243 202.766627 88.426103 C 201.646155 83.289682 201.738603 78.012739 203.079102 72.944729 C 204.454731 67.74914 206.884269 62.871574 209.818575 58.413722 C 211.833945 55.349989 214.285672 52.130942 216.824299 49.222522 Q 219.48126 46.177279 224.229399 40.977992 Q 226.719954 38.248922 228.739022 35.601205 C 231.370098 32.14919 233.784844 27.8485 233.938308 23.396195 Q 234.054793 19.984857 233.215364 16.854561 Q 232.462835 14.044136 231.529109 11.594259 Q 229.633921 6.61315 228.935012 5.313328 Q 228.531938 4.558951 228.241651 3.824912 Q 228.17139 3.645563 228.348891 3.719521 Q 228.563371 3.808272 228.720532 4.067127 Q 229.095872 4.684681 229.487852 5.082208 Q 229.896473 5.498225 231.192597 6.777708 Q 232.24096 7.814976 234.045548 9.02235 C 235.955528 10.303682 238.507098 11.610899 240.668537 12.945851 Q 247.820329 17.359328 254.667042 22.414395 C 265.464991 30.390825 274.423221 40.648877 280.717094 52.54511 Q 284.074813 58.896301 285.95336 65.770749 Q 286.432242 67.523567 286.765055 69.368833 Q 289.181651 82.747935 284.128433 95.258025 Q 283.497936 96.824097 282.567907 98.606498 C 278.862584 105.717613 273.630016 111.769272 267.119814 116.452697 Q 264.303842 118.479162 261.251203 120.344766 Q 261.173546 120.392839 261.230864 120.32073 C 262.168289 119.129997 263.227745 118.048353 264.168868 116.927881 Q 266.803641 113.786492 268.62672 110.297497 Q 270.560736 106.594022 271.091388 102.452343 Q 271.268889 101.067469 271.185686 99.965487 Q 270.764122 94.377918 267.678201 89.613138 Q 264.939886 85.386407 260.844431 81.925146 Z" style="fill:#d13429;"/>
		<path d="M 260.844431 81.925146 L 260.70206 81.751344 Q 260.910993 80.617929 261.09589 79.416102 Q 262.079539 73.002047 260.496825 66.769189 Q 259.356015 62.276207 257.503353 57.940387 Q 253.664904 48.948876 248.65791 38.764783 Q 246.326366 34.025888 243.218258 29.046629 Q 243.033362 28.748945 242.53599 27.918761 Q 242.192083 27.345582 242.240156 27.968683 Q 242.278984 28.475299 242.14401 29.266655 Q 241.589321 28.149881 241.09195 27.025711 Q 240.71661 26.173339 239.666399 24.869819 Q 239.644211 24.842085 239.662701 24.812501 L 239.690435 24.768126 Q 239.697831 24.755183 239.707076 24.764428 Q 241.114137 26.042062 241.565284 26.511699 Q 241.642941 26.591205 241.925832 27.04605 Q 242.016432 27.192118 242.099635 27.206909 Q 242.182838 27.22355 242.260495 27.208758 Q 242.360339 27.190269 242.349245 27.088576 Q 242.031223 23.825155 240.601974 20.877906 C 239.287361 18.167325 237.93207 16.514351 235.61347 13.286061 Q 235.474797 13.093768 235.406386 12.938455 Q 235.284354 12.668507 235.55985 12.777595 Q 242.883596 15.658281 249.351271 20.123529 Q 251.218725 21.412257 252.418702 22.292364 Q 257.529238 26.042062 261.537792 30.211476 Q 265.409522 34.242217 268.587891 39.347206 Q 270.721596 42.775185 272.117563 46.484207 Q 273.422932 49.947316 274.020147 54.29423 C 274.759733 59.672866 273.72986 65.349185 271.618343 70.383914 C 269.967218 74.324056 267.585753 77.83154 264.028346 80.268475 Q 263.262875 80.791731 260.844431 81.925146 Z" style="fill:#f8521b;"/>
		<path d="M 260.70206 81.751344 Q 258.494398 79.906078 256.31262 77.988702 C 255.096002 76.920001 252.646125 74.880594 250.880364 73.166604 C 246.710951 69.124769 243.534431 63.694362 242.713491 57.927444 Q 242.21612 54.425507 242.401016 51.149143 Q 242.413959 50.892137 242.299323 50.775652 Q 242.21612 50.692449 242.182838 50.805235 L 241.434008 53.329071 Q 239.995514 56.157986 237.419907 60.824771 Q 235.705918 63.93103 234.126903 67.974714 C 233.045259 70.742613 232.215074 74.03007 231.958068 76.648203 C 231.272103 83.622495 233.41875 90.426682 237.639934 95.984667 Q 239.401997 98.305117 241.345258 100.527572 Q 240.772079 100.448066 240.313536 100.250227 Q 237.741627 99.151943 236.491728 98.428998 Q 235.332427 97.757824 234.160184 97.103291 Q 230.379053 94.989925 227.311622 92.120333 Q 226.962168 91.48244 226.544302 90.898168 Q 225.72706 89.755508 225.706721 89.725925 C 222.918484 85.419688 221.646397 80.553215 221.85533 75.442679 Q 222.12158 68.938024 224.841406 62.988058 Q 226.407479 59.55823 228.726079 56.058142 Q 230.700773 53.079461 235.478495 46.584051 Q 240.724006 39.454446 242.118125 30.679264 Q 242.240156 29.906397 242.14401 29.266655 Q 242.278984 28.475299 242.240156 27.968683 Q 242.192083 27.345582 242.53599 27.918761 Q 243.033362 28.748945 243.218258 29.046629 Q 246.326366 34.025888 248.65791 38.764783 Q 253.664904 48.948876 257.503353 57.940387 Q 259.356015 62.276207 260.496825 66.769189 Q 262.079539 73.002047 261.09589 79.416102 Q 260.910993 80.617929 260.70206 81.751344 Z" style="fill:#fbc006;"/>
		<path d="M 241.434008 53.329071 C 241.313825 55.631031 241.400727 57.690777 241.524607 59.30862 Q 241.888853 64.071551 243.549223 68.586721 C 245.144878 72.926239 247.280432 77.108595 250.212888 80.671549 Q 250.915495 81.523921 253.452273 84.338044 C 256.403219 87.612559 259.032446 91.031293 260.750134 95.067581 Q 261.97045 97.933475 262.075841 101.291194 Q 262.144252 103.424898 261.975997 105.262768 Q 261.835475 106.806653 261.293729 108.884888 Q 260.498674 111.93383 259.513177 114.313446 Q 257.177935 119.947239 253.720373 125.433115 Q 251.383283 129.143985 249.447417 132.150401 Q 248.53218 133.572254 246.653633 136.713644 Q 245.701417 138.305601 243.752609 142.219858 Q 242.486068 144.765881 241.25281 148.195709 Q 240.772079 149.536208 240.32463 151.253895 Q 240.27101 151.464677 240.178562 151.655121 C 240.147129 151.723532 240.045436 151.706892 240.026947 151.629235 Q 240.017702 151.586709 240.017702 151.479469 Q 240.03804 149.526963 240.034342 148.045943 Q 240.032493 146.799741 240.635256 142.987178 C 240.648198 142.913219 240.722157 142.818922 240.733251 142.722776 Q 240.803511 142.033113 240.951428 141.498762 C 241.123382 140.881208 241.14557 140.417118 241.315674 139.742246 Q 242.336302 135.665281 243.613936 131.871207 Q 244.235188 130.033337 246.862566 123.236546 Q 247.139911 122.519148 247.910928 119.876979 Q 248.423091 118.120463 248.561764 116.755928 Q 248.735566 115.05673 248.687493 113.553522 Q 248.670853 113.017323 248.580253 112.588363 C 248.506295 112.246305 248.47856 111.706407 248.378716 111.299635 Q 247.755615 108.751763 246.744232 107.128373 Q 244.630867 103.726279 241.345258 100.527572 Q 239.401997 98.305117 237.639934 95.984667 C 233.41875 90.426682 231.272103 83.622495 231.958068 76.648203 C 232.215074 74.03007 233.045259 70.742613 234.126903 67.974714 Q 235.705918 63.93103 237.419907 60.824771 Q 239.995514 56.157986 241.434008 53.329071 Z" style="fill:#102a42;"/>
		<path d="M 217.031383 75.385361 Q 216.332475 79.083289 216.559897 82.32822 Q 216.864976 86.693624 218.451387 90.957335 C 220.472305 96.391439 224.218305 100.825255 228.668761 104.399302 Q 228.92207 104.602688 232.231715 107.237462 C 234.258179 108.851607 235.833496 110.303044 237.458736 112.166799 Q 238.242696 113.067245 239.401997 115.021599 Q 239.888274 115.842539 240.581636 117.556529 C 241.816744 120.611017 242.066354 123.787537 241.914739 127.013979 Q 241.868515 127.962498 241.742785 128.790833 Q 241.417367 130.922689 240.766532 133.08043 Q 240.664839 133.416941 240.507677 133.102617 C 239.701529 131.505112 238.838063 130.059223 237.656575 128.652161 C 235.580188 126.180096 233.200572 124.066731 230.586137 122.17709 Q 227.609305 120.023047 224.628775 117.874551 Q 223.160698 116.816943 221.931137 115.689075 Q 218.371882 112.43305 216.130937 109.128952 Q 212.113139 103.199324 211.817305 96.110397 C 211.604674 91.007257 212.95072 85.534324 214.781194 80.656757 Q 214.882887 80.386808 216.478543 76.211848 Q 216.694871 75.647914 217.031383 75.385361 Z" style="fill:#102a42;"/>
	</g>
	<g id="surface4">
	</g>
</svg>
