<?xml version="1.0" encoding="utf-8"?>
<svg xmlns="http://www.w3.org/2000/svg" width="490pt" height="280pt" viewBox="0 0 490 280" version="1.1" xmlns:xlink="http://www.w3.org/1999/xlink">
	<g id="surface2">
		<path vector-effect="non-scaling-stroke" d="M 276.832023 43.452628 Q 276.665553 43.850805 276.202138 44.118506 Q 276.103156 44.174746 275.992927 44.15225 Q 274.791646 43.931791 273.588117 43.848556 Q 273.228182 43.821561 272.818757 43.666339 Q 272.434078 43.517866 272.09439 43.349147" style="fill:none;stroke-width:0.50;stroke:#3b6350;"/>
		<path vector-effect="non-scaling-stroke" d="M 260.482014 43.205174 Q 260.486514 43.299656 260.401029 43.313154 Q 260.369535 43.317653 260.385282 43.346898 L 260.412277 43.396389 Q 260.421276 43.412136 260.403279 43.409886 Q 258.722836 43.085945 255.175235 43.418884 Q 253.12586 43.612349 250.163152 43.182678" style="fill:none;stroke-width:0.50;stroke:#3b6350;"/>
		<path vector-effect="non-scaling-stroke" d="M 233.939121 25.093737 L 233.948119 25.345691" style="fill:none;stroke-width:0.50;stroke:#3b6350;"/>
		<path vector-effect="non-scaling-stroke" d="M 233.950369 26.621208 L 233.948119 26.850666" style="fill:none;stroke-width:0.50;stroke:#3b6350;"/>
		<path vector-effect="non-scaling-stroke" d="M 234.121337 28.753818 Q 234.029104 28.976527 234.141584 29.116001" style="fill:none;stroke-width:0.50;stroke:#3b6350;"/>
		<path vector-effect="non-scaling-stroke" d="M 237.655441 43.166931 Q 237.558709 43.866553 238.006377 44.431199 C 239.203158 45.936174 241.257032 47.990048 239.376376 49.920195 Q 238.894964 50.415104 238.082863 50.412855 Q 237.475474 50.410605 235.860269 50.403856 Q 234.820959 50.399357 234.452027 50.16315 C 233.583686 49.603003 233.291239 48.545696 233.455459 47.59637 C 233.594934 46.806765 234.125837 46.086896 233.869384 45.189311 Q 233.588185 44.212989 233.270993 43.250165 Q 233.217003 43.090445 232.976297 43.011709" style="fill:none;stroke-width:0.50;stroke:#3b6350;"/>
		<path vector-effect="non-scaling-stroke" d="M 219.127831 42.519049 Q 219.087338 42.62253 219.091837 42.672021 C 219.100836 42.784501 219.010852 42.881233 218.898373 42.876734 L 214.493679 42.714763" style="fill:none;stroke-width:0.50;stroke:#3b6350;"/>
		<path vector-effect="non-scaling-stroke" d="M 213.272152 33.948117 L 213.233909 32.845819" style="fill:none;stroke-width:0.50;stroke:#3b6350;"/>
		<path vector-effect="non-scaling-stroke" d="M 296.587908 45.047586 Q 296.403442 45.839442 296.716135 46.525566" style="fill:none;stroke-width:0.50;stroke:#507863;"/>
		<path vector-effect="non-scaling-stroke" d="M 296.819616 47.702101 Q 296.700388 48.642429 296.999583 49.576008" style="fill:none;stroke-width:0.50;stroke:#507863;"/>
		<path vector-effect="non-scaling-stroke" d="M 296.995084 49.872954 Q 296.918598 50.696303 297.166053 51.454414" style="fill:none;stroke-width:0.50;stroke:#507863;"/>
		<path vector-effect="non-scaling-stroke" d="M 297.276282 52.430736 Q 297.172801 52.664693 297.199796 52.95264 Q 298.776758 68.834734 300.387463 84.714579" style="fill:none;stroke-width:0.50;stroke:#5a826e;"/>
		<path vector-effect="non-scaling-stroke" d="M 300.387463 84.714579 L 300.754146 87.778518" style="fill:none;stroke-width:0.50;stroke:#507863;"/>
		<path vector-effect="non-scaling-stroke" d="M 300.817135 88.363411 Q 300.740649 89.227253 300.997102 90.032606" style="fill:none;stroke-width:0.50;stroke:#5a826e;"/>
		<path vector-effect="non-scaling-stroke" d="M 301.048842 90.705233 Q 301.975673 101.629234 303.244441 112.519492" style="fill:none;stroke-width:0.50;stroke:#5a826e;"/>
		<path vector-effect="non-scaling-stroke" d="M 303.341173 113.606043 Q 303.329925 115.475451 303.728102 117.241378" style="fill:none;stroke-width:0.50;stroke:#507863;"/>
		<path vector-effect="non-scaling-stroke" d="M 205.470579 152.438438 L 205.727033 142.868689" style="fill:none;stroke-width:0.50;stroke:#5a826e;"/>
		<path vector-effect="non-scaling-stroke" d="M 205.727033 142.868689 Q 205.821515 142.045339 205.837262 141.635914 Q 206.248937 130.142767 206.620119 118.65187 Q 207.470464 92.268697 208.302811 65.885524 Q 208.509773 59.332473 208.514273 58.632851 Q 208.521021 57.143623 208.646998 54.133674 Q 208.725734 52.284512 208.723484 49.23857 Q 208.723484 46.45133 209.083418 42.654024" style="fill:none;stroke-width:0.50;stroke:#507863;"/>
		<path vector-effect="non-scaling-stroke" d="M 205.727033 142.868689 L 200.87917 132.052668" style="fill:none;stroke-width:0.50;stroke:#908f8e;"/>
		<path vector-effect="non-scaling-stroke" d="M 300.4572 84.446878 Q 300.398711 84.530113 300.387463 84.714579" style="fill:none;stroke-width:0.50;stroke:#908f8e;"/>
		<path vector-effect="non-scaling-stroke" d="M 208.541268 42.683269 C 208.433287 43.396389 208.266818 44.179245 208.228575 44.836125 C 208.140841 46.352348 208.066604 47.738094 207.893386 49.123841 Q 207.369232 53.317073 207.306244 54.981769 Q 207.182516 58.353902 206.885571 60.585494 Q 206.311926 64.895705 206.194947 67.541221 Q 206.152205 68.506294 205.96099 69.808806 Q 205.873256 70.400448 205.765276 72.08539 Q 205.57856 74.940117 205.526819 75.498015 C 205.128642 79.902709 204.8092 85.47269 204.325539 90.12034 Q 204.04884 92.765856 203.918363 94.594771 C 203.643914 98.477561 203.256984 102.450334 202.969037 106.434355 Q 202.519119 112.634221 202.305409 114.980541 Q 202.093947 117.308865 201.223357 127.953918 Q 201.187363 128.401586 200.991649 129.996544 Q 200.845426 131.16858 200.87917 132.052668" style="fill:none;stroke-width:0.50;stroke:#777776;"/>
		<path vector-effect="non-scaling-stroke" d="M 200.87917 132.052668 Q 200.393258 134.572207 199.914096 135.746492 Q 199.362947 137.096245 198.748809 137.901598 Q 195.214706 142.522252 190.409585 146.827964 Q 187.307403 149.606206 184.041 152.402445" style="fill:none;stroke-width:0.50;stroke:#828181;"/>
		<path vector-effect="non-scaling-stroke" d="M 183.098423 151.529604 Q 183.296387 150.958209 183.120919 150.598275" style="fill:none;stroke-width:0.50;stroke:#828181;"/>
		<path vector-effect="non-scaling-stroke" d="M 184.445926 137.431434 L 184.459424 136.979266" style="fill:none;stroke-width:0.50;stroke:#636363;"/>
		<path vector-effect="non-scaling-stroke" d="M 276.096408 44.514434 Q 276.006424 44.37046 275.837705 44.341216 C 274.49695 44.111758 273.558872 43.902546 272.602797 45.049836 C 271.464505 46.413087 270.074259 48.275746 271.664718 49.958438 C 272.051648 50.367863 272.573552 50.49159 273.142698 50.502838 Q 275.219068 50.552329 276.456342 50.457847 Q 277.018739 50.415104 277.385422 49.841459 C 278.177277 48.604186 278.037802 47.234186 277.041235 46.17463 C 276.557573 45.659474 276.442844 45.061084 276.096408 44.514434" style="fill:none;stroke-width:0.50;stroke:#3b6350;"/>
		<path vector-effect="non-scaling-stroke" d="M 256.884923 84.188175 Q 254.741065 85.483938 253.539785 86.170063 C 253.116862 86.410769 252.343004 86.95067 252.624202 87.461326 Q 252.835663 87.850505 253.294579 87.846006 Q 263.278253 87.762771 266.337693 87.774019 Q 266.839351 87.774019 267.642454 87.702032 C 267.754934 87.693034 267.856165 87.623297 267.905656 87.519816 Q 270.850367 81.400935 273.646606 75.012104 C 274.206753 73.727589 273.340662 72.620792 272.056147 73.648853 Q 270.850367 74.613927 269.619843 75.511513 C 269.529859 75.576751 269.406132 75.554255 269.345393 75.462022 Q 268.234096 73.77708 266.342192 70.832369 Q 265.179155 69.019201 264.090354 67.725687 Q 261.989239 65.221895 258.659848 64.425541 Q 257.505809 64.148842 255.631902 64.121847 Q 251.004498 64.054359 248.435469 64.083604 Q 246.674041 64.10385 245.400774 64.367052 C 243.139937 64.834966 242.028641 66.621139 240.694635 68.504045 Q 240.618149 68.612025 240.750874 68.591779 Q 242.377327 68.333076 243.952039 69.043946 Q 247.841577 70.803124 250.552331 74.085274 Q 251.818849 75.617243 252.999883 77.468655 Q 255.415941 81.256961 256.941162 83.976714 C 256.981655 84.05095 256.956909 84.143183 256.884923 84.188175" style="fill:none;stroke-width:0.50;stroke:#8bb092;"/>
		<path vector-effect="non-scaling-stroke" d="M 247.33542 72.517311 Q 245.250051 70.787377 242.775504 69.991023 C 240.087246 69.124931 238.319069 70.346458 237.027806 72.539806 Q 234.393538 77.011988 229.705395 85.207239 C 229.631159 85.337715 229.6784 85.501935 229.811126 85.571672 L 241.92066 91.897515 C 242.035389 91.956004 242.177114 91.915511 242.242352 91.805282 Q 245.121825 86.89668 249.234072 79.621511 Q 249.960689 78.334746 250.142906 77.452907 C 250.579326 75.351792 248.941626 73.849067 247.33542 72.517311" style="fill:none;stroke-width:0.50;stroke:#8bb092;"/>
		<path vector-effect="non-scaling-stroke" d="M 284.494121 103.629118 Q 284.559359 103.541384 284.658341 103.464898 C 284.712331 103.424406 284.732577 103.354668 284.714581 103.28943 Q 284.458128 102.41659 283.976716 101.264801 Q 281.011758 94.187596 277.511399 86.781951 C 277.441661 86.633478 277.275192 86.556992 277.117721 86.597484 Q 276.775783 86.687468 276.454092 86.878683 Q 271.253044 89.998862 266.051995 93.119041 Q 265.786544 93.278762 265.640321 93.440732 Q 265.47835 93.620699 265.593079 93.83666 Q 270.34421 102.862009 272.14613 106.339872 C 272.63879 107.289199 273.016721 107.862844 273.945801 108.162039 C 277.128969 109.181102 280.228901 107.379182 282.80468 105.419791 Q 283.630279 104.792155 284.494121 103.629118" style="fill:none;stroke-width:0.50;stroke:#8bb092;"/>
		<path vector-effect="non-scaling-stroke" d="M 232.366658 111.475683 Q 232.287923 111.405945 232.339663 111.313712 L 237.077297 102.835014 C 237.156032 102.695539 237.342748 102.668544 237.457477 102.776524 Q 238.298823 103.568379 238.984948 104.294996 C 239.551844 104.895636 240.696884 106.029429 241.412253 105.086852 Q 241.481991 104.996868 241.472992 104.882139 Q 241.43025 104.283748 240.980333 103.426655 Q 238.141352 98.005147 235.032421 92.610634 C 234.910943 92.399173 234.683735 92.273196 234.440779 92.282194 Q 226.259026 92.594887 220.369604 92.768105 Q 219.845449 92.781603 219.631739 93.393491 C 219.503512 93.766923 219.690228 94.05487 219.984924 94.27083 Q 220.070408 94.333819 221.802591 95.600337 Q 222.340243 95.994015 222.200768 96.554163 Q 221.638371 98.828497 221.555137 99.638348 Q 221.118716 103.959808 221.008487 108.510725 Q 220.981492 109.642268 221.233445 110.519608 Q 221.577632 111.714139 222.268256 113.194368 Q 223.426794 115.686912 224.902524 118.235696 Q 224.98126 118.370671 225.08699 118.258192 L 230.400518 112.643219 C 230.450009 112.589229 230.61198 112.53074 230.823441 112.485748 Q 230.890928 112.47225 230.953917 112.510493 Q 231.106889 112.604976 230.985411 112.737702 L 225.347943 118.81384 C 225.293953 118.872329 225.282705 118.960063 225.320948 119.0298 Q 226.01832 120.296319 227.080126 122.140981 Q 227.790996 123.376005 228.434378 123.936153 C 230.078827 125.366891 232.380156 125.8618 234.54651 125.877548 Q 241.029823 125.92029 246.804517 125.902293 Q 247.474894 125.900043 247.967554 125.86405 C 248.158769 125.850553 248.307242 125.690832 248.309492 125.497367 Q 248.320739 119.738421 248.201511 113.464319 Q 248.176766 112.164057 248.10028 111.691643 Q 248.04629 111.365453 247.71785 111.367702 Q 234.463275 111.511676 232.571371 111.522924 Q 232.416149 111.522924 232.366658 111.475683" style="fill:none;stroke-width:0.50;stroke:#8bb092;"/>
		<path vector-effect="non-scaling-stroke" d="M 262.479649 110.350888 Q 262.515642 108.024814 262.506644 106.884273 C 262.499895 106.193649 261.791275 105.734733 261.208631 106.168904 Q 260.907187 106.393862 260.767712 106.630069 Q 257.528305 112.107817 254.680326 117.360606 C 254.174169 118.298684 254.068438 118.687863 254.626336 119.553955 Q 258.522623 125.618845 261.361604 129.960551 Q 261.712539 130.498202 262.153459 130.556691 Q 263.069041 130.680419 263.07354 129.776084 Q 263.080289 128.172128 263.109534 126.687399 Q 263.116282 126.280224 263.51221 126.185741 Q 264.71574 125.897794 269.74357 124.651522 Q 272.681532 123.924905 274.411466 123.24103 Q 276.388854 122.460423 277.414666 121.070177 Q 281.3312 115.770147 284.125189 109.63102 Q 285.292725 107.066489 284.905796 103.977804 Q 284.903546 103.964307 284.867553 103.94631 L 284.865303 103.944061 Q 284.822561 103.923814 284.831559 103.989052 C 285.043021 105.469282 284.120689 106.171153 282.921659 107.066489 C 279.972448 109.268836 277.032236 110.355388 273.401401 110.404879 Q 268.263341 110.474616 262.578631 110.44987 C 262.524641 110.44987 262.479649 110.404879 262.479649 110.350888" style="fill:none;stroke-width:0.50;stroke:#8bb092;"/>
		<path d="M 276.832023 43.452628 Q 276.665553 43.850805 276.202138 44.118506 Q 276.103156 44.174746 275.992927 44.15225 Q 274.791646 43.931791 273.588117 43.848556 Q 273.228182 43.821561 272.818757 43.666339 Q 272.434078 43.517866 272.09439 43.349147 Q 273.464389 38.85222 274.469955 34.382288 C 275.228066 31.005656 275.59025 27.323079 274.737656 23.831718 C 273.792829 19.969175 271.05508 16.954726 267.757183 14.547667 Q 262.225445 10.516404 255.712887 9.238638 Q 254.531853 9.006931 255.568913 9.61207 C 256.059324 9.897768 256.67796 10.174467 257.323592 10.642381 Q 262.126464 14.131493 263.761914 19.636236 Q 264.360305 21.654117 264.43904 24.065675 Q 264.547021 27.395066 264.00487 30.229548 Q 263.118532 34.859201 260.637236 41.956652 Q 260.434773 42.537046 260.223312 43.094944 Q 260.17832 43.207423 260.293049 43.250165 Q 260.365036 43.274911 260.482014 43.205174 Q 260.486514 43.299656 260.401029 43.313154 Q 260.369535 43.317653 260.385282 43.346898 L 260.412277 43.396389 Q 260.421276 43.412136 260.403279 43.409886 Q 258.722836 43.085945 255.175235 43.418884 Q 253.12586 43.612349 250.163152 43.182678 Q 252.624202 43.126438 255.03801 43.198425 C 255.411442 43.209673 255.562165 43.088195 255.670145 42.757505 Q 257.548551 36.960316 258.844314 32.332913 C 259.84988 28.74257 260.410028 25.194969 259.442705 21.4719 C 258.637352 18.367468 256.675711 15.782691 253.922215 13.956025 C 251.224958 12.165353 248.143022 10.934828 245.054337 10.115978 Q 244.908114 10.077735 244.775388 10.147472 Q 241.614716 11.814417 239.126672 14.225976 Q 234.526263 18.689159 233.939121 25.093737 L 233.948119 25.345691 L 233.950369 26.621208 L 233.948119 26.850666 L 234.121337 28.753818 Q 234.029104 28.976527 234.141584 29.116001 Q 234.571255 31.518562 235.162897 33.885129 Q 236.328184 38.537278 237.655441 43.166931 Q 237.558709 43.866553 238.006377 44.431199 C 239.203158 45.936174 241.257032 47.990048 239.376376 49.920195 Q 238.894964 50.415104 238.082863 50.412855 Q 237.475474 50.410605 235.860269 50.403856 Q 234.820959 50.399357 234.452027 50.16315 C 233.583686 49.603003 233.291239 48.545696 233.455459 47.59637 C 233.594934 46.806765 234.125837 46.086896 233.869384 45.189311 Q 233.588185 44.212989 233.270993 43.250165 Q 233.217003 43.090445 232.976297 43.011709 Q 233.061781 42.865486 233.025788 42.764254 Q 231.725526 39.036686 230.715461 35.342862 C 229.73464 31.768266 229.18799 28.186921 229.428696 24.837284 Q 230.137316 14.979588 238.181845 9.524336 C 238.197592 9.513088 238.20659 9.49959 238.213339 9.483843 Q 238.265079 9.310625 238.028873 9.342119 Q 230.740206 10.311692 225.024002 14.91435 Q 219.226813 19.584495 218.140261 27.140863 Q 217.850064 29.154244 217.81857 29.853866 Q 217.667848 33.295737 218.227995 36.922073 Q 218.657667 39.693566 219.127831 42.519049 Q 219.087338 42.62253 219.091837 42.672021 C 219.100836 42.784501 219.010852 42.881233 218.898373 42.876734 L 214.493679 42.714763 C 213.767062 39.914026 213.497111 37.079544 213.272152 33.948117 L 213.233909 32.845819 Q 212.941463 26.902406 214.693892 21.85433 Q 217.028965 15.134809 222.832903 10.876339 Q 227.152113 7.704419 231.644541 6.264682 C 235.63756 4.982417 239.995013 4.660726 244.161251 5.101645 C 244.770889 5.166883 245.337785 5.133139 246.030658 4.998164 Q 249.452282 4.332286 253.103364 4.554995 C 255.814118 4.721465 258.743083 5.23662 261.442589 6.143205 Q 268.890976 8.646996 274.307985 14.174235 Q 278.888147 18.84663 279.572022 24.837284 C 279.927457 27.957463 279.626012 31.509563 278.915142 34.888445 Q 278.184026 38.379806 277.056982 42.042136 Q 276.863517 42.674271 276.832023 43.452628 Z" style="fill:#5c5c5c;"/>
		<path d="M 233.939121 25.093737 Q 233.972865 25.215215 233.948119 25.345691 L 233.939121 25.093737 Z" style="fill:#1a6a43;"/>
		<path d="M 233.948119 26.850666 L 233.950369 26.621208 L 233.948119 26.850666 Z" style="fill:#1a6a43;"/>
		<path d="M 234.141584 29.116001 Q 234.029104 28.976527 234.121337 28.753818 L 234.141584 29.116001 Z" style="fill:#1a6a43;"/>
		<path d="M 213.272152 33.948117 L 213.233909 32.845819 L 213.272152 33.948117 Z" style="fill:#1a6a43;"/>
		<path d="M 232.976297 43.011709 Q 233.217003 43.090445 233.270993 43.250165 Q 233.588185 44.212989 233.869384 45.189311 C 234.125837 46.086896 233.594934 46.806765 233.455459 47.59637 C 233.291239 48.545696 233.583686 49.603003 234.452027 50.16315 Q 234.820959 50.399357 235.860269 50.403856 Q 237.475474 50.410605 238.082863 50.412855 Q 238.894964 50.415104 239.376376 49.920195 C 241.257032 47.990048 239.203158 45.936174 238.006377 44.431199 Q 237.558709 43.866553 237.655441 43.166931 Q 238.732994 43.040954 239.153667 43.043203 Q 244.687654 43.079197 250.163152 43.182678 Q 253.12586 43.612349 255.175235 43.418884 Q 258.722836 43.085945 260.403279 43.409886 Q 260.421276 43.412136 260.412277 43.396389 L 260.385282 43.346898 Q 260.369535 43.317653 260.401029 43.313154 Q 260.486514 43.299656 260.482014 43.205174 L 272.09439 43.349147 Q 272.434078 43.517866 272.818757 43.666339 Q 273.228182 43.821561 273.588117 43.848556 Q 274.791646 43.931791 275.992927 44.15225 Q 276.103156 44.174746 276.202138 44.118506 Q 276.665553 43.850805 276.832023 43.452628 Q 277.873582 43.376142 278.746423 43.373893 Q 286.395023 43.349147 294.043624 43.493121 Q 295.130175 43.513367 296.263968 43.592103 C 296.374198 43.598852 296.461931 43.684336 296.47093 43.794566 L 296.587908 45.047586 Q 296.403442 45.839442 296.716135 46.525566 L 296.819616 47.702101 Q 296.700388 48.642429 296.999583 49.576008 Q 297.076069 49.791968 296.995084 49.872954 Q 296.918598 50.696303 297.166053 51.454414 Q 297.310026 51.897583 297.276282 52.430736 Q 297.172801 52.664693 297.199796 52.95264 Q 298.776758 68.834734 300.387463 84.714579 L 300.754146 87.778518 Q 300.918366 88.016975 300.817135 88.363411 Q 300.740649 89.227253 300.997102 90.032606 Q 301.165821 90.365545 301.048842 90.705233 Q 301.975673 101.629234 303.244441 112.519492 L 303.341173 113.606043 Q 303.329925 115.475451 303.728102 117.241378 Q 304.978873 131.008859 306.229644 144.798836 Q 306.459102 147.322874 306.897772 151.198915 Q 306.956261 151.727568 306.918018 152.283216 C 306.90902 152.404694 306.807789 152.499177 306.684061 152.499177 L 205.470579 152.438438 L 205.727033 142.868689 Q 205.821515 142.045339 205.837262 141.635914 Q 206.248937 130.142767 206.620119 118.65187 Q 207.470464 92.268697 208.302811 65.885524 Q 208.509773 59.332473 208.514273 58.632851 Q 208.521021 57.143623 208.646998 54.133674 Q 208.725734 52.284512 208.723484 49.23857 Q 208.723484 46.45133 209.083418 42.654024 L 214.493679 42.714763 L 218.898373 42.876734 C 219.010852 42.881233 219.100836 42.784501 219.091837 42.672021 Q 219.087338 42.62253 219.127831 42.519049 Q 219.046846 42.838491 219.712724 42.822744 Q 220.099653 42.813745 220.131147 42.815995 Q 226.553722 42.89698 232.976297 43.011709 Z M 276.096408 44.514434 Q 276.006424 44.37046 275.837705 44.341216 C 274.49695 44.111758 273.558872 43.902546 272.602797 45.049836 C 271.464505 46.413087 270.074259 48.275746 271.664718 49.958438 C 272.051648 50.367863 272.573552 50.49159 273.142698 50.502838 Q 275.219068 50.552329 276.456342 50.457847 Q 277.018739 50.415104 277.385422 49.841459 C 278.177277 48.604186 278.037802 47.234186 277.041235 46.17463 C 276.557573 45.659474 276.442844 45.061084 276.096408 44.514434 Z M 256.884923 84.188175 Q 254.741065 85.483938 253.539785 86.170063 C 253.116862 86.410769 252.343004 86.95067 252.624202 87.461326 Q 252.835663 87.850505 253.294579 87.846006 Q 263.278253 87.762771 266.337693 87.774019 Q 266.839351 87.774019 267.642454 87.702032 C 267.754934 87.693034 267.856165 87.623297 267.905656 87.519816 Q 270.850367 81.400935 273.646606 75.012104 C 274.206753 73.727589 273.340662 72.620792 272.056147 73.648853 Q 270.850367 74.613927 269.619843 75.511513 C 269.529859 75.576751 269.406132 75.554255 269.345393 75.462022 Q 268.234096 73.77708 266.342192 70.832369 Q 265.179155 69.019201 264.090354 67.725687 Q 261.989239 65.221895 258.659848 64.425541 Q 257.505809 64.148842 255.631902 64.121847 Q 251.004498 64.054359 248.435469 64.083604 Q 246.674041 64.10385 245.400774 64.367052 C 243.139937 64.834966 242.028641 66.621139 240.694635 68.504045 Q 240.618149 68.612025 240.750874 68.591779 Q 242.377327 68.333076 243.952039 69.043946 Q 247.841577 70.803124 250.552331 74.085274 Q 251.818849 75.617243 252.999883 77.468655 Q 255.415941 81.256961 256.941162 83.976714 C 256.981655 84.05095 256.956909 84.143183 256.884923 84.188175 Z M 247.33542 72.517311 Q 245.250051 70.787377 242.775504 69.991023 C 240.087246 69.124931 238.319069 70.346458 237.027806 72.539806 Q 234.393538 77.011988 229.705395 85.207239 C 229.631159 85.337715 229.6784 85.501935 229.811126 85.571672 L 241.92066 91.897515 C 242.035389 91.956004 242.177114 91.915511 242.242352 91.805282 Q 245.121825 86.89668 249.234072 79.621511 Q 249.960689 78.334746 250.142906 77.452907 C 250.579326 75.351792 248.941626 73.849067 247.33542 72.517311 Z M 284.494121 103.629118 Q 284.559359 103.541384 284.658341 103.464898 C 284.712331 103.424406 284.732577 103.354668 284.714581 103.28943 Q 284.458128 102.41659 283.976716 101.264801 Q 281.011758 94.187596 277.511399 86.781951 C 277.441661 86.633478 277.275192 86.556992 277.117721 86.597484 Q 276.775783 86.687468 276.454092 86.878683 Q 271.253044 89.998862 266.051995 93.119041 Q 265.786544 93.278762 265.640321 93.440732 Q 265.47835 93.620699 265.593079 93.83666 Q 270.34421 102.862009 272.14613 106.339872 C 272.63879 107.289199 273.016721 107.862844 273.945801 108.162039 C 277.128969 109.181102 280.228901 107.379182 282.80468 105.419791 Q 283.630279 104.792155 284.494121 103.629118 Z M 232.366658 111.475683 Q 232.287923 111.405945 232.339663 111.313712 L 237.077297 102.835014 C 237.156032 102.695539 237.342748 102.668544 237.457477 102.776524 Q 238.298823 103.568379 238.984948 104.294996 C 239.551844 104.895636 240.696884 106.029429 241.412253 105.086852 Q 241.481991 104.996868 241.472992 104.882139 Q 241.43025 104.283748 240.980333 103.426655 Q 238.141352 98.005147 235.032421 92.610634 C 234.910943 92.399173 234.683735 92.273196 234.440779 92.282194 Q 226.259026 92.594887 220.369604 92.768105 Q 219.845449 92.781603 219.631739 93.393491 C 219.503512 93.766923 219.690228 94.05487 219.984924 94.27083 Q 220.070408 94.333819 221.802591 95.600337 Q 222.340243 95.994015 222.200768 96.554163 Q 221.638371 98.828497 221.555137 99.638348 Q 221.118716 103.959808 221.008487 108.510725 Q 220.981492 109.642268 221.233445 110.519608 Q 221.577632 111.714139 222.268256 113.194368 Q 223.426794 115.686912 224.902524 118.235696 Q 224.98126 118.370671 225.08699 118.258192 L 230.400518 112.643219 C 230.450009 112.589229 230.61198 112.53074 230.823441 112.485748 Q 230.890928 112.47225 230.953917 112.510493 Q 231.106889 112.604976 230.985411 112.737702 L 225.347943 118.81384 C 225.293953 118.872329 225.282705 118.960063 225.320948 119.0298 Q 226.01832 120.296319 227.080126 122.140981 Q 227.790996 123.376005 228.434378 123.936153 C 230.078827 125.366891 232.380156 125.8618 234.54651 125.877548 Q 241.029823 125.92029 246.804517 125.902293 Q 247.474894 125.900043 247.967554 125.86405 C 248.158769 125.850553 248.307242 125.690832 248.309492 125.497367 Q 248.320739 119.738421 248.201511 113.464319 Q 248.176766 112.164057 248.10028 111.691643 Q 248.04629 111.365453 247.71785 111.367702 Q 234.463275 111.511676 232.571371 111.522924 Q 232.416149 111.522924 232.366658 111.475683 Z M 262.479649 110.350888 Q 262.515642 108.024814 262.506644 106.884273 C 262.499895 106.193649 261.791275 105.734733 261.208631 106.168904 Q 260.907187 106.393862 260.767712 106.630069 Q 257.528305 112.107817 254.680326 117.360606 C 254.174169 118.298684 254.068438 118.687863 254.626336 119.553955 Q 258.522623 125.618845 261.361604 129.960551 Q 261.712539 130.498202 262.153459 130.556691 Q 263.069041 130.680419 263.07354 129.776084 Q 263.080289 128.172128 263.109534 126.687399 Q 263.116282 126.280224 263.51221 126.185741 Q 264.71574 125.897794 269.74357 124.651522 Q 272.681532 123.924905 274.411466 123.24103 Q 276.388854 122.460423 277.414666 121.070177 Q 281.3312 115.770147 284.125189 109.63102 Q 285.292725 107.066489 284.905796 103.977804 Q 284.903546 103.964307 284.867553 103.94631 L 284.865303 103.944061 Q 284.822561 103.923814 284.831559 103.989052 C 285.043021 105.469282 284.120689 106.171153 282.921659 107.066489 C 279.972448 109.268836 277.032236 110.355388 273.401401 110.404879 Q 268.263341 110.474616 262.578631 110.44987 C 262.524641 110.44987 262.479649 110.404879 262.479649 110.350888 Z" style="fill:#1a6a43;"/>
		<path d="M 208.541268 42.683269 C 208.433287 43.396389 208.266818 44.179245 208.228575 44.836125 C 208.140841 46.352348 208.066604 47.738094 207.893386 49.123841 Q 207.369232 53.317073 207.306244 54.981769 Q 207.182516 58.353902 206.885571 60.585494 Q 206.311926 64.895705 206.194947 67.541221 Q 206.152205 68.506294 205.96099 69.808806 Q 205.873256 70.400448 205.765276 72.08539 Q 205.57856 74.940117 205.526819 75.498015 C 205.128642 79.902709 204.8092 85.47269 204.325539 90.12034 Q 204.04884 92.765856 203.918363 94.594771 C 203.643914 98.477561 203.256984 102.450334 202.969037 106.434355 Q 202.519119 112.634221 202.305409 114.980541 Q 202.093947 117.308865 201.223357 127.953918 Q 201.187363 128.401586 200.991649 129.996544 Q 200.845426 131.16858 200.87917 132.052668 Q 200.393258 134.572207 199.914096 135.746492 Q 199.362947 137.096245 198.748809 137.901598 Q 195.214706 142.522252 190.409585 146.827964 Q 187.307403 149.606206 184.041 152.402445 Q 183.762051 152.519423 183.251395 152.447436 Q 183.136666 152.42944 183.096173 152.321459 Q 182.902709 151.810803 183.098423 151.529604 Q 183.296387 150.958209 183.120919 150.598275 L 184.445926 137.431434 L 184.459424 136.979266 Q 184.585401 136.30439 184.652888 135.625014 Q 187.449127 107.394929 189.991162 84.332149 Q 190.27236 81.776616 190.528813 79.216585 Q 191.293673 71.617475 194.418352 43.49987 Q 194.463343 43.103942 194.859271 43.094944 C 195.482407 43.081446 196.139287 42.964468 196.937891 42.94872 C 202.543865 42.831742 206.084717 42.721512 208.541268 42.683269 Z" style="fill:#696969;"/>
		<path d="M 209.083418 42.654024 Q 208.723484 46.45133 208.723484 49.23857 Q 208.725734 52.284512 208.646998 54.133674 Q 208.521021 57.143623 208.514273 58.632851 Q 208.509773 59.332473 208.302811 65.885524 Q 207.470464 92.268697 206.620119 118.65187 Q 206.248937 130.142767 205.837262 141.635914 Q 205.821515 142.045339 205.727033 142.868689 L 200.87917 132.052668 Q 200.845426 131.16858 200.991649 129.996544 Q 201.187363 128.401586 201.223357 127.953918 Q 202.093947 117.308865 202.305409 114.980541 Q 202.519119 112.634221 202.969037 106.434355 C 203.256984 102.450334 203.643914 98.477561 203.918363 94.594771 Q 204.04884 92.765856 204.325539 90.12034 C 204.8092 85.47269 205.128642 79.902709 205.526819 75.498015 Q 205.57856 74.940117 205.765276 72.08539 Q 205.873256 70.400448 205.96099 69.808806 Q 206.152205 68.506294 206.194947 67.541221 Q 206.311926 64.895705 206.885571 60.585494 Q 207.182516 58.353902 207.306244 54.981769 Q 207.369232 53.317073 207.893386 49.123841 C 208.066604 47.738094 208.140841 46.352348 208.228575 44.836125 C 208.266818 44.179245 208.433287 43.396389 208.541268 42.683269 L 209.083418 42.654024 Z" style="fill:#858583;"/>
		<path d="M 296.587908 45.047586 L 296.716135 46.525566 Q 296.403442 45.839442 296.587908 45.047586 Z" style="fill:#858583;"/>
		<path d="M 296.819616 47.702101 L 296.999583 49.576008 Q 296.700388 48.642429 296.819616 47.702101 Z" style="fill:#858583;"/>
		<path d="M 296.995084 49.872954 Q 297.211044 50.646812 297.166053 51.454414 Q 296.918598 50.696303 296.995084 49.872954 Z" style="fill:#858583;"/>
		<path d="M 297.276282 52.430736 L 300.4572 84.446878 Q 300.398711 84.530113 300.387463 84.714579 Q 298.776758 68.834734 297.199796 52.95264 Q 297.172801 52.664693 297.276282 52.430736 Z" style="fill:#9a9998;"/>
		<path d="M 300.4572 84.446878 L 300.754146 87.778518 L 300.387463 84.714579 Q 300.398711 84.530113 300.4572 84.446878 Z" style="fill:#858583;"/>
		<path d="M 300.817135 88.363411 Q 301.048842 89.180012 300.997102 90.032606 Q 300.740649 89.227253 300.817135 88.363411 Z" style="fill:#9a9998;"/>
		<path d="M 301.048842 90.705233 Q 302.313111 101.59549 303.244441 112.519492 Q 301.975673 101.629234 301.048842 90.705233 Z" style="fill:#9a9998;"/>
		<path d="M 303.341173 113.606043 L 303.728102 117.241378 Q 303.329925 115.475451 303.341173 113.606043 Z" style="fill:#858583;"/>
		<path d="M 205.727033 142.868689 L 205.470579 152.438438 L 184.041 152.402445 Q 187.307403 149.606206 190.409585 146.827964 Q 195.214706 142.522252 198.748809 137.901598 Q 199.362947 137.096245 199.914096 135.746492 Q 200.393258 134.572207 200.87917 132.052668 L 205.727033 142.868689 Z" style="fill:#9a9998;"/>
		<path d="M 184.459424 136.979266 L 184.445926 137.431434 L 184.459424 136.979266 Z" style="fill:#5c5c5c;"/>
		<path d="M 183.098423 151.529604 L 183.120919 150.598275 Q 183.296387 150.958209 183.098423 151.529604 Z" style="fill:#9a9998;"/>
		<path d="M 276.096408 44.514434 C 276.442844 45.061084 276.557573 45.659474 277.041235 46.17463 C 278.037802 47.234186 278.177277 48.604186 277.385422 49.841459 Q 277.018739 50.415104 276.456342 50.457847 Q 275.219068 50.552329 273.142698 50.502838 C 272.573552 50.49159 272.051648 50.367863 271.664718 49.958438 C 270.074259 48.275746 271.464505 46.413087 272.602797 45.049836 C 273.558872 43.902546 274.49695 44.111758 275.837705 44.341216 Q 276.006424 44.37046 276.096408 44.514434 Z" style="fill:#5c5c5c;"/>
		<path d="M 256.884923 84.188175 C 256.956909 84.143183 256.981655 84.05095 256.941162 83.976714 Q 255.415941 81.256961 252.999883 77.468655 Q 251.818849 75.617243 250.552331 74.085274 Q 247.841577 70.803124 243.952039 69.043946 Q 242.377327 68.333076 240.750874 68.591779 Q 240.618149 68.612025 240.694635 68.504045 C 242.028641 66.621139 243.139937 64.834966 245.400774 64.367052 Q 246.674041 64.10385 248.435469 64.083604 Q 251.004498 64.054359 255.631902 64.121847 Q 257.505809 64.148842 258.659848 64.425541 Q 261.989239 65.221895 264.090354 67.725687 Q 265.179155 69.019201 266.342192 70.832369 Q 268.234096 73.77708 269.345393 75.462022 C 269.406132 75.554255 269.529859 75.576751 269.619843 75.511513 Q 270.850367 74.613927 272.056147 73.648853 C 273.340662 72.620792 274.206753 73.727589 273.646606 75.012104 Q 270.850367 81.400935 267.905656 87.519816 C 267.856165 87.623297 267.754934 87.693034 267.642454 87.702032 Q 266.839351 87.774019 266.337693 87.774019 Q 263.278253 87.762771 253.294579 87.846006 Q 252.835663 87.850505 252.624202 87.461326 C 252.343004 86.95067 253.116862 86.410769 253.539785 86.170063 Q 254.741065 85.483938 256.884923 84.188175 Z" style="fill:#fcf6e0;"/>
		<path d="M 247.33542 72.517311 C 248.941626 73.849067 250.579326 75.351792 250.142906 77.452907 Q 249.960689 78.334746 249.234072 79.621511 Q 245.121825 86.89668 242.242352 91.805282 C 242.177114 91.915511 242.035389 91.956004 241.92066 91.897515 L 229.811126 85.571672 C 229.6784 85.501935 229.631159 85.337715 229.705395 85.207239 Q 234.393538 77.011988 237.027806 72.539806 C 238.319069 70.346458 240.087246 69.124931 242.775504 69.991023 Q 245.250051 70.787377 247.33542 72.517311 Z" style="fill:#fcf6e0;"/>
		<path d="M 284.494121 103.629118 Q 283.630279 104.792155 282.80468 105.419791 C 280.228901 107.379182 277.128969 109.181102 273.945801 108.162039 C 273.016721 107.862844 272.63879 107.289199 272.14613 106.339872 Q 270.34421 102.862009 265.593079 93.83666 Q 265.47835 93.620699 265.640321 93.440732 Q 265.786544 93.278762 266.051995 93.119041 Q 271.253044 89.998862 276.454092 86.878683 Q 276.775783 86.687468 277.117721 86.597484 C 277.275192 86.556992 277.441661 86.633478 277.511399 86.781951 Q 281.011758 94.187596 283.976716 101.264801 Q 284.458128 102.41659 284.714581 103.28943 C 284.732577 103.354668 284.712331 103.424406 284.658341 103.464898 Q 284.559359 103.541384 284.494121 103.629118 Z" style="fill:#fcf6e0;"/>
		<path d="M 232.366658 111.475683 Q 232.416149 111.522924 232.571371 111.522924 Q 234.463275 111.511676 247.71785 111.367702 Q 248.04629 111.365453 248.10028 111.691643 Q 248.176766 112.164057 248.201511 113.464319 Q 248.320739 119.738421 248.309492 125.497367 C 248.307242 125.690832 248.158769 125.850553 247.967554 125.86405 Q 247.474894 125.900043 246.804517 125.902293 Q 241.029823 125.92029 234.54651 125.877548 C 232.380156 125.8618 230.078827 125.366891 228.434378 123.936153 Q 227.790996 123.376005 227.080126 122.140981 Q 226.01832 120.296319 225.320948 119.0298 C 225.282705 118.960063 225.293953 118.872329 225.347943 118.81384 L 230.985411 112.737702 Q 231.106889 112.604976 230.953917 112.510493 Q 230.890928 112.47225 230.823441 112.485748 C 230.61198 112.53074 230.450009 112.589229 230.400518 112.643219 L 225.08699 118.258192 Q 224.98126 118.370671 224.902524 118.235696 Q 223.426794 115.686912 222.268256 113.194368 Q 221.577632 111.714139 221.233445 110.519608 Q 220.981492 109.642268 221.008487 108.510725 Q 221.118716 103.959808 221.555137 99.638348 Q 221.638371 98.828497 222.200768 96.554163 Q 222.340243 95.994015 221.802591 95.600337 Q 220.070408 94.333819 219.984924 94.27083 C 219.690228 94.05487 219.503512 93.766923 219.631739 93.393491 Q 219.845449 92.781603 220.369604 92.768105 Q 226.259026 92.594887 234.440779 92.282194 C 234.683735 92.273196 234.910943 92.399173 235.032421 92.610634 Q 238.141352 98.005147 240.980333 103.426655 Q 241.43025 104.283748 241.472992 104.882139 Q 241.481991 104.996868 241.412253 105.086852 C 240.696884 106.029429 239.551844 104.895636 238.984948 104.294996 Q 238.298823 103.568379 237.457477 102.776524 C 237.342748 102.668544 237.156032 102.695539 237.077297 102.835014 L 232.339663 111.313712 Q 232.287923 111.405945 232.366658 111.475683 Z" style="fill:#fcf6e0;"/>
		<path d="M 262.479649 110.350888 C 262.479649 110.404879 262.524641 110.44987 262.578631 110.44987 Q 268.263341 110.474616 273.401401 110.404879 C 277.032236 110.355388 279.972448 109.268836 282.921659 107.066489 C 284.120689 106.171153 285.043021 105.469282 284.831559 103.989052 Q 284.822561 103.923814 284.865303 103.944061 L 284.867553 103.94631 Q 284.903546 103.964307 284.905796 103.977804 Q 285.292725 107.066489 284.125189 109.63102 Q 281.3312 115.770147 277.414666 121.070177 Q 276.388854 122.460423 274.411466 123.24103 Q 272.681532 123.924905 269.74357 124.651522 Q 264.71574 125.897794 263.51221 126.185741 Q 263.116282 126.280224 263.109534 126.687399 Q 263.080289 128.172128 263.07354 129.776084 Q 263.069041 130.680419 262.153459 130.556691 Q 261.712539 130.498202 261.361604 129.960551 Q 258.522623 125.618845 254.626336 119.553955 C 254.068438 118.687863 254.174169 118.298684 254.680326 117.360606 Q 257.528305 112.107817 260.767712 106.630069 Q 260.907187 106.393862 261.208631 106.168904 C 261.791275 105.734733 262.499895 106.193649 262.506644 106.884273 Q 262.515642 108.024814 262.479649 110.350888 Z" style="fill:#fcf6e0;"/>
	</g>
	<g id="surface4">
	</g>
</svg>
