<?xml version="1.0" encoding="utf-8"?>
<svg xmlns="http://www.w3.org/2000/svg" width="490pt" height="280pt" viewBox="0 0 490 280" version="1.1" xmlns:xlink="http://www.w3.org/1999/xlink">
	<g id="surface2">
		<path stroke-linecap="butt" vector-effect="non-scaling-stroke" d="M 264.961502 153.511109 Q 264.95043 125.377048 265.008558 97.212538 Q 265.014094 94.804369 264.657021 93.61966 Q 263.530441 89.888382 260.131323 88.30508 C 258.650438 87.615845 256.912127 87.665669 255.049256 87.662901 Q 245.959108 87.649061 236.863425 87.649061 Q 232.871953 87.649061 232.00003 87.870502 Q 229.511588 88.496072 227.731757 90.657889 Q 226.115239 92.625944 226.118007 95.690132 Q 226.142919 124.618613 226.131847 153.536022" style="fill:none;stroke-width:0.50;stroke:#e4b98e;"/>
		<path d="M 264.961502 153.511109 Q 264.95043 125.377048 265.008558 97.212538 Q 265.014094 94.804369 264.657021 93.61966 Q 263.530441 89.888382 260.131323 88.30508 C 258.650438 87.615845 256.912127 87.665669 255.049256 87.662901 Q 245.959108 87.649061 236.863425 87.649061 Q 232.871953 87.649061 232.00003 87.870502 Q 229.511588 88.496072 227.731757 90.657889 Q 226.115239 92.625944 226.118007 95.690132 Q 226.142919 124.618613 226.131847 153.536022 L 186.635101 153.533254 Q 186.23374 153.533254 186.236508 153.13466 Q 186.250348 151.216429 186.26142 149.353557 Q 186.314012 139.65168 186.27526 90.01571 Q 186.272492 87.051171 186.142395 84.153064 Q 186.136859 84.056183 186.039979 84.056183 Q 169.550939 83.975911 161.922301 84.197352 Q 161.518172 84.208424 161.368699 84.1586 C 160.981178 84.022967 160.873225 83.530261 161.169402 83.256228 L 244.766096 5.937383 Q 245.197905 5.536022 245.629715 5.937383 L 329.004967 83.618837 Q 329.215336 83.812598 328.902551 84.045111 Q 328.794599 84.125383 328.407077 84.114311 Q 321.467674 83.920551 308.529992 84.014663 C 307.046338 84.025735 305.352315 83.953767 303.904646 83.945463 Q 303.735797 83.942695 303.735797 84.111543 L 303.735797 153.309045 C 303.735797 153.430837 303.636149 153.530486 303.514356 153.530486 L 264.961502 153.511109 Z" style="fill:#fdefd8;"/>
		<path d="M 264.961502 153.511109 L 226.131847 153.536022 Q 226.142919 124.618613 226.118007 95.690132 Q 226.115239 92.625944 227.731757 90.657889 Q 229.511588 88.496072 232.00003 87.870502 Q 232.871953 87.649061 236.863425 87.649061 Q 245.959108 87.649061 255.049256 87.662901 C 256.912127 87.665669 258.650438 87.615845 260.131323 88.30508 Q 263.530441 89.888382 264.657021 93.61966 Q 265.014094 94.804369 265.008558 97.212538 Q 264.95043 125.377048 264.961502 153.511109 Z" style="fill:#ca8244;"/>
	</g>
	<g id="surface4">
	</g>
</svg>
