<?xml version="1.0" encoding="utf-8"?>
<svg xmlns="http://www.w3.org/2000/svg" width="490pt" height="280pt" viewBox="0 0 490 280" version="1.1" xmlns:xlink="http://www.w3.org/1999/xlink">
	<g id="surface2">
		<path d="M 228.103262 30.092622 Q 227.94146 30.112847 227.779659 30.135319 C 227.431337 30.187006 227.154926 30.416224 226.829076 30.445438 Q 226.577385 30.467911 226.202096 30.649937 Q 225.671747 30.906123 224.447001 31.382538 Q 223.914405 31.589284 222.885169 32.214017 C 222.741346 32.301659 222.554825 32.2275 222.507633 32.065699 Q 221.473902 28.528542 220.217694 25.159928 Q 218.118772 19.523849 215.667032 13.977659 Q 215.653549 13.948445 214.51195 11.303443 Q 213.579346 9.150586 213.287204 8.604507 Q 213.141134 8.334838 213.125403 7.894379 Q 213.123156 7.791006 213.222034 7.757297 L 222.887416 4.498798 C 222.957081 4.474079 223.040229 4.554979 223.062701 4.671836 Q 223.11214 4.932516 224.127893 9.624754 Q 224.238008 10.137125 224.242502 10.150608 Q 224.500935 11.101191 224.835774 12.741677 Q 225.125668 14.152944 225.345897 15.018132 C 225.73467 16.541761 226.002092 18.099098 226.381875 19.651942 Q 226.606599 20.562074 226.72795 21.22501 Q 226.921213 22.276719 227.042564 22.798079 Q 227.604374 25.218357 227.844829 26.690299 Q 227.86056 26.775695 227.94146 26.96671 C 228.069553 27.26784 228.00663 27.652118 228.105509 27.910551 C 228.327986 28.492586 228.301019 29.070127 228.456078 29.804975 C 228.485293 29.939809 228.424617 30.074644 228.305513 30.135319 Q 228.289783 30.142061 228.233602 30.115094 C 228.193151 30.094869 228.148206 30.088127 228.103262 30.092622 Z" style="fill:#141414;"/>
		<path d="M 263.052348 23.308202 Q 263.598427 21.020511 264.465862 17.721562 C 264.553505 17.38897 264.65463 16.755249 264.807443 16.281081 Q 264.928794 15.905792 264.975986 15.712529 Q 266.097359 11.031527 266.708608 8.586529 Q 267.005244 7.397739 267.21199 6.128048 C 267.283902 5.69433 267.488401 5.366233 267.560313 5.008922 Q 267.634471 4.640374 267.99403 4.745995 C 269.268215 5.116789 270.477231 5.683094 271.74018 6.078608 Q 272.459297 6.303332 273.522242 6.750533 C 273.75146 6.847165 274.014388 6.838176 274.236864 6.934807 Q 275.654873 7.552798 277.185244 7.928087 C 277.272887 7.95056 277.329068 8.03146 277.322326 8.12135 Q 277.275134 8.64271 277.13131 9.029235 Q 274.830136 15.215889 273.146953 19.357553 Q 271.632313 23.087973 269.695191 27.326268 Q 269.688449 27.341999 269.621032 27.526273 Q 269.490692 27.885831 269.288441 28.18022 Q 269.119898 28.422922 268.821015 29.218445 C 268.625505 29.737558 268.234485 30.243187 268.043469 30.820728 C 267.913129 31.2095 267.60301 31.418494 267.522109 31.870189 C 267.49739 32.005023 267.362555 32.090419 267.229968 32.05671 C 266.789509 31.946595 266.472648 31.645465 266.009717 31.452202 Q 263.560224 30.429708 262.569191 30.121836 C 262.198396 30.007227 261.901761 29.742052 261.551191 29.746547 Q 261.216352 29.751041 261.312984 29.431933 Q 262.191655 26.497037 262.913019 23.593602 C 262.935491 23.503712 263.025381 23.425059 263.052348 23.308202 Z" style="fill:#141414;"/>
		<path d="M 246.497106 29.196737 C 240.845116 30.121836 235.501178 26.213884 234.561045 20.469128 C 233.620237 14.723743 237.438299 9.314635 243.08993 8.390255 C 248.74192 7.465156 254.085858 11.373107 255.025991 17.117863 C 255.966798 22.863249 252.148736 28.272357 246.497106 29.196737 Z" style="fill:#141414;"/>
		<path d="M 278.827977 39.454626 C 278.69539 39.349006 278.672917 39.155743 278.778538 39.023156 Q 279.115624 38.602922 279.461699 37.978189 Q 279.996542 37.023112 280.001037 37.011876 Q 282.942675 32.245478 283.688759 31.124105 Q 284.15169 30.422966 284.212366 30.303862 Q 284.351694 30.027452 284.578666 29.746547 Q 284.587655 29.733063 284.947213 29.182489 Q 288.237174 24.123951 288.475381 23.766639 Q 290.673182 20.469937 292.077708 18.433937 C 292.194564 18.267641 292.423783 18.233933 292.583337 18.357531 Q 295.826105 20.894666 299.713831 23.908215 Q 300.107099 24.21384 299.736304 24.699244 Q 292.684463 33.982595 290.852962 36.155677 Q 287.969752 39.578224 284.459562 43.600785 C 284.367425 43.706405 284.210118 43.719889 284.100004 43.634494 L 278.827977 39.454626 Z" style="fill:#141414;"/>
		<path d="M 190.27546 24.189121 Q 190.347372 24.114962 190.392317 24.063275 Q 190.637266 23.786864 193.127209 21.577827 Q 193.230582 21.487937 193.758683 21.087928 C 194.050825 20.867699 194.30701 20.577805 194.547465 20.373306 Q 195.383438 19.663178 196.62841 18.660909 Q 196.943023 18.409218 197.181231 18.73282 Q 203.060012 26.759964 206.691553 32.117385 Q 208.107315 34.207319 211.314127 39.178216 C 211.359072 39.250127 211.341094 39.344511 211.271429 39.393951 Q 208.541032 41.351297 206.084798 43.594043 C 205.958953 43.708653 205.763443 43.690675 205.662317 43.55584 Q 205.098259 42.814251 204.758926 42.416489 Q 197.032913 33.414043 190.0395 25.067792 Q 189.796798 24.777898 189.832754 24.656547 Q 189.875451 24.51497 190.109164 24.337438 Q 190.199054 24.270021 190.27546 24.189121 Z" style="fill:#141414;"/>
		<path d="M 212.02875 44.405297 Q 214.228798 42.634472 214.947915 42.160304 C 216.177156 41.346803 217.271562 40.50184 218.500802 39.827668 Q 218.752493 39.690586 221.240189 38.261341 Q 221.332326 38.209655 221.757054 38.027628 C 221.997509 37.926502 222.199761 37.739982 222.422237 37.634361 Q 225.793098 36.052304 226.927955 35.602856 Q 230.858379 34.047765 231.534798 33.915178 Q 232.932582 33.641015 233.415739 33.546631 Q 234.559584 33.328648 235.310162 33.357862 Q 239.534975 33.517416 241.784463 37.175924 C 242.094582 37.679306 242.146268 38.178193 242.409195 38.600675 Q 242.532794 38.800679 242.651897 39.400692 C 242.723809 39.760251 242.854149 40.119809 242.860891 40.508582 Q 242.885611 41.663664 242.883363 42.492895 Q 242.881116 43.54011 242.532794 44.425522 Q 241.822666 46.239046 240.429377 47.58739 Q 239.923747 48.077288 238.386635 49.137986 Q 237.683248 49.621143 234.862961 50.886339 Q 230.321288 52.924586 226.10097 55.621275 Q 225.17286 56.214547 224.642511 56.630286 C 223.975081 57.153893 223.415518 57.473001 222.734604 58.021328 Q 219.13003 60.922516 216.303001 64.021461 Q 213.287204 67.324904 212.464714 68.163125 Q 210.089381 70.58565 207.04437 72.284564 Q 204.563416 73.671112 201.990326 74.87788 Q 200.945359 75.367779 197.794727 76.722865 C 195.08905 77.884688 191.333911 79.336405 188.621491 80.592613 C 188.52486 80.637558 188.421487 80.552163 188.443959 80.44879 Q 188.67093 79.410564 188.978802 78.579085 Q 188.985544 78.561107 189.183301 77.86671 C 189.273191 77.556591 189.488926 77.235235 189.592299 76.868935 Q 189.821518 76.057681 190.201301 75.210472 C 190.529398 74.477871 190.785584 73.587964 191.055253 73.06211 Q 191.309191 72.563222 191.459756 72.131752 C 191.787853 71.201394 192.268763 70.444074 192.57214 69.603606 Q 192.738436 69.142922 193.06878 68.617068 Q 193.084511 68.592348 193.560926 67.62154 Q 197.19022 60.212388 202.289209 54.160569 Q 203.044281 53.26392 203.803849 52.365023 Q 207.338758 48.180661 212.02875 44.405297 Z" style="fill:#141414;"/>
		<path d="M 258.249995 33.917425 C 258.50618 34.103946 258.818547 34.011809 259.083721 34.13316 Q 259.659015 34.396087 260.730948 34.717443 Q 261.348939 34.903964 262.373681 35.310714 Q 265.540043 36.571416 268.382803 38.050101 C 268.836745 38.286061 269.66373 38.850118 270.234529 39.122034 Q 270.706449 39.344511 270.967129 39.506313 Q 275.200931 42.122101 276.209942 42.973805 Q 277.007712 43.64573 277.836944 44.274957 Q 278.843708 45.039019 279.436979 45.562626 Q 281.279717 47.180639 281.904449 47.749191 Q 283.812357 49.488555 286.171959 52.178503 Q 289.560798 56.048251 292.349624 60.376436 Q 294.165394 63.194476 294.929456 64.641699 C 295.111483 64.987774 295.208114 65.268679 295.381151 65.491156 C 295.84633 66.093416 296.005884 66.767589 296.410388 67.381085 C 296.826127 68.008065 297.035121 68.675496 297.466591 69.408096 C 297.725023 69.850803 297.889072 70.502503 298.178966 70.983412 C 298.507063 71.52275 298.675606 72.291306 299.03067 72.895814 C 299.235169 73.248631 299.280114 73.576728 299.410454 73.891341 Q 300.907116 77.444229 301.82399 80.812843 C 301.864441 80.96116 301.71837 81.089253 301.576794 81.030825 Q 296.255328 78.801562 291.592304 76.754326 Q 290.693408 76.361059 288.259646 75.205977 Q 283.998878 73.183461 279.877438 70.498008 Q 279.508891 70.255306 278.081893 69.019324 Q 277.182997 68.241778 276.533544 67.549628 C 272.787394 63.556282 268.717641 59.196635 264.310803 56.194322 Q 261.074776 53.987531 258.703937 52.816719 Q 255.620723 51.290842 253.337527 50.241381 Q 251.139725 49.230123 249.454295 47.771664 Q 247.30818 45.915443 246.753112 43.191787 Q 246.52614 42.088392 246.70592 40.189474 Q 246.766595 39.560246 247.272224 38.200666 Q 247.669986 37.130979 248.252021 36.400626 Q 250.912754 33.081452 255.409483 33.378087 C 255.760052 33.40056 256.067924 33.582586 256.449955 33.57135 Q 256.699399 33.562361 256.876931 33.623037 Q 257.452224 33.814052 258.045496 33.845514 C 258.119655 33.847761 258.189319 33.87248 258.249995 33.917425 Z" style="fill:#141414;"/>
		<path d="M 292.745138 51.198706 Q 292.778847 51.16275 292.924917 51.041399 Q 297.583447 47.097491 305.322944 41.468154 Q 307.221862 40.086101 309.147748 38.722026 Q 309.727536 38.313028 309.819672 38.259094 C 310.435416 37.90403 310.938798 37.384917 311.541059 37.038842 C 311.765783 36.91075 312.05343 36.99165 312.174781 37.220869 L 315.783849 43.998547 C 315.909695 44.234507 315.754635 44.524401 315.489461 44.549121 Q 315.204061 44.576087 314.918661 44.771597 Q 310.210692 48.014366 306.54769 50.335765 C 306.295999 50.495319 306.071275 50.697571 305.844304 50.821169 C 304.691469 51.448149 303.680211 52.218953 302.554344 52.825708 Q 302.419509 52.89762 301.657695 53.360551 Q 300.516096 54.054948 295.87105 56.625792 Q 295.549695 56.803324 295.394635 56.762873 Q 295.151933 56.697703 295.127213 56.340392 Q 295.120472 56.22803 295.066538 56.129152 Q 294.401355 54.870697 292.363107 51.825686 Q 292.156361 51.515567 292.567606 51.324551 Q 292.670979 51.277359 292.745138 51.198706 Z" style="fill:#141414;"/>
		<path d="M 197.639668 52.138052 C 197.486855 52.338057 197.459889 52.454913 197.352021 52.603231 Q 195.799178 54.724626 194.758705 56.580847 Q 194.509262 57.028048 194.077791 56.760626 Q 193.924979 56.663995 193.909248 56.655006 Q 188.686661 53.749324 181.158405 49.551478 Q 178.014515 47.800878 174.261624 45.29071 Q 173.924537 45.065986 174.093081 44.697438 C 174.535787 43.717642 175.275129 42.535593 175.583001 41.847937 Q 175.729072 41.526582 175.884131 41.317589 C 176.068405 41.070392 176.084136 40.80297 176.205487 40.562516 Q 177.030224 38.928772 177.79878 37.288286 C 177.877434 37.12199 178.072944 37.045584 178.241487 37.117496 Q 178.845994 37.375929 179.475222 37.881558 Q 180.212317 38.474829 180.884242 38.915288 Q 181.682012 39.436648 182.302251 39.917558 Q 184.421398 41.562538 186.192224 42.895151 C 186.857407 43.396286 187.684392 44.14237 188.592277 44.841262 Q 190.62603 46.403094 192.632816 48.021107 C 193.574409 48.780675 194.82837 49.636873 195.913787 50.529028 Q 196.671107 51.153761 197.572251 51.742538 C 197.704838 51.83018 197.736299 52.012207 197.639668 52.138052 Z" style="fill:#141414;"/>
		<path d="M 172.293041 91.90747 Q 172.263827 91.810838 172.191915 91.716454 Q 172.122251 91.626564 172.095284 91.51645 L 171.742467 90.10743 C 171.686286 89.884953 171.816626 89.655734 172.036855 89.590564 C 172.218882 89.536631 172.4481 89.505169 172.636869 89.410785 Q 173.935774 88.743355 175.335805 88.309637 Q 175.753791 88.179297 176.133575 87.986035 C 176.502122 87.799514 176.875164 87.74558 177.227981 87.617487 Q 180.344904 86.464653 183.549469 85.496092 Q 183.603403 85.480361 184.333756 85.208445 C 184.68882 85.075858 185.093323 85.021924 185.414679 84.923046 Q 188.338339 84.037633 191.509195 82.961205 Q 193.662052 82.230851 195.7812 81.406114 Q 199.949831 79.788101 203.446538 78.057726 C 204.13644 77.716145 205.165677 77.140851 205.947716 76.747584 Q 207.588202 75.922847 210.305116 74.143032 Q 213.711933 71.911522 217.183919 68.666507 Q 221.518847 64.614732 224.096432 62.659633 Q 224.498688 62.354008 226.116701 61.248366 Q 228.145959 59.864065 230.249376 58.947191 C 230.705566 58.749434 231.213443 58.702242 231.667385 58.486507 Q 231.916829 58.367403 232.240432 58.322458 C 233.09663 58.207849 233.458436 58.111218 234.170811 58.142679 Q 236.647271 58.252794 238.487761 59.675297 Q 239.137213 60.174185 239.793407 60.958472 Q 240.584436 61.90456 240.876577 62.412436 Q 241.02939 62.684352 241.741765 64.342816 C 242.033906 65.025977 242.12829 65.749589 242.339531 66.394547 Q 242.611447 67.221531 242.627178 67.738397 C 242.642909 68.304701 242.836171 68.850781 242.851902 69.558661 Q 242.867633 70.338454 242.86988 71.163191 C 242.86988 71.230609 242.815946 71.289037 242.748529 71.293531 Q 241.620414 71.381174 240.31252 71.796913 C 236.042763 73.158741 232.46965 76.010489 230.485337 80.120692 Q 230.435897 80.221818 230.332524 80.264516 Q 226.465023 81.884776 223.015509 84.385955 Q 220.152524 86.462405 217.109761 89.204039 Q 215.305226 90.828794 214.289474 91.783871 Q 207.379209 98.282891 200.392538 105.696538 Q 197.599217 108.662896 194.178917 112.289942 Q 191.313685 115.330459 186.877632 120.249668 C 186.697853 120.449673 186.374251 120.415964 186.241663 120.182251 C 185.527041 118.921549 184.410162 117.460843 183.792171 116.514754 Q 181.237058 112.588825 179.385332 109.067399 Q 178.378568 107.15275 177.268432 104.81562 Q 174.178476 98.300869 172.293041 91.90747 Z" style="fill:#141414;"/>
		<path d="M 317.051293 92.988392 C 316.992865 93.150194 317.006348 93.354692 316.920953 93.525483 Q 316.844547 93.676048 316.826569 93.729982 Q 315.489461 97.945805 313.595037 102.316688 Q 313.590542 102.327924 313.291659 102.945915 Q 313.084913 103.368397 312.89165 103.871779 Q 312.399505 105.150458 310.22867 109.249425 Q 307.810639 113.815818 306.179143 116.14396 Q 303.480207 119.991236 303.293686 120.267646 Q 303.228516 120.36203 303.113906 120.357536 C 302.749853 120.344052 302.635244 119.959774 302.473443 119.777748 Q 290.623743 106.494308 278.165041 94.249094 Q 274.333496 90.482719 270.22554 87.024216 Q 269.335633 86.275884 266.798498 84.469103 Q 263.814162 82.345461 260.63207 80.806101 C 260.250039 80.621827 259.420807 80.52969 259.180352 79.956644 C 257.306154 75.509355 252.247615 72.131752 247.54414 71.304767 Q 247.303686 71.26207 247.299191 71.019368 Q 247.265482 69.199103 247.472229 67.756375 Q 247.607063 66.82377 247.798079 66.243982 C 248.020555 65.572057 248.022803 64.969796 248.332922 64.250679 C 248.636299 63.545046 249.011588 62.576485 249.452048 61.895571 Q 250.555443 60.187668 252.317279 59.115734 Q 252.692569 58.886516 253.357752 58.699995 C 253.83192 58.56516 254.346538 58.290997 254.802728 58.313469 C 255.663421 58.358414 256.827491 58.214591 257.892683 58.515721 Q 259.283725 58.911235 259.924189 59.180904 C 262.922008 60.45509 265.411951 62.412436 268.207518 64.776533 C 270.715438 66.897929 273.522242 69.704732 275.940273 71.671068 Q 278.122343 73.444141 281.214547 75.383509 Q 283.252794 76.659942 283.812357 76.904891 Q 283.926966 76.95433 284.938224 77.527377 C 285.475315 77.830754 286.014653 77.981319 286.522529 78.329642 C 287.005686 78.664481 287.787725 78.90943 288.423695 79.23528 Q 289.751814 79.913946 293.091213 81.327461 Q 293.120427 81.338697 294.00584 81.646569 C 294.484502 81.812865 294.78788 82.055567 295.190136 82.163434 Q 295.707001 82.30501 297.219394 82.871315 Q 299.073368 83.56796 303.19256 84.936529 Q 303.248741 84.954507 303.803809 85.078105 C 304.102692 85.143275 304.3409 85.298335 304.592591 85.363505 Q 306.704997 85.92082 313.752344 88.52762 Q 315.161363 89.048979 315.163611 89.051227 Q 315.487213 89.266962 316.460269 89.54562 Q 316.98837 89.698432 317.655801 90.001809 Q 317.756926 90.046754 317.743443 90.159116 Q 317.592878 91.51645 317.051293 92.988392 Z" style="fill:#141414;"/>
		<path d="M 180.360635 65.502392 Q 180.585359 65.527112 180.926939 65.628238 Q 182.585403 66.124878 185.70682 67.068719 C 186.176493 67.210295 186.576502 67.45075 186.92033 67.484458 Q 186.976511 67.488953 187.291125 67.59682 Q 187.956308 67.823792 189.030489 68.014807 C 189.223752 68.048516 189.342855 68.244026 189.286674 68.432794 C 189.149593 68.895726 189.082175 69.273262 188.927116 69.641809 Q 188.207999 71.340723 187.763045 73.680101 Q 187.74282 73.787968 187.632705 73.796957 C 186.641672 73.893589 185.668617 73.693584 184.780957 73.603695 Q 184.405668 73.565492 181.78988 73.284586 Q 181.612348 73.266609 178.261712 72.956489 Q 178.050471 72.938511 176.76505 72.781205 C 176.090877 72.700304 175.365019 72.71154 174.756017 72.641876 Q 171.964944 72.331756 169.423315 72.208158 C 169.036789 72.19018 168.724423 72.017143 168.367111 72.017143 Q 167.955866 72.01939 168.005306 71.610392 L 169.050273 62.810198 Q 169.090723 62.475359 169.412078 62.578732 Q 171.47954 63.243915 173.050361 63.569765 Q 173.126767 63.585496 173.338008 63.637182 Q 177.657204 64.711363 178.668462 65.016988 Q 179.567359 65.291152 179.866242 65.288904 Q 179.98984 65.286657 180.068493 65.338344 Q 180.097707 65.356322 180.169619 65.419244 Q 180.252767 65.491156 180.360635 65.502392 Z" style="fill:#141414;"/>
		<path d="M 312.586026 64.740578 C 313.168061 64.425964 313.986057 64.324838 314.426516 64.192251 C 315.154622 63.972021 315.714185 63.774264 316.449032 63.616957 Q 317.846816 63.320322 319.361456 62.823681 Q 319.826635 62.668622 320.417659 62.580979 Q 320.554741 62.560754 320.577213 62.697836 L 322.035673 71.812644 Q 322.100842 72.223889 321.685103 72.221642 C 320.249116 72.2149 319.017628 72.421646 317.676026 72.486816 Q 316.734432 72.531761 316.440043 72.590189 C 315.64452 72.747496 314.880458 72.632887 314.046732 72.848622 C 313.518631 72.985703 313.02199 72.8666 312.491642 73.035143 C 312.001743 73.190202 311.064644 73.16773 310.55452 73.230653 Q 308.343235 73.507063 306.35218 73.617178 Q 306.035319 73.635156 305.522948 73.738529 C 304.911699 73.864375 304.394834 73.796957 303.810551 73.947522 Q 303.538635 74.017187 302.927385 74.039659 C 302.806035 74.044154 302.698167 73.9655 302.666706 73.850891 Q 301.945341 71.239597 300.803743 68.410322 C 300.731831 68.230542 300.835204 68.028291 301.021725 67.978851 Q 302.158829 67.682216 304.518432 66.978829 Q 304.538657 66.972088 305.698233 66.661968 Q 306.237571 66.515898 306.511734 66.401288 C 307.179165 66.120383 307.923001 66.052966 308.612904 65.825995 Q 309.448878 65.551831 309.882595 65.439469 Q 310.965765 65.160812 311.516339 64.963054 C 311.880392 64.830467 312.323099 64.882154 312.586026 64.740578 Z" style="fill:#141414;"/>
		<path d="M 219.424418 147.297456 C 219.112052 147.430044 218.732268 147.169364 218.291809 147.016551 Q 217.822136 146.852503 217.503028 146.670476 C 216.862564 146.304176 216.132211 146.081699 215.471522 145.717646 C 214.777125 145.333368 214.195089 145.155836 213.547884 144.746838 C 213.116414 144.474922 212.536626 144.270423 212.111897 144.023227 Q 210.419725 143.036688 208.293836 141.749019 Q 207.783712 141.4389 206.869085 140.81192 Q 205.902772 140.148984 205.471301 139.845606 Q 202.851019 138.000622 199.65769 135.310675 Q 196.477844 132.629717 193.300246 129.202675 Q 192.787875 128.649854 192.691244 128.371196 Q 192.655288 128.261081 192.724953 128.168944 Q 193.911496 126.616101 194.093522 126.362163 Q 198.455416 120.3463 203.221813 114.087734 Q 206.06682 110.352821 210.021964 105.611143 Q 214.156886 100.649236 218.296304 95.84913 Q 222.808763 90.617553 226.999867 86.1815 Q 228.078542 85.037655 228.914516 84.439889 Q 229.22014 84.219659 229.11452 84.594949 C 229.038114 84.866865 228.914516 85.048891 228.910021 85.444405 C 228.892043 87.900639 229.238118 90.583845 230.283085 92.896255 C 231.561765 95.725531 233.305624 98.170529 235.818039 100.015514 C 236.184339 100.285183 236.901209 100.635752 237.341668 101.064975 C 237.420321 101.141381 237.404591 101.271721 237.307959 101.327902 Q 235.667474 102.260507 234.460705 103.581885 Q 232.411222 105.824631 230.748264 109.031443 Q 228.062811 114.209085 225.856021 120.056406 C 225.752648 120.332816 225.552644 121.092383 225.348145 121.485651 Q 225.170613 121.824984 225.089712 122.108136 Q 224.705434 123.442997 224.235761 124.586843 C 224.161602 124.764375 224.159354 125.004829 224.091937 125.213823 Q 223.46271 127.14645 223.305403 127.701518 Q 221.127827 135.391576 220.197469 141.355752 Q 220.136794 141.735536 220.136794 141.74003 C 220.105332 142.193973 219.871619 142.495103 219.914317 142.989496 C 219.936789 143.236693 219.73229 143.423214 219.725549 143.69513 Q 219.709818 144.225478 219.500825 146.016529 Q 219.417677 146.753624 219.489588 147.1806 C 219.498577 147.230039 219.469363 147.279478 219.424418 147.297456 Z" style="fill:#141414;"/>
		<path d="M 253.007182 100.696428 Q 254.481372 99.602021 254.863403 99.267183 Q 261.40512 93.529977 260.76241 84.662366 C 260.751173 84.514048 260.915222 84.419664 261.03882 84.502812 Q 262.157946 85.262379 263.171452 86.320829 Q 268.043469 91.417571 269.252485 92.806366 Q 271.133425 94.972706 273.333474 97.491862 C 274.603165 98.948074 276.356012 101.114414 277.854922 102.824564 Q 278.886405 103.999871 279.684176 104.975174 Q 280.938136 106.505545 283.203355 109.215717 Q 286.075328 112.651748 290.383288 118.247377 Q 296.707023 126.456547 297.794688 127.849836 C 297.922781 128.013885 297.909297 128.24535 297.763227 128.393668 Q 295.210361 131.000467 292.529403 133.452207 C 291.248476 134.627514 289.39675 136.099456 288.261893 137.014083 C 286.405672 138.508498 284.425853 139.960216 282.392101 141.236648 Q 280.243739 142.584993 279.632489 142.919832 Q 279.463946 143.014216 279.180794 143.180512 Q 275.252617 145.48618 270.416555 147.510944 Q 269.881712 147.735668 269.841262 147.158127 C 269.791822 146.490697 269.848004 145.74686 269.674966 145.187297 C 269.553615 144.798525 269.59856 144.400763 269.526648 143.967046 Q 268.843487 139.870326 268.396286 137.591624 Q 268.367072 137.436565 268.355836 137.382631 Q 267.706383 133.796035 267.115359 131.177999 Q 265.063628 122.103642 261.530966 113.898966 Q 260.645553 111.844988 259.011809 108.781999 Q 256.663443 104.386397 252.611668 101.469478 C 252.542003 101.417792 252.494811 101.339138 252.483575 101.251496 Q 252.447619 100.988569 252.688074 100.864971 Q 252.989204 100.709911 253.007182 100.696428 Z" style="fill:#141414;"/>
		<path d="M 262.346714 149.54245 Q 262.409637 149.785152 262.355703 150.045832 Q 262.330984 150.155946 262.220869 150.180666 Q 261.883783 150.257072 258.052237 151.14698 C 257.092666 151.369456 256.146577 151.511033 255.052171 151.711037 Q 254.557778 151.803174 254.310582 151.796432 C 253.735288 151.778454 253.270109 151.989695 252.670096 152.052618 C 252.254357 152.095315 251.86109 152.194194 251.474564 152.212172 Q 249.458789 152.306556 248.443037 152.389704 C 246.496926 152.549258 245.087906 152.477346 242.672123 152.486335 C 241.481085 152.490829 240.299037 152.299814 239.161933 152.257116 Q 238.415849 152.23015 237.157394 152.061607 Q 234.820264 151.74924 232.687633 151.373951 C 232.447178 151.331253 231.959527 151.369456 231.620193 151.207655 Q 231.32131 151.063832 231.179734 151.03237 Q 229.233624 150.585169 228.680803 150.484044 C 227.995394 150.360445 227.480776 149.951448 226.788626 149.978414 C 226.689747 149.982909 226.611094 149.893019 226.629072 149.794141 Q 227.112229 147.153633 227.777412 143.872662 Q 227.923482 143.151297 228.00663 142.87264 Q 228.166184 142.346785 228.235849 141.872618 C 228.415628 140.661355 228.820131 139.373686 229.078564 138.21411 C 229.289805 137.259033 229.487562 136.207324 229.772961 135.342136 C 229.981955 134.706167 230.062856 134.049973 230.231399 133.411757 Q 232.177509 126.007099 232.366277 125.263262 Q 232.399986 125.132922 232.474145 124.993593 Q 232.557293 124.840781 232.579765 124.723924 Q 232.764039 123.780083 233.024719 122.921637 Q 233.067416 122.777814 233.215734 122.069933 C 233.296635 121.681161 233.503381 121.312613 233.591023 120.94856 C 233.961818 119.382233 234.209014 118.640644 234.478683 117.541743 C 234.87195 115.950697 235.314657 114.400101 235.748374 112.63377 Q 235.892198 112.051734 236.278723 110.647209 C 236.503447 109.835955 236.705699 108.777505 236.97312 107.993218 Q 237.352904 106.869598 237.712463 105.570692 C 237.768644 105.370688 237.952917 105.211134 238.013593 105.053827 Q 238.445063 103.900993 239.238339 102.572874 C 239.51475 102.112189 239.683293 101.999827 240.236114 102.186348 Q 240.61365 102.312194 241.256361 102.541412 Q 241.856374 102.7549 242.305822 102.808834 Q 243.357531 102.936926 243.811474 102.970635 Q 246.773337 103.204348 249.714975 102.134662 Q 250.074533 102.004322 250.357686 102.487478 Q 251.231862 103.988635 251.672321 105.047085 Q 251.852101 105.478556 252.402675 107.289832 Q 252.613915 107.984229 252.95999 109.57977 C 253.207187 110.723615 253.553262 111.860719 253.771244 113.015801 C 253.993721 114.18886 254.39373 115.368662 254.595981 116.449584 C 254.807222 117.564216 255.15105 118.463112 255.456675 119.764264 Q 255.787019 121.180026 256.029721 122.00701 C 256.308379 122.95984 256.447708 123.827275 256.766816 125.004829 Q 258.674723 132.01622 259.063496 133.888172 C 259.357884 135.310675 259.611822 136.106198 259.935425 137.730953 Q 260.139924 138.764684 260.353412 139.620882 Q 260.643306 140.793942 260.951178 142.625443 Q 261.047809 143.191748 261.214105 143.874909 C 261.441076 144.798525 261.517483 145.515395 261.717487 146.414291 Q 261.946705 147.450269 261.930975 147.710949 Q 261.912997 147.996348 262.068056 148.340176 Q 262.137721 148.495236 262.202891 148.971651 Q 262.209633 149.02109 262.346714 149.54245 Z" style="fill:#141414;"/>
	</g>
	<g id="surface4">
	</g>
</svg>
