<?xml version="1.0" encoding="utf-8"?>
<svg xmlns="http://www.w3.org/2000/svg" width="490pt" height="280pt" viewBox="0 0 490 280" version="1.1" xmlns:xlink="http://www.w3.org/1999/xlink">
	<g id="surface2" data-size="141.84905914113 148" data-bboxpos="174 50.569007681432" data-pivot="244.92452957057 124.56900768143" data-center="244.92452957057 124.56900768143">
		<path vector-effect="non-scaling-stroke" d="M 258.107006 157.168852 Q 257.001306 152.001305 256.713459 146.858886 C 256.699752 146.603022 256.779709 146.351727 256.941909 146.152975 C 259.978015 142.426949 262.241958 137.821389 262.655453 133.00794 C 262.879335 130.373907 263.073518 127.253274 266.420316 127.493147 Q 269.262238 127.698753 270.436473 127.73302 Q 272.209248 127.785564 273.223568 126.647881 C 274.505175 125.210928 275.757083 122.741379 275.805057 120.680757 C 275.809626 120.392909 275.640573 120.130191 275.377855 120.015966 Q 271.523897 118.357417 267.683646 116.911326 Q 267.06683 116.678306 266.667042 116.162008 Q 265.702981 114.907816 264.6978 114.204189 C 262.550366 112.700985 259.557666 112.264645 257.264024 113.719874 Q 254.812752 115.271052 253.695629 117.916507 Q 253.003425 119.556781 252.359195 121.498609 Q 251.890871 122.912717 250.522453 123.710009 Q 248.269933 125.021314 246.284699 125.928262 C 242.908202 127.468018 238.882906 128.05742 235.248261 128.004876 C 231.437708 127.952333 227.853322 127.897505 224.497386 129.608598 Q 220.319028 131.737755 218.550822 135.932105 C 218.004826 137.229703 217.771806 138.863123 217.385725 140.092186 C 217.301199 140.366327 217.033912 140.521673 216.805461 140.432577 Q 216.650115 140.37318 216.481062 140.105893 C 216.069851 139.454809 215.583252 138.527301 215.485018 137.599792 C 215.192602 134.842396 215.823125 132.585306 217.938575 130.823954 Q 218.9963 129.946704 219.338976 129.663426 C 219.524021 129.510364 219.50346 129.222517 219.297855 129.099154 C 217.552494 128.048282 215.24743 128.843289 214.059488 130.273389 Q 212.576845 132.059871 212.389515 134.035966 Q 211.708733 141.159049 217.835772 144.403045 C 217.924868 144.451019 217.981981 144.544684 217.979696 144.645202 Q 217.87004 148.958345 216.899126 153.189247" style="fill:none;stroke-width:0.50;stroke:#8abcb9;"/>
		<path vector-effect="non-scaling-stroke" d="M 247.93868 156.906134 L 248.082603 149.824172 C 248.084888 149.714516 248.002646 149.620852 247.892989 149.609429 Q 240.146237 148.782439 232.287544 147.430012 C 232.061378 147.391176 231.830643 147.480271 231.686719 147.660747 L 226.955512 153.61188" style="fill:none;stroke-width:0.50;stroke:#8abcb9;"/>
		<path vector-effect="non-scaling-stroke" d="M 205.282424 110.359369 C 205.284708 110.325101 205.309838 110.295402 205.344105 110.288549 C 205.380658 110.28398 205.412641 110.30454 205.424063 110.338808 Q 206.047733 112.28749 206.906706 114.124231 C 209.734922 120.157606 214.509535 123.858502 220.853602 125.766062 Q 220.970112 125.80033 221.417874 125.98309 Q 221.810809 126.140721 222.002707 126.079039 Q 226.921244 124.516439 231.186413 124.30398 Q 235.700592 124.077814 238.848639 123.817381 C 241.855046 123.56837 245.062489 122.777931 247.637125 120.943475 C 249.999302 119.257511 250.967932 116.317355 252.832087 114.17449 Q 255.372455 111.259463 259.130464 110.172039 C 259.304086 110.12178 259.427449 109.966434 259.438872 109.785958 Q 259.601072 107.295849 260.201896 104.609272 Q 261.721091 97.817442 265.08845 91.77493 C 265.152416 91.660705 265.312331 91.644713 265.396858 91.747516 Q 266.5848 93.195891 268.129125 94.703664 C 269.844787 96.378205 272.636451 97.579854 275.119706 98.706114 C 276.878774 99.503406 278.16495 101.500063 279.295779 102.900464 C 280.225572 104.051853 282.032615 105.043328 283.5975 105.075311 C 285.872866 105.12557 287.76672 103.944482 288.918109 102.018645 C 290.192863 99.882634 290.585797 97.189204 289.137422 95.055477 Q 288.321854 93.853828 287.14305 92.142735 C 285.226351 89.364778 283.928753 86.177895 282.53749 82.522689 C 281.130236 78.828647 278.932543 75.404175 275.95355 72.808979 C 275.843894 72.715314 275.821049 72.555399 275.898722 72.43432 C 277.31283 70.20236 278.304305 67.538629 278.217493 64.874897 C 278.212924 64.719551 278.053009 64.616748 277.909085 64.676145 Q 273.680469 66.444351 270.870529 69.39593 C 270.792856 69.475888 270.685484 69.514724 270.575828 69.505586 C 264.953664 68.939029 258.911152 69.784296 253.707052 71.632459 Q 249.70917 73.053421 247.792471 73.987783 Q 245.528528 75.091198 243.972781 75.909051 Q 241.5375 77.186088 240.137099 77.642989 Q 237.868587 78.378599 236.061544 78.707568 C 235.85137 78.746404 235.807964 79.027398 235.997578 79.125632 Q 236.381375 79.322099 236.701205 79.411195 Q 238.750405 79.975467 240.625983 80.059994 C 240.715078 80.064563 240.735639 80.185642 240.653397 80.219909 Q 239.71675 80.601422 239.031399 80.989787 Q 236.634955 82.349067 233.525745 84.784348 Q 231.919739 86.04311 230.103558 86.209878 Q 227.885305 86.413199 225.315238 86.056817 Q 220.963258 85.451423 218.877506 85.179567 C 211.727009 84.245205 203.680987 85.344052 197.942313 90.093535 Q 192.580583 94.530041 191.273846 101.365277 C 190.549659 105.162122 190.922033 108.947545 191.765015 112.465681 Q 193.012354 117.681203 193.398435 119.401435 Q 193.976414 121.964648 194.09064 123.449576 Q 194.18202 124.605535 193.980983 125.306877 Q 193.761671 126.081324 192.975802 128.882126 Q 190.7941 136.672284 190.922033 144.825678 Q 190.944878 146.331166 191.123069 147.571652 C 191.129923 147.621911 191.173328 147.658463 191.223587 147.658463 C 191.273846 147.658463 191.317252 147.621911 191.324105 147.571652 Q 192.502909 139.644423 197.135883 133.154148 Q 198.079383 131.83142 200.140006 129.023765 C 202.173214 126.252662 203.770082 123.077201 204.530822 119.595618 C 205.220742 116.443002 205.159061 113.779271 205.282424 110.359369" style="fill:none;stroke-width:0.50;stroke:#8ac3e1;"/>
		<path vector-effect="non-scaling-stroke" d="M 276.394756 81.18493 C 276.063206 81.606603 276.255105 82.312515 276.825225 82.76206 C 277.395072 83.210325 278.126113 83.230885 278.459354 82.809577 C 278.790904 82.387904 278.599006 81.681992 278.028885 81.232447 C 277.459038 80.784182 276.727997 80.763621 276.394756 81.18493" style="fill:none;stroke-width:0.50;stroke:#8ac3e1;"/>
		<path d="M 258.107006 157.168852 Q 257.001306 152.001305 256.713459 146.858886 C 256.699752 146.603022 256.779709 146.351727 256.941909 146.152975 C 259.978015 142.426949 262.241958 137.821389 262.655453 133.00794 C 262.879335 130.373907 263.073518 127.253274 266.420316 127.493147 Q 269.262238 127.698753 270.436473 127.73302 Q 272.209248 127.785564 273.223568 126.647881 C 274.505175 125.210928 275.757083 122.741379 275.805057 120.680757 C 275.809626 120.392909 275.640573 120.130191 275.377855 120.015966 Q 271.523897 118.357417 267.683646 116.911326 Q 267.06683 116.678306 266.667042 116.162008 Q 265.702981 114.907816 264.6978 114.204189 C 262.550366 112.700985 259.557666 112.264645 257.264024 113.719874 Q 254.812752 115.271052 253.695629 117.916507 Q 253.003425 119.556781 252.359195 121.498609 Q 251.890871 122.912717 250.522453 123.710009 Q 248.269933 125.021314 246.284699 125.928262 C 242.908202 127.468018 238.882906 128.05742 235.248261 128.004876 C 231.437708 127.952333 227.853322 127.897505 224.497386 129.608598 Q 220.319028 131.737755 218.550822 135.932105 C 218.004826 137.229703 217.771806 138.863123 217.385725 140.092186 C 217.301199 140.366327 217.033912 140.521673 216.805461 140.432577 Q 216.650115 140.37318 216.481062 140.105893 C 216.069851 139.454809 215.583252 138.527301 215.485018 137.599792 C 215.192602 134.842396 215.823125 132.585306 217.938575 130.823954 Q 218.9963 129.946704 219.338976 129.663426 C 219.524021 129.510364 219.50346 129.222517 219.297855 129.099154 C 217.552494 128.048282 215.24743 128.843289 214.059488 130.273389 Q 212.576845 132.059871 212.389515 134.035966 Q 211.708733 141.159049 217.835772 144.403045 C 217.924868 144.451019 217.981981 144.544684 217.979696 144.645202 Q 217.87004 148.958345 216.899126 153.189247 Q 209.522463 153.020193 202.200628 154.059643 Q 201.261697 154.192144 200.754537 154.324645 C 200.119445 154.491414 199.594009 154.50969 198.821847 154.678743 Q 196.859458 155.103661 195.618973 155.405215 C 195.075261 155.537717 194.675473 155.718192 194.028958 155.880392 Q 189.884868 156.926695 185.082841 159.316286 C 184.290118 159.711505 184.093651 159.211199 183.718992 158.555546 Q 178.121958 148.727611 175.709522 137.720871 Q 175.449088 136.526076 174.699771 132.105561 C 174.644943 131.776592 174.647227 131.184906 174.576408 130.741712 Q 174.256577 128.710788 174.22231 127.41319 C 174.169766 125.370843 173.909333 122.956123 174.032696 120.897785 C 174.133214 119.195829 174.160628 117.34995 174.352526 115.851316 Q 174.560416 114.213327 174.628951 113.404612 C 174.738608 112.132144 174.992187 110.955624 175.197793 109.59406 Q 175.547322 107.279857 176.49996 103.768575 Q 180.518402 88.94443 190.206983 77.277468 Q 193.750248 73.0123 198.207315 69.062393 Q 207.178562 61.10775 217.977412 56.451931 Q 222.409349 54.542086 227.668277 53.082288 Q 229.109799 52.6825 230.137826 52.470041 Q 230.740935 52.344394 232.627935 51.930898 Q 233.681091 51.702448 234.469245 51.624775 C 235.312227 51.542533 236.127795 51.288953 236.925087 51.234125 C 238.398592 51.129037 240.290161 50.742956 241.887029 50.747525 C 242.901349 50.752094 243.984203 50.599033 245.076196 50.585326 Q 248.443555 50.539635 249.345934 50.621878 C 250.819439 50.756663 252.000527 50.731534 253.378083 50.907441 Q 254.812752 51.090201 256.208583 51.263823 Q 264.588144 52.31241 273.059084 55.79171 Q 279.622463 58.487424 285.452517 62.535565 Q 294.256995 68.648897 300.74727 76.991905 Q 301.551416 78.026786 303.267078 80.46892 Q 304.539547 82.285101 305.590418 84.069298 Q 309.051442 89.942758 311.404481 96.261695 C 312.46906 99.121894 313.362301 102.297355 314.001962 105.194105 Q 314.26468 106.377478 314.33093 106.560239 C 314.392612 106.724723 314.426879 106.898345 314.436017 107.071968 Q 314.486276 107.905811 314.796969 108.947545 C 314.849513 109.118883 314.879211 109.297074 314.886065 109.475266 C 314.950031 110.807131 315.377233 112.186972 315.381802 113.448018 C 315.386371 114.825574 315.813573 116.708005 315.829565 118.284312 Q 315.866117 122.003485 315.834134 125.014461 Q 315.820427 126.211541 315.669649 127.511423 Q 315.393224 129.930713 315.39094 130.006102 C 315.36581 131.130077 314.936324 132.459659 314.899772 133.706998 C 314.895203 133.848637 314.872358 133.990276 314.833521 134.127347 Q 314.554812 135.10283 314.479423 135.845293 C 314.406319 136.583188 314.054505 137.302807 313.995108 138.100099 C 313.983686 138.250876 313.949418 138.401653 313.896874 138.545577 C 313.609027 139.322308 313.574759 140.005375 313.318895 140.688442 Q 313.065315 141.357801 313.069884 141.70733 C 313.069884 141.780434 313.056177 141.851254 313.026478 141.91522 Q 312.85971 142.303586 312.4188 143.747392 Q 312.05328 144.937619 311.813407 145.574995 Q 309.956105 150.509524 307.644187 155.009996 C 306.983966 156.293887 305.981069 157.874764 305.247743 159.339131 C 305.213475 159.405382 305.156363 159.457925 305.085543 159.48077 Q 304.635496 159.633832 304.331657 159.473917 Q 301.069385 157.765108 297.503275 156.590873 Q 293.094182 155.142497 290.923904 154.73814 Q 289.60803 154.493698 289.576047 154.489129 Q 288.854143 154.422879 288.219051 154.27667 Q 287.641072 154.144169 286.215541 154.00253 C 283.241117 153.70326 280.282685 153.536491 277.687489 153.79464 Q 275.60859 154.004814 275.375571 154.020806 C 274.000299 154.123609 272.871754 154.413741 271.491914 154.594216 C 271.389111 154.607923 271.288593 154.633053 271.19036 154.669605 C 270.466172 154.932323 269.744269 154.916331 268.992667 155.101376 Q 267.877829 155.375517 266.799543 155.645088 Q 266.068502 155.830133 265.431125 155.910091 C 264.766335 155.994617 264.204347 156.236775 263.608091 156.303025 Q 262.849636 156.387552 261.938119 156.67083 C 261.858161 156.69596 261.773635 156.714236 261.689108 156.725659 L 258.107006 157.168852 Z M 205.282424 110.359369 C 205.284708 110.325101 205.309838 110.295402 205.344105 110.288549 C 205.380658 110.28398 205.412641 110.30454 205.424063 110.338808 Q 206.047733 112.28749 206.906706 114.124231 C 209.734922 120.157606 214.509535 123.858502 220.853602 125.766062 Q 220.970112 125.80033 221.417874 125.98309 Q 221.810809 126.140721 222.002707 126.079039 Q 226.921244 124.516439 231.186413 124.30398 Q 235.700592 124.077814 238.848639 123.817381 C 241.855046 123.56837 245.062489 122.777931 247.637125 120.943475 C 249.999302 119.257511 250.967932 116.317355 252.832087 114.17449 Q 255.372455 111.259463 259.130464 110.172039 C 259.304086 110.12178 259.427449 109.966434 259.438872 109.785958 Q 259.601072 107.295849 260.201896 104.609272 Q 261.721091 97.817442 265.08845 91.77493 C 265.152416 91.660705 265.312331 91.644713 265.396858 91.747516 Q 266.5848 93.195891 268.129125 94.703664 C 269.844787 96.378205 272.636451 97.579854 275.119706 98.706114 C 276.878774 99.503406 278.16495 101.500063 279.295779 102.900464 C 280.225572 104.051853 282.032615 105.043328 283.5975 105.075311 C 285.872866 105.12557 287.76672 103.944482 288.918109 102.018645 C 290.192863 99.882634 290.585797 97.189204 289.137422 95.055477 Q 288.321854 93.853828 287.14305 92.142735 C 285.226351 89.364778 283.928753 86.177895 282.53749 82.522689 C 281.130236 78.828647 278.932543 75.404175 275.95355 72.808979 C 275.843894 72.715314 275.821049 72.555399 275.898722 72.43432 C 277.31283 70.20236 278.304305 67.538629 278.217493 64.874897 C 278.212924 64.719551 278.053009 64.616748 277.909085 64.676145 Q 273.680469 66.444351 270.870529 69.39593 C 270.792856 69.475888 270.685484 69.514724 270.575828 69.505586 C 264.953664 68.939029 258.911152 69.784296 253.707052 71.632459 Q 249.70917 73.053421 247.792471 73.987783 Q 245.528528 75.091198 243.972781 75.909051 Q 241.5375 77.186088 240.137099 77.642989 Q 237.868587 78.378599 236.061544 78.707568 C 235.85137 78.746404 235.807964 79.027398 235.997578 79.125632 Q 236.381375 79.322099 236.701205 79.411195 Q 238.750405 79.975467 240.625983 80.059994 C 240.715078 80.064563 240.735639 80.185642 240.653397 80.219909 Q 239.71675 80.601422 239.031399 80.989787 Q 236.634955 82.349067 233.525745 84.784348 Q 231.919739 86.04311 230.103558 86.209878 Q 227.885305 86.413199 225.315238 86.056817 Q 220.963258 85.451423 218.877506 85.179567 C 211.727009 84.245205 203.680987 85.344052 197.942313 90.093535 Q 192.580583 94.530041 191.273846 101.365277 C 190.549659 105.162122 190.922033 108.947545 191.765015 112.465681 Q 193.012354 117.681203 193.398435 119.401435 Q 193.976414 121.964648 194.09064 123.449576 Q 194.18202 124.605535 193.980983 125.306877 Q 193.761671 126.081324 192.975802 128.882126 Q 190.7941 136.672284 190.922033 144.825678 Q 190.944878 146.331166 191.123069 147.571652 C 191.129923 147.621911 191.173328 147.658463 191.223587 147.658463 C 191.273846 147.658463 191.317252 147.621911 191.324105 147.571652 Q 192.502909 139.644423 197.135883 133.154148 Q 198.079383 131.83142 200.140006 129.023765 C 202.173214 126.252662 203.770082 123.077201 204.530822 119.595618 C 205.220742 116.443002 205.159061 113.779271 205.282424 110.359369 Z" style="fill:#1588d6;"/>
		<path d="M 258.107006 157.168852 Q 253.151917 157.420148 248.233381 157.004368 Q 248.126009 156.99523 247.93868 156.906134 L 248.082603 149.824172 C 248.084888 149.714516 248.002646 149.620852 247.892989 149.609429 Q 240.146237 148.782439 232.287544 147.430012 C 232.061378 147.391176 231.830643 147.480271 231.686719 147.660747 L 226.955512 153.61188 L 216.899126 153.189247 Q 217.87004 148.958345 217.979696 144.645202 C 217.981981 144.544684 217.924868 144.451019 217.835772 144.403045 Q 211.708733 141.159049 212.389515 134.035966 Q 212.576845 132.059871 214.059488 130.273389 C 215.24743 128.843289 217.552494 128.048282 219.297855 129.099154 C 219.50346 129.222517 219.524021 129.510364 219.338976 129.663426 Q 218.9963 129.946704 217.938575 130.823954 C 215.823125 132.585306 215.192602 134.842396 215.485018 137.599792 C 215.583252 138.527301 216.069851 139.454809 216.481062 140.105893 Q 216.650115 140.37318 216.805461 140.432577 C 217.033912 140.521673 217.301199 140.366327 217.385725 140.092186 C 217.771806 138.863123 218.004826 137.229703 218.550822 135.932105 Q 220.319028 131.737755 224.497386 129.608598 C 227.853322 127.897505 231.437708 127.952333 235.248261 128.004876 C 238.882906 128.05742 242.908202 127.468018 246.284699 125.928262 Q 248.269933 125.021314 250.522453 123.710009 Q 251.890871 122.912717 252.359195 121.498609 Q 253.003425 119.556781 253.695629 117.916507 Q 254.812752 115.271052 257.264024 113.719874 C 259.557666 112.264645 262.550366 112.700985 264.6978 114.204189 Q 265.702981 114.907816 266.667042 116.162008 Q 267.06683 116.678306 267.683646 116.911326 Q 271.523897 118.357417 275.377855 120.015966 C 275.640573 120.130191 275.809626 120.392909 275.805057 120.680757 C 275.757083 122.741379 274.505175 125.210928 273.223568 126.647881 Q 272.209248 127.785564 270.436473 127.73302 Q 269.262238 127.698753 266.420316 127.493147 C 263.073518 127.253274 262.879335 130.373907 262.655453 133.00794 C 262.241958 137.821389 259.978015 142.426949 256.941909 146.152975 C 256.779709 146.351727 256.699752 146.603022 256.713459 146.858886 Q 257.001306 152.001305 258.107006 157.168852 Z" style="fill:#ffef9b;"/>
		<path d="M 247.93868 156.906134 Q 247.641694 156.94954 247.253328 156.899281 Q 244.795202 156.584019 242.403327 156.083713 Q 241.352455 155.864401 240.975512 155.834702 C 240.313006 155.786727 239.684767 155.581122 239.058813 155.471466 Q 231.842066 154.194428 230.398259 154.075634 Q 228.102333 153.888305 226.955512 153.61188 L 231.686719 147.660747 C 231.830643 147.480271 232.061378 147.391176 232.287544 147.430012 Q 240.146237 148.782439 247.892989 149.609429 C 248.002646 149.620852 248.084888 149.714516 248.082603 149.824172 L 247.93868 156.906134 Z" style="fill:#1588d6;"/>
		<path d="M 303.134577 169.228748 C 303.273932 169.461767 303.219104 169.758753 303.006645 169.918668 C 302.547459 170.263628 301.238439 169.633105 300.706149 169.598838 Q 300.077911 169.557717 299.20523 169.292714 C 299.054453 169.247024 298.901391 169.212757 298.746045 169.192196 C 298.117806 169.105385 297.443878 169.066548 296.680854 168.856374 C 295.840156 168.625639 294.750448 168.648484 293.816086 168.518267 Q 289.475528 167.903736 285.114411 168.447448 Q 283.247971 168.678183 282.900726 168.685036 C 282.802493 168.687321 282.704259 168.698743 282.60831 168.719304 L 278.260899 169.669657 C 278.254046 169.671942 278.249477 169.674226 278.242623 169.676511 Q 278.132967 169.749615 276.218553 170.307034 Q 274.962076 170.67027 274.260733 170.916996 Q 268.231927 173.025593 267.133081 173.379692 Q 266.434023 173.605857 266.07764 173.683531 Q 265.483669 173.813747 265.163839 173.996508 C 265.143278 174.00793 265.120433 174.017068 265.097588 174.023922 L 261.282467 174.994836 C 261.261906 174.999405 261.239061 175.001689 261.216216 175.003974 Q 260.446338 175.04281 259.347492 175.262123 Q 258.541062 175.424322 257.526742 175.513418 C 254.575163 175.776136 252.761267 175.924629 250.044992 175.71217 Q 246.686771 175.451736 244.198947 175.003974 Q 241.807071 174.572203 237.615007 173.33857 Q 235.287097 172.653219 234.67485 172.493304 Q 233.368114 172.157482 231.723271 171.680021 Q 229.548424 171.051782 227.398706 170.542338 Q 224.677861 169.900392 223.02845 169.578277 C 222.190037 169.416077 221.342486 169.196765 220.460667 169.107669 C 219.370959 168.995729 218.491425 168.694174 217.534218 168.655338 C 216.595287 168.614216 215.795711 168.465724 214.735701 168.317231 C 213.362714 168.127617 211.886924 168.175592 210.751526 168.075074 Q 209.586429 167.972271 207.893612 167.953995 Q 204.455433 167.919727 203.326889 167.999685 Q 201.391914 168.141324 198.856115 168.198437 C 197.590499 168.228135 196.331738 168.593656 195.228322 168.6462 Q 194.015251 168.705597 192.459504 169.025427 C 192.31558 169.055126 192.171656 169.071117 192.023164 169.077971 Q 190.68216 169.130514 189.375424 169.470905 C 189.247491 169.505173 189.117275 169.525734 188.987058 169.534872 Q 187.979592 169.598838 186.732253 169.948367 C 186.613458 169.98035 186.49238 169.996341 186.371301 169.998626 Q 186.037764 170.003195 185.86871 169.989488 C 185.631122 169.971212 185.450646 169.758753 185.459784 169.507457 Q 185.475776 169.153359 185.797891 168.936332 Q 189.633573 166.347989 194.595515 164.764828 Q 197.117607 163.960682 199.806468 163.407832 Q 200.907599 163.179382 201.714029 163.09714 C 202.60727 163.00576 203.415984 162.749895 204.261251 162.717912 C 206.223639 162.644808 208.446462 162.267865 210.555059 162.263296 Q 213.9544 162.254158 215.560407 162.354676 Q 217.413139 162.471186 220.115707 162.749895 Q 223.222633 163.067441 228.424448 164.120597 Q 231.574779 164.75569 238.243245 166.489628 Q 242.076643 167.485672 244.208085 167.851192 Q 247.835877 168.472577 250.273442 168.62107 Q 251.660136 168.705597 255.879615 168.62107 C 257.321137 168.591371 258.419983 168.262403 259.758702 168.187014 Q 260.240733 168.161885 261.305312 167.960848 Q 265.236943 167.218385 268.138263 166.341135 Q 271.930539 165.194314 274.39095 164.575214 Q 276.451572 164.056631 279.416858 163.679688 Q 284.273713 163.065157 289.40014 163.750508 Q 296.721975 164.73056 302.805608 168.84952 C 302.853583 168.881503 302.894704 168.918056 302.933541 168.961461 Q 303.066042 169.114523 303.134577 169.228748 Z" style="fill:#1588d6;"/>
		<path d="M 294.972045 178.91276 C 294.919501 179.042977 294.798422 179.136641 294.656783 179.152633 C 294.106218 179.223452 293.160433 179.150348 292.516203 179.040692 Q 289.514365 178.538101 286.587916 178.995002 C 285.518768 179.164055 284.369662 179.154917 283.275385 179.525007 C 283.177151 179.559274 283.074349 179.579835 282.971546 179.588973 Q 282.3296 179.639232 281.472911 179.956778 C 281.233039 180.045874 280.965752 180.045874 280.707603 180.123547 Q 278.363702 180.822605 275.510356 181.882615 Q 270.589535 183.705649 269.342196 184.164834 Q 269.122884 184.244792 267.699638 184.783935 Q 266.840664 185.110619 265.310047 185.526398 Q 264.681808 185.695452 264.268313 185.857651 C 263.79999 186.038127 263.365934 186.010713 262.842783 186.177482 C 262.043206 186.435631 261.236776 186.504166 260.407502 186.801152 C 260.304699 186.837704 260.195043 186.860549 260.085386 186.871971 Q 259.347492 186.935937 258.011057 187.178095 Q 257.179498 187.328872 255.92302 187.427106 C 254.08171 187.568745 252.487127 187.714953 250.899397 187.678401 Q 248.594332 187.625857 245.491976 187.326587 Q 244.626149 187.242061 244.212654 187.146112 C 243.189196 186.906239 242.579234 186.938222 241.576336 186.675504 Q 240.760769 186.463045 240.22391 186.412786 C 240.066279 186.396794 239.910933 186.362527 239.760156 186.307699 C 239.049675 186.054119 238.316349 185.97873 237.544187 185.75028 Q 236.146071 185.3345 234.869033 184.982687 Q 234.064888 184.76109 226.923529 182.64107 Q 224.872044 182.031108 223.18608 181.592483 Q 219.514883 180.632991 219.428072 180.59187 C 219.185914 180.477645 218.489141 180.438808 218.07793 180.308592 Q 217.335466 180.073288 216.540459 180.011606 C 216.421665 180.002468 216.305155 179.981908 216.19093 179.952209 Q 215.101221 179.662077 214.868202 179.652939 Q 213.879012 179.604964 213.020038 179.415351 Q 211.788691 179.145779 211.176444 179.157202 Q 211.1239 179.157202 206.358425 178.782543 Q 205.472038 178.711723 202.856281 178.720861 C 200.021212 178.732284 196.685836 179.077244 194.289391 179.180047 C 194.051803 179.191469 193.843913 179.047546 193.802792 178.844225 Q 193.688567 178.291375 194.31909 177.907578 Q 195.488756 177.197097 196.893726 176.614549 Q 199.562026 175.508849 201.579243 175.093069 Q 202.977359 174.805222 203.194387 174.706988 C 203.267491 174.672721 203.349734 174.65216 203.431976 174.645307 C 204.862075 174.540219 206.506918 174.129009 208.083226 174.108448 Q 211.427739 174.062758 214.043496 174.110733 Q 215.544415 174.140431 216.821453 174.330045 C 218.025386 174.508236 219.268156 174.601901 220.504073 174.821213 Q 226.194772 175.830964 231.314345 177.327314 Q 235.885637 178.663749 237.441384 179.113796 Q 242.005823 180.438808 244.607873 180.868295 Q 245.729564 181.05334 246.858109 181.217824 C 248.51209 181.459982 249.949043 181.487396 251.587032 181.635888 C 252.183288 181.690716 253.69106 181.69757 254.536327 181.590198 Q 255.356464 181.485111 256.873374 181.437137 Q 257.871702 181.407438 259.189861 181.185841 Q 262.806231 180.580448 266.089063 179.600395 Q 268.058305 179.015562 270.244575 178.204564 Q 273.762711 176.902396 274.674228 176.603126 Q 277.685204 175.616221 280.003975 175.143328 Q 281.507179 174.83492 283.62263 174.761816 Q 287.908359 174.611039 291.897102 176.422651 Q 293.05763 176.950371 294.007984 177.510074 C 294.501437 177.800206 295.225625 178.307366 294.972045 178.91276 Z" style="fill:#1588d6;"/>
		<path d="M 282.087443 186.476752 C 282.240505 186.501882 282.3296 186.659512 282.274772 186.803436 Q 282.098866 187.26719 281.717353 187.523055 Q 277.369943 190.428944 272.325758 192.813966 Q 270.692338 193.586128 269.008658 194.225789 Q 266.283245 195.260669 265.618455 195.457137 Q 264.41909 195.80895 264.254606 195.920891 C 264.179217 195.973434 264.092406 196.005418 264.001026 196.014556 Q 263.489297 196.069384 263.078087 196.254428 C 262.431572 196.549129 261.922128 196.501155 261.193371 196.75245 Q 260.859833 196.866675 260.217888 196.98547 Q 258.698693 197.264179 257.2823 197.574872 Q 255.747114 197.910694 254.805898 197.976944 Q 254.474645 197.999789 253.147348 198.20311 Q 252.715577 198.269361 251.479661 198.36531 Q 246.008274 198.790228 240.388394 198.328758 Q 239.221013 198.232809 238.585921 198.130006 Q 237.098709 197.890133 236.792585 197.874142 Q 236.05926 197.835305 235.309942 197.606855 Q 234.990112 197.508621 233.836437 197.355559 Q 232.493149 197.179653 228.479276 196.037401 Q 218.226423 193.124658 208.713749 187.589305 Q 208.307107 187.354002 208.151761 187.15525 C 208.010121 186.977058 208.094648 186.712056 208.31396 186.64809 Q 208.919354 186.472183 209.613843 186.506451 Q 213.922417 186.712056 216.375975 187.015895 Q 217.949998 187.212362 222.539566 188.153578 Q 223.974234 188.445994 228.620915 189.675057 Q 234.142561 191.134855 238.113029 191.925294 C 239.607094 192.222279 242.359921 192.729439 244.477656 192.889354 Q 245.080765 192.935044 246.906084 193.088106 Q 251.194098 193.444489 255.006934 193.001295 Q 256.037246 192.880216 256.772856 192.857371 C 257.892263 192.820819 259.004816 192.466721 259.989437 192.407324 Q 260.896385 192.352496 261.689108 192.121761 C 262.3242 191.936716 262.920456 191.948139 263.578393 191.740249 Q 264.259175 191.52779 264.773188 191.461539 C 265.328323 191.388435 265.812638 191.128002 266.363203 191.04576 Q 266.696741 190.993216 268.364428 190.547738 Q 269.945305 190.12282 272.855763 189.156475 Q 277.762877 187.527624 280.401479 186.606969 Q 281.185064 186.335113 282.087443 186.476752 Z" style="fill:#1588d6;"/>
		<path d="M 205.282424 110.359369 C 205.159061 113.779271 205.220742 116.443002 204.530822 119.595618 C 203.770082 123.077201 202.173214 126.252662 200.140006 129.023765 Q 198.079383 131.83142 197.135883 133.154148 Q 192.502909 139.644423 191.324105 147.571652 C 191.317252 147.621911 191.273846 147.658463 191.223587 147.658463 C 191.173328 147.658463 191.129923 147.621911 191.123069 147.571652 Q 190.944878 146.331166 190.922033 144.825678 Q 190.7941 136.672284 192.975802 128.882126 Q 193.761671 126.081324 193.980983 125.306877 Q 194.18202 124.605535 194.09064 123.449576 Q 193.976414 121.964648 193.398435 119.401435 Q 193.012354 117.681203 191.765015 112.465681 C 190.922033 108.947545 190.549659 105.162122 191.273846 101.365277 Q 192.580583 94.530041 197.942313 90.093535 C 203.680987 85.344052 211.727009 84.245205 218.877506 85.179567 Q 220.963258 85.451423 225.315238 86.056817 Q 227.885305 86.413199 230.103558 86.209878 Q 231.919739 86.04311 233.525745 84.784348 Q 236.634955 82.349067 239.031399 80.989787 Q 239.71675 80.601422 240.653397 80.219909 C 240.735639 80.185642 240.715078 80.064563 240.625983 80.059994 Q 238.750405 79.975467 236.701205 79.411195 Q 236.381375 79.322099 235.997578 79.125632 C 235.807964 79.027398 235.85137 78.746404 236.061544 78.707568 Q 237.868587 78.378599 240.137099 77.642989 Q 241.5375 77.186088 243.972781 75.909051 Q 245.528528 75.091198 247.792471 73.987783 Q 249.70917 73.053421 253.707052 71.632459 C 258.911152 69.784296 264.953664 68.939029 270.575828 69.505586 C 270.685484 69.514724 270.792856 69.475888 270.870529 69.39593 Q 273.680469 66.444351 277.909085 64.676145 C 278.053009 64.616748 278.212924 64.719551 278.217493 64.874897 C 278.304305 67.538629 277.31283 70.20236 275.898722 72.43432 C 275.821049 72.555399 275.843894 72.715314 275.95355 72.808979 C 278.932543 75.404175 281.130236 78.828647 282.53749 82.522689 C 283.928753 86.177895 285.226351 89.364778 287.14305 92.142735 Q 288.321854 93.853828 289.137422 95.055477 C 290.585797 97.189204 290.192863 99.882634 288.918109 102.018645 C 287.76672 103.944482 285.872866 105.12557 283.5975 105.075311 C 282.032615 105.043328 280.225572 104.051853 279.295779 102.900464 C 278.16495 101.500063 276.878774 99.503406 275.119706 98.706114 C 272.636451 97.579854 269.844787 96.378205 268.129125 94.703664 Q 266.5848 93.195891 265.396858 91.747516 C 265.312331 91.644713 265.152416 91.660705 265.08845 91.77493 Q 261.721091 97.817442 260.201896 104.609272 Q 259.601072 107.295849 259.438872 109.785958 C 259.427449 109.966434 259.304086 110.12178 259.130464 110.172039 Q 255.372455 111.259463 252.832087 114.17449 C 250.967932 116.317355 249.999302 119.257511 247.637125 120.943475 C 245.062489 122.777931 241.855046 123.56837 238.848639 123.817381 Q 235.700592 124.077814 231.186413 124.30398 Q 226.921244 124.516439 222.002707 126.079039 Q 221.810809 126.140721 221.417874 125.98309 Q 220.970112 125.80033 220.853602 125.766062 C 214.509535 123.858502 209.734922 120.157606 206.906706 114.124231 Q 206.047733 112.28749 205.424063 110.338808 C 205.412641 110.30454 205.380658 110.28398 205.344105 110.288549 C 205.309838 110.295402 205.284708 110.325101 205.282424 110.359369 Z M 276.394756 81.18493 C 276.063206 81.606603 276.255105 82.312515 276.825225 82.76206 C 277.395072 83.210325 278.126113 83.230885 278.459354 82.809577 C 278.790904 82.387904 278.599006 81.681992 278.028885 81.232447 C 277.459038 80.784182 276.727997 80.763621 276.394756 81.18493 Z" style="fill:#fefdeb;"/>
		<path d="M 276.394756 81.18493 C 276.727997 80.763621 277.459038 80.784182 278.028885 81.232447 C 278.599006 81.681992 278.790904 82.387904 278.459354 82.809577 C 278.126113 83.230885 277.395072 83.210325 276.825225 82.76206 C 276.255105 82.312515 276.063206 81.606603 276.394756 81.18493 Z" style="fill:#1588d6;"/>
	</g>
	<g id="surface4">
	</g>
</svg>
