<?xml version="1.0" encoding="utf-8"?>
<svg xmlns="http://www.w3.org/2000/svg" width="490pt" height="280pt" viewBox="0 0 490 280" version="1.1" xmlns:xlink="http://www.w3.org/1999/xlink">
	<g id="surface2" data-size="208.458228042 148" data-bboxpos="141 59.257533889612" data-pivot="245.229114021 133.25753388961" data-center="245.229114021 133.25753388961">
		<path vector-effect="non-scaling-stroke" d="M 165.76673 102.758131 Q 163.148368 105.72119 161.716554 111.309241 Q 149.837804 157.644322 149.121897 161.263628 Q 148.333073 165.240888 150.480794 167.852623 Q 151.68723 169.31758 156.135132 170.862083 Q 185.997727 181.222846 231.51747 197.125257 Q 235.614048 198.557071 237.463474 198.18586 Q 240.446419 197.582642 241.308159 193.877162 Q 244.536368 180.06944 255.188797 131.732472 Q 255.566636 129.995735 255.593151 128.212596" style="fill:none;stroke-width:0.50;stroke:#98b889;"/>
		<path vector-effect="non-scaling-stroke" d="M 255.593151 128.212596 Q 256.421747 126.575291 258.078939 121.371709 Q 262.089343 108.830082 271.880032 97.846215 Q 278.939669 89.924838 288.650812 85.954207 C 289.234144 85.715571 289.201 84.880347 288.604411 84.681484 Q 284.216167 83.229784 278.972812 82.116151 Q 269.904659 80.193809 258.463407 77.721278 Q 255.095994 76.992114 252.026875 76.223177 C 246.24659 74.791363 241.215356 73.916366 235.879198 72.676787 Q 230.54967 71.437207 219.168077 68.924905 Q 209.781743 66.856729 205.937058 67.155024 Q 198.393521 67.744984 191.8443 71.80179 Q 179.163468 79.663507 170.93054 92.921041 Q 168.265776 97.209853 167.065969 99.457005 Q 166.529039 100.464578 165.76673 102.758131" style="fill:none;stroke-width:0.50;stroke:#61983c;"/>
		<path vector-effect="non-scaling-stroke" d="M 255.593151 128.212596 Q 254.346943 125.441772 251.509831 124.619805 C 244.602656 122.611288 236.535446 120.801635 229.873536 119.038383 Q 220.076218 116.439906 214.295933 115.008093 Q 208.157695 113.490105 177.890745 105.946568 Q 169.187174 103.78559 165.76673 102.758131" style="fill:none;stroke-width:0.50;stroke:#aed194;"/>
		<path d="M 254.883873 179.824176 C 254.592208 179.830804 254.327057 180.009781 254.220997 180.281561 Q 253.153765 182.933067 252.517404 186.148019 Q 251.317597 192.147053 249.302452 197.277719 Q 248.540143 199.213319 247.293935 201.281494 Q 244.059097 206.664053 237.900972 207.22087 Q 235.488101 207.446248 232.200233 206.286213 Q 228.786418 205.086407 226.592296 204.211409 Q 225.564837 203.800426 224.510863 203.50876 Q 223.317685 203.18395 222.409544 202.859141 Q 199.520412 194.672614 189.404913 191.053307 Q 162.405946 181.395193 153.443853 178.286302 Q 148.78383 176.668883 146.430617 175.303357 C 146.218497 175.184039 146.026263 175.038206 145.847286 174.865858 Q 142.433471 171.624391 141.512072 167.368723 C 140.835938 164.246573 140.729878 159.526891 141.79048 155.867812 Q 142.16832 154.561945 142.526274 153.010813 Q 143.600134 148.383934 144.69388 144.061978 Q 148.061294 130.671869 150.55371 120.543113 Q 152.469424 112.721168 154.557486 106.483498 Q 157.60009 97.402088 163.56598 88.154958 Q 171.938113 75.18909 184.559285 66.565064 Q 189.815897 62.972272 197.86322 60.56603 Q 202.622675 59.147474 208.416217 59.266791 Q 212.439879 59.346337 218.902926 60.817923 Q 255.394288 69.117139 293.012541 77.688135 Q 297.937715 78.815025 302.299443 79.491159 Q 306.256817 80.107635 309.312679 80.743996 C 337.465052 86.603826 351.55781 114.994835 349.257628 141.735281 Q 348.230169 153.759864 342.74155 165.77119 C 336.6696 179.055239 326.109974 190.098764 312.308881 195.686815 C 309.89601 196.667873 307.96041 197.00594 305.521024 197.861051 C 305.335419 197.927338 305.143184 197.97374 304.944321 198.000255 C 300.933917 198.523927 296.857226 199.133774 293.105344 199.007827 Q 286.933961 198.795707 282.565604 197.5959 Q 270.070378 194.15557 261.35355 185.544802 Q 257.813788 182.038184 257.024965 180.944437 Q 256.209627 179.804289 254.883873 179.824176 Z M 165.76673 102.758131 Q 163.148368 105.72119 161.716554 111.309241 Q 149.837804 157.644322 149.121897 161.263628 Q 148.333073 165.240888 150.480794 167.852623 Q 151.68723 169.31758 156.135132 170.862083 Q 185.997727 181.222846 231.51747 197.125257 Q 235.614048 198.557071 237.463474 198.18586 Q 240.446419 197.582642 241.308159 193.877162 Q 244.536368 180.06944 255.188797 131.732472 Q 255.566636 129.995735 255.593151 128.212596 Q 256.421747 126.575291 258.078939 121.371709 Q 262.089343 108.830082 271.880032 97.846215 Q 278.939669 89.924838 288.650812 85.954207 C 289.234144 85.715571 289.201 84.880347 288.604411 84.681484 Q 284.216167 83.229784 278.972812 82.116151 Q 269.904659 80.193809 258.463407 77.721278 Q 255.095994 76.992114 252.026875 76.223177 C 246.24659 74.791363 241.215356 73.916366 235.879198 72.676787 Q 230.54967 71.437207 219.168077 68.924905 Q 209.781743 66.856729 205.937058 67.155024 Q 198.393521 67.744984 191.8443 71.80179 Q 179.163468 79.663507 170.93054 92.921041 Q 168.265776 97.209853 167.065969 99.457005 Q 166.529039 100.464578 165.76673 102.758131 Z M 339.652545 140.091347 C 340.381709 128.696496 338.399708 117.513766 332.387416 107.935198 C 327.912999 100.802645 320.296546 93.928614 311.77858 91.714606 Q 305.249245 90.017641 299.57502 91.164418 Q 289.002137 93.292252 280.901784 100.915334 Q 271.681169 109.59239 266.67645 122.916212 Q 265.337439 126.489117 262.659417 138.811995 Q 259.716244 152.367823 259.285375 154.853611 Q 259.278746 154.886754 258.768331 158.40663 C 258.708672 158.810985 258.682157 159.221968 258.695414 159.63958 Q 258.894277 165.247517 262.871537 171.611133 Q 269.241783 181.806177 279.41694 186.704836 Q 287.311801 190.509748 297.659306 190.072249 C 299.528619 189.992704 301.159295 189.283426 302.882775 189.005018 Q 304.705686 188.713352 306.714202 188.010703 C 321.23783 182.899924 332.85143 168.661332 336.994409 153.918955 Q 337.909179 150.650972 338.399708 148.927493 C 338.558798 148.364048 338.664859 147.780716 338.71126 147.197385 C 338.923381 144.75137 339.486826 142.669937 339.652545 140.091347 Z" style="fill:#4b7f31;"/>
		<path d="M 255.593151 128.212596 Q 254.346943 125.441772 251.509831 124.619805 C 244.602656 122.611288 236.535446 120.801635 229.873536 119.038383 Q 220.076218 116.439906 214.295933 115.008093 Q 208.157695 113.490105 177.890745 105.946568 Q 169.187174 103.78559 165.76673 102.758131 Q 166.529039 100.464578 167.065969 99.457005 Q 168.265776 97.209853 170.93054 92.921041 Q 179.163468 79.663507 191.8443 71.80179 Q 198.393521 67.744984 205.937058 67.155024 Q 209.781743 66.856729 219.168077 68.924905 Q 230.54967 71.437207 235.879198 72.676787 C 241.215356 73.916366 246.24659 74.791363 252.026875 76.223177 Q 255.095994 76.992114 258.463407 77.721278 Q 269.904659 80.193809 278.972812 82.116151 Q 284.216167 83.229784 288.604411 84.681484 C 289.201 84.880347 289.234144 85.715571 288.650812 85.954207 Q 278.939669 89.924838 271.880032 97.846215 Q 262.089343 108.830082 258.078939 121.371709 Q 256.421747 126.575291 255.593151 128.212596 Z" style="fill:#76b147;"/>
		<path d="M 165.76673 102.758131 Q 169.187174 103.78559 177.890745 105.946568 Q 208.157695 113.490105 214.295933 115.008093 Q 220.076218 116.439906 229.873536 119.038383 C 236.535446 120.801635 244.602656 122.611288 251.509831 124.619805 Q 254.346943 125.441772 255.593151 128.212596 Q 255.566636 129.995735 255.188797 131.732472 Q 244.536368 180.06944 241.308159 193.877162 Q 240.446419 197.582642 237.463474 198.18586 Q 235.614048 198.557071 231.51747 197.125257 Q 185.997727 181.222846 156.135132 170.862083 Q 151.68723 169.31758 150.480794 167.852623 Q 148.333073 165.240888 149.121897 161.263628 Q 149.837804 157.644322 161.716554 111.309241 Q 163.148368 105.72119 165.76673 102.758131 Z" style="fill:#e5f1e1;"/>
		<path d="M 305.311489 121.101852 C 314.377057 125.216394 317.333487 138.241921 311.911553 150.19783 C 306.488824 162.151883 294.742649 168.508871 285.671911 164.397113 C 276.606343 160.282571 273.649913 147.257044 279.071846 135.301135 C 284.494575 123.347081 296.24075 116.990094 305.311489 121.101852 Z" style="fill:#4b7f31;"/>
	</g>
	<g id="surface4">
	</g>
</svg>
