<?xml version="1.0" encoding="utf-8"?>
<svg xmlns="http://www.w3.org/2000/svg" width="490pt" height="280pt" viewBox="0 0 490 280" version="1.1" xmlns:xlink="http://www.w3.org/1999/xlink">
	<g id="surface2" data-size="97.966889158758 148" data-bboxpos="196 53.594236846544" data-pivot="244.98344457938 127.59423684654" data-center="244.98344457938 127.59423684654">
		<path d="M 247.911921 160.657788 C 247.911921 161.083065 247.57018 161.424806 247.144903 161.424806 L 243.484481 161.424806 C 243.059204 161.424806 242.717463 161.083065 242.717463 160.657788 L 242.717463 54.361255 C 242.717463 53.935978 243.059204 53.594237 243.484481 53.594237 L 247.144903 53.594237 C 247.57018 53.594237 247.911921 53.935978 247.911921 54.361255 L 247.911921 160.657788 Z" style="fill:#72767f;"/>
		<path d="M 206.344866 128.14686 C 206.420808 128.082309 206.534722 128.162048 206.500548 128.256976 Q 205.608225 130.683335 205.080425 133.588131 C 204.807033 135.09179 204.408335 136.538492 204.339987 137.916846 C 204.153928 141.603848 204.024826 145.438937 204.852598 149.000634 Q 205.539877 151.969981 206.143618 154.024222 C 206.192981 154.195092 205.999328 154.327991 205.858835 154.225469 L 203.360331 152.395258 C 203.178069 152.258562 202.916068 152.38007 202.900879 152.607897 Q 202.752792 154.722892 202.836328 157.187222 C 202.897082 159.108564 203.310968 160.703353 203.599549 162.563941 Q 203.74384 163.490438 204.123551 164.682733 C 207.730814 175.944987 216.236359 184.370792 227.164466 188.771653 Q 237.849557 193.073788 249.514305 191.995406 Q 256.766801 191.323316 263.852224 188.236259 Q 274.07027 183.786036 280.559545 174.855214 Q 282.697323 171.916244 284.09846 168.870955 Q 285.556553 165.700361 286.31218 162.244983 C 286.638732 160.756513 287.067806 159.070592 287.120966 157.555542 Q 287.29943 152.376273 287.041226 147.352685 Q 287.014647 146.900828 286.991864 146.855262 C 286.764037 146.418594 286.209657 146.270506 285.795772 146.532507 L 283.783299 147.808339 C 283.631414 147.903267 283.441558 147.75518 283.502312 147.584309 C 285.651481 141.444369 285.799569 134.715875 284.223765 128.431644 C 284.185793 128.283556 284.383244 128.196223 284.470577 128.321527 Q 290.530778 137.157422 292.983717 147.542541 Q 293.276095 148.76901 293.898822 153.139493 Q 293.982359 153.712858 293.963373 158.637721 Q 293.951982 161.607068 293.500125 164.097977 Q 292.721716 168.358344 291.52942 171.585895 Q 290.151066 175.326056 288.165173 178.530824 Q 280.176036 191.43723 265.811537 197.429083 Q 256.968049 201.116085 247.896733 201.533768 Q 240.291104 201.879306 232.958869 200.250342 Q 226.818928 198.883379 221.138439 196.058323 Q 212.279762 191.653666 206.082865 184.446735 Q 197.448217 174.407154 196.172385 160.934978 Q 195.807862 157.115076 196.214154 154.191295 Q 196.616648 151.256123 196.741953 150.287857 C 196.920418 148.901909 197.326709 148.017181 197.512768 146.783117 Q 197.573522 146.373028 197.858306 145.385778 Q 200.353013 136.747333 205.589239 129.046777 Q 205.999328 128.443035 206.344866 128.14686 Z" style="fill:#72767f;"/>
	</g>
	<g id="surface4">
	</g>
</svg>
