<?xml version="1.0" encoding="utf-8"?>
<svg xmlns="http://www.w3.org/2000/svg" width="490pt" height="280pt" viewBox="0 0 490 280" version="1.1" xmlns:xlink="http://www.w3.org/1999/xlink">
	<g id="surface2" data-size="149.33795534183 148" data-bboxpos="170.5 50.846647110113" data-pivot="245.16897767091 124.84664711011" data-center="245.16897767091 124.84664711011">
		<path vector-effect="non-scaling-stroke" d="M 245.685128 132.168795 Q 245.736018 132.168795 245.757828 132.144562 Q 260.687924 117.192655 277.939564 100.042795 C 278.019534 99.962825 278.063154 99.853775 278.063154 99.739879 L 278.063154 96.625908 C 278.063154 96.548362 278.000147 96.485356 277.925024 96.485356 L 269.327072 96.485356 C 269.162286 96.485356 269.002347 96.550785 268.886028 96.669528 Q 254.273387 111.350022 245.782061 119.894661 Q 245.760251 119.914048 245.702091 119.914048 Q 245.641508 119.914048 245.622121 119.892238 Q 237.155029 111.325789 222.583584 96.604098 C 222.467265 96.485356 222.307326 96.417502 222.14254 96.417502 L 213.544588 96.393269 C 213.469465 96.393269 213.406458 96.456276 213.406458 96.533822 L 213.396765 99.647793 C 213.396765 99.761689 213.440385 99.870739 213.520354 99.950708 Q 230.723528 117.149035 245.610005 132.144562 Q 245.631815 132.168795 245.685128 132.168795" style="fill:none;stroke-width:0.50;stroke:#8596a9;"/>
		<path vector-effect="non-scaling-stroke" d="M 222.144963 155.379388 C 222.186159 155.379388 222.220086 155.345461 222.220086 155.304265 L 222.220086 116.366302 C 222.220086 116.346915 222.212816 116.329952 222.200699 116.315412 L 213.595477 106.328896 C 213.551858 106.275583 213.464618 106.309509 213.464618 106.377362 L 213.464618 155.304265 C 213.464618 155.345461 213.498544 155.379388 213.539741 155.379388 L 222.144963 155.379388" style="fill:none;stroke-width:0.50;stroke:#8596a9;"/>
		<path vector-effect="non-scaling-stroke" d="M 277.988031 155.379388 C 278.051037 155.379388 278.101927 155.328498 278.101927 155.265492 L 278.101927 106.510645 C 278.101927 106.404019 277.971068 106.355552 277.900791 106.435522 L 269.411889 116.342069 C 269.394926 116.361455 269.385232 116.388112 269.385232 116.414768 L 269.385232 155.265492 C 269.385232 155.328498 269.436122 155.379388 269.499128 155.379388 L 277.988031 155.379388" style="fill:none;stroke-width:0.50;stroke:#8596a9;"/>
		<path vector-effect="non-scaling-stroke" d="M 236.17116 155.381811 C 236.214779 155.381811 236.251129 155.345461 236.251129 155.301842 L 236.251129 130.935323 C 236.251129 130.913513 236.243859 130.894127 236.226896 130.877163 L 229.044165 123.692009 C 228.995699 123.643543 228.908459 123.677469 228.908459 123.750169 L 228.908459 155.301842 C 228.908459 155.345461 228.944809 155.381811 228.988429 155.381811 L 236.17116 155.381811" style="fill:none;stroke-width:0.50;stroke:#8596a9;"/>
		<path vector-effect="non-scaling-stroke" d="M 262.495723 155.379388 C 262.553883 155.379388 262.60235 155.330921 262.60235 155.272762 L 262.60235 123.815599 C 262.60235 123.721089 262.488453 123.672623 262.4206 123.740476 L 255.264526 130.89655 C 255.245139 130.915937 255.233023 130.945016 255.233023 130.971673 L 255.233023 155.272762 C 255.233023 155.330921 255.281489 155.379388 255.339649 155.379388 L 262.495723 155.379388" style="fill:none;stroke-width:0.50;stroke:#8596a9;"/>
		<path d="M 197.688782 181.914781 Q 192.699158 177.814517 188.511655 172.795814 C 185.165045 168.785214 182.550279 165.346518 180.112416 161.028155 Q 177.296514 156.033685 175.151872 150.479428 C 173.37073 145.870266 172.340817 140.972729 171.468421 136.118812 C 170.213139 129.13237 170.247066 121.612797 171.150965 114.679669 Q 171.507194 111.9607 172.297197 107.923443 C 173.499166 101.773048 175.79163 95.562069 178.658422 90.208948 C 182.220707 83.561771 187.176404 77.399259 192.638575 72.312703 Q 199.016763 66.377984 206.160721 62.032965 C 212.00093 58.482796 218.415468 55.945576 225.532769 53.713695 Q 229.410087 52.497186 233.057189 51.913165 Q 241.84416 50.505214 251.147299 50.955953 Q 256.687017 51.222518 261.213785 52.363904 Q 264.766378 53.260533 270.087996 54.867197 Q 273.672092 55.950422 276.257778 57.133004 Q 279.371749 58.555495 282.073754 60.174275 Q 283.394466 60.966702 286.908285 63.334289 Q 289.414001 65.023346 291.570759 66.770562 Q 297.738118 71.772302 302.861024 77.522849 Q 304.230202 79.059236 307.552578 83.506035 Q 309.198015 85.706412 311.136674 89.086949 C 313.281315 92.830984 314.861322 96.94094 316.329856 101.201143 Q 317.563328 104.780392 318.137656 107.501784 Q 320.115088 116.872777 319.792786 125.250206 Q 319.550453 131.546001 318.646553 136.894276 Q 318.147349 139.843461 316.463139 145.431645 Q 316.075407 146.720853 314.427547 151.005289 Q 313.145609 154.342205 312.12539 156.472307 Q 307.21089 166.730235 299.68647 175.005885 Q 295.620133 179.481764 290.715326 183.114326 Q 290.085262 183.582027 286.210368 186.371273 C 282.667469 188.925456 279.308742 190.912581 275.845813 192.478048 Q 273.613932 193.486151 269.319803 194.976495 Q 268.469216 195.27214 263.581372 196.554078 Q 260.828477 197.276229 257.750856 197.719697 Q 252.792736 198.432154 250.599628 198.601787 Q 242.355481 199.243968 234.835908 198.201938 Q 228.620083 197.344082 221.897784 195.269717 Q 221.527015 195.155821 219.399337 194.297964 C 217.06083 193.352868 214.237658 192.402925 212.330502 191.443289 Q 207.142167 188.828523 203.453868 186.327653 Q 201.192907 184.796113 197.688782 181.914781 Z M 245.685128 132.168795 Q 245.736018 132.168795 245.757828 132.144562 Q 260.687924 117.192655 277.939564 100.042795 C 278.019534 99.962825 278.063154 99.853775 278.063154 99.739879 L 278.063154 96.625908 C 278.063154 96.548362 278.000147 96.485356 277.925024 96.485356 L 269.327072 96.485356 C 269.162286 96.485356 269.002347 96.550785 268.886028 96.669528 Q 254.273387 111.350022 245.782061 119.894661 Q 245.760251 119.914048 245.702091 119.914048 Q 245.641508 119.914048 245.622121 119.892238 Q 237.155029 111.325789 222.583584 96.604098 C 222.467265 96.485356 222.307326 96.417502 222.14254 96.417502 L 213.544588 96.393269 C 213.469465 96.393269 213.406458 96.456276 213.406458 96.533822 L 213.396765 99.647793 C 213.396765 99.761689 213.440385 99.870739 213.520354 99.950708 Q 230.723528 117.149035 245.610005 132.144562 Q 245.631815 132.168795 245.685128 132.168795 Z M 222.144963 155.379388 C 222.186159 155.379388 222.220086 155.345461 222.220086 155.304265 L 222.220086 116.366302 C 222.220086 116.346915 222.212816 116.329952 222.200699 116.315412 L 213.595477 106.328896 C 213.551858 106.275583 213.464618 106.309509 213.464618 106.377362 L 213.464618 155.304265 C 213.464618 155.345461 213.498544 155.379388 213.539741 155.379388 L 222.144963 155.379388 Z M 277.988031 155.379388 C 278.051037 155.379388 278.101927 155.328498 278.101927 155.265492 L 278.101927 106.510645 C 278.101927 106.404019 277.971068 106.355552 277.900791 106.435522 L 269.411889 116.342069 C 269.394926 116.361455 269.385232 116.388112 269.385232 116.414768 L 269.385232 155.265492 C 269.385232 155.328498 269.436122 155.379388 269.499128 155.379388 L 277.988031 155.379388 Z M 236.17116 155.381811 C 236.214779 155.381811 236.251129 155.345461 236.251129 155.301842 L 236.251129 130.935323 C 236.251129 130.913513 236.243859 130.894127 236.226896 130.877163 L 229.044165 123.692009 C 228.995699 123.643543 228.908459 123.677469 228.908459 123.750169 L 228.908459 155.301842 C 228.908459 155.345461 228.944809 155.381811 228.988429 155.381811 L 236.17116 155.381811 Z M 262.495723 155.379388 C 262.553883 155.379388 262.60235 155.330921 262.60235 155.272762 L 262.60235 123.815599 C 262.60235 123.721089 262.488453 123.672623 262.4206 123.740476 L 255.264526 130.89655 C 255.245139 130.915937 255.233023 130.945016 255.233023 130.971673 L 255.233023 155.272762 C 255.233023 155.330921 255.281489 155.379388 255.339649 155.379388 L 262.495723 155.379388 Z" style="fill:#ffffff;"/>
		<path d="M 245.702091 119.914048 Q 245.760251 119.914048 245.782061 119.894661 Q 254.273387 111.350022 268.886028 96.669528 C 269.002347 96.550785 269.162286 96.485356 269.327072 96.485356 L 277.925024 96.485356 C 278.000147 96.485356 278.063154 96.548362 278.063154 96.625908 L 278.063154 99.739879 C 278.063154 99.853775 278.019534 99.962825 277.939564 100.042795 Q 260.687924 117.192655 245.757828 132.144562 Q 245.736018 132.168795 245.685128 132.168795 Q 245.631815 132.168795 245.610005 132.144562 Q 230.723528 117.149035 213.520354 99.950708 C 213.440385 99.870739 213.396765 99.761689 213.396765 99.647793 L 213.406458 96.533822 C 213.406458 96.456276 213.469465 96.393269 213.544588 96.393269 L 222.14254 96.417502 C 222.307326 96.417502 222.467265 96.485356 222.583584 96.604098 Q 237.155029 111.325789 245.622121 119.892238 Q 245.641508 119.914048 245.702091 119.914048 Z" style="fill:#0a2d53;"/>
		<path d="M 222.144963 155.379388 L 213.539741 155.379388 C 213.498544 155.379388 213.464618 155.345461 213.464618 155.304265 L 213.464618 106.377362 C 213.464618 106.309509 213.551858 106.275583 213.595477 106.328896 L 222.200699 116.315412 C 222.212816 116.329952 222.220086 116.346915 222.220086 116.366302 L 222.220086 155.304265 C 222.220086 155.345461 222.186159 155.379388 222.144963 155.379388 Z" style="fill:#0a2d53;"/>
		<path d="M 277.988031 155.379388 L 269.499128 155.379388 C 269.436122 155.379388 269.385232 155.328498 269.385232 155.265492 L 269.385232 116.414768 C 269.385232 116.388112 269.394926 116.361455 269.411889 116.342069 L 277.900791 106.435522 C 277.971068 106.355552 278.101927 106.404019 278.101927 106.510645 L 278.101927 155.265492 C 278.101927 155.328498 278.051037 155.379388 277.988031 155.379388 Z" style="fill:#0a2d53;"/>
		<path d="M 236.17116 155.381811 L 228.988429 155.381811 C 228.944809 155.381811 228.908459 155.345461 228.908459 155.301842 L 228.908459 123.750169 C 228.908459 123.677469 228.995699 123.643543 229.044165 123.692009 L 236.226896 130.877163 C 236.243859 130.894127 236.251129 130.913513 236.251129 130.935323 L 236.251129 155.301842 C 236.251129 155.345461 236.214779 155.381811 236.17116 155.381811 Z" style="fill:#0a2d53;"/>
		<path d="M 262.495723 155.379388 L 255.339649 155.379388 C 255.281489 155.379388 255.233023 155.330921 255.233023 155.272762 L 255.233023 130.971673 C 255.233023 130.945016 255.245139 130.915937 255.264526 130.89655 L 262.4206 123.740476 C 262.488453 123.672623 262.60235 123.721089 262.60235 123.815599 L 262.60235 155.272762 C 262.60235 155.330921 262.553883 155.379388 262.495723 155.379388 Z" style="fill:#0a2d53;"/>
	</g>
	<g id="surface4">
	</g>
</svg>
