<?xml version="1.0" encoding="utf-8"?>
<svg xmlns="http://www.w3.org/2000/svg" width="490pt" height="280pt" viewBox="0 0 490 280" version="1.1" xmlns:xlink="http://www.w3.org/1999/xlink">
	<g id="surface2" data-size="165.74388630431 148" data-bboxpos="162 49.848920679422" data-pivot="244.87194315216 123.84892067942" data-center="244.87194315216 123.84892067942">
		<path d="M 256.495951 49.978684 C 256.596023 50.047965 256.596023 50.196148 256.494027 50.263504 C 254.942912 51.291166 253.634279 52.536292 252.833703 54.224044 Q 252.283308 55.386418 251.963847 56.993342 Q 251.827211 57.67845 251.875322 57.826634 C 251.894567 57.888216 251.950376 57.932479 252.015808 57.936328 Q 252.641257 57.96327 252.73748 57.942101 Q 254.05766 57.651508 254.848613 57.588 Q 255.793523 57.511022 256.18034 57.434044 Q 257.152192 57.241598 257.506293 57.21658 Q 258.22989 57.166544 259.357624 56.985644 Q 260.339099 56.827839 261.205106 56.762407 Q 262.115375 56.695051 263.558721 56.390986 C 263.762714 56.346724 263.959008 56.494907 263.97248 56.704673 Q 264.016742 57.434044 263.818523 58.430914 Q 263.778109 58.638756 263.891652 58.883162 C 263.922444 58.950518 264.010969 58.967839 264.064854 58.915878 Q 264.932785 58.086436 265.585177 56.939457 Q 265.639062 56.84131 265.791095 56.752785 C 265.925807 56.673882 266.093235 56.770105 266.093235 56.925986 Q 266.093235 57.139601 266.099008 60.882677 Q 266.100933 62.148971 266.310699 63.076561 Q 266.659026 64.612281 266.893811 65.208863 Q 267.782911 67.45086 269.707372 68.93077 C 270.05185 69.194421 270.430969 69.386867 270.827407 69.531201 Q 273.910393 70.655086 275.386454 71.534565 Q 277.70158 72.912478 279.516346 74.746489 Q 279.982065 75.217982 279.964745 75.8646 Q 279.957047 76.160967 279.5914 77.028899 Q 279.191112 77.983431 278.692677 78.55692 Q 278.432875 78.857136 278.317407 78.864834 Q 277.776634 78.899474 277.420609 78.66469 Q 276.275555 77.908377 275.068918 76.988485 Q 271.327767 74.13451 269.757407 72.974061 Q 269.022264 72.429439 268.246706 72.040698 C 267.41149 71.619241 266.133649 71.771273 265.354242 72.092658 C 265.294584 72.117676 265.231077 72.133072 265.165645 72.142694 Q 264.698001 72.200428 263.375897 72.541057 Q 263.087228 72.616111 262.779314 72.446759 C 262.72158 72.415967 262.683091 72.358234 262.675393 72.294726 Q 262.63498 71.950248 262.733127 71.599996 Q 263.033343 70.541543 263.052588 70.26827 Q 263.067983 70.058503 263.547174 68.047442 Q 263.568343 67.955068 263.564494 67.931975 C 263.537552 67.758773 263.366275 67.647155 263.196922 67.691417 L 262.407893 67.905032 C 262.334764 67.924277 262.25971 67.933899 262.184656 67.933899 Q 261.276311 67.937748 260.275591 68.276453 C 260.229404 68.293773 260.181293 68.303396 260.133181 68.307245 Q 258.961185 68.428486 258.645573 68.549727 Q 258.03552 68.782586 257.448559 68.724852 C 257.294602 68.709457 257.196455 68.551651 257.25034 68.407317 L 260.706671 59.273828 C 260.756706 59.142964 260.647012 59.008252 260.508451 59.025572 L 259.765609 59.127569 C 259.690555 59.137191 259.61935 59.152587 259.548145 59.177605 Q 259.42498 59.250734 258.562822 59.500914 Q 256.638361 60.060932 254.380969 61.040482 Q 250.97275 62.518468 248.234243 64.519907 Q 245.96338 66.178791 243.929225 68.336111 Q 243.782966 68.491993 243.015107 69.456147 C 242.893866 69.60818 242.653308 69.575464 242.578254 69.394565 L 242.48588 69.169403 C 242.476258 69.144385 242.470484 69.117442 242.46856 69.088575 Q 242.430071 67.522065 242.449315 64.925968 Q 242.455089 64.190824 242.574405 63.58077 C 242.682175 63.020752 242.607121 62.424169 242.71874 61.785248 Q 242.84383 61.055878 243.040125 60.020518 Q 243.596294 57.089565 245.112768 54.564673 Q 246.792822 51.764583 249.731473 50.517533 C 250.328056 50.263504 251.140178 50.115321 251.730987 49.926724 C 251.825286 49.897857 251.923434 49.880537 252.023505 49.878612 Q 255.248901 49.809332 256.303505 49.901706 Q 256.39203 49.909404 256.495951 49.978684 Z" style="fill:#101214;"/>
		<path d="M 251.61552 99.947297 C 251.655934 99.920355 251.70597 99.962693 251.686725 100.006955 Q 251.492354 100.472675 251.209459 100.778664 C 251.176743 100.815229 251.147876 100.855642 251.122858 100.899905 C 250.247229 102.454869 249.354279 103.844329 248.705736 105.278052 Q 247.72811 107.44307 247.397103 108.412998 Q 246.652337 110.595336 246.369441 112.589077 Q 246.190466 113.861145 246.207786 115.45075 Q 246.225106 116.896019 246.756258 117.831307 Q 247.360538 118.891685 248.490196 119.546001 Q 249.106024 119.903951 250.002822 119.673015 Q 250.857282 119.453627 251.665556 118.895534 Q 252.808685 118.10458 254.044189 117.265516 Q 255.139207 116.522674 256.301581 115.479616 Q 258.116347 113.851523 259.867606 112.325426 Q 260.346796 111.907818 261.665052 111.093771 Q 262.713883 110.445228 265.367713 109.267458 Q 267.950339 108.12048 270.151922 107.058178 C 270.321274 106.977351 270.519494 107.08512 270.542587 107.269869 Q 270.642659 108.045426 270.30203 108.62084 C 270.273163 108.670876 270.236598 108.717063 270.196184 108.757476 Q 269.742012 109.211649 268.350627 110.023771 Q 267.496167 110.522207 266.911131 111.52485 Q 266.322246 112.531343 265.764152 114.170983 Q 265.030933 116.324455 263.826221 118.054544 Q 262.548379 119.882782 260.52962 120.573663 Q 259.588559 120.895048 258.029746 120.831541 Q 255.608775 120.733393 254.001851 120.719922 C 253.865214 120.719922 253.778613 120.864256 253.84212 120.983573 Q 253.999926 121.281864 254.434854 121.487782 C 254.46757 121.505102 254.500286 121.524346 254.529153 121.54744 Q 255.814692 122.553933 257.246491 123.264058 Q 258.811077 124.04154 259.794476 124.403339 Q 261.330196 124.96913 262.890933 125.088447 Q 263.845465 125.161576 264.655663 125.053807 Q 265.617893 124.926792 266.358811 124.61503 Q 269.462965 123.310246 270.494476 120.111792 Q 270.706166 119.453627 270.783145 118.487548 C 270.852425 117.598447 270.942875 117.048052 270.85435 116.28789 C 270.740807 115.281397 270.78122 114.480821 270.617641 113.560929 Q 270.315501 111.86548 269.67658 110.298969 C 269.614997 110.146937 269.665033 109.971811 269.797821 109.875588 Q 270.727336 109.202027 271.422066 108.538088 Q 271.774242 108.201307 272.176454 107.273718 Q 273.003972 105.374275 273.58131 104.285031 Q 274.414602 102.710822 274.158648 100.924923 C 274.149026 100.855642 274.127857 100.786362 274.095141 100.724779 Q 273.317659 99.2237 271.551005 99.250642 Q 270.042228 99.273736 268.666238 99.289132 C 268.046562 99.294905 267.792533 98.927333 267.646275 98.326901 Q 267.351832 97.106794 267.263307 96.390894 Q 267.195951 95.832801 267.022749 95.097657 Q 266.897659 94.556884 266.543559 93.875625 Q 265.537066 91.93192 265.032857 90.784941 C 264.884674 90.448161 264.784602 90.047873 264.665285 89.591776 C 264.445897 88.75656 264.971275 88.00987 265.742983 87.700031 Q 267.222893 87.109222 268.135087 86.81478 Q 273.271472 85.157819 277.143486 81.201129 Q 277.894026 80.433269 278.981346 79.051507 Q 280.288054 77.392622 281.281076 75.006291 Q 282.651292 71.715464 282.99577 68.57282 Q 283.132407 67.327694 283.026562 63.684691 C 283.024637 63.605788 283.01309 63.52881 282.991921 63.451831 C 282.843738 62.889889 282.889925 62.27791 282.789853 61.717892 Q 282.329907 59.169907 281.71408 56.839385 Q 281.161759 54.751346 279.964745 52.774925 C 279.860824 52.603648 280.062893 52.409278 280.230321 52.520896 Q 281.005878 53.038576 281.746795 53.710213 Q 283.124709 54.963037 286.502137 57.997911 C 287.296939 58.711885 288.091741 59.691436 288.728738 60.759511 Q 289.742928 62.460734 289.946921 62.930302 C 290.495392 64.200446 290.970734 65.181921 291.32291 66.265392 Q 292.952928 71.284385 292.85478 76.515068 C 292.83746 77.459978 292.673881 78.295194 292.64309 79.349798 C 292.641165 79.386363 292.639241 79.421003 292.633468 79.455643 L 292.21586 81.928575 C 292.181219 82.138341 292.283216 82.346183 292.467964 82.446255 Q 293.335896 82.913899 294.261561 83.539348 Q 299.91755 87.363251 304.386147 92.559294 Q 305.49656 93.852531 306.401057 95.118826 Q 310.611776 101.021146 311.441218 108.418771 Q 311.662531 110.393268 311.212208 112.619868 Q 310.463593 116.32253 309.65147 120.061756 C 309.485967 120.819994 309.181902 121.697548 308.704636 122.238321 Q 308.142693 122.877242 307.76165 122.940749 C 307.301704 123.019652 306.824438 123.231343 306.331776 123.344886 Q 304.634402 123.7394 302.642586 124.449526 C 302.573305 124.474544 302.5021 124.491864 302.430895 124.505335 Q 301.924762 124.591936 301.424402 124.922943 C 301.370517 124.957584 301.335877 125.015317 301.330104 125.080749 Q 301.297388 125.375191 301.366669 125.740839 Q 301.853557 128.323465 302.656057 131.469957 Q 303.318071 134.06413 304.007028 135.674903 Q 304.287999 136.334993 304.903827 137.447331 C 305.094348 137.789885 305.404186 137.761018 305.635122 137.497367 Q 307.497999 135.392008 309.29737 132.982583 Q 310.244204 131.712439 310.72147 130.754058 Q 311.294959 129.605155 311.57978 128.26958 C 311.604798 128.150263 311.752981 128.107925 311.839582 128.194526 Q 314.828269 131.225551 319.08325 132.212799 Q 319.912693 132.405245 323.265103 133.021072 Q 324.664185 133.27895 325.803466 133.931342 Q 326.873466 134.545245 327.300696 135.65181 C 327.473898 136.09636 327.67789 136.895011 327.69521 137.455029 Q 327.806829 141.049921 327.662495 142.816576 Q 327.439257 145.535838 326.517441 148.537996 Q 325.657207 151.332313 324.727693 154.519219 Q 323.975229 157.092222 323.576865 159.813409 Q 323.573016 159.844201 323.526829 159.963517 C 323.494114 160.044344 323.478718 160.130945 323.476793 160.21947 C 323.461398 161.010424 323.274725 161.678211 323.265103 162.390262 Q 323.245858 163.783571 323.105373 166.179524 Q 323.045714 167.186017 322.857117 167.867276 Q 322.608862 168.764074 322.404869 169.520387 Q 322.197027 170.295945 322.035373 172.112635 C 321.925678 173.325045 321.960319 174.131394 321.810211 175.120567 Q 321.719761 175.715225 321.535013 177.145099 C 321.452261 177.791718 321.304078 178.217023 321.146272 178.852095 Q 321.102009 179.032995 320.930732 179.519883 Q 320.214833 181.56366 320.091668 182.119829 Q 319.870355 183.126322 319.766434 185.293264 C 319.76066 185.393336 319.749114 185.491484 319.727945 185.587707 Q 319.606704 186.132329 319.595157 186.802041 C 319.593232 186.900189 319.579761 186.994487 319.554743 187.088786 Q 318.942765 189.380818 317.866992 190.87035 Q 315.057279 194.765458 310.70415 196.355062 Q 307.399852 197.563623 303.776093 197.84267 C 303.71451 197.848443 303.689492 197.765692 303.743377 197.7349 C 304.216794 197.473174 304.811453 197.292274 305.1771 197.094055 Q 307.88674 195.625692 309.024096 193.046915 C 309.301219 192.417616 309.747693 190.527796 309.141488 189.902347 C 308.718107 189.461645 307.86942 189.944685 307.505697 190.325728 Q 306.651237 191.226375 305.739042 192.011555 Q 304.859564 192.767868 303.791489 192.879487 C 303.651003 192.894882 303.564402 192.731303 303.652927 192.623534 Q 304.622855 191.451537 305.03469 189.936987 Q 305.325283 188.863138 304.965409 187.791214 Q 304.572819 186.624991 303.398899 185.797473 C 302.409726 185.102743 300.964456 184.885279 299.780913 185.164325 Q 299.180482 185.306735 298.891813 185.372167 Q 298.560805 185.447221 297.729439 185.887922 Q 297.363791 186.082293 296.182172 186.755854 C 295.591363 187.092635 295.056363 187.523714 294.434762 187.873965 C 294.352011 187.920153 294.263485 187.82393 294.31737 187.746951 Q 295.88773 185.478012 296.976975 183.070512 Q 297.923809 180.978624 297.752532 178.276682 Q 297.704421 177.506898 297.329151 176.332977 Q 297.109762 175.64402 296.786453 174.418139 C 296.384241 172.892042 297.93728 173.119128 298.724385 172.965171 Q 299.794384 172.75733 300.127316 172.711142 Q 300.945212 172.599524 301.368593 172.491754 C 302.434744 172.22233 302.89469 172.135729 303.67987 171.446772 Q 304.143665 171.038786 304.3746 170.345981 C 304.946165 168.629362 304.101327 166.937761 303.015931 165.598337 Q 301.840086 164.149218 300.177352 162.530747 Q 298.349115 160.750621 297.096291 159.492024 C 295.968557 158.360442 295.000554 157.138409 294.253863 155.820154 Q 293.944025 155.273607 293.562982 154.155496 Q 293.266615 153.283715 293.220428 152.396539 Q 293.151147 151.068661 293.35514 149.357816 Q 293.395554 149.030658 293.031831 148.838212 C 292.993342 148.817043 292.949079 148.803572 292.904816 148.801647 C 292.402532 148.767007 292.210086 148.77278 291.779007 148.680406 Q 290.812928 148.472564 290.299097 148.424453 C 289.538935 148.353248 288.840356 148.137708 287.876202 147.974129 Q 284.849025 147.456449 278.944781 145.913032 C 278.559889 145.811036 278.161526 145.626288 277.726598 145.689795 C 277.607281 145.707115 277.507209 145.791791 277.470645 145.907259 L 272.640249 161.200945 C 272.613307 161.285621 272.492066 161.279848 272.470897 161.193247 Q 271.847371 158.485532 270.554134 156.174255 Q 270.471382 156.026071 270.292407 155.875963 C 270.175015 155.777816 269.996041 155.854794 269.988343 156.008751 L 269.94408 156.994075 C 269.942156 157.024866 269.934458 157.057582 269.920987 157.086449 C 269.753559 157.454021 269.755483 157.965927 269.668882 158.431647 C 269.174296 161.104722 268.608505 163.62769 267.474998 166.12179 Q 266.027803 169.302923 264.016742 172.285837 C 263.9898 172.32625 263.928217 172.316628 263.91667 172.270441 C 263.841616 171.983696 263.974404 171.733517 263.982102 171.440999 C 264.009044 170.478768 263.991724 169.751322 264.086023 168.816035 Q 264.23998 167.276466 264.191868 165.861988 Q 264.186095 165.731125 264.153379 165.700333 C 264.066778 165.621431 263.930142 165.634902 263.860861 165.731125 Q 262.767768 167.253373 261.572678 168.867995 Q 261.482228 168.991161 261.386005 169.123948 Q 260.115861 170.88483 258.739872 173.020981 Q 256.062948 177.181664 253.697786 181.515549 C 253.618883 181.659883 253.39757 181.5983 253.405268 181.432797 Q 253.478397 179.918246 253.291725 178.78089 C 253.201275 178.232419 253.251311 177.662779 253.081959 177.102761 C 253.053092 177.010387 253.037696 176.914164 253.035772 176.817941 L 253.003056 175.653642 C 252.997282 175.463121 252.756725 175.382293 252.637408 175.530477 Q 252.360286 175.878804 252.235196 176.35607 C 252.217876 176.421502 252.189009 176.48116 252.146671 176.533121 Q 251.933056 176.800621 251.856077 177.077743 C 251.850304 177.098912 251.842606 177.120081 251.831059 177.14125 Q 249.542876 181.463588 247.635736 185.872527 Q 247.452912 186.293984 247.360538 186.496052 Q 245.692031 190.189091 245.093524 191.790242 Q 245.03579 191.944199 244.943416 192.046195 C 244.89338 192.098156 244.806779 192.08276 244.779837 192.015404 Q 241.400484 183.54393 237.1532 175.503534 C 237.089693 175.382293 236.908794 175.413085 236.887625 175.547797 C 236.7991 176.10589 236.643218 176.479236 236.660539 177.012311 Q 236.681708 177.62429 236.508506 178.126574 C 236.502733 178.143894 236.498884 178.163139 236.496959 178.182383 L 236.283344 181.336574 C 236.277571 181.434721 236.177499 181.496304 236.085125 181.461664 Q 235.931168 181.40393 235.858039 181.215333 Q 235.684837 180.772707 235.359603 180.212689 Q 231.064208 172.803517 226.178003 166.208391 C 226.158758 166.183373 226.143363 166.156431 226.131816 166.127564 Q 225.979784 165.754218 225.623759 165.594488 C 225.508291 165.542528 225.377428 165.632977 225.38705 165.759992 L 225.800809 172.187689 C 225.806582 172.272365 225.694964 172.307006 225.650701 172.235801 Q 225.323543 171.72197 224.06687 169.568499 C 222.494586 166.880028 221.255234 164.066467 220.547032 161.027744 Q 220.021654 158.768427 219.706043 156.661143 Q 219.657931 156.341683 219.471259 155.976035 C 219.434694 155.902906 219.330773 155.899057 219.286511 155.970262 Q 217.856637 158.296935 217.340881 161.020046 C 217.325486 161.100873 217.215791 161.11242 217.185 161.037366 Q 216.638453 159.715262 216.317068 158.701071 Q 215.814784 157.113391 215.797464 157.063355 Q 213.080126 148.994093 212.173705 146.145892 Q 211.992806 145.574327 211.346187 145.72636 Q 210.822734 145.849525 210.699569 145.901485 C 210.204982 146.113176 209.897069 146.06314 209.435198 146.245964 Q 209.190792 146.344111 208.817446 146.434561 Q 206.712087 146.95609 204.735666 147.50841 Q 203.721475 147.789381 203.719551 147.79323 Q 203.696457 147.814399 202.874713 148.004921 C 202.193454 148.162726 201.739281 148.384039 201.077267 148.437924 Q 200.963724 148.445622 200.265145 148.680406 C 200.149677 148.72082 200.03036 148.747762 199.909119 148.765082 Q 199.327932 148.84591 198.710181 149.094165 C 198.62358 149.13073 198.531206 149.149975 198.438832 149.151899 Q 197.794138 149.171144 196.962771 149.444417 C 196.781871 149.504075 196.677951 149.692672 196.724138 149.877421 Q 196.843454 150.352762 196.987789 151.467025 Q 197.374605 154.432618 195.686853 156.705406 Q 194.220415 158.679902 191.941854 160.731377 Q 191.000793 161.578139 188.362357 164.320495 Q 188.027501 164.666898 187.022933 166.008247 Q 186.108814 167.228355 185.737394 168.379182 C 185.539174 168.991161 185.569965 170.519182 185.945235 171.042635 C 186.611099 171.974074 187.344318 172.233876 188.373904 172.478283 Q 189.012825 172.628391 189.253383 172.641862 Q 189.882681 172.672653 192.684695 173.078714 C 192.750127 173.088337 192.81171 173.115279 192.86367 173.159542 C 193.152339 173.403948 193.365954 173.561754 193.34671 173.946646 Q 193.321692 174.473948 193.13117 175.05706 Q 192.825181 175.990423 192.590397 176.779452 Q 192.209354 178.061142 192.199731 179.435207 Q 192.192034 180.637995 192.659677 182.069793 Q 193.086908 183.374577 193.75662 184.521556 Q 194.574515 185.920638 195.221134 186.852077 C 195.300037 186.967545 195.334677 187.19848 195.532897 187.273534 C 195.567537 187.287005 195.594479 187.313948 195.609875 187.346663 L 195.811943 187.808534 C 195.84081 187.873965 195.769605 187.939397 195.706098 187.902832 Q 195.311584 187.675746 192.490325 185.941807 Q 191.520397 185.345225 190.017393 185.083498 Q 187.771548 184.688984 186.228131 186.124631 Q 184.981081 187.283156 185.12734 189.057509 Q 185.158131 189.430854 185.256278 189.944685 C 185.435253 190.876124 186.022214 191.792167 186.616872 192.561951 C 186.705397 192.677418 186.62457 192.844847 186.478311 192.846771 Q 185.581512 192.858318 184.855991 192.317544 Q 183.98421 191.669001 182.975793 190.668282 Q 182.352268 190.05053 181.672933 189.756088 C 181.214912 189.555944 180.982052 189.833066 180.762664 190.202562 C 180.724174 190.267994 180.701081 190.339199 180.691459 190.414253 Q 180.500937 192.134721 181.14948 193.38562 Q 182.406153 195.81044 184.917573 197.070961 Q 185.414084 197.321141 186.341674 197.738749 C 186.366692 197.750296 186.380163 197.779163 186.37439 197.806105 C 186.366692 197.833048 186.341674 197.852292 186.312807 197.848443 Q 184.072735 197.607886 182.53894 197.299972 C 177.795146 196.347364 173.580578 193.680062 171.232736 189.46357 Q 170.797808 188.686088 170.382124 187.075314 Q 170.166585 186.243948 170.105002 184.650494 Q 170.058815 183.447707 169.927952 182.214128 Q 169.747053 180.526376 169.710488 179.498714 Q 169.68547 178.859793 169.633509 178.692365 C 169.514193 178.313247 169.54306 177.980315 169.423743 177.633912 Q 168.907988 176.138606 168.446117 174.098678 C 168.059301 172.391682 167.52815 170.498013 167.162502 168.90456 Q 167.006621 168.225225 166.998923 167.81724 C 166.989301 167.338049 166.852664 166.92429 166.831495 166.362348 C 166.791081 165.300046 166.864211 163.748931 166.694858 162.430675 Q 166.390794 160.078985 166.346531 159.874992 C 165.92315 157.888949 165.736477 156.890154 165.303474 155.416017 Q 164.466333 152.569741 163.011441 148.058806 Q 162.942161 147.847115 162.395614 145.378032 Q 162.187772 144.446593 162.181999 143.977025 C 162.174301 143.384291 162.014571 142.833896 162.008798 142.100676 Q 161.993402 139.931809 162.004949 138.515407 C 162.010722 137.778338 162.176226 137.212547 162.224337 136.502421 C 162.23011 136.41582 162.245506 136.333069 162.270524 136.252241 C 162.693905 134.814669 163.325128 133.746594 164.803114 133.169256 Q 165.801909 132.77859 166.589013 132.655425 C 167.65324 132.491846 168.482682 132.24359 169.573851 132.195479 C 169.59502 132.193554 169.618114 132.19163 169.639283 132.187781 L 171.76966 131.777871 C 171.777358 131.775947 171.785056 131.774022 171.792754 131.772098 C 172.489409 131.546936 173.012862 131.464184 173.551711 131.219778 Q 175.94189 130.138231 177.754732 128.111774 C 177.893293 127.957817 178.147322 128.029022 178.183887 128.233015 Q 178.335919 129.085551 178.362861 130.12476 Q 178.378257 130.734814 178.949822 131.571954 Q 180.599084 133.987152 183.420343 137.539705 C 183.603167 137.770641 183.963041 137.736 184.099678 137.476198 Q 184.220919 137.247187 184.473023 137.004705 Q 185.260127 136.246468 185.881728 134.95708 Q 186.65921 133.344382 187.40975 130.796396 Q 188.158365 128.254184 188.766494 125.357871 C 188.801134 125.198141 188.729929 125.034562 188.589444 124.95181 C 188.060217 124.636199 187.561782 124.564994 187.063347 124.422584 Q 185.629624 124.010749 184.322915 123.658573 Q 183.599318 123.462278 182.052052 122.95422 Q 180.953185 122.594346 180.412412 121.291487 Q 180.089102 120.514005 179.871638 119.211145 Q 179.698437 118.173861 179.469426 117.086541 Q 179.217322 115.891451 178.589948 113.006685 Q 178.412897 112.186865 178.335919 111.463268 C 178.24162 110.581865 178.17234 110.177728 178.197358 109.386775 Q 178.205056 109.159689 178.330146 107.74521 C 178.563005 105.066362 179.305847 102.477962 180.385469 99.885714 Q 181.484336 97.247279 183.64743 94.277837 Q 188.481674 87.636524 195.201889 82.881183 C 195.269246 82.833071 195.311584 82.759942 195.319282 82.679114 Q 195.355846 82.294222 195.278868 81.957442 Q 194.955559 80.550661 194.724623 79.10924 Q 194.487915 77.646651 194.497537 76.226399 Q 194.511008 73.809277 194.547573 73.010626 Q 194.586062 72.160014 195.026764 69.837191 Q 195.644515 66.579079 197.201404 63.322892 Q 198.223292 61.182892 199.787878 59.416238 C 200.5134 58.598342 201.312051 58.05372 202.120324 57.318576 Q 204.754911 54.920698 206.402249 53.423468 Q 206.896835 52.973145 207.422213 52.859601 C 207.551151 52.832659 207.649299 52.973145 207.580018 53.084763 Q 206.25599 55.217065 205.457339 57.491777 Q 203.958184 61.758306 203.942788 66.367389 C 203.938939 67.420068 204.087123 68.103252 204.144857 69.088575 Q 204.154479 69.279097 204.300738 70.162424 Q 204.658688 72.321669 205.568957 74.61755 Q 205.588202 74.665662 206.065468 75.785697 Q 206.377231 76.518917 206.623562 76.923054 Q 207.818651 78.886003 209.011817 80.265841 Q 211.654101 83.325733 215.241295 85.146273 C 215.914856 85.488826 216.82705 85.919906 217.621852 86.193179 Q 219.015162 86.674294 220.743327 87.245859 Q 220.968489 87.320913 221.949964 87.823197 Q 223.03151 88.375517 222.798651 89.653359 Q 222.683183 90.284582 222.213615 91.597064 Q 221.884532 92.515031 221.553525 93.517675 Q 221.172482 94.666578 220.327644 97.578286 C 220.202554 98.009365 220.013957 98.31343 219.844604 98.661758 Q 219.75223 98.850355 219.355791 99.052423 C 219.298057 99.08129 219.232626 99.088988 219.171043 99.073592 Q 218.866978 99.000463 218.28964 99.027405 Q 216.353633 99.112081 215.75705 99.158268 C 215.70509 99.162117 215.655054 99.171739 215.606942 99.187135 Q 214.573507 99.520067 214.153975 100.339887 C 213.790252 101.053862 213.915342 102.270121 214.159748 103.070696 Q 214.373363 103.767351 214.717842 104.48325 Q 215.872518 106.886901 217.454424 108.820984 C 217.850863 109.307872 218.616798 109.638879 218.291565 110.470246 Q 217.858561 111.571037 217.608381 113.131775 Q 217.337032 114.813753 217.254281 116.068501 Q 217.098399 118.454832 217.644946 120.573663 Q 217.870108 121.449292 218.553291 122.29413 Q 221.184029 125.546468 225.554478 125.113465 Q 226.174154 125.051882 227.244154 124.880605 C 227.319208 124.869058 227.390413 124.849814 227.461618 124.820947 Q 228.029334 124.601558 228.468111 124.518807 C 228.525845 124.50726 228.581654 124.48994 228.637463 124.466846 Q 231.479891 123.292925 234.056744 121.557062 C 234.110629 121.522422 234.166438 121.493555 234.226096 121.472386 Q 234.593668 121.339598 234.878488 121.022062 C 234.992031 120.896972 234.901582 120.696828 234.732229 120.696828 Q 232.613398 120.704526 229.403399 120.837314 Q 228.839532 120.860408 227.896546 120.750713 Q 227.051708 120.65449 226.43973 120.375444 C 224.186187 119.351631 222.862158 117.415624 222.273273 114.986955 Q 222.136636 114.419239 221.894154 112.908537 Q 221.761367 112.084868 221.526582 111.72307 Q 221.14169 111.134185 220.649029 110.833969 Q 219.713741 110.266253 218.899694 109.677368 Q 217.73732 108.836379 218.047158 107.404581 C 218.074101 107.277566 218.204964 107.204437 218.328129 107.242926 Q 218.586007 107.323753 218.826565 107.500804 C 218.868903 107.531595 218.91509 107.558538 218.963201 107.581631 Q 223.325953 109.604239 225.481348 110.706955 C 227.053633 111.511379 228.027409 112.419724 229.87874 113.97084 Q 232.948255 116.541919 235.425035 118.175785 Q 236.7991 119.082206 237.8691 119.530605 Q 238.484927 119.790408 239.506815 119.917422 C 241.32543 120.142584 242.599423 118.420192 242.907337 116.811343 Q 243.082463 115.885678 242.993938 114.719455 Q 242.647535 110.13539 240.574891 106.238358 Q 239.716582 104.619887 238.469531 102.710822 C 238.444513 102.672333 238.452211 102.620372 238.488776 102.591506 L 238.492625 102.589581 C 238.527265 102.564563 238.573452 102.570336 238.602319 102.601128 Q 238.829405 102.859006 239.112301 103.03798 C 239.118074 103.039905 239.121923 103.043754 239.125772 103.047603 L 243.00356 106.67521 C 243.009333 106.680984 243.013182 106.684833 243.018956 106.688682 C 243.75025 107.129383 244.416114 107.885696 245.220538 106.906146 Q 248.715358 102.639617 250.678308 100.728628 Q 251.203685 100.216721 251.61552 99.947297 Z M 285.183882 59.664493 Q 285.191579 59.728 285.915177 62.443414 Q 286.076831 63.049619 286.174979 63.67122 Q 286.355878 64.818198 286.386669 64.910572 Q 286.511759 65.301238 286.517533 65.942083 C 286.52523 66.744583 286.671489 67.702964 286.569493 68.543953 C 286.486741 69.234834 286.561795 69.935338 286.411687 70.637766 Q 286.34818 70.932208 286.101849 72.185032 Q 285.489871 75.327676 283.809817 78.34523 Q 280.457407 84.376488 274.558936 87.950211 Q 272.284224 89.328125 269.770879 90.140247 Q 269.541868 90.213377 269.453343 90.369258 C 269.412929 90.436614 269.420627 90.523215 269.472587 90.580949 Q 270.775447 92.083952 272.451652 93.417603 C 273.019368 93.869851 274.389584 93.140481 274.787947 92.936488 Q 277.318612 91.637477 279.568306 89.734186 C 284.756651 85.340643 288.867299 79.30746 289.186759 72.33514 Q 289.232946 71.332496 289.104007 70.60505 Q 289.030878 70.191291 289.025104 69.683234 Q 289.02318 69.502334 288.900014 68.767191 Q 288.626741 67.135248 288.320752 66.148 Q 287.795374 64.462173 287.168 62.86872 Q 286.99095 62.418396 286.244259 61.046256 C 286.215392 60.994295 286.192299 60.942335 286.174979 60.88845 Q 286.051813 60.520878 285.828576 60.264925 C 285.790087 60.220662 285.763144 60.166777 285.753522 60.109044 Q 285.686166 59.722227 285.293576 59.577892 C 285.235842 59.556723 285.176184 59.604835 285.183882 59.664493 Z M 201.573778 60.361148 Q 201.373634 60.628648 201.296655 60.682533 C 201.24277 60.721022 201.196583 60.771058 201.165792 60.828792 Q 200.430648 62.183612 200.363292 62.339493 Q 199.19322 65.033738 198.49849 68.216795 Q 197.925001 70.841759 198.01545 72.958665 Q 198.102051 75.039007 198.867986 77.57737 Q 199.499209 79.673107 200.7809 81.861219 Q 202.557177 84.896093 205.25527 87.576866 Q 208.392141 90.694492 211.883112 92.493862 Q 212.416187 92.770984 213.973076 93.407981 C 214.856403 93.771704 215.268237 93.542693 215.924478 92.965355 Q 217.092626 91.937693 218.370468 90.513592 C 218.399334 90.480877 218.393561 90.430841 218.356996 90.407747 Q 217.868183 90.097909 217.358201 89.938179 Q 217.313939 89.924708 216.536457 89.643736 Q 216.053417 89.46861 214.917986 88.977873 Q 209.575684 86.674294 205.734461 82.057514 Q 201.899011 77.448431 200.742411 71.078467 C 200.640414 70.526147 200.653886 69.991147 200.501853 69.32336 C 200.499929 69.309888 200.498004 69.298342 200.498004 69.286795 L 200.498004 66.276939 C 200.498004 66.240374 200.503778 66.205734 200.5134 66.173018 Q 200.698148 65.56104 200.69045 64.746993 C 200.69045 64.718126 200.694299 64.689259 200.700073 64.660392 L 201.127303 62.664727 C 201.129227 62.655105 201.133076 62.643558 201.136925 62.632011 L 201.766224 60.457371 C 201.800864 60.339979 201.646907 60.263 201.573778 60.361148 Z M 282.884151 113.458933 C 282.970752 113.408897 283.026562 113.316523 283.03041 113.216451 Q 283.038108 113.108681 283.219008 112.871973 Q 283.490356 112.514023 284.306328 110.591487 Q 284.442964 110.272027 284.741256 110.302818 C 284.79899 110.308591 284.852874 110.329761 284.899061 110.362476 Q 286.199997 111.276595 287.246903 112.539041 Q 288.944277 114.588591 289.948845 117.140426 C 290.006579 117.288609 290.204799 117.3194 290.304871 117.194311 Q 290.433809 117.03458 290.618558 116.566937 Q 291.192047 115.102422 291.800176 112.744958 Q 291.821345 112.662206 292.123486 110.887854 Q 292.294763 109.890984 292.306309 109.009581 C 292.319781 108.116631 292.448719 107.100516 292.385212 105.974707 Q 292.287065 104.206128 292.275518 103.374761 C 292.273593 103.249671 292.258198 103.124581 292.229331 103.00334 Q 292.081147 102.406757 292.083072 101.82557 C 292.083072 101.717801 292.061903 101.610031 292.021489 101.509959 Q 291.904097 101.219365 291.884852 100.601614 C 291.882928 100.507315 291.871381 100.414941 291.852137 100.324491 Q 291.540374 98.83111 291.505734 98.122909 C 291.48264 97.624473 291.338306 97.330031 291.328683 96.760391 Q 291.32291 96.292747 291.244007 95.734653 Q 291.088126 94.639635 291.192047 93.309833 Q 291.307514 91.816452 291.580788 90.296128 Q 291.62505 90.055571 291.919493 89.738035 C 291.96568 89.687999 292.033036 89.661056 292.100392 89.66683 Q 292.485284 89.695697 292.791273 90.078664 Q 294.092208 91.697136 295.146813 93.577333 C 296.293791 95.62111 297.288737 97.755337 298.404924 99.931901 Q 299.299798 101.677387 300.002226 103.490228 Q 301.208863 106.602081 301.297388 109.90253 C 301.316633 110.666541 301.137658 111.428627 301.106866 112.206109 C 301.104942 112.265768 301.097244 112.323501 301.083773 112.381235 C 300.920194 113.066343 300.745068 113.963142 300.492964 114.73485 Q 299.401795 118.079562 297.306057 121.609023 Q 297.038557 122.059346 296.857658 122.486577 C 296.836489 122.532764 296.805698 122.575102 296.767208 122.609742 Q 296.480464 122.865695 296.359223 123.244814 C 296.334205 123.323717 296.384241 123.404544 296.465068 123.414166 Q 296.532424 123.421864 296.649816 123.389148 Q 297.894942 123.04467 299.422964 122.042026 Q 300.512208 121.326127 301.466741 120.148357 Q 302.338521 119.074508 302.663755 118.60494 Q 303.07174 118.016055 303.41237 117.742782 C 303.512442 117.661954 303.654852 117.658106 303.760697 117.733159 Q 304.264906 118.093034 304.626704 118.6569 C 304.657496 118.706936 304.699834 118.751199 304.74987 118.785839 Q 304.938467 118.916703 305.003899 119.011001 C 305.161704 119.232314 305.483089 119.238087 305.610104 119.020623 C 305.742891 118.797386 305.74674 118.495246 305.827568 118.166163 Q 306.630068 114.89458 306.87255 112.190714 Q 307.082316 109.85057 306.822514 107.306433 Q 306.572334 104.8412 305.798701 102.529923 Q 304.388071 98.309581 301.618773 94.799366 Q 297.22523 89.229977 291.045788 85.740931 C 290.932245 85.677424 290.789835 85.750553 290.778288 85.881416 C 290.737874 86.308647 290.443432 86.591542 290.374151 86.90138 Q 290.318342 87.155409 289.71791 88.335103 Q 288.47086 90.786866 286.989025 92.965355 Q 285.666921 94.912909 283.971472 96.723826 Q 282.376094 98.426973 280.528612 100.130121 C 280.37658 100.270606 280.336166 100.493844 280.430465 100.680516 Q 281.862263 103.5037 282.464619 106.557818 Q 282.657065 107.53352 282.65899 107.824113 C 282.662839 108.828681 282.830267 109.900606 282.749439 111.01102 Q 282.582011 113.287656 282.566616 113.462782 C 282.558918 113.543609 282.645518 113.599419 282.714799 113.559005 L 282.884151 113.458933 Z M 205.114785 114.732926 C 205.153274 114.73485 205.18599 114.702134 205.184065 114.663645 Q 205.087842 112.654509 205.120558 110.535678 C 205.128256 110.002602 205.264893 109.590768 205.278364 109.136595 Q 205.295684 108.626613 205.395756 108.087764 Q 205.584353 107.08512 205.692123 106.58861 Q 206.25599 103.96557 207.545378 101.615804 Q 207.705108 101.321362 207.597339 100.905678 C 207.581943 100.84602 207.549227 100.79406 207.501116 100.753646 Q 205.041655 98.754132 202.957465 96.471722 Q 199.225936 92.386092 197.051296 87.318988 Q 196.939677 87.057262 196.808814 86.903305 C 196.712591 86.789762 196.547087 86.768593 196.425846 86.855193 Q 191.191314 90.548233 187.398203 95.723107 Q 186.39171 97.095247 185.598832 98.561686 Q 184.600037 100.407243 184.153563 101.598484 Q 183.55698 103.193862 183.066243 105.322315 Q 182.883419 106.113268 182.640937 108.060822 Q 182.479282 109.369455 182.665955 112.691073 Q 182.764102 114.426937 183.628185 117.915983 Q 183.780217 118.527962 183.791764 118.610713 Q 183.830253 118.882062 184.101602 118.926325 Q 184.247861 118.947494 184.546153 118.735803 Q 185.373671 118.146918 185.677735 118.008357 Q 185.987573 117.869796 186.287789 118.004508 C 186.341674 118.027602 186.387861 118.066091 186.422501 118.112278 Q 186.863203 118.716559 187.542537 119.578717 Q 189.757591 122.388429 193.027249 123.797134 C 193.169659 123.858717 193.331314 123.783663 193.344785 123.648951 Q 193.358256 123.520012 193.183131 123.416091 C 193.123472 123.381451 193.075361 123.32949 193.042645 123.269832 Q 192.463382 122.194059 191.826386 121.074023 Q 190.652465 119.016775 189.823023 117.011487 Q 189.124444 115.317962 188.562501 112.731487 Q 188.329642 111.659563 188.335415 110.345156 Q 188.341188 108.347566 188.393149 107.947279 Q 188.806908 104.800786 190.265649 101.610031 Q 191.714767 98.43852 192.975289 95.663448 Q 194.074156 93.242477 195.530972 91.244887 Q 195.929335 90.698341 196.320001 91.02165 C 196.370037 91.062064 196.408526 91.114024 196.43162 91.171758 C 197.697915 94.21433 197.8384 97.503232 197.305325 100.761344 C 197.216799 101.296344 197.187933 101.871757 197.074389 102.472189 Q 196.204533 107.112063 196.920433 111.769257 Q 197.311098 114.313393 198.127069 116.362944 Q 198.477321 117.238573 198.81795 118.181559 Q 198.89108 118.379778 199.058508 118.47985 C 199.160504 118.539508 199.289443 118.47985 199.312537 118.364382 Q 200.105414 114.319167 203.019047 111.567189 C 203.053688 111.534473 203.094101 111.509455 203.140288 111.492135 Q 203.573292 111.326631 203.727249 111.765408 Q 204.294965 113.401199 204.90117 114.542404 Q 205.001242 114.731001 205.114785 114.732926 Z M 232.836636 117.186613 Q 232.898219 116.949904 232.534496 116.734365 Q 231.791654 116.293663 231.054586 115.91262 Q 230.471474 115.612404 228.233327 113.782242 C 228.212158 113.764922 228.185215 113.753375 228.158273 113.749527 L 227.869604 113.712962 C 227.73874 113.695642 227.625197 113.805336 227.638668 113.936199 Q 227.815719 115.623951 228.995413 116.757458 C 229.961492 117.685048 231.499136 118.125749 232.711546 117.359814 C 232.775053 117.3194 232.819316 117.257818 232.836636 117.186613 Z M 260.383361 113.968915 C 260.392983 113.770696 260.171671 113.64753 260.008091 113.759149 C 259.600106 114.038196 259.24793 114.240264 258.9073 114.52316 Q 257.515915 115.675911 255.949405 116.393735 Q 255.633793 116.53807 255.637642 116.795947 Q 255.639566 117.046127 255.868577 117.252044 C 256.565232 117.881343 257.252264 117.737008 258.158685 117.600372 C 258.224117 117.590749 258.289548 117.56958 258.349207 117.540713 Q 259.725196 116.853681 260.285214 115.464221 C 260.306383 115.410336 260.319854 115.350678 260.321778 115.292944 L 260.383361 113.968915 Z M 246.292463 165.754218 C 246.513776 165.361628 246.448344 164.976736 246.633092 164.5726 Q 246.871725 164.052995 246.887121 163.593049 C 246.889045 163.529542 246.90829 163.467959 246.94293 163.414075 Q 247.031455 163.277438 247.181563 162.517276 Q 247.291257 161.963031 247.395178 161.622402 Q 247.691545 160.65055 247.92248 159.468931 Q 248.066815 158.726089 248.307373 157.736917 Q 249.109873 154.417222 249.793056 149.792744 Q 250.056707 148.012618 250.237606 146.904129 Q 250.328056 146.353734 250.333829 146.022726 C 250.343452 145.45886 250.270322 144.952727 250.499333 144.662133 C 250.547444 144.602475 250.641743 144.619795 250.664836 144.692924 C 251.057426 145.928428 251.088218 147.100424 251.255646 148.50528 Q 251.515448 150.67992 251.480808 155.722007 Q 251.478883 155.920226 251.536617 155.999129 C 251.605898 156.093427 251.752157 156.072258 251.790646 155.962564 Q 252.889513 152.925766 253.520736 149.948626 Q 254.096149 147.233212 254.506059 144.537043 C 254.523379 144.425424 254.675412 144.404255 254.723523 144.506252 C 254.84284 144.76028 254.979477 145.210604 254.952534 145.603194 C 254.91212 146.168985 255.12766 146.892583 255.150754 147.523806 Q 255.277768 150.743428 255.112264 152.67751 Q 254.962156 154.419147 254.958307 154.738607 C 254.942912 156.066485 254.713901 157.269273 254.604207 158.693373 Q 254.556095 159.318823 254.379045 160.32724 Q 254.225088 161.208643 254.248182 161.980352 C 254.250106 162.070801 254.375196 162.09197 254.407912 162.009219 Q 255.460592 159.395801 256.12453 156.969057 Q 256.944351 153.968823 257.481275 151.561323 Q 258.068235 148.934435 258.624404 145.560856 Q 259.26525 141.677295 259.378793 140.988338 Q 259.721347 138.902223 259.850286 138.065083 Q 260.040807 136.819957 260.177444 135.084094 Q 260.196689 134.83199 260.240951 134.579885 C 260.400681 133.658069 260.362192 132.386 260.350645 130.526972 C 260.344872 129.558968 260.06775 128.492817 259.831041 127.790389 Q 259.163253 125.813968 257.361958 124.936415 C 257.313847 124.913321 257.259962 124.89985 257.206077 124.89985 L 255.006419 124.89985 C 254.904423 124.89985 254.804351 124.867134 254.721599 124.805551 C 253.384099 123.802907 251.973469 123.100479 250.372318 122.342242 Q 248.374729 121.399256 246.150053 120.864256 Q 245.006923 120.589059 243.721384 120.714149 C 243.636707 120.723771 243.553956 120.741091 243.471204 120.768033 Q 241.352373 121.472386 239.181582 122.234472 Q 237.461114 122.838753 236.550844 123.317943 Q 235.309567 123.97226 234.056744 124.734346 C 233.854675 124.857512 233.621816 124.922943 233.383183 124.922943 L 231.477967 124.922943 C 231.447176 124.922943 231.418309 124.928717 231.389442 124.940263 Q 229.767122 125.598429 228.937679 126.818537 Q 228.083219 128.080983 227.719496 129.435803 C 227.330755 130.881073 227.051708 132.172385 227.390413 133.83127 C 227.525125 134.500982 227.657913 135.340047 227.900395 136.09636 C 229.037751 139.650838 229.919154 142.889705 230.604262 146.634705 Q 231.037265 149.003716 231.920593 152.854561 Q 232.218884 154.159345 232.688452 155.723931 Q 233.265791 157.646467 233.577553 158.560586 Q 234.139496 160.20215 234.714909 161.524255 Q 234.741852 161.583913 234.761096 161.587762 C 234.828452 161.607006 234.897733 161.555046 234.907355 161.478067 Q 234.965089 160.989255 234.916978 160.621683 Q 234.882337 160.350334 234.612913 158.741485 C 234.522463 158.208409 234.578272 157.700352 234.462805 157.188445 C 234.330017 156.597636 234.437787 155.831701 234.274208 155.204327 Q 234.151042 154.732834 234.187607 154.382582 Q 234.220323 154.065046 234.05097 152.23296 Q 233.972067 151.357331 233.989388 148.734291 C 233.995161 147.764363 234.177985 146.992654 234.168362 146.034273 C 234.160665 145.362637 234.260737 144.812241 234.44356 144.161773 C 234.462805 144.094417 234.543632 144.071324 234.595593 144.117511 Q 234.612913 144.132906 234.62446 144.227205 Q 235.192175 148.303212 236.212139 152.271449 Q 236.695179 154.15742 237.361042 155.787438 Q 237.436096 155.970262 237.582355 156.018373 C 237.678578 156.051089 237.776726 155.972186 237.767103 155.872114 Q 237.605449 154.207456 237.638164 152.094399 Q 237.655485 151.105226 237.709369 150.658751 C 237.834459 149.659957 237.774801 149.14805 237.957625 148.34555 Q 238.01151 148.106917 238.030754 147.369849 C 238.032679 147.333284 238.036528 147.296719 238.044226 147.262079 L 238.631186 144.723716 C 238.646582 144.65636 238.735107 144.635191 238.779369 144.689075 Q 238.83133 144.750658 238.840952 144.846881 Q 238.948722 146.117025 239.093056 146.596216 C 239.125772 146.702061 239.145017 146.811755 239.148866 146.923374 C 239.187355 148.010694 239.470251 149.099939 239.539531 149.942852 C 239.603038 150.71841 239.782013 151.403518 239.949441 152.388841 Q 240.750017 157.096071 242.403128 163.720064 Q 242.691797 164.878589 243.124801 165.958211 C 243.144045 166.004398 243.19793 166.025567 243.242193 166.002474 Q 243.392301 165.923571 243.392301 165.708031 Q 243.384603 160.748697 243.409621 158.616395 C 243.423092 157.267348 243.630934 155.931773 243.615538 154.499974 C 243.613614 154.332546 243.629009 154.165118 243.657876 154.001539 Q 243.78874 153.283715 243.80606 152.19832 C 243.807984 152.050136 243.821455 151.901953 243.846473 151.757618 Q 244.004279 150.833877 243.994657 150.162241 C 243.994657 150.148769 243.996581 150.133374 243.998506 150.119903 L 244.777912 144.073248 C 244.791384 143.963554 244.941491 143.946234 244.981905 144.04823 C 245.272499 144.791072 245.264801 145.836054 245.387966 146.36528 C 245.645844 147.487241 245.707427 148.643841 245.824819 149.71769 Q 245.967229 151.012852 245.996096 151.178356 C 246.173146 152.202169 246.061527 153.360694 246.188542 154.44224 Q 246.278991 155.233194 246.286689 156.237762 Q 246.317481 161.16438 246.101941 165.377024 Q 246.100017 165.423211 246.207786 165.744596 C 246.221258 165.783085 246.273218 165.788859 246.292463 165.754218 Z M 216.480647 125.477188 C 216.388273 126.756954 216.336313 128.375425 216.638453 129.734094 Q 216.88286 130.842583 216.932896 130.990767 C 217.519856 132.722781 218.251151 134.285443 219.325 135.992439 Q 221.145539 138.888752 223.732014 142.764615 C 223.733938 142.768464 223.735863 142.772313 223.737787 142.776162 Q 223.878273 143.174525 224.28241 143.422781 C 224.324748 143.447799 224.374784 143.413158 224.367086 143.365047 C 224.132302 141.973662 223.783974 140.849777 223.289388 139.346774 Q 221.59009 134.181522 218.918939 129.395389 Q 217.467896 126.795443 216.742374 125.421379 C 216.676942 125.298213 216.49027 125.336702 216.480647 125.477188 Z M 263.903199 144.261845 Q 264.111041 144.179093 264.207264 143.909669 Q 264.209188 143.903896 264.415106 143.60368 Q 267.523109 139.058104 269.19739 136.234921 Q 269.449494 135.809615 270.1423 134.487511 Q 270.602246 133.611882 271.083361 132.328267 Q 271.468253 131.300605 271.641454 130.05163 Q 271.94167 127.87699 271.69149 125.856307 C 271.668397 125.669634 271.450933 125.579184 271.302749 125.692727 Q 271.108379 125.840911 271.108379 126.05645 C 271.108379 126.131504 271.081436 126.202709 271.033325 126.260443 Q 270.852425 126.468285 270.731184 126.704994 Q 270.467533 127.218824 269.387911 129.108645 Q 268.893325 129.974652 268.300591 131.160119 Q 267.463451 132.832475 267.276778 133.248159 Q 265.394656 137.389597 264.197642 141.858194 Q 263.88203 143.032115 263.728073 144.123284 C 263.714602 144.221432 263.810825 144.29841 263.903199 144.261845 Z M 261.501473 127.209202 C 261.453361 127.921253 262.167336 128.708357 262.74275 129.081702 C 262.792786 129.114418 262.844746 129.137511 262.900555 129.152907 Q 263.435555 129.303015 263.554872 129.277997 Q 264.380465 129.100947 264.143757 128.315767 C 264.126437 128.261882 264.101419 128.209922 264.064854 128.163735 Q 263.320088 127.232296 261.899836 126.912835 C 261.703541 126.868573 261.514944 127.009058 261.501473 127.209202 Z M 226.17223 127.028303 L 225.069514 127.274634 C 225.023327 127.284256 224.979064 127.301576 224.936726 127.322745 C 224.4075 127.603717 223.891744 127.925101 223.932158 128.57172 Q 223.978345 129.287619 224.688471 129.224112 Q 225.260036 129.172152 225.42169 129.066306 Q 225.997104 128.689112 226.403165 127.990533 C 226.432032 127.940497 226.451276 127.882763 226.460899 127.823105 Q 226.510935 127.46708 226.445503 127.195731 C 226.414712 127.07449 226.293471 127.00136 226.17223 127.028303 Z M 171.640722 168.294506 Q 171.642646 168.292582 171.679211 168.257941 C 171.702304 168.232923 171.721549 168.205981 171.73502 168.175189 Q 172.766531 165.858139 173.55556 164.71501 C 174.315721 163.618067 175.268329 163.364039 176.465344 162.95028 C 176.534624 162.927186 176.600056 162.896395 176.659714 162.855981 Q 177.327502 162.426826 177.583455 162.151629 C 179.667646 159.892312 181.010919 158.306557 182.215631 156.056863 Q 182.556261 155.417942 182.910361 154.388356 C 183.310649 153.22983 183.210577 151.928895 183.202879 150.626036 C 183.197106 149.923608 183.283707 149.198086 183.941872 148.82859 C 183.989984 148.801647 184.043868 148.784327 184.097753 148.782403 L 185.850937 148.709273 C 186.068401 148.699651 186.233904 148.507205 186.212735 148.289741 Q 186.206962 148.214687 186.039534 148.079975 Q 185.25243 147.442978 183.508868 146.467277 Q 182.677502 146.001557 180.835793 144.908464 Q 179.442484 144.080946 179.028725 143.676809 Q 177.8702 142.545227 177.400631 140.792043 C 177.381387 140.720838 177.356369 140.651558 177.323653 140.584202 C 177.125434 140.180065 176.94261 139.797097 176.678959 139.433374 Q 174.762196 136.810335 172.939732 134.420155 Q 172.527898 133.879382 172.14493 133.806252 Q 171.419409 133.667691 170.382124 133.890928 Q 169.79324 134.017943 169.27556 134.119939 Q 168.736711 134.227709 168.190164 134.427853 Q 166.966207 134.874328 166.03092 135.445892 Q 165.572898 135.726864 165.368905 136.159867 C 165.340038 136.225299 165.334265 136.298428 165.35351 136.367709 Q 165.403546 136.546684 165.7461 139.188968 Q 166.354229 143.880802 168.540416 148.451395 C 169.335218 150.112205 169.802862 150.974363 170.008779 151.85769 C 170.037646 151.984705 170.053042 152.115568 170.054966 152.246431 C 170.076135 153.576233 170.258959 154.875244 170.262808 156.02992 Q 170.268581 158.383535 170.476423 163.021485 C 170.509139 163.712366 170.641927 164.191557 170.649624 164.803535 Q 170.653473 165.203823 170.817053 166.141035 Q 171.030668 167.380387 171.21734 168.113607 C 171.263527 168.298355 171.473293 168.388805 171.640722 168.294506 Z M 319.077477 166.133337 C 319.229509 165.765765 319.20834 165.1942 319.217963 164.757348 Q 319.248754 163.283211 319.20834 161.587762 C 319.200643 161.243283 319.081326 160.779488 319.06593 160.356107 Q 318.938916 157.042186 319.044761 154.222852 C 319.04861 154.1401 319.060157 154.057348 319.079402 153.976521 Q 319.235283 153.356845 319.241056 152.833392 C 319.241056 152.748715 319.252603 152.664039 319.277621 152.583212 Q 319.94156 150.335442 320.122459 149.923608 Q 321.336794 147.144687 321.90066 145.74368 C 323.149635 142.64145 323.807801 139.417979 324.240804 136.071342 C 324.258124 135.942403 324.202315 135.813464 324.09647 135.734561 L 323.663466 135.41895 C 323.626901 135.390083 323.586488 135.36699 323.542225 135.347745 Q 321.583124 134.493285 320.078196 134.229634 Q 319.115966 134.060281 317.126074 134.15458 C 317.047171 134.158428 316.972117 134.181522 316.904761 134.220011 Q 316.469833 134.47404 316.252369 134.789651 Q 315.802046 135.442044 312.409222 140.474507 Q 311.090967 142.429759 310.167226 143.47859 Q 309.428233 144.317655 308.412118 144.945029 C 306.949528 145.849525 305.72942 146.669345 304.457352 147.373698 Q 304.014726 147.618104 303.549007 148.024165 C 303.404672 148.147331 303.439312 148.378266 303.612514 148.457169 Q 304.205248 148.722744 305.096273 148.780478 C 305.60433 148.813194 305.983449 148.922888 306.349096 149.201935 C 306.44147 149.27314 306.49728 149.38091 306.503053 149.498302 L 306.70897 153.834111 C 306.714744 153.932258 306.728215 154.026557 306.751309 154.120856 Q 306.911039 154.815586 307.894438 156.126143 Q 310.432801 159.515118 312.898035 161.757114 C 313.490769 162.295963 314.173952 162.834812 314.805175 163.023409 Q 316.056074 163.396754 316.931704 163.802816 C 316.989438 163.829758 317.041398 163.864398 317.08951 163.906736 Q 317.662999 164.422492 318.084456 165.130693 Q 318.682963 166.142959 318.686812 166.150657 C 318.771488 166.312312 319.006272 166.30269 319.077477 166.133337 Z M 172.006369 176.656286 C 171.788905 176.90839 171.837016 177.291358 172.108365 177.483804 L 178.041477 181.68875 C 178.268563 181.850405 178.580326 181.819613 178.774696 181.619469 L 179.654174 180.701502 C 179.869714 180.47634 179.862016 180.11839 179.636854 179.902851 L 174.354211 174.84152 C 174.121351 174.618283 173.748006 174.635603 173.536315 174.880009 L 172.006369 176.656286 Z M 318.265355 177.081592 L 316.858574 175.336106 C 316.85665 175.332257 316.852801 175.328409 316.850876 175.326484 L 316.346668 174.797257 C 316.261992 174.708732 316.127279 174.695261 316.025283 174.762617 Q 315.64424 175.024344 315.55379 175.132114 Q 315.442171 175.26875 310.842711 179.525657 C 310.442424 179.897077 310.094096 180.070279 310.455895 180.591808 Q 310.679132 180.913192 311.250697 181.519397 Q 311.64906 181.942779 312.245643 181.52902 Q 317.514815 177.859074 317.903556 177.545387 C 317.972837 177.487653 318.030571 177.416448 318.072909 177.335621 Q 318.165283 177.154721 318.248035 177.133552 C 318.271128 177.127779 318.28075 177.098912 318.265355 177.081592 Z" style="fill:#101214;"/>
		<path d="M 222.577338 60.580536 C 222.473417 60.565141 222.386816 60.657515 222.407985 60.759511 Q 222.594658 61.658234 222.606205 62.231723 Q 222.662014 64.623827 222.646618 65.749637 Q 222.625449 67.348863 222.288669 69.238683 Q 221.934568 71.220878 221.418813 72.929798 C 221.349532 73.156885 221.103201 73.28005 220.879964 73.195374 L 219.707967 72.752748 C 219.634838 72.725806 219.554011 72.723881 219.478957 72.746975 Q 218.653363 73.018323 218.532122 73.101075 Q 218.264622 73.283899 217.539101 73.757316 Q 212.785684 76.859546 211.080612 77.971884 Q 210.281961 78.491489 209.814317 78.697406 Q 209.223508 78.955284 208.634623 78.732046 C 208.569191 78.707028 208.511457 78.666615 208.467195 78.61273 Q 207.506889 77.4696 207.308669 76.039726 C 207.299047 75.974295 207.304821 75.908863 207.32599 75.84728 C 207.618508 74.981273 208.900198 73.926669 209.639191 73.35318 Q 212.154461 71.403701 215.235522 70.198989 Q 215.843651 69.960356 216.286277 69.833342 Q 216.77509 69.690932 217.331259 69.450374 C 217.492914 69.379169 217.62955 69.256004 217.716151 69.102047 Q 218.861205 67.079439 219.428921 65.010644 Q 219.802266 63.646202 220.206403 61.140554 C 220.352662 60.239907 220.608615 59.42586 220.762572 58.600267 C 220.812608 58.332767 221.143615 58.236544 221.330288 58.434763 Q 221.563147 58.684943 222.019244 59.148738 C 222.900647 60.045536 224.086115 60.619026 225.317769 60.930788 C 225.818129 61.057802 226.324262 61.059727 226.834244 60.911543 Q 228.012014 60.565141 229.093561 59.608684 Q 230.798632 58.103756 231.964855 56.80667 Q 232.355521 56.373666 232.91169 56.76818 Q 233.269639 57.022209 233.227301 57.305105 C 233.217679 57.364763 233.198434 57.422497 233.167643 57.472533 Q 230.27133 62.560806 229.946096 68.488144 Q 229.859496 70.066201 229.928776 71.218953 C 229.938399 71.396003 229.730557 71.498 229.595845 71.382532 Q 229.366834 71.182388 229.253291 70.943755 Q 226.661043 65.489835 226.085629 64.40059 Q 225.298525 62.911058 224.482554 62.148971 Q 222.991097 60.757587 222.935287 60.697928 C 222.885251 60.647892 222.81982 60.615177 222.748615 60.605554 L 222.577338 60.580536 Z" style="fill:#101214;"/>
		<path d="M 262.263559 99.052423 C 262.328991 99.048574 262.369404 99.123628 262.328991 99.173664 Q 261.647732 100.062765 260.63739 100.967261 C 260.140879 101.411811 259.365322 102.118088 258.78221 102.57611 Q 256.657606 104.244617 254.798577 105.630228 Q 254.440628 105.897728 254.280897 106.051685 Q 254.034567 106.288394 253.745897 106.451973 C 253.69971 106.476991 253.651599 106.423106 253.68239 106.380768 Q 255.079548 104.477477 256.863523 102.778178 Q 259.236383 100.516937 262.088433 99.106308 Q 262.186581 99.056272 262.263559 99.052423 Z" style="fill:#101214;"/>
		<path d="M 227.144082 99.854923 Q 227.488561 99.916506 227.68678 100.110876 C 227.715647 100.139743 227.748363 100.162837 227.784927 100.182081 Q 230.200125 101.492639 232.005269 103.701919 Q 232.399783 104.184959 232.890521 104.687243 Q 233.113758 104.916254 233.219603 105.170282 C 233.256168 105.260732 233.152247 105.343484 233.073344 105.287674 Q 229.755575 102.961002 227.020917 100.083934 C 226.928543 99.987711 227.013219 99.831829 227.144082 99.854923 Z" style="fill:#101214;"/>
		<path d="M 253.341761 125.971774 C 253.393721 126.28931 252.978038 126.822386 252.622013 127.293878 Q 252.518092 127.43244 252.163991 127.909706 Q 250.732193 129.845713 250.195268 130.46154 Q 248.626833 132.255137 246.839009 133.346306 Q 246.60615 133.488716 246.35597 133.58109 C 246.217409 133.633051 246.086545 133.488716 246.148128 133.354004 Q 246.937157 131.677799 248.062966 129.916918 Q 248.807732 128.752619 249.644872 127.84235 Q 250.776455 126.608771 252.071617 126.093015 Q 252.691293 125.846684 253.180106 125.837062 C 253.260933 125.835138 253.330214 125.892871 253.341761 125.971774 Z" style="fill:#101214;"/>
		<path d="M 242.995862 133.392493 C 242.982391 133.471396 242.897715 133.515659 242.826509 133.479094 C 241.585233 132.849795 240.432481 132.04922 239.34901 130.971522 Q 237.287913 128.920047 235.525107 126.46636 C 235.407715 126.302781 235.465449 126.073771 235.646348 125.985245 Q 235.977355 125.823591 236.400736 125.919814 Q 237.894118 126.260443 238.971815 127.384328 Q 239.751222 128.198375 240.569118 129.335731 Q 241.248452 130.276792 242.716815 132.901756 C 242.741833 132.947943 242.778398 132.986432 242.820736 133.015299 Q 243.034351 133.159634 242.995862 133.392493 Z" style="fill:#101214;"/>
	</g>
	<g id="surface4">
	</g>
</svg>
