<?xml version="1.0" encoding="utf-8"?>
<svg xmlns="http://www.w3.org/2000/svg" width="490pt" height="280pt" viewBox="0 0 490 280" version="1.1" xmlns:xlink="http://www.w3.org/1999/xlink">
	<g id="surface2" data-size="99.761089994137 148" data-bboxpos="195 53.427704280896" data-pivot="244.88054499707 127.4277042809" data-center="244.88054499707 127.4277042809">
		<path d="M 294.183528 201.406143 C 294.068399 201.380146 293.968125 201.305869 293.908703 201.201881 Q 287.420603 189.540385 280.223158 178.714506 Q 278.436795 176.025677 275.658833 172.70178 Q 273.995028 170.707441 271.272774 168.954503 C 268.498527 167.160712 264.922087 166.380803 261.523912 165.957424 Q 260.803425 165.868292 256.688477 165.901716 Q 254.794412 165.920286 253.709967 166.477363 Q 252.168719 167.268414 251.433376 168.464274 Q 250.542051 169.908963 249.557881 172.077852 Q 247.537545 176.530761 246.939615 178.00516 C 246.35654 179.442421 245.680619 180.649423 243.845976 179.654111 Q 236.793371 175.832557 231.998788 173.117731 C 229.907889 171.929298 228.032394 170.651733 226.587705 168.694533 Q 225.651814 167.424396 224.890475 164.95097 Q 224.002864 162.069021 223.241524 159.12765 Q 222.691874 156.999613 221.744842 155.187253 C 221.648282 155.005274 221.529439 154.834437 221.392026 154.685883 Q 219.022588 152.127039 217.199087 150.559793 C 209.177166 143.666884 201.838594 136.450869 195.335639 127.883012 C 194.971682 127.403925 194.707998 126.241489 195.62532 126.237775 Q 203.636099 126.193209 211.646878 126.371474 C 223.980581 126.650013 234.587343 126.575736 246.995323 126.635158 C 248.235749 126.638872 248.402873 126.011231 248.402873 124.874792 Q 248.399159 115.025656 248.421442 54.341312 C 248.421442 53.520551 249.160498 53.420277 249.858703 53.427704 Q 252.235568 53.44256 293.645019 53.427704 C 294.517775 53.427704 294.658901 54.200186 294.658901 54.961525 C 294.658901 80.156298 294.562341 102.569396 294.621763 125.435583 Q 294.803741 194.100996 294.748033 200.88249 Q 294.740606 201.536128 294.183528 201.406143 Z M 284.690922 131.760274 L 271.28763 131.760274 C 270.886533 131.760274 270.533718 131.500304 270.41116 131.121491 Q 268.401966 124.819084 266.385345 119.478565 Q 266.244218 119.099752 266.203366 118.795216 Q 266.147658 118.338412 265.869119 118.204713 C 265.564583 118.052445 265.196912 118.223283 265.096638 118.561243 Q 264.235024 121.532325 262.619499 125.977806 Q 262.556363 126.152357 262.422664 126.575736 Q 261.79131 128.596072 260.847991 131.154916 C 260.718006 131.515159 260.372618 131.752846 259.990091 131.752846 L 246.54966 131.752846 C 246.215414 131.752846 246.040863 132.146514 246.25998 132.399056 C 246.817058 133.037839 247.478123 133.316378 248.224608 133.873455 Q 252.320987 136.941097 256.647624 139.986456 C 257.397823 140.517537 257.594657 141.074615 257.304976 141.887948 Q 256.643911 143.741161 256.588203 144.290811 C 256.491643 145.267554 255.927137 146.151451 255.826863 147.17276 C 255.823149 147.195043 255.819435 147.217326 255.812008 147.239609 L 253.914229 153.542016 C 253.836238 153.8057 254.062783 154.058242 254.333894 154.009962 Q 254.731277 153.939399 254.939252 153.787131 Q 260.212922 149.991574 264.63612 146.942501 C 265.133777 146.597113 265.817125 146.285149 266.340778 146.675104 Q 272.011831 150.908895 274.021025 152.327587 Q 275.877951 153.638577 276.011649 153.842838 C 276.067357 153.931971 276.15649 153.995106 276.260478 154.01739 L 276.873263 154.177085 C 277.081239 154.229079 277.270645 154.039673 277.214938 153.827983 L 273.853901 141.189744 C 273.742486 140.766365 273.902181 140.320703 274.258711 140.064447 L 284.906325 132.432481 C 285.19972 132.220791 285.051166 131.760274 284.690922 131.760274 Z" style="fill:#48474d;"/>
	</g>
	<g id="surface4">
	</g>
</svg>
