<?xml version="1.0" encoding="utf-8"?>
<svg xmlns="http://www.w3.org/2000/svg" width="490pt" height="280pt" viewBox="0 0 490 280" version="1.1" xmlns:xlink="http://www.w3.org/1999/xlink">
	<g id="surface2" data-size="202.66730951334 148" data-bboxpos="143.5 52.352199504945" data-pivot="244.83365475667 126.35219950495" data-center="244.83365475667 126.35219950495">
		<path vector-effect="non-scaling-stroke" d="M 288.20468 70.269741 Q 288.052227 71.953074 287.277259 74.1954 Q 286.09575 77.600179 283.342071 79.280336 C 278.40006 82.294454 273.975753 78.311625 270.767892 74.922727 C 267.074088 71.022476 263.167486 68.024238 258.1556 66.417132 C 256.777173 65.975654 255.830695 65.505591 254.989029 64.501943 Q 253.670947 62.929774 252.664124 61.83402 C 250.701294 59.699681 248.373213 58.568989 245.394032 58.114807 Q 241.27463 57.492291 237.174285 58.375247 Q 233.648815 59.134335 230.961834 61.770498 Q 228.570231 64.114459 226.219917 67.023767 Q 224.739855 68.8532 222.719855 69.875904 Q 217.526932 72.505715 212.877122 75.713576 Q 211.346242 76.768041 210.082154 77.797097 C 206.397879 80.795335 203.005804 83.946026 201.090616 88.243289 C 199.905931 90.908037 199.57244 93.896747 198.200365 96.532909 C 197.117315 98.610079 195.951687 100.5475 194.385869 101.570204 Q 193.633134 102.062499 190.698418 103.29165 Q 190.323638 103.447279 190.18389 103.745832 C 190.101311 103.920518 190.206122 104.123788 190.396688 104.158725 C 195.090964 105.041681 198.502095 102.246713 200.798415 98.514796 Q 201.414578 97.511148 203.256716 92.016496 Q 203.504452 91.276464 203.990395 90.733351 C 204.126967 90.580899 204.381055 90.679358 204.374703 90.885804 C 204.288949 93.769703 204.952753 98.213066 204.739955 101.357405 C 204.45093 105.578442 203.059798 110.691962 200.33788 113.963345 Q 199.315176 115.195672 197.034737 117.082275 Q 196.571026 117.463407 195.408574 118.778312 C 195.319643 118.879947 195.249769 119.000639 195.208479 119.134035 Q 194.90675 120.096394 194.96392 120.575985 C 195.713479 126.724914 195.907221 132.25768 194.79241 137.815854 Q 194.547851 139.041829 193.928511 141.852677 C 193.604549 143.323211 192.715241 143.945727 191.930744 145.035129" style="fill:none;stroke-width:0.50;stroke:#f9b538;"/>
		<path vector-effect="non-scaling-stroke" d="M 300.642287 88.055899 Q 299.59735 89.79005 298.657224 90.949326 Q 296.036942 94.182596 292.076346 95.843696 C 291.187038 96.2153 290.291378 96.177186 289.395717 96.612312 Q 283.602512 99.419984 277.30113 99.5375 Q 276.592859 99.550204 273.642263 99.591494 Q 272.727546 99.604198 272.225722 99.728066 C 271.816005 99.826525 271.530156 100.194953 271.536509 100.614198 C 271.555565 102.764417 272.171729 104.889228 273.588269 106.642435 C 274.792011 108.135202 275.963992 109.742308 276.716727 111.276365 C 277.993519 113.874414 279.413236 115.964288 281.493581 117.720671 Q 283.186442 119.149916 284.11704 119.943941 Q 285.031756 120.725261 285.022228 121.998877 Q 284.980939 128.278027 287.334429 134.118874 C 288.258674 136.412018 288.76685 137.930194 289.73556 139.642111 Q 290.596283 141.166639 291.190214 141.766922 Q 292.114459 142.703872 296.186219 145.895852" style="fill:none;stroke-width:0.50;stroke:#f9b538;"/>
		<path vector-effect="non-scaling-stroke" d="M 299.349614 84.593951 Q 299.000243 84.644768 298.90496 84.841686 Q 295.97342 90.984263 290.869428 95.325992 C 290.796377 95.389514 290.840843 95.510205 290.939302 95.507029 Q 291.285497 95.497501 291.796849 95.27835 Q 297.281973 92.928036 300.019771 87.773226 C 300.051532 87.716057 300.095998 87.668415 300.153167 87.636654 L 300.327853 87.535019 C 300.426312 87.477849 300.49301 87.37939 300.508891 87.26505 L 300.740746 85.584894" style="fill:none;stroke-width:0.50;stroke:#f9b538;"/>
		<path vector-effect="non-scaling-stroke" d="M 255.821167 103.771241 Q 255.363809 103.79665 255.249469 103.831587 C 252.705413 104.619259 249.024314 105.584794 245.559189 105.829353 Q 241.379441 106.124731 237.542713 105.664196 Q 233.801267 105.216366 230.695042 103.507625 C 229.535765 102.872405 228.16369 101.830644 226.759854 101.363757 Q 225.302024 100.88099 224.6541 102.380109 C 223.942654 104.018977 222.678566 106.318473 222.122749 108.097089 C 220.699856 112.642087 220.013818 117.450702 219.94712 122.068752 C 219.905831 125.149568 220.124982 128.386014 221.236617 131.273089 Q 223.412245 136.917018 228.112873 140.579061 C 228.236741 140.674344 228.35108 140.782331 228.455892 140.899847 Q 229.148281 141.668463 229.916897 142.205224 C 230.094759 142.332268 230.307558 142.39579 230.523532 142.386262 Q 232.53718 142.313211 237.672933 142.07818 Q 240.550479 141.944784 247.363213 142.179815 C 248.611421 142.224281 249.103716 141.138054 249.60554 140.112174 C 251.276168 136.685163 252.435445 132.810321 252.238526 129.02441 Q 252.124187 126.886895 252.117835 124.69221 C 252.111482 123.097808 252.518023 122.030638 253.140539 120.566456 Q 253.439092 119.861362 253.664595 119.022872 Q 255.59884 111.82583 256.16101 104.120612 C 256.17689 103.92687 256.014909 103.761713 255.821167 103.771241" style="fill:none;stroke-width:0.50;stroke:#f9b538;"/>
		<path vector-effect="non-scaling-stroke" d="M 288.195152 146.451669 Q 287.461473 142.062299 285.838486 137.898433 Q 283.373832 131.577994 281.50311 127.950888 Q 280.239022 125.498939 278.79072 122.640449 C 277.466287 120.039224 275.776602 117.812778 273.531099 115.548219 Q 270.561446 112.549981 270.288301 112.305421 Q 269.055975 111.19061 267.83 109.853472 Q 267.540975 109.535862 265.482862 107.607969 Q 264.663429 106.836177 264.044089 107.684196 Q 261.230065 111.520924 260.070788 116.107212 Q 259.41016 118.733847 259.159248 121.643154 Q 259.073493 122.653154 258.60343 124.552462 C 258.527204 124.863719 258.396984 125.159097 258.222298 125.425889 C 255.85928 129.049819 254.445916 133.636107 253.594721 137.89208 C 253.451797 138.619407 252.962677 141.836796 253.655067 142.402142 C 253.740822 142.475192 253.848809 142.516482 253.963149 142.522834 Q 270.856823 143.434375 287.820372 146.813745 C 288.039523 146.85821 288.233265 146.67082 288.195152 146.451669" style="fill:none;stroke-width:0.50;stroke:#f9b538;"/>
		<path vector-effect="non-scaling-stroke" d="M 212.375298 111.250956 C 211.206494 111.95605 210.345771 112.98193 209.326243 114.134854 Q 208.433759 115.144854 207.484105 116.104036 Q 204.311181 119.315073 202.160962 122.605512 Q 199.61373 126.499411 198.819705 131.165101 Q 197.768416 137.342615 197.739831 137.552238 C 197.336466 140.426608 197.149076 143.637645 199.064264 145.883147 C 199.226246 146.073713 199.480333 146.162644 199.724893 146.118179 C 207.328476 144.679406 215.221084 143.704343 223.561522 142.830916 C 223.796553 142.805507 223.94583 142.560947 223.856899 142.341796 Q 223.431302 141.284155 222.926302 140.486954 Q 221.223912 137.815854 219.972529 136.373905 C 216.840895 132.762679 214.465172 129.894661 212.232374 126.61375 Q 210.876179 124.615984 211.625739 122.13545 Q 213.067688 117.349067 212.969229 112.559509 Q 212.956525 111.911584 212.74055 111.374824 C 212.68338 111.228723 212.508695 111.171553 212.375298 111.250956" style="fill:none;stroke-width:0.50;stroke:#f9b538;"/>
		<path vector-effect="non-scaling-stroke" d="M 221.620226 160.073453 C 221.617749 159.991383 221.284258 159.937389 220.874383 159.956572 C 220.464825 159.975502 220.137686 160.054905 220.141561 160.137991 C 220.144038 160.220062 220.477529 160.274055 220.887405 160.254872 C 221.296963 160.235942 221.624101 160.15654 221.620226 160.073453" style="fill:none;stroke-width:0.50;stroke:#f9b538;"/>
		<path d="M 288.20468 70.269741 Q 288.052227 71.953074 287.277259 74.1954 Q 286.09575 77.600179 283.342071 79.280336 C 278.40006 82.294454 273.975753 78.311625 270.767892 74.922727 C 267.074088 71.022476 263.167486 68.024238 258.1556 66.417132 C 256.777173 65.975654 255.830695 65.505591 254.989029 64.501943 Q 253.670947 62.929774 252.664124 61.83402 C 250.701294 59.699681 248.373213 58.568989 245.394032 58.114807 Q 241.27463 57.492291 237.174285 58.375247 Q 233.648815 59.134335 230.961834 61.770498 Q 228.570231 64.114459 226.219917 67.023767 Q 224.739855 68.8532 222.719855 69.875904 Q 217.526932 72.505715 212.877122 75.713576 Q 211.346242 76.768041 210.082154 77.797097 C 206.397879 80.795335 203.005804 83.946026 201.090616 88.243289 C 199.905931 90.908037 199.57244 93.896747 198.200365 96.532909 C 197.117315 98.610079 195.951687 100.5475 194.385869 101.570204 Q 193.633134 102.062499 190.698418 103.29165 Q 190.323638 103.447279 190.18389 103.745832 C 190.101311 103.920518 190.206122 104.123788 190.396688 104.158725 C 195.090964 105.041681 198.502095 102.246713 200.798415 98.514796 Q 201.414578 97.511148 203.256716 92.016496 Q 203.504452 91.276464 203.990395 90.733351 C 204.126967 90.580899 204.381055 90.679358 204.374703 90.885804 C 204.288949 93.769703 204.952753 98.213066 204.739955 101.357405 C 204.45093 105.578442 203.059798 110.691962 200.33788 113.963345 Q 199.315176 115.195672 197.034737 117.082275 Q 196.571026 117.463407 195.408574 118.778312 C 195.319643 118.879947 195.249769 119.000639 195.208479 119.134035 Q 194.90675 120.096394 194.96392 120.575985 C 195.713479 126.724914 195.907221 132.25768 194.79241 137.815854 Q 194.547851 139.041829 193.928511 141.852677 C 193.604549 143.323211 192.715241 143.945727 191.930744 145.035129 Q 190.193418 142.148054 188.919802 139.07359 Q 186.826752 134.033119 185.286344 128.427303 Q 183.695118 122.627745 183.256816 117.377652 Q 182.567602 109.08168 183.860275 101.684543 Q 187.223765 82.459611 201.322471 69.393137 Q 207.303067 63.850843 215.03687 59.744146 Q 224.079226 54.945059 234.506362 53.175972 Q 240.137586 52.223142 246.350038 52.372419 Q 247.979377 52.410532 248.849628 52.543928 C 249.929502 52.705909 250.945854 52.636035 252.159124 52.81072 Q 270.583679 55.469116 284.739555 67.443012 Q 284.745907 67.446188 286.149744 68.78015 Q 287.077165 69.663106 288.20468 70.269741 Z" style="fill:#ffc843;"/>
		<path d="M 300.642287 88.055899 Q 299.59735 89.79005 298.657224 90.949326 Q 296.036942 94.182596 292.076346 95.843696 C 291.187038 96.2153 290.291378 96.177186 289.395717 96.612312 Q 283.602512 99.419984 277.30113 99.5375 Q 276.592859 99.550204 273.642263 99.591494 Q 272.727546 99.604198 272.225722 99.728066 C 271.816005 99.826525 271.530156 100.194953 271.536509 100.614198 C 271.555565 102.764417 272.171729 104.889228 273.588269 106.642435 C 274.792011 108.135202 275.963992 109.742308 276.716727 111.276365 C 277.993519 113.874414 279.413236 115.964288 281.493581 117.720671 Q 283.186442 119.149916 284.11704 119.943941 Q 285.031756 120.725261 285.022228 121.998877 Q 284.980939 128.278027 287.334429 134.118874 C 288.258674 136.412018 288.76685 137.930194 289.73556 139.642111 Q 290.596283 141.166639 291.190214 141.766922 Q 292.114459 142.703872 296.186219 145.895852 L 295.328672 147.471197 C 295.195276 147.715757 295.32232 148.020663 295.589112 148.100065 Q 297.389961 148.636826 299.832381 149.275222 Q 306.499015 151.018901 309.729108 151.981259 Q 318.688885 154.652359 327.581965 157.866572 C 328.96992 158.368396 330.141901 158.895628 331.38058 159.33393 Q 333.140139 159.956445 335.236365 160.785407 C 338.790421 162.189244 342.45564 163.574023 345.609507 165.162073 C 346.451173 165.58767 346.247903 166.235595 345.63174 166.740595 Q 343.691143 168.322292 341.61715 169.570499 C 340.892999 170.002449 340.206961 169.926223 339.374823 169.624493 Q 333.902403 167.629902 327.772531 165.609903 Q 327.238946 165.435218 326.816525 165.368519 C 326.425864 165.304997 326.076494 165.108079 325.565141 164.946098 Q 305.768512 158.654245 284.857071 154.604717 Q 277.980815 153.273932 273.18808 152.543429 Q 269.224308 151.93997 265.746479 151.520725 Q 264.88258 151.415913 264.005976 151.222171 C 263.259593 151.053838 262.405222 151.171354 261.585788 150.999844 C 260.505914 150.777517 259.248179 150.895033 258.244531 150.631417 Q 257.606135 150.463083 256.656481 150.504373 C 255.554375 150.55519 254.268054 150.285222 253.324753 150.234404 Q 252.133715 150.174058 251.574722 150.072423 C 249.624596 149.723052 247.671295 149.986668 245.752931 149.694467 Q 244.863623 149.561071 241.011014 149.542014 Q 234.519066 149.510253 228.586112 149.554719 C 226.534351 149.570599 224.530232 149.891385 222.389541 149.875505 C 221.439887 149.869153 220.601397 150.18041 219.747026 150.183587 Q 218.279668 150.193115 217.587278 150.329687 C 216.456587 150.55519 215.738788 150.49802 214.258726 150.526605 C 214.087216 150.529781 213.918883 150.552014 213.75055 150.593303 C 212.654795 150.853744 211.578097 150.774341 210.418821 150.94585 Q 207.982753 151.307926 203.247188 151.889152 Q 201.036622 152.162297 199.55656 152.457674 Q 197.415869 152.889624 195.872284 153.121479 Q 193.626782 153.454969 192.477034 153.759875 C 191.219298 154.093365 189.447034 154.325221 187.96062 154.630126 Q 184.705117 155.303459 180.989081 156.227704 Q 169.723455 159.029024 160.344432 162.271822 Q 159.296319 162.633898 155.329371 164.136193 Q 150.72085 165.883048 146.734845 167.706129 C 145.975757 168.052324 145.359594 168.11267 144.733902 167.499682 Q 143.879531 166.664368 143.584154 165.682953 C 143.320538 164.80635 143.685789 164.348991 144.498871 163.907514 Q 147.065159 162.519558 150.644624 160.972797 Q 162.637576 155.792579 172.734397 152.749875 C 173.531599 152.508492 173.982605 152.308397 174.563831 152.136888 Q 183.39974 149.535662 192.384927 147.528367 C 192.75653 147.445789 192.947096 147.036072 192.775587 146.699405 L 191.930744 145.035129 C 192.715241 143.945727 193.604549 143.323211 193.928511 141.852677 Q 194.547851 139.041829 194.79241 137.815854 C 195.907221 132.25768 195.713479 126.724914 194.96392 120.575985 Q 194.90675 120.096394 195.208479 119.134035 C 195.249769 119.000639 195.319643 118.879947 195.408574 118.778312 Q 196.571026 117.463407 197.034737 117.082275 Q 199.315176 115.195672 200.33788 113.963345 C 203.059798 110.691962 204.45093 105.578442 204.739955 101.357405 C 204.952753 98.213066 204.288949 93.769703 204.374703 90.885804 C 204.381055 90.679358 204.126967 90.580899 203.990395 90.733351 Q 203.504452 91.276464 203.256716 92.016496 Q 201.414578 97.511148 200.798415 98.514796 C 198.502095 102.246713 195.090964 105.041681 190.396688 104.158725 C 190.206122 104.123788 190.101311 103.920518 190.18389 103.745832 Q 190.323638 103.447279 190.698418 103.29165 Q 193.633134 102.062499 194.385869 101.570204 C 195.951687 100.5475 197.117315 98.610079 198.200365 96.532909 C 199.57244 93.896747 199.905931 90.908037 201.090616 88.243289 C 203.005804 83.946026 206.397879 80.795335 210.082154 77.797097 Q 211.346242 76.768041 212.877122 75.713576 Q 217.526932 72.505715 222.719855 69.875904 Q 224.739855 68.8532 226.219917 67.023767 Q 228.570231 64.114459 230.961834 61.770498 Q 233.648815 59.134335 237.174285 58.375247 Q 241.27463 57.492291 245.394032 58.114807 C 248.373213 58.568989 250.701294 59.699681 252.664124 61.83402 Q 253.670947 62.929774 254.989029 64.501943 C 255.830695 65.505591 256.777173 65.975654 258.1556 66.417132 C 263.167486 68.024238 267.074088 71.022476 270.767892 74.922727 C 273.975753 78.311625 278.40006 82.294454 283.342071 79.280336 Q 286.09575 77.600179 287.277259 74.1954 Q 288.052227 71.953074 288.20468 70.269741 Q 289.103516 67.026943 290.272321 64.127164 C 290.532761 63.485592 290.878956 62.901189 291.072698 62.16751 C 291.148925 61.884837 290.999648 61.58946 290.726503 61.487825 Q 290.29773 61.322668 289.697447 61.074932 C 289.192447 60.862133 288.909774 60.385718 289.065403 60.00141 Q 289.227384 59.604398 289.964239 59.372542 Q 291.158453 58.994587 291.882604 58.705561 C 291.990591 58.664272 292.07317 58.581694 292.108107 58.473706 Q 292.238327 58.098926 292.784616 56.977763 Q 293.076817 56.374304 293.896251 56.266317 C 295.77015 56.024933 297.555118 55.767669 299.454425 55.808958 Q 301.083765 55.840719 302.011186 56.364776 C 302.090588 56.406065 302.163638 56.456883 302.233513 56.514053 Q 303.891437 57.851191 304.999896 58.187857 Q 306.775335 58.727794 308.061656 58.708738 Q 309.10024 58.692857 310.504076 58.892951 Q 311.317158 59.010467 312.936969 59.086693 C 314.10895 59.140687 314.648887 60.30314 315.055427 61.421127 C 315.090364 61.519586 315.138006 61.611693 315.195176 61.697447 Q 316.036842 62.986944 316.182943 63.339491 Q 316.922974 65.159396 315.493729 66.201157 Q 315.28093 66.356786 314.074013 66.588641 C 312.397032 66.912603 310.685114 66.401251 309.224108 66.842729 C 309.02719 66.903075 308.827096 66.934836 308.623825 66.944364 C 307.432788 66.998358 306.546656 67.153987 306.254455 68.383137 Q 305.368323 72.08647 304.672757 75.684991 Q 303.916846 79.588417 302.77345 82.977316 Q 302.452664 83.930146 301.744393 85.534076 Q 301.169519 86.833101 300.642287 88.055899 Z M 299.349614 84.593951 Q 299.000243 84.644768 298.90496 84.841686 Q 295.97342 90.984263 290.869428 95.325992 C 290.796377 95.389514 290.840843 95.510205 290.939302 95.507029 Q 291.285497 95.497501 291.796849 95.27835 Q 297.281973 92.928036 300.019771 87.773226 C 300.051532 87.716057 300.095998 87.668415 300.153167 87.636654 L 300.327853 87.535019 C 300.426312 87.477849 300.49301 87.37939 300.508891 87.26505 L 300.740746 85.584894 Q 301.163167 84.292221 301.671343 82.980492 Q 302.281154 81.411499 302.52889 80.363386 Q 303.335619 76.933198 303.341971 76.901437 Q 303.907317 73.48713 304.863323 68.7071 C 304.920493 68.427603 304.612411 68.21798 304.371028 68.373609 C 302.922726 69.304206 302.65911 70.993891 302.503481 72.661344 Q 302.360557 74.1954 301.061532 79.023072 C 301.026595 79.143763 300.985305 79.261279 300.937664 79.372443 Q 300.203985 81.014486 300.191281 81.154234 Q 300.1754 81.316216 299.368671 83.469611 Q 299.14952 84.060366 299.349614 84.593951 Z M 255.821167 103.771241 Q 255.363809 103.79665 255.249469 103.831587 C 252.705413 104.619259 249.024314 105.584794 245.559189 105.829353 Q 241.379441 106.124731 237.542713 105.664196 Q 233.801267 105.216366 230.695042 103.507625 C 229.535765 102.872405 228.16369 101.830644 226.759854 101.363757 Q 225.302024 100.88099 224.6541 102.380109 C 223.942654 104.018977 222.678566 106.318473 222.122749 108.097089 C 220.699856 112.642087 220.013818 117.450702 219.94712 122.068752 C 219.905831 125.149568 220.124982 128.386014 221.236617 131.273089 Q 223.412245 136.917018 228.112873 140.579061 C 228.236741 140.674344 228.35108 140.782331 228.455892 140.899847 Q 229.148281 141.668463 229.916897 142.205224 C 230.094759 142.332268 230.307558 142.39579 230.523532 142.386262 Q 232.53718 142.313211 237.672933 142.07818 Q 240.550479 141.944784 247.363213 142.179815 C 248.611421 142.224281 249.103716 141.138054 249.60554 140.112174 C 251.276168 136.685163 252.435445 132.810321 252.238526 129.02441 Q 252.124187 126.886895 252.117835 124.69221 C 252.111482 123.097808 252.518023 122.030638 253.140539 120.566456 Q 253.439092 119.861362 253.664595 119.022872 Q 255.59884 111.82583 256.16101 104.120612 C 256.17689 103.92687 256.014909 103.761713 255.821167 103.771241 Z M 288.195152 146.451669 Q 287.461473 142.062299 285.838486 137.898433 Q 283.373832 131.577994 281.50311 127.950888 Q 280.239022 125.498939 278.79072 122.640449 C 277.466287 120.039224 275.776602 117.812778 273.531099 115.548219 Q 270.561446 112.549981 270.288301 112.305421 Q 269.055975 111.19061 267.83 109.853472 Q 267.540975 109.535862 265.482862 107.607969 Q 264.663429 106.836177 264.044089 107.684196 Q 261.230065 111.520924 260.070788 116.107212 Q 259.41016 118.733847 259.159248 121.643154 Q 259.073493 122.653154 258.60343 124.552462 C 258.527204 124.863719 258.396984 125.159097 258.222298 125.425889 C 255.85928 129.049819 254.445916 133.636107 253.594721 137.89208 C 253.451797 138.619407 252.962677 141.836796 253.655067 142.402142 C 253.740822 142.475192 253.848809 142.516482 253.963149 142.522834 Q 270.856823 143.434375 287.820372 146.813745 C 288.039523 146.85821 288.233265 146.67082 288.195152 146.451669 Z M 212.375298 111.250956 C 211.206494 111.95605 210.345771 112.98193 209.326243 114.134854 Q 208.433759 115.144854 207.484105 116.104036 Q 204.311181 119.315073 202.160962 122.605512 Q 199.61373 126.499411 198.819705 131.165101 Q 197.768416 137.342615 197.739831 137.552238 C 197.336466 140.426608 197.149076 143.637645 199.064264 145.883147 C 199.226246 146.073713 199.480333 146.162644 199.724893 146.118179 C 207.328476 144.679406 215.221084 143.704343 223.561522 142.830916 C 223.796553 142.805507 223.94583 142.560947 223.856899 142.341796 Q 223.431302 141.284155 222.926302 140.486954 Q 221.223912 137.815854 219.972529 136.373905 C 216.840895 132.762679 214.465172 129.894661 212.232374 126.61375 Q 210.876179 124.615984 211.625739 122.13545 Q 213.067688 117.349067 212.969229 112.559509 Q 212.956525 111.911584 212.74055 111.374824 C 212.68338 111.228723 212.508695 111.171553 212.375298 111.250956 Z" style="fill:#f3a22d;"/>
		<path d="M 300.642287 88.055899 C 302.41455 92.353162 303.754864 96.80923 304.336091 101.331996 C 304.501248 102.615141 304.748984 103.88558 304.831562 104.981335 Q 305.342914 111.663849 305.047537 114.922527 C 304.872852 116.821835 304.923669 118.044633 304.650525 119.569161 Q 304.466311 120.588689 304.26304 122.195795 Q 304.145525 123.135921 303.796154 124.812902 Q 301.6904 134.935132 296.948483 144.44755 Q 296.532414 145.279688 296.186219 145.895852 Q 292.114459 142.703872 291.190214 141.766922 Q 290.596283 141.166639 289.73556 139.642111 C 288.76685 137.930194 288.258674 136.412018 287.334429 134.118874 Q 284.980939 128.278027 285.022228 121.998877 Q 285.031756 120.725261 284.11704 119.943941 Q 283.186442 119.149916 281.493581 117.720671 C 279.413236 115.964288 277.993519 113.874414 276.716727 111.276365 C 275.963992 109.742308 274.792011 108.135202 273.588269 106.642435 C 272.171729 104.889228 271.555565 102.764417 271.536509 100.614198 C 271.530156 100.194953 271.816005 99.826525 272.225722 99.728066 Q 272.727546 99.604198 273.642263 99.591494 Q 276.592859 99.550204 277.30113 99.5375 Q 283.602512 99.419984 289.395717 96.612312 C 290.291378 96.177186 291.187038 96.2153 292.076346 95.843696 Q 296.036942 94.182596 298.657224 90.949326 Q 299.59735 89.79005 300.642287 88.055899 Z" style="fill:#ffc843;"/>
		<path d="M 222.116396 160.0422 C 222.065579 160.054905 222.068755 160.131131 222.122749 160.137483 Q 226.118282 160.610722 229.23086 160.693301 C 230.301205 160.721885 231.225451 160.991854 232.229098 160.972797 Q 232.880198 160.960093 233.436016 161.064904 Q 234.350733 161.236414 237.228279 161.493678 Q 239.305448 161.681068 241.01419 161.938332 Q 246.839157 162.814935 248.576483 163.164306 Q 263.16431 166.095846 268.643082 167.655311 Q 280.337481 170.98704 287.207385 173.410404 Q 288.668391 173.928108 292.746503 175.379586 Q 301.957192 178.663673 310.697819 182.833892 Q 311.682409 183.303955 311.580774 183.986816 C 311.564894 184.091627 311.529957 184.193263 311.475963 184.288546 C 310.821686 185.482759 309.347976 187.251847 307.772631 186.813545 Q 306.924612 186.575337 304.040713 185.673325 C 303.516657 185.508168 302.929079 185.171501 302.319267 185.082571 Q 302.312915 185.079394 301.626878 184.86342 Q 285.257259 179.676849 282.135153 178.790717 Q 279.479934 178.037981 277.364652 177.399585 Q 274.915879 176.665906 272.670376 176.049743 Q 264.942925 173.937637 259.502267 172.673549 Q 256.126073 171.889052 255.46862 171.727071 Q 253.817048 171.317354 251.419093 170.859996 Q 248.061955 170.224776 247.134534 170.05009 Q 240.702932 168.859053 237.647524 168.408047 Q 236.767745 168.277827 236.351676 168.214305 Q 232.98501 167.696601 228.001709 167.201129 Q 226.029351 167.004211 225.86737 167.001035 C 224.123691 166.975626 222.580107 166.721538 220.664919 166.71201 C 219.280139 166.702481 217.882655 166.416632 216.688442 166.397576 C 214.658914 166.372167 210.463286 166.248299 207.417407 166.550029 C 205.337061 166.756475 203.749012 166.651664 201.729012 166.912104 Q 201.052503 167.001035 199.191308 167.020091 C 198.927692 167.023267 198.664076 167.055028 198.409988 167.109022 C 197.257064 167.353582 196.072378 167.29006 194.913102 167.499682 Q 193.585492 167.73789 189.815462 168.265122 Q 187.706532 168.5605 185.04496 169.119493 Q 183.19647 169.506977 180.28081 170.053267 Q 178.117887 170.456631 170.72075 172.355939 Q 170.412669 172.435341 168.980248 172.838706 Q 160.477829 175.230309 153.455472 177.914113 Q 153.445944 177.91729 152.197736 178.441346 C 151.149624 178.879648 149.513932 179.714962 148.6278 178.666849 C 147.833775 177.723547 146.963524 175.922699 148.449939 175.13185 Q 152.734497 172.85141 156.768144 171.072795 Q 175.551598 162.779998 195.545146 159.117955 C 196.809234 158.8861 198.089202 158.476383 199.324705 158.409685 Q 199.635962 158.390628 201.185899 158.069842 Q 202.310238 157.834811 203.05027 157.796698 C 204.381055 157.726823 205.746778 157.301226 207.141086 157.171006 Q 208.951463 156.999497 211.054041 156.666006 C 212.022751 156.513553 212.969229 156.621541 213.791839 156.392862 C 214.770078 156.122893 215.910298 156.23088 216.866304 156.075252 Q 218.111335 155.871981 218.84819 155.894214 C 220.070988 155.932327 221.214384 155.608365 222.459415 155.598837 C 224.158629 155.586132 225.905483 155.281227 227.293439 155.274874 C 230.317086 155.258994 233.62023 154.947736 236.948782 154.960441 C 239.924788 154.973145 242.754693 154.881038 245.73705 155.125598 C 247.871389 155.300283 250.024785 155.151007 252.203589 155.433679 C 253.709061 155.627421 255.176419 155.490849 256.612016 155.76717 C 257.631544 155.967264 258.914688 155.814811 260.064436 156.037138 C 261.08714 156.234057 261.985977 156.151478 262.929278 156.396038 C 263.783649 156.621541 264.895284 156.481792 265.806825 156.72 C 266.442045 156.888333 267.099497 156.802578 267.791887 156.904214 Q 285.870247 159.588018 300.73757 163.358048 Q 310.351624 165.794117 323.42445 169.929399 C 326.041556 170.758361 328.191776 171.612732 330.430926 172.311473 Q 332.342938 172.90858 335.658786 174.159964 Q 339.266836 175.525686 340.92476 176.10056 C 341.213785 176.202196 341.337653 176.538862 341.182024 176.802479 Q 340.985106 177.135969 340.308597 177.393233 Q 333.915108 179.822949 327.959921 179.57839 Q 324.008853 179.413233 320.273759 178.501692 Q 315.589012 177.35512 310.570775 175.763894 Q 301.407727 172.854587 299.924488 172.425813 Q 297.107288 171.615908 294.305968 170.7266 Q 292.603578 170.186663 290.647101 169.665782 Q 289.71968 169.418047 286.981882 168.608141 Q 284.583926 167.899871 275.544746 165.603551 Q 267.680723 163.60896 256.570727 161.646131 Q 255.80211 161.509558 254.493557 161.287231 Q 252.895979 161.017263 252.40686 160.966445 Q 251.072898 160.823521 249.780225 160.629779 C 247.607773 160.30264 245.644943 160.248647 243.434378 159.962798 C 240.918907 159.638835 237.383908 159.642012 235.748217 159.686477 C 234.3285 159.727766 231.41284 159.352987 229.815262 159.46415 Q 225.708565 159.756351 223.780673 159.765879 Q 223.104163 159.769056 222.116396 160.0422 Z M 221.620226 160.073453 C 221.617749 159.991383 221.284258 159.937389 220.874383 159.956572 C 220.464825 159.975502 220.137686 160.054905 220.141561 160.137991 C 220.144038 160.220062 220.477529 160.274055 220.887405 160.254872 C 221.296963 160.235942 221.624101 160.15654 221.620226 160.073453 Z" style="fill:#f3a22d;"/>
		<path d="M 164.74333 180.772603 Q 165.384903 180.09927 166.223393 180.054805 C 166.985657 180.016691 167.741569 179.400528 168.325971 179.381472 C 168.700751 179.371943 169.180342 179.082918 169.602763 178.939994 Q 174.017542 177.463107 175.993076 176.90729 Q 176.155057 176.859648 176.285277 176.821535 Q 181.818043 175.182668 186.261406 174.328297 Q 186.953796 174.194901 187.677947 174.013863 C 188.894393 173.708957 189.793229 173.680372 190.94933 173.394524 Q 191.698889 173.207134 192.8137 173.073737 Q 195.100492 172.794241 196.034265 172.622731 Q 197.098259 172.425813 197.835114 172.40358 Q 198.645019 172.378172 199.045208 172.270184 C 200.017094 172.000216 201.204956 172.133612 202.129201 171.977983 C 203.866527 171.682606 205.365646 171.800121 207.277658 171.625436 C 209.980519 171.3777 212.549984 171.479335 215.28143 171.469807 Q 216.62492 171.466631 218.387655 171.644493 C 220.277435 171.835059 221.979824 171.673077 223.812434 171.95575 C 225.149572 172.162197 226.540703 171.95575 227.855609 172.279712 C 228.675042 172.482983 229.878784 172.295593 230.752212 172.57509 C 231.247683 172.733895 231.800325 172.702134 232.362494 172.77836 Q 241.147586 173.93446 250.224879 175.894114 Q 256.764469 177.307478 261.334876 178.460403 Q 268.096793 180.169144 278.244431 183.224552 Q 285.038109 185.266784 298.955778 190.088104 Q 300.667695 190.682034 303.094236 191.631688 C 306.705461 193.045053 310.456435 194.229738 314.048604 195.859077 C 314.582189 196.100461 314.610773 196.846844 314.099421 197.129517 C 313.35939 197.536058 312.451026 197.767913 311.593479 198.044234 Q 308.909674 198.904957 308.534895 198.962127 Q 307.229518 199.165397 306.330681 199.400428 Q 305.107883 199.721214 304.701342 199.740271 C 303.951783 199.775208 303.364204 200.02612 302.500305 200.022944 C 301.293387 200.016592 299.889551 200.334202 298.641344 200.346906 Q 296.821439 200.362787 294.271031 200.331026 C 293.197509 200.318321 292.216094 200.038824 291.187038 200.038824 C 290.250088 200.038824 289.491 199.740271 288.557227 199.70851 Q 288.207856 199.695806 287.509114 199.533824 Q 281.490405 198.129988 278.743079 197.158102 Q 267.658491 193.241971 260.782235 190.8726 Q 255.646482 189.100337 246.003843 186.441941 Q 233.461425 182.979993 220.39495 181.210905 Q 218.937121 181.010811 218.854542 181.007635 Q 217.695266 180.947289 217.301429 180.871062 C 216.116744 180.645559 214.96382 180.759899 213.979229 180.439113 C 213.826776 180.388295 213.664795 180.362886 213.499638 180.362886 Q 212.079921 180.366062 211.012752 180.140559 C 210.749135 180.086566 210.479167 180.057981 210.209198 180.054805 Q 208.243193 180.038924 207.353885 179.921408 Q 205.089326 179.626031 204.546213 179.746723 Q 204.225427 179.816597 199.191308 179.498987 Q 197.345994 179.384648 187.617601 179.425937 Q 185.213293 179.438641 183.244112 179.572038 C 180.661942 179.749899 178.61971 179.565685 176.351975 179.896 Q 175.361032 180.0421 173.833328 180.035748 C 172.42314 180.029396 171.333737 180.232666 169.888612 180.321597 Q 169.729807 180.331125 168.319619 180.528044 Q 166.852261 180.73449 164.822733 180.931408 C 164.733802 180.940937 164.682985 180.836125 164.74333 180.772603 Z" style="fill:#f3a22d;"/>
		<path d="M 299.349614 84.593951 Q 299.74345 85.162472 299.876847 85.880271 C 299.911784 86.054956 300.121406 86.128007 300.254803 86.010491 L 300.740746 85.584894 L 300.508891 87.26505 C 300.49301 87.37939 300.426312 87.477849 300.327853 87.535019 L 300.153167 87.636654 C 300.095998 87.668415 300.051532 87.716057 300.019771 87.773226 Q 297.281973 92.928036 291.796849 95.27835 Q 291.285497 95.497501 290.939302 95.507029 C 290.840843 95.510205 290.796377 95.389514 290.869428 95.325992 Q 295.97342 90.984263 298.90496 84.841686 Q 299.000243 84.644768 299.349614 84.593951 Z" style="fill:#ffc843;"/>
		<path d="M 255.821167 103.771241 C 256.014909 103.761713 256.17689 103.92687 256.16101 104.120612 Q 255.59884 111.82583 253.664595 119.022872 Q 253.439092 119.861362 253.140539 120.566456 C 252.518023 122.030638 252.111482 123.097808 252.117835 124.69221 Q 252.124187 126.886895 252.238526 129.02441 C 252.435445 132.810321 251.276168 136.685163 249.60554 140.112174 C 249.103716 141.138054 248.611421 142.224281 247.363213 142.179815 Q 240.550479 141.944784 237.672933 142.07818 Q 232.53718 142.313211 230.523532 142.386262 C 230.307558 142.39579 230.094759 142.332268 229.916897 142.205224 Q 229.148281 141.668463 228.455892 140.899847 C 228.35108 140.782331 228.236741 140.674344 228.112873 140.579061 Q 223.412245 136.917018 221.236617 131.273089 C 220.124982 128.386014 219.905831 125.149568 219.94712 122.068752 C 220.013818 117.450702 220.699856 112.642087 222.122749 108.097089 C 222.678566 106.318473 223.942654 104.018977 224.6541 102.380109 Q 225.302024 100.88099 226.759854 101.363757 C 228.16369 101.830644 229.535765 102.872405 230.695042 103.507625 Q 233.801267 105.216366 237.542713 105.664196 Q 241.379441 106.124731 245.559189 105.829353 C 249.024314 105.584794 252.705413 104.619259 255.249469 103.831587 Q 255.363809 103.79665 255.821167 103.771241 Z" style="fill:#ffc843;"/>
		<path d="M 288.195152 146.451669 C 288.233265 146.67082 288.039523 146.85821 287.820372 146.813745 Q 270.856823 143.434375 253.963149 142.522834 C 253.848809 142.516482 253.740822 142.475192 253.655067 142.402142 C 252.962677 141.836796 253.451797 138.619407 253.594721 137.89208 C 254.445916 133.636107 255.85928 129.049819 258.222298 125.425889 C 258.396984 125.159097 258.527204 124.863719 258.60343 124.552462 Q 259.073493 122.653154 259.159248 121.643154 Q 259.41016 118.733847 260.070788 116.107212 Q 261.230065 111.520924 264.044089 107.684196 Q 264.663429 106.836177 265.482862 107.607969 Q 267.540975 109.535862 267.83 109.853472 Q 269.055975 111.19061 270.288301 112.305421 Q 270.561446 112.549981 273.531099 115.548219 C 275.776602 117.812778 277.466287 120.039224 278.79072 122.640449 Q 280.239022 125.498939 281.50311 127.950888 Q 283.373832 131.577994 285.838486 137.898433 Q 287.461473 142.062299 288.195152 146.451669 Z" style="fill:#ffc843;"/>
		<path d="M 212.375298 111.250956 C 212.508695 111.171553 212.68338 111.228723 212.74055 111.374824 Q 212.956525 111.911584 212.969229 112.559509 Q 213.067688 117.349067 211.625739 122.13545 Q 210.876179 124.615984 212.232374 126.61375 C 214.465172 129.894661 216.840895 132.762679 219.972529 136.373905 Q 221.223912 137.815854 222.926302 140.486954 Q 223.431302 141.284155 223.856899 142.341796 C 223.94583 142.560947 223.796553 142.805507 223.561522 142.830916 C 215.221084 143.704343 207.328476 144.679406 199.724893 146.118179 C 199.480333 146.162644 199.226246 146.073713 199.064264 145.883147 C 197.149076 143.637645 197.336466 140.426608 197.739831 137.552238 Q 197.768416 137.342615 198.819705 131.165101 Q 199.61373 126.499411 202.160962 122.605512 Q 204.311181 119.315073 207.484105 116.104036 Q 208.433759 115.144854 209.326243 114.134854 C 210.345771 112.98193 211.206494 111.95605 212.375298 111.250956 Z" style="fill:#ffc843;"/>
		<path d="M 221.620226 160.073453 C 221.624101 160.15654 221.296963 160.235942 220.887405 160.254872 C 220.477529 160.274055 220.144038 160.220062 220.141561 160.137991 C 220.137686 160.054905 220.464825 159.975502 220.874383 159.956572 C 221.284258 159.937389 221.617749 159.991383 221.620226 160.073453 Z" style="fill:#ffc843;"/>
	</g>
	<g id="surface4">
	</g>
</svg>
