<?xml version="1.0" encoding="utf-8"?>
<svg xmlns="http://www.w3.org/2000/svg" width="490pt" height="280pt" viewBox="0 0 490 280" version="1.1" xmlns:xlink="http://www.w3.org/1999/xlink">
	<g id="surface2" data-size="118.73640303738 148" data-bboxpos="185.5 54.320683645359" data-pivot="244.86820151869 128.32068364536" data-center="244.86820151869 128.32068364536">
		<path stroke-opacity="0.996" vector-effect="non-scaling-stroke" d="M 235.700536 99.768258 Q 234.635488 100.471355 234.078003 101.715298 Q 233.637006 102.692978 233.574601 104.015967 C 233.483074 105.975488 233.07536 106.953168 231.943747 108.271996 C 231.818937 108.417608 231.635882 108.496655 231.444506 108.488334 Q 229.480825 108.396807 227.662755 109.515939" style="fill:none;stroke-width:0.50;stroke:#ffbda9;"/>
		<path vector-effect="non-scaling-stroke" d="M 227.662755 109.515939 Q 223.535696 111.625232 223.494093 116.59268" style="fill:none;stroke-width:0.50;stroke:#ffa342;"/>
		<path stroke-opacity="0.996" vector-effect="non-scaling-stroke" d="M 219.749785 126.872885 Q 216.450634 127.417889 212.74377 126.889526" style="fill:none;stroke-width:0.50;stroke:#ffbda9;"/>
		<path vector-effect="non-scaling-stroke" d="M 258.416002 111.529544 Q 256.240143 112.602912 255.59529 115.223928 Q 255.312387 116.376342 255.928118 117.636926" style="fill:none;stroke-width:0.50;stroke:#ffa342;"/>
		<path vector-effect="non-scaling-stroke" d="M 255.928118 117.636926 L 258.116458 121.002642 C 258.170542 121.085849 258.124778 121.194018 258.033251 121.21482 Q 254.925475 122.013605 254.305584 125.362681 Q 254.039323 126.797999 253.935314 127.929612 Q 253.806343 129.36909 254.293103 129.98066 Q 255.025324 130.895935 255.636894 132.227245" style="fill:none;stroke-width:0.50;stroke:#ff8845;"/>
		<path vector-effect="non-scaling-stroke" d="M 255.636894 132.227245 Q 253.124047 132.90538 250.694408 131.9277 Q 250.066196 131.673919 249.080195 131.31613 C 248.780651 131.207961 248.456144 131.391016 248.393739 131.703042 L 247.877856 134.203407 C 247.852894 134.319897 247.80297 134.432226 247.736405 134.532074 C 245.481499 137.831225 241.171385 138.692416 237.901357 136.408388 C 236.470199 135.414066 235.50916 134.677686 235.13889 133.27149 Q 234.831024 132.110755 234.573083 129.768483 C 234.560602 129.639512 234.581404 129.510541 234.635488 129.394052 Q 236.882073 124.605498 239.865038 120.665655 C 239.902481 120.61157 239.898321 120.540844 239.852557 120.495081 C 239.806793 120.449317 239.736067 120.445157 239.681983 120.4826 Q 239.095375 120.927756 238.512927 121.743183 Q 236.948638 123.931523 235.338586 126.398606 Q 235.330265 126.411087 234.29434 128.362287 Q 233.412348 130.030584 231.86054 130.70456 Q 230.812134 131.158037 229.081432 130.692078" style="fill:none;stroke-width:0.50;stroke:#ffb769;"/>
		<path stroke-opacity="0.996" vector-effect="non-scaling-stroke" d="M 229.081432 130.692078 Q 225.828045 129.589588 223.94341 126.440209" style="fill:none;stroke-width:0.50;stroke:#ffdc6a;"/>
		<path stroke-opacity="0.996" vector-effect="non-scaling-stroke" d="M 227.662755 109.515939 Q 230.966067 108.733794 233.68693 110.210716 Q 234.161209 110.468657 237.065128 111.96638 C 237.164976 112.016304 237.264824 111.899814 237.198259 111.808287 Q 234.989117 108.817001 234.435792 105.305673 Q 233.936551 102.139653 237.065128 99.231574" style="fill:none;stroke-width:0.50;stroke:#ffdc6a;"/>
		<path stroke-opacity="0.996" vector-effect="non-scaling-stroke" d="M 272.860709 115.831337 L 271.283939 118.369146 C 271.258977 118.410749 271.279779 118.468994 271.329703 118.493956 L 271.333864 118.498117 C 271.375467 118.518918 271.429551 118.502277 271.462834 118.460674 L 273.954879 115.219767" style="fill:none;stroke-width:0.50;stroke:#ffa2ac;"/>
		<path vector-effect="non-scaling-stroke" d="M 285.000586 127.376286 Q 285.612157 130.421656 284.526307 132.813853 C 282.841369 136.529038 278.631103 136.499916 276.251388 133.558554 Q 274.836871 131.80705 273.871672 130.405015 C 273.84671 130.371732 273.800946 130.359251 273.763503 130.384213 C 273.72606 130.409175 273.713579 130.454939 273.734381 130.488222 Q 274.69958 132.273008 274.903437 132.805532 Q 276.376198 136.653848 274.283546 139.774105 C 272.835747 141.933322 269.886065 142.582335 267.581235 141.434081 C 264.806287 140.052848 263.791164 137.365267 264.069907 134.278293 C 264.086548 134.111879 263.899333 134.007871 263.762041 134.099398 Q 260.254873 136.466633 257.130457 133.63344 Q 256.277586 132.863777 255.636894 132.227245" style="fill:none;stroke-width:0.50;stroke:#ff7daa;"/>
		<path vector-effect="non-scaling-stroke" d="M 255.928118 117.636926 Q 255.553687 114.791252 257.396718 112.723562 C 257.484086 112.623714 257.588094 112.540507 257.704584 112.478102 L 259.040053 111.737561" style="fill:none;stroke-width:0.50;stroke:#ff6984;"/>
		<path vector-effect="non-scaling-stroke" d="M 263.408412 112.723562 L 265.251444 115.032552 C 265.280566 115.065835 265.33049 115.069995 265.367933 115.036712 C 265.401216 115.01175 265.405376 114.957666 265.380414 114.916062 L 263.86605 112.57379" style="fill:none;stroke-width:0.50;stroke:#ff7daa;"/>
		<path vector-effect="non-scaling-stroke" d="M 304.171442 148.827008 Q 303.609795 149.57587 302.852613 151.448024 Q 301.454738 154.892787 297.856043 157.280823 C 293.150696 160.396919 287.130681 159.564851 282.184035 157.451397 Q 275.573252 154.630685 269.673887 150.324732 C 268.3717 149.376174 267.543792 150.337213 266.345614 151.377298 Q 262.905011 154.356103 262.151989 154.951032 Q 256.80179 159.161298 251.917548 161.129139 C 244.462216 164.132906 237.497804 161.857199 231.182405 157.397313 Q 226.793244 154.302018 222.624581 150.249845 C 222.229349 149.867094 221.63026 149.792208 221.15182 150.06263 C 220.586014 150.387137 219.937001 150.66588 219.479363 151.007028 Q 212.814495 155.961995 204.697669 158.429077 C 200.682939 159.648058 196.480993 159.731264 192.803251 157.617811 Q 188.214394 154.984314 186.512814 150.191601 Q 186.383844 149.82133 185.755632 149.750604" style="fill:none;stroke-width:0.50;stroke:#ff7daa;"/>
		<path stroke-opacity="0.996" vector-effect="non-scaling-stroke" d="M 212.465027 127.130826 C 212.057313 127.634227 211.354215 128.898971 211.965786 129.535503 C 212.057313 129.627031 212.169642 129.689436 212.290292 129.722719 Q 215.643528 130.621353 219.454401 130.866813 Q 224.334482 131.182999 229.360175 131.270366 C 229.460023 131.270366 229.54739 131.19548 229.559871 131.095632 C 229.572352 130.995783 229.505787 130.904256 229.405939 130.883454 Q 229.30193 130.862652 229.081432 130.692078" style="fill:none;stroke-width:0.50;stroke:#ffd1d0;"/>
		<path stroke-opacity="0.996" vector-effect="non-scaling-stroke" d="M 219.778908 108.92101 L 223.881005 106.033733 C 223.914287 106.012931 223.94757 105.992129 223.985013 105.975488 C 225.603386 105.301512 226.581067 104.640018 227.929017 105.834036 C 227.95814 105.858998 227.995583 105.858998 228.024705 105.834036 C 228.053828 105.809074 228.057988 105.771631 228.041347 105.738348 L 227.146873 104.161579 C 227.101109 104.078372 227.071987 103.986844 227.067827 103.886996 Q 226.784923 98.728172 228.873415 94.459662 C 228.902537 94.397256 228.881736 94.32237 228.823491 94.289088 C 228.761086 94.255805 228.6862 94.268286 228.644596 94.326531 L 225.840526 98.241412 C 225.819724 98.270535 225.794762 98.291336 225.76564 98.312138 Q 225.520179 98.45775 225.112466 98.312138 C 225.008457 98.274695 224.891968 98.316298 224.837883 98.411986 L 224.509216 98.977793 C 224.396887 99.177489 224.109824 99.194131 223.976693 99.002755 L 222.882523 97.446787 C 222.807637 97.338618 222.632902 97.413504 222.662025 97.542475 C 222.890843 98.649126 223.510734 99.893068 223.394245 101.045483 C 223.360962 101.399112 222.990692 101.615449 222.666185 101.473998 Q 221.588656 101.00804 220.353035 99.897228 C 220.253187 99.809861 220.111735 99.784899 219.982764 99.834823 L 219.666578 99.959633 C 219.583372 99.992916 219.575051 100.109406 219.654097 100.15517 Q 221.318234 101.103727 222.36248 102.651375 C 222.541375 102.917636 222.370801 103.279586 222.050454 103.304548 L 221.239188 103.371114 C 221.110217 103.379434 221.014529 103.495924 221.02701 103.624895 Q 221.035331 103.6873 221.031171 103.770507 C 221.01869 103.961882 220.893879 104.132456 220.714985 104.203182 L 219.279667 104.773149 C 219.242224 104.78979 219.221422 104.827233 219.229743 104.868837 C 219.238063 104.90628 219.275506 104.935402 219.31711 104.931242 L 222.47897 104.681621 C 222.666185 104.66914 222.84924 104.756508 222.961569 104.91044 Q 223.298557 105.380559 223.003173 106.087817 C 222.96989 106.175184 222.907485 106.25007 222.828438 106.308315 L 219.466882 108.671389 C 219.44192 108.688031 219.43776 108.721313 219.454401 108.746275 L 219.550089 108.879406 C 219.604173 108.954292 219.704022 108.975094 219.778908 108.92101" style="fill:none;stroke-width:0.50;stroke:#ffbda9;"/>
		<path vector-effect="non-scaling-stroke" d="M 265.563469 115.406983 Q 265.634195 115.594198 265.684119 115.606679 C 265.746524 115.62332 265.800609 115.565076 265.779807 115.506831 Q 265.775647 115.490189 265.646676 115.352898 C 265.609233 115.315455 265.542668 115.357059 265.563469 115.406983" style="fill:none;stroke-width:0.50;stroke:#ff6984;"/>
		<path vector-effect="non-scaling-stroke" d="M 266.002386 116.061363 C 265.950381 116.089279 266.133436 116.505313 266.410016 116.983752 C 266.686762 117.462191 266.953024 117.828302 267.005028 117.797973 C 267.057032 117.770057 266.873977 117.354023 266.597398 116.875583 C 266.320652 116.397144 266.05439 116.031034 266.002386 116.061363" style="fill:none;stroke-width:0.50;stroke:#ff7daa;"/>
		<path stroke-opacity="0.996" vector-effect="non-scaling-stroke" d="M 268.283543 121.519107 C 266.711724 121.972002 265.846373 123.760949 266.353643 125.514325 C 266.861496 127.268117 268.542274 128.320684 270.115674 127.866624 C 271.687493 127.413729 272.552844 125.624782 272.045573 123.871406 C 271.53772 122.117614 269.856942 121.065048 268.283543 121.519107" style="fill:none;stroke-width:0.50;stroke:#ffa2ac;"/>
		<path d="M 244.890731 54.320684 Q 245.140351 54.320684 245.265162 54.595266 C 248.031789 60.715129 249.650162 67.41744 249.654322 74.157193 C 249.658483 80.901108 248.04843 87.603418 245.285963 93.727441 Q 245.161153 94.002024 244.911533 94.002024 Q 244.661912 94.002024 244.537102 93.727441 C 241.770475 87.607579 240.152102 80.905268 240.147941 74.161354 C 240.143781 67.4216 241.757994 60.719289 244.5163 54.595266 Q 244.64111 54.320684 244.890731 54.320684 Z" style="fill:#ff8481;"/>
		<path d="M 235.700536 99.768258 Q 234.635488 100.471355 234.078003 101.715298 Q 233.637006 102.692978 233.574601 104.015967 C 233.483074 105.975488 233.07536 106.953168 231.943747 108.271996 C 231.818937 108.417608 231.635882 108.496655 231.444506 108.488334 Q 229.480825 108.396807 227.662755 109.515939 Q 223.535696 111.625232 223.494093 116.59268 Q 222.092058 119.833586 221.330715 121.938719 Q 220.640098 123.852477 219.749785 126.872885 Q 216.450634 127.417889 212.74377 126.889526 Q 213.047475 126.515095 213.055795 126.340361 Q 213.1182 125.042334 213.084918 122.300669 C 213.072437 121.268904 212.943466 120.24546 212.693846 119.246978 C 212.223727 117.366504 211.969946 116.209929 212.731289 114.333614 C 212.785373 114.204644 212.86858 114.088154 212.968428 113.988306 Q 215.776659 111.35481 219.225582 109.183111 C 219.267186 109.153989 219.279667 109.091584 219.250544 109.04998 L 219.175658 108.945972 C 219.171498 108.937651 219.159017 108.937651 219.150696 108.941811 Q 216.296702 110.397931 213.151483 111.23416 C 210.817531 111.84989 207.705596 111.300725 206.960895 108.671389 C 206.445012 106.840839 206.773679 104.78563 208.446137 103.629055 Q 209.602712 102.830269 209.972982 101.790184 Q 210.418139 100.5296 210.671919 100.217575 C 211.886739 98.70321 214.20405 98.170686 216.03876 98.640805 Q 217.877631 99.115084 219.645777 99.718334 C 219.745625 99.751616 219.832992 99.643447 219.778908 99.55192 Q 219.221422 98.640805 218.318628 97.692247 C 216.671132 95.965705 215.730895 93.993703 215.876507 91.613988 C 216.067883 88.410525 218.530805 87.728228 221.039491 88.930567 Q 222.387442 89.579581 223.510734 90.236915 C 223.739553 90.370046 224.034937 90.249396 224.105663 89.991454 L 224.363604 89.072019 C 224.371925 89.034576 224.388566 88.997133 224.409368 88.96801 Q 225.64499 86.958565 227.483861 85.989206 C 230.687324 84.295946 232.297376 88.031933 231.556835 90.436611 C 231.456987 90.752797 231.769013 91.044021 232.081038 90.927531 C 235.846148 89.517175 238.346513 92.217237 238.396437 95.736886 C 238.400598 95.961545 238.329872 96.182043 238.196741 96.365098 L 235.700536 99.768258 Z M 219.778908 108.92101 L 223.881005 106.033733 C 223.914287 106.012931 223.94757 105.992129 223.985013 105.975488 C 225.603386 105.301512 226.581067 104.640018 227.929017 105.834036 C 227.95814 105.858998 227.995583 105.858998 228.024705 105.834036 C 228.053828 105.809074 228.057988 105.771631 228.041347 105.738348 L 227.146873 104.161579 C 227.101109 104.078372 227.071987 103.986844 227.067827 103.886996 Q 226.784923 98.728172 228.873415 94.459662 C 228.902537 94.397256 228.881736 94.32237 228.823491 94.289088 C 228.761086 94.255805 228.6862 94.268286 228.644596 94.326531 L 225.840526 98.241412 C 225.819724 98.270535 225.794762 98.291336 225.76564 98.312138 Q 225.520179 98.45775 225.112466 98.312138 C 225.008457 98.274695 224.891968 98.316298 224.837883 98.411986 L 224.509216 98.977793 C 224.396887 99.177489 224.109824 99.194131 223.976693 99.002755 L 222.882523 97.446787 C 222.807637 97.338618 222.632902 97.413504 222.662025 97.542475 C 222.890843 98.649126 223.510734 99.893068 223.394245 101.045483 C 223.360962 101.399112 222.990692 101.615449 222.666185 101.473998 Q 221.588656 101.00804 220.353035 99.897228 C 220.253187 99.809861 220.111735 99.784899 219.982764 99.834823 L 219.666578 99.959633 C 219.583372 99.992916 219.575051 100.109406 219.654097 100.15517 Q 221.318234 101.103727 222.36248 102.651375 C 222.541375 102.917636 222.370801 103.279586 222.050454 103.304548 L 221.239188 103.371114 C 221.110217 103.379434 221.014529 103.495924 221.02701 103.624895 Q 221.035331 103.6873 221.031171 103.770507 C 221.01869 103.961882 220.893879 104.132456 220.714985 104.203182 L 219.279667 104.773149 C 219.242224 104.78979 219.221422 104.827233 219.229743 104.868837 C 219.238063 104.90628 219.275506 104.935402 219.31711 104.931242 L 222.47897 104.681621 C 222.666185 104.66914 222.84924 104.756508 222.961569 104.91044 Q 223.298557 105.380559 223.003173 106.087817 C 222.96989 106.175184 222.907485 106.25007 222.828438 106.308315 L 219.466882 108.671389 C 219.44192 108.688031 219.43776 108.721313 219.454401 108.746275 L 219.550089 108.879406 C 219.604173 108.954292 219.704022 108.975094 219.778908 108.92101 Z" style="fill:#ff8481;"/>
		<path d="M 258.416002 111.529544 Q 256.240143 112.602912 255.59529 115.223928 Q 255.312387 116.376342 255.928118 117.636926 L 258.116458 121.002642 C 258.170542 121.085849 258.124778 121.194018 258.033251 121.21482 Q 254.925475 122.013605 254.305584 125.362681 Q 254.039323 126.797999 253.935314 127.929612 Q 253.806343 129.36909 254.293103 129.98066 Q 255.025324 130.895935 255.636894 132.227245 Q 253.124047 132.90538 250.694408 131.9277 Q 250.066196 131.673919 249.080195 131.31613 C 248.780651 131.207961 248.456144 131.391016 248.393739 131.703042 L 247.877856 134.203407 C 247.852894 134.319897 247.80297 134.432226 247.736405 134.532074 C 245.481499 137.831225 241.171385 138.692416 237.901357 136.408388 C 236.470199 135.414066 235.50916 134.677686 235.13889 133.27149 Q 234.831024 132.110755 234.573083 129.768483 C 234.560602 129.639512 234.581404 129.510541 234.635488 129.394052 Q 236.882073 124.605498 239.865038 120.665655 C 239.902481 120.61157 239.898321 120.540844 239.852557 120.495081 C 239.806793 120.449317 239.736067 120.445157 239.681983 120.4826 Q 239.095375 120.927756 238.512927 121.743183 Q 236.948638 123.931523 235.338586 126.398606 Q 235.330265 126.411087 234.29434 128.362287 Q 233.412348 130.030584 231.86054 130.70456 Q 230.812134 131.158037 229.081432 130.692078 Q 225.828045 129.589588 223.94341 126.440209 Q 222.73275 124.031371 223.564819 121.106651 Q 223.8186 120.224658 224.126465 119.350987 C 224.168068 119.230337 224.172229 119.101366 224.138946 118.976556 L 223.494093 116.59268 Q 223.535696 111.625232 227.662755 109.515939 Q 230.966067 108.733794 233.68693 110.210716 Q 234.161209 110.468657 237.065128 111.96638 C 237.164976 112.016304 237.264824 111.899814 237.198259 111.808287 Q 234.989117 108.817001 234.435792 105.305673 Q 233.936551 102.139653 237.065128 99.231574 Q 239.973207 96.839377 243.559422 97.842019 C 246.496623 98.661607 248.248127 100.683533 248.501908 103.69146 C 248.52687 103.957722 248.838895 104.095013 249.046912 103.924439 L 250.48223 102.784506 C 250.557116 102.726261 250.640323 102.688818 250.731851 102.672176 Q 255.786666 101.686175 258.241268 105.671783 Q 259.506012 107.722831 259.181505 110.248159 Q 259.127421 110.655872 258.416002 111.529544 Z" style="fill:#ffc203;"/>
		<path fill-opacity="0.992" d="M 237.065128 99.231574 Q 233.936551 102.139653 234.435792 105.305673 Q 234.989117 108.817001 237.198259 111.808287 C 237.264824 111.899814 237.164976 112.016304 237.065128 111.96638 Q 234.161209 110.468657 233.68693 110.210716 Q 230.966067 108.733794 227.662755 109.515939 Q 229.480825 108.396807 231.444506 108.488334 C 231.635882 108.496655 231.818937 108.417608 231.943747 108.271996 C 233.07536 106.953168 233.483074 105.975488 233.574601 104.015967 Q 233.637006 102.692978 234.078003 101.715298 Q 234.635488 100.471355 235.700536 99.768258 L 237.065128 99.231574 Z" style="fill:#fff7d2;"/>
		<path d="M 272.860709 115.831337 L 271.283939 118.369146 C 271.258977 118.410749 271.279779 118.468994 271.329703 118.493956 L 271.333864 118.498117 C 271.375467 118.518918 271.429551 118.502277 271.462834 118.460674 L 273.954879 115.219767 Q 276.896241 112.465621 280.033138 115.219767 Q 283.502863 118.265137 281.235477 122.866476 C 281.14395 123.04537 281.214675 123.265868 281.39357 123.361556 L 283.053546 124.251869 C 283.074348 124.26435 283.09515 124.276831 283.111791 124.293473 Q 284.588713 125.795356 285.000586 127.376286 Q 285.612157 130.421656 284.526307 132.813853 C 282.841369 136.529038 278.631103 136.499916 276.251388 133.558554 Q 274.836871 131.80705 273.871672 130.405015 C 273.84671 130.371732 273.800946 130.359251 273.763503 130.384213 C 273.72606 130.409175 273.713579 130.454939 273.734381 130.488222 Q 274.69958 132.273008 274.903437 132.805532 Q 276.376198 136.653848 274.283546 139.774105 C 272.835747 141.933322 269.886065 142.582335 267.581235 141.434081 C 264.806287 140.052848 263.791164 137.365267 264.069907 134.278293 C 264.086548 134.111879 263.899333 134.007871 263.762041 134.099398 Q 260.254873 136.466633 257.130457 133.63344 Q 256.277586 132.863777 255.636894 132.227245 Q 255.025324 130.895935 254.293103 129.98066 Q 253.806343 129.36909 253.935314 127.929612 Q 254.039323 126.797999 254.305584 125.362681 Q 254.925475 122.013605 258.033251 121.21482 C 258.124778 121.194018 258.170542 121.085849 258.116458 121.002642 L 255.928118 117.636926 Q 255.553687 114.791252 257.396718 112.723562 C 257.484086 112.623714 257.588094 112.540507 257.704584 112.478102 L 259.040053 111.737561 C 260.720832 111.558666 261.910689 112.141114 263.408412 112.723562 L 265.251444 115.032552 C 265.280566 115.065835 265.33049 115.069995 265.367933 115.036712 C 265.401216 115.01175 265.405376 114.957666 265.380414 114.916062 L 263.86605 112.57379 Q 262.389129 108.513296 265.917098 106.096138 C 266.033588 106.017091 266.162559 105.958846 266.29569 105.921403 Q 271.733256 104.473604 273.938238 109.553382 Q 274.362592 110.526902 274.154575 111.937258 Q 274.025605 112.831731 272.860709 115.831337 Z M 265.563469 115.406983 Q 265.634195 115.594198 265.684119 115.606679 C 265.746524 115.62332 265.800609 115.565076 265.779807 115.506831 Q 265.775647 115.490189 265.646676 115.352898 C 265.609233 115.315455 265.542668 115.357059 265.563469 115.406983 Z M 266.002386 116.061363 C 265.950381 116.089279 266.133436 116.505313 266.410016 116.983752 C 266.686762 117.462191 266.953024 117.828302 267.005028 117.797973 C 267.057032 117.770057 266.873977 117.354023 266.597398 116.875583 C 266.320652 116.397144 266.05439 116.031034 266.002386 116.061363 Z M 268.283543 121.519107 C 266.711724 121.972002 265.846373 123.760949 266.353643 125.514325 C 266.861496 127.268117 268.542274 128.320684 270.115674 127.866624 C 271.687493 127.413729 272.552844 125.624782 272.045573 123.871406 C 271.53772 122.117614 269.856942 121.065048 268.283543 121.519107 Z" style="fill:#ff4e86;"/>
		<path d="M 258.416002 111.529544 Q 258.703066 111.750042 259.040053 111.737561 L 257.704584 112.478102 C 257.588094 112.540507 257.484086 112.623714 257.396718 112.723562 Q 255.553687 114.791252 255.928118 117.636926 Q 255.312387 116.376342 255.59529 115.223928 Q 256.240143 112.602912 258.416002 111.529544 Z" style="fill:#ff8481;"/>
		<path d="M 263.408412 112.723562 Q 263.699636 112.848372 263.86605 112.57379 L 265.380414 114.916062 C 265.405376 114.957666 265.401216 115.01175 265.367933 115.036712 C 265.33049 115.069995 265.280566 115.065835 265.251444 115.032552 L 263.408412 112.723562 Z" style="fill:#ffabce;"/>
		<path fill-opacity="0.992" d="M 273.954879 115.219767 L 271.462834 118.460674 C 271.429551 118.502277 271.375467 118.518918 271.333864 118.498117 L 271.329703 118.493956 C 271.279779 118.468994 271.258977 118.410749 271.283939 118.369146 L 272.860709 115.831337 L 273.954879 115.219767 Z" style="fill:#fff7d2;"/>
		<path d="M 255.636894 132.227245 Q 256.277586 132.863777 257.130457 133.63344 Q 260.254873 136.466633 263.762041 134.099398 C 263.899333 134.007871 264.086548 134.111879 264.069907 134.278293 C 263.791164 137.365267 264.806287 140.052848 267.581235 141.434081 C 269.886065 142.582335 272.835747 141.933322 274.283546 139.774105 Q 276.376198 136.653848 274.903437 132.805532 Q 274.69958 132.273008 273.734381 130.488222 C 273.713579 130.454939 273.72606 130.409175 273.763503 130.384213 C 273.800946 130.359251 273.84671 130.371732 273.871672 130.405015 Q 274.836871 131.80705 276.251388 133.558554 C 278.631103 136.499916 282.841369 136.529038 284.526307 132.813853 Q 285.612157 130.421656 285.000586 127.376286 Q 285.503988 128.02946 285.907541 128.27076 C 285.999068 128.329004 286.103077 128.366447 286.211246 128.378928 Q 291.711218 129.090347 295.426403 130.850171 Q 299.374567 132.718165 301.255042 135.688649 Q 303.734606 139.607691 304.125678 142.682184 Q 304.321214 144.209029 304.171442 148.827008 Q 303.609795 149.57587 302.852613 151.448024 Q 301.454738 154.892787 297.856043 157.280823 C 293.150696 160.396919 287.130681 159.564851 282.184035 157.451397 Q 275.573252 154.630685 269.673887 150.324732 C 268.3717 149.376174 267.543792 150.337213 266.345614 151.377298 Q 262.905011 154.356103 262.151989 154.951032 Q 256.80179 159.161298 251.917548 161.129139 C 244.462216 164.132906 237.497804 161.857199 231.182405 157.397313 Q 226.793244 154.302018 222.624581 150.249845 C 222.229349 149.867094 221.63026 149.792208 221.15182 150.06263 C 220.586014 150.387137 219.937001 150.66588 219.479363 151.007028 Q 212.814495 155.961995 204.697669 158.429077 C 200.682939 159.648058 196.480993 159.731264 192.803251 157.617811 Q 188.214394 154.984314 186.512814 150.191601 Q 186.383844 149.82133 185.755632 149.750604 Q 185.110779 145.581942 186.09262 141.450722 Q 187.611145 135.056277 193.15688 131.711362 Q 195.773735 130.134593 199.817588 129.231799 Q 201.365235 128.88649 207.547503 127.858886 C 208.928736 127.630067 210.838333 127.521898 212.465027 127.130826 C 212.057313 127.634227 211.354215 128.898971 211.965786 129.535503 C 212.057313 129.627031 212.169642 129.689436 212.290292 129.722719 Q 215.643528 130.621353 219.454401 130.866813 Q 224.334482 131.182999 229.360175 131.270366 C 229.460023 131.270366 229.54739 131.19548 229.559871 131.095632 C 229.572352 130.995783 229.505787 130.904256 229.405939 130.883454 Q 229.30193 130.862652 229.081432 130.692078 Q 230.812134 131.158037 231.86054 130.70456 Q 233.412348 130.030584 234.29434 128.362287 Q 235.330265 126.411087 235.338586 126.398606 Q 236.948638 123.931523 238.512927 121.743183 Q 239.095375 120.927756 239.681983 120.4826 C 239.736067 120.445157 239.806793 120.449317 239.852557 120.495081 C 239.898321 120.540844 239.902481 120.61157 239.865038 120.665655 Q 236.882073 124.605498 234.635488 129.394052 C 234.581404 129.510541 234.560602 129.639512 234.573083 129.768483 Q 234.831024 132.110755 235.13889 133.27149 C 235.50916 134.677686 236.470199 135.414066 237.901357 136.408388 C 241.171385 138.692416 245.481499 137.831225 247.736405 134.532074 C 247.80297 134.432226 247.852894 134.319897 247.877856 134.203407 L 248.393739 131.703042 C 248.456144 131.391016 248.780651 131.207961 249.080195 131.31613 Q 250.066196 131.673919 250.694408 131.9277 Q 253.124047 132.90538 255.636894 132.227245 Z" style="fill:#ffabce;"/>
		<path fill-opacity="0.992" d="M 229.081432 130.692078 Q 229.30193 130.862652 229.405939 130.883454 C 229.505787 130.904256 229.572352 130.995783 229.559871 131.095632 C 229.54739 131.19548 229.460023 131.270366 229.360175 131.270366 Q 224.334482 131.182999 219.454401 130.866813 Q 215.643528 130.621353 212.290292 129.722719 C 212.169642 129.689436 212.057313 129.627031 211.965786 129.535503 C 211.354215 128.898971 212.057313 127.634227 212.465027 127.130826 Q 212.531592 126.951931 212.74377 126.889526 Q 216.450634 127.417889 219.749785 126.872885 L 223.406726 127.555181 C 223.535696 127.580143 223.668827 127.513577 223.731232 127.392927 Q 223.885165 127.093383 223.94341 126.440209 Q 225.828045 129.589588 229.081432 130.692078 Z" style="fill:#fff7d2;"/>
		<path d="M 304.171442 148.827008 Q 303.684682 152.579637 302.186959 155.566762 Q 300.127589 159.668859 295.809154 162.119301 C 295.655222 162.206668 295.492969 162.269073 295.326555 162.314837 Q 294.29479 162.6019 293.629135 162.95969 C 293.496004 163.030415 293.354553 163.08034 293.204781 163.109462 Q 290.042921 163.704391 288.466151 163.600382 Q 284.43062 163.33412 280.382607 161.432844 Q 274.466601 158.649576 269.282815 154.189689 Q 268.267692 153.320178 267.381539 154.243774 Q 265.238963 156.469556 261.831643 159.506606 Q 257.554811 163.317479 252.970115 165.414291 C 249.01363 167.22404 245.460698 167.873053 241.158904 166.874571 C 233.474753 165.089785 228.003903 159.652218 222.6121 154.31866 C 222.541375 154.247934 222.466488 154.193849 222.379121 154.148086 Q 221.38896 153.640524 220.477845 154.351942 Q 215.822423 157.996402 211.021388 160.638219 C 209.165876 161.661663 206.90265 162.406364 205.072099 162.955529 Q 198.032801 165.052342 191.883816 160.604936 C 188.472335 158.137853 186.467051 153.802777 185.755632 149.750604 Q 186.383844 149.82133 186.512814 150.191601 Q 188.214394 154.984314 192.803251 157.617811 C 196.480993 159.731264 200.682939 159.648058 204.697669 158.429077 Q 212.814495 155.961995 219.479363 151.007028 C 219.937001 150.66588 220.586014 150.387137 221.15182 150.06263 C 221.63026 149.792208 222.229349 149.867094 222.624581 150.249845 Q 226.793244 154.302018 231.182405 157.397313 C 237.497804 161.857199 244.462216 164.132906 251.917548 161.129139 Q 256.80179 159.161298 262.151989 154.951032 Q 262.905011 154.356103 266.345614 151.377298 C 267.543792 150.337213 268.3717 149.376174 269.673887 150.324732 Q 275.573252 154.630685 282.184035 157.451397 C 287.130681 159.564851 293.150696 160.396919 297.856043 157.280823 Q 301.454738 154.892787 302.852613 151.448024 Q 303.609795 149.57587 304.171442 148.827008 Z" style="fill:#ff4e86;"/>
		<path d="M 244.87409 172.162366 Q 260.421287 172.149885 275.244585 170.735369 Q 286.244529 169.686962 294.606816 168.155957 Q 297.061417 167.70664 298.954373 167.249002 C 299.503538 167.115871 300.023581 167.556867 299.981977 168.122674 L 299.474416 174.858267 C 299.441133 175.265981 299.129107 175.594648 298.725554 175.648732 C 295.838277 176.031484 290.671132 177.104852 286.643921 177.479283 Q 285.146198 177.620734 283.561108 177.895317 C 281.464296 178.265587 278.435567 178.477765 276.779751 178.706583 C 273.709419 179.135099 270.880386 179.197504 267.897421 179.538652 Q 265.147435 179.854838 262.717796 179.975488 Q 254.447036 180.387362 244.87825 180.391522 Q 235.313624 180.399843 227.042865 180.00045 Q 224.609065 179.88396 221.859079 179.571935 C 218.876114 179.239107 216.047081 179.180862 212.976749 178.756508 C 211.320933 178.527689 208.292204 178.319672 206.195392 177.953562 Q 204.610301 177.683139 203.108418 177.541688 C 199.081207 177.175578 193.914063 176.11053 191.026785 175.731939 C 190.619072 175.677855 190.307046 175.349188 190.277924 174.941474 L 189.757881 168.205881 C 189.712117 167.640074 190.23216 167.199078 190.785486 167.332209 Q 192.678441 167.785686 195.133043 168.230843 Q 203.49949 169.749368 214.499434 170.781132 Q 229.326892 172.174847 244.87409 172.162366 Z" style="fill:#ffc203;"/>
		<path d="M 244.828326 182.945972 Q 251.846822 182.945972 254.967079 182.783718 Q 261.985575 182.413448 264.35697 182.326081 C 267.597877 182.201271 271.737417 181.598021 274.662137 181.502333 C 277.245709 181.419126 279.725273 180.820037 282.154913 180.73683 C 284.447261 180.661944 287.342859 179.888121 289.905629 179.75915 Q 290.176052 179.746669 292.497522 179.214145 C 292.643134 179.180862 292.792907 179.1559 292.942679 179.143419 Q 295.87156 178.889639 297.69795 178.253106 Q 297.918448 178.17406 298.941892 178.232304 C 299.27888 178.253106 299.53266 178.536009 299.520179 178.872997 Q 299.174871 186.706921 299.020938 193.005678 Q 299.016778 193.222016 298.708913 195.189858 Q 298.604904 195.843031 297.614743 196.213302 Q 296.133661 196.758307 292.268704 197.607016 Q 291.286863 197.819194 290.920753 197.89824 Q 289.17757 198.25603 285.191962 199.092258 Q 282.067545 199.753753 279.434049 200.078259 Q 270.880386 201.134986 268.696207 201.322202 Q 257.126296 202.320684 244.828326 202.320684 Q 232.534516 202.320684 220.964605 201.326362 Q 218.780426 201.139147 210.226763 200.08242 Q 207.593266 199.757913 204.46885 199.096419 Q 200.479082 198.26019 198.735899 197.902401 Q 198.369789 197.823354 197.387948 197.611177 Q 193.52299 196.762467 192.041909 196.217462 Q 191.051747 195.847192 190.947739 195.194018 Q 190.639874 193.226176 190.635713 193.009839 Q 190.481781 186.711081 190.136472 178.877157 C 190.123991 178.54433 190.377772 178.257267 190.71476 178.236465 Q 191.738204 178.17822 191.958702 178.257267 Q 193.785092 178.893799 196.713973 179.14758 C 196.863745 179.160061 197.013517 179.185023 197.159129 179.218306 Q 199.4806 179.750829 199.751022 179.76331 C 202.313793 179.892281 205.209391 180.666104 207.501739 180.740991 C 209.931379 180.824197 212.410942 181.423287 214.994515 181.506494 C 217.919235 181.602181 222.058775 182.205431 225.299681 182.326081 Q 227.671076 182.413448 234.689573 182.783718 Q 237.809829 182.945972 244.828326 182.945972 Z" style="fill:#ff4e86;"/>
		<path fill-opacity="0.992" d="M 219.778908 108.92101 C 219.704022 108.975094 219.604173 108.954292 219.550089 108.879406 L 219.454401 108.746275 C 219.43776 108.721313 219.44192 108.688031 219.466882 108.671389 L 222.828438 106.308315 C 222.907485 106.25007 222.96989 106.175184 223.003173 106.087817 Q 223.298557 105.380559 222.961569 104.91044 C 222.84924 104.756508 222.666185 104.66914 222.47897 104.681621 L 219.31711 104.931242 C 219.275506 104.935402 219.238063 104.90628 219.229743 104.868837 C 219.221422 104.827233 219.242224 104.78979 219.279667 104.773149 L 220.714985 104.203182 C 220.893879 104.132456 221.01869 103.961882 221.031171 103.770507 Q 221.035331 103.6873 221.02701 103.624895 C 221.014529 103.495924 221.110217 103.379434 221.239188 103.371114 L 222.050454 103.304548 C 222.370801 103.279586 222.541375 102.917636 222.36248 102.651375 Q 221.318234 101.103727 219.654097 100.15517 C 219.575051 100.109406 219.583372 99.992916 219.666578 99.959633 L 219.982764 99.834823 C 220.111735 99.784899 220.253187 99.809861 220.353035 99.897228 Q 221.588656 101.00804 222.666185 101.473998 C 222.990692 101.615449 223.360962 101.399112 223.394245 101.045483 C 223.510734 99.893068 222.890843 98.649126 222.662025 97.542475 C 222.632902 97.413504 222.807637 97.338618 222.882523 97.446787 L 223.976693 99.002755 C 224.109824 99.194131 224.396887 99.177489 224.509216 98.977793 L 224.837883 98.411986 C 224.891968 98.316298 225.008457 98.274695 225.112466 98.312138 Q 225.520179 98.45775 225.76564 98.312138 C 225.794762 98.291336 225.819724 98.270535 225.840526 98.241412 L 228.644596 94.326531 C 228.6862 94.268286 228.761086 94.255805 228.823491 94.289088 C 228.881736 94.32237 228.902537 94.397256 228.873415 94.459662 Q 226.784923 98.728172 227.067827 103.886996 C 227.071987 103.986844 227.101109 104.078372 227.146873 104.161579 L 228.041347 105.738348 C 228.057988 105.771631 228.053828 105.809074 228.024705 105.834036 C 227.995583 105.858998 227.95814 105.858998 227.929017 105.834036 C 226.581067 104.640018 225.603386 105.301512 223.985013 105.975488 C 223.94757 105.992129 223.914287 106.012931 223.881005 106.033733 L 219.778908 108.92101 Z" style="fill:#fff7d2;"/>
		<path d="M 265.646676 115.352898 Q 265.775647 115.490189 265.779807 115.506831 C 265.800609 115.565076 265.746524 115.62332 265.684119 115.606679 Q 265.634195 115.594198 265.563469 115.406983 C 265.542668 115.357059 265.609233 115.315455 265.646676 115.352898 Z" style="fill:#ff8481;"/>
		<path d="M 266.002386 116.061363 C 266.05439 116.031034 266.320652 116.397144 266.597398 116.875583 C 266.873977 117.354023 267.057032 117.770057 267.005028 117.797973 C 266.953024 117.828302 266.686762 117.462191 266.410016 116.983752 C 266.133436 116.505313 265.950381 116.089279 266.002386 116.061363 Z" style="fill:#ffabce;"/>
		<path fill-opacity="0.992" d="M 268.283543 121.519107 C 269.856942 121.065048 271.53772 122.117614 272.045573 123.871406 C 272.552844 125.624782 271.687493 127.413729 270.115674 127.866624 C 268.542274 128.320684 266.861496 127.268117 266.353643 125.514325 C 265.846373 123.760949 266.711724 121.972002 268.283543 121.519107 Z" style="fill:#fff7d2;"/>
	</g>
	<g id="surface4">
	</g>
</svg>
