<?xml version="1.0" encoding="utf-8"?>
<svg xmlns="http://www.w3.org/2000/svg" width="490pt" height="280pt" viewBox="0 0 490 280" version="1.1" xmlns:xlink="http://www.w3.org/1999/xlink">
	<g id="surface2" data-size="135.78245424386 148" data-bboxpos="177 51.301518895734" data-pivot="244.89122712193 125.30151889573" data-center="244.89122712193 125.30151889573">
		<path vector-effect="non-scaling-stroke" d="M 280.575329 118.956852 Q 280.432188 119.099993 280.551473 119.288197 C 280.575329 119.325308 280.609789 119.354466 280.652201 119.373022 Q 280.835104 119.444592 280.877516 119.274943" style="fill:none;stroke-width:0.50;stroke:#5e4a3b;"/>
		<path vector-effect="non-scaling-stroke" d="M 296.975578 190.622785 Q 295.263187 192.942199 292.527604 193.649952 Q 289.768163 194.360356 286.595204 193.64465 C 285.134636 193.313306 283.276453 192.586997 281.579967 192.589648 C 281.338748 192.589648 281.108132 192.690377 280.941134 192.867978 C 278.13398 195.863336 273.688656 196.308664 269.834452 195.712243 Q 266.202912 195.147631 263.276473 192.708932 C 263.027302 192.502173 262.725115 192.372286 262.404373 192.329874 L 258.51836 191.834182 C 258.375219 191.815626 258.237379 191.884546 258.165809 192.009132 Q 257.662165 192.897136 256.893444 193.9919 C 255.766872 195.59826 253.996164 196.597597 252.33944 197.708265 C 252.212203 197.793089 252.069062 197.854056 251.92062 197.893818 Q 251.236724 198.063466 250.73573 198.439874" style="fill:none;stroke-width:0.50;stroke:#5e4a3b;"/>
		<path vector-effect="non-scaling-stroke" d="M 240.376562 198.1801 Q 238.629712 197.048226 237.572059 195.762607 Q 235.872922 193.697666 234.555495 191.661882 C 234.420306 191.452472 234.194991 191.319934 233.94582 191.298728 L 231.576041 191.115826 C 231.39844 191.099921 231.226141 191.187396 231.133364 191.341141 Q 230.38585 192.576394 229.452783 193.785141 Q 228.941186 194.447831 227.297715 195.677783 C 226.242713 196.467709 225.208917 196.82026 223.605207 197.562473 C 223.50978 197.604885 223.40375 197.628742 223.297719 197.626091 Q 222.521047 197.618139 222.012101 197.930929" style="fill:none;stroke-width:0.50;stroke:#5e4a3b;"/>
		<path vector-effect="non-scaling-stroke" d="M 213.943189 197.416681 Q 213.715224 197.233779 213.381228 197.101241 Q 212.994217 196.947497 212.811315 196.836165 C 210.889514 195.691037 209.336169 194.381562 208.60721 192.306017 C 208.556846 192.168177 208.411054 192.086004 208.265262 192.120464 C 205.349427 192.785804 202.608542 192.931596 199.814641 191.691041 C 199.480646 191.542598 199.088333 191.587661 198.79675 191.810325 Q 196.201656 193.777188 192.912064 194.556512 Q 192.172502 194.731462 190.266606 194.789779 Q 187.536323 194.877254 185.275226 193.832854 C 184.267937 193.366321 182.961113 192.767249 182.452167 192.101908 Q 181.988284 191.494885 181.580067 191.168841" style="fill:none;stroke-width:0.50;stroke:#5e4a3b;"/>
		<path vector-effect="non-scaling-stroke" d="M 243.917977 113.591715 Q 252.434867 113.612921 260.045197 113.000596 Q 266.3381 112.496952 272.646908 111.582439 C 272.707875 111.574487 272.755589 111.521472 272.755589 111.457854 C 272.75824 111.394236 272.713177 111.34122 272.652209 111.330617 C 270.255923 110.906496 267.928556 110.731546 265.367922 110.458517 Q 262.70656 110.177537 260.413653 110.031745 Q 251.875557 109.483038 243.925929 109.464483 Q 235.978952 109.445927 227.438205 109.954873 Q 225.145299 110.090062 222.481285 110.357789 C 219.920652 110.620214 217.590634 110.78191 215.194348 111.195429 C 215.130729 111.206032 215.088317 111.261698 215.088317 111.322665 C 215.088317 111.386283 215.136031 111.439298 215.196998 111.447251 Q 221.503155 112.390921 227.793407 112.926375 Q 235.401087 113.57316 243.917977 113.591715" style="fill:none;stroke-width:0.50;stroke:#65341a;"/>
		<path vector-effect="non-scaling-stroke" d="M 277.418275 114.715637 Q 277.094882 114.720939 276.930535 114.752748 Q 271.599858 115.765338 267.337437 116.284887 Q 248.379205 118.593698 228.967694 117.154336 Q 219.329532 116.441282 209.959098 114.694431 C 209.786798 114.662622 209.627753 114.803112 209.641007 114.978062 Q 210.083683 121.695087 212.119467 128.184146 C 214.187059 134.779235 217.765584 140.645366 223.029992 145.029722 Q 223.289767 145.244434 224.055836 145.329258 Q 243.968341 147.497579 263.806625 145.445891 C 264.029289 145.424685 264.238699 145.323957 264.397744 145.164911 Q 266.202912 143.359744 267.835779 141.512164 Q 269.534916 139.587713 271.289719 136.544641 C 275.128019 129.891235 277.139945 122.471759 277.558765 114.86408 C 277.564067 114.781906 277.500448 114.712986 277.418275 114.715637" style="fill:none;stroke-width:0.50;stroke:#3a757d;"/>
		<path vector-effect="non-scaling-stroke" d="M 282.862935 125.30277 Q 282.542193 125.318675 282.576653 125.570497" style="fill:none;stroke-width:0.50;stroke:#5e4a3b;"/>
		<path stroke-opacity="0.988" vector-effect="non-scaling-stroke" d="M 277.675399 134.644047 C 282.14988 135.251071 288.201564 134.294146 291.093543 130.450545 C 292.069022 129.154324 292.593873 127.062875 292.039864 125.453864 C 291.186319 122.975404 288.795334 121.806419 286.33543 122.911785 Q 284.233377 123.858107 282.923902 125.316024" style="fill:none;stroke-width:0.50;stroke:#89766d;"/>
		<path vector-effect="non-scaling-stroke" d="M 275.732392 147.42866 Q 271.369242 148.404139 266.499797 149.146352 Q 262.330152 149.782534 257.15852 150.169545 Q 242.104857 151.296118 226.759611 149.710963 Q 222.380556 149.257684 218.446829 148.560534 Q 214.576721 147.871336 211.565458 147.084061 C 211.451475 147.054902 211.340143 147.137076 211.337493 147.253709 Q 211.334842 147.43131 211.409063 147.706989 C 212.837822 152.899827 214.878907 157.973381 217.797393 162.673177 C 219.766908 165.848787 222.059815 168.451833 224.546227 170.88523 Q 224.978301 171.306701 225.508453 171.391525 Q 229.561464 172.033009 232.593933 174.614848 C 232.808644 174.797751 233.100228 174.856068 233.367954 174.768592 Q 234.582002 174.373629 235.234089 174.193378 Q 240.167152 172.836189 244.845743 174.734133 C 245.015391 174.803052 245.206246 174.7951 245.367942 174.710276 C 247.207569 173.758653 249.139973 173.517434 251.173106 173.400801 C 251.308294 173.392848 251.438181 173.353087 251.554815 173.286818 C 253.874229 171.961438 256.233405 171.179464 259.117432 170.951499 Q 260.400399 170.85077 262.202916 170.808358 C 262.314248 170.805707 262.425579 170.773898 262.521007 170.71028 Q 263.061762 170.355078 263.536248 169.880592 C 266.216165 167.208627 268.821862 163.966748 270.706552 160.549919 Q 274.15519 154.294126 275.896739 147.598308 C 275.923247 147.497579 275.833121 147.404803 275.732392 147.42866" style="fill:none;stroke-width:0.50;stroke:#975b27;"/>
		<path vector-effect="non-scaling-stroke" d="M 276.56208 170.943547 L 278.096869 171.86336 C 278.123377 171.879265 278.149884 171.89782 278.173741 171.916375 Q 279.109459 172.677143 280.188318 174.164219 Q 280.797993 175.00451 281.375859 175.288141 C 282.788713 175.985291 284.429534 174.527373 283.976254 173.080059 C 283.520323 171.61949 281.611776 170.78185 280.153859 170.543282 Q 278.44677 170.264952 276.615095 170.633408 C 276.464001 170.665217 276.429542 170.864024 276.56208 170.943547" style="fill:none;stroke-width:0.50;stroke:#8a4a24;"/>
		<path vector-effect="non-scaling-stroke" d="M 208.421657 171.142354 Q 207.644985 170.71028 206.68541 170.601599 C 204.365995 170.341824 202.022724 170.564488 200.273223 172.170848 Q 199.70596 172.690397 199.769578 173.477673 C 199.77488 173.557195 199.849101 173.615512 199.928624 173.602258 L 205.21954 172.756666 C 205.25665 172.748714 205.293761 172.738111 205.328221 172.724857 L 208.405753 171.431286 C 208.530338 171.380922 208.538291 171.208623 208.421657 171.142354" style="fill:none;stroke-width:0.50;stroke:#8a4a24;"/>
		<path vector-effect="non-scaling-stroke" d="M 265.511063 174.076744 C 265.74433 175.513456 266.290387 176.319287 267.692638 177.016436 C 270.24532 178.28615 273.985541 178.235786 276.511715 177.101261 C 277.598526 176.616172 279.125364 175.505504 277.906015 174.182775 C 277.238023 173.456467 276.03988 172.934267 275.120066 172.663889 C 272.069042 171.773234 268.323519 171.736124 265.680712 173.665877 C 265.550825 173.761304 265.487207 173.917699 265.511063 174.076744" style="fill:none;stroke-width:0.50;stroke:#8a4a24;"/>
		<path vector-effect="non-scaling-stroke" d="M 204.472026 173.46972 Q 201.410398 173.944206 200.188398 173.85408 C 200.108876 173.848779 200.05321 173.933603 200.09032 174.005174 Q 200.36865 174.537976 201.397145 174.707625 Q 203.409071 175.041621 204.538295 173.586354 C 204.578056 173.533339 204.535644 173.459117 204.472026 173.46972" style="fill:none;stroke-width:0.50;stroke:#8a4a24;"/>
		<path vector-effect="non-scaling-stroke" d="M 229.081676 177.843473 Q 229.185056 176.918358 227.857025 175.985291 Q 225.418327 174.275551 222.436222 173.78251 C 219.53099 173.302722 216.188382 173.734796 214.202964 176.15494 Q 213.42364 177.103912 213.656907 178.752684" style="fill:none;stroke-width:0.50;stroke:#966643;"/>
		<path vector-effect="non-scaling-stroke" d="M 213.656907 178.752684 Q 213.161215 178.601591 213.153263 177.793109 C 213.134707 176.345794 213.924634 175.420679 214.85505 174.508818 C 214.921319 174.4452 214.905415 174.331217 214.82059 174.288805 C 212.824569 173.278866 210.722516 173.50418 208.519735 174.241091 C 206.696013 174.848115 204.143331 176.621473 204.55685 178.84281 C 204.62842 179.224519 204.959765 179.50815 205.349427 179.521404 Q 209.015427 179.638038 211.629076 181.819613 C 211.777519 181.944198 211.986929 181.962754 212.153926 181.864676 L 214.438881 180.547248 C 214.521055 180.496884 214.627085 180.496884 214.709259 180.547248 L 215.369298 180.926307 C 215.477979 180.989925 215.607866 181.005829 215.729801 180.97137 Q 217.373272 180.507487 218.020057 180.361695 Q 220.535628 179.789131 223.395797 180.192046 Q 224.169819 180.300727 226.311633 180.820276 C 226.399108 180.838832 226.489234 180.809673 226.54755 180.743404 L 229.081676 177.843473" style="fill:none;stroke-width:0.50;stroke:#8a4a24;"/>
		<path vector-effect="non-scaling-stroke" d="M 213.656907 178.752684 Q 214.462738 178.954142 215.65558 178.143009" style="fill:none;stroke-width:0.50;stroke:#f29456;"/>
		<path vector-effect="non-scaling-stroke" d="M 215.65558 178.143009 Q 216.135367 178.299404 216.7742 178.060836 C 216.835168 178.03963 216.896135 178.026376 216.957103 178.018424 Q 221.858357 177.429955 226.79142 177.734792 Q 227.440856 177.774554 227.321572 177.546588" style="fill:none;stroke-width:0.50;stroke:#8a4a24;"/>
		<path vector-effect="non-scaling-stroke" d="M 227.321572 177.546588 Q 227.607854 177.51743 227.902088 177.575747 Q 227.947151 177.583699 228.421637 177.811664 Q 228.729125 177.957456 229.081676 177.843473" style="fill:none;stroke-width:0.50;stroke:#f29456;"/>
		<path vector-effect="non-scaling-stroke" d="M 227.321572 177.546588 Q 226.375251 177.119816 225.389168 176.942215 C 222.210908 176.377603 218.542257 176.568458 215.65558 178.143009" style="fill:none;stroke-width:0.50;stroke:#966643;"/>
		<path vector-effect="non-scaling-stroke" d="M 259.196954 183.036311 C 259.655536 180.780515 261.778794 179.129092 263.782768 178.363022 C 263.941814 178.302055 264.045193 178.148311 264.042543 177.978662 C 264.03459 177.422003 263.809276 176.968723 263.398408 176.618823 C 260.379193 174.044935 256.196295 173.763955 252.726451 175.534662 C 250.841761 176.496888 249.670125 178.675812 251.289739 180.547248 C 253.14262 182.691712 256.116772 183.433925 258.913323 183.280181 C 259.051163 183.272229 259.167796 183.1715 259.196954 183.036311" style="fill:none;stroke-width:0.50;stroke:#8a4a24;"/>
		<path vector-effect="non-scaling-stroke" d="M 298.006723 179.248376 Q 298.033231 179.510801 297.81852 179.502849 C 296.453378 179.444532 294.804606 179.160901 293.407656 178.641352 Q 292.75822 178.402784 291.430189 178.140358 C 291.358619 178.127105 291.316207 178.21458 291.369222 178.262293 Q 291.599838 178.466402 293.24861 179.775877 Q 294.324819 180.632072 295.149205 180.722198 C 295.952385 180.809673 298.181674 180.441218 298.136611 179.240424" style="fill:none;stroke-width:0.50;stroke:#8a4a24;"/>
		<path vector-effect="non-scaling-stroke" d="M 298.136611 179.240424 C 298.383131 178.466402 297.169083 177.504176 296.543504 177.151625 C 294.95835 176.26097 291.849009 175.383569 290.179031 176.420016 C 289.96697 176.549903 289.900701 176.828233 290.027938 177.040293 Q 290.237348 177.390194 290.825816 177.689729 C 290.894736 177.724189 290.971608 177.745395 291.04848 177.753348 C 291.896723 177.846124 292.734363 177.962758 293.550797 178.188072 Q 295.766832 178.797747 298.006723 179.248376" style="fill:none;stroke-width:0.50;stroke:#966643;"/>
		<path vector-effect="non-scaling-stroke" d="M 298.136611 179.240424 Q 298.062389 179.26163 298.006723 179.248376" style="fill:none;stroke-width:0.50;stroke:#f29456;"/>
		<path vector-effect="non-scaling-stroke" d="M 245.415656 179.89251 C 245.503131 179.884558 245.548194 179.783829 245.495179 179.71491 Q 245.089613 179.163552 244.506446 178.765938 C 241.574706 176.754011 237.701946 176.955469 234.499829 178.225183 C 232.96769 178.834857 231.297711 180.009144 230.534292 181.528029 C 229.996188 182.596285 229.770874 183.592971 230.396453 184.669179 C 231.032635 185.763943 231.766896 186.400125 233.086974 186.720867 Q 236.477295 187.542602 239.788094 185.952147 C 242.059795 184.862684 244.159196 183.396814 245.389148 181.164875 C 245.402402 181.138367 245.413005 181.11186 245.418307 181.082701 L 245.529639 180.465075 C 245.542892 180.390853 245.458068 180.340489 245.399751 180.388202 Q 244.540905 181.117161 243.215526 181.758645 Q 241.044554 182.810997 239.289751 183.537305 Q 235.833161 184.971366 231.949798 185.220537 Q 231.631707 185.239092 230.950462 185.156919 C 230.788765 185.135713 230.751655 184.91835 230.900097 184.84678 Q 231.231442 184.690385 233.195655 184.234454 Q 234.409703 183.953474 235.438197 183.600923 Q 240.209564 181.968055 243.923278 180.287474 Q 244.646936 179.96143 245.415656 179.89251" style="fill:none;stroke-width:0.50;stroke:#8a4a24;"/>
		<path vector-effect="non-scaling-stroke" d="M 190.900137 178.010471 Q 190.982311 178.07674 191.128103 178.07674 C 192.244072 178.089994 193.399803 178.097946 194.478662 178.304706 Q 196.124784 178.620146 197.78681 178.959443 Q 198.335517 179.073426 198.961097 179.041617 C 199.072429 179.036315 199.114841 178.890523 199.022064 178.829556 Q 196.729157 177.281512 194.147318 177.321274 C 192.954476 177.339829 191.989599 177.382241 190.916042 177.877933 C 190.863027 177.90179 190.855074 177.973361 190.900137 178.010471" style="fill:none;stroke-width:0.50;stroke:#8a4a24;"/>
		<path vector-effect="non-scaling-stroke" d="M 289.325486 181.997213 C 289.537547 181.922992 289.614419 181.660567 289.471278 181.488268 C 287.252592 178.763287 283.15982 178.402784 280.114097 179.677799 Q 279.191633 180.062159 279.000778 180.921005 C 278.939811 181.188732 279.104158 181.456459 279.369234 181.528029 C 282.351338 182.325908 285.245967 182.302051 288.477243 182.121799 Q 289.05776 182.087339 289.325486 181.997213" style="fill:none;stroke-width:0.50;stroke:#8a4a24;"/>
		<path vector-effect="non-scaling-stroke" d="M 262.974287 183.436576 C 262.335454 184.650624 262.467992 186.14035 263.345393 187.60622 C 264.106161 188.875934 265.378525 190.050221 266.968981 190.948828 C 268.689324 191.921657 270.674743 192.512776 272.572687 192.616156 C 275.151876 192.759297 277.298991 191.993227 278.346041 190.553865" style="fill:none;stroke-width:0.50;stroke:#8a4a24;"/>
		<path vector-effect="non-scaling-stroke" d="M 278.346041 190.553865 C 279.289711 189.260294 279.239347 187.553205 278.208201 185.875275 C 277.450084 184.640021 276.201576 183.497543 274.648231 182.61484 C 272.238691 181.247049 269.354665 180.650628 266.945124 181.024385 C 265.055133 181.318619 263.631675 182.182767 262.974287 183.436576" style="fill:none;stroke-width:0.50;stroke:#966643;"/>
		<path vector-effect="non-scaling-stroke" d="M 278.346041 190.553865 L 276.758236 189.94154" style="fill:none;stroke-width:0.50;stroke:#f29456;"/>
		<path vector-effect="non-scaling-stroke" d="M 276.758236 189.94154 Q 276.453398 189.485609 275.949754 189.133058 Q 270.902708 185.607548 264.943801 184.231804" style="fill:none;stroke-width:0.50;stroke:#966643;"/>
		<path vector-effect="non-scaling-stroke" d="M 264.943801 184.231804 L 262.974287 183.436576" style="fill:none;stroke-width:0.50;stroke:#f29456;"/>
		<path vector-effect="non-scaling-stroke" d="M 264.943801 184.231804 Q 265.770838 184.979318 267.021996 185.535977 Q 269.484552 186.630741 274.314236 188.958108 Q 275.475268 189.517418 276.758236 189.94154" style="fill:none;stroke-width:0.50;stroke:#8a4a24;"/>
		<path vector-effect="non-scaling-stroke" d="M 195.782836 185.626103 C 193.728498 186.38422 191.409083 186.776533 188.228172 187.460429 C 187.003521 187.722854 185.903456 188.115166 184.527712 188.480971 Q 184.323603 188.533986 184.114193 188.655921 C 183.918037 188.769904 183.875625 189.037631 184.032019 189.201978 Q 185.381256 190.638689 187.438245 191.009796 C 191.067135 191.664533 195.244732 190.967383 197.874285 188.192038 Q 199.056524 186.94088 198.947843 185.50947" style="fill:none;stroke-width:0.50;stroke:#8a4a24;"/>
		<path vector-effect="non-scaling-stroke" d="M 198.947843 185.50947 Q 198.900129 183.62478 197.463418 182.638697 Q 196.615175 182.05553 195.76163 181.827565 Q 192.077074 180.849435 188.217569 182.455795 C 185.656935 183.518749 183.570787 185.215235 183.485963 188.051548 C 183.480662 188.23445 183.671516 188.359036 183.835863 188.276863 C 187.464753 186.463743 191.531018 185.400789 195.55222 185.448502 Q 195.650298 185.448502 195.705964 185.493565 Q 195.772233 185.54393 195.782836 185.626103" style="fill:none;stroke-width:0.50;stroke:#966643;"/>
		<path vector-effect="non-scaling-stroke" d="M 198.947843 185.50947 Q 197.654272 185.697674 196.032008 185.504168 Q 195.86501 185.482962 195.782836 185.626103" style="fill:none;stroke-width:0.50;stroke:#f29456;"/>
		<path vector-effect="non-scaling-stroke" d="M 209.280503 184.070107 C 208.697336 183.129088 207.226165 182.78714 206.3037 182.720871 Q 203.907414 182.545921 201.919344 183.306689 C 201.770902 183.365005 201.678125 183.513448 201.691379 183.672493 L 201.908741 186.124446 C 201.916693 186.235778 202.030676 186.304698 202.134056 186.264936 Q 204.824577 185.201982 208.196343 184.329882 Q 208.620464 184.221201 209.219536 184.189392 C 209.277852 184.186741 209.312312 184.120472 209.280503 184.070107" style="fill:none;stroke-width:0.50;stroke:#8a4a24;"/>
		<path vector-effect="non-scaling-stroke" d="M 210.923974 189.748034 C 210.661549 192.313969 213.683415 193.944186 215.79607 194.267579 Q 221.394474 195.126425 225.776179 191.929609 C 227.067099 190.985939 228.312956 189.440546 228.39778 187.767917 C 228.403082 187.659236 228.297052 187.582364 228.196323 187.622125 Q 223.96306 189.363674 219.49653 190.394819 C 218.009454 190.736767 216.403094 190.81629 214.984938 190.837496 Q 214.049219 190.853401 213.272547 190.442533" style="fill:none;stroke-width:0.50;stroke:#8a4a24;"/>
		<path vector-effect="non-scaling-stroke" d="M 213.272547 190.442533 Q 216.848421 189.869969 218.884205 189.371626 Q 223.324227 188.290116 228.092943 186.898468 C 228.145958 186.882563 228.167164 186.818945 228.135355 186.773882 C 226.958418 185.156919 224.646956 184.194693 222.754314 183.932268 C 219.371944 183.463083 215.825228 184.038298 213.124104 186.14035 C 212.071753 186.959435 210.802039 188.30337 210.923974 189.748034" style="fill:none;stroke-width:0.50;stroke:#966643;"/>
		<path vector-effect="non-scaling-stroke" d="M 213.272547 190.442533 Q 212.649618 190.543262 212.2361 190.336503 Q 211.599918 190.021062 210.923974 189.748034" style="fill:none;stroke-width:0.50;stroke:#f29456;"/>
		<path vector-effect="non-scaling-stroke" d="M 209.283154 184.409405 Q 205.307015 186.219873 201.919344 187.266923 C 201.818615 187.298732 201.72849 187.351748 201.651618 187.420667 Q 201.17183 187.868646 200.89085 188.637366 C 200.843136 188.769904 200.917357 188.915696 201.055197 188.952806 Q 201.442208 189.056186 201.927297 189.058837 C 204.737102 189.074741 207.586668 187.871296 209.166521 185.493565 Q 209.495215 185.000524 209.463406 184.518086 C 209.458104 184.42796 209.362677 184.372294 209.283154 184.409405" style="fill:none;stroke-width:0.50;stroke:#8a4a24;"/>
		<path vector-effect="non-scaling-stroke" d="M 283.234041 185.782498 C 281.898058 186.797739 282.807269 188.237101 283.732384 188.955457 Q 287.716475 192.043592 292.633634 190.707609 Q 293.391751 190.503501 294.123361 189.933587 Q 294.727734 189.464403 295.000762 188.438559" style="fill:none;stroke-width:0.50;stroke:#8a4a24;"/>
		<path vector-effect="non-scaling-stroke" d="M 295.000762 188.438559 Q 295.090888 186.331205 292.673395 185.318615 C 290.377838 184.35904 287.610445 184.332533 285.155842 184.878589 Q 283.981555 185.138363 283.234041 185.782498" style="fill:none;stroke-width:0.50;stroke:#966643;"/>
		<path vector-effect="non-scaling-stroke" d="M 295.000762 188.438559 Q 293.685986 188.518082 292.919916 188.271561" style="fill:none;stroke-width:0.50;stroke:#f29456;"/>
		<path vector-effect="non-scaling-stroke" d="M 292.919916 188.271561 Q 288.803287 186.540615 284.310249 185.989257 Q 283.737685 185.917687 283.355976 185.983956" style="fill:none;stroke-width:0.50;stroke:#966643;"/>
		<path vector-effect="non-scaling-stroke" d="M 283.355976 185.983956 L 283.234041 185.782498" style="fill:none;stroke-width:0.50;stroke:#f29456;"/>
		<path vector-effect="non-scaling-stroke" d="M 283.355976 185.983956 Q 283.363928 186.180112 283.602497 186.254333 Q 288.092883 187.672489 292.919916 188.271561" style="fill:none;stroke-width:0.50;stroke:#8a4a24;"/>
		<path vector-effect="non-scaling-stroke" d="M 239.67146 193.342464 C 240.445482 195.799718 243.713868 196.335171 245.929903 196.136364 C 249.389144 195.823575 253.495171 193.869965 254.475952 190.25698 Q 254.698616 189.432594 254.57403 188.822919 C 254.560776 188.753999 254.497158 188.711587 254.428238 188.72219 Q 253.312268 188.923648 252.196299 189.493561 Q 249.601205 190.824242 249.012737 191.155587 C 247.356012 192.086004 245.606511 192.698329 243.748328 193.239084 Q 242.841769 193.501509 241.980272 193.323909" style="fill:none;stroke-width:0.50;stroke:#8a4a24;"/>
		<path vector-effect="non-scaling-stroke" d="M 241.980272 193.323909 Q 245.023344 191.871292 247.947131 190.400121 C 249.630364 189.554529 250.961045 189.048234 252.919956 188.565795 Q 253.428902 188.438559 254.301002 188.480971 C 254.412334 188.486273 254.486555 188.37229 254.43619 188.274212 C 253.778802 186.988594 251.401071 186.309999 250.163166 186.227826 Q 245.405053 185.915036 241.853035 188.462416 C 240.400419 189.504164 238.984914 191.51344 239.67146 193.342464" style="fill:none;stroke-width:0.50;stroke:#966643;"/>
		<path vector-effect="non-scaling-stroke" d="M 241.980272 193.323909 L 239.67146 193.342464" style="fill:none;stroke-width:0.50;stroke:#f29456;"/>
		<path vector-effect="non-scaling-stroke" d="M 276.151212 174.288805 Q 275.984214 174.084697 275.872882 174.058189 C 272.779446 173.361039 269.238031 173.589005 266.369909 175.171508 C 266.285085 175.219222 266.26653 175.333204 266.332799 175.404775 Q 266.486543 175.574423 266.772825 175.49225 Q 270.189654 174.527373 274.104826 174.469057 Q 276.092895 174.439898 276.100847 174.437248 C 276.167116 174.421343 276.196275 174.34182 276.151212 174.288805" style="fill:none;stroke-width:0.50;stroke:#8a4a24;"/>
		<path vector-effect="non-scaling-stroke" d="M 262.695957 178.002519 C 262.754274 177.997217 262.764877 177.917695 262.709211 177.896489 Q 261.686018 177.512128 260.641618 177.422003 Q 256.071709 177.034992 252.053158 178.617495 C 251.976286 178.646654 251.931223 178.731478 251.952429 178.811001 C 251.970984 178.893174 252.047856 178.94884 252.13003 178.940888 L 262.695957 178.002519" style="fill:none;stroke-width:0.50;stroke:#8a4a24;"/>
		<path vector-effect="non-scaling-stroke" d="M 302.096845 184.698337 Q 302.327461 186.135049 303.464637 187.099925 C 305.177028 188.549891 307.692598 189.17547 309.892729 188.382893 C 310.009362 188.340481 310.03587 188.186737 309.940443 188.107214 C 309.640907 187.855392 309.288356 187.56911 308.869536 187.380906 Q 306.210824 186.17481 303.589223 184.719543" style="fill:none;stroke-width:0.50;stroke:#8a4a24;"/>
		<path vector-effect="non-scaling-stroke" d="M 303.589223 184.719543 Q 304.832429 184.902446 305.908637 185.414042 Q 307.289683 186.06878 308.81652 186.795088 C 309.365228 187.057513 309.68862 187.354398 310.165757 187.701648 C 310.271787 187.77852 310.42023 187.74406 310.481197 187.630077 C 310.878811 186.919674 310.1419 185.793101 309.601145 185.315964 C 308.127323 184.019743 305.243297 182.662554 303.234021 183.343799 Q 302.388429 183.630081 302.096845 184.698337" style="fill:none;stroke-width:0.50;stroke:#966643;"/>
		<path vector-effect="non-scaling-stroke" d="M 303.589223 184.719543 Q 303.263179 184.343136 302.096845 184.698337" style="fill:none;stroke-width:0.50;stroke:#f29456;"/>
		<path d="M 247.096238 51.301519 C 247.181062 51.293567 247.218172 51.404899 247.146602 51.449961 Q 244.559461 53.11994 242.947799 55.794556 C 242.690675 56.218678 242.32222 57.271029 242.234745 57.920465 Q 242.012081 59.532127 242.094254 60.751476 Q 242.187031 62.153728 242.764897 63.513568 Q 243.639647 65.570557 245.108168 67.052332 Q 247.52301 69.488379 248.034606 70.045039 Q 250.269197 72.459881 251.234073 75.656697 Q 251.684702 77.141122 251.74567 79.097382 Q 251.777479 80.083465 251.544212 80.976771 C 251.305644 81.896584 251.29239 82.638797 250.995505 83.449929 Q 249.858329 86.569873 248.580663 88.467817 Q 246.40704 91.699093 245.503131 93.18882 Q 244.392463 95.012542 244.063769 97.292195 Q 243.700615 99.818369 244.760918 102.12453 C 244.805981 102.219957 244.691999 102.312734 244.607174 102.249115 C 243.088289 101.122543 242.179079 99.160981 241.826528 97.199419 C 241.434215 95.017844 242.247998 92.266355 243.310953 90.347206 Q 245.312276 86.747474 245.728446 85.798502 Q 246.621752 83.754767 246.857669 81.56524 C 247.207569 78.28625 246.083647 75.59838 243.75363 72.971477 C 242.923942 72.03841 241.481929 71.057629 240.564766 70.106006 Q 237.609169 67.036427 237.36795 63.020526 Q 237.177096 59.871424 238.574046 57.265728 C 239.931235 54.734252 242.123413 53.021862 244.790077 51.919146 Q 246.065092 51.391645 247.096238 51.301519 Z" style="fill:#e67836;"/>
		<path d="M 249.402398 91.327987 C 249.322875 91.349193 249.26986 91.251115 249.328177 91.195449 Q 252.196299 88.433357 253.913991 84.706389 Q 255.053817 82.235882 255.23672 79.447283 Q 255.472637 75.802488 253.858325 72.645434 Q 253.089605 71.142453 251.249978 68.8628 C 250.656207 68.123238 249.913995 67.558627 249.394446 66.858826 C 249.328177 66.7687 249.423604 66.649416 249.524333 66.694479 Q 251.443483 67.542722 252.766212 68.242523 Q 257.420946 70.707729 259.138638 75.508254 Q 259.456729 76.396259 259.615774 78.031777 Q 259.727106 79.171604 259.42757 80.58976 C 258.661501 84.223951 256.540893 87.243166 253.42095 89.252442 C 251.968333 90.185509 250.849713 90.933023 249.402398 91.327987 Z" style="fill:#e67836;"/>
		<path d="M 237.75231 99.057601 C 237.866293 99.187488 237.720501 99.383645 237.564107 99.309423 Q 236.241378 98.691796 234.931902 97.753427 Q 230.916002 94.874703 230.335486 90.002607 C 230.088965 87.942967 230.958414 85.618251 232.09559 83.874051 C 232.893468 82.6494 234.619113 81.133166 235.350722 80.271669 Q 236.617785 78.781942 236.864306 78.063586 Q 237.081668 77.440658 237.386506 76.08877 C 237.410362 75.980089 237.545551 75.945629 237.617122 76.030454 C 238.37789 76.92641 238.144623 79.760072 237.860992 80.724949 Q 237.654232 81.422099 236.779482 82.978094 Q 236.124744 84.144428 235.981603 84.390949 Q 234.685382 86.630841 234.359338 88.340581 Q 234.136675 89.501613 234.29572 92.528781 C 234.308974 92.764698 234.359338 93.000616 234.444163 93.220629 C 234.719842 93.917779 234.833824 94.662642 235.186375 95.373045 Q 236.066427 97.143753 236.506454 97.634143 Q 236.941178 98.119232 237.75231 99.057601 Z" style="fill:#e67836;"/>
		<path d="M 280.575329 118.956852 Q 280.432188 119.099993 280.551473 119.288197 C 280.575329 119.325308 280.609789 119.354466 280.652201 119.373022 Q 280.835104 119.444592 280.877516 119.274943 C 281.630332 118.744792 282.3911 118.119212 283.151868 117.716297 Q 284.882813 116.804436 286.762202 116.438631 Q 289.227408 115.961494 291.697916 116.825642 Q 294.502419 117.809073 296.103478 119.998601 Q 297.526936 121.94956 297.95901 124.329942 Q 298.369878 126.609595 297.794663 129.0695 Q 296.824485 133.22589 293.664779 136.200042 Q 291.522966 138.21462 288.389768 139.550602 C 288.339404 139.571809 288.289039 139.587713 288.233373 139.598316 Q 287.703221 139.699045 287.186323 139.969422 C 287.085595 140.025088 286.974263 140.059548 286.857629 140.075453 C 285.961673 140.200038 284.964987 140.608255 283.963 140.703683 Q 280.43749 141.032377 279.125364 140.910442 Q 276.681364 140.682477 274.711849 140.655969 C 274.430869 140.653318 274.160491 140.754047 273.951081 140.9396 L 271.22345 143.378299 C 270.963676 143.611566 271.011389 144.030386 271.316227 144.200035 Q 271.318877 144.202685 271.647572 144.157622 Q 272.919936 143.987974 274.338092 143.632772 C 275.546839 143.330585 276.535572 143.235158 277.728414 142.901162 Q 279.045841 142.532707 279.766848 143.648677 C 279.811911 143.720247 279.838418 143.802421 279.84637 143.887245 Q 279.925893 144.865375 279.766848 145.700364 Q 278.680036 151.428656 276.657507 156.377623 Q 275.636964 158.874639 274.253268 161.517446 Q 272.464005 164.936926 270.632331 167.372974 Q 269.823849 168.44388 268.946448 169.888544 C 268.893432 169.973369 268.951749 170.087351 269.052478 170.095304 L 272.307611 170.347126 C 272.440149 170.357729 272.572687 170.317967 272.681368 170.238445 Q 274.46798 168.89716 276.56473 168.329898 Q 276.909329 168.237121 279.024635 168.215915 Q 280.445442 168.200011 281.455381 168.560514 C 283.525625 169.297425 285.704549 170.789803 286.155178 172.873299 Q 286.513031 174.543278 285.598518 175.993243 Q 285.320189 176.43592 285.245967 176.557855 C 285.153191 176.71425 285.25392 176.913057 285.436822 176.928961 L 287.191625 177.06415 C 287.483208 177.085356 287.740332 176.878597 287.780094 176.589664 C 287.97625 175.147651 290.025287 174.164219 291.337413 173.941556 C 294.139265 173.46707 297.444762 174.537976 299.297643 176.897152 Q 300.005396 177.798411 300.12468 178.731478 Q 300.265171 179.860701 299.803938 180.738103 Q 299.342706 181.612853 298.263847 182.259639 C 297.537539 182.691712 296.827136 182.747378 295.72442 182.980645 C 295.472597 183.03366 295.358615 183.325244 295.507057 183.534654 C 295.997448 184.21855 296.729057 184.878589 297.116068 185.647309 Q 298.088897 187.577062 297.309574 189.774542 Q 297.179687 190.145648 296.975578 190.622785 Q 295.263187 192.942199 292.527604 193.649952 Q 289.768163 194.360356 286.595204 193.64465 C 285.134636 193.313306 283.276453 192.586997 281.579967 192.589648 C 281.338748 192.589648 281.108132 192.690377 280.941134 192.867978 C 278.13398 195.863336 273.688656 196.308664 269.834452 195.712243 Q 266.202912 195.147631 263.276473 192.708932 C 263.027302 192.502173 262.725115 192.372286 262.404373 192.329874 L 258.51836 191.834182 C 258.375219 191.815626 258.237379 191.884546 258.165809 192.009132 Q 257.662165 192.897136 256.893444 193.9919 C 255.766872 195.59826 253.996164 196.597597 252.33944 197.708265 C 252.212203 197.793089 252.069062 197.854056 251.92062 197.893818 Q 251.236724 198.063466 250.73573 198.439874 L 249.116116 198.919662 C 249.110815 198.922313 249.105513 198.922313 249.097561 198.924963 Q 247.817244 199.150278 246.531626 199.256308 Q 243.281795 199.526686 240.376562 198.1801 Q 238.629712 197.048226 237.572059 195.762607 Q 235.872922 193.697666 234.555495 191.661882 C 234.420306 191.452472 234.194991 191.319934 233.94582 191.298728 L 231.576041 191.115826 C 231.39844 191.099921 231.226141 191.187396 231.133364 191.341141 Q 230.38585 192.576394 229.452783 193.785141 Q 228.941186 194.447831 227.297715 195.677783 C 226.242713 196.467709 225.208917 196.82026 223.605207 197.562473 C 223.50978 197.604885 223.40375 197.628742 223.297719 197.626091 Q 222.521047 197.618139 222.012101 197.930929 Q 217.861012 198.765918 213.943189 197.416681 Q 213.715224 197.233779 213.381228 197.101241 Q 212.994217 196.947497 212.811315 196.836165 C 210.889514 195.691037 209.336169 194.381562 208.60721 192.306017 C 208.556846 192.168177 208.411054 192.086004 208.265262 192.120464 C 205.349427 192.785804 202.608542 192.931596 199.814641 191.691041 C 199.480646 191.542598 199.088333 191.587661 198.79675 191.810325 Q 196.201656 193.777188 192.912064 194.556512 Q 192.172502 194.731462 190.266606 194.789779 Q 187.536323 194.877254 185.275226 193.832854 C 184.267937 193.366321 182.961113 192.767249 182.452167 192.101908 Q 181.988284 191.494885 181.580067 191.168841 L 181.121486 190.270234 C 181.071121 190.172156 180.986297 190.092633 180.882917 190.050221 Q 180.103594 189.726828 179.586696 189.472355 Q 178.293125 188.836173 177.688752 187.656585 Q 177.08968 186.482298 177.532357 185.09065 Q 178.051906 183.465734 179.849121 182.750029 Q 181.155945 182.23048 182.385898 182.238433 C 182.574102 182.241083 182.759655 182.198671 182.929304 182.113847 L 186.552892 180.319283 C 186.701334 180.245061 186.79146 180.091317 186.780857 179.929621 C 186.677477 177.941552 188.132744 176.475682 189.892849 175.778532 Q 190.812662 175.412727 191.894172 175.216571 Q 192.503847 175.10789 194.038636 175.131747 Q 195.006164 175.145 196.122133 175.524059 Q 197.389196 175.950831 198.346121 176.480983 C 198.566134 176.602918 198.802051 176.348445 198.664212 176.139035 Q 198.16852 175.383569 197.882238 174.495564 Q 197.617162 173.681781 197.945856 172.751365 Q 198.330216 171.656601 198.998207 170.962102 C 200.013448 169.904449 201.413049 168.981985 202.873618 168.669195 Q 202.913379 168.661243 204.196347 168.308692 C 204.281171 168.284835 204.368646 168.271581 204.458772 168.26628 C 206.287796 168.176154 208.148629 168.080726 209.890178 168.526054 C 211.242065 168.875954 212.641666 169.321282 214.001506 169.329234 Q 215.210252 169.337186 216.437554 169.366345 C 216.472014 169.366345 216.503823 169.371646 216.532981 169.382249 L 216.954452 169.514787 C 217.041927 169.541295 217.134703 169.517438 217.198322 169.451169 Q 217.511111 169.119824 217.190369 168.701004 Q 215.83053 166.930297 214.677449 164.923672 Q 212.037293 160.340509 210.396473 156.006517 Q 208.925301 152.120504 207.904759 147.097315 C 207.764269 146.400165 207.782824 145.920377 207.613176 145.33721 Q 207.438225 144.735488 207.5257 143.489631 C 207.531002 143.410108 207.552208 143.333236 207.589319 143.261666 Q 208.177787 142.09003 209.389184 142.376312 Q 214.881558 143.672533 215.379901 143.805071 Q 215.764261 143.908451 216.387189 143.876642 C 216.567441 143.86869 216.662868 143.656629 216.548886 143.516139 Q 212.241402 138.24908 209.890178 131.871352 Q 207.854395 126.352471 206.809995 119.449894 Q 206.68806 118.649364 206.680108 118.034388 C 206.672156 117.384952 206.481301 116.833594 206.462746 116.152349 Q 206.436238 115.131806 206.322256 112.343207 Q 206.282494 111.362426 207.173149 110.649372 C 207.207609 110.620214 207.250021 110.601659 207.292434 110.588405 L 209.58269 109.986682 C 209.606547 109.97873 209.630403 109.976079 209.65426 109.976079 C 210.83915 109.949572 212.069102 109.45388 213.230135 109.379658 Q 213.863666 109.339897 215.493883 108.968791 C 215.602565 108.944934 215.713896 108.929029 215.825228 108.923728 C 217.354717 108.849507 218.804682 108.422734 220.286456 108.319355 Q 221.532313 108.23453 223.202292 107.980057 C 224.548878 107.775949 225.754973 107.895233 226.934561 107.714981 Q 228.018722 107.547984 229.187707 107.532079 C 230.110171 107.518825 231.175776 107.274955 232.198969 107.293511 C 234.555495 107.335923 237.572059 107.04699 240.172454 107.039038 Q 243.395777 107.028435 248.437522 107.04699 Q 249.768203 107.052292 250.976949 107.176877 C 252.524993 107.335923 254.139305 107.240496 255.716507 107.370383 Q 257.792052 107.540031 257.911336 107.545333 C 259.422269 107.587745 260.50643 107.826313 261.94049 107.81306 Q 262.335454 107.810409 263.549501 107.948248 Q 269.728422 108.656001 271.440812 108.929029 Q 272.882825 109.159645 274.298331 109.379658 Q 277.60913 109.896556 279.833117 110.511533 Q 281.10283 110.861433 281.049815 112.319351 C 280.96234 114.702383 281.028609 115.627498 280.795342 117.265668 Q 280.676058 118.11126 280.575329 118.956852 Z M 243.917977 113.591715 Q 252.434867 113.612921 260.045197 113.000596 Q 266.3381 112.496952 272.646908 111.582439 C 272.707875 111.574487 272.755589 111.521472 272.755589 111.457854 C 272.75824 111.394236 272.713177 111.34122 272.652209 111.330617 C 270.255923 110.906496 267.928556 110.731546 265.367922 110.458517 Q 262.70656 110.177537 260.413653 110.031745 Q 251.875557 109.483038 243.925929 109.464483 Q 235.978952 109.445927 227.438205 109.954873 Q 225.145299 110.090062 222.481285 110.357789 C 219.920652 110.620214 217.590634 110.78191 215.194348 111.195429 C 215.130729 111.206032 215.088317 111.261698 215.088317 111.322665 C 215.088317 111.386283 215.136031 111.439298 215.196998 111.447251 Q 221.503155 112.390921 227.793407 112.926375 Q 235.401087 113.57316 243.917977 113.591715 Z M 277.418275 114.715637 Q 277.094882 114.720939 276.930535 114.752748 Q 271.599858 115.765338 267.337437 116.284887 Q 248.379205 118.593698 228.967694 117.154336 Q 219.329532 116.441282 209.959098 114.694431 C 209.786798 114.662622 209.627753 114.803112 209.641007 114.978062 Q 210.083683 121.695087 212.119467 128.184146 C 214.187059 134.779235 217.765584 140.645366 223.029992 145.029722 Q 223.289767 145.244434 224.055836 145.329258 Q 243.968341 147.497579 263.806625 145.445891 C 264.029289 145.424685 264.238699 145.323957 264.397744 145.164911 Q 266.202912 143.359744 267.835779 141.512164 Q 269.534916 139.587713 271.289719 136.544641 C 275.128019 129.891235 277.139945 122.471759 277.558765 114.86408 C 277.564067 114.781906 277.500448 114.712986 277.418275 114.715637 Z M 282.923902 125.316024 Q 282.939807 125.305421 282.862935 125.30277 Q 282.542193 125.318675 282.576653 125.570497 C 280.57798 127.208666 278.857637 129.17553 277.651542 131.473738 Q 276.959693 132.785864 276.302305 134.105943 C 276.201576 134.3074 276.336765 134.543318 276.56208 134.561873 L 277.675399 134.644047 C 282.14988 135.251071 288.201564 134.294146 291.093543 130.450545 C 292.069022 129.154324 292.593873 127.062875 292.039864 125.453864 C 291.186319 122.975404 288.795334 121.806419 286.33543 122.911785 Q 284.233377 123.858107 282.923902 125.316024 Z M 275.732392 147.42866 Q 271.369242 148.404139 266.499797 149.146352 Q 262.330152 149.782534 257.15852 150.169545 Q 242.104857 151.296118 226.759611 149.710963 Q 222.380556 149.257684 218.446829 148.560534 Q 214.576721 147.871336 211.565458 147.084061 C 211.451475 147.054902 211.340143 147.137076 211.337493 147.253709 Q 211.334842 147.43131 211.409063 147.706989 C 212.837822 152.899827 214.878907 157.973381 217.797393 162.673177 C 219.766908 165.848787 222.059815 168.451833 224.546227 170.88523 Q 224.978301 171.306701 225.508453 171.391525 Q 229.561464 172.033009 232.593933 174.614848 C 232.808644 174.797751 233.100228 174.856068 233.367954 174.768592 Q 234.582002 174.373629 235.234089 174.193378 Q 240.167152 172.836189 244.845743 174.734133 C 245.015391 174.803052 245.206246 174.7951 245.367942 174.710276 C 247.207569 173.758653 249.139973 173.517434 251.173106 173.400801 C 251.308294 173.392848 251.438181 173.353087 251.554815 173.286818 C 253.874229 171.961438 256.233405 171.179464 259.117432 170.951499 Q 260.400399 170.85077 262.202916 170.808358 C 262.314248 170.805707 262.425579 170.773898 262.521007 170.71028 Q 263.061762 170.355078 263.536248 169.880592 C 266.216165 167.208627 268.821862 163.966748 270.706552 160.549919 Q 274.15519 154.294126 275.896739 147.598308 C 275.923247 147.497579 275.833121 147.404803 275.732392 147.42866 Z M 276.56208 170.943547 L 278.096869 171.86336 C 278.123377 171.879265 278.149884 171.89782 278.173741 171.916375 Q 279.109459 172.677143 280.188318 174.164219 Q 280.797993 175.00451 281.375859 175.288141 C 282.788713 175.985291 284.429534 174.527373 283.976254 173.080059 C 283.520323 171.61949 281.611776 170.78185 280.153859 170.543282 Q 278.44677 170.264952 276.615095 170.633408 C 276.464001 170.665217 276.429542 170.864024 276.56208 170.943547 Z M 208.421657 171.142354 Q 207.644985 170.71028 206.68541 170.601599 C 204.365995 170.341824 202.022724 170.564488 200.273223 172.170848 Q 199.70596 172.690397 199.769578 173.477673 C 199.77488 173.557195 199.849101 173.615512 199.928624 173.602258 L 205.21954 172.756666 C 205.25665 172.748714 205.293761 172.738111 205.328221 172.724857 L 208.405753 171.431286 C 208.530338 171.380922 208.538291 171.208623 208.421657 171.142354 Z M 265.511063 174.076744 C 265.74433 175.513456 266.290387 176.319287 267.692638 177.016436 C 270.24532 178.28615 273.985541 178.235786 276.511715 177.101261 C 277.598526 176.616172 279.125364 175.505504 277.906015 174.182775 C 277.238023 173.456467 276.03988 172.934267 275.120066 172.663889 C 272.069042 171.773234 268.323519 171.736124 265.680712 173.665877 C 265.550825 173.761304 265.487207 173.917699 265.511063 174.076744 Z M 204.472026 173.46972 Q 201.410398 173.944206 200.188398 173.85408 C 200.108876 173.848779 200.05321 173.933603 200.09032 174.005174 Q 200.36865 174.537976 201.397145 174.707625 Q 203.409071 175.041621 204.538295 173.586354 C 204.578056 173.533339 204.535644 173.459117 204.472026 173.46972 Z M 229.081676 177.843473 Q 229.185056 176.918358 227.857025 175.985291 Q 225.418327 174.275551 222.436222 173.78251 C 219.53099 173.302722 216.188382 173.734796 214.202964 176.15494 Q 213.42364 177.103912 213.656907 178.752684 Q 213.161215 178.601591 213.153263 177.793109 C 213.134707 176.345794 213.924634 175.420679 214.85505 174.508818 C 214.921319 174.4452 214.905415 174.331217 214.82059 174.288805 C 212.824569 173.278866 210.722516 173.50418 208.519735 174.241091 C 206.696013 174.848115 204.143331 176.621473 204.55685 178.84281 C 204.62842 179.224519 204.959765 179.50815 205.349427 179.521404 Q 209.015427 179.638038 211.629076 181.819613 C 211.777519 181.944198 211.986929 181.962754 212.153926 181.864676 L 214.438881 180.547248 C 214.521055 180.496884 214.627085 180.496884 214.709259 180.547248 L 215.369298 180.926307 C 215.477979 180.989925 215.607866 181.005829 215.729801 180.97137 Q 217.373272 180.507487 218.020057 180.361695 Q 220.535628 179.789131 223.395797 180.192046 Q 224.169819 180.300727 226.311633 180.820276 C 226.399108 180.838832 226.489234 180.809673 226.54755 180.743404 L 229.081676 177.843473 Z M 259.196954 183.036311 C 259.655536 180.780515 261.778794 179.129092 263.782768 178.363022 C 263.941814 178.302055 264.045193 178.148311 264.042543 177.978662 C 264.03459 177.422003 263.809276 176.968723 263.398408 176.618823 C 260.379193 174.044935 256.196295 173.763955 252.726451 175.534662 C 250.841761 176.496888 249.670125 178.675812 251.289739 180.547248 C 253.14262 182.691712 256.116772 183.433925 258.913323 183.280181 C 259.051163 183.272229 259.167796 183.1715 259.196954 183.036311 Z M 298.006723 179.248376 Q 298.033231 179.510801 297.81852 179.502849 C 296.453378 179.444532 294.804606 179.160901 293.407656 178.641352 Q 292.75822 178.402784 291.430189 178.140358 C 291.358619 178.127105 291.316207 178.21458 291.369222 178.262293 Q 291.599838 178.466402 293.24861 179.775877 Q 294.324819 180.632072 295.149205 180.722198 C 295.952385 180.809673 298.181674 180.441218 298.136611 179.240424 C 298.383131 178.466402 297.169083 177.504176 296.543504 177.151625 C 294.95835 176.26097 291.849009 175.383569 290.179031 176.420016 C 289.96697 176.549903 289.900701 176.828233 290.027938 177.040293 Q 290.237348 177.390194 290.825816 177.689729 C 290.894736 177.724189 290.971608 177.745395 291.04848 177.753348 C 291.896723 177.846124 292.734363 177.962758 293.550797 178.188072 Q 295.766832 178.797747 298.006723 179.248376 Z M 245.415656 179.89251 C 245.503131 179.884558 245.548194 179.783829 245.495179 179.71491 Q 245.089613 179.163552 244.506446 178.765938 C 241.574706 176.754011 237.701946 176.955469 234.499829 178.225183 C 232.96769 178.834857 231.297711 180.009144 230.534292 181.528029 C 229.996188 182.596285 229.770874 183.592971 230.396453 184.669179 C 231.032635 185.763943 231.766896 186.400125 233.086974 186.720867 Q 236.477295 187.542602 239.788094 185.952147 C 242.059795 184.862684 244.159196 183.396814 245.389148 181.164875 C 245.402402 181.138367 245.413005 181.11186 245.418307 181.082701 L 245.529639 180.465075 C 245.542892 180.390853 245.458068 180.340489 245.399751 180.388202 Q 244.540905 181.117161 243.215526 181.758645 Q 241.044554 182.810997 239.289751 183.537305 Q 235.833161 184.971366 231.949798 185.220537 Q 231.631707 185.239092 230.950462 185.156919 C 230.788765 185.135713 230.751655 184.91835 230.900097 184.84678 Q 231.231442 184.690385 233.195655 184.234454 Q 234.409703 183.953474 235.438197 183.600923 Q 240.209564 181.968055 243.923278 180.287474 Q 244.646936 179.96143 245.415656 179.89251 Z M 190.900137 178.010471 Q 190.982311 178.07674 191.128103 178.07674 C 192.244072 178.089994 193.399803 178.097946 194.478662 178.304706 Q 196.124784 178.620146 197.78681 178.959443 Q 198.335517 179.073426 198.961097 179.041617 C 199.072429 179.036315 199.114841 178.890523 199.022064 178.829556 Q 196.729157 177.281512 194.147318 177.321274 C 192.954476 177.339829 191.989599 177.382241 190.916042 177.877933 C 190.863027 177.90179 190.855074 177.973361 190.900137 178.010471 Z M 289.325486 181.997213 C 289.537547 181.922992 289.614419 181.660567 289.471278 181.488268 C 287.252592 178.763287 283.15982 178.402784 280.114097 179.677799 Q 279.191633 180.062159 279.000778 180.921005 C 278.939811 181.188732 279.104158 181.456459 279.369234 181.528029 C 282.351338 182.325908 285.245967 182.302051 288.477243 182.121799 Q 289.05776 182.087339 289.325486 181.997213 Z M 262.974287 183.436576 C 262.335454 184.650624 262.467992 186.14035 263.345393 187.60622 C 264.106161 188.875934 265.378525 190.050221 266.968981 190.948828 C 268.689324 191.921657 270.674743 192.512776 272.572687 192.616156 C 275.151876 192.759297 277.298991 191.993227 278.346041 190.553865 C 279.289711 189.260294 279.239347 187.553205 278.208201 185.875275 C 277.450084 184.640021 276.201576 183.497543 274.648231 182.61484 C 272.238691 181.247049 269.354665 180.650628 266.945124 181.024385 C 265.055133 181.318619 263.631675 182.182767 262.974287 183.436576 Z M 195.782836 185.626103 C 193.728498 186.38422 191.409083 186.776533 188.228172 187.460429 C 187.003521 187.722854 185.903456 188.115166 184.527712 188.480971 Q 184.323603 188.533986 184.114193 188.655921 C 183.918037 188.769904 183.875625 189.037631 184.032019 189.201978 Q 185.381256 190.638689 187.438245 191.009796 C 191.067135 191.664533 195.244732 190.967383 197.874285 188.192038 Q 199.056524 186.94088 198.947843 185.50947 Q 198.900129 183.62478 197.463418 182.638697 Q 196.615175 182.05553 195.76163 181.827565 Q 192.077074 180.849435 188.217569 182.455795 C 185.656935 183.518749 183.570787 185.215235 183.485963 188.051548 C 183.480662 188.23445 183.671516 188.359036 183.835863 188.276863 C 187.464753 186.463743 191.531018 185.400789 195.55222 185.448502 Q 195.650298 185.448502 195.705964 185.493565 Q 195.772233 185.54393 195.782836 185.626103 Z M 209.280503 184.070107 C 208.697336 183.129088 207.226165 182.78714 206.3037 182.720871 Q 203.907414 182.545921 201.919344 183.306689 C 201.770902 183.365005 201.678125 183.513448 201.691379 183.672493 L 201.908741 186.124446 C 201.916693 186.235778 202.030676 186.304698 202.134056 186.264936 Q 204.824577 185.201982 208.196343 184.329882 Q 208.620464 184.221201 209.219536 184.189392 C 209.277852 184.186741 209.312312 184.120472 209.280503 184.070107 Z M 210.923974 189.748034 C 210.661549 192.313969 213.683415 193.944186 215.79607 194.267579 Q 221.394474 195.126425 225.776179 191.929609 C 227.067099 190.985939 228.312956 189.440546 228.39778 187.767917 C 228.403082 187.659236 228.297052 187.582364 228.196323 187.622125 Q 223.96306 189.363674 219.49653 190.394819 C 218.009454 190.736767 216.403094 190.81629 214.984938 190.837496 Q 214.049219 190.853401 213.272547 190.442533 Q 216.848421 189.869969 218.884205 189.371626 Q 223.324227 188.290116 228.092943 186.898468 C 228.145958 186.882563 228.167164 186.818945 228.135355 186.773882 C 226.958418 185.156919 224.646956 184.194693 222.754314 183.932268 C 219.371944 183.463083 215.825228 184.038298 213.124104 186.14035 C 212.071753 186.959435 210.802039 188.30337 210.923974 189.748034 Z M 209.283154 184.409405 Q 205.307015 186.219873 201.919344 187.266923 C 201.818615 187.298732 201.72849 187.351748 201.651618 187.420667 Q 201.17183 187.868646 200.89085 188.637366 C 200.843136 188.769904 200.917357 188.915696 201.055197 188.952806 Q 201.442208 189.056186 201.927297 189.058837 C 204.737102 189.074741 207.586668 187.871296 209.166521 185.493565 Q 209.495215 185.000524 209.463406 184.518086 C 209.458104 184.42796 209.362677 184.372294 209.283154 184.409405 Z M 283.234041 185.782498 C 281.898058 186.797739 282.807269 188.237101 283.732384 188.955457 Q 287.716475 192.043592 292.633634 190.707609 Q 293.391751 190.503501 294.123361 189.933587 Q 294.727734 189.464403 295.000762 188.438559 Q 295.090888 186.331205 292.673395 185.318615 C 290.377838 184.35904 287.610445 184.332533 285.155842 184.878589 Q 283.981555 185.138363 283.234041 185.782498 Z M 239.67146 193.342464 C 240.445482 195.799718 243.713868 196.335171 245.929903 196.136364 C 249.389144 195.823575 253.495171 193.869965 254.475952 190.25698 Q 254.698616 189.432594 254.57403 188.822919 C 254.560776 188.753999 254.497158 188.711587 254.428238 188.72219 Q 253.312268 188.923648 252.196299 189.493561 Q 249.601205 190.824242 249.012737 191.155587 C 247.356012 192.086004 245.606511 192.698329 243.748328 193.239084 Q 242.841769 193.501509 241.980272 193.323909 Q 245.023344 191.871292 247.947131 190.400121 C 249.630364 189.554529 250.961045 189.048234 252.919956 188.565795 Q 253.428902 188.438559 254.301002 188.480971 C 254.412334 188.486273 254.486555 188.37229 254.43619 188.274212 C 253.778802 186.988594 251.401071 186.309999 250.163166 186.227826 Q 245.405053 185.915036 241.853035 188.462416 C 240.400419 189.504164 238.984914 191.51344 239.67146 193.342464 Z" style="fill:#2e1c11;"/>
		<path d="M 280.575329 118.956852 Q 280.575329 119.166262 280.877516 119.274943 Q 280.835104 119.444592 280.652201 119.373022 C 280.609789 119.354466 280.575329 119.325308 280.551473 119.288197 Q 280.432188 119.099993 280.575329 118.956852 Z" style="fill:#8d7864;"/>
		<path d="M 309.731033 191.142334 Q 308.122022 191.41006 307.06967 191.274872 Q 305.452707 191.065462 303.761522 190.357709 Q 301.389093 189.366325 300.111426 186.636043 C 300.061062 186.530012 300.029253 186.413379 300.021301 186.294095 Q 299.888763 184.502181 300.071665 183.961426 C 300.803275 181.790454 303.740316 180.891847 305.773449 181.164875 Q 309.16377 181.620806 311.345345 184.017092 Q 312.323475 185.093301 312.638916 186.286142 Q 312.941102 187.439223 312.607107 188.875934 Q 312.453362 189.538624 311.464629 190.381566 Q 310.775432 190.967383 309.731033 191.142334 Z M 302.096845 184.698337 Q 302.327461 186.135049 303.464637 187.099925 C 305.177028 188.549891 307.692598 189.17547 309.892729 188.382893 C 310.009362 188.340481 310.03587 188.186737 309.940443 188.107214 C 309.640907 187.855392 309.288356 187.56911 308.869536 187.380906 Q 306.210824 186.17481 303.589223 184.719543 Q 304.832429 184.902446 305.908637 185.414042 Q 307.289683 186.06878 308.81652 186.795088 C 309.365228 187.057513 309.68862 187.354398 310.165757 187.701648 C 310.271787 187.77852 310.42023 187.74406 310.481197 187.630077 C 310.878811 186.919674 310.1419 185.793101 309.601145 185.315964 C 308.127323 184.019743 305.243297 182.662554 303.234021 183.343799 Q 302.388429 183.630081 302.096845 184.698337 Z" style="fill:#2e1c11;"/>
		<path d="M 296.975578 190.622785 Q 297.887439 190.765926 298.775444 190.890511 C 299.994793 191.06016 301.336077 191.0257 302.550125 191.349093 Q 303.332099 191.558503 303.981535 191.550551 C 304.567353 191.542598 305.208837 191.905752 305.879479 191.969371 Q 307.223414 192.096607 308.275766 192.568442 C 308.421557 192.634711 308.440113 192.833518 308.310225 192.926295 Q 308.066356 193.095943 307.960325 193.106546 C 306.984846 193.201974 306.051778 193.549223 305.147869 193.724173 Q 301.232698 194.490243 301.118715 194.522052 Q 300.389756 194.728811 299.114741 194.840143 C 298.369878 194.903761 297.214146 195.211249 296.437474 195.261614 C 295.09884 195.346438 293.208849 195.677783 291.671408 195.828876 Q 283.210184 196.661215 280.517013 196.830863 Q 274.990179 197.178113 274.237363 197.249683 Q 272.122057 197.44584 271.416955 197.429935 C 270.152543 197.398126 268.975606 197.639345 267.652877 197.641996 Q 265.426239 197.644646 263.904703 197.758629 C 260.477271 198.015753 257.389136 197.90177 254.004117 198.07672 Q 253.937848 198.079371 252.707895 198.050213 Q 251.719162 198.026356 250.73573 198.439874 Q 251.236724 198.063466 251.92062 197.893818 C 252.069062 197.854056 252.212203 197.793089 252.33944 197.708265 C 253.996164 196.597597 255.766872 195.59826 256.893444 193.9919 Q 257.662165 192.897136 258.165809 192.009132 C 258.237379 191.884546 258.375219 191.815626 258.51836 191.834182 L 262.404373 192.329874 C 262.725115 192.372286 263.027302 192.502173 263.276473 192.708932 Q 266.202912 195.147631 269.834452 195.712243 C 273.688656 196.308664 278.13398 195.863336 280.941134 192.867978 C 281.108132 192.690377 281.338748 192.589648 281.579967 192.589648 C 283.276453 192.586997 285.134636 193.313306 286.595204 193.64465 Q 289.768163 194.360356 292.527604 193.649952 Q 295.263187 192.942199 296.975578 190.622785 Z" style="fill:#8d7864;"/>
		<path d="M 213.943189 197.416681 Q 211.218208 197.345111 208.522386 197.106542 Q 206.126099 196.894482 205.275206 196.865323 C 203.032663 196.791102 200.68409 196.465059 198.473357 196.311314 C 196.885552 196.199983 195.146654 195.919002 193.731148 195.820924 Q 188.546263 195.463071 183.631755 194.381562 C 182.759655 194.188056 181.686097 194.140343 180.71857 193.771887 C 180.668206 193.753332 180.617841 193.740078 180.562175 193.732126 L 179.91539 193.649952 C 179.772249 193.631397 179.629108 193.599588 179.491269 193.549223 Q 178.531694 193.209926 177.232822 192.886533 Q 177.057871 192.84147 177.036665 192.796407 C 176.922683 192.552538 177.084379 192.268906 177.352106 192.242399 Q 178.311681 192.152273 179.064496 191.86334 Q 179.432952 191.720199 180.315655 191.595613 Q 181.023408 191.492234 181.580067 191.168841 Q 181.988284 191.494885 182.452167 192.101908 C 182.961113 192.767249 184.267937 193.366321 185.275226 193.832854 Q 187.536323 194.877254 190.266606 194.789779 Q 192.172502 194.731462 192.912064 194.556512 Q 196.201656 193.777188 198.79675 191.810325 C 199.088333 191.587661 199.480646 191.542598 199.814641 191.691041 C 202.608542 192.931596 205.349427 192.785804 208.265262 192.120464 C 208.411054 192.086004 208.556846 192.168177 208.60721 192.306017 C 209.336169 194.381562 210.889514 195.691037 212.811315 196.836165 Q 212.994217 196.947497 213.381228 197.101241 Q 213.715224 197.233779 213.943189 197.416681 Z" style="fill:#8d7864;"/>
		<path d="M 240.376562 198.1801 L 222.012101 197.930929 Q 222.521047 197.618139 223.297719 197.626091 C 223.40375 197.628742 223.50978 197.604885 223.605207 197.562473 C 225.208917 196.82026 226.242713 196.467709 227.297715 195.677783 Q 228.941186 194.447831 229.452783 193.785141 Q 230.38585 192.576394 231.133364 191.341141 C 231.226141 191.187396 231.39844 191.099921 231.576041 191.115826 L 233.94582 191.298728 C 234.194991 191.319934 234.420306 191.452472 234.555495 191.661882 Q 235.872922 193.697666 237.572059 195.762607 Q 238.629712 197.048226 240.376562 198.1801 Z" style="fill:#8d7864;"/>
		<path d="M 243.925929 109.464483 Q 251.875557 109.483038 260.413653 110.031745 Q 262.70656 110.177537 265.367922 110.458517 C 267.928556 110.731546 270.255923 110.906496 272.652209 111.330617 C 272.713177 111.34122 272.75824 111.394236 272.755589 111.457854 C 272.755589 111.521472 272.707875 111.574487 272.646908 111.582439 Q 266.3381 112.496952 260.045197 113.000596 Q 252.434867 113.612921 243.917977 113.591715 Q 235.401087 113.57316 227.793407 112.926375 Q 221.503155 112.390921 215.196998 111.447251 C 215.136031 111.439298 215.088317 111.386283 215.088317 111.322665 C 215.088317 111.261698 215.130729 111.206032 215.194348 111.195429 C 217.590634 110.78191 219.920652 110.620214 222.481285 110.357789 Q 225.145299 110.090062 227.438205 109.954873 Q 235.978952 109.445927 243.925929 109.464483 Z" style="fill:#9c4b22;"/>
		<path d="M 277.418275 114.715637 C 277.500448 114.712986 277.564067 114.781906 277.558765 114.86408 C 277.139945 122.471759 275.128019 129.891235 271.289719 136.544641 Q 269.534916 139.587713 267.835779 141.512164 Q 266.202912 143.359744 264.397744 145.164911 C 264.238699 145.323957 264.029289 145.424685 263.806625 145.445891 Q 243.968341 147.497579 224.055836 145.329258 Q 223.289767 145.244434 223.029992 145.029722 C 217.765584 140.645366 214.187059 134.779235 212.119467 128.184146 Q 210.083683 121.695087 209.641007 114.978062 C 209.627753 114.803112 209.786798 114.662622 209.959098 114.694431 Q 219.329532 116.441282 228.967694 117.154336 Q 248.379205 118.593698 267.337437 116.284887 Q 271.599858 115.765338 276.930535 114.752748 Q 277.094882 114.720939 277.418275 114.715637 Z" style="fill:#46cde9;"/>
		<path fill-opacity="0.976" d="M 277.675399 134.644047 Q 279.271156 134.69176 280.620392 134.023769 C 280.750279 133.960151 280.885468 133.912437 281.025958 133.877977 Q 283.435499 133.297461 285.516345 131.948224 Q 287.247291 130.826953 288.193612 128.724901 C 288.236024 128.632124 288.265182 128.534046 288.283738 128.430667 Q 288.458688 127.468441 288.376514 126.259695 C 288.294341 125.032393 286.595204 124.653334 285.632978 124.868046 Q 284.336757 125.156979 282.923902 125.316024 Q 284.233377 123.858107 286.33543 122.911785 C 288.795334 121.806419 291.186319 122.975404 292.039864 125.453864 C 292.593873 127.062875 292.069022 129.154324 291.093543 130.450545 C 288.201564 134.294146 282.14988 135.251071 277.675399 134.644047 Z" style="fill:#e6d3cc;"/>
		<path d="M 282.862935 125.30277 Q 282.817872 125.430007 282.576653 125.570497 Q 282.542193 125.318675 282.862935 125.30277 Z" style="fill:#8d7864;"/>
		<path d="M 275.732392 147.42866 C 275.833121 147.404803 275.923247 147.497579 275.896739 147.598308 Q 274.15519 154.294126 270.706552 160.549919 C 268.821862 163.966748 266.216165 167.208627 263.536248 169.880592 Q 263.061762 170.355078 262.521007 170.71028 C 262.425579 170.773898 262.314248 170.805707 262.202916 170.808358 Q 260.400399 170.85077 259.117432 170.951499 C 256.233405 171.179464 253.874229 171.961438 251.554815 173.286818 C 251.438181 173.353087 251.308294 173.392848 251.173106 173.400801 C 249.139973 173.517434 247.207569 173.758653 245.367942 174.710276 C 245.206246 174.7951 245.015391 174.803052 244.845743 174.734133 Q 240.167152 172.836189 235.234089 174.193378 Q 234.582002 174.373629 233.367954 174.768592 C 233.100228 174.856068 232.808644 174.797751 232.593933 174.614848 Q 229.561464 172.033009 225.508453 171.391525 Q 224.978301 171.306701 224.546227 170.88523 C 222.059815 168.451833 219.766908 165.848787 217.797393 162.673177 C 214.878907 157.973381 212.837822 152.899827 211.409063 147.706989 Q 211.334842 147.43131 211.337493 147.253709 C 211.340143 147.137076 211.451475 147.054902 211.565458 147.084061 Q 214.576721 147.871336 218.446829 148.560534 Q 222.380556 149.257684 226.759611 149.710963 Q 242.104857 151.296118 257.15852 150.169545 Q 262.330152 149.782534 266.499797 149.146352 Q 271.369242 148.404139 275.732392 147.42866 Z" style="fill:#ff9a3c;"/>
		<path d="M 276.56208 170.943547 C 276.429542 170.864024 276.464001 170.665217 276.615095 170.633408 Q 278.44677 170.264952 280.153859 170.543282 C 281.611776 170.78185 283.520323 171.61949 283.976254 173.080059 C 284.429534 174.527373 282.788713 175.985291 281.375859 175.288141 Q 280.797993 175.00451 280.188318 174.164219 Q 279.109459 172.677143 278.173741 171.916375 C 278.149884 171.89782 278.123377 171.879265 278.096869 171.86336 L 276.56208 170.943547 Z" style="fill:#e67836;"/>
		<path d="M 208.421657 171.142354 C 208.538291 171.208623 208.530338 171.380922 208.405753 171.431286 L 205.328221 172.724857 C 205.293761 172.738111 205.25665 172.748714 205.21954 172.756666 L 199.928624 173.602258 C 199.849101 173.615512 199.77488 173.557195 199.769578 173.477673 Q 199.70596 172.690397 200.273223 172.170848 C 202.022724 170.564488 204.365995 170.341824 206.68541 170.601599 Q 207.644985 170.71028 208.421657 171.142354 Z" style="fill:#e67836;"/>
		<path d="M 265.511063 174.076744 C 265.487207 173.917699 265.550825 173.761304 265.680712 173.665877 C 268.323519 171.736124 272.069042 171.773234 275.120066 172.663889 C 276.03988 172.934267 277.238023 173.456467 277.906015 174.182775 C 279.125364 175.505504 277.598526 176.616172 276.511715 177.101261 C 273.985541 178.235786 270.24532 178.28615 267.692638 177.016436 C 266.290387 176.319287 265.74433 175.513456 265.511063 174.076744 Z M 276.151212 174.288805 Q 275.984214 174.084697 275.872882 174.058189 C 272.779446 173.361039 269.238031 173.589005 266.369909 175.171508 C 266.285085 175.219222 266.26653 175.333204 266.332799 175.404775 Q 266.486543 175.574423 266.772825 175.49225 Q 270.189654 174.527373 274.104826 174.469057 Q 276.092895 174.439898 276.100847 174.437248 C 276.167116 174.421343 276.196275 174.34182 276.151212 174.288805 Z" style="fill:#e67836;"/>
		<path d="M 204.472026 173.46972 C 204.535644 173.459117 204.578056 173.533339 204.538295 173.586354 Q 203.409071 175.041621 201.397145 174.707625 Q 200.36865 174.537976 200.09032 174.005174 C 200.05321 173.933603 200.108876 173.848779 200.188398 173.85408 Q 201.410398 173.944206 204.472026 173.46972 Z" style="fill:#e67836;"/>
		<path d="M 213.656907 178.752684 Q 214.462738 178.954142 215.65558 178.143009 Q 216.135367 178.299404 216.7742 178.060836 C 216.835168 178.03963 216.896135 178.026376 216.957103 178.018424 Q 221.858357 177.429955 226.79142 177.734792 Q 227.440856 177.774554 227.321572 177.546588 Q 227.607854 177.51743 227.902088 177.575747 Q 227.947151 177.583699 228.421637 177.811664 Q 228.729125 177.957456 229.081676 177.843473 L 226.54755 180.743404 C 226.489234 180.809673 226.399108 180.838832 226.311633 180.820276 Q 224.169819 180.300727 223.395797 180.192046 Q 220.535628 179.789131 218.020057 180.361695 Q 217.373272 180.507487 215.729801 180.97137 C 215.607866 181.005829 215.477979 180.989925 215.369298 180.926307 L 214.709259 180.547248 C 214.627085 180.496884 214.521055 180.496884 214.438881 180.547248 L 212.153926 181.864676 C 211.986929 181.962754 211.777519 181.944198 211.629076 181.819613 Q 209.015427 179.638038 205.349427 179.521404 C 204.959765 179.50815 204.62842 179.224519 204.55685 178.84281 C 204.143331 176.621473 206.696013 174.848115 208.519735 174.241091 C 210.722516 173.50418 212.824569 173.278866 214.82059 174.288805 C 214.905415 174.331217 214.921319 174.4452 214.85505 174.508818 C 213.924634 175.420679 213.134707 176.345794 213.153263 177.793109 Q 213.161215 178.601591 213.656907 178.752684 Z" style="fill:#e67836;"/>
		<path d="M 229.081676 177.843473 Q 228.729125 177.957456 228.421637 177.811664 Q 227.947151 177.583699 227.902088 177.575747 Q 227.607854 177.51743 227.321572 177.546588 Q 226.375251 177.119816 225.389168 176.942215 C 222.210908 176.377603 218.542257 176.568458 215.65558 178.143009 Q 214.462738 178.954142 213.656907 178.752684 Q 213.42364 177.103912 214.202964 176.15494 C 216.188382 173.734796 219.53099 173.302722 222.436222 173.78251 Q 225.418327 174.275551 227.857025 175.985291 Q 229.185056 176.918358 229.081676 177.843473 Z" style="fill:#feaf75;"/>
		<path d="M 259.196954 183.036311 C 259.167796 183.1715 259.051163 183.272229 258.913323 183.280181 C 256.116772 183.433925 253.14262 182.691712 251.289739 180.547248 C 249.670125 178.675812 250.841761 176.496888 252.726451 175.534662 C 256.196295 173.763955 260.379193 174.044935 263.398408 176.618823 C 263.809276 176.968723 264.03459 177.422003 264.042543 177.978662 C 264.045193 178.148311 263.941814 178.302055 263.782768 178.363022 C 261.778794 179.129092 259.655536 180.780515 259.196954 183.036311 Z M 262.695957 178.002519 C 262.754274 177.997217 262.764877 177.917695 262.709211 177.896489 Q 261.686018 177.512128 260.641618 177.422003 Q 256.071709 177.034992 252.053158 178.617495 C 251.976286 178.646654 251.931223 178.731478 251.952429 178.811001 C 251.970984 178.893174 252.047856 178.94884 252.13003 178.940888 L 262.695957 178.002519 Z" style="fill:#e67836;"/>
		<path d="M 298.136611 179.240424 Q 298.062389 179.26163 298.006723 179.248376 Q 295.766832 178.797747 293.550797 178.188072 C 292.734363 177.962758 291.896723 177.846124 291.04848 177.753348 C 290.971608 177.745395 290.894736 177.724189 290.825816 177.689729 Q 290.237348 177.390194 290.027938 177.040293 C 289.900701 176.828233 289.96697 176.549903 290.179031 176.420016 C 291.849009 175.383569 294.95835 176.26097 296.543504 177.151625 C 297.169083 177.504176 298.383131 178.466402 298.136611 179.240424 Z" style="fill:#feaf75;"/>
		<path d="M 227.321572 177.546588 Q 227.440856 177.774554 226.79142 177.734792 Q 221.858357 177.429955 216.957103 178.018424 C 216.896135 178.026376 216.835168 178.03963 216.7742 178.060836 Q 216.135367 178.299404 215.65558 178.143009 C 218.542257 176.568458 222.210908 176.377603 225.389168 176.942215 Q 226.375251 177.119816 227.321572 177.546588 Z" style="fill:#2e1c11;"/>
		<path d="M 245.415656 179.89251 Q 244.646936 179.96143 243.923278 180.287474 Q 240.209564 181.968055 235.438197 183.600923 Q 234.409703 183.953474 233.195655 184.234454 Q 231.231442 184.690385 230.900097 184.84678 C 230.751655 184.91835 230.788765 185.135713 230.950462 185.156919 Q 231.631707 185.239092 231.949798 185.220537 Q 235.833161 184.971366 239.289751 183.537305 Q 241.044554 182.810997 243.215526 181.758645 Q 244.540905 181.117161 245.399751 180.388202 C 245.458068 180.340489 245.542892 180.390853 245.529639 180.465075 L 245.418307 181.082701 C 245.413005 181.11186 245.402402 181.138367 245.389148 181.164875 C 244.159196 183.396814 242.059795 184.862684 239.788094 185.952147 Q 236.477295 187.542602 233.086974 186.720867 C 231.766896 186.400125 231.032635 185.763943 230.396453 184.669179 C 229.770874 183.592971 229.996188 182.596285 230.534292 181.528029 C 231.297711 180.009144 232.96769 178.834857 234.499829 178.225183 C 237.701946 176.955469 241.574706 176.754011 244.506446 178.765938 Q 245.089613 179.163552 245.495179 179.71491 C 245.548194 179.783829 245.503131 179.884558 245.415656 179.89251 Z" style="fill:#e67836;"/>
		<path d="M 190.900137 178.010471 C 190.855074 177.973361 190.863027 177.90179 190.916042 177.877933 C 191.989599 177.382241 192.954476 177.339829 194.147318 177.321274 Q 196.729157 177.281512 199.022064 178.829556 C 199.114841 178.890523 199.072429 179.036315 198.961097 179.041617 Q 198.335517 179.073426 197.78681 178.959443 Q 196.124784 178.620146 194.478662 178.304706 C 193.399803 178.097946 192.244072 178.089994 191.128103 178.07674 Q 190.982311 178.07674 190.900137 178.010471 Z" style="fill:#e67836;"/>
		<path d="M 298.006723 179.248376 Q 298.062389 179.26163 298.136611 179.240424 C 298.181674 180.441218 295.952385 180.809673 295.149205 180.722198 Q 294.324819 180.632072 293.24861 179.775877 Q 291.599838 178.466402 291.369222 178.262293 C 291.316207 178.21458 291.358619 178.127105 291.430189 178.140358 Q 292.75822 178.402784 293.407656 178.641352 C 294.804606 179.160901 296.453378 179.444532 297.81852 179.502849 Q 298.033231 179.510801 298.006723 179.248376 Z" style="fill:#e67836;"/>
		<path d="M 289.325486 181.997213 Q 289.05776 182.087339 288.477243 182.121799 C 285.245967 182.302051 282.351338 182.325908 279.369234 181.528029 C 279.104158 181.456459 278.939811 181.188732 279.000778 180.921005 Q 279.191633 180.062159 280.114097 179.677799 C 283.15982 178.402784 287.252592 178.763287 289.471278 181.488268 C 289.614419 181.660567 289.537547 181.922992 289.325486 181.997213 Z" style="fill:#e67836;"/>
		<path d="M 278.346041 190.553865 L 276.758236 189.94154 Q 276.453398 189.485609 275.949754 189.133058 Q 270.902708 185.607548 264.943801 184.231804 L 262.974287 183.436576 C 263.631675 182.182767 265.055133 181.318619 266.945124 181.024385 C 269.354665 180.650628 272.238691 181.247049 274.648231 182.61484 C 276.201576 183.497543 277.450084 184.640021 278.208201 185.875275 C 279.239347 187.553205 279.289711 189.260294 278.346041 190.553865 Z" style="fill:#feaf75;"/>
		<path d="M 198.947843 185.50947 Q 197.654272 185.697674 196.032008 185.504168 Q 195.86501 185.482962 195.782836 185.626103 Q 195.772233 185.54393 195.705964 185.493565 Q 195.650298 185.448502 195.55222 185.448502 C 191.531018 185.400789 187.464753 186.463743 183.835863 188.276863 C 183.671516 188.359036 183.480662 188.23445 183.485963 188.051548 C 183.570787 185.215235 185.656935 183.518749 188.217569 182.455795 Q 192.077074 180.849435 195.76163 181.827565 Q 196.615175 182.05553 197.463418 182.638697 Q 198.900129 183.62478 198.947843 185.50947 Z" style="fill:#feaf75;"/>
		<path d="M 209.280503 184.070107 C 209.312312 184.120472 209.277852 184.186741 209.219536 184.189392 Q 208.620464 184.221201 208.196343 184.329882 Q 204.824577 185.201982 202.134056 186.264936 C 202.030676 186.304698 201.916693 186.235778 201.908741 186.124446 L 201.691379 183.672493 C 201.678125 183.513448 201.770902 183.365005 201.919344 183.306689 Q 203.907414 182.545921 206.3037 182.720871 C 207.226165 182.78714 208.697336 183.129088 209.280503 184.070107 Z" style="fill:#e67836;"/>
		<path d="M 303.589223 184.719543 Q 303.263179 184.343136 302.096845 184.698337 Q 302.388429 183.630081 303.234021 183.343799 C 305.243297 182.662554 308.127323 184.019743 309.601145 185.315964 C 310.1419 185.793101 310.878811 186.919674 310.481197 187.630077 C 310.42023 187.74406 310.271787 187.77852 310.165757 187.701648 C 309.68862 187.354398 309.365228 187.057513 308.81652 186.795088 Q 307.289683 186.06878 305.908637 185.414042 Q 304.832429 184.902446 303.589223 184.719543 Z" style="fill:#feaf75;"/>
		<path d="M 262.974287 183.436576 L 264.943801 184.231804 Q 265.770838 184.979318 267.021996 185.535977 Q 269.484552 186.630741 274.314236 188.958108 Q 275.475268 189.517418 276.758236 189.94154 L 278.346041 190.553865 C 277.298991 191.993227 275.151876 192.759297 272.572687 192.616156 C 270.674743 192.512776 268.689324 191.921657 266.968981 190.948828 C 265.378525 190.050221 264.106161 188.875934 263.345393 187.60622 C 262.467992 186.14035 262.335454 184.650624 262.974287 183.436576 Z" style="fill:#e67836;"/>
		<path d="M 213.272547 190.442533 Q 212.649618 190.543262 212.2361 190.336503 Q 211.599918 190.021062 210.923974 189.748034 C 210.802039 188.30337 212.071753 186.959435 213.124104 186.14035 C 215.825228 184.038298 219.371944 183.463083 222.754314 183.932268 C 224.646956 184.194693 226.958418 185.156919 228.135355 186.773882 C 228.167164 186.818945 228.145958 186.882563 228.092943 186.898468 Q 223.324227 188.290116 218.884205 189.371626 Q 216.848421 189.869969 213.272547 190.442533 Z" style="fill:#feaf75;"/>
		<path d="M 264.943801 184.231804 Q 270.902708 185.607548 275.949754 189.133058 Q 276.453398 189.485609 276.758236 189.94154 Q 275.475268 189.517418 274.314236 188.958108 Q 269.484552 186.630741 267.021996 185.535977 Q 265.770838 184.979318 264.943801 184.231804 Z" style="fill:#2e1c11;"/>
		<path d="M 209.283154 184.409405 C 209.362677 184.372294 209.458104 184.42796 209.463406 184.518086 Q 209.495215 185.000524 209.166521 185.493565 C 207.586668 187.871296 204.737102 189.074741 201.927297 189.058837 Q 201.442208 189.056186 201.055197 188.952806 C 200.917357 188.915696 200.843136 188.769904 200.89085 188.637366 Q 201.17183 187.868646 201.651618 187.420667 C 201.72849 187.351748 201.818615 187.298732 201.919344 187.266923 Q 205.307015 186.219873 209.283154 184.409405 Z" style="fill:#e67836;"/>
		<path d="M 295.000762 188.438559 Q 293.685986 188.518082 292.919916 188.271561 Q 288.803287 186.540615 284.310249 185.989257 Q 283.737685 185.917687 283.355976 185.983956 L 283.234041 185.782498 Q 283.981555 185.138363 285.155842 184.878589 C 287.610445 184.332533 290.377838 184.35904 292.673395 185.318615 Q 295.090888 186.331205 295.000762 188.438559 Z" style="fill:#feaf75;"/>
		<path d="M 303.589223 184.719543 Q 306.210824 186.17481 308.869536 187.380906 C 309.288356 187.56911 309.640907 187.855392 309.940443 188.107214 C 310.03587 188.186737 310.009362 188.340481 309.892729 188.382893 C 307.692598 189.17547 305.177028 188.549891 303.464637 187.099925 Q 302.327461 186.135049 302.096845 184.698337 Q 303.263179 184.343136 303.589223 184.719543 Z" style="fill:#e67836;"/>
		<path d="M 198.947843 185.50947 Q 199.056524 186.94088 197.874285 188.192038 C 195.244732 190.967383 191.067135 191.664533 187.438245 191.009796 Q 185.381256 190.638689 184.032019 189.201978 C 183.875625 189.037631 183.918037 188.769904 184.114193 188.655921 Q 184.323603 188.533986 184.527712 188.480971 C 185.903456 188.115166 187.003521 187.722854 188.228172 187.460429 C 191.409083 186.776533 193.728498 186.38422 195.782836 185.626103 Q 195.86501 185.482962 196.032008 185.504168 Q 197.654272 185.697674 198.947843 185.50947 Z" style="fill:#e67836;"/>
		<path d="M 283.234041 185.782498 L 283.355976 185.983956 Q 283.363928 186.180112 283.602497 186.254333 Q 288.092883 187.672489 292.919916 188.271561 Q 293.685986 188.518082 295.000762 188.438559 Q 294.727734 189.464403 294.123361 189.933587 Q 293.391751 190.503501 292.633634 190.707609 Q 287.716475 192.043592 283.732384 188.955457 C 282.807269 188.237101 281.898058 186.797739 283.234041 185.782498 Z" style="fill:#e67836;"/>
		<path d="M 292.919916 188.271561 Q 288.092883 187.672489 283.602497 186.254333 Q 283.363928 186.180112 283.355976 185.983956 Q 283.737685 185.917687 284.310249 185.989257 Q 288.803287 186.540615 292.919916 188.271561 Z" style="fill:#2e1c11;"/>
		<path d="M 241.980272 193.323909 L 239.67146 193.342464 C 238.984914 191.51344 240.400419 189.504164 241.853035 188.462416 Q 245.405053 185.915036 250.163166 186.227826 C 251.401071 186.309999 253.778802 186.988594 254.43619 188.274212 C 254.486555 188.37229 254.412334 188.486273 254.301002 188.480971 Q 253.428902 188.438559 252.919956 188.565795 C 250.961045 189.048234 249.630364 189.554529 247.947131 190.400121 Q 245.023344 191.871292 241.980272 193.323909 Z" style="fill:#feaf75;"/>
		<path d="M 210.923974 189.748034 Q 211.599918 190.021062 212.2361 190.336503 Q 212.649618 190.543262 213.272547 190.442533 Q 214.049219 190.853401 214.984938 190.837496 C 216.403094 190.81629 218.009454 190.736767 219.49653 190.394819 Q 223.96306 189.363674 228.196323 187.622125 C 228.297052 187.582364 228.403082 187.659236 228.39778 187.767917 C 228.312956 189.440546 227.067099 190.985939 225.776179 191.929609 Q 221.394474 195.126425 215.79607 194.267579 C 213.683415 193.944186 210.661549 192.313969 210.923974 189.748034 Z" style="fill:#e67836;"/>
		<path d="M 239.67146 193.342464 L 241.980272 193.323909 Q 242.841769 193.501509 243.748328 193.239084 C 245.606511 192.698329 247.356012 192.086004 249.012737 191.155587 Q 249.601205 190.824242 252.196299 189.493561 Q 253.312268 188.923648 254.428238 188.72219 C 254.497158 188.711587 254.560776 188.753999 254.57403 188.822919 Q 254.698616 189.432594 254.475952 190.25698 C 253.495171 193.869965 249.389144 195.823575 245.929903 196.136364 C 243.713868 196.335171 240.445482 195.799718 239.67146 193.342464 Z" style="fill:#e67836;"/>
		<path d="M 276.100847 174.437248 Q 276.092895 174.439898 274.104826 174.469057 Q 270.189654 174.527373 266.772825 175.49225 Q 266.486543 175.574423 266.332799 175.404775 C 266.26653 175.333204 266.285085 175.219222 266.369909 175.171508 C 269.238031 173.589005 272.779446 173.361039 275.872882 174.058189 Q 275.984214 174.084697 276.151212 174.288805 C 276.196275 174.34182 276.167116 174.421343 276.100847 174.437248 Z" style="fill:#2e1c11;"/>
		<path d="M 262.695957 178.002519 L 252.13003 178.940888 C 252.047856 178.94884 251.970984 178.893174 251.952429 178.811001 C 251.931223 178.731478 251.976286 178.646654 252.053158 178.617495 Q 256.071709 177.034992 260.641618 177.422003 Q 261.686018 177.512128 262.709211 177.896489 C 262.764877 177.917695 262.754274 177.997217 262.695957 178.002519 Z" style="fill:#2e1c11;"/>
	</g>
	<g id="surface4">
	</g>
</svg>
