<?xml version="1.0" encoding="utf-8"?>
<svg xmlns="http://www.w3.org/2000/svg" width="490pt" height="280pt" viewBox="0 0 490 280" version="1.1" xmlns:xlink="http://www.w3.org/1999/xlink">
	<g id="surface2" data-size="77.669657440762 148" data-bboxpos="206 53.159957935247" data-pivot="244.83482872038 127.15995793525" data-center="244.83482872038 127.15995793525">
		<path d="M 262.452912 86.8404 C 262.556731 87.237778 262.85745 87.552816 263.251247 87.674535 C 267.336003 88.959748 271.073501 90.17694 274.531761 92.625646 Q 280.932764 97.157899 282.812252 104.614996 Q 283.18457 106.086367 283.474549 109.154409 Q 283.667867 111.191417 283.667867 113.722462 Q 283.675027 165.628577 283.653548 179.006959 Q 283.649968 181.240865 283.28839 184.326807 Q 282.916072 187.495089 282.017497 189.464077 C 279.690511 194.558387 275.698834 197.930727 270.493545 199.777997 C 269.197592 200.236234 267.8372 200.408073 266.29423 200.801871 C 265.904012 200.90211 265.506634 200.95939 265.105677 200.97729 Q 260.677243 201.149128 259.42425 201.152708 Q 247.606739 201.184928 229.484886 201.073949 C 226.363144 201.056049 224.791533 201.167028 222.639966 200.698051 C 221.376233 200.422393 220.24496 200.272034 219.199606 199.921196 Q 209.064686 196.513056 206.462041 185.952118 C 206.436981 185.848298 206.419081 185.740899 206.415501 185.62992 Q 206.386861 184.738505 206.118363 183.88289 C 206.078983 183.754011 206.061083 183.621551 206.057503 183.489092 Q 206.000224 178.75636 206.000224 174.173987 Q 205.996644 124.723737 206.050343 110.897859 C 206.053923 109.802385 206.028864 109.179469 206.179223 108.094735 Q 206.476361 105.914528 206.540801 105.56011 C 206.952498 103.347683 207.661334 101.206856 208.871367 99.266507 Q 211.75325 94.637594 216.489562 91.820151 Q 217.545656 91.193654 219.389345 90.409639 Q 221.601772 89.464525 224.311816 88.669769 Q 226.431164 88.050433 227.13284 87.824894 C 227.540957 87.696015 227.816616 87.320117 227.820196 86.8941 Q 227.870315 80.471617 227.848835 57.83899 C 227.845255 55.862842 227.662676 54.58479 229.320207 53.729175 Q 230.129282 53.310317 232.015931 53.159958 Q 232.037411 53.159958 252.282192 53.278097 C 255.099635 53.292417 258.099658 53.020339 260.355044 53.539436 Q 261.486318 53.800774 262.191574 55.003647 Q 262.606851 55.712483 262.495872 57.337793 Q 262.481552 57.584812 262.449332 86.643501 Q 262.449332 86.8225 262.452912 86.8404 Z M 216.571902 190.162173 C 219.024187 193.251695 222.844025 194.561967 226.713982 194.916385 C 228.049314 195.038104 230.376301 195.224263 232.323809 195.227843 Q 248.748753 195.267223 259.757188 195.249323 C 261.919495 195.245743 263.555546 194.866265 265.717853 194.497528 C 265.918332 194.461728 266.115231 194.404448 266.301389 194.322109 Q 266.634328 194.178909 267.575862 193.817332 Q 272.115275 192.081042 274.195243 187.942586 Q 274.979258 186.385295 275.358736 183.78981 Q 275.702414 181.412704 275.705994 179.454456 Q 275.788334 133.723805 275.802654 113.640123 Q 275.802654 112.906227 275.709574 112.286891 C 275.530575 111.123397 275.537735 109.981384 275.305037 108.91097 C 274.059204 103.193744 270.010248 98.80469 264.583 96.767682 C 263.584185 96.395364 262.488712 96.219945 261.267939 95.858367 C 261.1319 95.815407 260.985121 95.793927 260.841922 95.790347 C 259.592509 95.772448 257.69154 95.518269 255.901551 95.507529 Q 244.06614 95.42877 235.005213 95.507529 C 233.129304 95.525429 231.650773 95.697268 229.495626 95.790347 C 229.248607 95.801087 229.005169 95.844047 228.76889 95.926387 C 227.601817 96.316604 226.509923 96.463384 225.500369 96.821381 C 221.057615 98.396572 217.001499 101.822612 215.20435 106.290426 Q 214.516994 108.005236 214.312935 109.290448 Q 213.869018 112.129371 213.869018 115.021994 C 213.872597 149.511512 213.729398 168.5928 213.933457 180.811268 C 213.958517 182.24684 214.262815 183.728951 214.309355 185.039223 C 214.312935 185.200322 214.341575 185.361421 214.391694 185.51178 Q 215.465688 188.769561 216.571902 190.162173 Z" style="fill:#ff208f;"/>
	</g>
	<g id="surface4">
	</g>
</svg>
