<?xml version="1.0" encoding="utf-8"?>
<svg xmlns="http://www.w3.org/2000/svg" width="490pt" height="280pt" viewBox="0 0 490 280" version="1.1" xmlns:xlink="http://www.w3.org/1999/xlink">
	<g id="surface2" data-size="159.45197746668 148" data-bboxpos="165.5 52.11545970379" data-pivot="245.22598873334 126.11545970379" data-center="245.22598873334 126.11545970379">
		<path vector-effect="non-scaling-stroke" d="M 259.781701 94.690358 Q 259.610468 94.647549 259.659391 95.194883" style="fill:none;stroke-width:0.50;stroke:#916d6c;"/>
		<path vector-effect="non-scaling-stroke" d="M 259.659391 95.194883 L 259.552371 98.995641 C 259.549313 99.127124 259.656334 99.237202 259.787816 99.24026 L 266.991827 99.350338" style="fill:none;stroke-width:0.50;stroke:#8f3b67;"/>
		<path vector-effect="non-scaling-stroke" d="M 266.991827 99.350338 L 264.805551 104.716654" style="fill:none;stroke-width:0.50;stroke:#8f94b1;"/>
		<path vector-effect="non-scaling-stroke" d="M 264.805551 104.716654 Q 263.882116 107.410514 264.316314 110.058508 Q 264.65878 112.168341 266.334416 115.048723 Q 268.214919 118.286859 270.51739 121.784902 C 270.661103 122.002001 270.697796 122.277196 270.615237 122.524872 Q 269.798824 124.99246 268.340286 128.166384 Q 264.747454 135.984999 259.304695 145.045053 Q 254.678349 152.747474 248.862547 162.0338 Q 245.627469 167.198306 241.817538 174.399259 Q 238.732288 180.236466 236.766168 186.25102 Q 235.26788 190.84373 235.686789 195.62602" style="fill:none;stroke-width:0.50;stroke:#956945;"/>
		<path vector-effect="non-scaling-stroke" d="M 205.00247 195.580154 L 204.433732 189.342385" style="fill:none;stroke-width:0.50;stroke:#234d8c;"/>
		<path vector-effect="non-scaling-stroke" d="M 204.433732 189.342385 Q 203.785494 184.349112 203.522529 180.99784 Q 202.461497 167.442924 202.088454 154.319147 Q 201.476908 132.826364 202.495132 112.431306 C 202.501247 112.305939 202.446208 112.186688 202.348361 112.110245 Q 201.804085 111.688278 200.834784 110.813767 C 200.024486 110.08297 199.38542 108.8293 199.195841 107.921155 Q 198.492563 104.563767 200.886766 102.294932 Q 201.189481 102.007505 202.265802 101.258361 C 202.345303 101.203322 202.412573 101.129937 202.461497 101.04432 Q 202.94156 100.230964 202.724461 99.380915" style="fill:none;stroke-width:0.50;stroke:#227caa;"/>
		<path vector-effect="non-scaling-stroke" d="M 202.724461 99.380915 L 202.733635 94.913572 C 202.733635 94.840186 202.715288 94.769859 202.681653 94.705646 L 202.63273 94.607799" style="fill:none;stroke-width:0.50;stroke:#916d6c;"/>
		<path vector-effect="non-scaling-stroke" d="M 202.724461 99.380915 L 175.183489 99.065969" style="fill:none;stroke-width:0.50;stroke:#87b4a7;"/>
		<path vector-effect="non-scaling-stroke" d="M 269.205624 94.886052 Q 264.747454 94.953322 262.701833 94.846302 Q 261.020081 94.760685 259.659391 95.194883" style="fill:none;stroke-width:0.50;stroke:#f47363;"/>
		<path vector-effect="non-scaling-stroke" d="M 271.960639 100.518391 Q 271.061666 99.815113 269.957825 99.546033 C 269.814112 99.50934 269.661226 99.546033 269.54809 99.640822 C 268.532923 100.500044 267.465776 102.129814 269.043564 103.099115 Q 269.545032 103.404888 270.119885 103.716776" style="fill:none;stroke-width:0.50;stroke:#f29aa9;"/>
		<path vector-effect="non-scaling-stroke" d="M 301.363769 119.011541 Q 301.431039 119.112446 301.427981 119.231697 C 301.424923 119.262275 301.418808 119.289794 301.403519 119.314256 L 300.088695 121.365993 C 299.975559 121.540283 299.752345 121.604496 299.565824 121.515822 Q 297.529376 120.543463 295.398138 119.4702 Q 283.790995 113.623821 266.866461 105.037715 Q 265.946084 104.57294 264.805551 104.716654" style="fill:none;stroke-width:0.50;stroke:#f8c887;"/>
		<path vector-effect="non-scaling-stroke" d="M 266.991827 99.350338 Q 268.135418 97.243562 269.248432 95.580157 Q 269.514455 95.182652 269.205624 94.886052" style="fill:none;stroke-width:0.50;stroke:#f29aa9;"/>
		<path vector-effect="non-scaling-stroke" d="M 269.205624 94.886052 L 269.257605 94.595568" style="fill:none;stroke-width:0.50;stroke:#f4ccae;"/>
		<path vector-effect="non-scaling-stroke" d="M 204.433732 189.342385 Q 204.118786 189.990624 202.96908 188.902072 Q 199.54748 185.663936 199.510787 185.627243 Q 192.551394 178.76264 188.105455 170.283555 Q 184.047848 162.544441 181.467124 154.297743 Q 181.231678 153.554715 181.133831 152.878957 C 181.112427 152.741359 180.950367 152.683262 180.843347 152.771936 Q 180.607901 152.970689 180.262378 153.441579 Q 176.978376 157.905865 174.055186 163.513741 Q 173.825857 163.950996 171.807755 168.271569 Q 168.260788 175.86697 165.799316 183.94855" style="fill:none;stroke-width:0.50;stroke:#1994c7;"/>
		<path vector-effect="non-scaling-stroke" d="M 289.554816 128.557773 Q 289.163427 128.371252 288.787326 128.438522 Q 287.029131 128.756526 284.353618 129.64021 C 281.892145 130.450508 280.641534 132.382993 279.238036 134.694637 Q 278.482776 135.939133 276.165017 140.054838 C 273.966509 143.965674 272.455991 147.527929 270.278887 152.108409 Q 269.147527 154.484265 266.010296 162.269245 C 264.924802 164.963105 264.035003 166.874186 262.753814 169.895223 Q 261.448163 172.971299 258.463819 179.141798 Q 257.051148 182.064988 255.702689 184.505056 Q 253.146427 189.128344 252.72446 189.749063 Q 250.764455 192.614156 248.749411 195.616847" style="fill:none;stroke-width:0.50;stroke:#f86f3d;"/>
		<path vector-effect="non-scaling-stroke" d="M 304.060686 114.28429 Q 302.745863 116.247353 301.61756 118.314378 Q 301.434097 118.650729 301.363769 119.011541" style="fill:none;stroke-width:0.50;stroke:#956945;"/>
		<path vector-effect="non-scaling-stroke" d="M 301.363769 119.011541 Q 301.122208 119.170543 300.828666 119.026829 Q 285.4544 111.446717 270.119885 103.716776" style="fill:none;stroke-width:0.50;stroke:#8f94b1;"/>
		<path vector-effect="non-scaling-stroke" d="M 270.119885 103.716776 Q 271.587595 102.518146 271.960639 100.518391" style="fill:none;stroke-width:0.50;stroke:#8f3b67;"/>
		<path vector-effect="non-scaling-stroke" d="M 271.960639 100.518391 Q 274.944983 101.992216 277.920154 103.484389 Q 280.922845 104.988792 285.0783 105.881649 Q 286.093466 106.101805 287.117805 105.875533 C 287.466387 105.79909 287.662081 105.426047 287.527541 105.095812 Q 287.51531 105.065235 287.237057 104.924579 Q 280.913672 101.759829 274.938867 98.047745 Q 273.624044 97.231331 271.657923 95.592388 Q 270.88126 94.944149 270.905722 93.846424" style="fill:none;stroke-width:0.50;stroke:#8f94b1;"/>
		<path vector-effect="non-scaling-stroke" d="M 305.748553 108.193293 L 307.286591 108.850704" style="fill:none;stroke-width:0.50;stroke:#f8c887;"/>
		<path vector-effect="non-scaling-stroke" d="M 306.53439 110.138009 L 304.060686 114.28429" style="fill:none;stroke-width:0.50;stroke:#f8c887;"/>
		<path vector-effect="non-scaling-stroke" d="M 304.060686 114.28429 Q 303.972012 113.874555 303.748798 113.724726 Q 294.847746 107.921155 286.221891 101.723136 Q 282.9226 99.353396 279.620252 97.093733 Q 276.302615 94.824898 272.997209 92.485734" style="fill:none;stroke-width:0.50;stroke:#8f94b1;"/>
		<path vector-effect="non-scaling-stroke" d="M 307.818636 111.975704 L 306.53439 110.138009" style="fill:none;stroke-width:0.50;stroke:#f86f3d;"/>
		<path vector-effect="non-scaling-stroke" d="M 306.53439 110.138009 Q 307.063377 109.569271 307.286591 108.850704" style="fill:none;stroke-width:0.50;stroke:#f29aa9;"/>
		<path vector-effect="non-scaling-stroke" d="M 307.286591 108.850704 Q 308.745129 107.728518 308.879669 105.918342" style="fill:none;stroke-width:0.50;stroke:#f86f3d;"/>
		<path vector-effect="non-scaling-stroke" d="M 311.163793 101.683386 Q 311.698896 101.454056 312.099458 100.600949 Q 312.802736 99.105719 312.964796 98.51252" style="fill:none;stroke-width:0.50;stroke:#f86f3d;"/>
		<path vector-effect="non-scaling-stroke" d="M 315.007359 94.864648 Q 316.517878 93.996253 316.28549 92.39706" style="fill:none;stroke-width:0.50;stroke:#f86f3d;"/>
		<path vector-effect="non-scaling-stroke" d="M 306.934953 105.218121 Q 305.849458 106.254692 305.748553 108.193293" style="fill:none;stroke-width:0.50;stroke:#956945;"/>
		<path vector-effect="non-scaling-stroke" d="M 305.748553 108.193293 C 304.063744 107.080279 301.895814 106.010073 300.565701 105.270103 Q 294.422722 101.86685 288.267512 98.481943 Q 281.467121 94.745397 275.131504 90.461517" style="fill:none;stroke-width:0.50;stroke:#8f94b1;"/>
		<path vector-effect="non-scaling-stroke" d="M 316.322183 90.143513 Q 317.887741 90.651096 316.28549 92.39706" style="fill:none;stroke-width:0.50;stroke:#f29aa9;"/>
		<path vector-effect="non-scaling-stroke" d="M 316.28549 92.39706 L 310.56142 89.935588" style="fill:none;stroke-width:0.50;stroke:#f8c887;"/>
		<path vector-effect="non-scaling-stroke" d="M 310.56142 89.935588 Q 310.22507 89.758239 309.83368 89.504448 Q 309.399483 89.223137 309.096768 89.082481 Q 305.247086 87.244785 302.244395 85.627246 C 297.137986 82.878347 294.373798 81.505426 288.022893 78.077711 Q 286.090408 77.035025 284.766411 76.16663 C 284.726661 76.142168 284.680795 76.12688 284.631871 76.129937 Q 284.589063 76.132995 284.55237 76.129937" style="fill:none;stroke-width:0.50;stroke:#8f94b1;"/>
		<path vector-effect="non-scaling-stroke" d="M 310.821327 84.428616 Q 310.735711 85.049335 311.237178 85.452956 Q 312.05665 86.113425 312.365481 86.581258 C 312.417462 86.657701 312.481675 86.724971 312.558118 86.783068 Q 314.288793 88.042853 315.900216 89.654276 Q 315.995006 89.746008 316.453666 89.960049" style="fill:none;stroke-width:0.50;stroke:#956945;"/>
		<path vector-effect="non-scaling-stroke" d="M 316.453666 89.960049 Q 316.499532 90.048724 316.322183 90.143513" style="fill:none;stroke-width:0.50;stroke:#8f3b67;"/>
		<path vector-effect="non-scaling-stroke" d="M 316.322183 90.143513 Q 311.763108 87.501635 307.207091 85.027931 Q 304.173822 83.382873 301.152785 81.722525 Q 294.593955 78.117462 288.071817 74.445128 Q 286.808975 73.732677 285.243417 72.240505" style="fill:none;stroke-width:0.50;stroke:#8f94b1;"/>
		<path vector-effect="non-scaling-stroke" d="M 309.8612 101.065724 Q 310.249532 101.469345 311.163793 101.683386" style="fill:none;stroke-width:0.50;stroke:#f8c887;"/>
		<path vector-effect="non-scaling-stroke" d="M 311.163793 101.683386 L 308.879669 105.918342" style="fill:none;stroke-width:0.50;stroke:#f29aa9;"/>
		<path vector-effect="non-scaling-stroke" d="M 308.879669 105.918342 L 306.934953 105.218121" style="fill:none;stroke-width:0.50;stroke:#f8c887;"/>
		<path vector-effect="non-scaling-stroke" d="M 306.934953 105.218121 Q 304.785368 103.83297 302.54711 102.579301 C 296.168686 99.007872 289.059464 94.840186 285.949753 93.002491 Q 282.58625 91.014966 279.106553 88.755304 Q 278.501123 88.360857 277.782556 88.119296 C 277.5624 88.048968 277.326954 88.045911 277.106798 88.116238 L 275.660492 88.581013" style="fill:none;stroke-width:0.50;stroke:#8f94b1;"/>
		<path vector-effect="non-scaling-stroke" d="M 276.544176 87.850216 Q 277.051759 86.611835 276.70012 84.966777" style="fill:none;stroke-width:0.50;stroke:#8f94b1;"/>
		<path vector-effect="non-scaling-stroke" d="M 318.058974 88.339453 Q 318.043685 88.736958 317.912203 88.947941 C 317.679815 89.320984 317.575852 89.629815 317.419908 90.045666 C 317.386273 90.13434 317.300657 90.189379 317.208925 90.186321 Q 316.854228 90.177148 316.453666 89.960049" style="fill:none;stroke-width:0.50;stroke:#f86f3d;"/>
		<path vector-effect="non-scaling-stroke" d="M 310.509439 92.748699 L 315.007359 94.864648" style="fill:none;stroke-width:0.50;stroke:#f8c887;"/>
		<path vector-effect="non-scaling-stroke" d="M 315.007359 94.864648 L 312.964796 98.51252" style="fill:none;stroke-width:0.50;stroke:#f29aa9;"/>
		<path vector-effect="non-scaling-stroke" d="M 312.964796 98.51252 L 310.286224 97.408679" style="fill:none;stroke-width:0.50;stroke:#f8c887;"/>
		<path vector-effect="non-scaling-stroke" d="M 310.286224 97.408679 Q 296.691558 90.745886 283.466876 83.343122 C 282.736079 82.933386 281.962473 82.38911 281.204156 81.921278 C 281.124655 81.869296 281.078789 81.780622 281.087962 81.685832 L 281.268368 79.842021 C 281.280599 79.731943 281.243906 79.624923 281.170521 79.542364 L 280.595668 78.909414" style="fill:none;stroke-width:0.50;stroke:#8f94b1;"/>
		<path vector-effect="non-scaling-stroke" d="M 321.086126 87.131649 L 319.863034 85.718978" style="fill:none;stroke-width:0.50;stroke:#ea3176;"/>
		<path vector-effect="non-scaling-stroke" d="M 319.863034 85.718978 L 320.092364 85.382628" style="fill:none;stroke-width:0.50;stroke:#ea8ac0;"/>
		<path vector-effect="non-scaling-stroke" d="M 320.092364 85.382628 Q 321.495862 84.122843 321.422477 82.520593" style="fill:none;stroke-width:0.50;stroke:#ea3176;"/>
		<path vector-effect="non-scaling-stroke" d="M 321.422477 82.520593 Q 322.355084 81.230231 322.777051 79.796155 C 322.801513 79.716654 322.76482 79.634096 322.691434 79.597403 Q 318.896792 77.66186 316.24574 76.252247 Q 314.108387 75.111713 309.784757 72.937667 Q 300.68801 68.363304 291.716631 63.327222 C 291.676881 63.302761 291.640188 63.272183 291.606553 63.238548 L 291.001122 62.556675" style="fill:none;stroke-width:0.50;stroke:#ea8ac0;"/>
		<path vector-effect="non-scaling-stroke" d="M 317.370985 83.893513 L 320.092364 85.382628" style="fill:none;stroke-width:0.50;stroke:#f29aa9;"/>
		<path vector-effect="non-scaling-stroke" d="M 319.863034 85.718978 Q 319.220911 86.987936 318.499287 88.195739 Q 318.217976 88.660514 318.058974 88.339453" style="fill:none;stroke-width:0.50;stroke:#f29aa9;"/>
		<path vector-effect="non-scaling-stroke" d="M 318.058974 88.339453 L 310.821327 84.428616" style="fill:none;stroke-width:0.50;stroke:#f8c887;"/>
		<path vector-effect="non-scaling-stroke" d="M 310.821327 84.428616 Q 302.158779 78.805451 293.352517 73.454424 Q 288.747575 70.656601 287.172845 69.757628 Q 286.732531 69.503837 285.793808 69.155256" style="fill:none;stroke-width:0.50;stroke:#8f94b1;"/>
		<path vector-effect="non-scaling-stroke" d="M 287.249288 69.100216 Q 287.374655 68.907579 287.285981 68.74552" style="fill:none;stroke-width:0.50;stroke:#8f94b1;"/>
		<path vector-effect="non-scaling-stroke" d="M 310.56142 89.935588 L 310.503323 92.03319 C 310.500266 92.106576 310.518612 92.183019 310.552247 92.250289 Q 310.839674 92.822085 310.509439 92.748699" style="fill:none;stroke-width:0.50;stroke:#956945;"/>
		<path vector-effect="non-scaling-stroke" d="M 310.509439 92.748699 Q 307.892022 91.424702 305.286836 90.183264 Q 296.560075 86.027809 287.833314 81.872354 Q 284.989625 80.520837 282.314112 79.838964 Q 281.613892 79.661615 280.372453 78.618929" style="fill:none;stroke-width:0.50;stroke:#8f94b1;"/>
		<path vector-effect="non-scaling-stroke" d="M 281.268368 76.337863 L 283.087717 77.664918 C 283.19168 77.738303 283.338451 77.713841 283.411837 77.609879 L 284.130403 76.594712" style="fill:none;stroke-width:0.50;stroke:#8f94b1;"/>
		<path vector-effect="non-scaling-stroke" d="M 284.130403 76.594712 L 284.246597 76.334805" style="fill:none;stroke-width:0.50;stroke:#916d6c;"/>
		<path vector-effect="non-scaling-stroke" d="M 310.286224 97.408679 Q 309.784757 99.21274 309.8612 101.065724" style="fill:none;stroke-width:0.50;stroke:#956945;"/>
		<path vector-effect="non-scaling-stroke" d="M 309.8612 101.065724 Q 302.865114 97.24662 300.1896 95.888988 Q 291.988769 91.727417 290.866582 91.17091 Q 287.552003 89.531967 284.206847 87.948063 Q 283.029621 87.388499 280.36328 86.351928 Q 278.400218 85.587496 276.553349 84.676292" style="fill:none;stroke-width:0.50;stroke:#8f94b1;"/>
		<path vector-effect="non-scaling-stroke" d="M 277.464552 82.707114 Q 277.886519 83.00983 278.452199 83.031234 C 278.50418 83.034291 278.556162 83.046522 278.605085 83.074042 L 279.507116 83.596914 C 279.601905 83.651953 279.711984 83.667241 279.819004 83.639722 Q 280.292952 83.52047 280.158412 82.960906" style="fill:none;stroke-width:0.50;stroke:#916d6c;"/>
		<path vector-effect="non-scaling-stroke" d="M 321.422477 82.520593 L 313.61915 78.722892" style="fill:none;stroke-width:0.50;stroke:#f29aa9;"/>
		<path vector-effect="non-scaling-stroke" d="M 313.61915 78.722892 Q 307.16734 75.178983 300.660491 71.332359 Q 297.480452 69.454913 296.670153 68.675192 Q 295.245251 67.302271 294.012986 65.75506 Q 292.459659 63.810344 289.992071 64.131405" style="fill:none;stroke-width:0.50;stroke:#8f94b1;"/>
		<path vector-effect="non-scaling-stroke" d="M 289.992071 64.131405 L 289.918686 64.039674" style="fill:none;stroke-width:0.50;stroke:#86abce;"/>
		<path vector-effect="non-scaling-stroke" d="M 313.61915 78.722892 Q 313.9555 79.860368 314.640432 80.670666 Q 315.45073 81.633851 315.961371 82.376879 C 316.068392 82.532824 316.196816 82.673479 316.343587 82.795788 Q 316.955133 83.297256 317.370985 83.893513" style="fill:none;stroke-width:0.50;stroke:#8f3b67;"/>
		<path vector-effect="non-scaling-stroke" d="M 317.370985 83.893513 Q 305.647648 77.570128 294.523627 70.372232 Q 291.432262 68.372477 288.83625 65.715309" style="fill:none;stroke-width:0.50;stroke:#8f94b1;"/>
		<path vector-effect="non-scaling-stroke" d="M 284.130403 76.594712 L 284.038671 76.420422" style="fill:none;stroke-width:0.50;stroke:#f4ccae;"/>
		<path vector-effect="non-scaling-stroke" d="M 289.992071 64.131405 Q 289.771915 64.278176 289.686298 64.174214" style="fill:none;stroke-width:0.50;stroke:#234d8c;"/>
		<path vector-effect="non-scaling-stroke" d="M 207.366095 94.708704 Q 207.228498 94.745397 207.213209 95.18571 Q 207.161227 97.005059 207.222382 99.062911 C 207.228498 99.191336 207.33246 99.295299 207.460885 99.295299 L 255.033046 99.295299 C 255.155355 99.295299 255.25626 99.194394 255.253203 99.069027 L 255.195106 94.717877" style="fill:none;stroke-width:0.50;stroke:#8f3b67;"/>
		<path vector-effect="non-scaling-stroke" d="M 206.772896 103.554716 Q 206.800415 103.686199 207.295768 104.759462 C 207.895083 106.058997 207.840044 107.340186 206.843224 108.447084 C 206.06656 109.306306 204.770083 109.15342 203.797725 108.95161 C 202.583806 108.697818 201.638967 107.416629 201.87747 106.175191 Q 202.186301 104.542363 202.87429 103.732065 C 203.027177 103.551659 202.822309 103.294809 202.611325 103.40183 Q 201.07023 104.199897 200.770572 105.774628 Q 200.250758 108.529643 202.611325 110.15024 C 202.675538 110.196106 202.748923 110.229741 202.825367 110.25726 Q 204.770083 110.893268 206.742318 110.089085 Q 207.751369 109.679349 208.274241 108.914917 Q 208.482167 108.609144 208.839921 107.514477 C 209.399486 105.808263 208.567783 104.059242 206.941071 103.414061 C 206.849339 103.377368 206.754549 103.456869 206.772896 103.554716" style="fill:none;stroke-width:0.50;stroke:#956945;"/>
		<path vector-effect="non-scaling-stroke" d="M 255.286838 103.588351 C 254.864871 103.640333 254.461251 103.673968 254.146304 104.025607 C 252.742806 105.609511 252.966021 106.912104 253.687645 108.795665 C 253.736569 108.921032 253.809954 109.037226 253.907801 109.128958 Q 256.534391 111.682162 259.766412 110.043219 C 259.858144 109.997353 259.94376 109.939256 260.023261 109.871986 C 262.019959 108.193293 262.359367 104.878713 259.778643 103.450754 C 259.534024 103.316213 259.255771 103.554716 259.350561 103.817681 Q 259.420888 104.00726 259.885663 105.00408 Q 260.579768 106.487079 259.668565 108.040406 Q 259.417831 108.465431 258.549435 108.890455 Q 257.045032 109.630426 255.742439 108.725338 C 254.348115 107.756037 254.44902 107.016067 254.568271 105.413816 C 254.62331 104.661615 254.864871 104.343611 255.381627 103.774873 C 255.451955 103.69843 255.387743 103.576121 255.286838 103.588351" style="fill:none;stroke-width:0.50;stroke:#956945;"/>
		<path vector-effect="non-scaling-stroke" d="M 256.167189 105.478487 C 255.693516 106.046766 255.806652 106.918219 256.415966 107.425007 C 257.026686 107.933386 257.904254 107.884462 258.37542 107.318323 C 258.849093 106.750044 258.735957 105.878591 258.126643 105.371803 C 257.515923 104.863425 256.638354 104.912348 256.167189 105.478487" style="fill:none;stroke-width:0.50;stroke:#956945;"/>
		<path vector-effect="non-scaling-stroke" d="M 203.256201 106.314746 C 203.213698 107.031355 203.834417 107.652074 204.644869 107.70164 C 205.455014 107.749922 206.149119 107.211761 206.192233 106.494296 C 206.234735 105.777686 205.614016 105.156967 204.803565 105.107401 C 203.993419 105.059119 203.299315 105.59728 203.256201 106.314746" style="fill:none;stroke-width:0.50;stroke:#956945;"/>
		<path d="M 259.781701 94.690358 Q 259.610468 94.647549 259.659391 95.194883 L 259.552371 98.995641 C 259.549313 99.127124 259.656334 99.237202 259.787816 99.24026 L 266.991827 99.350338 L 264.805551 104.716654 Q 263.882116 107.410514 264.316314 110.058508 Q 264.65878 112.168341 266.334416 115.048723 Q 268.214919 118.286859 270.51739 121.784902 C 270.661103 122.002001 270.697796 122.277196 270.615237 122.524872 Q 269.798824 124.99246 268.340286 128.166384 Q 264.747454 135.984999 259.304695 145.045053 Q 254.678349 152.747474 248.862547 162.0338 Q 245.627469 167.198306 241.817538 174.399259 Q 238.732288 180.236466 236.766168 186.25102 Q 235.26788 190.84373 235.686789 195.62602 L 205.00247 195.580154 L 204.433732 189.342385 Q 203.785494 184.349112 203.522529 180.99784 Q 202.461497 167.442924 202.088454 154.319147 Q 201.476908 132.826364 202.495132 112.431306 C 202.501247 112.305939 202.446208 112.186688 202.348361 112.110245 Q 201.804085 111.688278 200.834784 110.813767 C 200.024486 110.08297 199.38542 108.8293 199.195841 107.921155 Q 198.492563 104.563767 200.886766 102.294932 Q 201.189481 102.007505 202.265802 101.258361 C 202.345303 101.203322 202.412573 101.129937 202.461497 101.04432 Q 202.94156 100.230964 202.724461 99.380915 L 202.733635 94.913572 C 202.733635 94.840186 202.715288 94.769859 202.681653 94.705646 L 202.63273 94.607799 L 202.678596 94.540529 C 202.709173 94.497721 202.727519 94.442681 202.730577 94.387642 Q 202.80702 90.770348 203.054696 86.899262 Q 203.366585 81.970201 204.418444 77.291875 Q 205.592612 72.075388 208.029623 67.378715 C 211.402299 60.890212 216.771672 55.796034 223.712719 53.355965 Q 224.284515 53.157213 224.996966 53.007384 C 225.51678 52.900364 225.990728 52.671034 226.718468 52.539552 C 242.441315 49.68669 254.537694 61.639356 257.840042 75.998455 Q 258.962229 80.875534 259.154866 83.38593 Q 259.157924 83.444027 259.420888 86.899262 Q 259.567659 88.828689 259.601294 90.415651 Q 259.641045 92.458215 259.662449 94.308141 Q 259.662449 94.494663 259.781701 94.690358 Z M 207.366095 94.708704 Q 207.228498 94.745397 207.213209 95.18571 Q 207.161227 97.005059 207.222382 99.062911 C 207.228498 99.191336 207.33246 99.295299 207.460885 99.295299 L 255.033046 99.295299 C 255.155355 99.295299 255.25626 99.194394 255.253203 99.069027 L 255.195106 94.717877 Q 255.314357 93.424457 255.204279 92.124922 Q 255.017757 89.923357 255.008584 89.761297 Q 254.797601 85.003469 253.55922 79.15709 C 251.663428 70.197941 246.985101 61.40391 238.117685 57.749923 C 237.414407 57.459439 236.894593 57.401342 236.310566 57.162839 Q 235.839676 56.970202 234.940703 56.820373 Q 225.250757 55.212007 218.165997 61.856454 Q 213.848483 65.907946 211.524608 71.34459 Q 210.429941 73.90391 209.726663 76.423479 Q 208.949999 79.187667 208.332338 82.554228 Q 208.047969 84.089208 207.827813 86.434487 C 207.567906 89.213963 207.167343 91.709071 207.366095 94.708704 Z M 206.772896 103.554716 Q 206.800415 103.686199 207.295768 104.759462 C 207.895083 106.058997 207.840044 107.340186 206.843224 108.447084 C 206.06656 109.306306 204.770083 109.15342 203.797725 108.95161 C 202.583806 108.697818 201.638967 107.416629 201.87747 106.175191 Q 202.186301 104.542363 202.87429 103.732065 C 203.027177 103.551659 202.822309 103.294809 202.611325 103.40183 Q 201.07023 104.199897 200.770572 105.774628 Q 200.250758 108.529643 202.611325 110.15024 C 202.675538 110.196106 202.748923 110.229741 202.825367 110.25726 Q 204.770083 110.893268 206.742318 110.089085 Q 207.751369 109.679349 208.274241 108.914917 Q 208.482167 108.609144 208.839921 107.514477 C 209.399486 105.808263 208.567783 104.059242 206.941071 103.414061 C 206.849339 103.377368 206.754549 103.456869 206.772896 103.554716 Z M 255.286838 103.588351 C 254.864871 103.640333 254.461251 103.673968 254.146304 104.025607 C 252.742806 105.609511 252.966021 106.912104 253.687645 108.795665 C 253.736569 108.921032 253.809954 109.037226 253.907801 109.128958 Q 256.534391 111.682162 259.766412 110.043219 C 259.858144 109.997353 259.94376 109.939256 260.023261 109.871986 C 262.019959 108.193293 262.359367 104.878713 259.778643 103.450754 C 259.534024 103.316213 259.255771 103.554716 259.350561 103.817681 Q 259.420888 104.00726 259.885663 105.00408 Q 260.579768 106.487079 259.668565 108.040406 Q 259.417831 108.465431 258.549435 108.890455 Q 257.045032 109.630426 255.742439 108.725338 C 254.348115 107.756037 254.44902 107.016067 254.568271 105.413816 C 254.62331 104.661615 254.864871 104.343611 255.381627 103.774873 C 255.451955 103.69843 255.387743 103.576121 255.286838 103.588351 Z M 256.167189 105.478487 C 255.693516 106.046766 255.806652 106.918219 256.415966 107.425007 C 257.026686 107.933386 257.904254 107.884462 258.37542 107.318323 C 258.849093 106.750044 258.735957 105.878591 258.126643 105.371803 C 257.515923 104.863425 256.638354 104.912348 256.167189 105.478487 Z M 203.256201 106.314746 C 203.213698 107.031355 203.834417 107.652074 204.644869 107.70164 C 205.455014 107.749922 206.149119 107.211761 206.192233 106.494296 C 206.234735 105.777686 205.614016 105.156967 204.803565 105.107401 C 203.993419 105.059119 203.299315 105.59728 203.256201 106.314746 Z" style="fill:#2c356f;"/>
		<path d="M 321.086126 87.131649 L 319.863034 85.718978 L 320.092364 85.382628 Q 321.495862 84.122843 321.422477 82.520593 Q 322.355084 81.230231 322.777051 79.796155 C 322.801513 79.716654 322.76482 79.634096 322.691434 79.597403 Q 318.896792 77.66186 316.24574 76.252247 Q 314.108387 75.111713 309.784757 72.937667 Q 300.68801 68.363304 291.716631 63.327222 C 291.676881 63.302761 291.640188 63.272183 291.606553 63.238548 L 291.001122 62.556675 Q 291.30078 62.174458 291.851171 61.932898 Q 293.759195 61.088964 295.578544 60.563035 C 295.679449 60.535515 295.780354 60.514111 295.881259 60.504938 Q 296.75577 60.40709 298.403886 60.180818 Q 300.076464 59.951489 302.675535 60.465187 Q 310.766288 62.076611 317.609487 67.302271 Q 322.251121 70.849238 324.43434 75.781356 C 324.52913 75.989282 324.599458 76.209438 324.645324 76.43571 C 324.810441 77.200143 325.064233 78.105231 324.899115 78.982799 Q 324.715652 79.942926 324.101048 81.178249 Q 322.012618 85.394859 321.086126 87.131649 Z" style="fill:#e2218d;"/>
		<path d="M 321.422477 82.520593 L 313.61915 78.722892 Q 307.16734 75.178983 300.660491 71.332359 Q 297.480452 69.454913 296.670153 68.675192 Q 295.245251 67.302271 294.012986 65.75506 Q 292.459659 63.810344 289.992071 64.131405 L 289.918686 64.039674 Q 290.157189 63.831748 290.441558 63.712496 C 290.689234 63.608534 290.836005 63.351684 290.80237 63.082604 Q 290.77485 62.862448 291.001122 62.556675 L 291.606553 63.238548 C 291.640188 63.272183 291.676881 63.302761 291.716631 63.327222 Q 300.68801 68.363304 309.784757 72.937667 Q 314.108387 75.111713 316.24574 76.252247 Q 318.896792 77.66186 322.691434 79.597403 C 322.76482 79.634096 322.801513 79.716654 322.777051 79.796155 Q 322.355084 81.230231 321.422477 82.520593 Z" style="fill:#f2f2f3;"/>
		<path d="M 289.918686 64.039674 L 289.992071 64.131405 Q 289.771915 64.278176 289.686298 64.174214 L 289.918686 64.039674 Z" style="fill:#1a64a9;"/>
		<path d="M 313.61915 78.722892 Q 313.9555 79.860368 314.640432 80.670666 Q 315.45073 81.633851 315.961371 82.376879 C 316.068392 82.532824 316.196816 82.673479 316.343587 82.795788 Q 316.955133 83.297256 317.370985 83.893513 Q 305.647648 77.570128 294.523627 70.372232 Q 291.432262 68.372477 288.83625 65.715309 Q 288.726171 64.831626 289.686298 64.174214 Q 289.771915 64.278176 289.992071 64.131405 Q 292.459659 63.810344 294.012986 65.75506 Q 295.245251 67.302271 296.670153 68.675192 Q 297.480452 69.454913 300.660491 71.332359 Q 307.16734 75.178983 313.61915 78.722892 Z" style="fill:#2c356f;"/>
		<path d="M 317.370985 83.893513 L 320.092364 85.382628 L 319.863034 85.718978 Q 319.220911 86.987936 318.499287 88.195739 Q 318.217976 88.660514 318.058974 88.339453 L 310.821327 84.428616 Q 302.158779 78.805451 293.352517 73.454424 Q 288.747575 70.656601 287.172845 69.757628 Q 286.732531 69.503837 285.793808 69.155256 L 287.249288 69.100216 Q 287.374655 68.907579 287.285981 68.74552 Q 288.457091 67.534659 288.83625 65.715309 Q 291.432262 68.372477 294.523627 70.372232 Q 305.647648 77.570128 317.370985 83.893513 Z" style="fill:#f2f2f3;"/>
		<path d="M 287.285981 68.74552 Q 287.374655 68.907579 287.249288 69.100216 L 287.285981 68.74552 Z" style="fill:#2c356f;"/>
		<path d="M 285.793808 69.155256 Q 286.732531 69.503837 287.172845 69.757628 Q 288.747575 70.656601 293.352517 73.454424 Q 302.158779 78.805451 310.821327 84.428616 Q 310.735711 85.049335 311.237178 85.452956 Q 312.05665 86.113425 312.365481 86.581258 C 312.417462 86.657701 312.481675 86.724971 312.558118 86.783068 Q 314.288793 88.042853 315.900216 89.654276 Q 315.995006 89.746008 316.453666 89.960049 Q 316.499532 90.048724 316.322183 90.143513 Q 311.763108 87.501635 307.207091 85.027931 Q 304.173822 83.382873 301.152785 81.722525 Q 294.593955 78.117462 288.071817 74.445128 Q 286.808975 73.732677 285.243417 72.240505 L 285.056895 72.102907 C 285.020203 72.075388 284.971279 72.081503 284.940702 72.115138 Q 284.815335 72.252736 285.111935 72.479008 C 285.148627 72.506527 285.136396 72.567682 285.09053 72.579913 Q 285.05078 72.589086 284.992683 72.555451 C 284.980452 72.546278 284.968221 72.534047 284.965164 72.518758 L 284.833681 71.934732 C 284.809219 71.830769 284.75418 71.73598 284.677737 71.665652 Q 283.766533 70.833949 284.298578 69.720936 C 284.341387 69.626146 284.408657 69.546645 284.491215 69.48549 Q 285.075242 69.05435 285.793808 69.155256 Z" style="fill:#2c356f;"/>
		<path d="M 316.322183 90.143513 Q 317.887741 90.651096 316.28549 92.39706 L 310.56142 89.935588 Q 310.22507 89.758239 309.83368 89.504448 Q 309.399483 89.223137 309.096768 89.082481 Q 305.247086 87.244785 302.244395 85.627246 C 297.137986 82.878347 294.373798 81.505426 288.022893 78.077711 Q 286.090408 77.035025 284.766411 76.16663 C 284.726661 76.142168 284.680795 76.12688 284.631871 76.129937 Q 284.589063 76.132995 284.55237 76.129937 L 284.503446 76.050436 C 284.469811 75.995397 284.451465 75.934243 284.451465 75.87003 Q 284.451465 74.619419 284.451465 73.313768 C 284.451465 73.252614 284.466754 73.20369 284.4851 73.200632 Q 284.503446 73.197574 284.521793 73.179228 C 284.540139 73.160882 284.564601 73.188401 284.555428 73.215921 Q 284.497331 73.4055 284.482042 73.497232 C 284.482042 73.503347 284.488158 73.518636 284.500389 73.536982 Q 284.503446 73.54004 284.503446 73.546156 C 284.509562 73.552271 284.518735 73.552271 284.521793 73.543098 L 284.741949 72.699164 C 284.760296 72.634952 284.830623 72.604375 284.88872 72.634952 Q 285.017145 72.708338 285.170031 72.683876 C 285.273994 72.668587 285.341264 72.564624 285.310687 72.463719 L 285.243417 72.240505 Q 286.808975 73.732677 288.071817 74.445128 Q 294.593955 78.117462 301.152785 81.722525 Q 304.173822 83.382873 307.207091 85.027931 Q 311.763108 87.501635 316.322183 90.143513 Z" style="fill:#f2f2f3;"/>
		<path d="M 284.246597 74.331992 Q 284.234366 74.013988 284.292463 73.613426 Q 284.307752 73.503347 284.271059 73.436077 Q 284.225193 73.347403 284.231308 73.332115 C 284.246597 73.304595 284.289405 73.307653 284.295521 73.33823 Q 284.509562 74.24026 284.387253 74.380916 C 284.341387 74.435955 284.249655 74.405378 284.246597 74.331992 Z" style="fill:#2c356f;"/>
		<path d="M 310.56142 89.935588 L 310.503323 92.03319 C 310.500266 92.106576 310.518612 92.183019 310.552247 92.250289 Q 310.839674 92.822085 310.509439 92.748699 Q 307.892022 91.424702 305.286836 90.183264 Q 296.560075 86.027809 287.833314 81.872354 Q 284.989625 80.520837 282.314112 79.838964 Q 281.613892 79.661615 280.372453 78.618929 Q 279.439846 77.738303 280.085027 76.588597 C 280.13395 76.50298 280.213451 76.438768 280.308241 76.411248 Q 280.876979 76.236958 281.268368 76.337863 L 283.087717 77.664918 C 283.19168 77.738303 283.338451 77.713841 283.411837 77.609879 L 284.130403 76.594712 L 284.246597 76.334805 L 284.55237 76.129937 Q 284.589063 76.132995 284.631871 76.129937 C 284.680795 76.12688 284.726661 76.142168 284.766411 76.16663 Q 286.090408 77.035025 288.022893 78.077711 C 294.373798 81.505426 297.137986 82.878347 302.244395 85.627246 Q 305.247086 87.244785 309.096768 89.082481 Q 309.399483 89.223137 309.83368 89.504448 Q 310.22507 89.758239 310.56142 89.935588 Z" style="fill:#2c356f;"/>
		<path d="M 284.246597 76.334805 L 284.130403 76.594712 L 284.038671 76.420422 Q 284.264943 76.154399 284.246597 76.334805 Z" style="fill:#f6a568;"/>
		<path d="M 284.038671 76.420422 L 284.130403 76.594712 L 283.411837 77.609879 C 283.338451 77.713841 283.19168 77.738303 283.087717 77.664918 L 281.268368 76.337863 Q 282.097013 76.420422 282.76054 77.126757 C 282.977639 77.359145 283.365971 77.282702 283.476049 76.986102 Q 283.595301 76.671156 284.038671 76.420422 Z" style="fill:#f2f2f3;"/>
		<path d="M 310.509439 92.748699 L 315.007359 94.864648 L 312.964796 98.51252 L 310.286224 97.408679 Q 296.691558 90.745886 283.466876 83.343122 C 282.736079 82.933386 281.962473 82.38911 281.204156 81.921278 C 281.124655 81.869296 281.078789 81.780622 281.087962 81.685832 L 281.268368 79.842021 C 281.280599 79.731943 281.243906 79.624923 281.170521 79.542364 L 280.595668 78.909414 L 280.372453 78.618929 Q 281.613892 79.661615 282.314112 79.838964 Q 284.989625 80.520837 287.833314 81.872354 Q 296.560075 86.027809 305.286836 90.183264 Q 307.892022 91.424702 310.509439 92.748699 Z" style="fill:#f2f2f3;"/>
		<path d="M 321.422477 82.520593 Q 321.495862 84.122843 320.092364 85.382628 L 317.370985 83.893513 Q 316.955133 83.297256 316.343587 82.795788 C 316.196816 82.673479 316.068392 82.532824 315.961371 82.376879 Q 315.45073 81.633851 314.640432 80.670666 Q 313.9555 79.860368 313.61915 78.722892 L 321.422477 82.520593 Z" style="fill:#f2415e;"/>
		<path d="M 310.286224 97.408679 Q 309.784757 99.21274 309.8612 101.065724 Q 302.865114 97.24662 300.1896 95.888988 Q 291.988769 91.727417 290.866582 91.17091 Q 287.552003 89.531967 284.206847 87.948063 Q 283.029621 87.388499 280.36328 86.351928 Q 278.400218 85.587496 276.553349 84.676292 Q 276.235345 83.939379 276.421866 83.294198 C 276.449386 83.199409 276.510541 83.11685 276.593099 83.061811 Q 276.975315 82.798846 277.464552 82.707114 Q 277.886519 83.00983 278.452199 83.031234 C 278.50418 83.034291 278.556162 83.046522 278.605085 83.074042 L 279.507116 83.596914 C 279.601905 83.651953 279.711984 83.667241 279.819004 83.639722 Q 280.292952 83.52047 280.158412 82.960906 L 280.745496 82.000779 C 280.785247 81.933509 280.803593 81.854008 280.800536 81.774507 L 280.595668 78.909414 L 281.170521 79.542364 C 281.243906 79.624923 281.280599 79.731943 281.268368 79.842021 L 281.087962 81.685832 C 281.078789 81.780622 281.124655 81.869296 281.204156 81.921278 C 281.962473 82.38911 282.736079 82.933386 283.466876 83.343122 Q 296.691558 90.745886 310.286224 97.408679 Z" style="fill:#2c356f;"/>
		<path d="M 280.158412 82.960906 Q 280.292952 83.52047 279.819004 83.639722 C 279.711984 83.667241 279.601905 83.651953 279.507116 83.596914 L 278.605085 83.074042 C 278.556162 83.046522 278.50418 83.034291 278.452199 83.031234 Q 277.886519 83.00983 277.464552 82.707114 Q 278.326832 82.817193 279.559097 83.416508 Q 279.910736 83.58774 280.158412 82.960906 Z" style="fill:#f6a568;"/>
		<path d="M 318.058974 88.339453 Q 318.043685 88.736958 317.912203 88.947941 C 317.679815 89.320984 317.575852 89.629815 317.419908 90.045666 C 317.386273 90.13434 317.300657 90.189379 317.208925 90.186321 Q 316.854228 90.177148 316.453666 89.960049 Q 315.995006 89.746008 315.900216 89.654276 Q 314.288793 88.042853 312.558118 86.783068 C 312.481675 86.724971 312.417462 86.657701 312.365481 86.581258 Q 312.05665 86.113425 311.237178 85.452956 Q 310.735711 85.049335 310.821327 84.428616 L 318.058974 88.339453 Z" style="fill:#fd9d1b;"/>
		<path d="M 309.8612 101.065724 Q 310.249532 101.469345 311.163793 101.683386 L 308.879669 105.918342 L 306.934953 105.218121 Q 304.785368 103.83297 302.54711 102.579301 C 296.168686 99.007872 289.059464 94.840186 285.949753 93.002491 Q 282.58625 91.014966 279.106553 88.755304 Q 278.501123 88.360857 277.782556 88.119296 C 277.5624 88.048968 277.326954 88.045911 277.106798 88.116238 L 275.660492 88.581013 Q 276.10692 88.079546 276.544176 87.850216 Q 277.051759 86.611835 276.70012 84.966777 L 276.553349 84.676292 Q 278.400218 85.587496 280.36328 86.351928 Q 283.029621 87.388499 284.206847 87.948063 Q 287.552003 89.531967 290.866582 91.17091 Q 291.988769 91.727417 300.1896 95.888988 Q 302.865114 97.24662 309.8612 101.065724 Z" style="fill:#f2f2f3;"/>
		<path d="M 276.70012 84.966777 Q 277.051759 86.611835 276.544176 87.850216 Q 276.544176 86.71274 276.574753 85.621131 C 276.574753 85.605842 276.56558 85.590554 276.556406 85.58138 C 276.544176 85.572207 276.535002 85.578323 276.531945 85.590554 Q 276.528887 85.618073 276.516656 85.627246 C 276.49831 85.636419 276.476905 85.627246 276.476905 85.6089 L 276.486079 84.798601 C 276.486079 84.777197 276.504425 84.758851 276.525829 84.755793 C 276.547233 84.755793 276.568637 84.771082 276.571695 84.792486 Q 276.645081 85.147183 276.651196 85.17776 C 276.651196 85.131894 276.678716 85.049335 276.70012 84.966777 Z" style="fill:#2c356f;"/>
		<path d="M 319.863034 85.718978 L 321.086126 87.131649 Q 318.328054 92.647794 312.472501 103.490504 Q 309.13346 109.670176 307.818636 111.975704 L 306.53439 110.138009 Q 307.063377 109.569271 307.286591 108.850704 Q 308.745129 107.728518 308.879669 105.918342 L 311.163793 101.683386 Q 311.698896 101.454056 312.099458 100.600949 Q 312.802736 99.105719 312.964796 98.51252 L 315.007359 94.864648 Q 316.517878 93.996253 316.28549 92.39706 Q 317.887741 90.651096 316.322183 90.143513 Q 316.499532 90.048724 316.453666 89.960049 Q 316.854228 90.177148 317.208925 90.186321 C 317.300657 90.189379 317.386273 90.13434 317.419908 90.045666 C 317.575852 89.629815 317.679815 89.320984 317.912203 88.947941 Q 318.043685 88.736958 318.058974 88.339453 Q 318.217976 88.660514 318.499287 88.195739 Q 319.220911 86.987936 319.863034 85.718978 Z" style="fill:#f2415e;"/>
		<path d="M 306.934953 105.218121 Q 305.849458 106.254692 305.748553 108.193293 C 304.063744 107.080279 301.895814 106.010073 300.565701 105.270103 Q 294.422722 101.86685 288.267512 98.481943 Q 281.467121 94.745397 275.131504 90.461517 Q 275.079523 88.80117 275.660492 88.581013 L 277.106798 88.116238 C 277.326954 88.045911 277.5624 88.048968 277.782556 88.119296 Q 278.501123 88.360857 279.106553 88.755304 Q 282.58625 91.014966 285.949753 93.002491 C 289.059464 94.840186 296.168686 99.007872 302.54711 102.579301 Q 304.785368 103.83297 306.934953 105.218121 Z" style="fill:#2c356f;"/>
		<path d="M 316.28549 92.39706 Q 316.517878 93.996253 315.007359 94.864648 L 310.509439 92.748699 Q 310.839674 92.822085 310.552247 92.250289 C 310.518612 92.183019 310.500266 92.106576 310.503323 92.03319 L 310.56142 89.935588 L 316.28549 92.39706 Z" style="fill:#fd9d1b;"/>
		<path d="M 305.748553 108.193293 L 307.286591 108.850704 Q 307.063377 109.569271 306.53439 110.138009 L 304.060686 114.28429 Q 303.972012 113.874555 303.748798 113.724726 Q 294.847746 107.921155 286.221891 101.723136 Q 282.9226 99.353396 279.620252 97.093733 Q 276.302615 94.824898 272.997209 92.485734 Q 274.079645 92.011786 274.715653 91.342143 Q 275.119273 90.917119 275.131504 90.461517 Q 281.467121 94.745397 288.267512 98.481943 Q 294.422722 101.86685 300.565701 105.270103 C 301.895814 106.010073 304.063744 107.080279 305.748553 108.193293 Z" style="fill:#f2f2f3;"/>
		<path d="M 272.997209 92.485734 Q 276.302615 94.824898 279.620252 97.093733 Q 282.9226 99.353396 286.221891 101.723136 Q 294.847746 107.921155 303.748798 113.724726 Q 303.972012 113.874555 304.060686 114.28429 Q 302.745863 116.247353 301.61756 118.314378 Q 301.434097 118.650729 301.363769 119.011541 Q 301.122208 119.170543 300.828666 119.026829 Q 285.4544 111.446717 270.119885 103.716776 Q 271.587595 102.518146 271.960639 100.518391 Q 274.944983 101.992216 277.920154 103.484389 Q 280.922845 104.988792 285.0783 105.881649 Q 286.093466 106.101805 287.117805 105.875533 C 287.466387 105.79909 287.662081 105.426047 287.527541 105.095812 Q 287.51531 105.065235 287.237057 104.924579 Q 280.913672 101.759829 274.938867 98.047745 Q 273.624044 97.231331 271.657923 95.592388 Q 270.88126 94.944149 270.905722 93.846424 Q 271.557018 92.681429 272.997209 92.485734 Z" style="fill:#2c356f;"/>
		<path d="M 271.960639 100.518391 Q 271.061666 99.815113 269.957825 99.546033 C 269.814112 99.50934 269.661226 99.546033 269.54809 99.640822 C 268.532923 100.500044 267.465776 102.129814 269.043564 103.099115 Q 269.545032 103.404888 270.119885 103.716776 Q 285.4544 111.446717 300.828666 119.026829 Q 301.122208 119.170543 301.363769 119.011541 Q 301.431039 119.112446 301.427981 119.231697 C 301.424923 119.262275 301.418808 119.289794 301.403519 119.314256 L 300.088695 121.365993 C 299.975559 121.540283 299.752345 121.604496 299.565824 121.515822 Q 297.529376 120.543463 295.398138 119.4702 Q 283.790995 113.623821 266.866461 105.037715 Q 265.946084 104.57294 264.805551 104.716654 L 266.991827 99.350338 Q 268.135418 97.243562 269.248432 95.580157 Q 269.514455 95.182652 269.205624 94.886052 L 269.257605 94.595568 Q 270.447062 94.583337 270.905722 93.846424 Q 270.88126 94.944149 271.657923 95.592388 Q 273.624044 97.231331 274.938867 98.047745 Q 280.913672 101.759829 287.237057 104.924579 Q 287.51531 105.065235 287.527541 105.095812 C 287.662081 105.426047 287.466387 105.79909 287.117805 105.875533 Q 286.093466 106.101805 285.0783 105.881649 Q 280.922845 104.988792 277.920154 103.484389 Q 274.944983 101.992216 271.960639 100.518391 Z" style="fill:#f2f2f3;"/>
		<path d="M 269.257605 94.595568 L 269.205624 94.886052 Q 264.747454 94.953322 262.701833 94.846302 Q 261.020081 94.760685 259.659391 95.194883 Q 259.610468 94.647549 259.781701 94.690358 L 269.257605 94.595568 Z" style="fill:#f6a568;"/>
		<path d="M 202.63273 94.607799 L 202.681653 94.705646 C 202.715288 94.769859 202.733635 94.840186 202.733635 94.913572 L 202.724461 99.380915 L 175.183489 99.065969 Q 175.366952 98.457481 175.495377 97.882628 Q 175.672725 97.090675 175.865362 96.729863 Q 176.66343 95.234633 178.287084 94.980842 Q 179.898508 94.72705 182.515925 94.760685 C 189.169545 94.846302 194.92725 94.681184 201.776565 94.879937 Q 202.259687 94.895225 202.63273 94.607799 Z" style="fill:#f6a568;"/>
		<path d="M 269.205624 94.886052 Q 269.514455 95.182652 269.248432 95.580157 Q 268.135418 97.243562 266.991827 99.350338 L 259.787816 99.24026 C 259.656334 99.237202 259.549313 99.127124 259.552371 98.995641 L 259.659391 95.194883 Q 261.020081 94.760685 262.701833 94.846302 Q 264.747454 94.953322 269.205624 94.886052 Z" style="fill:#f2415e;"/>
		<path d="M 312.964796 98.51252 Q 312.802736 99.105719 312.099458 100.600949 Q 311.698896 101.454056 311.163793 101.683386 Q 310.249532 101.469345 309.8612 101.065724 Q 309.784757 99.21274 310.286224 97.408679 L 312.964796 98.51252 Z" style="fill:#fd9d1b;"/>
		<path d="M 202.724461 99.380915 Q 202.94156 100.230964 202.461497 101.04432 C 202.412573 101.129937 202.345303 101.203322 202.265802 101.258361 Q 201.189481 102.007505 200.886766 102.294932 Q 198.492563 104.563767 199.195841 107.921155 C 199.38542 108.8293 200.024486 110.08297 200.834784 110.813767 Q 201.804085 111.688278 202.348361 112.110245 C 202.446208 112.186688 202.501247 112.305939 202.495132 112.431306 Q 201.476908 132.826364 202.088454 154.319147 Q 202.461497 167.442924 203.522529 180.99784 Q 203.785494 184.349112 204.433732 189.342385 Q 204.118786 189.990624 202.96908 188.902072 Q 199.54748 185.663936 199.510787 185.627243 Q 192.551394 178.76264 188.105455 170.283555 Q 184.047848 162.544441 181.467124 154.297743 Q 181.231678 153.554715 181.133831 152.878957 C 181.112427 152.741359 180.950367 152.683262 180.843347 152.771936 Q 180.607901 152.970689 180.262378 153.441579 Q 176.978376 157.905865 174.055186 163.513741 Q 173.825857 163.950996 171.807755 168.271569 Q 168.260788 175.86697 165.799316 183.94855 Q 165.404869 180.294562 165.530236 178.704543 Q 165.670891 176.967752 165.713699 175.396079 C 165.777912 173.151706 166.120377 170.85535 166.273264 168.705766 Q 166.392515 167.060708 166.612672 165.479861 Q 166.878694 163.574896 166.890925 163.330277 C 167.001004 161.486466 167.407682 159.688521 167.523875 157.970077 Q 167.627838 156.407577 167.841879 155.303736 C 168.077325 154.095933 168.120133 152.762763 168.269961 151.750654 Q 168.701101 148.796887 168.740852 148.185341 C 168.835642 146.662592 169.193396 145.197939 169.337109 143.699652 C 169.48388 142.146325 169.75296 140.541017 169.994521 138.571839 Q 170.728376 132.612323 171.092246 130.459681 C 171.20844 129.765577 171.174805 129.160146 171.272652 128.533312 Q 171.645695 126.157455 172.11047 122.170176 C 172.214433 121.255915 172.43459 120.23769 172.455994 119.072695 C 172.455994 119.057407 172.455994 119.03906 172.459051 119.023772 L 175.183489 99.065969 L 202.724461 99.380915 Z" style="fill:#18c3e5;"/>
		<path d="M 271.960639 100.518391 Q 271.587595 102.518146 270.119885 103.716776 Q 269.545032 103.404888 269.043564 103.099115 C 267.465776 102.129814 268.532923 100.500044 269.54809 99.640822 C 269.661226 99.546033 269.814112 99.50934 269.957825 99.546033 Q 271.061666 99.815113 271.960639 100.518391 Z" style="fill:#f2415e;"/>
		<path d="M 301.363769 119.011541 Q 301.434097 118.650729 301.61756 118.314378 Q 302.745863 116.247353 304.060686 114.28429 L 306.53439 110.138009 L 307.818636 111.975704 Q 305.956479 115.455401 303.984243 118.910636 Q 302.125143 122.170176 300.605452 123.897793 Q 299.122453 125.579545 297.251122 126.255303 Q 296.35215 126.58248 295.022037 126.979985 Q 294.908901 127.01362 289.995129 128.236712 Q 289.863647 128.267289 289.554816 128.557773 Q 289.163427 128.371252 288.787326 128.438522 Q 287.029131 128.756526 284.353618 129.64021 C 281.892145 130.450508 280.641534 132.382993 279.238036 134.694637 Q 278.482776 135.939133 276.165017 140.054838 C 273.966509 143.965674 272.455991 147.527929 270.278887 152.108409 Q 269.147527 154.484265 266.010296 162.269245 C 264.924802 164.963105 264.035003 166.874186 262.753814 169.895223 Q 261.448163 172.971299 258.463819 179.141798 Q 257.051148 182.064988 255.702689 184.505056 Q 253.146427 189.128344 252.72446 189.749063 Q 250.764455 192.614156 248.749411 195.616847 Q 247.596647 196.849112 246.196207 198.053857 C 244.97923 199.099601 243.502347 199.909899 241.936789 200.078075 Q 238.842366 200.408309 236.958805 197.82147 C 236.53378 197.234386 236.15768 196.35376 235.686789 195.62602 Q 235.26788 190.84373 236.766168 186.25102 Q 238.732288 180.236466 241.817538 174.399259 Q 245.627469 167.198306 248.862547 162.0338 Q 254.678349 152.747474 259.304695 145.045053 Q 264.747454 135.984999 268.340286 128.166384 Q 269.798824 124.99246 270.615237 122.524872 C 270.697796 122.277196 270.661103 122.002001 270.51739 121.784902 Q 268.214919 118.286859 266.334416 115.048723 Q 264.65878 112.168341 264.316314 110.058508 Q 263.882116 107.410514 264.805551 104.716654 Q 265.946084 104.57294 266.866461 105.037715 Q 283.790995 113.623821 295.398138 119.4702 Q 297.529376 120.543463 299.565824 121.515822 C 299.752345 121.604496 299.975559 121.540283 300.088695 121.365993 L 301.403519 119.314256 C 301.418808 119.289794 301.424923 119.262275 301.427981 119.231697 Q 301.431039 119.112446 301.363769 119.011541 Z" style="fill:#fd9d1b;"/>
		<path d="M 308.879669 105.918342 Q 308.745129 107.728518 307.286591 108.850704 L 305.748553 108.193293 Q 305.849458 106.254692 306.934953 105.218121 L 308.879669 105.918342 Z" style="fill:#fd9d1b;"/>
		<path d="M 289.554816 128.557773 L 292.844933 151.744539 C 292.847991 151.759828 292.847991 151.775116 292.847991 151.790405 C 292.869395 153.756525 293.511519 155.884705 293.529865 157.688766 C 293.545154 159.202342 294.095545 161.018634 294.113891 162.495517 Q 294.123064 163.351681 294.471646 165.810096 Q 294.716264 167.52854 294.759072 169.127733 C 294.814111 171.158066 295.312521 173.861099 295.333925 176.090184 Q 295.382849 180.951974 295.254425 182.826363 Q 295.190212 183.75897 294.569493 186.192923 Q 294.043563 188.24466 293.321939 189.388251 Q 291.585149 192.143266 289.120618 193.49784 Q 288.035124 194.094097 285.879425 194.623085 Q 284.319983 195.005301 282.460883 195.008359 C 280.883094 195.011416 279.075976 195.274381 277.516534 195.280496 C 272.911592 195.298843 268.300536 195.564865 263.879059 195.592385 Q 256.421255 195.641309 248.749411 195.616847 Q 250.764455 192.614156 252.72446 189.749063 Q 253.146427 189.128344 255.702689 184.505056 Q 257.051148 182.064988 258.463819 179.141798 Q 261.448163 172.971299 262.753814 169.895223 C 264.035003 166.874186 264.924802 164.963105 266.010296 162.269245 Q 269.147527 154.484265 270.278887 152.108409 C 272.455991 147.527929 273.966509 143.965674 276.165017 140.054838 Q 278.482776 135.939133 279.238036 134.694637 C 280.641534 132.382993 281.892145 130.450508 284.353618 129.64021 Q 287.029131 128.756526 288.787326 128.438522 Q 289.163427 128.371252 289.554816 128.557773 Z" style="fill:#f2415e;"/>
		<path d="M 204.433732 189.342385 L 205.00247 195.580154 C 200.587108 195.610731 196.144227 195.638251 191.756384 195.418094 Q 189.031947 195.280496 186.383953 195.280496 C 184.026443 195.283554 181.733146 195.06034 178.861938 194.990012 C 177.238283 194.950262 175.96321 194.665893 173.945108 194.311196 Q 173.596527 194.250042 171.884198 193.445859 C 167.918323 191.583701 166.54846 187.960291 165.799316 183.94855 Q 168.260788 175.86697 171.807755 168.271569 Q 173.825857 163.950996 174.055186 163.513741 Q 176.978376 157.905865 180.262378 153.441579 Q 180.607901 152.970689 180.843347 152.771936 C 180.950367 152.683262 181.112427 152.741359 181.133831 152.878957 Q 181.231678 153.554715 181.467124 154.297743 Q 184.047848 162.544441 188.105455 170.283555 Q 192.551394 178.76264 199.510787 185.627243 Q 199.54748 185.663936 202.96908 188.902072 Q 204.118786 189.990624 204.433732 189.342385 Z" style="fill:#1a64a9;"/>
		<path d="M 255.195106 94.717877 L 255.253203 99.069027 C 255.25626 99.194394 255.155355 99.295299 255.033046 99.295299 L 207.460885 99.295299 C 207.33246 99.295299 207.228498 99.191336 207.222382 99.062911 Q 207.161227 97.005059 207.213209 95.18571 Q 207.228498 94.745397 207.366095 94.708704 L 255.195106 94.717877 Z" style="fill:#f2415e;"/>
		<path d="M 206.941071 103.414061 C 208.567783 104.059242 209.399486 105.808263 208.839921 107.514477 Q 208.482167 108.609144 208.274241 108.914917 Q 207.751369 109.679349 206.742318 110.089085 Q 204.770083 110.893268 202.825367 110.25726 C 202.748923 110.229741 202.675538 110.196106 202.611325 110.15024 Q 200.250758 108.529643 200.770572 105.774628 Q 201.07023 104.199897 202.611325 103.40183 C 202.822309 103.294809 203.027177 103.551659 202.87429 103.732065 Q 202.186301 104.542363 201.87747 106.175191 C 201.638967 107.416629 202.583806 108.697818 203.797725 108.95161 C 204.770083 109.15342 206.06656 109.306306 206.843224 108.447084 C 207.840044 107.340186 207.895083 106.058997 207.295768 104.759462 Q 206.800415 103.686199 206.772896 103.554716 C 206.754549 103.456869 206.849339 103.377368 206.941071 103.414061 Z" style="fill:#fd9d1b;"/>
		<path d="M 255.286838 103.588351 C 255.387743 103.576121 255.451955 103.69843 255.381627 103.774873 C 254.864871 104.343611 254.62331 104.661615 254.568271 105.413816 C 254.44902 107.016067 254.348115 107.756037 255.742439 108.725338 Q 257.045032 109.630426 258.549435 108.890455 Q 259.417831 108.465431 259.668565 108.040406 Q 260.579768 106.487079 259.885663 105.00408 Q 259.420888 104.00726 259.350561 103.817681 C 259.255771 103.554716 259.534024 103.316213 259.778643 103.450754 C 262.359367 104.878713 262.019959 108.193293 260.023261 109.871986 C 259.94376 109.939256 259.858144 109.997353 259.766412 110.043219 Q 256.534391 111.682162 253.907801 109.128958 C 253.809954 109.037226 253.736569 108.921032 253.687645 108.795665 C 252.966021 106.912104 252.742806 105.609511 254.146304 104.025607 C 254.461251 103.673968 254.864871 103.640333 255.286838 103.588351 Z" style="fill:#fd9d1b;"/>
		<path d="M 256.167189 105.478487 C 256.638354 104.912348 257.515923 104.863425 258.126643 105.371803 C 258.735957 105.878591 258.849093 106.750044 258.37542 107.318323 C 257.904254 107.884462 257.026686 107.933386 256.415966 107.425007 C 255.806652 106.918219 255.693516 106.046766 256.167189 105.478487 Z" style="fill:#fd9d1b;"/>
		<path d="M 203.256201 106.314746 C 203.299315 105.59728 203.993419 105.059119 204.803565 105.107401 C 205.614016 105.156967 206.234735 105.777686 206.192233 106.494296 C 206.149119 107.211761 205.455014 107.749922 204.644869 107.70164 C 203.834417 107.652074 203.213698 107.031355 203.256201 106.314746 Z" style="fill:#fd9d1b;"/>
	</g>
	<g id="surface4">
	</g>
</svg>
