<?xml version="1.0" encoding="utf-8"?>
<svg xmlns="http://www.w3.org/2000/svg" width="490pt" height="280pt" viewBox="0 0 490 280" version="1.1" xmlns:xlink="http://www.w3.org/1999/xlink">
	<g id="surface2" data-size="138.55916186886 148" data-bboxpos="175.5 50.859962898011" data-pivot="244.77958093443 124.85996289801" data-center="244.77958093443 124.85996289801">
		<path stroke-linecap="butt" vector-effect="non-scaling-stroke" d="M 189.172184 175.575923 L 188.810116 175.583212" style="fill:none;stroke-width:0.50;stroke:#4a923a;"/>
		<path d="M 245.047177 50.949464 Q 245.246436 51.156012 245.418964 51.50593 Q 246.254878 53.182617 247.151541 54.766965 Q 252.53395 64.256042 255.751245 69.276384 Q 260.589338 76.826336 263.830934 82.390994 Q 267.850123 89.292141 270.212065 95.014748 C 272.678496 100.987642 274.420793 107.237554 274.85819 113.599246 Q 275.025858 116.012217 275.040438 116.388864 Q 275.093898 117.710774 274.904359 120.816291 Q 274.74884 123.358051 274.398923 125.212127 Q 273.51684 129.911711 272.090441 133.510514 Q 268.788096 141.85021 262.805482 148.45976 Q 261.138514 150.301685 258.813022 152.481379 Q 253.556972 157.404521 246.770034 162.067656 Q 242.619626 164.920454 240.522552 166.196194 Q 240.235814 166.368723 239.674488 166.633591 C 239.365881 166.77696 239.001383 166.75023 238.717075 166.560691 C 238.286969 166.276384 237.594424 165.756368 237.186187 165.38215 Q 232.561932 161.117533 226.827176 155.239408 Q 221.763095 150.051397 219.369563 146.540074 Q 212.784313 136.883328 211.272865 125.255867 Q 211.175666 124.500142 211.141646 123.797878 C 211.114916 123.253562 210.956967 122.563447 210.952107 121.863613 Q 210.932668 118.733796 210.947247 116.571113 Q 210.954537 115.501921 211.068747 114.872556 C 211.202396 114.145992 211.151366 113.441297 211.260715 112.605383 Q 211.496423 110.799907 211.792881 109.028451 Q 212.465986 105.021411 214.101363 100.231918 Q 215.84123 95.141107 218.596829 90.023566 C 222.35115 83.042229 227.514861 75.987993 232.197435 69.619011 C 236.386723 63.923135 240.865179 57.466674 244.585481 51.005354 C 244.68268 50.837685 244.913528 50.808525 245.047177 50.949464 Z" style="fill:#9ecf44;"/>
		<path d="M 298.929586 130.310228 C 299.150714 130.315088 299.320813 130.511917 299.289223 130.733045 C 299.182304 131.488769 299.162864 132.174024 299.034075 132.827689 Q 298.3877 136.132464 297.661135 138.248978 Q 295.192274 145.429573 290.46839 151.815564 Q 287.241375 156.177381 283.460324 159.331497 Q 280.967163 161.409131 277.730428 162.81366 Q 273.232532 164.764935 268.336119 165.253361 Q 266.499053 165.43561 263.257458 165.321401 Q 261.920968 165.275231 260.475129 164.966624 Q 258.278426 164.497637 257.73654 164.286229 Q 255.19964 163.306946 254.874022 163.141707 Q 253.187615 162.296074 252.5218 161.720168 C 251.953184 161.226882 252.49264 160.616957 252.913027 160.286479 Q 255.921344 157.926967 261.303753 152.850736 Q 266.030067 148.39172 269.325122 143.439418 Q 271.072278 140.812608 273.900777 135.403469 C 273.932367 135.34029 273.973676 135.28197 274.019846 135.226081 Q 275.047728 133.99408 276.602916 133.396305 C 278.252874 132.759649 279.856661 132.392722 281.766627 132.157014 Q 286.58042 131.559239 289.848745 131.299231 Q 293.948124 130.976043 296.737743 130.643136 Q 297.663565 130.531356 297.836094 130.497337 Q 298.757057 130.307798 298.929586 130.310228 Z" style="fill:#87c047;"/>
		<path d="M 189.886598 130.375838 Q 191.828153 130.577526 192.508548 130.682015 C 193.378482 130.815664 194.027287 130.747625 194.809741 130.878844 Q 195.227697 130.949313 195.725844 130.997913 Q 200.887124 131.491199 206.315703 132.249353 Q 207.909771 132.472912 209.32645 133.017227 Q 210.077314 133.306395 210.412652 133.661173 C 211.117346 134.404747 211.513433 135.33786 211.91438 136.304992 C 212.859643 138.598895 213.889955 141.284024 215.202145 143.570637 Q 218.49234 149.302963 223.053415 154.034137 Q 226.39707 157.504151 228.520873 159.732444 Q 231.057774 162.398133 233.757483 165.659168 Q 237.417035 170.081734 240.328153 174.110644 C 240.507972 174.360932 240.347593 174.713279 240.038985 174.740009 C 239.358591 174.798328 238.364728 174.052324 237.740223 173.751006 Q 231.60452 170.776709 230.161111 170.120614 Q 228.654522 169.437789 226.38735 168.480377 Q 224.545424 167.705213 222.492089 167.168187 Q 220.100988 166.543682 217.692876 166.276384 Q 216.723313 166.167034 216.038059 165.992076 C 215.309064 165.804967 214.633529 165.749078 213.838925 165.513369 Q 209.693377 164.274079 206.104294 161.613249 Q 202.848119 159.200278 200.08037 155.912513 Q 192.972675 147.465897 190.445494 136.57958 Q 189.872018 134.105859 189.786969 132.774229 C 189.740799 132.050095 189.451632 131.38185 189.60472 130.584816 C 189.62902 130.453597 189.752949 130.361258 189.886598 130.375838 Z" style="fill:#297936;"/>
		<path d="M 189.172184 175.575923 L 188.810116 175.583212 Q 188.525809 175.600222 188.501509 175.415544 Q 188.474779 175.199275 188.654598 175.043757 Q 190.467364 173.478849 192.23153 172.227408 Q 192.365179 172.132639 193.169503 171.787581 C 193.295862 171.731692 193.431941 171.697672 193.56802 171.685522 Q 194.331034 171.612623 195.682104 171.338035 Q 196.573907 171.158216 197.822918 171.065877 C 198.656401 171.005127 199.762043 170.69652 200.670856 170.65521 Q 201.331811 170.62605 203.385145 170.358752 C 205.229501 170.115754 206.417762 170.123044 208.714095 169.996685 Q 209.780856 169.938366 211.328755 169.979675 Q 213.430689 170.035565 215.418413 170.273703 Q 216.662564 170.424362 217.010051 170.463242 Q 218.577389 170.64063 221.940484 171.547013 Q 224.290276 172.181238 226.688667 173.23099 C 230.637387 174.958707 234.041791 177.109241 237.368436 179.670441 Q 238.345288 180.421306 239.46308 181.526947 C 240.972098 183.018956 242.393637 184.382175 243.180951 185.968953 Q 243.32432 186.255691 243.268431 186.38205 C 243.139642 186.676078 242.753275 186.753837 242.500557 186.537569 C 241.919791 186.041853 241.657353 185.699225 241.081447 185.259399 Q 240.483672 184.802562 239.888327 184.124597 C 239.825147 184.051698 239.754678 183.986088 239.679348 183.925339 C 238.738945 183.210924 237.963781 182.44548 237.074408 181.823405 Q 234.646857 180.127278 232.486603 178.917147 Q 231.400401 178.307222 228.746862 177.087371 Q 226.516139 176.061919 224.890481 175.510313 Q 219.160585 173.561468 213.600787 173.145941 C 211.265575 172.970982 207.99482 173.031732 205.185761 173.27716 Q 201.640419 173.590628 199.830082 173.882225 Q 199.244457 173.976995 197.995446 174.110644 C 196.940834 174.222423 196.1924 174.475141 195.084329 174.56262 C 194.309164 174.6258 193.337172 174.917398 192.549858 175.012167 Q 191.521976 175.136096 191.310567 175.191985 Q 189.925478 175.556483 189.172184 175.575923 Z" style="fill:#6baa3d;"/>
		<path d="M 301.089839 175.298905 C 301.067969 175.738731 300.880861 175.814061 300.448324 175.748451 Q 298.222461 175.415544 297.437577 175.201705 Q 296.876251 175.048617 295.831359 174.958707 Q 295.318633 174.914968 294.242152 174.60879 C 294.120653 174.57234 293.991863 174.5529 293.865504 174.54561 Q 293.333339 174.521311 293.255579 174.506731 Q 292.273867 174.326912 286.687339 173.551748 Q 284.983922 173.31361 281.159131 173.104631 Q 278.537181 172.961263 274.734261 173.218841 Q 273.699088 173.28688 273.008974 173.432679 C 272.23138 173.597918 271.580145 173.559038 270.719931 173.746147 Q 265.740899 174.829918 263.908693 175.512743 Q 259.879784 177.014472 256.45351 178.868547 Q 254.509525 179.923159 252.120853 181.570687 Q 250.137988 182.938766 249.010477 184.051698 Q 247.469869 185.575296 246.522176 186.3699 C 246.269458 186.581309 245.887951 186.38691 245.909821 186.058863 C 245.96814 185.179209 248.283912 182.851287 249.309365 181.862285 Q 257.206804 174.234573 267.864703 171.318595 Q 268.914455 171.029427 272.916634 170.305293 Q 273.781708 170.149774 274.493692 170.142484 C 275.244557 170.135194 275.920091 169.974815 276.605346 169.965095 C 278.469142 169.938366 280.408267 169.865466 282.310943 170.062295 Q 283.572103 170.193514 284.646155 170.186224 C 284.825973 170.183794 285.008222 170.200804 285.183181 170.234823 C 286.111434 170.419502 286.986227 170.392772 287.827001 170.502121 Q 291.697961 171.000267 295.270034 171.525143 Q 295.889679 171.617483 296.492314 171.870201 C 297.218879 172.173949 297.755905 172.689105 298.531069 173.206691 C 299.311093 173.729137 300.103267 174.57963 300.99264 175.116656 C 301.05582 175.153106 301.092269 175.223575 301.089839 175.298905 Z" style="fill:#6baa3d;"/>
		<path d="M 189.172184 175.575923 L 188.810116 175.583212 L 189.172184 175.575923 Z" style="fill:#297936;"/>
		<path d="M 239.149612 185.553426 Q 235.45118 183.701781 231.383391 182.117433 Q 229.735864 181.475918 227.935248 180.958331 Q 227.70683 180.892722 224.389905 179.928019 C 224.314575 179.906149 224.239246 179.894 224.161487 179.88671 Q 223.430062 179.83082 222.676768 179.536792 C 222.550409 179.485763 222.41433 179.451743 222.278251 179.434733 Q 221.464207 179.335104 220.239497 179.004626 C 219.75107 178.873407 218.885997 178.892847 218.280931 178.781068 C 216.516765 178.455451 214.808488 178.414141 213.039461 178.273202 Q 209.197661 177.967024 205.776247 178.258622 C 203.846842 178.423861 202.291654 178.419001 200.422998 178.664429 C 198.758461 178.880697 197.606649 178.892847 196.15838 179.203885 Q 195.592195 179.322954 194.462253 179.456603 Q 192.882765 179.643711 190.878031 180.025219 C 189.206203 180.343546 187.959623 180.467475 186.090967 180.807673 Q 185.587961 180.900012 184.995046 180.759073 C 184.863827 180.727483 184.844387 180.547665 184.968316 180.489345 C 185.395993 180.285227 185.928158 180.005779 186.423875 179.913439 Q 187.01436 179.80652 187.670455 179.539222 C 187.765224 179.500343 187.859994 179.471183 187.959623 179.454173 Q 189.782109 179.104256 191.449076 178.700879 Q 192.547428 178.436011 193.264272 178.353391 C 194.000557 178.265912 194.84862 177.986464 195.691824 177.920855 C 196.654097 177.847955 197.849647 177.476168 198.726871 177.451868 Q 199.567644 177.427568 201.839677 177.150551 Q 202.957468 177.014472 204.950053 176.897832 Q 209.880486 176.613525 214.779328 176.965872 Q 215.977309 177.053351 216.317506 177.121391 C 216.990611 177.2599 217.561657 177.21373 218.363551 177.347379 Q 222.654898 178.071513 226.443239 179.096966 Q 227.332612 179.339964 228.530593 179.80166 C 229.633805 180.229337 231.431991 180.797953 232.773341 181.478347 C 233.672434 181.932754 234.634707 182.340991 235.592119 182.895027 Q 237.283386 183.874309 238.780255 184.979951 Q 239.200642 185.290988 239.244381 185.410057 Q 239.275971 185.490247 239.215222 185.546136 C 239.198212 185.563146 239.171482 185.565576 239.149612 185.553426 Z" style="fill:#6baa3d;"/>
		<path d="M 249.715172 185.553426 C 249.695732 185.565576 249.669002 185.558286 249.656852 185.541276 C 249.642272 185.521837 249.644702 185.497537 249.661712 185.480527 Q 251.637287 183.590001 254.072128 182.304541 Q 256.915207 180.805243 260.035303 179.765211 Q 260.181102 179.716611 260.41681 179.575672 C 260.543169 179.500343 260.684108 179.449313 260.827477 179.427443 C 261.556471 179.315664 262.241726 178.953597 262.96343 178.868547 Q 263.272038 178.834528 263.847944 178.57209 C 263.920843 178.53807 263.996172 178.51134 264.073932 178.49433 Q 265.546501 178.151703 267.400576 177.770196 Q 268.807536 177.483458 269.922897 177.381399 C 271.060129 177.27934 272.1196 177.063071 273.303001 176.985312 Q 278.77532 176.632964 281.462879 176.805493 C 283.579393 176.944002 284.957192 176.922132 286.796688 177.20401 Q 286.891458 177.21859 288.786843 177.376539 Q 289.856035 177.464018 290.772138 177.614677 Q 292.971271 177.976744 295.022176 178.280492 C 296.550634 178.50648 298.754627 178.999766 300.596553 179.388563 Q 302.654747 179.82353 303.349722 180.093258 Q 304.030117 180.358126 304.260965 180.455325 C 304.494243 180.554955 304.426204 180.902442 304.173486 180.907302 C 302.640167 180.936462 301.05825 180.511215 299.522501 180.319246 C 298.749767 180.222047 297.833664 179.920729 297.04392 179.87456 C 295.945569 179.80895 294.881237 179.485763 293.705126 179.390993 Q 292.963981 179.330244 291.88507 179.123695 C 290.682229 178.895277 289.457518 178.919577 288.257107 178.744618 Q 286.799118 178.53564 284.454186 178.426291 C 281.759337 178.304792 278.653821 178.018054 275.883642 178.273202 C 274.209385 178.428721 272.484098 178.401991 270.953209 178.652279 Q 269.383441 178.912287 269.074834 178.919577 C 268.20004 178.939017 267.373847 179.354544 266.537933 179.405573 C 265.733609 179.456603 264.968165 179.78951 264.236741 179.89157 C 263.614665 179.981479 263.06792 180.258497 262.402105 180.358126 Q 262.168826 180.392146 261.66825 180.542805 Q 255.318709 182.45763 249.715172 185.553426 Z" style="fill:#6baa3d;"/>
		<path d="M 175.780556 192.98674 C 175.566718 192.98431 175.430639 192.753461 175.535128 192.563923 Q 176.281132 191.220143 178.220257 187.985838 C 178.492415 187.531431 178.910372 187.397782 179.461978 187.390492 Q 181.267454 187.371053 185.191874 187.186374 Q 187.01922 187.098895 188.435899 186.945806 Q 190.792981 186.690658 191.682355 186.659068 C 192.958095 186.612898 194.372344 186.282421 195.470696 186.219241 Q 196.483998 186.160922 198.194705 185.956803 Q 199.472875 185.803714 200.911424 185.655486 Q 206.427482 185.08444 214.186413 184.814712 C 216.028339 184.751533 218.149712 184.962941 220.122857 184.994531 C 220.873722 185.006681 221.532247 185.203509 222.285541 185.213229 Q 222.484799 185.215659 223.150614 185.295848 Q 228.97042 186.000543 234.309089 187.866769 Q 234.581247 187.961538 237.159457 189.05017 Q 238.461927 189.601775 239.890757 190.435259 Q 240.74368 190.935835 243.31217 192.369524 Q 244.201544 192.865241 244.952408 192.88468 Q 245.195406 192.89197 246.381237 192.505603 C 246.454136 192.481303 246.524606 192.449714 246.590215 192.410834 Q 249.187866 190.875086 249.710312 190.588348 Q 254.072128 188.194816 258.856762 186.863186 Q 259.398648 186.712528 260.030443 186.608038 C 260.540739 186.522989 261.087485 186.238681 261.590491 186.204661 C 262.280606 186.156062 263.184559 185.820724 264.015612 185.704085 Q 268.134431 185.12575 270.229075 185.01397 Q 274.134055 184.809852 280.850524 185.04799 Q 280.989033 185.05285 281.511479 185.147619 C 281.681577 185.179209 281.854106 185.193789 282.026635 185.193789 Q 283.005917 185.196219 285.049532 185.376038 Q 288.033549 185.636046 291.061306 185.961663 Q 293.372218 186.207091 293.483997 186.199801 C 294.059903 186.156062 295.141245 186.496259 295.918839 186.462239 Q 296.375675 186.44037 296.893261 186.532709 Q 297.833664 186.702808 298.749767 186.697948 C 298.893136 186.697948 299.036505 186.710098 299.179874 186.736827 C 300.329255 186.957956 301.432467 186.853466 302.409319 187.052725 C 303.354582 187.247123 304.739671 187.140204 305.825873 187.244693 Q 307.949677 187.448812 310.408818 187.402642 C 310.710136 187.397782 310.992014 187.553301 311.147533 187.810879 Q 312.974879 190.843496 314.010051 192.602803 Q 314.12669 192.802061 313.966311 192.93814 Q 313.881262 193.011039 313.735463 193.013469 Q 309.555895 193.047489 307.320312 192.88954 C 304.275545 192.673272 302.210061 192.799631 299.199314 192.639252 Q 295.906689 192.464294 292.397796 192.498313 C 291.231405 192.508033 289.464808 192.291765 288.018969 192.284475 Q 281.968315 192.257745 277.822767 192.148396 C 273.285992 192.026897 270.547402 192.150826 265.407992 192.284475 Q 265.199013 192.291765 264.525908 192.418124 C 264.31693 192.459434 264.103092 192.478874 263.889253 192.476444 Q 262.086207 192.461864 259.593046 192.99889 Q 257.977108 193.346377 256.779128 193.871253 Q 255.829005 194.28678 254.366156 195.317092 Q 253.190045 196.148145 252.011504 196.87714 C 251.355409 197.282947 250.475756 197.632864 249.89013 197.892872 C 248.874398 198.347279 247.800346 198.495508 246.507596 198.789535 Q 246.070199 198.889165 244.092194 198.847855 Q 242.874774 198.821125 241.708383 198.500368 Q 239.205502 197.807823 236.933469 196.327964 Q 236.403733 195.985337 234.530217 194.680437 Q 234.21918 194.464168 232.91185 193.817793 C 232.265475 193.497036 231.655549 193.421706 230.936275 193.139828 C 230.822066 193.093659 230.702997 193.062069 230.581498 193.045059 C 228.627792 192.755891 227.337472 192.481303 225.830884 192.491023 C 224.798142 192.498313 223.838299 192.277185 222.713218 192.267465 Q 214.086784 192.175126 203.460475 192.289335 Q 202.651291 192.299055 200.342808 192.420554 C 197.395241 192.578503 194.015137 192.469154 191.490386 192.600373 C 188.38973 192.760751 185.585531 192.712152 182.424125 192.89197 Q 179.471698 193.062069 175.780556 192.98674 Z" style="fill:#297936;"/>
	</g>
	<g id="surface4">
	</g>
</svg>
