<?xml version="1.0" encoding="utf-8"?>
<svg xmlns="http://www.w3.org/2000/svg" width="490pt" height="280pt" viewBox="0 0 490 280" version="1.1" xmlns:xlink="http://www.w3.org/1999/xlink">
	<g id="surface2" data-size="85.589848883436 148" data-bboxpos="202 51.835986798091" data-pivot="244.79492444172 125.83598679809" data-center="244.79492444172 125.83598679809">
		<path stroke-opacity="0.996" vector-effect="non-scaling-stroke" d="M 272.346663 139.808037 Q 271.617165 140.40039 271.04232 140.663009 Q 261.631791 144.949541 252.221262 147.561145 Q 249.279925 148.378184 246.513667 147.38023 Q 241.243771 145.483534 236.379476 142.918618 Q 233.309747 141.299132 230.537653 139.171914" style="fill:none;stroke-width:0.50;stroke:#ffe884;"/>
		<path vector-effect="non-scaling-stroke" d="M 232.638609 120.905276 Q 240.73604 121.909065 248.188596 118.86268 Q 255.212206 115.991375 259.746767 109.994898 C 259.784701 109.945293 259.781783 109.875261 259.738013 109.828573 C 259.697161 109.781885 259.62713 109.773131 259.574606 109.808147 L 259.023105 110.16706" style="fill:none;stroke-width:0.50;stroke:#8e883b;"/>
		<path vector-effect="non-scaling-stroke" d="M 259.023105 110.16706 L 258.570816 109.335432" style="fill:none;stroke-width:0.50;stroke:#ffbc1c;"/>
		<path vector-effect="non-scaling-stroke" d="M 258.570816 109.335432 Q 259.119399 109.17786 259.679654 109.064059 Q 260.38289 108.918159 260.680525 108.59718 Q 261.164912 108.071941 261.293304 107.196543" style="fill:none;stroke-width:0.50;stroke:#8e883b;"/>
		<path vector-effect="non-scaling-stroke" d="M 261.293304 107.196543 L 261.147404 106.983529 C 261.091962 106.901825 261.010259 106.846384 260.913965 106.825958 Q 254.596509 105.466173 252.845713 104.847558 Q 248.710916 103.385643 246.388194 101.754485 Q 243.948751 100.041623 241.401343 98.366695 Q 239.781857 97.298709 237.981455 96.525441" style="fill:none;stroke-width:0.50;stroke:#ffbc1c;"/>
		<path vector-effect="non-scaling-stroke" d="M 237.981455 96.525441 Q 238.538791 93.837969 239.279962 91.410198 Q 239.711825 89.992054 240.473421 88.632269 C 242.028711 85.848503 246.216032 85.559622 248.856816 86.461282 C 250.616366 87.062388 251.713532 88.285028 251.909037 90.111691 Q 252.192082 92.705788 252.869057 94.911791 Q 253.481836 96.916452 254.313464 97.590508 C 255.139256 98.261647 257.129327 98.734362 258.007643 97.753916 C 258.109773 97.640114 258.083511 97.462117 257.952201 97.383331 C 257.254801 96.960222 256.528221 96.621735 256.011736 96.055644 Q 255.083814 95.040182 254.663623 93.794199 C 253.974976 91.77203 253.426394 89.335505 253.986648 87.418383 Q 254.182154 86.755999 255.194698 84.462456 C 255.203452 84.44203 255.209288 84.421604 255.212206 84.401178 L 255.290991 83.756302 C 255.317253 83.534534 255.14801 83.339029 254.926242 83.333193 Q 246.265638 83.082245 238.801411 82.95969 Q 237.613787 82.939264 237.698409 84.030593 C 237.750933 84.707568 238.10401 85.813487 238.136108 86.677213 Q 238.209058 88.512631 237.257792 90.380147 C 236.181053 92.492774 235.086805 94.427404 232.726149 95.034346 Q 229.513438 95.860138 226.580854 97.371659 Q 224.185182 98.608888 222.886675 99.268355 Q 222.349764 99.542646 222.002523 99.939493" style="fill:none;stroke-width:0.50;stroke:#8e883b;"/>
		<path vector-effect="non-scaling-stroke" d="M 222.002523 99.939493 L 221.920819 99.808183" style="fill:none;stroke-width:0.50;stroke:#ffbc1c;"/>
		<path vector-effect="non-scaling-stroke" d="M 258.570816 109.335432 Q 257.960955 109.571789 257.330669 109.761459 Q 248.926848 112.300113 240.333357 113.665734 C 235.42821 114.444838 230.849879 114.902963 226.026436 114.027565 Q 221.121289 113.137577 211.451059 111.080392 Q 210.438515 110.867378 206.998201 110.248764 Q 204.7601 109.848999 202.568687 109.30917" style="fill:none;stroke-width:0.50;stroke:#8e724d;"/>
		<path stroke-opacity="0.996" vector-effect="non-scaling-stroke" d="M 275.571046 144.993311 C 272.895246 155.238386 268.885923 165.083696 264.529359 174.710156 Q 261.383762 181.663734 258.118527 188.564789 Q 255.970884 193.108104 253.656915 197.432571" style="fill:none;stroke-width:0.50;stroke:#8d9eb5;"/>
		<path stroke-opacity="0.996" vector-effect="non-scaling-stroke" d="M 251.334192 198.065775 L 257.768368 185.544666 C 257.829646 185.425028 257.858826 185.2908 257.855908 185.156572 Q 257.835482 184.546712 257.680828 183.840557 Q 255.092568 172.04311 252.796107 162.938971 C 252.764009 162.816415 252.784435 162.688023 252.848631 162.580057 Q 254.532313 159.735014 255.778296 157.199278 C 256.110948 156.516467 256.315207 155.737363 256.691628 155.17419 C 256.79084 155.025373 257.003854 155.007865 257.123491 155.142092 C 259.697161 158.004644 262.206636 161.135651 263.826122 164.564293 C 263.90199 164.721865 264.120839 164.733537 264.211297 164.581801 Q 265.649868 162.130686 267.514466 159.306069 Q 269.37031 156.501877 272.01693 150.712578 C 272.037356 150.668808 272.019848 150.616285 271.976078 150.595859 L 271.97316 150.595859 C 271.941062 150.581269 271.906046 150.592941 271.888538 150.622121 Q 269.708797 154.672295 267.721643 157.829564 Q 267.088439 158.836272 265.092531 161.54417 Q 264.756962 162.002295 264.117921 162.515862 C 264.030382 162.588811 263.90199 162.588811 263.811532 162.515862 Q 263.438029 162.215308 263.201672 161.900165 Q 258.868451 156.131292 253.318428 150.502483 Q 252.22418 149.390727 251.547206 149.116436 C 249.338285 148.22353 247.044742 148.842145 245.393158 150.549171 Q 241.967434 154.091615 238.638003 158.147625 C 237.532084 159.49282 236.758815 160.683362 235.594536 162.302848 C 235.436964 162.524616 235.118903 162.545042 234.932152 162.346618 Q 233.805806 161.141487 232.828278 159.60954 Q 230.205002 155.512677 228.112801 151.077327 C 228.104047 151.056902 228.080703 151.048148 228.060277 151.056902 L 228.057359 151.05982 C 228.025261 151.071491 228.010671 151.109425 228.022343 151.141523 Q 229.881105 155.909525 232.221336 159.775866 Q 233.627808 162.101507 234.897136 164.473835 C 234.981757 164.631407 235.188935 164.672259 235.326081 164.558457 Q 235.451554 164.453409 235.480734 164.395049 Q 237.181924 160.992669 239.058194 158.559063 Q 241.11538 155.894935 241.806944 155.107076 Q 241.920746 154.975767 241.938254 154.969931 C 242.092907 154.902817 242.270905 154.978685 242.329265 155.133338 Q 243.820359 159.058039 246.096394 162.486682 C 246.198524 162.641335 246.230622 162.833923 246.186852 163.014838 Q 243.832031 172.472055 241.547243 182.953487 C 241.340065 183.907671 241.092036 184.908543 241.477211 185.746007 Q 243.779508 190.721186 248.290725 198.72816" style="fill:none;stroke-width:0.50;stroke:#8d9eb5;"/>
		<path stroke-opacity="0.996" vector-effect="non-scaling-stroke" d="M 245.480698 197.54929 Q 243.222171 193.224824 241.010332 188.923702 Q 239.011506 185.039853 234.751236 175.048643 Q 229.948219 163.785189 226.753016 151.970233 Q 226.157745 149.775902 225.229823 145.264685" style="fill:none;stroke-width:0.50;stroke:#8d9eb5;"/>
		<path vector-effect="non-scaling-stroke" d="M 259.023105 110.16706 Q 257.832564 111.162096 256.569073 112.063756 Q 255.433973 112.87204 254.077106 113.899174 Q 250.47922 116.621661 246.16059 118.112756 Q 242.200873 119.478377 237.736343 119.773094 Q 235.057625 119.948174 232.349727 120.175777" style="fill:none;stroke-width:0.50;stroke:#8e724d;"/>
		<path vector-effect="non-scaling-stroke" d="M 237.981455 96.525441 L 237.888079 96.554621 C 237.820965 96.575047 237.750933 96.577965 237.686737 96.557539 C 235.375687 95.938924 233.070472 95.968104 230.701061 96.866846 C 228.141981 97.838538 226.504987 98.585544 223.619091 99.942411 Q 223.015066 100.228375 222.364354 100.333422 Q 222.142586 100.371356 222.049211 100.266308 Q 221.949999 100.155425 222.002523 99.939493" style="fill:none;stroke-width:0.50;stroke:#8e724d;"/>
		<path vector-effect="non-scaling-stroke" d="M 261.293304 107.196543 Q 260.242826 107.263657 259.297396 107.537948 Q 250.295387 110.169978 240.622239 111.78071 Q 231.366364 113.318493 222.682415 111.742776 Q 216.230732 110.572661 204.459546 108.293708 Q 203.627918 108.133219 202.189348 108.147809" style="fill:none;stroke-width:0.50;stroke:#8e724d;"/>
		<path vector-effect="non-scaling-stroke" d="M 259.48123 95.30572 C 263.330063 97.225759 267.047587 93.499482 267.709971 89.989136 Q 268.287734 86.922325 266.962965 84.036429 C 265.722818 81.340203 262.889446 79.513539 259.924765 80.520247 C 258.025151 81.162206 256.843364 82.729168 256.461107 84.789271 C 255.909606 87.745199 256.102194 90.727388 257.529092 93.338992 Q 258.276099 94.704613 259.48123 95.30572" style="fill:none;stroke-width:0.50;stroke:#8e883b;"/>
		<path stroke-opacity="0.996" vector-effect="non-scaling-stroke" d="M 259.996723 82.628439 C 259.125235 82.688316 258.474522 83.528698 258.54257 84.505672 C 258.611668 85.480836 259.373264 86.222006 260.243818 86.162246 C 261.115306 86.102368 261.766019 85.261986 261.697971 84.285013 C 261.628873 83.309849 260.867277 82.568678 259.996723 82.628439" style="fill:none;stroke-width:0.50;stroke:#8d9eb5;"/>
		<path stroke-opacity="0.996" vector-effect="non-scaling-stroke" d="M 264.117863 85.15974 C 263.648125 85.34369 263.467209 86.008993 263.716347 86.64424 C 263.963268 87.281238 264.546867 87.648905 265.016722 87.465188 C 265.48646 87.281238 265.667376 86.615935 265.418238 85.980688 C 265.171317 85.34369 264.587718 84.976023 264.117863 85.15974" style="fill:none;stroke-width:0.50;stroke:#8d9eb5;"/>
		<path vector-effect="non-scaling-stroke" d="M 237.036025 104.13265 Q 237.505822 104.150158 238.713871 103.531543 C 238.941474 103.414823 239.037768 103.14345 238.929802 102.9246 Q 238.521283 102.092972 237.710081 102.527753 Q 237.053533 102.880831 236.834683 103.875866 C 236.808421 104.004258 236.904715 104.126814 237.036025 104.13265" style="fill:none;stroke-width:0.50;stroke:#8e724d;"/>
		<path d="M 272.346663 139.808037 Q 271.617165 140.40039 271.04232 140.663009 Q 261.631791 144.949541 252.221262 147.561145 Q 249.279925 148.378184 246.513667 147.38023 Q 241.243771 145.483534 236.379476 142.918618 Q 233.309747 141.299132 230.537653 139.171914 Q 233.315583 131.144515 232.872048 122.854495 Q 232.828278 122.014113 232.638609 120.905276 Q 240.73604 121.909065 248.188596 118.86268 Q 255.212206 115.991375 259.746767 109.994898 C 259.784701 109.945293 259.781783 109.875261 259.738013 109.828573 C 259.697161 109.781885 259.62713 109.773131 259.574606 109.808147 L 259.023105 110.16706 L 258.570816 109.335432 Q 259.119399 109.17786 259.679654 109.064059 Q 260.38289 108.918159 260.680525 108.59718 Q 261.164912 108.071941 261.293304 107.196543 L 261.147404 106.983529 C 261.091962 106.901825 261.010259 106.846384 260.913965 106.825958 Q 254.596509 105.466173 252.845713 104.847558 Q 248.710916 103.385643 246.388194 101.754485 Q 243.948751 100.041623 241.401343 98.366695 Q 239.781857 97.298709 237.981455 96.525441 Q 238.538791 93.837969 239.279962 91.410198 Q 239.711825 89.992054 240.473421 88.632269 C 242.028711 85.848503 246.216032 85.559622 248.856816 86.461282 C 250.616366 87.062388 251.713532 88.285028 251.909037 90.111691 Q 252.192082 92.705788 252.869057 94.911791 Q 253.481836 96.916452 254.313464 97.590508 C 255.139256 98.261647 257.129327 98.734362 258.007643 97.753916 C 258.109773 97.640114 258.083511 97.462117 257.952201 97.383331 C 257.254801 96.960222 256.528221 96.621735 256.011736 96.055644 Q 255.083814 95.040182 254.663623 93.794199 C 253.974976 91.77203 253.426394 89.335505 253.986648 87.418383 Q 254.182154 86.755999 255.194698 84.462456 C 255.203452 84.44203 255.209288 84.421604 255.212206 84.401178 L 255.290991 83.756302 C 255.317253 83.534534 255.14801 83.339029 254.926242 83.333193 Q 246.265638 83.082245 238.801411 82.95969 Q 237.613787 82.939264 237.698409 84.030593 C 237.750933 84.707568 238.10401 85.813487 238.136108 86.677213 Q 238.209058 88.512631 237.257792 90.380147 C 236.181053 92.492774 235.086805 94.427404 232.726149 95.034346 Q 229.513438 95.860138 226.580854 97.371659 Q 224.185182 98.608888 222.886675 99.268355 Q 222.349764 99.542646 222.002523 99.939493 L 221.920819 99.808183 Q 221.777837 92.516118 222.192192 86.373742 Q 222.405206 83.242735 223.245588 80.073794 Q 225.180218 72.790483 230.380082 67.716092 C 232.393497 65.752282 235.034281 64.150304 237.610869 62.726323 Q 237.972701 62.5279 238.705117 62.262362 C 239.031932 62.142725 239.15157 61.74296 238.941474 61.468668 C 238.725543 61.182705 238.430826 60.864644 238.19155 60.418191 Q 237.097303 58.369759 235.795878 56.400114 Q 235.679158 56.222116 235.629552 55.871957 C 235.614962 55.761073 235.752108 55.696877 235.830893 55.778581 Q 237.240284 57.24925 239.28288 59.857936 C 239.405435 60.015507 239.536745 60.342323 239.752677 60.464878 C 239.971526 60.587434 240.234146 60.394847 240.181622 60.149735 Q 239.519237 57.004138 239.498811 54.208701 Q 239.492975 53.388744 239.688481 52.574624 C 239.708907 52.490002 239.802282 52.446233 239.881068 52.484167 Q 240.283751 52.676754 240.350865 52.805146 Q 241.022004 54.086145 241.818616 55.641435 Q 242.329265 56.639389 243.035419 57.3222 C 243.178401 57.459345 243.414758 57.398067 243.4702 57.208398 C 243.814523 56.061626 244.456482 54.830233 245.41942 54.001523 C 246.367768 53.187403 247.739225 52.055221 248.810128 51.842208 C 249.081502 51.789684 249.297433 52.066893 249.177795 52.317841 Q 248.334495 54.091981 248.09522 55.728975 C 248.048532 56.061626 248.360757 56.330082 248.681736 56.233788 Q 250.309977 55.755237 251.608484 55.495536 Q 252.871975 55.24167 254.614017 55.1979 C 256.697464 55.142458 259.171923 54.976133 260.204892 55.553896 C 260.35371 55.638517 260.312858 55.863203 260.143614 55.886547 Q 259.48123 55.982841 258.346131 56.242542 Q 256.481533 56.671487 255.20637 58.13632 C 255.040044 58.325989 255.110076 58.626543 255.346433 58.719918 C 255.994228 58.97962 256.685792 59.002964 257.441553 59.180961 Q 260.604657 59.930886 261.678479 60.228521 C 270.274888 62.632948 277.371448 68.775324 281.73093 76.490498 Q 286.032052 84.103543 287.231347 92.577396 Q 287.987107 97.92316 287.149643 103.805834 Q 287.018334 104.725002 286.376375 107.021463 Q 285.827792 108.985273 285.331734 110.16706 Q 282.825177 116.1577 277.777049 120.543445 Q 275.501014 122.521844 273.344617 124.716175 Q 271.576313 126.513659 270.654227 129.60965 C 270.164004 131.255398 270.239872 133.379698 270.385771 134.762826 C 270.569605 136.525294 271.497527 138.173961 272.346663 139.808037 Z M 259.48123 95.30572 C 263.330063 97.225759 267.047587 93.499482 267.709971 89.989136 Q 268.287734 86.922325 266.962965 84.036429 C 265.722818 81.340203 262.889446 79.513539 259.924765 80.520247 C 258.025151 81.162206 256.843364 82.729168 256.461107 84.789271 C 255.909606 87.745199 256.102194 90.727388 257.529092 93.338992 Q 258.276099 94.704613 259.48123 95.30572 Z" style="fill:#ffd10a;"/>
		<path d="M 237.981455 96.525441 L 237.888079 96.554621 C 237.820965 96.575047 237.750933 96.577965 237.686737 96.557539 C 235.375687 95.938924 233.070472 95.968104 230.701061 96.866846 C 228.141981 97.838538 226.504987 98.585544 223.619091 99.942411 Q 223.015066 100.228375 222.364354 100.333422 Q 222.142586 100.371356 222.049211 100.266308 Q 221.949999 100.155425 222.002523 99.939493 Q 222.349764 99.542646 222.886675 99.268355 Q 224.185182 98.608888 226.580854 97.371659 Q 229.513438 95.860138 232.726149 95.034346 C 235.086805 94.427404 236.181053 92.492774 237.257792 90.380147 Q 238.209058 88.512631 238.136108 86.677213 C 238.10401 85.813487 237.750933 84.707568 237.698409 84.030593 Q 237.613787 82.939264 238.801411 82.95969 Q 246.265638 83.082245 254.926242 83.333193 C 255.14801 83.339029 255.317253 83.534534 255.290991 83.756302 L 255.212206 84.401178 C 255.209288 84.421604 255.203452 84.44203 255.194698 84.462456 Q 254.182154 86.755999 253.986648 87.418383 C 253.426394 89.335505 253.974976 91.77203 254.663623 93.794199 Q 255.083814 95.040182 256.011736 96.055644 C 256.528221 96.621735 257.254801 96.960222 257.952201 97.383331 C 258.083511 97.462117 258.109773 97.640114 258.007643 97.753916 C 257.129327 98.734362 255.139256 98.261647 254.313464 97.590508 Q 253.481836 96.916452 252.869057 94.911791 Q 252.192082 92.705788 251.909037 90.111691 C 251.713532 88.285028 250.616366 87.062388 248.856816 86.461282 C 246.216032 85.559622 242.028711 85.848503 240.473421 88.632269 Q 239.711825 89.992054 239.279962 91.410198 Q 238.538791 93.837969 237.981455 96.525441 Z" style="fill:#1d3e6c;"/>
		<path d="M 237.981455 96.525441 Q 239.781857 97.298709 241.401343 98.366695 Q 243.948751 100.041623 246.388194 101.754485 Q 248.710916 103.385643 252.845713 104.847558 Q 254.596509 105.466173 260.913965 106.825958 C 261.010259 106.846384 261.091962 106.901825 261.147404 106.983529 L 261.293304 107.196543 Q 260.242826 107.263657 259.297396 107.537948 Q 250.295387 110.169978 240.622239 111.78071 Q 231.366364 113.318493 222.682415 111.742776 Q 216.230732 110.572661 204.459546 108.293708 Q 203.627918 108.133219 202.189348 108.147809 Q 201.906302 107.190707 202.046366 106.216097 C 202.320657 104.278549 204.255287 103.633673 206.195753 103.420659 Q 211.092145 102.880831 212.332293 102.828307 Q 214.056827 102.752439 215.617953 102.3731 Q 218.824828 101.591077 218.848172 101.585241 Q 219.067021 101.535636 221.401416 100.561026 Q 221.917901 100.345094 221.920819 99.808183 L 222.002523 99.939493 Q 221.949999 100.155425 222.049211 100.266308 Q 222.142586 100.371356 222.364354 100.333422 Q 223.015066 100.228375 223.619091 99.942411 C 226.504987 98.585544 228.141981 97.838538 230.701061 96.866846 C 233.070472 95.968104 235.375687 95.938924 237.686737 96.557539 C 237.750933 96.577965 237.820965 96.575047 237.888079 96.554621 L 237.981455 96.525441 Z M 237.036025 104.13265 Q 237.505822 104.150158 238.713871 103.531543 C 238.941474 103.414823 239.037768 103.14345 238.929802 102.9246 Q 238.521283 102.092972 237.710081 102.527753 Q 237.053533 102.880831 236.834683 103.875866 C 236.808421 104.004258 236.904715 104.126814 237.036025 104.13265 Z" style="fill:#ffa62d;"/>
		<path d="M 261.293304 107.196543 Q 261.164912 108.071941 260.680525 108.59718 Q 260.38289 108.918159 259.679654 109.064059 Q 259.119399 109.17786 258.570816 109.335432 Q 257.960955 109.571789 257.330669 109.761459 Q 248.926848 112.300113 240.333357 113.665734 C 235.42821 114.444838 230.849879 114.902963 226.026436 114.027565 Q 221.121289 113.137577 211.451059 111.080392 Q 210.438515 110.867378 206.998201 110.248764 Q 204.7601 109.848999 202.568687 109.30917 L 202.189348 108.147809 Q 203.627918 108.133219 204.459546 108.293708 Q 216.230732 110.572661 222.682415 111.742776 Q 231.366364 113.318493 240.622239 111.78071 Q 250.295387 110.169978 259.297396 107.537948 Q 260.242826 107.263657 261.293304 107.196543 Z" style="fill:#1d3e6c;"/>
		<path d="M 258.570816 109.335432 L 259.023105 110.16706 Q 257.832564 111.162096 256.569073 112.063756 Q 255.433973 112.87204 254.077106 113.899174 Q 250.47922 116.621661 246.16059 118.112756 Q 242.200873 119.478377 237.736343 119.773094 Q 235.057625 119.948174 232.349727 120.175777 L 231.830325 120.006534 C 231.780719 119.991944 231.728195 119.980272 231.675671 119.977354 Q 229.507602 119.846044 228.162407 119.557163 Q 228.156571 119.554245 224.949696 118.480423 Q 224.039282 118.174034 221.801181 117.19067 Q 218.142017 115.579938 214.657933 114.60241 C 214.185218 114.468182 213.715422 114.444838 213.292312 114.298939 Q 211.7983 113.785372 209.764458 113.446885 Q 207.619733 113.090889 205.299929 112.72614 C 203.201891 112.396407 202.621211 111.316749 202.568687 109.30917 Q 204.7601 109.848999 206.998201 110.248764 Q 210.438515 110.867378 211.451059 111.080392 Q 221.121289 113.137577 226.026436 114.027565 C 230.849879 114.902963 235.42821 114.444838 240.333357 113.665734 Q 248.926848 112.300113 257.330669 109.761459 Q 257.960955 109.571789 258.570816 109.335432 Z" style="fill:#ffa62d;"/>
		<path d="M 232.638609 120.905276 L 232.349727 120.175777 Q 235.057625 119.948174 237.736343 119.773094 Q 242.200873 119.478377 246.16059 118.112756 Q 250.47922 116.621661 254.077106 113.899174 Q 255.433973 112.87204 256.569073 112.063756 Q 257.832564 111.162096 259.023105 110.16706 L 259.574606 109.808147 C 259.62713 109.773131 259.697161 109.781885 259.738013 109.828573 C 259.781783 109.875261 259.784701 109.945293 259.746767 109.994898 Q 255.212206 115.991375 248.188596 118.86268 Q 240.73604 121.909065 232.638609 120.905276 Z" style="fill:#1d3e6c;"/>
		<path fill-opacity="0.988" d="M 272.346663 139.808037 C 273.262913 140.747631 274.190835 141.348737 274.917415 142.626819 C 274.943677 142.676424 274.967021 142.72603 274.981611 142.781472 L 275.571046 144.993311 C 272.895246 155.238386 268.885923 165.083696 264.529359 174.710156 Q 261.383762 181.663734 258.118527 188.564789 Q 255.970884 193.108104 253.656915 197.432571 L 251.334192 198.065775 L 257.768368 185.544666 C 257.829646 185.425028 257.858826 185.2908 257.855908 185.156572 Q 257.835482 184.546712 257.680828 183.840557 Q 255.092568 172.04311 252.796107 162.938971 C 252.764009 162.816415 252.784435 162.688023 252.848631 162.580057 Q 254.532313 159.735014 255.778296 157.199278 C 256.110948 156.516467 256.315207 155.737363 256.691628 155.17419 C 256.79084 155.025373 257.003854 155.007865 257.123491 155.142092 C 259.697161 158.004644 262.206636 161.135651 263.826122 164.564293 C 263.90199 164.721865 264.120839 164.733537 264.211297 164.581801 Q 265.649868 162.130686 267.514466 159.306069 Q 269.37031 156.501877 272.01693 150.712578 C 272.037356 150.668808 272.019848 150.616285 271.976078 150.595859 L 271.97316 150.595859 C 271.941062 150.581269 271.906046 150.592941 271.888538 150.622121 Q 269.708797 154.672295 267.721643 157.829564 Q 267.088439 158.836272 265.092531 161.54417 Q 264.756962 162.002295 264.117921 162.515862 C 264.030382 162.588811 263.90199 162.588811 263.811532 162.515862 Q 263.438029 162.215308 263.201672 161.900165 Q 258.868451 156.131292 253.318428 150.502483 Q 252.22418 149.390727 251.547206 149.116436 C 249.338285 148.22353 247.044742 148.842145 245.393158 150.549171 Q 241.967434 154.091615 238.638003 158.147625 C 237.532084 159.49282 236.758815 160.683362 235.594536 162.302848 C 235.436964 162.524616 235.118903 162.545042 234.932152 162.346618 Q 233.805806 161.141487 232.828278 159.60954 Q 230.205002 155.512677 228.112801 151.077327 C 228.104047 151.056902 228.080703 151.048148 228.060277 151.056902 L 228.057359 151.05982 C 228.025261 151.071491 228.010671 151.109425 228.022343 151.141523 Q 229.881105 155.909525 232.221336 159.775866 Q 233.627808 162.101507 234.897136 164.473835 C 234.981757 164.631407 235.188935 164.672259 235.326081 164.558457 Q 235.451554 164.453409 235.480734 164.395049 Q 237.181924 160.992669 239.058194 158.559063 Q 241.11538 155.894935 241.806944 155.107076 Q 241.920746 154.975767 241.938254 154.969931 C 242.092907 154.902817 242.270905 154.978685 242.329265 155.133338 Q 243.820359 159.058039 246.096394 162.486682 C 246.198524 162.641335 246.230622 162.833923 246.186852 163.014838 Q 243.832031 172.472055 241.547243 182.953487 C 241.340065 183.907671 241.092036 184.908543 241.477211 185.746007 Q 243.779508 190.721186 248.290725 198.72816 Q 247.90555 198.515146 247.619587 198.214593 C 247.578735 198.173741 247.529129 198.141643 247.470769 198.124135 L 245.480698 197.54929 Q 243.222171 193.224824 241.010332 188.923702 Q 239.011506 185.039853 234.751236 175.048643 Q 229.948219 163.785189 226.753016 151.970233 Q 226.157745 149.775902 225.229823 145.264685 Q 225.238577 143.703558 226.236531 141.865222 Q 226.61587 141.167822 226.986455 140.797237 C 227.068159 140.715533 227.167371 140.648419 227.275337 140.601731 L 230.537653 139.171914 Q 233.309747 141.299132 236.379476 142.918618 Q 241.243771 145.483534 246.513667 147.38023 Q 249.279925 148.378184 252.221262 147.561145 Q 261.631791 144.949541 271.04232 140.663009 Q 271.617165 140.40039 272.346663 139.808037 Z" style="fill:#ffffff;"/>
		<path d="M 253.656915 197.432571 Q 255.970884 193.108104 258.118527 188.564789 Q 261.383762 181.663734 264.529359 174.710156 C 268.885923 165.083696 272.895246 155.238386 275.571046 144.993311 Q 277.829572 148.23812 278.430679 149.157288 Q 281.847649 154.368824 284.669349 160.064747 Q 285.781104 162.311602 286.338441 163.753091 C 286.612733 164.462163 286.373457 164.739373 285.716909 165.025336 Q 283.119895 166.148763 279.355683 167.604842 C 279.139752 167.689464 278.929656 167.794512 278.73415 167.925821 L 278.115536 168.33434 C 277.975472 168.427716 277.946292 168.623222 278.054258 168.754531 Q 280.601666 171.86803 283.50507 174.176163 C 284.266666 174.783106 283.852311 175.273329 283.265794 175.839419 Q 278.853788 180.07051 278.754576 180.166804 C 271.821424 186.799403 264.141265 192.682077 255.384367 197.204967 Q 254.412675 197.70978 253.656915 197.432571 Z" style="fill:#1d3e6c;"/>
		<path d="M 245.480698 197.54929 Q 244.844575 197.648502 244.214289 197.321687 Q 237.797621 193.977666 231.486001 188.99957 Q 223.627845 182.801752 216.14611 175.305427 Q 215.685067 174.844384 215.545003 174.517568 C 215.40494 174.187835 215.501233 173.80266 215.781361 173.577975 Q 220.575624 169.740813 221.354728 169.090101 Q 221.553152 168.926693 221.640692 168.74286 C 221.772001 168.477322 221.664036 168.156343 221.401416 168.022115 Q 218.635158 166.627314 214.958487 164.999074 Q 214.048073 164.596391 214.348626 163.621781 Q 214.660851 162.609237 215.1715 161.547088 Q 219.297543 152.956515 225.229823 145.264685 Q 226.157745 149.775902 226.753016 151.970233 Q 229.948219 163.785189 234.751236 175.048643 Q 239.011506 185.039853 241.010332 188.923702 Q 243.222171 193.224824 245.480698 197.54929 Z" style="fill:#1d3e6c;"/>
		<path d="M 251.334192 198.065775 Q 251.240817 198.307969 250.72725 199.104581 Q 249.910212 200.368072 248.798456 199.448904 Q 248.497903 199.200875 248.290725 198.72816 Q 243.779508 190.721186 241.477211 185.746007 C 241.092036 184.908543 241.340065 183.907671 241.547243 182.953487 Q 243.832031 172.472055 246.186852 163.014838 C 246.230622 162.833923 246.198524 162.641335 246.096394 162.486682 Q 243.820359 159.058039 242.329265 155.133338 C 242.270905 154.978685 242.092907 154.902817 241.938254 154.969931 Q 241.920746 154.975767 241.806944 155.107076 Q 241.11538 155.894935 239.058194 158.559063 Q 237.181924 160.992669 235.480734 164.395049 Q 235.451554 164.453409 235.326081 164.558457 C 235.188935 164.672259 234.981757 164.631407 234.897136 164.473835 Q 233.627808 162.101507 232.221336 159.775866 Q 229.881105 155.909525 228.022343 151.141523 C 228.010671 151.109425 228.025261 151.071491 228.057359 151.05982 L 228.060277 151.056902 C 228.080703 151.048148 228.104047 151.056902 228.112801 151.077327 Q 230.205002 155.512677 232.828278 159.60954 Q 233.805806 161.141487 234.932152 162.346618 C 235.118903 162.545042 235.436964 162.524616 235.594536 162.302848 C 236.758815 160.683362 237.532084 159.49282 238.638003 158.147625 Q 241.967434 154.091615 245.393158 150.549171 C 247.044742 148.842145 249.338285 148.22353 251.547206 149.116436 Q 252.22418 149.390727 253.318428 150.502483 Q 258.868451 156.131292 263.201672 161.900165 Q 263.438029 162.215308 263.811532 162.515862 C 263.90199 162.588811 264.030382 162.588811 264.117921 162.515862 Q 264.756962 162.002295 265.092531 161.54417 Q 267.088439 158.836272 267.721643 157.829564 Q 269.708797 154.672295 271.888538 150.622121 C 271.906046 150.592941 271.941062 150.581269 271.97316 150.595859 L 271.976078 150.595859 C 272.019848 150.616285 272.037356 150.668808 272.01693 150.712578 Q 269.37031 156.501877 267.514466 159.306069 Q 265.649868 162.130686 264.211297 164.581801 C 264.120839 164.733537 263.90199 164.721865 263.826122 164.564293 C 262.206636 161.135651 259.697161 158.004644 257.123491 155.142092 C 257.003854 155.007865 256.79084 155.025373 256.691628 155.17419 C 256.315207 155.737363 256.110948 156.516467 255.778296 157.199278 Q 254.532313 159.735014 252.848631 162.580057 C 252.784435 162.688023 252.764009 162.816415 252.796107 162.938971 Q 255.092568 172.04311 257.680828 183.840557 Q 257.835482 184.546712 257.855908 185.156572 C 257.858826 185.2908 257.829646 185.425028 257.768368 185.544666 L 251.334192 198.065775 Z" style="fill:#1d3e6c;"/>
		<path d="M 267.709971 89.989136 C 267.047587 93.499482 263.330063 97.225759 259.48123 95.30572 Q 258.276099 94.704613 257.529092 93.338992 C 256.102194 90.727388 255.909606 87.745199 256.461107 84.789271 C 256.843364 82.729168 258.025151 81.162206 259.924765 80.520247 C 262.889446 79.513539 265.722818 81.340203 266.962965 84.036429 Q 268.287734 86.922325 267.709971 89.989136 Z M 259.996723 82.628439 C 259.125235 82.688316 258.474522 83.528698 258.54257 84.505672 C 258.611668 85.480836 259.373264 86.222006 260.243818 86.162246 C 261.115306 86.102368 261.766019 85.261986 261.697971 84.285013 C 261.628873 83.309849 260.867277 82.568678 259.996723 82.628439 Z M 264.117863 85.15974 C 263.648125 85.34369 263.467209 86.008993 263.716347 86.64424 C 263.963268 87.281238 264.546867 87.648905 265.016722 87.465188 C 265.48646 87.281238 265.667376 86.615935 265.418238 85.980688 C 265.171317 85.34369 264.587718 84.976023 264.117863 85.15974 Z" style="fill:#1d3e6c;"/>
		<path d="M 236.834683 103.875866 Q 237.053533 102.880831 237.710081 102.527753 Q 238.521283 102.092972 238.929802 102.9246 C 239.037768 103.14345 238.941474 103.414823 238.713871 103.531543 Q 237.505822 104.150158 237.036025 104.13265 C 236.904715 104.126814 236.808421 104.004258 236.834683 103.875866 Z" style="fill:#1d3e6c;"/>
		<path fill-opacity="0.988" d="M 259.996723 82.628439 C 260.867277 82.568678 261.628873 83.309849 261.697971 84.285013 C 261.766019 85.261986 261.115306 86.102368 260.243818 86.162246 C 259.373264 86.222006 258.611668 85.480836 258.54257 84.505672 C 258.474522 83.528698 259.125235 82.688316 259.996723 82.628439 Z" style="fill:#ffffff;"/>
		<path fill-opacity="0.988" d="M 264.117863 85.15974 C 264.587718 84.976023 265.171317 85.34369 265.418238 85.980688 C 265.667376 86.615935 265.48646 87.281238 265.016722 87.465188 C 264.546867 87.648905 263.963268 87.281238 263.716347 86.64424 C 263.467209 86.008993 263.648125 85.34369 264.117863 85.15974 Z" style="fill:#ffffff;"/>
	</g>
	<g id="surface4">
	</g>
</svg>
