<?xml version="1.0" encoding="utf-8"?>
<svg xmlns="http://www.w3.org/2000/svg" width="490pt" height="280pt" viewBox="0 0 490 280" version="1.1" xmlns:xlink="http://www.w3.org/1999/xlink">
	<g id="surface2" data-size="102.12639748595 148" data-bboxpos="194 49.704790875438" data-pivot="245.06319874297 123.70479087544" data-center="245.06319874297 123.70479087544">
		<path vector-effect="non-scaling-stroke" d="M 235.414211 125.774794 Q 234.854788 124.668914 233.815594 124.226192 Q 231.713125 123.333337 229.523594 124.515165 Q 228.801159 124.904168 228.169493 125.750713" style="fill:none;stroke-width:0.50;stroke:#ecad74;"/>
		<path vector-effect="non-scaling-stroke" d="M 235.501274 127.193729 L 233.937852 128.653417" style="fill:none;stroke-width:0.50;stroke:#ecad74;"/>
		<path vector-effect="non-scaling-stroke" d="M 232.361463 129.322131 Q 232.074342 129.409194 231.66311 129.331393" style="fill:none;stroke-width:0.50;stroke:#8a5f37;"/>
		<path vector-effect="non-scaling-stroke" d="M 229.773667 129.164678 Q 229.277225 128.797903 228.627034 128.299609 Q 228.034268 127.847625 227.832357 127.015899" style="fill:none;stroke-width:0.50;stroke:#ecad74;"/>
		<path vector-effect="non-scaling-stroke" d="M 245.317117 192.386934 Q 245.263398 192.45362 245.291184 192.575878 Q 245.315265 192.674055 245.39677 192.675908" style="fill:none;stroke-width:0.50;stroke:#3d3829;"/>
		<path vector-effect="non-scaling-stroke" d="M 245.565338 193.170497 Q 245.520881 193.516895 245.62832 193.779935 C 245.643139 193.815131 245.695006 193.807721 245.698711 193.770673 Q 245.735758 193.4817 245.654253 193.163088" style="fill:none;stroke-width:0.50;stroke:#958665;"/>
		<path vector-effect="non-scaling-stroke" d="M 245.057782 188.784025 C 245.105944 188.559885 245.09483 188.37835 245.09483 188.156063 Q 245.09483 188.16162 245.09483 188.167177 C 245.09483 188.172734 245.092977 188.178292 245.089272 188.183849 Q 245.070749 188.206078 245.050372 188.228306" style="fill:none;stroke-width:0.50;stroke:#3d3829;"/>
		<path vector-effect="non-scaling-stroke" d="M 246.28592 147.822005 Q 247.736346 147.846086 248.395798 147.64047 Q 249.470188 147.305186 250.435286 147.005098" style="fill:none;stroke-width:0.50;stroke:#977050;"/>
		<path vector-effect="non-scaling-stroke" d="M 248.684772 149.515094 Q 248.523614 150.776575 248.651429 152.065843" style="fill:none;stroke-width:0.50;stroke:#8a5f37;"/>
		<path vector-effect="non-scaling-stroke" d="M 246.493388 190.401166 Q 246.46375 190.438214 246.478569 190.499343" style="fill:none;stroke-width:0.50;stroke:#8a5f37;"/>
		<path vector-effect="non-scaling-stroke" d="M 246.478569 190.499343 L 246.443374 190.923542 C 246.437816 190.990228 246.523027 191.021719 246.561927 190.967999 Q 246.704561 190.77535 246.63417 190.501195" style="fill:none;stroke-width:0.50;stroke:#958665;"/>
		<path vector-effect="non-scaling-stroke" d="M 246.63417 190.501195 Q 246.650842 190.478967 246.667513 190.456738" style="fill:none;stroke-width:0.50;stroke:#8a5f37;"/>
		<path vector-effect="non-scaling-stroke" d="M 259.586119 148.433295 L 260.675328 148.803774" style="fill:none;stroke-width:0.50;stroke:#977050;"/>
		<path vector-effect="non-scaling-stroke" d="M 262.94266 160.842492 Q 263.594703 160.811001 263.828105 160.851754 Q 265.367445 161.127761 266.825281 161.618646" style="fill:none;stroke-width:0.50;stroke:#977050;"/>
		<path vector-effect="non-scaling-stroke" d="M 238.333586 182.295084 Q 238.44473 182.456242 238.546612 182.472914 C 238.602184 182.480323 238.642936 182.421047 238.61515 182.372884 Q 238.554021 182.263593 238.422501 182.187645" style="fill:none;stroke-width:0.50;stroke:#8a5f37;"/>
		<path vector-effect="non-scaling-stroke" d="M 242.894184 187.255799 Q 242.88307 187.435481 243.020147 187.465119 C 243.072014 187.476234 243.114619 187.420662 243.088685 187.3725 Q 243.060899 187.31878 242.996066 187.257651" style="fill:none;stroke-width:0.50;stroke:#8a5f37;"/>
		<path vector-effect="non-scaling-stroke" d="M 227.717508 160.145991 L 231.931708 158.564046" style="fill:none;stroke-width:0.50;stroke:#977050;"/>
		<path vector-effect="non-scaling-stroke" d="M 242.397742 184.032631 Q 242.734878 184.338276 242.477395 183.767738" style="fill:none;stroke-width:0.50;stroke:#958665;"/>
		<path vector-effect="non-scaling-stroke" d="M 246.63417 190.501195 L 246.478569 190.499343" style="fill:none;stroke-width:0.50;stroke:#ecad74;"/>
		<path vector-effect="non-scaling-stroke" d="M 265.445246 137.833888 Q 265.395231 138.613747 265.067357 139.402867" style="fill:none;stroke-width:0.50;stroke:#ecad74;"/>
		<path vector-effect="non-scaling-stroke" d="M 263.794762 140.523567 Q 263.127899 140.442061 262.872269 140.764378" style="fill:none;stroke-width:0.50;stroke:#ee975f;"/>
		<path vector-effect="non-scaling-stroke" d="M 262.129458 140.714363 Q 261.733045 140.269788 261.03284 140.406866" style="fill:none;stroke-width:0.50;stroke:#ee975f;"/>
		<path vector-effect="non-scaling-stroke" d="M 260.812405 140.269788 Q 260.792029 140.141973 260.719785 140.104925 Q 260.165919 139.819656 259.695411 139.369524" style="fill:none;stroke-width:0.50;stroke:#ee975f;"/>
		<path vector-effect="non-scaling-stroke" d="M 259.26195 136.320481 Q 259.286031 136.898429 259.047072 137.518981" style="fill:none;stroke-width:0.50;stroke:#ecad74;"/>
		<path vector-effect="non-scaling-stroke" d="M 264.246746 135.659176 Q 263.088999 134.829303 261.560773 134.871908" style="fill:none;stroke-width:0.50;stroke:#ecad74;"/>
		<path vector-effect="non-scaling-stroke" d="M 235.590189 127.845772 C 235.625384 127.864296 235.662432 127.88282 235.703185 127.901344" style="fill:none;stroke-width:0.50;stroke:#958665;"/>
		<path vector-effect="non-scaling-stroke" d="M 248.727377 188.317221 Q 248.523614 188.646948 248.488418 189.032246 C 248.484713 189.063737 248.525466 189.080408 248.545842 189.056327 Q 248.792211 188.767353 248.890388 188.400579" style="fill:none;stroke-width:0.50;stroke:#958665;"/>
		<path d="M 296.10239 87.628415 Q 295.909741 88.024827 295.693011 88.193395 Q 294.083279 89.451172 292.136412 88.736147 Q 291.536236 88.51386 290.406274 87.685839 Q 278.615778 79.048119 266.988291 70.495609 Q 263.91702 68.235687 245.802445 54.863244 Q 245.507914 54.644662 245.268955 54.498322 C 245.122616 54.407555 244.933671 54.416817 244.798446 54.524256 Q 243.787038 55.318934 242.636701 56.167331 Q 226.915421 67.774441 219.046445 73.511309 Q 218.859353 73.646534 218.775995 73.709516 Q 216.03445 75.76197 213.365148 77.705133 Q 212.244449 78.522039 210.931101 79.477875 Q 205.594349 83.367905 200.642896 86.970814 Q 199.007231 88.161905 198.53487 88.424945 Q 196.302734 89.664197 194.346604 88.167462 Q 193.826081 87.769197 194.087269 87.170873 C 194.11135 87.117154 194.146546 87.068991 194.191003 87.028239 Q 194.383652 86.855966 195.222787 86.228004 Q 230.092279 60.086999 242.264369 51.026933 C 243.081276 50.419348 243.692566 49.926611 244.503916 49.765452 Q 245.802445 49.507969 246.928701 50.343399 Q 251.622671 53.824051 259.897322 60.012904 Q 287.970374 81.015363 294.86499 86.244675 Q 295.581867 86.787427 295.705978 86.8819 Q 295.989394 87.09863 296.113505 87.452437 C 296.133881 87.509862 296.130176 87.574695 296.10239 87.628415 Z" style="fill:#46382a;"/>
		<path d="M 245.050372 73.440918 Q 250.696473 73.444623 251.131786 73.45018 C 251.50597 73.455737 251.720848 73.692844 251.718996 74.078142 Q 251.707881 77.840357 251.713439 79.066643 C 251.715291 79.590871 251.585623 79.924302 251.002119 79.928007 Q 250.142607 79.931712 246.836081 79.911335 C 246.769395 79.911335 246.704561 79.929859 246.647137 79.965055 Q 246.352606 80.144737 246.259986 80.496692 C 246.241462 80.568936 246.248872 80.644884 246.284068 80.709718 Q 246.608237 81.324713 247.20656 81.304337 Q 249.131199 81.235798 250.909499 81.29137 C 251.874597 81.321008 251.707881 81.891546 251.707881 82.697338 Q 251.706029 87.165316 251.706029 88.287868 Q 251.706029 88.836177 251.133639 88.865815 Q 250.270423 88.90842 245.039258 88.904715 Q 239.808093 88.902863 238.944877 88.856553 Q 238.374339 88.826915 238.374339 88.278606 Q 238.376191 87.156054 238.379896 82.688076 C 238.381749 81.882284 238.215033 81.311746 239.180131 81.28396 Q 240.958431 81.230241 242.88307 81.300632 Q 243.481393 81.322861 243.807415 80.707866 C 243.84261 80.643032 243.85002 80.567083 243.831496 80.49484 Q 243.738876 80.142885 243.444345 79.963203 C 243.388773 79.928007 243.322087 79.909483 243.255401 79.909483 Q 239.948875 79.924302 239.089364 79.920597 C 238.505859 79.91504 238.378044 79.581609 238.379896 79.057381 Q 238.387306 77.831095 238.381749 74.06888 C 238.379896 73.683582 238.594774 73.446475 238.968958 73.440918 Q 239.406123 73.437213 245.050372 73.440918 Z" style="fill:#46382a;"/>
		<path d="M 235.414211 125.774794 Q 234.854788 124.668914 233.815594 124.226192 Q 231.713125 123.333337 229.523594 124.515165 Q 228.801159 124.904168 228.169493 125.750713 C 228.262112 125.169061 227.832357 125.204256 227.511892 124.887497 C 226.683871 124.068738 225.981814 123.033249 226.065171 121.886616 C 226.142972 120.852979 226.778344 120.197231 227.847176 120.249099 C 229.332797 120.31949 230.140441 122.568298 230.362729 123.739012 C 230.3794 123.826074 230.483134 123.864974 230.553525 123.811255 L 230.64985 123.735307 C 230.720241 123.679735 230.749879 123.588967 230.723946 123.503757 Q 230.375696 122.338601 230.38681 121.119724 Q 230.38681 121.038219 230.546116 120.362095 C 230.799894 119.282148 232.039147 118.602319 233.028326 119.2062 C 233.891542 119.734133 234.06011 121.036367 233.819299 121.973679 Q 233.571078 122.946186 233.156141 123.607491 C 233.115388 123.674178 233.143174 123.76124 233.21727 123.790879 L 233.945262 124.076147 C 234.054553 124.118753 234.173106 124.042804 234.178663 123.926103 Q 234.236088 122.973972 234.76402 121.932926 Q 235.178957 121.117872 235.947701 120.697378 C 236.885013 120.186117 237.850111 120.606611 238.129823 121.625428 Q 238.218738 121.953302 238.087218 122.497907 Q 237.564842 124.667062 235.414211 125.774794 Z" style="fill:#f6d4a2;"/>
		<path d="M 235.414211 125.774794 Q 235.647613 126.547243 235.501274 127.193729 L 233.937852 128.653417 Q 232.983868 128.825689 232.361463 129.322131 Q 232.074342 129.409194 231.66311 129.331393 L 229.773667 129.164678 Q 229.277225 128.797903 228.627034 128.299609 Q 228.034268 127.847625 227.832357 127.015899 L 228.169493 125.750713 Q 228.801159 124.904168 229.523594 124.515165 Q 231.713125 123.333337 233.815594 124.226192 Q 234.854788 124.668914 235.414211 125.774794 Z" style="fill:#e18646;"/>
		<path d="M 227.832357 127.015899 Q 228.034268 127.847625 228.627034 128.299609 Q 229.277225 128.797903 229.773667 129.164678 Q 229.392074 131.291228 227.924976 132.730539 Q 227.421125 133.223276 226.696838 133.356649 C 225.674316 133.545593 225.248265 132.723129 225.544648 131.796932 Q 225.82436 130.918896 226.224477 130.431716 Q 227.117332 129.340655 227.700837 128.688612 C 227.717508 128.670088 227.717508 128.644155 227.702689 128.623778 C 227.686017 128.605254 227.660084 128.60155 227.637855 128.612664 Q 226.959878 128.99611 226.335621 129.457356 C 225.32977 130.200167 224.288724 130.574351 223.145796 130.452093 C 221.43974 130.266853 220.928479 128.394081 222.062145 127.197434 C 222.997604 126.211959 224.631417 125.680322 225.933651 126.324956 Q 225.989223 126.352741 227.524859 127.267825 C 227.580431 127.301168 227.652674 127.284496 227.689722 127.228925 L 227.832357 127.015899 Z" style="fill:#f6d4a2;"/>
		<path d="M 233.937852 128.653417 L 235.501274 127.193729 L 236.71274 126.65283 C 236.747936 126.63801 236.783131 126.626896 236.822032 126.621339 C 237.390717 126.528719 237.916797 126.280498 238.509564 126.210107 C 239.578396 126.080439 240.40086 126.039687 241.217766 126.739892 C 241.840171 127.273382 241.955019 128.173646 241.323353 128.714546 C 241.277043 128.755298 241.227028 128.790494 241.173309 128.820132 C 240.061871 129.43698 238.554021 129.116515 237.418503 128.570059 Q 237.212887 128.470029 236.351523 128.188465 C 236.312623 128.175499 236.27928 128.218104 236.301509 128.253299 Q 236.412652 128.434834 237.842702 129.599991 Q 238.326177 129.994551 238.670722 130.792933 C 238.692951 130.846653 238.700361 130.907782 238.687394 130.965206 C 238.450287 132.076643 237.692657 131.880289 236.892423 131.448681 C 235.964373 130.948535 234.538028 129.881555 234.252759 128.775675 Q 234.215711 128.636745 234.137911 128.616369 Q 234.058258 128.597845 233.937852 128.653417 Z M 235.590189 127.845772 C 235.625384 127.864296 235.662432 127.88282 235.703185 127.901344 C 235.860638 127.973587 236.027354 128.031012 236.097745 128.038421 C 236.157022 128.043979 236.134793 128.012488 236.044026 127.960621 C 235.805067 127.823543 235.371606 127.679057 235.469783 127.769824 C 235.488307 127.788348 235.530912 127.816134 235.590189 127.845772 Z" style="fill:#f6d4a2;"/>
		<path d="M 264.246746 135.659176 Q 263.088999 134.829303 261.560773 134.871908 L 261.746012 134.638506 C 261.781208 134.594049 261.794175 134.536625 261.786765 134.481053 C 261.560773 132.947269 261.616345 131.391257 262.587 130.076056 C 263.266829 129.157268 264.606111 128.63304 265.536013 129.549976 Q 266.141747 130.146447 266.276971 131.085612 C 266.491849 132.569381 265.887968 133.897548 264.935837 135.047886 C 264.904346 135.084934 264.869151 135.116424 264.830251 135.142358 Q 264.543129 135.331302 264.246746 135.659176 Z" style="fill:#f6d4a2;"/>
		<path d="M 232.361463 129.322131 Q 232.817153 129.681496 233.398805 130.616956 Q 234.184221 131.878437 233.891542 132.98617 C 233.885985 133.010251 233.876723 133.034332 233.863756 133.058413 L 233.695188 133.38073 C 233.678517 133.412221 233.674812 133.449268 233.685926 133.484464 Q 236.468224 142.896485 237.896421 149.500275 Q 240.554608 161.792771 242.701535 176.371123 Q 243.123881 179.247893 243.574013 182.930455 Q 243.733319 184.241951 244.374248 188.874792 Q 244.579864 190.360413 245.317117 192.386934 Q 245.263398 192.45362 245.291184 192.575878 Q 245.315265 192.674055 245.39677 192.675908 L 245.565338 193.170497 Q 245.520881 193.516895 245.62832 193.779935 C 245.643139 193.815131 245.695006 193.807721 245.698711 193.770673 Q 245.735758 193.4817 245.654253 193.163088 L 245.439375 192.140565 C 245.437523 192.135008 245.437523 192.129451 245.43567 192.123894 L 245.057782 188.784025 C 245.105944 188.559885 245.09483 188.37835 245.09483 188.156063 Q 245.09483 188.16162 245.09483 188.167177 C 245.09483 188.172734 245.092977 188.178292 245.089272 188.183849 Q 245.070749 188.206078 245.050372 188.228306 Q 244.937376 181.39482 245.068896 179.60911 Q 245.26525 176.943513 245.233759 176.543396 C 245.231907 176.400761 245.235612 176.256275 245.248578 176.11364 L 245.974718 167.496297 C 245.982127 167.409234 245.996946 167.324024 246.019175 167.238814 C 246.171071 166.664571 246.141433 165.903236 246.241462 165.134492 Q 246.428554 163.66369 246.537846 162.222527 C 246.563779 161.872424 246.691595 161.529731 246.689742 161.214824 Q 246.684185 160.629467 246.774952 160.158958 C 246.932406 159.340199 246.823115 158.597389 247.010207 157.854578 C 247.039845 157.736025 247.054664 157.615619 247.054664 157.495214 Q 247.062074 156.531968 247.136169 156.137408 C 247.310295 155.21121 247.195446 154.377632 247.313999 153.490335 C 247.473305 152.289982 247.4307 151.599039 247.441815 150.109713 C 247.443667 149.592895 247.378833 149.346526 247.028731 148.898246 Q 246.630465 148.39069 246.28592 147.822005 Q 247.736346 147.846086 248.395798 147.64047 Q 249.470188 147.305186 250.435286 147.005098 L 251.063248 147.201452 C 251.178096 147.2385 251.215144 147.382987 251.131786 147.471902 Q 250.981742 147.631208 250.757603 147.783104 Q 249.822143 148.420328 248.910764 149.270578 Q 248.797768 149.376164 248.684772 149.515094 Q 248.523614 150.776575 248.651429 152.065843 C 248.527318 152.988335 248.549547 153.975662 248.434699 154.831469 Q 248.336522 155.563165 248.351341 156.522706 C 248.353193 156.700536 248.343931 156.876514 248.31985 157.052491 Q 248.030876 159.171631 247.999386 160.157106 C 247.966043 161.175923 247.758574 162.003944 247.665955 163.069071 C 247.56222 164.267571 247.43811 165.17154 247.310295 166.236668 C 247.230642 166.909087 247.310295 167.500001 247.189889 168.057572 C 247.041697 168.748516 247.056516 169.294973 246.930554 170.008145 Q 246.921292 170.060012 246.887948 170.791708 Q 246.826819 172.168038 246.571189 174.576152 Q 246.500798 175.250424 246.498945 177.293616 C 246.498945 177.740043 246.335935 178.373563 246.337787 178.838514 C 246.341492 180.246334 246.163662 181.726398 246.14699 183.263887 Q 246.10809 186.60746 246.341492 189.782466 Q 246.360016 190.02513 246.493388 190.401166 Q 246.46375 190.438214 246.478569 190.499343 L 246.443374 190.923542 C 246.437816 190.990228 246.523027 191.021719 246.561927 190.967999 Q 246.704561 190.77535 246.63417 190.501195 Q 246.650842 190.478967 246.667513 190.456738 Q 246.873129 189.826924 247.08245 189.193404 C 247.228789 188.752534 247.236199 188.374646 247.423291 187.998609 Q 247.488125 187.872646 247.627054 187.166884 C 247.695593 186.827895 247.906766 186.405549 247.967895 185.99617 Q 247.997533 185.799816 248.047548 185.642362 Q 248.388389 184.569825 249.221967 181.761594 Q 250.329699 178.030869 255.925786 159.901475 Q 257.752248 153.981219 259.219345 149.509537 Q 259.369389 149.053848 259.586119 148.433295 L 260.675328 148.803774 L 260.267801 149.765167 C 260.245572 149.815182 260.230753 149.868902 260.225196 149.922621 C 260.175181 150.398687 259.958451 150.778428 259.819521 151.323032 Q 259.802849 151.395275 259.602791 152.043614 Q 250.937285 180.19632 249.731375 184.080793 Q 249.609117 184.471648 249.535022 184.908814 C 249.514645 185.038481 249.64987 185.134806 249.764719 185.073677 Q 251.141048 184.325309 252.183947 183.058271 Q 253.174979 181.856066 253.958542 180.520489 Q 256.811231 175.663508 259.508319 170.941752 Q 261.069888 168.207616 262.624048 165.497562 Q 262.97415 164.888124 263.420578 164.061955 Q 263.765123 163.426584 264.256008 162.646725 C 264.359742 162.481862 264.291204 162.265132 264.113374 162.189184 Q 263.629898 161.983568 263.129752 161.650137 Q 262.577738 161.279657 262.94266 160.842492 Q 263.594703 160.811001 263.828105 160.851754 Q 265.367445 161.127761 266.825281 161.618646 C 267.182793 161.76869 267.905227 162.322556 267.825574 162.776393 C 267.799641 162.926437 267.634777 163.022762 267.453243 162.994976 Q 267.023487 162.930142 265.784234 162.631906 C 265.636043 162.596711 265.482294 162.661544 265.404493 162.791212 Q 265.117372 163.272835 264.637602 164.230523 Q 264.511639 164.482449 263.867005 165.660573 Q 262.93525 167.357367 260.797586 171.076977 Q 257.987502 175.963596 254.651338 181.570797 C 254.60688 181.644893 254.643928 181.741217 254.729138 181.774561 Q 254.760629 181.787527 254.801382 181.748627 Q 256.348132 180.37415 257.565156 179.370151 Q 260.667918 176.806436 264.050392 174.996646 C 264.155979 174.939221 264.285646 175.005908 264.302318 175.124461 Q 264.31158 175.198557 264.254156 175.311553 C 261.934957 179.812874 258.578416 183.628808 254.590209 186.764914 Q 252.265452 188.593228 249.572069 190.019573 C 249.12379 190.258532 248.568071 190.410428 248.121644 190.716073 C 248.073482 190.747564 248.038286 190.795726 248.019762 190.851298 Q 246.956487 194.020747 246.121057 197.384697 Q 246.063632 197.616246 246.008061 197.677375 C 245.967308 197.723685 245.893212 197.708866 245.870983 197.651442 C 244.694712 194.515336 243.670338 191.940507 243.172043 188.971117 C 243.160929 188.909988 243.122029 188.856268 243.064604 188.830335 Q 242.105063 188.38576 240.721324 187.665178 Q 234.204597 184.27159 229.443941 178.518049 Q 227.322948 175.954334 225.807688 173.122022 C 225.741002 172.997911 225.879932 172.866391 226.000337 172.936782 C 227.439649 173.779622 228.160231 174.150101 229.286487 174.979974 Q 231.257436 176.4304 231.479723 176.623049 Q 233.860051 178.705141 236.877604 181.274414 Q 237.56299 181.856066 238.333586 182.295084 Q 238.44473 182.456242 238.546612 182.472914 C 238.602184 182.480323 238.642936 182.421047 238.61515 182.372884 Q 238.554021 182.263593 238.422501 182.187645 Q 237.683396 180.589028 236.764607 179.118226 Q 236.227413 178.256862 234.784397 174.748425 C 234.536176 174.144544 234.210154 173.525844 234.076782 172.814524 C 234.06752 172.770066 234.102715 172.729314 234.147173 172.729314 L 234.195335 172.729314 C 234.212006 172.729314 234.224973 172.74228 234.226826 172.758952 Q 234.267578 173.27577 234.515799 173.42211 C 234.576928 173.457305 234.617681 173.522139 234.623238 173.594382 Q 234.652877 173.998205 234.932588 174.279769 C 234.978898 174.326079 235.004832 174.38906 235.004832 174.455746 C 235.004832 174.792882 235.366049 175.044808 235.377163 175.343044 C 235.388278 175.687589 235.686513 175.856157 235.734676 176.176622 Q 235.773576 176.428547 236.788689 178.395791 Q 238.2669 181.263299 238.702213 181.946833 Q 239.19495 182.721135 239.587658 183.16571 Q 239.791422 183.397259 240.247111 183.912225 Q 240.52497 184.227132 240.828763 184.684674 C 241.258519 185.333012 241.899448 185.960974 242.386628 186.674147 Q 242.607063 186.998316 242.894184 187.255799 Q 242.88307 187.435481 243.020147 187.465119 C 243.072014 187.476234 243.114619 187.420662 243.088685 187.3725 Q 243.060899 187.31878 242.996066 187.257651 L 242.770073 186.08138 C 242.745992 185.953565 242.670044 185.840569 242.562605 185.768325 Q 242.021706 185.405256 241.425234 184.938452 Q 240.958431 184.57353 240.495332 183.897406 Q 238.655903 181.204023 237.600038 178.994115 Q 236.221856 176.108083 235.940291 175.567183 Q 235.145614 174.044514 234.341674 172.103204 Q 232.678223 168.092768 232.205862 166.875744 Q 231.248174 164.400944 230.21639 161.84649 C 230.149703 161.677922 230.014478 161.54455 229.84591 161.477864 L 228.84006 161.083304 C 228.797455 161.066632 228.751145 161.053665 228.704835 161.048108 Q 228.006482 160.948079 227.674903 160.56278 Q 227.534121 160.396065 227.717508 160.145991 L 231.931708 158.564046 Q 232.122504 158.556636 232.254024 158.61406 C 232.418888 158.686304 232.492984 158.880805 232.418888 159.045669 Q 232.172519 159.586568 231.827974 159.973719 Q 231.813154 159.992243 231.022182 161.14999 C 230.986986 161.201857 230.988838 161.270395 231.027739 161.318558 C 231.435266 161.816852 231.62421 162.55781 231.883545 163.182068 Q 233.169108 166.257044 234.280545 168.863364 Q 237.135086 175.54866 240.365664 181.587469 Q 241.036231 182.839688 241.89389 183.756624 Q 242.138407 184.019664 242.397742 184.032631 Q 242.734878 184.338276 242.477395 183.767738 Q 242.397742 183.339835 242.403299 182.85636 C 242.405151 182.785968 242.399594 182.715577 242.386628 182.647039 Q 242.177307 181.463358 242.034672 180.275973 Q 241.880924 178.99782 241.725322 177.92343 Q 240.30083 168.152045 238.479926 158.363987 Q 236.89798 149.854082 234.851083 141.936944 Q 233.821151 137.950589 232.609684 134.08464 C 232.55226 133.901253 232.407773 133.756766 232.220681 133.703047 C 231.49269 133.490021 231.177783 132.984317 231.103687 132.17482 Q 230.968462 130.72069 231.66311 129.331393 Q 232.074342 129.409194 232.361463 129.322131 Z M 248.727377 188.317221 Q 248.523614 188.646948 248.488418 189.032246 C 248.484713 189.063737 248.525466 189.080408 248.545842 189.056327 Q 248.792211 188.767353 248.890388 188.400579 Q 249.922172 186.933482 251.144753 185.588643 Q 251.278126 185.442304 251.348517 185.170001 C 251.355926 185.14592 251.32814 185.127396 251.307764 185.142215 L 250.046283 186.12769 C 249.979596 186.181409 249.896239 186.2129 249.809176 186.218457 C 249.15528 186.25921 249.183066 186.651918 248.957074 187.152065 Q 248.699591 187.718898 248.727377 188.317221 Z" style="fill:#333728;"/>
		<path d="M 259.26195 136.320481 Q 259.286031 136.898429 259.047072 137.518981 C 258.772918 137.265203 258.448748 137.339299 258.170889 137.222598 Q 257.655923 137.009572 257.081681 136.766909 Q 255.764627 136.214895 254.649485 135.492461 Q 253.443576 134.712602 252.811909 133.345534 C 252.502559 132.674967 252.639636 131.589463 253.265746 131.118955 C 254.918083 129.87785 256.564862 131.513515 257.439193 132.830568 Q 258.461715 134.371761 258.693265 135.007133 Q 259.050777 135.983345 259.26195 136.320481 Z" style="fill:#f6d4a2;"/>
		<path d="M 261.560773 134.871908 Q 263.088999 134.829303 264.246746 135.659176 Q 264.698731 136.101899 264.889527 136.403839 Q 265.20073 136.892872 265.445246 137.833888 Q 265.395231 138.613747 265.067357 139.402867 Q 264.715402 139.830771 264.519048 139.962291 Q 264.209698 140.169759 263.794762 140.523567 Q 263.127899 140.442061 262.872269 140.764378 Q 262.485118 140.643972 262.129458 140.714363 Q 261.733045 140.269788 261.03284 140.406866 Q 260.990235 140.267936 260.812405 140.269788 Q 260.792029 140.141973 260.719785 140.104925 Q 260.165919 139.819656 259.695411 139.369524 Q 259.124873 138.52298 259.047072 137.518981 Q 259.286031 136.898429 259.26195 136.320481 Q 259.608348 135.970379 259.921403 135.644357 Q 260.440073 135.099753 261.560773 134.871908 Z" style="fill:#e18646;"/>
		<path d="M 265.067357 139.402867 Q 265.395231 138.613747 265.445246 137.833888 Q 267.979323 137.044768 269.926191 136.794695 C 270.920927 136.666879 272.160179 137.102192 272.727012 137.995047 C 273.479085 139.18058 272.660326 140.697692 271.276587 141.064466 Q 269.637217 141.499779 267.968209 140.842179 Q 266.491849 140.260526 265.321135 139.352853 C 265.269268 139.313952 265.198877 139.3121 265.145158 139.349148 L 265.067357 139.402867 Z" style="fill:#f6d4a2;"/>
		<path d="M 250.435286 147.005098 Q 249.470188 147.305186 248.395798 147.64047 Q 247.736346 147.846086 246.28592 147.822005 Q 244.038964 146.825416 242.805269 144.596984 Q 242.503328 144.054232 242.373661 143.596691 C 242.006886 142.314833 242.703387 141.370111 244.042669 141.381226 Q 245.120763 141.39234 245.965456 142.290752 C 246.104385 142.437091 246.350754 142.335209 246.343344 142.133298 Q 246.317411 141.336768 246.637875 140.55691 C 247.182479 139.234299 248.612529 138.352559 249.746195 139.749265 Q 250.461219 140.629153 250.637197 141.683166 C 250.659426 141.814686 250.790946 141.899896 250.920613 141.866553 Q 251.011381 141.842472 251.481889 141.686871 C 252.847105 141.236739 252.787828 142.735327 252.595179 143.51148 Q 252.239519 144.943382 251.318878 145.936266 Q 251.317026 145.938118 250.759455 146.390103 Q 250.40009 146.679077 250.435286 147.005098 Z" style="fill:#faa878;"/>
		<path d="M 259.695411 139.369524 Q 260.165919 139.819656 260.719785 140.104925 Q 260.792029 140.141973 260.812405 140.269788 Q 260.547512 140.256822 260.445631 140.334622 Q 259.378651 141.158938 257.902292 141.96473 Q 256.929784 142.492663 255.670155 142.672345 Q 254.399412 142.852028 253.636225 142.112922 Q 253.556572 142.036974 253.295384 141.536827 C 252.898972 140.784754 253.901118 140.29387 254.39756 140.028977 C 254.464246 139.993781 254.538342 139.967848 254.612437 139.953029 Q 257.081681 139.438063 259.336046 139.486225 Q 259.48609 139.48993 259.695411 139.369524 Z" style="fill:#faa878;"/>
		<path d="M 262.129458 140.714363 Q 262.368417 142.079579 262.518461 143.342912 Q 262.653686 144.482136 262.787058 145.29719 C 262.85745 145.723241 262.848188 146.529033 262.722225 147.012508 Q 262.32396 148.553701 260.675328 148.803774 L 259.586119 148.433295 Q 258.695117 147.390396 258.713641 146.149292 C 258.724755 145.497248 258.930371 145.084164 259.085972 144.456202 C 259.22305 143.91345 259.528695 143.34847 259.738016 142.818685 C 260.067742 141.983254 260.59197 141.208953 261.03284 140.406866 Q 261.733045 140.269788 262.129458 140.714363 Z" style="fill:#faa878;"/>
		<path d="M 263.794762 140.523567 Q 265.597142 141.936944 267.368032 143.281783 Q 267.803345 143.615215 268.390555 144.343206 Q 268.901816 144.98043 268.699905 146.015919 C 268.685086 146.08631 268.648038 146.149292 268.594318 146.197454 C 267.4588 147.194043 266.301053 146.162258 265.63419 145.199013 Q 263.913315 142.71495 263.65398 142.133298 Q 263.227929 141.184872 262.872269 140.764378 Q 263.127899 140.442061 263.794762 140.523567 Z" style="fill:#faa878;"/>
		<path d="M 248.684772 149.515094 L 248.651429 152.065843 Q 248.523614 150.776575 248.684772 149.515094 Z" style="fill:#e18646;"/>
		<path d="M 231.931708 158.564046 L 227.717508 160.145991 Q 227.297014 159.703269 226.71351 159.484686 C 226.663495 159.466162 226.617185 159.440229 226.57458 159.406886 C 225.613187 158.686304 224.246119 156.970986 224.459144 155.703947 C 224.470259 155.640966 224.505454 155.585394 224.557321 155.548346 C 225.203807 155.090804 225.965142 155.274191 226.704248 155.548346 C 226.882078 155.615032 227.06917 155.48166 227.06917 155.292715 Q 227.065465 154.646229 227.328505 153.994186 C 228.086135 152.119562 229.586575 154.440614 229.93853 155.21121 C 230.016331 155.377926 230.257142 155.363106 230.310862 155.187129 Q 230.549821 154.409123 231.122211 153.855257 C 231.53159 153.456992 232.294777 153.234704 232.42815 154.010858 Q 232.778252 156.067017 231.737206 157.978689 Q 231.481576 158.45105 231.931708 158.564046 Z" style="fill:#faa878;"/>
		<path d="M 266.825281 161.618646 Q 265.367445 161.127761 263.828105 160.851754 Q 263.594703 160.811001 262.94266 160.842492 L 263.478002 160.627614 C 263.557655 160.596124 263.579884 160.494242 263.518755 160.433113 Q 262.105377 159.030849 262.518461 157.146963 C 262.670358 156.443053 263.368711 155.494627 264.09485 155.185276 Q 265.054391 154.775897 265.806463 155.798419 C 265.899083 155.924382 266.073208 155.957725 266.204728 155.874368 Q 266.753037 155.529822 266.782675 155.52056 Q 267.564386 155.272339 267.651449 155.679866 C 267.653301 155.69098 267.655154 155.702095 267.655154 155.713209 L 267.655154 157.723058 C 267.655154 157.82494 267.753331 157.897183 267.849655 157.867545 Q 268.877735 157.547081 269.84098 157.526704 Q 270.100316 157.521147 270.294817 157.804564 Q 270.411518 157.974984 270.324456 158.354725 C 270.050301 159.560635 269.357505 160.257135 268.299787 160.822116 C 267.888556 161.040698 267.290232 161.233348 266.825281 161.618646 Z" style="fill:#faa878;"/>
		<path d="M 238.333586 182.295084 Q 238.378044 182.241364 238.422501 182.187645 Q 238.554021 182.263593 238.61515 182.372884 C 238.642936 182.421047 238.602184 182.480323 238.546612 182.472914 Q 238.44473 182.456242 238.333586 182.295084 Z" style="fill:#e18646;"/>
		<path d="M 242.397742 184.032631 L 242.477395 183.767738 Q 242.734878 184.338276 242.397742 184.032631 Z" style="fill:#f6d4a2;"/>
		<path d="M 242.996066 187.257651 Q 243.060899 187.31878 243.088685 187.3725 C 243.114619 187.420662 243.072014 187.476234 243.020147 187.465119 Q 242.88307 187.435481 242.894184 187.255799 Q 242.933084 187.268765 242.996066 187.257651 Z" style="fill:#e18646;"/>
		<path d="M 245.057782 188.784025 Q 245.104092 188.485789 245.050372 188.228306 Q 245.070749 188.206078 245.089272 188.183849 C 245.092977 188.178292 245.09483 188.172734 245.09483 188.167177 Q 245.09483 188.16162 245.09483 188.156063 C 245.09483 188.37835 245.105944 188.559885 245.057782 188.784025 Z" style="fill:#46382a;"/>
		<path d="M 246.493388 190.401166 Q 246.532289 190.464148 246.667513 190.456738 Q 246.650842 190.478967 246.63417 190.501195 L 246.478569 190.499343 Q 246.46375 190.438214 246.493388 190.401166 Z" style="fill:#e18646;"/>
		<path d="M 246.63417 190.501195 Q 246.704561 190.77535 246.561927 190.967999 C 246.523027 191.021719 246.437816 190.990228 246.443374 190.923542 L 246.478569 190.499343 L 246.63417 190.501195 Z" style="fill:#f6d4a2;"/>
		<path d="M 245.317117 192.386934 Q 245.385656 192.49993 245.39677 192.675908 Q 245.315265 192.674055 245.291184 192.575878 Q 245.263398 192.45362 245.317117 192.386934 Z" style="fill:#46382a;"/>
		<path d="M 245.654253 193.163088 Q 245.735758 193.4817 245.698711 193.770673 C 245.695006 193.807721 245.643139 193.815131 245.62832 193.779935 Q 245.520881 193.516895 245.565338 193.170497 Q 245.596829 193.07973 245.654253 193.163088 Z" style="fill:#f6d4a2;"/>
		<path d="M 235.703185 127.901344 C 235.662432 127.88282 235.625384 127.864296 235.590189 127.845772 Q 235.65317 127.864296 235.703185 127.901344 Z" style="fill:#333728;"/>
		<path d="M 248.727377 188.317221 Q 248.749606 188.413546 248.890388 188.400579 Q 248.792211 188.767353 248.545842 189.056327 C 248.525466 189.080408 248.484713 189.063737 248.488418 189.032246 Q 248.523614 188.646948 248.727377 188.317221 Z" style="fill:#f6d4a2;"/>
	</g>
	<g id="surface4">
	</g>
</svg>
