<?xml version="1.0" encoding="utf-8"?>
<svg xmlns="http://www.w3.org/2000/svg" width="490pt" height="280pt" viewBox="0 0 490 280" version="1.1" xmlns:xlink="http://www.w3.org/1999/xlink">
	<g id="surface2" data-size="200.55271059558 148" data-bboxpos="144.5 53.111330359334" data-pivot="244.77635529779 127.11133035933" data-center="244.77635529779 127.11133035933">
		<path d="M 245.090386 53.113701 Q 248.493158 53.106589 250.381216 53.120812 C 251.664811 53.127923 253.31464 53.284373 254.41334 54.020395 C 256.077391 55.136874 256.877416 56.566252 256.895194 58.64276 Q 256.916528 60.879274 255.359147 62.76022 C 254.2 64.161153 253.005297 65.37719 252.16616 66.874125 Q 250.790117 69.334645 250.40255 72.317848 C 250.363437 72.62008 250.103874 72.847643 249.794531 72.844087 Q 247.120671 72.804975 245.115276 72.80853 Q 243.113436 72.812086 240.43602 72.854754 C 240.130233 72.861865 239.867114 72.634303 239.828002 72.332071 Q 239.433323 69.348868 238.050169 66.891903 C 237.207476 65.394968 236.009217 64.182487 234.846515 62.78511 Q 233.285578 60.907719 233.303356 58.671205 C 233.314023 56.594697 234.110492 55.161764 235.774543 54.041729 C 236.869688 53.305707 238.519517 53.142146 239.803112 53.135035 Q 241.69117 53.117256 245.090386 53.113701 Z" style="fill:#1d6c41;"/>
		<path d="M 286.922787 191.553525 C 286.702336 191.773976 286.862341 192.147321 287.171683 192.143765 Q 287.185906 192.143765 294.311459 192.204211 C 298.183578 192.236212 302.322373 192.613113 305.96693 192.574 Q 308.061216 192.552666 309.810604 192.801563 C 311.407097 193.032681 313.298711 192.801563 314.94854 193.064682 Q 316.011684 193.231799 317.6224 193.278022 Q 318.93444 193.313579 321.249178 193.580254 Q 324.491945 193.953599 324.872401 193.996267 Q 328.200504 194.376723 331.695723 195.169636 C 331.699278 195.169636 331.70639 195.169636 331.709945 195.173192 L 333.416665 195.902103 Q 333.423776 195.905659 333.430887 195.909214 Q 334.952712 197.025693 333.566003 198.394624 C 333.509112 198.451515 333.441554 198.490627 333.370441 198.515517 L 331.308155 199.208872 C 331.229931 199.233761 331.14815 199.255095 331.062814 199.265762 Q 329.352539 199.496881 328.435178 199.706665 C 326.351558 200.172457 323.485692 200.247126 322.123872 200.45691 C 319.464235 200.869367 317.131718 200.705807 314.12007 200.887146 Q 312.121786 201.008038 309.84616 201.029372 Q 303.829975 201.079152 292.60474 201.089819 Q 257.876558 201.128931 192.160754 201.09693 Q 185.223651 201.093374 181.422645 201.050706 Q 178.837677 201.022261 177.301629 200.912035 C 174.158421 200.680917 171.655233 200.830255 168.476468 200.4818 Q 167.647998 200.392908 163.765212 200.040897 Q 162.598954 199.934227 161.713593 199.724443 C 160.294883 199.386655 159.3953 199.379544 158.229041 198.949308 C 157.6068 198.721746 156.756996 198.607964 156.038752 197.91461 C 155.412955 197.310146 155.839634 196.271892 156.440542 195.944771 C 157.976589 195.098523 159.519748 195.027409 161.29758 194.572284 Q 161.784707 194.44428 163.502093 194.252274 C 165.116365 194.070936 167.427547 193.61581 169.016929 193.608699 C 170.588533 193.601588 171.74768 193.292245 173.440177 193.288689 C 175.51313 193.281578 177.582527 192.879788 179.509697 192.901122 Q 181.536427 192.922456 182.468011 192.83712 C 186.023676 192.499332 190.048689 192.638002 193.255899 192.467331 Q 197.661368 192.229101 203.627774 192.147321 Q 203.994008 192.140209 204.132679 191.916202 C 204.299795 191.645972 204.207348 191.293961 203.930006 191.144623 Q 199.912104 188.993446 195.997317 185.67601 C 189.173995 179.894498 184.807639 172.178705 182.372008 163.595329 Q 180.825294 158.144495 180.089271 152.547878 Q 179.587922 148.725537 179.54881 148.590422 C 179.2288 147.516611 179.456362 146.257906 179.235911 145.123649 Q 178.983459 143.825831 178.994126 142.808911 C 179.001237 141.767101 178.656338 140.824849 178.659893 139.704815 C 178.667005 137.67453 178.275882 135.882475 178.311438 133.98375 C 178.339884 132.51526 177.945205 131.021881 177.94876 129.460944 Q 177.952316 128.003121 177.834979 127.487549 Q 177.066955 124.109667 174.172644 122.641178 C 172.768156 121.926489 171.018769 121.336249 169.297827 120.973571 Q 160.678895 119.160182 154.360478 118.388602 C 151.398609 118.025924 148.490074 117.314791 146.555793 115.16717 Q 144.856185 113.282667 144.557509 111.063932 Q 144.233943 108.642524 145.730878 106.651351 C 146.744243 105.30731 148.657191 104.283278 150.161237 104.069938 C 151.544391 103.874377 153.603121 103.966824 155.302729 104.194387 Q 158.225486 104.581954 161.400695 105.079747 C 161.788262 105.140194 162.463839 105.06908 162.886963 105.168639 C 164.319896 105.506427 165.539489 105.410424 167.061314 105.659321 C 168.448023 105.883328 169.955625 105.762435 171.45256 105.993553 C 173.571737 106.317119 176.828726 106.196226 181.71421 106.203338 Q 182.468011 106.206893 182.475122 107.042475 C 182.496456 111.017708 182.464455 116.329872 182.748908 121.016239 C 182.940914 124.127446 182.859134 127.018202 183.154254 130.502753 Q 183.513376 134.726884 183.516932 134.776663 Q 183.66627 138.808787 183.868943 140.095938 Q 183.897388 140.284388 184.455628 145.400991 Q 184.949865 149.962909 185.952563 154.926618 Q 186.84859 159.364088 188.206854 163.513549 Q 190.29403 169.895968 194.109259 175.446361 Q 196.989347 179.631379 200.708573 182.724808 Q 205.035818 186.326697 209.953303 188.627212 Q 210.55421 188.90811 213.569414 190.045923 Q 215.304579 190.700165 216.666399 190.991729 C 218.03533 191.279738 219.496708 191.717085 220.886973 191.884201 Q 226.380476 192.541999 227.802742 192.563333 C 230.768167 192.609557 233.655367 192.862009 236.819909 192.872676 Q 257.986784 192.9189 261.759344 192.854898 Q 264.607432 192.805119 271.025408 192.193544 Q 272.067218 192.093986 272.849464 191.834422 C 273.653044 191.564192 274.424624 191.496634 275.267316 191.247737 Q 282.495984 189.128561 287.900595 184.47064 C 290.105107 182.57547 292.41629 180.161173 294.165677 177.714876 Q 298.162244 172.136037 300.530317 165.618503 Q 301.508125 162.923309 302.109033 160.637016 Q 303.765973 154.357711 304.49844 148.09974 Q 304.882452 144.860529 304.907341 144.732525 Q 305.19535 143.288925 305.206017 142.656017 Q 305.230907 141.07019 305.319798 140.543952 Q 305.636253 138.648782 305.614919 137.610528 C 305.582918 136.280709 305.945596 135.135785 305.927817 133.699296 Q 305.902928 131.814794 306.080711 130.083185 Q 306.404276 126.986201 306.336719 125.937279 C 306.226493 124.202115 306.610505 122.232276 306.621172 120.404664 Q 306.678063 112.166188 306.742065 107.28426 Q 306.759843 106.150003 307.730539 106.164225 Q 309.999054 106.196226 314.479192 106.164225 Q 317.177942 106.142891 321.206511 105.73399 Q 329.288537 104.916187 333.331329 104.29039 Q 336.360756 103.824598 338.906612 104.048605 C 341.722699 104.301057 344.400114 106.370454 344.947687 109.23632 C 345.569928 112.496865 343.397417 115.433844 340.623998 116.998337 C 339.507519 117.62769 338.387485 117.79125 337.068333 118.13615 C 336.879883 118.185929 336.691432 118.21793 336.499426 118.228597 Q 334.074463 118.381491 332.655752 118.687278 C 331.201485 119.003732 329.427208 119.074846 328.125835 119.394855 C 326.956021 119.682864 325.466197 119.700643 324.403054 119.992207 C 323.23324 120.312217 322.223431 120.40822 321.135397 120.664228 C 317.9673 121.400251 315.403665 122.015381 313.341379 123.953218 Q 312.640913 124.611016 312.096896 125.809275 Q 311.687995 126.705303 311.570658 127.964008 Q 311.090643 133.069944 310.873747 138.414108 C 310.795523 140.330612 310.422178 142.944026 310.159059 145.788558 Q 309.579485 152.007416 308.114551 159.730321 Q 307.936768 160.661905 307.648759 161.732161 Q 307.193634 163.410435 307.111854 163.716222 Q 304.726002 172.665831 300.188974 179.162031 Q 295.97551 185.195995 289.891767 189.569463 Q 288.345053 190.682387 287.712145 190.895727 C 287.584141 190.938394 287.470359 191.009508 287.374356 191.101955 L 286.922787 191.553525 Z" style="fill:#1d6c41;"/>
	</g>
	<g id="surface4">
	</g>
</svg>
