<?xml version="1.0" encoding="utf-8"?>
<svg xmlns="http://www.w3.org/2000/svg" width="490pt" height="280pt" viewBox="0 0 490 280" version="1.1" xmlns:xlink="http://www.w3.org/1999/xlink">
	<g id="surface2" data-size="152.80839625473 148" data-bboxpos="168.5 53.287090276137" data-pivot="244.90419812736 127.28709027614" data-center="244.90419812736 127.28709027614">
		<path d="M 276.07515 86.238635 C 275.189768 86.697721 274.224229 86.085606 273.604826 86.041883 Q 270.34021 85.808696 269.60057 85.695746 Q 269.432967 85.670242 269.19978 85.881567 C 269.039464 86.030953 269.061325 86.289644 269.247146 86.409881 Q 274.417337 89.751012 278.913471 93.587665 Q 282.819352 96.925153 284.575541 101.486871 C 284.717639 101.858513 284.433442 102.255659 284.036296 102.241085 C 283.340379 102.211937 282.360265 101.395782 281.857456 101.23911 Q 281.281776 101.056933 280.746175 100.805528 Q 274.526643 97.887048 267.592977 95.365715 C 267.480027 95.321993 267.35979 95.292844 267.239553 95.281914 Q 266.2813 95.16532 265.446929 94.64065 C 265.363127 94.58964 265.275682 94.553205 265.18095 94.531343 L 264.579765 94.407463 C 264.098817 94.305444 263.807333 94.917559 264.182618 95.230904 Q 264.710932 95.675417 265.155445 96.320324 Q 269.811896 103.0791 272.019884 108.132697 Q 274.672385 114.195556 275.678003 120.404157 Q 275.79824 121.143797 276.184456 123.55218 Q 276.48687 125.457755 276.472296 126.729352 C 276.450435 128.394452 276.636256 131.717365 276.144377 134.176758 Q 275.732656 136.217143 275.696221 136.993218 C 275.688934 137.146247 275.656142 137.299276 275.594202 137.437731 C 275.091393 138.61824 274.898285 139.94449 274.431911 141.376403 Q 273.160314 145.260422 270.770148 149.443212 Q 270.504169 149.909586 270.485951 150.423326 C 270.475021 150.743958 270.861237 150.915204 271.087136 150.689305 Q 272.103685 149.683686 272.890691 148.554187 Q 277.128134 142.484041 278.519968 135.069427 C 278.66571 134.293351 278.643849 133.823334 278.724007 133.029041 C 278.738581 132.886943 278.804165 132.755775 278.906184 132.6574 Q 279.623963 131.986987 280.141346 131.841246 Q 284.407937 130.631589 286.612282 129.950246 C 287.872949 129.560386 289.177338 129.440149 290.306837 128.981063 C 290.485371 128.908192 290.674835 128.860826 290.864299 128.838964 C 292.307143 128.685935 293.848363 128.12483 295.331286 128.02281 C 296.719476 127.924435 298.493883 127.359685 300.024172 127.33418 Q 302.512713 127.297745 305.055908 127.352398 C 305.227154 127.356042 305.398401 127.381546 305.56236 127.425269 C 306.644493 127.716752 307.799497 127.647525 308.969075 127.920791 C 313.202875 128.915479 317.524119 130.551431 320.027235 134.369866 C 321.626751 136.803754 321.805285 140.542031 320.143828 142.97592 Q 318.945102 144.732108 316.941152 145.668499 Q 313.968019 147.049403 310.841857 145.471748 C 309.348004 144.713891 307.868725 142.779168 306.218199 142.065033 C 305.56236 141.780837 304.389139 141.482066 303.514688 141.482066 Q 300.694584 141.471135 299.30275 141.937509 Q 295.4078 143.241898 291.684097 145.577411 Q 286.076681 149.093432 281.157895 152.733333 Q 278.472602 154.722709 275.721726 156.763094 C 275.38652 157.010855 275.189768 157.400715 275.193412 157.816079 Q 275.193412 158.872707 275.361015 159.925692 Q 276.639899 167.970639 278.866105 176.441882 Q 280.429186 182.395434 282.538799 187.984633 Q 282.884936 188.899162 283.821327 189.511278 C 283.919702 189.576862 284.039939 189.613297 284.160176 189.616941 C 286.56856 189.689812 288.743756 189.871989 290.386995 191.500654 Q 293.196168 194.277035 293.21803 198.37238 C 293.225317 199.917243 293.283613 201.258068 291.465484 201.265355 Q 288.098849 201.283572 276.967818 201.272642 Q 275.892972 201.268998 275.419312 200.37633 C 268.441923 187.197627 261.661285 174.120943 253.864099 159.466605 Q 253.4961 158.774331 252.752817 159.04031 Q 247.717438 160.865726 242.762216 162.191977 C 242.649267 162.224768 242.53996 162.239343 242.42701 162.242986 C 240.951375 162.301283 239.570471 162.938903 238.317091 163.135655 Q 236.662922 163.401634 234.990535 163.474504 Q 234.294618 163.507296 234.014065 163.824285 C 233.656997 164.232362 233.944837 164.873626 234.487725 164.873626 Q 235.518849 164.877269 239.83645 164.964714 C 241.986141 165.008437 241.508837 167.522483 241.363095 169.398909 Q 241.32666 169.894431 240.339259 172.324676 Q 239.78544 173.694649 238.838118 175.039117 Q 236.841456 177.888369 235.42776 179.229194 Q 232.090273 182.406365 231.948175 182.563037 C 230.931625 183.707111 231.266832 184.570631 232.480132 185.401359 Q 233.973986 186.425195 235.212791 186.847847 Q 240.215378 188.553026 241.96428 189.391041 C 243.40348 190.083315 244.846324 191.285685 244.857255 193.020012 Q 244.875473 195.501266 243.465421 197.00605 Q 242.52903 198.008025 240.783771 197.957016 C 236.34229 197.822204 232.935575 197.989808 231.164812 197.847709 C 230.261213 197.778482 228.945893 197.210089 228.060512 196.699993 Q 220.551165 192.36053 215.35547 185.346706 Q 214.692345 184.454037 215.439272 183.754477 C 216.874828 182.406365 218.007971 180.675681 218.22294 178.664444 C 218.496206 176.088458 218.099059 173.763876 216.612493 171.7745 C 216.375663 171.457512 215.898358 171.457512 215.661528 171.7745 C 213.111046 175.162997 209.769915 177.775419 206.097222 180.08907 Q 203.987609 181.418964 202.726943 182.052941 Q 198.205303 184.330157 196.893627 184.967777 Q 196.215927 185.29934 195.968166 186.028049 C 195.949949 186.086346 195.939018 186.144642 195.935374 186.206583 L 195.873434 190.301927 C 195.866147 190.822954 196.234145 191.27111 196.747885 191.362199 C 200.129095 191.95974 203.295336 193.143893 203.860085 196.962328 Q 204.078698 198.448894 203.903808 200.26338 C 203.892877 200.379973 203.860085 200.492923 203.805432 200.594942 Q 203.452008 201.265355 202.286074 201.268998 Q 192.193454 201.312721 189.165668 201.25078 Q 188.568126 201.23985 187.573438 200.84999 C 186.29091 200.343538 184.483712 199.640334 182.964354 198.729447 Q 180.406585 197.191871 178.318834 195.468474 C 172.45637 190.629846 169.173535 182.592186 168.612429 175.137492 Q 168.350094 171.665194 168.699874 166.957734 Q 168.761815 166.137936 169.246406 163.780562 Q 169.618048 161.962433 170.029768 160.639826 Q 173.596799 149.129867 182.702018 141.073989 Q 186.11602 138.05349 189.049074 135.222455 Q 191.832743 132.533519 193.075191 129.148666 Q 193.884058 126.940677 193.712812 123.82909 Q 193.545209 120.743007 191.96391 118.819215 Q 190.167642 116.636732 187.467775 115.940815 C 187.223658 115.875231 186.983184 116.053765 186.96861 116.305169 L 186.790076 119.493271 C 186.786433 119.580716 186.764571 119.668161 186.731779 119.751963 Q 185.831824 121.894367 184.235951 122.641294 C 182.133625 123.625051 179.05483 123.457448 177.411591 121.679398 C 174.034025 118.028566 175.804787 112.865663 180.355575 111.470185 Q 184.833492 110.096568 189.66119 112.016716 Q 193.898633 113.703678 196.09569 117.365441 Q 198.259956 120.976194 198.106927 125.552487 Q 197.917463 131.309288 194.186473 135.721621 C 193.118914 136.982288 192.546877 137.740145 191.541259 138.654675 Q 186.975897 142.808316 185.263431 144.367754 Q 182.585425 146.808929 180.104171 150.131842 Q 175.203603 156.697511 173.509354 164.589429 Q 172.937317 167.252861 172.908169 170.612209 Q 172.871734 174.667475 173.097633 176.667781 Q 173.55672 180.781344 175.382136 185.000569 C 177.116464 189.008469 180.337358 193.344288 184.21409 195.461187 C 184.636741 195.690731 185.12862 195.308158 185.012026 194.841785 C 184.698681 193.599336 184.622167 192.433401 184.348901 191.263823 Q 183.41251 187.219488 182.938849 183.350043 C 182.851404 182.617691 183.088234 181.69223 183.518173 180.938016 C 185.292579 177.830072 187.500567 174.911593 189.708556 171.883807 C 189.981822 171.508522 190.127563 171.056722 190.12392 170.590348 Q 190.091128 166.786487 190.094772 164.753389 C 190.098415 163.208526 190.368037 162.191977 190.455482 160.745489 Q 190.480987 160.30462 190.736035 159.164191 C 191.934762 153.804536 194.692925 148.801948 198.824706 145.180264 C 201.167505 143.125305 203.53581 141.132286 206.461576 139.124692 Q 212.779484 134.792517 218.197435 130.208937 Q 220.605819 128.168552 221.906564 125.38124 C 222.096028 124.969519 222.689926 125.002311 222.835668 125.43225 Q 224.569996 130.587866 227.983997 134.777943 Q 228.231758 135.084001 228.435797 135.240673 C 228.701776 135.444712 229.080705 135.226099 229.040626 134.894536 Q 228.967755 134.296995 228.566965 133.397039 C 228.505024 133.262228 228.461302 133.12013 228.42851 132.974388 Q 227.747167 129.596822 227.411961 126.23383 Q 227.054893 122.634007 227.371882 120.032516 C 227.568633 118.407495 227.579564 117.270709 227.849186 115.871587 Q 228.545103 112.279052 229.823988 108.380458 Q 230.574558 106.092312 230.9462 104.882655 C 231.00814 104.68226 230.851467 104.478222 230.640142 104.489152 Q 230.038957 104.521944 229.419554 104.904516 Q 225.68492 107.229098 222.988697 110.869 Q 219.243133 115.918953 217.519736 121.941733 C 217.373994 122.448186 217.373994 122.972857 217.108015 123.399151 C 216.922194 123.701566 216.466751 123.66513 216.33194 123.333568 Q 215.439272 121.140154 215.027551 118.476722 Q 214.335277 114.002449 216.390237 109.90346 C 217.042431 108.595428 217.993397 106.999555 218.886065 105.808116 Q 223.065211 100.248066 229.007834 95.759218 C 229.200941 95.613476 229.251951 95.347497 229.124427 95.143459 C 229.000547 94.935777 228.741855 94.859262 228.523242 94.961282 Q 228.111521 95.158033 227.455683 95.267339 C 226.657747 95.398507 226.297036 95.737357 225.641198 95.894029 Q 225.258626 95.981474 224.865123 96.138147 Q 218.292167 98.728707 214.164031 104.776992 C 213.934487 105.119486 213.562846 105.338098 213.151125 105.378177 L 209.420135 105.731601 C 208.986553 105.775324 208.64406 105.363603 208.764297 104.944595 Q 209.667896 101.785642 211.158106 99.311675 Q 212.309466 97.402457 215.096778 94.677085 Q 220.875441 89.033234 221.928425 88.122347 Q 223.531585 86.730513 224.518986 85.604658 C 224.770391 85.316818 224.504412 84.872305 224.13277 84.963394 L 220.28883 85.892498 C 220.135801 85.928933 219.986416 85.990874 219.855248 86.078319 Q 218.773115 86.774236 218.361395 87.196887 Q 214.411792 91.266727 210.298229 95.347497 Q 209.850073 95.79201 209.354551 95.868524 C 209.146869 95.901316 208.968335 95.73007 208.99384 95.522388 C 209.354551 92.654918 210.939493 88.993155 213.679439 87.601321 Q 219.501824 84.646405 224.365957 80.456329 Q 224.569996 80.281438 224.569996 80.037321 C 224.573639 79.764055 224.314947 79.56366 224.041682 79.621957 Q 223.451427 79.753124 222.879391 79.968093 C 220.97746 80.689515 217.089797 82.689822 213.734092 83.92134 Q 212.458852 84.391357 210.975929 84.977968 C 210.702663 85.087274 210.443971 84.792147 210.586069 84.533456 Q 214.014645 78.375864 220.004634 74.601151 C 220.390849 74.360677 220.45279 73.821433 220.135801 73.497157 C 218.263019 71.573365 216.714512 68.9573 216.328297 66.20278 Q 216.058674 64.253483 217.65819 63.27337 Q 219.8261 61.943476 222.321928 61.222054 Q 225.003577 60.449622 229.237377 60.697383 Q 233.13597 60.926927 237.03092 63.04747 C 237.362483 63.226004 237.723194 62.865293 237.541016 62.53373 Q 236.703001 60.999797 235.445978 59.633468 Q 232.687814 56.6239 230.221134 54.007834 C 230.028026 53.803796 230.140976 53.464946 230.417886 53.413936 Q 230.818676 53.341066 231.554672 53.450372 Q 232.859061 53.647123 234.986891 54.018765 Q 239.643342 54.831276 241.91327 58.711651 Q 244.336228 62.858005 245.3965 68.050057 C 245.494875 68.541936 246.161644 68.625737 246.3839 68.177581 Q 246.482276 67.977186 246.562434 67.222973 C 246.587939 67.011647 246.642592 66.803965 246.733681 66.607213 Q 247.014234 65.987811 247.34944 64.504888 Q 247.804883 62.490007 249.491844 59.207173 Q 251.207954 55.869686 254.552729 54.616306 Q 257.070418 53.668985 259.937888 53.373857 Q 261.045526 53.257264 261.231347 53.297343 C 261.340653 53.319204 261.409881 53.428511 261.384376 53.537817 Q 261.242277 54.113497 260.976299 54.386763 Q 256.997547 58.493038 256.236046 59.589745 Q 255.627574 60.464196 254.148295 62.88351 C 254.020771 63.094836 254.162869 63.368102 254.41063 63.382676 Q 254.68754 63.400894 255.073756 63.22236 Q 256.808083 62.413493 259.187318 61.49532 Q 260.116422 61.134609 261.213129 60.967006 Q 263.12599 60.679165 263.311811 60.668235 Q 268.157726 60.384038 271.334897 61.55726 Q 273.524668 62.36977 275.320936 63.757961 C 275.554123 63.940138 275.703508 64.209761 275.739944 64.504888 C 275.892972 65.834782 275.78731 67.248477 275.207986 68.622094 Q 274.00926 71.47499 271.855924 73.908878 C 271.637312 74.156639 271.691965 74.542855 271.972518 74.721388 Q 275.2845 76.801853 278.042664 80.081043 Q 280.039327 82.456635 281.478527 84.515238 C 281.657061 84.770286 281.4093 85.109136 281.110529 85.01076 Q 278.581909 84.172745 276.559741 83.192631 Q 275.710795 82.78091 274.592227 82.358259 Q 273.710489 82.026696 272.64293 81.476521 Q 269.476689 79.844213 268.664179 79.538155 Q 268.416418 79.447066 268.372695 79.461641 C 267.920896 79.629244 267.800659 80.212211 268.150439 80.543774 C 269.03582 81.381789 270.354784 82.474853 271.506144 83.156195 Q 272.453466 83.717301 273.987398 84.766642 C 274.12221 84.857731 274.264308 84.930602 274.417337 84.985255 Q 275.156976 85.240303 276.100655 86.016378 C 276.173525 86.078319 276.162595 86.194912 276.07515 86.238635 Z M 219.188479 65.856643 Q 219.399805 66.250146 220.011921 66.42868 Q 224.602788 67.773148 227.732593 69.365377 Q 229.044269 70.028502 230.439747 70.524024 C 230.629211 70.589608 230.742161 70.790003 230.698439 70.986755 Q 230.487113 71.934076 230.184699 72.768448 C 228.843874 76.484864 228.523242 81.56761 230.585489 85.098205 C 231.9336 87.408213 233.893828 89.70729 235.686452 91.634725 Q 235.959718 91.926209 236.192905 92.643987 C 236.243914 92.797016 236.247558 92.957332 236.203835 93.110361 Q 235.675521 95.048727 235.660947 95.303775 Q 235.445978 99.661455 235.752036 101.049646 C 236.05445 102.419619 236.965336 105.130416 238.477407 105.196 Q 241.15177 105.30895 243.232234 104.179451 C 244.241496 103.632919 245.385569 102.539856 245.738993 101.723701 Q 246.099704 100.885686 245.881091 99.344466 C 245.85923 99.187794 245.786359 99.042052 245.669766 98.932746 Q 244.565771 97.883405 244.248783 97.68301 Q 241.723806 96.094424 240.138864 94.698946 C 239.767222 94.371027 240.004053 93.758912 240.499575 93.766199 C 241.585351 93.780773 242.674771 93.485646 243.888072 93.383627 Q 246.453128 93.165014 249.739605 93.383627 C 250.723363 93.445567 251.630605 93.430993 252.694521 93.798991 C 252.97143 93.893723 253.095311 94.217998 252.949569 94.473047 Q 252.534205 95.21633 251.667041 95.821158 Q 248.369632 98.127522 248.285831 98.182176 Q 247.014234 99.027478 247.221916 100.535906 Q 247.378588 101.70184 247.626349 101.916809 C 248.019852 102.255659 248.599176 103.275852 249.200361 103.665711 Q 251.747199 105.301663 254.596451 105.185069 C 254.727619 105.181426 254.858786 105.152277 254.979023 105.104911 Q 256.072087 104.656755 256.483807 103.789592 Q 258.633499 99.231517 257.383763 94.604214 C 256.997547 93.179588 256.819014 92.206762 257.726256 91.128272 Q 259.708345 88.774542 261.763304 86.154833 Q 262.207817 85.590084 263.246227 83.065107 C 263.260801 83.032315 263.271732 82.999523 263.275376 82.966731 L 263.585077 80.809752 C 263.621512 80.543774 263.647017 80.281438 263.657948 80.01546 C 263.654304 79.246672 263.698027 78.179113 263.530424 77.319236 C 263.293593 76.091361 263.362821 75.187762 263.034902 74.174857 Q 262.502944 72.517044 261.879898 71.292812 C 261.726869 70.990398 261.86168 70.6224 262.171381 70.487589 L 270.431298 66.880479 C 270.449516 66.869549 270.467734 66.865905 270.489595 66.862262 Q 271.826776 66.585352 272.832395 65.969593 C 273.029146 65.849356 272.999998 65.557872 272.788672 65.477714 C 270.569753 64.625125 267.053732 64.723501 264.703645 65.827495 C 263.544998 66.370383 262.754349 67.095448 261.526474 68.035483 C 260.907071 68.509144 260.42248 68.60752 259.777572 68.254096 C 258.571559 67.590971 257.686177 67.222973 256.268838 67.157389 Q 251.659754 66.94242 247.538904 69.288863 C 246.919502 69.642287 246.205367 69.970206 245.640617 69.664148 Q 242.576396 68.009978 241.199136 67.725782 Q 239.858311 67.448872 239.603263 67.383289 C 238.021964 66.975211 236.192905 67.226616 234.651685 67.700277 C 234.531448 67.736712 234.414855 67.787722 234.305548 67.849662 C 233.729868 68.184868 231.940887 69.168626 231.314198 68.501857 C 229.634523 66.709233 227.554059 65.35019 225.171181 65.044133 Q 222.29278 64.676135 219.385231 65.408487 C 219.188479 65.459497 219.093747 65.678109 219.188479 65.856643 Z M 246.624374 114.224705 Q 249.123846 114.217418 251.64518 113.499639 C 252.355671 113.299244 253.317567 112.869306 253.820376 112.5341 C 255.299655 111.553986 255.390744 110.213162 255.347021 108.278439 C 255.328804 107.403988 254.906152 107.02506 254.064494 106.890248 Q 252.126128 106.580547 250.085742 105.625938 C 249.976436 105.578572 249.863486 105.538493 249.746893 105.512988 C 248.617394 105.24701 247.932407 104.689547 246.606157 104.693191 C 245.276263 104.696834 244.591276 105.254297 243.465421 105.523919 C 243.348827 105.553067 243.235877 105.589503 243.126571 105.640512 Q 241.089829 106.602408 239.151463 106.919397 C 238.313448 107.057852 237.890797 107.43678 237.876222 108.311231 C 237.839787 110.245954 237.934519 111.586778 239.417442 112.563248 C 239.923895 112.894811 240.885791 113.321106 241.599926 113.521501 Q 244.121259 114.228348 246.624374 114.224705 Z M 269.469402 146.473723 C 269.454828 146.670474 269.637005 146.823503 269.82647 146.772494 Q 270.274626 146.6559 270.398506 146.247823 Q 270.937751 144.47706 271.538936 142.640713 Q 271.994379 141.263453 272.136477 140.454586 Q 272.311368 139.470829 272.632 138.239311 C 272.69394 138.006124 272.730375 137.769294 272.744949 137.532463 C 272.832395 136.03861 273.087443 134.767012 273.142096 133.389752 Q 273.33156 128.660431 272.803246 124.951302 Q 271.775766 117.748013 267.101098 112.07137 Q 266.423399 111.247928 265.435998 110.439061 C 264.466815 109.648412 263.523137 108.773961 263.158782 108.741169 C 262.77621 108.708378 262.433717 108.981643 262.382707 109.364216 Q 262.156807 111.113117 261.963699 114.534406 C 261.901759 115.645687 262.342628 116.549287 262.852724 117.314431 Q 264.845744 120.309425 265.971599 122.918204 Q 267.523749 126.507096 268.416418 130.329174 Q 269.25079 133.877987 269.473046 138.05349 Q 269.724451 142.779168 269.469402 146.473723 Z M 248.307692 137.375791 Q 248.278544 137.288346 246.952293 134.296995 Q 246.263663 132.741201 245.3965 131.276496 Q 241.880479 125.322943 239.592332 122.335236 Q 238.47012 120.874175 238.379032 120.79766 C 238.328022 120.750294 238.269725 120.713859 238.207785 120.681067 Q 237.686758 120.418732 237.464502 120.462454 Q 237.19488 120.520751 237.074643 121.267678 Q 236.983554 121.847001 236.542685 123.610477 C 236.473458 123.89103 236.426092 124.17887 236.40423 124.46671 Q 236.320429 125.519695 236.05445 127.068201 Q 235.752036 128.846251 236.112747 131.673643 Q 236.283993 132.988962 237.129296 133.936284 Q 238.816257 135.834571 241.603569 137.649057 C 241.701945 137.710997 241.78939 137.783868 241.865904 137.864026 Q 242.448872 138.468854 243.21766 138.884218 C 243.421698 138.997168 243.673103 138.847783 243.673103 138.614596 C 243.676746 137.936897 243.490926 137.776581 243.210373 137.277415 Q 240.284606 132.089007 240.098785 131.808454 C 240.033201 131.710078 239.993122 131.597128 239.978548 131.476891 L 239.883816 130.762756 C 239.843737 130.449411 240.229953 130.267234 240.444922 130.500421 Q 244.503831 134.912754 247.611775 137.649057 Q 247.92512 137.925966 248.205673 137.710997 C 248.307692 137.630839 248.347771 137.496028 248.307692 137.375791 Z M 251.411993 141.37276 Q 251.841931 140.85902 252.04597 140.279696 Q 253.200973 137.029654 254.130077 134.613983 Q 254.58552 133.433475 255.518268 134.111174 Q 256.647767 134.930972 257.292675 135.266178 Q 260.345965 136.862051 263.249871 138.250241 Q 263.861986 138.541725 264.270063 138.151866 C 264.375726 138.049846 264.386657 137.882243 264.291925 137.76565 Q 261.307861 134.184045 258.914052 131.538831 Q 256.228759 128.580273 253.583546 126.587253 C 253.273844 126.354067 252.825688 126.47066 252.669016 126.827727 C 252.370245 127.494496 252.403037 128.332512 252.188068 129.243398 Q 251.583239 131.823028 251.116865 135.175089 C 250.898253 136.741814 250.941975 138.702041 250.606769 140.246904 Q 250.479245 140.844446 251.095004 141.394621 C 251.189736 141.478422 251.331835 141.467492 251.411993 141.37276 Z" style="fill:#f4b233;"/>
		<path d="M 279.598458 124.11693 L 278.498107 118.199813 C 278.494464 118.181595 278.49082 118.167021 278.487177 118.152447 C 278.15197 117.17962 277.933358 116.250516 277.634587 115.357847 C 276.432217 111.779886 275.743587 109.087306 275.703508 105.407326 Q 275.688934 104.401707 275.554123 103.887967 Q 275.229847 102.656449 275.153333 102.394114 C 275.10961 102.237441 275.291787 102.120848 275.415668 102.226511 Q 276.104298 102.816765 276.701839 103.632919 Q 277.419618 104.613033 278.334148 106.274489 Q 282.021415 112.960395 280.939282 120.440593 C 280.706096 122.072901 280.600433 123.096737 279.955525 124.17887 C 279.864437 124.331899 279.63125 124.29182 279.598458 124.11693 Z" style="fill:#f4b233;"/>
		<path d="M 252.832975 91.918922 C 252.800183 92.002723 252.679946 91.991792 252.658085 91.904347 Q 251.116865 85.502639 251.991316 79.042633 Q 252.060544 78.517962 252.694521 78.029727 C 252.774679 77.967787 252.869411 77.924065 252.97143 77.902203 Q 255.459971 77.362959 258.444035 76.302687 C 259.500663 75.927402 260.364183 75.362652 261.333366 74.852556 C 261.530118 74.750537 261.770591 74.841625 261.850749 75.049308 Q 261.945482 75.297069 261.803383 75.635918 Q 260.571865 78.568972 257.653385 80.208567 Q 257.573227 80.25229 254.046276 82.296319 C 253.587189 82.562298 253.295705 83.046889 253.273844 83.578847 Q 253.055232 88.891135 253.08438 90.876868 Q 253.091667 91.274014 252.832975 91.918922 Z" style="fill:#f4b233;"/>
		<path d="M 231.044575 74.903566 Q 231.306911 74.896279 231.591107 75.060238 C 232.990228 75.869105 234.706338 76.728982 236.710288 77.206286 Q 238.74703 77.690878 240.23724 78.164539 C 240.710901 78.313924 241.042463 78.747506 241.057037 79.243028 Q 241.144482 81.931964 241.086186 85.46256 C 241.057037 87.462866 240.732762 89.069669 240.667178 90.997105 C 240.659891 91.223004 240.543298 91.430686 240.35019 91.550923 L 240.339259 91.554567 C 240.211735 91.634725 240.044132 91.550923 240.036845 91.397895 C 239.956687 89.802022 240.036845 88.727176 239.774509 87.185956 Q 239.628768 86.315149 239.563184 83.786529 Q 239.544966 83.123404 239.15875 82.529506 C 239.09681 82.434774 239.009365 82.358259 238.907346 82.307249 Q 235.722887 80.685872 234.188955 79.651105 C 232.764329 78.692853 231.040932 76.940307 230.825963 75.15497 C 230.811388 75.023803 230.913408 74.907209 231.044575 74.903566 Z" style="fill:#f4b233;"/>
	</g>
	<g id="surface4">
	</g>
</svg>
