<?xml version="1.0" encoding="utf-8"?>
<svg xmlns="http://www.w3.org/2000/svg" width="490pt" height="280pt" viewBox="0 0 490 280" version="1.1" xmlns:xlink="http://www.w3.org/1999/xlink">
	<g id="surface2" data-size="183.39603059442 148" data-bboxpos="153.5 52.534329472082" data-pivot="245.19801529721 126.53432947208" data-center="245.19801529721 126.53432947208">
		<path d="M 310.05469 62.28364 C 309.832522 62.28364 309.63976 62.43393 309.587485 62.649563 Q 298.028256 108.324526 287.158399 152.49986 Q 286.730401 154.234725 286.651989 154.525502 C 286.165181 156.260367 285.178497 157.358134 283.522045 157.929888 Q 282.904551 158.145521 280.597932 158.145521 Q 225.908862 158.18146 185.935101 158.096513 Q 181.063759 158.086712 179.381169 153.725047 Q 179.286421 153.476742 177.963219 149.889395 Q 176.323103 145.449319 174.114499 139.215568 Q 167.194644 119.687725 156.370528 89.976129 Q 154.08678 83.709707 153.573835 82.275421 C 153.515026 82.118597 153.492156 81.948705 153.501957 81.782079 Q 153.619575 79.789109 155.129005 79.011524 Q 155.900056 78.61293 158.484383 78.61293 Q 281.055335 78.619464 294.917915 78.622731 C 294.963656 78.622731 295.006129 78.61293 295.045335 78.593327 C 295.767378 78.224137 295.470066 77.636047 295.718371 77.106767 Q 295.793516 76.946676 296.80307 73.088154 Q 296.881481 72.790842 300.181318 60.839553 Q 300.710599 58.915193 301.020979 58.206219 C 302.125281 55.683967 303.971229 53.958904 306.607831 53.021228 Q 308.261016 52.436406 311.515112 52.554024 Q 311.887569 52.567092 331.346802 52.59323 C 332.179929 52.59323 332.617729 52.733718 333.382246 52.838267 C 333.480261 52.854603 333.575009 52.88074 333.666489 52.919946 Q 337.694903 54.723421 336.698418 59.137361 C 336.675548 59.245177 336.636342 59.349726 336.5808 59.447741 Q 335.038698 62.270572 331.735595 62.273839 Q 322.688816 62.286907 310.05469 62.28364 Z M 188.401811 88.401355 C 188.365872 88.21186 188.199247 88.074639 188.009751 88.074639 L 166.051137 88.074639 C 165.773428 88.074639 165.580665 88.352348 165.672146 88.613721 L 169.759369 99.934447 C 169.814911 100.094538 169.968467 100.199087 170.135093 100.199087 L 190.21182 100.199087 C 190.463392 100.199087 190.652887 99.967118 190.60388 99.722081 L 188.401811 88.401355 Z M 260.599617 99.872371 C 260.583281 100.042263 260.717235 100.192553 260.890395 100.192553 L 278.225971 100.192553 C 278.363192 100.192553 278.48081 100.097805 278.510214 99.963851 L 281.009595 88.420958 C 281.048801 88.237997 280.908313 88.068104 280.725352 88.068104 L 262.079643 88.068104 C 261.93262 88.068104 261.805201 88.179188 261.792132 88.329477 L 260.599617 99.872371 Z M 285.452939 88.048501 C 285.269978 88.048501 285.113154 88.175921 285.073948 88.355615 L 282.607239 99.744951 C 282.554964 99.986721 282.741192 100.215423 282.989497 100.215423 L 288.811585 100.215423 C 288.991279 100.215423 289.148103 100.091271 289.190576 99.914844 L 291.856582 88.525507 C 291.912124 88.28047 291.729163 88.048501 291.477591 88.048501 L 285.452939 88.048501 Z M 212.147564 88.45363 C 212.127961 88.244531 211.954801 88.08444 211.742436 88.08444 L 192.740606 88.08444 C 192.485767 88.08444 192.296271 88.316409 192.345279 88.567981 L 194.54408 99.869103 C 194.583286 100.058599 194.749912 100.19582 194.942675 100.19582 L 212.738921 100.19582 C 212.974157 100.19582 213.163652 99.993256 213.140782 99.754753 L 212.147564 88.45363 Z M 234.838023 88.561446 C 234.838023 88.296806 234.62239 88.081173 234.35775 88.081173 L 216.60071 88.081173 C 216.319733 88.081173 216.100833 88.322943 216.123704 88.603919 L 217.103853 99.75802 C 217.126723 100.006324 217.332554 100.19582 217.584126 100.19582 L 234.35775 100.19582 C 234.62239 100.19582 234.838023 99.980187 234.838023 99.715547 L 234.838023 88.561446 Z M 238.781491 99.878905 C 238.781491 100.055332 238.921979 100.19582 239.098406 100.19582 L 256.254288 100.19582 C 256.414379 100.19582 256.5516 100.071668 256.567936 99.911576 L 257.753917 88.43076 C 257.77352 88.244531 257.626497 88.081173 257.437002 88.081173 L 239.098406 88.081173 C 238.921979 88.081173 238.781491 88.221661 238.781491 88.398088 L 238.781491 99.878905 Z M 191.254046 104.466004 C 191.211572 104.250371 191.025344 104.096815 190.806444 104.096815 L 171.758874 104.096815 C 171.441959 104.096815 171.223059 104.410462 171.330875 104.711041 L 175.754616 116.969444 C 175.819959 117.149138 175.989852 117.270023 176.182615 117.270023 L 193.191474 117.270023 C 193.478985 117.270023 193.694618 117.00865 193.642343 116.724406 L 191.254046 104.466004 Z M 213.568781 104.495409 C 213.549178 104.273241 213.359682 104.100082 213.134248 104.100082 L 195.632046 104.100082 C 195.360872 104.100082 195.15504 104.348386 195.207315 104.616294 L 197.602147 116.913902 C 197.641353 117.119733 197.821047 117.266756 198.030145 117.266756 L 214.218946 117.266756 C 214.473785 117.266756 214.673082 117.047856 214.650212 116.793017 L 213.568781 104.495409 Z M 218.649222 116.85836 C 218.668825 117.080527 218.855053 117.25042 219.080488 117.25042 L 234.40349 117.25042 C 234.641993 117.25042 234.834756 117.057657 234.834756 116.819154 L 234.834756 104.534615 C 234.834756 104.296112 234.641993 104.103349 234.40349 104.103349 L 217.999056 104.103349 C 217.747484 104.103349 217.548187 104.318982 217.571058 104.573821 L 218.649222 116.85836 Z M 238.778224 116.92697 C 238.778224 117.103397 238.918712 117.243885 239.095139 117.243885 L 254.516156 117.243885 C 254.679515 117.243885 254.816735 117.119733 254.833071 116.959642 L 256.123601 104.449668 C 256.143204 104.26344 255.996182 104.100082 255.806686 104.100082 L 239.095139 104.100082 C 238.918712 104.100082 238.778224 104.24057 238.778224 104.416997 L 238.778224 116.92697 Z M 258.799409 116.819154 C 258.776539 117.044588 258.956233 117.243885 259.184935 117.243885 L 274.609219 117.243885 C 274.788914 117.243885 274.945737 117.116466 274.984943 116.940039 L 277.664018 104.564019 C 277.716293 104.322249 277.533332 104.096815 277.288295 104.096815 L 260.462396 104.096815 C 260.266366 104.096815 260.099741 104.247104 260.080138 104.443134 L 258.799409 116.819154 Z M 284.86485 117.286359 C 284.998803 117.286359 285.119688 117.191611 285.149093 117.060924 L 288.10261 104.452935 C 288.145083 104.266707 288.004595 104.09028 287.815099 104.09028 L 282.045286 104.09028 C 281.904798 104.09028 281.78718 104.188295 281.757776 104.322249 L 279.029693 116.930238 C 278.98722 117.113199 279.127708 117.286359 279.317204 117.286359 L 284.86485 117.286359 Z M 280.908313 134.363829 C 281.081473 134.363829 281.23503 134.242944 281.274236 134.073051 L 284.162409 121.742771 C 284.217951 121.507535 284.038257 121.282101 283.796487 121.282101 L 278.562489 121.282101 C 278.386062 121.282101 278.232505 121.406253 278.193299 121.579413 L 275.527293 133.909693 C 275.478285 134.141661 275.654712 134.363829 275.896482 134.363829 L 280.908313 134.363829 Z M 196.35409 134.357294 C 196.644867 134.357294 196.863767 134.092654 196.808226 133.805143 L 194.442798 121.651291 C 194.400325 121.432391 194.21083 121.275567 193.988662 121.275567 L 177.776991 121.275567 C 177.456809 121.275567 177.231375 121.595749 177.342458 121.896328 L 181.723726 134.050181 C 181.789069 134.233142 181.965496 134.357294 182.161526 134.357294 L 196.35409 134.357294 Z M 215.078211 121.723168 C 215.055341 121.461795 214.836441 121.262498 214.575067 121.262498 L 198.925348 121.262498 C 198.608433 121.262498 198.366663 121.553276 198.428739 121.866924 L 200.781098 133.945632 C 200.826838 134.180867 201.035937 134.354027 201.277707 134.354027 L 215.636896 134.354027 C 215.934208 134.354027 216.166177 134.099188 216.140039 133.801876 L 215.078211 121.723168 Z M 234.838023 121.968206 C 234.838023 121.572879 234.517841 121.252697 234.122514 121.252697 L 219.8156 121.252697 C 219.397403 121.252697 219.067419 121.612085 219.103358 122.030282 L 220.12598 133.684258 C 220.158652 134.053448 220.469033 134.337691 220.841489 134.337691 L 234.122514 134.337691 C 234.517841 134.337691 234.838023 134.017509 234.838023 133.622182 L 234.838023 121.968206 Z M 238.771689 133.880288 C 238.771689 134.144929 238.984055 134.357294 239.248696 134.357294 L 252.601598 134.357294 C 252.846635 134.357294 253.052467 134.171066 253.078604 133.929296 L 254.329928 121.788512 C 254.359332 121.507535 254.140432 121.262498 253.856189 121.262498 L 239.248696 121.262498 C 238.984055 121.262498 238.771689 121.474864 238.771689 121.739504 L 238.771689 133.880288 Z M 257.067812 133.857418 C 257.041675 134.115524 257.244239 134.337691 257.499078 134.337691 L 271.02514 134.337691 C 271.227704 134.337691 271.404131 134.193936 271.449871 133.994639 L 274.096275 121.762374 C 274.155084 121.4912 273.949252 121.236361 273.671543 121.236361 L 258.76347 121.236361 C 258.541303 121.236361 258.355075 121.406253 258.332205 121.625153 L 257.067812 133.857418 Z M 234.824954 138.571937 C 234.824954 138.317098 234.615856 138.107999 234.361017 138.107999 L 220.985245 138.107999 C 220.71407 138.107999 220.498437 138.339968 220.524574 138.611143 L 221.449182 149.128146 C 221.468785 149.369916 221.668082 149.552877 221.909852 149.552877 L 234.361017 149.552877 C 234.615856 149.552877 234.824954 149.343779 234.824954 149.08894 L 234.824954 138.571937 Z M 238.774957 149.170619 C 238.774957 149.382985 238.948116 149.556145 239.160482 149.556145 L 251.275129 149.556145 C 251.477693 149.556145 251.644319 149.402588 251.660654 149.203291 L 252.539522 138.519662 C 252.555857 138.294228 252.379431 138.101465 252.153996 138.101465 L 239.160482 138.101465 C 238.948116 138.101465 238.774957 138.274625 238.774957 138.486991 L 238.774957 149.170619 Z M 255.551848 149.053001 C 255.522443 149.320909 255.734809 149.552877 256.002716 149.552877 L 267.954005 149.552877 C 268.166371 149.552877 268.352599 149.402588 268.398339 149.193489 L 270.67882 138.653616 C 270.737629 138.37264 270.521996 138.104732 270.234486 138.104732 L 257.090682 138.104732 C 256.858713 138.104732 256.662684 138.281159 256.639813 138.513128 L 255.551848 149.053001 Z M 199.216126 149.552877 C 199.503637 149.552877 199.716002 149.291504 199.663728 149.010528 L 197.611948 138.477189 C 197.569475 138.264823 197.383247 138.111267 197.164347 138.111267 L 183.697094 138.111267 C 183.383446 138.111267 183.161279 138.424914 183.269095 138.718959 L 187.068808 149.252298 C 187.134151 149.431992 187.304043 149.552877 187.496806 149.552877 L 199.216126 149.552877 Z M 216.47329 138.513128 C 216.453687 138.287693 216.264192 138.114534 216.03549 138.114534 L 202.019353 138.114534 C 201.741644 138.114534 201.535813 138.366105 201.588088 138.63728 L 203.643134 149.200024 C 203.68234 149.405855 203.862034 149.552877 204.071133 149.552877 L 216.966632 149.552877 C 217.221471 149.552877 217.424035 149.333977 217.401165 149.075871 L 216.47329 138.513128 Z M 277.392844 149.552877 C 277.566004 149.552877 277.716293 149.43526 277.755499 149.265367 L 280.261414 138.558868 C 280.316956 138.323632 280.140529 138.101465 279.898759 138.101465 L 275.210378 138.101465 C 275.037218 138.101465 274.886928 138.219083 274.847722 138.388976 L 272.341807 149.095474 C 272.286265 149.33071 272.462692 149.552877 272.704462 149.552877 L 277.392844 149.552877 Z" style="fill:#0159b1;"/>
		<path d="M 257.332452 184.302442 L 214.50319 184.302442 C 214.28429 184.302442 214.117664 184.495204 214.147069 184.710837 L 214.50319 187.318035 C 214.5718 187.795041 214.558732 188.281848 214.470518 188.755587 Q 214.183008 190.30749 213.944505 191.124282 Q 212.464479 196.227593 207.981929 198.798852 Q 204.459925 200.817959 200.127665 200.487976 C 199.105042 200.409564 198.216374 200.014237 197.193751 199.772467 C 197.0794 199.746329 196.968317 199.707123 196.863767 199.654849 Q 195.514428 198.978546 194.939407 198.628959 Q 190.36211 195.842067 188.947427 190.72242 C 188.408345 188.778457 188.192712 186.377091 188.790603 184.433128 C 189.002969 183.733955 189.130388 182.97924 189.476708 182.221258 Q 191.959753 176.771627 197.598879 174.830931 Q 198.830601 174.409467 199.585316 174.347391 C 200.451114 174.275513 201.329982 174.023941 202.287261 174.092552 Q 204.46646 174.246109 206.361415 174.876671 C 206.704468 174.991022 207.067123 175.049831 207.429778 175.049831 L 264.634566 175.049831 C 264.918809 175.049831 265.199785 175.004091 265.467693 174.91261 L 266.764757 174.468276 C 266.781093 174.461741 266.800696 174.458474 266.817032 174.455207 C 267.9246 174.327788 268.721789 174.092552 269.799953 174.066415 Q 271.75045 174.020674 273.596398 174.598962 Q 274.821585 174.984488 275.53056 175.298136 Q 276.448633 175.703264 277.337302 176.310957 Q 282.123698 179.574854 283.165924 185.694254 Q 283.257405 186.223534 283.18226 189.170517 C 283.178993 189.304471 283.162657 189.43189 283.126718 189.55931 C 282.809803 190.689749 282.587636 191.751577 282.218446 192.525895 Q 278.925144 199.396743 271.645901 200.438968 Q 269.884899 200.69054 267.542342 200.207 Q 265.490563 199.785535 263.696889 198.717172 Q 259.1784 196.03483 257.766985 190.954389 Q 257.355322 189.474363 257.352055 187.83098 Q 257.352055 185.71059 257.603627 184.645494 C 257.6461 184.469067 257.512146 184.302442 257.332452 184.302442 Z M 196.050243 187.458784 C 196.043709 190.43491 198.490815 192.852612 201.513335 192.859146 C 204.53507 192.86568 206.988711 190.454513 206.995245 187.477864 C 207.00178 184.501739 204.554673 182.084037 201.532154 182.077502 C 198.510418 182.070968 196.056778 184.482136 196.050243 187.458784 Z M 275.654418 187.515698 C 275.684117 184.53441 273.266415 182.093838 270.251802 182.061461 C 267.235229 182.028495 264.768519 184.42006 264.736142 187.401347 C 264.706443 190.382635 267.124145 192.823207 270.138758 192.855585 C 273.155331 192.888551 275.622041 190.496986 275.654418 187.515698 Z" style="fill:#0159b1;"/>
	</g>
	<g id="surface4">
	</g>
</svg>
