<?xml version="1.0" encoding="utf-8"?>
<svg xmlns="http://www.w3.org/2000/svg" width="490pt" height="280pt" viewBox="0 0 490 280" version="1.1" xmlns:xlink="http://www.w3.org/1999/xlink">
	<g id="surface2" data-size="93.042369529818 148" data-bboxpos="198.5 51.583934177445" data-pivot="245.02118476491 125.58393417745" data-center="245.02118476491 125.58393417745">
		<path d="M 241.931818 52.07313 C 242.082584 52.933056 241.89273 53.270884 241.147275 53.712014 Q 237.721531 55.730607 234.45493 58.067483 Q 233.204129 58.960913 231.101777 60.711476 Q 228.128332 63.187951 225.738409 66.29541 C 224.526695 67.87008 223.691897 69.542468 223.066496 71.441005 Q 222.926898 71.870968 222.714708 73.512645 C 222.346169 76.360451 223.133503 79.230594 224.91757 81.561886 Q 226.461528 83.577686 228.357274 85.088141 Q 230.202764 86.556715 230.733238 86.914087 Q 231.540116 87.458521 234.304164 89.706054 C 236.923029 91.833533 239.220818 95.267653 239.262697 98.735276 Q 239.285033 100.664525 239.128683 101.853903 Q 238.936037 103.32527 237.995144 104.955778 Q 237.590309 105.659354 236.727591 105.592347 C 236.481898 105.572803 236.269708 105.405285 236.194325 105.167968 Q 235.929088 104.344338 235.845329 103.663098 C 235.479582 100.739908 233.480533 98.425367 231.199496 96.685972 Q 229.228367 95.183894 225.565307 93.112254 Q 224.861731 92.713003 221.986005 90.57994 Q 220.185186 89.24538 218.387159 87.006222 Q 215.522601 83.438088 214.707347 79.135667 Q 214.405814 77.541454 214.483989 75.338592 C 214.618004 71.605732 216.187089 67.948255 218.543509 65.033441 C 222.016716 60.736604 226.911035 57.400203 231.88632 55.004695 Q 235.59126 53.22342 240.304101 51.70459 Q 241.228242 51.408642 241.789427 51.838605 C 241.86481 51.897236 241.915066 51.980995 241.931818 52.07313 Z" style="fill:#763815;"/>
		<path d="M 239.483263 62.568134 Q 239.656365 62.727276 239.695452 62.94505 C 240.022112 64.723533 240.306893 66.253531 242.096544 67.255847 Q 243.372473 67.97059 245.726101 69.249311 Q 247.954091 70.461025 249.964307 72.328851 Q 253.792094 75.883025 254.663188 80.944861 Q 254.99264 82.846191 254.663188 85.068597 Q 254.378407 86.97551 253.476602 89.022022 Q 252.72277 90.733498 251.332371 92.548277 C 248.864272 95.772999 245.525079 98.430951 242.054664 100.413248 C 241.702876 100.611478 241.270121 100.550054 241.010469 100.262482 Q 240.909958 100.153595 240.949045 99.69292 Q 241.024428 98.732484 241.457183 98.081955 C 241.504647 98.006572 241.563278 97.942357 241.630285 97.883726 C 244.793584 95.153182 247.32869 91.970339 247.792157 87.69863 Q 248.205368 83.873635 246.870807 80.788511 Q 245.580919 77.801106 242.998349 75.397223 Q 242.950886 75.352551 240.105871 72.635967 Q 236.501442 69.19068 237.297152 64.310322 C 237.450711 63.369429 238.226877 61.409468 239.483263 62.568134 Z" style="fill:#763815;"/>
		<path d="M 236.515402 112.893341 C 236.618704 112.96314 236.758303 112.946388 236.83927 112.851461 Q 237.098923 112.552721 237.693612 111.60066 C 238.84111 109.75517 240.678224 108.35081 242.702401 107.535556 C 243.514863 107.208896 244.271486 107.150265 245.153748 107.010666 Q 246.586027 106.781725 248.261207 107.275903 C 251.276532 108.160957 253.613408 110.679311 254.009867 113.817482 Q 254.289064 116.04268 253.465434 118.002641 Q 252.588756 120.085448 250.849361 122.143128 Q 248.476189 124.951847 245.418985 127.520456 Q 241.471143 130.837313 237.110091 133.877765 C 236.81135 134.087163 236.414891 134.078787 236.124526 133.861014 Q 232.707158 131.289612 230.574096 129.633975 Q 226.626254 126.565604 223.328941 123.067269 Q 220.986481 120.579626 219.749639 117.790451 C 219.314092 116.804887 219.04048 115.188338 219.191246 114.029671 Q 219.833398 109.090682 224.571366 107.387582 Q 225.394997 107.091633 226.927787 106.982746 Q 228.069701 106.904571 229.281415 107.208896 Q 232.414002 108.001814 234.633616 110.503417 Q 235.473998 111.449894 235.700147 111.832393 Q 235.702939 111.835185 235.705731 111.837977 Q 236.110566 112.614144 236.515402 112.893341 Z" style="fill:#763815;"/>
		<path d="M 274.611792 121.045885 C 275.022212 122.045409 274.938453 124.50234 274.726263 126.040714 Q 274.516866 127.545584 274.363307 128.829889 Q 274.257213 129.714943 274.014312 130.675379 Q 273.975224 130.834521 273.553637 132.504118 Q 269.706306 147.667291 256.899553 156.590418 Q 253.948444 158.645306 249.715822 160.353989 Q 248.908943 160.68065 248.266791 160.845376 Q 247.571591 161.026853 246.865224 161.300466 C 246.770297 161.336762 246.672578 161.359098 246.572067 161.370265 Q 245.921539 161.437273 244.788 161.81698 C 244.77404 161.822564 244.76008 161.825356 244.746121 161.828148 L 241.507439 162.459133 C 241.482311 162.461925 241.459975 162.464716 241.434848 162.467508 C 239.6787 162.531724 238.218501 162.766249 236.666168 162.727161 Q 233.349311 162.64061 229.661122 161.967746 C 228.965923 161.839316 228.078077 161.554535 227.567147 161.442857 Q 225.579266 161.012894 223.074872 159.949154 C 212.074522 155.283777 203.885682 145.860888 200.392931 134.472454 Q 198.913189 129.642351 198.575361 124.323654 C 198.483226 122.871831 198.413427 122.059369 198.748463 121.023549 Q 198.915981 120.498659 199.722859 120.562874 C 201.537638 120.710849 203.22957 121.048677 205.125316 121.218987 C 206.878671 121.375337 208.955894 121.660117 210.759505 121.780172 Q 212.828353 121.916978 213.984227 122.084496 Q 214.408606 122.14592 214.844153 122.453036 C 214.92512 122.508875 214.994919 122.573091 215.056343 122.648474 C 218.772451 127.258011 223.049744 131.155598 227.717913 134.581341 Q 232.09851 137.797687 236.169198 140.424928 C 236.359051 140.547775 236.593577 140.572903 236.805766 140.497519 Q 237.33624 140.304874 238.011896 139.866535 Q 243.475775 136.323529 247.845204 132.878241 Q 253.733463 128.2352 258.32904 122.492124 Q 258.415591 122.383237 258.932105 122.179423 Q 259.225262 122.064953 259.599385 122.039825 C 260.526319 121.97561 261.277358 121.827636 262.128908 121.785756 Q 265.163776 121.637782 267.22704 121.325081 C 268.260067 121.168731 269.290303 121.185483 270.370794 120.978878 Q 272.330755 120.601962 273.888673 120.57125 C 274.204165 120.565666 274.491738 120.752728 274.611792 121.045885 Z" style="fill:#763815;"/>
		<path d="M 275.150642 153.572301 C 275.103179 153.226097 275.351664 152.910605 275.697868 152.87431 Q 277.554526 152.678872 278.989597 152.285204 C 282.342749 151.369439 285.684734 148.538385 286.991375 145.257823 C 288.04953 142.611039 287.784293 139.285806 286.03373 136.993601 Q 284.618203 135.145319 282.535395 134.137418 C 282.44326 134.092747 282.351125 134.059243 282.253406 134.0397 Q 280.167807 133.604153 280.592186 131.459922 Q 280.692697 130.965744 281.44932 130.703299 Q 281.954666 130.530197 283.213843 130.81777 Q 284.266415 131.055087 285.949971 132.051819 Q 290.020659 134.461287 291.212829 139.280222 Q 292.011331 142.510528 290.875001 145.846928 C 289.216572 150.707743 285.500464 153.968761 280.689905 155.568558 Q 280.170599 155.744452 279.254834 155.931513 C 278.478667 156.093448 277.816971 156.344725 277.032428 156.350309 C 276.267429 156.358684 275.848634 156.531786 275.605733 155.671861 Q 275.281865 154.529946 275.150642 153.572301 Z" style="fill:#763815;"/>
		<path d="M 237.944889 189.884625 Q 266.964595 189.909753 268.402458 189.912545 C 269.460613 189.912545 270.169773 190.884149 270.206068 191.950681 Q 270.273076 193.891098 268.36337 194.630969 Q 264.370857 196.174927 262.949746 196.532299 Q 262.497447 196.64677 259.219678 197.459232 Q 258.376504 197.66863 257.589169 197.780308 C 256.924681 197.875235 256.109427 198.171184 255.417019 198.218647 Q 254.727403 198.26611 252.94892 198.578811 Q 252.002443 198.746329 250.469653 198.863591 C 248.403597 199.025526 246.144896 199.35777 243.905738 199.377313 C 241.909482 199.396857 240.077952 199.586711 237.936513 199.583919 C 235.792282 199.583919 233.963544 199.388481 231.964495 199.368937 C 229.72813 199.34381 227.469428 199.005982 225.403373 198.841256 Q 223.870583 198.721201 222.924106 198.550891 Q 221.148415 198.235399 220.458799 198.187935 C 219.766391 198.13768 218.951137 197.841731 218.286648 197.744013 Q 217.499314 197.632334 216.65614 197.420144 Q 213.381162 196.602098 212.928864 196.487627 Q 211.507752 196.127464 207.518031 194.57513 Q 205.608326 193.832467 205.680917 191.89205 C 205.717213 190.825518 206.429164 189.853914 207.48732 189.856706 Q 208.925183 189.856706 237.944889 189.884625 Z" style="fill:#763815;"/>
	</g>
	<g id="surface4">
	</g>
</svg>
