<?xml version="1.0" encoding="utf-8"?>
<svg xmlns="http://www.w3.org/2000/svg" width="490pt" height="280pt" viewBox="0 0 490 280" version="1.1" xmlns:xlink="http://www.w3.org/1999/xlink">
	<g id="surface2" data-size="187.30226672527 148" data-bboxpos="151.5 54.238286881641" data-pivot="245.15113336263 128.23828688164" data-center="245.15113336263 128.23828688164">
		<path d="M 209.948126 146.794616 Q 210.257062 147.383654 210.273538 148.240436 C 210.277657 148.421678 210.302372 148.607039 210.355921 148.788282 Q 211.525758 153.006284 212.481399 157.088356 Q 212.769739 158.31998 212.782096 158.612439 C 212.786216 158.690702 212.798573 158.764847 212.819169 158.838992 Q 213.10339 159.831705 213.638878 160.556674 C 213.795406 160.762632 214.038435 160.886206 214.297941 160.886206 L 314.389008 160.886206 C 314.463152 160.886206 314.541416 160.902682 314.607322 160.935636 C 316.275575 161.68532 316.279695 163.361811 316.049023 165.087732 Q 315.785397 167.089636 313.626966 167.089636 Q 219.043195 167.130827 211.064414 167.101993 Q 208.732978 167.097874 207.839124 164.885894 Q 207.583737 164.259784 207.208895 162.257881 Q 206.89996 160.606104 206.648692 159.576318 Q 199.007681 128.196684 197.874916 124.011634 Q 192.52003 104.239745 192.165784 103.036955 C 189.278264 93.159249 187.103356 85.320519 183.981046 76.114234 Q 179.944285 64.218148 179.482941 63.003 Q 179.400558 62.784686 179.00512 62.014406 C 178.76621 61.548943 178.28427 61.256483 177.761139 61.256483 Q 166.804217 61.297675 154.619791 61.244126 Q 153.042159 61.235888 152.280118 60.140196 Q 150.912562 58.167126 151.942348 55.975742 Q 152.46136 54.880049 153.688865 54.517565 Q 154.611553 54.245701 156.0203 54.245701 Q 161.465808 54.233344 178.259555 54.241582 C 179.458226 54.241582 180.092574 54.447539 181.159432 54.649377 C 181.278887 54.669973 181.394223 54.711165 181.501321 54.768833 Q 182.95126 55.526755 183.610323 57.13734 C 184.088143 58.311296 184.53713 59.201031 184.957283 60.280246 Q 188.388529 69.103452 190.365718 74.363598 Q 191.251334 76.715629 191.436695 76.913348 C 191.539674 77.016326 191.65501 77.106947 191.782703 77.176973 Q 192.091639 77.349977 193.661033 77.345858 Q 227.508034 77.337619 335.15361 77.387049 Q 335.322495 77.387049 336.846578 77.695985 C 336.994867 77.724819 337.130799 77.782487 337.250254 77.86487 Q 338.490116 78.725771 338.729026 79.850297 Q 338.840243 80.394024 338.782575 81.675078 Q 338.749622 82.362974 338.461282 83.475143 Q 329.761651 116.836086 323.912467 139.969195 Q 323.504672 141.588019 323.274 142.135865 C 323.212213 142.271797 323.175141 142.415967 323.154545 142.564256 Q 322.977422 143.952407 321.97647 144.924525 C 321.132046 145.740115 320.402957 145.645375 319.023044 145.645375 Q 225.217791 145.661852 210.636023 145.649494 C 210.046985 145.649494 209.672143 146.275604 209.948126 146.794616 Z M 213.626521 84.677933 C 213.585329 84.434904 213.375253 84.25778 213.132224 84.25778 L 194.2995 84.25778 C 193.965849 84.25778 193.726939 84.574954 193.813441 84.892129 L 197.821368 99.531564 C 197.883155 99.749879 198.080874 99.902287 198.307426 99.902287 L 215.616067 99.902287 C 215.925003 99.902287 216.159794 99.622185 216.110364 99.317369 L 213.626521 84.677933 Z M 237.188021 84.702648 C 237.159187 84.447261 236.944992 84.253661 236.685486 84.253661 L 218.520063 84.253661 C 218.211128 84.253661 217.976336 84.533763 218.025766 84.83858 L 220.513729 99.482135 C 220.55492 99.725164 220.764996 99.902287 221.008026 99.902287 L 238.226046 99.902287 C 238.526743 99.902287 238.757415 99.642781 238.728581 99.346203 L 237.188021 84.702648 Z M 259.254273 84.78915 C 259.254273 84.492572 259.011243 84.249542 258.714665 84.249542 L 242.05273 84.249542 C 241.731437 84.249542 241.480169 84.525525 241.513122 84.846818 L 243.049563 99.424467 C 243.078397 99.69633 243.309069 99.906406 243.585051 99.906406 L 258.714665 99.906406 C 259.011243 99.906406 259.254273 99.663377 259.254273 99.366799 L 259.254273 84.78915 Z M 286.10285 99.498611 C 286.082254 99.716926 286.251139 99.902287 286.469454 99.902287 L 304.766689 99.902287 C 304.947931 99.902287 305.100339 99.770475 305.129173 99.593351 L 307.608898 84.673814 C 307.64597 84.447261 307.468847 84.241304 307.242294 84.241304 L 287.787579 84.241304 C 287.598099 84.241304 287.437452 84.389593 287.420976 84.579074 L 286.10285 99.498611 Z M 309.42544 99.370918 C 309.371891 99.6469 309.586087 99.902287 309.866188 99.902287 L 327.253093 99.902287 C 327.454931 99.902287 327.636173 99.762236 327.685603 99.564517 L 331.487572 84.813865 C 331.561717 84.529644 331.347521 84.253661 331.050943 84.253661 L 312.605419 84.253661 C 312.387104 84.253661 312.201743 84.40607 312.160551 84.620265 L 309.42544 99.370918 Z M 263.78945 99.461539 C 263.78945 99.704568 263.987169 99.902287 264.230198 99.902287 L 281.308167 99.902287 C 281.53472 99.902287 281.728319 99.729283 281.748915 99.498611 L 283.054684 84.73972 C 283.075279 84.484333 282.873441 84.2619 282.613935 84.2619 L 264.230198 84.2619 C 263.987169 84.2619 263.78945 84.459618 263.78945 84.702648 L 263.78945 99.461539 Z M 219.047314 120.436217 C 219.521015 120.436217 219.8835 120.007826 219.805236 119.538244 L 217.358465 105.104765 C 217.296678 104.734042 216.975385 104.462179 216.600542 104.462179 L 200.11985 104.462179 C 199.613195 104.462179 199.242472 104.944119 199.378404 105.434297 L 203.324543 119.867775 C 203.419283 120.205545 203.719981 120.436217 204.070108 120.436217 L 219.047314 120.436217 Z M 240.001396 120.448575 C 240.508051 120.448575 240.907608 120.007826 240.854059 119.501172 L 239.350572 105.22834 C 239.301142 104.791711 238.934538 104.462179 238.497909 104.462179 L 222.490918 104.462179 C 221.959548 104.462179 221.559991 104.94 221.646493 105.463131 L 224.06855 119.735963 C 224.138575 120.147877 224.492821 120.448575 224.912974 120.448575 L 240.001396 120.448575 Z M 258.49635 120.419741 C 258.912384 120.419741 259.250154 120.081971 259.250154 119.665937 L 259.250154 105.236578 C 259.250154 104.820545 258.912384 104.482775 258.49635 104.482775 L 244.400642 104.482775 C 243.955774 104.482775 243.605647 104.869974 243.650957 105.314842 L 245.175041 119.744201 C 245.216232 120.127282 245.537525 120.419741 245.924725 120.419741 L 258.49635 120.419741 Z M 263.797688 119.814227 C 263.797688 120.164354 264.081909 120.448575 264.432036 120.448575 L 279.326859 120.448575 C 279.65639 120.448575 279.928254 120.197307 279.957088 119.871895 L 281.258737 105.170672 C 281.29169 104.799949 280.999231 104.478656 280.628508 104.478656 L 264.432036 104.478656 C 264.081909 104.478656 263.797688 104.762876 263.797688 105.113004 L 263.797688 119.814227 Z M 284.298665 119.711248 C 284.261593 120.102567 284.574648 120.444456 284.970085 120.444456 L 301.096532 120.444456 C 301.426063 120.444456 301.710284 120.205545 301.763833 119.880133 L 304.190009 105.248935 C 304.260034 104.837021 303.94286 104.462179 303.526827 104.462179 L 286.263496 104.462179 C 285.913369 104.462179 285.62091 104.729923 285.592076 105.080051 L 284.298665 119.711248 Z M 321.97647 120.432098 C 322.240095 120.432098 322.466648 120.254975 322.532554 120.003707 L 326.346881 105.187148 C 326.441621 104.824664 326.169758 104.470417 325.794916 104.470417 L 309.170053 104.470417 C 308.889951 104.470417 308.651041 104.672255 308.60573 104.948238 L 306.142483 119.764797 C 306.084815 120.114924 306.352559 120.432098 306.706805 120.432098 L 321.97647 120.432098 Z M 222.626849 140.311084 C 222.989334 140.311084 223.265317 139.981553 223.207649 139.623187 L 220.74852 125.148517 C 220.703209 124.864296 220.456061 124.658339 220.167721 124.658339 L 205.1658 124.658339 C 204.778601 124.658339 204.498499 125.029062 204.597358 125.403904 L 208.555855 139.878574 C 208.625881 140.133961 208.860672 140.311084 209.124297 140.311084 L 222.626849 140.311084 Z M 242.262806 140.319323 C 242.62941 140.319323 242.91775 140.002149 242.880678 139.635545 L 241.360714 125.210305 C 241.327761 124.89725 241.064135 124.658339 240.746961 124.658339 L 225.687373 124.658339 C 225.304293 124.658339 225.011833 125.004347 225.07774 125.379189 L 227.524511 139.80443 C 227.573941 140.101008 227.833447 140.319323 228.134144 140.319323 L 242.262806 140.319323 Z M 258.64052 140.302846 C 258.97829 140.302846 259.250154 140.030983 259.250154 139.693213 L 259.250154 125.263853 C 259.250154 124.926084 258.97829 124.65422 258.64052 124.65422 L 246.221303 124.65422 C 245.862937 124.65422 245.578717 124.967275 245.615789 125.325641 L 247.135753 139.755 C 247.168706 140.068055 247.428212 140.302846 247.741267 140.302846 L 258.64052 140.302846 Z M 277.68744 140.315204 C 278.004614 140.315204 278.26412 140.076293 278.292954 139.763238 L 279.569888 125.313283 C 279.598722 124.959037 279.32274 124.65422 278.964374 124.65422 L 264.394964 124.65422 C 264.061313 124.65422 263.78945 124.926084 263.78945 125.259734 L 263.78945 139.709689 C 263.78945 140.04334 264.061313 140.315204 264.394964 140.315204 L 277.68744 140.315204 Z M 297.908315 140.323442 C 298.130749 140.323442 298.31611 140.162795 298.353182 139.944481 L 300.808192 125.181471 C 300.853502 124.905488 300.639307 124.65422 300.359205 124.65422 L 284.245116 124.65422 C 284.010325 124.65422 283.812606 124.835462 283.79201 125.066135 L 282.486242 139.829145 C 282.461527 140.096889 282.671603 140.323442 282.935228 140.323442 L 297.908315 140.323442 Z M 317.202383 140.302846 C 317.338314 140.302846 317.45777 140.212225 317.490723 140.080412 L 321.370956 125.020824 C 321.420386 124.831343 321.276216 124.650101 321.082616 124.650101 L 305.586398 124.650101 C 305.442228 124.650101 305.318654 124.75308 305.293939 124.89313 L 302.50116 139.952719 C 302.468207 140.133961 302.608258 140.302846 302.793619 140.302846 L 317.202383 140.302846 Z" style="fill:#0188de;"/>
		<path d="M 208.736109 185.650826 C 209.981079 177.869434 217.325512 172.572216 225.13549 173.822829 C 232.945304 175.072536 238.267237 182.396373 237.020125 190.181224 C 235.775155 197.962616 228.430722 203.259834 220.620744 202.009221 C 212.810931 200.759514 207.488997 193.435677 208.736109 185.650826 Z M 231.050498 187.887191 C 231.050498 183.376729 227.396817 179.723049 222.886355 179.723049 C 218.375893 179.723049 214.722213 183.376729 214.722213 187.887191 C 214.722213 192.397653 218.375893 196.051333 222.886355 196.051333 C 227.396817 196.051333 231.050498 192.397653 231.050498 187.887191 Z" style="fill:#0188de;"/>
		<path d="M 312.523036 187.928383 C 312.523036 195.833019 306.117768 202.238287 298.213131 202.238287 C 290.308495 202.238287 283.903227 195.833019 283.903227 187.928383 C 283.903227 180.023746 290.308495 173.618478 298.213131 173.618478 C 306.117768 173.618478 312.523036 180.023746 312.523036 187.928383 Z M 306.414346 187.866595 C 306.414346 183.347895 302.748308 179.681857 298.229608 179.681857 C 293.710908 179.681857 290.04487 183.347895 290.04487 187.866595 C 290.04487 192.385296 293.710908 196.051333 298.229608 196.051333 C 302.748308 196.051333 306.414346 192.385296 306.414346 187.866595 Z" style="fill:#0188de;"/>
	</g>
	<g id="surface4">
	</g>
</svg>
