<?xml version="1.0" encoding="utf-8"?>
<svg xmlns="http://www.w3.org/2000/svg" width="490pt" height="280pt" viewBox="0 0 490 280" version="1.1" xmlns:xlink="http://www.w3.org/1999/xlink">
	<g id="surface2" data-size="184.08633915612 148" data-bboxpos="153 57.325669630217" data-pivot="245.04316957806 131.32566963022" data-center="245.04316957806 131.32566963022">
		<path d="M 336.647447 77.298488 C 336.885286 77.332465 337.066497 77.530664 337.083485 77.774166 C 337.202405 79.829775 336.166106 81.01897 335.809347 82.865055 Q 335.656451 83.67484 334.925945 85.169828 C 334.841003 85.345376 334.784374 85.537913 334.767386 85.730449 C 334.659792 86.732771 334.099171 87.752081 333.770727 88.833683 Q 323.804137 121.298715 313.265602 153.293731 C 313.225962 153.412651 313.208974 153.53157 313.203311 153.65049 Q 313.169334 154.998245 312.421839 156.176114 C 312.268943 156.425279 311.991464 156.572513 311.696997 156.572513 L 209.358246 156.572513 C 209.018476 156.572513 208.70702 156.402628 208.525809 156.119486 Q 207.965188 155.258735 207.812292 154.063877 C 207.795303 153.944957 207.772652 153.826038 207.733012 153.707118 Q 204.295672 143.264851 200.314699 130.121411 C 198.242101 123.292032 195.569243 115.420692 193.332423 107.787191 C 190.801136 99.140042 186.939083 87.825698 185.228907 81.925024 Q 185.228907 81.913698 182.233267 72.479416 Q 180.551405 67.179002 180.324892 66.425845 Q 179.96247 65.230987 179.197988 64.630727 C 179.045091 64.511807 178.86388 64.449516 178.671344 64.443853 Q 168.512218 64.223002 157.101606 64.194688 Q 156.178564 64.194688 154.434411 63.503822 C 154.2532 63.435868 154.088978 63.316949 153.964396 63.169715 Q 152.259882 61.165072 153.567997 58.701738 C 153.647277 58.548842 153.771859 58.418597 153.919093 58.327991 Q 155.238534 57.512543 155.759514 57.50688 Q 160.454004 57.467241 181.825543 57.32567 C 183.915129 57.308681 184.753229 58.662099 185.557351 60.525171 Q 186.916431 63.673707 192.035634 76.205561 C 192.516975 77.377768 193.604239 77.264511 194.968983 77.264511 Q 333.385654 77.338128 335.690428 77.213546 Q 335.979232 77.196557 336.647447 77.298488 Z M 228.249463 110.686562 C 228.691164 110.686562 229.030934 110.301489 228.979968 109.865451 L 226.295785 87.015913 C 226.250482 86.642165 225.933363 86.364687 225.559616 86.364687 L 196.594216 86.364687 C 196.10155 86.364687 195.744791 86.846028 195.892025 87.321706 L 203.117802 110.171244 C 203.21407 110.477037 203.502875 110.686562 203.819993 110.686562 L 228.249463 110.686562 Z M 258.772142 87.412311 C 258.772142 86.840365 258.30779 86.376012 257.735844 86.376012 L 232.213447 86.376012 C 231.590535 86.376012 231.109194 86.919644 231.182811 87.531231 L 233.799041 109.769183 C 233.861332 110.295826 234.303033 110.686562 234.829677 110.686562 L 257.735844 110.686562 C 258.30779 110.686562 258.772142 110.22221 258.772142 109.650263 L 258.772142 87.412311 Z M 263.376027 109.740869 C 263.376027 110.261849 263.795077 110.680899 264.316058 110.680899 L 288.762516 110.680899 C 289.238194 110.680899 289.634592 110.324141 289.691221 109.854125 L 292.352753 87.423637 C 292.420707 86.863016 291.984669 86.370349 291.418385 86.370349 L 264.316058 86.370349 C 263.795077 86.370349 263.376027 86.789399 263.376027 87.31038 L 263.376027 109.740869 Z M 317.665625 110.669574 C 317.994069 110.669574 318.288536 110.454386 318.390467 110.137267 L 325.570942 87.355683 C 325.723838 86.868679 325.361417 86.370349 324.846099 86.370349 L 297.845703 86.370349 C 297.46063 86.370349 297.137848 86.659154 297.092546 87.038564 L 294.391373 109.820148 C 294.334745 110.273175 294.691504 110.669574 295.14453 110.669574 L 317.665625 110.669574 Z M 305.456553 150.349057 C 305.756683 150.349057 306.028499 150.150858 306.119104 149.862053 L 316.584023 116.689167 C 316.725594 116.241803 316.385824 115.783113 315.915809 115.783113 L 294.595235 115.783113 C 294.24414 115.783113 293.944009 116.049267 293.90437 116.400362 L 289.968699 149.573249 C 289.923397 149.986636 290.246178 150.349057 290.659565 150.349057 L 305.456553 150.349057 Z M 232.468275 150.343394 C 233.034558 150.343394 233.476259 149.850728 233.408305 149.290107 L 229.568903 116.61555 C 229.512275 116.134209 229.110214 115.777451 228.628873 115.777451 L 205.779334 115.777451 C 205.139434 115.777451 204.686407 116.400362 204.878943 117.006286 L 215.202291 149.680843 C 215.326874 150.077241 215.694958 150.343394 216.102682 150.343394 L 232.468275 150.343394 Z M 257.764158 150.332069 C 258.319116 150.332069 258.772142 149.879042 258.772142 149.324084 L 258.772142 116.791098 C 258.772142 116.23614 258.319116 115.783113 257.764158 115.783113 L 235.565845 115.783113 C 234.965585 115.783113 234.49557 116.309757 234.563524 116.910018 L 238.3916 149.443004 C 238.448228 149.946996 238.878604 150.332069 239.388259 150.332069 L 257.764158 150.332069 Z M 284.288876 150.343394 C 284.73624 150.343394 285.11565 150.003624 285.166616 149.55626 L 289.05132 116.779772 C 289.113611 116.253129 288.700224 115.788776 288.167918 115.788776 L 264.253767 115.788776 C 263.7611 115.788776 263.364701 116.185175 263.364701 116.677841 L 263.364701 149.454329 C 263.364701 149.946996 263.7611 150.343394 264.253767 150.343394 L 284.288876 150.343394 Z" style="fill:#017dc8;"/>
		<path d="M 212.795587 168.249278 C 211.866882 166.482474 211.079748 165.044113 211.119387 163.3396 C 211.130713 162.99983 211.408192 162.728014 211.747962 162.728014 Q 267.266395 162.773317 306.538154 162.722351 Q 308.650391 162.722351 309.318606 163.181041 Q 310.36623 163.911547 310.734315 165.293278 C 310.78528 165.485815 310.790943 165.678351 310.751303 165.870887 Q 310.134054 169.030749 306.815633 169.030749 Q 245.770274 169.030749 214.075387 169.025086 C 213.537418 169.025086 213.044751 168.724956 212.795587 168.249278 Z" style="fill:#017dc8;"/>
		<path d="M 226.077709 175.62614 C 234.014229 175.446741 240.594443 181.947675 240.783298 190.149839 C 240.96819 198.352908 234.688106 205.14831 226.7517 205.32567 C 218.81518 205.505068 212.234966 199.004134 212.04611 190.801971 C 211.861219 182.598901 218.141303 175.8035 226.077709 175.62614 Z M 226.337803 182.542726 C 222.11095 182.587576 218.724575 186.149499 218.770274 190.505068 C 218.81518 194.858939 222.275172 198.352908 226.502931 198.307152 C 230.729784 198.262303 234.11616 194.700379 234.070461 190.34481 C 234.025554 185.990939 230.565562 182.49697 226.337803 182.542726 Z" style="fill:#017dc8;"/>
		<path d="M 291.499194 175.588538 C 299.453948 175.548672 305.932231 182.162863 305.977364 190.366499 C 306.022836 198.568096 299.606844 205.255904 291.654695 205.295317 C 283.699941 205.335183 277.221658 198.720992 277.176525 190.517357 C 277.131053 182.31576 283.547045 175.627952 291.499194 175.588538 Z M 291.334519 182.584235 C 287.080654 182.689507 283.71693 186.279744 283.821183 190.607566 C 283.926455 194.932556 287.460064 198.358571 291.717439 198.254318 C 295.971304 198.149046 299.335028 194.558809 299.230775 190.230987 C 299.125503 185.905997 295.591894 182.479982 291.334519 182.584235 Z" style="fill:#017dc8;"/>
	</g>
	<g id="surface4">
	</g>
</svg>
