<?xml version="1.0" encoding="utf-8"?>
<svg xmlns="http://www.w3.org/2000/svg" width="490pt" height="280pt" viewBox="0 0 490 280" version="1.1" xmlns:xlink="http://www.w3.org/1999/xlink">
	<g id="surface2" data-size="380.31038175957 148" data-bboxpos="55 56.647620454346" data-pivot="245.15519087979 130.64762045435" data-center="245.15519087979 130.64762045435">
		<path d="M 81.990392 91.25869 Q 81.623049 91.567471 81.175849 91.807043 C 81.021459 91.8869 80.872392 91.988052 80.739297 92.105176 Q 76.315211 95.996881 71.651553 98.594901 Q 70.097 99.462682 67.946181 100.165425 C 63.735047 101.538968 59.864637 100.740396 57.064313 97.072291 C 54.913493 94.255995 54.812341 91.194805 55.126446 87.393604 C 55.142417 87.217918 55.179684 87.042233 55.238246 86.877195 Q 56.121998 84.380328 56.356246 83.831975 C 57.133522 82.037851 58.086484 80.83467 59.736865 79.365298 Q 74.888429 65.864116 81.878592 59.566048 Q 85.13144 56.637952 88.751631 56.6486 Q 98.084271 56.675219 110.094786 56.675219 C 111.601425 56.675219 112.69813 56.329171 112.692806 58.075381 Q 112.570358 123.563571 112.676834 201.898114 C 112.682158 202.345315 112.309491 202.712657 111.862291 202.70201 Q 97.839375 202.499705 84.183802 202.686038 Q 82.831554 202.70201 82.82623 201.387029 Q 82.78364 186.43777 82.810259 96.27372 Q 82.810259 92.536405 82.693135 91.540852 C 82.655869 91.200128 82.251259 91.040414 81.990392 91.25869 Z" style="fill:#121212;"/>
		<path d="M 245.734823 81.963318 C 245.612376 82.314689 245.276976 82.554261 244.904309 82.554261 L 183.914739 82.527642 C 183.398329 82.527642 182.961777 82.921604 182.919187 83.432689 Q 182.610406 86.760071 182.285653 89.256938 Q 181.891691 92.355395 181.731977 95.059891 Q 181.513701 98.914329 180.832253 103.322444 Q 180.709805 104.110368 180.667215 107.331273 C 180.661891 107.528254 180.741748 107.714588 180.885491 107.847683 Q 181.492405 108.417331 182.450691 108.199054 Q 184.495034 107.730559 186.534054 107.629407 C 186.741682 107.618759 186.949311 107.586816 187.151616 107.538902 Q 190.718568 106.687092 192.773559 106.687092 Q 194.040626 106.687092 198.262408 106.309102 Q 200.977551 106.064207 203.751256 106.319749 C 206.594171 106.58594 208.532038 106.58594 210.805304 106.995873 Q 214.69701 107.693292 214.941905 107.746531 Q 222.762582 109.38094 229.555764 113.592074 Q 238.680775 119.256608 243.509471 128.642486 Q 246.607928 134.663715 247.582186 140.903221 C 248.641624 147.66446 249.142062 154.148861 248.215719 160.894128 Q 248.040033 162.18249 247.678014 165.0467 Q 247.087071 169.683739 244.776538 175.476044 Q 242.79608 180.437835 239.48467 184.904512 Q 231.206145 196.047247 217.774172 201.051629 C 216.698762 201.450914 215.649972 201.58401 214.590534 202.105743 C 214.377581 202.217543 214.143333 202.292076 213.903762 202.329343 C 211.880714 202.670067 209.687304 203.463315 207.563104 203.702886 C 204.65098 204.032962 202.409656 204.575991 199.710484 204.623905 Q 195.158626 204.698439 191.911102 204.538724 Q 187.731911 204.331096 181.550967 203.223743 Q 173.485395 201.780991 164.860822 197.697628 Q 154.26644 192.687923 148.154706 184.973722 C 147.042029 183.568236 145.748344 181.60375 145.11481 179.868188 Q 143.54961 175.582521 144.018105 171.744053 Q 144.672934 166.3883 149.517601 164.508995 Q 150.853878 163.987262 153.430602 163.422938 C 155.639983 162.938471 157.647059 163.082214 160.378174 163.07689 C 162.981517 163.071566 165.510327 163.976614 167.559994 165.259652 C 167.703737 165.350157 167.831508 165.45131 167.953956 165.568433 Q 171.861633 169.444167 174.433033 171.227644 Q 177.355805 173.261339 180.997291 174.485816 Q 188.211054 176.913473 195.813455 176.402387 Q 197.767293 176.274616 198.36356 176.130873 C 199.545446 175.854035 200.413227 175.901949 201.749503 175.593168 Q 209.421114 173.836311 214.579886 167.793786 C 218.258639 163.486824 219.547001 157.64128 218.940087 152.09387 Q 218.333172 146.557107 215.213419 142.345973 Q 211.53999 137.384182 206.072437 134.935229 Q 200.26416 132.326562 193.071693 132.214762 C 190.420435 132.172172 186.954635 132.092315 184.191577 132.773762 Q 183.233291 133.00801 181.210243 133.396648 C 178.079843 134.003563 175.162395 136.021287 171.60609 138.406354 C 171.430404 138.523478 171.233423 138.587363 171.025794 138.598011 Q 167.197975 138.810963 163.57246 138.411678 C 159.819174 137.99642 157.918574 137.905916 152.445697 137.352239 Q 150.454592 137.149934 149.459039 134.812782 C 149.38983 134.658391 149.357887 134.493353 149.352563 134.328315 C 149.341915 132.582105 149.235439 131.410867 149.522925 130.191715 C 150.065954 127.875857 149.751849 125.389638 150.193725 122.993923 C 150.523801 121.205123 150.28423 119.698485 150.688839 117.899037 C 151.104097 116.07297 150.821935 113.288617 151.141363 111.345426 C 151.519354 109.050864 151.348992 107.32595 151.774897 105.281606 C 152.179506 103.338416 151.929287 100.756368 152.29663 98.610872 C 152.600087 96.864662 152.387135 95.331405 152.754478 93.803472 C 153.217649 91.913519 152.994049 89.411328 153.281535 87.212595 Q 153.553049 85.099042 154.090754 78.12485 Q 154.277087 75.670574 154.452773 74.50466 C 154.724288 72.705212 154.511335 71.251811 154.873354 69.67064 C 155.400411 67.360106 155.09163 64.83662 155.437678 62.185363 Q 155.693221 60.242172 155.767754 58.165886 Q 155.805021 57.234219 156.667478 56.7604 C 156.800574 56.685867 156.94964 56.6486 157.104031 56.6486 Q 211.699705 56.669895 244.494376 56.664571 Q 245.798709 56.664571 245.788061 58.2138 Q 245.697557 72.215421 245.756119 81.611946 Q 245.761442 81.888784 245.734823 81.963318 Z" style="fill:#121212;"/>
		<path d="M 298.185002 91.040414 Q 297.977373 91.120271 297.471611 91.508909 Q 291.173544 96.31631 289.038696 97.572729 Q 286.163838 99.265701 283.390133 100.170749 C 278.082294 101.900987 272.928846 99.830025 271.017598 94.442329 C 268.909369 88.484985 271.028246 82.724623 275.622694 78.699822 Q 276.815227 77.651031 297.961402 58.857981 Q 300.197402 56.8722 304.515012 56.707162 Q 307.230155 56.600686 327.45531 56.685867 Q 328.738349 56.691191 328.733025 58.075381 Q 328.690434 81.122156 328.727701 201.823581 C 328.727701 202.281429 328.360358 202.648772 327.90251 202.648772 Q 308.124555 202.606181 301.118421 202.611505 C 299.728907 202.611505 298.95163 202.733953 298.95163 200.971771 Q 298.946307 103.168054 298.962278 94.809672 Q 298.967602 92.983605 298.882421 91.492938 C 298.866449 91.14689 298.509754 90.917966 298.185002 91.040414 Z" style="fill:#121212;"/>
		<path d="M 435.081458 202.425172 Q 434.873829 202.579562 434.73541 202.579562 Q 409.601702 202.600857 406.732168 202.670067 Q 405.278768 202.707334 405.278768 201.301848 Q 405.332006 172.100749 405.326683 91.881576 C 405.326683 91.306605 404.730416 90.928614 404.208682 91.173509 L 403.43673 91.535528 C 403.064063 91.711214 402.712692 91.934814 402.398587 92.201005 Q 399.369339 94.740462 396.025986 97.019053 Q 393.018033 99.06872 389.733242 100.128158 Q 381.15126 102.896539 376.961422 95.602919 C 376.860269 95.432558 376.785736 95.251548 376.727174 95.059891 Q 374.927726 88.873623 377.61625 83.933127 Q 378.819431 81.723746 383.834461 77.336927 Q 392.821052 69.473659 404.762359 58.778124 Q 406.002806 57.665448 409.245007 56.733781 C 409.404721 56.685867 409.575083 56.659248 409.745445 56.659248 Q 411.427769 56.643276 434.000724 56.664571 Q 435.310382 56.664571 435.310382 58.075381 Q 435.235848 97.09891 435.278439 202.03121 C 435.278439 202.190924 435.203906 202.334667 435.081458 202.425172 Z" style="fill:#121212;"/>
	</g>
	<g id="surface4">
	</g>
</svg>
