<?xml version="1.0" encoding="utf-8"?>
<svg xmlns="http://www.w3.org/2000/svg" width="490pt" height="280pt" viewBox="0 0 490 280" version="1.1" xmlns:xlink="http://www.w3.org/1999/xlink">
	<g id="surface2" data-size="112.42313650929 148" data-bboxpos="189 53.904293954283" data-pivot="245.21156825465 127.90429395428" data-center="245.21156825465 127.90429395428">
		<path d="M 240.142758 70.507263 C 240.340365 70.285943 240.186232 69.938154 239.889821 69.938154 L 190.156003 69.938154 C 189.831927 69.938154 189.567133 69.67336 189.567133 69.349284 L 189.567133 54.746101 C 189.567133 54.382504 189.859592 54.090045 190.223189 54.090045 Q 270.210692 54.030763 294.887898 54.054476 Q 297.219665 54.054476 300.420904 53.904294 C 300.63432 53.892438 300.756836 54.145375 300.614559 54.303461 Q 300.393239 54.56035 300.227248 54.856761 C 300.183775 54.931852 300.132397 55.002991 300.073115 55.066225 L 234.400288 126.536851 C 234.10783 126.856975 234.175016 127.366802 234.542566 127.596026 Q 235.131436 127.967528 235.388325 128.374599 C 235.491081 128.544542 235.578028 128.674963 235.601741 128.698675 Q 251.560511 146.179022 266.136029 162.426298 C 274.648953 171.919355 283.470145 181.42822 292.070017 191.055651 Q 293.899861 193.102863 295.366108 194.616535 C 297.112957 196.422666 298.970466 198.892758 300.883305 200.793741 Q 301.270615 201.177099 301.416845 201.671117 C 301.448462 201.777825 301.369419 201.888485 301.254807 201.888485 Q 250.6199 201.888485 190.650021 201.904294 C 189.70941 201.904294 189.539468 201.568361 189.547372 200.671224 Q 189.57899 197.932386 189.57899 186.984939 C 189.57899 186.562059 189.918874 186.218223 190.341754 186.218223 L 240.221801 186.218223 C 240.56959 186.218223 240.755341 185.807199 240.522164 185.55031 L 189.148206 127.967528 C 188.950598 127.746208 188.950598 127.410276 189.148206 127.188955 L 240.142758 70.507263 Z" style="fill:#032954;"/>
	</g>
	<g id="surface4">
	</g>
</svg>
