<?xml version="1.0" encoding="utf-8"?>
<svg xmlns="http://www.w3.org/2000/svg" width="490pt" height="280pt" viewBox="0 0 490 280" version="1.1" xmlns:xlink="http://www.w3.org/1999/xlink">
	<g id="surface2" data-size="140.99324967012 148" data-bboxpos="174.5 50.425808557421" data-pivot="244.99662483506 124.42580855742" data-center="244.99662483506 124.42580855742">
		<path d="M 194.9987 198.301254 C 194.841584 198.212737 194.781835 198.013576 194.865925 197.852034 Q 197.021294 193.660793 199.413444 188.878707 Q 199.544005 188.619797 199.588263 188.307778 C 199.619244 188.095339 199.464341 187.900604 199.249689 187.8829 C 197.691804 187.756765 196.178178 187.643907 194.728725 187.389423 C 193.710789 187.21239 192.925208 187.161494 192.035621 186.9911 Q 190.464459 186.692358 188.676432 186.258629 C 183.856727 185.085789 180.023976 182.217865 177.954911 177.789844 C 176.855098 175.430888 176.175736 172.576241 175.784052 169.571117 Q 175.277297 165.65649 175.199845 164.142863 Q 175.164439 163.461289 175.137884 163.147056 Q 174.812587 159.444867 174.728497 155.786937 C 174.673174 153.394787 174.533761 151.146476 174.520484 148.322811 Q 174.478438 140.31431 174.522696 131.595467 C 174.535974 128.897937 174.770542 126.08091 174.7462 123.471895 Q 174.737348 122.540263 174.841355 121.38734 C 174.971916 119.962229 174.901103 118.85799 175.07371 117.561228 C 175.208697 116.538866 175.098052 115.461182 175.272871 114.498569 C 175.443265 113.569149 175.383516 112.537935 175.55391 111.553193 C 175.671194 110.882683 175.613658 110.185618 175.713239 109.384547 Q 176.107136 106.191326 176.146968 105.892584 Q 176.591762 102.458156 177.410537 99.649981 C 178.255866 96.746651 179.884564 94.296965 182.502429 92.6395 Q 184.538301 91.353803 186.797676 90.703209 Q 190.196697 89.727318 192.128563 89.437428 Q 194.354745 89.103279 194.943377 89.02804 Q 195.379319 88.972718 197.005804 88.704956 Q 198.280437 88.49473 199.074869 88.450472 Q 199.813979 88.408427 201.017799 88.226969 C 202.318987 88.032233 203.934407 87.965846 205.206827 87.788814 Q 206.561125 87.598504 207.448499 87.574162 Q 208.172119 87.554246 210.241184 87.346233 C 212.591289 87.109452 213.919031 87.074046 216.634265 86.86382 Q 218.355904 86.731046 220.236873 86.65802 Q 221.571254 86.60491 224.826437 86.4146 C 228.807451 86.180033 232.540621 86.24642 236.300345 86.007426 C 236.446397 85.998574 236.579171 85.916697 236.65441 85.790561 Q 237.347049 84.608871 238.334004 83.694941 C 238.449075 83.586509 238.46014 83.405051 238.356133 83.285554 L 214.270883 55.491476 C 214.111554 55.307805 213.87256 55.21265 213.629141 55.241418 Q 212.100024 55.422876 211.274611 54.316424 C 210.442559 53.196694 210.564268 51.483906 211.892011 50.769138 Q 212.73734 50.31328 213.503005 50.479248 C 214.720103 50.742583 215.660587 51.70741 215.530026 52.986468 Q 215.461426 53.66583 215.421593 54.112837 C 215.410529 54.250037 215.445935 54.387237 215.521174 54.502308 Q 215.749103 54.843095 216.010226 55.146263 Q 224.605146 65.040158 230.22371 71.581503 Q 230.914136 72.384787 231.679801 73.272162 Q 235.218235 77.383738 239.316534 82.123779 Q 239.582082 82.431373 239.907379 82.617257 C 239.964915 82.65045 240.035728 82.652663 240.097689 82.623895 Q 241.954316 81.740947 243.773323 81.49974 Q 247.822938 80.964217 251.549469 82.524315 C 252.029669 82.725689 252.140314 82.491121 252.470037 82.097224 Q 267.858573 63.818635 275.822816 54.380598 C 275.915758 54.269953 275.931248 54.11505 275.860435 53.988914 Q 275.614803 53.54412 275.659061 52.884675 Q 275.802899 50.691687 277.925075 50.439416 Q 278.881049 50.326557 279.806043 51.149758 Q 280.279605 51.57021 280.45885 52.453158 C 280.700057 53.65034 279.868005 54.825392 278.717294 55.210437 C 278.666398 55.225928 278.611075 55.236992 278.555752 55.241418 L 277.270055 55.314444 C 277.117365 55.323295 276.975739 55.394108 276.878371 55.511392 L 253.618534 83.150567 C 253.468057 83.329812 253.456992 83.588722 253.594192 83.781244 L 254.972832 85.715323 C 255.118883 85.91891 255.351238 86.042833 255.601296 86.051684 Q 260.828176 86.230929 262.848558 86.264123 C 264.134255 86.286252 265.619114 86.474349 267.077418 86.463284 Q 267.845296 86.458859 269.257129 86.609336 Q 270.095819 86.700065 271.441265 86.697852 C 272.096285 86.697852 272.835395 86.821775 273.368705 86.854968 Q 277.57101 87.111665 281.616199 87.483433 Q 285.929149 87.881756 290.228822 88.359743 Q 294.528495 88.837731 298.651136 89.579054 Q 300.074034 89.83575 302.627725 90.468641 C 306.194927 91.35159 309.41249 93.163958 311.353207 96.31956 C 312.187472 97.673857 312.809298 99.572529 313.143446 101.128201 C 313.444401 102.531182 313.681182 103.252589 313.780763 104.387809 C 313.867066 105.359274 314.117124 106.147068 314.145892 107.054359 C 314.196789 108.550282 314.57077 110.258644 314.612815 111.838658 C 314.67035 113.867891 315.024415 116.720325 315.075312 119.026171 Q 315.090802 119.712171 315.347499 126.255729 Q 315.475847 129.535253 315.47806 131.223699 C 315.484699 137.355657 315.557725 143.334924 315.312092 149.593018 Q 315.168254 153.235458 315.059821 156.906666 C 314.991221 159.22579 314.659286 162.000772 314.592899 164.151715 C 314.550853 165.477244 314.254324 166.632381 314.179085 167.962336 Q 314.143679 168.548756 313.995414 169.487027 C 313.548408 172.326183 312.990756 175.096739 311.809065 177.637154 Q 309.733361 182.098369 305.555398 184.481666 C 304.783094 184.922034 303.869164 185.249544 303.061454 185.599183 Q 302.782628 185.720893 302.021389 185.933332 C 301.069841 186.201093 299.622601 186.603842 298.564833 186.780874 Q 296.050974 187.199113 293.95314 187.484578 Q 292.364275 187.699229 289.591506 187.865197 Q 289.239654 187.887326 289.005086 188.212623 C 288.965254 188.267946 288.958615 188.338759 288.987383 188.398507 Q 291.295442 193.193871 292.014636 194.678729 Q 292.800217 196.300788 293.676527 197.805563 C 293.789385 197.998086 293.680953 198.245931 293.464089 198.294615 C 293.041424 198.391983 292.623185 198.276912 292.193881 198.318957 Q 291.052023 198.434028 287.916338 198.425176 Q 287.250253 198.422963 286.882911 197.929486 Q 283.579045 193.474909 280.073805 189.031398 Q 279.757359 188.628649 279.237327 188.630862 C 278.000313 188.635288 276.256545 188.903049 274.950931 188.914114 Q 273.331085 188.931817 272.782285 188.98714 C 271.200059 189.148682 269.369987 189.104423 267.544341 189.265965 C 265.621327 189.436359 263.685036 189.352269 261.837261 189.460701 C 257.880588 189.68863 254.182825 189.553643 250.385481 189.662075 Q 245.304653 189.808127 240.232676 189.708546 C 235.994964 189.626669 231.097807 189.666501 226.286953 189.440785 C 224.456882 189.354482 222.609106 189.465127 220.712647 189.239411 C 219.376053 189.077869 217.919962 189.173024 216.505916 189.009269 Q 215.875239 188.936243 214.523154 188.938456 C 212.938715 188.940669 211.057746 188.686185 209.291848 188.666268 C 208.995319 188.664056 208.712068 188.799043 208.526184 189.033611 L 201.447103 198.018002 C 201.25458 198.263634 200.958051 198.409686 200.643819 198.411899 Q 197.019081 198.438454 195.2731 198.367641 Q 195.109345 198.363215 194.9987 198.301254 Z M 192.898654 174.729397 C 193.111092 174.503681 193.075686 174.244771 193.113305 173.950455 Q 193.250505 172.921454 193.447454 172.067273 Q 196.625184 158.373822 202.989497 145.709371 Q 209.402494 132.945339 218.333775 122.113172 Q 228.294058 110.030715 242.193309 102.261208 Q 242.604909 102.031066 243.111665 101.90493 C 243.293123 101.860672 243.467942 101.962466 243.487858 102.121795 Q 243.523265 102.413898 243.363936 102.719279 Q 239.031069 111.084057 236.260513 120.004274 Q 234.220215 126.574387 233.372673 131.487035 Q 232.620285 135.868585 232.480872 137.760618 Q 232.078124 143.244195 232.359163 147.793926 Q 232.514066 150.305573 233.155808 154.171517 Q 233.262028 154.815472 233.605028 156.202963 Q 234.045396 157.988776 234.102931 158.216706 Q 234.815486 161.060288 236.262726 164.525696 Q 239.803373 172.998906 245.888859 180.066922 C 245.917627 180.100116 245.953034 180.128884 245.992866 180.151013 Q 246.278331 180.310342 246.816066 180.308129 Q 255.946509 180.268297 264.738378 179.783671 Q 265.298243 179.75269 265.736398 179.728348 Q 270.441032 179.473864 271.332833 179.378709 Q 272.591975 179.245935 274.716363 179.144141 Q 276.185732 179.075541 278.10432 178.845399 C 278.98063 178.741393 279.985289 178.761309 280.737676 178.655089 Q 282.826658 178.360773 283.873361 178.301025 C 285.159059 178.227999 286.402711 177.898276 287.626447 177.796483 C 287.703899 177.789844 287.779137 177.767715 287.84995 177.732308 Q 288.038047 177.637154 289.299403 177.351689 Q 290.297423 177.12376 291.715894 176.530701 C 296.36078 174.583346 299.474337 170.865666 300.835273 166.003916 Q 301.662899 163.049688 302.089989 159.94941 Q 302.614448 156.14764 302.948596 151.85018 C 303.096861 149.955934 303.043751 148.524185 303.176525 146.944171 Q 303.293809 145.55668 303.333642 143.27075 Q 303.46199 135.84203 303.242913 131.099777 Q 303.110138 128.238491 303.105712 128.085801 Q 303.061454 126.364161 302.950809 125.074038 Q 302.767138 122.927521 302.539209 120.229991 Q 302.357751 118.070196 301.629705 113.080097 Q 301.32875 111.019883 300.607344 108.521514 C 299.483188 104.626803 297.09989 101.125988 293.563669 99.225103 Q 291.653933 98.198316 290.423558 97.897361 Q 286.867421 97.025476 286.015453 96.948025 Q 284.506252 96.810825 283.160806 96.624941 C 281.872896 96.445696 280.861599 96.421354 279.562624 96.188999 Q 278.730572 96.038521 277.455939 95.983199 Q 276.398171 95.93894 275.342615 95.828295 Q 273.645318 95.653476 272.076369 95.567173 C 269.710774 95.434398 267.327476 95.11574 264.886643 95.084759 C 264.182939 95.075908 263.315481 94.912153 262.746764 94.90994 C 260.095705 94.901088 257.462349 94.639966 254.926361 94.664308 Q 253.985876 94.673159 250.5603 94.476211 Q 248.564261 94.36114 239.754689 94.454082 C 238.707985 94.465146 237.597107 94.63554 236.503932 94.639966 Q 230.763659 94.662095 225.709385 94.974114 C 223.784159 95.093611 222.646726 95.078121 220.991473 95.230811 Q 219.829699 95.339243 218.915769 95.363585 Q 218.887001 95.363585 217.984136 95.432185 Q 212.274843 95.863702 212.197392 95.87034 C 211.055533 95.994263 209.787539 95.998689 208.490777 96.146953 Q 201.717077 96.92147 201.356374 96.959089 Q 200.477851 97.049818 197.136365 97.751309 C 196.634036 97.855316 196.326442 98.078819 195.8905 98.169548 Q 195.611674 98.227083 194.972145 98.505909 C 194.348106 98.773671 193.478435 99.176419 192.965041 99.484013 Q 189.214168 101.732324 187.353115 105.735468 Q 186.616218 107.32212 186.383863 108.12983 Q 185.646966 110.679096 185.115869 113.894446 Q 184.934411 114.98762 184.580346 117.561228 C 184.487404 118.24059 184.502895 118.793816 184.418804 119.335977 Q 184.261688 120.331784 184.239559 120.665933 C 184.044824 123.485173 183.697398 126.738142 183.61552 129.621556 Q 183.544707 132.018132 183.451765 134.598378 Q 183.274733 139.413658 183.411933 142.744079 Q 183.593391 147.101287 183.593391 147.125629 Q 183.560198 148.727772 183.796978 151.285889 Q 183.799191 151.314657 184.157682 155.452788 Q 184.498469 159.409461 185.396908 163.817566 C 186.326328 168.385001 188.550297 172.270861 192.566718 174.773655 C 192.672937 174.840042 192.81235 174.820126 192.898654 174.729397 Z" style="fill:#ff8119;"/>
	</g>
	<g id="surface4">
	</g>
</svg>
