<?xml version="1.0" encoding="utf-8"?>
<svg xmlns="http://www.w3.org/2000/svg" width="490pt" height="280pt" viewBox="0 0 490 280" version="1.1" xmlns:xlink="http://www.w3.org/1999/xlink">
	<g id="surface2" data-size="179.31553227167 148" data-bboxpos="155.5 56.593995294834" data-pivot="245.15776613584 130.59399529483" data-center="245.15776613584 130.59399529483">
		<path d="M 164.997517 144.410933 C 164.56846 144.410933 164.330095 143.918312 164.584351 143.574007 L 165.702017 142.080254 C 165.74969 142.011393 165.792066 141.937235 165.818551 141.85778 Q 167.17988 138.054536 167.201068 134.336043 C 167.201068 133.938769 167.243444 133.541494 167.322899 133.154813 Q 167.804926 130.882401 168.101557 127.67242 Q 168.302843 125.442384 168.721306 122.290671 Q 169.129175 119.218412 169.372837 116.903624 Q 169.780706 113.026222 170.638819 111.633111 Q 170.818917 111.341777 172.19084 109.053474 C 172.344453 108.799218 172.423907 108.507883 172.423907 108.211251 L 172.423907 85.778466 C 172.423907 85.344112 172.116682 84.973322 171.698219 84.893867 L 169.462886 84.470108 Q 169.415213 84.459514 169.36754 84.44892 L 155.759553 81.191266 C 155.600643 81.154187 155.489406 81.005871 155.5 80.841664 C 155.510594 80.677457 155.637722 80.545032 155.801929 80.529141 Q 158.381567 80.274885 159.859429 79.549197 C 159.880617 79.538603 159.901805 79.528009 159.92829 79.522712 L 164.19767 78.32559 C 164.255937 78.309699 164.319501 78.299105 164.377768 78.293808 Q 165.966867 78.177274 168.059181 77.372131 C 168.233982 77.30327 168.419377 77.260894 168.610069 77.234409 Q 170.17798 77.027826 171.920693 76.312731 C 172.0849 76.24387 172.264998 76.196197 172.445095 76.175009 Q 174.018304 75.994911 175.888144 75.290411 C 176.105321 75.210956 176.327795 75.152689 176.555566 75.126204 Q 178.091695 74.930215 179.855595 74.257496 C 180.109851 74.156853 180.379998 74.093289 180.655442 74.061507 Q 182.143898 73.876112 183.807155 73.213988 C 184.056114 73.113345 184.315667 73.044484 184.580517 73.002108 Q 186.068973 72.76904 187.933517 72.064539 C 188.103021 72.000975 188.277821 71.958599 188.457919 71.937411 Q 190.195335 71.757313 191.975126 71.021031 C 192.160521 70.946873 192.351213 70.8992 192.547202 70.872715 Q 194.01447 70.697914 195.894904 69.961631 C 196.048517 69.903364 196.212724 69.860988 196.376931 69.834503 Q 197.960733 69.612029 199.804088 68.907528 C 200.058344 68.812182 200.323194 68.748619 200.588044 68.722134 C 202.087094 68.573818 203.586145 67.736892 204.809751 67.636249 Q 205.212323 67.59917 209.349278 66.407346 Q 210.885407 65.962398 213.899399 65.183739 Q 218.205858 64.076667 218.55546 63.954836 Q 219.689017 63.552264 220.986782 63.308602 Q 222.692415 62.985485 223.471074 62.593507 C 223.497559 62.577616 223.529341 62.567022 223.555826 62.561725 L 227.872879 61.380495 C 227.88877 61.375198 227.904661 61.375198 227.920552 61.375198 C 229.684452 61.173912 231.247066 60.358174 232.926215 60.146294 Q 233.810813 60.035057 235.717732 59.330557 C 235.881939 59.27229 236.051443 59.229914 236.226244 59.208726 Q 237.884204 59.002143 239.663996 58.302939 C 239.690481 58.292345 239.716966 58.281751 239.743451 58.276454 L 246.364698 56.66087 C 246.756675 56.565524 247.169841 56.570821 247.556522 56.682058 Q 272.420629 63.695283 277.81827 65.210224 Q 282.108838 66.41794 286.41 67.556794 Q 291.362693 68.870449 294.996433 69.903364 Q 311.968014 74.713038 331.503341 79.946472 Q 332.499176 80.211321 334.427284 80.497359 C 334.813964 80.555626 334.951686 81.037653 334.660351 81.291909 C 333.998227 81.874579 332.621007 82.007004 331.768191 82.266557 C 331.582796 82.324823 331.397401 82.356605 331.201412 82.372496 C 329.411027 82.510218 327.991431 83.135264 325.925602 83.643776 Q 314.42582 86.47767 306.994133 88.437559 C 305.346766 88.871913 303.800043 89.10498 302.157974 89.703541 C 301.967282 89.772402 301.771293 89.814778 301.570007 89.835966 C 300.055066 89.994876 298.312354 90.741753 296.744442 91.017197 Q 294.932869 91.335016 293.841688 91.779964 C 293.576838 91.891201 293.296097 91.949468 293.010059 91.960062 Q 291.415663 92.018329 289.630574 92.818176 C 289.323349 92.955898 288.989638 93.030056 288.65063 93.030056 C 286.99267 93.035353 285.636638 93.935842 283.920411 94.126534 C 283.565512 94.163613 283.21591 94.243068 282.887496 94.364899 Q 281.330179 94.936975 280.969983 94.995242 Q 278.994203 95.33425 278.9995 95.413705 Q 279.004797 95.461378 267.90229 98.464775 Q 257.816807 101.187432 248.123301 104.556323 C 247.349939 104.826469 246.507717 104.826469 245.734355 104.56162 Q 240.871711 102.893065 231.427164 100.096251 Q 218.211155 96.192363 214.196031 95.344844 Q 212.78703 95.048212 212.739357 95.027024 Q 211.160851 94.290741 209.359872 94.057673 C 209.343981 94.052376 209.333387 94.052376 209.322793 94.047079 L 176.243043 85.889703 C 175.946411 85.815545 175.660373 86.043316 175.660373 86.345245 Q 175.676264 104.418601 175.734531 107.888134 Q 175.745125 108.67209 177.159423 110.605494 C 178.123477 111.919149 178.679662 113.794287 178.780305 115.748879 Q 179.103422 121.739783 179.558963 125.564215 C 179.924456 128.652365 179.818516 131.216112 180.162821 134.309558 Q 180.538908 137.683746 180.660739 140.326948 Q 180.724303 141.757137 179.919159 143.489255 C 179.845001 143.648165 179.728467 143.78059 179.574854 143.865342 Q 178.679662 144.389745 177.757984 144.389745 Q 170.066744 144.426824 164.997517 144.410933 Z M 236.962527 76.948371 Q 236.962527 77.366834 237.354505 77.493962 Q 240.522109 78.548064 245.681385 79.686919 Q 246.046878 79.766374 247.042713 79.761077 Q 248.038549 79.75578 248.404042 79.671028 Q 253.547426 78.468609 256.704437 77.377428 Q 257.091118 77.245003 257.091118 76.821243 Q 257.085821 76.40278 256.693843 76.270355 Q 253.526238 75.22155 248.37226 74.082695 Q 248.00147 74.00324 247.005634 74.008537 Q 246.015096 74.013834 245.644306 74.098586 Q 240.500921 75.301005 237.349208 76.392186 Q 236.95723 76.524611 236.962527 76.948371 Z" style="fill:#010609;"/>
		<path d="M 240.204289 182.03021 C 240.532703 181.844815 240.564485 181.383976 240.262556 181.161503 Q 239.616323 180.679476 238.530438 179.932599 Q 237.195595 179.016219 236.141492 177.162269 Q 235.336349 175.753268 235.415804 173.841052 Q 235.495258 171.902351 236.416936 170.61518 Q 237.100249 169.656424 237.894798 169.094942 Q 238.901228 168.37455 239.695778 167.940196 C 240.183101 167.67005 240.230774 166.986737 239.785827 166.647729 Q 239.425631 166.382879 238.541032 166.170999 C 238.376825 166.13392 238.223212 166.059762 238.08549 165.964416 C 234.827837 163.644331 232.910324 161.292464 234.118039 156.890659 Q 234.303434 156.20205 235.436991 155.14265 Q 237.868313 152.864941 240.74988 152.26638 C 241.0677 152.202816 241.157749 151.789651 240.898196 151.598959 Q 240.866414 151.577771 237.407475 149.872137 Q 235.267488 148.818035 234.23987 147.73215 Q 232.470673 145.857013 231.956864 143.086684 C 231.925082 142.91718 231.914488 142.747676 231.930379 142.572875 Q 232.322357 138.721957 235.712435 136.868008 Q 240.347308 134.336043 245.411238 134.34134 C 245.819107 134.34134 246.13163 133.991739 246.094551 133.589167 L 246.073363 133.361396 C 246.046878 133.059467 245.81381 132.815805 245.511881 132.773429 Q 240.919384 132.15368 236.284511 132.201353 Q 236.009067 132.201353 235.421101 131.952394 C 235.262191 131.883533 235.097984 131.841157 234.92848 131.814673 Q 220.176341 129.483994 206.218752 123.498386 C 205.673162 123.265318 205.307669 122.746213 205.27059 122.152949 C 205.132868 119.965289 204.836236 117.152583 204.820345 114.429926 Q 204.756781 105.949433 204.730296 103.613457 C 204.709108 101.807181 204.184705 99.476502 204.311833 97.966858 Q 204.433664 96.541965 205.821478 96.880973 Q 220.10748 100.355803 225.738189 102.034952 Q 236.448718 105.239635 244.362433 107.898728 Q 246.634845 108.666793 248.854287 107.898728 Q 259.962091 104.079593 268.940502 101.648271 C 270.900391 101.118571 272.092215 100.583574 273.437653 100.419367 C 273.644236 100.392882 273.850818 100.345209 274.046807 100.276349 Q 276.01729 99.566551 277.680548 99.33878 C 277.701736 99.33878 277.722924 99.333483 277.744112 99.328186 L 284.889762 97.394782 C 284.91095 97.389485 284.932138 97.384188 284.953326 97.378891 C 286.860245 97.225278 288.820134 95.980483 290.832993 96.229442 C 291.007794 96.25063 291.140219 96.398946 291.140219 96.579044 Q 291.055467 108.073529 291.071358 109.260057 C 291.124328 113.497655 290.57344 117.396245 290.562846 122.237701 C 290.562846 122.883934 290.160274 123.466604 289.551119 123.694375 L 283.825065 125.85555 C 283.793283 125.866144 283.761501 125.871441 283.724422 125.876738 C 282.67032 125.993272 281.854582 126.565348 280.826964 126.86198 Q 275.233335 128.461673 274.51824 128.662959 Q 268.760404 130.278543 258.330615 132.010661 Q 257.218246 132.196056 257.091118 132.201353 Q 254.569747 132.233135 250.369228 132.407936 C 250.109675 132.41853 249.887201 132.588034 249.807746 132.836993 Q 249.611757 133.440851 249.903092 134.283073 C 249.961359 134.44728 250.088487 134.574408 250.257991 134.632675 Q 252.276147 135.310691 253.388517 135.459007 C 253.55802 135.480195 253.722227 135.522571 253.87584 135.591432 Q 257.01696 136.926275 258.235269 137.885032 Q 258.659029 138.218743 260.184565 139.760169 Q 261.164509 140.745411 261.741882 141.889562 Q 263.722959 145.814637 260.857283 149.670852 Q 260.216346 150.534262 257.181167 152.250489 C 257.043445 152.324647 256.884535 152.37232 256.725625 152.382914 Q 255.756274 152.430587 254.898161 153.103306 C 254.749845 153.21984 254.733954 153.43172 254.855785 153.569442 Q 255.592068 154.416961 256.206519 154.517604 C 256.354835 154.544089 256.492557 154.607653 256.598497 154.713593 Q 259.57541 157.605754 260.316989 159.968215 Q 260.470602 160.455539 260.343474 162.971613 C 260.33288 163.141117 260.295801 163.310621 260.22694 163.464233 Q 259.25759 165.662487 257.22884 166.901985 C 256.54023 167.325745 255.761571 167.484655 254.967022 168.014354 C 254.659796 168.220937 254.638608 168.665885 254.924646 168.898953 C 255.380188 169.269743 255.888699 169.243258 256.180034 169.518702 Q 258.606059 171.807005 259.231105 173.639766 Q 259.480064 174.381346 259.31056 176.96628 C 259.294669 177.183457 259.231105 177.395337 259.119868 177.580732 Q 257.684382 179.937896 256.105876 180.695367 Q 254.712766 181.362789 253.881137 181.892488 C 253.754009 181.971943 253.61099 182.019616 253.462674 182.024913 Q 251.921248 182.109665 250.512247 182.999561 C 250.141457 183.232629 250.167942 183.783516 250.55992 183.974208 Q 252.387384 184.879995 253.912919 187.115328 Q 256.598497 191.040403 252.922381 194.356324 Q 252.599264 194.642362 250.7718 195.659385 C 250.639375 195.733543 250.501653 195.79181 250.353337 195.834186 Q 248.976117 196.226164 248.880772 197.190217 Q 248.74305 198.652189 248.711268 199.886389 C 248.705971 200.082378 248.674189 200.27307 248.615922 200.458465 Q 248.133895 201.999891 248.059737 204.033938 C 248.049143 204.282897 247.884936 204.505371 247.651868 204.579529 L 247.635977 204.584826 C 247.450582 204.632499 247.265187 204.505371 247.243999 204.314679 L 246.158115 192.889055 C 246.105145 192.354059 245.686682 191.930299 245.151685 191.866735 C 243.435458 191.676043 242.121803 190.78085 240.940572 189.97041 C 238.318558 188.164133 236.602331 184.069554 240.204289 182.03021 Z M 246.089254 148.441948 L 246.089254 139.03448 C 246.089254 138.303495 245.358268 137.80028 244.680252 138.059833 Q 243.186499 138.621314 241.989378 138.621314 C 241.719231 138.621314 241.449084 138.684878 241.205422 138.806709 L 239.293206 139.770763 C 239.155484 139.839624 239.028356 139.940267 238.922416 140.056801 Q 237.97955 141.121497 237.878907 141.550554 Q 237.48693 143.155544 238.498656 144.538061 Q 240.236071 146.905819 243.73209 148.251256 Q 245.056339 148.759768 245.750246 148.775659 C 245.935641 148.780956 246.089254 148.63264 246.089254 148.441948 Z M 249.76537 139.426458 L 249.76537 148.780956 C 249.76537 148.971648 249.887201 149.135855 250.067299 149.194122 Q 250.808879 149.432487 251.513379 149.135855 C 254.002968 148.076455 256.142955 147.250124 256.948099 144.744644 C 257.011663 144.548655 257.01696 144.336775 256.958693 144.140786 Q 256.317756 141.863077 253.955295 140.644768 Q 252.096049 139.680714 250.332149 139.03448 C 250.056705 138.933837 249.76537 139.135123 249.76537 139.426458 Z M 245.723761 155.751805 Q 245.156982 155.471064 244.791489 155.624677 Q 243.09645 156.345069 241.533836 156.721155 C 241.486163 156.731749 241.43849 156.74764 241.396114 156.774125 L 239.918252 157.695803 C 239.473304 157.971247 239.176672 158.437383 239.123702 158.956488 Q 238.93301 160.757468 239.844094 161.668551 Q 241.65037 163.485421 242.995807 164.009824 Q 243.647338 164.26408 244.765004 165.037442 C 245.368862 165.455905 246.1846 164.989769 246.136927 164.258783 Q 246.041581 162.913346 246.110442 156.392742 Q 246.115739 155.942497 245.723761 155.751805 Z M 249.738885 164.68784 C 249.738885 165.026848 250.099081 165.238728 250.395713 165.079818 Q 252.074861 164.174031 252.848223 163.570173 Q 254.145987 162.558447 254.527371 161.329543 Q 254.951131 159.94173 253.780494 158.649263 Q 252.223177 156.922441 250.45398 156.106704 C 250.120269 155.953091 249.738885 156.196753 249.738885 156.562246 L 249.738885 164.68784 Z M 245.501287 170.493349 Q 242.741551 171.076019 240.998839 172.744573 Q 240.093052 173.602687 240.241368 175.175895 C 240.257259 175.36129 240.32612 175.536091 240.43206 175.684407 Q 242.264821 178.258748 245.416535 179.318147 C 245.596633 179.381711 245.797919 179.344632 245.951532 179.228098 Q 246.645439 178.671914 246.216382 177.718454 C 246.147521 177.580732 246.115739 177.427119 246.115739 177.273506 C 246.121036 174.344267 245.967423 172.188389 246.242867 171.40973 Q 246.354104 171.097207 246.269352 170.811169 Q 246.136927 170.360924 245.501287 170.493349 Z M 249.754776 171.324978 L 249.775964 178.666617 C 249.775964 178.746072 249.844825 178.809636 249.92428 178.809636 L 250.130863 178.809636 C 252.345008 178.804339 254.135393 177.098705 254.130096 175.006391 L 254.130096 174.964015 C 254.124799 172.866404 252.318523 171.176662 250.099081 171.181959 L 249.892498 171.181959 C 249.81834 171.181959 249.754776 171.25082 249.754776 171.324978 Z M 246.279946 189.355958 Q 246.624251 186.940527 246.13163 185.038905 C 245.999205 184.525096 245.538366 184.170197 245.008666 184.170197 L 242.895164 184.170197 C 242.720363 184.170197 242.561453 184.260246 242.476701 184.408562 L 241.96819 185.293161 C 241.613291 185.907612 241.671558 186.680974 242.121803 187.226565 Q 243.546695 188.985168 245.517178 189.795609 C 245.850889 189.933331 246.226976 189.716154 246.279946 189.355958 Z M 249.278046 187.713889 L 249.278046 192.205743 C 249.278046 192.26401 249.325719 192.311683 249.383986 192.311683 L 249.60646 192.311683 C 250.649969 192.311683 251.492191 191.289362 251.492191 190.033974 L 251.492191 189.885658 C 251.492191 188.630269 250.649969 187.607949 249.60646 187.607949 L 249.383986 187.607949 C 249.325719 187.607949 249.278046 187.655622 249.278046 187.713889 Z" style="fill:#010609;"/>
	</g>
	<g id="surface4">
	</g>
</svg>
