<?xml version="1.0" encoding="utf-8"?>
<svg xmlns="http://www.w3.org/2000/svg" width="490pt" height="280pt" viewBox="0 0 490 280" version="1.1" xmlns:xlink="http://www.w3.org/1999/xlink">
	<g id="surface2" data-size="153.14057986238 148" data-bboxpos="168.5 52.243736583825" data-pivot="245.07028993119 126.24373658383" data-center="245.07028993119 126.24373658383">
		<path d="M 228.579066 69.860183 Q 228.170101 70.540751 227.81733 70.659382 C 227.779868 70.671869 227.742405 70.681235 227.701821 70.684357 L 221.792124 71.255659 C 221.573593 71.277512 221.408134 71.461702 221.411256 71.683355 Q 221.479937 76.25377 220.774395 80.065571 Q 220.627667 80.867891 219.99705 82.416338 Q 219.541257 83.54021 218.807618 84.573549 Q 214.393296 90.789188 206.242098 90.317786 Q 205.458509 90.27408 203.732116 89.85575 C 199.367744 88.806802 196.358263 85.44455 194.634992 81.339293 Q 192.490268 76.225673 191.918967 70.578213 Q 191.60678 67.496929 192.118766 64.587348 Q 192.696312 61.324996 194.16359 58.967985 Q 196.514357 55.196768 200.938044 53.423547 Q 201.503102 53.195651 203.457392 52.633714 C 203.55417 52.605617 203.657191 52.590008 203.757091 52.590008 C 204.606239 52.583764 205.474119 52.296552 206.438776 52.25909 Q 211.340109 52.071778 215.245566 54.169673 Q 219.260289 56.323763 221.158385 60.27917 Q 222.613176 63.310504 222.716197 66.547881 C 222.722441 66.791387 222.900388 66.99743 223.140771 67.038015 Q 225.391638 67.440736 227.423975 68.374174 Q 228.25127 68.75192 228.597797 69.591703 C 228.63526 69.679115 228.629016 69.779015 228.579066 69.860183 Z M 195.565309 66.373057 C 195.490384 66.622806 195.674574 66.872556 195.933689 66.878799 Q 196.948296 66.89753 197.922319 66.760168 C 199.817293 66.485444 201.774705 66.351204 203.675923 66.338716 Q 209.766688 66.29501 214.271544 66.382422 C 215.663897 66.410519 216.993813 66.635294 218.654647 66.675878 C 218.879421 66.682122 219.06049 66.488566 219.041758 66.263791 L 218.916884 64.69037 C 218.913762 64.631054 218.898152 64.57486 218.876299 64.521789 C 218.5766 63.744443 218.401775 62.873442 218.073979 62.158534 Q 216.001059 57.634947 211.196503 56.014698 C 210.843732 55.896067 210.478474 56.161425 210.478474 56.532928 L 210.478474 62.645546 C 210.478474 63.085729 210.166287 63.463475 209.735469 63.547766 C 208.792665 63.735078 206.850863 63.859953 206.832131 62.389553 Q 206.782182 58.57463 206.816522 56.192644 C 206.819644 55.939773 206.622966 55.730608 206.373217 55.71812 Q 205.249344 55.665048 204.100497 55.970991 Q 197.869248 57.628703 196.071051 63.700737 C 195.799449 64.618567 195.852521 65.399034 195.565309 66.373057 Z M 195.493506 71.299365 C 195.359265 71.499164 195.431068 71.773889 195.646477 71.886276 Q 196.133489 72.148513 197.179315 72.604306 C 197.525842 72.757277 197.750617 73.100683 197.750617 73.478429 L 197.750617 76.812584 C 197.750617 77.465055 198.237628 78.014503 198.883855 78.09255 L 198.996242 78.105038 C 199.642469 78.176841 200.210649 77.677342 200.223136 77.027993 Q 200.257477 75.3016 200.238746 74.418111 Q 200.210649 73.234923 201.322034 73.31297 Q 207.968491 73.765641 213.46298 73.462819 C 213.54727 73.459698 213.631561 73.478429 213.706485 73.515891 Q 214.405784 73.868662 214.418271 74.180849 Q 214.505684 76.15387 214.58373 77.230915 C 214.627437 77.824069 215.15191 78.261131 215.741944 78.198694 L 215.851209 78.186206 C 216.494314 78.117525 216.959472 77.546223 216.897035 76.903118 Q 216.700357 74.848929 217.043763 73.465941 C 217.074981 73.341067 217.131175 73.228679 217.2061 73.12878 C 217.633796 72.585574 218.870056 72.41075 219.175999 71.739548 C 219.297752 71.471068 219.097952 71.168246 218.804496 71.177612 Q 211.855218 71.371168 202.882968 71.240049 Q 200.544689 71.205709 197.185558 70.959081 Q 196.392604 70.902887 195.865008 71.062103 Q 195.596527 71.143271 195.493506 71.299365 Z" style="fill:#304357;"/>
		<path d="M 222.585079 97.267065 Q 227.233541 100.201621 229.52187 102.258933 Q 234.410716 106.645158 237.972768 111.752534 Q 239.059178 113.307224 240.173685 114.815087 C 240.320413 115.011765 240.585771 115.07108 240.80118 114.955571 Q 245.674417 112.342567 250.44151 108.777394 Q 252.551893 107.203972 254.780907 105.006177 Q 255.383427 104.4099 255.733076 103.897913 C 255.767417 103.844842 255.786148 103.782404 255.786148 103.719967 L 255.786148 102.802138 C 255.786148 102.767797 255.776783 102.733457 255.754929 102.70536 Q 255.139921 101.871821 255.389671 101.078866 C 255.427133 100.957114 255.502058 100.844726 255.598836 100.760436 C 258.233693 98.440888 260.059986 96.227483 260.169251 92.571775 C 260.178617 92.268954 260.069351 91.975498 259.86643 91.750724 Q 258.742557 90.520708 258.239937 89.933797 Q 256.878802 88.3354 256.25755 86.353014 Q 255.011925 82.363266 257.091089 78.913602 Q 259.413759 75.061216 264.158999 74.730298 Q 265.148631 74.661617 266.047729 75.020632 C 266.206944 75.083069 266.294357 75.25165 266.256894 75.417109 Q 266.144507 75.897877 265.876026 76.300598 Q 264.021637 79.050964 262.685477 82.229026 Q 262.601187 82.431947 262.685477 83.480895 C 262.694843 83.59016 262.747914 83.693182 262.835327 83.761863 C 264.586695 85.172947 266.222554 86.09702 268.657611 87.386352 C 269.694071 87.932679 270.374639 87.030459 270.99589 86.103264 Q 272.219663 84.273849 274.489261 80.630629 Q 274.726523 80.249761 275.413334 80.284102 C 275.513234 80.287224 275.613134 80.324686 275.694302 80.390245 Q 276.206289 80.811697 276.737006 81.879376 C 278.229259 84.891979 278.591396 88.226135 277.214652 91.22625 C 275.919077 94.045297 272.909596 95.809153 269.772118 95.777934 Q 267.977044 95.759203 266.369282 95.294044 C 266.178848 95.237851 265.975926 95.30341 265.854173 95.456382 Q 265.573205 95.809153 265.376528 96.396064 Q 264.564842 98.809268 264.546111 100.997698 Q 264.530501 102.564876 264.355677 104.029032 Q 263.971687 107.203972 263.918615 109.532886 Q 263.884274 110.89402 263.69384 111.917993 C 263.512772 112.873285 263.615794 113.85043 263.437847 115.099177 C 263.219317 116.616405 263.331704 118.049342 263.078832 119.544717 C 263.038248 119.781979 263.013273 120.019241 263.007029 120.259625 C 262.969567 121.714416 262.713574 122.750876 262.685477 123.949673 Q 262.638649 125.738504 262.279634 128.348386 C 262.220319 128.766716 261.833207 129.060172 261.411755 129.003978 L 256.497934 128.323411 C 256.101457 128.270339 255.798636 127.945665 255.770539 127.546066 C 255.670639 126.209906 256.17326 124.508488 256.316866 123.431443 Q 256.501056 122.070309 256.619687 121.405351 Q 257.534394 116.288609 257.718585 115.018008 C 257.762291 114.718309 257.412641 114.521631 257.181623 114.715187 Q 256.906899 114.946205 256.700856 115.352048 Q 253.572743 121.552079 250.144932 126.050691 Q 247.997087 128.87286 245.181162 131.148702 Q 242.952148 132.953142 240.257975 133.455762 C 236.867626 134.089502 233.59903 132.734611 230.592671 130.696031 Q 228.263757 129.116366 225.422857 126.962276 C 224.967064 126.618871 224.857799 126.225515 224.867165 125.626117 Q 224.885896 124.552194 224.917114 122.235768 Q 224.938968 120.809074 224.695462 118.854784 Q 224.270888 115.40512 224.1585 114.855671 C 223.930604 113.722433 223.97431 112.913869 223.762023 111.708828 Q 223.531005 110.407009 223.384277 109.061484 Q 223.209452 107.459965 223.050237 106.585842 Q 222.741172 104.893789 222.706832 104.107079 C 222.641272 102.699116 222.123042 100.947748 222.082458 99.702122 Q 222.063727 99.171405 221.83583 98.322257 Q 221.670371 97.71037 222.226064 97.282675 C 222.332207 97.204628 222.472692 97.198384 222.585079 97.267065 Z" style="fill:#304357;"/>
		<path d="M 195.755743 95.016198 Q 197.113755 95.009954 215.947987 95.031808 Q 216.263296 95.031808 217.502677 95.643694 C 217.593211 95.690522 217.668136 95.765447 217.711842 95.859103 Q 218.264413 97.061022 218.280022 97.619836 Q 218.348704 100.438883 218.745181 103.332855 C 219.001174 105.196611 218.923127 106.657645 219.135414 108.512035 Q 219.322726 110.157259 219.29463 112.529879 C 219.291508 112.957575 218.94498 113.304103 218.517284 113.307224 Q 207.96537 113.413368 196.255242 113.354053 Q 195.680818 113.350931 195.315559 112.74841 C 195.271853 112.676607 195.25 112.595439 195.25 112.51427 L 195.25 95.521941 C 195.25 95.244095 195.474775 95.01932 195.755743 95.016198 Z" style="fill:#304357;"/>
		<path d="M 203.600998 159.417219 Q 203.485489 159.479657 203.45427 159.654481 Q 202.561416 164.518352 201.200281 174.402187 Q 200.369864 180.414905 199.967143 183.043518 Q 199.654956 185.054002 199.5613 186.090462 Q 199.420816 187.604568 199.121117 189.137405 C 198.952536 190.008407 199.052436 190.720193 198.84327 191.600559 Q 198.531084 192.899257 198.328162 195.075199 Q 198.268847 195.687085 197.775592 198.833928 C 197.70691 199.280355 197.728763 199.867267 197.101268 199.867267 Q 186.599303 199.836048 181.96645 199.892242 Q 180.905015 199.904729 180.936234 198.905731 Q 180.970574 197.856783 181.073596 196.604914 C 181.257786 194.382144 181.176618 191.809725 181.31398 189.98031 Q 181.49817 187.492181 181.510658 185.659644 C 181.526267 182.66265 181.829088 179.178645 181.83221 175.850734 Q 181.83221 174.267947 181.953963 172.938031 C 182.194347 170.368733 182.078838 167.612123 182.278637 164.992876 C 182.497168 162.139488 182.412878 159.63575 182.612677 156.822947 Q 182.790624 154.281746 182.778136 150.410629 C 182.778136 150.29512 182.715699 150.188976 182.612677 150.132783 C 179.543881 148.434487 176.425134 146.605072 173.715353 144.173136 Q 171.352098 142.05651 170.246957 140.058514 C 168.392567 136.702505 168.18028 132.915679 168.832751 129.091391 Q 170.46861 119.488524 174.205486 111.524638 C 176.047388 107.600449 178.888288 103.979082 182.593946 101.238082 Q 186.165363 98.596981 190.276864 96.939269 C 190.876263 96.695763 191.154109 97.29204 191.150987 97.82588 C 191.141621 99.786413 191.453808 101.706362 191.469418 103.866695 C 191.50688 108.705591 191.722289 111.518394 190.826313 114.521631 Q 188.478668 122.382496 185.506649 130.933293 C 185.322459 131.457767 185.75952 131.932291 186.14351 132.319402 Q 193.757747 140.005442 201.531199 147.978694 Q 202.395957 148.868426 204.047425 150.401264 C 204.15669 150.504285 204.303418 150.560479 204.453268 150.560479 Q 214.727336 150.591697 224.3583 150.547991 C 225.241789 150.541748 225.169986 151.29724 225.17623 152.030879 C 225.207448 156.760509 225.166864 159.21742 225.341689 162.876249 Q 225.529001 166.741122 225.500904 170.88072 C 225.482173 173.268949 225.859919 177.417912 225.806847 180.352468 Q 225.753775 183.402533 226.087815 193.963814 Q 226.159618 196.252143 226.122156 199.049337 C 226.11279 199.726783 225.800603 199.892242 225.148133 199.885998 Q 217.062494 199.811073 208.898808 199.870388 C 208.658424 199.87351 208.452381 199.695564 208.421162 199.458302 Q 208.021563 196.583061 207.828007 194.482044 Q 207.656305 192.580826 207.384702 190.495418 Q 207.125587 188.503666 206.916422 186.50567 Q 206.217123 179.774922 205.96113 177.196259 Q 205.708259 174.664424 205.561531 173.546795 Q 205.268075 171.342756 205.196272 170.056546 C 205.127591 168.848383 204.762333 166.738 204.637458 165.420572 Q 204.403318 162.941808 203.82265 159.523363 C 203.803919 159.420341 203.691532 159.367269 203.600998 159.417219 Z" style="fill:#304357;"/>
		<path d="M 291.375447 109.816976 C 291.375447 109.948094 291.48159 110.054238 291.612709 110.051116 L 299.726444 110.001166 C 299.788882 110.001166 299.854441 110.013653 299.913756 110.038628 Q 300.553739 110.322718 300.550618 111.025139 Q 300.531886 123.671827 300.559983 131.654444 Q 300.563105 132.659686 300.53813 133.624343 Q 300.510033 134.617097 300.122922 135.481855 C 300.016778 135.719117 300.126043 135.996963 300.363305 136.096863 C 308.058711 139.38419 314.57405 145.140915 318.279708 152.708324 C 321.457769 159.192445 322.384964 166.400839 321.048805 173.609232 Q 320.608621 175.981852 319.796936 178.164038 C 316.103765 188.097823 308.180464 195.871275 297.968832 198.974412 Q 296.947982 199.283477 296.183124 199.358402 C 295.561872 199.420839 294.625312 199.773611 293.788651 199.870388 Q 290.29528 200.269988 287.729104 200.241891 Q 286.386701 200.226281 285.540675 200.079554 C 284.56353 199.910973 283.639457 199.942191 282.627972 199.708051 Q 276.730762 198.356282 272.897108 196.077319 Q 262.360803 189.817973 257.91214 178.457494 Q 256.435497 174.686277 255.948485 169.734994 Q 255.508302 165.305063 256.44174 160.82206 Q 257.924628 153.707322 262.092322 147.919378 C 265.023756 143.84534 268.695073 140.648547 272.959546 138.169784 Q 274.161465 137.473607 276.774469 136.203007 C 277.017974 136.084376 277.108509 135.787798 276.974268 135.553658 L 276.421698 134.598366 C 276.406088 134.567148 276.396723 134.532807 276.396723 134.495345 L 276.396723 110.681733 C 276.396723 110.335206 276.674569 110.054238 277.021096 110.051116 Q 280.061796 110.010532 284.672795 110.054238 Q 285.471994 110.060481 285.447019 109.386158 Q 285.340875 106.620183 285.434531 103.932254 C 285.447019 103.54202 285.134832 103.217346 284.741477 103.217346 L 278.685052 103.217346 C 278.29794 103.217346 277.985754 102.905159 277.985754 102.518048 L 277.985754 98.840487 C 277.985754 98.450253 278.301062 98.134945 278.691296 98.134945 L 297.856445 98.134945 C 298.093707 98.134945 298.287263 98.325379 298.293507 98.562641 L 298.390285 102.799016 C 298.393407 102.852088 298.374675 102.908281 298.340335 102.951987 Q 298.099951 103.27354 297.534893 103.27354 Q 296.064493 103.276662 291.806264 103.148665 C 291.569002 103.142421 291.375447 103.329733 291.375447 103.566995 L 291.375447 109.816976 Z M 315.885235 166.819169 C 315.885235 151.887273 303.778629 139.780668 288.846733 139.780668 C 273.914837 139.780668 261.808232 151.887273 261.808232 166.819169 C 261.808232 181.751065 273.914837 193.85767 288.846733 193.85767 C 303.778629 193.85767 315.885235 181.751065 315.885235 166.819169 Z" style="fill:#304357;"/>
		<path d="M 309.831932 166.856631 C 309.831932 178.435641 300.444474 187.823099 288.865465 187.823099 C 277.286455 187.823099 267.898997 178.435641 267.898997 166.856631 C 267.898997 155.277622 277.286455 145.890164 288.865465 145.890164 C 300.444474 145.890164 309.831932 155.277622 309.831932 166.856631 Z M 300.959582 166.769219 C 300.959582 160.063446 295.52441 154.628273 288.818637 154.628273 C 282.112863 154.628273 276.677691 160.063446 276.677691 166.769219 C 276.677691 173.474992 282.112863 178.910165 288.818637 178.910165 C 295.52441 178.910165 300.959582 173.474992 300.959582 166.769219 Z" style="fill:#304357;"/>
	</g>
	<g id="surface4">
	</g>
</svg>
