<?xml version="1.0" encoding="utf-8"?>
<svg xmlns="http://www.w3.org/2000/svg" width="490pt" height="280pt" viewBox="0 0 490 280" version="1.1" xmlns:xlink="http://www.w3.org/1999/xlink">
	<g id="surface2" data-size="145.58610081945 148" data-bboxpos="172 50.031553504887" data-pivot="244.79305040972 124.03155350489" data-center="244.79305040972 124.03155350489">
		<path vector-effect="non-scaling-stroke" d="M 277.854481 66.473609 Q 278.100405 66.866686 278.491466 67.156958 Q 281.116007 69.120324 283.63976 71.126022 C 285.566842 72.658012 287.163338 74.24846 286.867018 76.923396 Q 286.425563 80.888429 285.986124 84.026993 C 285.976045 84.105609 286.044582 84.174145 286.123197 84.16205 Q 286.377185 84.121735 286.58481 84.006835 Q 291.126355 81.523398 293.732754 80.37239 C 295.000678 79.812004 296.405674 79.666868 297.75826 80.20508 Q 298.560539 80.523573 299.161241 80.856176 Q 302.866239 82.896142 306.367643 85.040929 C 306.466416 85.101402 306.595426 85.034882 306.603489 84.917967 Q 306.631709 84.456354 306.55511 83.944346 Q 305.81532 79.013756 305.58149 76.776244 C 305.357739 74.623395 306.444242 72.990616 308.018564 71.771071 Q 311.034166 69.430754 314.7311 66.866686 C 314.809716 66.81226 314.797621 66.693329 314.710943 66.653013 Q 314.485176 66.550209 314.17273 66.497799 Q 312.207348 66.167211 306.051166 65.191575 C 303.950726 64.858972 302.096212 64.383249 300.56019 62.849243 Q 299.804274 62.091311 298.677454 59.72882 Q 296.786656 55.761772 295.61549 53.062647 C 295.563079 52.9417 295.407865 52.907432 295.311107 52.996126 Q 295.178066 53.119088 295.099451 53.320666 Q 294.252824 55.513831 293.115926 58.289556 Q 292.237048 60.434342 291.469037 61.879654 C 290.29787 64.08693 288.20751 64.905335 285.85913 65.248017 Q 285.312855 65.326632 277.898828 66.378868 C 277.854481 66.384915 277.830291 66.43531 277.854481 66.473609" style="fill:none;stroke-width:0.50;stroke:#856d0d;"/>
		<path vector-effect="non-scaling-stroke" d="M 247.896006 119.692131 C 247.891975 119.722368 247.867786 119.744541 247.837549 119.744541 C 247.807312 119.744541 247.783123 119.722368 247.779091 119.692131 C 247.254989 115.408606 246.108012 111.20168 244.035794 107.305183 C 239.883294 99.485985 232.648671 93.98493 224.031226 92.096148 C 215.566979 90.239617 206.715703 91.995359 199.845936 97.347246 Q 198.446987 98.435765 196.834366 100.18546 Q 191.780813 105.660309 190.442337 112.850585 C 189.077657 120.179949 190.34558 127.676623 193.504302 134.45568 Q 194.887125 137.424919 195.85873 139.027462 C 198.104305 142.734475 200.759083 146.336668 203.722275 149.747363 Q 209.00361 155.828961 214.948135 161.092154 Q 220.783809 166.25859 224.609753 169.262097 Q 235.257086 177.619508 247.083648 186.035376 C 247.353763 186.22889 247.629924 186.567541 248.012922 186.436515 Q 248.020985 186.4345 248.728522 185.934587 Q 263.1252 175.767009 275.858862 163.69049 C 281.857813 158.003984 287.372978 152.061474 292.347915 145.661383 Q 296.415753 140.430443 299.421276 134.542359 C 303.001296 127.52544 305.123908 119.341386 303.73907 111.44962 C 303.182715 108.284851 301.848271 104.809652 300.036088 102.144795 Q 298.745991 100.245933 297.250284 98.669596 C 293.779117 95.006929 289.082357 92.606139 284.077183 91.650661 C 268.19891 88.622964 252.889085 98.790542 248.934132 114.382575 Q 248.214499 117.214742 247.896006 119.692131" style="fill:none;stroke-width:0.50;stroke:#85201b;"/>
		<path stroke-opacity="0.992" vector-effect="non-scaling-stroke" d="M 288.71347 123.38705 C 288.342567 124.519917 288.979552 125.406858 290.19305 125.412906 C 292.349931 125.422985 294.472544 124.219566 295.935998 122.687576 C 301.289901 117.071622 301.211286 108.335245 297.538541 101.917012 C 296.31698 99.78432 294.698311 98.093083 292.628108 96.875554 Q 290.997345 95.914029 289.086389 95.869682 C 287.850717 95.839445 285.957903 96.204301 285.371312 97.298867 Q 284.895589 98.187825 285.566842 99.209824 Q 286.88516 101.215522 287.768071 103.074068 C 290.745373 109.322976 290.858256 116.849886 288.71347 123.38705" style="fill:none;stroke-width:0.50;stroke:#ff9d99;"/>
		<path stroke-opacity="0.992" vector-effect="non-scaling-stroke" d="M 212.928327 97.788701 C 212.813428 96.780813 211.648309 96.64374 210.811762 96.675992 Q 207.717544 96.794923 205.093003 98.129367 C 201.494841 99.959693 198.759432 102.959168 197.070211 106.742781 C 194.193698 113.183188 194.415433 121.085033 198.344182 127.01948 C 199.48108 128.738937 201.333579 130.502742 203.389672 130.833329 C 204.800715 131.061112 205.830777 130.385827 205.701767 128.884073 Q 205.625168 127.970926 205.524379 127.63026 Q 204.881346 125.447174 204.472144 123.344719 C 203.010706 115.83595 204.506412 107.752686 209.416844 101.838397 Q 210.247344 100.838571 211.595899 99.629105 C 212.099843 99.177571 212.996864 98.403513 212.928327 97.788701" style="fill:none;stroke-width:0.50;stroke:#ff9d99;"/>
		<path vector-effect="non-scaling-stroke" d="M 312.094464 156.286542 C 312.142843 156.246227 312.128733 156.169627 312.068259 156.14947 Q 310.933377 155.790661 310.121019 155.46209 Q 309.320756 155.13755 309.040563 154.329223 Q 308.810764 153.668048 308.318915 152.428346 C 308.280615 152.327557 308.147574 152.307399 308.081053 152.390046 Q 307.506557 153.097584 306.821193 154.133693 Q 306.351517 154.843246 305.541174 154.91783 Q 305.065451 154.964193 303.436703 155.08514 C 303.360104 155.091187 303.32382 155.181897 303.37623 155.238339 Q 303.898316 155.806788 304.337756 156.4216 C 304.8417 157.125106 305.11383 157.445614 304.936441 158.245877 Q 304.742927 159.116693 304.476844 160.096361 C 304.446607 160.21126 304.563523 160.308017 304.670359 160.257623 Q 305.863699 159.699253 306.928029 159.527911 C 308.042753 159.348507 309.016373 160.223354 309.923473 160.707141 C 309.998057 160.747456 310.088767 160.688999 310.084735 160.604336 L 309.992009 158.620812 C 309.989994 158.562354 310.000072 158.503897 310.022246 158.451487 Q 310.385086 157.534308 310.973693 157.113011 Q 311.945297 156.415552 312.094464 156.286542" style="fill:none;stroke-width:0.50;stroke:#856d0d;"/>
		<path vector-effect="non-scaling-stroke" d="M 187.991153 165.170071 Q 187.934711 165.357538 187.926648 165.46639 Q 187.884317 166.12958 187.467051 170.147023 Q 187.136464 173.329935 186.535762 174.400312 C 185.169065 176.841418 183.727785 177.59935 180.802893 178.427834 Q 177.908238 179.248255 175.588079 179.879194 Q 175.317965 179.953777 175.122434 180.07674 C 175.015598 180.14326 175.025677 180.302507 175.140576 180.356933 Q 176.237159 180.870956 179.88773 182.787959 C 182.447767 184.134498 184.568364 185.591905 184.943298 188.724422 Q 185.177129 190.67771 185.312186 194.699184 Q 185.316217 194.826178 185.390801 195.400675 C 185.40088 195.483321 185.495621 195.523637 185.562142 195.473243 Q 187.751276 193.806195 190.535063 191.907333 Q 191.680024 191.127228 192.824986 190.713994 C 194.356976 190.161671 195.725688 190.286649 197.388704 190.802688 Q 200.811493 191.862986 204.510443 193.294188 Q 204.818857 193.413119 205.095019 193.41715 C 205.167587 193.419166 205.217981 193.344582 205.18976 193.278062 Q 204.393528 191.441689 203.071179 188.289014 C 202.123764 186.031344 201.396068 184.114341 202.289057 181.923191 Q 202.611582 181.130991 204.250408 179.018457 Q 205.846903 176.960349 207.366799 175.311443 C 207.467588 175.200576 207.413162 175.025203 207.268026 174.988919 Q 207.132969 174.954651 206.973723 174.956667 Q 202.817191 174.988919 200.134192 174.960698 C 197.304042 174.932477 194.866967 173.985062 193.127352 171.668935 Q 191.299043 169.231861 188.660391 165.651841 Q 188.46486 165.383743 188.152415 165.121692 C 188.097989 165.075329 188.013326 165.101534 187.991153 165.170071" style="fill:none;stroke-width:0.50;stroke:#856d0d;"/>
		<path d="M 275.352902 67.185178 Q 274.927573 66.854591 274.808642 66.429262 Q 274.482086 65.260112 275.657284 64.818657 Q 276.272096 64.586842 276.626873 64.475974 C 276.767977 64.431627 276.913113 64.405422 277.060265 64.399375 Q 278.076216 64.348981 279.279635 64.030488 C 279.328013 64.016377 279.376392 64.008314 279.426786 64.006299 Q 280.666489 63.935746 281.412327 63.7765 Q 282.289189 63.591049 283.125737 63.530575 Q 283.756675 63.484212 284.841163 63.238288 C 284.911715 63.222161 284.982267 63.212082 285.052819 63.206035 C 286.963776 63.077025 288.580429 62.585176 289.642743 60.964491 C 289.953173 60.486752 290.32206 59.656252 290.55589 59.077724 Q 292.241079 54.897003 293.694454 51.508483 C 293.847653 51.15169 294.057294 50.889639 294.156067 50.623557 C 294.176225 50.563083 294.214525 50.510673 294.262903 50.466326 Q 295.20024 49.635826 296.228286 50.391742 C 296.27868 50.430042 296.325043 50.472373 296.365358 50.522768 C 296.502431 50.688062 296.808829 51.165801 296.935823 51.435915 Q 297.494193 52.621191 298.570618 54.945382 Q 300.00182 58.037584 300.759752 59.501037 Q 301.160891 60.27308 301.505589 60.772993 Q 302.096212 61.627682 303.128289 62.321109 Q 303.688675 62.698059 304.753006 62.889558 Q 306.085434 63.12742 306.472463 63.16572 Q 307.206206 63.234256 307.901649 63.387455 C 308.661597 63.552749 309.159494 63.548717 309.806558 63.681758 Q 310.776146 63.883336 311.909013 63.994204 Q 312.074307 64.01033 312.989469 64.203845 Q 313.555903 64.324791 314.071941 64.391312 Q 315.476938 64.570716 316.446526 64.87913 Q 316.801303 64.992013 317.353626 65.485879 C 317.412084 65.538289 317.456431 65.606825 317.478604 65.681409 Q 317.730576 66.521988 317.391926 66.995695 Q 317.008928 67.533908 316.051434 68.21524 Q 313.789733 69.821814 313.398672 70.152402 Q 313.185 70.333822 311.308312 71.642061 Q 309.885173 72.635839 308.794638 73.635664 Q 307.470273 74.849162 307.643629 76.870986 Q 307.804892 78.7255 308.058879 80.033739 C 308.242315 80.987202 308.30682 82.212794 308.560808 83.289219 C 308.591044 83.416213 308.607171 83.547238 308.609186 83.678264 Q 308.637407 84.823225 308.782543 86.046802 Q 308.792622 86.127433 308.657565 86.65355 C 308.39753 87.673533 307.323121 87.623139 306.538984 87.213936 Q 305.416196 86.629361 304.888063 86.316916 Q 302.753355 85.051008 298.826622 82.803417 Q 297.409531 81.993074 296.562905 81.906396 Q 295.105498 81.757229 294.16413 82.220857 Q 291.670614 83.450481 285.893398 86.522525 Q 284.472276 87.276425 283.903827 85.853287 C 283.881653 85.794829 283.869558 85.73234 283.867543 85.667835 Q 283.843353 84.502717 283.863511 84.387817 C 284.038884 83.359771 284.020742 82.509113 284.149751 81.517351 C 284.300935 80.352232 284.425913 79.884572 284.450102 78.925062 Q 284.462197 78.473528 284.579112 77.780101 C 284.829068 76.288426 284.806895 75.31279 283.928016 74.071072 Q 283.809085 73.901747 282.976569 73.101483 Q 282.531083 72.672123 281.924334 72.220589 Q 279.334061 70.29149 275.352902 67.185178 Z M 277.854481 66.473609 Q 278.100405 66.866686 278.491466 67.156958 Q 281.116007 69.120324 283.63976 71.126022 C 285.566842 72.658012 287.163338 74.24846 286.867018 76.923396 Q 286.425563 80.888429 285.986124 84.026993 C 285.976045 84.105609 286.044582 84.174145 286.123197 84.16205 Q 286.377185 84.121735 286.58481 84.006835 Q 291.126355 81.523398 293.732754 80.37239 C 295.000678 79.812004 296.405674 79.666868 297.75826 80.20508 Q 298.560539 80.523573 299.161241 80.856176 Q 302.866239 82.896142 306.367643 85.040929 C 306.466416 85.101402 306.595426 85.034882 306.603489 84.917967 Q 306.631709 84.456354 306.55511 83.944346 Q 305.81532 79.013756 305.58149 76.776244 C 305.357739 74.623395 306.444242 72.990616 308.018564 71.771071 Q 311.034166 69.430754 314.7311 66.866686 C 314.809716 66.81226 314.797621 66.693329 314.710943 66.653013 Q 314.485176 66.550209 314.17273 66.497799 Q 312.207348 66.167211 306.051166 65.191575 C 303.950726 64.858972 302.096212 64.383249 300.56019 62.849243 Q 299.804274 62.091311 298.677454 59.72882 Q 296.786656 55.761772 295.61549 53.062647 C 295.563079 52.9417 295.407865 52.907432 295.311107 52.996126 Q 295.178066 53.119088 295.099451 53.320666 Q 294.252824 55.513831 293.115926 58.289556 Q 292.237048 60.434342 291.469037 61.879654 C 290.29787 64.08693 288.20751 64.905335 285.85913 65.248017 Q 285.312855 65.326632 277.898828 66.378868 C 277.854481 66.384915 277.830291 66.43531 277.854481 66.473609 Z" style="fill:#0b0302;"/>
		<path d="M 247.744823 108.692038 C 247.829486 108.86741 248.089521 108.82911 248.121773 108.637612 L 248.180231 108.286866 C 248.186278 108.252598 248.198373 108.21833 248.214499 108.186078 C 249.081283 106.45251 250.198024 104.198871 251.506263 102.396767 Q 257.343952 94.351802 266.662888 90.600441 Q 268.110216 90.017882 271.164118 89.179319 C 271.946239 88.96363 272.768676 88.915252 273.647554 88.679406 C 273.798738 88.637075 273.953953 88.61087 274.109167 88.596759 Q 274.814689 88.532254 276.090676 88.415339 Q 278.560002 88.187556 281.015219 88.389134 C 281.662283 88.44356 282.13599 88.544349 282.563335 88.556444 Q 283.488577 88.580633 284.667806 88.899126 C 284.925825 88.969678 285.21005 88.96363 285.502338 89.038214 Q 288.003917 89.671168 290.372454 90.568189 C 290.848178 90.747593 291.19086 90.945139 291.74923 91.191064 Q 293.847653 92.120337 296.395595 93.940583 Q 298.528287 95.466526 300.374738 97.56495 Q 305.549237 103.442955 306.885697 111.286342 Q 307.014707 112.042259 307.034865 112.671181 C 307.055023 113.279945 307.202174 113.856458 307.222332 114.525695 Q 307.349326 118.436302 306.899808 121.169696 Q 306.720404 122.262247 306.661946 122.643228 Q 306.514794 123.588628 306.387801 124.11273 Q 304.851779 130.369701 301.775703 136.14087 Q 301.594283 136.483552 301.517684 136.62264 Q 300.386833 138.713001 299.578507 139.991003 Q 298.699628 141.383905 296.923729 143.988289 Q 295.436085 146.175406 292.872017 149.26156 Q 286.496116 156.931591 279.309871 163.867879 Q 275.534322 167.510387 271.162102 171.388742 Q 264.882957 176.962365 256.932734 183.013726 Q 255.364459 184.207066 252.536325 186.273237 Q 250.133519 188.028979 248.200389 189.343265 Q 247.740792 189.655711 247.329573 189.361407 Q 237.688113 182.471482 235.720715 180.933445 Q 235.321591 180.620999 234.30564 179.877178 Q 225.819219 173.672617 218.016148 167.189879 Q 213.559265 163.486897 209.503522 159.626685 Q 205.276439 155.603194 201.383974 151.162438 Q 197.233489 146.427378 193.937694 141.22869 Q 191.081339 136.725445 189.275203 131.823076 Q 187.962932 128.263214 187.396499 124.747699 Q 187.245316 123.818426 187.011485 121.851028 Q 186.870381 120.657688 186.876428 119.682052 C 186.884492 118.277056 186.830066 116.813602 187.019549 115.327975 Q 187.194921 113.935073 187.29571 113.161015 Q 187.356183 112.697386 187.795623 110.90536 C 189.087735 105.644183 191.976344 100.790193 195.725688 97.264599 Q 202.623676 90.779845 211.928502 89.082561 Q 212.444541 88.98782 212.74086 88.96363 Q 213.353656 88.917268 213.553218 88.880984 Q 215.841125 88.477828 218.324562 88.592728 Q 222.9931 88.808416 227.439904 90.187207 Q 229.834647 90.931029 231.951212 91.973185 Q 241.497931 96.673977 246.408363 105.980818 Q 246.843771 106.809302 247.744823 108.692038 Z M 247.896006 119.692131 C 247.891975 119.722368 247.867786 119.744541 247.837549 119.744541 C 247.807312 119.744541 247.783123 119.722368 247.779091 119.692131 C 247.254989 115.408606 246.108012 111.20168 244.035794 107.305183 C 239.883294 99.485985 232.648671 93.98493 224.031226 92.096148 C 215.566979 90.239617 206.715703 91.995359 199.845936 97.347246 Q 198.446987 98.435765 196.834366 100.18546 Q 191.780813 105.660309 190.442337 112.850585 C 189.077657 120.179949 190.34558 127.676623 193.504302 134.45568 Q 194.887125 137.424919 195.85873 139.027462 C 198.104305 142.734475 200.759083 146.336668 203.722275 149.747363 Q 209.00361 155.828961 214.948135 161.092154 Q 220.783809 166.25859 224.609753 169.262097 Q 235.257086 177.619508 247.083648 186.035376 C 247.353763 186.22889 247.629924 186.567541 248.012922 186.436515 Q 248.020985 186.4345 248.728522 185.934587 Q 263.1252 175.767009 275.858862 163.69049 C 281.857813 158.003984 287.372978 152.061474 292.347915 145.661383 Q 296.415753 140.430443 299.421276 134.542359 C 303.001296 127.52544 305.123908 119.341386 303.73907 111.44962 C 303.182715 108.284851 301.848271 104.809652 300.036088 102.144795 Q 298.745991 100.245933 297.250284 98.669596 C 293.779117 95.006929 289.082357 92.606139 284.077183 91.650661 C 268.19891 88.622964 252.889085 98.790542 248.934132 114.382575 Q 248.214499 117.214742 247.896006 119.692131 Z" style="fill:#0b0302;"/>
		<path d="M 314.696832 155.746314 Q 314.79359 155.957971 314.620233 156.377252 Q 314.545649 156.558672 314.140478 156.834834 Q 313.408751 157.332731 312.681056 157.947543 C 312.412957 158.17331 311.965455 158.457534 311.657041 158.820374 C 311.568347 158.925194 311.521984 159.060251 311.528031 159.19934 L 311.675183 162.410472 C 311.677199 162.440709 311.673167 162.470946 311.659057 162.497151 C 311.334517 163.178483 310.612869 162.912401 310.135129 162.652365 Q 308.738196 161.884355 308.13951 161.529578 Q 307.290868 161.023618 306.480526 161.309858 Q 305.750815 161.569893 305.551253 161.575941 C 305.486748 161.577956 305.426275 161.594083 305.369833 161.624319 L 304.928378 161.866213 C 304.898141 161.882339 304.865889 161.892418 304.831621 161.896449 Q 304.603838 161.916607 303.733023 162.160516 Q 303.15651 162.321778 302.864223 161.928702 C 302.823907 161.874276 302.791655 161.813802 302.767465 161.749297 Q 302.690866 161.529578 302.878333 160.580147 Q 303.057737 159.664984 303.360104 158.437376 C 303.418561 158.20153 303.378246 157.95359 303.24722 157.747981 L 302.860191 157.1372 C 302.85616 157.131153 302.852128 157.125106 302.848097 157.119058 L 301.037929 154.873483 C 301.02785 154.861388 301.019787 154.847278 301.01374 154.833167 Q 300.725484 154.117567 301.166939 153.799074 C 301.219349 153.760774 301.277806 153.734569 301.340296 153.718443 C 301.89665 153.579354 302.146606 153.502755 302.660629 153.500739 C 303.771322 153.492676 304.869921 153.593465 305.639947 152.998811 C 305.68631 152.962527 305.728642 152.920195 305.76291 152.871817 Q 306.276933 152.138074 307.123559 150.880229 C 307.611377 150.158581 307.974217 149.493375 308.82689 149.977161 C 308.887364 150.013445 308.94179 150.061824 308.984121 150.118266 Q 309.203841 150.422648 309.506207 151.210817 Q 310.034341 152.593639 310.483859 153.645875 Q 310.620932 153.966383 311.209538 154.182072 Q 312.670977 154.716252 314.178778 155.256481 Q 314.531539 155.383474 314.696832 155.746314 Z M 312.094464 156.286542 C 312.142843 156.246227 312.128733 156.169627 312.068259 156.14947 Q 310.933377 155.790661 310.121019 155.46209 Q 309.320756 155.13755 309.040563 154.329223 Q 308.810764 153.668048 308.318915 152.428346 C 308.280615 152.327557 308.147574 152.307399 308.081053 152.390046 Q 307.506557 153.097584 306.821193 154.133693 Q 306.351517 154.843246 305.541174 154.91783 Q 305.065451 154.964193 303.436703 155.08514 C 303.360104 155.091187 303.32382 155.181897 303.37623 155.238339 Q 303.898316 155.806788 304.337756 156.4216 C 304.8417 157.125106 305.11383 157.445614 304.936441 158.245877 Q 304.742927 159.116693 304.476844 160.096361 C 304.446607 160.21126 304.563523 160.308017 304.670359 160.257623 Q 305.863699 159.699253 306.928029 159.527911 C 308.042753 159.348507 309.016373 160.223354 309.923473 160.707141 C 309.998057 160.747456 310.088767 160.688999 310.084735 160.604336 L 309.992009 158.620812 C 309.989994 158.562354 310.000072 158.503897 310.022246 158.451487 Q 310.385086 157.534308 310.973693 157.113011 Q 311.945297 156.415552 312.094464 156.286542 Z" style="fill:#0b0302;"/>
		<path d="M 186.17897 197.378152 C 185.483527 197.926443 184.475638 198.422324 183.768101 197.583761 C 183.725769 197.533366 183.693517 197.474909 183.673359 197.41242 C 183.395182 196.567809 183.502018 195.696994 183.393166 194.876573 C 183.225857 193.588491 183.292377 192.350804 183.125068 191.00225 Q 183.056531 190.435816 183.046453 189.206193 C 183.046453 189.15983 183.040405 189.111451 183.030326 189.065088 L 182.768275 187.787086 C 182.764244 187.766928 182.758196 187.74677 182.748118 187.728628 Q 182.050659 186.315569 180.921824 185.557637 Q 180.450132 185.243176 179.006836 184.422754 Q 178.182383 183.953078 177.049517 183.384629 Q 173.836369 181.77604 173.745659 181.731692 C 172.749865 181.241859 171.229969 180.371043 172.439435 179.115214 Q 172.759944 178.782611 173.55416 178.546765 Q 173.743643 178.490323 174.25565 178.331077 Q 177.924364 177.194179 178.895968 176.95027 Q 180.841193 176.464468 182.310694 175.867798 Q 183.905173 175.222749 184.671169 173.783485 C 184.913062 173.323888 184.995709 172.876385 185.203334 172.311968 Q 185.241633 172.207147 185.279933 171.570162 C 185.285981 171.479452 185.296059 171.390758 185.314201 171.300048 Q 185.55811 170.050266 185.630678 169.114946 C 185.779846 167.220116 186.06407 165.149913 186.116481 163.45666 C 186.122528 163.267177 186.257585 162.902322 186.318058 162.660429 Q 186.551888 161.708982 187.654518 161.960954 C 187.731118 161.979096 187.803686 162.011348 187.866175 162.057711 Q 188.372135 162.438693 188.410435 162.485056 Q 189.196587 163.418361 190.506842 165.166039 Q 193.738132 169.471738 194.973804 170.981555 C 195.737783 171.91486 197.076259 172.749391 198.36434 172.870338 C 198.854174 172.916701 199.37626 173.055789 199.98704 173.057805 Q 203.510618 173.063852 208.245678 172.969111 Q 208.949184 172.957016 209.549885 173.221083 C 209.610359 173.247288 209.664785 173.283572 209.715179 173.325903 Q 210.372322 173.880242 209.993356 174.751058 Q 209.773637 175.257017 209.445065 175.640015 Q 208.791953 176.399963 206.895107 178.732217 Q 206.004134 179.826783 204.891425 181.28419 Q 204.208077 182.183226 204.006499 182.898827 Q 203.704133 183.975252 203.845237 184.731168 Q 204.032704 185.72293 204.635422 187.182353 Q 205.854967 190.129418 207.072496 193.058342 Q 207.592566 194.308124 207.445414 194.989456 C 207.431304 195.057993 207.403083 195.122497 207.362768 195.180955 C 206.997912 195.711104 206.52622 195.850193 205.867061 195.642568 Q 204.294755 195.148702 203.484413 194.872541 Q 201.019118 194.035994 197.658818 192.816449 C 197.090369 192.608824 196.342516 192.455625 195.731736 192.306457 C 194.582743 192.024249 193.748211 192.302426 192.768544 192.776133 Q 192.212189 193.046247 191.897728 193.253872 Q 191.204301 193.713469 189.95452 194.602427 Q 189.271171 195.086213 186.75145 196.934681 Q 186.626472 197.027406 186.17897 197.378152 Z M 187.991153 165.170071 Q 187.934711 165.357538 187.926648 165.46639 Q 187.884317 166.12958 187.467051 170.147023 Q 187.136464 173.329935 186.535762 174.400312 C 185.169065 176.841418 183.727785 177.59935 180.802893 178.427834 Q 177.908238 179.248255 175.588079 179.879194 Q 175.317965 179.953777 175.122434 180.07674 C 175.015598 180.14326 175.025677 180.302507 175.140576 180.356933 Q 176.237159 180.870956 179.88773 182.787959 C 182.447767 184.134498 184.568364 185.591905 184.943298 188.724422 Q 185.177129 190.67771 185.312186 194.699184 Q 185.316217 194.826178 185.390801 195.400675 C 185.40088 195.483321 185.495621 195.523637 185.562142 195.473243 Q 187.751276 193.806195 190.535063 191.907333 Q 191.680024 191.127228 192.824986 190.713994 C 194.356976 190.161671 195.725688 190.286649 197.388704 190.802688 Q 200.811493 191.862986 204.510443 193.294188 Q 204.818857 193.413119 205.095019 193.41715 C 205.167587 193.419166 205.217981 193.344582 205.18976 193.278062 Q 204.393528 191.441689 203.071179 188.289014 C 202.123764 186.031344 201.396068 184.114341 202.289057 181.923191 Q 202.611582 181.130991 204.250408 179.018457 Q 205.846903 176.960349 207.366799 175.311443 C 207.467588 175.200576 207.413162 175.025203 207.268026 174.988919 Q 207.132969 174.954651 206.973723 174.956667 Q 202.817191 174.988919 200.134192 174.960698 C 197.304042 174.932477 194.866967 173.985062 193.127352 171.668935 Q 191.299043 169.231861 188.660391 165.651841 Q 188.46486 165.383743 188.152415 165.121692 C 188.097989 165.075329 188.013326 165.101534 187.991153 165.170071 Z" style="fill:#0b0302;"/>
		<path d="M 277.854481 66.473609 C 277.830291 66.43531 277.854481 66.384915 277.898828 66.378868 Q 285.312855 65.326632 285.85913 65.248017 C 288.20751 64.905335 290.29787 64.08693 291.469037 61.879654 Q 292.237048 60.434342 293.115926 58.289556 Q 294.252824 55.513831 295.099451 53.320666 Q 295.178066 53.119088 295.311107 52.996126 C 295.407865 52.907432 295.563079 52.9417 295.61549 53.062647 Q 296.786656 55.761772 298.677454 59.72882 Q 299.804274 62.091311 300.56019 62.849243 C 302.096212 64.383249 303.950726 64.858972 306.051166 65.191575 Q 312.207348 66.167211 314.17273 66.497799 Q 314.485176 66.550209 314.710943 66.653013 C 314.797621 66.693329 314.809716 66.81226 314.7311 66.866686 Q 311.034166 69.430754 308.018564 71.771071 C 306.444242 72.990616 305.357739 74.623395 305.58149 76.776244 Q 305.81532 79.013756 306.55511 83.944346 Q 306.631709 84.456354 306.603489 84.917967 C 306.595426 85.034882 306.466416 85.101402 306.367643 85.040929 Q 302.866239 82.896142 299.161241 80.856176 Q 298.560539 80.523573 297.75826 80.20508 C 296.405674 79.666868 295.000678 79.812004 293.732754 80.37239 Q 291.126355 81.523398 286.58481 84.006835 Q 286.377185 84.121735 286.123197 84.16205 C 286.044582 84.174145 285.976045 84.105609 285.986124 84.026993 Q 286.425563 80.888429 286.867018 76.923396 C 287.163338 74.24846 285.566842 72.658012 283.63976 71.126022 Q 281.116007 69.120324 278.491466 67.156958 Q 278.100405 66.866686 277.854481 66.473609 Z" style="fill:#ffd618;"/>
		<path d="M 247.896006 119.692131 Q 248.214499 117.214742 248.934132 114.382575 C 252.889085 98.790542 268.19891 88.622964 284.077183 91.650661 C 289.082357 92.606139 293.779117 95.006929 297.250284 98.669596 Q 298.745991 100.245933 300.036088 102.144795 C 301.848271 104.809652 303.182715 108.284851 303.73907 111.44962 C 305.123908 119.341386 303.001296 127.52544 299.421276 134.542359 Q 296.415753 140.430443 292.347915 145.661383 C 287.372978 152.061474 281.857813 158.003984 275.858862 163.69049 Q 263.1252 175.767009 248.728522 185.934587 Q 248.020985 186.4345 248.012922 186.436515 C 247.629924 186.567541 247.353763 186.22889 247.083648 186.035376 Q 235.257086 177.619508 224.609753 169.262097 Q 220.783809 166.25859 214.948135 161.092154 Q 209.00361 155.828961 203.722275 149.747363 C 200.759083 146.336668 198.104305 142.734475 195.85873 139.027462 Q 194.887125 137.424919 193.504302 134.45568 C 190.34558 127.676623 189.077657 120.179949 190.442337 112.850585 Q 191.780813 105.660309 196.834366 100.18546 Q 198.446987 98.435765 199.845936 97.347246 C 206.715703 91.995359 215.566979 90.239617 224.031226 92.096148 C 232.648671 93.98493 239.883294 99.485985 244.035794 107.305183 C 246.108012 111.20168 247.254989 115.408606 247.779091 119.692131 C 247.783123 119.722368 247.807312 119.744541 247.837549 119.744541 C 247.867786 119.744541 247.891975 119.722368 247.896006 119.692131 Z M 288.71347 123.38705 C 288.342567 124.519917 288.979552 125.406858 290.19305 125.412906 C 292.349931 125.422985 294.472544 124.219566 295.935998 122.687576 C 301.289901 117.071622 301.211286 108.335245 297.538541 101.917012 C 296.31698 99.78432 294.698311 98.093083 292.628108 96.875554 Q 290.997345 95.914029 289.086389 95.869682 C 287.850717 95.839445 285.957903 96.204301 285.371312 97.298867 Q 284.895589 98.187825 285.566842 99.209824 Q 286.88516 101.215522 287.768071 103.074068 C 290.745373 109.322976 290.858256 116.849886 288.71347 123.38705 Z M 212.928327 97.788701 C 212.813428 96.780813 211.648309 96.64374 210.811762 96.675992 Q 207.717544 96.794923 205.093003 98.129367 C 201.494841 99.959693 198.759432 102.959168 197.070211 106.742781 C 194.193698 113.183188 194.415433 121.085033 198.344182 127.01948 C 199.48108 128.738937 201.333579 130.502742 203.389672 130.833329 C 204.800715 131.061112 205.830777 130.385827 205.701767 128.884073 Q 205.625168 127.970926 205.524379 127.63026 Q 204.881346 125.447174 204.472144 123.344719 C 203.010706 115.83595 204.506412 107.752686 209.416844 101.838397 Q 210.247344 100.838571 211.595899 99.629105 C 212.099843 99.177571 212.996864 98.403513 212.928327 97.788701 Z" style="fill:#ff3c34;"/>
		<path d="M 312.094464 156.286542 Q 311.945297 156.415552 310.973693 157.113011 Q 310.385086 157.534308 310.022246 158.451487 C 310.000072 158.503897 309.989994 158.562354 309.992009 158.620812 L 310.084735 160.604336 C 310.088767 160.688999 309.998057 160.747456 309.923473 160.707141 C 309.016373 160.223354 308.042753 159.348507 306.928029 159.527911 Q 305.863699 159.699253 304.670359 160.257623 C 304.563523 160.308017 304.446607 160.21126 304.476844 160.096361 Q 304.742927 159.116693 304.936441 158.245877 C 305.11383 157.445614 304.8417 157.125106 304.337756 156.4216 Q 303.898316 155.806788 303.37623 155.238339 C 303.32382 155.181897 303.360104 155.091187 303.436703 155.08514 Q 305.065451 154.964193 305.541174 154.91783 Q 306.351517 154.843246 306.821193 154.133693 Q 307.506557 153.097584 308.081053 152.390046 C 308.147574 152.307399 308.280615 152.327557 308.318915 152.428346 Q 308.810764 153.668048 309.040563 154.329223 Q 309.320756 155.13755 310.121019 155.46209 Q 310.933377 155.790661 312.068259 156.14947 C 312.128733 156.169627 312.142843 156.246227 312.094464 156.286542 Z" style="fill:#ffd618;"/>
		<path d="M 187.991153 165.170071 C 188.013326 165.101534 188.097989 165.075329 188.152415 165.121692 Q 188.46486 165.383743 188.660391 165.651841 Q 191.299043 169.231861 193.127352 171.668935 C 194.866967 173.985062 197.304042 174.932477 200.134192 174.960698 Q 202.817191 174.988919 206.973723 174.956667 Q 207.132969 174.954651 207.268026 174.988919 C 207.413162 175.025203 207.467588 175.200576 207.366799 175.311443 Q 205.846903 176.960349 204.250408 179.018457 Q 202.611582 181.130991 202.289057 181.923191 C 201.396068 184.114341 202.123764 186.031344 203.071179 188.289014 Q 204.393528 191.441689 205.18976 193.278062 C 205.217981 193.344582 205.167587 193.419166 205.095019 193.41715 Q 204.818857 193.413119 204.510443 193.294188 Q 200.811493 191.862986 197.388704 190.802688 C 195.725688 190.286649 194.356976 190.161671 192.824986 190.713994 Q 191.680024 191.127228 190.535063 191.907333 Q 187.751276 193.806195 185.562142 195.473243 C 185.495621 195.523637 185.40088 195.483321 185.390801 195.400675 Q 185.316217 194.826178 185.312186 194.699184 Q 185.177129 190.67771 184.943298 188.724422 C 184.568364 185.591905 182.447767 184.134498 179.88773 182.787959 Q 176.237159 180.870956 175.140576 180.356933 C 175.025677 180.302507 175.015598 180.14326 175.122434 180.07674 Q 175.317965 179.953777 175.588079 179.879194 Q 177.908238 179.248255 180.802893 178.427834 C 183.727785 177.59935 185.169065 176.841418 186.535762 174.400312 Q 187.136464 173.329935 187.467051 170.147023 Q 187.884317 166.12958 187.926648 165.46639 Q 187.934711 165.357538 187.991153 165.170071 Z" style="fill:#ffd618;"/>
		<path fill-opacity="0.984" d="M 290.19305 125.412906 C 288.979552 125.406858 288.342567 124.519917 288.71347 123.38705 C 290.858256 116.849886 290.745373 109.322976 287.768071 103.074068 Q 286.88516 101.215522 285.566842 99.209824 Q 284.895589 98.187825 285.371312 97.298867 C 285.957903 96.204301 287.850717 95.839445 289.086389 95.869682 Q 290.997345 95.914029 292.628108 96.875554 C 294.698311 98.093083 296.31698 99.78432 297.538541 101.917012 C 301.211286 108.335245 301.289901 117.071622 295.935998 122.687576 C 294.472544 124.219566 292.349931 125.422985 290.19305 125.412906 Z" style="fill:#ffffff;"/>
		<path fill-opacity="0.984" d="M 212.928327 97.788701 C 212.996864 98.403513 212.099843 99.177571 211.595899 99.629105 Q 210.247344 100.838571 209.416844 101.838397 C 204.506412 107.752686 203.010706 115.83595 204.472144 123.344719 Q 204.881346 125.447174 205.524379 127.63026 Q 205.625168 127.970926 205.701767 128.884073 C 205.830777 130.385827 204.800715 131.061112 203.389672 130.833329 C 201.333579 130.502742 199.48108 128.738937 198.344182 127.01948 C 194.415433 121.085033 194.193698 113.183188 197.070211 106.742781 C 198.759432 102.959168 201.494841 99.959693 205.093003 98.129367 Q 207.717544 96.794923 210.811762 96.675992 C 211.648309 96.64374 212.813428 96.780813 212.928327 97.788701 Z" style="fill:#ffffff;"/>
	</g>
	<g id="surface4">
	</g>
</svg>
