<?xml version="1.0" encoding="utf-8"?>
<svg xmlns="http://www.w3.org/2000/svg" width="490pt" height="280pt" viewBox="0 0 490 280" version="1.1" xmlns:xlink="http://www.w3.org/1999/xlink">
	<g id="surface2" data-size="309.20000671662 148" data-bboxpos="90.5 55.015759229449" data-pivot="245.10000335831 129.01575922945" data-center="245.10000335831 129.01575922945">
		<path d="M 218.622945 60.497162 C 220.75071 55.693069 226.674063 53.660016 231.848433 55.954166 C 237.024155 58.249037 239.494473 64.001091 237.366799 68.803291 C 235.239035 73.607383 229.315681 75.640437 224.141311 73.346287 C 218.965589 71.051415 216.495271 65.299361 218.622945 60.497162 Z" style="fill:#0994da;"/>
		<path d="M 270.797189 65.85383 Q 273.213413 64.118296 276.080424 64.524006 Q 278.465092 64.857589 280.002279 66.520996 Q 281.46734 68.098754 281.990254 70.505962 Q 282.305806 71.962007 281.16982 73.93195 Q 280.033834 75.892878 278.02332 76.519473 C 277.586056 76.65471 277.324599 77.10099 277.414756 77.54727 Q 277.879068 79.84178 277.563516 81.829755 C 277.540977 81.974008 277.495898 82.113752 277.432788 82.24448 Q 275.94068 85.300823 272.190124 86.121257 C 268.299824 86.968738 264.166098 84.971747 263.223951 81.14005 Q 262.556785 78.453354 264.107496 76.023606 C 264.220193 75.852307 264.355429 75.694531 264.508697 75.554787 Q 266.311849 73.986045 268.822738 73.427068 C 269.291557 73.323387 269.566538 72.836536 269.408762 72.38124 Q 268.259253 69.06344 270.468114 66.173889 C 270.562779 66.052177 270.670969 65.943988 270.797189 65.85383 Z" style="fill:#0994da;"/>
		<path d="M 154.048111 75.954951 C 154.575037 73.052914 157.604332 71.173128 160.813401 71.755095 C 164.023553 72.336161 166.196351 75.162601 165.668433 78.066713 C 165.141507 80.96875 162.112212 82.848536 158.903142 82.266569 C 155.692991 81.685503 153.520193 78.859063 154.048111 75.954951 Z" style="fill:#0994da;"/>
		<path d="M 207.199122 80.236581 C 208.719179 77.520222 212.429164 76.704296 215.484695 78.412106 C 218.541849 80.121269 219.790531 83.709541 218.272277 86.425178 C 216.75222 89.141536 213.042236 89.957462 209.986705 88.249652 C 206.929551 86.54049 205.680868 82.952217 207.199122 80.236581 Z" style="fill:#0994da;"/>
		<path d="M 300.781756 83.29387 C 300.927856 80.274537 303.740773 77.952979 307.060151 78.117291 C 310.38088 78.277546 312.950371 80.860561 312.80346 83.881787 C 312.657359 86.90112 309.844442 89.222678 306.525065 89.058366 C 303.204336 88.898111 300.634844 86.315096 300.781756 83.29387 Z" style="fill:#0994da;"/>
		<path d="M 184.169492 88.105084 C 186.513364 85.463106 190.845436 85.481138 193.840697 88.143582 C 196.836408 90.804944 197.368338 95.100953 195.024015 97.74221 C 192.680143 100.384188 188.348071 100.366156 185.35281 97.703712 C 182.357099 95.042351 181.825169 90.746341 184.169492 88.105084 Z" style="fill:#0994da;"/>
		<path d="M 322.816768 93.447598 C 323.259892 90.466853 326.293695 88.451831 329.588279 88.944497 C 332.884215 89.439056 335.192249 92.251973 334.747322 95.230645 C 334.304197 98.21139 331.270394 100.226412 327.97581 99.733746 C 324.679874 99.239186 322.37184 96.42627 322.816768 93.447598 Z" style="fill:#0994da;"/>
		<path d="M 139.047871 92.244535 C 139.581829 90.773389 141.326379 90.056636 142.936278 90.642344 C 144.549513 91.228684 145.419533 92.8966 144.885124 94.369099 C 144.351166 95.840245 142.606617 96.556998 140.996717 95.971289 C 139.383483 95.384949 138.513462 93.717034 139.047871 92.244535 Z" style="fill:#0994da;"/>
		<path d="M 352.664791 181.354721 Q 353.201228 176.463672 352.556602 172.798766 C 351.109572 164.639504 344.996888 158.242823 337.27489 155.27213 C 335.304946 154.514806 332.203525 154.113605 330.742972 153.879195 Q 328.484525 153.523073 325.585958 153.919766 Q 316.58823 155.150417 310.520624 161.254086 C 305.602528 166.19923 303.592013 171.775477 303.903057 178.726628 Q 303.957152 179.970802 304.480066 183.103779 Q 304.687428 184.33443 303.465793 184.735631 C 303.398175 184.758171 303.330556 184.771694 303.262938 184.771694 L 180.680168 184.771694 C 180.134714 184.771694 179.719989 184.280335 179.805639 183.73939 Q 180.053572 182.22925 180.224872 181.296119 C 181.261684 175.665777 180.20684 169.895692 177.420971 165.428383 Q 175.586264 162.48023 171.880787 159.257096 Q 169.018283 156.768746 164.343612 155.010673 Q 163.198611 154.577917 161.404475 154.329983 Q 160.444296 154.194747 158.424766 153.861164 C 155.544231 153.387836 152.001038 153.991892 148.70127 154.97461 C 141.741104 157.048235 135.28582 162.48023 132.955246 169.435888 Q 132.148336 171.838588 131.616406 176.355483 Q 131.314378 178.888911 132.337667 183.640216 C 132.382746 183.838563 132.355698 184.050434 132.265541 184.235257 Q 131.702056 185.380258 130.602133 185.186419 Q 129.664494 185.024136 126.405297 184.84382 C 122.63671 184.63195 118.101783 184.140591 115.135598 183.996339 Q 112.755438 183.879134 111.799767 183.234507 C 109.780237 181.864112 109.554843 179.46592 109.185197 177.347217 Q 108.693838 174.525284 108.630728 174.250303 Q 108.229527 172.523785 108.125845 171.743922 C 107.765215 168.998623 106.940273 165.996376 106.944781 163.742436 Q 106.944781 162.322454 108.049211 160.091053 Q 110.172423 155.786028 112.660772 151.183483 Q 113.819297 149.04224 116.199458 148.185743 Q 120.166392 146.756745 128.90717 144.178238 Q 132.454872 143.127902 134.402276 142.62302 Q 139.460117 141.311227 140.235472 141.063294 C 141.718564 140.589966 143.125023 140.540379 144.716304 139.931816 C 144.932682 139.846166 145.167092 139.796579 145.401502 139.77404 C 146.713295 139.656835 148.322608 138.976145 149.909382 138.777799 Q 151.040859 138.638054 152.632141 138.119648 C 152.839503 138.05203 153.051374 138.011459 153.263244 137.993427 Q 154.940175 137.835652 157.004784 137.227088 C 157.252717 137.154962 157.500651 137.105375 157.7576 137.078328 Q 159.411992 136.907028 161.535203 136.325512 C 161.801168 136.248878 162.076149 136.203799 162.351129 136.185768 Q 164.501388 136.0325 167.030308 135.396889 C 167.255702 135.342794 167.485604 135.306731 167.715506 135.293208 C 170.122714 135.13994 171.984468 134.729723 175.117444 134.215824 Q 177.988964 133.747005 179.557706 133.102378 Q 181.387905 132.349562 184.65161 130.39765 Q 201.912281 120.070098 207.141421 117.527654 Q 216.342003 113.055837 225.312684 110.233905 Q 226.106071 109.981464 231.781491 108.538942 Q 233.057221 108.214375 234.598916 108.01152 C 235.825059 107.849237 237.231518 107.452543 238.372011 107.303783 C 241.680795 106.880042 244.399046 106.43827 247.676275 106.217384 Q 252.973033 105.852246 253.937719 105.771104 C 259.522982 105.279745 263.818991 105.478092 270.734079 105.496123 C 273.479378 105.500631 275.661191 105.847738 278.117986 105.90634 Q 279.380192 105.933388 281.079663 106.113703 Q 289.833965 107.028802 292.903831 107.493114 Q 306.296741 109.530676 318.233606 113.62383 Q 326.388361 116.418716 330.828622 118.307517 Q 332.510061 119.019762 333.15018 119.145983 C 333.222306 119.159506 333.289924 119.177538 333.353035 119.209093 Q 341.936037 123.08587 351.979593 126.732744 Q 354.986349 127.823651 357.618951 128.238376 Q 359.399563 128.522372 363.438623 128.495325 Q 369.07798 128.459262 378.373228 128.743259 C 378.747382 128.756782 379.031379 129.090365 378.977284 129.460011 Q 378.634685 131.957377 377.719586 134.378108 Q 377.660983 134.526868 377.62492 135.040766 C 377.611397 135.221082 377.579841 135.396889 377.530255 135.568188 Q 376.425824 139.350299 376.322143 140.968628 Q 376.119288 144.04751 377.593365 147.000171 Q 380.293585 152.396103 382.002071 155.921265 Q 383.02536 158.03546 383.268786 159.541092 Q 383.602369 161.601193 383.395006 163.386313 Q 383.029868 166.604939 383.038884 167.150393 C 383.074947 169.21951 382.479907 171.30215 382.074197 173.691326 C 382.042642 173.889673 381.975024 174.079004 381.880359 174.250303 Q 381.172622 175.51251 379.946478 176.463672 C 379.820258 176.567353 379.671498 176.643987 379.51823 176.70259 Q 376.141828 177.915209 374.307121 178.280348 C 371.688043 178.798754 370.601644 179.181924 368.410814 179.497475 Q 367.265813 179.664267 365.733134 180.151118 C 365.588882 180.196196 365.440122 180.227752 365.286854 180.245783 Q 363.704588 180.412575 361.784231 180.985075 C 361.500235 181.070725 361.211731 181.12482 360.918718 181.151867 Q 359.165153 181.296119 357.537809 181.873128 C 357.339462 181.940746 357.136607 181.990333 356.924737 182.012872 Q 356.171921 182.089506 354.247057 182.477184 Q 353.322941 182.662007 352.745933 181.71986 C 352.678314 181.611671 352.651267 181.480942 352.664791 181.354721 Z M 319.707683 124.321029 Q 318.346303 122.693684 316.583722 121.778585 Q 312.242634 119.511121 308.108909 118.091139 Q 302.456028 116.148243 296.83921 114.822926 Q 295.157771 114.426233 294.418478 114.385662 C 294.229147 114.376646 294.044324 114.340583 293.864009 114.281981 Q 292.263712 113.768082 290.897824 113.62383 C 288.851247 113.407452 286.818193 112.699715 284.857266 112.654636 C 283.383189 112.618573 282.413995 112.321053 280.547733 112.05058 C 278.334364 111.730521 275.900109 111.739537 273.497409 111.518651 Q 261.56956 110.409712 249.402792 111.496111 Q 246.188674 111.784615 245.399795 111.789123 Q 243.700325 111.793631 242.149614 112.13623 C 240.540301 112.483337 237.538053 112.672668 235.604173 113.096408 C 233.160902 113.62383 229.915229 114.106173 227.697352 114.768832 C 225.294652 115.485585 223.099315 116.003991 220.60195 116.874011 Q 211.293178 120.124193 202.714683 125.159494 Q 197.120405 128.436723 191.233114 132.475783 Q 190.038526 133.291709 189.993447 134.567439 C 189.979923 135.094861 190.426203 135.541141 191.016736 135.590728 Q 194.411169 135.856693 198.70267 135.482539 C 202.074564 135.189526 206.35705 135.185018 208.592958 135.153463 C 210.810835 135.121908 213.209027 134.720707 215.408872 134.806357 Q 216.580921 134.855943 220.511792 134.531376 Q 223.6628 134.274427 227.115836 134.292458 C 231.420861 134.31049 234.52679 133.945352 238.732641 133.891257 Q 239.548568 133.882241 244.313396 133.512595 C 246.973045 133.309741 250.809251 133.557674 253.85207 133.251138 C 257.223964 132.908539 260.072944 133.070823 263.755881 132.777811 Q 268.178111 132.426196 273.776898 132.480291 C 274.966978 132.493814 276.743082 132.182771 277.685229 132.191786 Q 280.800174 132.218834 285.132246 131.921314 Q 290.347863 131.560683 292.56574 131.578715 C 296.235154 131.61027 299.15626 131.213577 302.798627 131.191037 C 305.06609 131.177514 307.960149 130.71771 310.096884 130.731233 Q 311.625055 130.740249 313.374112 130.645584 C 313.617538 130.63206 313.860963 130.591489 314.090865 130.519363 C 315.812875 129.982925 319.815872 128.883003 319.946601 126.593 Q 320.005203 125.55168 319.937585 124.87099 C 319.919553 124.668135 319.838411 124.474297 319.707683 124.321029 Z M 114.211483 156.394592 C 115.257311 156.011422 123.637459 152.738702 122.366237 150.565904 C 121.581866 149.218048 119.61643 149.371316 118.534539 149.853659 Q 114.612684 151.598208 113.467683 155.713902 C 113.34597 156.160182 113.778726 156.556876 114.211483 156.394592 Z" style="fill:#0994da;"/>
		<path d="M 133.058341 174.647718 C 134.303102 162.800289 145.527723 154.266873 158.123505 155.593136 C 170.722262 156.917506 179.922844 167.596673 178.679255 179.442659 C 177.434494 191.290088 166.209874 199.823504 153.614092 198.497241 C 141.015335 197.172871 131.814753 186.493704 133.058341 174.647718 Z" style="fill:#0994da;"/>
		<path d="M 305.398321 174.37445 C 306.770068 162.525308 318.075831 154.100081 330.651282 155.554999 C 343.225291 157.012172 352.308668 167.79502 350.939625 179.643801 C 349.567878 191.492943 338.262115 199.91817 325.686664 198.463252 C 313.112655 197.00608 304.029278 186.223231 305.398321 174.37445 Z" style="fill:#0994da;"/>
		<path d="M 399.700007 202.46963 L 399.700007 202.61839 C 399.700007 202.704039 399.632389 202.771658 399.546739 202.776165 Q 396.445318 202.929433 391.856296 202.960988 C 373.324403 203.096225 358.060723 202.942957 337.752725 202.906894 Q 240.107545 202.749118 133.572826 202.89337 Q 97.766738 202.942957 92.325727 202.933941 Q 91.315962 202.929433 90.63978 202.564295 C 90.405371 202.438074 90.482005 202.081952 90.747969 202.06392 Q 93.033464 201.892621 94.128879 201.721322 C 95.909492 201.446341 97.577407 201.64018 99.137133 201.198408 C 99.330972 201.148821 99.524811 201.117266 99.71865 201.10825 Q 103.270859 200.977521 109.288878 200.468131 Q 114.008628 200.06693 117.015384 200.084961 C 120.734385 200.107501 123.596888 199.697284 127.33392 199.719823 C 130.530007 199.737855 136.480408 199.679252 140.871083 199.408779 Q 144.319611 199.196909 148.08369 199.363701 Q 150.968733 199.489921 155.300806 199.395256 Q 163.735048 199.205925 166.151272 199.124783 Q 167.751569 199.070688 169.464563 199.129291 C 170.934132 199.178877 172.259449 198.985039 173.868762 198.957991 Q 182.90706 198.831771 185.724485 198.827263 Q 237.465927 198.773168 284.672443 198.885865 Q 295.653637 198.908405 301.2389 199.00307 C 309.948124 199.147322 316.498073 199.007578 324.535622 199.309606 Q 326.721944 199.390748 333.839886 199.291574 Q 343.41913 199.160846 352.827074 199.59811 C 356.180937 199.755886 358.935251 199.607126 362.027657 199.913662 C 365.859354 200.292324 370.894656 200.026359 375.190665 200.468131 C 377.250766 200.680001 379.527245 200.549273 381.407031 200.81073 C 383.548274 201.103742 386.167352 200.887364 388.069677 201.180376 C 390.323617 201.531991 392.573049 201.360691 394.651182 201.739353 C 396.170337 202.018842 397.612858 201.865574 399.343884 202.068428 C 399.546739 202.095476 399.700007 202.266775 399.700007 202.46963 Z" style="fill:#0994da;"/>
	</g>
	<g id="surface4">
	</g>
</svg>
