<?xml version="1.0" encoding="utf-8"?>
<svg xmlns="http://www.w3.org/2000/svg" width="490pt" height="280pt" viewBox="0 0 490 280" version="1.1" xmlns:xlink="http://www.w3.org/1999/xlink">
	<g id="surface2" data-size="89.718623593898 148" data-bboxpos="200 50.225379951114" data-pivot="244.85931179695 124.22537995111" data-center="244.85931179695 124.22537995111">
		<path vector-effect="non-scaling-stroke" d="M 271.007098 86.521827 Q 270.884562 91.378901 271.100056 96.23175" style="fill:none;stroke-width:0.50;stroke:#8b6e1e;"/>
		<path vector-effect="non-scaling-stroke" d="M 272.118373 65.225912 Q 271.995836 65.348448 271.989498 65.456195 C 271.985273 65.521689 272.048654 65.572393 272.112034 65.553379 Q 272.238796 65.515351 272.363445 65.390702" style="fill:none;stroke-width:0.50;stroke:#8b6e1e;"/>
		<path vector-effect="non-scaling-stroke" d="M 277.11911 60.356162 Q 277.178265 60.33926 277.209955 60.239964 Q 277.23742 60.155456 277.152913 60.125879 Q 277.108546 60.108977 277.030377 60.140667" style="fill:none;stroke-width:0.50;stroke:#8b6e1e;"/>
		<path vector-effect="non-scaling-stroke" d="M 269.118353 69.821013 Q 269.162719 69.768196 269.164832 69.717491 Q 269.164832 69.65411 269.105677 69.628758 Q 269.00638 69.586504 268.845816 69.698477" style="fill:none;stroke-width:0.50;stroke:#8b6e1e;"/>
		<path vector-effect="non-scaling-stroke" d="M 276.711361 75.32457 Q 276.745164 75.411191 276.823333 75.43443 Q 276.92263 75.464008 276.966996 75.373162 Q 277.038827 75.231612 276.836009 75.147104" style="fill:none;stroke-width:0.50;stroke:#8b6e1e;"/>
		<path vector-effect="non-scaling-stroke" d="M 270.489489 70.116789 Q 270.464136 70.025944 270.385967 70.042845 Q 270.307797 70.06186 270.280332 70.173832" style="fill:none;stroke-width:0.50;stroke:#8b6e1e;"/>
		<path vector-effect="non-scaling-stroke" d="M 208.7588 113.661443 Q 208.577109 113.771302 208.724997 113.948768 Q 208.801054 114.043839 208.898238 113.969895 Q 209.01021 113.883275 208.959506 113.822007" style="fill:none;stroke-width:0.50;stroke:#8b6e1e;"/>
		<path vector-effect="non-scaling-stroke" d="M 237.400538 119.703736 C 237.400538 119.017112 236.844901 118.461474 236.158276 118.461474 C 235.471652 118.461474 234.916015 119.017112 234.916015 119.703736 C 234.916015 120.39036 235.471652 120.945998 236.158276 120.945998 C 236.844901 120.945998 237.400538 120.39036 237.400538 119.703736" style="fill:none;stroke-width:0.50;stroke:#8b6e1e;"/>
		<path vector-effect="non-scaling-stroke" d="M 254.016845 119.684722 C 254.016845 119.002323 253.46332 118.448798 252.780921 118.448798 C 252.098522 118.448798 251.544998 119.002323 251.544998 119.684722 C 251.544998 120.367121 252.098522 120.920645 252.780921 120.920645 C 253.46332 120.920645 254.016845 120.367121 254.016845 119.684722" style="fill:none;stroke-width:0.50;stroke:#8b6e1e;"/>
		<path vector-effect="non-scaling-stroke" d="M 232.742057 150.895491 C 233.029383 162.747681 232.913185 177.443553 232.89417 184.53374 C 232.892058 185.778115 232.847691 186.64643 233.817416 187.347843 C 235.957571 188.896445 238.539278 189.266166 241.277324 189.5049 Q 251.407673 190.388004 261.400696 189.388702 C 263.405639 189.187996 265.850021 188.776022 267.533835 187.654184 C 268.725392 186.861925 268.647223 185.852059 268.640885 184.423881 Q 268.556377 165.371642 268.564828 148.4997 Q 268.564828 148.02857 268.518349 147.705329 C 268.507785 147.637723 268.457081 147.582793 268.389475 147.568004 C 268.026092 147.487722 267.402848 147.451806 267.079607 147.375749 C 264.846494 146.849689 263.181694 145.586301 261.491542 144.018685 Q 261.077455 143.634175 260.754213 143.733472 C 258.299267 144.49404 256.034464 144.751788 253.473883 144.960945 Q 252.922471 145.005311 252.698526 145.569399 Q 252.275988 146.632082 251.969648 147.221523 C 250.059776 150.901829 246.056229 152.974378 242.388599 150.039851 C 241.188591 149.078577 240.434361 147.874344 239.67168 146.486307 Q 239.384354 145.964472 239.215339 145.867289 C 238.822378 145.641231 238.285755 145.909542 238.082937 146.315179 C 237.242086 147.990542 236.441377 149.450411 234.732211 150.310276 C 234.096291 150.629292 233.593471 150.665207 232.908959 150.713799 C 232.813888 150.720137 232.739944 150.80042 232.742057 150.895491" style="fill:none;stroke-width:0.50;stroke:#8b6e1e;"/>
		<path vector-effect="non-scaling-stroke" d="M 235.723062 185.97882 C 236.870253 187.121786 239.048436 187.464041 240.265346 186.268259 Q 241.245634 185.30276 241.471692 183.836553 Q 241.640707 182.740067 241.640707 182.566826 Q 241.621693 169.554769 241.65127 157.440604 C 241.657608 155.228618 241.568875 152.393388 239.185761 151.360282 C 236.747717 150.30605 234.83362 152.342683 234.630802 154.643403 Q 234.569534 155.344816 234.563195 155.750452 Q 234.436434 166.57165 234.392068 182.632319 Q 234.38573 184.647826 235.723062 185.97882" style="fill:none;stroke-width:0.50;stroke:#8b6e1e;"/>
		<path vector-effect="non-scaling-stroke" d="M 259.237302 186.849249 C 260.342239 187.584465 261.960559 187.472492 263.118313 186.840798 Q 265.254243 185.674593 265.478188 183.215422 Q 265.598611 181.890765 265.598611 181.789356 Q 265.564808 163.206135 265.596499 157.33497 C 265.607062 155.055377 265.44861 152.47367 263.006341 151.46803 Q 261.130272 150.694785 259.414768 152.08071 C 257.944335 153.268042 257.513347 154.92439 257.500671 156.648345 Q 257.454191 162.515286 257.337993 181.261184 C 257.323205 183.445705 257.342219 185.58586 259.237302 186.849249" style="fill:none;stroke-width:0.50;stroke:#8b6e1e;"/>
		<path vector-effect="non-scaling-stroke" d="M 249.32456 187.80841 C 250.678795 187.810523 251.870352 187.377421 252.656272 186.306287 C 253.767547 184.791489 253.702054 182.890068 253.706279 181.049915 Q 253.752759 164.75685 253.687265 157.08356 C 253.672476 155.264534 253.319657 153.411704 251.904155 152.22226 Q 250.849923 151.337043 249.375265 151.33493 Q 247.898495 151.332817 246.84215 152.215922 C 245.424535 153.401141 245.065377 155.251857 245.046363 157.070883 Q 244.959743 164.744173 244.961856 181.037239 C 244.959743 182.877392 244.890024 184.778812 245.997074 186.295724 C 246.780882 187.371083 247.970326 187.806297 249.32456 187.80841" style="fill:none;stroke-width:0.50;stroke:#8b6e1e;"/>
		<path vector-effect="non-scaling-stroke" d="M 237.635047 185.290083 C 238.67449 185.349239 239.008295 184.586558 239.124493 183.66965 Q 239.249142 182.691475 239.253367 180.521742 Q 239.31041 157.045531 239.251255 155.712424 C 239.211113 154.812418 238.879421 153.496212 237.947725 153.202548 C 236.847013 152.85818 236.056867 153.878609 235.921655 154.839883 Q 235.83926 155.431436 235.824471 156.648345 Q 235.701935 167.114612 235.67447 180.891463 C 235.670245 182.35767 235.429398 185.161209 237.635047 185.290083" style="fill:none;stroke-width:0.50;stroke:#8b6e1e;"/>
		<path vector-effect="non-scaling-stroke" d="M 262.05563 153.390578 C 261.273935 152.875081 260.147871 153.475085 259.72322 154.144808 C 259.135893 155.076504 259.163358 156.042003 259.159132 157.163842 Q 259.106315 176.13791 259.104202 183.268239 C 259.10209 184.254865 259.689417 185.484451 260.781678 185.64079 C 262.733804 185.919665 263.114088 184.001343 263.10775 182.533023 Q 263.067609 172.998453 263.071834 155.961721 C 263.071834 154.928616 262.923946 153.965229 262.05563 153.390578" style="fill:none;stroke-width:0.50;stroke:#8b6e1e;"/>
		<path vector-effect="non-scaling-stroke" d="M 246.675247 169.780826 Q 246.662571 180.061176 246.698487 183.217535 Q 246.719614 184.968955 247.746381 185.759101 C 249.047798 186.758403 250.833021 186.154174 251.061192 184.442895 Q 251.15415 183.754158 251.156263 183.373874 Q 251.177389 176.497068 251.18584 169.785052 Q 251.192178 163.073036 251.187953 156.19623 Q 251.18584 155.815946 251.094995 155.127209 C 250.871049 153.41593 249.087939 152.807475 247.782297 153.802552 Q 246.755529 154.590585 246.730177 156.344118 Q 246.685811 159.500477 246.675247 169.780826" style="fill:none;stroke-width:0.50;stroke:#8b6e1e;"/>
		<path d="M 271.007098 86.521827 Q 270.884562 91.378901 271.100056 96.23175 L 271.171887 107.652952 C 271.174 107.885348 271.254282 108.109293 271.400058 108.288872 Q 273.379648 110.718465 275.205013 112.759324 Q 275.479662 113.067777 275.291633 113.464962 Q 274.771911 114.569899 274.647262 115.279763 C 274.607121 115.501595 274.353598 115.60723 274.167682 115.480469 L 271.744426 113.802993 C 271.541608 113.661443 271.262733 113.809331 271.266958 114.056516 L 271.490904 130.074931 C 271.493016 130.332679 271.56696 130.586202 271.702173 130.808034 Q 272.160626 131.558039 272.591615 132.785512 C 272.614855 132.851006 272.64232 132.914386 272.67401 132.977767 Q 272.883166 133.391854 273.880356 133.983407 Q 275.81558 135.128485 276.666994 137.209485 Q 277.049391 138.145407 277.059954 139.083441 Q 277.076856 140.522183 277.005024 141.008102 Q 276.93108 141.510922 276.174737 143.146144 C 276.138822 143.222201 276.088117 143.291919 276.024736 143.348962 Q 275.581071 143.752486 275.519803 144.196151 C 275.505015 144.308123 275.600086 144.401082 275.709945 144.38418 Q 278.088834 144.008121 280.624062 144.147559 Q 281.329701 144.185587 282.814922 144.601787 Q 285.878322 145.461652 287.731151 148.2166 Q 288.265662 149.008859 288.696651 150.246895 Q 289.201584 151.698313 289.283979 152.427191 Q 289.360035 153.101139 289.427641 153.692692 Q 290.253703 160.896965 288.734679 168.840679 Q 288.081858 172.261124 286.309311 175.178749 Q 285.231839 176.955522 283.871267 178.170318 Q 281.555759 180.238642 278.775459 181.30555 Q 276.880376 182.030203 276.337414 182.135837 Q 275.636001 182.273162 275.139519 182.518234 C 275.12473 182.524572 275.107829 182.53091 275.088815 182.535136 L 272.830349 182.980913 C 272.81556 182.983026 272.798659 182.985139 272.781757 182.985139 C 272.466966 182.995702 271.435974 182.849927 271.351466 183.481621 Q 271.288085 183.969652 271.349353 184.483036 Q 271.537383 186.029525 271.533157 186.752065 Q 271.524707 187.905594 271.748652 189.014756 Q 272.141612 190.956318 272.331754 191.858437 C 272.374008 192.057029 272.371895 192.26196 272.325416 192.460553 Q 271.936681 194.097888 270.497939 195.067613 Q 269.076099 196.026774 267.261298 196.516918 Q 265.243679 197.061992 263.900008 197.258472 Q 262.748592 197.427487 261.597176 197.598615 Q 260.397169 197.776081 259.283781 197.852138 Q 256.725313 198.029604 256.501368 198.050731 Q 254.878822 198.213408 253.723181 198.219746 Q 250.57316 198.236648 247.102011 198.202845 Q 246.354118 198.196507 245.707635 198.092985 C 244.794953 197.947209 243.778749 198.061294 242.828039 197.87749 C 242.198457 197.757067 241.570988 197.805659 240.846335 197.706362 Q 238.163219 197.338754 236.259686 196.928893 Q 235.376581 196.740863 233.597696 196.130296 Q 232.065996 195.606349 230.895566 194.657751 Q 229.746262 193.73028 229.543444 192.270411 Q 229.482176 191.828859 229.61105 191.467589 C 229.748375 191.089417 229.661755 190.76195 229.777953 190.400681 Q 229.849784 190.174623 230.039926 189.264053 C 230.158237 188.70419 230.122321 188.171793 230.280773 187.616155 C 230.312463 187.50207 230.329365 187.383759 230.329365 187.265449 Q 230.331477 185.795016 230.422323 184.943602 C 230.604014 183.225985 230.515282 181.563298 230.633592 179.932302 C 230.813171 177.401299 230.762466 175.170298 230.817396 172.546338 Q 230.823734 172.216758 230.789931 171.90408 C 230.770917 171.737177 230.631479 171.612529 230.464577 171.612529 L 206.491884 171.612529 C 206.232023 171.612529 206.022867 171.405485 206.018641 171.145624 L 206.008078 170.423084 C 206.003852 170.158998 206.217234 169.943503 206.483433 169.941391 L 230.654719 169.829418 C 230.840636 169.827306 230.992749 169.683643 231.003313 169.499839 Q 231.199793 166.115309 231.182892 163.043458 C 231.178666 162.323031 231.322329 161.822323 230.449788 161.820211 Q 210.759518 161.752604 209.415847 161.750492 Q 209.367255 161.750492 207.636962 161.820211 C 207.611609 161.822323 207.58837 161.818098 207.56513 161.809647 L 207.081324 161.653308 C 206.963014 161.613167 206.884844 161.50542 206.884844 161.382884 L 206.884844 122.969955 C 206.884844 122.813616 206.692589 122.741784 206.589068 122.857982 L 203.003833 126.929136 C 202.826367 127.129841 202.515801 127.138292 202.327772 126.946037 Q 201.522837 126.11575 200.170715 124.628416 Q 199.800995 124.22278 200.231983 123.736861 Q 202.718619 120.941772 206.460193 116.657237 Q 206.777097 116.293854 206.905971 116.074134 C 206.927098 116.036106 206.939774 115.993852 206.939774 115.951598 L 206.939774 90.63946 C 206.939774 90.415515 206.758083 90.231711 206.534138 90.233823 L 204.218629 90.244387 C 203.910177 90.2465 203.675668 89.963399 203.736936 89.659172 C 203.842571 89.145788 205.09117 87.928879 205.424975 87.502115 Q 205.906669 86.88521 206.97569 85.579567 Q 210.782757 80.918973 214.412359 76.440071 Q 214.811657 75.947814 215.352506 75.371049 Q 215.593352 75.113301 215.529972 74.616819 Q 215.312364 72.964696 215.34828 71.270318 C 215.352506 71.143557 215.251096 71.037922 215.124335 71.040035 L 213.54193 71.046373 C 213.25883 71.048486 213.028547 70.818203 213.028547 70.535102 L 213.028547 70.173832 C 213.028547 69.825238 213.309534 69.54425 213.658128 69.542138 L 214.929968 69.5358 C 215.158138 69.533687 215.341942 69.349883 215.341942 69.121712 L 215.341942 67.218179 C 215.341942 66.932966 215.570113 66.702682 215.855326 66.698457 L 216.351808 66.692119 C 216.653923 66.687894 216.901107 66.930853 216.901107 67.232968 L 216.901107 69.115374 C 216.901107 69.356221 217.095475 69.550589 217.334209 69.550589 L 218.673654 69.550589 C 218.941966 69.550589 219.161686 69.766083 219.165911 70.034395 L 219.176474 70.807639 C 219.178587 70.9344 219.083516 71.042148 218.958867 71.059049 Q 218.204637 71.162571 217.308856 71.105528 C 216.797585 71.071725 216.837727 71.549193 216.833501 72.024548 Q 216.820825 73.171739 216.846177 74.568227 Q 216.850403 74.847102 217.279279 75.307669 C 217.321533 75.354148 217.361674 75.40274 217.397589 75.453444 C 217.885621 76.154857 218.472949 76.862609 218.908163 77.363316 Q 218.939853 77.399232 225.423699 85.457031 Q 227.825827 88.442262 228.233576 88.932406 Q 228.727946 89.528185 228.932877 90.08171 C 229.019497 90.311993 228.848369 90.557065 228.601184 90.557065 Q 228.049772 90.554952 226.015252 90.531713 Q 225.584263 90.527487 225.187077 90.626784 C 224.994823 90.673263 224.85961 90.846503 224.857498 91.045096 Q 224.840596 94.201455 224.887075 95.302167 Q 224.889188 95.363435 224.922991 95.39935 C 225.026513 95.519774 225.216655 95.515548 225.320177 95.388787 Q 226.718778 93.700748 228.176534 92.097216 C 228.651889 91.575382 229.08499 90.831715 229.632177 90.417627 C 229.672318 90.385937 229.704009 90.341571 229.716685 90.290866 L 229.742037 90.202133 Q 229.74415 90.20002 229.746262 90.197908 Q 232.32797 87.240142 242.327331 75.802038 Q 242.631559 75.455557 242.828039 75.419641 Q 243.117477 75.366824 243.381563 75.687953 Q 245.192139 77.891489 247.61962 80.671789 C 248.369624 81.531653 249.111179 82.427434 250.184425 83.673921 Q 265.389455 101.365587 268.231023 104.612791 Q 268.50356 104.921244 268.708491 105.073358 C 268.831027 105.162091 269.002155 105.07547 269.000042 104.923357 Q 268.942999 100.476144 269.086662 95.221884 Q 269.262016 88.780293 269.232438 84.415475 Q 269.228213 83.96336 269.14793 83.532371 Q 269.063423 83.090819 268.966239 82.65983 Q 267.909894 78.003461 267.445102 76.019645 C 267.398623 75.821052 267.181016 75.719643 266.999325 75.808376 L 260.333788 79.125299 C 260.268294 79.15699 260.200688 79.089384 260.232379 79.02389 L 263.931699 71.37384 C 263.980291 71.274544 263.929586 71.15412 263.826064 71.118204 L 253.735857 67.56466 C 253.617546 67.524519 253.621772 67.355504 253.740082 67.317475 L 263.333808 64.224497 C 263.490147 64.173793 263.564091 63.996327 263.490147 63.848438 L 259.904912 56.642053 C 259.862658 56.555432 259.953504 56.4667 260.038011 56.508953 L 267.041578 60.041371 C 267.214819 60.127991 267.426088 60.049822 267.500032 59.870243 C 267.685949 59.42024 267.721865 58.927983 267.840175 58.488544 Q 268.695815 55.292044 269.688779 51.88005 C 269.834555 51.377229 269.883147 50.684267 270.14512 50.299757 Q 270.193712 50.227926 270.214839 50.225813 Q 270.415544 50.217363 270.457798 50.373702 Q 272.557812 58.076569 273.047956 59.794186 C 273.100773 59.986441 273.316268 60.081512 273.495846 59.992779 L 280.554344 56.481488 C 280.721246 56.396981 280.898712 56.578672 280.807866 56.743462 Q 278.950812 60.147005 277.243758 63.966749 C 277.199392 64.063933 277.250096 64.178018 277.349393 64.209708 L 286.924104 67.334377 C 287.019175 67.366067 287.025513 67.497054 286.934667 67.537195 C 286.689595 67.647055 286.400157 67.638604 286.133958 67.790718 Q 285.702969 68.033677 285.27198 68.09072 C 285.24029 68.094945 285.2086 68.103396 285.176909 68.113959 L 276.918404 71.065387 C 276.745164 71.128768 276.664881 71.329473 276.747276 71.494263 L 280.590259 79.222483 C 280.628288 79.29854 280.545893 79.378822 280.471949 79.338681 L 273.523311 75.696404 C 273.326831 75.592882 273.083872 75.700629 273.031055 75.918236 L 271.007098 84.290826 C 270.992309 84.352094 270.983858 84.413363 270.985971 84.474631 L 271.007098 86.521827 Z M 270.178923 65.739296 C 270.345826 65.889297 270.61625 65.792113 270.660616 65.566055 Q 270.713434 65.297744 270.707096 65.132954 C 270.704983 65.063235 270.72611 64.995629 270.770476 64.940699 Q 270.914139 64.763233 271.190902 63.301252 Q 271.501467 61.663917 271.28386 60.297006 C 271.182451 59.661087 271.078929 58.966012 270.952168 58.361782 Q 270.715546 57.248395 270.637377 56.175148 C 270.624701 56.001908 270.464136 55.879372 270.301459 55.921625 Q 270.151458 55.959654 270.098641 56.177261 Q 269.714131 57.753328 269.433144 59.942075 Q 269.285255 61.087152 269.363425 62.236456 Q 269.420467 63.06463 269.67399 63.8421 Q 269.83878 64.353371 270.028922 65.454083 Q 270.0585 65.631549 270.178923 65.739296 Z M 268.995817 65.760423 Q 269.019056 65.42873 268.750745 65.141405 C 268.706378 65.094925 268.670462 65.039995 268.647223 64.98084 C 267.990176 63.400548 267.523272 62.570261 266.135234 61.649128 Q 265.391568 61.152646 263.889445 60.144893 Q 263.745782 60.049822 263.572542 60.11109 C 263.496485 60.138555 263.464794 60.227288 263.502823 60.297006 Q 265.442272 63.825199 268.771872 65.876621 C 268.866943 65.933663 268.987366 65.870283 268.995817 65.760423 Z M 277.030377 60.140667 Q 276.890939 60.185034 276.39657 60.457571 Q 275.460648 60.977293 274.524726 61.494902 Q 273.688101 61.959693 273.30993 62.601951 Q 272.737391 63.580127 272.118373 65.225912 Q 271.995836 65.348448 271.989498 65.456195 C 271.985273 65.521689 272.048654 65.572393 272.112034 65.553379 Q 272.238796 65.515351 272.363445 65.390702 Q 275.407831 63.643507 277.11911 60.356162 Q 277.178265 60.33926 277.209955 60.239964 Q 277.23742 60.155456 277.152913 60.125879 Q 277.108546 60.108977 277.030377 60.140667 Z M 281.917029 67.361842 Q 281.832521 67.249869 281.621252 67.23508 Q 281.416321 67.220291 281.270545 67.154798 Q 280.490963 66.808317 279.831804 66.780852 C 279.721944 66.776627 279.609971 66.7555 279.504337 66.719584 Q 278.042355 66.225215 276.774741 66.005495 Q 276.107131 65.889297 275.547268 66.170285 C 275.031772 66.430145 274.585994 66.364652 274.055709 66.696344 C 273.983878 66.740711 273.903596 66.774514 273.819088 66.795641 C 273.316268 66.916064 272.357106 67.228742 272.004287 67.714661 C 271.943019 67.799169 271.970484 67.921705 272.063443 67.972409 Q 273.474719 68.754104 274.924025 69.233685 C 275.805017 69.523124 276.597275 69.045656 277.256435 68.935796 C 277.837424 68.840725 278.386724 68.555512 278.98884 68.464666 C 279.060672 68.454102 279.130391 68.432976 279.195884 68.405511 Q 279.861381 68.124523 280.624062 68.008325 Q 281.291672 67.909028 281.853648 67.625928 C 281.952944 67.577336 281.982522 67.450575 281.917029 67.361842 Z M 268.744407 67.759027 Q 268.541588 67.442124 268.144403 67.251982 Q 266.756365 66.582259 265.41692 66.115355 Q 264.907762 65.937889 264.404941 66.051974 Q 262.978876 66.377328 262.683099 66.421695 C 262.173941 66.495639 261.669008 66.768176 261.199991 66.789303 Q 260.908439 66.799866 260.090828 67.049164 Q 259.457021 67.241418 258.85913 67.256207 C 258.688002 67.260433 258.597157 67.459025 258.704904 67.592125 Q 258.821102 67.735788 258.954201 67.773816 Q 259.653502 67.974522 264.373251 69.265375 Q 265.152834 69.478757 265.757063 69.246361 Q 267.130311 68.720301 268.687364 67.959733 C 268.763421 67.923817 268.788773 67.830859 268.744407 67.759027 Z M 268.845816 69.698477 C 267.950035 70.076648 267.263411 70.775949 266.50073 71.321023 Q 266.040163 71.650602 265.045086 73.197091 Q 264.58452 73.913293 264.011981 74.9633 C 263.929586 75.115414 264.100714 75.278091 264.248602 75.189358 Q 266.128896 74.063294 266.513406 73.820335 Q 267.992289 72.882301 268.588068 71.086514 C 268.607082 71.027359 268.634547 70.970316 268.666237 70.917499 Q 268.976803 70.39989 269.118353 69.821013 Q 269.162719 69.768196 269.164832 69.717491 Q 269.164832 69.65411 269.105677 69.628758 Q 269.00638 69.586504 268.845816 69.698477 Z M 276.711361 75.32457 Q 276.745164 75.411191 276.823333 75.43443 Q 276.92263 75.464008 276.966996 75.373162 Q 277.038827 75.231612 276.836009 75.147104 Q 276.586712 74.574565 276.244456 74.056956 Q 275.840932 73.450614 275.648677 73.121035 C 274.801489 71.68018 273.474719 70.617497 271.955695 69.878055 C 271.837385 69.821013 271.710623 69.941436 271.765553 70.06186 Q 272.183866 70.982992 272.644432 71.967506 C 273.088097 72.918216 274.015568 73.813997 274.894447 74.333719 Q 276.096568 75.043582 276.307837 75.172457 C 276.434598 75.250626 276.574036 75.250626 276.711361 75.32457 Z M 270.280332 70.173832 Q 269.973992 70.594257 269.878921 71.107641 Q 269.720469 71.975957 269.712019 72.003422 Q 269.238776 73.790757 269.447932 75.580206 Q 269.640187 77.225991 270.151458 80.158405 C 270.17681 80.310519 270.381741 80.340096 270.45146 80.202771 Q 270.688081 79.731642 270.704983 79.006989 C 270.707096 78.869664 270.740899 78.736565 270.800054 78.611916 Q 270.863435 78.480929 271.169775 76.484437 Q 271.44865 74.667524 271.347241 73.775968 Q 271.275409 73.144274 271.224705 72.952019 Q 271.093718 72.45765 271.08738 72.12807 C 271.085267 72.039337 271.068366 71.952717 271.034563 71.870322 Q 270.738786 71.137219 270.669067 70.372425 C 270.656391 70.245664 270.595123 70.171719 270.489489 70.116789 Q 270.464136 70.025944 270.385967 70.042845 Q 270.307797 70.06186 270.280332 70.173832 Z M 208.7588 113.661443 Q 208.577109 113.771302 208.724997 113.948768 Q 208.801054 114.043839 208.898238 113.969895 Q 209.01021 113.883275 208.959506 113.822007 C 209.31655 113.661443 209.422185 113.393131 209.625003 113.162848 Q 213.691931 108.563522 217.832804 103.837434 Q 218.815204 102.715596 219.791267 101.585307 C 219.920141 101.435306 219.814507 101.20291 219.615914 101.20291 Q 217.004629 101.215586 213.814467 101.207135 C 213.273619 101.205022 213.140519 100.930373 213.14897 100.419102 Q 213.172209 98.872613 213.161646 94.852164 Q 213.159533 93.599339 213.246154 92.542994 C 213.252492 92.481726 213.263055 92.42257 213.282069 92.365528 Q 213.966581 90.161992 216.305329 89.908469 C 217.79055 89.747905 219.138446 90.734531 219.713098 92.063413 Q 220.006762 92.743699 220.000423 94.095821 Q 219.987747 96.641612 220.004649 100.771921 C 220.004649 100.919809 220.163101 101.016993 220.2962 100.949387 Q 220.575075 100.809949 220.839161 100.387411 C 220.858176 100.357834 220.87719 100.330369 220.900429 100.305017 L 223.864533 96.97753 C 224.010309 96.814853 224.086366 96.603584 224.077915 96.385977 Q 223.972281 93.52962 224.071577 90.166217 C 224.086366 89.671848 224.122282 89.175366 223.824392 88.80142 Q 221.156065 85.459144 216.806036 79.830938 Q 216.729979 79.733754 216.601105 79.577415 C 216.484907 79.433752 216.265188 79.437978 216.153215 79.583753 Q 212.299669 84.611955 209.029224 88.594376 Q 208.634151 89.071844 208.701758 89.585228 Q 208.756687 90.02678 208.756687 90.09016 Q 208.786265 101.878971 208.7588 113.661443 Z M 231.168103 95.217659 C 231.08782 95.34442 231.07937 95.504985 231.14275 95.638084 Q 232.004728 97.476125 232.355434 98.253595 C 232.649098 98.908528 232.723043 99.30994 233.018819 99.988113 Q 233.249102 100.520511 233.502625 101.297981 Q 234.282208 103.681095 234.58221 104.771243 Q 236.008275 109.955784 236.880816 115.241735 Q 237.00124 115.974838 237.185044 116.819914 C 237.218847 116.980478 237.36251 117.094564 237.5273 117.096676 Q 240.003372 117.113578 242.175217 116.940337 Q 243.06466 116.870619 248.075961 116.923436 C 248.967516 116.933999 249.971043 117.109353 250.900627 117.048085 C 251.092882 117.035408 251.242883 116.876957 251.242883 116.682589 Q 251.244996 116.388925 251.306264 115.839626 Q 251.618942 113.137495 252.567539 108.700846 Q 253.378812 104.906455 254.335861 101.986718 Q 255.10488 99.637406 256.144324 97.178235 C 256.190803 97.06415 256.173901 96.933163 256.097844 96.83598 Q 255.812631 96.470484 255.106993 95.674 Q 248.705542 88.4486 243.529452 82.260531 C 243.26114 81.939403 242.975927 81.7725 242.659023 82.129545 Q 239.386467 85.818301 234.035023 91.95144 Q 233.061073 93.066941 232.596281 93.559197 Q 231.453316 94.763431 231.168103 95.217659 Z M 208.902463 159.969494 L 218.025058 160.174425 C 218.303933 160.180763 218.529991 159.948367 218.517315 159.669492 Q 218.333511 155.792706 218.318722 152.000428 Q 218.291257 144.91024 218.257454 137.686953 C 218.244778 134.836934 218.105341 132.768611 219.045488 130.484793 Q 219.687745 128.923515 220.885641 127.860832 Q 222.425792 126.491809 224.086366 126.094623 Q 228.886398 124.941094 232.376561 128.427033 Q 232.589943 128.640414 232.896283 128.672105 Q 233.126566 128.697457 233.346286 128.395342 C 233.384314 128.344638 233.401216 128.281257 233.394878 128.217876 Q 233.031495 124.700248 232.957551 124.23123 Q 232.877269 123.713621 232.883607 123.496014 C 232.904734 122.853757 232.668113 122.236851 232.682901 121.660087 Q 232.689239 121.453043 232.294166 118.560771 Q 231.753318 114.60159 231.296977 111.96284 Q 230.287111 106.117027 228.742735 100.989528 Q 228.33076 99.618392 228.142731 99.197967 C 228.051885 98.993036 227.770897 98.967684 227.646249 99.151488 Q 227.287091 99.677548 227.037794 99.943747 Q 226.137788 100.907133 225.296937 101.904323 C 224.145521 103.271233 222.901147 104.578988 221.813111 105.882518 C 221.052543 106.790975 220.15465 107.705769 219.360278 108.635353 Q 217.234912 111.128327 213.271506 115.594554 Q 209.935568 119.353029 208.866547 120.593178 C 208.53063 120.984026 208.663729 121.220647 208.663729 121.664312 Q 208.663729 142.863043 208.596123 159.656816 C 208.596123 159.827944 208.731335 159.965269 208.902463 159.969494 Z M 260.114068 127.117165 C 260.238717 127.300969 260.488014 127.351674 260.673931 127.227025 Q 264.430294 124.727713 268.429616 127.053784 C 268.642997 127.178433 268.909196 127.024207 268.909196 126.777022 Q 268.892295 119.849511 268.972577 112.123404 Q 268.976803 111.770585 268.617645 111.354385 Q 263.545077 105.457867 261.726051 103.32405 C 261.060553 102.542355 260.424633 101.921224 259.885898 101.194459 C 259.763362 101.027556 259.518289 101.016993 259.380965 101.173332 Q 259.328147 101.232487 259.328147 101.249389 C 259.290119 101.974042 259.015469 102.531792 258.780961 103.328276 Q 258.193633 105.337444 257.701376 107.73746 Q 256.706299 112.596647 256.368269 115.615681 C 256.245733 116.720618 256.006999 117.848794 255.947843 118.801617 C 255.867561 120.132612 255.694321 121.015716 255.491502 122.500937 C 255.417558 123.039673 255.66263 123.206576 256.087281 123.403056 Q 257.718278 124.161512 258.930962 125.583352 Q 259.6366 126.409414 260.114068 127.117165 Z M 237.400538 119.703736 C 237.400538 119.017112 236.844901 118.461474 236.158276 118.461474 C 235.471652 118.461474 234.916015 119.017112 234.916015 119.703736 C 234.916015 120.39036 235.471652 120.945998 236.158276 120.945998 C 236.844901 120.945998 237.400538 120.39036 237.400538 119.703736 Z M 254.016845 119.684722 C 254.016845 119.002323 253.46332 118.448798 252.780921 118.448798 C 252.098522 118.448798 251.544998 119.002323 251.544998 119.684722 C 251.544998 120.367121 252.098522 120.920645 252.780921 120.920645 C 253.46332 120.920645 254.016845 120.367121 254.016845 119.684722 Z M 237.620258 127.279842 C 237.766033 127.296744 237.903358 127.303082 238.051247 127.23125 Q 239.821681 126.352371 241.942822 125.663634 C 242.435078 125.50307 242.756207 125.473492 243.343535 125.31504 Q 243.776636 125.198842 244.408331 125.112222 Q 246.231582 124.856587 247.894269 124.70236 C 248.018918 124.691797 248.137229 124.645318 248.236525 124.569261 Q 249.250616 123.777002 250.230904 123.426296 C 250.780204 123.229815 250.814007 122.460796 250.222454 122.458684 Q 243.332972 122.439669 237.844203 122.350936 C 237.630821 122.346711 237.455468 122.522064 237.459693 122.737559 L 237.520961 127.169982 C 237.520961 127.224912 237.563215 127.273504 237.620258 127.279842 Z M 240.592813 144.246855 Q 241.053379 144.954606 241.097746 145.058128 Q 241.69775 146.503208 242.599868 147.622934 C 243.905511 149.243367 245.589324 150.016612 247.632296 149.199001 Q 248.525964 148.841956 249.2147 147.992655 Q 249.977382 147.052508 250.29006 146.283488 Q 250.638654 145.417286 250.644992 145.402497 C 250.702034 145.267285 250.748513 145.12996 250.786542 144.988409 Q 251.065417 143.948966 251.323165 143.505301 Q 251.471053 143.251778 252.178805 142.886283 C 252.199931 142.87572 252.223171 142.871494 252.246411 142.869381 L 254.914738 142.827128 C 254.933752 142.827128 254.954879 142.825015 254.973893 142.822902 L 258.001378 142.341209 C 258.007716 142.341209 258.011942 142.341209 258.01828 142.339096 L 259.678854 141.916558 C 259.699981 141.912333 259.721108 141.905995 259.740122 141.895431 Q 260.519705 141.502471 261.250695 141.601767 C 261.335203 141.614444 261.415485 141.646134 261.487317 141.694726 Q 261.715487 141.851065 263.462682 143.285581 C 263.919023 143.66164 264.745084 144.445448 265.440159 144.802493 Q 267.808485 146.023628 270.326811 145.362356 Q 273.643735 144.489815 274.911349 141.21092 Q 275.350788 140.07218 275.12473 138.637663 C 274.890222 137.137654 273.609932 135.851025 272.287388 135.354543 Q 272.076119 135.276374 271.524707 135.23412 C 271.454988 135.227782 271.385269 135.204542 271.326114 135.164401 C 270.759913 134.777779 270.715546 134.023549 270.677518 133.313685 C 270.675405 133.254529 270.664842 133.197487 270.650053 133.142557 Q 270.134557 131.169304 268.807787 129.817183 Q 267.5613 128.543231 265.731711 128.09534 Q 265.313398 127.991819 263.566203 128.089002 C 263.504935 128.091115 263.443667 128.105904 263.386625 128.131256 L 262.376759 128.568583 C 262.340843 128.583372 262.309153 128.602386 262.277463 128.625626 Q 261.271822 129.34394 260.929566 130.465779 C 260.912665 130.520709 260.887313 130.575638 260.851397 130.62423 Q 260.373929 131.279164 259.533078 130.911556 C 259.47181 130.884091 259.41688 130.839725 259.376739 130.784795 Q 259.176034 130.50592 259.074625 130.129861 Q 258.616171 128.418582 257.561939 126.998854 Q 256.917568 126.134764 255.52108 125.266449 C 255.461925 125.230533 255.400657 125.200955 255.335163 125.179828 C 254.730934 124.989686 254.409805 124.803769 253.858393 124.738276 Q 252.075283 124.522782 250.619639 125.403773 C 250.116819 125.708001 249.806254 126.075609 249.263292 126.643922 C 249.142869 126.770684 248.975967 126.840403 248.800613 126.836177 Q 246.711163 126.798149 244.875235 127.16787 C 244.79284 127.184771 244.708333 127.195335 244.623825 127.19956 Q 243.605509 127.241814 243.113252 127.444632 C 242.56184 127.67069 241.997752 127.649563 241.442114 127.972804 Q 241.366057 128.017171 241.023801 128.074214 C 240.924505 128.091115 240.829434 128.11858 240.738588 128.158721 Q 239.525904 128.695344 238.625898 129.119995 Q 237.95195 129.436899 236.551237 130.527047 Q 236.274474 130.740428 235.835035 130.780569 C 235.773767 130.786907 235.712499 130.778457 235.655456 130.759443 C 234.1977 130.246059 233.225863 130.470004 231.97515 130.64747 C 231.913882 130.658033 231.852614 130.672822 231.791346 130.691836 Q 229.600487 131.443954 228.322309 133.315797 Q 227.690615 134.241156 227.331458 135.449614 Q 226.934272 136.784834 226.837088 137.750334 Q 226.420888 141.844727 228.182872 145.660245 Q 228.700481 146.777858 229.69767 147.737019 Q 230.648381 148.649701 231.884305 148.949703 C 231.947685 148.964492 232.011066 148.97083 232.074447 148.972943 C 233.965304 149.013084 235.032213 148.077162 235.75264 146.420813 Q 236.006163 145.833485 236.477293 144.979959 Q 236.94631 144.128545 237.713216 143.735584 Q 239.126606 143.008819 240.466051 144.107418 C 240.514643 144.147559 240.556897 144.194038 240.592813 144.246855 Z M 232.742057 150.895491 C 233.029383 162.747681 232.913185 177.443553 232.89417 184.53374 C 232.892058 185.778115 232.847691 186.64643 233.817416 187.347843 C 235.957571 188.896445 238.539278 189.266166 241.277324 189.5049 Q 251.407673 190.388004 261.400696 189.388702 C 263.405639 189.187996 265.850021 188.776022 267.533835 187.654184 C 268.725392 186.861925 268.647223 185.852059 268.640885 184.423881 Q 268.556377 165.371642 268.564828 148.4997 Q 268.564828 148.02857 268.518349 147.705329 C 268.507785 147.637723 268.457081 147.582793 268.389475 147.568004 C 268.026092 147.487722 267.402848 147.451806 267.079607 147.375749 C 264.846494 146.849689 263.181694 145.586301 261.491542 144.018685 Q 261.077455 143.634175 260.754213 143.733472 C 258.299267 144.49404 256.034464 144.751788 253.473883 144.960945 Q 252.922471 145.005311 252.698526 145.569399 Q 252.275988 146.632082 251.969648 147.221523 C 250.059776 150.901829 246.056229 152.974378 242.388599 150.039851 C 241.188591 149.078577 240.434361 147.874344 239.67168 146.486307 Q 239.384354 145.964472 239.215339 145.867289 C 238.822378 145.641231 238.285755 145.909542 238.082937 146.315179 C 237.242086 147.990542 236.441377 149.450411 234.732211 150.310276 C 234.096291 150.629292 233.593471 150.665207 232.908959 150.713799 C 232.813888 150.720137 232.739944 150.80042 232.742057 150.895491 Z M 271.110619 181.170338 C 271.123296 181.25062 271.188789 181.311888 271.271184 181.316114 C 271.771891 181.349917 272.103584 181.210479 272.473304 181.142873 Q 275.511353 180.591461 278.314892 179.421031 C 281.312799 178.168206 283.721266 175.99636 285.172684 173.104088 Q 286.093817 171.26816 286.588186 169.161808 Q 287.162838 166.721651 287.496643 163.90121 Q 287.606503 162.980077 287.617066 162.278664 C 287.62763 161.406123 287.809321 160.442737 287.792419 159.506815 C 287.777631 158.553992 287.828335 157.609619 287.71425 156.633557 C 287.579038 155.496929 287.625517 154.461711 287.414248 153.28283 Q 287.158612 151.863103 287.057203 151.537748 Q 286.108606 148.491249 283.533236 147.008141 Q 282.107171 146.186305 279.920537 146.040529 Q 277.809959 145.896866 275.969806 146.131375 Q 275.25783 146.22222 274.816278 146.256023 Q 273.924722 146.321517 273.295141 146.585603 C 273.193732 146.627857 273.083872 146.651096 272.974012 146.655322 Q 272.340205 146.672223 271.712736 147.001803 C 271.695835 147.010254 271.678933 147.016592 271.659919 147.018705 L 271.095831 147.122226 C 271.03245 147.13279 270.973295 147.158142 270.92259 147.196171 Q 270.495827 147.500398 270.497939 148.041247 Q 270.50639 149.750413 270.546531 150.534221 C 270.548644 150.565911 270.557095 150.597601 270.569771 150.629292 Q 270.753575 151.077182 271.167662 150.868026 Q 272.961336 149.970132 274.336697 149.663792 C 274.410641 149.646891 274.486698 149.636327 274.562755 149.629989 Q 274.900785 149.602524 276.107131 149.454636 Q 276.768403 149.372241 278.095172 149.608862 Q 281.002234 150.128584 282.673372 152.351134 Q 283.395912 153.314521 283.858591 154.734248 Q 284.331833 156.185666 284.412115 157.337082 Q 284.805076 163.011768 283.351545 168.559692 Q 282.641681 171.266047 280.938853 173.596344 Q 279.06701 176.159037 275.912764 176.963972 Q 273.966976 177.460454 271.381044 177.185805 Q 270.905688 177.1351 270.893012 177.659047 Q 270.850759 179.596384 271.110619 181.170338 Z M 273.557114 151.905356 C 272.02964 152.579305 271.017661 153.671565 270.326811 155.188477 C 270.297234 155.25397 270.280332 155.325802 270.280332 155.397633 Q 270.269769 166.943484 270.299346 169.271668 Q 270.30991 170.15266 270.485263 173.505499 C 270.523292 174.255504 270.749349 174.986494 271.493016 175.176637 Q 273.876131 175.785091 276.280372 174.836493 C 278.333906 174.025221 279.82124 172.089996 280.674767 170.112519 C 281.606463 167.951237 281.990973 165.920942 282.339567 163.601208 Q 282.544498 162.238523 282.538159 160.8695 Q 282.533934 160.25682 282.531821 158.000467 Q 282.531821 157.246237 282.386046 156.574401 Q 282.157875 155.520169 282.033227 155.186364 Q 281.095192 152.655361 278.783909 151.721552 Q 277.562775 151.227183 276.15361 151.282113 Q 274.852193 151.332817 273.557114 151.905356 Z M 232.592056 188.359822 C 232.480083 188.309117 232.351209 188.36616 232.313181 188.482358 Q 231.700501 190.352089 231.825149 192.048579 C 231.831487 192.118297 231.85684 192.185904 231.899093 192.240833 Q 232.615295 193.153516 233.595583 193.592955 Q 234.774464 194.125353 236.103346 194.412679 Q 238.551954 194.947189 240.489291 195.092965 Q 240.569573 195.099303 241.080844 195.213388 C 241.184366 195.236628 241.29 195.249304 241.397748 195.249304 Q 242.517473 195.242966 243.368887 195.329586 C 245.420309 195.53663 247.171729 195.515503 249.742873 195.621137 C 252.011902 195.716208 254.895724 195.502827 257.073907 195.462686 C 258.014054 195.445784 258.802088 195.253529 259.80139 195.268318 Q 260.43731 195.278882 261.838023 195.0655 Q 262.315491 194.991556 264.282405 194.740146 Q 265.495089 194.585919 267.719752 193.850703 Q 269.057085 193.411264 269.739484 192.566188 Q 270.324699 191.839422 269.9254 190.791528 C 269.887372 190.694344 269.868358 190.592935 269.868358 190.491526 Q 269.868358 189.650676 269.502862 188.72743 C 269.447932 188.590105 269.300044 188.514048 269.156381 188.554189 Q 269.035958 188.58588 268.938774 188.693627 Q 268.575391 189.090813 268.17398 189.357012 Q 267.212706 189.990819 265.987346 190.449272 C 265.480301 190.639414 264.808465 190.747162 264.263391 190.947867 C 264.166207 190.983783 264.064798 191.007023 263.961277 191.013361 Q 262.845776 191.085192 261.698586 191.387307 C 261.66267 191.39787 261.624641 191.404208 261.586613 191.406321 C 259.539416 191.518294 257.232359 191.862662 255.13657 191.877451 Q 251.32739 191.904916 247.714691 191.871113 Q 246.495668 191.860549 244.989321 191.712661 Q 242.515361 191.471814 242.26395 191.463364 C 241.036478 191.423222 240.022386 191.17815 238.94914 191.061952 Q 238.201248 190.98167 237.679413 190.84012 Q 236.612505 190.550681 236.428701 190.493639 Q 234.47235 189.895748 233.105439 188.693627 Q 232.860367 188.480245 232.592056 188.359822 Z" style="fill:#171519;"/>
		<path d="M 271.007098 86.521827 L 271.100056 96.23175 Q 270.884562 91.378901 271.007098 86.521827 Z" style="fill:#ffc723;"/>
		<path d="M 277.11911 60.356162 Q 277.057842 60.309683 277.030377 60.140667 Q 277.108546 60.108977 277.152913 60.125879 Q 277.23742 60.155456 277.209955 60.239964 Q 277.178265 60.33926 277.11911 60.356162 Z" style="fill:#ffc723;"/>
		<path d="M 272.118373 65.225912 Q 272.135274 65.401265 272.363445 65.390702 Q 272.238796 65.515351 272.112034 65.553379 C 272.048654 65.572393 271.985273 65.521689 271.989498 65.456195 Q 271.995836 65.348448 272.118373 65.225912 Z" style="fill:#ffc723;"/>
		<path d="M 269.118353 69.821013 L 268.845816 69.698477 Q 269.00638 69.586504 269.105677 69.628758 Q 269.164832 69.65411 269.164832 69.717491 Q 269.162719 69.768196 269.118353 69.821013 Z" style="fill:#ffc723;"/>
		<path d="M 270.489489 70.116789 Q 270.398643 70.169607 270.280332 70.173832 Q 270.307797 70.06186 270.385967 70.042845 Q 270.464136 70.025944 270.489489 70.116789 Z" style="fill:#ffc723;"/>
		<path d="M 276.711361 75.32457 Q 276.823333 75.271753 276.836009 75.147104 Q 277.038827 75.231612 276.966996 75.373162 Q 276.92263 75.464008 276.823333 75.43443 Q 276.745164 75.411191 276.711361 75.32457 Z" style="fill:#ffc723;"/>
		<path d="M 208.7588 113.661443 Q 208.779927 113.864261 208.959506 113.822007 Q 209.01021 113.883275 208.898238 113.969895 Q 208.801054 114.043839 208.724997 113.948768 Q 208.577109 113.771302 208.7588 113.661443 Z" style="fill:#ffc723;"/>
		<path d="M 237.400538 119.703736 C 237.400538 120.39036 236.844901 120.945998 236.158276 120.945998 C 235.471652 120.945998 234.916015 120.39036 234.916015 119.703736 C 234.916015 119.017112 235.471652 118.461474 236.158276 118.461474 C 236.844901 118.461474 237.400538 119.017112 237.400538 119.703736 Z" style="fill:#ffc723;"/>
		<path d="M 254.016845 119.684722 C 254.016845 120.367121 253.46332 120.920645 252.780921 120.920645 C 252.098522 120.920645 251.544998 120.367121 251.544998 119.684722 C 251.544998 119.002323 252.098522 118.448798 252.780921 118.448798 C 253.46332 118.448798 254.016845 119.002323 254.016845 119.684722 Z" style="fill:#ffc723;"/>
		<path d="M 232.908959 150.713799 C 233.593471 150.665207 234.096291 150.629292 234.732211 150.310276 C 236.441377 149.450411 237.242086 147.990542 238.082937 146.315179 C 238.285755 145.909542 238.822378 145.641231 239.215339 145.867289 Q 239.384354 145.964472 239.67168 146.486307 C 240.434361 147.874344 241.188591 149.078577 242.388599 150.039851 C 246.056229 152.974378 250.059776 150.901829 251.969648 147.221523 Q 252.275988 146.632082 252.698526 145.569399 Q 252.922471 145.005311 253.473883 144.960945 C 256.034464 144.751788 258.299267 144.49404 260.754213 143.733472 Q 261.077455 143.634175 261.491542 144.018685 C 263.181694 145.586301 264.846494 146.849689 267.079607 147.375749 C 267.402848 147.451806 268.026092 147.487722 268.389475 147.568004 C 268.457081 147.582793 268.507785 147.637723 268.518349 147.705329 Q 268.564828 148.02857 268.564828 148.4997 Q 268.556377 165.371642 268.640885 184.423881 C 268.647223 185.852059 268.725392 186.861925 267.533835 187.654184 C 265.850021 188.776022 263.405639 189.187996 261.400696 189.388702 Q 251.407673 190.388004 241.277324 189.5049 C 238.539278 189.266166 235.957571 188.896445 233.817416 187.347843 C 232.847691 186.64643 232.892058 185.778115 232.89417 184.53374 C 232.913185 177.443553 233.029383 162.747681 232.742057 150.895491 C 232.739944 150.80042 232.813888 150.720137 232.908959 150.713799 Z M 235.723062 185.97882 C 236.870253 187.121786 239.048436 187.464041 240.265346 186.268259 Q 241.245634 185.30276 241.471692 183.836553 Q 241.640707 182.740067 241.640707 182.566826 Q 241.621693 169.554769 241.65127 157.440604 C 241.657608 155.228618 241.568875 152.393388 239.185761 151.360282 C 236.747717 150.30605 234.83362 152.342683 234.630802 154.643403 Q 234.569534 155.344816 234.563195 155.750452 Q 234.436434 166.57165 234.392068 182.632319 Q 234.38573 184.647826 235.723062 185.97882 Z M 259.237302 186.849249 C 260.342239 187.584465 261.960559 187.472492 263.118313 186.840798 Q 265.254243 185.674593 265.478188 183.215422 Q 265.598611 181.890765 265.598611 181.789356 Q 265.564808 163.206135 265.596499 157.33497 C 265.607062 155.055377 265.44861 152.47367 263.006341 151.46803 Q 261.130272 150.694785 259.414768 152.08071 C 257.944335 153.268042 257.513347 154.92439 257.500671 156.648345 Q 257.454191 162.515286 257.337993 181.261184 C 257.323205 183.445705 257.342219 185.58586 259.237302 186.849249 Z M 249.32456 187.80841 C 250.678795 187.810523 251.870352 187.377421 252.656272 186.306287 C 253.767547 184.791489 253.702054 182.890068 253.706279 181.049915 Q 253.752759 164.75685 253.687265 157.08356 C 253.672476 155.264534 253.319657 153.411704 251.904155 152.22226 Q 250.849923 151.337043 249.375265 151.33493 Q 247.898495 151.332817 246.84215 152.215922 C 245.424535 153.401141 245.065377 155.251857 245.046363 157.070883 Q 244.959743 164.744173 244.961856 181.037239 C 244.959743 182.877392 244.890024 184.778812 245.997074 186.295724 C 246.780882 187.371083 247.970326 187.806297 249.32456 187.80841 Z" style="fill:#ffc723;"/>
		<path d="M 243.666777 97.440209 Q 244.338612 97.435984 244.554106 97.484575 C 247.885818 98.243031 248.813289 100.993753 248.834416 104.059267 C 248.857656 107.12478 247.970326 109.886066 244.649177 110.693113 Q 244.435796 110.74593 243.76396 110.750156 Q 243.090012 110.756494 242.874518 110.705789 C 239.544918 109.947334 238.617448 107.198724 238.594208 104.133211 C 238.570968 101.067698 239.458298 98.304299 242.779447 97.497252 Q 242.992828 97.446547 243.666777 97.440209 Z" style="fill:#171519;"/>
		<path d="M 235.723062 185.97882 Q 234.38573 184.647826 234.392068 182.632319 Q 234.436434 166.57165 234.563195 155.750452 Q 234.569534 155.344816 234.630802 154.643403 C 234.83362 152.342683 236.747717 150.30605 239.185761 151.360282 C 241.568875 152.393388 241.657608 155.228618 241.65127 157.440604 Q 241.621693 169.554769 241.640707 182.566826 Q 241.640707 182.740067 241.471692 183.836553 Q 241.245634 185.30276 240.265346 186.268259 C 239.048436 187.464041 236.870253 187.121786 235.723062 185.97882 Z M 237.635047 185.290083 C 238.67449 185.349239 239.008295 184.586558 239.124493 183.66965 Q 239.249142 182.691475 239.253367 180.521742 Q 239.31041 157.045531 239.251255 155.712424 C 239.211113 154.812418 238.879421 153.496212 237.947725 153.202548 C 236.847013 152.85818 236.056867 153.878609 235.921655 154.839883 Q 235.83926 155.431436 235.824471 156.648345 Q 235.701935 167.114612 235.67447 180.891463 C 235.670245 182.35767 235.429398 185.161209 237.635047 185.290083 Z" style="fill:#171519;"/>
		<path d="M 259.237302 186.849249 C 257.342219 185.58586 257.323205 183.445705 257.337993 181.261184 Q 257.454191 162.515286 257.500671 156.648345 C 257.513347 154.92439 257.944335 153.268042 259.414768 152.08071 Q 261.130272 150.694785 263.006341 151.46803 C 265.44861 152.47367 265.607062 155.055377 265.596499 157.33497 Q 265.564808 163.206135 265.598611 181.789356 Q 265.598611 181.890765 265.478188 183.215422 Q 265.254243 185.674593 263.118313 186.840798 C 261.960559 187.472492 260.342239 187.584465 259.237302 186.849249 Z M 262.05563 153.390578 C 261.273935 152.875081 260.147871 153.475085 259.72322 154.144808 C 259.135893 155.076504 259.163358 156.042003 259.159132 157.163842 Q 259.106315 176.13791 259.104202 183.268239 C 259.10209 184.254865 259.689417 185.484451 260.781678 185.64079 C 262.733804 185.919665 263.114088 184.001343 263.10775 182.533023 Q 263.067609 172.998453 263.071834 155.961721 C 263.071834 154.928616 262.923946 153.965229 262.05563 153.390578 Z" style="fill:#171519;"/>
		<path d="M 249.375265 151.33493 Q 250.849923 151.337043 251.904155 152.22226 C 253.319657 153.411704 253.672476 155.264534 253.687265 157.08356 Q 253.752759 164.75685 253.706279 181.049915 C 253.702054 182.890068 253.767547 184.791489 252.656272 186.306287 C 251.870352 187.377421 250.678795 187.810523 249.32456 187.80841 C 247.970326 187.806297 246.780882 187.371083 245.997074 186.295724 C 244.890024 184.778812 244.959743 182.877392 244.961856 181.037239 Q 244.959743 164.744173 245.046363 157.070883 C 245.065377 155.251857 245.424535 153.401141 246.84215 152.215922 Q 247.898495 151.332817 249.375265 151.33493 Z M 246.675247 169.780826 Q 246.662571 180.061176 246.698487 183.217535 Q 246.719614 184.968955 247.746381 185.759101 C 249.047798 186.758403 250.833021 186.154174 251.061192 184.442895 Q 251.15415 183.754158 251.156263 183.373874 Q 251.177389 176.497068 251.18584 169.785052 Q 251.192178 163.073036 251.187953 156.19623 Q 251.18584 155.815946 251.094995 155.127209 C 250.871049 153.41593 249.087939 152.807475 247.782297 153.802552 Q 246.755529 154.590585 246.730177 156.344118 Q 246.685811 159.500477 246.675247 169.780826 Z" style="fill:#171519;"/>
		<path d="M 239.124493 183.66965 C 239.008295 184.586558 238.67449 185.349239 237.635047 185.290083 C 235.429398 185.161209 235.670245 182.35767 235.67447 180.891463 Q 235.701935 167.114612 235.824471 156.648345 Q 235.83926 155.431436 235.921655 154.839883 C 236.056867 153.878609 236.847013 152.85818 237.947725 153.202548 C 238.879421 153.496212 239.211113 154.812418 239.251255 155.712424 Q 239.31041 157.045531 239.253367 180.521742 Q 239.249142 182.691475 239.124493 183.66965 Z" style="fill:#ffc723;"/>
		<path d="M 262.05563 153.390578 C 262.923946 153.965229 263.071834 154.928616 263.071834 155.961721 Q 263.067609 172.998453 263.10775 182.533023 C 263.114088 184.001343 262.733804 185.919665 260.781678 185.64079 C 259.689417 185.484451 259.10209 184.254865 259.104202 183.268239 Q 259.106315 176.13791 259.159132 157.163842 C 259.163358 156.042003 259.135893 155.076504 259.72322 154.144808 C 260.147871 153.475085 261.273935 152.875081 262.05563 153.390578 Z" style="fill:#ffc723;"/>
		<path d="M 251.18584 169.785052 Q 251.177389 176.497068 251.156263 183.373874 Q 251.15415 183.754158 251.061192 184.442895 C 250.833021 186.154174 249.047798 186.758403 247.746381 185.759101 Q 246.719614 184.968955 246.698487 183.217535 Q 246.662571 180.061176 246.675247 169.780826 Q 246.685811 159.500477 246.730177 156.344118 Q 246.755529 154.590585 247.782297 153.802552 C 249.087939 152.807475 250.871049 153.41593 251.094995 155.127209 Q 251.18584 155.815946 251.187953 156.19623 Q 251.192178 163.073036 251.18584 169.785052 Z" style="fill:#ffc723;"/>
	</g>
	<g id="surface4">
	</g>
</svg>
