<?xml version="1.0" encoding="utf-8"?>
<svg xmlns="http://www.w3.org/2000/svg" width="490pt" height="280pt" viewBox="0 0 490 280" version="1.1" xmlns:xlink="http://www.w3.org/1999/xlink">
	<g id="surface2" data-size="205.86472678185 148" data-bboxpos="142 53.114296093879" data-pivot="244.93236339093 127.11429609388" data-center="244.93236339093 127.11429609388">
		<path d="M 190.016286 118.920368 C 188.799741 117.657581 187.579639 116.593993 186.76861 114.762062 Q 185.057621 110.906114 186.487595 106.37075 Q 187.736154 102.422316 190.187029 99.028796 C 190.443144 98.673082 190.923359 98.566367 191.311088 98.772682 Q 192.662804 99.49834 193.968277 100.512127 Q 195.796651 101.934986 196.415595 102.50413 Q 200.072343 105.862078 201.324459 110.568185 C 201.761989 112.211587 201.096802 114.235604 200.371144 115.964378 C 200.257315 116.231164 200.470744 116.519293 200.758873 116.490836 Q 201.157273 116.451707 203.753992 116.209821 Q 204.145278 116.17425 205.802909 116.601108 C 205.916738 116.629565 206.019895 116.679365 206.112381 116.750508 Q 208.015455 118.216053 206.990996 120.304099 C 206.94831 120.393028 206.894953 120.474842 206.834482 120.549542 Q 205.774452 121.830115 203.220419 122.989746 Q 200.982973 124.003533 200.733973 126.742537 Q 200.449401 129.879941 201.167945 132.682974 Q 201.89716 135.535807 203.654391 138.136082 C 207.28624 143.51449 213.216005 146.740823 219.732701 146.811966 Q 226.267182 146.886666 231.421489 143.016489 C 235.096023 140.256142 237.799455 135.838164 238.980429 131.384615 Q 239.151172 130.744328 239.606487 128.062239 Q 239.862601 126.557565 239.862601 124.693619 C 239.866158 121.332115 239.930187 119.838112 239.666958 117.230723 Q 239.485544 115.448592 239.492658 113.677132 Q 239.496215 113.047517 238.927071 112.371659 C 237.849256 111.087528 236.885268 109.646883 236.654054 107.903881 Q 236.579354 107.334737 236.959969 105.268034 C 237.489984 102.383187 236.590025 99.469883 235.68651 96.837593 C 235.060451 95.009219 235.031994 93.458302 235.746981 91.857586 Q 240.040459 82.246172 241.541575 78.845538 Q 241.84749 78.155452 242.12139 77.241265 C 242.306362 76.608092 242.654963 75.765048 242.662077 75.028718 C 242.686977 71.532042 240.492217 69.853068 237.977313 67.548036 Q 236.643382 66.327934 236.298339 64.204317 C 235.636709 60.113597 238.322356 58.441737 241.260561 56.399934 C 242.409519 55.599576 243.120949 54.77076 244.273465 53.575559 C 244.77858 53.049101 245.180538 52.8997 245.692767 53.493744 Q 247.549598 55.642262 250.526931 57.72675 Q 251.718576 58.559123 253.045392 60.223868 C 253.120092 60.319911 253.184121 60.423069 253.233921 60.53334 Q 254.144551 62.571586 253.64655 64.841046 C 252.863977 68.373294 248.413985 69.40131 247.713227 72.91933 Q 247.51047 73.947345 247.713227 76.227477 C 247.723899 76.376878 247.755913 76.522721 247.80927 76.661449 C 249.701673 81.769514 251.978248 86.73885 254.205022 91.754429 Q 254.799066 93.091916 254.848866 93.981203 Q 254.923566 95.375605 254.585637 96.289792 Q 253.226807 99.960769 252.963578 102.998574 Q 252.856863 104.197332 253.301507 105.741135 Q 253.529164 106.541493 253.315735 108.768268 C 253.301507 108.921225 253.258821 109.070625 253.191235 109.212911 Q 252.51182 110.632213 251.163661 112.513945 C 250.807946 113.011945 250.647874 113.549075 250.608746 114.217818 Q 250.274374 119.599783 250.189002 121.488629 Q 249.875973 128.595811 252.049391 134.18409 Q 253.52205 137.968896 256.609654 141.084958 Q 260.842661 145.357093 266.334897 146.466923 Q 271.805791 147.576753 277.358499 145.563407 Q 283.672437 143.279718 287.307842 137.143638 Q 290.438132 131.857716 289.502602 125.881707 Q 289.210916 124.017761 287.603085 123.213846 Q 285.660882 122.246302 284.547495 121.211172 Q 282.562606 119.368569 284.170437 117.18448 C 285.02771 116.017735 288.567072 116.37345 290.039732 116.537079 C 290.377661 116.576208 290.648004 116.259621 290.555518 115.932364 Q 290.502161 115.740278 290.185575 114.548633 Q 289.374545 111.493043 290.61599 108.654439 C 292.341206 104.695333 295.204711 101.967001 299.007302 99.52324 C 300.042432 98.858053 300.821447 98.182195 301.596906 99.42364 Q 304.218524 103.617517 305.235868 108.220467 Q 305.367483 108.818068 305.328354 110.977257 Q 305.303454 112.499716 304.83391 113.662903 Q 303.606694 116.718494 301.226962 118.756739 C 300.985076 118.963054 301.063333 119.35434 301.365691 119.450383 Q 302.998422 119.980398 304.506653 120.784314 Q 305.66984 121.403258 306.559127 122.505973 C 306.640942 122.602016 306.70497 122.712288 306.75477 122.829674 Q 307.757886 125.195177 305.310568 126.461522 C 305.285668 126.475751 305.257211 126.482865 305.228754 126.482865 L 299.505303 126.482865 C 299.284759 126.482865 299.071331 126.554008 298.89703 126.68918 Q 297.303428 127.912838 296.396355 129.737655 Q 294.059309 134.440205 294.767181 139.363298 C 295.332768 143.297504 296.97617 146.566523 299.829003 149.305527 Q 304.826796 154.100562 311.802363 153.880019 Q 313.556037 153.826662 315.804155 153.278861 C 320.951348 152.030302 326.169684 147.149895 327.795301 142.034716 C 327.852215 141.853302 327.870001 141.664773 327.845101 141.476244 Q 327.731272 140.579843 327.290186 139.708341 C 325.849541 136.855509 324.195467 133.938647 324.547625 131.014672 Q 324.682797 129.911956 325.689469 128.844811 C 326.781514 127.692295 329.648575 127.197852 331.099892 127.126709 C 331.274192 127.116037 331.444935 127.080466 331.608564 127.016437 C 332.928266 126.514879 333.910039 126.290779 334.329782 124.953291 Q 334.973626 122.893703 334.802883 122.079116 Q 334.539654 120.805657 334.411596 119.788312 C 334.393811 119.638912 334.361796 119.493069 334.315553 119.347226 Q 333.653924 117.216494 333.454724 115.377449 Q 333.102566 112.176016 335.713513 110.902557 Q 337.865587 109.853198 339.185289 109.582855 Q 340.89272 109.234254 342.070136 108.882096 C 342.308465 108.814511 342.553908 108.768268 342.799352 108.746925 Q 343.87361 108.66511 345.76957 108.362753 Q 346.772686 108.199124 347.569487 108.686453 C 347.822045 108.839411 347.928759 109.148883 347.829159 109.422783 Q 347.206658 111.0982 346.577043 112.453473 Q 345.42097 114.932805 345.239555 115.466377 Q 344.841154 116.643793 344.030125 118.315653 Q 343.670853 119.048426 342.799352 121.164929 Q 341.57925 124.128033 340.177733 127.368595 Q 337.620144 133.269903 335.016312 139.583841 Q 334.308439 141.301944 333.849567 142.301502 Q 333.230623 143.656776 332.718394 145.026278 C 332.195493 146.438466 331.533864 147.701253 330.911363 149.234384 Q 328.812645 154.381577 328.005173 155.914708 Q 327.258172 157.337567 325.468926 158.379812 Q 322.27105 160.2402 318.923774 161.065458 Q 316.216784 161.734202 313.851281 161.993874 C 311.13362 162.289117 308.138501 161.816017 305.39594 161.10103 Q 303.172722 160.517657 300.963733 159.422056 Q 293.333651 155.63725 289.210916 148.056968 C 289.022387 147.711925 288.556401 147.647896 288.282501 147.925353 C 284.72891 151.507401 280.485232 153.833776 275.619054 155.096564 Q 273.854708 155.555436 272.275334 155.701279 Q 268.636372 156.042765 264.872909 155.640808 C 263.691936 155.516307 262.155248 155.085892 261.312204 154.872464 Q 259.352215 154.37802 256.30374 152.795089 C 251.604747 150.354886 248.03337 146.683909 245.511352 142.187674 C 245.326381 141.860416 244.860394 141.856859 244.671865 142.177002 Q 243.690093 143.823962 242.676305 145.211249 Q 238.286785 151.215715 231.439275 153.947605 C 230.734959 154.22862 230.016416 154.363791 229.265857 154.730178 C 229.127129 154.797763 228.977728 154.836892 228.824771 154.854678 C 227.633126 154.986292 226.217381 155.548322 224.883451 155.651479 Q 219.615315 156.046322 216.381867 155.455836 Q 208.74467 154.061434 202.441404 148.608326 C 202.327575 148.508726 202.235089 148.384225 202.178175 148.24194 Q 201.914946 147.601653 201.135931 147.80441 C 201.025659 147.832868 200.933173 147.907568 200.879816 148.010725 Q 198.660156 152.236617 195.017636 155.352679 C 193.854448 156.34868 193.306648 156.853795 192.235946 157.53321 Q 189.653457 159.165941 186.99271 160.261543 C 186.085637 160.631486 185.256822 160.752429 184.221692 161.17573 C 184.08652 161.229087 183.947791 161.268216 183.805505 161.293116 Q 182.005588 161.570573 179.967343 161.944074 Q 178.167426 162.278446 175.026464 161.855145 Q 170.252771 161.214858 164.956178 158.611026 Q 162.071331 157.191724 160.797872 154.072105 Q 152.872546 134.64652 142.094387 109.735812 Q 141.760015 108.960354 142.610174 108.476582 C 142.688431 108.433896 142.773803 108.405439 142.859174 108.401881 Q 144.520362 108.302281 144.879634 108.359196 Q 149.158883 109.035054 150.549728 109.444126 Q 153.331418 110.269384 154.387891 110.966585 Q 155.917465 111.980372 156.458151 113.488603 Q 156.79608 114.42769 156.468823 115.964378 Q 155.61155 119.998184 155.351878 120.944385 C 155.234492 121.367686 155.177578 121.808772 155.181135 122.246302 Q 155.188249 123.88259 155.191806 123.896818 Q 155.61155 126.059564 157.63201 126.781665 C 158.51774 127.098252 160.250071 127.094694 161.502187 127.471752 Q 162.644032 127.813238 162.772089 127.884381 Q 164.675163 128.90884 165.073564 130.349485 Q 165.354578 131.377501 165.084235 133.977776 C 165.059335 134.212548 164.995306 134.443762 164.895706 134.660748 L 162.416374 140.039156 C 162.391474 140.092513 162.370131 140.145871 162.352345 140.202785 L 162.167374 140.839514 C 161.975288 141.479801 162.025088 142.169888 162.306102 142.77816 C 165.436393 149.590099 172.031345 154.292648 179.650756 153.830219 Q 182.183446 153.677262 185.100307 152.570989 C 190.567644 150.493614 194.530307 144.940906 195.330665 139.349069 Q 195.419594 138.733683 195.423151 136.51758 Q 195.423151 134.923977 195.152808 133.707433 Q 194.544535 130.971986 193.221276 128.738097 C 192.751733 127.94841 191.898017 126.998651 191.311088 126.625151 Q 190.713487 126.248093 189.6997 126.294336 Q 187.825083 126.383265 185.904223 126.27655 Q 184.488478 126.198293 183.794834 125.045777 C 183.720134 124.91772 183.673891 124.778991 183.659662 124.633148 Q 183.471133 122.388588 185.310179 121.1507 Q 187.334196 119.781198 189.930914 119.208497 C 190.062529 119.18004 190.108772 119.016411 190.016286 118.920368 Z" style="fill:#072851;"/>
		<path d="M 253.155664 169.118841 C 253.326407 169.727114 253.710579 170.523915 253.731922 171.132187 Q 253.831522 173.83562 251.466018 175.262036 Q 251.224132 175.404322 249.63053 176.115752 C 249.516701 176.165552 249.395758 176.197566 249.274815 176.215352 Q 245.717667 176.699124 244.657637 176.578181 Q 242.473548 176.329181 241.463318 176.218909 C 241.289018 176.201123 241.118275 176.158437 240.954646 176.090852 C 239.912401 175.671108 239.268558 175.514594 238.493099 174.941893 Q 235.750538 172.917876 236.999097 169.35717 C 237.112926 169.03347 236.860368 168.699098 236.518882 168.713327 L 213.244463 169.641742 C 212.803376 169.659528 212.53659 170.136186 212.757133 170.520358 L 213.443663 171.722674 C 213.461449 171.747574 213.47212 171.776031 213.479234 171.808045 C 214.169321 174.536378 213.109291 175.802723 210.999902 177.478139 C 210.718887 177.698683 210.163972 177.698683 209.815372 177.972583 C 209.253342 178.413669 208.549027 178.399441 207.901626 178.669784 Q 207.079925 179.01127 206.802467 179.043285 Q 203.270219 179.445242 200.933173 179.046842 Q 199.022985 178.726698 197.486297 177.211353 Q 195.519194 175.276265 196.476067 172.729347 Q 196.57211 172.473232 196.454724 171.747574 C 196.429824 171.598174 196.262638 171.519916 196.131023 171.594616 L 195.604565 171.896974 C 195.501408 171.957446 195.380465 171.98946 195.259522 171.985903 Q 193.456048 171.957446 191.047859 172.579947 C 190.841544 172.633304 190.631672 172.665318 190.414686 172.683104 Q 189.070084 172.786261 187.298625 173.312719 C 187.152782 173.355405 187.006939 173.380305 186.857538 173.390976 Q 185.19635 173.497691 183.570733 173.988577 C 183.396433 174.041934 183.222133 174.073949 183.044276 174.088177 Q 181.777931 174.202006 180.383529 174.700007 C 180.180771 174.774707 179.967343 174.817393 179.753914 174.828064 Q 178.736569 174.888536 177.726339 175.205122 C 177.317267 175.333179 177.125181 175.799165 177.317267 176.17978 Q 177.701439 176.94101 177.843725 177.271825 Q 178.786369 179.448799 177.729896 181.234488 Q 177.157196 182.205589 175.798365 183.048633 C 175.175864 183.436362 174.350606 183.607105 173.603605 184.019735 C 173.539576 184.058863 173.464876 184.076649 173.390176 184.080206 L 171.017558 184.176249 C 170.658286 184.190478 170.331028 183.96282 170.2172 183.621334 Q 168.150497 177.431896 165.254978 170.185986 C 165.119807 169.851614 165.233635 169.474556 165.521764 169.286027 Q 165.735193 169.143741 166.318565 169.214884 C 167.680953 169.389185 168.662726 169.620399 169.872156 169.428313 Q 171.771673 169.129513 172.956204 168.798698 Q 175.133178 168.19754 175.172307 168.186869 Q 176.744566 167.795582 178.29904 167.397182 Q 179.522699 167.084153 180.198557 166.991667 C 181.073616 166.870724 181.788602 166.543466 182.713461 166.37628 Q 185.484479 165.87828 187.793068 165.376722 Q 189.813528 164.939193 191.00873 164.818249 C 191.193702 164.800464 191.375116 164.764892 191.552974 164.718649 Q 192.926033 164.345149 194.782864 164.099706 Q 196.931382 163.815134 196.94561 163.808019 Q 197.795769 163.541233 199.069228 163.47009 C 200.879816 163.366933 203.05679 162.819132 204.863822 162.733761 C 206.72421 162.648389 209.157299 162.153946 211.220445 162.029445 Q 214.393421 161.833802 217.797612 161.392716 C 218.804285 161.261101 220.750045 161.438959 221.714032 161.246873 Q 221.763832 161.236201 227.352112 160.830687 C 232.769648 160.4394 237.418841 160.5888 243.661635 160.442957 C 247.75947 160.350472 251.277489 160.581686 255.855539 160.6137 Q 260.035188 160.642158 263.517636 160.92673 C 266.807998 161.197073 270.713746 161.321573 273.737322 161.584802 Q 292.035292 163.167733 309.490217 167.027238 Q 313.50268 167.912968 317.411986 168.965884 Q 318.507588 169.25757 319.695675 169.428313 C 321.164777 169.641742 322.44535 169.118841 323.804181 169.147299 C 324.174124 169.154413 324.472925 169.456771 324.480039 169.826714 Q 324.480039 169.890743 324.323525 170.303372 Q 321.929564 176.59241 320.584962 180.153115 Q 319.998033 181.714703 319.379089 183.58932 C 319.229689 184.041078 318.795716 184.336321 318.322616 184.311421 C 315.291926 184.158463 310.319033 182.212703 311.325706 178.164669 Q 311.613835 177.01571 312.101164 176.226023 C 312.31815 175.870308 312.161635 175.407879 311.773906 175.258479 Q 310.777905 174.874307 310.32259 174.842293 C 309.177188 174.760478 308.287901 174.33362 307.153171 174.177106 C 305.59514 173.963677 304.289667 173.455005 302.809893 173.373191 C 302.532436 173.358962 302.254978 173.309162 301.988192 173.227347 Q 300.728962 172.839618 299.576446 172.72579 C 298.584001 172.629747 298.061101 172.462561 296.897913 172.242017 C 295.724054 172.01436 294.621338 172.046374 293.564865 171.608845 C 293.294522 171.495016 292.988607 171.651531 292.913907 171.93966 Q 292.83565 172.23846 292.999279 172.579947 C 294.055752 174.781821 292.871222 176.79161 290.996605 178.143326 Q 290.704918 178.353198 288.986816 179.01127 C 288.890773 179.046842 288.79473 179.071742 288.691573 179.082413 Q 285.728468 179.423899 282.719121 179.068185 C 282.551935 179.046842 282.388306 179.007713 282.228235 178.947242 Q 281.189547 178.552398 280.759132 178.417226 Q 278.671087 177.762711 277.26957 176.421666 Q 275.09971 174.344292 276.294912 171.630188 C 276.508341 171.146416 276.87117 170.95433 276.952984 170.285586 C 276.988556 170.004571 276.778684 169.752014 276.494112 169.737785 L 253.543393 168.635069 C 253.283721 168.624398 253.088078 168.866284 253.155664 169.118841 Z" style="fill:#072851;"/>
		<path d="M 244.82838 179.320742 C 249.168101 179.320742 253.450907 179.349199 257.705256 179.544842 Q 264.125908 179.840086 264.705723 179.850757 Q 268.3269 179.925457 271.695519 180.284729 Q 274.16418 180.547958 275.017895 180.547958 C 277.561256 180.544401 280.133074 181.099316 282.455892 181.241602 Q 284.657767 181.376774 286.194455 181.654231 C 287.901886 181.963703 289.538174 181.928132 291.174462 182.130889 Q 299.80766 183.201591 306.964642 184.635121 C 309.347931 185.108222 312.353721 185.894352 314.477339 186.42081 Q 316.597399 186.947267 318.511145 187.687154 C 318.998474 187.87924 319.382646 188.263412 319.571175 188.747184 Q 319.905547 189.604457 320.261261 191.92016 Q 320.321733 192.311447 320.318176 192.318561 C 320.094076 192.692062 319.620975 192.827233 319.229689 192.635147 Q 318.322616 192.183389 317.586286 191.998418 C 316.536927 191.731632 315.885969 191.279874 314.875739 191.187388 C 314.712111 191.169602 314.548482 191.126916 314.399082 191.059331 Q 313.413752 190.600459 312.809036 190.554216 C 311.638735 190.458173 310.763676 189.825 309.493774 189.764529 C 309.36216 189.757414 309.230545 189.728957 309.109602 189.679157 Q 307.747215 189.124242 306.395498 189.056656 C 306.203412 189.045985 306.014884 189.006856 305.833469 188.942828 Q 304.325238 188.39147 302.849022 188.330998 C 302.68895 188.323884 302.528878 188.295427 302.372364 188.249184 Q 300.558218 187.712054 298.82233 187.616011 C 298.658701 187.608897 298.49863 187.583997 298.338558 187.537754 Q 296.307427 186.982839 294.393681 186.911696 C 294.230052 186.904582 294.066423 186.883239 293.906352 186.847667 Q 292.017506 186.410138 290.562632 186.306981 C 288.328743 186.143352 286.539498 185.730723 284.14198 185.556423 Q 282.768921 185.456822 281.043704 185.229165 Q 278.091271 184.841436 275.562139 184.830764 C 272.613263 184.812979 268.928058 184.290078 266.189054 184.218935 C 259.014286 184.026849 251.946233 183.717377 244.82838 183.717377 C 237.70697 183.71382 230.638916 184.023292 223.467706 184.208263 C 220.725145 184.282964 217.039939 184.802307 214.091064 184.820093 Q 211.561931 184.830764 208.609499 185.214936 Q 206.884282 185.442594 205.511223 185.542194 C 203.113705 185.716494 201.324459 186.129123 199.09057 186.289195 Q 197.635697 186.392352 195.746851 186.829882 C 195.58678 186.865453 195.423151 186.886796 195.259522 186.89391 Q 193.345776 186.965053 191.314645 187.516411 C 191.15813 187.562654 190.994501 187.587554 190.830873 187.594668 Q 189.094984 187.690711 187.280839 188.227841 C 187.124324 188.274084 186.964253 188.302541 186.804181 188.309655 Q 185.327965 188.370127 183.819734 188.921485 C 183.638319 188.985513 183.44979 189.021085 183.257704 189.035313 Q 181.905988 189.102899 180.543601 189.654257 C 180.4191 189.704057 180.291043 189.732514 180.159429 189.739629 C 178.889527 189.8001 178.014468 190.433273 176.844167 190.529316 Q 176.239451 190.575558 175.254121 191.034431 C 175.101164 191.102016 174.941092 191.144702 174.777464 191.162488 C 173.767233 191.254974 173.116275 191.706732 172.066917 191.973518 Q 171.330587 192.154932 170.423514 192.60669 C 170.032228 192.802333 169.559127 192.663604 169.335027 192.290104 Q 169.33147 192.28299 169.391941 191.891703 Q 169.747656 189.576 170.082028 188.718727 C 170.270557 188.234955 170.654729 187.850783 171.142058 187.658697 Q 173.055804 186.922367 175.175864 186.39591 C 177.299481 185.869452 180.305272 185.083322 182.688561 184.613778 Q 189.8491 183.180248 198.482298 182.113103 C 200.118586 181.910346 201.754874 181.949474 203.462305 181.640003 Q 204.998993 181.362545 207.200868 181.227373 C 209.523686 181.085087 212.095504 180.53373 214.638865 180.537287 Q 215.49258 180.537287 217.961241 180.274058 Q 221.32986 179.918343 224.951037 179.843643 Q 225.530852 179.832971 231.951504 179.541285 C 236.202296 179.345642 240.488659 179.320742 244.82838 179.320742 Z" style="fill:#072851;"/>
		<path d="M 317.5934 195.548451 C 317.728572 195.790338 317.5685 196.085581 317.2946 196.110481 Q 315.153197 196.284781 313.399523 196.775668 C 313.225223 196.82191 313.047365 196.853925 312.865951 196.864596 Q 310.973548 196.985539 308.75033 197.526226 C 308.590259 197.565354 308.42663 197.586697 308.263001 197.590254 Q 306.932628 197.629383 304.993982 197.985098 C 302.646264 198.415513 300.632919 198.39417 298.135801 198.74277 C 295.553311 199.098485 293.03485 199.1554 290.310075 199.447086 Q 287.741814 199.720986 287.599528 199.720986 C 285.344296 199.763672 282.591064 200.122944 281.089947 200.105158 C 279.393188 200.080258 277.682199 200.354158 276.031683 200.407516 C 263.688379 200.813031 252.291277 201.211431 240.659403 201.094045 Q 236.511768 201.054917 215.770038 200.403959 Q 215.538823 200.396844 213.866963 200.229658 C 212.163089 200.055358 210.263572 200.172744 208.915413 199.984215 Q 207.506783 199.788572 205.696194 199.770786 Q 205.280008 199.767229 202.48409 199.532457 Q 197.098568 199.080699 196.10968 198.970428 Q 194.199492 198.764113 189.742385 198.408398 Q 187.487153 198.230541 186.028723 198.027784 Q 183.496033 197.679183 182.322175 197.579583 C 181.215901 197.487097 179.305713 196.957082 177.95044 196.900168 C 177.078938 196.861039 176.42798 196.59781 175.563593 196.491096 Q 174.176306 196.32391 172.344374 196.124709 C 171.988659 196.085581 171.757445 195.740537 171.878388 195.431066 Q 172.074031 194.933065 172.63606 194.872593 Q 173.475547 194.783665 174.400406 194.47775 C 175.798365 194.011763 176.698323 193.897935 178.188768 193.439063 C 178.306154 193.403491 178.42354 193.382148 178.544483 193.375034 Q 179.586728 193.300334 180.927772 192.820119 C 181.141201 192.745419 181.361745 192.695619 181.589402 192.670719 Q 182.649432 192.571119 184.41022 192.051775 C 184.559621 192.009089 184.712578 191.980632 184.869093 191.966403 Q 186.249266 191.849017 187.960254 191.319002 C 188.088312 191.279874 188.219926 191.254974 188.35154 191.247859 Q 189.265728 191.208731 189.440028 191.148259 Q 190.813087 190.68583 193.484505 190.447501 C 193.751291 190.422601 194.018077 190.383472 194.281306 190.323001 Q 196.298209 189.853457 197.692611 189.789429 C 199.400042 189.714729 200.847802 189.177599 202.693961 189.092228 Q 205.166179 188.981956 206.84871 188.736513 Q 209.360057 188.363012 210.996345 188.34167 Q 212.48679 188.320327 215.898095 187.975283 Q 218.395213 187.722726 220.792731 187.644468 Q 230.553545 187.317211 232.172047 187.164253 Q 233.929278 186.99351 236.042224 186.982839 C 242.092933 186.94371 252.152548 186.79431 260.337545 187.260296 Q 265.004524 187.523525 268.924501 187.637354 C 272.29312 187.733397 276.337597 188.238512 279.638631 188.384355 Q 281.314048 188.459055 282.939664 188.676041 Q 285.682225 189.045985 286.222912 189.074442 C 287.898329 189.170485 289.947246 189.654257 291.860991 189.792986 C 293.216265 189.892586 294.471938 190.130915 296.510184 190.447501 C 303.197622 191.482631 309.757003 192.926833 316.704113 194.925951 Q 317.347957 195.110922 317.5934 195.548451 Z" style="fill:#072851;"/>
	</g>
	<g id="surface4">
	</g>
</svg>
