<?xml version="1.0" encoding="utf-8"?>
<svg xmlns="http://www.w3.org/2000/svg" width="490pt" height="280pt" viewBox="0 0 490 280" version="1.1" xmlns:xlink="http://www.w3.org/1999/xlink">
	<g id="surface2" data-size="147.62658180717 148" data-bboxpos="171 50.59299313116" data-pivot="244.81329090358 124.59299313116" data-center="244.81329090358 124.59299313116">
		<path vector-effect="non-scaling-stroke" d="M 283.941701 173.067451 Q 283.085108 172.389985 282.990952 172.075365 Q 282.253776 169.576777 281.624536 168.290739 Q 280.575037 166.145811 279.479608 163.941174" style="fill:none;stroke-width:0.50;stroke:#238dba;"/>
		<path vector-effect="non-scaling-stroke" d="M 279.479608 163.941174 Q 283.027695 163.842425 286.463254 163.906727 Q 287.857228 163.931988 289.026144 163.759751 C 289.251201 163.7276 289.437217 163.569142 289.503816 163.350975 Q 289.680646 162.77685 289.639309 162.124645 Q 289.39588 158.114962 288.619665 143.394419 Q 288.454317 140.271184 288.148883 137.037717" style="fill:none;stroke-width:0.50;stroke:#a3ce8e;"/>
		<path vector-effect="non-scaling-stroke" d="M 288.148883 137.037717 Q 288.757454 134.1648 289.526781 131.248249 Q 290.867935 126.15462 290.874824 126.129358 Q 293.27696 116.635641 296.283074 105.215164 Q 296.427753 104.664005 296.05572 104.195519 Q 295.51834 103.520349 294.732938 103.515756 Q 290.555611 103.490495 286.313982 103.479013" style="fill:none;stroke-width:0.50;stroke:#2383a9;"/>
		<path vector-effect="non-scaling-stroke" d="M 286.313982 103.479013 Q 285.749044 94.897005 285.360936 86.397671 C 285.315006 85.380323 284.580127 85.104744 283.663825 85.111633 Q 275.210421 85.157563 264.295173 85.136894 C 264.049448 85.136894 263.835874 84.96925 263.776165 84.730415 C 263.606224 84.043762 263.422504 83.320366 263.075733 82.647492 Q 261.672574 79.93533 261.215571 79.262456 C 260.202816 77.762844 258.39777 75.764892 256.59502 74.639609 Q 254.835904 73.541883 254.404162 73.326013 C 249.521811 70.880244 243.599146 70.749343 238.64101 73.057323 C 234.736966 74.876148 231.400156 78.146359 229.592813 82.211158 Q 228.915347 83.731439 228.580058 84.888873 C 228.534128 85.045035 228.394042 85.150673 228.230991 85.15297 Q 217.577543 85.185121 211.425229 85.178231 Q 210.490555 85.178231 210.026663 85.373434 C 209.955471 85.403288 209.891169 85.449218 209.840646 85.50663 Q 209.482393 85.899331 209.4778 86.512496 Q 209.399719 94.584681 209.181552 102.760209 Q 209.174662 102.946225 209.07132 103.155207" style="fill:none;stroke-width:0.50;stroke:#a3ce8e;"/>
		<path vector-effect="non-scaling-stroke" d="M 209.07132 103.155207 L 197.228287 103.044975 C 197.099683 103.042678 196.984859 102.962301 196.941225 102.842883 Q 195.333678 98.458871 193.149709 94.276951 C 192.55951 93.144778 191.790183 91.925338 191.089752 91.004443 C 190.263013 89.915904 188.669245 88.384141 187.300533 88.087893 Q 186.632252 87.94551 185.082117 87.915655 Q 184.324273 87.901876 176.649382 87.754901 C 176.605748 87.752604 176.566708 87.72275 176.557522 87.679116 Q 176.546039 87.617111 176.564411 87.614814" style="fill:none;stroke-width:0.50;stroke:#238dba;"/>
		<path vector-effect="non-scaling-stroke" d="M 285.886834 191.108728 Q 285.801863 191.13399 285.776602 191.138583 C 285.700817 191.152362 285.647998 191.221257 285.652591 191.299338 C 285.657184 191.377419 285.719189 191.439424 285.79727 191.444017 Q 285.882241 191.44861 285.967211 191.395791" style="fill:none;stroke-width:0.50;stroke:#238dba;"/>
		<path vector-effect="non-scaling-stroke" d="M 209.07132 103.155207 L 209.30097 104.650226" style="fill:none;stroke-width:0.50;stroke:#00406f;"/>
		<path vector-effect="non-scaling-stroke" d="M 209.30097 104.650226 L 197.963166 104.608889 C 197.832266 104.608889 197.742703 104.737493 197.786336 104.859207 L 199.122897 108.572642 C 199.152751 108.650723 199.226239 108.703542 199.31121 108.703542 L 208.901379 108.721914" style="fill:none;stroke-width:0.50;stroke:#238dba;"/>
		<path vector-effect="non-scaling-stroke" d="M 208.901379 108.721914 Q 209.066727 108.68517 209.195331 108.747176" style="fill:none;stroke-width:0.50;stroke:#808b54;"/>
		<path vector-effect="non-scaling-stroke" d="M 209.195331 108.747176 L 209.25504 110.118184" style="fill:none;stroke-width:0.50;stroke:#00406f;"/>
		<path vector-effect="non-scaling-stroke" d="M 209.25504 110.118184 Q 209.137918 110.13426 209.009315 110.104405" style="fill:none;stroke-width:0.50;stroke:#808b54;"/>
		<path vector-effect="non-scaling-stroke" d="M 209.009315 110.104405 L 199.864665 110.115888 C 199.777398 110.115888 199.715393 110.203154 199.747544 110.285828 C 201.504364 115.064838 202.703135 118.663448 204.47603 123.614694 Q 205.015707 125.121196 206.60029 129.911688 C 206.86209 130.701683 207.213454 131.542201 207.415546 132.146179 Q 207.580894 132.637629 208.028711 132.582514" style="fill:none;stroke-width:0.50;stroke:#238dba;"/>
		<path vector-effect="non-scaling-stroke" d="M 208.028711 132.582514 L 208.279029 133.719279" style="fill:none;stroke-width:0.50;stroke:#00406f;"/>
		<path vector-effect="non-scaling-stroke" d="M 208.279029 133.719279 Q 207.955223 133.760616 207.998856 133.882331 Q 208.435191 135.168369 208.857746 136.438331" style="fill:none;stroke-width:0.50;stroke:#808b54;"/>
		<path vector-effect="non-scaling-stroke" d="M 208.857746 136.438331 L 207.739352 138.608521" style="fill:none;stroke-width:0.50;stroke:#00406f;"/>
		<path vector-effect="non-scaling-stroke" d="M 207.739352 138.608521 Q 204.92844 130.352615 202.106046 122.124268 Q 199.513301 114.564201 196.592158 106.75841 C 194.635543 101.536176 192.672038 96.989113 190.014992 92.715333 Q 189.284706 91.54412 188.067562 91.571678 Q 187.109923 91.592346 176.931851 91.58316 C 176.888217 91.58316 176.84688 91.596939 176.812433 91.619904 Q 176.725166 91.679613 176.789468 91.679613" style="fill:none;stroke-width:0.50;stroke:#238dba;"/>
		<path vector-effect="non-scaling-stroke" d="M 288.148883 137.037717 C 287.73092 138.422504 287.391039 139.968046 287.05575 141.1783 Q 286.346133 143.729708 285.958025 145.456673 Q 285.523987 147.394916 285.03713 148.079272 C 283.877399 149.709785 282.522466 150.164491 280.469398 150.148416 Q 279.171878 150.13923 267.273729 150.127747 C 267.21402 150.127747 267.177276 150.192049 267.207131 150.244869 Q 267.25995 150.329839 267.342624 150.405623 C 268.378344 151.349483 269.836619 152.42654 270.897601 153.388772 Q 275.924632 157.947318 279.399231 163.81946" style="fill:none;stroke-width:0.50;stroke:#808143;"/>
		<path vector-effect="non-scaling-stroke" d="M 279.399231 163.81946 L 278.260169 162.441562 C 278.117786 162.267028 277.846799 162.278511 277.718195 162.46223 Q 277.403575 162.905454 277.219856 163.585217" style="fill:none;stroke-width:0.50;stroke:#00406f;"/>
		<path vector-effect="non-scaling-stroke" d="M 277.219856 163.585217 C 274.131068 158.558186 269.744759 154.070832 265.018569 150.667424 C 264.683281 150.428588 264.384736 150.125451 263.959884 150.125451 Q 225.445341 150.130044 214.989392 150.153009 C 212.511472 150.157602 210.903924 148.632728 210.270091 146.398237 Q 209.824571 144.825137 208.818705 141.660564" style="fill:none;stroke-width:0.50;stroke:#808143;"/>
		<path vector-effect="non-scaling-stroke" d="M 208.857746 136.438331 Q 210.3298 140.668478 211.629617 144.937665 Q 212.286415 147.094075 212.754901 147.599305 Q 213.687278 148.60517 215.434912 148.554647 Q 216.716357 148.515607 218.220562 148.536275 C 218.330794 148.538572 218.411172 148.437526 218.388207 148.32959 L 215.120292 133.774395 C 215.10881 133.721576 215.060583 133.682535 215.003171 133.682535 L 208.279029 133.719279" style="fill:none;stroke-width:0.50;stroke:#808143;"/>
		<path vector-effect="non-scaling-stroke" d="M 208.028711 132.582514 L 208.67173 132.552659" style="fill:none;stroke-width:0.50;stroke:#2383a9;"/>
		<path vector-effect="non-scaling-stroke" d="M 208.67173 132.552659 L 214.624249 132.600885 C 214.74826 132.600885 214.842416 132.488357 214.819451 132.366643 Q 214.240734 129.429424 213.636755 126.77697 Q 211.340259 116.722908 209.93021 110.510885 Q 209.810792 109.982691 209.25504 110.118184" style="fill:none;stroke-width:0.50;stroke:#808143;"/>
		<path vector-effect="non-scaling-stroke" d="M 209.195331 108.747176 L 286.626306 108.760955" style="fill:none;stroke-width:0.50;stroke:#808143;"/>
		<path vector-effect="non-scaling-stroke" d="M 286.626306 108.760955 L 293.384895 108.728804 C 293.522685 108.728804 293.642103 108.636944 293.67655 108.503747 L 294.537736 105.297838 C 294.569887 105.17842 294.48262 105.061299 294.35861 105.059002 L 286.334651 104.980921" style="fill:none;stroke-width:0.50;stroke:#2383a9;"/>
		<path vector-effect="non-scaling-stroke" d="M 286.334651 104.980921 L 209.30097 104.650226" style="fill:none;stroke-width:0.50;stroke:#808143;"/>
		<path vector-effect="non-scaling-stroke" d="M 286.313982 103.479013 L 209.07132 103.155207" style="fill:none;stroke-width:0.50;stroke:#808143;"/>
		<path vector-effect="non-scaling-stroke" d="M 279.479608 163.941174 Q 279.592137 163.991697 279.399231 163.81946" style="fill:none;stroke-width:0.50;stroke:#808b54;"/>
		<path vector-effect="non-scaling-stroke" d="M 207.739352 138.608521 L 208.818705 141.660564" style="fill:none;stroke-width:0.50;stroke:#2383a9;"/>
		<path vector-effect="non-scaling-stroke" d="M 208.818705 141.660564 Q 208.483417 142.418408 208.522457 143.293373 Q 208.609724 145.247692 208.595945 146.683002 Q 208.522457 153.724061 208.405336 161.897292 C 208.39615 162.620689 208.352517 163.706931 209.245854 163.796495 Q 210.15297 163.890651 210.910814 163.895244 Q 235.593559 164.023848 264.129825 163.945767 Q 270.697805 163.927395 277.401279 163.934285" style="fill:none;stroke-width:0.50;stroke:#a3ce8e;"/>
		<path vector-effect="non-scaling-stroke" d="M 277.401279 163.934285 Q 278.705689 166.047061 279.778153 168.580097 Q 280.391317 170.031483 280.880471 171.06261 C 280.917215 171.138394 280.846024 171.221068 280.765646 171.198103 Q 279.160395 170.74799 277.768718 170.759472 Q 275.658238 170.777844 219.809738 170.761769 C 218.190708 170.759472 216.532637 171.289963 215.248896 172.316497 Q 214.768928 172.700012 214.302739 173.090416" style="fill:none;stroke-width:0.50;stroke:#238dba;"/>
		<path vector-effect="non-scaling-stroke" d="M 277.219856 163.585217 L 277.401279 163.934285" style="fill:none;stroke-width:0.50;stroke:#808b54;"/>
		<path vector-effect="non-scaling-stroke" d="M 209.30097 104.650226 Q 209.153994 104.781126 209.147104 104.893654 Q 209.082803 106.108501 209.098878 108.168459 C 209.098878 108.218981 209.089692 108.269504 209.069024 108.317731 L 208.901379 108.721914" style="fill:none;stroke-width:0.50;stroke:#a3ce8e;"/>
		<path vector-effect="non-scaling-stroke" d="M 209.009315 110.104405 L 208.80263 131.09668 C 208.80263 131.126535 208.798037 131.154093 208.791147 131.183947 Q 208.605131 131.884379 208.67173 132.552659" style="fill:none;stroke-width:0.50;stroke:#a3ce8e;"/>
		<path vector-effect="non-scaling-stroke" d="M 286.334651 104.980921 L 286.626306 108.760955" style="fill:none;stroke-width:0.50;stroke:#a3ce8e;"/>
		<path vector-effect="non-scaling-stroke" d="M 246.306715 85.150673 Q 255.348022 85.148377 259.438083 85.123115 C 259.617209 85.123115 259.738924 84.941692 259.674622 84.774048 Q 258.806546 82.530371 257.081877 80.589831 C 254.326081 77.491857 250.543752 75.74652 246.304419 75.748817 C 242.065086 75.748817 238.282756 77.498747 235.529257 80.599017 Q 233.806885 82.539557 232.938809 84.78553 C 232.874507 84.950878 232.996221 85.132301 233.177645 85.134598 Q 237.265408 85.155266 246.306715 85.150673" style="fill:none;stroke-width:0.50;stroke:#a3ce8e;"/>
		<path vector-effect="non-scaling-stroke" d="M 224.329243 132.577921 C 224.384359 132.577921 224.427993 132.527398 224.418807 132.472282 L 221.056736 110.157225 C 221.049846 110.111295 221.010806 110.079144 220.967172 110.079144 L 211.202469 110.079144 C 211.14276 110.079144 211.099127 110.13426 211.112906 110.191672 L 216.123861 132.506729 C 216.133047 132.548066 216.169791 132.577921 216.213424 132.577921 L 224.329243 132.577921" style="fill:none;stroke-width:0.50;stroke:#808143;"/>
		<path vector-effect="non-scaling-stroke" d="M 234.192696 132.58481 C 234.302928 132.58481 234.387898 132.490654 234.378712 132.382718 L 232.327941 110.251381 C 232.318755 110.154928 232.238377 110.08144 232.141925 110.08144 L 222.439227 110.08144 C 222.326698 110.08144 222.239431 110.182486 222.255507 110.295014 L 225.592316 132.426352 C 225.606095 132.518212 225.684176 132.58481 225.776036 132.58481 L 234.192696 132.58481" style="fill:none;stroke-width:0.50;stroke:#808143;"/>
		<path vector-effect="non-scaling-stroke" d="M 246.809648 132.580217 C 246.926769 132.580217 247.020926 132.486061 247.020926 132.368939 L 247.020926 110.295014 C 247.020926 110.177893 246.926769 110.083737 246.809648 110.083737 L 233.698949 110.083737 C 233.574938 110.083737 233.476189 110.191672 233.487672 110.313386 L 235.53385 132.387311 C 235.545332 132.497543 235.634896 132.580217 235.745128 132.580217 L 246.809648 132.580217" style="fill:none;stroke-width:0.50;stroke:#808143;"/>
		<path vector-effect="non-scaling-stroke" d="M 258.161231 132.577921 C 258.237015 132.577921 258.29902 132.518212 258.303613 132.442427 L 259.385263 110.235305 C 259.389856 110.154928 259.323258 110.086033 259.242881 110.086033 L 248.31615 110.086033 C 248.238069 110.086033 248.173767 110.150335 248.173767 110.228416 L 248.173767 132.435538 C 248.173767 132.513619 248.238069 132.577921 248.31615 132.577921 L 258.161231 132.577921" style="fill:none;stroke-width:0.50;stroke:#808143;"/>
		<path vector-effect="non-scaling-stroke" d="M 268.116543 132.577921 C 268.2107 132.577921 268.291077 132.506729 268.302559 132.414869 L 271.010129 110.290421 C 271.023908 110.18019 270.936641 110.08144 270.824113 110.08144 L 260.712638 110.08144 C 260.613889 110.08144 260.531215 110.159521 260.526622 110.25827 L 259.447269 132.382718 C 259.442676 132.488357 259.527646 132.577921 259.633285 132.577921 L 268.116543 132.577921" style="fill:none;stroke-width:0.50;stroke:#808143;"/>
		<path vector-effect="non-scaling-stroke" d="M 277.88584 132.587107 C 277.966217 132.587107 278.037408 132.529694 278.051187 132.449317 L 282.095318 110.276642 C 282.11369 110.1733 282.035609 110.079144 281.92997 110.079144 L 272.335207 110.079144 C 272.250237 110.079144 272.179046 110.143446 272.167563 110.226119 L 269.455401 132.398794 C 269.443918 132.49984 269.521999 132.587107 269.620749 132.587107 L 277.88584 132.587107" style="fill:none;stroke-width:0.50;stroke:#808143;"/>
		<path vector-effect="non-scaling-stroke" d="M 287.480602 132.573328 L 293.228733 110.327165 C 293.256291 110.214637 293.173617 110.106702 293.058792 110.106702 L 286.493109 110.097516" style="fill:none;stroke-width:0.50;stroke:#2383a9;"/>
		<path vector-effect="non-scaling-stroke" d="M 286.493109 110.097516 L 283.562779 110.118184 C 283.4181 110.120481 283.294089 110.223823 283.266531 110.368502 L 279.249959 132.394201 C 279.231587 132.495247 279.309668 132.587107 279.410713 132.587107 L 287.480602 132.573328" style="fill:none;stroke-width:0.50;stroke:#808143;"/>
		<path vector-effect="non-scaling-stroke" d="M 286.493109 110.097516 Q 286.715869 110.788761 286.738834 111.268729 Q 287.188947 120.372041 287.269325 122.340139 Q 287.395632 125.403665 287.611503 128.676173 C 287.639061 129.094135 287.850338 129.996658 287.756182 130.348022 Q 287.457637 131.46412 287.480602 132.573328" style="fill:none;stroke-width:0.50;stroke:#a3ce8e;"/>
		<path vector-effect="non-scaling-stroke" d="M 246.949734 148.531682 C 247.030112 148.531682 247.094414 148.46738 247.094414 148.387003 L 247.094414 133.859366 C 247.094414 133.778988 247.030112 133.714686 246.949734 133.714686 L 235.749721 133.714686 C 235.66475 133.714686 235.598152 133.788174 235.605041 133.873145 L 236.953085 148.400782 C 236.959974 148.47427 237.02198 148.531682 237.095468 148.531682 L 246.949734 148.531682" style="fill:none;stroke-width:0.50;stroke:#808143;"/>
		<path vector-effect="non-scaling-stroke" d="M 275.109375 148.527089 C 275.148416 148.527089 275.182863 148.499531 275.189753 148.458194 L 277.862875 133.808843 C 277.872061 133.75832 277.83302 133.71239 277.782497 133.71239 L 269.453104 133.71239 C 269.411767 133.71239 269.375023 133.744541 269.37043 133.785878 L 267.579163 148.435229 C 267.572274 148.483456 267.611314 148.527089 267.661837 148.527089 L 275.109375 148.527089" style="fill:none;stroke-width:0.50;stroke:#808143;"/>
		<path vector-effect="non-scaling-stroke" d="M 287.10857 133.710093 L 279.169581 133.710093 C 279.112169 133.710093 279.063942 133.75143 279.05246 133.806546 L 276.425268 148.217062 C 276.393117 148.384706 276.521721 148.538572 276.691661 148.538572 Q 279.621991 148.531682 280.35687 148.531682 C 281.709506 148.533979 282.545431 148.42834 283.383652 147.491369 Q 283.819987 147.004512 284.260914 145.206355 Q 286.109594 137.662364 287.163686 133.781285 C 287.172872 133.744541 287.145314 133.710093 287.10857 133.710093" style="fill:none;stroke-width:0.50;stroke:#808143;"/>
		<path vector-effect="non-scaling-stroke" d="M 226.660187 148.529386 C 226.747454 148.529386 226.816349 148.451305 226.80257 148.364038 L 224.616305 133.845587 C 224.604823 133.774395 224.545114 133.721576 224.473923 133.721576 L 216.500486 133.721576 C 216.40633 133.721576 216.337435 133.806546 216.358104 133.898406 L 219.619129 148.416857 C 219.632908 148.483456 219.692617 148.529386 219.759215 148.529386 L 226.660187 148.529386" style="fill:none;stroke-width:0.50;stroke:#808143;"/>
		<path vector-effect="non-scaling-stroke" d="M 235.669343 148.533979 C 235.752017 148.533979 235.816319 148.462787 235.80943 148.380113 L 234.461386 133.836401 C 234.454497 133.765209 234.394788 133.710093 234.3213 133.710093 L 225.916122 133.710093 C 225.831152 133.710093 225.764554 133.785878 225.778333 133.870848 L 227.96919 148.414561 C 227.980673 148.483456 228.038085 148.533979 228.10698 148.533979 L 235.669343 148.533979" style="fill:none;stroke-width:0.50;stroke:#808143;"/>
		<path vector-effect="non-scaling-stroke" d="M 257.311527 148.533979 C 257.396497 148.533979 257.465392 148.46738 257.469985 148.38241 L 258.17501 133.884627 C 258.179603 133.795064 258.108411 133.719279 258.018848 133.719279 L 248.371266 133.719279 C 248.283999 133.719279 248.212808 133.790471 248.212808 133.877738 L 248.212808 148.37552 C 248.212808 148.462787 248.283999 148.533979 248.371266 148.533979 L 257.311527 148.533979" style="fill:none;stroke-width:0.50;stroke:#808143;"/>
		<path vector-effect="non-scaling-stroke" d="M 266.27705 148.531682 C 266.332165 148.531682 266.378095 148.490345 266.384985 148.435229 L 268.169363 133.840994 C 268.178549 133.774395 268.128026 133.716983 268.061427 133.716983 L 259.403635 133.716983 C 259.343926 133.716983 259.2957 133.762913 259.293403 133.822622 L 258.58149 148.416857 C 258.579193 148.478863 258.629716 148.531682 258.691721 148.531682 L 266.27705 148.531682" style="fill:none;stroke-width:0.50;stroke:#808143;"/>
		<path vector-effect="non-scaling-stroke" d="M 225.610688 190.849224 L 225.883971 190.853817" style="fill:none;stroke-width:0.50;stroke:#00406f;"/>
		<path vector-effect="non-scaling-stroke" d="M 277.766422 191.062799 Q 277.800869 191.17303 277.899619 191.122507 C 277.989182 191.076578 277.998368 190.954863 277.920287 190.895154 Q 277.837613 190.833149 277.718195 190.879079" style="fill:none;stroke-width:0.50;stroke:#238dba;"/>
		<path d="M 283.941701 173.067451 Q 283.085108 172.389985 282.990952 172.075365 Q 282.253776 169.576777 281.624536 168.290739 Q 280.575037 166.145811 279.479608 163.941174 Q 283.027695 163.842425 286.463254 163.906727 Q 287.857228 163.931988 289.026144 163.759751 C 289.251201 163.7276 289.437217 163.569142 289.503816 163.350975 Q 289.680646 162.77685 289.639309 162.124645 Q 289.39588 158.114962 288.619665 143.394419 Q 288.454317 140.271184 288.148883 137.037717 Q 288.757454 134.1648 289.526781 131.248249 Q 290.867935 126.15462 290.874824 126.129358 Q 293.27696 116.635641 296.283074 105.215164 Q 296.427753 104.664005 296.05572 104.195519 Q 295.51834 103.520349 294.732938 103.515756 Q 290.555611 103.490495 286.313982 103.479013 Q 285.749044 94.897005 285.360936 86.397671 C 285.315006 85.380323 284.580127 85.104744 283.663825 85.111633 Q 275.210421 85.157563 264.295173 85.136894 C 264.049448 85.136894 263.835874 84.96925 263.776165 84.730415 C 263.606224 84.043762 263.422504 83.320366 263.075733 82.647492 Q 261.672574 79.93533 261.215571 79.262456 C 260.202816 77.762844 258.39777 75.764892 256.59502 74.639609 Q 254.835904 73.541883 254.404162 73.326013 C 249.521811 70.880244 243.599146 70.749343 238.64101 73.057323 C 234.736966 74.876148 231.400156 78.146359 229.592813 82.211158 Q 228.915347 83.731439 228.580058 84.888873 C 228.534128 85.045035 228.394042 85.150673 228.230991 85.15297 Q 217.577543 85.185121 211.425229 85.178231 Q 210.490555 85.178231 210.026663 85.373434 C 209.955471 85.403288 209.891169 85.449218 209.840646 85.50663 Q 209.482393 85.899331 209.4778 86.512496 Q 209.399719 94.584681 209.181552 102.760209 Q 209.174662 102.946225 209.07132 103.155207 L 197.228287 103.044975 C 197.099683 103.042678 196.984859 102.962301 196.941225 102.842883 Q 195.333678 98.458871 193.149709 94.276951 C 192.55951 93.144778 191.790183 91.925338 191.089752 91.004443 C 190.263013 89.915904 188.669245 88.384141 187.300533 88.087893 Q 186.632252 87.94551 185.082117 87.915655 Q 184.324273 87.901876 176.649382 87.754901 C 176.605748 87.752604 176.566708 87.72275 176.557522 87.679116 Q 176.546039 87.617111 176.564411 87.614814 Q 176.771096 87.463245 176.771096 87.346124 Q 176.759613 81.742673 176.773392 69.644729 C 176.775689 67.789159 176.950223 65.738388 177.028303 64.103282 Q 177.065047 63.329363 177.572573 61.480683 Q 178.018094 59.85706 178.454428 58.954537 Q 180.502903 54.706018 184.733049 52.439376 C 186.363562 51.566708 188.168608 51.07985 190.072404 50.804271 Q 190.361763 50.762934 192.097914 50.659592 Q 193.223197 50.592993 194.128017 50.592993 Q 253.343181 50.597586 301.96231 50.602179 Q 302.45376 50.602179 304.412671 50.728486 Q 305.873243 50.822643 306.842365 51.031624 Q 310.199843 51.748131 312.659391 53.594514 Q 316.232739 56.276822 317.769096 60.957082 Q 317.973484 61.577136 318.095198 62.321201 C 318.184761 62.856285 318.386853 63.487821 318.432783 64.199735 Q 318.621096 67.14614 318.623392 70.092545 Q 318.634875 114.897193 318.60502 153.05578 Q 318.602724 156.79907 318.430487 159.619168 C 318.370778 160.558435 318.131942 161.697497 317.964298 162.46912 Q 316.981397 166.974846 313.34834 169.85006 Q 312.611164 170.431073 311.497363 171.014384 Q 310.406528 171.586211 309.481039 171.859494 Q 308.5234 172.14426 307.928608 172.32798 C 307.767853 172.376206 307.602505 172.408357 307.437157 172.424432 Q 304.809965 172.665565 303.801803 172.663268 Q 297.484141 172.651786 284.164461 172.72068 Q 283.994521 172.72068 283.941701 173.067451 Z" style="fill:#46cff4;"/>
		<path d="M 286.313982 103.479013 L 209.07132 103.155207 Q 209.174662 102.946225 209.181552 102.760209 Q 209.399719 94.584681 209.4778 86.512496 Q 209.482393 85.899331 209.840646 85.50663 C 209.891169 85.449218 209.955471 85.403288 210.026663 85.373434 Q 210.490555 85.178231 211.425229 85.178231 Q 217.577543 85.185121 228.230991 85.15297 C 228.394042 85.150673 228.534128 85.045035 228.580058 84.888873 Q 228.915347 83.731439 229.592813 82.211158 C 231.400156 78.146359 234.736966 74.876148 238.64101 73.057323 C 243.599146 70.749343 249.521811 70.880244 254.404162 73.326013 Q 254.835904 73.541883 256.59502 74.639609 C 258.39777 75.764892 260.202816 77.762844 261.215571 79.262456 Q 261.672574 79.93533 263.075733 82.647492 C 263.422504 83.320366 263.606224 84.043762 263.776165 84.730415 C 263.835874 84.96925 264.049448 85.136894 264.295173 85.136894 Q 275.210421 85.157563 283.663825 85.111633 C 284.580127 85.104744 285.315006 85.380323 285.360936 86.397671 Q 285.749044 94.897005 286.313982 103.479013 Z M 246.306715 85.150673 Q 255.348022 85.148377 259.438083 85.123115 C 259.617209 85.123115 259.738924 84.941692 259.674622 84.774048 Q 258.806546 82.530371 257.081877 80.589831 C 254.326081 77.491857 250.543752 75.74652 246.304419 75.748817 C 242.065086 75.748817 238.282756 77.498747 235.529257 80.599017 Q 233.806885 82.539557 232.938809 84.78553 C 232.874507 84.950878 232.996221 85.132301 233.177645 85.134598 Q 237.265408 85.155266 246.306715 85.150673 Z" style="fill:#ffcc28;"/>
		<path d="M 176.564411 87.614814 Q 176.546039 87.617111 176.557522 87.679116 C 176.566708 87.72275 176.605748 87.752604 176.649382 87.754901 Q 184.324273 87.901876 185.082117 87.915655 Q 186.632252 87.94551 187.300533 88.087893 C 188.669245 88.384141 190.263013 89.915904 191.089752 91.004443 C 191.790183 91.925338 192.55951 93.144778 193.149709 94.276951 Q 195.333678 98.458871 196.941225 102.842883 C 196.984859 102.962301 197.099683 103.042678 197.228287 103.044975 L 209.07132 103.155207 L 209.30097 104.650226 L 197.963166 104.608889 C 197.832266 104.608889 197.742703 104.737493 197.786336 104.859207 L 199.122897 108.572642 C 199.152751 108.650723 199.226239 108.703542 199.31121 108.703542 L 208.901379 108.721914 Q 209.066727 108.68517 209.195331 108.747176 L 209.25504 110.118184 Q 209.137918 110.13426 209.009315 110.104405 L 199.864665 110.115888 C 199.777398 110.115888 199.715393 110.203154 199.747544 110.285828 C 201.504364 115.064838 202.703135 118.663448 204.47603 123.614694 Q 205.015707 125.121196 206.60029 129.911688 C 206.86209 130.701683 207.213454 131.542201 207.415546 132.146179 Q 207.580894 132.637629 208.028711 132.582514 L 208.279029 133.719279 Q 207.955223 133.760616 207.998856 133.882331 Q 208.435191 135.168369 208.857746 136.438331 L 207.739352 138.608521 Q 204.92844 130.352615 202.106046 122.124268 Q 199.513301 114.564201 196.592158 106.75841 C 194.635543 101.536176 192.672038 96.989113 190.014992 92.715333 Q 189.284706 91.54412 188.067562 91.571678 Q 187.109923 91.592346 176.931851 91.58316 C 176.888217 91.58316 176.84688 91.596939 176.812433 91.619904 Q 176.725166 91.679613 176.789468 91.679613 L 171.682059 91.613015 C 171.620054 91.613015 171.560345 91.596939 171.505229 91.569381 Q 171.172237 91.40633 171.006889 90.949327 C 171.002296 90.937845 171 90.928659 171 90.917176 L 171 88.326728 C 171 88.255537 171.027558 88.184345 171.078081 88.131526 Q 171.555752 87.619407 172.042609 87.635483 Q 174.373553 87.711267 176.116594 87.713564 Q 176.360023 87.713564 176.564411 87.614814 Z" style="fill:#004a7f;"/>
		<path d="M 207.739352 138.608521 L 208.818705 141.660564 Q 208.483417 142.418408 208.522457 143.293373 Q 208.609724 145.247692 208.595945 146.683002 Q 208.522457 153.724061 208.405336 161.897292 C 208.39615 162.620689 208.352517 163.706931 209.245854 163.796495 Q 210.15297 163.890651 210.910814 163.895244 Q 235.593559 164.023848 264.129825 163.945767 Q 270.697805 163.927395 277.401279 163.934285 Q 278.705689 166.047061 279.778153 168.580097 Q 280.391317 170.031483 280.880471 171.06261 C 280.917215 171.138394 280.846024 171.221068 280.765646 171.198103 Q 279.160395 170.74799 277.768718 170.759472 Q 275.658238 170.777844 219.809738 170.761769 C 218.190708 170.759472 216.532637 171.289963 215.248896 172.316497 Q 214.768928 172.700012 214.302739 173.090416 Q 214.344076 172.828616 214.261402 172.695419 C 214.252216 172.679344 214.233844 172.670158 214.217769 172.670158 Q 192.809828 172.670158 192.42172 172.672454 Q 190.230862 172.693123 188.079045 172.40606 Q 187.406171 172.316497 185.947896 171.786006 Q 184.652672 171.312928 183.890235 170.883483 C 180.477641 168.959019 178.15129 165.840377 177.354406 161.979966 C 177.191355 161.185378 176.998449 160.558435 176.993856 159.942974 C 176.977781 158.523739 176.76191 157.040202 176.76191 155.425765 Q 176.759613 121.639707 176.764206 93.252713 Q 176.764206 93.101145 176.821619 92.467312 Q 176.860659 92.053942 176.789468 91.679613 Q 176.725166 91.679613 176.812433 91.619904 C 176.84688 91.596939 176.888217 91.58316 176.931851 91.58316 Q 187.109923 91.592346 188.067562 91.571678 Q 189.284706 91.54412 190.014992 92.715333 C 192.672038 96.989113 194.635543 101.536176 196.592158 106.75841 Q 199.513301 114.564201 202.106046 122.124268 Q 204.92844 130.352615 207.739352 138.608521 Z" style="fill:#46cff4;"/>
		<path fill-opacity="0.996" d="M 286.313982 103.479013 Q 290.555611 103.490495 294.732938 103.515756 Q 295.51834 103.520349 296.05572 104.195519 Q 296.427753 104.664005 296.283074 105.215164 Q 293.27696 116.635641 290.874824 126.129358 Q 290.867935 126.15462 289.526781 131.248249 Q 288.757454 134.1648 288.148883 137.037717 C 287.73092 138.422504 287.391039 139.968046 287.05575 141.1783 Q 286.346133 143.729708 285.958025 145.456673 Q 285.523987 147.394916 285.03713 148.079272 C 283.877399 149.709785 282.522466 150.164491 280.469398 150.148416 Q 279.171878 150.13923 267.273729 150.127747 C 267.21402 150.127747 267.177276 150.192049 267.207131 150.244869 Q 267.25995 150.329839 267.342624 150.405623 C 268.378344 151.349483 269.836619 152.42654 270.897601 153.388772 Q 275.924632 157.947318 279.399231 163.81946 L 278.260169 162.441562 C 278.117786 162.267028 277.846799 162.278511 277.718195 162.46223 Q 277.403575 162.905454 277.219856 163.585217 C 274.131068 158.558186 269.744759 154.070832 265.018569 150.667424 C 264.683281 150.428588 264.384736 150.125451 263.959884 150.125451 Q 225.445341 150.130044 214.989392 150.153009 C 212.511472 150.157602 210.903924 148.632728 210.270091 146.398237 Q 209.824571 144.825137 208.818705 141.660564 L 207.739352 138.608521 L 208.857746 136.438331 Q 210.3298 140.668478 211.629617 144.937665 Q 212.286415 147.094075 212.754901 147.599305 Q 213.687278 148.60517 215.434912 148.554647 Q 216.716357 148.515607 218.220562 148.536275 C 218.330794 148.538572 218.411172 148.437526 218.388207 148.32959 L 215.120292 133.774395 C 215.10881 133.721576 215.060583 133.682535 215.003171 133.682535 L 208.279029 133.719279 L 208.028711 132.582514 L 208.67173 132.552659 L 214.624249 132.600885 C 214.74826 132.600885 214.842416 132.488357 214.819451 132.366643 Q 214.240734 129.429424 213.636755 126.77697 Q 211.340259 116.722908 209.93021 110.510885 Q 209.810792 109.982691 209.25504 110.118184 L 209.195331 108.747176 L 286.626306 108.760955 L 293.384895 108.728804 C 293.522685 108.728804 293.642103 108.636944 293.67655 108.503747 L 294.537736 105.297838 C 294.569887 105.17842 294.48262 105.061299 294.35861 105.059002 L 286.334651 104.980921 L 209.30097 104.650226 L 209.07132 103.155207 L 286.313982 103.479013 Z M 224.329243 132.577921 C 224.384359 132.577921 224.427993 132.527398 224.418807 132.472282 L 221.056736 110.157225 C 221.049846 110.111295 221.010806 110.079144 220.967172 110.079144 L 211.202469 110.079144 C 211.14276 110.079144 211.099127 110.13426 211.112906 110.191672 L 216.123861 132.506729 C 216.133047 132.548066 216.169791 132.577921 216.213424 132.577921 L 224.329243 132.577921 Z M 234.192696 132.58481 C 234.302928 132.58481 234.387898 132.490654 234.378712 132.382718 L 232.327941 110.251381 C 232.318755 110.154928 232.238377 110.08144 232.141925 110.08144 L 222.439227 110.08144 C 222.326698 110.08144 222.239431 110.182486 222.255507 110.295014 L 225.592316 132.426352 C 225.606095 132.518212 225.684176 132.58481 225.776036 132.58481 L 234.192696 132.58481 Z M 246.809648 132.580217 C 246.926769 132.580217 247.020926 132.486061 247.020926 132.368939 L 247.020926 110.295014 C 247.020926 110.177893 246.926769 110.083737 246.809648 110.083737 L 233.698949 110.083737 C 233.574938 110.083737 233.476189 110.191672 233.487672 110.313386 L 235.53385 132.387311 C 235.545332 132.497543 235.634896 132.580217 235.745128 132.580217 L 246.809648 132.580217 Z M 258.161231 132.577921 C 258.237015 132.577921 258.29902 132.518212 258.303613 132.442427 L 259.385263 110.235305 C 259.389856 110.154928 259.323258 110.086033 259.242881 110.086033 L 248.31615 110.086033 C 248.238069 110.086033 248.173767 110.150335 248.173767 110.228416 L 248.173767 132.435538 C 248.173767 132.513619 248.238069 132.577921 248.31615 132.577921 L 258.161231 132.577921 Z M 268.116543 132.577921 C 268.2107 132.577921 268.291077 132.506729 268.302559 132.414869 L 271.010129 110.290421 C 271.023908 110.18019 270.936641 110.08144 270.824113 110.08144 L 260.712638 110.08144 C 260.613889 110.08144 260.531215 110.159521 260.526622 110.25827 L 259.447269 132.382718 C 259.442676 132.488357 259.527646 132.577921 259.633285 132.577921 L 268.116543 132.577921 Z M 277.88584 132.587107 C 277.966217 132.587107 278.037408 132.529694 278.051187 132.449317 L 282.095318 110.276642 C 282.11369 110.1733 282.035609 110.079144 281.92997 110.079144 L 272.335207 110.079144 C 272.250237 110.079144 272.179046 110.143446 272.167563 110.226119 L 269.455401 132.398794 C 269.443918 132.49984 269.521999 132.587107 269.620749 132.587107 L 277.88584 132.587107 Z M 287.480602 132.573328 L 293.228733 110.327165 C 293.256291 110.214637 293.173617 110.106702 293.058792 110.106702 L 286.493109 110.097516 L 283.562779 110.118184 C 283.4181 110.120481 283.294089 110.223823 283.266531 110.368502 L 279.249959 132.394201 C 279.231587 132.495247 279.309668 132.587107 279.410713 132.587107 L 287.480602 132.573328 Z M 246.949734 148.531682 C 247.030112 148.531682 247.094414 148.46738 247.094414 148.387003 L 247.094414 133.859366 C 247.094414 133.778988 247.030112 133.714686 246.949734 133.714686 L 235.749721 133.714686 C 235.66475 133.714686 235.598152 133.788174 235.605041 133.873145 L 236.953085 148.400782 C 236.959974 148.47427 237.02198 148.531682 237.095468 148.531682 L 246.949734 148.531682 Z M 275.109375 148.527089 C 275.148416 148.527089 275.182863 148.499531 275.189753 148.458194 L 277.862875 133.808843 C 277.872061 133.75832 277.83302 133.71239 277.782497 133.71239 L 269.453104 133.71239 C 269.411767 133.71239 269.375023 133.744541 269.37043 133.785878 L 267.579163 148.435229 C 267.572274 148.483456 267.611314 148.527089 267.661837 148.527089 L 275.109375 148.527089 Z M 287.10857 133.710093 L 279.169581 133.710093 C 279.112169 133.710093 279.063942 133.75143 279.05246 133.806546 L 276.425268 148.217062 C 276.393117 148.384706 276.521721 148.538572 276.691661 148.538572 Q 279.621991 148.531682 280.35687 148.531682 C 281.709506 148.533979 282.545431 148.42834 283.383652 147.491369 Q 283.819987 147.004512 284.260914 145.206355 Q 286.109594 137.662364 287.163686 133.781285 C 287.172872 133.744541 287.145314 133.710093 287.10857 133.710093 Z M 226.660187 148.529386 C 226.747454 148.529386 226.816349 148.451305 226.80257 148.364038 L 224.616305 133.845587 C 224.604823 133.774395 224.545114 133.721576 224.473923 133.721576 L 216.500486 133.721576 C 216.40633 133.721576 216.337435 133.806546 216.358104 133.898406 L 219.619129 148.416857 C 219.632908 148.483456 219.692617 148.529386 219.759215 148.529386 L 226.660187 148.529386 Z M 235.669343 148.533979 C 235.752017 148.533979 235.816319 148.462787 235.80943 148.380113 L 234.461386 133.836401 C 234.454497 133.765209 234.394788 133.710093 234.3213 133.710093 L 225.916122 133.710093 C 225.831152 133.710093 225.764554 133.785878 225.778333 133.870848 L 227.96919 148.414561 C 227.980673 148.483456 228.038085 148.533979 228.10698 148.533979 L 235.669343 148.533979 Z M 257.311527 148.533979 C 257.396497 148.533979 257.465392 148.46738 257.469985 148.38241 L 258.17501 133.884627 C 258.179603 133.795064 258.108411 133.719279 258.018848 133.719279 L 248.371266 133.719279 C 248.283999 133.719279 248.212808 133.790471 248.212808 133.877738 L 248.212808 148.37552 C 248.212808 148.462787 248.283999 148.533979 248.371266 148.533979 L 257.311527 148.533979 Z M 266.27705 148.531682 C 266.332165 148.531682 266.378095 148.490345 266.384985 148.435229 L 268.169363 133.840994 C 268.178549 133.774395 268.128026 133.716983 268.061427 133.716983 L 259.403635 133.716983 C 259.343926 133.716983 259.2957 133.762913 259.293403 133.822622 L 258.58149 148.416857 C 258.579193 148.478863 258.629716 148.531682 258.691721 148.531682 L 266.27705 148.531682 Z" style="fill:#00365e;"/>
		<path d="M 209.30097 104.650226 Q 209.153994 104.781126 209.147104 104.893654 Q 209.082803 106.108501 209.098878 108.168459 C 209.098878 108.218981 209.089692 108.269504 209.069024 108.317731 L 208.901379 108.721914 L 199.31121 108.703542 C 199.226239 108.703542 199.152751 108.650723 199.122897 108.572642 L 197.786336 104.859207 C 197.742703 104.737493 197.832266 104.608889 197.963166 104.608889 L 209.30097 104.650226 Z" style="fill:#46cff4;"/>
		<path d="M 286.334651 104.980921 L 286.626306 108.760955 L 209.195331 108.747176 Q 209.066727 108.68517 208.901379 108.721914 L 209.069024 108.317731 C 209.089692 108.269504 209.098878 108.218981 209.098878 108.168459 Q 209.082803 106.108501 209.147104 104.893654 Q 209.153994 104.781126 209.30097 104.650226 L 286.334651 104.980921 Z" style="fill:#ffcc28;"/>
		<path d="M 286.626306 108.760955 L 286.334651 104.980921 L 294.35861 105.059002 C 294.48262 105.061299 294.569887 105.17842 294.537736 105.297838 L 293.67655 108.503747 C 293.642103 108.636944 293.522685 108.728804 293.384895 108.728804 L 286.626306 108.760955 Z" style="fill:#46cff4;"/>
		<path d="M 209.009315 110.104405 L 208.80263 131.09668 C 208.80263 131.126535 208.798037 131.154093 208.791147 131.183947 Q 208.605131 131.884379 208.67173 132.552659 L 208.028711 132.582514 Q 207.580894 132.637629 207.415546 132.146179 C 207.213454 131.542201 206.86209 130.701683 206.60029 129.911688 Q 205.015707 125.121196 204.47603 123.614694 C 202.703135 118.663448 201.504364 115.064838 199.747544 110.285828 C 199.715393 110.203154 199.777398 110.115888 199.864665 110.115888 L 209.009315 110.104405 Z" style="fill:#46cff4;"/>
		<path d="M 209.25504 110.118184 Q 209.810792 109.982691 209.93021 110.510885 Q 211.340259 116.722908 213.636755 126.77697 Q 214.240734 129.429424 214.819451 132.366643 C 214.842416 132.488357 214.74826 132.600885 214.624249 132.600885 L 208.67173 132.552659 Q 208.605131 131.884379 208.791147 131.183947 C 208.798037 131.154093 208.80263 131.126535 208.80263 131.09668 L 209.009315 110.104405 Q 209.137918 110.13426 209.25504 110.118184 Z" style="fill:#ffcc28;"/>
		<path d="M 208.857746 136.438331 Q 208.435191 135.168369 207.998856 133.882331 Q 207.955223 133.760616 208.279029 133.719279 L 215.003171 133.682535 C 215.060583 133.682535 215.10881 133.721576 215.120292 133.774395 L 218.388207 148.32959 C 218.411172 148.437526 218.330794 148.538572 218.220562 148.536275 Q 216.716357 148.515607 215.434912 148.554647 Q 213.687278 148.60517 212.754901 147.599305 Q 212.286415 147.094075 211.629617 144.937665 Q 210.3298 140.668478 208.857746 136.438331 Z" style="fill:#ffcc28;"/>
		<path d="M 279.479608 163.941174 Q 279.592137 163.991697 279.399231 163.81946 Q 275.924632 157.947318 270.897601 153.388772 C 269.836619 152.42654 268.378344 151.349483 267.342624 150.405623 Q 267.25995 150.329839 267.207131 150.244869 C 267.177276 150.192049 267.21402 150.127747 267.273729 150.127747 Q 279.171878 150.13923 280.469398 150.148416 C 282.522466 150.164491 283.877399 149.709785 285.03713 148.079272 Q 285.523987 147.394916 285.958025 145.456673 Q 286.346133 143.729708 287.05575 141.1783 C 287.391039 139.968046 287.73092 138.422504 288.148883 137.037717 Q 288.454317 140.271184 288.619665 143.394419 Q 289.39588 158.114962 289.639309 162.124645 Q 289.680646 162.77685 289.503816 163.350975 C 289.437217 163.569142 289.251201 163.7276 289.026144 163.759751 Q 287.857228 163.931988 286.463254 163.906727 Q 283.027695 163.842425 279.479608 163.941174 Z" style="fill:#ffcc28;"/>
		<path d="M 208.818705 141.660564 Q 209.824571 144.825137 210.270091 146.398237 C 210.903924 148.632728 212.511472 150.157602 214.989392 150.153009 Q 225.445341 150.130044 263.959884 150.125451 C 264.384736 150.125451 264.683281 150.428588 265.018569 150.667424 C 269.744759 154.070832 274.131068 158.558186 277.219856 163.585217 L 277.401279 163.934285 Q 270.697805 163.927395 264.129825 163.945767 Q 235.593559 164.023848 210.910814 163.895244 Q 210.15297 163.890651 209.245854 163.796495 C 208.352517 163.706931 208.39615 162.620689 208.405336 161.897292 Q 208.522457 153.724061 208.595945 146.683002 Q 208.609724 145.247692 208.522457 143.293373 Q 208.483417 142.418408 208.818705 141.660564 Z" style="fill:#ffcc28;"/>
		<path d="M 279.399231 163.81946 Q 279.592137 163.991697 279.479608 163.941174 Q 280.575037 166.145811 281.624536 168.290739 Q 282.253776 169.576777 282.990952 172.075365 Q 283.085108 172.389985 283.941701 173.067451 Q 284.609982 174.130729 284.770736 174.48439 Q 285.383901 175.832433 285.349453 178.204714 C 285.347157 178.289685 285.381604 178.372359 285.44361 178.429771 Q 285.730672 178.703054 286.100408 178.88907 C 286.125669 178.900553 286.150931 178.916628 286.176192 178.935 Q 289.715093 181.644866 289.244312 185.918646 Q 288.99629 188.176102 287.262435 189.958184 C 286.874327 190.353181 286.320872 190.68158 285.886834 191.108728 Q 285.801863 191.13399 285.776602 191.138583 C 285.700817 191.152362 285.647998 191.221257 285.652591 191.299338 C 285.657184 191.377419 285.719189 191.439424 285.79727 191.444017 Q 285.882241 191.44861 285.967211 191.395791 Q 286.088925 191.466982 286.233605 191.473871 C 287.724031 191.551952 288.840128 191.510615 290.211137 191.652998 Q 291.396129 191.774712 292.255019 191.767823 C 293.40786 191.756341 294.379278 191.976804 295.495375 191.995176 Q 296.579322 192.013548 297.403764 192.146745 C 298.202945 192.277645 299.054945 192.185785 299.959765 192.293721 Q 302.403237 192.585376 304.688251 192.70709 C 304.961534 192.723166 305.211852 192.79206 305.512693 192.863252 C 305.632111 192.893106 305.756122 192.906885 305.877836 192.906885 C 306.764284 192.909182 307.591023 193.120459 308.316716 193.129645 C 308.959735 193.136535 309.412145 193.350109 309.940339 193.361592 Q 310.314668 193.368481 311.890064 193.641764 C 311.933698 193.648654 311.975035 193.662433 312.014075 193.683101 Q 312.319509 193.843856 312.425148 194.045948 C 312.52849 194.222778 312.455002 194.450131 312.26669 194.528212 L 311.527218 194.838239 C 311.506549 194.847425 311.483584 194.854314 311.460619 194.856611 L 308.445319 195.391695 C 308.43843 195.393991 308.43154 195.393991 308.424651 195.393991 Q 307.014602 195.476665 306.132747 195.639716 Q 304.6561 195.912999 303.898256 195.942854 C 302.667334 195.988784 301.339959 196.301107 300.053921 196.379188 Q 298.115678 196.494013 297.456583 196.583576 C 295.408108 196.859156 293.699515 196.870638 291.547698 197.093399 C 289.4487 197.309269 287.067233 197.279415 285.190995 197.467727 C 281.463781 197.842056 278.411737 197.7479 274.484728 198.044148 C 272.119337 198.220978 269.333686 198.126822 267.25995 198.248536 Q 265.369933 198.361065 260.889469 198.381733 Q 260.044358 198.386326 254.514394 198.498854 Q 246.148257 198.666499 240.533323 198.535598 Q 234.04572 198.38403 232.495585 198.381733 C 228.887789 198.374844 226.007982 198.149787 222.733178 198.163566 Q 221.233566 198.168159 218.836023 198.005108 Q 217.678589 197.92473 212.793941 197.752493 Q 210.479072 197.669819 208.230802 197.47921 Q 205.525529 197.247264 203.660774 197.228892 Q 203.348451 197.224299 202.792698 197.109474 C 202.615868 197.075027 202.439038 197.054358 202.259911 197.052062 C 201.251749 197.038283 200.399749 196.840784 199.545452 196.822412 C 197.846045 196.790261 195.997365 196.466455 194.261214 196.333258 C 192.701893 196.211544 191.597278 195.938261 190.049439 195.857883 Q 189.098689 195.80736 187.968813 195.49963 C 187.844802 195.465182 187.716199 195.444514 187.587595 195.437625 C 186.946872 195.405474 186.34519 195.354951 185.628683 195.194196 Q 184.468952 194.934692 183.995874 194.874983 Q 183.449308 194.806088 183.026753 194.468503 C 182.888963 194.360568 182.870591 194.156179 182.985416 194.022983 Q 183.251809 193.717549 183.699626 193.648654 C 185.022408 193.444265 186.460015 193.175575 187.684048 193.118163 C 188.901191 193.060751 190.106851 192.787467 191.454895 192.681829 Q 195.120103 192.397063 195.129289 192.415435 Q 195.145365 192.452179 196.135155 192.284535 Q 196.486519 192.224826 197.990724 192.190378 Q 199.267576 192.16282 201.968256 191.880351 Q 203.176213 191.754044 204.466844 191.744858 C 206.265001 191.733376 207.348948 191.549656 209.110361 191.545063 Q 209.881983 191.545063 211.243806 191.354454 C 211.445898 191.326896 211.505606 191.062799 211.333369 190.952567 Q 209.51684 189.785946 208.609724 187.863779 Q 207.716387 185.976059 208.026414 183.821945 Q 208.513271 180.411647 211.719181 178.624973 C 212.231299 178.340208 212.876615 178.459625 212.837574 177.63748 Q 212.72275 175.097554 214.302739 173.090416 Q 214.768928 172.700012 215.248896 172.316497 C 216.532637 171.289963 218.190708 170.759472 219.809738 170.761769 Q 275.658238 170.777844 277.768718 170.759472 Q 279.160395 170.74799 280.765646 171.198103 C 280.846024 171.221068 280.917215 171.138394 280.880471 171.06261 Q 280.391317 170.031483 279.778153 168.580097 Q 278.705689 166.047061 277.401279 163.934285 L 277.219856 163.585217 Q 277.403575 162.905454 277.718195 162.46223 C 277.846799 162.278511 278.117786 162.267028 278.260169 162.441562 L 279.399231 163.81946 Z M 225.610688 190.849224 L 225.883971 190.853817 C 230.658388 190.828556 235.097516 190.805591 240.209517 190.706842 Q 248.589433 190.546087 257.173737 190.729807 C 262.345447 190.840038 266.897104 190.736696 272.066517 191.007683 Q 273.32959 191.074281 277.502325 191.138583 Q 277.709009 191.140879 277.766422 191.062799 Q 277.800869 191.17303 277.899619 191.122507 C 277.989182 191.076578 277.998368 190.954863 277.920287 190.895154 Q 277.837613 190.833149 277.718195 190.879079 L 277.559737 190.603499 C 277.527586 190.548383 277.483953 190.502453 277.428837 190.468006 C 276.108351 189.620599 275.166788 187.790291 274.847575 186.357277 Q 274.631704 185.381266 274.826906 183.424651 C 274.836092 183.328198 274.856761 183.234042 274.891208 183.142182 C 275.113968 182.547389 275.247165 182.023788 275.561785 181.49789 C 276.716923 179.573426 278.712578 178.07611 280.967738 177.809717 Q 281.863372 177.704078 283.048364 177.784455 C 283.176968 177.793641 283.289496 177.697189 283.300979 177.568585 C 283.468623 175.568336 282.607437 173.868929 280.781722 173.090416 Q 279.775856 172.660972 279.22929 172.660972 Q 246.490435 172.658675 219.515786 172.670158 C 219.492821 172.670158 219.469857 172.672454 219.444595 172.677047 L 217.860012 172.959516 C 217.84853 172.961813 217.839344 172.964109 217.830158 172.968702 Q 216.103193 173.611721 215.205262 175.177932 C 215.159332 175.262902 215.127182 175.354762 215.115699 175.451215 L 214.895235 177.249372 C 214.863084 177.518062 215.078955 177.752304 215.349942 177.740822 Q 217.152691 177.665038 218.842913 178.62038 Q 221.118741 179.906418 222.092456 182.421082 C 222.540272 183.578516 222.622946 185.271034 222.409372 186.403207 Q 222.067194 188.235811 220.684703 189.781353 C 220.32645 190.180944 219.832703 190.493267 219.462967 190.980125 C 219.398665 191.065095 219.462967 191.189106 219.568606 191.182216 L 225.610688 190.849224 Z" style="fill:#004a7f;"/>
		<path d="M 285.886834 191.108728 Q 285.907502 191.285559 285.967211 191.395791 Q 285.882241 191.44861 285.79727 191.444017 C 285.719189 191.439424 285.657184 191.377419 285.652591 191.299338 C 285.647998 191.221257 285.700817 191.152362 285.776602 191.138583 Q 285.801863 191.13399 285.886834 191.108728 Z" style="fill:#46cff4;"/>
		<path d="M 246.304419 75.748817 C 250.543752 75.74652 254.326081 77.491857 257.081877 80.589831 Q 258.806546 82.530371 259.674622 84.774048 C 259.738924 84.941692 259.617209 85.123115 259.438083 85.123115 Q 255.348022 85.148377 246.306715 85.150673 Q 237.265408 85.155266 233.177645 85.134598 C 232.996221 85.132301 232.874507 84.950878 232.938809 84.78553 Q 233.806885 82.539557 235.529257 80.599017 C 238.282756 77.498747 242.065086 75.748817 246.304419 75.748817 Z" style="fill:#46cff4;"/>
		<path d="M 224.329243 132.577921 L 216.213424 132.577921 C 216.169791 132.577921 216.133047 132.548066 216.123861 132.506729 L 211.112906 110.191672 C 211.099127 110.13426 211.14276 110.079144 211.202469 110.079144 L 220.967172 110.079144 C 221.010806 110.079144 221.049846 110.111295 221.056736 110.157225 L 224.418807 132.472282 C 224.427993 132.527398 224.384359 132.577921 224.329243 132.577921 Z" style="fill:#ffcc28;"/>
		<path d="M 234.192696 132.58481 L 225.776036 132.58481 C 225.684176 132.58481 225.606095 132.518212 225.592316 132.426352 L 222.255507 110.295014 C 222.239431 110.182486 222.326698 110.08144 222.439227 110.08144 L 232.141925 110.08144 C 232.238377 110.08144 232.318755 110.154928 232.327941 110.251381 L 234.378712 132.382718 C 234.387898 132.490654 234.302928 132.58481 234.192696 132.58481 Z" style="fill:#ffcc28;"/>
		<path d="M 246.809648 132.580217 L 235.745128 132.580217 C 235.634896 132.580217 235.545332 132.497543 235.53385 132.387311 L 233.487672 110.313386 C 233.476189 110.191672 233.574938 110.083737 233.698949 110.083737 L 246.809648 110.083737 C 246.926769 110.083737 247.020926 110.177893 247.020926 110.295014 L 247.020926 132.368939 C 247.020926 132.486061 246.926769 132.580217 246.809648 132.580217 Z" style="fill:#ffcc28;"/>
		<path d="M 258.161231 132.577921 L 248.31615 132.577921 C 248.238069 132.577921 248.173767 132.513619 248.173767 132.435538 L 248.173767 110.228416 C 248.173767 110.150335 248.238069 110.086033 248.31615 110.086033 L 259.242881 110.086033 C 259.323258 110.086033 259.389856 110.154928 259.385263 110.235305 L 258.303613 132.442427 C 258.29902 132.518212 258.237015 132.577921 258.161231 132.577921 Z" style="fill:#ffcc28;"/>
		<path d="M 268.116543 132.577921 L 259.633285 132.577921 C 259.527646 132.577921 259.442676 132.488357 259.447269 132.382718 L 260.526622 110.25827 C 260.531215 110.159521 260.613889 110.08144 260.712638 110.08144 L 270.824113 110.08144 C 270.936641 110.08144 271.023908 110.18019 271.010129 110.290421 L 268.302559 132.414869 C 268.291077 132.506729 268.2107 132.577921 268.116543 132.577921 Z" style="fill:#ffcc28;"/>
		<path d="M 277.88584 132.587107 L 269.620749 132.587107 C 269.521999 132.587107 269.443918 132.49984 269.455401 132.398794 L 272.167563 110.226119 C 272.179046 110.143446 272.250237 110.079144 272.335207 110.079144 L 281.92997 110.079144 C 282.035609 110.079144 282.11369 110.1733 282.095318 110.276642 L 278.051187 132.449317 C 278.037408 132.529694 277.966217 132.587107 277.88584 132.587107 Z" style="fill:#ffcc28;"/>
		<path d="M 286.493109 110.097516 Q 286.715869 110.788761 286.738834 111.268729 Q 287.188947 120.372041 287.269325 122.340139 Q 287.395632 125.403665 287.611503 128.676173 C 287.639061 129.094135 287.850338 129.996658 287.756182 130.348022 Q 287.457637 131.46412 287.480602 132.573328 L 279.410713 132.587107 C 279.309668 132.587107 279.231587 132.495247 279.249959 132.394201 L 283.266531 110.368502 C 283.294089 110.223823 283.4181 110.120481 283.562779 110.118184 L 286.493109 110.097516 Z" style="fill:#ffcc28;"/>
		<path d="M 287.480602 132.573328 Q 287.457637 131.46412 287.756182 130.348022 C 287.850338 129.996658 287.639061 129.094135 287.611503 128.676173 Q 287.395632 125.403665 287.269325 122.340139 Q 287.188947 120.372041 286.738834 111.268729 Q 286.715869 110.788761 286.493109 110.097516 L 293.058792 110.106702 C 293.173617 110.106702 293.256291 110.214637 293.228733 110.327165 L 287.480602 132.573328 Z" style="fill:#46cff4;"/>
		<path d="M 246.949734 148.531682 L 237.095468 148.531682 C 237.02198 148.531682 236.959974 148.47427 236.953085 148.400782 L 235.605041 133.873145 C 235.598152 133.788174 235.66475 133.714686 235.749721 133.714686 L 246.949734 133.714686 C 247.030112 133.714686 247.094414 133.778988 247.094414 133.859366 L 247.094414 148.387003 C 247.094414 148.46738 247.030112 148.531682 246.949734 148.531682 Z" style="fill:#ffcc28;"/>
		<path d="M 275.109375 148.527089 L 267.661837 148.527089 C 267.611314 148.527089 267.572274 148.483456 267.579163 148.435229 L 269.37043 133.785878 C 269.375023 133.744541 269.411767 133.71239 269.453104 133.71239 L 277.782497 133.71239 C 277.83302 133.71239 277.872061 133.75832 277.862875 133.808843 L 275.189753 148.458194 C 275.182863 148.499531 275.148416 148.527089 275.109375 148.527089 Z" style="fill:#ffcc28;"/>
		<path d="M 287.10857 133.710093 C 287.145314 133.710093 287.172872 133.744541 287.163686 133.781285 Q 286.109594 137.662364 284.260914 145.206355 Q 283.819987 147.004512 283.383652 147.491369 C 282.545431 148.42834 281.709506 148.533979 280.35687 148.531682 Q 279.621991 148.531682 276.691661 148.538572 C 276.521721 148.538572 276.393117 148.384706 276.425268 148.217062 L 279.05246 133.806546 C 279.063942 133.75143 279.112169 133.710093 279.169581 133.710093 L 287.10857 133.710093 Z" style="fill:#ffcc28;"/>
		<path d="M 226.660187 148.529386 L 219.759215 148.529386 C 219.692617 148.529386 219.632908 148.483456 219.619129 148.416857 L 216.358104 133.898406 C 216.337435 133.806546 216.40633 133.721576 216.500486 133.721576 L 224.473923 133.721576 C 224.545114 133.721576 224.604823 133.774395 224.616305 133.845587 L 226.80257 148.364038 C 226.816349 148.451305 226.747454 148.529386 226.660187 148.529386 Z" style="fill:#ffcc28;"/>
		<path d="M 235.669343 148.533979 L 228.10698 148.533979 C 228.038085 148.533979 227.980673 148.483456 227.96919 148.414561 L 225.778333 133.870848 C 225.764554 133.785878 225.831152 133.710093 225.916122 133.710093 L 234.3213 133.710093 C 234.394788 133.710093 234.454497 133.765209 234.461386 133.836401 L 235.80943 148.380113 C 235.816319 148.462787 235.752017 148.533979 235.669343 148.533979 Z" style="fill:#ffcc28;"/>
		<path d="M 257.311527 148.533979 L 248.371266 148.533979 C 248.283999 148.533979 248.212808 148.462787 248.212808 148.37552 L 248.212808 133.877738 C 248.212808 133.790471 248.283999 133.719279 248.371266 133.719279 L 258.018848 133.719279 C 258.108411 133.719279 258.179603 133.795064 258.17501 133.884627 L 257.469985 148.38241 C 257.465392 148.46738 257.396497 148.533979 257.311527 148.533979 Z" style="fill:#ffcc28;"/>
		<path d="M 266.27705 148.531682 L 258.691721 148.531682 C 258.629716 148.531682 258.579193 148.478863 258.58149 148.416857 L 259.293403 133.822622 C 259.2957 133.762913 259.343926 133.716983 259.403635 133.716983 L 268.061427 133.716983 C 268.128026 133.716983 268.178549 133.774395 268.169363 133.840994 L 266.384985 148.435229 C 266.378095 148.490345 266.332165 148.531682 266.27705 148.531682 Z" style="fill:#ffcc28;"/>
		<path fill-opacity="0.996" d="M 225.883971 190.853817 L 225.610688 190.849224 L 225.883971 190.853817 Z" style="fill:#00365e;"/>
		<path d="M 277.766422 191.062799 L 277.718195 190.879079 Q 277.837613 190.833149 277.920287 190.895154 C 277.998368 190.954863 277.989182 191.076578 277.899619 191.122507 Q 277.800869 191.17303 277.766422 191.062799 Z" style="fill:#46cff4;"/>
	</g>
	<g id="surface4">
	</g>
</svg>
