<?xml version="1.0" encoding="utf-8"?>
<svg xmlns="http://www.w3.org/2000/svg" width="490pt" height="280pt" viewBox="0 0 490 280" version="1.1" xmlns:xlink="http://www.w3.org/1999/xlink">
	<g id="surface2" data-size="223.70011033151 148" data-bboxpos="133 52.311303848352" data-pivot="244.85005516576 126.31130384835" data-center="244.85005516576 126.31130384835">
		<path vector-effect="non-scaling-stroke" d="M 149.587025 83.97356 Q 149.422931 84.030361 149.205191 83.97356" style="fill:none;stroke-width:0.50;stroke:#ab9f2f;"/>
		<path vector-effect="non-scaling-stroke" d="M 148.877004 84.014583 L 147.91453 84.137653 C 147.860884 84.143965 147.81986 84.1913 147.81986 84.244946 C 147.81986 84.298592 147.860884 84.342771 147.91453 84.349082 Q 149.05372 84.487931 150.227623 84.222856" style="fill:none;stroke-width:0.50;stroke:#ab9f2f;"/>
		<path vector-effect="non-scaling-stroke" d="M 259.763457 109.575364 C 259.305887 110.001377 258.561153 110.52837 258.147763 111.014341 Q 254.484051 115.331273 256.087122 121.065092 C 256.809766 123.652727 258.920897 125.833282 261.347594 126.940916 Q 266.200986 129.149872 271.726533 128.2442 C 280.480311 126.805223 282.089694 117.972553 277.876899 111.468755 C 276.318007 109.064148 273.626235 107.745085 270.874507 107.296983 Q 266.469217 106.574339 262.508874 108.007005 C 261.562178 108.350971 260.38512 108.997879 259.763457 109.575364" style="fill:none;stroke-width:0.50;stroke:#ab9f2f;"/>
		<path vector-effect="non-scaling-stroke" d="M 260.801666 118.748844 Q 260.849001 121.330167 263.540772 123.150978 C 265.727639 124.634135 268.533013 125.227397 271.051223 124.387994 C 273.515788 123.564369 275.096769 121.254431 275.049434 118.493236 C 274.998944 115.728885 273.33276 113.478905 270.84295 112.746794 C 268.296339 111.995749 265.513054 112.689992 263.379834 114.248884 Q 260.754331 116.16752 260.801666 118.748844" style="fill:none;stroke-width:0.50;stroke:#ab9f2f;"/>
		<path d="M 315.807835 185.961074 C 315.072568 186.563804 314.662333 187.191778 314.062759 187.863932 Q 310.875551 191.448753 308.313161 194.162613 Q 307.975507 194.519202 307.688342 195.295492 C 307.634696 195.440652 307.612607 195.595279 307.622074 195.749906 Q 307.754611 197.621208 307.274952 199.359972 C 307.252862 199.445175 307.208683 199.524066 307.151881 199.59349 Q 305.990602 200.969355 304.652605 199.672382 C 303.958362 199.000228 304.21397 198.01882 304.393842 197.154171 Q 304.466422 196.794427 304.450643 195.951868 Q 304.425398 194.639117 304.598959 193.670332 Q 304.794609 192.578476 304.785143 191.849521 C 304.778831 191.079541 304.725185 190.041332 304.873501 189.391268 C 305.271113 187.655659 304.971326 185.471948 305.283736 183.695316 C 305.567744 182.067 305.264802 179.832798 305.62139 178.037232 C 305.870687 176.781283 305.652947 175.156122 305.870687 173.698211 Q 306.082115 172.300257 306.047403 169.788358 C 306.025314 168.396715 306.391369 167.068186 306.350346 165.850104 Q 306.287233 164.016671 306.44186 162.697608 Q 306.691156 160.580166 306.669067 159.56089 Q 306.624888 157.563362 306.773203 155.8814 Q 307.038278 152.892998 307.006721 151.539223 Q 306.956231 149.424936 307.101391 148.131119 C 307.45798 144.956533 307.24024 141.437981 307.420112 138.670474 C 307.716743 134.126336 307.517937 130.468935 307.757767 126.363432 Q 307.915549 123.652727 307.928172 120.118397 Q 307.997596 101.588409 308.190091 89.338168 C 308.205869 88.255779 307.637852 88.047506 306.631199 88.060129 Q 293.532088 88.208444 279.653531 88.025417 Q 278.924575 88.01595 278.460694 88.142176 C 278.138818 88.230534 278.003125 88.609212 278.192464 88.883754 Q 279.319032 90.518382 280.871612 93.042903 Q 282.657711 95.949259 283.642275 98.246573 Q 284.926625 101.250754 285.280058 102.121714 C 287.312298 107.107644 288.416776 112.910888 289.120486 118.941338 C 289.410806 121.427992 289.303514 124.309102 289.35716 126.158314 C 289.376094 126.858869 289.754772 127.01034 290.417459 127.01034 Q 292.989316 127.01034 293.339593 126.991407 Q 295.16356 126.896737 295.876737 128.515586 C 295.920916 128.616567 295.943006 128.723859 295.943006 128.831152 L 295.943006 136.297424 C 295.943006 136.66348 296.192302 136.982201 296.548891 137.070559 Q 299.433157 137.790047 299.717166 140.428172 Q 299.799212 141.169751 299.953839 141.740924 C 300.095844 142.261606 300.016952 142.820157 300.168424 143.49231 Q 300.537635 145.145872 300.540791 145.770691 Q 300.540791 146.17777 300.111622 146.985617 Q 299.565694 148.001737 298.309745 147.995426 Q 288.328418 147.94178 263.203117 148.105874 C 256.339574 148.153208 252.947248 148.068006 249.25198 148.415127 C 247.721489 148.557132 245.746051 148.424594 244.019909 148.654957 C 242.552531 148.850607 241.160888 148.787494 239.744001 149.039947 C 238.873041 149.197729 237.648648 149.144083 236.411632 149.292399 Q 230.611544 149.980331 226.761649 150.58306 Q 225.906467 150.715598 225.035507 150.857602 Q 218.307657 151.958925 211.052813 153.41368 C 210.601555 153.505194 209.942024 153.58093 209.301427 153.697689 Q 198.71737 155.619481 193.384318 156.042338 Q 190.39276 156.279012 187.549518 156.493596 C 183.494505 156.796539 179.669855 156.711336 175.731601 156.708181 Q 173.604692 156.708181 170.18081 156.477818 C 167.845627 156.320036 164.162981 156.165409 161.244003 155.821443 Q 158.183021 155.458543 157.8643 155.458543 C 156.264385 155.442764 154.405706 154.899992 152.619607 154.789544 C 152.395555 154.776922 152.17466 154.735898 151.960075 154.663318 Q 150.899776 154.319352 150.199222 154.205749 C 148.788645 153.981697 146.860542 153.296921 146.686981 151.611803 Q 146.522887 149.996109 148.11018 149.062036 Q 148.596151 148.778027 151.969542 146.922504 Q 159.681956 142.684464 170.127164 136.975889 C 170.44904 136.799173 170.651002 136.458362 170.651002 136.089151 L 170.651002 127.505778 C 170.651002 127.411108 170.673091 127.316439 170.717271 127.22808 Q 171.045458 126.549615 172.007932 126.495969 Q 172.695864 126.458101 178.262434 126.508592 Q 179.392158 126.521214 179.414247 125.467227 Q 179.433181 124.470041 179.49945 122.986884 C 179.578341 121.241809 180.029599 119.032852 180.193693 117.439248 C 180.209472 117.290933 180.237872 117.148928 180.282052 117.01008 C 180.600772 116.02236 180.730154 114.861081 180.954205 113.93963 Q 182.326914 108.294169 184.652629 102.869603 C 186.113696 99.464655 188.16487 95.920858 190.228666 92.881965 Q 191.058603 91.657572 193.264404 88.830108 C 193.504233 88.52401 193.29596 88.072751 192.904659 88.060129 Q 191.774936 88.028572 191.727601 88.028572 Q 183.122138 87.978082 134.294736 88.025417 Q 133.1019 88.025417 133.023008 86.914627 Q 132.947273 85.857484 133.120834 84.784562 C 133.17448 84.453219 133.445866 84.197611 133.780365 84.16921 C 135.071026 84.055606 136.652008 83.522301 138.125697 83.433943 C 139.00928 83.380297 140.028556 82.944817 141.038364 82.881704 C 142.262757 82.802813 143.417726 82.332621 144.705232 82.234795 Q 145.677173 82.15906 147.084593 81.748825 C 147.286555 81.688868 147.497984 81.654155 147.709412 81.641533 C 148.946428 81.575264 150.334915 81.076671 151.265832 81.016714 Q 152.269329 80.950445 153.421142 80.619102 Q 154.225834 80.388739 155.642721 80.300381 C 155.828905 80.290914 156.011933 80.259357 156.191805 80.212022 Q 157.870612 79.773387 158.041017 79.770231 C 159.552574 79.738675 160.966306 79.132789 162.462085 79.053898 Q 163.219442 79.012875 164.620551 78.631041 C 164.876159 78.558461 165.138078 78.514282 165.403153 78.492192 C 166.16682 78.429079 166.570744 78.419612 167.201874 78.246051 Q 168.625073 77.857906 169.912579 77.775859 C 170.183965 77.756925 170.458507 77.712746 170.723582 77.646477 Q 172.153092 77.283577 172.474969 77.252021 Q 174.548232 77.053215 175.535951 76.690315 Q 175.558041 76.684004 175.58013 76.677692 L 179.6951 75.973982 C 179.710879 75.970826 179.723501 75.970826 179.739279 75.970826 C 181.222436 75.91718 182.72137 75.346007 184.154036 75.28605 C 185.084954 75.245026 186.523931 74.77799 187.659966 74.658075 Q 188.862269 74.531849 190.317025 74.17526 C 190.522142 74.12477 190.730415 74.093213 190.941844 74.080591 Q 192.0621 74.023789 193.387474 73.720846 C 194.630801 73.436838 195.438648 73.402126 196.615706 73.178074 C 197.019629 73.102339 197.43302 73.114961 197.830632 73.212786 L 198.152508 73.291678 C 198.275579 73.323234 198.408116 73.32639 198.531187 73.297989 Q 200.563426 72.875132 201.238736 72.808863 Q 202.431572 72.692104 203.457159 72.427029 C 204.492213 72.161954 205.39473 72.161954 206.417161 71.877946 Q 207.471148 71.58447 208.427311 71.508734 C 209.563346 71.417221 210.932899 71.02592 211.926929 70.906005 Q 213.040874 70.773468 214.271578 70.407412 C 214.498785 70.341143 214.735459 70.30012 214.968977 70.287497 C 216.376398 70.20545 217.777508 69.706857 219.273287 69.586942 C 219.427914 69.57432 219.579385 69.545919 219.727701 69.498584 Q 220.980494 69.113595 222.088128 69.012614 C 223.344078 68.89901 224.533758 68.435129 225.60668 68.362549 Q 226.660668 68.286814 228.232183 67.860801 C 228.405743 67.813466 228.579304 67.781909 228.759176 67.772443 C 230.163441 67.680929 231.760201 67.188647 233.259136 67.059265 C 234.527708 66.945662 235.783658 66.50387 237.014362 66.462847 C 238.636367 66.406045 241.012573 65.89483 242.858629 65.812783 C 244.408054 65.746514 245.941701 65.339435 247.759357 65.197431 Q 248.775477 65.115384 249.968313 64.850309 C 251.167461 64.585234 252.06051 64.575767 253.218634 64.263358 Q 253.811897 64.102419 255.134115 63.91308 Q 255.206695 63.900458 257.04644 63.540713 Q 283.607562 58.324421 306.22412 53.792905 Q 309.34506 53.168085 309.913077 53.007147 Q 310.471627 52.85252 313.614657 52.316059 C 314.043825 52.243479 314.757003 52.761006 315.091502 53.183864 Q 316.259093 54.657553 317.922121 55.825144 C 319.591461 57.002203 321.510098 58.56425 322.680845 59.444677 Q 338.089893 71.016453 343.293563 74.809546 Q 344.555824 75.730997 346.660644 76.523065 C 346.749002 76.557777 346.846827 76.576711 346.944652 76.576711 L 353.92811 76.576711 C 353.984912 76.576711 354.041713 76.595645 354.089048 76.627202 Q 354.647599 77.024814 354.783292 77.526563 Q 355.518559 80.284602 356.433698 82.966907 Q 356.5189 83.222514 356.689305 84.270191 C 356.708239 84.383794 356.701928 84.497398 356.673527 84.607846 Q 356.37374 85.778592 356.086576 86.535949 Q 354.720179 90.133392 353.464229 93.699279 Q 353.053994 94.860559 351.674974 94.829002 Q 349.443929 94.775356 346.578597 94.787979 C 345.840174 94.791134 345.493052 94.929983 345.493052 95.728363 Q 345.499364 114.091101 345.508831 123.340317 C 345.508831 123.450765 345.48043 123.558057 345.429939 123.655882 C 344.97237 124.552088 344.230792 124.694092 343.104224 125.157973 C 342.848616 125.262109 342.842305 125.621854 343.091601 125.735457 Q 344.259192 126.268762 344.735696 126.536993 C 346.143117 127.329061 345.786528 129.336056 345.805462 131.469277 C 345.824396 133.372135 344.565291 133.741346 342.823371 133.712945 Q 340.851088 133.681389 337.594456 133.709789 Q 335.896715 133.725568 335.221405 132.640023 C 335.155137 132.532731 335.114113 132.415972 335.098335 132.289746 Q 334.729124 129.446504 335.170915 127.543646 C 335.376032 126.656907 337.215777 125.845905 337.982601 125.684967 C 338.257142 125.625009 338.373902 125.296821 338.194029 125.079081 L 337.389338 124.107141 C 337.357782 124.069273 337.335692 124.025094 337.326225 123.974603 Q 337.124263 122.971106 337.124263 122.866969 Q 337.15582 118.887692 337.231556 89.410748 C 337.234711 88.432496 336.489977 88.561877 335.641107 88.561877 Q 329.888354 88.561877 324.504811 88.558722 C 324.072487 88.558722 323.72221 88.908999 323.72221 89.341323 C 323.712743 97.729046 323.567583 106.987729 323.886304 115.687861 C 324.037775 119.764964 324.031464 122.548249 324.044086 126.022621 Q 324.053553 128.076951 324.239737 130.118658 C 324.410142 132.002582 324.306005 133.706634 324.460632 135.584247 C 324.697306 138.443267 324.545835 141.737768 324.779353 144.694614 C 325.009716 147.632526 324.930824 149.469115 325.195899 152.2524 C 325.34737 153.858627 325.158031 156.165409 325.388394 158.194493 C 325.451507 158.753043 325.628223 159.712361 325.612445 160.532831 Q 325.574577 162.388354 325.726049 163.537011 C 326.019524 165.739657 325.741827 167.465798 326.142595 169.778891 C 326.202552 170.119701 326.230953 170.463667 326.230953 170.810789 Q 326.21833 173.934885 326.313 174.774288 Q 326.638032 177.63962 326.578075 178.576849 C 326.473938 180.205165 326.928352 181.60943 326.87155 183.363973 Q 326.839994 184.238088 326.994621 185.276298 C 327.247073 187.002439 327.092446 188.67809 327.354365 190.397921 C 327.616284 192.101973 327.382766 193.701888 327.704642 195.40594 C 327.862425 196.245344 327.751977 197.466581 327.875048 198.74462 Q 327.950783 199.561934 327.177649 200.126796 C 327.101913 200.183597 327.013555 200.221465 326.922041 200.243555 Q 325.359993 200.606455 324.732018 199.025473 C 324.700462 198.94027 324.681528 198.855068 324.672061 198.76671 C 324.624726 198.21447 324.877178 196.261122 324.350184 194.818989 C 324.340718 194.790588 324.324939 194.762187 324.30285 194.736942 L 316.457899 186.008409 C 316.287494 185.822225 316.003485 185.800136 315.807835 185.961074 Z M 248.617694 68.179522 Q 248.863835 68.409884 249.163622 68.504554 C 253.688827 69.927753 258.204564 71.70754 262.278511 74.118459 Q 269.05054 78.129292 274.434082 83.885201 C 274.718091 84.188144 275.115703 84.358549 275.532249 84.358549 Q 290.988632 84.330148 305.217467 84.374327 C 305.962201 84.377483 306.511284 84.248101 307.199216 84.238634 C 307.476914 84.235479 307.704121 84.020894 307.723054 83.743197 Q 307.883993 81.50584 307.94395 79.1107 C 307.975507 77.87684 308.215336 76.990102 308.224803 75.784643 Q 308.231114 74.882126 308.461477 73.285366 Q 308.773887 71.089033 308.799132 70.795557 Q 308.915891 69.366047 309.124164 68.450908 Q 309.452352 66.992997 309.512309 66.109414 C 309.565955 65.361524 309.928855 64.345405 310.045614 63.512312 Q 310.165529 62.635041 310.402203 61.555808 Q 311.329965 57.324079 311.377299 56.913844 Q 311.440412 56.371072 311.380455 56.008172 C 311.336276 55.746253 311.096446 55.563225 310.834527 55.58847 L 308.90958 55.780965 C 308.890646 55.784121 308.871712 55.787277 308.852778 55.790432 C 307.309664 56.225912 305.905399 56.390006 304.251837 56.724505 Q 289.237246 59.760242 274.099583 62.723399 Q 273.869221 62.767579 265.664526 64.411673 Q 264.657873 64.613635 264.358086 64.601012 C 264.335996 64.601012 264.313907 64.604168 264.291817 64.607324 L 258.816761 65.765448 C 258.794671 65.768604 258.772582 65.771759 258.750492 65.774915 Q 257.365161 65.87274 255.935651 66.292442 C 255.755779 66.346088 255.569595 66.3808 255.380256 66.40289 Q 254.083283 66.538583 252.776843 66.936195 C 252.527547 67.01193 252.271939 67.052954 252.013175 67.059265 C 250.997055 67.08451 249.466564 67.235982 248.627161 67.914447 C 248.541958 67.980716 248.538803 68.106942 248.617694 68.179522 Z M 316.713507 65.847495 C 316.792398 65.702335 316.808176 65.538241 316.760842 65.383614 L 314.6718 58.532694 C 314.485617 57.926809 313.617812 57.967832 313.491586 58.589495 L 312.128345 65.266855 C 312.093632 65.430949 312.128345 65.60451 312.22617 65.740203 L 314.242631 68.60869 C 314.50455 68.981057 315.066256 68.946345 315.280841 68.545577 L 316.713507 65.847495 Z M 317.713848 59.103867 Q 317.669669 60.164166 317.717004 60.312481 Q 318.098838 61.46745 319.225406 65.203742 Q 319.648263 66.608007 319.894404 67.740886 C 320.364596 69.91513 320.677006 70.972274 320.954703 72.805707 Q 321.185066 74.348821 321.424895 75.361785 C 321.469074 75.544813 321.491164 75.734152 321.491164 75.920336 Q 321.497475 77.652789 321.819352 78.769889 C 321.920332 79.117011 322.242209 79.353685 322.605109 79.341062 C 328.159056 79.167502 333.618334 79.32844 339.491002 79.271638 Q 339.699275 79.271638 340.955225 79.025497 C 341.068828 79.003408 341.172965 78.940295 341.245545 78.848781 Q 342.350023 77.438204 340.989937 76.317948 Q 339.162815 74.815858 337.326225 73.436838 Q 327.269162 65.882207 323.138414 62.805446 C 321.831974 61.833506 320.254148 60.542844 318.603742 59.466767 C 318.344979 59.296361 318.174574 59.002886 317.918966 58.946084 C 317.817985 58.923995 317.72016 58.99973 317.713848 59.103867 Z M 311.285785 73.746092 L 311.752822 73.44946 C 311.793845 73.424215 311.828558 73.392659 311.860114 73.354791 L 313.46003 71.410909 C 313.690392 71.130056 313.661991 70.719821 313.396917 70.470525 L 312.8573 69.965621 C 312.78472 69.896196 312.731074 69.810994 312.705829 69.713168 Q 312.548046 69.126217 311.894826 68.349927 C 311.762289 68.192144 311.506681 68.274191 311.487747 68.479309 L 311.008088 73.575686 C 310.995466 73.727158 311.159559 73.828139 311.285785 73.746092 Z M 317.180543 68.510865 L 316.076065 70.59044 C 315.965617 70.795557 315.997174 71.044854 316.151801 71.215259 L 318.026258 73.301145 C 318.234531 73.534663 318.616365 73.323234 318.531162 73.023447 Q 318.341823 72.335515 318.329201 71.764342 C 318.307111 70.681954 317.963145 69.874107 317.622335 68.561356 C 317.568688 68.349927 317.281524 68.31837 317.180543 68.510865 Z M 224.770432 88.495609 Q 227.001478 87.410064 229.35875 86.630618 Q 233.555767 85.242132 236.490524 84.866609 Q 236.897603 84.812963 238.134618 84.667803 Q 243.391934 84.055606 247.503749 84.188144 Q 252.076288 84.333304 255.235096 84.405884 Q 255.88516 84.418506 256.323796 84.09663 C 256.475267 83.986182 256.453178 83.75582 256.285928 83.673773 Q 253.306993 82.212706 249.476031 81.269166 C 248.327374 80.985157 247.409079 81.007247 246.433983 80.776884 Q 245.443108 80.543366 244.146135 80.486564 Q 239.958585 80.306692 236.705108 80.477097 Q 236.316963 80.499187 235.016834 80.909422 C 234.963188 80.9252 234.912698 80.934667 234.859052 80.937822 L 233.356961 81.010402 C 233.249669 81.016714 233.142377 81.045115 233.047707 81.095605 Q 232.287195 81.496373 231.788602 81.572108 C 230.983911 81.695179 230.428516 82.102258 229.693249 82.225328 C 229.109454 82.323154 228.724464 82.673431 228.14698 82.796501 Q 227.597896 82.916416 226.973077 83.197269 Q 224.426466 84.342771 222.731881 85.23582 C 216.549959 88.489297 211.018101 94.052712 207.449059 99.92538 Q 204.258695 105.173229 202.867052 108.600267 Q 201.974003 110.796601 201.134599 112.607945 Q 201.118821 112.639502 200.866369 113.264321 Q 200.607606 113.904918 199.818693 116.236945 Q 199.405302 117.445559 199.042402 117.679078 Q 198.35447 118.117713 197.404619 117.735879 C 197.300482 117.6917 197.212124 117.61912 197.155322 117.521295 Q 196.719842 116.782873 196.801889 116.164365 C 197.038563 114.3972 197.107988 113.264321 197.467732 111.793787 Q 198.190376 108.83063 198.632167 107.360096 Q 199.641976 104.005638 201.412297 100.389261 Q 203.28991 96.551988 205.230636 93.926486 Q 209.901 87.596248 215.268764 83.437099 Q 222.463651 77.867373 230.879774 74.449802 Q 234.571887 72.954023 235.575385 72.682637 Q 236.588349 72.411251 236.288562 71.407754 C 236.225449 71.202636 236.032954 71.063787 235.81837 71.07641 C 234.202676 71.152146 232.870991 71.455088 231.359434 71.549758 Q 230.564209 71.600248 229.74374 71.862167 Q 229.645915 71.893724 228.14698 72.155643 Q 227.679943 72.23769 226.578621 72.559567 Q 221.520111 74.033256 218.424416 75.563747 Q 206.710636 81.344901 198.322914 92.077274 Q 192.936216 98.972373 189.625937 107.5021 Q 189.354551 108.202655 189.291438 108.328881 C 188.953783 109.02628 189.004273 109.505939 188.69502 110.206494 Q 188.546704 110.547304 188.351053 111.238392 Q 187.855616 112.974001 187.297066 115.113533 Q 186.659624 117.556007 186.454507 119.196946 C 186.192588 121.289144 185.807598 123.072087 185.810754 125.069615 C 185.810754 125.839594 185.678216 126.47388 186.599667 126.470724 Q 210.377504 126.413922 234.016492 126.429701 C 234.347836 126.429701 234.641312 126.215116 234.742292 125.896395 Q 235.048391 124.930766 235.067325 123.927269 C 235.07048 123.744241 235.09257 123.564369 235.139905 123.387652 Q 235.638498 121.472171 235.701611 119.847011 C 235.707922 119.676605 235.736323 119.5062 235.786813 119.345262 C 235.960374 118.767778 236.212826 117.518139 236.266472 116.754472 Q 236.348519 115.605814 236.720886 113.248542 Q 236.948093 111.793787 236.916537 111.342529 Q 236.910225 111.292038 237.115343 109.423892 C 237.34255 107.360096 237.56029 106.432334 237.550823 104.699881 C 237.5382 103.128367 237.847454 101.146617 237.87901 99.46781 Q 237.948435 95.974504 237.942123 88.953178 C 237.942123 88.861664 237.92319 88.77015 237.888477 88.684948 Q 237.604469 87.981237 237.08063 87.962304 C 234.884297 87.873945 231.296321 87.813988 228.617172 88.16111 Q 227.212907 88.340982 224.8083 88.621835 C 224.776744 88.62499 224.745187 88.606057 224.73572 88.5745 C 224.726253 88.542944 224.742031 88.511387 224.770432 88.495609 Z M 319.165448 78.523749 Q 318.982421 78.078802 318.969798 77.60861 C 318.966642 77.482384 318.925619 77.362469 318.846728 77.264644 C 318.499606 76.822852 318.165107 76.191722 317.723315 75.708907 Q 315.90566 73.736625 315.094657 72.89091 C 314.930563 72.720505 314.652866 72.736283 314.510862 72.925622 L 311.235295 77.283577 C 311.191116 77.343535 311.156404 77.406648 311.128003 77.476072 Q 310.837683 78.208183 311.13747 78.952917 C 311.244762 79.221148 311.509837 79.397864 311.803312 79.391553 L 318.695256 79.249549 C 319.064467 79.243237 319.310608 78.864559 319.165448 78.523749 Z M 229.680627 81.007247 C 230.431672 81.016714 231.324721 81.007247 232.173592 80.701148 Q 233.148688 80.347715 234.354147 80.303536 C 234.565576 80.294069 234.773849 80.246735 234.966344 80.164688 L 237.367795 79.135945 C 237.383573 79.126478 237.402507 79.120167 237.421441 79.117011 Q 238.005237 78.997096 239.125493 78.615263 C 239.889161 78.353343 241.056752 78.533216 241.911934 78.621574 Q 248.964816 79.350529 255.560128 81.91923 C 256.677229 82.351554 258.075183 83.023708 259.103925 83.967248 Q 259.482604 84.317526 259.97173 84.31437 Q 263.900516 84.289125 266.317746 84.336459 C 266.664867 84.342771 266.851051 83.92938 266.614377 83.673773 Q 262.130195 78.836158 256.068188 76.008694 C 255.992452 75.973982 255.913561 75.958204 255.831514 75.955048 L 250.46375 75.8446 C 250.287034 75.841445 250.113473 75.79411 249.958846 75.712063 L 245.919612 73.566219 C 245.865965 73.537819 245.809164 73.52204 245.749206 73.512573 Q 241.634236 72.900377 238.642678 74.263619 Q 235.865705 75.525879 231.678154 78.053557 Q 230.141352 78.981318 229.349283 80.451852 C 229.216746 80.701148 229.396618 81.004091 229.680627 81.007247 Z M 208.840701 74.601273 C 209.004795 74.374066 208.796522 74.067968 208.525136 74.137392 Q 206.587566 74.623363 205.221169 74.708565 C 205.03183 74.718032 204.84249 74.752745 204.659463 74.812702 Q 203.365645 75.229248 202.409483 75.257649 C 201.087265 75.301828 199.825004 75.973982 198.445984 75.967671 C 197.906368 75.964515 197.300482 76.210656 197.347817 76.797607 C 197.499288 78.732022 197.297327 81.04827 197.388841 83.216203 C 197.398308 83.427632 197.587647 83.585414 197.79592 83.557013 C 198.363937 83.474967 198.338692 83.108911 198.660568 82.796501 Q 201.538523 80.003749 204.365987 77.835817 Q 204.397544 77.813727 204.517458 77.775859 Q 204.618439 77.744303 204.659463 77.70959 Q 206.571788 76.160165 208.446245 75.065154 C 208.512514 75.027286 208.569315 74.976796 208.613494 74.913683 L 208.840701 74.601273 Z M 185.570924 77.551808 C 185.217491 77.605454 185.135444 78.075646 185.451009 78.242896 L 188.480435 79.852278 C 188.60035 79.918547 188.751821 79.90908 188.865425 79.830189 L 192.548071 77.239398 C 192.863636 77.015347 192.66483 76.513598 192.27984 76.5704 L 185.570924 77.551808 Z M 194.615023 78.201872 C 194.100651 78.280763 193.579969 78.773045 192.974084 79.104389 C 192.88257 79.154879 192.800523 79.214836 192.727943 79.287416 Q 191.951652 80.022683 190.885042 80.716927 C 190.601033 80.90311 190.525298 81.26601 190.724104 81.480594 Q 190.727259 81.48375 191.11856 81.609976 C 191.229008 81.644688 191.333145 81.698334 191.427814 81.770914 Q 192.604872 82.648186 193.990203 83.503367 Q 194.491952 83.812621 194.867475 83.509679 C 194.936899 83.452877 194.977923 83.367674 194.977923 83.279316 L 194.977923 78.514282 C 194.977923 78.321787 194.804362 78.173471 194.615023 78.201872 Z M 174.923755 84.298592 C 174.904821 84.434285 175.015268 84.554199 175.150961 84.547888 Q 178.398127 84.424818 181.468577 84.427973 Q 182.468918 84.431129 182.948577 84.09663 Q 185.056553 82.626096 186.51762 81.486906 C 186.672247 81.366991 186.669091 81.130317 186.508153 81.013558 Q 185.62457 80.372961 183.254676 78.952917 Q 182.443673 78.463791 182.080773 78.45748 C 180.954205 78.438546 180.177915 78.867715 179.240686 79.804943 Q 176.353265 82.698676 175.397102 83.497056 Q 174.990023 83.837866 174.923755 84.298592 Z M 177.479833 79.287416 L 177.224225 79.214836 C 177.069598 79.170657 176.90866 79.164346 176.750877 79.199058 L 174.529298 79.685029 Q 174.522987 79.685029 174.519831 79.685029 Q 173.001963 79.703962 171.581919 80.208867 C 171.408358 80.27198 171.22533 80.306692 171.042303 80.316159 C 170.278635 80.350871 169.259359 80.410828 168.804945 81.060893 C 168.710276 81.196586 168.72921 81.382769 168.85228 81.493217 L 171.667122 84.071385 C 171.673433 84.077696 171.679744 84.084007 171.689211 84.087163 Q 172.203583 84.320681 172.743199 83.853645 Q 174.197955 82.585073 177.5177 79.4736 C 177.577658 79.416798 177.558724 79.315817 177.479833 79.287416 Z M 149.587025 83.97356 Q 149.422931 84.030361 149.205191 83.97356 L 148.877004 84.014583 L 147.91453 84.137653 C 147.860884 84.143965 147.81986 84.1913 147.81986 84.244946 C 147.81986 84.298592 147.860884 84.342771 147.91453 84.349082 Q 149.05372 84.487931 150.227623 84.222856 C 151.849628 84.298592 153.547368 84.150276 155.065237 84.29228 Q 157.927413 84.554199 160.868481 84.323837 C 160.994707 84.31437 161.117777 84.289125 161.234536 84.248101 C 162.569377 83.790532 164.024133 82.540894 164.999229 82.001277 C 165.068654 81.960254 165.125455 81.906608 165.169634 81.843494 L 165.4852 81.370147 C 165.542001 81.281788 165.466266 81.165029 165.362129 81.183963 L 149.587025 83.97356 Z M 191.377324 84.415351 C 191.677111 84.396417 191.762313 83.995649 191.497238 83.853645 L 188.837024 82.439913 C 188.742354 82.389422 188.631907 82.395734 188.540393 82.44938 Q 186.5902 83.626438 186.019027 84.232323 C 185.823376 84.443752 186.047428 84.775095 186.315658 84.670959 C 186.798473 84.484775 187.590541 84.399573 188.193271 84.434285 Q 189.698517 84.522643 191.377324 84.415351 Z M 164.964517 84.617313 L 165.810232 84.51002 C 165.838633 84.506865 165.863878 84.506865 165.889123 84.503709 L 169.044775 84.380639 C 169.246737 84.371172 169.325628 84.115564 169.16469 83.992493 L 167.754113 82.932194 C 167.454326 82.704987 167.044092 82.698676 166.734838 82.916416 L 165.163323 84.02405 C 165.10021 84.068229 165.052875 84.125031 165.021319 84.194455 L 164.879314 84.500553 C 164.850914 84.560511 164.901404 84.626779 164.964517 84.617313 Z M 279.656686 108.90321 Q 279.615663 107.265426 279.218051 105.981076 Q 278.602699 104.008794 278.340779 103.380819 Q 274.800138 94.819535 267.841925 88.811174 Q 267.094036 88.164265 266.200986 88.097997 Q 263.067424 87.861323 260.161069 88.107464 C 259.85497 88.135864 259.406868 87.99386 259.220684 88.063284 C 258.794671 88.224223 258.782049 88.820641 259.20175 89.000513 Q 263.490281 90.840258 267.138215 93.759236 Q 272.458644 98.022522 276.387431 104.942867 Q 278.154596 108.060651 278.403892 108.527687 Q 278.829905 109.332378 279.461036 109.165129 C 279.577795 109.133572 279.659842 109.02628 279.656686 108.90321 Z M 319.209627 89.647422 C 319.288519 89.435993 319.130736 89.211942 318.906685 89.211942 C 316.470522 89.211942 312.803654 89.117272 312.626938 89.256121 C 312.500711 89.357102 312.491245 89.549596 312.608004 89.666356 Q 313.936533 90.979107 315.30293 92.25399 C 315.605873 92.537999 316.066598 92.563244 316.397942 92.313948 C 316.928091 91.91318 317.821141 91.004352 318.676322 90.373222 Q 319.045534 90.101836 319.209627 89.647422 Z M 311.50037 91.001196 C 311.254229 90.742433 310.821905 90.912838 310.815593 91.269427 L 310.746169 97.075826 C 310.739858 97.432415 311.172182 97.615443 311.424634 97.362991 L 314.302589 94.494503 C 314.45406 94.339876 314.457216 94.093735 314.3089 93.939108 L 311.50037 91.001196 Z M 320.36144 97.546018 C 320.569713 97.782692 320.961014 97.637532 320.967326 97.321967 L 321.055684 90.963329 C 321.05884 90.647763 320.67385 90.493136 320.45611 90.720343 L 317.483486 93.857061 C 317.360415 93.989599 317.35726 94.194716 317.477175 94.327253 L 320.36144 97.546018 Z M 315.839391 98.031989 Q 316.647238 98.044611 318.089371 98.095102 C 318.354446 98.104569 318.471205 97.763758 318.256621 97.605976 Q 317.672825 97.176807 316.653549 96.15122 Q 316.233848 95.728363 315.870948 95.722052 Q 315.508048 95.718896 315.075723 96.132286 Q 314.031203 97.129472 313.434784 97.542863 C 313.217044 97.694334 313.324337 98.0383 313.592567 98.0383 Q 315.031544 98.022522 315.839391 98.031989 Z M 343.59335 96.634035 C 343.59335 96.327937 343.344053 96.07864 343.037955 96.07864 L 339.724521 96.07864 C 339.418422 96.07864 339.169126 96.327937 339.169126 96.634035 L 339.169126 122.270551 C 339.169126 122.57665 339.418422 122.825946 339.724521 122.825946 L 343.037955 122.825946 C 343.344053 122.825946 343.59335 122.57665 343.59335 122.270551 L 343.59335 96.634035 Z M 314.826427 108.092207 Q 315.132525 108.287858 315.255596 108.480352 C 315.514359 108.890587 316.047664 108.994724 316.372696 108.701248 Q 318.682634 106.627985 320.146856 104.639924 Q 320.421398 104.264401 320.531846 103.406064 C 320.544468 103.298772 320.525534 103.19148 320.475044 103.09681 Q 319.518881 101.275999 317.64758 100.950967 Q 315.280841 100.534421 313.065573 101.234976 Q 312.412353 101.443249 311.528771 102.440435 C 311.453035 102.522482 311.412012 102.629774 311.408856 102.740222 Q 311.383611 103.680606 311.446724 103.813143 C 311.828558 104.639924 312.541735 105.643421 313.466341 106.602739 Q 314.551885 107.732463 314.614998 107.858689 C 314.662333 107.956514 314.734913 108.035405 314.826427 108.092207 Z M 311.150092 107.000352 C 310.982843 106.826791 310.689367 106.940394 310.683056 107.183379 L 310.541052 113.980654 C 310.537896 114.223639 310.82506 114.349865 311.001777 114.182615 L 314.488772 110.856558 C 314.596064 110.752422 314.602376 110.578861 314.495084 110.471569 L 311.150092 107.000352 Z M 320.954703 114.359332 C 321.18191 114.529737 321.494319 114.305686 321.402806 114.037455 Q 321.25449 113.589353 321.245023 113.343212 Q 321.15982 111.083765 321.207155 107.237026 C 321.207155 107.091866 321.068306 106.987729 320.929458 107.031908 C 320.411931 107.199158 320.380374 107.473699 320.074276 107.779798 Q 318.887751 108.969478 317.811674 110.156004 C 317.549755 110.443168 317.55291 110.884959 317.817985 111.165812 L 320.421398 113.93963 C 320.459266 113.980654 320.500289 114.018521 320.547624 114.053234 L 320.954703 114.359332 Z M 259.763457 109.575364 C 259.305887 110.001377 258.561153 110.52837 258.147763 111.014341 Q 254.484051 115.331273 256.087122 121.065092 C 256.809766 123.652727 258.920897 125.833282 261.347594 126.940916 Q 266.200986 129.149872 271.726533 128.2442 C 280.480311 126.805223 282.089694 117.972553 277.876899 111.468755 C 276.318007 109.064148 273.626235 107.745085 270.874507 107.296983 Q 266.469217 106.574339 262.508874 108.007005 C 261.562178 108.350971 260.38512 108.997879 259.763457 109.575364 Z M 320.049031 117.095282 C 320.235214 116.909099 320.244681 116.612467 320.067965 116.416817 L 316.347451 112.279757 C 316.151801 112.062017 315.814146 112.062017 315.618496 112.276602 L 311.844336 116.394727 C 311.664464 116.587222 311.673931 116.890165 311.860114 117.076348 L 315.61534 120.83473 C 315.807835 121.027224 316.117089 121.027224 316.309583 120.83473 L 320.049031 117.095282 Z M 311.175338 119.010763 C 310.948131 118.761466 310.53474 118.919249 310.528429 119.256904 L 310.421137 126.066801 C 310.417981 126.404455 310.82506 126.57486 311.061734 126.335031 L 314.334145 122.977417 C 314.472994 122.838569 314.47615 122.614517 314.343612 122.466202 L 311.175338 119.010763 Z M 317.761183 122.11908 C 317.717004 122.163259 317.691759 122.223216 317.691759 122.28633 L 317.691759 122.854347 C 317.691759 122.914304 317.713848 122.971106 317.751716 123.012129 L 321.080929 126.716865 C 321.226089 126.880959 321.494319 126.776822 321.494319 126.559082 L 321.494319 118.957117 C 321.494319 118.745688 321.238712 118.641552 321.090396 118.789867 L 317.761183 122.11908 Z M 316.435809 124.675158 C 316.186513 124.425862 315.782589 124.425862 315.533293 124.675158 L 311.547705 128.660746 C 311.311031 128.89742 311.298408 129.285565 311.525615 129.534862 L 315.514359 133.971709 C 315.757344 134.243095 316.180202 134.252562 316.438965 133.993798 L 320.645449 129.787314 C 320.894746 129.538018 320.894746 129.134094 320.645449 128.884798 L 316.435809 124.675158 Z M 310.33909 135.890345 Q 310.24442 138.28864 310.159218 139.844377 C 310.152906 139.999004 310.317 140.106296 310.455849 140.033716 Q 310.979687 139.76233 311.257385 139.320539 C 311.285785 139.273204 311.320498 139.229025 311.361521 139.194313 L 313.990179 136.710814 C 314.031203 136.672947 314.122717 136.609834 314.248943 136.534098 Q 314.573975 136.341603 314.583442 136.051283 Q 314.596064 135.764119 314.28681 135.546379 C 314.166896 135.461176 314.078537 135.391752 314.043825 135.350728 L 311.613973 132.67158 C 311.57295 132.633712 311.541393 132.589533 311.519304 132.539043 Q 311.276319 132.075162 310.77457 131.765908 C 310.642033 131.683861 310.468472 131.775375 310.465316 131.933157 Q 310.430604 133.488894 310.33909 135.890345 Z M 321.655258 140.144164 C 321.759394 140.194654 321.876153 140.115763 321.876153 139.999004 L 321.708904 132.005737 C 321.705748 131.769064 321.415428 131.65546 321.248179 131.825865 L 318.455427 134.706976 C 318.442804 134.716442 318.433337 134.729065 318.42387 134.744843 Q 318.193508 135.101432 317.855853 135.439087 C 317.571844 135.726251 317.612868 136.196443 317.941055 136.429961 Q 318.524851 136.843352 319.013977 137.588086 C 319.042378 137.632265 319.07709 137.673288 319.111802 137.708 Q 320.058498 138.683097 320.961014 139.658193 Q 321.216622 139.935891 321.655258 140.144164 Z M 311.730732 141.718834 C 311.689709 141.759858 311.667619 141.813504 311.670775 141.870305 L 311.680242 142.30263 C 311.680242 142.416233 311.778067 142.507747 311.891671 142.507747 L 320.244681 142.334186 C 320.421398 142.331031 320.512912 142.119602 320.396153 141.987064 L 316.312739 137.446081 C 316.230692 137.357723 316.094999 137.351412 316.009796 137.436614 L 311.730732 141.718834 Z M 153.462166 150.504169 C 153.395897 150.747154 153.569458 151.028007 153.875556 151.166856 Q 154.538243 151.469799 155.459693 151.54869 Q 158.631124 151.81692 160.69492 152.113552 C 162.282213 152.343914 163.617054 152.302891 165.264304 152.533253 C 166.498164 152.703658 167.681533 152.577432 168.899615 152.738371 Q 170.023027 152.889842 171.626098 152.921398 Q 180.070623 153.101271 187.704145 152.902464 Q 188.357365 152.883531 191.847516 152.504852 C 193.946024 152.27449 196.025599 152.220844 198.335536 151.788519 C 199.070803 151.649671 200.121635 151.67176 201.008373 151.495044 Q 202.706114 151.160545 204.050422 151.028007 C 205.309527 150.904937 206.234133 150.554659 207.40488 150.425278 Q 207.811959 150.381099 209.680105 150.033977 Q 222.971711 147.57888 224.003609 147.367451 C 224.73572 147.21598 225.508855 147.247536 226.199943 147.092909 Q 227.768302 146.742632 229.361906 146.603783 C 231.154316 146.449156 232.599605 146.079945 234.278412 145.966342 Q 236.174958 145.83696 238.82255 145.480371 C 239.968052 145.325744 241.176667 145.439348 242.104428 145.284721 C 243.843193 145.000712 245.342127 145.063825 247.166094 144.849241 Q 248.229549 144.72617 249.778974 144.732482 Q 252.20567 144.741949 261.783074 144.536831 C 269.912033 144.36327 282.395792 144.577855 296.100788 144.505275 C 298.726291 144.492652 298.063604 141.766169 297.523987 140.12523 C 297.492431 140.024249 297.426162 139.935891 297.337804 139.875933 Q 296.173368 139.068086 295.390767 139.068086 Q 221.835676 139.093332 174.687081 139.096487 C 173.478466 139.096487 172.670619 139.358406 171.673433 139.8854 Q 165.873345 142.949538 161.266093 145.593975 Q 159.063448 146.856235 154.40255 149.358667 Q 153.67675 149.749968 153.462166 150.504169 Z M 316.120244 149.49436 Q 316.233848 149.49436 316.240159 149.488049 Q 318.578497 147.326428 320.790609 144.849241 C 320.923146 144.704081 320.926302 144.48003 320.79692 144.328558 Q 320.733807 144.252823 320.541313 144.26229 Q 318.269243 144.347492 316.139178 144.338025 Q 314.012269 144.331714 311.743355 144.227577 Q 311.547705 144.21811 311.484592 144.293846 C 311.35521 144.445317 311.35521 144.666213 311.487747 144.814529 Q 313.680925 147.307494 316.003485 149.488049 Q 316.006641 149.49436 316.120244 149.49436 Z M 317.701226 151.106899 C 317.628646 151.188946 317.628646 151.312016 317.701226 151.390907 L 322.109672 156.297946 C 322.242209 156.446262 322.48835 156.345281 322.478883 156.146475 L 322.027625 146.919348 C 322.018158 146.733165 321.787795 146.647962 321.661569 146.786811 L 317.701226 151.106899 Z M 310.074015 155.824598 Q 310.730391 155.483788 311.449879 154.50238 Q 311.456191 154.496069 311.462502 154.489757 L 312.781565 153.154917 Q 312.787876 153.148605 312.791031 153.14545 L 314.54873 151.507666 C 314.59922 151.460332 314.602376 151.38144 314.558197 151.33095 L 312.093632 148.490863 Q 312.087321 148.484552 312.08101 148.478241 Q 311.323653 147.831332 310.635721 146.928815 C 310.474783 146.717387 310.137128 146.821523 310.124506 147.086598 C 310.077171 148.071161 310.09926 149.402847 309.969879 150.772399 Q 309.730049 153.284298 309.862586 155.701528 C 309.865742 155.80882 309.979346 155.871933 310.074015 155.824598 Z M 321.661569 159.636626 C 321.854064 159.425197 321.857219 159.100165 321.664725 158.888736 L 316.489456 153.132827 C 316.271716 152.886686 315.886726 152.886686 315.662675 153.129671 L 310.500028 158.765666 C 310.307533 158.977094 310.304378 159.302127 310.496873 159.513555 L 315.672142 165.269464 C 315.889882 165.515605 316.274871 165.515605 316.498922 165.27262 L 321.661569 159.636626 Z M 309.616446 172.55902 Q 310.010902 172.65369 310.168685 172.12354 C 310.200241 172.019404 310.279133 171.937357 310.380113 171.899489 Q 310.654655 171.801664 310.834527 171.448231 C 310.840839 171.435608 310.850306 171.422986 310.859772 171.413519 L 314.545574 167.342728 C 314.678111 167.194412 314.608687 166.960894 314.416192 166.910403 C 314.078537 166.822045 313.999646 166.52857 313.813463 166.320296 Q 312.377641 164.720381 310.414826 162.511425 Q 310.020369 162.063322 309.947789 162.003365 C 309.805785 161.880294 309.584889 161.974964 309.581733 162.164303 L 309.37346 172.243455 C 309.370305 172.391771 309.471286 172.524308 309.616446 172.55902 Z M 322.614576 172.789383 C 322.813382 172.84934 323.012188 172.70418 323.021655 172.499063 C 323.062678 171.243113 322.784981 170.132324 322.77867 168.888997 Q 322.750269 163.805242 322.747113 163.574879 Q 322.737646 162.776499 322.532529 162.211638 C 322.491505 162.098034 322.358968 162.050699 322.257987 162.110657 Q 321.926644 162.309463 321.715215 162.602939 Q 321.216622 163.297182 320.307794 164.073472 C 320.298327 164.082939 320.292016 164.089251 320.285705 164.098718 L 317.799051 166.932493 C 317.669669 167.080809 317.666514 167.301704 317.795895 167.45002 Q 320.648605 170.779233 322.314789 172.55902 Q 322.497817 172.751515 322.614576 172.789383 Z M 321.819352 175.834587 C 322.011846 175.626314 322.011846 175.307593 321.825663 175.09932 L 316.539946 169.217185 C 316.325362 168.9742 315.946683 168.9742 315.725788 169.214029 L 310.386425 175.04883 C 310.19393 175.257103 310.19393 175.575824 310.383269 175.784097 L 315.66583 181.663076 C 315.88357 181.906061 316.259093 181.906061 316.479989 181.669387 L 321.819352 175.834587 Z M 308.868556 183.603802 C 308.868556 183.745806 308.98216 183.85941 309.124164 183.85941 L 314.242631 183.85941 C 314.463527 183.85941 314.580286 183.597491 314.435126 183.433397 L 309.313503 177.737445 C 309.158876 177.563884 308.868556 177.674332 308.868556 177.90785 L 308.868556 183.603802 Z M 323.330909 178.327552 C 323.318286 177.999364 322.914363 177.847893 322.690312 178.087723 L 317.814829 183.225124 C 317.587622 183.464953 317.758028 183.856254 318.089371 183.853099 L 323.163659 183.78683 C 323.371932 183.783674 323.539182 183.610113 323.529715 183.398685 L 323.330909 178.327552 Z M 308.874867 185.752801 C 308.710774 185.752801 308.57508 185.875871 308.559302 186.039965 L 308.155379 190.36952 C 308.126978 190.669307 308.496189 190.833401 308.701307 190.609349 L 312.667961 186.282951 C 312.850989 186.077833 312.708985 185.752801 312.434443 185.752801 L 308.874867 185.752801 Z M 319.361099 186.194592 Q 319.597773 186.560648 320.191035 187.011906 C 320.31095 187.10342 320.418242 187.210712 320.516067 187.327471 Q 321.920332 189.006278 322.428392 189.451225 Q 322.775514 189.754168 322.800759 189.880394 C 322.819693 189.968752 322.873339 190.053955 322.952231 190.117068 Q 323.084768 190.22436 323.57705 190.817622 C 323.693809 190.956471 323.902082 190.95016 323.987284 190.808155 Q 324.040931 190.719797 324.037775 190.555703 C 324.037775 189.555362 324.217647 186.516469 323.476069 185.872716 C 323.394022 185.800136 323.28673 185.762268 323.176282 185.762268 L 319.594617 185.762268 C 319.373721 185.762268 319.241184 186.008409 319.361099 186.194592 Z" style="fill:#57595d;"/>
		<path d="M 149.587025 83.97356 Q 149.760586 84.162899 150.227623 84.222856 Q 149.05372 84.487931 147.91453 84.349082 C 147.860884 84.342771 147.81986 84.298592 147.81986 84.244946 C 147.81986 84.1913 147.860884 84.143965 147.91453 84.137653 L 148.877004 84.014583 Q 149.056876 84.030361 149.205191 83.97356 Q 149.422931 84.030361 149.587025 83.97356 Z" style="fill:#fee401;"/>
		<path d="M 259.763457 109.575364 C 260.38512 108.997879 261.562178 108.350971 262.508874 108.007005 Q 266.469217 106.574339 270.874507 107.296983 C 273.626235 107.745085 276.318007 109.064148 277.876899 111.468755 C 282.089694 117.972553 280.480311 126.805223 271.726533 128.2442 Q 266.200986 129.149872 261.347594 126.940916 C 258.920897 125.833282 256.809766 123.652727 256.087122 121.065092 Q 254.484051 115.331273 258.147763 111.014341 C 258.561153 110.52837 259.305887 110.001377 259.763457 109.575364 Z M 260.801666 118.748844 Q 260.849001 121.330167 263.540772 123.150978 C 265.727639 124.634135 268.533013 125.227397 271.051223 124.387994 C 273.515788 123.564369 275.096769 121.254431 275.049434 118.493236 C 274.998944 115.728885 273.33276 113.478905 270.84295 112.746794 C 268.296339 111.995749 265.513054 112.689992 263.379834 114.248884 Q 260.754331 116.16752 260.801666 118.748844 Z" style="fill:#fee401;"/>
		<path d="M 275.049434 118.493236 C 275.096769 121.254431 273.515788 123.564369 271.051223 124.387994 C 268.533013 125.227397 265.727639 124.634135 263.540772 123.150978 Q 260.849001 121.330167 260.801666 118.748844 Q 260.754331 116.16752 263.379834 114.248884 C 265.513054 112.689992 268.296339 111.995749 270.84295 112.746794 C 273.33276 113.478905 274.998944 115.728885 275.049434 118.493236 Z" style="fill:#57595d;"/>
	</g>
	<g id="surface4">
	</g>
</svg>
