<?xml version="1.0" encoding="utf-8"?>
<svg xmlns="http://www.w3.org/2000/svg" width="490pt" height="280pt" viewBox="0 0 490 280" version="1.1" xmlns:xlink="http://www.w3.org/1999/xlink">
	<g id="surface2" data-size="163.20305405329 148" data-bboxpos="163.5 50.722417174152" data-pivot="245.10152702664 124.72241717415" data-center="245.10152702664 124.72241717415">
		<path stroke-linecap="butt" vector-effect="non-scaling-stroke" d="M 173.1033 157.40848 Q 173.648739 157.453343 174.149315 157.153469 C 175.825773 156.149956 177.431395 154.799344 178.196427 153.037883 C 178.902428 151.406288 177.92961 149.231614 176.031198 148.922296 C 175.325197 148.808958 174.989905 149.075775 174.713644 149.65191 C 173.887221 151.373231 173.499983 153.408592 173.00649 155.370757 Q 172.768008 156.319963 172.857734 157.172359 C 172.871901 157.299864 172.975795 157.399035 173.1033 157.40848" style="fill:none;stroke-width:0.50;stroke:#ffb401;"/>
		<path d="M 247.748187 75.554823 C 247.497899 76.548892 246.392853 76.619728 246.024505 75.684689 C 245.802551 75.117999 245.519206 74.048372 245.476704 73.285701 C 245.427119 72.409693 245.228777 71.557297 245.250028 70.674205 Q 245.259473 70.296411 245.13669 66.194992 Q 245.011546 61.930649 245.245306 55.897761 C 245.304336 54.396033 245.441286 52.745548 245.932417 51.487024 C 246.220485 50.752688 246.971349 50.481149 247.589986 50.955752 C 247.6561 51.005337 247.705685 51.071451 247.738742 51.144648 Q 248.140147 52.037185 248.208623 52.459842 C 248.683225 55.427881 248.756423 58.37703 248.737533 62.095934 C 248.718644 65.826643 248.380991 69.245674 248.291265 72.582061 C 248.267653 73.49821 247.93 74.832293 247.748187 75.554823 Z" style="fill:#ff8a01;"/>
		<path d="M 226.254105 53.267375 C 227.179699 52.705407 227.911674 54.07727 228.223353 54.856468 Q 229.104084 57.071282 229.403957 58.282582 Q 229.60466 59.101921 229.649523 59.201092 C 229.935229 59.833896 229.895089 60.395864 230.140654 61.075892 C 230.412193 61.822034 230.416916 62.55637 230.728595 63.363903 C 230.752207 63.427656 230.771097 63.491408 230.782903 63.559883 Q 231.10875 65.356763 231.583353 67.309482 C 231.791139 68.168962 231.845447 69.17956 232.055595 69.802919 C 232.374358 70.74268 232.294077 71.729665 232.572699 72.780403 Q 232.714372 73.314036 232.740345 74.223101 Q 232.80882 76.563059 232.721455 77.002244 C 232.704927 77.087247 232.669509 77.16989 232.619923 77.240726 Q 232.100458 77.9727 231.215004 77.576017 C 230.485391 77.247809 229.786473 74.615062 229.429931 73.446264 Q 228.88213 71.644661 227.713332 67.01197 Q 226.584674 62.530396 225.725194 56.887108 C 225.602412 56.086658 225.432404 53.76559 226.254105 53.267375 Z" style="fill:#ff8a01;"/>
		<path d="M 261.339303 78.171042 C 260.541215 77.977423 260.796225 75.597325 260.923731 75.016467 C 261.063042 74.371857 261.046514 73.996425 261.223604 73.358899 C 261.440835 72.574978 261.551812 71.668274 261.754876 70.780459 Q 262.734778 66.438197 263.898854 62.367473 Q 265.155017 57.975625 266.035747 55.95443 C 266.515073 54.856468 267.169127 53.340572 268.434735 54.081992 C 268.507933 54.124494 268.559879 54.192969 268.58113 54.275611 Q 268.781833 55.052449 268.777111 55.175232 Q 268.668495 58.136187 268.54099 58.646208 Q 268.241116 59.824451 268.101805 60.938942 C 268.089999 61.023945 268.071109 61.106588 268.042775 61.18923 C 267.757068 61.987318 267.676787 62.69332 267.459556 63.498492 Q 267.055789 64.997859 266.670912 66.421668 Q 265.68865 70.062652 264.316787 74.204212 Q 264.137336 74.744928 263.081875 77.224197 C 262.685192 78.159236 262.36879 78.423691 261.339303 78.171042 Z" style="fill:#ff8a01;"/>
		<path d="M 218.256692 81.462567 C 218.221273 82.137872 217.47277 82.154401 217.014696 81.842721 Q 216.516481 81.502707 215.852981 80.487388 Q 214.294584 78.102567 213.250929 76.166376 Q 210.252194 70.598646 207.062202 63.498492 Q 206.103551 61.361598 205.664366 60.124325 C 205.199208 58.802048 205.227543 57.940207 206.658435 57.524634 Q 207.676116 57.229483 208.457676 58.299111 Q 209.057423 59.116089 209.548554 60.013348 C 210.79055 62.270663 211.505996 63.798365 212.925083 66.782933 Q 215.168231 71.502989 216.927331 76.126235 C 217.55069 77.762553 218.353501 79.61374 218.256692 81.462567 Z" style="fill:#ff8a01;"/>
		<path d="M 276.49354 83.264169 Q 276.009492 82.784844 276.210195 82.064675 Q 276.94217 79.439011 278.278614 76.638618 Q 280.703575 71.562019 283.263125 67.096974 Q 283.669253 66.383889 284.69874 64.594093 Q 285.237096 63.656693 285.645585 63.030973 C 286.193385 62.188021 286.684516 61.340347 287.466076 60.44781 C 288.245275 59.559996 289.721031 58.972055 290.323139 60.461978 Q 290.38453 60.613095 290.301888 61.564662 C 290.292443 61.663833 290.26647 61.758281 290.226329 61.848007 C 289.829646 62.690958 289.416435 63.718084 289.043364 64.459504 Q 285.322099 71.831197 280.883027 79.013993 Q 279.787426 80.789622 278.191249 82.815539 Q 277.589141 83.580571 276.696604 83.375146 C 276.621045 83.358617 276.550209 83.320838 276.49354 83.264169 Z" style="fill:#ff8a01;"/>
		<path d="M 200.10372 91.943972 C 200.063579 92.028975 199.978576 92.085644 199.881766 92.088005 C 198.979785 92.123424 197.666953 90.952264 197.041232 90.350156 Q 192.571465 86.055117 188.904508 81.689243 Q 186.826644 79.209974 185.209216 76.829876 Q 184.810172 76.239573 184.463074 75.408428 C 184.16084 74.683537 184.489048 73.779194 185.43117 74.090874 Q 186.366208 74.400192 187.093461 75.030635 Q 188.951732 76.64334 190.25748 78.01048 Q 195.027122 83.002075 198.514627 87.875609 Q 199.631478 89.438729 200.096636 90.647668 Q 200.37762 91.377282 200.10372 91.943972 Z" style="fill:#ff8a01;"/>
		<path d="M 298.939189 84.192124 C 296.483532 86.954738 294.299414 89.360809 291.742225 91.400894 C 291.286512 91.766881 290.323139 92.361906 289.843814 91.856607 C 289.057531 91.0231 291.307763 87.925195 291.820145 87.233361 Q 293.517854 84.938266 296.280468 81.828554 Q 299.043082 78.721204 301.125668 76.766123 C 301.751388 76.175821 304.563588 73.578491 305.484459 74.263242 C 306.041704 74.678814 305.56474 75.70594 305.255422 76.201794 C 303.529379 78.980937 301.394846 81.42951 298.939189 84.192124 Z" style="fill:#ff8a01;"/>
		<path d="M 191.263355 102.151476 C 190.588049 103.022762 188.517269 102.330928 187.728626 101.851603 C 186.524409 101.117267 185.152547 100.449045 183.764157 99.577759 Q 180.534023 97.556564 177.514037 95.306333 Q 175.790355 94.021835 174.791564 92.494133 C 174.631002 92.250929 174.673503 91.943972 174.883651 91.818828 C 175.455064 91.481175 176.189399 91.729102 176.829287 91.97939 Q 178.215316 92.520107 180.35221 93.764463 Q 184.78656 96.347626 188.122948 98.862313 Q 189.815934 100.139727 190.916257 101.25894 Q 191.015428 101.35811 191.289328 101.922439 C 191.324746 101.997998 191.315302 102.085363 191.263355 102.151476 Z" style="fill:#ff8a01;"/>
		<path d="M 315.189027 91.6866 Q 315.519596 92.05731 315.236251 92.553163 Q 314.582196 93.703072 313.226862 94.767977 Q 307.970812 98.900092 302.377109 101.790211 C 301.411374 102.288426 300.490503 102.571772 299.50824 102.571772 C 299.165865 102.571772 298.884881 102.366346 298.849463 102.092446 Q 298.790433 101.653261 299.184755 101.270746 C 299.97576 100.49863 300.551894 99.889439 301.406652 99.24719 Q 305.923644 95.858856 310.752316 93.235553 C 312.08876 92.510662 313.448816 91.802299 314.955267 91.601596 C 315.042632 91.58979 315.129996 91.620486 315.189027 91.6866 Z" style="fill:#ff8a01;"/>
		<path d="M 309.656715 183.35344 C 309.37337 183.454972 309.1585 183.68637 309.078219 183.976799 Q 308.721676 185.282547 308.464304 186.149111 Q 308.051093 187.530418 307.748858 188.226974 Q 305.616687 193.128843 301.078444 196.077993 Q 300.396055 196.519539 298.934467 197.190122 Q 297.640524 197.782785 296.662984 198.011823 Q 295.428072 198.302251 294.802352 198.486426 C 294.677208 198.524205 294.549702 198.550178 294.419836 198.564345 C 292.582815 198.750881 290.594678 198.812272 288.804882 198.399061 Q 287.41413 198.077936 287.187454 198.009461 Q 284.606653 197.201928 282.696435 195.926875 Q 276.741467 191.948239 275.263351 185.05351 Q 275.024868 183.941381 274.854861 183.66748 C 274.807637 183.594283 274.741523 183.537614 274.663604 183.502196 Q 274.10872 183.261353 273.707314 183.261353 Q 251.011377 183.258991 216.887191 183.258991 Q 215.168231 183.258991 214.100964 183.514002 C 214.025406 183.532892 213.956931 183.575393 213.907345 183.634424 Q 213.678308 183.90124 213.588582 184.260144 Q 213.149397 186.023967 212.415062 187.865709 Q 211.831843 189.320214 210.814162 190.869167 Q 207.520276 195.87729 201.893516 197.846538 Q 201.225294 198.080298 200.663326 198.170024 C 200.132054 198.255027 199.607866 198.491148 199.017564 198.564345 Q 196.824001 198.838246 194.880727 198.637543 C 193.907909 198.538372 192.654107 198.229054 191.799349 198.000017 Q 190.774585 197.726116 189.204381 196.991781 Q 188.056834 196.453425 186.829005 195.556166 C 182.703974 192.543264 179.948443 187.73112 179.776075 182.602575 C 179.771353 182.394789 179.646209 182.205892 179.457312 182.118528 Q 179.079519 181.943798 178.626167 181.903658 Q 176.276764 181.69351 174.227235 180.682913 Q 171.273363 179.226047 169.681909 176.428015 Q 168.092815 173.634705 167.807109 170.617081 Q 167.608767 168.543939 168.583947 166.761227 C 168.907432 166.170925 169.719688 165.88758 169.809414 164.801424 C 169.932197 163.346919 169.847193 161.561846 170.054979 159.94914 C 170.175401 159.023546 170.085675 158.038922 170.25096 157.136941 C 170.442218 156.105093 170.345408 154.766287 170.546111 153.632907 Q 170.75862 152.442858 170.942794 150.771122 Q 170.945155 150.740427 171.341838 148.853821 Q 171.750327 146.915269 172.432717 145.581186 Q 173.112745 144.249464 174.869484 143.352205 Q 177.169301 142.176323 180.061781 140.969746 C 180.132618 140.93905 180.198732 140.898909 180.257762 140.849324 Q 181.029877 140.199992 181.757129 139.326344 Q 187.952941 131.89326 194.786278 125.499107 Q 200.918337 119.759009 208.493094 116.387203 C 209.451745 115.959824 210.405673 115.674118 211.406825 115.26799 Q 214.110409 114.172389 219.867036 113.008313 Q 221.352236 112.70844 221.571828 112.687189 Q 222.150325 112.628159 223.286066 112.43454 Q 224.967246 112.148834 226.157296 112.129944 C 226.421751 112.125221 226.955384 111.988271 227.3379 111.976465 C 228.714484 111.929241 229.74161 111.761595 231.035552 111.726177 Q 233.380233 111.662425 235.127527 111.567976 Q 237.989312 111.414498 239.498124 111.553809 C 241.620851 111.749789 243.217028 111.674231 245.294891 111.870211 Q 248.293626 112.148834 250.11884 112.413289 Q 257.19066 113.435692 263.532866 116.417899 Q 265.381693 117.286823 267.549282 118.66813 Q 271.889183 121.430745 276.049633 125.352712 Q 284.047046 132.892051 290.700932 140.242493 Q 291.402211 141.01697 292.417531 141.210589 Q 293.102281 141.340455 293.206175 141.36879 C 296.235605 142.162156 297.956926 142.5612 300.280355 143.364011 C 302.207102 144.027511 304.091346 144.643786 305.921283 145.430069 Q 307.897614 146.282465 308.757094 146.70276 Q 313.174916 148.856182 316.85604 152.060342 Q 318.872512 153.817081 320.478134 156.081481 Q 321.828745 157.989337 322.782673 160.947931 Q 324.336349 165.769519 324.541774 170.43999 Q 324.662195 173.160102 324.20176 175.351304 C 323.6941 177.755014 322.26793 180.340538 319.96339 181.476279 Q 317.750938 182.564796 315.446398 182.784388 Q 314.745119 182.850502 314.088703 182.970924 C 313.578682 183.063011 312.926989 183.006342 312.261128 183.10079 Q 311.271781 183.240102 309.989645 183.254269 C 309.949505 183.25663 309.911725 183.263714 309.876307 183.27552 L 309.656715 183.35344 Z M 312.867958 152.022563 Q 312.787677 151.944643 312.105288 151.54796 Q 304.055928 146.884573 294.998332 144.263632 Q 292.800047 143.628466 289.654917 142.957883 Q 289.097672 142.839823 288.715156 142.254243 Q 287.466076 140.344025 285.71406 138.450336 Q 280.493428 132.802325 277.360104 129.645389 Q 273.549113 125.808425 269.995494 122.960808 Q 266.524518 120.181665 263.223548 118.505207 Q 256.548411 115.116873 248.562804 114.484069 C 248.510857 114.479346 248.461272 114.46754 248.411686 114.448651 L 248.175566 114.34948 C 248.100007 114.316423 248.017365 114.299895 247.932361 114.299895 Q 247.056353 114.311701 246.248819 114.139332 C 246.116592 114.113359 245.984364 114.099192 245.852136 114.096831 Q 243.696353 114.085025 241.606683 113.91974 C 240.258433 113.813486 238.792123 113.86071 237.623324 113.846543 Q 236.577309 113.832375 234.641118 113.985854 Q 233.177169 114.099192 231.373205 114.096831 C 231.252784 114.094469 231.132362 114.106275 231.014302 114.127526 Q 230.024955 114.309339 228.952966 114.316423 C 228.785321 114.318784 228.620036 114.340035 228.459474 114.384898 C 227.571659 114.628103 226.690929 114.517126 225.701582 114.684772 Q 225.132531 114.781581 224.060542 114.79811 C 223.930676 114.800471 223.800809 114.821722 223.678027 114.864223 Q 223.290788 114.99409 222.511589 115.036592 C 222.348666 115.043675 222.188104 115.07201 222.032264 115.119234 Q 221.210564 115.367161 220.464422 115.466332 Q 219.040613 115.652867 218.880051 115.69773 C 218.032377 115.938573 217.35471 115.981075 216.457451 116.236086 Q 215.798673 116.422621 214.252082 116.814582 Q 213.489411 117.010562 212.611042 117.341131 Q 212.013656 117.567807 210.993614 117.936156 Q 204.913502 120.136802 199.307993 124.828524 Q 194.998787 128.431728 190.290537 133.63347 Q 184.98254 139.498713 183.254135 141.689914 C 182.503271 142.641481 181.946026 143.042887 180.774866 143.382901 Q 179.190496 143.843336 176.567193 145.293118 Q 176.250791 145.467848 175.844663 145.807862 C 175.606181 146.008565 175.641599 146.386358 175.913138 146.539837 Q 176.175232 146.686232 176.413714 146.766513 C 178.168092 147.352092 179.577734 147.949478 180.609582 149.363842 Q 181.400587 150.447637 181.40767 151.772275 Q 181.417115 153.909169 180.049975 155.628128 Q 178.37824 157.727243 175.976891 159.16758 Q 174.909624 159.807468 173.124551 160.860567 C 172.94746 160.966821 172.824677 161.146273 172.789259 161.351698 Q 172.49883 163.065936 172.293405 165.356308 C 172.229653 166.057587 172.328823 166.539273 173.056076 166.643167 Q 174.954487 166.914706 176.290931 167.420004 C 176.36649 167.448339 176.437326 167.483757 176.501079 167.52862 Q 177.20708 168.015029 177.07013 168.938261 C 176.930819 169.868577 175.856469 170.274705 175.039491 170.277067 Q 173.400812 170.28415 171.880194 170.312485 Q 171.273363 170.324291 171.292253 170.971262 C 171.320587 172.043251 171.240306 172.912175 171.497678 173.856659 Q 172.430355 177.270966 176.106757 178.012386 Q 176.739561 178.139891 177.516399 178.29337 C 177.764326 178.340594 178.014614 178.210727 178.116146 177.979329 C 178.368795 177.39611 178.356989 176.786919 178.560053 176.236757 Q 178.649779 175.995914 179.011044 174.935731 Q 180.007474 172.031445 182.158535 169.65843 Q 183.775963 167.873356 186.361486 166.272457 Q 188.486574 164.957264 191.338914 164.230011 Q 198.285589 162.454382 204.842666 165.08713 C 210.962918 167.545148 214.785715 172.850784 215.501161 179.372442 C 215.510606 179.459807 215.541302 179.542449 215.593248 179.610924 Q 215.973403 180.128029 216.535371 180.128029 Q 266.907033 180.085527 269.483112 180.083166 Q 270.746358 180.083166 272.257532 180.083166 Q 272.666021 180.083166 272.961172 179.750235 C 273.008396 179.695928 273.036731 179.625091 273.043814 179.551894 Q 273.05562 179.393693 273.34841 177.769181 C 274.375536 172.073946 278.316393 167.564038 283.652725 165.26186 Q 287.390518 163.649154 291.612359 163.564151 Q 296.962857 163.453174 301.541241 165.786048 Q 303.874115 166.973736 305.458486 168.473103 Q 309.925893 172.702028 310.886904 178.805752 C 310.927045 179.058401 311.144276 179.244937 311.399287 179.247298 Q 313.909251 179.280355 316.003643 178.907284 Q 320.187705 178.158781 321.358865 174.305288 Q 321.74138 173.042042 321.890136 171.972414 Q 321.989307 171.264052 321.906665 170.761114 C 321.85708 170.470686 321.587902 170.269983 321.295112 170.310123 Q 319.375449 170.579301 317.40384 170.456518 Q 315.99656 170.369154 315.847804 169.01382 C 315.739188 168.029196 316.907986 167.566399 317.717881 167.50973 Q 318.943348 167.422365 321.238443 167.013876 C 321.399005 166.985542 321.517066 166.850953 321.52651 166.688029 Q 321.573735 165.82855 321.269139 165.049351 Q 321.004683 164.371684 320.969265 164.322098 Q 320.551331 163.774298 320.447438 163.73888 C 319.918527 163.557067 319.358921 163.299695 318.71195 163.169829 C 316.669504 162.756617 314.440523 162.027004 312.983658 160.702366 C 311.396926 159.259667 309.866862 157.214861 309.014466 155.160609 C 308.816125 154.681284 308.412358 152.89621 308.976687 152.440497 C 309.890474 151.701439 310.893988 152.126456 311.921114 152.315353 Q 312.445302 152.409801 312.825457 152.249239 C 312.915183 152.21146 312.938795 152.093399 312.867958 152.022563 Z M 173.1033 157.40848 Q 173.648739 157.453343 174.149315 157.153469 C 175.825773 156.149956 177.431395 154.799344 178.196427 153.037883 C 178.902428 151.406288 177.92961 149.231614 176.031198 148.922296 C 175.325197 148.808958 174.989905 149.075775 174.713644 149.65191 C 173.887221 151.373231 173.499983 153.408592 173.00649 155.370757 Q 172.768008 156.319963 172.857734 157.172359 C 172.871901 157.299864 172.975795 157.399035 173.1033 157.40848 Z M 320.093257 161.049463 Q 320.149926 160.062478 319.92325 159.561902 Q 319.120439 157.80044 317.503011 156.619836 Q 314.98124 154.778093 311.002604 153.935142 Q 310.42883 153.81472 310.268268 154.232654 Q 310.218682 154.364882 310.289519 154.480581 Q 310.898711 155.477011 311.73694 156.409689 C 313.715632 158.615057 315.852526 160.785008 318.945709 161.266695 Q 319.498232 161.354059 319.937417 161.240721 C 320.024782 161.217109 320.088534 161.141551 320.093257 161.049463 Z M 191.005983 167.953637 C 187.390973 169.337306 184.066391 172.21798 182.682723 175.901465 Q 181.410032 179.285077 181.813798 182.869392 Q 182.196314 186.262449 183.773601 188.812554 C 186.512603 193.251626 190.949314 195.820621 196.214809 195.976461 C 197.312771 196.009518 198.620881 195.778119 199.636201 195.733256 C 199.67398 195.730895 199.711759 195.726173 199.749539 195.716728 L 201.671562 195.180734 C 201.697536 195.17365 201.721148 195.164205 201.742399 195.152399 Q 202.106025 194.949335 202.616046 194.767522 Q 204.327922 194.151247 206.29717 192.488956 Q 209.46119 189.818429 210.77166 185.974381 C 211.019587 185.254213 211.16126 184.378204 211.371407 183.591922 C 211.406825 183.457333 211.428076 183.318022 211.432799 183.17871 Q 211.524886 180.253173 211.45405 179.707734 C 210.981808 176.08564 209.241597 172.586329 206.342033 170.298317 Q 204.939475 169.193272 204.545153 168.978402 Q 203.32677 168.317263 201.947824 167.804881 Q 201.215849 167.530981 200.12261 167.323195 Q 198.495737 167.013876 198.271422 166.987903 Q 197.853488 166.940679 195.596173 166.96193 C 194.67294 166.971375 193.596229 167.301944 192.724943 167.46959 C 192.167698 167.575844 191.723791 167.837938 191.180713 167.908774 C 191.121683 167.915858 191.062652 167.932386 191.005983 167.953637 Z M 307.071168 181.424025 C 307.057024 173.384417 300.306329 166.879287 291.990719 166.893478 C 283.676337 166.907622 276.946892 173.436364 276.961083 181.476586 C 276.975227 189.516194 283.725922 196.021324 292.041532 196.007133 C 300.355914 195.992989 307.085359 189.464248 307.071168 181.424025 Z" style="fill:#ff8a01;"/>
		<path d="M 180.538746 122.446064 Q 180.219982 122.934834 179.580095 123.031644 C 178.014614 123.263042 176.26968 123.126092 174.635724 122.833302 Q 173.270946 122.590098 170.845984 122.162719 C 169.608711 121.943127 168.02434 121.466163 166.893321 121.241848 Q 166.163708 121.097814 165.674938 120.930168 Q 164.657257 120.580709 164.489611 120.498067 C 163.658465 120.089578 162.912324 118.776746 164.170848 118.342284 Q 164.612394 118.191166 165.882724 118.39423 Q 171.5024 119.296212 175.847024 120.344589 Q 176.411353 120.481539 178.697003 121.135593 C 179.249526 121.293794 179.894136 121.572417 180.281374 121.780203 C 180.557635 121.92896 180.675696 122.235917 180.538746 122.446064 Z" style="fill:#ff8a01;"/>
		<path d="M 309.680327 122.424813 C 309.543377 122.214666 309.661437 121.91007 309.937699 121.761314 C 310.324937 121.553527 310.969547 121.277266 311.52207 121.121426 Q 313.805358 120.472094 314.369687 120.337505 Q 318.71195 119.298573 324.324543 118.408398 Q 325.594873 118.210056 326.034058 118.361173 C 327.290221 118.797997 326.544079 120.108468 325.712933 120.514596 Q 325.545287 120.594877 324.527606 120.941974 Q 324.038836 121.10962 323.309223 121.251293 C 322.180565 121.473246 320.596194 121.945488 319.361282 122.162719 Q 316.938682 122.585376 315.573904 122.823858 C 313.942308 123.114286 312.197375 123.246514 310.636616 123.012754 Q 309.996729 122.913583 309.680327 122.424813 Z" style="fill:#ff8a01;"/>
		<path d="M 173.1033 157.40848 C 172.975795 157.399035 172.871901 157.299864 172.857734 157.172359 Q 172.768008 156.319963 173.00649 155.370757 C 173.499983 153.408592 173.887221 151.373231 174.713644 149.65191 C 174.989905 149.075775 175.325197 148.808958 176.031198 148.922296 C 177.92961 149.231614 178.902428 151.406288 178.196427 153.037883 C 177.431395 154.799344 175.825773 156.149956 174.149315 157.153469 Q 173.648739 157.453343 173.1033 157.40848 Z" style="fill:#ffdd01;"/>
		<path d="M 238.114456 145.149085 C 238.055426 145.193948 237.979867 145.219921 237.904308 145.222282 Q 235.127527 145.288396 233.151195 145.13964 C 230.423999 144.934215 227.470127 145.085332 224.757099 144.84685 C 222.964942 144.688649 221.151533 144.825599 219.253122 144.589478 C 218.322805 144.471418 217.468048 144.537532 216.412588 144.426555 Q 214.981695 144.277799 212.917999 144.275438 C 212.514232 144.275438 212.058519 144.131404 211.624057 144.103069 Q 207.78237 143.862226 206.892195 143.71347 Q 205.909932 143.548185 204.139025 143.316787 Q 203.322047 143.208171 201.895877 142.905937 C 201.227655 142.764264 200.897086 142.601341 200.148583 142.289661 C 198.186419 141.465599 197.423748 139.850533 197.470972 137.730167 Q 197.534725 135.0195 199.123818 132.540231 C 202.58535 127.142508 207.768203 123.071784 213.649974 120.694047 Q 214.355975 120.408341 215.149341 120.115551 Q 216.025349 119.789705 216.681765 119.619698 Q 217.708891 119.35052 218.726572 119.05773 Q 219.515216 118.833415 220.157465 118.74605 Q 220.764295 118.663408 221.366403 118.465067 C 221.515159 118.415481 221.670999 118.384785 221.826839 118.370618 Q 222.794934 118.283253 224.627232 117.940878 Q 224.957802 117.879487 225.382819 117.851152 Q 225.711027 117.832263 226.145489 117.782677 Q 228.53031 117.518222 232.095735 117.350576 C 233.307035 117.291546 235.866585 117.126261 237.016494 117.133345 C 237.982228 117.140429 238.400162 117.556001 238.39544 118.538264 Q 238.39544 118.682298 238.515861 120.516957 C 238.622116 122.134385 238.593781 123.678615 238.711842 125.182705 Q 238.820457 126.552206 238.827541 127.867399 C 238.853514 132.209662 238.903099 135.496464 238.704758 139.194117 C 238.598504 141.175171 238.66934 142.851629 238.452109 144.480863 Q 238.393078 144.931854 238.114456 145.149085 Z M 235.866585 119.759009 Q 231.224449 119.551222 226.839685 120.07305 Q 223.330929 120.490983 221.841006 120.743633 Q 221.279039 120.838081 218.020571 121.593668 Q 217.581386 121.6952 216.934415 121.931321 Q 216.792742 121.983267 215.860065 122.309114 C 209.862595 124.403506 204.71516 128.589929 201.232378 133.820006 Q 200.460262 134.981721 200.054135 136.15288 C 199.688147 137.20834 199.742455 138.77146 200.67041 139.486907 Q 201.310298 139.980399 202.379925 140.254299 Q 204.474317 140.787933 206.320782 140.969746 Q 207.50847 141.087806 207.702089 141.13503 C 207.881541 141.179893 208.063354 141.201144 208.245167 141.203505 Q 209.350213 141.210589 210.214415 141.390041 C 210.389145 141.425459 210.566235 141.444348 210.745687 141.444348 Q 211.562665 141.44671 212.322974 141.555325 C 213.496495 141.725332 214.289861 141.630884 215.328793 141.803252 Q 215.916734 141.900062 216.752602 141.928396 Q 219.019362 142.003955 224.790156 142.313273 C 226.348553 142.395916 228.282383 142.407722 229.432292 142.438417 C 231.307091 142.492725 233.3944 142.71704 235.314062 142.573006 C 235.554906 142.554117 235.750886 142.369942 235.781582 142.13146 C 235.861863 141.510462 236.024786 140.792655 236.017703 140.122072 C 235.989368 137.191812 236.249101 134.448087 236.251462 131.744504 Q 236.256185 127.045699 236.249101 122.509817 Q 236.24674 121.088369 236.027147 119.89832 C 236.01298 119.8204 235.946866 119.76137 235.866585 119.759009 Z" style="fill:#ff8a01;"/>
		<path d="M 243.365784 145.701608 C 243.127302 145.652022 242.943127 145.463126 242.898264 145.224643 Q 242.647976 143.881116 242.659782 142.317996 Q 242.67395 140.228326 242.541722 137.746696 Q 242.388243 134.927413 242.392966 133.482353 C 242.397688 130.792937 242.130872 128.141299 242.161567 125.489662 C 242.173373 124.429479 242.234765 121.777842 242.038784 119.952628 C 241.908918 118.731883 241.540569 117.116816 243.150914 117.1239 C 245.238222 117.130984 246.695088 117.071953 248.376268 117.282101 C 249.429367 117.414329 250.435242 117.336409 251.559178 117.496971 C 255.750323 118.096718 259.757294 119.31274 263.334525 121.409494 Q 264.784307 122.259529 266.798418 123.721117 Q 268.314314 124.819079 270.014384 126.351503 Q 272.951727 128.996057 275.818235 132.119936 Q 277.678867 134.148214 279.662282 136.412613 Q 281.00581 137.945037 282.030574 139.715944 C 282.906583 141.227117 283.400075 143.092472 281.017616 143.460821 C 280.394257 143.55763 279.662282 143.75361 279.005866 143.803196 Q 276.902029 143.966119 275.209043 144.176267 Q 274.000104 144.327384 273.022564 144.608368 Q 271.542086 145.035747 270.84789 145.125473 Q 268.545712 145.418263 267.773597 145.515072 Q 266.337982 145.692163 264.687497 145.751193 Q 257.129269 146.025093 248.999627 145.826752 Q 246.144926 145.755915 244.21818 145.755915 Q 243.618433 145.753554 243.365784 145.701608 Z M 276.382563 136.745543 C 276.680076 136.721931 276.817026 136.363028 276.609239 136.150519 C 275.948101 135.465768 275.140568 134.426837 274.621102 133.900287 Q 268.942395 128.155467 268.07347 127.421131 Q 265.211686 124.993808 263.216464 123.758896 Q 258.125699 120.606683 251.996001 119.796788 Q 250.728032 119.629142 250.666641 119.619698 C 248.881567 119.343436 246.938292 119.404828 245.221694 119.376493 Q 244.638475 119.364687 244.27721 119.485109 C 244.078869 119.548861 243.949002 119.735397 243.953725 119.943183 Q 244.052895 123.751813 244.059979 127.026809 C 244.06234 129.135368 244.291377 131.343098 244.244153 133.274567 Q 244.222902 134.207244 244.440134 137.595578 Q 244.534582 139.071334 244.539304 141.923674 Q 244.539304 142.466752 244.910014 142.842184 Q 245.172108 143.106639 245.842692 143.101917 C 248.246402 143.080666 250.671363 143.307342 253.207301 143.328593 Q 261.346387 143.397068 267.93652 143.269563 C 268.368621 143.260118 268.831418 143.083027 268.694468 142.584812 Q 268.22931 140.868214 268.387511 139.23898 Q 268.550434 137.557799 269.846738 136.830547 C 270.767609 136.313442 272.21503 136.183576 273.402718 136.360666 Q 274.420399 136.514145 274.649436 136.514145 C 275.171263 136.514145 275.844208 136.790406 276.382563 136.745543 Z M 280.021186 141.607272 Q 280.172303 141.319204 280.094383 140.773765 Q 279.910209 139.479823 278.748494 139.12328 Q 275.782816 138.209493 272.89742 138.381861 C 272.125304 138.426724 271.04151 138.53534 270.739275 139.404264 Q 270.271756 140.752514 270.987202 141.907145 C 271.060399 142.027567 271.17846 142.112571 271.31541 142.143266 Q 272.283505 142.372303 273.320076 142.377026 Q 274.429844 142.379387 278.040132 142.327441 Q 279.34588 142.308551 279.879513 141.796169 C 279.936182 141.741861 279.983406 141.678108 280.021186 141.607272 Z" style="fill:#ff8a01;"/>
		<path d="M 219.276734 176.021887 C 219.283817 176.175366 219.184647 176.312316 219.03589 176.354817 L 218.901302 176.392597 C 218.745462 176.43746 218.587261 176.333567 218.563649 176.173004 Q 218.447949 175.393806 218.053628 173.70318 Q 217.116228 169.691487 214.988779 162.725921 Q 213.550803 158.010588 213.045504 156.218431 Q 212.901471 155.70841 212.788133 155.132275 C 212.70549 154.707257 212.495343 154.138206 212.438674 153.67777 Q 212.341864 152.879682 212.018379 150.993076 Q 211.886151 150.2186 211.966432 148.584643 C 211.978238 148.303659 212.171857 148.060455 212.445757 147.984896 L 212.563818 147.951839 C 212.799939 147.885726 213.028976 148.084067 212.995919 148.327272 Q 212.717296 150.405135 213.149397 152.395634 Q 214.103326 156.780398 215.262679 160.506385 C 216.932054 165.873413 218.084323 169.386891 219.005195 173.807073 Q 219.231871 174.888507 219.276734 176.021887 Z" style="fill:#ff8a01;"/>
		<path d="M 224.875159 151.930476 C 224.783072 153.623462 219.763143 153.595128 218.481006 153.564432 Q 216.972194 153.529014 215.75381 153.139415 Q 215.626305 153.099274 215.054893 152.75926 C 214.995863 152.723842 214.943916 152.678979 214.899053 152.624671 Q 214.400838 152.010757 214.436256 151.361425 Q 214.471674 150.712092 215.036003 150.154847 C 215.083227 150.107623 215.139896 150.067482 215.203649 150.039148 Q 215.808118 149.762886 215.940346 149.736913 Q 217.194148 149.481903 218.695876 149.611769 C 219.975651 149.722746 224.969608 150.23985 224.875159 151.930476 Z" style="fill:#ff8a01;"/>
		<path d="M 257.280386 152.83718 Q 257.280386 153.309422 257.20955 153.434566 Q 256.883703 154.024868 256.553134 154.164179 Q 255.551981 154.582113 254.491799 154.671839 Q 251.877941 154.893793 249.946472 154.915043 C 248.860316 154.92685 247.056353 154.990602 246.260625 154.428635 C 245.590042 153.954032 245.441286 153.642352 245.443647 152.813568 C 245.446008 151.984784 245.594765 151.675465 246.265348 151.203224 C 247.063436 150.643617 248.8674 150.714453 249.953556 150.730982 Q 251.885024 150.759316 254.498882 150.990715 Q 255.559065 151.085163 256.557856 151.505458 Q 256.888425 151.647131 257.211911 152.239794 Q 257.280386 152.364938 257.280386 152.83718 Z" style="fill:#ff8a01;"/>
		<path d="M 244.209798 175.45378 C 244.213458 175.69604 244.019838 175.896743 243.777555 175.899813 L 243.763388 175.900025 C 243.521623 175.903827 243.320921 175.710208 243.317355 175.467806 L 242.937342 151.277838 C 242.933683 151.035578 243.127302 150.834875 243.369585 150.831805 L 243.383753 150.831593 C 243.625517 150.827791 243.826219 151.021411 243.829785 151.263812 L 244.209798 175.45378 Z" style="fill:#ff8a01;"/>
		<path d="M 196.550101 171.396279 Q 197.766123 171.396279 198.316285 171.500173 Q 200.937227 171.996026 202.686882 173.193159 Q 206.818997 176.024248 206.927613 181.124459 Q 207.024422 185.778401 203.723453 188.932976 Q 201.926573 190.649574 199.123818 191.450024 C 198.998674 191.485442 198.868808 191.506693 198.738941 191.509054 C 198.011689 191.523221 197.362357 191.709757 196.550101 191.709757 C 195.737845 191.709757 195.088513 191.523221 194.361261 191.509054 C 194.231394 191.504332 194.101528 191.485442 193.976384 191.450024 Q 191.173629 190.649574 189.376749 188.932976 Q 186.07578 185.778401 186.174951 181.124459 Q 186.283566 176.024248 190.415681 173.193159 Q 192.165337 171.996026 194.786278 171.500173 Q 195.33644 171.396279 196.550101 171.396279 Z M 189.884031 181.464827 C 189.794683 185.084206 192.701331 188.090024 196.375797 188.180151 C 200.049412 188.269476 203.100094 185.410052 203.187836 181.789965 C 203.277184 178.170587 200.370537 175.164768 196.696071 175.074641 C 193.022455 174.985316 189.971774 177.84474 189.884031 181.464827 Z" style="fill:#ff8a01;"/>
		<path d="M 281.469858 180.976978 C 281.775564 175.339498 286.736463 171.02557 292.550018 171.34039 C 298.363054 171.656012 302.830461 176.479962 302.524613 182.117253 C 302.218908 187.754733 297.258008 192.068661 291.444453 191.753841 C 285.631417 191.438218 281.164011 186.614269 281.469858 180.976978 Z M 285.341579 180.782296 C 284.868747 184.375843 287.45427 187.681535 291.119197 188.163741 C 294.783462 188.647269 298.136378 186.123137 298.610391 182.529165 C 299.083223 178.935618 296.497699 175.629926 292.832773 175.14772 C 289.168508 174.664192 285.815592 177.188324 285.341579 180.782296 Z" style="fill:#ff8a01;"/>
	</g>
	<g id="surface4">
	</g>
</svg>
