<?xml version="1.0" encoding="utf-8"?>
<svg xmlns="http://www.w3.org/2000/svg" width="490pt" height="280pt" viewBox="0 0 490 280" version="1.1" xmlns:xlink="http://www.w3.org/1999/xlink">
	<g id="surface2" data-size="141.25244781994 148" data-bboxpos="174.5 52.220857480905" data-pivot="245.12622390997 126.2208574809" data-center="245.12622390997 126.2208574809">
		<path d="M 315.74875 199.767155 C 315.779854 199.966223 315.618112 200.146628 315.415934 200.137296 Q 312.411259 200.01599 309.092432 200.218167 Q 308.653862 200.243051 307.823377 200.037763 C 307.683408 200.003548 307.562101 199.907125 307.493672 199.779597 Q 307.061322 198.958444 306.772052 198.289702 Q 303.459446 190.606943 292.485853 165.664415 Q 292.24946 165.120089 291.440749 165.120089 Q 218.457649 165.12631 198.519801 165.120089 C 198.286519 165.120089 198.071899 165.256948 197.978586 165.471568 L 182.880565 199.592971 C 182.728154 199.938229 182.386007 200.16218 182.006535 200.16218 L 174.902315 200.16218 C 174.609935 200.16218 174.417088 199.863579 174.535285 199.596082 L 239.593012 52.572336 C 239.686325 52.357716 239.900945 52.220857 240.134227 52.220857 L 250.454629 52.220857 C 250.855875 52.220857 251.219795 52.45725 251.381537 52.824281 L 269.443797 93.763744 C 269.568214 94.046793 269.935245 94.118333 270.156085 93.903713 Q 280.607126 83.769936 281.446941 82.967446 C 283.008377 81.480661 284.576033 79.7326 286.65691 81.797924 Q 290.209019 85.325151 293.717583 88.73107 Q 294.35211 89.343824 294.905767 90.373376 C 294.952423 90.454248 294.980417 90.54445 294.989748 90.637763 C 295.22303 92.612885 293.440755 93.913044 291.95708 95.350062 Q 289.683357 97.552246 276.498249 110.28012 C 276.408047 110.367212 276.392495 110.504071 276.460924 110.606715 Q 276.874611 111.225691 277.076789 112.009519 C 277.104783 112.109052 277.142108 112.205476 277.191875 112.298789 Q 277.776635 113.39366 278.271194 114.525856 Q 284.386297 128.479239 290.628927 142.647242 Q 292.38943 146.647253 294.196589 150.647265 Q 294.992859 152.413988 295.381662 153.399994 C 295.860668 154.619282 296.423656 155.69549 297.020858 157.039196 Q 302.706722 169.866604 313.058229 193.406328 Q 315.033351 197.894677 315.269743 198.42345 Q 315.686541 199.350358 315.74875 199.767155 Z M 222.846464 152.410878 C 222.67539 152.42643 222.566525 152.230473 222.67539 152.093614 Q 223.042421 151.623939 223.344132 150.970749 Q 223.673838 150.255351 223.676948 150.24913 Q 228.498113 141.067144 234.697197 128.976908 C 235.496578 127.421693 236.327062 125.695405 237.465479 124.675185 Q 240.88384 121.608302 241.540141 120.976885 Q 252.930531 110.034396 263.44689 100.165006 C 263.645958 99.97527 263.705056 99.68289 263.596191 99.430945 L 245.792097 59.073132 C 245.649017 58.752758 245.194894 58.752758 245.054925 59.073132 L 202.756205 154.89611 C 202.753094 154.902331 202.753094 154.908552 202.749984 154.911662 C 202.351849 155.47465 202.252315 156.27092 201.751536 156.902337 C 201.533806 157.176054 201.732874 157.58041 202.084352 157.5773 Q 203.624014 157.561748 224.482549 157.549306 Q 265.282043 157.524422 287.695793 157.558637 C 287.879308 157.558637 288.171688 157.642619 288.339651 157.630177 C 288.712903 157.595962 288.852872 157.116956 288.569823 156.837018 C 288.156136 156.426441 288.196572 156.028306 287.985063 155.5493 Q 280.64134 138.917838 272.80306 121.057756 Q 271.705079 118.553861 270.799944 116.491647 C 270.70041 116.264585 270.404919 116.205487 270.224514 116.379671 L 249.960071 135.978483 C 249.894752 136.043802 249.820102 136.1029 249.739231 136.152667 Q 246.896299 137.91939 246.753219 138.003372 Q 239.219761 142.49172 223.026869 152.305123 Q 222.852685 152.410878 222.846464 152.410878 Z M 248.827875 133.126219 C 248.986507 133.284851 249.238452 133.284851 249.400194 133.13244 L 290.392534 93.620664 C 290.557387 93.462032 290.557387 93.197646 290.398755 93.039014 L 283.03015 85.670408 C 282.874628 85.514887 282.622683 85.511776 282.460941 85.664187 L 241.263312 124.970675 C 241.09846 125.129307 241.095349 125.393694 241.257092 125.555436 L 248.827875 133.126219 Z" style="fill:#000000;"/>
	</g>
	<g id="surface4">
	</g>
</svg>
