<?xml version="1.0" encoding="utf-8"?>
<svg xmlns="http://www.w3.org/2000/svg" width="490pt" height="280pt" viewBox="0 0 490 280" version="1.1" xmlns:xlink="http://www.w3.org/1999/xlink">
	<g id="surface2" data-size="156.138721341 148" data-bboxpos="167 54.368896476876" data-pivot="245.0693606705 128.36889647688" data-center="245.0693606705 128.36889647688">
		<path d="M 171.112472 100.205182 C 171.145947 100.129861 171.229636 100.092201 171.309141 100.117308 C 171.388645 100.142415 171.438859 100.217735 171.426305 100.301424 Q 170.434591 106.996541 171.246374 113.612154 Q 171.409567 114.934439 171.522547 116.189774 C 171.698294 118.093698 172.053972 119.382508 172.388728 121.26551 Q 172.551922 122.165166 172.953629 123.76781 Q 175.644229 134.505104 182.305871 144.35111 Q 192.909262 160.0135 210.157558 167.968136 Q 218.643619 171.880595 227.907987 173.353521 Q 228.715586 173.483239 235.109423 174.19878 C 238.9633 174.633962 243.553639 174.303391 248.574977 173.675724 Q 251.847216 173.265648 254.362069 172.738407 Q 265.467595 170.428592 275.48098 164.449015 C 287.56985 157.226658 297.152237 146.267588 302.027119 133.082391 C 306.102772 122.060555 306.57143 110.314808 303.587918 98.991692 Q 301.784421 92.137565 297.892884 85.551244 Q 291.327485 74.441534 280.468842 66.9974 Q 270.325739 60.047032 258.241053 56.891958 C 256.701176 56.490251 255.148746 56.327057 253.474966 55.837477 Q 252.83893 55.653361 251.566858 55.465061 Q 249.077111 55.09683 247.340565 54.707676 C 247.273614 54.690938 247.227585 54.632356 247.235954 54.56122 C 247.240138 54.494269 247.298721 54.444056 247.365672 54.439871 Q 250.102301 54.351998 254.399729 54.37292 Q 255.571375 54.381289 257.215863 54.623987 Q 257.358134 54.644909 260.031997 54.762074 C 260.295617 54.774627 260.559237 54.808103 260.818673 54.866685 C 262.47153 55.24747 264.593045 55.490168 266.024126 55.808186 Q 287.025872 60.415263 302.47904 75.420695 Q 308.709683 81.471407 313.396265 89.400936 Q 319.413502 99.590068 321.903248 112.022063 Q 322.1585 113.302505 322.438858 115.428204 C 322.64808 117.022479 323.02468 118.533065 323.06234 119.989253 Q 323.212981 125.788898 323.066525 130.47548 C 322.999574 132.626286 322.371906 135.136955 322.238004 137.015773 Q 322.141762 138.392456 321.823744 139.463675 C 321.50991 140.518156 321.417852 141.706539 321.158416 142.727545 Q 317.061842 158.946466 306.621643 172.26138 Q 305.28262 173.968635 301.144201 178.492024 Q 297.173159 182.831296 290.206053 187.84845 Q 277.67363 196.882674 262.061454 200.464561 Q 259.839512 200.975064 258.006724 201.2345 C 256.136275 201.493936 254.362069 201.937487 252.566941 201.983516 C 250.307339 202.042098 248.236037 202.393592 245.89693 202.368485 Q 234.649134 202.251321 226.690313 200.17165 Q 200.165096 193.233835 183.477516 172.068896 Q 169.936642 154.891736 167.25441 132.249686 Q 167.015897 130.224413 167.011712 127.613318 C 167.003343 123.374471 166.91547 120.223582 167.388313 116.210696 Q 167.815126 112.612071 168.501376 109.536501 Q 168.990956 107.339666 169.204363 106.272631 Q 169.886428 102.883228 171.112472 100.205182 Z" style="fill:#541891;"/>
		<path d="M 203.39549 88.819298 C 203.295063 88.677027 203.387121 88.480358 203.558683 88.467804 Q 205.17388 88.354824 211.868997 88.471989 C 213.764552 88.505464 214.601442 88.23766 215.60571 89.915623 Q 222.472389 101.406118 239.766714 129.680435 C 240.243741 130.462927 240.206081 131.404428 241.440493 131.379321 C 241.570211 131.375136 241.69156 131.316554 241.771064 131.211943 Q 242.511712 130.245335 242.60377 130.107249 Q 245.440826 125.747054 248.236037 121.629557 Q 269.225229 90.723222 269.254521 90.677193 Q 269.258705 90.673008 269.672965 89.97839 Q 270.196021 89.112209 270.96596 88.735609 Q 271.535045 88.459435 272.723428 88.467804 Q 275.937084 88.488726 281.845525 88.405038 C 282.033825 88.400853 282.18865 88.551493 282.192834 88.743978 Q 282.197019 89.011783 281.987797 89.258665 Q 279.677981 91.974372 279.652874 95.413988 Q 279.485496 116.164667 279.64869 138.509621 Q 279.68635 143.192018 280.426997 145.618998 C 280.460473 145.723609 280.502317 145.819852 280.556715 145.907725 Q 281.129985 146.874333 281.966874 148.02924 Q 282.063117 148.158958 282.109146 148.502083 C 282.134252 148.690383 281.979428 148.853577 281.791127 148.845208 C 280.63622 148.778257 279.53571 148.493714 278.138104 148.552296 Q 274.911895 148.694568 270.9283 148.552296 C 270.635388 148.539743 270.472195 148.213356 270.639573 147.974843 C 272.229663 145.685949 272.505837 143.740181 272.497468 140.668796 Q 272.401226 105.624042 272.539312 99.30971 Q 272.547681 98.824314 272.401226 98.686227 C 272.083208 98.393315 271.581074 98.447713 271.325822 98.803391 Q 259.600998 115.005575 248.600084 132.216211 Q 243.285835 140.534894 241.99284 142.978611 Q 241.139213 144.597993 240.653817 145.635736 C 240.452963 146.06255 239.846218 146.075103 239.628627 145.656658 Q 236.406602 139.476228 232.950248 133.55105 Q 222.597923 115.817358 213.153623 100.728238 Q 212.848158 100.238657 212.387869 99.924824 C 212.069851 99.707232 211.638853 99.933192 211.638853 100.318162 Q 211.643037 108.415069 211.567717 136.940453 Q 211.559348 141.179299 211.764386 144.35111 C 211.77694 144.531042 211.827153 144.706789 211.910842 144.865798 L 213.659941 148.221725 C 213.751999 148.397472 213.626466 148.610879 213.425612 148.610879 L 204.03571 148.610879 C 203.767906 148.610879 203.629819 148.292861 203.80975 148.096192 Q 205.270123 146.489364 205.868499 144.359479 C 205.889421 144.284159 205.901974 144.208839 205.906159 144.133519 C 206.069352 141.350861 206.31205 138.831823 206.324603 135.952923 Q 206.395739 116.583112 206.324603 96.962234 C 206.316235 95.326115 205.956372 93.945247 205.864314 92.497428 C 205.847576 92.275652 205.768072 92.062245 205.638354 91.882314 L 203.39549 88.819298 Z" style="fill:#541891;"/>
	</g>
	<g id="surface4">
	</g>
</svg>
