<?xml version="1.0" encoding="utf-8"?>
<svg xmlns="http://www.w3.org/2000/svg" width="490pt" height="280pt" viewBox="0 0 490 280" version="1.1" xmlns:xlink="http://www.w3.org/1999/xlink">
	<g id="surface2" data-size="150.63578432284 148" data-bboxpos="169.5 53.115748181771" data-pivot="244.81789216142 127.11574818177" data-center="244.81789216142 127.11574818177">
		<path d="M 294.406354 119.868683 C 294.278271 120.00744 294.338755 120.235144 294.520206 120.295628 Q 297.220633 121.163749 299.152558 122.078123 Q 304.969682 124.831917 309.605592 129.585237 Q 313.907062 133.993443 316.635951 140.280206 Q 320.773759 149.815309 320.01949 160.510279 Q 319.937659 161.705724 319.802459 162.360373 C 319.635239 163.192916 319.709955 164.036132 319.528503 164.829538 Q 317.247906 174.805817 311.662043 181.846849 Q 301.892121 194.149978 286.742693 198.344712 Q 282.103226 199.625546 279.762144 199.927966 Q 278.086386 200.141438 275.951661 200.429626 Q 273.404223 200.771182 272.123389 200.771182 C 270.686008 200.77474 268.786103 201.05937 266.971587 201.080717 Q 262.41395 201.137643 244.955462 201.102064 C 241.657313 201.094948 240.010017 200.99177 236.085682 200.806761 C 233.346119 200.675119 231.072637 200.337121 228.24057 199.992007 Q 227.692657 199.927966 224.789432 199.376495 Q 214.998162 197.522843 206.462822 193.160889 C 187.919183 183.675597 175.594707 165.953826 171.186501 145.816259 Q 170.482042 142.610614 170.144044 139.380064 Q 170.13337 139.273328 170.047981 139.010045 C 169.987497 138.825036 169.955476 138.632911 169.951918 138.437228 C 169.919898 136.89311 169.567668 135.413035 169.549879 133.623424 Q 169.453816 125.080968 169.542763 123.803692 Q 171.058417 102.527604 182.600161 86.061763 C 193.12791 71.036861 208.62601 60.747489 226.372686 56.307262 C 228.913008 55.673961 230.962343 55.133164 233.282077 54.795166 Q 234.801289 54.574577 236.135492 54.240137 C 236.277807 54.204559 236.427238 54.186769 236.573111 54.190327 Q 237.412769 54.201001 238.223964 54.069359 C 239.686251 53.838098 240.472541 53.806077 241.753375 53.610394 Q 242.9844 53.425384 243.678185 53.471637 Q 244.162056 53.503657 249.673203 53.176333 Q 252.579986 53.001997 256.547016 53.329322 C 258.002186 53.446731 259.162053 53.428942 260.492698 53.471637 C 260.656361 53.475194 260.820023 53.496542 260.983685 53.528563 C 262.186246 53.777614 263.346113 53.781172 264.374339 53.912813 Q 273.183635 55.040659 280.797486 57.737528 Q 282.035626 58.175146 285.006451 59.47377 Q 292.10441 62.579794 297.615557 67.500334 Q 307.983202 76.754365 309.648287 90.473527 Q 309.744349 91.256259 309.723002 94.312473 Q 309.708771 96.521913 309.466835 98.144304 Q 308.527556 104.520014 304.987472 109.828362 Q 302.21233 113.987517 298.074522 117.257203 C 297.131686 118.004357 295.185529 119.014793 294.406354 119.868683 Z M 249.068365 197.860841 L 248.780177 197.579769 C 248.659209 197.458801 248.513336 197.366296 248.353232 197.30937 Q 247.616752 197.031856 246.641894 196.476828 C 235.801052 190.303916 227.468511 180.075028 224.22373 167.910657 Q 223.850153 166.51597 223.473018 164.334993 Q 222.964242 161.392631 222.939337 160.723751 Q 222.885969 159.26858 222.878853 155.739169 Q 222.875296 153.405204 223.316472 150.772377 Q 225.049157 140.461658 232.172021 132.940312 Q 235.342086 129.595911 240.22349 126.585949 C 248.602283 121.423474 257.262149 119.078835 267.288238 116.253883 C 275.809346 113.852318 282.153036 108.682727 284.298434 99.855641 Q 284.949525 97.176562 285.02424 93.568878 Q 285.034914 92.988944 284.860578 90.423717 Q 284.736052 88.623433 284.45498 87.296346 Q 282.394971 77.544213 275.916082 70.261244 Q 271.742696 65.564851 266.452137 62.853751 Q 261.101095 60.114187 254.921067 59.512907 Q 252.626239 59.292319 248.548915 59.463096 C 247.175576 59.52358 246.211392 59.836673 244.898536 59.907831 C 244.660159 59.918504 244.421781 59.961199 244.194077 60.035914 Q 243.197872 60.359681 242.721117 60.448628 Q 241.468746 60.687005 240.899486 60.875573 Q 232.527808 63.65783 225.871026 68.613949 Q 212.265715 78.739658 204.719464 94.2342 Q 204.125299 95.454551 204.079047 95.543498 Q 203.598734 96.436524 203.424398 96.84568 Q 199.041097 107.22044 197.440054 117.310571 Q 197.322644 118.047051 196.870794 121.875324 C 196.312208 126.589507 196.394039 131.328595 196.539912 136.220672 Q 196.600395 138.255776 196.934836 140.728499 Q 197.422264 144.336183 197.582369 145.218536 Q 199.201201 154.19861 202.39973 161.759092 C 206.359644 171.130533 212.272831 179.359895 219.979186 185.973983 Q 226.963293 191.965443 234.520217 194.893574 Q 239.508357 196.829057 244.051762 197.722084 Q 246.058403 198.117008 246.410633 198.216628 C 246.584968 198.262881 246.76642 198.287786 246.944314 198.291344 L 248.869124 198.341154 C 249.121733 198.344712 249.249816 198.038734 249.068365 197.860841 Z M 285.486764 133.957864 C 283.291555 131.87295 280.694307 130.268349 277.79464 129.058672 Q 276.065513 128.336423 272.788711 127.763605 Q 268.067412 126.934621 263.563144 128.19055 C 254.622206 130.677504 248.210917 139.180823 245.606553 147.933194 Q 243.379324 155.429634 243.877426 163.45264 C 243.969931 164.922042 244.147825 166.092583 244.375529 168.003161 Q 244.645927 170.24818 245.894741 174.393103 Q 248.274959 182.284468 254.081409 188.596137 Q 257.166086 191.951212 261.133116 194.178441 Q 263.438618 195.469949 265.178418 195.644285 Q 268.213285 195.95382 269.419404 195.637169 C 272.354651 194.861553 275.044403 193.616297 277.438853 192.047274 C 285.782067 186.58238 292.776848 177.958093 295.085908 168.141918 Q 296.05365 164.025458 296.146155 159.916114 Q 296.217312 156.852784 295.669399 154.120337 Q 295.491506 153.234426 295.452369 152.366305 C 295.448811 152.263126 295.431022 152.163506 295.406117 152.063885 Q 294.577132 148.851125 294.135956 147.563175 Q 291.399951 139.575747 285.486764 133.957864 Z" style="fill:#000000;"/>
	</g>
	<g id="surface4">
	</g>
</svg>
