<?xml version="1.0" encoding="utf-8"?>
<svg xmlns="http://www.w3.org/2000/svg" width="490pt" height="280pt" viewBox="0 0 490 280" version="1.1" xmlns:xlink="http://www.w3.org/1999/xlink">
	<g id="surface2" data-size="87.759572582686 148" data-bboxpos="201 52.034810230033" data-pivot="244.87978629134 126.03481023003" data-center="244.87978629134 126.03481023003">
		<path vector-effect="non-scaling-stroke" d="M 278.618872 131.632823 Q 276.699803 133.898894 274.207426 134.90369 C 272.116364 135.748563 269.705458 135.383457 267.312655 134.448062 Q 263.50469 132.963498 259.576029 132.571236 Q 256.706476 132.284582 254.277465 133.247134 C 250.602266 134.704541 250.490622 138.035756 249.838862 141.792426 Q 249.277625 145.011997 247.340451 148.572535 C 243.779913 155.117287 241.483667 159.033878 239.443902 164.504434 Q 238.792142 166.254529 238.514541 167.929189 C 238.45721 168.27619 238.529628 168.629227 238.716707 168.924932 C 239.664172 170.412513 241.444441 170.925472 243.37558 171.522918 C 248.429734 173.085934 253.48087 173.954947 259.521715 174.823959 Q 262.336954 175.225274 266.009136 175.321831 Q 270.523174 175.43951 272.523714 172.376844 C 274.080695 169.990076 274.485027 166.704122 274.488045 163.728961 Q 274.494079 158.309701 273.791024 151.354582 Q 273.383674 147.335399 273.395744 146.722866 Q 273.444022 144.444725 274.310018 142.178653 Q 275.960538 137.854712 278.350323 134.013555 Q 278.959839 133.035916 279.225371 132.381139 C 279.373224 132.013016 279.189162 131.602649 278.830091 131.509109 Q 278.742586 131.487987 278.618872 131.632823" style="fill:none;stroke-width:0.50;stroke:#7d7d7d;"/>
		<path vector-effect="non-scaling-stroke" d="M 245.403277 167.156733 C 243.728617 166.710157 243.248849 168.496461 243.45705 169.806015 C 243.626025 170.856072 246.95724 171.649649 247.741766 171.842763 Q 253.815802 173.342414 260.511424 174.066591 C 261.618812 174.187287 263.118462 174.392471 263.6797 173.538545 C 264.45819 172.352705 264.298268 170.285782 262.536103 170.137929 Q 253.885203 169.410735 245.403277 167.156733" style="fill:none;stroke-width:0.50;stroke:#7d7d7d;"/>
		<path d="M 254.968451 68.578108 Q 254.889998 68.037992 255.013712 67.760391 C 255.065008 67.64573 255.15553 67.555208 255.273209 67.503912 Q 256.048682 67.178032 256.972008 67.325885 C 257.566437 67.422442 258.251388 67.25045 258.48071 66.788787 Q 259.03893 65.654242 259.123418 64.254166 Q 259.232044 62.431654 259.210923 60.180669 C 259.186783 57.802954 258.133709 56.022685 256.480171 54.402339 C 256.036612 53.964815 256.051699 53.177272 256.742685 52.878549 Q 257.545315 52.531548 258.145779 52.495339 Q 258.933321 52.444043 259.585081 52.332399 C 262.373163 51.843579 264.940975 51.997467 267.557065 52.489304 Q 269.252847 52.809149 270.942594 53.699283 C 271.301665 53.88938 271.386152 54.36613 271.111568 54.66787 Q 270.550331 55.286438 270.167121 55.639475 C 269.032576 56.701601 268.217877 58.557306 268.033815 59.872894 Q 267.747162 61.90059 267.952345 65.49432 C 267.991571 66.188323 268.314434 67.706078 269.249829 67.790565 C 269.880467 67.847896 271.165882 67.965575 271.20209 68.83157 C 271.22623 69.329442 270.879228 69.788087 270.363252 69.938958 Q 268.869636 70.373464 267.904067 70.826075 Q 266.926427 71.281703 266.93548 72.473578 Q 266.965654 76.335856 266.908323 82.434032 Q 266.820818 91.422882 267.013932 126.645052 Q 267.022984 128.057198 267.077298 128.371008 C 267.415247 130.329304 269.101977 132.948411 271.455552 132.607444 Q 273.299187 132.335878 274.313035 131.4035 Q 276.201931 129.668492 276.488584 129.439169 C 277.617094 128.527913 279.346067 127.876153 280.897013 128.165824 Q 283.835966 128.708957 284.774379 131.626788 C 284.810588 131.735414 284.831709 131.850076 284.834727 131.964737 Q 284.940336 134.451079 284.370046 135.971851 Q 283.464825 138.388793 281.286258 142.302367 Q 280.915118 142.969214 280.275428 144.58956 C 278.102896 150.117446 280.157749 155.237983 282.960918 160.047727 C 285.139485 163.783274 286.850353 167.114489 287.915497 170.961681 Q 289.855689 177.983183 287.336156 184.494743 Q 285.800296 188.462631 282.879448 191.603749 C 279.430554 195.309123 274.771681 197.692873 269.820119 198.806295 C 269.747701 198.821382 269.678301 198.845522 269.611918 198.878713 C 268.978263 199.177436 268.302364 199.108036 267.629483 199.234767 Q 265.984997 199.548577 265.622908 199.651169 C 265.426777 199.708499 265.224611 199.732639 265.019427 199.726604 C 263.815483 199.690395 262.48179 199.99817 261.099818 200.013257 Q 258.746242 200.043431 257.098739 200.031362 C 255.816342 200.02231 254.567136 199.786952 253.520096 199.759795 Q 252.497196 199.732639 251.154451 199.485211 Q 250.635457 199.391672 248.80691 199.086914 Q 243.146258 198.151518 238.004599 195.825099 Q 234.80615 194.376745 232.063329 192.246457 Q 224.776295 186.588822 223.231384 177.584885 Q 223.017148 176.341714 222.999044 174.790768 Q 222.974905 172.394948 223.029218 171.975529 Q 223.367167 169.395648 224.043066 167.177855 C 225.114245 163.659561 227.274707 160.071866 229.580004 157.350166 Q 233.007777 153.303826 234.999264 150.63644 Q 239.000343 145.286581 238.843438 138.639237 Q 238.804212 136.967595 238.37574 134.499357 Q 237.711911 130.655183 237.66665 130.489226 C 237.431292 129.584005 237.467501 128.476617 237.331718 127.35716 C 237.289474 127.013175 237.28344 126.666174 237.310596 126.319172 Q 237.521815 123.76343 237.59725 123.36815 C 238.209783 120.169701 239.890478 117.272992 243.188501 116.04189 C 245.913218 115.028042 248.873293 115.553071 251.531627 116.741928 Q 252.032516 116.965216 254.663693 118.292875 Q 256.772859 119.358019 257.699203 117.448001 C 257.741446 117.360496 257.77162 117.269974 257.786707 117.173417 C 258.118622 115.287539 257.901369 113.250791 258.175953 111.404139 C 258.414328 109.820001 258.26044 108.187585 258.486745 106.576291 Q 258.595372 105.779696 258.610459 104.108053 Q 258.622529 102.324767 258.833747 100.601828 C 259.017809 99.059934 258.839782 97.484849 259.051 95.918816 C 259.334636 93.782493 259.126435 91.127176 259.370845 88.978784 C 259.648446 86.546755 259.512663 83.634959 259.675603 80.653763 Q 259.910961 76.363013 259.799317 72.25029 Q 259.78423 71.658879 259.292392 70.940736 C 259.241097 70.862284 259.174714 70.795901 259.102296 70.73857 Q 257.838003 69.788087 256.489223 69.359616 C 256.093943 69.235902 255.345627 68.765187 255.176652 68.76217 C 255.07406 68.76217 254.983538 68.683717 254.968451 68.578108 Z M 278.618872 131.632823 Q 276.699803 133.898894 274.207426 134.90369 C 272.116364 135.748563 269.705458 135.383457 267.312655 134.448062 Q 263.50469 132.963498 259.576029 132.571236 Q 256.706476 132.284582 254.277465 133.247134 C 250.602266 134.704541 250.490622 138.035756 249.838862 141.792426 Q 249.277625 145.011997 247.340451 148.572535 C 243.779913 155.117287 241.483667 159.033878 239.443902 164.504434 Q 238.792142 166.254529 238.514541 167.929189 C 238.45721 168.27619 238.529628 168.629227 238.716707 168.924932 C 239.664172 170.412513 241.444441 170.925472 243.37558 171.522918 C 248.429734 173.085934 253.48087 173.954947 259.521715 174.823959 Q 262.336954 175.225274 266.009136 175.321831 Q 270.523174 175.43951 272.523714 172.376844 C 274.080695 169.990076 274.485027 166.704122 274.488045 163.728961 Q 274.494079 158.309701 273.791024 151.354582 Q 273.383674 147.335399 273.395744 146.722866 Q 273.444022 144.444725 274.310018 142.178653 Q 275.960538 137.854712 278.350323 134.013555 Q 278.959839 133.035916 279.225371 132.381139 C 279.373224 132.013016 279.189162 131.602649 278.830091 131.509109 Q 278.742586 131.487987 278.618872 131.632823 Z" style="fill:#000000;"/>
		<path d="M 255.06362 58.489595 C 255.152513 57.727519 255.921951 57.193438 256.777898 57.293435 C 257.635837 57.395605 258.257423 58.092625 258.168288 58.854339 C 258.079396 59.616415 257.309957 60.150495 256.45401 60.050499 C 255.596071 59.948329 254.974486 59.251309 255.06362 58.489595 Z" style="fill:#000000;"/>
		<path d="M 272.276287 59.073282 C 272.276287 59.851772 271.645649 60.48241 270.867158 60.48241 C 270.088668 60.48241 269.45803 59.851772 269.45803 59.073282 C 269.45803 58.294791 270.088668 57.664154 270.867158 57.664154 C 271.645649 57.664154 272.276287 58.294791 272.276287 59.073282 Z" style="fill:#000000;"/>
		<path d="M 201.041387 61.979043 C 200.923708 61.791964 201.062509 61.547554 201.282779 61.553589 Q 203.9562 61.616954 206.180028 61.876451 C 214.984816 62.902369 223.75943 65.165423 231.849093 68.76217 Q 236.176052 70.687274 238.912838 72.434352 Q 239.320188 72.693849 239.555546 73.061972 C 239.700381 73.288277 239.555546 73.587 239.286997 73.614157 C 238.15547 73.728818 236.157947 73.641314 234.649245 73.372765 C 233.550909 73.176633 231.740466 73.019728 230.5154 72.772301 Q 229.302403 72.527891 228.454512 72.410212 C 227.49196 72.277447 226.641052 71.984758 225.521594 71.755436 Q 223.602525 71.360155 221.541637 70.651065 C 221.251966 70.551491 220.953243 70.765727 220.953243 71.067467 L 220.953243 83.336236 C 220.953243 83.505211 221.113166 83.628925 221.279123 83.589698 C 221.810186 83.45995 222.136066 82.965096 222.621868 82.687494 Q 223.593473 82.135309 224.8638 81.601228 C 224.95734 81.562002 225.056914 81.534845 225.162523 81.519758 C 226.164302 81.39001 226.825113 81.1456 227.745422 81.130513 Q 230.663253 81.0762 232.983637 81.281383 C 235.249709 81.480532 237.310596 81.414149 239.428815 81.670629 C 240.735351 81.827534 242.162584 81.700803 243.291093 81.905986 Q 244.211402 82.077978 245.282581 82.056857 Q 247.693487 82.014613 250.339751 82.473258 C 252.829111 82.904747 253.894255 85.403159 253.673984 87.666213 Q 253.381296 90.629305 250.988494 92.131972 Q 250.762188 92.27379 249.410391 92.605705 C 249.25952 92.644931 249.105633 92.663036 248.948728 92.660018 Q 245.726139 92.638896 245.068345 92.581566 Q 242.27121 92.337156 240.207305 92.294912 C 238.764985 92.264738 237.449397 91.990154 235.925607 91.996189 C 234.537601 92.002224 233.161664 91.718588 231.761588 91.703501 C 230.240816 91.685396 229.459308 91.531509 227.685074 91.362534 Q 224.172814 91.030619 221.52655 88.788687 C 221.315332 88.607643 220.989452 88.758513 220.989452 89.036115 L 220.989452 141.831652 C 220.989452 142.202793 221.137305 142.558847 221.399819 142.821361 L 230.838262 152.256787 C 231.221473 152.639997 231.257682 153.249513 230.919732 153.67195 L 230.316251 154.435353 C 230.008476 154.818564 229.447238 154.875894 229.067045 154.565101 Q 228.382094 154.003864 227.41049 153.062434 Q 223.617612 149.393269 219.643689 145.69393 Q 218.442762 144.574473 217.211661 145.503834 C 214.743423 147.365573 212.136385 149.673888 209.472017 151.801158 Q 207.248189 153.57841 206.644708 154.118526 Q 204.650203 155.916899 201.856086 155.15953 C 201.548311 155.075043 201.463823 154.68278 201.708233 154.480614 L 217.244852 141.686816 C 217.377618 141.575172 217.456071 141.412233 217.456071 141.237223 Q 217.440984 112.104177 217.453053 69.987236 C 217.453053 68.744065 216.460327 68.973388 215.715028 68.584143 C 215.579245 68.511725 215.473635 68.457412 215.449496 68.451377 Q 208.216776 66.109871 201.593572 62.431654 Q 201.183205 62.205348 201.041387 61.979043 Z" style="fill:#000000;"/>
		<path d="M 255.051128 63.40365 C 255.080095 62.663994 255.774098 62.08767 256.597427 62.121947 C 257.421601 62.154052 258.064309 62.781673 258.035945 63.523562 C 258.006978 64.263219 257.312975 64.839543 256.489646 64.805265 C 255.665472 64.77316 255.022764 64.14554 255.051128 63.40365 Z" style="fill:#000000;"/>
		<path d="M 269.384255 63.243517 C 269.780893 62.624768 270.652923 62.476915 271.329576 62.911089 C 272.007738 63.345927 272.234043 64.199853 271.837103 64.81824 C 271.440465 65.436989 270.568435 65.584842 269.891782 65.150668 C 269.21362 64.715829 268.987315 63.861904 269.384255 63.243517 Z" style="fill:#000000;"/>
		<path d="M 278.618872 131.632823 Q 278.742586 131.487987 278.830091 131.509109 C 279.189162 131.602649 279.373224 132.013016 279.225371 132.381139 Q 278.959839 133.035916 278.350323 134.013555 Q 275.960538 137.854712 274.310018 142.178653 Q 273.444022 144.444725 273.395744 146.722866 Q 273.383674 147.335399 273.791024 151.354582 Q 274.494079 158.309701 274.488045 163.728961 C 274.485027 166.704122 274.080695 169.990076 272.523714 172.376844 Q 270.523174 175.43951 266.009136 175.321831 Q 262.336954 175.225274 259.521715 174.823959 C 253.48087 173.954947 248.429734 173.085934 243.37558 171.522918 C 241.444441 170.925472 239.664172 170.412513 238.716707 168.924932 C 238.529628 168.629227 238.45721 168.27619 238.514541 167.929189 Q 238.792142 166.254529 239.443902 164.504434 C 241.483667 159.033878 243.779913 155.117287 247.340451 148.572535 Q 249.277625 145.011997 249.838862 141.792426 C 250.490622 138.035756 250.602266 134.704541 254.277465 133.247134 Q 256.706476 132.284582 259.576029 132.571236 Q 263.50469 132.963498 267.312655 134.448062 C 269.705458 135.383457 272.116364 135.748563 274.207426 134.90369 Q 276.699803 133.898894 278.618872 131.632823 Z M 278.815004 131.590579 L 277.496398 133.307482 C 277.484328 133.322569 277.487345 133.343691 277.502432 133.355761 L 277.508467 133.358778 C 277.804173 133.588101 278.28394 133.46137 278.576629 133.081177 L 278.875352 132.691932 C 279.16804 132.311739 279.165023 131.816884 278.866299 131.587562 L 278.863282 131.584544 C 278.848195 131.572475 278.827073 131.575492 278.815004 131.590579 Z M 245.403277 167.156733 C 243.728617 166.710157 243.248849 168.496461 243.45705 169.806015 C 243.626025 170.856072 246.95724 171.649649 247.741766 171.842763 Q 253.815802 173.342414 260.511424 174.066591 C 261.618812 174.187287 263.118462 174.392471 263.6797 173.538545 C 264.45819 172.352705 264.298268 170.285782 262.536103 170.137929 Q 253.885203 169.410735 245.403277 167.156733 Z" style="fill:#f9f9f9;"/>
		<path d="M 243.45705 169.806015 C 243.248849 168.496461 243.728617 166.710157 245.403277 167.156733 Q 253.885203 169.410735 262.536103 170.137929 C 264.298268 170.285782 264.45819 172.352705 263.6797 173.538545 C 263.118462 174.392471 261.618812 174.187287 260.511424 174.066591 Q 253.815802 173.342414 247.741766 171.842763 C 246.95724 171.649649 243.626025 170.856072 243.45705 169.806015 Z" style="fill:#000000;"/>
	</g>
	<g id="surface4">
	</g>
</svg>
