<?xml version="1.0" encoding="utf-8"?>
<svg xmlns="http://www.w3.org/2000/svg" width="490pt" height="280pt" viewBox="0 0 490 280" version="1.1" xmlns:xlink="http://www.w3.org/1999/xlink">
	<g id="surface2" data-size="139.45668684985 148" data-bboxpos="175.5 53.058706233823" data-pivot="245.22834342493 127.05870623382" data-center="245.22834342493 127.05870623382">
		<path vector-effect="non-scaling-stroke" d="M 184.058485 55.937274 Q 184.280834 57.772537 184.390244 56.614909" style="fill:none;stroke-width:0.50;stroke:#3b3a3c;"/>
		<path vector-effect="non-scaling-stroke" d="M 184.439655 59.424275 L 184.054956 60.387788" style="fill:none;stroke-width:0.50;stroke:#707072;"/>
		<path vector-effect="non-scaling-stroke" d="M 184.054956 60.387788 L 183.942016 60.913662" style="fill:none;stroke-width:0.50;stroke:#3b3a3c;"/>
		<path stroke-opacity="0.996" vector-effect="non-scaling-stroke" d="M 184.164366 60.726606 Q 184.058485 60.631313 184.054956 60.387788" style="fill:none;stroke-width:0.50;stroke:#979798;"/>
		<path vector-effect="non-scaling-stroke" d="M 314.513964 55.79257 Q 314.59161 56.597263 314.912781 57.299604" style="fill:none;stroke-width:0.50;stroke:#3b3a3c;"/>
		<path vector-effect="non-scaling-stroke" d="M 311.42578 62.960686 Q 310.698734 62.745396 310.22933 63.063038" style="fill:none;stroke-width:0.50;stroke:#3b3a3c;"/>
		<path vector-effect="non-scaling-stroke" d="M 306.414099 60.493668 Q 306.481157 59.960736 306.181162 59.480744" style="fill:none;stroke-width:0.50;stroke:#707072;"/>
		<path vector-effect="non-scaling-stroke" d="M 306.205867 59.233689 Q 305.877637 56.936081 307.102323 54.567885" style="fill:none;stroke-width:0.50;stroke:#707072;"/>
		<path stroke-opacity="0.996" vector-effect="non-scaling-stroke" d="M 305.662347 57.394896 Q 305.602348 57.59607 305.637641 57.804301" style="fill:none;stroke-width:0.50;stroke:#979798;"/>
		<path vector-effect="non-scaling-stroke" d="M 247.516254 54.398476 Q 264.788908 54.642001 278.052217 54.479651 Q 278.412211 54.472592 278.496916 54.031423" style="fill:none;stroke-width:0.50;stroke:#3b3a3c;"/>
		<path vector-effect="non-scaling-stroke" d="M 281.115696 54.222008 Q 281.228635 54.546708 281.676863 54.543179 Q 286.473254 54.500827 291.259057 54.479651 Q 291.957869 54.476121 292.102572 53.738487" style="fill:none;stroke-width:0.50;stroke:#3b3a3c;"/>
		<path vector-effect="non-scaling-stroke" d="M 294.07901 54.165538 Q 294.502532 54.578473 295.268402 54.53612 Q 296.0978 54.486709 296.140152 54.486709 Q 300.343612 54.564355 304.543542 54.356123" style="fill:none;stroke-width:0.50;stroke:#3b3a3c;"/>
		<path vector-effect="non-scaling-stroke" d="M 305.817638 55.224344 Q 305.235295 57.229017 305.524702 59.671329 Q 305.581172 60.154851 305.845873 60.303083" style="fill:none;stroke-width:0.50;stroke:#707072;"/>
		<path vector-effect="non-scaling-stroke" d="M 304.914124 60.913662 L 294.520179 60.906603" style="fill:none;stroke-width:0.50;stroke:#3b3a3c;"/>
		<path vector-effect="non-scaling-stroke" d="M 293.599018 171.615351 Q 293.062556 171.84123 293.390786 172.06005" style="fill:none;stroke-width:0.50;stroke:#3b3a3c;"/>
		<path vector-effect="non-scaling-stroke" d="M 297.283662 178.776409 Q 296.507205 180.466969 297.386014 180.117563" style="fill:none;stroke-width:0.50;stroke:#3b3a3c;"/>
		<path vector-effect="non-scaling-stroke" d="M 308.895234 187.55391 L 298.631875 187.546851" style="fill:none;stroke-width:0.50;stroke:#3b3a3c;"/>
		<path vector-effect="non-scaling-stroke" d="M 295.194285 187.483323 Q 294.73194 187.688025 295.084875 188.076254" style="fill:none;stroke-width:0.50;stroke:#3b3a3c;"/>
		<path vector-effect="non-scaling-stroke" d="M 290.828476 191.467963 Q 290.623773 191.909132 290.877887 192.315007" style="fill:none;stroke-width:0.50;stroke:#3b3a3c;"/>
		<path vector-effect="non-scaling-stroke" d="M 288.139108 188.136253 Q 288.322635 188.132724 288.386163 187.868022 C 288.410869 187.769201 288.35087 187.670379 288.248518 187.645673 L 288.026169 187.592733" style="fill:none;stroke-width:0.50;stroke:#3b3a3c;"/>
		<path vector-effect="non-scaling-stroke" d="M 282.139208 191.940896 Q 282.435674 191.122086 282.227442 190.218572" style="fill:none;stroke-width:0.50;stroke:#3b3a3c;"/>
		<path vector-effect="non-scaling-stroke" d="M 282.73214 188.051549 Q 282.94743 188.062137 283.032135 187.924492 Q 283.088604 187.836258 283.010958 187.77273" style="fill:none;stroke-width:0.50;stroke:#3b3a3c;"/>
		<path vector-effect="non-scaling-stroke" d="M 278.218097 194.626734 L 278.108687 196.867873" style="fill:none;stroke-width:0.50;stroke:#3b3a3c;"/>
		<path vector-effect="non-scaling-stroke" d="M 276.153425 188.076254 Q 276.305187 188.019785 276.354598 187.857434 Q 276.407539 187.688025 276.252247 187.603321 Q 276.146367 187.546851 275.948723 187.568027" style="fill:none;stroke-width:0.50;stroke:#3b3a3c;"/>
		<path vector-effect="non-scaling-stroke" d="M 271.025275 187.769201 Q 270.785279 188.090372 271.145273 188.249193" style="fill:none;stroke-width:0.50;stroke:#3b3a3c;"/>
		<path vector-effect="non-scaling-stroke" d="M 265.494779 187.575086 L 263.874806 187.589204" style="fill:none;stroke-width:0.50;stroke:#3b3a3c;"/>
		<path vector-effect="non-scaling-stroke" d="M 257.659615 187.628026 L 255.404358 187.560969" style="fill:none;stroke-width:0.50;stroke:#3b3a3c;"/>
		<path vector-effect="non-scaling-stroke" d="M 249.097404 187.585674 L 247.978599 187.585674" style="fill:none;stroke-width:0.50;stroke:#3b3a3c;"/>
		<path vector-effect="non-scaling-stroke" d="M 244.848063 187.61038 L 241.992816 187.61038" style="fill:none;stroke-width:0.50;stroke:#3b3a3c;"/>
		<path vector-effect="non-scaling-stroke" d="M 234.694114 187.568027 Q 234.623527 187.723319 234.591763 187.815082 Q 234.542352 187.956256 234.66235 188.040961 Q 234.761172 188.111548 234.962345 188.104489" style="fill:none;stroke-width:0.50;stroke:#3b3a3c;"/>
		<path vector-effect="non-scaling-stroke" d="M 235.75292 197.033753 Q 235.583511 198.134911 235.795272 199.257245" style="fill:none;stroke-width:0.50;stroke:#3b3a3c;"/>
		<path vector-effect="non-scaling-stroke" d="M 232.788264 199.296068 L 232.735323 194.640851" style="fill:none;stroke-width:0.50;stroke:#3b3a3c;"/>
		<path vector-effect="non-scaling-stroke" d="M 232.978849 188.069196 Q 233.144728 188.065666 233.222374 187.913904 Q 233.335313 187.691555 233.13414 187.539793 Q 233.042377 187.472735 232.858851 187.550381" style="fill:none;stroke-width:0.50;stroke:#3b3a3c;"/>
		<path vector-effect="non-scaling-stroke" d="M 229.513024 187.546851 Q 229.276557 187.635085 229.269499 187.790377 Q 229.248322 188.168017 229.498906 188.42919" style="fill:none;stroke-width:0.50;stroke:#3b3a3c;"/>
		<path vector-effect="non-scaling-stroke" d="M 229.742432 191.764428 L 229.830666 199.356067" style="fill:none;stroke-width:0.50;stroke:#707072;"/>
		<path vector-effect="non-scaling-stroke" d="M 226.717776 188.704479 Q 227.264826 187.670379 226.738952 187.571557" style="fill:none;stroke-width:0.50;stroke:#707072;"/>
		<path vector-effect="non-scaling-stroke" d="M 222.457847 187.60685 L 220.989636 187.656261" style="fill:none;stroke-width:0.50;stroke:#707072;"/>
		<path vector-effect="non-scaling-stroke" d="M 214.96503 187.589204 L 213.761521 187.688025" style="fill:none;stroke-width:0.50;stroke:#707072;"/>
		<path vector-effect="non-scaling-stroke" d="M 213.299176 187.638615 L 210.613338 187.571557" style="fill:none;stroke-width:0.50;stroke:#3b3a3c;"/>
		<path vector-effect="non-scaling-stroke" d="M 208.933366 199.959586 Q 208.696899 200.107819 208.718075 200.400755" style="fill:none;stroke-width:0.50;stroke:#3b3a3c;"/>
		<path vector-effect="non-scaling-stroke" d="M 205.91224 194.997316 L 206.007532 189.79152" style="fill:none;stroke-width:0.50;stroke:#3b3a3c;"/>
		<path vector-effect="non-scaling-stroke" d="M 206.265175 188.238605 Q 206.702815 187.71979 206.240469 187.638615" style="fill:none;stroke-width:0.50;stroke:#707072;"/>
		<path vector-effect="non-scaling-stroke" d="M 196.19593 187.737436 Q 195.994757 188.683303 196.210048 189.664463" style="fill:none;stroke-width:0.50;stroke:#3b3a3c;"/>
		<path vector-effect="non-scaling-stroke" d="M 193.534798 188.1539 Q 193.661855 188.150371 193.661855 187.966844 Q 193.658326 187.755083 193.534798 187.77273" style="fill:none;stroke-width:0.50;stroke:#3b3a3c;"/>
		<path vector-effect="non-scaling-stroke" d="M 193.294802 166.151913 L 193.298332 62.452459" style="fill:none;stroke-width:0.50;stroke:#707072;"/>
		<path vector-effect="non-scaling-stroke" d="M 193.206568 60.931308 L 186.21139 60.941896" style="fill:none;stroke-width:0.50;stroke:#3b3a3c;"/>
		<path vector-effect="non-scaling-stroke" d="M 185.12082 57.652539 Q 185.519637 56.72079 185.050233 56.170211" style="fill:none;stroke-width:0.50;stroke:#3b3a3c;"/>
		<path vector-effect="non-scaling-stroke" d="M 186.296095 54.391417 Q 190.757197 54.642001 193.171275 54.469063 Q 193.721854 54.43024 194.039496 53.738487" style="fill:none;stroke-width:0.50;stroke:#3b3a3c;"/>
		<path vector-effect="non-scaling-stroke" d="M 196.019463 53.918484 Q 196.220636 54.507886 196.644158 54.514944 Q 200.56527 54.606707 206.035767 54.334947" style="fill:none;stroke-width:0.50;stroke:#3b3a3c;"/>
		<path vector-effect="non-scaling-stroke" d="M 208.725134 53.974953 Q 208.806309 54.507886 209.303948 54.507886 Q 226.650718 54.476121 243.997489 54.500827 Q 244.505716 54.500827 244.675125 53.9926" style="fill:none;stroke-width:0.50;stroke:#3b3a3c;"/>
		<path vector-effect="non-scaling-stroke" d="M 280.176888 53.346728 Q 279.898069 53.505549 279.336902 53.332611" style="fill:none;stroke-width:0.50;stroke:#3b3a3c;"/>
		<path vector-effect="non-scaling-stroke" d="M 208.231025 53.519667 L 206.840459 53.438492" style="fill:none;stroke-width:0.50;stroke:#3b3a3c;"/>
		<path vector-effect="non-scaling-stroke" d="M 222.404907 188.016255 L 221.773152 187.82567 C 221.684919 187.797435 221.589626 187.804494 221.504922 187.839788 Q 221.120222 188.009197 220.760228 188.005667" style="fill:none;stroke-width:0.50;stroke:#707072;"/>
		<path stroke-opacity="0.996" vector-effect="non-scaling-stroke" d="M 193.255979 165.396631 L 193.231274 165.093107" style="fill:none;stroke-width:0.50;stroke:#979798;"/>
		<path stroke-opacity="0.996" vector-effect="non-scaling-stroke" d="M 193.234803 165.040167 L 193.231274 164.74723" style="fill:none;stroke-width:0.50;stroke:#979798;"/>
		<path stroke-opacity="0.996" vector-effect="non-scaling-stroke" d="M 193.234803 164.690761 L 193.25245 163.335489" style="fill:none;stroke-width:0.50;stroke:#979798;"/>
		<path vector-effect="non-scaling-stroke" d="M 215.003853 187.790377 Q 214.982677 187.850376 214.961501 187.88214 C 214.943854 187.906845 214.915619 187.917433 214.887385 187.910375 Q 213.955635 187.705672 213.32741 188.415072" style="fill:none;stroke-width:0.50;stroke:#707072;"/>
		<path vector-effect="non-scaling-stroke" d="M 223.015485 192.491475 Q 222.831958 195.470249 222.98725 198.452552 C 222.98725 198.456082 222.990779 198.456082 222.990779 198.456082 Q 222.994309 198.452552 222.997838 198.449023 C 223.004897 198.441964 223.008426 198.434906 223.008426 198.424318 L 223.071954 195.922006" style="fill:none;stroke-width:0.50;stroke:#3b3a3c;"/>
		<path vector-effect="non-scaling-stroke" d="M 220.033181 195.699657 L 220.09671 191.835015" style="fill:none;stroke-width:0.50;stroke:#3b3a3c;"/>
		<path vector-effect="non-scaling-stroke" d="M 220.09671 191.835015 L 220.117886 190.017399" style="fill:none;stroke-width:0.50;stroke:#707072;"/>
		<path vector-effect="non-scaling-stroke" d="M 215.967367 192.999702 L 215.94972 199.765472" style="fill:none;stroke-width:0.50;stroke:#707072;"/>
		<path stroke-opacity="0.996" vector-effect="non-scaling-stroke" d="M 220.09671 191.835015 L 220.033181 192.180892" style="fill:none;stroke-width:0.50;stroke:#979798;"/>
		<path vector-effect="non-scaling-stroke" d="M 240.475195 187.815082 Q 240.1752 188.415072 239.794029 188.175076" style="fill:none;stroke-width:0.50;stroke:#3b3a3c;"/>
		<path vector-effect="non-scaling-stroke" d="M 241.802231 189.922106 L 241.770467 197.806681" style="fill:none;stroke-width:0.50;stroke:#3b3a3c;"/>
		<path vector-effect="non-scaling-stroke" d="M 238.784635 198.989014 L 238.86228 193.440871" style="fill:none;stroke-width:0.50;stroke:#3b3a3c;"/>
		<path vector-effect="non-scaling-stroke" d="M 200.815854 187.899787 Q 200.501741 188.376249 200.028808 188.115077" style="fill:none;stroke-width:0.50;stroke:#3b3a3c;"/>
		<path vector-effect="non-scaling-stroke" d="M 202.224066 192.198539 L 202.25583 198.897251" style="fill:none;stroke-width:0.50;stroke:#3b3a3c;"/>
		<path vector-effect="non-scaling-stroke" d="M 199.209998 195.720833 L 199.284114 189.84799" style="fill:none;stroke-width:0.50;stroke:#3b3a3c;"/>
		<path vector-effect="non-scaling-stroke" d="M 247.763309 189.565641 Q 247.629193 190.409157 247.851543 191.206791" style="fill:none;stroke-width:0.50;stroke:#3b3a3c;"/>
		<path vector-effect="non-scaling-stroke" d="M 261.06897 193.091465 L 261.076029 199.409007" style="fill:none;stroke-width:0.50;stroke:#3b3a3c;"/>
		<path vector-effect="non-scaling-stroke" d="M 179.98787 56.050672 C 179.149155 56.06786 178.489166 57.013726 178.514189 58.164331 C 178.538577 59.314865 179.237389 60.232496 180.075116 60.214391 C 180.913831 60.197203 181.57382 59.251336 181.548797 58.100732 C 181.52441 56.950198 180.825598 56.032566 179.98787 56.050672" style="fill:none;stroke-width:0.50;stroke:#3b3a3c;"/>
		<path vector-effect="non-scaling-stroke" d="M 310.559007 56.040084 C 309.745808 56.057272 309.103466 57.020785 309.128489 58.191648 C 309.152877 59.364275 309.834042 60.299554 310.647876 60.281448 C 311.461074 60.264261 312.103416 59.300747 312.078393 58.129884 C 312.054005 56.957257 311.37284 56.021978 310.559007 56.040084" style="fill:none;stroke-width:0.50;stroke:#3b3a3c;"/>
		<path vector-effect="non-scaling-stroke" d="M 207.966323 65.215943 Q 207.496919 64.993594 207.352216 65.226531" style="fill:none;stroke-width:0.50;stroke:#3b3a3c;"/>
		<path vector-effect="non-scaling-stroke" d="M 205.982827 63.370091 L 205.901652 61.397183" style="fill:none;stroke-width:0.50;stroke:#3b3a3c;"/>
		<path vector-effect="non-scaling-stroke" d="M 205.785183 60.881897 L 196.453573 60.81131 C 196.30534 60.81131 196.181813 60.934838 196.185342 61.08307 Q 196.255929 66.151222 196.248871 71.498192 Q 196.210048 93.76841 196.234753 152.701548 C 196.234753 155.249741 196.375927 159.304968 196.178284 162.636677 Q 196.164166 162.848438 196.538278 162.933143" style="fill:none;stroke-width:0.50;stroke:#3b3a3c;"/>
		<path vector-effect="non-scaling-stroke" d="M 237.087016 158.440276 Q 237.355246 157.385 237.069369 156.407369" style="fill:none;stroke-width:0.50;stroke:#3b3a3c;"/>
		<path vector-effect="non-scaling-stroke" d="M 256.861981 157.049711 L 256.830217 159.163794" style="fill:none;stroke-width:0.50;stroke:#3b3a3c;"/>
		<path vector-effect="non-scaling-stroke" d="M 255.273772 162.340211 Q 254.716134 162.72844 254.970248 162.936672" style="fill:none;stroke-width:0.50;stroke:#3b3a3c;"/>
		<path vector-effect="non-scaling-stroke" d="M 262.247774 165.481336 Q 262.096012 172.575335 262.145423 179.669335 Q 262.152481 180.477557 262.734825 180.121092" style="fill:none;stroke-width:0.50;stroke:#3b3a3c;"/>
		<path vector-effect="non-scaling-stroke" d="M 278.331036 172.091814 Q 278.736912 172.194165 278.821616 171.989463 Q 278.934556 171.714173 278.440446 171.537706" style="fill:none;stroke-width:0.50;stroke:#707072;"/>
		<path vector-effect="non-scaling-stroke" d="M 290.888475 129.266643 Q 290.867298 129.718401 291.311997 129.852516 C 291.40376 129.880751 291.499053 129.820752 291.509641 129.725459 L 291.530817 129.566638" style="fill:none;stroke-width:0.50;stroke:#707072;"/>
		<path vector-effect="non-scaling-stroke" d="M 291.301409 60.885427 L 281.270987 60.790134 C 281.242753 60.790134 281.218047 60.807781 281.210988 60.832486 Q 281.189812 60.899544 281.221576 60.931308" style="fill:none;stroke-width:0.50;stroke:#3b3a3c;"/>
		<path vector-effect="non-scaling-stroke" d="M 281.048638 64.534778 L 280.229828 65.212414" style="fill:none;stroke-width:0.50;stroke:#3b3a3c;"/>
		<path vector-effect="non-scaling-stroke" d="M 279.922774 65.201826 Q 279.446312 65.057122 278.994555 65.127709" style="fill:none;stroke-width:0.50;stroke:#3b3a3c;"/>
		<path vector-effect="non-scaling-stroke" d="M 278.948673 64.979476 Q 278.945144 64.73948 278.680442 64.651246" style="fill:none;stroke-width:0.50;stroke:#3b3a3c;"/>
		<path vector-effect="non-scaling-stroke" d="M 278.373388 63.765379 L 278.401623 61.076012 C 278.401623 60.952484 278.302801 60.853663 278.182803 60.850133 L 271.685264 60.751311" style="fill:none;stroke-width:0.50;stroke:#707072;"/>
		<path vector-effect="non-scaling-stroke" d="M 271.685264 60.751311 Q 260.176044 60.694842 248.670353 60.712488 Q 248.003305 60.712488 247.339786 60.776017 Q 247.290376 60.779546 247.353904 60.97719" style="fill:none;stroke-width:0.50;stroke:#3b3a3c;"/>
		<path vector-effect="non-scaling-stroke" d="M 247.135084 64.626541 Q 246.351568 65.33947 245.091589 64.972418" style="fill:none;stroke-width:0.50;stroke:#3b3a3c;"/>
		<path vector-effect="non-scaling-stroke" d="M 244.533951 63.013627 L 244.548068 61.044248 C 244.551598 60.903073 244.435129 60.786605 244.290425 60.783075 Q 226.622484 60.518374 208.781604 60.881897" style="fill:none;stroke-width:0.50;stroke:#3b3a3c;"/>
		<path stroke-opacity="0.996" vector-effect="non-scaling-stroke" d="M 271.685264 60.751311 Q 271.752322 60.952484 271.184096 60.987778" style="fill:none;stroke-width:0.50;stroke:#979798;"/>
		<path vector-effect="non-scaling-stroke" d="M 251.384425 151.014517 Q 251.190311 151.166279 251.176193 151.353335 Q 251.162076 151.565096 251.349132 151.632154 Q 251.507952 151.688624 251.68795 151.561567" style="fill:none;stroke-width:0.50;stroke:#707072;"/>
		<path vector-effect="non-scaling-stroke" d="M 242.275165 151.187456 Q 242.395163 151.388629 242.624571 151.367453 C 242.741039 151.356864 242.79398 151.21922 242.712805 151.134515 L 242.41281 150.827462" style="fill:none;stroke-width:0.50;stroke:#707072;"/>
		<path vector-effect="non-scaling-stroke" d="M 240.079907 156.559131 Q 239.758736 157.416764 240.083436 158.073223" style="fill:none;stroke-width:0.50;stroke:#3b3a3c;"/>
		<path vector-effect="non-scaling-stroke" d="M 259.163119 180.015212 Q 259.018416 180.085799 259.21606 180.092858 C 259.304294 180.096387 259.37841 180.022271 259.37841 179.934037 L 259.37841 166.593082 C 259.37841 166.480143 259.328999 166.374262 259.240765 166.303675 Q 258.803125 165.961328 258.104313 166.197794" style="fill:none;stroke-width:0.50;stroke:#3b3a3c;"/>
		<path vector-effect="non-scaling-stroke" d="M 257.917258 166.155442 L 255.3973 166.176618" style="fill:none;stroke-width:0.50;stroke:#3b3a3c;"/>
		<path vector-effect="non-scaling-stroke" d="M 278.489857 176.704679 Q 278.048688 178.031715 279.01926 178.910524" style="fill:none;stroke-width:0.50;stroke:#3b3a3c;"/>
		<path vector-effect="non-scaling-stroke" d="M 311.708129 183.862207 C 311.708129 183.773973 311.637542 183.703386 311.549308 183.703386 L 178.803278 183.703386 C 178.715044 183.703386 178.644457 183.773973 178.644457 183.862207 L 178.644457 183.869265 C 178.644457 183.957499 178.715044 184.028086 178.803278 184.028086 L 311.549308 184.028086 C 311.637542 184.028086 311.708129 183.957499 311.708129 183.869265 L 311.708129 183.862207" style="fill:none;stroke-width:0.50;stroke:#3b3a3c;"/>
		<path vector-effect="non-scaling-stroke" d="M 208.809838 193.836159 Q 208.809838 194.845554 208.862779 194.845554 Q 208.919248 194.845554 208.919248 193.836159 Q 208.922778 192.826764 208.869837 192.826764 Q 208.813368 192.826764 208.809838 193.836159" style="fill:none;stroke-width:0.50;stroke:#3b3a3c;"/>
		<path vector-effect="non-scaling-stroke" d="M 208.806309 194.962022 Q 208.795721 195.078491 208.85572 195.131431 C 208.866308 195.142019 208.887484 195.134961 208.887484 195.117314 L 208.887484 194.965552 C 208.887484 194.944375 208.869837 194.926729 208.848661 194.926729 C 208.827485 194.923199 208.809838 194.940846 208.806309 194.962022" style="fill:none;stroke-width:0.50;stroke:#3b3a3c;"/>
		<path d="M 184.058485 55.937274 Q 184.280834 57.772537 184.390244 56.614909 L 184.439655 59.424275 L 184.054956 60.387788 L 183.942016 60.913662 Q 182.576157 62.83363 180.169138 63.055979 C 179.989141 63.073626 179.809144 63.059508 179.632676 63.010097 C 178.393873 62.66775 177.43036 62.367755 176.618609 61.379536 Q 175.976266 60.59602 175.715094 59.523096 Q 174.737463 55.510222 178.203288 53.403198 C 178.280934 53.357316 178.365639 53.322023 178.453872 53.300847 Q 180.980889 52.662034 182.802035 54.119657 C 182.847917 54.15495 182.88321 54.197303 182.911445 54.250243 Q 182.999679 54.412593 183.133795 54.525532 Q 183.822018 55.097288 184.058485 55.937274 Z M 179.98787 56.050672 C 179.149155 56.06786 178.489166 57.013726 178.514189 58.164331 C 178.538577 59.314865 179.237389 60.232496 180.075116 60.214391 C 180.913831 60.197203 181.57382 59.251336 181.548797 58.100732 C 181.52441 56.950198 180.825598 56.032566 179.98787 56.050672 Z" style="fill:#151417;"/>
		<path d="M 314.513964 55.79257 Q 314.59161 56.597263 314.912781 57.299604 Q 315.350421 61.619532 311.42578 62.960686 Q 310.698734 62.745396 310.22933 63.063038 Q 308.651709 62.791277 307.437611 61.725413 Q 307.423494 61.711295 307.409377 61.697178 L 306.414099 60.493668 Q 306.481157 59.960736 306.181162 59.480744 L 306.205867 59.233689 Q 305.877637 56.936081 307.102323 54.567885 Q 310.762262 51.313821 314.164558 55.076111 Q 314.298674 55.227874 314.513964 55.79257 Z M 310.559007 56.040084 C 309.745808 56.057272 309.103466 57.020785 309.128489 58.191648 C 309.152877 59.364275 309.834042 60.299554 310.647876 60.281448 C 311.461074 60.264261 312.103416 59.300747 312.078393 58.129884 C 312.054005 56.957257 311.37284 56.021978 310.559007 56.040084 Z" style="fill:#151417;"/>
		<path fill-opacity="0.996" d="M 208.231025 53.519667 L 206.840459 53.438492 Q 207.503978 52.940853 208.231025 53.519667 Z" style="fill:#616062;"/>
		<path fill-opacity="0.996" d="M 280.176888 53.346728 Q 279.898069 53.505549 279.336902 53.332611 Q 279.848658 53.163202 280.176888 53.346728 Z" style="fill:#616062;"/>
		<path d="M 247.516254 54.398476 Q 264.788908 54.642001 278.052217 54.479651 Q 278.412211 54.472592 278.496916 54.031423 Q 278.906321 53.576136 279.336902 53.332611 Q 279.898069 53.505549 280.176888 53.346728 Q 280.812171 53.569078 281.115696 54.222008 Q 281.228635 54.546708 281.676863 54.543179 Q 286.473254 54.500827 291.259057 54.479651 Q 291.957869 54.476121 292.102572 53.738487 Q 293.539019 53.124379 294.07901 54.165538 Q 294.502532 54.578473 295.268402 54.53612 Q 296.0978 54.486709 296.140152 54.486709 Q 300.343612 54.564355 304.543542 54.356123 Q 306.07881 54.285536 305.817638 55.224344 Q 305.235295 57.229017 305.524702 59.671329 Q 305.581172 60.154851 305.845873 60.303083 Q 305.764698 61.079541 304.914124 60.913662 L 294.520179 60.906603 Q 294.541355 64.580659 294.548414 68.23354 Q 294.664882 113.850429 294.587237 129.414876 Q 294.573119 131.836012 294.474297 133.9748 C 294.456651 134.288913 294.544884 134.599496 294.721352 134.860668 Q 297.975416 139.678235 301.067129 144.305217 C 302.711808 146.772235 304.356486 149.182783 304.889418 152.112146 Q 305.990577 158.175575 302.341225 163.289607 Q 300.721252 165.562511 298.674228 167.291894 Q 295.462516 170.009496 294.340182 170.923598 C 294.064892 171.145947 293.761368 171.181241 293.599018 171.615351 Q 293.062556 171.84123 293.390786 172.06005 Q 293.58843 172.300046 293.729604 172.268282 Q 294.2943 172.137696 294.968407 172.589453 Q 296.418971 173.563554 297.174252 175.049412 C 297.220134 175.141175 297.24131 175.239997 297.24484 175.342348 L 297.283662 178.776409 Q 296.507205 180.466969 297.386014 180.117563 Q 303.9012 180.223444 310.268153 180.159915 C 310.744615 180.152857 311.362252 180.262267 311.859891 180.304619 C 311.990477 180.315207 312.121063 180.3505 312.241061 180.40697 Q 315.258658 181.829299 314.436319 185.122186 Q 314.132794 186.332754 312.749288 187.144505 C 312.661054 187.197445 312.565761 187.239798 312.46341 187.264503 Q 310.712851 187.71626 308.895234 187.55391 L 298.631875 187.546851 L 295.194285 187.483323 Q 294.73194 187.688025 295.084875 188.076254 L 297.590716 198.971367 C 297.604834 199.034896 297.608363 199.098424 297.597775 199.161952 Q 297.40366 200.686633 295.896627 200.753691 C 295.76957 200.75722 295.646043 200.718397 295.547221 200.644281 Q 294.756646 200.037232 294.615471 199.61018 Q 293.997835 197.729035 293.722545 195.639658 Q 293.673134 195.24437 293.284905 193.705573 Q 293.126084 193.056172 292.939029 191.743252 Q 292.730797 190.236218 292.455507 189.286822 Q 292.310804 188.782125 292.317863 188.002138 C 292.321392 187.776259 292.137866 187.592733 291.911987 187.592733 L 290.524951 187.592733 C 290.316719 187.592733 290.157898 187.769201 290.175545 187.973903 Q 290.239074 188.679774 290.419071 189.053885 C 290.447305 189.106825 290.464952 189.166824 290.47554 189.226823 L 290.828476 191.467963 Q 290.623773 191.909132 290.877887 192.315007 Q 291.07906 195.671422 291.604933 199.01372 Q 291.760225 199.987821 291.213175 200.573694 C 291.139059 200.651339 291.043766 200.707809 290.941415 200.736044 Q 288.95086 201.265447 288.516749 199.486653 C 288.477926 199.341949 288.463809 199.190187 288.470868 199.038425 Q 288.527337 197.513745 288.209696 196.147885 C 288.156755 195.922006 288.13205 195.692598 288.13205 195.459661 L 288.139108 188.136253 Q 288.322635 188.132724 288.386163 187.868022 C 288.410869 187.769201 288.35087 187.670379 288.248518 187.645673 L 288.026169 187.592733 L 284.814458 187.585674 C 284.630931 187.585674 284.507404 187.769201 284.570932 187.93861 L 284.930927 188.880947 C 284.962691 188.962122 284.980337 189.043297 284.983867 189.128002 Q 285.216804 193.529105 284.899162 198.876075 Q 284.846222 199.783119 284.574462 200.118407 C 283.910943 200.937217 283.00037 200.750161 282.266265 200.023115 C 282.174502 199.931351 282.121561 199.804295 282.118032 199.673709 C 282.114503 198.939603 281.973329 198.258438 282.001563 197.474922 Q 282.114503 194.686733 282.139208 191.940896 Q 282.435674 191.122086 282.227442 190.218572 L 282.605083 188.129195 C 282.608612 188.118607 282.612142 188.111548 282.615671 188.104489 Q 282.661552 188.051549 282.73214 188.051549 Q 282.94743 188.062137 283.032135 187.924492 Q 283.088604 187.836258 283.010958 187.77273 Q 282.961547 187.550381 282.718022 187.557439 Q 280.808642 187.638615 278.634561 187.575086 C 278.426329 187.568027 278.25692 187.737436 278.260449 187.945668 Q 278.267508 188.411543 278.458093 188.880947 C 278.503974 188.997415 278.525151 189.120943 278.518092 189.248 L 278.218097 194.626734 L 278.108687 196.867873 Q 277.808692 198.099617 277.840456 199.116071 C 277.87575 200.174877 276.799297 201.081921 275.733432 200.633693 C 274.731096 200.21017 274.604039 198.833723 274.805212 197.841974 Q 275.09109 196.44788 275.076973 196.278471 Q 274.995797 195.216136 275.292263 193.994979 C 275.345203 193.77263 275.373438 193.543222 275.369909 193.310285 Q 275.345203 190.627977 276.153425 188.076254 Q 276.305187 188.019785 276.354598 187.857434 Q 276.407539 187.688025 276.252247 187.603321 Q 276.146367 187.546851 275.948723 187.568027 Q 274.1664 187.585674 272.380547 187.546851 Q 272.355841 187.543322 271.727617 187.451559 Q 271.233507 187.380972 271.025275 187.769201 Q 270.785279 188.090372 271.145273 188.249193 L 271.166449 199.66665 C 271.166449 200.450166 270.474696 201.050156 269.698238 200.940746 L 269.521771 200.9231 C 268.752372 200.848983 268.170029 200.196053 268.184146 199.423125 L 268.360614 189.053885 C 268.364143 188.905652 268.392378 188.75389 268.438259 188.612716 L 268.639433 188.009197 C 268.734725 187.726848 268.519435 187.440971 268.222969 187.451559 L 265.494779 187.575086 L 263.874806 187.589204 L 257.659615 187.628026 L 255.404358 187.560969 L 254.349082 187.465676 C 254.08791 187.440971 253.918501 187.733907 254.073792 187.945668 Q 254.214966 188.136253 254.218496 188.42566 Q 254.310259 192.724412 254.260848 199.324303 C 254.253789 200.068996 253.639682 200.661928 252.894988 200.644281 L 252.813813 200.640751 C 252.076178 200.623105 251.476188 200.051349 251.423248 199.317244 Q 251.03149 194.019685 251.423248 188.948005 C 251.433836 188.80683 251.46913 188.672715 251.529129 188.545658 L 251.825594 187.928021 C 251.920887 187.726848 251.772654 187.493911 251.550305 187.50097 L 249.097404 187.585674 L 247.978599 187.585674 L 244.848063 187.61038 L 241.992816 187.61038 L 234.694114 187.568027 Q 234.623527 187.723319 234.591763 187.815082 Q 234.542352 187.956256 234.66235 188.040961 Q 234.761172 188.111548 234.962345 188.104489 Q 235.449396 189.607994 235.463513 190.525625 Q 235.502336 193.804394 235.75292 197.033753 Q 235.583511 198.134911 235.795272 199.257245 Q 235.883506 199.589004 235.587041 200.033703 C 234.704702 201.35721 232.91532 200.827807 232.788264 199.296068 L 232.735323 194.640851 Q 232.668266 191.930308 232.692971 189.202118 Q 232.6965 188.577422 232.978849 188.069196 Q 233.144728 188.065666 233.222374 187.913904 Q 233.335313 187.691555 233.13414 187.539793 Q 233.042377 187.472735 232.858851 187.550381 L 229.513024 187.546851 Q 229.276557 187.635085 229.269499 187.790377 Q 229.248322 188.168017 229.498906 188.42919 L 229.742432 191.764428 L 229.830666 199.356067 L 229.502436 200.404285 C 229.474201 200.488989 229.421261 200.559576 229.347144 200.608987 Q 228.245986 201.307799 227.310708 200.679574 C 226.813069 200.347815 226.693071 199.677238 226.693071 199.098424 Q 226.678953 193.874981 226.717776 188.704479 Q 227.264826 187.670379 226.738952 187.571557 L 222.457847 187.60685 L 220.989636 187.656261 L 214.96503 187.589204 L 213.761521 187.688025 L 213.299176 187.638615 L 210.613338 187.571557 L 208.915719 187.550381 C 208.756898 187.546851 208.629841 187.680967 208.64043 187.839788 Q 209.067481 193.469106 209.032188 199.084307 Q 209.028658 199.698414 208.933366 199.959586 Q 208.696899 200.107819 208.718075 200.400755 Q 208.675723 200.601929 208.587489 200.658398 Q 207.440449 201.41015 206.519288 200.750161 Q 205.90871 200.308992 205.891063 199.560769 Q 205.838123 197.383158 205.91224 194.997316 L 206.007532 189.79152 L 206.265175 188.238605 Q 206.702815 187.71979 206.240469 187.638615 Q 206.014591 187.490382 205.259309 187.539793 Q 202.319358 187.733907 196.700628 187.455088 Q 196.446515 187.4445 196.19593 187.737436 Q 195.994757 188.683303 196.210048 189.664463 Q 196.012404 191.764428 195.962993 193.899687 C 195.920641 195.840831 195.602999 197.506686 195.631234 199.437242 Q 195.638293 199.874882 194.904187 200.608987 C 194.815953 200.697221 194.695955 200.750161 194.572428 200.753691 Q 192.81481 200.827807 192.744223 198.996073 C 192.701871 197.880797 192.793634 195.699657 193.047747 194.199682 Q 193.224215 193.144405 193.171275 191.824427 C 193.128923 190.755033 193.517151 189.403291 193.534798 188.1539 Q 193.661855 188.150371 193.661855 187.966844 Q 193.658326 187.755083 193.534798 187.77273 Q 193.407741 187.359796 193.083041 187.398619 Q 192.034823 187.522146 191.053663 187.529205 Q 184.933765 187.575086 180.469133 187.50097 C 179.752674 187.490382 178.676222 187.469206 178.08329 187.148034 Q 175.806857 185.91629 175.880974 183.470449 C 175.884503 183.343392 175.905679 183.219864 175.944502 183.096337 Q 176.55861 181.06343 178.35505 180.304619 C 178.460931 180.258737 178.57387 180.237561 178.68681 180.237561 L 232.276507 180.237561 C 232.512974 180.237561 232.703559 180.046976 232.703559 179.810509 L 232.703559 166.681316 C 232.703559 166.409556 232.484739 166.190736 232.212979 166.190736 L 193.294802 166.151913 L 193.298332 62.452459 Q 193.488917 61.63012 193.206568 60.931308 L 186.21139 60.941896 Q 185.692576 61.012483 185.304347 60.941896 C 185.039645 60.892485 184.85259 60.64896 184.877295 60.3772 L 185.12082 57.652539 Q 185.519637 56.72079 185.050233 56.170211 Q 184.916118 55.690219 184.997293 55.009054 C 185.01141 54.906703 185.053763 54.807881 185.117291 54.723176 Q 185.498461 54.225537 186.296095 54.391417 Q 190.757197 54.642001 193.171275 54.469063 Q 193.721854 54.43024 194.039496 53.738487 Q 195.172418 53.106732 196.019463 53.918484 Q 196.220636 54.507886 196.644158 54.514944 Q 200.56527 54.606707 206.035767 54.334947 Q 206.176941 53.639665 206.840459 53.438492 L 208.231025 53.519667 L 208.725134 53.974953 Q 208.806309 54.507886 209.303948 54.507886 Q 226.650718 54.476121 243.997489 54.500827 Q 244.505716 54.500827 244.675125 53.9926 Q 245.458641 53.124379 246.199805 53.318494 Q 246.796266 53.477314 247.516254 54.398476 Z M 208.781604 60.881897 L 208.665135 64.231253 C 208.661606 64.344193 208.633371 64.453603 208.580431 64.552425 Q 208.319258 65.057122 207.966323 65.215943 Q 207.496919 64.993594 207.352216 65.226531 C 206.208705 65.279471 206.169882 64.14302 205.982827 63.370091 L 205.901652 61.397183 L 205.785183 60.881897 L 196.453573 60.81131 C 196.30534 60.81131 196.181813 60.934838 196.185342 61.08307 Q 196.255929 66.151222 196.248871 71.498192 Q 196.210048 93.76841 196.234753 152.701548 C 196.234753 155.249741 196.375927 159.304968 196.178284 162.636677 Q 196.164166 162.848438 196.538278 162.933143 L 238.805811 162.968436 C 239.02816 162.968436 239.151687 162.710793 239.010513 162.537855 Q 237.524655 160.734356 237.087016 158.440276 Q 237.355246 157.385 237.069369 156.407369 Q 237.302306 153.982703 239.232862 152.556845 C 239.296391 152.510963 239.29992 152.4192 239.24345 152.369789 Q 236.667023 150.118062 234.514117 147.714572 Q 230.635358 143.384056 228.235398 140.055876 C 225.009569 135.580656 223.562535 130.738384 225.228389 125.423178 Q 225.842497 123.457328 227.398941 121.085603 Q 228.669508 119.147988 230.225953 117.108022 Q 233.695307 112.555156 244.068076 99.291847 Q 244.901003 98.225983 245.320996 98.081279 Q 246.196276 97.777755 246.895088 98.585977 Q 247.26567 99.013028 249.358576 101.670631 Q 256.074935 110.183431 261.051323 116.853908 Q 263.190111 119.716214 264.601853 122.207937 C 265.985359 124.653779 266.934755 127.064327 266.987695 129.930162 Q 267.040636 132.66894 266.892403 133.395986 Q 266.094769 137.334745 263.857159 140.779393 Q 259.879578 146.902821 255.309066 152.175674 Q 254.843191 152.708607 255.404358 153.432124 Q 256.452576 154.780337 256.861981 157.049711 L 256.830217 159.163794 Q 256.59728 161.009645 255.273772 162.340211 Q 254.716134 162.72844 254.970248 162.936672 Q 255.118481 163.099022 255.28789 163.081376 Q 257.013743 162.911967 258.736068 162.968436 Q 260.345453 163.017847 261.047794 163.480192 Q 262.018366 164.115476 262.247774 165.481336 Q 262.096012 172.575335 262.145423 179.669335 Q 262.152481 180.477557 262.734825 180.121092 L 275.624022 180.156386 C 275.85343 180.156386 276.008722 179.926978 275.927547 179.715217 L 275.440496 178.44112 C 275.426379 178.402297 275.41932 178.363475 275.41932 178.317593 Q 275.384026 175.882339 275.447555 175.55058 Q 275.899312 173.245913 278.331036 172.091814 Q 278.736912 172.194165 278.821616 171.989463 Q 278.934556 171.714173 278.440446 171.537706 Q 277.896926 171.096536 277.300465 170.715366 C 275.669904 169.670678 274.141694 168.340112 272.595837 167.020134 Q 269.673533 164.524881 267.961797 161.302582 Q 264.351268 154.512106 267.965326 147.693396 Q 268.561787 146.574591 270.111173 144.202866 Q 271.173508 142.579363 278.073393 132.072479 C 278.401623 131.567782 278.892203 131.013673 279.29102 130.350155 Q 279.915716 129.305466 281.436867 127.096091 Q 282.954489 124.886716 284.14741 124.403195 Q 285.968556 123.662031 287.588529 124.886716 Q 288.181461 125.338473 289.310854 127.011387 Q 290.080253 128.147838 290.888475 129.266643 Q 290.867298 129.718401 291.311997 129.852516 C 291.40376 129.880751 291.499053 129.820752 291.509641 129.725459 L 291.530817 129.566638 L 291.56611 61.351301 C 291.56611 61.333655 291.559052 61.312478 291.548464 61.294832 L 291.301409 60.885427 L 281.270987 60.790134 C 281.242753 60.790134 281.218047 60.807781 281.210988 60.832486 Q 281.189812 60.899544 281.221576 60.931308 L 281.150989 61.079541 C 281.112166 61.157187 281.09099 61.245421 281.087461 61.337184 L 281.048638 64.534778 L 280.229828 65.212414 Q 280.085125 65.247707 279.922774 65.201826 Q 279.446312 65.057122 278.994555 65.127709 L 278.948673 64.979476 Q 278.945144 64.73948 278.680442 64.651246 L 278.373388 63.765379 L 278.401623 61.076012 C 278.401623 60.952484 278.302801 60.853663 278.182803 60.850133 L 271.685264 60.751311 Q 260.176044 60.694842 248.670353 60.712488 Q 248.003305 60.712488 247.339786 60.776017 Q 247.290376 60.779546 247.353904 60.97719 L 247.135084 64.626541 Q 246.351568 65.33947 245.091589 64.972418 Q 244.526892 64.192431 244.533951 63.013627 L 244.548068 61.044248 C 244.551598 60.903073 244.435129 60.786605 244.290425 60.783075 Q 226.622484 60.518374 208.781604 60.881897 Z M 251.384425 151.014517 Q 251.190311 151.166279 251.176193 151.353335 Q 251.162076 151.565096 251.349132 151.632154 Q 251.507952 151.688624 251.68795 151.561567 Q 252.309116 151.310983 252.457348 151.16275 Q 254.444374 149.168666 255.923173 147.043995 Q 256.773747 145.826368 257.627851 144.760504 Q 258.298428 143.920517 259.279588 142.43113 Q 260.772504 140.165286 261.326613 139.364123 C 263.691279 135.954767 265.05361 131.073672 263.599516 127.021975 Q 262.992468 125.334944 262.632474 124.682014 Q 260.352511 120.535024 256.791394 115.957453 Q 250.470323 107.832882 246.259804 102.270621 C 246.033926 101.970626 245.57511 101.998861 245.384525 102.323562 L 244.925709 103.121195 C 244.749241 103.42472 244.735124 103.795302 244.890415 104.109414 Q 245.395113 105.150573 245.384525 105.828209 Q 245.342173 108.535223 244.145722 111.796345 C 243.679847 113.066913 242.942212 114.796296 242.186931 116.130391 Q 237.979942 123.566738 232.452975 130.456035 Q 232.089452 130.907793 231.683576 131.638369 C 231.588284 131.818366 231.602401 132.033656 231.722399 132.196006 Q 239.839911 142.988768 246.291569 151.346276 Q 246.803325 152.009795 247.389197 151.476862 Q 247.752721 151.145103 249.355047 149.031021 Q 250.0468 148.113389 251.289133 146.556944 Q 252.39382 145.169908 253.946735 143.024062 Q 254.885543 141.728789 256.163169 142.639362 C 256.261991 142.709949 256.325519 142.822889 256.336108 142.942887 Q 256.452576 144.241689 256.201992 144.566389 Q 253.731445 147.749866 251.384425 151.014517 Z M 241.872818 107.116423 Q 241.48106 107.338772 241.071655 107.84347 Q 236.967018 112.904562 232.304742 119.102106 Q 230.451832 121.565595 228.98715 124.138493 Q 227.173063 127.325499 227.409529 130.763089 C 227.430706 131.063084 227.705995 131.274845 227.998931 131.221905 Q 228.584804 131.108966 228.87774 130.470153 C 228.916563 130.385448 228.965974 130.311332 229.033032 130.244274 Q 229.887135 129.368995 230.18713 128.984295 Q 235.777626 121.826767 239.412859 115.357463 Q 240.926952 112.668096 242.088109 108.937569 C 242.24693 108.425813 242.278694 107.751707 242.218695 107.285832 C 242.197519 107.123482 242.017522 107.035248 241.872818 107.116423 Z M 284.038 128.525479 Q 283.614478 128.917237 283.180367 129.852516 C 283.127427 129.961926 283.067428 130.067806 282.993312 130.163099 C 282.227442 131.158377 281.641569 132.150125 281.133343 132.901877 Q 272.740541 145.282848 270.700575 148.741614 C 268.65355 152.210968 268.611198 156.576778 270.661752 160.134366 Q 271.833497 162.170802 273.097006 163.391959 Q 277.039293 167.20366 282.343911 170.898893 Q 283.233308 171.520059 284.006236 171.728291 C 284.281526 171.805936 284.553286 171.597705 284.553286 171.311827 L 284.553286 128.751358 C 284.553286 128.483127 284.235644 128.345482 284.038 128.525479 Z M 287.496766 129.541933 Q 287.415591 129.704283 287.415591 129.908986 Q 287.412062 139.455886 287.42265 171.29771 C 287.42265 171.668292 287.821467 171.901229 288.142638 171.721232 Q 288.897919 171.301239 289.586143 170.817718 Q 292.483742 168.777751 295.864862 165.904858 Q 298.840107 163.377841 300.527138 160.692003 Q 301.840057 158.599097 302.189463 155.577971 C 302.500046 152.874486 301.321242 149.860419 299.867149 147.707513 Q 293.546077 138.368845 287.870878 129.517227 C 287.779114 129.376053 287.567353 129.390171 287.496766 129.541933 Z M 242.275165 151.187456 Q 242.395163 151.388629 242.624571 151.367453 C 242.741039 151.356864 242.79398 151.21922 242.712805 151.134515 L 242.41281 150.827462 Q 242.201048 150.50982 242.02811 150.139238 Q 241.915171 149.9063 241.474002 149.458073 Q 240.965775 148.939258 240.577546 148.367502 C 239.801088 147.209875 238.848163 146.341654 237.997589 145.138144 Q 237.277601 144.121691 236.370557 142.957004 Q 232.904732 138.510019 229.548317 133.925389 C 229.294204 133.575983 228.761272 133.604218 228.524805 133.97833 Q 228.422454 134.137151 228.493041 134.405381 Q 228.853035 135.760653 229.908311 137.295922 Q 232.050629 140.41234 233.755306 142.364073 Q 235.798802 144.711093 237.288189 146.496945 Q 238.484639 147.929863 241.516354 150.679229 C 241.724586 150.869814 242.038698 150.989812 242.275165 151.187456 Z M 240.079907 156.559131 Q 239.758736 157.416764 240.083436 158.073223 Q 240.115201 158.373218 240.189317 158.644979 Q 241.008127 161.726104 243.88102 162.544914 C 244.004548 162.576678 244.128075 162.597854 244.251602 162.601384 Q 244.406894 162.608442 248.500944 162.657853 Q 250.329149 162.679029 251.25031 162.223743 Q 252.549112 161.58493 253.258512 160.264952 Q 254.105556 158.697919 253.840855 156.799127 Q 253.657329 155.507384 252.273822 154.92857 C 252.213823 154.900335 252.146765 154.886218 252.079708 154.886218 L 241.449296 154.886218 C 241.332827 154.886218 241.216359 154.921511 241.117537 154.992098 Q 240.242257 155.588559 240.079907 156.559131 Z M 255.3973 166.176618 L 236.324675 166.16603 C 236.077621 166.16603 235.876448 166.367203 235.876448 166.614258 L 235.876448 179.821097 C 235.876448 180.046976 236.059974 180.230502 236.285853 180.230502 L 258.767832 180.230502 C 258.859595 180.230502 258.947829 180.198738 259.014887 180.138739 L 259.163119 180.015212 Q 259.018416 180.085799 259.21606 180.092858 C 259.304294 180.096387 259.37841 180.022271 259.37841 179.934037 L 259.37841 166.593082 C 259.37841 166.480143 259.328999 166.374262 259.240765 166.303675 Q 258.803125 165.961328 258.104313 166.197794 Q 258.019609 166.208382 257.917258 166.155442 L 255.3973 166.176618 Z M 278.489857 176.704679 Q 278.048688 178.031715 279.01926 178.910524 Q 279.742777 179.26346 280.526294 179.252872 Q 287.189713 179.171696 292.610799 179.256401 C 294.446063 179.288165 294.679 177.336433 294.170773 175.974102 C 293.796662 174.978825 292.695503 174.795299 291.728461 174.78824 Q 286.208552 174.742358 281.493337 174.770593 C 279.954539 174.781181 278.666325 174.978825 278.489857 176.704679 Z M 311.708129 183.862207 C 311.708129 183.773973 311.637542 183.703386 311.549308 183.703386 L 178.803278 183.703386 C 178.715044 183.703386 178.644457 183.773973 178.644457 183.862207 L 178.644457 183.869265 C 178.644457 183.957499 178.715044 184.028086 178.803278 184.028086 L 311.549308 184.028086 C 311.637542 184.028086 311.708129 183.957499 311.708129 183.869265 L 311.708129 183.862207 Z M 208.809838 193.836159 Q 208.809838 194.845554 208.862779 194.845554 Q 208.919248 194.845554 208.919248 193.836159 Q 208.922778 192.826764 208.869837 192.826764 Q 208.813368 192.826764 208.809838 193.836159 Z M 208.806309 194.962022 Q 208.795721 195.078491 208.85572 195.131431 C 208.866308 195.142019 208.887484 195.134961 208.887484 195.117314 L 208.887484 194.965552 C 208.887484 194.944375 208.869837 194.926729 208.848661 194.926729 C 208.827485 194.923199 208.809838 194.940846 208.806309 194.962022 Z" style="fill:#151417;"/>
		<path fill-opacity="0.996" d="M 194.039496 53.738487 Q 193.721854 54.43024 193.171275 54.469063 Q 190.757197 54.642001 186.296095 54.391417 Q 189.938387 54.260831 192.200703 54.352594 Q 193.312449 54.394946 194.039496 53.738487 Z" style="fill:#616062;"/>
		<path fill-opacity="0.996" d="M 292.102572 53.738487 Q 291.957869 54.476121 291.259057 54.479651 Q 286.473254 54.500827 281.676863 54.543179 Q 281.228635 54.546708 281.115696 54.222008 Q 285.686208 54.419652 290.408483 54.324359 Q 291.544934 54.299654 292.102572 53.738487 Z" style="fill:#616062;"/>
		<path fill-opacity="0.996" d="M 206.035767 54.334947 Q 200.56527 54.606707 196.644158 54.514944 Q 196.220636 54.507886 196.019463 53.918484 L 196.538278 54.260831 C 196.6371 54.324359 196.753568 54.359653 196.870037 54.359653 L 206.035767 54.334947 Z" style="fill:#616062;"/>
		<path fill-opacity="0.996" d="M 244.675125 53.9926 Q 244.505716 54.500827 243.997489 54.500827 Q 226.650718 54.476121 209.303948 54.507886 Q 208.806309 54.507886 208.725134 53.974953 Q 209.194538 54.334947 209.406299 54.334947 Q 226.601308 54.324359 243.799845 54.327889 C 243.930431 54.327889 244.057488 54.296124 244.177486 54.239655 L 244.675125 53.9926 Z" style="fill:#616062;"/>
		<path fill-opacity="0.996" d="M 304.543542 54.356123 Q 300.343612 54.564355 296.140152 54.486709 Q 296.0978 54.486709 295.268402 54.53612 Q 294.502532 54.578473 294.07901 54.165538 L 304.543542 54.356123 Z" style="fill:#616062;"/>
		<path fill-opacity="0.996" d="M 278.496916 54.031423 Q 278.412211 54.472592 278.052217 54.479651 Q 264.788908 54.642001 247.516254 54.398476 L 277.903984 54.296124 C 277.967513 54.296124 278.027512 54.282007 278.080452 54.253772 L 278.496916 54.031423 Z" style="fill:#616062;"/>
		<path fill-opacity="0.996" d="M 307.102323 54.567885 Q 305.877637 56.936081 306.205867 59.233689 Q 306.096457 59.399569 306.181162 59.480744 Q 306.481157 59.960736 306.414099 60.493668 L 306.131751 59.911325 C 306.107045 59.858385 306.029399 59.861914 306.008223 59.914855 L 305.845873 60.303083 Q 305.581172 60.154851 305.524702 59.671329 Q 305.235295 57.229017 305.817638 55.224344 Q 305.930578 56.318444 305.662347 57.394896 Q 305.602348 57.59607 305.637641 57.804301 Q 305.538819 58.552524 305.764698 59.184278 C 305.778815 59.226631 305.845873 59.219572 305.849402 59.17369 Q 305.927048 58.439585 305.912931 57.744302 Q 305.870579 55.95845 307.102323 54.567885 Z" style="fill:#cccdce;"/>
		<path fill-opacity="0.996" d="M 314.912781 57.299604 Q 314.59161 56.597263 314.513964 55.79257 Q 314.969251 56.466677 314.912781 57.299604 Z" style="fill:#616062;"/>
		<path fill-opacity="0.996" d="M 184.390244 56.614909 Q 184.280834 57.772537 184.058485 55.937274 Q 184.333775 56.170211 184.390244 56.614909 Z" style="fill:#616062;"/>
		<path fill-opacity="0.996" d="M 185.12082 57.652539 Q 184.834943 56.932551 185.050233 56.170211 Q 185.519637 56.72079 185.12082 57.652539 Z" style="fill:#616062;"/>
		<path fill-opacity="0.996" d="M 305.662347 57.394896 Q 305.722346 57.610187 305.637641 57.804301 Q 305.602348 57.59607 305.662347 57.394896 Z" style="fill:#616062;"/>
		<path fill-opacity="0.996" d="M 184.439655 59.424275 Q 184.499654 60.345436 184.164366 60.726606 Q 184.058485 60.631313 184.054956 60.387788 L 184.439655 59.424275 Z" style="fill:#cccdce;"/>
		<path fill-opacity="0.996" d="M 184.054956 60.387788 Q 184.058485 60.631313 184.164366 60.726606 L 183.942016 60.913662 L 184.054956 60.387788 Z" style="fill:#616062;"/>
		<path fill-opacity="0.996" d="M 193.206568 60.931308 L 186.21139 60.941896 L 193.206568 60.931308 Z" style="fill:#616062;"/>
		<path fill-opacity="0.996" d="M 304.914124 60.913662 L 294.520179 60.906603 L 304.914124 60.913662 Z" style="fill:#616062;"/>
		<path fill-opacity="0.996" d="M 193.294802 166.151913 L 193.255979 165.396631 L 193.231274 165.093107 Q 193.234803 165.068401 193.234803 165.040167 L 193.231274 164.74723 Q 193.231274 164.718995 193.234803 164.690761 L 193.25245 163.335489 L 193.298332 62.452459 L 193.294802 166.151913 Z" style="fill:#cccdce;"/>
		<path fill-opacity="0.996" d="M 311.42578 62.960686 Q 310.836378 63.15833 310.22933 63.063038 Q 310.698734 62.745396 311.42578 62.960686 Z" style="fill:#616062;"/>
		<path fill-opacity="0.996" d="M 193.25245 163.335489 L 193.234803 164.690761 L 193.25245 163.335489 Z" style="fill:#616062;"/>
		<path fill-opacity="0.996" d="M 193.231274 164.74723 L 193.234803 165.040167 Q 193.178334 164.951933 193.231274 164.74723 Z" style="fill:#616062;"/>
		<path fill-opacity="0.996" d="M 193.231274 165.093107 L 193.255979 165.396631 Q 193.157157 165.378984 193.231274 165.093107 Z" style="fill:#616062;"/>
		<path fill-opacity="0.996" d="M 293.599018 171.615351 Q 293.560195 171.922405 293.390786 172.06005 Q 293.062556 171.84123 293.599018 171.615351 Z" style="fill:#616062;"/>
		<path fill-opacity="0.996" d="M 297.283662 178.776409 Q 296.91308 180.223444 297.386014 180.117563 Q 296.507205 180.466969 297.283662 178.776409 Z" style="fill:#616062;"/>
		<path fill-opacity="0.996" d="M 308.895234 187.55391 L 298.631875 187.546851 L 308.895234 187.55391 Z" style="fill:#616062;"/>
		<path fill-opacity="0.996" d="M 213.299176 187.638615 L 210.613338 187.571557 L 213.299176 187.638615 Z" style="fill:#616062;"/>
		<path fill-opacity="0.996" d="M 222.457847 187.60685 Q 222.359025 187.864493 222.404907 188.016255 L 221.773152 187.82567 C 221.684919 187.797435 221.589626 187.804494 221.504922 187.839788 Q 221.120222 188.009197 220.760228 188.005667 Q 220.922578 187.850376 220.989636 187.656261 L 222.457847 187.60685 Z" style="fill:#cccdce;"/>
		<path fill-opacity="0.996" d="M 226.717776 188.704479 L 226.738952 187.571557 Q 227.264826 187.670379 226.717776 188.704479 Z" style="fill:#cccdce;"/>
		<path fill-opacity="0.996" d="M 232.978849 188.069196 Q 233.074141 187.769201 232.858851 187.550381 Q 233.042377 187.472735 233.13414 187.539793 Q 233.335313 187.691555 233.222374 187.913904 Q 233.144728 188.065666 232.978849 188.069196 Z" style="fill:#616062;"/>
		<path fill-opacity="0.996" d="M 244.848063 187.61038 L 241.992816 187.61038 L 244.848063 187.61038 Z" style="fill:#616062;"/>
		<path fill-opacity="0.996" d="M 249.097404 187.585674 L 247.978599 187.585674 L 249.097404 187.585674 Z" style="fill:#616062;"/>
		<path fill-opacity="0.996" d="M 257.659615 187.628026 L 255.404358 187.560969 L 257.659615 187.628026 Z" style="fill:#616062;"/>
		<path fill-opacity="0.996" d="M 265.494779 187.575086 L 263.874806 187.589204 L 265.494779 187.575086 Z" style="fill:#616062;"/>
		<path fill-opacity="0.996" d="M 276.153425 188.076254 Q 276.139308 187.71979 275.948723 187.568027 Q 276.146367 187.546851 276.252247 187.603321 Q 276.407539 187.688025 276.354598 187.857434 Q 276.305187 188.019785 276.153425 188.076254 Z" style="fill:#616062;"/>
		<path fill-opacity="0.996" d="M 295.194285 187.483323 Q 295.042523 187.748024 295.084875 188.076254 Q 294.73194 187.688025 295.194285 187.483323 Z" style="fill:#616062;"/>
		<path fill-opacity="0.996" d="M 206.265175 188.238605 L 206.240469 187.638615 Q 206.702815 187.71979 206.265175 188.238605 Z" style="fill:#cccdce;"/>
		<path fill-opacity="0.996" d="M 214.96503 187.589204 Q 214.950913 187.857434 215.003853 187.790377 Q 214.982677 187.850376 214.961501 187.88214 C 214.943854 187.906845 214.915619 187.917433 214.887385 187.910375 Q 213.955635 187.705672 213.32741 188.415072 Q 213.27447 188.040961 213.761521 187.688025 L 214.96503 187.589204 Z" style="fill:#cccdce;"/>
		<path fill-opacity="0.996" d="M 229.513024 187.546851 L 229.498906 188.42919 Q 229.248322 188.168017 229.269499 187.790377 Q 229.276557 187.635085 229.513024 187.546851 Z" style="fill:#616062;"/>
		<path fill-opacity="0.996" d="M 288.139108 188.136253 Q 288.153226 187.913904 288.026169 187.592733 L 288.248518 187.645673 C 288.35087 187.670379 288.410869 187.769201 288.386163 187.868022 Q 288.322635 188.132724 288.139108 188.136253 Z" style="fill:#616062;"/>
		<path fill-opacity="0.996" d="M 196.19593 187.737436 L 196.210048 189.664463 Q 195.994757 188.683303 196.19593 187.737436 Z" style="fill:#616062;"/>
		<path fill-opacity="0.996" d="M 234.694114 187.568027 Q 234.754113 187.995079 234.962345 188.104489 Q 234.761172 188.111548 234.66235 188.040961 Q 234.542352 187.956256 234.591763 187.815082 Q 234.623527 187.723319 234.694114 187.568027 Z" style="fill:#616062;"/>
		<path fill-opacity="0.996" d="M 240.475195 187.815082 Q 240.1752 188.415072 239.794029 188.175076 Q 240.238728 187.765671 240.475195 187.815082 Z" style="fill:#616062;"/>
		<path fill-opacity="0.996" d="M 193.534798 188.1539 L 193.534798 187.77273 Q 193.658326 187.755083 193.661855 187.966844 Q 193.661855 188.150371 193.534798 188.1539 Z" style="fill:#616062;"/>
		<path fill-opacity="0.996" d="M 200.815854 187.899787 Q 200.501741 188.376249 200.028808 188.115077 Q 200.286451 187.751554 200.815854 187.899787 Z" style="fill:#616062;"/>
		<path d="M 215.967367 192.999702 L 215.94972 199.765472 C 214.897973 201.050156 212.988593 200.707809 212.960358 198.893722 Q 212.886241 194.164388 212.953299 189.417409 C 212.953299 189.325645 212.970946 189.237411 213.009769 189.152707 L 213.32741 188.415072 Q 213.955635 187.705672 214.887385 187.910375 C 214.915619 187.917433 214.943854 187.906845 214.961501 187.88214 Q 214.982677 187.850376 215.003853 187.790377 L 215.649725 188.91624 C 215.692077 188.986827 215.716783 189.068003 215.720312 189.152707 L 215.967367 192.999702 Z" style="fill:#151417;"/>
		<path d="M 222.404907 188.016255 Q 223.131953 190.070339 223.015485 192.491475 Q 222.831958 195.470249 222.98725 198.452552 C 222.98725 198.456082 222.990779 198.456082 222.990779 198.456082 Q 222.994309 198.452552 222.997838 198.449023 C 223.004897 198.441964 223.008426 198.434906 223.008426 198.424318 L 223.071954 195.922006 Q 223.103719 197.361982 223.068425 198.773724 Q 223.036661 200.086643 221.988443 200.520753 C 221.084929 200.894865 220.107298 200.164289 220.004947 199.267833 Q 219.909654 198.406671 220.033181 195.699657 L 220.09671 191.835015 L 220.117886 190.017399 Q 220.192002 189.360939 220.336706 188.676244 Q 220.442586 188.178606 220.760228 188.005667 Q 221.120222 188.009197 221.504922 187.839788 C 221.589626 187.804494 221.684919 187.797435 221.773152 187.82567 L 222.404907 188.016255 Z" style="fill:#151417;"/>
		<path d="M 241.802231 189.922106 L 241.770467 197.806681 L 241.488119 199.804295 C 241.470472 199.924293 241.410473 200.030173 241.322239 200.107819 Q 240.161082 201.131331 239.194039 200.037232 C 239.130511 199.963116 239.0811 199.874882 239.049336 199.779589 L 238.784635 198.989014 L 238.86228 193.440871 Q 238.97522 191.411493 239.119923 189.360939 Q 239.155217 188.880947 239.794029 188.175076 Q 240.1752 188.415072 240.475195 187.815082 Q 241.530471 188.598599 241.802231 189.922106 Z" style="fill:#151417;"/>
		<path fill-opacity="0.996" d="M 271.025275 187.769201 L 271.145273 188.249193 Q 270.785279 188.090372 271.025275 187.769201 Z" style="fill:#616062;"/>
		<path fill-opacity="0.996" d="M 283.010958 187.77273 Q 283.088604 187.836258 283.032135 187.924492 Q 282.94743 188.062137 282.73214 188.051549 L 283.010958 187.77273 Z" style="fill:#616062;"/>
		<path d="M 202.224066 192.198539 L 202.25583 198.897251 Q 202.202889 200.393697 200.886441 200.612517 C 200.769972 200.633693 200.649974 200.623105 200.540564 200.587811 Q 199.301761 200.192524 199.195881 198.90078 Q 199.104117 197.803152 199.209998 195.720833 L 199.284114 189.84799 L 200.028808 188.115077 Q 200.501741 188.376249 200.815854 187.899787 Q 201.528783 188.178606 201.913482 188.958593 C 201.959364 189.050356 201.987599 189.152707 201.994658 189.258588 L 202.224066 192.198539 Z" style="fill:#151417;"/>
		<path d="M 247.763309 189.565641 Q 247.629193 190.409157 247.851543 191.206791 L 247.869189 199.22901 C 247.869189 199.952528 247.279787 200.54193 246.55627 200.54193 L 246.411567 200.54193 C 245.666873 200.54193 245.063354 199.945469 245.052766 199.204305 C 245.038648 198.198439 244.80924 196.77611 244.879827 195.607894 Q 245.045707 192.854998 245.063354 189.618582 C 245.063354 189.509172 245.08453 189.399762 245.130411 189.29741 C 245.331585 188.817418 245.68452 188.75389 245.829223 188.192723 Q 245.906869 187.899787 246.464507 187.973903 Q 246.955087 188.037431 246.979792 188.04449 Q 247.128025 188.09743 247.170378 188.326838 C 247.248023 188.768008 247.668016 189.02918 247.763309 189.565641 Z" style="fill:#151417;"/>
		<path d="M 261.06897 193.091465 L 261.076029 199.409007 Q 260.641918 200.520753 259.893696 200.668986 Q 258.859595 200.873689 258.241958 199.652533 C 258.17843 199.525476 258.143136 199.384302 258.143136 199.239598 L 258.083137 189.68211 C 258.079608 188.895064 258.679598 188.235075 259.459585 188.168017 L 259.551348 188.160959 C 260.264278 188.09743 260.888973 188.64448 260.917208 189.360939 L 261.06897 193.091465 Z" style="fill:#151417;"/>
		<path fill-opacity="0.996" d="M 247.763309 189.565641 L 247.851543 191.206791 Q 247.629193 190.409157 247.763309 189.565641 Z" style="fill:#616062;"/>
		<path fill-opacity="0.996" d="M 205.91224 194.997316 L 206.007532 189.79152 L 205.91224 194.997316 Z" style="fill:#616062;"/>
		<path fill-opacity="0.996" d="M 199.209998 195.720833 L 199.284114 189.84799 L 199.209998 195.720833 Z" style="fill:#616062;"/>
		<path fill-opacity="0.996" d="M 241.802231 189.922106 L 241.770467 197.806681 L 241.802231 189.922106 Z" style="fill:#616062;"/>
		<path fill-opacity="0.996" d="M 220.09671 191.835015 L 220.033181 192.180892 L 220.117886 190.017399 L 220.09671 191.835015 Z" style="fill:#cccdce;"/>
		<path fill-opacity="0.996" d="M 282.139208 191.940896 L 282.227442 190.218572 Q 282.435674 191.122086 282.139208 191.940896 Z" style="fill:#616062;"/>
		<path fill-opacity="0.996" d="M 290.828476 191.467963 Q 290.923768 191.898544 290.877887 192.315007 Q 290.623773 191.909132 290.828476 191.467963 Z" style="fill:#616062;"/>
		<path fill-opacity="0.996" d="M 229.742432 191.764428 L 229.830666 199.356067 L 229.742432 191.764428 Z" style="fill:#cccdce;"/>
		<path fill-opacity="0.996" d="M 220.09671 191.835015 L 220.033181 195.699657 L 220.033181 192.180892 L 220.09671 191.835015 Z" style="fill:#616062;"/>
		<path fill-opacity="0.996" d="M 202.224066 192.198539 L 202.25583 198.897251 L 202.224066 192.198539 Z" style="fill:#616062;"/>
		<path fill-opacity="0.996" d="M 223.015485 192.491475 L 223.071954 195.922006 L 223.008426 198.424318 C 223.008426 198.434906 223.004897 198.441964 222.997838 198.449023 Q 222.994309 198.452552 222.990779 198.456082 C 222.990779 198.456082 222.98725 198.456082 222.98725 198.452552 Q 222.831958 195.470249 223.015485 192.491475 Z" style="fill:#616062;"/>
		<path fill-opacity="0.996" d="M 215.967367 192.999702 Q 216.267362 196.444351 215.94972 199.765472 L 215.967367 192.999702 Z" style="fill:#cccdce;"/>
		<path fill-opacity="0.996" d="M 261.06897 193.091465 Q 261.358377 196.317294 261.076029 199.409007 L 261.06897 193.091465 Z" style="fill:#616062;"/>
		<path fill-opacity="0.996" d="M 238.784635 198.989014 L 238.86228 193.440871 L 238.784635 198.989014 Z" style="fill:#616062;"/>
		<path fill-opacity="0.996" d="M 232.788264 199.296068 L 232.735323 194.640851 L 232.788264 199.296068 Z" style="fill:#616062;"/>
		<path fill-opacity="0.996" d="M 278.218097 194.626734 L 278.108687 196.867873 L 278.218097 194.626734 Z" style="fill:#616062;"/>
		<path fill-opacity="0.996" d="M 235.75292 197.033753 L 235.795272 199.257245 Q 235.583511 198.134911 235.75292 197.033753 Z" style="fill:#616062;"/>
		<path fill-opacity="0.996" d="M 208.933366 199.959586 L 208.718075 200.400755 Q 208.696899 200.107819 208.933366 199.959586 Z" style="fill:#616062;"/>
		<path fill-opacity="0.996" d="M 179.98787 56.050672 C 180.825598 56.032566 181.52441 56.950198 181.548797 58.100732 C 181.57382 59.251336 180.913831 60.197203 180.075116 60.214391 C 179.237389 60.232496 178.538577 59.314865 178.514189 58.164331 C 178.489166 57.013726 179.149155 56.06786 179.98787 56.050672 Z" style="fill:#616062;"/>
		<path fill-opacity="0.996" d="M 310.559007 56.040084 C 311.37284 56.021978 312.054005 56.957257 312.078393 58.129884 C 312.103416 59.300747 311.461074 60.264261 310.647876 60.281448 C 309.834042 60.299554 309.152877 59.364275 309.128489 58.191648 C 309.103466 57.020785 309.745808 56.057272 310.559007 56.040084 Z" style="fill:#616062;"/>
		<path fill-opacity="0.996" d="M 244.533951 63.013627 Q 244.37513 62.215993 244.498657 61.46777 C 244.53748 61.224245 244.350424 61.001895 244.10337 61.001895 L 208.781604 60.881897 Q 226.622484 60.518374 244.290425 60.783075 C 244.435129 60.786605 244.551598 60.903073 244.548068 61.044248 L 244.533951 63.013627 Z" style="fill:#616062;"/>
		<path fill-opacity="0.996" d="M 205.785183 60.881897 L 196.534748 60.973661 C 196.425338 60.97719 196.340634 61.061894 196.340634 61.171304 Q 196.36181 111.732817 196.337105 162.2908 Q 196.337105 162.626089 196.538278 162.933143 Q 196.164166 162.848438 196.178284 162.636677 C 196.375927 159.304968 196.234753 155.249741 196.234753 152.701548 Q 196.210048 93.76841 196.248871 71.498192 Q 196.255929 66.151222 196.185342 61.08307 C 196.181813 60.934838 196.30534 60.81131 196.453573 60.81131 L 205.785183 60.881897 Z" style="fill:#616062;"/>
		<path fill-opacity="0.996" d="M 271.685264 60.751311 Q 271.752322 60.952484 271.184096 60.987778 L 247.353904 60.97719 Q 247.290376 60.779546 247.339786 60.776017 Q 248.003305 60.712488 248.670353 60.712488 Q 260.176044 60.694842 271.685264 60.751311 Z" style="fill:#616062;"/>
		<path fill-opacity="0.996" d="M 291.301409 60.885427 L 281.221576 60.931308 Q 281.189812 60.899544 281.210988 60.832486 C 281.218047 60.807781 281.242753 60.790134 281.270987 60.790134 L 291.301409 60.885427 Z" style="fill:#616062;"/>
		<path fill-opacity="0.996" d="M 271.685264 60.751311 L 278.182803 60.850133 C 278.302801 60.853663 278.401623 60.952484 278.401623 61.076012 L 278.373388 63.765379 L 278.278096 61.30189 C 278.271037 61.128952 278.126334 60.991307 277.953395 60.991307 L 271.184096 60.987778 Q 271.752322 60.952484 271.685264 60.751311 Z" style="fill:#cccdce;"/>
		<path fill-opacity="0.996" d="M 205.982827 63.370091 L 205.901652 61.397183 L 205.982827 63.370091 Z" style="fill:#616062;"/>
		<path fill-opacity="0.996" d="M 281.048638 64.534778 Q 280.769819 65.145356 280.229828 65.212414 L 281.048638 64.534778 Z" style="fill:#616062;"/>
		<path fill-opacity="0.996" d="M 247.135084 64.626541 Q 246.249216 65.727699 245.091589 64.972418 Q 246.351568 65.33947 247.135084 64.626541 Z" style="fill:#616062;"/>
		<path fill-opacity="0.996" d="M 278.948673 64.979476 Q 278.736912 64.894772 278.680442 64.651246 Q 278.945144 64.73948 278.948673 64.979476 Z" style="fill:#616062;"/>
		<path fill-opacity="0.996" d="M 279.922774 65.201826 Q 279.386313 65.328882 278.994555 65.127709 Q 279.446312 65.057122 279.922774 65.201826 Z" style="fill:#616062;"/>
		<path fill-opacity="0.996" d="M 207.966323 65.215943 L 207.352216 65.226531 Q 207.496919 64.993594 207.966323 65.215943 Z" style="fill:#616062;"/>
		<path fill-opacity="0.996" d="M 291.530817 129.566638 L 291.509641 129.725459 C 291.499053 129.820752 291.40376 129.880751 291.311997 129.852516 Q 290.867298 129.718401 290.888475 129.266643 Q 291.072001 129.616049 291.530817 129.566638 Z" style="fill:#cccdce;"/>
		<path fill-opacity="0.996" d="M 242.275165 151.187456 Q 242.398692 151.010988 242.41281 150.827462 L 242.712805 151.134515 C 242.79398 151.21922 242.741039 151.356864 242.624571 151.367453 Q 242.395163 151.388629 242.275165 151.187456 Z" style="fill:#cccdce;"/>
		<path fill-opacity="0.996" d="M 251.384425 151.014517 Q 251.327955 151.43451 251.68795 151.561567 Q 251.507952 151.688624 251.349132 151.632154 Q 251.162076 151.565096 251.176193 151.353335 Q 251.190311 151.166279 251.384425 151.014517 Z" style="fill:#cccdce;"/>
		<path fill-opacity="0.996" d="M 237.069369 156.407369 Q 237.355246 157.385 237.087016 158.440276 Q 236.783491 157.423822 237.069369 156.407369 Z" style="fill:#616062;"/>
		<path fill-opacity="0.996" d="M 240.079907 156.559131 L 240.083436 158.073223 Q 239.758736 157.416764 240.079907 156.559131 Z" style="fill:#616062;"/>
		<path fill-opacity="0.996" d="M 256.861981 157.049711 Q 257.246681 158.136752 256.830217 159.163794 L 256.861981 157.049711 Z" style="fill:#616062;"/>
		<path fill-opacity="0.996" d="M 255.273772 162.340211 Q 255.206715 162.6755 254.970248 162.936672 Q 254.716134 162.72844 255.273772 162.340211 Z" style="fill:#616062;"/>
		<path fill-opacity="0.996" d="M 262.247774 165.481336 Q 262.353655 172.617688 262.346596 179.761098 Q 262.346596 180.068152 262.734825 180.121092 Q 262.152481 180.477557 262.145423 179.669335 Q 262.096012 172.575335 262.247774 165.481336 Z" style="fill:#616062;"/>
		<path fill-opacity="0.996" d="M 257.917258 166.155442 L 255.3973 166.176618 L 257.917258 166.155442 Z" style="fill:#616062;"/>
		<path fill-opacity="0.996" d="M 259.163119 180.015212 L 259.141943 166.515436 C 259.141943 166.406026 259.078415 166.303675 258.979593 166.257793 Q 258.619599 166.091914 258.104313 166.197794 Q 258.803125 165.961328 259.240765 166.303675 C 259.328999 166.374262 259.37841 166.480143 259.37841 166.593082 L 259.37841 179.934037 C 259.37841 180.022271 259.304294 180.096387 259.21606 180.092858 Q 259.018416 180.085799 259.163119 180.015212 Z" style="fill:#616062;"/>
		<path fill-opacity="0.996" d="M 278.331036 172.091814 Q 278.518092 171.844759 278.440446 171.537706 Q 278.934556 171.714173 278.821616 171.989463 Q 278.736912 172.194165 278.331036 172.091814 Z" style="fill:#cccdce;"/>
		<path fill-opacity="0.996" d="M 278.489857 176.704679 Q 278.345154 177.918776 279.01926 178.910524 Q 278.048688 178.031715 278.489857 176.704679 Z" style="fill:#616062;"/>
		<path fill-opacity="0.996" d="M 311.708129 183.869265 C 311.708129 183.957499 311.637542 184.028086 311.549308 184.028086 L 178.803278 184.028086 C 178.715044 184.028086 178.644457 183.957499 178.644457 183.869265 L 178.644457 183.862207 C 178.644457 183.773973 178.715044 183.703386 178.803278 183.703386 L 311.549308 183.703386 C 311.637542 183.703386 311.708129 183.773973 311.708129 183.862207 L 311.708129 183.869265 Z" style="fill:#616062;"/>
		<path fill-opacity="0.996" d="M 208.869837 192.826764 Q 208.922778 192.826764 208.919248 193.836159 Q 208.919248 194.845554 208.862779 194.845554 Q 208.809838 194.845554 208.809838 193.836159 Q 208.813368 192.826764 208.869837 192.826764 Z" style="fill:#616062;"/>
		<path fill-opacity="0.996" d="M 208.887484 194.965552 L 208.887484 195.117314 C 208.887484 195.134961 208.866308 195.142019 208.85572 195.131431 Q 208.795721 195.078491 208.806309 194.962022 C 208.809838 194.940846 208.827485 194.923199 208.848661 194.926729 C 208.869837 194.926729 208.887484 194.944375 208.887484 194.965552 Z" style="fill:#616062;"/>
		<path fill-opacity="0.996" d="M 277.946337 78.447488 C 277.946337 79.047478 277.462815 79.530999 276.862825 79.530999 L 210.101582 79.530999 C 209.501592 79.530999 209.01807 79.047478 209.01807 78.447488 L 209.01807 78.426312 C 209.01807 77.826322 209.501592 77.3428 210.101582 77.3428 L 276.862825 77.3428 C 277.462815 77.3428 277.946337 77.826322 277.946337 78.426312 L 277.946337 78.447488 Z" style="fill:#cccdce;"/>
	</g>
	<g id="surface4">
	</g>
</svg>
