<?xml version="1.0" encoding="utf-8"?>
<svg xmlns="http://www.w3.org/2000/svg" width="490pt" height="280pt" viewBox="0 0 490 280" version="1.1" xmlns:xlink="http://www.w3.org/1999/xlink">
	<g id="surface2" data-size="96.880564001887 148" data-bboxpos="196.5 51.535467954766" data-pivot="244.94028200094 125.53546795477" data-center="244.94028200094 125.53546795477">
		<path stroke-opacity="0.992" vector-effect="non-scaling-stroke" d="M 268.698687 69.538935 L 266.988228 72.910035" style="fill:none;stroke-width:0.50;stroke:#8d9eb2;"/>
		<path stroke-opacity="0.992" vector-effect="non-scaling-stroke" d="M 223.363205 72.710759 L 221.91568 69.478045" style="fill:none;stroke-width:0.50;stroke:#8d9eb2;"/>
		<path stroke-opacity="0.992" vector-effect="non-scaling-stroke" d="M 270.240315 70.488268 Q 268.554765 76.012665 266.382094 80.853432 Q 262.916891 88.569874 257.627751 95.14601 Q 254.887695 98.555858 252.446553 100.750671 Q 250.846803 102.192661 250.262811 102.782188 C 249.235982 103.814553 248.510836 104.304442 247.08822 105.408768 C 246.548512 105.826696 246.385216 106.131146 246.468248 106.789867 Q 247.362226 113.972137 247.450794 121.874017 C 247.591948 134.456136 247.481239 147.58073 247.586413 160.644435 Q 247.644535 167.91804 247.475703 170.378555 Q 247.295801 172.969154 247.367762 174.051338 C 247.403742 174.585511 247.323478 175.327263 247.257052 175.670462 C 247.245981 175.728585 247.207233 175.775636 247.154646 175.800546 Q 247.13804 175.808849 247.129736 175.814385 C 247.066079 175.858668 247.030098 175.930629 247.030098 176.008126 L 247.021795 177.995359" style="fill:none;stroke-width:0.50;stroke:#bad7e8;"/>
		<path stroke-opacity="0.992" vector-effect="non-scaling-stroke" d="M 246.67306 179.285123 L 246.274507 181.875722 C 246.263436 181.944915 246.180404 181.97536 246.127817 181.931077 L 246.05032 181.867419 C 245.975591 181.803761 245.862114 181.856348 245.856579 181.953219 Q 245.853811 181.997502 245.856579 182.133121 Q 245.856579 182.144192 245.853811 182.133121 Q 245.834437 182.033483 245.754173 182.080534 C 245.737566 182.088838 245.729263 182.105444 245.729263 182.124818 L 245.718192 182.539978 C 245.718192 182.542746 245.715424 182.542746 245.715424 182.539978 Q 245.715424 182.53721 245.712657 182.534443 C 245.709889 182.52614 245.707121 182.517836 245.707121 182.509533 C 245.613018 181.549129 245.707121 180.605332 245.579805 179.71689 C 245.377761 178.297042 245.588109 176.359628 245.543825 174.92871 C 245.355619 168.875676 245.482935 161.88438 245.485702 156.011248 Q 245.505077 127.686258 245.505077 126.786745 C 245.485702 119.814823 245.311335 114.113291 244.53637 107.484568 C 244.47548 106.96977 244.298345 106.416223 243.933004 106.11454 C 240.777787 103.504567 239.028579 102.029365 236.504406 99.438766 C 236.429677 99.361269 236.382625 99.261631 236.368787 99.153689 Q 236.310664 98.702548 235.920414 98.411936 C 235.903807 98.400865 235.898272 98.378723 235.90104 98.359349 Q 235.912111 98.287388 235.978536 98.279085 C 236.000678 98.276317 236.02282 98.287388 236.039426 98.303995 Q 236.631721 98.971018 237.37901 98.450684" style="fill:none;stroke-width:0.50;stroke:#bad7e8;"/>
		<path stroke-opacity="0.992" vector-effect="non-scaling-stroke" d="M 237.37901 98.450684 Q 237.550609 98.633355 237.658551 98.619516" style="fill:none;stroke-width:0.50;stroke:#8d9eb2;"/>
		<path stroke-opacity="0.992" vector-effect="non-scaling-stroke" d="M 237.658551 98.619516 Q 238.44182 99.267166 239.344101 99.754287 C 239.363475 99.765358 239.382849 99.779197 239.399455 99.793035 L 244.30388 103.886514 C 244.53637 104.080255 244.862962 104.1107 245.128665 103.964011 C 246.595564 103.153065 247.65007 102.167751 248.986886 101.085567 Q 256.827876 94.744689 262.338435 84.562195 Q 265.17813 79.31734 266.376559 74.606656" style="fill:none;stroke-width:0.50;stroke:#8d9eb2;"/>
		<path stroke-opacity="0.992" vector-effect="non-scaling-stroke" d="M 224.179686 74.792094 Q 224.212899 75.525544 224.392802 76.051413 Q 227.445612 84.982891 233.039203 92.574785" style="fill:none;stroke-width:0.50;stroke:#8d9eb2;"/>
		<path stroke-opacity="0.992" vector-effect="non-scaling-stroke" d="M 233.039203 92.574785 Q 232.986616 92.682727 232.983848 92.685495 C 232.878674 92.771294 232.720913 92.702101 232.715378 92.566482 Q 232.701539 92.270335 232.399856 92.107038 C 232.280844 92.04338 232.139689 92.134716 232.15076 92.267567 Q 232.208883 93.023158 231.69962 92.981642 C 231.616588 92.973339 231.550162 93.048068 231.564001 93.128332 Q 231.619355 93.46046 231.721761 93.598847 C 231.738368 93.620989 231.7356 93.651434 231.713458 93.665272 L 231.71069 93.66804 C 231.691316 93.681879 231.666407 93.676343 231.652568 93.659737 Q 229.601677 91.102351 228.411552 89.123421 Q 228.237184 88.832809 226.695557 86.084449 Q 225.569089 84.075074 225.045987 83.012264 Q 222.045763 76.92325 220.313162 70.322204" style="fill:none;stroke-width:0.50;stroke:#bad7e8;"/>
		<path vector-effect="non-scaling-stroke" d="M 278.972516 75.107616 Q 278.892252 75.340106 279.014032 75.547686" style="fill:none;stroke-width:0.50;stroke:#4b789d;"/>
		<path vector-effect="non-scaling-stroke" d="M 233.039203 92.574785 L 236.581902 96.928431 C 236.58467 96.931199 236.58467 96.936734 236.581902 96.939502 L 236.518244 97.030837 C 236.515477 97.03914 236.501638 97.03914 236.496103 97.033605 L 234.110316 94.216052 C 234.102013 94.207748 234.093709 94.202213 234.085406 94.196677 Q 233.883362 94.121949 233.794794 94.166232 C 233.739439 94.191142 233.722833 94.260335 233.756046 94.310154 Q 233.811401 94.387651 233.822472 94.440238 C 233.830775 94.476218 233.786491 94.49836 233.761581 94.470683 L 233.548466 94.218819 C 233.512485 94.174535 233.440524 94.210516 233.451595 94.265871 Q 233.479272 94.404257 233.742207 94.675495 Q 233.875058 94.81665 233.780955 94.675495 Q 233.736672 94.611837 233.819704 94.606302 C 233.855684 94.603534 233.886129 94.628444 233.888897 94.664424 Q 233.916574 94.91352 234.090942 94.921824 C 234.118619 94.924591 234.146296 94.935662 234.165671 94.957804 L 235.834614 96.79558 C 235.859524 96.820489 235.87613 96.850934 235.887201 96.884147 Q 236.008981 97.224578 236.321735 97.296539" style="fill:none;stroke-width:0.50;stroke:#4b789d;"/>
		<path vector-effect="non-scaling-stroke" d="M 237.412222 98.398098 Q 237.395616 98.423007 237.37901 98.450684" style="fill:none;stroke-width:0.50;stroke:#4b789d;"/>
		<path vector-effect="non-scaling-stroke" d="M 246.271739 184.485695 L 246.271739 184.781843" style="fill:none;stroke-width:0.50;stroke:#4b789d;"/>
		<path d="M 268.698687 69.538935 L 266.988228 72.910035 Q 266.041663 72.176586 265.059117 71.642413 Q 257.586235 67.573844 250.077373 63.38903 Q 246.93046 61.634287 246.011572 61.055831 Q 245.327942 60.621296 244.525299 61.064134 Q 235.593821 66.004539 224.428782 72.248547 Q 224.165848 72.395237 223.363205 72.710759 L 221.91568 69.478045 Q 222.056834 69.073956 222.411104 68.916195 Q 225.40856 67.565541 227.478825 65.951952 Q 231.231873 63.026457 233.941484 59.206984 Q 235.491415 57.020475 236.79225 55.506524 Q 238.995366 52.943602 242.770555 51.76178 C 242.776091 51.759012 242.781626 51.759012 242.78993 51.759012 L 245.258748 51.543129 C 245.419277 51.52929 245.579805 51.534826 245.740334 51.5542 C 246.883408 51.695354 247.4674 51.687051 248.455481 52.016412 Q 251.793368 53.131808 254.101658 56.101587 Q 255.355442 57.717944 256.891534 59.763299 Q 258.419323 61.800351 259.869616 63.272786 Q 263.752747 67.205736 268.698687 69.538935 Z" style="fill:#1d3f67;"/>
		<path fill-opacity="0.984" d="M 221.91568 69.478045 L 223.363205 72.710759 Q 223.584624 73.864904 224.179686 74.792094 Q 224.212899 75.525544 224.392802 76.051413 Q 227.445612 84.982891 233.039203 92.574785 Q 232.986616 92.682727 232.983848 92.685495 C 232.878674 92.771294 232.720913 92.702101 232.715378 92.566482 Q 232.701539 92.270335 232.399856 92.107038 C 232.280844 92.04338 232.139689 92.134716 232.15076 92.267567 Q 232.208883 93.023158 231.69962 92.981642 C 231.616588 92.973339 231.550162 93.048068 231.564001 93.128332 Q 231.619355 93.46046 231.721761 93.598847 C 231.738368 93.620989 231.7356 93.651434 231.713458 93.665272 L 231.71069 93.66804 C 231.691316 93.681879 231.666407 93.676343 231.652568 93.659737 Q 229.601677 91.102351 228.411552 89.123421 Q 228.237184 88.832809 226.695557 86.084449 Q 225.569089 84.075074 225.045987 83.012264 Q 222.045763 76.92325 220.313162 70.322204 C 221.049379 70.294527 221.395346 69.893205 221.91568 69.478045 Z" style="fill:#fefefe;"/>
		<path fill-opacity="0.984" d="M 268.698687 69.538935 Q 269.169202 70.233637 270.240315 70.488268 Q 268.554765 76.012665 266.382094 80.853432 Q 262.916891 88.569874 257.627751 95.14601 Q 254.887695 98.555858 252.446553 100.750671 Q 250.846803 102.192661 250.262811 102.782188 C 249.235982 103.814553 248.510836 104.304442 247.08822 105.408768 C 246.548512 105.826696 246.385216 106.131146 246.468248 106.789867 Q 247.362226 113.972137 247.450794 121.874017 C 247.591948 134.456136 247.481239 147.58073 247.586413 160.644435 Q 247.644535 167.91804 247.475703 170.378555 Q 247.295801 172.969154 247.367762 174.051338 C 247.403742 174.585511 247.323478 175.327263 247.257052 175.670462 C 247.245981 175.728585 247.207233 175.775636 247.154646 175.800546 Q 247.13804 175.808849 247.129736 175.814385 C 247.066079 175.858668 247.030098 175.930629 247.030098 176.008126 L 247.021795 177.995359 Q 246.617706 178.308113 246.67306 179.285123 L 246.274507 181.875722 C 246.263436 181.944915 246.180404 181.97536 246.127817 181.931077 L 246.05032 181.867419 C 245.975591 181.803761 245.862114 181.856348 245.856579 181.953219 Q 245.853811 181.997502 245.856579 182.133121 Q 245.856579 182.144192 245.853811 182.133121 Q 245.834437 182.033483 245.754173 182.080534 C 245.737566 182.088838 245.729263 182.105444 245.729263 182.124818 L 245.718192 182.539978 C 245.718192 182.542746 245.715424 182.542746 245.715424 182.539978 Q 245.715424 182.53721 245.712657 182.534443 C 245.709889 182.52614 245.707121 182.517836 245.707121 182.509533 C 245.613018 181.549129 245.707121 180.605332 245.579805 179.71689 C 245.377761 178.297042 245.588109 176.359628 245.543825 174.92871 C 245.355619 168.875676 245.482935 161.88438 245.485702 156.011248 Q 245.505077 127.686258 245.505077 126.786745 C 245.485702 119.814823 245.311335 114.113291 244.53637 107.484568 C 244.47548 106.96977 244.298345 106.416223 243.933004 106.11454 C 240.777787 103.504567 239.028579 102.029365 236.504406 99.438766 C 236.429677 99.361269 236.382625 99.261631 236.368787 99.153689 Q 236.310664 98.702548 235.920414 98.411936 C 235.903807 98.400865 235.898272 98.378723 235.90104 98.359349 Q 235.912111 98.287388 235.978536 98.279085 C 236.000678 98.276317 236.02282 98.287388 236.039426 98.303995 Q 236.631721 98.971018 237.37901 98.450684 Q 237.550609 98.633355 237.658551 98.619516 Q 238.44182 99.267166 239.344101 99.754287 C 239.363475 99.765358 239.382849 99.779197 239.399455 99.793035 L 244.30388 103.886514 C 244.53637 104.080255 244.862962 104.1107 245.128665 103.964011 C 246.595564 103.153065 247.65007 102.167751 248.986886 101.085567 Q 256.827876 94.744689 262.338435 84.562195 Q 265.17813 79.31734 266.376559 74.606656 L 266.988228 72.910035 L 268.698687 69.538935 Z" style="fill:#fefefe;"/>
		<path d="M 220.313162 70.322204 Q 222.045763 76.92325 225.045987 83.012264 Q 225.569089 84.075074 226.695557 86.084449 Q 228.237184 88.832809 228.411552 89.123421 Q 229.601677 91.102351 231.652568 93.659737 C 231.666407 93.676343 231.691316 93.681879 231.71069 93.66804 L 231.713458 93.665272 C 231.7356 93.651434 231.738368 93.620989 231.721761 93.598847 Q 231.619355 93.46046 231.564001 93.128332 C 231.550162 93.048068 231.616588 92.973339 231.69962 92.981642 Q 232.208883 93.023158 232.15076 92.267567 C 232.139689 92.134716 232.280844 92.04338 232.399856 92.107038 Q 232.701539 92.270335 232.715378 92.566482 C 232.720913 92.702101 232.878674 92.771294 232.983848 92.685495 Q 232.986616 92.682727 233.039203 92.574785 L 236.581902 96.928431 C 236.58467 96.931199 236.58467 96.936734 236.581902 96.939502 L 236.518244 97.030837 C 236.515477 97.03914 236.501638 97.03914 236.496103 97.033605 L 234.110316 94.216052 C 234.102013 94.207748 234.093709 94.202213 234.085406 94.196677 Q 233.883362 94.121949 233.794794 94.166232 C 233.739439 94.191142 233.722833 94.260335 233.756046 94.310154 Q 233.811401 94.387651 233.822472 94.440238 C 233.830775 94.476218 233.786491 94.49836 233.761581 94.470683 L 233.548466 94.218819 C 233.512485 94.174535 233.440524 94.210516 233.451595 94.265871 Q 233.479272 94.404257 233.742207 94.675495 Q 233.875058 94.81665 233.780955 94.675495 Q 233.736672 94.611837 233.819704 94.606302 C 233.855684 94.603534 233.886129 94.628444 233.888897 94.664424 Q 233.916574 94.91352 234.090942 94.921824 C 234.118619 94.924591 234.146296 94.935662 234.165671 94.957804 L 235.834614 96.79558 C 235.859524 96.820489 235.87613 96.850934 235.887201 96.884147 Q 236.008981 97.224578 236.321735 97.296539 L 237.412222 98.398098 Q 237.395616 98.423007 237.37901 98.450684 Q 236.631721 98.971018 236.039426 98.303995 C 236.02282 98.287388 236.000678 98.276317 235.978536 98.279085 Q 235.912111 98.287388 235.90104 98.359349 C 235.898272 98.378723 235.903807 98.400865 235.920414 98.411936 Q 236.310664 98.702548 236.368787 99.153689 C 236.382625 99.261631 236.429677 99.361269 236.504406 99.438766 C 239.028579 102.029365 240.777787 103.504567 243.933004 106.11454 C 244.298345 106.416223 244.47548 106.96977 244.53637 107.484568 C 245.311335 114.113291 245.485702 119.814823 245.505077 126.786745 Q 245.505077 127.686258 245.485702 156.011248 C 245.482935 161.88438 245.355619 168.875676 245.543825 174.92871 C 245.588109 176.359628 245.377761 178.297042 245.579805 179.71689 C 245.707121 180.605332 245.613018 181.549129 245.707121 182.509533 C 245.707121 182.517836 245.709889 182.52614 245.712657 182.534443 Q 245.715424 182.53721 245.715424 182.539978 C 245.715424 182.542746 245.718192 182.542746 245.718192 182.539978 L 245.729263 182.124818 C 245.729263 182.105444 245.737566 182.088838 245.754173 182.080534 Q 245.834437 182.033483 245.853811 182.133121 Q 245.856579 182.144192 245.856579 182.133121 Q 245.853811 181.997502 245.856579 181.953219 C 245.862114 181.856348 245.975591 181.803761 246.05032 181.867419 L 246.127817 181.931077 C 246.180404 181.97536 246.263436 181.944915 246.274507 181.875722 L 246.67306 179.285123 L 246.271739 184.485695 L 246.271739 184.781843 Q 246.291113 184.994958 246.219152 185.169325 C 246.194242 185.22468 246.13612 185.252357 246.077998 185.238519 Q 246.072462 185.238519 246.022643 185.219145 C 246.003269 185.213609 245.983895 185.227448 245.983895 185.24959 Q 246.030946 186.024555 245.809527 189.132721 Q 245.624089 191.712249 244.815911 193.788049 Q 243.838901 196.298384 241.37285 197.754212 Q 239.933628 198.603906 239.028579 198.850235 Q 235.206338 199.888135 231.220802 199.353962 C 229.917199 199.179595 228.018533 199.013531 226.53226 198.645422 Q 218.298252 196.613905 210.905634 192.639439 C 209.560515 191.914293 208.018888 191.194682 206.864743 190.486142 Q 204.409763 188.980495 197.241332 184.57703 Q 196.319676 184.009645 196.543863 183.040938 Q 198.802333 173.337263 199.383558 171.195037 Q 199.596673 170.411768 199.629886 170.043659 C 199.643725 169.888666 199.676937 169.736441 199.729524 169.589751 C 200.058885 168.654257 200.180665 167.740905 200.426993 166.714075 Q 201.365255 162.797732 202.082098 159.64805 C 202.965005 155.76492 204.036118 151.187088 205.198567 146.036335 Q 206.073171 142.167043 207.171961 136.891742 Q 207.465341 135.474662 210.130669 122.087133 Q 210.626093 119.596172 210.642699 119.446714 Q 210.781086 118.35346 210.980363 117.575726 C 211.201782 116.726032 211.229459 116.164182 211.412129 115.098604 Q 213.086609 105.325736 213.294189 103.535012 C 213.665065 100.32444 213.939071 98.586303 213.994425 96.239265 Q 214.132812 90.457469 213.969516 87.277342 Q 213.936303 86.635228 213.582033 84.028023 C 213.191782 81.168954 212.414049 78.639245 211.351239 76.00713 Q 210.966524 75.057797 211.830057 74.617727 Q 215.621853 72.685849 219.269726 70.551926 Q 219.776222 70.255778 220.313162 70.322204 Z" style="fill:#78b0d3;"/>
		<path d="M 278.972516 75.107616 Q 278.892252 75.340106 279.014032 75.547686 Q 278.416201 77.094849 277.815603 78.655851 Q 277.137508 80.421665 276.838593 81.838745 Q 276.273975 84.49577 276.074698 86.732099 Q 275.651235 91.440014 276.085769 98.489433 C 276.154963 99.607597 276.464949 101.013606 276.547981 102.369796 Q 276.628245 103.642953 277.010192 105.4918 C 277.115366 105.998295 277.101528 106.709603 277.237147 107.318504 Q 277.369998 107.910799 277.776855 110.43774 Q 278.366382 114.096685 278.554588 114.860579 C 278.748329 115.652151 278.773239 116.698355 279.033406 117.667061 Q 279.063851 117.780539 279.240986 118.793529 Q 279.744714 121.644295 280.284422 124.356675 Q 280.561195 125.748845 281.504992 130.727998 Q 281.745785 132.003923 281.834353 132.272394 C 282.055772 132.947721 282.061307 133.609209 282.224603 134.339891 Q 282.971891 137.727597 283.190542 138.895581 Q 283.649986 141.372703 284.837344 146.645236 Q 286.622533 154.5914 288.175231 161.452613 Q 289.027693 165.213963 293.254023 182.642384 C 293.505887 183.680285 293.436694 184.159103 292.548251 184.720953 C 286.791364 188.368826 281.745785 191.532346 275.817299 194.338828 Q 270.663778 196.774434 264.536015 198.388023 Q 262.894749 198.819789 261.461063 199.032905 Q 258.920283 199.409317 258.352898 199.461904 Q 258.095498 199.484046 255.582396 199.50342 Q 254.165316 199.514491 252.836804 199.201737 Q 250.758236 198.711848 249.15295 197.93965 C 247.3816 197.087188 247.506148 196.19321 247.486774 194.272403 Q 247.464632 192.340524 247.376065 184.172941 C 247.351155 182.08607 247.190627 180.068392 247.021795 177.995359 L 247.030098 176.008126 C 247.030098 175.930629 247.066079 175.858668 247.129736 175.814385 Q 247.13804 175.808849 247.154646 175.800546 C 247.207233 175.775636 247.245981 175.728585 247.257052 175.670462 C 247.323478 175.327263 247.403742 174.585511 247.367762 174.051338 Q 247.295801 172.969154 247.475703 170.378555 Q 247.644535 167.91804 247.586413 160.644435 C 247.481239 147.58073 247.591948 134.456136 247.450794 121.874017 Q 247.362226 113.972137 246.468248 106.789867 C 246.385216 106.131146 246.548512 105.826696 247.08822 105.408768 C 248.510836 104.304442 249.235982 103.814553 250.262811 102.782188 Q 250.846803 102.192661 252.446553 100.750671 Q 254.887695 98.555858 257.627751 95.14601 Q 262.916891 88.569874 266.382094 80.853432 Q 268.554765 76.012665 270.240315 70.488268 Q 270.937784 70.704151 271.685072 71.105473 Q 275.133669 72.954319 278.598872 74.769953 Q 278.704046 74.825307 278.972516 75.107616 Z" style="fill:#78b0d3;"/>
		<path d="M 266.376559 74.606656 Q 265.17813 79.31734 262.338435 84.562195 Q 256.827876 94.744689 248.986886 101.085567 C 247.65007 102.167751 246.595564 103.153065 245.128665 103.964011 C 244.862962 104.1107 244.53637 104.080255 244.30388 103.886514 L 239.399455 99.793035 C 239.382849 99.779197 239.363475 99.765358 239.344101 99.754287 Q 238.44182 99.267166 237.658551 98.619516 L 238.03773 98.652729 C 238.070943 98.655497 238.098621 98.627819 238.095853 98.597374 L 238.08755 98.503271 C 238.084782 98.467291 238.057104 98.439614 238.021124 98.436846 Q 237.774796 98.411936 237.73328 98.259711 C 237.70837 98.171143 237.672389 98.099182 237.628106 98.049363 L 236.836534 97.169224 C 236.81716 97.14985 236.797786 97.136011 236.79225 97.141546 Q 236.786715 97.147082 236.781179 97.14985 C 236.76734 97.163688 236.764573 97.183062 236.772876 97.194133 Q 236.886353 97.338055 236.850372 97.401713 C 236.789482 97.51519 236.623418 97.509655 236.606812 97.39341 Q 236.604044 97.379571 236.598509 97.315914 C 236.595741 97.285468 236.568064 97.263327 236.537619 97.268862 L 236.321735 97.296539 Q 236.008981 97.224578 235.887201 96.884147 C 235.87613 96.850934 235.859524 96.820489 235.834614 96.79558 L 234.165671 94.957804 C 234.146296 94.935662 234.118619 94.924591 234.090942 94.921824 Q 233.916574 94.91352 233.888897 94.664424 C 233.886129 94.628444 233.855684 94.603534 233.819704 94.606302 Q 233.736672 94.611837 233.780955 94.675495 Q 233.875058 94.81665 233.742207 94.675495 Q 233.479272 94.404257 233.451595 94.265871 C 233.440524 94.210516 233.512485 94.174535 233.548466 94.218819 L 233.761581 94.470683 C 233.786491 94.49836 233.830775 94.476218 233.822472 94.440238 Q 233.811401 94.387651 233.756046 94.310154 C 233.722833 94.260335 233.739439 94.191142 233.794794 94.166232 Q 233.883362 94.121949 234.085406 94.196677 C 234.093709 94.202213 234.102013 94.207748 234.110316 94.216052 L 236.496103 97.033605 C 236.501638 97.03914 236.515477 97.03914 236.518244 97.030837 L 236.581902 96.939502 C 236.58467 96.936734 236.58467 96.931199 236.581902 96.928431 L 233.039203 92.574785 Q 227.445612 84.982891 224.392802 76.051413 Q 224.212899 75.525544 224.179686 74.792094 Q 227.348742 76.593889 230.789035 77.52108 Q 235.530163 78.802541 239.529539 79.062708 Q 241.040722 79.159579 242.133977 79.250914 C 246.426732 79.605184 249.216608 79.339481 253.348835 78.87727 Q 254.522354 78.747186 255.302855 78.553445 C 256.277097 78.31542 257.021618 78.320955 257.890686 78.08293 Q 259.440617 77.656699 260.417627 77.368855 Q 261.563469 77.033959 262.847698 76.402916 Q 264.524945 75.583666 266.376559 74.606656 Z" style="fill:#1d3f67;"/>
		<path d="M 279.014032 75.547686 Q 278.892252 75.340106 278.972516 75.107616 Q 279.061083 75.223861 279.014032 75.547686 Z" style="fill:#1d3f67;"/>
		<path d="M 199.629886 87.562419 C 199.267313 87.700806 198.863224 87.515368 198.73314 87.150027 Q 198.162987 85.561347 198.680553 83.770623 C 199.328203 81.528759 201.218565 79.91517 203.286063 78.855128 Q 207.484715 76.701831 208.661002 76.112304 C 209.186871 75.849369 209.483019 76.228548 209.665689 76.710134 Q 210.803228 79.704822 211.055092 80.524072 Q 211.229459 81.096992 210.642699 81.431888 Q 206.65993 83.684824 200.446367 87.13342 Q 199.77104 87.507064 199.629886 87.562419 Z" style="fill:#1d3f67;"/>
		<path d="M 290.489057 87.520903 Q 290.347903 87.465548 289.672575 87.094672 Q 283.464548 83.659914 279.487314 81.41805 Q 278.900555 81.085922 279.072154 80.513001 Q 279.324018 79.693751 280.453254 76.704599 C 280.635924 76.223013 280.929304 75.843833 281.455173 76.104 Q 282.63146 76.69076 286.824577 78.835754 C 288.889307 79.89026 290.779669 81.498314 291.430087 83.734643 Q 291.950421 85.519831 291.383035 87.108511 C 291.252952 87.471084 290.848862 87.656522 290.489057 87.520903 Z" style="fill:#1d3f67;"/>
		<path d="M 237.658551 98.619516 Q 237.550609 98.633355 237.37901 98.450684 Q 237.395616 98.423007 237.412222 98.398098 L 237.531235 98.398098 C 237.600428 98.39533 237.655783 98.453452 237.658551 98.522646 L 237.658551 98.619516 Z" style="fill:#1d3f67;"/>
		<path d="M 246.271739 184.781843 L 246.271739 184.485695 Q 246.338165 184.646224 246.271739 184.781843 Z" style="fill:#1d3f67;"/>
	</g>
	<g id="surface4">
	</g>
</svg>
