<?xml version="1.0" encoding="utf-8"?>
<svg xmlns="http://www.w3.org/2000/svg" width="490pt" height="280pt" viewBox="0 0 490 280" version="1.1" xmlns:xlink="http://www.w3.org/1999/xlink">
	<g id="surface2" data-size="162.33098811967 148" data-bboxpos="164 55.100670479125" data-pivot="245.16549405984 129.10067047913" data-center="245.16549405984 129.10067047913">
		<path stroke-opacity="0.953" vector-effect="non-scaling-stroke" d="M 287.765477 163.657229 Q 287.838283 164.08041 288.093101 164.034907 Q 288.316068 163.993954 288.379773 163.775538 Q 288.434377 163.588974 288.297866 163.557122" style="fill:none;stroke-width:0.50;stroke:#80838c;"/>
		<path stroke-opacity="0.953" vector-effect="non-scaling-stroke" d="M 275.579679 158.724666 Q 275.010888 158.492599 275.229304 159.088693 Q 275.297559 159.266156 275.424968 159.279807 Q 275.552377 159.288907 275.679787 159.147847" style="fill:none;stroke-width:0.50;stroke:#80838c;"/>
		<path stroke-opacity="0.953" vector-effect="non-scaling-stroke" d="M 291.660564 164.990477 Q 291.19643 164.949524 290.909759 165.349954 C 290.855155 165.42731 290.818752 165.518316 290.814202 165.618424 C 290.623088 169.049376 290.841504 172.471229 290.668591 175.87943 Q 290.218108 184.916395 288.693746 193.757697" style="fill:none;stroke-width:0.50;stroke:#80838c;"/>
		<path stroke-opacity="0.953" vector-effect="non-scaling-stroke" d="M 293.385141 182.350006 Q 293.940282 174.52343 292.261208 166.915269 C 292.220255 166.728706 292.302161 166.537591 292.461423 166.437484 Q 292.971061 166.11441 293.676363 165.964249" style="fill:none;stroke-width:0.50;stroke:#80838c;"/>
		<path stroke-opacity="0.953" vector-effect="non-scaling-stroke" d="M 309.051946 166.328276 Q 309.183905 166.583095 309.438724 166.569444 Q 309.670791 166.560343 309.643489 166.328276 Q 309.611637 166.050706 309.347717 165.955149" style="fill:none;stroke-width:0.50;stroke:#80838c;"/>
		<path stroke-opacity="0.953" vector-effect="non-scaling-stroke" d="M 283.752082 168.921967 L 282.91482 169.959444" style="fill:none;stroke-width:0.50;stroke:#80838c;"/>
		<path stroke-opacity="0.953" vector-effect="non-scaling-stroke" d="M 275.074592 179.041913 Q 273.727693 181.799416 273.450123 184.884543" style="fill:none;stroke-width:0.50;stroke:#80838c;"/>
		<path stroke-opacity="0.953" vector-effect="non-scaling-stroke" d="M 277.772941 198.080515 Q 277.918552 198.521898 278.246176 198.408139 Q 278.669357 198.262529 278.255277 197.661884" style="fill:none;stroke-width:0.50;stroke:#80838c;"/>
		<path stroke-opacity="0.953" vector-effect="non-scaling-stroke" d="M 283.242444 170.396276 L 285.649571 167.788934" style="fill:none;stroke-width:0.50;stroke:#80838c;"/>
		<path stroke-opacity="0.953" vector-effect="non-scaling-stroke" d="M 275.775344 182.181644 Q 275.45682 182.691282 275.065492 182.814141 C 274.90168 182.868745 274.728767 182.773188 274.678713 182.609375 Q 274.646861 182.491067 274.610458 182.450114 C 274.524002 182.350006 274.36019 182.39551 274.337438 182.527469 Q 274.132673 183.801563 273.450123 184.884543" style="fill:none;stroke-width:0.50;stroke:#80838c;"/>
		<path stroke-opacity="0.953" vector-effect="non-scaling-stroke" d="M 295.214376 169.440705 Q 294.672886 169.531712 295.032363 170.246115 Q 295.623906 171.415551 296.547624 172.280114" style="fill:none;stroke-width:0.50;stroke:#80838c;"/>
		<path stroke-opacity="0.953" vector-effect="non-scaling-stroke" d="M 296.643181 171.547511 Q 296.402014 171.178933 296.210899 171.238088" style="fill:none;stroke-width:0.50;stroke:#80838c;"/>
		<path stroke-opacity="0.953" vector-effect="non-scaling-stroke" d="M 288.48443 170.036799 Q 288.739249 169.331497 288.334269 168.994772 C 288.225061 168.899215 288.061249 168.894665 287.94294 168.981121 Q 287.633518 169.199538 287.615316 169.63637" style="fill:none;stroke-width:0.50;stroke:#80838c;"/>
		<path stroke-opacity="0.953" vector-effect="non-scaling-stroke" d="M 307.809704 175.706517 Q 307.504832 175.20598 307.127154 175.369792 C 307.017946 175.415295 307.008845 175.570007 307.108952 175.633712 Q 307.436577 175.843027 307.809704 175.706517" style="fill:none;stroke-width:0.50;stroke:#80838c;"/>
		<path stroke-opacity="0.953" vector-effect="non-scaling-stroke" d="M 295.987933 178.568678 Q 296.051638 179.906476 296.342859 181.189671 Q 296.852497 183.460288 296.888899 183.774261 Q 297.189222 186.390704 297.353034 189.18006 C 297.362134 189.32567 297.489544 189.425778 297.621503 189.393925 Q 297.685208 189.380274 297.635154 189.152758" style="fill:none;stroke-width:0.50;stroke:#80838c;"/>
		<path stroke-opacity="0.953" vector-effect="non-scaling-stroke" d="M 300.538268 186.636422 Q 300.483664 185.10751 299.88757 183.76061" style="fill:none;stroke-width:0.50;stroke:#80838c;"/>
		<path stroke-opacity="0.953" vector-effect="non-scaling-stroke" d="M 297.958228 179.310382 Q 298.099289 180.170396 298.513369 180.488919 C 298.586174 180.543523 298.686282 180.479819 298.66353 180.393362 Q 298.358658 179.187523 297.503195 178.309309" style="fill:none;stroke-width:0.50;stroke:#80838c;"/>
		<path stroke-opacity="0.953" vector-effect="non-scaling-stroke" d="M 296.242752 176.434571 Q 296.037987 175.979537 295.67396 175.770222 C 295.551101 175.701967 295.396389 175.783873 295.391839 175.924933 Q 295.382738 176.188852 295.646658 176.584732" style="fill:none;stroke-width:0.50;stroke:#80838c;"/>
		<path stroke-opacity="0.953" vector-effect="non-scaling-stroke" d="M 270.492405 192.365294 Q 270.533358 192.706569 270.874633 192.85218 C 271.015693 192.911334 271.156754 192.765724 271.093049 192.624663 Q 270.992942 192.410798 271.052096 192.224234" style="fill:none;stroke-width:0.50;stroke:#80838c;"/>
		<path d="M 246.184514 89.159141 C 245.697628 89.495865 245.643024 90.583396 245.360903 91.147637 Q 242.812715 96.266764 241.502219 98.146053 Q 238.066716 103.069515 235.149951 105.563099 C 231.582488 108.620924 227.801159 111.046253 223.18712 112.215689 Q 215.501603 114.167783 208.771658 110.573018 C 203.816342 107.924723 200.476396 104.120643 197.723444 99.301838 Q 195.043296 94.614993 193.791954 88.235423 Q 193.104853 84.727114 193.027498 84.231128 Q 192.777229 82.593007 192.79088 81.792148 C 192.804531 80.659114 192.481457 79.64439 192.440504 78.534108 Q 192.208437 71.813263 192.777229 66.74874 Q 192.868236 65.911478 192.781779 64.8558 C 192.754477 64.509975 192.395001 64.291559 192.076478 64.428069 Q 188.358854 66.011585 184.896048 67.449491 Q 181.023713 69.051209 177.574559 69.706458 Q 177.137727 69.788364 174.102653 69.774713 Q 172.250667 69.765612 170.703553 69.215021 Q 167.076936 67.922726 165.275003 66.584928 Q 162.963433 64.869451 164.842721 62.717143 Q 165.302305 62.193854 167.468265 61.088123 Q 172.150559 58.690096 177.956787 56.478633 C 179.235431 55.991747 180.905404 55.686875 182.102143 55.3456 Q 183.180572 55.036177 186.056384 55.204539 C 186.361256 55.22274 186.657028 55.304646 186.930048 55.441157 Q 186.930048 55.445707 188.331552 56.119156 Q 188.904894 56.392177 192.981994 58.721948 Q 194.192383 59.413599 198.173927 60.492029 Q 199.30241 60.796901 203.889148 60.573935 C 204.04841 60.564834 204.207671 60.537532 204.366933 60.492029 Q 205.044933 60.296364 207.533966 59.509156 Q 208.498637 59.204284 212.33912 56.738002 C 212.530234 56.615143 212.753201 56.555989 212.980718 56.560539 Q 213.731523 56.583291 214.295764 57.070177 Q 215.924784 58.467129 217.63116 59.327143 Q 220.784543 60.91976 224.465764 60.087049 Q 227.6692 59.363546 230.331146 57.070177 Q 231.227562 56.30117 232.337844 57.047425 Q 234.549307 58.535385 236.656112 59.504606 Q 240.70591 61.370243 245.501964 60.364619 Q 248.919265 59.645666 253.915533 56.405828 Q 254.402419 56.087304 256.436419 55.286445 C 256.58658 55.227291 256.745842 55.186338 256.905104 55.172687 Q 260.672781 54.835962 264.244794 56.073653 Q 270.829129 58.357921 276.853773 61.534055 Q 277.927652 62.102847 279.101639 63.386042 C 279.206297 63.4998 279.270001 63.645411 279.283652 63.800122 Q 279.479317 65.779518 278.050512 66.603129 Q 273.886955 69.010256 270.692619 69.629102 Q 269.850807 69.792914 266.76568 69.783813 Q 264.795385 69.774713 262.870593 69.133115 Q 258.911802 67.804417 258.638781 67.681558 Q 255.671963 66.325558 250.948715 64.30521 C 250.429977 64.082243 249.856634 64.459921 249.852084 65.024163 Q 249.824782 70.134189 249.38795 73.114659 Q 249.278742 73.838162 249.233238 74.957544 Q 249.183185 76.126981 248.869212 77.719598 Q 247.904541 82.574806 247.836286 82.888779 C 247.731628 83.348363 247.827185 83.830698 248.104755 84.212926 C 251.540258 88.908872 252.008943 95.215637 251.121628 100.726093 Q 250.848607 102.432469 250.561936 103.246979 Q 248.914715 107.87922 247.017225 110.850589 Q 242.19842 118.390494 234.026018 123.787192 C 230.604166 126.044158 226.631723 128.592346 223.150717 131.709325 Q 217.740368 136.550882 215.528905 143.117016 Q 214.64614 145.728908 214.518731 149.018801 Q 214.377671 152.66817 214.750798 155.043445 Q 216.234207 164.403484 223.610301 170.99692 Q 225.544193 172.726047 227.842112 174.359618 Q 229.248166 175.360691 231.045548 176.184302 Q 231.395924 176.343564 231.709897 176.311712 C 231.87826 176.298061 232.005669 176.157 232.005669 175.988638 L 232.005669 164.944974 C 232.005669 164.594598 232.333293 164.339779 232.674569 164.421686 L 243.477064 167.129135 C 243.909346 167.238343 244.196017 167.647873 244.150514 168.089256 C 243.700031 172.557685 243.809239 178.282007 243.736433 188.679523 C 243.727333 189.475831 243.531668 190.26759 243.340554 191.004744 C 243.194944 191.578086 242.721709 192.005818 242.139266 192.101375 Q 238.453494 192.702019 234.717669 192.433549 Q 233.252461 192.328892 232.524407 190.81363 C 232.456152 190.668019 232.41975 190.513308 232.415199 190.349496 Q 232.383347 188.679523 232.123978 180.90755 C 232.060273 178.991859 230.604166 179.205725 229.452931 178.577778 Q 225.066408 176.193403 222.454516 174.000141 C 216.95316 169.37245 212.584838 162.574249 211.611067 155.330116 Q 211.192436 152.213136 211.146932 150.593217 Q 211.065026 147.635499 212.175308 143.631204 Q 213.990892 137.092372 218.43657 132.050601 C 221.70371 128.337527 226.58167 125.056735 230.717924 122.431192 C 235.209105 119.582682 239.372662 115.965166 242.407736 112.142884 Q 245.338151 108.448012 247.058178 103.506348 C 247.385802 102.564428 247.372151 101.5042 247.740728 100.594133 C 247.849937 100.334764 247.904541 100.052643 247.909091 99.765972 L 247.945494 93.418254 C 247.945494 93.340899 247.936393 93.258993 247.918192 93.181637 L 247.039977 89.491315 C 246.94897 89.113637 246.507588 88.940725 246.184514 89.159141 Z M 205.937982 66.307721 C 203.711685 67.199223 202.637806 69.747411 203.539773 72.001101 C 204.439738 74.256793 206.978825 75.362524 209.202756 74.470294 C 211.429053 73.578793 212.502932 71.030605 211.600965 68.776915 C 210.701 66.521223 208.161913 65.415491 205.937982 66.307721 Z M 236.023615 70.352605 C 236.023615 67.931827 234.05787 65.966082 231.637092 65.966082 C 229.216314 65.966082 227.250569 67.931827 227.250569 70.352605 C 227.250569 72.773383 229.216314 74.739128 231.637092 74.739128 C 234.05787 74.739128 236.023615 72.773383 236.023615 70.352605 Z M 222.413563 98.305315 Q 222.213348 98.218858 221.712811 98.473677 Q 221.262328 98.701194 220.811845 98.742147 C 219.360288 98.887757 217.663013 99.456549 216.084046 99.19263 Q 213.922637 98.837704 212.639442 98.205207 C 212.352771 98.064147 212.020597 98.268912 212.020597 98.587435 C 212.025147 100.070845 215.064771 102.691838 216.170503 103.474495 C 216.284261 103.556401 216.375268 103.665609 216.429872 103.797569 Q 216.752946 104.543824 217.508301 104.097891 C 219.346637 103.019462 222.031334 100.967261 222.600126 98.696643 C 222.641079 98.537382 222.563724 98.37357 222.413563 98.305315 Z" style="fill:#161e2c;"/>
		<path d="M 308.56506 195.800797 L 306.444603 197.675535 C 306.421852 197.698287 306.3991 197.716488 306.376348 197.730139 L 303.450483 199.604878 C 303.436832 199.613978 303.423181 199.623079 303.40953 199.627629 C 301.430134 200.501294 299.760161 201.297602 298.081087 201.779938 Q 289.335343 204.287173 280.562297 202.034757 C 278.692109 201.556971 277.053988 200.687857 274.728767 199.522972 Q 272.935935 198.631106 269.659693 195.56873 C 264.18109 190.449603 261.960526 182.987053 262.483815 175.492651 Q 262.747734 171.661269 264.217492 168.353175 Q 268.25364 159.261605 277.404364 155.129901 Q 278.701209 154.547458 279.711384 154.260787 Q 281.01733 153.887659 281.82729 153.564586 C 281.9729 153.505431 282.127612 153.473579 282.286874 153.469029 Q 282.537142 153.464478 287.114779 152.854733 C 289.003168 152.599915 291.619611 153.027646 294.035839 153.368921 Q 295.755866 153.614639 296.916201 154.010519 Q 304.08753 156.4677 308.806227 161.550424 Q 311.545529 164.503592 313.647784 169.222289 Q 314.553301 171.260839 314.94463 173.426799 Q 315.595328 177.021564 315.613529 177.78147 Q 315.668133 180.070288 315.076589 184.106436 C 314.689811 186.722879 312.765019 190.231187 311.085945 192.661066 C 310.903932 192.920435 311.01769 193.284462 311.318012 193.39367 L 313.206402 194.094422 C 313.46122 194.189979 313.720589 194.258234 313.989059 194.308287 Q 314.54875 194.376542 317.688482 194.767871 Q 319.83169 195.031791 324.254616 193.93061 C 325.13283 193.712193 326.024696 194.235482 326.261313 195.104596 L 326.279515 195.172851 C 326.511582 196.019213 325.983743 196.888327 325.12373 197.070341 C 321.023878 197.925804 316.082213 198.021361 312.064267 196.542502 Q 309.575234 195.627885 309.229409 195.605133 C 308.988241 195.56873 308.747073 195.641536 308.56506 195.800797 Z M 287.765477 163.657229 Q 287.838283 164.08041 288.093101 164.034907 Q 288.316068 163.993954 288.379773 163.775538 Q 288.434377 163.588974 288.297866 163.557122 Q 290.973464 160.130719 292.311262 156.049069 C 292.352215 155.917109 292.302161 155.776049 292.188403 155.698693 C 290.554833 154.656666 287.706323 154.893284 285.867987 155.166304 C 285.49486 155.225458 285.276444 155.621337 285.426605 155.967163 Q 287.037424 159.666585 287.765477 163.657229 Z M 301.225369 159.398115 C 301.630349 159.334411 301.757758 158.820223 301.430134 158.574505 Q 299.427986 157.072894 298.012832 156.968236 Q 297.98098 156.963686 297.17102 156.667914 Q 296.479369 156.413096 296.051638 157.050142 Q 295.319034 158.155874 294.404416 160.048813 C 294.208752 160.458344 294.631933 160.890625 295.046014 160.704062 C 297.098215 159.766693 298.595275 159.807646 301.225369 159.398115 Z M 275.579679 158.724666 Q 275.010888 158.492599 275.229304 159.088693 Q 275.297559 159.266156 275.424968 159.279807 Q 275.552377 159.288907 275.679787 159.147847 L 283.665625 163.297753 C 283.9978 163.470665 284.361827 163.12484 284.202565 162.783565 Q 283.19239 160.585753 282.468887 159.343511 Q 281.713531 158.046666 280.839867 157.200304 C 280.562297 156.936384 280.189169 156.799874 279.811491 156.827176 Q 277.572726 156.981887 275.738941 158.319686 Q 275.520525 158.478948 275.579679 158.724666 Z M 291.660564 164.990477 Q 291.19643 164.949524 290.909759 165.349954 C 290.855155 165.42731 290.818752 165.518316 290.814202 165.618424 C 290.623088 169.049376 290.841504 172.471229 290.668591 175.87943 Q 290.218108 184.916395 288.693746 193.757697 Q 288.730148 196.815522 288.393424 199.686784 C 288.334269 200.160019 288.61639 200.596851 289.053222 200.710609 Q 289.462752 200.819817 290.463826 200.601401 Q 290.836954 200.524045 291.041719 199.823294 Q 291.141826 199.472918 291.451249 198.835871 C 291.505853 198.722113 291.546806 198.599254 291.578658 198.476394 Q 292.784497 193.584784 292.889155 191.992167 C 293.084819 188.970744 293.571705 185.826463 293.385141 182.350006 Q 293.940282 174.52343 292.261208 166.915269 C 292.220255 166.728706 292.302161 166.537591 292.461423 166.437484 Q 292.971061 166.11441 293.676363 165.964249 Q 298.681731 164.949524 303.782657 165.327202 C 305.511785 165.454612 307.290966 165.955149 309.051946 166.328276 Q 309.183905 166.583095 309.438724 166.569444 Q 309.670791 166.560343 309.643489 166.328276 Q 309.611637 166.050706 309.347717 165.955149 Q 309.270362 165.500115 308.833529 165.304451 C 308.774375 165.277149 308.728872 165.240746 308.687919 165.195243 L 307.054348 163.275001 C 306.635717 162.783565 306.048724 162.483243 305.411677 162.433189 Q 303.081906 162.251176 299.20047 162.574249 C 297.334832 162.728961 296.442967 163.138491 294.754792 163.53437 C 293.740067 163.775538 292.634336 164.448988 291.660564 164.990477 Z M 283.752082 168.921967 L 282.91482 169.959444 Q 277.668283 173.417698 275.074592 179.041913 Q 273.727693 181.799416 273.450123 184.884543 C 273.072445 186.809335 273.563881 188.579415 273.68219 190.162932 C 273.891505 192.897683 275.03819 196.829173 277.772941 198.080515 Q 277.918552 198.521898 278.246176 198.408139 Q 278.669357 198.262529 278.255277 197.661884 Q 278.187022 197.379764 277.945854 197.124945 C 277.854847 197.033938 277.791142 196.92018 277.75929 196.797321 Q 274.587706 185.553442 280.134565 175.442597 Q 281.099236 173.677067 282.764659 171.169833 C 282.77376 171.160732 282.787411 171.156182 282.791961 171.165282 Q 282.801062 171.183484 282.801062 171.210786 C 282.805612 171.247188 282.851115 171.247188 282.869317 171.210786 L 283.242444 170.396276 L 285.649571 167.788934 Q 285.813383 167.174638 285.280994 166.847014 Q 282.91482 165.404558 278.97423 164.467189 Q 276.184874 163.79829 275.834498 163.652679 C 275.602431 163.557122 275.356713 163.502518 275.101894 163.488867 Q 273.304512 163.406961 271.889358 163.115739 C 270.064673 162.733511 269.47768 163.848343 268.52666 164.995028 Q 268.017022 165.604773 268.030673 166.260021 C 268.035224 166.496638 268.230888 166.683202 268.472056 166.674101 Q 276.280431 166.328276 283.752082 168.921967 Z M 295.214376 169.440705 Q 294.672886 169.531712 295.032363 170.246115 Q 295.623906 171.415551 296.547624 172.280114 Q 298.950201 175.488101 302.162738 177.986235 Q 305.30702 180.425215 308.287489 182.882396 Q 309.952912 184.252047 310.899382 186.281496 C 311.090496 186.691026 311.69114 186.631872 311.800348 186.19504 L 312.391892 183.842516 C 312.5011 183.401134 312.360039 182.932449 312.023314 182.627577 Q 308.728872 179.597054 305.425328 177.558503 Q 303.919167 176.630235 298.636228 173.094625 C 298.549772 173.03547 298.467866 172.967215 298.39051 172.889859 Q 297.566899 172.057148 296.643181 171.547511 Q 296.402014 171.178933 296.210899 171.238088 C 296.870698 170.118705 298.968403 171.215336 299.846617 171.365497 Q 301.962523 171.729524 303.664349 172.35292 C 303.755355 172.384772 303.846362 172.407524 303.941919 172.416625 L 312.009663 173.29939 C 312.309986 173.335792 312.546603 173.044571 312.455596 172.753349 Q 312.046066 171.474705 310.822026 170.368974 C 310.153127 169.768329 309.320415 169.545363 308.487704 169.144934 C 308.278389 169.044826 308.050872 168.981121 307.818805 168.96747 Q 307.277315 168.935618 303.495986 168.544289 Q 299.195919 168.098356 295.214376 169.440705 Z M 287.615316 169.63637 Q 285.658672 172.093551 284.352726 174.996665 Q 282.259572 179.647107 281.135639 184.488664 Q 280.616901 186.727429 280.516793 188.565764 C 280.325679 191.90571 280.412136 194.649563 281.681679 197.748341 C 282.145813 198.885925 283.024028 199.750488 283.988699 200.301079 C 284.380028 200.524045 284.853263 200.187321 284.771357 199.745938 Q 283.742981 194.158126 284.425531 188.219939 C 284.894216 184.197442 286.072753 181.012208 287.551612 175.774772 C 288.088551 173.881832 288.279665 171.975242 288.48443 170.036799 Q 288.739249 169.331497 288.334269 168.994772 C 288.225061 168.899215 288.061249 168.894665 287.94294 168.981121 Q 287.633518 169.199538 287.615316 169.63637 Z M 278.683008 170.109605 Q 278.059612 169.91394 277.791142 169.90939 Q 273.582082 169.809282 271.129452 169.877537 C 270.856432 169.886638 270.587962 169.90939 270.319492 169.950343 Q 270.114727 169.982195 267.066002 170.933215 Q 266.806633 171.010571 265.960271 171.875135 C 265.864714 171.975242 265.796459 172.093551 265.760056 172.22096 Q 264.950096 174.978463 264.922794 177.431094 C 264.918244 177.745067 265.191264 177.986235 265.487036 177.927081 C 265.937519 177.836074 266.228741 177.444745 266.465358 177.290034 Q 269.423076 175.369792 270.915586 174.764598 C 274.337438 173.381296 277.026686 172.562235 278.778565 170.432678 C 278.869572 170.32347 278.819518 170.155108 278.683008 170.109605 Z M 307.809704 175.706517 Q 308.646966 176.589282 309.688992 177.162624 C 310.253234 177.472047 310.439798 177.863376 311.063194 178.063591 C 311.572831 178.227403 311.886804 178.568678 312.278133 178.818946 C 312.542053 178.991859 312.896979 178.800745 312.896979 178.482221 L 312.896979 176.662087 C 312.896979 176.489175 312.78322 176.334463 312.614858 176.28441 C 311.509127 175.961336 308.792576 175.160477 307.809704 175.706517 Q 307.504832 175.20598 307.127154 175.369792 C 307.017946 175.415295 307.008845 175.570007 307.108952 175.633712 Q 307.436577 175.843027 307.809704 175.706517 Z M 295.646658 176.584732 L 295.987933 178.568678 Q 296.051638 179.906476 296.342859 181.189671 Q 296.852497 183.460288 296.888899 183.774261 Q 297.189222 186.390704 297.353034 189.18006 C 297.362134 189.32567 297.489544 189.425778 297.621503 189.393925 Q 297.685208 189.380274 297.635154 189.152758 Q 297.803517 194.094422 296.415665 199.026985 C 296.297356 199.450166 296.711436 199.832394 297.125517 199.682233 C 298.049235 199.354609 298.959302 198.41724 299.318778 197.352462 Q 299.350631 197.252354 299.687356 195.987361 Q 300.956899 191.273214 300.538268 186.636422 Q 300.483664 185.10751 299.88757 183.76061 Q 299.769262 183.141765 299.314228 182.563872 C 299.264174 182.504718 299.232322 182.431912 299.218671 182.354557 L 298.986604 181.185121 C 298.954752 181.025859 298.79094 180.930302 298.636228 180.984906 Q 298.281302 181.112315 298.231248 181.203322 C 298.085638 181.462691 297.667007 181.326181 297.516846 180.971255 Q 297.262027 180.370611 297.662456 180.170396 C 297.758013 180.120342 297.830819 180.024785 297.84902 179.915577 L 297.958228 179.310382 Q 298.099289 180.170396 298.513369 180.488919 C 298.586174 180.543523 298.686282 180.479819 298.66353 180.393362 Q 298.358658 179.187523 297.503195 178.309309 L 296.242752 176.434571 Q 296.037987 175.979537 295.67396 175.770222 C 295.551101 175.701967 295.396389 175.783873 295.391839 175.924933 Q 295.382738 176.188852 295.646658 176.584732 Z M 270.492405 192.365294 Q 270.533358 192.706569 270.874633 192.85218 C 271.015693 192.911334 271.156754 192.765724 271.093049 192.624663 Q 270.992942 192.410798 271.052096 192.224234 Q 270.70172 190.595214 270.583411 188.929791 Q 270.228485 183.860718 271.957613 178.978208 C 272.05772 178.691537 271.748297 178.432168 271.484378 178.582329 C 270.073774 179.387738 267.147908 181.562798 266.679224 183.282825 Q 266.269694 184.798087 266.733828 186.126785 Q 267.916915 189.544086 270.492405 192.365294 Z M 301.730456 181.85857 L 303.222966 184.370355 C 303.236617 184.388557 303.250268 184.406758 303.263919 184.420409 Q 305.143208 186.663724 305.489033 186.950395 Q 308.009919 189.057201 308.70157 189.707898 C 309.065597 190.053724 309.65259 189.99912 309.948362 189.59414 L 310.526254 188.802382 C 310.831127 188.383751 310.74012 187.792207 310.321489 187.487335 L 302.139986 181.485443 C 301.889718 181.303429 301.571194 181.594651 301.730456 181.85857 Z M 303.869114 189.157308 C 303.68255 189.002596 303.400429 189.125456 303.386778 189.366623 L 303.0091 195.70069 C 302.981798 196.123871 303.441382 196.401442 303.805409 196.183026 C 305.024899 195.450422 308.114576 193.320865 306.462805 191.791952 Q 305.015798 190.458704 304.437906 189.694247 Q 304.319597 189.534986 303.869114 189.157308 Z" style="fill:#161e2c;"/>
		<path d="M 250.639292 168.871913 C 250.643842 168.498786 250.948715 168.198464 251.321842 168.198464 L 259.589801 168.198464 C 259.944728 168.198464 260.226848 168.485135 260.222298 168.835511 Q 260.144942 175.242383 260.149493 180.848396 Q 260.149493 183.032557 260.613627 185.162114 C 261.041358 187.118758 261.537345 189.134556 261.564647 191.113952 C 261.569197 191.264113 261.514593 191.409724 261.414486 191.518932 Q 260.709184 192.30614 259.803667 192.328892 Q 254.352366 192.460851 253.164728 192.392596 Q 252.218258 192.337992 251.312742 191.559885 C 251.185332 191.450677 251.094326 191.295965 251.067024 191.127603 Q 250.702997 189.002596 250.693896 188.588516 Q 250.548285 176.457322 250.639292 168.871913 Z" style="fill:#161e2c;"/>
		<path fill-opacity="0.902" d="M 275.579679 158.724666 Q 275.59333 158.956733 275.679787 159.147847 Q 275.552377 159.288907 275.424968 159.279807 Q 275.297559 159.266156 275.229304 159.088693 Q 275.010888 158.492599 275.579679 158.724666 Z" style="fill:#f6f4f7;"/>
		<path fill-opacity="0.902" d="M 288.297866 163.557122 Q 288.434377 163.588974 288.379773 163.775538 Q 288.316068 163.993954 288.093101 164.034907 Q 287.838283 164.08041 287.765477 163.657229 L 288.297866 163.557122 Z" style="fill:#f6f4f7;"/>
		<path fill-opacity="0.902" d="M 291.660564 164.990477 Q 291.282886 165.732182 291.769772 166.046155 C 291.847128 166.100759 291.947235 166.123511 292.047343 166.11441 L 293.676363 165.964249 Q 292.971061 166.11441 292.461423 166.437484 C 292.302161 166.537591 292.220255 166.728706 292.261208 166.915269 Q 293.940282 174.52343 293.385141 182.350006 Q 292.889155 182.559322 292.775396 181.835818 C 292.752645 181.681107 292.620685 181.571899 292.465974 181.571899 C 292.311262 181.571899 292.179302 181.685657 292.161101 181.840369 L 291.009866 190.690771 C 291.005316 190.731724 290.991665 190.768127 290.978014 190.804529 Q 289.881383 193.780448 289.876833 193.79865 Q 289.690269 194.367442 288.693746 193.757697 Q 290.218108 184.916395 290.668591 175.87943 C 290.841504 172.471229 290.623088 169.049376 290.814202 165.618424 C 290.818752 165.518316 290.855155 165.42731 290.909759 165.349954 Q 291.19643 164.949524 291.660564 164.990477 Z" style="fill:#f6f4f7;"/>
		<path fill-opacity="0.902" d="M 309.051946 166.328276 Q 309.265811 166.269122 309.347717 165.955149 Q 309.611637 166.050706 309.643489 166.328276 Q 309.670791 166.560343 309.438724 166.569444 Q 309.183905 166.583095 309.051946 166.328276 Z" style="fill:#f6f4f7;"/>
		<path fill-opacity="0.902" d="M 285.649571 167.788934 L 283.242444 170.396276 Q 283.078632 170.491833 282.955773 170.373524 Q 282.77376 170.200611 282.91482 169.959444 L 283.752082 168.921967 L 285.649571 167.788934 Z" style="fill:#f6f4f7;"/>
		<path fill-opacity="0.902" d="M 288.48443 170.036799 Q 288.461679 169.627269 288.234162 169.436155 C 288.120403 169.345148 287.956591 169.358799 287.870135 169.472558 Q 287.742726 169.63637 287.615316 169.63637 Q 287.633518 169.199538 287.94294 168.981121 C 288.061249 168.894665 288.225061 168.899215 288.334269 168.994772 Q 288.739249 169.331497 288.48443 170.036799 Z" style="fill:#f6f4f7;"/>
		<path fill-opacity="0.902" d="M 295.214376 169.440705 C 294.850349 170.505484 295.605705 170.701148 296.210899 171.238088 Q 296.402014 171.178933 296.643181 171.547511 Q 296.48392 171.893336 296.547624 172.280114 Q 295.623906 171.415551 295.032363 170.246115 Q 294.672886 169.531712 295.214376 169.440705 Z" style="fill:#f6f4f7;"/>
		<path fill-opacity="0.902" d="M 307.809704 175.706517 Q 307.436577 175.843027 307.108952 175.633712 C 307.008845 175.570007 307.017946 175.415295 307.127154 175.369792 Q 307.504832 175.20598 307.809704 175.706517 Z" style="fill:#f6f4f7;"/>
		<path fill-opacity="0.902" d="M 296.242752 176.434571 Q 295.95153 176.452772 295.646658 176.584732 Q 295.382738 176.188852 295.391839 175.924933 C 295.396389 175.783873 295.551101 175.701967 295.67396 175.770222 Q 296.037987 175.979537 296.242752 176.434571 Z" style="fill:#f6f4f7;"/>
		<path fill-opacity="0.902" d="M 297.958228 179.310382 Q 297.630604 178.887201 297.503195 178.309309 Q 298.358658 179.187523 298.66353 180.393362 C 298.686282 180.479819 298.586174 180.543523 298.513369 180.488919 Q 298.099289 180.170396 297.958228 179.310382 Z" style="fill:#f6f4f7;"/>
		<path fill-opacity="0.902" d="M 275.775344 182.181644 Q 275.45682 182.691282 275.065492 182.814141 C 274.90168 182.868745 274.728767 182.773188 274.678713 182.609375 Q 274.646861 182.491067 274.610458 182.450114 C 274.524002 182.350006 274.36019 182.39551 274.337438 182.527469 Q 274.132673 183.801563 273.450123 184.884543 Q 273.727693 181.799416 275.074592 179.041913 Q 275.03819 179.569752 275.279357 179.95198 C 275.365814 180.083939 275.556928 180.09304 275.652485 179.965631 L 276.653559 178.59598 C 276.744565 178.473121 276.935679 178.504973 276.981183 178.650584 Q 277.222351 179.428691 276.753666 179.906476 C 276.694512 179.965631 276.649008 180.038436 276.617156 180.115792 L 275.775344 182.181644 Z" style="fill:#f6f4f7;"/>
		<path fill-opacity="0.902" d="M 297.635154 189.152758 Q 297.685208 189.380274 297.621503 189.393925 C 297.489544 189.425778 297.362134 189.32567 297.353034 189.18006 Q 297.189222 186.390704 296.888899 183.774261 Q 296.852497 183.460288 296.342859 181.189671 Q 296.051638 179.906476 295.987933 178.568678 L 296.638631 180.488919 C 296.661383 180.561725 296.675034 180.63453 296.679584 180.711886 Q 296.752389 183.564946 297.198322 185.080208 Q 297.903624 187.464583 297.635154 189.152758 Z" style="fill:#f6f4f7;"/>
		<path d="M 275.775344 182.181644 L 274.546753 185.667201 C 274.5058 185.79006 274.36474 185.844664 274.314686 185.758207 Q 274.278284 185.689952 274.205478 185.721805 C 274.128123 185.753657 274.037116 185.699053 274.037116 185.612597 Q 274.032566 185.471536 273.846002 185.553442 Q 273.741344 185.598946 273.563881 185.453335 Q 273.331814 185.262221 273.450123 184.884543 Q 274.132673 183.801563 274.337438 182.527469 C 274.36019 182.39551 274.524002 182.350006 274.610458 182.450114 Q 274.646861 182.491067 274.678713 182.609375 C 274.728767 182.773188 274.90168 182.868745 275.065492 182.814141 Q 275.45682 182.691282 275.775344 182.181644 Z" style="fill:#161e2c;"/>
		<path fill-opacity="0.902" d="M 300.538268 186.636422 Q 299.864819 185.412382 299.88757 183.76061 Q 300.483664 185.10751 300.538268 186.636422 Z" style="fill:#f6f4f7;"/>
		<path fill-opacity="0.902" d="M 271.052096 192.224234 Q 270.992942 192.410798 271.093049 192.624663 C 271.156754 192.765724 271.015693 192.911334 270.874633 192.85218 Q 270.533358 192.706569 270.492405 192.365294 L 271.052096 192.224234 Z" style="fill:#f6f4f7;"/>
		<path fill-opacity="0.902" d="M 278.255277 197.661884 Q 278.669357 198.262529 278.246176 198.408139 Q 277.918552 198.521898 277.772941 198.080515 L 278.255277 197.661884 Z" style="fill:#f6f4f7;"/>
		<path d="M 299.089487 186.053069 C 299.091262 186.19504 298.977503 186.308798 298.835533 186.308753 L 298.817331 186.308844 C 298.677181 186.308798 298.563423 186.19504 298.561648 186.054889 L 298.556097 184.471373 C 298.554322 184.329402 298.66808 184.215644 298.810051 184.215689 L 298.828252 184.215598 C 298.968403 184.215644 299.082161 184.329402 299.083936 184.469553 L 299.089487 186.053069 Z" style="fill:#161e2c;"/>
	</g>
	<g id="surface4">
	</g>
</svg>
