<?xml version="1.0" encoding="utf-8"?>
<svg xmlns="http://www.w3.org/2000/svg" width="490pt" height="280pt" viewBox="0 0 490 280" version="1.1" xmlns:xlink="http://www.w3.org/1999/xlink">
	<g id="surface2" data-size="228.86642990179 148" data-bboxpos="130.5 50.47879510571" data-pivot="244.9332149509 124.47879510571" data-center="244.9332149509 124.47879510571">
		<path vector-effect="non-scaling-stroke" d="M 130.5 163.268747 Q 141.09235 157.280598 148.108383 153.386286 Q 159.518113 147.05103 172.231173 140.384344 Q 186.805173 132.743519 205.479509 124.486861 Q 209.942628 122.511712 216.600357 119.788604" style="fill:none;stroke-width:0.50;stroke:#8b8c90;"/>
		<path stroke-opacity="0.976" vector-effect="non-scaling-stroke" d="M 216.600357 119.788604 Q 229.353726 114.624554 241.497979 110.788466 C 253.138368 107.111375 265.363239 103.973979 277.632898 101.208323" style="fill:none;stroke-width:0.50;stroke:#888a8d;"/>
		<path vector-effect="non-scaling-stroke" d="M 277.632898 101.208323 C 288.207333 98.84128 299.126636 96.742964 309.48161 94.810364 C 309.553271 94.796928 309.586862 94.711831 309.542074 94.653606 L 309.537595 94.649128 C 309.479371 94.570749 309.385316 94.525961 309.286782 94.530439 Q 304.716172 94.747661 301.144333 95.146274 Q 291.326814 96.2391 283.392629 97.396868 Q 278.998931 98.037336 274.598514 98.711395" style="fill:none;stroke-width:0.50;stroke:#8b8c90;"/>
		<path stroke-opacity="0.976" vector-effect="non-scaling-stroke" d="M 274.598514 98.711395 Q 273.964765 98.783055 273.317579 98.883828 Q 246.464963 103.033432 220.080381 109.525446 Q 218.96964 109.800891 217.85442 110.127843" style="fill:none;stroke-width:0.50;stroke:#888a8d;"/>
		<path vector-effect="non-scaling-stroke" d="M 217.85442 110.127843 Q 216.904915 110.338347 215.939735 110.591399 Q 200.577468 114.633511 188.240627 118.68906 Q 186.460305 119.275782 183.000436 120.386524 Q 172.831332 123.651565 159.562901 128.793222 Q 153.292588 131.222968 151.588407 132.056024 Q 141.161772 137.16409 130.5 141.833234" style="fill:none;stroke-width:0.50;stroke:#8b8c90;"/>
		<path vector-effect="non-scaling-stroke" d="M 311.282086 102.059294 C 311.355986 102.045858 311.373901 101.949564 311.308958 101.911494 L 309.571186 100.908244 C 309.492807 100.861216 309.398752 100.84778 309.309176 100.865695 L 298.990032 103.046868 C 298.866866 103.073741 298.839993 103.237217 298.949723 103.30216 L 300.886802 104.419619 C 300.949505 104.455449 301.027884 104.462168 301.097306 104.435295 Q 301.923643 104.103864 304.013001 103.608957 Q 308.51419 102.545243 311.282086 102.059294" style="fill:none;stroke-width:0.50;stroke:#8b8c90;"/>
		<path stroke-opacity="0.976" vector-effect="non-scaling-stroke" d="M 283.155252 109.926298 Q 283.182125 109.700119 282.877567 109.574712 Q 281.86312 109.153706 280.199248 108.443816 C 280.046969 108.378874 279.879014 108.372156 279.722256 108.423662 Q 272.202359 110.88476 264.798911 114.194589 C 264.680223 114.248335 264.680223 114.418529 264.80115 114.470035 L 268.534226 116.08688 C 268.590211 116.111514 268.655153 116.109274 268.711138 116.080162 Q 270.872157 114.913436 273.378043 113.838525 Q 278.636148 111.581212 282.620036 110.109928 C 282.684979 110.085295 282.752161 110.06738 282.821582 110.056183 Q 283.146295 110.002437 283.155252 109.926298" style="fill:none;stroke-width:0.50;stroke:#888a8d;"/>
		<path stroke-opacity="0.976" vector-effect="non-scaling-stroke" d="M 250.930322 125.192271 L 246.818788 123.436583 C 246.637396 123.360444 246.431372 123.362683 246.25222 123.44778 Q 240.535038 126.135057 235.234384 129.111217 Q 231.089259 131.44019 227.533096 133.619124 C 227.452478 133.668391 227.461435 133.789318 227.551011 133.825148 L 233.946731 136.299683 C 234.034067 136.333274 234.13484 136.319837 234.213219 136.266092 Q 242.380302 130.54891 249.741201 126.706104 Q 251.091558 126.000693 251.729787 125.537138" style="fill:none;stroke-width:0.50;stroke:#888a8d;"/>
		<path stroke-opacity="0.976" vector-effect="non-scaling-stroke" d="M 188.753449 165.152081 L 198.174594 168.540289 C 198.219382 168.555965 198.266409 168.544768 198.297761 168.511177 Q 206.673108 159.672275 216.40329 151.814229 Q 217.375189 151.0282 217.437892 150.972215 C 217.500595 150.913991 217.48044 150.808739 217.399822 150.779627 L 210.126259 148.040844 C 210.068034 148.01845 210.000853 148.025168 209.947107 148.058759 Q 209.358145 148.437217 208.33922 149.173979 Q 197.968569 156.671482 188.726576 165.019956 C 188.681788 165.060265 188.697464 165.131926 188.753449 165.152081" style="fill:none;stroke-width:0.50;stroke:#888a8d;"/>
		<path stroke-opacity="0.976" vector-effect="non-scaling-stroke" d="M 277.632898 101.208323 C 277.691122 100.731331 277.001388 100.583531 276.645324 100.567855 Q 275.776437 100.534264 275.079985 100.411097 C 274.856045 100.370788 274.728399 100.131173 274.817975 99.922909 Q 274.847087 99.851248 275.142688 99.638505 Q 275.35991 99.483987 276.499763 98.886068 C 276.564705 98.852477 276.540072 98.756183 276.468411 98.753943 L 274.598514 98.711395" style="fill:none;stroke-width:0.50;stroke:#ffffff;"/>
		<path stroke-opacity="0.976" vector-effect="non-scaling-stroke" d="M 216.600357 119.788604 Q 217.175882 118.915239 218.07612 118.39346 Q 219.063694 117.822413 221.253825 116.648969 C 222.586267 115.936841 223.470829 115.191121 223.529053 113.614585 Q 223.57608 112.353805 223.551447 111.238585 Q 223.538011 110.591399 222.958007 110.577962 Q 219.959453 110.504062 217.85442 110.127843" style="fill:none;stroke-width:0.50;stroke:#ffffff;"/>
		<path stroke-opacity="0.976" vector-effect="non-scaling-stroke" d="M 228.737892 133.359354 Q 228.690865 133.370551 228.681907 133.350396 Q 228.679668 133.350396 228.681907 133.350396 Q 228.690865 133.370551 228.737892 133.359354" style="fill:none;stroke-width:0.50;stroke:#888a8d;"/>
		<path stroke-opacity="0.976" vector-effect="non-scaling-stroke" d="M 234.560325 135.08369 Q 235.070908 134.147622 236.163734 133.972949 C 236.224198 133.963991 236.266746 134.028934 236.233155 134.08044 Q 236.161495 134.19241 235.839021 134.221522 C 235.7696 134.22824 235.704658 134.255113 235.653151 134.299901 Q 235.113457 134.779132 234.869362 135.278517 C 234.831293 135.359136 234.909672 135.444233 234.99029 135.410642 Q 235.644194 135.139675 236.036088 134.729865 C 236.087595 134.678359 236.062961 134.591022 235.991301 134.570868 Q 235.870373 134.537277 235.65763 134.588783 C 235.6218 134.597741 235.592688 134.56415 235.603885 134.530559 L 235.691221 134.288704 C 235.702418 134.259591 235.729291 134.239437 235.760643 134.239437 Q 236.130143 134.232719 236.172692 134.409631 C 236.195086 134.499207 236.293619 134.541756 236.374238 134.496968 Q 237.135633 134.064764 237.408839 133.787079 C 237.449148 133.746769 237.453627 133.681827 237.420036 133.6348 C 237.384206 133.587772 237.321503 133.574336 237.269997 133.601209 L 236.871384 133.809473 C 236.837793 133.827388 236.797484 133.796036 236.806441 133.757966 Q 236.806441 133.749009 236.81092 133.695263 C 236.815399 133.648236 236.77285 133.610166 236.725823 133.621363 Q 235.935316 133.816191 235.386663 133.995343 Q 234.974614 134.129706 234.481947 135.00755 C 234.461792 135.038902 234.477468 135.08145 234.511059 135.097126 L 234.515538 135.099366 C 234.531213 135.106084 234.551368 135.099366 234.560325 135.08369" style="fill:none;stroke-width:0.50;stroke:#ffe18a;"/>
		<path d="M 359.36643 93.327883 L 359.36643 106.058858 Q 358.649823 106.141716 357.946652 106.269361 C 356.632125 106.506738 355.335514 106.493301 354.056818 106.802338 C 353.877666 106.844887 353.694036 106.867281 353.510405 106.86952 Q 352.473564 106.880717 351.508384 107.124811 C 350.576795 107.362187 349.475011 107.297245 348.641955 107.57717 C 347.869363 107.83694 347.011674 107.72497 346.259236 107.998176 C 345.488883 108.278101 344.575209 108.20868 343.760068 108.486365 C 343.065855 108.721502 342.329093 108.627447 341.657274 108.907372 C 341.012328 109.176099 340.188229 109.144748 339.420116 109.449306 C 339.317104 109.489615 339.207373 109.516488 339.099882 109.529924 L 338.25115 109.626218 C 338.199644 109.632937 338.150377 109.644134 338.10335 109.662049 Q 337.261337 109.99124 336.784345 110.024831 C 336.213299 110.06514 335.738546 110.410008 335.185415 110.452556 C 334.471047 110.51078 333.924634 110.855648 333.214745 110.936266 C 333.102775 110.947463 332.990806 110.976575 332.887793 111.023602 Q 332.19358 111.325921 331.515043 111.393103 C 331.387397 111.4043 331.26423 111.44237 331.15226 111.502834 Q 330.634959 111.782758 330.115419 111.832025 C 330.014646 111.840983 329.916113 111.867855 329.826537 111.912643 Q 329.318194 112.167935 328.99572 112.212723 Q 328.411238 112.29558 328.135792 112.447859 Q 328.028301 112.508323 326.908602 112.839754 Q 325.011832 113.399603 321.518372 114.67606 Q 290.621404 125.964863 264.218907 146.670333 Q 252.056739 156.210166 241.231491 168.12824 Q 231.967103 178.330935 225.163813 189.256956 Q 224.104578 190.958898 222.541479 193.836524 Q 221.280698 196.15654 220.040072 198.478795 L 130.5 198.478795 L 130.5 163.268747 Q 141.09235 157.280598 148.108383 153.386286 Q 159.518113 147.05103 172.231173 140.384344 Q 186.805173 132.743519 205.479509 124.486861 Q 209.942628 122.511712 216.600357 119.788604 Q 229.353726 114.624554 241.497979 110.788466 C 253.138368 107.111375 265.363239 103.973979 277.632898 101.208323 C 288.207333 98.84128 299.126636 96.742964 309.48161 94.810364 C 309.553271 94.796928 309.586862 94.711831 309.542074 94.653606 L 309.537595 94.649128 C 309.479371 94.570749 309.385316 94.525961 309.286782 94.530439 Q 304.716172 94.747661 301.144333 95.146274 Q 291.326814 96.2391 283.392629 97.396868 Q 278.998931 98.037336 274.598514 98.711395 Q 273.964765 98.783055 273.317579 98.883828 Q 246.464963 103.033432 220.080381 109.525446 Q 218.96964 109.800891 217.85442 110.127843 Q 216.904915 110.338347 215.939735 110.591399 Q 200.577468 114.633511 188.240627 118.68906 Q 186.460305 119.275782 183.000436 120.386524 Q 172.831332 123.651565 159.562901 128.793222 Q 153.292588 131.222968 151.588407 132.056024 Q 141.161772 137.16409 130.5 141.833234 L 130.5 123.933729 Q 131.153904 123.832956 131.767499 123.561989 C 131.854836 123.52392 131.94889 123.499286 132.042945 123.488089 C 132.708046 123.414189 133.256698 123.158898 133.980024 122.973028 Q 134.519719 122.834185 136.52174 122.269857 Q 147.705291 119.121264 166.3326 114.176674 Q 168.1913 113.681767 168.704122 113.583234 C 169.259493 113.477982 169.651387 113.249564 170.164209 113.173424 Q 170.838268 113.072651 171.185375 112.938287 C 171.657888 112.759136 172.121443 112.727784 172.54021 112.606857 Q 173.491954 112.338129 178.416389 111.061672 C 179.043421 110.900436 179.724198 110.828775 180.337793 110.593638 C 180.427368 110.560047 180.519184 110.535414 180.613238 110.524217 Q 181.235791 110.443599 182.561514 110.083056 Q 183.02283 109.957649 186.81637 109.091002 C 190.455391 108.260186 193.420353 107.543579 197.328102 106.735156 Q 202.523504 105.658006 203.441657 105.476615 Q 207.329251 104.710741 213.543579 103.615675 C 214.287059 103.48579 215.149227 103.277526 216.074099 103.194669 C 216.29132 103.174514 216.506302 103.136444 216.716806 103.07822 C 217.567777 102.845323 218.33589 102.825168 219.177904 102.648256 C 220.458839 102.379528 221.327725 102.350416 222.566112 102.043618 C 222.910979 101.958521 223.441717 101.971958 223.712684 101.904776 C 224.865973 101.609175 226.433552 101.521839 227.710008 101.210562 Q 228.345997 101.053805 229.313417 101.002298 C 229.405232 100.99558 229.497048 100.982144 229.586624 100.95751 Q 230.64138 100.675346 231.561772 100.612643 C 232.540389 100.543222 233.512287 100.231946 234.35878 100.171482 Q 235.47176 100.090864 236.723584 99.795263 C 236.878102 99.759433 237.037099 99.737039 237.196096 99.730321 Q 238.412089 99.676575 239.874416 99.316032 C 239.963992 99.293638 240.053568 99.282441 240.145383 99.282441 Q 241.202379 99.28692 242.192192 99.087614 C 243.674674 98.787534 244.769739 98.760661 246.348514 98.429231 C 246.444808 98.409076 246.543342 98.39564 246.644115 98.3934 Q 248.209454 98.35757 249.790468 98.001506 C 249.947226 97.965675 250.108463 97.945521 250.269699 97.941042 Q 251.622295 97.907451 253.274971 97.53795 C 253.382462 97.513317 253.492192 97.50212 253.601923 97.499881 Q 254.981392 97.481965 256.340706 97.210998 C 257.458165 96.989298 258.591301 97.058719 259.554242 96.845977 C 260.987456 96.527982 262.505768 96.583967 263.981531 96.337633 Q 265.231114 96.12713 266.06641 96.115933 C 267.557848 96.0913 269.181412 95.703884 270.666132 95.670293 C 272.074713 95.638941 273.953568 95.280638 275.456204 95.202259 Q 276.699069 95.137316 278.233057 94.93577 Q 279.516231 94.767816 280.085038 94.776773 C 280.89794 94.79021 281.645898 94.617776 282.557333 94.570749 C 287.065241 94.337851 292.831689 94.239318 297.827785 93.981787 Q 300.111971 93.863099 303.963734 93.836226 C 305.334246 93.827269 307.300437 93.654835 308.567936 93.652596 Q 309.882462 93.650356 310.762545 93.578696 C 313.861872 93.330122 319.885851 93.37491 325.491063 93.063634 C 327.289299 92.962861 328.933017 92.998692 331.015657 92.927031 Q 339.050615 92.651585 346.995998 92.839694 C 347.670056 92.85761 348.306045 92.960622 349.011456 92.965101 C 351.501666 92.983016 353.794809 92.996452 356.452974 93.171125 Q 357.908582 93.267419 359.36643 93.327883 Z M 311.282086 102.059294 C 311.355986 102.045858 311.373901 101.949564 311.308958 101.911494 L 309.571186 100.908244 C 309.492807 100.861216 309.398752 100.84778 309.309176 100.865695 L 298.990032 103.046868 C 298.866866 103.073741 298.839993 103.237217 298.949723 103.30216 L 300.886802 104.419619 C 300.949505 104.455449 301.027884 104.462168 301.097306 104.435295 Q 301.923643 104.103864 304.013001 103.608957 Q 308.51419 102.545243 311.282086 102.059294 Z M 283.155252 109.926298 Q 283.182125 109.700119 282.877567 109.574712 Q 281.86312 109.153706 280.199248 108.443816 C 280.046969 108.378874 279.879014 108.372156 279.722256 108.423662 Q 272.202359 110.88476 264.798911 114.194589 C 264.680223 114.248335 264.680223 114.418529 264.80115 114.470035 L 268.534226 116.08688 C 268.590211 116.111514 268.655153 116.109274 268.711138 116.080162 Q 270.872157 114.913436 273.378043 113.838525 Q 278.636148 111.581212 282.620036 110.109928 C 282.684979 110.085295 282.752161 110.06738 282.821582 110.056183 Q 283.146295 110.002437 283.155252 109.926298 Z M 251.729787 125.537138 L 250.930322 125.192271 L 246.818788 123.436583 C 246.637396 123.360444 246.431372 123.362683 246.25222 123.44778 Q 240.535038 126.135057 235.234384 129.111217 Q 231.089259 131.44019 227.533096 133.619124 C 227.452478 133.668391 227.461435 133.789318 227.551011 133.825148 L 233.946731 136.299683 C 234.034067 136.333274 234.13484 136.319837 234.213219 136.266092 Q 242.380302 130.54891 249.741201 126.706104 Q 251.091558 126.000693 251.729787 125.537138 Z M 188.753449 165.152081 L 198.174594 168.540289 C 198.219382 168.555965 198.266409 168.544768 198.297761 168.511177 Q 206.673108 159.672275 216.40329 151.814229 Q 217.375189 151.0282 217.437892 150.972215 C 217.500595 150.913991 217.48044 150.808739 217.399822 150.779627 L 210.126259 148.040844 C 210.068034 148.01845 210.000853 148.025168 209.947107 148.058759 Q 209.358145 148.437217 208.33922 149.173979 Q 197.968569 156.671482 188.726576 165.019956 C 188.681788 165.060265 188.697464 165.131926 188.753449 165.152081 Z" style="fill:#171a21;"/>
		<path fill-opacity="0.996" d="M 277.632898 101.208323 C 277.691122 100.731331 277.001388 100.583531 276.645324 100.567855 Q 275.776437 100.534264 275.079985 100.411097 C 274.856045 100.370788 274.728399 100.131173 274.817975 99.922909 Q 274.847087 99.851248 275.142688 99.638505 Q 275.35991 99.483987 276.499763 98.886068 C 276.564705 98.852477 276.540072 98.756183 276.468411 98.753943 L 274.598514 98.711395 Q 278.998931 98.037336 283.392629 97.396868 Q 291.326814 96.2391 301.144333 95.146274 Q 304.716172 94.747661 309.286782 94.530439 C 309.385316 94.525961 309.479371 94.570749 309.537595 94.649128 L 309.542074 94.653606 C 309.586862 94.711831 309.553271 94.796928 309.48161 94.810364 C 299.126636 96.742964 288.207333 98.84128 277.632898 101.208323 Z" style="fill:#ffffff;"/>
		<path fill-opacity="0.953" d="M 277.632898 101.208323 C 265.363239 103.973979 253.138368 107.111375 241.497979 110.788466 Q 229.353726 114.624554 216.600357 119.788604 Q 217.175882 118.915239 218.07612 118.39346 Q 219.063694 117.822413 221.253825 116.648969 C 222.586267 115.936841 223.470829 115.191121 223.529053 113.614585 Q 223.57608 112.353805 223.551447 111.238585 Q 223.538011 110.591399 222.958007 110.577962 Q 219.959453 110.504062 217.85442 110.127843 Q 218.96964 109.800891 220.080381 109.525446 Q 246.464963 103.033432 273.317579 98.883828 Q 273.964765 98.783055 274.598514 98.711395 L 276.468411 98.753943 C 276.540072 98.756183 276.564705 98.852477 276.499763 98.886068 Q 275.35991 99.483987 275.142688 99.638505 Q 274.847087 99.851248 274.817975 99.922909 C 274.728399 100.131173 274.856045 100.370788 275.079985 100.411097 Q 275.776437 100.534264 276.645324 100.567855 C 277.001388 100.583531 277.691122 100.731331 277.632898 101.208323 Z" style="fill:#ffffff;"/>
		<path fill-opacity="0.996" d="M 217.85442 110.127843 Q 219.959453 110.504062 222.958007 110.577962 Q 223.538011 110.591399 223.551447 111.238585 Q 223.57608 112.353805 223.529053 113.614585 C 223.470829 115.191121 222.586267 115.936841 221.253825 116.648969 Q 219.063694 117.822413 218.07612 118.39346 Q 217.175882 118.915239 216.600357 119.788604 Q 209.942628 122.511712 205.479509 124.486861 Q 186.805173 132.743519 172.231173 140.384344 Q 159.518113 147.05103 148.108383 153.386286 Q 141.09235 157.280598 130.5 163.268747 L 130.5 141.833234 Q 141.161772 137.16409 151.588407 132.056024 Q 153.292588 131.222968 159.562901 128.793222 Q 172.831332 123.651565 183.000436 120.386524 Q 186.460305 119.275782 188.240627 118.68906 Q 200.577468 114.633511 215.939735 110.591399 Q 216.904915 110.338347 217.85442 110.127843 Z" style="fill:#ffffff;"/>
		<path d="M 277.852359 89.440289 Q 277.599307 89.536583 277.348495 89.538822 C 273.071245 89.576892 270.430995 89.536583 267.967658 89.765002 Q 267.004717 89.854577 266.086564 89.874732 C 262.774495 89.941914 258.053845 90.060602 253.91096 90.315893 Q 251.805926 90.445778 248.796176 90.539833 C 248.211693 90.557748 247.481649 90.732421 246.854618 90.754815 Q 244.660008 90.839912 241.350179 90.99667 Q 240.557432 91.03474 240.042371 91.095204 Q 239.200357 91.193737 238.739041 91.204934 Q 236.378716 91.260919 234.381174 91.437831 Q 231.595363 91.686405 230.399525 91.769262 Q 226.489537 92.040229 224.165042 92.190269 Q 222.380242 92.306718 220.56857 92.51946 Q 219.834047 92.606797 216.376417 92.774752 C 216.159196 92.785949 215.941974 92.768034 215.731471 92.721006 Q 215.084285 92.577685 213.485355 92.284324 Q 213.241261 92.239536 212.847127 91.823008 C 212.79786 91.771502 212.757551 91.713277 212.728439 91.650574 Q 212.580639 91.346016 212.410444 90.826476 C 211.472137 87.971244 211.084721 84.748751 211.259394 81.508343 Q 211.353449 79.741458 211.398237 79.345085 C 212.043183 73.574157 214.197484 68.201842 217.603607 63.879805 Q 220.745482 59.891438 224.608443 57.231034 Q 227.954103 54.926694 230.71304 53.710701 Q 231.635672 53.303131 232.621007 52.917954 Q 236.768371 51.29887 241.372573 50.716626 Q 245.703568 50.172453 250.386148 50.873384 C 263.977052 52.908997 275.984701 62.343578 278.602557 76.321898 Q 279.688665 82.115219 278.488348 87.783135 Q 278.29576 88.690091 277.99792 89.305925 C 277.968808 89.368628 277.917302 89.415655 277.852359 89.440289 Z" style="fill:#ffc51b;"/>
		<path fill-opacity="0.996" d="M 311.282086 102.059294 Q 308.51419 102.545243 304.013001 103.608957 Q 301.923643 104.103864 301.097306 104.435295 C 301.027884 104.462168 300.949505 104.455449 300.886802 104.419619 L 298.949723 103.30216 C 298.839993 103.237217 298.866866 103.073741 298.990032 103.046868 L 309.309176 100.865695 C 309.398752 100.84778 309.492807 100.861216 309.571186 100.908244 L 311.308958 101.911494 C 311.373901 101.949564 311.355986 102.045858 311.282086 102.059294 Z" style="fill:#ffffff;"/>
		<path fill-opacity="0.953" d="M 283.155252 109.926298 Q 283.146295 110.002437 282.821582 110.056183 C 282.752161 110.06738 282.684979 110.085295 282.620036 110.109928 Q 278.636148 111.581212 273.378043 113.838525 Q 270.872157 114.913436 268.711138 116.080162 C 268.655153 116.109274 268.590211 116.111514 268.534226 116.08688 L 264.80115 114.470035 C 264.680223 114.418529 264.680223 114.248335 264.798911 114.194589 Q 272.202359 110.88476 279.722256 108.423662 C 279.879014 108.372156 280.046969 108.378874 280.199248 108.443816 Q 281.86312 109.153706 282.877567 109.574712 Q 283.182125 109.700119 283.155252 109.926298 Z" style="fill:#ffffff;"/>
		<path fill-opacity="0.953" d="M 250.930322 125.192271 Q 250.189081 125.671502 249.41201 126.029805 Q 249.244055 126.105945 249.138804 126.182085 Q 248.923821 126.334364 248.677488 126.679231 C 248.646136 126.724019 248.675248 126.784482 248.728994 126.788961 Q 249.248534 126.840467 249.494868 126.57174 C 249.530698 126.531431 249.573247 126.500079 249.622513 126.479924 L 251.729787 125.537138 Q 251.091558 126.000693 249.741201 126.706104 Q 242.380302 130.54891 234.213219 136.266092 C 234.13484 136.319837 234.034067 136.333274 233.946731 136.299683 L 227.551011 133.825148 C 227.461435 133.789318 227.452478 133.668391 227.533096 133.619124 Q 231.089259 131.44019 235.234384 129.111217 Q 240.535038 126.135057 246.25222 123.44778 C 246.431372 123.362683 246.637396 123.360444 246.818788 123.436583 L 250.930322 125.192271 Z M 228.737892 133.359354 L 228.681907 133.495957 C 228.663992 133.542984 228.612486 133.567618 228.565458 133.551942 Q 228.451249 133.516111 228.469164 133.424296 C 228.478122 133.368311 228.431094 133.316805 228.375109 133.323523 Q 228.175803 133.348157 227.931709 133.516111 C 227.873484 133.556421 227.864527 133.639278 227.916033 133.688545 Q 228.399743 134.149861 228.85658 133.986385 C 228.919283 133.963991 228.943916 133.885612 228.903607 133.831867 Q 228.740131 133.616884 228.737892 133.359354 Q 228.690865 133.370551 228.681907 133.350396 Q 228.679668 133.350396 228.681907 133.350396 Q 228.690865 133.370551 228.737892 133.359354 Z M 234.560325 135.08369 Q 235.070908 134.147622 236.163734 133.972949 C 236.224198 133.963991 236.266746 134.028934 236.233155 134.08044 Q 236.161495 134.19241 235.839021 134.221522 C 235.7696 134.22824 235.704658 134.255113 235.653151 134.299901 Q 235.113457 134.779132 234.869362 135.278517 C 234.831293 135.359136 234.909672 135.444233 234.99029 135.410642 Q 235.644194 135.139675 236.036088 134.729865 C 236.087595 134.678359 236.062961 134.591022 235.991301 134.570868 Q 235.870373 134.537277 235.65763 134.588783 C 235.6218 134.597741 235.592688 134.56415 235.603885 134.530559 L 235.691221 134.288704 C 235.702418 134.259591 235.729291 134.239437 235.760643 134.239437 Q 236.130143 134.232719 236.172692 134.409631 C 236.195086 134.499207 236.293619 134.541756 236.374238 134.496968 Q 237.135633 134.064764 237.408839 133.787079 C 237.449148 133.746769 237.453627 133.681827 237.420036 133.6348 C 237.384206 133.587772 237.321503 133.574336 237.269997 133.601209 L 236.871384 133.809473 C 236.837793 133.827388 236.797484 133.796036 236.806441 133.757966 Q 236.806441 133.749009 236.81092 133.695263 C 236.815399 133.648236 236.77285 133.610166 236.725823 133.621363 Q 235.935316 133.816191 235.386663 133.995343 Q 234.974614 134.129706 234.481947 135.00755 C 234.461792 135.038902 234.477468 135.08145 234.511059 135.097126 L 234.515538 135.099366 C 234.531213 135.106084 234.551368 135.099366 234.560325 135.08369 Z" style="fill:#ffffff;"/>
		<path fill-opacity="0.953" d="M 188.753449 165.152081 C 188.697464 165.131926 188.681788 165.060265 188.726576 165.019956 Q 197.968569 156.671482 208.33922 149.173979 Q 209.358145 148.437217 209.947107 148.058759 C 210.000853 148.025168 210.068034 148.01845 210.126259 148.040844 L 217.399822 150.779627 C 217.48044 150.808739 217.500595 150.913991 217.437892 150.972215 Q 217.375189 151.0282 216.40329 151.814229 Q 206.673108 159.672275 198.297761 168.511177 C 198.266409 168.544768 198.219382 168.555965 198.174594 168.540289 L 188.753449 165.152081 Z" style="fill:#ffffff;"/>
		<path d="M 228.737892 133.359354 Q 228.690865 133.370551 228.681907 133.350396 Q 228.679668 133.350396 228.681907 133.350396 Q 228.690865 133.370551 228.737892 133.359354 Z" style="fill:#171a21;"/>
		<path d="M 234.560325 135.08369 C 234.551368 135.099366 234.531213 135.106084 234.515538 135.099366 L 234.511059 135.097126 C 234.477468 135.08145 234.461792 135.038902 234.481947 135.00755 Q 234.974614 134.129706 235.386663 133.995343 Q 235.935316 133.816191 236.725823 133.621363 C 236.77285 133.610166 236.815399 133.648236 236.81092 133.695263 Q 236.806441 133.749009 236.806441 133.757966 C 236.797484 133.796036 236.837793 133.827388 236.871384 133.809473 L 237.269997 133.601209 C 237.321503 133.574336 237.384206 133.587772 237.420036 133.6348 C 237.453627 133.681827 237.449148 133.746769 237.408839 133.787079 Q 237.135633 134.064764 236.374238 134.496968 C 236.293619 134.541756 236.195086 134.499207 236.172692 134.409631 Q 236.130143 134.232719 235.760643 134.239437 C 235.729291 134.239437 235.702418 134.259591 235.691221 134.288704 L 235.603885 134.530559 C 235.592688 134.56415 235.6218 134.597741 235.65763 134.588783 Q 235.870373 134.537277 235.991301 134.570868 C 236.062961 134.591022 236.087595 134.678359 236.036088 134.729865 Q 235.644194 135.139675 234.99029 135.410642 C 234.909672 135.444233 234.831293 135.359136 234.869362 135.278517 Q 235.113457 134.779132 235.653151 134.299901 C 235.704658 134.255113 235.7696 134.22824 235.839021 134.221522 Q 236.161495 134.19241 236.233155 134.08044 C 236.266746 134.028934 236.224198 133.963991 236.163734 133.972949 Q 235.070908 134.147622 234.560325 135.08369 Z" style="fill:#ffc51b;"/>
	</g>
	<g id="surface4">
	</g>
</svg>
