<?xml version="1.0" encoding="utf-8"?>
<svg xmlns="http://www.w3.org/2000/svg" width="490pt" height="280pt" viewBox="0 0 490 280" version="1.1" xmlns:xlink="http://www.w3.org/1999/xlink">
	<g id="surface2" data-size="139.47420117816 148" data-bboxpos="175.5 52.320569910414" data-pivot="245.23710058908 126.32056991041" data-center="245.23710058908 126.32056991041">
		<path vector-effect="non-scaling-stroke" d="M 298.893402 66.36073 Q 299.007172 66.313326 299.016653 66.234319 Q 299.038775 66.073144 298.8776 66.057343 Q 298.789113 66.047862 298.669022 66.111067" style="fill:none;stroke-width:0.50;stroke:#524040;"/>
		<path vector-effect="non-scaling-stroke" d="M 261.178561 88.684983 Q 260.002935 88.526969 259.143338 87.980239" style="fill:none;stroke-width:0.50;stroke:#524040;"/>
		<path vector-effect="non-scaling-stroke" d="M 216.549017 118.448547 Q 216.324637 118.252609 216.150821 118.243128 C 216.056013 118.236807 215.995967 118.337937 216.043372 118.420104 Q 216.14134 118.59392 216.403644 118.682408" style="fill:none;stroke-width:0.50;stroke:#524040;"/>
		<path vector-effect="non-scaling-stroke" d="M 216.896648 119.175412 Q 217.067304 119.668417 217.304325 119.431395" style="fill:none;stroke-width:0.50;stroke:#524040;"/>
		<path vector-effect="non-scaling-stroke" d="M 228.216789 132.01249 Q 228.902571 131.867117 229.534628 131.671179 Q 233.848417 130.337539 237.782972 128.188545" style="fill:none;stroke-width:0.50;stroke:#524040;"/>
		<path vector-effect="non-scaling-stroke" d="M 252.832249 127.68606 Q 253.723449 128.637305 254.709458 129.503223 Q 256.109464 130.732574 256.630911 131.272983 Q 260.622351 135.412956 263.71943 140.270314 Q 264.278801 141.145713 265.179482 141.676641" style="fill:none;stroke-width:0.50;stroke:#524040;"/>
		<path vector-effect="non-scaling-stroke" d="M 204.498851 119.04268 Q 206.316014 118.913108 207.744463 118.015588 C 207.902477 117.914458 207.956202 117.70904 207.864554 117.544705 Q 207.200894 116.362759 206.078993 116.166821" style="fill:none;stroke-width:0.50;stroke:#524040;"/>
		<path vector-effect="non-scaling-stroke" d="M 204.707429 116.81784 Q 204.783276 117.133868 205.165671 117.054861 Q 205.402692 117.004296 205.456417 116.767275" style="fill:none;stroke-width:0.50;stroke:#524040;"/>
		<path vector-effect="non-scaling-stroke" d="M 204.505171 118.135678 L 206.906988 117.693238 C 206.998636 117.677437 207.065002 117.59843 207.065002 117.503621 Q 207.058681 116.93161 206.537234 116.669306" style="fill:none;stroke-width:0.50;stroke:#524040;"/>
		<path vector-effect="non-scaling-stroke" d="M 219.9985 152.108963 C 219.990567 152.105581 219.977926 152.115062 219.970152 152.130074 C 219.962125 152.146665 219.962125 152.162466 219.969994 152.165406 C 219.977926 152.168787 219.990567 152.159306 219.998342 152.144295 C 220.006369 152.127703 220.006369 152.111902 219.9985 152.108963" style="fill:none;stroke-width:0.50;stroke:#524040;"/>
		<path vector-effect="non-scaling-stroke" d="M 215.068961 158.679796 C 215.03208 158.650532 214.80454 158.893873 214.565211 159.21932 C 214.324177 159.544892 214.159842 159.832478 214.198808 159.860099 C 214.235689 159.889363 214.463229 159.646021 214.702557 159.320575 C 214.943592 158.995003 215.107927 158.707417 215.068961 158.679796" style="fill:none;stroke-width:0.50;stroke:#524040;"/>
		<path vector-effect="non-scaling-stroke" d="M 237.311994 101.865362 C 236.787482 100.776233 235.447521 100.333793 234.317624 100.87594 C 233.187917 101.420931 232.698073 102.74193 233.222775 103.833398 C 233.747288 104.922527 235.087249 105.364967 236.217145 104.82282 C 237.346852 104.277829 237.836697 102.95683 237.311994 101.865362" style="fill:none;stroke-width:0.50;stroke:#524040;"/>
		<path vector-effect="non-scaling-stroke" d="M 257.256648 102.915746 C 257.256648 101.705357 256.273799 100.722508 255.06341 100.722508 C 253.853021 100.722508 252.870172 101.705357 252.870172 102.915746 C 252.870172 104.126135 253.853021 105.108984 255.06341 105.108984 C 256.273799 105.108984 257.256648 104.126135 257.256648 102.915746" style="fill:none;stroke-width:0.50;stroke:#524040;"/>
		<path d="M 298.893402 66.36073 Q 299.007172 66.313326 299.016653 66.234319 Q 299.038775 66.073144 298.8776 66.057343 Q 298.789113 66.047862 298.669022 66.111067 Q 297.746218 66.332287 296.801293 66.458699 Q 295.834246 66.58511 295.265395 66.80949 Q 294.563812 67.087595 293.732657 67.185564 C 293.242812 67.24561 292.765609 67.596401 292.250483 67.624844 C 292.082988 67.634325 291.969218 67.463669 292.035584 67.311976 L 292.977348 65.200905 C 293.068997 64.992327 293.065836 64.758465 292.971028 64.553047 L 291.33084 61.045131 C 291.318199 61.016688 291.280275 61.004047 291.251833 61.023009 C 290.088848 61.715111 288.919543 61.955293 287.807122 62.448297 Q 281.145242 65.393683 275.529415 70.089866 Q 266.26346 77.845205 261.178561 88.684983 Q 260.002935 88.526969 259.143338 87.980239 Q 259.424603 86.899422 259.914447 85.935535 Q 264.926659 76.088087 273.468909 68.898439 Q 273.816541 68.607693 276.13619 66.907459 Q 282.409356 62.321886 289.674851 60.245579 C 290.161535 60.106526 290.632417 60.141289 291.049575 59.973794 C 291.150704 59.93271 291.22023 59.837902 291.22339 59.727292 Q 291.368763 56.187773 293.185927 53.05277 Q 293.460872 52.575567 293.562001 52.468117 C 293.795862 52.215294 294.21302 52.300622 294.32679 52.622971 Q 294.554331 53.255028 296.32093 58.614872 Q 296.447341 58.994106 296.836056 59.891627 Q 297.117322 60.542645 297.806264 60.450997 Q 300.855939 60.04016 301.851429 60.116007 C 301.911474 60.119167 301.968359 60.134969 302.022084 60.157091 L 303.918255 61.004047 C 304.19952 61.130458 304.53135 61.064092 304.739929 60.839712 L 311.310162 53.880765 C 311.458695 53.72275 311.720999 53.798597 311.765243 54.010336 Q 312.697527 58.561147 310.156658 62.214436 C 309.575165 63.048751 308.529111 63.990516 308.140396 64.707901 C 308.083511 64.815351 308.086671 64.941762 308.143556 65.046051 L 310.327313 68.993247 C 310.437923 69.192345 310.494808 69.416726 310.494808 69.641106 Q 310.497968 70.851495 310.637021 71.148562 Q 311.458695 72.880398 312.416261 74.909301 C 313.079921 76.309307 312.577436 77.649268 311.967501 79.200968 Q 311.825288 79.55492 311.559824 81.485854 Q 311.40181 82.633037 311.528221 83.811823 Q 311.790525 86.283166 312.432063 88.485885 Q 313.7341 92.941887 314.06909 93.950018 Q 315.238396 97.454774 314.897085 100.953209 Q 314.688506 103.095882 313.380148 105.023656 C 311.2912 108.101774 306.933167 109.372208 303.85821 106.638562 Q 302.028405 105.014175 301.31418 102.669244 Q 300.672642 100.564494 300.356614 98.244845 C 300.31237 97.925656 300.634719 97.685474 300.928625 97.815046 L 301.20041 97.935137 C 301.390027 98.020465 301.525919 98.200601 301.554362 98.406019 Q 301.873551 100.700386 302.53405 102.643962 Q 303.482136 105.431333 306.184179 106.818698 C 306.323232 106.888224 306.478086 106.926148 306.6361 106.926148 L 308.769292 106.926148 C 309.028436 106.926148 309.281259 106.84398 309.492998 106.695447 Q 312.441544 104.606498 312.770213 101.054338 Q 313.079921 97.657032 311.929577 94.029025 C 310.374717 89.124262 308.946268 85.556301 309.164328 81.100299 C 309.237015 79.614965 309.831148 78.069586 310.235665 76.710663 C 310.333633 76.381994 310.327313 76.031202 310.219863 75.705693 Q 309.309701 72.972046 307.612628 70.706122 Q 307.07538 69.988737 303.823446 67.232969 C 303.731798 67.153961 303.618028 67.103397 303.501097 67.081275 C 302.682584 66.935902 301.443752 67.340418 300.827496 67.558478 C 300.682123 67.612203 300.527269 67.643806 300.372415 67.653287 Q 299.503337 67.700691 298.157056 68.114688 C 298.005362 68.162092 297.87895 67.988277 297.973759 67.861865 C 298.166536 67.596401 298.830196 67.018069 298.893402 66.36073 Z" style="fill:#3d393e;"/>
		<path d="M 298.893402 66.36073 Q 298.839677 66.25328 298.669022 66.111067 Q 298.789113 66.047862 298.8776 66.057343 Q 299.038775 66.073144 299.016653 66.234319 Q 299.007172 66.313326 298.893402 66.36073 Z" style="fill:#664741;"/>
		<path d="M 216.549017 118.448547 Q 216.324637 118.252609 216.150821 118.243128 C 216.056013 118.236807 215.995967 118.337937 216.043372 118.420104 Q 216.14134 118.59392 216.403644 118.682408 L 216.896648 119.175412 Q 217.067304 119.668417 217.304325 119.431395 L 217.547667 119.415594 C 217.645636 119.409273 217.734124 119.475639 217.759406 119.570448 C 218.040672 120.746074 218.252411 121.855334 218.723293 122.964594 C 219.440678 124.652186 219.898919 126.007948 220.68267 127.629174 Q 223.176135 132.786759 223.928283 134.158323 Q 225.220839 136.515896 225.859217 137.953825 Q 225.982468 138.235091 226.156283 138.370983 C 226.368022 138.538478 226.684051 138.424708 226.763058 138.156084 Q 227.67638 135.068485 228.216789 132.01249 Q 228.902571 131.867117 229.534628 131.671179 Q 233.848417 130.337539 237.782972 128.188545 Q 239.366275 129.500063 241.496307 130.12896 Q 245.045307 131.175014 248.704917 130.103678 Q 251.116214 129.395774 252.832249 127.68606 Q 253.723449 128.637305 254.709458 129.503223 Q 256.109464 130.732574 256.630911 131.272983 Q 260.622351 135.412956 263.71943 140.270314 Q 264.278801 141.145713 265.179482 141.676641 Q 267.26211 146.353863 270.008397 150.721377 Q 272.432336 154.576924 275.861245 159.832478 C 275.921291 159.920966 276.009779 159.984172 276.114068 160.009454 Q 277.305495 160.290719 281.916351 161.29253 Q 287.393125 162.480797 294.310989 164.721439 C 294.415278 164.756202 294.529048 164.711958 294.582773 164.617149 C 295.230632 163.488928 295.252754 162.167929 295.464493 160.979662 C 295.98594 158.031116 295.903772 154.785503 295.622507 151.716866 C 295.571942 151.176458 295.353883 150.0988 295.309639 149.492026 Q 295.205349 148.092019 293.928594 143.632857 Q 293.5462 142.296057 292.367413 139.126291 Q 291.722715 137.391295 290.518647 134.727174 Q 287.633307 128.337078 285.980478 123.160531 Q 284.845935 119.611531 284.087467 114.912188 C 283.926292 113.913538 283.954735 112.949651 283.670309 111.865673 C 283.667149 111.856192 283.667149 111.843551 283.667149 111.83091 L 283.667149 104.638101 C 283.667149 104.62862 283.667149 104.6223 283.670309 104.612819 Q 283.986338 103.222294 283.989498 102.18888 C 283.989498 102.049828 284.01162 101.913936 284.059024 101.781204 Q 284.12223 101.597907 284.640517 99.167648 Q 285.800341 93.744599 289.355662 88.046605 C 289.589523 87.670531 290.136252 87.670531 290.370113 88.043445 L 291.352962 89.604626 C 291.593144 89.98386 291.5489 90.476864 291.248673 90.808694 Q 290.129932 92.041206 289.017511 94.724287 Q 286.950685 99.695416 286.536688 104.609659 Q 286.381834 106.414181 286.482963 111.407432 C 286.520886 113.262519 286.859037 114.744693 287.165584 116.694588 Q 287.832405 120.904088 289.66853 125.862575 Q 291.005331 129.46846 291.868088 131.323547 Q 293.625207 135.103248 295.148464 139.022002 Q 297.199489 144.309158 298.134934 149.820695 C 298.669022 152.98098 298.637419 156.906054 298.479405 159.51961 Q 298.432 160.328643 297.910553 163.236105 Q 297.572403 165.129116 297.411228 165.309252 C 297.344862 165.381938 297.341702 165.495709 297.408068 165.571556 Q 297.75886 165.969751 298.198139 166.156208 Q 302.682584 168.046059 308.791414 170.928239 C 309.07584 171.064131 309.148527 171.433884 308.936788 171.667745 Q 304.553472 176.506142 299.724557 180.690359 Q 297.502877 182.611812 294.573292 184.729203 Q 292.203079 186.445238 289.134442 188.373012 Q 288.293806 188.900779 284.747966 190.803271 Q 282.298746 192.114789 280.250881 193.01231 Q 272.223757 196.523386 264.029138 198.299467 Q 263.103175 198.501725 262.022357 198.681861 Q 260.701358 198.899921 260.672916 198.906241 Q 259.825959 199.155904 259.342436 199.165385 Q 258.868393 199.174865 256.852131 199.516176 Q 255.632261 199.724755 254.352346 199.835365 Q 250.974001 200.135592 245.396098 200.312568 C 243.629499 200.369453 241.53423 200.103989 239.827676 200.122951 C 238.351823 200.141913 237.21096 199.882769 235.6561 199.822724 Q 234.294017 199.772159 232.916133 199.506695 C 231.626737 199.257033 230.43847 199.215949 229.269164 198.991569 Q 224.370722 198.049804 223.773429 197.913912 Q 218.562119 196.725645 213.262321 194.756787 Q 194.205802 187.674589 180.600776 172.685357 C 180.414319 172.479938 180.524929 172.148109 180.796713 172.094384 Q 181.466694 171.964812 182.105071 171.550815 C 182.146155 171.525532 182.187239 171.50341 182.228323 171.487609 L 188.74167 168.747642 C 188.906005 168.678116 188.997653 168.50114 188.956569 168.327324 Q 188.330833 165.584197 187.894713 163.255067 Q 187.616608 161.782374 187.581845 161.099752 C 187.52812 160.034736 187.30374 159.336313 187.281618 158.201771 C 187.224733 155.329072 187.069879 151.369235 187.458594 148.054096 Q 187.562884 147.159735 187.793584 144.707354 Q 187.951599 143.0008 188.163338 141.641878 Q 188.390878 140.184987 188.450924 139.606654 Q 188.643701 137.792651 188.716388 137.56511 Q 188.823837 137.23012 189.370567 132.603463 Q 189.923616 127.907279 189.784564 124.743834 C 189.721358 123.25218 189.816167 122.449467 189.019775 121.504542 C 188.937607 121.409734 188.792234 121.397092 188.697426 121.47926 L 184.696505 124.816521 C 184.658582 124.848124 184.601697 124.844963 184.566933 124.8102 C 184.53217 124.775437 184.53217 124.718552 184.563773 124.680629 Q 186.036466 122.958273 187.986362 121.412894 C 188.242345 121.210636 188.210742 120.8156 187.929477 120.651265 L 186.428341 119.785347 C 186.222923 119.665256 185.96694 119.671577 185.764681 119.797988 L 179.336662 123.852634 C 179.301899 123.874756 179.254494 123.849474 179.254494 123.80839 L 179.254494 123.58717 C 179.254494 123.558727 179.270296 123.533445 179.292418 123.517644 L 185.19267 119.48196 C 185.552942 119.238618 185.575064 118.714011 185.236914 118.439066 L 184.475285 117.813329 C 184.190859 117.582629 183.805305 117.522583 183.467154 117.658475 L 175.629648 120.8156 C 175.594884 120.828241 175.553801 120.81244 175.537999 120.777677 L 175.503236 120.70499 C 175.496916 120.695509 175.500076 120.686028 175.509557 120.679708 Q 176.606176 120.025529 176.896922 119.902278 Q 180.246824 118.476989 183.337583 117.013777 C 183.558802 116.909488 183.63781 116.637703 183.505078 116.432285 Q 180.120412 111.214654 180.695584 105.080541 Q 181.002132 101.822287 182.076629 98.981191 C 182.146155 98.797895 182.155636 98.595637 182.098751 98.406019 Q 180.803034 93.848888 180.487006 88.814555 C 180.366915 86.931025 180.54073 85.809124 180.657661 83.751778 Q 180.711386 82.800532 180.961048 81.937775 C 181.071658 81.549059 181.523579 81.368923 181.874371 81.577502 Q 182.895143 82.184277 183.053157 82.282246 Q 188.479366 85.717475 192.221144 90.495826 C 192.707827 91.118402 193.282999 91.276417 193.987743 91.102601 Q 199.417112 89.7658 205.339486 91.153165 C 205.693438 91.235333 206.060031 91.102601 206.281251 90.818175 Q 210.544476 85.312959 216.887168 81.583823 C 217.237959 81.378404 217.68988 81.492174 217.901619 81.836645 Q 218.122839 82.196918 218.167083 82.810013 Q 218.410425 86.283166 218.23977 91.124723 C 218.192365 92.458363 217.721483 93.991101 217.57927 95.113002 C 217.481301 95.890433 217.193715 96.452963 216.91561 97.233554 C 216.880847 97.334683 216.833443 97.429491 216.773397 97.514819 Q 215.401834 99.556363 215.335468 99.654332 Q 215.237499 99.799705 214.69393 101.101742 Q 214.491672 101.588426 214.371581 102.62816 Q 213.973385 106.06023 217.111548 107.788905 Q 218.284014 108.433604 218.416746 108.490489 C 218.68853 108.607419 218.871827 108.869723 218.878147 109.16679 C 218.90975 110.509911 218.852865 111.483279 218.495753 112.658905 C 218.081755 114.027308 217.828933 115.142889 217.042022 116.530254 C 216.811321 116.93477 217.010419 117.446736 217.449698 117.59527 Q 217.892138 117.740643 218.255571 118.132518 C 218.321937 118.205205 218.413585 118.249449 218.511554 118.26209 Q 218.859185 118.312654 219.12781 118.647645 C 219.137291 118.660286 219.146771 118.669767 219.159413 118.676087 L 222.575681 120.648105 C 222.629405 120.679708 222.651527 120.742913 222.626245 120.799799 C 222.604123 120.856684 222.544078 120.885126 222.484032 120.869325 C 222.253331 120.806119 221.712923 120.679708 221.491703 120.502732 Q 221.087186 120.177222 220.726914 120.174062 C 220.211787 120.164581 219.819912 119.570448 219.178374 119.510402 C 219.077245 119.500921 218.982437 119.450357 218.916071 119.37451 Q 218.568439 118.976314 218.084916 119.15013 C 217.980626 119.188053 217.866856 119.188053 217.765727 119.15013 Q 217.13051 118.916269 216.549017 118.448547 Z M 189.680116 105.376376 C 188.85228 106.332014 189.013454 107.826829 190.040452 108.715627 C 191.06764 109.606069 192.568775 109.552344 193.396928 108.596011 C 194.224764 107.640372 194.06359 106.145557 193.036592 105.256759 C 192.009404 104.366317 190.508269 104.420042 189.680116 105.376376 Z M 208.291572 104.696061 C 207.071323 104.40424 205.835651 105.197472 205.534065 106.465915 C 205.232037 107.735181 205.977864 108.999295 207.197355 109.288966 C 208.417604 109.580787 209.653275 108.787555 209.954861 107.519112 C 210.25689 106.249847 209.511063 104.985733 208.291572 104.696061 Z M 197.874893 111.040839 C 197.467217 111.853032 197.06586 112.813759 197.7232 113.578547 C 198.655484 114.656205 200.485289 114.194803 201.632472 113.736562 Q 201.976943 113.600669 202.176041 113.199313 Q 202.378299 112.801117 202.283491 112.444005 C 201.964302 111.249417 201.240597 109.50494 199.821629 109.403811 C 198.816658 109.331124 198.28257 110.225485 197.874893 111.040839 Z M 191.84507 117.854413 Q 192.034687 117.996626 192.360196 118.028229 C 192.483447 118.03771 192.597217 118.088274 192.688866 118.173602 L 193.093382 118.555996 C 193.191351 118.650805 193.314602 118.720331 193.447334 118.755094 C 195.194972 119.235458 197.129066 119.545165 198.05503 117.873375 C 198.781895 116.565017 197.609429 115.190293 196.291591 115.360948 Q 194.878943 115.544245 192.831079 116.38172 C 192.720469 116.429125 192.619339 116.49549 192.537172 116.577658 Q 191.914596 117.200234 191.819787 117.342447 C 191.693376 117.522583 191.706017 117.746963 191.84507 117.854413 Z M 204.498851 119.04268 Q 206.316014 118.913108 207.744463 118.015588 C 207.902477 117.914458 207.956202 117.70904 207.864554 117.544705 Q 207.200894 116.362759 206.078993 116.166821 C 205.276281 115.907677 203.171531 115.130247 202.428864 115.465238 Q 201.338566 115.958242 201.218475 116.975854 Q 201.101544 117.990305 202.078072 118.666606 Q 203.086203 119.365029 204.498851 119.04268 Z M 219.9985 152.108963 C 219.990567 152.105581 219.977926 152.115062 219.970152 152.130074 C 219.962125 152.146665 219.962125 152.162466 219.969994 152.165406 C 219.977926 152.168787 219.990567 152.159306 219.998342 152.144295 C 220.006369 152.127703 220.006369 152.111902 219.9985 152.108963 Z M 215.068961 158.679796 C 215.03208 158.650532 214.80454 158.893873 214.565211 159.21932 C 214.324177 159.544892 214.159842 159.832478 214.198808 159.860099 C 214.235689 159.889363 214.463229 159.646021 214.702557 159.320575 C 214.943592 158.995003 215.107927 158.707417 215.068961 158.679796 Z" style="fill:#3d393e;"/>
		<path d="M 259.143338 87.980239 Q 260.002935 88.526969 261.178561 88.684983 Q 261.093234 89.083179 261.289171 89.187468 Q 263.438165 90.31569 264.215595 90.792893 C 267.755114 92.970329 270.871155 95.624969 273.25717 99.022275 Q 274.767787 101.174429 274.834153 102.792495 Q 274.957404 105.899055 271.974095 107.463396 Q 269.47747 108.768594 265.587159 109.583947 C 264.667516 109.776725 264.013337 110.064311 263.16006 110.095913 C 262.818749 110.108555 262.531163 110.351897 262.455316 110.683726 Q 260.27472 120.363679 261.854862 130.365981 Q 262.584888 134.986318 264.417853 139.676181 Q 264.800248 140.66219 265.179482 141.676641 Q 264.278801 141.145713 263.71943 140.270314 Q 260.622351 135.412956 256.630911 131.272983 Q 256.109464 130.732574 254.709458 129.503223 Q 253.723449 128.637305 252.832249 127.68606 Q 254.254377 126.222848 254.687336 124.949253 Q 255.581697 122.326216 254.51352 119.462998 Q 254.143767 118.480149 253.192521 117.070662 C 251.795675 115.013317 250.5126 113.243557 249.558193 111.28102 Q 248.29724 108.695907 247.507169 105.684156 C 247.295429 104.890924 247.222743 104.104013 246.998363 103.187531 Q 246.865631 102.637641 246.691815 101.29452 Q 246.378947 98.85478 245.945988 97.043937 Q 245.841698 96.607817 245.52251 96.275987 C 245.326572 96.070569 244.997902 96.064248 244.776682 96.260186 Q 244.470135 96.52881 244.356364 96.964929 Q 243.920245 98.6304 243.569453 101.202872 Q 243.392478 102.495428 243.247104 103.108523 Q 242.968999 104.271508 242.826787 104.995214 Q 242.172608 108.27875 240.320681 111.840391 C 239.517968 113.38261 238.253854 115.183972 237.302608 116.504971 Q 235.845717 118.521233 235.352713 120.1551 Q 234.006431 124.592141 237.782972 128.188545 Q 233.848417 130.337539 229.534628 131.671179 Q 228.902571 131.867117 228.216789 132.01249 Q 228.978418 127.13301 228.959456 122.206125 C 228.953136 120.180383 228.687672 118.205205 228.637107 116.27111 C 228.633947 116.132058 228.611825 115.996165 228.577062 115.863433 Q 228.346361 114.997515 228.330559 113.625952 C 228.330559 113.60383 228.327399 113.584868 228.324239 113.562746 L 227.685861 110.630002 C 227.622656 110.339255 227.376153 110.127516 227.079087 110.108555 C 225.833934 110.029547 224.753117 109.489139 223.640697 109.381689 Q 223.315187 109.350086 222.215408 108.929768 C 222.104798 108.888685 221.994188 108.853921 221.880418 108.828639 Q 218.3567 108.016446 216.539536 106.161359 C 215.600932 105.203792 215.114248 103.544643 215.518764 102.135156 Q 215.613573 101.809646 215.768427 101.010094 C 215.80635 100.814157 215.875876 100.624539 215.977006 100.453884 Q 216.760756 99.104442 217.083105 98.624079 Q 217.525545 97.960419 219.364831 95.912555 Q 220.493053 94.654761 221.959425 93.513898 C 224.854246 91.254295 227.847036 89.3202 231.269624 88.31839 C 233.004621 87.812744 233.959027 88.675502 235.469643 89.76264 C 235.561291 89.829006 235.671901 89.860609 235.785672 89.854288 Q 236.370324 89.829006 237.353173 89.54142 Q 238.007352 89.348643 238.923835 89.234872 Q 243.582095 88.666021 248.224553 88.953607 Q 251.201542 89.136904 253.837219 89.825846 C 254.267018 89.939616 254.72842 89.822685 255.057089 89.519298 Q 256.586667 88.106651 258.694577 88.195139 Q 258.855752 88.20462 259.143338 87.980239 Z M 237.311994 101.865362 C 236.787482 100.776233 235.447521 100.333793 234.317624 100.87594 C 233.187917 101.420931 232.698073 102.74193 233.222775 103.833398 C 233.747288 104.922527 235.087249 105.364967 236.217145 104.82282 C 237.346852 104.277829 237.836697 102.95683 237.311994 101.865362 Z M 257.256648 102.915746 C 257.256648 101.705357 256.273799 100.722508 255.06341 100.722508 C 253.853021 100.722508 252.870172 101.705357 252.870172 102.915746 C 252.870172 104.126135 253.853021 105.108984 255.06341 105.108984 C 256.273799 105.108984 257.256648 104.126135 257.256648 102.915746 Z" style="fill:#664741;"/>
		<path d="M 216.549017 118.448547 L 216.403644 118.682408 Q 216.14134 118.59392 216.043372 118.420104 C 215.995967 118.337937 216.056013 118.236807 216.150821 118.243128 Q 216.324637 118.252609 216.549017 118.448547 Z" style="fill:#664741;"/>
		<path d="M 217.304325 119.431395 Q 217.067304 119.668417 216.896648 119.175412 Q 217.060983 119.169092 217.304325 119.431395 Z" style="fill:#664741;"/>
		<path d="M 237.311994 101.865362 C 237.836697 102.95683 237.346852 104.277829 236.217145 104.82282 C 235.087249 105.364967 233.747288 104.922527 233.222775 103.833398 C 232.698073 102.74193 233.187917 101.420931 234.317624 100.87594 C 235.447521 100.333793 236.787482 100.776233 237.311994 101.865362 Z" style="fill:#3d393e;"/>
		<path d="M 257.256648 102.915746 C 257.256648 104.126135 256.273799 105.108984 255.06341 105.108984 C 253.853021 105.108984 252.870172 104.126135 252.870172 102.915746 C 252.870172 101.705357 253.853021 100.722508 255.06341 100.722508 C 256.273799 100.722508 257.256648 101.705357 257.256648 102.915746 Z" style="fill:#3d393e;"/>
		<path d="M 204.498851 119.04268 Q 205.178312 118.909948 205.731362 118.518073 C 205.797728 118.470669 205.873575 118.435905 205.955742 118.420104 L 206.764775 118.243128 C 206.8185 118.230487 206.853263 118.183083 206.850103 118.129358 C 206.846942 118.075633 206.805859 118.031389 206.752134 118.025068 Q 206.341297 117.977664 205.958902 118.107236 C 205.908338 118.123037 205.857773 118.132518 205.804048 118.132518 L 204.505171 118.135678 L 206.906988 117.693238 C 206.998636 117.677437 207.065002 117.59843 207.065002 117.503621 Q 207.058681 116.93161 206.537234 116.669306 Q 206.407663 116.523933 206.233847 116.568177 Q 205.965223 116.637703 205.943101 116.549215 Q 205.911498 116.432285 206.078993 116.166821 Q 207.200894 116.362759 207.864554 117.544705 C 207.956202 117.70904 207.902477 117.914458 207.744463 118.015588 Q 206.316014 118.913108 204.498851 119.04268 Z" style="fill:#664741;"/>
		<path d="M 204.707429 116.81784 Q 204.783276 117.133868 205.165671 117.054861 Q 205.402692 117.004296 205.456417 116.767275 Q 205.946261 116.59662 206.537234 116.669306 Q 207.058681 116.93161 207.065002 117.503621 C 207.065002 117.59843 206.998636 117.677437 206.906988 117.693238 L 204.505171 118.135678 Q 203.879435 118.271571 203.222095 117.680597 C 203.143088 117.614231 203.095684 117.519423 203.079883 117.418294 C 202.947151 116.438605 204.072212 116.236347 204.707429 116.81784 Z" style="fill:#3d393e;"/>
		<path d="M 205.456417 116.767275 Q 205.402692 117.004296 205.165671 117.054861 Q 204.783276 117.133868 204.707429 116.81784 L 205.456417 116.767275 Z" style="fill:#664741;"/>
		<path d="M 245.114833 128.441368 L 245.095871 128.441368 C 244.934697 128.431887 244.805125 128.299155 244.795644 128.13798 L 244.580745 124.731193 C 244.561783 124.443607 244.362685 124.200265 244.08458 124.124418 Q 242.987961 123.824191 241.897663 123.040441 Q 239.900363 121.602511 241.110752 119.390312 C 241.161316 119.301824 241.227682 119.222816 241.30985 119.162771 Q 242.103081 118.578118 242.725657 118.391661 C 244.997902 117.696399 248.458414 117.882856 249.668803 120.294153 C 249.722528 120.398442 249.747811 120.515373 249.74149 120.632303 Q 249.653002 122.288293 248.230874 123.084685 Q 247.1943 123.663017 247.131095 123.723062 C 247.026805 123.821031 246.897234 123.887397 246.758181 123.912679 Q 245.667883 124.099136 245.620478 125.271602 Q 245.569914 126.529395 245.509868 128.065294 C 245.500388 128.277033 245.326572 128.444528 245.114833 128.441368 Z" style="fill:#3d393e;"/>
		<path d="M 219.9985 152.108963 C 220.006369 152.111902 220.006369 152.127703 219.998342 152.144295 C 219.990567 152.159306 219.977926 152.168787 219.969994 152.165406 C 219.962125 152.162466 219.962125 152.146665 219.970152 152.130074 C 219.977926 152.115062 219.990567 152.105581 219.9985 152.108963 Z" style="fill:#664741;"/>
		<path d="M 215.068961 158.679796 C 215.107927 158.707417 214.943592 158.995003 214.702557 159.320575 C 214.463229 159.646021 214.235689 159.889363 214.198808 159.860099 C 214.159842 159.832478 214.324177 159.544892 214.565211 159.21932 C 214.80454 158.893873 215.03208 158.650532 215.068961 158.679796 Z" style="fill:#664741;"/>
		<path d="M 192.521371 117.228677 Q 193.29248 116.261629 194.231085 116.757794 C 194.901065 117.114906 195.583687 115.71806 196.566535 116.966373 C 196.636062 117.054861 196.648703 117.174952 196.601298 117.276081 Q 196.225225 118.081954 195.270819 118.214686 C 195.236055 118.217846 195.201292 118.217846 195.166529 118.211525 L 192.663583 117.636353 C 192.480287 117.59527 192.40444 117.37405 192.521371 117.228677 Z" style="fill:#3d393e;"/>
	</g>
	<g id="surface4">
	</g>
</svg>
