<?xml version="1.0" encoding="utf-8"?>
<svg xmlns="http://www.w3.org/2000/svg" width="490pt" height="280pt" viewBox="0 0 490 280" version="1.1" xmlns:xlink="http://www.w3.org/1999/xlink">
	<g id="surface2" data-size="65.736370308409 148" data-bboxpos="212 53.738395387247" data-pivot="244.8681851542 127.73839538725" data-center="244.8681851542 127.73839538725">
		<path d="M 232.083286 81.875201 C 232.083286 81.372205 231.553206 81.248391 231.127594 81.248391 Q 215.399305 81.256129 214.31593 81.25226 C 214.184377 81.25226 214.052824 81.225176 213.92901 81.174876 C 212.389069 80.520982 212.017626 79.522729 212.013757 77.800936 Q 211.982804 69.331262 212.021496 56.613209 C 212.029234 53.993762 214.126339 53.734526 216.397558 53.738395 Q 243.118237 53.773218 274.559338 53.750003 Q 276.385599 53.750003 277.198131 54.995885 Q 277.751426 55.847108 277.735949 57.920998 Q 277.708865 60.911888 277.608266 78.439353 Q 277.596658 80.544197 275.333177 81.221307 C 275.267401 81.240653 275.197755 81.25226 275.12811 81.25226 L 257.902442 81.25226 C 257.530999 81.25226 257.229201 81.554058 257.229201 81.925501 L 257.229201 95.208456 C 257.229201 95.390309 257.198248 95.568292 257.132471 95.738536 C 256.579176 97.21657 255.352641 98.005886 253.828177 99.135692 Q 252.826054 99.874709 251.970962 100.339012 C 250.806333 100.969692 249.823557 101.712578 248.581545 102.381949 C 247.215718 103.120966 246.070435 104.007012 244.723954 104.668645 C 243.996545 105.020742 243.288482 105.581775 242.52625 106.026733 Q 237.283487 109.095007 232.555328 112.101373 C 232.245792 112.298702 231.831788 112.209711 231.630589 111.900175 L 229.475446 108.576534 C 229.440624 108.526235 229.421278 108.472066 229.40967 108.414028 Q 229.131088 106.939864 230.094518 105.581775 C 231.011518 104.289463 232.083286 103.6317 232.079416 101.778354 Q 232.071678 92.44198 232.083286 81.875201 Z" style="fill:#595a5b;"/>
		<path d="M 256.389585 105.960957 C 256.811328 105.852619 257.252417 106.018995 257.500045 106.37883 Q 258.308708 107.555066 258.703366 108.054193 Q 258.796226 108.174138 259.032248 109.22269 C 259.059332 109.342635 259.063201 109.46645 259.036117 109.590264 C 258.533121 112.101373 256.347024 114.140441 254.319565 115.583651 C 252.667417 116.763757 249.405684 118.520372 247.037735 120.060313 C 245.888583 120.807068 244.685262 121.433878 243.59028 122.103249 Q 235.271504 127.175768 232.501159 128.785354 Q 231.758273 129.214835 231.247539 128.448734 C 230.690374 127.620725 229.324548 125.91054 229.405801 124.892941 C 229.529615 123.314308 231.727319 121.170773 232.934509 120.222819 Q 235.747416 118.021246 238.776998 116.31106 Q 242.321183 114.310685 242.379221 114.237171 Q 242.448866 114.140441 248.272009 110.712331 Q 253.828177 107.442859 255.898197 106.131201 C 255.971712 106.084771 256.049096 106.049948 256.130349 106.030602 L 256.389585 105.960957 Z" style="fill:#595a5b;"/>
		<path d="M 256.617868 122.966081 C 256.877104 122.931258 257.136341 123.051203 257.279501 123.271747 L 259.094155 126.073046 C 259.159931 126.173645 259.190885 126.29746 259.171539 126.417405 Q 258.92391 128.046337 258.571813 128.533856 Q 256.049096 132.023872 252.609379 133.896564 Q 250.597397 134.991547 249.61462 135.649311 Q 247.985688 136.740424 246.658553 137.48331 Q 245.702861 138.01726 237.99155 142.656428 Q 235.87123 143.933263 235.751285 143.971955 Q 235.333412 144.111246 232.93064 145.945246 Q 232.083286 146.595271 231.537729 145.910423 Q 230.226071 144.266014 229.579915 142.807326 C 228.987927 141.476322 230.883834 139.309572 231.700235 138.524124 Q 234.753032 135.583534 237.631715 133.919779 Q 244.561448 129.91516 255.816944 123.089895 C 255.844029 123.074418 255.871113 123.06281 255.898197 123.058941 L 256.617868 122.966081 Z" style="fill:#595a5b;"/>
		<path d="M 256.308332 140.245917 C 256.4631 140.18401 256.641083 140.222702 256.75329 140.346517 C 257.937265 141.611744 259.337914 143.004655 259.11737 144.676149 C 258.865872 146.579794 256.5134 148.847144 255.058581 149.992426 C 254.315696 150.576675 253.073683 151.482068 252.044476 152.09727 Q 249.223831 153.772633 248.674405 154.132468 Q 246.546347 155.52151 245.315942 156.179274 Q 245.165043 156.260527 241.233938 158.636214 Q 241.133339 158.698121 237.298964 160.980948 Q 234.462842 162.671787 232.764264 163.909931 C 232.381214 164.188513 231.847265 164.10726 231.564813 163.728078 Q 230.694244 162.559581 230.009396 161.317568 C 229.626345 160.621112 229.21621 160.265146 229.541223 159.382969 Q 230.13321 157.761775 231.270754 156.570062 Q 233.727695 154.000915 235.592648 152.77051 Q 237.538854 151.485937 237.918036 151.238308 Q 240.06544 149.826051 250.713472 143.623727 Q 251.959354 142.900187 253.491556 141.898065 Q 255.54997 140.555453 256.308332 140.245917 Z" style="fill:#595a5b;"/>
		<path d="M 231.673151 181.789493 L 229.618607 178.62062 C 229.347763 178.202747 229.309071 177.676536 229.518008 177.227709 C 230.558822 174.960359 232.636581 173.107013 234.783986 171.404566 Q 237.136458 169.543482 242.472081 166.32431 Q 242.62298 166.231449 251.777502 160.857134 Q 252.593903 160.377353 253.410303 159.936264 C 254.307957 159.456484 255.01602 158.79872 255.987189 158.373109 C 256.281248 158.241556 256.625607 158.307332 256.853889 158.531746 Q 258.540859 160.187762 259.090285 162.188138 C 259.109631 162.261652 259.109631 162.339036 259.090285 162.412551 L 258.707235 163.933146 C 258.691758 163.991184 258.668543 164.049222 258.63372 164.099521 C 256.737813 167.074934 254.00616 169.214601 250.995924 170.971216 Q 248.956857 172.15906 246.496047 173.7996 C 246.407055 173.861507 246.310326 173.915676 246.205857 173.962106 C 245.060575 174.492186 243.957853 175.262157 243.129845 175.734199 Q 237.817437 178.779257 232.760395 182.021645 C 232.392821 182.257666 231.909172 182.153198 231.673151 181.789493 Z" style="fill:#595a5b;"/>
		<path d="M 247.068688 196.446014 C 247.44787 196.662689 247.556207 197.161815 247.304709 197.521651 L 244.573056 201.406325 C 244.30995 201.781638 243.77987 201.851283 243.427773 201.553355 L 233.932762 193.486078 C 233.650311 193.250057 233.545842 192.863137 233.665787 192.514909 Q 234.110745 191.234205 235.035483 190.324943 Q 238.854382 186.575691 242.909301 184.161311 Q 246.848144 181.820447 250.667042 179.541489 Q 252.99243 178.156316 255.089535 176.724713 Q 256.281248 175.912182 257.058957 177.011034 Q 258.614374 179.212607 258.742058 179.498928 Q 259.187015 180.504919 258.745927 181.329059 C 257.867619 182.973468 256.439885 184.21548 254.756784 185.689644 Q 253.66567 186.645336 251.382844 188.022771 Q 246.631469 190.889846 243.195621 192.983082 C 242.731318 193.265533 242.739056 193.946512 243.211098 194.217356 L 247.068688 196.446014 Z" style="fill:#595a5b;"/>
	</g>
	<g id="surface4">
	</g>
</svg>
