<?xml version="1.0" encoding="utf-8"?>
<svg xmlns="http://www.w3.org/2000/svg" width="490pt" height="280pt" viewBox="0 0 490 280" version="1.1" xmlns:xlink="http://www.w3.org/1999/xlink">
	<g id="surface2" data-size="245.69759946357 148" data-bboxpos="122 56.297854356368" data-pivot="244.84879973179 130.29785435637" data-center="244.84879973179 130.29785435637">
		<path d="M 209.940422 71.241699 Q 212.010291 70.562041 213.657948 70.397275 C 213.8845 70.37153 214.105904 70.330339 214.322159 70.263403 Q 216.906921 69.465319 219.40415 69.238766 C 219.862405 69.197575 220.207383 68.801107 220.181638 68.342853 L 219.69249 59.522741 C 219.656448 58.889423 220.001426 58.297296 220.567808 58.014105 Q 222.972357 56.798958 225.515927 57.149085 Q 226.190436 57.241766 227.245966 58.410572 C 227.292307 58.462062 227.318051 58.523849 227.3232 58.585636 L 227.781455 66.937196 C 227.812348 67.462386 228.260305 67.864003 228.785496 67.833109 L 239.546753 67.235834 C 239.99471 67.210089 240.349986 66.834217 240.344837 66.386261 Q 240.334539 63.84784 240.107986 59.136571 Q 239.989561 56.778363 242.157259 56.448831 C 243.892448 56.186236 246.163125 56.150193 247.635718 57.236617 C 247.91376 57.442574 248.078526 57.766957 248.078526 58.117084 L 248.078526 66.401707 C 248.078526 66.808473 248.39261 67.143153 248.794227 67.168898 L 259.493697 67.905194 C 259.972547 67.941237 260.379313 67.560216 260.384462 67.076217 Q 260.446249 60.037633 260.538929 59.280741 Q 260.67795 58.127381 261.676842 57.303553 C 261.826161 57.17483 262.011523 57.102745 262.207182 57.092447 C 264.189519 56.994617 269.060404 56.608448 268.571256 60.176654 C 268.427086 61.237333 268.200533 62.16414 268.16964 63.024011 Q 267.984278 67.730131 267.953385 68.162641 C 267.907044 68.481874 268.11815 68.780512 268.432235 68.842299 L 279.281024 71.040891 C 279.58996 71.102678 279.888598 70.891572 279.934938 70.582636 C 280.058512 69.743361 279.92464 68.682682 280.146044 68.008173 Q 280.496171 66.932047 280.59915 63.487415 Q 280.624894 62.586352 281.448723 61.469035 C 281.55685 61.324865 281.716467 61.221887 281.89153 61.190993 C 283.889314 60.809973 286.257821 60.954142 287.94152 62.467927 C 288.08569 62.59665 288.168073 62.776863 288.183519 62.967373 C 288.291647 64.754051 287.890031 66.144261 287.720116 67.694088 Q 287.287606 71.679358 287.210372 72.230293 Q 287.009564 73.625652 287.982711 74.145694 Q 292.49832 76.570839 295.896612 78.862111 Q 296.607164 79.340961 296.323973 80.216279 C 296.272484 80.375896 296.143761 80.49947 295.978995 80.540661 C 294.357083 80.957725 292.004023 80.236875 290.09892 79.794067 C 289.965048 79.763173 289.831176 79.747727 289.697304 79.742578 L 288.075392 79.711684 C 287.395734 79.696237 286.819054 80.195683 286.726373 80.865044 Q 286.278416 84.201549 286.159991 87.502011 Q 286.129098 88.495754 285.645098 89.335029 Q 285.279525 89.968347 283.925357 90.071326 Q 280.779362 90.308176 279.358258 88.984902 C 279.234684 88.871626 279.131706 88.742902 279.049323 88.598732 Q 278.925748 88.37218 278.900004 87.048905 Q 278.817621 82.862828 279.414896 80.205981 C 279.775321 78.604665 278.956642 78.105219 277.561283 77.868368 Q 272.896355 77.080582 271.351677 76.766498 Q 270.002658 76.493605 268.133597 76.560541 C 267.865853 76.570839 267.649598 76.792242 267.649598 77.059987 Q 267.654747 81.215171 267.54147 85.112909 C 267.443641 88.444265 262.675734 87.589543 260.719142 86.878991 C 260.533781 86.812055 260.379313 86.688481 260.276334 86.528864 Q 259.81808 85.844056 259.843824 84.464144 Q 259.921058 79.83011 260.1991 76.570839 C 260.235143 76.117733 259.895314 75.721266 259.442208 75.690372 L 249.293673 74.995267 C 248.660354 74.948927 248.119717 75.453521 248.119717 76.086839 Q 248.093972 84.062528 248.109419 84.350868 Q 248.171206 85.354908 247.748994 85.761674 C 246.42572 87.043756 245.787253 86.909884 243.943937 86.909884 C 241.657813 86.909884 240.648624 85.957333 240.607432 83.702103 Q 240.540496 79.943386 240.545645 76.452413 C 240.545645 75.479266 239.953519 75.005565 238.975222 75.098245 Q 233.867487 75.60284 229.223154 75.623436 C 228.7649 75.628585 228.404475 76.009606 228.43022 76.46786 L 228.924517 85.44244 C 228.960559 86.024269 228.661921 86.580353 228.157326 86.868693 C 226.005075 88.109584 221.309253 88.629626 221.309253 84.623761 Q 221.309253 81.549851 220.809807 77.209306 C 220.763467 76.843732 220.454531 76.56569 220.083809 76.570839 Q 218.024238 76.581136 216.062496 77.126923 C 214.116202 77.66756 212.118418 77.677858 210.069145 78.306027 C 209.497614 78.481091 209.126892 79.037175 209.193828 79.63445 Q 209.389487 81.467468 209.930124 85.231334 Q 209.99706 85.68444 209.981613 88.428818 C 209.981613 88.572988 209.924975 88.70686 209.827146 88.80469 L 208.843701 89.788135 C 208.771616 89.855071 208.684084 89.896262 208.586254 89.90656 C 206.490641 90.143411 203.195327 90.77158 202.767967 88.578137 Q 202.283967 86.06546 202.263372 83.413763 C 202.263372 83.207806 202.242776 83.001849 202.196436 82.80104 L 201.691841 80.540661 C 201.583713 80.041216 201.115161 79.701386 200.605417 79.752876 Q 197.335848 80.092705 195.255682 80.540661 Q 194.416407 80.715725 193.34543 80.5973 C 192.603984 80.514917 192.325942 79.58811 192.892324 79.10926 Q 193.839727 78.311176 194.962193 77.688156 Q 199.946354 74.93348 201.048225 74.171439 C 202.103755 73.44544 201.563118 72.698845 201.393203 71.772038 Q 200.770183 68.481874 200.682651 67.138004 C 200.584821 65.603624 199.307887 62.98282 201.182097 61.953034 Q 203.483667 60.691547 206.104471 61.268227 C 207.000385 61.463886 207.674894 62.210481 207.783022 63.121841 L 208.632595 70.407573 C 208.70468 71.035742 209.337998 71.442507 209.940422 71.241699 Z" style="fill:#6e6e6f;"/>
		<path d="M 192.222964 68.955575 L 192.253857 69.032809 C 192.681218 70.103786 192.23841 71.329231 191.224072 71.880166 Q 184.484126 75.541053 181.662514 77.791134 C 178.861498 80.025769 179.082902 82.306743 179.077753 86.276566 Q 178.94388 153.094194 179.154986 178.952107 C 179.175582 181.341209 182.254641 182.731419 184.710679 183.92597 Q 204.204517 193.436039 225.232736 196.659267 C 227.642434 197.024841 229.758643 197.17416 232.281617 197.426457 Q 245.653381 198.775476 256.16749 197.596372 Q 259.91076 197.17416 260.286632 197.153564 C 263.309052 196.978501 265.075134 196.515097 268.679383 195.922971 Q 271.57308 195.449269 275.393584 194.450377 Q 276.66022 194.115697 277.880516 193.899442 C 279.286173 193.652294 280.259321 193.075614 281.525957 192.915997 C 282.56604 192.782125 283.338379 192.205445 284.383611 191.999488 Q 285.114759 191.850169 286.093055 191.51034 Q 289.965048 190.156172 293.21917 188.977068 C 295.201507 188.261367 297.199291 187.154348 298.83665 186.706391 Q 299.645031 186.484987 307.744294 182.607845 Q 310.318757 181.377251 310.334204 178.432065 Q 310.596799 120.295528 310.323906 82.239807 Q 310.323906 81.910276 309.772971 80.082407 C 309.690588 79.809514 309.546418 79.557216 309.350759 79.351259 Q 307.553784 77.420412 306.5137 76.730455 Q 303.604556 74.799608 298.177587 71.674209 C 297.199291 71.112976 296.828568 69.882382 297.338312 68.873192 L 297.379503 68.801107 C 297.8738 67.817662 299.068352 67.416046 300.056946 67.900045 Q 328.237024 81.709468 348.091287 102.263985 Q 356.489187 110.960523 363.368154 121.119357 Q 365.870533 124.816286 367.389466 128.240323 Q 367.883763 129.352491 367.585125 132.18955 Q 367.42036 133.806313 366.282447 135.958565 Q 363.414494 141.385534 361.411562 144.135061 Q 347.051204 163.829708 326.352517 177.824492 Q 318.016404 183.462567 311.209522 187.128603 Q 301.797283 192.205445 292.488023 195.547099 Q 282.957358 198.976284 274.090906 200.958621 Q 273.01478 201.200621 266.403558 202.40547 Q 262.577905 203.100575 258.644124 203.450702 Q 252.460263 204.001637 250.637542 204.135509 Q 245.99321 204.47019 239.572498 204.114914 Q 235.056889 203.867765 230.325025 203.373468 C 227.42103 203.069682 224.738439 202.601129 222.560443 202.333385 Q 220.485425 202.075939 219.471086 201.859684 Q 215.305604 200.953472 212.066929 200.227474 Q 210.57374 199.892793 209.842592 199.609602 C 208.807658 199.213135 207.829362 199.192539 206.83047 198.883604 Q 193.716153 194.857143 183.490383 189.826641 Q 181.219706 188.709324 176.034737 185.815627 Q 172.435637 183.807545 168.810792 181.428741 Q 160.907189 176.254069 155.310305 171.949566 C 144.286452 163.469283 133.978299 152.718323 126.244611 141.158981 Q 124.679337 138.821368 123.114063 135.665076 C 121.224407 131.865168 121.893767 128.73462 123.953338 124.981052 Q 126.579291 120.177103 130.56971 114.992133 C 143.421432 98.294162 159.923743 84.541378 178.305413 73.811014 Q 181.847875 71.741145 189.658798 67.956683 C 190.642243 67.477833 191.821347 67.941237 192.222964 68.955575 Z M 327.3926 92.316258 Q 327.310217 92.522215 327.315366 93.083448 Q 327.428642 108.813421 327.552217 115.48643 C 327.87145 132.997932 327.433791 157.19274 327.29477 167.356723 Q 327.284472 168.180551 327.505876 168.844763 C 327.593408 169.102209 327.902344 169.205187 328.128897 169.055869 Q 329.792 167.928254 331.393316 166.641022 Q 343.99789 156.502784 353.899277 144.09387 Q 358.023568 138.924347 361.128371 133.559165 Q 362.080922 131.916657 362.106667 130.732404 C 362.111816 130.55734 362.070624 130.387425 361.99854 130.232958 Q 360.65467 127.421643 358.785609 124.728755 Q 353.487363 117.098044 347.421927 110.476524 Q 338.061177 100.245606 328.041365 92.146343 C 327.82511 91.97128 327.495578 92.053663 327.3926 92.316258 Z M 161.792804 169.153698 C 162.132633 169.220634 162.441569 168.942592 162.410675 168.597614 Q 162.153229 165.796598 162.142931 163.366304 C 162.055399 147.5488 161.561102 133.152399 161.854591 119.008296 Q 162.039953 110.007972 162.178974 98.01612 C 162.199569 96.347868 162.559994 94.314042 162.426122 92.686981 C 162.400377 92.398641 162.075995 92.249322 161.844293 92.414088 Q 158.765235 94.612679 156.535749 96.553825 Q 147.432446 104.488322 140.687352 112.242606 Q 132.310047 121.8711 128.391713 128.662535 C 127.521545 130.171171 127.135375 131.339977 128.000395 132.848613 Q 131.877537 139.583409 137.592846 146.3491 Q 148.482827 159.236864 161.226422 168.916848 Q 161.452975 169.091911 161.792804 169.153698 Z" style="fill:#6e6e6f;"/>
	</g>
	<g id="surface4">
	</g>
</svg>
