<?xml version="1.0" encoding="utf-8"?>
<svg xmlns="http://www.w3.org/2000/svg" width="490pt" height="280pt" viewBox="0 0 490 280" version="1.1" xmlns:xlink="http://www.w3.org/1999/xlink">
	<g id="surface2" data-size="125.82124217809 148" data-bboxpos="182 56.294851232448" data-pivot="244.91062108905 130.29485123245" data-center="244.91062108905 130.29485123245">
		<path d="M 258.801814 56.644791 C 258.879025 56.655086 258.935647 56.722002 258.9305 56.794066 C 258.9305 56.871277 258.873878 56.933047 258.796666 56.938194 Q 255.739096 57.149238 252.923454 57.530148 Q 250.864484 57.813256 249.876178 58.122102 C 248.51211 58.549338 247.209811 58.616255 245.799417 58.986869 Q 223.77873 64.793165 210.08143 82.767976 Q 208.459991 84.89901 206.287778 88.615451 C 204.537653 91.606106 203.317713 94.39601 202.16469 97.438139 Q 199.688778 103.949632 199.009318 108.438187 Q 198.602671 111.130291 198.252646 113.287062 Q 197.835705 115.865922 197.753346 118.161674 Q 197.248898 131.539833 200.882981 143.425239 Q 208.012165 166.763667 227.592972 181.269112 Q 232.41611 184.841426 237.887824 187.528382 Q 243.946344 190.503594 249.109211 192.001495 Q 251.327752 192.644923 257.041394 193.782504 Q 260.582823 194.487701 265.112558 194.564913 Q 273.173426 194.703893 276.900162 194.353868 C 278.233346 194.23033 280.750437 193.664113 282.392465 193.396447 C 283.859482 193.159666 285.218402 192.526532 286.474374 192.423584 C 286.706008 192.402994 286.937642 192.361815 287.158982 192.294898 C 293.109406 190.529331 299.17822 188.305643 304.269024 185.026733 Q 306.487565 183.595749 307.367775 183.13248 C 307.49646 183.065564 307.650883 183.111891 307.722947 183.235429 L 307.800158 183.364115 C 307.841338 183.436179 307.820748 183.523685 307.758979 183.575159 Q 299.044387 190.43153 296.367726 192.068411 Q 286.685418 197.998246 276.014805 201.282303 Q 272.004961 202.517685 266.466331 203.423632 Q 255.867781 205.158315 244.37358 203.439074 Q 237.012761 202.337525 230.249044 199.686601 Q 206.519412 190.380056 193.414066 169.368264 C 188.704172 161.816991 185.219365 152.937682 183.592778 144.439282 Q 183.258196 142.694305 182.63021 138.859473 Q 182.275037 136.687259 182.280185 135.009198 C 182.280185 133.511297 181.961044 131.74573 182.002224 129.872068 C 182.053698 127.231438 182.187531 122.382563 182.753748 118.923493 Q 185.301724 103.331941 192.971388 91.070773 Q 205.948048 70.321501 229.147495 61.133346 Q 233.229403 59.517054 238.67538 58.029448 Q 240.317408 57.576475 242.391821 57.427199 C 243.961786 57.313956 245.681026 56.716855 247.33335 56.567579 Q 253.577177 55.98592 258.801814 56.644791 Z" style="fill:#0f528e;"/>
	</g>
	<g id="surface4">
	</g>
</svg>
