<?xml version="1.0" encoding="utf-8"?>
<svg xmlns="http://www.w3.org/2000/svg" width="490pt" height="280pt" viewBox="0 0 490 280" version="1.1" xmlns:xlink="http://www.w3.org/1999/xlink">
	<g id="surface2" data-size="369.39375007024 148" data-bboxpos="60.5 55.082236595134" data-pivot="245.19687503512 129.08223659513" data-center="245.19687503512 129.08223659513">
		<path vector-effect="non-scaling-stroke" d="M 104.027591 55.125511 Q 104.331846 60.275139 104.068461 66.151346 Q 104.000344 67.74982 104.304599 69.7797" style="fill:none;stroke-width:0.50;stroke:#a3d5d7;"/>
		<path vector-effect="non-scaling-stroke" d="M 104.304599 69.7797 L 81.549055 69.875063 C 81.353787 69.879604 81.199389 70.034002 81.199389 70.22927 L 81.199389 74.543333 C 81.199389 75.092808 81.644419 75.542379 82.193894 75.537838 L 104.944897 75.524214" style="fill:none;stroke-width:0.50;stroke:#55809b;"/>
		<path vector-effect="non-scaling-stroke" d="M 104.944897 75.524214 C 104.254647 77.994583 104.254647 80.537609 104.200153 83.462089" style="fill:none;stroke-width:0.50;stroke:#a3d5d7;"/>
		<path vector-effect="non-scaling-stroke" d="M 104.200153 83.462089 Q 96.039764 83.498418 79.528257 83.398513 Q 79.155886 83.398513 79.024193 83.216869" style="fill:none;stroke-width:0.50;stroke:#55809b;"/>
		<path vector-effect="non-scaling-stroke" d="M 147.054687 75.515132 L 125.797712 75.50605" style="fill:none;stroke-width:0.50;stroke:#728892;"/>
		<path vector-effect="non-scaling-stroke" d="M 125.797712 75.50605 L 104.944897 75.524214" style="fill:none;stroke-width:0.50;stroke:#628397;"/>
		<path vector-effect="non-scaling-stroke" d="M 124.807748 55.12097 C 125.734136 59.294257 124.766878 64.012479 125.488916 69.611678 C 125.50708 69.738829 125.616067 69.834193 125.743218 69.834193 L 135.520246 69.856899" style="fill:none;stroke-width:0.50;stroke:#c0ddcd;"/>
		<path vector-effect="non-scaling-stroke" d="M 135.520246 69.856899 L 104.304599 69.7797" style="fill:none;stroke-width:0.50;stroke:#628397;"/>
		<path vector-effect="non-scaling-stroke" d="M 146.977488 89.133946 L 124.539822 89.143028" style="fill:none;stroke-width:0.50;stroke:#728892;"/>
		<path vector-effect="non-scaling-stroke" d="M 124.539822 89.143028 Q 102.40187 89.002253 79.310284 89.165734 Q 79.069605 89.165734 79.015111 89.347378" style="fill:none;stroke-width:0.50;stroke:#55809b;"/>
		<path vector-effect="non-scaling-stroke" d="M 125.797712 75.50605 Q 124.862241 79.32513 125.116544 83.421219" style="fill:none;stroke-width:0.50;stroke:#c0ddcd;"/>
		<path vector-effect="non-scaling-stroke" d="M 125.116544 83.421219 L 104.200153 83.462089" style="fill:none;stroke-width:0.50;stroke:#628397;"/>
		<path vector-effect="non-scaling-stroke" d="M 146.98657 55.248121 Q 146.827631 56.26079 146.814007 57.282542 Q 146.732267 63.599238 147.031981 69.856899" style="fill:none;stroke-width:0.50;stroke:#e0e5c3;"/>
		<path vector-effect="non-scaling-stroke" d="M 147.031981 69.856899 L 135.520246 69.856899" style="fill:none;stroke-width:0.50;stroke:#728892;"/>
		<path vector-effect="non-scaling-stroke" d="M 204.427175 55.229957 Q 204.726889 55.28445 204.999356 55.220874" style="fill:none;stroke-width:0.50;stroke:#d1e1c8;"/>
		<path vector-effect="non-scaling-stroke" d="M 271.926357 75.456097 L 271.908193 76.287122" style="fill:none;stroke-width:0.50;stroke:#d1e1c8;"/>
		<path stroke-opacity="0.667" vector-effect="non-scaling-stroke" d="M 271.980851 95.096434 L 272.257859 113.406223 C 272.257859 113.424387 272.276024 113.43347 272.285106 113.424387 Q 272.294188 113.415305 272.30327 113.401682 C 272.307811 113.3926 272.321435 113.388059 272.321435 113.397141 Q 272.248777 114.682277 272.09892 126.221259 Q 271.994474 134.031982 271.939981 136.225342 C 271.912734 137.383328 272.053509 138.613971 272.085297 139.808285" style="fill:none;stroke-width:0.50;stroke:#f1eac9;"/>
		<path vector-effect="non-scaling-stroke" d="M 272.085297 139.808285 L 272.153413 141.69739" style="fill:none;stroke-width:0.50;stroke:#d1e1c8;"/>
		<path vector-effect="non-scaling-stroke" d="M 272.153413 141.69739 L 272.135249 144.249498" style="fill:none;stroke-width:0.50;stroke:#e0e5c3;"/>
		<path vector-effect="non-scaling-stroke" d="M 272.135249 144.249498 Q 272.167037 143.899832 272.103461 143.690941 C 272.044427 143.500214 271.767418 143.532002 271.753795 143.731811 L 271.308765 150.770544 C 271.281519 151.229197 270.900065 151.583405 270.441412 151.583405 L 146.868501 151.760508" style="fill:none;stroke-width:0.50;stroke:#f8f4df;"/>
		<path vector-effect="non-scaling-stroke" d="M 146.868501 151.760508 Q 146.614198 143.014314 147.072851 134.422518" style="fill:none;stroke-width:0.50;stroke:#e0e5c3;"/>
		<path vector-effect="non-scaling-stroke" d="M 147.072851 134.422518 Q 197.075105 134.417977 246.532424 134.399813 C 249.347917 134.399813 250.306093 134.286285 250.387833 131.239195 Q 250.460491 128.605346 247.554176 128.609887 Q 197.211338 128.655298 146.86396 128.618969" style="fill:none;stroke-width:0.50;stroke:#838c8d;"/>
		<path vector-effect="non-scaling-stroke" d="M 146.86396 128.618969 L 146.90483 117.266174 C 146.90483 117.166269 146.982029 117.084529 147.081933 117.079988 L 150.619464 116.875637" style="fill:none;stroke-width:0.50;stroke:#e0e5c3;"/>
		<path vector-effect="non-scaling-stroke" d="M 150.619464 116.875637 Q 170.364247 116.961919 190.109029 116.939213 Q 190.92643 116.939213 191.639386 116.367032 C 191.771078 116.258045 191.870983 116.108188 191.916394 115.944708 Q 192.415917 114.146425 192.011758 111.912195 C 191.848277 111.003971 191.062664 110.581647 190.222557 110.577106 Q 168.684033 110.431791 146.877583 110.622517" style="fill:none;stroke-width:0.50;stroke:#838c8d;"/>
		<path vector-effect="non-scaling-stroke" d="M 146.877583 110.622517 L 146.432553 102.43034" style="fill:none;stroke-width:0.50;stroke:#e0e5c3;"/>
		<path vector-effect="non-scaling-stroke" d="M 146.432553 102.43034 Q 185.9312 102.43034 225.756808 102.43034 Q 227.609584 102.43034 227.700406 102.416717 C 229.535018 102.094297 229.407867 100.92723 229.448737 99.419579 C 229.530477 96.231714 228.331622 96.254419 225.756808 96.254419 Q 186.489758 96.317995 147.145509 96.317995" style="fill:none;stroke-width:0.50;stroke:#838c8d;"/>
		<path vector-effect="non-scaling-stroke" d="M 147.145509 96.317995 Q 146.446177 92.816793 146.977488 89.133946" style="fill:none;stroke-width:0.50;stroke:#e0e5c3;"/>
		<path vector-effect="non-scaling-stroke" d="M 146.977488 89.133946 Q 167.948372 89.120322 188.978291 89.129405 Q 190.726621 89.129405 191.180733 88.852396 C 192.424999 88.09403 192.461328 85.514674 191.943641 84.574663 Q 191.257932 83.334938 189.881973 83.339479 Q 168.325285 83.421219 146.754973 83.416678" style="fill:none;stroke-width:0.50;stroke:#838c8d;"/>
		<path vector-effect="non-scaling-stroke" d="M 146.754973 83.416678 L 147.054687 75.515132" style="fill:none;stroke-width:0.50;stroke:#e0e5c3;"/>
		<path vector-effect="non-scaling-stroke" d="M 147.054687 75.515132 L 233.599319 75.510591 C 234.189664 75.510591 234.725516 75.165466 234.961655 74.625073 C 235.688233 72.994811 235.720021 69.816028 233.136125 69.82057 Q 190.263427 69.897769 147.031981 69.856899" style="fill:none;stroke-width:0.50;stroke:#838c8d;"/>
		<path vector-effect="non-scaling-stroke" d="M 146.754973 83.416678 L 125.116544 83.421219" style="fill:none;stroke-width:0.50;stroke:#728892;"/>
		<path vector-effect="non-scaling-stroke" d="M 147.145509 96.317995 L 125.402635 96.308913" style="fill:none;stroke-width:0.50;stroke:#728892;"/>
		<path vector-effect="non-scaling-stroke" d="M 124.539822 89.143028 Q 124.557987 92.553408 125.402635 96.308913" style="fill:none;stroke-width:0.50;stroke:#b2d9d2;"/>
		<path vector-effect="non-scaling-stroke" d="M 125.402635 96.308913 L 79.596374 96.277125" style="fill:none;stroke-width:0.50;stroke:#55809b;"/>
		<path vector-effect="non-scaling-stroke" d="M 79.596374 96.277125 L 77.289486 95.995575" style="fill:none;stroke-width:0.50;stroke:#c79290;"/>
		<path vector-effect="non-scaling-stroke" d="M 77.289486 95.995575 Q 78.061476 95.995575 77.829879 95.786684" style="fill:none;stroke-width:0.50;stroke:#b2d9d2;"/>
		<path stroke-opacity="0.667" vector-effect="non-scaling-stroke" d="M 276.626415 101.94444 L 276.408441 120.558484" style="fill:none;stroke-width:0.50;stroke:#f1eac9;"/>
		<path stroke-opacity="0.667" vector-effect="non-scaling-stroke" d="M 276.408441 120.558484 Q 276.285831 120.612978 276.36303 120.871821" style="fill:none;stroke-width:0.50;stroke:#4b5e7e;"/>
		<path stroke-opacity="0.667" vector-effect="non-scaling-stroke" d="M 276.36303 120.871821 L 276.353948 121.584777" style="fill:none;stroke-width:0.50;stroke:#f1eac9;"/>
		<path stroke-opacity="0.667" vector-effect="non-scaling-stroke" d="M 276.353948 121.584777 L 276.344866 122.229616" style="fill:none;stroke-width:0.50;stroke:#4b5e7e;"/>
		<path stroke-opacity="0.667" vector-effect="non-scaling-stroke" d="M 276.344866 122.229616 Q 276.344866 122.306815 276.349407 122.379473" style="fill:none;stroke-width:0.50;stroke:#f1eac9;"/>
		<path stroke-opacity="0.667" vector-effect="non-scaling-stroke" d="M 276.349407 122.379473 L 276.344866 122.683728" style="fill:none;stroke-width:0.50;stroke:#4b5e7e;"/>
		<path stroke-opacity="0.667" vector-effect="non-scaling-stroke" d="M 276.344866 122.683728 Q 276.344866 122.760927 276.344866 122.833585" style="fill:none;stroke-width:0.50;stroke:#f1eac9;"/>
		<path stroke-opacity="0.667" vector-effect="non-scaling-stroke" d="M 276.344866 122.833585 L 276.344866 124.500175" style="fill:none;stroke-width:0.50;stroke:#4b5e7e;"/>
		<path stroke-opacity="0.667" vector-effect="non-scaling-stroke" d="M 276.344866 124.500175 Q 276.349407 124.577374 276.349407 124.650032" style="fill:none;stroke-width:0.50;stroke:#f1eac9;"/>
		<path stroke-opacity="0.667" vector-effect="non-scaling-stroke" d="M 276.349407 124.650032 Q 276.32216 124.799889 276.344866 124.954287" style="fill:none;stroke-width:0.50;stroke:#4b5e7e;"/>
		<path stroke-opacity="0.667" vector-effect="non-scaling-stroke" d="M 276.344866 124.954287 Q 276.349407 125.031486 276.349407 125.104144" style="fill:none;stroke-width:0.50;stroke:#f1eac9;"/>
		<path stroke-opacity="0.667" vector-effect="non-scaling-stroke" d="M 276.349407 125.104144 L 276.344866 125.408399" style="fill:none;stroke-width:0.50;stroke:#4b5e7e;"/>
		<path stroke-opacity="0.667" vector-effect="non-scaling-stroke" d="M 276.344866 125.408399 Q 276.344866 125.485598 276.349407 125.558256" style="fill:none;stroke-width:0.50;stroke:#f1eac9;"/>
		<path stroke-opacity="0.667" vector-effect="non-scaling-stroke" d="M 276.349407 125.558256 L 276.340324 125.862511" style="fill:none;stroke-width:0.50;stroke:#4b5e7e;"/>
		<path stroke-opacity="0.667" vector-effect="non-scaling-stroke" d="M 276.340324 125.862511 L 276.340324 126.807063" style="fill:none;stroke-width:0.50;stroke:#f1eac9;"/>
		<path stroke-opacity="0.667" vector-effect="non-scaling-stroke" d="M 276.340324 126.807063 L 276.317619 127.710746" style="fill:none;stroke-width:0.50;stroke:#4b5e7e;"/>
		<path stroke-opacity="0.667" vector-effect="non-scaling-stroke" d="M 276.317619 127.710746 L 276.195009 139.367796" style="fill:none;stroke-width:0.50;stroke:#f1eac9;"/>
		<path stroke-opacity="0.667" vector-effect="non-scaling-stroke" d="M 276.195009 139.367796 Q 275.359443 140.203362 274.255951 140.412254" style="fill:none;stroke-width:0.50;stroke:#c0ded8;"/>
		<path stroke-opacity="0.667" vector-effect="non-scaling-stroke" d="M 274.255951 140.412254 Q 274.242328 140.321431 274.215081 140.23515 Q 274.237787 140.321431 274.255951 140.412254" style="fill:none;stroke-width:0.50;stroke:#acd8de;"/>
		<path stroke-opacity="0.667" vector-effect="non-scaling-stroke" d="M 274.255951 140.412254 Q 273.097966 140.639309 272.085297 139.808285" style="fill:none;stroke-width:0.50;stroke:#c0ded8;"/>
		<path vector-effect="non-scaling-stroke" d="M 272.253318 149.503572 L 273.211494 158.980886 C 273.216035 159.030839 273.184247 159.07625 273.134295 159.085332 L 273.129754 159.085332 C 273.079802 159.094414 273.029849 159.058085 273.020767 159.008133 Q 272.403175 155.538719 271.980851 152.032975 Q 271.871864 151.133834 272.130708 148.736123 Q 272.375928 146.506434 272.135249 144.249498" style="fill:none;stroke-width:0.50;stroke:#e7f0e4;"/>
		<path vector-effect="non-scaling-stroke" d="M 272.675642 161.746427 Q 272.380469 162.441218 273.256905 163.66732 C 273.270529 163.690026 273.411303 163.803554 273.592948 163.944329 Q 273.915367 164.189549 273.620195 164.947916" style="fill:none;stroke-width:0.50;stroke:#cae8ed;"/>
		<path vector-effect="non-scaling-stroke" d="M 273.620195 164.947916 Q 273.6429 164.698154 273.588407 164.55738 C 273.538454 164.421146 273.338645 164.452934 273.334104 164.59825 L 273.243282 169.266519" style="fill:none;stroke-width:0.50;stroke:#f8f4df;"/>
		<path vector-effect="non-scaling-stroke" d="M 273.243282 169.266519 Q 273.229658 166.823398 273.202412 164.375735 Q 273.188788 163.190503 272.112543 162.681898" style="fill:none;stroke-width:0.50;stroke:#8a97ad;"/>
		<path vector-effect="non-scaling-stroke" d="M 272.112543 162.681898 L 272.30327 161.496666" style="fill:none;stroke-width:0.50;stroke:#e7f0e4;"/>
		<path vector-effect="non-scaling-stroke" d="M 272.30327 161.496666 Q 273.007144 159.802829 272.848205 158.803783 Q 272.216989 154.780352 271.862782 151.542534 C 271.858241 151.488041 271.808288 151.451712 271.753795 151.456253 L 271.749254 151.456253 C 271.69476 151.465335 271.658432 151.510747 271.662973 151.56524 Q 271.971769 155.207217 272.444045 158.840112 Q 272.530326 159.489491 272.30327 161.496666" style="fill:none;stroke-width:0.50;stroke:#e7f0e4;"/>
		<path vector-effect="non-scaling-stroke" d="M 272.30327 161.496666 Q 272.035344 162.050682 271.980851 162.631945" style="fill:none;stroke-width:0.50;stroke:#e7f0e4;"/>
		<path vector-effect="non-scaling-stroke" d="M 271.980851 162.631945 C 267.87568 162.413972 263.148376 162.536582 259.71529 162.536582 Q 218.318456 162.550205 185.340855 162.536582 Q 183.606148 162.536582 181.240225 162.65011 C 180.995005 162.659192 180.758867 162.713685 180.536352 162.81359 L 178.810727 163.558333" style="fill:none;stroke-width:0.50;stroke:#8a97ad;"/>
		<path vector-effect="non-scaling-stroke" d="M 173.647475 165.052361 Q 172.262434 163.903458 170.886475 162.804508 C 165.101091 158.186191 157.998782 156.442401 150.710287 157.645797 C 145.401719 158.526774 141.441864 160.883615 137.436598 164.244042 Q 137.332152 164.330324 137.086932 164.339406" style="fill:none;stroke-width:0.50;stroke:#8a97ad;"/>
		<path vector-effect="non-scaling-stroke" d="M 137.086932 164.339406 Q 136.923452 164.343947 136.855335 164.303077" style="fill:none;stroke-width:0.50;stroke:#cae8ed;"/>
		<path vector-effect="non-scaling-stroke" d="M 135.511164 164.402981 L 134.934442 164.416605" style="fill:none;stroke-width:0.50;stroke:#8a97ad;"/>
		<path vector-effect="non-scaling-stroke" d="M 134.934442 164.416605 Q 134.698304 164.334865 134.462166 164.421146" style="fill:none;stroke-width:0.50;stroke:#d8ece9;"/>
		<path vector-effect="non-scaling-stroke" d="M 134.462166 164.421146 Q 134.266897 164.375735 134.144287 164.448393" style="fill:none;stroke-width:0.50;stroke:#8a97ad;"/>
		<path vector-effect="non-scaling-stroke" d="M 131.119902 163.94887 L 129.793896 162.809049 C 129.68945 162.718227 129.553217 162.663733 129.412442 162.659192 Q 126.324482 162.541123 125.171037 162.541123 Q 101.284755 162.5275 79.98691 162.504794 Q 78.774432 162.504794 78.043312 163.571957" style="fill:none;stroke-width:0.50;stroke:#8a97ad;"/>
		<path vector-effect="non-scaling-stroke" d="M 147.072851 134.422518 L 125.8295 134.436142" style="fill:none;stroke-width:0.50;stroke:#728892;"/>
		<path vector-effect="non-scaling-stroke" d="M 125.8295 134.436142 L 105.498913 134.417977" style="fill:none;stroke-width:0.50;stroke:#628397;"/>
		<path vector-effect="non-scaling-stroke" d="M 146.877583 110.622517 L 122.010419 110.558942" style="fill:none;stroke-width:0.50;stroke:#728892;"/>
		<path vector-effect="non-scaling-stroke" d="M 146.86396 128.618969 L 124.989393 128.628052" style="fill:none;stroke-width:0.50;stroke:#728892;"/>
		<path vector-effect="non-scaling-stroke" d="M 146.432553 102.43034 L 139.457396 102.453046" style="fill:none;stroke-width:0.50;stroke:#728892;"/>
		<path vector-effect="non-scaling-stroke" d="M 139.457396 102.453046 L 79.569128 102.493916" style="fill:none;stroke-width:0.50;stroke:#55809b;"/>
		<path vector-effect="non-scaling-stroke" d="M 202.615269 55.216333 L 201.593517 55.225415" style="fill:none;stroke-width:0.50;stroke:#d1e1c8;"/>
		<path vector-effect="non-scaling-stroke" d="M 146.868501 151.760508 L 125.034804 151.683309" style="fill:none;stroke-width:0.50;stroke:#e7f0e4;"/>
		<path vector-effect="non-scaling-stroke" d="M 150.619464 116.875637 L 127.691358 116.902884" style="fill:none;stroke-width:0.50;stroke:#728892;"/>
		<path vector-effect="non-scaling-stroke" d="M 127.691358 116.902884 L 109.145431 116.961919" style="fill:none;stroke-width:0.50;stroke:#628397;"/>
		<path vector-effect="non-scaling-stroke" d="M 109.145431 116.961919 Q 94.845449 116.84385 80.55455 116.939213 Q 79.955123 116.943754 79.396565 117.116317" style="fill:none;stroke-width:0.50;stroke:#55809b;"/>
		<path vector-effect="non-scaling-stroke" d="M 276.299454 169.588939 Q 276.126892 169.611644 276.008823 169.548069 C 275.881672 169.475411 275.881672 169.343718 275.87713 169.216567 Q 275.854425 169.684302 275.872589 170.152037 C 275.87713 170.197448 275.83626 170.238319 275.786308 170.238319 C 275.740897 170.233777 275.704568 170.197448 275.704568 170.147496 L 275.659157 168.748832 C 275.659157 168.744291 275.659157 168.744291 275.663698 168.744291 L 275.668239 168.739749 C 275.67278 168.739749 275.681862 168.744291 275.681862 168.753373 Q 275.700027 168.857819 275.709109 168.90323 C 275.71365 168.916853 275.722732 168.925935 275.736356 168.925935 C 275.749979 168.921394 275.759061 168.912312 275.759061 168.898689 L 275.563793 166.87335 C 275.559252 166.818856 275.5093 166.777986 275.454806 166.782527 L 275.450265 166.782527 C 275.400313 166.805233 275.363984 166.855185 275.368525 166.909679 L 275.436642 167.963218 C 275.445724 168.13124 275.332196 168.276555 275.164175 168.303802 C 275.000695 168.331049 274.846297 168.226603 274.800885 168.067664 L 274.632864 167.445531" style="fill:none;stroke-width:0.50;stroke:#c0ddcd;"/>
		<path vector-effect="non-scaling-stroke" d="M 274.632864 167.445531 Q 274.605617 167.368332 274.578371 167.291133" style="fill:none;stroke-width:0.50;stroke:#a3d5d7;"/>
		<path vector-effect="non-scaling-stroke" d="M 274.578371 167.291133 Q 274.719145 167.054995 274.678275 166.746199 Q 274.673734 166.728034 274.664652 166.714411 C 274.65557 166.700787 274.637405 166.714411 274.637405 166.732575 Q 274.632864 167.023207 274.578371 167.291133" style="fill:none;stroke-width:0.50;stroke:#d1e1c8;"/>
		<path vector-effect="non-scaling-stroke" d="M 274.578371 167.291133 L 274.242328 167.272968 C 274.119718 167.268427 274.024354 167.163981 274.033436 167.041371 Q 274.078848 166.414697 274.582912 165.842516 C 274.660111 165.760776 274.796344 165.810728 274.796344 165.924256 L 274.796344 166.34658 C 274.796344 166.405615 274.841755 166.451026 274.896249 166.460108 C 274.955283 166.464649 275.005236 166.423779 275.018859 166.369286 Q 275.22775 165.32937 275.209586 165.215842 C 275.209586 165.202218 275.191422 165.202218 275.18688 165.215842 Q 275.164175 165.302123 275.118764 165.342993 C 275.096058 165.361157 275.055188 165.352075 275.046106 165.324829 L 274.074306 163.004317 C 274.010731 162.859001 273.915367 162.736391 273.792757 162.636486 L 272.675642 161.746427" style="fill:none;stroke-width:0.50;stroke:#a3d5d7;"/>
		<path vector-effect="non-scaling-stroke" d="M 272.675642 161.746427 L 273.733723 161.337727 C 273.865415 161.283233 273.938073 161.147 273.910826 161.006225 Q 273.452173 158.735666 273.379515 156.419696 Q 273.552078 158.962722 273.297775 161.287774 C 273.288693 161.346809 273.238741 161.387679 273.184247 161.383138 L 273.179706 161.383138 C 273.11613 161.378597 273.070719 161.324103 273.07526 161.260528 Q 273.370433 157.010041 272.589361 152.818589 C 272.407716 151.851331 272.398634 150.597982 272.253318 149.503572" style="fill:none;stroke-width:0.50;stroke:#d8ece9;"/>
		<path vector-effect="non-scaling-stroke" d="M 272.253318 149.503572 Q 273.542996 145.557341 272.153413 141.69739" style="fill:none;stroke-width:0.50;stroke:#c0ddcd;"/>
		<path vector-effect="non-scaling-stroke" d="M 77.289486 95.995575 Q 70.877427 96.317995 64.438121 95.854801" style="fill:none;stroke-width:0.50;stroke:#e49a86;"/>
		<path vector-effect="non-scaling-stroke" d="M 79.596374 96.277125 Q 79.074146 99.306051 79.569128 102.493916" style="fill:none;stroke-width:0.50;stroke:#864150;"/>
		<path vector-effect="non-scaling-stroke" d="M 79.569128 102.493916 L 62.022246 102.434881" style="fill:none;stroke-width:0.50;stroke:#c79290;"/>
		<path vector-effect="non-scaling-stroke" d="M 332.9272 66.192216 Q 311.125291 66.146805 289.341546 66.196757 C 286.485183 66.205839 284.418974 65.847091 284.423515 69.230224 Q 284.514337 111.912195 284.455303 162.200539 C 284.455303 162.309526 284.369022 162.395807 284.260035 162.400348 L 277.148644 162.454842" style="fill:none;stroke-width:0.50;stroke:#8a694c;"/>
		<path vector-effect="non-scaling-stroke" d="M 277.148644 162.454842 Q 276.871635 162.341314 276.885259 161.646523" style="fill:none;stroke-width:0.50;stroke:#d8be87;"/>
		<path vector-effect="non-scaling-stroke" d="M 276.885259 161.646523 L 276.626415 101.94444" style="fill:none;stroke-width:0.50;stroke:#f8c77d;"/>
		<path stroke-opacity="0.667" vector-effect="non-scaling-stroke" d="M 276.626415 101.94444 L 276.549216 96.222631" style="fill:none;stroke-width:0.50;stroke:#fcb767;"/>
		<path vector-effect="non-scaling-stroke" d="M 276.562839 96.040987 L 276.562839 95.700403" style="fill:none;stroke-width:0.50;stroke:#8a694c;"/>
		<path vector-effect="non-scaling-stroke" d="M 276.558298 95.132763 L 276.558298 93.997483" style="fill:none;stroke-width:0.50;stroke:#8a694c;"/>
		<path vector-effect="non-scaling-stroke" d="M 276.885259 161.646523 Q 276.817142 161.964401 276.712696 162.068847 C 276.630956 162.150587 276.48564 162.096093 276.48564 161.978024 Q 276.458394 159.911815 276.562839 156.873807 Q 276.581004 156.419696 276.467476 155.988289 C 276.435688 155.87022 276.422065 155.743069 276.426606 155.620459 Q 276.649121 150.084836 276.499264 149.153906 Q 275.818096 144.839844 275.908918 144.05423 Q 276.185926 141.715554 276.195009 139.367796" style="fill:none;stroke-width:0.50;stroke:#d1e1c8;"/>
		<path vector-effect="non-scaling-stroke" d="M 276.317619 127.710746 L 276.340324 126.807063" style="fill:none;stroke-width:0.50;stroke:#838c8d;"/>
		<path vector-effect="non-scaling-stroke" d="M 276.340324 125.862511 L 276.349407 125.558256" style="fill:none;stroke-width:0.50;stroke:#838c8d;"/>
		<path vector-effect="non-scaling-stroke" d="M 276.344866 125.408399 L 276.349407 125.104144" style="fill:none;stroke-width:0.50;stroke:#838c8d;"/>
		<path vector-effect="non-scaling-stroke" d="M 276.344866 124.954287 L 276.349407 124.650032" style="fill:none;stroke-width:0.50;stroke:#838c8d;"/>
		<path vector-effect="non-scaling-stroke" d="M 276.344866 124.500175 L 276.344866 122.833585" style="fill:none;stroke-width:0.50;stroke:#838c8d;"/>
		<path vector-effect="non-scaling-stroke" d="M 276.344866 122.683728 L 276.349407 122.379473" style="fill:none;stroke-width:0.50;stroke:#838c8d;"/>
		<path vector-effect="non-scaling-stroke" d="M 276.344866 122.229616 L 276.353948 121.584777" style="fill:none;stroke-width:0.50;stroke:#838c8d;"/>
		<path vector-effect="non-scaling-stroke" d="M 276.36303 120.871821 Q 276.317619 120.608437 276.408441 120.558484" style="fill:none;stroke-width:0.50;stroke:#838c8d;"/>
		<path vector-effect="non-scaling-stroke" d="M 125.8295 134.436142 Q 125.284565 136.470563 125.248236 138.586724 Q 125.130167 145.166804 125.034804 151.683309" style="fill:none;stroke-width:0.50;stroke:#c0ddcd;"/>
		<path vector-effect="non-scaling-stroke" d="M 125.034804 151.683309 L 104.577066 151.755967" style="fill:none;stroke-width:0.50;stroke:#d8ece9;"/>
		<path vector-effect="non-scaling-stroke" d="M 273.243282 169.266519 L 273.302316 172.000272" style="fill:none;stroke-width:0.50;stroke:#838c8d;"/>
		<path stroke-opacity="0.667" vector-effect="non-scaling-stroke" d="M 273.302316 172.000272 Q 273.320481 171.95032 273.343186 171.900368" style="fill:none;stroke-width:0.50;stroke:#4b5e7e;"/>
		<path vector-effect="non-scaling-stroke" d="M 273.343186 171.900368 Q 273.079802 173.035647 273.379515 174.275373" style="fill:none;stroke-width:0.50;stroke:#628397;"/>
		<path vector-effect="non-scaling-stroke" d="M 103.868652 128.637134 L 82.089448 128.596264 C 81.712535 128.596264 81.403739 128.886895 81.376493 129.263808 Q 81.267506 130.925857 81.317458 132.973902 Q 81.349246 134.490635 83.1112 134.454306 Q 87.784011 134.363484 105.498913 134.417977" style="fill:none;stroke-width:0.50;stroke:#55809b;"/>
		<path vector-effect="non-scaling-stroke" d="M 105.498913 134.417977 Q 104.495326 136.461481 104.404504 139.399584 Q 104.181989 146.760737 104.577066 151.755967" style="fill:none;stroke-width:0.50;stroke:#a3d5d7;"/>
		<path vector-effect="non-scaling-stroke" d="M 104.577066 151.755967 L 79.378401 151.778673" style="fill:none;stroke-width:0.50;stroke:#cae8ed;"/>
		<path vector-effect="non-scaling-stroke" d="M 134.934442 164.416605 Q 134.934442 164.430228 134.934442 164.443852" style="fill:none;stroke-width:0.50;stroke:#628397;"/>
		<path vector-effect="non-scaling-stroke" d="M 136.723642 164.975162 L 137.086932 164.339406" style="fill:none;stroke-width:0.50;stroke:#55809b;"/>
		<path vector-effect="non-scaling-stroke" d="M 274.632864 167.445531 L 274.546583 167.636258" style="fill:none;stroke-width:0.50;stroke:#b2d9d2;"/>
		<path vector-effect="non-scaling-stroke" d="M 274.546583 167.636258 L 274.401267 168.449118 C 274.378561 168.589893 274.233246 168.680715 274.097012 168.639845 Q 273.774593 168.558105 273.751887 168.085828" style="fill:none;stroke-width:0.50;stroke:#a3d5d7;"/>
		<path vector-effect="non-scaling-stroke" d="M 273.751887 168.085828 L 273.620195 164.947916" style="fill:none;stroke-width:0.50;stroke:#c3ddcd;"/>
		<path vector-effect="non-scaling-stroke" d="M 272.112543 162.681898 Q 272.048968 162.659192 271.980851 162.631945" style="fill:none;stroke-width:0.50;stroke:#728892;"/>
		<path vector-effect="non-scaling-stroke" d="M 273.751887 168.085828 Q 273.629277 168.898689 273.829086 169.402753" style="fill:none;stroke-width:0.50;stroke:#d1e1c8;"/>
		<path stroke-opacity="0.667" vector-effect="non-scaling-stroke" d="M 273.829086 169.402753 Q 273.788216 169.865947 273.892662 170.097544" style="fill:none;stroke-width:0.50;stroke:#f1eac9;"/>
		<path vector-effect="non-scaling-stroke" d="M 273.892662 170.097544 Q 273.770052 170.247401 273.688311 170.524409" style="fill:none;stroke-width:0.50;stroke:#d1e1c8;"/>
		<path stroke-opacity="0.667" vector-effect="non-scaling-stroke" d="M 273.688311 170.524409 Q 273.68377 171.273693 273.302316 172.000272" style="fill:none;stroke-width:0.50;stroke:#f1eac9;"/>
		<path vector-effect="non-scaling-stroke" d="M 134.462166 164.421146 Q 134.462166 164.430228 134.462166 164.43931" style="fill:none;stroke-width:0.50;stroke:#628397;"/>
		<path vector-effect="non-scaling-stroke" d="M 127.691358 116.902884 Q 125.393552 117.770238 125.26186 120.295099 Q 125.048427 124.391188 124.989393 128.628052" style="fill:none;stroke-width:0.50;stroke:#c0ddcd;"/>
		<path vector-effect="non-scaling-stroke" d="M 124.989393 128.628052 L 103.868652 128.637134" style="fill:none;stroke-width:0.50;stroke:#628397;"/>
		<path vector-effect="non-scaling-stroke" d="M 103.868652 128.637134 L 104.418127 117.879225 C 104.427209 117.720285 104.304599 117.584052 104.14566 117.570428 L 100.485518 117.338831 C 100.449189 117.338831 100.421943 117.307044 100.421943 117.270715 C 100.421943 117.234386 100.449189 117.202598 100.485518 117.202598 L 109.145431 116.961919" style="fill:none;stroke-width:0.50;stroke:#a3d5d7;"/>
		<path vector-effect="non-scaling-stroke" d="M 139.457396 102.453046 L 125.616067 102.525704 C 125.375388 102.525704 125.166496 102.702807 125.134709 102.943486 Q 124.93944 104.328528 124.757796 106.172222 C 124.471705 109.037667 122.151194 109.573519 119.871552 110.345509 C 119.848847 110.354592 119.853388 110.386379 119.876094 110.386379 L 122.010419 110.558942" style="fill:none;stroke-width:0.50;stroke:#b2d9d2;"/>
		<path vector-effect="non-scaling-stroke" d="M 122.010419 110.558942 L 79.555504 110.513531" style="fill:none;stroke-width:0.50;stroke:#55809b;"/>
		<path vector-effect="non-scaling-stroke" d="M 79.555504 110.513531 Q 70.659453 110.200193 63.856858 110.272851 Q 63.221102 110.277393 63.01221 109.954973" style="fill:none;stroke-width:0.50;stroke:#c79290;"/>
		<path stroke-opacity="0.667" vector-effect="non-scaling-stroke" d="M 63.01221 109.954973 Q 65.473496 109.573519 67.934782 109.973138" style="fill:none;stroke-width:0.50;stroke:#acd8de;"/>
		<path vector-effect="non-scaling-stroke" d="M 67.934782 109.973138 L 71.036366 109.973138" style="fill:none;stroke-width:0.50;stroke:#a3d5d7;"/>
		<path stroke-opacity="0.667" vector-effect="non-scaling-stroke" d="M 71.036366 109.973138 Q 74.533027 109.809657 78.061476 109.959514 Q 79.151345 110.004925 79.142262 108.910516 Q 79.105933 105.468348 79.137721 103.611031 C 79.142262 103.32494 78.942453 103.075179 78.660904 103.020685 C 77.552871 102.807253 76.631024 102.698266 75.504827 102.870829 Q 73.4477 103.188707 71.676664 103.111508 Q 70.486891 103.057014 68.997404 103.093343 Q 67.80309 103.125131 66.309062 103.184166 C 66.172829 103.188707 66.036595 103.152378 65.923067 103.075179 Q 65.864033 103.03885 65.859491 103.034309 C 65.723258 102.948028 65.559778 102.911699 65.400838 102.934404 C 64.261018 103.093343 63.29376 103.329482 62.176644 102.611985" style="fill:none;stroke-width:0.50;stroke:#acd8de;"/>
		<path vector-effect="non-scaling-stroke" d="M 79.555504 110.513531 L 79.323907 116.998248" style="fill:none;stroke-width:0.50;stroke:#864150;"/>
		<path stroke-opacity="0.667" vector-effect="non-scaling-stroke" d="M 276.263125 169.911358 Q 276.167762 170.424504 276.422065 170.637937" style="fill:none;stroke-width:0.50;stroke:#d7e4d0;"/>
		<path stroke-opacity="0.667" vector-effect="non-scaling-stroke" d="M 275.046106 172.181917 Q 275.018859 171.968485 274.932578 171.859498" style="fill:none;stroke-width:0.50;stroke:#d7e4d0;"/>
		<path vector-effect="non-scaling-stroke" d="M 274.932578 171.859498 L 274.6147 169.779666 C 274.6147 169.770583 274.605617 169.770583 274.601076 169.775124 Q 274.596535 169.784207 274.591994 169.788748 C 274.573829 169.815995 274.564747 169.8387 274.573829 169.847782 Q 274.669193 169.947687 274.637405 170.04305 C 274.610158 170.120249 274.501172 170.115708 274.478466 170.038509 Q 274.378561 169.71609 274.437596 169.529904 Q 274.732769 168.62168 274.546583 167.636258" style="fill:none;stroke-width:0.50;stroke:#c0ddcd;"/>
		<path vector-effect="non-scaling-stroke" d="M 334.866257 68.653502 L 287.316207 68.639879 C 286.966541 68.639879 286.680451 68.925969 286.680451 69.275635 L 286.680451 162.018894 C 286.680451 162.223245 286.848472 162.391266 287.057364 162.391266 L 357.976008 162.454842" style="fill:none;stroke-width:0.50;stroke:#8a694c;"/>
		<path vector-effect="non-scaling-stroke" d="M 276.540134 173.798555 L 276.549216 171.759593" style="fill:none;stroke-width:0.50;stroke:#628397;"/>
		<path stroke-opacity="0.667" vector-effect="non-scaling-stroke" d="M 276.549216 171.759593 Q 276.612792 171.214659 276.476558 171.269152" style="fill:none;stroke-width:0.50;stroke:#4b5e7e;"/>
		<path vector-effect="non-scaling-stroke" d="M 276.476558 171.269152 Q 276.462935 170.964897 276.24042 170.919486" style="fill:none;stroke-width:0.50;stroke:#628397;"/>
		<path vector-effect="non-scaling-stroke" d="M 276.28129 170.842287 L 276.422065 170.637937" style="fill:none;stroke-width:0.50;stroke:#728892;"/>
		<path stroke-opacity="0.667" vector-effect="non-scaling-stroke" d="M 276.422065 170.637937 Q 276.558298 170.388175 276.535593 169.993098 C 276.531051 169.947687 276.508346 169.911358 276.467476 169.893194 Q 276.36303 169.847782 276.263125 169.911358" style="fill:none;stroke-width:0.50;stroke:#4b5e7e;"/>
		<path vector-effect="non-scaling-stroke" d="M 276.263125 169.911358 Q 276.217714 169.720631 276.299454 169.588939" style="fill:none;stroke-width:0.50;stroke:#728892;"/>
		<path vector-effect="non-scaling-stroke" d="M 276.299454 169.588939 L 275.845343 164.343947 C 275.840801 164.303077 275.858966 164.262207 275.895295 164.23496 Q 275.981576 164.180467 276.054234 164.198631 C 276.154139 164.225878 276.208632 164.334865 276.172303 164.430228 L 275.87713 165.174972 C 275.822637 165.306664 275.981576 165.424733 276.095104 165.338452 Q 276.272208 165.202218 276.290372 165.029656 Q 276.508346 163.213208 277.148644 162.454842" style="fill:none;stroke-width:0.50;stroke:#628397;"/>
		<path stroke-opacity="0.667" vector-effect="non-scaling-stroke" d="M 273.529372 172.331774 Q 273.579325 171.90945 273.343186 171.900368" style="fill:none;stroke-width:0.50;stroke:#c0ded8;"/>
		<path stroke-opacity="0.667" vector-effect="non-scaling-stroke" d="M 274.932578 171.859498 Q 274.578371 171.369057 274.492089 170.728759 Q 274.428514 170.256483 273.688311 170.524409" style="fill:none;stroke-width:0.50;stroke:#c0ded8;"/>
		<path stroke-opacity="0.667" vector-effect="non-scaling-stroke" d="M 273.892662 170.097544 Q 274.546583 170.052133 273.829086 169.402753" style="fill:none;stroke-width:0.50;stroke:#c0ded8;"/>
		<path stroke-opacity="0.667" vector-effect="non-scaling-stroke" d="M 71.036366 109.973138 L 67.934782 109.973138" style="fill:none;stroke-width:0.50;stroke:#c0ded8;"/>
		<path stroke-opacity="0.667" vector-effect="non-scaling-stroke" d="M 63.01221 109.954973 L 62.044952 110.182029" style="fill:none;stroke-width:0.50;stroke:#f67a6d;"/>
		<path vector-effect="non-scaling-stroke" d="M 369.932773 107.434652 Q 369.333345 109.977679 367.539603 111.571611" style="fill:none;stroke-width:0.50;stroke:#fc7c40;"/>
		<path vector-effect="non-scaling-stroke" d="M 367.539603 111.571611 L 365.723156 113.3926 C 365.61871 113.497045 365.541511 113.624197 365.491559 113.764971 Q 365.196386 114.609619 365.191845 115.890215 Q 365.087399 136.01191 365.141893 156.260756" style="fill:none;stroke-width:0.50;stroke:#8a694c;"/>
		<path stroke-opacity="0.667" vector-effect="non-scaling-stroke" d="M 276.476558 171.269152 L 276.549216 171.759593" style="fill:none;stroke-width:0.50;stroke:#c0ded8;"/>
		<path vector-effect="non-scaling-stroke" d="M 417.196732 135.621374 Q 414.158724 135.176344 410.993564 135.653162 C 410.743803 135.68949 410.553076 135.898382 410.534911 136.152685 C 410.303314 139.263351 411.565745 142.010727 413.354946 144.408438 Q 414.599212 146.08411 417.587268 147.74616 Q 421.043059 149.676135 424.607837 150.870449" style="fill:none;stroke-width:0.50;stroke:#864150;"/>
		<path vector-effect="non-scaling-stroke" d="M 426.315297 162.750014 Q 425.543307 163.181421 424.37624 163.195044 Q 415.416613 163.308572 406.348 163.285866" style="fill:none;stroke-width:0.50;stroke:#864150;"/>
		<path vector-effect="non-scaling-stroke" d="M 367.357959 155.002867 L 367.539603 111.571611" style="fill:none;stroke-width:0.50;stroke:#864150;"/>
		<path vector-effect="non-scaling-stroke" d="M 422.87313 140.394089 Q 418.377423 138.600347 413.182383 137.710288 C 412.918998 137.664877 412.687401 137.891933 412.72373 138.155318 Q 413.164219 141.334101 415.19864 143.631906 Q 416.084158 144.630952 418.477327 145.75715 Q 421.81959 147.328377 425.139148 148.940474" style="fill:none;stroke-width:0.50;stroke:#8a694c;"/>
		<path vector-effect="non-scaling-stroke" d="M 297.511018 74.180043 C 294.463928 74.175502 294.395811 76.691282 294.400352 79.034499 Q 294.418516 92.553408 294.400352 111.36272 Q 294.395811 114.53242 297.815273 114.527879 Q 315.775396 114.509715 356.200431 114.536961 Q 358.829738 114.541503 360.732467 114.418892 C 362.957615 114.278118 363.270952 111.739633 361.972192 110.241064 Q 361.463587 109.6598 357.149525 104.719064 Q 343.20375 88.761574 331.523994 77.236216 Q 330.643017 76.364321 329.444162 75.188171 C 328.436034 74.193667 327.741242 74.189125 326.22905 74.193667 Q 314.390355 74.20729 297.511018 74.180043" style="fill:none;stroke-width:0.50;stroke:#8a694c;"/>
		<path vector-effect="non-scaling-stroke" d="M 295.172342 122.552035 C 294.404893 122.552035 293.737349 123.078805 293.555704 123.823548 L 293.183332 125.353905 C 292.92903 126.398362 293.723725 127.406491 294.79997 127.406491 L 305.467057 127.406491 C 306.547843 127.406491 307.342539 126.38928 307.079154 125.340282 L 306.6977 123.819007 C 306.511514 123.083346 305.848511 122.565659 305.085603 122.565659 L 295.172342 122.552035" style="fill:none;stroke-width:0.50;stroke:#8a694c;"/>
		<path vector-effect="non-scaling-stroke" d="M 273.847251 154.81214 L 275.622828 160.352304 C 275.654616 160.452209 275.79539 160.443126 275.818096 160.343222 L 276.213173 158.408705 C 276.231338 158.331506 276.167762 158.258848 276.090563 158.26339 L 276.086022 158.26339 C 276.026987 158.258848 275.977035 158.308801 275.981576 158.367835 Q 275.986117 158.785618 275.845343 159.089873 C 275.790849 159.207942 275.618287 159.189778 275.59104 159.062626 L 274.98253 156.183557" style="fill:none;stroke-width:0.50;stroke:#a3d5d7;"/>
		<path stroke-opacity="0.667" vector-effect="non-scaling-stroke" d="M 274.98253 156.183557 L 275.640992 158.540398 C 275.663698 158.622138 275.781767 158.622138 275.799931 158.540398 Q 276.780813 154.32624 275.858966 150.157493 C 275.83626 150.057589 275.709109 150.034883 275.654616 150.121164 Q 275.06427 151.061176 274.369479 151.864954 Q 273.801839 152.514334 273.847251 154.81214" style="fill:none;stroke-width:0.50;stroke:#c0ded8;"/>
		<path stroke-opacity="0.667" vector-effect="non-scaling-stroke" d="M 274.98253 156.183557 L 273.847251 154.81214" style="fill:none;stroke-width:0.50;stroke:#acd8de;"/>
		<path stroke-opacity="0.667" vector-effect="non-scaling-stroke" d="M 274.342232 166.646294 C 274.342232 166.614506 274.314986 166.587259 274.283198 166.587259 C 274.25141 166.587259 274.224163 166.614506 274.224163 166.646294 C 274.224163 166.678082 274.25141 166.705328 274.283198 166.705328 C 274.314986 166.705328 274.342232 166.678082 274.342232 166.646294" style="fill:none;stroke-width:0.50;stroke:#c0ded8;"/>
		<path vector-effect="non-scaling-stroke" d="M 275.38669 167.536353 Q 275.314032 167.127652 275.055188 166.691705 C 274.991612 166.587259 274.837214 166.609965 274.805426 166.728034 Q 274.65557 167.304756 274.782721 167.658963 C 274.837214 167.80882 275.000695 167.904184 275.155093 167.872396 C 275.314032 167.840608 275.413936 167.695292 275.38669 167.536353" style="fill:none;stroke-width:0.50;stroke:#d8ece9;"/>
		<path d="M 104.027591 55.125511 Q 104.331846 60.275139 104.068461 66.151346 Q 104.000344 67.74982 104.304599 69.7797 L 81.549055 69.875063 C 81.353787 69.879604 81.199389 70.034002 81.199389 70.22927 L 81.199389 74.543333 C 81.199389 75.092808 81.644419 75.542379 82.193894 75.537838 L 104.944897 75.524214 C 104.254647 77.994583 104.254647 80.537609 104.200153 83.462089 Q 96.039764 83.498418 79.528257 83.398513 Q 79.155886 83.398513 79.024193 83.216869 Q 79.332989 83.112423 79.332989 82.740051 Q 79.346613 70.465408 79.346613 56.928335 C 79.346613 56.78756 79.378401 56.646785 79.437435 56.519634 Q 80.055027 55.134593 81.576302 55.116429 Q 88.324404 55.043771 104.027591 55.125511 Z" style="fill:#95d1db;"/>
		<path d="M 124.807748 55.12097 C 125.734136 59.294257 124.766878 64.012479 125.488916 69.611678 C 125.50708 69.738829 125.616067 69.834193 125.743218 69.834193 L 135.520246 69.856899 L 104.304599 69.7797 Q 104.000344 67.74982 104.068461 66.151346 Q 104.331846 60.275139 104.027591 55.125511 L 124.807748 55.12097 Z" style="fill:#b0d8d2;"/>
		<path d="M 146.98657 55.248121 Q 146.827631 56.26079 146.814007 57.282542 Q 146.732267 63.599238 147.031981 69.856899 L 135.520246 69.856899 L 125.743218 69.834193 C 125.616067 69.834193 125.50708 69.738829 125.488916 69.611678 C 124.766878 64.012479 125.734136 59.294257 124.807748 55.12097 L 146.98657 55.248121 Z" style="fill:#cfe1c8;"/>
		<path d="M 202.615269 55.216333 L 201.593517 55.225415 L 202.615269 55.216333 Z" style="fill:#b0d8d2;"/>
		<path d="M 204.427175 55.229957 Q 204.726889 55.28445 204.999356 55.220874 Q 237.009699 55.24358 269.024583 55.175463 C 271.172532 55.170922 271.481328 56.596833 271.553986 58.522267 Q 271.871864 66.991453 271.926357 75.456097 L 271.908193 76.287122 L 271.980851 95.096434 L 272.257859 113.406223 C 272.257859 113.424387 272.276024 113.43347 272.285106 113.424387 Q 272.294188 113.415305 272.30327 113.401682 C 272.307811 113.3926 272.321435 113.388059 272.321435 113.397141 Q 272.248777 114.682277 272.09892 126.221259 Q 271.994474 134.031982 271.939981 136.225342 C 271.912734 137.383328 272.053509 138.613971 272.085297 139.808285 L 272.153413 141.69739 L 272.135249 144.249498 Q 272.167037 143.899832 272.103461 143.690941 C 272.044427 143.500214 271.767418 143.532002 271.753795 143.731811 L 271.308765 150.770544 C 271.281519 151.229197 270.900065 151.583405 270.441412 151.583405 L 146.868501 151.760508 Q 146.614198 143.014314 147.072851 134.422518 Q 197.075105 134.417977 246.532424 134.399813 C 249.347917 134.399813 250.306093 134.286285 250.387833 131.239195 Q 250.460491 128.605346 247.554176 128.609887 Q 197.211338 128.655298 146.86396 128.618969 L 146.90483 117.266174 C 146.90483 117.166269 146.982029 117.084529 147.081933 117.079988 L 150.619464 116.875637 Q 170.364247 116.961919 190.109029 116.939213 Q 190.92643 116.939213 191.639386 116.367032 C 191.771078 116.258045 191.870983 116.108188 191.916394 115.944708 Q 192.415917 114.146425 192.011758 111.912195 C 191.848277 111.003971 191.062664 110.581647 190.222557 110.577106 Q 168.684033 110.431791 146.877583 110.622517 L 146.432553 102.43034 Q 185.9312 102.43034 225.756808 102.43034 Q 227.609584 102.43034 227.700406 102.416717 C 229.535018 102.094297 229.407867 100.92723 229.448737 99.419579 C 229.530477 96.231714 228.331622 96.254419 225.756808 96.254419 Q 186.489758 96.317995 147.145509 96.317995 Q 146.446177 92.816793 146.977488 89.133946 Q 167.948372 89.120322 188.978291 89.129405 Q 190.726621 89.129405 191.180733 88.852396 C 192.424999 88.09403 192.461328 85.514674 191.943641 84.574663 Q 191.257932 83.334938 189.881973 83.339479 Q 168.325285 83.421219 146.754973 83.416678 L 147.054687 75.515132 L 233.599319 75.510591 C 234.189664 75.510591 234.725516 75.165466 234.961655 74.625073 C 235.688233 72.994811 235.720021 69.816028 233.136125 69.82057 Q 190.263427 69.897769 147.031981 69.856899 Q 146.732267 63.599238 146.814007 57.282542 Q 146.827631 56.26079 146.98657 55.248121 L 201.593517 55.225415 L 202.615269 55.216333 L 204.427175 55.229957 Z" style="fill:#f1e9be;"/>
		<path d="M 204.999356 55.220874 Q 204.726889 55.28445 204.427175 55.229957 L 204.999356 55.220874 Z" style="fill:#b0d8d2;"/>
		<path d="M 332.9272 66.192216 Q 311.125291 66.146805 289.341546 66.196757 C 286.485183 66.205839 284.418974 65.847091 284.423515 69.230224 Q 284.514337 111.912195 284.455303 162.200539 C 284.455303 162.309526 284.369022 162.395807 284.260035 162.400348 L 277.148644 162.454842 Q 276.871635 162.341314 276.885259 161.646523 L 276.626415 101.94444 L 276.549216 96.222631 L 276.562839 96.040987 L 276.562839 95.700403 L 276.558298 95.132763 L 276.558298 93.997483 Q 276.544675 93.638735 276.549216 93.284528 Q 276.644579 86.232171 276.667285 78.766573 C 276.685449 73.580616 276.408441 67.976876 276.585545 62.872659 C 276.662744 60.615723 276.989704 58.53135 279.796116 58.53135 Q 287.556887 58.526808 295.680947 58.585843 Q 298.846107 58.608549 300.916857 58.835604 C 303.260074 59.089907 305.240001 59.044496 307.869309 59.312422 Q 315.739067 60.111659 323.445345 61.342302 Q 323.863127 61.410419 326.115522 61.914483 C 329.026379 62.563863 331.192492 63.667354 332.9272 66.192216 Z" style="fill:#ffa43c;"/>
		<path d="M 332.9272 66.192216 Q 334.14876 67.327496 334.866257 68.653502 L 287.316207 68.639879 C 286.966541 68.639879 286.680451 68.925969 286.680451 69.275635 L 286.680451 162.018894 C 286.680451 162.223245 286.848472 162.391266 287.057364 162.391266 L 357.976008 162.454842 C 356.958798 164.085103 355.541969 165.769858 354.779061 167.295674 Q 352.78551 171.269152 351.936321 175.410652 Q 351.682018 176.65946 351.709265 177.840151 C 351.718347 178.180734 351.44588 178.457743 351.105296 178.457743 Q 324.80768 178.471366 278.206724 178.430496 Q 276.703614 178.430496 276.617333 176.718494 Q 276.549216 175.265336 276.540134 173.798555 L 276.549216 171.759593 Q 276.612792 171.214659 276.476558 171.269152 Q 276.462935 170.964897 276.24042 170.919486 Q 276.258584 170.878616 276.28129 170.842287 L 276.422065 170.637937 Q 276.558298 170.388175 276.535593 169.993098 C 276.531051 169.947687 276.508346 169.911358 276.467476 169.893194 Q 276.36303 169.847782 276.263125 169.911358 Q 276.217714 169.720631 276.299454 169.588939 L 275.845343 164.343947 C 275.840801 164.303077 275.858966 164.262207 275.895295 164.23496 Q 275.981576 164.180467 276.054234 164.198631 C 276.154139 164.225878 276.208632 164.334865 276.172303 164.430228 L 275.87713 165.174972 C 275.822637 165.306664 275.981576 165.424733 276.095104 165.338452 Q 276.272208 165.202218 276.290372 165.029656 Q 276.508346 163.213208 277.148644 162.454842 L 284.260035 162.400348 C 284.369022 162.395807 284.455303 162.309526 284.455303 162.200539 Q 284.514337 111.912195 284.423515 69.230224 C 284.418974 65.847091 286.485183 66.205839 289.341546 66.196757 Q 311.125291 66.146805 332.9272 66.192216 Z" style="fill:#142e5b;"/>
		<path d="M 334.866257 68.653502 L 369.932773 107.434652 Q 369.333345 109.977679 367.539603 111.571611 L 365.723156 113.3926 C 365.61871 113.497045 365.541511 113.624197 365.491559 113.764971 Q 365.196386 114.609619 365.191845 115.890215 Q 365.087399 136.01191 365.141893 156.260756 Q 361.209284 158.790159 357.976008 162.454842 L 287.057364 162.391266 C 286.848472 162.391266 286.680451 162.223245 286.680451 162.018894 L 286.680451 69.275635 C 286.680451 68.925969 286.966541 68.639879 287.316207 68.639879 L 334.866257 68.653502 Z M 297.511018 74.180043 C 294.463928 74.175502 294.395811 76.691282 294.400352 79.034499 Q 294.418516 92.553408 294.400352 111.36272 Q 294.395811 114.53242 297.815273 114.527879 Q 315.775396 114.509715 356.200431 114.536961 Q 358.829738 114.541503 360.732467 114.418892 C 362.957615 114.278118 363.270952 111.739633 361.972192 110.241064 Q 361.463587 109.6598 357.149525 104.719064 Q 343.20375 88.761574 331.523994 77.236216 Q 330.643017 76.364321 329.444162 75.188171 C 328.436034 74.193667 327.741242 74.189125 326.22905 74.193667 Q 314.390355 74.20729 297.511018 74.180043 Z M 295.172342 122.552035 C 294.404893 122.552035 293.737349 123.078805 293.555704 123.823548 L 293.183332 125.353905 C 292.92903 126.398362 293.723725 127.406491 294.79997 127.406491 L 305.467057 127.406491 C 306.547843 127.406491 307.342539 126.38928 307.079154 125.340282 L 306.6977 123.819007 C 306.511514 123.083346 305.848511 122.565659 305.085603 122.565659 L 295.172342 122.552035 Z" style="fill:#ffa43c;"/>
		<path d="M 104.304599 69.7797 L 135.520246 69.856899 L 147.031981 69.856899 Q 190.263427 69.897769 233.136125 69.82057 C 235.720021 69.816028 235.688233 72.994811 234.961655 74.625073 C 234.725516 75.165466 234.189664 75.510591 233.599319 75.510591 L 147.054687 75.515132 L 125.797712 75.50605 L 104.944897 75.524214 L 82.193894 75.537838 C 81.644419 75.542379 81.199389 75.092808 81.199389 74.543333 L 81.199389 70.22927 C 81.199389 70.034002 81.353787 69.879604 81.549055 69.875063 L 104.304599 69.7797 Z" style="fill:#142e5b;"/>
		<path d="M 125.797712 75.50605 Q 124.862241 79.32513 125.116544 83.421219 L 104.200153 83.462089 C 104.254647 80.537609 104.254647 77.994583 104.944897 75.524214 L 125.797712 75.50605 Z" style="fill:#b0d8d2;"/>
		<path d="M 147.054687 75.515132 L 146.754973 83.416678 L 125.116544 83.421219 Q 124.862241 79.32513 125.797712 75.50605 L 147.054687 75.515132 Z" style="fill:#cfe1c8;"/>
		<path d="M 271.926357 75.456097 L 271.908193 76.287122 L 271.926357 75.456097 Z" style="fill:#b0d8d2;"/>
		<path d="M 79.024193 83.216869 Q 79.155886 83.398513 79.528257 83.398513 Q 96.039764 83.498418 104.200153 83.462089 L 125.116544 83.421219 L 146.754973 83.416678 Q 168.325285 83.421219 189.881973 83.339479 Q 191.257932 83.334938 191.943641 84.574663 C 192.461328 85.514674 192.424999 88.09403 191.180733 88.852396 Q 190.726621 89.129405 188.978291 89.129405 Q 167.948372 89.120322 146.977488 89.133946 L 124.539822 89.143028 Q 102.40187 89.002253 79.310284 89.165734 Q 79.069605 89.165734 79.015111 89.347378 Q 78.170463 89.211145 77.262239 89.215686 Q 64.538026 89.242933 62.962258 89.292885 C 60.741651 89.361002 60.337492 87.24484 60.541842 85.487428 Q 60.77798 83.421219 62.839648 83.371267 Q 64.083914 83.34402 77.375767 83.353102 Q 78.215874 83.353102 79.024193 83.216869 Z" style="fill:#142e5b;"/>
		<path d="M 124.539822 89.143028 Q 124.557987 92.553408 125.402635 96.308913 L 79.596374 96.277125 L 77.289486 95.995575 Q 78.061476 95.995575 77.829879 95.786684 Q 79.305743 95.668615 79.25579 94.070141 Q 79.192215 92.026638 79.382942 90.001299 C 79.396565 89.860525 79.346613 89.71975 79.251249 89.610763 L 79.015111 89.347378 Q 79.069605 89.165734 79.310284 89.165734 Q 102.40187 89.002253 124.539822 89.143028 Z" style="fill:#95d1db;"/>
		<path d="M 146.977488 89.133946 Q 146.446177 92.816793 147.145509 96.317995 L 125.402635 96.308913 Q 124.557987 92.553408 124.539822 89.143028 L 146.977488 89.133946 Z" style="fill:#cfe1c8;"/>
		<path fill-opacity="0.329" d="M 272.83004 89.837819 C 272.83004 89.846901 272.820958 89.855984 272.811876 89.855984 C 272.802793 89.855984 272.793711 89.846901 272.793711 89.837819 C 272.793711 89.828737 272.802793 89.819655 272.811876 89.819655 C 272.820958 89.819655 272.83004 89.828737 272.83004 89.837819 Z" style="fill:#f1efe9;"/>
		<path fill-opacity="0.329" d="M 276.549216 96.222631 L 276.626415 101.94444 L 276.408441 120.558484 Q 276.285831 120.612978 276.36303 120.871821 L 276.353948 121.584777 L 276.344866 122.229616 Q 276.344866 122.306815 276.349407 122.379473 L 276.344866 122.683728 Q 276.344866 122.760927 276.344866 122.833585 L 276.344866 124.500175 Q 276.349407 124.577374 276.349407 124.650032 Q 276.32216 124.799889 276.344866 124.954287 Q 276.349407 125.031486 276.349407 125.104144 L 276.344866 125.408399 Q 276.344866 125.485598 276.349407 125.558256 L 276.340324 125.862511 L 276.340324 126.807063 L 276.317619 127.710746 L 276.195009 139.367796 Q 275.359443 140.203362 274.255951 140.412254 Q 274.242328 140.321431 274.215081 140.23515 Q 274.237787 140.321431 274.255951 140.412254 Q 273.097966 140.639309 272.085297 139.808285 C 272.053509 138.613971 271.912734 137.383328 271.939981 136.225342 Q 271.994474 134.031982 272.09892 126.221259 Q 272.248777 114.682277 272.321435 113.397141 C 272.321435 113.388059 272.307811 113.3926 272.30327 113.401682 Q 272.294188 113.415305 272.285106 113.424387 C 272.276024 113.43347 272.257859 113.424387 272.257859 113.406223 L 271.980851 95.096434 Q 272.30327 95.001071 272.439504 94.742227 C 272.471292 94.683192 272.557573 94.687733 272.58482 94.751309 L 272.630231 94.860296 C 272.634772 94.873919 272.657478 94.869378 272.657478 94.855755 Q 272.639313 94.406184 272.539408 94.142799 C 272.493997 94.015648 272.50308 93.874873 272.571196 93.761345 Q 272.771006 93.411679 273.175165 93.220952 C 273.302316 93.161918 273.43855 93.279987 273.402221 93.411679 Q 273.402221 93.425303 273.202412 93.597865 C 273.107048 93.679605 273.079802 93.82038 273.134295 93.933908 C 273.938073 95.564169 274.019813 97.566802 275.391231 99.106241 C 275.491135 99.219769 275.55017 99.360544 275.554711 99.510401 L 275.654616 102.357682 C 275.654616 102.38947 275.677321 102.412176 275.709109 102.416717 L 275.71365 102.416717 C 275.745438 102.412176 275.768144 102.384929 275.768144 102.3486 L 275.763602 100.72288 C 275.763602 100.650222 275.822637 100.595728 275.895295 100.600269 L 275.899836 100.600269 C 275.954329 100.604811 275.995199 100.645681 275.995199 100.695633 C 275.995199 101.690138 275.977035 102.684643 275.990658 103.679148 C 275.990658 101.086169 276.049693 98.765658 276.549216 96.222631 Z" style="fill:#f1efe9;"/>
		<path d="M 276.558298 93.997483 L 276.558298 95.132763 Q 276.453852 94.569664 276.558298 93.997483 Z" style="fill:#142e5b;"/>
		<path d="M 77.829879 95.786684 Q 78.061476 95.995575 77.289486 95.995575 Q 70.877427 96.317995 64.438121 95.854801 Q 71.145353 95.441559 77.829879 95.786684 Z" style="fill:#cfe1c8;"/>
		<path d="M 276.562839 95.700403 L 276.562839 96.040987 Q 276.490181 95.868424 276.562839 95.700403 Z" style="fill:#142e5b;"/>
		<path d="M 64.438121 95.854801 Q 70.877427 96.317995 77.289486 95.995575 L 79.596374 96.277125 Q 79.074146 99.306051 79.569128 102.493916 L 62.022246 102.434881 Q 61.504559 100.741044 61.586299 98.066325 Q 61.618087 96.90834 62.253843 96.149973 C 62.344666 96.045528 62.471817 95.981952 62.612592 95.97287 L 64.438121 95.854801 Z" style="fill:#f85344;"/>
		<path d="M 125.402635 96.308913 L 147.145509 96.317995 Q 186.489758 96.317995 225.756808 96.254419 C 228.331622 96.254419 229.530477 96.231714 229.448737 99.419579 C 229.407867 100.92723 229.535018 102.094297 227.700406 102.416717 Q 227.609584 102.43034 225.756808 102.43034 Q 185.9312 102.43034 146.432553 102.43034 L 139.457396 102.453046 L 79.569128 102.493916 Q 79.074146 99.306051 79.596374 96.277125 L 125.402635 96.308913 Z" style="fill:#142e5b;"/>
		<path d="M 276.885259 161.646523 Q 276.817142 161.964401 276.712696 162.068847 C 276.630956 162.150587 276.48564 162.096093 276.48564 161.978024 Q 276.458394 159.911815 276.562839 156.873807 Q 276.581004 156.419696 276.467476 155.988289 C 276.435688 155.87022 276.422065 155.743069 276.426606 155.620459 Q 276.649121 150.084836 276.499264 149.153906 Q 275.818096 144.839844 275.908918 144.05423 Q 276.185926 141.715554 276.195009 139.367796 L 276.317619 127.710746 L 276.340324 126.807063 L 276.340324 125.862511 L 276.349407 125.558256 Q 276.344866 125.485598 276.344866 125.408399 L 276.349407 125.104144 Q 276.349407 125.031486 276.344866 124.954287 L 276.349407 124.650032 Q 276.349407 124.577374 276.344866 124.500175 L 276.344866 122.833585 Q 276.344866 122.760927 276.344866 122.683728 L 276.349407 122.379473 Q 276.344866 122.306815 276.344866 122.229616 L 276.353948 121.584777 L 276.36303 120.871821 Q 276.317619 120.608437 276.408441 120.558484 L 276.626415 101.94444 L 276.885259 161.646523 Z" style="fill:#f1e9be;"/>
		<path d="M 79.569128 102.493916 L 139.457396 102.453046 L 125.616067 102.525704 C 125.375388 102.525704 125.166496 102.702807 125.134709 102.943486 Q 124.93944 104.328528 124.757796 106.172222 C 124.471705 109.037667 122.151194 109.573519 119.871552 110.345509 C 119.848847 110.354592 119.853388 110.386379 119.876094 110.386379 L 122.010419 110.558942 L 79.555504 110.513531 Q 70.659453 110.200193 63.856858 110.272851 Q 63.221102 110.277393 63.01221 109.954973 Q 65.473496 109.573519 67.934782 109.973138 L 71.036366 109.973138 Q 74.533027 109.809657 78.061476 109.959514 Q 79.151345 110.004925 79.142262 108.910516 Q 79.105933 105.468348 79.137721 103.611031 C 79.142262 103.32494 78.942453 103.075179 78.660904 103.020685 C 77.552871 102.807253 76.631024 102.698266 75.504827 102.870829 Q 73.4477 103.188707 71.676664 103.111508 Q 70.486891 103.057014 68.997404 103.093343 Q 67.80309 103.125131 66.309062 103.184166 C 66.172829 103.188707 66.036595 103.152378 65.923067 103.075179 Q 65.864033 103.03885 65.859491 103.034309 C 65.723258 102.948028 65.559778 102.911699 65.400838 102.934404 C 64.261018 103.093343 63.29376 103.329482 62.176644 102.611985 Q 62.099445 102.525704 62.022246 102.434881 L 79.569128 102.493916 Z" style="fill:#95d1db;"/>
		<path d="M 146.432553 102.43034 L 146.877583 110.622517 L 122.010419 110.558942 L 119.876094 110.386379 C 119.853388 110.386379 119.848847 110.354592 119.871552 110.345509 C 122.151194 109.573519 124.471705 109.037667 124.757796 106.172222 Q 124.93944 104.328528 125.134709 102.943486 C 125.166496 102.702807 125.375388 102.525704 125.616067 102.525704 L 139.457396 102.453046 L 146.432553 102.43034 Z" style="fill:#cfe1c8;"/>
		<path fill-opacity="0.329" d="M 71.036366 109.973138 L 67.934782 109.973138 Q 65.473496 109.573519 63.01221 109.954973 L 62.044952 110.182029 L 62.176644 102.611985 C 63.29376 103.329482 64.261018 103.093343 65.400838 102.934404 C 65.559778 102.911699 65.723258 102.948028 65.859491 103.034309 Q 65.864033 103.03885 65.923067 103.075179 C 66.036595 103.152378 66.172829 103.188707 66.309062 103.184166 Q 67.80309 103.125131 68.997404 103.093343 Q 70.486891 103.057014 71.676664 103.111508 Q 73.4477 103.188707 75.504827 102.870829 C 76.631024 102.698266 77.552871 102.807253 78.660904 103.020685 C 78.942453 103.075179 79.142262 103.32494 79.137721 103.611031 Q 79.105933 105.468348 79.142262 108.910516 Q 79.151345 110.004925 78.061476 109.959514 Q 74.533027 109.809657 71.036366 109.973138 Z" style="fill:#f1efe9;"/>
		<path d="M 417.196732 135.621374 Q 414.158724 135.176344 410.993564 135.653162 C 410.743803 135.68949 410.553076 135.898382 410.534911 136.152685 C 410.303314 139.263351 411.565745 142.010727 413.354946 144.408438 Q 414.599212 146.08411 417.587268 147.74616 Q 421.043059 149.676135 424.607837 150.870449 Q 424.217301 153.704107 424.444357 156.619505 Q 424.671413 159.462245 425.447944 162.195998 Q 425.543307 162.536582 426.315297 162.750014 Q 425.543307 163.181421 424.37624 163.195044 Q 415.416613 163.308572 406.348 163.285866 Q 403.005737 158.967263 399.663474 156.782985 Q 395.680913 154.180924 392.029854 153.113761 Q 389.645767 152.41897 389.486828 152.341771 C 389.287019 152.250949 389.073586 152.196456 388.855613 152.182832 C 387.361585 152.110174 385.663206 151.674227 383.833136 151.610651 Q 379.75067 151.465335 375.550136 152.09201 Q 374.060649 152.319066 373.329529 152.641485 C 372.444011 153.036562 371.540328 153.100138 370.414131 153.576955 Q 368.915562 154.217253 367.357959 155.002867 L 367.539603 111.571611 Q 369.333345 109.977679 369.932773 107.434652 Q 374.246835 112.352684 378.451911 117.139022 C 378.89694 117.647628 379.895986 118.297007 380.776963 118.696626 C 384.618749 120.449497 388.365172 121.548448 392.919913 123.364895 Q 397.679005 125.263083 398.959601 125.82164 Q 405.862101 128.82332 414.049737 133.482507 Q 414.75361 133.882125 415.639128 134.522423 Q 416.461071 135.11731 417.196732 135.621374 Z" style="fill:#f85344;"/>
		<path d="M 71.036366 109.973138 L 67.934782 109.973138 L 71.036366 109.973138 Z" style="fill:#b0d8d2;"/>
		<path d="M 63.01221 109.954973 Q 63.221102 110.277393 63.856858 110.272851 Q 70.659453 110.200193 79.555504 110.513531 L 79.323907 116.998248 Q 71.322457 117.070905 63.411829 116.993706 C 62.231138 116.980083 61.777026 116.703075 61.599922 115.46335 Q 61.186681 112.611527 62.044952 110.182029 L 63.01221 109.954973 Z" style="fill:#f85344;"/>
		<path d="M 122.010419 110.558942 L 146.877583 110.622517 Q 168.684033 110.431791 190.222557 110.577106 C 191.062664 110.581647 191.848277 111.003971 192.011758 111.912195 Q 192.415917 114.146425 191.916394 115.944708 C 191.870983 116.108188 191.771078 116.258045 191.639386 116.367032 Q 190.92643 116.939213 190.109029 116.939213 Q 170.364247 116.961919 150.619464 116.875637 L 127.691358 116.902884 L 109.145431 116.961919 Q 94.845449 116.84385 80.55455 116.939213 Q 79.955123 116.943754 79.396565 117.116317 Q 79.219461 117.00733 79.323907 116.998248 L 79.555504 110.513531 L 122.010419 110.558942 Z" style="fill:#142e5b;"/>
		<path d="M 367.539603 111.571611 L 367.357959 155.002867 L 365.141893 156.260756 Q 365.087399 136.01191 365.191845 115.890215 Q 365.196386 114.609619 365.491559 113.764971 C 365.541511 113.624197 365.61871 113.497045 365.723156 113.3926 L 367.539603 111.571611 Z" style="fill:#142e5b;"/>
		<path d="M 127.691358 116.902884 Q 125.393552 117.770238 125.26186 120.295099 Q 125.048427 124.391188 124.989393 128.628052 L 103.868652 128.637134 L 104.418127 117.879225 C 104.427209 117.720285 104.304599 117.584052 104.14566 117.570428 L 100.485518 117.338831 C 100.449189 117.338831 100.421943 117.307044 100.421943 117.270715 C 100.421943 117.234386 100.449189 117.202598 100.485518 117.202598 L 109.145431 116.961919 L 127.691358 116.902884 Z" style="fill:#b0d8d2;"/>
		<path d="M 150.619464 116.875637 L 147.081933 117.079988 C 146.982029 117.084529 146.90483 117.166269 146.90483 117.266174 L 146.86396 128.618969 L 124.989393 128.628052 Q 125.048427 124.391188 125.26186 120.295099 Q 125.393552 117.770238 127.691358 116.902884 L 150.619464 116.875637 Z" style="fill:#cfe1c8;"/>
		<path d="M 109.145431 116.961919 L 100.485518 117.202598 C 100.449189 117.202598 100.421943 117.234386 100.421943 117.270715 C 100.421943 117.307044 100.449189 117.338831 100.485518 117.338831 L 104.14566 117.570428 C 104.304599 117.584052 104.427209 117.720285 104.418127 117.879225 L 103.868652 128.637134 L 82.089448 128.596264 C 81.712535 128.596264 81.403739 128.886895 81.376493 129.263808 Q 81.267506 130.925857 81.317458 132.973902 Q 81.349246 134.490635 83.1112 134.454306 Q 87.784011 134.363484 105.498913 134.417977 Q 104.495326 136.461481 104.404504 139.399584 Q 104.181989 146.760737 104.577066 151.755967 L 79.378401 151.778673 L 79.396565 117.116317 Q 79.955123 116.943754 80.55455 116.939213 Q 94.845449 116.84385 109.145431 116.961919 Z" style="fill:#95d1db;"/>
		<path d="M 276.408441 120.558484 Q 276.317619 120.608437 276.36303 120.871821 Q 276.285831 120.612978 276.408441 120.558484 Z" style="fill:#142e5b;"/>
		<path d="M 276.353948 121.584777 L 276.344866 122.229616 L 276.353948 121.584777 Z" style="fill:#142e5b;"/>
		<path d="M 276.349407 122.379473 L 276.344866 122.683728 L 276.349407 122.379473 Z" style="fill:#142e5b;"/>
		<path d="M 276.344866 122.833585 L 276.344866 124.500175 L 276.344866 122.833585 Z" style="fill:#142e5b;"/>
		<path d="M 276.349407 124.650032 L 276.344866 124.954287 Q 276.32216 124.799889 276.349407 124.650032 Z" style="fill:#142e5b;"/>
		<path d="M 276.349407 125.104144 L 276.344866 125.408399 L 276.349407 125.104144 Z" style="fill:#142e5b;"/>
		<path d="M 276.349407 125.558256 L 276.340324 125.862511 L 276.349407 125.558256 Z" style="fill:#142e5b;"/>
		<path d="M 276.340324 126.807063 L 276.317619 127.710746 L 276.340324 126.807063 Z" style="fill:#142e5b;"/>
		<path d="M 103.868652 128.637134 L 124.989393 128.628052 L 146.86396 128.618969 Q 197.211338 128.655298 247.554176 128.609887 Q 250.460491 128.605346 250.387833 131.239195 C 250.306093 134.286285 249.347917 134.399813 246.532424 134.399813 Q 197.075105 134.417977 147.072851 134.422518 L 125.8295 134.436142 L 105.498913 134.417977 Q 87.784011 134.363484 83.1112 134.454306 Q 81.349246 134.490635 81.317458 132.973902 Q 81.267506 130.925857 81.376493 129.263808 C 81.403739 128.886895 81.712535 128.596264 82.089448 128.596264 L 103.868652 128.637134 Z" style="fill:#142e5b;"/>
		<path d="M 125.8295 134.436142 Q 125.284565 136.470563 125.248236 138.586724 Q 125.130167 145.166804 125.034804 151.683309 L 104.577066 151.755967 Q 104.181989 146.760737 104.404504 139.399584 Q 104.495326 136.461481 105.498913 134.417977 L 125.8295 134.436142 Z" style="fill:#b0d8d2;"/>
		<path d="M 147.072851 134.422518 Q 146.614198 143.014314 146.868501 151.760508 L 125.034804 151.683309 Q 125.130167 145.166804 125.248236 138.586724 Q 125.284565 136.470563 125.8295 134.436142 L 147.072851 134.422518 Z" style="fill:#cfe1c8;"/>
		<path d="M 417.196732 135.621374 Q 420.625276 137.001874 422.587039 138.627594 Q 423.790436 139.622099 422.87313 140.394089 Q 418.377423 138.600347 413.182383 137.710288 C 412.918998 137.664877 412.687401 137.891933 412.72373 138.155318 Q 413.164219 141.334101 415.19864 143.631906 Q 416.084158 144.630952 418.477327 145.75715 Q 421.81959 147.328377 425.139148 148.940474 Q 425.602342 150.725133 424.607837 150.870449 Q 421.043059 149.676135 417.587268 147.74616 Q 414.599212 146.08411 413.354946 144.408438 C 411.565745 142.010727 410.303314 139.263351 410.534911 136.152685 C 410.553076 135.898382 410.743803 135.68949 410.993564 135.653162 Q 414.158724 135.176344 417.196732 135.621374 Z" style="fill:#142e5b;"/>
		<path d="M 422.87313 140.394089 L 425.139148 148.940474 Q 421.81959 147.328377 418.477327 145.75715 Q 416.084158 144.630952 415.19864 143.631906 Q 413.164219 141.334101 412.72373 138.155318 C 412.687401 137.891933 412.918998 137.664877 413.182383 137.710288 Q 418.377423 138.600347 422.87313 140.394089 Z" style="fill:#ffa43c;"/>
		<path d="M 276.195009 139.367796 Q 276.185926 141.715554 275.908918 144.05423 Q 275.818096 144.839844 276.499264 149.153906 Q 276.649121 150.084836 276.426606 155.620459 C 276.422065 155.743069 276.435688 155.87022 276.467476 155.988289 Q 276.581004 156.419696 276.562839 156.873807 Q 276.458394 159.911815 276.48564 161.978024 C 276.48564 162.096093 276.630956 162.150587 276.712696 162.068847 Q 276.817142 161.964401 276.885259 161.646523 Q 276.871635 162.341314 277.148644 162.454842 Q 276.508346 163.213208 276.290372 165.029656 Q 276.272208 165.202218 276.095104 165.338452 C 275.981576 165.424733 275.822637 165.306664 275.87713 165.174972 L 276.172303 164.430228 C 276.208632 164.334865 276.154139 164.225878 276.054234 164.198631 Q 275.981576 164.180467 275.895295 164.23496 C 275.858966 164.262207 275.840801 164.303077 275.845343 164.343947 L 276.299454 169.588939 Q 276.126892 169.611644 276.008823 169.548069 C 275.881672 169.475411 275.881672 169.343718 275.87713 169.216567 Q 275.854425 169.684302 275.872589 170.152037 C 275.87713 170.197448 275.83626 170.238319 275.786308 170.238319 C 275.740897 170.233777 275.704568 170.197448 275.704568 170.147496 L 275.659157 168.748832 C 275.659157 168.744291 275.659157 168.744291 275.663698 168.744291 L 275.668239 168.739749 C 275.67278 168.739749 275.681862 168.744291 275.681862 168.753373 Q 275.700027 168.857819 275.709109 168.90323 C 275.71365 168.916853 275.722732 168.925935 275.736356 168.925935 C 275.749979 168.921394 275.759061 168.912312 275.759061 168.898689 L 275.563793 166.87335 C 275.559252 166.818856 275.5093 166.777986 275.454806 166.782527 L 275.450265 166.782527 C 275.400313 166.805233 275.363984 166.855185 275.368525 166.909679 L 275.436642 167.963218 C 275.445724 168.13124 275.332196 168.276555 275.164175 168.303802 C 275.000695 168.331049 274.846297 168.226603 274.800885 168.067664 L 274.632864 167.445531 Q 274.605617 167.368332 274.578371 167.291133 Q 274.719145 167.054995 274.678275 166.746199 Q 274.673734 166.728034 274.664652 166.714411 C 274.65557 166.700787 274.637405 166.714411 274.637405 166.732575 Q 274.632864 167.023207 274.578371 167.291133 L 274.242328 167.272968 C 274.119718 167.268427 274.024354 167.163981 274.033436 167.041371 Q 274.078848 166.414697 274.582912 165.842516 C 274.660111 165.760776 274.796344 165.810728 274.796344 165.924256 L 274.796344 166.34658 C 274.796344 166.405615 274.841755 166.451026 274.896249 166.460108 C 274.955283 166.464649 275.005236 166.423779 275.018859 166.369286 Q 275.22775 165.32937 275.209586 165.215842 C 275.209586 165.202218 275.191422 165.202218 275.18688 165.215842 Q 275.164175 165.302123 275.118764 165.342993 C 275.096058 165.361157 275.055188 165.352075 275.046106 165.324829 L 274.074306 163.004317 C 274.010731 162.859001 273.915367 162.736391 273.792757 162.636486 L 272.675642 161.746427 L 273.733723 161.337727 C 273.865415 161.283233 273.938073 161.147 273.910826 161.006225 Q 273.452173 158.735666 273.379515 156.419696 Q 273.552078 158.962722 273.297775 161.287774 C 273.288693 161.346809 273.238741 161.387679 273.184247 161.383138 L 273.179706 161.383138 C 273.11613 161.378597 273.070719 161.324103 273.07526 161.260528 Q 273.370433 157.010041 272.589361 152.818589 C 272.407716 151.851331 272.398634 150.597982 272.253318 149.503572 Q 273.542996 145.557341 272.153413 141.69739 L 272.085297 139.808285 Q 273.097966 140.639309 274.255951 140.412254 Q 275.359443 140.203362 276.195009 139.367796 Z M 273.847251 154.81214 L 275.622828 160.352304 C 275.654616 160.452209 275.79539 160.443126 275.818096 160.343222 L 276.213173 158.408705 C 276.231338 158.331506 276.167762 158.258848 276.090563 158.26339 L 276.086022 158.26339 C 276.026987 158.258848 275.977035 158.308801 275.981576 158.367835 Q 275.986117 158.785618 275.845343 159.089873 C 275.790849 159.207942 275.618287 159.189778 275.59104 159.062626 L 274.98253 156.183557 L 275.640992 158.540398 C 275.663698 158.622138 275.781767 158.622138 275.799931 158.540398 Q 276.780813 154.32624 275.858966 150.157493 C 275.83626 150.057589 275.709109 150.034883 275.654616 150.121164 Q 275.06427 151.061176 274.369479 151.864954 Q 273.801839 152.514334 273.847251 154.81214 Z M 274.342232 166.646294 C 274.342232 166.614506 274.314986 166.587259 274.283198 166.587259 C 274.25141 166.587259 274.224163 166.614506 274.224163 166.646294 C 274.224163 166.678082 274.25141 166.705328 274.283198 166.705328 C 274.314986 166.705328 274.342232 166.678082 274.342232 166.646294 Z M 275.38669 167.536353 Q 275.314032 167.127652 275.055188 166.691705 C 274.991612 166.587259 274.837214 166.609965 274.805426 166.728034 Q 274.65557 167.304756 274.782721 167.658963 C 274.837214 167.80882 275.000695 167.904184 275.155093 167.872396 C 275.314032 167.840608 275.413936 167.695292 275.38669 167.536353 Z" style="fill:#b0d8d2;"/>
		<path d="M 274.255951 140.412254 Q 274.237787 140.321431 274.215081 140.23515 Q 274.242328 140.321431 274.255951 140.412254 Z" style="fill:#95d1db;"/>
		<path d="M 272.253318 149.503572 L 273.211494 158.980886 C 273.216035 159.030839 273.184247 159.07625 273.134295 159.085332 L 273.129754 159.085332 C 273.079802 159.094414 273.029849 159.058085 273.020767 159.008133 Q 272.403175 155.538719 271.980851 152.032975 Q 271.871864 151.133834 272.130708 148.736123 Q 272.375928 146.506434 272.135249 144.249498 L 272.153413 141.69739 Q 273.542996 145.557341 272.253318 149.503572 Z" style="fill:#cfe1c8;"/>
		<path d="M 272.135249 144.249498 Q 272.375928 146.506434 272.130708 148.736123 Q 271.871864 151.133834 271.980851 152.032975 Q 272.403175 155.538719 273.020767 159.008133 C 273.029849 159.058085 273.079802 159.094414 273.129754 159.085332 L 273.134295 159.085332 C 273.184247 159.07625 273.216035 159.030839 273.211494 158.980886 L 272.253318 149.503572 C 272.398634 150.597982 272.407716 151.851331 272.589361 152.818589 Q 273.370433 157.010041 273.07526 161.260528 C 273.070719 161.324103 273.11613 161.378597 273.179706 161.383138 L 273.184247 161.383138 C 273.238741 161.387679 273.288693 161.346809 273.297775 161.287774 Q 273.552078 158.962722 273.379515 156.419696 Q 273.452173 158.735666 273.910826 161.006225 C 273.938073 161.147 273.865415 161.283233 273.733723 161.337727 L 272.675642 161.746427 Q 272.380469 162.441218 273.256905 163.66732 C 273.270529 163.690026 273.411303 163.803554 273.592948 163.944329 Q 273.915367 164.189549 273.620195 164.947916 Q 273.6429 164.698154 273.588407 164.55738 C 273.538454 164.421146 273.338645 164.452934 273.334104 164.59825 L 273.243282 169.266519 Q 273.229658 166.823398 273.202412 164.375735 Q 273.188788 163.190503 272.112543 162.681898 L 272.30327 161.496666 Q 273.007144 159.802829 272.848205 158.803783 Q 272.216989 154.780352 271.862782 151.542534 C 271.858241 151.488041 271.808288 151.451712 271.753795 151.456253 L 271.749254 151.456253 C 271.69476 151.465335 271.658432 151.510747 271.662973 151.56524 Q 271.971769 155.207217 272.444045 158.840112 Q 272.530326 159.489491 272.30327 161.496666 Q 272.035344 162.050682 271.980851 162.631945 C 267.87568 162.413972 263.148376 162.536582 259.71529 162.536582 Q 218.318456 162.550205 185.340855 162.536582 Q 183.606148 162.536582 181.240225 162.65011 C 180.995005 162.659192 180.758867 162.713685 180.536352 162.81359 L 178.810727 163.558333 Q 178.265793 163.263161 177.852551 163.376689 Q 175.754554 163.944329 174.378595 164.180467 Q 173.701969 164.293995 173.647475 165.052361 Q 172.262434 163.903458 170.886475 162.804508 C 165.101091 158.186191 157.998782 156.442401 150.710287 157.645797 C 145.401719 158.526774 141.441864 160.883615 137.436598 164.244042 Q 137.332152 164.330324 137.086932 164.339406 Q 136.923452 164.343947 136.855335 164.303077 Q 136.278613 164.116891 135.511164 164.402981 L 134.934442 164.416605 Q 134.698304 164.334865 134.462166 164.421146 Q 134.266897 164.375735 134.144287 164.448393 Q 132.672965 163.853506 131.119902 163.94887 L 129.793896 162.809049 C 129.68945 162.718227 129.553217 162.663733 129.412442 162.659192 Q 126.324482 162.541123 125.171037 162.541123 Q 101.284755 162.5275 79.98691 162.504794 Q 78.774432 162.504794 78.043312 163.571957 Q 78.220415 161.814544 77.652776 160.529408 Q 77.262239 159.648431 77.571035 158.731125 Q 78.788055 155.120936 79.378401 151.778673 L 104.577066 151.755967 L 125.034804 151.683309 L 146.868501 151.760508 L 270.441412 151.583405 C 270.900065 151.583405 271.281519 151.229197 271.308765 150.770544 L 271.753795 143.731811 C 271.767418 143.532002 272.044427 143.500214 272.103461 143.690941 Q 272.167037 143.899832 272.135249 144.249498 Z" style="fill:#ffffff;"/>
		<path d="M 272.30327 161.496666 Q 272.530326 159.489491 272.444045 158.840112 Q 271.971769 155.207217 271.662973 151.56524 C 271.658432 151.510747 271.69476 151.465335 271.749254 151.456253 L 271.753795 151.456253 C 271.808288 151.451712 271.858241 151.488041 271.862782 151.542534 Q 272.216989 154.780352 272.848205 158.803783 Q 273.007144 159.802829 272.30327 161.496666 Z" style="fill:#cfe1c8;"/>
		<path d="M 357.292706 178.981379 C 357.867021 166.301169 369.247064 156.5196 382.705031 157.129064 C 396.162272 157.741161 406.606844 168.512694 406.032256 181.194629 C 405.457941 193.874839 394.077899 203.656408 380.619931 203.046945 C 367.16269 202.434847 356.718118 191.663315 357.292706 178.981379 Z M 370.805258 179.900638 C 370.745633 185.655415 375.600088 190.369096 381.648767 190.432081 C 387.697627 190.496247 392.651987 185.882471 392.710432 180.130055 C 392.770057 174.375277 387.915601 169.661596 381.866922 169.598611 C 375.818062 169.534445 370.863702 174.148221 370.805258 179.900638 Z" style="fill:#142e5b;"/>
		<path d="M 173.647475 165.052361 Q 174.64198 166.464649 175.636485 168.049499 Q 178.588212 172.745016 179.14677 178.003631 Q 179.705327 183.307657 177.625495 188.425497 Q 173.938107 197.485028 164.760507 201.26778 Q 158.184967 203.978827 150.333374 202.639198 C 143.017632 201.39039 136.455716 196.613134 133.258769 189.878655 Q 130.220761 183.475678 131.201643 176.7412 Q 132.118948 170.438128 136.723642 164.975162 L 137.086932 164.339406 Q 137.332152 164.330324 137.436598 164.244042 C 141.441864 160.883615 145.401719 158.526774 150.710287 157.645797 C 157.998782 156.442401 165.101091 158.186191 170.886475 162.804508 Q 172.262434 163.903458 173.647475 165.052361 Z M 144.438685 179.441213 C 144.107501 185.155892 148.65316 190.064841 154.586767 190.406424 C 160.519102 190.75055 165.600614 186.395617 165.927892 180.680302 C 166.259076 174.965623 161.713416 170.056674 155.77981 169.715091 C 149.847474 169.370965 144.765963 173.725897 144.438685 179.441213 Z" style="fill:#142e5b;"/>
		<path d="M 272.30327 161.496666 L 272.112543 162.681898 Q 272.048968 162.659192 271.980851 162.631945 Q 272.035344 162.050682 272.30327 161.496666 Z" style="fill:#cfe1c8;"/>
		<path d="M 272.675642 161.746427 L 273.792757 162.636486 C 273.915367 162.736391 274.010731 162.859001 274.074306 163.004317 L 275.046106 165.324829 C 275.055188 165.352075 275.096058 165.361157 275.118764 165.342993 Q 275.164175 165.302123 275.18688 165.215842 C 275.191422 165.202218 275.209586 165.202218 275.209586 165.215842 Q 275.22775 165.32937 275.018859 166.369286 C 275.005236 166.423779 274.955283 166.464649 274.896249 166.460108 C 274.841755 166.451026 274.796344 166.405615 274.796344 166.34658 L 274.796344 165.924256 C 274.796344 165.810728 274.660111 165.760776 274.582912 165.842516 Q 274.078848 166.414697 274.033436 167.041371 C 274.024354 167.163981 274.119718 167.268427 274.242328 167.272968 L 274.578371 167.291133 Q 274.605617 167.368332 274.632864 167.445531 L 274.546583 167.636258 L 274.401267 168.449118 C 274.378561 168.589893 274.233246 168.680715 274.097012 168.639845 Q 273.774593 168.558105 273.751887 168.085828 L 273.620195 164.947916 Q 273.915367 164.189549 273.592948 163.944329 C 273.411303 163.803554 273.270529 163.690026 273.256905 163.66732 Q 272.380469 162.441218 272.675642 161.746427 Z" style="fill:#95d1db;"/>
		<path d="M 271.980851 162.631945 Q 272.048968 162.659192 272.112543 162.681898 Q 273.188788 163.190503 273.202412 164.375735 Q 273.229658 166.823398 273.243282 169.266519 L 273.302316 172.000272 Q 273.320481 171.95032 273.343186 171.900368 Q 273.079802 173.035647 273.379515 174.275373 C 273.334104 175.633167 273.406762 178.089912 272.167037 178.403249 Q 272.044427 178.435037 270.623057 178.435037 Q 233.176995 178.48953 185.663274 178.457743 C 185.177375 178.457743 184.768674 178.085371 184.723263 177.599471 Q 184.005766 169.988557 179.35112 163.912541 Q 179.137687 163.630991 178.810727 163.558333 L 180.536352 162.81359 C 180.758867 162.713685 180.995005 162.659192 181.240225 162.65011 Q 183.606148 162.536582 185.340855 162.536582 Q 218.318456 162.550205 259.71529 162.536582 C 263.148376 162.536582 267.87568 162.413972 271.980851 162.631945 Z" style="fill:#142e5b;"/>
		<path d="M 131.119902 163.94887 Q 128.408855 166.26484 127.518796 169.093957 Q 127.105554 170.415422 126.892121 171.01485 Q 125.702348 174.361654 125.461669 176.818399 C 125.434422 177.099948 125.189202 177.30884 124.907653 177.286134 Q 123.304638 177.158983 122.873232 177.154442 Q 113.949934 177.099948 80.18672 177.081784 C 78.288532 177.081784 78.043312 175.932881 78.002442 174.234503 Q 77.888914 168.880524 78.043312 163.571957 Q 78.774432 162.504794 79.98691 162.504794 Q 101.284755 162.5275 125.171037 162.541123 Q 126.324482 162.541123 129.412442 162.659192 C 129.553217 162.663733 129.68945 162.718227 129.793896 162.809049 L 131.119902 163.94887 Z" style="fill:#142e5b;"/>
		<path d="M 406.348 163.285866 Q 415.416613 163.308572 424.37624 163.195044 Q 425.543307 163.181421 426.315297 162.750014 Q 429.907322 162.050682 429.893699 164.929751 Q 429.866452 169.657055 429.8165 174.470641 Q 429.802876 175.951045 429.176202 177.000044 C 428.92644 177.417827 428.472329 177.672129 427.986429 177.67667 Q 422.010317 177.681211 412.955327 177.794739 Q 411.938117 177.808363 411.824589 176.968256 Q 411.161586 172.059307 408.86378 167.5636 Q 408.250729 166.360203 406.348 163.285866 Z" style="fill:#142e5b;"/>
		<path d="M 134.462166 164.421146 Q 134.462166 164.430228 134.462166 164.43931 Q 134.271439 164.389358 134.144287 164.448393 Q 134.266897 164.375735 134.462166 164.421146 Z" style="fill:#142e5b;"/>
		<path d="M 134.934442 164.416605 Q 134.934442 164.430228 134.934442 164.443852 L 134.462166 164.43931 Q 134.462166 164.430228 134.462166 164.421146 Q 134.698304 164.334865 134.934442 164.416605 Z" style="fill:#b0d8d2;"/>
		<path d="M 135.511164 164.402981 L 134.934442 164.443852 Q 134.934442 164.430228 134.934442 164.416605 L 135.511164 164.402981 Z" style="fill:#142e5b;"/>
		<path d="M 136.855335 164.303077 Q 136.923452 164.343947 137.086932 164.339406 L 136.723642 164.975162 Q 136.560162 164.634579 136.855335 164.303077 Z" style="fill:#95d1db;"/>
		<path d="M 273.620195 164.947916 L 273.751887 168.085828 Q 273.629277 168.898689 273.829086 169.402753 Q 273.788216 169.865947 273.892662 170.097544 Q 273.770052 170.247401 273.688311 170.524409 Q 273.68377 171.273693 273.302316 172.000272 L 273.243282 169.266519 L 273.334104 164.59825 C 273.338645 164.452934 273.538454 164.421146 273.588407 164.55738 Q 273.6429 164.698154 273.620195 164.947916 Z" style="fill:#f1e9be;"/>
		<path d="M 274.578371 167.291133 Q 274.632864 167.023207 274.637405 166.732575 C 274.637405 166.714411 274.65557 166.700787 274.664652 166.714411 Q 274.673734 166.728034 274.678275 166.746199 Q 274.719145 167.054995 274.578371 167.291133 Z" style="fill:#f1e9be;"/>
		<path d="M 276.299454 169.588939 Q 276.217714 169.720631 276.263125 169.911358 Q 276.167762 170.424504 276.422065 170.637937 L 276.28129 170.842287 L 275.922542 170.556197 C 275.777226 170.442669 275.568334 170.538032 275.554711 170.719677 L 275.459348 172.263657 C 275.445724 172.463466 275.173257 172.508878 275.100599 172.322692 L 275.046106 172.181917 Q 275.018859 171.968485 274.932578 171.859498 L 274.6147 169.779666 C 274.6147 169.770583 274.605617 169.770583 274.601076 169.775124 Q 274.596535 169.784207 274.591994 169.788748 C 274.573829 169.815995 274.564747 169.8387 274.573829 169.847782 Q 274.669193 169.947687 274.637405 170.04305 C 274.610158 170.120249 274.501172 170.115708 274.478466 170.038509 Q 274.378561 169.71609 274.437596 169.529904 Q 274.732769 168.62168 274.546583 167.636258 L 274.632864 167.445531 L 274.800885 168.067664 C 274.846297 168.226603 275.000695 168.331049 275.164175 168.303802 C 275.332196 168.276555 275.445724 168.13124 275.436642 167.963218 L 275.368525 166.909679 C 275.363984 166.855185 275.400313 166.805233 275.450265 166.782527 L 275.454806 166.782527 C 275.5093 166.777986 275.559252 166.818856 275.563793 166.87335 L 275.759061 168.898689 C 275.759061 168.912312 275.749979 168.921394 275.736356 168.925935 C 275.722732 168.925935 275.71365 168.916853 275.709109 168.90323 Q 275.700027 168.857819 275.681862 168.753373 C 275.681862 168.744291 275.67278 168.739749 275.668239 168.739749 L 275.663698 168.744291 C 275.659157 168.744291 275.659157 168.744291 275.659157 168.748832 L 275.704568 170.147496 C 275.704568 170.197448 275.740897 170.233777 275.786308 170.238319 C 275.83626 170.238319 275.87713 170.197448 275.872589 170.152037 Q 275.854425 169.684302 275.87713 169.216567 C 275.881672 169.343718 275.881672 169.475411 276.008823 169.548069 Q 276.126892 169.611644 276.299454 169.588939 Z" style="fill:#cfe1c8;"/>
		<path d="M 274.546583 167.636258 Q 274.732769 168.62168 274.437596 169.529904 Q 274.378561 169.71609 274.478466 170.038509 C 274.501172 170.115708 274.610158 170.120249 274.637405 170.04305 Q 274.669193 169.947687 274.573829 169.847782 C 274.564747 169.8387 274.573829 169.815995 274.591994 169.788748 Q 274.596535 169.784207 274.601076 169.775124 C 274.605617 169.770583 274.6147 169.770583 274.6147 169.779666 L 274.932578 171.859498 Q 274.578371 171.369057 274.492089 170.728759 Q 274.428514 170.256483 273.688311 170.524409 Q 273.770052 170.247401 273.892662 170.097544 Q 274.546583 170.052133 273.829086 169.402753 Q 273.629277 168.898689 273.751887 168.085828 Q 273.774593 168.558105 274.097012 168.639845 C 274.233246 168.680715 274.378561 168.589893 274.401267 168.449118 L 274.546583 167.636258 Z" style="fill:#b0d8d2;"/>
		<path fill-opacity="0.329" d="M 273.892662 170.097544 Q 273.788216 169.865947 273.829086 169.402753 Q 274.546583 170.052133 273.892662 170.097544 Z" style="fill:#f1efe9;"/>
		<path fill-opacity="0.329" d="M 276.422065 170.637937 Q 276.167762 170.424504 276.263125 169.911358 Q 276.36303 169.847782 276.467476 169.893194 C 276.508346 169.911358 276.531051 169.947687 276.535593 169.993098 Q 276.558298 170.388175 276.422065 170.637937 Z" style="fill:#f1efe9;"/>
		<path fill-opacity="0.329" d="M 274.932578 171.859498 Q 275.018859 171.968485 275.046106 172.181917 L 273.529372 172.331774 Q 273.579325 171.90945 273.343186 171.900368 Q 273.320481 171.95032 273.302316 172.000272 Q 273.68377 171.273693 273.688311 170.524409 Q 274.428514 170.256483 274.492089 170.728759 Q 274.578371 171.369057 274.932578 171.859498 Z" style="fill:#f1efe9;"/>
		<path d="M 276.476558 171.269152 L 276.549216 171.759593 L 276.540134 173.798555 Q 276.07694 172.372644 276.24042 170.919486 Q 276.462935 170.964897 276.476558 171.269152 Z" style="fill:#b0d8d2;"/>
		<path fill-opacity="0.329" d="M 276.549216 171.759593 L 276.476558 171.269152 Q 276.612792 171.214659 276.549216 171.759593 Z" style="fill:#f1efe9;"/>
		<path d="M 273.343186 171.900368 Q 273.579325 171.90945 273.529372 172.331774 Q 273.638359 173.321738 273.379515 174.275373 Q 273.079802 173.035647 273.343186 171.900368 Z" style="fill:#b0d8d2;"/>
		<path d="M 294.400352 79.034499 C 294.395811 76.691282 294.463928 74.175502 297.511018 74.180043 Q 314.390355 74.20729 326.22905 74.193667 C 327.741242 74.189125 328.436034 74.193667 329.444162 75.188171 Q 330.643017 76.364321 331.523994 77.236216 Q 343.20375 88.761574 357.149525 104.719064 Q 361.463587 109.6598 361.972192 110.241064 C 363.270952 111.739633 362.957615 114.278118 360.732467 114.418892 Q 358.829738 114.541503 356.200431 114.536961 Q 315.775396 114.509715 297.815273 114.527879 Q 294.395811 114.53242 294.400352 111.36272 Q 294.418516 92.553408 294.400352 79.034499 Z" style="fill:#142e5b;"/>
		<path d="M 295.172342 122.552035 L 305.085603 122.565659 C 305.848511 122.565659 306.511514 123.083346 306.6977 123.819007 L 307.079154 125.340282 C 307.342539 126.38928 306.547843 127.406491 305.467057 127.406491 L 294.79997 127.406491 C 293.723725 127.406491 292.92903 126.398362 293.183332 125.353905 L 293.555704 123.823548 C 293.737349 123.078805 294.404893 122.552035 295.172342 122.552035 Z" style="fill:#142e5b;"/>
		<path fill-opacity="0.329" d="M 274.98253 156.183557 L 273.847251 154.81214 Q 273.801839 152.514334 274.369479 151.864954 Q 275.06427 151.061176 275.654616 150.121164 C 275.709109 150.034883 275.83626 150.057589 275.858966 150.157493 Q 276.780813 154.32624 275.799931 158.540398 C 275.781767 158.622138 275.663698 158.622138 275.640992 158.540398 L 274.98253 156.183557 Z" style="fill:#f1efe9;"/>
		<path d="M 273.847251 154.81214 L 274.98253 156.183557 L 275.59104 159.062626 C 275.618287 159.189778 275.790849 159.207942 275.845343 159.089873 Q 275.986117 158.785618 275.981576 158.367835 C 275.977035 158.308801 276.026987 158.258848 276.086022 158.26339 L 276.090563 158.26339 C 276.167762 158.258848 276.231338 158.331506 276.213173 158.408705 L 275.818096 160.343222 C 275.79539 160.443126 275.654616 160.452209 275.622828 160.352304 L 273.847251 154.81214 Z" style="fill:#95d1db;"/>
		<path fill-opacity="0.329" d="M 274.342232 166.646294 C 274.342232 166.678082 274.314986 166.705328 274.283198 166.705328 C 274.25141 166.705328 274.224163 166.678082 274.224163 166.646294 C 274.224163 166.614506 274.25141 166.587259 274.283198 166.587259 C 274.314986 166.587259 274.342232 166.614506 274.342232 166.646294 Z" style="fill:#f1efe9;"/>
		<path d="M 275.38669 167.536353 C 275.413936 167.695292 275.314032 167.840608 275.155093 167.872396 C 275.000695 167.904184 274.837214 167.80882 274.782721 167.658963 Q 274.65557 167.304756 274.805426 166.728034 C 274.837214 166.609965 274.991612 166.587259 275.055188 166.691705 Q 275.314032 167.127652 275.38669 167.536353 Z" style="fill:#ffffff;"/>
	</g>
	<g id="surface4">
	</g>
</svg>
