<?xml version="1.0" encoding="utf-8"?>
<svg xmlns="http://www.w3.org/2000/svg" width="490pt" height="280pt" viewBox="0 0 490 280" version="1.1" xmlns:xlink="http://www.w3.org/1999/xlink">
	<g id="surface2" data-size="134.76092115272 148" data-bboxpos="177.5 53.1649209083" data-pivot="244.88046057636 127.1649209083" data-center="244.88046057636 127.1649209083">
		<path vector-effect="non-scaling-stroke" d="M 256.238153 95.089395 L 256.098437 108.47705 C 256.094855 108.742152 256.324132 108.949935 256.585652 108.924857 L 258.903504 108.702745" style="fill:none;stroke-width:0.50;stroke:#0587d7;"/>
		<path vector-effect="non-scaling-stroke" d="M 263.621604 121.248521 L 263.686088 123.043334" style="fill:none;stroke-width:0.50;stroke:#0587d7;"/>
		<path vector-effect="non-scaling-stroke" d="M 263.592944 131.623327 Q 264.373921 132.02098 265.574045 131.942166 Q 267.383188 131.820362 267.426177 131.820362 Q 286.621 131.809615 305.812241 131.849022 Q 306.367522 131.849022 306.163322 131.293741" style="fill:none;stroke-width:0.50;stroke:#0587d7;"/>
		<path vector-effect="non-scaling-stroke" d="M 263.607274 138.365517 Q 263.28127 139.336364 263.686088 140.20332" style="fill:none;stroke-width:0.50;stroke:#0587d7;"/>
		<path vector-effect="non-scaling-stroke" d="M 256.431606 145.57701 Q 255.758103 145.229512 254.145996 145.566263" style="fill:none;stroke-width:0.50;stroke:#0587d7;"/>
		<path vector-effect="non-scaling-stroke" d="M 235.141044 145.688067 L 233.292494 145.985411" style="fill:none;stroke-width:0.50;stroke:#0587d7;"/>
		<path vector-effect="non-scaling-stroke" d="M 225.801569 140.221232 Q 226.349686 139.479663 225.955615 137.924875" style="fill:none;stroke-width:0.50;stroke:#0587d7;"/>
		<path vector-effect="non-scaling-stroke" d="M 183.413897 131.630492 Q 183.370908 131.698559 183.378072 131.763043 C 183.385237 131.806032 183.421062 131.838275 183.464052 131.838275 L 224.37575 131.838275 C 224.436652 131.838275 224.486806 131.78812 224.490389 131.727218 Q 224.493971 131.673481 224.468894 131.59825" style="fill:none;stroke-width:0.50;stroke:#0587d7;"/>
		<path vector-effect="non-scaling-stroke" d="M 227.800582 109.390577 Q 228.155246 109.963771 228.567229 109.429984" style="fill:none;stroke-width:0.50;stroke:#0587d7;"/>
		<path vector-effect="non-scaling-stroke" d="M 231.085698 108.677668 L 232.601079 108.878285 C 232.783785 108.89978 232.944995 108.756482 232.93783 108.570194 Q 232.76229 101.788596 233.020227 94.917437 Q 233.027392 94.68816 233.238757 93.251593 C 233.263834 93.07247 233.378473 92.918424 233.543266 92.843192 L 234.105712 92.57809 C 234.288418 92.492111 234.496201 92.62108 234.499783 92.821698 L 234.693236 104.905337" style="fill:none;stroke-width:0.50;stroke:#0587d7;"/>
		<path vector-effect="non-scaling-stroke" d="M 234.804292 108.752899 L 243.061864 108.774394" style="fill:none;stroke-width:0.50;stroke:#0587d7;"/>
		<path vector-effect="non-scaling-stroke" d="M 300.298834 144.735132 Q 299.510693 145.491031 299.657574 146.805794" style="fill:none;stroke-width:0.50;stroke:#0587d7;"/>
		<path d="M 256.238153 95.089395 L 256.098437 108.47705 C 256.094855 108.742152 256.324132 108.949935 256.585652 108.924857 L 258.903504 108.702745 Q 259.956747 108.831713 261.189114 109.519546 C 261.24285 109.548206 261.293005 109.58403 261.335994 109.630602 L 262.751066 111.042092 C 262.790473 111.081499 262.819133 111.128071 262.837045 111.178225 Q 263.163049 112.041598 263.102147 112.550307 C 263.084235 112.707936 263.220369 112.840487 263.377997 112.818992 C 263.926113 112.747343 264.112401 112.399844 264.449153 112.08817 Q 267.204065 109.523128 268.937975 107.506203 C 269.869415 106.4243 270.739953 105.729303 271.778867 104.622322 Q 274.232852 102.017874 279.495486 96.791064 C 280.201231 96.092484 280.949965 95.193287 281.895735 94.41231 C 282.239651 94.129296 282.347125 93.649246 282.160837 93.244428 C 281.555401 91.929665 281.605556 89.661968 283.332302 89.131763 Q 284.227917 88.859496 285.492525 88.486921 C 285.610746 88.454678 285.71822 88.393777 285.807782 88.307798 C 286.671155 87.516074 287.505868 86.487908 288.351329 87.118421 C 288.731069 87.401435 288.784806 87.978211 288.473132 88.415271 Q 287.226436 90.15993 287.147622 92.398967 Q 287.140457 92.692729 286.309326 94.089889 C 286.248424 94.19378 286.144533 94.269012 286.022729 94.290507 C 284.56825 94.569938 283.998639 94.792051 283.178256 95.805887 Q 282.827175 96.239365 282.440269 96.629853 Q 273.176026 105.912008 263.829387 115.430606 C 263.671759 115.591816 263.582197 115.810346 263.58578 116.036041 L 263.621604 121.248521 L 263.686088 123.043334 L 263.592944 131.623327 Q 264.373921 132.02098 265.574045 131.942166 Q 267.383188 131.820362 267.426177 131.820362 Q 286.621 131.809615 305.812241 131.849022 Q 306.367522 131.849022 306.163322 131.293741 Q 307.954552 129.008131 310.65931 130.219002 C 310.766784 130.265574 310.86351 130.330059 310.949489 130.408873 C 311.726883 131.121782 312.4792 132.647911 312.063634 133.715484 Q 310.852763 136.81073 307.564064 135.904367 C 307.381359 135.854213 307.220148 135.746739 307.098344 135.60344 L 305.805076 134.080895 C 305.647448 133.894607 305.41817 133.787133 305.174563 133.787133 L 264.191215 133.787133 C 263.868794 133.787133 263.607274 134.048653 263.607274 134.371074 L 263.607274 138.365517 Q 263.28127 139.336364 263.686088 140.20332 Q 263.496218 141.897823 262.718824 143.33439 C 262.657922 143.445446 262.586273 143.549338 262.500294 143.646064 Q 261.629756 144.609746 260.329323 145.283249 C 260.17886 145.362063 260.128705 145.548351 260.214684 145.688067 C 260.598008 146.322162 261.124629 146.69832 261.615426 147.23569 Q 266.552057 152.655952 271.986649 158.165776 Q 272.438039 158.620749 272.878682 159.068556 Q 274.4478 160.652004 276.679673 163.263618 Q 277.073743 163.729337 277.682761 163.840394 Q 278.786159 164.037429 279.839403 165.262631 C 279.928964 165.366522 279.986284 165.491908 280.004196 165.624459 Q 280.247803 167.354787 279.943294 168.21816 Q 279.276956 170.1097 277.267196 169.443362 Q 276.90895 169.325141 275.737485 168.569242 C 274.297336 167.644967 273.820869 166.19407 274.766639 164.736009 Q 274.91352 164.506731 274.978004 164.302531 C 275.013828 164.180728 274.981586 164.048176 274.892025 163.955033 Q 271.571084 160.612597 269.819261 158.73897 Q 266.741927 155.446689 264.821728 153.462006 Q 261.464963 149.994184 257.889667 145.920927 Q 257.574411 145.562681 256.431606 145.57701 Q 255.758103 145.229512 254.145996 145.566263 Q 250.302016 145.727474 246.443706 145.551933 Q 245.66273 145.516109 245.659147 146.451131 Q 245.605411 179.893399 245.669895 194.692543 C 245.669895 194.943315 245.834688 195.161846 246.074713 195.237077 Q 246.75538 195.44486 247.51128 196.286738 C 247.590094 196.3763 247.654578 196.480191 247.70115 196.591247 C 248.256431 197.959747 248.088056 199.593349 246.844942 200.506877 Q 245.788116 201.280688 244.387374 201.144554 C 242.366866 200.954684 241.39602 199.152706 241.707694 197.232508 C 241.897564 196.053878 242.610474 195.645478 243.566991 195.172593 C 243.735366 195.090196 243.839258 194.918238 243.839258 194.73195 L 243.839258 146.307832 C 243.839258 145.899432 243.506089 145.569845 243.101271 145.57701 L 235.141044 145.688067 L 233.292494 145.985411 Q 232.232086 145.068301 230.465933 145.860025 C 230.336964 145.917344 230.222325 145.996158 230.125599 146.092885 C 222.874699 153.411851 219.252831 157.008642 216.39761 160.050151 Q 215.143749 161.382826 213.205638 163.102407 C 212.754248 163.50006 212.614532 164.195057 212.747083 164.943792 Q 212.904712 165.860901 212.671852 167.129092 C 212.646774 167.261644 212.585873 167.383447 212.499893 167.483756 Q 211.7225 168.379371 210.583277 168.905993 Q 209.981424 169.185425 209.816631 169.762201 Q 209.637508 170.378384 208.967587 170.897841 C 208.795629 171.030392 208.552022 171.023227 208.387229 170.876346 Q 207.889267 170.428539 207.699396 169.966401 C 207.681484 169.919829 207.670737 169.866092 207.670737 169.812355 L 207.64566 164.879307 C 207.642077 164.768251 207.670737 164.660777 207.720891 164.564051 Q 208.31558 163.442741 209.712739 163.188386 Q 210.479386 163.052252 210.690751 162.987768 C 210.844797 162.944779 210.988095 162.8588 211.099151 162.744161 Q 217.873584 155.82643 223.612686 150.090911 C 225.06 148.643597 226.539556 146.884608 228.309291 145.422965 C 228.545734 145.229512 228.524239 144.860518 228.266302 144.695725 Q 227.06976 143.921914 226.378345 142.492512 Q 226.13832 141.998132 225.801569 140.221232 Q 226.349686 139.479663 225.955615 137.924875 L 225.905461 134.281513 C 225.901878 134.005663 225.679765 133.783551 225.403916 133.783551 L 184.603274 133.783551 C 184.176961 133.783551 183.775726 133.980586 183.514206 134.313755 L 182.446633 135.664342 C 182.407226 135.714497 182.353489 135.753904 182.292587 135.778981 Q 180.118033 136.638772 178.581158 135.320426 C 176.646629 133.661747 177.424023 130.437532 179.95324 129.943153 Q 181.246508 129.688798 182.385731 130.319311 Q 183.213279 130.777866 183.413897 131.630492 Q 183.370908 131.698559 183.378072 131.763043 C 183.385237 131.806032 183.421062 131.838275 183.464052 131.838275 L 224.37575 131.838275 C 224.436652 131.838275 224.486806 131.78812 224.490389 131.727218 Q 224.493971 131.673481 224.468894 131.59825 L 225.529302 131.626909 C 225.747832 131.634074 225.926955 131.458534 225.926955 131.240004 L 225.926955 123.666682 C 225.926955 123.329931 225.651106 123.057664 225.310772 123.061246 Q 212.743501 123.18305 194.93509 123.114983 C 194.103959 123.111401 193.777955 123.021839 193.147442 122.423568 Q 188.139162 117.673226 187.286537 116.928074 Q 186.484066 116.229494 186.032676 115.914238 C 185.900125 115.821094 185.721002 115.835424 185.60278 115.94648 C 184.732243 116.766863 183.410315 117.160934 182.26751 116.605653 C 180.22909 115.613311 181.239344 113.642958 180.20043 112.496571 C 180.161023 112.453581 180.118033 112.417756 180.067879 112.392679 C 179.229583 111.941289 178.287396 111.457657 178.602653 110.322017 C 178.731621 109.863462 179.190176 109.605525 179.584247 109.770318 C 180.68048 110.232456 181.067385 111.224797 182.597096 111.1424 Q 183.736318 111.085081 185.079741 111.561548 C 185.226622 111.615285 185.344843 111.722759 185.41291 111.866058 L 186.387339 113.947467 C 186.433911 114.047776 186.516308 114.12659 186.616617 114.16958 Q 187.623288 114.635299 188.698026 115.69929 Q 191.614149 118.597501 194.03231 120.858033 C 194.297412 121.105223 194.648493 121.244939 195.010322 121.241357 Q 205.546338 121.191202 219.016389 121.237774 C 219.478526 121.241357 219.962159 121.409732 220.137699 121.402567 C 220.689398 121.37749 220.836279 120.628756 220.338317 120.395896 Q 219.521516 120.00899 218.93041 119.303245 Q 218.607989 118.923505 218.156599 118.490027 Q 212.528553 113.091259 206.502855 107.147957 C 206.137444 106.786129 206.072959 106.223682 206.341644 105.790205 L 206.373886 105.74005 C 206.613911 105.356727 207.147698 105.28866 207.473701 105.603917 C 210.683586 108.702745 214.85357 112.876311 218.980564 116.731039 Q 220.402801 118.063714 222.057898 119.869274 C 223.075317 120.979837 224.135725 121.642592 225.597369 121.488546 C 225.812317 121.463469 225.973527 121.280764 225.969945 121.065816 Q 225.909043 117.866679 225.944868 113.757597 C 225.952032 113.309789 226.217135 111.848145 226.697184 111.292864 C 227.026771 110.909541 226.729426 110.47248 226.37118 110.171554 Q 225.615281 109.541041 224.612192 108.534369 Q 216.784516 100.688781 209.716322 93.441463 C 209.390318 93.108295 208.938928 92.918424 208.469625 92.918424 L 206.936332 92.918424 C 206.707055 92.918424 206.484942 92.82528 206.323732 92.664069 L 205.639482 91.97982 C 205.496183 91.836521 205.420952 91.646651 205.424534 91.446033 L 205.499766 88.314962 C 205.503348 88.12151 205.557085 87.928057 205.657394 87.759681 Q 205.943991 87.279631 207.040224 87.17574 Q 209.21836 86.975122 210.439979 88.336457 Q 210.637014 88.55857 210.884204 89.443438 C 210.920028 89.575989 210.934358 89.715705 210.923611 89.851838 L 210.823302 91.388714 C 210.801807 91.739795 210.927193 92.083711 211.174383 92.334483 Q 218.873091 100.154994 227.510403 108.763647 Q 227.696691 108.946352 227.800582 109.390577 Q 228.155246 109.963771 228.567229 109.429984 Q 229.82109 108.774394 231.085698 108.677668 L 232.601079 108.878285 C 232.783785 108.89978 232.944995 108.756482 232.93783 108.570194 Q 232.76229 101.788596 233.020227 94.917437 Q 233.027392 94.68816 233.238757 93.251593 C 233.263834 93.07247 233.378473 92.918424 233.543266 92.843192 L 234.105712 92.57809 C 234.288418 92.492111 234.496201 92.62108 234.499783 92.821698 L 234.693236 104.905337 Q 234.825787 106.306079 234.557103 107.850119 Q 234.492618 108.233443 234.804292 108.752899 L 243.061864 108.774394 L 243.584903 108.641843 C 243.738949 108.602436 243.850005 108.46272 243.850005 108.301509 L 243.850005 59.780665 C 243.850005 59.522728 243.713871 59.286285 243.491759 59.160899 L 242.323877 58.487397 C 242.25581 58.44799 242.198491 58.39067 242.159084 58.322604 Q 241.35303 56.986346 241.739936 55.116301 C 242.073105 53.504194 244.06137 52.95966 245.408375 53.224762 Q 246.945251 53.532854 247.67249 54.76522 Q 248.510786 56.194622 247.625918 58.064666 C 247.557851 58.211547 247.45396 58.336933 247.321409 58.430077 L 246.08546 59.297033 C 245.988734 59.3651 245.913502 59.461826 245.870513 59.572882 Q 245.655565 60.163988 245.655565 60.962877 Q 245.644818 103.175008 245.63407 108.455555 C 245.63407 108.573776 245.727214 108.670503 245.845435 108.670503 L 254.257053 108.670503 C 254.432593 108.670503 254.575892 108.530787 254.575892 108.355246 Q 254.579474 104.697554 254.583056 91.45678 C 254.583056 90.417867 254.722772 90.045291 255.489419 89.386118 Q 257.506344 87.662955 259.548347 85.477654 C 260.737724 84.202298 261.303752 83.75449 262.425062 82.67617 C 262.661505 82.450475 262.794056 82.135218 262.794056 81.809214 Q 262.837045 74.511742 262.786891 70.313099 Q 262.772561 69.10581 263.54279 68.650837 Q 264.201963 68.256766 266.698938 67.73731 C 266.767004 67.719397 266.831489 67.690738 266.892391 67.647748 L 268.397024 66.533603 C 268.730193 66.286413 269.20666 66.408217 269.385783 66.784375 L 269.493257 67.01007 C 269.640138 67.321744 269.593566 67.69432 269.371453 67.959422 L 268.010118 69.593024 C 267.963546 69.646761 267.931304 69.711245 267.913392 69.782895 C 267.490661 71.276781 266.974787 72.630951 265.37701 72.89247 C 265.265954 72.910383 265.165645 72.974867 265.10116 73.071593 Q 264.639023 73.763008 264.642605 74.250223 Q 264.67843 79.466285 264.610363 82.156713 C 264.596033 82.737072 264.352426 83.285188 263.940443 83.690006 Q 260.701899 86.849736 257.133768 90.425032 C 256.617894 90.940906 256.374287 91.349306 256.402946 92.1267 Q 256.456683 93.663576 256.238153 95.089395 Z M 259.011694 114.437978 C 259.010978 114.105095 258.742293 113.832828 258.407297 113.831503 L 231.223623 113.784035 C 230.888663 113.782674 230.616396 114.054941 230.617148 114.388432 L 230.57269 139.852525 C 230.573406 140.185407 230.842091 140.457674 231.177087 140.459 L 258.360761 140.506467 C 258.695721 140.507829 258.967988 140.235562 258.967236 139.902071 L 259.011694 114.437978 Z" style="fill:#0476c8;"/>
		<path d="M 234.693236 104.905337 L 234.499783 92.821698 C 234.496201 92.62108 234.288418 92.492111 234.105712 92.57809 L 233.543266 92.843192 C 233.378473 92.918424 233.263834 93.07247 233.238757 93.251593 Q 233.027392 94.68816 233.020227 94.917437 Q 232.76229 101.788596 232.93783 108.570194 C 232.944995 108.756482 232.783785 108.89978 232.601079 108.878285 L 231.085698 108.677668 L 232.461363 108.674085 C 232.626156 108.674085 232.758707 108.537952 232.758707 108.373159 L 232.758707 92.395385 C 232.758707 92.173272 232.672728 91.961907 232.5151 91.804279 L 221.66741 80.956589 C 221.427385 80.716564 221.291251 80.39056 221.291251 80.050226 L 221.291251 73.680612 C 221.291251 73.451334 221.165865 73.243551 220.961665 73.136078 C 220.427878 72.856646 219.929916 72.870975 219.403295 72.494817 Q 218.224665 71.656521 218.192423 70.151888 Q 218.174511 69.460473 218.693968 67.798211 C 218.754869 67.611924 218.783529 67.418471 218.783529 67.221435 L 218.783529 65.46603 C 218.787112 64.978815 219.206259 64.602657 219.689892 64.656394 L 219.765123 64.667141 C 220.245173 64.699383 220.607001 65.114949 220.578342 65.594998 C 220.510275 66.755715 221.058392 67.282337 222.068645 68.095556 Q 223.143383 68.962511 223.136219 70.764489 Q 223.107559 77.338304 223.24011 79.448373 Q 223.283099 80.1577 224.687424 81.519035 Q 224.698171 81.529782 233.740302 90.360547 Q 234.001821 90.614902 234.234681 90.77253 C 234.34932 90.851344 234.435299 90.969566 234.474706 91.102117 Q 234.797127 92.194767 234.811457 92.710641 Q 234.979833 97.898044 234.693236 104.905337 Z" style="fill:#0697e5;"/>
		<path d="M 256.238153 95.089395 L 256.345627 108.301509 C 256.349209 108.509292 256.517585 108.677668 256.725368 108.68125 L 258.903504 108.702745 L 256.585652 108.924857 C 256.324132 108.949935 256.094855 108.742152 256.098437 108.47705 L 256.238153 95.089395 Z" style="fill:#0697e5;"/>
		<path d="M 243.061864 108.774394 L 234.804292 108.752899 L 243.061864 108.774394 Z" style="fill:#0697e5;"/>
		<path d="M 228.567229 109.429984 Q 228.155246 109.963771 227.800582 109.390577 L 228.567229 109.429984 Z" style="fill:#0697e5;"/>
		<path d="M 263.686088 123.043334 L 263.621604 121.248521 L 296.59457 121.234192 C 297.010136 121.234192 297.407789 121.058651 297.690803 120.754142 Q 300.141206 118.106704 302.716995 115.584651 Q 303.605445 114.714114 304.397169 114.151667 C 304.547632 114.047776 304.665854 113.904478 304.744668 113.736102 C 305.0241 113.123501 304.999022 112.159819 305.539974 111.726342 C 306.793835 110.723253 307.976047 111.1424 309.237073 112.1025 Q 309.573824 112.360437 311.669564 113.797004 Q 312.364561 114.273471 312.242757 114.886072 C 312.142449 115.394781 311.698223 115.763774 311.178767 115.774522 Q 308.971971 115.821094 307.614219 115.953645 C 306.969376 116.018129 306.174069 115.767357 305.468325 115.824676 C 305.335774 115.835424 305.21397 115.892743 305.120826 115.985887 L 298.432372 122.860629 C 298.396548 122.900036 298.346393 122.928695 298.296239 122.943025 Q 297.386294 123.172303 297.124774 123.172303 Q 282.691041 123.308436 263.686088 123.043334 Z" style="fill:#0697e5;"/>
		<path d="M 306.163322 131.293741 Q 306.367522 131.849022 305.812241 131.849022 Q 286.621 131.809615 267.426177 131.820362 Q 267.383188 131.820362 265.574045 131.942166 Q 264.373921 132.02098 263.592944 131.623327 L 305.539974 131.576755 C 305.633118 131.576755 305.722679 131.551678 305.801494 131.505106 L 306.163322 131.293741 Z" style="fill:#0697e5;"/>
		<path d="M 224.468894 131.59825 Q 224.493971 131.673481 224.490389 131.727218 C 224.486806 131.78812 224.436652 131.838275 224.37575 131.838275 L 183.464052 131.838275 C 183.421062 131.838275 183.385237 131.806032 183.378072 131.763043 Q 183.370908 131.698559 183.413897 131.630492 L 224.468894 131.59825 Z" style="fill:#0697e5;"/>
		<path d="M 225.801569 140.221232 L 213.191308 140.17466 C 213.012185 140.17466 212.836645 140.221232 212.682599 140.307211 Q 211.819226 140.794426 211.177966 141.55749 Q 209.307921 143.78578 207.086796 146.311415 C 206.882595 146.540692 206.592416 146.673243 206.284325 146.673243 L 197.00217 146.673243 C 196.661836 146.673243 196.360909 146.891773 196.257018 147.214195 C 195.877277 148.382077 195.271841 149.320682 194.03231 149.797149 C 193.487776 150.004931 192.499017 149.768489 191.76103 149.779236 C 191.653556 149.782819 191.553247 149.811479 191.460103 149.861633 L 189.436013 150.957866 C 188.941634 151.226551 188.33978 150.868304 188.33978 150.305858 L 188.33978 150.1339 C 188.33978 150.101658 188.346945 150.072998 188.357692 150.044339 Q 188.758928 149.188131 189.747687 148.53254 Q 190.693457 147.90561 191.026626 146.984917 Q 191.452938 145.802705 191.725205 145.508944 C 192.531259 144.645571 193.613162 144.29449 194.752384 144.645571 Q 195.511866 144.882013 195.741143 144.878431 Q 201.401431 144.839024 204.92299 144.874848 C 205.367215 144.878431 205.79711 144.71722 206.130279 144.419876 Q 206.94708 143.696219 207.685067 142.531919 C 207.742386 142.442357 207.810453 142.359961 207.885684 142.284729 Q 209.1897 141.020121 210.898534 138.949459 Q 211.428738 138.301033 212.399585 138.311781 Q 219.700639 138.394177 225.206881 138.38343 Q 225.704843 138.38343 225.955615 137.924875 Q 226.349686 139.479663 225.801569 140.221232 Z" style="fill:#0697e5;"/>
		<path d="M 300.298834 144.735132 Q 299.510693 145.491031 299.657574 146.805794 Q 291.58629 146.562187 286.019147 146.71265 C 284.890672 146.74131 284.299566 146.673243 283.536502 145.831365 Q 283.042122 145.286831 279.334276 141.442851 Q 278.682268 140.765766 278.202218 140.429015 C 278.005183 140.292881 277.76874 140.21765 277.528716 140.214067 L 263.686088 140.20332 Q 263.28127 139.336364 263.607274 138.365517 Q 270.911911 138.38343 278.130569 138.318945 Q 278.890051 138.311781 279.434585 138.881392 Q 282.275476 141.869164 285.184434 144.753044 C 285.2525 144.817529 285.338479 144.853353 285.431623 144.853353 L 300.298834 144.735132 Z" style="fill:#0697e5;"/>
		<path d="M 299.657574 146.805794 Q 299.510693 145.491031 300.298834 144.735132 Q 301.86437 143.563668 303.673512 144.677813 Q 304.32552 145.079048 304.372092 145.88152 Q 304.440159 147.009995 304.920208 148.34267 C 304.948868 148.421484 304.988275 148.496716 305.034847 148.564782 L 306.095255 150.087328 C 306.331698 150.431244 306.249301 150.900547 305.905385 151.140571 L 305.844483 151.183561 C 305.450412 151.47374 304.895131 151.398509 304.594204 151.011603 Q 303.737996 149.90104 301.699576 149.295604 Q 300.148371 148.829884 299.657574 146.805794 Z" style="fill:#0476c8;"/>
		<path d="M 256.431606 145.57701 Q 256.023206 147.704992 256.076942 149.926117 Q 256.162922 153.33662 256.159339 153.533655 Q 256.11635 158.950335 256.338462 164.535391 C 256.349209 164.771833 256.431606 164.997528 256.574904 165.183816 C 258.459279 167.598395 260.827285 169.443362 261.579602 170.611244 Q 262.063234 171.370726 262.077564 172.957756 Q 262.106223 177.460908 262.070399 182.100195 C 262.066816 182.612487 261.665581 183.035217 261.153289 183.063877 L 261.09597 183.067459 C 260.605172 183.096119 260.189607 182.702048 260.189607 182.211251 Q 260.19319 176.629778 260.254091 173.767392 Q 260.275586 172.699818 259.935252 171.6824 C 259.885098 171.539101 259.806284 171.410133 259.702392 171.302659 Q 256.754027 168.314887 255.102513 166.537986 Q 254.694113 166.100926 254.343032 165.27696 C 254.278547 165.122915 254.242723 164.958121 254.242723 164.793328 L 254.145996 145.566263 Q 255.758103 145.229512 256.431606 145.57701 Z" style="fill:#0697e5;"/>
		<path d="M 235.141044 145.688067 Q 235.20911 155.203082 235.205528 164.728844 C 235.205528 165.889561 234.385144 166.67412 233.310406 167.773935 Q 231.304228 169.826685 228.610218 172.409639 Q 228.108674 172.889689 227.750428 173.946515 C 227.732515 173.993087 227.72535 174.039659 227.72535 174.089813 L 227.76834 181.168755 C 227.771922 181.602233 227.374269 181.928237 226.947956 181.842258 L 226.811823 181.824345 C 226.346103 181.763443 225.998604 181.36579 225.998604 180.90007 L 225.998604 173.19778 C 225.998604 173.144044 226.005769 173.086724 226.020099 173.032987 L 226.270871 172.033481 C 226.299531 171.933172 226.353268 171.847193 226.424917 171.775544 Q 230.319052 167.935146 232.579584 165.821494 Q 232.855434 165.563557 233.149196 164.847065 C 233.195768 164.736009 233.220845 164.614205 233.220845 164.492402 L 233.292494 145.985411 L 235.141044 145.688067 Z" style="fill:#0697e5;"/>
	</g>
	<g id="surface4">
	</g>
</svg>
