<?xml version="1.0" encoding="utf-8"?>
<svg xmlns="http://www.w3.org/2000/svg" width="490pt" height="280pt" viewBox="0 0 490 280" version="1.1" xmlns:xlink="http://www.w3.org/1999/xlink">
	<g id="surface2" data-size="319.40739970122 148" data-bboxpos="85.5 54.553872985621" data-pivot="245.20369985061 128.55387298562" data-center="245.20369985061 128.55387298562">
		<path d="M 242.151524 77.664693 C 242.018939 77.604816 241.860692 77.6262 241.749492 77.72457 Q 214.834731 101.157905 192.530507 120.814705 Q 191.987336 121.293722 190.657209 121.31083 Q 187.013259 121.353599 181.996412 121.297999 Q 180.465269 121.280891 179.703974 120.789043 C 179.567112 120.699228 179.447358 120.592304 179.344712 120.463996 Q 178.827202 119.818179 175.837624 116.238383 Q 174.819713 115.015179 175.525407 113.64656 C 175.593838 113.518251 175.683654 113.398497 175.794854 113.304405 C 183.583156 106.555399 189.729113 100.901289 197.919447 93.592004 Q 208.868404 83.832035 213.906635 79.392575 Q 217.080122 76.599736 217.815755 75.889764 C 219.607792 74.157605 221.220197 72.92157 223.042172 71.223626 Q 227.447416 67.126321 230.20604 64.812499 Q 232.430047 62.947754 235.261379 60.257561 Q 236.689876 58.906049 240.380872 55.758224 C 241.535645 54.774529 242.211401 53.867818 243.72116 55.27493 Q 244.897317 56.365549 245.970828 57.315029 Q 255.042211 65.338562 261.333584 70.924241 Q 263.450668 72.801816 276.418339 84.396591 Q 297.050281 102.847295 309.179673 113.727821 C 309.474781 113.992991 309.61592 114.390746 309.556043 114.784225 Q 309.363581 116.024536 308.294347 117.157924 Q 306.900066 118.642021 305.112306 120.57092 Q 304.483596 121.250953 302.922515 121.293722 Q 299.911551 121.383538 293.838302 121.332214 C 292.75196 121.323661 292.200235 121.00289 291.344848 120.250149 Q 263.476329 95.704811 244.580824 79.264267 Q 243.340512 78.186479 242.151524 77.664693 Z" style="fill:#f7a121;"/>
		<path d="M 388.777738 129.933134 C 388.255952 129.920303 387.759827 129.727841 387.374903 129.381409 C 383.042366 125.48512 379.424078 121.999416 374.92474 118.056081 Q 374.12923 117.35894 369.411769 113.082004 Q 368.376751 112.145355 364.882494 108.946206 Q 357.74001 102.398217 354.613569 99.75507 Q 353.963475 99.203345 353.210734 99.455684 C 353.095257 99.494177 352.988333 99.566885 352.911348 99.665254 Q 352.552086 100.114332 351.812176 100.785811 Q 345.225693 106.739307 320.265492 129.218885 Q 319.410105 129.988734 318.002993 129.984457 Q 307.691299 129.963072 305.702523 129.988734 Q 302.584637 130.03578 303.089315 126.524415 Q 303.213346 125.656197 303.769348 125.108749 C 305.069537 123.825668 306.403941 122.927512 307.789668 121.597384 Q 312.46436 117.110878 316.604434 113.372836 C 322.617807 107.945403 329.011827 101.991908 335.850649 95.833119 Q 345.255632 87.356231 352.355347 80.799687 Q 354.228645 79.071805 355.836773 80.774026 Q 356.628006 81.608028 356.709268 81.685013 Q 366.370867 90.538272 378.82103 102.158708 Q 382.131378 105.246656 384.992649 107.799987 C 387.785489 110.289164 390.347373 112.936588 393.307014 115.541242 Q 396.638747 118.483775 403.469015 124.899179 C 404.238863 125.617705 405.042927 126.438877 404.888958 127.469618 C 404.709326 128.679991 404.213202 129.933134 402.801813 129.950241 Q 394.906588 130.031503 388.777738 129.933134 Z" style="fill:#e9312b;"/>
		<path d="M 132.195764 100.469318 Q 132.178656 100.507811 132.13161 100.627565 Q 132.08884 100.734488 132.050348 100.772981 Q 129.860556 102.791695 112.799857 119.035499 Q 104.635185 126.81097 101.765361 129.377132 Q 101.12382 129.950241 99.460092 129.954518 Q 93.776043 129.98018 87.292207 129.950241 C 85.239278 129.941688 85.205062 126.990601 85.90648 125.630536 C 85.957803 125.532166 86.021957 125.44235 86.103219 125.365366 Q 120.695081 91.765752 131.173576 81.377074 C 132.238533 80.32067 132.880074 80.538794 133.919369 81.539597 Q 140.11665 87.493093 147.763813 94.468776 Q 150.860315 97.291554 153.657431 99.986024 C 159.935974 106.033613 166.676426 112.192401 172.582875 117.726757 C 174.999344 119.993533 178.519263 123.004497 181.072594 125.532166 C 181.812504 126.263522 181.782565 127.354141 181.624319 128.342113 Q 181.376256 129.911749 179.323327 129.92458 Q 173.600786 129.950241 166.16747 129.941688 C 164.307003 129.941688 162.279735 127.195894 160.782807 125.976967 C 158.618677 124.223423 156.445994 121.905324 154.157833 119.835287 Q 147.09661 113.43699 140.869391 107.748664 Q 136.31873 103.591482 133.992077 101.299044 Q 133.483122 100.794365 132.572134 100.336733 C 132.430995 100.268302 132.259918 100.328179 132.195764 100.469318 Z" style="fill:#247ace;"/>
		<path d="M 92.92921 202.345945 Q 93.959951 201.644528 95.166048 201.336588 Q 96.278051 201.050034 96.58599 200.793417 C 97.065007 200.399939 97.860518 200.417047 98.553381 200.139046 Q 109.540831 195.768017 115.763774 193.668041 Q 127.379933 189.746091 140.599944 186.384418 Q 142.088318 186.003771 143.144721 185.819863 Q 144.479125 185.584631 145.355897 185.221092 C 145.548359 185.13983 145.749375 185.092784 145.954668 185.075676 C 147.430211 184.960199 149.025509 184.331489 150.706345 184.100534 Q 151.694317 183.963672 153.387984 183.441886 C 153.541954 183.39484 153.7002 183.360624 153.858447 183.347794 Q 155.616268 183.18527 157.622151 182.629268 C 157.784675 182.582222 157.951475 182.552283 158.118276 182.539453 C 159.948805 182.381206 161.834934 181.701173 163.584201 181.55148 Q 164.165864 181.504434 166.26584 181.098125 Q 167.754214 180.807293 169.54625 180.610554 C 170.863547 180.460861 172.493059 179.994675 173.908725 179.896306 Q 175.632331 179.776552 177.458583 179.43012 Q 179.674036 179.01098 181.012717 179.032365 Q 181.645703 179.040918 186.093717 178.335224 Q 186.77375 178.228301 192.462076 177.74073 Q 193.937619 177.612422 195.250638 177.415683 C 196.366919 177.248882 197.7056 177.351529 198.967296 177.137682 C 200.934687 176.804081 203.308387 176.953773 205.434024 176.645834 C 207.131968 176.397772 209.659637 176.598788 211.742506 176.31651 C 212.65777 176.196756 213.709896 176.089832 214.565284 176.085555 Q 221.066227 176.042786 227.76391 175.6322 C 227.999141 175.619369 228.178772 175.426907 228.178772 175.191676 L 228.178772 140.364582 C 228.178772 139.975381 228.490989 139.663164 228.88019 139.663164 Q 251.8174 139.663164 256.731601 139.646056 Q 257.574157 139.646056 257.561326 140.642583 Q 257.480064 146.938233 257.518557 172.753822 Q 257.518557 173.647702 257.385972 174.772536 C 257.356033 175.033429 257.531388 175.268661 257.783727 175.319984 Q 258.450929 175.456846 259.729733 175.512446 C 263.129897 175.662139 269.134716 175.508169 273.659715 175.918755 C 276.161723 176.145432 279.001609 176.021401 282.021126 176.282294 Q 286.156924 176.641557 290.395368 176.936666 Q 291.695556 177.026481 292.354205 177.146236 C 293.962333 177.43279 295.480645 177.300205 297.225635 177.608145 C 298.427454 177.821992 299.629274 177.732176 301.10054 177.90753 Q 303.713748 178.224024 310.193307 179.049472 Q 324.533875 180.86717 334.674491 182.941485 Q 337.800932 183.578748 340.773403 184.168965 C 346.406128 185.285246 353.120918 186.948974 357.243885 188.031039 Q 369.236415 191.183141 381.062144 195.421585 Q 383.033812 196.131557 385.441727 197.102421 Q 387.622965 197.979193 389.812756 198.817473 Q 392.212118 199.72846 396.352192 201.298096 Q 397.626719 201.777113 398.871308 202.448592 C 398.89697 202.461423 398.9098 202.495638 398.89697 202.5213 C 398.884139 202.546961 398.8542 202.559792 398.824262 202.551238 L 397.541181 202.114991 C 397.447088 202.085052 397.352995 202.067945 397.254626 202.067945 C 395.99293 202.093606 394.829603 201.567543 393.683384 201.443512 C 391.788701 201.242496 390.227619 200.660832 388.602383 200.365724 C 385.287758 199.766953 383.893476 199.608706 381.027929 198.898735 Q 379.377031 198.488149 375.643266 197.970639 C 373.804183 197.714023 371.811131 197.213622 370.292818 196.991221 Q 364.989417 196.208542 361.217159 195.447247 C 360.370326 195.276169 359.254045 195.220569 358.133488 195.049492 Q 350.879804 193.937488 346.346251 193.342994 C 343.142825 192.923854 340.786233 192.727115 337.655516 192.260929 Q 334.383659 191.777635 332.895286 191.662158 Q 332.022791 191.58945 331.903036 191.585173 Q 329.794507 191.503911 327.720192 191.144649 C 327.407976 191.089049 327.091483 191.05911 326.770713 191.054833 Q 324.93163 191.029171 323.541625 190.691293 C 323.327779 190.635693 323.105378 190.610032 322.882977 190.614309 Q 320.830048 190.622863 319.12355 190.289261 C 318.819888 190.229384 318.516225 190.195169 318.204009 190.190892 Q 316.074094 190.160953 315.287138 190.015538 Q 313.875749 189.750367 312.370267 189.750367 Q 311.484941 189.746091 304.637566 189.241412 Q 303.743686 189.172981 303.243285 189.074612 C 302.678729 188.963411 302.221097 188.903534 301.955927 188.903534 Q 299.607889 188.912088 297.820129 188.706795 Q 294.958859 188.373194 293.688609 188.407409 C 291.066847 188.480117 288.830009 188.009654 286.251016 188.031039 C 282.684051 188.060978 278.561084 187.654669 275.554398 187.641838 C 272.329588 187.633284 269.177486 187.564853 265.999722 187.30396 Q 264.738026 187.201313 264.147808 187.197036 Q 250.70112 187.14999 231.933923 187.175652 Q 228.704836 187.179929 225.758026 187.393775 C 221.64789 187.688884 217.610462 187.56913 213.085464 187.855685 C 209.847823 188.060978 205.545225 187.907008 201.884167 188.19784 Q 198.762003 188.450179 197.170983 188.454456 C 195.152269 188.458733 193.445771 188.852211 191.508319 188.856488 Q 189.836037 188.856488 187.949908 189.143042 C 186.371718 189.382551 184.776421 189.20292 183.189678 189.506582 C 181.16241 189.895783 178.780156 189.575013 176.564703 189.972768 Q 175.474084 190.16523 173.55374 190.190892 C 173.327062 190.195169 173.100384 190.229384 172.882261 190.293538 C 171.248471 190.764001 169.28108 190.486001 167.489044 190.870925 C 166.364209 191.11471 164.957097 190.939356 163.712509 191.217357 C 162.185642 191.555235 160.09422 191.302895 158.468985 191.713481 C 157.425412 191.974374 156.180824 191.773358 155.064543 192.017144 Q 154.380233 192.16256 151.288008 192.551761 Q 149.380495 192.786992 147.507196 193.047886 Q 144.107032 193.522625 143.208875 193.561118 Q 142.032718 193.612441 141.1645 193.860503 C 140.411759 194.078627 139.513602 194.027304 138.435814 194.202658 Q 135.14685 194.728722 131.943424 195.182077 Q 130.202711 195.430139 127.69215 195.909156 Q 126.280761 196.178603 123.436598 196.619127 Q 120.943144 197.004052 118.257228 197.534392 Q 113.822045 198.415441 113.094965 198.522364 Q 110.883789 198.843134 108.903568 199.257997 Q 105.541895 199.959415 101.239297 200.686494 C 100.74745 200.772033 99.857847 201.20828 99.164983 201.30665 Q 97.030792 201.597482 96.196789 201.931083 C 95.995773 202.012344 95.781926 202.050837 95.563803 202.038006 Q 94.986416 202.008067 92.993364 202.495638 C 92.903548 202.517023 92.852225 202.397269 92.92921 202.345945 Z" style="fill:#f59025;"/>
	</g>
	<g id="surface4">
	</g>
</svg>
